<?xml version="1.0" encoding="UTF-8" standalone="no"?>
<!DOCTYPE svg PUBLIC "-//W3C//DTD SVG 1.1//EN"
 "http://www.w3.org/Graphics/SVG/1.1/DTD/svg11.dtd">
<!-- Generated by graphviz version 2.43.0 (0)
 -->
<!-- Title: init_actors_and_load_textures Pages: 1 -->
<!--zoomable 512 -->

<svg id="main" version="1.1" xmlns="http://www.w3.org/2000/svg" xmlns:xlink="http://www.w3.org/1999/xlink" xml:space="preserve" onload="init(evt)">

<style type="text/css"><![CDATA[
.node, .edge {opacity: 0.7;}
.node.selected, .edge.selected {opacity: 1;}
.edge:hover path { stroke: red; }
.edge:hover polygon { stroke: red; fill: red; }
]]></style>

<defs>
  <circle id="rim" cx="0" cy="0" r="7"/>
  <circle id="rim2" cx="0" cy="0" r="3.5"/>
  <g id="zoomPlus">
    <use xlink:href="#rim" fill="#404040"><set attributeName="fill" to="#808080" begin="zoomplus.mouseover" end="zoomplus.mouseout"/></use>
    <path d="M-4,0h8M0,-4v8" fill="none" stroke="white" stroke-width="1.5" pointer-events="none"/>
  </g>
  <g id="zoomMin">
    <use xlink:href="#rim" fill="#404040"><set attributeName="fill" to="#808080" begin="zoomminus.mouseover" end="zoomminus.mouseout"/></use>
    <path d="M-4,0h8" fill="none" stroke="white" stroke-width="1.5" pointer-events="none"/>
  </g>
  <g id="arrowUp" transform="translate(30 24)">
    <use xlink:href="#rim"/>
    <path pointer-events="none" fill="none" stroke="white" stroke-width="1.5" d="M0,-3.0v7 M-2.5,-0.5L0,-3.0L2.5,-0.5"/>
  </g>
  <g id="arrowRight" transform="rotate(90) translate(36 -43)">
    <use xlink:href="#rim"/>
    <path pointer-events="none" fill="none" stroke="white" stroke-width="1.5" d="M0,-3.0v7 M-2.5,-0.5L0,-3.0L2.5,-0.5"/>
  </g>
  <g id="arrowDown" transform="rotate(180) translate(-30 -48)">
    <use xlink:href="#rim"/>
    <path pointer-events="none" fill="none" stroke="white" stroke-width="1.5" d="M0,-3.0v7 M-2.5,-0.5L0,-3.0L2.5,-0.5"/>
  </g>
  <g id="arrowLeft" transform="rotate(270) translate(-36 17)">
    <use xlink:href="#rim"/>
    <path pointer-events="none" fill="none" stroke="white" stroke-width="1.5" d="M0,-3.0v7 M-2.5,-0.5L0,-3.0L2.5,-0.5"/>
  </g>
  <g id="resetDef">
    <use xlink:href="#rim2" fill="#404040"><set attributeName="fill" to="#808080" begin="reset.mouseover" end="reset.mouseout"/></use>
  </g>
</defs>
<script type="application/ecmascript">
var viewWidth = 932;
var viewHeight = 512;
var sectionId = 'dynsection-56';
</script>
<script type="application/ecmascript" xlink:href="svg.min.js"/>
<svg id="graph" class="graph">
<g id="viewport">
<title>init_actors_and_load_textures</title>
<!-- Node1 -->
<g id="Node000001" class="node">
<title>Node1</title>
<g id="a_Node000001"><a xlink:title="Loads actor textures, course specific actor textures. Calls to spawn_course_vehicles and place_course...">
<polygon fill="#999999" stroke="#666666" points="117,-172.5 0,-172.5 0,-142.5 117,-142.5 117,-172.5"/>
<text text-anchor="start" x="8" y="-160.5" font-family="Helvetica,sans-Serif" font-size="10.00">init_actors_and_load</text>
<text text-anchor="middle" x="58.5" y="-149.5" font-family="Helvetica,sans-Serif" font-size="10.00">_textures</text>
</a>
</g>
</g>
<!-- Node2 -->
<g id="Node000002" class="node">
<title>Node2</title>
<g id="a_Node000002"><a xlink:href="memory_8c.html#a08672f1381d39b459aa779748bf40143" target="_top" xlink:title="Allocates memory and adjusts gFreeMemorySize.">
<polygon fill="white" stroke="#666666" points="449,-353 347,-353 347,-334 449,-334 449,-353"/>
<text text-anchor="middle" x="398" y="-341" font-family="Helvetica,sans-Serif" font-size="10.00">allocate_memory</text>
</a>
</g>
</g>
<!-- Node1&#45;&gt;Node2 -->
<g id="edge1_Node000001_Node000002" class="edge">
<title>Node1&#45;&gt;Node2</title>
<g id="a_edge1_Node000001_Node000002"><a xlink:title=" ">
<path fill="none" stroke="#63b8ff" d="M65.97,-172.7C78.49,-200.21 108.77,-258.11 153,-287.5 208.15,-324.14 284.07,-337 336.51,-341.41"/>
<polygon fill="#63b8ff" stroke="#63b8ff" points="336.43,-344.92 346.67,-342.19 336.97,-337.94 336.43,-344.92"/>
</a>
</g>
</g>
<!-- Node3 -->
<g id="Node000003" class="node">
<title>Node3</title>
<g id="a_Node000003"><a xlink:href="Game_8cpp.html#a88c0d93fc49776f7a5c145312f4f81a0" target="_top" xlink:title=" ">
<polygon fill="white" stroke="#666666" points="275,-241 189,-241 189,-222 275,-222 275,-241"/>
<text text-anchor="middle" x="232" y="-229" font-family="Helvetica,sans-Serif" font-size="10.00">CM_BeginPlay</text>
</a>
</g>
</g>
<!-- Node1&#45;&gt;Node3 -->
<g id="edge2_Node000001_Node000003" class="edge">
<title>Node1&#45;&gt;Node3</title>
<g id="a_edge2_Node000001_Node000003"><a xlink:title=" ">
<path fill="none" stroke="#63b8ff" d="M80.41,-172.64C98.73,-185.25 126.5,-202.82 153,-213.5 161.24,-216.82 170.23,-219.61 179.08,-221.92"/>
<polygon fill="#63b8ff" stroke="#63b8ff" points="178.42,-225.36 188.97,-224.33 180.08,-218.56 178.42,-225.36"/>
</a>
</g>
</g>
<!-- Node8 -->
<g id="Node000008" class="node">
<title>Node8</title>
<g id="a_Node000008"><a xlink:href="Game_8cpp.html#a13d5b10b9acb59b4b90db739aba83d1f" target="_top" xlink:title=" ">
<polygon fill="white" stroke="#666666" points="278.5,-204 185.5,-204 185.5,-185 278.5,-185 278.5,-204"/>
<text text-anchor="middle" x="232" y="-192" font-family="Helvetica,sans-Serif" font-size="10.00">CM_CleanWorld</text>
</a>
</g>
</g>
<!-- Node1&#45;&gt;Node8 -->
<g id="edge7_Node000001_Node000008" class="edge">
<title>Node1&#45;&gt;Node8</title>
<g id="a_edge7_Node000001_Node000008"><a xlink:title=" ">
<path fill="none" stroke="#63b8ff" d="M117.08,-169.92C136.39,-174.09 157.83,-178.71 176.86,-182.82"/>
<polygon fill="#63b8ff" stroke="#63b8ff" points="176.34,-186.29 186.86,-184.98 177.82,-179.45 176.34,-186.29"/>
</a>
</g>
</g>
<!-- Node9 -->
<g id="Node000009" class="node">
<title>Node9</title>
<g id="a_Node000009"><a xlink:href="Game_8cpp.html#aed1eabdc18e483fc04bd8f3c1b02968d" target="_top" xlink:title=" ">
<polygon fill="white" stroke="#666666" points="283,-167 181,-167 181,-148 283,-148 283,-167"/>
<text text-anchor="middle" x="232" y="-155" font-family="Helvetica,sans-Serif" font-size="10.00">CM_LoadTextures</text>
</a>
</g>
</g>
<!-- Node1&#45;&gt;Node9 -->
<g id="edge8_Node000001_Node000009" class="edge">
<title>Node1&#45;&gt;Node9</title>
<g id="a_edge8_Node000001_Node000009"><a xlink:title=" ">
<path fill="none" stroke="#63b8ff" d="M117.08,-157.5C134.33,-157.5 153.28,-157.5 170.7,-157.5"/>
<polygon fill="#63b8ff" stroke="#63b8ff" points="170.75,-161 180.75,-157.5 170.75,-154 170.75,-161"/>
</a>
</g>
</g>
<!-- Node10 -->
<g id="Node000010" class="node">
<title>Node10</title>
<g id="a_Node000010"><a xlink:href="actors_8c.html#a90bb1e98b1fc94450092f4fddff2a61b" target="_top" xlink:title=" ">
<polygon fill="white" stroke="#666666" points="285,-130 179,-130 179,-111 285,-111 285,-130"/>
<text text-anchor="middle" x="232" y="-118" font-family="Helvetica,sans-Serif" font-size="10.00">destroy_all_actors</text>
</a>
</g>
</g>
<!-- Node1&#45;&gt;Node10 -->
<g id="edge9_Node000001_Node000010" class="edge">
<title>Node1&#45;&gt;Node10</title>
<g id="a_edge9_Node000001_Node000010"><a xlink:title=" ">
<path fill="none" stroke="#63b8ff" d="M117.08,-145.08C136.39,-140.91 157.83,-136.29 176.86,-132.18"/>
<polygon fill="#63b8ff" stroke="#63b8ff" points="177.82,-135.55 186.86,-130.02 176.34,-128.71 177.82,-135.55"/>
</a>
</g>
</g>
<!-- Node12 -->
<g id="Node000012" class="node">
<title>Node12</title>
<g id="a_Node000012"><a xlink:href="memory_8c.html#a56dd580b5f9113b83709d1f11181e6a7" target="_top" xlink:title=" ">
<polygon fill="white" stroke="#666666" points="274,-278 190,-278 190,-259 274,-259 274,-278"/>
<text text-anchor="middle" x="232" y="-266" font-family="Helvetica,sans-Serif" font-size="10.00">dma_textures</text>
</a>
</g>
</g>
<!-- Node1&#45;&gt;Node12 -->
<g id="edge11_Node000001_Node000012" class="edge">
<title>Node1&#45;&gt;Node12</title>
<g id="a_edge11_Node000001_Node000012"><a xlink:title=" ">
<path fill="none" stroke="#63b8ff" d="M70.32,-172.65C86.06,-193.53 117.33,-230.79 153,-250.5 161.22,-255.04 170.53,-258.44 179.79,-260.98"/>
<polygon fill="#63b8ff" stroke="#63b8ff" points="179.21,-264.44 189.76,-263.42 180.88,-257.64 179.21,-264.44"/>
</a>
</g>
</g>
<!-- Node26 -->
<g id="Node000026" class="node">
<title>Node26</title>
<g id="a_Node000026"><a xlink:href="actors_8c.html#a7dd08845f085e355fe4eb45bff89542a" target="_top" xlink:title=" ">
<polygon fill="white" stroke="#666666" points="293,-93 171,-93 171,-74 293,-74 293,-93"/>
<text text-anchor="middle" x="232" y="-81" font-family="Helvetica,sans-Serif" font-size="10.00">init_red_shell_texture</text>
</a>
</g>
</g>
<!-- Node1&#45;&gt;Node26 -->
<g id="edge40_Node000001_Node000026" class="edge">
<title>Node1&#45;&gt;Node26</title>
<g id="a_edge40_Node000001_Node000026"><a xlink:title=" ">
<path fill="none" stroke="#63b8ff" d="M80.41,-142.36C98.73,-129.75 126.5,-112.18 153,-101.5 158.16,-99.42 163.6,-97.55 169.13,-95.88"/>
<polygon fill="#63b8ff" stroke="#63b8ff" points="170.43,-99.15 179.11,-93.08 168.53,-92.41 170.43,-99.15"/>
</a>
</g>
</g>
<!-- Node27 -->
<g id="Node000027" class="node">
<title>Node27</title>
<g id="a_Node000027"><a xlink:href="memory_8c.html#ab56e85d799262a4d75c3be6be4ce4590" target="_top" xlink:title=" ">
<polygon fill="white" stroke="#666666" points="311,-56 153,-56 153,-37 311,-37 311,-56"/>
<text text-anchor="middle" x="232" y="-44" font-family="Helvetica,sans-Serif" font-size="10.00">set_segment_base_addr_x64</text>
</a>
</g>
</g>
<!-- Node1&#45;&gt;Node27 -->
<g id="edge41_Node000001_Node000027" class="edge">
<title>Node1&#45;&gt;Node27</title>
<g id="a_edge41_Node000001_Node000027"><a xlink:title=" ">
<path fill="none" stroke="#63b8ff" d="M70.32,-142.35C86.06,-121.47 117.33,-84.21 153,-64.5 156.3,-62.68 159.77,-61.04 163.34,-59.57"/>
<polygon fill="#63b8ff" stroke="#63b8ff" points="164.8,-62.77 172.99,-56.05 162.39,-56.19 164.8,-62.77"/>
</a>
</g>
</g>
<!-- Node28 -->
<g id="Node000028" class="node">
<title>Node28</title>
<g id="a_Node000028"><a xlink:href="actors_8c.html#a047d32425b6ea73e667cb31548bdc8dd" target="_top" xlink:title=" ">
<polygon fill="white" stroke="#666666" points="292.5,-19 171.5,-19 171.5,0 292.5,0 292.5,-19"/>
<text text-anchor="middle" x="232" y="-7" font-family="Helvetica,sans-Serif" font-size="10.00">spawn_course_actors</text>
</a>
</g>
</g>
<!-- Node1&#45;&gt;Node28 -->
<g id="edge42_Node000001_Node000028" class="edge">
<title>Node1&#45;&gt;Node28</title>
<g id="a_edge42_Node000001_Node000028"><a xlink:title=" ">
<path fill="none" stroke="#63b8ff" d="M65.97,-142.3C78.5,-114.8 108.79,-56.91 153,-27.5 155.78,-25.65 158.72,-23.99 161.77,-22.5"/>
<polygon fill="#63b8ff" stroke="#63b8ff" points="163.35,-25.64 171.2,-18.52 160.62,-19.19 163.35,-25.64"/>
</a>
</g>
</g>
<!-- Node4 -->
<g id="Node000004" class="node">
<title>Node4</title>
<g id="a_Node000004"><a xlink:href="namespaceEditor.html#ac95c825fc97e637d93f36fe4e9121515" target="_top" xlink:title=" ">
<polygon fill="white" stroke="#666666" points="448.5,-167 347.5,-167 347.5,-148 448.5,-148 448.5,-167"/>
<text text-anchor="middle" x="398" y="-155" font-family="Helvetica,sans-Serif" font-size="10.00">Editor::LoadLevel</text>
</a>
</g>
</g>
<!-- Node3&#45;&gt;Node4 -->
<g id="edge3_Node000003_Node000004" class="edge">
<title>Node3&#45;&gt;Node4</title>
<g id="a_edge3_Node000003_Node000004"><a xlink:title=" ">
<path fill="none" stroke="#63b8ff" d="M275.14,-224.6C287.01,-221.91 299.75,-218.29 311,-213.5 335.43,-203.11 360.56,-185.84 377.3,-173.22"/>
<polygon fill="#63b8ff" stroke="#63b8ff" points="379.45,-175.98 385.24,-167.11 375.18,-170.44 379.45,-175.98"/>
</a>
</g>
</g>
<!-- Node5 -->
<g id="Node000005" class="node">
<title>Node5</title>
<g id="a_Node000005"><a xlink:href="structSpawnParams.html#a8a5a24c4ced13fc9150d32d895470c9f" target="_top" xlink:title=" ">
<polygon fill="white" stroke="#666666" points="631,-167 491,-167 491,-148 631,-148 631,-167"/>
<text text-anchor="middle" x="561" y="-155" font-family="Helvetica,sans-Serif" font-size="10.00">SpawnParams::from_json</text>
</a>
</g>
</g>
<!-- Node4&#45;&gt;Node5 -->
<g id="edge4_Node000004_Node000005" class="edge">
<title>Node4&#45;&gt;Node5</title>
<g id="a_edge4_Node000004_Node000005"><a xlink:title=" ">
<path fill="none" stroke="#63b8ff" d="M448.62,-157.5C458.81,-157.5 469.77,-157.5 480.7,-157.5"/>
<polygon fill="#63b8ff" stroke="#63b8ff" points="480.71,-161 490.71,-157.5 480.71,-154 480.71,-161"/>
</a>
</g>
</g>
<!-- Node7 -->
<g id="Node000007" class="node">
<title>Node7</title>
<g id="a_Node000007"><a xlink:href="namespaceEditor.html#a5682c68f8c058161eac4f98905aa0c86" target="_top" xlink:title=" ">
<polygon fill="white" stroke="#666666" points="637,-129.5 485,-129.5 485,-99.5 637,-99.5 637,-129.5"/>
<text text-anchor="start" x="493" y="-117.5" font-family="Helvetica,sans-Serif" font-size="10.00">Editor::Load_AddStaticMesh</text>
<text text-anchor="middle" x="561" y="-106.5" font-family="Helvetica,sans-Serif" font-size="10.00">Actor</text>
</a>
</g>
</g>
<!-- Node4&#45;&gt;Node7 -->
<g id="edge6_Node000004_Node000007" class="edge">
<title>Node4&#45;&gt;Node7</title>
<g id="a_edge6_Node000004_Node000007"><a xlink:title=" ">
<path fill="none" stroke="#63b8ff" d="M434.73,-147.96C452.17,-143.3 473.71,-137.55 493.99,-132.13"/>
<polygon fill="#63b8ff" stroke="#63b8ff" points="495.06,-135.47 503.81,-129.51 493.25,-128.71 495.06,-135.47"/>
</a>
</g>
</g>
<!-- Node6 -->
<g id="Node000006" class="node">
<title>Node6</title>
<g id="a_Node000006"><a xlink:href="SpawnParams_8h.html#af4dfccdb6d4f1f9514fa9f7483e0d0aa" target="_top" xlink:title=" ">
<polygon fill="white" stroke="#666666" points="765,-31 673,-31 673,-12 765,-12 765,-31"/>
<text text-anchor="middle" x="719" y="-19" font-family="Helvetica,sans-Serif" font-size="10.00">get_optional_to</text>
</a>
</g>
</g>
<!-- Node5&#45;&gt;Node6 -->
<g id="edge5_Node000005_Node000006" class="edge">
<title>Node5&#45;&gt;Node6</title>
<g id="a_edge5_Node000005_Node000006"><a xlink:title=" ">
<path fill="none" stroke="#63b8ff" d="M622.38,-147.88C627.69,-145.41 632.68,-142.33 637,-138.5 670.18,-109.12 643.61,-78.67 673,-45.5 676.06,-42.05 679.73,-39.01 683.64,-36.36"/>
<polygon fill="#63b8ff" stroke="#63b8ff" points="685.61,-39.26 692.44,-31.16 682.05,-33.24 685.61,-39.26"/>
</a>
</g>
</g>
<!-- Node11 -->
<g id="Node000011" class="node">
<title>Node11</title>
<g id="a_Node000011"><a xlink:href="Game_8cpp.html#a693de7d8b89fe291aafea86bc64a0a2e" target="_top" xlink:title=" ">
<polygon fill="white" stroke="#666666" points="438,-130 358,-130 358,-111 438,-111 438,-130"/>
<text text-anchor="middle" x="398" y="-118" font-family="Helvetica,sans-Serif" font-size="10.00">CM_GetActor</text>
</a>
</g>
</g>
<!-- Node10&#45;&gt;Node11 -->
<g id="edge10_Node000010_Node000011" class="edge">
<title>Node10&#45;&gt;Node11</title>
<g id="a_edge10_Node000010_Node000011"><a xlink:title=" ">
<path fill="none" stroke="#63b8ff" d="M285.34,-120.5C305.38,-120.5 328.15,-120.5 347.87,-120.5"/>
<polygon fill="#63b8ff" stroke="#63b8ff" points="347.88,-124 357.88,-120.5 347.88,-117 347.88,-124"/>
</a>
</g>
</g>
<!-- Node12&#45;&gt;Node2 -->
<g id="edge12_Node000012_Node000002" class="edge">
<title>Node12&#45;&gt;Node2</title>
<g id="a_edge12_Node000012_Node000002"><a xlink:title=" ">
<path fill="none" stroke="#63b8ff" d="M250.47,-278.04C272.58,-289.94 312.01,-310.52 347,-325.5 350.91,-327.18 355.04,-328.83 359.17,-330.42"/>
<polygon fill="#63b8ff" stroke="#63b8ff" points="358.15,-333.77 368.74,-333.98 360.59,-327.21 358.15,-333.77"/>
</a>
</g>
</g>
<!-- Node13 -->
<g id="Node000013" class="node">
<title>Node13</title>
<g id="a_Node000013"><a xlink:href="stubs_8c.html#ae4722e596a88d66404ccaaf6ea181b41" target="_top" xlink:title=" ">
<polygon fill="white" stroke="#666666" points="436.5,-316 359.5,-316 359.5,-297 436.5,-297 436.5,-316"/>
<text text-anchor="middle" x="398" y="-304" font-family="Helvetica,sans-Serif" font-size="10.00">mio0decode</text>
</a>
</g>
</g>
<!-- Node12&#45;&gt;Node13 -->
<g id="edge13_Node000012_Node000013" class="edge">
<title>Node12&#45;&gt;Node13</title>
<g id="a_edge13_Node000012_Node000013"><a xlink:title=" ">
<path fill="none" stroke="#63b8ff" d="M274.38,-278.09C297.22,-283.38 325.67,-289.97 349.42,-295.48"/>
<polygon fill="#63b8ff" stroke="#63b8ff" points="348.75,-298.91 359.28,-297.76 350.33,-292.09 348.75,-298.91"/>
</a>
</g>
</g>
<!-- Node14 -->
<g id="Node000014" class="node">
<title>Node14</title>
<g id="a_Node000014"><a xlink:href="osPiStartDma_8c.html#ae288a36d96a4db6977d95327e246ec12" target="_top" xlink:title=" ">
<polygon fill="white" stroke="#666666" points="439.5,-240 356.5,-240 356.5,-221 439.5,-221 439.5,-240"/>
<text text-anchor="middle" x="398" y="-228" font-family="Helvetica,sans-Serif" font-size="10.00">osPiStartDma</text>
</a>
</g>
</g>
<!-- Node12&#45;&gt;Node14 -->
<g id="edge14_Node000012_Node000014" class="edge">
<title>Node12&#45;&gt;Node14</title>
<g id="a_edge14_Node000012_Node000014"><a xlink:title=" ">
<path fill="none" stroke="#63b8ff" d="M274.29,-258.98C286.15,-256.25 299.09,-253.26 311,-250.5 322.43,-247.85 334.72,-245 346.33,-242.3"/>
<polygon fill="#63b8ff" stroke="#63b8ff" points="347.37,-245.65 356.32,-239.98 345.79,-238.83 347.37,-245.65"/>
</a>
</g>
</g>
<!-- Node25 -->
<g id="Node000025" class="node">
<title>Node25</title>
<g id="a_Node000025"><a xlink:href="osRecvMesg_8c.html#aa254dc33e373f235a99e17f7717493dc" target="_top" xlink:title=" ">
<polygon fill="white" stroke="#666666" points="600,-315 522,-315 522,-296 600,-296 600,-315"/>
<text text-anchor="middle" x="561" y="-303" font-family="Helvetica,sans-Serif" font-size="10.00">osRecvMesg</text>
</a>
</g>
</g>
<!-- Node12&#45;&gt;Node25 -->
<g id="edge34_Node000012_Node000025" class="edge">
<title>Node12&#45;&gt;Node25</title>
<g id="a_edge34_Node000012_Node000025"><a xlink:title=" ">
<path fill="none" stroke="#63b8ff" d="M274.08,-271.57C317.6,-274.99 388.26,-281.04 449,-288.5 469.58,-291.03 492.23,-294.39 511.67,-297.46"/>
<polygon fill="#63b8ff" stroke="#63b8ff" points="511.38,-300.95 521.81,-299.08 512.48,-294.04 511.38,-300.95"/>
</a>
</g>
</g>
<!-- Node15 -->
<g id="Node000015" class="node">
<title>Node15</title>
<g id="a_Node000015"><a xlink:href="osJamMesg_8c.html#ac69f7738a5120910a2f6202d27fb44f4" target="_top" xlink:title=" ">
<polygon fill="white" stroke="#666666" points="597.5,-204 524.5,-204 524.5,-185 597.5,-185 597.5,-204"/>
<text text-anchor="middle" x="561" y="-192" font-family="Helvetica,sans-Serif" font-size="10.00">osJamMesg</text>
</a>
</g>
</g>
<!-- Node14&#45;&gt;Node15 -->
<g id="edge15_Node000014_Node000015" class="edge">
<title>Node14&#45;&gt;Node15</title>
<g id="a_edge15_Node000014_Node000015"><a xlink:title=" ">
<path fill="none" stroke="#63b8ff" d="M439.63,-221.42C462.45,-216.31 490.99,-209.93 514.56,-204.66"/>
<polygon fill="#63b8ff" stroke="#63b8ff" points="515.32,-208.08 524.32,-202.48 513.8,-201.24 515.32,-208.08"/>
</a>
</g>
</g>
<!-- Node23 -->
<g id="Node000023" class="node">
<title>Node23</title>
<g id="a_Node000023"><a xlink:href="osPiGetCmdQueue_8c.html#a758cb1b861d52fc7655d52ac7144ac88" target="_top" xlink:title=" ">
<polygon fill="white" stroke="#666666" points="615,-241 507,-241 507,-222 615,-222 615,-241"/>
<text text-anchor="middle" x="561" y="-229" font-family="Helvetica,sans-Serif" font-size="10.00">osPiGetCmdQueue</text>
</a>
</g>
</g>
<!-- Node14&#45;&gt;Node23 -->
<g id="edge27_Node000014_Node000023" class="edge">
<title>Node14&#45;&gt;Node23</title>
<g id="a_edge27_Node000014_Node000023"><a xlink:title=" ">
<path fill="none" stroke="#63b8ff" d="M439.63,-230.75C456.92,-230.86 477.5,-230.99 496.7,-231.11"/>
<polygon fill="#63b8ff" stroke="#63b8ff" points="496.88,-234.61 506.9,-231.17 496.92,-227.61 496.88,-234.61"/>
</a>
</g>
</g>
<!-- Node24 -->
<g id="Node000024" class="node">
<title>Node24</title>
<g id="a_Node000024"><a xlink:href="osSendMesg_8c.html#a413bd1b0a16c54dcc9e59c48b3d7f142" target="_top" xlink:title=" ">
<polygon fill="white" stroke="#666666" points="600,-278 522,-278 522,-259 600,-259 600,-278"/>
<text text-anchor="middle" x="561" y="-266" font-family="Helvetica,sans-Serif" font-size="10.00">osSendMesg</text>
</a>
</g>
</g>
<!-- Node14&#45;&gt;Node24 -->
<g id="edge28_Node000014_Node000024" class="edge">
<title>Node14&#45;&gt;Node24</title>
<g id="a_edge28_Node000014_Node000024"><a xlink:title=" ">
<path fill="none" stroke="#63b8ff" d="M439.63,-240.09C461.62,-245.28 488.92,-251.72 511.96,-257.16"/>
<polygon fill="#63b8ff" stroke="#63b8ff" points="511.34,-260.61 521.88,-259.5 512.95,-253.8 511.34,-260.61"/>
</a>
</g>
</g>
<!-- Node16 -->
<g id="Node000016" class="node">
<title>Node16</title>
<g id="a_Node000016"><a xlink:href="libultra__internal_8h.html#a8ad9db8aa6bfc4437abdd0363b663b16" target="_top" xlink:title=" ">
<polygon fill="white" stroke="#666666" points="906.5,-126 818.5,-126 818.5,-107 906.5,-107 906.5,-126"/>
<text text-anchor="middle" x="862.5" y="-114" font-family="Helvetica,sans-Serif" font-size="10.00">__osDisableInt</text>
</a>
</g>
</g>
<!-- Node15&#45;&gt;Node16 -->
<g id="edge16_Node000015_Node000016" class="edge">
<title>Node15&#45;&gt;Node16</title>
<g id="a_edge16_Node000015_Node000016"><a xlink:title=" ">
<path fill="none" stroke="#63b8ff" d="M597.68,-192.89C611.34,-190.62 626.21,-185.93 637,-176.5 670.37,-147.32 636.44,-108.55 673,-83.5 723.4,-48.96 798.68,-81.08 837.07,-101.91"/>
<polygon fill="#63b8ff" stroke="#63b8ff" points="835.56,-105.08 846,-106.91 838.99,-98.97 835.56,-105.08"/>
</a>
</g>
</g>
<!-- Node17 -->
<g id="Node000017" class="node">
<title>Node17</title>
<g id="a_Node000017"><a xlink:href="libultra__internal_8h.html#afe9c3abc4ca93d9fe18a87d9f108d5cb" target="_top" xlink:title=" ">
<polygon fill="white" stroke="#666666" points="924,-222 801,-222 801,-203 924,-203 924,-222"/>
<text text-anchor="middle" x="862.5" y="-210" font-family="Helvetica,sans-Serif" font-size="10.00">__osEnqueueAndYield</text>
</a>
</g>
</g>
<!-- Node15&#45;&gt;Node17 -->
<g id="edge17_Node000015_Node000017" class="edge">
<title>Node15&#45;&gt;Node17</title>
<g id="a_edge17_Node000015_Node000017"><a xlink:title=" ">
<path fill="none" stroke="#63b8ff" d="M597.64,-193.53C638.24,-192.77 706.52,-192.55 765,-197.5 775.99,-198.43 787.64,-199.86 798.88,-201.47"/>
<polygon fill="#63b8ff" stroke="#63b8ff" points="798.67,-204.98 809.07,-202.99 799.7,-198.05 798.67,-204.98"/>
</a>
</g>
</g>
<!-- Node18 -->
<g id="Node000018" class="node">
<title>Node18</title>
<g id="a_Node000018"><a xlink:href="libultra__internal_8h.html#aaadded63bebce6cfdda5ecda193fc9ea" target="_top" xlink:title=" ">
<polygon fill="white" stroke="#666666" points="907.5,-354 817.5,-354 817.5,-335 907.5,-335 907.5,-354"/>
<text text-anchor="middle" x="862.5" y="-342" font-family="Helvetica,sans-Serif" font-size="10.00">__osPopThread</text>
</a>
</g>
</g>
<!-- Node15&#45;&gt;Node18 -->
<g id="edge18_Node000015_Node000018" class="edge">
<title>Node15&#45;&gt;Node18</title>
<g id="a_edge18_Node000015_Node000018"><a xlink:title=" ">
<path fill="none" stroke="#63b8ff" d="M597.71,-196.63C611.37,-199.09 626.24,-203.97 637,-213.5 670.18,-242.88 639.11,-277.94 673,-306.5 692.96,-323.32 758.87,-333.77 807.15,-339.36"/>
<polygon fill="#63b8ff" stroke="#63b8ff" points="806.83,-342.84 817.16,-340.48 807.61,-335.89 806.83,-342.84"/>
</a>
</g>
</g>
<!-- Node19 -->
<g id="Node000019" class="node">
<title>Node19</title>
<g id="a_Node000019"><a xlink:href="libultra__internal_8h.html#aecafa57b85fd739d6033705808194def" target="_top" xlink:title=" ">
<polygon fill="white" stroke="#666666" points="907,-468 818,-468 818,-449 907,-449 907,-468"/>
<text text-anchor="middle" x="862.5" y="-456" font-family="Helvetica,sans-Serif" font-size="10.00">__osRestoreInt</text>
</a>
</g>
</g>
<!-- Node15&#45;&gt;Node19 -->
<g id="edge19_Node000015_Node000019" class="edge">
<title>Node15&#45;&gt;Node19</title>
<g id="a_edge19_Node000015_Node000019"><a xlink:title=" ">
<path fill="none" stroke="#63b8ff" d="M597.71,-196.15C611.54,-198.52 626.52,-203.47 637,-213.5 677.22,-252.01 639.82,-288.78 673,-333.5 713.48,-388.06 785.35,-425.97 827.69,-444.81"/>
<polygon fill="#63b8ff" stroke="#63b8ff" points="826.45,-448.09 837.01,-448.87 829.24,-441.67 826.45,-448.09"/>
</a>
</g>
</g>
<!-- Node20 -->
<g id="Node000020" class="node">
<title>Node20</title>
<g id="a_Node000020"><a xlink:href="osStartThread_8c.html#a3b144e814933e16a2fbf2642ad098ed3" target="_top" xlink:title=" ">
<polygon fill="white" stroke="#666666" points="761.5,-297 676.5,-297 676.5,-278 761.5,-278 761.5,-297"/>
<text text-anchor="middle" x="719" y="-285" font-family="Helvetica,sans-Serif" font-size="10.00">osStartThread</text>
</a>
</g>
</g>
<!-- Node15&#45;&gt;Node20 -->
<g id="edge20_Node000015_Node000020" class="edge">
<title>Node15&#45;&gt;Node20</title>
<g id="a_edge20_Node000015_Node000020"><a xlink:title=" ">
<path fill="none" stroke="#63b8ff" d="M597.67,-199.8C610.58,-202.67 624.94,-207 637,-213.5 663.7,-227.89 688.53,-253.01 703.48,-269.94"/>
<polygon fill="#63b8ff" stroke="#63b8ff" points="701.18,-272.64 710.35,-277.95 706.49,-268.08 701.18,-272.64"/>
</a>
</g>
</g>
<!-- Node20&#45;&gt;Node16 -->
<g id="edge21_Node000020_Node000016" class="edge">
<title>Node20&#45;&gt;Node16</title>
<g id="a_edge21_Node000020_Node000016"><a xlink:title=" ">
<path fill="none" stroke="#63b8ff" d="M728.01,-277.82C750.97,-250.07 817.25,-169.98 846.88,-134.17"/>
<polygon fill="#63b8ff" stroke="#63b8ff" points="849.9,-136.01 853.57,-126.08 844.5,-131.55 849.9,-136.01"/>
</a>
</g>
</g>
<!-- Node20&#45;&gt;Node17 -->
<g id="edge23_Node000020_Node000017" class="edge">
<title>Node20&#45;&gt;Node17</title>
<g id="a_edge23_Node000020_Node000017"><a xlink:title=" ">
<path fill="none" stroke="#63b8ff" d="M740.27,-277.9C748.21,-273.83 757.26,-268.8 765,-263.5 782.42,-251.57 782.63,-242.9 801,-232.5 805.52,-229.94 810.41,-227.65 815.39,-225.61"/>
<polygon fill="#63b8ff" stroke="#63b8ff" points="816.87,-228.8 825,-222.01 814.41,-222.24 816.87,-228.8"/>
</a>
</g>
</g>
<!-- Node20&#45;&gt;Node18 -->
<g id="edge25_Node000020_Node000018" class="edge">
<title>Node20&#45;&gt;Node18</title>
<g id="a_edge25_Node000020_Node000018"><a xlink:title=" ">
<path fill="none" stroke="#63b8ff" d="M743.68,-297.04C766.85,-306.37 802.32,-320.66 828.3,-331.12"/>
<polygon fill="#63b8ff" stroke="#63b8ff" points="827.16,-334.44 837.74,-334.93 829.77,-327.95 827.16,-334.44"/>
</a>
</g>
</g>
<!-- Node20&#45;&gt;Node19 -->
<g id="edge26_Node000020_Node000019" class="edge">
<title>Node20&#45;&gt;Node19</title>
<g id="a_edge26_Node000020_Node000019"><a xlink:title=" ">
<path fill="none" stroke="#63b8ff" d="M728.01,-297.18C750.97,-324.93 817.25,-405.02 846.88,-440.83"/>
<polygon fill="#63b8ff" stroke="#63b8ff" points="844.5,-443.45 853.57,-448.92 849.9,-438.99 844.5,-443.45"/>
</a>
</g>
</g>
<!-- Node21 -->
<g id="Node000021" class="node">
<title>Node21</title>
<g id="a_Node000021"><a xlink:href="libultra__internal_8h.html#a650b788ebd5efde9c8cbccc1ee832445" target="_top" xlink:title=" ">
<polygon fill="white" stroke="#666666" points="920,-297 805,-297 805,-278 920,-278 920,-297"/>
<text text-anchor="middle" x="862.5" y="-285" font-family="Helvetica,sans-Serif" font-size="10.00">__osDispatchThread</text>
</a>
</g>
</g>
<!-- Node20&#45;&gt;Node21 -->
<g id="edge22_Node000020_Node000021" class="edge">
<title>Node20&#45;&gt;Node21</title>
<g id="a_edge22_Node000020_Node000021"><a xlink:title=" ">
<path fill="none" stroke="#63b8ff" d="M761.69,-287.5C772.05,-287.5 783.42,-287.5 794.65,-287.5"/>
<polygon fill="#63b8ff" stroke="#63b8ff" points="794.9,-291 804.9,-287.5 794.9,-284 794.9,-291"/>
</a>
</g>
</g>
<!-- Node22 -->
<g id="Node000022" class="node">
<title>Node22</title>
<g id="a_Node000022"><a xlink:href="libultra__internal_8h.html#ac9d6cfd19de5565e74f1d74a14e9092d" target="_top" xlink:title=" ">
<polygon fill="white" stroke="#666666" points="919.5,-260 805.5,-260 805.5,-241 919.5,-241 919.5,-260"/>
<text text-anchor="middle" x="862.5" y="-248" font-family="Helvetica,sans-Serif" font-size="10.00">__osEnqueueThread</text>
</a>
</g>
</g>
<!-- Node20&#45;&gt;Node22 -->
<g id="edge24_Node000020_Node000022" class="edge">
<title>Node20&#45;&gt;Node22</title>
<g id="a_edge24_Node000020_Node000022"><a xlink:title=" ">
<path fill="none" stroke="#63b8ff" d="M756.44,-277.97C774.21,-273.33 795.79,-267.68 814.76,-262.72"/>
<polygon fill="#63b8ff" stroke="#63b8ff" points="815.9,-266.04 824.69,-260.12 814.13,-259.27 815.9,-266.04"/>
</a>
</g>
</g>
<!-- Node24&#45;&gt;Node16 -->
<g id="edge29_Node000024_Node000016" class="edge">
<title>Node24&#45;&gt;Node16</title>
<g id="a_edge29_Node000024_Node000016"><a xlink:title=" ">
<path fill="none" stroke="#63b8ff" d="M600.09,-267.09C613.26,-264.76 627.17,-259.98 637,-250.5 679.85,-209.19 626.07,-158.12 673,-121.5 714.49,-89.13 778.2,-95.44 819.86,-104.62"/>
<polygon fill="#63b8ff" stroke="#63b8ff" points="819.16,-108.05 829.69,-106.92 820.76,-101.23 819.16,-108.05"/>
</a>
</g>
</g>
<!-- Node24&#45;&gt;Node17 -->
<g id="edge30_Node000024_Node000017" class="edge">
<title>Node24&#45;&gt;Node17</title>
<g id="a_edge30_Node000024_Node000017"><a xlink:title=" ">
<path fill="none" stroke="#63b8ff" d="M600.1,-260.6C612.02,-257.79 625.16,-254.36 637,-250.5 653.48,-245.13 656.24,-239.92 673,-235.5 711.15,-225.43 754.83,-219.75 790.53,-216.55"/>
<polygon fill="#63b8ff" stroke="#63b8ff" points="791.19,-220.01 800.86,-215.68 790.6,-213.03 791.19,-220.01"/>
</a>
</g>
</g>
<!-- Node24&#45;&gt;Node18 -->
<g id="edge31_Node000024_Node000018" class="edge">
<title>Node24&#45;&gt;Node18</title>
<g id="a_edge31_Node000024_Node000018"><a xlink:title=" ">
<path fill="none" stroke="#63b8ff" d="M600.08,-272.7C612.66,-275.45 626.19,-279.99 637,-287.5 660.09,-303.53 648.28,-326.13 673,-339.5 714.06,-361.71 767.86,-360.73 807.47,-355.5"/>
<polygon fill="#63b8ff" stroke="#63b8ff" points="808.08,-358.95 817.47,-354.05 807.07,-352.02 808.08,-358.95"/>
</a>
</g>
</g>
<!-- Node24&#45;&gt;Node19 -->
<g id="edge32_Node000024_Node000019" class="edge">
<title>Node24&#45;&gt;Node19</title>
<g id="a_edge32_Node000024_Node000019"><a xlink:title=" ">
<path fill="none" stroke="#63b8ff" d="M600.05,-270.09C613.37,-272.53 627.39,-277.55 637,-287.5 689.45,-341.8 614.87,-405.34 673,-453.5 714.11,-487.56 779.32,-480.26 821.26,-470.47"/>
<polygon fill="#63b8ff" stroke="#63b8ff" points="822.26,-473.82 831.13,-468.02 820.58,-467.03 822.26,-473.82"/>
</a>
</g>
</g>
<!-- Node24&#45;&gt;Node20 -->
<g id="edge33_Node000024_Node000020" class="edge">
<title>Node24&#45;&gt;Node20</title>
<g id="a_edge33_Node000024_Node000020"><a xlink:title=" ">
<path fill="none" stroke="#63b8ff" d="M600.16,-273.15C620.1,-275.58 644.78,-278.58 666.39,-281.21"/>
<polygon fill="#63b8ff" stroke="#63b8ff" points="666.05,-284.7 676.4,-282.43 666.9,-277.75 666.05,-284.7"/>
</a>
</g>
</g>
<!-- Node25&#45;&gt;Node16 -->
<g id="edge35_Node000025_Node000016" class="edge">
<title>Node25&#45;&gt;Node16</title>
<g id="a_edge35_Node000025_Node000016"><a xlink:title=" ">
<path fill="none" stroke="#63b8ff" d="M600.14,-301.97C612.72,-299.41 626.24,-295.01 637,-287.5 660.66,-271 652.28,-253.56 673,-233.5 721.19,-186.85 791.04,-149.53 830.79,-130.43"/>
<polygon fill="#63b8ff" stroke="#63b8ff" points="832.43,-133.52 839.98,-126.08 829.44,-127.19 832.43,-133.52"/>
</a>
</g>
</g>
<!-- Node25&#45;&gt;Node17 -->
<g id="edge36_Node000025_Node000017" class="edge">
<title>Node25&#45;&gt;Node17</title>
<g id="a_edge36_Node000025_Node000017"><a xlink:title=" ">
<path fill="none" stroke="#63b8ff" d="M600.27,-298.09C612.2,-295.31 625.3,-291.77 637,-287.5 653.81,-281.37 656.38,-276.11 673,-269.5 719.66,-250.94 774.83,-234.91 813.38,-224.62"/>
<polygon fill="#63b8ff" stroke="#63b8ff" points="814.52,-227.94 823.3,-222 812.74,-221.17 814.52,-227.94"/>
</a>
</g>
</g>
<!-- Node25&#45;&gt;Node18 -->
<g id="edge37_Node000025_Node000018" class="edge">
<title>Node25&#45;&gt;Node18</title>
<g id="a_edge37_Node000025_Node000018"><a xlink:title=" ">
<path fill="none" stroke="#63b8ff" d="M572.28,-315.18C590.71,-331.81 631.37,-365.18 673,-377.5 727.83,-393.73 794.14,-373.22 831.71,-358.03"/>
<polygon fill="#63b8ff" stroke="#63b8ff" points="833.19,-361.21 841.06,-354.12 830.49,-354.75 833.19,-361.21"/>
</a>
</g>
</g>
<!-- Node25&#45;&gt;Node19 -->
<g id="edge38_Node000025_Node000019" class="edge">
<title>Node25&#45;&gt;Node19</title>
<g id="a_edge38_Node000025_Node000019"><a xlink:title=" ">
<path fill="none" stroke="#63b8ff" d="M564.22,-315.21C572.19,-347.52 602.69,-451.58 673,-491.5 725.47,-521.29 798.36,-492.21 836.29,-472.79"/>
<polygon fill="#63b8ff" stroke="#63b8ff" points="837.95,-475.87 845.15,-468.1 834.67,-469.68 837.95,-475.87"/>
</a>
</g>
</g>
<!-- Node25&#45;&gt;Node20 -->
<g id="edge39_Node000025_Node000020" class="edge">
<title>Node25&#45;&gt;Node20</title>
<g id="a_edge39_Node000025_Node000020"><a xlink:title=" ">
<path fill="none" stroke="#63b8ff" d="M600.16,-301.1C620.1,-298.8 644.78,-295.95 666.39,-293.45"/>
<polygon fill="#63b8ff" stroke="#63b8ff" points="666.87,-296.92 676.4,-292.3 666.06,-289.97 666.87,-296.92"/>
</a>
</g>
</g>
</g>
</svg>

<g id="navigator" transform="translate(0 0)" fill="#404254">
  <rect fill="#f2f5e9" fill-opacity="0.5" stroke="#606060" stroke-width=".5" x="0" y="0" width="60" height="60"/>
  <use id="zoomplus" xlink:href="#zoomPlus" x="17" y="9" onmousedown="handleZoom(evt,'in')"/>
  <use id="zoomminus" xlink:href="#zoomMin" x="42" y="9" onmousedown="handleZoom(evt,'out')"/>
  <use id="reset" xlink:href="#resetDef" x="30" y="36" onmousedown="handleReset()"/>
   <use id="arrowup" xlink:href="#arrowUp" x="0" y="0" onmousedown="handlePan(0,-1)"/>
  <use id="arrowright" xlink:href="#arrowRight" x="0" y="0" onmousedown="handlePan(1,0)"/>
  <use id="arrowdown" xlink:href="#arrowDown" x="0" y="0" onmousedown="handlePan(0,1)"/>
  <use id="arrowleft" xlink:href="#arrowLeft" x="0" y="0" onmousedown="handlePan(-1,0)"/>
</g>
<svg viewBox="0 0 15 15" width="100%" height="30px" preserveAspectRatio="xMaxYMin meet">
 <g id="arrow_out" transform="scale(0.3 0.3)">
  <a xlink:href="actors_8c_a142a32371ea62d0303702286b839bdfd_cgraph_org.svg" target="_base">
   <rect id="button" ry="5" rx="5" y="6" x="6" height="38" width="38"
        fill="#f2f5e9" fill-opacity="0.5" stroke="#606060" stroke-width="1.0"/>
   <path id="arrow"
     d="M 11.500037,31.436501 C 11.940474,20.09759 22.043105,11.32322 32.158766,21.979434 L 37.068811,17.246167 C 37.068811,17.246167 37.088388,32 37.088388,32 L 22.160133,31.978069 C 22.160133,31.978069 26.997745,27.140456 26.997745,27.140456 C 18.528582,18.264221 13.291696,25.230495 11.500037,31.436501 z"
     style="fill:#404040;"/>
  </a>
 </g>
</svg>

<style type='text/css'>
<![CDATA[
[data-mouse-over-selected='false'] { opacity: 0.7; }
[data-mouse-over-selected='true']  { opacity: 1.0; }
]]>
</style>
<script type="application/ecmascript"><![CDATA[
document.addEventListener('DOMContentLoaded', (event) => {
  highlightEdges();
  highlightAdjacentNodes();
});
]]></script>
</svg>
