<?xml version="1.0" encoding="UTF-8" standalone="no"?>
<!DOCTYPE svg PUBLIC "-//W3C//DTD SVG 1.1//EN"
 "http://www.w3.org/Graphics/SVG/1.1/DTD/svg11.dtd">
<!-- Generated by graphviz version 2.43.0 (0)
 -->
<!-- Title: update_actor_triple_shell Pages: 1 -->
<!--zoomable 503 -->

<svg id="main" version="1.1" xmlns="http://www.w3.org/2000/svg" xmlns:xlink="http://www.w3.org/1999/xlink" xml:space="preserve" onload="init(evt)">

<style type="text/css"><![CDATA[
.node, .edge {opacity: 0.7;}
.node.selected, .edge.selected {opacity: 1;}
.edge:hover path { stroke: red; }
.edge:hover polygon { stroke: red; fill: red; }
]]></style>

<defs>
  <circle id="rim" cx="0" cy="0" r="7"/>
  <circle id="rim2" cx="0" cy="0" r="3.5"/>
  <g id="zoomPlus">
    <use xlink:href="#rim" fill="#404040"><set attributeName="fill" to="#808080" begin="zoomplus.mouseover" end="zoomplus.mouseout"/></use>
    <path d="M-4,0h8M0,-4v8" fill="none" stroke="white" stroke-width="1.5" pointer-events="none"/>
  </g>
  <g id="zoomMin">
    <use xlink:href="#rim" fill="#404040"><set attributeName="fill" to="#808080" begin="zoomminus.mouseover" end="zoomminus.mouseout"/></use>
    <path d="M-4,0h8" fill="none" stroke="white" stroke-width="1.5" pointer-events="none"/>
  </g>
  <g id="arrowUp" transform="translate(30 24)">
    <use xlink:href="#rim"/>
    <path pointer-events="none" fill="none" stroke="white" stroke-width="1.5" d="M0,-3.0v7 M-2.5,-0.5L0,-3.0L2.5,-0.5"/>
  </g>
  <g id="arrowRight" transform="rotate(90) translate(36 -43)">
    <use xlink:href="#rim"/>
    <path pointer-events="none" fill="none" stroke="white" stroke-width="1.5" d="M0,-3.0v7 M-2.5,-0.5L0,-3.0L2.5,-0.5"/>
  </g>
  <g id="arrowDown" transform="rotate(180) translate(-30 -48)">
    <use xlink:href="#rim"/>
    <path pointer-events="none" fill="none" stroke="white" stroke-width="1.5" d="M0,-3.0v7 M-2.5,-0.5L0,-3.0L2.5,-0.5"/>
  </g>
  <g id="arrowLeft" transform="rotate(270) translate(-36 17)">
    <use xlink:href="#rim"/>
    <path pointer-events="none" fill="none" stroke="white" stroke-width="1.5" d="M0,-3.0v7 M-2.5,-0.5L0,-3.0L2.5,-0.5"/>
  </g>
  <g id="resetDef">
    <use xlink:href="#rim2" fill="#404040"><set attributeName="fill" to="#808080" begin="reset.mouseover" end="reset.mouseout"/></use>
  </g>
</defs>
<script type="application/ecmascript">
var viewWidth = 1788;
var viewHeight = 503;
var sectionId = 'dynsection-28';
</script>
<script type="application/ecmascript" xlink:href="svg.min.js"/>
<svg id="graph" class="graph">
<g id="viewport">
<title>update_actor_triple_shell</title>
<!-- Node1 -->
<g id="Node000001" class="node">
<title>Node1</title>
<g id="a_Node000001"><a xlink:title=" ">
<polygon fill="#999999" stroke="#666666" points="111,-195.5 0,-195.5 0,-165.5 111,-165.5 111,-195.5"/>
<text text-anchor="start" x="8" y="-183.5" font-family="Helvetica,sans-Serif" font-size="10.00">update_actor_triple</text>
<text text-anchor="middle" x="55.5" y="-172.5" font-family="Helvetica,sans-Serif" font-size="10.00">_shell</text>
</a>
</g>
</g>
<!-- Node2 -->
<g id="Node000002" class="node">
<title>Node2</title>
<g id="a_Node000002"><a xlink:href="code__80005FD0_8c.html#a3da5a7898fa91355d9cb394860db7904" target="_top" xlink:title=" ">
<polygon fill="white" stroke="#666666" points="283.5,-493.5 162.5,-493.5 162.5,-463.5 283.5,-463.5 283.5,-493.5"/>
<text text-anchor="start" x="170.5" y="-481.5" font-family="Helvetica,sans-Serif" font-size="10.00">add_green_shell_in</text>
<text text-anchor="middle" x="223" y="-470.5" font-family="Helvetica,sans-Serif" font-size="10.00">_unexpired_actor_list</text>
</a>
</g>
</g>
<!-- Node1&#45;&gt;Node2 -->
<g id="edge1_Node000001_Node000002" class="edge">
<title>Node1&#45;&gt;Node2</title>
<g id="a_edge1_Node000001_Node000002"><a xlink:title=" ">
<path fill="none" stroke="#63b8ff" d="M56.93,-195.7C59.06,-241.55 71.73,-379.93 147,-454.5 149.09,-456.57 151.37,-458.47 153.78,-460.2"/>
<polygon fill="#63b8ff" stroke="#63b8ff" points="152.06,-463.25 162.41,-465.48 155.71,-457.28 152.06,-463.25"/>
</a>
</g>
</g>
<!-- Node5 -->
<g id="Node000005" class="node">
<title>Node5</title>
<g id="a_Node000005"><a xlink:href="code__80005FD0_8c.html#a049aa28f9db56c36a8ea389644629029" target="_top" xlink:title=" ">
<polygon fill="white" stroke="#666666" points="299,-445.5 147,-445.5 147,-415.5 299,-415.5 299,-445.5"/>
<text text-anchor="start" x="155" y="-433.5" font-family="Helvetica,sans-Serif" font-size="10.00">add_red_shell_in_unexpired</text>
<text text-anchor="middle" x="223" y="-422.5" font-family="Helvetica,sans-Serif" font-size="10.00">_actor_list</text>
</a>
</g>
</g>
<!-- Node1&#45;&gt;Node5 -->
<g id="edge4_Node000001_Node000005" class="edge">
<title>Node1&#45;&gt;Node5</title>
<g id="a_edge4_Node000001_Node000005"><a xlink:title=" ">
<path fill="none" stroke="#63b8ff" d="M58.53,-195.66C64.58,-235.04 86.01,-341.71 147,-401.5 150.43,-404.87 154.3,-407.85 158.42,-410.5"/>
<polygon fill="#63b8ff" stroke="#63b8ff" points="156.76,-413.58 167.18,-415.46 160.21,-407.49 156.76,-413.58"/>
</a>
</g>
</g>
<!-- Node6 -->
<g id="Node000006" class="node">
<title>Node6</title>
<g id="a_Node000006"><a xlink:href="actors_8c.html#a694ec6ef7548b8618aeb35c038d3a9b9" target="_top" xlink:title=" ">
<polygon fill="white" stroke="#666666" points="993.5,-397 910.5,-397 910.5,-378 993.5,-378 993.5,-397"/>
<text text-anchor="middle" x="952" y="-385" font-family="Helvetica,sans-Serif" font-size="10.00">destroy_actor</text>
</a>
</g>
</g>
<!-- Node1&#45;&gt;Node6 -->
<g id="edge7_Node000001_Node000006" class="edge">
<title>Node1&#45;&gt;Node6</title>
<g id="a_edge7_Node000001_Node000006"><a xlink:title=" ">
<path fill="none" stroke="#63b8ff" d="M69.94,-195.72C113.71,-243.53 258.16,-387.5 410,-387.5 410,-387.5 410,-387.5 595.5,-387.5 704.1,-387.5 831.37,-387.5 900.33,-387.5"/>
<polygon fill="#63b8ff" stroke="#63b8ff" points="900.48,-391 910.48,-387.5 900.48,-384 900.48,-391"/>
</a>
</g>
</g>
<!-- Node16 -->
<g id="Node000016" class="node">
<title>Node16</title>
<g id="a_Node000016"><a xlink:href="external_8c.html#a2be9efc97a92e19d02aaee90d676acc1" target="_top" xlink:title=" ">
<polygon fill="white" stroke="#666666" points="269,-153 177,-153 177,-134 269,-134 269,-153"/>
<text text-anchor="middle" x="223" y="-141" font-family="Helvetica,sans-Serif" font-size="10.00">func_800C9060</text>
</a>
</g>
</g>
<!-- Node1&#45;&gt;Node16 -->
<g id="edge17_Node000001_Node000016" class="edge">
<title>Node1&#45;&gt;Node16</title>
<g id="a_edge17_Node000001_Node000016"><a xlink:title=" ">
<path fill="none" stroke="#63b8ff" d="M111.15,-168.28C129.98,-164.07 151.02,-159.37 169.67,-155.2"/>
<polygon fill="#63b8ff" stroke="#63b8ff" points="170.47,-158.61 179.46,-153.01 168.94,-151.78 170.47,-158.61"/>
</a>
</g>
</g>
<!-- Node18 -->
<g id="Node000018" class="node">
<title>Node18</title>
<g id="a_Node000018"><a xlink:href="external_8c.html#a337fc3ab94ebb3293a85908229303ac8" target="_top" xlink:title=" ">
<polygon fill="white" stroke="#666666" points="269,-98 177,-98 177,-79 269,-79 269,-98"/>
<text text-anchor="middle" x="223" y="-86" font-family="Helvetica,sans-Serif" font-size="10.00">func_800C90F4</text>
</a>
</g>
</g>
<!-- Node1&#45;&gt;Node18 -->
<g id="edge19_Node000001_Node000018" class="edge">
<title>Node1&#45;&gt;Node18</title>
<g id="a_edge19_Node000001_Node000018"><a xlink:title=" ">
<path fill="none" stroke="#63b8ff" d="M79.98,-165.45C98.06,-154.05 123.79,-138.24 147,-125.5 161.68,-117.44 178.37,-109.13 192.26,-102.43"/>
<polygon fill="#63b8ff" stroke="#63b8ff" points="193.86,-105.54 201.38,-98.07 190.85,-99.23 193.86,-105.54"/>
</a>
</g>
</g>
<!-- Node19 -->
<g id="Node000019" class="node">
<title>Node19</title>
<g id="a_Node000019"><a xlink:href="math__util_8c.html#a6270d7eb2d38b9c093e61da43b7d51ff" target="_top" xlink:title=" ">
<polygon fill="white" stroke="#666666" points="269,-61 177,-61 177,-42 269,-42 269,-61"/>
<text text-anchor="middle" x="223" y="-49" font-family="Helvetica,sans-Serif" font-size="10.00">func_802B64C4</text>
</a>
</g>
</g>
<!-- Node1&#45;&gt;Node19 -->
<g id="edge21_Node000001_Node000019" class="edge">
<title>Node1&#45;&gt;Node19</title>
<g id="a_edge21_Node000001_Node000019"><a xlink:title=" ">
<path fill="none" stroke="#63b8ff" d="M64.61,-165.46C78.31,-141.54 108.37,-95 147,-70.5 153.16,-66.59 160.08,-63.49 167.17,-61.02"/>
<polygon fill="#63b8ff" stroke="#63b8ff" points="168.34,-64.32 176.87,-58.04 166.28,-57.63 168.34,-64.32"/>
</a>
</g>
</g>
<!-- Node22 -->
<g id="Node000022" class="node">
<title>Node22</title>
<g id="a_Node000022"><a xlink:href="actors__extended_8c.html#ac7b01b29ffe49800d142fc2e8a308120" target="_top" xlink:title=" ">
<polygon fill="white" stroke="#666666" points="269,-195 177,-195 177,-176 269,-176 269,-195"/>
<text text-anchor="middle" x="223" y="-183" font-family="Helvetica,sans-Serif" font-size="10.00">init_triple_shell</text>
</a>
</g>
</g>
<!-- Node1&#45;&gt;Node22 -->
<g id="edge24_Node000001_Node000022" class="edge">
<title>Node1&#45;&gt;Node22</title>
<g id="a_edge24_Node000001_Node000022"><a xlink:title=" ">
<path fill="none" stroke="#63b8ff" d="M111.15,-182.15C129.02,-182.69 148.88,-183.29 166.79,-183.83"/>
<polygon fill="#63b8ff" stroke="#63b8ff" points="166.69,-187.33 176.8,-184.13 166.91,-180.33 166.69,-187.33"/>
</a>
</g>
</g>
<!-- Node45 -->
<g id="Node000045" class="node">
<title>Node45</title>
<g id="a_Node000045"><a xlink:href="actors__extended_8c.html#af4b1443024248be2d1a9bd97e203b079" target="_top" xlink:title=" ">
<polygon fill="white" stroke="#666666" points="264.5,-24 181.5,-24 181.5,-5 264.5,-5 264.5,-24"/>
<text text-anchor="middle" x="223" y="-12" font-family="Helvetica,sans-Serif" font-size="10.00">is_shell_exist</text>
</a>
</g>
</g>
<!-- Node1&#45;&gt;Node45 -->
<g id="edge49_Node000001_Node000045" class="edge">
<title>Node1&#45;&gt;Node45</title>
<g id="a_edge49_Node000001_Node000045"><a xlink:title=" ">
<path fill="none" stroke="#63b8ff" d="M61.44,-165.33C72.04,-135.28 99.9,-68.1 147,-33.5 154.24,-28.18 162.81,-24.35 171.52,-21.58"/>
<polygon fill="#63b8ff" stroke="#63b8ff" points="172.64,-24.91 181.36,-18.9 170.79,-18.16 172.64,-24.91"/>
</a>
</g>
</g>
<!-- Node3 -->
<g id="Node000003" class="node">
<title>Node3</title>
<g id="a_Node000003"><a xlink:href="code__80005FD0_8c.html#aa8b362cc15beb71aeda9bef462c4826a" target="_top" xlink:title=" ">
<polygon fill="white" stroke="#666666" points="477.5,-483.5 344.5,-483.5 344.5,-453.5 477.5,-453.5 477.5,-483.5"/>
<text text-anchor="start" x="352.5" y="-471.5" font-family="Helvetica,sans-Serif" font-size="10.00">add_actor_in_unexpired</text>
<text text-anchor="middle" x="411" y="-460.5" font-family="Helvetica,sans-Serif" font-size="10.00">_actor_list</text>
</a>
</g>
</g>
<!-- Node2&#45;&gt;Node3 -->
<g id="edge2_Node000002_Node000003" class="edge">
<title>Node2&#45;&gt;Node3</title>
<g id="a_edge2_Node000002_Node000003"><a xlink:title=" ">
<path fill="none" stroke="#63b8ff" d="M283.62,-475.29C299.63,-474.43 317.17,-473.49 333.95,-472.59"/>
<polygon fill="#63b8ff" stroke="#63b8ff" points="334.48,-476.07 344.28,-472.03 334.1,-469.08 334.48,-476.07"/>
</a>
</g>
</g>
<!-- Node4 -->
<g id="Node000004" class="node">
<title>Node4</title>
<g id="a_Node000004"><a xlink:href="Game_8cpp.html#a693de7d8b89fe291aafea86bc64a0a2e" target="_top" xlink:title=" ">
<polygon fill="white" stroke="#666666" points="992,-435 912,-435 912,-416 992,-416 992,-435"/>
<text text-anchor="middle" x="952" y="-423" font-family="Helvetica,sans-Serif" font-size="10.00">CM_GetActor</text>
</a>
</g>
</g>
<!-- Node2&#45;&gt;Node4 -->
<g id="edge3_Node000002_Node000004" class="edge">
<title>Node2&#45;&gt;Node4</title>
<g id="a_edge3_Node000002_Node000004"><a xlink:title=" ">
<path fill="none" stroke="#63b8ff" d="M283.78,-487.44C300.33,-489.53 318.33,-491.45 335,-492.5 546.7,-505.8 797.74,-458.86 901.92,-436.59"/>
<polygon fill="#63b8ff" stroke="#63b8ff" points="902.79,-439.98 911.83,-434.45 901.32,-433.14 902.79,-439.98"/>
</a>
</g>
</g>
<!-- Node5&#45;&gt;Node3 -->
<g id="edge5_Node000005_Node000003" class="edge">
<title>Node5&#45;&gt;Node3</title>
<g id="a_edge5_Node000005_Node000003"><a xlink:title=" ">
<path fill="none" stroke="#63b8ff" d="M297.51,-445.52C309.57,-447.98 322.09,-450.54 334.2,-453.01"/>
<polygon fill="#63b8ff" stroke="#63b8ff" points="333.76,-456.5 344.26,-455.07 335.16,-449.64 333.76,-456.5"/>
</a>
</g>
</g>
<!-- Node5&#45;&gt;Node4 -->
<g id="edge6_Node000005_Node000004" class="edge">
<title>Node5&#45;&gt;Node4</title>
<g id="a_edge6_Node000005_Node000004"><a xlink:title=" ">
<path fill="none" stroke="#63b8ff" d="M299.06,-429.98C447.97,-428.96 777.12,-426.7 901.82,-425.84"/>
<polygon fill="#63b8ff" stroke="#63b8ff" points="901.87,-429.34 911.84,-425.77 901.82,-422.34 901.87,-429.34"/>
</a>
</g>
</g>
<!-- Node7 -->
<g id="Node000007" class="node">
<title>Node7</title>
<g id="a_Node000007"><a xlink:href="actors_8c.html#a12dc3ccac4c7d8569eadac0af4fd6f9f" target="_top" xlink:title=" ">
<polygon fill="white" stroke="#666666" points="1219,-397 1061,-397 1061,-378 1219,-378 1219,-397"/>
<text text-anchor="middle" x="1140" y="-385" font-family="Helvetica,sans-Serif" font-size="10.00">play_sound_before_despawn</text>
</a>
</g>
</g>
<!-- Node6&#45;&gt;Node7 -->
<g id="edge8_Node000006_Node000007" class="edge">
<title>Node6&#45;&gt;Node7</title>
<g id="a_edge8_Node000006_Node000007"><a xlink:title=" ">
<path fill="none" stroke="#63b8ff" d="M993.82,-387.5C1010.65,-387.5 1030.86,-387.5 1050.77,-387.5"/>
<polygon fill="#63b8ff" stroke="#63b8ff" points="1050.82,-391 1060.82,-387.5 1050.82,-384 1050.82,-391"/>
</a>
</g>
</g>
<!-- Node8 -->
<g id="Node000008" class="node">
<title>Node8</title>
<g id="a_Node000008"><a xlink:href="external_8c.html#ae72057869772019e4464c87d4e16c682" target="_top" xlink:title=" ">
<polygon fill="white" stroke="#666666" points="1347,-397 1255,-397 1255,-378 1347,-378 1347,-397"/>
<text text-anchor="middle" x="1301" y="-385" font-family="Helvetica,sans-Serif" font-size="10.00">func_800C99E0</text>
</a>
</g>
</g>
<!-- Node7&#45;&gt;Node8 -->
<g id="edge9_Node000007_Node000008" class="edge">
<title>Node7&#45;&gt;Node8</title>
<g id="a_edge9_Node000007_Node000008"><a xlink:title=" ">
<path fill="none" stroke="#63b8ff" d="M1219.1,-387.5C1227.72,-387.5 1236.35,-387.5 1244.61,-387.5"/>
<polygon fill="#63b8ff" stroke="#63b8ff" points="1244.83,-391 1254.83,-387.5 1244.83,-384 1244.83,-391"/>
</a>
</g>
</g>
<!-- Node9 -->
<g id="Node000009" class="node">
<title>Node9</title>
<g id="a_Node000009"><a xlink:href="external_8c.html#aeb87c527482a244173df36a1f3d4f446" target="_top" xlink:title=" ">
<polygon fill="white" stroke="#666666" points="1475,-416 1383,-416 1383,-397 1475,-397 1475,-416"/>
<text text-anchor="middle" x="1429" y="-404" font-family="Helvetica,sans-Serif" font-size="10.00">func_800C21E8</text>
</a>
</g>
</g>
<!-- Node8&#45;&gt;Node9 -->
<g id="edge10_Node000008_Node000009" class="edge">
<title>Node8&#45;&gt;Node9</title>
<g id="a_edge10_Node000008_Node000009"><a xlink:title=" ">
<path fill="none" stroke="#63b8ff" d="M1347.13,-394.31C1355.46,-395.56 1364.23,-396.88 1372.81,-398.18"/>
<polygon fill="#63b8ff" stroke="#63b8ff" points="1372.35,-401.65 1382.76,-399.68 1373.39,-394.73 1372.35,-401.65"/>
</a>
</g>
</g>
<!-- Node10 -->
<g id="Node000010" class="node">
<title>Node10</title>
<g id="a_Node000010"><a xlink:href="external_8c.html#a028d40421b90c38f68ebfd5acc626f2e" target="_top" xlink:title=" ">
<polygon fill="white" stroke="#666666" points="1475,-379 1383,-379 1383,-360 1475,-360 1475,-379"/>
<text text-anchor="middle" x="1429" y="-367" font-family="Helvetica,sans-Serif" font-size="10.00">func_800C5578</text>
</a>
</g>
</g>
<!-- Node8&#45;&gt;Node10 -->
<g id="edge11_Node000008_Node000010" class="edge">
<title>Node8&#45;&gt;Node10</title>
<g id="a_edge11_Node000008_Node000010"><a xlink:title=" ">
<path fill="none" stroke="#63b8ff" d="M1347.13,-381.05C1355.46,-379.86 1364.23,-378.61 1372.81,-377.38"/>
<polygon fill="#63b8ff" stroke="#63b8ff" points="1373.35,-380.84 1382.76,-375.96 1372.36,-373.91 1373.35,-380.84"/>
</a>
</g>
</g>
<!-- Node11 -->
<g id="Node000011" class="node">
<title>Node11</title>
<g id="a_Node000011"><a xlink:href="external_8c.html#ac0fb767de7e14a03f1bcfa53f0abd23b" target="_top" xlink:title=" ">
<polygon fill="white" stroke="#666666" points="1651,-416 1511,-416 1511,-397 1651,-397 1651,-416"/>
<text text-anchor="middle" x="1581" y="-404" font-family="Helvetica,sans-Serif" font-size="10.00">delete_sound_from_bank</text>
</a>
</g>
</g>
<!-- Node10&#45;&gt;Node11 -->
<g id="edge12_Node000010_Node000011" class="edge">
<title>Node10&#45;&gt;Node11</title>
<g id="a_edge12_Node000010_Node000011"><a xlink:title=" ">
<path fill="none" stroke="#63b8ff" d="M1468.63,-379.03C1487.8,-383.76 1511.16,-389.52 1531.52,-394.54"/>
<polygon fill="#63b8ff" stroke="#63b8ff" points="1530.69,-397.94 1541.24,-396.94 1532.37,-391.15 1530.69,-397.94"/>
</a>
</g>
</g>
<!-- Node13 -->
<g id="Node000013" class="node">
<title>Node13</title>
<g id="a_Node000013"><a xlink:href="external_8c.html#ab83bd36e63f0f1baddcb2482b5ad31b0" target="_top" xlink:title=" ">
<polygon fill="white" stroke="#666666" points="1627.5,-379 1534.5,-379 1534.5,-360 1627.5,-360 1627.5,-379"/>
<text text-anchor="middle" x="1581" y="-367" font-family="Helvetica,sans-Serif" font-size="10.00">func_800C41CC</text>
</a>
</g>
</g>
<!-- Node10&#45;&gt;Node13 -->
<g id="edge14_Node000010_Node000013" class="edge">
<title>Node10&#45;&gt;Node13</title>
<g id="a_edge14_Node000010_Node000013"><a xlink:title=" ">
<path fill="none" stroke="#63b8ff" d="M1475,-369.5C1490.37,-369.5 1507.74,-369.5 1523.86,-369.5"/>
<polygon fill="#63b8ff" stroke="#63b8ff" points="1524.25,-373 1534.25,-369.5 1524.25,-366 1524.25,-373"/>
</a>
</g>
</g>
<!-- Node14 -->
<g id="Node000014" class="node">
<title>Node14</title>
<g id="a_Node000014"><a xlink:href="port__eu_8c.html#aa89dfaecca46c6d071f08c1898d1f7c9" target="_top" xlink:title=" ">
<polygon fill="white" stroke="#666666" points="1627.5,-342 1534.5,-342 1534.5,-323 1627.5,-323 1627.5,-342"/>
<text text-anchor="middle" x="1581" y="-330" font-family="Helvetica,sans-Serif" font-size="10.00">func_800CBBE8</text>
</a>
</g>
</g>
<!-- Node10&#45;&gt;Node14 -->
<g id="edge15_Node000010_Node000014" class="edge">
<title>Node10&#45;&gt;Node14</title>
<g id="a_edge15_Node000010_Node000014"><a xlink:title=" ">
<path fill="none" stroke="#63b8ff" d="M1468.63,-359.97C1487.8,-355.24 1511.16,-349.48 1531.52,-344.46"/>
<polygon fill="#63b8ff" stroke="#63b8ff" points="1532.37,-347.85 1541.24,-342.06 1530.69,-341.06 1532.37,-347.85"/>
</a>
</g>
</g>
<!-- Node12 -->
<g id="Node000012" class="node">
<title>Node12</title>
<g id="a_Node000012"><a xlink:href="external_8c.html#a358ac55e8ab5262dcae8037334be06d7" target="_top" xlink:title=" ">
<polygon fill="white" stroke="#666666" points="1779.5,-416 1687.5,-416 1687.5,-397 1779.5,-397 1779.5,-416"/>
<text text-anchor="middle" x="1733.5" y="-404" font-family="Helvetica,sans-Serif" font-size="10.00">func_800C40F0</text>
</a>
</g>
</g>
<!-- Node11&#45;&gt;Node12 -->
<g id="edge13_Node000011_Node000012" class="edge">
<title>Node11&#45;&gt;Node12</title>
<g id="a_edge13_Node000011_Node000012"><a xlink:title=" ">
<path fill="none" stroke="#63b8ff" d="M1651.08,-406.5C1659.87,-406.5 1668.78,-406.5 1677.31,-406.5"/>
<polygon fill="#63b8ff" stroke="#63b8ff" points="1677.5,-410 1687.5,-406.5 1677.5,-403 1677.5,-410"/>
</a>
</g>
</g>
<!-- Node15 -->
<g id="Node000015" class="node">
<title>Node15</title>
<g id="a_Node000015"><a xlink:href="port__eu_8c.html#af361a20d2e08f30c53a237ca481ff734" target="_top" xlink:title=" ">
<polygon fill="white" stroke="#666666" points="1780,-342 1687,-342 1687,-323 1780,-323 1780,-342"/>
<text text-anchor="middle" x="1733.5" y="-330" font-family="Helvetica,sans-Serif" font-size="10.00">func_800CBB48</text>
</a>
</g>
</g>
<!-- Node14&#45;&gt;Node15 -->
<g id="edge16_Node000014_Node000015" class="edge">
<title>Node14&#45;&gt;Node15</title>
<g id="a_edge16_Node000014_Node000015"><a xlink:title=" ">
<path fill="none" stroke="#63b8ff" d="M1627.56,-332.5C1642.96,-332.5 1660.34,-332.5 1676.46,-332.5"/>
<polygon fill="#63b8ff" stroke="#63b8ff" points="1676.83,-336 1686.83,-332.5 1676.83,-329 1676.83,-336"/>
</a>
</g>
</g>
<!-- Node17 -->
<g id="Node000017" class="node">
<title>Node17</title>
<g id="a_Node000017"><a xlink:href="external_8c.html#a475cff796211891556f52877cd8e9b9e" target="_top" xlink:title=" ">
<polygon fill="white" stroke="#666666" points="447,-93 375,-93 375,-74 447,-74 447,-93"/>
<text text-anchor="middle" x="411" y="-81" font-family="Helvetica,sans-Serif" font-size="10.00">play_sound</text>
</a>
</g>
</g>
<!-- Node16&#45;&gt;Node17 -->
<g id="edge18_Node000016_Node000017" class="edge">
<title>Node16&#45;&gt;Node17</title>
<g id="a_edge18_Node000016_Node000017"><a xlink:title=" ">
<path fill="none" stroke="#63b8ff" d="M247.57,-133.97C269.87,-125.15 304.39,-112 335,-102.5 344.62,-99.51 355.04,-96.65 364.97,-94.08"/>
<polygon fill="#63b8ff" stroke="#63b8ff" points="365.84,-97.47 374.68,-91.63 364.13,-90.69 365.84,-97.47"/>
</a>
</g>
</g>
<!-- Node18&#45;&gt;Node17 -->
<g id="edge20_Node000018_Node000017" class="edge">
<title>Node18&#45;&gt;Node17</title>
<g id="a_edge20_Node000018_Node000017"><a xlink:title=" ">
<path fill="none" stroke="#63b8ff" d="M269.03,-87.29C298.04,-86.51 335.63,-85.5 364.7,-84.72"/>
<polygon fill="#63b8ff" stroke="#63b8ff" points="365.09,-88.21 374.99,-84.44 364.9,-81.21 365.09,-88.21"/>
</a>
</g>
</g>
<!-- Node20 -->
<g id="Node000020" class="node">
<title>Node20</title>
<g id="a_Node000020"><a xlink:href="math__util_8c.html#ae69cbf5c8d4b3b0dba2d7b4d4673689f" target="_top" xlink:title=" ">
<polygon fill="white" stroke="#666666" points="430,-56 392,-56 392,-37 430,-37 430,-56"/>
<text text-anchor="middle" x="411" y="-44" font-family="Helvetica,sans-Serif" font-size="10.00">coss</text>
</a>
</g>
</g>
<!-- Node19&#45;&gt;Node20 -->
<g id="edge22_Node000019_Node000020" class="edge">
<title>Node19&#45;&gt;Node20</title>
<g id="a_edge22_Node000019_Node000020"><a xlink:title=" ">
<path fill="none" stroke="#63b8ff" d="M269.03,-50.29C304.07,-49.35 351.63,-48.07 381.57,-47.26"/>
<polygon fill="#63b8ff" stroke="#63b8ff" points="381.84,-50.76 391.75,-46.99 381.66,-43.76 381.84,-50.76"/>
</a>
</g>
</g>
<!-- Node21 -->
<g id="Node000021" class="node">
<title>Node21</title>
<g id="a_Node000021"><a xlink:href="math__util_8c.html#a19ed3bd78fd2d3e2bd0a29f6caf48545" target="_top" xlink:title=" ">
<polygon fill="white" stroke="#666666" points="429,-19 393,-19 393,0 429,0 429,-19"/>
<text text-anchor="middle" x="411" y="-7" font-family="Helvetica,sans-Serif" font-size="10.00">sins</text>
</a>
</g>
</g>
<!-- Node19&#45;&gt;Node21 -->
<g id="edge23_Node000019_Node000021" class="edge">
<title>Node19&#45;&gt;Node21</title>
<g id="a_edge23_Node000019_Node000021"><a xlink:title=" ">
<path fill="none" stroke="#63b8ff" d="M266.21,-41.97C301.87,-33.92 351.92,-22.62 382.59,-15.69"/>
<polygon fill="#63b8ff" stroke="#63b8ff" points="383.59,-19.05 392.57,-13.44 382.04,-12.22 383.59,-19.05"/>
</a>
</g>
</g>
<!-- Node23 -->
<g id="Node000023" class="node">
<title>Node23</title>
<g id="a_Node000023"><a xlink:href="collision_8c.html#a79293dbdae52d290fdaf8dde9d5244ca" target="_top" xlink:title=" ">
<polygon fill="white" stroke="#666666" points="473.5,-241 348.5,-241 348.5,-222 473.5,-222 473.5,-241"/>
<text text-anchor="middle" x="411" y="-229" font-family="Helvetica,sans-Serif" font-size="10.00">actor_terrain_collision</text>
</a>
</g>
</g>
<!-- Node22&#45;&gt;Node23 -->
<g id="edge25_Node000022_Node000023" class="edge">
<title>Node22&#45;&gt;Node23</title>
<g id="a_edge25_Node000022_Node000023"><a xlink:title=" ">
<path fill="none" stroke="#63b8ff" d="M261.23,-195C282.76,-200.48 310.39,-207.44 335,-213.5 343.04,-215.48 351.58,-217.55 359.9,-219.56"/>
<polygon fill="#63b8ff" stroke="#63b8ff" points="359.35,-223.03 369.89,-221.96 360.98,-216.22 359.35,-223.03"/>
</a>
</g>
</g>
<!-- Node27 -->
<g id="Node000027" class="node">
<title>Node27</title>
<g id="a_Node000027"><a xlink:href="actors_8c.html#a91fb2e4e37e7c72fea918fe2c1bb4eaf" target="_top" xlink:title=" ">
<polygon fill="white" stroke="#666666" points="481,-278 341,-278 341,-259 481,-259 481,-278"/>
<text text-anchor="middle" x="411" y="-266" font-family="Helvetica,sans-Serif" font-size="10.00">add_actor_to_empty_slot</text>
</a>
</g>
</g>
<!-- Node22&#45;&gt;Node27 -->
<g id="edge29_Node000022_Node000027" class="edge">
<title>Node22&#45;&gt;Node27</title>
<g id="a_edge29_Node000022_Node000027"><a xlink:title=" ">
<path fill="none" stroke="#63b8ff" d="M237.34,-195.08C257.54,-209.16 297.5,-235.41 335,-250.5 340.12,-252.56 345.54,-254.43 351.03,-256.11"/>
<polygon fill="#63b8ff" stroke="#63b8ff" points="350.36,-259.55 360.93,-258.93 352.27,-252.82 350.36,-259.55"/>
</a>
</g>
</g>
<!-- Node42 -->
<g id="Node000042" class="node">
<title>Node42</title>
<g id="a_Node000042"><a xlink:href="Game_8cpp.html#a04c2e1c30af14b6e8354d7a9be00e39c" target="_top" xlink:title=" ">
<polygon fill="white" stroke="#666666" points="466,-204 356,-204 356,-185 466,-185 466,-204"/>
<text text-anchor="middle" x="411" y="-192" font-family="Helvetica,sans-Serif" font-size="10.00">CM_FindActorIndex</text>
</a>
</g>
</g>
<!-- Node22&#45;&gt;Node42 -->
<g id="edge46_Node000022_Node000042" class="edge">
<title>Node22&#45;&gt;Node42</title>
<g id="a_edge46_Node000022_Node000042"><a xlink:title=" ">
<path fill="none" stroke="#63b8ff" d="M269.03,-187.68C291.99,-188.79 320.32,-190.16 345.55,-191.38"/>
<polygon fill="#63b8ff" stroke="#63b8ff" points="345.63,-194.89 355.78,-191.88 345.96,-187.9 345.63,-194.89"/>
</a>
</g>
</g>
<!-- Node43 -->
<g id="Node000043" class="node">
<title>Node43</title>
<g id="a_Node000043"><a xlink:href="actors__extended_8c.html#a78e98c146f1f4dd6e3608016486172a4" target="_top" xlink:title=" ">
<polygon fill="white" stroke="#666666" points="457,-167 365,-167 365,-148 457,-148 457,-167"/>
<text text-anchor="middle" x="411" y="-155" font-family="Helvetica,sans-Serif" font-size="10.00">func_802B4E30</text>
</a>
</g>
</g>
<!-- Node22&#45;&gt;Node43 -->
<g id="edge47_Node000022_Node000043" class="edge">
<title>Node22&#45;&gt;Node43</title>
<g id="a_edge47_Node000022_Node000043"><a xlink:title=" ">
<path fill="none" stroke="#63b8ff" d="M269.03,-178.72C294.77,-174.85 327.26,-169.96 354.56,-165.85"/>
<polygon fill="#63b8ff" stroke="#63b8ff" points="355.38,-169.26 364.74,-164.31 354.33,-162.34 355.38,-169.26"/>
</a>
</g>
</g>
<!-- Node44 -->
<g id="Node000044" class="node">
<title>Node44</title>
<g id="a_Node000044"><a xlink:href="math__util_8c.html#ad5bb0138c68b50f119d3cb7966f522b7" target="_top" xlink:title=" ">
<polygon fill="white" stroke="#666666" points="487,-130 335,-130 335,-111 487,-111 487,-130"/>
<text text-anchor="middle" x="411" y="-118" font-family="Helvetica,sans-Serif" font-size="10.00">mtxf_translate_vec3f_mat3</text>
</a>
</g>
</g>
<!-- Node22&#45;&gt;Node44 -->
<g id="edge48_Node000022_Node000044" class="edge">
<title>Node22&#45;&gt;Node44</title>
<g id="a_edge48_Node000022_Node000044"><a xlink:title=" ">
<path fill="none" stroke="#63b8ff" d="M262.13,-175.98C274.18,-172.4 287.38,-167.87 299,-162.5 316.23,-154.53 317.57,-147.04 335,-139.5 340.66,-137.05 346.71,-134.87 352.82,-132.94"/>
<polygon fill="#63b8ff" stroke="#63b8ff" points="353.82,-136.29 362.42,-130.1 351.84,-129.57 353.82,-136.29"/>
</a>
</g>
</g>
<!-- Node24 -->
<g id="Node000024" class="node">
<title>Node24</title>
<g id="a_Node000024"><a xlink:href="collision_8c.html#a6ea8b20f38e63c1b1157923085c8e306" target="_top" xlink:title=" ">
<polygon fill="white" stroke="#666666" points="666,-184.5 523,-184.5 523,-154.5 666,-154.5 666,-184.5"/>
<text text-anchor="start" x="531" y="-172.5" font-family="Helvetica,sans-Serif" font-size="10.00">is_colliding_with_drivable</text>
<text text-anchor="middle" x="594.5" y="-161.5" font-family="Helvetica,sans-Serif" font-size="10.00">_surface</text>
</a>
</g>
</g>
<!-- Node23&#45;&gt;Node24 -->
<g id="edge26_Node000023_Node000024" class="edge">
<title>Node23&#45;&gt;Node24</title>
<g id="a_edge26_Node000023_Node000024"><a xlink:title=" ">
<path fill="none" stroke="#63b8ff" d="M459.75,-221.94C468.92,-219.57 478.35,-216.76 487,-213.5 503.93,-207.12 506.43,-201.76 523,-194.5 527.98,-192.32 533.22,-190.18 538.49,-188.13"/>
<polygon fill="#63b8ff" stroke="#63b8ff" points="539.87,-191.35 547.99,-184.55 537.4,-184.8 539.87,-191.35"/>
</a>
</g>
</g>
<!-- Node25 -->
<g id="Node000025" class="node">
<title>Node25</title>
<g id="a_Node000025"><a xlink:href="collision_8c.html#a94970a4a6ca911f74e59114decd74557" target="_top" xlink:title=" ">
<polygon fill="white" stroke="#666666" points="659,-136 530,-136 530,-117 659,-117 659,-136"/>
<text text-anchor="middle" x="594.5" y="-124" font-family="Helvetica,sans-Serif" font-size="10.00">is_colliding_with_wall1</text>
</a>
</g>
</g>
<!-- Node23&#45;&gt;Node25 -->
<g id="edge27_Node000023_Node000025" class="edge">
<title>Node23&#45;&gt;Node25</title>
<g id="a_edge27_Node000023_Node000025"><a xlink:title=" ">
<path fill="none" stroke="#63b8ff" d="M472.67,-221.86C477.79,-219.61 482.66,-216.86 487,-213.5 514.02,-192.54 496.27,-166.83 523,-145.5 525.28,-143.68 527.71,-142.04 530.26,-140.55"/>
<polygon fill="#63b8ff" stroke="#63b8ff" points="531.88,-143.66 539.28,-136.08 528.77,-137.39 531.88,-143.66"/>
</a>
</g>
</g>
<!-- Node26 -->
<g id="Node000026" class="node">
<title>Node26</title>
<g id="a_Node000026"><a xlink:href="collision_8c.html#a23443870e0d3a6797de707a89ded7ef0" target="_top" xlink:title=" ">
<polygon fill="white" stroke="#666666" points="659,-99 530,-99 530,-80 659,-80 659,-99"/>
<text text-anchor="middle" x="594.5" y="-87" font-family="Helvetica,sans-Serif" font-size="10.00">is_colliding_with_wall2</text>
</a>
</g>
</g>
<!-- Node23&#45;&gt;Node26 -->
<g id="edge28_Node000023_Node000026" class="edge">
<title>Node23&#45;&gt;Node26</title>
<g id="a_edge28_Node000023_Node000026"><a xlink:title=" ">
<path fill="none" stroke="#63b8ff" d="M473.62,-222.38C478.48,-220.02 483.04,-217.1 487,-213.5 523.5,-180.31 486.97,-142.2 523,-108.5 524.69,-106.92 526.5,-105.46 528.41,-104.13"/>
<polygon fill="#63b8ff" stroke="#63b8ff" points="530.36,-107.04 537.26,-99 526.85,-100.98 530.36,-107.04"/>
</a>
</g>
</g>
<!-- Node28 -->
<g id="Node000028" class="node">
<title>Node28</title>
<g id="a_Node000028"><a xlink:href="actors_8c.html#a39c023177b5a7686cdd1fc65b8b953e1" target="_top" xlink:title=" ">
<polygon fill="white" stroke="#666666" points="625.5,-333 563.5,-333 563.5,-314 625.5,-314 625.5,-333"/>
<text text-anchor="middle" x="594.5" y="-321" font-family="Helvetica,sans-Serif" font-size="10.00">actor_init</text>
</a>
</g>
</g>
<!-- Node27&#45;&gt;Node28 -->
<g id="edge30_Node000027_Node000028" class="edge">
<title>Node27&#45;&gt;Node28</title>
<g id="a_edge30_Node000027_Node000028"><a xlink:title=" ">
<path fill="none" stroke="#63b8ff" d="M438.75,-278.02C461.12,-285.83 493.96,-296.97 523,-305.5 532.82,-308.39 543.48,-311.25 553.47,-313.81"/>
<polygon fill="#63b8ff" stroke="#63b8ff" points="552.63,-317.21 563.18,-316.27 554.34,-310.42 552.63,-317.21"/>
</a>
</g>
</g>
<!-- Node39 -->
<g id="Node000039" class="node">
<title>Node39</title>
<g id="a_Node000039"><a xlink:href="Game_8cpp.html#acea5cfd9ab22f745bd6627869b95a62e" target="_top" xlink:title=" ">
<polygon fill="white" stroke="#666666" points="650.5,-296 538.5,-296 538.5,-277 650.5,-277 650.5,-296"/>
<text text-anchor="middle" x="594.5" y="-284" font-family="Helvetica,sans-Serif" font-size="10.00">CM_ActorBeginPlay</text>
</a>
</g>
</g>
<!-- Node27&#45;&gt;Node39 -->
<g id="edge43_Node000027_Node000039" class="edge">
<title>Node27&#45;&gt;Node39</title>
<g id="a_edge43_Node000027_Node000039"><a xlink:title=" ">
<path fill="none" stroke="#63b8ff" d="M481.14,-275.36C496.52,-276.88 512.78,-278.49 528.01,-280.01"/>
<polygon fill="#63b8ff" stroke="#63b8ff" points="528.07,-283.53 538.37,-281.03 528.77,-276.56 528.07,-283.53"/>
</a>
</g>
</g>
<!-- Node40 -->
<g id="Node000040" class="node">
<title>Node40</title>
<g id="a_Node000040"><a xlink:href="Game_8cpp.html#a42f23077aaa52cb3ea5c7803b7dd6816" target="_top" xlink:title=" ">
<polygon fill="white" stroke="#666666" points="647.5,-259 541.5,-259 541.5,-240 647.5,-240 647.5,-259"/>
<text text-anchor="middle" x="594.5" y="-247" font-family="Helvetica,sans-Serif" font-size="10.00">CM_AddBaseActor</text>
</a>
</g>
</g>
<!-- Node27&#45;&gt;Node40 -->
<g id="edge44_Node000027_Node000040" class="edge">
<title>Node27&#45;&gt;Node40</title>
<g id="a_edge44_Node000027_Node000040"><a xlink:title=" ">
<path fill="none" stroke="#63b8ff" d="M481.14,-261.26C497.57,-259.54 515.01,-257.72 531.12,-256.03"/>
<polygon fill="#63b8ff" stroke="#63b8ff" points="531.92,-259.47 541.5,-254.94 531.19,-252.5 531.92,-259.47"/>
</a>
</g>
</g>
<!-- Node41 -->
<g id="Node000041" class="node">
<title>Node41</title>
<g id="a_Node000041"><a xlink:href="Game_8cpp.html#a0841ffe9a66e95aca42438b9d8ffc3d3" target="_top" xlink:title=" ">
<polygon fill="white" stroke="#666666" points="645,-222 544,-222 544,-203 645,-203 645,-222"/>
<text text-anchor="middle" x="594.5" y="-210" font-family="Helvetica,sans-Serif" font-size="10.00">CM_GetActorSize</text>
</a>
</g>
</g>
<!-- Node27&#45;&gt;Node41 -->
<g id="edge45_Node000027_Node000041" class="edge">
<title>Node27&#45;&gt;Node41</title>
<g id="a_edge45_Node000027_Node000041"><a xlink:title=" ">
<path fill="none" stroke="#63b8ff" d="M459.75,-258.94C468.92,-256.57 478.35,-253.76 487,-250.5 503.93,-244.12 506.16,-238.12 523,-231.5 529.18,-229.07 535.79,-226.84 542.39,-224.83"/>
<polygon fill="#63b8ff" stroke="#63b8ff" points="543.37,-228.19 551.99,-222.04 541.41,-221.46 543.37,-228.19"/>
</a>
</g>
</g>
<!-- Node29 -->
<g id="Node000029" class="node">
<title>Node29</title>
<g id="a_Node000029"><a xlink:href="collision_8c.html#a37aa55b3768d001533ad75e7f1b8388a" target="_top" xlink:title=" ">
<polygon fill="white" stroke="#666666" points="843,-311 702,-311 702,-292 843,-292 843,-311"/>
<text text-anchor="middle" x="772.5" y="-299" font-family="Helvetica,sans-Serif" font-size="10.00">check_bounding_collision</text>
</a>
</g>
</g>
<!-- Node28&#45;&gt;Node29 -->
<g id="edge31_Node000028_Node000029" class="edge">
<title>Node28&#45;&gt;Node29</title>
<g id="a_edge31_Node000028_Node000029"><a xlink:title=" ">
<path fill="none" stroke="#63b8ff" d="M625.76,-319.72C644.07,-317.43 668.37,-314.39 691.86,-311.46"/>
<polygon fill="#63b8ff" stroke="#63b8ff" points="692.37,-314.92 701.86,-310.21 691.5,-307.97 692.37,-314.92"/>
</a>
</g>
</g>
<!-- Node33 -->
<g id="Node000033" class="node">
<title>Node33</title>
<g id="a_Node000033"><a xlink:href="actors_8c.html#a1a9bccb586242555a9123ebd4ab70f2a" target="_top" xlink:title=" ">
<polygon fill="white" stroke="#666666" points="838.5,-359.5 706.5,-359.5 706.5,-329.5 838.5,-329.5 838.5,-359.5"/>
<text text-anchor="start" x="714.5" y="-347.5" font-family="Helvetica,sans-Serif" font-size="10.00">cleanup_red_and_green</text>
<text text-anchor="middle" x="772.5" y="-336.5" font-family="Helvetica,sans-Serif" font-size="10.00">_shells</text>
</a>
</g>
</g>
<!-- Node28&#45;&gt;Node33 -->
<g id="edge35_Node000028_Node000033" class="edge">
<title>Node28&#45;&gt;Node33</title>
<g id="a_edge35_Node000028_Node000033"><a xlink:title=" ">
<path fill="none" stroke="#63b8ff" d="M625.76,-327.11C645.19,-329.43 671.36,-332.55 696.15,-335.51"/>
<polygon fill="#63b8ff" stroke="#63b8ff" points="695.96,-339.01 706.3,-336.72 696.79,-332.06 695.96,-339.01"/>
</a>
</g>
</g>
<!-- Node35 -->
<g id="Node000035" class="node">
<title>Node35</title>
<g id="a_Node000035"><a xlink:href="collision_8c.html#ad72fef3ffe32191d73b1822f512ebf3f" target="_top" xlink:title=" ">
<polygon fill="white" stroke="#666666" points="820,-274 725,-274 725,-255 820,-255 820,-274"/>
<text text-anchor="middle" x="772.5" y="-262" font-family="Helvetica,sans-Serif" font-size="10.00">func_802AAAAC</text>
</a>
</g>
</g>
<!-- Node28&#45;&gt;Node35 -->
<g id="edge39_Node000028_Node000035" class="edge">
<title>Node28&#45;&gt;Node35</title>
<g id="a_edge39_Node000028_Node000035"><a xlink:title=" ">
<path fill="none" stroke="#63b8ff" d="M625.64,-317.88C638.38,-314.98 653.2,-310.9 666,-305.5 683.28,-298.21 684.79,-290.93 702,-283.5 707.44,-281.15 713.25,-279.02 719.11,-277.1"/>
<polygon fill="#63b8ff" stroke="#63b8ff" points="720.41,-280.37 728.95,-274.09 718.36,-273.67 720.41,-280.37"/>
</a>
</g>
</g>
<!-- Node37 -->
<g id="Node000037" class="node">
<title>Node37</title>
<g id="a_Node000037"><a xlink:href="math__util_8c.html#af7b470ed76fce07b8042a47c96e5690b" target="_top" xlink:title=" ">
<polygon fill="white" stroke="#666666" points="826,-237 719,-237 719,-218 826,-218 826,-237"/>
<text text-anchor="middle" x="772.5" y="-225" font-family="Helvetica,sans-Serif" font-size="10.00">vec3f_copy_return</text>
</a>
</g>
</g>
<!-- Node28&#45;&gt;Node37 -->
<g id="edge41_Node000028_Node000037" class="edge">
<title>Node28&#45;&gt;Node37</title>
<g id="a_edge41_Node000028_Node000037"><a xlink:title=" ">
<path fill="none" stroke="#63b8ff" d="M625.82,-320.93C639.17,-318.56 654.42,-314.06 666,-305.5 690.7,-287.24 677.45,-264.97 702,-246.5 704.52,-244.61 707.21,-242.9 710.03,-241.37"/>
<polygon fill="#63b8ff" stroke="#63b8ff" points="711.76,-244.42 719.34,-237.02 708.8,-238.08 711.76,-244.42"/>
</a>
</g>
</g>
<!-- Node38 -->
<g id="Node000038" class="node">
<title>Node38</title>
<g id="a_Node000038"><a xlink:href="math__util_8c.html#a0e270ee67600c8c9c2f140c647d008a1" target="_top" xlink:title=" ">
<polygon fill="white" stroke="#666666" points="809.5,-200 735.5,-200 735.5,-181 809.5,-181 809.5,-200"/>
<text text-anchor="middle" x="772.5" y="-188" font-family="Helvetica,sans-Serif" font-size="10.00">vec3s_copy</text>
</a>
</g>
</g>
<!-- Node28&#45;&gt;Node38 -->
<g id="edge42_Node000028_Node000038" class="edge">
<title>Node28&#45;&gt;Node38</title>
<g id="a_edge42_Node000028_Node000038"><a xlink:title=" ">
<path fill="none" stroke="#63b8ff" d="M625.55,-322.07C639.32,-319.97 655,-315.37 666,-305.5 699.93,-275.08 668.33,-240.21 702,-209.5 708.65,-203.44 717.05,-199.28 725.69,-196.44"/>
<polygon fill="#63b8ff" stroke="#63b8ff" points="726.75,-199.78 735.47,-193.76 724.9,-193.03 726.75,-199.78"/>
</a>
</g>
</g>
<!-- Node30 -->
<g id="Node000030" class="node">
<title>Node30</title>
<g id="a_Node000030"><a xlink:href="collision_8c.html#ac312bf382cb40752f6b790a99e7cdcb6" target="_top" xlink:title=" ">
<polygon fill="white" stroke="#666666" points="1006,-311 898,-311 898,-292 1006,-292 1006,-311"/>
<text text-anchor="middle" x="952" y="-299" font-family="Helvetica,sans-Serif" font-size="10.00">check_collision_yx</text>
</a>
</g>
</g>
<!-- Node29&#45;&gt;Node30 -->
<g id="edge32_Node000029_Node000030" class="edge">
<title>Node29&#45;&gt;Node30</title>
<g id="a_edge32_Node000029_Node000030"><a xlink:title=" ">
<path fill="none" stroke="#63b8ff" d="M843.14,-301.5C857.76,-301.5 873.1,-301.5 887.48,-301.5"/>
<polygon fill="#63b8ff" stroke="#63b8ff" points="887.75,-305 897.75,-301.5 887.75,-298 887.75,-305"/>
</a>
</g>
</g>
<!-- Node31 -->
<g id="Node000031" class="node">
<title>Node31</title>
<g id="a_Node000031"><a xlink:href="collision_8c.html#a4b48832a90e984536a0635a016ec4f28" target="_top" xlink:title=" ">
<polygon fill="white" stroke="#666666" points="1005.5,-274 898.5,-274 898.5,-255 1005.5,-255 1005.5,-274"/>
<text text-anchor="middle" x="952" y="-262" font-family="Helvetica,sans-Serif" font-size="10.00">check_collision_zx</text>
</a>
</g>
</g>
<!-- Node29&#45;&gt;Node31 -->
<g id="edge33_Node000029_Node000031" class="edge">
<title>Node29&#45;&gt;Node31</title>
<g id="a_edge33_Node000029_Node000031"><a xlink:title=" ">
<path fill="none" stroke="#63b8ff" d="M819.21,-291.97C842.41,-287.14 870.79,-281.22 895.27,-276.12"/>
<polygon fill="#63b8ff" stroke="#63b8ff" points="896.06,-279.53 905.14,-274.06 894.63,-272.67 896.06,-279.53"/>
</a>
</g>
</g>
<!-- Node32 -->
<g id="Node000032" class="node">
<title>Node32</title>
<g id="a_Node000032"><a xlink:href="collision_8c.html#a21fef964ab48191a1c0341954ef27a40" target="_top" xlink:title=" ">
<polygon fill="white" stroke="#666666" points="1005.5,-237 898.5,-237 898.5,-218 1005.5,-218 1005.5,-237"/>
<text text-anchor="middle" x="952" y="-225" font-family="Helvetica,sans-Serif" font-size="10.00">check_collision_zy</text>
</a>
</g>
</g>
<!-- Node29&#45;&gt;Node32 -->
<g id="edge34_Node000029_Node000032" class="edge">
<title>Node29&#45;&gt;Node32</title>
<g id="a_edge34_Node000029_Node000032"><a xlink:title=" ">
<path fill="none" stroke="#63b8ff" d="M824.16,-291.88C830.72,-289.64 837.18,-286.88 843,-283.5 862.84,-271.98 859.19,-258.07 879,-246.5 882.7,-244.34 886.66,-242.41 890.74,-240.71"/>
<polygon fill="#63b8ff" stroke="#63b8ff" points="892.26,-243.87 900.41,-237.1 889.82,-237.31 892.26,-243.87"/>
</a>
</g>
</g>
<!-- Node33&#45;&gt;Node4 -->
<g id="edge36_Node000033_Node000004" class="edge">
<title>Node33&#45;&gt;Node4</title>
<g id="a_edge36_Node000033_Node000004"><a xlink:title=" ">
<path fill="none" stroke="#63b8ff" d="M795.21,-359.66C815.92,-373.52 848.41,-393.76 879,-406.5 886.3,-409.54 894.22,-412.21 902.05,-414.52"/>
<polygon fill="#63b8ff" stroke="#63b8ff" points="901.3,-417.94 911.87,-417.25 903.17,-411.2 901.3,-417.94"/>
</a>
</g>
</g>
<!-- Node33&#45;&gt;Node6 -->
<g id="edge38_Node000033_Node000006" class="edge">
<title>Node33&#45;&gt;Node6</title>
<g id="a_edge38_Node000033_Node000006"><a xlink:title=" ">
<path fill="none" stroke="#63b8ff" d="M835.58,-359.54C857.32,-364.8 881.41,-370.64 901.93,-375.61"/>
<polygon fill="#63b8ff" stroke="#63b8ff" points="901.15,-379.02 911.69,-377.98 902.8,-372.22 901.15,-379.02"/>
</a>
</g>
</g>
<!-- Node34 -->
<g id="Node000034" class="node">
<title>Node34</title>
<g id="a_Node000034"><a xlink:href="code__80005FD0_8c.html#ad301b978cdd3c4cc190b10be050d51d8" target="_top" xlink:title=" ">
<polygon fill="white" stroke="#666666" points="1025,-359.5 879,-359.5 879,-329.5 1025,-329.5 1025,-359.5"/>
<text text-anchor="start" x="887" y="-347.5" font-family="Helvetica,sans-Serif" font-size="10.00">delete_actor_in_unexpired</text>
<text text-anchor="middle" x="952" y="-336.5" font-family="Helvetica,sans-Serif" font-size="10.00">_actor_list</text>
</a>
</g>
</g>
<!-- Node33&#45;&gt;Node34 -->
<g id="edge37_Node000033_Node000034" class="edge">
<title>Node33&#45;&gt;Node34</title>
<g id="a_edge37_Node000033_Node000034"><a xlink:title=" ">
<path fill="none" stroke="#63b8ff" d="M838.59,-344.5C848.38,-344.5 858.59,-344.5 868.69,-344.5"/>
<polygon fill="#63b8ff" stroke="#63b8ff" points="868.73,-348 878.73,-344.5 868.73,-341 868.73,-348"/>
</a>
</g>
</g>
<!-- Node36 -->
<g id="Node000036" class="node">
<title>Node36</title>
<g id="a_Node000036"><a xlink:href="math__util_8c.html#a79fd07a0971ec96a3ff0801963a2fa7f" target="_top" xlink:title=" ">
<polygon fill="white" stroke="#666666" points="984,-200 920,-200 920,-181 984,-181 984,-200"/>
<text text-anchor="middle" x="952" y="-188" font-family="Helvetica,sans-Serif" font-size="10.00">vec3f_set</text>
</a>
</g>
</g>
<!-- Node35&#45;&gt;Node36 -->
<g id="edge40_Node000035_Node000036" class="edge">
<title>Node35&#45;&gt;Node36</title>
<g id="a_edge40_Node000035_Node000036"><a xlink:title=" ">
<path fill="none" stroke="#63b8ff" d="M820.13,-256.19C828.07,-253.73 835.99,-250.57 843,-246.5 862.84,-234.98 859.19,-221.07 879,-209.5 888.39,-204.02 899.38,-200.08 909.91,-197.28"/>
<polygon fill="#63b8ff" stroke="#63b8ff" points="910.88,-200.64 919.8,-194.92 909.26,-193.84 910.88,-200.64"/>
</a>
</g>
</g>
</g>
</svg>

<g id="navigator" transform="translate(0 0)" fill="#404254">
  <rect fill="#f2f5e9" fill-opacity="0.5" stroke="#606060" stroke-width=".5" x="0" y="0" width="60" height="60"/>
  <use id="zoomplus" xlink:href="#zoomPlus" x="17" y="9" onmousedown="handleZoom(evt,'in')"/>
  <use id="zoomminus" xlink:href="#zoomMin" x="42" y="9" onmousedown="handleZoom(evt,'out')"/>
  <use id="reset" xlink:href="#resetDef" x="30" y="36" onmousedown="handleReset()"/>
   <use id="arrowup" xlink:href="#arrowUp" x="0" y="0" onmousedown="handlePan(0,-1)"/>
  <use id="arrowright" xlink:href="#arrowRight" x="0" y="0" onmousedown="handlePan(1,0)"/>
  <use id="arrowdown" xlink:href="#arrowDown" x="0" y="0" onmousedown="handlePan(0,1)"/>
  <use id="arrowleft" xlink:href="#arrowLeft" x="0" y="0" onmousedown="handlePan(-1,0)"/>
</g>
<svg viewBox="0 0 15 15" width="100%" height="30px" preserveAspectRatio="xMaxYMin meet">
 <g id="arrow_out" transform="scale(0.3 0.3)">
  <a xlink:href="actors__extended_8c_a92482e9796fd6ddc17e3b24c35b767df_cgraph_org.svg" target="_base">
   <rect id="button" ry="5" rx="5" y="6" x="6" height="38" width="38"
        fill="#f2f5e9" fill-opacity="0.5" stroke="#606060" stroke-width="1.0"/>
   <path id="arrow"
     d="M 11.500037,31.436501 C 11.940474,20.09759 22.043105,11.32322 32.158766,21.979434 L 37.068811,17.246167 C 37.068811,17.246167 37.088388,32 37.088388,32 L 22.160133,31.978069 C 22.160133,31.978069 26.997745,27.140456 26.997745,27.140456 C 18.528582,18.264221 13.291696,25.230495 11.500037,31.436501 z"
     style="fill:#404040;"/>
  </a>
 </g>
</svg>

<style type='text/css'>
<![CDATA[
[data-mouse-over-selected='false'] { opacity: 0.7; }
[data-mouse-over-selected='true']  { opacity: 1.0; }
]]>
</style>
<script type="application/ecmascript"><![CDATA[
document.addEventListener('DOMContentLoaded', (event) => {
  highlightEdges();
  highlightAdjacentNodes();
});
]]></script>
</svg>
