<?xml version="1.0" encoding="UTF-8" standalone="no"?>
<!DOCTYPE svg PUBLIC "-//W3C//DTD SVG 1.1//EN"
 "http://www.w3.org/Graphics/SVG/1.1/DTD/svg11.dtd">
<!-- Generated by graphviz version 2.43.0 (0)
 -->
<!-- Title: player_use_item Pages: 1 -->
<svg width="1801pt" height="569pt"
 viewBox="0.00 0.00 1801.00 569.00" xmlns="http://www.w3.org/2000/svg" xmlns:xlink="http://www.w3.org/1999/xlink">
<g id="graph0" class="graph" transform="scale(1 1) rotate(0) translate(4 565)">
<title>player_use_item</title>
<!-- Node1 -->
<g id="Node000001" class="node">
<title>Node1</title>
<g id="a_Node000001"><a xlink:title=" ">
<polygon fill="#999999" stroke="#666666" points="98,-246 0,-246 0,-227 98,-227 98,-246"/>
<text text-anchor="middle" x="49" y="-234" font-family="Helvetica,sans-Serif" font-size="10.00">player_use_item</text>
</a>
</g>
</g>
<!-- Node2 -->
<g id="Node000002" class="node">
<title>Node2</title>
<g id="a_Node000002"><a xlink:href="update__objects_8c.html#abe0750bafe0e01a419bd8a8ad6b59bd5" target="_top" xlink:title=" ">
<polygon fill="white" stroke="#666666" points="247,-454 158,-454 158,-435 247,-435 247,-454"/>
<text text-anchor="middle" x="202.5" y="-442" font-family="Helvetica,sans-Serif" font-size="10.00">consume_item</text>
</a>
</g>
</g>
<!-- Node1&#45;&gt;Node2 -->
<g id="edge1_Node000001_Node000002" class="edge">
<title>Node1&#45;&gt;Node2</title>
<g id="a_edge1_Node000001_Node000002"><a xlink:title=" ">
<path fill="none" stroke="#63b8ff" d="M55.41,-246.13C68.08,-268.4 101.11,-324.92 134,-368.5 149.97,-389.66 170.43,-412.15 184.62,-427.12"/>
<polygon fill="#63b8ff" stroke="#63b8ff" points="182.35,-429.81 191.79,-434.62 187.4,-424.97 182.35,-429.81"/>
</a>
</g>
</g>
<!-- Node9 -->
<g id="Node000009" class="node">
<title>Node9</title>
<g id="a_Node000009"><a xlink:href="actors__extended_8c.html#a88021e28f51eed86867e22b5aae7e252" target="_top" xlink:title=" ">
<polygon fill="white" stroke="#666666" points="271,-322 134,-322 134,-303 271,-303 271,-322"/>
<text text-anchor="middle" x="202.5" y="-310" font-family="Helvetica,sans-Serif" font-size="10.00">use_banana_bunch_item</text>
</a>
</g>
</g>
<!-- Node1&#45;&gt;Node9 -->
<g id="edge9_Node000001_Node000009" class="edge">
<title>Node1&#45;&gt;Node9</title>
<g id="a_edge9_Node000001_Node000009"><a xlink:title=" ">
<path fill="none" stroke="#63b8ff" d="M63.46,-246.09C79.63,-257.3 107.87,-275.95 134,-288.5 142.48,-292.57 151.84,-296.34 160.82,-299.62"/>
<polygon fill="#63b8ff" stroke="#63b8ff" points="159.77,-302.95 170.36,-302.97 162.09,-296.35 159.77,-302.95"/>
</a>
</g>
</g>
<!-- Node36 -->
<g id="Node000036" class="node">
<title>Node36</title>
<g id="a_Node000036"><a xlink:href="actors__extended_8c.html#a78ba9cbef20b4e33a02f2d21004e0194" target="_top" xlink:title=" ">
<polygon fill="white" stroke="#666666" points="425.5,-283 322.5,-283 322.5,-264 425.5,-264 425.5,-283"/>
<text text-anchor="middle" x="374" y="-271" font-family="Helvetica,sans-Serif" font-size="10.00">use_banana_item</text>
</a>
</g>
</g>
<!-- Node1&#45;&gt;Node36 -->
<g id="edge32_Node000001_Node000036" class="edge">
<title>Node1&#45;&gt;Node36</title>
<g id="a_edge32_Node000001_Node000036"><a xlink:title=" ">
<path fill="none" stroke="#63b8ff" d="M98.33,-245.14C109.99,-247.06 122.42,-248.98 134,-250.5 194.39,-258.43 263.69,-264.8 312.07,-268.81"/>
<polygon fill="#63b8ff" stroke="#63b8ff" points="311.81,-272.3 322.07,-269.63 312.38,-265.32 311.81,-272.3"/>
</a>
</g>
</g>
<!-- Node38 -->
<g id="Node000038" class="node">
<title>Node38</title>
<g id="a_Node000038"><a xlink:href="actors__extended_8c.html#ad9d19faf571dd050a8b4edb74a42058a" target="_top" xlink:title=" ">
<polygon fill="white" stroke="#666666" points="260.5,-170 144.5,-170 144.5,-151 260.5,-151 260.5,-170"/>
<text text-anchor="middle" x="202.5" y="-158" font-family="Helvetica,sans-Serif" font-size="10.00">use_blue_shell_item</text>
</a>
</g>
</g>
<!-- Node1&#45;&gt;Node38 -->
<g id="edge35_Node000001_Node000038" class="edge">
<title>Node1&#45;&gt;Node38</title>
<g id="a_edge35_Node000001_Node000038"><a xlink:title=" ">
<path fill="none" stroke="#63b8ff" d="M63.46,-226.91C79.63,-215.7 107.87,-197.05 134,-184.5 142.48,-180.43 151.84,-176.66 160.82,-173.38"/>
<polygon fill="#63b8ff" stroke="#63b8ff" points="162.09,-176.65 170.36,-170.03 159.77,-170.05 162.09,-176.65"/>
</a>
</g>
</g>
<!-- Node39 -->
<g id="Node000039" class="node">
<title>Node39</title>
<g id="a_Node000039"><a xlink:href="actors__extended_8c.html#abfd4761b52386597862e72451a1a3d1d" target="_top" xlink:title=" ">
<polygon fill="white" stroke="#666666" points="429.5,-171 318.5,-171 318.5,-152 429.5,-152 429.5,-171"/>
<text text-anchor="middle" x="374" y="-159" font-family="Helvetica,sans-Serif" font-size="10.00">use_red_shell_item</text>
</a>
</g>
</g>
<!-- Node1&#45;&gt;Node39 -->
<g id="edge52_Node000001_Node000039" class="edge">
<title>Node1&#45;&gt;Node39</title>
<g id="a_edge52_Node000001_Node000039"><a xlink:title=" ">
<path fill="none" stroke="#63b8ff" d="M54.89,-226.94C65.83,-206.75 94.45,-160.2 134,-142.5 201.39,-112.34 290.14,-133.1 338.29,-148.69"/>
<polygon fill="#63b8ff" stroke="#63b8ff" points="337.33,-152.06 347.93,-151.92 339.56,-145.43 337.33,-152.06"/>
</a>
</g>
</g>
<!-- Node45 -->
<g id="Node000045" class="node">
<title>Node45</title>
<g id="a_Node000045"><a xlink:href="actors__extended_8c.html#a8ac8961d38b45f457d0f27d5f782a464" target="_top" xlink:title=" ">
<polygon fill="white" stroke="#666666" points="441,-246 307,-246 307,-227 441,-227 441,-246"/>
<text text-anchor="middle" x="374" y="-234" font-family="Helvetica,sans-Serif" font-size="10.00">use_fake_itembox_item</text>
</a>
</g>
</g>
<!-- Node1&#45;&gt;Node45 -->
<g id="edge44_Node000001_Node000045" class="edge">
<title>Node1&#45;&gt;Node45</title>
<g id="a_edge44_Node000001_Node000045"><a xlink:title=" ">
<path fill="none" stroke="#63b8ff" d="M98.01,-236.5C150.45,-236.5 235.16,-236.5 296.72,-236.5"/>
<polygon fill="#63b8ff" stroke="#63b8ff" points="296.78,-240 306.78,-236.5 296.78,-233 296.78,-240"/>
</a>
</g>
</g>
<!-- Node46 -->
<g id="Node000046" class="node">
<title>Node46</title>
<g id="a_Node000046"><a xlink:href="actors__extended_8c.html#ae852368698f0c547d9b5a29d2a4d9712" target="_top" xlink:title=" ">
<polygon fill="white" stroke="#666666" points="435.5,-208 312.5,-208 312.5,-189 435.5,-189 435.5,-208"/>
<text text-anchor="middle" x="374" y="-196" font-family="Helvetica,sans-Serif" font-size="10.00">use_green_shell_item</text>
</a>
</g>
</g>
<!-- Node1&#45;&gt;Node46 -->
<g id="edge47_Node000001_Node000046" class="edge">
<title>Node1&#45;&gt;Node46</title>
<g id="a_edge47_Node000001_Node000046"><a xlink:title=" ">
<path fill="none" stroke="#63b8ff" d="M98.01,-230.85C152.03,-224.5 240.3,-214.11 302.23,-206.83"/>
<polygon fill="#63b8ff" stroke="#63b8ff" points="302.79,-210.28 312.32,-205.64 301.98,-203.33 302.79,-210.28"/>
</a>
</g>
</g>
<!-- Node47 -->
<g id="Node000047" class="node">
<title>Node47</title>
<g id="a_Node000047"><a xlink:href="actors__extended_8c.html#a58a90bceb7852ff16b389f2bba53817f" target="_top" xlink:title=" ">
<polygon fill="white" stroke="#666666" points="254.5,-93 150.5,-93 150.5,-74 254.5,-74 254.5,-93"/>
<text text-anchor="middle" x="202.5" y="-81" font-family="Helvetica,sans-Serif" font-size="10.00">use_thunder_item</text>
</a>
</g>
</g>
<!-- Node1&#45;&gt;Node47 -->
<g id="edge53_Node000001_Node000047" class="edge">
<title>Node1&#45;&gt;Node47</title>
<g id="a_edge53_Node000001_Node000047"><a xlink:title=" ">
<path fill="none" stroke="#63b8ff" d="M53.74,-226.98C63.43,-203.5 91.58,-142.27 134,-108.5 139.78,-103.9 146.49,-100.09 153.39,-96.95"/>
<polygon fill="#63b8ff" stroke="#63b8ff" points="154.93,-100.1 162.86,-93.08 152.28,-93.63 154.93,-100.1"/>
</a>
</g>
</g>
<!-- Node54 -->
<g id="Node000054" class="node">
<title>Node54</title>
<g id="a_Node000054"><a xlink:href="actors__extended_8c.html#a47255ea9aa07316c48b95fd7a97ac40d" target="_top" xlink:title=" ">
<polygon fill="white" stroke="#666666" points="263,-359 142,-359 142,-340 263,-340 263,-359"/>
<text text-anchor="middle" x="202.5" y="-347" font-family="Helvetica,sans-Serif" font-size="10.00">use_triple_shell_item</text>
</a>
</g>
</g>
<!-- Node1&#45;&gt;Node54 -->
<g id="edge61_Node000001_Node000054" class="edge">
<title>Node1&#45;&gt;Node54</title>
<g id="a_edge61_Node000001_Node000054"><a xlink:title=" ">
<path fill="none" stroke="#63b8ff" d="M55.82,-246.27C67.86,-265.62 97.48,-308.93 134,-331.5 136.79,-333.22 139.73,-334.78 142.78,-336.19"/>
<polygon fill="#63b8ff" stroke="#63b8ff" points="141.57,-339.48 152.15,-340 144.2,-332.99 141.57,-339.48"/>
</a>
</g>
</g>
<!-- Node3 -->
<g id="Node000003" class="node">
<title>Node3</title>
<g id="a_Node000003"><a xlink:href="update__objects_8c.html#a2c88cc32dff07c6af5fe74d00b9fa279" target="_top" xlink:title=" ">
<polygon fill="white" stroke="#666666" points="420,-397 328,-397 328,-378 420,-378 420,-397"/>
<text text-anchor="middle" x="374" y="-385" font-family="Helvetica,sans-Serif" font-size="10.00">func_800722A4</text>
</a>
</g>
</g>
<!-- Node2&#45;&gt;Node3 -->
<g id="edge2_Node000002_Node000003" class="edge">
<title>Node2&#45;&gt;Node3</title>
<g id="a_edge2_Node000002_Node000003"><a xlink:title=" ">
<path fill="none" stroke="#63b8ff" d="M231.87,-434.96C260.1,-425.47 303.61,-410.83 334.86,-400.33"/>
<polygon fill="#63b8ff" stroke="#63b8ff" points="336.17,-403.58 344.54,-397.07 333.94,-396.94 336.17,-403.58"/>
</a>
</g>
</g>
<!-- Node4 -->
<g id="Node000004" class="node">
<title>Node4</title>
<g id="a_Node000004"><a xlink:href="update__objects_8c.html#aaece45bd6baf5aaf797c872a6e105604" target="_top" xlink:title=" ">
<polygon fill="white" stroke="#666666" points="420,-547 328,-547 328,-528 420,-528 420,-547"/>
<text text-anchor="middle" x="374" y="-535" font-family="Helvetica,sans-Serif" font-size="10.00">func_800722CC</text>
</a>
</g>
</g>
<!-- Node2&#45;&gt;Node4 -->
<g id="edge3_Node000002_Node000004" class="edge">
<title>Node2&#45;&gt;Node4</title>
<g id="a_edge3_Node000002_Node000004"><a xlink:title=" ">
<path fill="none" stroke="#63b8ff" d="M213.85,-454C231.6,-469.82 269.57,-501.58 307,-519.5 311.03,-521.43 315.29,-523.18 319.64,-524.76"/>
<polygon fill="#63b8ff" stroke="#63b8ff" points="318.64,-528.12 329.23,-527.96 320.85,-521.48 318.64,-528.12"/>
</a>
</g>
</g>
<!-- Node5 -->
<g id="Node000005" class="node">
<title>Node5</title>
<g id="a_Node000005"><a xlink:href="update__objects_8c.html#ab7e91b1ebcbec57dfed6e185a2f67580" target="_top" xlink:title=" ">
<polygon fill="white" stroke="#666666" points="419.5,-510 328.5,-510 328.5,-491 419.5,-491 419.5,-510"/>
<text text-anchor="middle" x="374" y="-498" font-family="Helvetica,sans-Serif" font-size="10.00">func_80072354</text>
</a>
</g>
</g>
<!-- Node2&#45;&gt;Node5 -->
<g id="edge4_Node000002_Node000005" class="edge">
<title>Node2&#45;&gt;Node5</title>
<g id="a_edge4_Node000002_Node000005"><a xlink:title=" ">
<path fill="none" stroke="#63b8ff" d="M227.97,-454.16C248.82,-462.22 279.65,-473.77 307,-482.5 313.09,-484.44 319.53,-486.37 325.92,-488.19"/>
<polygon fill="#63b8ff" stroke="#63b8ff" points="325.26,-491.64 335.83,-490.96 327.15,-484.9 325.26,-491.64"/>
</a>
</g>
</g>
<!-- Node6 -->
<g id="Node000006" class="node">
<title>Node6</title>
<g id="a_Node000006"><a xlink:href="update__objects_8c.html#a6433786e30fbe8c3dc83f83c9f2c35f9" target="_top" xlink:title=" ">
<polygon fill="white" stroke="#666666" points="420,-473 328,-473 328,-454 420,-454 420,-473"/>
<text text-anchor="middle" x="374" y="-461" font-family="Helvetica,sans-Serif" font-size="10.00">func_800726CC</text>
</a>
</g>
</g>
<!-- Node2&#45;&gt;Node6 -->
<g id="edge5_Node000002_Node000006" class="edge">
<title>Node2&#45;&gt;Node6</title>
<g id="a_edge5_Node000002_Node000006"><a xlink:title=" ">
<path fill="none" stroke="#63b8ff" d="M247.15,-449.39C268.59,-451.8 294.65,-454.72 317.49,-457.28"/>
<polygon fill="#63b8ff" stroke="#63b8ff" points="317.4,-460.79 327.72,-458.42 318.18,-453.83 317.4,-460.79"/>
</a>
</g>
</g>
<!-- Node8 -->
<g id="Node000008" class="node">
<title>Node8</title>
<g id="a_Node000008"><a xlink:href="update__objects_8c.html#af20e3f3c403dd4fbea56e358997e515a" target="_top" xlink:title=" ">
<polygon fill="white" stroke="#666666" points="617,-435 489,-435 489,-416 617,-416 617,-435"/>
<text text-anchor="middle" x="553" y="-423" font-family="Helvetica,sans-Serif" font-size="10.00">set_object_timer_state</text>
</a>
</g>
</g>
<!-- Node2&#45;&gt;Node8 -->
<g id="edge8_Node000002_Node000008" class="edge">
<title>Node2&#45;&gt;Node8</title>
<g id="a_edge8_Node000002_Node000008"><a xlink:title=" ">
<path fill="none" stroke="#63b8ff" d="M247.28,-442.11C305.39,-438.94 408.8,-433.31 478.86,-429.49"/>
<polygon fill="#63b8ff" stroke="#63b8ff" points="479.15,-432.98 488.95,-428.94 478.77,-425.99 479.15,-432.98"/>
</a>
</g>
</g>
<!-- Node7 -->
<g id="Node000007" class="node">
<title>Node7</title>
<g id="a_Node000007"><a xlink:href="update__objects_8c.html#a3953241e15c6372ac8944ba842148a9a" target="_top" xlink:title=" ">
<polygon fill="white" stroke="#666666" points="602.5,-473 503.5,-473 503.5,-454 602.5,-454 602.5,-473"/>
<text text-anchor="middle" x="553" y="-461" font-family="Helvetica,sans-Serif" font-size="10.00">clear_object_flag</text>
</a>
</g>
</g>
<!-- Node6&#45;&gt;Node7 -->
<g id="edge6_Node000006_Node000007" class="edge">
<title>Node6&#45;&gt;Node7</title>
<g id="a_edge6_Node000006_Node000007"><a xlink:title=" ">
<path fill="none" stroke="#63b8ff" d="M420.12,-463.5C442.25,-463.5 469.18,-463.5 492.93,-463.5"/>
<polygon fill="#63b8ff" stroke="#63b8ff" points="493.23,-467 503.23,-463.5 493.23,-460 493.23,-467"/>
</a>
</g>
</g>
<!-- Node6&#45;&gt;Node8 -->
<g id="edge7_Node000006_Node000008" class="edge">
<title>Node6&#45;&gt;Node8</title>
<g id="a_edge7_Node000006_Node000008"><a xlink:title=" ">
<path fill="none" stroke="#63b8ff" d="M419.66,-453.91C443.34,-448.83 472.61,-442.54 497.6,-437.18"/>
<polygon fill="#63b8ff" stroke="#63b8ff" points="498.61,-440.54 507.66,-435.02 497.14,-433.7 498.61,-440.54"/>
</a>
</g>
</g>
<!-- Node10 -->
<g id="Node000010" class="node">
<title>Node10</title>
<g id="a_Node000010"><a xlink:href="actors_8c.html#a91fb2e4e37e7c72fea918fe2c1bb4eaf" target="_top" xlink:title=" ">
<polygon fill="white" stroke="#666666" points="623,-287 483,-287 483,-268 623,-268 623,-287"/>
<text text-anchor="middle" x="553" y="-275" font-family="Helvetica,sans-Serif" font-size="10.00">add_actor_to_empty_slot</text>
</a>
</g>
</g>
<!-- Node9&#45;&gt;Node10 -->
<g id="edge10_Node000009_Node000010" class="edge">
<title>Node9&#45;&gt;Node10</title>
<g id="a_edge10_Node000009_Node000010"><a xlink:title=" ">
<path fill="none" stroke="#63b8ff" d="M271.15,-307.71C318.72,-304.12 383.83,-298.77 441,-292.5 452.21,-291.27 464.04,-289.83 475.64,-288.33"/>
<polygon fill="#63b8ff" stroke="#63b8ff" points="476.28,-291.78 485.74,-287.01 475.37,-284.84 476.28,-291.78"/>
</a>
</g>
</g>
<!-- Node11 -->
<g id="Node000011" class="node">
<title>Node11</title>
<g id="a_Node000011"><a xlink:href="actors_8c.html#a39c023177b5a7686cdd1fc65b8b953e1" target="_top" xlink:title=" ">
<polygon fill="white" stroke="#666666" points="767.5,-364 705.5,-364 705.5,-345 767.5,-345 767.5,-364"/>
<text text-anchor="middle" x="736.5" y="-352" font-family="Helvetica,sans-Serif" font-size="10.00">actor_init</text>
</a>
</g>
</g>
<!-- Node10&#45;&gt;Node11 -->
<g id="edge11_Node000010_Node000011" class="edge">
<title>Node10&#45;&gt;Node11</title>
<g id="a_edge11_Node000010_Node000011"><a xlink:title=" ">
<path fill="none" stroke="#63b8ff" d="M569.25,-287.12C590.15,-299.95 629.18,-322.64 665,-336.5 674.63,-340.23 685.3,-343.41 695.36,-346.01"/>
<polygon fill="#63b8ff" stroke="#63b8ff" points="694.61,-349.44 705.16,-348.43 696.29,-342.64 694.61,-349.44"/>
</a>
</g>
</g>
<!-- Node33 -->
<g id="Node000033" class="node">
<title>Node33</title>
<g id="a_Node000033"><a xlink:href="Game_8cpp.html#acea5cfd9ab22f745bd6627869b95a62e" target="_top" xlink:title=" ">
<polygon fill="white" stroke="#666666" points="792.5,-327 680.5,-327 680.5,-308 792.5,-308 792.5,-327"/>
<text text-anchor="middle" x="736.5" y="-315" font-family="Helvetica,sans-Serif" font-size="10.00">CM_ActorBeginPlay</text>
</a>
</g>
</g>
<!-- Node10&#45;&gt;Node33 -->
<g id="edge29_Node000010_Node000033" class="edge">
<title>Node10&#45;&gt;Node33</title>
<g id="a_edge29_Node000010_Node000033"><a xlink:title=" ">
<path fill="none" stroke="#63b8ff" d="M597.47,-287.08C622.95,-292.7 655.33,-299.83 682.33,-305.78"/>
<polygon fill="#63b8ff" stroke="#63b8ff" points="681.86,-309.26 692.38,-308 683.37,-302.43 681.86,-309.26"/>
</a>
</g>
</g>
<!-- Node34 -->
<g id="Node000034" class="node">
<title>Node34</title>
<g id="a_Node000034"><a xlink:href="Game_8cpp.html#a42f23077aaa52cb3ea5c7803b7dd6816" target="_top" xlink:title=" ">
<polygon fill="white" stroke="#666666" points="789.5,-290 683.5,-290 683.5,-271 789.5,-271 789.5,-290"/>
<text text-anchor="middle" x="736.5" y="-278" font-family="Helvetica,sans-Serif" font-size="10.00">CM_AddBaseActor</text>
</a>
</g>
</g>
<!-- Node10&#45;&gt;Node34 -->
<g id="edge30_Node000010_Node000034" class="edge">
<title>Node10&#45;&gt;Node34</title>
<g id="a_edge30_Node000010_Node000034"><a xlink:title=" ">
<path fill="none" stroke="#63b8ff" d="M623.14,-278.64C639.57,-278.91 657.01,-279.2 673.12,-279.47"/>
<polygon fill="#63b8ff" stroke="#63b8ff" points="673.44,-282.97 683.5,-279.64 673.56,-275.98 673.44,-282.97"/>
</a>
</g>
</g>
<!-- Node35 -->
<g id="Node000035" class="node">
<title>Node35</title>
<g id="a_Node000035"><a xlink:href="Game_8cpp.html#a0841ffe9a66e95aca42438b9d8ffc3d3" target="_top" xlink:title=" ">
<polygon fill="white" stroke="#666666" points="787,-253 686,-253 686,-234 787,-234 787,-253"/>
<text text-anchor="middle" x="736.5" y="-241" font-family="Helvetica,sans-Serif" font-size="10.00">CM_GetActorSize</text>
</a>
</g>
</g>
<!-- Node10&#45;&gt;Node35 -->
<g id="edge31_Node000010_Node000035" class="edge">
<title>Node10&#45;&gt;Node35</title>
<g id="a_edge31_Node000010_Node000035"><a xlink:title=" ">
<path fill="none" stroke="#63b8ff" d="M605.04,-267.94C627.05,-263.82 652.95,-258.96 675.84,-254.68"/>
<polygon fill="#63b8ff" stroke="#63b8ff" points="676.6,-258.1 685.78,-252.81 675.31,-251.21 676.6,-258.1"/>
</a>
</g>
</g>
<!-- Node12 -->
<g id="Node000012" class="node">
<title>Node12</title>
<g id="a_Node000012"><a xlink:href="collision_8c.html#a37aa55b3768d001533ad75e7f1b8388a" target="_top" xlink:title=" ">
<polygon fill="white" stroke="#666666" points="985,-506 844,-506 844,-487 985,-487 985,-506"/>
<text text-anchor="middle" x="914.5" y="-494" font-family="Helvetica,sans-Serif" font-size="10.00">check_bounding_collision</text>
</a>
</g>
</g>
<!-- Node11&#45;&gt;Node12 -->
<g id="edge12_Node000011_Node000012" class="edge">
<title>Node11&#45;&gt;Node12</title>
<g id="a_edge12_Node000011_Node000012"><a xlink:title=" ">
<path fill="none" stroke="#63b8ff" d="M749.32,-364.04C778.86,-387.87 856.18,-450.25 893.19,-480.11"/>
<polygon fill="#63b8ff" stroke="#63b8ff" points="891.28,-483.07 901.26,-486.63 895.68,-477.63 891.28,-483.07"/>
</a>
</g>
</g>
<!-- Node16 -->
<g id="Node000016" class="node">
<title>Node16</title>
<g id="a_Node000016"><a xlink:href="actors_8c.html#a1a9bccb586242555a9123ebd4ab70f2a" target="_top" xlink:title=" ">
<polygon fill="white" stroke="#666666" points="980.5,-412.5 848.5,-412.5 848.5,-382.5 980.5,-382.5 980.5,-412.5"/>
<text text-anchor="start" x="856.5" y="-400.5" font-family="Helvetica,sans-Serif" font-size="10.00">cleanup_red_and_green</text>
<text text-anchor="middle" x="914.5" y="-389.5" font-family="Helvetica,sans-Serif" font-size="10.00">_shells</text>
</a>
</g>
</g>
<!-- Node11&#45;&gt;Node16 -->
<g id="edge16_Node000011_Node000016" class="edge">
<title>Node11&#45;&gt;Node16</title>
<g id="a_edge16_Node000011_Node000016"><a xlink:title=" ">
<path fill="none" stroke="#63b8ff" d="M767.76,-361.89C788.24,-366.9 816.19,-373.72 842.13,-380.06"/>
<polygon fill="#63b8ff" stroke="#63b8ff" points="841.42,-383.49 851.96,-382.47 843.08,-376.69 841.42,-383.49"/>
</a>
</g>
</g>
<!-- Node29 -->
<g id="Node000029" class="node">
<title>Node29</title>
<g id="a_Node000029"><a xlink:href="collision_8c.html#ad72fef3ffe32191d73b1822f512ebf3f" target="_top" xlink:title=" ">
<polygon fill="white" stroke="#666666" points="962,-364 867,-364 867,-345 962,-345 962,-364"/>
<text text-anchor="middle" x="914.5" y="-352" font-family="Helvetica,sans-Serif" font-size="10.00">func_802AAAAC</text>
</a>
</g>
</g>
<!-- Node11&#45;&gt;Node29 -->
<g id="edge25_Node000011_Node000029" class="edge">
<title>Node11&#45;&gt;Node29</title>
<g id="a_edge25_Node000011_Node000029"><a xlink:title=" ">
<path fill="none" stroke="#63b8ff" d="M767.76,-354.5C792.11,-354.5 827.03,-354.5 856.58,-354.5"/>
<polygon fill="#63b8ff" stroke="#63b8ff" points="856.78,-358 866.78,-354.5 856.78,-351 856.78,-358"/>
</a>
</g>
</g>
<!-- Node31 -->
<g id="Node000031" class="node">
<title>Node31</title>
<g id="a_Node000031"><a xlink:href="math__util_8c.html#af7b470ed76fce07b8042a47c96e5690b" target="_top" xlink:title=" ">
<polygon fill="white" stroke="#666666" points="968,-327 861,-327 861,-308 968,-308 968,-327"/>
<text text-anchor="middle" x="914.5" y="-315" font-family="Helvetica,sans-Serif" font-size="10.00">vec3f_copy_return</text>
</a>
</g>
</g>
<!-- Node11&#45;&gt;Node31 -->
<g id="edge27_Node000011_Node000031" class="edge">
<title>Node11&#45;&gt;Node31</title>
<g id="a_edge27_Node000011_Node000031"><a xlink:title=" ">
<path fill="none" stroke="#63b8ff" d="M767.76,-348.14C792.57,-342.92 828.35,-335.4 858.24,-329.12"/>
<polygon fill="#63b8ff" stroke="#63b8ff" points="859.07,-332.52 868.13,-327.04 857.63,-325.67 859.07,-332.52"/>
</a>
</g>
</g>
<!-- Node32 -->
<g id="Node000032" class="node">
<title>Node32</title>
<g id="a_Node000032"><a xlink:href="math__util_8c.html#a0e270ee67600c8c9c2f140c647d008a1" target="_top" xlink:title=" ">
<polygon fill="white" stroke="#666666" points="951.5,-290 877.5,-290 877.5,-271 951.5,-271 951.5,-290"/>
<text text-anchor="middle" x="914.5" y="-278" font-family="Helvetica,sans-Serif" font-size="10.00">vec3s_copy</text>
</a>
</g>
</g>
<!-- Node11&#45;&gt;Node32 -->
<g id="edge28_Node000011_Node000032" class="edge">
<title>Node11&#45;&gt;Node32</title>
<g id="a_edge28_Node000011_Node000032"><a xlink:title=" ">
<path fill="none" stroke="#63b8ff" d="M767.7,-350.55C780.73,-347.92 795.75,-343.59 808,-336.5 827.86,-325.01 824.24,-311.16 844,-299.5 851.2,-295.25 859.38,-291.93 867.53,-289.33"/>
<polygon fill="#63b8ff" stroke="#63b8ff" points="868.74,-292.63 877.4,-286.52 866.82,-285.9 868.74,-292.63"/>
</a>
</g>
</g>
<!-- Node13 -->
<g id="Node000013" class="node">
<title>Node13</title>
<g id="a_Node000013"><a xlink:href="collision_8c.html#ac312bf382cb40752f6b790a99e7cdcb6" target="_top" xlink:title=" ">
<polygon fill="white" stroke="#666666" points="1148,-561 1040,-561 1040,-542 1148,-542 1148,-561"/>
<text text-anchor="middle" x="1094" y="-549" font-family="Helvetica,sans-Serif" font-size="10.00">check_collision_yx</text>
</a>
</g>
</g>
<!-- Node12&#45;&gt;Node13 -->
<g id="edge13_Node000012_Node000013" class="edge">
<title>Node12&#45;&gt;Node13</title>
<g id="a_edge13_Node000012_Node000013"><a xlink:title=" ">
<path fill="none" stroke="#63b8ff" d="M940.87,-506.14C962.1,-514.03 993.3,-525.2 1021,-533.5 1027.87,-535.56 1035.16,-537.57 1042.36,-539.47"/>
<polygon fill="#63b8ff" stroke="#63b8ff" points="1041.52,-542.87 1052.08,-541.97 1043.26,-536.09 1041.52,-542.87"/>
</a>
</g>
</g>
<!-- Node14 -->
<g id="Node000014" class="node">
<title>Node14</title>
<g id="a_Node000014"><a xlink:href="collision_8c.html#a4b48832a90e984536a0635a016ec4f28" target="_top" xlink:title=" ">
<polygon fill="white" stroke="#666666" points="1147.5,-524 1040.5,-524 1040.5,-505 1147.5,-505 1147.5,-524"/>
<text text-anchor="middle" x="1094" y="-512" font-family="Helvetica,sans-Serif" font-size="10.00">check_collision_zx</text>
</a>
</g>
</g>
<!-- Node12&#45;&gt;Node14 -->
<g id="edge14_Node000012_Node000014" class="edge">
<title>Node12&#45;&gt;Node14</title>
<g id="a_edge14_Node000012_Node000014"><a xlink:title=" ">
<path fill="none" stroke="#63b8ff" d="M985.14,-503.56C999.91,-505.06 1015.43,-506.63 1029.94,-508.1"/>
<polygon fill="#63b8ff" stroke="#63b8ff" points="1030,-511.63 1040.3,-509.16 1030.7,-504.66 1030,-511.63"/>
</a>
</g>
</g>
<!-- Node15 -->
<g id="Node000015" class="node">
<title>Node15</title>
<g id="a_Node000015"><a xlink:href="collision_8c.html#a21fef964ab48191a1c0341954ef27a40" target="_top" xlink:title=" ">
<polygon fill="white" stroke="#666666" points="1147.5,-487 1040.5,-487 1040.5,-468 1147.5,-468 1147.5,-487"/>
<text text-anchor="middle" x="1094" y="-475" font-family="Helvetica,sans-Serif" font-size="10.00">check_collision_zy</text>
</a>
</g>
</g>
<!-- Node12&#45;&gt;Node15 -->
<g id="edge15_Node000012_Node000015" class="edge">
<title>Node12&#45;&gt;Node15</title>
<g id="a_edge15_Node000012_Node000015"><a xlink:title=" ">
<path fill="none" stroke="#63b8ff" d="M985.14,-489.05C999.91,-487.46 1015.43,-485.8 1029.94,-484.25"/>
<polygon fill="#63b8ff" stroke="#63b8ff" points="1030.73,-487.69 1040.3,-483.14 1029.98,-480.73 1030.73,-487.69"/>
</a>
</g>
</g>
<!-- Node17 -->
<g id="Node000017" class="node">
<title>Node17</title>
<g id="a_Node000017"><a xlink:href="Game_8cpp.html#a693de7d8b89fe291aafea86bc64a0a2e" target="_top" xlink:title=" ">
<polygon fill="white" stroke="#666666" points="1134,-450 1054,-450 1054,-431 1134,-431 1134,-450"/>
<text text-anchor="middle" x="1094" y="-438" font-family="Helvetica,sans-Serif" font-size="10.00">CM_GetActor</text>
</a>
</g>
</g>
<!-- Node16&#45;&gt;Node17 -->
<g id="edge17_Node000016_Node000017" class="edge">
<title>Node16&#45;&gt;Node17</title>
<g id="a_edge17_Node000016_Node000017"><a xlink:title=" ">
<path fill="none" stroke="#63b8ff" d="M977.58,-412.54C999.4,-417.83 1023.6,-423.69 1044.17,-428.67"/>
<polygon fill="#63b8ff" stroke="#63b8ff" points="1043.41,-432.09 1053.96,-431.04 1045.06,-425.29 1043.41,-432.09"/>
</a>
</g>
</g>
<!-- Node18 -->
<g id="Node000018" class="node">
<title>Node18</title>
<g id="a_Node000018"><a xlink:href="code__80005FD0_8c.html#ad301b978cdd3c4cc190b10be050d51d8" target="_top" xlink:title=" ">
<polygon fill="white" stroke="#666666" points="1167,-412.5 1021,-412.5 1021,-382.5 1167,-382.5 1167,-412.5"/>
<text text-anchor="start" x="1029" y="-400.5" font-family="Helvetica,sans-Serif" font-size="10.00">delete_actor_in_unexpired</text>
<text text-anchor="middle" x="1094" y="-389.5" font-family="Helvetica,sans-Serif" font-size="10.00">_actor_list</text>
</a>
</g>
</g>
<!-- Node16&#45;&gt;Node18 -->
<g id="edge18_Node000016_Node000018" class="edge">
<title>Node16&#45;&gt;Node18</title>
<g id="a_edge18_Node000016_Node000018"><a xlink:title=" ">
<path fill="none" stroke="#63b8ff" d="M980.59,-397.5C990.38,-397.5 1000.59,-397.5 1010.69,-397.5"/>
<polygon fill="#63b8ff" stroke="#63b8ff" points="1010.73,-401 1020.73,-397.5 1010.73,-394 1010.73,-401"/>
</a>
</g>
</g>
<!-- Node19 -->
<g id="Node000019" class="node">
<title>Node19</title>
<g id="a_Node000019"><a xlink:href="actors_8c.html#a694ec6ef7548b8618aeb35c038d3a9b9" target="_top" xlink:title=" ">
<polygon fill="white" stroke="#666666" points="1135.5,-364 1052.5,-364 1052.5,-345 1135.5,-345 1135.5,-364"/>
<text text-anchor="middle" x="1094" y="-352" font-family="Helvetica,sans-Serif" font-size="10.00">destroy_actor</text>
</a>
</g>
</g>
<!-- Node16&#45;&gt;Node19 -->
<g id="edge19_Node000016_Node000019" class="edge">
<title>Node16&#45;&gt;Node19</title>
<g id="a_edge19_Node000016_Node000019"><a xlink:title=" ">
<path fill="none" stroke="#63b8ff" d="M977.58,-382.46C999.32,-377.2 1023.41,-371.36 1043.93,-366.39"/>
<polygon fill="#63b8ff" stroke="#63b8ff" points="1044.8,-369.78 1053.69,-364.02 1043.15,-362.98 1044.8,-369.78"/>
</a>
</g>
</g>
<!-- Node20 -->
<g id="Node000020" class="node">
<title>Node20</title>
<g id="a_Node000020"><a xlink:href="actors_8c.html#a12dc3ccac4c7d8569eadac0af4fd6f9f" target="_top" xlink:title=" ">
<polygon fill="white" stroke="#666666" points="1361,-364 1203,-364 1203,-345 1361,-345 1361,-364"/>
<text text-anchor="middle" x="1282" y="-352" font-family="Helvetica,sans-Serif" font-size="10.00">play_sound_before_despawn</text>
</a>
</g>
</g>
<!-- Node19&#45;&gt;Node20 -->
<g id="edge20_Node000019_Node000020" class="edge">
<title>Node19&#45;&gt;Node20</title>
<g id="a_edge20_Node000019_Node000020"><a xlink:title=" ">
<path fill="none" stroke="#63b8ff" d="M1135.82,-354.5C1152.65,-354.5 1172.86,-354.5 1192.77,-354.5"/>
<polygon fill="#63b8ff" stroke="#63b8ff" points="1192.82,-358 1202.82,-354.5 1192.82,-351 1192.82,-358"/>
</a>
</g>
</g>
<!-- Node21 -->
<g id="Node000021" class="node">
<title>Node21</title>
<g id="a_Node000021"><a xlink:href="external_8c.html#ae72057869772019e4464c87d4e16c682" target="_top" xlink:title=" ">
<polygon fill="white" stroke="#666666" points="1489,-364 1397,-364 1397,-345 1489,-345 1489,-364"/>
<text text-anchor="middle" x="1443" y="-352" font-family="Helvetica,sans-Serif" font-size="10.00">func_800C99E0</text>
</a>
</g>
</g>
<!-- Node20&#45;&gt;Node21 -->
<g id="edge21_Node000020_Node000021" class="edge">
<title>Node20&#45;&gt;Node21</title>
<g id="a_edge21_Node000020_Node000021"><a xlink:title=" ">
<path fill="none" stroke="#63b8ff" d="M1361.1,-354.5C1369.72,-354.5 1378.35,-354.5 1386.61,-354.5"/>
<polygon fill="#63b8ff" stroke="#63b8ff" points="1386.83,-358 1396.83,-354.5 1386.83,-351 1386.83,-358"/>
</a>
</g>
</g>
<!-- Node22 -->
<g id="Node000022" class="node">
<title>Node22</title>
<g id="a_Node000022"><a xlink:href="external_8c.html#aeb87c527482a244173df36a1f3d4f446" target="_top" xlink:title=" ">
<polygon fill="white" stroke="#666666" points="1617,-383 1525,-383 1525,-364 1617,-364 1617,-383"/>
<text text-anchor="middle" x="1571" y="-371" font-family="Helvetica,sans-Serif" font-size="10.00">func_800C21E8</text>
</a>
</g>
</g>
<!-- Node21&#45;&gt;Node22 -->
<g id="edge22_Node000021_Node000022" class="edge">
<title>Node21&#45;&gt;Node22</title>
<g id="a_edge22_Node000021_Node000022"><a xlink:title=" ">
<path fill="none" stroke="#63b8ff" d="M1489.13,-361.31C1497.46,-362.56 1506.23,-363.88 1514.81,-365.18"/>
<polygon fill="#63b8ff" stroke="#63b8ff" points="1514.35,-368.65 1524.76,-366.68 1515.39,-361.73 1514.35,-368.65"/>
</a>
</g>
</g>
<!-- Node23 -->
<g id="Node000023" class="node">
<title>Node23</title>
<g id="a_Node000023"><a xlink:href="external_8c.html#a028d40421b90c38f68ebfd5acc626f2e" target="_top" xlink:title=" ">
<polygon fill="#fff0f0" stroke="red" points="1617,-346 1525,-346 1525,-327 1617,-327 1617,-346"/>
<text text-anchor="middle" x="1571" y="-334" font-family="Helvetica,sans-Serif" font-size="10.00">func_800C5578</text>
</a>
</g>
</g>
<!-- Node21&#45;&gt;Node23 -->
<g id="edge23_Node000021_Node000023" class="edge">
<title>Node21&#45;&gt;Node23</title>
<g id="a_edge23_Node000021_Node000023"><a xlink:title=" ">
<path fill="none" stroke="#63b8ff" d="M1489.13,-348.05C1497.46,-346.86 1506.23,-345.61 1514.81,-344.38"/>
<polygon fill="#63b8ff" stroke="#63b8ff" points="1515.35,-347.84 1524.76,-342.96 1514.36,-340.91 1515.35,-347.84"/>
</a>
</g>
</g>
<!-- Node24 -->
<g id="Node000024" class="node">
<title>Node24</title>
<g id="a_Node000024"><a xlink:href="external_8c.html#ac0fb767de7e14a03f1bcfa53f0abd23b" target="_top" xlink:title=" ">
<polygon fill="#fff0f0" stroke="red" points="1793,-346 1653,-346 1653,-327 1793,-327 1793,-346"/>
<text text-anchor="middle" x="1723" y="-334" font-family="Helvetica,sans-Serif" font-size="10.00">delete_sound_from_bank</text>
</a>
</g>
</g>
<!-- Node23&#45;&gt;Node24 -->
<g id="edge24_Node000023_Node000024" class="edge">
<title>Node23&#45;&gt;Node24</title>
<g id="a_edge24_Node000023_Node000024"><a xlink:title=" ">
<path fill="none" stroke="#63b8ff" d="M1617,-336.5C1625.22,-336.5 1634.01,-336.5 1642.87,-336.5"/>
<polygon fill="#63b8ff" stroke="#63b8ff" points="1642.89,-340 1652.89,-336.5 1642.89,-333 1642.89,-340"/>
</a>
</g>
</g>
<!-- Node30 -->
<g id="Node000030" class="node">
<title>Node30</title>
<g id="a_Node000030"><a xlink:href="math__util_8c.html#a79fd07a0971ec96a3ff0801963a2fa7f" target="_top" xlink:title=" ">
<polygon fill="white" stroke="#666666" points="1126,-327 1062,-327 1062,-308 1126,-308 1126,-327"/>
<text text-anchor="middle" x="1094" y="-315" font-family="Helvetica,sans-Serif" font-size="10.00">vec3f_set</text>
</a>
</g>
</g>
<!-- Node29&#45;&gt;Node30 -->
<g id="edge26_Node000029_Node000030" class="edge">
<title>Node29&#45;&gt;Node30</title>
<g id="a_edge26_Node000029_Node000030"><a xlink:title=" ">
<path fill="none" stroke="#63b8ff" d="M961.21,-344.97C989.26,-339.12 1024.89,-331.7 1052.02,-326.04"/>
<polygon fill="#63b8ff" stroke="#63b8ff" points="1052.9,-329.43 1061.97,-323.97 1051.47,-322.58 1052.9,-329.43"/>
</a>
</g>
</g>
<!-- Node36&#45;&gt;Node10 -->
<g id="edge33_Node000036_Node000010" class="edge">
<title>Node36&#45;&gt;Node10</title>
<g id="a_edge33_Node000036_Node000010"><a xlink:title=" ">
<path fill="none" stroke="#63b8ff" d="M425.72,-274.65C440.3,-274.98 456.57,-275.34 472.44,-275.7"/>
<polygon fill="#63b8ff" stroke="#63b8ff" points="472.72,-279.21 482.8,-275.94 472.88,-272.21 472.72,-279.21"/>
</a>
</g>
</g>
<!-- Node37 -->
<g id="Node000037" class="node">
<title>Node37</title>
<g id="a_Node000037"><a xlink:href="math__util_8c.html#ad5bb0138c68b50f119d3cb7966f522b7" target="_top" xlink:title=" ">
<polygon fill="white" stroke="#666666" points="629,-246 477,-246 477,-227 629,-227 629,-246"/>
<text text-anchor="middle" x="553" y="-234" font-family="Helvetica,sans-Serif" font-size="10.00">mtxf_translate_vec3f_mat3</text>
</a>
</g>
</g>
<!-- Node36&#45;&gt;Node37 -->
<g id="edge34_Node000036_Node000037" class="edge">
<title>Node36&#45;&gt;Node37</title>
<g id="a_edge34_Node000036_Node000037"><a xlink:title=" ">
<path fill="none" stroke="#63b8ff" d="M420.58,-263.97C443.72,-259.14 472.02,-253.22 496.42,-248.12"/>
<polygon fill="#63b8ff" stroke="#63b8ff" points="497.19,-251.53 506.27,-246.06 495.76,-244.68 497.19,-251.53"/>
</a>
</g>
</g>
<!-- Node38&#45;&gt;Node39 -->
<g id="edge36_Node000038_Node000039" class="edge">
<title>Node38&#45;&gt;Node39</title>
<g id="a_edge36_Node000038_Node000039"><a xlink:title=" ">
<path fill="none" stroke="#63b8ff" d="M260.88,-160.84C276.09,-160.93 292.61,-161.03 308.18,-161.12"/>
<polygon fill="#63b8ff" stroke="#63b8ff" points="308.23,-164.62 318.25,-161.18 308.27,-157.62 308.23,-164.62"/>
</a>
</g>
</g>
<!-- Node39&#45;&gt;Node10 -->
<g id="edge41_Node000039_Node000010" class="edge">
<title>Node39&#45;&gt;Node10</title>
<g id="a_edge41_Node000039_Node000010"><a xlink:title=" ">
<path fill="none" stroke="#63b8ff" d="M425.59,-171.13C431.15,-173.58 436.45,-176.65 441,-180.5 469.24,-204.37 448.82,-231.56 477,-255.5 480.75,-258.68 484.93,-261.4 489.36,-263.73"/>
<polygon fill="#63b8ff" stroke="#63b8ff" points="488.17,-267.04 498.73,-267.98 491.06,-260.66 488.17,-267.04"/>
</a>
</g>
</g>
<!-- Node39&#45;&gt;Node37 -->
<g id="edge43_Node000039_Node000037" class="edge">
<title>Node39&#45;&gt;Node37</title>
<g id="a_edge43_Node000039_Node000037"><a xlink:title=" ">
<path fill="none" stroke="#63b8ff" d="M419.99,-171.03C427.29,-173.53 434.56,-176.64 441,-180.5 460.68,-192.29 457.13,-206.03 477,-217.5 480.9,-219.75 485.07,-221.74 489.36,-223.49"/>
<polygon fill="#63b8ff" stroke="#63b8ff" points="488.32,-226.84 498.91,-226.97 490.72,-220.26 488.32,-226.84"/>
</a>
</g>
</g>
<!-- Node40 -->
<g id="Node000040" class="node">
<title>Node40</title>
<g id="a_Node000040"><a xlink:href="collision_8c.html#a79293dbdae52d290fdaf8dde9d5244ca" target="_top" xlink:title=" ">
<polygon fill="white" stroke="#666666" points="615.5,-208 490.5,-208 490.5,-189 615.5,-189 615.5,-208"/>
<text text-anchor="middle" x="553" y="-196" font-family="Helvetica,sans-Serif" font-size="10.00">actor_terrain_collision</text>
</a>
</g>
</g>
<!-- Node39&#45;&gt;Node40 -->
<g id="edge37_Node000039_Node000040" class="edge">
<title>Node39&#45;&gt;Node40</title>
<g id="a_edge37_Node000039_Node000040"><a xlink:title=" ">
<path fill="none" stroke="#63b8ff" d="M420.58,-171.03C443.72,-175.86 472.02,-181.78 496.42,-186.88"/>
<polygon fill="#63b8ff" stroke="#63b8ff" points="495.76,-190.32 506.27,-188.94 497.19,-183.47 495.76,-190.32"/>
</a>
</g>
</g>
<!-- Node44 -->
<g id="Node000044" class="node">
<title>Node44</title>
<g id="a_Node000044"><a xlink:href="actors__extended_8c.html#a78e98c146f1f4dd6e3608016486172a4" target="_top" xlink:title=" ">
<polygon fill="white" stroke="#666666" points="599,-171 507,-171 507,-152 599,-152 599,-171"/>
<text text-anchor="middle" x="553" y="-159" font-family="Helvetica,sans-Serif" font-size="10.00">func_802B4E30</text>
</a>
</g>
</g>
<!-- Node39&#45;&gt;Node44 -->
<g id="edge42_Node000039_Node000044" class="edge">
<title>Node39&#45;&gt;Node44</title>
<g id="a_edge42_Node000039_Node000044"><a xlink:title=" ">
<path fill="none" stroke="#63b8ff" d="M429.55,-161.5C450.85,-161.5 475.24,-161.5 496.62,-161.5"/>
<polygon fill="#63b8ff" stroke="#63b8ff" points="496.85,-165 506.85,-161.5 496.85,-158 496.85,-165"/>
</a>
</g>
</g>
<!-- Node41 -->
<g id="Node000041" class="node">
<title>Node41</title>
<g id="a_Node000041"><a xlink:href="collision_8c.html#a6ea8b20f38e63c1b1157923085c8e306" target="_top" xlink:title=" ">
<polygon fill="white" stroke="#666666" points="808,-215.5 665,-215.5 665,-185.5 808,-185.5 808,-215.5"/>
<text text-anchor="start" x="673" y="-203.5" font-family="Helvetica,sans-Serif" font-size="10.00">is_colliding_with_drivable</text>
<text text-anchor="middle" x="736.5" y="-192.5" font-family="Helvetica,sans-Serif" font-size="10.00">_surface</text>
</a>
</g>
</g>
<!-- Node40&#45;&gt;Node41 -->
<g id="edge38_Node000040_Node000041" class="edge">
<title>Node40&#45;&gt;Node41</title>
<g id="a_edge38_Node000040_Node000041"><a xlink:title=" ">
<path fill="none" stroke="#63b8ff" d="M615.7,-199.18C628.19,-199.32 641.5,-199.46 654.53,-199.61"/>
<polygon fill="#63b8ff" stroke="#63b8ff" points="654.87,-203.11 664.91,-199.72 654.95,-196.11 654.87,-203.11"/>
</a>
</g>
</g>
<!-- Node42 -->
<g id="Node000042" class="node">
<title>Node42</title>
<g id="a_Node000042"><a xlink:href="collision_8c.html#a94970a4a6ca911f74e59114decd74557" target="_top" xlink:title=" ">
<polygon fill="white" stroke="#666666" points="801,-167 672,-167 672,-148 801,-148 801,-167"/>
<text text-anchor="middle" x="736.5" y="-155" font-family="Helvetica,sans-Serif" font-size="10.00">is_colliding_with_wall1</text>
</a>
</g>
</g>
<!-- Node40&#45;&gt;Node42 -->
<g id="edge39_Node000040_Node000042" class="edge">
<title>Node40&#45;&gt;Node42</title>
<g id="a_edge39_Node000040_Node000042"><a xlink:title=" ">
<path fill="none" stroke="#63b8ff" d="M596.1,-188.99C622.12,-183.11 655.72,-175.52 683.41,-169.27"/>
<polygon fill="#63b8ff" stroke="#63b8ff" points="684.34,-172.65 693.32,-167.03 682.79,-165.82 684.34,-172.65"/>
</a>
</g>
</g>
<!-- Node43 -->
<g id="Node000043" class="node">
<title>Node43</title>
<g id="a_Node000043"><a xlink:href="collision_8c.html#a23443870e0d3a6797de707a89ded7ef0" target="_top" xlink:title=" ">
<polygon fill="white" stroke="#666666" points="801,-130 672,-130 672,-111 801,-111 801,-130"/>
<text text-anchor="middle" x="736.5" y="-118" font-family="Helvetica,sans-Serif" font-size="10.00">is_colliding_with_wall2</text>
</a>
</g>
</g>
<!-- Node40&#45;&gt;Node43 -->
<g id="edge40_Node000040_Node000043" class="edge">
<title>Node40&#45;&gt;Node43</title>
<g id="a_edge40_Node000040_Node000043"><a xlink:title=" ">
<path fill="none" stroke="#63b8ff" d="M610.79,-188.87C617.17,-186.64 623.38,-183.89 629,-180.5 649.76,-167.97 644.41,-152.31 665,-139.5 668.41,-137.38 672.06,-135.49 675.84,-133.8"/>
<polygon fill="#63b8ff" stroke="#63b8ff" points="677.39,-136.96 685.42,-130.04 674.83,-130.44 677.39,-136.96"/>
</a>
</g>
</g>
<!-- Node45&#45;&gt;Node10 -->
<g id="edge45_Node000045_Node000010" class="edge">
<title>Node45&#45;&gt;Node10</title>
<g id="a_edge45_Node000045_Node000010"><a xlink:title=" ">
<path fill="none" stroke="#63b8ff" d="M416.05,-246.01C441.32,-251.86 473.91,-259.41 500.84,-265.65"/>
<polygon fill="#63b8ff" stroke="#63b8ff" points="500.33,-269.12 510.86,-267.97 501.91,-262.3 500.33,-269.12"/>
</a>
</g>
</g>
<!-- Node45&#45;&gt;Node37 -->
<g id="edge46_Node000045_Node000037" class="edge">
<title>Node45&#45;&gt;Node37</title>
<g id="a_edge46_Node000045_Node000037"><a xlink:title=" ">
<path fill="none" stroke="#63b8ff" d="M441.16,-236.5C449.56,-236.5 458.24,-236.5 466.89,-236.5"/>
<polygon fill="#63b8ff" stroke="#63b8ff" points="466.99,-240 476.99,-236.5 466.99,-233 466.99,-240"/>
</a>
</g>
</g>
<!-- Node46&#45;&gt;Node10 -->
<g id="edge49_Node000046_Node000010" class="edge">
<title>Node46&#45;&gt;Node10</title>
<g id="a_edge49_Node000046_Node000010"><a xlink:title=" ">
<path fill="none" stroke="#63b8ff" d="M417.9,-208.05C425.9,-210.77 433.94,-214.21 441,-218.5 460.6,-230.43 457.35,-243.66 477,-255.5 482.86,-259.03 489.31,-262.02 495.91,-264.55"/>
<polygon fill="#63b8ff" stroke="#63b8ff" points="495.02,-267.95 505.61,-267.93 497.32,-261.34 495.02,-267.95"/>
</a>
</g>
</g>
<!-- Node46&#45;&gt;Node37 -->
<g id="edge51_Node000046_Node000037" class="edge">
<title>Node46&#45;&gt;Node37</title>
<g id="a_edge51_Node000046_Node000037"><a xlink:title=" ">
<path fill="none" stroke="#63b8ff" d="M419.66,-208.09C443.34,-213.17 472.61,-219.46 497.6,-224.82"/>
<polygon fill="#63b8ff" stroke="#63b8ff" points="497.14,-228.3 507.66,-226.98 498.61,-221.46 497.14,-228.3"/>
</a>
</g>
</g>
<!-- Node46&#45;&gt;Node40 -->
<g id="edge48_Node000046_Node000040" class="edge">
<title>Node46&#45;&gt;Node40</title>
<g id="a_edge48_Node000046_Node000040"><a xlink:title=" ">
<path fill="none" stroke="#63b8ff" d="M435.91,-198.5C450.21,-198.5 465.58,-198.5 480.3,-198.5"/>
<polygon fill="#63b8ff" stroke="#63b8ff" points="480.37,-202 490.37,-198.5 480.37,-195 480.37,-202"/>
</a>
</g>
</g>
<!-- Node46&#45;&gt;Node44 -->
<g id="edge50_Node000046_Node000044" class="edge">
<title>Node46&#45;&gt;Node44</title>
<g id="a_edge50_Node000046_Node000044"><a xlink:title=" ">
<path fill="none" stroke="#63b8ff" d="M420.58,-188.97C443.9,-184.1 472.46,-178.13 496.99,-173"/>
<polygon fill="#63b8ff" stroke="#63b8ff" points="497.81,-176.4 506.88,-170.93 496.37,-169.55 497.81,-176.4"/>
</a>
</g>
</g>
<!-- Node48 -->
<g id="Node000048" class="node">
<title>Node48</title>
<g id="a_Node000048"><a xlink:href="menu__items_8c.html#ae51a0e8a87ee07bbd88e006d87343ada" target="_top" xlink:title=" ">
<polygon fill="white" stroke="#666666" points="420,-38 328,-38 328,-19 420,-19 420,-38"/>
<text text-anchor="middle" x="374" y="-26" font-family="Helvetica,sans-Serif" font-size="10.00">func_8009E5BC</text>
</a>
</g>
</g>
<!-- Node47&#45;&gt;Node48 -->
<g id="edge54_Node000047_Node000048" class="edge">
<title>Node47&#45;&gt;Node48</title>
<g id="a_edge54_Node000047_Node000048"><a xlink:title=" ">
<path fill="none" stroke="#63b8ff" d="M233.02,-73.92C261.01,-64.84 303.23,-51.14 333.98,-41.16"/>
<polygon fill="#63b8ff" stroke="#63b8ff" points="335.1,-44.48 343.53,-38.06 332.94,-37.82 335.1,-44.48"/>
</a>
</g>
</g>
<!-- Node50 -->
<g id="Node000050" class="node">
<title>Node50</title>
<g id="a_Node000050"><a xlink:href="external_8c.html#ab3e41422317f1d656be9e9b0d5947bb8" target="_top" xlink:title=" ">
<polygon fill="white" stroke="#666666" points="421,-93 327,-93 327,-74 421,-74 421,-93"/>
<text text-anchor="middle" x="374" y="-81" font-family="Helvetica,sans-Serif" font-size="10.00">func_800CAB4C</text>
</a>
</g>
</g>
<!-- Node47&#45;&gt;Node50 -->
<g id="edge56_Node000047_Node000050" class="edge">
<title>Node47&#45;&gt;Node50</title>
<g id="a_edge56_Node000047_Node000050"><a xlink:title=" ">
<path fill="none" stroke="#63b8ff" d="M254.82,-83.5C274.31,-83.5 296.63,-83.5 316.57,-83.5"/>
<polygon fill="#63b8ff" stroke="#63b8ff" points="316.76,-87 326.76,-83.5 316.76,-80 316.76,-87"/>
</a>
</g>
</g>
<!-- Node49 -->
<g id="Node000049" class="node">
<title>Node49</title>
<g id="a_Node000049"><a xlink:href="menu__items_8c.html#ac9e3b8307dec167812d18d72a541bf1f" target="_top" xlink:title=" ">
<polygon fill="white" stroke="#666666" points="599,-19 507,-19 507,0 599,0 599,-19"/>
<text text-anchor="middle" x="553" y="-7" font-family="Helvetica,sans-Serif" font-size="10.00">func_8009E5FC</text>
</a>
</g>
</g>
<!-- Node48&#45;&gt;Node49 -->
<g id="edge55_Node000048_Node000049" class="edge">
<title>Node48&#45;&gt;Node49</title>
<g id="a_edge55_Node000048_Node000049"><a xlink:title=" ">
<path fill="none" stroke="#63b8ff" d="M420.12,-23.66C443.53,-21.14 472.31,-18.05 497.01,-15.4"/>
<polygon fill="#63b8ff" stroke="#63b8ff" points="497.39,-18.88 506.96,-14.33 496.64,-11.92 497.39,-18.88"/>
</a>
</g>
</g>
<!-- Node51 -->
<g id="Node000051" class="node">
<title>Node51</title>
<g id="a_Node000051"><a xlink:href="external_8c.html#ad79a8b3dfe27cebca94c2d9e2cc54d2b" target="_top" xlink:title=" ">
<polygon fill="white" stroke="#666666" points="599,-56 507,-56 507,-37 599,-37 599,-56"/>
<text text-anchor="middle" x="553" y="-44" font-family="Helvetica,sans-Serif" font-size="10.00">func_800C36C4</text>
</a>
</g>
</g>
<!-- Node50&#45;&gt;Node51 -->
<g id="edge57_Node000050_Node000051" class="edge">
<title>Node50&#45;&gt;Node51</title>
<g id="a_edge57_Node000050_Node000051"><a xlink:title=" ">
<path fill="none" stroke="#63b8ff" d="M420.58,-73.97C443.9,-69.1 472.46,-63.13 496.99,-58"/>
<polygon fill="#63b8ff" stroke="#63b8ff" points="497.81,-61.4 506.88,-55.93 496.37,-54.55 497.81,-61.4"/>
</a>
</g>
</g>
<!-- Node52 -->
<g id="Node000052" class="node">
<title>Node52</title>
<g id="a_Node000052"><a xlink:href="external_8c.html#a2be9efc97a92e19d02aaee90d676acc1" target="_top" xlink:title=" ">
<polygon fill="white" stroke="#666666" points="599,-93 507,-93 507,-74 599,-74 599,-93"/>
<text text-anchor="middle" x="553" y="-81" font-family="Helvetica,sans-Serif" font-size="10.00">func_800C9060</text>
</a>
</g>
</g>
<!-- Node50&#45;&gt;Node52 -->
<g id="edge58_Node000050_Node000052" class="edge">
<title>Node50&#45;&gt;Node52</title>
<g id="a_edge58_Node000050_Node000052"><a xlink:title=" ">
<path fill="none" stroke="#63b8ff" d="M421.04,-83.5C444.17,-83.5 472.36,-83.5 496.65,-83.5"/>
<polygon fill="#63b8ff" stroke="#63b8ff" points="496.8,-87 506.8,-83.5 496.8,-80 496.8,-87"/>
</a>
</g>
</g>
<!-- Node53 -->
<g id="Node000053" class="node">
<title>Node53</title>
<g id="a_Node000053"><a xlink:href="external_8c.html#a475cff796211891556f52877cd8e9b9e" target="_top" xlink:title=" ">
<polygon fill="white" stroke="#666666" points="772.5,-93 700.5,-93 700.5,-74 772.5,-74 772.5,-93"/>
<text text-anchor="middle" x="736.5" y="-81" font-family="Helvetica,sans-Serif" font-size="10.00">play_sound</text>
</a>
</g>
</g>
<!-- Node50&#45;&gt;Node53 -->
<g id="edge60_Node000050_Node000053" class="edge">
<title>Node50&#45;&gt;Node53</title>
<g id="a_edge60_Node000050_Node000053"><a xlink:title=" ">
<path fill="none" stroke="#63b8ff" d="M419.21,-93.04C437.06,-96.43 457.92,-99.83 477,-101.5 544.3,-107.39 561.68,-107.15 629,-101.5 649.18,-99.81 671.29,-96.34 690.11,-92.89"/>
<polygon fill="#63b8ff" stroke="#63b8ff" points="691.01,-96.29 700.19,-90.99 689.71,-89.41 691.01,-96.29"/>
</a>
</g>
</g>
<!-- Node52&#45;&gt;Node53 -->
<g id="edge59_Node000052_Node000053" class="edge">
<title>Node52&#45;&gt;Node53</title>
<g id="a_edge59_Node000052_Node000053"><a xlink:title=" ">
<path fill="none" stroke="#63b8ff" d="M599.33,-83.5C627.08,-83.5 662.45,-83.5 690.19,-83.5"/>
<polygon fill="#63b8ff" stroke="#63b8ff" points="690.42,-87 700.42,-83.5 690.42,-80 690.42,-87"/>
</a>
</g>
</g>
<!-- Node54&#45;&gt;Node10 -->
<g id="edge62_Node000054_Node000010" class="edge">
<title>Node54&#45;&gt;Node10</title>
<g id="a_edge62_Node000054_Node000010"><a xlink:title=" ">
<path fill="none" stroke="#63b8ff" d="M263.03,-342.76C311.36,-336.68 381.07,-326.53 441,-312.5 466.31,-306.57 494.21,-297.77 515.7,-290.47"/>
<polygon fill="#63b8ff" stroke="#63b8ff" points="517.08,-293.7 525.4,-287.13 514.8,-287.08 517.08,-293.7"/>
</a>
</g>
</g>
</g>
</svg>
