<?xml version="1.0" encoding="UTF-8" standalone="no"?>
<!DOCTYPE svg PUBLIC "-//W3C//DTD SVG 1.1//EN"
 "http://www.w3.org/Graphics/SVG/1.1/DTD/svg11.dtd">
<!-- Generated by graphviz version 2.43.0 (0)
 -->
<!-- Title: use_fake_itembox_item Pages: 1 -->
<svg width="1592pt" height="335pt"
 viewBox="0.00 0.00 1592.00 335.00" xmlns="http://www.w3.org/2000/svg" xmlns:xlink="http://www.w3.org/1999/xlink">
<g id="graph0" class="graph" transform="scale(1 1) rotate(0) translate(4 331)">
<title>use_fake_itembox_item</title>
<!-- Node1 -->
<g id="Node000001" class="node">
<title>Node1</title>
<g id="a_Node000001"><a xlink:title=" ">
<polygon fill="#999999" stroke="#666666" points="134,-55 0,-55 0,-36 134,-36 134,-55"/>
<text text-anchor="middle" x="67" y="-43" font-family="Helvetica,sans-Serif" font-size="10.00">use_fake_itembox_item</text>
</a>
</g>
</g>
<!-- Node2 -->
<g id="Node000002" class="node">
<title>Node2</title>
<g id="a_Node000002"><a xlink:href="actors_8c.html#a91fb2e4e37e7c72fea918fe2c1bb4eaf" target="_top" xlink:title=" ">
<polygon fill="white" stroke="#666666" points="316,-74 176,-74 176,-55 316,-55 316,-74"/>
<text text-anchor="middle" x="246" y="-62" font-family="Helvetica,sans-Serif" font-size="10.00">add_actor_to_empty_slot</text>
</a>
</g>
</g>
<!-- Node1&#45;&gt;Node2 -->
<g id="edge1_Node000001_Node000002" class="edge">
<title>Node1&#45;&gt;Node2</title>
<g id="a_edge1_Node000001_Node000002"><a xlink:title=" ">
<path fill="none" stroke="#63b8ff" d="M134.16,-52.6C144.5,-53.71 155.28,-54.87 165.88,-56.01"/>
<polygon fill="#63b8ff" stroke="#63b8ff" points="165.65,-59.5 175.96,-57.09 166.39,-52.54 165.65,-59.5"/>
</a>
</g>
</g>
<!-- Node28 -->
<g id="Node000028" class="node">
<title>Node28</title>
<g id="a_Node000028"><a xlink:href="math__util_8c.html#ad5bb0138c68b50f119d3cb7966f522b7" target="_top" xlink:title=" ">
<polygon fill="white" stroke="#666666" points="322,-37 170,-37 170,-18 322,-18 322,-37"/>
<text text-anchor="middle" x="246" y="-25" font-family="Helvetica,sans-Serif" font-size="10.00">mtxf_translate_vec3f_mat3</text>
</a>
</g>
</g>
<!-- Node1&#45;&gt;Node28 -->
<g id="edge27_Node000001_Node000028" class="edge">
<title>Node1&#45;&gt;Node28</title>
<g id="a_edge27_Node000001_Node000028"><a xlink:title=" ">
<path fill="none" stroke="#63b8ff" d="M134.16,-38.77C142.56,-37.92 151.24,-37.03 159.89,-36.16"/>
<polygon fill="#63b8ff" stroke="#63b8ff" points="160.4,-39.62 169.99,-35.13 159.69,-32.66 160.4,-39.62"/>
</a>
</g>
</g>
<!-- Node3 -->
<g id="Node000003" class="node">
<title>Node3</title>
<g id="a_Node000003"><a xlink:href="actors_8c.html#a39c023177b5a7686cdd1fc65b8b953e1" target="_top" xlink:title=" ">
<polygon fill="white" stroke="#666666" points="445,-130 383,-130 383,-111 445,-111 445,-130"/>
<text text-anchor="middle" x="414" y="-118" font-family="Helvetica,sans-Serif" font-size="10.00">actor_init</text>
</a>
</g>
</g>
<!-- Node2&#45;&gt;Node3 -->
<g id="edge2_Node000002_Node000003" class="edge">
<title>Node2&#45;&gt;Node3</title>
<g id="a_edge2_Node000002_Node000003"><a xlink:title=" ">
<path fill="none" stroke="#63b8ff" d="M275.54,-74.13C303.02,-83.4 344.77,-97.48 375.05,-107.7"/>
<polygon fill="#63b8ff" stroke="#63b8ff" points="374.24,-111.12 384.84,-111 376.48,-104.49 374.24,-111.12"/>
</a>
</g>
</g>
<!-- Node25 -->
<g id="Node000025" class="node">
<title>Node25</title>
<g id="a_Node000025"><a xlink:href="Game_8cpp.html#acea5cfd9ab22f745bd6627869b95a62e" target="_top" xlink:title=" ">
<polygon fill="white" stroke="#666666" points="470,-93 358,-93 358,-74 470,-74 470,-93"/>
<text text-anchor="middle" x="414" y="-81" font-family="Helvetica,sans-Serif" font-size="10.00">CM_ActorBeginPlay</text>
</a>
</g>
</g>
<!-- Node2&#45;&gt;Node25 -->
<g id="edge24_Node000002_Node000025" class="edge">
<title>Node2&#45;&gt;Node25</title>
<g id="a_edge24_Node000002_Node000025"><a xlink:title=" ">
<path fill="none" stroke="#63b8ff" d="M316.44,-72.45C326.83,-73.64 337.52,-74.86 347.82,-76.04"/>
<polygon fill="#63b8ff" stroke="#63b8ff" points="347.64,-79.54 357.97,-77.2 348.43,-72.59 347.64,-79.54"/>
</a>
</g>
</g>
<!-- Node26 -->
<g id="Node000026" class="node">
<title>Node26</title>
<g id="a_Node000026"><a xlink:href="Game_8cpp.html#a42f23077aaa52cb3ea5c7803b7dd6816" target="_top" xlink:title=" ">
<polygon fill="white" stroke="#666666" points="467,-56 361,-56 361,-37 467,-37 467,-56"/>
<text text-anchor="middle" x="414" y="-44" font-family="Helvetica,sans-Serif" font-size="10.00">CM_AddBaseActor</text>
</a>
</g>
</g>
<!-- Node2&#45;&gt;Node26 -->
<g id="edge25_Node000002_Node000026" class="edge">
<title>Node2&#45;&gt;Node26</title>
<g id="a_edge25_Node000002_Node000026"><a xlink:title=" ">
<path fill="none" stroke="#63b8ff" d="M316.44,-56.97C327.8,-55.74 339.5,-54.47 350.68,-53.26"/>
<polygon fill="#63b8ff" stroke="#63b8ff" points="351.2,-56.72 360.76,-52.16 350.45,-49.76 351.2,-56.72"/>
</a>
</g>
</g>
<!-- Node27 -->
<g id="Node000027" class="node">
<title>Node27</title>
<g id="a_Node000027"><a xlink:href="Game_8cpp.html#a0841ffe9a66e95aca42438b9d8ffc3d3" target="_top" xlink:title=" ">
<polygon fill="white" stroke="#666666" points="464.5,-19 363.5,-19 363.5,0 464.5,0 464.5,-19"/>
<text text-anchor="middle" x="414" y="-7" font-family="Helvetica,sans-Serif" font-size="10.00">CM_GetActorSize</text>
</a>
</g>
</g>
<!-- Node2&#45;&gt;Node27 -->
<g id="edge26_Node000002_Node000027" class="edge">
<title>Node2&#45;&gt;Node27</title>
<g id="a_edge26_Node000002_Node000027"><a xlink:title=" ">
<path fill="none" stroke="#63b8ff" d="M291.51,-54.91C301.66,-52.26 312.31,-49.1 322,-45.5 338.77,-39.27 341.45,-34.3 358,-27.5 362.24,-25.76 366.72,-24.06 371.22,-22.45"/>
<polygon fill="#63b8ff" stroke="#63b8ff" points="372.69,-25.65 381.01,-19.09 370.41,-19.03 372.69,-25.65"/>
</a>
</g>
</g>
<!-- Node4 -->
<g id="Node000004" class="node">
<title>Node4</title>
<g id="a_Node000004"><a xlink:href="collision_8c.html#a37aa55b3768d001533ad75e7f1b8388a" target="_top" xlink:title=" ">
<polygon fill="white" stroke="#666666" points="647,-272 506,-272 506,-253 647,-253 647,-272"/>
<text text-anchor="middle" x="576.5" y="-260" font-family="Helvetica,sans-Serif" font-size="10.00">check_bounding_collision</text>
</a>
</g>
</g>
<!-- Node3&#45;&gt;Node4 -->
<g id="edge3_Node000003_Node000004" class="edge">
<title>Node3&#45;&gt;Node4</title>
<g id="a_edge3_Node000003_Node000004"><a xlink:title=" ">
<path fill="none" stroke="#63b8ff" d="M425.78,-130.04C452.6,-153.77 522.63,-215.72 556.55,-245.73"/>
<polygon fill="#63b8ff" stroke="#63b8ff" points="554.53,-248.62 564.34,-252.63 559.17,-243.38 554.53,-248.62"/>
</a>
</g>
</g>
<!-- Node8 -->
<g id="Node000008" class="node">
<title>Node8</title>
<g id="a_Node000008"><a xlink:href="actors_8c.html#a1a9bccb586242555a9123ebd4ab70f2a" target="_top" xlink:title=" ">
<polygon fill="white" stroke="#666666" points="642.5,-178.5 510.5,-178.5 510.5,-148.5 642.5,-148.5 642.5,-178.5"/>
<text text-anchor="start" x="518.5" y="-166.5" font-family="Helvetica,sans-Serif" font-size="10.00">cleanup_red_and_green</text>
<text text-anchor="middle" x="576.5" y="-155.5" font-family="Helvetica,sans-Serif" font-size="10.00">_shells</text>
</a>
</g>
</g>
<!-- Node3&#45;&gt;Node8 -->
<g id="edge7_Node000003_Node000008" class="edge">
<title>Node3&#45;&gt;Node8</title>
<g id="a_edge7_Node000003_Node000008"><a xlink:title=" ">
<path fill="none" stroke="#63b8ff" d="M445.19,-128.59C463.38,-133.46 487.29,-139.87 509.66,-145.86"/>
<polygon fill="#63b8ff" stroke="#63b8ff" points="508.89,-149.28 519.46,-148.49 510.71,-142.52 508.89,-149.28"/>
</a>
</g>
</g>
<!-- Node21 -->
<g id="Node000021" class="node">
<title>Node21</title>
<g id="a_Node000021"><a xlink:href="collision_8c.html#ad72fef3ffe32191d73b1822f512ebf3f" target="_top" xlink:title=" ">
<polygon fill="white" stroke="#666666" points="624,-130 529,-130 529,-111 624,-111 624,-130"/>
<text text-anchor="middle" x="576.5" y="-118" font-family="Helvetica,sans-Serif" font-size="10.00">func_802AAAAC</text>
</a>
</g>
</g>
<!-- Node3&#45;&gt;Node21 -->
<g id="edge20_Node000003_Node000021" class="edge">
<title>Node3&#45;&gt;Node21</title>
<g id="a_edge20_Node000003_Node000021"><a xlink:title=" ">
<path fill="none" stroke="#63b8ff" d="M445.19,-120.5C465.86,-120.5 493.91,-120.5 518.69,-120.5"/>
<polygon fill="#63b8ff" stroke="#63b8ff" points="518.72,-124 528.72,-120.5 518.72,-117 518.72,-124"/>
</a>
</g>
</g>
<!-- Node23 -->
<g id="Node000023" class="node">
<title>Node23</title>
<g id="a_Node000023"><a xlink:href="math__util_8c.html#af7b470ed76fce07b8042a47c96e5690b" target="_top" xlink:title=" ">
<polygon fill="white" stroke="#666666" points="630,-93 523,-93 523,-74 630,-74 630,-93"/>
<text text-anchor="middle" x="576.5" y="-81" font-family="Helvetica,sans-Serif" font-size="10.00">vec3f_copy_return</text>
</a>
</g>
</g>
<!-- Node3&#45;&gt;Node23 -->
<g id="edge22_Node000003_Node000023" class="edge">
<title>Node3&#45;&gt;Node23</title>
<g id="a_edge22_Node000003_Node000023"><a xlink:title=" ">
<path fill="none" stroke="#63b8ff" d="M445.19,-113.54C467.49,-108.4 498.39,-101.28 524.5,-95.26"/>
<polygon fill="#63b8ff" stroke="#63b8ff" points="525.28,-98.67 534.24,-93.01 523.71,-91.85 525.28,-98.67"/>
</a>
</g>
</g>
<!-- Node24 -->
<g id="Node000024" class="node">
<title>Node24</title>
<g id="a_Node000024"><a xlink:href="math__util_8c.html#a0e270ee67600c8c9c2f140c647d008a1" target="_top" xlink:title=" ">
<polygon fill="white" stroke="#666666" points="613.5,-56 539.5,-56 539.5,-37 613.5,-37 613.5,-56"/>
<text text-anchor="middle" x="576.5" y="-44" font-family="Helvetica,sans-Serif" font-size="10.00">vec3s_copy</text>
</a>
</g>
</g>
<!-- Node3&#45;&gt;Node24 -->
<g id="edge23_Node000003_Node000024" class="edge">
<title>Node3&#45;&gt;Node24</title>
<g id="a_edge23_Node000003_Node000024"><a xlink:title=" ">
<path fill="none" stroke="#63b8ff" d="M445.28,-112.85C453.65,-110 462.5,-106.27 470,-101.5 489.37,-89.2 486.16,-76.02 506,-64.5 513.2,-60.32 521.38,-57.09 529.53,-54.61"/>
<polygon fill="#63b8ff" stroke="#63b8ff" points="530.67,-57.93 539.4,-51.93 528.83,-51.17 530.67,-57.93"/>
</a>
</g>
</g>
<!-- Node5 -->
<g id="Node000005" class="node">
<title>Node5</title>
<g id="a_Node000005"><a xlink:href="collision_8c.html#ac312bf382cb40752f6b790a99e7cdcb6" target="_top" xlink:title=" ">
<polygon fill="white" stroke="#666666" points="810,-327 702,-327 702,-308 810,-308 810,-327"/>
<text text-anchor="middle" x="756" y="-315" font-family="Helvetica,sans-Serif" font-size="10.00">check_collision_yx</text>
</a>
</g>
</g>
<!-- Node4&#45;&gt;Node5 -->
<g id="edge4_Node000004_Node000005" class="edge">
<title>Node4&#45;&gt;Node5</title>
<g id="a_edge4_Node000004_Node000005"><a xlink:title=" ">
<path fill="none" stroke="#63b8ff" d="M602.87,-272.14C624.1,-280.03 655.3,-291.2 683,-299.5 689.87,-301.56 697.16,-303.57 704.36,-305.47"/>
<polygon fill="#63b8ff" stroke="#63b8ff" points="703.52,-308.87 714.08,-307.97 705.26,-302.09 703.52,-308.87"/>
</a>
</g>
</g>
<!-- Node6 -->
<g id="Node000006" class="node">
<title>Node6</title>
<g id="a_Node000006"><a xlink:href="collision_8c.html#a4b48832a90e984536a0635a016ec4f28" target="_top" xlink:title=" ">
<polygon fill="white" stroke="#666666" points="809.5,-290 702.5,-290 702.5,-271 809.5,-271 809.5,-290"/>
<text text-anchor="middle" x="756" y="-278" font-family="Helvetica,sans-Serif" font-size="10.00">check_collision_zx</text>
</a>
</g>
</g>
<!-- Node4&#45;&gt;Node6 -->
<g id="edge5_Node000004_Node000006" class="edge">
<title>Node4&#45;&gt;Node6</title>
<g id="a_edge5_Node000004_Node000006"><a xlink:title=" ">
<path fill="none" stroke="#63b8ff" d="M647.14,-269.56C661.91,-271.06 677.43,-272.63 691.94,-274.1"/>
<polygon fill="#63b8ff" stroke="#63b8ff" points="692,-277.63 702.3,-275.16 692.7,-270.66 692,-277.63"/>
</a>
</g>
</g>
<!-- Node7 -->
<g id="Node000007" class="node">
<title>Node7</title>
<g id="a_Node000007"><a xlink:href="collision_8c.html#a21fef964ab48191a1c0341954ef27a40" target="_top" xlink:title=" ">
<polygon fill="white" stroke="#666666" points="809.5,-253 702.5,-253 702.5,-234 809.5,-234 809.5,-253"/>
<text text-anchor="middle" x="756" y="-241" font-family="Helvetica,sans-Serif" font-size="10.00">check_collision_zy</text>
</a>
</g>
</g>
<!-- Node4&#45;&gt;Node7 -->
<g id="edge6_Node000004_Node000007" class="edge">
<title>Node4&#45;&gt;Node7</title>
<g id="a_edge6_Node000004_Node000007"><a xlink:title=" ">
<path fill="none" stroke="#63b8ff" d="M647.14,-255.05C661.91,-253.46 677.43,-251.8 691.94,-250.25"/>
<polygon fill="#63b8ff" stroke="#63b8ff" points="692.73,-253.69 702.3,-249.14 691.98,-246.73 692.73,-253.69"/>
</a>
</g>
</g>
<!-- Node9 -->
<g id="Node000009" class="node">
<title>Node9</title>
<g id="a_Node000009"><a xlink:href="Game_8cpp.html#a693de7d8b89fe291aafea86bc64a0a2e" target="_top" xlink:title=" ">
<polygon fill="white" stroke="#666666" points="796,-216 716,-216 716,-197 796,-197 796,-216"/>
<text text-anchor="middle" x="756" y="-204" font-family="Helvetica,sans-Serif" font-size="10.00">CM_GetActor</text>
</a>
</g>
</g>
<!-- Node8&#45;&gt;Node9 -->
<g id="edge8_Node000008_Node000009" class="edge">
<title>Node8&#45;&gt;Node9</title>
<g id="a_edge8_Node000008_Node000009"><a xlink:title=" ">
<path fill="none" stroke="#63b8ff" d="M639.58,-178.54C661.4,-183.83 685.6,-189.69 706.17,-194.67"/>
<polygon fill="#63b8ff" stroke="#63b8ff" points="705.41,-198.09 715.96,-197.04 707.06,-191.29 705.41,-198.09"/>
</a>
</g>
</g>
<!-- Node10 -->
<g id="Node000010" class="node">
<title>Node10</title>
<g id="a_Node000010"><a xlink:href="code__80005FD0_8c.html#ad301b978cdd3c4cc190b10be050d51d8" target="_top" xlink:title=" ">
<polygon fill="white" stroke="#666666" points="829,-178.5 683,-178.5 683,-148.5 829,-148.5 829,-178.5"/>
<text text-anchor="start" x="691" y="-166.5" font-family="Helvetica,sans-Serif" font-size="10.00">delete_actor_in_unexpired</text>
<text text-anchor="middle" x="756" y="-155.5" font-family="Helvetica,sans-Serif" font-size="10.00">_actor_list</text>
</a>
</g>
</g>
<!-- Node8&#45;&gt;Node10 -->
<g id="edge9_Node000008_Node000010" class="edge">
<title>Node8&#45;&gt;Node10</title>
<g id="a_edge9_Node000008_Node000010"><a xlink:title=" ">
<path fill="none" stroke="#63b8ff" d="M642.59,-163.5C652.38,-163.5 662.59,-163.5 672.69,-163.5"/>
<polygon fill="#63b8ff" stroke="#63b8ff" points="672.73,-167 682.73,-163.5 672.73,-160 672.73,-167"/>
</a>
</g>
</g>
<!-- Node11 -->
<g id="Node000011" class="node">
<title>Node11</title>
<g id="a_Node000011"><a xlink:href="actors_8c.html#a694ec6ef7548b8618aeb35c038d3a9b9" target="_top" xlink:title=" ">
<polygon fill="white" stroke="#666666" points="797.5,-130 714.5,-130 714.5,-111 797.5,-111 797.5,-130"/>
<text text-anchor="middle" x="756" y="-118" font-family="Helvetica,sans-Serif" font-size="10.00">destroy_actor</text>
</a>
</g>
</g>
<!-- Node8&#45;&gt;Node11 -->
<g id="edge10_Node000008_Node000011" class="edge">
<title>Node8&#45;&gt;Node11</title>
<g id="a_edge10_Node000008_Node000011"><a xlink:title=" ">
<path fill="none" stroke="#63b8ff" d="M639.58,-148.46C661.32,-143.2 685.41,-137.36 705.93,-132.39"/>
<polygon fill="#63b8ff" stroke="#63b8ff" points="706.8,-135.78 715.69,-130.02 705.15,-128.98 706.8,-135.78"/>
</a>
</g>
</g>
<!-- Node12 -->
<g id="Node000012" class="node">
<title>Node12</title>
<g id="a_Node000012"><a xlink:href="actors_8c.html#a12dc3ccac4c7d8569eadac0af4fd6f9f" target="_top" xlink:title=" ">
<polygon fill="white" stroke="#666666" points="1023,-130 865,-130 865,-111 1023,-111 1023,-130"/>
<text text-anchor="middle" x="944" y="-118" font-family="Helvetica,sans-Serif" font-size="10.00">play_sound_before_despawn</text>
</a>
</g>
</g>
<!-- Node11&#45;&gt;Node12 -->
<g id="edge11_Node000011_Node000012" class="edge">
<title>Node11&#45;&gt;Node12</title>
<g id="a_edge11_Node000011_Node000012"><a xlink:title=" ">
<path fill="none" stroke="#63b8ff" d="M797.82,-120.5C814.65,-120.5 834.86,-120.5 854.77,-120.5"/>
<polygon fill="#63b8ff" stroke="#63b8ff" points="854.82,-124 864.82,-120.5 854.82,-117 854.82,-124"/>
</a>
</g>
</g>
<!-- Node13 -->
<g id="Node000013" class="node">
<title>Node13</title>
<g id="a_Node000013"><a xlink:href="external_8c.html#ae72057869772019e4464c87d4e16c682" target="_top" xlink:title=" ">
<polygon fill="white" stroke="#666666" points="1151,-130 1059,-130 1059,-111 1151,-111 1151,-130"/>
<text text-anchor="middle" x="1105" y="-118" font-family="Helvetica,sans-Serif" font-size="10.00">func_800C99E0</text>
</a>
</g>
</g>
<!-- Node12&#45;&gt;Node13 -->
<g id="edge12_Node000012_Node000013" class="edge">
<title>Node12&#45;&gt;Node13</title>
<g id="a_edge12_Node000012_Node000013"><a xlink:title=" ">
<path fill="none" stroke="#63b8ff" d="M1023.1,-120.5C1031.72,-120.5 1040.35,-120.5 1048.61,-120.5"/>
<polygon fill="#63b8ff" stroke="#63b8ff" points="1048.83,-124 1058.83,-120.5 1048.83,-117 1048.83,-124"/>
</a>
</g>
</g>
<!-- Node14 -->
<g id="Node000014" class="node">
<title>Node14</title>
<g id="a_Node000014"><a xlink:href="external_8c.html#aeb87c527482a244173df36a1f3d4f446" target="_top" xlink:title=" ">
<polygon fill="white" stroke="#666666" points="1279,-149 1187,-149 1187,-130 1279,-130 1279,-149"/>
<text text-anchor="middle" x="1233" y="-137" font-family="Helvetica,sans-Serif" font-size="10.00">func_800C21E8</text>
</a>
</g>
</g>
<!-- Node13&#45;&gt;Node14 -->
<g id="edge13_Node000013_Node000014" class="edge">
<title>Node13&#45;&gt;Node14</title>
<g id="a_edge13_Node000013_Node000014"><a xlink:title=" ">
<path fill="none" stroke="#63b8ff" d="M1151.13,-127.31C1159.46,-128.56 1168.23,-129.88 1176.81,-131.18"/>
<polygon fill="#63b8ff" stroke="#63b8ff" points="1176.35,-134.65 1186.76,-132.68 1177.39,-127.73 1176.35,-134.65"/>
</a>
</g>
</g>
<!-- Node15 -->
<g id="Node000015" class="node">
<title>Node15</title>
<g id="a_Node000015"><a xlink:href="external_8c.html#a028d40421b90c38f68ebfd5acc626f2e" target="_top" xlink:title=" ">
<polygon fill="white" stroke="#666666" points="1279,-112 1187,-112 1187,-93 1279,-93 1279,-112"/>
<text text-anchor="middle" x="1233" y="-100" font-family="Helvetica,sans-Serif" font-size="10.00">func_800C5578</text>
</a>
</g>
</g>
<!-- Node13&#45;&gt;Node15 -->
<g id="edge14_Node000013_Node000015" class="edge">
<title>Node13&#45;&gt;Node15</title>
<g id="a_edge14_Node000013_Node000015"><a xlink:title=" ">
<path fill="none" stroke="#63b8ff" d="M1151.13,-114.05C1159.46,-112.86 1168.23,-111.61 1176.81,-110.38"/>
<polygon fill="#63b8ff" stroke="#63b8ff" points="1177.35,-113.84 1186.76,-108.96 1176.36,-106.91 1177.35,-113.84"/>
</a>
</g>
</g>
<!-- Node16 -->
<g id="Node000016" class="node">
<title>Node16</title>
<g id="a_Node000016"><a xlink:href="external_8c.html#ac0fb767de7e14a03f1bcfa53f0abd23b" target="_top" xlink:title=" ">
<polygon fill="white" stroke="#666666" points="1455,-149 1315,-149 1315,-130 1455,-130 1455,-149"/>
<text text-anchor="middle" x="1385" y="-137" font-family="Helvetica,sans-Serif" font-size="10.00">delete_sound_from_bank</text>
</a>
</g>
</g>
<!-- Node15&#45;&gt;Node16 -->
<g id="edge15_Node000015_Node000016" class="edge">
<title>Node15&#45;&gt;Node16</title>
<g id="a_edge15_Node000015_Node000016"><a xlink:title=" ">
<path fill="none" stroke="#63b8ff" d="M1272.63,-112.03C1291.8,-116.76 1315.16,-122.52 1335.52,-127.54"/>
<polygon fill="#63b8ff" stroke="#63b8ff" points="1334.69,-130.94 1345.24,-129.94 1336.37,-124.15 1334.69,-130.94"/>
</a>
</g>
</g>
<!-- Node18 -->
<g id="Node000018" class="node">
<title>Node18</title>
<g id="a_Node000018"><a xlink:href="external_8c.html#ab83bd36e63f0f1baddcb2482b5ad31b0" target="_top" xlink:title=" ">
<polygon fill="white" stroke="#666666" points="1431.5,-112 1338.5,-112 1338.5,-93 1431.5,-93 1431.5,-112"/>
<text text-anchor="middle" x="1385" y="-100" font-family="Helvetica,sans-Serif" font-size="10.00">func_800C41CC</text>
</a>
</g>
</g>
<!-- Node15&#45;&gt;Node18 -->
<g id="edge17_Node000015_Node000018" class="edge">
<title>Node15&#45;&gt;Node18</title>
<g id="a_edge17_Node000015_Node000018"><a xlink:title=" ">
<path fill="none" stroke="#63b8ff" d="M1279,-102.5C1294.37,-102.5 1311.74,-102.5 1327.86,-102.5"/>
<polygon fill="#63b8ff" stroke="#63b8ff" points="1328.25,-106 1338.25,-102.5 1328.25,-99 1328.25,-106"/>
</a>
</g>
</g>
<!-- Node19 -->
<g id="Node000019" class="node">
<title>Node19</title>
<g id="a_Node000019"><a xlink:href="port__eu_8c.html#aa89dfaecca46c6d071f08c1898d1f7c9" target="_top" xlink:title=" ">
<polygon fill="white" stroke="#666666" points="1431.5,-75 1338.5,-75 1338.5,-56 1431.5,-56 1431.5,-75"/>
<text text-anchor="middle" x="1385" y="-63" font-family="Helvetica,sans-Serif" font-size="10.00">func_800CBBE8</text>
</a>
</g>
</g>
<!-- Node15&#45;&gt;Node19 -->
<g id="edge18_Node000015_Node000019" class="edge">
<title>Node15&#45;&gt;Node19</title>
<g id="a_edge18_Node000015_Node000019"><a xlink:title=" ">
<path fill="none" stroke="#63b8ff" d="M1272.63,-92.97C1291.8,-88.24 1315.16,-82.48 1335.52,-77.46"/>
<polygon fill="#63b8ff" stroke="#63b8ff" points="1336.37,-80.85 1345.24,-75.06 1334.69,-74.06 1336.37,-80.85"/>
</a>
</g>
</g>
<!-- Node17 -->
<g id="Node000017" class="node">
<title>Node17</title>
<g id="a_Node000017"><a xlink:href="external_8c.html#a358ac55e8ab5262dcae8037334be06d7" target="_top" xlink:title=" ">
<polygon fill="white" stroke="#666666" points="1583.5,-149 1491.5,-149 1491.5,-130 1583.5,-130 1583.5,-149"/>
<text text-anchor="middle" x="1537.5" y="-137" font-family="Helvetica,sans-Serif" font-size="10.00">func_800C40F0</text>
</a>
</g>
</g>
<!-- Node16&#45;&gt;Node17 -->
<g id="edge16_Node000016_Node000017" class="edge">
<title>Node16&#45;&gt;Node17</title>
<g id="a_edge16_Node000016_Node000017"><a xlink:title=" ">
<path fill="none" stroke="#63b8ff" d="M1455.08,-139.5C1463.87,-139.5 1472.78,-139.5 1481.31,-139.5"/>
<polygon fill="#63b8ff" stroke="#63b8ff" points="1481.5,-143 1491.5,-139.5 1481.5,-136 1481.5,-143"/>
</a>
</g>
</g>
<!-- Node20 -->
<g id="Node000020" class="node">
<title>Node20</title>
<g id="a_Node000020"><a xlink:href="port__eu_8c.html#af361a20d2e08f30c53a237ca481ff734" target="_top" xlink:title=" ">
<polygon fill="white" stroke="#666666" points="1584,-75 1491,-75 1491,-56 1584,-56 1584,-75"/>
<text text-anchor="middle" x="1537.5" y="-63" font-family="Helvetica,sans-Serif" font-size="10.00">func_800CBB48</text>
</a>
</g>
</g>
<!-- Node19&#45;&gt;Node20 -->
<g id="edge19_Node000019_Node000020" class="edge">
<title>Node19&#45;&gt;Node20</title>
<g id="a_edge19_Node000019_Node000020"><a xlink:title=" ">
<path fill="none" stroke="#63b8ff" d="M1431.56,-65.5C1446.96,-65.5 1464.34,-65.5 1480.46,-65.5"/>
<polygon fill="#63b8ff" stroke="#63b8ff" points="1480.83,-69 1490.83,-65.5 1480.83,-62 1480.83,-69"/>
</a>
</g>
</g>
<!-- Node22 -->
<g id="Node000022" class="node">
<title>Node22</title>
<g id="a_Node000022"><a xlink:href="math__util_8c.html#a79fd07a0971ec96a3ff0801963a2fa7f" target="_top" xlink:title=" ">
<polygon fill="white" stroke="#666666" points="788,-93 724,-93 724,-74 788,-74 788,-93"/>
<text text-anchor="middle" x="756" y="-81" font-family="Helvetica,sans-Serif" font-size="10.00">vec3f_set</text>
</a>
</g>
</g>
<!-- Node21&#45;&gt;Node22 -->
<g id="edge21_Node000021_Node000022" class="edge">
<title>Node21&#45;&gt;Node22</title>
<g id="a_edge21_Node000021_Node000022"><a xlink:title=" ">
<path fill="none" stroke="#63b8ff" d="M623.21,-110.97C651.26,-105.12 686.89,-97.7 714.02,-92.04"/>
<polygon fill="#63b8ff" stroke="#63b8ff" points="714.9,-95.43 723.97,-89.97 713.47,-88.58 714.9,-95.43"/>
</a>
</g>
</g>
</g>
</svg>
