<?xml version="1.0" encoding="UTF-8" standalone="no"?>
<!DOCTYPE svg PUBLIC "-//W3C//DTD SVG 1.1//EN"
 "http://www.w3.org/Graphics/SVG/1.1/DTD/svg11.dtd">
<!-- Generated by graphviz version 2.43.0 (0)
 -->
<!-- Title: init_kiwano_fruit Pages: 1 -->
<svg width="1544pt" height="280pt"
 viewBox="0.00 0.00 1544.00 280.00" xmlns="http://www.w3.org/2000/svg" xmlns:xlink="http://www.w3.org/1999/xlink">
<g id="graph0" class="graph" transform="scale(1 1) rotate(0) translate(4 276)">
<title>init_kiwano_fruit</title>
<!-- Node1 -->
<g id="Node000001" class="node">
<title>Node1</title>
<g id="a_Node000001"><a xlink:title=" ">
<polygon fill="#999999" stroke="#666666" points="98,-159 0,-159 0,-140 98,-140 98,-159"/>
<text text-anchor="middle" x="49" y="-147" font-family="Helvetica,sans-Serif" font-size="10.00">init_kiwano_fruit</text>
</a>
</g>
</g>
<!-- Node2 -->
<g id="Node000002" class="node">
<title>Node2</title>
<g id="a_Node000002"><a xlink:href="actors_8c.html#a91fb2e4e37e7c72fea918fe2c1bb4eaf" target="_top" xlink:title=" ">
<polygon fill="white" stroke="#666666" points="274,-122 134,-122 134,-103 274,-103 274,-122"/>
<text text-anchor="middle" x="204" y="-110" font-family="Helvetica,sans-Serif" font-size="10.00">add_actor_to_empty_slot</text>
</a>
</g>
</g>
<!-- Node1&#45;&gt;Node2 -->
<g id="edge1_Node000001_Node000002" class="edge">
<title>Node1&#45;&gt;Node2</title>
<g id="a_edge1_Node000001_Node000002"><a xlink:title=" ">
<path fill="none" stroke="#63b8ff" d="M89.4,-139.97C108.96,-135.24 132.78,-129.48 153.55,-124.46"/>
<polygon fill="#63b8ff" stroke="#63b8ff" points="154.57,-127.81 163.47,-122.06 152.92,-121.01 154.57,-127.81"/>
</a>
</g>
</g>
<!-- Node9 -->
<g id="Node000009" class="node">
<title>Node9</title>
<g id="a_Node000009"><a xlink:href="Game_8cpp.html#a693de7d8b89fe291aafea86bc64a0a2e" target="_top" xlink:title=" ">
<polygon fill="white" stroke="#666666" points="748,-161 668,-161 668,-142 748,-142 748,-161"/>
<text text-anchor="middle" x="708" y="-149" font-family="Helvetica,sans-Serif" font-size="10.00">CM_GetActor</text>
</a>
</g>
</g>
<!-- Node1&#45;&gt;Node9 -->
<g id="edge27_Node000001_Node000009" class="edge">
<title>Node1&#45;&gt;Node9</title>
<g id="a_edge27_Node000001_Node000009"><a xlink:title=" ">
<path fill="none" stroke="#63b8ff" d="M98.18,-154.8C193.81,-164.53 414.31,-182.95 599,-168.5 618.4,-166.98 639.58,-163.95 658.01,-160.87"/>
<polygon fill="#63b8ff" stroke="#63b8ff" points="658.67,-164.31 667.93,-159.16 657.48,-157.41 658.67,-164.31"/>
</a>
</g>
</g>
<!-- Node3 -->
<g id="Node000003" class="node">
<title>Node3</title>
<g id="a_Node000003"><a xlink:href="actors_8c.html#a39c023177b5a7686cdd1fc65b8b953e1" target="_top" xlink:title=" ">
<polygon fill="white" stroke="#666666" points="397,-85 335,-85 335,-66 397,-66 397,-85"/>
<text text-anchor="middle" x="366" y="-73" font-family="Helvetica,sans-Serif" font-size="10.00">actor_init</text>
</a>
</g>
</g>
<!-- Node2&#45;&gt;Node3 -->
<g id="edge2_Node000002_Node000003" class="edge">
<title>Node2&#45;&gt;Node3</title>
<g id="a_edge2_Node000002_Node000003"><a xlink:title=" ">
<path fill="none" stroke="#63b8ff" d="M246.2,-102.97C270.43,-97.37 300.91,-90.32 324.94,-84.76"/>
<polygon fill="#63b8ff" stroke="#63b8ff" points="325.85,-88.15 334.8,-82.48 324.27,-81.33 325.85,-88.15"/>
</a>
</g>
</g>
<!-- Node25 -->
<g id="Node000025" class="node">
<title>Node25</title>
<g id="a_Node000025"><a xlink:href="Game_8cpp.html#acea5cfd9ab22f745bd6627869b95a62e" target="_top" xlink:title=" ">
<polygon fill="white" stroke="#666666" points="422,-48 310,-48 310,-29 422,-29 422,-48"/>
<text text-anchor="middle" x="366" y="-36" font-family="Helvetica,sans-Serif" font-size="10.00">CM_ActorBeginPlay</text>
</a>
</g>
</g>
<!-- Node2&#45;&gt;Node25 -->
<g id="edge24_Node000002_Node000025" class="edge">
<title>Node2&#45;&gt;Node25</title>
<g id="a_edge24_Node000002_Node000025"><a xlink:title=" ">
<path fill="none" stroke="#63b8ff" d="M220.94,-102.87C241.15,-90.93 277.31,-70.44 310,-56.5 314.17,-54.72 318.57,-53.01 323,-51.4"/>
<polygon fill="#63b8ff" stroke="#63b8ff" points="324.36,-54.64 332.66,-48.05 322.07,-48.02 324.36,-54.64"/>
</a>
</g>
</g>
<!-- Node26 -->
<g id="Node000026" class="node">
<title>Node26</title>
<g id="a_Node000026"><a xlink:href="Game_8cpp.html#a42f23077aaa52cb3ea5c7803b7dd6816" target="_top" xlink:title=" ">
<polygon fill="white" stroke="#666666" points="419,-159 313,-159 313,-140 419,-140 419,-159"/>
<text text-anchor="middle" x="366" y="-147" font-family="Helvetica,sans-Serif" font-size="10.00">CM_AddBaseActor</text>
</a>
</g>
</g>
<!-- Node2&#45;&gt;Node26 -->
<g id="edge25_Node000002_Node000026" class="edge">
<title>Node2&#45;&gt;Node26</title>
<g id="a_edge25_Node000002_Node000026"><a xlink:title=" ">
<path fill="none" stroke="#63b8ff" d="M246.2,-122.03C266.84,-126.8 292.02,-132.62 313.88,-137.68"/>
<polygon fill="#63b8ff" stroke="#63b8ff" points="313.13,-141.1 323.66,-139.94 314.7,-134.28 313.13,-141.1"/>
</a>
</g>
</g>
<!-- Node27 -->
<g id="Node000027" class="node">
<title>Node27</title>
<g id="a_Node000027"><a xlink:href="Game_8cpp.html#a0841ffe9a66e95aca42438b9d8ffc3d3" target="_top" xlink:title=" ">
<polygon fill="white" stroke="#666666" points="416.5,-122 315.5,-122 315.5,-103 416.5,-103 416.5,-122"/>
<text text-anchor="middle" x="366" y="-110" font-family="Helvetica,sans-Serif" font-size="10.00">CM_GetActorSize</text>
</a>
</g>
</g>
<!-- Node2&#45;&gt;Node27 -->
<g id="edge26_Node000002_Node000027" class="edge">
<title>Node2&#45;&gt;Node27</title>
<g id="a_edge26_Node000002_Node000027"><a xlink:title=" ">
<path fill="none" stroke="#63b8ff" d="M274.25,-112.5C284.53,-112.5 295.05,-112.5 305.12,-112.5"/>
<polygon fill="#63b8ff" stroke="#63b8ff" points="305.41,-116 315.41,-112.5 305.41,-109 305.41,-116"/>
</a>
</g>
</g>
<!-- Node4 -->
<g id="Node000004" class="node">
<title>Node4</title>
<g id="a_Node000004"><a xlink:href="collision_8c.html#a37aa55b3768d001533ad75e7f1b8388a" target="_top" xlink:title=" ">
<polygon fill="white" stroke="#666666" points="599,-235 458,-235 458,-216 599,-216 599,-235"/>
<text text-anchor="middle" x="528.5" y="-223" font-family="Helvetica,sans-Serif" font-size="10.00">check_bounding_collision</text>
</a>
</g>
</g>
<!-- Node3&#45;&gt;Node4 -->
<g id="edge3_Node000003_Node000004" class="edge">
<title>Node3&#45;&gt;Node4</title>
<g id="a_edge3_Node000003_Node000004"><a xlink:title=" ">
<path fill="none" stroke="#63b8ff" d="M397.23,-81.31C405.99,-84.15 415.05,-88.33 422,-94.5 449.37,-118.76 435.34,-139.79 458,-168.5 470.89,-184.83 489.21,-199.61 503.8,-210.03"/>
<polygon fill="#63b8ff" stroke="#63b8ff" points="502.11,-213.11 512.32,-215.92 506.09,-207.36 502.11,-213.11"/>
</a>
</g>
</g>
<!-- Node8 -->
<g id="Node000008" class="node">
<title>Node8</title>
<g id="a_Node000008"><a xlink:href="actors_8c.html#a1a9bccb586242555a9123ebd4ab70f2a" target="_top" xlink:title=" ">
<polygon fill="white" stroke="#666666" points="594.5,-84.5 462.5,-84.5 462.5,-54.5 594.5,-54.5 594.5,-84.5"/>
<text text-anchor="start" x="470.5" y="-72.5" font-family="Helvetica,sans-Serif" font-size="10.00">cleanup_red_and_green</text>
<text text-anchor="middle" x="528.5" y="-61.5" font-family="Helvetica,sans-Serif" font-size="10.00">_shells</text>
</a>
</g>
</g>
<!-- Node3&#45;&gt;Node8 -->
<g id="edge7_Node000003_Node000008" class="edge">
<title>Node3&#45;&gt;Node8</title>
<g id="a_edge7_Node000003_Node000008"><a xlink:title=" ">
<path fill="none" stroke="#63b8ff" d="M397.19,-74.37C412.81,-73.79 432.64,-73.05 452.09,-72.32"/>
<polygon fill="#63b8ff" stroke="#63b8ff" points="452.35,-75.81 462.21,-71.94 452.08,-68.82 452.35,-75.81"/>
</a>
</g>
</g>
<!-- Node21 -->
<g id="Node000021" class="node">
<title>Node21</title>
<g id="a_Node000021"><a xlink:href="collision_8c.html#ad72fef3ffe32191d73b1822f512ebf3f" target="_top" xlink:title=" ">
<polygon fill="white" stroke="#666666" points="576,-36 481,-36 481,-17 576,-17 576,-36"/>
<text text-anchor="middle" x="528.5" y="-24" font-family="Helvetica,sans-Serif" font-size="10.00">func_802AAAAC</text>
</a>
</g>
</g>
<!-- Node3&#45;&gt;Node21 -->
<g id="edge20_Node000003_Node000021" class="edge">
<title>Node3&#45;&gt;Node21</title>
<g id="a_edge20_Node000003_Node000021"><a xlink:title=" ">
<path fill="none" stroke="#63b8ff" d="M394.76,-65.94C412.72,-59.85 436.66,-51.93 458,-45.5 465.58,-43.22 473.66,-40.9 481.53,-38.71"/>
<polygon fill="#63b8ff" stroke="#63b8ff" points="482.62,-42.04 491.33,-36.01 480.76,-35.29 482.62,-42.04"/>
</a>
</g>
</g>
<!-- Node23 -->
<g id="Node000023" class="node">
<title>Node23</title>
<g id="a_Node000023"><a xlink:href="math__util_8c.html#af7b470ed76fce07b8042a47c96e5690b" target="_top" xlink:title=" ">
<polygon fill="white" stroke="#666666" points="582,-159 475,-159 475,-140 582,-140 582,-159"/>
<text text-anchor="middle" x="528.5" y="-147" font-family="Helvetica,sans-Serif" font-size="10.00">vec3f_copy_return</text>
</a>
</g>
</g>
<!-- Node3&#45;&gt;Node23 -->
<g id="edge22_Node000003_Node000023" class="edge">
<title>Node3&#45;&gt;Node23</title>
<g id="a_edge22_Node000003_Node000023"><a xlink:title=" ">
<path fill="none" stroke="#63b8ff" d="M397.28,-83.15C405.65,-86 414.5,-89.73 422,-94.5 441.37,-106.8 438.16,-119.98 458,-131.5 461,-133.24 464.17,-134.82 467.44,-136.25"/>
<polygon fill="#63b8ff" stroke="#63b8ff" points="466.25,-139.54 476.84,-139.88 468.78,-133.01 466.25,-139.54"/>
</a>
</g>
</g>
<!-- Node24 -->
<g id="Node000024" class="node">
<title>Node24</title>
<g id="a_Node000024"><a xlink:href="math__util_8c.html#a0e270ee67600c8c9c2f140c647d008a1" target="_top" xlink:title=" ">
<polygon fill="white" stroke="#666666" points="565.5,-122 491.5,-122 491.5,-103 565.5,-103 565.5,-122"/>
<text text-anchor="middle" x="528.5" y="-110" font-family="Helvetica,sans-Serif" font-size="10.00">vec3s_copy</text>
</a>
</g>
</g>
<!-- Node3&#45;&gt;Node24 -->
<g id="edge23_Node000003_Node000024" class="edge">
<title>Node3&#45;&gt;Node24</title>
<g id="a_edge23_Node000003_Node000024"><a xlink:title=" ">
<path fill="none" stroke="#63b8ff" d="M397.19,-82.46C420.86,-87.92 454.21,-95.6 481.25,-101.84"/>
<polygon fill="#63b8ff" stroke="#63b8ff" points="480.73,-105.31 491.26,-104.15 482.31,-98.49 480.73,-105.31"/>
</a>
</g>
</g>
<!-- Node5 -->
<g id="Node000005" class="node">
<title>Node5</title>
<g id="a_Node000005"><a xlink:href="collision_8c.html#ac312bf382cb40752f6b790a99e7cdcb6" target="_top" xlink:title=" ">
<polygon fill="white" stroke="#666666" points="762,-198 654,-198 654,-179 762,-179 762,-198"/>
<text text-anchor="middle" x="708" y="-186" font-family="Helvetica,sans-Serif" font-size="10.00">check_collision_yx</text>
</a>
</g>
</g>
<!-- Node4&#45;&gt;Node5 -->
<g id="edge4_Node000004_Node000005" class="edge">
<title>Node4&#45;&gt;Node5</title>
<g id="a_edge4_Node000004_Node000005"><a xlink:title=" ">
<path fill="none" stroke="#63b8ff" d="M575.21,-215.97C598.41,-211.14 626.79,-205.22 651.27,-200.12"/>
<polygon fill="#63b8ff" stroke="#63b8ff" points="652.06,-203.53 661.14,-198.06 650.63,-196.67 652.06,-203.53"/>
</a>
</g>
</g>
<!-- Node6 -->
<g id="Node000006" class="node">
<title>Node6</title>
<g id="a_Node000006"><a xlink:href="collision_8c.html#a4b48832a90e984536a0635a016ec4f28" target="_top" xlink:title=" ">
<polygon fill="white" stroke="#666666" points="761.5,-272 654.5,-272 654.5,-253 761.5,-253 761.5,-272"/>
<text text-anchor="middle" x="708" y="-260" font-family="Helvetica,sans-Serif" font-size="10.00">check_collision_zx</text>
</a>
</g>
</g>
<!-- Node4&#45;&gt;Node6 -->
<g id="edge5_Node000004_Node000006" class="edge">
<title>Node4&#45;&gt;Node6</title>
<g id="a_edge5_Node000004_Node000006"><a xlink:title=" ">
<path fill="none" stroke="#63b8ff" d="M575.21,-235.03C598.41,-239.86 626.79,-245.78 651.27,-250.88"/>
<polygon fill="#63b8ff" stroke="#63b8ff" points="650.63,-254.33 661.14,-252.94 652.06,-247.47 650.63,-254.33"/>
</a>
</g>
</g>
<!-- Node7 -->
<g id="Node000007" class="node">
<title>Node7</title>
<g id="a_Node000007"><a xlink:href="collision_8c.html#a21fef964ab48191a1c0341954ef27a40" target="_top" xlink:title=" ">
<polygon fill="white" stroke="#666666" points="761.5,-235 654.5,-235 654.5,-216 761.5,-216 761.5,-235"/>
<text text-anchor="middle" x="708" y="-223" font-family="Helvetica,sans-Serif" font-size="10.00">check_collision_zy</text>
</a>
</g>
</g>
<!-- Node4&#45;&gt;Node7 -->
<g id="edge6_Node000004_Node000007" class="edge">
<title>Node4&#45;&gt;Node7</title>
<g id="a_edge6_Node000004_Node000007"><a xlink:title=" ">
<path fill="none" stroke="#63b8ff" d="M599.14,-225.5C613.91,-225.5 629.43,-225.5 643.94,-225.5"/>
<polygon fill="#63b8ff" stroke="#63b8ff" points="644.3,-229 654.3,-225.5 644.3,-222 644.3,-229"/>
</a>
</g>
</g>
<!-- Node8&#45;&gt;Node9 -->
<g id="edge8_Node000008_Node000009" class="edge">
<title>Node8&#45;&gt;Node9</title>
<g id="a_edge8_Node000008_Node000009"><a xlink:title=" ">
<path fill="none" stroke="#63b8ff" d="M580.15,-84.63C586.72,-87.47 593.18,-90.75 599,-94.5 618.29,-106.92 615.26,-119.8 635,-131.5 642.06,-135.69 650.03,-139.02 658.03,-141.68"/>
<polygon fill="#63b8ff" stroke="#63b8ff" points="657.15,-145.07 667.74,-144.59 659.16,-138.36 657.15,-145.07"/>
</a>
</g>
</g>
<!-- Node10 -->
<g id="Node000010" class="node">
<title>Node10</title>
<g id="a_Node000010"><a xlink:href="code__80005FD0_8c.html#ad301b978cdd3c4cc190b10be050d51d8" target="_top" xlink:title=" ">
<polygon fill="white" stroke="#666666" points="781,-122.5 635,-122.5 635,-92.5 781,-92.5 781,-122.5"/>
<text text-anchor="start" x="643" y="-110.5" font-family="Helvetica,sans-Serif" font-size="10.00">delete_actor_in_unexpired</text>
<text text-anchor="middle" x="708" y="-99.5" font-family="Helvetica,sans-Serif" font-size="10.00">_actor_list</text>
</a>
</g>
</g>
<!-- Node8&#45;&gt;Node10 -->
<g id="edge9_Node000008_Node000010" class="edge">
<title>Node8&#45;&gt;Node10</title>
<g id="a_edge9_Node000008_Node000010"><a xlink:title=" ">
<path fill="none" stroke="#63b8ff" d="M594.59,-83.43C605.12,-85.69 616.13,-88.05 626.96,-90.36"/>
<polygon fill="#63b8ff" stroke="#63b8ff" points="626.33,-93.81 636.84,-92.48 627.8,-86.96 626.33,-93.81"/>
</a>
</g>
</g>
<!-- Node11 -->
<g id="Node000011" class="node">
<title>Node11</title>
<g id="a_Node000011"><a xlink:href="actors_8c.html#a694ec6ef7548b8618aeb35c038d3a9b9" target="_top" xlink:title=" ">
<polygon fill="white" stroke="#666666" points="749.5,-74 666.5,-74 666.5,-55 749.5,-55 749.5,-74"/>
<text text-anchor="middle" x="708" y="-62" font-family="Helvetica,sans-Serif" font-size="10.00">destroy_actor</text>
</a>
</g>
</g>
<!-- Node8&#45;&gt;Node11 -->
<g id="edge10_Node000008_Node000011" class="edge">
<title>Node8&#45;&gt;Node11</title>
<g id="a_edge10_Node000008_Node000011"><a xlink:title=" ">
<path fill="none" stroke="#63b8ff" d="M594.59,-67.67C614.97,-67.09 637.14,-66.47 656.37,-65.93"/>
<polygon fill="#63b8ff" stroke="#63b8ff" points="656.53,-69.42 666.43,-65.64 656.33,-62.43 656.53,-69.42"/>
</a>
</g>
</g>
<!-- Node12 -->
<g id="Node000012" class="node">
<title>Node12</title>
<g id="a_Node000012"><a xlink:href="actors_8c.html#a12dc3ccac4c7d8569eadac0af4fd6f9f" target="_top" xlink:title=" ">
<polygon fill="white" stroke="#666666" points="975,-74 817,-74 817,-55 975,-55 975,-74"/>
<text text-anchor="middle" x="896" y="-62" font-family="Helvetica,sans-Serif" font-size="10.00">play_sound_before_despawn</text>
</a>
</g>
</g>
<!-- Node11&#45;&gt;Node12 -->
<g id="edge11_Node000011_Node000012" class="edge">
<title>Node11&#45;&gt;Node12</title>
<g id="a_edge11_Node000011_Node000012"><a xlink:title=" ">
<path fill="none" stroke="#63b8ff" d="M749.82,-64.5C766.65,-64.5 786.86,-64.5 806.77,-64.5"/>
<polygon fill="#63b8ff" stroke="#63b8ff" points="806.82,-68 816.82,-64.5 806.82,-61 806.82,-68"/>
</a>
</g>
</g>
<!-- Node13 -->
<g id="Node000013" class="node">
<title>Node13</title>
<g id="a_Node000013"><a xlink:href="external_8c.html#ae72057869772019e4464c87d4e16c682" target="_top" xlink:title=" ">
<polygon fill="white" stroke="#666666" points="1103,-74 1011,-74 1011,-55 1103,-55 1103,-74"/>
<text text-anchor="middle" x="1057" y="-62" font-family="Helvetica,sans-Serif" font-size="10.00">func_800C99E0</text>
</a>
</g>
</g>
<!-- Node12&#45;&gt;Node13 -->
<g id="edge12_Node000012_Node000013" class="edge">
<title>Node12&#45;&gt;Node13</title>
<g id="a_edge12_Node000012_Node000013"><a xlink:title=" ">
<path fill="none" stroke="#63b8ff" d="M975.1,-64.5C983.72,-64.5 992.35,-64.5 1000.61,-64.5"/>
<polygon fill="#63b8ff" stroke="#63b8ff" points="1000.83,-68 1010.83,-64.5 1000.83,-61 1000.83,-68"/>
</a>
</g>
</g>
<!-- Node14 -->
<g id="Node000014" class="node">
<title>Node14</title>
<g id="a_Node000014"><a xlink:href="external_8c.html#aeb87c527482a244173df36a1f3d4f446" target="_top" xlink:title=" ">
<polygon fill="white" stroke="#666666" points="1231,-93 1139,-93 1139,-74 1231,-74 1231,-93"/>
<text text-anchor="middle" x="1185" y="-81" font-family="Helvetica,sans-Serif" font-size="10.00">func_800C21E8</text>
</a>
</g>
</g>
<!-- Node13&#45;&gt;Node14 -->
<g id="edge13_Node000013_Node000014" class="edge">
<title>Node13&#45;&gt;Node14</title>
<g id="a_edge13_Node000013_Node000014"><a xlink:title=" ">
<path fill="none" stroke="#63b8ff" d="M1103.13,-71.31C1111.46,-72.56 1120.23,-73.88 1128.81,-75.18"/>
<polygon fill="#63b8ff" stroke="#63b8ff" points="1128.35,-78.65 1138.76,-76.68 1129.39,-71.73 1128.35,-78.65"/>
</a>
</g>
</g>
<!-- Node15 -->
<g id="Node000015" class="node">
<title>Node15</title>
<g id="a_Node000015"><a xlink:href="external_8c.html#a028d40421b90c38f68ebfd5acc626f2e" target="_top" xlink:title=" ">
<polygon fill="white" stroke="#666666" points="1231,-56 1139,-56 1139,-37 1231,-37 1231,-56"/>
<text text-anchor="middle" x="1185" y="-44" font-family="Helvetica,sans-Serif" font-size="10.00">func_800C5578</text>
</a>
</g>
</g>
<!-- Node13&#45;&gt;Node15 -->
<g id="edge14_Node000013_Node000015" class="edge">
<title>Node13&#45;&gt;Node15</title>
<g id="a_edge14_Node000013_Node000015"><a xlink:title=" ">
<path fill="none" stroke="#63b8ff" d="M1103.13,-58.05C1111.46,-56.86 1120.23,-55.61 1128.81,-54.38"/>
<polygon fill="#63b8ff" stroke="#63b8ff" points="1129.35,-57.84 1138.76,-52.96 1128.36,-50.91 1129.35,-57.84"/>
</a>
</g>
</g>
<!-- Node16 -->
<g id="Node000016" class="node">
<title>Node16</title>
<g id="a_Node000016"><a xlink:href="external_8c.html#ac0fb767de7e14a03f1bcfa53f0abd23b" target="_top" xlink:title=" ">
<polygon fill="white" stroke="#666666" points="1407,-93 1267,-93 1267,-74 1407,-74 1407,-93"/>
<text text-anchor="middle" x="1337" y="-81" font-family="Helvetica,sans-Serif" font-size="10.00">delete_sound_from_bank</text>
</a>
</g>
</g>
<!-- Node15&#45;&gt;Node16 -->
<g id="edge15_Node000015_Node000016" class="edge">
<title>Node15&#45;&gt;Node16</title>
<g id="a_edge15_Node000015_Node000016"><a xlink:title=" ">
<path fill="none" stroke="#63b8ff" d="M1224.63,-56.03C1243.8,-60.76 1267.16,-66.52 1287.52,-71.54"/>
<polygon fill="#63b8ff" stroke="#63b8ff" points="1286.69,-74.94 1297.24,-73.94 1288.37,-68.15 1286.69,-74.94"/>
</a>
</g>
</g>
<!-- Node18 -->
<g id="Node000018" class="node">
<title>Node18</title>
<g id="a_Node000018"><a xlink:href="external_8c.html#ab83bd36e63f0f1baddcb2482b5ad31b0" target="_top" xlink:title=" ">
<polygon fill="white" stroke="#666666" points="1383.5,-56 1290.5,-56 1290.5,-37 1383.5,-37 1383.5,-56"/>
<text text-anchor="middle" x="1337" y="-44" font-family="Helvetica,sans-Serif" font-size="10.00">func_800C41CC</text>
</a>
</g>
</g>
<!-- Node15&#45;&gt;Node18 -->
<g id="edge17_Node000015_Node000018" class="edge">
<title>Node15&#45;&gt;Node18</title>
<g id="a_edge17_Node000015_Node000018"><a xlink:title=" ">
<path fill="none" stroke="#63b8ff" d="M1231,-46.5C1246.37,-46.5 1263.74,-46.5 1279.86,-46.5"/>
<polygon fill="#63b8ff" stroke="#63b8ff" points="1280.25,-50 1290.25,-46.5 1280.25,-43 1280.25,-50"/>
</a>
</g>
</g>
<!-- Node19 -->
<g id="Node000019" class="node">
<title>Node19</title>
<g id="a_Node000019"><a xlink:href="port__eu_8c.html#aa89dfaecca46c6d071f08c1898d1f7c9" target="_top" xlink:title=" ">
<polygon fill="white" stroke="#666666" points="1383.5,-19 1290.5,-19 1290.5,0 1383.5,0 1383.5,-19"/>
<text text-anchor="middle" x="1337" y="-7" font-family="Helvetica,sans-Serif" font-size="10.00">func_800CBBE8</text>
</a>
</g>
</g>
<!-- Node15&#45;&gt;Node19 -->
<g id="edge18_Node000015_Node000019" class="edge">
<title>Node15&#45;&gt;Node19</title>
<g id="a_edge18_Node000015_Node000019"><a xlink:title=" ">
<path fill="none" stroke="#63b8ff" d="M1224.63,-36.97C1243.8,-32.24 1267.16,-26.48 1287.52,-21.46"/>
<polygon fill="#63b8ff" stroke="#63b8ff" points="1288.37,-24.85 1297.24,-19.06 1286.69,-18.06 1288.37,-24.85"/>
</a>
</g>
</g>
<!-- Node17 -->
<g id="Node000017" class="node">
<title>Node17</title>
<g id="a_Node000017"><a xlink:href="external_8c.html#a358ac55e8ab5262dcae8037334be06d7" target="_top" xlink:title=" ">
<polygon fill="white" stroke="#666666" points="1535.5,-93 1443.5,-93 1443.5,-74 1535.5,-74 1535.5,-93"/>
<text text-anchor="middle" x="1489.5" y="-81" font-family="Helvetica,sans-Serif" font-size="10.00">func_800C40F0</text>
</a>
</g>
</g>
<!-- Node16&#45;&gt;Node17 -->
<g id="edge16_Node000016_Node000017" class="edge">
<title>Node16&#45;&gt;Node17</title>
<g id="a_edge16_Node000016_Node000017"><a xlink:title=" ">
<path fill="none" stroke="#63b8ff" d="M1407.08,-83.5C1415.87,-83.5 1424.78,-83.5 1433.31,-83.5"/>
<polygon fill="#63b8ff" stroke="#63b8ff" points="1433.5,-87 1443.5,-83.5 1433.5,-80 1433.5,-87"/>
</a>
</g>
</g>
<!-- Node20 -->
<g id="Node000020" class="node">
<title>Node20</title>
<g id="a_Node000020"><a xlink:href="port__eu_8c.html#af361a20d2e08f30c53a237ca481ff734" target="_top" xlink:title=" ">
<polygon fill="white" stroke="#666666" points="1536,-19 1443,-19 1443,0 1536,0 1536,-19"/>
<text text-anchor="middle" x="1489.5" y="-7" font-family="Helvetica,sans-Serif" font-size="10.00">func_800CBB48</text>
</a>
</g>
</g>
<!-- Node19&#45;&gt;Node20 -->
<g id="edge19_Node000019_Node000020" class="edge">
<title>Node19&#45;&gt;Node20</title>
<g id="a_edge19_Node000019_Node000020"><a xlink:title=" ">
<path fill="none" stroke="#63b8ff" d="M1383.56,-9.5C1398.96,-9.5 1416.34,-9.5 1432.46,-9.5"/>
<polygon fill="#63b8ff" stroke="#63b8ff" points="1432.83,-13 1442.83,-9.5 1432.83,-6 1432.83,-13"/>
</a>
</g>
</g>
<!-- Node22 -->
<g id="Node000022" class="node">
<title>Node22</title>
<g id="a_Node000022"><a xlink:href="math__util_8c.html#a79fd07a0971ec96a3ff0801963a2fa7f" target="_top" xlink:title=" ">
<polygon fill="white" stroke="#666666" points="740,-36 676,-36 676,-17 740,-17 740,-36"/>
<text text-anchor="middle" x="708" y="-24" font-family="Helvetica,sans-Serif" font-size="10.00">vec3f_set</text>
</a>
</g>
</g>
<!-- Node21&#45;&gt;Node22 -->
<g id="edge21_Node000021_Node000022" class="edge">
<title>Node21&#45;&gt;Node22</title>
<g id="a_edge21_Node000021_Node000022"><a xlink:title=" ">
<path fill="none" stroke="#63b8ff" d="M576.14,-26.5C603.88,-26.5 638.78,-26.5 665.56,-26.5"/>
<polygon fill="#63b8ff" stroke="#63b8ff" points="665.76,-30 675.76,-26.5 665.76,-23 665.76,-30"/>
</a>
</g>
</g>
</g>
</svg>
