<?xml version="1.0" encoding="UTF-8" standalone="no"?>
<!DOCTYPE svg PUBLIC "-//W3C//DTD SVG 1.1//EN"
 "http://www.w3.org/Graphics/SVG/1.1/DTD/svg11.dtd">
<!-- Generated by graphviz version 2.43.0 (0)
 -->
<!-- Title: update_actor_banana_bunch Pages: 1 -->
<!--zoomable 464 -->

<svg id="main" version="1.1" xmlns="http://www.w3.org/2000/svg" xmlns:xlink="http://www.w3.org/1999/xlink" xml:space="preserve" onload="init(evt)">

<style type="text/css"><![CDATA[
.node, .edge {opacity: 0.7;}
.node.selected, .edge.selected {opacity: 1;}
.edge:hover path { stroke: red; }
.edge:hover polygon { stroke: red; fill: red; }
]]></style>

<defs>
  <circle id="rim" cx="0" cy="0" r="7"/>
  <circle id="rim2" cx="0" cy="0" r="3.5"/>
  <g id="zoomPlus">
    <use xlink:href="#rim" fill="#404040"><set attributeName="fill" to="#808080" begin="zoomplus.mouseover" end="zoomplus.mouseout"/></use>
    <path d="M-4,0h8M0,-4v8" fill="none" stroke="white" stroke-width="1.5" pointer-events="none"/>
  </g>
  <g id="zoomMin">
    <use xlink:href="#rim" fill="#404040"><set attributeName="fill" to="#808080" begin="zoomminus.mouseover" end="zoomminus.mouseout"/></use>
    <path d="M-4,0h8" fill="none" stroke="white" stroke-width="1.5" pointer-events="none"/>
  </g>
  <g id="arrowUp" transform="translate(30 24)">
    <use xlink:href="#rim"/>
    <path pointer-events="none" fill="none" stroke="white" stroke-width="1.5" d="M0,-3.0v7 M-2.5,-0.5L0,-3.0L2.5,-0.5"/>
  </g>
  <g id="arrowRight" transform="rotate(90) translate(36 -43)">
    <use xlink:href="#rim"/>
    <path pointer-events="none" fill="none" stroke="white" stroke-width="1.5" d="M0,-3.0v7 M-2.5,-0.5L0,-3.0L2.5,-0.5"/>
  </g>
  <g id="arrowDown" transform="rotate(180) translate(-30 -48)">
    <use xlink:href="#rim"/>
    <path pointer-events="none" fill="none" stroke="white" stroke-width="1.5" d="M0,-3.0v7 M-2.5,-0.5L0,-3.0L2.5,-0.5"/>
  </g>
  <g id="arrowLeft" transform="rotate(270) translate(-36 17)">
    <use xlink:href="#rim"/>
    <path pointer-events="none" fill="none" stroke="white" stroke-width="1.5" d="M0,-3.0v7 M-2.5,-0.5L0,-3.0L2.5,-0.5"/>
  </g>
  <g id="resetDef">
    <use xlink:href="#rim2" fill="#404040"><set attributeName="fill" to="#808080" begin="reset.mouseover" end="reset.mouseout"/></use>
  </g>
</defs>
<script type="application/ecmascript">
var viewWidth = 1782;
var viewHeight = 464;
var sectionId = 'dynsection-26';
</script>
<script type="application/ecmascript" xlink:href="svg.min.js"/>
<svg id="graph" class="graph">
<g id="viewport">
<title>update_actor_banana_bunch</title>
<!-- Node1 -->
<g id="Node000001" class="node">
<title>Node1</title>
<g id="a_Node000001"><a xlink:title=" ">
<polygon fill="#999999" stroke="#666666" points="122,-276 0,-276 0,-246 122,-246 122,-276"/>
<text text-anchor="start" x="8" y="-264" font-family="Helvetica,sans-Serif" font-size="10.00">update_actor_banana</text>
<text text-anchor="middle" x="61" y="-253" font-family="Helvetica,sans-Serif" font-size="10.00">_bunch</text>
</a>
</g>
</g>
<!-- Node2 -->
<g id="Node000002" class="node">
<title>Node2</title>
<g id="a_Node000002"><a xlink:href="actors_8c.html#a694ec6ef7548b8618aeb35c038d3a9b9" target="_top" xlink:title=" ">
<polygon fill="white" stroke="#666666" points="987.5,-436.5 904.5,-436.5 904.5,-417.5 987.5,-417.5 987.5,-436.5"/>
<text text-anchor="middle" x="946" y="-424.5" font-family="Helvetica,sans-Serif" font-size="10.00">destroy_actor</text>
</a>
</g>
</g>
<!-- Node1&#45;&gt;Node2 -->
<g id="edge1_Node000001_Node000002" class="edge">
<title>Node1&#45;&gt;Node2</title>
<g id="a_edge1_Node000001_Node000002"><a xlink:title=" ">
<path fill="none" stroke="#63b8ff" d="M78.34,-276.09C125.17,-317.69 265.42,-431 404,-431 404,-431 404,-431 589.5,-431 698.11,-431 825.38,-429.11 894.33,-427.93"/>
<polygon fill="#63b8ff" stroke="#63b8ff" points="894.55,-431.43 904.48,-427.75 894.42,-424.43 894.55,-431.43"/>
</a>
</g>
</g>
<!-- Node12 -->
<g id="Node000012" class="node">
<title>Node12</title>
<g id="a_Node000012"><a xlink:href="actors__extended_8c.html#a0910375b121b8c6bd510bbb81a369335" target="_top" xlink:title=" ">
<polygon fill="white" stroke="#666666" points="293,-214 158,-214 158,-184 293,-184 293,-214"/>
<text text-anchor="start" x="166" y="-202" font-family="Helvetica,sans-Serif" font-size="10.00">drop_banana_in_banana</text>
<text text-anchor="middle" x="225.5" y="-191" font-family="Helvetica,sans-Serif" font-size="10.00">_bunch</text>
</a>
</g>
</g>
<!-- Node1&#45;&gt;Node12 -->
<g id="edge11_Node000001_Node000012" class="edge">
<title>Node1&#45;&gt;Node12</title>
<g id="a_edge11_Node000001_Node000012"><a xlink:title=" ">
<path fill="none" stroke="#63b8ff" d="M100.74,-245.98C118.22,-239.23 139.14,-231.18 158,-224 163.46,-221.92 169.19,-219.75 174.88,-217.6"/>
<polygon fill="#63b8ff" stroke="#63b8ff" points="176.27,-220.82 184.39,-214.02 173.8,-214.27 176.27,-220.82"/>
</a>
</g>
</g>
<!-- Node13 -->
<g id="Node000013" class="node">
<title>Node13</title>
<g id="a_Node000013"><a xlink:href="external_8c.html#a2be9efc97a92e19d02aaee90d676acc1" target="_top" xlink:title=" ">
<polygon fill="white" stroke="#666666" points="451,-289.5 359,-289.5 359,-270.5 451,-270.5 451,-289.5"/>
<text text-anchor="middle" x="405" y="-277.5" font-family="Helvetica,sans-Serif" font-size="10.00">func_800C9060</text>
</a>
</g>
</g>
<!-- Node1&#45;&gt;Node13 -->
<g id="edge12_Node000001_Node000013" class="edge">
<title>Node1&#45;&gt;Node13</title>
<g id="a_edge12_Node000001_Node000013"><a xlink:title=" ">
<path fill="none" stroke="#63b8ff" d="M122.36,-264.35C186.48,-267.92 286.97,-273.5 348.98,-276.94"/>
<polygon fill="#63b8ff" stroke="#63b8ff" points="348.79,-280.44 358.97,-277.5 349.18,-273.45 348.79,-280.44"/>
</a>
</g>
</g>
<!-- Node15 -->
<g id="Node000015" class="node">
<title>Node15</title>
<g id="a_Node000015"><a xlink:href="actors__extended_8c.html#a87d7f1fdb71b4ffb9b0b6961d5f4fb65" target="_top" xlink:title=" ">
<polygon fill="white" stroke="#666666" points="271.5,-327.5 179.5,-327.5 179.5,-308.5 271.5,-308.5 271.5,-327.5"/>
<text text-anchor="middle" x="225.5" y="-315.5" font-family="Helvetica,sans-Serif" font-size="10.00">func_802B0788</text>
</a>
</g>
</g>
<!-- Node1&#45;&gt;Node15 -->
<g id="edge14_Node000001_Node000015" class="edge">
<title>Node1&#45;&gt;Node15</title>
<g id="a_edge14_Node000001_Node000015"><a xlink:title=" ">
<path fill="none" stroke="#63b8ff" d="M105.12,-276.13C130.74,-285.11 162.9,-296.39 187.38,-304.98"/>
<polygon fill="#63b8ff" stroke="#63b8ff" points="186.43,-308.36 197.03,-308.36 188.75,-301.75 186.43,-308.36"/>
</a>
</g>
</g>
<!-- Node20 -->
<g id="Node000020" class="node">
<title>Node20</title>
<g id="a_Node000020"><a xlink:href="actors__extended_8c.html#a37199f633d5cab2cbbc3c506b177a68e" target="_top" xlink:title=" ">
<polygon fill="white" stroke="#666666" points="271.5,-165.5 179.5,-165.5 179.5,-146.5 271.5,-146.5 271.5,-165.5"/>
<text text-anchor="middle" x="225.5" y="-153.5" font-family="Helvetica,sans-Serif" font-size="10.00">func_802B09C0</text>
</a>
</g>
</g>
<!-- Node1&#45;&gt;Node20 -->
<g id="edge19_Node000001_Node000020" class="edge">
<title>Node1&#45;&gt;Node20</title>
<g id="a_edge19_Node000001_Node000020"><a xlink:title=" ">
<path fill="none" stroke="#63b8ff" d="M74.75,-245.97C91.81,-226.78 123.91,-193.82 158,-175 162.01,-172.79 166.3,-170.81 170.7,-169.05"/>
<polygon fill="#63b8ff" stroke="#63b8ff" points="172.23,-172.22 180.45,-165.53 169.85,-165.64 172.23,-172.22"/>
</a>
</g>
</g>
<!-- Node21 -->
<g id="Node000021" class="node">
<title>Node21</title>
<g id="a_Node000021"><a xlink:href="actors__extended_8c.html#ac03bad0075e21f3e3ce262eedd8f056b" target="_top" xlink:title=" ">
<polygon fill="white" stroke="#666666" points="271.5,-251.5 179.5,-251.5 179.5,-232.5 271.5,-232.5 271.5,-251.5"/>
<text text-anchor="middle" x="225.5" y="-239.5" font-family="Helvetica,sans-Serif" font-size="10.00">func_802B2914</text>
</a>
</g>
</g>
<!-- Node1&#45;&gt;Node21 -->
<g id="edge20_Node000001_Node000021" class="edge">
<title>Node1&#45;&gt;Node21</title>
<g id="a_edge20_Node000001_Node000021"><a xlink:title=" ">
<path fill="none" stroke="#63b8ff" d="M122.05,-253.98C137.47,-252.18 154,-250.24 169.17,-248.47"/>
<polygon fill="#63b8ff" stroke="#63b8ff" points="169.91,-251.91 179.43,-247.27 169.09,-244.95 169.91,-251.91"/>
</a>
</g>
</g>
<!-- Node3 -->
<g id="Node000003" class="node">
<title>Node3</title>
<g id="a_Node000003"><a xlink:href="actors_8c.html#a12dc3ccac4c7d8569eadac0af4fd6f9f" target="_top" xlink:title=" ">
<polygon fill="white" stroke="#666666" points="1213,-436.5 1055,-436.5 1055,-417.5 1213,-417.5 1213,-436.5"/>
<text text-anchor="middle" x="1134" y="-424.5" font-family="Helvetica,sans-Serif" font-size="10.00">play_sound_before_despawn</text>
</a>
</g>
</g>
<!-- Node2&#45;&gt;Node3 -->
<g id="edge2_Node000002_Node000003" class="edge">
<title>Node2&#45;&gt;Node3</title>
<g id="a_edge2_Node000002_Node000003"><a xlink:title=" ">
<path fill="none" stroke="#63b8ff" d="M987.82,-427C1004.65,-427 1024.86,-427 1044.77,-427"/>
<polygon fill="#63b8ff" stroke="#63b8ff" points="1044.82,-430.5 1054.82,-427 1044.82,-423.5 1044.82,-430.5"/>
</a>
</g>
</g>
<!-- Node4 -->
<g id="Node000004" class="node">
<title>Node4</title>
<g id="a_Node000004"><a xlink:href="external_8c.html#ae72057869772019e4464c87d4e16c682" target="_top" xlink:title=" ">
<polygon fill="white" stroke="#666666" points="1341,-436.5 1249,-436.5 1249,-417.5 1341,-417.5 1341,-436.5"/>
<text text-anchor="middle" x="1295" y="-424.5" font-family="Helvetica,sans-Serif" font-size="10.00">func_800C99E0</text>
</a>
</g>
</g>
<!-- Node3&#45;&gt;Node4 -->
<g id="edge3_Node000003_Node000004" class="edge">
<title>Node3&#45;&gt;Node4</title>
<g id="a_edge3_Node000003_Node000004"><a xlink:title=" ">
<path fill="none" stroke="#63b8ff" d="M1213.1,-427C1221.72,-427 1230.35,-427 1238.61,-427"/>
<polygon fill="#63b8ff" stroke="#63b8ff" points="1238.83,-430.5 1248.83,-427 1238.83,-423.5 1238.83,-430.5"/>
</a>
</g>
</g>
<!-- Node5 -->
<g id="Node000005" class="node">
<title>Node5</title>
<g id="a_Node000005"><a xlink:href="external_8c.html#aeb87c527482a244173df36a1f3d4f446" target="_top" xlink:title=" ">
<polygon fill="white" stroke="#666666" points="1469,-455.5 1377,-455.5 1377,-436.5 1469,-436.5 1469,-455.5"/>
<text text-anchor="middle" x="1423" y="-443.5" font-family="Helvetica,sans-Serif" font-size="10.00">func_800C21E8</text>
</a>
</g>
</g>
<!-- Node4&#45;&gt;Node5 -->
<g id="edge4_Node000004_Node000005" class="edge">
<title>Node4&#45;&gt;Node5</title>
<g id="a_edge4_Node000004_Node000005"><a xlink:title=" ">
<path fill="none" stroke="#63b8ff" d="M1341.13,-433.81C1349.46,-435.06 1358.23,-436.38 1366.81,-437.68"/>
<polygon fill="#63b8ff" stroke="#63b8ff" points="1366.35,-441.15 1376.76,-439.18 1367.39,-434.23 1366.35,-441.15"/>
</a>
</g>
</g>
<!-- Node6 -->
<g id="Node000006" class="node">
<title>Node6</title>
<g id="a_Node000006"><a xlink:href="external_8c.html#a028d40421b90c38f68ebfd5acc626f2e" target="_top" xlink:title=" ">
<polygon fill="white" stroke="#666666" points="1469,-418.5 1377,-418.5 1377,-399.5 1469,-399.5 1469,-418.5"/>
<text text-anchor="middle" x="1423" y="-406.5" font-family="Helvetica,sans-Serif" font-size="10.00">func_800C5578</text>
</a>
</g>
</g>
<!-- Node4&#45;&gt;Node6 -->
<g id="edge5_Node000004_Node000006" class="edge">
<title>Node4&#45;&gt;Node6</title>
<g id="a_edge5_Node000004_Node000006"><a xlink:title=" ">
<path fill="none" stroke="#63b8ff" d="M1341.13,-420.55C1349.46,-419.36 1358.23,-418.11 1366.81,-416.88"/>
<polygon fill="#63b8ff" stroke="#63b8ff" points="1367.35,-420.34 1376.76,-415.46 1366.36,-413.41 1367.35,-420.34"/>
</a>
</g>
</g>
<!-- Node7 -->
<g id="Node000007" class="node">
<title>Node7</title>
<g id="a_Node000007"><a xlink:href="external_8c.html#ac0fb767de7e14a03f1bcfa53f0abd23b" target="_top" xlink:title=" ">
<polygon fill="white" stroke="#666666" points="1645,-455.5 1505,-455.5 1505,-436.5 1645,-436.5 1645,-455.5"/>
<text text-anchor="middle" x="1575" y="-443.5" font-family="Helvetica,sans-Serif" font-size="10.00">delete_sound_from_bank</text>
</a>
</g>
</g>
<!-- Node6&#45;&gt;Node7 -->
<g id="edge6_Node000006_Node000007" class="edge">
<title>Node6&#45;&gt;Node7</title>
<g id="a_edge6_Node000006_Node000007"><a xlink:title=" ">
<path fill="none" stroke="#63b8ff" d="M1462.63,-418.53C1481.8,-423.26 1505.16,-429.02 1525.52,-434.04"/>
<polygon fill="#63b8ff" stroke="#63b8ff" points="1524.69,-437.44 1535.24,-436.44 1526.37,-430.65 1524.69,-437.44"/>
</a>
</g>
</g>
<!-- Node9 -->
<g id="Node000009" class="node">
<title>Node9</title>
<g id="a_Node000009"><a xlink:href="external_8c.html#ab83bd36e63f0f1baddcb2482b5ad31b0" target="_top" xlink:title=" ">
<polygon fill="white" stroke="#666666" points="1621.5,-418.5 1528.5,-418.5 1528.5,-399.5 1621.5,-399.5 1621.5,-418.5"/>
<text text-anchor="middle" x="1575" y="-406.5" font-family="Helvetica,sans-Serif" font-size="10.00">func_800C41CC</text>
</a>
</g>
</g>
<!-- Node6&#45;&gt;Node9 -->
<g id="edge8_Node000006_Node000009" class="edge">
<title>Node6&#45;&gt;Node9</title>
<g id="a_edge8_Node000006_Node000009"><a xlink:title=" ">
<path fill="none" stroke="#63b8ff" d="M1469,-409C1484.37,-409 1501.74,-409 1517.86,-409"/>
<polygon fill="#63b8ff" stroke="#63b8ff" points="1518.25,-412.5 1528.25,-409 1518.25,-405.5 1518.25,-412.5"/>
</a>
</g>
</g>
<!-- Node10 -->
<g id="Node000010" class="node">
<title>Node10</title>
<g id="a_Node000010"><a xlink:href="port__eu_8c.html#aa89dfaecca46c6d071f08c1898d1f7c9" target="_top" xlink:title=" ">
<polygon fill="white" stroke="#666666" points="1621.5,-381.5 1528.5,-381.5 1528.5,-362.5 1621.5,-362.5 1621.5,-381.5"/>
<text text-anchor="middle" x="1575" y="-369.5" font-family="Helvetica,sans-Serif" font-size="10.00">func_800CBBE8</text>
</a>
</g>
</g>
<!-- Node6&#45;&gt;Node10 -->
<g id="edge9_Node000006_Node000010" class="edge">
<title>Node6&#45;&gt;Node10</title>
<g id="a_edge9_Node000006_Node000010"><a xlink:title=" ">
<path fill="none" stroke="#63b8ff" d="M1462.63,-399.47C1481.8,-394.74 1505.16,-388.98 1525.52,-383.96"/>
<polygon fill="#63b8ff" stroke="#63b8ff" points="1526.37,-387.35 1535.24,-381.56 1524.69,-380.56 1526.37,-387.35"/>
</a>
</g>
</g>
<!-- Node8 -->
<g id="Node000008" class="node">
<title>Node8</title>
<g id="a_Node000008"><a xlink:href="external_8c.html#a358ac55e8ab5262dcae8037334be06d7" target="_top" xlink:title=" ">
<polygon fill="white" stroke="#666666" points="1773.5,-455.5 1681.5,-455.5 1681.5,-436.5 1773.5,-436.5 1773.5,-455.5"/>
<text text-anchor="middle" x="1727.5" y="-443.5" font-family="Helvetica,sans-Serif" font-size="10.00">func_800C40F0</text>
</a>
</g>
</g>
<!-- Node7&#45;&gt;Node8 -->
<g id="edge7_Node000007_Node000008" class="edge">
<title>Node7&#45;&gt;Node8</title>
<g id="a_edge7_Node000007_Node000008"><a xlink:title=" ">
<path fill="none" stroke="#63b8ff" d="M1645.08,-446C1653.87,-446 1662.78,-446 1671.31,-446"/>
<polygon fill="#63b8ff" stroke="#63b8ff" points="1671.5,-449.5 1681.5,-446 1671.5,-442.5 1671.5,-449.5"/>
</a>
</g>
</g>
<!-- Node11 -->
<g id="Node000011" class="node">
<title>Node11</title>
<g id="a_Node000011"><a xlink:href="port__eu_8c.html#af361a20d2e08f30c53a237ca481ff734" target="_top" xlink:title=" ">
<polygon fill="white" stroke="#666666" points="1774,-381.5 1681,-381.5 1681,-362.5 1774,-362.5 1774,-381.5"/>
<text text-anchor="middle" x="1727.5" y="-369.5" font-family="Helvetica,sans-Serif" font-size="10.00">func_800CBB48</text>
</a>
</g>
</g>
<!-- Node10&#45;&gt;Node11 -->
<g id="edge10_Node000010_Node000011" class="edge">
<title>Node10&#45;&gt;Node11</title>
<g id="a_edge10_Node000010_Node000011"><a xlink:title=" ">
<path fill="none" stroke="#63b8ff" d="M1621.56,-372C1636.96,-372 1654.34,-372 1670.46,-372"/>
<polygon fill="#63b8ff" stroke="#63b8ff" points="1670.83,-375.5 1680.83,-372 1670.83,-368.5 1670.83,-375.5"/>
</a>
</g>
</g>
<!-- Node14 -->
<g id="Node000014" class="node">
<title>Node14</title>
<g id="a_Node000014"><a xlink:href="external_8c.html#a475cff796211891556f52877cd8e9b9e" target="_top" xlink:title=" ">
<polygon fill="white" stroke="#666666" points="624.5,-289.5 552.5,-289.5 552.5,-270.5 624.5,-270.5 624.5,-289.5"/>
<text text-anchor="middle" x="588.5" y="-277.5" font-family="Helvetica,sans-Serif" font-size="10.00">play_sound</text>
</a>
</g>
</g>
<!-- Node13&#45;&gt;Node14 -->
<g id="edge13_Node000013_Node000014" class="edge">
<title>Node13&#45;&gt;Node14</title>
<g id="a_edge13_Node000013_Node000014"><a xlink:title=" ">
<path fill="none" stroke="#63b8ff" d="M451.33,-280C479.08,-280 514.45,-280 542.19,-280"/>
<polygon fill="#63b8ff" stroke="#63b8ff" points="542.42,-283.5 552.42,-280 542.42,-276.5 542.42,-283.5"/>
</a>
</g>
</g>
<!-- Node16 -->
<g id="Node000016" class="node">
<title>Node16</title>
<g id="a_Node000016"><a xlink:href="math__util_8c.html#a6270d7eb2d38b9c093e61da43b7d51ff" target="_top" xlink:title=" ">
<polygon fill="white" stroke="#666666" points="451,-365.5 359,-365.5 359,-346.5 451,-346.5 451,-365.5"/>
<text text-anchor="middle" x="405" y="-353.5" font-family="Helvetica,sans-Serif" font-size="10.00">func_802B64C4</text>
</a>
</g>
</g>
<!-- Node15&#45;&gt;Node16 -->
<g id="edge15_Node000015_Node000016" class="edge">
<title>Node15&#45;&gt;Node16</title>
<g id="a_edge15_Node000015_Node000016"><a xlink:title=" ">
<path fill="none" stroke="#63b8ff" d="M271.29,-327.59C295.03,-332.67 324.38,-338.96 349.44,-344.32"/>
<polygon fill="#63b8ff" stroke="#63b8ff" points="349.02,-347.81 359.53,-346.48 350.49,-340.96 349.02,-347.81"/>
</a>
</g>
</g>
<!-- Node19 -->
<g id="Node000019" class="node">
<title>Node19</title>
<g id="a_Node000019"><a xlink:href="math__util_8c.html#a79fd07a0971ec96a3ff0801963a2fa7f" target="_top" xlink:title=" ">
<polygon fill="white" stroke="#666666" points="978,-281.5 914,-281.5 914,-262.5 978,-262.5 978,-281.5"/>
<text text-anchor="middle" x="946" y="-269.5" font-family="Helvetica,sans-Serif" font-size="10.00">vec3f_set</text>
</a>
</g>
</g>
<!-- Node15&#45;&gt;Node19 -->
<g id="edge18_Node000015_Node000019" class="edge">
<title>Node15&#45;&gt;Node19</title>
<g id="a_edge18_Node000015_Node000019"><a xlink:title=" ">
<path fill="none" stroke="#63b8ff" d="M271.58,-319.87C373.11,-323.38 627.2,-328.15 837,-299 859.6,-295.86 884.32,-289.87 904.4,-284.34"/>
<polygon fill="#63b8ff" stroke="#63b8ff" points="905.48,-287.67 914.15,-281.58 903.58,-280.93 905.48,-287.67"/>
</a>
</g>
</g>
<!-- Node17 -->
<g id="Node000017" class="node">
<title>Node17</title>
<g id="a_Node000017"><a xlink:href="math__util_8c.html#ae69cbf5c8d4b3b0dba2d7b4d4673689f" target="_top" xlink:title=" ">
<polygon fill="white" stroke="#666666" points="607.5,-365.5 569.5,-365.5 569.5,-346.5 607.5,-346.5 607.5,-365.5"/>
<text text-anchor="middle" x="588.5" y="-353.5" font-family="Helvetica,sans-Serif" font-size="10.00">coss</text>
</a>
</g>
</g>
<!-- Node16&#45;&gt;Node17 -->
<g id="edge16_Node000016_Node000017" class="edge">
<title>Node16&#45;&gt;Node17</title>
<g id="a_edge16_Node000016_Node000017"><a xlink:title=" ">
<path fill="none" stroke="#63b8ff" d="M451.33,-356C485.04,-356 530,-356 558.86,-356"/>
<polygon fill="#63b8ff" stroke="#63b8ff" points="559.07,-359.5 569.07,-356 559.07,-352.5 559.07,-359.5"/>
</a>
</g>
</g>
<!-- Node18 -->
<g id="Node000018" class="node">
<title>Node18</title>
<g id="a_Node000018"><a xlink:href="math__util_8c.html#a19ed3bd78fd2d3e2bd0a29f6caf48545" target="_top" xlink:title=" ">
<polygon fill="white" stroke="#666666" points="606.5,-402.5 570.5,-402.5 570.5,-383.5 606.5,-383.5 606.5,-402.5"/>
<text text-anchor="middle" x="588.5" y="-390.5" font-family="Helvetica,sans-Serif" font-size="10.00">sins</text>
</a>
</g>
</g>
<!-- Node16&#45;&gt;Node18 -->
<g id="edge17_Node000016_Node000018" class="edge">
<title>Node16&#45;&gt;Node18</title>
<g id="a_edge17_Node000016_Node000018"><a xlink:title=" ">
<path fill="none" stroke="#63b8ff" d="M451.33,-365.24C485.59,-372.23 531.49,-381.58 560.28,-387.45"/>
<polygon fill="#63b8ff" stroke="#63b8ff" points="559.92,-390.95 570.41,-389.52 561.32,-384.09 559.92,-390.95"/>
</a>
</g>
</g>
<!-- Node21&#45;&gt;Node13 -->
<g id="edge43_Node000021_Node000013" class="edge">
<title>Node21&#45;&gt;Node13</title>
<g id="a_edge43_Node000021_Node000013"><a xlink:title=" ">
<path fill="none" stroke="#63b8ff" d="M271.29,-251.59C295.03,-256.67 324.38,-262.96 349.44,-268.32"/>
<polygon fill="#63b8ff" stroke="#63b8ff" points="349.02,-271.81 359.53,-270.48 350.49,-264.96 349.02,-271.81"/>
</a>
</g>
</g>
<!-- Node22 -->
<g id="Node000022" class="node">
<title>Node22</title>
<g id="a_Node000022"><a xlink:href="collision_8c.html#a79293dbdae52d290fdaf8dde9d5244ca" target="_top" xlink:title=" ">
<polygon fill="white" stroke="#666666" points="467.5,-104.5 342.5,-104.5 342.5,-85.5 467.5,-85.5 467.5,-104.5"/>
<text text-anchor="middle" x="405" y="-92.5" font-family="Helvetica,sans-Serif" font-size="10.00">actor_terrain_collision</text>
</a>
</g>
</g>
<!-- Node21&#45;&gt;Node22 -->
<g id="edge21_Node000021_Node000022" class="edge">
<title>Node21&#45;&gt;Node22</title>
<g id="a_edge21_Node000021_Node000022"><a xlink:title=" ">
<path fill="none" stroke="#63b8ff" d="M271.6,-234.62C279.3,-231.89 286.81,-228.14 293,-223 320.53,-200.15 306.05,-178.44 329,-151 342.77,-134.54 362.29,-120.15 377.97,-110.09"/>
<polygon fill="#63b8ff" stroke="#63b8ff" points="380.04,-112.93 386.68,-104.68 376.34,-106.98 380.04,-112.93"/>
</a>
</g>
</g>
<!-- Node26 -->
<g id="Node000026" class="node">
<title>Node26</title>
<g id="a_Node000026"><a xlink:href="actors_8c.html#a91fb2e4e37e7c72fea918fe2c1bb4eaf" target="_top" xlink:title=" ">
<polygon fill="white" stroke="#666666" points="475,-215.5 335,-215.5 335,-196.5 475,-196.5 475,-215.5"/>
<text text-anchor="middle" x="405" y="-203.5" font-family="Helvetica,sans-Serif" font-size="10.00">add_actor_to_empty_slot</text>
</a>
</g>
</g>
<!-- Node21&#45;&gt;Node26 -->
<g id="edge25_Node000021_Node000026" class="edge">
<title>Node21&#45;&gt;Node26</title>
<g id="a_edge25_Node000021_Node000026"><a xlink:title=" ">
<path fill="none" stroke="#63b8ff" d="M271.75,-232.82C294.68,-228.17 322.76,-222.48 347.13,-217.53"/>
<polygon fill="#63b8ff" stroke="#63b8ff" points="347.87,-220.96 356.97,-215.54 346.48,-214.1 347.87,-220.96"/>
</a>
</g>
</g>
<!-- Node41 -->
<g id="Node000041" class="node">
<title>Node41</title>
<g id="a_Node000041"><a xlink:href="Game_8cpp.html#a04c2e1c30af14b6e8354d7a9be00e39c" target="_top" xlink:title=" ">
<polygon fill="white" stroke="#666666" points="460,-67.5 350,-67.5 350,-48.5 460,-48.5 460,-67.5"/>
<text text-anchor="middle" x="405" y="-55.5" font-family="Helvetica,sans-Serif" font-size="10.00">CM_FindActorIndex</text>
</a>
</g>
</g>
<!-- Node21&#45;&gt;Node41 -->
<g id="edge42_Node000021_Node000041" class="edge">
<title>Node21&#45;&gt;Node41</title>
<g id="a_edge42_Node000021_Node000041"><a xlink:title=" ">
<path fill="none" stroke="#63b8ff" d="M271.56,-236.07C279.55,-233.21 287.17,-229.05 293,-223 339.39,-174.89 281.89,-124.41 329,-77 332.43,-73.55 336.39,-70.69 340.66,-68.34"/>
<polygon fill="#63b8ff" stroke="#63b8ff" points="342.16,-71.5 349.8,-64.16 339.25,-65.13 342.16,-71.5"/>
</a>
</g>
</g>
<!-- Node42 -->
<g id="Node000042" class="node">
<title>Node42</title>
<g id="a_Node000042"><a xlink:href="actors__extended_8c.html#a78e98c146f1f4dd6e3608016486172a4" target="_top" xlink:title=" ">
<polygon fill="white" stroke="#666666" points="451,-252.5 359,-252.5 359,-233.5 451,-233.5 451,-252.5"/>
<text text-anchor="middle" x="405" y="-240.5" font-family="Helvetica,sans-Serif" font-size="10.00">func_802B4E30</text>
</a>
</g>
</g>
<!-- Node21&#45;&gt;Node42 -->
<g id="edge44_Node000021_Node000042" class="edge">
<title>Node21&#45;&gt;Node42</title>
<g id="a_edge44_Node000021_Node000042"><a xlink:title=" ">
<path fill="none" stroke="#63b8ff" d="M271.75,-242.25C295.12,-242.39 323.83,-242.55 348.52,-242.69"/>
<polygon fill="#63b8ff" stroke="#63b8ff" points="348.81,-246.19 358.83,-242.75 348.85,-239.19 348.81,-246.19"/>
</a>
</g>
</g>
<!-- Node43 -->
<g id="Node000043" class="node">
<title>Node43</title>
<g id="a_Node000043"><a xlink:href="math__util_8c.html#ad5bb0138c68b50f119d3cb7966f522b7" target="_top" xlink:title=" ">
<polygon fill="white" stroke="#666666" points="481,-178.5 329,-178.5 329,-159.5 481,-159.5 481,-178.5"/>
<text text-anchor="middle" x="405" y="-166.5" font-family="Helvetica,sans-Serif" font-size="10.00">mtxf_translate_vec3f_mat3</text>
</a>
</g>
</g>
<!-- Node21&#45;&gt;Node43 -->
<g id="edge45_Node000021_Node000043" class="edge">
<title>Node21&#45;&gt;Node43</title>
<g id="a_edge45_Node000021_Node000043"><a xlink:title=" ">
<path fill="none" stroke="#63b8ff" d="M271.39,-232.47C278.87,-229.96 286.35,-226.85 293,-223 312.31,-211.82 309.52,-198.89 329,-188 333,-185.76 337.26,-183.79 341.65,-182.04"/>
<polygon fill="#63b8ff" stroke="#63b8ff" points="343.16,-185.22 351.4,-178.57 340.81,-178.62 343.16,-185.22"/>
</a>
</g>
</g>
<!-- Node23 -->
<g id="Node000023" class="node">
<title>Node23</title>
<g id="a_Node000023"><a xlink:href="collision_8c.html#a6ea8b20f38e63c1b1157923085c8e306" target="_top" xlink:title=" ">
<polygon fill="white" stroke="#666666" points="660,-30 517,-30 517,0 660,0 660,-30"/>
<text text-anchor="start" x="525" y="-18" font-family="Helvetica,sans-Serif" font-size="10.00">is_colliding_with_drivable</text>
<text text-anchor="middle" x="588.5" y="-7" font-family="Helvetica,sans-Serif" font-size="10.00">_surface</text>
</a>
</g>
</g>
<!-- Node22&#45;&gt;Node23 -->
<g id="edge22_Node000022_Node000023" class="edge">
<title>Node22&#45;&gt;Node23</title>
<g id="a_edge22_Node000022_Node000023"><a xlink:title=" ">
<path fill="none" stroke="#63b8ff" d="M461.88,-85.43C468.55,-83.19 475.09,-80.42 481,-77 501.14,-65.36 497.42,-51.56 517,-39 519.45,-37.43 522.01,-35.95 524.65,-34.56"/>
<polygon fill="#63b8ff" stroke="#63b8ff" points="526.34,-37.63 533.85,-30.15 523.32,-31.31 526.34,-37.63"/>
</a>
</g>
</g>
<!-- Node24 -->
<g id="Node000024" class="node">
<title>Node24</title>
<g id="a_Node000024"><a xlink:href="collision_8c.html#a94970a4a6ca911f74e59114decd74557" target="_top" xlink:title=" ">
<polygon fill="white" stroke="#666666" points="653,-104.5 524,-104.5 524,-85.5 653,-85.5 653,-104.5"/>
<text text-anchor="middle" x="588.5" y="-92.5" font-family="Helvetica,sans-Serif" font-size="10.00">is_colliding_with_wall1</text>
</a>
</g>
</g>
<!-- Node22&#45;&gt;Node24 -->
<g id="edge23_Node000022_Node000024" class="edge">
<title>Node22&#45;&gt;Node24</title>
<g id="a_edge23_Node000022_Node000024"><a xlink:title=" ">
<path fill="none" stroke="#63b8ff" d="M467.7,-95C482.4,-95 498.23,-95 513.42,-95"/>
<polygon fill="#63b8ff" stroke="#63b8ff" points="513.8,-98.5 523.8,-95 513.8,-91.5 513.8,-98.5"/>
</a>
</g>
</g>
<!-- Node25 -->
<g id="Node000025" class="node">
<title>Node25</title>
<g id="a_Node000025"><a xlink:href="collision_8c.html#a23443870e0d3a6797de707a89ded7ef0" target="_top" xlink:title=" ">
<polygon fill="white" stroke="#666666" points="653,-67.5 524,-67.5 524,-48.5 653,-48.5 653,-67.5"/>
<text text-anchor="middle" x="588.5" y="-55.5" font-family="Helvetica,sans-Serif" font-size="10.00">is_colliding_with_wall2</text>
</a>
</g>
</g>
<!-- Node22&#45;&gt;Node25 -->
<g id="edge24_Node000022_Node000025" class="edge">
<title>Node22&#45;&gt;Node25</title>
<g id="a_edge24_Node000022_Node000025"><a xlink:title=" ">
<path fill="none" stroke="#63b8ff" d="M452.74,-85.47C476.47,-80.64 505.49,-74.72 530.51,-69.62"/>
<polygon fill="#63b8ff" stroke="#63b8ff" points="531.5,-72.99 540.6,-67.56 530.1,-66.13 531.5,-72.99"/>
</a>
</g>
</g>
<!-- Node27 -->
<g id="Node000027" class="node">
<title>Node27</title>
<g id="a_Node000027"><a xlink:href="actors_8c.html#a39c023177b5a7686cdd1fc65b8b953e1" target="_top" xlink:title=" ">
<polygon fill="white" stroke="#666666" points="619.5,-252.5 557.5,-252.5 557.5,-233.5 619.5,-233.5 619.5,-252.5"/>
<text text-anchor="middle" x="588.5" y="-240.5" font-family="Helvetica,sans-Serif" font-size="10.00">actor_init</text>
</a>
</g>
</g>
<!-- Node26&#45;&gt;Node27 -->
<g id="edge26_Node000026_Node000027" class="edge">
<title>Node26&#45;&gt;Node27</title>
<g id="a_edge26_Node000026_Node000027"><a xlink:title=" ">
<path fill="none" stroke="#63b8ff" d="M452.74,-215.53C482.11,-221.52 519.6,-229.16 547.58,-234.86"/>
<polygon fill="#63b8ff" stroke="#63b8ff" points="546.93,-238.3 557.42,-236.87 548.32,-231.44 546.93,-238.3"/>
</a>
</g>
</g>
<!-- Node38 -->
<g id="Node000038" class="node">
<title>Node38</title>
<g id="a_Node000038"><a xlink:href="Game_8cpp.html#acea5cfd9ab22f745bd6627869b95a62e" target="_top" xlink:title=" ">
<polygon fill="white" stroke="#666666" points="644.5,-215.5 532.5,-215.5 532.5,-196.5 644.5,-196.5 644.5,-215.5"/>
<text text-anchor="middle" x="588.5" y="-203.5" font-family="Helvetica,sans-Serif" font-size="10.00">CM_ActorBeginPlay</text>
</a>
</g>
</g>
<!-- Node26&#45;&gt;Node38 -->
<g id="edge39_Node000026_Node000038" class="edge">
<title>Node26&#45;&gt;Node38</title>
<g id="a_edge39_Node000026_Node000038"><a xlink:title=" ">
<path fill="none" stroke="#63b8ff" d="M475.14,-206C490.52,-206 506.78,-206 522.01,-206"/>
<polygon fill="#63b8ff" stroke="#63b8ff" points="522.37,-209.5 532.37,-206 522.37,-202.5 522.37,-209.5"/>
</a>
</g>
</g>
<!-- Node39 -->
<g id="Node000039" class="node">
<title>Node39</title>
<g id="a_Node000039"><a xlink:href="Game_8cpp.html#a42f23077aaa52cb3ea5c7803b7dd6816" target="_top" xlink:title=" ">
<polygon fill="white" stroke="#666666" points="641.5,-178.5 535.5,-178.5 535.5,-159.5 641.5,-159.5 641.5,-178.5"/>
<text text-anchor="middle" x="588.5" y="-166.5" font-family="Helvetica,sans-Serif" font-size="10.00">CM_AddBaseActor</text>
</a>
</g>
</g>
<!-- Node26&#45;&gt;Node39 -->
<g id="edge40_Node000026_Node000039" class="edge">
<title>Node26&#45;&gt;Node39</title>
<g id="a_edge40_Node000026_Node000039"><a xlink:title=" ">
<path fill="none" stroke="#63b8ff" d="M452.74,-196.47C476.47,-191.64 505.49,-185.72 530.51,-180.62"/>
<polygon fill="#63b8ff" stroke="#63b8ff" points="531.5,-183.99 540.6,-178.56 530.1,-177.13 531.5,-183.99"/>
</a>
</g>
</g>
<!-- Node40 -->
<g id="Node000040" class="node">
<title>Node40</title>
<g id="a_Node000040"><a xlink:href="Game_8cpp.html#a0841ffe9a66e95aca42438b9d8ffc3d3" target="_top" xlink:title=" ">
<polygon fill="white" stroke="#666666" points="639,-141.5 538,-141.5 538,-122.5 639,-122.5 639,-141.5"/>
<text text-anchor="middle" x="588.5" y="-129.5" font-family="Helvetica,sans-Serif" font-size="10.00">CM_GetActorSize</text>
</a>
</g>
</g>
<!-- Node26&#45;&gt;Node40 -->
<g id="edge41_Node000026_Node000040" class="edge">
<title>Node26&#45;&gt;Node40</title>
<g id="a_edge41_Node000026_Node000040"><a xlink:title=" ">
<path fill="none" stroke="#63b8ff" d="M461.44,-196.49C468.26,-194.23 474.95,-191.44 481,-188 500.94,-176.65 497.22,-162.62 517,-151 520.69,-148.83 524.63,-146.91 528.69,-145.2"/>
<polygon fill="#63b8ff" stroke="#63b8ff" points="530.2,-148.37 538.33,-141.58 527.74,-141.82 530.2,-148.37"/>
</a>
</g>
</g>
<!-- Node28 -->
<g id="Node000028" class="node">
<title>Node28</title>
<g id="a_Node000028"><a xlink:href="collision_8c.html#a37aa55b3768d001533ad75e7f1b8388a" target="_top" xlink:title=" ">
<polygon fill="white" stroke="#666666" points="837,-178.5 696,-178.5 696,-159.5 837,-159.5 837,-178.5"/>
<text text-anchor="middle" x="766.5" y="-166.5" font-family="Helvetica,sans-Serif" font-size="10.00">check_bounding_collision</text>
</a>
</g>
</g>
<!-- Node27&#45;&gt;Node28 -->
<g id="edge27_Node000027_Node000028" class="edge">
<title>Node27&#45;&gt;Node28</title>
<g id="a_edge27_Node000027_Node000028"><a xlink:title=" ">
<path fill="none" stroke="#63b8ff" d="M619.7,-239.05C632.73,-236.42 647.75,-232.09 660,-225 679.86,-213.51 676.24,-199.66 696,-188 699.7,-185.82 703.65,-183.88 707.73,-182.16"/>
<polygon fill="#63b8ff" stroke="#63b8ff" points="709.27,-185.32 717.4,-178.53 706.81,-178.77 709.27,-185.32"/>
</a>
</g>
</g>
<!-- Node32 -->
<g id="Node000032" class="node">
<title>Node32</title>
<g id="a_Node000032"><a xlink:href="actors_8c.html#a1a9bccb586242555a9123ebd4ab70f2a" target="_top" xlink:title=" ">
<polygon fill="white" stroke="#666666" points="832.5,-383 700.5,-383 700.5,-353 832.5,-353 832.5,-383"/>
<text text-anchor="start" x="708.5" y="-371" font-family="Helvetica,sans-Serif" font-size="10.00">cleanup_red_and_green</text>
<text text-anchor="middle" x="766.5" y="-360" font-family="Helvetica,sans-Serif" font-size="10.00">_shells</text>
</a>
</g>
</g>
<!-- Node27&#45;&gt;Node32 -->
<g id="edge31_Node000027_Node000032" class="edge">
<title>Node27&#45;&gt;Node32</title>
<g id="a_edge31_Node000027_Node000032"><a xlink:title=" ">
<path fill="none" stroke="#63b8ff" d="M619.71,-247.45C632.73,-250.27 647.76,-254.81 660,-262 679.78,-273.62 679.86,-282.69 696,-299 711.64,-314.8 729.44,-332.47 743.11,-345.97"/>
<polygon fill="#63b8ff" stroke="#63b8ff" points="740.66,-348.47 750.24,-353 745.58,-343.49 740.66,-348.47"/>
</a>
</g>
</g>
<!-- Node35 -->
<g id="Node000035" class="node">
<title>Node35</title>
<g id="a_Node000035"><a xlink:href="collision_8c.html#ad72fef3ffe32191d73b1822f512ebf3f" target="_top" xlink:title=" ">
<polygon fill="white" stroke="#666666" points="814,-252.5 719,-252.5 719,-233.5 814,-233.5 814,-252.5"/>
<text text-anchor="middle" x="766.5" y="-240.5" font-family="Helvetica,sans-Serif" font-size="10.00">func_802AAAAC</text>
</a>
</g>
</g>
<!-- Node27&#45;&gt;Node35 -->
<g id="edge35_Node000027_Node000035" class="edge">
<title>Node27&#45;&gt;Node35</title>
<g id="a_edge35_Node000027_Node000035"><a xlink:title=" ">
<path fill="none" stroke="#63b8ff" d="M619.76,-243C644.11,-243 679.03,-243 708.58,-243"/>
<polygon fill="#63b8ff" stroke="#63b8ff" points="708.78,-246.5 718.78,-243 708.78,-239.5 708.78,-246.5"/>
</a>
</g>
</g>
<!-- Node36 -->
<g id="Node000036" class="node">
<title>Node36</title>
<g id="a_Node000036"><a xlink:href="math__util_8c.html#af7b470ed76fce07b8042a47c96e5690b" target="_top" xlink:title=" ">
<polygon fill="white" stroke="#666666" points="820,-289.5 713,-289.5 713,-270.5 820,-270.5 820,-289.5"/>
<text text-anchor="middle" x="766.5" y="-277.5" font-family="Helvetica,sans-Serif" font-size="10.00">vec3f_copy_return</text>
</a>
</g>
</g>
<!-- Node27&#45;&gt;Node36 -->
<g id="edge37_Node000027_Node000036" class="edge">
<title>Node27&#45;&gt;Node36</title>
<g id="a_edge37_Node000027_Node000036"><a xlink:title=" ">
<path fill="none" stroke="#63b8ff" d="M619.76,-249.36C644.57,-254.58 680.35,-262.1 710.24,-268.38"/>
<polygon fill="#63b8ff" stroke="#63b8ff" points="709.63,-271.83 720.13,-270.46 711.07,-264.98 709.63,-271.83"/>
</a>
</g>
</g>
<!-- Node37 -->
<g id="Node000037" class="node">
<title>Node37</title>
<g id="a_Node000037"><a xlink:href="math__util_8c.html#a0e270ee67600c8c9c2f140c647d008a1" target="_top" xlink:title=" ">
<polygon fill="white" stroke="#666666" points="803.5,-215.5 729.5,-215.5 729.5,-196.5 803.5,-196.5 803.5,-215.5"/>
<text text-anchor="middle" x="766.5" y="-203.5" font-family="Helvetica,sans-Serif" font-size="10.00">vec3s_copy</text>
</a>
</g>
</g>
<!-- Node27&#45;&gt;Node37 -->
<g id="edge38_Node000027_Node000037" class="edge">
<title>Node27&#45;&gt;Node37</title>
<g id="a_edge38_Node000027_Node000037"><a xlink:title=" ">
<path fill="none" stroke="#63b8ff" d="M619.76,-236.64C647.16,-230.88 687.94,-222.31 719.4,-215.69"/>
<polygon fill="#63b8ff" stroke="#63b8ff" points="720.19,-219.1 729.26,-213.62 718.75,-212.25 720.19,-219.1"/>
</a>
</g>
</g>
<!-- Node29 -->
<g id="Node000029" class="node">
<title>Node29</title>
<g id="a_Node000029"><a xlink:href="collision_8c.html#ac312bf382cb40752f6b790a99e7cdcb6" target="_top" xlink:title=" ">
<polygon fill="white" stroke="#666666" points="1000,-141.5 892,-141.5 892,-122.5 1000,-122.5 1000,-141.5"/>
<text text-anchor="middle" x="946" y="-129.5" font-family="Helvetica,sans-Serif" font-size="10.00">check_collision_yx</text>
</a>
</g>
</g>
<!-- Node28&#45;&gt;Node29 -->
<g id="edge28_Node000028_Node000029" class="edge">
<title>Node28&#45;&gt;Node29</title>
<g id="a_edge28_Node000028_Node000029"><a xlink:title=" ">
<path fill="none" stroke="#63b8ff" d="M813.21,-159.47C836.41,-154.64 864.79,-148.72 889.27,-143.62"/>
<polygon fill="#63b8ff" stroke="#63b8ff" points="890.06,-147.03 899.14,-141.56 888.63,-140.17 890.06,-147.03"/>
</a>
</g>
</g>
<!-- Node30 -->
<g id="Node000030" class="node">
<title>Node30</title>
<g id="a_Node000030"><a xlink:href="collision_8c.html#a4b48832a90e984536a0635a016ec4f28" target="_top" xlink:title=" ">
<polygon fill="white" stroke="#666666" points="999.5,-215.5 892.5,-215.5 892.5,-196.5 999.5,-196.5 999.5,-215.5"/>
<text text-anchor="middle" x="946" y="-203.5" font-family="Helvetica,sans-Serif" font-size="10.00">check_collision_zx</text>
</a>
</g>
</g>
<!-- Node28&#45;&gt;Node30 -->
<g id="edge29_Node000028_Node000030" class="edge">
<title>Node28&#45;&gt;Node30</title>
<g id="a_edge29_Node000028_Node000030"><a xlink:title=" ">
<path fill="none" stroke="#63b8ff" d="M813.21,-178.53C836.41,-183.36 864.79,-189.28 889.27,-194.38"/>
<polygon fill="#63b8ff" stroke="#63b8ff" points="888.63,-197.83 899.14,-196.44 890.06,-190.97 888.63,-197.83"/>
</a>
</g>
</g>
<!-- Node31 -->
<g id="Node000031" class="node">
<title>Node31</title>
<g id="a_Node000031"><a xlink:href="collision_8c.html#a21fef964ab48191a1c0341954ef27a40" target="_top" xlink:title=" ">
<polygon fill="white" stroke="#666666" points="999.5,-178.5 892.5,-178.5 892.5,-159.5 999.5,-159.5 999.5,-178.5"/>
<text text-anchor="middle" x="946" y="-166.5" font-family="Helvetica,sans-Serif" font-size="10.00">check_collision_zy</text>
</a>
</g>
</g>
<!-- Node28&#45;&gt;Node31 -->
<g id="edge30_Node000028_Node000031" class="edge">
<title>Node28&#45;&gt;Node31</title>
<g id="a_edge30_Node000028_Node000031"><a xlink:title=" ">
<path fill="none" stroke="#63b8ff" d="M837.14,-169C851.91,-169 867.43,-169 881.94,-169"/>
<polygon fill="#63b8ff" stroke="#63b8ff" points="882.3,-172.5 892.3,-169 882.3,-165.5 882.3,-172.5"/>
</a>
</g>
</g>
<!-- Node32&#45;&gt;Node2 -->
<g id="edge34_Node000032_Node000002" class="edge">
<title>Node32&#45;&gt;Node2</title>
<g id="a_edge34_Node000032_Node000002"><a xlink:title=" ">
<path fill="none" stroke="#63b8ff" d="M812.75,-383.04C841.75,-392.68 878.98,-405.06 906.55,-414.22"/>
<polygon fill="#63b8ff" stroke="#63b8ff" points="905.64,-417.6 916.23,-417.44 907.85,-410.96 905.64,-417.6"/>
</a>
</g>
</g>
<!-- Node33 -->
<g id="Node000033" class="node">
<title>Node33</title>
<g id="a_Node000033"><a xlink:href="Game_8cpp.html#a693de7d8b89fe291aafea86bc64a0a2e" target="_top" xlink:title=" ">
<polygon fill="white" stroke="#666666" points="986,-337.5 906,-337.5 906,-318.5 986,-318.5 986,-337.5"/>
<text text-anchor="middle" x="946" y="-325.5" font-family="Helvetica,sans-Serif" font-size="10.00">CM_GetActor</text>
</a>
</g>
</g>
<!-- Node32&#45;&gt;Node33 -->
<g id="edge32_Node000032_Node000033" class="edge">
<title>Node32&#45;&gt;Node33</title>
<g id="a_edge32_Node000032_Node000033"><a xlink:title=" ">
<path fill="none" stroke="#63b8ff" d="M832.59,-353.33C853.57,-348.6 876.45,-343.45 896.06,-339.03"/>
<polygon fill="#63b8ff" stroke="#63b8ff" points="897,-342.4 905.99,-336.79 895.47,-335.58 897,-342.4"/>
</a>
</g>
</g>
<!-- Node34 -->
<g id="Node000034" class="node">
<title>Node34</title>
<g id="a_Node000034"><a xlink:href="code__80005FD0_8c.html#ad301b978cdd3c4cc190b10be050d51d8" target="_top" xlink:title=" ">
<polygon fill="white" stroke="#666666" points="1019,-386 873,-386 873,-356 1019,-356 1019,-386"/>
<text text-anchor="start" x="881" y="-374" font-family="Helvetica,sans-Serif" font-size="10.00">delete_actor_in_unexpired</text>
<text text-anchor="middle" x="946" y="-363" font-family="Helvetica,sans-Serif" font-size="10.00">_actor_list</text>
</a>
</g>
</g>
<!-- Node32&#45;&gt;Node34 -->
<g id="edge33_Node000032_Node000034" class="edge">
<title>Node32&#45;&gt;Node34</title>
<g id="a_edge33_Node000032_Node000034"><a xlink:title=" ">
<path fill="none" stroke="#63b8ff" d="M832.59,-369.1C842.38,-369.27 852.59,-369.44 862.69,-369.61"/>
<polygon fill="#63b8ff" stroke="#63b8ff" points="862.67,-373.11 872.73,-369.78 862.79,-366.11 862.67,-373.11"/>
</a>
</g>
</g>
<!-- Node35&#45;&gt;Node19 -->
<g id="edge36_Node000035_Node000019" class="edge">
<title>Node35&#45;&gt;Node19</title>
<g id="a_edge36_Node000035_Node000019"><a xlink:title=" ">
<path fill="none" stroke="#63b8ff" d="M814.14,-250.62C841.88,-255.15 876.78,-260.85 903.56,-265.23"/>
<polygon fill="#63b8ff" stroke="#63b8ff" points="903.32,-268.74 913.76,-266.9 904.45,-261.83 903.32,-268.74"/>
</a>
</g>
</g>
</g>
</svg>

<g id="navigator" transform="translate(0 0)" fill="#404254">
  <rect fill="#f2f5e9" fill-opacity="0.5" stroke="#606060" stroke-width=".5" x="0" y="0" width="60" height="60"/>
  <use id="zoomplus" xlink:href="#zoomPlus" x="17" y="9" onmousedown="handleZoom(evt,'in')"/>
  <use id="zoomminus" xlink:href="#zoomMin" x="42" y="9" onmousedown="handleZoom(evt,'out')"/>
  <use id="reset" xlink:href="#resetDef" x="30" y="36" onmousedown="handleReset()"/>
   <use id="arrowup" xlink:href="#arrowUp" x="0" y="0" onmousedown="handlePan(0,-1)"/>
  <use id="arrowright" xlink:href="#arrowRight" x="0" y="0" onmousedown="handlePan(1,0)"/>
  <use id="arrowdown" xlink:href="#arrowDown" x="0" y="0" onmousedown="handlePan(0,1)"/>
  <use id="arrowleft" xlink:href="#arrowLeft" x="0" y="0" onmousedown="handlePan(-1,0)"/>
</g>
<svg viewBox="0 0 15 15" width="100%" height="30px" preserveAspectRatio="xMaxYMin meet">
 <g id="arrow_out" transform="scale(0.3 0.3)">
  <a xlink:href="actors__extended_8c_a34694840e4ed5e496ed3ba98429b0558_cgraph_org.svg" target="_base">
   <rect id="button" ry="5" rx="5" y="6" x="6" height="38" width="38"
        fill="#f2f5e9" fill-opacity="0.5" stroke="#606060" stroke-width="1.0"/>
   <path id="arrow"
     d="M 11.500037,31.436501 C 11.940474,20.09759 22.043105,11.32322 32.158766,21.979434 L 37.068811,17.246167 C 37.068811,17.246167 37.088388,32 37.088388,32 L 22.160133,31.978069 C 22.160133,31.978069 26.997745,27.140456 26.997745,27.140456 C 18.528582,18.264221 13.291696,25.230495 11.500037,31.436501 z"
     style="fill:#404040;"/>
  </a>
 </g>
</svg>

<style type='text/css'>
<![CDATA[
[data-mouse-over-selected='false'] { opacity: 0.7; }
[data-mouse-over-selected='true']  { opacity: 1.0; }
]]>
</style>
<script type="application/ecmascript"><![CDATA[
document.addEventListener('DOMContentLoaded', (event) => {
  highlightEdges();
  highlightAdjacentNodes();
});
]]></script>
</svg>
