<?xml version="1.0" encoding="UTF-8" standalone="no"?>
<!DOCTYPE svg PUBLIC "-//W3C//DTD SVG 1.1//EN"
 "http://www.w3.org/Graphics/SVG/1.1/DTD/svg11.dtd">
<!-- Generated by graphviz version 2.43.0 (0)
 -->
<!-- Title: func_8029ABD4 Pages: 1 -->
<!--zoomable 370 -->

<svg id="main" version="1.1" xmlns="http://www.w3.org/2000/svg" xmlns:xlink="http://www.w3.org/1999/xlink" xml:space="preserve" onload="init(evt)">

<style type="text/css"><![CDATA[
.node, .edge {opacity: 0.7;}
.node.selected, .edge.selected {opacity: 1;}
.edge:hover path { stroke: red; }
.edge:hover polygon { stroke: red; fill: red; }
]]></style>

<defs>
  <circle id="rim" cx="0" cy="0" r="7"/>
  <circle id="rim2" cx="0" cy="0" r="3.5"/>
  <g id="zoomPlus">
    <use xlink:href="#rim" fill="#404040"><set attributeName="fill" to="#808080" begin="zoomplus.mouseover" end="zoomplus.mouseout"/></use>
    <path d="M-4,0h8M0,-4v8" fill="none" stroke="white" stroke-width="1.5" pointer-events="none"/>
  </g>
  <g id="zoomMin">
    <use xlink:href="#rim" fill="#404040"><set attributeName="fill" to="#808080" begin="zoomminus.mouseover" end="zoomminus.mouseout"/></use>
    <path d="M-4,0h8" fill="none" stroke="white" stroke-width="1.5" pointer-events="none"/>
  </g>
  <g id="arrowUp" transform="translate(30 24)">
    <use xlink:href="#rim"/>
    <path pointer-events="none" fill="none" stroke="white" stroke-width="1.5" d="M0,-3.0v7 M-2.5,-0.5L0,-3.0L2.5,-0.5"/>
  </g>
  <g id="arrowRight" transform="rotate(90) translate(36 -43)">
    <use xlink:href="#rim"/>
    <path pointer-events="none" fill="none" stroke="white" stroke-width="1.5" d="M0,-3.0v7 M-2.5,-0.5L0,-3.0L2.5,-0.5"/>
  </g>
  <g id="arrowDown" transform="rotate(180) translate(-30 -48)">
    <use xlink:href="#rim"/>
    <path pointer-events="none" fill="none" stroke="white" stroke-width="1.5" d="M0,-3.0v7 M-2.5,-0.5L0,-3.0L2.5,-0.5"/>
  </g>
  <g id="arrowLeft" transform="rotate(270) translate(-36 17)">
    <use xlink:href="#rim"/>
    <path pointer-events="none" fill="none" stroke="white" stroke-width="1.5" d="M0,-3.0v7 M-2.5,-0.5L0,-3.0L2.5,-0.5"/>
  </g>
  <g id="resetDef">
    <use xlink:href="#rim2" fill="#404040"><set attributeName="fill" to="#808080" begin="reset.mouseover" end="reset.mouseout"/></use>
  </g>
</defs>
<script type="application/ecmascript">
var viewWidth = 1692;
var viewHeight = 370;
var sectionId = 'dynsection-47';
</script>
<script type="application/ecmascript" xlink:href="svg.min.js"/>
<svg id="graph" class="graph">
<g id="viewport">
<title>func_8029ABD4</title>
<!-- Node1 -->
<g id="Node000001" class="node">
<title>Node1</title>
<g id="a_Node000001"><a xlink:title=" ">
<polygon fill="#999999" stroke="#666666" points="94,-57 0,-57 0,-38 94,-38 94,-57"/>
<text text-anchor="middle" x="47" y="-45" font-family="Helvetica,sans-Serif" font-size="10.00">func_8029ABD4</text>
</a>
</g>
</g>
<!-- Node2 -->
<g id="Node000002" class="node">
<title>Node2</title>
<g id="a_Node000002"><a xlink:href="actors_8c.html#a89e1bc069861528b3d9bac9571a83cd5" target="_top" xlink:title=" ">
<polygon fill="white" stroke="#666666" points="246,-57 130,-57 130,-38 246,-38 246,-57"/>
<text text-anchor="middle" x="188" y="-45" font-family="Helvetica,sans-Serif" font-size="10.00">spawn_actor_at_pos</text>
</a>
</g>
</g>
<!-- Node1&#45;&gt;Node2 -->
<g id="edge1_Node000001_Node000002" class="edge">
<title>Node1&#45;&gt;Node2</title>
<g id="a_edge1_Node000001_Node000002"><a xlink:title=" ">
<path fill="none" stroke="#63b8ff" d="M94.28,-47.5C102.46,-47.5 111.12,-47.5 119.73,-47.5"/>
<polygon fill="#63b8ff" stroke="#63b8ff" points="119.79,-51 129.79,-47.5 119.79,-44 119.79,-51"/>
</a>
</g>
</g>
<!-- Node3 -->
<g id="Node000003" class="node">
<title>Node3</title>
<g id="a_Node000003"><a xlink:href="actors_8c.html#a91fb2e4e37e7c72fea918fe2c1bb4eaf" target="_top" xlink:title=" ">
<polygon fill="white" stroke="#666666" points="422,-132 282,-132 282,-113 422,-113 422,-132"/>
<text text-anchor="middle" x="352" y="-120" font-family="Helvetica,sans-Serif" font-size="10.00">add_actor_to_empty_slot</text>
</a>
</g>
</g>
<!-- Node2&#45;&gt;Node3 -->
<g id="edge2_Node000002_Node000003" class="edge">
<title>Node2&#45;&gt;Node3</title>
<g id="a_edge2_Node000002_Node000003"><a xlink:title=" ">
<path fill="none" stroke="#63b8ff" d="M209.85,-57.15C238.04,-70.2 288.5,-93.56 320.83,-108.53"/>
<polygon fill="#63b8ff" stroke="#63b8ff" points="319.69,-111.86 330.23,-112.89 322.63,-105.51 319.69,-111.86"/>
</a>
</g>
</g>
<!-- Node23 -->
<g id="Node000023" class="node">
<title>Node23</title>
<g id="a_Node000023"><a xlink:href="math__util_8c.html#a79fd07a0971ec96a3ff0801963a2fa7f" target="_top" xlink:title=" ">
<polygon fill="white" stroke="#666666" points="888,-112 824,-112 824,-93 888,-93 888,-112"/>
<text text-anchor="middle" x="856" y="-100" font-family="Helvetica,sans-Serif" font-size="10.00">vec3f_set</text>
</a>
</g>
</g>
<!-- Node2&#45;&gt;Node23 -->
<g id="edge28_Node000002_Node000023" class="edge">
<title>Node2&#45;&gt;Node23</title>
<g id="a_edge28_Node000002_Node000023"><a xlink:title=" ">
<path fill="none" stroke="#63b8ff" d="M246.19,-49.33C320.78,-51.96 455.28,-57.49 570,-66.5 648.88,-72.7 668.56,-75.12 747,-85.5 769.11,-88.43 793.68,-92.25 813.79,-95.53"/>
<polygon fill="#63b8ff" stroke="#63b8ff" points="813.43,-99.01 823.87,-97.18 814.57,-92.11 813.43,-99.01"/>
</a>
</g>
</g>
<!-- Node29 -->
<g id="Node000029" class="node">
<title>Node29</title>
<g id="a_Node000029"><a xlink:href="math__util_8c.html#a9092c945c52b3a3481228b2724991e3c" target="_top" xlink:title=" ">
<polygon fill="white" stroke="#666666" points="384.5,-19 319.5,-19 319.5,0 384.5,0 384.5,-19"/>
<text text-anchor="middle" x="352" y="-7" font-family="Helvetica,sans-Serif" font-size="10.00">vec3s_set</text>
</a>
</g>
</g>
<!-- Node2&#45;&gt;Node29 -->
<g id="edge29_Node000002_Node000029" class="edge">
<title>Node2&#45;&gt;Node29</title>
<g id="a_edge29_Node000002_Node000029"><a xlink:title=" ">
<path fill="none" stroke="#63b8ff" d="M229.88,-37.91C254.16,-32.22 284.87,-25.01 309.29,-19.28"/>
<polygon fill="#63b8ff" stroke="#63b8ff" points="310.4,-22.62 319.33,-16.93 308.8,-15.8 310.4,-22.62"/>
</a>
</g>
</g>
<!-- Node4 -->
<g id="Node000004" class="node">
<title>Node4</title>
<g id="a_Node000004"><a xlink:href="actors_8c.html#a39c023177b5a7686cdd1fc65b8b953e1" target="_top" xlink:title=" ">
<polygon fill="white" stroke="#666666" points="545,-206 483,-206 483,-187 545,-187 545,-206"/>
<text text-anchor="middle" x="514" y="-194" font-family="Helvetica,sans-Serif" font-size="10.00">actor_init</text>
</a>
</g>
</g>
<!-- Node3&#45;&gt;Node4 -->
<g id="edge3_Node000003_Node000004" class="edge">
<title>Node3&#45;&gt;Node4</title>
<g id="a_edge3_Node000003_Node000004"><a xlink:title=" ">
<path fill="none" stroke="#63b8ff" d="M368.94,-132.13C389.15,-144.07 425.31,-164.56 458,-178.5 462.84,-180.57 468.01,-182.54 473.16,-184.37"/>
<polygon fill="#63b8ff" stroke="#63b8ff" points="472.37,-187.8 482.97,-187.71 474.63,-181.18 472.37,-187.8"/>
</a>
</g>
</g>
<!-- Node26 -->
<g id="Node000026" class="node">
<title>Node26</title>
<g id="a_Node000026"><a xlink:href="Game_8cpp.html#acea5cfd9ab22f745bd6627869b95a62e" target="_top" xlink:title=" ">
<polygon fill="white" stroke="#666666" points="570,-169 458,-169 458,-150 570,-150 570,-169"/>
<text text-anchor="middle" x="514" y="-157" font-family="Helvetica,sans-Serif" font-size="10.00">CM_ActorBeginPlay</text>
</a>
</g>
</g>
<!-- Node3&#45;&gt;Node26 -->
<g id="edge25_Node000003_Node000026" class="edge">
<title>Node3&#45;&gt;Node26</title>
<g id="a_edge25_Node000003_Node000026"><a xlink:title=" ">
<path fill="none" stroke="#63b8ff" d="M394.2,-132.03C414.84,-136.8 440.02,-142.62 461.88,-147.68"/>
<polygon fill="#63b8ff" stroke="#63b8ff" points="461.13,-151.1 471.66,-149.94 462.7,-144.28 461.13,-151.1"/>
</a>
</g>
</g>
<!-- Node27 -->
<g id="Node000027" class="node">
<title>Node27</title>
<g id="a_Node000027"><a xlink:href="Game_8cpp.html#a42f23077aaa52cb3ea5c7803b7dd6816" target="_top" xlink:title=" ">
<polygon fill="white" stroke="#666666" points="567,-132 461,-132 461,-113 567,-113 567,-132"/>
<text text-anchor="middle" x="514" y="-120" font-family="Helvetica,sans-Serif" font-size="10.00">CM_AddBaseActor</text>
</a>
</g>
</g>
<!-- Node3&#45;&gt;Node27 -->
<g id="edge26_Node000003_Node000027" class="edge">
<title>Node3&#45;&gt;Node27</title>
<g id="a_edge26_Node000003_Node000027"><a xlink:title=" ">
<path fill="none" stroke="#63b8ff" d="M422.25,-122.5C431.57,-122.5 441.1,-122.5 450.31,-122.5"/>
<polygon fill="#63b8ff" stroke="#63b8ff" points="450.53,-126 460.53,-122.5 450.53,-119 450.53,-126"/>
</a>
</g>
</g>
<!-- Node28 -->
<g id="Node000028" class="node">
<title>Node28</title>
<g id="a_Node000028"><a xlink:href="Game_8cpp.html#a0841ffe9a66e95aca42438b9d8ffc3d3" target="_top" xlink:title=" ">
<polygon fill="white" stroke="#666666" points="564.5,-95 463.5,-95 463.5,-76 564.5,-76 564.5,-95"/>
<text text-anchor="middle" x="514" y="-83" font-family="Helvetica,sans-Serif" font-size="10.00">CM_GetActorSize</text>
</a>
</g>
</g>
<!-- Node3&#45;&gt;Node28 -->
<g id="edge27_Node000003_Node000028" class="edge">
<title>Node3&#45;&gt;Node28</title>
<g id="a_edge27_Node000003_Node000028"><a xlink:title=" ">
<path fill="none" stroke="#63b8ff" d="M394.2,-112.97C414.84,-108.2 440.02,-102.38 461.88,-97.32"/>
<polygon fill="#63b8ff" stroke="#63b8ff" points="462.7,-100.72 471.66,-95.06 461.13,-93.9 462.7,-100.72"/>
</a>
</g>
</g>
<!-- Node5 -->
<g id="Node000005" class="node">
<title>Node5</title>
<g id="a_Node000005"><a xlink:href="collision_8c.html#a37aa55b3768d001533ad75e7f1b8388a" target="_top" xlink:title=" ">
<polygon fill="white" stroke="#666666" points="747,-310 606,-310 606,-291 747,-291 747,-310"/>
<text text-anchor="middle" x="676.5" y="-298" font-family="Helvetica,sans-Serif" font-size="10.00">check_bounding_collision</text>
</a>
</g>
</g>
<!-- Node4&#45;&gt;Node5 -->
<g id="edge4_Node000004_Node000005" class="edge">
<title>Node4&#45;&gt;Node5</title>
<g id="a_edge4_Node000004_Node000005"><a xlink:title=" ">
<path fill="none" stroke="#63b8ff" d="M529.81,-206.1C557.76,-224.21 618.47,-263.55 652.03,-285.29"/>
<polygon fill="#63b8ff" stroke="#63b8ff" points="650.43,-288.42 660.72,-290.93 654.24,-282.55 650.43,-288.42"/>
</a>
</g>
</g>
<!-- Node9 -->
<g id="Node000009" class="node">
<title>Node9</title>
<g id="a_Node000009"><a xlink:href="actors_8c.html#a1a9bccb586242555a9123ebd4ab70f2a" target="_top" xlink:title=" ">
<polygon fill="white" stroke="#666666" points="742.5,-235.5 610.5,-235.5 610.5,-205.5 742.5,-205.5 742.5,-235.5"/>
<text text-anchor="start" x="618.5" y="-223.5" font-family="Helvetica,sans-Serif" font-size="10.00">cleanup_red_and_green</text>
<text text-anchor="middle" x="676.5" y="-212.5" font-family="Helvetica,sans-Serif" font-size="10.00">_shells</text>
</a>
</g>
</g>
<!-- Node4&#45;&gt;Node9 -->
<g id="edge8_Node000004_Node000009" class="edge">
<title>Node4&#45;&gt;Node9</title>
<g id="a_edge8_Node000004_Node000009"><a xlink:title=" ">
<path fill="none" stroke="#63b8ff" d="M545.19,-201.01C560.81,-203.35 580.64,-206.32 600.09,-209.22"/>
<polygon fill="#63b8ff" stroke="#63b8ff" points="599.8,-212.72 610.21,-210.74 600.84,-205.8 599.8,-212.72"/>
</a>
</g>
</g>
<!-- Node22 -->
<g id="Node000022" class="node">
<title>Node22</title>
<g id="a_Node000022"><a xlink:href="collision_8c.html#ad72fef3ffe32191d73b1822f512ebf3f" target="_top" xlink:title=" ">
<polygon fill="white" stroke="#666666" points="724,-187 629,-187 629,-168 724,-168 724,-187"/>
<text text-anchor="middle" x="676.5" y="-175" font-family="Helvetica,sans-Serif" font-size="10.00">func_802AAAAC</text>
</a>
</g>
</g>
<!-- Node4&#45;&gt;Node22 -->
<g id="edge21_Node000004_Node000022" class="edge">
<title>Node4&#45;&gt;Node22</title>
<g id="a_edge21_Node000004_Node000022"><a xlink:title=" ">
<path fill="none" stroke="#63b8ff" d="M545.19,-192.93C565.86,-190.48 593.91,-187.16 618.69,-184.23"/>
<polygon fill="#63b8ff" stroke="#63b8ff" points="619.2,-187.69 628.72,-183.04 618.38,-180.74 619.2,-187.69"/>
</a>
</g>
</g>
<!-- Node24 -->
<g id="Node000024" class="node">
<title>Node24</title>
<g id="a_Node000024"><a xlink:href="math__util_8c.html#af7b470ed76fce07b8042a47c96e5690b" target="_top" xlink:title=" ">
<polygon fill="white" stroke="#666666" points="730,-150 623,-150 623,-131 730,-131 730,-150"/>
<text text-anchor="middle" x="676.5" y="-138" font-family="Helvetica,sans-Serif" font-size="10.00">vec3f_copy_return</text>
</a>
</g>
</g>
<!-- Node4&#45;&gt;Node24 -->
<g id="edge23_Node000004_Node000024" class="edge">
<title>Node4&#45;&gt;Node24</title>
<g id="a_edge23_Node000004_Node000024"><a xlink:title=" ">
<path fill="none" stroke="#63b8ff" d="M545.03,-187.69C553.23,-185.01 562.04,-181.87 570,-178.5 586.66,-171.44 589.17,-166.15 606,-159.5 611.96,-157.15 618.31,-154.98 624.66,-153.01"/>
<polygon fill="#63b8ff" stroke="#63b8ff" points="625.98,-156.27 634.59,-150.08 624,-149.55 625.98,-156.27"/>
</a>
</g>
</g>
<!-- Node25 -->
<g id="Node000025" class="node">
<title>Node25</title>
<g id="a_Node000025"><a xlink:href="math__util_8c.html#a0e270ee67600c8c9c2f140c647d008a1" target="_top" xlink:title=" ">
<polygon fill="white" stroke="#666666" points="713.5,-113 639.5,-113 639.5,-94 713.5,-94 713.5,-113"/>
<text text-anchor="middle" x="676.5" y="-101" font-family="Helvetica,sans-Serif" font-size="10.00">vec3s_copy</text>
</a>
</g>
</g>
<!-- Node4&#45;&gt;Node25 -->
<g id="edge24_Node000004_Node000025" class="edge">
<title>Node4&#45;&gt;Node25</title>
<g id="a_edge24_Node000004_Node000025"><a xlink:title=" ">
<path fill="none" stroke="#63b8ff" d="M545.08,-190.67C553.72,-187.98 562.77,-184.09 570,-178.5 593.41,-160.41 582.15,-140.01 606,-122.5 612.96,-117.39 621.21,-113.66 629.56,-110.93"/>
<polygon fill="#63b8ff" stroke="#63b8ff" points="630.67,-114.25 639.33,-108.16 628.76,-107.52 630.67,-114.25"/>
</a>
</g>
</g>
<!-- Node6 -->
<g id="Node000006" class="node">
<title>Node6</title>
<g id="a_Node000006"><a xlink:href="collision_8c.html#ac312bf382cb40752f6b790a99e7cdcb6" target="_top" xlink:title=" ">
<polygon fill="white" stroke="#666666" points="910,-362 802,-362 802,-343 910,-343 910,-362"/>
<text text-anchor="middle" x="856" y="-350" font-family="Helvetica,sans-Serif" font-size="10.00">check_collision_yx</text>
</a>
</g>
</g>
<!-- Node5&#45;&gt;Node6 -->
<g id="edge5_Node000005_Node000006" class="edge">
<title>Node5&#45;&gt;Node6</title>
<g id="a_edge5_Node000005_Node000006"><a xlink:title=" ">
<path fill="none" stroke="#63b8ff" d="M705.55,-310.11C726.72,-317.22 756.54,-326.94 783,-334.5 790.07,-336.52 797.56,-338.53 804.94,-340.44"/>
<polygon fill="#63b8ff" stroke="#63b8ff" points="804.33,-343.9 814.89,-342.98 806.06,-337.12 804.33,-343.9"/>
</a>
</g>
</g>
<!-- Node7 -->
<g id="Node000007" class="node">
<title>Node7</title>
<g id="a_Node000007"><a xlink:href="collision_8c.html#a4b48832a90e984536a0635a016ec4f28" target="_top" xlink:title=" ">
<polygon fill="white" stroke="#666666" points="909.5,-325 802.5,-325 802.5,-306 909.5,-306 909.5,-325"/>
<text text-anchor="middle" x="856" y="-313" font-family="Helvetica,sans-Serif" font-size="10.00">check_collision_zx</text>
</a>
</g>
</g>
<!-- Node5&#45;&gt;Node7 -->
<g id="edge6_Node000005_Node000007" class="edge">
<title>Node5&#45;&gt;Node7</title>
<g id="a_edge6_Node000005_Node000007"><a xlink:title=" ">
<path fill="none" stroke="#63b8ff" d="M747.14,-306.39C761.91,-307.63 777.43,-308.94 791.94,-310.17"/>
<polygon fill="#63b8ff" stroke="#63b8ff" points="792.04,-313.69 802.3,-311.05 792.63,-306.72 792.04,-313.69"/>
</a>
</g>
</g>
<!-- Node8 -->
<g id="Node000008" class="node">
<title>Node8</title>
<g id="a_Node000008"><a xlink:href="collision_8c.html#a21fef964ab48191a1c0341954ef27a40" target="_top" xlink:title=" ">
<polygon fill="white" stroke="#666666" points="909.5,-288 802.5,-288 802.5,-269 909.5,-269 909.5,-288"/>
<text text-anchor="middle" x="856" y="-276" font-family="Helvetica,sans-Serif" font-size="10.00">check_collision_zy</text>
</a>
</g>
</g>
<!-- Node5&#45;&gt;Node8 -->
<g id="edge7_Node000005_Node000008" class="edge">
<title>Node5&#45;&gt;Node8</title>
<g id="a_edge7_Node000005_Node000008"><a xlink:title=" ">
<path fill="none" stroke="#63b8ff" d="M747.14,-291.87C762.06,-290.02 777.73,-288.08 792.36,-286.26"/>
<polygon fill="#63b8ff" stroke="#63b8ff" points="792.81,-289.74 802.3,-285.03 791.95,-282.79 792.81,-289.74"/>
</a>
</g>
</g>
<!-- Node10 -->
<g id="Node000010" class="node">
<title>Node10</title>
<g id="a_Node000010"><a xlink:href="Game_8cpp.html#a693de7d8b89fe291aafea86bc64a0a2e" target="_top" xlink:title=" ">
<polygon fill="white" stroke="#666666" points="896,-251 816,-251 816,-232 896,-232 896,-251"/>
<text text-anchor="middle" x="856" y="-239" font-family="Helvetica,sans-Serif" font-size="10.00">CM_GetActor</text>
</a>
</g>
</g>
<!-- Node9&#45;&gt;Node10 -->
<g id="edge9_Node000009_Node000010" class="edge">
<title>Node9&#45;&gt;Node10</title>
<g id="a_edge9_Node000009_Node000010"><a xlink:title=" ">
<path fill="none" stroke="#63b8ff" d="M742.59,-228.2C763.47,-230.67 786.24,-233.36 805.79,-235.68"/>
<polygon fill="#63b8ff" stroke="#63b8ff" points="805.65,-239.19 815.99,-236.88 806.47,-232.23 805.65,-239.19"/>
</a>
</g>
</g>
<!-- Node11 -->
<g id="Node000011" class="node">
<title>Node11</title>
<g id="a_Node000011"><a xlink:href="code__80005FD0_8c.html#ad301b978cdd3c4cc190b10be050d51d8" target="_top" xlink:title=" ">
<polygon fill="white" stroke="#666666" points="929,-213.5 783,-213.5 783,-183.5 929,-183.5 929,-213.5"/>
<text text-anchor="start" x="791" y="-201.5" font-family="Helvetica,sans-Serif" font-size="10.00">delete_actor_in_unexpired</text>
<text text-anchor="middle" x="856" y="-190.5" font-family="Helvetica,sans-Serif" font-size="10.00">_actor_list</text>
</a>
</g>
</g>
<!-- Node9&#45;&gt;Node11 -->
<g id="edge10_Node000009_Node000011" class="edge">
<title>Node9&#45;&gt;Node11</title>
<g id="a_edge10_Node000009_Node000011"><a xlink:title=" ">
<path fill="none" stroke="#63b8ff" d="M742.59,-212.43C752.38,-211.22 762.59,-209.95 772.69,-208.7"/>
<polygon fill="#63b8ff" stroke="#63b8ff" points="773.24,-212.16 782.73,-207.46 772.38,-205.21 773.24,-212.16"/>
</a>
</g>
</g>
<!-- Node12 -->
<g id="Node000012" class="node">
<title>Node12</title>
<g id="a_Node000012"><a xlink:href="actors_8c.html#a694ec6ef7548b8618aeb35c038d3a9b9" target="_top" xlink:title=" ">
<polygon fill="white" stroke="#666666" points="897.5,-165 814.5,-165 814.5,-146 897.5,-146 897.5,-165"/>
<text text-anchor="middle" x="856" y="-153" font-family="Helvetica,sans-Serif" font-size="10.00">destroy_actor</text>
</a>
</g>
</g>
<!-- Node9&#45;&gt;Node12 -->
<g id="edge11_Node000009_Node000012" class="edge">
<title>Node9&#45;&gt;Node12</title>
<g id="a_edge11_Node000009_Node000012"><a xlink:title=" ">
<path fill="none" stroke="#63b8ff" d="M725.52,-205.44C732.82,-202.72 740.19,-199.71 747,-196.5 763.96,-188.5 765.75,-181.86 783,-174.5 789.79,-171.61 797.12,-169.06 804.43,-166.84"/>
<polygon fill="#63b8ff" stroke="#63b8ff" points="805.66,-170.13 814.32,-164.03 803.74,-163.4 805.66,-170.13"/>
</a>
</g>
</g>
<!-- Node13 -->
<g id="Node000013" class="node">
<title>Node13</title>
<g id="a_Node000013"><a xlink:href="actors_8c.html#a12dc3ccac4c7d8569eadac0af4fd6f9f" target="_top" xlink:title=" ">
<polygon fill="white" stroke="#666666" points="1123,-165 965,-165 965,-146 1123,-146 1123,-165"/>
<text text-anchor="middle" x="1044" y="-153" font-family="Helvetica,sans-Serif" font-size="10.00">play_sound_before_despawn</text>
</a>
</g>
</g>
<!-- Node12&#45;&gt;Node13 -->
<g id="edge12_Node000012_Node000013" class="edge">
<title>Node12&#45;&gt;Node13</title>
<g id="a_edge12_Node000012_Node000013"><a xlink:title=" ">
<path fill="none" stroke="#63b8ff" d="M897.82,-155.5C914.65,-155.5 934.86,-155.5 954.77,-155.5"/>
<polygon fill="#63b8ff" stroke="#63b8ff" points="954.82,-159 964.82,-155.5 954.82,-152 954.82,-159"/>
</a>
</g>
</g>
<!-- Node14 -->
<g id="Node000014" class="node">
<title>Node14</title>
<g id="a_Node000014"><a xlink:href="external_8c.html#ae72057869772019e4464c87d4e16c682" target="_top" xlink:title=" ">
<polygon fill="white" stroke="#666666" points="1251,-165 1159,-165 1159,-146 1251,-146 1251,-165"/>
<text text-anchor="middle" x="1205" y="-153" font-family="Helvetica,sans-Serif" font-size="10.00">func_800C99E0</text>
</a>
</g>
</g>
<!-- Node13&#45;&gt;Node14 -->
<g id="edge13_Node000013_Node000014" class="edge">
<title>Node13&#45;&gt;Node14</title>
<g id="a_edge13_Node000013_Node000014"><a xlink:title=" ">
<path fill="none" stroke="#63b8ff" d="M1123.1,-155.5C1131.72,-155.5 1140.35,-155.5 1148.61,-155.5"/>
<polygon fill="#63b8ff" stroke="#63b8ff" points="1148.83,-159 1158.83,-155.5 1148.83,-152 1148.83,-159"/>
</a>
</g>
</g>
<!-- Node15 -->
<g id="Node000015" class="node">
<title>Node15</title>
<g id="a_Node000015"><a xlink:href="external_8c.html#aeb87c527482a244173df36a1f3d4f446" target="_top" xlink:title=" ">
<polygon fill="white" stroke="#666666" points="1379,-184 1287,-184 1287,-165 1379,-165 1379,-184"/>
<text text-anchor="middle" x="1333" y="-172" font-family="Helvetica,sans-Serif" font-size="10.00">func_800C21E8</text>
</a>
</g>
</g>
<!-- Node14&#45;&gt;Node15 -->
<g id="edge14_Node000014_Node000015" class="edge">
<title>Node14&#45;&gt;Node15</title>
<g id="a_edge14_Node000014_Node000015"><a xlink:title=" ">
<path fill="none" stroke="#63b8ff" d="M1251.13,-162.31C1259.46,-163.56 1268.23,-164.88 1276.81,-166.18"/>
<polygon fill="#63b8ff" stroke="#63b8ff" points="1276.35,-169.65 1286.76,-167.68 1277.39,-162.73 1276.35,-169.65"/>
</a>
</g>
</g>
<!-- Node16 -->
<g id="Node000016" class="node">
<title>Node16</title>
<g id="a_Node000016"><a xlink:href="external_8c.html#a028d40421b90c38f68ebfd5acc626f2e" target="_top" xlink:title=" ">
<polygon fill="white" stroke="#666666" points="1379,-147 1287,-147 1287,-128 1379,-128 1379,-147"/>
<text text-anchor="middle" x="1333" y="-135" font-family="Helvetica,sans-Serif" font-size="10.00">func_800C5578</text>
</a>
</g>
</g>
<!-- Node14&#45;&gt;Node16 -->
<g id="edge15_Node000014_Node000016" class="edge">
<title>Node14&#45;&gt;Node16</title>
<g id="a_edge15_Node000014_Node000016"><a xlink:title=" ">
<path fill="none" stroke="#63b8ff" d="M1251.13,-149.05C1259.46,-147.86 1268.23,-146.61 1276.81,-145.38"/>
<polygon fill="#63b8ff" stroke="#63b8ff" points="1277.35,-148.84 1286.76,-143.96 1276.36,-141.91 1277.35,-148.84"/>
</a>
</g>
</g>
<!-- Node17 -->
<g id="Node000017" class="node">
<title>Node17</title>
<g id="a_Node000017"><a xlink:href="external_8c.html#ac0fb767de7e14a03f1bcfa53f0abd23b" target="_top" xlink:title=" ">
<polygon fill="white" stroke="#666666" points="1555,-184 1415,-184 1415,-165 1555,-165 1555,-184"/>
<text text-anchor="middle" x="1485" y="-172" font-family="Helvetica,sans-Serif" font-size="10.00">delete_sound_from_bank</text>
</a>
</g>
</g>
<!-- Node16&#45;&gt;Node17 -->
<g id="edge16_Node000016_Node000017" class="edge">
<title>Node16&#45;&gt;Node17</title>
<g id="a_edge16_Node000016_Node000017"><a xlink:title=" ">
<path fill="none" stroke="#63b8ff" d="M1372.63,-147.03C1391.8,-151.76 1415.16,-157.52 1435.52,-162.54"/>
<polygon fill="#63b8ff" stroke="#63b8ff" points="1434.69,-165.94 1445.24,-164.94 1436.37,-159.15 1434.69,-165.94"/>
</a>
</g>
</g>
<!-- Node19 -->
<g id="Node000019" class="node">
<title>Node19</title>
<g id="a_Node000019"><a xlink:href="external_8c.html#ab83bd36e63f0f1baddcb2482b5ad31b0" target="_top" xlink:title=" ">
<polygon fill="white" stroke="#666666" points="1531.5,-147 1438.5,-147 1438.5,-128 1531.5,-128 1531.5,-147"/>
<text text-anchor="middle" x="1485" y="-135" font-family="Helvetica,sans-Serif" font-size="10.00">func_800C41CC</text>
</a>
</g>
</g>
<!-- Node16&#45;&gt;Node19 -->
<g id="edge18_Node000016_Node000019" class="edge">
<title>Node16&#45;&gt;Node19</title>
<g id="a_edge18_Node000016_Node000019"><a xlink:title=" ">
<path fill="none" stroke="#63b8ff" d="M1379,-137.5C1394.37,-137.5 1411.74,-137.5 1427.86,-137.5"/>
<polygon fill="#63b8ff" stroke="#63b8ff" points="1428.25,-141 1438.25,-137.5 1428.25,-134 1428.25,-141"/>
</a>
</g>
</g>
<!-- Node20 -->
<g id="Node000020" class="node">
<title>Node20</title>
<g id="a_Node000020"><a xlink:href="port__eu_8c.html#aa89dfaecca46c6d071f08c1898d1f7c9" target="_top" xlink:title=" ">
<polygon fill="white" stroke="#666666" points="1531.5,-110 1438.5,-110 1438.5,-91 1531.5,-91 1531.5,-110"/>
<text text-anchor="middle" x="1485" y="-98" font-family="Helvetica,sans-Serif" font-size="10.00">func_800CBBE8</text>
</a>
</g>
</g>
<!-- Node16&#45;&gt;Node20 -->
<g id="edge19_Node000016_Node000020" class="edge">
<title>Node16&#45;&gt;Node20</title>
<g id="a_edge19_Node000016_Node000020"><a xlink:title=" ">
<path fill="none" stroke="#63b8ff" d="M1372.63,-127.97C1391.8,-123.24 1415.16,-117.48 1435.52,-112.46"/>
<polygon fill="#63b8ff" stroke="#63b8ff" points="1436.37,-115.85 1445.24,-110.06 1434.69,-109.06 1436.37,-115.85"/>
</a>
</g>
</g>
<!-- Node18 -->
<g id="Node000018" class="node">
<title>Node18</title>
<g id="a_Node000018"><a xlink:href="external_8c.html#a358ac55e8ab5262dcae8037334be06d7" target="_top" xlink:title=" ">
<polygon fill="white" stroke="#666666" points="1683.5,-184 1591.5,-184 1591.5,-165 1683.5,-165 1683.5,-184"/>
<text text-anchor="middle" x="1637.5" y="-172" font-family="Helvetica,sans-Serif" font-size="10.00">func_800C40F0</text>
</a>
</g>
</g>
<!-- Node17&#45;&gt;Node18 -->
<g id="edge17_Node000017_Node000018" class="edge">
<title>Node17&#45;&gt;Node18</title>
<g id="a_edge17_Node000017_Node000018"><a xlink:title=" ">
<path fill="none" stroke="#63b8ff" d="M1555.08,-174.5C1563.87,-174.5 1572.78,-174.5 1581.31,-174.5"/>
<polygon fill="#63b8ff" stroke="#63b8ff" points="1581.5,-178 1591.5,-174.5 1581.5,-171 1581.5,-178"/>
</a>
</g>
</g>
<!-- Node21 -->
<g id="Node000021" class="node">
<title>Node21</title>
<g id="a_Node000021"><a xlink:href="port__eu_8c.html#af361a20d2e08f30c53a237ca481ff734" target="_top" xlink:title=" ">
<polygon fill="white" stroke="#666666" points="1684,-110 1591,-110 1591,-91 1684,-91 1684,-110"/>
<text text-anchor="middle" x="1637.5" y="-98" font-family="Helvetica,sans-Serif" font-size="10.00">func_800CBB48</text>
</a>
</g>
</g>
<!-- Node20&#45;&gt;Node21 -->
<g id="edge20_Node000020_Node000021" class="edge">
<title>Node20&#45;&gt;Node21</title>
<g id="a_edge20_Node000020_Node000021"><a xlink:title=" ">
<path fill="none" stroke="#63b8ff" d="M1531.56,-100.5C1546.96,-100.5 1564.34,-100.5 1580.46,-100.5"/>
<polygon fill="#63b8ff" stroke="#63b8ff" points="1580.83,-104 1590.83,-100.5 1580.83,-97 1580.83,-104"/>
</a>
</g>
</g>
<!-- Node22&#45;&gt;Node23 -->
<g id="edge22_Node000022_Node000023" class="edge">
<title>Node22&#45;&gt;Node23</title>
<g id="a_edge22_Node000022_Node000023"><a xlink:title=" ">
<path fill="none" stroke="#63b8ff" d="M722.27,-167.99C730.64,-165.63 739.2,-162.81 747,-159.5 764.26,-152.18 766.55,-146.5 783,-137.5 796.41,-130.17 811.58,-122.67 824.53,-116.51"/>
<polygon fill="#63b8ff" stroke="#63b8ff" points="826.38,-119.51 833.94,-112.09 823.4,-113.18 826.38,-119.51"/>
</a>
</g>
</g>
</g>
</svg>

<g id="navigator" transform="translate(0 0)" fill="#404254">
  <rect fill="#f2f5e9" fill-opacity="0.5" stroke="#606060" stroke-width=".5" x="0" y="0" width="60" height="60"/>
  <use id="zoomplus" xlink:href="#zoomPlus" x="17" y="9" onmousedown="handleZoom(evt,'in')"/>
  <use id="zoomminus" xlink:href="#zoomMin" x="42" y="9" onmousedown="handleZoom(evt,'out')"/>
  <use id="reset" xlink:href="#resetDef" x="30" y="36" onmousedown="handleReset()"/>
   <use id="arrowup" xlink:href="#arrowUp" x="0" y="0" onmousedown="handlePan(0,-1)"/>
  <use id="arrowright" xlink:href="#arrowRight" x="0" y="0" onmousedown="handlePan(1,0)"/>
  <use id="arrowdown" xlink:href="#arrowDown" x="0" y="0" onmousedown="handlePan(0,1)"/>
  <use id="arrowleft" xlink:href="#arrowLeft" x="0" y="0" onmousedown="handlePan(-1,0)"/>
</g>
<svg viewBox="0 0 15 15" width="100%" height="30px" preserveAspectRatio="xMaxYMin meet">
 <g id="arrow_out" transform="scale(0.3 0.3)">
  <a xlink:href="actors_8c_a0d9197f8df1df3e8834fbaf37e9e2115_cgraph_org.svg" target="_base">
   <rect id="button" ry="5" rx="5" y="6" x="6" height="38" width="38"
        fill="#f2f5e9" fill-opacity="0.5" stroke="#606060" stroke-width="1.0"/>
   <path id="arrow"
     d="M 11.500037,31.436501 C 11.940474,20.09759 22.043105,11.32322 32.158766,21.979434 L 37.068811,17.246167 C 37.068811,17.246167 37.088388,32 37.088388,32 L 22.160133,31.978069 C 22.160133,31.978069 26.997745,27.140456 26.997745,27.140456 C 18.528582,18.264221 13.291696,25.230495 11.500037,31.436501 z"
     style="fill:#404040;"/>
  </a>
 </g>
</svg>

<style type='text/css'>
<![CDATA[
[data-mouse-over-selected='false'] { opacity: 0.7; }
[data-mouse-over-selected='true']  { opacity: 1.0; }
]]>
</style>
<script type="application/ecmascript"><![CDATA[
document.addEventListener('DOMContentLoaded', (event) => {
  highlightEdges();
  highlightAdjacentNodes();
});
]]></script>
</svg>
