<?xml version="1.0" encoding="UTF-8" standalone="no"?>
<!DOCTYPE svg PUBLIC "-//W3C//DTD SVG 1.1//EN"
 "http://www.w3.org/Graphics/SVG/1.1/DTD/svg11.dtd">
<!-- Generated by graphviz version 2.43.0 (0)
 -->
<!-- Title: func_802B2914 Pages: 1 -->
<svg width="1581pt" height="428pt"
 viewBox="0.00 0.00 1581.00 428.00" xmlns="http://www.w3.org/2000/svg" xmlns:xlink="http://www.w3.org/1999/xlink">
<g id="graph0" class="graph" transform="scale(1 1) rotate(0) translate(4 424)">
<title>func_802B2914</title>
<!-- Node1 -->
<g id="Node000001" class="node">
<title>Node1</title>
<g id="a_Node000001"><a xlink:title=" ">
<polygon fill="#999999" stroke="#666666" points="92,-111 0,-111 0,-92 92,-92 92,-111"/>
<text text-anchor="middle" x="46" y="-99" font-family="Helvetica,sans-Serif" font-size="10.00">func_802B2914</text>
</a>
</g>
</g>
<!-- Node2 -->
<g id="Node000002" class="node">
<title>Node2</title>
<g id="a_Node000002"><a xlink:href="collision_8c.html#a79293dbdae52d290fdaf8dde9d5244ca" target="_top" xlink:title=" ">
<polygon fill="white" stroke="#666666" points="266.5,-278 141.5,-278 141.5,-259 266.5,-259 266.5,-278"/>
<text text-anchor="middle" x="204" y="-266" font-family="Helvetica,sans-Serif" font-size="10.00">actor_terrain_collision</text>
</a>
</g>
</g>
<!-- Node1&#45;&gt;Node2 -->
<g id="edge1_Node000001_Node000002" class="edge">
<title>Node1&#45;&gt;Node2</title>
<g id="a_edge1_Node000001_Node000002"><a xlink:title=" ">
<path fill="none" stroke="#63b8ff" d="M56.29,-111.45C82.04,-139.01 154.54,-216.62 186.97,-251.34"/>
<polygon fill="#63b8ff" stroke="#63b8ff" points="184.57,-253.9 193.95,-258.81 189.68,-249.12 184.57,-253.9"/>
</a>
</g>
</g>
<!-- Node6 -->
<g id="Node000006" class="node">
<title>Node6</title>
<g id="a_Node000006"><a xlink:href="actors_8c.html#a91fb2e4e37e7c72fea918fe2c1bb4eaf" target="_top" xlink:title=" ">
<polygon fill="white" stroke="#666666" points="274,-167 134,-167 134,-148 274,-148 274,-167"/>
<text text-anchor="middle" x="204" y="-155" font-family="Helvetica,sans-Serif" font-size="10.00">add_actor_to_empty_slot</text>
</a>
</g>
</g>
<!-- Node1&#45;&gt;Node6 -->
<g id="edge5_Node000001_Node000006" class="edge">
<title>Node1&#45;&gt;Node6</title>
<g id="a_edge5_Node000001_Node000006"><a xlink:title=" ">
<path fill="none" stroke="#63b8ff" d="M65.59,-111.16C81.75,-119.27 105.98,-130.75 128,-138.5 135.05,-140.98 142.57,-143.28 150.04,-145.36"/>
<polygon fill="#63b8ff" stroke="#63b8ff" points="149.2,-148.76 159.77,-147.96 151.01,-142 149.2,-148.76"/>
</a>
</g>
</g>
<!-- Node32 -->
<g id="Node000032" class="node">
<title>Node32</title>
<g id="a_Node000032"><a xlink:href="Game_8cpp.html#a04c2e1c30af14b6e8354d7a9be00e39c" target="_top" xlink:title=" ">
<polygon fill="white" stroke="#666666" points="259,-130 149,-130 149,-111 259,-111 259,-130"/>
<text text-anchor="middle" x="204" y="-118" font-family="Helvetica,sans-Serif" font-size="10.00">CM_FindActorIndex</text>
</a>
</g>
</g>
<!-- Node1&#45;&gt;Node32 -->
<g id="edge31_Node000001_Node000032" class="edge">
<title>Node1&#45;&gt;Node32</title>
<g id="a_edge31_Node000001_Node000032"><a xlink:title=" ">
<path fill="none" stroke="#63b8ff" d="M92.12,-107C106.66,-108.77 123.07,-110.77 138.72,-112.67"/>
<polygon fill="#63b8ff" stroke="#63b8ff" points="138.51,-116.17 148.86,-113.91 139.36,-109.22 138.51,-116.17"/>
</a>
</g>
</g>
<!-- Node33 -->
<g id="Node000033" class="node">
<title>Node33</title>
<g id="a_Node000033"><a xlink:href="external_8c.html#a2be9efc97a92e19d02aaee90d676acc1" target="_top" xlink:title=" ">
<polygon fill="white" stroke="#666666" points="250,-93 158,-93 158,-74 250,-74 250,-93"/>
<text text-anchor="middle" x="204" y="-81" font-family="Helvetica,sans-Serif" font-size="10.00">func_800C9060</text>
</a>
</g>
</g>
<!-- Node1&#45;&gt;Node33 -->
<g id="edge32_Node000001_Node000033" class="edge">
<title>Node1&#45;&gt;Node33</title>
<g id="a_edge32_Node000001_Node000033"><a xlink:title=" ">
<path fill="none" stroke="#63b8ff" d="M92.12,-96.29C109.58,-94.28 129.74,-91.95 148.04,-89.84"/>
<polygon fill="#63b8ff" stroke="#63b8ff" points="148.45,-93.32 157.98,-88.69 147.64,-86.36 148.45,-93.32"/>
</a>
</g>
</g>
<!-- Node35 -->
<g id="Node000035" class="node">
<title>Node35</title>
<g id="a_Node000035"><a xlink:href="actors__extended_8c.html#a78e98c146f1f4dd6e3608016486172a4" target="_top" xlink:title=" ">
<polygon fill="white" stroke="#666666" points="250,-56 158,-56 158,-37 250,-37 250,-56"/>
<text text-anchor="middle" x="204" y="-44" font-family="Helvetica,sans-Serif" font-size="10.00">func_802B4E30</text>
</a>
</g>
</g>
<!-- Node1&#45;&gt;Node35 -->
<g id="edge34_Node000001_Node000035" class="edge">
<title>Node1&#45;&gt;Node35</title>
<g id="a_edge34_Node000001_Node000035"><a xlink:title=" ">
<path fill="none" stroke="#63b8ff" d="M65.24,-91.93C81.39,-83.77 105.78,-72.16 128,-64.5 134.38,-62.3 141.15,-60.27 147.92,-58.43"/>
<polygon fill="#63b8ff" stroke="#63b8ff" points="148.98,-61.77 157.78,-55.86 147.22,-54.99 148.98,-61.77"/>
</a>
</g>
</g>
<!-- Node36 -->
<g id="Node000036" class="node">
<title>Node36</title>
<g id="a_Node000036"><a xlink:href="math__util_8c.html#ad5bb0138c68b50f119d3cb7966f522b7" target="_top" xlink:title=" ">
<polygon fill="white" stroke="#666666" points="280,-19 128,-19 128,0 280,0 280,-19"/>
<text text-anchor="middle" x="204" y="-7" font-family="Helvetica,sans-Serif" font-size="10.00">mtxf_translate_vec3f_mat3</text>
</a>
</g>
</g>
<!-- Node1&#45;&gt;Node36 -->
<g id="edge35_Node000001_Node000036" class="edge">
<title>Node1&#45;&gt;Node36</title>
<g id="a_edge35_Node000001_Node000036"><a xlink:title=" ">
<path fill="none" stroke="#63b8ff" d="M54.62,-91.91C67.82,-75.99 96.54,-44.2 128,-27.5 131.49,-25.65 135.18,-23.98 138.96,-22.48"/>
<polygon fill="#63b8ff" stroke="#63b8ff" points="140.27,-25.74 148.53,-19.1 137.94,-19.13 140.27,-25.74"/>
</a>
</g>
</g>
<!-- Node3 -->
<g id="Node000003" class="node">
<title>Node3</title>
<g id="a_Node000003"><a xlink:href="collision_8c.html#a6ea8b20f38e63c1b1157923085c8e306" target="_top" xlink:title=" ">
<polygon fill="white" stroke="#666666" points="459,-345.5 316,-345.5 316,-315.5 459,-315.5 459,-345.5"/>
<text text-anchor="start" x="324" y="-333.5" font-family="Helvetica,sans-Serif" font-size="10.00">is_colliding_with_drivable</text>
<text text-anchor="middle" x="387.5" y="-322.5" font-family="Helvetica,sans-Serif" font-size="10.00">_surface</text>
</a>
</g>
</g>
<!-- Node2&#45;&gt;Node3 -->
<g id="edge2_Node000002_Node000003" class="edge">
<title>Node2&#45;&gt;Node3</title>
<g id="a_edge2_Node000002_Node000003"><a xlink:title=" ">
<path fill="none" stroke="#63b8ff" d="M232.82,-278.04C255.27,-285.73 287.66,-296.83 316,-306.5 321.28,-308.3 326.78,-310.18 332.27,-312.05"/>
<polygon fill="#63b8ff" stroke="#63b8ff" points="331.52,-315.49 342.12,-315.4 333.78,-308.87 331.52,-315.49"/>
</a>
</g>
</g>
<!-- Node4 -->
<g id="Node000004" class="node">
<title>Node4</title>
<g id="a_Node000004"><a xlink:href="collision_8c.html#a94970a4a6ca911f74e59114decd74557" target="_top" xlink:title=" ">
<polygon fill="white" stroke="#666666" points="452,-297 323,-297 323,-278 452,-278 452,-297"/>
<text text-anchor="middle" x="387.5" y="-285" font-family="Helvetica,sans-Serif" font-size="10.00">is_colliding_with_wall1</text>
</a>
</g>
</g>
<!-- Node2&#45;&gt;Node4 -->
<g id="edge3_Node000002_Node000004" class="edge">
<title>Node2&#45;&gt;Node4</title>
<g id="a_edge3_Node000002_Node000004"><a xlink:title=" ">
<path fill="none" stroke="#63b8ff" d="M266.7,-274.96C281.54,-276.51 297.53,-278.19 312.85,-279.79"/>
<polygon fill="#63b8ff" stroke="#63b8ff" points="312.49,-283.27 322.8,-280.83 313.22,-276.31 312.49,-283.27"/>
</a>
</g>
</g>
<!-- Node5 -->
<g id="Node000005" class="node">
<title>Node5</title>
<g id="a_Node000005"><a xlink:href="collision_8c.html#a23443870e0d3a6797de707a89ded7ef0" target="_top" xlink:title=" ">
<polygon fill="white" stroke="#666666" points="452,-260 323,-260 323,-241 452,-241 452,-260"/>
<text text-anchor="middle" x="387.5" y="-248" font-family="Helvetica,sans-Serif" font-size="10.00">is_colliding_with_wall2</text>
</a>
</g>
</g>
<!-- Node2&#45;&gt;Node5 -->
<g id="edge4_Node000002_Node000005" class="edge">
<title>Node2&#45;&gt;Node5</title>
<g id="a_edge4_Node000002_Node000005"><a xlink:title=" ">
<path fill="none" stroke="#63b8ff" d="M266.7,-262.38C281.54,-260.91 297.53,-259.32 312.85,-257.8"/>
<polygon fill="#63b8ff" stroke="#63b8ff" points="313.2,-261.29 322.8,-256.82 312.51,-254.32 313.2,-261.29"/>
</a>
</g>
</g>
<!-- Node7 -->
<g id="Node000007" class="node">
<title>Node7</title>
<g id="a_Node000007"><a xlink:href="actors_8c.html#a39c023177b5a7686cdd1fc65b8b953e1" target="_top" xlink:title=" ">
<polygon fill="white" stroke="#666666" points="418.5,-223 356.5,-223 356.5,-204 418.5,-204 418.5,-223"/>
<text text-anchor="middle" x="387.5" y="-211" font-family="Helvetica,sans-Serif" font-size="10.00">actor_init</text>
</a>
</g>
</g>
<!-- Node6&#45;&gt;Node7 -->
<g id="edge6_Node000006_Node000007" class="edge">
<title>Node6&#45;&gt;Node7</title>
<g id="a_edge6_Node000006_Node000007"><a xlink:title=" ">
<path fill="none" stroke="#63b8ff" d="M232.23,-167.07C254.61,-174.82 287.21,-185.83 316,-194.5 325.83,-197.46 336.5,-200.45 346.49,-203.15"/>
<polygon fill="#63b8ff" stroke="#63b8ff" points="345.63,-206.55 356.2,-205.75 347.44,-199.79 345.63,-206.55"/>
</a>
</g>
</g>
<!-- Node29 -->
<g id="Node000029" class="node">
<title>Node29</title>
<g id="a_Node000029"><a xlink:href="Game_8cpp.html#acea5cfd9ab22f745bd6627869b95a62e" target="_top" xlink:title=" ">
<polygon fill="white" stroke="#666666" points="443.5,-186 331.5,-186 331.5,-167 443.5,-167 443.5,-186"/>
<text text-anchor="middle" x="387.5" y="-174" font-family="Helvetica,sans-Serif" font-size="10.00">CM_ActorBeginPlay</text>
</a>
</g>
</g>
<!-- Node6&#45;&gt;Node29 -->
<g id="edge28_Node000006_Node000029" class="edge">
<title>Node6&#45;&gt;Node29</title>
<g id="a_edge28_Node000006_Node000029"><a xlink:title=" ">
<path fill="none" stroke="#63b8ff" d="M274.14,-164.74C289.52,-166.35 305.78,-168.05 321.01,-169.64"/>
<polygon fill="#63b8ff" stroke="#63b8ff" points="321.06,-173.17 331.37,-170.73 321.79,-166.21 321.06,-173.17"/>
</a>
</g>
</g>
<!-- Node30 -->
<g id="Node000030" class="node">
<title>Node30</title>
<g id="a_Node000030"><a xlink:href="Game_8cpp.html#a42f23077aaa52cb3ea5c7803b7dd6816" target="_top" xlink:title=" ">
<polygon fill="white" stroke="#666666" points="440.5,-149 334.5,-149 334.5,-130 440.5,-130 440.5,-149"/>
<text text-anchor="middle" x="387.5" y="-137" font-family="Helvetica,sans-Serif" font-size="10.00">CM_AddBaseActor</text>
</a>
</g>
</g>
<!-- Node6&#45;&gt;Node30 -->
<g id="edge29_Node000006_Node000030" class="edge">
<title>Node6&#45;&gt;Node30</title>
<g id="a_edge29_Node000006_Node000030"><a xlink:title=" ">
<path fill="none" stroke="#63b8ff" d="M274.14,-150.64C290.57,-149.01 308.01,-147.28 324.12,-145.69"/>
<polygon fill="#63b8ff" stroke="#63b8ff" points="324.89,-149.13 334.5,-144.66 324.2,-142.16 324.89,-149.13"/>
</a>
</g>
</g>
<!-- Node31 -->
<g id="Node000031" class="node">
<title>Node31</title>
<g id="a_Node000031"><a xlink:href="Game_8cpp.html#a0841ffe9a66e95aca42438b9d8ffc3d3" target="_top" xlink:title=" ">
<polygon fill="white" stroke="#666666" points="438,-112 337,-112 337,-93 438,-93 438,-112"/>
<text text-anchor="middle" x="387.5" y="-100" font-family="Helvetica,sans-Serif" font-size="10.00">CM_GetActorSize</text>
</a>
</g>
</g>
<!-- Node6&#45;&gt;Node31 -->
<g id="edge30_Node000006_Node000031" class="edge">
<title>Node6&#45;&gt;Node31</title>
<g id="a_edge30_Node000006_Node000031"><a xlink:title=" ">
<path fill="none" stroke="#63b8ff" d="M249.51,-147.91C259.66,-145.26 270.31,-142.1 280,-138.5 296.77,-132.27 299.24,-126.75 316,-120.5 321.54,-118.44 327.4,-116.53 333.29,-114.78"/>
<polygon fill="#63b8ff" stroke="#63b8ff" points="334.49,-118.08 343.17,-112.01 332.6,-111.34 334.49,-118.08"/>
</a>
</g>
</g>
<!-- Node8 -->
<g id="Node000008" class="node">
<title>Node8</title>
<g id="a_Node000008"><a xlink:href="collision_8c.html#a37aa55b3768d001533ad75e7f1b8388a" target="_top" xlink:title=" ">
<polygon fill="white" stroke="#666666" points="636,-364 495,-364 495,-345 636,-345 636,-364"/>
<text text-anchor="middle" x="565.5" y="-352" font-family="Helvetica,sans-Serif" font-size="10.00">check_bounding_collision</text>
</a>
</g>
</g>
<!-- Node7&#45;&gt;Node8 -->
<g id="edge7_Node000007_Node000008" class="edge">
<title>Node7&#45;&gt;Node8</title>
<g id="a_edge7_Node000007_Node000008"><a xlink:title=" ">
<path fill="none" stroke="#63b8ff" d="M418.84,-216.6C432.04,-219.07 447.17,-223.52 459,-231.5 481.4,-246.61 477.72,-259.72 495,-280.5 511.93,-300.85 532.91,-322.79 547.37,-337.45"/>
<polygon fill="#63b8ff" stroke="#63b8ff" points="545.13,-340.17 554.66,-344.79 550.1,-335.23 545.13,-340.17"/>
</a>
</g>
</g>
<!-- Node12 -->
<g id="Node000012" class="node">
<title>Node12</title>
<g id="a_Node000012"><a xlink:href="actors_8c.html#a1a9bccb586242555a9123ebd4ab70f2a" target="_top" xlink:title=" ">
<polygon fill="white" stroke="#666666" points="631.5,-271.5 499.5,-271.5 499.5,-241.5 631.5,-241.5 631.5,-271.5"/>
<text text-anchor="start" x="507.5" y="-259.5" font-family="Helvetica,sans-Serif" font-size="10.00">cleanup_red_and_green</text>
<text text-anchor="middle" x="565.5" y="-248.5" font-family="Helvetica,sans-Serif" font-size="10.00">_shells</text>
</a>
</g>
</g>
<!-- Node7&#45;&gt;Node12 -->
<g id="edge11_Node000007_Node000012" class="edge">
<title>Node7&#45;&gt;Node12</title>
<g id="a_edge11_Node000007_Node000012"><a xlink:title=" ">
<path fill="none" stroke="#63b8ff" d="M418.76,-220.89C439.24,-225.9 467.19,-232.72 493.13,-239.06"/>
<polygon fill="#63b8ff" stroke="#63b8ff" points="492.42,-242.49 502.96,-241.47 494.08,-235.69 492.42,-242.49"/>
</a>
</g>
</g>
<!-- Node25 -->
<g id="Node000025" class="node">
<title>Node25</title>
<g id="a_Node000025"><a xlink:href="collision_8c.html#ad72fef3ffe32191d73b1822f512ebf3f" target="_top" xlink:title=" ">
<polygon fill="white" stroke="#666666" points="613,-223 518,-223 518,-204 613,-204 613,-223"/>
<text text-anchor="middle" x="565.5" y="-211" font-family="Helvetica,sans-Serif" font-size="10.00">func_802AAAAC</text>
</a>
</g>
</g>
<!-- Node7&#45;&gt;Node25 -->
<g id="edge24_Node000007_Node000025" class="edge">
<title>Node7&#45;&gt;Node25</title>
<g id="a_edge24_Node000007_Node000025"><a xlink:title=" ">
<path fill="none" stroke="#63b8ff" d="M418.76,-213.5C443.11,-213.5 478.03,-213.5 507.58,-213.5"/>
<polygon fill="#63b8ff" stroke="#63b8ff" points="507.78,-217 517.78,-213.5 507.78,-210 507.78,-217"/>
</a>
</g>
</g>
<!-- Node27 -->
<g id="Node000027" class="node">
<title>Node27</title>
<g id="a_Node000027"><a xlink:href="math__util_8c.html#af7b470ed76fce07b8042a47c96e5690b" target="_top" xlink:title=" ">
<polygon fill="white" stroke="#666666" points="619,-186 512,-186 512,-167 619,-167 619,-186"/>
<text text-anchor="middle" x="565.5" y="-174" font-family="Helvetica,sans-Serif" font-size="10.00">vec3f_copy_return</text>
</a>
</g>
</g>
<!-- Node7&#45;&gt;Node27 -->
<g id="edge26_Node000007_Node000027" class="edge">
<title>Node7&#45;&gt;Node27</title>
<g id="a_edge26_Node000007_Node000027"><a xlink:title=" ">
<path fill="none" stroke="#63b8ff" d="M418.76,-207.14C443.57,-201.92 479.35,-194.4 509.24,-188.12"/>
<polygon fill="#63b8ff" stroke="#63b8ff" points="510.07,-191.52 519.13,-186.04 508.63,-184.67 510.07,-191.52"/>
</a>
</g>
</g>
<!-- Node28 -->
<g id="Node000028" class="node">
<title>Node28</title>
<g id="a_Node000028"><a xlink:href="math__util_8c.html#a0e270ee67600c8c9c2f140c647d008a1" target="_top" xlink:title=" ">
<polygon fill="white" stroke="#666666" points="602.5,-149 528.5,-149 528.5,-130 602.5,-130 602.5,-149"/>
<text text-anchor="middle" x="565.5" y="-137" font-family="Helvetica,sans-Serif" font-size="10.00">vec3s_copy</text>
</a>
</g>
</g>
<!-- Node7&#45;&gt;Node28 -->
<g id="edge27_Node000007_Node000028" class="edge">
<title>Node7&#45;&gt;Node28</title>
<g id="a_edge27_Node000007_Node000028"><a xlink:title=" ">
<path fill="none" stroke="#63b8ff" d="M418.71,-209.05C431.73,-206.23 446.76,-201.69 459,-194.5 478.78,-182.88 475.16,-169.02 495,-157.5 502.2,-153.32 510.38,-150.09 518.53,-147.61"/>
<polygon fill="#63b8ff" stroke="#63b8ff" points="519.67,-150.93 528.4,-144.93 517.83,-144.17 519.67,-150.93"/>
</a>
</g>
</g>
<!-- Node9 -->
<g id="Node000009" class="node">
<title>Node9</title>
<g id="a_Node000009"><a xlink:href="collision_8c.html#ac312bf382cb40752f6b790a99e7cdcb6" target="_top" xlink:title=" ">
<polygon fill="white" stroke="#666666" points="799,-420 691,-420 691,-401 799,-401 799,-420"/>
<text text-anchor="middle" x="745" y="-408" font-family="Helvetica,sans-Serif" font-size="10.00">check_collision_yx</text>
</a>
</g>
</g>
<!-- Node8&#45;&gt;Node9 -->
<g id="edge8_Node000008_Node000009" class="edge">
<title>Node8&#45;&gt;Node9</title>
<g id="a_edge8_Node000008_Node000009"><a xlink:title=" ">
<path fill="none" stroke="#63b8ff" d="M590.99,-364.12C612.22,-372.26 643.88,-383.94 672,-392.5 678.63,-394.52 685.64,-396.48 692.6,-398.32"/>
<polygon fill="#63b8ff" stroke="#63b8ff" points="692.12,-401.82 702.68,-400.93 693.88,-395.04 692.12,-401.82"/>
</a>
</g>
</g>
<!-- Node10 -->
<g id="Node000010" class="node">
<title>Node10</title>
<g id="a_Node000010"><a xlink:href="collision_8c.html#a4b48832a90e984536a0635a016ec4f28" target="_top" xlink:title=" ">
<polygon fill="white" stroke="#666666" points="798.5,-383 691.5,-383 691.5,-364 798.5,-364 798.5,-383"/>
<text text-anchor="middle" x="745" y="-371" font-family="Helvetica,sans-Serif" font-size="10.00">check_collision_zx</text>
</a>
</g>
</g>
<!-- Node8&#45;&gt;Node10 -->
<g id="edge9_Node000008_Node000010" class="edge">
<title>Node8&#45;&gt;Node10</title>
<g id="a_edge9_Node000008_Node000010"><a xlink:title=" ">
<path fill="none" stroke="#63b8ff" d="M636.14,-361.95C650.91,-363.54 666.43,-365.2 680.94,-366.75"/>
<polygon fill="#63b8ff" stroke="#63b8ff" points="680.98,-370.27 691.3,-367.86 681.73,-363.31 680.98,-370.27"/>
</a>
</g>
</g>
<!-- Node11 -->
<g id="Node000011" class="node">
<title>Node11</title>
<g id="a_Node000011"><a xlink:href="collision_8c.html#a21fef964ab48191a1c0341954ef27a40" target="_top" xlink:title=" ">
<polygon fill="white" stroke="#666666" points="798.5,-346 691.5,-346 691.5,-327 798.5,-327 798.5,-346"/>
<text text-anchor="middle" x="745" y="-334" font-family="Helvetica,sans-Serif" font-size="10.00">check_collision_zy</text>
</a>
</g>
</g>
<!-- Node8&#45;&gt;Node11 -->
<g id="edge10_Node000008_Node000011" class="edge">
<title>Node8&#45;&gt;Node11</title>
<g id="a_edge10_Node000008_Node000011"><a xlink:title=" ">
<path fill="none" stroke="#63b8ff" d="M636.14,-347.44C650.91,-345.94 666.43,-344.37 680.94,-342.9"/>
<polygon fill="#63b8ff" stroke="#63b8ff" points="681.7,-346.34 691.3,-341.84 681,-339.37 681.7,-346.34"/>
</a>
</g>
</g>
<!-- Node13 -->
<g id="Node000013" class="node">
<title>Node13</title>
<g id="a_Node000013"><a xlink:href="Game_8cpp.html#a693de7d8b89fe291aafea86bc64a0a2e" target="_top" xlink:title=" ">
<polygon fill="white" stroke="#666666" points="785,-309 705,-309 705,-290 785,-290 785,-309"/>
<text text-anchor="middle" x="745" y="-297" font-family="Helvetica,sans-Serif" font-size="10.00">CM_GetActor</text>
</a>
</g>
</g>
<!-- Node12&#45;&gt;Node13 -->
<g id="edge12_Node000012_Node000013" class="edge">
<title>Node12&#45;&gt;Node13</title>
<g id="a_edge12_Node000012_Node000013"><a xlink:title=" ">
<path fill="none" stroke="#63b8ff" d="M628.58,-271.54C650.4,-276.83 674.6,-282.69 695.17,-287.67"/>
<polygon fill="#63b8ff" stroke="#63b8ff" points="694.41,-291.09 704.96,-290.04 696.06,-284.29 694.41,-291.09"/>
</a>
</g>
</g>
<!-- Node14 -->
<g id="Node000014" class="node">
<title>Node14</title>
<g id="a_Node000014"><a xlink:href="code__80005FD0_8c.html#ad301b978cdd3c4cc190b10be050d51d8" target="_top" xlink:title=" ">
<polygon fill="white" stroke="#666666" points="818,-271.5 672,-271.5 672,-241.5 818,-241.5 818,-271.5"/>
<text text-anchor="start" x="680" y="-259.5" font-family="Helvetica,sans-Serif" font-size="10.00">delete_actor_in_unexpired</text>
<text text-anchor="middle" x="745" y="-248.5" font-family="Helvetica,sans-Serif" font-size="10.00">_actor_list</text>
</a>
</g>
</g>
<!-- Node12&#45;&gt;Node14 -->
<g id="edge13_Node000012_Node000014" class="edge">
<title>Node12&#45;&gt;Node14</title>
<g id="a_edge13_Node000012_Node000014"><a xlink:title=" ">
<path fill="none" stroke="#63b8ff" d="M631.59,-256.5C641.38,-256.5 651.59,-256.5 661.69,-256.5"/>
<polygon fill="#63b8ff" stroke="#63b8ff" points="661.73,-260 671.73,-256.5 661.73,-253 661.73,-260"/>
</a>
</g>
</g>
<!-- Node15 -->
<g id="Node000015" class="node">
<title>Node15</title>
<g id="a_Node000015"><a xlink:href="actors_8c.html#a694ec6ef7548b8618aeb35c038d3a9b9" target="_top" xlink:title=" ">
<polygon fill="white" stroke="#666666" points="786.5,-223 703.5,-223 703.5,-204 786.5,-204 786.5,-223"/>
<text text-anchor="middle" x="745" y="-211" font-family="Helvetica,sans-Serif" font-size="10.00">destroy_actor</text>
</a>
</g>
</g>
<!-- Node12&#45;&gt;Node15 -->
<g id="edge14_Node000012_Node000015" class="edge">
<title>Node12&#45;&gt;Node15</title>
<g id="a_edge14_Node000012_Node000015"><a xlink:title=" ">
<path fill="none" stroke="#63b8ff" d="M628.58,-241.46C650.32,-236.2 674.41,-230.36 694.93,-225.39"/>
<polygon fill="#63b8ff" stroke="#63b8ff" points="695.8,-228.78 704.69,-223.02 694.15,-221.98 695.8,-228.78"/>
</a>
</g>
</g>
<!-- Node16 -->
<g id="Node000016" class="node">
<title>Node16</title>
<g id="a_Node000016"><a xlink:href="actors_8c.html#a12dc3ccac4c7d8569eadac0af4fd6f9f" target="_top" xlink:title=" ">
<polygon fill="white" stroke="#666666" points="1012,-223 854,-223 854,-204 1012,-204 1012,-223"/>
<text text-anchor="middle" x="933" y="-211" font-family="Helvetica,sans-Serif" font-size="10.00">play_sound_before_despawn</text>
</a>
</g>
</g>
<!-- Node15&#45;&gt;Node16 -->
<g id="edge15_Node000015_Node000016" class="edge">
<title>Node15&#45;&gt;Node16</title>
<g id="a_edge15_Node000015_Node000016"><a xlink:title=" ">
<path fill="none" stroke="#63b8ff" d="M786.82,-213.5C803.65,-213.5 823.86,-213.5 843.77,-213.5"/>
<polygon fill="#63b8ff" stroke="#63b8ff" points="843.82,-217 853.82,-213.5 843.82,-210 843.82,-217"/>
</a>
</g>
</g>
<!-- Node17 -->
<g id="Node000017" class="node">
<title>Node17</title>
<g id="a_Node000017"><a xlink:href="external_8c.html#ae72057869772019e4464c87d4e16c682" target="_top" xlink:title=" ">
<polygon fill="white" stroke="#666666" points="1140,-223 1048,-223 1048,-204 1140,-204 1140,-223"/>
<text text-anchor="middle" x="1094" y="-211" font-family="Helvetica,sans-Serif" font-size="10.00">func_800C99E0</text>
</a>
</g>
</g>
<!-- Node16&#45;&gt;Node17 -->
<g id="edge16_Node000016_Node000017" class="edge">
<title>Node16&#45;&gt;Node17</title>
<g id="a_edge16_Node000016_Node000017"><a xlink:title=" ">
<path fill="none" stroke="#63b8ff" d="M1012.1,-213.5C1020.72,-213.5 1029.35,-213.5 1037.61,-213.5"/>
<polygon fill="#63b8ff" stroke="#63b8ff" points="1037.83,-217 1047.83,-213.5 1037.83,-210 1037.83,-217"/>
</a>
</g>
</g>
<!-- Node18 -->
<g id="Node000018" class="node">
<title>Node18</title>
<g id="a_Node000018"><a xlink:href="external_8c.html#aeb87c527482a244173df36a1f3d4f446" target="_top" xlink:title=" ">
<polygon fill="white" stroke="#666666" points="1268,-242 1176,-242 1176,-223 1268,-223 1268,-242"/>
<text text-anchor="middle" x="1222" y="-230" font-family="Helvetica,sans-Serif" font-size="10.00">func_800C21E8</text>
</a>
</g>
</g>
<!-- Node17&#45;&gt;Node18 -->
<g id="edge17_Node000017_Node000018" class="edge">
<title>Node17&#45;&gt;Node18</title>
<g id="a_edge17_Node000017_Node000018"><a xlink:title=" ">
<path fill="none" stroke="#63b8ff" d="M1140.13,-220.31C1148.46,-221.56 1157.23,-222.88 1165.81,-224.18"/>
<polygon fill="#63b8ff" stroke="#63b8ff" points="1165.35,-227.65 1175.76,-225.68 1166.39,-220.73 1165.35,-227.65"/>
</a>
</g>
</g>
<!-- Node19 -->
<g id="Node000019" class="node">
<title>Node19</title>
<g id="a_Node000019"><a xlink:href="external_8c.html#a028d40421b90c38f68ebfd5acc626f2e" target="_top" xlink:title=" ">
<polygon fill="white" stroke="#666666" points="1268,-205 1176,-205 1176,-186 1268,-186 1268,-205"/>
<text text-anchor="middle" x="1222" y="-193" font-family="Helvetica,sans-Serif" font-size="10.00">func_800C5578</text>
</a>
</g>
</g>
<!-- Node17&#45;&gt;Node19 -->
<g id="edge18_Node000017_Node000019" class="edge">
<title>Node17&#45;&gt;Node19</title>
<g id="a_edge18_Node000017_Node000019"><a xlink:title=" ">
<path fill="none" stroke="#63b8ff" d="M1140.13,-207.05C1148.46,-205.86 1157.23,-204.61 1165.81,-203.38"/>
<polygon fill="#63b8ff" stroke="#63b8ff" points="1166.35,-206.84 1175.76,-201.96 1165.36,-199.91 1166.35,-206.84"/>
</a>
</g>
</g>
<!-- Node20 -->
<g id="Node000020" class="node">
<title>Node20</title>
<g id="a_Node000020"><a xlink:href="external_8c.html#ac0fb767de7e14a03f1bcfa53f0abd23b" target="_top" xlink:title=" ">
<polygon fill="white" stroke="#666666" points="1444,-242 1304,-242 1304,-223 1444,-223 1444,-242"/>
<text text-anchor="middle" x="1374" y="-230" font-family="Helvetica,sans-Serif" font-size="10.00">delete_sound_from_bank</text>
</a>
</g>
</g>
<!-- Node19&#45;&gt;Node20 -->
<g id="edge19_Node000019_Node000020" class="edge">
<title>Node19&#45;&gt;Node20</title>
<g id="a_edge19_Node000019_Node000020"><a xlink:title=" ">
<path fill="none" stroke="#63b8ff" d="M1261.63,-205.03C1280.8,-209.76 1304.16,-215.52 1324.52,-220.54"/>
<polygon fill="#63b8ff" stroke="#63b8ff" points="1323.69,-223.94 1334.24,-222.94 1325.37,-217.15 1323.69,-223.94"/>
</a>
</g>
</g>
<!-- Node22 -->
<g id="Node000022" class="node">
<title>Node22</title>
<g id="a_Node000022"><a xlink:href="external_8c.html#ab83bd36e63f0f1baddcb2482b5ad31b0" target="_top" xlink:title=" ">
<polygon fill="white" stroke="#666666" points="1420.5,-205 1327.5,-205 1327.5,-186 1420.5,-186 1420.5,-205"/>
<text text-anchor="middle" x="1374" y="-193" font-family="Helvetica,sans-Serif" font-size="10.00">func_800C41CC</text>
</a>
</g>
</g>
<!-- Node19&#45;&gt;Node22 -->
<g id="edge21_Node000019_Node000022" class="edge">
<title>Node19&#45;&gt;Node22</title>
<g id="a_edge21_Node000019_Node000022"><a xlink:title=" ">
<path fill="none" stroke="#63b8ff" d="M1268,-195.5C1283.37,-195.5 1300.74,-195.5 1316.86,-195.5"/>
<polygon fill="#63b8ff" stroke="#63b8ff" points="1317.25,-199 1327.25,-195.5 1317.25,-192 1317.25,-199"/>
</a>
</g>
</g>
<!-- Node23 -->
<g id="Node000023" class="node">
<title>Node23</title>
<g id="a_Node000023"><a xlink:href="port__eu_8c.html#aa89dfaecca46c6d071f08c1898d1f7c9" target="_top" xlink:title=" ">
<polygon fill="white" stroke="#666666" points="1420.5,-168 1327.5,-168 1327.5,-149 1420.5,-149 1420.5,-168"/>
<text text-anchor="middle" x="1374" y="-156" font-family="Helvetica,sans-Serif" font-size="10.00">func_800CBBE8</text>
</a>
</g>
</g>
<!-- Node19&#45;&gt;Node23 -->
<g id="edge22_Node000019_Node000023" class="edge">
<title>Node19&#45;&gt;Node23</title>
<g id="a_edge22_Node000019_Node000023"><a xlink:title=" ">
<path fill="none" stroke="#63b8ff" d="M1261.63,-185.97C1280.8,-181.24 1304.16,-175.48 1324.52,-170.46"/>
<polygon fill="#63b8ff" stroke="#63b8ff" points="1325.37,-173.85 1334.24,-168.06 1323.69,-167.06 1325.37,-173.85"/>
</a>
</g>
</g>
<!-- Node21 -->
<g id="Node000021" class="node">
<title>Node21</title>
<g id="a_Node000021"><a xlink:href="external_8c.html#a358ac55e8ab5262dcae8037334be06d7" target="_top" xlink:title=" ">
<polygon fill="white" stroke="#666666" points="1572.5,-242 1480.5,-242 1480.5,-223 1572.5,-223 1572.5,-242"/>
<text text-anchor="middle" x="1526.5" y="-230" font-family="Helvetica,sans-Serif" font-size="10.00">func_800C40F0</text>
</a>
</g>
</g>
<!-- Node20&#45;&gt;Node21 -->
<g id="edge20_Node000020_Node000021" class="edge">
<title>Node20&#45;&gt;Node21</title>
<g id="a_edge20_Node000020_Node000021"><a xlink:title=" ">
<path fill="none" stroke="#63b8ff" d="M1444.08,-232.5C1452.87,-232.5 1461.78,-232.5 1470.31,-232.5"/>
<polygon fill="#63b8ff" stroke="#63b8ff" points="1470.5,-236 1480.5,-232.5 1470.5,-229 1470.5,-236"/>
</a>
</g>
</g>
<!-- Node24 -->
<g id="Node000024" class="node">
<title>Node24</title>
<g id="a_Node000024"><a xlink:href="port__eu_8c.html#af361a20d2e08f30c53a237ca481ff734" target="_top" xlink:title=" ">
<polygon fill="white" stroke="#666666" points="1573,-168 1480,-168 1480,-149 1573,-149 1573,-168"/>
<text text-anchor="middle" x="1526.5" y="-156" font-family="Helvetica,sans-Serif" font-size="10.00">func_800CBB48</text>
</a>
</g>
</g>
<!-- Node23&#45;&gt;Node24 -->
<g id="edge23_Node000023_Node000024" class="edge">
<title>Node23&#45;&gt;Node24</title>
<g id="a_edge23_Node000023_Node000024"><a xlink:title=" ">
<path fill="none" stroke="#63b8ff" d="M1420.56,-158.5C1435.96,-158.5 1453.34,-158.5 1469.46,-158.5"/>
<polygon fill="#63b8ff" stroke="#63b8ff" points="1469.83,-162 1479.83,-158.5 1469.83,-155 1469.83,-162"/>
</a>
</g>
</g>
<!-- Node26 -->
<g id="Node000026" class="node">
<title>Node26</title>
<g id="a_Node000026"><a xlink:href="math__util_8c.html#a79fd07a0971ec96a3ff0801963a2fa7f" target="_top" xlink:title=" ">
<polygon fill="white" stroke="#666666" points="777,-186 713,-186 713,-167 777,-167 777,-186"/>
<text text-anchor="middle" x="745" y="-174" font-family="Helvetica,sans-Serif" font-size="10.00">vec3f_set</text>
</a>
</g>
</g>
<!-- Node25&#45;&gt;Node26 -->
<g id="edge25_Node000025_Node000026" class="edge">
<title>Node25&#45;&gt;Node26</title>
<g id="a_edge25_Node000025_Node000026"><a xlink:title=" ">
<path fill="none" stroke="#63b8ff" d="M612.21,-203.97C640.26,-198.12 675.89,-190.7 703.02,-185.04"/>
<polygon fill="#63b8ff" stroke="#63b8ff" points="703.9,-188.43 712.97,-182.97 702.47,-181.58 703.9,-188.43"/>
</a>
</g>
</g>
<!-- Node34 -->
<g id="Node000034" class="node">
<title>Node34</title>
<g id="a_Node000034"><a xlink:href="external_8c.html#a475cff796211891556f52877cd8e9b9e" target="_top" xlink:title=" ">
<polygon fill="white" stroke="#666666" points="423.5,-75 351.5,-75 351.5,-56 423.5,-56 423.5,-75"/>
<text text-anchor="middle" x="387.5" y="-63" font-family="Helvetica,sans-Serif" font-size="10.00">play_sound</text>
</a>
</g>
</g>
<!-- Node33&#45;&gt;Node34 -->
<g id="edge33_Node000033_Node000034" class="edge">
<title>Node33&#45;&gt;Node34</title>
<g id="a_edge33_Node000033_Node000034"><a xlink:title=" ">
<path fill="none" stroke="#63b8ff" d="M250.33,-79C278.08,-76.25 313.45,-72.74 341.19,-69.99"/>
<polygon fill="#63b8ff" stroke="#63b8ff" points="341.81,-73.45 351.42,-68.98 341.12,-66.48 341.81,-73.45"/>
</a>
</g>
</g>
</g>
</svg>
