<?xml version="1.0" encoding="UTF-8" standalone="no"?>
<!DOCTYPE svg PUBLIC "-//W3C//DTD SVG 1.1//EN"
 "http://www.w3.org/Graphics/SVG/1.1/DTD/svg11.dtd">
<!-- Generated by graphviz version 2.43.0 (0)
 -->
<!-- Title: src/engine/actors/Banana.h Pages: 1 -->
<svg width="1321pt" height="357pt"
 viewBox="0.00 0.00 1321.00 357.00" xmlns="http://www.w3.org/2000/svg" xmlns:xlink="http://www.w3.org/1999/xlink">
<g id="graph0" class="graph" transform="scale(1 1) rotate(0) translate(4 353)">
<title>src/engine/actors/Banana.h</title>
<!-- Node1 -->
<g id="Node000001" class="node">
<title>Node1</title>
<g id="a_Node000001"><a xlink:title=" ">
<polygon fill="#999999" stroke="#666666" points="409.5,-349 260.5,-349 260.5,-330 409.5,-330 409.5,-349"/>
<text text-anchor="middle" x="335" y="-337" font-family="Helvetica,sans-Serif" font-size="10.00">src/engine/actors/Banana.h</text>
</a>
</g>
</g>
<!-- Node2 -->
<g id="Node000002" class="node">
<title>Node2</title>
<g id="a_Node000002"><a xlink:title=" ">
<polygon fill="#e0e0e0" stroke="#999999" points="1047,-19 967,-19 967,0 1047,0 1047,-19"/>
<text text-anchor="middle" x="1007" y="-7" font-family="Helvetica,sans-Serif" font-size="10.00">libultraship.h</text>
</a>
</g>
</g>
<!-- Node1&#45;&gt;Node2 -->
<g id="edge1_Node000001_Node000002" class="edge">
<title>Node1&#45;&gt;Node2</title>
<g id="a_edge1_Node000001_Node000002"><a xlink:title=" ">
<path fill="none" stroke="#63b8ff" d="M262.72,-329.97C164.24,-316.29 0,-285.27 0,-230.5 0,-230.5 0,-230.5 0,-118.5 0,-85.61 9.77,-71.87 38,-55 117.09,-7.73 769.2,-8.76 956.73,-10.05"/>
<polygon fill="#63b8ff" stroke="#63b8ff" points="956.84,-13.55 966.86,-10.13 956.89,-6.55 956.84,-13.55"/>
</a>
</g>
</g>
<!-- Node3 -->
<g id="Node000003" class="node">
<title>Node3</title>
<g id="a_Node000003"><a xlink:href="Actor_8h.html" target="_top" xlink:title=" ">
<polygon fill="white" stroke="#666666" points="873,-294 787,-294 787,-275 873,-275 873,-294"/>
<text text-anchor="middle" x="830" y="-282" font-family="Helvetica,sans-Serif" font-size="10.00">engine/Actor.h</text>
</a>
</g>
</g>
<!-- Node1&#45;&gt;Node3 -->
<g id="edge2_Node000001_Node000003" class="edge">
<title>Node1&#45;&gt;Node3</title>
<g id="a_edge2_Node000001_Node000003"><a xlink:title=" ">
<path fill="none" stroke="#63b8ff" d="M409.64,-330.51C510.57,-319.7 688.11,-300.69 776.65,-291.21"/>
<polygon fill="#63b8ff" stroke="#63b8ff" points="777.17,-294.68 786.74,-290.13 776.43,-287.72 777.17,-294.68"/>
</a>
</g>
</g>
<!-- Node3&#45;&gt;Node2 -->
<g id="edge3_Node000003_Node000002" class="edge">
<title>Node3&#45;&gt;Node2</title>
<g id="a_edge3_Node000003_Node000002"><a xlink:title=" ">
<path fill="none" stroke="#63b8ff" d="M786.86,-282.2C621.58,-276.67 38,-251.74 38,-175.5 38,-175.5 38,-175.5 38,-118.5 38,-89.04 33.79,-73.14 57,-55 92.69,-27.11 765.36,-14.33 956.65,-11.26"/>
<polygon fill="#63b8ff" stroke="#63b8ff" points="956.77,-14.75 966.71,-11.1 956.66,-7.76 956.77,-14.75"/>
</a>
</g>
</g>
<!-- Node4 -->
<g id="Node000004" class="node">
<title>Node4</title>
<g id="a_Node000004"><a xlink:href="SpawnParams_8h.html" target="_top" xlink:title=" ">
<polygon fill="white" stroke="#666666" points="287,-129 157,-129 157,-110 287,-110 287,-129"/>
<text text-anchor="middle" x="222" y="-117" font-family="Helvetica,sans-Serif" font-size="10.00">engine/SpawnParams.h</text>
</a>
</g>
</g>
<!-- Node3&#45;&gt;Node4 -->
<g id="edge4_Node000003_Node000004" class="edge">
<title>Node3&#45;&gt;Node4</title>
<g id="a_edge4_Node000003_Node000004"><a xlink:title=" ">
<path fill="none" stroke="#63b8ff" d="M786.85,-280.68C697.07,-273.61 484.89,-250.67 321,-184 290.79,-171.71 259.75,-150.04 240.66,-135.48"/>
<polygon fill="#63b8ff" stroke="#63b8ff" points="242.59,-132.54 232.55,-129.16 238.29,-138.06 242.59,-132.54"/>
</a>
</g>
</g>
<!-- Node10 -->
<g id="Node000010" class="node">
<title>Node10</title>
<g id="a_Node000010"><a xlink:href="common__structs_8h.html" target="_top" xlink:title=" ">
<polygon fill="white" stroke="#666666" points="1142.5,-74 1035.5,-74 1035.5,-55 1142.5,-55 1142.5,-74"/>
<text text-anchor="middle" x="1089" y="-62" font-family="Helvetica,sans-Serif" font-size="10.00">common_structs.h</text>
</a>
</g>
</g>
<!-- Node3&#45;&gt;Node10 -->
<g id="edge46_Node000003_Node000010" class="edge">
<title>Node3&#45;&gt;Node10</title>
<g id="a_edge46_Node000003_Node000010"><a xlink:title=" ">
<path fill="none" stroke="#63b8ff" d="M873.3,-280.47C914.32,-276.05 976.53,-265.27 1024,-239 1075.55,-210.47 1088.25,-187.11 1098,-129 1100.54,-113.88 1097.74,-96.66 1094.62,-83.97"/>
<polygon fill="#63b8ff" stroke="#63b8ff" points="1097.94,-82.86 1091.91,-74.15 1091.19,-84.72 1097.94,-82.86"/>
</a>
</g>
</g>
<!-- Node11 -->
<g id="Node000011" class="node">
<title>Node11</title>
<g id="a_Node000011"><a xlink:href="EditorMath_8h.html" target="_top" xlink:title=" ">
<polygon fill="white" stroke="#666666" points="744,-239 598,-239 598,-220 744,-220 744,-239"/>
<text text-anchor="middle" x="671" y="-227" font-family="Helvetica,sans-Serif" font-size="10.00">engine/editor/EditorMath.h</text>
</a>
</g>
</g>
<!-- Node3&#45;&gt;Node11 -->
<g id="edge13_Node000003_Node000011" class="edge">
<title>Node3&#45;&gt;Node11</title>
<g id="a_edge13_Node000003_Node000011"><a xlink:title=" ">
<path fill="none" stroke="#63b8ff" d="M804.45,-274.98C777.88,-266.13 736.06,-252.19 706.33,-242.28"/>
<polygon fill="#63b8ff" stroke="#63b8ff" points="707.34,-238.92 696.75,-239.08 705.13,-245.56 707.34,-238.92"/>
</a>
</g>
</g>
<!-- Node19 -->
<g id="Node000019" class="node">
<title>Node19</title>
<g id="a_Node000019"><a xlink:href="macros_8h.html" target="_top" xlink:title=" ">
<polygon fill="white" stroke="#666666" points="1211,-239 1149,-239 1149,-220 1211,-220 1211,-239"/>
<text text-anchor="middle" x="1180" y="-227" font-family="Helvetica,sans-Serif" font-size="10.00">macros.h</text>
</a>
</g>
</g>
<!-- Node3&#45;&gt;Node19 -->
<g id="edge33_Node000003_Node000019" class="edge">
<title>Node3&#45;&gt;Node19</title>
<g id="a_edge33_Node000003_Node000019"><a xlink:title=" ">
<path fill="none" stroke="#63b8ff" d="M873.02,-277.8C932.16,-269.83 1041.85,-254.59 1135,-239 1136.1,-238.82 1137.21,-238.63 1138.33,-238.43"/>
<polygon fill="#63b8ff" stroke="#63b8ff" points="1139.33,-241.81 1148.56,-236.61 1138.1,-234.92 1139.33,-241.81"/>
</a>
</g>
</g>
<!-- Node21 -->
<g id="Node000021" class="node">
<title>Node21</title>
<g id="a_Node000021"><a xlink:href="main_8h.html" target="_top" xlink:title=" ">
<polygon fill="white" stroke="#666666" points="1015,-239 965,-239 965,-220 1015,-220 1015,-239"/>
<text text-anchor="middle" x="990" y="-227" font-family="Helvetica,sans-Serif" font-size="10.00">main.h</text>
</a>
</g>
</g>
<!-- Node3&#45;&gt;Node21 -->
<g id="edge36_Node000003_Node000021" class="edge">
<title>Node3&#45;&gt;Node21</title>
<g id="a_edge36_Node000003_Node000021"><a xlink:title=" ">
<path fill="none" stroke="#63b8ff" d="M855.71,-274.98C882.69,-266.05 925.28,-251.94 955.25,-242.01"/>
<polygon fill="#63b8ff" stroke="#63b8ff" points="956.49,-245.29 964.88,-238.82 954.29,-238.64 956.49,-245.29"/>
</a>
</g>
</g>
<!-- Node24 -->
<g id="Node000024" class="node">
<title>Node24</title>
<g id="a_Node000024"><a xlink:href="camera_8h.html" target="_top" xlink:title=" ">
<polygon fill="white" stroke="#666666" points="1313,-129 1251,-129 1251,-110 1313,-110 1313,-129"/>
<text text-anchor="middle" x="1282" y="-117" font-family="Helvetica,sans-Serif" font-size="10.00">camera.h</text>
</a>
</g>
</g>
<!-- Node3&#45;&gt;Node24 -->
<g id="edge43_Node000003_Node000024" class="edge">
<title>Node3&#45;&gt;Node24</title>
<g id="a_edge43_Node000003_Node000024"><a xlink:title=" ">
<path fill="none" stroke="#63b8ff" d="M873.09,-283.55C962.51,-282.88 1164.5,-277.06 1220,-239 1254.51,-215.33 1271.16,-166.24 1277.99,-139.27"/>
<polygon fill="#63b8ff" stroke="#63b8ff" points="1281.48,-139.73 1280.34,-129.2 1274.66,-138.14 1281.48,-139.73"/>
</a>
</g>
</g>
<!-- Node5 -->
<g id="Node000005" class="node">
<title>Node5</title>
<g id="a_Node000005"><a xlink:title=" ">
<polygon fill="#e0e0e0" stroke="#999999" points="377.5,-74 330.5,-74 330.5,-55 377.5,-55 377.5,-74"/>
<text text-anchor="middle" x="354" y="-62" font-family="Helvetica,sans-Serif" font-size="10.00">vector</text>
</a>
</g>
</g>
<!-- Node4&#45;&gt;Node5 -->
<g id="edge5_Node000004_Node000005" class="edge">
<title>Node4&#45;&gt;Node5</title>
<g id="a_edge5_Node000004_Node000005"><a xlink:title=" ">
<path fill="none" stroke="#63b8ff" d="M243.21,-109.98C264.73,-101.34 298.28,-87.87 322.83,-78.02"/>
<polygon fill="#63b8ff" stroke="#63b8ff" points="324.43,-81.14 332.41,-74.17 321.82,-74.65 324.43,-81.14"/>
</a>
</g>
</g>
<!-- Node6 -->
<g id="Node000006" class="node">
<title>Node6</title>
<g id="a_Node000006"><a xlink:title=" ">
<polygon fill="#e0e0e0" stroke="#999999" points="250,-74 194,-74 194,-55 250,-55 250,-74"/>
<text text-anchor="middle" x="222" y="-62" font-family="Helvetica,sans-Serif" font-size="10.00">optional</text>
</a>
</g>
</g>
<!-- Node4&#45;&gt;Node6 -->
<g id="edge6_Node000004_Node000006" class="edge">
<title>Node4&#45;&gt;Node6</title>
<g id="a_edge6_Node000004_Node000006"><a xlink:title=" ">
<path fill="none" stroke="#63b8ff" d="M222,-109.75C222,-102.8 222,-92.85 222,-84.13"/>
<polygon fill="#63b8ff" stroke="#63b8ff" points="225.5,-84.09 222,-74.09 218.5,-84.09 225.5,-84.09"/>
</a>
</g>
</g>
<!-- Node7 -->
<g id="Node000007" class="node">
<title>Node7</title>
<g id="a_Node000007"><a xlink:title=" ">
<polygon fill="#e0e0e0" stroke="#999999" points="312,-74 268,-74 268,-55 312,-55 312,-74"/>
<text text-anchor="middle" x="290" y="-62" font-family="Helvetica,sans-Serif" font-size="10.00">string</text>
</a>
</g>
</g>
<!-- Node4&#45;&gt;Node7 -->
<g id="edge7_Node000004_Node000007" class="edge">
<title>Node4&#45;&gt;Node7</title>
<g id="a_edge7_Node000004_Node000007"><a xlink:title=" ">
<path fill="none" stroke="#63b8ff" d="M232.93,-109.98C243.08,-102.07 258.42,-90.11 270.65,-80.58"/>
<polygon fill="#63b8ff" stroke="#63b8ff" points="273.14,-83.08 278.88,-74.17 268.84,-77.56 273.14,-83.08"/>
</a>
</g>
</g>
<!-- Node8 -->
<g id="Node000008" class="node">
<title>Node8</title>
<g id="a_Node000008"><a xlink:title=" ">
<polygon fill="#e0e0e0" stroke="#999999" points="176,-74 66,-74 66,-55 176,-55 176,-74"/>
<text text-anchor="middle" x="121" y="-62" font-family="Helvetica,sans-Serif" font-size="10.00">nlohmann/json.hpp</text>
</a>
</g>
</g>
<!-- Node4&#45;&gt;Node8 -->
<g id="edge8_Node000004_Node000008" class="edge">
<title>Node4&#45;&gt;Node8</title>
<g id="a_edge8_Node000004_Node000008"><a xlink:title=" ">
<path fill="none" stroke="#63b8ff" d="M205.77,-109.98C189.82,-101.61 165.22,-88.7 146.62,-78.95"/>
<polygon fill="#63b8ff" stroke="#63b8ff" points="148,-75.72 137.52,-74.17 144.75,-81.92 148,-75.72"/>
</a>
</g>
</g>
<!-- Node9 -->
<g id="Node000009" class="node">
<title>Node9</title>
<g id="a_Node000009"><a xlink:href="CoreMath_8h.html" target="_top" xlink:title=" ">
<polygon fill="white" stroke="#666666" points="468.5,-74 395.5,-74 395.5,-55 468.5,-55 468.5,-74"/>
<text text-anchor="middle" x="432" y="-62" font-family="Helvetica,sans-Serif" font-size="10.00">CoreMath.h</text>
</a>
</g>
</g>
<!-- Node4&#45;&gt;Node9 -->
<g id="edge9_Node000004_Node000009" class="edge">
<title>Node4&#45;&gt;Node9</title>
<g id="a_edge9_Node000004_Node000009"><a xlink:title=" ">
<path fill="none" stroke="#63b8ff" d="M255.74,-109.98C291.68,-100.91 348.72,-86.52 388.13,-76.57"/>
<polygon fill="#63b8ff" stroke="#63b8ff" points="389.16,-79.92 398,-74.08 387.44,-73.14 389.16,-79.92"/>
</a>
</g>
</g>
<!-- Node4&#45;&gt;Node10 -->
<g id="edge11_Node000004_Node000010" class="edge">
<title>Node4&#45;&gt;Node10</title>
<g id="a_edge11_Node000004_Node000010"><a xlink:title=" ">
<path fill="none" stroke="#63b8ff" d="M287.17,-114.52C448.53,-104.65 865.17,-79.18 1025.15,-69.4"/>
<polygon fill="#63b8ff" stroke="#63b8ff" points="1025.54,-72.89 1035.31,-68.78 1025.11,-65.9 1025.54,-72.89"/>
</a>
</g>
</g>
<!-- Node9&#45;&gt;Node2 -->
<g id="edge10_Node000009_Node000002" class="edge">
<title>Node9&#45;&gt;Node2</title>
<g id="a_edge10_Node000009_Node000002"><a xlink:title=" ">
<path fill="none" stroke="#63b8ff" d="M468.83,-58.57C478.63,-57.33 489.21,-56.05 499,-55 666.4,-37.06 865.43,-21.21 956.71,-14.25"/>
<polygon fill="#63b8ff" stroke="#63b8ff" points="957.07,-17.74 966.78,-13.49 956.54,-10.76 957.07,-17.74"/>
</a>
</g>
</g>
<!-- Node10&#45;&gt;Node2 -->
<g id="edge12_Node000010_Node000002" class="edge">
<title>Node10&#45;&gt;Node2</title>
<g id="a_edge12_Node000010_Node000002"><a xlink:title=" ">
<path fill="none" stroke="#63b8ff" d="M1075.83,-54.98C1063.23,-46.84 1044,-34.41 1029.06,-24.76"/>
<polygon fill="#63b8ff" stroke="#63b8ff" points="1030.71,-21.66 1020.41,-19.17 1026.91,-27.54 1030.71,-21.66"/>
</a>
</g>
</g>
<!-- Node11&#45;&gt;Node5 -->
<g id="edge18_Node000011_Node000005" class="edge">
<title>Node11&#45;&gt;Node5</title>
<g id="a_edge18_Node000011_Node000005"><a xlink:title=" ">
<path fill="none" stroke="#63b8ff" d="M597.85,-223.9C503.98,-217.24 351.12,-203.53 334,-184 309.23,-155.75 329.21,-108.6 343.23,-83.12"/>
<polygon fill="#63b8ff" stroke="#63b8ff" points="346.41,-84.63 348.39,-74.22 340.35,-81.12 346.41,-84.63"/>
</a>
</g>
</g>
<!-- Node11&#45;&gt;Node9 -->
<g id="edge17_Node000011_Node000009" class="edge">
<title>Node11&#45;&gt;Node9</title>
<g id="a_edge17_Node000011_Node000009"><a xlink:title=" ">
<path fill="none" stroke="#63b8ff" d="M641.26,-219.97C615.26,-212.06 576.81,-199.23 545,-184 524.03,-173.96 470.79,-146.94 456,-129 445.34,-116.07 439.12,-97.91 435.69,-84.33"/>
<polygon fill="#63b8ff" stroke="#63b8ff" points="439.03,-83.2 433.44,-74.2 432.2,-84.72 439.03,-83.2"/>
</a>
</g>
</g>
<!-- Node11&#45;&gt;Node10 -->
<g id="edge32_Node000011_Node000010" class="edge">
<title>Node11&#45;&gt;Node10</title>
<g id="a_edge32_Node000011_Node000010"><a xlink:title=" ">
<path fill="none" stroke="#63b8ff" d="M744.17,-227.06C834.24,-223.98 980.72,-214.31 1025,-184 1059.78,-160.19 1077.31,-111.16 1084.64,-84.23"/>
<polygon fill="#63b8ff" stroke="#63b8ff" points="1088.12,-84.73 1087.18,-74.18 1081.34,-83.02 1088.12,-84.73"/>
</a>
</g>
</g>
<!-- Node12 -->
<g id="Node000012" class="node">
<title>Node12</title>
<g id="a_Node000012"><a xlink:title=" ">
<polygon fill="#e0e0e0" stroke="#999999" points="646,-74 508,-74 508,-55 646,-55 646,-74"/>
<text text-anchor="middle" x="577" y="-62" font-family="Helvetica,sans-Serif" font-size="10.00">libultraship/libultraship.h</text>
</a>
</g>
</g>
<!-- Node11&#45;&gt;Node12 -->
<g id="edge14_Node000011_Node000012" class="edge">
<title>Node11&#45;&gt;Node12</title>
<g id="a_edge14_Node000011_Node000012"><a xlink:title=" ">
<path fill="none" stroke="#63b8ff" d="M673.47,-219.88C678.89,-199.05 689.64,-145.12 667,-110 657.13,-94.69 640.32,-84.47 623.89,-77.73"/>
<polygon fill="#63b8ff" stroke="#63b8ff" points="624.9,-74.37 614.31,-74.15 622.45,-80.93 624.9,-74.37"/>
</a>
</g>
</g>
<!-- Node13 -->
<g id="Node000013" class="node">
<title>Node13</title>
<g id="a_Node000013"><a xlink:title=" ">
<polygon fill="#e0e0e0" stroke="#999999" points="907,-129 829,-129 829,-110 907,-110 907,-129"/>
<text text-anchor="middle" x="868" y="-117" font-family="Helvetica,sans-Serif" font-size="10.00">libultra/gbi.h</text>
</a>
</g>
</g>
<!-- Node11&#45;&gt;Node13 -->
<g id="edge15_Node000011_Node000013" class="edge">
<title>Node11&#45;&gt;Node13</title>
<g id="a_edge15_Node000011_Node000013"><a xlink:title=" ">
<path fill="none" stroke="#63b8ff" d="M682.28,-219.99C699.67,-207.11 734.32,-182.32 766,-165 788.58,-152.66 815.28,-141.11 835.69,-132.87"/>
<polygon fill="#63b8ff" stroke="#63b8ff" points="837.17,-136.05 845.17,-129.11 834.58,-129.55 837.17,-136.05"/>
</a>
</g>
</g>
<!-- Node14 -->
<g id="Node000014" class="node">
<title>Node14</title>
<g id="a_Node000014"><a xlink:title=" ">
<polygon fill="#e0e0e0" stroke="#999999" points="808,-74 718,-74 718,-55 808,-55 808,-74"/>
<text text-anchor="middle" x="763" y="-62" font-family="Helvetica,sans-Serif" font-size="10.00">libultra/types.h</text>
</a>
</g>
</g>
<!-- Node11&#45;&gt;Node14 -->
<g id="edge16_Node000011_Node000014" class="edge">
<title>Node11&#45;&gt;Node14</title>
<g id="a_edge16_Node000011_Node000014"><a xlink:title=" ">
<path fill="none" stroke="#63b8ff" d="M675.95,-219.74C690.49,-193.98 733.29,-118.13 752.94,-83.33"/>
<polygon fill="#63b8ff" stroke="#63b8ff" points="756.16,-84.74 758.03,-74.31 750.07,-81.3 756.16,-84.74"/>
</a>
</g>
</g>
<!-- Node15 -->
<g id="Node000015" class="node">
<title>Node15</title>
<g id="a_Node000015"><a xlink:href="GameObject_8h.html" target="_top" xlink:title=" ">
<polygon fill="white" stroke="#666666" points="640,-184 554,-184 554,-165 640,-165 640,-184"/>
<text text-anchor="middle" x="597" y="-172" font-family="Helvetica,sans-Serif" font-size="10.00">GameObject.h</text>
</a>
</g>
</g>
<!-- Node11&#45;&gt;Node15 -->
<g id="edge19_Node000011_Node000015" class="edge">
<title>Node11&#45;&gt;Node15</title>
<g id="a_edge19_Node000011_Node000015"><a xlink:title=" ">
<path fill="none" stroke="#63b8ff" d="M654,-219.98C641.2,-212.07 624.16,-200.11 611.9,-190.58"/>
<polygon fill="#63b8ff" stroke="#63b8ff" points="613.94,-187.73 603.96,-184.17 609.54,-193.18 613.94,-187.73"/>
</a>
</g>
</g>
<!-- Node17 -->
<g id="Node000017" class="node">
<title>Node17</title>
<g id="a_Node000017"><a xlink:title=" ">
<polygon fill="#e0e0e0" stroke="#999999" points="945,-184 775,-184 775,-165 945,-165 945,-184"/>
<text text-anchor="middle" x="860" y="-172" font-family="Helvetica,sans-Serif" font-size="10.00">graphic/Fast3D/Fast3dWindow.h</text>
</a>
</g>
</g>
<!-- Node11&#45;&gt;Node17 -->
<g id="edge30_Node000011_Node000017" class="edge">
<title>Node11&#45;&gt;Node17</title>
<g id="a_edge30_Node000011_Node000017"><a xlink:title=" ">
<path fill="none" stroke="#63b8ff" d="M701.37,-219.98C733.37,-211.01 783.96,-196.82 819.38,-186.89"/>
<polygon fill="#63b8ff" stroke="#63b8ff" points="820.71,-190.15 829.4,-184.08 818.82,-183.41 820.71,-190.15"/>
</a>
</g>
</g>
<!-- Node18 -->
<g id="Node000018" class="node">
<title>Node18</title>
<g id="a_Node000018"><a xlink:title=" ">
<polygon fill="#e0e0e0" stroke="#999999" points="495,-184 343,-184 343,-165 495,-165 495,-184"/>
<text text-anchor="middle" x="419" y="-172" font-family="Helvetica,sans-Serif" font-size="10.00">graphic/Fast3D/interpreter.h</text>
</a>
</g>
</g>
<!-- Node11&#45;&gt;Node18 -->
<g id="edge31_Node000011_Node000018" class="edge">
<title>Node11&#45;&gt;Node18</title>
<g id="a_edge31_Node000011_Node000018"><a xlink:title=" ">
<path fill="none" stroke="#63b8ff" d="M630.51,-219.98C586.83,-210.8 517.19,-196.15 469.85,-186.19"/>
<polygon fill="#63b8ff" stroke="#63b8ff" points="470.31,-182.72 459.81,-184.08 468.87,-189.57 470.31,-182.72"/>
</a>
</g>
</g>
<!-- Node15&#45;&gt;Node4 -->
<g id="edge26_Node000015_Node000004" class="edge">
<title>Node15&#45;&gt;Node4</title>
<g id="a_edge26_Node000015_Node000004"><a xlink:title=" ">
<path fill="none" stroke="#63b8ff" d="M553.98,-167.42C490.09,-158.39 369.42,-141.34 292.5,-130.46"/>
<polygon fill="#63b8ff" stroke="#63b8ff" points="292.8,-126.97 282.41,-129.04 291.82,-133.9 292.8,-126.97"/>
</a>
</g>
</g>
<!-- Node15&#45;&gt;Node5 -->
<g id="edge25_Node000015_Node000005" class="edge">
<title>Node15&#45;&gt;Node5</title>
<g id="a_edge25_Node000015_Node000005"><a xlink:title=" ">
<path fill="none" stroke="#63b8ff" d="M561.61,-164.98C532.53,-157.36 490.63,-144.93 456,-129 425.93,-115.16 393.94,-94.08 373.97,-80.05"/>
<polygon fill="#63b8ff" stroke="#63b8ff" points="375.87,-77.1 365.69,-74.15 371.81,-82.81 375.87,-77.1"/>
</a>
</g>
</g>
<!-- Node15&#45;&gt;Node9 -->
<g id="edge23_Node000015_Node000009" class="edge">
<title>Node15&#45;&gt;Node9</title>
<g id="a_edge23_Node000015_Node000009"><a xlink:title=" ">
<path fill="none" stroke="#63b8ff" d="M557.42,-164.94C532.78,-158.18 501.43,-146.84 478,-129 461.96,-116.79 449.09,-97.46 441.08,-83.33"/>
<polygon fill="#63b8ff" stroke="#63b8ff" points="443.96,-81.29 436.14,-74.14 437.8,-84.61 443.96,-81.29"/>
</a>
</g>
</g>
<!-- Node15&#45;&gt;Node10 -->
<g id="edge29_Node000015_Node000010" class="edge">
<title>Node15&#45;&gt;Node10</title>
<g id="a_edge29_Node000015_Node000010"><a xlink:title=" ">
<path fill="none" stroke="#63b8ff" d="M623.18,-165C664.6,-151.78 747.92,-126.17 820,-110 889.68,-94.37 970.65,-81.71 1025.41,-73.94"/>
<polygon fill="#63b8ff" stroke="#63b8ff" points="1025.9,-77.41 1035.32,-72.55 1024.93,-70.48 1025.9,-77.41"/>
</a>
</g>
</g>
<!-- Node15&#45;&gt;Node11 -->
<g id="edge24_Node000015_Node000011" class="edge">
<title>Node15&#45;&gt;Node11</title>
<g id="a_edge24_Node000015_Node000011"><a xlink:title=" ">
<path fill="none" stroke="#63b8ff" d="M614.25,-184.17C627.1,-192.13 644.15,-204.11 656.34,-213.6"/>
<polygon fill="#63b8ff" stroke="#63b8ff" points="654.25,-216.42 664.23,-219.98 658.65,-210.97 654.25,-216.42"/>
</a>
</g>
</g>
<!-- Node15&#45;&gt;Node12 -->
<g id="edge20_Node000015_Node000012" class="edge">
<title>Node15&#45;&gt;Node12</title>
<g id="a_edge20_Node000015_Node000012"><a xlink:title=" ">
<path fill="none" stroke="#63b8ff" d="M553.79,-168.02C529.51,-162.48 501.12,-151.36 486,-129 470.03,-105.39 502.93,-87.85 533.54,-77.26"/>
<polygon fill="#63b8ff" stroke="#63b8ff" points="534.91,-80.5 543.33,-74.07 532.74,-73.84 534.91,-80.5"/>
</a>
</g>
</g>
<!-- Node15&#45;&gt;Node13 -->
<g id="edge21_Node000015_Node000013" class="edge">
<title>Node15&#45;&gt;Node13</title>
<g id="a_edge21_Node000015_Node000013"><a xlink:title=" ">
<path fill="none" stroke="#63b8ff" d="M640.24,-165.04C688.89,-155.53 767.76,-140.1 818.75,-130.13"/>
<polygon fill="#63b8ff" stroke="#63b8ff" points="819.73,-133.51 828.87,-128.15 818.39,-126.64 819.73,-133.51"/>
</a>
</g>
</g>
<!-- Node15&#45;&gt;Node14 -->
<g id="edge22_Node000015_Node000014" class="edge">
<title>Node15&#45;&gt;Node14</title>
<g id="a_edge22_Node000015_Node000014"><a xlink:title=" ">
<path fill="none" stroke="#63b8ff" d="M610.73,-164.88C624.88,-155.96 647.55,-141.62 667,-129 692.76,-112.29 722.19,-92.76 741.59,-79.82"/>
<polygon fill="#63b8ff" stroke="#63b8ff" points="743.63,-82.67 750.01,-74.2 739.75,-76.84 743.63,-82.67"/>
</a>
</g>
</g>
<!-- Node16 -->
<g id="Node000016" class="node">
<title>Node16</title>
<g id="a_Node000016"><a xlink:href="DefaultProperties_8h.html" target="_top" xlink:title=" ">
<polygon fill="white" stroke="#666666" points="658.5,-129 495.5,-129 495.5,-110 658.5,-110 658.5,-129"/>
<text text-anchor="middle" x="577" y="-117" font-family="Helvetica,sans-Serif" font-size="10.00">src/port/ui/DefaultProperties.h</text>
</a>
</g>
</g>
<!-- Node15&#45;&gt;Node16 -->
<g id="edge27_Node000015_Node000016" class="edge">
<title>Node15&#45;&gt;Node16</title>
<g id="a_edge27_Node000015_Node000016"><a xlink:title=" ">
<path fill="none" stroke="#63b8ff" d="M593.7,-164.75C591.02,-157.65 587.15,-147.4 583.81,-138.56"/>
<polygon fill="#63b8ff" stroke="#63b8ff" points="587.05,-137.21 580.24,-129.09 580.5,-139.68 587.05,-137.21"/>
</a>
</g>
</g>
<!-- Node16&#45;&gt;Node12 -->
<g id="edge28_Node000016_Node000012" class="edge">
<title>Node16&#45;&gt;Node12</title>
<g id="a_edge28_Node000016_Node000012"><a xlink:title=" ">
<path fill="none" stroke="#63b8ff" d="M577,-109.75C577,-102.8 577,-92.85 577,-84.13"/>
<polygon fill="#63b8ff" stroke="#63b8ff" points="580.5,-84.09 577,-74.09 573.5,-84.09 580.5,-84.09"/>
</a>
</g>
</g>
<!-- Node19&#45;&gt;Node2 -->
<g id="edge35_Node000019_Node000002" class="edge">
<title>Node19&#45;&gt;Node2</title>
<g id="a_edge35_Node000019_Node000002"><a xlink:title=" ">
<path fill="none" stroke="#63b8ff" d="M1187.94,-219.75C1195.03,-211.3 1204.9,-197.79 1209,-184 1211.4,-175.91 1211.03,-173.2 1209,-165 1195.72,-111.35 1193.53,-90.29 1151,-55 1124.5,-33.01 1087.18,-21.87 1057.18,-16.23"/>
<polygon fill="#63b8ff" stroke="#63b8ff" points="1057.76,-12.78 1047.31,-14.52 1056.56,-19.68 1057.76,-12.78"/>
</a>
</g>
</g>
<!-- Node20 -->
<g id="Node000020" class="node">
<title>Node20</title>
<g id="a_Node000020"><a xlink:href="math_8h.html" target="_top" xlink:title=" ">
<polygon fill="white" stroke="#666666" points="1200.5,-184 1149.5,-184 1149.5,-165 1200.5,-165 1200.5,-184"/>
<text text-anchor="middle" x="1175" y="-172" font-family="Helvetica,sans-Serif" font-size="10.00">math.h</text>
</a>
</g>
</g>
<!-- Node19&#45;&gt;Node20 -->
<g id="edge34_Node000019_Node000020" class="edge">
<title>Node19&#45;&gt;Node20</title>
<g id="a_edge34_Node000019_Node000020"><a xlink:title=" ">
<path fill="none" stroke="#63b8ff" d="M1179.17,-219.75C1178.52,-212.8 1177.58,-202.85 1176.76,-194.13"/>
<polygon fill="#63b8ff" stroke="#63b8ff" points="1180.23,-193.72 1175.81,-184.09 1173.27,-194.37 1180.23,-193.72"/>
</a>
</g>
</g>
<!-- Node21&#45;&gt;Node10 -->
<g id="edge42_Node000021_Node000010" class="edge">
<title>Node21&#45;&gt;Node10</title>
<g id="a_edge42_Node000021_Node000010"><a xlink:title=" ">
<path fill="none" stroke="#63b8ff" d="M1011.19,-219.97C1026.69,-212.67 1047.02,-200.67 1059,-184 1080.7,-153.8 1086.75,-109.41 1088.41,-84.42"/>
<polygon fill="#63b8ff" stroke="#63b8ff" points="1091.92,-84.29 1088.91,-74.14 1084.92,-83.95 1091.92,-84.29"/>
</a>
</g>
</g>
<!-- Node22 -->
<g id="Node000022" class="node">
<title>Node22</title>
<g id="a_Node000022"><a xlink:href="mk64_8h.html" target="_top" xlink:title=" ">
<polygon fill="white" stroke="#666666" points="1016.5,-184 963.5,-184 963.5,-165 1016.5,-165 1016.5,-184"/>
<text text-anchor="middle" x="990" y="-172" font-family="Helvetica,sans-Serif" font-size="10.00">mk64.h</text>
</a>
</g>
</g>
<!-- Node21&#45;&gt;Node22 -->
<g id="edge37_Node000021_Node000022" class="edge">
<title>Node21&#45;&gt;Node22</title>
<g id="a_edge37_Node000021_Node000022"><a xlink:title=" ">
<path fill="none" stroke="#63b8ff" d="M990,-219.75C990,-212.8 990,-202.85 990,-194.13"/>
<polygon fill="#63b8ff" stroke="#63b8ff" points="993.5,-194.09 990,-184.09 986.5,-194.09 993.5,-194.09"/>
</a>
</g>
</g>
<!-- Node22&#45;&gt;Node2 -->
<g id="edge38_Node000022_Node000002" class="edge">
<title>Node22&#45;&gt;Node2</title>
<g id="a_edge38_Node000022_Node000002"><a xlink:title=" ">
<path fill="none" stroke="#63b8ff" d="M990.91,-164.74C993.57,-139.31 1001.31,-65.08 1005,-29.69"/>
<polygon fill="#63b8ff" stroke="#63b8ff" points="1008.53,-29.62 1006.08,-19.31 1001.56,-28.89 1008.53,-29.62"/>
</a>
</g>
</g>
<!-- Node22&#45;&gt;Node13 -->
<g id="edge41_Node000022_Node000013" class="edge">
<title>Node22&#45;&gt;Node13</title>
<g id="a_edge41_Node000022_Node000013"><a xlink:title=" ">
<path fill="none" stroke="#63b8ff" d="M970.4,-164.98C950.68,-156.42 920.05,-143.11 897.42,-133.28"/>
<polygon fill="#63b8ff" stroke="#63b8ff" points="898.52,-129.94 887.96,-129.17 895.74,-136.37 898.52,-129.94"/>
</a>
</g>
</g>
<!-- Node23 -->
<g id="Node000023" class="node">
<title>Node23</title>
<g id="a_Node000023"><a xlink:href="string_8h.html" target="_top" xlink:title=" ">
<polygon fill="white" stroke="#666666" points="978.5,-129 925.5,-129 925.5,-110 978.5,-110 978.5,-129"/>
<text text-anchor="middle" x="952" y="-117" font-family="Helvetica,sans-Serif" font-size="10.00">string.h</text>
</a>
</g>
</g>
<!-- Node22&#45;&gt;Node23 -->
<g id="edge39_Node000022_Node000023" class="edge">
<title>Node22&#45;&gt;Node23</title>
<g id="a_edge39_Node000022_Node000023"><a xlink:title=" ">
<path fill="none" stroke="#63b8ff" d="M983.73,-164.75C978.41,-157.34 970.64,-146.5 964.12,-137.41"/>
<polygon fill="#63b8ff" stroke="#63b8ff" points="966.83,-135.18 958.16,-129.09 961.14,-139.26 966.83,-135.18"/>
</a>
</g>
</g>
<!-- Node23&#45;&gt;Node14 -->
<g id="edge40_Node000023_Node000014" class="edge">
<title>Node23&#45;&gt;Node14</title>
<g id="a_edge40_Node000023_Node000014"><a xlink:title=" ">
<path fill="none" stroke="#63b8ff" d="M925.32,-111.02C893.61,-102.12 840.35,-87.19 803.53,-76.87"/>
<polygon fill="#63b8ff" stroke="#63b8ff" points="804.19,-73.41 793.61,-74.08 802.3,-80.15 804.19,-73.41"/>
</a>
</g>
</g>
<!-- Node24&#45;&gt;Node2 -->
<g id="edge44_Node000024_Node000002" class="edge">
<title>Node24&#45;&gt;Node2</title>
<g id="a_edge44_Node000024_Node000002"><a xlink:title=" ">
<path fill="none" stroke="#63b8ff" d="M1278.48,-109.91C1272.31,-95.97 1258.12,-68.62 1237,-55 1207.9,-36.24 1115.75,-22.75 1057.31,-15.82"/>
<polygon fill="#63b8ff" stroke="#63b8ff" points="1057.5,-12.31 1047.17,-14.64 1056.7,-19.27 1057.5,-12.31"/>
</a>
</g>
</g>
<!-- Node24&#45;&gt;Node10 -->
<g id="edge45_Node000024_Node000010" class="edge">
<title>Node24&#45;&gt;Node10</title>
<g id="a_edge45_Node000024_Node000010"><a xlink:title=" ">
<path fill="none" stroke="#63b8ff" d="M1250.99,-109.98C1218.17,-100.97 1166.2,-86.7 1130.01,-76.76"/>
<polygon fill="#63b8ff" stroke="#63b8ff" points="1130.82,-73.36 1120.25,-74.08 1128.97,-80.11 1130.82,-73.36"/>
</a>
</g>
</g>
</g>
</svg>
