<?xml version="1.0" encoding="UTF-8" standalone="no"?>
<!DOCTYPE svg PUBLIC "-//W3C//DTD SVG 1.1//EN"
 "http://www.w3.org/Graphics/SVG/1.1/DTD/svg11.dtd">
<!-- Generated by graphviz version 2.43.0 (0)
 -->
<!-- Title: src/engine/courses/BlockFort.h Pages: 1 -->
<!--zoomable 368 -->

<svg id="main" version="1.1" xmlns="http://www.w3.org/2000/svg" xmlns:xlink="http://www.w3.org/1999/xlink" xml:space="preserve" onload="init(evt)">

<style type="text/css"><![CDATA[
.node, .edge {opacity: 0.7;}
.node.selected, .edge.selected {opacity: 1;}
.edge:hover path { stroke: red; }
.edge:hover polygon { stroke: red; fill: red; }
]]></style>

<defs>
  <circle id="rim" cx="0" cy="0" r="7"/>
  <circle id="rim2" cx="0" cy="0" r="3.5"/>
  <g id="zoomPlus">
    <use xlink:href="#rim" fill="#404040"><set attributeName="fill" to="#808080" begin="zoomplus.mouseover" end="zoomplus.mouseout"/></use>
    <path d="M-4,0h8M0,-4v8" fill="none" stroke="white" stroke-width="1.5" pointer-events="none"/>
  </g>
  <g id="zoomMin">
    <use xlink:href="#rim" fill="#404040"><set attributeName="fill" to="#808080" begin="zoomminus.mouseover" end="zoomminus.mouseout"/></use>
    <path d="M-4,0h8" fill="none" stroke="white" stroke-width="1.5" pointer-events="none"/>
  </g>
  <g id="arrowUp" transform="translate(30 24)">
    <use xlink:href="#rim"/>
    <path pointer-events="none" fill="none" stroke="white" stroke-width="1.5" d="M0,-3.0v7 M-2.5,-0.5L0,-3.0L2.5,-0.5"/>
  </g>
  <g id="arrowRight" transform="rotate(90) translate(36 -43)">
    <use xlink:href="#rim"/>
    <path pointer-events="none" fill="none" stroke="white" stroke-width="1.5" d="M0,-3.0v7 M-2.5,-0.5L0,-3.0L2.5,-0.5"/>
  </g>
  <g id="arrowDown" transform="rotate(180) translate(-30 -48)">
    <use xlink:href="#rim"/>
    <path pointer-events="none" fill="none" stroke="white" stroke-width="1.5" d="M0,-3.0v7 M-2.5,-0.5L0,-3.0L2.5,-0.5"/>
  </g>
  <g id="arrowLeft" transform="rotate(270) translate(-36 17)">
    <use xlink:href="#rim"/>
    <path pointer-events="none" fill="none" stroke="white" stroke-width="1.5" d="M0,-3.0v7 M-2.5,-0.5L0,-3.0L2.5,-0.5"/>
  </g>
  <g id="resetDef">
    <use xlink:href="#rim2" fill="#404040"><set attributeName="fill" to="#808080" begin="reset.mouseover" end="reset.mouseout"/></use>
  </g>
</defs>
<script type="application/ecmascript">
var viewWidth = 1462;
var viewHeight = 368;
var sectionId = 'dynsection-0';
</script>
<script type="application/ecmascript" xlink:href="svg.min.js"/>
<svg id="graph" class="graph">
<g id="viewport">
<title>src/engine/courses/BlockFort.h</title>
<!-- Node1 -->
<g id="Node000001" class="node">
<title>Node1</title>
<g id="a_Node000001"><a xlink:title=" ">
<polygon fill="#999999" stroke="#666666" points="1055.5,-360 948.5,-360 948.5,-330 1055.5,-330 1055.5,-360"/>
<text text-anchor="start" x="956.5" y="-348" font-family="Helvetica,sans-Serif" font-size="10.00">src/engine/courses</text>
<text text-anchor="middle" x="1002" y="-337" font-family="Helvetica,sans-Serif" font-size="10.00">/BlockFort.h</text>
</a>
</g>
</g>
<!-- Node2 -->
<g id="Node000002" class="node">
<title>Node2</title>
<g id="a_Node000002"><a xlink:title=" ">
<polygon fill="#e0e0e0" stroke="#999999" points="451,-19 371,-19 371,0 451,0 451,-19"/>
<text text-anchor="middle" x="411" y="-7" font-family="Helvetica,sans-Serif" font-size="10.00">libultraship.h</text>
</a>
</g>
</g>
<!-- Node1&#45;&gt;Node2 -->
<g id="edge1_Node000001_Node000002" class="edge">
<title>Node1&#45;&gt;Node2</title>
<g id="a_edge1_Node000001_Node000002"><a xlink:title=" ">
<path fill="none" stroke="#63b8ff" d="M1055.63,-341.79C1175.36,-335.41 1454,-311.81 1454,-230.5 1454,-230.5 1454,-230.5 1454,-118.5 1454,-17.46 669.63,-10.44 461.3,-10.36"/>
<polygon fill="#63b8ff" stroke="#63b8ff" points="461.25,-6.86 451.25,-10.36 461.25,-13.86 461.25,-6.86"/>
</a>
</g>
</g>
<!-- Node3 -->
<g id="Node000003" class="node">
<title>Node3</title>
<g id="a_Node000003"><a xlink:href="Course_8h.html" target="_top" xlink:title=" ">
<polygon fill="white" stroke="#666666" points="964.5,-294 905.5,-294 905.5,-275 964.5,-275 964.5,-294"/>
<text text-anchor="middle" x="935" y="-282" font-family="Helvetica,sans-Serif" font-size="10.00">Course.h</text>
</a>
</g>
</g>
<!-- Node1&#45;&gt;Node3 -->
<g id="edge2_Node000001_Node000003" class="edge">
<title>Node1&#45;&gt;Node3</title>
<g id="a_edge2_Node000001_Node000003"><a xlink:title=" ">
<path fill="none" stroke="#63b8ff" d="M985.78,-329.84C975.76,-321.09 962.89,-309.85 952.62,-300.88"/>
<polygon fill="#63b8ff" stroke="#63b8ff" points="954.87,-298.21 945.04,-294.27 950.27,-303.48 954.87,-298.21"/>
</a>
</g>
</g>
<!-- Node6 -->
<g id="Node000006" class="node">
<title>Node6</title>
<g id="a_Node000006"><a xlink:href="camera_8h.html" target="_top" xlink:title=" ">
<polygon fill="white" stroke="#666666" points="644,-184 582,-184 582,-165 644,-165 644,-184"/>
<text text-anchor="middle" x="613" y="-172" font-family="Helvetica,sans-Serif" font-size="10.00">camera.h</text>
</a>
</g>
</g>
<!-- Node1&#45;&gt;Node6 -->
<g id="edge61_Node000001_Node000006" class="edge">
<title>Node1&#45;&gt;Node6</title>
<g id="a_edge61_Node000001_Node000006"><a xlink:title=" ">
<path fill="none" stroke="#63b8ff" d="M948.17,-337.27C851.87,-324.03 656.27,-291.23 615,-239 605.18,-226.57 605.75,-208.1 608.14,-194.28"/>
<polygon fill="#63b8ff" stroke="#63b8ff" points="611.58,-194.92 610.29,-184.4 604.74,-193.43 611.58,-194.92"/>
</a>
</g>
</g>
<!-- Node8 -->
<g id="Node000008" class="node">
<title>Node8</title>
<g id="a_Node000008"><a xlink:href="course__offsets_8h.html" target="_top" xlink:title=" ">
<polygon fill="white" stroke="#666666" points="564,-184 468,-184 468,-165 564,-165 564,-184"/>
<text text-anchor="middle" x="516" y="-172" font-family="Helvetica,sans-Serif" font-size="10.00">course_offsets.h</text>
</a>
</g>
</g>
<!-- Node1&#45;&gt;Node8 -->
<g id="edge60_Node000001_Node000008" class="edge">
<title>Node1&#45;&gt;Node8</title>
<g id="a_edge60_Node000001_Node000008"><a xlink:title=" ">
<path fill="none" stroke="#63b8ff" d="M948.3,-341.79C881.81,-337.72 765.85,-326.24 672,-294 624.76,-277.77 613.12,-270.06 574,-239 556.54,-225.14 539.72,-205.85 528.73,-192.18"/>
<polygon fill="#63b8ff" stroke="#63b8ff" points="531.33,-189.82 522.4,-184.11 525.82,-194.14 531.33,-189.82"/>
</a>
</g>
</g>
<!-- Node14 -->
<g id="Node000014" class="node">
<title>Node14</title>
<g id="a_Node000014"><a xlink:href="src_2data_2some__data_8h.html" target="_top" xlink:title=" ">
<polygon fill="white" stroke="#666666" points="1367,-239 1263,-239 1263,-220 1367,-220 1367,-239"/>
<text text-anchor="middle" x="1315" y="-227" font-family="Helvetica,sans-Serif" font-size="10.00">data/some_data.h</text>
</a>
</g>
</g>
<!-- Node1&#45;&gt;Node14 -->
<g id="edge62_Node000001_Node000014" class="edge">
<title>Node1&#45;&gt;Node14</title>
<g id="a_edge62_Node000001_Node000014"><a xlink:title=" ">
<path fill="none" stroke="#63b8ff" d="M1040.69,-329.97C1102.7,-307.49 1223.25,-263.77 1281.67,-242.59"/>
<polygon fill="#63b8ff" stroke="#63b8ff" points="1282.95,-245.84 1291.16,-239.14 1280.57,-239.26 1282.95,-245.84"/>
</a>
</g>
</g>
<!-- Node16 -->
<g id="Node000016" class="node">
<title>Node16</title>
<g id="a_Node000016"><a xlink:href="objects_8h.html" target="_top" xlink:title=" ">
<polygon fill="white" stroke="#666666" points="1425.5,-184 1364.5,-184 1364.5,-165 1425.5,-165 1425.5,-184"/>
<text text-anchor="middle" x="1395" y="-172" font-family="Helvetica,sans-Serif" font-size="10.00">objects.h</text>
</a>
</g>
</g>
<!-- Node1&#45;&gt;Node16 -->
<g id="edge63_Node000001_Node000016" class="edge">
<title>Node1&#45;&gt;Node16</title>
<g id="a_edge63_Node000001_Node000016"><a xlink:title=" ">
<path fill="none" stroke="#63b8ff" d="M1055.76,-344.34C1136.4,-341.85 1288.52,-325.1 1376,-239 1387.91,-227.28 1392.42,-208.43 1394.09,-194.31"/>
<polygon fill="#63b8ff" stroke="#63b8ff" points="1397.59,-194.47 1394.92,-184.22 1390.62,-193.9 1397.59,-194.47"/>
</a>
</g>
</g>
<!-- Node21 -->
<g id="Node000021" class="node">
<title>Node21</title>
<g id="a_Node000021"><a xlink:href="path__spawn__metadata_8h.html" target="_top" xlink:title=" ">
<polygon fill="white" stroke="#666666" points="1206.5,-239 1069.5,-239 1069.5,-220 1206.5,-220 1206.5,-239"/>
<text text-anchor="middle" x="1138" y="-227" font-family="Helvetica,sans-Serif" font-size="10.00">path_spawn_metadata.h</text>
</a>
</g>
</g>
<!-- Node1&#45;&gt;Node21 -->
<g id="edge64_Node000001_Node000021" class="edge">
<title>Node1&#45;&gt;Node21</title>
<g id="a_edge64_Node000001_Node000021"><a xlink:title=" ">
<path fill="none" stroke="#63b8ff" d="M1018.95,-329.85C1044.65,-308.41 1093.28,-267.82 1119.74,-245.74"/>
<polygon fill="#63b8ff" stroke="#63b8ff" points="1122.06,-248.37 1127.49,-239.27 1117.57,-242.99 1122.06,-248.37"/>
</a>
</g>
</g>
<!-- Node25 -->
<g id="Node000025" class="node">
<title>Node25</title>
<g id="a_Node000025"><a xlink:href="block__fort__vertices_8h.html" target="_top" xlink:title=" ">
<polygon fill="white" stroke="#666666" points="307.5,-129 154.5,-129 154.5,-110 307.5,-110 307.5,-129"/>
<text text-anchor="middle" x="231" y="-117" font-family="Helvetica,sans-Serif" font-size="10.00">assets/block_fort_vertices.h</text>
</a>
</g>
</g>
<!-- Node1&#45;&gt;Node25 -->
<g id="edge48_Node000001_Node000025" class="edge">
<title>Node1&#45;&gt;Node25</title>
<g id="a_edge48_Node000001_Node000025"><a xlink:title=" ">
<path fill="none" stroke="#63b8ff" d="M948.28,-343.76C865.81,-342.06 703.84,-333.44 573,-294 443.41,-254.94 303.97,-168.5 252.04,-134.57"/>
<polygon fill="#63b8ff" stroke="#63b8ff" points="253.93,-131.62 243.66,-129.04 250.08,-137.47 253.93,-131.62"/>
</a>
</g>
</g>
<!-- Node26 -->
<g id="Node000026" class="node">
<title>Node26</title>
<g id="a_Node000026"><a xlink:href="block__fort__displaylists_8h.html" target="_top" xlink:title=" ">
<polygon fill="white" stroke="#666666" points="496,-129 326,-129 326,-110 496,-110 496,-129"/>
<text text-anchor="middle" x="411" y="-117" font-family="Helvetica,sans-Serif" font-size="10.00">assets/block_fort_displaylists.h</text>
</a>
</g>
</g>
<!-- Node1&#45;&gt;Node26 -->
<g id="edge52_Node000001_Node000026" class="edge">
<title>Node1&#45;&gt;Node26</title>
<g id="a_edge52_Node000001_Node000026"><a xlink:title=" ">
<path fill="none" stroke="#63b8ff" d="M948.35,-344.66C872.83,-343.9 731.99,-336.22 621,-294 539.66,-263.06 522.08,-243.96 459,-184 444.33,-170.06 430.74,-151.28 421.79,-137.77"/>
<polygon fill="#63b8ff" stroke="#63b8ff" points="424.5,-135.52 416.14,-129.01 418.61,-139.31 424.5,-135.52"/>
</a>
</g>
</g>
<!-- Node27 -->
<g id="Node000027" class="node">
<title>Node27</title>
<g id="a_Node000027"><a xlink:href="block__fort__data_8h.html" target="_top" xlink:title=" ">
<polygon fill="white" stroke="#666666" points="726,-129 590,-129 590,-110 726,-110 726,-129"/>
<text text-anchor="middle" x="658" y="-117" font-family="Helvetica,sans-Serif" font-size="10.00">assets/block_fort_data.h</text>
</a>
</g>
</g>
<!-- Node1&#45;&gt;Node27 -->
<g id="edge56_Node000001_Node000027" class="edge">
<title>Node1&#45;&gt;Node27</title>
<g id="a_edge56_Node000001_Node000027"><a xlink:title=" ">
<path fill="none" stroke="#63b8ff" d="M1005.73,-329.78C1013.62,-296.02 1027.92,-210.51 984,-165 979.7,-160.54 831.61,-141.7 736.52,-130.01"/>
<polygon fill="#63b8ff" stroke="#63b8ff" points="736.7,-126.51 726.35,-128.76 735.85,-133.45 736.7,-126.51"/>
</a>
</g>
</g>
<!-- Node4 -->
<g id="Node000004" class="node">
<title>Node4</title>
<g id="a_Node000004"><a xlink:title=" ">
<polygon fill="#e0e0e0" stroke="#999999" points="857,-239 719,-239 719,-220 857,-220 857,-239"/>
<text text-anchor="middle" x="788" y="-227" font-family="Helvetica,sans-Serif" font-size="10.00">libultraship/libultraship.h</text>
</a>
</g>
</g>
<!-- Node3&#45;&gt;Node4 -->
<g id="edge3_Node000003_Node000004" class="edge">
<title>Node3&#45;&gt;Node4</title>
<g id="a_edge3_Node000003_Node000004"><a xlink:title=" ">
<path fill="none" stroke="#63b8ff" d="M911.38,-274.98C887.1,-266.23 849.05,-252.51 821.63,-242.62"/>
<polygon fill="#63b8ff" stroke="#63b8ff" points="822.64,-239.27 812.05,-239.17 820.27,-245.85 822.64,-239.27"/>
</a>
</g>
</g>
<!-- Node5 -->
<g id="Node000005" class="node">
<title>Node5</title>
<g id="a_Node000005"><a xlink:href="CoreMath_8h.html" target="_top" xlink:title=" ">
<polygon fill="white" stroke="#666666" points="120.5,-184 47.5,-184 47.5,-165 120.5,-165 120.5,-184"/>
<text text-anchor="middle" x="84" y="-172" font-family="Helvetica,sans-Serif" font-size="10.00">CoreMath.h</text>
</a>
</g>
</g>
<!-- Node3&#45;&gt;Node5 -->
<g id="edge4_Node000003_Node000005" class="edge">
<title>Node3&#45;&gt;Node5</title>
<g id="a_edge4_Node000003_Node000005"><a xlink:title=" ">
<path fill="none" stroke="#63b8ff" d="M905.04,-279.87C843.17,-272.36 696.79,-254.52 574,-239 411.06,-218.4 217.75,-193.09 130.65,-181.64"/>
<polygon fill="#63b8ff" stroke="#63b8ff" points="130.93,-178.15 120.56,-180.32 130.02,-185.09 130.93,-178.15"/>
</a>
</g>
</g>
<!-- Node3&#45;&gt;Node6 -->
<g id="edge6_Node000003_Node000006" class="edge">
<title>Node3&#45;&gt;Node6</title>
<g id="a_edge6_Node000003_Node000006"><a xlink:title=" ">
<path fill="none" stroke="#63b8ff" d="M905.41,-283.08C837.38,-281.51 672.57,-274.08 632,-239 619.22,-227.95 614.85,-208.7 613.45,-194.28"/>
<polygon fill="#63b8ff" stroke="#63b8ff" points="616.93,-193.79 612.85,-184.01 609.94,-194.19 616.93,-193.79"/>
</a>
</g>
</g>
<!-- Node7 -->
<g id="Node000007" class="node">
<title>Node7</title>
<g id="a_Node000007"><a xlink:href="common__structs_8h.html" target="_top" xlink:title=" ">
<polygon fill="white" stroke="#666666" points="1255.5,-74 1148.5,-74 1148.5,-55 1255.5,-55 1255.5,-74"/>
<text text-anchor="middle" x="1202" y="-62" font-family="Helvetica,sans-Serif" font-size="10.00">common_structs.h</text>
</a>
</g>
</g>
<!-- Node3&#45;&gt;Node7 -->
<g id="edge47_Node000003_Node000007" class="edge">
<title>Node3&#45;&gt;Node7</title>
<g id="a_edge47_Node000003_Node000007"><a xlink:title=" ">
<path fill="none" stroke="#63b8ff" d="M949.98,-274.95C1000.93,-245.74 1165.29,-150.6 1182,-129 1192.06,-116 1197.11,-97.85 1199.62,-84.29"/>
<polygon fill="#63b8ff" stroke="#63b8ff" points="1203.11,-84.6 1201.18,-74.18 1196.19,-83.53 1203.11,-84.6"/>
</a>
</g>
</g>
<!-- Node3&#45;&gt;Node8 -->
<g id="edge10_Node000003_Node000008" class="edge">
<title>Node3&#45;&gt;Node8</title>
<g id="a_edge10_Node000003_Node000008"><a xlink:title=" ">
<path fill="none" stroke="#63b8ff" d="M905.3,-283.57C847.53,-282.81 716.8,-276.65 615,-239 584.25,-227.63 553.13,-205.54 534.19,-190.65"/>
<polygon fill="#63b8ff" stroke="#63b8ff" points="536.15,-187.73 526.17,-184.19 531.76,-193.19 536.15,-187.73"/>
</a>
</g>
</g>
<!-- Node3&#45;&gt;Node14 -->
<g id="edge19_Node000003_Node000014" class="edge">
<title>Node3&#45;&gt;Node14</title>
<g id="a_edge19_Node000003_Node000014"><a xlink:title=" ">
<path fill="none" stroke="#63b8ff" d="M964.5,-279.39C1026.19,-270.78 1169.95,-250.73 1252.92,-239.16"/>
<polygon fill="#63b8ff" stroke="#63b8ff" points="1253.56,-242.6 1262.98,-237.76 1252.59,-235.67 1253.56,-242.6"/>
</a>
</g>
</g>
<!-- Node17 -->
<g id="Node000017" class="node">
<title>Node17</title>
<g id="a_Node000017"><a xlink:href="defines_8h.html" target="_top" xlink:title=" ">
<polygon fill="white" stroke="#666666" points="936.5,-239 875.5,-239 875.5,-220 936.5,-220 936.5,-239"/>
<text text-anchor="middle" x="906" y="-227" font-family="Helvetica,sans-Serif" font-size="10.00">defines.h</text>
</a>
</g>
</g>
<!-- Node3&#45;&gt;Node17 -->
<g id="edge27_Node000003_Node000017" class="edge">
<title>Node3&#45;&gt;Node17</title>
<g id="a_edge27_Node000003_Node000017"><a xlink:title=" ">
<path fill="none" stroke="#63b8ff" d="M930.21,-274.75C926.24,-267.49 920.47,-256.95 915.57,-247.98"/>
<polygon fill="#63b8ff" stroke="#63b8ff" points="918.57,-246.18 910.7,-239.09 912.43,-249.54 918.57,-246.18"/>
</a>
</g>
</g>
<!-- Node18 -->
<g id="Node000018" class="node">
<title>Node18</title>
<g id="a_Node000018"><a xlink:href="bomb__kart_8h.html" target="_top" xlink:title=" ">
<polygon fill="white" stroke="#666666" points="974.5,-184 897.5,-184 897.5,-165 974.5,-165 974.5,-184"/>
<text text-anchor="middle" x="936" y="-172" font-family="Helvetica,sans-Serif" font-size="10.00">bomb_kart.h</text>
</a>
</g>
</g>
<!-- Node3&#45;&gt;Node18 -->
<g id="edge28_Node000003_Node000018" class="edge">
<title>Node3&#45;&gt;Node18</title>
<g id="a_edge28_Node000003_Node000018"><a xlink:title=" ">
<path fill="none" stroke="#63b8ff" d="M937.83,-274.75C940.55,-265.86 944.46,-251.64 946,-239 947.86,-223.75 944.82,-206.54 941.62,-193.88"/>
<polygon fill="#63b8ff" stroke="#63b8ff" points="944.95,-192.79 938.89,-184.1 938.21,-194.67 944.95,-192.79"/>
</a>
</g>
</g>
<!-- Node3&#45;&gt;Node21 -->
<g id="edge35_Node000003_Node000021" class="edge">
<title>Node3&#45;&gt;Node21</title>
<g id="a_edge35_Node000003_Node000021"><a xlink:title=" ">
<path fill="none" stroke="#63b8ff" d="M964.52,-275.79C999.01,-266.79 1056.36,-251.81 1095.61,-241.57"/>
<polygon fill="#63b8ff" stroke="#63b8ff" points="1096.63,-244.92 1105.42,-239.01 1094.86,-238.15 1096.63,-244.92"/>
</a>
</g>
</g>
<!-- Node22 -->
<g id="Node000022" class="node">
<title>Node22</title>
<g id="a_Node000022"><a xlink:href="waypoints_8h.html" target="_top" xlink:title=" ">
<polygon fill="white" stroke="#666666" points="1232,-184 1156,-184 1156,-165 1232,-165 1232,-184"/>
<text text-anchor="middle" x="1194" y="-172" font-family="Helvetica,sans-Serif" font-size="10.00">waypoints.h</text>
</a>
</g>
</g>
<!-- Node3&#45;&gt;Node22 -->
<g id="edge45_Node000003_Node000022" class="edge">
<title>Node3&#45;&gt;Node22</title>
<g id="a_edge45_Node000003_Node000022"><a xlink:title=" ">
<path fill="none" stroke="#63b8ff" d="M964.85,-283.44C1030.46,-282.59 1183.92,-276.56 1216,-239 1227.31,-225.75 1217.95,-206.36 1208.18,-192.5"/>
<polygon fill="#63b8ff" stroke="#63b8ff" points="1210.76,-190.12 1201.91,-184.3 1205.2,-194.37 1210.76,-190.12"/>
</a>
</g>
</g>
<!-- Node24 -->
<g id="Node000024" class="node">
<title>Node24</title>
<g id="a_Node000024"><a xlink:href="sounds_8h.html" target="_top" xlink:title=" ">
<polygon fill="white" stroke="#666666" points="701,-239 641,-239 641,-220 701,-220 701,-239"/>
<text text-anchor="middle" x="671" y="-227" font-family="Helvetica,sans-Serif" font-size="10.00">sounds.h</text>
</a>
</g>
</g>
<!-- Node3&#45;&gt;Node24 -->
<g id="edge46_Node000003_Node000024" class="edge">
<title>Node3&#45;&gt;Node24</title>
<g id="a_edge46_Node000003_Node000024"><a xlink:title=" ">
<path fill="none" stroke="#63b8ff" d="M905.48,-277.85C864.29,-269.93 786.99,-254.91 711.39,-239.26"/>
<polygon fill="#63b8ff" stroke="#63b8ff" points="711.72,-235.75 701.22,-237.15 710.3,-242.61 711.72,-235.75"/>
</a>
</g>
</g>
<!-- Node5&#45;&gt;Node2 -->
<g id="edge5_Node000005_Node000002" class="edge">
<title>Node5&#45;&gt;Node2</title>
<g id="a_edge5_Node000005_Node000002"><a xlink:title=" ">
<path fill="none" stroke="#63b8ff" d="M64.73,-164.9C50.88,-157.55 33.24,-145.54 25,-129 10.33,-99.56 3.12,-79.55 25,-55 46.97,-30.35 261.18,-17.37 360.68,-12.63"/>
<polygon fill="#63b8ff" stroke="#63b8ff" points="360.97,-16.12 370.8,-12.16 360.65,-9.13 360.97,-16.12"/>
</a>
</g>
</g>
<!-- Node6&#45;&gt;Node2 -->
<g id="edge7_Node000006_Node000002" class="edge">
<title>Node6&#45;&gt;Node2</title>
<g id="a_edge7_Node000006_Node000002"><a xlink:title=" ">
<path fill="none" stroke="#63b8ff" d="M581.63,-166.41C578.72,-165.88 575.81,-165.4 573,-165 517.96,-157.2 111.87,-169.7 74,-129 51.6,-104.92 52.32,-79.73 74,-55 92.59,-33.79 271.36,-19.44 360.7,-13.53"/>
<polygon fill="#63b8ff" stroke="#63b8ff" points="361.12,-17.01 370.88,-12.87 360.67,-10.03 361.12,-17.01"/>
</a>
</g>
</g>
<!-- Node6&#45;&gt;Node7 -->
<g id="edge8_Node000006_Node000007" class="edge">
<title>Node6&#45;&gt;Node7</title>
<g id="a_edge8_Node000006_Node000007"><a xlink:title=" ">
<path fill="none" stroke="#63b8ff" d="M644.11,-173.23C741.3,-172 1037.99,-165.31 1126,-129 1150.94,-118.71 1173.87,-97.17 1187.87,-82.04"/>
<polygon fill="#63b8ff" stroke="#63b8ff" points="1190.64,-84.2 1194.69,-74.41 1185.42,-79.54 1190.64,-84.2"/>
</a>
</g>
</g>
<!-- Node7&#45;&gt;Node2 -->
<g id="edge9_Node000007_Node000002" class="edge">
<title>Node7&#45;&gt;Node2</title>
<g id="a_edge9_Node000007_Node000002"><a xlink:title=" ">
<path fill="none" stroke="#63b8ff" d="M1148.25,-59.9C1002.72,-50.15 602.48,-23.33 461.19,-13.86"/>
<polygon fill="#63b8ff" stroke="#63b8ff" points="461.29,-10.36 451.08,-13.19 460.83,-17.35 461.29,-10.36"/>
</a>
</g>
</g>
<!-- Node8&#45;&gt;Node2 -->
<g id="edge11_Node000008_Node000002" class="edge">
<title>Node8&#45;&gt;Node2</title>
<g id="a_edge11_Node000008_Node000002"><a xlink:title=" ">
<path fill="none" stroke="#63b8ff" d="M467.84,-172.58C352.79,-169.9 69.37,-160.15 41,-129 18.86,-104.68 19.18,-79.61 41,-55 61.87,-31.47 264.44,-18.02 360.69,-12.9"/>
<polygon fill="#63b8ff" stroke="#63b8ff" points="360.97,-16.39 370.77,-12.38 360.6,-9.4 360.97,-16.39"/>
</a>
</g>
</g>
<!-- Node9 -->
<g id="Node000009" class="node">
<title>Node9</title>
<g id="a_Node000009"><a xlink:title=" ">
<polygon fill="#e0e0e0" stroke="#999999" points="90,-19 0,-19 0,0 90,0 90,-19"/>
<text text-anchor="middle" x="45" y="-7" font-family="Helvetica,sans-Serif" font-size="10.00">libultra/types.h</text>
</a>
</g>
</g>
<!-- Node8&#45;&gt;Node9 -->
<g id="edge12_Node000008_Node000009" class="edge">
<title>Node8&#45;&gt;Node9</title>
<g id="a_edge12_Node000008_Node000009"><a xlink:title=" ">
<path fill="none" stroke="#63b8ff" d="M467.97,-172.74C350.19,-170.4 54.51,-161.31 25,-129 -0.34,-101.26 19.87,-53.9 34.08,-28.26"/>
<polygon fill="#63b8ff" stroke="#63b8ff" points="37.3,-29.69 39.31,-19.29 31.25,-26.17 37.3,-29.69"/>
</a>
</g>
</g>
<!-- Node10 -->
<g id="Node000010" class="node">
<title>Node10</title>
<g id="a_Node000010"><a xlink:title=" ">
<polygon fill="#e0e0e0" stroke="#999999" points="540,-74 462,-74 462,-55 540,-55 540,-74"/>
<text text-anchor="middle" x="501" y="-62" font-family="Helvetica,sans-Serif" font-size="10.00">libultra/gbi.h</text>
</a>
</g>
</g>
<!-- Node8&#45;&gt;Node10 -->
<g id="edge13_Node000008_Node000010" class="edge">
<title>Node8&#45;&gt;Node10</title>
<g id="a_edge13_Node000008_Node000010"><a xlink:title=" ">
<path fill="none" stroke="#63b8ff" d="M514.77,-164.66C512.34,-147.17 506.88,-107.8 503.61,-84.27"/>
<polygon fill="#63b8ff" stroke="#63b8ff" points="507.05,-83.58 502.2,-74.16 500.11,-84.54 507.05,-83.58"/>
</a>
</g>
</g>
<!-- Node11 -->
<g id="Node000011" class="node">
<title>Node11</title>
<g id="a_Node000011"><a xlink:href="other__textures_8h.html" target="_top" xlink:title=" ">
<polygon fill="white" stroke="#666666" points="1023.5,-129 892.5,-129 892.5,-110 1023.5,-110 1023.5,-129"/>
<text text-anchor="middle" x="958" y="-117" font-family="Helvetica,sans-Serif" font-size="10.00">assets/other_textures.h</text>
</a>
</g>
</g>
<!-- Node8&#45;&gt;Node11 -->
<g id="edge14_Node000008_Node000011" class="edge">
<title>Node8&#45;&gt;Node11</title>
<g id="a_edge14_Node000008_Node000011"><a xlink:title=" ">
<path fill="none" stroke="#63b8ff" d="M564.19,-166.2C567.17,-165.78 570.12,-165.38 573,-165 602.82,-161.05 778.78,-140.91 882.21,-129.12"/>
<polygon fill="#63b8ff" stroke="#63b8ff" points="882.75,-132.58 892.29,-127.98 881.96,-125.63 882.75,-132.58"/>
</a>
</g>
</g>
<!-- Node13 -->
<g id="Node000013" class="node">
<title>Node13</title>
<g id="a_Node000013"><a xlink:href="animation_8h.html" target="_top" xlink:title=" ">
<polygon fill="white" stroke="#666666" points="1116.5,-129 1041.5,-129 1041.5,-110 1116.5,-110 1116.5,-129"/>
<text text-anchor="middle" x="1079" y="-117" font-family="Helvetica,sans-Serif" font-size="10.00">animation.h</text>
</a>
</g>
</g>
<!-- Node8&#45;&gt;Node13 -->
<g id="edge17_Node000008_Node000013" class="edge">
<title>Node8&#45;&gt;Node13</title>
<g id="a_edge17_Node000008_Node000013"><a xlink:title=" ">
<path fill="none" stroke="#63b8ff" d="M564.17,-166.07C567.16,-165.69 570.12,-165.33 573,-165 773.48,-142.24 827.93,-155.23 1031.28,-129.1"/>
<polygon fill="#63b8ff" stroke="#63b8ff" points="1031.93,-132.54 1041.4,-127.78 1031.03,-125.6 1031.93,-132.54"/>
</a>
</g>
</g>
<!-- Node11&#45;&gt;Node2 -->
<g id="edge15_Node000011_Node000002" class="edge">
<title>Node11&#45;&gt;Node2</title>
<g id="a_edge15_Node000011_Node000002"><a xlink:title=" ">
<path fill="none" stroke="#63b8ff" d="M932.54,-109.98C891.43,-96.51 807.68,-70.26 735,-55 639.2,-34.89 525.49,-21.68 461.44,-15.2"/>
<polygon fill="#63b8ff" stroke="#63b8ff" points="461.51,-11.69 451.22,-14.18 460.82,-18.66 461.51,-11.69"/>
</a>
</g>
</g>
<!-- Node12 -->
<g id="Node000012" class="node">
<title>Node12</title>
<g id="a_Node000012"><a xlink:href="align__asset__macro_8h.html" target="_top" xlink:title=" ">
<polygon fill="white" stroke="#666666" points="675.5,-74 558.5,-74 558.5,-55 675.5,-55 675.5,-74"/>
<text text-anchor="middle" x="617" y="-62" font-family="Helvetica,sans-Serif" font-size="10.00">align_asset_macro.h</text>
</a>
</g>
</g>
<!-- Node11&#45;&gt;Node12 -->
<g id="edge16_Node000011_Node000012" class="edge">
<title>Node11&#45;&gt;Node12</title>
<g id="a_edge16_Node000011_Node000012"><a xlink:title=" ">
<path fill="none" stroke="#63b8ff" d="M903.21,-109.98C842.9,-100.61 746.01,-85.55 681.93,-75.59"/>
<polygon fill="#63b8ff" stroke="#63b8ff" points="682.35,-72.12 671.93,-74.04 681.28,-79.03 682.35,-72.12"/>
</a>
</g>
</g>
<!-- Node13&#45;&gt;Node7 -->
<g id="edge18_Node000013_Node000007" class="edge">
<title>Node13&#45;&gt;Node7</title>
<g id="a_edge18_Node000013_Node000007"><a xlink:title=" ">
<path fill="none" stroke="#63b8ff" d="M1098.76,-109.98C1118.73,-101.38 1149.8,-87.99 1172.65,-78.15"/>
<polygon fill="#63b8ff" stroke="#63b8ff" points="1174.08,-81.34 1181.88,-74.17 1171.31,-74.91 1174.08,-81.34"/>
</a>
</g>
</g>
<!-- Node14&#45;&gt;Node10 -->
<g id="edge20_Node000014_Node000010" class="edge">
<title>Node14&#45;&gt;Node10</title>
<g id="a_edge20_Node000014_Node000010"><a xlink:title=" ">
<path fill="none" stroke="#63b8ff" d="M1308.36,-219.95C1296.6,-205.55 1270.53,-176.86 1241,-165 1104.69,-110.27 718.33,-181.12 581,-129 554.7,-119.02 530.28,-97.03 515.5,-81.74"/>
<polygon fill="#63b8ff" stroke="#63b8ff" points="517.72,-78.98 508.34,-74.06 512.6,-83.76 517.72,-78.98"/>
</a>
</g>
</g>
<!-- Node14&#45;&gt;Node11 -->
<g id="edge23_Node000014_Node000011" class="edge">
<title>Node14&#45;&gt;Node11</title>
<g id="a_edge23_Node000014_Node000011"><a xlink:title=" ">
<path fill="none" stroke="#63b8ff" d="M1312.09,-219.8C1306.89,-205.71 1294.57,-178.14 1274,-165 1263.93,-158.57 1123.9,-140.59 1033.66,-129.55"/>
<polygon fill="#63b8ff" stroke="#63b8ff" points="1034.08,-126.08 1023.73,-128.34 1033.24,-133.03 1034.08,-126.08"/>
</a>
</g>
</g>
<!-- Node15 -->
<g id="Node000015" class="node">
<title>Node15</title>
<g id="a_Node000015"><a xlink:href="spline_8h.html" target="_top" xlink:title=" ">
<polygon fill="white" stroke="#666666" points="1380.5,-129 1325.5,-129 1325.5,-110 1380.5,-110 1380.5,-129"/>
<text text-anchor="middle" x="1353" y="-117" font-family="Helvetica,sans-Serif" font-size="10.00">spline.h</text>
</a>
</g>
</g>
<!-- Node14&#45;&gt;Node15 -->
<g id="edge21_Node000014_Node000015" class="edge">
<title>Node14&#45;&gt;Node15</title>
<g id="a_edge21_Node000014_Node000015"><a xlink:title=" ">
<path fill="none" stroke="#63b8ff" d="M1318.11,-219.66C1324.32,-202.01 1338.37,-162.09 1346.62,-138.64"/>
<polygon fill="#63b8ff" stroke="#63b8ff" points="1349.94,-139.75 1349.95,-129.16 1343.33,-137.43 1349.94,-139.75"/>
</a>
</g>
</g>
<!-- Node14&#45;&gt;Node16 -->
<g id="edge24_Node000014_Node000016" class="edge">
<title>Node14&#45;&gt;Node16</title>
<g id="a_edge24_Node000014_Node000016"><a xlink:title=" ">
<path fill="none" stroke="#63b8ff" d="M1327.85,-219.98C1340.14,-211.84 1358.91,-199.41 1373.48,-189.76"/>
<polygon fill="#63b8ff" stroke="#63b8ff" points="1375.51,-192.61 1381.91,-184.17 1371.64,-186.78 1375.51,-192.61"/>
</a>
</g>
</g>
<!-- Node15&#45;&gt;Node7 -->
<g id="edge22_Node000015_Node000007" class="edge">
<title>Node15&#45;&gt;Node7</title>
<g id="a_edge22_Node000015_Node000007"><a xlink:title=" ">
<path fill="none" stroke="#63b8ff" d="M1328.74,-109.98C1303.68,-101.19 1264.37,-87.39 1236.17,-77.49"/>
<polygon fill="#63b8ff" stroke="#63b8ff" points="1237.3,-74.18 1226.7,-74.17 1234.98,-80.78 1237.3,-74.18"/>
</a>
</g>
</g>
<!-- Node16&#45;&gt;Node7 -->
<g id="edge26_Node000016_Node000007" class="edge">
<title>Node16&#45;&gt;Node7</title>
<g id="a_edge26_Node000016_Node000007"><a xlink:title=" ">
<path fill="none" stroke="#63b8ff" d="M1397.18,-164.92C1400.03,-151.5 1403.24,-125.45 1390,-110 1373.85,-91.16 1313.56,-79.23 1265.55,-72.52"/>
<polygon fill="#63b8ff" stroke="#63b8ff" points="1265.89,-69.03 1255.51,-71.16 1264.95,-75.97 1265.89,-69.03"/>
</a>
</g>
</g>
<!-- Node16&#45;&gt;Node15 -->
<g id="edge25_Node000016_Node000015" class="edge">
<title>Node16&#45;&gt;Node15</title>
<g id="a_edge25_Node000016_Node000015"><a xlink:title=" ">
<path fill="none" stroke="#63b8ff" d="M1388.06,-164.75C1382.13,-157.26 1373.43,-146.28 1366.18,-137.13"/>
<polygon fill="#63b8ff" stroke="#63b8ff" points="1368.76,-134.75 1359.81,-129.09 1363.27,-139.1 1368.76,-134.75"/>
</a>
</g>
</g>
<!-- Node18&#45;&gt;Node7 -->
<g id="edge29_Node000018_Node000007" class="edge">
<title>Node18&#45;&gt;Node7</title>
<g id="a_edge29_Node000018_Node000007"><a xlink:title=" ">
<path fill="none" stroke="#63b8ff" d="M974.69,-166.57C1036.48,-155.38 1151.33,-134.09 1159,-129 1175.6,-117.98 1187.49,-98.14 1194.5,-83.56"/>
<polygon fill="#63b8ff" stroke="#63b8ff" points="1197.85,-84.63 1198.74,-74.07 1191.46,-81.77 1197.85,-84.63"/>
</a>
</g>
</g>
<!-- Node19 -->
<g id="Node000019" class="node">
<title>Node19</title>
<g id="a_Node000019"><a xlink:href="mk64_8h.html" target="_top" xlink:title=" ">
<polygon fill="white" stroke="#666666" points="136.5,-129 83.5,-129 83.5,-110 136.5,-110 136.5,-129"/>
<text text-anchor="middle" x="110" y="-117" font-family="Helvetica,sans-Serif" font-size="10.00">mk64.h</text>
</a>
</g>
</g>
<!-- Node18&#45;&gt;Node19 -->
<g id="edge30_Node000018_Node000019" class="edge">
<title>Node18&#45;&gt;Node19</title>
<g id="a_edge30_Node000018_Node000019"><a xlink:title=" ">
<path fill="none" stroke="#63b8ff" d="M897.27,-172.26C762.23,-167.78 311.79,-151.6 146.65,-128.93"/>
<polygon fill="#63b8ff" stroke="#63b8ff" points="147.05,-125.46 136.65,-127.5 146.06,-132.39 147.05,-125.46"/>
</a>
</g>
</g>
<!-- Node19&#45;&gt;Node2 -->
<g id="edge31_Node000019_Node000002" class="edge">
<title>Node19&#45;&gt;Node2</title>
<g id="a_edge31_Node000019_Node000002"><a xlink:title=" ">
<path fill="none" stroke="#63b8ff" d="M133.87,-109.94C187.22,-90.79 316.21,-44.51 377.54,-22.51"/>
<polygon fill="#63b8ff" stroke="#63b8ff" points="378.9,-25.74 387.13,-19.07 376.53,-19.15 378.9,-25.74"/>
</a>
</g>
</g>
<!-- Node19&#45;&gt;Node10 -->
<g id="edge34_Node000019_Node000010" class="edge">
<title>Node19&#45;&gt;Node10</title>
<g id="a_edge34_Node000019_Node000010"><a xlink:title=" ">
<path fill="none" stroke="#63b8ff" d="M136.69,-111.69C139.48,-111.07 142.29,-110.5 145,-110 253.68,-90.08 382.68,-76.4 451.66,-69.88"/>
<polygon fill="#63b8ff" stroke="#63b8ff" points="452.16,-73.34 461.8,-68.93 451.51,-66.37 452.16,-73.34"/>
</a>
</g>
</g>
<!-- Node20 -->
<g id="Node000020" class="node">
<title>Node20</title>
<g id="a_Node000020"><a xlink:href="string_8h.html" target="_top" xlink:title=" ">
<polygon fill="white" stroke="#666666" points="136.5,-74 83.5,-74 83.5,-55 136.5,-55 136.5,-74"/>
<text text-anchor="middle" x="110" y="-62" font-family="Helvetica,sans-Serif" font-size="10.00">string.h</text>
</a>
</g>
</g>
<!-- Node19&#45;&gt;Node20 -->
<g id="edge32_Node000019_Node000020" class="edge">
<title>Node19&#45;&gt;Node20</title>
<g id="a_edge32_Node000019_Node000020"><a xlink:title=" ">
<path fill="none" stroke="#63b8ff" d="M110,-109.75C110,-102.8 110,-92.85 110,-84.13"/>
<polygon fill="#63b8ff" stroke="#63b8ff" points="113.5,-84.09 110,-74.09 106.5,-84.09 113.5,-84.09"/>
</a>
</g>
</g>
<!-- Node20&#45;&gt;Node9 -->
<g id="edge33_Node000020_Node000009" class="edge">
<title>Node20&#45;&gt;Node9</title>
<g id="a_edge33_Node000020_Node000009"><a xlink:title=" ">
<path fill="none" stroke="#63b8ff" d="M99.56,-54.98C89.85,-47.07 75.18,-35.11 63.5,-25.58"/>
<polygon fill="#63b8ff" stroke="#63b8ff" points="65.6,-22.78 55.63,-19.17 61.17,-28.2 65.6,-22.78"/>
</a>
</g>
</g>
<!-- Node21&#45;&gt;Node7 -->
<g id="edge38_Node000021_Node000007" class="edge">
<title>Node21&#45;&gt;Node7</title>
<g id="a_edge38_Node000021_Node000007"><a xlink:title=" ">
<path fill="none" stroke="#63b8ff" d="M1136.7,-219.66C1135.25,-206.34 1134.55,-180.99 1147,-165 1172.96,-131.66 1211.45,-164.08 1235,-129 1245.42,-113.48 1232.19,-94.27 1219.51,-81.06"/>
<polygon fill="#63b8ff" stroke="#63b8ff" points="1221.91,-78.51 1212.29,-74.06 1217.03,-83.53 1221.91,-78.51"/>
</a>
</g>
</g>
<!-- Node21&#45;&gt;Node18 -->
<g id="edge44_Node000021_Node000018" class="edge">
<title>Node21&#45;&gt;Node18</title>
<g id="a_edge44_Node000021_Node000018"><a xlink:title=" ">
<path fill="none" stroke="#63b8ff" d="M1105.55,-219.98C1071.04,-210.93 1016.34,-196.58 978.44,-186.64"/>
<polygon fill="#63b8ff" stroke="#63b8ff" points="979.27,-183.23 968.71,-184.08 977.49,-190.01 979.27,-183.23"/>
</a>
</g>
</g>
<!-- Node21&#45;&gt;Node22 -->
<g id="edge36_Node000021_Node000022" class="edge">
<title>Node21&#45;&gt;Node22</title>
<g id="a_edge36_Node000021_Node000022"><a xlink:title=" ">
<path fill="none" stroke="#63b8ff" d="M1147,-219.98C1155.19,-212.23 1167.51,-200.58 1177.47,-191.14"/>
<polygon fill="#63b8ff" stroke="#63b8ff" points="1179.98,-193.59 1184.84,-184.17 1175.17,-188.5 1179.98,-193.59"/>
</a>
</g>
</g>
<!-- Node23 -->
<g id="Node000023" class="node">
<title>Node23</title>
<g id="a_Node000023"><a xlink:href="common__data_8h.html" target="_top" xlink:title=" ">
<polygon fill="white" stroke="#666666" points="874,-129 744,-129 744,-110 874,-110 874,-129"/>
<text text-anchor="middle" x="809" y="-117" font-family="Helvetica,sans-Serif" font-size="10.00">assets/common_data.h</text>
</a>
</g>
</g>
<!-- Node21&#45;&gt;Node23 -->
<g id="edge39_Node000021_Node000023" class="edge">
<title>Node21&#45;&gt;Node23</title>
<g id="a_edge39_Node000021_Node000023"><a xlink:title=" ">
<path fill="none" stroke="#63b8ff" d="M1129.7,-219.91C1115.7,-205.98 1085.87,-178.64 1055,-165 1025.01,-151.75 944.73,-138.64 883.97,-130.12"/>
<polygon fill="#63b8ff" stroke="#63b8ff" points="884.4,-126.65 874.02,-128.74 883.44,-133.58 884.4,-126.65"/>
</a>
</g>
</g>
<!-- Node22&#45;&gt;Node7 -->
<g id="edge37_Node000022_Node000007" class="edge">
<title>Node22&#45;&gt;Node7</title>
<g id="a_edge37_Node000022_Node000007"><a xlink:title=" ">
<path fill="none" stroke="#63b8ff" d="M1224.27,-164.92C1241.84,-158.21 1262.52,-146.94 1273,-129 1285.45,-107.7 1259.27,-89.66 1235.26,-78.31"/>
<polygon fill="#63b8ff" stroke="#63b8ff" points="1236.47,-75.02 1225.91,-74.16 1233.63,-81.42 1236.47,-75.02"/>
</a>
</g>
</g>
<!-- Node23&#45;&gt;Node2 -->
<g id="edge41_Node000023_Node000002" class="edge">
<title>Node23&#45;&gt;Node2</title>
<g id="a_edge41_Node000023_Node000002"><a xlink:title=" ">
<path fill="none" stroke="#63b8ff" d="M797.74,-109.9C778.86,-95.94 739.11,-68.56 701,-55 620.19,-26.24 520.22,-16.06 461.25,-12.46"/>
<polygon fill="#63b8ff" stroke="#63b8ff" points="461.27,-8.96 451.09,-11.88 460.87,-15.95 461.27,-8.96"/>
</a>
</g>
</g>
<!-- Node23&#45;&gt;Node7 -->
<g id="edge42_Node000023_Node000007" class="edge">
<title>Node23&#45;&gt;Node7</title>
<g id="a_edge42_Node000023_Node000007"><a xlink:title=" ">
<path fill="none" stroke="#63b8ff" d="M872.14,-109.98C945.29,-100.12 1065.13,-83.96 1138.46,-74.07"/>
<polygon fill="#63b8ff" stroke="#63b8ff" points="1139.04,-77.52 1148.48,-72.72 1138.11,-70.59 1139.04,-77.52"/>
</a>
</g>
</g>
<!-- Node23&#45;&gt;Node10 -->
<g id="edge40_Node000023_Node000010" class="edge">
<title>Node23&#45;&gt;Node10</title>
<g id="a_edge40_Node000023_Node000010"><a xlink:title=" ">
<path fill="none" stroke="#63b8ff" d="M758.66,-109.97C708.42,-101.44 628.73,-87.86 550.11,-74.19"/>
<polygon fill="#63b8ff" stroke="#63b8ff" points="550.48,-70.7 540.03,-72.43 549.28,-77.59 550.48,-70.7"/>
</a>
</g>
</g>
<!-- Node23&#45;&gt;Node12 -->
<g id="edge43_Node000023_Node000012" class="edge">
<title>Node23&#45;&gt;Node12</title>
<g id="a_edge43_Node000023_Node000012"><a xlink:title=" ">
<path fill="none" stroke="#63b8ff" d="M778.15,-109.98C745.5,-100.97 693.8,-86.7 657.8,-76.76"/>
<polygon fill="#63b8ff" stroke="#63b8ff" points="658.66,-73.37 648.09,-74.08 656.8,-80.12 658.66,-73.37"/>
</a>
</g>
</g>
<!-- Node25&#45;&gt;Node2 -->
<g id="edge49_Node000025_Node000002" class="edge">
<title>Node25&#45;&gt;Node2</title>
<g id="a_edge49_Node000025_Node000002"><a xlink:title=" ">
<path fill="none" stroke="#63b8ff" d="M245.43,-109.84C276.5,-91.2 349.98,-47.11 387.73,-24.46"/>
<polygon fill="#63b8ff" stroke="#63b8ff" points="389.73,-27.34 396.51,-19.2 386.13,-21.34 389.73,-27.34"/>
</a>
</g>
</g>
<!-- Node25&#45;&gt;Node10 -->
<g id="edge50_Node000025_Node000010" class="edge">
<title>Node25&#45;&gt;Node10</title>
<g id="a_edge50_Node000025_Node000010"><a xlink:title=" ">
<path fill="none" stroke="#63b8ff" d="M274.38,-109.98C322.77,-100.49 400.9,-85.15 451.61,-75.2"/>
<polygon fill="#63b8ff" stroke="#63b8ff" points="452.54,-78.58 461.68,-73.22 451.19,-71.71 452.54,-78.58"/>
</a>
</g>
</g>
<!-- Node25&#45;&gt;Node12 -->
<g id="edge51_Node000025_Node000012" class="edge">
<title>Node25&#45;&gt;Node12</title>
<g id="a_edge51_Node000025_Node000012"><a xlink:title=" ">
<path fill="none" stroke="#63b8ff" d="M293.02,-109.98C362.83,-100.4 475.94,-84.87 548.36,-74.92"/>
<polygon fill="#63b8ff" stroke="#63b8ff" points="548.87,-78.39 558.3,-73.56 547.92,-71.45 548.87,-78.39"/>
</a>
</g>
</g>
<!-- Node26&#45;&gt;Node2 -->
<g id="edge53_Node000026_Node000002" class="edge">
<title>Node26&#45;&gt;Node2</title>
<g id="a_edge53_Node000026_Node000002"><a xlink:title=" ">
<path fill="none" stroke="#63b8ff" d="M411,-109.66C411,-92.17 411,-52.8 411,-29.27"/>
<polygon fill="#63b8ff" stroke="#63b8ff" points="414.5,-29.16 411,-19.16 407.5,-29.16 414.5,-29.16"/>
</a>
</g>
</g>
<!-- Node26&#45;&gt;Node10 -->
<g id="edge54_Node000026_Node000010" class="edge">
<title>Node26&#45;&gt;Node10</title>
<g id="a_edge54_Node000026_Node000010"><a xlink:title=" ">
<path fill="none" stroke="#63b8ff" d="M425.46,-109.98C439.42,-101.77 460.79,-89.18 477.25,-79.49"/>
<polygon fill="#63b8ff" stroke="#63b8ff" points="479.44,-82.26 486.28,-74.17 475.88,-76.23 479.44,-82.26"/>
</a>
</g>
</g>
<!-- Node26&#45;&gt;Node12 -->
<g id="edge55_Node000026_Node000012" class="edge">
<title>Node26&#45;&gt;Node12</title>
<g id="a_edge55_Node000026_Node000012"><a xlink:title=" ">
<path fill="none" stroke="#63b8ff" d="M444.1,-109.98C479.28,-100.93 535.07,-86.58 573.72,-76.64"/>
<polygon fill="#63b8ff" stroke="#63b8ff" points="574.83,-79.96 583.64,-74.08 573.09,-73.18 574.83,-79.96"/>
</a>
</g>
</g>
<!-- Node27&#45;&gt;Node2 -->
<g id="edge57_Node000027_Node000002" class="edge">
<title>Node27&#45;&gt;Node2</title>
<g id="a_edge57_Node000027_Node000002"><a xlink:title=" ">
<path fill="none" stroke="#63b8ff" d="M667.01,-109.81C679.52,-96.7 699.13,-71.61 685,-55 656.84,-21.89 532.33,-13.35 461.23,-11.19"/>
<polygon fill="#63b8ff" stroke="#63b8ff" points="461.24,-7.69 451.14,-10.91 461.04,-14.68 461.24,-7.69"/>
</a>
</g>
</g>
<!-- Node27&#45;&gt;Node10 -->
<g id="edge58_Node000027_Node000010" class="edge">
<title>Node27&#45;&gt;Node10</title>
<g id="a_edge58_Node000027_Node000010"><a xlink:title=" ">
<path fill="none" stroke="#63b8ff" d="M632.78,-109.98C606.64,-101.16 565.6,-87.31 536.27,-77.41"/>
<polygon fill="#63b8ff" stroke="#63b8ff" points="537.02,-73.96 526.42,-74.08 534.78,-80.6 537.02,-73.96"/>
</a>
</g>
</g>
<!-- Node27&#45;&gt;Node12 -->
<g id="edge59_Node000027_Node000012" class="edge">
<title>Node27&#45;&gt;Node12</title>
<g id="a_edge59_Node000027_Node000012"><a xlink:title=" ">
<path fill="none" stroke="#63b8ff" d="M651.23,-109.75C645.44,-102.26 636.94,-91.28 629.86,-82.13"/>
<polygon fill="#63b8ff" stroke="#63b8ff" points="632.53,-79.86 623.64,-74.09 626.99,-84.14 632.53,-79.86"/>
</a>
</g>
</g>
</g>
</svg>

<g id="navigator" transform="translate(0 0)" fill="#404254">
  <rect fill="#f2f5e9" fill-opacity="0.5" stroke="#606060" stroke-width=".5" x="0" y="0" width="60" height="60"/>
  <use id="zoomplus" xlink:href="#zoomPlus" x="17" y="9" onmousedown="handleZoom(evt,'in')"/>
  <use id="zoomminus" xlink:href="#zoomMin" x="42" y="9" onmousedown="handleZoom(evt,'out')"/>
  <use id="reset" xlink:href="#resetDef" x="30" y="36" onmousedown="handleReset()"/>
   <use id="arrowup" xlink:href="#arrowUp" x="0" y="0" onmousedown="handlePan(0,-1)"/>
  <use id="arrowright" xlink:href="#arrowRight" x="0" y="0" onmousedown="handlePan(1,0)"/>
  <use id="arrowdown" xlink:href="#arrowDown" x="0" y="0" onmousedown="handlePan(0,1)"/>
  <use id="arrowleft" xlink:href="#arrowLeft" x="0" y="0" onmousedown="handlePan(-1,0)"/>
</g>
<svg viewBox="0 0 15 15" width="100%" height="30px" preserveAspectRatio="xMaxYMin meet">
 <g id="arrow_out" transform="scale(0.3 0.3)">
  <a xlink:href="BlockFort_8h__incl_org.svg" target="_base">
   <rect id="button" ry="5" rx="5" y="6" x="6" height="38" width="38"
        fill="#f2f5e9" fill-opacity="0.5" stroke="#606060" stroke-width="1.0"/>
   <path id="arrow"
     d="M 11.500037,31.436501 C 11.940474,20.09759 22.043105,11.32322 32.158766,21.979434 L 37.068811,17.246167 C 37.068811,17.246167 37.088388,32 37.088388,32 L 22.160133,31.978069 C 22.160133,31.978069 26.997745,27.140456 26.997745,27.140456 C 18.528582,18.264221 13.291696,25.230495 11.500037,31.436501 z"
     style="fill:#404040;"/>
  </a>
 </g>
</svg>

<style type='text/css'>
<![CDATA[
[data-mouse-over-selected='false'] { opacity: 0.7; }
[data-mouse-over-selected='true']  { opacity: 1.0; }
]]>
</style>
<script type="application/ecmascript"><![CDATA[
document.addEventListener('DOMContentLoaded', (event) => {
  highlightEdges();
  highlightAdjacentNodes();
});
]]></script>
</svg>
