<?xml version="1.0" encoding="UTF-8" standalone="no"?>
<!DOCTYPE svg PUBLIC "-//W3C//DTD SVG 1.1//EN"
 "http://www.w3.org/Graphics/SVG/1.1/DTD/svg11.dtd">
<!-- Generated by graphviz version 2.43.0 (0)
 -->
<!-- Title: src/engine/objects/BombKart.h Pages: 1 -->
<!--zoomable 214 -->

<svg id="main" version="1.1" xmlns="http://www.w3.org/2000/svg" xmlns:xlink="http://www.w3.org/1999/xlink" xml:space="preserve" onload="init(evt)">

<style type="text/css"><![CDATA[
.node, .edge {opacity: 0.7;}
.node.selected, .edge.selected {opacity: 1;}
.edge:hover path { stroke: red; }
.edge:hover polygon { stroke: red; fill: red; }
]]></style>

<defs>
  <circle id="rim" cx="0" cy="0" r="7"/>
  <circle id="rim2" cx="0" cy="0" r="3.5"/>
  <g id="zoomPlus">
    <use xlink:href="#rim" fill="#404040"><set attributeName="fill" to="#808080" begin="zoomplus.mouseover" end="zoomplus.mouseout"/></use>
    <path d="M-4,0h8M0,-4v8" fill="none" stroke="white" stroke-width="1.5" pointer-events="none"/>
  </g>
  <g id="zoomMin">
    <use xlink:href="#rim" fill="#404040"><set attributeName="fill" to="#808080" begin="zoomminus.mouseover" end="zoomminus.mouseout"/></use>
    <path d="M-4,0h8" fill="none" stroke="white" stroke-width="1.5" pointer-events="none"/>
  </g>
  <g id="arrowUp" transform="translate(30 24)">
    <use xlink:href="#rim"/>
    <path pointer-events="none" fill="none" stroke="white" stroke-width="1.5" d="M0,-3.0v7 M-2.5,-0.5L0,-3.0L2.5,-0.5"/>
  </g>
  <g id="arrowRight" transform="rotate(90) translate(36 -43)">
    <use xlink:href="#rim"/>
    <path pointer-events="none" fill="none" stroke="white" stroke-width="1.5" d="M0,-3.0v7 M-2.5,-0.5L0,-3.0L2.5,-0.5"/>
  </g>
  <g id="arrowDown" transform="rotate(180) translate(-30 -48)">
    <use xlink:href="#rim"/>
    <path pointer-events="none" fill="none" stroke="white" stroke-width="1.5" d="M0,-3.0v7 M-2.5,-0.5L0,-3.0L2.5,-0.5"/>
  </g>
  <g id="arrowLeft" transform="rotate(270) translate(-36 17)">
    <use xlink:href="#rim"/>
    <path pointer-events="none" fill="none" stroke="white" stroke-width="1.5" d="M0,-3.0v7 M-2.5,-0.5L0,-3.0L2.5,-0.5"/>
  </g>
  <g id="resetDef">
    <use xlink:href="#rim2" fill="#404040"><set attributeName="fill" to="#808080" begin="reset.mouseover" end="reset.mouseout"/></use>
  </g>
</defs>
<script type="application/ecmascript">
var viewWidth = 3797;
var viewHeight = 214;
var sectionId = 'dynsection-1';
</script>
<script type="application/ecmascript" xlink:href="svg.min.js"/>
<svg id="graph" class="graph">
<g id="viewport">
<title>src/engine/objects/BombKart.h</title>
<!-- Node1 -->
<g id="Node000001" class="node">
<title>Node1</title>
<g id="a_Node000001"><a xlink:title=" ">
<polygon fill="#999999" stroke="#666666" points="2067,-206 1962,-206 1962,-176 2067,-176 2067,-206"/>
<text text-anchor="start" x="1970" y="-194" font-family="Helvetica,sans-Serif" font-size="10.00">src/engine/objects</text>
<text text-anchor="middle" x="2014.5" y="-183" font-family="Helvetica,sans-Serif" font-size="10.00">/BombKart.h</text>
</a>
</g>
</g>
<!-- Node2 -->
<g id="Node000002" class="node">
<title>Node2</title>
<g id="a_Node000002"><a xlink:href="AllActors_8h.html" target="_top" xlink:title=" ">
<polygon fill="white" stroke="#666666" points="262.5,-134.5 140.5,-134.5 140.5,-115.5 262.5,-115.5 262.5,-134.5"/>
<text text-anchor="middle" x="201.5" y="-122.5" font-family="Helvetica,sans-Serif" font-size="10.00">src/engine/AllActors.h</text>
</a>
</g>
</g>
<!-- Node1&#45;&gt;Node2 -->
<g id="edge1_Node000001_Node000002" class="edge">
<title>Node1&#45;&gt;Node2</title>
<g id="a_edge1_Node000001_Node000002"><a xlink:title=" ">
<path fill="none" stroke="#63b8ff" d="M1951.82,-189.62C1680.63,-187.76 606.9,-178.07 271.5,-140 260.54,-138.76 248.74,-136.68 238.01,-134.51"/>
<polygon fill="#63b8ff" stroke="#63b8ff" points="1951.86,-193.12 1961.88,-189.69 1951.91,-186.12 1951.86,-193.12"/>
</a>
</g>
</g>
<!-- Node7 -->
<g id="Node000007" class="node">
<title>Node7</title>
<g id="a_Node000007"><a xlink:href="Rulesets_8cpp.html" target="_top" xlink:title=" ">
<polygon fill="white" stroke="#666666" points="412.5,-134.5 280.5,-134.5 280.5,-115.5 412.5,-115.5 412.5,-134.5"/>
<text text-anchor="middle" x="346.5" y="-122.5" font-family="Helvetica,sans-Serif" font-size="10.00">src/engine/Rulesets.cpp</text>
</a>
</g>
</g>
<!-- Node1&#45;&gt;Node7 -->
<g id="edge7_Node000001_Node000007" class="edge">
<title>Node1&#45;&gt;Node7</title>
<g id="a_edge7_Node000001_Node000007"><a xlink:title=" ">
<path fill="none" stroke="#63b8ff" d="M1951.43,-189.31C1694.5,-186.31 725.89,-172.99 421.5,-140 409.91,-138.74 397.43,-136.7 386.03,-134.55"/>
<polygon fill="#63b8ff" stroke="#63b8ff" points="1951.66,-192.81 1961.7,-189.43 1951.74,-185.82 1951.66,-192.81"/>
</a>
</g>
</g>
<!-- Node8 -->
<g id="Node000008" class="node">
<title>Node8</title>
<g id="a_Node000008"><a xlink:href="World_8cpp.html" target="_top" xlink:title=" ">
<polygon fill="white" stroke="#666666" points="548.5,-134.5 430.5,-134.5 430.5,-115.5 548.5,-115.5 548.5,-134.5"/>
<text text-anchor="middle" x="489.5" y="-122.5" font-family="Helvetica,sans-Serif" font-size="10.00">src/engine/World.cpp</text>
</a>
</g>
</g>
<!-- Node1&#45;&gt;Node8 -->
<g id="edge8_Node000001_Node000008" class="edge">
<title>Node1&#45;&gt;Node8</title>
<g id="a_edge8_Node000001_Node000008"><a xlink:title=" ">
<path fill="none" stroke="#63b8ff" d="M1951.64,-189.26C1709.04,-186.16 833.6,-172.92 557.5,-140 546.97,-138.74 535.64,-136.7 525.31,-134.55"/>
<polygon fill="#63b8ff" stroke="#63b8ff" points="1951.65,-192.76 1961.7,-189.38 1951.74,-185.76 1951.65,-192.76"/>
</a>
</g>
</g>
<!-- Node9 -->
<g id="Node000009" class="node">
<title>Node9</title>
<g id="a_Node000009"><a xlink:href="BansheeBoardwalk_8cpp.html" target="_top" xlink:title=" ">
<polygon fill="white" stroke="#666666" points="700.5,-140 566.5,-140 566.5,-110 700.5,-110 700.5,-140"/>
<text text-anchor="start" x="574.5" y="-128" font-family="Helvetica,sans-Serif" font-size="10.00">src/engine/courses</text>
<text text-anchor="middle" x="633.5" y="-117" font-family="Helvetica,sans-Serif" font-size="10.00">/BansheeBoardwalk.cpp</text>
</a>
</g>
</g>
<!-- Node1&#45;&gt;Node9 -->
<g id="edge9_Node000001_Node000009" class="edge">
<title>Node1&#45;&gt;Node9</title>
<g id="a_edge9_Node000001_Node000009"><a xlink:title=" ">
<path fill="none" stroke="#63b8ff" d="M1951.99,-188.78C1726.54,-184.18 955.59,-166.84 710.5,-140 707.26,-139.64 703.95,-139.23 700.61,-138.78"/>
<polygon fill="#63b8ff" stroke="#63b8ff" points="1951.93,-192.28 1962,-188.98 1952.07,-185.28 1951.93,-192.28"/>
</a>
</g>
</g>
<!-- Node10 -->
<g id="Node000010" class="node">
<title>Node10</title>
<g id="a_Node000010"><a xlink:href="BigDonut_8cpp.html" target="_top" xlink:title=" ">
<polygon fill="white" stroke="#666666" points="826,-140 719,-140 719,-110 826,-110 826,-140"/>
<text text-anchor="start" x="727" y="-128" font-family="Helvetica,sans-Serif" font-size="10.00">src/engine/courses</text>
<text text-anchor="middle" x="772.5" y="-117" font-family="Helvetica,sans-Serif" font-size="10.00">/BigDonut.cpp</text>
</a>
</g>
</g>
<!-- Node1&#45;&gt;Node10 -->
<g id="edge10_Node000001_Node000010" class="edge">
<title>Node1&#45;&gt;Node10</title>
<g id="a_edge10_Node000001_Node000010"><a xlink:title=" ">
<path fill="none" stroke="#63b8ff" d="M1951.66,-188.8C1740.03,-184.52 1054.34,-168.73 835.5,-140 832.39,-139.59 829.21,-139.11 826,-138.56"/>
<polygon fill="#63b8ff" stroke="#63b8ff" points="1951.6,-192.3 1961.67,-189 1951.75,-185.3 1951.6,-192.3"/>
</a>
</g>
</g>
<!-- Node11 -->
<g id="Node000011" class="node">
<title>Node11</title>
<g id="a_Node000011"><a xlink:href="BlockFort_8cpp.html" target="_top" xlink:title=" ">
<polygon fill="white" stroke="#666666" points="951,-140 844,-140 844,-110 951,-110 951,-140"/>
<text text-anchor="start" x="852" y="-128" font-family="Helvetica,sans-Serif" font-size="10.00">src/engine/courses</text>
<text text-anchor="middle" x="897.5" y="-117" font-family="Helvetica,sans-Serif" font-size="10.00">/BlockFort.cpp</text>
</a>
</g>
</g>
<!-- Node1&#45;&gt;Node11 -->
<g id="edge11_Node000001_Node000011" class="edge">
<title>Node1&#45;&gt;Node11</title>
<g id="a_edge11_Node000001_Node000011"><a xlink:title=" ">
<path fill="none" stroke="#63b8ff" d="M1951.46,-190.76C1787.38,-191.92 1333.83,-189.96 960.5,-140 957.39,-139.58 954.21,-139.09 951,-138.54"/>
<polygon fill="#63b8ff" stroke="#63b8ff" points="1951.87,-194.26 1961.85,-190.68 1951.82,-187.26 1951.87,-194.26"/>
</a>
</g>
</g>
<!-- Node12 -->
<g id="Node000012" class="node">
<title>Node12</title>
<g id="a_Node000012"><a xlink:href="BowsersCastle_8cpp.html" target="_top" xlink:title=" ">
<polygon fill="white" stroke="#666666" points="1081.5,-140 969.5,-140 969.5,-110 1081.5,-110 1081.5,-140"/>
<text text-anchor="start" x="977.5" y="-128" font-family="Helvetica,sans-Serif" font-size="10.00">src/engine/courses</text>
<text text-anchor="middle" x="1025.5" y="-117" font-family="Helvetica,sans-Serif" font-size="10.00">/BowsersCastle.cpp</text>
</a>
</g>
</g>
<!-- Node1&#45;&gt;Node12 -->
<g id="edge12_Node000001_Node000012" class="edge">
<title>Node1&#45;&gt;Node12</title>
<g id="a_edge12_Node000001_Node000012"><a xlink:title=" ">
<path fill="none" stroke="#63b8ff" d="M1951.5,-190.01C1801.6,-189.3 1412.19,-183.07 1090.5,-140 1087.64,-139.62 1084.72,-139.18 1081.77,-138.69"/>
<polygon fill="#63b8ff" stroke="#63b8ff" points="1951.86,-193.51 1961.87,-190.06 1951.89,-186.51 1951.86,-193.51"/>
</a>
</g>
</g>
<!-- Node13 -->
<g id="Node000013" class="node">
<title>Node13</title>
<g id="a_Node000013"><a xlink:href="ChocoMountain_8cpp.html" target="_top" xlink:title=" ">
<polygon fill="white" stroke="#666666" points="1215.5,-140 1099.5,-140 1099.5,-110 1215.5,-110 1215.5,-140"/>
<text text-anchor="start" x="1107.5" y="-128" font-family="Helvetica,sans-Serif" font-size="10.00">src/engine/courses</text>
<text text-anchor="middle" x="1157.5" y="-117" font-family="Helvetica,sans-Serif" font-size="10.00">/ChocoMountain.cpp</text>
</a>
</g>
</g>
<!-- Node1&#45;&gt;Node13 -->
<g id="edge13_Node000001_Node000013" class="edge">
<title>Node1&#45;&gt;Node13</title>
<g id="a_edge13_Node000001_Node000013"><a xlink:title=" ">
<path fill="none" stroke="#63b8ff" d="M1951.53,-188.99C1817.43,-186.19 1493.98,-175.97 1225.5,-140 1222.27,-139.57 1218.97,-139.07 1215.65,-138.53"/>
<polygon fill="#63b8ff" stroke="#63b8ff" points="1951.55,-192.49 1961.62,-189.2 1951.69,-185.5 1951.55,-192.49"/>
</a>
</g>
</g>
<!-- Node14 -->
<g id="Node000014" class="node">
<title>Node14</title>
<g id="a_Node000014"><a xlink:href="DKJungle_8cpp.html" target="_top" xlink:title=" ">
<polygon fill="white" stroke="#666666" points="1341,-140 1234,-140 1234,-110 1341,-110 1341,-140"/>
<text text-anchor="start" x="1242" y="-128" font-family="Helvetica,sans-Serif" font-size="10.00">src/engine/courses</text>
<text text-anchor="middle" x="1287.5" y="-117" font-family="Helvetica,sans-Serif" font-size="10.00">/DKJungle.cpp</text>
</a>
</g>
</g>
<!-- Node1&#45;&gt;Node14 -->
<g id="edge14_Node000001_Node000014" class="edge">
<title>Node1&#45;&gt;Node14</title>
<g id="a_edge14_Node000001_Node000014"><a xlink:title=" ">
<path fill="none" stroke="#63b8ff" d="M1951.39,-188.26C1833,-184.34 1569.74,-172.44 1350.5,-140 1347.4,-139.54 1344.22,-139.01 1341.02,-138.44"/>
<polygon fill="#63b8ff" stroke="#63b8ff" points="1951.6,-191.77 1961.71,-188.6 1951.83,-184.77 1951.6,-191.77"/>
</a>
</g>
</g>
<!-- Node15 -->
<g id="Node000015" class="node">
<title>Node15</title>
<g id="a_Node000015"><a xlink:href="DoubleDeck_8cpp.html" target="_top" xlink:title=" ">
<polygon fill="white" stroke="#666666" points="1466,-140 1359,-140 1359,-110 1466,-110 1466,-140"/>
<text text-anchor="start" x="1367" y="-128" font-family="Helvetica,sans-Serif" font-size="10.00">src/engine/courses</text>
<text text-anchor="middle" x="1412.5" y="-117" font-family="Helvetica,sans-Serif" font-size="10.00">/DoubleDeck.cpp</text>
</a>
</g>
</g>
<!-- Node1&#45;&gt;Node15 -->
<g id="edge15_Node000001_Node000015" class="edge">
<title>Node1&#45;&gt;Node15</title>
<g id="a_edge15_Node000001_Node000015"><a xlink:title=" ">
<path fill="none" stroke="#63b8ff" d="M1951.8,-186.76C1850.96,-180.97 1646.72,-166.86 1475.5,-140 1472.4,-139.51 1469.23,-138.97 1466.03,-138.38"/>
<polygon fill="#63b8ff" stroke="#63b8ff" points="1951.63,-190.25 1961.82,-187.32 1952.03,-183.26 1951.63,-190.25"/>
</a>
</g>
</g>
<!-- Node16 -->
<g id="Node000016" class="node">
<title>Node16</title>
<g id="a_Node000016"><a xlink:href="FrappeSnowland_8cpp.html" target="_top" xlink:title=" ">
<polygon fill="white" stroke="#666666" points="1604.5,-140 1484.5,-140 1484.5,-110 1604.5,-110 1604.5,-140"/>
<text text-anchor="start" x="1492.5" y="-128" font-family="Helvetica,sans-Serif" font-size="10.00">src/engine/courses</text>
<text text-anchor="middle" x="1544.5" y="-117" font-family="Helvetica,sans-Serif" font-size="10.00">/FrappeSnowland.cpp</text>
</a>
</g>
</g>
<!-- Node1&#45;&gt;Node16 -->
<g id="edge16_Node000001_Node000016" class="edge">
<title>Node1&#45;&gt;Node16</title>
<g id="a_edge16_Node000001_Node000016"><a xlink:title=" ">
<path fill="none" stroke="#63b8ff" d="M1951.65,-183.58C1872.7,-175.18 1733.17,-159.26 1614.5,-140 1611.32,-139.48 1608.06,-138.93 1604.78,-138.35"/>
<polygon fill="#63b8ff" stroke="#63b8ff" points="1951.6,-187.09 1961.91,-184.66 1952.33,-180.13 1951.6,-187.09"/>
</a>
</g>
</g>
<!-- Node17 -->
<g id="Node000017" class="node">
<title>Node17</title>
<g id="a_Node000017"><a xlink:href="Harbour_8cpp.html" target="_top" xlink:title=" ">
<polygon fill="white" stroke="#666666" points="1730,-140 1623,-140 1623,-110 1730,-110 1730,-140"/>
<text text-anchor="start" x="1631" y="-128" font-family="Helvetica,sans-Serif" font-size="10.00">src/engine/courses</text>
<text text-anchor="middle" x="1676.5" y="-117" font-family="Helvetica,sans-Serif" font-size="10.00">/Harbour.cpp</text>
</a>
</g>
</g>
<!-- Node1&#45;&gt;Node17 -->
<g id="edge17_Node000001_Node000017" class="edge">
<title>Node1&#45;&gt;Node17</title>
<g id="a_edge17_Node000001_Node000017"><a xlink:title=" ">
<path fill="none" stroke="#63b8ff" d="M1951.83,-179.32C1896.01,-169.64 1812.15,-154.67 1739.5,-140 1736.42,-139.38 1733.27,-138.73 1730.09,-138.06"/>
<polygon fill="#63b8ff" stroke="#63b8ff" points="1951.47,-182.81 1961.92,-181.06 1952.66,-175.91 1951.47,-182.81"/>
</a>
</g>
</g>
<!-- Node18 -->
<g id="Node000018" class="node">
<title>Node18</title>
<g id="a_Node000018"><a xlink:href="KalimariDesert_8cpp.html" target="_top" xlink:title=" ">
<polygon fill="white" stroke="#666666" points="1861,-140 1748,-140 1748,-110 1861,-110 1861,-140"/>
<text text-anchor="start" x="1756" y="-128" font-family="Helvetica,sans-Serif" font-size="10.00">src/engine/courses</text>
<text text-anchor="middle" x="1804.5" y="-117" font-family="Helvetica,sans-Serif" font-size="10.00">/KalimariDesert.cpp</text>
</a>
</g>
</g>
<!-- Node1&#45;&gt;Node18 -->
<g id="edge18_Node000001_Node000018" class="edge">
<title>Node1&#45;&gt;Node18</title>
<g id="a_edge18_Node000001_Node000018"><a xlink:title=" ">
<path fill="none" stroke="#63b8ff" d="M1958.68,-172.99C1924.89,-162.69 1882.32,-149.72 1850.48,-140.01"/>
<polygon fill="#63b8ff" stroke="#63b8ff" points="1957.83,-176.39 1968.41,-175.95 1959.87,-169.69 1957.83,-176.39"/>
</a>
</g>
</g>
<!-- Node19 -->
<g id="Node000019" class="node">
<title>Node19</title>
<g id="a_Node000019"><a xlink:href="KoopaTroopaBeach_8cpp.html" target="_top" xlink:title=" ">
<polygon fill="white" stroke="#666666" points="2011.5,-140 1879.5,-140 1879.5,-110 2011.5,-110 2011.5,-140"/>
<text text-anchor="start" x="1887.5" y="-128" font-family="Helvetica,sans-Serif" font-size="10.00">src/engine/courses</text>
<text text-anchor="middle" x="1945.5" y="-117" font-family="Helvetica,sans-Serif" font-size="10.00">/KoopaTroopaBeach.cpp</text>
</a>
</g>
</g>
<!-- Node1&#45;&gt;Node19 -->
<g id="edge19_Node000001_Node000019" class="edge">
<title>Node1&#45;&gt;Node19</title>
<g id="a_edge19_Node000001_Node000019"><a xlink:title=" ">
<path fill="none" stroke="#63b8ff" d="M1991.78,-168.92C1981.6,-159.49 1969.87,-148.61 1960.77,-140.16"/>
<polygon fill="#63b8ff" stroke="#63b8ff" points="1989.47,-171.56 1999.19,-175.8 1994.24,-166.43 1989.47,-171.56"/>
</a>
</g>
</g>
<!-- Node20 -->
<g id="Node000020" class="node">
<title>Node20</title>
<g id="a_Node000020"><a xlink:href="LuigiRaceway_8cpp.html" target="_top" xlink:title=" ">
<polygon fill="white" stroke="#666666" points="2137,-140 2030,-140 2030,-110 2137,-110 2137,-140"/>
<text text-anchor="start" x="2038" y="-128" font-family="Helvetica,sans-Serif" font-size="10.00">src/engine/courses</text>
<text text-anchor="middle" x="2083.5" y="-117" font-family="Helvetica,sans-Serif" font-size="10.00">/LuigiRaceway.cpp</text>
</a>
</g>
</g>
<!-- Node1&#45;&gt;Node20 -->
<g id="edge20_Node000001_Node000020" class="edge">
<title>Node1&#45;&gt;Node20</title>
<g id="a_edge20_Node000001_Node000020"><a xlink:title=" ">
<path fill="none" stroke="#63b8ff" d="M2037.22,-168.92C2047.4,-159.49 2059.13,-148.61 2068.23,-140.16"/>
<polygon fill="#63b8ff" stroke="#63b8ff" points="2034.76,-166.43 2029.81,-175.8 2039.53,-171.56 2034.76,-166.43"/>
</a>
</g>
</g>
<!-- Node21 -->
<g id="Node000021" class="node">
<title>Node21</title>
<g id="a_Node000021"><a xlink:href="MarioRaceway_8cpp.html" target="_top" xlink:title=" ">
<polygon fill="white" stroke="#666666" points="2265.5,-140 2155.5,-140 2155.5,-110 2265.5,-110 2265.5,-140"/>
<text text-anchor="start" x="2163.5" y="-128" font-family="Helvetica,sans-Serif" font-size="10.00">src/engine/courses</text>
<text text-anchor="middle" x="2210.5" y="-117" font-family="Helvetica,sans-Serif" font-size="10.00">/MarioRaceway.cpp</text>
</a>
</g>
</g>
<!-- Node1&#45;&gt;Node21 -->
<g id="edge21_Node000001_Node000021" class="edge">
<title>Node1&#45;&gt;Node21</title>
<g id="a_edge21_Node000001_Node000021"><a xlink:title=" ">
<path fill="none" stroke="#63b8ff" d="M2067.41,-172.72C2098.82,-162.47 2138.12,-149.63 2167.59,-140.01"/>
<polygon fill="#63b8ff" stroke="#63b8ff" points="2065.93,-169.52 2057.51,-175.95 2068.11,-176.18 2065.93,-169.52"/>
</a>
</g>
</g>
<!-- Node22 -->
<g id="Node000022" class="node">
<title>Node22</title>
<g id="a_Node000022"><a xlink:href="MooMooFarm_8cpp.html" target="_top" xlink:title=" ">
<polygon fill="white" stroke="#666666" points="2391,-140 2284,-140 2284,-110 2391,-110 2391,-140"/>
<text text-anchor="start" x="2292" y="-128" font-family="Helvetica,sans-Serif" font-size="10.00">src/engine/courses</text>
<text text-anchor="middle" x="2337.5" y="-117" font-family="Helvetica,sans-Serif" font-size="10.00">/MooMooFarm.cpp</text>
</a>
</g>
</g>
<!-- Node1&#45;&gt;Node22 -->
<g id="edge22_Node000001_Node000022" class="edge">
<title>Node1&#45;&gt;Node22</title>
<g id="a_edge22_Node000001_Node000022"><a xlink:title=" ">
<path fill="none" stroke="#63b8ff" d="M2077.25,-178.45C2129.97,-168.63 2207.27,-153.93 2274.5,-140 2277.57,-139.36 2280.73,-138.7 2283.91,-138.02"/>
<polygon fill="#63b8ff" stroke="#63b8ff" points="2076.56,-175.02 2067.37,-180.29 2077.84,-181.9 2076.56,-175.02"/>
</a>
</g>
</g>
<!-- Node23 -->
<g id="Node000023" class="node">
<title>Node23</title>
<g id="a_Node000023"><a xlink:href="PodiumCeremony_8cpp.html" target="_top" xlink:title=" ">
<polygon fill="white" stroke="#666666" points="2534,-140 2409,-140 2409,-110 2534,-110 2534,-140"/>
<text text-anchor="start" x="2417" y="-128" font-family="Helvetica,sans-Serif" font-size="10.00">src/engine/courses</text>
<text text-anchor="middle" x="2471.5" y="-117" font-family="Helvetica,sans-Serif" font-size="10.00">/PodiumCeremony.cpp</text>
</a>
</g>
</g>
<!-- Node1&#45;&gt;Node23 -->
<g id="edge23_Node000001_Node000023" class="edge">
<title>Node1&#45;&gt;Node23</title>
<g id="a_edge23_Node000001_Node000023"><a xlink:title=" ">
<path fill="none" stroke="#63b8ff" d="M2077.06,-183.18C2153.56,-174.54 2286.89,-158.54 2400.5,-140 2403.23,-139.55 2406.01,-139.08 2408.82,-138.59"/>
<polygon fill="#63b8ff" stroke="#63b8ff" points="2076.65,-179.7 2067.1,-184.3 2077.43,-186.66 2076.65,-179.7"/>
</a>
</g>
</g>
<!-- Node24 -->
<g id="Node000024" class="node">
<title>Node24</title>
<g id="a_Node000024"><a xlink:href="RainbowRoad_8cpp.html" target="_top" xlink:title=" ">
<polygon fill="white" stroke="#666666" points="2659,-140 2552,-140 2552,-110 2659,-110 2659,-140"/>
<text text-anchor="start" x="2560" y="-128" font-family="Helvetica,sans-Serif" font-size="10.00">src/engine/courses</text>
<text text-anchor="middle" x="2605.5" y="-117" font-family="Helvetica,sans-Serif" font-size="10.00">/RainbowRoad.cpp</text>
</a>
</g>
</g>
<!-- Node1&#45;&gt;Node24 -->
<g id="edge24_Node000001_Node000024" class="edge">
<title>Node1&#45;&gt;Node24</title>
<g id="a_edge24_Node000001_Node000024"><a xlink:title=" ">
<path fill="none" stroke="#63b8ff" d="M2077.52,-186.66C2177,-180.79 2376.33,-166.66 2543.5,-140 2546.22,-139.57 2549.01,-139.08 2551.81,-138.56"/>
<polygon fill="#63b8ff" stroke="#63b8ff" points="2077.12,-183.17 2067.34,-187.25 2077.53,-190.16 2077.12,-183.17"/>
</a>
</g>
</g>
<!-- Node25 -->
<g id="Node000025" class="node">
<title>Node25</title>
<g id="a_Node000025"><a xlink:href="RoyalRaceway_8cpp.html" target="_top" xlink:title=" ">
<polygon fill="white" stroke="#666666" points="2787.5,-140 2677.5,-140 2677.5,-110 2787.5,-110 2787.5,-140"/>
<text text-anchor="start" x="2685.5" y="-128" font-family="Helvetica,sans-Serif" font-size="10.00">src/engine/courses</text>
<text text-anchor="middle" x="2732.5" y="-117" font-family="Helvetica,sans-Serif" font-size="10.00">/RoyalRaceway.cpp</text>
</a>
</g>
</g>
<!-- Node1&#45;&gt;Node25 -->
<g id="edge25_Node000001_Node000025" class="edge">
<title>Node1&#45;&gt;Node25</title>
<g id="a_edge25_Node000001_Node000025"><a xlink:title=" ">
<path fill="none" stroke="#63b8ff" d="M2077.54,-188.09C2194.55,-183.91 2453.05,-171.64 2668.5,-140 2671.43,-139.57 2674.42,-139.08 2677.43,-138.56"/>
<polygon fill="#63b8ff" stroke="#63b8ff" points="2077.21,-184.6 2067.33,-188.45 2077.45,-191.6 2077.21,-184.6"/>
</a>
</g>
</g>
<!-- Node26 -->
<g id="Node000026" class="node">
<title>Node26</title>
<g id="a_Node000026"><a xlink:href="SherbetLand_8cpp.html" target="_top" xlink:title=" ">
<polygon fill="white" stroke="#666666" points="2913,-140 2806,-140 2806,-110 2913,-110 2913,-140"/>
<text text-anchor="start" x="2814" y="-128" font-family="Helvetica,sans-Serif" font-size="10.00">src/engine/courses</text>
<text text-anchor="middle" x="2859.5" y="-117" font-family="Helvetica,sans-Serif" font-size="10.00">/SherbetLand.cpp</text>
</a>
</g>
</g>
<!-- Node1&#45;&gt;Node26 -->
<g id="edge26_Node000001_Node000026" class="edge">
<title>Node1&#45;&gt;Node26</title>
<g id="a_edge26_Node000001_Node000026"><a xlink:title=" ">
<path fill="none" stroke="#63b8ff" d="M2077.45,-189.27C2210.74,-187.01 2531.01,-177.75 2796.5,-140 2799.61,-139.56 2802.79,-139.05 2805.99,-138.48"/>
<polygon fill="#63b8ff" stroke="#63b8ff" points="2077.36,-185.77 2067.42,-189.44 2077.47,-192.77 2077.36,-185.77"/>
</a>
</g>
</g>
<!-- Node27 -->
<g id="Node000027" class="node">
<title>Node27</title>
<g id="a_Node000027"><a xlink:href="Skyscraper_8cpp.html" target="_top" xlink:title=" ">
<polygon fill="white" stroke="#666666" points="3038,-140 2931,-140 2931,-110 3038,-110 3038,-140"/>
<text text-anchor="start" x="2939" y="-128" font-family="Helvetica,sans-Serif" font-size="10.00">src/engine/courses</text>
<text text-anchor="middle" x="2984.5" y="-117" font-family="Helvetica,sans-Serif" font-size="10.00">/Skyscraper.cpp</text>
</a>
</g>
</g>
<!-- Node1&#45;&gt;Node27 -->
<g id="edge27_Node000001_Node000027" class="edge">
<title>Node1&#45;&gt;Node27</title>
<g id="a_edge27_Node000001_Node000027"><a xlink:title=" ">
<path fill="none" stroke="#63b8ff" d="M2077.51,-190.14C2225.66,-189.69 2607.37,-183.94 2922.5,-140 2925.23,-139.62 2928.02,-139.18 2930.83,-138.69"/>
<polygon fill="#63b8ff" stroke="#63b8ff" points="2077.25,-186.64 2067.25,-190.16 2077.26,-193.64 2077.25,-186.64"/>
</a>
</g>
</g>
<!-- Node28 -->
<g id="Node000028" class="node">
<title>Node28</title>
<g id="a_Node000028"><a xlink:href="TestCourse_8cpp.html" target="_top" xlink:title=" ">
<polygon fill="white" stroke="#666666" points="3163,-140 3056,-140 3056,-110 3163,-110 3163,-140"/>
<text text-anchor="start" x="3064" y="-128" font-family="Helvetica,sans-Serif" font-size="10.00">src/engine/courses</text>
<text text-anchor="middle" x="3109.5" y="-117" font-family="Helvetica,sans-Serif" font-size="10.00">/TestCourse.cpp</text>
</a>
</g>
</g>
<!-- Node1&#45;&gt;Node28 -->
<g id="edge28_Node000001_Node000028" class="edge">
<title>Node1&#45;&gt;Node28</title>
<g id="a_edge28_Node000001_Node000028"><a xlink:title=" ">
<path fill="none" stroke="#63b8ff" d="M2077.45,-190.74C2239.25,-191.84 2682.57,-189.65 3047.5,-140 3050.23,-139.63 3053.02,-139.2 3055.84,-138.72"/>
<polygon fill="#63b8ff" stroke="#63b8ff" points="2077.23,-187.24 2067.2,-190.67 2077.17,-194.24 2077.23,-187.24"/>
</a>
</g>
</g>
<!-- Node29 -->
<g id="Node000029" class="node">
<title>Node29</title>
<g id="a_Node000029"><a xlink:href="ToadsTurnpike_8cpp.html" target="_top" xlink:title=" ">
<polygon fill="white" stroke="#666666" points="3289.5,-140 3181.5,-140 3181.5,-110 3289.5,-110 3289.5,-140"/>
<text text-anchor="start" x="3189.5" y="-128" font-family="Helvetica,sans-Serif" font-size="10.00">src/engine/courses</text>
<text text-anchor="middle" x="3235.5" y="-117" font-family="Helvetica,sans-Serif" font-size="10.00">/ToadsTurnpike.cpp</text>
</a>
</g>
</g>
<!-- Node1&#45;&gt;Node29 -->
<g id="edge29_Node000001_Node000029" class="edge">
<title>Node1&#45;&gt;Node29</title>
<g id="a_edge29_Node000001_Node000029"><a xlink:title=" ">
<path fill="none" stroke="#63b8ff" d="M2077.24,-188.74C2286.28,-184.33 2957.91,-168.25 3172.5,-140 3175.39,-139.62 3178.34,-139.17 3181.31,-138.68"/>
<polygon fill="#63b8ff" stroke="#63b8ff" points="2076.98,-185.25 2067.06,-188.96 2077.13,-192.25 2076.98,-185.25"/>
</a>
</g>
</g>
<!-- Node30 -->
<g id="Node000030" class="node">
<title>Node30</title>
<g id="a_Node000030"><a xlink:href="WarioStadium_8cpp.html" target="_top" xlink:title=" ">
<polygon fill="white" stroke="#666666" points="3415.5,-140 3307.5,-140 3307.5,-110 3415.5,-110 3415.5,-140"/>
<text text-anchor="start" x="3315.5" y="-128" font-family="Helvetica,sans-Serif" font-size="10.00">src/engine/courses</text>
<text text-anchor="middle" x="3361.5" y="-117" font-family="Helvetica,sans-Serif" font-size="10.00">/WarioStadium.cpp</text>
</a>
</g>
</g>
<!-- Node1&#45;&gt;Node30 -->
<g id="edge30_Node000001_Node000030" class="edge">
<title>Node1&#45;&gt;Node30</title>
<g id="a_edge30_Node000001_Node000030"><a xlink:title=" ">
<path fill="none" stroke="#63b8ff" d="M2077.56,-189.05C2301.54,-185.42 3058.26,-171.11 3298.5,-140 3301.39,-139.63 3304.34,-139.18 3307.31,-138.69"/>
<polygon fill="#63b8ff" stroke="#63b8ff" points="2077.24,-185.55 2067.3,-189.21 2077.35,-192.55 2077.24,-185.55"/>
</a>
</g>
</g>
<!-- Node31 -->
<g id="Node000031" class="node">
<title>Node31</title>
<g id="a_Node000031"><a xlink:href="YoshiValley_8cpp.html" target="_top" xlink:title=" ">
<polygon fill="white" stroke="#666666" points="3541,-140 3434,-140 3434,-110 3541,-110 3541,-140"/>
<text text-anchor="start" x="3442" y="-128" font-family="Helvetica,sans-Serif" font-size="10.00">src/engine/courses</text>
<text text-anchor="middle" x="3487.5" y="-117" font-family="Helvetica,sans-Serif" font-size="10.00">/YoshiValley.cpp</text>
</a>
</g>
</g>
<!-- Node1&#45;&gt;Node31 -->
<g id="edge31_Node000001_Node000031" class="edge">
<title>Node1&#45;&gt;Node31</title>
<g id="a_edge31_Node000001_Node000031"><a xlink:title=" ">
<path fill="none" stroke="#63b8ff" d="M2077.29,-189.3C2314.81,-186.43 3158.3,-174.01 3424.5,-140 3427.5,-139.62 3430.57,-139.16 3433.66,-138.65"/>
<polygon fill="#63b8ff" stroke="#63b8ff" points="2077.06,-185.81 2067.1,-189.42 2077.15,-192.8 2077.06,-185.81"/>
</a>
</g>
</g>
<!-- Node32 -->
<g id="Node000032" class="node">
<title>Node32</title>
<g id="a_Node000032"><a xlink:href="BombKart_8cpp.html" target="_top" xlink:title=" ">
<polygon fill="white" stroke="#666666" points="3664,-140 3559,-140 3559,-110 3664,-110 3664,-140"/>
<text text-anchor="start" x="3567" y="-128" font-family="Helvetica,sans-Serif" font-size="10.00">src/engine/objects</text>
<text text-anchor="middle" x="3611.5" y="-117" font-family="Helvetica,sans-Serif" font-size="10.00">/BombKart.cpp</text>
</a>
</g>
</g>
<!-- Node1&#45;&gt;Node32 -->
<g id="edge32_Node000001_Node000032" class="edge">
<title>Node1&#45;&gt;Node32</title>
<g id="a_edge32_Node000001_Node000032"><a xlink:title=" ">
<path fill="none" stroke="#63b8ff" d="M2077.02,-189.57C2327.41,-187.62 3258.38,-177.92 3550.5,-140 3553.19,-139.65 3555.94,-139.24 3558.71,-138.77"/>
<polygon fill="#63b8ff" stroke="#63b8ff" points="2076.97,-186.07 2067,-189.65 2077.03,-193.07 2076.97,-186.07"/>
</a>
</g>
</g>
<!-- Node33 -->
<g id="Node000033" class="node">
<title>Node33</title>
<g id="a_Node000033"><a xlink:href="Game_8cpp.html" target="_top" xlink:title=" ">
<polygon fill="white" stroke="#666666" points="3788.5,-134.5 3682.5,-134.5 3682.5,-115.5 3788.5,-115.5 3788.5,-134.5"/>
<text text-anchor="middle" x="3735.5" y="-122.5" font-family="Helvetica,sans-Serif" font-size="10.00">src/port/Game.cpp</text>
</a>
</g>
</g>
<!-- Node1&#45;&gt;Node33 -->
<g id="edge33_Node000001_Node000033" class="edge">
<title>Node1&#45;&gt;Node33</title>
<g id="a_edge33_Node000001_Node000033"><a xlink:title=" ">
<path fill="none" stroke="#63b8ff" d="M2077.17,-189.72C2340.19,-188.3 3355.97,-180.26 3673.5,-140 3683.24,-138.76 3693.71,-136.7 3703.21,-134.52"/>
<polygon fill="#63b8ff" stroke="#63b8ff" points="2077.01,-186.22 2067.03,-189.77 2077.05,-193.22 2077.01,-186.22"/>
</a>
</g>
</g>
<!-- Node3 -->
<g id="Node000003" class="node">
<title>Node3</title>
<g id="a_Node000003"><a xlink:href="RegisteredActors_8cpp.html" target="_top" xlink:title=" ">
<polygon fill="white" stroke="#666666" points="173,-74 0,-74 0,-55 173,-55 173,-74"/>
<text text-anchor="middle" x="86.5" y="-62" font-family="Helvetica,sans-Serif" font-size="10.00">src/engine/RegisteredActors.cpp</text>
</a>
</g>
</g>
<!-- Node2&#45;&gt;Node3 -->
<g id="edge2_Node000002_Node000003" class="edge">
<title>Node2&#45;&gt;Node3</title>
<g id="a_edge2_Node000002_Node000003"><a xlink:title=" ">
<path fill="none" stroke="#63b8ff" d="M175.41,-110.73C153.39,-99.53 122.51,-83.82 103.54,-74.17"/>
<polygon fill="#63b8ff" stroke="#63b8ff" points="174.03,-113.95 184.53,-115.37 177.21,-107.71 174.03,-113.95"/>
</a>
</g>
</g>
<!-- Node4 -->
<g id="Node000004" class="node">
<title>Node4</title>
<g id="a_Node000004"><a xlink:href="ContentBrowser_8cpp.html" target="_top" xlink:title=" ">
<polygon fill="white" stroke="#666666" points="284.5,-19 118.5,-19 118.5,0 284.5,0 284.5,-19"/>
<text text-anchor="middle" x="201.5" y="-7" font-family="Helvetica,sans-Serif" font-size="10.00">src/port/ui/ContentBrowser.cpp</text>
</a>
</g>
</g>
<!-- Node2&#45;&gt;Node4 -->
<g id="edge3_Node000002_Node000004" class="edge">
<title>Node2&#45;&gt;Node4</title>
<g id="a_edge3_Node000002_Node000004"><a xlink:title=" ">
<path fill="none" stroke="#63b8ff" d="M201.5,-105.15C201.5,-80.24 201.5,-37.38 201.5,-19.13"/>
<polygon fill="#63b8ff" stroke="#63b8ff" points="198,-105.47 201.5,-115.47 205,-105.47 198,-105.47"/>
</a>
</g>
</g>
<!-- Node5 -->
<g id="Node000005" class="node">
<title>Node5</title>
<g id="a_Node000005"><a xlink:href="ContentBrowser_8h.html" target="_top" xlink:title=" ">
<polygon fill="white" stroke="#666666" points="385,-74 230,-74 230,-55 385,-55 385,-74"/>
<text text-anchor="middle" x="307.5" y="-62" font-family="Helvetica,sans-Serif" font-size="10.00">src/port/ui/ContentBrowser.h</text>
</a>
</g>
</g>
<!-- Node2&#45;&gt;Node5 -->
<g id="edge4_Node000002_Node000005" class="edge">
<title>Node2&#45;&gt;Node5</title>
<g id="a_edge4_Node000002_Node000005"><a xlink:title=" ">
<path fill="none" stroke="#63b8ff" d="M226.1,-110.42C246.36,-99.24 274.47,-83.73 291.8,-74.17"/>
<polygon fill="#63b8ff" stroke="#63b8ff" points="224.2,-107.47 217.14,-115.37 227.59,-113.6 224.2,-107.47"/>
</a>
</g>
</g>
<!-- Node5&#45;&gt;Node4 -->
<g id="edge5_Node000005_Node000004" class="edge">
<title>Node5&#45;&gt;Node4</title>
<g id="a_edge5_Node000005_Node000004"><a xlink:title=" ">
<path fill="none" stroke="#63b8ff" d="M281.5,-50.5C262,-40.75 235.85,-27.68 218.84,-19.17"/>
<polygon fill="#63b8ff" stroke="#63b8ff" points="279.96,-53.64 290.47,-54.98 283.09,-47.38 279.96,-53.64"/>
</a>
</g>
</g>
<!-- Node6 -->
<g id="Node000006" class="node">
<title>Node6</title>
<g id="a_Node000006"><a xlink:href="ImguiUI_8cpp.html" target="_top" xlink:title=" ">
<polygon fill="white" stroke="#666666" points="430,-19 303,-19 303,0 430,0 430,-19"/>
<text text-anchor="middle" x="366.5" y="-7" font-family="Helvetica,sans-Serif" font-size="10.00">src/port/ui/ImguiUI.cpp</text>
</a>
</g>
</g>
<!-- Node5&#45;&gt;Node6 -->
<g id="edge6_Node000005_Node000006" class="edge">
<title>Node5&#45;&gt;Node6</title>
<g id="a_edge6_Node000005_Node000006"><a xlink:title=" ">
<path fill="none" stroke="#63b8ff" d="M324.7,-48.04C335.17,-38.64 348.15,-26.98 356.85,-19.17"/>
<polygon fill="#63b8ff" stroke="#63b8ff" points="322.08,-45.7 316.98,-54.98 326.76,-50.91 322.08,-45.7"/>
</a>
</g>
</g>
</g>
</svg>

<g id="navigator" transform="translate(0 0)" fill="#404254">
  <rect fill="#f2f5e9" fill-opacity="0.5" stroke="#606060" stroke-width=".5" x="0" y="0" width="60" height="60"/>
  <use id="zoomplus" xlink:href="#zoomPlus" x="17" y="9" onmousedown="handleZoom(evt,'in')"/>
  <use id="zoomminus" xlink:href="#zoomMin" x="42" y="9" onmousedown="handleZoom(evt,'out')"/>
  <use id="reset" xlink:href="#resetDef" x="30" y="36" onmousedown="handleReset()"/>
   <use id="arrowup" xlink:href="#arrowUp" x="0" y="0" onmousedown="handlePan(0,-1)"/>
  <use id="arrowright" xlink:href="#arrowRight" x="0" y="0" onmousedown="handlePan(1,0)"/>
  <use id="arrowdown" xlink:href="#arrowDown" x="0" y="0" onmousedown="handlePan(0,1)"/>
  <use id="arrowleft" xlink:href="#arrowLeft" x="0" y="0" onmousedown="handlePan(-1,0)"/>
</g>
<svg viewBox="0 0 15 15" width="100%" height="30px" preserveAspectRatio="xMaxYMin meet">
 <g id="arrow_out" transform="scale(0.3 0.3)">
  <a xlink:href="BombKart_8h__dep__incl_org.svg" target="_base">
   <rect id="button" ry="5" rx="5" y="6" x="6" height="38" width="38"
        fill="#f2f5e9" fill-opacity="0.5" stroke="#606060" stroke-width="1.0"/>
   <path id="arrow"
     d="M 11.500037,31.436501 C 11.940474,20.09759 22.043105,11.32322 32.158766,21.979434 L 37.068811,17.246167 C 37.068811,17.246167 37.088388,32 37.088388,32 L 22.160133,31.978069 C 22.160133,31.978069 26.997745,27.140456 26.997745,27.140456 C 18.528582,18.264221 13.291696,25.230495 11.500037,31.436501 z"
     style="fill:#404040;"/>
  </a>
 </g>
</svg>

<style type='text/css'>
<![CDATA[
[data-mouse-over-selected='false'] { opacity: 0.7; }
[data-mouse-over-selected='true']  { opacity: 1.0; }
]]>
</style>
<script type="application/ecmascript"><![CDATA[
document.addEventListener('DOMContentLoaded', (event) => {
  highlightEdges();
  highlightAdjacentNodes();
});
]]></script>
</svg>
