<?xml version="1.0" encoding="UTF-8" standalone="no"?>
<!DOCTYPE svg PUBLIC "-//W3C//DTD SVG 1.1//EN"
 "http://www.w3.org/Graphics/SVG/1.1/DTD/svg11.dtd">
<!-- Generated by graphviz version 2.43.0 (0)
 -->
<!-- Title: src/engine/objects/BombKart.h Pages: 1 -->
<!--zoomable 214 -->

<svg id="main" version="1.1" xmlns="http://www.w3.org/2000/svg" xmlns:xlink="http://www.w3.org/1999/xlink" xml:space="preserve" onload="init(evt)">

<style type="text/css"><![CDATA[
.node, .edge {opacity: 0.7;}
.node.selected, .edge.selected {opacity: 1;}
.edge:hover path { stroke: red; }
.edge:hover polygon { stroke: red; fill: red; }
]]></style>

<defs>
  <circle id="rim" cx="0" cy="0" r="7"/>
  <circle id="rim2" cx="0" cy="0" r="3.5"/>
  <g id="zoomPlus">
    <use xlink:href="#rim" fill="#404040"><set attributeName="fill" to="#808080" begin="zoomplus.mouseover" end="zoomplus.mouseout"/></use>
    <path d="M-4,0h8M0,-4v8" fill="none" stroke="white" stroke-width="1.5" pointer-events="none"/>
  </g>
  <g id="zoomMin">
    <use xlink:href="#rim" fill="#404040"><set attributeName="fill" to="#808080" begin="zoomminus.mouseover" end="zoomminus.mouseout"/></use>
    <path d="M-4,0h8" fill="none" stroke="white" stroke-width="1.5" pointer-events="none"/>
  </g>
  <g id="arrowUp" transform="translate(30 24)">
    <use xlink:href="#rim"/>
    <path pointer-events="none" fill="none" stroke="white" stroke-width="1.5" d="M0,-3.0v7 M-2.5,-0.5L0,-3.0L2.5,-0.5"/>
  </g>
  <g id="arrowRight" transform="rotate(90) translate(36 -43)">
    <use xlink:href="#rim"/>
    <path pointer-events="none" fill="none" stroke="white" stroke-width="1.5" d="M0,-3.0v7 M-2.5,-0.5L0,-3.0L2.5,-0.5"/>
  </g>
  <g id="arrowDown" transform="rotate(180) translate(-30 -48)">
    <use xlink:href="#rim"/>
    <path pointer-events="none" fill="none" stroke="white" stroke-width="1.5" d="M0,-3.0v7 M-2.5,-0.5L0,-3.0L2.5,-0.5"/>
  </g>
  <g id="arrowLeft" transform="rotate(270) translate(-36 17)">
    <use xlink:href="#rim"/>
    <path pointer-events="none" fill="none" stroke="white" stroke-width="1.5" d="M0,-3.0v7 M-2.5,-0.5L0,-3.0L2.5,-0.5"/>
  </g>
  <g id="resetDef">
    <use xlink:href="#rim2" fill="#404040"><set attributeName="fill" to="#808080" begin="reset.mouseover" end="reset.mouseout"/></use>
  </g>
</defs>
<script type="application/ecmascript">
var viewWidth = 3913;
var viewHeight = 214;
var sectionId = 'dynsection-1';
</script>
<script type="application/ecmascript" xlink:href="svg.min.js"/>
<svg id="graph" class="graph">
<g id="viewport">
<title>src/engine/objects/BombKart.h</title>
<!-- Node1 -->
<g id="Node000001" class="node">
<title>Node1</title>
<g id="a_Node000001"><a xlink:title=" ">
<polygon fill="#999999" stroke="#666666" points="2183.5,-206 2078.5,-206 2078.5,-176 2183.5,-176 2183.5,-206"/>
<text text-anchor="start" x="2086.5" y="-194" font-family="Helvetica,sans-Serif" font-size="10.00">src/engine/objects</text>
<text text-anchor="middle" x="2131" y="-183" font-family="Helvetica,sans-Serif" font-size="10.00">/BombKart.h</text>
</a>
</g>
</g>
<!-- Node2 -->
<g id="Node000002" class="node">
<title>Node2</title>
<g id="a_Node000002"><a xlink:href="AllActors_8h.html" target="_top" xlink:title=" ">
<polygon fill="white" stroke="#666666" points="379,-134.5 257,-134.5 257,-115.5 379,-115.5 379,-134.5"/>
<text text-anchor="middle" x="318" y="-122.5" font-family="Helvetica,sans-Serif" font-size="10.00">src/engine/AllActors.h</text>
</a>
</g>
</g>
<!-- Node1&#45;&gt;Node2 -->
<g id="edge1_Node000001_Node000002" class="edge">
<title>Node1&#45;&gt;Node2</title>
<g id="a_edge1_Node000001_Node000002"><a xlink:title=" ">
<path fill="none" stroke="#63b8ff" d="M2068.32,-189.62C1797.13,-187.76 723.4,-178.07 388,-140 377.04,-138.76 365.24,-136.68 354.51,-134.51"/>
<polygon fill="#63b8ff" stroke="#63b8ff" points="2068.36,-193.12 2078.38,-189.69 2068.41,-186.12 2068.36,-193.12"/>
</a>
</g>
</g>
<!-- Node8 -->
<g id="Node000008" class="node">
<title>Node8</title>
<g id="a_Node000008"><a xlink:href="Rulesets_8cpp.html" target="_top" xlink:title=" ">
<polygon fill="white" stroke="#666666" points="529,-134.5 397,-134.5 397,-115.5 529,-115.5 529,-134.5"/>
<text text-anchor="middle" x="463" y="-122.5" font-family="Helvetica,sans-Serif" font-size="10.00">src/engine/Rulesets.cpp</text>
</a>
</g>
</g>
<!-- Node1&#45;&gt;Node8 -->
<g id="edge8_Node000001_Node000008" class="edge">
<title>Node1&#45;&gt;Node8</title>
<g id="a_edge8_Node000001_Node000008"><a xlink:title=" ">
<path fill="none" stroke="#63b8ff" d="M2067.93,-189.31C1811,-186.31 842.39,-172.99 538,-140 526.41,-138.74 513.93,-136.7 502.53,-134.55"/>
<polygon fill="#63b8ff" stroke="#63b8ff" points="2068.16,-192.81 2078.2,-189.43 2068.24,-185.82 2068.16,-192.81"/>
</a>
</g>
</g>
<!-- Node9 -->
<g id="Node000009" class="node">
<title>Node9</title>
<g id="a_Node000009"><a xlink:href="World_8cpp.html" target="_top" xlink:title=" ">
<polygon fill="white" stroke="#666666" points="665,-134.5 547,-134.5 547,-115.5 665,-115.5 665,-134.5"/>
<text text-anchor="middle" x="606" y="-122.5" font-family="Helvetica,sans-Serif" font-size="10.00">src/engine/World.cpp</text>
</a>
</g>
</g>
<!-- Node1&#45;&gt;Node9 -->
<g id="edge9_Node000001_Node000009" class="edge">
<title>Node1&#45;&gt;Node9</title>
<g id="a_edge9_Node000001_Node000009"><a xlink:title=" ">
<path fill="none" stroke="#63b8ff" d="M2068.14,-189.26C1825.54,-186.16 950.1,-172.92 674,-140 663.47,-138.74 652.14,-136.7 641.81,-134.55"/>
<polygon fill="#63b8ff" stroke="#63b8ff" points="2068.15,-192.76 2078.2,-189.38 2068.24,-185.76 2068.15,-192.76"/>
</a>
</g>
</g>
<!-- Node10 -->
<g id="Node000010" class="node">
<title>Node10</title>
<g id="a_Node000010"><a xlink:href="BansheeBoardwalk_8cpp.html" target="_top" xlink:title=" ">
<polygon fill="white" stroke="#666666" points="817,-140 683,-140 683,-110 817,-110 817,-140"/>
<text text-anchor="start" x="691" y="-128" font-family="Helvetica,sans-Serif" font-size="10.00">src/engine/courses</text>
<text text-anchor="middle" x="750" y="-117" font-family="Helvetica,sans-Serif" font-size="10.00">/BansheeBoardwalk.cpp</text>
</a>
</g>
</g>
<!-- Node1&#45;&gt;Node10 -->
<g id="edge10_Node000001_Node000010" class="edge">
<title>Node1&#45;&gt;Node10</title>
<g id="a_edge10_Node000001_Node000010"><a xlink:title=" ">
<path fill="none" stroke="#63b8ff" d="M2068.49,-188.78C1843.04,-184.18 1072.09,-166.84 827,-140 823.76,-139.64 820.45,-139.23 817.11,-138.78"/>
<polygon fill="#63b8ff" stroke="#63b8ff" points="2068.43,-192.28 2078.5,-188.98 2068.57,-185.28 2068.43,-192.28"/>
</a>
</g>
</g>
<!-- Node11 -->
<g id="Node000011" class="node">
<title>Node11</title>
<g id="a_Node000011"><a xlink:href="BigDonut_8cpp.html" target="_top" xlink:title=" ">
<polygon fill="white" stroke="#666666" points="942.5,-140 835.5,-140 835.5,-110 942.5,-110 942.5,-140"/>
<text text-anchor="start" x="843.5" y="-128" font-family="Helvetica,sans-Serif" font-size="10.00">src/engine/courses</text>
<text text-anchor="middle" x="889" y="-117" font-family="Helvetica,sans-Serif" font-size="10.00">/BigDonut.cpp</text>
</a>
</g>
</g>
<!-- Node1&#45;&gt;Node11 -->
<g id="edge11_Node000001_Node000011" class="edge">
<title>Node1&#45;&gt;Node11</title>
<g id="a_edge11_Node000001_Node000011"><a xlink:title=" ">
<path fill="none" stroke="#63b8ff" d="M2068.16,-188.8C1856.53,-184.52 1170.84,-168.73 952,-140 948.89,-139.59 945.71,-139.11 942.5,-138.56"/>
<polygon fill="#63b8ff" stroke="#63b8ff" points="2068.1,-192.3 2078.17,-189 2068.25,-185.3 2068.1,-192.3"/>
</a>
</g>
</g>
<!-- Node12 -->
<g id="Node000012" class="node">
<title>Node12</title>
<g id="a_Node000012"><a xlink:href="BlockFort_8cpp.html" target="_top" xlink:title=" ">
<polygon fill="white" stroke="#666666" points="1067.5,-140 960.5,-140 960.5,-110 1067.5,-110 1067.5,-140"/>
<text text-anchor="start" x="968.5" y="-128" font-family="Helvetica,sans-Serif" font-size="10.00">src/engine/courses</text>
<text text-anchor="middle" x="1014" y="-117" font-family="Helvetica,sans-Serif" font-size="10.00">/BlockFort.cpp</text>
</a>
</g>
</g>
<!-- Node1&#45;&gt;Node12 -->
<g id="edge12_Node000001_Node000012" class="edge">
<title>Node1&#45;&gt;Node12</title>
<g id="a_edge12_Node000001_Node000012"><a xlink:title=" ">
<path fill="none" stroke="#63b8ff" d="M2067.96,-190.76C1903.88,-191.92 1450.33,-189.96 1077,-140 1073.89,-139.58 1070.71,-139.09 1067.5,-138.54"/>
<polygon fill="#63b8ff" stroke="#63b8ff" points="2068.37,-194.26 2078.35,-190.68 2068.32,-187.26 2068.37,-194.26"/>
</a>
</g>
</g>
<!-- Node13 -->
<g id="Node000013" class="node">
<title>Node13</title>
<g id="a_Node000013"><a xlink:href="BowsersCastle_8cpp.html" target="_top" xlink:title=" ">
<polygon fill="white" stroke="#666666" points="1198,-140 1086,-140 1086,-110 1198,-110 1198,-140"/>
<text text-anchor="start" x="1094" y="-128" font-family="Helvetica,sans-Serif" font-size="10.00">src/engine/courses</text>
<text text-anchor="middle" x="1142" y="-117" font-family="Helvetica,sans-Serif" font-size="10.00">/BowsersCastle.cpp</text>
</a>
</g>
</g>
<!-- Node1&#45;&gt;Node13 -->
<g id="edge13_Node000001_Node000013" class="edge">
<title>Node1&#45;&gt;Node13</title>
<g id="a_edge13_Node000001_Node000013"><a xlink:title=" ">
<path fill="none" stroke="#63b8ff" d="M2068,-190.01C1918.1,-189.3 1528.69,-183.07 1207,-140 1204.14,-139.62 1201.22,-139.18 1198.27,-138.69"/>
<polygon fill="#63b8ff" stroke="#63b8ff" points="2068.36,-193.51 2078.37,-190.06 2068.39,-186.51 2068.36,-193.51"/>
</a>
</g>
</g>
<!-- Node14 -->
<g id="Node000014" class="node">
<title>Node14</title>
<g id="a_Node000014"><a xlink:href="ChocoMountain_8cpp.html" target="_top" xlink:title=" ">
<polygon fill="white" stroke="#666666" points="1332,-140 1216,-140 1216,-110 1332,-110 1332,-140"/>
<text text-anchor="start" x="1224" y="-128" font-family="Helvetica,sans-Serif" font-size="10.00">src/engine/courses</text>
<text text-anchor="middle" x="1274" y="-117" font-family="Helvetica,sans-Serif" font-size="10.00">/ChocoMountain.cpp</text>
</a>
</g>
</g>
<!-- Node1&#45;&gt;Node14 -->
<g id="edge14_Node000001_Node000014" class="edge">
<title>Node1&#45;&gt;Node14</title>
<g id="a_edge14_Node000001_Node000014"><a xlink:title=" ">
<path fill="none" stroke="#63b8ff" d="M2068.03,-188.99C1933.93,-186.19 1610.48,-175.97 1342,-140 1338.77,-139.57 1335.47,-139.07 1332.15,-138.53"/>
<polygon fill="#63b8ff" stroke="#63b8ff" points="2068.05,-192.49 2078.12,-189.2 2068.19,-185.5 2068.05,-192.49"/>
</a>
</g>
</g>
<!-- Node15 -->
<g id="Node000015" class="node">
<title>Node15</title>
<g id="a_Node000015"><a xlink:href="DKJungle_8cpp.html" target="_top" xlink:title=" ">
<polygon fill="white" stroke="#666666" points="1457.5,-140 1350.5,-140 1350.5,-110 1457.5,-110 1457.5,-140"/>
<text text-anchor="start" x="1358.5" y="-128" font-family="Helvetica,sans-Serif" font-size="10.00">src/engine/courses</text>
<text text-anchor="middle" x="1404" y="-117" font-family="Helvetica,sans-Serif" font-size="10.00">/DKJungle.cpp</text>
</a>
</g>
</g>
<!-- Node1&#45;&gt;Node15 -->
<g id="edge15_Node000001_Node000015" class="edge">
<title>Node1&#45;&gt;Node15</title>
<g id="a_edge15_Node000001_Node000015"><a xlink:title=" ">
<path fill="none" stroke="#63b8ff" d="M2067.89,-188.26C1949.5,-184.34 1686.24,-172.44 1467,-140 1463.9,-139.54 1460.72,-139.01 1457.52,-138.44"/>
<polygon fill="#63b8ff" stroke="#63b8ff" points="2068.1,-191.77 2078.21,-188.6 2068.33,-184.77 2068.1,-191.77"/>
</a>
</g>
</g>
<!-- Node16 -->
<g id="Node000016" class="node">
<title>Node16</title>
<g id="a_Node000016"><a xlink:href="DoubleDeck_8cpp.html" target="_top" xlink:title=" ">
<polygon fill="white" stroke="#666666" points="1582.5,-140 1475.5,-140 1475.5,-110 1582.5,-110 1582.5,-140"/>
<text text-anchor="start" x="1483.5" y="-128" font-family="Helvetica,sans-Serif" font-size="10.00">src/engine/courses</text>
<text text-anchor="middle" x="1529" y="-117" font-family="Helvetica,sans-Serif" font-size="10.00">/DoubleDeck.cpp</text>
</a>
</g>
</g>
<!-- Node1&#45;&gt;Node16 -->
<g id="edge16_Node000001_Node000016" class="edge">
<title>Node1&#45;&gt;Node16</title>
<g id="a_edge16_Node000001_Node000016"><a xlink:title=" ">
<path fill="none" stroke="#63b8ff" d="M2068.3,-186.76C1967.46,-180.97 1763.22,-166.86 1592,-140 1588.9,-139.51 1585.73,-138.97 1582.53,-138.38"/>
<polygon fill="#63b8ff" stroke="#63b8ff" points="2068.13,-190.25 2078.32,-187.32 2068.53,-183.26 2068.13,-190.25"/>
</a>
</g>
</g>
<!-- Node17 -->
<g id="Node000017" class="node">
<title>Node17</title>
<g id="a_Node000017"><a xlink:href="FrappeSnowland_8cpp.html" target="_top" xlink:title=" ">
<polygon fill="white" stroke="#666666" points="1721,-140 1601,-140 1601,-110 1721,-110 1721,-140"/>
<text text-anchor="start" x="1609" y="-128" font-family="Helvetica,sans-Serif" font-size="10.00">src/engine/courses</text>
<text text-anchor="middle" x="1661" y="-117" font-family="Helvetica,sans-Serif" font-size="10.00">/FrappeSnowland.cpp</text>
</a>
</g>
</g>
<!-- Node1&#45;&gt;Node17 -->
<g id="edge17_Node000001_Node000017" class="edge">
<title>Node1&#45;&gt;Node17</title>
<g id="a_edge17_Node000001_Node000017"><a xlink:title=" ">
<path fill="none" stroke="#63b8ff" d="M2068.15,-183.58C1989.2,-175.18 1849.67,-159.26 1731,-140 1727.82,-139.48 1724.56,-138.93 1721.28,-138.35"/>
<polygon fill="#63b8ff" stroke="#63b8ff" points="2068.1,-187.09 2078.41,-184.66 2068.83,-180.13 2068.1,-187.09"/>
</a>
</g>
</g>
<!-- Node18 -->
<g id="Node000018" class="node">
<title>Node18</title>
<g id="a_Node000018"><a xlink:href="Harbour_8cpp.html" target="_top" xlink:title=" ">
<polygon fill="white" stroke="#666666" points="1846.5,-140 1739.5,-140 1739.5,-110 1846.5,-110 1846.5,-140"/>
<text text-anchor="start" x="1747.5" y="-128" font-family="Helvetica,sans-Serif" font-size="10.00">src/engine/courses</text>
<text text-anchor="middle" x="1793" y="-117" font-family="Helvetica,sans-Serif" font-size="10.00">/Harbour.cpp</text>
</a>
</g>
</g>
<!-- Node1&#45;&gt;Node18 -->
<g id="edge18_Node000001_Node000018" class="edge">
<title>Node1&#45;&gt;Node18</title>
<g id="a_edge18_Node000001_Node000018"><a xlink:title=" ">
<path fill="none" stroke="#63b8ff" d="M2068.33,-179.32C2012.51,-169.64 1928.65,-154.67 1856,-140 1852.92,-139.38 1849.77,-138.73 1846.59,-138.06"/>
<polygon fill="#63b8ff" stroke="#63b8ff" points="2067.97,-182.81 2078.42,-181.06 2069.16,-175.91 2067.97,-182.81"/>
</a>
</g>
</g>
<!-- Node19 -->
<g id="Node000019" class="node">
<title>Node19</title>
<g id="a_Node000019"><a xlink:href="KalimariDesert_8cpp.html" target="_top" xlink:title=" ">
<polygon fill="white" stroke="#666666" points="1977.5,-140 1864.5,-140 1864.5,-110 1977.5,-110 1977.5,-140"/>
<text text-anchor="start" x="1872.5" y="-128" font-family="Helvetica,sans-Serif" font-size="10.00">src/engine/courses</text>
<text text-anchor="middle" x="1921" y="-117" font-family="Helvetica,sans-Serif" font-size="10.00">/KalimariDesert.cpp</text>
</a>
</g>
</g>
<!-- Node1&#45;&gt;Node19 -->
<g id="edge19_Node000001_Node000019" class="edge">
<title>Node1&#45;&gt;Node19</title>
<g id="a_edge19_Node000001_Node000019"><a xlink:title=" ">
<path fill="none" stroke="#63b8ff" d="M2075.18,-172.99C2041.39,-162.69 1998.82,-149.72 1966.98,-140.01"/>
<polygon fill="#63b8ff" stroke="#63b8ff" points="2074.33,-176.39 2084.91,-175.95 2076.37,-169.69 2074.33,-176.39"/>
</a>
</g>
</g>
<!-- Node20 -->
<g id="Node000020" class="node">
<title>Node20</title>
<g id="a_Node000020"><a xlink:href="KoopaTroopaBeach_8cpp.html" target="_top" xlink:title=" ">
<polygon fill="white" stroke="#666666" points="2128,-140 1996,-140 1996,-110 2128,-110 2128,-140"/>
<text text-anchor="start" x="2004" y="-128" font-family="Helvetica,sans-Serif" font-size="10.00">src/engine/courses</text>
<text text-anchor="middle" x="2062" y="-117" font-family="Helvetica,sans-Serif" font-size="10.00">/KoopaTroopaBeach.cpp</text>
</a>
</g>
</g>
<!-- Node1&#45;&gt;Node20 -->
<g id="edge20_Node000001_Node000020" class="edge">
<title>Node1&#45;&gt;Node20</title>
<g id="a_edge20_Node000001_Node000020"><a xlink:title=" ">
<path fill="none" stroke="#63b8ff" d="M2108.28,-168.92C2098.1,-159.49 2086.37,-148.61 2077.27,-140.16"/>
<polygon fill="#63b8ff" stroke="#63b8ff" points="2105.97,-171.56 2115.69,-175.8 2110.74,-166.43 2105.97,-171.56"/>
</a>
</g>
</g>
<!-- Node21 -->
<g id="Node000021" class="node">
<title>Node21</title>
<g id="a_Node000021"><a xlink:href="LuigiRaceway_8cpp.html" target="_top" xlink:title=" ">
<polygon fill="white" stroke="#666666" points="2253.5,-140 2146.5,-140 2146.5,-110 2253.5,-110 2253.5,-140"/>
<text text-anchor="start" x="2154.5" y="-128" font-family="Helvetica,sans-Serif" font-size="10.00">src/engine/courses</text>
<text text-anchor="middle" x="2200" y="-117" font-family="Helvetica,sans-Serif" font-size="10.00">/LuigiRaceway.cpp</text>
</a>
</g>
</g>
<!-- Node1&#45;&gt;Node21 -->
<g id="edge21_Node000001_Node000021" class="edge">
<title>Node1&#45;&gt;Node21</title>
<g id="a_edge21_Node000001_Node000021"><a xlink:title=" ">
<path fill="none" stroke="#63b8ff" d="M2153.72,-168.92C2163.9,-159.49 2175.63,-148.61 2184.73,-140.16"/>
<polygon fill="#63b8ff" stroke="#63b8ff" points="2151.26,-166.43 2146.31,-175.8 2156.03,-171.56 2151.26,-166.43"/>
</a>
</g>
</g>
<!-- Node22 -->
<g id="Node000022" class="node">
<title>Node22</title>
<g id="a_Node000022"><a xlink:href="MarioRaceway_8cpp.html" target="_top" xlink:title=" ">
<polygon fill="white" stroke="#666666" points="2382,-140 2272,-140 2272,-110 2382,-110 2382,-140"/>
<text text-anchor="start" x="2280" y="-128" font-family="Helvetica,sans-Serif" font-size="10.00">src/engine/courses</text>
<text text-anchor="middle" x="2327" y="-117" font-family="Helvetica,sans-Serif" font-size="10.00">/MarioRaceway.cpp</text>
</a>
</g>
</g>
<!-- Node1&#45;&gt;Node22 -->
<g id="edge22_Node000001_Node000022" class="edge">
<title>Node1&#45;&gt;Node22</title>
<g id="a_edge22_Node000001_Node000022"><a xlink:title=" ">
<path fill="none" stroke="#63b8ff" d="M2183.91,-172.72C2215.32,-162.47 2254.62,-149.63 2284.09,-140.01"/>
<polygon fill="#63b8ff" stroke="#63b8ff" points="2182.43,-169.52 2174.01,-175.95 2184.61,-176.18 2182.43,-169.52"/>
</a>
</g>
</g>
<!-- Node23 -->
<g id="Node000023" class="node">
<title>Node23</title>
<g id="a_Node000023"><a xlink:href="MooMooFarm_8cpp.html" target="_top" xlink:title=" ">
<polygon fill="white" stroke="#666666" points="2507.5,-140 2400.5,-140 2400.5,-110 2507.5,-110 2507.5,-140"/>
<text text-anchor="start" x="2408.5" y="-128" font-family="Helvetica,sans-Serif" font-size="10.00">src/engine/courses</text>
<text text-anchor="middle" x="2454" y="-117" font-family="Helvetica,sans-Serif" font-size="10.00">/MooMooFarm.cpp</text>
</a>
</g>
</g>
<!-- Node1&#45;&gt;Node23 -->
<g id="edge23_Node000001_Node000023" class="edge">
<title>Node1&#45;&gt;Node23</title>
<g id="a_edge23_Node000001_Node000023"><a xlink:title=" ">
<path fill="none" stroke="#63b8ff" d="M2193.75,-178.45C2246.47,-168.63 2323.77,-153.93 2391,-140 2394.07,-139.36 2397.23,-138.7 2400.41,-138.02"/>
<polygon fill="#63b8ff" stroke="#63b8ff" points="2193.06,-175.02 2183.87,-180.29 2194.34,-181.9 2193.06,-175.02"/>
</a>
</g>
</g>
<!-- Node24 -->
<g id="Node000024" class="node">
<title>Node24</title>
<g id="a_Node000024"><a xlink:href="PodiumCeremony_8cpp.html" target="_top" xlink:title=" ">
<polygon fill="white" stroke="#666666" points="2650.5,-140 2525.5,-140 2525.5,-110 2650.5,-110 2650.5,-140"/>
<text text-anchor="start" x="2533.5" y="-128" font-family="Helvetica,sans-Serif" font-size="10.00">src/engine/courses</text>
<text text-anchor="middle" x="2588" y="-117" font-family="Helvetica,sans-Serif" font-size="10.00">/PodiumCeremony.cpp</text>
</a>
</g>
</g>
<!-- Node1&#45;&gt;Node24 -->
<g id="edge24_Node000001_Node000024" class="edge">
<title>Node1&#45;&gt;Node24</title>
<g id="a_edge24_Node000001_Node000024"><a xlink:title=" ">
<path fill="none" stroke="#63b8ff" d="M2193.56,-183.18C2270.06,-174.54 2403.39,-158.54 2517,-140 2519.73,-139.55 2522.51,-139.08 2525.32,-138.59"/>
<polygon fill="#63b8ff" stroke="#63b8ff" points="2193.15,-179.7 2183.6,-184.3 2193.93,-186.66 2193.15,-179.7"/>
</a>
</g>
</g>
<!-- Node25 -->
<g id="Node000025" class="node">
<title>Node25</title>
<g id="a_Node000025"><a xlink:href="RainbowRoad_8cpp.html" target="_top" xlink:title=" ">
<polygon fill="white" stroke="#666666" points="2775.5,-140 2668.5,-140 2668.5,-110 2775.5,-110 2775.5,-140"/>
<text text-anchor="start" x="2676.5" y="-128" font-family="Helvetica,sans-Serif" font-size="10.00">src/engine/courses</text>
<text text-anchor="middle" x="2722" y="-117" font-family="Helvetica,sans-Serif" font-size="10.00">/RainbowRoad.cpp</text>
</a>
</g>
</g>
<!-- Node1&#45;&gt;Node25 -->
<g id="edge25_Node000001_Node000025" class="edge">
<title>Node1&#45;&gt;Node25</title>
<g id="a_edge25_Node000001_Node000025"><a xlink:title=" ">
<path fill="none" stroke="#63b8ff" d="M2194.02,-186.66C2293.5,-180.79 2492.83,-166.66 2660,-140 2662.72,-139.57 2665.51,-139.08 2668.31,-138.56"/>
<polygon fill="#63b8ff" stroke="#63b8ff" points="2193.62,-183.17 2183.84,-187.25 2194.03,-190.16 2193.62,-183.17"/>
</a>
</g>
</g>
<!-- Node26 -->
<g id="Node000026" class="node">
<title>Node26</title>
<g id="a_Node000026"><a xlink:href="RoyalRaceway_8cpp.html" target="_top" xlink:title=" ">
<polygon fill="white" stroke="#666666" points="2904,-140 2794,-140 2794,-110 2904,-110 2904,-140"/>
<text text-anchor="start" x="2802" y="-128" font-family="Helvetica,sans-Serif" font-size="10.00">src/engine/courses</text>
<text text-anchor="middle" x="2849" y="-117" font-family="Helvetica,sans-Serif" font-size="10.00">/RoyalRaceway.cpp</text>
</a>
</g>
</g>
<!-- Node1&#45;&gt;Node26 -->
<g id="edge26_Node000001_Node000026" class="edge">
<title>Node1&#45;&gt;Node26</title>
<g id="a_edge26_Node000001_Node000026"><a xlink:title=" ">
<path fill="none" stroke="#63b8ff" d="M2194.04,-188.09C2311.05,-183.91 2569.55,-171.64 2785,-140 2787.93,-139.57 2790.92,-139.08 2793.93,-138.56"/>
<polygon fill="#63b8ff" stroke="#63b8ff" points="2193.71,-184.6 2183.83,-188.45 2193.95,-191.6 2193.71,-184.6"/>
</a>
</g>
</g>
<!-- Node27 -->
<g id="Node000027" class="node">
<title>Node27</title>
<g id="a_Node000027"><a xlink:href="SherbetLand_8cpp.html" target="_top" xlink:title=" ">
<polygon fill="white" stroke="#666666" points="3029.5,-140 2922.5,-140 2922.5,-110 3029.5,-110 3029.5,-140"/>
<text text-anchor="start" x="2930.5" y="-128" font-family="Helvetica,sans-Serif" font-size="10.00">src/engine/courses</text>
<text text-anchor="middle" x="2976" y="-117" font-family="Helvetica,sans-Serif" font-size="10.00">/SherbetLand.cpp</text>
</a>
</g>
</g>
<!-- Node1&#45;&gt;Node27 -->
<g id="edge27_Node000001_Node000027" class="edge">
<title>Node1&#45;&gt;Node27</title>
<g id="a_edge27_Node000001_Node000027"><a xlink:title=" ">
<path fill="none" stroke="#63b8ff" d="M2193.95,-189.27C2327.24,-187.01 2647.51,-177.75 2913,-140 2916.11,-139.56 2919.29,-139.05 2922.49,-138.48"/>
<polygon fill="#63b8ff" stroke="#63b8ff" points="2193.86,-185.77 2183.92,-189.44 2193.97,-192.77 2193.86,-185.77"/>
</a>
</g>
</g>
<!-- Node28 -->
<g id="Node000028" class="node">
<title>Node28</title>
<g id="a_Node000028"><a xlink:href="Skyscraper_8cpp.html" target="_top" xlink:title=" ">
<polygon fill="white" stroke="#666666" points="3154.5,-140 3047.5,-140 3047.5,-110 3154.5,-110 3154.5,-140"/>
<text text-anchor="start" x="3055.5" y="-128" font-family="Helvetica,sans-Serif" font-size="10.00">src/engine/courses</text>
<text text-anchor="middle" x="3101" y="-117" font-family="Helvetica,sans-Serif" font-size="10.00">/Skyscraper.cpp</text>
</a>
</g>
</g>
<!-- Node1&#45;&gt;Node28 -->
<g id="edge28_Node000001_Node000028" class="edge">
<title>Node1&#45;&gt;Node28</title>
<g id="a_edge28_Node000001_Node000028"><a xlink:title=" ">
<path fill="none" stroke="#63b8ff" d="M2194.01,-190.14C2342.16,-189.69 2723.87,-183.94 3039,-140 3041.73,-139.62 3044.52,-139.18 3047.33,-138.69"/>
<polygon fill="#63b8ff" stroke="#63b8ff" points="2193.75,-186.64 2183.75,-190.16 2193.76,-193.64 2193.75,-186.64"/>
</a>
</g>
</g>
<!-- Node29 -->
<g id="Node000029" class="node">
<title>Node29</title>
<g id="a_Node000029"><a xlink:href="TestCourse_8cpp.html" target="_top" xlink:title=" ">
<polygon fill="white" stroke="#666666" points="3279.5,-140 3172.5,-140 3172.5,-110 3279.5,-110 3279.5,-140"/>
<text text-anchor="start" x="3180.5" y="-128" font-family="Helvetica,sans-Serif" font-size="10.00">src/engine/courses</text>
<text text-anchor="middle" x="3226" y="-117" font-family="Helvetica,sans-Serif" font-size="10.00">/TestCourse.cpp</text>
</a>
</g>
</g>
<!-- Node1&#45;&gt;Node29 -->
<g id="edge29_Node000001_Node000029" class="edge">
<title>Node1&#45;&gt;Node29</title>
<g id="a_edge29_Node000001_Node000029"><a xlink:title=" ">
<path fill="none" stroke="#63b8ff" d="M2193.95,-190.74C2355.75,-191.84 2799.07,-189.65 3164,-140 3166.73,-139.63 3169.52,-139.2 3172.34,-138.72"/>
<polygon fill="#63b8ff" stroke="#63b8ff" points="2193.73,-187.24 2183.7,-190.67 2193.67,-194.24 2193.73,-187.24"/>
</a>
</g>
</g>
<!-- Node30 -->
<g id="Node000030" class="node">
<title>Node30</title>
<g id="a_Node000030"><a xlink:href="ToadsTurnpike_8cpp.html" target="_top" xlink:title=" ">
<polygon fill="white" stroke="#666666" points="3406,-140 3298,-140 3298,-110 3406,-110 3406,-140"/>
<text text-anchor="start" x="3306" y="-128" font-family="Helvetica,sans-Serif" font-size="10.00">src/engine/courses</text>
<text text-anchor="middle" x="3352" y="-117" font-family="Helvetica,sans-Serif" font-size="10.00">/ToadsTurnpike.cpp</text>
</a>
</g>
</g>
<!-- Node1&#45;&gt;Node30 -->
<g id="edge30_Node000001_Node000030" class="edge">
<title>Node1&#45;&gt;Node30</title>
<g id="a_edge30_Node000001_Node000030"><a xlink:title=" ">
<path fill="none" stroke="#63b8ff" d="M2193.74,-188.74C2402.78,-184.33 3074.41,-168.25 3289,-140 3291.89,-139.62 3294.84,-139.17 3297.81,-138.68"/>
<polygon fill="#63b8ff" stroke="#63b8ff" points="2193.48,-185.25 2183.56,-188.96 2193.63,-192.25 2193.48,-185.25"/>
</a>
</g>
</g>
<!-- Node31 -->
<g id="Node000031" class="node">
<title>Node31</title>
<g id="a_Node000031"><a xlink:href="WarioStadium_8cpp.html" target="_top" xlink:title=" ">
<polygon fill="white" stroke="#666666" points="3532,-140 3424,-140 3424,-110 3532,-110 3532,-140"/>
<text text-anchor="start" x="3432" y="-128" font-family="Helvetica,sans-Serif" font-size="10.00">src/engine/courses</text>
<text text-anchor="middle" x="3478" y="-117" font-family="Helvetica,sans-Serif" font-size="10.00">/WarioStadium.cpp</text>
</a>
</g>
</g>
<!-- Node1&#45;&gt;Node31 -->
<g id="edge31_Node000001_Node000031" class="edge">
<title>Node1&#45;&gt;Node31</title>
<g id="a_edge31_Node000001_Node000031"><a xlink:title=" ">
<path fill="none" stroke="#63b8ff" d="M2194.06,-189.05C2418.04,-185.42 3174.76,-171.11 3415,-140 3417.89,-139.63 3420.84,-139.18 3423.81,-138.69"/>
<polygon fill="#63b8ff" stroke="#63b8ff" points="2193.74,-185.55 2183.8,-189.21 2193.85,-192.55 2193.74,-185.55"/>
</a>
</g>
</g>
<!-- Node32 -->
<g id="Node000032" class="node">
<title>Node32</title>
<g id="a_Node000032"><a xlink:href="YoshiValley_8cpp.html" target="_top" xlink:title=" ">
<polygon fill="white" stroke="#666666" points="3657.5,-140 3550.5,-140 3550.5,-110 3657.5,-110 3657.5,-140"/>
<text text-anchor="start" x="3558.5" y="-128" font-family="Helvetica,sans-Serif" font-size="10.00">src/engine/courses</text>
<text text-anchor="middle" x="3604" y="-117" font-family="Helvetica,sans-Serif" font-size="10.00">/YoshiValley.cpp</text>
</a>
</g>
</g>
<!-- Node1&#45;&gt;Node32 -->
<g id="edge32_Node000001_Node000032" class="edge">
<title>Node1&#45;&gt;Node32</title>
<g id="a_edge32_Node000001_Node000032"><a xlink:title=" ">
<path fill="none" stroke="#63b8ff" d="M2193.79,-189.3C2431.31,-186.43 3274.8,-174.01 3541,-140 3544,-139.62 3547.07,-139.16 3550.16,-138.65"/>
<polygon fill="#63b8ff" stroke="#63b8ff" points="2193.56,-185.81 2183.6,-189.42 2193.65,-192.8 2193.56,-185.81"/>
</a>
</g>
</g>
<!-- Node33 -->
<g id="Node000033" class="node">
<title>Node33</title>
<g id="a_Node000033"><a xlink:href="BombKart_8cpp.html" target="_top" xlink:title=" ">
<polygon fill="white" stroke="#666666" points="3780.5,-140 3675.5,-140 3675.5,-110 3780.5,-110 3780.5,-140"/>
<text text-anchor="start" x="3683.5" y="-128" font-family="Helvetica,sans-Serif" font-size="10.00">src/engine/objects</text>
<text text-anchor="middle" x="3728" y="-117" font-family="Helvetica,sans-Serif" font-size="10.00">/BombKart.cpp</text>
</a>
</g>
</g>
<!-- Node1&#45;&gt;Node33 -->
<g id="edge33_Node000001_Node000033" class="edge">
<title>Node1&#45;&gt;Node33</title>
<g id="a_edge33_Node000001_Node000033"><a xlink:title=" ">
<path fill="none" stroke="#63b8ff" d="M2193.52,-189.57C2443.91,-187.62 3374.88,-177.92 3667,-140 3669.69,-139.65 3672.44,-139.24 3675.21,-138.77"/>
<polygon fill="#63b8ff" stroke="#63b8ff" points="2193.47,-186.07 2183.5,-189.65 2193.53,-193.07 2193.47,-186.07"/>
</a>
</g>
</g>
<!-- Node34 -->
<g id="Node000034" class="node">
<title>Node34</title>
<g id="a_Node000034"><a xlink:href="Game_8cpp.html" target="_top" xlink:title=" ">
<polygon fill="white" stroke="#666666" points="3905,-134.5 3799,-134.5 3799,-115.5 3905,-115.5 3905,-134.5"/>
<text text-anchor="middle" x="3852" y="-122.5" font-family="Helvetica,sans-Serif" font-size="10.00">src/port/Game.cpp</text>
</a>
</g>
</g>
<!-- Node1&#45;&gt;Node34 -->
<g id="edge34_Node000001_Node000034" class="edge">
<title>Node1&#45;&gt;Node34</title>
<g id="a_edge34_Node000001_Node000034"><a xlink:title=" ">
<path fill="none" stroke="#63b8ff" d="M2193.67,-189.72C2456.69,-188.3 3472.47,-180.26 3790,-140 3799.74,-138.76 3810.21,-136.7 3819.71,-134.52"/>
<polygon fill="#63b8ff" stroke="#63b8ff" points="2193.51,-186.22 2183.53,-189.77 2193.55,-193.22 2193.51,-186.22"/>
</a>
</g>
</g>
<!-- Node3 -->
<g id="Node000003" class="node">
<title>Node3</title>
<g id="a_Node000003"><a xlink:href="RaceManager_8cpp.html" target="_top" xlink:title=" ">
<polygon fill="white" stroke="#666666" points="156,-74 0,-74 0,-55 156,-55 156,-74"/>
<text text-anchor="middle" x="78" y="-62" font-family="Helvetica,sans-Serif" font-size="10.00">src/engine/RaceManager.cpp</text>
</a>
</g>
</g>
<!-- Node2&#45;&gt;Node3 -->
<g id="edge2_Node000002_Node000003" class="edge">
<title>Node2&#45;&gt;Node3</title>
<g id="a_edge2_Node000002_Node000003"><a xlink:title=" ">
<path fill="none" stroke="#63b8ff" d="M273.32,-113.11C226.94,-101.8 155.35,-84.35 112.94,-74.02"/>
<polygon fill="#63b8ff" stroke="#63b8ff" points="272.56,-116.53 283.1,-115.49 274.22,-109.72 272.56,-116.53"/>
</a>
</g>
</g>
<!-- Node4 -->
<g id="Node000004" class="node">
<title>Node4</title>
<g id="a_Node000004"><a xlink:href="RegisteredActors_8cpp.html" target="_top" xlink:title=" ">
<polygon fill="white" stroke="#666666" points="347.5,-74 174.5,-74 174.5,-55 347.5,-55 347.5,-74"/>
<text text-anchor="middle" x="261" y="-62" font-family="Helvetica,sans-Serif" font-size="10.00">src/engine/RegisteredActors.cpp</text>
</a>
</g>
</g>
<!-- Node2&#45;&gt;Node4 -->
<g id="edge3_Node000002_Node000004" class="edge">
<title>Node2&#45;&gt;Node4</title>
<g id="a_edge3_Node000002_Node000004"><a xlink:title=" ">
<path fill="none" stroke="#63b8ff" d="M302.5,-108.09C291.85,-97.17 278.13,-83.08 269.45,-74.17"/>
<polygon fill="#63b8ff" stroke="#63b8ff" points="300.1,-110.65 309.59,-115.37 305.12,-105.76 300.1,-110.65"/>
</a>
</g>
</g>
<!-- Node5 -->
<g id="Node000005" class="node">
<title>Node5</title>
<g id="a_Node000005"><a xlink:href="ContentBrowser_8cpp.html" target="_top" xlink:title=" ">
<polygon fill="white" stroke="#666666" points="459,-19 293,-19 293,0 459,0 459,-19"/>
<text text-anchor="middle" x="376" y="-7" font-family="Helvetica,sans-Serif" font-size="10.00">src/port/ui/ContentBrowser.cpp</text>
</a>
</g>
</g>
<!-- Node2&#45;&gt;Node5 -->
<g id="edge4_Node000002_Node000005" class="edge">
<title>Node2&#45;&gt;Node5</title>
<g id="a_edge4_Node000002_Node000005"><a xlink:title=" ">
<path fill="none" stroke="#63b8ff" d="M333.12,-107.85C341.16,-98.55 350.66,-86.28 357,-74 366.5,-55.6 372.04,-31.68 374.48,-19.1"/>
<polygon fill="#63b8ff" stroke="#63b8ff" points="330.35,-105.7 326.28,-115.48 335.56,-110.37 330.35,-105.7"/>
</a>
</g>
</g>
<!-- Node6 -->
<g id="Node000006" class="node">
<title>Node6</title>
<g id="a_Node000006"><a xlink:href="ContentBrowser_8h.html" target="_top" xlink:title=" ">
<polygon fill="white" stroke="#666666" points="559.5,-74 404.5,-74 404.5,-55 559.5,-55 559.5,-74"/>
<text text-anchor="middle" x="482" y="-62" font-family="Helvetica,sans-Serif" font-size="10.00">src/port/ui/ContentBrowser.h</text>
</a>
</g>
</g>
<!-- Node2&#45;&gt;Node6 -->
<g id="edge5_Node000002_Node000006" class="edge">
<title>Node2&#45;&gt;Node6</title>
<g id="a_edge5_Node000002_Node000006"><a xlink:title=" ">
<path fill="none" stroke="#63b8ff" d="M351.57,-112.02C383.28,-100.71 430.05,-84.03 458.12,-74.02"/>
<polygon fill="#63b8ff" stroke="#63b8ff" points="350.09,-108.84 341.85,-115.49 352.44,-115.43 350.09,-108.84"/>
</a>
</g>
</g>
<!-- Node6&#45;&gt;Node5 -->
<g id="edge6_Node000006_Node000005" class="edge">
<title>Node6&#45;&gt;Node5</title>
<g id="a_edge6_Node000006_Node000005"><a xlink:title=" ">
<path fill="none" stroke="#63b8ff" d="M456,-50.5C436.5,-40.75 410.35,-27.68 393.34,-19.17"/>
<polygon fill="#63b8ff" stroke="#63b8ff" points="454.46,-53.64 464.97,-54.98 457.59,-47.38 454.46,-53.64"/>
</a>
</g>
</g>
<!-- Node7 -->
<g id="Node000007" class="node">
<title>Node7</title>
<g id="a_Node000007"><a xlink:href="ImguiUI_8cpp.html" target="_top" xlink:title=" ">
<polygon fill="white" stroke="#666666" points="604.5,-19 477.5,-19 477.5,0 604.5,0 604.5,-19"/>
<text text-anchor="middle" x="541" y="-7" font-family="Helvetica,sans-Serif" font-size="10.00">src/port/ui/ImguiUI.cpp</text>
</a>
</g>
</g>
<!-- Node6&#45;&gt;Node7 -->
<g id="edge7_Node000006_Node000007" class="edge">
<title>Node6&#45;&gt;Node7</title>
<g id="a_edge7_Node000006_Node000007"><a xlink:title=" ">
<path fill="none" stroke="#63b8ff" d="M499.2,-48.04C509.67,-38.64 522.65,-26.98 531.35,-19.17"/>
<polygon fill="#63b8ff" stroke="#63b8ff" points="496.58,-45.7 491.48,-54.98 501.26,-50.91 496.58,-45.7"/>
</a>
</g>
</g>
</g>
</svg>

<g id="navigator" transform="translate(0 0)" fill="#404254">
  <rect fill="#f2f5e9" fill-opacity="0.5" stroke="#606060" stroke-width=".5" x="0" y="0" width="60" height="60"/>
  <use id="zoomplus" xlink:href="#zoomPlus" x="17" y="9" onmousedown="handleZoom(evt,'in')"/>
  <use id="zoomminus" xlink:href="#zoomMin" x="42" y="9" onmousedown="handleZoom(evt,'out')"/>
  <use id="reset" xlink:href="#resetDef" x="30" y="36" onmousedown="handleReset()"/>
   <use id="arrowup" xlink:href="#arrowUp" x="0" y="0" onmousedown="handlePan(0,-1)"/>
  <use id="arrowright" xlink:href="#arrowRight" x="0" y="0" onmousedown="handlePan(1,0)"/>
  <use id="arrowdown" xlink:href="#arrowDown" x="0" y="0" onmousedown="handlePan(0,1)"/>
  <use id="arrowleft" xlink:href="#arrowLeft" x="0" y="0" onmousedown="handlePan(-1,0)"/>
</g>
<svg viewBox="0 0 15 15" width="100%" height="30px" preserveAspectRatio="xMaxYMin meet">
 <g id="arrow_out" transform="scale(0.3 0.3)">
  <a xlink:href="BombKart_8h__dep__incl_org.svg" target="_base">
   <rect id="button" ry="5" rx="5" y="6" x="6" height="38" width="38"
        fill="#f2f5e9" fill-opacity="0.5" stroke="#606060" stroke-width="1.0"/>
   <path id="arrow"
     d="M 11.500037,31.436501 C 11.940474,20.09759 22.043105,11.32322 32.158766,21.979434 L 37.068811,17.246167 C 37.068811,17.246167 37.088388,32 37.088388,32 L 22.160133,31.978069 C 22.160133,31.978069 26.997745,27.140456 26.997745,27.140456 C 18.528582,18.264221 13.291696,25.230495 11.500037,31.436501 z"
     style="fill:#404040;"/>
  </a>
 </g>
</svg>

<style type='text/css'>
<![CDATA[
[data-mouse-over-selected='false'] { opacity: 0.7; }
[data-mouse-over-selected='true']  { opacity: 1.0; }
]]>
</style>
<script type="application/ecmascript"><![CDATA[
document.addEventListener('DOMContentLoaded', (event) => {
  highlightEdges();
  highlightAdjacentNodes();
});
]]></script>
</svg>
