<?xml version="1.0" encoding="UTF-8" standalone="no"?>
<!DOCTYPE svg PUBLIC "-//W3C//DTD SVG 1.1//EN"
 "http://www.w3.org/Graphics/SVG/1.1/DTD/svg11.dtd">
<!-- Generated by graphviz version 2.43.0 (0)
 -->
<!-- Title: src/engine/objects/Boos.h Pages: 1 -->
<svg width="796pt" height="214pt"
 viewBox="0.00 0.00 796.00 214.00" xmlns="http://www.w3.org/2000/svg" xmlns:xlink="http://www.w3.org/1999/xlink">
<g id="graph0" class="graph" transform="scale(1 1) rotate(0) translate(4 210)">
<title>src/engine/objects/Boos.h</title>
<!-- Node1 -->
<g id="Node000001" class="node">
<title>Node1</title>
<g id="a_Node000001"><a xlink:title=" ">
<polygon fill="#999999" stroke="#666666" points="539,-206 434,-206 434,-176 539,-176 539,-206"/>
<text text-anchor="start" x="442" y="-194" font-family="Helvetica,sans-Serif" font-size="10.00">src/engine/objects</text>
<text text-anchor="middle" x="486.5" y="-183" font-family="Helvetica,sans-Serif" font-size="10.00">/Boos.h</text>
</a>
</g>
</g>
<!-- Node2 -->
<g id="Node000002" class="node">
<title>Node2</title>
<g id="a_Node000002"><a xlink:href="AllActors_8h.html" target="_top" xlink:title=" ">
<polygon fill="white" stroke="#666666" points="262.5,-134.5 140.5,-134.5 140.5,-115.5 262.5,-115.5 262.5,-134.5"/>
<text text-anchor="middle" x="201.5" y="-122.5" font-family="Helvetica,sans-Serif" font-size="10.00">src/engine/AllActors.h</text>
</a>
</g>
</g>
<!-- Node1&#45;&gt;Node2 -->
<g id="edge1_Node000001_Node000002" class="edge">
<title>Node1&#45;&gt;Node2</title>
<g id="a_edge1_Node000001_Node000002"><a xlink:title=" ">
<path fill="none" stroke="#63b8ff" d="M424.04,-175.97C367.76,-163.34 286.84,-145.16 239.67,-134.57"/>
<polygon fill="#63b8ff" stroke="#63b8ff" points="423.37,-179.41 433.89,-178.19 424.9,-172.58 423.37,-179.41"/>
</a>
</g>
</g>
<!-- Node7 -->
<g id="Node000007" class="node">
<title>Node7</title>
<g id="a_Node000007"><a xlink:href="BansheeBoardwalk_8cpp.html" target="_top" xlink:title=" ">
<polygon fill="white" stroke="#666666" points="414.5,-140 280.5,-140 280.5,-110 414.5,-110 414.5,-140"/>
<text text-anchor="start" x="288.5" y="-128" font-family="Helvetica,sans-Serif" font-size="10.00">src/engine/courses</text>
<text text-anchor="middle" x="347.5" y="-117" font-family="Helvetica,sans-Serif" font-size="10.00">/BansheeBoardwalk.cpp</text>
</a>
</g>
</g>
<!-- Node1&#45;&gt;Node7 -->
<g id="edge7_Node000001_Node000007" class="edge">
<title>Node1&#45;&gt;Node7</title>
<g id="a_edge7_Node000001_Node000007"><a xlink:title=" ">
<path fill="none" stroke="#63b8ff" d="M446.64,-171.65C424.78,-161.58 398.11,-149.3 377.93,-140.01"/>
<polygon fill="#63b8ff" stroke="#63b8ff" points="445.45,-174.95 456,-175.95 448.38,-168.59 445.45,-174.95"/>
</a>
</g>
</g>
<!-- Node8 -->
<g id="Node000008" class="node">
<title>Node8</title>
<g id="a_Node000008"><a xlink:href="Harbour_8cpp.html" target="_top" xlink:title=" ">
<polygon fill="white" stroke="#666666" points="540,-140 433,-140 433,-110 540,-110 540,-140"/>
<text text-anchor="start" x="441" y="-128" font-family="Helvetica,sans-Serif" font-size="10.00">src/engine/courses</text>
<text text-anchor="middle" x="486.5" y="-117" font-family="Helvetica,sans-Serif" font-size="10.00">/Harbour.cpp</text>
</a>
</g>
</g>
<!-- Node1&#45;&gt;Node8 -->
<g id="edge8_Node000001_Node000008" class="edge">
<title>Node1&#45;&gt;Node8</title>
<g id="a_edge8_Node000001_Node000008"><a xlink:title=" ">
<path fill="none" stroke="#63b8ff" d="M486.5,-165.54C486.5,-156.96 486.5,-147.61 486.5,-140.16"/>
<polygon fill="#63b8ff" stroke="#63b8ff" points="483,-165.8 486.5,-175.8 490,-165.8 483,-165.8"/>
</a>
</g>
</g>
<!-- Node9 -->
<g id="Node000009" class="node">
<title>Node9</title>
<g id="a_Node000009"><a xlink:href="TestCourse_8cpp.html" target="_top" xlink:title=" ">
<polygon fill="white" stroke="#666666" points="665,-140 558,-140 558,-110 665,-110 665,-140"/>
<text text-anchor="start" x="566" y="-128" font-family="Helvetica,sans-Serif" font-size="10.00">src/engine/courses</text>
<text text-anchor="middle" x="611.5" y="-117" font-family="Helvetica,sans-Serif" font-size="10.00">/TestCourse.cpp</text>
</a>
</g>
</g>
<!-- Node1&#45;&gt;Node9 -->
<g id="edge9_Node000001_Node000009" class="edge">
<title>Node1&#45;&gt;Node9</title>
<g id="a_edge9_Node000001_Node000009"><a xlink:title=" ">
<path fill="none" stroke="#63b8ff" d="M522.87,-171.38C542.43,-161.36 566.15,-149.22 584.13,-140.01"/>
<polygon fill="#63b8ff" stroke="#63b8ff" points="521.24,-168.28 513.93,-175.95 524.43,-174.51 521.24,-168.28"/>
</a>
</g>
</g>
<!-- Node10 -->
<g id="Node000010" class="node">
<title>Node10</title>
<g id="a_Node000010"><a xlink:href="Boos_8cpp.html" target="_top" xlink:title=" ">
<polygon fill="white" stroke="#666666" points="788,-140 683,-140 683,-110 788,-110 788,-140"/>
<text text-anchor="start" x="691" y="-128" font-family="Helvetica,sans-Serif" font-size="10.00">src/engine/objects</text>
<text text-anchor="middle" x="735.5" y="-117" font-family="Helvetica,sans-Serif" font-size="10.00">/Boos.cpp</text>
</a>
</g>
</g>
<!-- Node1&#45;&gt;Node10 -->
<g id="edge10_Node000001_Node000010" class="edge">
<title>Node1&#45;&gt;Node10</title>
<g id="a_edge10_Node000001_Node000010"><a xlink:title=" ">
<path fill="none" stroke="#63b8ff" d="M548.93,-173.95C590.14,-163.36 643.54,-149.64 682.64,-139.59"/>
<polygon fill="#63b8ff" stroke="#63b8ff" points="547.82,-170.63 539,-176.51 549.56,-177.41 547.82,-170.63"/>
</a>
</g>
</g>
<!-- Node3 -->
<g id="Node000003" class="node">
<title>Node3</title>
<g id="a_Node000003"><a xlink:href="RegisteredActors_8cpp.html" target="_top" xlink:title=" ">
<polygon fill="white" stroke="#666666" points="173,-74 0,-74 0,-55 173,-55 173,-74"/>
<text text-anchor="middle" x="86.5" y="-62" font-family="Helvetica,sans-Serif" font-size="10.00">src/engine/RegisteredActors.cpp</text>
</a>
</g>
</g>
<!-- Node2&#45;&gt;Node3 -->
<g id="edge2_Node000002_Node000003" class="edge">
<title>Node2&#45;&gt;Node3</title>
<g id="a_edge2_Node000002_Node000003"><a xlink:title=" ">
<path fill="none" stroke="#63b8ff" d="M175.41,-110.73C153.39,-99.53 122.51,-83.82 103.54,-74.17"/>
<polygon fill="#63b8ff" stroke="#63b8ff" points="174.03,-113.95 184.53,-115.37 177.21,-107.71 174.03,-113.95"/>
</a>
</g>
</g>
<!-- Node4 -->
<g id="Node000004" class="node">
<title>Node4</title>
<g id="a_Node000004"><a xlink:href="ContentBrowser_8cpp.html" target="_top" xlink:title=" ">
<polygon fill="white" stroke="#666666" points="284.5,-19 118.5,-19 118.5,0 284.5,0 284.5,-19"/>
<text text-anchor="middle" x="201.5" y="-7" font-family="Helvetica,sans-Serif" font-size="10.00">src/port/ui/ContentBrowser.cpp</text>
</a>
</g>
</g>
<!-- Node2&#45;&gt;Node4 -->
<g id="edge3_Node000002_Node000004" class="edge">
<title>Node2&#45;&gt;Node4</title>
<g id="a_edge3_Node000002_Node000004"><a xlink:title=" ">
<path fill="none" stroke="#63b8ff" d="M201.5,-105.15C201.5,-80.24 201.5,-37.38 201.5,-19.13"/>
<polygon fill="#63b8ff" stroke="#63b8ff" points="198,-105.47 201.5,-115.47 205,-105.47 198,-105.47"/>
</a>
</g>
</g>
<!-- Node5 -->
<g id="Node000005" class="node">
<title>Node5</title>
<g id="a_Node000005"><a xlink:href="ContentBrowser_8h.html" target="_top" xlink:title=" ">
<polygon fill="white" stroke="#666666" points="385,-74 230,-74 230,-55 385,-55 385,-74"/>
<text text-anchor="middle" x="307.5" y="-62" font-family="Helvetica,sans-Serif" font-size="10.00">src/port/ui/ContentBrowser.h</text>
</a>
</g>
</g>
<!-- Node2&#45;&gt;Node5 -->
<g id="edge4_Node000002_Node000005" class="edge">
<title>Node2&#45;&gt;Node5</title>
<g id="a_edge4_Node000002_Node000005"><a xlink:title=" ">
<path fill="none" stroke="#63b8ff" d="M226.1,-110.42C246.36,-99.24 274.47,-83.73 291.8,-74.17"/>
<polygon fill="#63b8ff" stroke="#63b8ff" points="224.2,-107.47 217.14,-115.37 227.59,-113.6 224.2,-107.47"/>
</a>
</g>
</g>
<!-- Node5&#45;&gt;Node4 -->
<g id="edge5_Node000005_Node000004" class="edge">
<title>Node5&#45;&gt;Node4</title>
<g id="a_edge5_Node000005_Node000004"><a xlink:title=" ">
<path fill="none" stroke="#63b8ff" d="M281.5,-50.5C262,-40.75 235.85,-27.68 218.84,-19.17"/>
<polygon fill="#63b8ff" stroke="#63b8ff" points="279.96,-53.64 290.47,-54.98 283.09,-47.38 279.96,-53.64"/>
</a>
</g>
</g>
<!-- Node6 -->
<g id="Node000006" class="node">
<title>Node6</title>
<g id="a_Node000006"><a xlink:href="ImguiUI_8cpp.html" target="_top" xlink:title=" ">
<polygon fill="white" stroke="#666666" points="430,-19 303,-19 303,0 430,0 430,-19"/>
<text text-anchor="middle" x="366.5" y="-7" font-family="Helvetica,sans-Serif" font-size="10.00">src/port/ui/ImguiUI.cpp</text>
</a>
</g>
</g>
<!-- Node5&#45;&gt;Node6 -->
<g id="edge6_Node000005_Node000006" class="edge">
<title>Node5&#45;&gt;Node6</title>
<g id="a_edge6_Node000005_Node000006"><a xlink:title=" ">
<path fill="none" stroke="#63b8ff" d="M324.7,-48.04C335.17,-38.64 348.15,-26.98 356.85,-19.17"/>
<polygon fill="#63b8ff" stroke="#63b8ff" points="322.08,-45.7 316.98,-54.98 326.76,-50.91 322.08,-45.7"/>
</a>
</g>
</g>
</g>
</svg>
