<?xml version="1.0" encoding="UTF-8" standalone="no"?>
<!DOCTYPE svg PUBLIC "-//W3C//DTD SVG 1.1//EN"
 "http://www.w3.org/Graphics/SVG/1.1/DTD/svg11.dtd">
<!-- Generated by graphviz version 2.43.0 (0)
 -->
<!-- Title: src/engine/courses/BowsersCastle.h Pages: 1 -->
<!--zoomable 379 -->

<svg id="main" version="1.1" xmlns="http://www.w3.org/2000/svg" xmlns:xlink="http://www.w3.org/1999/xlink" xml:space="preserve" onload="init(evt)">

<style type="text/css"><![CDATA[
.node, .edge {opacity: 0.7;}
.node.selected, .edge.selected {opacity: 1;}
.edge:hover path { stroke: red; }
.edge:hover polygon { stroke: red; fill: red; }
]]></style>

<defs>
  <circle id="rim" cx="0" cy="0" r="7"/>
  <circle id="rim2" cx="0" cy="0" r="3.5"/>
  <g id="zoomPlus">
    <use xlink:href="#rim" fill="#404040"><set attributeName="fill" to="#808080" begin="zoomplus.mouseover" end="zoomplus.mouseout"/></use>
    <path d="M-4,0h8M0,-4v8" fill="none" stroke="white" stroke-width="1.5" pointer-events="none"/>
  </g>
  <g id="zoomMin">
    <use xlink:href="#rim" fill="#404040"><set attributeName="fill" to="#808080" begin="zoomminus.mouseover" end="zoomminus.mouseout"/></use>
    <path d="M-4,0h8" fill="none" stroke="white" stroke-width="1.5" pointer-events="none"/>
  </g>
  <g id="arrowUp" transform="translate(30 24)">
    <use xlink:href="#rim"/>
    <path pointer-events="none" fill="none" stroke="white" stroke-width="1.5" d="M0,-3.0v7 M-2.5,-0.5L0,-3.0L2.5,-0.5"/>
  </g>
  <g id="arrowRight" transform="rotate(90) translate(36 -43)">
    <use xlink:href="#rim"/>
    <path pointer-events="none" fill="none" stroke="white" stroke-width="1.5" d="M0,-3.0v7 M-2.5,-0.5L0,-3.0L2.5,-0.5"/>
  </g>
  <g id="arrowDown" transform="rotate(180) translate(-30 -48)">
    <use xlink:href="#rim"/>
    <path pointer-events="none" fill="none" stroke="white" stroke-width="1.5" d="M0,-3.0v7 M-2.5,-0.5L0,-3.0L2.5,-0.5"/>
  </g>
  <g id="arrowLeft" transform="rotate(270) translate(-36 17)">
    <use xlink:href="#rim"/>
    <path pointer-events="none" fill="none" stroke="white" stroke-width="1.5" d="M0,-3.0v7 M-2.5,-0.5L0,-3.0L2.5,-0.5"/>
  </g>
  <g id="resetDef">
    <use xlink:href="#rim2" fill="#404040"><set attributeName="fill" to="#808080" begin="reset.mouseover" end="reset.mouseout"/></use>
  </g>
</defs>
<script type="application/ecmascript">
var viewWidth = 1392;
var viewHeight = 379;
var sectionId = 'dynsection-0';
</script>
<script type="application/ecmascript" xlink:href="svg.min.js"/>
<svg id="graph" class="graph">
<g id="viewport">
<title>src/engine/courses/BowsersCastle.h</title>
<!-- Node1 -->
<g id="Node000001" class="node">
<title>Node1</title>
<g id="a_Node000001"><a xlink:title=" ">
<polygon fill="#999999" stroke="#666666" points="985.5,-371 878.5,-371 878.5,-341 985.5,-341 985.5,-371"/>
<text text-anchor="start" x="886.5" y="-359" font-family="Helvetica,sans-Serif" font-size="10.00">src/engine/courses</text>
<text text-anchor="middle" x="932" y="-348" font-family="Helvetica,sans-Serif" font-size="10.00">/BowsersCastle.h</text>
</a>
</g>
</g>
<!-- Node2 -->
<g id="Node000002" class="node">
<title>Node2</title>
<g id="a_Node000002"><a xlink:title=" ">
<polygon fill="#e0e0e0" stroke="#999999" points="402,-19 322,-19 322,0 402,0 402,-19"/>
<text text-anchor="middle" x="362" y="-7" font-family="Helvetica,sans-Serif" font-size="10.00">libultraship.h</text>
</a>
</g>
</g>
<!-- Node1&#45;&gt;Node2 -->
<g id="edge1_Node000001_Node000002" class="edge">
<title>Node1&#45;&gt;Node2</title>
<g id="a_edge1_Node000001_Node000002"><a xlink:title=" ">
<path fill="none" stroke="#63b8ff" d="M985.63,-352.79C1105.36,-346.41 1384,-322.81 1384,-241.5 1384,-241.5 1384,-241.5 1384,-124 1384,-25.08 617.89,-12.37 412.27,-10.74"/>
<polygon fill="#63b8ff" stroke="#63b8ff" points="412.09,-7.24 402.06,-10.66 412.04,-14.24 412.09,-7.24"/>
</a>
</g>
</g>
<!-- Node3 -->
<g id="Node000003" class="node">
<title>Node3</title>
<g id="a_Node000003"><a xlink:href="Course_8h.html" target="_top" xlink:title=" ">
<polygon fill="white" stroke="#666666" points="894.5,-305 835.5,-305 835.5,-286 894.5,-286 894.5,-305"/>
<text text-anchor="middle" x="865" y="-293" font-family="Helvetica,sans-Serif" font-size="10.00">Course.h</text>
</a>
</g>
</g>
<!-- Node1&#45;&gt;Node3 -->
<g id="edge2_Node000001_Node000003" class="edge">
<title>Node1&#45;&gt;Node3</title>
<g id="a_edge2_Node000001_Node000003"><a xlink:title=" ">
<path fill="none" stroke="#63b8ff" d="M915.78,-340.84C905.76,-332.09 892.89,-320.85 882.62,-311.88"/>
<polygon fill="#63b8ff" stroke="#63b8ff" points="884.87,-309.21 875.04,-305.27 880.27,-314.48 884.87,-309.21"/>
</a>
</g>
</g>
<!-- Node6 -->
<g id="Node000006" class="node">
<title>Node6</title>
<g id="a_Node000006"><a xlink:href="camera_8h.html" target="_top" xlink:title=" ">
<polygon fill="white" stroke="#666666" points="574,-195 512,-195 512,-176 574,-176 574,-195"/>
<text text-anchor="middle" x="543" y="-183" font-family="Helvetica,sans-Serif" font-size="10.00">camera.h</text>
</a>
</g>
</g>
<!-- Node1&#45;&gt;Node6 -->
<g id="edge61_Node000001_Node000006" class="edge">
<title>Node1&#45;&gt;Node6</title>
<g id="a_edge61_Node000001_Node000006"><a xlink:title=" ">
<path fill="none" stroke="#63b8ff" d="M878.17,-348.27C781.87,-335.03 586.27,-302.23 545,-250 535.18,-237.57 535.75,-219.1 538.14,-205.28"/>
<polygon fill="#63b8ff" stroke="#63b8ff" points="541.58,-205.92 540.29,-195.4 534.74,-204.43 541.58,-205.92"/>
</a>
</g>
</g>
<!-- Node8 -->
<g id="Node000008" class="node">
<title>Node8</title>
<g id="a_Node000008"><a xlink:href="course__offsets_8h.html" target="_top" xlink:title=" ">
<polygon fill="white" stroke="#666666" points="494,-195 398,-195 398,-176 494,-176 494,-195"/>
<text text-anchor="middle" x="446" y="-183" font-family="Helvetica,sans-Serif" font-size="10.00">course_offsets.h</text>
</a>
</g>
</g>
<!-- Node1&#45;&gt;Node8 -->
<g id="edge60_Node000001_Node000008" class="edge">
<title>Node1&#45;&gt;Node8</title>
<g id="a_edge60_Node000001_Node000008"><a xlink:title=" ">
<path fill="none" stroke="#63b8ff" d="M878.3,-352.79C811.81,-348.72 695.85,-337.24 602,-305 554.76,-288.77 543.12,-281.06 504,-250 486.54,-236.14 469.72,-216.85 458.73,-203.18"/>
<polygon fill="#63b8ff" stroke="#63b8ff" points="461.33,-200.82 452.4,-195.11 455.82,-205.14 461.33,-200.82"/>
</a>
</g>
</g>
<!-- Node14 -->
<g id="Node000014" class="node">
<title>Node14</title>
<g id="a_Node000014"><a xlink:href="src_2data_2some__data_8h.html" target="_top" xlink:title=" ">
<polygon fill="white" stroke="#666666" points="1297,-250 1193,-250 1193,-231 1297,-231 1297,-250"/>
<text text-anchor="middle" x="1245" y="-238" font-family="Helvetica,sans-Serif" font-size="10.00">data/some_data.h</text>
</a>
</g>
</g>
<!-- Node1&#45;&gt;Node14 -->
<g id="edge62_Node000001_Node000014" class="edge">
<title>Node1&#45;&gt;Node14</title>
<g id="a_edge62_Node000001_Node000014"><a xlink:title=" ">
<path fill="none" stroke="#63b8ff" d="M970.69,-340.97C1032.7,-318.49 1153.25,-274.77 1211.67,-253.59"/>
<polygon fill="#63b8ff" stroke="#63b8ff" points="1212.95,-256.84 1221.16,-250.14 1210.57,-250.26 1212.95,-256.84"/>
</a>
</g>
</g>
<!-- Node16 -->
<g id="Node000016" class="node">
<title>Node16</title>
<g id="a_Node000016"><a xlink:href="objects_8h.html" target="_top" xlink:title=" ">
<polygon fill="white" stroke="#666666" points="1355.5,-195 1294.5,-195 1294.5,-176 1355.5,-176 1355.5,-195"/>
<text text-anchor="middle" x="1325" y="-183" font-family="Helvetica,sans-Serif" font-size="10.00">objects.h</text>
</a>
</g>
</g>
<!-- Node1&#45;&gt;Node16 -->
<g id="edge63_Node000001_Node000016" class="edge">
<title>Node1&#45;&gt;Node16</title>
<g id="a_edge63_Node000001_Node000016"><a xlink:title=" ">
<path fill="none" stroke="#63b8ff" d="M985.76,-355.34C1066.4,-352.85 1218.52,-336.1 1306,-250 1317.91,-238.28 1322.42,-219.43 1324.09,-205.31"/>
<polygon fill="#63b8ff" stroke="#63b8ff" points="1327.59,-205.47 1324.92,-195.22 1320.62,-204.9 1327.59,-205.47"/>
</a>
</g>
</g>
<!-- Node21 -->
<g id="Node000021" class="node">
<title>Node21</title>
<g id="a_Node000021"><a xlink:href="path__spawn__metadata_8h.html" target="_top" xlink:title=" ">
<polygon fill="white" stroke="#666666" points="1136.5,-250 999.5,-250 999.5,-231 1136.5,-231 1136.5,-250"/>
<text text-anchor="middle" x="1068" y="-238" font-family="Helvetica,sans-Serif" font-size="10.00">path_spawn_metadata.h</text>
</a>
</g>
</g>
<!-- Node1&#45;&gt;Node21 -->
<g id="edge64_Node000001_Node000021" class="edge">
<title>Node1&#45;&gt;Node21</title>
<g id="a_edge64_Node000001_Node000021"><a xlink:title=" ">
<path fill="none" stroke="#63b8ff" d="M948.95,-340.85C974.65,-319.41 1023.28,-278.82 1049.74,-256.74"/>
<polygon fill="#63b8ff" stroke="#63b8ff" points="1052.06,-259.37 1057.49,-250.27 1047.57,-253.99 1052.06,-259.37"/>
</a>
</g>
</g>
<!-- Node25 -->
<g id="Node000025" class="node">
<title>Node25</title>
<g id="a_Node000025"><a xlink:href="bowsers__castle__vertices_8h.html" target="_top" xlink:title=" ">
<polygon fill="white" stroke="#666666" points="281,-140 155,-140 155,-110 281,-110 281,-140"/>
<text text-anchor="start" x="163" y="-128" font-family="Helvetica,sans-Serif" font-size="10.00">assets/bowsers_castle</text>
<text text-anchor="middle" x="218" y="-117" font-family="Helvetica,sans-Serif" font-size="10.00">_vertices.h</text>
</a>
</g>
</g>
<!-- Node1&#45;&gt;Node25 -->
<g id="edge48_Node000001_Node000025" class="edge">
<title>Node1&#45;&gt;Node25</title>
<g id="a_edge48_Node000001_Node000025"><a xlink:title=" ">
<path fill="none" stroke="#63b8ff" d="M878.22,-351.76C778.61,-345.26 569.36,-329.16 501,-305 395.26,-267.63 288.17,-184.93 241.82,-146.44"/>
<polygon fill="#63b8ff" stroke="#63b8ff" points="244.05,-143.75 234.14,-140.01 239.56,-149.11 244.05,-143.75"/>
</a>
</g>
</g>
<!-- Node26 -->
<g id="Node000026" class="node">
<title>Node26</title>
<g id="a_Node000026"><a xlink:href="bowsers__castle__displaylists_8h.html" target="_top" xlink:title=" ">
<polygon fill="white" stroke="#666666" points="425,-140 299,-140 299,-110 425,-110 425,-140"/>
<text text-anchor="start" x="307" y="-128" font-family="Helvetica,sans-Serif" font-size="10.00">assets/bowsers_castle</text>
<text text-anchor="middle" x="362" y="-117" font-family="Helvetica,sans-Serif" font-size="10.00">_displaylists.h</text>
</a>
</g>
</g>
<!-- Node1&#45;&gt;Node26 -->
<g id="edge52_Node000001_Node000026" class="edge">
<title>Node1&#45;&gt;Node26</title>
<g id="a_edge52_Node000001_Node000026"><a xlink:title=" ">
<path fill="none" stroke="#63b8ff" d="M878.35,-355.66C802.83,-354.9 661.99,-347.22 551,-305 469.66,-274.06 443.29,-263.02 389,-195 378.58,-181.94 371.78,-164.37 367.61,-150.23"/>
<polygon fill="#63b8ff" stroke="#63b8ff" points="370.9,-148.96 364.92,-140.21 364.14,-150.78 370.9,-148.96"/>
</a>
</g>
</g>
<!-- Node27 -->
<g id="Node000027" class="node">
<title>Node27</title>
<g id="a_Node000027"><a xlink:href="bowsers__castle__data_8h.html" target="_top" xlink:title=" ">
<polygon fill="white" stroke="#666666" points="645,-140 519,-140 519,-110 645,-110 645,-140"/>
<text text-anchor="start" x="527" y="-128" font-family="Helvetica,sans-Serif" font-size="10.00">assets/bowsers_castle</text>
<text text-anchor="middle" x="582" y="-117" font-family="Helvetica,sans-Serif" font-size="10.00">_data.h</text>
</a>
</g>
</g>
<!-- Node1&#45;&gt;Node27 -->
<g id="edge56_Node000001_Node000027" class="edge">
<title>Node1&#45;&gt;Node27</title>
<g id="a_edge56_Node000001_Node000027"><a xlink:title=" ">
<path fill="none" stroke="#63b8ff" d="M935.78,-340.53C943.67,-306.62 957.77,-221.44 914,-176 875.43,-135.96 726.46,-148.24 655.12,-139.88"/>
<polygon fill="#63b8ff" stroke="#63b8ff" points="655.57,-136.41 645.18,-138.49 654.6,-143.34 655.57,-136.41"/>
</a>
</g>
</g>
<!-- Node4 -->
<g id="Node000004" class="node">
<title>Node4</title>
<g id="a_Node000004"><a xlink:title=" ">
<polygon fill="#e0e0e0" stroke="#999999" points="787,-250 649,-250 649,-231 787,-231 787,-250"/>
<text text-anchor="middle" x="718" y="-238" font-family="Helvetica,sans-Serif" font-size="10.00">libultraship/libultraship.h</text>
</a>
</g>
</g>
<!-- Node3&#45;&gt;Node4 -->
<g id="edge3_Node000003_Node000004" class="edge">
<title>Node3&#45;&gt;Node4</title>
<g id="a_edge3_Node000003_Node000004"><a xlink:title=" ">
<path fill="none" stroke="#63b8ff" d="M841.38,-285.98C817.1,-277.23 779.05,-263.51 751.63,-253.62"/>
<polygon fill="#63b8ff" stroke="#63b8ff" points="752.64,-250.27 742.05,-250.17 750.27,-256.85 752.64,-250.27"/>
</a>
</g>
</g>
<!-- Node5 -->
<g id="Node000005" class="node">
<title>Node5</title>
<g id="a_Node000005"><a xlink:href="CoreMath_8h.html" target="_top" xlink:title=" ">
<polygon fill="white" stroke="#666666" points="113.5,-195 40.5,-195 40.5,-176 113.5,-176 113.5,-195"/>
<text text-anchor="middle" x="77" y="-183" font-family="Helvetica,sans-Serif" font-size="10.00">CoreMath.h</text>
</a>
</g>
</g>
<!-- Node3&#45;&gt;Node5 -->
<g id="edge4_Node000003_Node000005" class="edge">
<title>Node3&#45;&gt;Node5</title>
<g id="a_edge4_Node000003_Node000005"><a xlink:title=" ">
<path fill="none" stroke="#63b8ff" d="M835.49,-291.12C773.85,-283.99 626.95,-266.72 504,-250 365.41,-231.16 201.96,-206.04 123.55,-193.81"/>
<polygon fill="#63b8ff" stroke="#63b8ff" points="123.93,-190.33 113.51,-192.24 122.85,-197.25 123.93,-190.33"/>
</a>
</g>
</g>
<!-- Node3&#45;&gt;Node6 -->
<g id="edge6_Node000003_Node000006" class="edge">
<title>Node3&#45;&gt;Node6</title>
<g id="a_edge6_Node000003_Node000006"><a xlink:title=" ">
<path fill="none" stroke="#63b8ff" d="M835.41,-294.08C767.38,-292.51 602.57,-285.08 562,-250 549.22,-238.95 544.85,-219.7 543.45,-205.28"/>
<polygon fill="#63b8ff" stroke="#63b8ff" points="546.93,-204.79 542.85,-195.01 539.94,-205.19 546.93,-204.79"/>
</a>
</g>
</g>
<!-- Node7 -->
<g id="Node000007" class="node">
<title>Node7</title>
<g id="a_Node000007"><a xlink:href="common__structs_8h.html" target="_top" xlink:title=" ">
<polygon fill="white" stroke="#666666" points="1174.5,-74 1067.5,-74 1067.5,-55 1174.5,-55 1174.5,-74"/>
<text text-anchor="middle" x="1121" y="-62" font-family="Helvetica,sans-Serif" font-size="10.00">common_structs.h</text>
</a>
</g>
</g>
<!-- Node3&#45;&gt;Node7 -->
<g id="edge47_Node000003_Node000007" class="edge">
<title>Node3&#45;&gt;Node7</title>
<g id="a_edge47_Node000003_Node000007"><a xlink:title=" ">
<path fill="none" stroke="#63b8ff" d="M879.56,-285.96C929.07,-256.82 1088.7,-161.86 1104,-140 1115.51,-123.56 1119.35,-100.53 1120.57,-84.45"/>
<polygon fill="#63b8ff" stroke="#63b8ff" points="1124.08,-84.31 1121.07,-74.15 1117.09,-83.97 1124.08,-84.31"/>
</a>
</g>
</g>
<!-- Node3&#45;&gt;Node8 -->
<g id="edge10_Node000003_Node000008" class="edge">
<title>Node3&#45;&gt;Node8</title>
<g id="a_edge10_Node000003_Node000008"><a xlink:title=" ">
<path fill="none" stroke="#63b8ff" d="M835.3,-294.57C777.53,-293.81 646.8,-287.65 545,-250 514.25,-238.63 483.13,-216.54 464.19,-201.65"/>
<polygon fill="#63b8ff" stroke="#63b8ff" points="466.15,-198.73 456.17,-195.19 461.76,-204.19 466.15,-198.73"/>
</a>
</g>
</g>
<!-- Node3&#45;&gt;Node14 -->
<g id="edge19_Node000003_Node000014" class="edge">
<title>Node3&#45;&gt;Node14</title>
<g id="a_edge19_Node000003_Node000014"><a xlink:title=" ">
<path fill="none" stroke="#63b8ff" d="M894.5,-290.39C956.19,-281.78 1099.95,-261.73 1182.92,-250.16"/>
<polygon fill="#63b8ff" stroke="#63b8ff" points="1183.56,-253.6 1192.98,-248.76 1182.59,-246.67 1183.56,-253.6"/>
</a>
</g>
</g>
<!-- Node17 -->
<g id="Node000017" class="node">
<title>Node17</title>
<g id="a_Node000017"><a xlink:href="defines_8h.html" target="_top" xlink:title=" ">
<polygon fill="white" stroke="#666666" points="866.5,-250 805.5,-250 805.5,-231 866.5,-231 866.5,-250"/>
<text text-anchor="middle" x="836" y="-238" font-family="Helvetica,sans-Serif" font-size="10.00">defines.h</text>
</a>
</g>
</g>
<!-- Node3&#45;&gt;Node17 -->
<g id="edge27_Node000003_Node000017" class="edge">
<title>Node3&#45;&gt;Node17</title>
<g id="a_edge27_Node000003_Node000017"><a xlink:title=" ">
<path fill="none" stroke="#63b8ff" d="M860.21,-285.75C856.24,-278.49 850.47,-267.95 845.57,-258.98"/>
<polygon fill="#63b8ff" stroke="#63b8ff" points="848.57,-257.18 840.7,-250.09 842.43,-260.54 848.57,-257.18"/>
</a>
</g>
</g>
<!-- Node18 -->
<g id="Node000018" class="node">
<title>Node18</title>
<g id="a_Node000018"><a xlink:href="bomb__kart_8h.html" target="_top" xlink:title=" ">
<polygon fill="white" stroke="#666666" points="904.5,-195 827.5,-195 827.5,-176 904.5,-176 904.5,-195"/>
<text text-anchor="middle" x="866" y="-183" font-family="Helvetica,sans-Serif" font-size="10.00">bomb_kart.h</text>
</a>
</g>
</g>
<!-- Node3&#45;&gt;Node18 -->
<g id="edge28_Node000003_Node000018" class="edge">
<title>Node3&#45;&gt;Node18</title>
<g id="a_edge28_Node000003_Node000018"><a xlink:title=" ">
<path fill="none" stroke="#63b8ff" d="M867.83,-285.75C870.55,-276.86 874.46,-262.64 876,-250 877.86,-234.75 874.82,-217.54 871.62,-204.88"/>
<polygon fill="#63b8ff" stroke="#63b8ff" points="874.95,-203.79 868.89,-195.1 868.21,-205.67 874.95,-203.79"/>
</a>
</g>
</g>
<!-- Node3&#45;&gt;Node21 -->
<g id="edge35_Node000003_Node000021" class="edge">
<title>Node3&#45;&gt;Node21</title>
<g id="a_edge35_Node000003_Node000021"><a xlink:title=" ">
<path fill="none" stroke="#63b8ff" d="M894.52,-286.79C929.01,-277.79 986.36,-262.81 1025.61,-252.57"/>
<polygon fill="#63b8ff" stroke="#63b8ff" points="1026.63,-255.92 1035.42,-250.01 1024.86,-249.15 1026.63,-255.92"/>
</a>
</g>
</g>
<!-- Node22 -->
<g id="Node000022" class="node">
<title>Node22</title>
<g id="a_Node000022"><a xlink:href="waypoints_8h.html" target="_top" xlink:title=" ">
<polygon fill="white" stroke="#666666" points="1162,-195 1086,-195 1086,-176 1162,-176 1162,-195"/>
<text text-anchor="middle" x="1124" y="-183" font-family="Helvetica,sans-Serif" font-size="10.00">waypoints.h</text>
</a>
</g>
</g>
<!-- Node3&#45;&gt;Node22 -->
<g id="edge45_Node000003_Node000022" class="edge">
<title>Node3&#45;&gt;Node22</title>
<g id="a_edge45_Node000003_Node000022"><a xlink:title=" ">
<path fill="none" stroke="#63b8ff" d="M894.85,-294.44C960.46,-293.59 1113.92,-287.56 1146,-250 1157.31,-236.75 1147.95,-217.36 1138.18,-203.5"/>
<polygon fill="#63b8ff" stroke="#63b8ff" points="1140.76,-201.12 1131.91,-195.3 1135.2,-205.37 1140.76,-201.12"/>
</a>
</g>
</g>
<!-- Node24 -->
<g id="Node000024" class="node">
<title>Node24</title>
<g id="a_Node000024"><a xlink:href="sounds_8h.html" target="_top" xlink:title=" ">
<polygon fill="white" stroke="#666666" points="631,-250 571,-250 571,-231 631,-231 631,-250"/>
<text text-anchor="middle" x="601" y="-238" font-family="Helvetica,sans-Serif" font-size="10.00">sounds.h</text>
</a>
</g>
</g>
<!-- Node3&#45;&gt;Node24 -->
<g id="edge46_Node000003_Node000024" class="edge">
<title>Node3&#45;&gt;Node24</title>
<g id="a_edge46_Node000003_Node000024"><a xlink:title=" ">
<path fill="none" stroke="#63b8ff" d="M835.48,-288.85C794.29,-280.93 716.99,-265.91 641.39,-250.26"/>
<polygon fill="#63b8ff" stroke="#63b8ff" points="641.72,-246.75 631.22,-248.15 640.3,-253.61 641.72,-246.75"/>
</a>
</g>
</g>
<!-- Node5&#45;&gt;Node2 -->
<g id="edge5_Node000005_Node000002" class="edge">
<title>Node5&#45;&gt;Node2</title>
<g id="a_edge5_Node000005_Node000002"><a xlink:title=" ">
<path fill="none" stroke="#63b8ff" d="M59.23,-175.96C45.99,-168.51 28.88,-156.33 21,-140 14.29,-126.1 18.97,-61.4 25,-55 63.14,-14.56 227.65,-9.54 311.88,-9.71"/>
<polygon fill="#63b8ff" stroke="#63b8ff" points="311.97,-13.21 321.99,-9.76 312,-6.21 311.97,-13.21"/>
</a>
</g>
</g>
<!-- Node6&#45;&gt;Node2 -->
<g id="edge7_Node000006_Node000002" class="edge">
<title>Node6&#45;&gt;Node2</title>
<g id="a_edge7_Node000006_Node000002"><a xlink:title=" ">
<path fill="none" stroke="#63b8ff" d="M511.62,-177.44C508.72,-176.91 505.81,-176.41 503,-176 455.68,-169.01 106.38,-175.21 74,-140 48.43,-112.19 49.41,-83.68 74,-55 104.04,-19.97 237.5,-12.27 311.74,-10.73"/>
<polygon fill="#63b8ff" stroke="#63b8ff" points="311.87,-14.23 321.81,-10.56 311.75,-7.23 311.87,-14.23"/>
</a>
</g>
</g>
<!-- Node6&#45;&gt;Node7 -->
<g id="edge8_Node000006_Node000007" class="edge">
<title>Node6&#45;&gt;Node7</title>
<g id="a_edge8_Node000006_Node000007"><a xlink:title=" ">
<path fill="none" stroke="#63b8ff" d="M574.22,-182.96C677.24,-177.69 1002.29,-159.69 1045,-140 1052.41,-136.59 1085.75,-102.44 1105.73,-81.58"/>
<polygon fill="#63b8ff" stroke="#63b8ff" points="1108.51,-83.73 1112.89,-74.08 1103.45,-78.9 1108.51,-83.73"/>
</a>
</g>
</g>
<!-- Node7&#45;&gt;Node2 -->
<g id="edge9_Node000007_Node000002" class="edge">
<title>Node7&#45;&gt;Node2</title>
<g id="a_edge9_Node000007_Node000002"><a xlink:title=" ">
<path fill="none" stroke="#63b8ff" d="M1067.33,-59.75C926.81,-49.94 549.56,-23.6 412.58,-14.03"/>
<polygon fill="#63b8ff" stroke="#63b8ff" points="412.6,-10.52 402.38,-13.32 412.11,-17.51 412.6,-10.52"/>
</a>
</g>
</g>
<!-- Node8&#45;&gt;Node2 -->
<g id="edge11_Node000008_Node000002" class="edge">
<title>Node8&#45;&gt;Node2</title>
<g id="a_edge11_Node000008_Node000002"><a xlink:title=" ">
<path fill="none" stroke="#63b8ff" d="M397.81,-182.75C295.6,-178.53 64.46,-166.17 41,-140 15.79,-111.87 16.19,-83.49 41,-55 75.51,-15.38 230.51,-9.89 311.83,-9.81"/>
<polygon fill="#63b8ff" stroke="#63b8ff" points="311.84,-13.31 321.85,-9.83 311.85,-6.31 311.84,-13.31"/>
</a>
</g>
</g>
<!-- Node9 -->
<g id="Node000009" class="node">
<title>Node9</title>
<g id="a_Node000009"><a xlink:title=" ">
<polygon fill="#e0e0e0" stroke="#999999" points="90,-19 0,-19 0,0 90,0 90,-19"/>
<text text-anchor="middle" x="45" y="-7" font-family="Helvetica,sans-Serif" font-size="10.00">libultra/types.h</text>
</a>
</g>
</g>
<!-- Node8&#45;&gt;Node9 -->
<g id="edge12_Node000008_Node000009" class="edge">
<title>Node8&#45;&gt;Node9</title>
<g id="a_edge12_Node000008_Node000009"><a xlink:title=" ">
<path fill="none" stroke="#63b8ff" d="M397.85,-183.01C291.87,-179.25 45.86,-167.6 21,-140 -7.21,-108.68 17.66,-55.31 33.78,-27.89"/>
<polygon fill="#63b8ff" stroke="#63b8ff" points="36.96,-29.4 39.22,-19.05 31,-25.74 36.96,-29.4"/>
</a>
</g>
</g>
<!-- Node10 -->
<g id="Node000010" class="node">
<title>Node10</title>
<g id="a_Node000010"><a xlink:title=" ">
<polygon fill="#e0e0e0" stroke="#999999" points="480,-74 402,-74 402,-55 480,-55 480,-74"/>
<text text-anchor="middle" x="441" y="-62" font-family="Helvetica,sans-Serif" font-size="10.00">libultra/gbi.h</text>
</a>
</g>
</g>
<!-- Node8&#45;&gt;Node10 -->
<g id="edge13_Node000008_Node000010" class="edge">
<title>Node8&#45;&gt;Node10</title>
<g id="a_edge13_Node000008_Node000010"><a xlink:title=" ">
<path fill="none" stroke="#63b8ff" d="M445.64,-175.94C444.84,-156.91 442.9,-110.69 441.8,-84.47"/>
<polygon fill="#63b8ff" stroke="#63b8ff" points="445.29,-84.15 441.37,-74.3 438.29,-84.44 445.29,-84.15"/>
</a>
</g>
</g>
<!-- Node11 -->
<g id="Node000011" class="node">
<title>Node11</title>
<g id="a_Node000011"><a xlink:href="other__textures_8h.html" target="_top" xlink:title=" ">
<polygon fill="white" stroke="#666666" points="942.5,-134.5 811.5,-134.5 811.5,-115.5 942.5,-115.5 942.5,-134.5"/>
<text text-anchor="middle" x="877" y="-122.5" font-family="Helvetica,sans-Serif" font-size="10.00">assets/other_textures.h</text>
</a>
</g>
</g>
<!-- Node8&#45;&gt;Node11 -->
<g id="edge14_Node000008_Node000011" class="edge">
<title>Node8&#45;&gt;Node11</title>
<g id="a_edge14_Node000008_Node000011"><a xlink:title=" ">
<path fill="none" stroke="#63b8ff" d="M494.19,-177.22C497.17,-176.8 500.12,-176.39 503,-176 635.65,-158.13 669.7,-160.29 802,-140 809.11,-138.91 816.58,-137.65 823.94,-136.35"/>
<polygon fill="#63b8ff" stroke="#63b8ff" points="824.64,-139.78 833.85,-134.55 823.39,-132.89 824.64,-139.78"/>
</a>
</g>
</g>
<!-- Node13 -->
<g id="Node000013" class="node">
<title>Node13</title>
<g id="a_Node000013"><a xlink:href="animation_8h.html" target="_top" xlink:title=" ">
<polygon fill="white" stroke="#666666" points="1035.5,-134.5 960.5,-134.5 960.5,-115.5 1035.5,-115.5 1035.5,-134.5"/>
<text text-anchor="middle" x="998" y="-122.5" font-family="Helvetica,sans-Serif" font-size="10.00">animation.h</text>
</a>
</g>
</g>
<!-- Node8&#45;&gt;Node13 -->
<g id="edge17_Node000008_Node000013" class="edge">
<title>Node8&#45;&gt;Node13</title>
<g id="a_edge17_Node000008_Node000013"><a xlink:title=" ">
<path fill="none" stroke="#63b8ff" d="M494.17,-177.08C497.16,-176.69 500.12,-176.33 503,-176 701.9,-153.22 755.32,-177.36 952,-140 955.86,-139.27 959.85,-138.33 963.8,-137.29"/>
<polygon fill="#63b8ff" stroke="#63b8ff" points="964.76,-140.66 973.42,-134.55 962.84,-133.92 964.76,-140.66"/>
</a>
</g>
</g>
<!-- Node11&#45;&gt;Node2 -->
<g id="edge15_Node000011_Node000002" class="edge">
<title>Node11&#45;&gt;Node2</title>
<g id="a_edge15_Node000011_Node000002"><a xlink:title=" ">
<path fill="none" stroke="#63b8ff" d="M855.61,-115.46C818.45,-100.93 739.3,-71.42 670,-55 580.54,-33.81 473.94,-21.13 412.5,-15.01"/>
<polygon fill="#63b8ff" stroke="#63b8ff" points="412.59,-11.5 402.3,-14.01 411.91,-18.47 412.59,-11.5"/>
</a>
</g>
</g>
<!-- Node12 -->
<g id="Node000012" class="node">
<title>Node12</title>
<g id="a_Node000012"><a xlink:href="align__asset__macro_8h.html" target="_top" xlink:title=" ">
<polygon fill="white" stroke="#666666" points="615.5,-74 498.5,-74 498.5,-55 615.5,-55 615.5,-74"/>
<text text-anchor="middle" x="557" y="-62" font-family="Helvetica,sans-Serif" font-size="10.00">align_asset_macro.h</text>
</a>
</g>
</g>
<!-- Node11&#45;&gt;Node12 -->
<g id="edge16_Node000011_Node000012" class="edge">
<title>Node11&#45;&gt;Node12</title>
<g id="a_edge16_Node000011_Node000012"><a xlink:title=" ">
<path fill="none" stroke="#63b8ff" d="M831.4,-115.45C821.69,-113.64 811.51,-111.75 802,-110 737.76,-98.17 664.01,-84.8 614.35,-75.83"/>
<polygon fill="#63b8ff" stroke="#63b8ff" points="614.9,-72.38 604.44,-74.05 613.66,-79.27 614.9,-72.38"/>
</a>
</g>
</g>
<!-- Node13&#45;&gt;Node7 -->
<g id="edge18_Node000013_Node000007" class="edge">
<title>Node13&#45;&gt;Node7</title>
<g id="a_edge18_Node000013_Node000007"><a xlink:title=" ">
<path fill="none" stroke="#63b8ff" d="M1015.89,-115.49C1036.38,-105.75 1070.19,-89.66 1093.92,-78.38"/>
<polygon fill="#63b8ff" stroke="#63b8ff" points="1095.57,-81.47 1103.09,-74.02 1092.56,-75.15 1095.57,-81.47"/>
</a>
</g>
</g>
<!-- Node14&#45;&gt;Node10 -->
<g id="edge20_Node000014_Node000010" class="edge">
<title>Node14&#45;&gt;Node10</title>
<g id="a_edge20_Node000014_Node000010"><a xlink:title=" ">
<path fill="none" stroke="#63b8ff" d="M1238.36,-230.95C1226.6,-216.55 1200.53,-187.86 1171,-176 1034.49,-121.19 643.15,-202.53 510,-140 484.15,-127.86 463.38,-101.25 451.62,-83.35"/>
<polygon fill="#63b8ff" stroke="#63b8ff" points="454.32,-81.05 446.04,-74.44 448.38,-84.77 454.32,-81.05"/>
</a>
</g>
</g>
<!-- Node14&#45;&gt;Node11 -->
<g id="edge23_Node000014_Node000011" class="edge">
<title>Node14&#45;&gt;Node11</title>
<g id="a_edge23_Node000014_Node000011"><a xlink:title=" ">
<path fill="none" stroke="#63b8ff" d="M1242.09,-230.81C1236.88,-216.72 1224.55,-189.16 1204,-176 1108.73,-114.98 1063.63,-158.38 952,-140 945.24,-138.89 938.15,-137.65 931.13,-136.39"/>
<polygon fill="#63b8ff" stroke="#63b8ff" points="931.43,-132.89 920.97,-134.53 930.17,-139.77 931.43,-132.89"/>
</a>
</g>
</g>
<!-- Node15 -->
<g id="Node000015" class="node">
<title>Node15</title>
<g id="a_Node000015"><a xlink:href="spline_8h.html" target="_top" xlink:title=" ">
<polygon fill="white" stroke="#666666" points="1299.5,-134.5 1244.5,-134.5 1244.5,-115.5 1299.5,-115.5 1299.5,-134.5"/>
<text text-anchor="middle" x="1272" y="-122.5" font-family="Helvetica,sans-Serif" font-size="10.00">spline.h</text>
</a>
</g>
</g>
<!-- Node14&#45;&gt;Node15 -->
<g id="edge21_Node000014_Node000015" class="edge">
<title>Node14&#45;&gt;Node15</title>
<g id="a_edge21_Node000014_Node000015"><a xlink:title=" ">
<path fill="none" stroke="#63b8ff" d="M1247.03,-230.97C1251.37,-212.73 1261.64,-169.57 1267.56,-144.64"/>
<polygon fill="#63b8ff" stroke="#63b8ff" points="1271.04,-145.17 1269.95,-134.63 1264.23,-143.55 1271.04,-145.17"/>
</a>
</g>
</g>
<!-- Node14&#45;&gt;Node16 -->
<g id="edge24_Node000014_Node000016" class="edge">
<title>Node14&#45;&gt;Node16</title>
<g id="a_edge24_Node000014_Node000016"><a xlink:title=" ">
<path fill="none" stroke="#63b8ff" d="M1257.85,-230.98C1270.14,-222.84 1288.91,-210.41 1303.48,-200.76"/>
<polygon fill="#63b8ff" stroke="#63b8ff" points="1305.51,-203.61 1311.91,-195.17 1301.64,-197.78 1305.51,-203.61"/>
</a>
</g>
</g>
<!-- Node15&#45;&gt;Node7 -->
<g id="edge22_Node000015_Node000007" class="edge">
<title>Node15&#45;&gt;Node7</title>
<g id="a_edge22_Node000015_Node000007"><a xlink:title=" ">
<path fill="none" stroke="#63b8ff" d="M1250.04,-115.49C1224.32,-105.53 1181.52,-88.95 1152.32,-77.63"/>
<polygon fill="#63b8ff" stroke="#63b8ff" points="1153.57,-74.37 1142.98,-74.02 1151.04,-80.89 1153.57,-74.37"/>
</a>
</g>
</g>
<!-- Node16&#45;&gt;Node7 -->
<g id="edge26_Node000016_Node000007" class="edge">
<title>Node16&#45;&gt;Node7</title>
<g id="a_edge26_Node000016_Node000007"><a xlink:title=" ">
<path fill="none" stroke="#63b8ff" d="M1325.86,-175.78C1326.88,-160.3 1326.59,-127.96 1309,-110 1291.75,-92.38 1232.29,-80.32 1184.8,-73.25"/>
<polygon fill="#63b8ff" stroke="#63b8ff" points="1185.27,-69.78 1174.87,-71.81 1184.27,-76.71 1185.27,-69.78"/>
</a>
</g>
</g>
<!-- Node16&#45;&gt;Node15 -->
<g id="edge25_Node000016_Node000015" class="edge">
<title>Node16&#45;&gt;Node15</title>
<g id="a_edge25_Node000016_Node000015"><a xlink:title=" ">
<path fill="none" stroke="#63b8ff" d="M1317.18,-175.87C1309.19,-167.05 1296.61,-153.16 1286.74,-142.27"/>
<polygon fill="#63b8ff" stroke="#63b8ff" points="1289.16,-139.73 1279.85,-134.67 1283.97,-144.43 1289.16,-139.73"/>
</a>
</g>
</g>
<!-- Node18&#45;&gt;Node7 -->
<g id="edge29_Node000018_Node000007" class="edge">
<title>Node18&#45;&gt;Node7</title>
<g id="a_edge29_Node000018_Node000007"><a xlink:title=" ">
<path fill="none" stroke="#63b8ff" d="M904.96,-178.09C962.28,-168.4 1064.11,-150.07 1078,-140 1097.13,-126.14 1109.03,-100.97 1115.34,-83.75"/>
<polygon fill="#63b8ff" stroke="#63b8ff" points="1118.67,-84.83 1118.56,-74.23 1112.04,-82.58 1118.67,-84.83"/>
</a>
</g>
</g>
<!-- Node19 -->
<g id="Node000019" class="node">
<title>Node19</title>
<g id="a_Node000019"><a xlink:href="mk64_8h.html" target="_top" xlink:title=" ">
<polygon fill="white" stroke="#666666" points="136.5,-134.5 83.5,-134.5 83.5,-115.5 136.5,-115.5 136.5,-134.5"/>
<text text-anchor="middle" x="110" y="-122.5" font-family="Helvetica,sans-Serif" font-size="10.00">mk64.h</text>
</a>
</g>
</g>
<!-- Node18&#45;&gt;Node19 -->
<g id="edge30_Node000018_Node000019" class="edge">
<title>Node18&#45;&gt;Node19</title>
<g id="a_edge30_Node000018_Node000019"><a xlink:title=" ">
<path fill="none" stroke="#63b8ff" d="M827.08,-183.68C696.94,-180.67 277.65,-168.93 146,-140 143.48,-139.45 140.9,-138.74 138.34,-137.95"/>
<polygon fill="#63b8ff" stroke="#63b8ff" points="139.31,-134.58 128.72,-134.54 136.97,-141.17 139.31,-134.58"/>
</a>
</g>
</g>
<!-- Node19&#45;&gt;Node2 -->
<g id="edge31_Node000019_Node000002" class="edge">
<title>Node19&#45;&gt;Node2</title>
<g id="a_edge31_Node000019_Node000002"><a xlink:title=" ">
<path fill="none" stroke="#63b8ff" d="M128.94,-115.47C172.81,-95.71 281.61,-46.71 333.54,-23.32"/>
<polygon fill="#63b8ff" stroke="#63b8ff" points="335.16,-26.43 342.84,-19.13 332.28,-20.05 335.16,-26.43"/>
</a>
</g>
</g>
<!-- Node19&#45;&gt;Node10 -->
<g id="edge34_Node000019_Node000010" class="edge">
<title>Node19&#45;&gt;Node10</title>
<g id="a_edge34_Node000019_Node000010"><a xlink:title=" ">
<path fill="none" stroke="#63b8ff" d="M129.54,-115.5C134.81,-113.46 140.56,-111.45 146,-110 230.75,-87.43 332.45,-75.25 391.6,-69.59"/>
<polygon fill="#63b8ff" stroke="#63b8ff" points="392.15,-73.05 401.78,-68.64 391.5,-66.08 392.15,-73.05"/>
</a>
</g>
</g>
<!-- Node20 -->
<g id="Node000020" class="node">
<title>Node20</title>
<g id="a_Node000020"><a xlink:href="string_8h.html" target="_top" xlink:title=" ">
<polygon fill="white" stroke="#666666" points="136.5,-74 83.5,-74 83.5,-55 136.5,-55 136.5,-74"/>
<text text-anchor="middle" x="110" y="-62" font-family="Helvetica,sans-Serif" font-size="10.00">string.h</text>
</a>
</g>
</g>
<!-- Node19&#45;&gt;Node20 -->
<g id="edge32_Node000019_Node000020" class="edge">
<title>Node19&#45;&gt;Node20</title>
<g id="a_edge32_Node000019_Node000020"><a xlink:title=" ">
<path fill="none" stroke="#63b8ff" d="M110,-115.37C110,-107.25 110,-94.81 110,-84.39"/>
<polygon fill="#63b8ff" stroke="#63b8ff" points="113.5,-84.17 110,-74.17 106.5,-84.17 113.5,-84.17"/>
</a>
</g>
</g>
<!-- Node20&#45;&gt;Node9 -->
<g id="edge33_Node000020_Node000009" class="edge">
<title>Node20&#45;&gt;Node9</title>
<g id="a_edge33_Node000020_Node000009"><a xlink:title=" ">
<path fill="none" stroke="#63b8ff" d="M99.56,-54.98C89.85,-47.07 75.18,-35.11 63.5,-25.58"/>
<polygon fill="#63b8ff" stroke="#63b8ff" points="65.6,-22.78 55.63,-19.17 61.17,-28.2 65.6,-22.78"/>
</a>
</g>
</g>
<!-- Node21&#45;&gt;Node7 -->
<g id="edge38_Node000021_Node000007" class="edge">
<title>Node21&#45;&gt;Node7</title>
<g id="a_edge38_Node000021_Node000007"><a xlink:title=" ">
<path fill="none" stroke="#63b8ff" d="M1066.8,-230.73C1065.48,-217.51 1064.94,-192.29 1077,-176 1099.47,-145.63 1133.72,-171.87 1154,-140 1165.92,-121.27 1150.82,-97.51 1137.35,-81.92"/>
<polygon fill="#63b8ff" stroke="#63b8ff" points="1139.57,-79.16 1130.22,-74.19 1134.43,-83.91 1139.57,-79.16"/>
</a>
</g>
</g>
<!-- Node21&#45;&gt;Node18 -->
<g id="edge44_Node000021_Node000018" class="edge">
<title>Node21&#45;&gt;Node18</title>
<g id="a_edge44_Node000021_Node000018"><a xlink:title=" ">
<path fill="none" stroke="#63b8ff" d="M1035.55,-230.98C1001.04,-221.93 946.34,-207.58 908.44,-197.64"/>
<polygon fill="#63b8ff" stroke="#63b8ff" points="909.27,-194.23 898.71,-195.08 907.49,-201.01 909.27,-194.23"/>
</a>
</g>
</g>
<!-- Node21&#45;&gt;Node22 -->
<g id="edge36_Node000021_Node000022" class="edge">
<title>Node21&#45;&gt;Node22</title>
<g id="a_edge36_Node000021_Node000022"><a xlink:title=" ">
<path fill="none" stroke="#63b8ff" d="M1077,-230.98C1085.19,-223.23 1097.51,-211.58 1107.47,-202.14"/>
<polygon fill="#63b8ff" stroke="#63b8ff" points="1109.98,-204.59 1114.84,-195.17 1105.17,-199.5 1109.98,-204.59"/>
</a>
</g>
</g>
<!-- Node23 -->
<g id="Node000023" class="node">
<title>Node23</title>
<g id="a_Node000023"><a xlink:href="common__data_8h.html" target="_top" xlink:title=" ">
<polygon fill="white" stroke="#666666" points="793,-134.5 663,-134.5 663,-115.5 793,-115.5 793,-134.5"/>
<text text-anchor="middle" x="728" y="-122.5" font-family="Helvetica,sans-Serif" font-size="10.00">assets/common_data.h</text>
</a>
</g>
</g>
<!-- Node21&#45;&gt;Node23 -->
<g id="edge39_Node000021_Node000023" class="edge">
<title>Node21&#45;&gt;Node23</title>
<g id="a_edge39_Node000021_Node000023"><a xlink:title=" ">
<path fill="none" stroke="#63b8ff" d="M1059.68,-230.96C1045.65,-217.09 1015.78,-189.84 985,-176 980.38,-173.92 857.44,-150.47 783.3,-136.43"/>
<polygon fill="#63b8ff" stroke="#63b8ff" points="783.66,-132.94 773.18,-134.52 782.36,-139.82 783.66,-132.94"/>
</a>
</g>
</g>
<!-- Node22&#45;&gt;Node7 -->
<g id="edge37_Node000022_Node000007" class="edge">
<title>Node22&#45;&gt;Node7</title>
<g id="a_edge37_Node000022_Node000007"><a xlink:title=" ">
<path fill="none" stroke="#63b8ff" d="M1147.78,-175.92C1163.43,-168.89 1182.67,-157.25 1192,-140 1198.34,-128.27 1198.46,-121.67 1192,-110 1184.16,-95.83 1169.71,-85.57 1155.89,-78.5"/>
<polygon fill="#63b8ff" stroke="#63b8ff" points="1157.05,-75.18 1146.51,-74.1 1154.08,-81.52 1157.05,-75.18"/>
</a>
</g>
</g>
<!-- Node23&#45;&gt;Node2 -->
<g id="edge41_Node000023_Node000002" class="edge">
<title>Node23&#45;&gt;Node2</title>
<g id="a_edge41_Node000023_Node000002"><a xlink:title=" ">
<path fill="none" stroke="#63b8ff" d="M719.87,-115.07C705.54,-99.96 674.18,-69.59 641,-55 565.97,-22 470.02,-13.12 412.43,-10.93"/>
<polygon fill="#63b8ff" stroke="#63b8ff" points="412.24,-7.43 402.13,-10.6 412.01,-14.42 412.24,-7.43"/>
</a>
</g>
</g>
<!-- Node23&#45;&gt;Node7 -->
<g id="edge42_Node000023_Node000007" class="edge">
<title>Node23&#45;&gt;Node7</title>
<g id="a_edge42_Node000023_Node000007"><a xlink:title=" ">
<path fill="none" stroke="#63b8ff" d="M771.96,-115.45C782.14,-113.56 792.93,-111.64 803,-110 891,-95.64 993.17,-81.85 1057.45,-73.53"/>
<polygon fill="#63b8ff" stroke="#63b8ff" points="1057.97,-76.99 1067.44,-72.24 1057.07,-70.05 1057.97,-76.99"/>
</a>
</g>
</g>
<!-- Node23&#45;&gt;Node10 -->
<g id="edge40_Node000023_Node000010" class="edge">
<title>Node23&#45;&gt;Node10</title>
<g id="a_edge40_Node000023_Node000010"><a xlink:title=" ">
<path fill="none" stroke="#63b8ff" d="M686.27,-115.49C634.16,-104.87 545.18,-86.74 489.93,-75.47"/>
<polygon fill="#63b8ff" stroke="#63b8ff" points="490.52,-72.02 480.02,-73.45 489.12,-78.88 490.52,-72.02"/>
</a>
</g>
</g>
<!-- Node23&#45;&gt;Node12 -->
<g id="edge43_Node000023_Node000012" class="edge">
<title>Node23&#45;&gt;Node12</title>
<g id="a_edge43_Node000023_Node000012"><a xlink:title=" ">
<path fill="none" stroke="#63b8ff" d="M703.14,-115.49C673.75,-105.44 624.69,-88.66 591.61,-77.34"/>
<polygon fill="#63b8ff" stroke="#63b8ff" points="592.49,-73.94 581.89,-74.02 590.22,-80.57 592.49,-73.94"/>
</a>
</g>
</g>
<!-- Node25&#45;&gt;Node2 -->
<g id="edge49_Node000025_Node000002" class="edge">
<title>Node25&#45;&gt;Node2</title>
<g id="a_edge49_Node000025_Node000002"><a xlink:title=" ">
<path fill="none" stroke="#63b8ff" d="M235.95,-109.85C263.16,-88.41 314.65,-47.82 342.66,-25.74"/>
<polygon fill="#63b8ff" stroke="#63b8ff" points="345.19,-28.21 350.87,-19.27 340.85,-22.71 345.19,-28.21"/>
</a>
</g>
</g>
<!-- Node25&#45;&gt;Node10 -->
<g id="edge50_Node000025_Node000010" class="edge">
<title>Node25&#45;&gt;Node10</title>
<g id="a_edge50_Node000025_Node000010"><a xlink:title=" ">
<path fill="none" stroke="#63b8ff" d="M271.41,-109.99C310.4,-99.76 362.53,-86.09 398.65,-76.61"/>
<polygon fill="#63b8ff" stroke="#63b8ff" points="399.61,-79.98 408.39,-74.05 397.83,-73.21 399.61,-79.98"/>
</a>
</g>
</g>
<!-- Node25&#45;&gt;Node12 -->
<g id="edge51_Node000025_Node000012" class="edge">
<title>Node25&#45;&gt;Node12</title>
<g id="a_edge51_Node000025_Node000012"><a xlink:title=" ">
<path fill="none" stroke="#63b8ff" d="M281.2,-111.61C284.17,-111.06 287.12,-110.52 290,-110 359.3,-97.49 438.95,-84.38 493.09,-75.66"/>
<polygon fill="#63b8ff" stroke="#63b8ff" points="493.91,-79.07 503.23,-74.03 492.8,-72.16 493.91,-79.07"/>
</a>
</g>
</g>
<!-- Node26&#45;&gt;Node2 -->
<g id="edge53_Node000026_Node000002" class="edge">
<title>Node26&#45;&gt;Node2</title>
<g id="a_edge53_Node000026_Node000002"><a xlink:title=" ">
<path fill="none" stroke="#63b8ff" d="M362,-109.63C362,-89.21 362,-51.81 362,-29.24"/>
<polygon fill="#63b8ff" stroke="#63b8ff" points="365.5,-29.23 362,-19.23 358.5,-29.23 365.5,-29.23"/>
</a>
</g>
</g>
<!-- Node26&#45;&gt;Node10 -->
<g id="edge54_Node000026_Node000010" class="edge">
<title>Node26&#45;&gt;Node10</title>
<g id="a_edge54_Node000026_Node000010"><a xlink:title=" ">
<path fill="none" stroke="#63b8ff" d="M381.12,-109.84C393.18,-100.91 408.71,-89.41 420.94,-80.35"/>
<polygon fill="#63b8ff" stroke="#63b8ff" points="423.21,-83.03 429.16,-74.27 419.04,-77.4 423.21,-83.03"/>
</a>
</g>
</g>
<!-- Node26&#45;&gt;Node12 -->
<g id="edge55_Node000026_Node000012" class="edge">
<title>Node26&#45;&gt;Node12</title>
<g id="a_edge55_Node000026_Node000012"><a xlink:title=" ">
<path fill="none" stroke="#63b8ff" d="M408.71,-109.99C442.36,-99.89 487.21,-86.44 518.75,-76.98"/>
<polygon fill="#63b8ff" stroke="#63b8ff" points="519.92,-80.28 528.49,-74.05 517.9,-73.57 519.92,-80.28"/>
</a>
</g>
</g>
<!-- Node27&#45;&gt;Node2 -->
<g id="edge57_Node000027_Node000002" class="edge">
<title>Node27&#45;&gt;Node2</title>
<g id="a_edge57_Node000027_Node000002"><a xlink:title=" ">
<path fill="none" stroke="#63b8ff" d="M601.1,-109.99C618.62,-95.46 639.76,-72.47 625,-55 598.31,-23.42 480.87,-14.24 412.29,-11.58"/>
<polygon fill="#63b8ff" stroke="#63b8ff" points="412.25,-8.08 402.13,-11.22 412,-15.07 412.25,-8.08"/>
</a>
</g>
</g>
<!-- Node27&#45;&gt;Node10 -->
<g id="edge58_Node000027_Node000010" class="edge">
<title>Node27&#45;&gt;Node10</title>
<g id="a_edge58_Node000027_Node000010"><a xlink:title=" ">
<path fill="none" stroke="#63b8ff" d="M548.23,-109.99C524.81,-100.27 493.88,-87.44 471.27,-78.06"/>
<polygon fill="#63b8ff" stroke="#63b8ff" points="472.4,-74.74 461.82,-74.14 469.72,-81.2 472.4,-74.74"/>
</a>
</g>
</g>
<!-- Node27&#45;&gt;Node12 -->
<g id="edge59_Node000027_Node000012" class="edge">
<title>Node27&#45;&gt;Node12</title>
<g id="a_edge59_Node000027_Node000012"><a xlink:title=" ">
<path fill="none" stroke="#63b8ff" d="M575.95,-109.84C572.58,-101.95 568.35,-92.05 564.74,-83.61"/>
<polygon fill="#63b8ff" stroke="#63b8ff" points="567.89,-82.09 560.75,-74.27 561.46,-84.84 567.89,-82.09"/>
</a>
</g>
</g>
</g>
</svg>

<g id="navigator" transform="translate(0 0)" fill="#404254">
  <rect fill="#f2f5e9" fill-opacity="0.5" stroke="#606060" stroke-width=".5" x="0" y="0" width="60" height="60"/>
  <use id="zoomplus" xlink:href="#zoomPlus" x="17" y="9" onmousedown="handleZoom(evt,'in')"/>
  <use id="zoomminus" xlink:href="#zoomMin" x="42" y="9" onmousedown="handleZoom(evt,'out')"/>
  <use id="reset" xlink:href="#resetDef" x="30" y="36" onmousedown="handleReset()"/>
   <use id="arrowup" xlink:href="#arrowUp" x="0" y="0" onmousedown="handlePan(0,-1)"/>
  <use id="arrowright" xlink:href="#arrowRight" x="0" y="0" onmousedown="handlePan(1,0)"/>
  <use id="arrowdown" xlink:href="#arrowDown" x="0" y="0" onmousedown="handlePan(0,1)"/>
  <use id="arrowleft" xlink:href="#arrowLeft" x="0" y="0" onmousedown="handlePan(-1,0)"/>
</g>
<svg viewBox="0 0 15 15" width="100%" height="30px" preserveAspectRatio="xMaxYMin meet">
 <g id="arrow_out" transform="scale(0.3 0.3)">
  <a xlink:href="BowsersCastle_8h__incl_org.svg" target="_base">
   <rect id="button" ry="5" rx="5" y="6" x="6" height="38" width="38"
        fill="#f2f5e9" fill-opacity="0.5" stroke="#606060" stroke-width="1.0"/>
   <path id="arrow"
     d="M 11.500037,31.436501 C 11.940474,20.09759 22.043105,11.32322 32.158766,21.979434 L 37.068811,17.246167 C 37.068811,17.246167 37.088388,32 37.088388,32 L 22.160133,31.978069 C 22.160133,31.978069 26.997745,27.140456 26.997745,27.140456 C 18.528582,18.264221 13.291696,25.230495 11.500037,31.436501 z"
     style="fill:#404040;"/>
  </a>
 </g>
</svg>

<style type='text/css'>
<![CDATA[
[data-mouse-over-selected='false'] { opacity: 0.7; }
[data-mouse-over-selected='true']  { opacity: 1.0; }
]]>
</style>
<script type="application/ecmascript"><![CDATA[
document.addEventListener('DOMContentLoaded', (event) => {
  highlightEdges();
  highlightAdjacentNodes();
});
]]></script>
</svg>
