<?xml version="1.0" encoding="UTF-8" standalone="no"?>
<!DOCTYPE svg PUBLIC "-//W3C//DTD SVG 1.1//EN"
 "http://www.w3.org/Graphics/SVG/1.1/DTD/svg11.dtd">
<!-- Generated by graphviz version 2.43.0 (0)
 -->
<!-- Title: src/engine/objects/CheepCheep.h Pages: 1 -->
<svg width="939pt" height="214pt"
 viewBox="0.00 0.00 939.00 214.00" xmlns="http://www.w3.org/2000/svg" xmlns:xlink="http://www.w3.org/1999/xlink">
<g id="graph0" class="graph" transform="scale(1 1) rotate(0) translate(4 210)">
<title>src/engine/objects/CheepCheep.h</title>
<!-- Node1 -->
<g id="Node000001" class="node">
<title>Node1</title>
<g id="a_Node000001"><a xlink:title=" ">
<polygon fill="#999999" stroke="#666666" points="606,-206 501,-206 501,-176 606,-176 606,-206"/>
<text text-anchor="start" x="509" y="-194" font-family="Helvetica,sans-Serif" font-size="10.00">src/engine/objects</text>
<text text-anchor="middle" x="553.5" y="-183" font-family="Helvetica,sans-Serif" font-size="10.00">/CheepCheep.h</text>
</a>
</g>
</g>
<!-- Node2 -->
<g id="Node000002" class="node">
<title>Node2</title>
<g id="a_Node000002"><a xlink:href="AllActors_8h.html" target="_top" xlink:title=" ">
<polygon fill="white" stroke="#666666" points="262.5,-134.5 140.5,-134.5 140.5,-115.5 262.5,-115.5 262.5,-134.5"/>
<text text-anchor="middle" x="201.5" y="-122.5" font-family="Helvetica,sans-Serif" font-size="10.00">src/engine/AllActors.h</text>
</a>
</g>
</g>
<!-- Node1&#45;&gt;Node2 -->
<g id="edge1_Node000001_Node000002" class="edge">
<title>Node1&#45;&gt;Node2</title>
<g id="a_edge1_Node000001_Node000002"><a xlink:title=" ">
<path fill="none" stroke="#63b8ff" d="M490.97,-179.32C433.78,-169.45 346.86,-154.22 271.5,-140 262.37,-138.28 252.58,-136.36 243.3,-134.52"/>
<polygon fill="#63b8ff" stroke="#63b8ff" points="490.49,-182.79 500.94,-181.04 491.68,-175.89 490.49,-182.79"/>
</a>
</g>
</g>
<!-- Node7 -->
<g id="Node000007" class="node">
<title>Node7</title>
<g id="a_Node000007"><a xlink:href="BansheeBoardwalk_8cpp.html" target="_top" xlink:title=" ">
<polygon fill="white" stroke="#666666" points="414.5,-140 280.5,-140 280.5,-110 414.5,-110 414.5,-140"/>
<text text-anchor="start" x="288.5" y="-128" font-family="Helvetica,sans-Serif" font-size="10.00">src/engine/courses</text>
<text text-anchor="middle" x="347.5" y="-117" font-family="Helvetica,sans-Serif" font-size="10.00">/BansheeBoardwalk.cpp</text>
</a>
</g>
</g>
<!-- Node1&#45;&gt;Node7 -->
<g id="edge7_Node000001_Node000007" class="edge">
<title>Node1&#45;&gt;Node7</title>
<g id="a_edge7_Node000001_Node000007"><a xlink:title=" ">
<path fill="none" stroke="#63b8ff" d="M498.32,-172.86C465.24,-162.58 423.71,-149.68 392.6,-140.01"/>
<polygon fill="#63b8ff" stroke="#63b8ff" points="497.7,-176.33 508.29,-175.95 499.78,-169.65 497.7,-176.33"/>
</a>
</g>
</g>
<!-- Node8 -->
<g id="Node000008" class="node">
<title>Node8</title>
<g id="a_Node000008"><a xlink:href="Harbour_8cpp.html" target="_top" xlink:title=" ">
<polygon fill="white" stroke="#666666" points="540,-140 433,-140 433,-110 540,-110 540,-140"/>
<text text-anchor="start" x="441" y="-128" font-family="Helvetica,sans-Serif" font-size="10.00">src/engine/courses</text>
<text text-anchor="middle" x="486.5" y="-117" font-family="Helvetica,sans-Serif" font-size="10.00">/Harbour.cpp</text>
</a>
</g>
</g>
<!-- Node1&#45;&gt;Node8 -->
<g id="edge8_Node000001_Node000008" class="edge">
<title>Node1&#45;&gt;Node8</title>
<g id="a_edge8_Node000001_Node000008"><a xlink:title=" ">
<path fill="none" stroke="#63b8ff" d="M531.15,-168.65C521.33,-159.27 510.08,-148.53 501.33,-140.16"/>
<polygon fill="#63b8ff" stroke="#63b8ff" points="528.98,-171.42 538.63,-175.8 533.82,-166.36 528.98,-171.42"/>
</a>
</g>
</g>
<!-- Node9 -->
<g id="Node000009" class="node">
<title>Node9</title>
<g id="a_Node000009"><a xlink:href="PodiumCeremony_8cpp.html" target="_top" xlink:title=" ">
<polygon fill="white" stroke="#666666" points="683,-140 558,-140 558,-110 683,-110 683,-140"/>
<text text-anchor="start" x="566" y="-128" font-family="Helvetica,sans-Serif" font-size="10.00">src/engine/courses</text>
<text text-anchor="middle" x="620.5" y="-117" font-family="Helvetica,sans-Serif" font-size="10.00">/PodiumCeremony.cpp</text>
</a>
</g>
</g>
<!-- Node1&#45;&gt;Node9 -->
<g id="edge9_Node000001_Node000009" class="edge">
<title>Node1&#45;&gt;Node9</title>
<g id="a_edge9_Node000001_Node000009"><a xlink:title=" ">
<path fill="none" stroke="#63b8ff" d="M575.85,-168.65C585.67,-159.27 596.92,-148.53 605.67,-140.16"/>
<polygon fill="#63b8ff" stroke="#63b8ff" points="573.18,-166.36 568.37,-175.8 578.02,-171.42 573.18,-166.36"/>
</a>
</g>
</g>
<!-- Node10 -->
<g id="Node000010" class="node">
<title>Node10</title>
<g id="a_Node000010"><a xlink:href="TestCourse_8cpp.html" target="_top" xlink:title=" ">
<polygon fill="white" stroke="#666666" points="808,-140 701,-140 701,-110 808,-110 808,-140"/>
<text text-anchor="start" x="709" y="-128" font-family="Helvetica,sans-Serif" font-size="10.00">src/engine/courses</text>
<text text-anchor="middle" x="754.5" y="-117" font-family="Helvetica,sans-Serif" font-size="10.00">/TestCourse.cpp</text>
</a>
</g>
</g>
<!-- Node1&#45;&gt;Node10 -->
<g id="edge10_Node000001_Node000010" class="edge">
<title>Node1&#45;&gt;Node10</title>
<g id="a_edge10_Node000001_Node000010"><a xlink:title=" ">
<path fill="none" stroke="#63b8ff" d="M607.34,-172.86C639.62,-162.58 680.14,-149.68 710.49,-140.01"/>
<polygon fill="#63b8ff" stroke="#63b8ff" points="606.08,-169.59 597.61,-175.95 608.2,-176.26 606.08,-169.59"/>
</a>
</g>
</g>
<!-- Node11 -->
<g id="Node000011" class="node">
<title>Node11</title>
<g id="a_Node000011"><a xlink:href="CheepCheep_8cpp.html" target="_top" xlink:title=" ">
<polygon fill="white" stroke="#666666" points="931,-140 826,-140 826,-110 931,-110 931,-140"/>
<text text-anchor="start" x="834" y="-128" font-family="Helvetica,sans-Serif" font-size="10.00">src/engine/objects</text>
<text text-anchor="middle" x="878.5" y="-117" font-family="Helvetica,sans-Serif" font-size="10.00">/CheepCheep.cpp</text>
</a>
</g>
</g>
<!-- Node1&#45;&gt;Node11 -->
<g id="edge11_Node000001_Node000011" class="edge">
<title>Node1&#45;&gt;Node11</title>
<g id="a_edge11_Node000001_Node000011"><a xlink:title=" ">
<path fill="none" stroke="#63b8ff" d="M616.24,-178.82C669.82,-169.1 748.87,-154.37 817.5,-140 820.27,-139.42 823.1,-138.82 825.96,-138.19"/>
<polygon fill="#63b8ff" stroke="#63b8ff" points="615.43,-175.41 606.21,-180.63 616.68,-182.3 615.43,-175.41"/>
</a>
</g>
</g>
<!-- Node3 -->
<g id="Node000003" class="node">
<title>Node3</title>
<g id="a_Node000003"><a xlink:href="RegisteredActors_8cpp.html" target="_top" xlink:title=" ">
<polygon fill="white" stroke="#666666" points="173,-74 0,-74 0,-55 173,-55 173,-74"/>
<text text-anchor="middle" x="86.5" y="-62" font-family="Helvetica,sans-Serif" font-size="10.00">src/engine/RegisteredActors.cpp</text>
</a>
</g>
</g>
<!-- Node2&#45;&gt;Node3 -->
<g id="edge2_Node000002_Node000003" class="edge">
<title>Node2&#45;&gt;Node3</title>
<g id="a_edge2_Node000002_Node000003"><a xlink:title=" ">
<path fill="none" stroke="#63b8ff" d="M175.41,-110.73C153.39,-99.53 122.51,-83.82 103.54,-74.17"/>
<polygon fill="#63b8ff" stroke="#63b8ff" points="174.03,-113.95 184.53,-115.37 177.21,-107.71 174.03,-113.95"/>
</a>
</g>
</g>
<!-- Node4 -->
<g id="Node000004" class="node">
<title>Node4</title>
<g id="a_Node000004"><a xlink:href="ContentBrowser_8cpp.html" target="_top" xlink:title=" ">
<polygon fill="white" stroke="#666666" points="284.5,-19 118.5,-19 118.5,0 284.5,0 284.5,-19"/>
<text text-anchor="middle" x="201.5" y="-7" font-family="Helvetica,sans-Serif" font-size="10.00">src/port/ui/ContentBrowser.cpp</text>
</a>
</g>
</g>
<!-- Node2&#45;&gt;Node4 -->
<g id="edge3_Node000002_Node000004" class="edge">
<title>Node2&#45;&gt;Node4</title>
<g id="a_edge3_Node000002_Node000004"><a xlink:title=" ">
<path fill="none" stroke="#63b8ff" d="M201.5,-105.15C201.5,-80.24 201.5,-37.38 201.5,-19.13"/>
<polygon fill="#63b8ff" stroke="#63b8ff" points="198,-105.47 201.5,-115.47 205,-105.47 198,-105.47"/>
</a>
</g>
</g>
<!-- Node5 -->
<g id="Node000005" class="node">
<title>Node5</title>
<g id="a_Node000005"><a xlink:href="ContentBrowser_8h.html" target="_top" xlink:title=" ">
<polygon fill="white" stroke="#666666" points="385,-74 230,-74 230,-55 385,-55 385,-74"/>
<text text-anchor="middle" x="307.5" y="-62" font-family="Helvetica,sans-Serif" font-size="10.00">src/port/ui/ContentBrowser.h</text>
</a>
</g>
</g>
<!-- Node2&#45;&gt;Node5 -->
<g id="edge4_Node000002_Node000005" class="edge">
<title>Node2&#45;&gt;Node5</title>
<g id="a_edge4_Node000002_Node000005"><a xlink:title=" ">
<path fill="none" stroke="#63b8ff" d="M226.1,-110.42C246.36,-99.24 274.47,-83.73 291.8,-74.17"/>
<polygon fill="#63b8ff" stroke="#63b8ff" points="224.2,-107.47 217.14,-115.37 227.59,-113.6 224.2,-107.47"/>
</a>
</g>
</g>
<!-- Node5&#45;&gt;Node4 -->
<g id="edge5_Node000005_Node000004" class="edge">
<title>Node5&#45;&gt;Node4</title>
<g id="a_edge5_Node000005_Node000004"><a xlink:title=" ">
<path fill="none" stroke="#63b8ff" d="M281.5,-50.5C262,-40.75 235.85,-27.68 218.84,-19.17"/>
<polygon fill="#63b8ff" stroke="#63b8ff" points="279.96,-53.64 290.47,-54.98 283.09,-47.38 279.96,-53.64"/>
</a>
</g>
</g>
<!-- Node6 -->
<g id="Node000006" class="node">
<title>Node6</title>
<g id="a_Node000006"><a xlink:href="ImguiUI_8cpp.html" target="_top" xlink:title=" ">
<polygon fill="white" stroke="#666666" points="430,-19 303,-19 303,0 430,0 430,-19"/>
<text text-anchor="middle" x="366.5" y="-7" font-family="Helvetica,sans-Serif" font-size="10.00">src/port/ui/ImguiUI.cpp</text>
</a>
</g>
</g>
<!-- Node5&#45;&gt;Node6 -->
<g id="edge6_Node000005_Node000006" class="edge">
<title>Node5&#45;&gt;Node6</title>
<g id="a_edge6_Node000005_Node000006"><a xlink:title=" ">
<path fill="none" stroke="#63b8ff" d="M324.7,-48.04C335.17,-38.64 348.15,-26.98 356.85,-19.17"/>
<polygon fill="#63b8ff" stroke="#63b8ff" points="322.08,-45.7 316.98,-54.98 326.76,-50.91 322.08,-45.7"/>
</a>
</g>
</g>
</g>
</svg>
