<?xml version="1.0" encoding="UTF-8" standalone="no"?>
<!DOCTYPE svg PUBLIC "-//W3C//DTD SVG 1.1//EN"
 "http://www.w3.org/Graphics/SVG/1.1/DTD/svg11.dtd">
<!-- Generated by graphviz version 2.43.0 (0)
 -->
<!-- Title: include/assets/choco_mountain_data.h Pages: 1 -->
<!--zoomable 280 -->

<svg id="main" version="1.1" xmlns="http://www.w3.org/2000/svg" xmlns:xlink="http://www.w3.org/1999/xlink" xml:space="preserve" onload="init(evt)">

<style type="text/css"><![CDATA[
.node, .edge {opacity: 0.7;}
.node.selected, .edge.selected {opacity: 1;}
.edge:hover path { stroke: red; }
.edge:hover polygon { stroke: red; fill: red; }
]]></style>

<defs>
  <circle id="rim" cx="0" cy="0" r="7"/>
  <circle id="rim2" cx="0" cy="0" r="3.5"/>
  <g id="zoomPlus">
    <use xlink:href="#rim" fill="#404040"><set attributeName="fill" to="#808080" begin="zoomplus.mouseover" end="zoomplus.mouseout"/></use>
    <path d="M-4,0h8M0,-4v8" fill="none" stroke="white" stroke-width="1.5" pointer-events="none"/>
  </g>
  <g id="zoomMin">
    <use xlink:href="#rim" fill="#404040"><set attributeName="fill" to="#808080" begin="zoomminus.mouseover" end="zoomminus.mouseout"/></use>
    <path d="M-4,0h8" fill="none" stroke="white" stroke-width="1.5" pointer-events="none"/>
  </g>
  <g id="arrowUp" transform="translate(30 24)">
    <use xlink:href="#rim"/>
    <path pointer-events="none" fill="none" stroke="white" stroke-width="1.5" d="M0,-3.0v7 M-2.5,-0.5L0,-3.0L2.5,-0.5"/>
  </g>
  <g id="arrowRight" transform="rotate(90) translate(36 -43)">
    <use xlink:href="#rim"/>
    <path pointer-events="none" fill="none" stroke="white" stroke-width="1.5" d="M0,-3.0v7 M-2.5,-0.5L0,-3.0L2.5,-0.5"/>
  </g>
  <g id="arrowDown" transform="rotate(180) translate(-30 -48)">
    <use xlink:href="#rim"/>
    <path pointer-events="none" fill="none" stroke="white" stroke-width="1.5" d="M0,-3.0v7 M-2.5,-0.5L0,-3.0L2.5,-0.5"/>
  </g>
  <g id="arrowLeft" transform="rotate(270) translate(-36 17)">
    <use xlink:href="#rim"/>
    <path pointer-events="none" fill="none" stroke="white" stroke-width="1.5" d="M0,-3.0v7 M-2.5,-0.5L0,-3.0L2.5,-0.5"/>
  </g>
  <g id="resetDef">
    <use xlink:href="#rim2" fill="#404040"><set attributeName="fill" to="#808080" begin="reset.mouseover" end="reset.mouseout"/></use>
  </g>
</defs>
<script type="application/ecmascript">
var viewWidth = 2273;
var viewHeight = 280;
var sectionId = 'dynsection-1';
</script>
<script type="application/ecmascript" xlink:href="svg.min.js"/>
<svg id="graph" class="graph">
<g id="viewport">
<title>include/assets/choco_mountain_data.h</title>
<!-- Node1 -->
<g id="Node000001" class="node">
<title>Node1</title>
<g id="a_Node000001"><a xlink:title=" ">
<polygon fill="#999999" stroke="#666666" points="1734,-272 1616,-272 1616,-242 1734,-242 1734,-272"/>
<text text-anchor="start" x="1624" y="-260" font-family="Helvetica,sans-Serif" font-size="10.00">include/assets/choco</text>
<text text-anchor="middle" x="1675" y="-249" font-family="Helvetica,sans-Serif" font-size="10.00">_mountain_data.h</text>
</a>
</g>
</g>
<!-- Node2 -->
<g id="Node000002" class="node">
<title>Node2</title>
<g id="a_Node000002"><a xlink:href="all__course__data_8h.html" target="_top" xlink:title=" ">
<polygon fill="white" stroke="#666666" points="932.5,-206 825.5,-206 825.5,-176 932.5,-176 932.5,-206"/>
<text text-anchor="start" x="833.5" y="-194" font-family="Helvetica,sans-Serif" font-size="10.00">courses/all_course</text>
<text text-anchor="middle" x="879" y="-183" font-family="Helvetica,sans-Serif" font-size="10.00">_data.h</text>
</a>
</g>
</g>
<!-- Node1&#45;&gt;Node2 -->
<g id="edge1_Node000001_Node000002" class="edge">
<title>Node1&#45;&gt;Node2</title>
<g id="a_edge1_Node000001_Node000002"><a xlink:title=" ">
<path fill="none" stroke="#63b8ff" d="M1605.4,-250.4C1449.06,-237.83 1072.81,-207.58 932.74,-196.32"/>
<polygon fill="#63b8ff" stroke="#63b8ff" points="1605.57,-253.93 1615.82,-251.24 1606.13,-246.95 1605.57,-253.93"/>
</a>
</g>
</g>
<!-- Node9 -->
<g id="Node000009" class="node">
<title>Node9</title>
<g id="a_Node000009"><a xlink:href="path__spawn__metadata_8c.html" target="_top" xlink:title=" ">
<polygon fill="white" stroke="#666666" points="1606.5,-140 1489.5,-140 1489.5,-110 1606.5,-110 1606.5,-140"/>
<text text-anchor="start" x="1497.5" y="-128" font-family="Helvetica,sans-Serif" font-size="10.00">src/data/path_spawn</text>
<text text-anchor="middle" x="1548" y="-117" font-family="Helvetica,sans-Serif" font-size="10.00">_metadata.c</text>
</a>
</g>
</g>
<!-- Node1&#45;&gt;Node9 -->
<g id="edge23_Node000001_Node000009" class="edge">
<title>Node1&#45;&gt;Node9</title>
<g id="a_edge23_Node000001_Node000009"><a xlink:title=" ">
<path fill="none" stroke="#63b8ff" d="M1605.62,-253.32C1532.37,-248.87 1423.96,-237.07 1398,-206 1389.45,-195.77 1390.2,-186.82 1398,-176 1409.11,-160.58 1452.11,-147.21 1489.23,-138.18"/>
<polygon fill="#63b8ff" stroke="#63b8ff" points="1605.52,-256.82 1615.71,-253.9 1605.93,-249.83 1605.52,-256.82"/>
</a>
</g>
</g>
<!-- Node17 -->
<g id="Node000017" class="node">
<title>Node17</title>
<g id="a_Node000017"><a xlink:href="choco__mountain_2course__offsets_8c.html" target="_top" xlink:title=" ">
<polygon fill="white" stroke="#666666" points="1544.5,-206 1407.5,-206 1407.5,-176 1544.5,-176 1544.5,-206"/>
<text text-anchor="start" x="1415.5" y="-194" font-family="Helvetica,sans-Serif" font-size="10.00">courses/choco_mountain</text>
<text text-anchor="middle" x="1476" y="-183" font-family="Helvetica,sans-Serif" font-size="10.00">/course_offsets.c</text>
</a>
</g>
</g>
<!-- Node1&#45;&gt;Node17 -->
<g id="edge18_Node000001_Node000017" class="edge">
<title>Node1&#45;&gt;Node17</title>
<g id="a_edge18_Node000001_Node000017"><a xlink:title=" ">
<path fill="none" stroke="#63b8ff" d="M1621.69,-238.86C1589.74,-228.58 1549.62,-215.68 1519.57,-206.01"/>
<polygon fill="#63b8ff" stroke="#63b8ff" points="1620.74,-242.23 1631.33,-241.95 1622.88,-235.56 1620.74,-242.23"/>
</a>
</g>
</g>
<!-- Node18 -->
<g id="Node000018" class="node">
<title>Node18</title>
<g id="a_Node000018"><a xlink:href="falling__rock_2render_8inc_8c.html" target="_top" xlink:title=" ">
<polygon fill="white" stroke="#666666" points="1665,-206 1563,-206 1563,-176 1665,-176 1665,-206"/>
<text text-anchor="start" x="1571" y="-194" font-family="Helvetica,sans-Serif" font-size="10.00">src/actors/falling</text>
<text text-anchor="middle" x="1614" y="-183" font-family="Helvetica,sans-Serif" font-size="10.00">_rock/render.inc.c</text>
</a>
</g>
</g>
<!-- Node1&#45;&gt;Node18 -->
<g id="edge19_Node000001_Node000018" class="edge">
<title>Node1&#45;&gt;Node18</title>
<g id="a_edge19_Node000001_Node000018"><a xlink:title=" ">
<path fill="none" stroke="#63b8ff" d="M1654.38,-234.37C1645.51,-225.06 1635.39,-214.44 1627.5,-206.16"/>
<polygon fill="#63b8ff" stroke="#63b8ff" points="1652.03,-236.97 1661.46,-241.8 1657.1,-232.14 1652.03,-236.97"/>
</a>
</g>
</g>
<!-- Node19 -->
<g id="Node000019" class="node">
<title>Node19</title>
<g id="a_Node000019"><a xlink:href="falling__rock_2update_8inc_8c.html" target="_top" xlink:title=" ">
<polygon fill="white" stroke="#666666" points="1788.5,-206 1683.5,-206 1683.5,-176 1788.5,-176 1788.5,-206"/>
<text text-anchor="start" x="1691.5" y="-194" font-family="Helvetica,sans-Serif" font-size="10.00">src/actors/falling</text>
<text text-anchor="middle" x="1736" y="-183" font-family="Helvetica,sans-Serif" font-size="10.00">_rock/update.inc.c</text>
</a>
</g>
</g>
<!-- Node1&#45;&gt;Node19 -->
<g id="edge21_Node000001_Node000019" class="edge">
<title>Node1&#45;&gt;Node19</title>
<g id="a_edge21_Node000001_Node000019"><a xlink:title=" ">
<path fill="none" stroke="#63b8ff" d="M1695.62,-234.37C1704.49,-225.06 1714.61,-214.44 1722.5,-206.16"/>
<polygon fill="#63b8ff" stroke="#63b8ff" points="1692.9,-232.14 1688.54,-241.8 1697.97,-236.97 1692.9,-232.14"/>
</a>
</g>
</g>
<!-- Node20 -->
<g id="Node000020" class="node">
<title>Node20</title>
<g id="a_Node000020"><a xlink:href="FallingRock_8cpp.html" target="_top" xlink:title=" ">
<polygon fill="white" stroke="#666666" points="1941,-206 1807,-206 1807,-176 1941,-176 1941,-206"/>
<text text-anchor="start" x="1815" y="-194" font-family="Helvetica,sans-Serif" font-size="10.00">src/engine/actors/Falling</text>
<text text-anchor="middle" x="1874" y="-183" font-family="Helvetica,sans-Serif" font-size="10.00">Rock.cpp</text>
</a>
</g>
</g>
<!-- Node1&#45;&gt;Node20 -->
<g id="edge24_Node000001_Node000020" class="edge">
<title>Node1&#45;&gt;Node20</title>
<g id="a_edge24_Node000001_Node000020"><a xlink:title=" ">
<path fill="none" stroke="#63b8ff" d="M1728.31,-238.86C1760.26,-228.58 1800.38,-215.68 1830.43,-206.01"/>
<polygon fill="#63b8ff" stroke="#63b8ff" points="1727.12,-235.56 1718.67,-241.95 1729.26,-242.23 1727.12,-235.56"/>
</a>
</g>
</g>
<!-- Node21 -->
<g id="Node000021" class="node">
<title>Node21</title>
<g id="a_Node000021"><a xlink:href="ChocoMountain_8cpp.html" target="_top" xlink:title=" ">
<polygon fill="white" stroke="#666666" points="2015,-140 1899,-140 1899,-110 2015,-110 2015,-140"/>
<text text-anchor="start" x="1907" y="-128" font-family="Helvetica,sans-Serif" font-size="10.00">src/engine/courses</text>
<text text-anchor="middle" x="1957" y="-117" font-family="Helvetica,sans-Serif" font-size="10.00">/ChocoMountain.cpp</text>
</a>
</g>
</g>
<!-- Node1&#45;&gt;Node21 -->
<g id="edge25_Node000001_Node000021" class="edge">
<title>Node1&#45;&gt;Node21</title>
<g id="a_edge25_Node000001_Node000021"><a xlink:title=" ">
<path fill="none" stroke="#63b8ff" d="M1744.46,-252.74C1816.73,-247.79 1923.05,-235.57 1950,-206 1966.25,-188.17 1963.73,-157.91 1960.39,-140.15"/>
<polygon fill="#63b8ff" stroke="#63b8ff" points="1743.81,-249.28 1734.06,-253.42 1744.27,-256.26 1743.81,-249.28"/>
</a>
</g>
</g>
<!-- Node22 -->
<g id="Node000022" class="node">
<title>Node22</title>
<g id="a_Node000022"><a xlink:href="ChocoMountain_8h.html" target="_top" xlink:title=" ">
<polygon fill="white" stroke="#666666" points="2127.5,-206 2020.5,-206 2020.5,-176 2127.5,-176 2127.5,-206"/>
<text text-anchor="start" x="2028.5" y="-194" font-family="Helvetica,sans-Serif" font-size="10.00">src/engine/courses</text>
<text text-anchor="middle" x="2074" y="-183" font-family="Helvetica,sans-Serif" font-size="10.00">/ChocoMountain.h</text>
</a>
</g>
</g>
<!-- Node1&#45;&gt;Node22 -->
<g id="edge26_Node000001_Node000022" class="edge">
<title>Node1&#45;&gt;Node22</title>
<g id="a_edge26_Node000001_Node000022"><a xlink:title=" ">
<path fill="none" stroke="#63b8ff" d="M1744.59,-244.84C1823.13,-232.24 1949.2,-212.02 2020.45,-200.59"/>
<polygon fill="#63b8ff" stroke="#63b8ff" points="1743.62,-241.45 1734.3,-246.49 1744.73,-248.36 1743.62,-241.45"/>
</a>
</g>
</g>
<!-- Node3 -->
<g id="Node000003" class="node">
<title>Node3</title>
<g id="a_Node000003"><a xlink:href="paddle__boat_2render_8inc_8c.html" target="_top" xlink:title=" ">
<polygon fill="white" stroke="#666666" points="850.5,-140 723.5,-140 723.5,-110 850.5,-110 850.5,-140"/>
<text text-anchor="start" x="731.5" y="-128" font-family="Helvetica,sans-Serif" font-size="10.00">src/actors/paddle_boat</text>
<text text-anchor="middle" x="787" y="-117" font-family="Helvetica,sans-Serif" font-size="10.00">/render.inc.c</text>
</a>
</g>
</g>
<!-- Node2&#45;&gt;Node3 -->
<g id="edge2_Node000002_Node000003" class="edge">
<title>Node2&#45;&gt;Node3</title>
<g id="a_edge2_Node000002_Node000003"><a xlink:title=" ">
<path fill="none" stroke="#63b8ff" d="M850.29,-170.03C836.37,-160.34 819.97,-148.94 807.36,-140.16"/>
<polygon fill="#63b8ff" stroke="#63b8ff" points="848.37,-172.96 858.58,-175.8 852.37,-167.21 848.37,-172.96"/>
</a>
</g>
</g>
<!-- Node4 -->
<g id="Node000004" class="node">
<title>Node4</title>
<g id="a_Node000004"><a xlink:href="actors_8c.html" target="_top" xlink:title=" ">
<polygon fill="white" stroke="#666666" points="1035.5,-74 930.5,-74 930.5,-55 1035.5,-55 1035.5,-74"/>
<text text-anchor="middle" x="983" y="-62" font-family="Helvetica,sans-Serif" font-size="10.00">src/racing/actors.c</text>
</a>
</g>
</g>
<!-- Node2&#45;&gt;Node4 -->
<g id="edge13_Node000002_Node000004" class="edge">
<title>Node2&#45;&gt;Node4</title>
<g id="a_edge13_Node000002_Node000004"><a xlink:title=" ">
<path fill="none" stroke="#63b8ff" d="M879.6,-165.43C881.18,-148.31 885.71,-125.81 898,-110 911.8,-92.25 934.68,-80.84 953.23,-74.03"/>
<polygon fill="#63b8ff" stroke="#63b8ff" points="876.09,-165.57 878.94,-175.77 883.07,-166.02 876.09,-165.57"/>
</a>
</g>
</g>
<!-- Node5 -->
<g id="Node000005" class="node">
<title>Node5</title>
<g id="a_Node000005"><a xlink:href="trees_2render_8inc_8c.html" target="_top" xlink:title=" ">
<polygon fill="white" stroke="#666666" points="1058.5,-134.5 907.5,-134.5 907.5,-115.5 1058.5,-115.5 1058.5,-134.5"/>
<text text-anchor="middle" x="983" y="-122.5" font-family="Helvetica,sans-Serif" font-size="10.00">src/actors/trees/render.inc.c</text>
</a>
</g>
</g>
<!-- Node2&#45;&gt;Node5 -->
<g id="edge4_Node000002_Node000005" class="edge">
<title>Node2&#45;&gt;Node5</title>
<g id="a_edge4_Node000002_Node000005"><a xlink:title=" ">
<path fill="none" stroke="#63b8ff" d="M910.45,-170.65C930.03,-158.6 954.25,-143.69 969.16,-134.52"/>
<polygon fill="#63b8ff" stroke="#63b8ff" points="908.51,-167.73 901.82,-175.95 912.17,-173.69 908.51,-167.73"/>
</a>
</g>
</g>
<!-- Node6 -->
<g id="Node000006" class="node">
<title>Node6</title>
<g id="a_Node000006"><a xlink:href="code__800029B0_8c.html" target="_top" xlink:title=" ">
<polygon fill="white" stroke="#666666" points="1195.5,-134.5 1076.5,-134.5 1076.5,-115.5 1195.5,-115.5 1195.5,-134.5"/>
<text text-anchor="middle" x="1136" y="-122.5" font-family="Helvetica,sans-Serif" font-size="10.00">src/code_800029B0.c</text>
</a>
</g>
</g>
<!-- Node2&#45;&gt;Node6 -->
<g id="edge6_Node000002_Node000006" class="edge">
<title>Node2&#45;&gt;Node6</title>
<g id="a_edge6_Node000002_Node000006"><a xlink:title=" ">
<path fill="none" stroke="#63b8ff" d="M942.38,-174.22C992.71,-161.68 1061.18,-144.63 1101.76,-134.53"/>
<polygon fill="#63b8ff" stroke="#63b8ff" points="941.42,-170.85 932.56,-176.66 943.11,-177.64 941.42,-170.85"/>
</a>
</g>
</g>
<!-- Node7 -->
<g id="Node000007" class="node">
<title>Node7</title>
<g id="a_Node000007"><a xlink:href="code__80005FD0_8c.html" target="_top" xlink:title=" ">
<polygon fill="white" stroke="#666666" points="1334,-134.5 1214,-134.5 1214,-115.5 1334,-115.5 1334,-134.5"/>
<text text-anchor="middle" x="1274" y="-122.5" font-family="Helvetica,sans-Serif" font-size="10.00">src/code_80005FD0.c</text>
</a>
</g>
</g>
<!-- Node2&#45;&gt;Node7 -->
<g id="edge7_Node000002_Node000007" class="edge">
<title>Node2&#45;&gt;Node7</title>
<g id="a_edge7_Node000002_Node000007"><a xlink:title=" ">
<path fill="none" stroke="#63b8ff" d="M942.79,-181.05C1008.42,-171.63 1113.55,-155.99 1204,-140 1213.4,-138.34 1223.47,-136.41 1232.97,-134.52"/>
<polygon fill="#63b8ff" stroke="#63b8ff" points="942.01,-177.62 932.6,-182.5 943,-184.55 942.01,-177.62"/>
</a>
</g>
</g>
<!-- Node8 -->
<g id="Node000008" class="node">
<title>Node8</title>
<g id="a_Node000008"><a xlink:href="code__8006E9C0_8c.html" target="_top" xlink:title=" ">
<polygon fill="white" stroke="#666666" points="1471.5,-134.5 1352.5,-134.5 1352.5,-115.5 1471.5,-115.5 1471.5,-134.5"/>
<text text-anchor="middle" x="1412" y="-122.5" font-family="Helvetica,sans-Serif" font-size="10.00">src/code_8006E9C0.c</text>
</a>
</g>
</g>
<!-- Node2&#45;&gt;Node8 -->
<g id="edge8_Node000002_Node000008" class="edge">
<title>Node2&#45;&gt;Node8</title>
<g id="a_edge8_Node000002_Node000008"><a xlink:title=" ">
<path fill="none" stroke="#63b8ff" d="M942.81,-185.01C1032.49,-177.57 1200.76,-162.05 1343,-140 1352.78,-138.48 1363.28,-136.53 1373.07,-134.56"/>
<polygon fill="#63b8ff" stroke="#63b8ff" points="942.48,-181.53 932.8,-185.84 943.05,-188.5 942.48,-181.53"/>
</a>
</g>
</g>
<!-- Node2&#45;&gt;Node9 -->
<g id="edge9_Node000002_Node000009" class="edge">
<title>Node2&#45;&gt;Node9</title>
<g id="a_edge9_Node000002_Node000009"><a xlink:title=" ">
<path fill="none" stroke="#63b8ff" d="M942.98,-187.2C1053.13,-181.83 1285.49,-168.01 1480,-140 1483.1,-139.55 1486.28,-139.05 1489.47,-138.51"/>
<polygon fill="#63b8ff" stroke="#63b8ff" points="942.53,-183.72 932.71,-187.7 942.87,-190.71 942.53,-183.72"/>
</a>
</g>
</g>
<!-- Node10 -->
<g id="Node000010" class="node">
<title>Node10</title>
<g id="a_Node000010"><a xlink:href="all__variables_8h.html" target="_top" xlink:title=" ">
<polygon fill="white" stroke="#666666" points="138,-134.5 0,-134.5 0,-115.5 138,-115.5 138,-134.5"/>
<text text-anchor="middle" x="69" y="-122.5" font-family="Helvetica,sans-Serif" font-size="10.00">src/debug/all_variables.h</text>
</a>
</g>
</g>
<!-- Node2&#45;&gt;Node10 -->
<g id="edge10_Node000002_Node000010" class="edge">
<title>Node2&#45;&gt;Node10</title>
<g id="a_edge10_Node000002_Node000010"><a xlink:title=" ">
<path fill="none" stroke="#63b8ff" d="M814.72,-187.97C687.04,-183.43 392.62,-170.34 147,-140 135.53,-138.58 123.19,-136.59 111.78,-134.55"/>
<polygon fill="#63b8ff" stroke="#63b8ff" points="814.97,-191.48 825.08,-188.34 815.21,-184.49 814.97,-191.48"/>
</a>
</g>
</g>
<!-- Node13 -->
<g id="Node000013" class="node">
<title>Node13</title>
<g id="a_Node000013"><a xlink:href="memory_8c.html" target="_top" xlink:title=" ">
<polygon fill="white" stroke="#666666" points="271.5,-134.5 156.5,-134.5 156.5,-115.5 271.5,-115.5 271.5,-134.5"/>
<text text-anchor="middle" x="214" y="-122.5" font-family="Helvetica,sans-Serif" font-size="10.00">src/racing/memory.c</text>
</a>
</g>
</g>
<!-- Node2&#45;&gt;Node13 -->
<g id="edge14_Node000002_Node000013" class="edge">
<title>Node2&#45;&gt;Node13</title>
<g id="a_edge14_Node000002_Node000013"><a xlink:title=" ">
<path fill="none" stroke="#63b8ff" d="M815.21,-187.31C705.41,-182.1 473.78,-168.52 280,-140 270.27,-138.57 259.81,-136.57 250.16,-134.53"/>
<polygon fill="#63b8ff" stroke="#63b8ff" points="815.3,-190.82 825.45,-187.79 815.63,-183.83 815.3,-190.82"/>
</a>
</g>
</g>
<!-- Node14 -->
<g id="Node000014" class="node">
<title>Node14</title>
<g id="a_Node000014"><a xlink:href="render__courses_8c.html" target="_top" xlink:title=" ">
<polygon fill="white" stroke="#666666" points="438.5,-134.5 289.5,-134.5 289.5,-115.5 438.5,-115.5 438.5,-134.5"/>
<text text-anchor="middle" x="364" y="-122.5" font-family="Helvetica,sans-Serif" font-size="10.00">src/racing/render_courses.c</text>
</a>
</g>
</g>
<!-- Node2&#45;&gt;Node14 -->
<g id="edge15_Node000002_Node000014" class="edge">
<title>Node2&#45;&gt;Node14</title>
<g id="a_edge15_Node000002_Node000014"><a xlink:title=" ">
<path fill="none" stroke="#63b8ff" d="M815.3,-183.61C731.08,-174.93 578.14,-158.38 448,-140 436.58,-138.39 424.32,-136.46 412.8,-134.55"/>
<polygon fill="#63b8ff" stroke="#63b8ff" points="815.17,-187.11 825.47,-184.65 815.88,-180.15 815.17,-187.11"/>
</a>
</g>
</g>
<!-- Node15 -->
<g id="Node000015" class="node">
<title>Node15</title>
<g id="a_Node000015"><a xlink:href="render__objects_8c.html" target="_top" xlink:title=" ">
<polygon fill="white" stroke="#666666" points="571,-134.5 457,-134.5 457,-115.5 571,-115.5 571,-134.5"/>
<text text-anchor="middle" x="514" y="-122.5" font-family="Helvetica,sans-Serif" font-size="10.00">src/render_objects.c</text>
</a>
</g>
</g>
<!-- Node2&#45;&gt;Node15 -->
<g id="edge16_Node000002_Node000015" class="edge">
<title>Node2&#45;&gt;Node15</title>
<g id="a_edge16_Node000002_Node000015"><a xlink:title=" ">
<path fill="none" stroke="#63b8ff" d="M815.22,-180.16C754.59,-170.6 660.9,-155.34 580,-140 571.25,-138.34 561.88,-136.43 553.03,-134.57"/>
<polygon fill="#63b8ff" stroke="#63b8ff" points="814.98,-183.66 825.4,-181.75 816.07,-176.75 814.98,-183.66"/>
</a>
</g>
</g>
<!-- Node16 -->
<g id="Node000016" class="node">
<title>Node16</title>
<g id="a_Node000016"><a xlink:href="update__objects_8c.html" target="_top" xlink:title=" ">
<polygon fill="white" stroke="#666666" points="705,-134.5 589,-134.5 589,-115.5 705,-115.5 705,-134.5"/>
<text text-anchor="middle" x="647" y="-122.5" font-family="Helvetica,sans-Serif" font-size="10.00">src/update_objects.c</text>
</a>
</g>
</g>
<!-- Node2&#45;&gt;Node16 -->
<g id="edge17_Node000002_Node000016" class="edge">
<title>Node2&#45;&gt;Node16</title>
<g id="a_edge17_Node000002_Node000016"><a xlink:title=" ">
<path fill="none" stroke="#63b8ff" d="M818.41,-173.29C773.31,-160.84 713.61,-144.37 677.88,-134.52"/>
<polygon fill="#63b8ff" stroke="#63b8ff" points="817.52,-176.67 828.09,-175.95 819.38,-169.92 817.52,-176.67"/>
</a>
</g>
</g>
<!-- Node3&#45;&gt;Node4 -->
<g id="edge3_Node000003_Node000004" class="edge">
<title>Node3&#45;&gt;Node4</title>
<g id="a_edge3_Node000003_Node000004"><a xlink:title=" ">
<path fill="none" stroke="#63b8ff" d="M843.9,-107.02C880.11,-96.21 925.46,-82.67 954.34,-74.05"/>
<polygon fill="#63b8ff" stroke="#63b8ff" points="842.53,-103.77 833.95,-109.99 844.53,-110.48 842.53,-103.77"/>
</a>
</g>
</g>
<!-- Node5&#45;&gt;Node4 -->
<g id="edge5_Node000005_Node000004" class="edge">
<title>Node5&#45;&gt;Node4</title>
<g id="a_edge5_Node000005_Node000004"><a xlink:title=" ">
<path fill="none" stroke="#63b8ff" d="M983,-105.16C983,-94.74 983,-82.3 983,-74.17"/>
<polygon fill="#63b8ff" stroke="#63b8ff" points="979.5,-105.37 983,-115.37 986.5,-105.37 979.5,-105.37"/>
</a>
</g>
</g>
<!-- Node11 -->
<g id="Node000011" class="node">
<title>Node11</title>
<g id="a_Node000011"><a xlink:href="debug_8inc_8c.html" target="_top" xlink:title=" ">
<polygon fill="white" stroke="#666666" points="130,-74 8,-74 8,-55 130,-55 130,-74"/>
<text text-anchor="middle" x="69" y="-62" font-family="Helvetica,sans-Serif" font-size="10.00">src/debug/debug.inc.c</text>
</a>
</g>
</g>
<!-- Node10&#45;&gt;Node11 -->
<g id="edge11_Node000010_Node000011" class="edge">
<title>Node10&#45;&gt;Node11</title>
<g id="a_edge11_Node000010_Node000011"><a xlink:title=" ">
<path fill="none" stroke="#63b8ff" d="M69,-105.16C69,-94.74 69,-82.3 69,-74.17"/>
<polygon fill="#63b8ff" stroke="#63b8ff" points="65.5,-105.37 69,-115.37 72.5,-105.37 65.5,-105.37"/>
</a>
</g>
</g>
<!-- Node12 -->
<g id="Node000012" class="node">
<title>Node12</title>
<g id="a_Node000012"><a xlink:href="debug_8c.html" target="_top" xlink:title=" ">
<polygon fill="white" stroke="#666666" points="121.5,-19 16.5,-19 16.5,0 121.5,0 121.5,-19"/>
<text text-anchor="middle" x="69" y="-7" font-family="Helvetica,sans-Serif" font-size="10.00">src/debug/debug.c</text>
</a>
</g>
</g>
<!-- Node11&#45;&gt;Node12 -->
<g id="edge12_Node000011_Node000012" class="edge">
<title>Node11&#45;&gt;Node12</title>
<g id="a_edge12_Node000011_Node000012"><a xlink:title=" ">
<path fill="none" stroke="#63b8ff" d="M69,-44.66C69,-35.93 69,-25.99 69,-19.09"/>
<polygon fill="#63b8ff" stroke="#63b8ff" points="65.5,-44.75 69,-54.75 72.5,-44.75 65.5,-44.75"/>
</a>
</g>
</g>
<!-- Node18&#45;&gt;Node4 -->
<g id="edge20_Node000018_Node000004" class="edge">
<title>Node18&#45;&gt;Node4</title>
<g id="a_edge20_Node000018_Node000004"><a xlink:title=" ">
<path fill="none" stroke="#63b8ff" d="M1622.18,-166.09C1626.6,-148.32 1628.7,-124.69 1615,-110 1575.86,-68.01 1180.32,-64.91 1035.64,-65.2"/>
<polygon fill="#63b8ff" stroke="#63b8ff" points="1618.8,-165.19 1619.41,-175.77 1625.53,-167.12 1618.8,-165.19"/>
</a>
</g>
</g>
<!-- Node19&#45;&gt;Node4 -->
<g id="edge22_Node000019_Node000004" class="edge">
<title>Node19&#45;&gt;Node4</title>
<g id="a_edge22_Node000019_Node000004"><a xlink:title=" ">
<path fill="none" stroke="#63b8ff" d="M1716.55,-168.52C1697.76,-149.39 1667.46,-122.55 1635,-110 1526.14,-67.9 1171.1,-64.73 1035.92,-65.1"/>
<polygon fill="#63b8ff" stroke="#63b8ff" points="1714.19,-171.12 1723.63,-175.93 1719.25,-166.28 1714.19,-171.12"/>
</a>
</g>
</g>
<!-- Node22&#45;&gt;Node21 -->
<g id="edge27_Node000022_Node000021" class="edge">
<title>Node22&#45;&gt;Node21</title>
<g id="a_edge27_Node000022_Node000021"><a xlink:title=" ">
<path fill="none" stroke="#63b8ff" d="M2039.21,-170.97C2021.05,-161.03 1999.22,-149.09 1982.62,-140.01"/>
<polygon fill="#63b8ff" stroke="#63b8ff" points="2037.87,-174.23 2048.32,-175.95 2041.23,-168.09 2037.87,-174.23"/>
</a>
</g>
</g>
<!-- Node23 -->
<g id="Node000023" class="node">
<title>Node23</title>
<g id="a_Node000023"><a xlink:href="Course_8cpp.html" target="_top" xlink:title=" ">
<polygon fill="white" stroke="#666666" points="2264.5,-140 2157.5,-140 2157.5,-110 2264.5,-110 2264.5,-140"/>
<text text-anchor="start" x="2165.5" y="-128" font-family="Helvetica,sans-Serif" font-size="10.00">src/engine/courses</text>
<text text-anchor="middle" x="2211" y="-117" font-family="Helvetica,sans-Serif" font-size="10.00">/Course.cpp</text>
</a>
</g>
</g>
<!-- Node22&#45;&gt;Node23 -->
<g id="edge28_Node000022_Node000023" class="edge">
<title>Node22&#45;&gt;Node23</title>
<g id="a_edge28_Node000022_Node000023"><a xlink:title=" ">
<path fill="none" stroke="#63b8ff" d="M2113.28,-171.65C2134.83,-161.58 2161.12,-149.3 2181,-140.01"/>
<polygon fill="#63b8ff" stroke="#63b8ff" points="2111.64,-168.55 2104.07,-175.95 2114.61,-174.89 2111.64,-168.55"/>
</a>
</g>
</g>
<!-- Node24 -->
<g id="Node000024" class="node">
<title>Node24</title>
<g id="a_Node000024"><a xlink:href="Game_8cpp.html" target="_top" xlink:title=" ">
<polygon fill="white" stroke="#666666" points="2139,-134.5 2033,-134.5 2033,-115.5 2139,-115.5 2139,-134.5"/>
<text text-anchor="middle" x="2086" y="-122.5" font-family="Helvetica,sans-Serif" font-size="10.00">src/port/Game.cpp</text>
</a>
</g>
</g>
<!-- Node22&#45;&gt;Node24 -->
<g id="edge29_Node000022_Node000024" class="edge">
<title>Node22&#45;&gt;Node24</title>
<g id="a_edge29_Node000022_Node000024"><a xlink:title=" ">
<path fill="none" stroke="#63b8ff" d="M2078.51,-165.94C2080.55,-155.06 2082.84,-142.86 2084.34,-134.84"/>
<polygon fill="#63b8ff" stroke="#63b8ff" points="2075.07,-165.32 2076.66,-175.8 2081.95,-166.61 2075.07,-165.32"/>
</a>
</g>
</g>
</g>
</svg>

<g id="navigator" transform="translate(0 0)" fill="#404254">
  <rect fill="#f2f5e9" fill-opacity="0.5" stroke="#606060" stroke-width=".5" x="0" y="0" width="60" height="60"/>
  <use id="zoomplus" xlink:href="#zoomPlus" x="17" y="9" onmousedown="handleZoom(evt,'in')"/>
  <use id="zoomminus" xlink:href="#zoomMin" x="42" y="9" onmousedown="handleZoom(evt,'out')"/>
  <use id="reset" xlink:href="#resetDef" x="30" y="36" onmousedown="handleReset()"/>
   <use id="arrowup" xlink:href="#arrowUp" x="0" y="0" onmousedown="handlePan(0,-1)"/>
  <use id="arrowright" xlink:href="#arrowRight" x="0" y="0" onmousedown="handlePan(1,0)"/>
  <use id="arrowdown" xlink:href="#arrowDown" x="0" y="0" onmousedown="handlePan(0,1)"/>
  <use id="arrowleft" xlink:href="#arrowLeft" x="0" y="0" onmousedown="handlePan(-1,0)"/>
</g>
<svg viewBox="0 0 15 15" width="100%" height="30px" preserveAspectRatio="xMaxYMin meet">
 <g id="arrow_out" transform="scale(0.3 0.3)">
  <a xlink:href="choco__mountain__data_8h__dep__incl_org.svg" target="_base">
   <rect id="button" ry="5" rx="5" y="6" x="6" height="38" width="38"
        fill="#f2f5e9" fill-opacity="0.5" stroke="#606060" stroke-width="1.0"/>
   <path id="arrow"
     d="M 11.500037,31.436501 C 11.940474,20.09759 22.043105,11.32322 32.158766,21.979434 L 37.068811,17.246167 C 37.068811,17.246167 37.088388,32 37.088388,32 L 22.160133,31.978069 C 22.160133,31.978069 26.997745,27.140456 26.997745,27.140456 C 18.528582,18.264221 13.291696,25.230495 11.500037,31.436501 z"
     style="fill:#404040;"/>
  </a>
 </g>
</svg>

<style type='text/css'>
<![CDATA[
[data-mouse-over-selected='false'] { opacity: 0.7; }
[data-mouse-over-selected='true']  { opacity: 1.0; }
]]>
</style>
<script type="application/ecmascript"><![CDATA[
document.addEventListener('DOMContentLoaded', (event) => {
  highlightEdges();
  highlightAdjacentNodes();
});
]]></script>
</svg>
