<?xml version="1.0" encoding="UTF-8" standalone="no"?>
<!DOCTYPE svg PUBLIC "-//W3C//DTD SVG 1.1//EN"
 "http://www.w3.org/Graphics/SVG/1.1/DTD/svg11.dtd">
<!-- Generated by graphviz version 2.43.0 (0)
 -->
<!-- Title: src/engine/courses/ChocoMountain.h Pages: 1 -->
<!--zoomable 379 -->

<svg id="main" version="1.1" xmlns="http://www.w3.org/2000/svg" xmlns:xlink="http://www.w3.org/1999/xlink" xml:space="preserve" onload="init(evt)">

<style type="text/css"><![CDATA[
.node, .edge {opacity: 0.7;}
.node.selected, .edge.selected {opacity: 1;}
.edge:hover path { stroke: red; }
.edge:hover polygon { stroke: red; fill: red; }
]]></style>

<defs>
  <circle id="rim" cx="0" cy="0" r="7"/>
  <circle id="rim2" cx="0" cy="0" r="3.5"/>
  <g id="zoomPlus">
    <use xlink:href="#rim" fill="#404040"><set attributeName="fill" to="#808080" begin="zoomplus.mouseover" end="zoomplus.mouseout"/></use>
    <path d="M-4,0h8M0,-4v8" fill="none" stroke="white" stroke-width="1.5" pointer-events="none"/>
  </g>
  <g id="zoomMin">
    <use xlink:href="#rim" fill="#404040"><set attributeName="fill" to="#808080" begin="zoomminus.mouseover" end="zoomminus.mouseout"/></use>
    <path d="M-4,0h8" fill="none" stroke="white" stroke-width="1.5" pointer-events="none"/>
  </g>
  <g id="arrowUp" transform="translate(30 24)">
    <use xlink:href="#rim"/>
    <path pointer-events="none" fill="none" stroke="white" stroke-width="1.5" d="M0,-3.0v7 M-2.5,-0.5L0,-3.0L2.5,-0.5"/>
  </g>
  <g id="arrowRight" transform="rotate(90) translate(36 -43)">
    <use xlink:href="#rim"/>
    <path pointer-events="none" fill="none" stroke="white" stroke-width="1.5" d="M0,-3.0v7 M-2.5,-0.5L0,-3.0L2.5,-0.5"/>
  </g>
  <g id="arrowDown" transform="rotate(180) translate(-30 -48)">
    <use xlink:href="#rim"/>
    <path pointer-events="none" fill="none" stroke="white" stroke-width="1.5" d="M0,-3.0v7 M-2.5,-0.5L0,-3.0L2.5,-0.5"/>
  </g>
  <g id="arrowLeft" transform="rotate(270) translate(-36 17)">
    <use xlink:href="#rim"/>
    <path pointer-events="none" fill="none" stroke="white" stroke-width="1.5" d="M0,-3.0v7 M-2.5,-0.5L0,-3.0L2.5,-0.5"/>
  </g>
  <g id="resetDef">
    <use xlink:href="#rim2" fill="#404040"><set attributeName="fill" to="#808080" begin="reset.mouseover" end="reset.mouseout"/></use>
  </g>
</defs>
<script type="application/ecmascript">
var viewWidth = 1404;
var viewHeight = 379;
var sectionId = 'dynsection-0';
</script>
<script type="application/ecmascript" xlink:href="svg.min.js"/>
<svg id="graph" class="graph">
<g id="viewport">
<title>src/engine/courses/ChocoMountain.h</title>
<!-- Node1 -->
<g id="Node000001" class="node">
<title>Node1</title>
<g id="a_Node000001"><a xlink:title=" ">
<polygon fill="#999999" stroke="#666666" points="997.5,-371 890.5,-371 890.5,-341 997.5,-341 997.5,-371"/>
<text text-anchor="start" x="898.5" y="-359" font-family="Helvetica,sans-Serif" font-size="10.00">src/engine/courses</text>
<text text-anchor="middle" x="944" y="-348" font-family="Helvetica,sans-Serif" font-size="10.00">/ChocoMountain.h</text>
</a>
</g>
</g>
<!-- Node2 -->
<g id="Node000002" class="node">
<title>Node2</title>
<g id="a_Node000002"><a xlink:title=" ">
<polygon fill="#e0e0e0" stroke="#999999" points="409,-19 329,-19 329,0 409,0 409,-19"/>
<text text-anchor="middle" x="369" y="-7" font-family="Helvetica,sans-Serif" font-size="10.00">libultraship.h</text>
</a>
</g>
</g>
<!-- Node1&#45;&gt;Node2 -->
<g id="edge1_Node000001_Node000002" class="edge">
<title>Node1&#45;&gt;Node2</title>
<g id="a_edge1_Node000001_Node000002"><a xlink:title=" ">
<path fill="none" stroke="#63b8ff" d="M997.63,-352.79C1117.36,-346.41 1396,-322.81 1396,-241.5 1396,-241.5 1396,-241.5 1396,-124 1396,-24.6 626.14,-12.24 419.52,-10.71"/>
<polygon fill="#63b8ff" stroke="#63b8ff" points="419.28,-7.21 409.26,-10.64 419.24,-14.21 419.28,-7.21"/>
</a>
</g>
</g>
<!-- Node3 -->
<g id="Node000003" class="node">
<title>Node3</title>
<g id="a_Node000003"><a xlink:href="Course_8h.html" target="_top" xlink:title=" ">
<polygon fill="white" stroke="#666666" points="906.5,-305 847.5,-305 847.5,-286 906.5,-286 906.5,-305"/>
<text text-anchor="middle" x="877" y="-293" font-family="Helvetica,sans-Serif" font-size="10.00">Course.h</text>
</a>
</g>
</g>
<!-- Node1&#45;&gt;Node3 -->
<g id="edge2_Node000001_Node000003" class="edge">
<title>Node1&#45;&gt;Node3</title>
<g id="a_edge2_Node000001_Node000003"><a xlink:title=" ">
<path fill="none" stroke="#63b8ff" d="M927.78,-340.84C917.76,-332.09 904.89,-320.85 894.62,-311.88"/>
<polygon fill="#63b8ff" stroke="#63b8ff" points="896.87,-309.21 887.04,-305.27 892.27,-314.48 896.87,-309.21"/>
</a>
</g>
</g>
<!-- Node6 -->
<g id="Node000006" class="node">
<title>Node6</title>
<g id="a_Node000006"><a xlink:href="camera_8h.html" target="_top" xlink:title=" ">
<polygon fill="white" stroke="#666666" points="586,-195 524,-195 524,-176 586,-176 586,-195"/>
<text text-anchor="middle" x="555" y="-183" font-family="Helvetica,sans-Serif" font-size="10.00">camera.h</text>
</a>
</g>
</g>
<!-- Node1&#45;&gt;Node6 -->
<g id="edge61_Node000001_Node000006" class="edge">
<title>Node1&#45;&gt;Node6</title>
<g id="a_edge61_Node000001_Node000006"><a xlink:title=" ">
<path fill="none" stroke="#63b8ff" d="M890.17,-348.27C793.87,-335.03 598.27,-302.23 557,-250 547.18,-237.57 547.75,-219.1 550.14,-205.28"/>
<polygon fill="#63b8ff" stroke="#63b8ff" points="553.58,-205.92 552.29,-195.4 546.74,-204.43 553.58,-205.92"/>
</a>
</g>
</g>
<!-- Node8 -->
<g id="Node000008" class="node">
<title>Node8</title>
<g id="a_Node000008"><a xlink:href="course__offsets_8h.html" target="_top" xlink:title=" ">
<polygon fill="white" stroke="#666666" points="506,-195 410,-195 410,-176 506,-176 506,-195"/>
<text text-anchor="middle" x="458" y="-183" font-family="Helvetica,sans-Serif" font-size="10.00">course_offsets.h</text>
</a>
</g>
</g>
<!-- Node1&#45;&gt;Node8 -->
<g id="edge60_Node000001_Node000008" class="edge">
<title>Node1&#45;&gt;Node8</title>
<g id="a_edge60_Node000001_Node000008"><a xlink:title=" ">
<path fill="none" stroke="#63b8ff" d="M890.3,-352.79C823.81,-348.72 707.85,-337.24 614,-305 566.76,-288.77 555.12,-281.06 516,-250 498.54,-236.14 481.72,-216.85 470.73,-203.18"/>
<polygon fill="#63b8ff" stroke="#63b8ff" points="473.33,-200.82 464.4,-195.11 467.82,-205.14 473.33,-200.82"/>
</a>
</g>
</g>
<!-- Node14 -->
<g id="Node000014" class="node">
<title>Node14</title>
<g id="a_Node000014"><a xlink:href="src_2data_2some__data_8h.html" target="_top" xlink:title=" ">
<polygon fill="white" stroke="#666666" points="1309,-250 1205,-250 1205,-231 1309,-231 1309,-250"/>
<text text-anchor="middle" x="1257" y="-238" font-family="Helvetica,sans-Serif" font-size="10.00">data/some_data.h</text>
</a>
</g>
</g>
<!-- Node1&#45;&gt;Node14 -->
<g id="edge62_Node000001_Node000014" class="edge">
<title>Node1&#45;&gt;Node14</title>
<g id="a_edge62_Node000001_Node000014"><a xlink:title=" ">
<path fill="none" stroke="#63b8ff" d="M982.69,-340.97C1044.7,-318.49 1165.25,-274.77 1223.67,-253.59"/>
<polygon fill="#63b8ff" stroke="#63b8ff" points="1224.95,-256.84 1233.16,-250.14 1222.57,-250.26 1224.95,-256.84"/>
</a>
</g>
</g>
<!-- Node16 -->
<g id="Node000016" class="node">
<title>Node16</title>
<g id="a_Node000016"><a xlink:href="objects_8h.html" target="_top" xlink:title=" ">
<polygon fill="white" stroke="#666666" points="1367.5,-195 1306.5,-195 1306.5,-176 1367.5,-176 1367.5,-195"/>
<text text-anchor="middle" x="1337" y="-183" font-family="Helvetica,sans-Serif" font-size="10.00">objects.h</text>
</a>
</g>
</g>
<!-- Node1&#45;&gt;Node16 -->
<g id="edge63_Node000001_Node000016" class="edge">
<title>Node1&#45;&gt;Node16</title>
<g id="a_edge63_Node000001_Node000016"><a xlink:title=" ">
<path fill="none" stroke="#63b8ff" d="M997.76,-355.34C1078.4,-352.85 1230.52,-336.1 1318,-250 1329.91,-238.28 1334.42,-219.43 1336.09,-205.31"/>
<polygon fill="#63b8ff" stroke="#63b8ff" points="1339.59,-205.47 1336.92,-195.22 1332.62,-204.9 1339.59,-205.47"/>
</a>
</g>
</g>
<!-- Node21 -->
<g id="Node000021" class="node">
<title>Node21</title>
<g id="a_Node000021"><a xlink:href="path__spawn__metadata_8h.html" target="_top" xlink:title=" ">
<polygon fill="white" stroke="#666666" points="1148.5,-250 1011.5,-250 1011.5,-231 1148.5,-231 1148.5,-250"/>
<text text-anchor="middle" x="1080" y="-238" font-family="Helvetica,sans-Serif" font-size="10.00">path_spawn_metadata.h</text>
</a>
</g>
</g>
<!-- Node1&#45;&gt;Node21 -->
<g id="edge64_Node000001_Node000021" class="edge">
<title>Node1&#45;&gt;Node21</title>
<g id="a_edge64_Node000001_Node000021"><a xlink:title=" ">
<path fill="none" stroke="#63b8ff" d="M960.95,-340.85C986.65,-319.41 1035.28,-278.82 1061.74,-256.74"/>
<polygon fill="#63b8ff" stroke="#63b8ff" points="1064.06,-259.37 1069.49,-250.27 1059.57,-253.99 1064.06,-259.37"/>
</a>
</g>
</g>
<!-- Node25 -->
<g id="Node000025" class="node">
<title>Node25</title>
<g id="a_Node000025"><a xlink:href="choco__mountain__vertices_8h.html" target="_top" xlink:title=" ">
<polygon fill="white" stroke="#666666" points="285.5,-140 154.5,-140 154.5,-110 285.5,-110 285.5,-140"/>
<text text-anchor="start" x="162.5" y="-128" font-family="Helvetica,sans-Serif" font-size="10.00">assets/choco_mountain</text>
<text text-anchor="middle" x="220" y="-117" font-family="Helvetica,sans-Serif" font-size="10.00">_vertices.h</text>
</a>
</g>
</g>
<!-- Node1&#45;&gt;Node25 -->
<g id="edge48_Node000001_Node000025" class="edge">
<title>Node1&#45;&gt;Node25</title>
<g id="a_edge48_Node000001_Node000025"><a xlink:title=" ">
<path fill="none" stroke="#63b8ff" d="M890.25,-351.66C790.71,-344.99 581.55,-328.63 513,-305 404.55,-267.62 293.57,-185.28 245.16,-146.71"/>
<polygon fill="#63b8ff" stroke="#63b8ff" points="247.11,-143.79 237.13,-140.25 242.73,-149.24 247.11,-143.79"/>
</a>
</g>
</g>
<!-- Node26 -->
<g id="Node000026" class="node">
<title>Node26</title>
<g id="a_Node000026"><a xlink:href="choco__mountain__displaylists_8h.html" target="_top" xlink:title=" ">
<polygon fill="white" stroke="#666666" points="434.5,-140 303.5,-140 303.5,-110 434.5,-110 434.5,-140"/>
<text text-anchor="start" x="311.5" y="-128" font-family="Helvetica,sans-Serif" font-size="10.00">assets/choco_mountain</text>
<text text-anchor="middle" x="369" y="-117" font-family="Helvetica,sans-Serif" font-size="10.00">_displaylists.h</text>
</a>
</g>
</g>
<!-- Node1&#45;&gt;Node26 -->
<g id="edge52_Node000001_Node000026" class="edge">
<title>Node1&#45;&gt;Node26</title>
<g id="a_edge52_Node000001_Node000026"><a xlink:title=" ">
<path fill="none" stroke="#63b8ff" d="M890.35,-355.66C814.83,-354.9 673.99,-347.22 563,-305 481.66,-274.06 457.35,-261.32 401,-195 389.79,-181.8 381.66,-164.01 376.41,-149.81"/>
<polygon fill="#63b8ff" stroke="#63b8ff" points="379.66,-148.51 373.08,-140.21 373.05,-150.8 379.66,-148.51"/>
</a>
</g>
</g>
<!-- Node27 -->
<g id="Node000027" class="node">
<title>Node27</title>
<g id="a_Node000027"><a xlink:href="choco__mountain__data_8h.html" target="_top" xlink:title=" ">
<polygon fill="white" stroke="#666666" points="660.5,-140 529.5,-140 529.5,-110 660.5,-110 660.5,-140"/>
<text text-anchor="start" x="537.5" y="-128" font-family="Helvetica,sans-Serif" font-size="10.00">assets/choco_mountain</text>
<text text-anchor="middle" x="595" y="-117" font-family="Helvetica,sans-Serif" font-size="10.00">_data.h</text>
</a>
</g>
</g>
<!-- Node1&#45;&gt;Node27 -->
<g id="edge56_Node000001_Node000027" class="edge">
<title>Node1&#45;&gt;Node27</title>
<g id="a_edge56_Node000001_Node000027"><a xlink:title=" ">
<path fill="none" stroke="#63b8ff" d="M947.77,-340.54C955.65,-306.64 969.72,-221.48 926,-176 888.13,-136.61 741.99,-147.97 671.12,-139.87"/>
<polygon fill="#63b8ff" stroke="#63b8ff" points="671.2,-136.35 660.82,-138.46 670.25,-143.28 671.2,-136.35"/>
</a>
</g>
</g>
<!-- Node4 -->
<g id="Node000004" class="node">
<title>Node4</title>
<g id="a_Node000004"><a xlink:title=" ">
<polygon fill="#e0e0e0" stroke="#999999" points="799,-250 661,-250 661,-231 799,-231 799,-250"/>
<text text-anchor="middle" x="730" y="-238" font-family="Helvetica,sans-Serif" font-size="10.00">libultraship/libultraship.h</text>
</a>
</g>
</g>
<!-- Node3&#45;&gt;Node4 -->
<g id="edge3_Node000003_Node000004" class="edge">
<title>Node3&#45;&gt;Node4</title>
<g id="a_edge3_Node000003_Node000004"><a xlink:title=" ">
<path fill="none" stroke="#63b8ff" d="M853.38,-285.98C829.1,-277.23 791.05,-263.51 763.63,-253.62"/>
<polygon fill="#63b8ff" stroke="#63b8ff" points="764.64,-250.27 754.05,-250.17 762.27,-256.85 764.64,-250.27"/>
</a>
</g>
</g>
<!-- Node5 -->
<g id="Node000005" class="node">
<title>Node5</title>
<g id="a_Node000005"><a xlink:href="CoreMath_8h.html" target="_top" xlink:title=" ">
<polygon fill="white" stroke="#666666" points="116.5,-195 43.5,-195 43.5,-176 116.5,-176 116.5,-195"/>
<text text-anchor="middle" x="80" y="-183" font-family="Helvetica,sans-Serif" font-size="10.00">CoreMath.h</text>
</a>
</g>
</g>
<!-- Node3&#45;&gt;Node5 -->
<g id="edge4_Node000003_Node000005" class="edge">
<title>Node3&#45;&gt;Node5</title>
<g id="a_edge4_Node000003_Node000005"><a xlink:title=" ">
<path fill="none" stroke="#63b8ff" d="M847.49,-291.09C785.86,-283.9 638.98,-266.53 516,-250 374.16,-230.93 206.76,-205.82 126.92,-193.68"/>
<polygon fill="#63b8ff" stroke="#63b8ff" points="127.12,-190.17 116.71,-192.12 126.07,-197.09 127.12,-190.17"/>
</a>
</g>
</g>
<!-- Node3&#45;&gt;Node6 -->
<g id="edge6_Node000003_Node000006" class="edge">
<title>Node3&#45;&gt;Node6</title>
<g id="a_edge6_Node000003_Node000006"><a xlink:title=" ">
<path fill="none" stroke="#63b8ff" d="M847.41,-294.08C779.38,-292.51 614.57,-285.08 574,-250 561.22,-238.95 556.85,-219.7 555.45,-205.28"/>
<polygon fill="#63b8ff" stroke="#63b8ff" points="558.93,-204.79 554.85,-195.01 551.94,-205.19 558.93,-204.79"/>
</a>
</g>
</g>
<!-- Node7 -->
<g id="Node000007" class="node">
<title>Node7</title>
<g id="a_Node000007"><a xlink:href="common__structs_8h.html" target="_top" xlink:title=" ">
<polygon fill="white" stroke="#666666" points="1190.5,-74 1083.5,-74 1083.5,-55 1190.5,-55 1190.5,-74"/>
<text text-anchor="middle" x="1137" y="-62" font-family="Helvetica,sans-Serif" font-size="10.00">common_structs.h</text>
</a>
</g>
</g>
<!-- Node3&#45;&gt;Node7 -->
<g id="edge47_Node000003_Node000007" class="edge">
<title>Node3&#45;&gt;Node7</title>
<g id="a_edge47_Node000003_Node000007"><a xlink:title=" ">
<path fill="none" stroke="#63b8ff" d="M891.8,-285.98C942.14,-256.88 1104.44,-162.06 1120,-140 1131.57,-123.6 1135.4,-100.57 1136.6,-84.47"/>
<polygon fill="#63b8ff" stroke="#63b8ff" points="1140.11,-84.32 1137.08,-74.16 1133.12,-83.99 1140.11,-84.32"/>
</a>
</g>
</g>
<!-- Node3&#45;&gt;Node8 -->
<g id="edge10_Node000003_Node000008" class="edge">
<title>Node3&#45;&gt;Node8</title>
<g id="a_edge10_Node000003_Node000008"><a xlink:title=" ">
<path fill="none" stroke="#63b8ff" d="M847.3,-294.57C789.53,-293.81 658.8,-287.65 557,-250 526.25,-238.63 495.13,-216.54 476.19,-201.65"/>
<polygon fill="#63b8ff" stroke="#63b8ff" points="478.15,-198.73 468.17,-195.19 473.76,-204.19 478.15,-198.73"/>
</a>
</g>
</g>
<!-- Node3&#45;&gt;Node14 -->
<g id="edge19_Node000003_Node000014" class="edge">
<title>Node3&#45;&gt;Node14</title>
<g id="a_edge19_Node000003_Node000014"><a xlink:title=" ">
<path fill="none" stroke="#63b8ff" d="M906.5,-290.39C968.19,-281.78 1111.95,-261.73 1194.92,-250.16"/>
<polygon fill="#63b8ff" stroke="#63b8ff" points="1195.56,-253.6 1204.98,-248.76 1194.59,-246.67 1195.56,-253.6"/>
</a>
</g>
</g>
<!-- Node17 -->
<g id="Node000017" class="node">
<title>Node17</title>
<g id="a_Node000017"><a xlink:href="defines_8h.html" target="_top" xlink:title=" ">
<polygon fill="white" stroke="#666666" points="878.5,-250 817.5,-250 817.5,-231 878.5,-231 878.5,-250"/>
<text text-anchor="middle" x="848" y="-238" font-family="Helvetica,sans-Serif" font-size="10.00">defines.h</text>
</a>
</g>
</g>
<!-- Node3&#45;&gt;Node17 -->
<g id="edge27_Node000003_Node000017" class="edge">
<title>Node3&#45;&gt;Node17</title>
<g id="a_edge27_Node000003_Node000017"><a xlink:title=" ">
<path fill="none" stroke="#63b8ff" d="M872.21,-285.75C868.24,-278.49 862.47,-267.95 857.57,-258.98"/>
<polygon fill="#63b8ff" stroke="#63b8ff" points="860.57,-257.18 852.7,-250.09 854.43,-260.54 860.57,-257.18"/>
</a>
</g>
</g>
<!-- Node18 -->
<g id="Node000018" class="node">
<title>Node18</title>
<g id="a_Node000018"><a xlink:href="bomb__kart_8h.html" target="_top" xlink:title=" ">
<polygon fill="white" stroke="#666666" points="916.5,-195 839.5,-195 839.5,-176 916.5,-176 916.5,-195"/>
<text text-anchor="middle" x="878" y="-183" font-family="Helvetica,sans-Serif" font-size="10.00">bomb_kart.h</text>
</a>
</g>
</g>
<!-- Node3&#45;&gt;Node18 -->
<g id="edge28_Node000003_Node000018" class="edge">
<title>Node3&#45;&gt;Node18</title>
<g id="a_edge28_Node000003_Node000018"><a xlink:title=" ">
<path fill="none" stroke="#63b8ff" d="M879.83,-285.75C882.55,-276.86 886.46,-262.64 888,-250 889.86,-234.75 886.82,-217.54 883.62,-204.88"/>
<polygon fill="#63b8ff" stroke="#63b8ff" points="886.95,-203.79 880.89,-195.1 880.21,-205.67 886.95,-203.79"/>
</a>
</g>
</g>
<!-- Node3&#45;&gt;Node21 -->
<g id="edge35_Node000003_Node000021" class="edge">
<title>Node3&#45;&gt;Node21</title>
<g id="a_edge35_Node000003_Node000021"><a xlink:title=" ">
<path fill="none" stroke="#63b8ff" d="M906.52,-286.79C941.01,-277.79 998.36,-262.81 1037.61,-252.57"/>
<polygon fill="#63b8ff" stroke="#63b8ff" points="1038.63,-255.92 1047.42,-250.01 1036.86,-249.15 1038.63,-255.92"/>
</a>
</g>
</g>
<!-- Node22 -->
<g id="Node000022" class="node">
<title>Node22</title>
<g id="a_Node000022"><a xlink:href="waypoints_8h.html" target="_top" xlink:title=" ">
<polygon fill="white" stroke="#666666" points="1174,-195 1098,-195 1098,-176 1174,-176 1174,-195"/>
<text text-anchor="middle" x="1136" y="-183" font-family="Helvetica,sans-Serif" font-size="10.00">waypoints.h</text>
</a>
</g>
</g>
<!-- Node3&#45;&gt;Node22 -->
<g id="edge45_Node000003_Node000022" class="edge">
<title>Node3&#45;&gt;Node22</title>
<g id="a_edge45_Node000003_Node000022"><a xlink:title=" ">
<path fill="none" stroke="#63b8ff" d="M906.85,-294.44C972.46,-293.59 1125.92,-287.56 1158,-250 1169.31,-236.75 1159.95,-217.36 1150.18,-203.5"/>
<polygon fill="#63b8ff" stroke="#63b8ff" points="1152.76,-201.12 1143.91,-195.3 1147.2,-205.37 1152.76,-201.12"/>
</a>
</g>
</g>
<!-- Node24 -->
<g id="Node000024" class="node">
<title>Node24</title>
<g id="a_Node000024"><a xlink:href="sounds_8h.html" target="_top" xlink:title=" ">
<polygon fill="white" stroke="#666666" points="643,-250 583,-250 583,-231 643,-231 643,-250"/>
<text text-anchor="middle" x="613" y="-238" font-family="Helvetica,sans-Serif" font-size="10.00">sounds.h</text>
</a>
</g>
</g>
<!-- Node3&#45;&gt;Node24 -->
<g id="edge46_Node000003_Node000024" class="edge">
<title>Node3&#45;&gt;Node24</title>
<g id="a_edge46_Node000003_Node000024"><a xlink:title=" ">
<path fill="none" stroke="#63b8ff" d="M847.48,-288.85C806.29,-280.93 728.99,-265.91 653.39,-250.26"/>
<polygon fill="#63b8ff" stroke="#63b8ff" points="653.72,-246.75 643.22,-248.15 652.3,-253.61 653.72,-246.75"/>
</a>
</g>
</g>
<!-- Node5&#45;&gt;Node2 -->
<g id="edge5_Node000005_Node000002" class="edge">
<title>Node5&#45;&gt;Node2</title>
<g id="a_edge5_Node000005_Node000002"><a xlink:title=" ">
<path fill="none" stroke="#63b8ff" d="M60.73,-175.9C46.88,-168.55 29.24,-156.54 21,-140 14.15,-126.24 18.7,-61.66 25,-55 64.11,-13.63 233.08,-9.1 318.77,-9.55"/>
<polygon fill="#63b8ff" stroke="#63b8ff" points="318.76,-13.05 328.79,-9.63 318.82,-6.05 318.76,-13.05"/>
</a>
</g>
</g>
<!-- Node6&#45;&gt;Node2 -->
<g id="edge7_Node000006_Node000002" class="edge">
<title>Node6&#45;&gt;Node2</title>
<g id="a_edge7_Node000006_Node000002"><a xlink:title=" ">
<path fill="none" stroke="#63b8ff" d="M523.63,-177.44C520.72,-176.9 517.81,-176.41 515,-176 466.36,-168.88 107.32,-176.15 74,-140 48.4,-112.22 49.36,-83.64 74,-55 104.97,-19 242.94,-11.74 318.72,-10.52"/>
<polygon fill="#63b8ff" stroke="#63b8ff" points="319.03,-14.02 328.99,-10.39 318.94,-7.02 319.03,-14.02"/>
</a>
</g>
</g>
<!-- Node6&#45;&gt;Node7 -->
<g id="edge8_Node000006_Node000007" class="edge">
<title>Node6&#45;&gt;Node7</title>
<g id="a_edge8_Node000006_Node000007"><a xlink:title=" ">
<path fill="none" stroke="#63b8ff" d="M586.11,-182.99C689.55,-177.78 1017.9,-159.85 1061,-140 1068.41,-136.59 1101.75,-102.44 1121.73,-81.58"/>
<polygon fill="#63b8ff" stroke="#63b8ff" points="1124.52,-83.73 1128.89,-74.08 1119.45,-78.9 1124.52,-83.73"/>
</a>
</g>
</g>
<!-- Node7&#45;&gt;Node2 -->
<g id="edge9_Node000007_Node000002" class="edge">
<title>Node7&#45;&gt;Node2</title>
<g id="a_edge9_Node000007_Node000002"><a xlink:title=" ">
<path fill="none" stroke="#63b8ff" d="M1083.3,-59.79C941.31,-50 557.4,-23.5 419.32,-13.97"/>
<polygon fill="#63b8ff" stroke="#63b8ff" points="419.26,-10.46 409.04,-13.26 418.78,-17.44 419.26,-10.46"/>
</a>
</g>
</g>
<!-- Node8&#45;&gt;Node2 -->
<g id="edge11_Node000008_Node000002" class="edge">
<title>Node8&#45;&gt;Node2</title>
<g id="a_edge11_Node000008_Node000002"><a xlink:title=" ">
<path fill="none" stroke="#63b8ff" d="M409.97,-182.92C305.56,-178.97 65.31,-167.04 41,-140 15.74,-111.91 16.15,-83.45 41,-55 76.44,-14.43 235.89,-9.42 318.7,-9.64"/>
<polygon fill="#63b8ff" stroke="#63b8ff" points="318.87,-13.14 328.89,-9.69 318.91,-6.14 318.87,-13.14"/>
</a>
</g>
</g>
<!-- Node9 -->
<g id="Node000009" class="node">
<title>Node9</title>
<g id="a_Node000009"><a xlink:title=" ">
<polygon fill="#e0e0e0" stroke="#999999" points="90,-19 0,-19 0,0 90,0 90,-19"/>
<text text-anchor="middle" x="45" y="-7" font-family="Helvetica,sans-Serif" font-size="10.00">libultra/types.h</text>
</a>
</g>
</g>
<!-- Node8&#45;&gt;Node9 -->
<g id="edge12_Node000008_Node000009" class="edge">
<title>Node8&#45;&gt;Node9</title>
<g id="a_edge12_Node000008_Node000009"><a xlink:title=" ">
<path fill="none" stroke="#63b8ff" d="M409.71,-183.16C301.44,-179.65 46.69,-168.44 21,-140 -7.26,-108.72 17.63,-55.33 33.77,-27.9"/>
<polygon fill="#63b8ff" stroke="#63b8ff" points="36.96,-29.41 39.21,-19.06 30.99,-25.74 36.96,-29.41"/>
</a>
</g>
</g>
<!-- Node10 -->
<g id="Node000010" class="node">
<title>Node10</title>
<g id="a_Node000010"><a xlink:title=" ">
<polygon fill="#e0e0e0" stroke="#999999" points="489,-74 411,-74 411,-55 489,-55 489,-74"/>
<text text-anchor="middle" x="450" y="-62" font-family="Helvetica,sans-Serif" font-size="10.00">libultra/gbi.h</text>
</a>
</g>
</g>
<!-- Node8&#45;&gt;Node10 -->
<g id="edge13_Node000008_Node000010" class="edge">
<title>Node8&#45;&gt;Node10</title>
<g id="a_edge13_Node000008_Node000010"><a xlink:title=" ">
<path fill="none" stroke="#63b8ff" d="M457.42,-175.94C456.15,-156.91 453.04,-110.69 451.28,-84.47"/>
<polygon fill="#63b8ff" stroke="#63b8ff" points="454.75,-84.04 450.59,-74.3 447.77,-84.51 454.75,-84.04"/>
</a>
</g>
</g>
<!-- Node11 -->
<g id="Node000011" class="node">
<title>Node11</title>
<g id="a_Node000011"><a xlink:href="other__textures_8h.html" target="_top" xlink:title=" ">
<polygon fill="white" stroke="#666666" points="958.5,-134.5 827.5,-134.5 827.5,-115.5 958.5,-115.5 958.5,-134.5"/>
<text text-anchor="middle" x="893" y="-122.5" font-family="Helvetica,sans-Serif" font-size="10.00">assets/other_textures.h</text>
</a>
</g>
</g>
<!-- Node8&#45;&gt;Node11 -->
<g id="edge14_Node000008_Node000011" class="edge">
<title>Node8&#45;&gt;Node11</title>
<g id="a_edge14_Node000008_Node000011"><a xlink:title=" ">
<path fill="none" stroke="#63b8ff" d="M506.19,-177.21C509.17,-176.79 512.12,-176.39 515,-176 649.41,-158 683.94,-160.45 818,-140 825.11,-138.91 832.58,-137.66 839.94,-136.36"/>
<polygon fill="#63b8ff" stroke="#63b8ff" points="840.64,-139.79 849.85,-134.56 839.39,-132.9 840.64,-139.79"/>
</a>
</g>
</g>
<!-- Node13 -->
<g id="Node000013" class="node">
<title>Node13</title>
<g id="a_Node000013"><a xlink:href="animation_8h.html" target="_top" xlink:title=" ">
<polygon fill="white" stroke="#666666" points="1051.5,-134.5 976.5,-134.5 976.5,-115.5 1051.5,-115.5 1051.5,-134.5"/>
<text text-anchor="middle" x="1014" y="-122.5" font-family="Helvetica,sans-Serif" font-size="10.00">animation.h</text>
</a>
</g>
</g>
<!-- Node8&#45;&gt;Node13 -->
<g id="edge17_Node000008_Node000013" class="edge">
<title>Node8&#45;&gt;Node13</title>
<g id="a_edge17_Node000008_Node000013"><a xlink:title=" ">
<path fill="none" stroke="#63b8ff" d="M506.17,-177.08C509.16,-176.69 512.12,-176.33 515,-176 715.66,-153.09 769.57,-177.62 968,-140 971.86,-139.27 975.85,-138.33 979.8,-137.29"/>
<polygon fill="#63b8ff" stroke="#63b8ff" points="980.76,-140.66 989.42,-134.55 978.84,-133.93 980.76,-140.66"/>
</a>
</g>
</g>
<!-- Node11&#45;&gt;Node2 -->
<g id="edge15_Node000011_Node000002" class="edge">
<title>Node11&#45;&gt;Node2</title>
<g id="a_edge15_Node000011_Node000002"><a xlink:title=" ">
<path fill="none" stroke="#63b8ff" d="M870.97,-115.47C832.69,-100.98 751.19,-71.5 680,-55 589.34,-33.99 481.37,-21.22 419.44,-15.04"/>
<polygon fill="#63b8ff" stroke="#63b8ff" points="419.46,-11.52 409.17,-14.03 418.78,-18.49 419.46,-11.52"/>
</a>
</g>
</g>
<!-- Node12 -->
<g id="Node000012" class="node">
<title>Node12</title>
<g id="a_Node000012"><a xlink:href="align__asset__macro_8h.html" target="_top" xlink:title=" ">
<polygon fill="white" stroke="#666666" points="624.5,-74 507.5,-74 507.5,-55 624.5,-55 624.5,-74"/>
<text text-anchor="middle" x="566" y="-62" font-family="Helvetica,sans-Serif" font-size="10.00">align_asset_macro.h</text>
</a>
</g>
</g>
<!-- Node11&#45;&gt;Node12 -->
<g id="edge16_Node000011_Node000012" class="edge">
<title>Node11&#45;&gt;Node12</title>
<g id="a_edge16_Node000011_Node000012"><a xlink:title=" ">
<path fill="none" stroke="#63b8ff" d="M847.8,-115.49C837.98,-113.66 827.64,-111.75 818,-110 752.02,-98.02 676.24,-84.69 625.16,-75.78"/>
<polygon fill="#63b8ff" stroke="#63b8ff" points="625.73,-72.33 615.28,-74.06 624.53,-79.22 625.73,-72.33"/>
</a>
</g>
</g>
<!-- Node13&#45;&gt;Node7 -->
<g id="edge18_Node000013_Node000007" class="edge">
<title>Node13&#45;&gt;Node7</title>
<g id="a_edge18_Node000013_Node000007"><a xlink:title=" ">
<path fill="none" stroke="#63b8ff" d="M1031.89,-115.49C1052.38,-105.75 1086.19,-89.66 1109.92,-78.38"/>
<polygon fill="#63b8ff" stroke="#63b8ff" points="1111.57,-81.47 1119.09,-74.02 1108.56,-75.15 1111.57,-81.47"/>
</a>
</g>
</g>
<!-- Node14&#45;&gt;Node10 -->
<g id="edge20_Node000014_Node000010" class="edge">
<title>Node14&#45;&gt;Node10</title>
<g id="a_edge20_Node000014_Node000010"><a xlink:title=" ">
<path fill="none" stroke="#63b8ff" d="M1250.36,-230.95C1238.6,-216.54 1212.54,-187.86 1183,-176 1046.07,-121.04 653.78,-202.23 520,-140 493.93,-127.87 472.82,-101.26 460.84,-83.35"/>
<polygon fill="#63b8ff" stroke="#63b8ff" points="463.48,-80.99 455.14,-74.45 457.58,-84.76 463.48,-80.99"/>
</a>
</g>
</g>
<!-- Node14&#45;&gt;Node11 -->
<g id="edge23_Node000014_Node000011" class="edge">
<title>Node14&#45;&gt;Node11</title>
<g id="a_edge23_Node000014_Node000011"><a xlink:title=" ">
<path fill="none" stroke="#63b8ff" d="M1254.09,-230.81C1248.88,-216.73 1236.54,-189.19 1216,-176 1122.28,-115.82 1077.88,-158.22 968,-140 961.24,-138.88 954.15,-137.64 947.14,-136.37"/>
<polygon fill="#63b8ff" stroke="#63b8ff" points="947.43,-132.87 936.97,-134.51 946.18,-139.76 947.43,-132.87"/>
</a>
</g>
</g>
<!-- Node15 -->
<g id="Node000015" class="node">
<title>Node15</title>
<g id="a_Node000015"><a xlink:href="spline_8h.html" target="_top" xlink:title=" ">
<polygon fill="white" stroke="#666666" points="1315.5,-134.5 1260.5,-134.5 1260.5,-115.5 1315.5,-115.5 1315.5,-134.5"/>
<text text-anchor="middle" x="1288" y="-122.5" font-family="Helvetica,sans-Serif" font-size="10.00">spline.h</text>
</a>
</g>
</g>
<!-- Node14&#45;&gt;Node15 -->
<g id="edge21_Node000014_Node000015" class="edge">
<title>Node14&#45;&gt;Node15</title>
<g id="a_edge21_Node000014_Node000015"><a xlink:title=" ">
<path fill="none" stroke="#63b8ff" d="M1259.33,-230.97C1264.33,-212.65 1276.21,-169.18 1283,-144.31"/>
<polygon fill="#63b8ff" stroke="#63b8ff" points="1286.38,-145.2 1285.64,-134.63 1279.63,-143.35 1286.38,-145.2"/>
</a>
</g>
</g>
<!-- Node14&#45;&gt;Node16 -->
<g id="edge24_Node000014_Node000016" class="edge">
<title>Node14&#45;&gt;Node16</title>
<g id="a_edge24_Node000014_Node000016"><a xlink:title=" ">
<path fill="none" stroke="#63b8ff" d="M1269.85,-230.98C1282.14,-222.84 1300.91,-210.41 1315.48,-200.76"/>
<polygon fill="#63b8ff" stroke="#63b8ff" points="1317.51,-203.61 1323.91,-195.17 1313.64,-197.78 1317.51,-203.61"/>
</a>
</g>
</g>
<!-- Node15&#45;&gt;Node7 -->
<g id="edge22_Node000015_Node000007" class="edge">
<title>Node15&#45;&gt;Node7</title>
<g id="a_edge22_Node000015_Node000007"><a xlink:title=" ">
<path fill="none" stroke="#63b8ff" d="M1266.04,-115.49C1240.32,-105.53 1197.52,-88.95 1168.32,-77.63"/>
<polygon fill="#63b8ff" stroke="#63b8ff" points="1169.57,-74.37 1158.98,-74.02 1167.04,-80.89 1169.57,-74.37"/>
</a>
</g>
</g>
<!-- Node16&#45;&gt;Node7 -->
<g id="edge26_Node000016_Node000007" class="edge">
<title>Node16&#45;&gt;Node7</title>
<g id="a_edge26_Node000016_Node000007"><a xlink:title=" ">
<path fill="none" stroke="#63b8ff" d="M1338.4,-175.83C1340.35,-160.44 1341.95,-128.23 1325,-110 1308.16,-91.88 1248.3,-79.87 1200.6,-72.94"/>
<polygon fill="#63b8ff" stroke="#63b8ff" points="1201.02,-69.47 1190.63,-71.54 1200.04,-76.4 1201.02,-69.47"/>
</a>
</g>
</g>
<!-- Node16&#45;&gt;Node15 -->
<g id="edge25_Node000016_Node000015" class="edge">
<title>Node16&#45;&gt;Node15</title>
<g id="a_edge25_Node000016_Node000015"><a xlink:title=" ">
<path fill="none" stroke="#63b8ff" d="M1329.77,-175.87C1322.46,-167.14 1310.98,-153.43 1301.9,-142.59"/>
<polygon fill="#63b8ff" stroke="#63b8ff" points="1304.36,-140.09 1295.26,-134.67 1299,-144.58 1304.36,-140.09"/>
</a>
</g>
</g>
<!-- Node18&#45;&gt;Node7 -->
<g id="edge29_Node000018_Node000007" class="edge">
<title>Node18&#45;&gt;Node7</title>
<g id="a_edge29_Node000018_Node000007"><a xlink:title=" ">
<path fill="none" stroke="#63b8ff" d="M916.73,-178.29C974.95,-168.69 1079.76,-150.28 1094,-140 1113.15,-126.17 1125.05,-100.99 1131.35,-83.77"/>
<polygon fill="#63b8ff" stroke="#63b8ff" points="1134.68,-84.83 1134.56,-74.24 1128.05,-82.6 1134.68,-84.83"/>
</a>
</g>
</g>
<!-- Node19 -->
<g id="Node000019" class="node">
<title>Node19</title>
<g id="a_Node000019"><a xlink:href="mk64_8h.html" target="_top" xlink:title=" ">
<polygon fill="white" stroke="#666666" points="136.5,-134.5 83.5,-134.5 83.5,-115.5 136.5,-115.5 136.5,-134.5"/>
<text text-anchor="middle" x="110" y="-122.5" font-family="Helvetica,sans-Serif" font-size="10.00">mk64.h</text>
</a>
</g>
</g>
<!-- Node18&#45;&gt;Node19 -->
<g id="edge30_Node000018_Node000019" class="edge">
<title>Node18&#45;&gt;Node19</title>
<g id="a_edge30_Node000018_Node000019"><a xlink:title=" ">
<path fill="none" stroke="#63b8ff" d="M839.31,-182.88C697.78,-176.83 212.88,-155.22 145,-140 142.63,-139.47 140.21,-138.8 137.81,-138.04"/>
<polygon fill="#63b8ff" stroke="#63b8ff" points="138.77,-134.66 128.18,-134.55 136.38,-141.24 138.77,-134.66"/>
</a>
</g>
</g>
<!-- Node19&#45;&gt;Node2 -->
<g id="edge31_Node000019_Node000002" class="edge">
<title>Node19&#45;&gt;Node2</title>
<g id="a_edge31_Node000019_Node000002"><a xlink:title=" ">
<path fill="none" stroke="#63b8ff" d="M129.47,-115.47C174.65,-95.67 286.85,-46.5 340.08,-23.17"/>
<polygon fill="#63b8ff" stroke="#63b8ff" points="341.55,-26.35 349.31,-19.13 338.74,-19.94 341.55,-26.35"/>
</a>
</g>
</g>
<!-- Node19&#45;&gt;Node10 -->
<g id="edge34_Node000019_Node000010" class="edge">
<title>Node19&#45;&gt;Node10</title>
<g id="a_edge34_Node000019_Node000010"><a xlink:title=" ">
<path fill="none" stroke="#63b8ff" d="M128.98,-115.47C134.1,-113.43 139.69,-111.43 145,-110 233.42,-86.22 339.89,-74.35 400.79,-69.09"/>
<polygon fill="#63b8ff" stroke="#63b8ff" points="401.22,-72.57 410.89,-68.24 400.63,-65.59 401.22,-72.57"/>
</a>
</g>
</g>
<!-- Node20 -->
<g id="Node000020" class="node">
<title>Node20</title>
<g id="a_Node000020"><a xlink:href="string_8h.html" target="_top" xlink:title=" ">
<polygon fill="white" stroke="#666666" points="136.5,-74 83.5,-74 83.5,-55 136.5,-55 136.5,-74"/>
<text text-anchor="middle" x="110" y="-62" font-family="Helvetica,sans-Serif" font-size="10.00">string.h</text>
</a>
</g>
</g>
<!-- Node19&#45;&gt;Node20 -->
<g id="edge32_Node000019_Node000020" class="edge">
<title>Node19&#45;&gt;Node20</title>
<g id="a_edge32_Node000019_Node000020"><a xlink:title=" ">
<path fill="none" stroke="#63b8ff" d="M110,-115.37C110,-107.25 110,-94.81 110,-84.39"/>
<polygon fill="#63b8ff" stroke="#63b8ff" points="113.5,-84.17 110,-74.17 106.5,-84.17 113.5,-84.17"/>
</a>
</g>
</g>
<!-- Node20&#45;&gt;Node9 -->
<g id="edge33_Node000020_Node000009" class="edge">
<title>Node20&#45;&gt;Node9</title>
<g id="a_edge33_Node000020_Node000009"><a xlink:title=" ">
<path fill="none" stroke="#63b8ff" d="M99.56,-54.98C89.85,-47.07 75.18,-35.11 63.5,-25.58"/>
<polygon fill="#63b8ff" stroke="#63b8ff" points="65.6,-22.78 55.63,-19.17 61.17,-28.2 65.6,-22.78"/>
</a>
</g>
</g>
<!-- Node21&#45;&gt;Node7 -->
<g id="edge38_Node000021_Node000007" class="edge">
<title>Node21&#45;&gt;Node7</title>
<g id="a_edge38_Node000021_Node000007"><a xlink:title=" ">
<path fill="none" stroke="#63b8ff" d="M1078.76,-230.7C1077.39,-217.44 1076.79,-192.17 1089,-176 1112.74,-144.56 1148.53,-173.03 1170,-140 1182.1,-121.39 1166.96,-97.6 1153.43,-81.97"/>
<polygon fill="#63b8ff" stroke="#63b8ff" points="1155.63,-79.19 1146.27,-74.22 1150.48,-83.94 1155.63,-79.19"/>
</a>
</g>
</g>
<!-- Node21&#45;&gt;Node18 -->
<g id="edge44_Node000021_Node000018" class="edge">
<title>Node21&#45;&gt;Node18</title>
<g id="a_edge44_Node000021_Node000018"><a xlink:title=" ">
<path fill="none" stroke="#63b8ff" d="M1047.55,-230.98C1013.04,-221.93 958.34,-207.58 920.44,-197.64"/>
<polygon fill="#63b8ff" stroke="#63b8ff" points="921.27,-194.23 910.71,-195.08 919.49,-201.01 921.27,-194.23"/>
</a>
</g>
</g>
<!-- Node21&#45;&gt;Node22 -->
<g id="edge36_Node000021_Node000022" class="edge">
<title>Node21&#45;&gt;Node22</title>
<g id="a_edge36_Node000021_Node000022"><a xlink:title=" ">
<path fill="none" stroke="#63b8ff" d="M1089,-230.98C1097.19,-223.23 1109.51,-211.58 1119.47,-202.14"/>
<polygon fill="#63b8ff" stroke="#63b8ff" points="1121.98,-204.59 1126.84,-195.17 1117.17,-199.5 1121.98,-204.59"/>
</a>
</g>
</g>
<!-- Node23 -->
<g id="Node000023" class="node">
<title>Node23</title>
<g id="a_Node000023"><a xlink:href="common__data_8h.html" target="_top" xlink:title=" ">
<polygon fill="white" stroke="#666666" points="809,-134.5 679,-134.5 679,-115.5 809,-115.5 809,-134.5"/>
<text text-anchor="middle" x="744" y="-122.5" font-family="Helvetica,sans-Serif" font-size="10.00">assets/common_data.h</text>
</a>
</g>
</g>
<!-- Node21&#45;&gt;Node23 -->
<g id="edge39_Node000021_Node000023" class="edge">
<title>Node21&#45;&gt;Node23</title>
<g id="a_edge39_Node000021_Node000023"><a xlink:title=" ">
<path fill="none" stroke="#63b8ff" d="M1071.68,-230.97C1057.64,-217.12 1027.76,-189.89 997,-176 992.45,-173.95 871.43,-150.48 798.44,-136.44"/>
<polygon fill="#63b8ff" stroke="#63b8ff" points="798.96,-132.98 788.48,-134.52 797.64,-139.85 798.96,-132.98"/>
</a>
</g>
</g>
<!-- Node22&#45;&gt;Node7 -->
<g id="edge37_Node000022_Node000007" class="edge">
<title>Node22&#45;&gt;Node7</title>
<g id="a_edge37_Node000022_Node000007"><a xlink:title=" ">
<path fill="none" stroke="#63b8ff" d="M1161.85,-175.99C1178.27,-169.09 1198.2,-157.58 1208,-140 1214.49,-128.35 1214.46,-121.67 1208,-110 1200.16,-95.83 1185.71,-85.57 1171.89,-78.5"/>
<polygon fill="#63b8ff" stroke="#63b8ff" points="1173.05,-75.18 1162.51,-74.1 1170.08,-81.52 1173.05,-75.18"/>
</a>
</g>
</g>
<!-- Node23&#45;&gt;Node2 -->
<g id="edge41_Node000023_Node000002" class="edge">
<title>Node23&#45;&gt;Node2</title>
<g id="a_edge41_Node000023_Node000002"><a xlink:title=" ">
<path fill="none" stroke="#63b8ff" d="M735.06,-115.08C719.36,-100 685.13,-69.65 650,-55 573.82,-23.23 477.37,-13.97 419.57,-11.38"/>
<polygon fill="#63b8ff" stroke="#63b8ff" points="419.37,-7.87 409.24,-10.97 419.09,-14.86 419.37,-7.87"/>
</a>
</g>
</g>
<!-- Node23&#45;&gt;Node7 -->
<g id="edge42_Node000023_Node000007" class="edge">
<title>Node23&#45;&gt;Node7</title>
<g id="a_edge42_Node000023_Node000007"><a xlink:title=" ">
<path fill="none" stroke="#63b8ff" d="M787.96,-115.45C798.14,-113.56 808.93,-111.64 819,-110 907,-95.64 1009.17,-81.85 1073.45,-73.53"/>
<polygon fill="#63b8ff" stroke="#63b8ff" points="1073.97,-76.99 1083.44,-72.24 1073.07,-70.05 1073.97,-76.99"/>
</a>
</g>
</g>
<!-- Node23&#45;&gt;Node10 -->
<g id="edge40_Node000023_Node000010" class="edge">
<title>Node23&#45;&gt;Node10</title>
<g id="a_edge40_Node000023_Node000010"><a xlink:title=" ">
<path fill="none" stroke="#63b8ff" d="M701.25,-115.49C647.58,-104.81 555.7,-86.53 499.17,-75.28"/>
<polygon fill="#63b8ff" stroke="#63b8ff" points="499.53,-71.79 489.04,-73.27 498.17,-78.65 499.53,-71.79"/>
</a>
</g>
</g>
<!-- Node23&#45;&gt;Node12 -->
<g id="edge43_Node000023_Node000012" class="edge">
<title>Node23&#45;&gt;Node12</title>
<g id="a_edge43_Node000023_Node000012"><a xlink:title=" ">
<path fill="none" stroke="#63b8ff" d="M718.12,-115.49C687.4,-105.4 636.02,-88.51 601.58,-77.19"/>
<polygon fill="#63b8ff" stroke="#63b8ff" points="602.51,-73.81 591.91,-74.02 600.32,-80.46 602.51,-73.81"/>
</a>
</g>
</g>
<!-- Node25&#45;&gt;Node2 -->
<g id="edge49_Node000025_Node000002" class="edge">
<title>Node25&#45;&gt;Node2</title>
<g id="a_edge49_Node000025_Node000002"><a xlink:title=" ">
<path fill="none" stroke="#63b8ff" d="M238.57,-109.85C266.85,-88.31 320.47,-47.47 349.37,-25.46"/>
<polygon fill="#63b8ff" stroke="#63b8ff" points="351.65,-28.11 357.49,-19.27 347.41,-22.55 351.65,-28.11"/>
</a>
</g>
</g>
<!-- Node25&#45;&gt;Node10 -->
<g id="edge50_Node000025_Node000010" class="edge">
<title>Node25&#45;&gt;Node10</title>
<g id="a_edge50_Node000025_Node000010"><a xlink:title=" ">
<path fill="none" stroke="#63b8ff" d="M275.09,-109.99C315.3,-99.76 369.06,-86.09 406.32,-76.61"/>
<polygon fill="#63b8ff" stroke="#63b8ff" points="407.54,-79.91 416.37,-74.05 405.82,-73.13 407.54,-79.91"/>
</a>
</g>
</g>
<!-- Node25&#45;&gt;Node12 -->
<g id="edge51_Node000025_Node000012" class="edge">
<title>Node25&#45;&gt;Node12</title>
<g id="a_edge51_Node000025_Node000012"><a xlink:title=" ">
<path fill="none" stroke="#63b8ff" d="M285.75,-111.47C288.54,-110.97 291.3,-110.48 294,-110 364.87,-97.5 446.34,-84.33 501.5,-75.59"/>
<polygon fill="#63b8ff" stroke="#63b8ff" points="502.16,-79.03 511.49,-74.01 501.06,-72.12 502.16,-79.03"/>
</a>
</g>
</g>
<!-- Node26&#45;&gt;Node2 -->
<g id="edge53_Node000026_Node000002" class="edge">
<title>Node26&#45;&gt;Node2</title>
<g id="a_edge53_Node000026_Node000002"><a xlink:title=" ">
<path fill="none" stroke="#63b8ff" d="M369,-109.63C369,-89.21 369,-51.81 369,-29.24"/>
<polygon fill="#63b8ff" stroke="#63b8ff" points="372.5,-29.23 369,-19.23 365.5,-29.23 372.5,-29.23"/>
</a>
</g>
</g>
<!-- Node26&#45;&gt;Node10 -->
<g id="edge54_Node000026_Node000010" class="edge">
<title>Node26&#45;&gt;Node10</title>
<g id="a_edge54_Node000026_Node000010"><a xlink:title=" ">
<path fill="none" stroke="#63b8ff" d="M388.61,-109.84C400.97,-100.91 416.9,-89.41 429.43,-80.35"/>
<polygon fill="#63b8ff" stroke="#63b8ff" points="431.8,-82.96 437.86,-74.27 427.71,-77.28 431.8,-82.96"/>
</a>
</g>
</g>
<!-- Node26&#45;&gt;Node12 -->
<g id="edge55_Node000026_Node000012" class="edge">
<title>Node26&#45;&gt;Node12</title>
<g id="a_edge55_Node000026_Node000012"><a xlink:title=" ">
<path fill="none" stroke="#63b8ff" d="M416.19,-109.99C450.18,-99.89 495.5,-86.44 527.36,-76.98"/>
<polygon fill="#63b8ff" stroke="#63b8ff" points="528.61,-80.26 537.2,-74.05 526.61,-73.55 528.61,-80.26"/>
</a>
</g>
</g>
<!-- Node27&#45;&gt;Node2 -->
<g id="edge57_Node000027_Node000002" class="edge">
<title>Node27&#45;&gt;Node2</title>
<g id="a_edge57_Node000027_Node000002"><a xlink:title=" ">
<path fill="none" stroke="#63b8ff" d="M612.74,-109.81C628.96,-95.13 648.4,-72.02 634,-55 607.06,-23.16 488.45,-14.09 419.39,-11.51"/>
<polygon fill="#63b8ff" stroke="#63b8ff" points="419.28,-8.01 409.16,-11.17 419.04,-15 419.28,-8.01"/>
</a>
</g>
</g>
<!-- Node27&#45;&gt;Node10 -->
<g id="edge58_Node000027_Node000010" class="edge">
<title>Node27&#45;&gt;Node10</title>
<g id="a_edge58_Node000027_Node000010"><a xlink:title=" ">
<path fill="none" stroke="#63b8ff" d="M560.27,-109.99C536.08,-100.23 504.1,-87.33 480.81,-77.93"/>
<polygon fill="#63b8ff" stroke="#63b8ff" points="482,-74.63 471.41,-74.14 479.38,-81.13 482,-74.63"/>
</a>
</g>
</g>
<!-- Node27&#45;&gt;Node12 -->
<g id="edge59_Node000027_Node000012" class="edge">
<title>Node27&#45;&gt;Node12</title>
<g id="a_edge59_Node000027_Node000012"><a xlink:title=" ">
<path fill="none" stroke="#63b8ff" d="M587.98,-109.84C584.03,-101.87 579.06,-91.84 574.84,-83.33"/>
<polygon fill="#63b8ff" stroke="#63b8ff" points="577.92,-81.67 570.35,-74.27 571.65,-84.78 577.92,-81.67"/>
</a>
</g>
</g>
</g>
</svg>

<g id="navigator" transform="translate(0 0)" fill="#404254">
  <rect fill="#f2f5e9" fill-opacity="0.5" stroke="#606060" stroke-width=".5" x="0" y="0" width="60" height="60"/>
  <use id="zoomplus" xlink:href="#zoomPlus" x="17" y="9" onmousedown="handleZoom(evt,'in')"/>
  <use id="zoomminus" xlink:href="#zoomMin" x="42" y="9" onmousedown="handleZoom(evt,'out')"/>
  <use id="reset" xlink:href="#resetDef" x="30" y="36" onmousedown="handleReset()"/>
   <use id="arrowup" xlink:href="#arrowUp" x="0" y="0" onmousedown="handlePan(0,-1)"/>
  <use id="arrowright" xlink:href="#arrowRight" x="0" y="0" onmousedown="handlePan(1,0)"/>
  <use id="arrowdown" xlink:href="#arrowDown" x="0" y="0" onmousedown="handlePan(0,1)"/>
  <use id="arrowleft" xlink:href="#arrowLeft" x="0" y="0" onmousedown="handlePan(-1,0)"/>
</g>
<svg viewBox="0 0 15 15" width="100%" height="30px" preserveAspectRatio="xMaxYMin meet">
 <g id="arrow_out" transform="scale(0.3 0.3)">
  <a xlink:href="ChocoMountain_8h__incl_org.svg" target="_base">
   <rect id="button" ry="5" rx="5" y="6" x="6" height="38" width="38"
        fill="#f2f5e9" fill-opacity="0.5" stroke="#606060" stroke-width="1.0"/>
   <path id="arrow"
     d="M 11.500037,31.436501 C 11.940474,20.09759 22.043105,11.32322 32.158766,21.979434 L 37.068811,17.246167 C 37.068811,17.246167 37.088388,32 37.088388,32 L 22.160133,31.978069 C 22.160133,31.978069 26.997745,27.140456 26.997745,27.140456 C 18.528582,18.264221 13.291696,25.230495 11.500037,31.436501 z"
     style="fill:#404040;"/>
  </a>
 </g>
</svg>

<style type='text/css'>
<![CDATA[
[data-mouse-over-selected='false'] { opacity: 0.7; }
[data-mouse-over-selected='true']  { opacity: 1.0; }
]]>
</style>
<script type="application/ecmascript"><![CDATA[
document.addEventListener('DOMContentLoaded', (event) => {
  highlightEdges();
  highlightAdjacentNodes();
});
]]></script>
</svg>
