<?xml version="1.0" encoding="UTF-8" standalone="no"?>
<!DOCTYPE svg PUBLIC "-//W3C//DTD SVG 1.1//EN"
 "http://www.w3.org/Graphics/SVG/1.1/DTD/svg11.dtd">
<!-- Generated by graphviz version 2.43.0 (0)
 -->
<!-- Title: Editor::ContentBrowserWindow::TrainWindow Pages: 1 -->
<!--zoomable 338 -->

<svg id="main" version="1.1" xmlns="http://www.w3.org/2000/svg" xmlns:xlink="http://www.w3.org/1999/xlink" xml:space="preserve" onload="init(evt)">

<style type="text/css"><![CDATA[
.node, .edge {opacity: 0.7;}
.node.selected, .edge.selected {opacity: 1;}
.edge:hover path { stroke: red; }
.edge:hover polygon { stroke: red; fill: red; }
]]></style>

<defs>
  <circle id="rim" cx="0" cy="0" r="7"/>
  <circle id="rim2" cx="0" cy="0" r="3.5"/>
  <g id="zoomPlus">
    <use xlink:href="#rim" fill="#404040"><set attributeName="fill" to="#808080" begin="zoomplus.mouseover" end="zoomplus.mouseout"/></use>
    <path d="M-4,0h8M0,-4v8" fill="none" stroke="white" stroke-width="1.5" pointer-events="none"/>
  </g>
  <g id="zoomMin">
    <use xlink:href="#rim" fill="#404040"><set attributeName="fill" to="#808080" begin="zoomminus.mouseover" end="zoomminus.mouseout"/></use>
    <path d="M-4,0h8" fill="none" stroke="white" stroke-width="1.5" pointer-events="none"/>
  </g>
  <g id="arrowUp" transform="translate(30 24)">
    <use xlink:href="#rim"/>
    <path pointer-events="none" fill="none" stroke="white" stroke-width="1.5" d="M0,-3.0v7 M-2.5,-0.5L0,-3.0L2.5,-0.5"/>
  </g>
  <g id="arrowRight" transform="rotate(90) translate(36 -43)">
    <use xlink:href="#rim"/>
    <path pointer-events="none" fill="none" stroke="white" stroke-width="1.5" d="M0,-3.0v7 M-2.5,-0.5L0,-3.0L2.5,-0.5"/>
  </g>
  <g id="arrowDown" transform="rotate(180) translate(-30 -48)">
    <use xlink:href="#rim"/>
    <path pointer-events="none" fill="none" stroke="white" stroke-width="1.5" d="M0,-3.0v7 M-2.5,-0.5L0,-3.0L2.5,-0.5"/>
  </g>
  <g id="arrowLeft" transform="rotate(270) translate(-36 17)">
    <use xlink:href="#rim"/>
    <path pointer-events="none" fill="none" stroke="white" stroke-width="1.5" d="M0,-3.0v7 M-2.5,-0.5L0,-3.0L2.5,-0.5"/>
  </g>
  <g id="resetDef">
    <use xlink:href="#rim2" fill="#404040"><set attributeName="fill" to="#808080" begin="reset.mouseover" end="reset.mouseout"/></use>
  </g>
</defs>
<script type="application/ecmascript">
var viewWidth = 1907;
var viewHeight = 338;
var sectionId = 'dynsection-16';
</script>
<script type="application/ecmascript" xlink:href="svg.min.js"/>
<svg id="graph" class="graph">
<g id="viewport">
<title>Editor::ContentBrowserWindow::TrainWindow</title>
<!-- Node1 -->
<g id="Node000001" class="node">
<title>Node1</title>
<g id="a_Node000001"><a xlink:title=" ">
<polygon fill="#999999" stroke="#666666" points="168,-202.5 0,-202.5 0,-172.5 168,-172.5 168,-202.5"/>
<text text-anchor="start" x="8" y="-190.5" font-family="Helvetica,sans-Serif" font-size="10.00">Editor::ContentBrowserWindow</text>
<text text-anchor="middle" x="84" y="-179.5" font-family="Helvetica,sans-Serif" font-size="10.00">::TrainWindow</text>
</a>
</g>
</g>
<!-- Node2 -->
<g id="Node000002" class="node">
<title>Node2</title>
<g id="a_Node000002"><a xlink:href="classATrain.html#aa39976112e962ff1536c33236e16cc20" target="_top" xlink:title=" ">
<polygon fill="white" stroke="#666666" points="288,-197 204,-197 204,-178 288,-178 288,-197"/>
<text text-anchor="middle" x="246" y="-185" font-family="Helvetica,sans-Serif" font-size="10.00">ATrain::Spawn</text>
</a>
</g>
</g>
<!-- Node1&#45;&gt;Node2 -->
<g id="edge1_Node000001_Node000002" class="edge">
<title>Node1&#45;&gt;Node2</title>
<g id="a_edge1_Node000001_Node000002"><a xlink:title=" ">
<path fill="none" stroke="#63b8ff" d="M168.28,-187.5C176.93,-187.5 185.53,-187.5 193.67,-187.5"/>
<polygon fill="#63b8ff" stroke="#63b8ff" points="193.71,-191 203.71,-187.5 193.71,-184 193.71,-191"/>
</a>
</g>
</g>
<!-- Node3 -->
<g id="Node000003" class="node">
<title>Node3</title>
<g id="a_Node000003"><a xlink:href="classATrain.html#a924e9fb51739e1fba6b0eff6635611bc" target="_top" xlink:title=" ">
<polygon fill="white" stroke="#666666" points="405,-197 324,-197 324,-178 405,-178 405,-197"/>
<text text-anchor="middle" x="364.5" y="-185" font-family="Helvetica,sans-Serif" font-size="10.00">ATrain::ATrain</text>
</a>
</g>
</g>
<!-- Node2&#45;&gt;Node3 -->
<g id="edge2_Node000002_Node000003" class="edge">
<title>Node2&#45;&gt;Node3</title>
<g id="a_edge2_Node000002_Node000003"><a xlink:title=" ">
<path fill="none" stroke="#63b8ff" d="M288.07,-187.5C296.36,-187.5 305.16,-187.5 313.71,-187.5"/>
<polygon fill="#63b8ff" stroke="#63b8ff" points="313.97,-191 323.97,-187.5 313.97,-184 313.97,-191"/>
</a>
</g>
</g>
<!-- Node4 -->
<g id="Node000004" class="node">
<title>Node4</title>
<g id="a_Node000004"><a xlink:href="classAActor.html#a679c43bacf3600fa2d7a6ab30e34a8a6" target="_top" xlink:title=" ">
<polygon fill="white" stroke="#666666" points="569,-293 482,-293 482,-274 569,-274 569,-293"/>
<text text-anchor="middle" x="525.5" y="-281" font-family="Helvetica,sans-Serif" font-size="10.00">AActor::AActor</text>
</a>
</g>
</g>
<!-- Node3&#45;&gt;Node4 -->
<g id="edge3_Node000003_Node000004" class="edge">
<title>Node3&#45;&gt;Node4</title>
<g id="a_edge3_Node000003_Node000004"><a xlink:title=" ">
<path fill="none" stroke="#63b8ff" d="M371.91,-197.18C383.55,-213.93 409.86,-248.2 441,-265.5 450.33,-270.68 461.02,-274.38 471.56,-277"/>
<polygon fill="#63b8ff" stroke="#63b8ff" points="471.06,-280.48 481.58,-279.21 472.56,-273.64 471.06,-280.48"/>
</a>
</g>
</g>
<!-- Node5 -->
<g id="Node000005" class="node">
<title>Node5</title>
<g id="a_Node000005"><a xlink:href="actors_8c.html#a91fb2e4e37e7c72fea918fe2c1bb4eaf" target="_top" xlink:title=" ">
<polygon fill="white" stroke="#666666" points="595.5,-256 455.5,-256 455.5,-237 595.5,-237 595.5,-256"/>
<text text-anchor="middle" x="525.5" y="-244" font-family="Helvetica,sans-Serif" font-size="10.00">add_actor_to_empty_slot</text>
</a>
</g>
</g>
<!-- Node3&#45;&gt;Node5 -->
<g id="edge4_Node000003_Node000005" class="edge">
<title>Node3&#45;&gt;Node5</title>
<g id="a_edge4_Node000003_Node000005"><a xlink:title=" ">
<path fill="none" stroke="#63b8ff" d="M380.23,-197.15C395.02,-206.44 418.76,-220.26 441,-228.5 446.93,-230.7 453.2,-232.66 459.54,-234.41"/>
<polygon fill="#63b8ff" stroke="#63b8ff" points="458.95,-237.88 469.51,-236.99 460.7,-231.1 458.95,-237.88"/>
</a>
</g>
</g>
<!-- Node31 -->
<g id="Node000031" class="node">
<title>Node31</title>
<g id="a_Node000031"><a xlink:href="Utils_8cpp.html#aeaf9fffe1458c3ce2a95a80906db76c3" target="_top" xlink:title=" ">
<polygon fill="white" stroke="#666666" points="610,-219 441,-219 441,-200 610,-200 610,-219"/>
<text text-anchor="middle" x="525.5" y="-207" font-family="Helvetica,sans-Serif" font-size="10.00">GetVehiclePathPointDistributed</text>
</a>
</g>
</g>
<!-- Node3&#45;&gt;Node31 -->
<g id="edge30_Node000003_Node000031" class="edge">
<title>Node3&#45;&gt;Node31</title>
<g id="a_edge30_Node000003_Node000031"><a xlink:title=" ">
<path fill="none" stroke="#63b8ff" d="M405.21,-192.99C417.5,-194.69 431.49,-196.63 445.47,-198.57"/>
<polygon fill="#63b8ff" stroke="#63b8ff" points="445.23,-202.07 455.62,-199.97 446.19,-195.13 445.23,-202.07"/>
</a>
</g>
</g>
<!-- Node32 -->
<g id="Node000032" class="node">
<title>Node32</title>
<g id="a_Node000032"><a xlink:href="code__80005FD0_8c.html#a905c0b4107a7a9717f49b4efcaacad4e" target="_top" xlink:title=" ">
<polygon fill="white" stroke="#666666" points="586.5,-181.5 464.5,-181.5 464.5,-151.5 586.5,-151.5 586.5,-181.5"/>
<text text-anchor="start" x="472.5" y="-169.5" font-family="Helvetica,sans-Serif" font-size="10.00">set_vehicle_pos_path</text>
<text text-anchor="middle" x="525.5" y="-158.5" font-family="Helvetica,sans-Serif" font-size="10.00">_point</text>
</a>
</g>
</g>
<!-- Node3&#45;&gt;Node32 -->
<g id="edge31_Node000003_Node000032" class="edge">
<title>Node3&#45;&gt;Node32</title>
<g id="a_edge31_Node000003_Node000032"><a xlink:title=" ">
<path fill="none" stroke="#63b8ff" d="M405.21,-182.25C419.99,-180.3 437.24,-178.03 453.95,-175.82"/>
<polygon fill="#63b8ff" stroke="#63b8ff" points="454.81,-179.24 464.26,-174.46 453.89,-172.3 454.81,-179.24"/>
</a>
</g>
</g>
<!-- Node35 -->
<g id="Node000035" class="node">
<title>Node35</title>
<g id="a_Node000035"><a xlink:href="code__80005FD0_8c.html#a777de4239351e9266f8b367ce46cb936" target="_top" xlink:title=" ">
<polygon fill="white" stroke="#666666" points="609.5,-133 441.5,-133 441.5,-114 609.5,-114 609.5,-133"/>
<text text-anchor="middle" x="525.5" y="-121" font-family="Helvetica,sans-Serif" font-size="10.00">update_vehicle_following_path</text>
</a>
</g>
</g>
<!-- Node3&#45;&gt;Node35 -->
<g id="edge34_Node000003_Node000035" class="edge">
<title>Node3&#45;&gt;Node35</title>
<g id="a_edge34_Node000003_Node000035"><a xlink:title=" ">
<path fill="none" stroke="#63b8ff" d="M378.74,-177.84C393.32,-167.65 417.77,-151.8 441,-142.5 447.4,-139.94 454.22,-137.68 461.1,-135.71"/>
<polygon fill="#63b8ff" stroke="#63b8ff" points="462.42,-138.97 471.17,-133 460.61,-132.21 462.42,-138.97"/>
</a>
</g>
</g>
<!-- Node42 -->
<g id="Node000042" class="node">
<title>Node42</title>
<g id="a_Node000042"><a xlink:href="math__util_8c.html#a9092c945c52b3a3481228b2724991e3c" target="_top" xlink:title=" ">
<polygon fill="white" stroke="#666666" points="558,-96 493,-96 493,-77 558,-77 558,-96"/>
<text text-anchor="middle" x="525.5" y="-84" font-family="Helvetica,sans-Serif" font-size="10.00">vec3s_set</text>
</a>
</g>
</g>
<!-- Node3&#45;&gt;Node42 -->
<g id="edge43_Node000003_Node000042" class="edge">
<title>Node3&#45;&gt;Node42</title>
<g id="a_edge43_Node000003_Node000042"><a xlink:title=" ">
<path fill="none" stroke="#63b8ff" d="M371.45,-177.91C382.73,-160.56 409.02,-124.03 441,-105.5 453.63,-98.18 468.85,-93.68 482.82,-90.92"/>
<polygon fill="#63b8ff" stroke="#63b8ff" points="483.46,-94.36 492.72,-89.19 482.26,-87.46 483.46,-94.36"/>
</a>
</g>
</g>
<!-- Node6 -->
<g id="Node000006" class="node">
<title>Node6</title>
<g id="a_Node000006"><a xlink:href="actors_8c.html#a39c023177b5a7686cdd1fc65b8b953e1" target="_top" xlink:title=" ">
<polygon fill="white" stroke="#666666" points="746.5,-219 684.5,-219 684.5,-200 746.5,-200 746.5,-219"/>
<text text-anchor="middle" x="715.5" y="-207" font-family="Helvetica,sans-Serif" font-size="10.00">actor_init</text>
</a>
</g>
</g>
<!-- Node5&#45;&gt;Node6 -->
<g id="edge5_Node000005_Node000006" class="edge">
<title>Node5&#45;&gt;Node6</title>
<g id="a_edge5_Node000005_Node000006"><a xlink:title=" ">
<path fill="none" stroke="#63b8ff" d="M574.91,-236.97C605.86,-230.88 645.51,-223.08 674.64,-217.35"/>
<polygon fill="#63b8ff" stroke="#63b8ff" points="675.33,-220.78 684.47,-215.41 673.98,-213.91 675.33,-220.78"/>
</a>
</g>
</g>
<!-- Node28 -->
<g id="Node000028" class="node">
<title>Node28</title>
<g id="a_Node000028"><a xlink:href="Game_8cpp.html#acea5cfd9ab22f745bd6627869b95a62e" target="_top" xlink:title=" ">
<polygon fill="white" stroke="#666666" points="771.5,-330 659.5,-330 659.5,-311 771.5,-311 771.5,-330"/>
<text text-anchor="middle" x="715.5" y="-318" font-family="Helvetica,sans-Serif" font-size="10.00">CM_ActorBeginPlay</text>
</a>
</g>
</g>
<!-- Node5&#45;&gt;Node28 -->
<g id="edge27_Node000005_Node000028" class="edge">
<title>Node5&#45;&gt;Node28</title>
<g id="a_edge27_Node000005_Node000028"><a xlink:title=" ">
<path fill="none" stroke="#63b8ff" d="M587.78,-256.12C595.52,-258.57 603.13,-261.64 610,-265.5 630.01,-276.73 626.18,-290.94 646,-302.5 649.01,-304.26 652.2,-305.85 655.48,-307.28"/>
<polygon fill="#63b8ff" stroke="#63b8ff" points="654.34,-310.59 664.93,-310.94 656.87,-304.06 654.34,-310.59"/>
</a>
</g>
</g>
<!-- Node29 -->
<g id="Node000029" class="node">
<title>Node29</title>
<g id="a_Node000029"><a xlink:href="Game_8cpp.html#a42f23077aaa52cb3ea5c7803b7dd6816" target="_top" xlink:title=" ">
<polygon fill="white" stroke="#666666" points="768.5,-293 662.5,-293 662.5,-274 768.5,-274 768.5,-293"/>
<text text-anchor="middle" x="715.5" y="-281" font-family="Helvetica,sans-Serif" font-size="10.00">CM_AddBaseActor</text>
</a>
</g>
</g>
<!-- Node5&#45;&gt;Node29 -->
<g id="edge28_Node000005_Node000029" class="edge">
<title>Node5&#45;&gt;Node29</title>
<g id="a_edge28_Node000005_Node000029"><a xlink:title=" ">
<path fill="none" stroke="#63b8ff" d="M574.91,-256.03C599.6,-260.89 629.82,-266.83 655.81,-271.95"/>
<polygon fill="#63b8ff" stroke="#63b8ff" points="655.44,-275.44 665.92,-273.94 656.79,-268.57 655.44,-275.44"/>
</a>
</g>
</g>
<!-- Node30 -->
<g id="Node000030" class="node">
<title>Node30</title>
<g id="a_Node000030"><a xlink:href="Game_8cpp.html#a0841ffe9a66e95aca42438b9d8ffc3d3" target="_top" xlink:title=" ">
<polygon fill="white" stroke="#666666" points="766,-256 665,-256 665,-237 766,-237 766,-256"/>
<text text-anchor="middle" x="715.5" y="-244" font-family="Helvetica,sans-Serif" font-size="10.00">CM_GetActorSize</text>
</a>
</g>
</g>
<!-- Node5&#45;&gt;Node30 -->
<g id="edge29_Node000005_Node000030" class="edge">
<title>Node5&#45;&gt;Node30</title>
<g id="a_edge29_Node000005_Node000030"><a xlink:title=" ">
<path fill="none" stroke="#63b8ff" d="M595.7,-246.5C615.05,-246.5 635.9,-246.5 654.66,-246.5"/>
<polygon fill="#63b8ff" stroke="#63b8ff" points="654.84,-250 664.84,-246.5 654.84,-243 654.84,-250"/>
</a>
</g>
</g>
<!-- Node7 -->
<g id="Node000007" class="node">
<title>Node7</title>
<g id="a_Node000007"><a xlink:href="collision_8c.html#a37aa55b3768d001533ad75e7f1b8388a" target="_top" xlink:title=" ">
<polygon fill="white" stroke="#666666" points="962,-192 821,-192 821,-173 962,-173 962,-192"/>
<text text-anchor="middle" x="891.5" y="-180" font-family="Helvetica,sans-Serif" font-size="10.00">check_bounding_collision</text>
</a>
</g>
</g>
<!-- Node6&#45;&gt;Node7 -->
<g id="edge6_Node000006_Node000007" class="edge">
<title>Node6&#45;&gt;Node7</title>
<g id="a_edge6_Node000006_Node000007"><a xlink:title=" ">
<path fill="none" stroke="#63b8ff" d="M746.81,-204.8C766.84,-201.69 793.96,-197.48 819.25,-193.56"/>
<polygon fill="#63b8ff" stroke="#63b8ff" points="819.86,-197 829.21,-192.01 818.79,-190.09 819.86,-197"/>
</a>
</g>
</g>
<!-- Node11 -->
<g id="Node000011" class="node">
<title>Node11</title>
<g id="a_Node000011"><a xlink:href="actors_8c.html#a1a9bccb586242555a9123ebd4ab70f2a" target="_top" xlink:title=" ">
<polygon fill="white" stroke="#666666" points="957.5,-116.5 825.5,-116.5 825.5,-86.5 957.5,-86.5 957.5,-116.5"/>
<text text-anchor="start" x="833.5" y="-104.5" font-family="Helvetica,sans-Serif" font-size="10.00">cleanup_red_and_green</text>
<text text-anchor="middle" x="891.5" y="-93.5" font-family="Helvetica,sans-Serif" font-size="10.00">_shells</text>
</a>
</g>
</g>
<!-- Node6&#45;&gt;Node11 -->
<g id="edge10_Node000006_Node000011" class="edge">
<title>Node6&#45;&gt;Node11</title>
<g id="a_edge10_Node000006_Node000011"><a xlink:title=" ">
<path fill="none" stroke="#63b8ff" d="M746.51,-203.03C758.87,-199.68 773.06,-194.92 785,-188.5 802.17,-179.26 840.73,-146.08 866.16,-123.47"/>
<polygon fill="#63b8ff" stroke="#63b8ff" points="868.79,-125.81 873.92,-116.54 864.13,-120.59 868.79,-125.81"/>
</a>
</g>
</g>
<!-- Node24 -->
<g id="Node000024" class="node">
<title>Node24</title>
<g id="a_Node000024"><a xlink:href="collision_8c.html#ad72fef3ffe32191d73b1822f512ebf3f" target="_top" xlink:title=" ">
<polygon fill="white" stroke="#666666" points="939,-303 844,-303 844,-284 939,-284 939,-303"/>
<text text-anchor="middle" x="891.5" y="-291" font-family="Helvetica,sans-Serif" font-size="10.00">func_802AAAAC</text>
</a>
</g>
</g>
<!-- Node6&#45;&gt;Node24 -->
<g id="edge23_Node000006_Node000024" class="edge">
<title>Node6&#45;&gt;Node24</title>
<g id="a_edge23_Node000006_Node000024"><a xlink:title=" ">
<path fill="none" stroke="#63b8ff" d="M746.61,-213.5C759.26,-216.24 773.65,-220.83 785,-228.5 806.81,-243.22 799.07,-260.96 821,-275.5 825.07,-278.2 829.52,-280.49 834.15,-282.44"/>
<polygon fill="#63b8ff" stroke="#63b8ff" points="833.21,-285.83 843.81,-285.98 835.62,-279.26 833.21,-285.83"/>
</a>
</g>
</g>
<!-- Node26 -->
<g id="Node000026" class="node">
<title>Node26</title>
<g id="a_Node000026"><a xlink:href="math__util_8c.html#af7b470ed76fce07b8042a47c96e5690b" target="_top" xlink:title=" ">
<polygon fill="white" stroke="#666666" points="945,-266 838,-266 838,-247 945,-247 945,-266"/>
<text text-anchor="middle" x="891.5" y="-254" font-family="Helvetica,sans-Serif" font-size="10.00">vec3f_copy_return</text>
</a>
</g>
</g>
<!-- Node6&#45;&gt;Node26 -->
<g id="edge25_Node000006_Node000026" class="edge">
<title>Node6&#45;&gt;Node26</title>
<g id="a_edge25_Node000006_Node000026"><a xlink:title=" ">
<path fill="none" stroke="#63b8ff" d="M746.51,-217.82C758.48,-221.14 772.39,-225 785,-228.5 801,-232.94 804.96,-234.2 821,-238.5 828.28,-240.45 836,-242.49 843.55,-244.46"/>
<polygon fill="#63b8ff" stroke="#63b8ff" points="842.76,-247.87 853.32,-247 844.52,-241.1 842.76,-247.87"/>
</a>
</g>
</g>
<!-- Node27 -->
<g id="Node000027" class="node">
<title>Node27</title>
<g id="a_Node000027"><a xlink:href="math__util_8c.html#a0e270ee67600c8c9c2f140c647d008a1" target="_top" xlink:title=" ">
<polygon fill="white" stroke="#666666" points="928.5,-229 854.5,-229 854.5,-210 928.5,-210 928.5,-229"/>
<text text-anchor="middle" x="891.5" y="-217" font-family="Helvetica,sans-Serif" font-size="10.00">vec3s_copy</text>
</a>
</g>
</g>
<!-- Node6&#45;&gt;Node27 -->
<g id="edge26_Node000006_Node000027" class="edge">
<title>Node6&#45;&gt;Node27</title>
<g id="a_edge26_Node000006_Node000027"><a xlink:title=" ">
<path fill="none" stroke="#63b8ff" d="M746.81,-211.24C773.66,-212.79 813.29,-215.06 844.13,-216.83"/>
<polygon fill="#63b8ff" stroke="#63b8ff" points="844.03,-220.34 854.22,-217.41 844.43,-213.35 844.03,-220.34"/>
</a>
</g>
</g>
<!-- Node8 -->
<g id="Node000008" class="node">
<title>Node8</title>
<g id="a_Node000008"><a xlink:href="collision_8c.html#ac312bf382cb40752f6b790a99e7cdcb6" target="_top" xlink:title=" ">
<polygon fill="white" stroke="#666666" points="1125,-192 1017,-192 1017,-173 1125,-173 1125,-192"/>
<text text-anchor="middle" x="1071" y="-180" font-family="Helvetica,sans-Serif" font-size="10.00">check_collision_yx</text>
</a>
</g>
</g>
<!-- Node7&#45;&gt;Node8 -->
<g id="edge7_Node000007_Node000008" class="edge">
<title>Node7&#45;&gt;Node8</title>
<g id="a_edge7_Node000007_Node000008"><a xlink:title=" ">
<path fill="none" stroke="#63b8ff" d="M962.14,-182.5C976.76,-182.5 992.1,-182.5 1006.48,-182.5"/>
<polygon fill="#63b8ff" stroke="#63b8ff" points="1006.75,-186 1016.75,-182.5 1006.75,-179 1006.75,-186"/>
</a>
</g>
</g>
<!-- Node9 -->
<g id="Node000009" class="node">
<title>Node9</title>
<g id="a_Node000009"><a xlink:href="collision_8c.html#a4b48832a90e984536a0635a016ec4f28" target="_top" xlink:title=" ">
<polygon fill="white" stroke="#666666" points="1124.5,-266 1017.5,-266 1017.5,-247 1124.5,-247 1124.5,-266"/>
<text text-anchor="middle" x="1071" y="-254" font-family="Helvetica,sans-Serif" font-size="10.00">check_collision_zx</text>
</a>
</g>
</g>
<!-- Node7&#45;&gt;Node9 -->
<g id="edge8_Node000007_Node000009" class="edge">
<title>Node7&#45;&gt;Node9</title>
<g id="a_edge8_Node000007_Node000009"><a xlink:title=" ">
<path fill="none" stroke="#63b8ff" d="M940.6,-192.03C948.04,-194.51 955.43,-197.62 962,-201.5 981.76,-213.16 978.11,-227.06 998,-238.5 1001.05,-240.26 1004.27,-241.84 1007.59,-243.27"/>
<polygon fill="#63b8ff" stroke="#63b8ff" points="1006.56,-246.63 1017.15,-246.92 1009.05,-240.08 1006.56,-246.63"/>
</a>
</g>
</g>
<!-- Node10 -->
<g id="Node000010" class="node">
<title>Node10</title>
<g id="a_Node000010"><a xlink:href="collision_8c.html#a21fef964ab48191a1c0341954ef27a40" target="_top" xlink:title=" ">
<polygon fill="white" stroke="#666666" points="1124.5,-229 1017.5,-229 1017.5,-210 1124.5,-210 1124.5,-229"/>
<text text-anchor="middle" x="1071" y="-217" font-family="Helvetica,sans-Serif" font-size="10.00">check_collision_zy</text>
</a>
</g>
</g>
<!-- Node7&#45;&gt;Node10 -->
<g id="edge9_Node000007_Node000010" class="edge">
<title>Node7&#45;&gt;Node10</title>
<g id="a_edge9_Node000007_Node000010"><a xlink:title=" ">
<path fill="none" stroke="#63b8ff" d="M938.21,-192.03C961.41,-196.86 989.79,-202.78 1014.27,-207.88"/>
<polygon fill="#63b8ff" stroke="#63b8ff" points="1013.63,-211.33 1024.14,-209.94 1015.06,-204.47 1013.63,-211.33"/>
</a>
</g>
</g>
<!-- Node12 -->
<g id="Node000012" class="node">
<title>Node12</title>
<g id="a_Node000012"><a xlink:href="Game_8cpp.html#a693de7d8b89fe291aafea86bc64a0a2e" target="_top" xlink:title=" ">
<polygon fill="white" stroke="#666666" points="1111,-69 1031,-69 1031,-50 1111,-50 1111,-69"/>
<text text-anchor="middle" x="1071" y="-57" font-family="Helvetica,sans-Serif" font-size="10.00">CM_GetActor</text>
</a>
</g>
</g>
<!-- Node11&#45;&gt;Node12 -->
<g id="edge11_Node000011_Node000012" class="edge">
<title>Node11&#45;&gt;Node12</title>
<g id="a_edge11_Node000011_Node000012"><a xlink:title=" ">
<path fill="none" stroke="#63b8ff" d="M956.08,-86.46C977.44,-81.4 1000.92,-75.85 1020.99,-71.1"/>
<polygon fill="#63b8ff" stroke="#63b8ff" points="1021.91,-74.48 1030.84,-68.77 1020.3,-67.66 1021.91,-74.48"/>
</a>
</g>
</g>
<!-- Node13 -->
<g id="Node000013" class="node">
<title>Node13</title>
<g id="a_Node000013"><a xlink:href="code__80005FD0_8c.html#ad301b978cdd3c4cc190b10be050d51d8" target="_top" xlink:title=" ">
<polygon fill="white" stroke="#666666" points="1144,-154.5 998,-154.5 998,-124.5 1144,-124.5 1144,-154.5"/>
<text text-anchor="start" x="1006" y="-142.5" font-family="Helvetica,sans-Serif" font-size="10.00">delete_actor_in_unexpired</text>
<text text-anchor="middle" x="1071" y="-131.5" font-family="Helvetica,sans-Serif" font-size="10.00">_actor_list</text>
</a>
</g>
</g>
<!-- Node11&#45;&gt;Node13 -->
<g id="edge12_Node000011_Node000013" class="edge">
<title>Node11&#45;&gt;Node13</title>
<g id="a_edge12_Node000011_Node000013"><a xlink:title=" ">
<path fill="none" stroke="#63b8ff" d="M957.59,-115.43C968.12,-117.69 979.13,-120.05 989.96,-122.36"/>
<polygon fill="#63b8ff" stroke="#63b8ff" points="989.33,-125.81 999.84,-124.48 990.8,-118.96 989.33,-125.81"/>
</a>
</g>
</g>
<!-- Node14 -->
<g id="Node000014" class="node">
<title>Node14</title>
<g id="a_Node000014"><a xlink:href="actors_8c.html#a694ec6ef7548b8618aeb35c038d3a9b9" target="_top" xlink:title=" ">
<polygon fill="white" stroke="#666666" points="1112.5,-106 1029.5,-106 1029.5,-87 1112.5,-87 1112.5,-106"/>
<text text-anchor="middle" x="1071" y="-94" font-family="Helvetica,sans-Serif" font-size="10.00">destroy_actor</text>
</a>
</g>
</g>
<!-- Node11&#45;&gt;Node14 -->
<g id="edge13_Node000011_Node000014" class="edge">
<title>Node11&#45;&gt;Node14</title>
<g id="a_edge13_Node000011_Node000014"><a xlink:title=" ">
<path fill="none" stroke="#63b8ff" d="M957.59,-99.67C977.97,-99.09 1000.14,-98.47 1019.37,-97.93"/>
<polygon fill="#63b8ff" stroke="#63b8ff" points="1019.53,-101.42 1029.43,-97.64 1019.33,-94.43 1019.53,-101.42"/>
</a>
</g>
</g>
<!-- Node15 -->
<g id="Node000015" class="node">
<title>Node15</title>
<g id="a_Node000015"><a xlink:href="actors_8c.html#a12dc3ccac4c7d8569eadac0af4fd6f9f" target="_top" xlink:title=" ">
<polygon fill="white" stroke="#666666" points="1338,-106 1180,-106 1180,-87 1338,-87 1338,-106"/>
<text text-anchor="middle" x="1259" y="-94" font-family="Helvetica,sans-Serif" font-size="10.00">play_sound_before_despawn</text>
</a>
</g>
</g>
<!-- Node14&#45;&gt;Node15 -->
<g id="edge14_Node000014_Node000015" class="edge">
<title>Node14&#45;&gt;Node15</title>
<g id="a_edge14_Node000014_Node000015"><a xlink:title=" ">
<path fill="none" stroke="#63b8ff" d="M1112.82,-96.5C1129.65,-96.5 1149.86,-96.5 1169.77,-96.5"/>
<polygon fill="#63b8ff" stroke="#63b8ff" points="1169.82,-100 1179.82,-96.5 1169.82,-93 1169.82,-100"/>
</a>
</g>
</g>
<!-- Node16 -->
<g id="Node000016" class="node">
<title>Node16</title>
<g id="a_Node000016"><a xlink:href="external_8c.html#ae72057869772019e4464c87d4e16c682" target="_top" xlink:title=" ">
<polygon fill="white" stroke="#666666" points="1466,-106 1374,-106 1374,-87 1466,-87 1466,-106"/>
<text text-anchor="middle" x="1420" y="-94" font-family="Helvetica,sans-Serif" font-size="10.00">func_800C99E0</text>
</a>
</g>
</g>
<!-- Node15&#45;&gt;Node16 -->
<g id="edge15_Node000015_Node000016" class="edge">
<title>Node15&#45;&gt;Node16</title>
<g id="a_edge15_Node000015_Node000016"><a xlink:title=" ">
<path fill="none" stroke="#63b8ff" d="M1338.1,-96.5C1346.72,-96.5 1355.35,-96.5 1363.61,-96.5"/>
<polygon fill="#63b8ff" stroke="#63b8ff" points="1363.83,-100 1373.83,-96.5 1363.83,-93 1363.83,-100"/>
</a>
</g>
</g>
<!-- Node17 -->
<g id="Node000017" class="node">
<title>Node17</title>
<g id="a_Node000017"><a xlink:href="external_8c.html#aeb87c527482a244173df36a1f3d4f446" target="_top" xlink:title=" ">
<polygon fill="white" stroke="#666666" points="1594,-125 1502,-125 1502,-106 1594,-106 1594,-125"/>
<text text-anchor="middle" x="1548" y="-113" font-family="Helvetica,sans-Serif" font-size="10.00">func_800C21E8</text>
</a>
</g>
</g>
<!-- Node16&#45;&gt;Node17 -->
<g id="edge16_Node000016_Node000017" class="edge">
<title>Node16&#45;&gt;Node17</title>
<g id="a_edge16_Node000016_Node000017"><a xlink:title=" ">
<path fill="none" stroke="#63b8ff" d="M1466.13,-103.31C1474.46,-104.56 1483.23,-105.88 1491.81,-107.18"/>
<polygon fill="#63b8ff" stroke="#63b8ff" points="1491.35,-110.65 1501.76,-108.68 1492.39,-103.73 1491.35,-110.65"/>
</a>
</g>
</g>
<!-- Node18 -->
<g id="Node000018" class="node">
<title>Node18</title>
<g id="a_Node000018"><a xlink:href="external_8c.html#a028d40421b90c38f68ebfd5acc626f2e" target="_top" xlink:title=" ">
<polygon fill="white" stroke="#666666" points="1594,-88 1502,-88 1502,-69 1594,-69 1594,-88"/>
<text text-anchor="middle" x="1548" y="-76" font-family="Helvetica,sans-Serif" font-size="10.00">func_800C5578</text>
</a>
</g>
</g>
<!-- Node16&#45;&gt;Node18 -->
<g id="edge17_Node000016_Node000018" class="edge">
<title>Node16&#45;&gt;Node18</title>
<g id="a_edge17_Node000016_Node000018"><a xlink:title=" ">
<path fill="none" stroke="#63b8ff" d="M1466.13,-90.05C1474.46,-88.86 1483.23,-87.61 1491.81,-86.38"/>
<polygon fill="#63b8ff" stroke="#63b8ff" points="1492.35,-89.84 1501.76,-84.96 1491.36,-82.91 1492.35,-89.84"/>
</a>
</g>
</g>
<!-- Node19 -->
<g id="Node000019" class="node">
<title>Node19</title>
<g id="a_Node000019"><a xlink:href="external_8c.html#ac0fb767de7e14a03f1bcfa53f0abd23b" target="_top" xlink:title=" ">
<polygon fill="white" stroke="#666666" points="1770,-125 1630,-125 1630,-106 1770,-106 1770,-125"/>
<text text-anchor="middle" x="1700" y="-113" font-family="Helvetica,sans-Serif" font-size="10.00">delete_sound_from_bank</text>
</a>
</g>
</g>
<!-- Node18&#45;&gt;Node19 -->
<g id="edge18_Node000018_Node000019" class="edge">
<title>Node18&#45;&gt;Node19</title>
<g id="a_edge18_Node000018_Node000019"><a xlink:title=" ">
<path fill="none" stroke="#63b8ff" d="M1587.63,-88.03C1606.8,-92.76 1630.16,-98.52 1650.52,-103.54"/>
<polygon fill="#63b8ff" stroke="#63b8ff" points="1649.69,-106.94 1660.24,-105.94 1651.37,-100.15 1649.69,-106.94"/>
</a>
</g>
</g>
<!-- Node21 -->
<g id="Node000021" class="node">
<title>Node21</title>
<g id="a_Node000021"><a xlink:href="external_8c.html#ab83bd36e63f0f1baddcb2482b5ad31b0" target="_top" xlink:title=" ">
<polygon fill="white" stroke="#666666" points="1746.5,-88 1653.5,-88 1653.5,-69 1746.5,-69 1746.5,-88"/>
<text text-anchor="middle" x="1700" y="-76" font-family="Helvetica,sans-Serif" font-size="10.00">func_800C41CC</text>
</a>
</g>
</g>
<!-- Node18&#45;&gt;Node21 -->
<g id="edge20_Node000018_Node000021" class="edge">
<title>Node18&#45;&gt;Node21</title>
<g id="a_edge20_Node000018_Node000021"><a xlink:title=" ">
<path fill="none" stroke="#63b8ff" d="M1594,-78.5C1609.37,-78.5 1626.74,-78.5 1642.86,-78.5"/>
<polygon fill="#63b8ff" stroke="#63b8ff" points="1643.25,-82 1653.25,-78.5 1643.25,-75 1643.25,-82"/>
</a>
</g>
</g>
<!-- Node22 -->
<g id="Node000022" class="node">
<title>Node22</title>
<g id="a_Node000022"><a xlink:href="port__eu_8c.html#aa89dfaecca46c6d071f08c1898d1f7c9" target="_top" xlink:title=" ">
<polygon fill="white" stroke="#666666" points="1746.5,-51 1653.5,-51 1653.5,-32 1746.5,-32 1746.5,-51"/>
<text text-anchor="middle" x="1700" y="-39" font-family="Helvetica,sans-Serif" font-size="10.00">func_800CBBE8</text>
</a>
</g>
</g>
<!-- Node18&#45;&gt;Node22 -->
<g id="edge21_Node000018_Node000022" class="edge">
<title>Node18&#45;&gt;Node22</title>
<g id="a_edge21_Node000018_Node000022"><a xlink:title=" ">
<path fill="none" stroke="#63b8ff" d="M1587.63,-68.97C1606.8,-64.24 1630.16,-58.48 1650.52,-53.46"/>
<polygon fill="#63b8ff" stroke="#63b8ff" points="1651.37,-56.85 1660.24,-51.06 1649.69,-50.06 1651.37,-56.85"/>
</a>
</g>
</g>
<!-- Node20 -->
<g id="Node000020" class="node">
<title>Node20</title>
<g id="a_Node000020"><a xlink:href="external_8c.html#a358ac55e8ab5262dcae8037334be06d7" target="_top" xlink:title=" ">
<polygon fill="white" stroke="#666666" points="1898.5,-125 1806.5,-125 1806.5,-106 1898.5,-106 1898.5,-125"/>
<text text-anchor="middle" x="1852.5" y="-113" font-family="Helvetica,sans-Serif" font-size="10.00">func_800C40F0</text>
</a>
</g>
</g>
<!-- Node19&#45;&gt;Node20 -->
<g id="edge19_Node000019_Node000020" class="edge">
<title>Node19&#45;&gt;Node20</title>
<g id="a_edge19_Node000019_Node000020"><a xlink:title=" ">
<path fill="none" stroke="#63b8ff" d="M1770.08,-115.5C1778.87,-115.5 1787.78,-115.5 1796.31,-115.5"/>
<polygon fill="#63b8ff" stroke="#63b8ff" points="1796.5,-119 1806.5,-115.5 1796.5,-112 1796.5,-119"/>
</a>
</g>
</g>
<!-- Node23 -->
<g id="Node000023" class="node">
<title>Node23</title>
<g id="a_Node000023"><a xlink:href="port__eu_8c.html#af361a20d2e08f30c53a237ca481ff734" target="_top" xlink:title=" ">
<polygon fill="white" stroke="#666666" points="1899,-51 1806,-51 1806,-32 1899,-32 1899,-51"/>
<text text-anchor="middle" x="1852.5" y="-39" font-family="Helvetica,sans-Serif" font-size="10.00">func_800CBB48</text>
</a>
</g>
</g>
<!-- Node22&#45;&gt;Node23 -->
<g id="edge22_Node000022_Node000023" class="edge">
<title>Node22&#45;&gt;Node23</title>
<g id="a_edge22_Node000022_Node000023"><a xlink:title=" ">
<path fill="none" stroke="#63b8ff" d="M1746.56,-41.5C1761.96,-41.5 1779.34,-41.5 1795.46,-41.5"/>
<polygon fill="#63b8ff" stroke="#63b8ff" points="1795.83,-45 1805.83,-41.5 1795.83,-38 1795.83,-45"/>
</a>
</g>
</g>
<!-- Node25 -->
<g id="Node000025" class="node">
<title>Node25</title>
<g id="a_Node000025"><a xlink:href="math__util_8c.html#a79fd07a0971ec96a3ff0801963a2fa7f" target="_top" xlink:title=" ">
<polygon fill="white" stroke="#666666" points="1103,-303 1039,-303 1039,-284 1103,-284 1103,-303"/>
<text text-anchor="middle" x="1071" y="-291" font-family="Helvetica,sans-Serif" font-size="10.00">vec3f_set</text>
</a>
</g>
</g>
<!-- Node24&#45;&gt;Node25 -->
<g id="edge24_Node000024_Node000025" class="edge">
<title>Node24&#45;&gt;Node25</title>
<g id="a_edge24_Node000024_Node000025"><a xlink:title=" ">
<path fill="none" stroke="#63b8ff" d="M939.14,-293.5C966.88,-293.5 1001.78,-293.5 1028.56,-293.5"/>
<polygon fill="#63b8ff" stroke="#63b8ff" points="1028.76,-297 1038.76,-293.5 1028.76,-290 1028.76,-297"/>
</a>
</g>
</g>
<!-- Node33 -->
<g id="Node000033" class="node">
<title>Node33</title>
<g id="a_Node000033"><a xlink:href="Game_8cpp.html#a545c1a384e93cc7b616dfee707f5d962" target="_top" xlink:title=" ">
<polygon fill="white" stroke="#666666" points="749.5,-142 681.5,-142 681.5,-123 749.5,-123 749.5,-142"/>
<text text-anchor="middle" x="715.5" y="-130" font-family="Helvetica,sans-Serif" font-size="10.00">IsDkJungle</text>
</a>
</g>
</g>
<!-- Node32&#45;&gt;Node33 -->
<g id="edge32_Node000032_Node000033" class="edge">
<title>Node32&#45;&gt;Node33</title>
<g id="a_edge32_Node000032_Node000033"><a xlink:title=" ">
<path fill="none" stroke="#63b8ff" d="M586.5,-155.65C614.08,-150.66 646.17,-144.86 671.32,-140.31"/>
<polygon fill="#63b8ff" stroke="#63b8ff" points="672.07,-143.73 681.29,-138.51 670.83,-136.84 672.07,-143.73"/>
</a>
</g>
</g>
<!-- Node34 -->
<g id="Node000034" class="node">
<title>Node34</title>
<g id="a_Node000034"><a xlink:href="Game_8cpp.html#ad474b8b257813cceeae25ab5205273c4" target="_top" xlink:title=" ">
<polygon fill="white" stroke="#666666" points="764.5,-179 666.5,-179 666.5,-160 764.5,-160 764.5,-179"/>
<text text-anchor="middle" x="715.5" y="-167" font-family="Helvetica,sans-Serif" font-size="10.00">IsKalimariDesert</text>
</a>
</g>
</g>
<!-- Node32&#45;&gt;Node34 -->
<g id="edge33_Node000032_Node000034" class="edge">
<title>Node32&#45;&gt;Node34</title>
<g id="a_edge33_Node000032_Node000034"><a xlink:title=" ">
<path fill="none" stroke="#63b8ff" d="M586.5,-167.46C608.77,-167.81 633.97,-168.21 656.09,-168.57"/>
<polygon fill="#63b8ff" stroke="#63b8ff" points="656.29,-172.07 666.34,-168.73 656.4,-165.07 656.29,-172.07"/>
</a>
</g>
</g>
<!-- Node35&#45;&gt;Node33 -->
<g id="edge40_Node000035_Node000033" class="edge">
<title>Node35&#45;&gt;Node33</title>
<g id="a_edge40_Node000035_Node000033"><a xlink:title=" ">
<path fill="none" stroke="#63b8ff" d="M609.51,-127.47C630.82,-128.49 652.9,-129.55 671.28,-130.43"/>
<polygon fill="#63b8ff" stroke="#63b8ff" points="671.2,-133.93 681.36,-130.91 671.53,-126.94 671.2,-133.93"/>
</a>
</g>
</g>
<!-- Node35&#45;&gt;Node34 -->
<g id="edge41_Node000035_Node000034" class="edge">
<title>Node35&#45;&gt;Node34</title>
<g id="a_edge41_Node000035_Node000034"><a xlink:title=" ">
<path fill="none" stroke="#63b8ff" d="M569.46,-133.02C582.5,-135.98 596.85,-139.31 610,-142.5 629.36,-147.2 650.66,-152.66 668.95,-157.42"/>
<polygon fill="#63b8ff" stroke="#63b8ff" points="668.21,-160.85 678.77,-159.99 669.99,-154.08 668.21,-160.85"/>
</a>
</g>
</g>
<!-- Node36 -->
<g id="Node000036" class="node">
<title>Node36</title>
<g id="a_Node000036"><a xlink:href="code__80005FD0_8c.html#ade9dca16c41c3d924b84f32a203ba823" target="_top" xlink:title=" ">
<polygon fill="white" stroke="#666666" points="775.5,-104.5 655.5,-104.5 655.5,-74.5 775.5,-74.5 775.5,-104.5"/>
<text text-anchor="start" x="663.5" y="-92.5" font-family="Helvetica,sans-Serif" font-size="10.00">find_closest_vehicles</text>
<text text-anchor="middle" x="715.5" y="-81.5" font-family="Helvetica,sans-Serif" font-size="10.00">_path_point</text>
</a>
</g>
</g>
<!-- Node35&#45;&gt;Node36 -->
<g id="edge35_Node000035_Node000036" class="edge">
<title>Node35&#45;&gt;Node36</title>
<g id="a_edge35_Node000035_Node000036"><a xlink:title=" ">
<path fill="none" stroke="#63b8ff" d="M579.12,-113.98C599.65,-110.27 623.48,-105.96 645.37,-102"/>
<polygon fill="#63b8ff" stroke="#63b8ff" points="646.06,-105.44 655.27,-100.21 644.81,-98.55 646.06,-105.44"/>
</a>
</g>
</g>
<!-- Node37 -->
<g id="Node000037" class="node">
<title>Node37</title>
<g id="a_Node000037"><a xlink:href="code__80005FD0_8c.html#a79cd9c001e0a06c9cab23fe2cf070abf" target="_top" xlink:title=" ">
<polygon fill="white" stroke="#666666" points="785,-56 646,-56 646,-37 785,-37 785,-56"/>
<text text-anchor="middle" x="715.5" y="-44" font-family="Helvetica,sans-Serif" font-size="10.00">get_angle_between_path</text>
</a>
</g>
</g>
<!-- Node35&#45;&gt;Node37 -->
<g id="edge36_Node000035_Node000037" class="edge">
<title>Node35&#45;&gt;Node37</title>
<g id="a_edge36_Node000035_Node000037"><a xlink:title=" ">
<path fill="none" stroke="#63b8ff" d="M590.97,-113.94C597.62,-111.69 604.1,-108.92 610,-105.5 630.69,-93.51 625.66,-78.09 646,-65.5 649.54,-63.31 653.34,-61.36 657.27,-59.64"/>
<polygon fill="#63b8ff" stroke="#63b8ff" points="658.55,-62.9 666.6,-56 656.01,-56.37 658.55,-62.9"/>
</a>
</g>
</g>
<!-- Node41 -->
<g id="Node000041" class="node">
<title>Node41</title>
<g id="a_Node000041"><a xlink:href="math_8h.html#a37bde043e94a6f074c78f10518fb5d99" target="_top" xlink:title=" ">
<polygon fill="white" stroke="#666666" points="735,-19 696,-19 696,0 735,0 735,-19"/>
<text text-anchor="middle" x="715.5" y="-7" font-family="Helvetica,sans-Serif" font-size="10.00">sqrtf</text>
</a>
</g>
</g>
<!-- Node35&#45;&gt;Node41 -->
<g id="edge42_Node000035_Node000041" class="edge">
<title>Node35&#45;&gt;Node41</title>
<g id="a_edge42_Node000035_Node000041"><a xlink:title=" ">
<path fill="none" stroke="#63b8ff" d="M596.26,-113.84C601.17,-111.57 605.83,-108.83 610,-105.5 639.54,-81.96 617.16,-52.9 646,-28.5 657.08,-19.13 672.43,-14.36 685.79,-11.94"/>
<polygon fill="#63b8ff" stroke="#63b8ff" points="686.57,-15.36 695.96,-10.46 685.56,-8.44 686.57,-15.36"/>
</a>
</g>
</g>
<!-- Node38 -->
<g id="Node000038" class="node">
<title>Node38</title>
<g id="a_Node000038"><a xlink:href="math__util_8c.html#a84cf9d4ec33146a64c230ed4cec56632" target="_top" xlink:title=" ">
<polygon fill="white" stroke="#666666" points="959,-55.5 824,-55.5 824,-25.5 959,-25.5 959,-55.5"/>
<text text-anchor="start" x="832" y="-43.5" font-family="Helvetica,sans-Serif" font-size="10.00">get_angle_between_two</text>
<text text-anchor="middle" x="891.5" y="-32.5" font-family="Helvetica,sans-Serif" font-size="10.00">_vectors</text>
</a>
</g>
</g>
<!-- Node37&#45;&gt;Node38 -->
<g id="edge37_Node000037_Node000038" class="edge">
<title>Node37&#45;&gt;Node38</title>
<g id="a_edge37_Node000037_Node000038"><a xlink:title=" ">
<path fill="none" stroke="#63b8ff" d="M785.27,-44.13C794.62,-43.81 804.26,-43.47 813.74,-43.15"/>
<polygon fill="#63b8ff" stroke="#63b8ff" points="814.06,-46.64 823.93,-42.8 813.82,-39.64 814.06,-46.64"/>
</a>
</g>
</g>
<!-- Node39 -->
<g id="Node000039" class="node">
<title>Node39</title>
<g id="a_Node000039"><a xlink:href="math__util_8c.html#aaa39a297477f56051975259f4bddd829" target="_top" xlink:title=" ">
<polygon fill="white" stroke="#666666" points="1096,-32 1046,-32 1046,-13 1096,-13 1096,-32"/>
<text text-anchor="middle" x="1071" y="-20" font-family="Helvetica,sans-Serif" font-size="10.00">atan2s</text>
</a>
</g>
</g>
<!-- Node38&#45;&gt;Node39 -->
<g id="edge38_Node000038_Node000039" class="edge">
<title>Node38&#45;&gt;Node39</title>
<g id="a_edge38_Node000038_Node000039"><a xlink:title=" ">
<path fill="none" stroke="#63b8ff" d="M959.1,-33.75C985.14,-31.11 1013.89,-28.19 1035.6,-25.99"/>
<polygon fill="#63b8ff" stroke="#63b8ff" points="1036.05,-29.46 1045.64,-24.97 1035.34,-22.5 1036.05,-29.46"/>
</a>
</g>
</g>
<!-- Node40 -->
<g id="Node000040" class="node">
<title>Node40</title>
<g id="a_Node000040"><a xlink:href="math__util_8c.html#a0273b0ea0783a06996c28669a7438ed9" target="_top" xlink:title=" ">
<polygon fill="white" stroke="#666666" points="1300,-32 1218,-32 1218,-13 1300,-13 1300,-32"/>
<text text-anchor="middle" x="1259" y="-20" font-family="Helvetica,sans-Serif" font-size="10.00">atan2_lookup</text>
</a>
</g>
</g>
<!-- Node39&#45;&gt;Node40 -->
<g id="edge39_Node000039_Node000040" class="edge">
<title>Node39&#45;&gt;Node40</title>
<g id="a_edge39_Node000039_Node000040"><a xlink:title=" ">
<path fill="none" stroke="#63b8ff" d="M1096.32,-22.5C1124.37,-22.5 1171.26,-22.5 1207.34,-22.5"/>
<polygon fill="#63b8ff" stroke="#63b8ff" points="1207.68,-26 1217.68,-22.5 1207.68,-19 1207.68,-26"/>
</a>
</g>
</g>
</g>
</svg>

<g id="navigator" transform="translate(0 0)" fill="#404254">
  <rect fill="#f2f5e9" fill-opacity="0.5" stroke="#606060" stroke-width=".5" x="0" y="0" width="60" height="60"/>
  <use id="zoomplus" xlink:href="#zoomPlus" x="17" y="9" onmousedown="handleZoom(evt,'in')"/>
  <use id="zoomminus" xlink:href="#zoomMin" x="42" y="9" onmousedown="handleZoom(evt,'out')"/>
  <use id="reset" xlink:href="#resetDef" x="30" y="36" onmousedown="handleReset()"/>
   <use id="arrowup" xlink:href="#arrowUp" x="0" y="0" onmousedown="handlePan(0,-1)"/>
  <use id="arrowright" xlink:href="#arrowRight" x="0" y="0" onmousedown="handlePan(1,0)"/>
  <use id="arrowdown" xlink:href="#arrowDown" x="0" y="0" onmousedown="handlePan(0,1)"/>
  <use id="arrowleft" xlink:href="#arrowLeft" x="0" y="0" onmousedown="handlePan(-1,0)"/>
</g>
<svg viewBox="0 0 15 15" width="100%" height="30px" preserveAspectRatio="xMaxYMin meet">
 <g id="arrow_out" transform="scale(0.3 0.3)">
  <a xlink:href="classEditor_1_1ContentBrowserWindow_a892a21e5db2c05ba813cfdc4f1dae812_cgraph_org.svg" target="_base">
   <rect id="button" ry="5" rx="5" y="6" x="6" height="38" width="38"
        fill="#f2f5e9" fill-opacity="0.5" stroke="#606060" stroke-width="1.0"/>
   <path id="arrow"
     d="M 11.500037,31.436501 C 11.940474,20.09759 22.043105,11.32322 32.158766,21.979434 L 37.068811,17.246167 C 37.068811,17.246167 37.088388,32 37.088388,32 L 22.160133,31.978069 C 22.160133,31.978069 26.997745,27.140456 26.997745,27.140456 C 18.528582,18.264221 13.291696,25.230495 11.500037,31.436501 z"
     style="fill:#404040;"/>
  </a>
 </g>
</svg>

<style type='text/css'>
<![CDATA[
[data-mouse-over-selected='false'] { opacity: 0.7; }
[data-mouse-over-selected='true']  { opacity: 1.0; }
]]>
</style>
<script type="application/ecmascript"><![CDATA[
document.addEventListener('DOMContentLoaded', (event) => {
  highlightEdges();
  highlightAdjacentNodes();
});
]]></script>
</svg>
