<?xml version="1.0" encoding="UTF-8" standalone="no"?>
<!DOCTYPE svg PUBLIC "-//W3C//DTD SVG 1.1//EN"
 "http://www.w3.org/Graphics/SVG/1.1/DTD/svg11.dtd">
<!-- Generated by graphviz version 2.43.0 (0)
 -->
<!-- Title: ATankerTruck::ATankerTruck Pages: 1 -->
<svg width="1642pt" height="415pt"
 viewBox="0.00 0.00 1642.00 415.00" xmlns="http://www.w3.org/2000/svg" xmlns:xlink="http://www.w3.org/1999/xlink">
<g id="graph0" class="graph" transform="scale(1 1) rotate(0) translate(4 411)">
<title>ATankerTruck::ATankerTruck</title>
<!-- Node1 -->
<g id="Node000001" class="node">
<title>Node1</title>
<g id="a_Node000001"><a xlink:title=" ">
<polygon fill="#999999" stroke="#666666" points="149,-132 0,-132 0,-113 149,-113 149,-132"/>
<text text-anchor="middle" x="74.5" y="-120" font-family="Helvetica,sans-Serif" font-size="10.00">ATankerTruck::ATankerTruck</text>
</a>
</g>
</g>
<!-- Node2 -->
<g id="Node000002" class="node">
<title>Node2</title>
<g id="a_Node000002"><a xlink:href="classAActor.html#a679c43bacf3600fa2d7a6ab30e34a8a6" target="_top" xlink:title=" ">
<polygon fill="white" stroke="#666666" points="313,-276 226,-276 226,-257 313,-257 313,-276"/>
<text text-anchor="middle" x="269.5" y="-264" font-family="Helvetica,sans-Serif" font-size="10.00">AActor::AActor</text>
</a>
</g>
</g>
<!-- Node1&#45;&gt;Node2 -->
<g id="edge1_Node000001_Node000002" class="edge">
<title>Node1&#45;&gt;Node2</title>
<g id="a_edge1_Node000001_Node000002"><a xlink:title=" ">
<path fill="none" stroke="#63b8ff" d="M80.92,-132.26C94.79,-156.27 134.1,-218.42 185,-248.5 194.38,-254.05 205.26,-257.89 216,-260.56"/>
<polygon fill="#63b8ff" stroke="#63b8ff" points="215.27,-263.98 225.78,-262.68 216.76,-257.14 215.27,-263.98"/>
</a>
</g>
</g>
<!-- Node3 -->
<g id="Node000003" class="node">
<title>Node3</title>
<g id="a_Node000003"><a xlink:href="actors_8c.html#a91fb2e4e37e7c72fea918fe2c1bb4eaf" target="_top" xlink:title=" ">
<polygon fill="white" stroke="#666666" points="339.5,-239 199.5,-239 199.5,-220 339.5,-220 339.5,-239"/>
<text text-anchor="middle" x="269.5" y="-227" font-family="Helvetica,sans-Serif" font-size="10.00">add_actor_to_empty_slot</text>
</a>
</g>
</g>
<!-- Node1&#45;&gt;Node3 -->
<g id="edge2_Node000001_Node000003" class="edge">
<title>Node1&#45;&gt;Node3</title>
<g id="a_edge2_Node000001_Node000003"><a xlink:title=" ">
<path fill="none" stroke="#63b8ff" d="M92.97,-132.18C126.99,-151.04 202.28,-192.79 242.3,-214.98"/>
<polygon fill="#63b8ff" stroke="#63b8ff" points="240.77,-218.13 251.21,-219.91 244.16,-212 240.77,-218.13"/>
</a>
</g>
</g>
<!-- Node29 -->
<g id="Node000029" class="node">
<title>Node29</title>
<g id="a_Node000029"><a xlink:href="code__80005FD0_8c.html#a45fa364fbae557a3d2025ebdc0846cd2" target="_top" xlink:title=" ">
<polygon fill="white" stroke="#666666" points="493,-67 399,-67 399,-48 493,-48 493,-67"/>
<text text-anchor="middle" x="446" y="-55" font-family="Helvetica,sans-Serif" font-size="10.00">func_8000D6D0</text>
</a>
</g>
</g>
<!-- Node1&#45;&gt;Node29 -->
<g id="edge28_Node000001_Node000029" class="edge">
<title>Node1&#45;&gt;Node29</title>
<g id="a_edge28_Node000001_Node000029"><a xlink:title=" ">
<path fill="none" stroke="#63b8ff" d="M89.22,-112.95C109.21,-99.65 148,-76.09 185,-66.5 253.25,-48.81 334.93,-49.34 388.29,-52.46"/>
<polygon fill="#63b8ff" stroke="#63b8ff" points="388.37,-55.97 398.58,-53.11 388.82,-48.98 388.37,-55.97"/>
</a>
</g>
</g>
<!-- Node43 -->
<g id="Node000043" class="node">
<title>Node43</title>
<g id="a_Node000043"><a xlink:href="code__80005FD0_8c.html#a124bae511133f507498b19842362feeb" target="_top" xlink:title=" ">
<polygon fill="white" stroke="#666666" points="492,-122 400,-122 400,-103 492,-103 492,-122"/>
<text text-anchor="middle" x="446" y="-110" font-family="Helvetica,sans-Serif" font-size="10.00">func_8000D940</text>
</a>
</g>
</g>
<!-- Node1&#45;&gt;Node43 -->
<g id="edge43_Node000001_Node000043" class="edge">
<title>Node1&#45;&gt;Node43</title>
<g id="a_edge43_Node000001_Node000043"><a xlink:title=" ">
<path fill="none" stroke="#63b8ff" d="M122.99,-132.04C142.16,-135.43 164.55,-138.83 185,-140.5 259.86,-146.61 279.72,-151.67 354,-140.5 373.4,-137.58 394.38,-131.35 411.29,-125.5"/>
<polygon fill="#63b8ff" stroke="#63b8ff" points="412.5,-128.79 420.74,-122.14 410.15,-122.2 412.5,-128.79"/>
</a>
</g>
</g>
<!-- Node44 -->
<g id="Node000044" class="node">
<title>Node44</title>
<g id="a_Node000044"><a xlink:href="Utils_8cpp.html#aeaf9fffe1458c3ce2a95a80906db76c3" target="_top" xlink:title=" ">
<polygon fill="white" stroke="#666666" points="354,-95 185,-95 185,-76 354,-76 354,-95"/>
<text text-anchor="middle" x="269.5" y="-83" font-family="Helvetica,sans-Serif" font-size="10.00">GetVehiclePathPointDistributed</text>
</a>
</g>
</g>
<!-- Node1&#45;&gt;Node44 -->
<g id="edge48_Node000001_Node000044" class="edge">
<title>Node1&#45;&gt;Node44</title>
<g id="a_edge48_Node000001_Node000044"><a xlink:title=" ">
<path fill="none" stroke="#63b8ff" d="M125.2,-112.97C150.65,-108.09 181.84,-102.11 208.61,-96.98"/>
<polygon fill="#63b8ff" stroke="#63b8ff" points="209.47,-100.38 218.63,-95.06 208.15,-93.51 209.47,-100.38"/>
</a>
</g>
</g>
<!-- Node45 -->
<g id="Node000045" class="node">
<title>Node45</title>
<g id="a_Node000045"><a xlink:href="math__util_8c.html#a151b63b8adf9af7e4054b3b84bd226dc" target="_top" xlink:title=" ">
<polygon fill="white" stroke="#666666" points="305.5,-19 233.5,-19 233.5,0 305.5,0 305.5,-19"/>
<text text-anchor="middle" x="269.5" y="-7" font-family="Helvetica,sans-Serif" font-size="10.00">random_int</text>
</a>
</g>
</g>
<!-- Node1&#45;&gt;Node45 -->
<g id="edge49_Node000001_Node000045" class="edge">
<title>Node1&#45;&gt;Node45</title>
<g id="a_edge49_Node000001_Node000045"><a xlink:title=" ">
<path fill="none" stroke="#63b8ff" d="M84.52,-112.96C102.13,-94.86 143.09,-55.38 185,-33.5 196.82,-27.33 210.43,-22.56 223.18,-18.96"/>
<polygon fill="#63b8ff" stroke="#63b8ff" points="224.4,-22.26 233.18,-16.32 222.61,-15.49 224.4,-22.26"/>
</a>
</g>
</g>
<!-- Node47 -->
<g id="Node000047" class="node">
<title>Node47</title>
<g id="a_Node000047"><a xlink:href="code__80005FD0_8c.html#ac8070bcd41974c70ea8b6d4218b1ebef" target="_top" xlink:title=" ">
<polygon fill="white" stroke="#666666" points="336,-132 203,-132 203,-113 336,-113 336,-132"/>
<text text-anchor="middle" x="269.5" y="-120" font-family="Helvetica,sans-Serif" font-size="10.00">spawn_vehicle_on_road</text>
</a>
</g>
</g>
<!-- Node1&#45;&gt;Node47 -->
<g id="edge51_Node000001_Node000047" class="edge">
<title>Node1&#45;&gt;Node47</title>
<g id="a_edge51_Node000001_Node000047"><a xlink:title=" ">
<path fill="none" stroke="#63b8ff" d="M149.02,-122.5C163.25,-122.5 178.18,-122.5 192.49,-122.5"/>
<polygon fill="#63b8ff" stroke="#63b8ff" points="192.78,-126 202.78,-122.5 192.78,-119 192.78,-126"/>
</a>
</g>
</g>
<!-- Node4 -->
<g id="Node000004" class="node">
<title>Node4</title>
<g id="a_Node000004"><a xlink:href="actors_8c.html#a39c023177b5a7686cdd1fc65b8b953e1" target="_top" xlink:title=" ">
<polygon fill="white" stroke="#666666" points="477,-220 415,-220 415,-201 477,-201 477,-220"/>
<text text-anchor="middle" x="446" y="-208" font-family="Helvetica,sans-Serif" font-size="10.00">actor_init</text>
</a>
</g>
</g>
<!-- Node3&#45;&gt;Node4 -->
<g id="edge3_Node000003_Node000004" class="edge">
<title>Node3&#45;&gt;Node4</title>
<g id="a_edge3_Node000003_Node000004"><a xlink:title=" ">
<path fill="none" stroke="#63b8ff" d="M339.72,-221.96C361.82,-219.56 385.53,-216.97 404.85,-214.87"/>
<polygon fill="#63b8ff" stroke="#63b8ff" points="405.24,-218.35 414.8,-213.79 404.48,-211.39 405.24,-218.35"/>
</a>
</g>
</g>
<!-- Node26 -->
<g id="Node000026" class="node">
<title>Node26</title>
<g id="a_Node000026"><a xlink:href="Game_8cpp.html#acea5cfd9ab22f745bd6627869b95a62e" target="_top" xlink:title=" ">
<polygon fill="white" stroke="#666666" points="502,-331 390,-331 390,-312 502,-312 502,-331"/>
<text text-anchor="middle" x="446" y="-319" font-family="Helvetica,sans-Serif" font-size="10.00">CM_ActorBeginPlay</text>
</a>
</g>
</g>
<!-- Node3&#45;&gt;Node26 -->
<g id="edge25_Node000003_Node000026" class="edge">
<title>Node3&#45;&gt;Node26</title>
<g id="a_edge25_Node000003_Node000026"><a xlink:title=" ">
<path fill="none" stroke="#63b8ff" d="M335.97,-239.16C342.36,-241.62 348.51,-244.68 354,-248.5 377.99,-265.18 366.81,-285.73 390,-303.5 391.81,-304.89 393.74,-306.18 395.74,-307.36"/>
<polygon fill="#63b8ff" stroke="#63b8ff" points="394.41,-310.61 404.92,-311.97 397.56,-304.36 394.41,-310.61"/>
</a>
</g>
</g>
<!-- Node27 -->
<g id="Node000027" class="node">
<title>Node27</title>
<g id="a_Node000027"><a xlink:href="Game_8cpp.html#a42f23077aaa52cb3ea5c7803b7dd6816" target="_top" xlink:title=" ">
<polygon fill="white" stroke="#666666" points="499,-294 393,-294 393,-275 499,-275 499,-294"/>
<text text-anchor="middle" x="446" y="-282" font-family="Helvetica,sans-Serif" font-size="10.00">CM_AddBaseActor</text>
</a>
</g>
</g>
<!-- Node3&#45;&gt;Node27 -->
<g id="edge26_Node000003_Node000027" class="edge">
<title>Node3&#45;&gt;Node27</title>
<g id="a_edge26_Node000003_Node000027"><a xlink:title=" ">
<path fill="none" stroke="#63b8ff" d="M321.4,-239.03C332.29,-241.64 343.64,-244.79 354,-248.5 370.84,-254.53 373.45,-259.7 390,-266.5 394.24,-268.24 398.72,-269.94 403.22,-271.55"/>
<polygon fill="#63b8ff" stroke="#63b8ff" points="402.41,-274.97 413.01,-274.91 404.69,-268.35 402.41,-274.97"/>
</a>
</g>
</g>
<!-- Node28 -->
<g id="Node000028" class="node">
<title>Node28</title>
<g id="a_Node000028"><a xlink:href="Game_8cpp.html#a0841ffe9a66e95aca42438b9d8ffc3d3" target="_top" xlink:title=" ">
<polygon fill="white" stroke="#666666" points="496.5,-257 395.5,-257 395.5,-238 496.5,-238 496.5,-257"/>
<text text-anchor="middle" x="446" y="-245" font-family="Helvetica,sans-Serif" font-size="10.00">CM_GetActorSize</text>
</a>
</g>
</g>
<!-- Node3&#45;&gt;Node28 -->
<g id="edge27_Node000003_Node000028" class="edge">
<title>Node3&#45;&gt;Node28</title>
<g id="a_edge27_Node000003_Node000028"><a xlink:title=" ">
<path fill="none" stroke="#63b8ff" d="M339.72,-236.64C354.79,-238.2 370.62,-239.83 385.29,-241.34"/>
<polygon fill="#63b8ff" stroke="#63b8ff" points="384.93,-244.82 395.24,-242.37 385.65,-237.86 384.93,-244.82"/>
</a>
</g>
</g>
<!-- Node5 -->
<g id="Node000005" class="node">
<title>Node5</title>
<g id="a_Node000005"><a xlink:href="collision_8c.html#a37aa55b3768d001533ad75e7f1b8388a" target="_top" xlink:title=" ">
<polygon fill="white" stroke="#666666" points="1044.5,-174 903.5,-174 903.5,-155 1044.5,-155 1044.5,-174"/>
<text text-anchor="middle" x="974" y="-162" font-family="Helvetica,sans-Serif" font-size="10.00">check_bounding_collision</text>
</a>
</g>
</g>
<!-- Node4&#45;&gt;Node5 -->
<g id="edge4_Node000004_Node000005" class="edge">
<title>Node4&#45;&gt;Node5</title>
<g id="a_edge4_Node000004_Node000005"><a xlink:title=" ">
<path fill="none" stroke="#63b8ff" d="M477.14,-203.07C494.78,-199.01 517.53,-194.26 538,-191.5 661.35,-174.88 805.77,-168.47 893.27,-166.01"/>
<polygon fill="#63b8ff" stroke="#63b8ff" points="893.49,-169.51 903.39,-165.74 893.3,-162.51 893.49,-169.51"/>
</a>
</g>
</g>
<!-- Node9 -->
<g id="Node000009" class="node">
<title>Node9</title>
<g id="a_Node000009"><a xlink:href="actors_8c.html#a1a9bccb586242555a9123ebd4ab70f2a" target="_top" xlink:title=" ">
<polygon fill="white" stroke="#666666" points="673.5,-360.5 541.5,-360.5 541.5,-330.5 673.5,-330.5 673.5,-360.5"/>
<text text-anchor="start" x="549.5" y="-348.5" font-family="Helvetica,sans-Serif" font-size="10.00">cleanup_red_and_green</text>
<text text-anchor="middle" x="607.5" y="-337.5" font-family="Helvetica,sans-Serif" font-size="10.00">_shells</text>
</a>
</g>
</g>
<!-- Node4&#45;&gt;Node9 -->
<g id="edge8_Node000004_Node000009" class="edge">
<title>Node4&#45;&gt;Node9</title>
<g id="a_edge8_Node000004_Node000009"><a xlink:title=" ">
<path fill="none" stroke="#63b8ff" d="M477.24,-215.69C485.99,-218.37 495.05,-222.41 502,-228.5 529.8,-252.87 513.23,-276.05 538,-303.5 545.58,-311.9 555.24,-319.2 564.9,-325.25"/>
<polygon fill="#63b8ff" stroke="#63b8ff" points="563.32,-328.38 573.71,-330.45 566.88,-322.35 563.32,-328.38"/>
</a>
</g>
</g>
<!-- Node22 -->
<g id="Node000022" class="node">
<title>Node22</title>
<g id="a_Node000022"><a xlink:href="collision_8c.html#ad72fef3ffe32191d73b1822f512ebf3f" target="_top" xlink:title=" ">
<polygon fill="white" stroke="#666666" points="655,-294 560,-294 560,-275 655,-275 655,-294"/>
<text text-anchor="middle" x="607.5" y="-282" font-family="Helvetica,sans-Serif" font-size="10.00">func_802AAAAC</text>
</a>
</g>
</g>
<!-- Node4&#45;&gt;Node22 -->
<g id="edge21_Node000004_Node000022" class="edge">
<title>Node4&#45;&gt;Node22</title>
<g id="a_edge21_Node000004_Node000022"><a xlink:title=" ">
<path fill="none" stroke="#63b8ff" d="M477.03,-217.38C485.5,-220.08 494.44,-223.72 502,-228.5 521.66,-240.94 517.98,-254.65 538,-266.5 541.85,-268.78 546,-270.78 550.27,-272.53"/>
<polygon fill="#63b8ff" stroke="#63b8ff" points="549.17,-275.85 559.77,-275.96 551.56,-269.27 549.17,-275.85"/>
</a>
</g>
</g>
<!-- Node24 -->
<g id="Node000024" class="node">
<title>Node24</title>
<g id="a_Node000024"><a xlink:href="math__util_8c.html#af7b470ed76fce07b8042a47c96e5690b" target="_top" xlink:title=" ">
<polygon fill="white" stroke="#666666" points="661,-257 554,-257 554,-238 661,-238 661,-257"/>
<text text-anchor="middle" x="607.5" y="-245" font-family="Helvetica,sans-Serif" font-size="10.00">vec3f_copy_return</text>
</a>
</g>
</g>
<!-- Node4&#45;&gt;Node24 -->
<g id="edge23_Node000004_Node000024" class="edge">
<title>Node4&#45;&gt;Node24</title>
<g id="a_edge23_Node000004_Node000024"><a xlink:title=" ">
<path fill="none" stroke="#63b8ff" d="M477,-217.46C499.07,-222.58 529.6,-229.66 555.47,-235.66"/>
<polygon fill="#63b8ff" stroke="#63b8ff" points="554.97,-239.14 565.5,-237.99 556.55,-232.32 554.97,-239.14"/>
</a>
</g>
</g>
<!-- Node25 -->
<g id="Node000025" class="node">
<title>Node25</title>
<g id="a_Node000025"><a xlink:href="math__util_8c.html#a0e270ee67600c8c9c2f140c647d008a1" target="_top" xlink:title=" ">
<polygon fill="white" stroke="#666666" points="644.5,-220 570.5,-220 570.5,-201 644.5,-201 644.5,-220"/>
<text text-anchor="middle" x="607.5" y="-208" font-family="Helvetica,sans-Serif" font-size="10.00">vec3s_copy</text>
</a>
</g>
</g>
<!-- Node4&#45;&gt;Node25 -->
<g id="edge24_Node000004_Node000025" class="edge">
<title>Node4&#45;&gt;Node25</title>
<g id="a_edge24_Node000004_Node000025"><a xlink:title=" ">
<path fill="none" stroke="#63b8ff" d="M477,-210.5C500.42,-210.5 533.38,-210.5 560.18,-210.5"/>
<polygon fill="#63b8ff" stroke="#63b8ff" points="560.49,-214 570.49,-210.5 560.49,-207 560.49,-214"/>
</a>
</g>
</g>
<!-- Node6 -->
<g id="Node000006" class="node">
<title>Node6</title>
<g id="a_Node000006"><a xlink:href="collision_8c.html#ac312bf382cb40752f6b790a99e7cdcb6" target="_top" xlink:title=" ">
<polygon fill="white" stroke="#666666" points="1199,-137 1091,-137 1091,-118 1199,-118 1199,-137"/>
<text text-anchor="middle" x="1145" y="-125" font-family="Helvetica,sans-Serif" font-size="10.00">check_collision_yx</text>
</a>
</g>
</g>
<!-- Node5&#45;&gt;Node6 -->
<g id="edge5_Node000005_Node000006" class="edge">
<title>Node5&#45;&gt;Node6</title>
<g id="a_edge5_Node000005_Node000006"><a xlink:title=" ">
<path fill="none" stroke="#63b8ff" d="M1018.52,-154.97C1040.42,-150.18 1067.15,-144.32 1090.31,-139.25"/>
<polygon fill="#63b8ff" stroke="#63b8ff" points="1091.31,-142.62 1100.33,-137.06 1089.82,-135.78 1091.31,-142.62"/>
</a>
</g>
</g>
<!-- Node7 -->
<g id="Node000007" class="node">
<title>Node7</title>
<g id="a_Node000007"><a xlink:href="collision_8c.html#a4b48832a90e984536a0635a016ec4f28" target="_top" xlink:title=" ">
<polygon fill="white" stroke="#666666" points="1198.5,-211 1091.5,-211 1091.5,-192 1198.5,-192 1198.5,-211"/>
<text text-anchor="middle" x="1145" y="-199" font-family="Helvetica,sans-Serif" font-size="10.00">check_collision_zx</text>
</a>
</g>
</g>
<!-- Node5&#45;&gt;Node7 -->
<g id="edge6_Node000005_Node000007" class="edge">
<title>Node5&#45;&gt;Node7</title>
<g id="a_edge6_Node000005_Node000007"><a xlink:title=" ">
<path fill="none" stroke="#63b8ff" d="M1018.52,-174.03C1040.42,-178.82 1067.15,-184.68 1090.31,-189.75"/>
<polygon fill="#63b8ff" stroke="#63b8ff" points="1089.82,-193.22 1100.33,-191.94 1091.31,-186.38 1089.82,-193.22"/>
</a>
</g>
</g>
<!-- Node8 -->
<g id="Node000008" class="node">
<title>Node8</title>
<g id="a_Node000008"><a xlink:href="collision_8c.html#a21fef964ab48191a1c0341954ef27a40" target="_top" xlink:title=" ">
<polygon fill="white" stroke="#666666" points="1198.5,-174 1091.5,-174 1091.5,-155 1198.5,-155 1198.5,-174"/>
<text text-anchor="middle" x="1145" y="-162" font-family="Helvetica,sans-Serif" font-size="10.00">check_collision_zy</text>
</a>
</g>
</g>
<!-- Node5&#45;&gt;Node8 -->
<g id="edge7_Node000005_Node000008" class="edge">
<title>Node5&#45;&gt;Node8</title>
<g id="a_edge7_Node000005_Node000008"><a xlink:title=" ">
<path fill="none" stroke="#63b8ff" d="M1044.71,-164.5C1056.81,-164.5 1069.32,-164.5 1081.22,-164.5"/>
<polygon fill="#63b8ff" stroke="#63b8ff" points="1081.49,-168 1091.49,-164.5 1081.49,-161 1081.49,-168"/>
</a>
</g>
</g>
<!-- Node10 -->
<g id="Node000010" class="node">
<title>Node10</title>
<g id="a_Node000010"><a xlink:href="Game_8cpp.html#a693de7d8b89fe291aafea86bc64a0a2e" target="_top" xlink:title=" ">
<polygon fill="white" stroke="#666666" points="826,-407 746,-407 746,-388 826,-388 826,-407"/>
<text text-anchor="middle" x="786" y="-395" font-family="Helvetica,sans-Serif" font-size="10.00">CM_GetActor</text>
</a>
</g>
</g>
<!-- Node9&#45;&gt;Node10 -->
<g id="edge9_Node000009_Node000010" class="edge">
<title>Node9&#45;&gt;Node10</title>
<g id="a_edge9_Node000009_Node000010"><a xlink:title=" ">
<path fill="none" stroke="#63b8ff" d="M654.4,-360.52C672.58,-366.33 693.72,-372.92 713,-378.5 720.95,-380.8 729.42,-383.14 737.65,-385.35"/>
<polygon fill="#63b8ff" stroke="#63b8ff" points="736.97,-388.79 747.54,-387.98 738.77,-382.03 736.97,-388.79"/>
</a>
</g>
</g>
<!-- Node11 -->
<g id="Node000011" class="node">
<title>Node11</title>
<g id="a_Node000011"><a xlink:href="code__80005FD0_8c.html#ad301b978cdd3c4cc190b10be050d51d8" target="_top" xlink:title=" ">
<polygon fill="white" stroke="#666666" points="859,-369.5 713,-369.5 713,-339.5 859,-339.5 859,-369.5"/>
<text text-anchor="start" x="721" y="-357.5" font-family="Helvetica,sans-Serif" font-size="10.00">delete_actor_in_unexpired</text>
<text text-anchor="middle" x="786" y="-346.5" font-family="Helvetica,sans-Serif" font-size="10.00">_actor_list</text>
</a>
</g>
</g>
<!-- Node9&#45;&gt;Node11 -->
<g id="edge10_Node000009_Node000011" class="edge">
<title>Node9&#45;&gt;Node11</title>
<g id="a_edge10_Node000009_Node000011"><a xlink:title=" ">
<path fill="none" stroke="#63b8ff" d="M673.72,-348.83C683.2,-349.31 693.05,-349.81 702.81,-350.31"/>
<polygon fill="#63b8ff" stroke="#63b8ff" points="702.75,-353.81 712.92,-350.82 703.11,-346.82 702.75,-353.81"/>
</a>
</g>
</g>
<!-- Node12 -->
<g id="Node000012" class="node">
<title>Node12</title>
<g id="a_Node000012"><a xlink:href="actors_8c.html#a694ec6ef7548b8618aeb35c038d3a9b9" target="_top" xlink:title=" ">
<polygon fill="white" stroke="#666666" points="827.5,-321 744.5,-321 744.5,-302 827.5,-302 827.5,-321"/>
<text text-anchor="middle" x="786" y="-309" font-family="Helvetica,sans-Serif" font-size="10.00">destroy_actor</text>
</a>
</g>
</g>
<!-- Node9&#45;&gt;Node12 -->
<g id="edge11_Node000009_Node000012" class="edge">
<title>Node9&#45;&gt;Node12</title>
<g id="a_edge11_Node000009_Node000012"><a xlink:title=" ">
<path fill="none" stroke="#63b8ff" d="M673.72,-332.94C693.78,-329.07 715.55,-324.88 734.47,-321.23"/>
<polygon fill="#63b8ff" stroke="#63b8ff" points="735.21,-324.66 744.37,-319.33 733.88,-317.78 735.21,-324.66"/>
</a>
</g>
</g>
<!-- Node13 -->
<g id="Node000013" class="node">
<title>Node13</title>
<g id="a_Node000013"><a xlink:href="actors_8c.html#a12dc3ccac4c7d8569eadac0af4fd6f9f" target="_top" xlink:title=" ">
<polygon fill="white" stroke="#666666" points="1053,-321 895,-321 895,-302 1053,-302 1053,-321"/>
<text text-anchor="middle" x="974" y="-309" font-family="Helvetica,sans-Serif" font-size="10.00">play_sound_before_despawn</text>
</a>
</g>
</g>
<!-- Node12&#45;&gt;Node13 -->
<g id="edge12_Node000012_Node000013" class="edge">
<title>Node12&#45;&gt;Node13</title>
<g id="a_edge12_Node000012_Node000013"><a xlink:title=" ">
<path fill="none" stroke="#63b8ff" d="M827.82,-311.5C844.65,-311.5 864.86,-311.5 884.77,-311.5"/>
<polygon fill="#63b8ff" stroke="#63b8ff" points="884.82,-315 894.82,-311.5 884.82,-308 884.82,-315"/>
</a>
</g>
</g>
<!-- Node14 -->
<g id="Node000014" class="node">
<title>Node14</title>
<g id="a_Node000014"><a xlink:href="external_8c.html#ae72057869772019e4464c87d4e16c682" target="_top" xlink:title=" ">
<polygon fill="white" stroke="#666666" points="1191,-321 1099,-321 1099,-302 1191,-302 1191,-321"/>
<text text-anchor="middle" x="1145" y="-309" font-family="Helvetica,sans-Serif" font-size="10.00">func_800C99E0</text>
</a>
</g>
</g>
<!-- Node13&#45;&gt;Node14 -->
<g id="edge13_Node000013_Node000014" class="edge">
<title>Node13&#45;&gt;Node14</title>
<g id="a_edge13_Node000013_Node000014"><a xlink:title=" ">
<path fill="none" stroke="#63b8ff" d="M1053.07,-311.5C1065.12,-311.5 1077.35,-311.5 1088.76,-311.5"/>
<polygon fill="#63b8ff" stroke="#63b8ff" points="1088.99,-315 1098.99,-311.5 1088.99,-308 1088.99,-315"/>
</a>
</g>
</g>
<!-- Node15 -->
<g id="Node000015" class="node">
<title>Node15</title>
<g id="a_Node000015"><a xlink:href="external_8c.html#aeb87c527482a244173df36a1f3d4f446" target="_top" xlink:title=" ">
<polygon fill="white" stroke="#666666" points="1329,-340 1237,-340 1237,-321 1329,-321 1329,-340"/>
<text text-anchor="middle" x="1283" y="-328" font-family="Helvetica,sans-Serif" font-size="10.00">func_800C21E8</text>
</a>
</g>
</g>
<!-- Node14&#45;&gt;Node15 -->
<g id="edge14_Node000014_Node000015" class="edge">
<title>Node14&#45;&gt;Node15</title>
<g id="a_edge14_Node000014_Node000015"><a xlink:title=" ">
<path fill="none" stroke="#63b8ff" d="M1191.29,-317.83C1202.64,-319.41 1214.95,-321.13 1226.73,-322.78"/>
<polygon fill="#63b8ff" stroke="#63b8ff" points="1226.52,-326.28 1236.91,-324.2 1227.49,-319.35 1226.52,-326.28"/>
</a>
</g>
</g>
<!-- Node16 -->
<g id="Node000016" class="node">
<title>Node16</title>
<g id="a_Node000016"><a xlink:href="external_8c.html#a028d40421b90c38f68ebfd5acc626f2e" target="_top" xlink:title=" ">
<polygon fill="white" stroke="#666666" points="1329,-303 1237,-303 1237,-284 1329,-284 1329,-303"/>
<text text-anchor="middle" x="1283" y="-291" font-family="Helvetica,sans-Serif" font-size="10.00">func_800C5578</text>
</a>
</g>
</g>
<!-- Node14&#45;&gt;Node16 -->
<g id="edge15_Node000014_Node000016" class="edge">
<title>Node14&#45;&gt;Node16</title>
<g id="a_edge15_Node000014_Node000016"><a xlink:title=" ">
<path fill="none" stroke="#63b8ff" d="M1191.29,-305.51C1202.64,-304 1214.95,-302.37 1226.73,-300.81"/>
<polygon fill="#63b8ff" stroke="#63b8ff" points="1227.46,-304.25 1236.91,-299.47 1226.54,-297.31 1227.46,-304.25"/>
</a>
</g>
</g>
<!-- Node17 -->
<g id="Node000017" class="node">
<title>Node17</title>
<g id="a_Node000017"><a xlink:href="external_8c.html#ac0fb767de7e14a03f1bcfa53f0abd23b" target="_top" xlink:title=" ">
<polygon fill="white" stroke="#666666" points="1505,-340 1365,-340 1365,-321 1505,-321 1505,-340"/>
<text text-anchor="middle" x="1435" y="-328" font-family="Helvetica,sans-Serif" font-size="10.00">delete_sound_from_bank</text>
</a>
</g>
</g>
<!-- Node16&#45;&gt;Node17 -->
<g id="edge16_Node000016_Node000017" class="edge">
<title>Node16&#45;&gt;Node17</title>
<g id="a_edge16_Node000016_Node000017"><a xlink:title=" ">
<path fill="none" stroke="#63b8ff" d="M1322.63,-303.03C1341.8,-307.76 1365.16,-313.52 1385.52,-318.54"/>
<polygon fill="#63b8ff" stroke="#63b8ff" points="1384.69,-321.94 1395.24,-320.94 1386.37,-315.15 1384.69,-321.94"/>
</a>
</g>
</g>
<!-- Node19 -->
<g id="Node000019" class="node">
<title>Node19</title>
<g id="a_Node000019"><a xlink:href="external_8c.html#ab83bd36e63f0f1baddcb2482b5ad31b0" target="_top" xlink:title=" ">
<polygon fill="white" stroke="#666666" points="1481.5,-303 1388.5,-303 1388.5,-284 1481.5,-284 1481.5,-303"/>
<text text-anchor="middle" x="1435" y="-291" font-family="Helvetica,sans-Serif" font-size="10.00">func_800C41CC</text>
</a>
</g>
</g>
<!-- Node16&#45;&gt;Node19 -->
<g id="edge18_Node000016_Node000019" class="edge">
<title>Node16&#45;&gt;Node19</title>
<g id="a_edge18_Node000016_Node000019"><a xlink:title=" ">
<path fill="none" stroke="#63b8ff" d="M1329,-293.5C1344.37,-293.5 1361.74,-293.5 1377.86,-293.5"/>
<polygon fill="#63b8ff" stroke="#63b8ff" points="1378.25,-297 1388.25,-293.5 1378.25,-290 1378.25,-297"/>
</a>
</g>
</g>
<!-- Node20 -->
<g id="Node000020" class="node">
<title>Node20</title>
<g id="a_Node000020"><a xlink:href="port__eu_8c.html#aa89dfaecca46c6d071f08c1898d1f7c9" target="_top" xlink:title=" ">
<polygon fill="white" stroke="#666666" points="1481.5,-266 1388.5,-266 1388.5,-247 1481.5,-247 1481.5,-266"/>
<text text-anchor="middle" x="1435" y="-254" font-family="Helvetica,sans-Serif" font-size="10.00">func_800CBBE8</text>
</a>
</g>
</g>
<!-- Node16&#45;&gt;Node20 -->
<g id="edge19_Node000016_Node000020" class="edge">
<title>Node16&#45;&gt;Node20</title>
<g id="a_edge19_Node000016_Node000020"><a xlink:title=" ">
<path fill="none" stroke="#63b8ff" d="M1322.63,-283.97C1341.8,-279.24 1365.16,-273.48 1385.52,-268.46"/>
<polygon fill="#63b8ff" stroke="#63b8ff" points="1386.37,-271.85 1395.24,-266.06 1384.69,-265.06 1386.37,-271.85"/>
</a>
</g>
</g>
<!-- Node18 -->
<g id="Node000018" class="node">
<title>Node18</title>
<g id="a_Node000018"><a xlink:href="external_8c.html#a358ac55e8ab5262dcae8037334be06d7" target="_top" xlink:title=" ">
<polygon fill="white" stroke="#666666" points="1633.5,-340 1541.5,-340 1541.5,-321 1633.5,-321 1633.5,-340"/>
<text text-anchor="middle" x="1587.5" y="-328" font-family="Helvetica,sans-Serif" font-size="10.00">func_800C40F0</text>
</a>
</g>
</g>
<!-- Node17&#45;&gt;Node18 -->
<g id="edge17_Node000017_Node000018" class="edge">
<title>Node17&#45;&gt;Node18</title>
<g id="a_edge17_Node000017_Node000018"><a xlink:title=" ">
<path fill="none" stroke="#63b8ff" d="M1505.08,-330.5C1513.87,-330.5 1522.78,-330.5 1531.31,-330.5"/>
<polygon fill="#63b8ff" stroke="#63b8ff" points="1531.5,-334 1541.5,-330.5 1531.5,-327 1531.5,-334"/>
</a>
</g>
</g>
<!-- Node21 -->
<g id="Node000021" class="node">
<title>Node21</title>
<g id="a_Node000021"><a xlink:href="port__eu_8c.html#af361a20d2e08f30c53a237ca481ff734" target="_top" xlink:title=" ">
<polygon fill="white" stroke="#666666" points="1634,-266 1541,-266 1541,-247 1634,-247 1634,-266"/>
<text text-anchor="middle" x="1587.5" y="-254" font-family="Helvetica,sans-Serif" font-size="10.00">func_800CBB48</text>
</a>
</g>
</g>
<!-- Node20&#45;&gt;Node21 -->
<g id="edge20_Node000020_Node000021" class="edge">
<title>Node20&#45;&gt;Node21</title>
<g id="a_edge20_Node000020_Node000021"><a xlink:title=" ">
<path fill="none" stroke="#63b8ff" d="M1481.56,-256.5C1496.96,-256.5 1514.34,-256.5 1530.46,-256.5"/>
<polygon fill="#63b8ff" stroke="#63b8ff" points="1530.83,-260 1540.83,-256.5 1530.83,-253 1530.83,-260"/>
</a>
</g>
</g>
<!-- Node23 -->
<g id="Node000023" class="node">
<title>Node23</title>
<g id="a_Node000023"><a xlink:href="math__util_8c.html#a79fd07a0971ec96a3ff0801963a2fa7f" target="_top" xlink:title=" ">
<polygon fill="white" stroke="#666666" points="818,-284 754,-284 754,-265 818,-265 818,-284"/>
<text text-anchor="middle" x="786" y="-272" font-family="Helvetica,sans-Serif" font-size="10.00">vec3f_set</text>
</a>
</g>
</g>
<!-- Node22&#45;&gt;Node23 -->
<g id="edge22_Node000022_Node000023" class="edge">
<title>Node22&#45;&gt;Node23</title>
<g id="a_edge22_Node000022_Node000023"><a xlink:title=" ">
<path fill="none" stroke="#63b8ff" d="M655.34,-281.85C682.83,-280.29 717.27,-278.34 743.74,-276.84"/>
<polygon fill="#63b8ff" stroke="#63b8ff" points="744.04,-280.33 753.83,-276.27 743.65,-273.34 744.04,-280.33"/>
</a>
</g>
</g>
<!-- Node30 -->
<g id="Node000030" class="node">
<title>Node30</title>
<g id="a_Node000030"><a xlink:href="code__80005FD0_8c.html#aff1ba4b22fc22c38fcf28007ccaaa752" target="_top" xlink:title=" ">
<polygon fill="white" stroke="#666666" points="654,-141 561,-141 561,-122 654,-122 654,-141"/>
<text text-anchor="middle" x="607.5" y="-129" font-family="Helvetica,sans-Serif" font-size="10.00">func_8000D2B4</text>
</a>
</g>
</g>
<!-- Node29&#45;&gt;Node30 -->
<g id="edge29_Node000029_Node000030" class="edge">
<title>Node29&#45;&gt;Node30</title>
<g id="a_edge29_Node000029_Node000030"><a xlink:title=" ">
<path fill="none" stroke="#63b8ff" d="M461.91,-67.19C483.52,-81.13 522.66,-105.89 538,-112.5 543.45,-114.85 549.26,-116.98 555.11,-118.9"/>
<polygon fill="#63b8ff" stroke="#63b8ff" points="554.35,-122.33 564.94,-121.93 556.41,-115.64 554.35,-122.33"/>
</a>
</g>
</g>
<!-- Node37 -->
<g id="Node000037" class="node">
<title>Node37</title>
<g id="a_Node000037"><a xlink:href="code__80005FD0_8c.html#a79cd9c001e0a06c9cab23fe2cf070abf" target="_top" xlink:title=" ">
<polygon fill="white" stroke="#666666" points="677,-30 538,-30 538,-11 677,-11 677,-30"/>
<text text-anchor="middle" x="607.5" y="-18" font-family="Helvetica,sans-Serif" font-size="10.00">get_angle_between_path</text>
</a>
</g>
</g>
<!-- Node29&#45;&gt;Node37 -->
<g id="edge37_Node000029_Node000037" class="edge">
<title>Node29&#45;&gt;Node37</title>
<g id="a_edge37_Node000029_Node000037"><a xlink:title=" ">
<path fill="none" stroke="#63b8ff" d="M488.08,-47.97C508.65,-43.2 533.75,-37.38 555.54,-32.32"/>
<polygon fill="#63b8ff" stroke="#63b8ff" points="556.34,-35.73 565.29,-30.06 554.75,-28.91 556.34,-35.73"/>
</a>
</g>
</g>
<!-- Node41 -->
<g id="Node000041" class="node">
<title>Node41</title>
<g id="a_Node000041"><a xlink:href="code__80005FD0_8c.html#a83974499a323e99b007956bf9c0e25ff" target="_top" xlink:title=" ">
<polygon fill="white" stroke="#666666" points="677,-104 538,-104 538,-85 677,-85 677,-104"/>
<text text-anchor="middle" x="607.5" y="-92" font-family="Helvetica,sans-Serif" font-size="10.00">set_track_offset_position</text>
</a>
</g>
</g>
<!-- Node29&#45;&gt;Node41 -->
<g id="edge41_Node000029_Node000041" class="edge">
<title>Node29&#45;&gt;Node41</title>
<g id="a_edge41_Node000029_Node000041"><a xlink:title=" ">
<path fill="none" stroke="#63b8ff" d="M488.08,-67.03C508.65,-71.8 533.75,-77.62 555.54,-82.68"/>
<polygon fill="#63b8ff" stroke="#63b8ff" points="554.75,-86.09 565.29,-84.94 556.34,-79.27 554.75,-86.09"/>
</a>
</g>
</g>
<!-- Node42 -->
<g id="Node000042" class="node">
<title>Node42</title>
<g id="a_Node000042"><a xlink:href="math_8h.html#a37bde043e94a6f074c78f10518fb5d99" target="_top" xlink:title=" ">
<polygon fill="white" stroke="#666666" points="627,-67 588,-67 588,-48 627,-48 627,-67"/>
<text text-anchor="middle" x="607.5" y="-55" font-family="Helvetica,sans-Serif" font-size="10.00">sqrtf</text>
</a>
</g>
</g>
<!-- Node29&#45;&gt;Node42 -->
<g id="edge42_Node000029_Node000042" class="edge">
<title>Node29&#45;&gt;Node42</title>
<g id="a_edge42_Node000029_Node000042"><a xlink:title=" ">
<path fill="none" stroke="#63b8ff" d="M493.13,-57.5C520.42,-57.5 554.13,-57.5 577.67,-57.5"/>
<polygon fill="#63b8ff" stroke="#63b8ff" points="577.71,-61 587.71,-57.5 577.71,-54 577.71,-61"/>
</a>
</g>
</g>
<!-- Node31 -->
<g id="Node000031" class="node">
<title>Node31</title>
<g id="a_Node000031"><a xlink:href="code__80005FD0_8c.html#a52b991f7bfc8a37a05bbb3ede096fb6a" target="_top" xlink:title=" ">
<polygon fill="white" stroke="#666666" points="856,-144 716,-144 716,-125 856,-125 856,-144"/>
<text text-anchor="middle" x="786" y="-132" font-family="Helvetica,sans-Serif" font-size="10.00">adjust_path_at_start_line</text>
</a>
</g>
</g>
<!-- Node30&#45;&gt;Node31 -->
<g id="edge30_Node000030_Node000031" class="edge">
<title>Node30&#45;&gt;Node31</title>
<g id="a_edge30_Node000030_Node000031"><a xlink:title=" ">
<path fill="none" stroke="#63b8ff" d="M654.41,-132.28C670.04,-132.55 687.98,-132.85 705.47,-133.15"/>
<polygon fill="#63b8ff" stroke="#63b8ff" points="705.63,-136.65 715.69,-133.32 705.75,-129.65 705.63,-136.65"/>
</a>
</g>
</g>
<!-- Node32 -->
<g id="Node000032" class="node">
<title>Node32</title>
<g id="a_Node000032"><a xlink:href="code__80005FD0_8c.html#aae3d2d6e27d79a30dfe68c64e771b5b1" target="_top" xlink:title=" ">
<polygon fill="white" stroke="#666666" points="832.5,-107 739.5,-107 739.5,-88 832.5,-88 832.5,-107"/>
<text text-anchor="middle" x="786" y="-95" font-family="Helvetica,sans-Serif" font-size="10.00">func_8000D24C</text>
</a>
</g>
</g>
<!-- Node30&#45;&gt;Node32 -->
<g id="edge31_Node000030_Node000032" class="edge">
<title>Node30&#45;&gt;Node32</title>
<g id="a_edge31_Node000030_Node000032"><a xlink:title=" ">
<path fill="none" stroke="#63b8ff" d="M654.41,-122.66C677.29,-118.25 705.15,-112.88 729.25,-108.24"/>
<polygon fill="#63b8ff" stroke="#63b8ff" points="730.16,-111.63 739.32,-106.3 728.84,-104.75 730.16,-111.63"/>
</a>
</g>
</g>
<!-- Node36 -->
<g id="Node000036" class="node">
<title>Node36</title>
<g id="a_Node000036"><a xlink:href="code__80005FD0_8c.html#a041b53794d8d64878d2cf5e0dea65b80" target="_top" xlink:title=" ">
<polygon fill="white" stroke="#666666" points="841,-70 731,-70 731,-51 841,-51 841,-70"/>
<text text-anchor="middle" x="786" y="-58" font-family="Helvetica,sans-Serif" font-size="10.00">update_path_index</text>
</a>
</g>
</g>
<!-- Node30&#45;&gt;Node36 -->
<g id="edge36_Node000030_Node000036" class="edge">
<title>Node30&#45;&gt;Node36</title>
<g id="a_edge36_Node000030_Node000036"><a xlink:title=" ">
<path fill="none" stroke="#63b8ff" d="M654.33,-122.14C662.16,-119.61 670.01,-116.44 677,-112.5 696.17,-101.69 693.7,-89.07 713,-78.5 716.3,-76.69 719.79,-75.06 723.37,-73.59"/>
<polygon fill="#63b8ff" stroke="#63b8ff" points="724.84,-76.78 733.04,-70.07 722.44,-70.21 724.84,-76.78"/>
</a>
</g>
</g>
<!-- Node32&#45;&gt;Node5 -->
<g id="edge32_Node000032_Node000005" class="edge">
<title>Node32&#45;&gt;Node5</title>
<g id="a_edge32_Node000032_Node000005"><a xlink:title=" ">
<path fill="none" stroke="#63b8ff" d="M832.62,-106.68C841.53,-109.09 850.68,-112.01 859,-115.5 876.29,-122.75 878.04,-129.5 895,-137.5 906.34,-142.85 919.04,-147.7 930.85,-151.76"/>
<polygon fill="#63b8ff" stroke="#63b8ff" points="929.91,-155.14 940.5,-154.98 932.13,-148.5 929.91,-155.14"/>
</a>
</g>
</g>
<!-- Node33 -->
<g id="Node000033" class="node">
<title>Node33</title>
<g id="a_Node000033"><a xlink:href="code__80005FD0_8c.html#a64865cf2565ef9f4215c5fa73b04233f" target="_top" xlink:title=" ">
<polygon fill="white" stroke="#666666" points="1039.5,-91.5 908.5,-91.5 908.5,-61.5 1039.5,-61.5 1039.5,-91.5"/>
<text text-anchor="start" x="916.5" y="-79.5" font-family="Helvetica,sans-Serif" font-size="10.00">find_closest_path_point</text>
<text text-anchor="middle" x="974" y="-68.5" font-family="Helvetica,sans-Serif" font-size="10.00">_track_section</text>
</a>
</g>
</g>
<!-- Node32&#45;&gt;Node33 -->
<g id="edge33_Node000032_Node000033" class="edge">
<title>Node32&#45;&gt;Node33</title>
<g id="a_edge33_Node000032_Node000033"><a xlink:title=" ">
<path fill="none" stroke="#63b8ff" d="M832.5,-92.36C852.27,-90.13 875.96,-87.46 898.2,-84.94"/>
<polygon fill="#63b8ff" stroke="#63b8ff" points="898.76,-88.4 908.3,-83.8 897.97,-81.45 898.76,-88.4"/>
</a>
</g>
</g>
<!-- Node35 -->
<g id="Node000035" class="node">
<title>Node35</title>
<g id="a_Node000035"><a xlink:href="collision_8c.html#a053809031f467d0a6747788211e0ec69" target="_top" xlink:title=" ">
<polygon fill="white" stroke="#666666" points="1032.5,-129 915.5,-129 915.5,-110 1032.5,-110 1032.5,-129"/>
<text text-anchor="middle" x="974" y="-117" font-family="Helvetica,sans-Serif" font-size="10.00">get_track_section_id</text>
</a>
</g>
</g>
<!-- Node32&#45;&gt;Node35 -->
<g id="edge35_Node000032_Node000035" class="edge">
<title>Node32&#45;&gt;Node35</title>
<g id="a_edge35_Node000032_Node000035"><a xlink:title=" ">
<path fill="none" stroke="#63b8ff" d="M832.5,-102.88C854.33,-105.46 880.94,-108.61 905.1,-111.47"/>
<polygon fill="#63b8ff" stroke="#63b8ff" points="904.95,-114.97 915.29,-112.67 905.77,-108.02 904.95,-114.97"/>
</a>
</g>
</g>
<!-- Node34 -->
<g id="Node000034" class="node">
<title>Node34</title>
<g id="a_Node000034"><a xlink:href="Game_8cpp.html#aab0dcf46f6e6e4516bf79ea3f519c765" target="_top" xlink:title=" ">
<polygon fill="white" stroke="#666666" points="1201,-86 1089,-86 1089,-67 1201,-67 1201,-86"/>
<text text-anchor="middle" x="1145" y="-74" font-family="Helvetica,sans-Serif" font-size="10.00">IsPodiumCeremony</text>
</a>
</g>
</g>
<!-- Node33&#45;&gt;Node34 -->
<g id="edge34_Node000033_Node000034" class="edge">
<title>Node33&#45;&gt;Node34</title>
<g id="a_edge34_Node000033_Node000034"><a xlink:title=" ">
<path fill="none" stroke="#63b8ff" d="M1039.86,-76.5C1052.64,-76.5 1066.05,-76.5 1078.84,-76.5"/>
<polygon fill="#63b8ff" stroke="#63b8ff" points="1078.94,-80 1088.94,-76.5 1078.94,-73 1078.94,-80"/>
</a>
</g>
</g>
<!-- Node38 -->
<g id="Node000038" class="node">
<title>Node38</title>
<g id="a_Node000038"><a xlink:href="math__util_8c.html#a84cf9d4ec33146a64c230ed4cec56632" target="_top" xlink:title=" ">
<polygon fill="white" stroke="#666666" points="853.5,-32.5 718.5,-32.5 718.5,-2.5 853.5,-2.5 853.5,-32.5"/>
<text text-anchor="start" x="726.5" y="-20.5" font-family="Helvetica,sans-Serif" font-size="10.00">get_angle_between_two</text>
<text text-anchor="middle" x="786" y="-9.5" font-family="Helvetica,sans-Serif" font-size="10.00">_vectors</text>
</a>
</g>
</g>
<!-- Node37&#45;&gt;Node38 -->
<g id="edge38_Node000037_Node000038" class="edge">
<title>Node37&#45;&gt;Node38</title>
<g id="a_edge38_Node000037_Node000038"><a xlink:title=" ">
<path fill="none" stroke="#63b8ff" d="M677.24,-19.33C687.41,-19.16 697.93,-18.98 708.25,-18.8"/>
<polygon fill="#63b8ff" stroke="#63b8ff" points="708.53,-22.3 718.47,-18.63 708.41,-15.3 708.53,-22.3"/>
</a>
</g>
</g>
<!-- Node39 -->
<g id="Node000039" class="node">
<title>Node39</title>
<g id="a_Node000039"><a xlink:href="math__util_8c.html#aaa39a297477f56051975259f4bddd829" target="_top" xlink:title=" ">
<polygon fill="white" stroke="#666666" points="999,-27 949,-27 949,-8 999,-8 999,-27"/>
<text text-anchor="middle" x="974" y="-15" font-family="Helvetica,sans-Serif" font-size="10.00">atan2s</text>
</a>
</g>
</g>
<!-- Node38&#45;&gt;Node39 -->
<g id="edge39_Node000038_Node000039" class="edge">
<title>Node38&#45;&gt;Node39</title>
<g id="a_edge39_Node000038_Node000039"><a xlink:title=" ">
<path fill="none" stroke="#63b8ff" d="M853.62,-17.5C882.37,-17.5 914.78,-17.5 938.57,-17.5"/>
<polygon fill="#63b8ff" stroke="#63b8ff" points="938.85,-21 948.85,-17.5 938.85,-14 938.85,-21"/>
</a>
</g>
</g>
<!-- Node40 -->
<g id="Node000040" class="node">
<title>Node40</title>
<g id="a_Node000040"><a xlink:href="math__util_8c.html#a0273b0ea0783a06996c28669a7438ed9" target="_top" xlink:title=" ">
<polygon fill="white" stroke="#666666" points="1186,-27 1104,-27 1104,-8 1186,-8 1186,-27"/>
<text text-anchor="middle" x="1145" y="-15" font-family="Helvetica,sans-Serif" font-size="10.00">atan2_lookup</text>
</a>
</g>
</g>
<!-- Node39&#45;&gt;Node40 -->
<g id="edge40_Node000039_Node000040" class="edge">
<title>Node39&#45;&gt;Node40</title>
<g id="a_edge40_Node000039_Node000040"><a xlink:title=" ">
<path fill="none" stroke="#63b8ff" d="M999.21,-17.5C1023.73,-17.5 1062.38,-17.5 1093.58,-17.5"/>
<polygon fill="#63b8ff" stroke="#63b8ff" points="1093.84,-21 1103.84,-17.5 1093.84,-14 1093.84,-21"/>
</a>
</g>
</g>
<!-- Node43&#45;&gt;Node30 -->
<g id="edge44_Node000043_Node000030" class="edge">
<title>Node43&#45;&gt;Node30</title>
<g id="a_edge44_Node000043_Node000030"><a xlink:title=" ">
<path fill="none" stroke="#63b8ff" d="M492.28,-117.89C510.47,-120.06 531.62,-122.58 550.75,-124.86"/>
<polygon fill="#63b8ff" stroke="#63b8ff" points="550.49,-128.35 560.83,-126.06 551.31,-121.4 550.49,-128.35"/>
</a>
</g>
</g>
<!-- Node43&#45;&gt;Node37 -->
<g id="edge45_Node000043_Node000037" class="edge">
<title>Node43&#45;&gt;Node37</title>
<g id="a_edge45_Node000043_Node000037"><a xlink:title=" ">
<path fill="none" stroke="#63b8ff" d="M463.03,-102.95C474.34,-95.92 489.63,-85.83 502,-75.5 519.61,-60.8 518.18,-50.06 538,-38.5 541.01,-36.74 544.2,-35.15 547.48,-33.72"/>
<polygon fill="#63b8ff" stroke="#63b8ff" points="548.87,-36.94 556.93,-30.06 546.34,-30.41 548.87,-36.94"/>
</a>
</g>
</g>
<!-- Node43&#45;&gt;Node41 -->
<g id="edge46_Node000043_Node000041" class="edge">
<title>Node43&#45;&gt;Node41</title>
<g id="a_edge46_Node000043_Node000041"><a xlink:title=" ">
<path fill="none" stroke="#63b8ff" d="M492.28,-107.39C503.36,-106.14 515.54,-104.77 527.69,-103.39"/>
<polygon fill="#63b8ff" stroke="#63b8ff" points="528.32,-106.84 537.87,-102.25 527.54,-99.89 528.32,-106.84"/>
</a>
</g>
</g>
<!-- Node43&#45;&gt;Node42 -->
<g id="edge47_Node000043_Node000042" class="edge">
<title>Node43&#45;&gt;Node42</title>
<g id="a_edge47_Node000043_Node000042"><a xlink:title=" ">
<path fill="none" stroke="#63b8ff" d="M468.4,-102.88C486.66,-94.9 513.73,-83.59 538,-75.5 551.03,-71.16 565.74,-67.18 578.17,-64.07"/>
<polygon fill="#63b8ff" stroke="#63b8ff" points="579.11,-67.44 587.99,-61.68 577.45,-60.64 579.11,-67.44"/>
</a>
</g>
</g>
<!-- Node46 -->
<g id="Node000046" class="node">
<title>Node46</title>
<g id="a_Node000046"><a xlink:href="math__util_8c.html#a062850863585005ad1d0a75d9ff70693" target="_top" xlink:title=" ">
<polygon fill="white" stroke="#666666" points="484.5,-19 407.5,-19 407.5,0 484.5,0 484.5,-19"/>
<text text-anchor="middle" x="446" y="-7" font-family="Helvetica,sans-Serif" font-size="10.00">random_u16</text>
</a>
</g>
</g>
<!-- Node45&#45;&gt;Node46 -->
<g id="edge50_Node000045_Node000046" class="edge">
<title>Node45&#45;&gt;Node46</title>
<g id="a_edge50_Node000045_Node000046"><a xlink:title=" ">
<path fill="none" stroke="#63b8ff" d="M305.81,-9.5C332.07,-9.5 368.19,-9.5 397.05,-9.5"/>
<polygon fill="#63b8ff" stroke="#63b8ff" points="397.32,-13 407.32,-9.5 397.32,-6 397.32,-13"/>
</a>
</g>
</g>
<!-- Node47&#45;&gt;Node29 -->
<g id="edge52_Node000047_Node000029" class="edge">
<title>Node47&#45;&gt;Node29</title>
<g id="a_edge52_Node000047_Node000029"><a xlink:title=" ">
<path fill="none" stroke="#63b8ff" d="M321.85,-112.89C332.61,-110.31 343.79,-107.18 354,-103.5 377.19,-95.14 402.07,-82.27 419.94,-72.27"/>
<polygon fill="#63b8ff" stroke="#63b8ff" points="422.14,-75.04 429.1,-67.05 418.67,-68.96 422.14,-75.04"/>
</a>
</g>
</g>
<!-- Node47&#45;&gt;Node43 -->
<g id="edge53_Node000047_Node000043" class="edge">
<title>Node47&#45;&gt;Node43</title>
<g id="a_edge53_Node000047_Node000043"><a xlink:title=" ">
<path fill="none" stroke="#63b8ff" d="M336.47,-118.72C353.97,-117.72 372.7,-116.64 389.57,-115.68"/>
<polygon fill="#63b8ff" stroke="#63b8ff" points="390.04,-119.16 399.82,-115.09 389.64,-112.17 390.04,-119.16"/>
</a>
</g>
</g>
</g>
</svg>
