<?xml version="1.0" encoding="UTF-8" standalone="no"?>
<!DOCTYPE svg PUBLIC "-//W3C//DTD SVG 1.1//EN"
 "http://www.w3.org/Graphics/SVG/1.1/DTD/svg11.dtd">
<!-- Generated by graphviz version 2.43.0 (0)
 -->
<!-- Title: BansheeBoardwalk::BeginPlay Pages: 1 -->
<!--zoomable 556 -->

<svg id="main" version="1.1" xmlns="http://www.w3.org/2000/svg" xmlns:xlink="http://www.w3.org/1999/xlink" xml:space="preserve" onload="init(evt)">

<style type="text/css"><![CDATA[
.node, .edge {opacity: 0.7;}
.node.selected, .edge.selected {opacity: 1;}
.edge:hover path { stroke: red; }
.edge:hover polygon { stroke: red; fill: red; }
]]></style>

<defs>
  <circle id="rim" cx="0" cy="0" r="7"/>
  <circle id="rim2" cx="0" cy="0" r="3.5"/>
  <g id="zoomPlus">
    <use xlink:href="#rim" fill="#404040"><set attributeName="fill" to="#808080" begin="zoomplus.mouseover" end="zoomplus.mouseout"/></use>
    <path d="M-4,0h8M0,-4v8" fill="none" stroke="white" stroke-width="1.5" pointer-events="none"/>
  </g>
  <g id="zoomMin">
    <use xlink:href="#rim" fill="#404040"><set attributeName="fill" to="#808080" begin="zoomminus.mouseover" end="zoomminus.mouseout"/></use>
    <path d="M-4,0h8" fill="none" stroke="white" stroke-width="1.5" pointer-events="none"/>
  </g>
  <g id="arrowUp" transform="translate(30 24)">
    <use xlink:href="#rim"/>
    <path pointer-events="none" fill="none" stroke="white" stroke-width="1.5" d="M0,-3.0v7 M-2.5,-0.5L0,-3.0L2.5,-0.5"/>
  </g>
  <g id="arrowRight" transform="rotate(90) translate(36 -43)">
    <use xlink:href="#rim"/>
    <path pointer-events="none" fill="none" stroke="white" stroke-width="1.5" d="M0,-3.0v7 M-2.5,-0.5L0,-3.0L2.5,-0.5"/>
  </g>
  <g id="arrowDown" transform="rotate(180) translate(-30 -48)">
    <use xlink:href="#rim"/>
    <path pointer-events="none" fill="none" stroke="white" stroke-width="1.5" d="M0,-3.0v7 M-2.5,-0.5L0,-3.0L2.5,-0.5"/>
  </g>
  <g id="arrowLeft" transform="rotate(270) translate(-36 17)">
    <use xlink:href="#rim"/>
    <path pointer-events="none" fill="none" stroke="white" stroke-width="1.5" d="M0,-3.0v7 M-2.5,-0.5L0,-3.0L2.5,-0.5"/>
  </g>
  <g id="resetDef">
    <use xlink:href="#rim2" fill="#404040"><set attributeName="fill" to="#808080" begin="reset.mouseover" end="reset.mouseout"/></use>
  </g>
</defs>
<script type="application/ecmascript">
var viewWidth = 1821;
var viewHeight = 556;
var sectionId = 'dynsection-3';
</script>
<script type="application/ecmascript" xlink:href="svg.min.js"/>
<svg id="graph" class="graph">
<g id="viewport">
<title>BansheeBoardwalk::BeginPlay</title>
<!-- Node1 -->
<g id="Node000001" class="node">
<title>Node1</title>
<g id="a_Node000001"><a xlink:title=" ">
<polygon fill="#999999" stroke="#666666" points="165,-454.5 0,-454.5 0,-435.5 165,-435.5 165,-454.5"/>
<text text-anchor="middle" x="82.5" y="-442.5" font-family="Helvetica,sans-Serif" font-size="10.00">BansheeBoardwalk::BeginPlay</text>
</a>
</g>
</g>
<!-- Node2 -->
<g id="Node000002" class="node">
<title>Node2</title>
<g id="a_Node000002"><a xlink:href="classOBat.html#a0b4df88157635514995d4d44f7ffcdc6" target="_top" xlink:title=" ">
<polygon fill="white" stroke="#666666" points="304,-547.5 225,-547.5 225,-528.5 304,-528.5 304,-547.5"/>
<text text-anchor="middle" x="264.5" y="-535.5" font-family="Helvetica,sans-Serif" font-size="10.00">OBat::Spawn</text>
</a>
</g>
</g>
<!-- Node1&#45;&gt;Node2 -->
<g id="edge1_Node000001_Node000002" class="edge">
<title>Node1&#45;&gt;Node2</title>
<g id="a_edge1_Node000001_Node000002"><a xlink:title=" ">
<path fill="none" stroke="#63b8ff" d="M95.85,-454.6C116.54,-470.27 159.98,-501.47 201,-520 205.46,-522.01 210.2,-523.86 215,-525.54"/>
<polygon fill="#63b8ff" stroke="#63b8ff" points="214.27,-528.99 224.86,-528.76 216.44,-522.33 214.27,-528.99"/>
</a>
</g>
</g>
<!-- Node7 -->
<g id="Node000007" class="node">
<title>Node7</title>
<g id="a_Node000007"><a xlink:href="classOBombKart.html#a9fa11c43dd1885221b160bd688eceff0" target="_top" xlink:title=" ">
<polygon fill="white" stroke="#666666" points="320,-436.5 209,-436.5 209,-417.5 320,-417.5 320,-436.5"/>
<text text-anchor="middle" x="264.5" y="-424.5" font-family="Helvetica,sans-Serif" font-size="10.00">OBombKart::Spawn</text>
</a>
</g>
</g>
<!-- Node1&#45;&gt;Node7 -->
<g id="edge6_Node000001_Node000007" class="edge">
<title>Node1&#45;&gt;Node7</title>
<g id="a_edge6_Node000001_Node000007"><a xlink:title=" ">
<path fill="none" stroke="#63b8ff" d="M165.07,-436.84C176.28,-435.72 187.67,-434.58 198.52,-433.5"/>
<polygon fill="#63b8ff" stroke="#63b8ff" points="199.14,-436.95 208.75,-432.48 198.45,-429.99 199.14,-436.95"/>
</a>
</g>
</g>
<!-- Node13 -->
<g id="Node000013" class="node">
<title>Node13</title>
<g id="a_Node000013"><a xlink:href="classOBoos.html#a34df91f7b0d5547de03511ddecfaabbc" target="_top" xlink:title=" ">
<polygon fill="white" stroke="#666666" points="307.5,-473.5 221.5,-473.5 221.5,-454.5 307.5,-454.5 307.5,-473.5"/>
<text text-anchor="middle" x="264.5" y="-461.5" font-family="Helvetica,sans-Serif" font-size="10.00">OBoos::Spawn</text>
</a>
</g>
</g>
<!-- Node1&#45;&gt;Node13 -->
<g id="edge14_Node000001_Node000013" class="edge">
<title>Node1&#45;&gt;Node13</title>
<g id="a_edge14_Node000001_Node000013"><a xlink:title=" ">
<path fill="none" stroke="#63b8ff" d="M165.07,-453.61C180.64,-455.25 196.55,-456.93 210.91,-458.45"/>
<polygon fill="#63b8ff" stroke="#63b8ff" points="210.76,-461.95 221.07,-459.52 211.49,-454.99 210.76,-461.95"/>
</a>
</g>
</g>
<!-- Node15 -->
<g id="Node000015" class="node">
<title>Node15</title>
<g id="a_Node000015"><a xlink:href="classOCheepCheep.html#a20d7916ffb7b00ae2feaadd8f11284e1" target="_top" xlink:title=" ">
<polygon fill="white" stroke="#666666" points="326.5,-510.5 202.5,-510.5 202.5,-491.5 326.5,-491.5 326.5,-510.5"/>
<text text-anchor="middle" x="264.5" y="-498.5" font-family="Helvetica,sans-Serif" font-size="10.00">OCheepCheep::Spawn</text>
</a>
</g>
</g>
<!-- Node1&#45;&gt;Node15 -->
<g id="edge18_Node000001_Node000015" class="edge">
<title>Node1&#45;&gt;Node15</title>
<g id="a_edge18_Node000001_Node000015"><a xlink:title=" ">
<path fill="none" stroke="#63b8ff" d="M112.39,-454.63C136.12,-462.47 170.65,-473.73 201,-483 207.09,-484.86 213.54,-486.78 219.88,-488.63"/>
<polygon fill="#63b8ff" stroke="#63b8ff" points="219.13,-492.06 229.71,-491.48 221.08,-485.34 219.13,-492.06"/>
</a>
</g>
</g>
<!-- Node17 -->
<g id="Node000017" class="node">
<title>Node17</title>
<g id="a_Node000017"><a xlink:href="classOTrashBin.html#a85ca206ed283939eb450f434fac7f818" target="_top" xlink:title=" ">
<polygon fill="white" stroke="#666666" points="316.5,-399.5 212.5,-399.5 212.5,-380.5 316.5,-380.5 316.5,-399.5"/>
<text text-anchor="middle" x="264.5" y="-387.5" font-family="Helvetica,sans-Serif" font-size="10.00">OTrashBin::Spawn</text>
</a>
</g>
</g>
<!-- Node1&#45;&gt;Node17 -->
<g id="edge21_Node000001_Node000017" class="edge">
<title>Node1&#45;&gt;Node17</title>
<g id="a_edge21_Node000001_Node000017"><a xlink:title=" ">
<path fill="none" stroke="#63b8ff" d="M113.38,-435.37C137.09,-427.78 171.1,-417.01 201,-408 207.1,-406.16 213.55,-404.26 219.9,-402.41"/>
<polygon fill="#63b8ff" stroke="#63b8ff" points="221.09,-405.71 229.72,-399.56 219.14,-398.98 221.09,-405.71"/>
</a>
</g>
</g>
<!-- Node22 -->
<g id="Node000022" class="node">
<title>Node22</title>
<g id="a_Node000022"><a xlink:href="actors_8c.html#ac586c2534258d0f108e15fd88751b760" target="_top" xlink:title=" ">
<polygon fill="white" stroke="#666666" points="328,-162.5 201,-162.5 201,-143.5 328,-143.5 328,-162.5"/>
<text text-anchor="middle" x="264.5" y="-150.5" font-family="Helvetica,sans-Serif" font-size="10.00">spawn_all_item_boxes</text>
</a>
</g>
</g>
<!-- Node1&#45;&gt;Node22 -->
<g id="edge28_Node000001_Node000022" class="edge">
<title>Node1&#45;&gt;Node22</title>
<g id="a_edge28_Node000001_Node000022"><a xlink:title=" ">
<path fill="none" stroke="#63b8ff" d="M89.49,-435.28C115.33,-393.37 217.51,-227.61 252.03,-171.6"/>
<polygon fill="#63b8ff" stroke="#63b8ff" points="255.22,-173.1 257.49,-162.75 249.26,-169.43 255.22,-173.1"/>
</a>
</g>
</g>
<!-- Node3 -->
<g id="Node000003" class="node">
<title>Node3</title>
<g id="a_Node000003"><a xlink:href="classOBat.html#aee0246fa1a7cd2b1fc23c18cdbf75256" target="_top" xlink:title=" ">
<polygon fill="white" stroke="#666666" points="480,-547.5 409,-547.5 409,-528.5 480,-528.5 480,-547.5"/>
<text text-anchor="middle" x="444.5" y="-535.5" font-family="Helvetica,sans-Serif" font-size="10.00">OBat::OBat</text>
</a>
</g>
</g>
<!-- Node2&#45;&gt;Node3 -->
<g id="edge2_Node000002_Node000003" class="edge">
<title>Node2&#45;&gt;Node3</title>
<g id="a_edge2_Node000002_Node000003"><a xlink:title=" ">
<path fill="none" stroke="#63b8ff" d="M304.12,-538C331.9,-538 369.43,-538 398.55,-538"/>
<polygon fill="#63b8ff" stroke="#63b8ff" points="398.87,-541.5 408.87,-538 398.87,-534.5 398.87,-541.5"/>
</a>
</g>
</g>
<!-- Node4 -->
<g id="Node000004" class="node">
<title>Node4</title>
<g id="a_Node000004"><a xlink:href="update__objects_8c.html#a92856990c4ca5fba1b8e0c61ca832c27" target="_top" xlink:title=" ">
<polygon fill="white" stroke="#666666" points="694,-473.5 566,-473.5 566,-454.5 694,-454.5 694,-473.5"/>
<text text-anchor="middle" x="630" y="-461.5" font-family="Helvetica,sans-Serif" font-size="10.00">find_unused_obj_index</text>
</a>
</g>
</g>
<!-- Node3&#45;&gt;Node4 -->
<g id="edge3_Node000003_Node000004" class="edge">
<title>Node3&#45;&gt;Node4</title>
<g id="a_edge3_Node000003_Node000004"><a xlink:title=" ">
<path fill="none" stroke="#63b8ff" d="M480.33,-534.54C494.83,-532 511.42,-527.61 525,-520 545.01,-508.78 541.27,-494.71 561,-483 564.68,-480.82 568.61,-478.88 572.67,-477.15"/>
<polygon fill="#63b8ff" stroke="#63b8ff" points="574.18,-480.32 582.29,-473.51 571.7,-473.78 574.18,-480.32"/>
</a>
</g>
</g>
<!-- Node5 -->
<g id="Node000005" class="node">
<title>Node5</title>
<g id="a_Node000005"><a xlink:href="update__objects_8c.html#add0bf98084e3359319c40487d800d428" target="_top" xlink:title=" ">
<polygon fill="white" stroke="#666666" points="684,-547.5 576,-547.5 576,-528.5 684,-528.5 684,-547.5"/>
<text text-anchor="middle" x="630" y="-535.5" font-family="Helvetica,sans-Serif" font-size="10.00">init_texture_object</text>
</a>
</g>
</g>
<!-- Node3&#45;&gt;Node5 -->
<g id="edge4_Node000003_Node000005" class="edge">
<title>Node3&#45;&gt;Node5</title>
<g id="a_edge4_Node000003_Node000005"><a xlink:title=" ">
<path fill="none" stroke="#63b8ff" d="M480.01,-538C504.06,-538 536.83,-538 565.51,-538"/>
<polygon fill="#63b8ff" stroke="#63b8ff" points="565.87,-541.5 575.87,-538 565.87,-534.5 565.87,-541.5"/>
</a>
</g>
</g>
<!-- Node6 -->
<g id="Node000006" class="node">
<title>Node6</title>
<g id="a_Node000006"><a xlink:href="classOObject.html#a629d0dcbb210e289cdf541a91321c86b" target="_top" xlink:title=" ">
<polygon fill="white" stroke="#666666" points="680.5,-510.5 579.5,-510.5 579.5,-491.5 680.5,-491.5 680.5,-510.5"/>
<text text-anchor="middle" x="630" y="-498.5" font-family="Helvetica,sans-Serif" font-size="10.00">OObject::OObject</text>
</a>
</g>
</g>
<!-- Node3&#45;&gt;Node6 -->
<g id="edge5_Node000003_Node000006" class="edge">
<title>Node3&#45;&gt;Node6</title>
<g id="a_edge5_Node000003_Node000006"><a xlink:title=" ">
<path fill="none" stroke="#63b8ff" d="M480.01,-531.04C505.85,-525.83 541.77,-518.59 571.87,-512.52"/>
<polygon fill="#63b8ff" stroke="#63b8ff" points="572.72,-515.92 581.83,-510.51 571.33,-509.06 572.72,-515.92"/>
</a>
</g>
</g>
<!-- Node8 -->
<g id="Node000008" class="node">
<title>Node8</title>
<g id="a_Node000008"><a xlink:href="classOBombKart.html#a1566e8d56318b18ad900fbbac9966d9d" target="_top" xlink:title=" ">
<polygon fill="white" stroke="#666666" points="512,-436.5 377,-436.5 377,-417.5 512,-417.5 512,-436.5"/>
<text text-anchor="middle" x="444.5" y="-424.5" font-family="Helvetica,sans-Serif" font-size="10.00">OBombKart::OBombKart</text>
</a>
</g>
</g>
<!-- Node7&#45;&gt;Node8 -->
<g id="edge7_Node000007_Node000008" class="edge">
<title>Node7&#45;&gt;Node8</title>
<g id="a_edge7_Node000007_Node000008"><a xlink:title=" ">
<path fill="none" stroke="#63b8ff" d="M320.36,-427C335.02,-427 351.14,-427 366.75,-427"/>
<polygon fill="#63b8ff" stroke="#63b8ff" points="366.92,-430.5 376.92,-427 366.92,-423.5 366.92,-430.5"/>
</a>
</g>
</g>
<!-- Node8&#45;&gt;Node4 -->
<g id="edge12_Node000008_Node000004" class="edge">
<title>Node8&#45;&gt;Node4</title>
<g id="a_edge12_Node000008_Node000004"><a xlink:title=" ">
<path fill="none" stroke="#63b8ff" d="M492.76,-436.53C516.85,-441.39 546.34,-447.33 571.72,-452.45"/>
<polygon fill="#63b8ff" stroke="#63b8ff" points="571.09,-455.89 581.59,-454.44 572.47,-449.03 571.09,-455.89"/>
</a>
</g>
</g>
<!-- Node8&#45;&gt;Node6 -->
<g id="edge13_Node000008_Node000006" class="edge">
<title>Node8&#45;&gt;Node6</title>
<g id="a_edge13_Node000008_Node000006"><a xlink:title=" ">
<path fill="none" stroke="#63b8ff" d="M503.02,-436.61C510.68,-439.07 518.21,-442.14 525,-446 544.95,-457.34 541.19,-471.42 561,-483 563.99,-484.75 567.15,-486.33 570.41,-487.76"/>
<polygon fill="#63b8ff" stroke="#63b8ff" points="569.2,-491.04 579.79,-491.4 571.74,-484.52 569.2,-491.04"/>
</a>
</g>
</g>
<!-- Node9 -->
<g id="Node000009" class="node">
<title>Node9</title>
<g id="a_Node000009"><a xlink:href="collision_8c.html#a37aa55b3768d001533ad75e7f1b8388a" target="_top" xlink:title=" ">
<polygon fill="white" stroke="#666666" points="876,-434.5 735,-434.5 735,-415.5 876,-415.5 876,-434.5"/>
<text text-anchor="middle" x="805.5" y="-422.5" font-family="Helvetica,sans-Serif" font-size="10.00">check_bounding_collision</text>
</a>
</g>
</g>
<!-- Node8&#45;&gt;Node9 -->
<g id="edge8_Node000008_Node000009" class="edge">
<title>Node8&#45;&gt;Node9</title>
<g id="a_edge8_Node000008_Node000009"><a xlink:title=" ">
<path fill="none" stroke="#63b8ff" d="M512.18,-426.63C572.33,-426.29 660.9,-425.8 724.77,-425.44"/>
<polygon fill="#63b8ff" stroke="#63b8ff" points="724.82,-428.94 734.8,-425.39 724.79,-421.94 724.82,-428.94"/>
</a>
</g>
</g>
<!-- Node10 -->
<g id="Node000010" class="node">
<title>Node10</title>
<g id="a_Node000010"><a xlink:href="collision_8c.html#ac312bf382cb40752f6b790a99e7cdcb6" target="_top" xlink:title=" ">
<polygon fill="white" stroke="#666666" points="1039,-434.5 931,-434.5 931,-415.5 1039,-415.5 1039,-434.5"/>
<text text-anchor="middle" x="985" y="-422.5" font-family="Helvetica,sans-Serif" font-size="10.00">check_collision_yx</text>
</a>
</g>
</g>
<!-- Node9&#45;&gt;Node10 -->
<g id="edge9_Node000009_Node000010" class="edge">
<title>Node9&#45;&gt;Node10</title>
<g id="a_edge9_Node000009_Node000010"><a xlink:title=" ">
<path fill="none" stroke="#63b8ff" d="M876.14,-425C890.76,-425 906.1,-425 920.48,-425"/>
<polygon fill="#63b8ff" stroke="#63b8ff" points="920.75,-428.5 930.75,-425 920.75,-421.5 920.75,-428.5"/>
</a>
</g>
</g>
<!-- Node11 -->
<g id="Node000011" class="node">
<title>Node11</title>
<g id="a_Node000011"><a xlink:href="collision_8c.html#a4b48832a90e984536a0635a016ec4f28" target="_top" xlink:title=" ">
<polygon fill="white" stroke="#666666" points="1038.5,-397.5 931.5,-397.5 931.5,-378.5 1038.5,-378.5 1038.5,-397.5"/>
<text text-anchor="middle" x="985" y="-385.5" font-family="Helvetica,sans-Serif" font-size="10.00">check_collision_zx</text>
</a>
</g>
</g>
<!-- Node9&#45;&gt;Node11 -->
<g id="edge10_Node000009_Node000011" class="edge">
<title>Node9&#45;&gt;Node11</title>
<g id="a_edge10_Node000009_Node000011"><a xlink:title=" ">
<path fill="none" stroke="#63b8ff" d="M852.21,-415.47C875.41,-410.64 903.79,-404.72 928.27,-399.62"/>
<polygon fill="#63b8ff" stroke="#63b8ff" points="929.06,-403.03 938.14,-397.56 927.63,-396.17 929.06,-403.03"/>
</a>
</g>
</g>
<!-- Node12 -->
<g id="Node000012" class="node">
<title>Node12</title>
<g id="a_Node000012"><a xlink:href="collision_8c.html#a21fef964ab48191a1c0341954ef27a40" target="_top" xlink:title=" ">
<polygon fill="white" stroke="#666666" points="1038.5,-471.5 931.5,-471.5 931.5,-452.5 1038.5,-452.5 1038.5,-471.5"/>
<text text-anchor="middle" x="985" y="-459.5" font-family="Helvetica,sans-Serif" font-size="10.00">check_collision_zy</text>
</a>
</g>
</g>
<!-- Node9&#45;&gt;Node12 -->
<g id="edge11_Node000009_Node000012" class="edge">
<title>Node9&#45;&gt;Node12</title>
<g id="a_edge11_Node000009_Node000012"><a xlink:title=" ">
<path fill="none" stroke="#63b8ff" d="M852.21,-434.53C875.41,-439.36 903.79,-445.28 928.27,-450.38"/>
<polygon fill="#63b8ff" stroke="#63b8ff" points="927.63,-453.83 938.14,-452.44 929.06,-446.97 927.63,-453.83"/>
</a>
</g>
</g>
<!-- Node14 -->
<g id="Node000014" class="node">
<title>Node14</title>
<g id="a_Node000014"><a xlink:href="classOBoos.html#a5ca65fe45b8fad72d56d3a8c68f7b23d" target="_top" xlink:title=" ">
<polygon fill="white" stroke="#666666" points="487.5,-473.5 401.5,-473.5 401.5,-454.5 487.5,-454.5 487.5,-473.5"/>
<text text-anchor="middle" x="444.5" y="-461.5" font-family="Helvetica,sans-Serif" font-size="10.00">OBoos::OBoos</text>
</a>
</g>
</g>
<!-- Node13&#45;&gt;Node14 -->
<g id="edge15_Node000013_Node000014" class="edge">
<title>Node13&#45;&gt;Node14</title>
<g id="a_edge15_Node000013_Node000014"><a xlink:title=" ">
<path fill="none" stroke="#63b8ff" d="M307.68,-464C332.64,-464 364.47,-464 391.04,-464"/>
<polygon fill="#63b8ff" stroke="#63b8ff" points="391.31,-467.5 401.31,-464 391.31,-460.5 391.31,-467.5"/>
</a>
</g>
</g>
<!-- Node14&#45;&gt;Node4 -->
<g id="edge16_Node000014_Node000004" class="edge">
<title>Node14&#45;&gt;Node4</title>
<g id="a_edge16_Node000014_Node000004"><a xlink:title=" ">
<path fill="none" stroke="#63b8ff" d="M487.6,-464C507.78,-464 532.56,-464 555.7,-464"/>
<polygon fill="#63b8ff" stroke="#63b8ff" points="555.84,-467.5 565.84,-464 555.84,-460.5 555.84,-467.5"/>
</a>
</g>
</g>
<!-- Node14&#45;&gt;Node6 -->
<g id="edge17_Node000014_Node000006" class="edge">
<title>Node14&#45;&gt;Node6</title>
<g id="a_edge17_Node000014_Node000006"><a xlink:title=" ">
<path fill="none" stroke="#63b8ff" d="M487.6,-472.49C512.46,-477.5 544.29,-483.92 571.45,-489.4"/>
<polygon fill="#63b8ff" stroke="#63b8ff" points="571.11,-492.9 581.6,-491.44 572.49,-486.04 571.11,-492.9"/>
</a>
</g>
</g>
<!-- Node16 -->
<g id="Node000016" class="node">
<title>Node16</title>
<g id="a_Node000016"><a xlink:href="classOCheepCheep.html#acbc058537730252fb4413c3282baefea" target="_top" xlink:title=" ">
<polygon fill="white" stroke="#666666" points="525,-510.5 364,-510.5 364,-491.5 525,-491.5 525,-510.5"/>
<text text-anchor="middle" x="444.5" y="-498.5" font-family="Helvetica,sans-Serif" font-size="10.00">OCheepCheep::OCheepCheep</text>
</a>
</g>
</g>
<!-- Node15&#45;&gt;Node16 -->
<g id="edge19_Node000015_Node000016" class="edge">
<title>Node15&#45;&gt;Node16</title>
<g id="a_edge19_Node000015_Node000016"><a xlink:title=" ">
<path fill="none" stroke="#63b8ff" d="M326.76,-501C335.45,-501 344.54,-501 353.64,-501"/>
<polygon fill="#63b8ff" stroke="#63b8ff" points="353.9,-504.5 363.9,-501 353.9,-497.5 353.9,-504.5"/>
</a>
</g>
</g>
<!-- Node16&#45;&gt;Node6 -->
<g id="edge20_Node000016_Node000006" class="edge">
<title>Node16&#45;&gt;Node6</title>
<g id="a_edge20_Node000016_Node000006"><a xlink:title=" ">
<path fill="none" stroke="#63b8ff" d="M525.19,-501C539.97,-501 555.19,-501 569.25,-501"/>
<polygon fill="#63b8ff" stroke="#63b8ff" points="569.27,-504.5 579.27,-501 569.27,-497.5 569.27,-504.5"/>
</a>
</g>
</g>
<!-- Node18 -->
<g id="Node000018" class="node">
<title>Node18</title>
<g id="a_Node000018"><a xlink:href="classOTrashBin.html#a256f9cbed9757b7e12331eab6b70d6cf" target="_top" xlink:title=" ">
<polygon fill="white" stroke="#666666" points="504.5,-399.5 384.5,-399.5 384.5,-380.5 504.5,-380.5 504.5,-399.5"/>
<text text-anchor="middle" x="444.5" y="-387.5" font-family="Helvetica,sans-Serif" font-size="10.00">OTrashBin::OTrashBin</text>
</a>
</g>
</g>
<!-- Node17&#45;&gt;Node18 -->
<g id="edge22_Node000017_Node000018" class="edge">
<title>Node17&#45;&gt;Node18</title>
<g id="a_edge22_Node000017_Node000018"><a xlink:title=" ">
<path fill="none" stroke="#63b8ff" d="M316.51,-390C334.45,-390 354.92,-390 374.11,-390"/>
<polygon fill="#63b8ff" stroke="#63b8ff" points="374.32,-393.5 384.32,-390 374.32,-386.5 374.32,-393.5"/>
</a>
</g>
</g>
<!-- Node18&#45;&gt;Node4 -->
<g id="edge23_Node000018_Node000004" class="edge">
<title>Node18&#45;&gt;Node4</title>
<g id="a_edge23_Node000018_Node000004"><a xlink:title=" ">
<path fill="none" stroke="#63b8ff" d="M496.99,-399.51C506.44,-401.86 516.12,-404.68 525,-408 553.98,-418.85 584.93,-436.37 605.46,-448.92"/>
<polygon fill="#63b8ff" stroke="#63b8ff" points="603.77,-451.99 614.11,-454.3 607.46,-446.05 603.77,-451.99"/>
</a>
</g>
</g>
<!-- Node18&#45;&gt;Node6 -->
<g id="edge27_Node000018_Node000006" class="edge">
<title>Node18&#45;&gt;Node6</title>
<g id="a_edge27_Node000018_Node000006"><a xlink:title=" ">
<path fill="none" stroke="#63b8ff" d="M504.72,-397.04C512.03,-399.68 519.02,-403.24 525,-408 553.91,-431.05 532.51,-459.44 561,-483 563.77,-485.29 566.79,-487.29 569.98,-489.03"/>
<polygon fill="#63b8ff" stroke="#63b8ff" points="568.79,-492.34 579.34,-493.32 571.7,-485.97 568.79,-492.34"/>
</a>
</g>
</g>
<!-- Node19 -->
<g id="Node000019" class="node">
<title>Node19</title>
<g id="a_Node000019"><a xlink:href="update__objects_8c.html#abdebd086b5ff081f83af3d9205f39cd3" target="_top" xlink:title=" ">
<polygon fill="white" stroke="#666666" points="664,-397.5 596,-397.5 596,-378.5 664,-378.5 664,-397.5"/>
<text text-anchor="middle" x="630" y="-385.5" font-family="Helvetica,sans-Serif" font-size="10.00">init_object</text>
</a>
</g>
</g>
<!-- Node18&#45;&gt;Node19 -->
<g id="edge24_Node000018_Node000019" class="edge">
<title>Node18&#45;&gt;Node19</title>
<g id="a_edge24_Node000018_Node000019"><a xlink:title=" ">
<path fill="none" stroke="#63b8ff" d="M504.57,-389.36C530.95,-389.07 561.47,-388.74 585.68,-388.47"/>
<polygon fill="#63b8ff" stroke="#63b8ff" points="586.02,-391.97 595.98,-388.36 585.94,-384.97 586.02,-391.97"/>
</a>
</g>
</g>
<!-- Node21 -->
<g id="Node000021" class="node">
<title>Node21</title>
<g id="a_Node000021"><a xlink:href="Game_8cpp.html#a3d68a6ff4410ee26c335fc679d815d5d" target="_top" xlink:title=" ">
<polygon fill="white" stroke="#666666" points="689.5,-360.5 570.5,-360.5 570.5,-341.5 689.5,-341.5 689.5,-360.5"/>
<text text-anchor="middle" x="630" y="-348.5" font-family="Helvetica,sans-Serif" font-size="10.00">IsBansheeBoardwalk</text>
</a>
</g>
</g>
<!-- Node18&#45;&gt;Node21 -->
<g id="edge26_Node000018_Node000021" class="edge">
<title>Node18&#45;&gt;Node21</title>
<g id="a_edge26_Node000018_Node000021"><a xlink:title=" ">
<path fill="none" stroke="#63b8ff" d="M490.39,-380.46C515.7,-375.08 547.51,-368.32 574.27,-362.63"/>
<polygon fill="#63b8ff" stroke="#63b8ff" points="575.2,-366.01 584.26,-360.51 573.75,-359.16 575.2,-366.01"/>
</a>
</g>
</g>
<!-- Node20 -->
<g id="Node000020" class="node">
<title>Node20</title>
<g id="a_Node000020"><a xlink:href="update__objects_8c.html#af20e3f3c403dd4fbea56e358997e515a" target="_top" xlink:title=" ">
<polygon fill="white" stroke="#666666" points="869.5,-397.5 741.5,-397.5 741.5,-378.5 869.5,-378.5 869.5,-397.5"/>
<text text-anchor="middle" x="805.5" y="-385.5" font-family="Helvetica,sans-Serif" font-size="10.00">set_object_timer_state</text>
</a>
</g>
</g>
<!-- Node19&#45;&gt;Node20 -->
<g id="edge25_Node000019_Node000020" class="edge">
<title>Node19&#45;&gt;Node20</title>
<g id="a_edge25_Node000019_Node000020"><a xlink:title=" ">
<path fill="none" stroke="#63b8ff" d="M664.04,-388C683.06,-388 707.74,-388 731.11,-388"/>
<polygon fill="#63b8ff" stroke="#63b8ff" points="731.37,-391.5 741.37,-388 731.37,-384.5 731.37,-391.5"/>
</a>
</g>
</g>
<!-- Node23 -->
<g id="Node000023" class="node">
<title>Node23</title>
<g id="a_Node000023"><a xlink:href="actors_8c.html#a91fb2e4e37e7c72fea918fe2c1bb4eaf" target="_top" xlink:title=" ">
<polygon fill="white" stroke="#666666" points="514.5,-205.5 374.5,-205.5 374.5,-186.5 514.5,-186.5 514.5,-205.5"/>
<text text-anchor="middle" x="444.5" y="-193.5" font-family="Helvetica,sans-Serif" font-size="10.00">add_actor_to_empty_slot</text>
</a>
</g>
</g>
<!-- Node22&#45;&gt;Node23 -->
<g id="edge29_Node000022_Node000023" class="edge">
<title>Node22&#45;&gt;Node23</title>
<g id="a_edge29_Node000022_Node000023"><a xlink:title=" ">
<path fill="none" stroke="#63b8ff" d="M305,-162.54C331.28,-168.89 365.98,-177.27 394.08,-184.06"/>
<polygon fill="#63b8ff" stroke="#63b8ff" points="393.56,-187.54 404.11,-186.48 395.21,-180.73 393.56,-187.54"/>
</a>
</g>
</g>
<!-- Node26 -->
<g id="Node000026" class="node">
<title>Node26</title>
<g id="a_Node000026"><a xlink:href="Game_8cpp.html#a693de7d8b89fe291aafea86bc64a0a2e" target="_top" xlink:title=" ">
<polygon fill="white" stroke="#666666" points="1025,-319.5 945,-319.5 945,-300.5 1025,-300.5 1025,-319.5"/>
<text text-anchor="middle" x="985" y="-307.5" font-family="Helvetica,sans-Serif" font-size="10.00">CM_GetActor</text>
</a>
</g>
</g>
<!-- Node22&#45;&gt;Node26 -->
<g id="edge52_Node000022_Node000026" class="edge">
<title>Node22&#45;&gt;Node26</title>
<g id="a_edge52_Node000022_Node000026"><a xlink:title=" ">
<path fill="none" stroke="#63b8ff" d="M279.04,-162.57C297.59,-175.41 332.23,-198.38 364,-214 447.93,-255.26 469.44,-268.9 561,-288 693.97,-315.74 855.26,-314.9 934.79,-312.28"/>
<polygon fill="#63b8ff" stroke="#63b8ff" points="935.13,-315.78 945,-311.92 934.88,-308.78 935.13,-315.78"/>
</a>
</g>
</g>
<!-- Node39 -->
<g id="Node000039" class="node">
<title>Node39</title>
<g id="a_Node000039"><a xlink:href="math__util_8c.html#a79fd07a0971ec96a3ff0801963a2fa7f" target="_top" xlink:title=" ">
<polygon fill="white" stroke="#666666" points="1017,-160.5 953,-160.5 953,-141.5 1017,-141.5 1017,-160.5"/>
<text text-anchor="middle" x="985" y="-148.5" font-family="Helvetica,sans-Serif" font-size="10.00">vec3f_set</text>
</a>
</g>
</g>
<!-- Node22&#45;&gt;Node39 -->
<g id="edge57_Node000022_Node000039" class="edge">
<title>Node22&#45;&gt;Node39</title>
<g id="a_edge57_Node000022_Node000039"><a xlink:title=" ">
<path fill="none" stroke="#63b8ff" d="M328,-146.57C438.65,-136.18 676.19,-118.37 876,-134 898.24,-135.74 922.82,-139.46 942.9,-142.99"/>
<polygon fill="#63b8ff" stroke="#63b8ff" points="942.5,-146.47 952.96,-144.8 943.74,-139.58 942.5,-146.47"/>
</a>
</g>
</g>
<!-- Node45 -->
<g id="Node000045" class="node">
<title>Node45</title>
<g id="a_Node000045"><a xlink:href="math__util_8c.html#a062850863585005ad1d0a75d9ff70693" target="_top" xlink:title=" ">
<polygon fill="white" stroke="#666666" points="483,-86.5 406,-86.5 406,-67.5 483,-67.5 483,-86.5"/>
<text text-anchor="middle" x="444.5" y="-74.5" font-family="Helvetica,sans-Serif" font-size="10.00">random_u16</text>
</a>
</g>
</g>
<!-- Node22&#45;&gt;Node45 -->
<g id="edge53_Node000022_Node000045" class="edge">
<title>Node22&#45;&gt;Node45</title>
<g id="a_edge53_Node000022_Node000045"><a xlink:title=" ">
<path fill="none" stroke="#63b8ff" d="M281.42,-143.36C300.52,-132.1 333.77,-113.41 364,-101 374.42,-96.73 385.88,-92.82 396.77,-89.47"/>
<polygon fill="#63b8ff" stroke="#63b8ff" points="397.99,-92.76 406.57,-86.54 395.99,-86.05 397.99,-92.76"/>
</a>
</g>
</g>
<!-- Node46 -->
<g id="Node000046" class="node">
<title>Node46</title>
<g id="a_Node000046"><a xlink:href="collision_8c.html#ad95e9ed2051529d5edee26109fa07427" target="_top" xlink:title=" ">
<polygon fill="white" stroke="#666666" points="513,-49.5 376,-49.5 376,-30.5 513,-30.5 513,-49.5"/>
<text text-anchor="middle" x="444.5" y="-37.5" font-family="Helvetica,sans-Serif" font-size="10.00">spawn_actor_on_surface</text>
</a>
</g>
</g>
<!-- Node22&#45;&gt;Node46 -->
<g id="edge54_Node000022_Node000046" class="edge">
<title>Node22&#45;&gt;Node46</title>
<g id="a_edge54_Node000022_Node000046"><a xlink:title=" ">
<path fill="none" stroke="#63b8ff" d="M272.44,-143.44C287.05,-124.06 323.02,-80.12 364,-58 367.47,-56.13 371.13,-54.45 374.9,-52.94"/>
<polygon fill="#63b8ff" stroke="#63b8ff" points="376.18,-56.2 384.43,-49.55 373.83,-49.6 376.18,-56.2"/>
</a>
</g>
</g>
<!-- Node24 -->
<g id="Node000024" class="node">
<title>Node24</title>
<g id="a_Node000024"><a xlink:href="actors_8c.html#a39c023177b5a7686cdd1fc65b8b953e1" target="_top" xlink:title=" ">
<polygon fill="white" stroke="#666666" points="661,-205.5 599,-205.5 599,-186.5 661,-186.5 661,-205.5"/>
<text text-anchor="middle" x="630" y="-193.5" font-family="Helvetica,sans-Serif" font-size="10.00">actor_init</text>
</a>
</g>
</g>
<!-- Node23&#45;&gt;Node24 -->
<g id="edge30_Node000023_Node000024" class="edge">
<title>Node23&#45;&gt;Node24</title>
<g id="a_edge30_Node000023_Node000024"><a xlink:title=" ">
<path fill="none" stroke="#63b8ff" d="M514.61,-196C539.58,-196 566.94,-196 588.64,-196"/>
<polygon fill="#63b8ff" stroke="#63b8ff" points="588.8,-199.5 598.8,-196 588.8,-192.5 588.8,-199.5"/>
</a>
</g>
</g>
<!-- Node42 -->
<g id="Node000042" class="node">
<title>Node42</title>
<g id="a_Node000042"><a xlink:href="Game_8cpp.html#acea5cfd9ab22f745bd6627869b95a62e" target="_top" xlink:title=" ">
<polygon fill="white" stroke="#666666" points="686,-168.5 574,-168.5 574,-149.5 686,-149.5 686,-168.5"/>
<text text-anchor="middle" x="630" y="-156.5" font-family="Helvetica,sans-Serif" font-size="10.00">CM_ActorBeginPlay</text>
</a>
</g>
</g>
<!-- Node23&#45;&gt;Node42 -->
<g id="edge49_Node000023_Node000042" class="edge">
<title>Node23&#45;&gt;Node42</title>
<g id="a_edge49_Node000023_Node000042"><a xlink:title=" ">
<path fill="none" stroke="#63b8ff" d="M492.76,-186.47C516.85,-181.61 546.34,-175.67 571.72,-170.55"/>
<polygon fill="#63b8ff" stroke="#63b8ff" points="572.47,-173.97 581.59,-168.56 571.09,-167.11 572.47,-173.97"/>
</a>
</g>
</g>
<!-- Node43 -->
<g id="Node000043" class="node">
<title>Node43</title>
<g id="a_Node000043"><a xlink:href="Game_8cpp.html#a42f23077aaa52cb3ea5c7803b7dd6816" target="_top" xlink:title=" ">
<polygon fill="white" stroke="#666666" points="683,-279.5 577,-279.5 577,-260.5 683,-260.5 683,-279.5"/>
<text text-anchor="middle" x="630" y="-267.5" font-family="Helvetica,sans-Serif" font-size="10.00">CM_AddBaseActor</text>
</a>
</g>
</g>
<!-- Node23&#45;&gt;Node43 -->
<g id="edge50_Node000023_Node000043" class="edge">
<title>Node23&#45;&gt;Node43</title>
<g id="a_edge50_Node000023_Node000043"><a xlink:title=" ">
<path fill="none" stroke="#63b8ff" d="M463.09,-205.55C485.39,-217.38 525.23,-237.6 561,-251 567.32,-253.37 574.08,-255.6 580.78,-257.64"/>
<polygon fill="#63b8ff" stroke="#63b8ff" points="579.93,-261.04 590.51,-260.49 581.89,-254.32 579.93,-261.04"/>
</a>
</g>
</g>
<!-- Node44 -->
<g id="Node000044" class="node">
<title>Node44</title>
<g id="a_Node000044"><a xlink:href="Game_8cpp.html#a0841ffe9a66e95aca42438b9d8ffc3d3" target="_top" xlink:title=" ">
<polygon fill="white" stroke="#666666" points="680.5,-242.5 579.5,-242.5 579.5,-223.5 680.5,-223.5 680.5,-242.5"/>
<text text-anchor="middle" x="630" y="-230.5" font-family="Helvetica,sans-Serif" font-size="10.00">CM_GetActorSize</text>
</a>
</g>
</g>
<!-- Node23&#45;&gt;Node44 -->
<g id="edge51_Node000023_Node000044" class="edge">
<title>Node23&#45;&gt;Node44</title>
<g id="a_edge51_Node000023_Node000044"><a xlink:title=" ">
<path fill="none" stroke="#63b8ff" d="M492.76,-205.53C516.85,-210.39 546.34,-216.33 571.72,-221.45"/>
<polygon fill="#63b8ff" stroke="#63b8ff" points="571.09,-224.89 581.59,-223.44 572.47,-218.03 571.09,-224.89"/>
</a>
</g>
</g>
<!-- Node24&#45;&gt;Node9 -->
<g id="edge31_Node000024_Node000009" class="edge">
<title>Node24&#45;&gt;Node9</title>
<g id="a_edge31_Node000024_Node000009"><a xlink:title=" ">
<path fill="none" stroke="#63b8ff" d="M661.12,-196.95C674.49,-198.95 689.36,-203.62 699,-214 758.1,-277.6 676.16,-342.16 735,-406 736.22,-407.33 737.53,-408.57 738.91,-409.72"/>
<polygon fill="#63b8ff" stroke="#63b8ff" points="737.21,-412.8 747.46,-415.47 741.11,-406.99 737.21,-412.8"/>
</a>
</g>
</g>
<!-- Node25 -->
<g id="Node000025" class="node">
<title>Node25</title>
<g id="a_Node000025"><a xlink:href="actors_8c.html#a1a9bccb586242555a9123ebd4ab70f2a" target="_top" xlink:title=" ">
<polygon fill="white" stroke="#666666" points="871.5,-285 739.5,-285 739.5,-255 871.5,-255 871.5,-285"/>
<text text-anchor="start" x="747.5" y="-273" font-family="Helvetica,sans-Serif" font-size="10.00">cleanup_red_and_green</text>
<text text-anchor="middle" x="805.5" y="-262" font-family="Helvetica,sans-Serif" font-size="10.00">_shells</text>
</a>
</g>
</g>
<!-- Node24&#45;&gt;Node25 -->
<g id="edge32_Node000024_Node000025" class="edge">
<title>Node24&#45;&gt;Node25</title>
<g id="a_edge32_Node000024_Node000025"><a xlink:title=" ">
<path fill="none" stroke="#63b8ff" d="M661.2,-200.93C673.41,-203.69 687.33,-207.85 699,-214 717.68,-223.84 716.76,-234.36 735,-245 738.61,-247.11 742.43,-249.08 746.35,-250.93"/>
<polygon fill="#63b8ff" stroke="#63b8ff" points="745.05,-254.18 755.61,-254.99 747.86,-247.77 745.05,-254.18"/>
</a>
</g>
</g>
<!-- Node38 -->
<g id="Node000038" class="node">
<title>Node38</title>
<g id="a_Node000038"><a xlink:href="collision_8c.html#ad72fef3ffe32191d73b1822f512ebf3f" target="_top" xlink:title=" ">
<polygon fill="white" stroke="#666666" points="853,-236.5 758,-236.5 758,-217.5 853,-217.5 853,-236.5"/>
<text text-anchor="middle" x="805.5" y="-224.5" font-family="Helvetica,sans-Serif" font-size="10.00">func_802AAAAC</text>
</a>
</g>
</g>
<!-- Node24&#45;&gt;Node38 -->
<g id="edge45_Node000024_Node000038" class="edge">
<title>Node24&#45;&gt;Node38</title>
<g id="a_edge45_Node000024_Node000038"><a xlink:title=" ">
<path fill="none" stroke="#63b8ff" d="M661.22,-201.4C685.1,-205.67 719.11,-211.74 748,-216.91"/>
<polygon fill="#63b8ff" stroke="#63b8ff" points="747.52,-220.38 757.98,-218.69 748.76,-213.48 747.52,-220.38"/>
</a>
</g>
</g>
<!-- Node40 -->
<g id="Node000040" class="node">
<title>Node40</title>
<g id="a_Node000040"><a xlink:href="math__util_8c.html#af7b470ed76fce07b8042a47c96e5690b" target="_top" xlink:title=" ">
<polygon fill="white" stroke="#666666" points="859,-199.5 752,-199.5 752,-180.5 859,-180.5 859,-199.5"/>
<text text-anchor="middle" x="805.5" y="-187.5" font-family="Helvetica,sans-Serif" font-size="10.00">vec3f_copy_return</text>
</a>
</g>
</g>
<!-- Node24&#45;&gt;Node40 -->
<g id="edge47_Node000024_Node000040" class="edge">
<title>Node24&#45;&gt;Node40</title>
<g id="a_edge47_Node000024_Node000040"><a xlink:title=" ">
<path fill="none" stroke="#63b8ff" d="M661.22,-194.95C683.35,-194.19 714.16,-193.12 741.55,-192.18"/>
<polygon fill="#63b8ff" stroke="#63b8ff" points="741.98,-195.66 751.85,-191.82 741.73,-188.67 741.98,-195.66"/>
</a>
</g>
</g>
<!-- Node41 -->
<g id="Node000041" class="node">
<title>Node41</title>
<g id="a_Node000041"><a xlink:href="math__util_8c.html#a0e270ee67600c8c9c2f140c647d008a1" target="_top" xlink:title=" ">
<polygon fill="white" stroke="#666666" points="842.5,-162.5 768.5,-162.5 768.5,-143.5 842.5,-143.5 842.5,-162.5"/>
<text text-anchor="middle" x="805.5" y="-150.5" font-family="Helvetica,sans-Serif" font-size="10.00">vec3s_copy</text>
</a>
</g>
</g>
<!-- Node24&#45;&gt;Node41 -->
<g id="edge48_Node000024_Node000041" class="edge">
<title>Node24&#45;&gt;Node41</title>
<g id="a_edge48_Node000024_Node000041"><a xlink:title=" ">
<path fill="none" stroke="#63b8ff" d="M661.22,-188.51C688,-181.87 727.51,-172.08 758.26,-164.46"/>
<polygon fill="#63b8ff" stroke="#63b8ff" points="759.46,-167.77 768.32,-161.97 757.77,-160.98 759.46,-167.77"/>
</a>
</g>
</g>
<!-- Node25&#45;&gt;Node26 -->
<g id="edge33_Node000025_Node000026" class="edge">
<title>Node25&#45;&gt;Node26</title>
<g id="a_edge33_Node000025_Node000026"><a xlink:title=" ">
<path fill="none" stroke="#63b8ff" d="M871.59,-284.67C892.57,-289.4 915.45,-294.55 935.06,-298.97"/>
<polygon fill="#63b8ff" stroke="#63b8ff" points="934.47,-302.42 944.99,-301.21 936,-295.6 934.47,-302.42"/>
</a>
</g>
</g>
<!-- Node27 -->
<g id="Node000027" class="node">
<title>Node27</title>
<g id="a_Node000027"><a xlink:href="code__80005FD0_8c.html#ad301b978cdd3c4cc190b10be050d51d8" target="_top" xlink:title=" ">
<polygon fill="white" stroke="#666666" points="1058,-243 912,-243 912,-213 1058,-213 1058,-243"/>
<text text-anchor="start" x="920" y="-231" font-family="Helvetica,sans-Serif" font-size="10.00">delete_actor_in_unexpired</text>
<text text-anchor="middle" x="985" y="-220" font-family="Helvetica,sans-Serif" font-size="10.00">_actor_list</text>
</a>
</g>
</g>
<!-- Node25&#45;&gt;Node27 -->
<g id="edge34_Node000025_Node000027" class="edge">
<title>Node25&#45;&gt;Node27</title>
<g id="a_edge34_Node000025_Node000027"><a xlink:title=" ">
<path fill="none" stroke="#63b8ff" d="M870.08,-254.96C883.29,-251.83 897.31,-248.51 910.83,-245.31"/>
<polygon fill="#63b8ff" stroke="#63b8ff" points="911.64,-248.72 920.57,-243.01 910.03,-241.91 911.64,-248.72"/>
</a>
</g>
</g>
<!-- Node28 -->
<g id="Node000028" class="node">
<title>Node28</title>
<g id="a_Node000028"><a xlink:href="actors_8c.html#a694ec6ef7548b8618aeb35c038d3a9b9" target="_top" xlink:title=" ">
<polygon fill="white" stroke="#666666" points="1026.5,-280.5 943.5,-280.5 943.5,-261.5 1026.5,-261.5 1026.5,-280.5"/>
<text text-anchor="middle" x="985" y="-268.5" font-family="Helvetica,sans-Serif" font-size="10.00">destroy_actor</text>
</a>
</g>
</g>
<!-- Node25&#45;&gt;Node28 -->
<g id="edge35_Node000025_Node000028" class="edge">
<title>Node25&#45;&gt;Node28</title>
<g id="a_edge35_Node000025_Node000028"><a xlink:title=" ">
<path fill="none" stroke="#63b8ff" d="M871.59,-270.37C891.97,-270.48 914.14,-270.61 933.37,-270.71"/>
<polygon fill="#63b8ff" stroke="#63b8ff" points="933.41,-274.21 943.43,-270.77 933.45,-267.22 933.41,-274.21"/>
</a>
</g>
</g>
<!-- Node29 -->
<g id="Node000029" class="node">
<title>Node29</title>
<g id="a_Node000029"><a xlink:href="actors_8c.html#a12dc3ccac4c7d8569eadac0af4fd6f9f" target="_top" xlink:title=" ">
<polygon fill="white" stroke="#666666" points="1252,-280.5 1094,-280.5 1094,-261.5 1252,-261.5 1252,-280.5"/>
<text text-anchor="middle" x="1173" y="-268.5" font-family="Helvetica,sans-Serif" font-size="10.00">play_sound_before_despawn</text>
</a>
</g>
</g>
<!-- Node28&#45;&gt;Node29 -->
<g id="edge36_Node000028_Node000029" class="edge">
<title>Node28&#45;&gt;Node29</title>
<g id="a_edge36_Node000028_Node000029"><a xlink:title=" ">
<path fill="none" stroke="#63b8ff" d="M1026.82,-271C1043.65,-271 1063.86,-271 1083.77,-271"/>
<polygon fill="#63b8ff" stroke="#63b8ff" points="1083.82,-274.5 1093.82,-271 1083.82,-267.5 1083.82,-274.5"/>
</a>
</g>
</g>
<!-- Node30 -->
<g id="Node000030" class="node">
<title>Node30</title>
<g id="a_Node000030"><a xlink:href="external_8c.html#ae72057869772019e4464c87d4e16c682" target="_top" xlink:title=" ">
<polygon fill="white" stroke="#666666" points="1380,-280.5 1288,-280.5 1288,-261.5 1380,-261.5 1380,-280.5"/>
<text text-anchor="middle" x="1334" y="-268.5" font-family="Helvetica,sans-Serif" font-size="10.00">func_800C99E0</text>
</a>
</g>
</g>
<!-- Node29&#45;&gt;Node30 -->
<g id="edge37_Node000029_Node000030" class="edge">
<title>Node29&#45;&gt;Node30</title>
<g id="a_edge37_Node000029_Node000030"><a xlink:title=" ">
<path fill="none" stroke="#63b8ff" d="M1252.1,-271C1260.72,-271 1269.35,-271 1277.61,-271"/>
<polygon fill="#63b8ff" stroke="#63b8ff" points="1277.83,-274.5 1287.83,-271 1277.83,-267.5 1277.83,-274.5"/>
</a>
</g>
</g>
<!-- Node31 -->
<g id="Node000031" class="node">
<title>Node31</title>
<g id="a_Node000031"><a xlink:href="external_8c.html#aeb87c527482a244173df36a1f3d4f446" target="_top" xlink:title=" ">
<polygon fill="white" stroke="#666666" points="1508,-299.5 1416,-299.5 1416,-280.5 1508,-280.5 1508,-299.5"/>
<text text-anchor="middle" x="1462" y="-287.5" font-family="Helvetica,sans-Serif" font-size="10.00">func_800C21E8</text>
</a>
</g>
</g>
<!-- Node30&#45;&gt;Node31 -->
<g id="edge38_Node000030_Node000031" class="edge">
<title>Node30&#45;&gt;Node31</title>
<g id="a_edge38_Node000030_Node000031"><a xlink:title=" ">
<path fill="none" stroke="#63b8ff" d="M1380.13,-277.81C1388.46,-279.06 1397.23,-280.38 1405.81,-281.68"/>
<polygon fill="#63b8ff" stroke="#63b8ff" points="1405.35,-285.15 1415.76,-283.18 1406.39,-278.23 1405.35,-285.15"/>
</a>
</g>
</g>
<!-- Node32 -->
<g id="Node000032" class="node">
<title>Node32</title>
<g id="a_Node000032"><a xlink:href="external_8c.html#a028d40421b90c38f68ebfd5acc626f2e" target="_top" xlink:title=" ">
<polygon fill="white" stroke="#666666" points="1508,-262.5 1416,-262.5 1416,-243.5 1508,-243.5 1508,-262.5"/>
<text text-anchor="middle" x="1462" y="-250.5" font-family="Helvetica,sans-Serif" font-size="10.00">func_800C5578</text>
</a>
</g>
</g>
<!-- Node30&#45;&gt;Node32 -->
<g id="edge39_Node000030_Node000032" class="edge">
<title>Node30&#45;&gt;Node32</title>
<g id="a_edge39_Node000030_Node000032"><a xlink:title=" ">
<path fill="none" stroke="#63b8ff" d="M1380.13,-264.55C1388.46,-263.36 1397.23,-262.11 1405.81,-260.88"/>
<polygon fill="#63b8ff" stroke="#63b8ff" points="1406.35,-264.34 1415.76,-259.46 1405.36,-257.41 1406.35,-264.34"/>
</a>
</g>
</g>
<!-- Node33 -->
<g id="Node000033" class="node">
<title>Node33</title>
<g id="a_Node000033"><a xlink:href="external_8c.html#ac0fb767de7e14a03f1bcfa53f0abd23b" target="_top" xlink:title=" ">
<polygon fill="white" stroke="#666666" points="1684,-299.5 1544,-299.5 1544,-280.5 1684,-280.5 1684,-299.5"/>
<text text-anchor="middle" x="1614" y="-287.5" font-family="Helvetica,sans-Serif" font-size="10.00">delete_sound_from_bank</text>
</a>
</g>
</g>
<!-- Node32&#45;&gt;Node33 -->
<g id="edge40_Node000032_Node000033" class="edge">
<title>Node32&#45;&gt;Node33</title>
<g id="a_edge40_Node000032_Node000033"><a xlink:title=" ">
<path fill="none" stroke="#63b8ff" d="M1501.63,-262.53C1520.8,-267.26 1544.16,-273.02 1564.52,-278.04"/>
<polygon fill="#63b8ff" stroke="#63b8ff" points="1563.69,-281.44 1574.24,-280.44 1565.37,-274.65 1563.69,-281.44"/>
</a>
</g>
</g>
<!-- Node35 -->
<g id="Node000035" class="node">
<title>Node35</title>
<g id="a_Node000035"><a xlink:href="external_8c.html#ab83bd36e63f0f1baddcb2482b5ad31b0" target="_top" xlink:title=" ">
<polygon fill="white" stroke="#666666" points="1660.5,-262.5 1567.5,-262.5 1567.5,-243.5 1660.5,-243.5 1660.5,-262.5"/>
<text text-anchor="middle" x="1614" y="-250.5" font-family="Helvetica,sans-Serif" font-size="10.00">func_800C41CC</text>
</a>
</g>
</g>
<!-- Node32&#45;&gt;Node35 -->
<g id="edge42_Node000032_Node000035" class="edge">
<title>Node32&#45;&gt;Node35</title>
<g id="a_edge42_Node000032_Node000035"><a xlink:title=" ">
<path fill="none" stroke="#63b8ff" d="M1508,-253C1523.37,-253 1540.74,-253 1556.86,-253"/>
<polygon fill="#63b8ff" stroke="#63b8ff" points="1557.25,-256.5 1567.25,-253 1557.25,-249.5 1557.25,-256.5"/>
</a>
</g>
</g>
<!-- Node36 -->
<g id="Node000036" class="node">
<title>Node36</title>
<g id="a_Node000036"><a xlink:href="port__eu_8c.html#aa89dfaecca46c6d071f08c1898d1f7c9" target="_top" xlink:title=" ">
<polygon fill="white" stroke="#666666" points="1660.5,-225.5 1567.5,-225.5 1567.5,-206.5 1660.5,-206.5 1660.5,-225.5"/>
<text text-anchor="middle" x="1614" y="-213.5" font-family="Helvetica,sans-Serif" font-size="10.00">func_800CBBE8</text>
</a>
</g>
</g>
<!-- Node32&#45;&gt;Node36 -->
<g id="edge43_Node000032_Node000036" class="edge">
<title>Node32&#45;&gt;Node36</title>
<g id="a_edge43_Node000032_Node000036"><a xlink:title=" ">
<path fill="none" stroke="#63b8ff" d="M1501.63,-243.47C1520.8,-238.74 1544.16,-232.98 1564.52,-227.96"/>
<polygon fill="#63b8ff" stroke="#63b8ff" points="1565.37,-231.35 1574.24,-225.56 1563.69,-224.56 1565.37,-231.35"/>
</a>
</g>
</g>
<!-- Node34 -->
<g id="Node000034" class="node">
<title>Node34</title>
<g id="a_Node000034"><a xlink:href="external_8c.html#a358ac55e8ab5262dcae8037334be06d7" target="_top" xlink:title=" ">
<polygon fill="white" stroke="#666666" points="1812.5,-299.5 1720.5,-299.5 1720.5,-280.5 1812.5,-280.5 1812.5,-299.5"/>
<text text-anchor="middle" x="1766.5" y="-287.5" font-family="Helvetica,sans-Serif" font-size="10.00">func_800C40F0</text>
</a>
</g>
</g>
<!-- Node33&#45;&gt;Node34 -->
<g id="edge41_Node000033_Node000034" class="edge">
<title>Node33&#45;&gt;Node34</title>
<g id="a_edge41_Node000033_Node000034"><a xlink:title=" ">
<path fill="none" stroke="#63b8ff" d="M1684.08,-290C1692.87,-290 1701.78,-290 1710.31,-290"/>
<polygon fill="#63b8ff" stroke="#63b8ff" points="1710.5,-293.5 1720.5,-290 1710.5,-286.5 1710.5,-293.5"/>
</a>
</g>
</g>
<!-- Node37 -->
<g id="Node000037" class="node">
<title>Node37</title>
<g id="a_Node000037"><a xlink:href="port__eu_8c.html#af361a20d2e08f30c53a237ca481ff734" target="_top" xlink:title=" ">
<polygon fill="white" stroke="#666666" points="1813,-225.5 1720,-225.5 1720,-206.5 1813,-206.5 1813,-225.5"/>
<text text-anchor="middle" x="1766.5" y="-213.5" font-family="Helvetica,sans-Serif" font-size="10.00">func_800CBB48</text>
</a>
</g>
</g>
<!-- Node36&#45;&gt;Node37 -->
<g id="edge44_Node000036_Node000037" class="edge">
<title>Node36&#45;&gt;Node37</title>
<g id="a_edge44_Node000036_Node000037"><a xlink:title=" ">
<path fill="none" stroke="#63b8ff" d="M1660.56,-216C1675.96,-216 1693.34,-216 1709.46,-216"/>
<polygon fill="#63b8ff" stroke="#63b8ff" points="1709.83,-219.5 1719.83,-216 1709.83,-212.5 1709.83,-219.5"/>
</a>
</g>
</g>
<!-- Node38&#45;&gt;Node39 -->
<g id="edge46_Node000038_Node000039" class="edge">
<title>Node38&#45;&gt;Node39</title>
<g id="a_edge46_Node000038_Node000039"><a xlink:title=" ">
<path fill="none" stroke="#63b8ff" d="M847.41,-217.42C856.93,-214.75 866.93,-211.58 876,-208 905.89,-196.19 938.24,-178.39 959.67,-165.82"/>
<polygon fill="#63b8ff" stroke="#63b8ff" points="961.61,-168.74 968.42,-160.63 958.03,-162.72 961.61,-168.74"/>
</a>
</g>
</g>
<!-- Node47 -->
<g id="Node000047" class="node">
<title>Node47</title>
<g id="a_Node000047"><a xlink:href="collision_8c.html#a6527a2135a10909cdf9a1fd731be5628" target="_top" xlink:title=" ">
<polygon fill="white" stroke="#666666" points="699,-67.5 561,-67.5 561,-48.5 699,-48.5 699,-67.5"/>
<text text-anchor="middle" x="630" y="-55.5" font-family="Helvetica,sans-Serif" font-size="10.00">calculate_surface_height</text>
</a>
</g>
</g>
<!-- Node46&#45;&gt;Node47 -->
<g id="edge55_Node000046_Node000047" class="edge">
<title>Node46&#45;&gt;Node47</title>
<g id="a_edge55_Node000046_Node000047"><a xlink:title=" ">
<path fill="none" stroke="#63b8ff" d="M513.05,-46.63C525.38,-47.84 538.35,-49.11 550.96,-50.35"/>
<polygon fill="#63b8ff" stroke="#63b8ff" points="550.69,-53.83 560.98,-51.33 551.37,-46.87 550.69,-53.83"/>
</a>
</g>
</g>
<!-- Node48 -->
<g id="Node000048" class="node">
<title>Node48</title>
<g id="a_Node000048"><a xlink:href="collision_8c.html#a0fe340ccfe1d926a592ea9a0c84d7574" target="_top" xlink:title=" ">
<polygon fill="white" stroke="#666666" points="696,-30 564,-30 564,0 696,0 696,-30"/>
<text text-anchor="start" x="572" y="-18" font-family="Helvetica,sans-Serif" font-size="10.00">check_horizontally</text>
<text text-anchor="middle" x="630" y="-7" font-family="Helvetica,sans-Serif" font-size="10.00">_colliding_with_triangle</text>
</a>
</g>
</g>
<!-- Node46&#45;&gt;Node48 -->
<g id="edge56_Node000046_Node000048" class="edge">
<title>Node46&#45;&gt;Node48</title>
<g id="a_edge56_Node000046_Node000048"><a xlink:title=" ">
<path fill="none" stroke="#63b8ff" d="M513.05,-30.8C526.24,-29 540.15,-27.1 553.58,-25.28"/>
<polygon fill="#63b8ff" stroke="#63b8ff" points="554.3,-28.71 563.73,-23.89 553.35,-21.77 554.3,-28.71"/>
</a>
</g>
</g>
</g>
</svg>

<g id="navigator" transform="translate(0 0)" fill="#404254">
  <rect fill="#f2f5e9" fill-opacity="0.5" stroke="#606060" stroke-width=".5" x="0" y="0" width="60" height="60"/>
  <use id="zoomplus" xlink:href="#zoomPlus" x="17" y="9" onmousedown="handleZoom(evt,'in')"/>
  <use id="zoomminus" xlink:href="#zoomMin" x="42" y="9" onmousedown="handleZoom(evt,'out')"/>
  <use id="reset" xlink:href="#resetDef" x="30" y="36" onmousedown="handleReset()"/>
   <use id="arrowup" xlink:href="#arrowUp" x="0" y="0" onmousedown="handlePan(0,-1)"/>
  <use id="arrowright" xlink:href="#arrowRight" x="0" y="0" onmousedown="handlePan(1,0)"/>
  <use id="arrowdown" xlink:href="#arrowDown" x="0" y="0" onmousedown="handlePan(0,1)"/>
  <use id="arrowleft" xlink:href="#arrowLeft" x="0" y="0" onmousedown="handlePan(-1,0)"/>
</g>
<svg viewBox="0 0 15 15" width="100%" height="30px" preserveAspectRatio="xMaxYMin meet">
 <g id="arrow_out" transform="scale(0.3 0.3)">
  <a xlink:href="classBansheeBoardwalk_ac3c915c5a03066d4221e2007e8315988_cgraph_org.svg" target="_base">
   <rect id="button" ry="5" rx="5" y="6" x="6" height="38" width="38"
        fill="#f2f5e9" fill-opacity="0.5" stroke="#606060" stroke-width="1.0"/>
   <path id="arrow"
     d="M 11.500037,31.436501 C 11.940474,20.09759 22.043105,11.32322 32.158766,21.979434 L 37.068811,17.246167 C 37.068811,17.246167 37.088388,32 37.088388,32 L 22.160133,31.978069 C 22.160133,31.978069 26.997745,27.140456 26.997745,27.140456 C 18.528582,18.264221 13.291696,25.230495 11.500037,31.436501 z"
     style="fill:#404040;"/>
  </a>
 </g>
</svg>

<style type='text/css'>
<![CDATA[
[data-mouse-over-selected='false'] { opacity: 0.7; }
[data-mouse-over-selected='true']  { opacity: 1.0; }
]]>
</style>
<script type="application/ecmascript"><![CDATA[
document.addEventListener('DOMContentLoaded', (event) => {
  highlightEdges();
  highlightAdjacentNodes();
});
]]></script>
</svg>
