<?xml version="1.0" encoding="UTF-8" standalone="no"?>
<!DOCTYPE svg PUBLIC "-//W3C//DTD SVG 1.1//EN"
 "http://www.w3.org/Graphics/SVG/1.1/DTD/svg11.dtd">
<!-- Generated by graphviz version 2.43.0 (0)
 -->
<!-- Title: AText::PrintLetter3D Pages: 1 -->
<svg width="689pt" height="64pt"
 viewBox="0.00 0.00 689.00 64.00" xmlns="http://www.w3.org/2000/svg" xmlns:xlink="http://www.w3.org/1999/xlink">
<g id="graph0" class="graph" transform="scale(1 1) rotate(0) translate(4 60)">
<title>AText::PrintLetter3D</title>
<!-- Node1 -->
<g id="Node000001" class="node">
<title>Node1</title>
<g id="a_Node000001"><a xlink:title=" ">
<polygon fill="#999999" stroke="#666666" points="681,-37 568,-37 568,-18 681,-18 681,-37"/>
<text text-anchor="middle" x="624.5" y="-25" font-family="Helvetica,sans-Serif" font-size="10.00">AText::PrintLetter3D</text>
</a>
</g>
</g>
<!-- Node2 -->
<g id="Node000002" class="node">
<title>Node2</title>
<g id="a_Node000002"><a xlink:href="classAText.html#a988845ca5b2b1d21e84cf22a68924f30" target="_top" xlink:title=" ">
<polygon fill="white" stroke="#666666" points="532,-37 447,-37 447,-18 532,-18 532,-37"/>
<text text-anchor="middle" x="489.5" y="-25" font-family="Helvetica,sans-Serif" font-size="10.00">AText::Print3D</text>
</a>
</g>
</g>
<!-- Node1&#45;&gt;Node2 -->
<g id="edge1_Node000001_Node000002" class="edge">
<title>Node1&#45;&gt;Node2</title>
<g id="a_edge1_Node000001_Node000002"><a xlink:title=" ">
<path fill="none" stroke="#63b8ff" d="M557.7,-27.5C549,-27.5 540.28,-27.5 532.15,-27.5"/>
<polygon fill="#63b8ff" stroke="#63b8ff" points="557.87,-31 567.87,-27.5 557.87,-24 557.87,-31"/>
</a>
</g>
</g>
<!-- Node3 -->
<g id="Node000003" class="node">
<title>Node3</title>
<g id="a_Node000003"><a xlink:href="classAText.html#ad1eb7d831c8cba5c851ec4b07c20e067" target="_top" xlink:title=" ">
<polygon fill="white" stroke="#666666" points="405.5,-56 330.5,-56 330.5,-37 405.5,-37 405.5,-56"/>
<text text-anchor="middle" x="368" y="-44" font-family="Helvetica,sans-Serif" font-size="10.00">AText::AText</text>
</a>
</g>
</g>
<!-- Node2&#45;&gt;Node3 -->
<g id="edge2_Node000002_Node000003" class="edge">
<title>Node2&#45;&gt;Node3</title>
<g id="a_edge2_Node000002_Node000003"><a xlink:title=" ">
<path fill="none" stroke="#63b8ff" d="M436.51,-35.77C426.16,-37.41 415.5,-39.11 405.79,-40.65"/>
<polygon fill="#63b8ff" stroke="#63b8ff" points="437.38,-39.17 446.7,-34.15 436.28,-32.26 437.38,-39.17"/>
</a>
</g>
</g>
<!-- Node6 -->
<g id="Node000006" class="node">
<title>Node6</title>
<g id="a_Node000006"><a xlink:href="classAText.html#a95dc1366e8afbf5113357fdb6426f226" target="_top" xlink:title=" ">
<polygon fill="white" stroke="#666666" points="411,-19 325,-19 325,0 411,0 411,-19"/>
<text text-anchor="middle" x="368" y="-7" font-family="Helvetica,sans-Serif" font-size="10.00">AText::Refresh</text>
</a>
</g>
</g>
<!-- Node2&#45;&gt;Node6 -->
<g id="edge5_Node000002_Node000006" class="edge">
<title>Node2&#45;&gt;Node6</title>
<g id="a_edge5_Node000002_Node000006"><a xlink:title=" ">
<path fill="none" stroke="#63b8ff" d="M436.59,-19.68C428.17,-18.41 419.54,-17.11 411.38,-15.88"/>
<polygon fill="#63b8ff" stroke="#63b8ff" points="436.29,-23.18 446.7,-21.2 437.34,-16.25 436.29,-23.18"/>
</a>
</g>
</g>
<!-- Node4 -->
<g id="Node000004" class="node">
<title>Node4</title>
<g id="a_Node000004"><a xlink:href="classAText.html#a2f38d1b087146f2510964124efc111f2" target="_top" xlink:title=" ">
<polygon fill="white" stroke="#666666" points="253.5,-56 172.5,-56 172.5,-37 253.5,-37 253.5,-56"/>
<text text-anchor="middle" x="213" y="-44" font-family="Helvetica,sans-Serif" font-size="10.00">AText::Spawn</text>
</a>
</g>
</g>
<!-- Node3&#45;&gt;Node4 -->
<g id="edge3_Node000003_Node000004" class="edge">
<title>Node3&#45;&gt;Node4</title>
<g id="a_edge3_Node000003_Node000004"><a xlink:title=" ">
<path fill="none" stroke="#63b8ff" d="M320.22,-46.5C298.9,-46.5 273.93,-46.5 253.56,-46.5"/>
<polygon fill="#63b8ff" stroke="#63b8ff" points="320.35,-50 330.35,-46.5 320.35,-43 320.35,-50"/>
</a>
</g>
</g>
<!-- Node5 -->
<g id="Node000005" class="node">
<title>Node5</title>
<g id="a_Node000005"><a xlink:href="classRulesets.html#a93351c305cc2659ba94d7ba1a30dde95" target="_top" xlink:title=" ">
<polygon fill="white" stroke="#666666" points="101,-56 0,-56 0,-37 101,-37 101,-56"/>
<text text-anchor="middle" x="50.5" y="-44" font-family="Helvetica,sans-Serif" font-size="10.00">Rulesets::PostInit</text>
</a>
</g>
</g>
<!-- Node4&#45;&gt;Node5 -->
<g id="edge4_Node000004_Node000005" class="edge">
<title>Node4&#45;&gt;Node5</title>
<g id="a_edge4_Node000004_Node000005"><a xlink:title=" ">
<path fill="none" stroke="#63b8ff" d="M162.15,-46.5C142.71,-46.5 120.47,-46.5 101.06,-46.5"/>
<polygon fill="#63b8ff" stroke="#63b8ff" points="162.33,-50 172.33,-46.5 162.33,-43 162.33,-50"/>
</a>
</g>
</g>
<!-- Node7 -->
<g id="Node000007" class="node">
<title>Node7</title>
<g id="a_Node000007"><a xlink:href="classAText.html#ac875c4acae047cd10f25f229b23fbdd1" target="_top" xlink:title=" ">
<polygon fill="white" stroke="#666666" points="289,-19 137,-19 137,0 289,0 289,-19"/>
<text text-anchor="middle" x="213" y="-7" font-family="Helvetica,sans-Serif" font-size="10.00">AText::DrawEditorProperties</text>
</a>
</g>
</g>
<!-- Node6&#45;&gt;Node7 -->
<g id="edge6_Node000006_Node000007" class="edge">
<title>Node6&#45;&gt;Node7</title>
<g id="a_edge6_Node000006_Node000007"><a xlink:title=" ">
<path fill="none" stroke="#63b8ff" d="M314.65,-9.5C306.45,-9.5 297.84,-9.5 289.25,-9.5"/>
<polygon fill="#63b8ff" stroke="#63b8ff" points="314.79,-13 324.79,-9.5 314.79,-6 314.79,-13"/>
</a>
</g>
</g>
</g>
</svg>
