<?xml version="1.0" encoding="UTF-8" standalone="no"?>
<!DOCTYPE svg PUBLIC "-//W3C//DTD SVG 1.1//EN"
 "http://www.w3.org/Graphics/SVG/1.1/DTD/svg11.dtd">
<!-- Generated by graphviz version 2.43.0 (0)
 -->
<!-- Title: Editor::ContentBrowserWindow::AddActorContent Pages: 1 -->
<!--zoomable 338 -->

<svg id="main" version="1.1" xmlns="http://www.w3.org/2000/svg" xmlns:xlink="http://www.w3.org/1999/xlink" xml:space="preserve" onload="init(evt)">

<style type="text/css"><![CDATA[
.node, .edge {opacity: 0.7;}
.node.selected, .edge.selected {opacity: 1;}
.edge:hover path { stroke: red; }
.edge:hover polygon { stroke: red; fill: red; }
]]></style>

<defs>
  <circle id="rim" cx="0" cy="0" r="7"/>
  <circle id="rim2" cx="0" cy="0" r="3.5"/>
  <g id="zoomPlus">
    <use xlink:href="#rim" fill="#404040"><set attributeName="fill" to="#808080" begin="zoomplus.mouseover" end="zoomplus.mouseout"/></use>
    <path d="M-4,0h8M0,-4v8" fill="none" stroke="white" stroke-width="1.5" pointer-events="none"/>
  </g>
  <g id="zoomMin">
    <use xlink:href="#rim" fill="#404040"><set attributeName="fill" to="#808080" begin="zoomminus.mouseover" end="zoomminus.mouseout"/></use>
    <path d="M-4,0h8" fill="none" stroke="white" stroke-width="1.5" pointer-events="none"/>
  </g>
  <g id="arrowUp" transform="translate(30 24)">
    <use xlink:href="#rim"/>
    <path pointer-events="none" fill="none" stroke="white" stroke-width="1.5" d="M0,-3.0v7 M-2.5,-0.5L0,-3.0L2.5,-0.5"/>
  </g>
  <g id="arrowRight" transform="rotate(90) translate(36 -43)">
    <use xlink:href="#rim"/>
    <path pointer-events="none" fill="none" stroke="white" stroke-width="1.5" d="M0,-3.0v7 M-2.5,-0.5L0,-3.0L2.5,-0.5"/>
  </g>
  <g id="arrowDown" transform="rotate(180) translate(-30 -48)">
    <use xlink:href="#rim"/>
    <path pointer-events="none" fill="none" stroke="white" stroke-width="1.5" d="M0,-3.0v7 M-2.5,-0.5L0,-3.0L2.5,-0.5"/>
  </g>
  <g id="arrowLeft" transform="rotate(270) translate(-36 17)">
    <use xlink:href="#rim"/>
    <path pointer-events="none" fill="none" stroke="white" stroke-width="1.5" d="M0,-3.0v7 M-2.5,-0.5L0,-3.0L2.5,-0.5"/>
  </g>
  <g id="resetDef">
    <use xlink:href="#rim2" fill="#404040"><set attributeName="fill" to="#808080" begin="reset.mouseover" end="reset.mouseout"/></use>
  </g>
</defs>
<script type="application/ecmascript">
var viewWidth = 2111;
var viewHeight = 338;
var sectionId = 'dynsection-2';
</script>
<script type="application/ecmascript" xlink:href="svg.min.js"/>
<svg id="graph" class="graph">
<g id="viewport">
<title>Editor::ContentBrowserWindow::AddActorContent</title>
<!-- Node1 -->
<g id="Node000001" class="node">
<title>Node1</title>
<g id="a_Node000001"><a xlink:title=" ">
<polygon fill="#999999" stroke="#666666" points="168,-223.5 0,-223.5 0,-193.5 168,-193.5 168,-223.5"/>
<text text-anchor="start" x="8" y="-211.5" font-family="Helvetica,sans-Serif" font-size="10.00">Editor::ContentBrowserWindow</text>
<text text-anchor="middle" x="84" y="-200.5" font-family="Helvetica,sans-Serif" font-size="10.00">::AddActorContent</text>
</a>
</g>
</g>
<!-- Node2 -->
<g id="Node000002" class="node">
<title>Node2</title>
<g id="a_Node000002"><a xlink:href="EditorMath_8cpp.html#a707962eeb418c5eae5161502b49da8e4" target="_top" xlink:title=" ">
<polygon fill="white" stroke="#666666" points="364.5,-240 211.5,-240 211.5,-221 364.5,-221 364.5,-240"/>
<text text-anchor="middle" x="288" y="-228" font-family="Helvetica,sans-Serif" font-size="10.00">GetPositionAheadOfCamera</text>
</a>
</g>
</g>
<!-- Node1&#45;&gt;Node2 -->
<g id="edge1_Node000001_Node000002" class="edge">
<title>Node1&#45;&gt;Node2</title>
<g id="a_edge1_Node000001_Node000002"><a xlink:title=" ">
<path fill="none" stroke="#63b8ff" d="M168.04,-217.54C179.03,-218.74 190.32,-219.97 201.36,-221.17"/>
<polygon fill="#63b8ff" stroke="#63b8ff" points="201.1,-224.66 211.42,-222.27 201.85,-217.71 201.1,-224.66"/>
</a>
</g>
</g>
<!-- Node5 -->
<g id="Node000005" class="node">
<title>Node5</title>
<g id="a_Node000005"><a xlink:href="classEditor_1_1ContentBrowserWindow.html#a892a21e5db2c05ba813cfdc4f1dae812" target="_top" xlink:title=" ">
<polygon fill="white" stroke="#666666" points="372,-202.5 204,-202.5 204,-172.5 372,-172.5 372,-202.5"/>
<text text-anchor="start" x="212" y="-190.5" font-family="Helvetica,sans-Serif" font-size="10.00">Editor::ContentBrowserWindow</text>
<text text-anchor="middle" x="288" y="-179.5" font-family="Helvetica,sans-Serif" font-size="10.00">::TrainWindow</text>
</a>
</g>
</g>
<!-- Node1&#45;&gt;Node5 -->
<g id="edge4_Node000001_Node000005" class="edge">
<title>Node1&#45;&gt;Node5</title>
<g id="a_edge4_Node000001_Node000005"><a xlink:title=" ">
<path fill="none" stroke="#63b8ff" d="M168.04,-199.87C176.56,-198.98 185.26,-198.08 193.89,-197.18"/>
<polygon fill="#63b8ff" stroke="#63b8ff" points="194.38,-200.65 203.96,-196.13 193.65,-193.69 194.38,-200.65"/>
</a>
</g>
</g>
<!-- Node3 -->
<g id="Node000003" class="node">
<title>Node3</title>
<g id="a_Node000003"><a xlink:href="cosf_8c.html#a7b126b2344591e649c21c9ab0b8adb40" target="_top" xlink:title=" ">
<polygon fill="white" stroke="#666666" points="468.5,-237 431.5,-237 431.5,-218 468.5,-218 468.5,-237"/>
<text text-anchor="middle" x="450" y="-225" font-family="Helvetica,sans-Serif" font-size="10.00">cosf</text>
</a>
</g>
</g>
<!-- Node2&#45;&gt;Node3 -->
<g id="edge2_Node000002_Node000003" class="edge">
<title>Node2&#45;&gt;Node3</title>
<g id="a_edge2_Node000002_Node000003"><a xlink:title=" ">
<path fill="none" stroke="#63b8ff" d="M364.78,-229.08C385,-228.7 405.57,-228.31 421.32,-228.02"/>
<polygon fill="#63b8ff" stroke="#63b8ff" points="421.46,-231.52 431.39,-227.83 421.33,-224.52 421.46,-231.52"/>
</a>
</g>
</g>
<!-- Node4 -->
<g id="Node000004" class="node">
<title>Node4</title>
<g id="a_Node000004"><a xlink:href="sinf_8c.html#a8a7dc2a88e109f4e15b661247665709a" target="_top" xlink:title=" ">
<polygon fill="white" stroke="#666666" points="467.5,-274 432.5,-274 432.5,-255 467.5,-255 467.5,-274"/>
<text text-anchor="middle" x="450" y="-262" font-family="Helvetica,sans-Serif" font-size="10.00">sinf</text>
</a>
</g>
</g>
<!-- Node2&#45;&gt;Node4 -->
<g id="edge3_Node000002_Node000004" class="edge">
<title>Node2&#45;&gt;Node4</title>
<g id="a_edge3_Node000002_Node000004"><a xlink:title=" ">
<path fill="none" stroke="#63b8ff" d="M333.99,-240.06C362.5,-246.12 398.38,-253.74 422.42,-258.85"/>
<polygon fill="#63b8ff" stroke="#63b8ff" points="421.74,-262.29 432.25,-260.94 423.2,-255.44 421.74,-262.29"/>
</a>
</g>
</g>
<!-- Node6 -->
<g id="Node000006" class="node">
<title>Node6</title>
<g id="a_Node000006"><a xlink:href="classATrain.html#aa39976112e962ff1536c33236e16cc20" target="_top" xlink:title=" ">
<polygon fill="white" stroke="#666666" points="492,-197 408,-197 408,-178 492,-178 492,-197"/>
<text text-anchor="middle" x="450" y="-185" font-family="Helvetica,sans-Serif" font-size="10.00">ATrain::Spawn</text>
</a>
</g>
</g>
<!-- Node5&#45;&gt;Node6 -->
<g id="edge5_Node000005_Node000006" class="edge">
<title>Node5&#45;&gt;Node6</title>
<g id="a_edge5_Node000005_Node000006"><a xlink:title=" ">
<path fill="none" stroke="#63b8ff" d="M372.28,-187.5C380.93,-187.5 389.53,-187.5 397.67,-187.5"/>
<polygon fill="#63b8ff" stroke="#63b8ff" points="397.71,-191 407.71,-187.5 397.71,-184 397.71,-191"/>
</a>
</g>
</g>
<!-- Node7 -->
<g id="Node000007" class="node">
<title>Node7</title>
<g id="a_Node000007"><a xlink:href="classATrain.html#a924e9fb51739e1fba6b0eff6635611bc" target="_top" xlink:title=" ">
<polygon fill="white" stroke="#666666" points="609,-197 528,-197 528,-178 609,-178 609,-197"/>
<text text-anchor="middle" x="568.5" y="-185" font-family="Helvetica,sans-Serif" font-size="10.00">ATrain::ATrain</text>
</a>
</g>
</g>
<!-- Node6&#45;&gt;Node7 -->
<g id="edge6_Node000006_Node000007" class="edge">
<title>Node6&#45;&gt;Node7</title>
<g id="a_edge6_Node000006_Node000007"><a xlink:title=" ">
<path fill="none" stroke="#63b8ff" d="M492.07,-187.5C500.36,-187.5 509.16,-187.5 517.71,-187.5"/>
<polygon fill="#63b8ff" stroke="#63b8ff" points="517.97,-191 527.97,-187.5 517.97,-184 517.97,-191"/>
</a>
</g>
</g>
<!-- Node8 -->
<g id="Node000008" class="node">
<title>Node8</title>
<g id="a_Node000008"><a xlink:href="classAActor.html#a679c43bacf3600fa2d7a6ab30e34a8a6" target="_top" xlink:title=" ">
<polygon fill="white" stroke="#666666" points="773,-293 686,-293 686,-274 773,-274 773,-293"/>
<text text-anchor="middle" x="729.5" y="-281" font-family="Helvetica,sans-Serif" font-size="10.00">AActor::AActor</text>
</a>
</g>
</g>
<!-- Node7&#45;&gt;Node8 -->
<g id="edge7_Node000007_Node000008" class="edge">
<title>Node7&#45;&gt;Node8</title>
<g id="a_edge7_Node000007_Node000008"><a xlink:title=" ">
<path fill="none" stroke="#63b8ff" d="M575.91,-197.18C587.55,-213.93 613.86,-248.2 645,-265.5 654.33,-270.68 665.02,-274.38 675.56,-277"/>
<polygon fill="#63b8ff" stroke="#63b8ff" points="675.06,-280.48 685.58,-279.21 676.56,-273.64 675.06,-280.48"/>
</a>
</g>
</g>
<!-- Node9 -->
<g id="Node000009" class="node">
<title>Node9</title>
<g id="a_Node000009"><a xlink:href="actors_8c.html#a91fb2e4e37e7c72fea918fe2c1bb4eaf" target="_top" xlink:title=" ">
<polygon fill="white" stroke="#666666" points="799.5,-256 659.5,-256 659.5,-237 799.5,-237 799.5,-256"/>
<text text-anchor="middle" x="729.5" y="-244" font-family="Helvetica,sans-Serif" font-size="10.00">add_actor_to_empty_slot</text>
</a>
</g>
</g>
<!-- Node7&#45;&gt;Node9 -->
<g id="edge8_Node000007_Node000009" class="edge">
<title>Node7&#45;&gt;Node9</title>
<g id="a_edge8_Node000007_Node000009"><a xlink:title=" ">
<path fill="none" stroke="#63b8ff" d="M584.23,-197.15C599.02,-206.44 622.76,-220.26 645,-228.5 650.93,-230.7 657.2,-232.66 663.54,-234.41"/>
<polygon fill="#63b8ff" stroke="#63b8ff" points="662.95,-237.88 673.51,-236.99 664.7,-231.1 662.95,-237.88"/>
</a>
</g>
</g>
<!-- Node35 -->
<g id="Node000035" class="node">
<title>Node35</title>
<g id="a_Node000035"><a xlink:href="Utils_8cpp.html#aeaf9fffe1458c3ce2a95a80906db76c3" target="_top" xlink:title=" ">
<polygon fill="white" stroke="#666666" points="814,-219 645,-219 645,-200 814,-200 814,-219"/>
<text text-anchor="middle" x="729.5" y="-207" font-family="Helvetica,sans-Serif" font-size="10.00">GetVehiclePathPointDistributed</text>
</a>
</g>
</g>
<!-- Node7&#45;&gt;Node35 -->
<g id="edge34_Node000007_Node000035" class="edge">
<title>Node7&#45;&gt;Node35</title>
<g id="a_edge34_Node000007_Node000035"><a xlink:title=" ">
<path fill="none" stroke="#63b8ff" d="M609.21,-192.99C621.5,-194.69 635.49,-196.63 649.47,-198.57"/>
<polygon fill="#63b8ff" stroke="#63b8ff" points="649.23,-202.07 659.62,-199.97 650.19,-195.13 649.23,-202.07"/>
</a>
</g>
</g>
<!-- Node36 -->
<g id="Node000036" class="node">
<title>Node36</title>
<g id="a_Node000036"><a xlink:href="code__80005FD0_8c.html#a905c0b4107a7a9717f49b4efcaacad4e" target="_top" xlink:title=" ">
<polygon fill="white" stroke="#666666" points="790.5,-181.5 668.5,-181.5 668.5,-151.5 790.5,-151.5 790.5,-181.5"/>
<text text-anchor="start" x="676.5" y="-169.5" font-family="Helvetica,sans-Serif" font-size="10.00">set_vehicle_pos_path</text>
<text text-anchor="middle" x="729.5" y="-158.5" font-family="Helvetica,sans-Serif" font-size="10.00">_point</text>
</a>
</g>
</g>
<!-- Node7&#45;&gt;Node36 -->
<g id="edge35_Node000007_Node000036" class="edge">
<title>Node7&#45;&gt;Node36</title>
<g id="a_edge35_Node000007_Node000036"><a xlink:title=" ">
<path fill="none" stroke="#63b8ff" d="M609.21,-182.25C623.99,-180.3 641.24,-178.03 657.95,-175.82"/>
<polygon fill="#63b8ff" stroke="#63b8ff" points="658.81,-179.24 668.26,-174.46 657.89,-172.3 658.81,-179.24"/>
</a>
</g>
</g>
<!-- Node39 -->
<g id="Node000039" class="node">
<title>Node39</title>
<g id="a_Node000039"><a xlink:href="code__80005FD0_8c.html#a777de4239351e9266f8b367ce46cb936" target="_top" xlink:title=" ">
<polygon fill="white" stroke="#666666" points="813.5,-133 645.5,-133 645.5,-114 813.5,-114 813.5,-133"/>
<text text-anchor="middle" x="729.5" y="-121" font-family="Helvetica,sans-Serif" font-size="10.00">update_vehicle_following_path</text>
</a>
</g>
</g>
<!-- Node7&#45;&gt;Node39 -->
<g id="edge38_Node000007_Node000039" class="edge">
<title>Node7&#45;&gt;Node39</title>
<g id="a_edge38_Node000007_Node000039"><a xlink:title=" ">
<path fill="none" stroke="#63b8ff" d="M582.74,-177.84C597.32,-167.65 621.77,-151.8 645,-142.5 651.4,-139.94 658.22,-137.68 665.1,-135.71"/>
<polygon fill="#63b8ff" stroke="#63b8ff" points="666.42,-138.97 675.17,-133 664.61,-132.21 666.42,-138.97"/>
</a>
</g>
</g>
<!-- Node46 -->
<g id="Node000046" class="node">
<title>Node46</title>
<g id="a_Node000046"><a xlink:href="math__util_8c.html#a9092c945c52b3a3481228b2724991e3c" target="_top" xlink:title=" ">
<polygon fill="white" stroke="#666666" points="762,-96 697,-96 697,-77 762,-77 762,-96"/>
<text text-anchor="middle" x="729.5" y="-84" font-family="Helvetica,sans-Serif" font-size="10.00">vec3s_set</text>
</a>
</g>
</g>
<!-- Node7&#45;&gt;Node46 -->
<g id="edge47_Node000007_Node000046" class="edge">
<title>Node7&#45;&gt;Node46</title>
<g id="a_edge47_Node000007_Node000046"><a xlink:title=" ">
<path fill="none" stroke="#63b8ff" d="M575.45,-177.91C586.73,-160.56 613.02,-124.03 645,-105.5 657.63,-98.18 672.85,-93.68 686.82,-90.92"/>
<polygon fill="#63b8ff" stroke="#63b8ff" points="687.46,-94.36 696.72,-89.19 686.26,-87.46 687.46,-94.36"/>
</a>
</g>
</g>
<!-- Node10 -->
<g id="Node000010" class="node">
<title>Node10</title>
<g id="a_Node000010"><a xlink:href="actors_8c.html#a39c023177b5a7686cdd1fc65b8b953e1" target="_top" xlink:title=" ">
<polygon fill="white" stroke="#666666" points="950.5,-219 888.5,-219 888.5,-200 950.5,-200 950.5,-219"/>
<text text-anchor="middle" x="919.5" y="-207" font-family="Helvetica,sans-Serif" font-size="10.00">actor_init</text>
</a>
</g>
</g>
<!-- Node9&#45;&gt;Node10 -->
<g id="edge9_Node000009_Node000010" class="edge">
<title>Node9&#45;&gt;Node10</title>
<g id="a_edge9_Node000009_Node000010"><a xlink:title=" ">
<path fill="none" stroke="#63b8ff" d="M778.91,-236.97C809.86,-230.88 849.51,-223.08 878.64,-217.35"/>
<polygon fill="#63b8ff" stroke="#63b8ff" points="879.33,-220.78 888.47,-215.41 877.98,-213.91 879.33,-220.78"/>
</a>
</g>
</g>
<!-- Node32 -->
<g id="Node000032" class="node">
<title>Node32</title>
<g id="a_Node000032"><a xlink:href="Game_8cpp.html#acea5cfd9ab22f745bd6627869b95a62e" target="_top" xlink:title=" ">
<polygon fill="white" stroke="#666666" points="975.5,-330 863.5,-330 863.5,-311 975.5,-311 975.5,-330"/>
<text text-anchor="middle" x="919.5" y="-318" font-family="Helvetica,sans-Serif" font-size="10.00">CM_ActorBeginPlay</text>
</a>
</g>
</g>
<!-- Node9&#45;&gt;Node32 -->
<g id="edge31_Node000009_Node000032" class="edge">
<title>Node9&#45;&gt;Node32</title>
<g id="a_edge31_Node000009_Node000032"><a xlink:title=" ">
<path fill="none" stroke="#63b8ff" d="M791.78,-256.12C799.52,-258.57 807.13,-261.64 814,-265.5 834.01,-276.73 830.18,-290.94 850,-302.5 853.01,-304.26 856.2,-305.85 859.48,-307.28"/>
<polygon fill="#63b8ff" stroke="#63b8ff" points="858.34,-310.59 868.93,-310.94 860.87,-304.06 858.34,-310.59"/>
</a>
</g>
</g>
<!-- Node33 -->
<g id="Node000033" class="node">
<title>Node33</title>
<g id="a_Node000033"><a xlink:href="Game_8cpp.html#a42f23077aaa52cb3ea5c7803b7dd6816" target="_top" xlink:title=" ">
<polygon fill="white" stroke="#666666" points="972.5,-293 866.5,-293 866.5,-274 972.5,-274 972.5,-293"/>
<text text-anchor="middle" x="919.5" y="-281" font-family="Helvetica,sans-Serif" font-size="10.00">CM_AddBaseActor</text>
</a>
</g>
</g>
<!-- Node9&#45;&gt;Node33 -->
<g id="edge32_Node000009_Node000033" class="edge">
<title>Node9&#45;&gt;Node33</title>
<g id="a_edge32_Node000009_Node000033"><a xlink:title=" ">
<path fill="none" stroke="#63b8ff" d="M778.91,-256.03C803.6,-260.89 833.82,-266.83 859.81,-271.95"/>
<polygon fill="#63b8ff" stroke="#63b8ff" points="859.44,-275.44 869.92,-273.94 860.79,-268.57 859.44,-275.44"/>
</a>
</g>
</g>
<!-- Node34 -->
<g id="Node000034" class="node">
<title>Node34</title>
<g id="a_Node000034"><a xlink:href="Game_8cpp.html#a0841ffe9a66e95aca42438b9d8ffc3d3" target="_top" xlink:title=" ">
<polygon fill="white" stroke="#666666" points="970,-256 869,-256 869,-237 970,-237 970,-256"/>
<text text-anchor="middle" x="919.5" y="-244" font-family="Helvetica,sans-Serif" font-size="10.00">CM_GetActorSize</text>
</a>
</g>
</g>
<!-- Node9&#45;&gt;Node34 -->
<g id="edge33_Node000009_Node000034" class="edge">
<title>Node9&#45;&gt;Node34</title>
<g id="a_edge33_Node000009_Node000034"><a xlink:title=" ">
<path fill="none" stroke="#63b8ff" d="M799.7,-246.5C819.05,-246.5 839.9,-246.5 858.66,-246.5"/>
<polygon fill="#63b8ff" stroke="#63b8ff" points="858.84,-250 868.84,-246.5 858.84,-243 858.84,-250"/>
</a>
</g>
</g>
<!-- Node11 -->
<g id="Node000011" class="node">
<title>Node11</title>
<g id="a_Node000011"><a xlink:href="collision_8c.html#a37aa55b3768d001533ad75e7f1b8388a" target="_top" xlink:title=" ">
<polygon fill="white" stroke="#666666" points="1166,-192 1025,-192 1025,-173 1166,-173 1166,-192"/>
<text text-anchor="middle" x="1095.5" y="-180" font-family="Helvetica,sans-Serif" font-size="10.00">check_bounding_collision</text>
</a>
</g>
</g>
<!-- Node10&#45;&gt;Node11 -->
<g id="edge10_Node000010_Node000011" class="edge">
<title>Node10&#45;&gt;Node11</title>
<g id="a_edge10_Node000010_Node000011"><a xlink:title=" ">
<path fill="none" stroke="#63b8ff" d="M950.81,-204.8C970.84,-201.69 997.96,-197.48 1023.25,-193.56"/>
<polygon fill="#63b8ff" stroke="#63b8ff" points="1023.86,-197 1033.21,-192.01 1022.79,-190.09 1023.86,-197"/>
</a>
</g>
</g>
<!-- Node15 -->
<g id="Node000015" class="node">
<title>Node15</title>
<g id="a_Node000015"><a xlink:href="actors_8c.html#a1a9bccb586242555a9123ebd4ab70f2a" target="_top" xlink:title=" ">
<polygon fill="white" stroke="#666666" points="1161.5,-116.5 1029.5,-116.5 1029.5,-86.5 1161.5,-86.5 1161.5,-116.5"/>
<text text-anchor="start" x="1037.5" y="-104.5" font-family="Helvetica,sans-Serif" font-size="10.00">cleanup_red_and_green</text>
<text text-anchor="middle" x="1095.5" y="-93.5" font-family="Helvetica,sans-Serif" font-size="10.00">_shells</text>
</a>
</g>
</g>
<!-- Node10&#45;&gt;Node15 -->
<g id="edge14_Node000010_Node000015" class="edge">
<title>Node10&#45;&gt;Node15</title>
<g id="a_edge14_Node000010_Node000015"><a xlink:title=" ">
<path fill="none" stroke="#63b8ff" d="M950.51,-203.03C962.87,-199.68 977.06,-194.92 989,-188.5 1006.17,-179.26 1044.73,-146.08 1070.16,-123.47"/>
<polygon fill="#63b8ff" stroke="#63b8ff" points="1072.79,-125.81 1077.92,-116.54 1068.13,-120.59 1072.79,-125.81"/>
</a>
</g>
</g>
<!-- Node28 -->
<g id="Node000028" class="node">
<title>Node28</title>
<g id="a_Node000028"><a xlink:href="collision_8c.html#ad72fef3ffe32191d73b1822f512ebf3f" target="_top" xlink:title=" ">
<polygon fill="white" stroke="#666666" points="1143,-303 1048,-303 1048,-284 1143,-284 1143,-303"/>
<text text-anchor="middle" x="1095.5" y="-291" font-family="Helvetica,sans-Serif" font-size="10.00">func_802AAAAC</text>
</a>
</g>
</g>
<!-- Node10&#45;&gt;Node28 -->
<g id="edge27_Node000010_Node000028" class="edge">
<title>Node10&#45;&gt;Node28</title>
<g id="a_edge27_Node000010_Node000028"><a xlink:title=" ">
<path fill="none" stroke="#63b8ff" d="M950.61,-213.5C963.26,-216.24 977.65,-220.83 989,-228.5 1010.81,-243.22 1003.07,-260.96 1025,-275.5 1029.07,-278.2 1033.52,-280.49 1038.15,-282.44"/>
<polygon fill="#63b8ff" stroke="#63b8ff" points="1037.21,-285.83 1047.81,-285.98 1039.62,-279.26 1037.21,-285.83"/>
</a>
</g>
</g>
<!-- Node30 -->
<g id="Node000030" class="node">
<title>Node30</title>
<g id="a_Node000030"><a xlink:href="math__util_8c.html#af7b470ed76fce07b8042a47c96e5690b" target="_top" xlink:title=" ">
<polygon fill="white" stroke="#666666" points="1149,-266 1042,-266 1042,-247 1149,-247 1149,-266"/>
<text text-anchor="middle" x="1095.5" y="-254" font-family="Helvetica,sans-Serif" font-size="10.00">vec3f_copy_return</text>
</a>
</g>
</g>
<!-- Node10&#45;&gt;Node30 -->
<g id="edge29_Node000010_Node000030" class="edge">
<title>Node10&#45;&gt;Node30</title>
<g id="a_edge29_Node000010_Node000030"><a xlink:title=" ">
<path fill="none" stroke="#63b8ff" d="M950.51,-217.82C962.48,-221.14 976.39,-225 989,-228.5 1005,-232.94 1008.96,-234.2 1025,-238.5 1032.28,-240.45 1040,-242.49 1047.55,-244.46"/>
<polygon fill="#63b8ff" stroke="#63b8ff" points="1046.76,-247.87 1057.32,-247 1048.52,-241.1 1046.76,-247.87"/>
</a>
</g>
</g>
<!-- Node31 -->
<g id="Node000031" class="node">
<title>Node31</title>
<g id="a_Node000031"><a xlink:href="math__util_8c.html#a0e270ee67600c8c9c2f140c647d008a1" target="_top" xlink:title=" ">
<polygon fill="white" stroke="#666666" points="1132.5,-229 1058.5,-229 1058.5,-210 1132.5,-210 1132.5,-229"/>
<text text-anchor="middle" x="1095.5" y="-217" font-family="Helvetica,sans-Serif" font-size="10.00">vec3s_copy</text>
</a>
</g>
</g>
<!-- Node10&#45;&gt;Node31 -->
<g id="edge30_Node000010_Node000031" class="edge">
<title>Node10&#45;&gt;Node31</title>
<g id="a_edge30_Node000010_Node000031"><a xlink:title=" ">
<path fill="none" stroke="#63b8ff" d="M950.81,-211.24C977.66,-212.79 1017.29,-215.06 1048.13,-216.83"/>
<polygon fill="#63b8ff" stroke="#63b8ff" points="1048.03,-220.34 1058.22,-217.41 1048.43,-213.35 1048.03,-220.34"/>
</a>
</g>
</g>
<!-- Node12 -->
<g id="Node000012" class="node">
<title>Node12</title>
<g id="a_Node000012"><a xlink:href="collision_8c.html#ac312bf382cb40752f6b790a99e7cdcb6" target="_top" xlink:title=" ">
<polygon fill="white" stroke="#666666" points="1329,-192 1221,-192 1221,-173 1329,-173 1329,-192"/>
<text text-anchor="middle" x="1275" y="-180" font-family="Helvetica,sans-Serif" font-size="10.00">check_collision_yx</text>
</a>
</g>
</g>
<!-- Node11&#45;&gt;Node12 -->
<g id="edge11_Node000011_Node000012" class="edge">
<title>Node11&#45;&gt;Node12</title>
<g id="a_edge11_Node000011_Node000012"><a xlink:title=" ">
<path fill="none" stroke="#63b8ff" d="M1166.14,-182.5C1180.76,-182.5 1196.1,-182.5 1210.48,-182.5"/>
<polygon fill="#63b8ff" stroke="#63b8ff" points="1210.75,-186 1220.75,-182.5 1210.75,-179 1210.75,-186"/>
</a>
</g>
</g>
<!-- Node13 -->
<g id="Node000013" class="node">
<title>Node13</title>
<g id="a_Node000013"><a xlink:href="collision_8c.html#a4b48832a90e984536a0635a016ec4f28" target="_top" xlink:title=" ">
<polygon fill="white" stroke="#666666" points="1328.5,-266 1221.5,-266 1221.5,-247 1328.5,-247 1328.5,-266"/>
<text text-anchor="middle" x="1275" y="-254" font-family="Helvetica,sans-Serif" font-size="10.00">check_collision_zx</text>
</a>
</g>
</g>
<!-- Node11&#45;&gt;Node13 -->
<g id="edge12_Node000011_Node000013" class="edge">
<title>Node11&#45;&gt;Node13</title>
<g id="a_edge12_Node000011_Node000013"><a xlink:title=" ">
<path fill="none" stroke="#63b8ff" d="M1144.6,-192.03C1152.04,-194.51 1159.43,-197.62 1166,-201.5 1185.76,-213.16 1182.11,-227.06 1202,-238.5 1205.05,-240.26 1208.27,-241.84 1211.59,-243.27"/>
<polygon fill="#63b8ff" stroke="#63b8ff" points="1210.56,-246.63 1221.15,-246.92 1213.05,-240.08 1210.56,-246.63"/>
</a>
</g>
</g>
<!-- Node14 -->
<g id="Node000014" class="node">
<title>Node14</title>
<g id="a_Node000014"><a xlink:href="collision_8c.html#a21fef964ab48191a1c0341954ef27a40" target="_top" xlink:title=" ">
<polygon fill="white" stroke="#666666" points="1328.5,-229 1221.5,-229 1221.5,-210 1328.5,-210 1328.5,-229"/>
<text text-anchor="middle" x="1275" y="-217" font-family="Helvetica,sans-Serif" font-size="10.00">check_collision_zy</text>
</a>
</g>
</g>
<!-- Node11&#45;&gt;Node14 -->
<g id="edge13_Node000011_Node000014" class="edge">
<title>Node11&#45;&gt;Node14</title>
<g id="a_edge13_Node000011_Node000014"><a xlink:title=" ">
<path fill="none" stroke="#63b8ff" d="M1142.21,-192.03C1165.41,-196.86 1193.79,-202.78 1218.27,-207.88"/>
<polygon fill="#63b8ff" stroke="#63b8ff" points="1217.63,-211.33 1228.14,-209.94 1219.06,-204.47 1217.63,-211.33"/>
</a>
</g>
</g>
<!-- Node16 -->
<g id="Node000016" class="node">
<title>Node16</title>
<g id="a_Node000016"><a xlink:href="Game_8cpp.html#a693de7d8b89fe291aafea86bc64a0a2e" target="_top" xlink:title=" ">
<polygon fill="white" stroke="#666666" points="1315,-69 1235,-69 1235,-50 1315,-50 1315,-69"/>
<text text-anchor="middle" x="1275" y="-57" font-family="Helvetica,sans-Serif" font-size="10.00">CM_GetActor</text>
</a>
</g>
</g>
<!-- Node15&#45;&gt;Node16 -->
<g id="edge15_Node000015_Node000016" class="edge">
<title>Node15&#45;&gt;Node16</title>
<g id="a_edge15_Node000015_Node000016"><a xlink:title=" ">
<path fill="none" stroke="#63b8ff" d="M1160.08,-86.46C1181.44,-81.4 1204.92,-75.85 1224.99,-71.1"/>
<polygon fill="#63b8ff" stroke="#63b8ff" points="1225.91,-74.48 1234.84,-68.77 1224.3,-67.66 1225.91,-74.48"/>
</a>
</g>
</g>
<!-- Node17 -->
<g id="Node000017" class="node">
<title>Node17</title>
<g id="a_Node000017"><a xlink:href="code__80005FD0_8c.html#ad301b978cdd3c4cc190b10be050d51d8" target="_top" xlink:title=" ">
<polygon fill="white" stroke="#666666" points="1348,-154.5 1202,-154.5 1202,-124.5 1348,-124.5 1348,-154.5"/>
<text text-anchor="start" x="1210" y="-142.5" font-family="Helvetica,sans-Serif" font-size="10.00">delete_actor_in_unexpired</text>
<text text-anchor="middle" x="1275" y="-131.5" font-family="Helvetica,sans-Serif" font-size="10.00">_actor_list</text>
</a>
</g>
</g>
<!-- Node15&#45;&gt;Node17 -->
<g id="edge16_Node000015_Node000017" class="edge">
<title>Node15&#45;&gt;Node17</title>
<g id="a_edge16_Node000015_Node000017"><a xlink:title=" ">
<path fill="none" stroke="#63b8ff" d="M1161.59,-115.43C1172.12,-117.69 1183.13,-120.05 1193.96,-122.36"/>
<polygon fill="#63b8ff" stroke="#63b8ff" points="1193.33,-125.81 1203.84,-124.48 1194.8,-118.96 1193.33,-125.81"/>
</a>
</g>
</g>
<!-- Node18 -->
<g id="Node000018" class="node">
<title>Node18</title>
<g id="a_Node000018"><a xlink:href="actors_8c.html#a694ec6ef7548b8618aeb35c038d3a9b9" target="_top" xlink:title=" ">
<polygon fill="white" stroke="#666666" points="1316.5,-106 1233.5,-106 1233.5,-87 1316.5,-87 1316.5,-106"/>
<text text-anchor="middle" x="1275" y="-94" font-family="Helvetica,sans-Serif" font-size="10.00">destroy_actor</text>
</a>
</g>
</g>
<!-- Node15&#45;&gt;Node18 -->
<g id="edge17_Node000015_Node000018" class="edge">
<title>Node15&#45;&gt;Node18</title>
<g id="a_edge17_Node000015_Node000018"><a xlink:title=" ">
<path fill="none" stroke="#63b8ff" d="M1161.59,-99.67C1181.97,-99.09 1204.14,-98.47 1223.37,-97.93"/>
<polygon fill="#63b8ff" stroke="#63b8ff" points="1223.53,-101.42 1233.43,-97.64 1223.33,-94.43 1223.53,-101.42"/>
</a>
</g>
</g>
<!-- Node19 -->
<g id="Node000019" class="node">
<title>Node19</title>
<g id="a_Node000019"><a xlink:href="actors_8c.html#a12dc3ccac4c7d8569eadac0af4fd6f9f" target="_top" xlink:title=" ">
<polygon fill="white" stroke="#666666" points="1542,-106 1384,-106 1384,-87 1542,-87 1542,-106"/>
<text text-anchor="middle" x="1463" y="-94" font-family="Helvetica,sans-Serif" font-size="10.00">play_sound_before_despawn</text>
</a>
</g>
</g>
<!-- Node18&#45;&gt;Node19 -->
<g id="edge18_Node000018_Node000019" class="edge">
<title>Node18&#45;&gt;Node19</title>
<g id="a_edge18_Node000018_Node000019"><a xlink:title=" ">
<path fill="none" stroke="#63b8ff" d="M1316.82,-96.5C1333.65,-96.5 1353.86,-96.5 1373.77,-96.5"/>
<polygon fill="#63b8ff" stroke="#63b8ff" points="1373.82,-100 1383.82,-96.5 1373.82,-93 1373.82,-100"/>
</a>
</g>
</g>
<!-- Node20 -->
<g id="Node000020" class="node">
<title>Node20</title>
<g id="a_Node000020"><a xlink:href="external_8c.html#ae72057869772019e4464c87d4e16c682" target="_top" xlink:title=" ">
<polygon fill="white" stroke="#666666" points="1670,-106 1578,-106 1578,-87 1670,-87 1670,-106"/>
<text text-anchor="middle" x="1624" y="-94" font-family="Helvetica,sans-Serif" font-size="10.00">func_800C99E0</text>
</a>
</g>
</g>
<!-- Node19&#45;&gt;Node20 -->
<g id="edge19_Node000019_Node000020" class="edge">
<title>Node19&#45;&gt;Node20</title>
<g id="a_edge19_Node000019_Node000020"><a xlink:title=" ">
<path fill="none" stroke="#63b8ff" d="M1542.1,-96.5C1550.72,-96.5 1559.35,-96.5 1567.61,-96.5"/>
<polygon fill="#63b8ff" stroke="#63b8ff" points="1567.83,-100 1577.83,-96.5 1567.83,-93 1567.83,-100"/>
</a>
</g>
</g>
<!-- Node21 -->
<g id="Node000021" class="node">
<title>Node21</title>
<g id="a_Node000021"><a xlink:href="external_8c.html#aeb87c527482a244173df36a1f3d4f446" target="_top" xlink:title=" ">
<polygon fill="white" stroke="#666666" points="1798,-125 1706,-125 1706,-106 1798,-106 1798,-125"/>
<text text-anchor="middle" x="1752" y="-113" font-family="Helvetica,sans-Serif" font-size="10.00">func_800C21E8</text>
</a>
</g>
</g>
<!-- Node20&#45;&gt;Node21 -->
<g id="edge20_Node000020_Node000021" class="edge">
<title>Node20&#45;&gt;Node21</title>
<g id="a_edge20_Node000020_Node000021"><a xlink:title=" ">
<path fill="none" stroke="#63b8ff" d="M1670.13,-103.31C1678.46,-104.56 1687.23,-105.88 1695.81,-107.18"/>
<polygon fill="#63b8ff" stroke="#63b8ff" points="1695.35,-110.65 1705.76,-108.68 1696.39,-103.73 1695.35,-110.65"/>
</a>
</g>
</g>
<!-- Node22 -->
<g id="Node000022" class="node">
<title>Node22</title>
<g id="a_Node000022"><a xlink:href="external_8c.html#a028d40421b90c38f68ebfd5acc626f2e" target="_top" xlink:title=" ">
<polygon fill="white" stroke="#666666" points="1798,-88 1706,-88 1706,-69 1798,-69 1798,-88"/>
<text text-anchor="middle" x="1752" y="-76" font-family="Helvetica,sans-Serif" font-size="10.00">func_800C5578</text>
</a>
</g>
</g>
<!-- Node20&#45;&gt;Node22 -->
<g id="edge21_Node000020_Node000022" class="edge">
<title>Node20&#45;&gt;Node22</title>
<g id="a_edge21_Node000020_Node000022"><a xlink:title=" ">
<path fill="none" stroke="#63b8ff" d="M1670.13,-90.05C1678.46,-88.86 1687.23,-87.61 1695.81,-86.38"/>
<polygon fill="#63b8ff" stroke="#63b8ff" points="1696.35,-89.84 1705.76,-84.96 1695.36,-82.91 1696.35,-89.84"/>
</a>
</g>
</g>
<!-- Node23 -->
<g id="Node000023" class="node">
<title>Node23</title>
<g id="a_Node000023"><a xlink:href="external_8c.html#ac0fb767de7e14a03f1bcfa53f0abd23b" target="_top" xlink:title=" ">
<polygon fill="white" stroke="#666666" points="1974,-125 1834,-125 1834,-106 1974,-106 1974,-125"/>
<text text-anchor="middle" x="1904" y="-113" font-family="Helvetica,sans-Serif" font-size="10.00">delete_sound_from_bank</text>
</a>
</g>
</g>
<!-- Node22&#45;&gt;Node23 -->
<g id="edge22_Node000022_Node000023" class="edge">
<title>Node22&#45;&gt;Node23</title>
<g id="a_edge22_Node000022_Node000023"><a xlink:title=" ">
<path fill="none" stroke="#63b8ff" d="M1791.63,-88.03C1810.8,-92.76 1834.16,-98.52 1854.52,-103.54"/>
<polygon fill="#63b8ff" stroke="#63b8ff" points="1853.69,-106.94 1864.24,-105.94 1855.37,-100.15 1853.69,-106.94"/>
</a>
</g>
</g>
<!-- Node25 -->
<g id="Node000025" class="node">
<title>Node25</title>
<g id="a_Node000025"><a xlink:href="external_8c.html#ab83bd36e63f0f1baddcb2482b5ad31b0" target="_top" xlink:title=" ">
<polygon fill="white" stroke="#666666" points="1950.5,-88 1857.5,-88 1857.5,-69 1950.5,-69 1950.5,-88"/>
<text text-anchor="middle" x="1904" y="-76" font-family="Helvetica,sans-Serif" font-size="10.00">func_800C41CC</text>
</a>
</g>
</g>
<!-- Node22&#45;&gt;Node25 -->
<g id="edge24_Node000022_Node000025" class="edge">
<title>Node22&#45;&gt;Node25</title>
<g id="a_edge24_Node000022_Node000025"><a xlink:title=" ">
<path fill="none" stroke="#63b8ff" d="M1798,-78.5C1813.37,-78.5 1830.74,-78.5 1846.86,-78.5"/>
<polygon fill="#63b8ff" stroke="#63b8ff" points="1847.25,-82 1857.25,-78.5 1847.25,-75 1847.25,-82"/>
</a>
</g>
</g>
<!-- Node26 -->
<g id="Node000026" class="node">
<title>Node26</title>
<g id="a_Node000026"><a xlink:href="port__eu_8c.html#aa89dfaecca46c6d071f08c1898d1f7c9" target="_top" xlink:title=" ">
<polygon fill="white" stroke="#666666" points="1950.5,-51 1857.5,-51 1857.5,-32 1950.5,-32 1950.5,-51"/>
<text text-anchor="middle" x="1904" y="-39" font-family="Helvetica,sans-Serif" font-size="10.00">func_800CBBE8</text>
</a>
</g>
</g>
<!-- Node22&#45;&gt;Node26 -->
<g id="edge25_Node000022_Node000026" class="edge">
<title>Node22&#45;&gt;Node26</title>
<g id="a_edge25_Node000022_Node000026"><a xlink:title=" ">
<path fill="none" stroke="#63b8ff" d="M1791.63,-68.97C1810.8,-64.24 1834.16,-58.48 1854.52,-53.46"/>
<polygon fill="#63b8ff" stroke="#63b8ff" points="1855.37,-56.85 1864.24,-51.06 1853.69,-50.06 1855.37,-56.85"/>
</a>
</g>
</g>
<!-- Node24 -->
<g id="Node000024" class="node">
<title>Node24</title>
<g id="a_Node000024"><a xlink:href="external_8c.html#a358ac55e8ab5262dcae8037334be06d7" target="_top" xlink:title=" ">
<polygon fill="white" stroke="#666666" points="2102.5,-125 2010.5,-125 2010.5,-106 2102.5,-106 2102.5,-125"/>
<text text-anchor="middle" x="2056.5" y="-113" font-family="Helvetica,sans-Serif" font-size="10.00">func_800C40F0</text>
</a>
</g>
</g>
<!-- Node23&#45;&gt;Node24 -->
<g id="edge23_Node000023_Node000024" class="edge">
<title>Node23&#45;&gt;Node24</title>
<g id="a_edge23_Node000023_Node000024"><a xlink:title=" ">
<path fill="none" stroke="#63b8ff" d="M1974.08,-115.5C1982.87,-115.5 1991.78,-115.5 2000.31,-115.5"/>
<polygon fill="#63b8ff" stroke="#63b8ff" points="2000.5,-119 2010.5,-115.5 2000.5,-112 2000.5,-119"/>
</a>
</g>
</g>
<!-- Node27 -->
<g id="Node000027" class="node">
<title>Node27</title>
<g id="a_Node000027"><a xlink:href="port__eu_8c.html#af361a20d2e08f30c53a237ca481ff734" target="_top" xlink:title=" ">
<polygon fill="white" stroke="#666666" points="2103,-51 2010,-51 2010,-32 2103,-32 2103,-51"/>
<text text-anchor="middle" x="2056.5" y="-39" font-family="Helvetica,sans-Serif" font-size="10.00">func_800CBB48</text>
</a>
</g>
</g>
<!-- Node26&#45;&gt;Node27 -->
<g id="edge26_Node000026_Node000027" class="edge">
<title>Node26&#45;&gt;Node27</title>
<g id="a_edge26_Node000026_Node000027"><a xlink:title=" ">
<path fill="none" stroke="#63b8ff" d="M1950.56,-41.5C1965.96,-41.5 1983.34,-41.5 1999.46,-41.5"/>
<polygon fill="#63b8ff" stroke="#63b8ff" points="1999.83,-45 2009.83,-41.5 1999.83,-38 1999.83,-45"/>
</a>
</g>
</g>
<!-- Node29 -->
<g id="Node000029" class="node">
<title>Node29</title>
<g id="a_Node000029"><a xlink:href="math__util_8c.html#a79fd07a0971ec96a3ff0801963a2fa7f" target="_top" xlink:title=" ">
<polygon fill="white" stroke="#666666" points="1307,-303 1243,-303 1243,-284 1307,-284 1307,-303"/>
<text text-anchor="middle" x="1275" y="-291" font-family="Helvetica,sans-Serif" font-size="10.00">vec3f_set</text>
</a>
</g>
</g>
<!-- Node28&#45;&gt;Node29 -->
<g id="edge28_Node000028_Node000029" class="edge">
<title>Node28&#45;&gt;Node29</title>
<g id="a_edge28_Node000028_Node000029"><a xlink:title=" ">
<path fill="none" stroke="#63b8ff" d="M1143.14,-293.5C1170.88,-293.5 1205.78,-293.5 1232.56,-293.5"/>
<polygon fill="#63b8ff" stroke="#63b8ff" points="1232.76,-297 1242.76,-293.5 1232.76,-290 1232.76,-297"/>
</a>
</g>
</g>
<!-- Node37 -->
<g id="Node000037" class="node">
<title>Node37</title>
<g id="a_Node000037"><a xlink:href="Game_8cpp.html#a545c1a384e93cc7b616dfee707f5d962" target="_top" xlink:title=" ">
<polygon fill="white" stroke="#666666" points="953.5,-142 885.5,-142 885.5,-123 953.5,-123 953.5,-142"/>
<text text-anchor="middle" x="919.5" y="-130" font-family="Helvetica,sans-Serif" font-size="10.00">IsDkJungle</text>
</a>
</g>
</g>
<!-- Node36&#45;&gt;Node37 -->
<g id="edge36_Node000036_Node000037" class="edge">
<title>Node36&#45;&gt;Node37</title>
<g id="a_edge36_Node000036_Node000037"><a xlink:title=" ">
<path fill="none" stroke="#63b8ff" d="M790.5,-155.65C818.08,-150.66 850.17,-144.86 875.32,-140.31"/>
<polygon fill="#63b8ff" stroke="#63b8ff" points="876.07,-143.73 885.29,-138.51 874.83,-136.84 876.07,-143.73"/>
</a>
</g>
</g>
<!-- Node38 -->
<g id="Node000038" class="node">
<title>Node38</title>
<g id="a_Node000038"><a xlink:href="Game_8cpp.html#ad474b8b257813cceeae25ab5205273c4" target="_top" xlink:title=" ">
<polygon fill="white" stroke="#666666" points="968.5,-179 870.5,-179 870.5,-160 968.5,-160 968.5,-179"/>
<text text-anchor="middle" x="919.5" y="-167" font-family="Helvetica,sans-Serif" font-size="10.00">IsKalimariDesert</text>
</a>
</g>
</g>
<!-- Node36&#45;&gt;Node38 -->
<g id="edge37_Node000036_Node000038" class="edge">
<title>Node36&#45;&gt;Node38</title>
<g id="a_edge37_Node000036_Node000038"><a xlink:title=" ">
<path fill="none" stroke="#63b8ff" d="M790.5,-167.46C812.77,-167.81 837.97,-168.21 860.09,-168.57"/>
<polygon fill="#63b8ff" stroke="#63b8ff" points="860.29,-172.07 870.34,-168.73 860.4,-165.07 860.29,-172.07"/>
</a>
</g>
</g>
<!-- Node39&#45;&gt;Node37 -->
<g id="edge44_Node000039_Node000037" class="edge">
<title>Node39&#45;&gt;Node37</title>
<g id="a_edge44_Node000039_Node000037"><a xlink:title=" ">
<path fill="none" stroke="#63b8ff" d="M813.51,-127.47C834.82,-128.49 856.9,-129.55 875.28,-130.43"/>
<polygon fill="#63b8ff" stroke="#63b8ff" points="875.2,-133.93 885.36,-130.91 875.53,-126.94 875.2,-133.93"/>
</a>
</g>
</g>
<!-- Node39&#45;&gt;Node38 -->
<g id="edge45_Node000039_Node000038" class="edge">
<title>Node39&#45;&gt;Node38</title>
<g id="a_edge45_Node000039_Node000038"><a xlink:title=" ">
<path fill="none" stroke="#63b8ff" d="M773.46,-133.02C786.5,-135.98 800.85,-139.31 814,-142.5 833.36,-147.2 854.66,-152.66 872.95,-157.42"/>
<polygon fill="#63b8ff" stroke="#63b8ff" points="872.21,-160.85 882.77,-159.99 873.99,-154.08 872.21,-160.85"/>
</a>
</g>
</g>
<!-- Node40 -->
<g id="Node000040" class="node">
<title>Node40</title>
<g id="a_Node000040"><a xlink:href="code__80005FD0_8c.html#ade9dca16c41c3d924b84f32a203ba823" target="_top" xlink:title=" ">
<polygon fill="white" stroke="#666666" points="979.5,-104.5 859.5,-104.5 859.5,-74.5 979.5,-74.5 979.5,-104.5"/>
<text text-anchor="start" x="867.5" y="-92.5" font-family="Helvetica,sans-Serif" font-size="10.00">find_closest_vehicles</text>
<text text-anchor="middle" x="919.5" y="-81.5" font-family="Helvetica,sans-Serif" font-size="10.00">_path_point</text>
</a>
</g>
</g>
<!-- Node39&#45;&gt;Node40 -->
<g id="edge39_Node000039_Node000040" class="edge">
<title>Node39&#45;&gt;Node40</title>
<g id="a_edge39_Node000039_Node000040"><a xlink:title=" ">
<path fill="none" stroke="#63b8ff" d="M783.12,-113.98C803.65,-110.27 827.48,-105.96 849.37,-102"/>
<polygon fill="#63b8ff" stroke="#63b8ff" points="850.06,-105.44 859.27,-100.21 848.81,-98.55 850.06,-105.44"/>
</a>
</g>
</g>
<!-- Node41 -->
<g id="Node000041" class="node">
<title>Node41</title>
<g id="a_Node000041"><a xlink:href="code__80005FD0_8c.html#a79cd9c001e0a06c9cab23fe2cf070abf" target="_top" xlink:title=" ">
<polygon fill="white" stroke="#666666" points="989,-56 850,-56 850,-37 989,-37 989,-56"/>
<text text-anchor="middle" x="919.5" y="-44" font-family="Helvetica,sans-Serif" font-size="10.00">get_angle_between_path</text>
</a>
</g>
</g>
<!-- Node39&#45;&gt;Node41 -->
<g id="edge40_Node000039_Node000041" class="edge">
<title>Node39&#45;&gt;Node41</title>
<g id="a_edge40_Node000039_Node000041"><a xlink:title=" ">
<path fill="none" stroke="#63b8ff" d="M794.97,-113.94C801.62,-111.69 808.1,-108.92 814,-105.5 834.69,-93.51 829.66,-78.09 850,-65.5 853.54,-63.31 857.34,-61.36 861.27,-59.64"/>
<polygon fill="#63b8ff" stroke="#63b8ff" points="862.55,-62.9 870.6,-56 860.01,-56.37 862.55,-62.9"/>
</a>
</g>
</g>
<!-- Node45 -->
<g id="Node000045" class="node">
<title>Node45</title>
<g id="a_Node000045"><a xlink:href="math_8h.html#a37bde043e94a6f074c78f10518fb5d99" target="_top" xlink:title=" ">
<polygon fill="white" stroke="#666666" points="939,-19 900,-19 900,0 939,0 939,-19"/>
<text text-anchor="middle" x="919.5" y="-7" font-family="Helvetica,sans-Serif" font-size="10.00">sqrtf</text>
</a>
</g>
</g>
<!-- Node39&#45;&gt;Node45 -->
<g id="edge46_Node000039_Node000045" class="edge">
<title>Node39&#45;&gt;Node45</title>
<g id="a_edge46_Node000039_Node000045"><a xlink:title=" ">
<path fill="none" stroke="#63b8ff" d="M800.26,-113.84C805.17,-111.57 809.83,-108.83 814,-105.5 843.54,-81.96 821.16,-52.9 850,-28.5 861.08,-19.13 876.43,-14.36 889.79,-11.94"/>
<polygon fill="#63b8ff" stroke="#63b8ff" points="890.57,-15.36 899.96,-10.46 889.56,-8.44 890.57,-15.36"/>
</a>
</g>
</g>
<!-- Node42 -->
<g id="Node000042" class="node">
<title>Node42</title>
<g id="a_Node000042"><a xlink:href="math__util_8c.html#a84cf9d4ec33146a64c230ed4cec56632" target="_top" xlink:title=" ">
<polygon fill="white" stroke="#666666" points="1163,-55.5 1028,-55.5 1028,-25.5 1163,-25.5 1163,-55.5"/>
<text text-anchor="start" x="1036" y="-43.5" font-family="Helvetica,sans-Serif" font-size="10.00">get_angle_between_two</text>
<text text-anchor="middle" x="1095.5" y="-32.5" font-family="Helvetica,sans-Serif" font-size="10.00">_vectors</text>
</a>
</g>
</g>
<!-- Node41&#45;&gt;Node42 -->
<g id="edge41_Node000041_Node000042" class="edge">
<title>Node41&#45;&gt;Node42</title>
<g id="a_edge41_Node000041_Node000042"><a xlink:title=" ">
<path fill="none" stroke="#63b8ff" d="M989.27,-44.13C998.62,-43.81 1008.26,-43.47 1017.74,-43.15"/>
<polygon fill="#63b8ff" stroke="#63b8ff" points="1018.06,-46.64 1027.93,-42.8 1017.82,-39.64 1018.06,-46.64"/>
</a>
</g>
</g>
<!-- Node43 -->
<g id="Node000043" class="node">
<title>Node43</title>
<g id="a_Node000043"><a xlink:href="math__util_8c.html#aaa39a297477f56051975259f4bddd829" target="_top" xlink:title=" ">
<polygon fill="white" stroke="#666666" points="1300,-32 1250,-32 1250,-13 1300,-13 1300,-32"/>
<text text-anchor="middle" x="1275" y="-20" font-family="Helvetica,sans-Serif" font-size="10.00">atan2s</text>
</a>
</g>
</g>
<!-- Node42&#45;&gt;Node43 -->
<g id="edge42_Node000042_Node000043" class="edge">
<title>Node42&#45;&gt;Node43</title>
<g id="a_edge42_Node000042_Node000043"><a xlink:title=" ">
<path fill="none" stroke="#63b8ff" d="M1163.1,-33.75C1189.14,-31.11 1217.89,-28.19 1239.6,-25.99"/>
<polygon fill="#63b8ff" stroke="#63b8ff" points="1240.05,-29.46 1249.64,-24.97 1239.34,-22.5 1240.05,-29.46"/>
</a>
</g>
</g>
<!-- Node44 -->
<g id="Node000044" class="node">
<title>Node44</title>
<g id="a_Node000044"><a xlink:href="math__util_8c.html#a0273b0ea0783a06996c28669a7438ed9" target="_top" xlink:title=" ">
<polygon fill="white" stroke="#666666" points="1504,-32 1422,-32 1422,-13 1504,-13 1504,-32"/>
<text text-anchor="middle" x="1463" y="-20" font-family="Helvetica,sans-Serif" font-size="10.00">atan2_lookup</text>
</a>
</g>
</g>
<!-- Node43&#45;&gt;Node44 -->
<g id="edge43_Node000043_Node000044" class="edge">
<title>Node43&#45;&gt;Node44</title>
<g id="a_edge43_Node000043_Node000044"><a xlink:title=" ">
<path fill="none" stroke="#63b8ff" d="M1300.32,-22.5C1328.37,-22.5 1375.26,-22.5 1411.34,-22.5"/>
<polygon fill="#63b8ff" stroke="#63b8ff" points="1411.68,-26 1421.68,-22.5 1411.68,-19 1411.68,-26"/>
</a>
</g>
</g>
</g>
</svg>

<g id="navigator" transform="translate(0 0)" fill="#404254">
  <rect fill="#f2f5e9" fill-opacity="0.5" stroke="#606060" stroke-width=".5" x="0" y="0" width="60" height="60"/>
  <use id="zoomplus" xlink:href="#zoomPlus" x="17" y="9" onmousedown="handleZoom(evt,'in')"/>
  <use id="zoomminus" xlink:href="#zoomMin" x="42" y="9" onmousedown="handleZoom(evt,'out')"/>
  <use id="reset" xlink:href="#resetDef" x="30" y="36" onmousedown="handleReset()"/>
   <use id="arrowup" xlink:href="#arrowUp" x="0" y="0" onmousedown="handlePan(0,-1)"/>
  <use id="arrowright" xlink:href="#arrowRight" x="0" y="0" onmousedown="handlePan(1,0)"/>
  <use id="arrowdown" xlink:href="#arrowDown" x="0" y="0" onmousedown="handlePan(0,1)"/>
  <use id="arrowleft" xlink:href="#arrowLeft" x="0" y="0" onmousedown="handlePan(-1,0)"/>
</g>
<svg viewBox="0 0 15 15" width="100%" height="30px" preserveAspectRatio="xMaxYMin meet">
 <g id="arrow_out" transform="scale(0.3 0.3)">
  <a xlink:href="classEditor_1_1ContentBrowserWindow_a4c6f618d8a04fc19805b4642b40c57ce_cgraph_org.svg" target="_base">
   <rect id="button" ry="5" rx="5" y="6" x="6" height="38" width="38"
        fill="#f2f5e9" fill-opacity="0.5" stroke="#606060" stroke-width="1.0"/>
   <path id="arrow"
     d="M 11.500037,31.436501 C 11.940474,20.09759 22.043105,11.32322 32.158766,21.979434 L 37.068811,17.246167 C 37.068811,17.246167 37.088388,32 37.088388,32 L 22.160133,31.978069 C 22.160133,31.978069 26.997745,27.140456 26.997745,27.140456 C 18.528582,18.264221 13.291696,25.230495 11.500037,31.436501 z"
     style="fill:#404040;"/>
  </a>
 </g>
</svg>

<style type='text/css'>
<![CDATA[
[data-mouse-over-selected='false'] { opacity: 0.7; }
[data-mouse-over-selected='true']  { opacity: 1.0; }
]]>
</style>
<script type="application/ecmascript"><![CDATA[
document.addEventListener('DOMContentLoaded', (event) => {
  highlightEdges();
  highlightAdjacentNodes();
});
]]></script>
</svg>
