<?xml version="1.0" encoding="UTF-8" standalone="no"?>
<!DOCTYPE svg PUBLIC "-//W3C//DTD SVG 1.1//EN"
 "http://www.w3.org/Graphics/SVG/1.1/DTD/svg11.dtd">
<!-- Generated by graphviz version 2.43.0 (0)
 -->
<!-- Title: OTrashBin::Spawn Pages: 1 -->
<svg width="596pt" height="138pt"
 viewBox="0.00 0.00 596.00 138.00" xmlns="http://www.w3.org/2000/svg" xmlns:xlink="http://www.w3.org/1999/xlink">
<g id="graph0" class="graph" transform="scale(1 1) rotate(0) translate(4 134)">
<title>OTrashBin::Spawn</title>
<!-- Node1 -->
<g id="Node000001" class="node">
<title>Node1</title>
<g id="a_Node000001"><a xlink:title=" ">
<polygon fill="#999999" stroke="#666666" points="104,-74 0,-74 0,-55 104,-55 104,-74"/>
<text text-anchor="middle" x="52" y="-62" font-family="Helvetica,sans-Serif" font-size="10.00">OTrashBin::Spawn</text>
</a>
</g>
</g>
<!-- Node2 -->
<g id="Node000002" class="node">
<title>Node2</title>
<g id="a_Node000002"><a xlink:href="classOTrashBin.html#a256f9cbed9757b7e12331eab6b70d6cf" target="_top" xlink:title=" ">
<polygon fill="white" stroke="#666666" points="260,-74 140,-74 140,-55 260,-55 260,-74"/>
<text text-anchor="middle" x="200" y="-62" font-family="Helvetica,sans-Serif" font-size="10.00">OTrashBin::OTrashBin</text>
</a>
</g>
</g>
<!-- Node1&#45;&gt;Node2 -->
<g id="edge1_Node000001_Node000002" class="edge">
<title>Node1&#45;&gt;Node2</title>
<g id="a_edge1_Node000001_Node000002"><a xlink:title=" ">
<path fill="none" stroke="#63b8ff" d="M104.06,-64.5C112.4,-64.5 121.15,-64.5 129.83,-64.5"/>
<polygon fill="#63b8ff" stroke="#63b8ff" points="129.96,-68 139.96,-64.5 129.96,-61 129.96,-68"/>
</a>
</g>
</g>
<!-- Node3 -->
<g id="Node000003" class="node">
<title>Node3</title>
<g id="a_Node000003"><a xlink:href="update__objects_8c.html#a92856990c4ca5fba1b8e0c61ca832c27" target="_top" xlink:title=" ">
<polygon fill="white" stroke="#666666" points="424,-130 296,-130 296,-111 424,-111 424,-130"/>
<text text-anchor="middle" x="360" y="-118" font-family="Helvetica,sans-Serif" font-size="10.00">find_unused_obj_index</text>
</a>
</g>
</g>
<!-- Node2&#45;&gt;Node3 -->
<g id="edge2_Node000002_Node000003" class="edge">
<title>Node2&#45;&gt;Node3</title>
<g id="a_edge2_Node000002_Node000003"><a xlink:title=" ">
<path fill="none" stroke="#63b8ff" d="M223.03,-74.06C242.13,-82.16 270.62,-93.82 296,-102.5 301.59,-104.41 307.49,-106.28 313.37,-108.06"/>
<polygon fill="#63b8ff" stroke="#63b8ff" points="312.57,-111.47 323.15,-110.94 314.55,-104.76 312.57,-111.47"/>
</a>
</g>
</g>
<!-- Node4 -->
<g id="Node000004" class="node">
<title>Node4</title>
<g id="a_Node000004"><a xlink:href="update__objects_8c.html#abdebd086b5ff081f83af3d9205f39cd3" target="_top" xlink:title=" ">
<polygon fill="white" stroke="#666666" points="394,-93 326,-93 326,-74 394,-74 394,-93"/>
<text text-anchor="middle" x="360" y="-81" font-family="Helvetica,sans-Serif" font-size="10.00">init_object</text>
</a>
</g>
</g>
<!-- Node2&#45;&gt;Node4 -->
<g id="edge3_Node000002_Node000004" class="edge">
<title>Node2&#45;&gt;Node4</title>
<g id="a_edge3_Node000002_Node000004"><a xlink:title=" ">
<path fill="none" stroke="#63b8ff" d="M260.28,-71.63C278.56,-73.83 298.33,-76.2 315.35,-78.25"/>
<polygon fill="#63b8ff" stroke="#63b8ff" points="315.21,-81.76 325.56,-79.48 316.05,-74.81 315.21,-81.76"/>
</a>
</g>
</g>
<!-- Node6 -->
<g id="Node000006" class="node">
<title>Node6</title>
<g id="a_Node000006"><a xlink:href="Game_8cpp.html#a3d68a6ff4410ee26c335fc679d815d5d" target="_top" xlink:title=" ">
<polygon fill="white" stroke="#666666" points="419.5,-56 300.5,-56 300.5,-37 419.5,-37 419.5,-56"/>
<text text-anchor="middle" x="360" y="-44" font-family="Helvetica,sans-Serif" font-size="10.00">IsBansheeBoardwalk</text>
</a>
</g>
</g>
<!-- Node2&#45;&gt;Node6 -->
<g id="edge5_Node000002_Node000006" class="edge">
<title>Node2&#45;&gt;Node6</title>
<g id="a_edge5_Node000002_Node000006"><a xlink:title=" ">
<path fill="none" stroke="#63b8ff" d="M260.28,-57.75C270.13,-56.62 280.42,-55.45 290.48,-54.31"/>
<polygon fill="#63b8ff" stroke="#63b8ff" points="290.9,-57.78 300.43,-53.17 290.1,-50.83 290.9,-57.78"/>
</a>
</g>
</g>
<!-- Node7 -->
<g id="Node000007" class="node">
<title>Node7</title>
<g id="a_Node000007"><a xlink:href="classOObject.html#a629d0dcbb210e289cdf541a91321c86b" target="_top" xlink:title=" ">
<polygon fill="white" stroke="#666666" points="410.5,-19 309.5,-19 309.5,0 410.5,0 410.5,-19"/>
<text text-anchor="middle" x="360" y="-7" font-family="Helvetica,sans-Serif" font-size="10.00">OObject::OObject</text>
</a>
</g>
</g>
<!-- Node2&#45;&gt;Node7 -->
<g id="edge6_Node000002_Node000007" class="edge">
<title>Node2&#45;&gt;Node7</title>
<g id="a_edge6_Node000002_Node000007"><a xlink:title=" ">
<path fill="none" stroke="#63b8ff" d="M225.04,-54.86C244.15,-47.33 271.62,-36.79 296,-28.5 302.47,-26.3 309.35,-24.09 316.1,-22"/>
<polygon fill="#63b8ff" stroke="#63b8ff" points="317.3,-25.3 325.84,-19.03 315.25,-18.6 317.3,-25.3"/>
</a>
</g>
</g>
<!-- Node5 -->
<g id="Node000005" class="node">
<title>Node5</title>
<g id="a_Node000005"><a xlink:href="update__objects_8c.html#af20e3f3c403dd4fbea56e358997e515a" target="_top" xlink:title=" ">
<polygon fill="white" stroke="#666666" points="588,-93 460,-93 460,-74 588,-74 588,-93"/>
<text text-anchor="middle" x="524" y="-81" font-family="Helvetica,sans-Serif" font-size="10.00">set_object_timer_state</text>
</a>
</g>
</g>
<!-- Node4&#45;&gt;Node5 -->
<g id="edge4_Node000004_Node000005" class="edge">
<title>Node4&#45;&gt;Node5</title>
<g id="a_edge4_Node000004_Node000005"><a xlink:title=" ">
<path fill="none" stroke="#63b8ff" d="M394.17,-83.5C410.25,-83.5 430.25,-83.5 449.66,-83.5"/>
<polygon fill="#63b8ff" stroke="#63b8ff" points="449.73,-87 459.73,-83.5 449.73,-80 449.73,-87"/>
</a>
</g>
</g>
</g>
</svg>
