<?xml version="1.0" encoding="UTF-8" standalone="no"?>
<!DOCTYPE svg PUBLIC "-//W3C//DTD SVG 1.1//EN"
 "http://www.w3.org/Graphics/SVG/1.1/DTD/svg11.dtd">
<!-- Generated by graphviz version 2.43.0 (0)
 -->
<!-- Title: ATruck::ATruck Pages: 1 -->
<!--zoomable 415 -->

<svg id="main" version="1.1" xmlns="http://www.w3.org/2000/svg" xmlns:xlink="http://www.w3.org/1999/xlink" xml:space="preserve" onload="init(evt)">

<style type="text/css"><![CDATA[
.node, .edge {opacity: 0.7;}
.node.selected, .edge.selected {opacity: 1;}
.edge:hover path { stroke: red; }
.edge:hover polygon { stroke: red; fill: red; }
]]></style>

<defs>
  <circle id="rim" cx="0" cy="0" r="7"/>
  <circle id="rim2" cx="0" cy="0" r="3.5"/>
  <g id="zoomPlus">
    <use xlink:href="#rim" fill="#404040"><set attributeName="fill" to="#808080" begin="zoomplus.mouseover" end="zoomplus.mouseout"/></use>
    <path d="M-4,0h8M0,-4v8" fill="none" stroke="white" stroke-width="1.5" pointer-events="none"/>
  </g>
  <g id="zoomMin">
    <use xlink:href="#rim" fill="#404040"><set attributeName="fill" to="#808080" begin="zoomminus.mouseover" end="zoomminus.mouseout"/></use>
    <path d="M-4,0h8" fill="none" stroke="white" stroke-width="1.5" pointer-events="none"/>
  </g>
  <g id="arrowUp" transform="translate(30 24)">
    <use xlink:href="#rim"/>
    <path pointer-events="none" fill="none" stroke="white" stroke-width="1.5" d="M0,-3.0v7 M-2.5,-0.5L0,-3.0L2.5,-0.5"/>
  </g>
  <g id="arrowRight" transform="rotate(90) translate(36 -43)">
    <use xlink:href="#rim"/>
    <path pointer-events="none" fill="none" stroke="white" stroke-width="1.5" d="M0,-3.0v7 M-2.5,-0.5L0,-3.0L2.5,-0.5"/>
  </g>
  <g id="arrowDown" transform="rotate(180) translate(-30 -48)">
    <use xlink:href="#rim"/>
    <path pointer-events="none" fill="none" stroke="white" stroke-width="1.5" d="M0,-3.0v7 M-2.5,-0.5L0,-3.0L2.5,-0.5"/>
  </g>
  <g id="arrowLeft" transform="rotate(270) translate(-36 17)">
    <use xlink:href="#rim"/>
    <path pointer-events="none" fill="none" stroke="white" stroke-width="1.5" d="M0,-3.0v7 M-2.5,-0.5L0,-3.0L2.5,-0.5"/>
  </g>
  <g id="resetDef">
    <use xlink:href="#rim2" fill="#404040"><set attributeName="fill" to="#808080" begin="reset.mouseover" end="reset.mouseout"/></use>
  </g>
</defs>
<script type="application/ecmascript">
var viewWidth = 1579;
var viewHeight = 415;
var sectionId = 'dynsection-2';
</script>
<script type="application/ecmascript" xlink:href="svg.min.js"/>
<svg id="graph" class="graph">
<g id="viewport">
<title>ATruck::ATruck</title>
<!-- Node1 -->
<g id="Node000001" class="node">
<title>Node1</title>
<g id="a_Node000001"><a xlink:title=" ">
<polygon fill="#999999" stroke="#666666" points="86,-132 0,-132 0,-113 86,-113 86,-132"/>
<text text-anchor="middle" x="43" y="-120" font-family="Helvetica,sans-Serif" font-size="10.00">ATruck::ATruck</text>
</a>
</g>
</g>
<!-- Node2 -->
<g id="Node000002" class="node">
<title>Node2</title>
<g id="a_Node000002"><a xlink:href="classAActor.html#a679c43bacf3600fa2d7a6ab30e34a8a6" target="_top" xlink:title=" ">
<polygon fill="white" stroke="#666666" points="250,-276 163,-276 163,-257 250,-257 250,-276"/>
<text text-anchor="middle" x="206.5" y="-264" font-family="Helvetica,sans-Serif" font-size="10.00">AActor::AActor</text>
</a>
</g>
</g>
<!-- Node1&#45;&gt;Node2 -->
<g id="edge1_Node000001_Node000002" class="edge">
<title>Node1&#45;&gt;Node2</title>
<g id="a_edge1_Node000001_Node000002"><a xlink:title=" ">
<path fill="none" stroke="#63b8ff" d="M47.04,-132.24C55.05,-156.2 79.11,-218.24 122,-248.5 131.09,-254.91 142.03,-259.11 152.94,-261.85"/>
<polygon fill="#63b8ff" stroke="#63b8ff" points="152.4,-265.31 162.91,-263.97 153.86,-258.46 152.4,-265.31"/>
</a>
</g>
</g>
<!-- Node3 -->
<g id="Node000003" class="node">
<title>Node3</title>
<g id="a_Node000003"><a xlink:href="actors_8c.html#a91fb2e4e37e7c72fea918fe2c1bb4eaf" target="_top" xlink:title=" ">
<polygon fill="white" stroke="#666666" points="276.5,-239 136.5,-239 136.5,-220 276.5,-220 276.5,-239"/>
<text text-anchor="middle" x="206.5" y="-227" font-family="Helvetica,sans-Serif" font-size="10.00">add_actor_to_empty_slot</text>
</a>
</g>
</g>
<!-- Node1&#45;&gt;Node3 -->
<g id="edge2_Node000001_Node000003" class="edge">
<title>Node1&#45;&gt;Node3</title>
<g id="a_edge2_Node000001_Node000003"><a xlink:title=" ">
<path fill="none" stroke="#63b8ff" d="M58.36,-132.11C74,-142.56 99.75,-159.76 122,-174.5 142.39,-188.01 165.63,-203.31 182.41,-214.34"/>
<polygon fill="#63b8ff" stroke="#63b8ff" points="180.72,-217.42 191,-219.99 184.57,-211.57 180.72,-217.42"/>
</a>
</g>
</g>
<!-- Node29 -->
<g id="Node000029" class="node">
<title>Node29</title>
<g id="a_Node000029"><a xlink:href="code__80005FD0_8c.html#a45fa364fbae557a3d2025ebdc0846cd2" target="_top" xlink:title=" ">
<polygon fill="white" stroke="#666666" points="430,-67 336,-67 336,-48 430,-48 430,-67"/>
<text text-anchor="middle" x="383" y="-55" font-family="Helvetica,sans-Serif" font-size="10.00">func_8000D6D0</text>
</a>
</g>
</g>
<!-- Node1&#45;&gt;Node29 -->
<g id="edge28_Node000001_Node000029" class="edge">
<title>Node1&#45;&gt;Node29</title>
<g id="a_edge28_Node000001_Node000029"><a xlink:title=" ">
<path fill="none" stroke="#63b8ff" d="M53.49,-112.74C67.18,-99.41 93.91,-76.08 122,-66.5 189.27,-43.56 272.08,-45.42 325.9,-50.26"/>
<polygon fill="#63b8ff" stroke="#63b8ff" points="325.65,-53.75 335.94,-51.23 326.32,-46.79 325.65,-53.75"/>
</a>
</g>
</g>
<!-- Node43 -->
<g id="Node000043" class="node">
<title>Node43</title>
<g id="a_Node000043"><a xlink:href="code__80005FD0_8c.html#a124bae511133f507498b19842362feeb" target="_top" xlink:title=" ">
<polygon fill="white" stroke="#666666" points="429,-122 337,-122 337,-103 429,-103 429,-122"/>
<text text-anchor="middle" x="383" y="-110" font-family="Helvetica,sans-Serif" font-size="10.00">func_8000D940</text>
</a>
</g>
</g>
<!-- Node1&#45;&gt;Node43 -->
<g id="edge43_Node000001_Node000043" class="edge">
<title>Node1&#45;&gt;Node43</title>
<g id="a_edge43_Node000001_Node000043"><a xlink:title=" ">
<path fill="none" stroke="#63b8ff" d="M77.88,-132.08C91.47,-135.46 107.36,-138.83 122,-140.5 196.63,-149 216.72,-151.67 291,-140.5 310.4,-137.58 331.38,-131.35 348.29,-125.5"/>
<polygon fill="#63b8ff" stroke="#63b8ff" points="349.5,-128.79 357.74,-122.14 347.15,-122.2 349.5,-128.79"/>
</a>
</g>
</g>
<!-- Node44 -->
<g id="Node000044" class="node">
<title>Node44</title>
<g id="a_Node000044"><a xlink:href="Utils_8cpp.html#aeaf9fffe1458c3ce2a95a80906db76c3" target="_top" xlink:title=" ">
<polygon fill="white" stroke="#666666" points="291,-95 122,-95 122,-76 291,-76 291,-95"/>
<text text-anchor="middle" x="206.5" y="-83" font-family="Helvetica,sans-Serif" font-size="10.00">GetVehiclePathPointDistributed</text>
</a>
</g>
</g>
<!-- Node1&#45;&gt;Node44 -->
<g id="edge48_Node000001_Node000044" class="edge">
<title>Node1&#45;&gt;Node44</title>
<g id="a_edge48_Node000001_Node000044"><a xlink:title=" ">
<path fill="none" stroke="#63b8ff" d="M82.44,-112.92C95.03,-109.84 109.09,-106.46 122,-103.5 131.02,-101.43 140.61,-99.3 149.95,-97.26"/>
<polygon fill="#63b8ff" stroke="#63b8ff" points="150.92,-100.63 159.95,-95.09 149.43,-93.79 150.92,-100.63"/>
</a>
</g>
</g>
<!-- Node45 -->
<g id="Node000045" class="node">
<title>Node45</title>
<g id="a_Node000045"><a xlink:href="math__util_8c.html#a151b63b8adf9af7e4054b3b84bd226dc" target="_top" xlink:title=" ">
<polygon fill="white" stroke="#666666" points="242.5,-19 170.5,-19 170.5,0 242.5,0 242.5,-19"/>
<text text-anchor="middle" x="206.5" y="-7" font-family="Helvetica,sans-Serif" font-size="10.00">random_int</text>
</a>
</g>
</g>
<!-- Node1&#45;&gt;Node45 -->
<g id="edge49_Node000001_Node000045" class="edge">
<title>Node1&#45;&gt;Node45</title>
<g id="a_edge49_Node000001_Node000045"><a xlink:title=" ">
<path fill="none" stroke="#63b8ff" d="M49.76,-112.84C61.19,-94.54 88.52,-54.75 122,-33.5 133.57,-26.16 147.44,-21 160.53,-17.41"/>
<polygon fill="#63b8ff" stroke="#63b8ff" points="161.48,-20.78 170.33,-14.96 159.78,-13.99 161.48,-20.78"/>
</a>
</g>
</g>
<!-- Node47 -->
<g id="Node000047" class="node">
<title>Node47</title>
<g id="a_Node000047"><a xlink:href="code__80005FD0_8c.html#ac8070bcd41974c70ea8b6d4218b1ebef" target="_top" xlink:title=" ">
<polygon fill="white" stroke="#666666" points="273,-132 140,-132 140,-113 273,-113 273,-132"/>
<text text-anchor="middle" x="206.5" y="-120" font-family="Helvetica,sans-Serif" font-size="10.00">spawn_vehicle_on_road</text>
</a>
</g>
</g>
<!-- Node1&#45;&gt;Node47 -->
<g id="edge51_Node000001_Node000047" class="edge">
<title>Node1&#45;&gt;Node47</title>
<g id="a_edge51_Node000001_Node000047"><a xlink:title=" ">
<path fill="none" stroke="#63b8ff" d="M86.01,-122.5C99.38,-122.5 114.6,-122.5 129.59,-122.5"/>
<polygon fill="#63b8ff" stroke="#63b8ff" points="129.91,-126 139.91,-122.5 129.91,-119 129.91,-126"/>
</a>
</g>
</g>
<!-- Node4 -->
<g id="Node000004" class="node">
<title>Node4</title>
<g id="a_Node000004"><a xlink:href="actors_8c.html#a39c023177b5a7686cdd1fc65b8b953e1" target="_top" xlink:title=" ">
<polygon fill="white" stroke="#666666" points="414,-220 352,-220 352,-201 414,-201 414,-220"/>
<text text-anchor="middle" x="383" y="-208" font-family="Helvetica,sans-Serif" font-size="10.00">actor_init</text>
</a>
</g>
</g>
<!-- Node3&#45;&gt;Node4 -->
<g id="edge3_Node000003_Node000004" class="edge">
<title>Node3&#45;&gt;Node4</title>
<g id="a_edge3_Node000003_Node000004"><a xlink:title=" ">
<path fill="none" stroke="#63b8ff" d="M276.72,-221.96C298.82,-219.56 322.53,-216.97 341.85,-214.87"/>
<polygon fill="#63b8ff" stroke="#63b8ff" points="342.24,-218.35 351.8,-213.79 341.48,-211.39 342.24,-218.35"/>
</a>
</g>
</g>
<!-- Node26 -->
<g id="Node000026" class="node">
<title>Node26</title>
<g id="a_Node000026"><a xlink:href="Game_8cpp.html#acea5cfd9ab22f745bd6627869b95a62e" target="_top" xlink:title=" ">
<polygon fill="white" stroke="#666666" points="439,-331 327,-331 327,-312 439,-312 439,-331"/>
<text text-anchor="middle" x="383" y="-319" font-family="Helvetica,sans-Serif" font-size="10.00">CM_ActorBeginPlay</text>
</a>
</g>
</g>
<!-- Node3&#45;&gt;Node26 -->
<g id="edge25_Node000003_Node000026" class="edge">
<title>Node3&#45;&gt;Node26</title>
<g id="a_edge25_Node000003_Node000026"><a xlink:title=" ">
<path fill="none" stroke="#63b8ff" d="M272.97,-239.16C279.36,-241.62 285.51,-244.68 291,-248.5 314.99,-265.18 303.81,-285.73 327,-303.5 328.81,-304.89 330.74,-306.18 332.74,-307.36"/>
<polygon fill="#63b8ff" stroke="#63b8ff" points="331.41,-310.61 341.92,-311.97 334.56,-304.36 331.41,-310.61"/>
</a>
</g>
</g>
<!-- Node27 -->
<g id="Node000027" class="node">
<title>Node27</title>
<g id="a_Node000027"><a xlink:href="Game_8cpp.html#a42f23077aaa52cb3ea5c7803b7dd6816" target="_top" xlink:title=" ">
<polygon fill="white" stroke="#666666" points="436,-294 330,-294 330,-275 436,-275 436,-294"/>
<text text-anchor="middle" x="383" y="-282" font-family="Helvetica,sans-Serif" font-size="10.00">CM_AddBaseActor</text>
</a>
</g>
</g>
<!-- Node3&#45;&gt;Node27 -->
<g id="edge26_Node000003_Node000027" class="edge">
<title>Node3&#45;&gt;Node27</title>
<g id="a_edge26_Node000003_Node000027"><a xlink:title=" ">
<path fill="none" stroke="#63b8ff" d="M258.4,-239.03C269.29,-241.64 280.64,-244.79 291,-248.5 307.84,-254.53 310.45,-259.7 327,-266.5 331.24,-268.24 335.72,-269.94 340.22,-271.55"/>
<polygon fill="#63b8ff" stroke="#63b8ff" points="339.41,-274.97 350.01,-274.91 341.69,-268.35 339.41,-274.97"/>
</a>
</g>
</g>
<!-- Node28 -->
<g id="Node000028" class="node">
<title>Node28</title>
<g id="a_Node000028"><a xlink:href="Game_8cpp.html#a0841ffe9a66e95aca42438b9d8ffc3d3" target="_top" xlink:title=" ">
<polygon fill="white" stroke="#666666" points="433.5,-257 332.5,-257 332.5,-238 433.5,-238 433.5,-257"/>
<text text-anchor="middle" x="383" y="-245" font-family="Helvetica,sans-Serif" font-size="10.00">CM_GetActorSize</text>
</a>
</g>
</g>
<!-- Node3&#45;&gt;Node28 -->
<g id="edge27_Node000003_Node000028" class="edge">
<title>Node3&#45;&gt;Node28</title>
<g id="a_edge27_Node000003_Node000028"><a xlink:title=" ">
<path fill="none" stroke="#63b8ff" d="M276.72,-236.64C291.79,-238.2 307.62,-239.83 322.29,-241.34"/>
<polygon fill="#63b8ff" stroke="#63b8ff" points="321.93,-244.82 332.24,-242.37 322.65,-237.86 321.93,-244.82"/>
</a>
</g>
</g>
<!-- Node5 -->
<g id="Node000005" class="node">
<title>Node5</title>
<g id="a_Node000005"><a xlink:href="collision_8c.html#a37aa55b3768d001533ad75e7f1b8388a" target="_top" xlink:title=" ">
<polygon fill="white" stroke="#666666" points="981.5,-174 840.5,-174 840.5,-155 981.5,-155 981.5,-174"/>
<text text-anchor="middle" x="911" y="-162" font-family="Helvetica,sans-Serif" font-size="10.00">check_bounding_collision</text>
</a>
</g>
</g>
<!-- Node4&#45;&gt;Node5 -->
<g id="edge4_Node000004_Node000005" class="edge">
<title>Node4&#45;&gt;Node5</title>
<g id="a_edge4_Node000004_Node000005"><a xlink:title=" ">
<path fill="none" stroke="#63b8ff" d="M414.14,-203.07C431.78,-199.01 454.53,-194.26 475,-191.5 598.35,-174.88 742.77,-168.47 830.27,-166.01"/>
<polygon fill="#63b8ff" stroke="#63b8ff" points="830.49,-169.51 840.39,-165.74 830.3,-162.51 830.49,-169.51"/>
</a>
</g>
</g>
<!-- Node9 -->
<g id="Node000009" class="node">
<title>Node9</title>
<g id="a_Node000009"><a xlink:href="actors_8c.html#a1a9bccb586242555a9123ebd4ab70f2a" target="_top" xlink:title=" ">
<polygon fill="white" stroke="#666666" points="610.5,-360.5 478.5,-360.5 478.5,-330.5 610.5,-330.5 610.5,-360.5"/>
<text text-anchor="start" x="486.5" y="-348.5" font-family="Helvetica,sans-Serif" font-size="10.00">cleanup_red_and_green</text>
<text text-anchor="middle" x="544.5" y="-337.5" font-family="Helvetica,sans-Serif" font-size="10.00">_shells</text>
</a>
</g>
</g>
<!-- Node4&#45;&gt;Node9 -->
<g id="edge8_Node000004_Node000009" class="edge">
<title>Node4&#45;&gt;Node9</title>
<g id="a_edge8_Node000004_Node000009"><a xlink:title=" ">
<path fill="none" stroke="#63b8ff" d="M414.24,-215.69C422.99,-218.37 432.05,-222.41 439,-228.5 466.8,-252.87 450.23,-276.05 475,-303.5 482.58,-311.9 492.24,-319.2 501.9,-325.25"/>
<polygon fill="#63b8ff" stroke="#63b8ff" points="500.32,-328.38 510.71,-330.45 503.88,-322.35 500.32,-328.38"/>
</a>
</g>
</g>
<!-- Node22 -->
<g id="Node000022" class="node">
<title>Node22</title>
<g id="a_Node000022"><a xlink:href="collision_8c.html#ad72fef3ffe32191d73b1822f512ebf3f" target="_top" xlink:title=" ">
<polygon fill="white" stroke="#666666" points="592,-294 497,-294 497,-275 592,-275 592,-294"/>
<text text-anchor="middle" x="544.5" y="-282" font-family="Helvetica,sans-Serif" font-size="10.00">func_802AAAAC</text>
</a>
</g>
</g>
<!-- Node4&#45;&gt;Node22 -->
<g id="edge21_Node000004_Node000022" class="edge">
<title>Node4&#45;&gt;Node22</title>
<g id="a_edge21_Node000004_Node000022"><a xlink:title=" ">
<path fill="none" stroke="#63b8ff" d="M414.03,-217.38C422.5,-220.08 431.44,-223.72 439,-228.5 458.66,-240.94 454.98,-254.65 475,-266.5 478.85,-268.78 483,-270.78 487.27,-272.53"/>
<polygon fill="#63b8ff" stroke="#63b8ff" points="486.17,-275.85 496.77,-275.96 488.56,-269.27 486.17,-275.85"/>
</a>
</g>
</g>
<!-- Node24 -->
<g id="Node000024" class="node">
<title>Node24</title>
<g id="a_Node000024"><a xlink:href="math__util_8c.html#af7b470ed76fce07b8042a47c96e5690b" target="_top" xlink:title=" ">
<polygon fill="white" stroke="#666666" points="598,-257 491,-257 491,-238 598,-238 598,-257"/>
<text text-anchor="middle" x="544.5" y="-245" font-family="Helvetica,sans-Serif" font-size="10.00">vec3f_copy_return</text>
</a>
</g>
</g>
<!-- Node4&#45;&gt;Node24 -->
<g id="edge23_Node000004_Node000024" class="edge">
<title>Node4&#45;&gt;Node24</title>
<g id="a_edge23_Node000004_Node000024"><a xlink:title=" ">
<path fill="none" stroke="#63b8ff" d="M414,-217.46C436.07,-222.58 466.6,-229.66 492.47,-235.66"/>
<polygon fill="#63b8ff" stroke="#63b8ff" points="491.97,-239.14 502.5,-237.99 493.55,-232.32 491.97,-239.14"/>
</a>
</g>
</g>
<!-- Node25 -->
<g id="Node000025" class="node">
<title>Node25</title>
<g id="a_Node000025"><a xlink:href="math__util_8c.html#a0e270ee67600c8c9c2f140c647d008a1" target="_top" xlink:title=" ">
<polygon fill="white" stroke="#666666" points="581.5,-220 507.5,-220 507.5,-201 581.5,-201 581.5,-220"/>
<text text-anchor="middle" x="544.5" y="-208" font-family="Helvetica,sans-Serif" font-size="10.00">vec3s_copy</text>
</a>
</g>
</g>
<!-- Node4&#45;&gt;Node25 -->
<g id="edge24_Node000004_Node000025" class="edge">
<title>Node4&#45;&gt;Node25</title>
<g id="a_edge24_Node000004_Node000025"><a xlink:title=" ">
<path fill="none" stroke="#63b8ff" d="M414,-210.5C437.42,-210.5 470.38,-210.5 497.18,-210.5"/>
<polygon fill="#63b8ff" stroke="#63b8ff" points="497.49,-214 507.49,-210.5 497.49,-207 497.49,-214"/>
</a>
</g>
</g>
<!-- Node6 -->
<g id="Node000006" class="node">
<title>Node6</title>
<g id="a_Node000006"><a xlink:href="collision_8c.html#ac312bf382cb40752f6b790a99e7cdcb6" target="_top" xlink:title=" ">
<polygon fill="white" stroke="#666666" points="1136,-137 1028,-137 1028,-118 1136,-118 1136,-137"/>
<text text-anchor="middle" x="1082" y="-125" font-family="Helvetica,sans-Serif" font-size="10.00">check_collision_yx</text>
</a>
</g>
</g>
<!-- Node5&#45;&gt;Node6 -->
<g id="edge5_Node000005_Node000006" class="edge">
<title>Node5&#45;&gt;Node6</title>
<g id="a_edge5_Node000005_Node000006"><a xlink:title=" ">
<path fill="none" stroke="#63b8ff" d="M955.52,-154.97C977.42,-150.18 1004.15,-144.32 1027.31,-139.25"/>
<polygon fill="#63b8ff" stroke="#63b8ff" points="1028.31,-142.62 1037.33,-137.06 1026.82,-135.78 1028.31,-142.62"/>
</a>
</g>
</g>
<!-- Node7 -->
<g id="Node000007" class="node">
<title>Node7</title>
<g id="a_Node000007"><a xlink:href="collision_8c.html#a4b48832a90e984536a0635a016ec4f28" target="_top" xlink:title=" ">
<polygon fill="white" stroke="#666666" points="1135.5,-211 1028.5,-211 1028.5,-192 1135.5,-192 1135.5,-211"/>
<text text-anchor="middle" x="1082" y="-199" font-family="Helvetica,sans-Serif" font-size="10.00">check_collision_zx</text>
</a>
</g>
</g>
<!-- Node5&#45;&gt;Node7 -->
<g id="edge6_Node000005_Node000007" class="edge">
<title>Node5&#45;&gt;Node7</title>
<g id="a_edge6_Node000005_Node000007"><a xlink:title=" ">
<path fill="none" stroke="#63b8ff" d="M955.52,-174.03C977.42,-178.82 1004.15,-184.68 1027.31,-189.75"/>
<polygon fill="#63b8ff" stroke="#63b8ff" points="1026.82,-193.22 1037.33,-191.94 1028.31,-186.38 1026.82,-193.22"/>
</a>
</g>
</g>
<!-- Node8 -->
<g id="Node000008" class="node">
<title>Node8</title>
<g id="a_Node000008"><a xlink:href="collision_8c.html#a21fef964ab48191a1c0341954ef27a40" target="_top" xlink:title=" ">
<polygon fill="white" stroke="#666666" points="1135.5,-174 1028.5,-174 1028.5,-155 1135.5,-155 1135.5,-174"/>
<text text-anchor="middle" x="1082" y="-162" font-family="Helvetica,sans-Serif" font-size="10.00">check_collision_zy</text>
</a>
</g>
</g>
<!-- Node5&#45;&gt;Node8 -->
<g id="edge7_Node000005_Node000008" class="edge">
<title>Node5&#45;&gt;Node8</title>
<g id="a_edge7_Node000005_Node000008"><a xlink:title=" ">
<path fill="none" stroke="#63b8ff" d="M981.71,-164.5C993.81,-164.5 1006.32,-164.5 1018.22,-164.5"/>
<polygon fill="#63b8ff" stroke="#63b8ff" points="1018.49,-168 1028.49,-164.5 1018.49,-161 1018.49,-168"/>
</a>
</g>
</g>
<!-- Node10 -->
<g id="Node000010" class="node">
<title>Node10</title>
<g id="a_Node000010"><a xlink:href="Game_8cpp.html#a693de7d8b89fe291aafea86bc64a0a2e" target="_top" xlink:title=" ">
<polygon fill="white" stroke="#666666" points="763,-407 683,-407 683,-388 763,-388 763,-407"/>
<text text-anchor="middle" x="723" y="-395" font-family="Helvetica,sans-Serif" font-size="10.00">CM_GetActor</text>
</a>
</g>
</g>
<!-- Node9&#45;&gt;Node10 -->
<g id="edge9_Node000009_Node000010" class="edge">
<title>Node9&#45;&gt;Node10</title>
<g id="a_edge9_Node000009_Node000010"><a xlink:title=" ">
<path fill="none" stroke="#63b8ff" d="M591.4,-360.52C609.58,-366.33 630.72,-372.92 650,-378.5 657.95,-380.8 666.42,-383.14 674.65,-385.35"/>
<polygon fill="#63b8ff" stroke="#63b8ff" points="673.97,-388.79 684.54,-387.98 675.77,-382.03 673.97,-388.79"/>
</a>
</g>
</g>
<!-- Node11 -->
<g id="Node000011" class="node">
<title>Node11</title>
<g id="a_Node000011"><a xlink:href="code__80005FD0_8c.html#ad301b978cdd3c4cc190b10be050d51d8" target="_top" xlink:title=" ">
<polygon fill="white" stroke="#666666" points="796,-369.5 650,-369.5 650,-339.5 796,-339.5 796,-369.5"/>
<text text-anchor="start" x="658" y="-357.5" font-family="Helvetica,sans-Serif" font-size="10.00">delete_actor_in_unexpired</text>
<text text-anchor="middle" x="723" y="-346.5" font-family="Helvetica,sans-Serif" font-size="10.00">_actor_list</text>
</a>
</g>
</g>
<!-- Node9&#45;&gt;Node11 -->
<g id="edge10_Node000009_Node000011" class="edge">
<title>Node9&#45;&gt;Node11</title>
<g id="a_edge10_Node000009_Node000011"><a xlink:title=" ">
<path fill="none" stroke="#63b8ff" d="M610.72,-348.83C620.2,-349.31 630.05,-349.81 639.81,-350.31"/>
<polygon fill="#63b8ff" stroke="#63b8ff" points="639.75,-353.81 649.92,-350.82 640.11,-346.82 639.75,-353.81"/>
</a>
</g>
</g>
<!-- Node12 -->
<g id="Node000012" class="node">
<title>Node12</title>
<g id="a_Node000012"><a xlink:href="actors_8c.html#a694ec6ef7548b8618aeb35c038d3a9b9" target="_top" xlink:title=" ">
<polygon fill="white" stroke="#666666" points="764.5,-321 681.5,-321 681.5,-302 764.5,-302 764.5,-321"/>
<text text-anchor="middle" x="723" y="-309" font-family="Helvetica,sans-Serif" font-size="10.00">destroy_actor</text>
</a>
</g>
</g>
<!-- Node9&#45;&gt;Node12 -->
<g id="edge11_Node000009_Node000012" class="edge">
<title>Node9&#45;&gt;Node12</title>
<g id="a_edge11_Node000009_Node000012"><a xlink:title=" ">
<path fill="none" stroke="#63b8ff" d="M610.72,-332.94C630.78,-329.07 652.55,-324.88 671.47,-321.23"/>
<polygon fill="#63b8ff" stroke="#63b8ff" points="672.21,-324.66 681.37,-319.33 670.88,-317.78 672.21,-324.66"/>
</a>
</g>
</g>
<!-- Node13 -->
<g id="Node000013" class="node">
<title>Node13</title>
<g id="a_Node000013"><a xlink:href="actors_8c.html#a12dc3ccac4c7d8569eadac0af4fd6f9f" target="_top" xlink:title=" ">
<polygon fill="white" stroke="#666666" points="990,-321 832,-321 832,-302 990,-302 990,-321"/>
<text text-anchor="middle" x="911" y="-309" font-family="Helvetica,sans-Serif" font-size="10.00">play_sound_before_despawn</text>
</a>
</g>
</g>
<!-- Node12&#45;&gt;Node13 -->
<g id="edge12_Node000012_Node000013" class="edge">
<title>Node12&#45;&gt;Node13</title>
<g id="a_edge12_Node000012_Node000013"><a xlink:title=" ">
<path fill="none" stroke="#63b8ff" d="M764.82,-311.5C781.65,-311.5 801.86,-311.5 821.77,-311.5"/>
<polygon fill="#63b8ff" stroke="#63b8ff" points="821.82,-315 831.82,-311.5 821.82,-308 821.82,-315"/>
</a>
</g>
</g>
<!-- Node14 -->
<g id="Node000014" class="node">
<title>Node14</title>
<g id="a_Node000014"><a xlink:href="external_8c.html#ae72057869772019e4464c87d4e16c682" target="_top" xlink:title=" ">
<polygon fill="white" stroke="#666666" points="1128,-321 1036,-321 1036,-302 1128,-302 1128,-321"/>
<text text-anchor="middle" x="1082" y="-309" font-family="Helvetica,sans-Serif" font-size="10.00">func_800C99E0</text>
</a>
</g>
</g>
<!-- Node13&#45;&gt;Node14 -->
<g id="edge13_Node000013_Node000014" class="edge">
<title>Node13&#45;&gt;Node14</title>
<g id="a_edge13_Node000013_Node000014"><a xlink:title=" ">
<path fill="none" stroke="#63b8ff" d="M990.07,-311.5C1002.12,-311.5 1014.35,-311.5 1025.76,-311.5"/>
<polygon fill="#63b8ff" stroke="#63b8ff" points="1025.99,-315 1035.99,-311.5 1025.99,-308 1025.99,-315"/>
</a>
</g>
</g>
<!-- Node15 -->
<g id="Node000015" class="node">
<title>Node15</title>
<g id="a_Node000015"><a xlink:href="external_8c.html#aeb87c527482a244173df36a1f3d4f446" target="_top" xlink:title=" ">
<polygon fill="white" stroke="#666666" points="1266,-340 1174,-340 1174,-321 1266,-321 1266,-340"/>
<text text-anchor="middle" x="1220" y="-328" font-family="Helvetica,sans-Serif" font-size="10.00">func_800C21E8</text>
</a>
</g>
</g>
<!-- Node14&#45;&gt;Node15 -->
<g id="edge14_Node000014_Node000015" class="edge">
<title>Node14&#45;&gt;Node15</title>
<g id="a_edge14_Node000014_Node000015"><a xlink:title=" ">
<path fill="none" stroke="#63b8ff" d="M1128.29,-317.83C1139.64,-319.41 1151.95,-321.13 1163.73,-322.78"/>
<polygon fill="#63b8ff" stroke="#63b8ff" points="1163.52,-326.28 1173.91,-324.2 1164.49,-319.35 1163.52,-326.28"/>
</a>
</g>
</g>
<!-- Node16 -->
<g id="Node000016" class="node">
<title>Node16</title>
<g id="a_Node000016"><a xlink:href="external_8c.html#a028d40421b90c38f68ebfd5acc626f2e" target="_top" xlink:title=" ">
<polygon fill="white" stroke="#666666" points="1266,-303 1174,-303 1174,-284 1266,-284 1266,-303"/>
<text text-anchor="middle" x="1220" y="-291" font-family="Helvetica,sans-Serif" font-size="10.00">func_800C5578</text>
</a>
</g>
</g>
<!-- Node14&#45;&gt;Node16 -->
<g id="edge15_Node000014_Node000016" class="edge">
<title>Node14&#45;&gt;Node16</title>
<g id="a_edge15_Node000014_Node000016"><a xlink:title=" ">
<path fill="none" stroke="#63b8ff" d="M1128.29,-305.51C1139.64,-304 1151.95,-302.37 1163.73,-300.81"/>
<polygon fill="#63b8ff" stroke="#63b8ff" points="1164.46,-304.25 1173.91,-299.47 1163.54,-297.31 1164.46,-304.25"/>
</a>
</g>
</g>
<!-- Node17 -->
<g id="Node000017" class="node">
<title>Node17</title>
<g id="a_Node000017"><a xlink:href="external_8c.html#ac0fb767de7e14a03f1bcfa53f0abd23b" target="_top" xlink:title=" ">
<polygon fill="white" stroke="#666666" points="1442,-340 1302,-340 1302,-321 1442,-321 1442,-340"/>
<text text-anchor="middle" x="1372" y="-328" font-family="Helvetica,sans-Serif" font-size="10.00">delete_sound_from_bank</text>
</a>
</g>
</g>
<!-- Node16&#45;&gt;Node17 -->
<g id="edge16_Node000016_Node000017" class="edge">
<title>Node16&#45;&gt;Node17</title>
<g id="a_edge16_Node000016_Node000017"><a xlink:title=" ">
<path fill="none" stroke="#63b8ff" d="M1259.63,-303.03C1278.8,-307.76 1302.16,-313.52 1322.52,-318.54"/>
<polygon fill="#63b8ff" stroke="#63b8ff" points="1321.69,-321.94 1332.24,-320.94 1323.37,-315.15 1321.69,-321.94"/>
</a>
</g>
</g>
<!-- Node19 -->
<g id="Node000019" class="node">
<title>Node19</title>
<g id="a_Node000019"><a xlink:href="external_8c.html#ab83bd36e63f0f1baddcb2482b5ad31b0" target="_top" xlink:title=" ">
<polygon fill="white" stroke="#666666" points="1418.5,-303 1325.5,-303 1325.5,-284 1418.5,-284 1418.5,-303"/>
<text text-anchor="middle" x="1372" y="-291" font-family="Helvetica,sans-Serif" font-size="10.00">func_800C41CC</text>
</a>
</g>
</g>
<!-- Node16&#45;&gt;Node19 -->
<g id="edge18_Node000016_Node000019" class="edge">
<title>Node16&#45;&gt;Node19</title>
<g id="a_edge18_Node000016_Node000019"><a xlink:title=" ">
<path fill="none" stroke="#63b8ff" d="M1266,-293.5C1281.37,-293.5 1298.74,-293.5 1314.86,-293.5"/>
<polygon fill="#63b8ff" stroke="#63b8ff" points="1315.25,-297 1325.25,-293.5 1315.25,-290 1315.25,-297"/>
</a>
</g>
</g>
<!-- Node20 -->
<g id="Node000020" class="node">
<title>Node20</title>
<g id="a_Node000020"><a xlink:href="port__eu_8c.html#aa89dfaecca46c6d071f08c1898d1f7c9" target="_top" xlink:title=" ">
<polygon fill="white" stroke="#666666" points="1418.5,-266 1325.5,-266 1325.5,-247 1418.5,-247 1418.5,-266"/>
<text text-anchor="middle" x="1372" y="-254" font-family="Helvetica,sans-Serif" font-size="10.00">func_800CBBE8</text>
</a>
</g>
</g>
<!-- Node16&#45;&gt;Node20 -->
<g id="edge19_Node000016_Node000020" class="edge">
<title>Node16&#45;&gt;Node20</title>
<g id="a_edge19_Node000016_Node000020"><a xlink:title=" ">
<path fill="none" stroke="#63b8ff" d="M1259.63,-283.97C1278.8,-279.24 1302.16,-273.48 1322.52,-268.46"/>
<polygon fill="#63b8ff" stroke="#63b8ff" points="1323.37,-271.85 1332.24,-266.06 1321.69,-265.06 1323.37,-271.85"/>
</a>
</g>
</g>
<!-- Node18 -->
<g id="Node000018" class="node">
<title>Node18</title>
<g id="a_Node000018"><a xlink:href="external_8c.html#a358ac55e8ab5262dcae8037334be06d7" target="_top" xlink:title=" ">
<polygon fill="white" stroke="#666666" points="1570.5,-340 1478.5,-340 1478.5,-321 1570.5,-321 1570.5,-340"/>
<text text-anchor="middle" x="1524.5" y="-328" font-family="Helvetica,sans-Serif" font-size="10.00">func_800C40F0</text>
</a>
</g>
</g>
<!-- Node17&#45;&gt;Node18 -->
<g id="edge17_Node000017_Node000018" class="edge">
<title>Node17&#45;&gt;Node18</title>
<g id="a_edge17_Node000017_Node000018"><a xlink:title=" ">
<path fill="none" stroke="#63b8ff" d="M1442.08,-330.5C1450.87,-330.5 1459.78,-330.5 1468.31,-330.5"/>
<polygon fill="#63b8ff" stroke="#63b8ff" points="1468.5,-334 1478.5,-330.5 1468.5,-327 1468.5,-334"/>
</a>
</g>
</g>
<!-- Node21 -->
<g id="Node000021" class="node">
<title>Node21</title>
<g id="a_Node000021"><a xlink:href="port__eu_8c.html#af361a20d2e08f30c53a237ca481ff734" target="_top" xlink:title=" ">
<polygon fill="white" stroke="#666666" points="1571,-266 1478,-266 1478,-247 1571,-247 1571,-266"/>
<text text-anchor="middle" x="1524.5" y="-254" font-family="Helvetica,sans-Serif" font-size="10.00">func_800CBB48</text>
</a>
</g>
</g>
<!-- Node20&#45;&gt;Node21 -->
<g id="edge20_Node000020_Node000021" class="edge">
<title>Node20&#45;&gt;Node21</title>
<g id="a_edge20_Node000020_Node000021"><a xlink:title=" ">
<path fill="none" stroke="#63b8ff" d="M1418.56,-256.5C1433.96,-256.5 1451.34,-256.5 1467.46,-256.5"/>
<polygon fill="#63b8ff" stroke="#63b8ff" points="1467.83,-260 1477.83,-256.5 1467.83,-253 1467.83,-260"/>
</a>
</g>
</g>
<!-- Node23 -->
<g id="Node000023" class="node">
<title>Node23</title>
<g id="a_Node000023"><a xlink:href="math__util_8c.html#a79fd07a0971ec96a3ff0801963a2fa7f" target="_top" xlink:title=" ">
<polygon fill="white" stroke="#666666" points="755,-284 691,-284 691,-265 755,-265 755,-284"/>
<text text-anchor="middle" x="723" y="-272" font-family="Helvetica,sans-Serif" font-size="10.00">vec3f_set</text>
</a>
</g>
</g>
<!-- Node22&#45;&gt;Node23 -->
<g id="edge22_Node000022_Node000023" class="edge">
<title>Node22&#45;&gt;Node23</title>
<g id="a_edge22_Node000022_Node000023"><a xlink:title=" ">
<path fill="none" stroke="#63b8ff" d="M592.34,-281.85C619.83,-280.29 654.27,-278.34 680.74,-276.84"/>
<polygon fill="#63b8ff" stroke="#63b8ff" points="681.04,-280.33 690.83,-276.27 680.65,-273.34 681.04,-280.33"/>
</a>
</g>
</g>
<!-- Node30 -->
<g id="Node000030" class="node">
<title>Node30</title>
<g id="a_Node000030"><a xlink:href="code__80005FD0_8c.html#aff1ba4b22fc22c38fcf28007ccaaa752" target="_top" xlink:title=" ">
<polygon fill="white" stroke="#666666" points="591,-141 498,-141 498,-122 591,-122 591,-141"/>
<text text-anchor="middle" x="544.5" y="-129" font-family="Helvetica,sans-Serif" font-size="10.00">func_8000D2B4</text>
</a>
</g>
</g>
<!-- Node29&#45;&gt;Node30 -->
<g id="edge29_Node000029_Node000030" class="edge">
<title>Node29&#45;&gt;Node30</title>
<g id="a_edge29_Node000029_Node000030"><a xlink:title=" ">
<path fill="none" stroke="#63b8ff" d="M398.91,-67.19C420.52,-81.13 459.66,-105.89 475,-112.5 480.45,-114.85 486.26,-116.98 492.11,-118.9"/>
<polygon fill="#63b8ff" stroke="#63b8ff" points="491.35,-122.33 501.94,-121.93 493.41,-115.64 491.35,-122.33"/>
</a>
</g>
</g>
<!-- Node37 -->
<g id="Node000037" class="node">
<title>Node37</title>
<g id="a_Node000037"><a xlink:href="code__80005FD0_8c.html#a79cd9c001e0a06c9cab23fe2cf070abf" target="_top" xlink:title=" ">
<polygon fill="white" stroke="#666666" points="614,-30 475,-30 475,-11 614,-11 614,-30"/>
<text text-anchor="middle" x="544.5" y="-18" font-family="Helvetica,sans-Serif" font-size="10.00">get_angle_between_path</text>
</a>
</g>
</g>
<!-- Node29&#45;&gt;Node37 -->
<g id="edge37_Node000029_Node000037" class="edge">
<title>Node29&#45;&gt;Node37</title>
<g id="a_edge37_Node000029_Node000037"><a xlink:title=" ">
<path fill="none" stroke="#63b8ff" d="M425.08,-47.97C445.65,-43.2 470.75,-37.38 492.54,-32.32"/>
<polygon fill="#63b8ff" stroke="#63b8ff" points="493.34,-35.73 502.29,-30.06 491.75,-28.91 493.34,-35.73"/>
</a>
</g>
</g>
<!-- Node41 -->
<g id="Node000041" class="node">
<title>Node41</title>
<g id="a_Node000041"><a xlink:href="code__80005FD0_8c.html#a83974499a323e99b007956bf9c0e25ff" target="_top" xlink:title=" ">
<polygon fill="white" stroke="#666666" points="614,-104 475,-104 475,-85 614,-85 614,-104"/>
<text text-anchor="middle" x="544.5" y="-92" font-family="Helvetica,sans-Serif" font-size="10.00">set_track_offset_position</text>
</a>
</g>
</g>
<!-- Node29&#45;&gt;Node41 -->
<g id="edge41_Node000029_Node000041" class="edge">
<title>Node29&#45;&gt;Node41</title>
<g id="a_edge41_Node000029_Node000041"><a xlink:title=" ">
<path fill="none" stroke="#63b8ff" d="M425.08,-67.03C445.65,-71.8 470.75,-77.62 492.54,-82.68"/>
<polygon fill="#63b8ff" stroke="#63b8ff" points="491.75,-86.09 502.29,-84.94 493.34,-79.27 491.75,-86.09"/>
</a>
</g>
</g>
<!-- Node42 -->
<g id="Node000042" class="node">
<title>Node42</title>
<g id="a_Node000042"><a xlink:href="math_8h.html#a37bde043e94a6f074c78f10518fb5d99" target="_top" xlink:title=" ">
<polygon fill="white" stroke="#666666" points="564,-67 525,-67 525,-48 564,-48 564,-67"/>
<text text-anchor="middle" x="544.5" y="-55" font-family="Helvetica,sans-Serif" font-size="10.00">sqrtf</text>
</a>
</g>
</g>
<!-- Node29&#45;&gt;Node42 -->
<g id="edge42_Node000029_Node000042" class="edge">
<title>Node29&#45;&gt;Node42</title>
<g id="a_edge42_Node000029_Node000042"><a xlink:title=" ">
<path fill="none" stroke="#63b8ff" d="M430.13,-57.5C457.42,-57.5 491.13,-57.5 514.67,-57.5"/>
<polygon fill="#63b8ff" stroke="#63b8ff" points="514.71,-61 524.71,-57.5 514.71,-54 514.71,-61"/>
</a>
</g>
</g>
<!-- Node31 -->
<g id="Node000031" class="node">
<title>Node31</title>
<g id="a_Node000031"><a xlink:href="code__80005FD0_8c.html#a52b991f7bfc8a37a05bbb3ede096fb6a" target="_top" xlink:title=" ">
<polygon fill="white" stroke="#666666" points="793,-144 653,-144 653,-125 793,-125 793,-144"/>
<text text-anchor="middle" x="723" y="-132" font-family="Helvetica,sans-Serif" font-size="10.00">adjust_path_at_start_line</text>
</a>
</g>
</g>
<!-- Node30&#45;&gt;Node31 -->
<g id="edge30_Node000030_Node000031" class="edge">
<title>Node30&#45;&gt;Node31</title>
<g id="a_edge30_Node000030_Node000031"><a xlink:title=" ">
<path fill="none" stroke="#63b8ff" d="M591.41,-132.28C607.04,-132.55 624.98,-132.85 642.47,-133.15"/>
<polygon fill="#63b8ff" stroke="#63b8ff" points="642.63,-136.65 652.69,-133.32 642.75,-129.65 642.63,-136.65"/>
</a>
</g>
</g>
<!-- Node32 -->
<g id="Node000032" class="node">
<title>Node32</title>
<g id="a_Node000032"><a xlink:href="code__80005FD0_8c.html#aae3d2d6e27d79a30dfe68c64e771b5b1" target="_top" xlink:title=" ">
<polygon fill="white" stroke="#666666" points="769.5,-107 676.5,-107 676.5,-88 769.5,-88 769.5,-107"/>
<text text-anchor="middle" x="723" y="-95" font-family="Helvetica,sans-Serif" font-size="10.00">func_8000D24C</text>
</a>
</g>
</g>
<!-- Node30&#45;&gt;Node32 -->
<g id="edge31_Node000030_Node000032" class="edge">
<title>Node30&#45;&gt;Node32</title>
<g id="a_edge31_Node000030_Node000032"><a xlink:title=" ">
<path fill="none" stroke="#63b8ff" d="M591.41,-122.66C614.29,-118.25 642.15,-112.88 666.25,-108.24"/>
<polygon fill="#63b8ff" stroke="#63b8ff" points="667.16,-111.63 676.32,-106.3 665.84,-104.75 667.16,-111.63"/>
</a>
</g>
</g>
<!-- Node36 -->
<g id="Node000036" class="node">
<title>Node36</title>
<g id="a_Node000036"><a xlink:href="code__80005FD0_8c.html#a041b53794d8d64878d2cf5e0dea65b80" target="_top" xlink:title=" ">
<polygon fill="white" stroke="#666666" points="778,-70 668,-70 668,-51 778,-51 778,-70"/>
<text text-anchor="middle" x="723" y="-58" font-family="Helvetica,sans-Serif" font-size="10.00">update_path_index</text>
</a>
</g>
</g>
<!-- Node30&#45;&gt;Node36 -->
<g id="edge36_Node000030_Node000036" class="edge">
<title>Node30&#45;&gt;Node36</title>
<g id="a_edge36_Node000030_Node000036"><a xlink:title=" ">
<path fill="none" stroke="#63b8ff" d="M591.33,-122.14C599.16,-119.61 607.01,-116.44 614,-112.5 633.17,-101.69 630.7,-89.07 650,-78.5 653.3,-76.69 656.79,-75.06 660.37,-73.59"/>
<polygon fill="#63b8ff" stroke="#63b8ff" points="661.84,-76.78 670.04,-70.07 659.44,-70.21 661.84,-76.78"/>
</a>
</g>
</g>
<!-- Node32&#45;&gt;Node5 -->
<g id="edge32_Node000032_Node000005" class="edge">
<title>Node32&#45;&gt;Node5</title>
<g id="a_edge32_Node000032_Node000005"><a xlink:title=" ">
<path fill="none" stroke="#63b8ff" d="M769.62,-106.68C778.53,-109.09 787.68,-112.01 796,-115.5 813.29,-122.75 815.04,-129.5 832,-137.5 843.34,-142.85 856.04,-147.7 867.85,-151.76"/>
<polygon fill="#63b8ff" stroke="#63b8ff" points="866.91,-155.14 877.5,-154.98 869.13,-148.5 866.91,-155.14"/>
</a>
</g>
</g>
<!-- Node33 -->
<g id="Node000033" class="node">
<title>Node33</title>
<g id="a_Node000033"><a xlink:href="code__80005FD0_8c.html#a64865cf2565ef9f4215c5fa73b04233f" target="_top" xlink:title=" ">
<polygon fill="white" stroke="#666666" points="976.5,-91.5 845.5,-91.5 845.5,-61.5 976.5,-61.5 976.5,-91.5"/>
<text text-anchor="start" x="853.5" y="-79.5" font-family="Helvetica,sans-Serif" font-size="10.00">find_closest_path_point</text>
<text text-anchor="middle" x="911" y="-68.5" font-family="Helvetica,sans-Serif" font-size="10.00">_track_section</text>
</a>
</g>
</g>
<!-- Node32&#45;&gt;Node33 -->
<g id="edge33_Node000032_Node000033" class="edge">
<title>Node32&#45;&gt;Node33</title>
<g id="a_edge33_Node000032_Node000033"><a xlink:title=" ">
<path fill="none" stroke="#63b8ff" d="M769.5,-92.36C789.27,-90.13 812.96,-87.46 835.2,-84.94"/>
<polygon fill="#63b8ff" stroke="#63b8ff" points="835.76,-88.4 845.3,-83.8 834.97,-81.45 835.76,-88.4"/>
</a>
</g>
</g>
<!-- Node35 -->
<g id="Node000035" class="node">
<title>Node35</title>
<g id="a_Node000035"><a xlink:href="collision_8c.html#a053809031f467d0a6747788211e0ec69" target="_top" xlink:title=" ">
<polygon fill="white" stroke="#666666" points="969.5,-129 852.5,-129 852.5,-110 969.5,-110 969.5,-129"/>
<text text-anchor="middle" x="911" y="-117" font-family="Helvetica,sans-Serif" font-size="10.00">get_track_section_id</text>
</a>
</g>
</g>
<!-- Node32&#45;&gt;Node35 -->
<g id="edge35_Node000032_Node000035" class="edge">
<title>Node32&#45;&gt;Node35</title>
<g id="a_edge35_Node000032_Node000035"><a xlink:title=" ">
<path fill="none" stroke="#63b8ff" d="M769.5,-102.88C791.33,-105.46 817.94,-108.61 842.1,-111.47"/>
<polygon fill="#63b8ff" stroke="#63b8ff" points="841.95,-114.97 852.29,-112.67 842.77,-108.02 841.95,-114.97"/>
</a>
</g>
</g>
<!-- Node34 -->
<g id="Node000034" class="node">
<title>Node34</title>
<g id="a_Node000034"><a xlink:href="Game_8cpp.html#aab0dcf46f6e6e4516bf79ea3f519c765" target="_top" xlink:title=" ">
<polygon fill="white" stroke="#666666" points="1138,-86 1026,-86 1026,-67 1138,-67 1138,-86"/>
<text text-anchor="middle" x="1082" y="-74" font-family="Helvetica,sans-Serif" font-size="10.00">IsPodiumCeremony</text>
</a>
</g>
</g>
<!-- Node33&#45;&gt;Node34 -->
<g id="edge34_Node000033_Node000034" class="edge">
<title>Node33&#45;&gt;Node34</title>
<g id="a_edge34_Node000033_Node000034"><a xlink:title=" ">
<path fill="none" stroke="#63b8ff" d="M976.86,-76.5C989.64,-76.5 1003.05,-76.5 1015.84,-76.5"/>
<polygon fill="#63b8ff" stroke="#63b8ff" points="1015.94,-80 1025.94,-76.5 1015.94,-73 1015.94,-80"/>
</a>
</g>
</g>
<!-- Node38 -->
<g id="Node000038" class="node">
<title>Node38</title>
<g id="a_Node000038"><a xlink:href="math__util_8c.html#a84cf9d4ec33146a64c230ed4cec56632" target="_top" xlink:title=" ">
<polygon fill="white" stroke="#666666" points="790.5,-32.5 655.5,-32.5 655.5,-2.5 790.5,-2.5 790.5,-32.5"/>
<text text-anchor="start" x="663.5" y="-20.5" font-family="Helvetica,sans-Serif" font-size="10.00">get_angle_between_two</text>
<text text-anchor="middle" x="723" y="-9.5" font-family="Helvetica,sans-Serif" font-size="10.00">_vectors</text>
</a>
</g>
</g>
<!-- Node37&#45;&gt;Node38 -->
<g id="edge38_Node000037_Node000038" class="edge">
<title>Node37&#45;&gt;Node38</title>
<g id="a_edge38_Node000037_Node000038"><a xlink:title=" ">
<path fill="none" stroke="#63b8ff" d="M614.24,-19.33C624.41,-19.16 634.93,-18.98 645.25,-18.8"/>
<polygon fill="#63b8ff" stroke="#63b8ff" points="645.53,-22.3 655.47,-18.63 645.41,-15.3 645.53,-22.3"/>
</a>
</g>
</g>
<!-- Node39 -->
<g id="Node000039" class="node">
<title>Node39</title>
<g id="a_Node000039"><a xlink:href="math__util_8c.html#aaa39a297477f56051975259f4bddd829" target="_top" xlink:title=" ">
<polygon fill="white" stroke="#666666" points="936,-27 886,-27 886,-8 936,-8 936,-27"/>
<text text-anchor="middle" x="911" y="-15" font-family="Helvetica,sans-Serif" font-size="10.00">atan2s</text>
</a>
</g>
</g>
<!-- Node38&#45;&gt;Node39 -->
<g id="edge39_Node000038_Node000039" class="edge">
<title>Node38&#45;&gt;Node39</title>
<g id="a_edge39_Node000038_Node000039"><a xlink:title=" ">
<path fill="none" stroke="#63b8ff" d="M790.62,-17.5C819.37,-17.5 851.78,-17.5 875.57,-17.5"/>
<polygon fill="#63b8ff" stroke="#63b8ff" points="875.85,-21 885.85,-17.5 875.85,-14 875.85,-21"/>
</a>
</g>
</g>
<!-- Node40 -->
<g id="Node000040" class="node">
<title>Node40</title>
<g id="a_Node000040"><a xlink:href="math__util_8c.html#a0273b0ea0783a06996c28669a7438ed9" target="_top" xlink:title=" ">
<polygon fill="white" stroke="#666666" points="1123,-27 1041,-27 1041,-8 1123,-8 1123,-27"/>
<text text-anchor="middle" x="1082" y="-15" font-family="Helvetica,sans-Serif" font-size="10.00">atan2_lookup</text>
</a>
</g>
</g>
<!-- Node39&#45;&gt;Node40 -->
<g id="edge40_Node000039_Node000040" class="edge">
<title>Node39&#45;&gt;Node40</title>
<g id="a_edge40_Node000039_Node000040"><a xlink:title=" ">
<path fill="none" stroke="#63b8ff" d="M936.21,-17.5C960.73,-17.5 999.38,-17.5 1030.58,-17.5"/>
<polygon fill="#63b8ff" stroke="#63b8ff" points="1030.84,-21 1040.84,-17.5 1030.84,-14 1030.84,-21"/>
</a>
</g>
</g>
<!-- Node43&#45;&gt;Node30 -->
<g id="edge44_Node000043_Node000030" class="edge">
<title>Node43&#45;&gt;Node30</title>
<g id="a_edge44_Node000043_Node000030"><a xlink:title=" ">
<path fill="none" stroke="#63b8ff" d="M429.28,-117.89C447.47,-120.06 468.62,-122.58 487.75,-124.86"/>
<polygon fill="#63b8ff" stroke="#63b8ff" points="487.49,-128.35 497.83,-126.06 488.31,-121.4 487.49,-128.35"/>
</a>
</g>
</g>
<!-- Node43&#45;&gt;Node37 -->
<g id="edge45_Node000043_Node000037" class="edge">
<title>Node43&#45;&gt;Node37</title>
<g id="a_edge45_Node000043_Node000037"><a xlink:title=" ">
<path fill="none" stroke="#63b8ff" d="M400.03,-102.95C411.34,-95.92 426.63,-85.83 439,-75.5 456.61,-60.8 455.18,-50.06 475,-38.5 478.01,-36.74 481.2,-35.15 484.48,-33.72"/>
<polygon fill="#63b8ff" stroke="#63b8ff" points="485.87,-36.94 493.93,-30.06 483.34,-30.41 485.87,-36.94"/>
</a>
</g>
</g>
<!-- Node43&#45;&gt;Node41 -->
<g id="edge46_Node000043_Node000041" class="edge">
<title>Node43&#45;&gt;Node41</title>
<g id="a_edge46_Node000043_Node000041"><a xlink:title=" ">
<path fill="none" stroke="#63b8ff" d="M429.28,-107.39C440.36,-106.14 452.54,-104.77 464.69,-103.39"/>
<polygon fill="#63b8ff" stroke="#63b8ff" points="465.32,-106.84 474.87,-102.25 464.54,-99.89 465.32,-106.84"/>
</a>
</g>
</g>
<!-- Node43&#45;&gt;Node42 -->
<g id="edge47_Node000043_Node000042" class="edge">
<title>Node43&#45;&gt;Node42</title>
<g id="a_edge47_Node000043_Node000042"><a xlink:title=" ">
<path fill="none" stroke="#63b8ff" d="M405.4,-102.88C423.66,-94.9 450.73,-83.59 475,-75.5 488.03,-71.16 502.74,-67.18 515.17,-64.07"/>
<polygon fill="#63b8ff" stroke="#63b8ff" points="516.11,-67.44 524.99,-61.68 514.45,-60.64 516.11,-67.44"/>
</a>
</g>
</g>
<!-- Node46 -->
<g id="Node000046" class="node">
<title>Node46</title>
<g id="a_Node000046"><a xlink:href="math__util_8c.html#a062850863585005ad1d0a75d9ff70693" target="_top" xlink:title=" ">
<polygon fill="white" stroke="#666666" points="421.5,-19 344.5,-19 344.5,0 421.5,0 421.5,-19"/>
<text text-anchor="middle" x="383" y="-7" font-family="Helvetica,sans-Serif" font-size="10.00">random_u16</text>
</a>
</g>
</g>
<!-- Node45&#45;&gt;Node46 -->
<g id="edge50_Node000045_Node000046" class="edge">
<title>Node45&#45;&gt;Node46</title>
<g id="a_edge50_Node000045_Node000046"><a xlink:title=" ">
<path fill="none" stroke="#63b8ff" d="M242.81,-9.5C269.07,-9.5 305.19,-9.5 334.05,-9.5"/>
<polygon fill="#63b8ff" stroke="#63b8ff" points="334.32,-13 344.32,-9.5 334.32,-6 334.32,-13"/>
</a>
</g>
</g>
<!-- Node47&#45;&gt;Node29 -->
<g id="edge52_Node000047_Node000029" class="edge">
<title>Node47&#45;&gt;Node29</title>
<g id="a_edge52_Node000047_Node000029"><a xlink:title=" ">
<path fill="none" stroke="#63b8ff" d="M258.85,-112.89C269.61,-110.31 280.79,-107.18 291,-103.5 314.19,-95.14 339.07,-82.27 356.94,-72.27"/>
<polygon fill="#63b8ff" stroke="#63b8ff" points="359.14,-75.04 366.1,-67.05 355.67,-68.96 359.14,-75.04"/>
</a>
</g>
</g>
<!-- Node47&#45;&gt;Node43 -->
<g id="edge53_Node000047_Node000043" class="edge">
<title>Node47&#45;&gt;Node43</title>
<g id="a_edge53_Node000047_Node000043"><a xlink:title=" ">
<path fill="none" stroke="#63b8ff" d="M273.47,-118.72C290.97,-117.72 309.7,-116.64 326.57,-115.68"/>
<polygon fill="#63b8ff" stroke="#63b8ff" points="327.04,-119.16 336.82,-115.09 326.64,-112.17 327.04,-119.16"/>
</a>
</g>
</g>
</g>
</svg>

<g id="navigator" transform="translate(0 0)" fill="#404254">
  <rect fill="#f2f5e9" fill-opacity="0.5" stroke="#606060" stroke-width=".5" x="0" y="0" width="60" height="60"/>
  <use id="zoomplus" xlink:href="#zoomPlus" x="17" y="9" onmousedown="handleZoom(evt,'in')"/>
  <use id="zoomminus" xlink:href="#zoomMin" x="42" y="9" onmousedown="handleZoom(evt,'out')"/>
  <use id="reset" xlink:href="#resetDef" x="30" y="36" onmousedown="handleReset()"/>
   <use id="arrowup" xlink:href="#arrowUp" x="0" y="0" onmousedown="handlePan(0,-1)"/>
  <use id="arrowright" xlink:href="#arrowRight" x="0" y="0" onmousedown="handlePan(1,0)"/>
  <use id="arrowdown" xlink:href="#arrowDown" x="0" y="0" onmousedown="handlePan(0,1)"/>
  <use id="arrowleft" xlink:href="#arrowLeft" x="0" y="0" onmousedown="handlePan(-1,0)"/>
</g>
<svg viewBox="0 0 15 15" width="100%" height="30px" preserveAspectRatio="xMaxYMin meet">
 <g id="arrow_out" transform="scale(0.3 0.3)">
  <a xlink:href="classATruck_a8b5a611d66bd00a6ddf86eec0920a583_cgraph_org.svg" target="_base">
   <rect id="button" ry="5" rx="5" y="6" x="6" height="38" width="38"
        fill="#f2f5e9" fill-opacity="0.5" stroke="#606060" stroke-width="1.0"/>
   <path id="arrow"
     d="M 11.500037,31.436501 C 11.940474,20.09759 22.043105,11.32322 32.158766,21.979434 L 37.068811,17.246167 C 37.068811,17.246167 37.088388,32 37.088388,32 L 22.160133,31.978069 C 22.160133,31.978069 26.997745,27.140456 26.997745,27.140456 C 18.528582,18.264221 13.291696,25.230495 11.500037,31.436501 z"
     style="fill:#404040;"/>
  </a>
 </g>
</svg>

<style type='text/css'>
<![CDATA[
[data-mouse-over-selected='false'] { opacity: 0.7; }
[data-mouse-over-selected='true']  { opacity: 1.0; }
]]>
</style>
<script type="application/ecmascript"><![CDATA[
document.addEventListener('DOMContentLoaded', (event) => {
  highlightEdges();
  highlightAdjacentNodes();
});
]]></script>
</svg>
