<?xml version="1.0" encoding="UTF-8" standalone="no"?>
<!DOCTYPE svg PUBLIC "-//W3C//DTD SVG 1.1//EN"
 "http://www.w3.org/Graphics/SVG/1.1/DTD/svg11.dtd">
<!-- Generated by graphviz version 2.43.0 (0)
 -->
<!-- Title: RaceManager::BeginPlay Pages: 1 -->
<svg width="578pt" height="27pt"
 viewBox="0.00 0.00 578.00 27.00" xmlns="http://www.w3.org/2000/svg" xmlns:xlink="http://www.w3.org/1999/xlink">
<g id="graph0" class="graph" transform="scale(1 1) rotate(0) translate(4 23)">
<title>RaceManager::BeginPlay</title>
<!-- Node1 -->
<g id="Node000001" class="node">
<title>Node1</title>
<g id="a_Node000001"><a xlink:title=" ">
<polygon fill="#999999" stroke="#666666" points="138,-19 0,-19 0,0 138,0 138,-19"/>
<text text-anchor="middle" x="69" y="-7" font-family="Helvetica,sans-Serif" font-size="10.00">RaceManager::BeginPlay</text>
</a>
</g>
</g>
<!-- Node2 -->
<g id="Node000002" class="node">
<title>Node2</title>
<g id="a_Node000002"><a xlink:href="classAFinishline.html#a558adad18df5a2fb4fe346da97a75617" target="_top" xlink:title=" ">
<polygon fill="white" stroke="#666666" points="282,-19 174,-19 174,0 282,0 282,-19"/>
<text text-anchor="middle" x="228" y="-7" font-family="Helvetica,sans-Serif" font-size="10.00">AFinishline::Spawn</text>
</a>
</g>
</g>
<!-- Node1&#45;&gt;Node2 -->
<g id="edge1_Node000001_Node000002" class="edge">
<title>Node1&#45;&gt;Node2</title>
<g id="a_edge1_Node000001_Node000002"><a xlink:title=" ">
<path fill="none" stroke="#63b8ff" d="M138.41,-9.5C146.87,-9.5 155.48,-9.5 163.86,-9.5"/>
<polygon fill="#63b8ff" stroke="#63b8ff" points="163.93,-13 173.93,-9.5 163.93,-6 163.93,-13"/>
</a>
</g>
</g>
<!-- Node3 -->
<g id="Node000003" class="node">
<title>Node3</title>
<g id="a_Node000003"><a xlink:href="classAFinishline.html#a217d1abec019d9ff56b0e387fcd83f03" target="_top" xlink:title=" ">
<polygon fill="white" stroke="#666666" points="447,-19 318,-19 318,0 447,0 447,-19"/>
<text text-anchor="middle" x="382.5" y="-7" font-family="Helvetica,sans-Serif" font-size="10.00">AFinishline::AFinishline</text>
</a>
</g>
</g>
<!-- Node2&#45;&gt;Node3 -->
<g id="edge2_Node000002_Node000003" class="edge">
<title>Node2&#45;&gt;Node3</title>
<g id="a_edge2_Node000002_Node000003"><a xlink:title=" ">
<path fill="none" stroke="#63b8ff" d="M282.34,-9.5C290.61,-9.5 299.28,-9.5 307.9,-9.5"/>
<polygon fill="#63b8ff" stroke="#63b8ff" points="307.98,-13 317.98,-9.5 307.98,-6 307.98,-13"/>
</a>
</g>
</g>
<!-- Node4 -->
<g id="Node000004" class="node">
<title>Node4</title>
<g id="a_Node000004"><a xlink:href="classAActor.html#a679c43bacf3600fa2d7a6ab30e34a8a6" target="_top" xlink:title=" ">
<polygon fill="white" stroke="#666666" points="570,-19 483,-19 483,0 570,0 570,-19"/>
<text text-anchor="middle" x="526.5" y="-7" font-family="Helvetica,sans-Serif" font-size="10.00">AActor::AActor</text>
</a>
</g>
</g>
<!-- Node3&#45;&gt;Node4 -->
<g id="edge3_Node000003_Node000004" class="edge">
<title>Node3&#45;&gt;Node4</title>
<g id="a_edge3_Node000003_Node000004"><a xlink:title=" ">
<path fill="none" stroke="#63b8ff" d="M447.02,-9.5C455.63,-9.5 464.39,-9.5 472.78,-9.5"/>
<polygon fill="#63b8ff" stroke="#63b8ff" points="472.81,-13 482.81,-9.5 472.81,-6 472.81,-13"/>
</a>
</g>
</g>
</g>
</svg>
