<?xml version="1.0" encoding="UTF-8" standalone="no"?>
<!DOCTYPE svg PUBLIC "-//W3C//DTD SVG 1.1//EN"
 "http://www.w3.org/Graphics/SVG/1.1/DTD/svg11.dtd">
<!-- Generated by graphviz version 2.43.0 (0)
 -->
<!-- Title: Editor::ToolsWindow::DrawElement Pages: 1 -->
<svg width="719pt" height="97pt"
 viewBox="0.00 0.00 719.00 96.50" xmlns="http://www.w3.org/2000/svg" xmlns:xlink="http://www.w3.org/1999/xlink">
<g id="graph0" class="graph" transform="scale(1 1) rotate(0) translate(4 92.5)">
<title>Editor::ToolsWindow::DrawElement</title>
<!-- Node1 -->
<g id="Node000001" class="node">
<title>Node1</title>
<g id="a_Node000001"><a xlink:title=" ">
<polygon fill="#999999" stroke="#666666" points="115,-66.5 0,-66.5 0,-36.5 115,-36.5 115,-66.5"/>
<text text-anchor="start" x="8" y="-54.5" font-family="Helvetica,sans-Serif" font-size="10.00">Editor::ToolsWindow</text>
<text text-anchor="middle" x="57.5" y="-43.5" font-family="Helvetica,sans-Serif" font-size="10.00">::DrawElement</text>
</a>
</g>
</g>
<!-- Node2 -->
<g id="Node000002" class="node">
<title>Node2</title>
<g id="a_Node000002"><a xlink:href="classEditor_1_1ToolsWindow.html#a282351dc0b0b85fbb4960bf819e710da" target="_top" xlink:title=" ">
<polygon fill="white" stroke="#666666" points="266,-88.5 151,-88.5 151,-58.5 266,-58.5 266,-88.5"/>
<text text-anchor="start" x="159" y="-76.5" font-family="Helvetica,sans-Serif" font-size="10.00">Editor::ToolsWindow</text>
<text text-anchor="middle" x="208.5" y="-65.5" font-family="Helvetica,sans-Serif" font-size="10.00">::GameSpeed</text>
</a>
</g>
</g>
<!-- Node1&#45;&gt;Node2 -->
<g id="edge1_Node000001_Node000002" class="edge">
<title>Node1&#45;&gt;Node2</title>
<g id="a_edge1_Node000001_Node000002"><a xlink:title=" ">
<path fill="none" stroke="#63b8ff" d="M115.26,-59.88C123.65,-61.12 132.36,-62.41 140.93,-63.67"/>
<polygon fill="#63b8ff" stroke="#63b8ff" points="140.5,-67.14 150.9,-65.14 141.52,-60.22 140.5,-67.14"/>
</a>
</g>
</g>
<!-- Node3 -->
<g id="Node000003" class="node">
<title>Node3</title>
<g id="a_Node000003"><a xlink:href="namespaceEditor.html#a7f2229e4a768c53fcfb4b8dd1b1272d9" target="_top" xlink:title=" ">
<polygon fill="white" stroke="#666666" points="259,-40 158,-40 158,-21 259,-21 259,-40"/>
<text text-anchor="middle" x="208.5" y="-28" font-family="Helvetica,sans-Serif" font-size="10.00">Editor::SaveLevel</text>
</a>
</g>
</g>
<!-- Node1&#45;&gt;Node3 -->
<g id="edge2_Node000001_Node000003" class="edge">
<title>Node1&#45;&gt;Node3</title>
<g id="a_edge2_Node000001_Node000003"><a xlink:title=" ">
<path fill="none" stroke="#63b8ff" d="M115.26,-43.5C125.85,-42.01 136.95,-40.44 147.64,-38.94"/>
<polygon fill="#63b8ff" stroke="#63b8ff" points="148.31,-42.38 157.72,-37.52 147.33,-35.45 148.31,-42.38"/>
</a>
</g>
</g>
<!-- Node4 -->
<g id="Node000004" class="node">
<title>Node4</title>
<g id="a_Node000004"><a xlink:href="namespaceEditor.html#aa164982e09ca2812f69c6408ee8149e7" target="_top" xlink:title=" ">
<polygon fill="white" stroke="#666666" points="408,-40 302,-40 302,-21 408,-21 408,-40"/>
<text text-anchor="middle" x="355" y="-28" font-family="Helvetica,sans-Serif" font-size="10.00">Editor::SaveActors</text>
</a>
</g>
</g>
<!-- Node3&#45;&gt;Node4 -->
<g id="edge3_Node000003_Node000004" class="edge">
<title>Node3&#45;&gt;Node4</title>
<g id="a_edge3_Node000003_Node000004"><a xlink:title=" ">
<path fill="none" stroke="#63b8ff" d="M259.23,-30.5C269.62,-30.5 280.71,-30.5 291.5,-30.5"/>
<polygon fill="#63b8ff" stroke="#63b8ff" points="291.72,-34 301.72,-30.5 291.72,-27 291.72,-34"/>
</a>
</g>
</g>
<!-- Node5 -->
<g id="Node000005" class="node">
<title>Node5</title>
<g id="a_Node000005"><a xlink:href="actors_8c.html#af929d0a871448970cbdd4de3d4b58c3f" target="_top" xlink:title=" ">
<polygon fill="white" stroke="#666666" points="562,-67.5 452,-67.5 452,-37.5 562,-37.5 562,-67.5"/>
<text text-anchor="start" x="460" y="-55.5" font-family="Helvetica,sans-Serif" font-size="10.00">get_actor_resource</text>
<text text-anchor="middle" x="507" y="-44.5" font-family="Helvetica,sans-Serif" font-size="10.00">_location_name</text>
</a>
</g>
</g>
<!-- Node4&#45;&gt;Node5 -->
<g id="edge4_Node000004_Node000005" class="edge">
<title>Node4&#45;&gt;Node5</title>
<g id="a_edge4_Node000004_Node000005"><a xlink:title=" ">
<path fill="none" stroke="#63b8ff" d="M408.04,-38.13C418.86,-39.72 430.39,-41.41 441.59,-43.05"/>
<polygon fill="#63b8ff" stroke="#63b8ff" points="441.35,-46.56 451.76,-44.54 442.37,-39.63 441.35,-46.56"/>
</a>
</g>
</g>
<!-- Node6 -->
<g id="Node000006" class="node">
<title>Node6</title>
<g id="a_Node000006"><a xlink:href="structSpawnParams.html#a9748aa1883cadfa0810f0662f2f987cd" target="_top" xlink:title=" ">
<polygon fill="white" stroke="#666666" points="570,-19 444,-19 444,0 570,0 570,-19"/>
<text text-anchor="middle" x="507" y="-7" font-family="Helvetica,sans-Serif" font-size="10.00">SpawnParams::to_json</text>
</a>
</g>
</g>
<!-- Node4&#45;&gt;Node6 -->
<g id="edge5_Node000004_Node000006" class="edge">
<title>Node4&#45;&gt;Node6</title>
<g id="a_edge5_Node000004_Node000006"><a xlink:title=" ">
<path fill="none" stroke="#63b8ff" d="M408.04,-23.21C416.37,-22.05 425.12,-20.82 433.82,-19.6"/>
<polygon fill="#63b8ff" stroke="#63b8ff" points="434.57,-23.03 443.99,-18.18 433.6,-16.1 434.57,-23.03"/>
</a>
</g>
</g>
<!-- Node7 -->
<g id="Node000007" class="node">
<title>Node7</title>
<g id="a_Node000007"><a xlink:href="SpawnParams_8h.html#a862d476b8707d009d489c4200aecc3a8" target="_top" xlink:title=" ">
<polygon fill="white" stroke="#666666" points="711,-19 606,-19 606,0 711,0 711,-19"/>
<text text-anchor="middle" x="658.5" y="-7" font-family="Helvetica,sans-Serif" font-size="10.00">set_optional_from</text>
</a>
</g>
</g>
<!-- Node6&#45;&gt;Node7 -->
<g id="edge6_Node000006_Node000007" class="edge">
<title>Node6&#45;&gt;Node7</title>
<g id="a_edge6_Node000006_Node000007"><a xlink:title=" ">
<path fill="none" stroke="#63b8ff" d="M570.1,-9.5C578.54,-9.5 587.21,-9.5 595.64,-9.5"/>
<polygon fill="#63b8ff" stroke="#63b8ff" points="595.79,-13 605.79,-9.5 595.79,-6 595.79,-13"/>
</a>
</g>
</g>
</g>
</svg>
