<?xml version="1.0" encoding="UTF-8" standalone="no"?>
<!DOCTYPE svg PUBLIC "-//W3C//DTD SVG 1.1//EN"
 "http://www.w3.org/Graphics/SVG/1.1/DTD/svg11.dtd">
<!-- Generated by graphviz version 2.43.0 (0)
 -->
<!-- Title: ATrain::Spawn Pages: 1 -->
<!--zoomable 338 -->

<svg id="main" version="1.1" xmlns="http://www.w3.org/2000/svg" xmlns:xlink="http://www.w3.org/1999/xlink" xml:space="preserve" onload="init(evt)">

<style type="text/css"><![CDATA[
.node, .edge {opacity: 0.7;}
.node.selected, .edge.selected {opacity: 1;}
.edge:hover path { stroke: red; }
.edge:hover polygon { stroke: red; fill: red; }
]]></style>

<defs>
  <circle id="rim" cx="0" cy="0" r="7"/>
  <circle id="rim2" cx="0" cy="0" r="3.5"/>
  <g id="zoomPlus">
    <use xlink:href="#rim" fill="#404040"><set attributeName="fill" to="#808080" begin="zoomplus.mouseover" end="zoomplus.mouseout"/></use>
    <path d="M-4,0h8M0,-4v8" fill="none" stroke="white" stroke-width="1.5" pointer-events="none"/>
  </g>
  <g id="zoomMin">
    <use xlink:href="#rim" fill="#404040"><set attributeName="fill" to="#808080" begin="zoomminus.mouseover" end="zoomminus.mouseout"/></use>
    <path d="M-4,0h8" fill="none" stroke="white" stroke-width="1.5" pointer-events="none"/>
  </g>
  <g id="arrowUp" transform="translate(30 24)">
    <use xlink:href="#rim"/>
    <path pointer-events="none" fill="none" stroke="white" stroke-width="1.5" d="M0,-3.0v7 M-2.5,-0.5L0,-3.0L2.5,-0.5"/>
  </g>
  <g id="arrowRight" transform="rotate(90) translate(36 -43)">
    <use xlink:href="#rim"/>
    <path pointer-events="none" fill="none" stroke="white" stroke-width="1.5" d="M0,-3.0v7 M-2.5,-0.5L0,-3.0L2.5,-0.5"/>
  </g>
  <g id="arrowDown" transform="rotate(180) translate(-30 -48)">
    <use xlink:href="#rim"/>
    <path pointer-events="none" fill="none" stroke="white" stroke-width="1.5" d="M0,-3.0v7 M-2.5,-0.5L0,-3.0L2.5,-0.5"/>
  </g>
  <g id="arrowLeft" transform="rotate(270) translate(-36 17)">
    <use xlink:href="#rim"/>
    <path pointer-events="none" fill="none" stroke="white" stroke-width="1.5" d="M0,-3.0v7 M-2.5,-0.5L0,-3.0L2.5,-0.5"/>
  </g>
  <g id="resetDef">
    <use xlink:href="#rim2" fill="#404040"><set attributeName="fill" to="#808080" begin="reset.mouseover" end="reset.mouseout"/></use>
  </g>
</defs>
<script type="application/ecmascript">
var viewWidth = 1703;
var viewHeight = 338;
var sectionId = 'dynsection-7';
</script>
<script type="application/ecmascript" xlink:href="svg.min.js"/>
<svg id="graph" class="graph">
<g id="viewport">
<title>ATrain::Spawn</title>
<!-- Node1 -->
<g id="Node000001" class="node">
<title>Node1</title>
<g id="a_Node000001"><a xlink:title=" ">
<polygon fill="#999999" stroke="#666666" points="84,-197 0,-197 0,-178 84,-178 84,-197"/>
<text text-anchor="middle" x="42" y="-185" font-family="Helvetica,sans-Serif" font-size="10.00">ATrain::Spawn</text>
</a>
</g>
</g>
<!-- Node2 -->
<g id="Node000002" class="node">
<title>Node2</title>
<g id="a_Node000002"><a xlink:href="classATrain.html#a924e9fb51739e1fba6b0eff6635611bc" target="_top" xlink:title=" ">
<polygon fill="white" stroke="#666666" points="201,-197 120,-197 120,-178 201,-178 201,-197"/>
<text text-anchor="middle" x="160.5" y="-185" font-family="Helvetica,sans-Serif" font-size="10.00">ATrain::ATrain</text>
</a>
</g>
</g>
<!-- Node1&#45;&gt;Node2 -->
<g id="edge1_Node000001_Node000002" class="edge">
<title>Node1&#45;&gt;Node2</title>
<g id="a_edge1_Node000001_Node000002"><a xlink:title=" ">
<path fill="none" stroke="#63b8ff" d="M84.07,-187.5C92.36,-187.5 101.16,-187.5 109.71,-187.5"/>
<polygon fill="#63b8ff" stroke="#63b8ff" points="109.97,-191 119.97,-187.5 109.97,-184 109.97,-191"/>
</a>
</g>
</g>
<!-- Node3 -->
<g id="Node000003" class="node">
<title>Node3</title>
<g id="a_Node000003"><a xlink:href="classAActor.html#a679c43bacf3600fa2d7a6ab30e34a8a6" target="_top" xlink:title=" ">
<polygon fill="white" stroke="#666666" points="365,-293 278,-293 278,-274 365,-274 365,-293"/>
<text text-anchor="middle" x="321.5" y="-281" font-family="Helvetica,sans-Serif" font-size="10.00">AActor::AActor</text>
</a>
</g>
</g>
<!-- Node2&#45;&gt;Node3 -->
<g id="edge2_Node000002_Node000003" class="edge">
<title>Node2&#45;&gt;Node3</title>
<g id="a_edge2_Node000002_Node000003"><a xlink:title=" ">
<path fill="none" stroke="#63b8ff" d="M167.91,-197.18C179.55,-213.93 205.86,-248.2 237,-265.5 246.33,-270.68 257.02,-274.38 267.56,-277"/>
<polygon fill="#63b8ff" stroke="#63b8ff" points="267.06,-280.48 277.58,-279.21 268.56,-273.64 267.06,-280.48"/>
</a>
</g>
</g>
<!-- Node4 -->
<g id="Node000004" class="node">
<title>Node4</title>
<g id="a_Node000004"><a xlink:href="actors_8c.html#a91fb2e4e37e7c72fea918fe2c1bb4eaf" target="_top" xlink:title=" ">
<polygon fill="white" stroke="#666666" points="391.5,-256 251.5,-256 251.5,-237 391.5,-237 391.5,-256"/>
<text text-anchor="middle" x="321.5" y="-244" font-family="Helvetica,sans-Serif" font-size="10.00">add_actor_to_empty_slot</text>
</a>
</g>
</g>
<!-- Node2&#45;&gt;Node4 -->
<g id="edge3_Node000002_Node000004" class="edge">
<title>Node2&#45;&gt;Node4</title>
<g id="a_edge3_Node000002_Node000004"><a xlink:title=" ">
<path fill="none" stroke="#63b8ff" d="M176.23,-197.15C191.02,-206.44 214.76,-220.26 237,-228.5 242.93,-230.7 249.2,-232.66 255.54,-234.41"/>
<polygon fill="#63b8ff" stroke="#63b8ff" points="254.95,-237.88 265.51,-236.99 256.7,-231.1 254.95,-237.88"/>
</a>
</g>
</g>
<!-- Node30 -->
<g id="Node000030" class="node">
<title>Node30</title>
<g id="a_Node000030"><a xlink:href="Utils_8cpp.html#aeaf9fffe1458c3ce2a95a80906db76c3" target="_top" xlink:title=" ">
<polygon fill="white" stroke="#666666" points="406,-219 237,-219 237,-200 406,-200 406,-219"/>
<text text-anchor="middle" x="321.5" y="-207" font-family="Helvetica,sans-Serif" font-size="10.00">GetVehiclePathPointDistributed</text>
</a>
</g>
</g>
<!-- Node2&#45;&gt;Node30 -->
<g id="edge29_Node000002_Node000030" class="edge">
<title>Node2&#45;&gt;Node30</title>
<g id="a_edge29_Node000002_Node000030"><a xlink:title=" ">
<path fill="none" stroke="#63b8ff" d="M201.21,-192.99C213.5,-194.69 227.49,-196.63 241.47,-198.57"/>
<polygon fill="#63b8ff" stroke="#63b8ff" points="241.23,-202.07 251.62,-199.97 242.19,-195.13 241.23,-202.07"/>
</a>
</g>
</g>
<!-- Node31 -->
<g id="Node000031" class="node">
<title>Node31</title>
<g id="a_Node000031"><a xlink:href="code__80005FD0_8c.html#a905c0b4107a7a9717f49b4efcaacad4e" target="_top" xlink:title=" ">
<polygon fill="white" stroke="#666666" points="382.5,-181.5 260.5,-181.5 260.5,-151.5 382.5,-151.5 382.5,-181.5"/>
<text text-anchor="start" x="268.5" y="-169.5" font-family="Helvetica,sans-Serif" font-size="10.00">set_vehicle_pos_path</text>
<text text-anchor="middle" x="321.5" y="-158.5" font-family="Helvetica,sans-Serif" font-size="10.00">_point</text>
</a>
</g>
</g>
<!-- Node2&#45;&gt;Node31 -->
<g id="edge30_Node000002_Node000031" class="edge">
<title>Node2&#45;&gt;Node31</title>
<g id="a_edge30_Node000002_Node000031"><a xlink:title=" ">
<path fill="none" stroke="#63b8ff" d="M201.21,-182.25C215.99,-180.3 233.24,-178.03 249.95,-175.82"/>
<polygon fill="#63b8ff" stroke="#63b8ff" points="250.81,-179.24 260.26,-174.46 249.89,-172.3 250.81,-179.24"/>
</a>
</g>
</g>
<!-- Node34 -->
<g id="Node000034" class="node">
<title>Node34</title>
<g id="a_Node000034"><a xlink:href="code__80005FD0_8c.html#a777de4239351e9266f8b367ce46cb936" target="_top" xlink:title=" ">
<polygon fill="white" stroke="#666666" points="405.5,-133 237.5,-133 237.5,-114 405.5,-114 405.5,-133"/>
<text text-anchor="middle" x="321.5" y="-121" font-family="Helvetica,sans-Serif" font-size="10.00">update_vehicle_following_path</text>
</a>
</g>
</g>
<!-- Node2&#45;&gt;Node34 -->
<g id="edge33_Node000002_Node000034" class="edge">
<title>Node2&#45;&gt;Node34</title>
<g id="a_edge33_Node000002_Node000034"><a xlink:title=" ">
<path fill="none" stroke="#63b8ff" d="M174.74,-177.84C189.32,-167.65 213.77,-151.8 237,-142.5 243.4,-139.94 250.22,-137.68 257.1,-135.71"/>
<polygon fill="#63b8ff" stroke="#63b8ff" points="258.42,-138.97 267.17,-133 256.61,-132.21 258.42,-138.97"/>
</a>
</g>
</g>
<!-- Node41 -->
<g id="Node000041" class="node">
<title>Node41</title>
<g id="a_Node000041"><a xlink:href="math__util_8c.html#a9092c945c52b3a3481228b2724991e3c" target="_top" xlink:title=" ">
<polygon fill="white" stroke="#666666" points="354,-96 289,-96 289,-77 354,-77 354,-96"/>
<text text-anchor="middle" x="321.5" y="-84" font-family="Helvetica,sans-Serif" font-size="10.00">vec3s_set</text>
</a>
</g>
</g>
<!-- Node2&#45;&gt;Node41 -->
<g id="edge42_Node000002_Node000041" class="edge">
<title>Node2&#45;&gt;Node41</title>
<g id="a_edge42_Node000002_Node000041"><a xlink:title=" ">
<path fill="none" stroke="#63b8ff" d="M167.45,-177.91C178.73,-160.56 205.02,-124.03 237,-105.5 249.63,-98.18 264.85,-93.68 278.82,-90.92"/>
<polygon fill="#63b8ff" stroke="#63b8ff" points="279.46,-94.36 288.72,-89.19 278.26,-87.46 279.46,-94.36"/>
</a>
</g>
</g>
<!-- Node5 -->
<g id="Node000005" class="node">
<title>Node5</title>
<g id="a_Node000005"><a xlink:href="actors_8c.html#a39c023177b5a7686cdd1fc65b8b953e1" target="_top" xlink:title=" ">
<polygon fill="white" stroke="#666666" points="542.5,-219 480.5,-219 480.5,-200 542.5,-200 542.5,-219"/>
<text text-anchor="middle" x="511.5" y="-207" font-family="Helvetica,sans-Serif" font-size="10.00">actor_init</text>
</a>
</g>
</g>
<!-- Node4&#45;&gt;Node5 -->
<g id="edge4_Node000004_Node000005" class="edge">
<title>Node4&#45;&gt;Node5</title>
<g id="a_edge4_Node000004_Node000005"><a xlink:title=" ">
<path fill="none" stroke="#63b8ff" d="M370.91,-236.97C401.86,-230.88 441.51,-223.08 470.64,-217.35"/>
<polygon fill="#63b8ff" stroke="#63b8ff" points="471.33,-220.78 480.47,-215.41 469.98,-213.91 471.33,-220.78"/>
</a>
</g>
</g>
<!-- Node27 -->
<g id="Node000027" class="node">
<title>Node27</title>
<g id="a_Node000027"><a xlink:href="Game_8cpp.html#acea5cfd9ab22f745bd6627869b95a62e" target="_top" xlink:title=" ">
<polygon fill="white" stroke="#666666" points="567.5,-330 455.5,-330 455.5,-311 567.5,-311 567.5,-330"/>
<text text-anchor="middle" x="511.5" y="-318" font-family="Helvetica,sans-Serif" font-size="10.00">CM_ActorBeginPlay</text>
</a>
</g>
</g>
<!-- Node4&#45;&gt;Node27 -->
<g id="edge26_Node000004_Node000027" class="edge">
<title>Node4&#45;&gt;Node27</title>
<g id="a_edge26_Node000004_Node000027"><a xlink:title=" ">
<path fill="none" stroke="#63b8ff" d="M383.78,-256.12C391.52,-258.57 399.13,-261.64 406,-265.5 426.01,-276.73 422.18,-290.94 442,-302.5 445.01,-304.26 448.2,-305.85 451.48,-307.28"/>
<polygon fill="#63b8ff" stroke="#63b8ff" points="450.34,-310.59 460.93,-310.94 452.87,-304.06 450.34,-310.59"/>
</a>
</g>
</g>
<!-- Node28 -->
<g id="Node000028" class="node">
<title>Node28</title>
<g id="a_Node000028"><a xlink:href="Game_8cpp.html#a42f23077aaa52cb3ea5c7803b7dd6816" target="_top" xlink:title=" ">
<polygon fill="white" stroke="#666666" points="564.5,-293 458.5,-293 458.5,-274 564.5,-274 564.5,-293"/>
<text text-anchor="middle" x="511.5" y="-281" font-family="Helvetica,sans-Serif" font-size="10.00">CM_AddBaseActor</text>
</a>
</g>
</g>
<!-- Node4&#45;&gt;Node28 -->
<g id="edge27_Node000004_Node000028" class="edge">
<title>Node4&#45;&gt;Node28</title>
<g id="a_edge27_Node000004_Node000028"><a xlink:title=" ">
<path fill="none" stroke="#63b8ff" d="M370.91,-256.03C395.6,-260.89 425.82,-266.83 451.81,-271.95"/>
<polygon fill="#63b8ff" stroke="#63b8ff" points="451.44,-275.44 461.92,-273.94 452.79,-268.57 451.44,-275.44"/>
</a>
</g>
</g>
<!-- Node29 -->
<g id="Node000029" class="node">
<title>Node29</title>
<g id="a_Node000029"><a xlink:href="Game_8cpp.html#a0841ffe9a66e95aca42438b9d8ffc3d3" target="_top" xlink:title=" ">
<polygon fill="white" stroke="#666666" points="562,-256 461,-256 461,-237 562,-237 562,-256"/>
<text text-anchor="middle" x="511.5" y="-244" font-family="Helvetica,sans-Serif" font-size="10.00">CM_GetActorSize</text>
</a>
</g>
</g>
<!-- Node4&#45;&gt;Node29 -->
<g id="edge28_Node000004_Node000029" class="edge">
<title>Node4&#45;&gt;Node29</title>
<g id="a_edge28_Node000004_Node000029"><a xlink:title=" ">
<path fill="none" stroke="#63b8ff" d="M391.7,-246.5C411.05,-246.5 431.9,-246.5 450.66,-246.5"/>
<polygon fill="#63b8ff" stroke="#63b8ff" points="450.84,-250 460.84,-246.5 450.84,-243 450.84,-250"/>
</a>
</g>
</g>
<!-- Node6 -->
<g id="Node000006" class="node">
<title>Node6</title>
<g id="a_Node000006"><a xlink:href="collision_8c.html#a37aa55b3768d001533ad75e7f1b8388a" target="_top" xlink:title=" ">
<polygon fill="white" stroke="#666666" points="758,-192 617,-192 617,-173 758,-173 758,-192"/>
<text text-anchor="middle" x="687.5" y="-180" font-family="Helvetica,sans-Serif" font-size="10.00">check_bounding_collision</text>
</a>
</g>
</g>
<!-- Node5&#45;&gt;Node6 -->
<g id="edge5_Node000005_Node000006" class="edge">
<title>Node5&#45;&gt;Node6</title>
<g id="a_edge5_Node000005_Node000006"><a xlink:title=" ">
<path fill="none" stroke="#63b8ff" d="M542.81,-204.8C562.84,-201.69 589.96,-197.48 615.25,-193.56"/>
<polygon fill="#63b8ff" stroke="#63b8ff" points="615.86,-197 625.21,-192.01 614.79,-190.09 615.86,-197"/>
</a>
</g>
</g>
<!-- Node10 -->
<g id="Node000010" class="node">
<title>Node10</title>
<g id="a_Node000010"><a xlink:href="actors_8c.html#a1a9bccb586242555a9123ebd4ab70f2a" target="_top" xlink:title=" ">
<polygon fill="white" stroke="#666666" points="753.5,-116.5 621.5,-116.5 621.5,-86.5 753.5,-86.5 753.5,-116.5"/>
<text text-anchor="start" x="629.5" y="-104.5" font-family="Helvetica,sans-Serif" font-size="10.00">cleanup_red_and_green</text>
<text text-anchor="middle" x="687.5" y="-93.5" font-family="Helvetica,sans-Serif" font-size="10.00">_shells</text>
</a>
</g>
</g>
<!-- Node5&#45;&gt;Node10 -->
<g id="edge9_Node000005_Node000010" class="edge">
<title>Node5&#45;&gt;Node10</title>
<g id="a_edge9_Node000005_Node000010"><a xlink:title=" ">
<path fill="none" stroke="#63b8ff" d="M542.51,-203.03C554.87,-199.68 569.06,-194.92 581,-188.5 598.17,-179.26 636.73,-146.08 662.16,-123.47"/>
<polygon fill="#63b8ff" stroke="#63b8ff" points="664.79,-125.81 669.92,-116.54 660.13,-120.59 664.79,-125.81"/>
</a>
</g>
</g>
<!-- Node23 -->
<g id="Node000023" class="node">
<title>Node23</title>
<g id="a_Node000023"><a xlink:href="collision_8c.html#ad72fef3ffe32191d73b1822f512ebf3f" target="_top" xlink:title=" ">
<polygon fill="white" stroke="#666666" points="735,-303 640,-303 640,-284 735,-284 735,-303"/>
<text text-anchor="middle" x="687.5" y="-291" font-family="Helvetica,sans-Serif" font-size="10.00">func_802AAAAC</text>
</a>
</g>
</g>
<!-- Node5&#45;&gt;Node23 -->
<g id="edge22_Node000005_Node000023" class="edge">
<title>Node5&#45;&gt;Node23</title>
<g id="a_edge22_Node000005_Node000023"><a xlink:title=" ">
<path fill="none" stroke="#63b8ff" d="M542.61,-213.5C555.26,-216.24 569.65,-220.83 581,-228.5 602.81,-243.22 595.07,-260.96 617,-275.5 621.07,-278.2 625.52,-280.49 630.15,-282.44"/>
<polygon fill="#63b8ff" stroke="#63b8ff" points="629.21,-285.83 639.81,-285.98 631.62,-279.26 629.21,-285.83"/>
</a>
</g>
</g>
<!-- Node25 -->
<g id="Node000025" class="node">
<title>Node25</title>
<g id="a_Node000025"><a xlink:href="math__util_8c.html#af7b470ed76fce07b8042a47c96e5690b" target="_top" xlink:title=" ">
<polygon fill="white" stroke="#666666" points="741,-266 634,-266 634,-247 741,-247 741,-266"/>
<text text-anchor="middle" x="687.5" y="-254" font-family="Helvetica,sans-Serif" font-size="10.00">vec3f_copy_return</text>
</a>
</g>
</g>
<!-- Node5&#45;&gt;Node25 -->
<g id="edge24_Node000005_Node000025" class="edge">
<title>Node5&#45;&gt;Node25</title>
<g id="a_edge24_Node000005_Node000025"><a xlink:title=" ">
<path fill="none" stroke="#63b8ff" d="M542.51,-217.82C554.48,-221.14 568.39,-225 581,-228.5 597,-232.94 600.96,-234.2 617,-238.5 624.28,-240.45 632,-242.49 639.55,-244.46"/>
<polygon fill="#63b8ff" stroke="#63b8ff" points="638.76,-247.87 649.32,-247 640.52,-241.1 638.76,-247.87"/>
</a>
</g>
</g>
<!-- Node26 -->
<g id="Node000026" class="node">
<title>Node26</title>
<g id="a_Node000026"><a xlink:href="math__util_8c.html#a0e270ee67600c8c9c2f140c647d008a1" target="_top" xlink:title=" ">
<polygon fill="white" stroke="#666666" points="724.5,-229 650.5,-229 650.5,-210 724.5,-210 724.5,-229"/>
<text text-anchor="middle" x="687.5" y="-217" font-family="Helvetica,sans-Serif" font-size="10.00">vec3s_copy</text>
</a>
</g>
</g>
<!-- Node5&#45;&gt;Node26 -->
<g id="edge25_Node000005_Node000026" class="edge">
<title>Node5&#45;&gt;Node26</title>
<g id="a_edge25_Node000005_Node000026"><a xlink:title=" ">
<path fill="none" stroke="#63b8ff" d="M542.81,-211.24C569.66,-212.79 609.29,-215.06 640.13,-216.83"/>
<polygon fill="#63b8ff" stroke="#63b8ff" points="640.03,-220.34 650.22,-217.41 640.43,-213.35 640.03,-220.34"/>
</a>
</g>
</g>
<!-- Node7 -->
<g id="Node000007" class="node">
<title>Node7</title>
<g id="a_Node000007"><a xlink:href="collision_8c.html#ac312bf382cb40752f6b790a99e7cdcb6" target="_top" xlink:title=" ">
<polygon fill="white" stroke="#666666" points="921,-192 813,-192 813,-173 921,-173 921,-192"/>
<text text-anchor="middle" x="867" y="-180" font-family="Helvetica,sans-Serif" font-size="10.00">check_collision_yx</text>
</a>
</g>
</g>
<!-- Node6&#45;&gt;Node7 -->
<g id="edge6_Node000006_Node000007" class="edge">
<title>Node6&#45;&gt;Node7</title>
<g id="a_edge6_Node000006_Node000007"><a xlink:title=" ">
<path fill="none" stroke="#63b8ff" d="M758.14,-182.5C772.76,-182.5 788.1,-182.5 802.48,-182.5"/>
<polygon fill="#63b8ff" stroke="#63b8ff" points="802.75,-186 812.75,-182.5 802.75,-179 802.75,-186"/>
</a>
</g>
</g>
<!-- Node8 -->
<g id="Node000008" class="node">
<title>Node8</title>
<g id="a_Node000008"><a xlink:href="collision_8c.html#a4b48832a90e984536a0635a016ec4f28" target="_top" xlink:title=" ">
<polygon fill="white" stroke="#666666" points="920.5,-266 813.5,-266 813.5,-247 920.5,-247 920.5,-266"/>
<text text-anchor="middle" x="867" y="-254" font-family="Helvetica,sans-Serif" font-size="10.00">check_collision_zx</text>
</a>
</g>
</g>
<!-- Node6&#45;&gt;Node8 -->
<g id="edge7_Node000006_Node000008" class="edge">
<title>Node6&#45;&gt;Node8</title>
<g id="a_edge7_Node000006_Node000008"><a xlink:title=" ">
<path fill="none" stroke="#63b8ff" d="M736.6,-192.03C744.04,-194.51 751.43,-197.62 758,-201.5 777.76,-213.16 774.11,-227.06 794,-238.5 797.05,-240.26 800.27,-241.84 803.59,-243.27"/>
<polygon fill="#63b8ff" stroke="#63b8ff" points="802.56,-246.63 813.15,-246.92 805.05,-240.08 802.56,-246.63"/>
</a>
</g>
</g>
<!-- Node9 -->
<g id="Node000009" class="node">
<title>Node9</title>
<g id="a_Node000009"><a xlink:href="collision_8c.html#a21fef964ab48191a1c0341954ef27a40" target="_top" xlink:title=" ">
<polygon fill="white" stroke="#666666" points="920.5,-229 813.5,-229 813.5,-210 920.5,-210 920.5,-229"/>
<text text-anchor="middle" x="867" y="-217" font-family="Helvetica,sans-Serif" font-size="10.00">check_collision_zy</text>
</a>
</g>
</g>
<!-- Node6&#45;&gt;Node9 -->
<g id="edge8_Node000006_Node000009" class="edge">
<title>Node6&#45;&gt;Node9</title>
<g id="a_edge8_Node000006_Node000009"><a xlink:title=" ">
<path fill="none" stroke="#63b8ff" d="M734.21,-192.03C757.41,-196.86 785.79,-202.78 810.27,-207.88"/>
<polygon fill="#63b8ff" stroke="#63b8ff" points="809.63,-211.33 820.14,-209.94 811.06,-204.47 809.63,-211.33"/>
</a>
</g>
</g>
<!-- Node11 -->
<g id="Node000011" class="node">
<title>Node11</title>
<g id="a_Node000011"><a xlink:href="Game_8cpp.html#a693de7d8b89fe291aafea86bc64a0a2e" target="_top" xlink:title=" ">
<polygon fill="white" stroke="#666666" points="907,-69 827,-69 827,-50 907,-50 907,-69"/>
<text text-anchor="middle" x="867" y="-57" font-family="Helvetica,sans-Serif" font-size="10.00">CM_GetActor</text>
</a>
</g>
</g>
<!-- Node10&#45;&gt;Node11 -->
<g id="edge10_Node000010_Node000011" class="edge">
<title>Node10&#45;&gt;Node11</title>
<g id="a_edge10_Node000010_Node000011"><a xlink:title=" ">
<path fill="none" stroke="#63b8ff" d="M752.08,-86.46C773.44,-81.4 796.92,-75.85 816.99,-71.1"/>
<polygon fill="#63b8ff" stroke="#63b8ff" points="817.91,-74.48 826.84,-68.77 816.3,-67.66 817.91,-74.48"/>
</a>
</g>
</g>
<!-- Node12 -->
<g id="Node000012" class="node">
<title>Node12</title>
<g id="a_Node000012"><a xlink:href="code__80005FD0_8c.html#ad301b978cdd3c4cc190b10be050d51d8" target="_top" xlink:title=" ">
<polygon fill="white" stroke="#666666" points="940,-154.5 794,-154.5 794,-124.5 940,-124.5 940,-154.5"/>
<text text-anchor="start" x="802" y="-142.5" font-family="Helvetica,sans-Serif" font-size="10.00">delete_actor_in_unexpired</text>
<text text-anchor="middle" x="867" y="-131.5" font-family="Helvetica,sans-Serif" font-size="10.00">_actor_list</text>
</a>
</g>
</g>
<!-- Node10&#45;&gt;Node12 -->
<g id="edge11_Node000010_Node000012" class="edge">
<title>Node10&#45;&gt;Node12</title>
<g id="a_edge11_Node000010_Node000012"><a xlink:title=" ">
<path fill="none" stroke="#63b8ff" d="M753.59,-115.43C764.12,-117.69 775.13,-120.05 785.96,-122.36"/>
<polygon fill="#63b8ff" stroke="#63b8ff" points="785.33,-125.81 795.84,-124.48 786.8,-118.96 785.33,-125.81"/>
</a>
</g>
</g>
<!-- Node13 -->
<g id="Node000013" class="node">
<title>Node13</title>
<g id="a_Node000013"><a xlink:href="actors_8c.html#a694ec6ef7548b8618aeb35c038d3a9b9" target="_top" xlink:title=" ">
<polygon fill="white" stroke="#666666" points="908.5,-106 825.5,-106 825.5,-87 908.5,-87 908.5,-106"/>
<text text-anchor="middle" x="867" y="-94" font-family="Helvetica,sans-Serif" font-size="10.00">destroy_actor</text>
</a>
</g>
</g>
<!-- Node10&#45;&gt;Node13 -->
<g id="edge12_Node000010_Node000013" class="edge">
<title>Node10&#45;&gt;Node13</title>
<g id="a_edge12_Node000010_Node000013"><a xlink:title=" ">
<path fill="none" stroke="#63b8ff" d="M753.59,-99.67C773.97,-99.09 796.14,-98.47 815.37,-97.93"/>
<polygon fill="#63b8ff" stroke="#63b8ff" points="815.53,-101.42 825.43,-97.64 815.33,-94.43 815.53,-101.42"/>
</a>
</g>
</g>
<!-- Node14 -->
<g id="Node000014" class="node">
<title>Node14</title>
<g id="a_Node000014"><a xlink:href="actors_8c.html#a12dc3ccac4c7d8569eadac0af4fd6f9f" target="_top" xlink:title=" ">
<polygon fill="white" stroke="#666666" points="1134,-106 976,-106 976,-87 1134,-87 1134,-106"/>
<text text-anchor="middle" x="1055" y="-94" font-family="Helvetica,sans-Serif" font-size="10.00">play_sound_before_despawn</text>
</a>
</g>
</g>
<!-- Node13&#45;&gt;Node14 -->
<g id="edge13_Node000013_Node000014" class="edge">
<title>Node13&#45;&gt;Node14</title>
<g id="a_edge13_Node000013_Node000014"><a xlink:title=" ">
<path fill="none" stroke="#63b8ff" d="M908.82,-96.5C925.65,-96.5 945.86,-96.5 965.77,-96.5"/>
<polygon fill="#63b8ff" stroke="#63b8ff" points="965.82,-100 975.82,-96.5 965.82,-93 965.82,-100"/>
</a>
</g>
</g>
<!-- Node15 -->
<g id="Node000015" class="node">
<title>Node15</title>
<g id="a_Node000015"><a xlink:href="external_8c.html#ae72057869772019e4464c87d4e16c682" target="_top" xlink:title=" ">
<polygon fill="white" stroke="#666666" points="1262,-106 1170,-106 1170,-87 1262,-87 1262,-106"/>
<text text-anchor="middle" x="1216" y="-94" font-family="Helvetica,sans-Serif" font-size="10.00">func_800C99E0</text>
</a>
</g>
</g>
<!-- Node14&#45;&gt;Node15 -->
<g id="edge14_Node000014_Node000015" class="edge">
<title>Node14&#45;&gt;Node15</title>
<g id="a_edge14_Node000014_Node000015"><a xlink:title=" ">
<path fill="none" stroke="#63b8ff" d="M1134.1,-96.5C1142.72,-96.5 1151.35,-96.5 1159.61,-96.5"/>
<polygon fill="#63b8ff" stroke="#63b8ff" points="1159.83,-100 1169.83,-96.5 1159.83,-93 1159.83,-100"/>
</a>
</g>
</g>
<!-- Node16 -->
<g id="Node000016" class="node">
<title>Node16</title>
<g id="a_Node000016"><a xlink:href="external_8c.html#aeb87c527482a244173df36a1f3d4f446" target="_top" xlink:title=" ">
<polygon fill="white" stroke="#666666" points="1390,-125 1298,-125 1298,-106 1390,-106 1390,-125"/>
<text text-anchor="middle" x="1344" y="-113" font-family="Helvetica,sans-Serif" font-size="10.00">func_800C21E8</text>
</a>
</g>
</g>
<!-- Node15&#45;&gt;Node16 -->
<g id="edge15_Node000015_Node000016" class="edge">
<title>Node15&#45;&gt;Node16</title>
<g id="a_edge15_Node000015_Node000016"><a xlink:title=" ">
<path fill="none" stroke="#63b8ff" d="M1262.13,-103.31C1270.46,-104.56 1279.23,-105.88 1287.81,-107.18"/>
<polygon fill="#63b8ff" stroke="#63b8ff" points="1287.35,-110.65 1297.76,-108.68 1288.39,-103.73 1287.35,-110.65"/>
</a>
</g>
</g>
<!-- Node17 -->
<g id="Node000017" class="node">
<title>Node17</title>
<g id="a_Node000017"><a xlink:href="external_8c.html#a028d40421b90c38f68ebfd5acc626f2e" target="_top" xlink:title=" ">
<polygon fill="white" stroke="#666666" points="1390,-88 1298,-88 1298,-69 1390,-69 1390,-88"/>
<text text-anchor="middle" x="1344" y="-76" font-family="Helvetica,sans-Serif" font-size="10.00">func_800C5578</text>
</a>
</g>
</g>
<!-- Node15&#45;&gt;Node17 -->
<g id="edge16_Node000015_Node000017" class="edge">
<title>Node15&#45;&gt;Node17</title>
<g id="a_edge16_Node000015_Node000017"><a xlink:title=" ">
<path fill="none" stroke="#63b8ff" d="M1262.13,-90.05C1270.46,-88.86 1279.23,-87.61 1287.81,-86.38"/>
<polygon fill="#63b8ff" stroke="#63b8ff" points="1288.35,-89.84 1297.76,-84.96 1287.36,-82.91 1288.35,-89.84"/>
</a>
</g>
</g>
<!-- Node18 -->
<g id="Node000018" class="node">
<title>Node18</title>
<g id="a_Node000018"><a xlink:href="external_8c.html#ac0fb767de7e14a03f1bcfa53f0abd23b" target="_top" xlink:title=" ">
<polygon fill="white" stroke="#666666" points="1566,-125 1426,-125 1426,-106 1566,-106 1566,-125"/>
<text text-anchor="middle" x="1496" y="-113" font-family="Helvetica,sans-Serif" font-size="10.00">delete_sound_from_bank</text>
</a>
</g>
</g>
<!-- Node17&#45;&gt;Node18 -->
<g id="edge17_Node000017_Node000018" class="edge">
<title>Node17&#45;&gt;Node18</title>
<g id="a_edge17_Node000017_Node000018"><a xlink:title=" ">
<path fill="none" stroke="#63b8ff" d="M1383.63,-88.03C1402.8,-92.76 1426.16,-98.52 1446.52,-103.54"/>
<polygon fill="#63b8ff" stroke="#63b8ff" points="1445.69,-106.94 1456.24,-105.94 1447.37,-100.15 1445.69,-106.94"/>
</a>
</g>
</g>
<!-- Node20 -->
<g id="Node000020" class="node">
<title>Node20</title>
<g id="a_Node000020"><a xlink:href="external_8c.html#ab83bd36e63f0f1baddcb2482b5ad31b0" target="_top" xlink:title=" ">
<polygon fill="white" stroke="#666666" points="1542.5,-88 1449.5,-88 1449.5,-69 1542.5,-69 1542.5,-88"/>
<text text-anchor="middle" x="1496" y="-76" font-family="Helvetica,sans-Serif" font-size="10.00">func_800C41CC</text>
</a>
</g>
</g>
<!-- Node17&#45;&gt;Node20 -->
<g id="edge19_Node000017_Node000020" class="edge">
<title>Node17&#45;&gt;Node20</title>
<g id="a_edge19_Node000017_Node000020"><a xlink:title=" ">
<path fill="none" stroke="#63b8ff" d="M1390,-78.5C1405.37,-78.5 1422.74,-78.5 1438.86,-78.5"/>
<polygon fill="#63b8ff" stroke="#63b8ff" points="1439.25,-82 1449.25,-78.5 1439.25,-75 1439.25,-82"/>
</a>
</g>
</g>
<!-- Node21 -->
<g id="Node000021" class="node">
<title>Node21</title>
<g id="a_Node000021"><a xlink:href="port__eu_8c.html#aa89dfaecca46c6d071f08c1898d1f7c9" target="_top" xlink:title=" ">
<polygon fill="white" stroke="#666666" points="1542.5,-51 1449.5,-51 1449.5,-32 1542.5,-32 1542.5,-51"/>
<text text-anchor="middle" x="1496" y="-39" font-family="Helvetica,sans-Serif" font-size="10.00">func_800CBBE8</text>
</a>
</g>
</g>
<!-- Node17&#45;&gt;Node21 -->
<g id="edge20_Node000017_Node000021" class="edge">
<title>Node17&#45;&gt;Node21</title>
<g id="a_edge20_Node000017_Node000021"><a xlink:title=" ">
<path fill="none" stroke="#63b8ff" d="M1383.63,-68.97C1402.8,-64.24 1426.16,-58.48 1446.52,-53.46"/>
<polygon fill="#63b8ff" stroke="#63b8ff" points="1447.37,-56.85 1456.24,-51.06 1445.69,-50.06 1447.37,-56.85"/>
</a>
</g>
</g>
<!-- Node19 -->
<g id="Node000019" class="node">
<title>Node19</title>
<g id="a_Node000019"><a xlink:href="external_8c.html#a358ac55e8ab5262dcae8037334be06d7" target="_top" xlink:title=" ">
<polygon fill="white" stroke="#666666" points="1694.5,-125 1602.5,-125 1602.5,-106 1694.5,-106 1694.5,-125"/>
<text text-anchor="middle" x="1648.5" y="-113" font-family="Helvetica,sans-Serif" font-size="10.00">func_800C40F0</text>
</a>
</g>
</g>
<!-- Node18&#45;&gt;Node19 -->
<g id="edge18_Node000018_Node000019" class="edge">
<title>Node18&#45;&gt;Node19</title>
<g id="a_edge18_Node000018_Node000019"><a xlink:title=" ">
<path fill="none" stroke="#63b8ff" d="M1566.08,-115.5C1574.87,-115.5 1583.78,-115.5 1592.31,-115.5"/>
<polygon fill="#63b8ff" stroke="#63b8ff" points="1592.5,-119 1602.5,-115.5 1592.5,-112 1592.5,-119"/>
</a>
</g>
</g>
<!-- Node22 -->
<g id="Node000022" class="node">
<title>Node22</title>
<g id="a_Node000022"><a xlink:href="port__eu_8c.html#af361a20d2e08f30c53a237ca481ff734" target="_top" xlink:title=" ">
<polygon fill="white" stroke="#666666" points="1695,-51 1602,-51 1602,-32 1695,-32 1695,-51"/>
<text text-anchor="middle" x="1648.5" y="-39" font-family="Helvetica,sans-Serif" font-size="10.00">func_800CBB48</text>
</a>
</g>
</g>
<!-- Node21&#45;&gt;Node22 -->
<g id="edge21_Node000021_Node000022" class="edge">
<title>Node21&#45;&gt;Node22</title>
<g id="a_edge21_Node000021_Node000022"><a xlink:title=" ">
<path fill="none" stroke="#63b8ff" d="M1542.56,-41.5C1557.96,-41.5 1575.34,-41.5 1591.46,-41.5"/>
<polygon fill="#63b8ff" stroke="#63b8ff" points="1591.83,-45 1601.83,-41.5 1591.83,-38 1591.83,-45"/>
</a>
</g>
</g>
<!-- Node24 -->
<g id="Node000024" class="node">
<title>Node24</title>
<g id="a_Node000024"><a xlink:href="math__util_8c.html#a79fd07a0971ec96a3ff0801963a2fa7f" target="_top" xlink:title=" ">
<polygon fill="white" stroke="#666666" points="899,-303 835,-303 835,-284 899,-284 899,-303"/>
<text text-anchor="middle" x="867" y="-291" font-family="Helvetica,sans-Serif" font-size="10.00">vec3f_set</text>
</a>
</g>
</g>
<!-- Node23&#45;&gt;Node24 -->
<g id="edge23_Node000023_Node000024" class="edge">
<title>Node23&#45;&gt;Node24</title>
<g id="a_edge23_Node000023_Node000024"><a xlink:title=" ">
<path fill="none" stroke="#63b8ff" d="M735.14,-293.5C762.88,-293.5 797.78,-293.5 824.56,-293.5"/>
<polygon fill="#63b8ff" stroke="#63b8ff" points="824.76,-297 834.76,-293.5 824.76,-290 824.76,-297"/>
</a>
</g>
</g>
<!-- Node32 -->
<g id="Node000032" class="node">
<title>Node32</title>
<g id="a_Node000032"><a xlink:href="Game_8cpp.html#a545c1a384e93cc7b616dfee707f5d962" target="_top" xlink:title=" ">
<polygon fill="white" stroke="#666666" points="545.5,-142 477.5,-142 477.5,-123 545.5,-123 545.5,-142"/>
<text text-anchor="middle" x="511.5" y="-130" font-family="Helvetica,sans-Serif" font-size="10.00">IsDkJungle</text>
</a>
</g>
</g>
<!-- Node31&#45;&gt;Node32 -->
<g id="edge31_Node000031_Node000032" class="edge">
<title>Node31&#45;&gt;Node32</title>
<g id="a_edge31_Node000031_Node000032"><a xlink:title=" ">
<path fill="none" stroke="#63b8ff" d="M382.5,-155.65C410.08,-150.66 442.17,-144.86 467.32,-140.31"/>
<polygon fill="#63b8ff" stroke="#63b8ff" points="468.07,-143.73 477.29,-138.51 466.83,-136.84 468.07,-143.73"/>
</a>
</g>
</g>
<!-- Node33 -->
<g id="Node000033" class="node">
<title>Node33</title>
<g id="a_Node000033"><a xlink:href="Game_8cpp.html#ad474b8b257813cceeae25ab5205273c4" target="_top" xlink:title=" ">
<polygon fill="white" stroke="#666666" points="560.5,-179 462.5,-179 462.5,-160 560.5,-160 560.5,-179"/>
<text text-anchor="middle" x="511.5" y="-167" font-family="Helvetica,sans-Serif" font-size="10.00">IsKalimariDesert</text>
</a>
</g>
</g>
<!-- Node31&#45;&gt;Node33 -->
<g id="edge32_Node000031_Node000033" class="edge">
<title>Node31&#45;&gt;Node33</title>
<g id="a_edge32_Node000031_Node000033"><a xlink:title=" ">
<path fill="none" stroke="#63b8ff" d="M382.5,-167.46C404.77,-167.81 429.97,-168.21 452.09,-168.57"/>
<polygon fill="#63b8ff" stroke="#63b8ff" points="452.29,-172.07 462.34,-168.73 452.4,-165.07 452.29,-172.07"/>
</a>
</g>
</g>
<!-- Node34&#45;&gt;Node32 -->
<g id="edge39_Node000034_Node000032" class="edge">
<title>Node34&#45;&gt;Node32</title>
<g id="a_edge39_Node000034_Node000032"><a xlink:title=" ">
<path fill="none" stroke="#63b8ff" d="M405.51,-127.47C426.82,-128.49 448.9,-129.55 467.28,-130.43"/>
<polygon fill="#63b8ff" stroke="#63b8ff" points="467.2,-133.93 477.36,-130.91 467.53,-126.94 467.2,-133.93"/>
</a>
</g>
</g>
<!-- Node34&#45;&gt;Node33 -->
<g id="edge40_Node000034_Node000033" class="edge">
<title>Node34&#45;&gt;Node33</title>
<g id="a_edge40_Node000034_Node000033"><a xlink:title=" ">
<path fill="none" stroke="#63b8ff" d="M365.46,-133.02C378.5,-135.98 392.85,-139.31 406,-142.5 425.36,-147.2 446.66,-152.66 464.95,-157.42"/>
<polygon fill="#63b8ff" stroke="#63b8ff" points="464.21,-160.85 474.77,-159.99 465.99,-154.08 464.21,-160.85"/>
</a>
</g>
</g>
<!-- Node35 -->
<g id="Node000035" class="node">
<title>Node35</title>
<g id="a_Node000035"><a xlink:href="code__80005FD0_8c.html#ade9dca16c41c3d924b84f32a203ba823" target="_top" xlink:title=" ">
<polygon fill="white" stroke="#666666" points="571.5,-104.5 451.5,-104.5 451.5,-74.5 571.5,-74.5 571.5,-104.5"/>
<text text-anchor="start" x="459.5" y="-92.5" font-family="Helvetica,sans-Serif" font-size="10.00">find_closest_vehicles</text>
<text text-anchor="middle" x="511.5" y="-81.5" font-family="Helvetica,sans-Serif" font-size="10.00">_path_point</text>
</a>
</g>
</g>
<!-- Node34&#45;&gt;Node35 -->
<g id="edge34_Node000034_Node000035" class="edge">
<title>Node34&#45;&gt;Node35</title>
<g id="a_edge34_Node000034_Node000035"><a xlink:title=" ">
<path fill="none" stroke="#63b8ff" d="M375.12,-113.98C395.65,-110.27 419.48,-105.96 441.37,-102"/>
<polygon fill="#63b8ff" stroke="#63b8ff" points="442.06,-105.44 451.27,-100.21 440.81,-98.55 442.06,-105.44"/>
</a>
</g>
</g>
<!-- Node36 -->
<g id="Node000036" class="node">
<title>Node36</title>
<g id="a_Node000036"><a xlink:href="code__80005FD0_8c.html#a79cd9c001e0a06c9cab23fe2cf070abf" target="_top" xlink:title=" ">
<polygon fill="white" stroke="#666666" points="581,-56 442,-56 442,-37 581,-37 581,-56"/>
<text text-anchor="middle" x="511.5" y="-44" font-family="Helvetica,sans-Serif" font-size="10.00">get_angle_between_path</text>
</a>
</g>
</g>
<!-- Node34&#45;&gt;Node36 -->
<g id="edge35_Node000034_Node000036" class="edge">
<title>Node34&#45;&gt;Node36</title>
<g id="a_edge35_Node000034_Node000036"><a xlink:title=" ">
<path fill="none" stroke="#63b8ff" d="M386.97,-113.94C393.62,-111.69 400.1,-108.92 406,-105.5 426.69,-93.51 421.66,-78.09 442,-65.5 445.54,-63.31 449.34,-61.36 453.27,-59.64"/>
<polygon fill="#63b8ff" stroke="#63b8ff" points="454.55,-62.9 462.6,-56 452.01,-56.37 454.55,-62.9"/>
</a>
</g>
</g>
<!-- Node40 -->
<g id="Node000040" class="node">
<title>Node40</title>
<g id="a_Node000040"><a xlink:href="math_8h.html#a37bde043e94a6f074c78f10518fb5d99" target="_top" xlink:title=" ">
<polygon fill="white" stroke="#666666" points="531,-19 492,-19 492,0 531,0 531,-19"/>
<text text-anchor="middle" x="511.5" y="-7" font-family="Helvetica,sans-Serif" font-size="10.00">sqrtf</text>
</a>
</g>
</g>
<!-- Node34&#45;&gt;Node40 -->
<g id="edge41_Node000034_Node000040" class="edge">
<title>Node34&#45;&gt;Node40</title>
<g id="a_edge41_Node000034_Node000040"><a xlink:title=" ">
<path fill="none" stroke="#63b8ff" d="M392.26,-113.84C397.17,-111.57 401.83,-108.83 406,-105.5 435.54,-81.96 413.16,-52.9 442,-28.5 453.08,-19.13 468.43,-14.36 481.79,-11.94"/>
<polygon fill="#63b8ff" stroke="#63b8ff" points="482.57,-15.36 491.96,-10.46 481.56,-8.44 482.57,-15.36"/>
</a>
</g>
</g>
<!-- Node37 -->
<g id="Node000037" class="node">
<title>Node37</title>
<g id="a_Node000037"><a xlink:href="math__util_8c.html#a84cf9d4ec33146a64c230ed4cec56632" target="_top" xlink:title=" ">
<polygon fill="white" stroke="#666666" points="755,-55.5 620,-55.5 620,-25.5 755,-25.5 755,-55.5"/>
<text text-anchor="start" x="628" y="-43.5" font-family="Helvetica,sans-Serif" font-size="10.00">get_angle_between_two</text>
<text text-anchor="middle" x="687.5" y="-32.5" font-family="Helvetica,sans-Serif" font-size="10.00">_vectors</text>
</a>
</g>
</g>
<!-- Node36&#45;&gt;Node37 -->
<g id="edge36_Node000036_Node000037" class="edge">
<title>Node36&#45;&gt;Node37</title>
<g id="a_edge36_Node000036_Node000037"><a xlink:title=" ">
<path fill="none" stroke="#63b8ff" d="M581.27,-44.13C590.62,-43.81 600.26,-43.47 609.74,-43.15"/>
<polygon fill="#63b8ff" stroke="#63b8ff" points="610.06,-46.64 619.93,-42.8 609.82,-39.64 610.06,-46.64"/>
</a>
</g>
</g>
<!-- Node38 -->
<g id="Node000038" class="node">
<title>Node38</title>
<g id="a_Node000038"><a xlink:href="math__util_8c.html#aaa39a297477f56051975259f4bddd829" target="_top" xlink:title=" ">
<polygon fill="white" stroke="#666666" points="892,-32 842,-32 842,-13 892,-13 892,-32"/>
<text text-anchor="middle" x="867" y="-20" font-family="Helvetica,sans-Serif" font-size="10.00">atan2s</text>
</a>
</g>
</g>
<!-- Node37&#45;&gt;Node38 -->
<g id="edge37_Node000037_Node000038" class="edge">
<title>Node37&#45;&gt;Node38</title>
<g id="a_edge37_Node000037_Node000038"><a xlink:title=" ">
<path fill="none" stroke="#63b8ff" d="M755.1,-33.75C781.14,-31.11 809.89,-28.19 831.6,-25.99"/>
<polygon fill="#63b8ff" stroke="#63b8ff" points="832.05,-29.46 841.64,-24.97 831.34,-22.5 832.05,-29.46"/>
</a>
</g>
</g>
<!-- Node39 -->
<g id="Node000039" class="node">
<title>Node39</title>
<g id="a_Node000039"><a xlink:href="math__util_8c.html#a0273b0ea0783a06996c28669a7438ed9" target="_top" xlink:title=" ">
<polygon fill="white" stroke="#666666" points="1096,-32 1014,-32 1014,-13 1096,-13 1096,-32"/>
<text text-anchor="middle" x="1055" y="-20" font-family="Helvetica,sans-Serif" font-size="10.00">atan2_lookup</text>
</a>
</g>
</g>
<!-- Node38&#45;&gt;Node39 -->
<g id="edge38_Node000038_Node000039" class="edge">
<title>Node38&#45;&gt;Node39</title>
<g id="a_edge38_Node000038_Node000039"><a xlink:title=" ">
<path fill="none" stroke="#63b8ff" d="M892.32,-22.5C920.37,-22.5 967.26,-22.5 1003.34,-22.5"/>
<polygon fill="#63b8ff" stroke="#63b8ff" points="1003.68,-26 1013.68,-22.5 1003.68,-19 1003.68,-26"/>
</a>
</g>
</g>
</g>
</svg>

<g id="navigator" transform="translate(0 0)" fill="#404254">
  <rect fill="#f2f5e9" fill-opacity="0.5" stroke="#606060" stroke-width=".5" x="0" y="0" width="60" height="60"/>
  <use id="zoomplus" xlink:href="#zoomPlus" x="17" y="9" onmousedown="handleZoom(evt,'in')"/>
  <use id="zoomminus" xlink:href="#zoomMin" x="42" y="9" onmousedown="handleZoom(evt,'out')"/>
  <use id="reset" xlink:href="#resetDef" x="30" y="36" onmousedown="handleReset()"/>
   <use id="arrowup" xlink:href="#arrowUp" x="0" y="0" onmousedown="handlePan(0,-1)"/>
  <use id="arrowright" xlink:href="#arrowRight" x="0" y="0" onmousedown="handlePan(1,0)"/>
  <use id="arrowdown" xlink:href="#arrowDown" x="0" y="0" onmousedown="handlePan(0,1)"/>
  <use id="arrowleft" xlink:href="#arrowLeft" x="0" y="0" onmousedown="handlePan(-1,0)"/>
</g>
<svg viewBox="0 0 15 15" width="100%" height="30px" preserveAspectRatio="xMaxYMin meet">
 <g id="arrow_out" transform="scale(0.3 0.3)">
  <a xlink:href="classATrain_aa39976112e962ff1536c33236e16cc20_cgraph_org.svg" target="_base">
   <rect id="button" ry="5" rx="5" y="6" x="6" height="38" width="38"
        fill="#f2f5e9" fill-opacity="0.5" stroke="#606060" stroke-width="1.0"/>
   <path id="arrow"
     d="M 11.500037,31.436501 C 11.940474,20.09759 22.043105,11.32322 32.158766,21.979434 L 37.068811,17.246167 C 37.068811,17.246167 37.088388,32 37.088388,32 L 22.160133,31.978069 C 22.160133,31.978069 26.997745,27.140456 26.997745,27.140456 C 18.528582,18.264221 13.291696,25.230495 11.500037,31.436501 z"
     style="fill:#404040;"/>
  </a>
 </g>
</svg>

<style type='text/css'>
<![CDATA[
[data-mouse-over-selected='false'] { opacity: 0.7; }
[data-mouse-over-selected='true']  { opacity: 1.0; }
]]>
</style>
<script type="application/ecmascript"><![CDATA[
document.addEventListener('DOMContentLoaded', (event) => {
  highlightEdges();
  highlightAdjacentNodes();
});
]]></script>
</svg>
