<?xml version="1.0" encoding="UTF-8" standalone="no"?>
<!DOCTYPE svg PUBLIC "-//W3C//DTD SVG 1.1//EN"
 "http://www.w3.org/Graphics/SVG/1.1/DTD/svg11.dtd">
<!-- Generated by graphviz version 2.43.0 (0)
 -->
<!-- Title: FrappeSnowland::BeginPlay Pages: 1 -->
<svg width="1658pt" height="891pt"
 viewBox="0.00 0.00 1658.00 891.21" xmlns="http://www.w3.org/2000/svg" xmlns:xlink="http://www.w3.org/1999/xlink">
<g id="graph0" class="graph" transform="scale(1 1) rotate(0) translate(4 887.21)">
<title>FrappeSnowland::BeginPlay</title>
<!-- Node1 -->
<g id="Node000001" class="node">
<title>Node1</title>
<g id="a_Node000001"><a xlink:title=" ">
<polygon fill="#999999" stroke="#666666" points="152,-656.21 0,-656.21 0,-637.21 152,-637.21 152,-656.21"/>
<text text-anchor="middle" x="76" y="-644.21" font-family="Helvetica,sans-Serif" font-size="10.00">FrappeSnowland::BeginPlay</text>
</a>
</g>
</g>
<!-- Node2 -->
<g id="Node000002" class="node">
<title>Node2</title>
<g id="a_Node000002"><a xlink:href="classOBombKart.html#a9fa11c43dd1885221b160bd688eceff0" target="_top" xlink:title=" ">
<polygon fill="white" stroke="#666666" points="307,-751.21 196,-751.21 196,-732.21 307,-732.21 307,-751.21"/>
<text text-anchor="middle" x="251.5" y="-739.21" font-family="Helvetica,sans-Serif" font-size="10.00">OBombKart::Spawn</text>
</a>
</g>
</g>
<!-- Node1&#45;&gt;Node2 -->
<g id="edge1_Node000001_Node000002" class="edge">
<title>Node1&#45;&gt;Node2</title>
<g id="a_edge1_Node000001_Node000002"><a xlink:title=" ">
<path fill="none" stroke="#63b8ff" d="M94.59,-656.35C125.2,-673.1 188.39,-707.71 224.21,-727.32"/>
<polygon fill="#63b8ff" stroke="#63b8ff" points="222.67,-730.46 233.12,-732.2 226.03,-724.32 222.67,-730.46"/>
</a>
</g>
</g>
<!-- Node10 -->
<g id="Node000010" class="node">
<title>Node10</title>
<g id="a_Node000010"><a xlink:href="classOSnowman.html#a4ed5e3e619ec3b84efb3d0547f028304" target="_top" xlink:title=" ">
<polygon fill="white" stroke="#666666" points="306.5,-826.21 196.5,-826.21 196.5,-807.21 306.5,-807.21 306.5,-826.21"/>
<text text-anchor="middle" x="251.5" y="-814.21" font-family="Helvetica,sans-Serif" font-size="10.00">OSnowman::Spawn</text>
</a>
</g>
</g>
<!-- Node1&#45;&gt;Node10 -->
<g id="edge9_Node000001_Node000010" class="edge">
<title>Node1&#45;&gt;Node10</title>
<g id="a_edge9_Node000001_Node000010"><a xlink:title=" ">
<path fill="none" stroke="#63b8ff" d="M86.04,-656.26C104.74,-675.94 149.19,-722.31 188,-759.71 202.57,-773.76 219.57,-789.2 232.15,-800.46"/>
<polygon fill="#63b8ff" stroke="#63b8ff" points="229.93,-803.17 239.72,-807.21 234.58,-797.94 229.93,-803.17"/>
</a>
</g>
</g>
<!-- Node14 -->
<g id="Node000014" class="node">
<title>Node14</title>
<g id="a_Node000014"><a xlink:href="actors_8c.html#ac586c2534258d0f108e15fd88751b760" target="_top" xlink:title=" ">
<polygon fill="white" stroke="#666666" points="315,-638.21 188,-638.21 188,-619.21 315,-619.21 315,-638.21"/>
<text text-anchor="middle" x="251.5" y="-626.21" font-family="Helvetica,sans-Serif" font-size="10.00">spawn_all_item_boxes</text>
</a>
</g>
</g>
<!-- Node1&#45;&gt;Node14 -->
<g id="edge15_Node000001_Node000014" class="edge">
<title>Node1&#45;&gt;Node14</title>
<g id="a_edge15_Node000001_Node000014"><a xlink:title=" ">
<path fill="none" stroke="#63b8ff" d="M152.09,-638.92C160.55,-638.04 169.17,-637.15 177.61,-636.28"/>
<polygon fill="#63b8ff" stroke="#63b8ff" points="178.2,-639.73 187.78,-635.22 177.48,-632.77 178.2,-639.73"/>
</a>
</g>
</g>
<!-- Node41 -->
<g id="Node000041" class="node">
<title>Node41</title>
<g id="a_Node000041"><a xlink:href="actors_8c.html#aa6c218ad25d2200bdbf85cbbd197d1cd" target="_top" xlink:title=" ">
<polygon fill="white" stroke="#666666" points="295,-292.21 208,-292.21 208,-273.21 295,-273.21 295,-292.21"/>
<text text-anchor="middle" x="251.5" y="-280.21" font-family="Helvetica,sans-Serif" font-size="10.00">spawn_foliage</text>
</a>
</g>
</g>
<!-- Node1&#45;&gt;Node41 -->
<g id="edge42_Node000001_Node000041" class="edge">
<title>Node1&#45;&gt;Node41</title>
<g id="a_edge42_Node000001_Node000041"><a xlink:title=" ">
<path fill="none" stroke="#63b8ff" d="M81.64,-636.98C105.02,-587.93 210,-367.69 241.52,-301.55"/>
<polygon fill="#63b8ff" stroke="#63b8ff" points="244.78,-302.84 245.93,-292.31 238.46,-299.83 244.78,-302.84"/>
</a>
</g>
</g>
<!-- Node3 -->
<g id="Node000003" class="node">
<title>Node3</title>
<g id="a_Node000003"><a xlink:href="classOBombKart.html#a1566e8d56318b18ad900fbbac9966d9d" target="_top" xlink:title=" ">
<polygon fill="white" stroke="#666666" points="488.5,-781.21 353.5,-781.21 353.5,-762.21 488.5,-762.21 488.5,-781.21"/>
<text text-anchor="middle" x="421" y="-769.21" font-family="Helvetica,sans-Serif" font-size="10.00">OBombKart::OBombKart</text>
</a>
</g>
</g>
<!-- Node2&#45;&gt;Node3 -->
<g id="edge2_Node000002_Node000003" class="edge">
<title>Node2&#45;&gt;Node3</title>
<g id="a_edge2_Node000002_Node000003"><a xlink:title=" ">
<path fill="none" stroke="#63b8ff" d="M305.96,-751.29C322.05,-754.17 339.87,-757.36 356.55,-760.35"/>
<polygon fill="#63b8ff" stroke="#63b8ff" points="356.3,-763.86 366.76,-762.18 357.54,-756.97 356.3,-763.86"/>
</a>
</g>
</g>
<!-- Node4 -->
<g id="Node000004" class="node">
<title>Node4</title>
<g id="a_Node000004"><a xlink:href="collision_8c.html#a37aa55b3768d001533ad75e7f1b8388a" target="_top" xlink:title=" ">
<polygon fill="white" stroke="#666666" points="842,-733.21 701,-733.21 701,-714.21 842,-714.21 842,-733.21"/>
<text text-anchor="middle" x="771.5" y="-721.21" font-family="Helvetica,sans-Serif" font-size="10.00">check_bounding_collision</text>
</a>
</g>
</g>
<!-- Node3&#45;&gt;Node4 -->
<g id="edge3_Node000003_Node000004" class="edge">
<title>Node3&#45;&gt;Node4</title>
<g id="a_edge3_Node000003_Node000004"><a xlink:title=" ">
<path fill="none" stroke="#63b8ff" d="M488.78,-762.52C546.54,-754.56 630.14,-743.05 691.27,-734.63"/>
<polygon fill="#63b8ff" stroke="#63b8ff" points="691.83,-738.08 701.26,-733.25 690.88,-731.15 691.83,-738.08"/>
</a>
</g>
</g>
<!-- Node8 -->
<g id="Node000008" class="node">
<title>Node8</title>
<g id="a_Node000008"><a xlink:href="update__objects_8c.html#a92856990c4ca5fba1b8e0c61ca832c27" target="_top" xlink:title=" ">
<polygon fill="white" stroke="#666666" points="660,-809.21 532,-809.21 532,-790.21 660,-790.21 660,-809.21"/>
<text text-anchor="middle" x="596" y="-797.21" font-family="Helvetica,sans-Serif" font-size="10.00">find_unused_obj_index</text>
</a>
</g>
</g>
<!-- Node3&#45;&gt;Node8 -->
<g id="edge7_Node000003_Node000008" class="edge">
<title>Node3&#45;&gt;Node8</title>
<g id="a_edge7_Node000003_Node000008"><a xlink:title=" ">
<path fill="none" stroke="#63b8ff" d="M481.05,-781.27C495.53,-783.61 511.15,-786.14 526.04,-788.55"/>
<polygon fill="#63b8ff" stroke="#63b8ff" points="525.78,-792.06 536.21,-790.2 526.9,-785.15 525.78,-792.06"/>
</a>
</g>
</g>
<!-- Node9 -->
<g id="Node000009" class="node">
<title>Node9</title>
<g id="a_Node000009"><a xlink:href="classOObject.html#a629d0dcbb210e289cdf541a91321c86b" target="_top" xlink:title=" ">
<polygon fill="white" stroke="#666666" points="646.5,-846.21 545.5,-846.21 545.5,-827.21 646.5,-827.21 646.5,-846.21"/>
<text text-anchor="middle" x="596" y="-834.21" font-family="Helvetica,sans-Serif" font-size="10.00">OObject::OObject</text>
</a>
</g>
</g>
<!-- Node3&#45;&gt;Node9 -->
<g id="edge8_Node000003_Node000009" class="edge">
<title>Node3&#45;&gt;Node9</title>
<g id="a_edge8_Node000003_Node000009"><a xlink:title=" ">
<path fill="none" stroke="#63b8ff" d="M441.79,-781.38C462.65,-791.34 496.63,-806.88 527,-817.71 533.52,-820.04 540.46,-822.26 547.34,-824.31"/>
<polygon fill="#63b8ff" stroke="#63b8ff" points="546.71,-827.78 557.29,-827.19 548.66,-821.05 546.71,-827.78"/>
</a>
</g>
</g>
<!-- Node5 -->
<g id="Node000005" class="node">
<title>Node5</title>
<g id="a_Node000005"><a xlink:href="collision_8c.html#ac312bf382cb40752f6b790a99e7cdcb6" target="_top" xlink:title=" ">
<polygon fill="white" stroke="#666666" points="1005,-770.21 897,-770.21 897,-751.21 1005,-751.21 1005,-770.21"/>
<text text-anchor="middle" x="951" y="-758.21" font-family="Helvetica,sans-Serif" font-size="10.00">check_collision_yx</text>
</a>
</g>
</g>
<!-- Node4&#45;&gt;Node5 -->
<g id="edge4_Node000004_Node000005" class="edge">
<title>Node4&#45;&gt;Node5</title>
<g id="a_edge4_Node000004_Node000005"><a xlink:title=" ">
<path fill="none" stroke="#63b8ff" d="M818.21,-733.24C841.41,-738.08 869.79,-743.99 894.27,-749.1"/>
<polygon fill="#63b8ff" stroke="#63b8ff" points="893.63,-752.54 904.14,-751.15 895.06,-745.69 893.63,-752.54"/>
</a>
</g>
</g>
<!-- Node6 -->
<g id="Node000006" class="node">
<title>Node6</title>
<g id="a_Node000006"><a xlink:href="collision_8c.html#a4b48832a90e984536a0635a016ec4f28" target="_top" xlink:title=" ">
<polygon fill="white" stroke="#666666" points="1004.5,-733.21 897.5,-733.21 897.5,-714.21 1004.5,-714.21 1004.5,-733.21"/>
<text text-anchor="middle" x="951" y="-721.21" font-family="Helvetica,sans-Serif" font-size="10.00">check_collision_zx</text>
</a>
</g>
</g>
<!-- Node4&#45;&gt;Node6 -->
<g id="edge5_Node000004_Node000006" class="edge">
<title>Node4&#45;&gt;Node6</title>
<g id="a_edge5_Node000004_Node000006"><a xlink:title=" ">
<path fill="none" stroke="#63b8ff" d="M842.14,-723.71C856.91,-723.71 872.43,-723.71 886.94,-723.71"/>
<polygon fill="#63b8ff" stroke="#63b8ff" points="887.3,-727.21 897.3,-723.71 887.3,-720.21 887.3,-727.21"/>
</a>
</g>
</g>
<!-- Node7 -->
<g id="Node000007" class="node">
<title>Node7</title>
<g id="a_Node000007"><a xlink:href="collision_8c.html#a21fef964ab48191a1c0341954ef27a40" target="_top" xlink:title=" ">
<polygon fill="white" stroke="#666666" points="1004.5,-696.21 897.5,-696.21 897.5,-677.21 1004.5,-677.21 1004.5,-696.21"/>
<text text-anchor="middle" x="951" y="-684.21" font-family="Helvetica,sans-Serif" font-size="10.00">check_collision_zy</text>
</a>
</g>
</g>
<!-- Node4&#45;&gt;Node7 -->
<g id="edge6_Node000004_Node000007" class="edge">
<title>Node4&#45;&gt;Node7</title>
<g id="a_edge6_Node000004_Node000007"><a xlink:title=" ">
<path fill="none" stroke="#63b8ff" d="M818.21,-714.18C841.41,-709.35 869.79,-703.43 894.27,-698.33"/>
<polygon fill="#63b8ff" stroke="#63b8ff" points="895.06,-701.74 904.14,-696.27 893.63,-694.89 895.06,-701.74"/>
</a>
</g>
</g>
<!-- Node11 -->
<g id="Node000011" class="node">
<title>Node11</title>
<g id="a_Node000011"><a xlink:href="classOSnowman.html#af37eeb06ff0bb92595794103983548cf" target="_top" xlink:title=" ">
<polygon fill="white" stroke="#666666" points="488,-837.21 354,-837.21 354,-818.21 488,-818.21 488,-837.21"/>
<text text-anchor="middle" x="421" y="-825.21" font-family="Helvetica,sans-Serif" font-size="10.00">OSnowman::OSnowman</text>
</a>
</g>
</g>
<!-- Node10&#45;&gt;Node11 -->
<g id="edge10_Node000010_Node000011" class="edge">
<title>Node10&#45;&gt;Node11</title>
<g id="a_edge10_Node000010_Node000011"><a xlink:title=" ">
<path fill="none" stroke="#63b8ff" d="M306.88,-820.28C318.6,-821.05 331.19,-821.88 343.57,-822.69"/>
<polygon fill="#63b8ff" stroke="#63b8ff" points="343.69,-826.21 353.9,-823.37 344.15,-819.22 343.69,-826.21"/>
</a>
</g>
</g>
<!-- Node11&#45;&gt;Node8 -->
<g id="edge11_Node000011_Node000008" class="edge">
<title>Node11&#45;&gt;Node8</title>
<g id="a_edge11_Node000011_Node000008"><a xlink:title=" ">
<path fill="none" stroke="#63b8ff" d="M481.05,-818.16C495.53,-815.81 511.15,-813.29 526.04,-810.87"/>
<polygon fill="#63b8ff" stroke="#63b8ff" points="526.9,-814.28 536.21,-809.23 525.78,-807.37 526.9,-814.28"/>
</a>
</g>
</g>
<!-- Node11&#45;&gt;Node9 -->
<g id="edge14_Node000011_Node000009" class="edge">
<title>Node11&#45;&gt;Node9</title>
<g id="a_edge14_Node000011_Node000009"><a xlink:title=" ">
<path fill="none" stroke="#63b8ff" d="M488.39,-831.17C503.8,-831.97 520.11,-832.82 535.21,-833.6"/>
<polygon fill="#63b8ff" stroke="#63b8ff" points="535.28,-837.11 545.45,-834.14 535.64,-830.12 535.28,-837.11"/>
</a>
</g>
</g>
<!-- Node12 -->
<g id="Node000012" class="node">
<title>Node12</title>
<g id="a_Node000012"><a xlink:href="update__objects_8c.html#abdebd086b5ff081f83af3d9205f39cd3" target="_top" xlink:title=" ">
<polygon fill="white" stroke="#666666" points="630,-883.21 562,-883.21 562,-864.21 630,-864.21 630,-883.21"/>
<text text-anchor="middle" x="596" y="-871.21" font-family="Helvetica,sans-Serif" font-size="10.00">init_object</text>
</a>
</g>
</g>
<!-- Node11&#45;&gt;Node12 -->
<g id="edge12_Node000011_Node000012" class="edge">
<title>Node11&#45;&gt;Node12</title>
<g id="a_edge12_Node000011_Node000012"><a xlink:title=" ">
<path fill="none" stroke="#63b8ff" d="M457.85,-837.24C485.2,-844.52 523,-854.57 551.98,-862.28"/>
<polygon fill="#63b8ff" stroke="#63b8ff" points="551.27,-865.71 561.84,-864.9 553.07,-858.94 551.27,-865.71"/>
</a>
</g>
</g>
<!-- Node13 -->
<g id="Node000013" class="node">
<title>Node13</title>
<g id="a_Node000013"><a xlink:href="update__objects_8c.html#af20e3f3c403dd4fbea56e358997e515a" target="_top" xlink:title=" ">
<polygon fill="white" stroke="#666666" points="835.5,-883.21 707.5,-883.21 707.5,-864.21 835.5,-864.21 835.5,-883.21"/>
<text text-anchor="middle" x="771.5" y="-871.21" font-family="Helvetica,sans-Serif" font-size="10.00">set_object_timer_state</text>
</a>
</g>
</g>
<!-- Node12&#45;&gt;Node13 -->
<g id="edge13_Node000012_Node000013" class="edge">
<title>Node12&#45;&gt;Node13</title>
<g id="a_edge13_Node000012_Node000013"><a xlink:title=" ">
<path fill="none" stroke="#63b8ff" d="M630.04,-873.71C649.06,-873.71 673.74,-873.71 697.11,-873.71"/>
<polygon fill="#63b8ff" stroke="#63b8ff" points="697.37,-877.21 707.37,-873.71 697.37,-870.21 697.37,-877.21"/>
</a>
</g>
</g>
<!-- Node15 -->
<g id="Node000015" class="node">
<title>Node15</title>
<g id="a_Node000015"><a xlink:href="actors_8c.html#a91fb2e4e37e7c72fea918fe2c1bb4eaf" target="_top" xlink:title=" ">
<polygon fill="white" stroke="#666666" points="491,-517.21 351,-517.21 351,-498.21 491,-498.21 491,-517.21"/>
<text text-anchor="middle" x="421" y="-505.21" font-family="Helvetica,sans-Serif" font-size="10.00">add_actor_to_empty_slot</text>
</a>
</g>
</g>
<!-- Node14&#45;&gt;Node15 -->
<g id="edge16_Node000014_Node000015" class="edge">
<title>Node14&#45;&gt;Node15</title>
<g id="a_edge16_Node000014_Node000015"><a xlink:title=" ">
<path fill="none" stroke="#63b8ff" d="M265.92,-619.02C294.84,-598.13 363.21,-548.74 398.34,-523.36"/>
<polygon fill="#63b8ff" stroke="#63b8ff" points="400.46,-526.15 406.51,-517.46 396.36,-520.48 400.46,-526.15"/>
</a>
</g>
</g>
<!-- Node18 -->
<g id="Node000018" class="node">
<title>Node18</title>
<g id="a_Node000018"><a xlink:href="Game_8cpp.html#a693de7d8b89fe291aafea86bc64a0a2e" target="_top" xlink:title=" ">
<polygon fill="white" stroke="#666666" points="991,-336.21 911,-336.21 911,-317.21 991,-317.21 991,-336.21"/>
<text text-anchor="middle" x="951" y="-324.21" font-family="Helvetica,sans-Serif" font-size="10.00">CM_GetActor</text>
</a>
</g>
</g>
<!-- Node14&#45;&gt;Node18 -->
<g id="edge36_Node000014_Node000018" class="edge">
<title>Node14&#45;&gt;Node18</title>
<g id="a_edge36_Node000014_Node000018"><a xlink:title=" ">
<path fill="none" stroke="#63b8ff" d="M257.25,-619.08C269.69,-594.61 305.45,-529.17 351,-488.71 417.46,-429.68 444.52,-426.85 527,-393.71 601.44,-363.8 621.97,-359.5 701,-345.71 769.58,-333.75 850.1,-329.32 900.59,-327.68"/>
<polygon fill="#63b8ff" stroke="#63b8ff" points="901,-331.17 910.89,-327.37 900.79,-324.17 901,-331.17"/>
</a>
</g>
</g>
<!-- Node31 -->
<g id="Node000031" class="node">
<title>Node31</title>
<g id="a_Node000031"><a xlink:href="math__util_8c.html#a79fd07a0971ec96a3ff0801963a2fa7f" target="_top" xlink:title=" ">
<polygon fill="white" stroke="#666666" points="983,-534.21 919,-534.21 919,-515.21 983,-515.21 983,-534.21"/>
<text text-anchor="middle" x="951" y="-522.21" font-family="Helvetica,sans-Serif" font-size="10.00">vec3f_set</text>
</a>
</g>
</g>
<!-- Node14&#45;&gt;Node31 -->
<g id="edge41_Node000014_Node000031" class="edge">
<title>Node14&#45;&gt;Node31</title>
<g id="a_edge41_Node000014_Node000031"><a xlink:title=" ">
<path fill="none" stroke="#63b8ff" d="M283.5,-638.25C352.84,-658.14 525.34,-699.58 665,-666.71 770.94,-641.78 882.49,-571.22 928.37,-539.95"/>
<polygon fill="#63b8ff" stroke="#63b8ff" points="930.4,-542.8 936.65,-534.24 926.43,-537.04 930.4,-542.8"/>
</a>
</g>
</g>
<!-- Node37 -->
<g id="Node000037" class="node">
<title>Node37</title>
<g id="a_Node000037"><a xlink:href="math__util_8c.html#a062850863585005ad1d0a75d9ff70693" target="_top" xlink:title=" ">
<polygon fill="white" stroke="#666666" points="459.5,-733.21 382.5,-733.21 382.5,-714.21 459.5,-714.21 459.5,-733.21"/>
<text text-anchor="middle" x="421" y="-721.21" font-family="Helvetica,sans-Serif" font-size="10.00">random_u16</text>
</a>
</g>
</g>
<!-- Node14&#45;&gt;Node37 -->
<g id="edge37_Node000014_Node000037" class="edge">
<title>Node14&#45;&gt;Node37</title>
<g id="a_edge37_Node000014_Node000037"><a xlink:title=" ">
<path fill="none" stroke="#63b8ff" d="M263.61,-638.4C281.15,-653.28 316.78,-681.91 351,-699.71 359.01,-703.88 367.9,-707.59 376.57,-710.77"/>
<polygon fill="#63b8ff" stroke="#63b8ff" points="375.6,-714.13 386.19,-714.13 377.91,-707.53 375.6,-714.13"/>
</a>
</g>
</g>
<!-- Node38 -->
<g id="Node000038" class="node">
<title>Node38</title>
<g id="a_Node000038"><a xlink:href="collision_8c.html#ad95e9ed2051529d5edee26109fa07427" target="_top" xlink:title=" ">
<polygon fill="white" stroke="#666666" points="489.5,-619.21 352.5,-619.21 352.5,-600.21 489.5,-600.21 489.5,-619.21"/>
<text text-anchor="middle" x="421" y="-607.21" font-family="Helvetica,sans-Serif" font-size="10.00">spawn_actor_on_surface</text>
</a>
</g>
</g>
<!-- Node14&#45;&gt;Node38 -->
<g id="edge38_Node000014_Node000038" class="edge">
<title>Node14&#45;&gt;Node38</title>
<g id="a_edge38_Node000014_Node000038"><a xlink:title=" ">
<path fill="none" stroke="#63b8ff" d="M315.35,-621.58C324.12,-620.59 333.21,-619.56 342.21,-618.54"/>
<polygon fill="#63b8ff" stroke="#63b8ff" points="342.77,-622 352.31,-617.39 341.98,-615.04 342.77,-622"/>
</a>
</g>
</g>
<!-- Node16 -->
<g id="Node000016" class="node">
<title>Node16</title>
<g id="a_Node000016"><a xlink:href="actors_8c.html#a39c023177b5a7686cdd1fc65b8b953e1" target="_top" xlink:title=" ">
<polygon fill="white" stroke="#666666" points="627,-422.21 565,-422.21 565,-403.21 627,-403.21 627,-422.21"/>
<text text-anchor="middle" x="596" y="-410.21" font-family="Helvetica,sans-Serif" font-size="10.00">actor_init</text>
</a>
</g>
</g>
<!-- Node15&#45;&gt;Node16 -->
<g id="edge17_Node000015_Node000016" class="edge">
<title>Node15&#45;&gt;Node16</title>
<g id="a_edge17_Node000015_Node000016"><a xlink:title=" ">
<path fill="none" stroke="#63b8ff" d="M439.54,-498.08C470.06,-481.32 533.07,-446.72 568.79,-427.11"/>
<polygon fill="#63b8ff" stroke="#63b8ff" points="570.59,-430.11 577.67,-422.23 567.22,-423.98 570.59,-430.11"/>
</a>
</g>
</g>
<!-- Node34 -->
<g id="Node000034" class="node">
<title>Node34</title>
<g id="a_Node000034"><a xlink:href="Game_8cpp.html#acea5cfd9ab22f745bd6627869b95a62e" target="_top" xlink:title=" ">
<polygon fill="white" stroke="#666666" points="652,-535.21 540,-535.21 540,-516.21 652,-516.21 652,-535.21"/>
<text text-anchor="middle" x="596" y="-523.21" font-family="Helvetica,sans-Serif" font-size="10.00">CM_ActorBeginPlay</text>
</a>
</g>
</g>
<!-- Node15&#45;&gt;Node34 -->
<g id="edge33_Node000015_Node000034" class="edge">
<title>Node15&#45;&gt;Node34</title>
<g id="a_edge33_Node000015_Node000034"><a xlink:title=" ">
<path fill="none" stroke="#63b8ff" d="M491.37,-514.93C504.13,-516.26 517.4,-517.64 530.03,-518.95"/>
<polygon fill="#63b8ff" stroke="#63b8ff" points="529.68,-522.44 539.99,-519.99 530.4,-515.47 529.68,-522.44"/>
</a>
</g>
</g>
<!-- Node35 -->
<g id="Node000035" class="node">
<title>Node35</title>
<g id="a_Node000035"><a xlink:href="Game_8cpp.html#a42f23077aaa52cb3ea5c7803b7dd6816" target="_top" xlink:title=" ">
<polygon fill="white" stroke="#666666" points="649,-498.21 543,-498.21 543,-479.21 649,-479.21 649,-498.21"/>
<text text-anchor="middle" x="596" y="-486.21" font-family="Helvetica,sans-Serif" font-size="10.00">CM_AddBaseActor</text>
</a>
</g>
</g>
<!-- Node15&#45;&gt;Node35 -->
<g id="edge34_Node000015_Node000035" class="edge">
<title>Node15&#45;&gt;Node35</title>
<g id="a_edge34_Node000015_Node000035"><a xlink:title=" ">
<path fill="none" stroke="#63b8ff" d="M491.37,-500.09C505.08,-498.59 519.38,-497.02 532.84,-495.54"/>
<polygon fill="#63b8ff" stroke="#63b8ff" points="533.37,-499 542.93,-494.43 532.61,-492.04 533.37,-499"/>
</a>
</g>
</g>
<!-- Node36 -->
<g id="Node000036" class="node">
<title>Node36</title>
<g id="a_Node000036"><a xlink:href="Game_8cpp.html#a0841ffe9a66e95aca42438b9d8ffc3d3" target="_top" xlink:title=" ">
<polygon fill="white" stroke="#666666" points="646.5,-572.21 545.5,-572.21 545.5,-553.21 646.5,-553.21 646.5,-572.21"/>
<text text-anchor="middle" x="596" y="-560.21" font-family="Helvetica,sans-Serif" font-size="10.00">CM_GetActorSize</text>
</a>
</g>
</g>
<!-- Node15&#45;&gt;Node36 -->
<g id="edge35_Node000015_Node000036" class="edge">
<title>Node15&#45;&gt;Node36</title>
<g id="a_edge35_Node000015_Node000036"><a xlink:title=" ">
<path fill="none" stroke="#63b8ff" d="M448.62,-517.32C469.76,-524.83 500.13,-535.36 527,-543.71 534.24,-545.97 541.96,-548.24 549.49,-550.39"/>
<polygon fill="#63b8ff" stroke="#63b8ff" points="548.67,-553.79 559.24,-553.14 550.57,-547.06 548.67,-553.79"/>
</a>
</g>
</g>
<!-- Node16&#45;&gt;Node4 -->
<g id="edge18_Node000016_Node000004" class="edge">
<title>Node16&#45;&gt;Node4</title>
<g id="a_edge18_Node000016_Node000004"><a xlink:title=" ">
<path fill="none" stroke="#63b8ff" d="M612.36,-422.37C627.5,-432.55 650.41,-449.85 665,-469.71 721.8,-547.06 754.44,-659.5 765.84,-704.27"/>
<polygon fill="#63b8ff" stroke="#63b8ff" points="762.49,-705.27 768.29,-714.13 769.28,-703.58 762.49,-705.27"/>
</a>
</g>
</g>
<!-- Node17 -->
<g id="Node000017" class="node">
<title>Node17</title>
<g id="a_Node000017"><a xlink:href="actors_8c.html#a1a9bccb586242555a9123ebd4ab70f2a" target="_top" xlink:title=" ">
<polygon fill="white" stroke="#666666" points="837.5,-384.71 705.5,-384.71 705.5,-354.71 837.5,-354.71 837.5,-384.71"/>
<text text-anchor="start" x="713.5" y="-372.71" font-family="Helvetica,sans-Serif" font-size="10.00">cleanup_red_and_green</text>
<text text-anchor="middle" x="771.5" y="-361.71" font-family="Helvetica,sans-Serif" font-size="10.00">_shells</text>
</a>
</g>
</g>
<!-- Node16&#45;&gt;Node17 -->
<g id="edge19_Node000016_Node000017" class="edge">
<title>Node16&#45;&gt;Node17</title>
<g id="a_edge19_Node000016_Node000017"><a xlink:title=" ">
<path fill="none" stroke="#63b8ff" d="M627.22,-405.22C647.28,-400.25 674.47,-393.51 699.78,-387.24"/>
<polygon fill="#63b8ff" stroke="#63b8ff" points="700.88,-390.57 709.74,-384.77 699.19,-383.78 700.88,-390.57"/>
</a>
</g>
</g>
<!-- Node30 -->
<g id="Node000030" class="node">
<title>Node30</title>
<g id="a_Node000030"><a xlink:href="collision_8c.html#ad72fef3ffe32191d73b1822f512ebf3f" target="_top" xlink:title=" ">
<polygon fill="white" stroke="#666666" points="819,-496.21 724,-496.21 724,-477.21 819,-477.21 819,-496.21"/>
<text text-anchor="middle" x="771.5" y="-484.21" font-family="Helvetica,sans-Serif" font-size="10.00">func_802AAAAC</text>
</a>
</g>
</g>
<!-- Node16&#45;&gt;Node30 -->
<g id="edge29_Node000016_Node000030" class="edge">
<title>Node16&#45;&gt;Node30</title>
<g id="a_edge29_Node000016_Node000030"><a xlink:title=" ">
<path fill="none" stroke="#63b8ff" d="M627.17,-420.71C639.37,-424.6 653.3,-429.94 665,-436.71 683.27,-447.3 682.36,-457.8 701,-467.71 705.26,-469.98 709.82,-472 714.48,-473.78"/>
<polygon fill="#63b8ff" stroke="#63b8ff" points="713.56,-477.17 724.15,-477.14 715.86,-470.56 713.56,-477.17"/>
</a>
</g>
</g>
<!-- Node32 -->
<g id="Node000032" class="node">
<title>Node32</title>
<g id="a_Node000032"><a xlink:href="math__util_8c.html#af7b470ed76fce07b8042a47c96e5690b" target="_top" xlink:title=" ">
<polygon fill="white" stroke="#666666" points="825,-459.21 718,-459.21 718,-440.21 825,-440.21 825,-459.21"/>
<text text-anchor="middle" x="771.5" y="-447.21" font-family="Helvetica,sans-Serif" font-size="10.00">vec3f_copy_return</text>
</a>
</g>
</g>
<!-- Node16&#45;&gt;Node32 -->
<g id="edge31_Node000016_Node000032" class="edge">
<title>Node16&#45;&gt;Node32</title>
<g id="a_edge31_Node000016_Node000032"><a xlink:title=" ">
<path fill="none" stroke="#63b8ff" d="M627.22,-419.16C651.54,-424.34 686.35,-431.77 715.57,-438"/>
<polygon fill="#63b8ff" stroke="#63b8ff" points="715.14,-441.49 725.65,-440.15 716.6,-434.64 715.14,-441.49"/>
</a>
</g>
</g>
<!-- Node33 -->
<g id="Node000033" class="node">
<title>Node33</title>
<g id="a_Node000033"><a xlink:href="math__util_8c.html#a0e270ee67600c8c9c2f140c647d008a1" target="_top" xlink:title=" ">
<polygon fill="white" stroke="#666666" points="808.5,-422.21 734.5,-422.21 734.5,-403.21 808.5,-403.21 808.5,-422.21"/>
<text text-anchor="middle" x="771.5" y="-410.21" font-family="Helvetica,sans-Serif" font-size="10.00">vec3s_copy</text>
</a>
</g>
</g>
<!-- Node16&#45;&gt;Node33 -->
<g id="edge32_Node000016_Node000033" class="edge">
<title>Node16&#45;&gt;Node33</title>
<g id="a_edge32_Node000016_Node000033"><a xlink:title=" ">
<path fill="none" stroke="#63b8ff" d="M627.22,-412.71C654,-412.71 693.51,-412.71 724.26,-412.71"/>
<polygon fill="#63b8ff" stroke="#63b8ff" points="724.32,-416.21 734.32,-412.71 724.32,-409.21 724.32,-416.21"/>
</a>
</g>
</g>
<!-- Node17&#45;&gt;Node18 -->
<g id="edge20_Node000017_Node000018" class="edge">
<title>Node17&#45;&gt;Node18</title>
<g id="a_edge20_Node000017_Node000018"><a xlink:title=" ">
<path fill="none" stroke="#63b8ff" d="M834.58,-354.67C856.4,-349.39 880.6,-343.53 901.17,-338.54"/>
<polygon fill="#63b8ff" stroke="#63b8ff" points="902.06,-341.93 910.96,-336.17 900.41,-335.12 902.06,-341.93"/>
</a>
</g>
</g>
<!-- Node19 -->
<g id="Node000019" class="node">
<title>Node19</title>
<g id="a_Node000019"><a xlink:href="code__80005FD0_8c.html#ad301b978cdd3c4cc190b10be050d51d8" target="_top" xlink:title=" ">
<polygon fill="white" stroke="#666666" points="1024,-384.71 878,-384.71 878,-354.71 1024,-354.71 1024,-384.71"/>
<text text-anchor="start" x="886" y="-372.71" font-family="Helvetica,sans-Serif" font-size="10.00">delete_actor_in_unexpired</text>
<text text-anchor="middle" x="951" y="-361.71" font-family="Helvetica,sans-Serif" font-size="10.00">_actor_list</text>
</a>
</g>
</g>
<!-- Node17&#45;&gt;Node19 -->
<g id="edge21_Node000017_Node000019" class="edge">
<title>Node17&#45;&gt;Node19</title>
<g id="a_edge21_Node000017_Node000019"><a xlink:title=" ">
<path fill="none" stroke="#63b8ff" d="M837.59,-369.71C847.38,-369.71 857.59,-369.71 867.69,-369.71"/>
<polygon fill="#63b8ff" stroke="#63b8ff" points="867.73,-373.21 877.73,-369.71 867.73,-366.21 867.73,-373.21"/>
</a>
</g>
</g>
<!-- Node20 -->
<g id="Node000020" class="node">
<title>Node20</title>
<g id="a_Node000020"><a xlink:href="actors_8c.html#a694ec6ef7548b8618aeb35c038d3a9b9" target="_top" xlink:title=" ">
<polygon fill="white" stroke="#666666" points="992.5,-422.21 909.5,-422.21 909.5,-403.21 992.5,-403.21 992.5,-422.21"/>
<text text-anchor="middle" x="951" y="-410.21" font-family="Helvetica,sans-Serif" font-size="10.00">destroy_actor</text>
</a>
</g>
</g>
<!-- Node17&#45;&gt;Node20 -->
<g id="edge22_Node000017_Node000020" class="edge">
<title>Node17&#45;&gt;Node20</title>
<g id="a_edge22_Node000017_Node000020"><a xlink:title=" ">
<path fill="none" stroke="#63b8ff" d="M834.58,-384.75C856.32,-390.02 880.41,-395.85 900.93,-400.83"/>
<polygon fill="#63b8ff" stroke="#63b8ff" points="900.15,-404.24 910.69,-403.19 901.8,-397.44 900.15,-404.24"/>
</a>
</g>
</g>
<!-- Node21 -->
<g id="Node000021" class="node">
<title>Node21</title>
<g id="a_Node000021"><a xlink:href="actors_8c.html#a12dc3ccac4c7d8569eadac0af4fd6f9f" target="_top" xlink:title=" ">
<polygon fill="white" stroke="#666666" points="1218,-422.21 1060,-422.21 1060,-403.21 1218,-403.21 1218,-422.21"/>
<text text-anchor="middle" x="1139" y="-410.21" font-family="Helvetica,sans-Serif" font-size="10.00">play_sound_before_despawn</text>
</a>
</g>
</g>
<!-- Node20&#45;&gt;Node21 -->
<g id="edge23_Node000020_Node000021" class="edge">
<title>Node20&#45;&gt;Node21</title>
<g id="a_edge23_Node000020_Node000021"><a xlink:title=" ">
<path fill="none" stroke="#63b8ff" d="M992.82,-412.71C1009.65,-412.71 1029.86,-412.71 1049.77,-412.71"/>
<polygon fill="#63b8ff" stroke="#63b8ff" points="1049.82,-416.21 1059.82,-412.71 1049.82,-409.21 1049.82,-416.21"/>
</a>
</g>
</g>
<!-- Node22 -->
<g id="Node000022" class="node">
<title>Node22</title>
<g id="a_Node000022"><a xlink:href="external_8c.html#ae72057869772019e4464c87d4e16c682" target="_top" xlink:title=" ">
<polygon fill="white" stroke="#666666" points="1346,-422.21 1254,-422.21 1254,-403.21 1346,-403.21 1346,-422.21"/>
<text text-anchor="middle" x="1300" y="-410.21" font-family="Helvetica,sans-Serif" font-size="10.00">func_800C99E0</text>
</a>
</g>
</g>
<!-- Node21&#45;&gt;Node22 -->
<g id="edge24_Node000021_Node000022" class="edge">
<title>Node21&#45;&gt;Node22</title>
<g id="a_edge24_Node000021_Node000022"><a xlink:title=" ">
<path fill="none" stroke="#63b8ff" d="M1218.1,-412.71C1226.72,-412.71 1235.35,-412.71 1243.61,-412.71"/>
<polygon fill="#63b8ff" stroke="#63b8ff" points="1243.83,-416.21 1253.83,-412.71 1243.83,-409.21 1243.83,-416.21"/>
</a>
</g>
</g>
<!-- Node23 -->
<g id="Node000023" class="node">
<title>Node23</title>
<g id="a_Node000023"><a xlink:href="external_8c.html#aeb87c527482a244173df36a1f3d4f446" target="_top" xlink:title=" ">
<polygon fill="white" stroke="#666666" points="1474,-441.21 1382,-441.21 1382,-422.21 1474,-422.21 1474,-441.21"/>
<text text-anchor="middle" x="1428" y="-429.21" font-family="Helvetica,sans-Serif" font-size="10.00">func_800C21E8</text>
</a>
</g>
</g>
<!-- Node22&#45;&gt;Node23 -->
<g id="edge25_Node000022_Node000023" class="edge">
<title>Node22&#45;&gt;Node23</title>
<g id="a_edge25_Node000022_Node000023"><a xlink:title=" ">
<path fill="none" stroke="#63b8ff" d="M1346.13,-419.52C1354.46,-420.77 1363.23,-422.1 1371.81,-423.39"/>
<polygon fill="#63b8ff" stroke="#63b8ff" points="1371.35,-426.86 1381.76,-424.89 1372.39,-419.94 1371.35,-426.86"/>
</a>
</g>
</g>
<!-- Node24 -->
<g id="Node000024" class="node">
<title>Node24</title>
<g id="a_Node000024"><a xlink:href="external_8c.html#a028d40421b90c38f68ebfd5acc626f2e" target="_top" xlink:title=" ">
<polygon fill="#fff0f0" stroke="red" points="1474,-404.21 1382,-404.21 1382,-385.21 1474,-385.21 1474,-404.21"/>
<text text-anchor="middle" x="1428" y="-392.21" font-family="Helvetica,sans-Serif" font-size="10.00">func_800C5578</text>
</a>
</g>
</g>
<!-- Node22&#45;&gt;Node24 -->
<g id="edge26_Node000022_Node000024" class="edge">
<title>Node22&#45;&gt;Node24</title>
<g id="a_edge26_Node000022_Node000024"><a xlink:title=" ">
<path fill="none" stroke="#63b8ff" d="M1346.13,-406.27C1354.46,-405.08 1363.23,-403.82 1371.81,-402.6"/>
<polygon fill="#63b8ff" stroke="#63b8ff" points="1372.35,-406.06 1381.76,-401.18 1371.36,-399.13 1372.35,-406.06"/>
</a>
</g>
</g>
<!-- Node25 -->
<g id="Node000025" class="node">
<title>Node25</title>
<g id="a_Node000025"><a xlink:href="external_8c.html#ac0fb767de7e14a03f1bcfa53f0abd23b" target="_top" xlink:title=" ">
<polygon fill="#fff0f0" stroke="red" points="1650,-423.21 1510,-423.21 1510,-404.21 1650,-404.21 1650,-423.21"/>
<text text-anchor="middle" x="1580" y="-411.21" font-family="Helvetica,sans-Serif" font-size="10.00">delete_sound_from_bank</text>
</a>
</g>
</g>
<!-- Node24&#45;&gt;Node25 -->
<g id="edge27_Node000024_Node000025" class="edge">
<title>Node24&#45;&gt;Node25</title>
<g id="a_edge27_Node000024_Node000025"><a xlink:title=" ">
<path fill="none" stroke="#63b8ff" d="M1474,-400.41C1482.22,-401.45 1491.01,-402.57 1499.87,-403.69"/>
<polygon fill="#63b8ff" stroke="#63b8ff" points="1499.53,-407.17 1509.89,-404.96 1500.41,-400.23 1499.53,-407.17"/>
</a>
</g>
</g>
<!-- Node27 -->
<g id="Node000027" class="node">
<title>Node27</title>
<g id="a_Node000027"><a xlink:href="external_8c.html#ab83bd36e63f0f1baddcb2482b5ad31b0" target="_top" xlink:title=" ">
<polygon fill="white" stroke="#666666" points="1626.5,-386.21 1533.5,-386.21 1533.5,-367.21 1626.5,-367.21 1626.5,-386.21"/>
<text text-anchor="middle" x="1580" y="-374.21" font-family="Helvetica,sans-Serif" font-size="10.00">func_800C41CC</text>
</a>
</g>
</g>
<!-- Node24&#45;&gt;Node27 -->
<g id="edge28_Node000024_Node000027" class="edge">
<title>Node24&#45;&gt;Node27</title>
<g id="a_edge28_Node000024_Node000027"><a xlink:title=" ">
<path fill="none" stroke="#63b8ff" d="M1474,-389.31C1489.37,-387.47 1506.74,-385.38 1522.86,-383.45"/>
<polygon fill="#63b8ff" stroke="#63b8ff" points="1523.74,-386.87 1533.25,-382.2 1522.9,-379.92 1523.74,-386.87"/>
</a>
</g>
</g>
<!-- Node30&#45;&gt;Node31 -->
<g id="edge30_Node000030_Node000031" class="edge">
<title>Node30&#45;&gt;Node31</title>
<g id="a_edge30_Node000030_Node000031"><a xlink:title=" ">
<path fill="none" stroke="#63b8ff" d="M817.29,-496.3C845.43,-502.33 881.46,-510.04 908.87,-515.91"/>
<polygon fill="#63b8ff" stroke="#63b8ff" points="908.41,-519.39 918.92,-518.06 909.88,-512.54 908.41,-519.39"/>
</a>
</g>
</g>
<!-- Node39 -->
<g id="Node000039" class="node">
<title>Node39</title>
<g id="a_Node000039"><a xlink:href="collision_8c.html#a6527a2135a10909cdf9a1fd731be5628" target="_top" xlink:title=" ">
<polygon fill="white" stroke="#666666" points="665,-609.21 527,-609.21 527,-590.21 665,-590.21 665,-609.21"/>
<text text-anchor="middle" x="596" y="-597.21" font-family="Helvetica,sans-Serif" font-size="10.00">calculate_surface_height</text>
</a>
</g>
</g>
<!-- Node38&#45;&gt;Node39 -->
<g id="edge39_Node000038_Node000039" class="edge">
<title>Node38&#45;&gt;Node39</title>
<g id="a_edge39_Node000038_Node000039"><a xlink:title=" ">
<path fill="none" stroke="#63b8ff" d="M489.88,-605.79C498.68,-605.28 507.75,-604.76 516.71,-604.24"/>
<polygon fill="#63b8ff" stroke="#63b8ff" points="516.97,-607.73 526.75,-603.66 516.56,-600.74 516.97,-607.73"/>
</a>
</g>
</g>
<!-- Node40 -->
<g id="Node000040" class="node">
<title>Node40</title>
<g id="a_Node000040"><a xlink:href="collision_8c.html#a0fe340ccfe1d926a592ea9a0c84d7574" target="_top" xlink:title=" ">
<polygon fill="white" stroke="#666666" points="662,-657.71 530,-657.71 530,-627.71 662,-627.71 662,-657.71"/>
<text text-anchor="start" x="538" y="-645.71" font-family="Helvetica,sans-Serif" font-size="10.00">check_horizontally</text>
<text text-anchor="middle" x="596" y="-634.71" font-family="Helvetica,sans-Serif" font-size="10.00">_colliding_with_triangle</text>
</a>
</g>
</g>
<!-- Node38&#45;&gt;Node40 -->
<g id="edge40_Node000038_Node000040" class="edge">
<title>Node38&#45;&gt;Node40</title>
<g id="a_edge40_Node000038_Node000040"><a xlink:title=" ">
<path fill="none" stroke="#63b8ff" d="M472.04,-619.26C487,-622.11 503.73,-625.3 519.93,-628.39"/>
<polygon fill="#63b8ff" stroke="#63b8ff" points="519.44,-631.86 529.92,-630.3 520.75,-624.99 519.44,-631.86"/>
</a>
</g>
</g>
<!-- Node41&#45;&gt;Node4 -->
<g id="edge45_Node000041_Node000004" class="edge">
<title>Node41&#45;&gt;Node4</title>
<g id="a_edge45_Node000041_Node000004"><a xlink:title=" ">
<path fill="none" stroke="#63b8ff" d="M252.01,-292.42C250.28,-337.85 249.3,-531.28 351,-627.71 442.84,-714.8 596.82,-728.67 690.49,-728.09"/>
<polygon fill="#63b8ff" stroke="#63b8ff" points="690.81,-731.58 700.76,-727.96 690.72,-724.58 690.81,-731.58"/>
</a>
</g>
</g>
<!-- Node41&#45;&gt;Node15 -->
<g id="edge43_Node000041_Node000015" class="edge">
<title>Node41&#45;&gt;Node15</title>
<g id="a_edge43_Node000041_Node000015"><a xlink:title=" ">
<path fill="none" stroke="#63b8ff" d="M255.75,-292.49C265.83,-321.66 299.06,-409.49 351,-464.71 361.89,-476.3 376.56,-486.01 389.57,-493.26"/>
<polygon fill="#63b8ff" stroke="#63b8ff" points="388.2,-496.5 398.68,-498.09 391.49,-490.31 388.2,-496.5"/>
</a>
</g>
</g>
<!-- Node41&#45;&gt;Node18 -->
<g id="edge46_Node000041_Node000018" class="edge">
<title>Node41&#45;&gt;Node18</title>
<g id="a_edge46_Node000041_Node000018"><a xlink:title=" ">
<path fill="none" stroke="#63b8ff" d="M252.56,-273.06C253.41,-233.37 262.51,-81.99 351,-20.71 402.16,14.71 431.45,-2.68 491,-20.71 687.57,-80.23 876.91,-254.77 933.19,-309.85"/>
<polygon fill="#63b8ff" stroke="#63b8ff" points="930.94,-312.55 940.51,-317.09 935.86,-307.57 930.94,-312.55"/>
</a>
</g>
</g>
<!-- Node41&#45;&gt;Node31 -->
<g id="edge60_Node000041_Node000031" class="edge">
<title>Node41&#45;&gt;Node31</title>
<g id="a_edge60_Node000041_Node000031"><a xlink:title=" ">
<path fill="none" stroke="#63b8ff" d="M258.27,-292.41C271.65,-314.03 307.04,-366.33 351,-392.71 474.21,-466.65 539.31,-400.08 665,-469.71 684.52,-480.53 680.68,-495.5 701,-504.71 768.81,-535.46 857.65,-533.96 908.82,-529.64"/>
<polygon fill="#63b8ff" stroke="#63b8ff" points="909.2,-533.12 918.84,-528.72 908.56,-526.15 909.2,-533.12"/>
</a>
</g>
</g>
<!-- Node41&#45;&gt;Node39 -->
<g id="edge44_Node000041_Node000039" class="edge">
<title>Node41&#45;&gt;Node39</title>
<g id="a_edge44_Node000041_Node000039"><a xlink:title=" ">
<path fill="none" stroke="#63b8ff" d="M253.48,-292.24C257.72,-328.36 277.67,-458.18 351,-525.71 396.2,-567.34 464.11,-585.58 516.83,-593.56"/>
<polygon fill="#63b8ff" stroke="#63b8ff" points="516.43,-597.04 526.82,-594.98 517.41,-590.11 516.43,-597.04"/>
</a>
</g>
</g>
<!-- Node42 -->
<g id="Node000042" class="node">
<title>Node42</title>
<g id="a_Node000042"><a xlink:href="actors_8c.html#a6fd7dc3bc34357287535b6f06ab7d85c" target="_top" xlink:title=" ">
<polygon fill="white" stroke="#666666" points="642,-217.21 550,-217.21 550,-198.21 642,-198.21 642,-217.21"/>
<text text-anchor="middle" x="596" y="-205.21" font-family="Helvetica,sans-Serif" font-size="10.00">func_802976D8</text>
</a>
</g>
</g>
<!-- Node41&#45;&gt;Node42 -->
<g id="edge47_Node000041_Node000042" class="edge">
<title>Node41&#45;&gt;Node42</title>
<g id="a_edge47_Node000041_Node000042"><a xlink:title=" ">
<path fill="none" stroke="#63b8ff" d="M257.26,-273.08C269.23,-250.11 303.1,-192.37 351,-170.71 423.89,-137.75 520.26,-172.55 567.08,-193.81"/>
<polygon fill="#63b8ff" stroke="#63b8ff" points="565.75,-197.05 576.29,-198.11 568.71,-190.71 565.75,-197.05"/>
</a>
</g>
</g>
<!-- Node43 -->
<g id="Node000043" class="node">
<title>Node43</title>
<g id="a_Node000043"><a xlink:href="actors_8c.html#a09d879c67b2c1430dd8ba2d5c9c136e1" target="_top" xlink:title=" ">
<polygon fill="white" stroke="#666666" points="467,-310.21 375,-310.21 375,-291.21 467,-291.21 467,-310.21"/>
<text text-anchor="middle" x="421" y="-298.21" font-family="Helvetica,sans-Serif" font-size="10.00">func_802976EC</text>
</a>
</g>
</g>
<!-- Node41&#45;&gt;Node43 -->
<g id="edge48_Node000041_Node000043" class="edge">
<title>Node41&#45;&gt;Node43</title>
<g id="a_edge48_Node000041_Node000043"><a xlink:title=" ">
<path fill="none" stroke="#63b8ff" d="M295.2,-287.3C316.3,-289.57 342.01,-292.33 364.61,-294.76"/>
<polygon fill="#63b8ff" stroke="#63b8ff" points="364.42,-298.26 374.74,-295.85 365.17,-291.3 364.42,-298.26"/>
</a>
</g>
</g>
<!-- Node46 -->
<g id="Node000046" class="node">
<title>Node46</title>
<g id="a_Node000046"><a xlink:href="Game_8cpp.html#a8ebd6a4d970e4333ab5a9dd66c3d9c48" target="_top" xlink:title=" ">
<polygon fill="white" stroke="#666666" points="469.5,-123.21 372.5,-123.21 372.5,-104.21 469.5,-104.21 469.5,-123.21"/>
<text text-anchor="middle" x="421" y="-111.21" font-family="Helvetica,sans-Serif" font-size="10.00">IsBowsersCastle</text>
</a>
</g>
</g>
<!-- Node41&#45;&gt;Node46 -->
<g id="edge52_Node000041_Node000046" class="edge">
<title>Node41&#45;&gt;Node46</title>
<g id="a_edge52_Node000041_Node000046"><a xlink:title=" ">
<path fill="none" stroke="#63b8ff" d="M256.45,-273.02C267.47,-247.2 301.02,-176.06 351,-137.71 356.48,-133.51 362.74,-130.01 369.22,-127.11"/>
<polygon fill="#63b8ff" stroke="#63b8ff" points="370.81,-130.24 378.78,-123.26 368.2,-123.74 370.81,-130.24"/>
</a>
</g>
</g>
<!-- Node47 -->
<g id="Node000047" class="node">
<title>Node47</title>
<g id="a_Node000047"><a xlink:href="Game_8cpp.html#af4bf996258124d6741c70e4fa918ef03" target="_top" xlink:title=" ">
<polygon fill="white" stroke="#666666" points="473.5,-86.21 368.5,-86.21 368.5,-67.21 473.5,-67.21 473.5,-86.21"/>
<text text-anchor="middle" x="421" y="-74.21" font-family="Helvetica,sans-Serif" font-size="10.00">IsFrappeSnowland</text>
</a>
</g>
</g>
<!-- Node41&#45;&gt;Node47 -->
<g id="edge53_Node000041_Node000047" class="edge">
<title>Node41&#45;&gt;Node47</title>
<g id="a_edge53_Node000041_Node000047"><a xlink:title=" ">
<path fill="none" stroke="#63b8ff" d="M254.6,-273.16C261.92,-242.19 289.28,-143.78 351,-94.71 353.57,-92.67 356.34,-90.86 359.26,-89.25"/>
<polygon fill="#63b8ff" stroke="#63b8ff" points="360.75,-92.42 368.34,-85.02 357.79,-86.07 360.75,-92.42"/>
</a>
</g>
</g>
<!-- Node48 -->
<g id="Node000048" class="node">
<title>Node48</title>
<g id="a_Node000048"><a xlink:href="Game_8cpp.html#ad474b8b257813cceeae25ab5205273c4" target="_top" xlink:title=" ">
<polygon fill="white" stroke="#666666" points="470,-49.21 372,-49.21 372,-30.21 470,-30.21 470,-49.21"/>
<text text-anchor="middle" x="421" y="-37.21" font-family="Helvetica,sans-Serif" font-size="10.00">IsKalimariDesert</text>
</a>
</g>
</g>
<!-- Node41&#45;&gt;Node48 -->
<g id="edge54_Node000041_Node000048" class="edge">
<title>Node41&#45;&gt;Node48</title>
<g id="a_edge54_Node000041_Node000048"><a xlink:title=" ">
<path fill="none" stroke="#63b8ff" d="M253.76,-272.82C258.78,-237.69 280.63,-117.79 351,-57.71 354.48,-54.74 358.4,-52.25 362.56,-50.16"/>
<polygon fill="#63b8ff" stroke="#63b8ff" points="364.08,-53.32 371.95,-46.22 361.37,-46.86 364.08,-53.32"/>
</a>
</g>
</g>
<!-- Node49 -->
<g id="Node000049" class="node">
<title>Node49</title>
<g id="a_Node000049"><a xlink:href="Game_8cpp.html#a2d7429dca77188f881bf1c340271ea90" target="_top" xlink:title=" ">
<polygon fill="white" stroke="#666666" points="467,-384.21 375,-384.21 375,-365.21 467,-365.21 467,-384.21"/>
<text text-anchor="middle" x="421" y="-372.21" font-family="Helvetica,sans-Serif" font-size="10.00">IsLuigiRaceway</text>
</a>
</g>
</g>
<!-- Node41&#45;&gt;Node49 -->
<g id="edge55_Node000041_Node000049" class="edge">
<title>Node41&#45;&gt;Node49</title>
<g id="a_edge55_Node000041_Node000049"><a xlink:title=" ">
<path fill="none" stroke="#63b8ff" d="M262.58,-292.21C279.54,-307.7 315.41,-338.38 351,-355.71 355.7,-358 360.71,-360.05 365.81,-361.88"/>
<polygon fill="#63b8ff" stroke="#63b8ff" points="365.08,-365.32 375.67,-365.12 367.27,-358.67 365.08,-365.32"/>
</a>
</g>
</g>
<!-- Node50 -->
<g id="Node000050" class="node">
<title>Node50</title>
<g id="a_Node000050"><a xlink:href="Game_8cpp.html#a591286b8b2219a8889cda4cc5d3b8c79" target="_top" xlink:title=" ">
<polygon fill="white" stroke="#666666" points="469.5,-347.21 372.5,-347.21 372.5,-328.21 469.5,-328.21 469.5,-347.21"/>
<text text-anchor="middle" x="421" y="-335.21" font-family="Helvetica,sans-Serif" font-size="10.00">IsMarioRaceway</text>
</a>
</g>
</g>
<!-- Node41&#45;&gt;Node50 -->
<g id="edge56_Node000041_Node000050" class="edge">
<title>Node41&#45;&gt;Node50</title>
<g id="a_edge56_Node000041_Node000050"><a xlink:title=" ">
<path fill="none" stroke="#63b8ff" d="M277,-292.3C296.81,-299.9 325.51,-310.56 351,-318.71 358.24,-321.03 365.96,-323.32 373.52,-325.47"/>
<polygon fill="#63b8ff" stroke="#63b8ff" points="372.74,-328.89 383.31,-328.21 374.62,-322.15 372.74,-328.89"/>
</a>
</g>
</g>
<!-- Node51 -->
<g id="Node000051" class="node">
<title>Node51</title>
<g id="a_Node000051"><a xlink:href="Game_8cpp.html#a8a295fe1e3fdfa50223813feaca6d7d6" target="_top" xlink:title=" ">
<polygon fill="white" stroke="#666666" points="466.5,-273.21 375.5,-273.21 375.5,-254.21 466.5,-254.21 466.5,-273.21"/>
<text text-anchor="middle" x="421" y="-261.21" font-family="Helvetica,sans-Serif" font-size="10.00">IsMooMooFarm</text>
</a>
</g>
</g>
<!-- Node41&#45;&gt;Node51 -->
<g id="edge57_Node000041_Node000051" class="edge">
<title>Node41&#45;&gt;Node51</title>
<g id="a_edge57_Node000041_Node000051"><a xlink:title=" ">
<path fill="none" stroke="#63b8ff" d="M295.2,-277.87C316.47,-275.46 342.42,-272.51 365.14,-269.94"/>
<polygon fill="#63b8ff" stroke="#63b8ff" points="365.79,-273.39 375.33,-268.78 365,-266.43 365.79,-273.39"/>
</a>
</g>
</g>
<!-- Node52 -->
<g id="Node000052" class="node">
<title>Node52</title>
<g id="a_Node000052"><a xlink:href="Game_8cpp.html#afb0bb7b7bc2b816a7a9fbedcc6c41ab7" target="_top" xlink:title=" ">
<polygon fill="white" stroke="#666666" points="469.5,-236.21 372.5,-236.21 372.5,-217.21 469.5,-217.21 469.5,-236.21"/>
<text text-anchor="middle" x="421" y="-224.21" font-family="Helvetica,sans-Serif" font-size="10.00">IsRoyalRaceway</text>
</a>
</g>
</g>
<!-- Node41&#45;&gt;Node52 -->
<g id="edge58_Node000041_Node000052" class="edge">
<title>Node41&#45;&gt;Node52</title>
<g id="a_edge58_Node000041_Node000052"><a xlink:title=" ">
<path fill="none" stroke="#63b8ff" d="M275.32,-273.06C295.12,-264.9 324.66,-253.2 351,-244.71 357.33,-242.67 364.05,-240.7 370.71,-238.85"/>
<polygon fill="#63b8ff" stroke="#63b8ff" points="371.63,-242.22 380.37,-236.23 369.8,-235.46 371.63,-242.22"/>
</a>
</g>
</g>
<!-- Node53 -->
<g id="Node000053" class="node">
<title>Node53</title>
<g id="a_Node000053"><a xlink:href="Game_8cpp.html#ab05bb065469940f40a5023c58a8f9e7f" target="_top" xlink:title=" ">
<polygon fill="white" stroke="#666666" points="461,-199.21 381,-199.21 381,-180.21 461,-180.21 461,-199.21"/>
<text text-anchor="middle" x="421" y="-187.21" font-family="Helvetica,sans-Serif" font-size="10.00">IsYoshiValley</text>
</a>
</g>
</g>
<!-- Node41&#45;&gt;Node53 -->
<g id="edge59_Node000041_Node000053" class="edge">
<title>Node41&#45;&gt;Node53</title>
<g id="a_edge59_Node000041_Node000053"><a xlink:title=" ">
<path fill="none" stroke="#63b8ff" d="M262.23,-273.14C278.96,-257.21 314.86,-225.3 351,-207.71 357.21,-204.69 363.98,-202.13 370.79,-199.98"/>
<polygon fill="#63b8ff" stroke="#63b8ff" points="372.08,-203.25 380.71,-197.1 370.14,-196.52 372.08,-203.25"/>
</a>
</g>
</g>
<!-- Node43&#45;&gt;Node42 -->
<g id="edge51_Node000043_Node000042" class="edge">
<title>Node43&#45;&gt;Node42</title>
<g id="a_edge51_Node000043_Node000042"><a xlink:title=" ">
<path fill="none" stroke="#63b8ff" d="M465.9,-291.11C474.43,-288.56 483.14,-285.45 491,-281.71 523.57,-266.24 556.76,-240.53 576.62,-223.86"/>
<polygon fill="#63b8ff" stroke="#63b8ff" points="578.94,-226.47 584.28,-217.32 574.4,-221.15 578.94,-226.47"/>
</a>
</g>
</g>
<!-- Node44 -->
<g id="Node000044" class="node">
<title>Node44</title>
<g id="a_Node000044"><a xlink:href="math__util_8c.html#aaa39a297477f56051975259f4bddd829" target="_top" xlink:title=" ">
<polygon fill="white" stroke="#666666" points="621,-304.21 571,-304.21 571,-285.21 621,-285.21 621,-304.21"/>
<text text-anchor="middle" x="596" y="-292.21" font-family="Helvetica,sans-Serif" font-size="10.00">atan2s</text>
</a>
</g>
</g>
<!-- Node43&#45;&gt;Node44 -->
<g id="edge49_Node000043_Node000044" class="edge">
<title>Node43&#45;&gt;Node44</title>
<g id="a_edge49_Node000043_Node000044"><a xlink:title=" ">
<path fill="none" stroke="#63b8ff" d="M467,-299.15C496.35,-298.13 534.04,-296.83 560.91,-295.9"/>
<polygon fill="#63b8ff" stroke="#63b8ff" points="561.12,-299.39 570.99,-295.55 560.87,-292.39 561.12,-299.39"/>
</a>
</g>
</g>
<!-- Node45 -->
<g id="Node000045" class="node">
<title>Node45</title>
<g id="a_Node000045"><a xlink:href="math__util_8c.html#a0273b0ea0783a06996c28669a7438ed9" target="_top" xlink:title=" ">
<polygon fill="white" stroke="#666666" points="812.5,-298.21 730.5,-298.21 730.5,-279.21 812.5,-279.21 812.5,-298.21"/>
<text text-anchor="middle" x="771.5" y="-286.21" font-family="Helvetica,sans-Serif" font-size="10.00">atan2_lookup</text>
</a>
</g>
</g>
<!-- Node44&#45;&gt;Node45 -->
<g id="edge50_Node000044_Node000045" class="edge">
<title>Node44&#45;&gt;Node45</title>
<g id="a_edge50_Node000044_Node000045"><a xlink:title=" ">
<path fill="none" stroke="#63b8ff" d="M621.12,-293.88C646.58,-293 687.45,-291.59 720,-290.46"/>
<polygon fill="#63b8ff" stroke="#63b8ff" points="720.38,-293.95 730.25,-290.11 720.14,-286.95 720.38,-293.95"/>
</a>
</g>
</g>
</g>
</svg>
