<?xml version="1.0" encoding="UTF-8" standalone="no"?>
<!DOCTYPE svg PUBLIC "-//W3C//DTD SVG 1.1//EN"
 "http://www.w3.org/Graphics/SVG/1.1/DTD/svg11.dtd">
<!-- Generated by graphviz version 2.43.0 (0)
 -->
<!-- Title: AFinishline::Spawn Pages: 1 -->
<svg width="404pt" height="27pt"
 viewBox="0.00 0.00 404.00 27.00" xmlns="http://www.w3.org/2000/svg" xmlns:xlink="http://www.w3.org/1999/xlink">
<g id="graph0" class="graph" transform="scale(1 1) rotate(0) translate(4 23)">
<title>AFinishline::Spawn</title>
<!-- Node1 -->
<g id="Node000001" class="node">
<title>Node1</title>
<g id="a_Node000001"><a xlink:title=" ">
<polygon fill="#999999" stroke="#666666" points="108,-19 0,-19 0,0 108,0 108,-19"/>
<text text-anchor="middle" x="54" y="-7" font-family="Helvetica,sans-Serif" font-size="10.00">AFinishline::Spawn</text>
</a>
</g>
</g>
<!-- Node2 -->
<g id="Node000002" class="node">
<title>Node2</title>
<g id="a_Node000002"><a xlink:href="classAFinishline.html#a217d1abec019d9ff56b0e387fcd83f03" target="_top" xlink:title=" ">
<polygon fill="white" stroke="#666666" points="273,-19 144,-19 144,0 273,0 273,-19"/>
<text text-anchor="middle" x="208.5" y="-7" font-family="Helvetica,sans-Serif" font-size="10.00">AFinishline::AFinishline</text>
</a>
</g>
</g>
<!-- Node1&#45;&gt;Node2 -->
<g id="edge1_Node000001_Node000002" class="edge">
<title>Node1&#45;&gt;Node2</title>
<g id="a_edge1_Node000001_Node000002"><a xlink:title=" ">
<path fill="none" stroke="#63b8ff" d="M108.34,-9.5C116.61,-9.5 125.28,-9.5 133.9,-9.5"/>
<polygon fill="#63b8ff" stroke="#63b8ff" points="133.98,-13 143.98,-9.5 133.98,-6 133.98,-13"/>
</a>
</g>
</g>
<!-- Node3 -->
<g id="Node000003" class="node">
<title>Node3</title>
<g id="a_Node000003"><a xlink:href="classAActor.html#a679c43bacf3600fa2d7a6ab30e34a8a6" target="_top" xlink:title=" ">
<polygon fill="white" stroke="#666666" points="396,-19 309,-19 309,0 396,0 396,-19"/>
<text text-anchor="middle" x="352.5" y="-7" font-family="Helvetica,sans-Serif" font-size="10.00">AActor::AActor</text>
</a>
</g>
</g>
<!-- Node2&#45;&gt;Node3 -->
<g id="edge2_Node000002_Node000003" class="edge">
<title>Node2&#45;&gt;Node3</title>
<g id="a_edge2_Node000002_Node000003"><a xlink:title=" ">
<path fill="none" stroke="#63b8ff" d="M273.02,-9.5C281.63,-9.5 290.39,-9.5 298.78,-9.5"/>
<polygon fill="#63b8ff" stroke="#63b8ff" points="298.81,-13 308.81,-9.5 298.81,-6 298.81,-13"/>
</a>
</g>
</g>
</g>
</svg>
