<?xml version="1.0" encoding="UTF-8" standalone="no"?>
<!DOCTYPE svg PUBLIC "-//W3C//DTD SVG 1.1//EN"
 "http://www.w3.org/Graphics/SVG/1.1/DTD/svg11.dtd">
<!-- Generated by graphviz version 2.43.0 (0)
 -->
<!-- Title: AText::Spawn Pages: 1 -->
<svg width="762pt" height="140pt"
 viewBox="0.00 0.00 762.00 140.00" xmlns="http://www.w3.org/2000/svg" xmlns:xlink="http://www.w3.org/1999/xlink">
<g id="graph0" class="graph" transform="scale(1 1) rotate(0) translate(4 136)">
<title>AText::Spawn</title>
<!-- Node1 -->
<g id="Node000001" class="node">
<title>Node1</title>
<g id="a_Node000001"><a xlink:title=" ">
<polygon fill="#999999" stroke="#666666" points="81,-56 0,-56 0,-37 81,-37 81,-56"/>
<text text-anchor="middle" x="40.5" y="-44" font-family="Helvetica,sans-Serif" font-size="10.00">AText::Spawn</text>
</a>
</g>
</g>
<!-- Node2 -->
<g id="Node000002" class="node">
<title>Node2</title>
<g id="a_Node000002"><a xlink:href="classAText.html#ad1eb7d831c8cba5c851ec4b07c20e067" target="_top" xlink:title=" ">
<polygon fill="white" stroke="#666666" points="192,-56 117,-56 117,-37 192,-37 192,-56"/>
<text text-anchor="middle" x="154.5" y="-44" font-family="Helvetica,sans-Serif" font-size="10.00">AText::AText</text>
</a>
</g>
</g>
<!-- Node1&#45;&gt;Node2 -->
<g id="edge1_Node000001_Node000002" class="edge">
<title>Node1&#45;&gt;Node2</title>
<g id="a_edge1_Node000001_Node000002"><a xlink:title=" ">
<path fill="none" stroke="#63b8ff" d="M81.3,-46.5C89.53,-46.5 98.26,-46.5 106.71,-46.5"/>
<polygon fill="#63b8ff" stroke="#63b8ff" points="106.82,-50 116.82,-46.5 106.82,-43 106.82,-50"/>
</a>
</g>
</g>
<!-- Node3 -->
<g id="Node000003" class="node">
<title>Node3</title>
<g id="a_Node000003"><a xlink:href="classAActor.html#a679c43bacf3600fa2d7a6ab30e34a8a6" target="_top" xlink:title=" ">
<polygon fill="white" stroke="#666666" points="330,-93 243,-93 243,-74 330,-74 330,-93"/>
<text text-anchor="middle" x="286.5" y="-81" font-family="Helvetica,sans-Serif" font-size="10.00">AActor::AActor</text>
</a>
</g>
</g>
<!-- Node2&#45;&gt;Node3 -->
<g id="edge2_Node000002_Node000003" class="edge">
<title>Node2&#45;&gt;Node3</title>
<g id="a_edge2_Node000002_Node000003"><a xlink:title=" ">
<path fill="none" stroke="#63b8ff" d="M188.98,-56.03C205.08,-60.61 224.58,-66.16 241.83,-71.07"/>
<polygon fill="#63b8ff" stroke="#63b8ff" points="241.11,-74.5 251.68,-73.88 243.02,-67.77 241.11,-74.5"/>
</a>
</g>
</g>
<!-- Node4 -->
<g id="Node000004" class="node">
<title>Node4</title>
<g id="a_Node000004"><a xlink:href="classAText.html#a988845ca5b2b1d21e84cf22a68924f30" target="_top" xlink:title=" ">
<polygon fill="white" stroke="#666666" points="329,-56 244,-56 244,-37 329,-37 329,-56"/>
<text text-anchor="middle" x="286.5" y="-44" font-family="Helvetica,sans-Serif" font-size="10.00">AText::Print3D</text>
</a>
</g>
</g>
<!-- Node2&#45;&gt;Node4 -->
<g id="edge3_Node000002_Node000004" class="edge">
<title>Node2&#45;&gt;Node4</title>
<g id="a_edge3_Node000002_Node000004"><a xlink:title=" ">
<path fill="none" stroke="#63b8ff" d="M192.06,-46.5C204.86,-46.5 219.51,-46.5 233.34,-46.5"/>
<polygon fill="#63b8ff" stroke="#63b8ff" points="233.72,-50 243.72,-46.5 233.72,-43 233.72,-50"/>
</a>
</g>
</g>
<!-- Node12 -->
<g id="Node000012" class="node">
<title>Node12</title>
<g id="a_Node000012"><a xlink:href="classAText.html#a44078b693a091f9c74bd4c7e82e8f68f" target="_top" xlink:title=" ">
<polygon fill="white" stroke="#666666" points="345,-19 228,-19 228,0 345,0 345,-19"/>
<text text-anchor="middle" x="286.5" y="-7" font-family="Helvetica,sans-Serif" font-size="10.00">AText::ValidateString</text>
</a>
</g>
</g>
<!-- Node2&#45;&gt;Node12 -->
<g id="edge12_Node000002_Node000012" class="edge">
<title>Node2&#45;&gt;Node12</title>
<g id="a_edge12_Node000002_Node000012"><a xlink:title=" ">
<path fill="none" stroke="#63b8ff" d="M188.98,-36.97C205.08,-32.39 224.58,-26.84 241.83,-21.93"/>
<polygon fill="#63b8ff" stroke="#63b8ff" points="243.02,-25.23 251.68,-19.12 241.11,-18.5 243.02,-25.23"/>
</a>
</g>
</g>
<!-- Node5 -->
<g id="Node000005" class="node">
<title>Node5</title>
<g id="a_Node000005"><a xlink:href="menu__items_8c.html#ace62f40ce813c34904327e39643a0dbf" target="_top" xlink:title=" ">
<polygon fill="white" stroke="#666666" points="498,-93 381,-93 381,-74 498,-74 498,-93"/>
<text text-anchor="middle" x="439.5" y="-81" font-family="Helvetica,sans-Serif" font-size="10.00">char_to_glyph_index</text>
</a>
</g>
</g>
<!-- Node4&#45;&gt;Node5 -->
<g id="edge4_Node000004_Node000005" class="edge">
<title>Node4&#45;&gt;Node5</title>
<g id="a_edge4_Node000004_Node000005"><a xlink:title=" ">
<path fill="none" stroke="#63b8ff" d="M326.39,-56.03C345.69,-60.76 369.2,-66.52 389.69,-71.54"/>
<polygon fill="#63b8ff" stroke="#63b8ff" points="388.94,-74.96 399.48,-73.94 390.6,-68.16 388.94,-74.96"/>
</a>
</g>
</g>
<!-- Node9 -->
<g id="Node000009" class="node">
<title>Node9</title>
<g id="a_Node000009"><a xlink:href="classAText.html#a70a38a83b1264448d2e25b08cd06f562" target="_top" xlink:title=" ">
<polygon fill="white" stroke="#666666" points="496,-56 383,-56 383,-37 496,-37 496,-56"/>
<text text-anchor="middle" x="439.5" y="-44" font-family="Helvetica,sans-Serif" font-size="10.00">AText::PrintLetter3D</text>
</a>
</g>
</g>
<!-- Node4&#45;&gt;Node9 -->
<g id="edge9_Node000004_Node000009" class="edge">
<title>Node4&#45;&gt;Node9</title>
<g id="a_edge9_Node000004_Node000009"><a xlink:title=" ">
<path fill="none" stroke="#63b8ff" d="M329.16,-46.5C342.64,-46.5 357.93,-46.5 372.71,-46.5"/>
<polygon fill="#63b8ff" stroke="#63b8ff" points="372.84,-50 382.84,-46.5 372.84,-43 372.84,-50"/>
</a>
</g>
</g>
<!-- Node10 -->
<g id="Node000010" class="node">
<title>Node10</title>
<g id="a_Node000010"><a xlink:href="classAText.html#a32775153b99a75e6aae246788736707c" target="_top" xlink:title=" ">
<polygon fill="white" stroke="#666666" points="486,-19 393,-19 393,0 486,0 486,-19"/>
<text text-anchor="middle" x="439.5" y="-7" font-family="Helvetica,sans-Serif" font-size="10.00">AText::SetupVtx</text>
</a>
</g>
</g>
<!-- Node4&#45;&gt;Node10 -->
<g id="edge10_Node000004_Node000010" class="edge">
<title>Node4&#45;&gt;Node10</title>
<g id="a_edge10_Node000004_Node000010"><a xlink:title=" ">
<path fill="none" stroke="#63b8ff" d="M326.39,-36.97C345.69,-32.24 369.2,-26.48 389.69,-21.46"/>
<polygon fill="#63b8ff" stroke="#63b8ff" points="390.6,-24.84 399.48,-19.06 388.94,-18.04 390.6,-24.84"/>
</a>
</g>
</g>
<!-- Node6 -->
<g id="Node000006" class="node">
<title>Node6</title>
<g id="a_Node000006"><a xlink:href="menu__items_8c.html#ae8ba1b567dba01ff15c64d416653a70b" target="_top" xlink:title=" ">
<polygon fill="white" stroke="#666666" points="626,-132 534,-132 534,-113 626,-113 626,-132"/>
<text text-anchor="middle" x="580" y="-120" font-family="Helvetica,sans-Serif" font-size="10.00">func_80092DF8</text>
</a>
</g>
</g>
<!-- Node5&#45;&gt;Node6 -->
<g id="edge5_Node000005_Node000006" class="edge">
<title>Node5&#45;&gt;Node6</title>
<g id="a_edge5_Node000005_Node000006"><a xlink:title=" ">
<path fill="none" stroke="#63b8ff" d="M474.38,-93.04C492.74,-98.21 515.64,-104.66 535.32,-110.2"/>
<polygon fill="#63b8ff" stroke="#63b8ff" points="534.41,-113.58 544.99,-112.92 536.31,-106.84 534.41,-113.58"/>
</a>
</g>
</g>
<!-- Node7 -->
<g id="Node000007" class="node">
<title>Node7</title>
<g id="a_Node000007"><a xlink:href="menu__items_8c.html#acd5b29a8e8634aa4f3db4b9a7c5ba033" target="_top" xlink:title=" ">
<polygon fill="white" stroke="#666666" points="754,-113 662,-113 662,-94 754,-94 754,-113"/>
<text text-anchor="middle" x="708" y="-101" font-family="Helvetica,sans-Serif" font-size="10.00">func_80092E1C</text>
</a>
</g>
</g>
<!-- Node5&#45;&gt;Node7 -->
<g id="edge7_Node000005_Node000007" class="edge">
<title>Node5&#45;&gt;Node7</title>
<g id="a_edge7_Node000005_Node000007"><a xlink:title=" ">
<path fill="none" stroke="#63b8ff" d="M498.33,-87.84C543.77,-91.25 606.67,-95.97 651.51,-99.34"/>
<polygon fill="#63b8ff" stroke="#63b8ff" points="651.41,-102.84 661.64,-100.1 651.93,-95.86 651.41,-102.84"/>
</a>
</g>
</g>
<!-- Node8 -->
<g id="Node000008" class="node">
<title>Node8</title>
<g id="a_Node000008"><a xlink:href="menu__items_8c.html#ab26c8dca1828cd1d5a6c341cb851f0b9" target="_top" xlink:title=" ">
<polygon fill="white" stroke="#666666" points="625.5,-56 534.5,-56 534.5,-37 625.5,-37 625.5,-56"/>
<text text-anchor="middle" x="580" y="-44" font-family="Helvetica,sans-Serif" font-size="10.00">func_80092EE4</text>
</a>
</g>
</g>
<!-- Node5&#45;&gt;Node8 -->
<g id="edge8_Node000005_Node000008" class="edge">
<title>Node5&#45;&gt;Node8</title>
<g id="a_edge8_Node000005_Node000008"><a xlink:title=" ">
<path fill="none" stroke="#63b8ff" d="M476.17,-73.97C493.56,-69.33 514.68,-63.68 533.25,-58.72"/>
<polygon fill="#63b8ff" stroke="#63b8ff" points="534.21,-62.09 542.97,-56.12 532.41,-55.32 534.21,-62.09"/>
</a>
</g>
</g>
<!-- Node6&#45;&gt;Node7 -->
<g id="edge6_Node000006_Node000007" class="edge">
<title>Node6&#45;&gt;Node7</title>
<g id="a_edge6_Node000006_Node000007"><a xlink:title=" ">
<path fill="none" stroke="#63b8ff" d="M626.13,-115.69C634.46,-114.44 643.23,-113.12 651.81,-111.82"/>
<polygon fill="#63b8ff" stroke="#63b8ff" points="652.39,-115.27 661.76,-110.32 651.35,-108.35 652.39,-115.27"/>
</a>
</g>
</g>
<!-- Node11 -->
<g id="Node000011" class="node">
<title>Node11</title>
<g id="a_Node000011"><a xlink:href="string_8c.html#ad7f1ae1bbb49dece44bda378982a704d" target="_top" xlink:title=" ">
<polygon fill="white" stroke="#666666" points="609.5,-19 550.5,-19 550.5,0 609.5,0 609.5,-19"/>
<text text-anchor="middle" x="580" y="-7" font-family="Helvetica,sans-Serif" font-size="10.00">memcpy</text>
</a>
</g>
</g>
<!-- Node10&#45;&gt;Node11 -->
<g id="edge11_Node000010_Node000011" class="edge">
<title>Node10&#45;&gt;Node11</title>
<g id="a_edge11_Node000010_Node000011"><a xlink:title=" ">
<path fill="none" stroke="#63b8ff" d="M486.23,-9.5C503.72,-9.5 523.48,-9.5 540.25,-9.5"/>
<polygon fill="#63b8ff" stroke="#63b8ff" points="540.26,-13 550.26,-9.5 540.26,-6 540.26,-13"/>
</a>
</g>
</g>
</g>
</svg>
