<?xml version="1.0" encoding="UTF-8" standalone="no"?>
<!DOCTYPE svg PUBLIC "-//W3C//DTD SVG 1.1//EN"
 "http://www.w3.org/Graphics/SVG/1.1/DTD/svg11.dtd">
<!-- Generated by graphviz version 2.43.0 (0)
 -->
<!-- Title: ACar::ACar Pages: 1 -->
<!--zoomable 415 -->

<svg id="main" version="1.1" xmlns="http://www.w3.org/2000/svg" xmlns:xlink="http://www.w3.org/1999/xlink" xml:space="preserve" onload="init(evt)">

<style type="text/css"><![CDATA[
.node, .edge {opacity: 0.7;}
.node.selected, .edge.selected {opacity: 1;}
.edge:hover path { stroke: red; }
.edge:hover polygon { stroke: red; fill: red; }
]]></style>

<defs>
  <circle id="rim" cx="0" cy="0" r="7"/>
  <circle id="rim2" cx="0" cy="0" r="3.5"/>
  <g id="zoomPlus">
    <use xlink:href="#rim" fill="#404040"><set attributeName="fill" to="#808080" begin="zoomplus.mouseover" end="zoomplus.mouseout"/></use>
    <path d="M-4,0h8M0,-4v8" fill="none" stroke="white" stroke-width="1.5" pointer-events="none"/>
  </g>
  <g id="zoomMin">
    <use xlink:href="#rim" fill="#404040"><set attributeName="fill" to="#808080" begin="zoomminus.mouseover" end="zoomminus.mouseout"/></use>
    <path d="M-4,0h8" fill="none" stroke="white" stroke-width="1.5" pointer-events="none"/>
  </g>
  <g id="arrowUp" transform="translate(30 24)">
    <use xlink:href="#rim"/>
    <path pointer-events="none" fill="none" stroke="white" stroke-width="1.5" d="M0,-3.0v7 M-2.5,-0.5L0,-3.0L2.5,-0.5"/>
  </g>
  <g id="arrowRight" transform="rotate(90) translate(36 -43)">
    <use xlink:href="#rim"/>
    <path pointer-events="none" fill="none" stroke="white" stroke-width="1.5" d="M0,-3.0v7 M-2.5,-0.5L0,-3.0L2.5,-0.5"/>
  </g>
  <g id="arrowDown" transform="rotate(180) translate(-30 -48)">
    <use xlink:href="#rim"/>
    <path pointer-events="none" fill="none" stroke="white" stroke-width="1.5" d="M0,-3.0v7 M-2.5,-0.5L0,-3.0L2.5,-0.5"/>
  </g>
  <g id="arrowLeft" transform="rotate(270) translate(-36 17)">
    <use xlink:href="#rim"/>
    <path pointer-events="none" fill="none" stroke="white" stroke-width="1.5" d="M0,-3.0v7 M-2.5,-0.5L0,-3.0L2.5,-0.5"/>
  </g>
  <g id="resetDef">
    <use xlink:href="#rim2" fill="#404040"><set attributeName="fill" to="#808080" begin="reset.mouseover" end="reset.mouseout"/></use>
  </g>
</defs>
<script type="application/ecmascript">
var viewWidth = 1562;
var viewHeight = 415;
var sectionId = 'dynsection-2';
</script>
<script type="application/ecmascript" xlink:href="svg.min.js"/>
<svg id="graph" class="graph">
<g id="viewport">
<title>ACar::ACar</title>
<!-- Node1 -->
<g id="Node000001" class="node">
<title>Node1</title>
<g id="a_Node000001"><a xlink:title=" ">
<polygon fill="#999999" stroke="#666666" points="69,-132 0,-132 0,-113 69,-113 69,-132"/>
<text text-anchor="middle" x="34.5" y="-120" font-family="Helvetica,sans-Serif" font-size="10.00">ACar::ACar</text>
</a>
</g>
</g>
<!-- Node2 -->
<g id="Node000002" class="node">
<title>Node2</title>
<g id="a_Node000002"><a xlink:href="classAActor.html#a679c43bacf3600fa2d7a6ab30e34a8a6" target="_top" xlink:title=" ">
<polygon fill="white" stroke="#666666" points="233,-276 146,-276 146,-257 233,-257 233,-276"/>
<text text-anchor="middle" x="189.5" y="-264" font-family="Helvetica,sans-Serif" font-size="10.00">AActor::AActor</text>
</a>
</g>
</g>
<!-- Node1&#45;&gt;Node2 -->
<g id="edge1_Node000001_Node000002" class="edge">
<title>Node1&#45;&gt;Node2</title>
<g id="a_edge1_Node000001_Node000002"><a xlink:title=" ">
<path fill="none" stroke="#63b8ff" d="M37.88,-132.22C44.25,-156.13 64.11,-218.08 105,-248.5 113.93,-255.14 124.8,-259.43 135.7,-262.19"/>
<polygon fill="#63b8ff" stroke="#63b8ff" points="135.16,-265.65 145.67,-264.31 136.61,-258.8 135.16,-265.65"/>
</a>
</g>
</g>
<!-- Node3 -->
<g id="Node000003" class="node">
<title>Node3</title>
<g id="a_Node000003"><a xlink:href="actors_8c.html#a91fb2e4e37e7c72fea918fe2c1bb4eaf" target="_top" xlink:title=" ">
<polygon fill="white" stroke="#666666" points="259.5,-239 119.5,-239 119.5,-220 259.5,-220 259.5,-239"/>
<text text-anchor="middle" x="189.5" y="-227" font-family="Helvetica,sans-Serif" font-size="10.00">add_actor_to_empty_slot</text>
</a>
</g>
</g>
<!-- Node1&#45;&gt;Node3 -->
<g id="edge2_Node000001_Node000003" class="edge">
<title>Node1&#45;&gt;Node3</title>
<g id="a_edge2_Node000001_Node000003"><a xlink:title=" ">
<path fill="none" stroke="#63b8ff" d="M47.89,-132.12C61.66,-142.74 84.65,-160.21 105,-174.5 124.77,-188.39 147.74,-203.44 164.57,-214.28"/>
<polygon fill="#63b8ff" stroke="#63b8ff" points="162.93,-217.38 173.23,-219.83 166.7,-211.49 162.93,-217.38"/>
</a>
</g>
</g>
<!-- Node29 -->
<g id="Node000029" class="node">
<title>Node29</title>
<g id="a_Node000029"><a xlink:href="code__80005FD0_8c.html#a45fa364fbae557a3d2025ebdc0846cd2" target="_top" xlink:title=" ">
<polygon fill="white" stroke="#666666" points="413,-67 319,-67 319,-48 413,-48 413,-67"/>
<text text-anchor="middle" x="366" y="-55" font-family="Helvetica,sans-Serif" font-size="10.00">func_8000D6D0</text>
</a>
</g>
</g>
<!-- Node1&#45;&gt;Node29 -->
<g id="edge28_Node000001_Node000029" class="edge">
<title>Node1&#45;&gt;Node29</title>
<g id="a_edge28_Node000001_Node000029"><a xlink:title=" ">
<path fill="none" stroke="#63b8ff" d="M43.73,-112.75C55.65,-99.44 79.15,-76.12 105,-66.5 171.61,-41.7 254.57,-43.99 308.61,-49.43"/>
<polygon fill="#63b8ff" stroke="#63b8ff" points="308.37,-52.93 318.68,-50.52 309.12,-45.97 308.37,-52.93"/>
</a>
</g>
</g>
<!-- Node43 -->
<g id="Node000043" class="node">
<title>Node43</title>
<g id="a_Node000043"><a xlink:href="code__80005FD0_8c.html#a124bae511133f507498b19842362feeb" target="_top" xlink:title=" ">
<polygon fill="white" stroke="#666666" points="412,-122 320,-122 320,-103 412,-103 412,-122"/>
<text text-anchor="middle" x="366" y="-110" font-family="Helvetica,sans-Serif" font-size="10.00">func_8000D940</text>
</a>
</g>
</g>
<!-- Node1&#45;&gt;Node43 -->
<g id="edge43_Node000001_Node000043" class="edge">
<title>Node1&#45;&gt;Node43</title>
<g id="a_edge43_Node000001_Node000043"><a xlink:title=" ">
<path fill="none" stroke="#63b8ff" d="M65.62,-132.08C77.73,-135.46 91.89,-138.83 105,-140.5 179.51,-149.99 199.72,-151.67 274,-140.5 293.4,-137.58 314.38,-131.35 331.29,-125.5"/>
<polygon fill="#63b8ff" stroke="#63b8ff" points="332.5,-128.79 340.74,-122.14 330.15,-122.2 332.5,-128.79"/>
</a>
</g>
</g>
<!-- Node44 -->
<g id="Node000044" class="node">
<title>Node44</title>
<g id="a_Node000044"><a xlink:href="Utils_8cpp.html#aeaf9fffe1458c3ce2a95a80906db76c3" target="_top" xlink:title=" ">
<polygon fill="white" stroke="#666666" points="274,-95 105,-95 105,-76 274,-76 274,-95"/>
<text text-anchor="middle" x="189.5" y="-83" font-family="Helvetica,sans-Serif" font-size="10.00">GetVehiclePathPointDistributed</text>
</a>
</g>
</g>
<!-- Node1&#45;&gt;Node44 -->
<g id="edge48_Node000001_Node000044" class="edge">
<title>Node1&#45;&gt;Node44</title>
<g id="a_edge48_Node000001_Node000044"><a xlink:title=" ">
<path fill="none" stroke="#63b8ff" d="M68.99,-112.95C80.38,-109.8 93.21,-106.38 105,-103.5 113.78,-101.35 123.11,-99.21 132.24,-97.19"/>
<polygon fill="#63b8ff" stroke="#63b8ff" points="133,-100.61 142.02,-95.05 131.5,-93.77 133,-100.61"/>
</a>
</g>
</g>
<!-- Node45 -->
<g id="Node000045" class="node">
<title>Node45</title>
<g id="a_Node000045"><a xlink:href="math__util_8c.html#a151b63b8adf9af7e4054b3b84bd226dc" target="_top" xlink:title=" ">
<polygon fill="white" stroke="#666666" points="225.5,-19 153.5,-19 153.5,0 225.5,0 225.5,-19"/>
<text text-anchor="middle" x="189.5" y="-7" font-family="Helvetica,sans-Serif" font-size="10.00">random_int</text>
</a>
</g>
</g>
<!-- Node1&#45;&gt;Node45 -->
<g id="edge49_Node000001_Node000045" class="edge">
<title>Node1&#45;&gt;Node45</title>
<g id="a_edge49_Node000001_Node000045"><a xlink:title=" ">
<path fill="none" stroke="#63b8ff" d="M40.36,-112.83C50.06,-94.51 73.64,-54.67 105,-33.5 116.46,-25.77 130.41,-20.49 143.61,-16.91"/>
<polygon fill="#63b8ff" stroke="#63b8ff" points="144.61,-20.27 153.5,-14.49 142.95,-13.47 144.61,-20.27"/>
</a>
</g>
</g>
<!-- Node47 -->
<g id="Node000047" class="node">
<title>Node47</title>
<g id="a_Node000047"><a xlink:href="code__80005FD0_8c.html#ac8070bcd41974c70ea8b6d4218b1ebef" target="_top" xlink:title=" ">
<polygon fill="white" stroke="#666666" points="256,-132 123,-132 123,-113 256,-113 256,-132"/>
<text text-anchor="middle" x="189.5" y="-120" font-family="Helvetica,sans-Serif" font-size="10.00">spawn_vehicle_on_road</text>
</a>
</g>
</g>
<!-- Node1&#45;&gt;Node47 -->
<g id="edge51_Node000001_Node000047" class="edge">
<title>Node1&#45;&gt;Node47</title>
<g id="a_edge51_Node000001_Node000047"><a xlink:title=" ">
<path fill="none" stroke="#63b8ff" d="M69.08,-122.5C82.07,-122.5 97.49,-122.5 112.88,-122.5"/>
<polygon fill="#63b8ff" stroke="#63b8ff" points="112.95,-126 122.95,-122.5 112.95,-119 112.95,-126"/>
</a>
</g>
</g>
<!-- Node4 -->
<g id="Node000004" class="node">
<title>Node4</title>
<g id="a_Node000004"><a xlink:href="actors_8c.html#a39c023177b5a7686cdd1fc65b8b953e1" target="_top" xlink:title=" ">
<polygon fill="white" stroke="#666666" points="397,-220 335,-220 335,-201 397,-201 397,-220"/>
<text text-anchor="middle" x="366" y="-208" font-family="Helvetica,sans-Serif" font-size="10.00">actor_init</text>
</a>
</g>
</g>
<!-- Node3&#45;&gt;Node4 -->
<g id="edge3_Node000003_Node000004" class="edge">
<title>Node3&#45;&gt;Node4</title>
<g id="a_edge3_Node000003_Node000004"><a xlink:title=" ">
<path fill="none" stroke="#63b8ff" d="M259.72,-221.96C281.82,-219.56 305.53,-216.97 324.85,-214.87"/>
<polygon fill="#63b8ff" stroke="#63b8ff" points="325.24,-218.35 334.8,-213.79 324.48,-211.39 325.24,-218.35"/>
</a>
</g>
</g>
<!-- Node26 -->
<g id="Node000026" class="node">
<title>Node26</title>
<g id="a_Node000026"><a xlink:href="Game_8cpp.html#acea5cfd9ab22f745bd6627869b95a62e" target="_top" xlink:title=" ">
<polygon fill="white" stroke="#666666" points="422,-331 310,-331 310,-312 422,-312 422,-331"/>
<text text-anchor="middle" x="366" y="-319" font-family="Helvetica,sans-Serif" font-size="10.00">CM_ActorBeginPlay</text>
</a>
</g>
</g>
<!-- Node3&#45;&gt;Node26 -->
<g id="edge25_Node000003_Node000026" class="edge">
<title>Node3&#45;&gt;Node26</title>
<g id="a_edge25_Node000003_Node000026"><a xlink:title=" ">
<path fill="none" stroke="#63b8ff" d="M255.97,-239.16C262.36,-241.62 268.51,-244.68 274,-248.5 297.99,-265.18 286.81,-285.73 310,-303.5 311.81,-304.89 313.74,-306.18 315.74,-307.36"/>
<polygon fill="#63b8ff" stroke="#63b8ff" points="314.41,-310.61 324.92,-311.97 317.56,-304.36 314.41,-310.61"/>
</a>
</g>
</g>
<!-- Node27 -->
<g id="Node000027" class="node">
<title>Node27</title>
<g id="a_Node000027"><a xlink:href="Game_8cpp.html#a42f23077aaa52cb3ea5c7803b7dd6816" target="_top" xlink:title=" ">
<polygon fill="white" stroke="#666666" points="419,-294 313,-294 313,-275 419,-275 419,-294"/>
<text text-anchor="middle" x="366" y="-282" font-family="Helvetica,sans-Serif" font-size="10.00">CM_AddBaseActor</text>
</a>
</g>
</g>
<!-- Node3&#45;&gt;Node27 -->
<g id="edge26_Node000003_Node000027" class="edge">
<title>Node3&#45;&gt;Node27</title>
<g id="a_edge26_Node000003_Node000027"><a xlink:title=" ">
<path fill="none" stroke="#63b8ff" d="M241.4,-239.03C252.29,-241.64 263.64,-244.79 274,-248.5 290.84,-254.53 293.45,-259.7 310,-266.5 314.24,-268.24 318.72,-269.94 323.22,-271.55"/>
<polygon fill="#63b8ff" stroke="#63b8ff" points="322.41,-274.97 333.01,-274.91 324.69,-268.35 322.41,-274.97"/>
</a>
</g>
</g>
<!-- Node28 -->
<g id="Node000028" class="node">
<title>Node28</title>
<g id="a_Node000028"><a xlink:href="Game_8cpp.html#a0841ffe9a66e95aca42438b9d8ffc3d3" target="_top" xlink:title=" ">
<polygon fill="white" stroke="#666666" points="416.5,-257 315.5,-257 315.5,-238 416.5,-238 416.5,-257"/>
<text text-anchor="middle" x="366" y="-245" font-family="Helvetica,sans-Serif" font-size="10.00">CM_GetActorSize</text>
</a>
</g>
</g>
<!-- Node3&#45;&gt;Node28 -->
<g id="edge27_Node000003_Node000028" class="edge">
<title>Node3&#45;&gt;Node28</title>
<g id="a_edge27_Node000003_Node000028"><a xlink:title=" ">
<path fill="none" stroke="#63b8ff" d="M259.72,-236.64C274.79,-238.2 290.62,-239.83 305.29,-241.34"/>
<polygon fill="#63b8ff" stroke="#63b8ff" points="304.93,-244.82 315.24,-242.37 305.65,-237.86 304.93,-244.82"/>
</a>
</g>
</g>
<!-- Node5 -->
<g id="Node000005" class="node">
<title>Node5</title>
<g id="a_Node000005"><a xlink:href="collision_8c.html#a37aa55b3768d001533ad75e7f1b8388a" target="_top" xlink:title=" ">
<polygon fill="white" stroke="#666666" points="964.5,-174 823.5,-174 823.5,-155 964.5,-155 964.5,-174"/>
<text text-anchor="middle" x="894" y="-162" font-family="Helvetica,sans-Serif" font-size="10.00">check_bounding_collision</text>
</a>
</g>
</g>
<!-- Node4&#45;&gt;Node5 -->
<g id="edge4_Node000004_Node000005" class="edge">
<title>Node4&#45;&gt;Node5</title>
<g id="a_edge4_Node000004_Node000005"><a xlink:title=" ">
<path fill="none" stroke="#63b8ff" d="M397.14,-203.07C414.78,-199.01 437.53,-194.26 458,-191.5 581.35,-174.88 725.77,-168.47 813.27,-166.01"/>
<polygon fill="#63b8ff" stroke="#63b8ff" points="813.49,-169.51 823.39,-165.74 813.3,-162.51 813.49,-169.51"/>
</a>
</g>
</g>
<!-- Node9 -->
<g id="Node000009" class="node">
<title>Node9</title>
<g id="a_Node000009"><a xlink:href="actors_8c.html#a1a9bccb586242555a9123ebd4ab70f2a" target="_top" xlink:title=" ">
<polygon fill="white" stroke="#666666" points="593.5,-360.5 461.5,-360.5 461.5,-330.5 593.5,-330.5 593.5,-360.5"/>
<text text-anchor="start" x="469.5" y="-348.5" font-family="Helvetica,sans-Serif" font-size="10.00">cleanup_red_and_green</text>
<text text-anchor="middle" x="527.5" y="-337.5" font-family="Helvetica,sans-Serif" font-size="10.00">_shells</text>
</a>
</g>
</g>
<!-- Node4&#45;&gt;Node9 -->
<g id="edge8_Node000004_Node000009" class="edge">
<title>Node4&#45;&gt;Node9</title>
<g id="a_edge8_Node000004_Node000009"><a xlink:title=" ">
<path fill="none" stroke="#63b8ff" d="M397.24,-215.69C405.99,-218.37 415.05,-222.41 422,-228.5 449.8,-252.87 433.23,-276.05 458,-303.5 465.58,-311.9 475.24,-319.2 484.9,-325.25"/>
<polygon fill="#63b8ff" stroke="#63b8ff" points="483.32,-328.38 493.71,-330.45 486.88,-322.35 483.32,-328.38"/>
</a>
</g>
</g>
<!-- Node22 -->
<g id="Node000022" class="node">
<title>Node22</title>
<g id="a_Node000022"><a xlink:href="collision_8c.html#ad72fef3ffe32191d73b1822f512ebf3f" target="_top" xlink:title=" ">
<polygon fill="white" stroke="#666666" points="575,-294 480,-294 480,-275 575,-275 575,-294"/>
<text text-anchor="middle" x="527.5" y="-282" font-family="Helvetica,sans-Serif" font-size="10.00">func_802AAAAC</text>
</a>
</g>
</g>
<!-- Node4&#45;&gt;Node22 -->
<g id="edge21_Node000004_Node000022" class="edge">
<title>Node4&#45;&gt;Node22</title>
<g id="a_edge21_Node000004_Node000022"><a xlink:title=" ">
<path fill="none" stroke="#63b8ff" d="M397.03,-217.38C405.5,-220.08 414.44,-223.72 422,-228.5 441.66,-240.94 437.98,-254.65 458,-266.5 461.85,-268.78 466,-270.78 470.27,-272.53"/>
<polygon fill="#63b8ff" stroke="#63b8ff" points="469.17,-275.85 479.77,-275.96 471.56,-269.27 469.17,-275.85"/>
</a>
</g>
</g>
<!-- Node24 -->
<g id="Node000024" class="node">
<title>Node24</title>
<g id="a_Node000024"><a xlink:href="math__util_8c.html#af7b470ed76fce07b8042a47c96e5690b" target="_top" xlink:title=" ">
<polygon fill="white" stroke="#666666" points="581,-257 474,-257 474,-238 581,-238 581,-257"/>
<text text-anchor="middle" x="527.5" y="-245" font-family="Helvetica,sans-Serif" font-size="10.00">vec3f_copy_return</text>
</a>
</g>
</g>
<!-- Node4&#45;&gt;Node24 -->
<g id="edge23_Node000004_Node000024" class="edge">
<title>Node4&#45;&gt;Node24</title>
<g id="a_edge23_Node000004_Node000024"><a xlink:title=" ">
<path fill="none" stroke="#63b8ff" d="M397,-217.46C419.07,-222.58 449.6,-229.66 475.47,-235.66"/>
<polygon fill="#63b8ff" stroke="#63b8ff" points="474.97,-239.14 485.5,-237.99 476.55,-232.32 474.97,-239.14"/>
</a>
</g>
</g>
<!-- Node25 -->
<g id="Node000025" class="node">
<title>Node25</title>
<g id="a_Node000025"><a xlink:href="math__util_8c.html#a0e270ee67600c8c9c2f140c647d008a1" target="_top" xlink:title=" ">
<polygon fill="white" stroke="#666666" points="564.5,-220 490.5,-220 490.5,-201 564.5,-201 564.5,-220"/>
<text text-anchor="middle" x="527.5" y="-208" font-family="Helvetica,sans-Serif" font-size="10.00">vec3s_copy</text>
</a>
</g>
</g>
<!-- Node4&#45;&gt;Node25 -->
<g id="edge24_Node000004_Node000025" class="edge">
<title>Node4&#45;&gt;Node25</title>
<g id="a_edge24_Node000004_Node000025"><a xlink:title=" ">
<path fill="none" stroke="#63b8ff" d="M397,-210.5C420.42,-210.5 453.38,-210.5 480.18,-210.5"/>
<polygon fill="#63b8ff" stroke="#63b8ff" points="480.49,-214 490.49,-210.5 480.49,-207 480.49,-214"/>
</a>
</g>
</g>
<!-- Node6 -->
<g id="Node000006" class="node">
<title>Node6</title>
<g id="a_Node000006"><a xlink:href="collision_8c.html#ac312bf382cb40752f6b790a99e7cdcb6" target="_top" xlink:title=" ">
<polygon fill="white" stroke="#666666" points="1119,-137 1011,-137 1011,-118 1119,-118 1119,-137"/>
<text text-anchor="middle" x="1065" y="-125" font-family="Helvetica,sans-Serif" font-size="10.00">check_collision_yx</text>
</a>
</g>
</g>
<!-- Node5&#45;&gt;Node6 -->
<g id="edge5_Node000005_Node000006" class="edge">
<title>Node5&#45;&gt;Node6</title>
<g id="a_edge5_Node000005_Node000006"><a xlink:title=" ">
<path fill="none" stroke="#63b8ff" d="M938.52,-154.97C960.42,-150.18 987.15,-144.32 1010.31,-139.25"/>
<polygon fill="#63b8ff" stroke="#63b8ff" points="1011.31,-142.62 1020.33,-137.06 1009.82,-135.78 1011.31,-142.62"/>
</a>
</g>
</g>
<!-- Node7 -->
<g id="Node000007" class="node">
<title>Node7</title>
<g id="a_Node000007"><a xlink:href="collision_8c.html#a4b48832a90e984536a0635a016ec4f28" target="_top" xlink:title=" ">
<polygon fill="white" stroke="#666666" points="1118.5,-211 1011.5,-211 1011.5,-192 1118.5,-192 1118.5,-211"/>
<text text-anchor="middle" x="1065" y="-199" font-family="Helvetica,sans-Serif" font-size="10.00">check_collision_zx</text>
</a>
</g>
</g>
<!-- Node5&#45;&gt;Node7 -->
<g id="edge6_Node000005_Node000007" class="edge">
<title>Node5&#45;&gt;Node7</title>
<g id="a_edge6_Node000005_Node000007"><a xlink:title=" ">
<path fill="none" stroke="#63b8ff" d="M938.52,-174.03C960.42,-178.82 987.15,-184.68 1010.31,-189.75"/>
<polygon fill="#63b8ff" stroke="#63b8ff" points="1009.82,-193.22 1020.33,-191.94 1011.31,-186.38 1009.82,-193.22"/>
</a>
</g>
</g>
<!-- Node8 -->
<g id="Node000008" class="node">
<title>Node8</title>
<g id="a_Node000008"><a xlink:href="collision_8c.html#a21fef964ab48191a1c0341954ef27a40" target="_top" xlink:title=" ">
<polygon fill="white" stroke="#666666" points="1118.5,-174 1011.5,-174 1011.5,-155 1118.5,-155 1118.5,-174"/>
<text text-anchor="middle" x="1065" y="-162" font-family="Helvetica,sans-Serif" font-size="10.00">check_collision_zy</text>
</a>
</g>
</g>
<!-- Node5&#45;&gt;Node8 -->
<g id="edge7_Node000005_Node000008" class="edge">
<title>Node5&#45;&gt;Node8</title>
<g id="a_edge7_Node000005_Node000008"><a xlink:title=" ">
<path fill="none" stroke="#63b8ff" d="M964.71,-164.5C976.81,-164.5 989.32,-164.5 1001.22,-164.5"/>
<polygon fill="#63b8ff" stroke="#63b8ff" points="1001.49,-168 1011.49,-164.5 1001.49,-161 1001.49,-168"/>
</a>
</g>
</g>
<!-- Node10 -->
<g id="Node000010" class="node">
<title>Node10</title>
<g id="a_Node000010"><a xlink:href="Game_8cpp.html#a693de7d8b89fe291aafea86bc64a0a2e" target="_top" xlink:title=" ">
<polygon fill="white" stroke="#666666" points="746,-407 666,-407 666,-388 746,-388 746,-407"/>
<text text-anchor="middle" x="706" y="-395" font-family="Helvetica,sans-Serif" font-size="10.00">CM_GetActor</text>
</a>
</g>
</g>
<!-- Node9&#45;&gt;Node10 -->
<g id="edge9_Node000009_Node000010" class="edge">
<title>Node9&#45;&gt;Node10</title>
<g id="a_edge9_Node000009_Node000010"><a xlink:title=" ">
<path fill="none" stroke="#63b8ff" d="M574.4,-360.52C592.58,-366.33 613.72,-372.92 633,-378.5 640.95,-380.8 649.42,-383.14 657.65,-385.35"/>
<polygon fill="#63b8ff" stroke="#63b8ff" points="656.97,-388.79 667.54,-387.98 658.77,-382.03 656.97,-388.79"/>
</a>
</g>
</g>
<!-- Node11 -->
<g id="Node000011" class="node">
<title>Node11</title>
<g id="a_Node000011"><a xlink:href="code__80005FD0_8c.html#ad301b978cdd3c4cc190b10be050d51d8" target="_top" xlink:title=" ">
<polygon fill="white" stroke="#666666" points="779,-369.5 633,-369.5 633,-339.5 779,-339.5 779,-369.5"/>
<text text-anchor="start" x="641" y="-357.5" font-family="Helvetica,sans-Serif" font-size="10.00">delete_actor_in_unexpired</text>
<text text-anchor="middle" x="706" y="-346.5" font-family="Helvetica,sans-Serif" font-size="10.00">_actor_list</text>
</a>
</g>
</g>
<!-- Node9&#45;&gt;Node11 -->
<g id="edge10_Node000009_Node000011" class="edge">
<title>Node9&#45;&gt;Node11</title>
<g id="a_edge10_Node000009_Node000011"><a xlink:title=" ">
<path fill="none" stroke="#63b8ff" d="M593.72,-348.83C603.2,-349.31 613.05,-349.81 622.81,-350.31"/>
<polygon fill="#63b8ff" stroke="#63b8ff" points="622.75,-353.81 632.92,-350.82 623.11,-346.82 622.75,-353.81"/>
</a>
</g>
</g>
<!-- Node12 -->
<g id="Node000012" class="node">
<title>Node12</title>
<g id="a_Node000012"><a xlink:href="actors_8c.html#a694ec6ef7548b8618aeb35c038d3a9b9" target="_top" xlink:title=" ">
<polygon fill="white" stroke="#666666" points="747.5,-321 664.5,-321 664.5,-302 747.5,-302 747.5,-321"/>
<text text-anchor="middle" x="706" y="-309" font-family="Helvetica,sans-Serif" font-size="10.00">destroy_actor</text>
</a>
</g>
</g>
<!-- Node9&#45;&gt;Node12 -->
<g id="edge11_Node000009_Node000012" class="edge">
<title>Node9&#45;&gt;Node12</title>
<g id="a_edge11_Node000009_Node000012"><a xlink:title=" ">
<path fill="none" stroke="#63b8ff" d="M593.72,-332.94C613.78,-329.07 635.55,-324.88 654.47,-321.23"/>
<polygon fill="#63b8ff" stroke="#63b8ff" points="655.21,-324.66 664.37,-319.33 653.88,-317.78 655.21,-324.66"/>
</a>
</g>
</g>
<!-- Node13 -->
<g id="Node000013" class="node">
<title>Node13</title>
<g id="a_Node000013"><a xlink:href="actors_8c.html#a12dc3ccac4c7d8569eadac0af4fd6f9f" target="_top" xlink:title=" ">
<polygon fill="white" stroke="#666666" points="973,-321 815,-321 815,-302 973,-302 973,-321"/>
<text text-anchor="middle" x="894" y="-309" font-family="Helvetica,sans-Serif" font-size="10.00">play_sound_before_despawn</text>
</a>
</g>
</g>
<!-- Node12&#45;&gt;Node13 -->
<g id="edge12_Node000012_Node000013" class="edge">
<title>Node12&#45;&gt;Node13</title>
<g id="a_edge12_Node000012_Node000013"><a xlink:title=" ">
<path fill="none" stroke="#63b8ff" d="M747.82,-311.5C764.65,-311.5 784.86,-311.5 804.77,-311.5"/>
<polygon fill="#63b8ff" stroke="#63b8ff" points="804.82,-315 814.82,-311.5 804.82,-308 804.82,-315"/>
</a>
</g>
</g>
<!-- Node14 -->
<g id="Node000014" class="node">
<title>Node14</title>
<g id="a_Node000014"><a xlink:href="external_8c.html#ae72057869772019e4464c87d4e16c682" target="_top" xlink:title=" ">
<polygon fill="white" stroke="#666666" points="1111,-321 1019,-321 1019,-302 1111,-302 1111,-321"/>
<text text-anchor="middle" x="1065" y="-309" font-family="Helvetica,sans-Serif" font-size="10.00">func_800C99E0</text>
</a>
</g>
</g>
<!-- Node13&#45;&gt;Node14 -->
<g id="edge13_Node000013_Node000014" class="edge">
<title>Node13&#45;&gt;Node14</title>
<g id="a_edge13_Node000013_Node000014"><a xlink:title=" ">
<path fill="none" stroke="#63b8ff" d="M973.07,-311.5C985.12,-311.5 997.35,-311.5 1008.76,-311.5"/>
<polygon fill="#63b8ff" stroke="#63b8ff" points="1008.99,-315 1018.99,-311.5 1008.99,-308 1008.99,-315"/>
</a>
</g>
</g>
<!-- Node15 -->
<g id="Node000015" class="node">
<title>Node15</title>
<g id="a_Node000015"><a xlink:href="external_8c.html#aeb87c527482a244173df36a1f3d4f446" target="_top" xlink:title=" ">
<polygon fill="white" stroke="#666666" points="1249,-340 1157,-340 1157,-321 1249,-321 1249,-340"/>
<text text-anchor="middle" x="1203" y="-328" font-family="Helvetica,sans-Serif" font-size="10.00">func_800C21E8</text>
</a>
</g>
</g>
<!-- Node14&#45;&gt;Node15 -->
<g id="edge14_Node000014_Node000015" class="edge">
<title>Node14&#45;&gt;Node15</title>
<g id="a_edge14_Node000014_Node000015"><a xlink:title=" ">
<path fill="none" stroke="#63b8ff" d="M1111.29,-317.83C1122.64,-319.41 1134.95,-321.13 1146.73,-322.78"/>
<polygon fill="#63b8ff" stroke="#63b8ff" points="1146.52,-326.28 1156.91,-324.2 1147.49,-319.35 1146.52,-326.28"/>
</a>
</g>
</g>
<!-- Node16 -->
<g id="Node000016" class="node">
<title>Node16</title>
<g id="a_Node000016"><a xlink:href="external_8c.html#a028d40421b90c38f68ebfd5acc626f2e" target="_top" xlink:title=" ">
<polygon fill="white" stroke="#666666" points="1249,-303 1157,-303 1157,-284 1249,-284 1249,-303"/>
<text text-anchor="middle" x="1203" y="-291" font-family="Helvetica,sans-Serif" font-size="10.00">func_800C5578</text>
</a>
</g>
</g>
<!-- Node14&#45;&gt;Node16 -->
<g id="edge15_Node000014_Node000016" class="edge">
<title>Node14&#45;&gt;Node16</title>
<g id="a_edge15_Node000014_Node000016"><a xlink:title=" ">
<path fill="none" stroke="#63b8ff" d="M1111.29,-305.51C1122.64,-304 1134.95,-302.37 1146.73,-300.81"/>
<polygon fill="#63b8ff" stroke="#63b8ff" points="1147.46,-304.25 1156.91,-299.47 1146.54,-297.31 1147.46,-304.25"/>
</a>
</g>
</g>
<!-- Node17 -->
<g id="Node000017" class="node">
<title>Node17</title>
<g id="a_Node000017"><a xlink:href="external_8c.html#ac0fb767de7e14a03f1bcfa53f0abd23b" target="_top" xlink:title=" ">
<polygon fill="white" stroke="#666666" points="1425,-340 1285,-340 1285,-321 1425,-321 1425,-340"/>
<text text-anchor="middle" x="1355" y="-328" font-family="Helvetica,sans-Serif" font-size="10.00">delete_sound_from_bank</text>
</a>
</g>
</g>
<!-- Node16&#45;&gt;Node17 -->
<g id="edge16_Node000016_Node000017" class="edge">
<title>Node16&#45;&gt;Node17</title>
<g id="a_edge16_Node000016_Node000017"><a xlink:title=" ">
<path fill="none" stroke="#63b8ff" d="M1242.63,-303.03C1261.8,-307.76 1285.16,-313.52 1305.52,-318.54"/>
<polygon fill="#63b8ff" stroke="#63b8ff" points="1304.69,-321.94 1315.24,-320.94 1306.37,-315.15 1304.69,-321.94"/>
</a>
</g>
</g>
<!-- Node19 -->
<g id="Node000019" class="node">
<title>Node19</title>
<g id="a_Node000019"><a xlink:href="external_8c.html#ab83bd36e63f0f1baddcb2482b5ad31b0" target="_top" xlink:title=" ">
<polygon fill="white" stroke="#666666" points="1401.5,-303 1308.5,-303 1308.5,-284 1401.5,-284 1401.5,-303"/>
<text text-anchor="middle" x="1355" y="-291" font-family="Helvetica,sans-Serif" font-size="10.00">func_800C41CC</text>
</a>
</g>
</g>
<!-- Node16&#45;&gt;Node19 -->
<g id="edge18_Node000016_Node000019" class="edge">
<title>Node16&#45;&gt;Node19</title>
<g id="a_edge18_Node000016_Node000019"><a xlink:title=" ">
<path fill="none" stroke="#63b8ff" d="M1249,-293.5C1264.37,-293.5 1281.74,-293.5 1297.86,-293.5"/>
<polygon fill="#63b8ff" stroke="#63b8ff" points="1298.25,-297 1308.25,-293.5 1298.25,-290 1298.25,-297"/>
</a>
</g>
</g>
<!-- Node20 -->
<g id="Node000020" class="node">
<title>Node20</title>
<g id="a_Node000020"><a xlink:href="port__eu_8c.html#aa89dfaecca46c6d071f08c1898d1f7c9" target="_top" xlink:title=" ">
<polygon fill="white" stroke="#666666" points="1401.5,-266 1308.5,-266 1308.5,-247 1401.5,-247 1401.5,-266"/>
<text text-anchor="middle" x="1355" y="-254" font-family="Helvetica,sans-Serif" font-size="10.00">func_800CBBE8</text>
</a>
</g>
</g>
<!-- Node16&#45;&gt;Node20 -->
<g id="edge19_Node000016_Node000020" class="edge">
<title>Node16&#45;&gt;Node20</title>
<g id="a_edge19_Node000016_Node000020"><a xlink:title=" ">
<path fill="none" stroke="#63b8ff" d="M1242.63,-283.97C1261.8,-279.24 1285.16,-273.48 1305.52,-268.46"/>
<polygon fill="#63b8ff" stroke="#63b8ff" points="1306.37,-271.85 1315.24,-266.06 1304.69,-265.06 1306.37,-271.85"/>
</a>
</g>
</g>
<!-- Node18 -->
<g id="Node000018" class="node">
<title>Node18</title>
<g id="a_Node000018"><a xlink:href="external_8c.html#a358ac55e8ab5262dcae8037334be06d7" target="_top" xlink:title=" ">
<polygon fill="white" stroke="#666666" points="1553.5,-340 1461.5,-340 1461.5,-321 1553.5,-321 1553.5,-340"/>
<text text-anchor="middle" x="1507.5" y="-328" font-family="Helvetica,sans-Serif" font-size="10.00">func_800C40F0</text>
</a>
</g>
</g>
<!-- Node17&#45;&gt;Node18 -->
<g id="edge17_Node000017_Node000018" class="edge">
<title>Node17&#45;&gt;Node18</title>
<g id="a_edge17_Node000017_Node000018"><a xlink:title=" ">
<path fill="none" stroke="#63b8ff" d="M1425.08,-330.5C1433.87,-330.5 1442.78,-330.5 1451.31,-330.5"/>
<polygon fill="#63b8ff" stroke="#63b8ff" points="1451.5,-334 1461.5,-330.5 1451.5,-327 1451.5,-334"/>
</a>
</g>
</g>
<!-- Node21 -->
<g id="Node000021" class="node">
<title>Node21</title>
<g id="a_Node000021"><a xlink:href="port__eu_8c.html#af361a20d2e08f30c53a237ca481ff734" target="_top" xlink:title=" ">
<polygon fill="white" stroke="#666666" points="1554,-266 1461,-266 1461,-247 1554,-247 1554,-266"/>
<text text-anchor="middle" x="1507.5" y="-254" font-family="Helvetica,sans-Serif" font-size="10.00">func_800CBB48</text>
</a>
</g>
</g>
<!-- Node20&#45;&gt;Node21 -->
<g id="edge20_Node000020_Node000021" class="edge">
<title>Node20&#45;&gt;Node21</title>
<g id="a_edge20_Node000020_Node000021"><a xlink:title=" ">
<path fill="none" stroke="#63b8ff" d="M1401.56,-256.5C1416.96,-256.5 1434.34,-256.5 1450.46,-256.5"/>
<polygon fill="#63b8ff" stroke="#63b8ff" points="1450.83,-260 1460.83,-256.5 1450.83,-253 1450.83,-260"/>
</a>
</g>
</g>
<!-- Node23 -->
<g id="Node000023" class="node">
<title>Node23</title>
<g id="a_Node000023"><a xlink:href="math__util_8c.html#a79fd07a0971ec96a3ff0801963a2fa7f" target="_top" xlink:title=" ">
<polygon fill="white" stroke="#666666" points="738,-284 674,-284 674,-265 738,-265 738,-284"/>
<text text-anchor="middle" x="706" y="-272" font-family="Helvetica,sans-Serif" font-size="10.00">vec3f_set</text>
</a>
</g>
</g>
<!-- Node22&#45;&gt;Node23 -->
<g id="edge22_Node000022_Node000023" class="edge">
<title>Node22&#45;&gt;Node23</title>
<g id="a_edge22_Node000022_Node000023"><a xlink:title=" ">
<path fill="none" stroke="#63b8ff" d="M575.34,-281.85C602.83,-280.29 637.27,-278.34 663.74,-276.84"/>
<polygon fill="#63b8ff" stroke="#63b8ff" points="664.04,-280.33 673.83,-276.27 663.65,-273.34 664.04,-280.33"/>
</a>
</g>
</g>
<!-- Node30 -->
<g id="Node000030" class="node">
<title>Node30</title>
<g id="a_Node000030"><a xlink:href="code__80005FD0_8c.html#aff1ba4b22fc22c38fcf28007ccaaa752" target="_top" xlink:title=" ">
<polygon fill="white" stroke="#666666" points="574,-141 481,-141 481,-122 574,-122 574,-141"/>
<text text-anchor="middle" x="527.5" y="-129" font-family="Helvetica,sans-Serif" font-size="10.00">func_8000D2B4</text>
</a>
</g>
</g>
<!-- Node29&#45;&gt;Node30 -->
<g id="edge29_Node000029_Node000030" class="edge">
<title>Node29&#45;&gt;Node30</title>
<g id="a_edge29_Node000029_Node000030"><a xlink:title=" ">
<path fill="none" stroke="#63b8ff" d="M381.91,-67.19C403.52,-81.13 442.66,-105.89 458,-112.5 463.45,-114.85 469.26,-116.98 475.11,-118.9"/>
<polygon fill="#63b8ff" stroke="#63b8ff" points="474.35,-122.33 484.94,-121.93 476.41,-115.64 474.35,-122.33"/>
</a>
</g>
</g>
<!-- Node37 -->
<g id="Node000037" class="node">
<title>Node37</title>
<g id="a_Node000037"><a xlink:href="code__80005FD0_8c.html#a79cd9c001e0a06c9cab23fe2cf070abf" target="_top" xlink:title=" ">
<polygon fill="white" stroke="#666666" points="597,-30 458,-30 458,-11 597,-11 597,-30"/>
<text text-anchor="middle" x="527.5" y="-18" font-family="Helvetica,sans-Serif" font-size="10.00">get_angle_between_path</text>
</a>
</g>
</g>
<!-- Node29&#45;&gt;Node37 -->
<g id="edge37_Node000029_Node000037" class="edge">
<title>Node29&#45;&gt;Node37</title>
<g id="a_edge37_Node000029_Node000037"><a xlink:title=" ">
<path fill="none" stroke="#63b8ff" d="M408.08,-47.97C428.65,-43.2 453.75,-37.38 475.54,-32.32"/>
<polygon fill="#63b8ff" stroke="#63b8ff" points="476.34,-35.73 485.29,-30.06 474.75,-28.91 476.34,-35.73"/>
</a>
</g>
</g>
<!-- Node41 -->
<g id="Node000041" class="node">
<title>Node41</title>
<g id="a_Node000041"><a xlink:href="code__80005FD0_8c.html#a83974499a323e99b007956bf9c0e25ff" target="_top" xlink:title=" ">
<polygon fill="white" stroke="#666666" points="597,-104 458,-104 458,-85 597,-85 597,-104"/>
<text text-anchor="middle" x="527.5" y="-92" font-family="Helvetica,sans-Serif" font-size="10.00">set_track_offset_position</text>
</a>
</g>
</g>
<!-- Node29&#45;&gt;Node41 -->
<g id="edge41_Node000029_Node000041" class="edge">
<title>Node29&#45;&gt;Node41</title>
<g id="a_edge41_Node000029_Node000041"><a xlink:title=" ">
<path fill="none" stroke="#63b8ff" d="M408.08,-67.03C428.65,-71.8 453.75,-77.62 475.54,-82.68"/>
<polygon fill="#63b8ff" stroke="#63b8ff" points="474.75,-86.09 485.29,-84.94 476.34,-79.27 474.75,-86.09"/>
</a>
</g>
</g>
<!-- Node42 -->
<g id="Node000042" class="node">
<title>Node42</title>
<g id="a_Node000042"><a xlink:href="math_8h.html#a37bde043e94a6f074c78f10518fb5d99" target="_top" xlink:title=" ">
<polygon fill="white" stroke="#666666" points="547,-67 508,-67 508,-48 547,-48 547,-67"/>
<text text-anchor="middle" x="527.5" y="-55" font-family="Helvetica,sans-Serif" font-size="10.00">sqrtf</text>
</a>
</g>
</g>
<!-- Node29&#45;&gt;Node42 -->
<g id="edge42_Node000029_Node000042" class="edge">
<title>Node29&#45;&gt;Node42</title>
<g id="a_edge42_Node000029_Node000042"><a xlink:title=" ">
<path fill="none" stroke="#63b8ff" d="M413.13,-57.5C440.42,-57.5 474.13,-57.5 497.67,-57.5"/>
<polygon fill="#63b8ff" stroke="#63b8ff" points="497.71,-61 507.71,-57.5 497.71,-54 497.71,-61"/>
</a>
</g>
</g>
<!-- Node31 -->
<g id="Node000031" class="node">
<title>Node31</title>
<g id="a_Node000031"><a xlink:href="code__80005FD0_8c.html#a52b991f7bfc8a37a05bbb3ede096fb6a" target="_top" xlink:title=" ">
<polygon fill="white" stroke="#666666" points="776,-144 636,-144 636,-125 776,-125 776,-144"/>
<text text-anchor="middle" x="706" y="-132" font-family="Helvetica,sans-Serif" font-size="10.00">adjust_path_at_start_line</text>
</a>
</g>
</g>
<!-- Node30&#45;&gt;Node31 -->
<g id="edge30_Node000030_Node000031" class="edge">
<title>Node30&#45;&gt;Node31</title>
<g id="a_edge30_Node000030_Node000031"><a xlink:title=" ">
<path fill="none" stroke="#63b8ff" d="M574.41,-132.28C590.04,-132.55 607.98,-132.85 625.47,-133.15"/>
<polygon fill="#63b8ff" stroke="#63b8ff" points="625.63,-136.65 635.69,-133.32 625.75,-129.65 625.63,-136.65"/>
</a>
</g>
</g>
<!-- Node32 -->
<g id="Node000032" class="node">
<title>Node32</title>
<g id="a_Node000032"><a xlink:href="code__80005FD0_8c.html#aae3d2d6e27d79a30dfe68c64e771b5b1" target="_top" xlink:title=" ">
<polygon fill="white" stroke="#666666" points="752.5,-107 659.5,-107 659.5,-88 752.5,-88 752.5,-107"/>
<text text-anchor="middle" x="706" y="-95" font-family="Helvetica,sans-Serif" font-size="10.00">func_8000D24C</text>
</a>
</g>
</g>
<!-- Node30&#45;&gt;Node32 -->
<g id="edge31_Node000030_Node000032" class="edge">
<title>Node30&#45;&gt;Node32</title>
<g id="a_edge31_Node000030_Node000032"><a xlink:title=" ">
<path fill="none" stroke="#63b8ff" d="M574.41,-122.66C597.29,-118.25 625.15,-112.88 649.25,-108.24"/>
<polygon fill="#63b8ff" stroke="#63b8ff" points="650.16,-111.63 659.32,-106.3 648.84,-104.75 650.16,-111.63"/>
</a>
</g>
</g>
<!-- Node36 -->
<g id="Node000036" class="node">
<title>Node36</title>
<g id="a_Node000036"><a xlink:href="code__80005FD0_8c.html#a041b53794d8d64878d2cf5e0dea65b80" target="_top" xlink:title=" ">
<polygon fill="white" stroke="#666666" points="761,-70 651,-70 651,-51 761,-51 761,-70"/>
<text text-anchor="middle" x="706" y="-58" font-family="Helvetica,sans-Serif" font-size="10.00">update_path_index</text>
</a>
</g>
</g>
<!-- Node30&#45;&gt;Node36 -->
<g id="edge36_Node000030_Node000036" class="edge">
<title>Node30&#45;&gt;Node36</title>
<g id="a_edge36_Node000030_Node000036"><a xlink:title=" ">
<path fill="none" stroke="#63b8ff" d="M574.33,-122.14C582.16,-119.61 590.01,-116.44 597,-112.5 616.17,-101.69 613.7,-89.07 633,-78.5 636.3,-76.69 639.79,-75.06 643.37,-73.59"/>
<polygon fill="#63b8ff" stroke="#63b8ff" points="644.84,-76.78 653.04,-70.07 642.44,-70.21 644.84,-76.78"/>
</a>
</g>
</g>
<!-- Node32&#45;&gt;Node5 -->
<g id="edge32_Node000032_Node000005" class="edge">
<title>Node32&#45;&gt;Node5</title>
<g id="a_edge32_Node000032_Node000005"><a xlink:title=" ">
<path fill="none" stroke="#63b8ff" d="M752.62,-106.68C761.53,-109.09 770.68,-112.01 779,-115.5 796.29,-122.75 798.04,-129.5 815,-137.5 826.34,-142.85 839.04,-147.7 850.85,-151.76"/>
<polygon fill="#63b8ff" stroke="#63b8ff" points="849.91,-155.14 860.5,-154.98 852.13,-148.5 849.91,-155.14"/>
</a>
</g>
</g>
<!-- Node33 -->
<g id="Node000033" class="node">
<title>Node33</title>
<g id="a_Node000033"><a xlink:href="code__80005FD0_8c.html#a64865cf2565ef9f4215c5fa73b04233f" target="_top" xlink:title=" ">
<polygon fill="white" stroke="#666666" points="959.5,-91.5 828.5,-91.5 828.5,-61.5 959.5,-61.5 959.5,-91.5"/>
<text text-anchor="start" x="836.5" y="-79.5" font-family="Helvetica,sans-Serif" font-size="10.00">find_closest_path_point</text>
<text text-anchor="middle" x="894" y="-68.5" font-family="Helvetica,sans-Serif" font-size="10.00">_track_section</text>
</a>
</g>
</g>
<!-- Node32&#45;&gt;Node33 -->
<g id="edge33_Node000032_Node000033" class="edge">
<title>Node32&#45;&gt;Node33</title>
<g id="a_edge33_Node000032_Node000033"><a xlink:title=" ">
<path fill="none" stroke="#63b8ff" d="M752.5,-92.36C772.27,-90.13 795.96,-87.46 818.2,-84.94"/>
<polygon fill="#63b8ff" stroke="#63b8ff" points="818.76,-88.4 828.3,-83.8 817.97,-81.45 818.76,-88.4"/>
</a>
</g>
</g>
<!-- Node35 -->
<g id="Node000035" class="node">
<title>Node35</title>
<g id="a_Node000035"><a xlink:href="collision_8c.html#a053809031f467d0a6747788211e0ec69" target="_top" xlink:title=" ">
<polygon fill="white" stroke="#666666" points="952.5,-129 835.5,-129 835.5,-110 952.5,-110 952.5,-129"/>
<text text-anchor="middle" x="894" y="-117" font-family="Helvetica,sans-Serif" font-size="10.00">get_track_section_id</text>
</a>
</g>
</g>
<!-- Node32&#45;&gt;Node35 -->
<g id="edge35_Node000032_Node000035" class="edge">
<title>Node32&#45;&gt;Node35</title>
<g id="a_edge35_Node000032_Node000035"><a xlink:title=" ">
<path fill="none" stroke="#63b8ff" d="M752.5,-102.88C774.33,-105.46 800.94,-108.61 825.1,-111.47"/>
<polygon fill="#63b8ff" stroke="#63b8ff" points="824.95,-114.97 835.29,-112.67 825.77,-108.02 824.95,-114.97"/>
</a>
</g>
</g>
<!-- Node34 -->
<g id="Node000034" class="node">
<title>Node34</title>
<g id="a_Node000034"><a xlink:href="Game_8cpp.html#aab0dcf46f6e6e4516bf79ea3f519c765" target="_top" xlink:title=" ">
<polygon fill="white" stroke="#666666" points="1121,-86 1009,-86 1009,-67 1121,-67 1121,-86"/>
<text text-anchor="middle" x="1065" y="-74" font-family="Helvetica,sans-Serif" font-size="10.00">IsPodiumCeremony</text>
</a>
</g>
</g>
<!-- Node33&#45;&gt;Node34 -->
<g id="edge34_Node000033_Node000034" class="edge">
<title>Node33&#45;&gt;Node34</title>
<g id="a_edge34_Node000033_Node000034"><a xlink:title=" ">
<path fill="none" stroke="#63b8ff" d="M959.86,-76.5C972.64,-76.5 986.05,-76.5 998.84,-76.5"/>
<polygon fill="#63b8ff" stroke="#63b8ff" points="998.94,-80 1008.94,-76.5 998.94,-73 998.94,-80"/>
</a>
</g>
</g>
<!-- Node38 -->
<g id="Node000038" class="node">
<title>Node38</title>
<g id="a_Node000038"><a xlink:href="math__util_8c.html#a84cf9d4ec33146a64c230ed4cec56632" target="_top" xlink:title=" ">
<polygon fill="white" stroke="#666666" points="773.5,-32.5 638.5,-32.5 638.5,-2.5 773.5,-2.5 773.5,-32.5"/>
<text text-anchor="start" x="646.5" y="-20.5" font-family="Helvetica,sans-Serif" font-size="10.00">get_angle_between_two</text>
<text text-anchor="middle" x="706" y="-9.5" font-family="Helvetica,sans-Serif" font-size="10.00">_vectors</text>
</a>
</g>
</g>
<!-- Node37&#45;&gt;Node38 -->
<g id="edge38_Node000037_Node000038" class="edge">
<title>Node37&#45;&gt;Node38</title>
<g id="a_edge38_Node000037_Node000038"><a xlink:title=" ">
<path fill="none" stroke="#63b8ff" d="M597.24,-19.33C607.41,-19.16 617.93,-18.98 628.25,-18.8"/>
<polygon fill="#63b8ff" stroke="#63b8ff" points="628.53,-22.3 638.47,-18.63 628.41,-15.3 628.53,-22.3"/>
</a>
</g>
</g>
<!-- Node39 -->
<g id="Node000039" class="node">
<title>Node39</title>
<g id="a_Node000039"><a xlink:href="math__util_8c.html#aaa39a297477f56051975259f4bddd829" target="_top" xlink:title=" ">
<polygon fill="white" stroke="#666666" points="919,-27 869,-27 869,-8 919,-8 919,-27"/>
<text text-anchor="middle" x="894" y="-15" font-family="Helvetica,sans-Serif" font-size="10.00">atan2s</text>
</a>
</g>
</g>
<!-- Node38&#45;&gt;Node39 -->
<g id="edge39_Node000038_Node000039" class="edge">
<title>Node38&#45;&gt;Node39</title>
<g id="a_edge39_Node000038_Node000039"><a xlink:title=" ">
<path fill="none" stroke="#63b8ff" d="M773.62,-17.5C802.37,-17.5 834.78,-17.5 858.57,-17.5"/>
<polygon fill="#63b8ff" stroke="#63b8ff" points="858.85,-21 868.85,-17.5 858.85,-14 858.85,-21"/>
</a>
</g>
</g>
<!-- Node40 -->
<g id="Node000040" class="node">
<title>Node40</title>
<g id="a_Node000040"><a xlink:href="math__util_8c.html#a0273b0ea0783a06996c28669a7438ed9" target="_top" xlink:title=" ">
<polygon fill="white" stroke="#666666" points="1106,-27 1024,-27 1024,-8 1106,-8 1106,-27"/>
<text text-anchor="middle" x="1065" y="-15" font-family="Helvetica,sans-Serif" font-size="10.00">atan2_lookup</text>
</a>
</g>
</g>
<!-- Node39&#45;&gt;Node40 -->
<g id="edge40_Node000039_Node000040" class="edge">
<title>Node39&#45;&gt;Node40</title>
<g id="a_edge40_Node000039_Node000040"><a xlink:title=" ">
<path fill="none" stroke="#63b8ff" d="M919.21,-17.5C943.73,-17.5 982.38,-17.5 1013.58,-17.5"/>
<polygon fill="#63b8ff" stroke="#63b8ff" points="1013.84,-21 1023.84,-17.5 1013.84,-14 1013.84,-21"/>
</a>
</g>
</g>
<!-- Node43&#45;&gt;Node30 -->
<g id="edge44_Node000043_Node000030" class="edge">
<title>Node43&#45;&gt;Node30</title>
<g id="a_edge44_Node000043_Node000030"><a xlink:title=" ">
<path fill="none" stroke="#63b8ff" d="M412.28,-117.89C430.47,-120.06 451.62,-122.58 470.75,-124.86"/>
<polygon fill="#63b8ff" stroke="#63b8ff" points="470.49,-128.35 480.83,-126.06 471.31,-121.4 470.49,-128.35"/>
</a>
</g>
</g>
<!-- Node43&#45;&gt;Node37 -->
<g id="edge45_Node000043_Node000037" class="edge">
<title>Node43&#45;&gt;Node37</title>
<g id="a_edge45_Node000043_Node000037"><a xlink:title=" ">
<path fill="none" stroke="#63b8ff" d="M383.03,-102.95C394.34,-95.92 409.63,-85.83 422,-75.5 439.61,-60.8 438.18,-50.06 458,-38.5 461.01,-36.74 464.2,-35.15 467.48,-33.72"/>
<polygon fill="#63b8ff" stroke="#63b8ff" points="468.87,-36.94 476.93,-30.06 466.34,-30.41 468.87,-36.94"/>
</a>
</g>
</g>
<!-- Node43&#45;&gt;Node41 -->
<g id="edge46_Node000043_Node000041" class="edge">
<title>Node43&#45;&gt;Node41</title>
<g id="a_edge46_Node000043_Node000041"><a xlink:title=" ">
<path fill="none" stroke="#63b8ff" d="M412.28,-107.39C423.36,-106.14 435.54,-104.77 447.69,-103.39"/>
<polygon fill="#63b8ff" stroke="#63b8ff" points="448.32,-106.84 457.87,-102.25 447.54,-99.89 448.32,-106.84"/>
</a>
</g>
</g>
<!-- Node43&#45;&gt;Node42 -->
<g id="edge47_Node000043_Node000042" class="edge">
<title>Node43&#45;&gt;Node42</title>
<g id="a_edge47_Node000043_Node000042"><a xlink:title=" ">
<path fill="none" stroke="#63b8ff" d="M388.4,-102.88C406.66,-94.9 433.73,-83.59 458,-75.5 471.03,-71.16 485.74,-67.18 498.17,-64.07"/>
<polygon fill="#63b8ff" stroke="#63b8ff" points="499.11,-67.44 507.99,-61.68 497.45,-60.64 499.11,-67.44"/>
</a>
</g>
</g>
<!-- Node46 -->
<g id="Node000046" class="node">
<title>Node46</title>
<g id="a_Node000046"><a xlink:href="math__util_8c.html#a062850863585005ad1d0a75d9ff70693" target="_top" xlink:title=" ">
<polygon fill="white" stroke="#666666" points="404.5,-19 327.5,-19 327.5,0 404.5,0 404.5,-19"/>
<text text-anchor="middle" x="366" y="-7" font-family="Helvetica,sans-Serif" font-size="10.00">random_u16</text>
</a>
</g>
</g>
<!-- Node45&#45;&gt;Node46 -->
<g id="edge50_Node000045_Node000046" class="edge">
<title>Node45&#45;&gt;Node46</title>
<g id="a_edge50_Node000045_Node000046"><a xlink:title=" ">
<path fill="none" stroke="#63b8ff" d="M225.81,-9.5C252.07,-9.5 288.19,-9.5 317.05,-9.5"/>
<polygon fill="#63b8ff" stroke="#63b8ff" points="317.32,-13 327.32,-9.5 317.32,-6 317.32,-13"/>
</a>
</g>
</g>
<!-- Node47&#45;&gt;Node29 -->
<g id="edge52_Node000047_Node000029" class="edge">
<title>Node47&#45;&gt;Node29</title>
<g id="a_edge52_Node000047_Node000029"><a xlink:title=" ">
<path fill="none" stroke="#63b8ff" d="M241.85,-112.89C252.61,-110.31 263.79,-107.18 274,-103.5 297.19,-95.14 322.07,-82.27 339.94,-72.27"/>
<polygon fill="#63b8ff" stroke="#63b8ff" points="342.14,-75.04 349.1,-67.05 338.67,-68.96 342.14,-75.04"/>
</a>
</g>
</g>
<!-- Node47&#45;&gt;Node43 -->
<g id="edge53_Node000047_Node000043" class="edge">
<title>Node47&#45;&gt;Node43</title>
<g id="a_edge53_Node000047_Node000043"><a xlink:title=" ">
<path fill="none" stroke="#63b8ff" d="M256.47,-118.72C273.97,-117.72 292.7,-116.64 309.57,-115.68"/>
<polygon fill="#63b8ff" stroke="#63b8ff" points="310.04,-119.16 319.82,-115.09 309.64,-112.17 310.04,-119.16"/>
</a>
</g>
</g>
</g>
</svg>

<g id="navigator" transform="translate(0 0)" fill="#404254">
  <rect fill="#f2f5e9" fill-opacity="0.5" stroke="#606060" stroke-width=".5" x="0" y="0" width="60" height="60"/>
  <use id="zoomplus" xlink:href="#zoomPlus" x="17" y="9" onmousedown="handleZoom(evt,'in')"/>
  <use id="zoomminus" xlink:href="#zoomMin" x="42" y="9" onmousedown="handleZoom(evt,'out')"/>
  <use id="reset" xlink:href="#resetDef" x="30" y="36" onmousedown="handleReset()"/>
   <use id="arrowup" xlink:href="#arrowUp" x="0" y="0" onmousedown="handlePan(0,-1)"/>
  <use id="arrowright" xlink:href="#arrowRight" x="0" y="0" onmousedown="handlePan(1,0)"/>
  <use id="arrowdown" xlink:href="#arrowDown" x="0" y="0" onmousedown="handlePan(0,1)"/>
  <use id="arrowleft" xlink:href="#arrowLeft" x="0" y="0" onmousedown="handlePan(-1,0)"/>
</g>
<svg viewBox="0 0 15 15" width="100%" height="30px" preserveAspectRatio="xMaxYMin meet">
 <g id="arrow_out" transform="scale(0.3 0.3)">
  <a xlink:href="classACar_a7c537f8a1af7c93b57a6fbf2f52a894d_cgraph_org.svg" target="_base">
   <rect id="button" ry="5" rx="5" y="6" x="6" height="38" width="38"
        fill="#f2f5e9" fill-opacity="0.5" stroke="#606060" stroke-width="1.0"/>
   <path id="arrow"
     d="M 11.500037,31.436501 C 11.940474,20.09759 22.043105,11.32322 32.158766,21.979434 L 37.068811,17.246167 C 37.068811,17.246167 37.088388,32 37.088388,32 L 22.160133,31.978069 C 22.160133,31.978069 26.997745,27.140456 26.997745,27.140456 C 18.528582,18.264221 13.291696,25.230495 11.500037,31.436501 z"
     style="fill:#404040;"/>
  </a>
 </g>
</svg>

<style type='text/css'>
<![CDATA[
[data-mouse-over-selected='false'] { opacity: 0.7; }
[data-mouse-over-selected='true']  { opacity: 1.0; }
]]>
</style>
<script type="application/ecmascript"><![CDATA[
document.addEventListener('DOMContentLoaded', (event) => {
  highlightEdges();
  highlightAdjacentNodes();
});
]]></script>
</svg>
