<?xml version="1.0" encoding="UTF-8" standalone="no"?>
<!DOCTYPE svg PUBLIC "-//W3C//DTD SVG 1.1//EN"
 "http://www.w3.org/Graphics/SVG/1.1/DTD/svg11.dtd">
<!-- Generated by graphviz version 2.43.0 (0)
 -->
<!-- Title: Editor::LightObject Pages: 1 -->
<!--zoomable 327 -->

<svg id="main" version="1.1" xmlns="http://www.w3.org/2000/svg" xmlns:xlink="http://www.w3.org/1999/xlink" xml:space="preserve" onload="init(evt)">

<style type="text/css"><![CDATA[
.node, .edge {opacity: 0.7;}
.node.selected, .edge.selected {opacity: 1;}
.edge:hover path { stroke: red; }
.edge:hover polygon { stroke: red; fill: red; }
]]></style>

<defs>
  <circle id="rim" cx="0" cy="0" r="7"/>
  <circle id="rim2" cx="0" cy="0" r="3.5"/>
  <g id="zoomPlus">
    <use xlink:href="#rim" fill="#404040"><set attributeName="fill" to="#808080" begin="zoomplus.mouseover" end="zoomplus.mouseout"/></use>
    <path d="M-4,0h8M0,-4v8" fill="none" stroke="white" stroke-width="1.5" pointer-events="none"/>
  </g>
  <g id="zoomMin">
    <use xlink:href="#rim" fill="#404040"><set attributeName="fill" to="#808080" begin="zoomminus.mouseover" end="zoomminus.mouseout"/></use>
    <path d="M-4,0h8" fill="none" stroke="white" stroke-width="1.5" pointer-events="none"/>
  </g>
  <g id="arrowUp" transform="translate(30 24)">
    <use xlink:href="#rim"/>
    <path pointer-events="none" fill="none" stroke="white" stroke-width="1.5" d="M0,-3.0v7 M-2.5,-0.5L0,-3.0L2.5,-0.5"/>
  </g>
  <g id="arrowRight" transform="rotate(90) translate(36 -43)">
    <use xlink:href="#rim"/>
    <path pointer-events="none" fill="none" stroke="white" stroke-width="1.5" d="M0,-3.0v7 M-2.5,-0.5L0,-3.0L2.5,-0.5"/>
  </g>
  <g id="arrowDown" transform="rotate(180) translate(-30 -48)">
    <use xlink:href="#rim"/>
    <path pointer-events="none" fill="none" stroke="white" stroke-width="1.5" d="M0,-3.0v7 M-2.5,-0.5L0,-3.0L2.5,-0.5"/>
  </g>
  <g id="arrowLeft" transform="rotate(270) translate(-36 17)">
    <use xlink:href="#rim"/>
    <path pointer-events="none" fill="none" stroke="white" stroke-width="1.5" d="M0,-3.0v7 M-2.5,-0.5L0,-3.0L2.5,-0.5"/>
  </g>
  <g id="resetDef">
    <use xlink:href="#rim2" fill="#404040"><set attributeName="fill" to="#808080" begin="reset.mouseover" end="reset.mouseout"/></use>
  </g>
</defs>
<script type="application/ecmascript">
var viewWidth = 901;
var viewHeight = 327;
var sectionId = 'dynsection-1';
</script>
<script type="application/ecmascript" xlink:href="svg.min.js"/>
<svg id="graph" class="graph">
<g id="viewport">
<title>Editor::LightObject</title>
<!-- Node1 -->
<g id="Node000001" class="node">
<title>Node1</title>
<g id="a_Node000001"><a xlink:title=" ">
<polygon fill="#999999" stroke="#666666" points="561,-19 454,-19 454,0 561,0 561,-19"/>
<text text-anchor="middle" x="507.5" y="-7" font-family="Helvetica,sans-Serif" font-size="10.00">Editor::LightObject</text>
</a>
</g>
</g>
<!-- Node2 -->
<g id="Node000002" class="node">
<title>Node2</title>
<g id="a_Node000002"><a xlink:href="classEditor_1_1GameObject.html" target="_top" xlink:title=" ">
<polygon fill="white" stroke="#666666" points="352.5,-129 240.5,-129 240.5,-110 352.5,-110 352.5,-129"/>
<text text-anchor="middle" x="296.5" y="-117" font-family="Helvetica,sans-Serif" font-size="10.00">Editor::GameObject</text>
</a>
</g>
</g>
<!-- Node2&#45;&gt;Node1 -->
<g id="edge1_Node000001_Node000002" class="edge">
<title>Node2&#45;&gt;Node1</title>
<g id="a_edge1_Node000001_Node000002"><a xlink:title=" ">
<path fill="none" stroke="#63b8ff" d="M310.06,-102.07C326.43,-83.36 355.75,-53.28 387.5,-37 407.91,-26.53 432.34,-20.18 453.81,-16.34"/>
<polygon fill="#63b8ff" stroke="#63b8ff" points="307.31,-99.9 303.49,-109.78 312.64,-104.44 307.31,-99.9"/>
</a>
</g>
</g>
<!-- Node3 -->
<g id="Node000003" class="node">
<title>Node3</title>
<g id="a_Node000003"><a xlink:title=" ">
<polygon fill="white" stroke="#666666" points="75,-229.5 0,-229.5 0,-210.5 75,-210.5 75,-229.5"/>
<text text-anchor="middle" x="37.5" y="-217.5" font-family="Helvetica,sans-Serif" font-size="10.00">const char *</text>
</a>
</g>
</g>
<!-- Node3&#45;&gt;Node2 -->
<g id="edge2_Node000002_Node000003" class="edge">
<title>Node3&#45;&gt;Node2</title>
<g id="a_edge2_Node000002_Node000003"><a xlink:title=" ">
<path fill="none" stroke="#9a32cd" stroke-dasharray="5,2" d="M31.57,-200.19C27.74,-184 25.61,-161.09 38.5,-147 51.86,-132.41 168.47,-125.36 240.27,-122.38"/>
<polygon fill="#9a32cd" stroke="#9a32cd" points="28.28,-201.42 34.32,-210.13 35.02,-199.56 28.28,-201.42"/>
</a>
</g>
<text text-anchor="middle" x="76" y="-177.5" font-family="Helvetica,sans-Serif" font-size="10.00" fill="grey"> Model</text>
<text text-anchor="middle" x="76" y="-166.5" font-family="Helvetica,sans-Serif" font-size="10.00" fill="grey">Name</text>
<text text-anchor="middle" x="76" y="-155.5" font-family="Helvetica,sans-Serif" font-size="10.00" fill="grey">ResourceName</text>
</g>
<!-- Node4 -->
<g id="Node000004" class="node">
<title>Node4</title>
<g id="a_Node000004"><a xlink:href="structFVector.html" target="_top" xlink:title=" ">
<polygon fill="white" stroke="#666666" points="287,-229.5 234,-229.5 234,-210.5 287,-210.5 287,-229.5"/>
<text text-anchor="middle" x="260.5" y="-217.5" font-family="Helvetica,sans-Serif" font-size="10.00">FVector</text>
</a>
</g>
</g>
<!-- Node4&#45;&gt;Node2 -->
<g id="edge3_Node000002_Node000004" class="edge">
<title>Node4&#45;&gt;Node2</title>
<g id="a_edge3_Node000002_Node000004"><a xlink:title=" ">
<path fill="none" stroke="#9a32cd" stroke-dasharray="5,2" d="M254.41,-200.6C250.5,-185.32 247.63,-163.51 256.5,-147 260.68,-139.22 268.25,-133.34 275.7,-129.12"/>
<polygon fill="#9a32cd" stroke="#9a32cd" points="251.12,-201.79 257.3,-210.4 257.83,-199.81 251.12,-201.79"/>
</a>
</g>
<text text-anchor="middle" x="286" y="-183" font-family="Helvetica,sans-Serif" font-size="10.00" fill="grey"> Pos</text>
<text text-anchor="middle" x="286" y="-172" font-family="Helvetica,sans-Serif" font-size="10.00" fill="grey">Scale</text>
<text text-anchor="middle" x="286" y="-161" font-family="Helvetica,sans-Serif" font-size="10.00" fill="grey">SpawnPos</text>
<text text-anchor="middle" x="286" y="-150" font-family="Helvetica,sans-Serif" font-size="10.00" fill="grey">SpawnScale</text>
</g>
<!-- Node5 -->
<g id="Node000005" class="node">
<title>Node5</title>
<g id="a_Node000005"><a xlink:title=" ">
<polygon fill="white" stroke="#666666" points="188.5,-319 150.5,-319 150.5,-300 188.5,-300 188.5,-319"/>
<text text-anchor="middle" x="169.5" y="-307" font-family="Helvetica,sans-Serif" font-size="10.00">float</text>
</a>
</g>
</g>
<!-- Node5&#45;&gt;Node2 -->
<g id="edge7_Node000002_Node000005" class="edge">
<title>Node5&#45;&gt;Node2</title>
<g id="a_edge7_Node000002_Node000005"><a xlink:title=" ">
<path fill="none" stroke="#9a32cd" stroke-dasharray="5,2" d="M155.72,-291.66C140.7,-271.11 120.77,-235.8 136.5,-209 162.93,-163.96 221.46,-140.26 259.92,-129.08"/>
<polygon fill="#9a32cd" stroke="#9a32cd" points="153.06,-293.94 161.94,-299.73 158.61,-289.67 153.06,-293.94"/>
</a>
</g>
<text text-anchor="middle" x="180.5" y="-223" font-family="Helvetica,sans-Serif" font-size="10.00" fill="grey"> BoundingBoxSize</text>
<text text-anchor="middle" x="180.5" y="-212" font-family="Helvetica,sans-Serif" font-size="10.00" fill="grey">Speed</text>
</g>
<!-- Node5&#45;&gt;Node4 -->
<g id="edge4_Node000004_Node000005" class="edge">
<title>Node5&#45;&gt;Node4</title>
<g id="a_edge4_Node000004_Node000005"><a xlink:title=" ">
<path fill="none" stroke="#9a32cd" stroke-dasharray="5,2" d="M185.99,-292.65C205.19,-274.18 236.24,-244.33 251.48,-229.67"/>
<polygon fill="#9a32cd" stroke="#9a32cd" points="183.34,-290.34 178.56,-299.79 188.19,-295.38 183.34,-290.34"/>
</a>
</g>
<text text-anchor="middle" x="236.5" y="-274" font-family="Helvetica,sans-Serif" font-size="10.00" fill="grey"> x</text>
<text text-anchor="middle" x="236.5" y="-263" font-family="Helvetica,sans-Serif" font-size="10.00" fill="grey">y</text>
<text text-anchor="middle" x="236.5" y="-252" font-family="Helvetica,sans-Serif" font-size="10.00" fill="grey">z</text>
</g>
<!-- Node6 -->
<g id="Node000006" class="node">
<title>Node6</title>
<g id="a_Node000006"><a xlink:href="structIRotator.html" target="_top" xlink:title=" ">
<polygon fill="white" stroke="#666666" points="361.5,-229.5 305.5,-229.5 305.5,-210.5 361.5,-210.5 361.5,-229.5"/>
<text text-anchor="middle" x="333.5" y="-217.5" font-family="Helvetica,sans-Serif" font-size="10.00">IRotator</text>
</a>
</g>
</g>
<!-- Node6&#45;&gt;Node2 -->
<g id="edge5_Node000002_Node000006" class="edge">
<title>Node6&#45;&gt;Node2</title>
<g id="a_edge5_Node000002_Node000006"><a xlink:title=" ">
<path fill="none" stroke="#9a32cd" stroke-dasharray="5,2" d="M330.8,-200.19C328.19,-185.27 323.44,-164.14 315.5,-147 312.55,-140.63 308,-134.21 304.09,-129.29"/>
<polygon fill="#9a32cd" stroke="#9a32cd" points="327.36,-200.9 332.39,-210.22 334.28,-199.8 327.36,-200.9"/>
</a>
</g>
<text text-anchor="middle" x="354" y="-172" font-family="Helvetica,sans-Serif" font-size="10.00" fill="grey"> Rot</text>
<text text-anchor="middle" x="354" y="-161" font-family="Helvetica,sans-Serif" font-size="10.00" fill="grey">SpawnRot</text>
</g>
<!-- Node7 -->
<g id="Node000007" class="node">
<title>Node7</title>
<g id="a_Node000007"><a xlink:title=" ">
<polygon fill="white" stroke="#666666" points="361.5,-319 305.5,-319 305.5,-300 361.5,-300 361.5,-319"/>
<text text-anchor="middle" x="333.5" y="-307" font-family="Helvetica,sans-Serif" font-size="10.00">uint16_t</text>
</a>
</g>
</g>
<!-- Node7&#45;&gt;Node6 -->
<g id="edge6_Node000006_Node000007" class="edge">
<title>Node7&#45;&gt;Node6</title>
<g id="a_edge6_Node000006_Node000007"><a xlink:title=" ">
<path fill="none" stroke="#9a32cd" stroke-dasharray="5,2" d="M333.5,-289.59C333.5,-271.02 333.5,-243.54 333.5,-229.67"/>
<polygon fill="#9a32cd" stroke="#9a32cd" points="330,-289.79 333.5,-299.79 337,-289.79 330,-289.79"/>
</a>
</g>
<text text-anchor="middle" x="347.5" y="-274" font-family="Helvetica,sans-Serif" font-size="10.00" fill="grey"> pitch</text>
<text text-anchor="middle" x="347.5" y="-263" font-family="Helvetica,sans-Serif" font-size="10.00" fill="grey">roll</text>
<text text-anchor="middle" x="347.5" y="-252" font-family="Helvetica,sans-Serif" font-size="10.00" fill="grey">yaw</text>
</g>
<!-- Node8 -->
<g id="Node000008" class="node">
<title>Node8</title>
<g id="a_Node000008"><a xlink:title=" ">
<polygon fill="white" stroke="#666666" points="487.5,-229.5 379.5,-229.5 379.5,-210.5 487.5,-210.5 487.5,-229.5"/>
<text text-anchor="middle" x="433.5" y="-217.5" font-family="Helvetica,sans-Serif" font-size="10.00">vector&lt; Triangle &gt;</text>
</a>
</g>
</g>
<!-- Node8&#45;&gt;Node2 -->
<g id="edge8_Node000002_Node000008" class="edge">
<title>Node8&#45;&gt;Node2</title>
<g id="a_edge8_Node000002_Node000008"><a xlink:title=" ">
<path fill="none" stroke="#9a32cd" stroke-dasharray="5,2" d="M425.04,-200.94C416.5,-184.59 401.82,-160.99 382.5,-147 371.11,-138.75 357.1,-133.03 343.72,-129.07"/>
<polygon fill="#9a32cd" stroke="#9a32cd" points="421.97,-202.63 429.55,-210.03 428.24,-199.52 421.97,-202.63"/>
</a>
</g>
<text text-anchor="middle" x="443" y="-166.5" font-family="Helvetica,sans-Serif" font-size="10.00" fill="grey"> Triangles</text>
</g>
<!-- Node9 -->
<g id="Node000009" class="node">
<title>Node9</title>
<g id="a_Node000009"><a xlink:title=" ">
<polygon fill="white" stroke="#666666" points="587,-229.5 506,-229.5 506,-210.5 587,-210.5 587,-229.5"/>
<text text-anchor="middle" x="546.5" y="-217.5" font-family="Helvetica,sans-Serif" font-size="10.00">CollisionType</text>
</a>
</g>
</g>
<!-- Node9&#45;&gt;Node2 -->
<g id="edge9_Node000002_Node000009" class="edge">
<title>Node9&#45;&gt;Node2</title>
<g id="a_edge9_Node000002_Node000009"><a xlink:title=" ">
<path fill="none" stroke="#9a32cd" stroke-dasharray="5,2" d="M533.93,-202.17C520.3,-185.27 496.92,-159.92 470.5,-147 465.15,-144.38 401.71,-135.11 352.96,-128.27"/>
<polygon fill="#9a32cd" stroke="#9a32cd" points="531.23,-204.4 540.14,-210.14 536.75,-200.1 531.23,-204.4"/>
</a>
</g>
<text text-anchor="middle" x="546.5" y="-166.5" font-family="Helvetica,sans-Serif" font-size="10.00" fill="grey"> Collision</text>
</g>
<!-- Node10 -->
<g id="Node000010" class="node">
<title>Node10</title>
<g id="a_Node000010"><a xlink:title=" ">
<polygon fill="white" stroke="#666666" points="416,-129 371,-129 371,-110 416,-110 416,-129"/>
<text text-anchor="middle" x="393.5" y="-117" font-family="Helvetica,sans-Serif" font-size="10.00">size_t</text>
</a>
</g>
</g>
<!-- Node10&#45;&gt;Node1 -->
<g id="edge10_Node000001_Node000010" class="edge">
<title>Node10&#45;&gt;Node1</title>
<g id="a_edge10_Node000001_Node000010"><a xlink:title=" ">
<path fill="none" stroke="#9a32cd" stroke-dasharray="5,2" d="M391.1,-99.54C389.89,-81.23 391.2,-53.88 406.5,-37 418.61,-23.63 436.57,-16.65 453.99,-13.12"/>
<polygon fill="#9a32cd" stroke="#9a32cd" points="387.62,-99.97 392.07,-109.59 394.59,-99.3 387.62,-99.97"/>
</a>
</g>
<text text-anchor="middle" x="434.5" y="-62" font-family="Helvetica,sans-Serif" font-size="10.00" fill="grey"> NumLights</text>
</g>
<!-- Node11 -->
<g id="Node000011" class="node">
<title>Node11</title>
<g id="a_Node000011"><a xlink:title=" ">
<polygon fill="white" stroke="#666666" points="487,-129 458,-129 458,-110 487,-110 487,-129"/>
<text text-anchor="middle" x="472.5" y="-117" font-family="Helvetica,sans-Serif" font-size="10.00">s8</text>
</a>
</g>
</g>
<!-- Node11&#45;&gt;Node1 -->
<g id="edge11_Node000001_Node000011" class="edge">
<title>Node11&#45;&gt;Node1</title>
<g id="a_edge11_Node000001_Node000011"><a xlink:title=" ">
<path fill="none" stroke="#9a32cd" stroke-dasharray="5,2" d="M468.34,-99.91C465.46,-82.67 463.7,-56.76 473.5,-37 477.22,-29.49 484.2,-23.48 490.86,-19.09"/>
<polygon fill="#9a32cd" stroke="#9a32cd" points="464.93,-100.7 470.28,-109.84 471.8,-99.36 464.93,-100.7"/>
</a>
</g>
<text text-anchor="middle" x="497.5" y="-62" font-family="Helvetica,sans-Serif" font-size="10.00" fill="grey"> Direction</text>
</g>
<!-- Node12 -->
<g id="Node000012" class="node">
<title>Node12</title>
<g id="a_Node000012"><a xlink:title=" ">
<polygon fill="white" stroke="#666666" points="558,-129 529,-129 529,-110 558,-110 558,-129"/>
<text text-anchor="middle" x="543.5" y="-117" font-family="Helvetica,sans-Serif" font-size="10.00">u8</text>
</a>
</g>
</g>
<!-- Node12&#45;&gt;Node1 -->
<g id="edge12_Node000001_Node000012" class="edge">
<title>Node12&#45;&gt;Node1</title>
<g id="a_edge12_Node000001_Node000012"><a xlink:title=" ">
<path fill="none" stroke="#9a32cd" stroke-dasharray="5,2" d="M539.65,-99.59C535.94,-82.82 529.7,-57.83 521.5,-37 519.06,-30.8 515.56,-24.18 512.67,-19.1"/>
<polygon fill="#9a32cd" stroke="#9a32cd" points="536.3,-100.68 541.8,-109.73 543.15,-99.22 536.3,-100.68"/>
</a>
</g>
<text text-anchor="middle" x="578.5" y="-62" font-family="Helvetica,sans-Serif" font-size="10.00" fill="grey"> sun_sun_rgba32</text>
</g>
<!-- Node13 -->
<g id="Node000013" class="node">
<title>Node13</title>
<g id="a_Node000013"><a xlink:title=" ">
<polygon fill="white" stroke="#666666" points="665,-129 632,-129 632,-110 665,-110 665,-129"/>
<text text-anchor="middle" x="648.5" y="-117" font-family="Helvetica,sans-Serif" font-size="10.00">Vtx</text>
</a>
</g>
</g>
<!-- Node13&#45;&gt;Node1 -->
<g id="edge13_Node000001_Node000013" class="edge">
<title>Node13&#45;&gt;Node1</title>
<g id="a_edge13_Node000001_Node000013"><a xlink:title=" ">
<path fill="none" stroke="#9a32cd" stroke-dasharray="5,2" d="M647.93,-99.74C646.32,-81.16 640.92,-53.19 623.5,-37 614.16,-28.32 586.83,-21.84 561.05,-17.47"/>
<polygon fill="#9a32cd" stroke="#9a32cd" points="644.44,-100.13 648.51,-109.91 651.43,-99.73 644.44,-100.13"/>
</a>
</g>
<text text-anchor="start" x="646.5" y="-78.5" font-family="Helvetica,sans-Serif" font-size="10.00" fill="grey"> sun_LightModel_mesh</text>
<text text-anchor="middle" x="702.5" y="-67.5" font-family="Helvetica,sans-Serif" font-size="10.00" fill="grey">_vtx_0</text>
<text text-anchor="start" x="646.5" y="-56.5" font-family="Helvetica,sans-Serif" font-size="10.00" fill="grey">sun_LightModel_mesh</text>
<text text-anchor="middle" x="702.5" y="-45.5" font-family="Helvetica,sans-Serif" font-size="10.00" fill="grey">_vtx_cull</text>
</g>
<!-- Node14 -->
<g id="Node000014" class="node">
<title>Node14</title>
<g id="a_Node000014"><a xlink:title=" ">
<polygon fill="white" stroke="#666666" points="800.5,-129 766.5,-129 766.5,-110 800.5,-110 800.5,-129"/>
<text text-anchor="middle" x="783.5" y="-117" font-family="Helvetica,sans-Serif" font-size="10.00">Gfx</text>
</a>
</g>
</g>
<!-- Node14&#45;&gt;Node1 -->
<g id="edge14_Node000001_Node000014" class="edge">
<title>Node14&#45;&gt;Node1</title>
<g id="a_edge14_Node000001_Node000014"><a xlink:title=" ">
<path fill="none" stroke="#9a32cd" stroke-dasharray="5,2" d="M784.09,-99.92C783.6,-81.03 779.6,-52.42 761.5,-37 746.59,-24.3 631.19,-16.5 561.17,-12.89"/>
<polygon fill="#9a32cd" stroke="#9a32cd" points="780.59,-99.97 784.05,-109.98 787.59,-99.99 780.59,-99.97"/>
</a>
</g>
<text text-anchor="middle" x="838" y="-84" font-family="Helvetica,sans-Serif" font-size="10.00" fill="grey"> mat_revert_sun_sun</text>
<text text-anchor="middle" x="838" y="-73" font-family="Helvetica,sans-Serif" font-size="10.00" fill="grey">mat_sun_sun</text>
<text text-anchor="middle" x="838" y="-62" font-family="Helvetica,sans-Serif" font-size="10.00" fill="grey">sun_LightModel_mesh</text>
<text text-anchor="start" x="783.5" y="-51" font-family="Helvetica,sans-Serif" font-size="10.00" fill="grey">sun_LightModel_mesh</text>
<text text-anchor="middle" x="838" y="-40" font-family="Helvetica,sans-Serif" font-size="10.00" fill="grey">_tri_0</text>
</g>
</g>
</svg>

<g id="navigator" transform="translate(0 0)" fill="#404254">
  <rect fill="#f2f5e9" fill-opacity="0.5" stroke="#606060" stroke-width=".5" x="0" y="0" width="60" height="60"/>
  <use id="zoomplus" xlink:href="#zoomPlus" x="17" y="9" onmousedown="handleZoom(evt,'in')"/>
  <use id="zoomminus" xlink:href="#zoomMin" x="42" y="9" onmousedown="handleZoom(evt,'out')"/>
  <use id="reset" xlink:href="#resetDef" x="30" y="36" onmousedown="handleReset()"/>
   <use id="arrowup" xlink:href="#arrowUp" x="0" y="0" onmousedown="handlePan(0,-1)"/>
  <use id="arrowright" xlink:href="#arrowRight" x="0" y="0" onmousedown="handlePan(1,0)"/>
  <use id="arrowdown" xlink:href="#arrowDown" x="0" y="0" onmousedown="handlePan(0,1)"/>
  <use id="arrowleft" xlink:href="#arrowLeft" x="0" y="0" onmousedown="handlePan(-1,0)"/>
</g>
<svg viewBox="0 0 15 15" width="100%" height="30px" preserveAspectRatio="xMaxYMin meet">
 <g id="arrow_out" transform="scale(0.3 0.3)">
  <a xlink:href="classEditor_1_1LightObject__coll__graph_org.svg" target="_base">
   <rect id="button" ry="5" rx="5" y="6" x="6" height="38" width="38"
        fill="#f2f5e9" fill-opacity="0.5" stroke="#606060" stroke-width="1.0"/>
   <path id="arrow"
     d="M 11.500037,31.436501 C 11.940474,20.09759 22.043105,11.32322 32.158766,21.979434 L 37.068811,17.246167 C 37.068811,17.246167 37.088388,32 37.088388,32 L 22.160133,31.978069 C 22.160133,31.978069 26.997745,27.140456 26.997745,27.140456 C 18.528582,18.264221 13.291696,25.230495 11.500037,31.436501 z"
     style="fill:#404040;"/>
  </a>
 </g>
</svg>

<style type='text/css'>
<![CDATA[
[data-mouse-over-selected='false'] { opacity: 0.7; }
[data-mouse-over-selected='true']  { opacity: 1.0; }
]]>
</style>
<script type="application/ecmascript"><![CDATA[
document.addEventListener('DOMContentLoaded', (event) => {
  highlightEdges();
  highlightAdjacentNodes();
});
]]></script>
</svg>
