<?xml version="1.0" encoding="UTF-8" standalone="no"?>
<!DOCTYPE svg PUBLIC "-//W3C//DTD SVG 1.1//EN"
 "http://www.w3.org/Graphics/SVG/1.1/DTD/svg11.dtd">
<!-- Generated by graphviz version 2.43.0 (0)
 -->
<!-- Title: AStarship::Spawn Pages: 1 -->
<svg width="409pt" height="64pt"
 viewBox="0.00 0.00 409.00 64.00" xmlns="http://www.w3.org/2000/svg" xmlns:xlink="http://www.w3.org/1999/xlink">
<g id="graph0" class="graph" transform="scale(1 1) rotate(0) translate(4 60)">
<title>AStarship::Spawn</title>
<!-- Node1 -->
<g id="Node000001" class="node">
<title>Node1</title>
<g id="a_Node000001"><a xlink:title=" ">
<polygon fill="#999999" stroke="#666666" points="101,-37 0,-37 0,-18 101,-18 101,-37"/>
<text text-anchor="middle" x="50.5" y="-25" font-family="Helvetica,sans-Serif" font-size="10.00">AStarship::Spawn</text>
</a>
</g>
</g>
<!-- Node2 -->
<g id="Node000002" class="node">
<title>Node2</title>
<g id="a_Node000002"><a xlink:href="classAStarship.html#a3cfda4a7c78d0fa761a3d011205d229d" target="_top" xlink:title=" ">
<polygon fill="white" stroke="#666666" points="253,-37 137,-37 137,-18 253,-18 253,-37"/>
<text text-anchor="middle" x="195" y="-25" font-family="Helvetica,sans-Serif" font-size="10.00">AStarship::AStarship</text>
</a>
</g>
</g>
<!-- Node1&#45;&gt;Node2 -->
<g id="edge1_Node000001_Node000002" class="edge">
<title>Node1&#45;&gt;Node2</title>
<g id="a_edge1_Node000001_Node000002"><a xlink:title=" ">
<path fill="none" stroke="#63b8ff" d="M101.34,-27.5C109.44,-27.5 117.95,-27.5 126.39,-27.5"/>
<polygon fill="#63b8ff" stroke="#63b8ff" points="126.62,-31 136.62,-27.5 126.62,-24 126.62,-31"/>
</a>
</g>
</g>
<!-- Node3 -->
<g id="Node000003" class="node">
<title>Node3</title>
<g id="a_Node000003"><a xlink:href="classAActor.html#a679c43bacf3600fa2d7a6ab30e34a8a6" target="_top" xlink:title=" ">
<polygon fill="white" stroke="#666666" points="388.5,-56 301.5,-56 301.5,-37 388.5,-37 388.5,-56"/>
<text text-anchor="middle" x="345" y="-44" font-family="Helvetica,sans-Serif" font-size="10.00">AActor::AActor</text>
</a>
</g>
</g>
<!-- Node2&#45;&gt;Node3 -->
<g id="edge2_Node000002_Node000003" class="edge">
<title>Node2&#45;&gt;Node3</title>
<g id="a_edge2_Node000002_Node000003"><a xlink:title=" ">
<path fill="none" stroke="#63b8ff" d="M253.22,-34.85C265.68,-36.44 278.8,-38.13 291.08,-39.71"/>
<polygon fill="#63b8ff" stroke="#63b8ff" points="290.8,-43.2 301.16,-41 291.69,-36.26 290.8,-43.2"/>
</a>
</g>
</g>
<!-- Node4 -->
<g id="Node000004" class="node">
<title>Node4</title>
<g id="a_Node000004"><a xlink:href="classAActor.html#a2242f7915fdde70c732b6186ccb6ddcf" target="_top" xlink:title=" ">
<polygon fill="white" stroke="#666666" points="401,-19 289,-19 289,0 401,0 401,-19"/>
<text text-anchor="middle" x="345" y="-7" font-family="Helvetica,sans-Serif" font-size="10.00">AActor::SetLocation</text>
</a>
</g>
</g>
<!-- Node2&#45;&gt;Node4 -->
<g id="edge3_Node000002_Node000004" class="edge">
<title>Node2&#45;&gt;Node4</title>
<g id="a_edge3_Node000002_Node000004"><a xlink:title=" ">
<path fill="none" stroke="#63b8ff" d="M253.22,-20.54C261.64,-19.52 270.36,-18.46 278.93,-17.41"/>
<polygon fill="#63b8ff" stroke="#63b8ff" points="279.37,-20.89 288.88,-16.2 278.53,-13.94 279.37,-20.89"/>
</a>
</g>
</g>
</g>
</svg>
