<?xml version="1.0" encoding="UTF-8" standalone="no"?>
<!DOCTYPE svg PUBLIC "-//W3C//DTD SVG 1.1//EN"
 "http://www.w3.org/Graphics/SVG/1.1/DTD/svg11.dtd">
<!-- Generated by graphviz version 2.43.0 (0)
 -->
<!-- Title: ABoat::Spawn Pages: 1 -->
<!--zoomable 532 -->

<svg id="main" version="1.1" xmlns="http://www.w3.org/2000/svg" xmlns:xlink="http://www.w3.org/1999/xlink" xml:space="preserve" onload="init(evt)">

<style type="text/css"><![CDATA[
.node, .edge {opacity: 0.7;}
.node.selected, .edge.selected {opacity: 1;}
.edge:hover path { stroke: red; }
.edge:hover polygon { stroke: red; fill: red; }
]]></style>

<defs>
  <circle id="rim" cx="0" cy="0" r="7"/>
  <circle id="rim2" cx="0" cy="0" r="3.5"/>
  <g id="zoomPlus">
    <use xlink:href="#rim" fill="#404040"><set attributeName="fill" to="#808080" begin="zoomplus.mouseover" end="zoomplus.mouseout"/></use>
    <path d="M-4,0h8M0,-4v8" fill="none" stroke="white" stroke-width="1.5" pointer-events="none"/>
  </g>
  <g id="zoomMin">
    <use xlink:href="#rim" fill="#404040"><set attributeName="fill" to="#808080" begin="zoomminus.mouseover" end="zoomminus.mouseout"/></use>
    <path d="M-4,0h8" fill="none" stroke="white" stroke-width="1.5" pointer-events="none"/>
  </g>
  <g id="arrowUp" transform="translate(30 24)">
    <use xlink:href="#rim"/>
    <path pointer-events="none" fill="none" stroke="white" stroke-width="1.5" d="M0,-3.0v7 M-2.5,-0.5L0,-3.0L2.5,-0.5"/>
  </g>
  <g id="arrowRight" transform="rotate(90) translate(36 -43)">
    <use xlink:href="#rim"/>
    <path pointer-events="none" fill="none" stroke="white" stroke-width="1.5" d="M0,-3.0v7 M-2.5,-0.5L0,-3.0L2.5,-0.5"/>
  </g>
  <g id="arrowDown" transform="rotate(180) translate(-30 -48)">
    <use xlink:href="#rim"/>
    <path pointer-events="none" fill="none" stroke="white" stroke-width="1.5" d="M0,-3.0v7 M-2.5,-0.5L0,-3.0L2.5,-0.5"/>
  </g>
  <g id="arrowLeft" transform="rotate(270) translate(-36 17)">
    <use xlink:href="#rim"/>
    <path pointer-events="none" fill="none" stroke="white" stroke-width="1.5" d="M0,-3.0v7 M-2.5,-0.5L0,-3.0L2.5,-0.5"/>
  </g>
  <g id="resetDef">
    <use xlink:href="#rim2" fill="#404040"><set attributeName="fill" to="#808080" begin="reset.mouseover" end="reset.mouseout"/></use>
  </g>
</defs>
<script type="application/ecmascript">
var viewWidth = 1703;
var viewHeight = 532;
var sectionId = 'dynsection-7';
</script>
<script type="application/ecmascript" xlink:href="svg.min.js"/>
<svg id="graph" class="graph">
<g id="viewport">
<title>ABoat::Spawn</title>
<!-- Node1 -->
<g id="Node000001" class="node">
<title>Node1</title>
<g id="a_Node000001"><a xlink:title=" ">
<polygon fill="#999999" stroke="#666666" points="84,-173 0,-173 0,-154 84,-154 84,-173"/>
<text text-anchor="middle" x="42" y="-161" font-family="Helvetica,sans-Serif" font-size="10.00">ABoat::Spawn</text>
</a>
</g>
</g>
<!-- Node2 -->
<g id="Node000002" class="node">
<title>Node2</title>
<g id="a_Node000002"><a xlink:href="classABoat.html#a72f9505bb203b7da30ee448f061bbe49" target="_top" xlink:title=" ">
<polygon fill="white" stroke="#666666" points="201,-173 120,-173 120,-154 201,-154 201,-173"/>
<text text-anchor="middle" x="160.5" y="-161" font-family="Helvetica,sans-Serif" font-size="10.00">ABoat::ABoat</text>
</a>
</g>
</g>
<!-- Node1&#45;&gt;Node2 -->
<g id="edge1_Node000001_Node000002" class="edge">
<title>Node1&#45;&gt;Node2</title>
<g id="a_edge1_Node000001_Node000002"><a xlink:title=" ">
<path fill="none" stroke="#63b8ff" d="M84.07,-163.5C92.36,-163.5 101.16,-163.5 109.71,-163.5"/>
<polygon fill="#63b8ff" stroke="#63b8ff" points="109.97,-167 119.97,-163.5 109.97,-160 109.97,-167"/>
</a>
</g>
</g>
<!-- Node3 -->
<g id="Node000003" class="node">
<title>Node3</title>
<g id="a_Node000003"><a xlink:href="classAActor.html#a679c43bacf3600fa2d7a6ab30e34a8a6" target="_top" xlink:title=" ">
<polygon fill="white" stroke="#666666" points="365,-271 278,-271 278,-252 365,-252 365,-271"/>
<text text-anchor="middle" x="321.5" y="-259" font-family="Helvetica,sans-Serif" font-size="10.00">AActor::AActor</text>
</a>
</g>
</g>
<!-- Node2&#45;&gt;Node3 -->
<g id="edge2_Node000002_Node000003" class="edge">
<title>Node2&#45;&gt;Node3</title>
<g id="a_edge2_Node000002_Node000003"><a xlink:title=" ">
<path fill="none" stroke="#63b8ff" d="M167.66,-173.16C179.11,-190.24 205.39,-225.68 237,-243.5 246.49,-248.85 257.42,-252.62 268.17,-255.26"/>
<polygon fill="#63b8ff" stroke="#63b8ff" points="267.44,-258.68 277.95,-257.39 268.93,-251.84 267.44,-258.68"/>
</a>
</g>
</g>
<!-- Node4 -->
<g id="Node000004" class="node">
<title>Node4</title>
<g id="a_Node000004"><a xlink:href="actors_8c.html#a91fb2e4e37e7c72fea918fe2c1bb4eaf" target="_top" xlink:title=" ">
<polygon fill="white" stroke="#666666" points="391.5,-234 251.5,-234 251.5,-215 391.5,-215 391.5,-234"/>
<text text-anchor="middle" x="321.5" y="-222" font-family="Helvetica,sans-Serif" font-size="10.00">add_actor_to_empty_slot</text>
</a>
</g>
</g>
<!-- Node2&#45;&gt;Node4 -->
<g id="edge3_Node000002_Node000004" class="edge">
<title>Node2&#45;&gt;Node4</title>
<g id="a_edge3_Node000002_Node000004"><a xlink:title=" ">
<path fill="none" stroke="#63b8ff" d="M186.34,-173.03C213.1,-183.3 255.87,-199.71 285.91,-211.23"/>
<polygon fill="#63b8ff" stroke="#63b8ff" points="284.98,-214.62 295.57,-214.94 287.49,-208.09 284.98,-214.62"/>
</a>
</g>
</g>
<!-- Node30 -->
<g id="Node000030" class="node">
<title>Node30</title>
<g id="a_Node000030"><a xlink:href="Utils_8cpp.html#aeaf9fffe1458c3ce2a95a80906db76c3" target="_top" xlink:title=" ">
<polygon fill="white" stroke="#666666" points="406,-173 237,-173 237,-154 406,-154 406,-173"/>
<text text-anchor="middle" x="321.5" y="-161" font-family="Helvetica,sans-Serif" font-size="10.00">GetVehiclePathPointDistributed</text>
</a>
</g>
</g>
<!-- Node2&#45;&gt;Node30 -->
<g id="edge29_Node000002_Node000030" class="edge">
<title>Node2&#45;&gt;Node30</title>
<g id="a_edge29_Node000002_Node000030"><a xlink:title=" ">
<path fill="none" stroke="#63b8ff" d="M201.21,-163.5C209.17,-163.5 217.83,-163.5 226.75,-163.5"/>
<polygon fill="#63b8ff" stroke="#63b8ff" points="226.9,-167 236.9,-163.5 226.9,-160 226.9,-167"/>
</a>
</g>
</g>
<!-- Node31 -->
<g id="Node000031" class="node">
<title>Node31</title>
<g id="a_Node000031"><a xlink:href="code__80005FD0_8c.html#a777de4239351e9266f8b367ce46cb936" target="_top" xlink:title=" ">
<polygon fill="white" stroke="#666666" points="405.5,-130 237.5,-130 237.5,-111 405.5,-111 405.5,-130"/>
<text text-anchor="middle" x="321.5" y="-118" font-family="Helvetica,sans-Serif" font-size="10.00">update_vehicle_following_path</text>
</a>
</g>
</g>
<!-- Node2&#45;&gt;Node31 -->
<g id="edge30_Node000002_Node000031" class="edge">
<title>Node2&#45;&gt;Node31</title>
<g id="a_edge30_Node000002_Node000031"><a xlink:title=" ">
<path fill="none" stroke="#63b8ff" d="M196.79,-153.96C219.95,-147.69 250.44,-139.45 275.36,-132.71"/>
<polygon fill="#63b8ff" stroke="#63b8ff" points="276.57,-136.01 285.31,-130.02 274.74,-129.25 276.57,-136.01"/>
</a>
</g>
</g>
<!-- Node40 -->
<g id="Node000040" class="node">
<title>Node40</title>
<g id="a_Node000040"><a xlink:href="math__util_8c.html#a9092c945c52b3a3481228b2724991e3c" target="_top" xlink:title=" ">
<polygon fill="white" stroke="#666666" points="354,-93 289,-93 289,-74 354,-74 354,-93"/>
<text text-anchor="middle" x="321.5" y="-81" font-family="Helvetica,sans-Serif" font-size="10.00">vec3s_set</text>
</a>
</g>
</g>
<!-- Node2&#45;&gt;Node40 -->
<g id="edge39_Node000002_Node000040" class="edge">
<title>Node2&#45;&gt;Node40</title>
<g id="a_edge39_Node000002_Node000040"><a xlink:title=" ">
<path fill="none" stroke="#63b8ff" d="M170.74,-153.61C184.05,-139.97 210.01,-115.59 237,-102.5 249.9,-96.24 264.93,-92 278.65,-89.15"/>
<polygon fill="#63b8ff" stroke="#63b8ff" points="279.65,-92.52 288.83,-87.23 278.36,-85.64 279.65,-92.52"/>
</a>
</g>
</g>
<!-- Node5 -->
<g id="Node000005" class="node">
<title>Node5</title>
<g id="a_Node000005"><a xlink:href="actors_8c.html#a39c023177b5a7686cdd1fc65b8b953e1" target="_top" xlink:title=" ">
<polygon fill="white" stroke="#666666" points="542.5,-327 480.5,-327 480.5,-308 542.5,-308 542.5,-327"/>
<text text-anchor="middle" x="511.5" y="-315" font-family="Helvetica,sans-Serif" font-size="10.00">actor_init</text>
</a>
</g>
</g>
<!-- Node4&#45;&gt;Node5 -->
<g id="edge4_Node000004_Node000005" class="edge">
<title>Node4&#45;&gt;Node5</title>
<g id="a_edge4_Node000004_Node000005"><a xlink:title=" ">
<path fill="none" stroke="#63b8ff" d="M388,-234.12C394.39,-236.58 400.52,-239.66 406,-243.5 430.22,-260.49 418.06,-282.11 442,-299.5 450.36,-305.57 460.6,-309.59 470.6,-312.26"/>
<polygon fill="#63b8ff" stroke="#63b8ff" points="469.91,-315.69 480.44,-314.5 471.47,-308.87 469.91,-315.69"/>
</a>
</g>
</g>
<!-- Node27 -->
<g id="Node000027" class="node">
<title>Node27</title>
<g id="a_Node000027"><a xlink:href="Game_8cpp.html#acea5cfd9ab22f745bd6627869b95a62e" target="_top" xlink:title=" ">
<polygon fill="white" stroke="#666666" points="567.5,-290 455.5,-290 455.5,-271 567.5,-271 567.5,-290"/>
<text text-anchor="middle" x="511.5" y="-278" font-family="Helvetica,sans-Serif" font-size="10.00">CM_ActorBeginPlay</text>
</a>
</g>
</g>
<!-- Node4&#45;&gt;Node27 -->
<g id="edge26_Node000004_Node000027" class="edge">
<title>Node4&#45;&gt;Node27</title>
<g id="a_edge26_Node000004_Node000027"><a xlink:title=" ">
<path fill="none" stroke="#63b8ff" d="M374.34,-234.08C384.97,-236.65 395.96,-239.78 406,-243.5 422.97,-249.78 425.14,-255.94 442,-262.5 447.16,-264.51 452.62,-266.37 458.11,-268.06"/>
<polygon fill="#63b8ff" stroke="#63b8ff" points="457.41,-271.51 467.99,-270.95 459.37,-264.79 457.41,-271.51"/>
</a>
</g>
</g>
<!-- Node28 -->
<g id="Node000028" class="node">
<title>Node28</title>
<g id="a_Node000028"><a xlink:href="Game_8cpp.html#a42f23077aaa52cb3ea5c7803b7dd6816" target="_top" xlink:title=" ">
<polygon fill="white" stroke="#666666" points="564.5,-253 458.5,-253 458.5,-234 564.5,-234 564.5,-253"/>
<text text-anchor="middle" x="511.5" y="-241" font-family="Helvetica,sans-Serif" font-size="10.00">CM_AddBaseActor</text>
</a>
</g>
</g>
<!-- Node4&#45;&gt;Node28 -->
<g id="edge27_Node000004_Node000028" class="edge">
<title>Node4&#45;&gt;Node28</title>
<g id="a_edge27_Node000004_Node000028"><a xlink:title=" ">
<path fill="none" stroke="#63b8ff" d="M391.7,-231.49C410.17,-233.36 430.01,-235.37 448.09,-237.19"/>
<polygon fill="#63b8ff" stroke="#63b8ff" points="447.91,-240.69 458.21,-238.22 448.62,-233.73 447.91,-240.69"/>
</a>
</g>
</g>
<!-- Node29 -->
<g id="Node000029" class="node">
<title>Node29</title>
<g id="a_Node000029"><a xlink:href="Game_8cpp.html#a0841ffe9a66e95aca42438b9d8ffc3d3" target="_top" xlink:title=" ">
<polygon fill="white" stroke="#666666" points="562,-216 461,-216 461,-197 562,-197 562,-216"/>
<text text-anchor="middle" x="511.5" y="-204" font-family="Helvetica,sans-Serif" font-size="10.00">CM_GetActorSize</text>
</a>
</g>
</g>
<!-- Node4&#45;&gt;Node29 -->
<g id="edge28_Node000004_Node000029" class="edge">
<title>Node4&#45;&gt;Node29</title>
<g id="a_edge28_Node000004_Node000029"><a xlink:title=" ">
<path fill="none" stroke="#63b8ff" d="M391.7,-217.87C411.05,-216.02 431.9,-214.03 450.66,-212.23"/>
<polygon fill="#63b8ff" stroke="#63b8ff" points="451.22,-215.69 460.84,-211.25 450.55,-208.72 451.22,-215.69"/>
</a>
</g>
</g>
<!-- Node6 -->
<g id="Node000006" class="node">
<title>Node6</title>
<g id="a_Node000006"><a xlink:href="collision_8c.html#a37aa55b3768d001533ad75e7f1b8388a" target="_top" xlink:title=" ">
<polygon fill="white" stroke="#666666" points="758,-468 617,-468 617,-449 758,-449 758,-468"/>
<text text-anchor="middle" x="687.5" y="-456" font-family="Helvetica,sans-Serif" font-size="10.00">check_bounding_collision</text>
</a>
</g>
</g>
<!-- Node5&#45;&gt;Node6 -->
<g id="edge5_Node000005_Node000006" class="edge">
<title>Node5&#45;&gt;Node6</title>
<g id="a_edge5_Node000005_Node000006"><a xlink:title=" ">
<path fill="none" stroke="#63b8ff" d="M524.46,-327.19C553.89,-351.04 630.06,-412.76 666.5,-442.3"/>
<polygon fill="#63b8ff" stroke="#63b8ff" points="664.48,-445.16 674.46,-448.74 668.89,-439.73 664.48,-445.16"/>
</a>
</g>
</g>
<!-- Node10 -->
<g id="Node000010" class="node">
<title>Node10</title>
<g id="a_Node000010"><a xlink:href="actors_8c.html#a1a9bccb586242555a9123ebd4ab70f2a" target="_top" xlink:title=" ">
<polygon fill="white" stroke="#666666" points="753.5,-375.5 621.5,-375.5 621.5,-345.5 753.5,-345.5 753.5,-375.5"/>
<text text-anchor="start" x="629.5" y="-363.5" font-family="Helvetica,sans-Serif" font-size="10.00">cleanup_red_and_green</text>
<text text-anchor="middle" x="687.5" y="-352.5" font-family="Helvetica,sans-Serif" font-size="10.00">_shells</text>
</a>
</g>
</g>
<!-- Node5&#45;&gt;Node10 -->
<g id="edge9_Node000005_Node000010" class="edge">
<title>Node5&#45;&gt;Node10</title>
<g id="a_edge9_Node000005_Node000010"><a xlink:title=" ">
<path fill="none" stroke="#63b8ff" d="M542.81,-324.99C562.92,-329.96 590.2,-336.7 615.58,-342.97"/>
<polygon fill="#63b8ff" stroke="#63b8ff" points="615.02,-346.44 625.57,-345.44 616.7,-339.64 615.02,-346.44"/>
</a>
</g>
</g>
<!-- Node23 -->
<g id="Node000023" class="node">
<title>Node23</title>
<g id="a_Node000023"><a xlink:href="collision_8c.html#ad72fef3ffe32191d73b1822f512ebf3f" target="_top" xlink:title=" ">
<polygon fill="white" stroke="#666666" points="735,-327 640,-327 640,-308 735,-308 735,-327"/>
<text text-anchor="middle" x="687.5" y="-315" font-family="Helvetica,sans-Serif" font-size="10.00">func_802AAAAC</text>
</a>
</g>
</g>
<!-- Node5&#45;&gt;Node23 -->
<g id="edge22_Node000005_Node000023" class="edge">
<title>Node5&#45;&gt;Node23</title>
<g id="a_edge22_Node000005_Node000023"><a xlink:title=" ">
<path fill="none" stroke="#63b8ff" d="M542.81,-317.5C566.76,-317.5 600.87,-317.5 629.84,-317.5"/>
<polygon fill="#63b8ff" stroke="#63b8ff" points="629.85,-321 639.85,-317.5 629.85,-314 629.85,-321"/>
</a>
</g>
</g>
<!-- Node25 -->
<g id="Node000025" class="node">
<title>Node25</title>
<g id="a_Node000025"><a xlink:href="math__util_8c.html#af7b470ed76fce07b8042a47c96e5690b" target="_top" xlink:title=" ">
<polygon fill="white" stroke="#666666" points="741,-290 634,-290 634,-271 741,-271 741,-290"/>
<text text-anchor="middle" x="687.5" y="-278" font-family="Helvetica,sans-Serif" font-size="10.00">vec3f_copy_return</text>
</a>
</g>
</g>
<!-- Node5&#45;&gt;Node25 -->
<g id="edge24_Node000005_Node000025" class="edge">
<title>Node5&#45;&gt;Node25</title>
<g id="a_edge24_Node000005_Node000025"><a xlink:title=" ">
<path fill="none" stroke="#63b8ff" d="M542.81,-311.06C567.2,-305.87 602.11,-298.44 631.42,-292.21"/>
<polygon fill="#63b8ff" stroke="#63b8ff" points="632.47,-295.57 641.52,-290.06 631.01,-288.72 632.47,-295.57"/>
</a>
</g>
</g>
<!-- Node26 -->
<g id="Node000026" class="node">
<title>Node26</title>
<g id="a_Node000026"><a xlink:href="math__util_8c.html#a0e270ee67600c8c9c2f140c647d008a1" target="_top" xlink:title=" ">
<polygon fill="white" stroke="#666666" points="724.5,-253 650.5,-253 650.5,-234 724.5,-234 724.5,-253"/>
<text text-anchor="middle" x="687.5" y="-241" font-family="Helvetica,sans-Serif" font-size="10.00">vec3s_copy</text>
</a>
</g>
</g>
<!-- Node5&#45;&gt;Node26 -->
<g id="edge25_Node000005_Node000026" class="edge">
<title>Node5&#45;&gt;Node26</title>
<g id="a_edge25_Node000005_Node000026"><a xlink:title=" ">
<path fill="none" stroke="#63b8ff" d="M542.53,-313.26C555.03,-310.6 569.32,-306.31 581,-299.5 600.82,-287.94 597.24,-274.16 617,-262.5 624.2,-258.25 632.38,-254.93 640.53,-252.33"/>
<polygon fill="#63b8ff" stroke="#63b8ff" points="641.74,-255.63 650.4,-249.52 639.82,-248.9 641.74,-255.63"/>
</a>
</g>
</g>
<!-- Node7 -->
<g id="Node000007" class="node">
<title>Node7</title>
<g id="a_Node000007"><a xlink:href="collision_8c.html#ac312bf382cb40752f6b790a99e7cdcb6" target="_top" xlink:title=" ">
<polygon fill="white" stroke="#666666" points="921,-524 813,-524 813,-505 921,-505 921,-524"/>
<text text-anchor="middle" x="867" y="-512" font-family="Helvetica,sans-Serif" font-size="10.00">check_collision_yx</text>
</a>
</g>
</g>
<!-- Node6&#45;&gt;Node7 -->
<g id="edge6_Node000006_Node000007" class="edge">
<title>Node6&#45;&gt;Node7</title>
<g id="a_edge6_Node000006_Node000007"><a xlink:title=" ">
<path fill="none" stroke="#63b8ff" d="M712.99,-468.12C734.22,-476.26 765.88,-487.94 794,-496.5 800.63,-498.52 807.64,-500.48 814.6,-502.32"/>
<polygon fill="#63b8ff" stroke="#63b8ff" points="814.12,-505.82 824.68,-504.93 815.88,-499.04 814.12,-505.82"/>
</a>
</g>
</g>
<!-- Node8 -->
<g id="Node000008" class="node">
<title>Node8</title>
<g id="a_Node000008"><a xlink:href="collision_8c.html#a4b48832a90e984536a0635a016ec4f28" target="_top" xlink:title=" ">
<polygon fill="white" stroke="#666666" points="920.5,-487 813.5,-487 813.5,-468 920.5,-468 920.5,-487"/>
<text text-anchor="middle" x="867" y="-475" font-family="Helvetica,sans-Serif" font-size="10.00">check_collision_zx</text>
</a>
</g>
</g>
<!-- Node6&#45;&gt;Node8 -->
<g id="edge7_Node000006_Node000008" class="edge">
<title>Node6&#45;&gt;Node8</title>
<g id="a_edge7_Node000006_Node000008"><a xlink:title=" ">
<path fill="none" stroke="#63b8ff" d="M758.14,-465.95C772.91,-467.54 788.43,-469.2 802.94,-470.75"/>
<polygon fill="#63b8ff" stroke="#63b8ff" points="802.98,-474.27 813.3,-471.86 803.73,-467.31 802.98,-474.27"/>
</a>
</g>
</g>
<!-- Node9 -->
<g id="Node000009" class="node">
<title>Node9</title>
<g id="a_Node000009"><a xlink:href="collision_8c.html#a21fef964ab48191a1c0341954ef27a40" target="_top" xlink:title=" ">
<polygon fill="white" stroke="#666666" points="920.5,-450 813.5,-450 813.5,-431 920.5,-431 920.5,-450"/>
<text text-anchor="middle" x="867" y="-438" font-family="Helvetica,sans-Serif" font-size="10.00">check_collision_zy</text>
</a>
</g>
</g>
<!-- Node6&#45;&gt;Node9 -->
<g id="edge8_Node000006_Node000009" class="edge">
<title>Node6&#45;&gt;Node9</title>
<g id="a_edge8_Node000006_Node000009"><a xlink:title=" ">
<path fill="none" stroke="#63b8ff" d="M758.14,-451.44C772.91,-449.94 788.43,-448.37 802.94,-446.9"/>
<polygon fill="#63b8ff" stroke="#63b8ff" points="803.7,-450.34 813.3,-445.84 803,-443.37 803.7,-450.34"/>
</a>
</g>
</g>
<!-- Node11 -->
<g id="Node000011" class="node">
<title>Node11</title>
<g id="a_Node000011"><a xlink:href="Game_8cpp.html#a693de7d8b89fe291aafea86bc64a0a2e" target="_top" xlink:title=" ">
<polygon fill="white" stroke="#666666" points="907,-413 827,-413 827,-394 907,-394 907,-413"/>
<text text-anchor="middle" x="867" y="-401" font-family="Helvetica,sans-Serif" font-size="10.00">CM_GetActor</text>
</a>
</g>
</g>
<!-- Node10&#45;&gt;Node11 -->
<g id="edge10_Node000010_Node000011" class="edge">
<title>Node10&#45;&gt;Node11</title>
<g id="a_edge10_Node000010_Node000011"><a xlink:title=" ">
<path fill="none" stroke="#63b8ff" d="M750.58,-375.54C772.4,-380.83 796.6,-386.69 817.17,-391.67"/>
<polygon fill="#63b8ff" stroke="#63b8ff" points="816.41,-395.09 826.96,-394.04 818.06,-388.29 816.41,-395.09"/>
</a>
</g>
</g>
<!-- Node12 -->
<g id="Node000012" class="node">
<title>Node12</title>
<g id="a_Node000012"><a xlink:href="code__80005FD0_8c.html#ad301b978cdd3c4cc190b10be050d51d8" target="_top" xlink:title=" ">
<polygon fill="white" stroke="#666666" points="940,-375.5 794,-375.5 794,-345.5 940,-345.5 940,-375.5"/>
<text text-anchor="start" x="802" y="-363.5" font-family="Helvetica,sans-Serif" font-size="10.00">delete_actor_in_unexpired</text>
<text text-anchor="middle" x="867" y="-352.5" font-family="Helvetica,sans-Serif" font-size="10.00">_actor_list</text>
</a>
</g>
</g>
<!-- Node10&#45;&gt;Node12 -->
<g id="edge11_Node000010_Node000012" class="edge">
<title>Node10&#45;&gt;Node12</title>
<g id="a_edge11_Node000010_Node000012"><a xlink:title=" ">
<path fill="none" stroke="#63b8ff" d="M753.59,-360.5C763.38,-360.5 773.59,-360.5 783.69,-360.5"/>
<polygon fill="#63b8ff" stroke="#63b8ff" points="783.73,-364 793.73,-360.5 783.73,-357 783.73,-364"/>
</a>
</g>
</g>
<!-- Node13 -->
<g id="Node000013" class="node">
<title>Node13</title>
<g id="a_Node000013"><a xlink:href="actors_8c.html#a694ec6ef7548b8618aeb35c038d3a9b9" target="_top" xlink:title=" ">
<polygon fill="white" stroke="#666666" points="908.5,-327 825.5,-327 825.5,-308 908.5,-308 908.5,-327"/>
<text text-anchor="middle" x="867" y="-315" font-family="Helvetica,sans-Serif" font-size="10.00">destroy_actor</text>
</a>
</g>
</g>
<!-- Node10&#45;&gt;Node13 -->
<g id="edge12_Node000010_Node000013" class="edge">
<title>Node10&#45;&gt;Node13</title>
<g id="a_edge12_Node000010_Node000013"><a xlink:title=" ">
<path fill="none" stroke="#63b8ff" d="M750.58,-345.46C772.32,-340.2 796.41,-334.36 816.93,-329.39"/>
<polygon fill="#63b8ff" stroke="#63b8ff" points="817.8,-332.78 826.69,-327.02 816.15,-325.98 817.8,-332.78"/>
</a>
</g>
</g>
<!-- Node14 -->
<g id="Node000014" class="node">
<title>Node14</title>
<g id="a_Node000014"><a xlink:href="actors_8c.html#a12dc3ccac4c7d8569eadac0af4fd6f9f" target="_top" xlink:title=" ">
<polygon fill="white" stroke="#666666" points="1134,-327 976,-327 976,-308 1134,-308 1134,-327"/>
<text text-anchor="middle" x="1055" y="-315" font-family="Helvetica,sans-Serif" font-size="10.00">play_sound_before_despawn</text>
</a>
</g>
</g>
<!-- Node13&#45;&gt;Node14 -->
<g id="edge13_Node000013_Node000014" class="edge">
<title>Node13&#45;&gt;Node14</title>
<g id="a_edge13_Node000013_Node000014"><a xlink:title=" ">
<path fill="none" stroke="#63b8ff" d="M908.82,-317.5C925.65,-317.5 945.86,-317.5 965.77,-317.5"/>
<polygon fill="#63b8ff" stroke="#63b8ff" points="965.82,-321 975.82,-317.5 965.82,-314 965.82,-321"/>
</a>
</g>
</g>
<!-- Node15 -->
<g id="Node000015" class="node">
<title>Node15</title>
<g id="a_Node000015"><a xlink:href="external_8c.html#ae72057869772019e4464c87d4e16c682" target="_top" xlink:title=" ">
<polygon fill="white" stroke="#666666" points="1262,-327 1170,-327 1170,-308 1262,-308 1262,-327"/>
<text text-anchor="middle" x="1216" y="-315" font-family="Helvetica,sans-Serif" font-size="10.00">func_800C99E0</text>
</a>
</g>
</g>
<!-- Node14&#45;&gt;Node15 -->
<g id="edge14_Node000014_Node000015" class="edge">
<title>Node14&#45;&gt;Node15</title>
<g id="a_edge14_Node000014_Node000015"><a xlink:title=" ">
<path fill="none" stroke="#63b8ff" d="M1134.1,-317.5C1142.72,-317.5 1151.35,-317.5 1159.61,-317.5"/>
<polygon fill="#63b8ff" stroke="#63b8ff" points="1159.83,-321 1169.83,-317.5 1159.83,-314 1159.83,-321"/>
</a>
</g>
</g>
<!-- Node16 -->
<g id="Node000016" class="node">
<title>Node16</title>
<g id="a_Node000016"><a xlink:href="external_8c.html#aeb87c527482a244173df36a1f3d4f446" target="_top" xlink:title=" ">
<polygon fill="white" stroke="#666666" points="1390,-346 1298,-346 1298,-327 1390,-327 1390,-346"/>
<text text-anchor="middle" x="1344" y="-334" font-family="Helvetica,sans-Serif" font-size="10.00">func_800C21E8</text>
</a>
</g>
</g>
<!-- Node15&#45;&gt;Node16 -->
<g id="edge15_Node000015_Node000016" class="edge">
<title>Node15&#45;&gt;Node16</title>
<g id="a_edge15_Node000015_Node000016"><a xlink:title=" ">
<path fill="none" stroke="#63b8ff" d="M1262.13,-324.31C1270.46,-325.56 1279.23,-326.88 1287.81,-328.18"/>
<polygon fill="#63b8ff" stroke="#63b8ff" points="1287.35,-331.65 1297.76,-329.68 1288.39,-324.73 1287.35,-331.65"/>
</a>
</g>
</g>
<!-- Node17 -->
<g id="Node000017" class="node">
<title>Node17</title>
<g id="a_Node000017"><a xlink:href="external_8c.html#a028d40421b90c38f68ebfd5acc626f2e" target="_top" xlink:title=" ">
<polygon fill="white" stroke="#666666" points="1390,-309 1298,-309 1298,-290 1390,-290 1390,-309"/>
<text text-anchor="middle" x="1344" y="-297" font-family="Helvetica,sans-Serif" font-size="10.00">func_800C5578</text>
</a>
</g>
</g>
<!-- Node15&#45;&gt;Node17 -->
<g id="edge16_Node000015_Node000017" class="edge">
<title>Node15&#45;&gt;Node17</title>
<g id="a_edge16_Node000015_Node000017"><a xlink:title=" ">
<path fill="none" stroke="#63b8ff" d="M1262.13,-311.05C1270.46,-309.86 1279.23,-308.61 1287.81,-307.38"/>
<polygon fill="#63b8ff" stroke="#63b8ff" points="1288.35,-310.84 1297.76,-305.96 1287.36,-303.91 1288.35,-310.84"/>
</a>
</g>
</g>
<!-- Node18 -->
<g id="Node000018" class="node">
<title>Node18</title>
<g id="a_Node000018"><a xlink:href="external_8c.html#ac0fb767de7e14a03f1bcfa53f0abd23b" target="_top" xlink:title=" ">
<polygon fill="white" stroke="#666666" points="1566,-346 1426,-346 1426,-327 1566,-327 1566,-346"/>
<text text-anchor="middle" x="1496" y="-334" font-family="Helvetica,sans-Serif" font-size="10.00">delete_sound_from_bank</text>
</a>
</g>
</g>
<!-- Node17&#45;&gt;Node18 -->
<g id="edge17_Node000017_Node000018" class="edge">
<title>Node17&#45;&gt;Node18</title>
<g id="a_edge17_Node000017_Node000018"><a xlink:title=" ">
<path fill="none" stroke="#63b8ff" d="M1383.63,-309.03C1402.8,-313.76 1426.16,-319.52 1446.52,-324.54"/>
<polygon fill="#63b8ff" stroke="#63b8ff" points="1445.69,-327.94 1456.24,-326.94 1447.37,-321.15 1445.69,-327.94"/>
</a>
</g>
</g>
<!-- Node20 -->
<g id="Node000020" class="node">
<title>Node20</title>
<g id="a_Node000020"><a xlink:href="external_8c.html#ab83bd36e63f0f1baddcb2482b5ad31b0" target="_top" xlink:title=" ">
<polygon fill="white" stroke="#666666" points="1542.5,-309 1449.5,-309 1449.5,-290 1542.5,-290 1542.5,-309"/>
<text text-anchor="middle" x="1496" y="-297" font-family="Helvetica,sans-Serif" font-size="10.00">func_800C41CC</text>
</a>
</g>
</g>
<!-- Node17&#45;&gt;Node20 -->
<g id="edge19_Node000017_Node000020" class="edge">
<title>Node17&#45;&gt;Node20</title>
<g id="a_edge19_Node000017_Node000020"><a xlink:title=" ">
<path fill="none" stroke="#63b8ff" d="M1390,-299.5C1405.37,-299.5 1422.74,-299.5 1438.86,-299.5"/>
<polygon fill="#63b8ff" stroke="#63b8ff" points="1439.25,-303 1449.25,-299.5 1439.25,-296 1439.25,-303"/>
</a>
</g>
</g>
<!-- Node21 -->
<g id="Node000021" class="node">
<title>Node21</title>
<g id="a_Node000021"><a xlink:href="port__eu_8c.html#aa89dfaecca46c6d071f08c1898d1f7c9" target="_top" xlink:title=" ">
<polygon fill="white" stroke="#666666" points="1542.5,-272 1449.5,-272 1449.5,-253 1542.5,-253 1542.5,-272"/>
<text text-anchor="middle" x="1496" y="-260" font-family="Helvetica,sans-Serif" font-size="10.00">func_800CBBE8</text>
</a>
</g>
</g>
<!-- Node17&#45;&gt;Node21 -->
<g id="edge20_Node000017_Node000021" class="edge">
<title>Node17&#45;&gt;Node21</title>
<g id="a_edge20_Node000017_Node000021"><a xlink:title=" ">
<path fill="none" stroke="#63b8ff" d="M1383.63,-289.97C1402.8,-285.24 1426.16,-279.48 1446.52,-274.46"/>
<polygon fill="#63b8ff" stroke="#63b8ff" points="1447.37,-277.85 1456.24,-272.06 1445.69,-271.06 1447.37,-277.85"/>
</a>
</g>
</g>
<!-- Node19 -->
<g id="Node000019" class="node">
<title>Node19</title>
<g id="a_Node000019"><a xlink:href="external_8c.html#a358ac55e8ab5262dcae8037334be06d7" target="_top" xlink:title=" ">
<polygon fill="white" stroke="#666666" points="1694.5,-346 1602.5,-346 1602.5,-327 1694.5,-327 1694.5,-346"/>
<text text-anchor="middle" x="1648.5" y="-334" font-family="Helvetica,sans-Serif" font-size="10.00">func_800C40F0</text>
</a>
</g>
</g>
<!-- Node18&#45;&gt;Node19 -->
<g id="edge18_Node000018_Node000019" class="edge">
<title>Node18&#45;&gt;Node19</title>
<g id="a_edge18_Node000018_Node000019"><a xlink:title=" ">
<path fill="none" stroke="#63b8ff" d="M1566.08,-336.5C1574.87,-336.5 1583.78,-336.5 1592.31,-336.5"/>
<polygon fill="#63b8ff" stroke="#63b8ff" points="1592.5,-340 1602.5,-336.5 1592.5,-333 1592.5,-340"/>
</a>
</g>
</g>
<!-- Node22 -->
<g id="Node000022" class="node">
<title>Node22</title>
<g id="a_Node000022"><a xlink:href="port__eu_8c.html#af361a20d2e08f30c53a237ca481ff734" target="_top" xlink:title=" ">
<polygon fill="white" stroke="#666666" points="1695,-272 1602,-272 1602,-253 1695,-253 1695,-272"/>
<text text-anchor="middle" x="1648.5" y="-260" font-family="Helvetica,sans-Serif" font-size="10.00">func_800CBB48</text>
</a>
</g>
</g>
<!-- Node21&#45;&gt;Node22 -->
<g id="edge21_Node000021_Node000022" class="edge">
<title>Node21&#45;&gt;Node22</title>
<g id="a_edge21_Node000021_Node000022"><a xlink:title=" ">
<path fill="none" stroke="#63b8ff" d="M1542.56,-262.5C1557.96,-262.5 1575.34,-262.5 1591.46,-262.5"/>
<polygon fill="#63b8ff" stroke="#63b8ff" points="1591.83,-266 1601.83,-262.5 1591.83,-259 1591.83,-266"/>
</a>
</g>
</g>
<!-- Node24 -->
<g id="Node000024" class="node">
<title>Node24</title>
<g id="a_Node000024"><a xlink:href="math__util_8c.html#a79fd07a0971ec96a3ff0801963a2fa7f" target="_top" xlink:title=" ">
<polygon fill="white" stroke="#666666" points="899,-290 835,-290 835,-271 899,-271 899,-290"/>
<text text-anchor="middle" x="867" y="-278" font-family="Helvetica,sans-Serif" font-size="10.00">vec3f_set</text>
</a>
</g>
</g>
<!-- Node23&#45;&gt;Node24 -->
<g id="edge23_Node000023_Node000024" class="edge">
<title>Node23&#45;&gt;Node24</title>
<g id="a_edge23_Node000023_Node000024"><a xlink:title=" ">
<path fill="none" stroke="#63b8ff" d="M734.21,-307.97C762.26,-302.12 797.89,-294.7 825.02,-289.04"/>
<polygon fill="#63b8ff" stroke="#63b8ff" points="825.9,-292.43 834.97,-286.97 824.47,-285.58 825.9,-292.43"/>
</a>
</g>
</g>
<!-- Node32 -->
<g id="Node000032" class="node">
<title>Node32</title>
<g id="a_Node000032"><a xlink:href="code__80005FD0_8c.html#ade9dca16c41c3d924b84f32a203ba823" target="_top" xlink:title=" ">
<polygon fill="white" stroke="#666666" points="571.5,-178.5 451.5,-178.5 451.5,-148.5 571.5,-148.5 571.5,-178.5"/>
<text text-anchor="start" x="459.5" y="-166.5" font-family="Helvetica,sans-Serif" font-size="10.00">find_closest_vehicles</text>
<text text-anchor="middle" x="511.5" y="-155.5" font-family="Helvetica,sans-Serif" font-size="10.00">_path_point</text>
</a>
</g>
</g>
<!-- Node31&#45;&gt;Node32 -->
<g id="edge31_Node000031_Node000032" class="edge">
<title>Node31&#45;&gt;Node32</title>
<g id="a_edge31_Node000031_Node000032"><a xlink:title=" ">
<path fill="none" stroke="#63b8ff" d="M364.22,-130.04C386.96,-135.24 415.67,-141.81 441.63,-147.75"/>
<polygon fill="#63b8ff" stroke="#63b8ff" points="440.89,-151.17 451.42,-149.99 442.45,-144.35 440.89,-151.17"/>
</a>
</g>
</g>
<!-- Node33 -->
<g id="Node000033" class="node">
<title>Node33</title>
<g id="a_Node000033"><a xlink:href="code__80005FD0_8c.html#a79cd9c001e0a06c9cab23fe2cf070abf" target="_top" xlink:title=" ">
<polygon fill="white" stroke="#666666" points="581,-130 442,-130 442,-111 581,-111 581,-130"/>
<text text-anchor="middle" x="511.5" y="-118" font-family="Helvetica,sans-Serif" font-size="10.00">get_angle_between_path</text>
</a>
</g>
</g>
<!-- Node31&#45;&gt;Node33 -->
<g id="edge32_Node000031_Node000033" class="edge">
<title>Node31&#45;&gt;Node33</title>
<g id="a_edge32_Node000031_Node000033"><a xlink:title=" ">
<path fill="none" stroke="#63b8ff" d="M405.51,-120.5C414.2,-120.5 423.03,-120.5 431.67,-120.5"/>
<polygon fill="#63b8ff" stroke="#63b8ff" points="431.73,-124 441.73,-120.5 431.73,-117 431.73,-124"/>
</a>
</g>
</g>
<!-- Node37 -->
<g id="Node000037" class="node">
<title>Node37</title>
<g id="a_Node000037"><a xlink:href="Game_8cpp.html#a545c1a384e93cc7b616dfee707f5d962" target="_top" xlink:title=" ">
<polygon fill="white" stroke="#666666" points="545.5,-93 477.5,-93 477.5,-74 545.5,-74 545.5,-93"/>
<text text-anchor="middle" x="511.5" y="-81" font-family="Helvetica,sans-Serif" font-size="10.00">IsDkJungle</text>
</a>
</g>
</g>
<!-- Node31&#45;&gt;Node37 -->
<g id="edge36_Node000031_Node000037" class="edge">
<title>Node31&#45;&gt;Node37</title>
<g id="a_edge36_Node000031_Node000037"><a xlink:title=" ">
<path fill="none" stroke="#63b8ff" d="M370.91,-110.97C400.66,-105.12 438.44,-97.68 467.2,-92.02"/>
<polygon fill="#63b8ff" stroke="#63b8ff" points="468.21,-95.39 477.35,-90.02 466.86,-88.52 468.21,-95.39"/>
</a>
</g>
</g>
<!-- Node38 -->
<g id="Node000038" class="node">
<title>Node38</title>
<g id="a_Node000038"><a xlink:href="Game_8cpp.html#ad474b8b257813cceeae25ab5205273c4" target="_top" xlink:title=" ">
<polygon fill="white" stroke="#666666" points="560.5,-56 462.5,-56 462.5,-37 560.5,-37 560.5,-56"/>
<text text-anchor="middle" x="511.5" y="-44" font-family="Helvetica,sans-Serif" font-size="10.00">IsKalimariDesert</text>
</a>
</g>
</g>
<!-- Node31&#45;&gt;Node38 -->
<g id="edge37_Node000031_Node000038" class="edge">
<title>Node31&#45;&gt;Node38</title>
<g id="a_edge37_Node000031_Node000038"><a xlink:title=" ">
<path fill="none" stroke="#63b8ff" d="M385.96,-110.99C392.95,-108.74 399.77,-105.95 406,-102.5 426.07,-91.39 422.26,-77.19 442,-65.5 445.64,-63.34 449.54,-61.42 453.56,-59.71"/>
<polygon fill="#63b8ff" stroke="#63b8ff" points="454.98,-62.92 463.09,-56.1 452.5,-56.37 454.98,-62.92"/>
</a>
</g>
</g>
<!-- Node39 -->
<g id="Node000039" class="node">
<title>Node39</title>
<g id="a_Node000039"><a xlink:href="math_8h.html#a37bde043e94a6f074c78f10518fb5d99" target="_top" xlink:title=" ">
<polygon fill="white" stroke="#666666" points="531,-19 492,-19 492,0 531,0 531,-19"/>
<text text-anchor="middle" x="511.5" y="-7" font-family="Helvetica,sans-Serif" font-size="10.00">sqrtf</text>
</a>
</g>
</g>
<!-- Node31&#45;&gt;Node39 -->
<g id="edge38_Node000031_Node000039" class="edge">
<title>Node31&#45;&gt;Node39</title>
<g id="a_edge38_Node000031_Node000039"><a xlink:title=" ">
<path fill="none" stroke="#63b8ff" d="M391.79,-110.95C396.87,-108.67 401.68,-105.89 406,-102.5 434.78,-79.93 413.89,-51.9 442,-28.5 453.08,-19.28 468.3,-14.52 481.59,-12.06"/>
<polygon fill="#63b8ff" stroke="#63b8ff" points="482.33,-15.49 491.71,-10.55 481.3,-8.57 482.33,-15.49"/>
</a>
</g>
</g>
<!-- Node34 -->
<g id="Node000034" class="node">
<title>Node34</title>
<g id="a_Node000034"><a xlink:href="math__util_8c.html#a84cf9d4ec33146a64c230ed4cec56632" target="_top" xlink:title=" ">
<polygon fill="white" stroke="#666666" points="755,-135.5 620,-135.5 620,-105.5 755,-105.5 755,-135.5"/>
<text text-anchor="start" x="628" y="-123.5" font-family="Helvetica,sans-Serif" font-size="10.00">get_angle_between_two</text>
<text text-anchor="middle" x="687.5" y="-112.5" font-family="Helvetica,sans-Serif" font-size="10.00">_vectors</text>
</a>
</g>
</g>
<!-- Node33&#45;&gt;Node34 -->
<g id="edge33_Node000033_Node000034" class="edge">
<title>Node33&#45;&gt;Node34</title>
<g id="a_edge33_Node000033_Node000034"><a xlink:title=" ">
<path fill="none" stroke="#63b8ff" d="M581.27,-120.5C590.62,-120.5 600.26,-120.5 609.74,-120.5"/>
<polygon fill="#63b8ff" stroke="#63b8ff" points="609.93,-124 619.93,-120.5 609.93,-117 609.93,-124"/>
</a>
</g>
</g>
<!-- Node35 -->
<g id="Node000035" class="node">
<title>Node35</title>
<g id="a_Node000035"><a xlink:href="math__util_8c.html#aaa39a297477f56051975259f4bddd829" target="_top" xlink:title=" ">
<polygon fill="white" stroke="#666666" points="892,-130 842,-130 842,-111 892,-111 892,-130"/>
<text text-anchor="middle" x="867" y="-118" font-family="Helvetica,sans-Serif" font-size="10.00">atan2s</text>
</a>
</g>
</g>
<!-- Node34&#45;&gt;Node35 -->
<g id="edge34_Node000034_Node000035" class="edge">
<title>Node34&#45;&gt;Node35</title>
<g id="a_edge34_Node000034_Node000035"><a xlink:title=" ">
<path fill="none" stroke="#63b8ff" d="M755.1,-120.5C781.14,-120.5 809.89,-120.5 831.6,-120.5"/>
<polygon fill="#63b8ff" stroke="#63b8ff" points="831.64,-124 841.64,-120.5 831.64,-117 831.64,-124"/>
</a>
</g>
</g>
<!-- Node36 -->
<g id="Node000036" class="node">
<title>Node36</title>
<g id="a_Node000036"><a xlink:href="math__util_8c.html#a0273b0ea0783a06996c28669a7438ed9" target="_top" xlink:title=" ">
<polygon fill="white" stroke="#666666" points="1096,-130 1014,-130 1014,-111 1096,-111 1096,-130"/>
<text text-anchor="middle" x="1055" y="-118" font-family="Helvetica,sans-Serif" font-size="10.00">atan2_lookup</text>
</a>
</g>
</g>
<!-- Node35&#45;&gt;Node36 -->
<g id="edge35_Node000035_Node000036" class="edge">
<title>Node35&#45;&gt;Node36</title>
<g id="a_edge35_Node000035_Node000036"><a xlink:title=" ">
<path fill="none" stroke="#63b8ff" d="M892.32,-120.5C920.37,-120.5 967.26,-120.5 1003.34,-120.5"/>
<polygon fill="#63b8ff" stroke="#63b8ff" points="1003.68,-124 1013.68,-120.5 1003.68,-117 1003.68,-124"/>
</a>
</g>
</g>
</g>
</svg>

<g id="navigator" transform="translate(0 0)" fill="#404254">
  <rect fill="#f2f5e9" fill-opacity="0.5" stroke="#606060" stroke-width=".5" x="0" y="0" width="60" height="60"/>
  <use id="zoomplus" xlink:href="#zoomPlus" x="17" y="9" onmousedown="handleZoom(evt,'in')"/>
  <use id="zoomminus" xlink:href="#zoomMin" x="42" y="9" onmousedown="handleZoom(evt,'out')"/>
  <use id="reset" xlink:href="#resetDef" x="30" y="36" onmousedown="handleReset()"/>
   <use id="arrowup" xlink:href="#arrowUp" x="0" y="0" onmousedown="handlePan(0,-1)"/>
  <use id="arrowright" xlink:href="#arrowRight" x="0" y="0" onmousedown="handlePan(1,0)"/>
  <use id="arrowdown" xlink:href="#arrowDown" x="0" y="0" onmousedown="handlePan(0,1)"/>
  <use id="arrowleft" xlink:href="#arrowLeft" x="0" y="0" onmousedown="handlePan(-1,0)"/>
</g>
<svg viewBox="0 0 15 15" width="100%" height="30px" preserveAspectRatio="xMaxYMin meet">
 <g id="arrow_out" transform="scale(0.3 0.3)">
  <a xlink:href="classABoat_a2a8755582504f510d51f7988b42df18b_cgraph_org.svg" target="_base">
   <rect id="button" ry="5" rx="5" y="6" x="6" height="38" width="38"
        fill="#f2f5e9" fill-opacity="0.5" stroke="#606060" stroke-width="1.0"/>
   <path id="arrow"
     d="M 11.500037,31.436501 C 11.940474,20.09759 22.043105,11.32322 32.158766,21.979434 L 37.068811,17.246167 C 37.068811,17.246167 37.088388,32 37.088388,32 L 22.160133,31.978069 C 22.160133,31.978069 26.997745,27.140456 26.997745,27.140456 C 18.528582,18.264221 13.291696,25.230495 11.500037,31.436501 z"
     style="fill:#404040;"/>
  </a>
 </g>
</svg>

<style type='text/css'>
<![CDATA[
[data-mouse-over-selected='false'] { opacity: 0.7; }
[data-mouse-over-selected='true']  { opacity: 1.0; }
]]>
</style>
<script type="application/ecmascript"><![CDATA[
document.addEventListener('DOMContentLoaded', (event) => {
  highlightEdges();
  highlightAdjacentNodes();
});
]]></script>
</svg>
