<?xml version="1.0" encoding="UTF-8" standalone="no"?>
<!DOCTYPE svg PUBLIC "-//W3C//DTD SVG 1.1//EN"
 "http://www.w3.org/Graphics/SVG/1.1/DTD/svg11.dtd">
<!-- Generated by graphviz version 2.43.0 (0)
 -->
<!-- Title: OObject::OObject Pages: 1 -->
<svg width="685pt" height="834pt"
 viewBox="0.00 0.00 685.00 834.00" xmlns="http://www.w3.org/2000/svg" xmlns:xlink="http://www.w3.org/1999/xlink">
<g id="graph0" class="graph" transform="scale(1 1) rotate(0) translate(4 830)">
<title>OObject::OObject</title>
<!-- Node1 -->
<g id="Node000001" class="node">
<title>Node1</title>
<g id="a_Node000001"><a xlink:title=" ">
<polygon fill="#999999" stroke="#666666" points="677,-308 576,-308 576,-289 677,-289 677,-308"/>
<text text-anchor="middle" x="626.5" y="-296" font-family="Helvetica,sans-Serif" font-size="10.00">OObject::OObject</text>
</a>
</g>
</g>
<!-- Node2 -->
<g id="Node000002" class="node">
<title>Node2</title>
<g id="a_Node000002"><a xlink:href="classOBat.html#aee0246fa1a7cd2b1fc23c18cdbf75256" target="_top" xlink:title=" ">
<polygon fill="white" stroke="#666666" points="489,-401 418,-401 418,-382 489,-382 489,-401"/>
<text text-anchor="middle" x="453.5" y="-389" font-family="Helvetica,sans-Serif" font-size="10.00">OBat::OBat</text>
</a>
</g>
</g>
<!-- Node1&#45;&gt;Node2 -->
<g id="edge1_Node000001_Node000002" class="edge">
<title>Node1&#45;&gt;Node2</title>
<g id="a_edge1_Node000001_Node000002"><a xlink:title=" ">
<path fill="none" stroke="#63b8ff" d="M610.83,-315.76C595.1,-333.1 568.53,-359.23 540,-373.5 524.26,-381.37 505.23,-385.81 489.12,-388.3"/>
<polygon fill="#63b8ff" stroke="#63b8ff" points="613.64,-317.86 617.63,-308.05 608.39,-313.23 613.64,-317.86"/>
</a>
</g>
</g>
<!-- Node5 -->
<g id="Node000005" class="node">
<title>Node5</title>
<g id="a_Node000005"><a xlink:href="classOBombKart.html#a1566e8d56318b18ad900fbbac9966d9d" target="_top" xlink:title=" ">
<polygon fill="white" stroke="#666666" points="521,-586 386,-586 386,-567 521,-567 521,-586"/>
<text text-anchor="middle" x="453.5" y="-574" font-family="Helvetica,sans-Serif" font-size="10.00">OBombKart::OBombKart</text>
</a>
</g>
</g>
<!-- Node1&#45;&gt;Node5 -->
<g id="edge4_Node000001_Node000005" class="edge">
<title>Node1&#45;&gt;Node5</title>
<g id="a_edge4_Node000001_Node000005"><a xlink:title=" ">
<path fill="none" stroke="#63b8ff" d="M625.29,-318.22C623.65,-366.96 612.26,-493.79 540,-558.5 534.58,-563.36 528.18,-567.03 521.37,-569.78"/>
<polygon fill="#63b8ff" stroke="#63b8ff" points="628.79,-318.16 625.53,-308.08 621.8,-318 628.79,-318.16"/>
</a>
</g>
</g>
<!-- Node29 -->
<g id="Node000029" class="node">
<title>Node29</title>
<g id="a_Node000029"><a xlink:href="classOBoos.html#a5ca65fe45b8fad72d56d3a8c68f7b23d" target="_top" xlink:title=" ">
<polygon fill="white" stroke="#666666" points="496.5,-438 410.5,-438 410.5,-419 496.5,-419 496.5,-438"/>
<text text-anchor="middle" x="453.5" y="-426" font-family="Helvetica,sans-Serif" font-size="10.00">OBoos::OBoos</text>
</a>
</g>
</g>
<!-- Node1&#45;&gt;Node29 -->
<g id="edge23_Node000001_Node000029" class="edge">
<title>Node1&#45;&gt;Node29</title>
<g id="a_edge23_Node000001_Node000029"><a xlink:title=" ">
<path fill="none" stroke="#63b8ff" d="M616.66,-317.12C603.6,-342.47 576.71,-387.33 540,-410.5 527.17,-418.6 511.32,-423.12 496.76,-425.62"/>
<polygon fill="#63b8ff" stroke="#63b8ff" points="619.8,-318.67 621.11,-308.15 613.53,-315.55 619.8,-318.67"/>
</a>
</g>
</g>
<!-- Node31 -->
<g id="Node000031" class="node">
<title>Node31</title>
<g id="a_Node000031"><a xlink:href="classOCheepCheep.html#acbc058537730252fb4413c3282baefea" target="_top" xlink:title=" ">
<polygon fill="white" stroke="#666666" points="534,-290 373,-290 373,-271 534,-271 534,-290"/>
<text text-anchor="middle" x="453.5" y="-278" font-family="Helvetica,sans-Serif" font-size="10.00">OCheepCheep::OCheepCheep</text>
</a>
</g>
</g>
<!-- Node1&#45;&gt;Node31 -->
<g id="edge26_Node000001_Node000031" class="edge">
<title>Node1&#45;&gt;Node31</title>
<g id="a_edge26_Node000001_Node000031"><a xlink:title=" ">
<path fill="none" stroke="#63b8ff" d="M565.59,-292.19C555.41,-291.12 544.68,-289.99 534.08,-288.88"/>
<polygon fill="#63b8ff" stroke="#63b8ff" points="565.27,-295.68 575.58,-293.25 566,-288.72 565.27,-295.68"/>
</a>
</g>
</g>
<!-- Node33 -->
<g id="Node000033" class="node">
<title>Node33</title>
<g id="a_Node000033"><a xlink:href="classOCrab.html#a90f306e93984090bead14740aad50830" target="_top" xlink:title=" ">
<polygon fill="white" stroke="#666666" points="495,-327 412,-327 412,-308 495,-308 495,-327"/>
<text text-anchor="middle" x="453.5" y="-315" font-family="Helvetica,sans-Serif" font-size="10.00">OCrab::OCrab</text>
</a>
</g>
</g>
<!-- Node1&#45;&gt;Node33 -->
<g id="edge30_Node000001_Node000033" class="edge">
<title>Node1&#45;&gt;Node33</title>
<g id="a_edge30_Node000001_Node000033"><a xlink:title=" ">
<path fill="none" stroke="#63b8ff" d="M565.47,-305.17C542.25,-307.75 516.26,-310.64 495.27,-312.97"/>
<polygon fill="#63b8ff" stroke="#63b8ff" points="566.03,-308.63 575.58,-304.05 565.25,-301.67 566.03,-308.63"/>
</a>
</g>
</g>
<!-- Node35 -->
<g id="Node000035" class="node">
<title>Node35</title>
<g id="a_Node000035"><a xlink:href="classOFlagpole.html#a07387af8111eb420a1b439e2bc31ab00" target="_top" xlink:title=" ">
<polygon fill="white" stroke="#666666" points="514.5,-93 392.5,-93 392.5,-74 514.5,-74 514.5,-93"/>
<text text-anchor="middle" x="453.5" y="-81" font-family="Helvetica,sans-Serif" font-size="10.00">OFlagpole::OFlagpole</text>
</a>
</g>
</g>
<!-- Node1&#45;&gt;Node35 -->
<g id="edge33_Node000001_Node000035" class="edge">
<title>Node1&#45;&gt;Node35</title>
<g id="a_edge33_Node000001_Node000035"><a xlink:title=" ">
<path fill="none" stroke="#63b8ff" d="M622.88,-278.93C616.47,-239.17 596.19,-148.79 540,-102.5 532.72,-96.51 523.96,-92.3 514.85,-89.37"/>
<polygon fill="#63b8ff" stroke="#63b8ff" points="619.43,-279.56 624.36,-288.93 626.35,-278.53 619.43,-279.56"/>
</a>
</g>
</g>
<!-- Node37 -->
<g id="Node000037" class="node">
<title>Node37</title>
<g id="a_Node000037"><a xlink:href="classOGrandPrixBalloons.html#ab5fe216ecd9f44c875e06a71bf79cb90" target="_top" xlink:title=" ">
<polygon fill="white" stroke="#666666" points="513.5,-252.5 393.5,-252.5 393.5,-222.5 513.5,-222.5 513.5,-252.5"/>
<text text-anchor="start" x="401.5" y="-240.5" font-family="Helvetica,sans-Serif" font-size="10.00">OGrandPrixBalloons</text>
<text text-anchor="middle" x="453.5" y="-229.5" font-family="Helvetica,sans-Serif" font-size="10.00">::OGrandPrixBalloons</text>
</a>
</g>
</g>
<!-- Node1&#45;&gt;Node37 -->
<g id="edge35_Node000001_Node000037" class="edge">
<title>Node1&#45;&gt;Node37</title>
<g id="a_edge35_Node000001_Node000037"><a xlink:title=" ">
<path fill="none" stroke="#63b8ff" d="M595.19,-284.74C578.99,-277.64 558.6,-269.11 540,-262.5 530.24,-259.03 519.73,-255.66 509.53,-252.58"/>
<polygon fill="#63b8ff" stroke="#63b8ff" points="594.12,-288.1 604.68,-288.95 596.95,-281.7 594.12,-288.1"/>
</a>
</g>
</g>
<!-- Node39 -->
<g id="Node000039" class="node">
<title>Node39</title>
<g id="a_Node000039"><a xlink:href="classOHedgehog.html#a3ec91d82e5989b92bbd07540d1ff7e46" target="_top" xlink:title=" ">
<polygon fill="white" stroke="#666666" points="522,-56 385,-56 385,-37 522,-37 522,-56"/>
<text text-anchor="middle" x="453.5" y="-44" font-family="Helvetica,sans-Serif" font-size="10.00">OHedgehog::OHedgehog</text>
</a>
</g>
</g>
<!-- Node1&#45;&gt;Node39 -->
<g id="edge41_Node000001_Node000039" class="edge">
<title>Node1&#45;&gt;Node39</title>
<g id="a_edge41_Node000001_Node000039"><a xlink:title=" ">
<path fill="none" stroke="#63b8ff" d="M624.38,-278.73C620.71,-233.61 605.17,-122.53 540,-65.5 534.74,-60.89 528.6,-57.33 522.08,-54.58"/>
<polygon fill="#63b8ff" stroke="#63b8ff" points="620.89,-278.98 625.08,-288.71 627.87,-278.49 620.89,-278.98"/>
</a>
</g>
</g>
<!-- Node41 -->
<g id="Node000041" class="node">
<title>Node41</title>
<g id="a_Node000041"><a xlink:href="classOHotAirBalloon.html#a4e18d733a47668186c68872b87f31a1c" target="_top" xlink:title=" ">
<polygon fill="white" stroke="#666666" points="540,-204 367,-204 367,-185 540,-185 540,-204"/>
<text text-anchor="middle" x="453.5" y="-192" font-family="Helvetica,sans-Serif" font-size="10.00">OHotAirBalloon::OHotAirBalloon</text>
</a>
</g>
</g>
<!-- Node1&#45;&gt;Node41 -->
<g id="edge43_Node000001_Node000041" class="edge">
<title>Node1&#45;&gt;Node41</title>
<g id="a_edge43_Node000001_Node000041"><a xlink:title=" ">
<path fill="none" stroke="#63b8ff" d="M612.67,-280.73C597.55,-261.15 570.57,-230.23 540,-213.5 532.93,-209.63 525.12,-206.55 517.19,-204.1"/>
<polygon fill="#63b8ff" stroke="#63b8ff" points="609.95,-282.94 618.75,-288.84 615.55,-278.74 609.95,-282.94"/>
</a>
</g>
</g>
<!-- Node43 -->
<g id="Node000043" class="node">
<title>Node43</title>
<g id="a_Node000043"><a xlink:href="classOPenguin.html#aa389f88b663b6e1b994d9d9829554168" target="_top" xlink:title=" ">
<polygon fill="white" stroke="#666666" points="511.5,-19 395.5,-19 395.5,0 511.5,0 511.5,-19"/>
<text text-anchor="middle" x="453.5" y="-7" font-family="Helvetica,sans-Serif" font-size="10.00">OPenguin::OPenguin</text>
</a>
</g>
</g>
<!-- Node1&#45;&gt;Node43 -->
<g id="edge46_Node000001_Node000043" class="edge">
<title>Node1&#45;&gt;Node43</title>
<g id="a_edge46_Node000001_Node000043"><a xlink:title=" ">
<path fill="none" stroke="#63b8ff" d="M625.59,-278.63C624.69,-228.38 614.95,-95.43 540,-27.5 532.13,-20.37 522.17,-15.79 511.86,-12.91"/>
<polygon fill="#63b8ff" stroke="#63b8ff" points="622.1,-278.82 625.67,-288.79 629.1,-278.77 622.1,-278.82"/>
</a>
</g>
</g>
<!-- Node45 -->
<g id="Node000045" class="node">
<title>Node45</title>
<g id="a_Node000045"><a xlink:href="classOPodium.html#a21120da8562fe08e32fe3cce9a7f80c9" target="_top" xlink:title=" ">
<polygon fill="white" stroke="#666666" points="509,-130 398,-130 398,-111 509,-111 509,-130"/>
<text text-anchor="middle" x="453.5" y="-118" font-family="Helvetica,sans-Serif" font-size="10.00">OPodium::OPodium</text>
</a>
</g>
</g>
<!-- Node1&#45;&gt;Node45 -->
<g id="edge48_Node000001_Node000045" class="edge">
<title>Node1&#45;&gt;Node45</title>
<g id="a_edge48_Node000001_Node000045"><a xlink:title=" ">
<path fill="none" stroke="#63b8ff" d="M620.65,-278.7C611.24,-244.64 587.15,-175.19 540,-139.5 531.03,-132.71 520.1,-128.25 509.09,-125.36"/>
<polygon fill="#63b8ff" stroke="#63b8ff" points="617.38,-280 623.29,-288.79 624.15,-278.23 617.38,-280"/>
</a>
</g>
</g>
<!-- Node47 -->
<g id="Node000047" class="node">
<title>Node47</title>
<g id="a_Node000047"><a xlink:href="classOSeagull.html#a39fdc9ecc362a16afa1572ca21f001f0" target="_top" xlink:title=" ">
<polygon fill="white" stroke="#666666" points="508.5,-364 398.5,-364 398.5,-345 508.5,-345 508.5,-364"/>
<text text-anchor="middle" x="453.5" y="-352" font-family="Helvetica,sans-Serif" font-size="10.00">OSeagull::OSeagull</text>
</a>
</g>
</g>
<!-- Node1&#45;&gt;Node47 -->
<g id="edge51_Node000001_Node000047" class="edge">
<title>Node1&#45;&gt;Node47</title>
<g id="a_edge51_Node000001_Node000047"><a xlink:title=" ">
<path fill="none" stroke="#63b8ff" d="M597.87,-312.56C581.4,-320.49 559.9,-330.06 540,-336.5 529.9,-339.77 518.93,-342.59 508.32,-344.98"/>
<polygon fill="#63b8ff" stroke="#63b8ff" points="599.49,-315.67 606.93,-308.12 596.41,-309.38 599.49,-315.67"/>
</a>
</g>
</g>
<!-- Node49 -->
<g id="Node000049" class="node">
<title>Node49</title>
<g id="a_Node000049"><a xlink:href="classOSnowman.html#af37eeb06ff0bb92595794103983548cf" target="_top" xlink:title=" ">
<polygon fill="white" stroke="#666666" points="520.5,-512 386.5,-512 386.5,-493 520.5,-493 520.5,-512"/>
<text text-anchor="middle" x="453.5" y="-500" font-family="Helvetica,sans-Serif" font-size="10.00">OSnowman::OSnowman</text>
</a>
</g>
</g>
<!-- Node1&#45;&gt;Node49 -->
<g id="edge54_Node000001_Node000049" class="edge">
<title>Node1&#45;&gt;Node49</title>
<g id="a_edge54_Node000001_Node000049"><a xlink:title=" ">
<path fill="none" stroke="#63b8ff" d="M622.45,-317.92C615.37,-356.17 594.1,-441.31 540,-484.5 534.31,-489.04 527.75,-492.51 520.84,-495.16"/>
<polygon fill="#63b8ff" stroke="#63b8ff" points="625.9,-318.49 624.15,-308.05 619,-317.31 625.9,-318.49"/>
</a>
</g>
</g>
<!-- Node51 -->
<g id="Node000051" class="node">
<title>Node51</title>
<g id="a_Node000051"><a xlink:href="classOThwomp.html#a722b7624ebb048181a1d636d94355df8" target="_top" xlink:title=" ">
<polygon fill="white" stroke="#666666" points="514.5,-549 392.5,-549 392.5,-530 514.5,-530 514.5,-549"/>
<text text-anchor="middle" x="453.5" y="-537" font-family="Helvetica,sans-Serif" font-size="10.00">OThwomp::OThwomp</text>
</a>
</g>
</g>
<!-- Node1&#45;&gt;Node51 -->
<g id="edge57_Node000001_Node000051" class="edge">
<title>Node1&#45;&gt;Node51</title>
<g id="a_edge57_Node000001_Node000051"><a xlink:title=" ">
<path fill="none" stroke="#63b8ff" d="M624.05,-318.37C619.73,-362.25 602.98,-467.79 540,-521.5 532.73,-527.7 523.86,-531.94 514.62,-534.81"/>
<polygon fill="#63b8ff" stroke="#63b8ff" points="627.54,-318.65 624.92,-308.38 620.56,-318.04 627.54,-318.65"/>
</a>
</g>
</g>
<!-- Node53 -->
<g id="Node000053" class="node">
<title>Node53</title>
<g id="a_Node000053"><a xlink:href="classOTrashBin.html#a256f9cbed9757b7e12331eab6b70d6cf" target="_top" xlink:title=" ">
<polygon fill="white" stroke="#666666" points="513.5,-475 393.5,-475 393.5,-456 513.5,-456 513.5,-475"/>
<text text-anchor="middle" x="453.5" y="-463" font-family="Helvetica,sans-Serif" font-size="10.00">OTrashBin::OTrashBin</text>
</a>
</g>
</g>
<!-- Node1&#45;&gt;Node53 -->
<g id="edge60_Node000001_Node000053" class="edge">
<title>Node1&#45;&gt;Node53</title>
<g id="a_edge60_Node000001_Node000053"><a xlink:title=" ">
<path fill="none" stroke="#63b8ff" d="M620.04,-318.01C609.93,-350.35 585.1,-414.71 540,-447.5 532.27,-453.12 523.17,-457.06 513.83,-459.82"/>
<polygon fill="#63b8ff" stroke="#63b8ff" points="623.52,-318.6 623.01,-308.02 616.81,-316.6 623.52,-318.6"/>
</a>
</g>
</g>
<!-- Node55 -->
<g id="Node000055" class="node">
<title>Node55</title>
<g id="a_Node000055"><a xlink:href="classOTrophy.html#a249debe1a4044424476f3dd3fbb93b4e" target="_top" xlink:title=" ">
<polygon fill="white" stroke="#666666" points="504,-167 403,-167 403,-148 504,-148 504,-167"/>
<text text-anchor="middle" x="453.5" y="-155" font-family="Helvetica,sans-Serif" font-size="10.00">OTrophy::OTrophy</text>
</a>
</g>
</g>
<!-- Node1&#45;&gt;Node55 -->
<g id="edge63_Node000001_Node000055" class="edge">
<title>Node1&#45;&gt;Node55</title>
<g id="a_edge63_Node000001_Node000055"><a xlink:title=" ">
<path fill="none" stroke="#63b8ff" d="M617.6,-279.47C605.25,-252.18 578.71,-202.37 540,-176.5 529.38,-169.4 516.52,-164.92 504.04,-162.09"/>
<polygon fill="#63b8ff" stroke="#63b8ff" points="614.43,-280.96 621.64,-288.73 620.85,-278.16 614.43,-280.96"/>
</a>
</g>
</g>
<!-- Node3 -->
<g id="Node000003" class="node">
<title>Node3</title>
<g id="a_Node000003"><a xlink:href="classOBat.html#a0b4df88157635514995d4d44f7ffcdc6" target="_top" xlink:title=" ">
<polygon fill="white" stroke="#666666" points="305.5,-401 226.5,-401 226.5,-382 305.5,-382 305.5,-401"/>
<text text-anchor="middle" x="266" y="-389" font-family="Helvetica,sans-Serif" font-size="10.00">OBat::Spawn</text>
</a>
</g>
</g>
<!-- Node2&#45;&gt;Node3 -->
<g id="edge2_Node000002_Node000003" class="edge">
<title>Node2&#45;&gt;Node3</title>
<g id="a_edge2_Node000002_Node000003"><a xlink:title=" ">
<path fill="none" stroke="#63b8ff" d="M407.45,-391.5C376.28,-391.5 335.24,-391.5 305.58,-391.5"/>
<polygon fill="#63b8ff" stroke="#63b8ff" points="407.61,-395 417.61,-391.5 407.61,-388 407.61,-395"/>
</a>
</g>
</g>
<!-- Node4 -->
<g id="Node000004" class="node">
<title>Node4</title>
<g id="a_Node000004"><a xlink:href="classBansheeBoardwalk.html#ac3c915c5a03066d4221e2007e8315988" target="_top" xlink:title=" ">
<polygon fill="white" stroke="#666666" points="165,-438 0,-438 0,-419 165,-419 165,-438"/>
<text text-anchor="middle" x="82.5" y="-426" font-family="Helvetica,sans-Serif" font-size="10.00">BansheeBoardwalk::BeginPlay</text>
</a>
</g>
</g>
<!-- Node3&#45;&gt;Node4 -->
<g id="edge3_Node000003_Node000004" class="edge">
<title>Node3&#45;&gt;Node4</title>
<g id="a_edge3_Node000003_Node000004"><a xlink:title=" ">
<path fill="none" stroke="#63b8ff" d="M216.19,-401.45C189.56,-406.88 156.75,-413.57 130.42,-418.93"/>
<polygon fill="#63b8ff" stroke="#63b8ff" points="216.96,-404.86 226.06,-399.44 215.57,-398.01 216.96,-404.86"/>
</a>
</g>
</g>
<!-- Node6 -->
<g id="Node000006" class="node">
<title>Node6</title>
<g id="a_Node000006"><a xlink:href="classOBombKart.html#a9fa11c43dd1885221b160bd688eceff0" target="_top" xlink:title=" ">
<polygon fill="#fff0f0" stroke="red" points="321.5,-623 210.5,-623 210.5,-604 321.5,-604 321.5,-623"/>
<text text-anchor="middle" x="266" y="-611" font-family="Helvetica,sans-Serif" font-size="10.00">OBombKart::Spawn</text>
</a>
</g>
</g>
<!-- Node5&#45;&gt;Node6 -->
<g id="edge5_Node000005_Node000006" class="edge">
<title>Node5&#45;&gt;Node6</title>
<g id="a_edge5_Node000005_Node000006"><a xlink:title=" ">
<path fill="none" stroke="#63b8ff" d="M394.76,-588.02C369.13,-593.13 339.31,-599.08 314.93,-603.94"/>
<polygon fill="#63b8ff" stroke="#63b8ff" points="395.61,-591.42 404.73,-586.03 394.24,-584.55 395.61,-591.42"/>
</a>
</g>
</g>
<!-- Node28 -->
<g id="Node000028" class="node">
<title>Node28</title>
<g id="a_Node000028"><a xlink:href="classOBombKart.html#a8ea897e27339a081e5a98c2813b64a8b" target="_top" xlink:title=" ">
<polygon fill="white" stroke="#666666" points="321.5,-586 210.5,-586 210.5,-567 321.5,-567 321.5,-586"/>
<text text-anchor="middle" x="266" y="-574" font-family="Helvetica,sans-Serif" font-size="10.00">OBombKart::Spawn</text>
</a>
</g>
</g>
<!-- Node5&#45;&gt;Node28 -->
<g id="edge22_Node000005_Node000028" class="edge">
<title>Node5&#45;&gt;Node28</title>
<g id="a_edge22_Node000005_Node000028"><a xlink:title=" ">
<path fill="none" stroke="#63b8ff" d="M375.78,-576.5C357.58,-576.5 338.52,-576.5 321.54,-576.5"/>
<polygon fill="#63b8ff" stroke="#63b8ff" points="375.79,-580 385.79,-576.5 375.79,-573 375.79,-580"/>
</a>
</g>
</g>
<!-- Node6&#45;&gt;Node4 -->
<g id="edge6_Node000006_Node000004" class="edge">
<title>Node6&#45;&gt;Node4</title>
<g id="a_edge6_Node000006_Node000004"><a xlink:title=" ">
<path fill="none" stroke="#63b8ff" d="M204.37,-598.54C203.2,-597.58 202.07,-596.57 201,-595.5 158.69,-553.02 203.96,-511.07 165,-465.5 153.79,-452.39 136.98,-443.69 121.53,-438.05"/>
<polygon fill="#63b8ff" stroke="#63b8ff" points="202.48,-601.48 212.77,-604 206.3,-595.61 202.48,-601.48"/>
</a>
</g>
</g>
<!-- Node7 -->
<g id="Node000007" class="node">
<title>Node7</title>
<g id="a_Node000007"><a xlink:href="classBigDonut.html#af07674b3f0de39da096eb1b107f9df0d" target="_top" xlink:title=" ">
<polygon fill="white" stroke="#666666" points="140.5,-826 24.5,-826 24.5,-807 140.5,-807 140.5,-826"/>
<text text-anchor="middle" x="82.5" y="-814" font-family="Helvetica,sans-Serif" font-size="10.00">BigDonut::BeginPlay</text>
</a>
</g>
</g>
<!-- Node6&#45;&gt;Node7 -->
<g id="edge7_Node000006_Node000007" class="edge">
<title>Node6&#45;&gt;Node7</title>
<g id="a_edge7_Node000006_Node000007"><a xlink:title=" ">
<path fill="none" stroke="#63b8ff" d="M260.32,-632.84C250.04,-670.92 221.77,-755.67 165,-798.5 157.83,-803.91 149.35,-807.76 140.62,-810.48"/>
<polygon fill="#63b8ff" stroke="#63b8ff" points="263.74,-633.56 262.84,-623.01 256.97,-631.82 263.74,-633.56"/>
</a>
</g>
</g>
<!-- Node8 -->
<g id="Node000008" class="node">
<title>Node8</title>
<g id="a_Node000008"><a xlink:href="classBlockFort.html#aa950159c68ce91b2543b203cb117e894" target="_top" xlink:title=" ">
<polygon fill="white" stroke="#666666" points="141,-789 24,-789 24,-770 141,-770 141,-789"/>
<text text-anchor="middle" x="82.5" y="-777" font-family="Helvetica,sans-Serif" font-size="10.00">BlockFort::BeginPlay</text>
</a>
</g>
</g>
<!-- Node6&#45;&gt;Node8 -->
<g id="edge8_Node000006_Node000008" class="edge">
<title>Node6&#45;&gt;Node8</title>
<g id="a_edge8_Node000006_Node000008"><a xlink:title=" ">
<path fill="none" stroke="#63b8ff" d="M257.55,-632.92C244.17,-665.04 212.93,-728.92 165,-761.5 157.81,-766.39 149.51,-769.97 141.02,-772.6"/>
<polygon fill="#63b8ff" stroke="#63b8ff" points="260.92,-633.92 261.4,-623.33 254.42,-631.31 260.92,-633.92"/>
</a>
</g>
</g>
<!-- Node9 -->
<g id="Node000009" class="node">
<title>Node9</title>
<g id="a_Node000009"><a xlink:href="classBowsersCastle.html#ac69e2f19bec161754a90b77bb3cb49dd" target="_top" xlink:title=" ">
<polygon fill="white" stroke="#666666" points="154,-530 11,-530 11,-511 154,-511 154,-530"/>
<text text-anchor="middle" x="82.5" y="-518" font-family="Helvetica,sans-Serif" font-size="10.00">BowsersCastle::BeginPlay</text>
</a>
</g>
</g>
<!-- Node6&#45;&gt;Node9 -->
<g id="edge9_Node000006_Node000009" class="edge">
<title>Node6&#45;&gt;Node9</title>
<g id="a_edge9_Node000006_Node000009"><a xlink:title=" ">
<path fill="none" stroke="#63b8ff" d="M206.94,-599.37C204.87,-598.18 202.88,-596.89 201,-595.5 177.21,-577.91 189.18,-556.55 165,-539.5 159.54,-535.65 153.41,-532.57 147.03,-530.1"/>
<polygon fill="#63b8ff" stroke="#63b8ff" points="205.86,-602.73 216.38,-603.96 208.92,-596.44 205.86,-602.73"/>
</a>
</g>
</g>
<!-- Node10 -->
<g id="Node000010" class="node">
<title>Node10</title>
<g id="a_Node000010"><a xlink:href="classChocoMountain.html#a7f3b1f20205339a6c01a8adb40a27502" target="_top" xlink:title=" ">
<polygon fill="white" stroke="#666666" points="156,-752 9,-752 9,-733 156,-733 156,-752"/>
<text text-anchor="middle" x="82.5" y="-740" font-family="Helvetica,sans-Serif" font-size="10.00">ChocoMountain::BeginPlay</text>
</a>
</g>
</g>
<!-- Node6&#45;&gt;Node10 -->
<g id="edge10_Node000006_Node000010" class="edge">
<title>Node6&#45;&gt;Node10</title>
<g id="a_edge10_Node000006_Node000010"><a xlink:title=" ">
<path fill="none" stroke="#63b8ff" d="M253.98,-631.57C237.74,-656.56 204.95,-701.23 165,-724.5 159.12,-727.93 152.64,-730.7 146,-732.95"/>
<polygon fill="#63b8ff" stroke="#63b8ff" points="256.99,-633.36 259.37,-623.04 251.07,-629.62 256.99,-633.36"/>
</a>
</g>
</g>
<!-- Node11 -->
<g id="Node000011" class="node">
<title>Node11</title>
<g id="a_Node000011"><a xlink:href="classDKJungle.html#af1f20969288526ce721aa9a72e535422" target="_top" xlink:title=" ">
<polygon fill="white" stroke="#666666" points="140.5,-715 24.5,-715 24.5,-696 140.5,-696 140.5,-715"/>
<text text-anchor="middle" x="82.5" y="-703" font-family="Helvetica,sans-Serif" font-size="10.00">DKJungle::BeginPlay</text>
</a>
</g>
</g>
<!-- Node6&#45;&gt;Node11 -->
<g id="edge11_Node000006_Node000011" class="edge">
<title>Node6&#45;&gt;Node11</title>
<g id="a_edge11_Node000006_Node000011"><a xlink:title=" ">
<path fill="none" stroke="#63b8ff" d="M247.65,-629.96C228.78,-646.94 197.02,-672.92 165,-687.5 157.35,-690.98 148.98,-693.81 140.62,-696.1"/>
<polygon fill="#63b8ff" stroke="#63b8ff" points="250.14,-632.43 255.13,-623.08 245.4,-627.27 250.14,-632.43"/>
</a>
</g>
</g>
<!-- Node12 -->
<g id="Node000012" class="node">
<title>Node12</title>
<g id="a_Node000012"><a xlink:href="classDoubleDeck.html#a6249973995b9850ee976397d6fcd0134" target="_top" xlink:title=" ">
<polygon fill="white" stroke="#666666" points="148,-678 17,-678 17,-659 148,-659 148,-678"/>
<text text-anchor="middle" x="82.5" y="-666" font-family="Helvetica,sans-Serif" font-size="10.00">DoubleDeck::BeginPlay</text>
</a>
</g>
</g>
<!-- Node6&#45;&gt;Node12 -->
<g id="edge12_Node000006_Node000012" class="edge">
<title>Node6&#45;&gt;Node12</title>
<g id="a_edge12_Node000006_Node000012"><a xlink:title=" ">
<path fill="none" stroke="#63b8ff" d="M232.31,-626.88C212.96,-634.48 187.84,-643.79 165,-650.5 154.43,-653.61 142.96,-656.45 132.05,-658.92"/>
<polygon fill="#63b8ff" stroke="#63b8ff" points="233.87,-630.03 241.87,-623.09 231.28,-623.53 233.87,-630.03"/>
</a>
</g>
</g>
<!-- Node13 -->
<g id="Node000013" class="node">
<title>Node13</title>
<g id="a_Node000013"><a xlink:href="classFrappeSnowland.html#ad24c95ef68d598ac712ce0bfa1429f0a" target="_top" xlink:title=" ">
<polygon fill="white" stroke="#666666" points="158.5,-493 6.5,-493 6.5,-474 158.5,-474 158.5,-493"/>
<text text-anchor="middle" x="82.5" y="-481" font-family="Helvetica,sans-Serif" font-size="10.00">FrappeSnowland::BeginPlay</text>
</a>
</g>
</g>
<!-- Node6&#45;&gt;Node13 -->
<g id="edge13_Node000006_Node000013" class="edge">
<title>Node6&#45;&gt;Node13</title>
<g id="a_edge13_Node000006_Node000013"><a xlink:title=" ">
<path fill="none" stroke="#63b8ff" d="M205.07,-598.8C203.65,-597.77 202.29,-596.67 201,-595.5 168.2,-565.69 198.46,-531.57 165,-502.5 160.61,-498.69 155.61,-495.6 150.28,-493.11"/>
<polygon fill="#63b8ff" stroke="#63b8ff" points="203.37,-601.86 213.75,-603.94 206.93,-595.83 203.37,-601.86"/>
</a>
</g>
</g>
<!-- Node14 -->
<g id="Node000014" class="node">
<title>Node14</title>
<g id="a_Node000014"><a xlink:href="classKalimariDesert.html#aa3f0f4155f0d9a6ecfb4ca824603b81f" target="_top" xlink:title=" ">
<polygon fill="white" stroke="#666666" points="155,-641 10,-641 10,-622 155,-622 155,-641"/>
<text text-anchor="middle" x="82.5" y="-629" font-family="Helvetica,sans-Serif" font-size="10.00">KalimariDesert::BeginPlay</text>
</a>
</g>
</g>
<!-- Node6&#45;&gt;Node14 -->
<g id="edge14_Node000006_Node000014" class="edge">
<title>Node6&#45;&gt;Node14</title>
<g id="a_edge14_Node000006_Node000014"><a xlink:title=" ">
<path fill="none" stroke="#63b8ff" d="M199.69,-619.98C185.2,-621.41 169.77,-622.94 155.04,-624.41"/>
<polygon fill="#63b8ff" stroke="#63b8ff" points="200.45,-623.42 210.05,-618.95 199.75,-616.45 200.45,-623.42"/>
</a>
</g>
</g>
<!-- Node15 -->
<g id="Node000015" class="node">
<title>Node15</title>
<g id="a_Node000015"><a xlink:href="classKoopaTroopaBeach.html#a9080e865d29d960d60c9d86d9370ea1a" target="_top" xlink:title=" ">
<polygon fill="white" stroke="#666666" points="164.5,-364 0.5,-364 0.5,-345 164.5,-345 164.5,-364"/>
<text text-anchor="middle" x="82.5" y="-352" font-family="Helvetica,sans-Serif" font-size="10.00">KoopaTroopaBeach::BeginPlay</text>
</a>
</g>
</g>
<!-- Node6&#45;&gt;Node15 -->
<g id="edge15_Node000006_Node000015" class="edge">
<title>Node6&#45;&gt;Node15</title>
<g id="a_edge15_Node000006_Node000015"><a xlink:title=" ">
<path fill="none" stroke="#63b8ff" d="M203.45,-597.93C202.6,-597.16 201.78,-596.35 201,-595.5 144.25,-533.89 210.94,-480.54 165,-410.5 150.78,-388.82 124.98,-373.23 106.21,-364.09"/>
<polygon fill="#63b8ff" stroke="#63b8ff" points="201.7,-600.98 211.88,-603.93 205.76,-595.28 201.7,-600.98"/>
</a>
</g>
</g>
<!-- Node16 -->
<g id="Node000016" class="node">
<title>Node16</title>
<g id="a_Node000016"><a xlink:href="classLuigiRaceway.html#a00b59b5b947f751c540ecfe6483b7703" target="_top" xlink:title=" ">
<polygon fill="white" stroke="#666666" points="151.5,-248 13.5,-248 13.5,-229 151.5,-229 151.5,-248"/>
<text text-anchor="middle" x="82.5" y="-236" font-family="Helvetica,sans-Serif" font-size="10.00">LuigiRaceway::BeginPlay</text>
</a>
</g>
</g>
<!-- Node6&#45;&gt;Node16 -->
<g id="edge16_Node000006_Node000016" class="edge">
<title>Node6&#45;&gt;Node16</title>
<g id="a_edge16_Node000006_Node000016"><a xlink:title=" ">
<path fill="none" stroke="#63b8ff" d="M202.94,-597.61C202.27,-596.94 201.62,-596.23 201,-595.5 103.79,-480.44 264.13,-371.91 165,-258.5 161.26,-254.22 156.77,-250.78 151.84,-248.03"/>
<polygon fill="#63b8ff" stroke="#63b8ff" points="200.93,-600.48 210.97,-603.86 205.22,-594.96 200.93,-600.48"/>
</a>
</g>
</g>
<!-- Node17 -->
<g id="Node000017" class="node">
<title>Node17</title>
<g id="a_Node000017"><a xlink:href="classMarioRaceway.html#add93404089a3200bf3345cccbaaaff2d" target="_top" xlink:title=" ">
<polygon fill="white" stroke="#666666" points="154,-286 11,-286 11,-267 154,-267 154,-286"/>
<text text-anchor="middle" x="82.5" y="-274" font-family="Helvetica,sans-Serif" font-size="10.00">MarioRaceway::BeginPlay</text>
</a>
</g>
</g>
<!-- Node6&#45;&gt;Node17 -->
<g id="edge17_Node000006_Node000017" class="edge">
<title>Node6&#45;&gt;Node17</title>
<g id="a_edge17_Node000006_Node000017"><a xlink:title=" ">
<path fill="none" stroke="#63b8ff" d="M203.3,-597.95C202.5,-597.17 201.73,-596.35 201,-595.5 114.47,-494.54 252.06,-399 165,-298.5 160.49,-293.29 154.89,-289.26 148.75,-286.14"/>
<polygon fill="#63b8ff" stroke="#63b8ff" points="201.23,-600.77 211.32,-603.99 205.44,-595.18 201.23,-600.77"/>
</a>
</g>
</g>
<!-- Node18 -->
<g id="Node000018" class="node">
<title>Node18</title>
<g id="a_Node000018"><a xlink:href="classMooMooFarm.html#a7b794a6f0f3e7955abb3ec2e77c7b30d" target="_top" xlink:title=" ">
<polygon fill="white" stroke="#666666" points="151,-604 14,-604 14,-585 151,-585 151,-604"/>
<text text-anchor="middle" x="82.5" y="-592" font-family="Helvetica,sans-Serif" font-size="10.00">MooMooFarm::BeginPlay</text>
</a>
</g>
</g>
<!-- Node6&#45;&gt;Node18 -->
<g id="edge18_Node000006_Node000018" class="edge">
<title>Node6&#45;&gt;Node18</title>
<g id="a_edge18_Node000006_Node000018"><a xlink:title=" ">
<path fill="none" stroke="#63b8ff" d="M199.83,-606.68C184,-605.02 167.03,-603.24 151.09,-601.58"/>
<polygon fill="#63b8ff" stroke="#63b8ff" points="199.74,-610.19 210.05,-607.75 200.47,-603.23 199.74,-610.19"/>
</a>
</g>
</g>
<!-- Node19 -->
<g id="Node000019" class="node">
<title>Node19</title>
<g id="a_Node000019"><a xlink:href="classPodiumCeremony.html#a65cdc7a796ddbace20d38e2a6af2335c" target="_top" xlink:title=" ">
<polygon fill="white" stroke="#666666" points="161.5,-211 3.5,-211 3.5,-192 161.5,-192 161.5,-211"/>
<text text-anchor="middle" x="82.5" y="-199" font-family="Helvetica,sans-Serif" font-size="10.00">PodiumCeremony::BeginPlay</text>
</a>
</g>
</g>
<!-- Node6&#45;&gt;Node19 -->
<g id="edge19_Node000006_Node000019" class="edge">
<title>Node6&#45;&gt;Node19</title>
<g id="a_edge19_Node000006_Node000019"><a xlink:title=" ">
<path fill="none" stroke="#63b8ff" d="M202.93,-597.62C202.26,-596.94 201.62,-596.24 201,-595.5 147.31,-531.26 220.12,-283.51 165,-220.5 161.75,-216.78 157.92,-213.72 153.73,-211.2"/>
<polygon fill="#63b8ff" stroke="#63b8ff" points="200.9,-600.48 210.93,-603.89 205.22,-594.97 200.9,-600.48"/>
</a>
</g>
</g>
<!-- Node20 -->
<g id="Node000020" class="node">
<title>Node20</title>
<g id="a_Node000020"><a xlink:href="classRainbowRoad.html#adbdfd88223a14b4db65eda47b316b15b" target="_top" xlink:title=" ">
<polygon fill="white" stroke="#666666" points="151.5,-567 13.5,-567 13.5,-548 151.5,-548 151.5,-567"/>
<text text-anchor="middle" x="82.5" y="-555" font-family="Helvetica,sans-Serif" font-size="10.00">RainbowRoad::BeginPlay</text>
</a>
</g>
</g>
<!-- Node6&#45;&gt;Node20 -->
<g id="edge20_Node000006_Node000020" class="edge">
<title>Node6&#45;&gt;Node20</title>
<g id="a_edge20_Node000006_Node000020"><a xlink:title=" ">
<path fill="none" stroke="#63b8ff" d="M216.1,-600.91C210.95,-599.24 205.83,-597.43 201,-595.5 184.2,-588.79 181.95,-582.83 165,-576.5 155.06,-572.79 144.17,-569.65 133.67,-567.06"/>
<polygon fill="#63b8ff" stroke="#63b8ff" points="215.39,-604.35 225.98,-603.95 217.45,-597.66 215.39,-604.35"/>
</a>
</g>
</g>
<!-- Node21 -->
<g id="Node000021" class="node">
<title>Node21</title>
<g id="a_Node000021"><a xlink:href="classRoyalRaceway.html#a417f6ebceb092a23aebc5448e8f1241e" target="_top" xlink:title=" ">
<polygon fill="white" stroke="#666666" points="154,-326 11,-326 11,-307 154,-307 154,-326"/>
<text text-anchor="middle" x="82.5" y="-314" font-family="Helvetica,sans-Serif" font-size="10.00">RoyalRaceway::BeginPlay</text>
</a>
</g>
</g>
<!-- Node6&#45;&gt;Node21 -->
<g id="edge21_Node000006_Node000021" class="edge">
<title>Node6&#45;&gt;Node21</title>
<g id="a_edge21_Node000006_Node000021"><a xlink:title=" ">
<path fill="none" stroke="#63b8ff" d="M203.33,-597.93C202.52,-597.16 201.74,-596.35 201,-595.5 124.6,-507.93 242.86,-422.78 165,-336.5 161.19,-332.28 156.66,-328.88 151.7,-326.16"/>
<polygon fill="#63b8ff" stroke="#63b8ff" points="201.27,-600.77 211.38,-603.94 205.46,-595.15 201.27,-600.77"/>
</a>
</g>
</g>
<!-- Node30 -->
<g id="Node000030" class="node">
<title>Node30</title>
<g id="a_Node000030"><a xlink:href="classOBoos.html#a34df91f7b0d5547de03511ddecfaabbc" target="_top" xlink:title=" ">
<polygon fill="white" stroke="#666666" points="309,-438 223,-438 223,-419 309,-419 309,-438"/>
<text text-anchor="middle" x="266" y="-426" font-family="Helvetica,sans-Serif" font-size="10.00">OBoos::Spawn</text>
</a>
</g>
</g>
<!-- Node29&#45;&gt;Node30 -->
<g id="edge24_Node000029_Node000030" class="edge">
<title>Node29&#45;&gt;Node30</title>
<g id="a_edge24_Node000029_Node000030"><a xlink:title=" ">
<path fill="none" stroke="#63b8ff" d="M400.14,-428.5C371.39,-428.5 336.22,-428.5 309.25,-428.5"/>
<polygon fill="#63b8ff" stroke="#63b8ff" points="400.41,-432 410.41,-428.5 400.41,-425 400.41,-432"/>
</a>
</g>
</g>
<!-- Node30&#45;&gt;Node4 -->
<g id="edge25_Node000030_Node000004" class="edge">
<title>Node30&#45;&gt;Node4</title>
<g id="a_edge25_Node000030_Node000004"><a xlink:title=" ">
<path fill="none" stroke="#63b8ff" d="M212.49,-428.5C197.75,-428.5 181.37,-428.5 165.36,-428.5"/>
<polygon fill="#63b8ff" stroke="#63b8ff" points="212.9,-432 222.9,-428.5 212.9,-425 212.9,-432"/>
</a>
</g>
</g>
<!-- Node32 -->
<g id="Node000032" class="node">
<title>Node32</title>
<g id="a_Node000032"><a xlink:href="classOCheepCheep.html#a20d7916ffb7b00ae2feaadd8f11284e1" target="_top" xlink:title=" ">
<polygon fill="white" stroke="#666666" points="328,-290 204,-290 204,-271 328,-271 328,-290"/>
<text text-anchor="middle" x="266" y="-278" font-family="Helvetica,sans-Serif" font-size="10.00">OCheepCheep::Spawn</text>
</a>
</g>
</g>
<!-- Node31&#45;&gt;Node32 -->
<g id="edge27_Node000031_Node000032" class="edge">
<title>Node31&#45;&gt;Node32</title>
<g id="a_edge27_Node000031_Node000032"><a xlink:title=" ">
<path fill="none" stroke="#63b8ff" d="M362.56,-280.5C350.92,-280.5 339.21,-280.5 328.19,-280.5"/>
<polygon fill="#63b8ff" stroke="#63b8ff" points="362.75,-284 372.75,-280.5 362.75,-277 362.75,-284"/>
</a>
</g>
</g>
<!-- Node32&#45;&gt;Node4 -->
<g id="edge28_Node000032_Node000004" class="edge">
<title>Node32&#45;&gt;Node4</title>
<g id="a_edge28_Node000032_Node000004"><a xlink:title=" ">
<path fill="none" stroke="#63b8ff" d="M207.44,-294.83C205.17,-296.24 203.01,-297.79 201,-299.5 173.1,-323.15 188.98,-345.88 165,-373.5 147.65,-393.48 121.44,-409.43 103.45,-418.9"/>
<polygon fill="#63b8ff" stroke="#63b8ff" points="209.36,-297.77 216.61,-290.04 206.12,-291.57 209.36,-297.77"/>
</a>
</g>
</g>
<!-- Node32&#45;&gt;Node19 -->
<g id="edge29_Node000032_Node000019" class="edge">
<title>Node32&#45;&gt;Node19</title>
<g id="a_edge29_Node000032_Node000019"><a xlink:title=" ">
<path fill="none" stroke="#63b8ff" d="M211.54,-267.2C207.87,-265.51 204.31,-263.62 201,-261.5 180.58,-248.43 185.8,-232.96 165,-220.5 158.52,-216.62 151.31,-213.53 143.93,-211.07"/>
<polygon fill="#63b8ff" stroke="#63b8ff" points="210.29,-270.46 220.87,-270.98 212.92,-263.98 210.29,-270.46"/>
</a>
</g>
</g>
<!-- Node34 -->
<g id="Node000034" class="node">
<title>Node34</title>
<g id="a_Node000034"><a xlink:href="classOCrab.html#abbd78931c857be62565a3a86baa857e5" target="_top" xlink:title=" ">
<polygon fill="white" stroke="#666666" points="308.5,-327 223.5,-327 223.5,-308 308.5,-308 308.5,-327"/>
<text text-anchor="middle" x="266" y="-315" font-family="Helvetica,sans-Serif" font-size="10.00">OCrab::Spawn</text>
</a>
</g>
</g>
<!-- Node33&#45;&gt;Node34 -->
<g id="edge31_Node000033_Node000034" class="edge">
<title>Node33&#45;&gt;Node34</title>
<g id="a_edge31_Node000033_Node000034"><a xlink:title=" ">
<path fill="none" stroke="#63b8ff" d="M401.76,-317.5C372.49,-317.5 336.14,-317.5 308.58,-317.5"/>
<polygon fill="#63b8ff" stroke="#63b8ff" points="401.79,-321 411.79,-317.5 401.79,-314 401.79,-321"/>
</a>
</g>
</g>
<!-- Node34&#45;&gt;Node15 -->
<g id="edge32_Node000034_Node000015" class="edge">
<title>Node34&#45;&gt;Node15</title>
<g id="a_edge32_Node000034_Node000015"><a xlink:title=" ">
<path fill="none" stroke="#63b8ff" d="M213.28,-328.04C187.18,-333.36 155.76,-339.77 130.38,-344.94"/>
<polygon fill="#63b8ff" stroke="#63b8ff" points="214.26,-331.42 223.36,-325.99 212.86,-324.56 214.26,-331.42"/>
</a>
</g>
</g>
<!-- Node36 -->
<g id="Node000036" class="node">
<title>Node36</title>
<g id="a_Node000036"><a xlink:href="classOFlagpole.html#a5b51193100897cdfe5c41007be45b419" target="_top" xlink:title=" ">
<polygon fill="#fff0f0" stroke="red" points="318,-93 214,-93 214,-74 318,-74 318,-93"/>
<text text-anchor="middle" x="266" y="-81" font-family="Helvetica,sans-Serif" font-size="10.00">OFlagpole::Spawn</text>
</a>
</g>
</g>
<!-- Node35&#45;&gt;Node36 -->
<g id="edge34_Node000035_Node000036" class="edge">
<title>Node35&#45;&gt;Node36</title>
<g id="a_edge34_Node000035_Node000036"><a xlink:title=" ">
<path fill="none" stroke="#63b8ff" d="M382.01,-83.5C360.8,-83.5 337.93,-83.5 318.22,-83.5"/>
<polygon fill="#63b8ff" stroke="#63b8ff" points="382.27,-87 392.27,-83.5 382.27,-80 382.27,-87"/>
</a>
</g>
</g>
<!-- Node38 -->
<g id="Node000038" class="node">
<title>Node38</title>
<g id="a_Node000038"><a xlink:href="classOGrandPrixBalloons.html#a6f6d4d32fc44d2b1f3c3b1c3099e2cb5" target="_top" xlink:title=" ">
<polygon fill="white" stroke="#666666" points="323,-252.5 209,-252.5 209,-222.5 323,-222.5 323,-252.5"/>
<text text-anchor="start" x="217" y="-240.5" font-family="Helvetica,sans-Serif" font-size="10.00">OGrandPrixBalloons</text>
<text text-anchor="middle" x="266" y="-229.5" font-family="Helvetica,sans-Serif" font-size="10.00">::Spawn</text>
</a>
</g>
</g>
<!-- Node37&#45;&gt;Node38 -->
<g id="edge36_Node000037_Node000038" class="edge">
<title>Node37&#45;&gt;Node38</title>
<g id="a_edge36_Node000037_Node000038"><a xlink:title=" ">
<path fill="none" stroke="#63b8ff" d="M383.11,-237.5C363.32,-237.5 342.01,-237.5 323.12,-237.5"/>
<polygon fill="#63b8ff" stroke="#63b8ff" points="383.3,-241 393.3,-237.5 383.3,-234 383.3,-241"/>
</a>
</g>
</g>
<!-- Node38&#45;&gt;Node16 -->
<g id="edge37_Node000038_Node000016" class="edge">
<title>Node38&#45;&gt;Node16</title>
<g id="a_edge37_Node000038_Node000016"><a xlink:title=" ">
<path fill="none" stroke="#63b8ff" d="M198.24,-237.87C183.07,-237.95 166.93,-238.04 151.7,-238.12"/>
<polygon fill="#63b8ff" stroke="#63b8ff" points="198.59,-241.37 208.57,-237.81 198.55,-234.37 198.59,-241.37"/>
</a>
</g>
</g>
<!-- Node38&#45;&gt;Node17 -->
<g id="edge38_Node000038_Node000017" class="edge">
<title>Node38&#45;&gt;Node17</title>
<g id="a_edge38_Node000038_Node000017"><a xlink:title=" ">
<path fill="none" stroke="#63b8ff" d="M198.63,-251.76C175.04,-256.83 149.08,-262.41 127.79,-266.98"/>
<polygon fill="#63b8ff" stroke="#63b8ff" points="199.53,-255.15 208.57,-249.63 198.06,-248.31 199.53,-255.15"/>
</a>
</g>
</g>
<!-- Node38&#45;&gt;Node19 -->
<g id="edge39_Node000038_Node000019" class="edge">
<title>Node38&#45;&gt;Node19</title>
<g id="a_edge39_Node000038_Node000019"><a xlink:title=" ">
<path fill="none" stroke="#63b8ff" d="M198.55,-224.32C176.39,-219.92 152.14,-215.11 131.64,-211.05"/>
<polygon fill="#63b8ff" stroke="#63b8ff" points="198.08,-227.79 208.57,-226.31 199.44,-220.93 198.08,-227.79"/>
</a>
</g>
</g>
<!-- Node38&#45;&gt;Node21 -->
<g id="edge40_Node000038_Node000021" class="edge">
<title>Node38&#45;&gt;Node21</title>
<g id="a_edge40_Node000038_Node000021"><a xlink:title=" ">
<path fill="none" stroke="#63b8ff" d="M210.97,-256.9C207.53,-258.66 204.17,-260.52 201,-262.5 182.58,-273.98 184.08,-285.15 165,-295.5 156.14,-300.31 146.13,-304.05 136.24,-306.95"/>
<polygon fill="#63b8ff" stroke="#63b8ff" points="212.7,-259.96 220.24,-252.52 209.71,-253.63 212.7,-259.96"/>
</a>
</g>
</g>
<!-- Node40 -->
<g id="Node000040" class="node">
<title>Node40</title>
<g id="a_Node000040"><a xlink:href="classOHedgehog.html#abeed1087bcc98b2a64dbc90611a8dd53" target="_top" xlink:title=" ">
<polygon fill="#fff0f0" stroke="red" points="322,-56 210,-56 210,-37 322,-37 322,-56"/>
<text text-anchor="middle" x="266" y="-44" font-family="Helvetica,sans-Serif" font-size="10.00">OHedgehog::Spawn</text>
</a>
</g>
</g>
<!-- Node39&#45;&gt;Node40 -->
<g id="edge42_Node000039_Node000040" class="edge">
<title>Node39&#45;&gt;Node40</title>
<g id="a_edge42_Node000039_Node000040"><a xlink:title=" ">
<path fill="none" stroke="#63b8ff" d="M374.48,-46.5C356.88,-46.5 338.55,-46.5 322.12,-46.5"/>
<polygon fill="#63b8ff" stroke="#63b8ff" points="374.74,-50 384.74,-46.5 374.74,-43 374.74,-50"/>
</a>
</g>
</g>
<!-- Node42 -->
<g id="Node000042" class="node">
<title>Node42</title>
<g id="a_Node000042"><a xlink:href="classOHotAirBalloon.html#a32b443047f84888dd4b4717e8f03920c" target="_top" xlink:title=" ">
<polygon fill="white" stroke="#666666" points="331,-204 201,-204 201,-185 331,-185 331,-204"/>
<text text-anchor="middle" x="266" y="-192" font-family="Helvetica,sans-Serif" font-size="10.00">OHotAirBalloon::Spawn</text>
</a>
</g>
</g>
<!-- Node41&#45;&gt;Node42 -->
<g id="edge44_Node000041_Node000042" class="edge">
<title>Node41&#45;&gt;Node42</title>
<g id="a_edge44_Node000041_Node000042"><a xlink:title=" ">
<path fill="none" stroke="#63b8ff" d="M356.7,-194.5C348.08,-194.5 339.5,-194.5 331.25,-194.5"/>
<polygon fill="#63b8ff" stroke="#63b8ff" points="356.81,-198 366.81,-194.5 356.81,-191 356.81,-198"/>
</a>
</g>
</g>
<!-- Node42&#45;&gt;Node16 -->
<g id="edge45_Node000042_Node000016" class="edge">
<title>Node42&#45;&gt;Node16</title>
<g id="a_edge45_Node000042_Node000016"><a xlink:title=" ">
<path fill="none" stroke="#63b8ff" d="M219.7,-206.66C202.59,-211.15 182.93,-216.19 165,-220.5 153.02,-223.38 140.02,-226.33 127.98,-228.99"/>
<polygon fill="#63b8ff" stroke="#63b8ff" points="220.67,-210.02 229.44,-204.09 218.88,-203.25 220.67,-210.02"/>
</a>
</g>
</g>
<!-- Node44 -->
<g id="Node000044" class="node">
<title>Node44</title>
<g id="a_Node000044"><a xlink:href="classOPenguin.html#ac61b7509588bafcb2a0f9f36e6d427db" target="_top" xlink:title=" ">
<polygon fill="#fff0f0" stroke="red" points="316.5,-19 215.5,-19 215.5,0 316.5,0 316.5,-19"/>
<text text-anchor="middle" x="266" y="-7" font-family="Helvetica,sans-Serif" font-size="10.00">OPenguin::Spawn</text>
</a>
</g>
</g>
<!-- Node43&#45;&gt;Node44 -->
<g id="edge47_Node000043_Node000044" class="edge">
<title>Node43&#45;&gt;Node44</title>
<g id="a_edge47_Node000043_Node000044"><a xlink:title=" ">
<path fill="none" stroke="#63b8ff" d="M385.12,-9.5C362.53,-9.5 337.76,-9.5 316.77,-9.5"/>
<polygon fill="#63b8ff" stroke="#63b8ff" points="385.33,-13 395.33,-9.5 385.33,-6 385.33,-13"/>
</a>
</g>
</g>
<!-- Node46 -->
<g id="Node000046" class="node">
<title>Node46</title>
<g id="a_Node000046"><a xlink:href="classOPodium.html#af996875df76b83547d5302fe325c8634" target="_top" xlink:title=" ">
<polygon fill="white" stroke="#666666" points="315.5,-130 216.5,-130 216.5,-111 315.5,-111 315.5,-130"/>
<text text-anchor="middle" x="266" y="-118" font-family="Helvetica,sans-Serif" font-size="10.00">OPodium::Spawn</text>
</a>
</g>
</g>
<!-- Node45&#45;&gt;Node46 -->
<g id="edge49_Node000045_Node000046" class="edge">
<title>Node45&#45;&gt;Node46</title>
<g id="a_edge49_Node000045_Node000046"><a xlink:title=" ">
<path fill="none" stroke="#63b8ff" d="M387.54,-120.5C363.89,-120.5 337.58,-120.5 315.59,-120.5"/>
<polygon fill="#63b8ff" stroke="#63b8ff" points="387.85,-124 397.85,-120.5 387.85,-117 387.85,-124"/>
</a>
</g>
</g>
<!-- Node46&#45;&gt;Node19 -->
<g id="edge50_Node000046_Node000019" class="edge">
<title>Node46&#45;&gt;Node19</title>
<g id="a_edge50_Node000046_Node000019"><a xlink:title=" ">
<path fill="none" stroke="#63b8ff" d="M218.44,-133.15C212.51,-135.1 206.57,-137.23 201,-139.5 163.2,-154.91 121.5,-178.65 99.36,-191.83"/>
<polygon fill="#63b8ff" stroke="#63b8ff" points="219.86,-136.37 228.35,-130.03 217.77,-129.69 219.86,-136.37"/>
</a>
</g>
</g>
<!-- Node48 -->
<g id="Node000048" class="node">
<title>Node48</title>
<g id="a_Node000048"><a xlink:href="classOSeagull.html#a4b3711a3b09b0c8c923bd67629f8eff1" target="_top" xlink:title=" ">
<polygon fill="white" stroke="#666666" points="315,-364 217,-364 217,-345 315,-345 315,-364"/>
<text text-anchor="middle" x="266" y="-352" font-family="Helvetica,sans-Serif" font-size="10.00">OSeagull::Spawn</text>
</a>
</g>
</g>
<!-- Node47&#45;&gt;Node48 -->
<g id="edge52_Node000047_Node000048" class="edge">
<title>Node47&#45;&gt;Node48</title>
<g id="a_edge52_Node000047_Node000048"><a xlink:title=" ">
<path fill="none" stroke="#63b8ff" d="M388.27,-354.5C364.29,-354.5 337.51,-354.5 315.22,-354.5"/>
<polygon fill="#63b8ff" stroke="#63b8ff" points="388.35,-358 398.35,-354.5 388.35,-351 388.35,-358"/>
</a>
</g>
</g>
<!-- Node48&#45;&gt;Node15 -->
<g id="edge53_Node000048_Node000015" class="edge">
<title>Node48&#45;&gt;Node15</title>
<g id="a_edge53_Node000048_Node000015"><a xlink:title=" ">
<path fill="none" stroke="#63b8ff" d="M206.78,-354.5C193.33,-354.5 178.77,-354.5 164.53,-354.5"/>
<polygon fill="#63b8ff" stroke="#63b8ff" points="206.84,-358 216.84,-354.5 206.84,-351 206.84,-358"/>
</a>
</g>
</g>
<!-- Node50 -->
<g id="Node000050" class="node">
<title>Node50</title>
<g id="a_Node000050"><a xlink:href="classOSnowman.html#a4ed5e3e619ec3b84efb3d0547f028304" target="_top" xlink:title=" ">
<polygon fill="white" stroke="#666666" points="321,-512 211,-512 211,-493 321,-493 321,-512"/>
<text text-anchor="middle" x="266" y="-500" font-family="Helvetica,sans-Serif" font-size="10.00">OSnowman::Spawn</text>
</a>
</g>
</g>
<!-- Node49&#45;&gt;Node50 -->
<g id="edge55_Node000049_Node000050" class="edge">
<title>Node49&#45;&gt;Node50</title>
<g id="a_edge55_Node000049_Node000050"><a xlink:title=" ">
<path fill="none" stroke="#63b8ff" d="M376.19,-502.5C357.75,-502.5 338.43,-502.5 321.24,-502.5"/>
<polygon fill="#63b8ff" stroke="#63b8ff" points="376.32,-506 386.32,-502.5 376.32,-499 376.32,-506"/>
</a>
</g>
</g>
<!-- Node50&#45;&gt;Node13 -->
<g id="edge56_Node000050_Node000013" class="edge">
<title>Node50&#45;&gt;Node13</title>
<g id="a_edge56_Node000050_Node000013"><a xlink:title=" ">
<path fill="none" stroke="#63b8ff" d="M200.41,-495.74C186.91,-494.33 172.57,-492.82 158.72,-491.37"/>
<polygon fill="#63b8ff" stroke="#63b8ff" points="200.23,-499.24 210.54,-496.8 200.96,-492.28 200.23,-499.24"/>
</a>
</g>
</g>
<!-- Node52 -->
<g id="Node000052" class="node">
<title>Node52</title>
<g id="a_Node000052"><a xlink:href="classOThwomp.html#a2fdb4501c7bd5d5241c613a1ba9c2041" target="_top" xlink:title=" ">
<polygon fill="white" stroke="#666666" points="318,-549 214,-549 214,-530 318,-530 318,-549"/>
<text text-anchor="middle" x="266" y="-537" font-family="Helvetica,sans-Serif" font-size="10.00">OThwomp::Spawn</text>
</a>
</g>
</g>
<!-- Node51&#45;&gt;Node52 -->
<g id="edge58_Node000051_Node000052" class="edge">
<title>Node51&#45;&gt;Node52</title>
<g id="a_edge58_Node000051_Node000052"><a xlink:title=" ">
<path fill="none" stroke="#63b8ff" d="M382.01,-539.5C360.8,-539.5 337.93,-539.5 318.22,-539.5"/>
<polygon fill="#63b8ff" stroke="#63b8ff" points="382.27,-543 392.27,-539.5 382.27,-536 382.27,-543"/>
</a>
</g>
</g>
<!-- Node52&#45;&gt;Node9 -->
<g id="edge59_Node000052_Node000009" class="edge">
<title>Node52&#45;&gt;Node9</title>
<g id="a_edge59_Node000052_Node000009"><a xlink:title=" ">
<path fill="none" stroke="#63b8ff" d="M203.71,-533.08C187.78,-531.42 170.5,-529.61 154.13,-527.89"/>
<polygon fill="#63b8ff" stroke="#63b8ff" points="203.65,-536.6 213.96,-534.16 204.38,-529.63 203.65,-536.6"/>
</a>
</g>
</g>
<!-- Node54 -->
<g id="Node000054" class="node">
<title>Node54</title>
<g id="a_Node000054"><a xlink:href="classOTrashBin.html#a85ca206ed283939eb450f434fac7f818" target="_top" xlink:title=" ">
<polygon fill="white" stroke="#666666" points="318,-475 214,-475 214,-456 318,-456 318,-475"/>
<text text-anchor="middle" x="266" y="-463" font-family="Helvetica,sans-Serif" font-size="10.00">OTrashBin::Spawn</text>
</a>
</g>
</g>
<!-- Node53&#45;&gt;Node54 -->
<g id="edge61_Node000053_Node000054" class="edge">
<title>Node53&#45;&gt;Node54</title>
<g id="a_edge61_Node000053_Node000054"><a xlink:title=" ">
<path fill="none" stroke="#63b8ff" d="M383.2,-465.5C361.63,-465.5 338.25,-465.5 318.15,-465.5"/>
<polygon fill="#63b8ff" stroke="#63b8ff" points="383.3,-469 393.3,-465.5 383.3,-462 383.3,-469"/>
</a>
</g>
</g>
<!-- Node54&#45;&gt;Node4 -->
<g id="edge62_Node000054_Node000004" class="edge">
<title>Node54&#45;&gt;Node4</title>
<g id="a_edge62_Node000054_Node000004"><a xlink:title=" ">
<path fill="none" stroke="#63b8ff" d="M208.18,-453.92C183.17,-448.82 154.15,-442.9 130.4,-438.06"/>
<polygon fill="#63b8ff" stroke="#63b8ff" points="207.76,-457.4 218.26,-455.97 209.16,-450.54 207.76,-457.4"/>
</a>
</g>
</g>
<!-- Node56 -->
<g id="Node000056" class="node">
<title>Node56</title>
<g id="a_Node000056"><a xlink:href="classOTrophy.html#a3348e837d399b9544160c790a99c94ac" target="_top" xlink:title=" ">
<polygon fill="#fff0f0" stroke="red" points="313,-167 219,-167 219,-148 313,-148 313,-167"/>
<text text-anchor="middle" x="266" y="-155" font-family="Helvetica,sans-Serif" font-size="10.00">OTrophy::Spawn</text>
</a>
</g>
</g>
<!-- Node55&#45;&gt;Node56 -->
<g id="edge64_Node000055_Node000056" class="edge">
<title>Node55&#45;&gt;Node56</title>
<g id="a_edge64_Node000055_Node000056"><a xlink:title=" ">
<path fill="none" stroke="#63b8ff" d="M392.73,-157.5C366.88,-157.5 337.11,-157.5 313.03,-157.5"/>
<polygon fill="#63b8ff" stroke="#63b8ff" points="392.79,-161 402.79,-157.5 392.79,-154 392.79,-161"/>
</a>
</g>
</g>
<!-- Node56&#45;&gt;Node19 -->
<g id="edge65_Node000056_Node000019" class="edge">
<title>Node56&#45;&gt;Node19</title>
<g id="a_edge65_Node000056_Node000019"><a xlink:title=" ">
<path fill="none" stroke="#63b8ff" d="M215.63,-169.47C186.45,-176.54 150.02,-185.37 122.81,-191.97"/>
<polygon fill="#63b8ff" stroke="#63b8ff" points="216.72,-172.8 225.62,-167.05 215.07,-166 216.72,-172.8"/>
</a>
</g>
</g>
</g>
</svg>
