<?xml version="1.0" encoding="UTF-8" standalone="no"?>
<!DOCTYPE svg PUBLIC "-//W3C//DTD SVG 1.1//EN"
 "http://www.w3.org/Graphics/SVG/1.1/DTD/svg11.dtd">
<!-- Generated by graphviz version 2.43.0 (0)
 -->
<!-- Title: YoshiValley::CreditsSpawnActors Pages: 1 -->
<svg width="1589pt" height="305pt"
 viewBox="0.00 0.00 1589.00 304.90" xmlns="http://www.w3.org/2000/svg" xmlns:xlink="http://www.w3.org/1999/xlink">
<g id="graph0" class="graph" transform="scale(1 1) rotate(0) translate(4 300.9)">
<title>YoshiValley::CreditsSpawnActors</title>
<!-- Node1 -->
<g id="Node000001" class="node">
<title>Node1</title>
<g id="a_Node000001"><a xlink:title=" ">
<polygon fill="#999999" stroke="#666666" points="143,-34.4 0,-34.4 0,-4.4 143,-4.4 143,-34.4"/>
<text text-anchor="start" x="8" y="-22.4" font-family="Helvetica,sans-Serif" font-size="10.00">YoshiValley::CreditsSpawn</text>
<text text-anchor="middle" x="71.5" y="-11.4" font-family="Helvetica,sans-Serif" font-size="10.00">Actors</text>
</a>
</g>
</g>
<!-- Node2 -->
<g id="Node000002" class="node">
<title>Node2</title>
<g id="a_Node000002"><a xlink:href="actors_8c.html#a91fb2e4e37e7c72fea918fe2c1bb4eaf" target="_top" xlink:title=" ">
<polygon fill="white" stroke="#666666" points="319,-66.9 179,-66.9 179,-47.9 319,-47.9 319,-66.9"/>
<text text-anchor="middle" x="249" y="-54.9" font-family="Helvetica,sans-Serif" font-size="10.00">add_actor_to_empty_slot</text>
</a>
</g>
</g>
<!-- Node1&#45;&gt;Node2 -->
<g id="edge1_Node000001_Node000002" class="edge">
<title>Node1&#45;&gt;Node2</title>
<g id="a_edge1_Node000001_Node000002"><a xlink:title=" ">
<path fill="none" stroke="#63b8ff" d="M141.86,-34.42C159.24,-38.18 177.62,-42.16 194.12,-45.74"/>
<polygon fill="#63b8ff" stroke="#63b8ff" points="193.61,-49.21 204.12,-47.9 195.09,-42.37 193.61,-49.21"/>
</a>
</g>
</g>
<!-- Node22 -->
<g id="Node000022" class="node">
<title>Node22</title>
<g id="a_Node000022"><a xlink:href="math__util_8c.html#a79fd07a0971ec96a3ff0801963a2fa7f" target="_top" xlink:title=" ">
<polygon fill="white" stroke="#666666" points="785,-46.9 721,-46.9 721,-27.9 785,-27.9 785,-46.9"/>
<text text-anchor="middle" x="753" y="-34.9" font-family="Helvetica,sans-Serif" font-size="10.00">vec3f_set</text>
</a>
</g>
</g>
<!-- Node1&#45;&gt;Node22 -->
<g id="edge27_Node000001_Node000022" class="edge">
<title>Node1&#45;&gt;Node22</title>
<g id="a_edge27_Node000001_Node000022"><a xlink:title=" ">
<path fill="none" stroke="#63b8ff" d="M143.26,-13.64C200.36,-9.3 282.79,-3.7 355,-1.4 483.66,2.69 516.39,-3.52 644,-20.4 666.11,-23.33 690.68,-27.15 710.79,-30.43"/>
<polygon fill="#63b8ff" stroke="#63b8ff" points="710.43,-33.92 720.87,-32.09 711.57,-27.01 710.43,-33.92"/>
</a>
</g>
</g>
<!-- Node3 -->
<g id="Node000003" class="node">
<title>Node3</title>
<g id="a_Node000003"><a xlink:href="actors_8c.html#a39c023177b5a7686cdd1fc65b8b953e1" target="_top" xlink:title=" ">
<polygon fill="white" stroke="#666666" points="442,-140.9 380,-140.9 380,-121.9 442,-121.9 442,-140.9"/>
<text text-anchor="middle" x="411" y="-128.9" font-family="Helvetica,sans-Serif" font-size="10.00">actor_init</text>
</a>
</g>
</g>
<!-- Node2&#45;&gt;Node3 -->
<g id="edge2_Node000002_Node000003" class="edge">
<title>Node2&#45;&gt;Node3</title>
<g id="a_edge2_Node000002_Node000003"><a xlink:title=" ">
<path fill="none" stroke="#63b8ff" d="M265.94,-67.03C286.15,-78.98 322.31,-99.46 355,-113.4 359.84,-115.47 365.01,-117.44 370.16,-119.28"/>
<polygon fill="#63b8ff" stroke="#63b8ff" points="369.37,-122.7 379.97,-122.62 371.63,-116.08 369.37,-122.7"/>
</a>
</g>
</g>
<!-- Node25 -->
<g id="Node000025" class="node">
<title>Node25</title>
<g id="a_Node000025"><a xlink:href="Game_8cpp.html#acea5cfd9ab22f745bd6627869b95a62e" target="_top" xlink:title=" ">
<polygon fill="white" stroke="#666666" points="467,-103.9 355,-103.9 355,-84.9 467,-84.9 467,-103.9"/>
<text text-anchor="middle" x="411" y="-91.9" font-family="Helvetica,sans-Serif" font-size="10.00">CM_ActorBeginPlay</text>
</a>
</g>
</g>
<!-- Node2&#45;&gt;Node25 -->
<g id="edge24_Node000002_Node000025" class="edge">
<title>Node2&#45;&gt;Node25</title>
<g id="a_edge24_Node000002_Node000025"><a xlink:title=" ">
<path fill="none" stroke="#63b8ff" d="M291.2,-66.93C311.84,-71.7 337.02,-77.53 358.88,-82.58"/>
<polygon fill="#63b8ff" stroke="#63b8ff" points="358.13,-86 368.66,-84.84 359.7,-79.18 358.13,-86"/>
</a>
</g>
</g>
<!-- Node26 -->
<g id="Node000026" class="node">
<title>Node26</title>
<g id="a_Node000026"><a xlink:href="Game_8cpp.html#a42f23077aaa52cb3ea5c7803b7dd6816" target="_top" xlink:title=" ">
<polygon fill="white" stroke="#666666" points="464,-66.9 358,-66.9 358,-47.9 464,-47.9 464,-66.9"/>
<text text-anchor="middle" x="411" y="-54.9" font-family="Helvetica,sans-Serif" font-size="10.00">CM_AddBaseActor</text>
</a>
</g>
</g>
<!-- Node2&#45;&gt;Node26 -->
<g id="edge25_Node000002_Node000026" class="edge">
<title>Node2&#45;&gt;Node26</title>
<g id="a_edge25_Node000002_Node000026"><a xlink:title=" ">
<path fill="none" stroke="#63b8ff" d="M319.25,-57.4C328.57,-57.4 338.1,-57.4 347.31,-57.4"/>
<polygon fill="#63b8ff" stroke="#63b8ff" points="347.53,-60.9 357.53,-57.4 347.53,-53.9 347.53,-60.9"/>
</a>
</g>
</g>
<!-- Node27 -->
<g id="Node000027" class="node">
<title>Node27</title>
<g id="a_Node000027"><a xlink:href="Game_8cpp.html#a0841ffe9a66e95aca42438b9d8ffc3d3" target="_top" xlink:title=" ">
<polygon fill="white" stroke="#666666" points="461.5,-29.9 360.5,-29.9 360.5,-10.9 461.5,-10.9 461.5,-29.9"/>
<text text-anchor="middle" x="411" y="-17.9" font-family="Helvetica,sans-Serif" font-size="10.00">CM_GetActorSize</text>
</a>
</g>
</g>
<!-- Node2&#45;&gt;Node27 -->
<g id="edge26_Node000002_Node000027" class="edge">
<title>Node2&#45;&gt;Node27</title>
<g id="a_edge26_Node000002_Node000027"><a xlink:title=" ">
<path fill="none" stroke="#63b8ff" d="M291.2,-47.87C311.84,-43.1 337.02,-37.28 358.88,-32.23"/>
<polygon fill="#63b8ff" stroke="#63b8ff" points="359.7,-35.63 368.66,-29.96 358.13,-28.81 359.7,-35.63"/>
</a>
</g>
</g>
<!-- Node4 -->
<g id="Node000004" class="node">
<title>Node4</title>
<g id="a_Node000004"><a xlink:href="collision_8c.html#a37aa55b3768d001533ad75e7f1b8388a" target="_top" xlink:title=" ">
<polygon fill="white" stroke="#666666" points="644,-244.9 503,-244.9 503,-225.9 644,-225.9 644,-244.9"/>
<text text-anchor="middle" x="573.5" y="-232.9" font-family="Helvetica,sans-Serif" font-size="10.00">check_bounding_collision</text>
</a>
</g>
</g>
<!-- Node3&#45;&gt;Node4 -->
<g id="edge3_Node000003_Node000004" class="edge">
<title>Node3&#45;&gt;Node4</title>
<g id="a_edge3_Node000003_Node000004"><a xlink:title=" ">
<path fill="none" stroke="#63b8ff" d="M426.81,-141C454.76,-159.11 515.47,-198.45 549.03,-220.19"/>
<polygon fill="#63b8ff" stroke="#63b8ff" points="547.43,-223.33 557.72,-225.83 551.24,-217.45 547.43,-223.33"/>
</a>
</g>
</g>
<!-- Node8 -->
<g id="Node000008" class="node">
<title>Node8</title>
<g id="a_Node000008"><a xlink:href="actors_8c.html#a1a9bccb586242555a9123ebd4ab70f2a" target="_top" xlink:title=" ">
<polygon fill="white" stroke="#666666" points="639.5,-170.4 507.5,-170.4 507.5,-140.4 639.5,-140.4 639.5,-170.4"/>
<text text-anchor="start" x="515.5" y="-158.4" font-family="Helvetica,sans-Serif" font-size="10.00">cleanup_red_and_green</text>
<text text-anchor="middle" x="573.5" y="-147.4" font-family="Helvetica,sans-Serif" font-size="10.00">_shells</text>
</a>
</g>
</g>
<!-- Node3&#45;&gt;Node8 -->
<g id="edge7_Node000003_Node000008" class="edge">
<title>Node3&#45;&gt;Node8</title>
<g id="a_edge7_Node000003_Node000008"><a xlink:title=" ">
<path fill="none" stroke="#63b8ff" d="M442.19,-135.92C457.81,-138.25 477.64,-141.22 497.09,-144.13"/>
<polygon fill="#63b8ff" stroke="#63b8ff" points="496.8,-147.62 507.21,-145.64 497.84,-140.7 496.8,-147.62"/>
</a>
</g>
</g>
<!-- Node21 -->
<g id="Node000021" class="node">
<title>Node21</title>
<g id="a_Node000021"><a xlink:href="collision_8c.html#ad72fef3ffe32191d73b1822f512ebf3f" target="_top" xlink:title=" ">
<polygon fill="white" stroke="#666666" points="621,-121.9 526,-121.9 526,-102.9 621,-102.9 621,-121.9"/>
<text text-anchor="middle" x="573.5" y="-109.9" font-family="Helvetica,sans-Serif" font-size="10.00">func_802AAAAC</text>
</a>
</g>
</g>
<!-- Node3&#45;&gt;Node21 -->
<g id="edge20_Node000003_Node000021" class="edge">
<title>Node3&#45;&gt;Node21</title>
<g id="a_edge20_Node000003_Node000021"><a xlink:title=" ">
<path fill="none" stroke="#63b8ff" d="M442.19,-127.83C462.86,-125.38 490.91,-122.06 515.69,-119.13"/>
<polygon fill="#63b8ff" stroke="#63b8ff" points="516.2,-122.59 525.72,-117.94 515.38,-115.64 516.2,-122.59"/>
</a>
</g>
</g>
<!-- Node23 -->
<g id="Node000023" class="node">
<title>Node23</title>
<g id="a_Node000023"><a xlink:href="math__util_8c.html#af7b470ed76fce07b8042a47c96e5690b" target="_top" xlink:title=" ">
<polygon fill="white" stroke="#666666" points="627,-84.9 520,-84.9 520,-65.9 627,-65.9 627,-84.9"/>
<text text-anchor="middle" x="573.5" y="-72.9" font-family="Helvetica,sans-Serif" font-size="10.00">vec3f_copy_return</text>
</a>
</g>
</g>
<!-- Node3&#45;&gt;Node23 -->
<g id="edge22_Node000003_Node000023" class="edge">
<title>Node3&#45;&gt;Node23</title>
<g id="a_edge22_Node000003_Node000023"><a xlink:title=" ">
<path fill="none" stroke="#63b8ff" d="M442.03,-122.59C450.23,-119.91 459.04,-116.78 467,-113.4 483.66,-106.34 486.17,-101.05 503,-94.4 508.96,-92.05 515.31,-89.88 521.66,-87.91"/>
<polygon fill="#63b8ff" stroke="#63b8ff" points="522.98,-91.17 531.59,-84.99 521,-84.46 522.98,-91.17"/>
</a>
</g>
</g>
<!-- Node24 -->
<g id="Node000024" class="node">
<title>Node24</title>
<g id="a_Node000024"><a xlink:href="math__util_8c.html#a0e270ee67600c8c9c2f140c647d008a1" target="_top" xlink:title=" ">
<polygon fill="white" stroke="#666666" points="610.5,-47.9 536.5,-47.9 536.5,-28.9 610.5,-28.9 610.5,-47.9"/>
<text text-anchor="middle" x="573.5" y="-35.9" font-family="Helvetica,sans-Serif" font-size="10.00">vec3s_copy</text>
</a>
</g>
</g>
<!-- Node3&#45;&gt;Node24 -->
<g id="edge23_Node000003_Node000024" class="edge">
<title>Node3&#45;&gt;Node24</title>
<g id="a_edge23_Node000003_Node000024"><a xlink:title=" ">
<path fill="none" stroke="#63b8ff" d="M442.08,-125.58C450.72,-122.88 459.77,-118.99 467,-113.4 490.41,-95.31 479.15,-74.91 503,-57.4 509.96,-52.3 518.21,-48.56 526.56,-45.83"/>
<polygon fill="#63b8ff" stroke="#63b8ff" points="527.67,-49.16 536.33,-43.06 525.76,-42.42 527.67,-49.16"/>
</a>
</g>
</g>
<!-- Node5 -->
<g id="Node000005" class="node">
<title>Node5</title>
<g id="a_Node000005"><a xlink:href="collision_8c.html#ac312bf382cb40752f6b790a99e7cdcb6" target="_top" xlink:title=" ">
<polygon fill="white" stroke="#666666" points="807,-296.9 699,-296.9 699,-277.9 807,-277.9 807,-296.9"/>
<text text-anchor="middle" x="753" y="-284.9" font-family="Helvetica,sans-Serif" font-size="10.00">check_collision_yx</text>
</a>
</g>
</g>
<!-- Node4&#45;&gt;Node5 -->
<g id="edge4_Node000004_Node000005" class="edge">
<title>Node4&#45;&gt;Node5</title>
<g id="a_edge4_Node000004_Node000005"><a xlink:title=" ">
<path fill="none" stroke="#63b8ff" d="M602.55,-245.01C623.72,-252.12 653.54,-261.84 680,-269.4 687.07,-271.42 694.56,-273.44 701.94,-275.35"/>
<polygon fill="#63b8ff" stroke="#63b8ff" points="701.33,-278.8 711.89,-277.88 703.06,-272.02 701.33,-278.8"/>
</a>
</g>
</g>
<!-- Node6 -->
<g id="Node000006" class="node">
<title>Node6</title>
<g id="a_Node000006"><a xlink:href="collision_8c.html#a4b48832a90e984536a0635a016ec4f28" target="_top" xlink:title=" ">
<polygon fill="white" stroke="#666666" points="806.5,-259.9 699.5,-259.9 699.5,-240.9 806.5,-240.9 806.5,-259.9"/>
<text text-anchor="middle" x="753" y="-247.9" font-family="Helvetica,sans-Serif" font-size="10.00">check_collision_zx</text>
</a>
</g>
</g>
<!-- Node4&#45;&gt;Node6 -->
<g id="edge5_Node000004_Node000006" class="edge">
<title>Node4&#45;&gt;Node6</title>
<g id="a_edge5_Node000004_Node000006"><a xlink:title=" ">
<path fill="none" stroke="#63b8ff" d="M644.14,-241.29C658.91,-242.54 674.43,-243.85 688.94,-245.07"/>
<polygon fill="#63b8ff" stroke="#63b8ff" points="689.04,-248.6 699.3,-245.95 689.63,-241.62 689.04,-248.6"/>
</a>
</g>
</g>
<!-- Node7 -->
<g id="Node000007" class="node">
<title>Node7</title>
<g id="a_Node000007"><a xlink:href="collision_8c.html#a21fef964ab48191a1c0341954ef27a40" target="_top" xlink:title=" ">
<polygon fill="white" stroke="#666666" points="806.5,-222.9 699.5,-222.9 699.5,-203.9 806.5,-203.9 806.5,-222.9"/>
<text text-anchor="middle" x="753" y="-210.9" font-family="Helvetica,sans-Serif" font-size="10.00">check_collision_zy</text>
</a>
</g>
</g>
<!-- Node4&#45;&gt;Node7 -->
<g id="edge6_Node000004_Node000007" class="edge">
<title>Node4&#45;&gt;Node7</title>
<g id="a_edge6_Node000004_Node000007"><a xlink:title=" ">
<path fill="none" stroke="#63b8ff" d="M644.14,-226.77C659.06,-224.92 674.73,-222.98 689.36,-221.17"/>
<polygon fill="#63b8ff" stroke="#63b8ff" points="689.81,-224.64 699.3,-219.93 688.95,-217.69 689.81,-224.64"/>
</a>
</g>
</g>
<!-- Node9 -->
<g id="Node000009" class="node">
<title>Node9</title>
<g id="a_Node000009"><a xlink:href="Game_8cpp.html#a693de7d8b89fe291aafea86bc64a0a2e" target="_top" xlink:title=" ">
<polygon fill="white" stroke="#666666" points="793,-185.9 713,-185.9 713,-166.9 793,-166.9 793,-185.9"/>
<text text-anchor="middle" x="753" y="-173.9" font-family="Helvetica,sans-Serif" font-size="10.00">CM_GetActor</text>
</a>
</g>
</g>
<!-- Node8&#45;&gt;Node9 -->
<g id="edge8_Node000008_Node000009" class="edge">
<title>Node8&#45;&gt;Node9</title>
<g id="a_edge8_Node000008_Node000009"><a xlink:title=" ">
<path fill="none" stroke="#63b8ff" d="M639.59,-163.1C660.47,-165.57 683.24,-168.27 702.79,-170.58"/>
<polygon fill="#63b8ff" stroke="#63b8ff" points="702.65,-174.09 712.99,-171.79 703.47,-167.14 702.65,-174.09"/>
</a>
</g>
</g>
<!-- Node10 -->
<g id="Node000010" class="node">
<title>Node10</title>
<g id="a_Node000010"><a xlink:href="code__80005FD0_8c.html#ad301b978cdd3c4cc190b10be050d51d8" target="_top" xlink:title=" ">
<polygon fill="white" stroke="#666666" points="826,-148.4 680,-148.4 680,-118.4 826,-118.4 826,-148.4"/>
<text text-anchor="start" x="688" y="-136.4" font-family="Helvetica,sans-Serif" font-size="10.00">delete_actor_in_unexpired</text>
<text text-anchor="middle" x="753" y="-125.4" font-family="Helvetica,sans-Serif" font-size="10.00">_actor_list</text>
</a>
</g>
</g>
<!-- Node8&#45;&gt;Node10 -->
<g id="edge9_Node000008_Node000010" class="edge">
<title>Node8&#45;&gt;Node10</title>
<g id="a_edge9_Node000008_Node000010"><a xlink:title=" ">
<path fill="none" stroke="#63b8ff" d="M639.59,-147.34C649.38,-146.12 659.59,-144.86 669.69,-143.6"/>
<polygon fill="#63b8ff" stroke="#63b8ff" points="670.24,-147.06 679.73,-142.36 669.38,-140.12 670.24,-147.06"/>
</a>
</g>
</g>
<!-- Node11 -->
<g id="Node000011" class="node">
<title>Node11</title>
<g id="a_Node000011"><a xlink:href="actors_8c.html#a694ec6ef7548b8618aeb35c038d3a9b9" target="_top" xlink:title=" ">
<polygon fill="white" stroke="#666666" points="794.5,-99.9 711.5,-99.9 711.5,-80.9 794.5,-80.9 794.5,-99.9"/>
<text text-anchor="middle" x="753" y="-87.9" font-family="Helvetica,sans-Serif" font-size="10.00">destroy_actor</text>
</a>
</g>
</g>
<!-- Node8&#45;&gt;Node11 -->
<g id="edge10_Node000008_Node000011" class="edge">
<title>Node8&#45;&gt;Node11</title>
<g id="a_edge10_Node000008_Node000011"><a xlink:title=" ">
<path fill="none" stroke="#63b8ff" d="M622.52,-140.35C629.82,-137.62 637.19,-134.61 644,-131.4 660.96,-123.41 662.75,-116.76 680,-109.4 686.79,-106.51 694.12,-103.96 701.43,-101.75"/>
<polygon fill="#63b8ff" stroke="#63b8ff" points="702.66,-105.04 711.32,-98.94 700.74,-98.3 702.66,-105.04"/>
</a>
</g>
</g>
<!-- Node12 -->
<g id="Node000012" class="node">
<title>Node12</title>
<g id="a_Node000012"><a xlink:href="actors_8c.html#a12dc3ccac4c7d8569eadac0af4fd6f9f" target="_top" xlink:title=" ">
<polygon fill="white" stroke="#666666" points="1020,-99.9 862,-99.9 862,-80.9 1020,-80.9 1020,-99.9"/>
<text text-anchor="middle" x="941" y="-87.9" font-family="Helvetica,sans-Serif" font-size="10.00">play_sound_before_despawn</text>
</a>
</g>
</g>
<!-- Node11&#45;&gt;Node12 -->
<g id="edge11_Node000011_Node000012" class="edge">
<title>Node11&#45;&gt;Node12</title>
<g id="a_edge11_Node000011_Node000012"><a xlink:title=" ">
<path fill="none" stroke="#63b8ff" d="M794.82,-90.4C811.65,-90.4 831.86,-90.4 851.77,-90.4"/>
<polygon fill="#63b8ff" stroke="#63b8ff" points="851.82,-93.9 861.82,-90.4 851.82,-86.9 851.82,-93.9"/>
</a>
</g>
</g>
<!-- Node13 -->
<g id="Node000013" class="node">
<title>Node13</title>
<g id="a_Node000013"><a xlink:href="external_8c.html#ae72057869772019e4464c87d4e16c682" target="_top" xlink:title=" ">
<polygon fill="white" stroke="#666666" points="1148,-99.9 1056,-99.9 1056,-80.9 1148,-80.9 1148,-99.9"/>
<text text-anchor="middle" x="1102" y="-87.9" font-family="Helvetica,sans-Serif" font-size="10.00">func_800C99E0</text>
</a>
</g>
</g>
<!-- Node12&#45;&gt;Node13 -->
<g id="edge12_Node000012_Node000013" class="edge">
<title>Node12&#45;&gt;Node13</title>
<g id="a_edge12_Node000012_Node000013"><a xlink:title=" ">
<path fill="none" stroke="#63b8ff" d="M1020.1,-90.4C1028.72,-90.4 1037.35,-90.4 1045.61,-90.4"/>
<polygon fill="#63b8ff" stroke="#63b8ff" points="1045.83,-93.9 1055.83,-90.4 1045.83,-86.9 1045.83,-93.9"/>
</a>
</g>
</g>
<!-- Node14 -->
<g id="Node000014" class="node">
<title>Node14</title>
<g id="a_Node000014"><a xlink:href="external_8c.html#aeb87c527482a244173df36a1f3d4f446" target="_top" xlink:title=" ">
<polygon fill="white" stroke="#666666" points="1276,-118.9 1184,-118.9 1184,-99.9 1276,-99.9 1276,-118.9"/>
<text text-anchor="middle" x="1230" y="-106.9" font-family="Helvetica,sans-Serif" font-size="10.00">func_800C21E8</text>
</a>
</g>
</g>
<!-- Node13&#45;&gt;Node14 -->
<g id="edge13_Node000013_Node000014" class="edge">
<title>Node13&#45;&gt;Node14</title>
<g id="a_edge13_Node000013_Node000014"><a xlink:title=" ">
<path fill="none" stroke="#63b8ff" d="M1148.13,-97.21C1156.46,-98.46 1165.23,-99.79 1173.81,-101.08"/>
<polygon fill="#63b8ff" stroke="#63b8ff" points="1173.35,-104.55 1183.76,-102.58 1174.39,-97.63 1173.35,-104.55"/>
</a>
</g>
</g>
<!-- Node15 -->
<g id="Node000015" class="node">
<title>Node15</title>
<g id="a_Node000015"><a xlink:href="external_8c.html#a028d40421b90c38f68ebfd5acc626f2e" target="_top" xlink:title=" ">
<polygon fill="white" stroke="#666666" points="1276,-81.9 1184,-81.9 1184,-62.9 1276,-62.9 1276,-81.9"/>
<text text-anchor="middle" x="1230" y="-69.9" font-family="Helvetica,sans-Serif" font-size="10.00">func_800C5578</text>
</a>
</g>
</g>
<!-- Node13&#45;&gt;Node15 -->
<g id="edge14_Node000013_Node000015" class="edge">
<title>Node13&#45;&gt;Node15</title>
<g id="a_edge14_Node000013_Node000015"><a xlink:title=" ">
<path fill="none" stroke="#63b8ff" d="M1148.13,-83.96C1156.46,-82.77 1165.23,-81.51 1173.81,-80.29"/>
<polygon fill="#63b8ff" stroke="#63b8ff" points="1174.35,-83.75 1183.76,-78.87 1173.36,-76.82 1174.35,-83.75"/>
</a>
</g>
</g>
<!-- Node16 -->
<g id="Node000016" class="node">
<title>Node16</title>
<g id="a_Node000016"><a xlink:href="external_8c.html#ac0fb767de7e14a03f1bcfa53f0abd23b" target="_top" xlink:title=" ">
<polygon fill="white" stroke="#666666" points="1452,-118.9 1312,-118.9 1312,-99.9 1452,-99.9 1452,-118.9"/>
<text text-anchor="middle" x="1382" y="-106.9" font-family="Helvetica,sans-Serif" font-size="10.00">delete_sound_from_bank</text>
</a>
</g>
</g>
<!-- Node15&#45;&gt;Node16 -->
<g id="edge15_Node000015_Node000016" class="edge">
<title>Node15&#45;&gt;Node16</title>
<g id="a_edge15_Node000015_Node000016"><a xlink:title=" ">
<path fill="none" stroke="#63b8ff" d="M1269.63,-81.93C1288.8,-86.66 1312.16,-92.42 1332.52,-97.44"/>
<polygon fill="#63b8ff" stroke="#63b8ff" points="1331.69,-100.85 1342.24,-99.84 1333.37,-94.05 1331.69,-100.85"/>
</a>
</g>
</g>
<!-- Node18 -->
<g id="Node000018" class="node">
<title>Node18</title>
<g id="a_Node000018"><a xlink:href="external_8c.html#ab83bd36e63f0f1baddcb2482b5ad31b0" target="_top" xlink:title=" ">
<polygon fill="white" stroke="#666666" points="1428.5,-81.9 1335.5,-81.9 1335.5,-62.9 1428.5,-62.9 1428.5,-81.9"/>
<text text-anchor="middle" x="1382" y="-69.9" font-family="Helvetica,sans-Serif" font-size="10.00">func_800C41CC</text>
</a>
</g>
</g>
<!-- Node15&#45;&gt;Node18 -->
<g id="edge17_Node000015_Node000018" class="edge">
<title>Node15&#45;&gt;Node18</title>
<g id="a_edge17_Node000015_Node000018"><a xlink:title=" ">
<path fill="none" stroke="#63b8ff" d="M1276,-72.4C1291.37,-72.4 1308.74,-72.4 1324.86,-72.4"/>
<polygon fill="#63b8ff" stroke="#63b8ff" points="1325.25,-75.9 1335.25,-72.4 1325.25,-68.9 1325.25,-75.9"/>
</a>
</g>
</g>
<!-- Node19 -->
<g id="Node000019" class="node">
<title>Node19</title>
<g id="a_Node000019"><a xlink:href="port__eu_8c.html#aa89dfaecca46c6d071f08c1898d1f7c9" target="_top" xlink:title=" ">
<polygon fill="white" stroke="#666666" points="1428.5,-44.9 1335.5,-44.9 1335.5,-25.9 1428.5,-25.9 1428.5,-44.9"/>
<text text-anchor="middle" x="1382" y="-32.9" font-family="Helvetica,sans-Serif" font-size="10.00">func_800CBBE8</text>
</a>
</g>
</g>
<!-- Node15&#45;&gt;Node19 -->
<g id="edge18_Node000015_Node000019" class="edge">
<title>Node15&#45;&gt;Node19</title>
<g id="a_edge18_Node000015_Node000019"><a xlink:title=" ">
<path fill="none" stroke="#63b8ff" d="M1269.63,-62.87C1288.8,-58.15 1312.16,-52.38 1332.52,-47.36"/>
<polygon fill="#63b8ff" stroke="#63b8ff" points="1333.37,-50.76 1342.24,-44.96 1331.69,-43.96 1333.37,-50.76"/>
</a>
</g>
</g>
<!-- Node17 -->
<g id="Node000017" class="node">
<title>Node17</title>
<g id="a_Node000017"><a xlink:href="external_8c.html#a358ac55e8ab5262dcae8037334be06d7" target="_top" xlink:title=" ">
<polygon fill="white" stroke="#666666" points="1580.5,-118.9 1488.5,-118.9 1488.5,-99.9 1580.5,-99.9 1580.5,-118.9"/>
<text text-anchor="middle" x="1534.5" y="-106.9" font-family="Helvetica,sans-Serif" font-size="10.00">func_800C40F0</text>
</a>
</g>
</g>
<!-- Node16&#45;&gt;Node17 -->
<g id="edge16_Node000016_Node000017" class="edge">
<title>Node16&#45;&gt;Node17</title>
<g id="a_edge16_Node000016_Node000017"><a xlink:title=" ">
<path fill="none" stroke="#63b8ff" d="M1452.08,-109.4C1460.87,-109.4 1469.78,-109.4 1478.31,-109.4"/>
<polygon fill="#63b8ff" stroke="#63b8ff" points="1478.5,-112.9 1488.5,-109.4 1478.5,-105.9 1478.5,-112.9"/>
</a>
</g>
</g>
<!-- Node20 -->
<g id="Node000020" class="node">
<title>Node20</title>
<g id="a_Node000020"><a xlink:href="port__eu_8c.html#af361a20d2e08f30c53a237ca481ff734" target="_top" xlink:title=" ">
<polygon fill="white" stroke="#666666" points="1581,-44.9 1488,-44.9 1488,-25.9 1581,-25.9 1581,-44.9"/>
<text text-anchor="middle" x="1534.5" y="-32.9" font-family="Helvetica,sans-Serif" font-size="10.00">func_800CBB48</text>
</a>
</g>
</g>
<!-- Node19&#45;&gt;Node20 -->
<g id="edge19_Node000019_Node000020" class="edge">
<title>Node19&#45;&gt;Node20</title>
<g id="a_edge19_Node000019_Node000020"><a xlink:title=" ">
<path fill="none" stroke="#63b8ff" d="M1428.56,-35.4C1443.96,-35.4 1461.34,-35.4 1477.46,-35.4"/>
<polygon fill="#63b8ff" stroke="#63b8ff" points="1477.83,-38.9 1487.83,-35.4 1477.83,-31.9 1477.83,-38.9"/>
</a>
</g>
</g>
<!-- Node21&#45;&gt;Node22 -->
<g id="edge21_Node000021_Node000022" class="edge">
<title>Node21&#45;&gt;Node22</title>
<g id="a_edge21_Node000021_Node000022"><a xlink:title=" ">
<path fill="none" stroke="#63b8ff" d="M619.27,-102.89C627.64,-100.53 636.2,-97.71 644,-94.4 661.26,-87.08 663.55,-81.4 680,-72.4 693.41,-65.07 708.58,-57.58 721.53,-51.42"/>
<polygon fill="#63b8ff" stroke="#63b8ff" points="723.38,-54.42 730.94,-46.99 720.4,-48.08 723.38,-54.42"/>
</a>
</g>
</g>
</g>
</svg>
