<?xml version="1.0" encoding="UTF-8" standalone="no"?>
<!DOCTYPE svg PUBLIC "-//W3C//DTD SVG 1.1//EN"
 "http://www.w3.org/Graphics/SVG/1.1/DTD/svg11.dtd">
<!-- Generated by graphviz version 2.43.0 (0)
 -->
<!-- Title: LuigiRaceway::BeginPlay Pages: 1 -->
<svg width="1504pt" height="847pt"
 viewBox="0.00 0.00 1504.00 846.50" xmlns="http://www.w3.org/2000/svg" xmlns:xlink="http://www.w3.org/1999/xlink">
<g id="graph0" class="graph" transform="scale(1 1) rotate(0) translate(4 842.5)">
<title>LuigiRaceway::BeginPlay</title>
<!-- Node1 -->
<g id="Node000001" class="node">
<title>Node1</title>
<g id="a_Node000001"><a xlink:title=" ">
<polygon fill="#999999" stroke="#666666" points="138,-753 0,-753 0,-734 138,-734 138,-753"/>
<text text-anchor="middle" x="69" y="-741" font-family="Helvetica,sans-Serif" font-size="10.00">LuigiRaceway::BeginPlay</text>
</a>
</g>
</g>
<!-- Node2 -->
<g id="Node000002" class="node">
<title>Node2</title>
<g id="a_Node000002"><a xlink:href="classOBombKart.html#a9fa11c43dd1885221b160bd688eceff0" target="_top" xlink:title=" ">
<polygon fill="white" stroke="#666666" points="294.5,-753 183.5,-753 183.5,-734 294.5,-734 294.5,-753"/>
<text text-anchor="middle" x="239" y="-741" font-family="Helvetica,sans-Serif" font-size="10.00">OBombKart::Spawn</text>
</a>
</g>
</g>
<!-- Node1&#45;&gt;Node2 -->
<g id="edge1_Node000001_Node000002" class="edge">
<title>Node1&#45;&gt;Node2</title>
<g id="a_edge1_Node000001_Node000002"><a xlink:title=" ">
<path fill="none" stroke="#63b8ff" d="M138.33,-743.5C149.81,-743.5 161.69,-743.5 173.08,-743.5"/>
<polygon fill="#63b8ff" stroke="#63b8ff" points="173.37,-747 183.37,-743.5 173.37,-740 173.37,-747"/>
</a>
</g>
</g>
<!-- Node10 -->
<g id="Node000010" class="node">
<title>Node10</title>
<g id="a_Node000010"><a xlink:href="classOGrandPrixBalloons.html#a6f6d4d32fc44d2b1f3c3b1c3099e2cb5" target="_top" xlink:title=" ">
<polygon fill="white" stroke="#666666" points="296,-838.5 182,-838.5 182,-808.5 296,-808.5 296,-838.5"/>
<text text-anchor="start" x="190" y="-826.5" font-family="Helvetica,sans-Serif" font-size="10.00">OGrandPrixBalloons</text>
<text text-anchor="middle" x="239" y="-815.5" font-family="Helvetica,sans-Serif" font-size="10.00">::Spawn</text>
</a>
</g>
</g>
<!-- Node1&#45;&gt;Node10 -->
<g id="edge9_Node000001_Node000010" class="edge">
<title>Node1&#45;&gt;Node10</title>
<g id="a_edge9_Node000001_Node000010"><a xlink:title=" ">
<path fill="none" stroke="#63b8ff" d="M86.22,-753.13C106.4,-764.88 142.07,-785 174,-799.5 177.83,-801.24 181.82,-802.96 185.87,-804.63"/>
<polygon fill="#63b8ff" stroke="#63b8ff" points="184.74,-807.95 195.33,-808.42 187.35,-801.45 184.74,-807.95"/>
</a>
</g>
</g>
<!-- Node14 -->
<g id="Node000014" class="node">
<title>Node14</title>
<g id="a_Node000014"><a xlink:href="classOHotAirBalloon.html#a32b443047f84888dd4b4717e8f03920c" target="_top" xlink:title=" ">
<polygon fill="white" stroke="#666666" points="304,-790 174,-790 174,-771 304,-771 304,-790"/>
<text text-anchor="middle" x="239" y="-778" font-family="Helvetica,sans-Serif" font-size="10.00">OHotAirBalloon::Spawn</text>
</a>
</g>
</g>
<!-- Node1&#45;&gt;Node14 -->
<g id="edge15_Node000001_Node000014" class="edge">
<title>Node1&#45;&gt;Node14</title>
<g id="a_edge15_Node000001_Node000014"><a xlink:title=" ">
<path fill="none" stroke="#63b8ff" d="M113.26,-753.03C135.03,-757.82 161.61,-763.68 184.63,-768.75"/>
<polygon fill="#63b8ff" stroke="#63b8ff" points="184.07,-772.21 194.59,-770.94 185.58,-765.37 184.07,-772.21"/>
</a>
</g>
</g>
<!-- Node17 -->
<g id="Node000017" class="node">
<title>Node17</title>
<g id="a_Node000017"><a xlink:href="actors_8c.html#ac586c2534258d0f108e15fd88751b760" target="_top" xlink:title=" ">
<polygon fill="white" stroke="#666666" points="302.5,-612 175.5,-612 175.5,-593 302.5,-593 302.5,-612"/>
<text text-anchor="middle" x="239" y="-600" font-family="Helvetica,sans-Serif" font-size="10.00">spawn_all_item_boxes</text>
</a>
</g>
</g>
<!-- Node1&#45;&gt;Node17 -->
<g id="edge21_Node000001_Node000017" class="edge">
<title>Node1&#45;&gt;Node17</title>
<g id="a_edge21_Node000001_Node000017"><a xlink:title=" ">
<path fill="none" stroke="#63b8ff" d="M81.55,-733.81C109.96,-709.96 183.51,-648.24 218.69,-618.7"/>
<polygon fill="#63b8ff" stroke="#63b8ff" points="220.96,-621.37 226.37,-612.26 216.46,-616.01 220.96,-621.37"/>
</a>
</g>
</g>
<!-- Node44 -->
<g id="Node000044" class="node">
<title>Node44</title>
<g id="a_Node000044"><a xlink:href="actors_8c.html#aa6c218ad25d2200bdbf85cbbd197d1cd" target="_top" xlink:title=" ">
<polygon fill="white" stroke="#666666" points="282.5,-301 195.5,-301 195.5,-282 282.5,-282 282.5,-301"/>
<text text-anchor="middle" x="239" y="-289" font-family="Helvetica,sans-Serif" font-size="10.00">spawn_foliage</text>
</a>
</g>
</g>
<!-- Node1&#45;&gt;Node44 -->
<g id="edge46_Node000001_Node000044" class="edge">
<title>Node1&#45;&gt;Node44</title>
<g id="a_edge46_Node000001_Node000044"><a xlink:title=" ">
<path fill="none" stroke="#63b8ff" d="M73.67,-733.64C94.88,-676.55 202.03,-388.27 230.85,-310.73"/>
<polygon fill="#63b8ff" stroke="#63b8ff" points="234.18,-311.82 234.38,-301.23 227.62,-309.39 234.18,-311.82"/>
</a>
</g>
</g>
<!-- Node3 -->
<g id="Node000003" class="node">
<title>Node3</title>
<g id="a_Node000003"><a xlink:href="classOBombKart.html#a1566e8d56318b18ad900fbbac9966d9d" target="_top" xlink:title=" ">
<polygon fill="white" stroke="#666666" points="494,-753 359,-753 359,-734 494,-734 494,-753"/>
<text text-anchor="middle" x="426.5" y="-741" font-family="Helvetica,sans-Serif" font-size="10.00">OBombKart::OBombKart</text>
</a>
</g>
</g>
<!-- Node2&#45;&gt;Node3 -->
<g id="edge2_Node000002_Node000003" class="edge">
<title>Node2&#45;&gt;Node3</title>
<g id="a_edge2_Node000002_Node000003"><a xlink:title=" ">
<path fill="none" stroke="#63b8ff" d="M294.65,-743.5C311.53,-743.5 330.44,-743.5 348.52,-743.5"/>
<polygon fill="#63b8ff" stroke="#63b8ff" points="348.76,-747 358.76,-743.5 348.76,-740 348.76,-747"/>
</a>
</g>
</g>
<!-- Node4 -->
<g id="Node000004" class="node">
<title>Node4</title>
<g id="a_Node000004"><a xlink:href="collision_8c.html#a37aa55b3768d001533ad75e7f1b8388a" target="_top" xlink:title=" ">
<polygon fill="white" stroke="#666666" points="864,-95 723,-95 723,-76 864,-76 864,-95"/>
<text text-anchor="middle" x="793.5" y="-83" font-family="Helvetica,sans-Serif" font-size="10.00">check_bounding_collision</text>
</a>
</g>
</g>
<!-- Node3&#45;&gt;Node4 -->
<g id="edge3_Node000003_Node000004" class="edge">
<title>Node3&#45;&gt;Node4</title>
<g id="a_edge3_Node000003_Node000004"><a xlink:title=" ">
<path fill="none" stroke="#63b8ff" d="M494.36,-737.4C501.26,-734.55 507.67,-730.69 513,-725.5 562.43,-677.37 501.24,-624.28 549,-574.5 593.13,-528.51 642.96,-581.57 687,-535.5 717.81,-503.27 774.66,-187.74 789.1,-105.18"/>
<polygon fill="#63b8ff" stroke="#63b8ff" points="792.54,-105.78 790.81,-95.33 785.65,-104.58 792.54,-105.78"/>
</a>
</g>
</g>
<!-- Node8 -->
<g id="Node000008" class="node">
<title>Node8</title>
<g id="a_Node000008"><a xlink:href="update__objects_8c.html#a92856990c4ca5fba1b8e0c61ca832c27" target="_top" xlink:title=" ">
<polygon fill="white" stroke="#666666" points="682,-754 554,-754 554,-735 682,-735 682,-754"/>
<text text-anchor="middle" x="618" y="-742" font-family="Helvetica,sans-Serif" font-size="10.00">find_unused_obj_index</text>
</a>
</g>
</g>
<!-- Node3&#45;&gt;Node8 -->
<g id="edge7_Node000003_Node000008" class="edge">
<title>Node3&#45;&gt;Node8</title>
<g id="a_edge7_Node000003_Node000008"><a xlink:title=" ">
<path fill="none" stroke="#63b8ff" d="M494.04,-743.85C510.12,-743.94 527.38,-744.03 543.74,-744.11"/>
<polygon fill="#63b8ff" stroke="#63b8ff" points="543.78,-747.61 553.8,-744.17 543.82,-740.61 543.78,-747.61"/>
</a>
</g>
</g>
<!-- Node9 -->
<g id="Node000009" class="node">
<title>Node9</title>
<g id="a_Node000009"><a xlink:href="classOObject.html#a629d0dcbb210e289cdf541a91321c86b" target="_top" xlink:title=" ">
<polygon fill="white" stroke="#666666" points="668.5,-791 567.5,-791 567.5,-772 668.5,-772 668.5,-791"/>
<text text-anchor="middle" x="618" y="-779" font-family="Helvetica,sans-Serif" font-size="10.00">OObject::OObject</text>
</a>
</g>
</g>
<!-- Node3&#45;&gt;Node9 -->
<g id="edge8_Node000003_Node000009" class="edge">
<title>Node3&#45;&gt;Node9</title>
<g id="a_edge8_Node000003_Node000009"><a xlink:title=" ">
<path fill="none" stroke="#63b8ff" d="M475.32,-753.09C500.89,-758.22 532.56,-764.57 559.47,-769.96"/>
<polygon fill="#63b8ff" stroke="#63b8ff" points="559.03,-773.45 569.53,-771.98 560.41,-766.58 559.03,-773.45"/>
</a>
</g>
</g>
<!-- Node5 -->
<g id="Node000005" class="node">
<title>Node5</title>
<g id="a_Node000005"><a xlink:href="collision_8c.html#ac312bf382cb40752f6b790a99e7cdcb6" target="_top" xlink:title=" ">
<polygon fill="white" stroke="#666666" points="1027,-132 919,-132 919,-113 1027,-113 1027,-132"/>
<text text-anchor="middle" x="973" y="-120" font-family="Helvetica,sans-Serif" font-size="10.00">check_collision_yx</text>
</a>
</g>
</g>
<!-- Node4&#45;&gt;Node5 -->
<g id="edge4_Node000004_Node000005" class="edge">
<title>Node4&#45;&gt;Node5</title>
<g id="a_edge4_Node000004_Node000005"><a xlink:title=" ">
<path fill="none" stroke="#63b8ff" d="M840.21,-95.03C863.41,-99.86 891.79,-105.78 916.27,-110.88"/>
<polygon fill="#63b8ff" stroke="#63b8ff" points="915.63,-114.33 926.14,-112.94 917.06,-107.47 915.63,-114.33"/>
</a>
</g>
</g>
<!-- Node6 -->
<g id="Node000006" class="node">
<title>Node6</title>
<g id="a_Node000006"><a xlink:href="collision_8c.html#a4b48832a90e984536a0635a016ec4f28" target="_top" xlink:title=" ">
<polygon fill="white" stroke="#666666" points="1026.5,-95 919.5,-95 919.5,-76 1026.5,-76 1026.5,-95"/>
<text text-anchor="middle" x="973" y="-83" font-family="Helvetica,sans-Serif" font-size="10.00">check_collision_zx</text>
</a>
</g>
</g>
<!-- Node4&#45;&gt;Node6 -->
<g id="edge5_Node000004_Node000006" class="edge">
<title>Node4&#45;&gt;Node6</title>
<g id="a_edge5_Node000004_Node000006"><a xlink:title=" ">
<path fill="none" stroke="#63b8ff" d="M864.14,-85.5C878.91,-85.5 894.43,-85.5 908.94,-85.5"/>
<polygon fill="#63b8ff" stroke="#63b8ff" points="909.3,-89 919.3,-85.5 909.3,-82 909.3,-89"/>
</a>
</g>
</g>
<!-- Node7 -->
<g id="Node000007" class="node">
<title>Node7</title>
<g id="a_Node000007"><a xlink:href="collision_8c.html#a21fef964ab48191a1c0341954ef27a40" target="_top" xlink:title=" ">
<polygon fill="white" stroke="#666666" points="1026.5,-58 919.5,-58 919.5,-39 1026.5,-39 1026.5,-58"/>
<text text-anchor="middle" x="973" y="-46" font-family="Helvetica,sans-Serif" font-size="10.00">check_collision_zy</text>
</a>
</g>
</g>
<!-- Node4&#45;&gt;Node7 -->
<g id="edge6_Node000004_Node000007" class="edge">
<title>Node4&#45;&gt;Node7</title>
<g id="a_edge6_Node000004_Node000007"><a xlink:title=" ">
<path fill="none" stroke="#63b8ff" d="M840.21,-75.97C863.41,-71.14 891.79,-65.22 916.27,-60.12"/>
<polygon fill="#63b8ff" stroke="#63b8ff" points="917.06,-63.53 926.14,-58.06 915.63,-56.67 917.06,-63.53"/>
</a>
</g>
</g>
<!-- Node11 -->
<g id="Node000011" class="node">
<title>Node11</title>
<g id="a_Node000011"><a xlink:href="classOGrandPrixBalloons.html#ab5fe216ecd9f44c875e06a71bf79cb90" target="_top" xlink:title=" ">
<polygon fill="white" stroke="#666666" points="486.5,-838.5 366.5,-838.5 366.5,-808.5 486.5,-808.5 486.5,-838.5"/>
<text text-anchor="start" x="374.5" y="-826.5" font-family="Helvetica,sans-Serif" font-size="10.00">OGrandPrixBalloons</text>
<text text-anchor="middle" x="426.5" y="-815.5" font-family="Helvetica,sans-Serif" font-size="10.00">::OGrandPrixBalloons</text>
</a>
</g>
</g>
<!-- Node10&#45;&gt;Node11 -->
<g id="edge10_Node000010_Node000011" class="edge">
<title>Node10&#45;&gt;Node11</title>
<g id="a_edge10_Node000010_Node000011"><a xlink:title=" ">
<path fill="none" stroke="#63b8ff" d="M296.16,-823.5C315.05,-823.5 336.35,-823.5 356.13,-823.5"/>
<polygon fill="#63b8ff" stroke="#63b8ff" points="356.31,-827 366.31,-823.5 356.31,-820 356.31,-827"/>
</a>
</g>
</g>
<!-- Node11&#45;&gt;Node8 -->
<g id="edge11_Node000011_Node000008" class="edge">
<title>Node11&#45;&gt;Node8</title>
<g id="a_edge11_Node000011_Node000008"><a xlink:title=" ">
<path fill="none" stroke="#63b8ff" d="M486.62,-811.21C495.78,-808.1 504.88,-804.25 513,-799.5 532.53,-788.07 529.46,-774.92 549,-763.5 552.69,-761.34 556.64,-759.42 560.7,-757.71"/>
<polygon fill="#63b8ff" stroke="#63b8ff" points="562.21,-760.88 570.34,-754.09 559.75,-754.33 562.21,-760.88"/>
</a>
</g>
</g>
<!-- Node11&#45;&gt;Node9 -->
<g id="edge14_Node000011_Node000009" class="edge">
<title>Node11&#45;&gt;Node9</title>
<g id="a_edge14_Node000011_Node000009"><a xlink:title=" ">
<path fill="none" stroke="#63b8ff" d="M486.68,-810.38C511.39,-804.91 539.87,-798.6 563.89,-793.27"/>
<polygon fill="#63b8ff" stroke="#63b8ff" points="564.88,-796.64 573.89,-791.06 563.37,-789.8 564.88,-796.64"/>
</a>
</g>
</g>
<!-- Node12 -->
<g id="Node000012" class="node">
<title>Node12</title>
<g id="a_Node000012"><a xlink:href="update__objects_8c.html#abdebd086b5ff081f83af3d9205f39cd3" target="_top" xlink:title=" ">
<polygon fill="white" stroke="#666666" points="652,-831 584,-831 584,-812 652,-812 652,-831"/>
<text text-anchor="middle" x="618" y="-819" font-family="Helvetica,sans-Serif" font-size="10.00">init_object</text>
</a>
</g>
</g>
<!-- Node11&#45;&gt;Node12 -->
<g id="edge12_Node000011_Node000012" class="edge">
<title>Node11&#45;&gt;Node12</title>
<g id="a_edge12_Node000011_Node000012"><a xlink:title=" ">
<path fill="none" stroke="#63b8ff" d="M486.68,-822.88C514.84,-822.58 547.9,-822.23 573.67,-821.96"/>
<polygon fill="#63b8ff" stroke="#63b8ff" points="573.92,-825.46 583.88,-821.85 573.84,-818.46 573.92,-825.46"/>
</a>
</g>
</g>
<!-- Node13 -->
<g id="Node000013" class="node">
<title>Node13</title>
<g id="a_Node000013"><a xlink:href="update__objects_8c.html#af20e3f3c403dd4fbea56e358997e515a" target="_top" xlink:title=" ">
<polygon fill="white" stroke="#666666" points="857.5,-831 729.5,-831 729.5,-812 857.5,-812 857.5,-831"/>
<text text-anchor="middle" x="793.5" y="-819" font-family="Helvetica,sans-Serif" font-size="10.00">set_object_timer_state</text>
</a>
</g>
</g>
<!-- Node12&#45;&gt;Node13 -->
<g id="edge13_Node000012_Node000013" class="edge">
<title>Node12&#45;&gt;Node13</title>
<g id="a_edge13_Node000012_Node000013"><a xlink:title=" ">
<path fill="none" stroke="#63b8ff" d="M652.04,-821.5C671.06,-821.5 695.74,-821.5 719.11,-821.5"/>
<polygon fill="#63b8ff" stroke="#63b8ff" points="719.37,-825 729.37,-821.5 719.37,-818 719.37,-825"/>
</a>
</g>
</g>
<!-- Node15 -->
<g id="Node000015" class="node">
<title>Node15</title>
<g id="a_Node000015"><a xlink:href="classOHotAirBalloon.html#a4e18d733a47668186c68872b87f31a1c" target="_top" xlink:title=" ">
<polygon fill="white" stroke="#666666" points="513,-790 340,-790 340,-771 513,-771 513,-790"/>
<text text-anchor="middle" x="426.5" y="-778" font-family="Helvetica,sans-Serif" font-size="10.00">OHotAirBalloon::OHotAirBalloon</text>
</a>
</g>
</g>
<!-- Node14&#45;&gt;Node15 -->
<g id="edge16_Node000014_Node000015" class="edge">
<title>Node14&#45;&gt;Node15</title>
<g id="a_edge16_Node000014_Node000015"><a xlink:title=" ">
<path fill="none" stroke="#63b8ff" d="M304.1,-780.5C312.38,-780.5 321,-780.5 329.65,-780.5"/>
<polygon fill="#63b8ff" stroke="#63b8ff" points="329.81,-784 339.81,-780.5 329.81,-777 329.81,-784"/>
</a>
</g>
</g>
<!-- Node15&#45;&gt;Node8 -->
<g id="edge17_Node000015_Node000008" class="edge">
<title>Node15&#45;&gt;Node8</title>
<g id="a_edge17_Node000015_Node000008"><a xlink:title=" ">
<path fill="none" stroke="#63b8ff" d="M477.79,-770.95C502.08,-766.33 531.42,-760.76 556.89,-755.92"/>
<polygon fill="#63b8ff" stroke="#63b8ff" points="557.64,-759.34 566.81,-754.03 556.33,-752.46 557.64,-759.34"/>
</a>
</g>
</g>
<!-- Node15&#45;&gt;Node9 -->
<g id="edge20_Node000015_Node000009" class="edge">
<title>Node15&#45;&gt;Node9</title>
<g id="a_edge20_Node000015_Node000009"><a xlink:title=" ">
<path fill="none" stroke="#63b8ff" d="M513.1,-780.95C527.87,-781.03 542.95,-781.11 556.86,-781.18"/>
<polygon fill="#63b8ff" stroke="#63b8ff" points="557.24,-784.68 567.26,-781.24 557.27,-777.68 557.24,-784.68"/>
</a>
</g>
</g>
<!-- Node15&#45;&gt;Node12 -->
<g id="edge18_Node000015_Node000012" class="edge">
<title>Node15&#45;&gt;Node12</title>
<g id="a_edge18_Node000015_Node000012"><a xlink:title=" ">
<path fill="none" stroke="#63b8ff" d="M471.45,-790.01C502.3,-796.68 543.34,-805.56 573.98,-812.19"/>
<polygon fill="#63b8ff" stroke="#63b8ff" points="573.42,-815.65 583.94,-814.35 574.9,-808.81 573.42,-815.65"/>
</a>
</g>
</g>
<!-- Node16 -->
<g id="Node000016" class="node">
<title>Node16</title>
<g id="a_Node000016"><a xlink:href="Game_8cpp.html#a2d7429dca77188f881bf1c340271ea90" target="_top" xlink:title=" ">
<polygon fill="white" stroke="#666666" points="664,-717 572,-717 572,-698 664,-698 664,-717"/>
<text text-anchor="middle" x="618" y="-705" font-family="Helvetica,sans-Serif" font-size="10.00">IsLuigiRaceway</text>
</a>
</g>
</g>
<!-- Node15&#45;&gt;Node16 -->
<g id="edge19_Node000015_Node000016" class="edge">
<title>Node15&#45;&gt;Node16</title>
<g id="a_edge19_Node000015_Node000016"><a xlink:title=" ">
<path fill="none" stroke="#63b8ff" d="M492.88,-770.89C499.88,-768.65 506.73,-765.9 513,-762.5 532.9,-751.72 529.46,-737.92 549,-726.5 553.15,-724.08 557.62,-721.95 562.22,-720.08"/>
<polygon fill="#63b8ff" stroke="#63b8ff" points="563.57,-723.32 571.77,-716.62 561.18,-716.74 563.57,-723.32"/>
</a>
</g>
</g>
<!-- Node18 -->
<g id="Node000018" class="node">
<title>Node18</title>
<g id="a_Node000018"><a xlink:href="actors_8c.html#a91fb2e4e37e7c72fea918fe2c1bb4eaf" target="_top" xlink:title=" ">
<polygon fill="white" stroke="#666666" points="496.5,-545 356.5,-545 356.5,-526 496.5,-526 496.5,-545"/>
<text text-anchor="middle" x="426.5" y="-533" font-family="Helvetica,sans-Serif" font-size="10.00">add_actor_to_empty_slot</text>
</a>
</g>
</g>
<!-- Node17&#45;&gt;Node18 -->
<g id="edge22_Node000017_Node000018" class="edge">
<title>Node17&#45;&gt;Node18</title>
<g id="a_edge22_Node000017_Node000018"><a xlink:title=" ">
<path fill="none" stroke="#63b8ff" d="M266.58,-592.9C298.81,-581.26 353.29,-561.58 389.33,-548.56"/>
<polygon fill="#63b8ff" stroke="#63b8ff" points="390.76,-551.77 398.97,-545.08 388.38,-545.19 390.76,-551.77"/>
</a>
</g>
</g>
<!-- Node21 -->
<g id="Node000021" class="node">
<title>Node21</title>
<g id="a_Node000021"><a xlink:href="Game_8cpp.html#a693de7d8b89fe291aafea86bc64a0a2e" target="_top" xlink:title=" ">
<polygon fill="white" stroke="#666666" points="1013,-678 933,-678 933,-659 1013,-659 1013,-678"/>
<text text-anchor="middle" x="973" y="-666" font-family="Helvetica,sans-Serif" font-size="10.00">CM_GetActor</text>
</a>
</g>
</g>
<!-- Node17&#45;&gt;Node21 -->
<g id="edge40_Node000017_Node000021" class="edge">
<title>Node17&#45;&gt;Node21</title>
<g id="a_edge40_Node000017_Node000021"><a xlink:title=" ">
<path fill="none" stroke="#63b8ff" d="M299.65,-612.02C361.77,-621.6 461.97,-636.13 549,-644.5 683.89,-657.47 843.7,-664.2 922.71,-666.96"/>
<polygon fill="#63b8ff" stroke="#63b8ff" points="922.74,-670.46 932.85,-667.3 922.97,-663.46 922.74,-670.46"/>
</a>
</g>
</g>
<!-- Node34 -->
<g id="Node000034" class="node">
<title>Node34</title>
<g id="a_Node000034"><a xlink:href="math__util_8c.html#a79fd07a0971ec96a3ff0801963a2fa7f" target="_top" xlink:title=" ">
<polygon fill="white" stroke="#666666" points="1005,-414 941,-414 941,-395 1005,-395 1005,-414"/>
<text text-anchor="middle" x="973" y="-402" font-family="Helvetica,sans-Serif" font-size="10.00">vec3f_set</text>
</a>
</g>
</g>
<!-- Node17&#45;&gt;Node34 -->
<g id="edge45_Node000017_Node000034" class="edge">
<title>Node17&#45;&gt;Node34</title>
<g id="a_edge45_Node000017_Node000034"><a xlink:title=" ">
<path fill="none" stroke="#63b8ff" d="M248.3,-592.9C264.21,-575.14 300.91,-537.15 340,-517.5 410.51,-482.05 448.09,-522.39 513,-477.5 536.72,-461.09 523.88,-437.68 549,-423.5 613.34,-387.19 837.42,-396.18 930.73,-401.73"/>
<polygon fill="#63b8ff" stroke="#63b8ff" points="930.72,-405.23 940.92,-402.35 931.15,-398.25 930.72,-405.23"/>
</a>
</g>
</g>
<!-- Node40 -->
<g id="Node000040" class="node">
<title>Node40</title>
<g id="a_Node000040"><a xlink:href="math__util_8c.html#a062850863585005ad1d0a75d9ff70693" target="_top" xlink:title=" ">
<polygon fill="white" stroke="#666666" points="465,-716 388,-716 388,-697 465,-697 465,-716"/>
<text text-anchor="middle" x="426.5" y="-704" font-family="Helvetica,sans-Serif" font-size="10.00">random_u16</text>
</a>
</g>
</g>
<!-- Node17&#45;&gt;Node40 -->
<g id="edge41_Node000017_Node000040" class="edge">
<title>Node17&#45;&gt;Node40</title>
<g id="a_edge41_Node000017_Node000040"><a xlink:title=" ">
<path fill="none" stroke="#63b8ff" d="M249.28,-612.13C265.93,-628.85 302.62,-663.31 340,-682.5 351.69,-688.5 365.07,-693.16 377.72,-696.72"/>
<polygon fill="#63b8ff" stroke="#63b8ff" points="377.1,-700.17 387.67,-699.33 378.89,-693.4 377.1,-700.17"/>
</a>
</g>
</g>
<!-- Node41 -->
<g id="Node000041" class="node">
<title>Node41</title>
<g id="a_Node000041"><a xlink:href="collision_8c.html#ad95e9ed2051529d5edee26109fa07427" target="_top" xlink:title=" ">
<polygon fill="white" stroke="#666666" points="495,-469 358,-469 358,-450 495,-450 495,-469"/>
<text text-anchor="middle" x="426.5" y="-457" font-family="Helvetica,sans-Serif" font-size="10.00">spawn_actor_on_surface</text>
</a>
</g>
</g>
<!-- Node17&#45;&gt;Node41 -->
<g id="edge42_Node000017_Node000041" class="edge">
<title>Node17&#45;&gt;Node41</title>
<g id="a_edge42_Node000017_Node000041"><a xlink:title=" ">
<path fill="none" stroke="#63b8ff" d="M245.36,-592.79C258.41,-570.06 294.19,-513.04 340,-483.5 346.91,-479.04 354.65,-475.4 362.57,-472.43"/>
<polygon fill="#63b8ff" stroke="#63b8ff" points="363.95,-475.66 372.29,-469.13 361.69,-469.03 363.95,-475.66"/>
</a>
</g>
</g>
<!-- Node19 -->
<g id="Node000019" class="node">
<title>Node19</title>
<g id="a_Node000019"><a xlink:href="actors_8c.html#a39c023177b5a7686cdd1fc65b8b953e1" target="_top" xlink:title=" ">
<polygon fill="white" stroke="#666666" points="649,-602 587,-602 587,-583 649,-583 649,-602"/>
<text text-anchor="middle" x="618" y="-590" font-family="Helvetica,sans-Serif" font-size="10.00">actor_init</text>
</a>
</g>
</g>
<!-- Node18&#45;&gt;Node19 -->
<g id="edge23_Node000018_Node000019" class="edge">
<title>Node18&#45;&gt;Node19</title>
<g id="a_edge23_Node000018_Node000019"><a xlink:title=" ">
<path fill="none" stroke="#63b8ff" d="M459.22,-545.04C491.54,-554.76 541.76,-569.87 576.83,-580.42"/>
<polygon fill="#63b8ff" stroke="#63b8ff" points="576.16,-583.87 586.75,-583.4 578.18,-577.17 576.16,-583.87"/>
</a>
</g>
</g>
<!-- Node37 -->
<g id="Node000037" class="node">
<title>Node37</title>
<g id="a_Node000037"><a xlink:href="Game_8cpp.html#acea5cfd9ab22f745bd6627869b95a62e" target="_top" xlink:title=" ">
<polygon fill="white" stroke="#666666" points="674,-526 562,-526 562,-507 674,-507 674,-526"/>
<text text-anchor="middle" x="618" y="-514" font-family="Helvetica,sans-Serif" font-size="10.00">CM_ActorBeginPlay</text>
</a>
</g>
</g>
<!-- Node18&#45;&gt;Node37 -->
<g id="edge37_Node000018_Node000037" class="edge">
<title>Node18&#45;&gt;Node37</title>
<g id="a_edge37_Node000018_Node000037"><a xlink:title=" ">
<path fill="none" stroke="#63b8ff" d="M496.72,-528.56C514.66,-526.76 533.92,-524.83 551.66,-523.05"/>
<polygon fill="#63b8ff" stroke="#63b8ff" points="552.3,-526.5 561.9,-522.02 551.6,-519.54 552.3,-526.5"/>
</a>
</g>
</g>
<!-- Node38 -->
<g id="Node000038" class="node">
<title>Node38</title>
<g id="a_Node000038"><a xlink:href="Game_8cpp.html#a42f23077aaa52cb3ea5c7803b7dd6816" target="_top" xlink:title=" ">
<polygon fill="white" stroke="#666666" points="671,-489 565,-489 565,-470 671,-470 671,-489"/>
<text text-anchor="middle" x="618" y="-477" font-family="Helvetica,sans-Serif" font-size="10.00">CM_AddBaseActor</text>
</a>
</g>
</g>
<!-- Node18&#45;&gt;Node38 -->
<g id="edge38_Node000018_Node000038" class="edge">
<title>Node18&#45;&gt;Node38</title>
<g id="a_edge38_Node000018_Node000038"><a xlink:title=" ">
<path fill="none" stroke="#63b8ff" d="M464.35,-526C479.52,-521.87 497.21,-516.77 513,-511.5 529.28,-506.06 532.68,-502.82 549,-497.5 555.1,-495.51 561.55,-493.59 567.96,-491.78"/>
<polygon fill="#63b8ff" stroke="#63b8ff" points="569.23,-495.06 577.94,-489.04 567.37,-488.31 569.23,-495.06"/>
</a>
</g>
</g>
<!-- Node39 -->
<g id="Node000039" class="node">
<title>Node39</title>
<g id="a_Node000039"><a xlink:href="Game_8cpp.html#a0841ffe9a66e95aca42438b9d8ffc3d3" target="_top" xlink:title=" ">
<polygon fill="white" stroke="#666666" points="668.5,-452 567.5,-452 567.5,-433 668.5,-433 668.5,-452"/>
<text text-anchor="middle" x="618" y="-440" font-family="Helvetica,sans-Serif" font-size="10.00">CM_GetActorSize</text>
</a>
</g>
</g>
<!-- Node18&#45;&gt;Node39 -->
<g id="edge39_Node000018_Node000039" class="edge">
<title>Node18&#45;&gt;Node39</title>
<g id="a_edge39_Node000018_Node000039"><a xlink:title=" ">
<path fill="none" stroke="#63b8ff" d="M482.91,-525.91C493.5,-522.47 504.06,-517.81 513,-511.5 535.66,-495.49 526.22,-476.34 549,-460.5 551.84,-458.52 554.89,-456.76 558.06,-455.2"/>
<polygon fill="#63b8ff" stroke="#63b8ff" points="559.44,-458.42 567.27,-451.27 556.7,-451.98 559.44,-458.42"/>
</a>
</g>
</g>
<!-- Node19&#45;&gt;Node4 -->
<g id="edge24_Node000019_Node000004" class="edge">
<title>Node19&#45;&gt;Node4</title>
<g id="a_edge24_Node000019_Node000004"><a xlink:title=" ">
<path fill="none" stroke="#63b8ff" d="M649.14,-588.59C662.53,-585.33 677.39,-579.39 687,-568.5 718.74,-532.55 775.46,-191.33 789.36,-105.18"/>
<polygon fill="#63b8ff" stroke="#63b8ff" points="792.84,-105.6 790.97,-95.17 785.93,-104.49 792.84,-105.6"/>
</a>
</g>
</g>
<!-- Node20 -->
<g id="Node000020" class="node">
<title>Node20</title>
<g id="a_Node000020"><a xlink:href="actors_8c.html#a1a9bccb586242555a9123ebd4ab70f2a" target="_top" xlink:title=" ">
<polygon fill="white" stroke="#666666" points="859.5,-726.5 727.5,-726.5 727.5,-696.5 859.5,-696.5 859.5,-726.5"/>
<text text-anchor="start" x="735.5" y="-714.5" font-family="Helvetica,sans-Serif" font-size="10.00">cleanup_red_and_green</text>
<text text-anchor="middle" x="793.5" y="-703.5" font-family="Helvetica,sans-Serif" font-size="10.00">_shells</text>
</a>
</g>
</g>
<!-- Node19&#45;&gt;Node20 -->
<g id="edge25_Node000019_Node000020" class="edge">
<title>Node19&#45;&gt;Node20</title>
<g id="a_edge25_Node000019_Node000020"><a xlink:title=" ">
<path fill="none" stroke="#63b8ff" d="M632.9,-602.04C660.75,-621.13 723.92,-664.46 761.9,-690.51"/>
<polygon fill="#63b8ff" stroke="#63b8ff" points="760.3,-693.66 770.52,-696.43 764.25,-687.88 760.3,-693.66"/>
</a>
</g>
</g>
<!-- Node33 -->
<g id="Node000033" class="node">
<title>Node33</title>
<g id="a_Node000033"><a xlink:href="collision_8c.html#ad72fef3ffe32191d73b1822f512ebf3f" target="_top" xlink:title=" ">
<polygon fill="white" stroke="#666666" points="841,-490 746,-490 746,-471 841,-471 841,-490"/>
<text text-anchor="middle" x="793.5" y="-478" font-family="Helvetica,sans-Serif" font-size="10.00">func_802AAAAC</text>
</a>
</g>
</g>
<!-- Node19&#45;&gt;Node33 -->
<g id="edge33_Node000019_Node000033" class="edge">
<title>Node19&#45;&gt;Node33</title>
<g id="a_edge33_Node000019_Node000033"><a xlink:title=" ">
<path fill="none" stroke="#63b8ff" d="M649.17,-584.51C661.37,-580.61 675.3,-575.28 687,-568.5 705.27,-557.92 706.84,-551.08 723,-537.5 739.62,-523.53 758.7,-507.91 772.66,-496.56"/>
<polygon fill="#63b8ff" stroke="#63b8ff" points="775.07,-499.12 780.62,-490.1 770.65,-493.68 775.07,-499.12"/>
</a>
</g>
</g>
<!-- Node35 -->
<g id="Node000035" class="node">
<title>Node35</title>
<g id="a_Node000035"><a xlink:href="math__util_8c.html#af7b470ed76fce07b8042a47c96e5690b" target="_top" xlink:title=" ">
<polygon fill="white" stroke="#666666" points="847,-602 740,-602 740,-583 847,-583 847,-602"/>
<text text-anchor="middle" x="793.5" y="-590" font-family="Helvetica,sans-Serif" font-size="10.00">vec3f_copy_return</text>
</a>
</g>
</g>
<!-- Node19&#45;&gt;Node35 -->
<g id="edge35_Node000019_Node000035" class="edge">
<title>Node19&#45;&gt;Node35</title>
<g id="a_edge35_Node000019_Node000035"><a xlink:title=" ">
<path fill="none" stroke="#63b8ff" d="M649.22,-592.5C671.35,-592.5 702.16,-592.5 729.55,-592.5"/>
<polygon fill="#63b8ff" stroke="#63b8ff" points="729.85,-596 739.85,-592.5 729.85,-589 729.85,-596"/>
</a>
</g>
</g>
<!-- Node36 -->
<g id="Node000036" class="node">
<title>Node36</title>
<g id="a_Node000036"><a xlink:href="math__util_8c.html#a0e270ee67600c8c9c2f140c647d008a1" target="_top" xlink:title=" ">
<polygon fill="white" stroke="#666666" points="830.5,-565 756.5,-565 756.5,-546 830.5,-546 830.5,-565"/>
<text text-anchor="middle" x="793.5" y="-553" font-family="Helvetica,sans-Serif" font-size="10.00">vec3s_copy</text>
</a>
</g>
</g>
<!-- Node19&#45;&gt;Node36 -->
<g id="edge36_Node000019_Node000036" class="edge">
<title>Node19&#45;&gt;Node36</title>
<g id="a_edge36_Node000019_Node000036"><a xlink:title=" ">
<path fill="none" stroke="#63b8ff" d="M649.22,-586.06C676,-580.34 715.51,-571.92 746.26,-565.36"/>
<polygon fill="#63b8ff" stroke="#63b8ff" points="747.27,-568.72 756.32,-563.22 745.81,-561.88 747.27,-568.72"/>
</a>
</g>
</g>
<!-- Node20&#45;&gt;Node21 -->
<g id="edge26_Node000020_Node000021" class="edge">
<title>Node20&#45;&gt;Node21</title>
<g id="a_edge26_Node000020_Node000021"><a xlink:title=" ">
<path fill="none" stroke="#63b8ff" d="M856.58,-696.46C878.4,-691.17 902.6,-685.31 923.17,-680.33"/>
<polygon fill="#63b8ff" stroke="#63b8ff" points="924.06,-683.71 932.96,-677.96 922.41,-676.91 924.06,-683.71"/>
</a>
</g>
</g>
<!-- Node22 -->
<g id="Node000022" class="node">
<title>Node22</title>
<g id="a_Node000022"><a xlink:href="code__80005FD0_8c.html#ad301b978cdd3c4cc190b10be050d51d8" target="_top" xlink:title=" ">
<polygon fill="white" stroke="#666666" points="1046,-766.5 900,-766.5 900,-736.5 1046,-736.5 1046,-766.5"/>
<text text-anchor="start" x="908" y="-754.5" font-family="Helvetica,sans-Serif" font-size="10.00">delete_actor_in_unexpired</text>
<text text-anchor="middle" x="973" y="-743.5" font-family="Helvetica,sans-Serif" font-size="10.00">_actor_list</text>
</a>
</g>
</g>
<!-- Node20&#45;&gt;Node22 -->
<g id="edge27_Node000020_Node000022" class="edge">
<title>Node20&#45;&gt;Node22</title>
<g id="a_edge27_Node000020_Node000022"><a xlink:title=" ">
<path fill="none" stroke="#63b8ff" d="M859.59,-726.17C871.26,-728.8 883.52,-731.56 895.48,-734.26"/>
<polygon fill="#63b8ff" stroke="#63b8ff" points="894.91,-737.72 905.43,-736.5 896.45,-730.89 894.91,-737.72"/>
</a>
</g>
</g>
<!-- Node23 -->
<g id="Node000023" class="node">
<title>Node23</title>
<g id="a_Node000023"><a xlink:href="actors_8c.html#a694ec6ef7548b8618aeb35c038d3a9b9" target="_top" xlink:title=" ">
<polygon fill="white" stroke="#666666" points="1014.5,-718 931.5,-718 931.5,-699 1014.5,-699 1014.5,-718"/>
<text text-anchor="middle" x="973" y="-706" font-family="Helvetica,sans-Serif" font-size="10.00">destroy_actor</text>
</a>
</g>
</g>
<!-- Node20&#45;&gt;Node23 -->
<g id="edge28_Node000020_Node000023" class="edge">
<title>Node20&#45;&gt;Node23</title>
<g id="a_edge28_Node000020_Node000023"><a xlink:title=" ">
<path fill="none" stroke="#63b8ff" d="M859.59,-710.4C879.97,-710.06 902.14,-709.68 921.37,-709.36"/>
<polygon fill="#63b8ff" stroke="#63b8ff" points="921.49,-712.85 931.43,-709.19 921.37,-705.86 921.49,-712.85"/>
</a>
</g>
</g>
<!-- Node24 -->
<g id="Node000024" class="node">
<title>Node24</title>
<g id="a_Node000024"><a xlink:href="actors_8c.html#a12dc3ccac4c7d8569eadac0af4fd6f9f" target="_top" xlink:title=" ">
<polygon fill="white" stroke="#666666" points="1240,-718 1082,-718 1082,-699 1240,-699 1240,-718"/>
<text text-anchor="middle" x="1161" y="-706" font-family="Helvetica,sans-Serif" font-size="10.00">play_sound_before_despawn</text>
</a>
</g>
</g>
<!-- Node23&#45;&gt;Node24 -->
<g id="edge29_Node000023_Node000024" class="edge">
<title>Node23&#45;&gt;Node24</title>
<g id="a_edge29_Node000023_Node000024"><a xlink:title=" ">
<path fill="none" stroke="#63b8ff" d="M1014.82,-708.5C1031.65,-708.5 1051.86,-708.5 1071.77,-708.5"/>
<polygon fill="#63b8ff" stroke="#63b8ff" points="1071.82,-712 1081.82,-708.5 1071.82,-705 1071.82,-712"/>
</a>
</g>
</g>
<!-- Node25 -->
<g id="Node000025" class="node">
<title>Node25</title>
<g id="a_Node000025"><a xlink:href="external_8c.html#ae72057869772019e4464c87d4e16c682" target="_top" xlink:title=" ">
<polygon fill="white" stroke="#666666" points="1368,-718 1276,-718 1276,-699 1368,-699 1368,-718"/>
<text text-anchor="middle" x="1322" y="-706" font-family="Helvetica,sans-Serif" font-size="10.00">func_800C99E0</text>
</a>
</g>
</g>
<!-- Node24&#45;&gt;Node25 -->
<g id="edge30_Node000024_Node000025" class="edge">
<title>Node24&#45;&gt;Node25</title>
<g id="a_edge30_Node000024_Node000025"><a xlink:title=" ">
<path fill="none" stroke="#63b8ff" d="M1240.1,-708.5C1248.72,-708.5 1257.35,-708.5 1265.61,-708.5"/>
<polygon fill="#63b8ff" stroke="#63b8ff" points="1265.83,-712 1275.83,-708.5 1265.83,-705 1265.83,-712"/>
</a>
</g>
</g>
<!-- Node26 -->
<g id="Node000026" class="node">
<title>Node26</title>
<g id="a_Node000026"><a xlink:href="external_8c.html#aeb87c527482a244173df36a1f3d4f446" target="_top" xlink:title=" ">
<polygon fill="white" stroke="#666666" points="1496,-737 1404,-737 1404,-718 1496,-718 1496,-737"/>
<text text-anchor="middle" x="1450" y="-725" font-family="Helvetica,sans-Serif" font-size="10.00">func_800C21E8</text>
</a>
</g>
</g>
<!-- Node25&#45;&gt;Node26 -->
<g id="edge31_Node000025_Node000026" class="edge">
<title>Node25&#45;&gt;Node26</title>
<g id="a_edge31_Node000025_Node000026"><a xlink:title=" ">
<path fill="none" stroke="#63b8ff" d="M1368.13,-715.31C1376.46,-716.56 1385.23,-717.88 1393.81,-719.18"/>
<polygon fill="#63b8ff" stroke="#63b8ff" points="1393.35,-722.65 1403.76,-720.68 1394.39,-715.73 1393.35,-722.65"/>
</a>
</g>
</g>
<!-- Node27 -->
<g id="Node000027" class="node">
<title>Node27</title>
<g id="a_Node000027"><a xlink:href="external_8c.html#a028d40421b90c38f68ebfd5acc626f2e" target="_top" xlink:title=" ">
<polygon fill="#fff0f0" stroke="red" points="1496,-700 1404,-700 1404,-681 1496,-681 1496,-700"/>
<text text-anchor="middle" x="1450" y="-688" font-family="Helvetica,sans-Serif" font-size="10.00">func_800C5578</text>
</a>
</g>
</g>
<!-- Node25&#45;&gt;Node27 -->
<g id="edge32_Node000025_Node000027" class="edge">
<title>Node25&#45;&gt;Node27</title>
<g id="a_edge32_Node000025_Node000027"><a xlink:title=" ">
<path fill="none" stroke="#63b8ff" d="M1368.13,-702.05C1376.46,-700.86 1385.23,-699.61 1393.81,-698.38"/>
<polygon fill="#63b8ff" stroke="#63b8ff" points="1394.35,-701.84 1403.76,-696.96 1393.36,-694.91 1394.35,-701.84"/>
</a>
</g>
</g>
<!-- Node33&#45;&gt;Node34 -->
<g id="edge34_Node000033_Node000034" class="edge">
<title>Node33&#45;&gt;Node34</title>
<g id="a_edge34_Node000033_Node000034"><a xlink:title=" ">
<path fill="none" stroke="#63b8ff" d="M816.98,-470.87C848.19,-457.51 904.8,-433.27 940.29,-418.08"/>
<polygon fill="#63b8ff" stroke="#63b8ff" points="941.89,-421.2 949.7,-414.05 939.13,-414.77 941.89,-421.2"/>
</a>
</g>
</g>
<!-- Node42 -->
<g id="Node000042" class="node">
<title>Node42</title>
<g id="a_Node000042"><a xlink:href="collision_8c.html#a6527a2135a10909cdf9a1fd731be5628" target="_top" xlink:title=" ">
<polygon fill="white" stroke="#666666" points="687,-328 549,-328 549,-309 687,-309 687,-328"/>
<text text-anchor="middle" x="618" y="-316" font-family="Helvetica,sans-Serif" font-size="10.00">calculate_surface_height</text>
</a>
</g>
</g>
<!-- Node41&#45;&gt;Node42 -->
<g id="edge43_Node000041_Node000042" class="edge">
<title>Node41&#45;&gt;Node42</title>
<g id="a_edge43_Node000041_Node000042"><a xlink:title=" ">
<path fill="none" stroke="#63b8ff" d="M489.17,-449.88C497.9,-446.43 506.21,-441.78 513,-435.5 547.07,-404 514.91,-368.98 549,-337.5 550.68,-335.95 552.48,-334.52 554.37,-333.2"/>
<polygon fill="#63b8ff" stroke="#63b8ff" points="556.23,-336.17 563.16,-328.16 552.75,-330.1 556.23,-336.17"/>
</a>
</g>
</g>
<!-- Node43 -->
<g id="Node000043" class="node">
<title>Node43</title>
<g id="a_Node000043"><a xlink:href="collision_8c.html#a0fe340ccfe1d926a592ea9a0c84d7574" target="_top" xlink:title=" ">
<polygon fill="white" stroke="#666666" points="684,-376.5 552,-376.5 552,-346.5 684,-346.5 684,-376.5"/>
<text text-anchor="start" x="560" y="-364.5" font-family="Helvetica,sans-Serif" font-size="10.00">check_horizontally</text>
<text text-anchor="middle" x="618" y="-353.5" font-family="Helvetica,sans-Serif" font-size="10.00">_colliding_with_triangle</text>
</a>
</g>
</g>
<!-- Node41&#45;&gt;Node43 -->
<g id="edge44_Node000041_Node000043" class="edge">
<title>Node41&#45;&gt;Node43</title>
<g id="a_edge44_Node000041_Node000043"><a xlink:title=" ">
<path fill="none" stroke="#63b8ff" d="M481.27,-449.91C492.33,-446.46 503.49,-441.8 513,-435.5 534.36,-421.36 528.6,-405.99 549,-390.5 553.47,-387.1 558.4,-384.02 563.5,-381.24"/>
<polygon fill="#63b8ff" stroke="#63b8ff" points="565.44,-384.19 572.8,-376.58 562.29,-377.93 565.44,-384.19"/>
</a>
</g>
</g>
<!-- Node44&#45;&gt;Node4 -->
<g id="edge49_Node000044_Node000004" class="edge">
<title>Node44&#45;&gt;Node4</title>
<g id="a_edge49_Node000044_Node000004"><a xlink:title=" ">
<path fill="none" stroke="#63b8ff" d="M241.92,-281.72C248.68,-250.14 274.66,-150.53 340,-109.5 400,-71.82 599.59,-75.28 712.63,-80.65"/>
<polygon fill="#63b8ff" stroke="#63b8ff" points="712.8,-84.16 722.96,-81.15 713.14,-77.17 712.8,-84.16"/>
</a>
</g>
</g>
<!-- Node44&#45;&gt;Node16 -->
<g id="edge59_Node000044_Node000016" class="edge">
<title>Node44&#45;&gt;Node16</title>
<g id="a_edge59_Node000044_Node000016"><a xlink:title=" ">
<path fill="none" stroke="#63b8ff" d="M240.14,-301.25C241.29,-343.66 251.46,-514.13 340,-606.5 372.16,-640.05 498.04,-676.81 568.53,-695.36"/>
<polygon fill="#63b8ff" stroke="#63b8ff" points="567.95,-698.82 578.5,-697.96 569.71,-692.05 567.95,-698.82"/>
</a>
</g>
</g>
<!-- Node44&#45;&gt;Node18 -->
<g id="edge47_Node000044_Node000018" class="edge">
<title>Node44&#45;&gt;Node18</title>
<g id="a_edge47_Node000044_Node000018"><a xlink:title=" ">
<path fill="none" stroke="#63b8ff" d="M243.38,-301.4C253.85,-330.95 288.18,-420.06 340,-477.5 356.27,-495.53 379.25,-510.71 397.28,-521.02"/>
<polygon fill="#63b8ff" stroke="#63b8ff" points="395.76,-524.17 406.2,-525.95 399.15,-518.05 395.76,-524.17"/>
</a>
</g>
</g>
<!-- Node44&#45;&gt;Node21 -->
<g id="edge50_Node000044_Node000021" class="edge">
<title>Node44&#45;&gt;Node21</title>
<g id="a_edge50_Node000044_Node000021"><a xlink:title=" ">
<path fill="none" stroke="#63b8ff" d="M240.63,-301.09C243.69,-339.31 260.23,-482.12 340,-554.5 411.3,-619.2 454.63,-592.43 549,-611.5 687.44,-639.48 724.05,-634.45 864,-653.5 883.23,-656.12 904.38,-659.04 922.82,-661.61"/>
<polygon fill="#63b8ff" stroke="#63b8ff" points="922.38,-665.08 932.76,-663 923.34,-658.15 922.38,-665.08"/>
</a>
</g>
</g>
<!-- Node44&#45;&gt;Node34 -->
<g id="edge64_Node000044_Node000034" class="edge">
<title>Node44&#45;&gt;Node34</title>
<g id="a_edge64_Node000044_Node000034"><a xlink:title=" ">
<path fill="none" stroke="#63b8ff" d="M242.93,-281.78C251.96,-253.83 282.27,-173.28 340,-142.5 407.85,-106.32 438.68,-122.78 513,-142.5 701.08,-192.4 892.54,-339.42 952.71,-388.41"/>
<polygon fill="#63b8ff" stroke="#63b8ff" points="950.66,-391.26 960.61,-394.9 955.11,-385.85 950.66,-391.26"/>
</a>
</g>
</g>
<!-- Node44&#45;&gt;Node42 -->
<g id="edge48_Node000044_Node000042" class="edge">
<title>Node44&#45;&gt;Node42</title>
<g id="a_edge48_Node000044_Node000042"><a xlink:title=" ">
<path fill="none" stroke="#63b8ff" d="M245.11,-301.3C257.62,-324.11 292.32,-380.41 340,-401.5 410.32,-432.61 446.63,-440.32 513,-401.5 541.17,-385.02 523.33,-357.65 549,-337.5 551.31,-335.69 553.77,-334.05 556.35,-332.57"/>
<polygon fill="#63b8ff" stroke="#63b8ff" points="558.03,-335.65 565.48,-328.11 554.96,-329.36 558.03,-335.65"/>
</a>
</g>
</g>
<!-- Node45 -->
<g id="Node000045" class="node">
<title>Node45</title>
<g id="a_Node000045"><a xlink:href="actors_8c.html#a6fd7dc3bc34357287535b6f06ab7d85c" target="_top" xlink:title=" ">
<polygon fill="white" stroke="#666666" points="664,-57 572,-57 572,-38 664,-38 664,-57"/>
<text text-anchor="middle" x="618" y="-45" font-family="Helvetica,sans-Serif" font-size="10.00">func_802976D8</text>
</a>
</g>
</g>
<!-- Node44&#45;&gt;Node45 -->
<g id="edge51_Node000044_Node000045" class="edge">
<title>Node44&#45;&gt;Node45</title>
<g id="a_edge51_Node000044_Node000045"><a xlink:title=" ">
<path fill="none" stroke="#63b8ff" d="M241.02,-281.89C245.31,-246.71 265.31,-124.29 340,-71.5 405.12,-25.47 501.54,-28.85 561.75,-37.04"/>
<polygon fill="#63b8ff" stroke="#63b8ff" points="561.42,-40.53 571.82,-38.5 562.43,-33.61 561.42,-40.53"/>
</a>
</g>
</g>
<!-- Node46 -->
<g id="Node000046" class="node">
<title>Node46</title>
<g id="a_Node000046"><a xlink:href="actors_8c.html#a09d879c67b2c1430dd8ba2d5c9c136e1" target="_top" xlink:title=" ">
<polygon fill="white" stroke="#666666" points="472.5,-19 380.5,-19 380.5,0 472.5,0 472.5,-19"/>
<text text-anchor="middle" x="426.5" y="-7" font-family="Helvetica,sans-Serif" font-size="10.00">func_802976EC</text>
</a>
</g>
</g>
<!-- Node44&#45;&gt;Node46 -->
<g id="edge52_Node000044_Node000046" class="edge">
<title>Node44&#45;&gt;Node46</title>
<g id="a_edge52_Node000044_Node000046"><a xlink:title=" ">
<path fill="none" stroke="#63b8ff" d="M240.74,-281.84C244.14,-244.02 261.77,-104.55 340,-33.5 348.56,-25.72 359.45,-20.44 370.56,-16.87"/>
<polygon fill="#63b8ff" stroke="#63b8ff" points="371.64,-20.2 380.33,-14.14 369.76,-13.45 371.64,-20.2"/>
</a>
</g>
</g>
<!-- Node49 -->
<g id="Node000049" class="node">
<title>Node49</title>
<g id="a_Node000049"><a xlink:href="Game_8cpp.html#a8ebd6a4d970e4333ab5a9dd66c3d9c48" target="_top" xlink:title=" ">
<polygon fill="white" stroke="#666666" points="475,-393 378,-393 378,-374 475,-374 475,-393"/>
<text text-anchor="middle" x="426.5" y="-381" font-family="Helvetica,sans-Serif" font-size="10.00">IsBowsersCastle</text>
</a>
</g>
</g>
<!-- Node44&#45;&gt;Node49 -->
<g id="edge56_Node000044_Node000049" class="edge">
<title>Node44&#45;&gt;Node49</title>
<g id="a_edge56_Node000044_Node000049"><a xlink:title=" ">
<path fill="none" stroke="#63b8ff" d="M250.17,-301.19C267.29,-316.96 303.57,-348.03 340,-364.5 348.74,-368.45 358.37,-371.61 367.91,-374.13"/>
<polygon fill="#63b8ff" stroke="#63b8ff" points="367.24,-377.56 377.78,-376.52 368.89,-370.76 367.24,-377.56"/>
</a>
</g>
</g>
<!-- Node50 -->
<g id="Node000050" class="node">
<title>Node50</title>
<g id="a_Node000050"><a xlink:href="Game_8cpp.html#af4bf996258124d6741c70e4fa918ef03" target="_top" xlink:title=" ">
<polygon fill="white" stroke="#666666" points="479,-356 374,-356 374,-337 479,-337 479,-356"/>
<text text-anchor="middle" x="426.5" y="-344" font-family="Helvetica,sans-Serif" font-size="10.00">IsFrappeSnowland</text>
</a>
</g>
</g>
<!-- Node44&#45;&gt;Node50 -->
<g id="edge57_Node000044_Node000050" class="edge">
<title>Node44&#45;&gt;Node50</title>
<g id="a_edge57_Node000044_Node000050"><a xlink:title=" ">
<path fill="none" stroke="#63b8ff" d="M263.97,-301.1C284.05,-308.91 313.59,-319.85 340,-327.5 348.79,-330.05 358.18,-332.45 367.4,-334.63"/>
<polygon fill="#63b8ff" stroke="#63b8ff" points="366.76,-338.08 377.29,-336.91 368.33,-331.26 366.76,-338.08"/>
</a>
</g>
</g>
<!-- Node51 -->
<g id="Node000051" class="node">
<title>Node51</title>
<g id="a_Node000051"><a xlink:href="Game_8cpp.html#ad474b8b257813cceeae25ab5205273c4" target="_top" xlink:title=" ">
<polygon fill="white" stroke="#666666" points="475.5,-319 377.5,-319 377.5,-300 475.5,-300 475.5,-319"/>
<text text-anchor="middle" x="426.5" y="-307" font-family="Helvetica,sans-Serif" font-size="10.00">IsKalimariDesert</text>
</a>
</g>
</g>
<!-- Node44&#45;&gt;Node51 -->
<g id="edge58_Node000044_Node000051" class="edge">
<title>Node44&#45;&gt;Node51</title>
<g id="a_edge58_Node000044_Node000051"><a xlink:title=" ">
<path fill="none" stroke="#63b8ff" d="M282.56,-295.63C307.6,-298.06 339.62,-301.17 367.01,-303.82"/>
<polygon fill="#63b8ff" stroke="#63b8ff" points="366.96,-307.34 377.25,-304.82 367.64,-300.37 366.96,-307.34"/>
</a>
</g>
</g>
<!-- Node52 -->
<g id="Node000052" class="node">
<title>Node52</title>
<g id="a_Node000052"><a xlink:href="Game_8cpp.html#a591286b8b2219a8889cda4cc5d3b8c79" target="_top" xlink:title=" ">
<polygon fill="white" stroke="#666666" points="475,-282 378,-282 378,-263 475,-263 475,-282"/>
<text text-anchor="middle" x="426.5" y="-270" font-family="Helvetica,sans-Serif" font-size="10.00">IsMarioRaceway</text>
</a>
</g>
</g>
<!-- Node44&#45;&gt;Node52 -->
<g id="edge60_Node000044_Node000052" class="edge">
<title>Node44&#45;&gt;Node52</title>
<g id="a_edge60_Node000044_Node000052"><a xlink:title=" ">
<path fill="none" stroke="#63b8ff" d="M282.56,-287.14C307.79,-284.56 340.11,-281.25 367.63,-278.43"/>
<polygon fill="#63b8ff" stroke="#63b8ff" points="368.33,-281.87 377.92,-277.37 367.61,-274.91 368.33,-281.87"/>
</a>
</g>
</g>
<!-- Node53 -->
<g id="Node000053" class="node">
<title>Node53</title>
<g id="a_Node000053"><a xlink:href="Game_8cpp.html#a8a295fe1e3fdfa50223813feaca6d7d6" target="_top" xlink:title=" ">
<polygon fill="white" stroke="#666666" points="472,-245 381,-245 381,-226 472,-226 472,-245"/>
<text text-anchor="middle" x="426.5" y="-233" font-family="Helvetica,sans-Serif" font-size="10.00">IsMooMooFarm</text>
</a>
</g>
</g>
<!-- Node44&#45;&gt;Node53 -->
<g id="edge61_Node000044_Node000053" class="edge">
<title>Node44&#45;&gt;Node53</title>
<g id="a_edge61_Node000044_Node000053"><a xlink:title=" ">
<path fill="none" stroke="#63b8ff" d="M262.3,-281.88C282.34,-273.51 312.73,-261.5 340,-253.5 349.93,-250.59 360.63,-247.95 371,-245.65"/>
<polygon fill="#63b8ff" stroke="#63b8ff" points="371.75,-249.06 380.8,-243.54 370.29,-242.22 371.75,-249.06"/>
</a>
</g>
</g>
<!-- Node54 -->
<g id="Node000054" class="node">
<title>Node54</title>
<g id="a_Node000054"><a xlink:href="Game_8cpp.html#afb0bb7b7bc2b816a7a9fbedcc6c41ab7" target="_top" xlink:title=" ">
<polygon fill="white" stroke="#666666" points="475,-208 378,-208 378,-189 475,-189 475,-208"/>
<text text-anchor="middle" x="426.5" y="-196" font-family="Helvetica,sans-Serif" font-size="10.00">IsRoyalRaceway</text>
</a>
</g>
</g>
<!-- Node44&#45;&gt;Node54 -->
<g id="edge62_Node000044_Node000054" class="edge">
<title>Node44&#45;&gt;Node54</title>
<g id="a_edge62_Node000044_Node000054"><a xlink:title=" ">
<path fill="none" stroke="#63b8ff" d="M249.82,-281.74C266.72,-265.55 303.04,-233.25 340,-216.5 348.72,-212.55 358.33,-209.45 367.87,-207.03"/>
<polygon fill="#63b8ff" stroke="#63b8ff" points="368.79,-210.41 377.74,-204.74 367.21,-203.59 368.79,-210.41"/>
</a>
</g>
</g>
<!-- Node55 -->
<g id="Node000055" class="node">
<title>Node55</title>
<g id="a_Node000055"><a xlink:href="Game_8cpp.html#ab05bb065469940f40a5023c58a8f9e7f" target="_top" xlink:title=" ">
<polygon fill="white" stroke="#666666" points="466.5,-171 386.5,-171 386.5,-152 466.5,-152 466.5,-171"/>
<text text-anchor="middle" x="426.5" y="-159" font-family="Helvetica,sans-Serif" font-size="10.00">IsYoshiValley</text>
</a>
</g>
</g>
<!-- Node44&#45;&gt;Node55 -->
<g id="edge63_Node000044_Node000055" class="edge">
<title>Node44&#45;&gt;Node55</title>
<g id="a_edge63_Node000044_Node000055"><a xlink:title=" ">
<path fill="none" stroke="#63b8ff" d="M245.58,-281.85C258.87,-259.82 294.65,-205.75 340,-179.5 350.87,-173.21 363.66,-169.1 375.98,-166.43"/>
<polygon fill="#63b8ff" stroke="#63b8ff" points="376.99,-169.8 386.17,-164.5 375.69,-162.92 376.99,-169.8"/>
</a>
</g>
</g>
<!-- Node46&#45;&gt;Node45 -->
<g id="edge55_Node000046_Node000045" class="edge">
<title>Node46&#45;&gt;Node45</title>
<g id="a_edge55_Node000046_Node000045"><a xlink:title=" ">
<path fill="none" stroke="#63b8ff" d="M472.89,-18.6C499.61,-23.96 533.6,-30.78 561.85,-36.44"/>
<polygon fill="#63b8ff" stroke="#63b8ff" points="561.49,-39.94 571.98,-38.47 562.86,-33.07 561.49,-39.94"/>
</a>
</g>
</g>
<!-- Node47 -->
<g id="Node000047" class="node">
<title>Node47</title>
<g id="a_Node000047"><a xlink:href="math__util_8c.html#aaa39a297477f56051975259f4bddd829" target="_top" xlink:title=" ">
<polygon fill="white" stroke="#666666" points="643,-19 593,-19 593,0 643,0 643,-19"/>
<text text-anchor="middle" x="618" y="-7" font-family="Helvetica,sans-Serif" font-size="10.00">atan2s</text>
</a>
</g>
</g>
<!-- Node46&#45;&gt;Node47 -->
<g id="edge53_Node000046_Node000047" class="edge">
<title>Node46&#45;&gt;Node47</title>
<g id="a_edge53_Node000046_Node000047"><a xlink:title=" ">
<path fill="none" stroke="#63b8ff" d="M472.89,-9.5C506.58,-9.5 551.83,-9.5 582.57,-9.5"/>
<polygon fill="#63b8ff" stroke="#63b8ff" points="582.8,-13 592.8,-9.5 582.8,-6 582.8,-13"/>
</a>
</g>
</g>
<!-- Node48 -->
<g id="Node000048" class="node">
<title>Node48</title>
<g id="a_Node000048"><a xlink:href="math__util_8c.html#a0273b0ea0783a06996c28669a7438ed9" target="_top" xlink:title=" ">
<polygon fill="white" stroke="#666666" points="834.5,-19 752.5,-19 752.5,0 834.5,0 834.5,-19"/>
<text text-anchor="middle" x="793.5" y="-7" font-family="Helvetica,sans-Serif" font-size="10.00">atan2_lookup</text>
</a>
</g>
</g>
<!-- Node47&#45;&gt;Node48 -->
<g id="edge54_Node000047_Node000048" class="edge">
<title>Node47&#45;&gt;Node48</title>
<g id="a_edge54_Node000047_Node000048"><a xlink:title=" ">
<path fill="none" stroke="#63b8ff" d="M643.12,-9.5C668.58,-9.5 709.45,-9.5 742,-9.5"/>
<polygon fill="#63b8ff" stroke="#63b8ff" points="742.25,-13 752.25,-9.5 742.25,-6 742.25,-13"/>
</a>
</g>
</g>
</g>
</svg>
