<?xml version="1.0" encoding="UTF-8" standalone="no"?>
<!DOCTYPE svg PUBLIC "-//W3C//DTD SVG 1.1//EN"
 "http://www.w3.org/Graphics/SVG/1.1/DTD/svg11.dtd">
<!-- Generated by graphviz version 2.43.0 (0)
 -->
<!-- Title: DKJungle::BeginPlay Pages: 1 -->
<svg width="1812pt" height="647pt"
 viewBox="0.00 0.00 1812.00 647.00" xmlns="http://www.w3.org/2000/svg" xmlns:xlink="http://www.w3.org/1999/xlink">
<g id="graph0" class="graph" transform="scale(1 1) rotate(0) translate(4 643)">
<title>DKJungle::BeginPlay</title>
<!-- Node1 -->
<g id="Node000001" class="node">
<title>Node1</title>
<g id="a_Node000001"><a xlink:title=" ">
<polygon fill="#999999" stroke="#666666" points="116,-349 0,-349 0,-330 116,-330 116,-349"/>
<text text-anchor="middle" x="58" y="-337" font-family="Helvetica,sans-Serif" font-size="10.00">DKJungle::BeginPlay</text>
</a>
</g>
</g>
<!-- Node2 -->
<g id="Node000002" class="node">
<title>Node2</title>
<g id="a_Node000002"><a xlink:href="actors_8c.html#aac3595f7ebb34b17e0b0126796ecbf4a" target="_top" xlink:title=" ">
<polygon fill="white" stroke="#666666" points="256,-442 164,-442 164,-423 256,-423 256,-442"/>
<text text-anchor="middle" x="210" y="-430" font-family="Helvetica,sans-Serif" font-size="10.00">func_80298D10</text>
</a>
</g>
</g>
<!-- Node1&#45;&gt;Node2 -->
<g id="edge1_Node000001_Node000002" class="edge">
<title>Node1&#45;&gt;Node2</title>
<g id="a_edge1_Node000001_Node000002"><a xlink:title=" ">
<path fill="none" stroke="#63b8ff" d="M68.75,-349.22C84.82,-364.76 118.45,-395.3 152,-413.5 155.92,-415.63 160.13,-417.57 164.41,-419.34"/>
<polygon fill="#63b8ff" stroke="#63b8ff" points="163.23,-422.64 173.82,-422.92 165.72,-416.1 163.23,-422.64"/>
</a>
</g>
</g>
<!-- Node3 -->
<g id="Node000003" class="node">
<title>Node3</title>
<g id="a_Node000003"><a xlink:href="code__80005FD0_8c.html#ac09d6179e07d0c2a8e389047c32596ab" target="_top" xlink:title=" ">
<polygon fill="white" stroke="#666666" points="268,-405 152,-405 152,-386 268,-386 268,-405"/>
<text text-anchor="middle" x="210" y="-393" font-family="Helvetica,sans-Serif" font-size="10.00">generate_ferry_path</text>
</a>
</g>
</g>
<!-- Node1&#45;&gt;Node3 -->
<g id="edge2_Node000001_Node000003" class="edge">
<title>Node1&#45;&gt;Node3</title>
<g id="a_edge2_Node000001_Node000003"><a xlink:title=" ">
<path fill="none" stroke="#63b8ff" d="M82.17,-349.14C100.9,-356.84 128.01,-367.74 152,-376.5 157.65,-378.56 163.64,-380.66 169.54,-382.67"/>
<polygon fill="#63b8ff" stroke="#63b8ff" points="168.71,-386.09 179.3,-385.96 170.94,-379.45 168.71,-386.09"/>
</a>
</g>
</g>
<!-- Node6 -->
<g id="Node000006" class="node">
<title>Node6</title>
<g id="a_Node000006"><a xlink:href="actors_8c.html#acf7a2e2500cef03e41aec3bde2103ca9" target="_top" xlink:title=" ">
<polygon fill="white" stroke="#666666" points="420.5,-330 322.5,-330 322.5,-311 420.5,-311 420.5,-330"/>
<text text-anchor="middle" x="371.5" y="-318" font-family="Helvetica,sans-Serif" font-size="10.00">init_kiwano_fruit</text>
</a>
</g>
</g>
<!-- Node1&#45;&gt;Node6 -->
<g id="edge5_Node000001_Node000006" class="edge">
<title>Node1&#45;&gt;Node6</title>
<g id="a_edge5_Node000001_Node000006"><a xlink:title=" ">
<path fill="none" stroke="#63b8ff" d="M116.13,-336.02C171.86,-332.62 256.19,-327.47 312.28,-324.05"/>
<polygon fill="#63b8ff" stroke="#63b8ff" points="312.64,-327.54 322.41,-323.43 312.22,-320.55 312.64,-327.54"/>
</a>
</g>
</g>
<!-- Node33 -->
<g id="Node000033" class="node">
<title>Node33</title>
<g id="a_Node000033"><a xlink:href="classABoat.html#a2a8755582504f510d51f7988b42df18b" target="_top" xlink:title=" ">
<polygon fill="white" stroke="#666666" points="252,-368 168,-368 168,-349 252,-349 252,-368"/>
<text text-anchor="middle" x="210" y="-356" font-family="Helvetica,sans-Serif" font-size="10.00">ABoat::Spawn</text>
</a>
</g>
</g>
<!-- Node1&#45;&gt;Node33 -->
<g id="edge29_Node000001_Node000033" class="edge">
<title>Node1&#45;&gt;Node33</title>
<g id="a_edge29_Node000001_Node000033"><a xlink:title=" ">
<path fill="none" stroke="#63b8ff" d="M116.14,-346.74C129.86,-348.48 144.43,-350.32 157.86,-352.02"/>
<polygon fill="#63b8ff" stroke="#63b8ff" points="157.51,-355.51 167.88,-353.29 158.39,-348.56 157.51,-355.51"/>
</a>
</g>
</g>
<!-- Node46 -->
<g id="Node000046" class="node">
<title>Node46</title>
<g id="a_Node000046"><a xlink:href="classOBombKart.html#a9fa11c43dd1885221b160bd688eceff0" target="_top" xlink:title=" ">
<polygon fill="white" stroke="#666666" points="265.5,-155 154.5,-155 154.5,-136 265.5,-136 265.5,-155"/>
<text text-anchor="middle" x="210" y="-143" font-family="Helvetica,sans-Serif" font-size="10.00">OBombKart::Spawn</text>
</a>
</g>
</g>
<!-- Node1&#45;&gt;Node46 -->
<g id="edge44_Node000001_Node000046" class="edge">
<title>Node1&#45;&gt;Node46</title>
<g id="a_edge44_Node000001_Node000046"><a xlink:title=" ">
<path fill="none" stroke="#63b8ff" d="M66.44,-329.88C90.18,-299.17 164.4,-203.19 195.29,-163.23"/>
<polygon fill="#63b8ff" stroke="#63b8ff" points="198.17,-165.23 201.52,-155.18 192.63,-160.95 198.17,-165.23"/>
</a>
</g>
</g>
<!-- Node50 -->
<g id="Node000050" class="node">
<title>Node50</title>
<g id="a_Node000050"><a xlink:href="actors_8c.html#ac586c2534258d0f108e15fd88751b760" target="_top" xlink:title=" ">
<polygon fill="white" stroke="#666666" points="435,-236 308,-236 308,-217 435,-217 435,-236"/>
<text text-anchor="middle" x="371.5" y="-224" font-family="Helvetica,sans-Serif" font-size="10.00">spawn_all_item_boxes</text>
</a>
</g>
</g>
<!-- Node1&#45;&gt;Node50 -->
<g id="edge49_Node000001_Node000050" class="edge">
<title>Node1&#45;&gt;Node50</title>
<g id="a_edge49_Node000001_Node000050"><a xlink:title=" ">
<path fill="none" stroke="#63b8ff" d="M85.29,-329.96C140.98,-309.76 270.92,-262.62 334.36,-239.61"/>
<polygon fill="#63b8ff" stroke="#63b8ff" points="335.74,-242.83 343.95,-236.13 333.36,-236.25 335.74,-242.83"/>
</a>
</g>
</g>
<!-- Node4 -->
<g id="Node000004" class="node">
<title>Node4</title>
<g id="a_Node000004"><a xlink:href="code__80005FD0_8c.html#a70c4bea6ff8c2dc33df2f2513cdb267e" target="_top" xlink:title=" ">
<polygon fill="white" stroke="#666666" points="423.5,-601 319.5,-601 319.5,-582 423.5,-582 423.5,-601"/>
<text text-anchor="middle" x="371.5" y="-589" font-family="Helvetica,sans-Serif" font-size="10.00">generate_2d_path</text>
</a>
</g>
</g>
<!-- Node3&#45;&gt;Node4 -->
<g id="edge3_Node000003_Node000004" class="edge">
<title>Node3&#45;&gt;Node4</title>
<g id="a_edge3_Node000003_Node000004"><a xlink:title=" ">
<path fill="none" stroke="#63b8ff" d="M255.95,-405.1C260.37,-407.34 264.5,-410.1 268,-413.5 303.06,-447.61 279.16,-475.36 304,-517.5 316.95,-539.47 337.09,-560.71 351.81,-574.76"/>
<polygon fill="#63b8ff" stroke="#63b8ff" points="349.65,-577.53 359.35,-581.78 354.42,-572.41 349.65,-577.53"/>
</a>
</g>
</g>
<!-- Node5 -->
<g id="Node000005" class="node">
<title>Node5</title>
<g id="a_Node000005"><a xlink:href="math_8h.html#a37bde043e94a6f074c78f10518fb5d99" target="_top" xlink:title=" ">
<polygon fill="white" stroke="#666666" points="769,-639 730,-639 730,-620 769,-620 769,-639"/>
<text text-anchor="middle" x="749.5" y="-627" font-family="Helvetica,sans-Serif" font-size="10.00">sqrtf</text>
</a>
</g>
</g>
<!-- Node4&#45;&gt;Node5 -->
<g id="edge4_Node000004_Node000005" class="edge">
<title>Node4&#45;&gt;Node5</title>
<g id="a_edge4_Node000004_Node000005"><a xlink:title=" ">
<path fill="none" stroke="#63b8ff" d="M417.74,-601.03C435.52,-604.48 456.15,-608.11 475,-610.5 563.86,-621.79 669.87,-626.75 719.8,-628.58"/>
<polygon fill="#63b8ff" stroke="#63b8ff" points="719.74,-632.08 729.86,-628.94 719.99,-625.09 719.74,-632.08"/>
</a>
</g>
</g>
<!-- Node7 -->
<g id="Node000007" class="node">
<title>Node7</title>
<g id="a_Node000007"><a xlink:href="actors_8c.html#a91fb2e4e37e7c72fea918fe2c1bb4eaf" target="_top" xlink:title=" ">
<polygon fill="white" stroke="#666666" points="629.5,-368 489.5,-368 489.5,-349 629.5,-349 629.5,-368"/>
<text text-anchor="middle" x="559.5" y="-356" font-family="Helvetica,sans-Serif" font-size="10.00">add_actor_to_empty_slot</text>
</a>
</g>
</g>
<!-- Node6&#45;&gt;Node7 -->
<g id="edge6_Node000006_Node000007" class="edge">
<title>Node6&#45;&gt;Node7</title>
<g id="a_edge6_Node000006_Node000007"><a xlink:title=" ">
<path fill="none" stroke="#63b8ff" d="M419.44,-330.09C444.53,-335.22 475.62,-341.57 502.03,-346.96"/>
<polygon fill="#63b8ff" stroke="#63b8ff" points="501.4,-350.41 511.9,-348.98 502.8,-343.55 501.4,-350.41"/>
</a>
</g>
</g>
<!-- Node14 -->
<g id="Node000014" class="node">
<title>Node14</title>
<g id="a_Node000014"><a xlink:href="Game_8cpp.html#a693de7d8b89fe291aafea86bc64a0a2e" target="_top" xlink:title=" ">
<polygon fill="white" stroke="#666666" points="1145,-293 1065,-293 1065,-274 1145,-274 1145,-293"/>
<text text-anchor="middle" x="1105" y="-281" font-family="Helvetica,sans-Serif" font-size="10.00">CM_GetActor</text>
</a>
</g>
</g>
<!-- Node6&#45;&gt;Node14 -->
<g id="edge28_Node000006_Node000014" class="edge">
<title>Node6&#45;&gt;Node14</title>
<g id="a_edge28_Node000006_Node000014"><a xlink:title=" ">
<path fill="none" stroke="#63b8ff" d="M420.69,-317.47C481.22,-313.72 588.28,-307.24 680,-302.5 815.57,-295.5 975.6,-288.73 1054.67,-285.49"/>
<polygon fill="#63b8ff" stroke="#63b8ff" points="1054.98,-288.98 1064.83,-285.08 1054.69,-281.99 1054.98,-288.98"/>
</a>
</g>
</g>
<!-- Node8 -->
<g id="Node000008" class="node">
<title>Node8</title>
<g id="a_Node000008"><a xlink:href="actors_8c.html#a39c023177b5a7686cdd1fc65b8b953e1" target="_top" xlink:title=" ">
<polygon fill="white" stroke="#666666" points="780.5,-368 718.5,-368 718.5,-349 780.5,-349 780.5,-368"/>
<text text-anchor="middle" x="749.5" y="-356" font-family="Helvetica,sans-Serif" font-size="10.00">actor_init</text>
</a>
</g>
</g>
<!-- Node7&#45;&gt;Node8 -->
<g id="edge7_Node000007_Node000008" class="edge">
<title>Node7&#45;&gt;Node8</title>
<g id="a_edge7_Node000007_Node000008"><a xlink:title=" ">
<path fill="none" stroke="#63b8ff" d="M629.7,-358.5C656.21,-358.5 685.56,-358.5 708.45,-358.5"/>
<polygon fill="#63b8ff" stroke="#63b8ff" points="708.48,-362 718.48,-358.5 708.48,-355 708.48,-362"/>
</a>
</g>
</g>
<!-- Node30 -->
<g id="Node000030" class="node">
<title>Node30</title>
<g id="a_Node000030"><a xlink:href="Game_8cpp.html#acea5cfd9ab22f745bd6627869b95a62e" target="_top" xlink:title=" ">
<polygon fill="white" stroke="#666666" points="805.5,-331 693.5,-331 693.5,-312 805.5,-312 805.5,-331"/>
<text text-anchor="middle" x="749.5" y="-319" font-family="Helvetica,sans-Serif" font-size="10.00">CM_ActorBeginPlay</text>
</a>
</g>
</g>
<!-- Node7&#45;&gt;Node30 -->
<g id="edge25_Node000007_Node000030" class="edge">
<title>Node7&#45;&gt;Node30</title>
<g id="a_edge25_Node000007_Node000030"><a xlink:title=" ">
<path fill="none" stroke="#63b8ff" d="M608.91,-348.97C633.6,-344.11 663.82,-338.17 689.81,-333.05"/>
<polygon fill="#63b8ff" stroke="#63b8ff" points="690.79,-336.43 699.92,-331.06 689.44,-329.56 690.79,-336.43"/>
</a>
</g>
</g>
<!-- Node31 -->
<g id="Node000031" class="node">
<title>Node31</title>
<g id="a_Node000031"><a xlink:href="Game_8cpp.html#a42f23077aaa52cb3ea5c7803b7dd6816" target="_top" xlink:title=" ">
<polygon fill="white" stroke="#666666" points="802.5,-442 696.5,-442 696.5,-423 802.5,-423 802.5,-442"/>
<text text-anchor="middle" x="749.5" y="-430" font-family="Helvetica,sans-Serif" font-size="10.00">CM_AddBaseActor</text>
</a>
</g>
</g>
<!-- Node7&#45;&gt;Node31 -->
<g id="edge26_Node000007_Node000031" class="edge">
<title>Node7&#45;&gt;Node31</title>
<g id="a_edge26_Node000007_Node000031"><a xlink:title=" ">
<path fill="none" stroke="#63b8ff" d="M578.74,-368.02C601.85,-379.81 643.11,-399.99 680,-413.5 686.38,-415.84 693.19,-418.05 699.95,-420.08"/>
<polygon fill="#63b8ff" stroke="#63b8ff" points="699.17,-423.5 709.75,-422.92 701.12,-416.78 699.17,-423.5"/>
</a>
</g>
</g>
<!-- Node32 -->
<g id="Node000032" class="node">
<title>Node32</title>
<g id="a_Node000032"><a xlink:href="Game_8cpp.html#a0841ffe9a66e95aca42438b9d8ffc3d3" target="_top" xlink:title=" ">
<polygon fill="white" stroke="#666666" points="800,-405 699,-405 699,-386 800,-386 800,-405"/>
<text text-anchor="middle" x="749.5" y="-393" font-family="Helvetica,sans-Serif" font-size="10.00">CM_GetActorSize</text>
</a>
</g>
</g>
<!-- Node7&#45;&gt;Node32 -->
<g id="edge27_Node000007_Node000032" class="edge">
<title>Node7&#45;&gt;Node32</title>
<g id="a_edge27_Node000007_Node000032"><a xlink:title=" ">
<path fill="none" stroke="#63b8ff" d="M608.91,-368.03C633.6,-372.89 663.82,-378.83 689.81,-383.95"/>
<polygon fill="#63b8ff" stroke="#63b8ff" points="689.44,-387.44 699.92,-385.94 690.79,-380.57 689.44,-387.44"/>
</a>
</g>
</g>
<!-- Node9 -->
<g id="Node000009" class="node">
<title>Node9</title>
<g id="a_Node000009"><a xlink:href="collision_8c.html#a37aa55b3768d001533ad75e7f1b8388a" target="_top" xlink:title=" ">
<polygon fill="white" stroke="#666666" points="996,-56 855,-56 855,-37 996,-37 996,-56"/>
<text text-anchor="middle" x="925.5" y="-44" font-family="Helvetica,sans-Serif" font-size="10.00">check_bounding_collision</text>
</a>
</g>
</g>
<!-- Node8&#45;&gt;Node9 -->
<g id="edge8_Node000008_Node000009" class="edge">
<title>Node8&#45;&gt;Node9</title>
<g id="a_edge8_Node000008_Node000009"><a xlink:title=" ">
<path fill="none" stroke="#63b8ff" d="M780.83,-356.28C793.97,-353.88 808.69,-349.07 819,-339.5 900.99,-263.44 919.36,-119 923.39,-66.34"/>
<polygon fill="#63b8ff" stroke="#63b8ff" points="926.91,-66.25 924.08,-56.04 919.92,-65.78 926.91,-66.25"/>
</a>
</g>
</g>
<!-- Node13 -->
<g id="Node000013" class="node">
<title>Node13</title>
<g id="a_Node000013"><a xlink:href="actors_8c.html#a1a9bccb586242555a9123ebd4ab70f2a" target="_top" xlink:title=" ">
<polygon fill="white" stroke="#666666" points="991.5,-453.5 859.5,-453.5 859.5,-423.5 991.5,-423.5 991.5,-453.5"/>
<text text-anchor="start" x="867.5" y="-441.5" font-family="Helvetica,sans-Serif" font-size="10.00">cleanup_red_and_green</text>
<text text-anchor="middle" x="925.5" y="-430.5" font-family="Helvetica,sans-Serif" font-size="10.00">_shells</text>
</a>
</g>
</g>
<!-- Node8&#45;&gt;Node13 -->
<g id="edge12_Node000008_Node000013" class="edge">
<title>Node8&#45;&gt;Node13</title>
<g id="a_edge12_Node000008_Node000013"><a xlink:title=" ">
<path fill="none" stroke="#63b8ff" d="M780.53,-362.74C793.03,-365.4 807.32,-369.69 819,-376.5 838.82,-388.06 835.71,-401.08 855,-413.5 858.09,-415.49 861.36,-417.35 864.74,-419.08"/>
<polygon fill="#63b8ff" stroke="#63b8ff" points="863.31,-422.28 873.85,-423.37 866.29,-415.94 863.31,-422.28"/>
</a>
</g>
</g>
<!-- Node26 -->
<g id="Node000026" class="node">
<title>Node26</title>
<g id="a_Node000026"><a xlink:href="collision_8c.html#ad72fef3ffe32191d73b1822f512ebf3f" target="_top" xlink:title=" ">
<polygon fill="white" stroke="#666666" points="973,-331 878,-331 878,-312 973,-312 973,-331"/>
<text text-anchor="middle" x="925.5" y="-319" font-family="Helvetica,sans-Serif" font-size="10.00">func_802AAAAC</text>
</a>
</g>
</g>
<!-- Node8&#45;&gt;Node26 -->
<g id="edge21_Node000008_Node000026" class="edge">
<title>Node8&#45;&gt;Node26</title>
<g id="a_edge21_Node000008_Node000026"><a xlink:title=" ">
<path fill="none" stroke="#63b8ff" d="M780.81,-352.06C805.2,-346.87 840.11,-339.44 869.42,-333.21"/>
<polygon fill="#63b8ff" stroke="#63b8ff" points="870.47,-336.57 879.52,-331.06 869.01,-329.72 870.47,-336.57"/>
</a>
</g>
</g>
<!-- Node28 -->
<g id="Node000028" class="node">
<title>Node28</title>
<g id="a_Node000028"><a xlink:href="math__util_8c.html#af7b470ed76fce07b8042a47c96e5690b" target="_top" xlink:title=" ">
<polygon fill="white" stroke="#666666" points="979,-405 872,-405 872,-386 979,-386 979,-405"/>
<text text-anchor="middle" x="925.5" y="-393" font-family="Helvetica,sans-Serif" font-size="10.00">vec3f_copy_return</text>
</a>
</g>
</g>
<!-- Node8&#45;&gt;Node28 -->
<g id="edge23_Node000008_Node000028" class="edge">
<title>Node8&#45;&gt;Node28</title>
<g id="a_edge23_Node000008_Node000028"><a xlink:title=" ">
<path fill="none" stroke="#63b8ff" d="M780.81,-364.94C805.2,-370.13 840.11,-377.56 869.42,-383.79"/>
<polygon fill="#63b8ff" stroke="#63b8ff" points="869.01,-387.28 879.52,-385.94 870.47,-380.43 869.01,-387.28"/>
</a>
</g>
</g>
<!-- Node29 -->
<g id="Node000029" class="node">
<title>Node29</title>
<g id="a_Node000029"><a xlink:href="math__util_8c.html#a0e270ee67600c8c9c2f140c647d008a1" target="_top" xlink:title=" ">
<polygon fill="white" stroke="#666666" points="962.5,-368 888.5,-368 888.5,-349 962.5,-349 962.5,-368"/>
<text text-anchor="middle" x="925.5" y="-356" font-family="Helvetica,sans-Serif" font-size="10.00">vec3s_copy</text>
</a>
</g>
</g>
<!-- Node8&#45;&gt;Node29 -->
<g id="edge24_Node000008_Node000029" class="edge">
<title>Node8&#45;&gt;Node29</title>
<g id="a_edge24_Node000008_Node000029"><a xlink:title=" ">
<path fill="none" stroke="#63b8ff" d="M780.81,-358.5C807.66,-358.5 847.29,-358.5 878.13,-358.5"/>
<polygon fill="#63b8ff" stroke="#63b8ff" points="878.22,-362 888.22,-358.5 878.22,-355 878.22,-362"/>
</a>
</g>
</g>
<!-- Node10 -->
<g id="Node000010" class="node">
<title>Node10</title>
<g id="a_Node000010"><a xlink:href="collision_8c.html#ac312bf382cb40752f6b790a99e7cdcb6" target="_top" xlink:title=" ">
<polygon fill="white" stroke="#666666" points="1159,-93 1051,-93 1051,-74 1159,-74 1159,-93"/>
<text text-anchor="middle" x="1105" y="-81" font-family="Helvetica,sans-Serif" font-size="10.00">check_collision_yx</text>
</a>
</g>
</g>
<!-- Node9&#45;&gt;Node10 -->
<g id="edge9_Node000009_Node000010" class="edge">
<title>Node9&#45;&gt;Node10</title>
<g id="a_edge9_Node000009_Node000010"><a xlink:title=" ">
<path fill="none" stroke="#63b8ff" d="M972.21,-56.03C995.41,-60.86 1023.79,-66.78 1048.27,-71.88"/>
<polygon fill="#63b8ff" stroke="#63b8ff" points="1047.63,-75.33 1058.14,-73.94 1049.06,-68.47 1047.63,-75.33"/>
</a>
</g>
</g>
<!-- Node11 -->
<g id="Node000011" class="node">
<title>Node11</title>
<g id="a_Node000011"><a xlink:href="collision_8c.html#a4b48832a90e984536a0635a016ec4f28" target="_top" xlink:title=" ">
<polygon fill="white" stroke="#666666" points="1158.5,-56 1051.5,-56 1051.5,-37 1158.5,-37 1158.5,-56"/>
<text text-anchor="middle" x="1105" y="-44" font-family="Helvetica,sans-Serif" font-size="10.00">check_collision_zx</text>
</a>
</g>
</g>
<!-- Node9&#45;&gt;Node11 -->
<g id="edge10_Node000009_Node000011" class="edge">
<title>Node9&#45;&gt;Node11</title>
<g id="a_edge10_Node000009_Node000011"><a xlink:title=" ">
<path fill="none" stroke="#63b8ff" d="M996.14,-46.5C1010.91,-46.5 1026.43,-46.5 1040.94,-46.5"/>
<polygon fill="#63b8ff" stroke="#63b8ff" points="1041.3,-50 1051.3,-46.5 1041.3,-43 1041.3,-50"/>
</a>
</g>
</g>
<!-- Node12 -->
<g id="Node000012" class="node">
<title>Node12</title>
<g id="a_Node000012"><a xlink:href="collision_8c.html#a21fef964ab48191a1c0341954ef27a40" target="_top" xlink:title=" ">
<polygon fill="white" stroke="#666666" points="1158.5,-19 1051.5,-19 1051.5,0 1158.5,0 1158.5,-19"/>
<text text-anchor="middle" x="1105" y="-7" font-family="Helvetica,sans-Serif" font-size="10.00">check_collision_zy</text>
</a>
</g>
</g>
<!-- Node9&#45;&gt;Node12 -->
<g id="edge11_Node000009_Node000012" class="edge">
<title>Node9&#45;&gt;Node12</title>
<g id="a_edge11_Node000009_Node000012"><a xlink:title=" ">
<path fill="none" stroke="#63b8ff" d="M972.21,-36.97C995.41,-32.14 1023.79,-26.22 1048.27,-21.12"/>
<polygon fill="#63b8ff" stroke="#63b8ff" points="1049.06,-24.53 1058.14,-19.06 1047.63,-17.67 1049.06,-24.53"/>
</a>
</g>
</g>
<!-- Node13&#45;&gt;Node14 -->
<g id="edge13_Node000013_Node000014" class="edge">
<title>Node13&#45;&gt;Node14</title>
<g id="a_edge13_Node000013_Node000014"><a xlink:title=" ">
<path fill="none" stroke="#63b8ff" d="M978.16,-423.47C984.43,-420.63 990.54,-417.33 996,-413.5 1039.84,-382.76 1076.06,-329.79 1093.24,-301.9"/>
<polygon fill="#63b8ff" stroke="#63b8ff" points="1096.35,-303.53 1098.51,-293.16 1090.35,-299.92 1096.35,-303.53"/>
</a>
</g>
</g>
<!-- Node15 -->
<g id="Node000015" class="node">
<title>Node15</title>
<g id="a_Node000015"><a xlink:href="code__80005FD0_8c.html#ad301b978cdd3c4cc190b10be050d51d8" target="_top" xlink:title=" ">
<polygon fill="white" stroke="#666666" points="1178,-431.5 1032,-431.5 1032,-401.5 1178,-401.5 1178,-431.5"/>
<text text-anchor="start" x="1040" y="-419.5" font-family="Helvetica,sans-Serif" font-size="10.00">delete_actor_in_unexpired</text>
<text text-anchor="middle" x="1105" y="-408.5" font-family="Helvetica,sans-Serif" font-size="10.00">_actor_list</text>
</a>
</g>
</g>
<!-- Node13&#45;&gt;Node15 -->
<g id="edge14_Node000013_Node000015" class="edge">
<title>Node13&#45;&gt;Node15</title>
<g id="a_edge14_Node000013_Node000015"><a xlink:title=" ">
<path fill="none" stroke="#63b8ff" d="M991.59,-430.43C1001.38,-429.22 1011.59,-427.95 1021.69,-426.7"/>
<polygon fill="#63b8ff" stroke="#63b8ff" points="1022.24,-430.16 1031.73,-425.46 1021.38,-423.21 1022.24,-430.16"/>
</a>
</g>
</g>
<!-- Node16 -->
<g id="Node000016" class="node">
<title>Node16</title>
<g id="a_Node000016"><a xlink:href="actors_8c.html#a694ec6ef7548b8618aeb35c038d3a9b9" target="_top" xlink:title=" ">
<polygon fill="white" stroke="#666666" points="1146.5,-469 1063.5,-469 1063.5,-450 1146.5,-450 1146.5,-469"/>
<text text-anchor="middle" x="1105" y="-457" font-family="Helvetica,sans-Serif" font-size="10.00">destroy_actor</text>
</a>
</g>
</g>
<!-- Node13&#45;&gt;Node16 -->
<g id="edge15_Node000013_Node000016" class="edge">
<title>Node13&#45;&gt;Node16</title>
<g id="a_edge15_Node000013_Node000016"><a xlink:title=" ">
<path fill="none" stroke="#63b8ff" d="M991.59,-446.2C1011.97,-448.61 1034.14,-451.24 1053.37,-453.51"/>
<polygon fill="#63b8ff" stroke="#63b8ff" points="1053.08,-457 1063.43,-454.7 1053.91,-450.05 1053.08,-457"/>
</a>
</g>
</g>
<!-- Node17 -->
<g id="Node000017" class="node">
<title>Node17</title>
<g id="a_Node000017"><a xlink:href="actors_8c.html#a12dc3ccac4c7d8569eadac0af4fd6f9f" target="_top" xlink:title=" ">
<polygon fill="white" stroke="#666666" points="1372,-469 1214,-469 1214,-450 1372,-450 1372,-469"/>
<text text-anchor="middle" x="1293" y="-457" font-family="Helvetica,sans-Serif" font-size="10.00">play_sound_before_despawn</text>
</a>
</g>
</g>
<!-- Node16&#45;&gt;Node17 -->
<g id="edge16_Node000016_Node000017" class="edge">
<title>Node16&#45;&gt;Node17</title>
<g id="a_edge16_Node000016_Node000017"><a xlink:title=" ">
<path fill="none" stroke="#63b8ff" d="M1146.82,-459.5C1163.65,-459.5 1183.86,-459.5 1203.77,-459.5"/>
<polygon fill="#63b8ff" stroke="#63b8ff" points="1203.82,-463 1213.82,-459.5 1203.82,-456 1203.82,-463"/>
</a>
</g>
</g>
<!-- Node18 -->
<g id="Node000018" class="node">
<title>Node18</title>
<g id="a_Node000018"><a xlink:href="external_8c.html#ae72057869772019e4464c87d4e16c682" target="_top" xlink:title=" ">
<polygon fill="white" stroke="#666666" points="1500,-469 1408,-469 1408,-450 1500,-450 1500,-469"/>
<text text-anchor="middle" x="1454" y="-457" font-family="Helvetica,sans-Serif" font-size="10.00">func_800C99E0</text>
</a>
</g>
</g>
<!-- Node17&#45;&gt;Node18 -->
<g id="edge17_Node000017_Node000018" class="edge">
<title>Node17&#45;&gt;Node18</title>
<g id="a_edge17_Node000017_Node000018"><a xlink:title=" ">
<path fill="none" stroke="#63b8ff" d="M1372.1,-459.5C1380.72,-459.5 1389.35,-459.5 1397.61,-459.5"/>
<polygon fill="#63b8ff" stroke="#63b8ff" points="1397.83,-463 1407.83,-459.5 1397.83,-456 1397.83,-463"/>
</a>
</g>
</g>
<!-- Node19 -->
<g id="Node000019" class="node">
<title>Node19</title>
<g id="a_Node000019"><a xlink:href="external_8c.html#aeb87c527482a244173df36a1f3d4f446" target="_top" xlink:title=" ">
<polygon fill="white" stroke="#666666" points="1628,-488 1536,-488 1536,-469 1628,-469 1628,-488"/>
<text text-anchor="middle" x="1582" y="-476" font-family="Helvetica,sans-Serif" font-size="10.00">func_800C21E8</text>
</a>
</g>
</g>
<!-- Node18&#45;&gt;Node19 -->
<g id="edge18_Node000018_Node000019" class="edge">
<title>Node18&#45;&gt;Node19</title>
<g id="a_edge18_Node000018_Node000019"><a xlink:title=" ">
<path fill="none" stroke="#63b8ff" d="M1500.13,-466.31C1508.46,-467.56 1517.23,-468.88 1525.81,-470.18"/>
<polygon fill="#63b8ff" stroke="#63b8ff" points="1525.35,-473.65 1535.76,-471.68 1526.39,-466.73 1525.35,-473.65"/>
</a>
</g>
</g>
<!-- Node20 -->
<g id="Node000020" class="node">
<title>Node20</title>
<g id="a_Node000020"><a xlink:href="external_8c.html#a028d40421b90c38f68ebfd5acc626f2e" target="_top" xlink:title=" ">
<polygon fill="#fff0f0" stroke="red" points="1628,-451 1536,-451 1536,-432 1628,-432 1628,-451"/>
<text text-anchor="middle" x="1582" y="-439" font-family="Helvetica,sans-Serif" font-size="10.00">func_800C5578</text>
</a>
</g>
</g>
<!-- Node18&#45;&gt;Node20 -->
<g id="edge19_Node000018_Node000020" class="edge">
<title>Node18&#45;&gt;Node20</title>
<g id="a_edge19_Node000018_Node000020"><a xlink:title=" ">
<path fill="none" stroke="#63b8ff" d="M1500.13,-453.05C1508.46,-451.86 1517.23,-450.61 1525.81,-449.38"/>
<polygon fill="#63b8ff" stroke="#63b8ff" points="1526.35,-452.84 1535.76,-447.96 1525.36,-445.91 1526.35,-452.84"/>
</a>
</g>
</g>
<!-- Node21 -->
<g id="Node000021" class="node">
<title>Node21</title>
<g id="a_Node000021"><a xlink:href="external_8c.html#ac0fb767de7e14a03f1bcfa53f0abd23b" target="_top" xlink:title=" ">
<polygon fill="#fff0f0" stroke="red" points="1804,-451 1664,-451 1664,-432 1804,-432 1804,-451"/>
<text text-anchor="middle" x="1734" y="-439" font-family="Helvetica,sans-Serif" font-size="10.00">delete_sound_from_bank</text>
</a>
</g>
</g>
<!-- Node20&#45;&gt;Node21 -->
<g id="edge20_Node000020_Node000021" class="edge">
<title>Node20&#45;&gt;Node21</title>
<g id="a_edge20_Node000020_Node000021"><a xlink:title=" ">
<path fill="none" stroke="#63b8ff" d="M1628,-441.5C1636.22,-441.5 1645.01,-441.5 1653.87,-441.5"/>
<polygon fill="#63b8ff" stroke="#63b8ff" points="1653.89,-445 1663.89,-441.5 1653.89,-438 1653.89,-445"/>
</a>
</g>
</g>
<!-- Node27 -->
<g id="Node000027" class="node">
<title>Node27</title>
<g id="a_Node000027"><a xlink:href="math__util_8c.html#a79fd07a0971ec96a3ff0801963a2fa7f" target="_top" xlink:title=" ">
<polygon fill="white" stroke="#666666" points="1137,-212 1073,-212 1073,-193 1137,-193 1137,-212"/>
<text text-anchor="middle" x="1105" y="-200" font-family="Helvetica,sans-Serif" font-size="10.00">vec3f_set</text>
</a>
</g>
</g>
<!-- Node26&#45;&gt;Node27 -->
<g id="edge22_Node000026_Node000027" class="edge">
<title>Node26&#45;&gt;Node27</title>
<g id="a_edge22_Node000026_Node000027"><a xlink:title=" ">
<path fill="none" stroke="#63b8ff" d="M940.73,-311.96C971.36,-291.42 1043.82,-242.84 1081.05,-217.89"/>
<polygon fill="#63b8ff" stroke="#63b8ff" points="1083.35,-220.56 1089.71,-212.08 1079.45,-214.74 1083.35,-220.56"/>
</a>
</g>
</g>
<!-- Node34 -->
<g id="Node000034" class="node">
<title>Node34</title>
<g id="a_Node000034"><a xlink:href="classABoat.html#a72f9505bb203b7da30ee448f061bbe49" target="_top" xlink:title=" ">
<polygon fill="white" stroke="#666666" points="412,-508 331,-508 331,-489 412,-489 412,-508"/>
<text text-anchor="middle" x="371.5" y="-496" font-family="Helvetica,sans-Serif" font-size="10.00">ABoat::ABoat</text>
</a>
</g>
</g>
<!-- Node33&#45;&gt;Node34 -->
<g id="edge30_Node000033_Node000034" class="edge">
<title>Node33&#45;&gt;Node34</title>
<g id="a_edge30_Node000033_Node000034"><a xlink:title=" ">
<path fill="none" stroke="#63b8ff" d="M251.27,-368.03C257.14,-370.31 262.91,-373.1 268,-376.5 309.59,-404.28 343.56,-453.67 359.93,-480.29"/>
<polygon fill="#63b8ff" stroke="#63b8ff" points="357,-482.21 365.14,-488.99 363,-478.61 357,-482.21"/>
</a>
</g>
</g>
<!-- Node34&#45;&gt;Node7 -->
<g id="edge32_Node000034_Node000007" class="edge">
<title>Node34&#45;&gt;Node7</title>
<g id="a_edge32_Node000034_Node000007"><a xlink:title=" ">
<path fill="none" stroke="#63b8ff" d="M385.28,-488.88C416.87,-465.1 498.86,-403.39 537.61,-374.22"/>
<polygon fill="#63b8ff" stroke="#63b8ff" points="539.74,-377 545.63,-368.19 535.53,-371.41 539.74,-377"/>
</a>
</g>
</g>
<!-- Node35 -->
<g id="Node000035" class="node">
<title>Node35</title>
<g id="a_Node000035"><a xlink:href="classAActor.html#a679c43bacf3600fa2d7a6ab30e34a8a6" target="_top" xlink:title=" ">
<polygon fill="white" stroke="#666666" points="603,-601 516,-601 516,-582 603,-582 603,-601"/>
<text text-anchor="middle" x="559.5" y="-589" font-family="Helvetica,sans-Serif" font-size="10.00">AActor::AActor</text>
</a>
</g>
</g>
<!-- Node34&#45;&gt;Node35 -->
<g id="edge31_Node000034_Node000035" class="edge">
<title>Node34&#45;&gt;Node35</title>
<g id="a_edge31_Node000034_Node000035"><a xlink:title=" ">
<path fill="none" stroke="#63b8ff" d="M382.63,-508.23C400.03,-524.38 437.38,-556.61 475,-573.5 484.64,-577.83 495.38,-581.14 505.86,-583.67"/>
<polygon fill="#63b8ff" stroke="#63b8ff" points="505.26,-587.12 515.78,-585.86 506.77,-580.28 505.26,-587.12"/>
</a>
</g>
</g>
<!-- Node36 -->
<g id="Node000036" class="node">
<title>Node36</title>
<g id="a_Node000036"><a xlink:href="Utils_8cpp.html#aeaf9fffe1458c3ce2a95a80906db76c3" target="_top" xlink:title=" ">
<polygon fill="white" stroke="#666666" points="644,-564 475,-564 475,-545 644,-545 644,-564"/>
<text text-anchor="middle" x="559.5" y="-552" font-family="Helvetica,sans-Serif" font-size="10.00">GetVehiclePathPointDistributed</text>
</a>
</g>
</g>
<!-- Node34&#45;&gt;Node36 -->
<g id="edge33_Node000034_Node000036" class="edge">
<title>Node34&#45;&gt;Node36</title>
<g id="a_edge33_Node000034_Node000036"><a xlink:title=" ">
<path fill="none" stroke="#63b8ff" d="M395.39,-508.06C415.96,-516.39 447.12,-528.37 475,-536.5 482.69,-538.74 490.86,-540.84 498.95,-542.75"/>
<polygon fill="#63b8ff" stroke="#63b8ff" points="498.23,-546.18 508.76,-545 499.79,-539.36 498.23,-546.18"/>
</a>
</g>
</g>
<!-- Node37 -->
<g id="Node000037" class="node">
<title>Node37</title>
<g id="a_Node000037"><a xlink:href="code__80005FD0_8c.html#a777de4239351e9266f8b367ce46cb936" target="_top" xlink:title=" ">
<polygon fill="white" stroke="#666666" points="643.5,-527 475.5,-527 475.5,-508 643.5,-508 643.5,-527"/>
<text text-anchor="middle" x="559.5" y="-515" font-family="Helvetica,sans-Serif" font-size="10.00">update_vehicle_following_path</text>
</a>
</g>
</g>
<!-- Node34&#45;&gt;Node37 -->
<g id="edge34_Node000034_Node000037" class="edge">
<title>Node34&#45;&gt;Node37</title>
<g id="a_edge34_Node000034_Node000037"><a xlink:title=" ">
<path fill="none" stroke="#63b8ff" d="M412.4,-502.58C428.06,-504.17 446.73,-506.08 465.4,-507.99"/>
<polygon fill="#63b8ff" stroke="#63b8ff" points="465.15,-511.48 475.46,-509.02 465.86,-504.52 465.15,-511.48"/>
</a>
</g>
</g>
<!-- Node45 -->
<g id="Node000045" class="node">
<title>Node45</title>
<g id="a_Node000045"><a xlink:href="math__util_8c.html#a9092c945c52b3a3481228b2724991e3c" target="_top" xlink:title=" ">
<polygon fill="white" stroke="#666666" points="592,-490 527,-490 527,-471 592,-471 592,-490"/>
<text text-anchor="middle" x="559.5" y="-478" font-family="Helvetica,sans-Serif" font-size="10.00">vec3s_set</text>
</a>
</g>
</g>
<!-- Node34&#45;&gt;Node45 -->
<g id="edge43_Node000034_Node000045" class="edge">
<title>Node34&#45;&gt;Node45</title>
<g id="a_edge43_Node000034_Node000045"><a xlink:title=" ">
<path fill="none" stroke="#63b8ff" d="M412.4,-494.64C443.19,-491.66 485.64,-487.55 516.86,-484.53"/>
<polygon fill="#63b8ff" stroke="#63b8ff" points="517.36,-488 526.98,-483.55 516.69,-481.03 517.36,-488"/>
</a>
</g>
</g>
<!-- Node37&#45;&gt;Node5 -->
<g id="edge42_Node000037_Node000005" class="edge">
<title>Node37&#45;&gt;Node5</title>
<g id="a_edge42_Node000037_Node000005"><a xlink:title=" ">
<path fill="none" stroke="#63b8ff" d="M628.18,-527.15C633.86,-529.63 639.24,-532.7 644,-536.5 672.9,-559.56 651.49,-587.96 680,-611.5 691.07,-620.64 706.3,-625.19 719.58,-627.43"/>
<polygon fill="#63b8ff" stroke="#63b8ff" points="719.33,-630.93 729.71,-628.78 720.25,-623.99 719.33,-630.93"/>
</a>
</g>
</g>
<!-- Node38 -->
<g id="Node000038" class="node">
<title>Node38</title>
<g id="a_Node000038"><a xlink:href="code__80005FD0_8c.html#ade9dca16c41c3d924b84f32a203ba823" target="_top" xlink:title=" ">
<polygon fill="white" stroke="#666666" points="809.5,-490.5 689.5,-490.5 689.5,-460.5 809.5,-460.5 809.5,-490.5"/>
<text text-anchor="start" x="697.5" y="-478.5" font-family="Helvetica,sans-Serif" font-size="10.00">find_closest_vehicles</text>
<text text-anchor="middle" x="749.5" y="-467.5" font-family="Helvetica,sans-Serif" font-size="10.00">_path_point</text>
</a>
</g>
</g>
<!-- Node37&#45;&gt;Node38 -->
<g id="edge35_Node000037_Node000038" class="edge">
<title>Node37&#45;&gt;Node38</title>
<g id="a_edge35_Node000037_Node000038"><a xlink:title=" ">
<path fill="none" stroke="#63b8ff" d="M605.16,-507.99C617.73,-505.28 631.41,-502.3 644,-499.5 655.5,-496.94 667.7,-494.18 679.55,-491.47"/>
<polygon fill="#63b8ff" stroke="#63b8ff" points="680.43,-494.86 689.4,-489.22 678.87,-488.04 680.43,-494.86"/>
</a>
</g>
</g>
<!-- Node39 -->
<g id="Node000039" class="node">
<title>Node39</title>
<g id="a_Node000039"><a xlink:href="code__80005FD0_8c.html#a79cd9c001e0a06c9cab23fe2cf070abf" target="_top" xlink:title=" ">
<polygon fill="white" stroke="#666666" points="819,-602 680,-602 680,-583 819,-583 819,-602"/>
<text text-anchor="middle" x="749.5" y="-590" font-family="Helvetica,sans-Serif" font-size="10.00">get_angle_between_path</text>
</a>
</g>
</g>
<!-- Node37&#45;&gt;Node39 -->
<g id="edge36_Node000037_Node000039" class="edge">
<title>Node37&#45;&gt;Node39</title>
<g id="a_edge36_Node000037_Node000039"><a xlink:title=" ">
<path fill="none" stroke="#63b8ff" d="M621.83,-527.03C629.56,-529.5 637.15,-532.6 644,-536.5 664.21,-548.02 659.98,-562.65 680,-574.5 682.86,-576.19 685.87,-577.73 688.98,-579.12"/>
<polygon fill="#63b8ff" stroke="#63b8ff" points="687.94,-582.47 698.53,-582.88 690.51,-575.96 687.94,-582.47"/>
</a>
</g>
</g>
<!-- Node43 -->
<g id="Node000043" class="node">
<title>Node43</title>
<g id="a_Node000043"><a xlink:href="Game_8cpp.html#a545c1a384e93cc7b616dfee707f5d962" target="_top" xlink:title=" ">
<polygon fill="white" stroke="#666666" points="783.5,-565 715.5,-565 715.5,-546 783.5,-546 783.5,-565"/>
<text text-anchor="middle" x="749.5" y="-553" font-family="Helvetica,sans-Serif" font-size="10.00">IsDkJungle</text>
</a>
</g>
</g>
<!-- Node37&#45;&gt;Node43 -->
<g id="edge40_Node000037_Node000043" class="edge">
<title>Node37&#45;&gt;Node43</title>
<g id="a_edge40_Node000037_Node000043"><a xlink:title=" ">
<path fill="none" stroke="#63b8ff" d="M607.94,-527.09C637.91,-533.15 676.33,-540.91 705.42,-546.79"/>
<polygon fill="#63b8ff" stroke="#63b8ff" points="704.8,-550.24 715.3,-548.79 706.19,-543.38 704.8,-550.24"/>
</a>
</g>
</g>
<!-- Node44 -->
<g id="Node000044" class="node">
<title>Node44</title>
<g id="a_Node000044"><a xlink:href="Game_8cpp.html#ad474b8b257813cceeae25ab5205273c4" target="_top" xlink:title=" ">
<polygon fill="white" stroke="#666666" points="798.5,-528 700.5,-528 700.5,-509 798.5,-509 798.5,-528"/>
<text text-anchor="middle" x="749.5" y="-516" font-family="Helvetica,sans-Serif" font-size="10.00">IsKalimariDesert</text>
</a>
</g>
</g>
<!-- Node37&#45;&gt;Node44 -->
<g id="edge41_Node000037_Node000044" class="edge">
<title>Node37&#45;&gt;Node44</title>
<g id="a_edge41_Node000037_Node000044"><a xlink:title=" ">
<path fill="none" stroke="#63b8ff" d="M643.51,-517.94C659.33,-518.03 675.58,-518.11 690.42,-518.19"/>
<polygon fill="#63b8ff" stroke="#63b8ff" points="690.43,-521.69 700.44,-518.24 690.46,-514.69 690.43,-521.69"/>
</a>
</g>
</g>
<!-- Node40 -->
<g id="Node000040" class="node">
<title>Node40</title>
<g id="a_Node000040"><a xlink:href="math__util_8c.html#a84cf9d4ec33146a64c230ed4cec56632" target="_top" xlink:title=" ">
<polygon fill="white" stroke="#666666" points="993,-607.5 858,-607.5 858,-577.5 993,-577.5 993,-607.5"/>
<text text-anchor="start" x="866" y="-595.5" font-family="Helvetica,sans-Serif" font-size="10.00">get_angle_between_two</text>
<text text-anchor="middle" x="925.5" y="-584.5" font-family="Helvetica,sans-Serif" font-size="10.00">_vectors</text>
</a>
</g>
</g>
<!-- Node39&#45;&gt;Node40 -->
<g id="edge37_Node000039_Node000040" class="edge">
<title>Node39&#45;&gt;Node40</title>
<g id="a_edge37_Node000039_Node000040"><a xlink:title=" ">
<path fill="none" stroke="#63b8ff" d="M819.27,-592.5C828.62,-592.5 838.26,-592.5 847.74,-592.5"/>
<polygon fill="#63b8ff" stroke="#63b8ff" points="847.93,-596 857.93,-592.5 847.93,-589 847.93,-596"/>
</a>
</g>
</g>
<!-- Node41 -->
<g id="Node000041" class="node">
<title>Node41</title>
<g id="a_Node000041"><a xlink:href="math__util_8c.html#aaa39a297477f56051975259f4bddd829" target="_top" xlink:title=" ">
<polygon fill="white" stroke="#666666" points="1130,-602 1080,-602 1080,-583 1130,-583 1130,-602"/>
<text text-anchor="middle" x="1105" y="-590" font-family="Helvetica,sans-Serif" font-size="10.00">atan2s</text>
</a>
</g>
</g>
<!-- Node40&#45;&gt;Node41 -->
<g id="edge38_Node000040_Node000041" class="edge">
<title>Node40&#45;&gt;Node41</title>
<g id="a_edge38_Node000040_Node000041"><a xlink:title=" ">
<path fill="none" stroke="#63b8ff" d="M993.1,-592.5C1019.14,-592.5 1047.89,-592.5 1069.6,-592.5"/>
<polygon fill="#63b8ff" stroke="#63b8ff" points="1069.64,-596 1079.64,-592.5 1069.64,-589 1069.64,-596"/>
</a>
</g>
</g>
<!-- Node42 -->
<g id="Node000042" class="node">
<title>Node42</title>
<g id="a_Node000042"><a xlink:href="math__util_8c.html#a0273b0ea0783a06996c28669a7438ed9" target="_top" xlink:title=" ">
<polygon fill="white" stroke="#666666" points="1334,-602 1252,-602 1252,-583 1334,-583 1334,-602"/>
<text text-anchor="middle" x="1293" y="-590" font-family="Helvetica,sans-Serif" font-size="10.00">atan2_lookup</text>
</a>
</g>
</g>
<!-- Node41&#45;&gt;Node42 -->
<g id="edge39_Node000041_Node000042" class="edge">
<title>Node41&#45;&gt;Node42</title>
<g id="a_edge39_Node000041_Node000042"><a xlink:title=" ">
<path fill="none" stroke="#63b8ff" d="M1130.32,-592.5C1158.37,-592.5 1205.26,-592.5 1241.34,-592.5"/>
<polygon fill="#63b8ff" stroke="#63b8ff" points="1241.68,-596 1251.68,-592.5 1241.68,-589 1241.68,-596"/>
</a>
</g>
</g>
<!-- Node47 -->
<g id="Node000047" class="node">
<title>Node47</title>
<g id="a_Node000047"><a xlink:href="classOBombKart.html#a1566e8d56318b18ad900fbbac9966d9d" target="_top" xlink:title=" ">
<polygon fill="white" stroke="#666666" points="439,-74 304,-74 304,-55 439,-55 439,-74"/>
<text text-anchor="middle" x="371.5" y="-62" font-family="Helvetica,sans-Serif" font-size="10.00">OBombKart::OBombKart</text>
</a>
</g>
</g>
<!-- Node46&#45;&gt;Node47 -->
<g id="edge45_Node000046_Node000047" class="edge">
<title>Node46&#45;&gt;Node47</title>
<g id="a_edge45_Node000046_Node000047"><a xlink:title=" ">
<path fill="none" stroke="#63b8ff" d="M229.92,-135.89C257.86,-121.7 310.32,-95.06 342.66,-78.64"/>
<polygon fill="#63b8ff" stroke="#63b8ff" points="344.27,-81.75 351.6,-74.1 341.1,-75.5 344.27,-81.75"/>
</a>
</g>
</g>
<!-- Node47&#45;&gt;Node9 -->
<g id="edge46_Node000047_Node000009" class="edge">
<title>Node47&#45;&gt;Node9</title>
<g id="a_edge46_Node000047_Node000009"><a xlink:title=" ">
<path fill="none" stroke="#63b8ff" d="M392.35,-54.99C412.6,-45.87 445.18,-32.72 475,-27.5 611.18,-3.67 773.92,-21.88 861.4,-35.38"/>
<polygon fill="#63b8ff" stroke="#63b8ff" points="861,-38.86 871.43,-36.96 862.09,-31.95 861,-38.86"/>
</a>
</g>
</g>
<!-- Node48 -->
<g id="Node000048" class="node">
<title>Node48</title>
<g id="a_Node000048"><a xlink:href="update__objects_8c.html#a92856990c4ca5fba1b8e0c61ca832c27" target="_top" xlink:title=" ">
<polygon fill="white" stroke="#666666" points="623.5,-93 495.5,-93 495.5,-74 623.5,-74 623.5,-93"/>
<text text-anchor="middle" x="559.5" y="-81" font-family="Helvetica,sans-Serif" font-size="10.00">find_unused_obj_index</text>
</a>
</g>
</g>
<!-- Node47&#45;&gt;Node48 -->
<g id="edge47_Node000047_Node000048" class="edge">
<title>Node47&#45;&gt;Node48</title>
<g id="a_edge47_Node000047_Node000048"><a xlink:title=" ">
<path fill="none" stroke="#63b8ff" d="M439.12,-71.31C454.03,-72.83 469.92,-74.45 485.09,-76"/>
<polygon fill="#63b8ff" stroke="#63b8ff" points="485.14,-79.52 495.45,-77.06 485.86,-72.56 485.14,-79.52"/>
</a>
</g>
</g>
<!-- Node49 -->
<g id="Node000049" class="node">
<title>Node49</title>
<g id="a_Node000049"><a xlink:href="classOObject.html#a629d0dcbb210e289cdf541a91321c86b" target="_top" xlink:title=" ">
<polygon fill="white" stroke="#666666" points="610,-56 509,-56 509,-37 610,-37 610,-56"/>
<text text-anchor="middle" x="559.5" y="-44" font-family="Helvetica,sans-Serif" font-size="10.00">OObject::OObject</text>
</a>
</g>
</g>
<!-- Node47&#45;&gt;Node49 -->
<g id="edge48_Node000047_Node000049" class="edge">
<title>Node47&#45;&gt;Node49</title>
<g id="a_edge48_Node000047_Node000049"><a xlink:title=" ">
<path fill="none" stroke="#63b8ff" d="M439.12,-58.05C458.65,-56.16 479.87,-54.11 498.93,-52.26"/>
<polygon fill="#63b8ff" stroke="#63b8ff" points="499.36,-55.74 508.97,-51.29 498.68,-48.77 499.36,-55.74"/>
</a>
</g>
</g>
<!-- Node50&#45;&gt;Node7 -->
<g id="edge50_Node000050_Node000007" class="edge">
<title>Node50&#45;&gt;Node7</title>
<g id="a_edge50_Node000050_Node000007"><a xlink:title=" ">
<path fill="none" stroke="#63b8ff" d="M386.18,-236.21C418.02,-258.81 497.36,-315.11 536.27,-342.72"/>
<polygon fill="#63b8ff" stroke="#63b8ff" points="534.62,-345.85 544.8,-348.78 538.67,-340.14 534.62,-345.85"/>
</a>
</g>
</g>
<!-- Node50&#45;&gt;Node14 -->
<g id="edge51_Node000050_Node000014" class="edge">
<title>Node50&#45;&gt;Node14</title>
<g id="a_edge51_Node000050_Node000014"><a xlink:title=" ">
<path fill="none" stroke="#63b8ff" d="M435.18,-231.38C578.2,-242.53 926.14,-269.64 1054.97,-279.68"/>
<polygon fill="#63b8ff" stroke="#63b8ff" points="1054.7,-283.17 1064.95,-280.46 1055.25,-276.19 1054.7,-283.17"/>
</a>
</g>
</g>
<!-- Node50&#45;&gt;Node27 -->
<g id="edge56_Node000050_Node000027" class="edge">
<title>Node50&#45;&gt;Node27</title>
<g id="a_edge56_Node000050_Node000027"><a xlink:title=" ">
<path fill="none" stroke="#63b8ff" d="M381.56,-216.92C398.19,-200.07 435.54,-165.58 475,-151.5 689.28,-75.06 969.79,-156.18 1068.1,-189.55"/>
<polygon fill="#63b8ff" stroke="#63b8ff" points="1067.24,-192.96 1077.84,-192.9 1069.52,-186.34 1067.24,-192.96"/>
</a>
</g>
</g>
<!-- Node51 -->
<g id="Node000051" class="node">
<title>Node51</title>
<g id="a_Node000051"><a xlink:href="math__util_8c.html#a062850863585005ad1d0a75d9ff70693" target="_top" xlink:title=" ">
<polygon fill="white" stroke="#666666" points="598,-217 521,-217 521,-198 598,-198 598,-217"/>
<text text-anchor="middle" x="559.5" y="-205" font-family="Helvetica,sans-Serif" font-size="10.00">random_u16</text>
</a>
</g>
</g>
<!-- Node50&#45;&gt;Node51 -->
<g id="edge52_Node000050_Node000051" class="edge">
<title>Node50&#45;&gt;Node51</title>
<g id="a_edge52_Node000050_Node000051"><a xlink:title=" ">
<path fill="none" stroke="#63b8ff" d="M435.21,-220.09C459.91,-217.57 487.8,-214.72 510.8,-212.37"/>
<polygon fill="#63b8ff" stroke="#63b8ff" points="511.4,-215.83 520.99,-211.33 510.69,-208.87 511.4,-215.83"/>
</a>
</g>
</g>
<!-- Node52 -->
<g id="Node000052" class="node">
<title>Node52</title>
<g id="a_Node000052"><a xlink:href="collision_8c.html#ad95e9ed2051529d5edee26109fa07427" target="_top" xlink:title=" ">
<polygon fill="white" stroke="#666666" points="628,-180 491,-180 491,-161 628,-161 628,-180"/>
<text text-anchor="middle" x="559.5" y="-168" font-family="Helvetica,sans-Serif" font-size="10.00">spawn_actor_on_surface</text>
</a>
</g>
</g>
<!-- Node50&#45;&gt;Node52 -->
<g id="edge53_Node000050_Node000052" class="edge">
<title>Node50&#45;&gt;Node52</title>
<g id="a_edge53_Node000050_Node000052"><a xlink:title=" ">
<path fill="none" stroke="#63b8ff" d="M395.39,-216.94C415.96,-208.61 447.12,-196.63 475,-188.5 482.69,-186.26 490.86,-184.16 498.95,-182.25"/>
<polygon fill="#63b8ff" stroke="#63b8ff" points="499.79,-185.64 508.76,-180 498.23,-178.82 499.79,-185.64"/>
</a>
</g>
</g>
<!-- Node53 -->
<g id="Node000053" class="node">
<title>Node53</title>
<g id="a_Node000053"><a xlink:href="collision_8c.html#a6527a2135a10909cdf9a1fd731be5628" target="_top" xlink:title=" ">
<polygon fill="white" stroke="#666666" points="818.5,-169 680.5,-169 680.5,-150 818.5,-150 818.5,-169"/>
<text text-anchor="middle" x="749.5" y="-157" font-family="Helvetica,sans-Serif" font-size="10.00">calculate_surface_height</text>
</a>
</g>
</g>
<!-- Node52&#45;&gt;Node53 -->
<g id="edge54_Node000052_Node000053" class="edge">
<title>Node52&#45;&gt;Node53</title>
<g id="a_edge54_Node000052_Node000053"><a xlink:title=" ">
<path fill="none" stroke="#63b8ff" d="M628.11,-166.54C641.74,-165.75 656.19,-164.9 670.16,-164.08"/>
<polygon fill="#63b8ff" stroke="#63b8ff" points="670.45,-167.57 680.23,-163.49 670.04,-160.58 670.45,-167.57"/>
</a>
</g>
</g>
<!-- Node54 -->
<g id="Node000054" class="node">
<title>Node54</title>
<g id="a_Node000054"><a xlink:href="collision_8c.html#a0fe340ccfe1d926a592ea9a0c84d7574" target="_top" xlink:title=" ">
<polygon fill="white" stroke="#666666" points="815.5,-217.5 683.5,-217.5 683.5,-187.5 815.5,-187.5 815.5,-217.5"/>
<text text-anchor="start" x="691.5" y="-205.5" font-family="Helvetica,sans-Serif" font-size="10.00">check_horizontally</text>
<text text-anchor="middle" x="749.5" y="-194.5" font-family="Helvetica,sans-Serif" font-size="10.00">_colliding_with_triangle</text>
</a>
</g>
</g>
<!-- Node52&#45;&gt;Node54 -->
<g id="edge55_Node000052_Node000054" class="edge">
<title>Node52&#45;&gt;Node54</title>
<g id="a_edge55_Node000052_Node000054"><a xlink:title=" ">
<path fill="none" stroke="#63b8ff" d="M616.4,-180.01C634.2,-183.04 654.19,-186.45 673.13,-189.67"/>
<polygon fill="#63b8ff" stroke="#63b8ff" points="672.78,-193.16 683.22,-191.39 673.95,-186.26 672.78,-193.16"/>
</a>
</g>
</g>
</g>
</svg>
