<?xml version="1.0" encoding="UTF-8" standalone="no"?>
<!DOCTYPE svg PUBLIC "-//W3C//DTD SVG 1.1//EN"
 "http://www.w3.org/Graphics/SVG/1.1/DTD/svg11.dtd">
<!-- Generated by graphviz version 2.43.0 (0)
 -->
<!-- Title: Editor::ObjectPicker::SelectObject Pages: 1 -->
<svg width="757pt" height="582pt"
 viewBox="0.00 0.00 757.00 581.50" xmlns="http://www.w3.org/2000/svg" xmlns:xlink="http://www.w3.org/1999/xlink">
<g id="graph0" class="graph" transform="scale(1 1) rotate(0) translate(4 577.5)">
<title>Editor::ObjectPicker::SelectObject</title>
<!-- Node1 -->
<g id="Node000001" class="node">
<title>Node1</title>
<g id="a_Node000001"><a xlink:title=" ">
<polygon fill="#999999" stroke="#666666" points="112,-396.5 0,-396.5 0,-366.5 112,-366.5 112,-396.5"/>
<text text-anchor="start" x="8" y="-384.5" font-family="Helvetica,sans-Serif" font-size="10.00">Editor::ObjectPicker</text>
<text text-anchor="middle" x="56" y="-373.5" font-family="Helvetica,sans-Serif" font-size="10.00">::SelectObject</text>
</a>
</g>
</g>
<!-- Node2 -->
<g id="Node000002" class="node">
<title>Node2</title>
<g id="a_Node000002"><a xlink:href="classEditor_1_1ObjectPicker.html#a9fd02920fdcd35279268a1e2ecf410c9" target="_top" xlink:title=" ">
<polygon fill="white" stroke="#666666" points="260,-501.5 148,-501.5 148,-471.5 260,-471.5 260,-501.5"/>
<text text-anchor="start" x="156" y="-489.5" font-family="Helvetica,sans-Serif" font-size="10.00">Editor::ObjectPicker</text>
<text text-anchor="middle" x="204" y="-478.5" font-family="Helvetica,sans-Serif" font-size="10.00">::FindObject</text>
</a>
</g>
</g>
<!-- Node1&#45;&gt;Node2 -->
<g id="edge1_Node000001_Node000002" class="edge">
<title>Node1&#45;&gt;Node2</title>
<g id="a_edge1_Node000001_Node000002"><a xlink:title=" ">
<path fill="none" stroke="#63b8ff" d="M77.92,-396.54C103.07,-414.63 145.44,-445.1 173.8,-465.5"/>
<polygon fill="#63b8ff" stroke="#63b8ff" points="171.96,-468.49 182.12,-471.48 176.05,-462.8 171.96,-468.49"/>
</a>
</g>
</g>
<!-- Node9 -->
<g id="Node000009" class="node">
<title>Node9</title>
<g id="a_Node000009"><a xlink:href="EditorMath_8cpp.html#ad7f685de0e3bbdd0d64410d65add84d5" target="_top" xlink:title=" ">
<polygon fill="white" stroke="#666666" points="252,-391 156,-391 156,-372 252,-372 252,-391"/>
<text text-anchor="middle" x="204" y="-379" font-family="Helvetica,sans-Serif" font-size="10.00">IsInGameScreen</text>
</a>
</g>
</g>
<!-- Node1&#45;&gt;Node9 -->
<g id="edge10_Node000001_Node000009" class="edge">
<title>Node1&#45;&gt;Node9</title>
<g id="a_edge10_Node000001_Node000009"><a xlink:title=" ">
<path fill="none" stroke="#63b8ff" d="M112.2,-381.5C123.09,-381.5 134.54,-381.5 145.51,-381.5"/>
<polygon fill="#63b8ff" stroke="#63b8ff" points="145.84,-385 155.84,-381.5 145.84,-378 145.84,-385"/>
</a>
</g>
</g>
<!-- Node13 -->
<g id="Node000013" class="node">
<title>Node13</title>
<g id="a_Node000013"><a xlink:href="EditorMath_8cpp.html#a2c886dcf27cddd6d4ccb5803eb9cc1df" target="_top" xlink:title=" ">
<polygon fill="white" stroke="#666666" points="251,-186 157,-186 157,-167 251,-167 251,-186"/>
<text text-anchor="middle" x="204" y="-174" font-family="Helvetica,sans-Serif" font-size="10.00">ScreenRayTrace</text>
</a>
</g>
</g>
<!-- Node1&#45;&gt;Node13 -->
<g id="edge16_Node000001_Node000013" class="edge">
<title>Node1&#45;&gt;Node13</title>
<g id="a_edge16_Node000001_Node000013"><a xlink:title=" ">
<path fill="none" stroke="#63b8ff" d="M67.74,-366.43C94.13,-329.37 162.08,-233.95 190.36,-194.25"/>
<polygon fill="#63b8ff" stroke="#63b8ff" points="193.26,-196.21 196.21,-186.04 187.56,-192.15 193.26,-196.21"/>
</a>
</g>
</g>
<!-- Node3 -->
<g id="Node000003" class="node">
<title>Node3</title>
<g id="a_Node000003"><a xlink:href="classEditor_1_1ObjectPicker.html#aa88d6119c50ddf3ef725fe4e53e76132" target="_top" xlink:title=" ">
<polygon fill="white" stroke="#666666" points="431.5,-525.5 319.5,-525.5 319.5,-495.5 431.5,-495.5 431.5,-525.5"/>
<text text-anchor="start" x="327.5" y="-513.5" font-family="Helvetica,sans-Serif" font-size="10.00">Editor::ObjectPicker</text>
<text text-anchor="middle" x="375.5" y="-502.5" font-family="Helvetica,sans-Serif" font-size="10.00">::CheckAActorRay</text>
</a>
</g>
</g>
<!-- Node2&#45;&gt;Node3 -->
<g id="edge2_Node000002_Node000003" class="edge">
<title>Node2&#45;&gt;Node3</title>
<g id="a_edge2_Node000002_Node000003"><a xlink:title=" ">
<path fill="none" stroke="#63b8ff" d="M260.03,-494.29C275.8,-496.53 293.14,-498.98 309.46,-501.29"/>
<polygon fill="#63b8ff" stroke="#63b8ff" points="309.06,-504.77 319.45,-502.71 310.04,-497.84 309.06,-504.77"/>
</a>
</g>
</g>
<!-- Node7 -->
<g id="Node000007" class="node">
<title>Node7</title>
<g id="a_Node000007"><a xlink:href="classEditor_1_1ObjectPicker.html#a0b5121afe54cd87c573f8e1ce212c8c9" target="_top" xlink:title=" ">
<polygon fill="white" stroke="#666666" points="441,-573.5 310,-573.5 310,-543.5 441,-543.5 441,-573.5"/>
<text text-anchor="start" x="318" y="-561.5" font-family="Helvetica,sans-Serif" font-size="10.00">Editor::ObjectPicker</text>
<text text-anchor="middle" x="375.5" y="-550.5" font-family="Helvetica,sans-Serif" font-size="10.00">::CheckEditorObjectRay</text>
</a>
</g>
</g>
<!-- Node2&#45;&gt;Node7 -->
<g id="edge6_Node000002_Node000007" class="edge">
<title>Node2&#45;&gt;Node7</title>
<g id="a_edge6_Node000002_Node000007"><a xlink:title=" ">
<path fill="none" stroke="#63b8ff" d="M230.65,-501.7C248.55,-511.89 273.21,-525.1 296,-534.5 300.74,-536.45 305.69,-538.33 310.71,-540.12"/>
<polygon fill="#63b8ff" stroke="#63b8ff" points="309.8,-543.5 320.4,-543.43 312.07,-536.88 309.8,-543.5"/>
</a>
</g>
</g>
<!-- Node8 -->
<g id="Node000008" class="node">
<title>Node8</title>
<g id="a_Node000008"><a xlink:href="classEditor_1_1ObjectPicker.html#a0048d7184c5efa77b34e9110d6a6ac56" target="_top" xlink:title=" ">
<polygon fill="white" stroke="#666666" points="431.5,-477.5 319.5,-477.5 319.5,-447.5 431.5,-447.5 431.5,-477.5"/>
<text text-anchor="start" x="327.5" y="-465.5" font-family="Helvetica,sans-Serif" font-size="10.00">Editor::ObjectPicker</text>
<text text-anchor="middle" x="375.5" y="-454.5" font-family="Helvetica,sans-Serif" font-size="10.00">::CheckOObjectRay</text>
</a>
</g>
</g>
<!-- Node2&#45;&gt;Node8 -->
<g id="edge9_Node000002_Node000008" class="edge">
<title>Node2&#45;&gt;Node8</title>
<g id="a_edge9_Node000002_Node000008"><a xlink:title=" ">
<path fill="none" stroke="#63b8ff" d="M260.03,-478.71C275.8,-476.47 293.14,-474.02 309.46,-471.71"/>
<polygon fill="#63b8ff" stroke="#63b8ff" points="310.04,-475.16 319.45,-470.29 309.06,-468.23 310.04,-475.16"/>
</a>
</g>
</g>
<!-- Node4 -->
<g id="Node000004" class="node">
<title>Node4</title>
<g id="a_Node000004"><a xlink:href="EditorMath_8cpp.html#ab0a9de936aec5e7e47fe73d35962d9c5" target="_top" xlink:title=" ">
<polygon fill="white" stroke="#666666" points="675,-523 491,-523 491,-504 675,-504 675,-523"/>
<text text-anchor="middle" x="583" y="-511" font-family="Helvetica,sans-Serif" font-size="10.00">IntersectRayTriangleAndTransform</text>
</a>
</g>
</g>
<!-- Node3&#45;&gt;Node4 -->
<g id="edge3_Node000003_Node000004" class="edge">
<title>Node3&#45;&gt;Node4</title>
<g id="a_edge3_Node000003_Node000004"><a xlink:title=" ">
<path fill="none" stroke="#63b8ff" d="M431.57,-511.3C446.63,-511.52 463.45,-511.77 480.24,-512.01"/>
<polygon fill="#63b8ff" stroke="#63b8ff" points="480.62,-515.52 490.67,-512.17 480.72,-508.52 480.62,-515.52"/>
</a>
</g>
</g>
<!-- Node5 -->
<g id="Node000005" class="node">
<title>Node5</title>
<g id="a_Node000005"><a xlink:href="EditorMath_8cpp.html#a82e86dde49d8ab0f5459934034270713" target="_top" xlink:title=" ">
<polygon fill="white" stroke="#666666" points="649,-565 517,-565 517,-546 649,-546 649,-565"/>
<text text-anchor="middle" x="583" y="-553" font-family="Helvetica,sans-Serif" font-size="10.00">QueryCollisionRayActor</text>
</a>
</g>
</g>
<!-- Node3&#45;&gt;Node5 -->
<g id="edge4_Node000003_Node000005" class="edge">
<title>Node3&#45;&gt;Node5</title>
<g id="a_edge4_Node000003_Node000005"><a xlink:title=" ">
<path fill="none" stroke="#63b8ff" d="M431.57,-522.56C461.69,-529.16 498.84,-537.29 528.68,-543.82"/>
<polygon fill="#63b8ff" stroke="#63b8ff" points="527.98,-547.25 538.5,-545.97 529.48,-540.42 527.98,-547.25"/>
</a>
</g>
</g>
<!-- Node6 -->
<g id="Node000006" class="node">
<title>Node6</title>
<g id="a_Node000006"><a xlink:href="math__util_8h.html#a8fb5c0b9b43a108724b355136d29d2f9" target="_top" xlink:title=" ">
<polygon fill="white" stroke="#666666" points="749,-565 711,-565 711,-546 749,-546 749,-565"/>
<text text-anchor="middle" x="730" y="-553" font-family="Helvetica,sans-Serif" font-size="10.00">fabs</text>
</a>
</g>
</g>
<!-- Node5&#45;&gt;Node6 -->
<g id="edge5_Node000005_Node000006" class="edge">
<title>Node5&#45;&gt;Node6</title>
<g id="a_edge5_Node000005_Node000006"><a xlink:title=" ">
<path fill="none" stroke="#63b8ff" d="M649.29,-555.5C667.26,-555.5 685.83,-555.5 700.51,-555.5"/>
<polygon fill="#63b8ff" stroke="#63b8ff" points="700.92,-559 710.92,-555.5 700.92,-552 700.92,-559"/>
</a>
</g>
</g>
<!-- Node7&#45;&gt;Node4 -->
<g id="edge7_Node000007_Node000004" class="edge">
<title>Node7&#45;&gt;Node4</title>
<g id="a_edge7_Node000007_Node000004"><a xlink:title=" ">
<path fill="none" stroke="#63b8ff" d="M441.24,-544.32C469.3,-538.18 501.77,-531.07 528.44,-525.23"/>
<polygon fill="#63b8ff" stroke="#63b8ff" points="529.34,-528.61 538.36,-523.06 527.85,-521.78 529.34,-528.61"/>
</a>
</g>
</g>
<!-- Node7&#45;&gt;Node5 -->
<g id="edge8_Node000007_Node000005" class="edge">
<title>Node7&#45;&gt;Node5</title>
<g id="a_edge8_Node000007_Node000005"><a xlink:title=" ">
<path fill="none" stroke="#63b8ff" d="M441.24,-557.55C462.06,-557.25 485.3,-556.91 506.81,-556.6"/>
<polygon fill="#63b8ff" stroke="#63b8ff" points="506.93,-560.1 516.88,-556.45 506.83,-553.1 506.93,-560.1"/>
</a>
</g>
</g>
<!-- Node10 -->
<g id="Node000010" class="node">
<title>Node10</title>
<g id="a_Node000010"><a xlink:href="Engine_8cpp.html#a29357c424545be61af4bd28d84fd344a" target="_top" xlink:title=" ">
<polygon fill="white" stroke="#666666" points="626,-317 540,-317 540,-298 626,-298 626,-317"/>
<text text-anchor="middle" x="583" y="-305" font-family="Helvetica,sans-Serif" font-size="10.00">GetInterpreter</text>
</a>
</g>
</g>
<!-- Node9&#45;&gt;Node10 -->
<g id="edge11_Node000009_Node000010" class="edge">
<title>Node9&#45;&gt;Node10</title>
<g id="a_edge11_Node000009_Node000010"><a xlink:title=" ">
<path fill="none" stroke="#63b8ff" d="M235.14,-391.07C283.03,-404.69 378.88,-425.39 455,-400.5 501.01,-385.46 544.14,-346.71 566.36,-324.26"/>
<polygon fill="#63b8ff" stroke="#63b8ff" points="568.88,-326.69 573.32,-317.07 563.85,-321.83 568.88,-326.69"/>
</a>
</g>
</g>
<!-- Node11 -->
<g id="Node000011" class="node">
<title>Node11</title>
<g id="a_Node000011"><a xlink:href="Engine_8cpp.html#a74cff0dc9810ca52110d05e078ed8a53" target="_top" xlink:title=" ">
<polygon fill="white" stroke="#666666" points="450.5,-391 300.5,-391 300.5,-372 450.5,-372 450.5,-391"/>
<text text-anchor="middle" x="375.5" y="-379" font-family="Helvetica,sans-Serif" font-size="10.00">OTRGetGameRenderHeight</text>
</a>
</g>
</g>
<!-- Node9&#45;&gt;Node11 -->
<g id="edge12_Node000009_Node000011" class="edge">
<title>Node9&#45;&gt;Node11</title>
<g id="a_edge12_Node000009_Node000011"><a xlink:title=" ">
<path fill="none" stroke="#63b8ff" d="M252.22,-381.5C263.96,-381.5 276.92,-381.5 289.87,-381.5"/>
<polygon fill="#63b8ff" stroke="#63b8ff" points="290.23,-385 300.23,-381.5 290.23,-378 290.23,-385"/>
</a>
</g>
</g>
<!-- Node12 -->
<g id="Node000012" class="node">
<title>Node12</title>
<g id="a_Node000012"><a xlink:href="Engine_8cpp.html#a0b2a0a6072d24bc155959292bc165961" target="_top" xlink:title=" ">
<polygon fill="white" stroke="#666666" points="448.5,-354 302.5,-354 302.5,-335 448.5,-335 448.5,-354"/>
<text text-anchor="middle" x="375.5" y="-342" font-family="Helvetica,sans-Serif" font-size="10.00">OTRGetGameRenderWidth</text>
</a>
</g>
</g>
<!-- Node9&#45;&gt;Node12 -->
<g id="edge14_Node000009_Node000012" class="edge">
<title>Node9&#45;&gt;Node12</title>
<g id="a_edge14_Node000009_Node000012"><a xlink:title=" ">
<path fill="none" stroke="#63b8ff" d="M248.65,-371.97C270.61,-367.18 297.43,-361.32 320.65,-356.25"/>
<polygon fill="#63b8ff" stroke="#63b8ff" points="321.68,-359.61 330.7,-354.06 320.19,-352.77 321.68,-359.61"/>
</a>
</g>
</g>
<!-- Node11&#45;&gt;Node10 -->
<g id="edge13_Node000011_Node000010" class="edge">
<title>Node11&#45;&gt;Node10</title>
<g id="a_edge13_Node000011_Node000010"><a xlink:title=" ">
<path fill="none" stroke="#63b8ff" d="M424.64,-371.98C434.77,-369.56 445.31,-366.71 455,-363.5 490.08,-351.86 528.72,-334.06 554.06,-321.67"/>
<polygon fill="#63b8ff" stroke="#63b8ff" points="555.67,-324.77 563.08,-317.2 552.57,-318.5 555.67,-324.77"/>
</a>
</g>
</g>
<!-- Node12&#45;&gt;Node10 -->
<g id="edge15_Node000012_Node000010" class="edge">
<title>Node12&#45;&gt;Node10</title>
<g id="a_edge15_Node000012_Node000010"><a xlink:title=" ">
<path fill="none" stroke="#63b8ff" d="M429.42,-334.97C460.3,-329.41 499.1,-322.43 529.84,-316.89"/>
<polygon fill="#63b8ff" stroke="#63b8ff" points="530.72,-320.29 539.94,-315.07 529.48,-313.4 530.72,-320.29"/>
</a>
</g>
</g>
<!-- Node13&#45;&gt;Node10 -->
<g id="edge18_Node000013_Node000010" class="edge">
<title>Node13&#45;&gt;Node10</title>
<g id="a_edge18_Node000013_Node000010"><a xlink:title=" ">
<path fill="none" stroke="#63b8ff" d="M213.79,-186.05C228.96,-201.89 261.7,-233.43 296,-249.5 336.83,-268.63 459.15,-289.2 529.89,-299.95"/>
<polygon fill="#63b8ff" stroke="#63b8ff" points="529.53,-303.44 539.94,-301.47 530.58,-296.52 529.53,-303.44"/>
</a>
</g>
</g>
<!-- Node14 -->
<g id="Node000014" class="node">
<title>Node14</title>
<g id="a_Node000014"><a xlink:href="Game_8cpp.html#a3416a195a0c7be6ec3783bbf4842dc3e" target="_top" xlink:title=" ">
<polygon fill="white" stroke="#666666" points="416.5,-167 334.5,-167 334.5,-148 416.5,-148 416.5,-167"/>
<text text-anchor="middle" x="375.5" y="-155" font-family="Helvetica,sans-Serif" font-size="10.00">CM_GetProps</text>
</a>
</g>
</g>
<!-- Node13&#45;&gt;Node14 -->
<g id="edge17_Node000013_Node000014" class="edge">
<title>Node13&#45;&gt;Node14</title>
<g id="a_edge17_Node000013_Node000014"><a xlink:title=" ">
<path fill="none" stroke="#63b8ff" d="M251.32,-171.31C273.94,-168.77 301.21,-165.72 324.33,-163.12"/>
<polygon fill="#63b8ff" stroke="#63b8ff" points="324.74,-166.6 334.29,-162.01 323.96,-159.64 324.74,-166.6"/>
</a>
</g>
</g>
<!-- Node15 -->
<g id="Node000015" class="node">
<title>Node15</title>
<g id="a_Node000015"><a xlink:href="guLookAtF_8c.html#a221be5535617db52477d4cb992afa4a9" target="_top" xlink:title=" ">
<polygon fill="white" stroke="#666666" points="409.5,-93 341.5,-93 341.5,-74 409.5,-74 409.5,-93"/>
<text text-anchor="middle" x="375.5" y="-81" font-family="Helvetica,sans-Serif" font-size="10.00">guLookAtF</text>
</a>
</g>
</g>
<!-- Node13&#45;&gt;Node15 -->
<g id="edge19_Node000013_Node000015" class="edge">
<title>Node13&#45;&gt;Node15</title>
<g id="a_edge19_Node000013_Node000015"><a xlink:title=" ">
<path fill="none" stroke="#63b8ff" d="M213.78,-166.78C228.93,-150.63 261.65,-118.41 296,-101.5 306.87,-96.15 319.37,-92.36 331.15,-89.69"/>
<polygon fill="#63b8ff" stroke="#63b8ff" points="332.17,-93.05 341.27,-87.61 330.77,-86.19 332.17,-93.05"/>
</a>
</g>
</g>
<!-- Node18 -->
<g id="Node000018" class="node">
<title>Node18</title>
<g id="a_Node000018"><a xlink:href="guPerspectiveF_8c.html#a440bd049e431a7ef892658d88620646c" target="_top" xlink:title=" ">
<polygon fill="white" stroke="#666666" points="421.5,-130 329.5,-130 329.5,-111 421.5,-111 421.5,-130"/>
<text text-anchor="middle" x="375.5" y="-118" font-family="Helvetica,sans-Serif" font-size="10.00">guPerspectiveF</text>
</a>
</g>
</g>
<!-- Node13&#45;&gt;Node18 -->
<g id="edge22_Node000013_Node000018" class="edge">
<title>Node13&#45;&gt;Node18</title>
<g id="a_edge22_Node000013_Node000018"><a xlink:title=" ">
<path fill="none" stroke="#63b8ff" d="M225.23,-166.88C243.42,-158.51 271.06,-146.5 296,-138.5 303.49,-136.1 311.48,-133.88 319.38,-131.89"/>
<polygon fill="#63b8ff" stroke="#63b8ff" points="320.42,-135.24 329.31,-129.48 318.77,-128.43 320.42,-135.24"/>
</a>
</g>
</g>
<!-- Node21 -->
<g id="Node000021" class="node">
<title>Node21</title>
<g id="a_Node000021"><a xlink:href="EditorMath_8cpp.html#a337de2cb19f9c542c8fff536d125899c" target="_top" xlink:title=" ">
<polygon fill="white" stroke="#666666" points="417.5,-56 333.5,-56 333.5,-37 417.5,-37 417.5,-56"/>
<text text-anchor="middle" x="375.5" y="-44" font-family="Helvetica,sans-Serif" font-size="10.00">InverseMatrix</text>
</a>
</g>
</g>
<!-- Node13&#45;&gt;Node21 -->
<g id="edge26_Node000013_Node000021" class="edge">
<title>Node13&#45;&gt;Node21</title>
<g id="a_edge26_Node000013_Node000021"><a xlink:title=" ">
<path fill="none" stroke="#63b8ff" d="M209.88,-166.9C221.53,-144.98 253.25,-91.12 296,-64.5 304.28,-59.34 313.88,-55.66 323.46,-53.03"/>
<polygon fill="#63b8ff" stroke="#63b8ff" points="324.47,-56.39 333.38,-50.66 322.84,-49.58 324.47,-56.39"/>
</a>
</g>
</g>
<!-- Node22 -->
<g id="Node000022" class="node">
<title>Node22</title>
<g id="a_Node000022"><a xlink:href="EditorMath_8cpp.html#a0bb1d0a9fb3649c90cab9dde2ae82ebd" target="_top" xlink:title=" ">
<polygon fill="white" stroke="#666666" points="435,-19 316,-19 316,0 435,0 435,-19"/>
<text text-anchor="middle" x="375.5" y="-7" font-family="Helvetica,sans-Serif" font-size="10.00">MultiplyMatrixVector</text>
</a>
</g>
</g>
<!-- Node13&#45;&gt;Node22 -->
<g id="edge27_Node000013_Node000022" class="edge">
<title>Node13&#45;&gt;Node22</title>
<g id="a_edge27_Node000013_Node000022"><a xlink:title=" ">
<path fill="none" stroke="#63b8ff" d="M208,-166.63C216.74,-139.68 244.83,-64.34 296,-27.5 299.23,-25.18 302.71,-23.15 306.34,-21.38"/>
<polygon fill="#63b8ff" stroke="#63b8ff" points="307.77,-24.57 315.64,-17.48 305.07,-18.12 307.77,-24.57"/>
</a>
</g>
</g>
<!-- Node23 -->
<g id="Node000023" class="node">
<title>Node23</title>
<g id="a_Node000023"><a xlink:href="Engine_8cpp.html#a130aa97f1c7fae24f3d23f8126e7506f" target="_top" xlink:title=" ">
<polygon fill="white" stroke="#666666" points="432,-241 319,-241 319,-222 432,-222 432,-241"/>
<text text-anchor="middle" x="375.5" y="-229" font-family="Helvetica,sans-Serif" font-size="10.00">OTRGetAspectRatio</text>
</a>
</g>
</g>
<!-- Node13&#45;&gt;Node23 -->
<g id="edge28_Node000013_Node000023" class="edge">
<title>Node13&#45;&gt;Node23</title>
<g id="a_edge28_Node000013_Node000023"><a xlink:title=" ">
<path fill="none" stroke="#63b8ff" d="M226.76,-186.1C245,-193.91 271.87,-204.85 296,-212.5 303.79,-214.97 312.11,-217.3 320.3,-219.43"/>
<polygon fill="#63b8ff" stroke="#63b8ff" points="319.64,-222.87 330.19,-221.92 321.35,-216.08 319.64,-222.87"/>
</a>
</g>
</g>
<!-- Node24 -->
<g id="Node000024" class="node">
<title>Node24</title>
<g id="a_Node000024"><a xlink:href="Engine_8cpp.html#ac9a41747a729cf288ae92fba19ba2f9a" target="_top" xlink:title=" ">
<polygon fill="white" stroke="#666666" points="455,-204 296,-204 296,-185 455,-185 455,-204"/>
<text text-anchor="middle" x="375.5" y="-192" font-family="Helvetica,sans-Serif" font-size="10.00">OTRGetGameViewportHeight</text>
</a>
</g>
</g>
<!-- Node13&#45;&gt;Node24 -->
<g id="edge30_Node000013_Node000024" class="edge">
<title>Node13&#45;&gt;Node24</title>
<g id="a_edge30_Node000013_Node000024"><a xlink:title=" ">
<path fill="none" stroke="#63b8ff" d="M251.32,-181.42C262.11,-182.57 273.97,-183.82 285.92,-185.09"/>
<polygon fill="#63b8ff" stroke="#63b8ff" points="285.65,-188.58 295.97,-186.16 286.39,-181.62 285.65,-188.58"/>
</a>
</g>
</g>
<!-- Node25 -->
<g id="Node000025" class="node">
<title>Node25</title>
<g id="a_Node000025"><a xlink:href="Engine_8cpp.html#a148024822cf8878855266d03c21a0bd8" target="_top" xlink:title=" ">
<polygon fill="white" stroke="#666666" points="453,-317 298,-317 298,-298 453,-298 453,-317"/>
<text text-anchor="middle" x="375.5" y="-305" font-family="Helvetica,sans-Serif" font-size="10.00">OTRGetGameViewportWidth</text>
</a>
</g>
</g>
<!-- Node13&#45;&gt;Node25 -->
<g id="edge32_Node000013_Node000025" class="edge">
<title>Node13&#45;&gt;Node25</title>
<g id="a_edge32_Node000013_Node000025"><a xlink:title=" ">
<path fill="none" stroke="#63b8ff" d="M210.49,-186.09C222.95,-206.98 255.44,-256.85 296,-283.5 302.77,-287.95 310.41,-291.61 318.2,-294.61"/>
<polygon fill="#63b8ff" stroke="#63b8ff" points="317.12,-297.94 327.72,-297.94 319.44,-291.33 317.12,-297.94"/>
</a>
</g>
</g>
<!-- Node16 -->
<g id="Node000016" class="node">
<title>Node16</title>
<g id="a_Node000016"><a xlink:href="guMtxF2L_8c.html#a257a86497fc08677370948eda3163595" target="_top" xlink:title=" ">
<polygon fill="white" stroke="#666666" points="622,-93 544,-93 544,-74 622,-74 622,-93"/>
<text text-anchor="middle" x="583" y="-81" font-family="Helvetica,sans-Serif" font-size="10.00">guMtxIdentF</text>
</a>
</g>
</g>
<!-- Node15&#45;&gt;Node16 -->
<g id="edge20_Node000015_Node000016" class="edge">
<title>Node15&#45;&gt;Node16</title>
<g id="a_edge20_Node000015_Node000016"><a xlink:title=" ">
<path fill="none" stroke="#63b8ff" d="M409.52,-83.5C443.01,-83.5 495.23,-83.5 533.44,-83.5"/>
<polygon fill="#63b8ff" stroke="#63b8ff" points="533.82,-87 543.82,-83.5 533.82,-80 533.82,-87"/>
</a>
</g>
</g>
<!-- Node17 -->
<g id="Node000017" class="node">
<title>Node17</title>
<g id="a_Node000017"><a xlink:href="math_8h.html#a37bde043e94a6f074c78f10518fb5d99" target="_top" xlink:title=" ">
<polygon fill="white" stroke="#666666" points="602.5,-56 563.5,-56 563.5,-37 602.5,-37 602.5,-56"/>
<text text-anchor="middle" x="583" y="-44" font-family="Helvetica,sans-Serif" font-size="10.00">sqrtf</text>
</a>
</g>
</g>
<!-- Node15&#45;&gt;Node17 -->
<g id="edge21_Node000015_Node000017" class="edge">
<title>Node15&#45;&gt;Node17</title>
<g id="a_edge21_Node000015_Node000017"><a xlink:title=" ">
<path fill="none" stroke="#63b8ff" d="M409.52,-77.56C449.27,-70.4 515.4,-58.49 553.18,-51.69"/>
<polygon fill="#63b8ff" stroke="#63b8ff" points="554.27,-55.05 563.49,-49.83 553.03,-48.16 554.27,-55.05"/>
</a>
</g>
</g>
<!-- Node18&#45;&gt;Node16 -->
<g id="edge24_Node000018_Node000016" class="edge">
<title>Node18&#45;&gt;Node16</title>
<g id="a_edge24_Node000018_Node000016"><a xlink:title=" ">
<path fill="none" stroke="#63b8ff" d="M421.6,-112.38C454.79,-106.4 499.85,-98.29 533.76,-92.19"/>
<polygon fill="#63b8ff" stroke="#63b8ff" points="534.68,-95.58 543.9,-90.36 533.44,-88.69 534.68,-95.58"/>
</a>
</g>
</g>
<!-- Node19 -->
<g id="Node000019" class="node">
<title>Node19</title>
<g id="a_Node000019"><a xlink:href="cosf_8c.html#a7b126b2344591e649c21c9ab0b8adb40" target="_top" xlink:title=" ">
<polygon fill="white" stroke="#666666" points="601.5,-130 564.5,-130 564.5,-111 601.5,-111 601.5,-130"/>
<text text-anchor="middle" x="583" y="-118" font-family="Helvetica,sans-Serif" font-size="10.00">cosf</text>
</a>
</g>
</g>
<!-- Node18&#45;&gt;Node19 -->
<g id="edge23_Node000018_Node000019" class="edge">
<title>Node18&#45;&gt;Node19</title>
<g id="a_edge23_Node000018_Node000019"><a xlink:title=" ">
<path fill="none" stroke="#63b8ff" d="M421.6,-120.5C462.11,-120.5 520.3,-120.5 554.32,-120.5"/>
<polygon fill="#63b8ff" stroke="#63b8ff" points="554.47,-124 564.47,-120.5 554.47,-117 554.47,-124"/>
</a>
</g>
</g>
<!-- Node20 -->
<g id="Node000020" class="node">
<title>Node20</title>
<g id="a_Node000020"><a xlink:href="sinf_8c.html#a8a7dc2a88e109f4e15b661247665709a" target="_top" xlink:title=" ">
<polygon fill="white" stroke="#666666" points="600.5,-167 565.5,-167 565.5,-148 600.5,-148 600.5,-167"/>
<text text-anchor="middle" x="583" y="-155" font-family="Helvetica,sans-Serif" font-size="10.00">sinf</text>
</a>
</g>
</g>
<!-- Node18&#45;&gt;Node20 -->
<g id="edge25_Node000018_Node000020" class="edge">
<title>Node18&#45;&gt;Node20</title>
<g id="a_edge25_Node000018_Node000020"><a xlink:title=" ">
<path fill="none" stroke="#63b8ff" d="M421.6,-128.62C462.54,-135.99 521.53,-146.61 555.39,-152.71"/>
<polygon fill="#63b8ff" stroke="#63b8ff" points="554.98,-156.19 565.44,-154.52 556.22,-149.3 554.98,-156.19"/>
</a>
</g>
</g>
<!-- Node23&#45;&gt;Node10 -->
<g id="edge29_Node000023_Node000010" class="edge">
<title>Node23&#45;&gt;Node10</title>
<g id="a_edge29_Node000023_Node000010"><a xlink:title=" ">
<path fill="none" stroke="#63b8ff" d="M410.34,-241.1C424.27,-245.25 440.5,-250.33 455,-255.5 488.08,-267.3 525.18,-282.76 550.7,-293.74"/>
<polygon fill="#63b8ff" stroke="#63b8ff" points="549.64,-297.1 560.21,-297.86 552.43,-290.68 549.64,-297.1"/>
</a>
</g>
</g>
<!-- Node24&#45;&gt;Node10 -->
<g id="edge31_Node000024_Node000010" class="edge">
<title>Node24&#45;&gt;Node10</title>
<g id="a_edge31_Node000024_Node000010"><a xlink:title=" ">
<path fill="none" stroke="#63b8ff" d="M431.53,-204.03C439.59,-206.3 447.64,-209.09 455,-212.5 498.58,-232.69 541.73,-269.47 564.81,-290.86"/>
<polygon fill="#63b8ff" stroke="#63b8ff" points="562.42,-293.42 572.1,-297.73 567.22,-288.33 562.42,-293.42"/>
</a>
</g>
</g>
<!-- Node25&#45;&gt;Node10 -->
<g id="edge33_Node000025_Node000010" class="edge">
<title>Node25&#45;&gt;Node10</title>
<g id="a_edge33_Node000025_Node000010"><a xlink:title=" ">
<path fill="none" stroke="#63b8ff" d="M453.02,-307.5C478.57,-307.5 506.43,-307.5 529.7,-307.5"/>
<polygon fill="#63b8ff" stroke="#63b8ff" points="529.71,-311 539.71,-307.5 529.71,-304 529.71,-311"/>
</a>
</g>
</g>
</g>
</svg>
