<?xml version="1.0" encoding="UTF-8" standalone="no"?>
<!DOCTYPE svg PUBLIC "-//W3C//DTD SVG 1.1//EN"
 "http://www.w3.org/Graphics/SVG/1.1/DTD/svg11.dtd">
<!-- Generated by graphviz version 2.43.0 (0)
 -->
<!-- Title: OThwomp::Draw Pages: 1 -->
<!--zoomable 749 -->

<svg id="main" version="1.1" xmlns="http://www.w3.org/2000/svg" xmlns:xlink="http://www.w3.org/1999/xlink" xml:space="preserve" onload="init(evt)">

<style type="text/css"><![CDATA[
.node, .edge {opacity: 0.7;}
.node.selected, .edge.selected {opacity: 1;}
.edge:hover path { stroke: red; }
.edge:hover polygon { stroke: red; fill: red; }
]]></style>

<defs>
  <circle id="rim" cx="0" cy="0" r="7"/>
  <circle id="rim2" cx="0" cy="0" r="3.5"/>
  <g id="zoomPlus">
    <use xlink:href="#rim" fill="#404040"><set attributeName="fill" to="#808080" begin="zoomplus.mouseover" end="zoomplus.mouseout"/></use>
    <path d="M-4,0h8M0,-4v8" fill="none" stroke="white" stroke-width="1.5" pointer-events="none"/>
  </g>
  <g id="zoomMin">
    <use xlink:href="#rim" fill="#404040"><set attributeName="fill" to="#808080" begin="zoomminus.mouseover" end="zoomminus.mouseout"/></use>
    <path d="M-4,0h8" fill="none" stroke="white" stroke-width="1.5" pointer-events="none"/>
  </g>
  <g id="arrowUp" transform="translate(30 24)">
    <use xlink:href="#rim"/>
    <path pointer-events="none" fill="none" stroke="white" stroke-width="1.5" d="M0,-3.0v7 M-2.5,-0.5L0,-3.0L2.5,-0.5"/>
  </g>
  <g id="arrowRight" transform="rotate(90) translate(36 -43)">
    <use xlink:href="#rim"/>
    <path pointer-events="none" fill="none" stroke="white" stroke-width="1.5" d="M0,-3.0v7 M-2.5,-0.5L0,-3.0L2.5,-0.5"/>
  </g>
  <g id="arrowDown" transform="rotate(180) translate(-30 -48)">
    <use xlink:href="#rim"/>
    <path pointer-events="none" fill="none" stroke="white" stroke-width="1.5" d="M0,-3.0v7 M-2.5,-0.5L0,-3.0L2.5,-0.5"/>
  </g>
  <g id="arrowLeft" transform="rotate(270) translate(-36 17)">
    <use xlink:href="#rim"/>
    <path pointer-events="none" fill="none" stroke="white" stroke-width="1.5" d="M0,-3.0v7 M-2.5,-0.5L0,-3.0L2.5,-0.5"/>
  </g>
  <g id="resetDef">
    <use xlink:href="#rim2" fill="#404040"><set attributeName="fill" to="#808080" begin="reset.mouseover" end="reset.mouseout"/></use>
  </g>
</defs>
<script type="application/ecmascript">
var viewWidth = 1338;
var viewHeight = 749;
var sectionId = 'dynsection-6';
</script>
<script type="application/ecmascript" xlink:href="svg.min.js"/>
<svg id="graph" class="graph">
<g id="viewport">
<title>OThwomp::Draw</title>
<!-- Node1 -->
<g id="Node000001" class="node">
<title>Node1</title>
<g id="a_Node000001"><a xlink:title=" ">
<polygon fill="#999999" stroke="#666666" points="98,-265 0,-265 0,-246 98,-246 98,-265"/>
<text text-anchor="middle" x="49" y="-253" font-family="Helvetica,sans-Serif" font-size="10.00">OThwomp::Draw</text>
</a>
</g>
</g>
<!-- Node2 -->
<g id="Node000002" class="node">
<title>Node2</title>
<g id="a_Node000002"><a xlink:href="update__objects_8c.html#a3953241e15c6372ac8944ba842148a9a" target="_top" xlink:title=" ">
<polygon fill="white" stroke="#666666" points="247.5,-597 148.5,-597 148.5,-578 247.5,-578 247.5,-597"/>
<text text-anchor="middle" x="198" y="-585" font-family="Helvetica,sans-Serif" font-size="10.00">clear_object_flag</text>
</a>
</g>
</g>
<!-- Node1&#45;&gt;Node2 -->
<g id="edge1_Node000001_Node000002" class="edge">
<title>Node1&#45;&gt;Node2</title>
<g id="a_edge1_Node000001_Node000002"><a xlink:title=" ">
<path fill="none" stroke="#63b8ff" d="M51.3,-265.23C57.92,-313.2 89.19,-523.93 134,-569.5 135.65,-571.18 137.45,-572.71 139.36,-574.09"/>
<polygon fill="#63b8ff" stroke="#63b8ff" points="137.93,-577.31 148.33,-579.32 141.45,-571.26 137.93,-577.31"/>
</a>
</g>
</g>
<!-- Node3 -->
<g id="Node000003" class="node">
<title>Node3</title>
<g id="a_Node000003"><a xlink:href="classOThwomp.html#af04fbb872bce10a6491f862b31429dd2" target="_top" xlink:title=" ">
<polygon fill="white" stroke="#666666" points="262,-560 134,-560 134,-541 262,-541 262,-560"/>
<text text-anchor="middle" x="198" y="-548" font-family="Helvetica,sans-Serif" font-size="10.00">OThwomp::DrawModel</text>
</a>
</g>
</g>
<!-- Node1&#45;&gt;Node3 -->
<g id="edge2_Node000001_Node000003" class="edge">
<title>Node1&#45;&gt;Node3</title>
<g id="a_edge2_Node000001_Node000003"><a xlink:title=" ">
<path fill="none" stroke="#63b8ff" d="M54.41,-265.11C66.68,-291.72 102.35,-368.59 134,-431.5 152.02,-467.31 174.17,-508.55 186.83,-531.87"/>
<polygon fill="#63b8ff" stroke="#63b8ff" points="183.78,-533.59 191.63,-540.7 189.93,-530.24 183.78,-533.59"/>
</a>
</g>
</g>
<!-- Node8 -->
<g id="Node000008" class="node">
<title>Node8</title>
<g id="a_Node000008"><a xlink:href="GBIMiddleware_8cpp.html#a4ecc44e3c6f1ca5a6b4a20c41d3bd2d2" target="_top" xlink:title=" ">
<polygon fill="white" stroke="#666666" points="620,-360 531,-360 531,-341 620,-341 620,-360"/>
<text text-anchor="middle" x="575.5" y="-348" font-family="Helvetica,sans-Serif" font-size="10.00">gSPDisplayList</text>
</a>
</g>
</g>
<!-- Node1&#45;&gt;Node8 -->
<g id="edge39_Node000001_Node000008" class="edge">
<title>Node1&#45;&gt;Node8</title>
<g id="a_edge39_Node000001_Node000008"><a xlink:title=" ">
<path fill="none" stroke="#63b8ff" d="M98.36,-264.51C110.01,-266.58 122.44,-268.7 134,-270.5 276.66,-292.75 318.46,-269.57 456,-313.5 473.23,-319.01 475.01,-326.29 492,-332.5 501.1,-335.82 510.99,-338.63 520.67,-340.96"/>
<polygon fill="#63b8ff" stroke="#63b8ff" points="520.1,-344.42 530.63,-343.23 521.65,-337.6 520.1,-344.42"/>
</a>
</g>
</g>
<!-- Node12 -->
<g id="Node000012" class="node">
<title>Node12</title>
<g id="a_Node000012"><a xlink:href="math__util__2_8c.html#a2eff0e02deb703653ee3230fbc02eb14" target="_top" xlink:title="set the matrix to a transformation matrix">
<polygon fill="white" stroke="#666666" points="659,-493 492,-493 492,-474 659,-474 659,-493"/>
<text text-anchor="middle" x="575.5" y="-481" font-family="Helvetica,sans-Serif" font-size="10.00">rsp_set_matrix_transformation</text>
</a>
</g>
</g>
<!-- Node1&#45;&gt;Node12 -->
<g id="edge43_Node000001_Node000012" class="edge">
<title>Node1&#45;&gt;Node12</title>
<g id="a_edge43_Node000001_Node000012"><a xlink:title=" ">
<path fill="none" stroke="#63b8ff" d="M54.79,-265.28C65.73,-286.57 94.67,-337.29 134,-363.5 240.28,-434.33 387.28,-463.54 481.63,-475.46"/>
<polygon fill="#63b8ff" stroke="#63b8ff" points="481.38,-478.95 491.74,-476.69 482.23,-472 481.38,-478.95"/>
</a>
</g>
</g>
<!-- Node24 -->
<g id="Node000024" class="node">
<title>Node24</title>
<g id="a_Node000024"><a xlink:href="math__util__2_8c.html#a99d173c040cb4a9d0184df2605d71e32" target="_top" xlink:title=" ">
<polygon fill="white" stroke="#666666" points="244,-19 152,-19 152,0 244,0 244,-19"/>
<text text-anchor="middle" x="198" y="-7" font-family="Helvetica,sans-Serif" font-size="10.00">func_800418AC</text>
</a>
</g>
</g>
<!-- Node1&#45;&gt;Node24 -->
<g id="edge28_Node000001_Node000024" class="edge">
<title>Node1&#45;&gt;Node24</title>
<g id="a_edge28_Node000001_Node000024"><a xlink:title=" ">
<path fill="none" stroke="#63b8ff" d="M50.63,-245.65C53.4,-210.64 67.57,-90.97 134,-28.5 136.62,-26.04 139.54,-23.9 142.66,-22.03"/>
<polygon fill="#63b8ff" stroke="#63b8ff" points="144.46,-25.04 151.86,-17.47 141.35,-18.77 144.46,-25.04"/>
</a>
</g>
</g>
<!-- Node27 -->
<g id="Node000027" class="node">
<title>Node27</title>
<g id="a_Node000027"><a xlink:href="render__objects_8c.html#abfc36be592b2cbf423febe66fa12ec34" target="_top" xlink:title=" ">
<polygon fill="white" stroke="#666666" points="423,-341 331,-341 331,-322 423,-322 423,-341"/>
<text text-anchor="middle" x="377" y="-329" font-family="Helvetica,sans-Serif" font-size="10.00">func_800431B0</text>
</a>
</g>
</g>
<!-- Node1&#45;&gt;Node27 -->
<g id="edge31_Node000001_Node000027" class="edge">
<title>Node1&#45;&gt;Node27</title>
<g id="a_edge31_Node000001_Node000027"><a xlink:title=" ">
<path fill="none" stroke="#63b8ff" d="M61.63,-265.14C77.09,-277.34 105.73,-297.93 134,-307.5 195.41,-328.3 270.23,-332.78 320.28,-333.04"/>
<polygon fill="#63b8ff" stroke="#63b8ff" points="320.57,-336.54 330.56,-333.03 320.56,-329.54 320.57,-336.54"/>
</a>
</g>
</g>
<!-- Node28 -->
<g id="Node000028" class="node">
<title>Node28</title>
<g id="a_Node000028"><a xlink:href="GBIMiddleware_8cpp.html#aeef79449a27a710d73576e4a4f7f7f99" target="_top" xlink:title=" ">
<polygon fill="white" stroke="#666666" points="608.5,-323 542.5,-323 542.5,-304 608.5,-304 608.5,-323"/>
<text text-anchor="middle" x="575.5" y="-311" font-family="Helvetica,sans-Serif" font-size="10.00">gSPVertex</text>
</a>
</g>
</g>
<!-- Node1&#45;&gt;Node28 -->
<g id="edge40_Node000001_Node000028" class="edge">
<title>Node1&#45;&gt;Node28</title>
<g id="a_edge40_Node000001_Node000028"><a xlink:title=" ">
<path fill="none" stroke="#63b8ff" d="M98.2,-254.93C174.64,-254.8 328.11,-257.65 456,-279.5 483.93,-284.27 514.67,-293.2 537.84,-300.71"/>
<polygon fill="#63b8ff" stroke="#63b8ff" points="537,-304.12 547.6,-303.94 539.2,-297.48 537,-304.12"/>
</a>
</g>
</g>
<!-- Node29 -->
<g id="Node000029" class="node">
<title>Node29</title>
<g id="a_Node000029"><a xlink:href="render__objects_8c.html#a816f6d2e246056f98e788f34a8bd091a" target="_top" xlink:title=" ">
<polygon fill="white" stroke="#666666" points="244,-227 152,-227 152,-208 244,-208 244,-227"/>
<text text-anchor="middle" x="198" y="-215" font-family="Helvetica,sans-Serif" font-size="10.00">func_8004B138</text>
</a>
</g>
</g>
<!-- Node1&#45;&gt;Node29 -->
<g id="edge36_Node000001_Node000029" class="edge">
<title>Node1&#45;&gt;Node29</title>
<g id="a_edge36_Node000001_Node000029"><a xlink:title=" ">
<path fill="none" stroke="#63b8ff" d="M87.09,-245.91C106.32,-240.94 129.99,-234.82 150.43,-229.54"/>
<polygon fill="#63b8ff" stroke="#63b8ff" points="151.37,-232.91 160.17,-227.02 149.61,-226.13 151.37,-232.91"/>
</a>
</g>
</g>
<!-- Node30 -->
<g id="Node000030" class="node">
<title>Node30</title>
<g id="a_Node000030"><a xlink:href="render__objects_8c.html#abbcc0557ad17056fd4f51ca82d6e6f04" target="_top" xlink:title=" ">
<polygon fill="white" stroke="#666666" points="244,-190 152,-190 152,-171 244,-171 244,-190"/>
<text text-anchor="middle" x="198" y="-178" font-family="Helvetica,sans-Serif" font-size="10.00">func_8004B3C8</text>
</a>
</g>
</g>
<!-- Node1&#45;&gt;Node30 -->
<g id="edge37_Node000001_Node000030" class="edge">
<title>Node1&#45;&gt;Node30</title>
<g id="a_edge37_Node000001_Node000030"><a xlink:title=" ">
<path fill="none" stroke="#63b8ff" d="M61.84,-245.95C77.52,-233.7 106.41,-212.5 134,-199.5 138.72,-197.27 143.77,-195.24 148.87,-193.39"/>
<polygon fill="#63b8ff" stroke="#63b8ff" points="150.32,-196.6 158.68,-190.08 148.08,-189.96 150.32,-196.6"/>
</a>
</g>
</g>
<!-- Node31 -->
<g id="Node000031" class="node">
<title>Node31</title>
<g id="a_Node000031"><a xlink:href="update__objects_8c.html#aaece45bd6baf5aaf797c872a6e105604" target="_top" xlink:title=" ">
<polygon fill="white" stroke="#666666" points="244,-153 152,-153 152,-134 244,-134 244,-153"/>
<text text-anchor="middle" x="198" y="-141" font-family="Helvetica,sans-Serif" font-size="10.00">func_800722CC</text>
</a>
</g>
</g>
<!-- Node1&#45;&gt;Node31 -->
<g id="edge38_Node000001_Node000031" class="edge">
<title>Node1&#45;&gt;Node31</title>
<g id="a_edge38_Node000001_Node000031"><a xlink:title=" ">
<path fill="none" stroke="#63b8ff" d="M56.12,-245.75C68.49,-226.85 98.34,-185.08 134,-162.5 137.33,-160.39 140.9,-158.51 144.59,-156.83"/>
<polygon fill="#63b8ff" stroke="#63b8ff" points="145.98,-160.04 153.94,-153.05 143.35,-153.55 145.98,-160.04"/>
</a>
</g>
</g>
<!-- Node32 -->
<g id="Node000032" class="node">
<title>Node32</title>
<g id="a_Node000032"><a xlink:href="render__objects_8c.html#a36eddea0c0ee0ae1fb20b028998d90c6" target="_top" xlink:title=" ">
<polygon fill="white" stroke="#666666" points="253,-115.5 143,-115.5 143,-85.5 253,-85.5 253,-115.5"/>
<text text-anchor="start" x="151" y="-103.5" font-family="Helvetica,sans-Serif" font-size="10.00">load_texture_block</text>
<text text-anchor="middle" x="198" y="-92.5" font-family="Helvetica,sans-Serif" font-size="10.00">_ia8_nomirror</text>
</a>
</g>
</g>
<!-- Node1&#45;&gt;Node32 -->
<g id="edge41_Node000001_Node000032" class="edge">
<title>Node1&#45;&gt;Node32</title>
<g id="a_edge41_Node000001_Node000032"><a xlink:title=" ">
<path fill="none" stroke="#63b8ff" d="M53.75,-245.89C63.45,-222.18 91.63,-160.29 134,-125.5 136.03,-123.83 138.18,-122.27 140.43,-120.8"/>
<polygon fill="#63b8ff" stroke="#63b8ff" points="142.52,-123.63 149.43,-115.59 139.02,-117.57 142.52,-123.63"/>
</a>
</g>
</g>
<!-- Node33 -->
<g id="Node000033" class="node">
<title>Node33</title>
<g id="a_Node000033"><a xlink:href="render__objects_8c.html#abb8ae92ab6d9189d5851fdfad2ac7f91" target="_top" xlink:title=" ">
<polygon fill="white" stroke="#666666" points="253,-67.5 143,-67.5 143,-37.5 253,-37.5 253,-67.5"/>
<text text-anchor="start" x="151" y="-55.5" font-family="Helvetica,sans-Serif" font-size="10.00">load_texture_block</text>
<text text-anchor="middle" x="198" y="-44.5" font-family="Helvetica,sans-Serif" font-size="10.00">_rgba16_mirror</text>
</a>
</g>
</g>
<!-- Node1&#45;&gt;Node33 -->
<g id="edge42_Node000001_Node000033" class="edge">
<title>Node1&#45;&gt;Node33</title>
<g id="a_edge42_Node000001_Node000033"><a xlink:title=" ">
<path fill="none" stroke="#63b8ff" d="M51.86,-245.84C58.06,-216.27 80.65,-126 134,-76.5 135.27,-75.32 136.6,-74.2 137.98,-73.13"/>
<polygon fill="#63b8ff" stroke="#63b8ff" points="139.98,-76.01 146.4,-67.59 136.12,-70.17 139.98,-76.01"/>
</a>
</g>
</g>
<!-- Node34 -->
<g id="Node000034" class="node">
<title>Node34</title>
<g id="a_Node000034"><a xlink:href="classOThwomp.html#a8abc12507dadac0d4c3957ea92ddb061" target="_top" xlink:title=" ">
<polygon fill="white" stroke="#666666" points="456,-389.5 298,-389.5 298,-359.5 456,-359.5 456,-389.5"/>
<text text-anchor="start" x="306" y="-377.5" font-family="Helvetica,sans-Serif" font-size="10.00">OThwomp::TranslateThwomp</text>
<text text-anchor="middle" x="377" y="-366.5" font-family="Helvetica,sans-Serif" font-size="10.00">Lights</text>
</a>
</g>
</g>
<!-- Node1&#45;&gt;Node34 -->
<g id="edge44_Node000001_Node000034" class="edge">
<title>Node1&#45;&gt;Node34</title>
<g id="a_edge44_Node000001_Node000034"><a xlink:title=" ">
<path fill="none" stroke="#63b8ff" d="M57.35,-265.17C70.65,-281.9 100.44,-316 134,-332.5 181.7,-355.95 240.31,-366.52 287.91,-371.19"/>
<polygon fill="#63b8ff" stroke="#63b8ff" points="287.61,-374.68 297.89,-372.1 288.25,-367.71 287.61,-374.68"/>
</a>
</g>
</g>
<!-- Node4 -->
<g id="Node000004" class="node">
<title>Node4</title>
<g id="a_Node000004"><a xlink:href="FrameInterpolation_8cpp.html#a3a036bc9d533e28a4e9697cd20dccf3e" target="_top" xlink:title=" ">
<polygon fill="white" stroke="#666666" points="1153,-584.5 1043,-584.5 1043,-554.5 1153,-554.5 1153,-584.5"/>
<text text-anchor="start" x="1051" y="-572.5" font-family="Helvetica,sans-Serif" font-size="10.00">FrameInterpolation</text>
<text text-anchor="middle" x="1098" y="-561.5" font-family="Helvetica,sans-Serif" font-size="10.00">_RecordCloseChild</text>
</a>
</g>
</g>
<!-- Node3&#45;&gt;Node4 -->
<g id="edge3_Node000003_Node000004" class="edge">
<title>Node3&#45;&gt;Node4</title>
<g id="a_edge3_Node000003_Node000004"><a xlink:title=" ">
<path fill="none" stroke="#63b8ff" d="M262.07,-555.64C336.63,-561.27 464.51,-569.5 574.5,-569.5 574.5,-569.5 574.5,-569.5 784,-569.5 870.09,-569.5 969.5,-569.5 1032.77,-569.5"/>
<polygon fill="#63b8ff" stroke="#63b8ff" points="1033,-573 1043,-569.5 1033,-566 1033,-573"/>
</a>
</g>
</g>
<!-- Node6 -->
<g id="Node000006" class="node">
<title>Node6</title>
<g id="a_Node000006"><a xlink:href="FrameInterpolation_8cpp.html#a0eda726b74eac815af4e874014e2727c" target="_top" xlink:title=" ">
<polygon fill="white" stroke="#666666" points="1153,-683.5 1043,-683.5 1043,-653.5 1153,-653.5 1153,-683.5"/>
<text text-anchor="start" x="1051" y="-671.5" font-family="Helvetica,sans-Serif" font-size="10.00">FrameInterpolation</text>
<text text-anchor="middle" x="1098" y="-660.5" font-family="Helvetica,sans-Serif" font-size="10.00">_RecordOpenChild</text>
</a>
</g>
</g>
<!-- Node3&#45;&gt;Node6 -->
<g id="edge5_Node000003_Node000006" class="edge">
<title>Node3&#45;&gt;Node6</title>
<g id="a_edge5_Node000003_Node000006"><a xlink:title=" ">
<path fill="none" stroke="#63b8ff" d="M248.91,-560.13C253.75,-562.58 258.25,-565.66 262,-569.5 304.16,-612.72 251.26,-662.27 298,-700.5 393.34,-778.49 451.32,-719.5 574.5,-719.5 574.5,-719.5 574.5,-719.5 784,-719.5 871.15,-719.5 970.18,-700 1033.09,-685.12"/>
<polygon fill="#63b8ff" stroke="#63b8ff" points="1033.96,-688.51 1042.87,-682.77 1032.33,-681.7 1033.96,-688.51"/>
</a>
</g>
</g>
<!-- Node7 -->
<g id="Node000007" class="node">
<title>Node7</title>
<g id="a_Node000007"><a xlink:href="render__objects_8c.html#afbf522fbac558ae375119cb8820d0f40" target="_top" xlink:title=" ">
<polygon fill="white" stroke="#666666" points="423.5,-541 330.5,-541 330.5,-522 423.5,-522 423.5,-541"/>
<text text-anchor="middle" x="377" y="-529" font-family="Helvetica,sans-Serif" font-size="10.00">func_8004A7AC</text>
</a>
</g>
</g>
<!-- Node3&#45;&gt;Node7 -->
<g id="edge7_Node000003_Node000007" class="edge">
<title>Node3&#45;&gt;Node7</title>
<g id="a_edge7_Node000003_Node000007"><a xlink:title=" ">
<path fill="none" stroke="#63b8ff" d="M262.4,-543.69C281.32,-541.66 301.9,-539.45 320.28,-537.48"/>
<polygon fill="#63b8ff" stroke="#63b8ff" points="320.68,-540.96 330.25,-536.41 319.93,-534 320.68,-540.96"/>
</a>
</g>
</g>
<!-- Node3&#45;&gt;Node8 -->
<g id="edge24_Node000003_Node000008" class="edge">
<title>Node3&#45;&gt;Node8</title>
<g id="a_edge24_Node000003_Node000008"><a xlink:title=" ">
<path fill="none" stroke="#63b8ff" d="M212.43,-540.89C231.15,-527.69 266.37,-503.51 298,-485.5 384.35,-436.33 491.2,-387.34 543.16,-364.23"/>
<polygon fill="#63b8ff" stroke="#63b8ff" points="544.78,-367.34 552.51,-360.09 541.95,-360.94 544.78,-367.34"/>
</a>
</g>
</g>
<!-- Node3&#45;&gt;Node12 -->
<g id="edge26_Node000003_Node000012" class="edge">
<title>Node3&#45;&gt;Node12</title>
<g id="a_edge26_Node000003_Node000012"><a xlink:title=" ">
<path fill="none" stroke="#63b8ff" d="M219.77,-541C239.48,-532.4 270.15,-520.11 298,-513.5 358.25,-499.21 427.52,-491.71 481.65,-487.78"/>
<polygon fill="#63b8ff" stroke="#63b8ff" points="482.19,-491.25 491.92,-487.07 481.7,-484.27 482.19,-491.25"/>
</a>
</g>
</g>
<!-- Node21 -->
<g id="Node000021" class="node">
<title>Node21</title>
<g id="a_Node000021"><a xlink:href="update__objects_8c.html#ab7e91b1ebcbec57dfed6e185a2f67580" target="_top" xlink:title=" ">
<polygon fill="white" stroke="#666666" points="422.5,-691 331.5,-691 331.5,-672 422.5,-672 422.5,-691"/>
<text text-anchor="middle" x="377" y="-679" font-family="Helvetica,sans-Serif" font-size="10.00">func_80072354</text>
</a>
</g>
</g>
<!-- Node3&#45;&gt;Node21 -->
<g id="edge23_Node000003_Node000021" class="edge">
<title>Node3&#45;&gt;Node21</title>
<g id="a_edge23_Node000003_Node000021"><a xlink:title=" ">
<path fill="none" stroke="#63b8ff" d="M247.6,-560.05C252.86,-562.52 257.82,-565.61 262,-569.5 294.76,-599.96 264.25,-634.14 298,-663.5 304.7,-669.33 312.93,-673.37 321.49,-676.16"/>
<polygon fill="#63b8ff" stroke="#63b8ff" points="320.67,-679.56 331.24,-678.79 322.49,-672.8 320.67,-679.56"/>
</a>
</g>
</g>
<!-- Node22 -->
<g id="Node000022" class="node">
<title>Node22</title>
<g id="a_Node000022"><a xlink:href="render__objects_8c.html#a96f71e7de2b291bd06dd92188b107b53" target="_top" xlink:title=" ">
<polygon fill="white" stroke="#666666" points="442.5,-654 311.5,-654 311.5,-635 442.5,-635 442.5,-654"/>
<text text-anchor="middle" x="377" y="-642" font-family="Helvetica,sans-Serif" font-size="10.00">rsp_load_texture_mask</text>
</a>
</g>
</g>
<!-- Node3&#45;&gt;Node22 -->
<g id="edge25_Node000003_Node000022" class="edge">
<title>Node3&#45;&gt;Node22</title>
<g id="a_edge25_Node000003_Node000022"><a xlink:title=" ">
<path fill="none" stroke="#63b8ff" d="M244.95,-560.08C251.03,-562.54 256.91,-565.63 262,-569.5 285.85,-587.64 273.56,-609.16 298,-626.5 300.08,-627.98 302.27,-629.34 304.53,-630.58"/>
<polygon fill="#63b8ff" stroke="#63b8ff" points="303.05,-633.76 313.59,-634.88 306.05,-627.43 303.05,-633.76"/>
</a>
</g>
</g>
<!-- Node23 -->
<g id="Node000023" class="node">
<title>Node23</title>
<g id="a_Node000023"><a xlink:href="classOThwomp.html#ae5102c12d7f5b315f9d9c34e0baf4cb2" target="_top" xlink:title=" ">
<polygon fill="white" stroke="#666666" points="448.5,-617 305.5,-617 305.5,-598 448.5,-598 448.5,-617"/>
<text text-anchor="middle" x="377" y="-605" font-family="Helvetica,sans-Serif" font-size="10.00">OThwomp::ThwompLights</text>
</a>
</g>
</g>
<!-- Node3&#45;&gt;Node23 -->
<g id="edge27_Node000003_Node000023" class="edge">
<title>Node3&#45;&gt;Node23</title>
<g id="a_edge27_Node000003_Node000023"><a xlink:title=" ">
<path fill="none" stroke="#63b8ff" d="M232.51,-560.08C242.08,-562.96 252.5,-566.22 262,-569.5 278.23,-575.09 281.79,-577.86 298,-583.5 309.39,-587.46 321.82,-591.44 333.34,-594.99"/>
<polygon fill="#63b8ff" stroke="#63b8ff" points="332.61,-598.42 343.19,-597.98 334.64,-591.72 332.61,-598.42"/>
</a>
</g>
</g>
<!-- Node5 -->
<g id="Node000005" class="node">
<title>Node5</title>
<g id="a_Node000005"><a xlink:href="FrameInterpolation_8cpp.html#a02c7ac5342a4d376edee38f312b480bf" target="_top" xlink:title=" ">
<polygon fill="white" stroke="#666666" points="1330,-555 1222,-555 1222,-536 1330,-536 1330,-555"/>
<text text-anchor="middle" x="1276" y="-543" font-family="Helvetica,sans-Serif" font-size="10.00">check_if_recording</text>
</a>
</g>
</g>
<!-- Node4&#45;&gt;Node5 -->
<g id="edge4_Node000004_Node000005" class="edge">
<title>Node4&#45;&gt;Node5</title>
<g id="a_edge4_Node000004_Node000005"><a xlink:title=" ">
<path fill="none" stroke="#63b8ff" d="M1153.24,-562.1C1171.73,-559.58 1192.57,-556.74 1211.71,-554.13"/>
<polygon fill="#63b8ff" stroke="#63b8ff" points="1212.41,-557.57 1221.84,-552.75 1211.46,-550.63 1212.41,-557.57"/>
</a>
</g>
</g>
<!-- Node6&#45;&gt;Node5 -->
<g id="edge6_Node000006_Node000005" class="edge">
<title>Node6&#45;&gt;Node5</title>
<g id="a_edge6_Node000006_Node000005"><a xlink:title=" ">
<path fill="none" stroke="#63b8ff" d="M1120.58,-653.42C1154.29,-629.86 1219.07,-584.59 1253.02,-560.86"/>
<polygon fill="#63b8ff" stroke="#63b8ff" points="1255.14,-563.65 1261.34,-555.05 1251.13,-557.91 1255.14,-563.65"/>
</a>
</g>
</g>
<!-- Node7&#45;&gt;Node8 -->
<g id="edge8_Node000007_Node000008" class="edge">
<title>Node7&#45;&gt;Node8</title>
<g id="a_edge8_Node000007_Node000008"><a xlink:title=" ">
<path fill="none" stroke="#63b8ff" d="M393.15,-521.93C409.95,-510.8 437.15,-491.16 456,-469.5 476.67,-445.75 470.64,-431.63 492,-408.5 508.04,-391.13 530.1,-375.96 547.38,-365.49"/>
<polygon fill="#63b8ff" stroke="#63b8ff" points="549.57,-368.26 556.41,-360.17 546.02,-362.22 549.57,-368.26"/>
</a>
</g>
</g>
<!-- Node11 -->
<g id="Node000011" class="node">
<title>Node11</title>
<g id="a_Node000011"><a xlink:href="update__objects_8c.html#ae85ab923e54f707801592c71f2a847cd" target="_top" xlink:title=" ">
<polygon fill="white" stroke="#666666" points="627.5,-541.5 523.5,-541.5 523.5,-511.5 627.5,-511.5 627.5,-541.5"/>
<text text-anchor="start" x="531.5" y="-529.5" font-family="Helvetica,sans-Serif" font-size="10.00">is_obj_flag_status</text>
<text text-anchor="middle" x="575.5" y="-518.5" font-family="Helvetica,sans-Serif" font-size="10.00">_active</text>
</a>
</g>
</g>
<!-- Node7&#45;&gt;Node11 -->
<g id="edge11_Node000007_Node000011" class="edge">
<title>Node7&#45;&gt;Node11</title>
<g id="a_edge11_Node000007_Node000011"><a xlink:title=" ">
<path fill="none" stroke="#63b8ff" d="M423.57,-530.34C450.25,-529.66 484.27,-528.8 513.26,-528.06"/>
<polygon fill="#63b8ff" stroke="#63b8ff" points="513.38,-531.56 523.29,-527.8 513.2,-524.56 513.38,-531.56"/>
</a>
</g>
</g>
<!-- Node7&#45;&gt;Node12 -->
<g id="edge12_Node000007_Node000012" class="edge">
<title>Node7&#45;&gt;Node12</title>
<g id="a_edge12_Node000007_Node000012"><a xlink:title=" ">
<path fill="none" stroke="#63b8ff" d="M414.66,-521.95C436.98,-516.19 466.1,-508.78 492,-502.5 501.75,-500.14 512.16,-497.68 522.2,-495.36"/>
<polygon fill="#63b8ff" stroke="#63b8ff" points="523.11,-498.74 532.06,-493.08 521.53,-491.92 523.11,-498.74"/>
</a>
</g>
</g>
<!-- Node9 -->
<g id="Node000009" class="node">
<title>Node9</title>
<g id="a_Node000009"><a xlink:href="Engine_8cpp.html#a223c8bc63f228dc11177515e38eff2db" target="_top" xlink:title=" ">
<polygon fill="white" stroke="#666666" points="857.5,-342 708.5,-342 708.5,-323 857.5,-323 857.5,-342"/>
<text text-anchor="middle" x="783" y="-330" font-family="Helvetica,sans-Serif" font-size="10.00">GameEngine_OTRSigCheck</text>
</a>
</g>
</g>
<!-- Node8&#45;&gt;Node9 -->
<g id="edge9_Node000008_Node000009" class="edge">
<title>Node8&#45;&gt;Node9</title>
<g id="a_edge9_Node000008_Node000009"><a xlink:title=" ">
<path fill="none" stroke="#63b8ff" d="M620.08,-346.68C642.75,-344.7 671.25,-342.2 698,-339.86"/>
<polygon fill="#63b8ff" stroke="#63b8ff" points="698.49,-343.33 708.15,-338.97 697.88,-336.36 698.49,-343.33"/>
</a>
</g>
</g>
<!-- Node10 -->
<g id="Node000010" class="node">
<title>Node10</title>
<g id="a_Node000010"><a xlink:href="string_8c.html#a008e171a518fe0e0352f31b245e03875" target="_top" xlink:title=" ">
<polygon fill="white" stroke="#666666" points="962.5,-342 918.5,-342 918.5,-323 962.5,-323 962.5,-342"/>
<text text-anchor="middle" x="940.5" y="-330" font-family="Helvetica,sans-Serif" font-size="10.00">strlen</text>
</a>
</g>
</g>
<!-- Node9&#45;&gt;Node10 -->
<g id="edge10_Node000009_Node000010" class="edge">
<title>Node9&#45;&gt;Node10</title>
<g id="a_edge10_Node000009_Node000010"><a xlink:title=" ">
<path fill="none" stroke="#63b8ff" d="M857.65,-332.5C875.29,-332.5 893.21,-332.5 907.77,-332.5"/>
<polygon fill="#63b8ff" stroke="#63b8ff" points="908.19,-336 918.19,-332.5 908.19,-329 908.19,-336"/>
</a>
</g>
</g>
<!-- Node13 -->
<g id="Node000013" class="node">
<title>Node13</title>
<g id="a_Node000013"><a xlink:href="Matrix_8cpp.html#a329d78c031733cf22ff7518f5d38fd74" target="_top" xlink:title=" ">
<polygon fill="white" stroke="#666666" points="826,-419 740,-419 740,-400 826,-400 826,-419"/>
<text text-anchor="middle" x="783" y="-407" font-family="Helvetica,sans-Serif" font-size="10.00">AddHudMatrix</text>
</a>
</g>
</g>
<!-- Node12&#45;&gt;Node13 -->
<g id="edge13_Node000012_Node000013" class="edge">
<title>Node12&#45;&gt;Node13</title>
<g id="a_edge13_Node000012_Node000013"><a xlink:title=" ">
<path fill="none" stroke="#63b8ff" d="M597.55,-473.87C614.24,-466.22 638.13,-455.23 659,-445.5 675.04,-438.02 678.25,-434.2 695,-428.5 706.09,-424.72 718.24,-421.52 729.85,-418.88"/>
<polygon fill="#63b8ff" stroke="#63b8ff" points="730.85,-422.24 739.88,-416.7 729.36,-415.4 730.85,-422.24"/>
</a>
</g>
</g>
<!-- Node17 -->
<g id="Node000017" class="node">
<title>Node17</title>
<g id="a_Node000017"><a xlink:href="math__util__2_8c.html#ae71383a9d7f97bcb240b23f68068ab30" target="_top" xlink:title=" ">
<polygon fill="white" stroke="#666666" points="871,-493 695,-493 695,-474 871,-474 871,-493"/>
<text text-anchor="middle" x="783" y="-481" font-family="Helvetica,sans-Serif" font-size="10.00">mtxf_set_matrix_transformation</text>
</a>
</g>
</g>
<!-- Node12&#45;&gt;Node17 -->
<g id="edge18_Node000012_Node000017" class="edge">
<title>Node12&#45;&gt;Node17</title>
<g id="a_edge18_Node000012_Node000017"><a xlink:title=" ">
<path fill="none" stroke="#63b8ff" d="M659.2,-483.5C667.61,-483.5 676.22,-483.5 684.77,-483.5"/>
<polygon fill="#63b8ff" stroke="#63b8ff" points="684.77,-487 694.77,-483.5 684.77,-480 684.77,-487"/>
</a>
</g>
</g>
<!-- Node14 -->
<g id="Node000014" class="node">
<title>Node14</title>
<g id="a_Node000014"><a xlink:href="Matrix_8cpp.html#a67401ed1d8de1f4d3a3e5a7b72842b6a" target="_top" xlink:title=" ">
<polygon fill="white" stroke="#666666" points="974,-419 907,-419 907,-400 974,-400 974,-419"/>
<text text-anchor="middle" x="940.5" y="-407" font-family="Helvetica,sans-Serif" font-size="10.00">AddMatrix</text>
</a>
</g>
</g>
<!-- Node13&#45;&gt;Node14 -->
<g id="edge14_Node000013_Node000014" class="edge">
<title>Node13&#45;&gt;Node14</title>
<g id="a_edge14_Node000013_Node000014"><a xlink:title=" ">
<path fill="none" stroke="#63b8ff" d="M826.08,-409.5C847.98,-409.5 874.69,-409.5 896.69,-409.5"/>
<polygon fill="#63b8ff" stroke="#63b8ff" points="896.76,-413 906.76,-409.5 896.76,-406 896.76,-413"/>
</a>
</g>
</g>
<!-- Node15 -->
<g id="Node000015" class="node">
<title>Node15</title>
<g id="a_Node000015"><a xlink:href="FrameInterpolation_8cpp.html#a8cf1f2d6fabc6925aa71a9515341b4aa" target="_top" xlink:title=" ">
<polygon fill="white" stroke="#666666" points="1168,-424.5 1028,-424.5 1028,-394.5 1168,-394.5 1168,-424.5"/>
<text text-anchor="start" x="1036" y="-412.5" font-family="Helvetica,sans-Serif" font-size="10.00">FrameInterpolation</text>
<text text-anchor="middle" x="1098" y="-401.5" font-family="Helvetica,sans-Serif" font-size="10.00">_RecordMatrixMtxFToMtx</text>
</a>
</g>
</g>
<!-- Node14&#45;&gt;Node15 -->
<g id="edge15_Node000014_Node000015" class="edge">
<title>Node14&#45;&gt;Node15</title>
<g id="a_edge15_Node000014_Node000015"><a xlink:title=" ">
<path fill="none" stroke="#63b8ff" d="M974.1,-409.5C986.96,-409.5 1002.33,-409.5 1017.79,-409.5"/>
<polygon fill="#63b8ff" stroke="#63b8ff" points="1017.93,-413 1027.93,-409.5 1017.93,-406 1017.93,-413"/>
</a>
</g>
</g>
<!-- Node16 -->
<g id="Node000016" class="node">
<title>Node16</title>
<g id="a_Node000016"><a xlink:href="guMtxF2L_8c.html#a40ab2d64c609839ff1e0ef0de2d0dcc4" target="_top" xlink:title=" ">
<polygon fill="white" stroke="#666666" points="1130.5,-462 1065.5,-462 1065.5,-443 1130.5,-443 1130.5,-462"/>
<text text-anchor="middle" x="1098" y="-450" font-family="Helvetica,sans-Serif" font-size="10.00">guMtxF2L</text>
</a>
</g>
</g>
<!-- Node14&#45;&gt;Node16 -->
<g id="edge17_Node000014_Node000016" class="edge">
<title>Node14&#45;&gt;Node16</title>
<g id="a_edge17_Node000014_Node000016"><a xlink:title=" ">
<path fill="none" stroke="#63b8ff" d="M966.32,-419.02C979.22,-423.76 995.33,-429.34 1010,-433.5 1024.6,-437.64 1040.8,-441.39 1055.22,-444.46"/>
<polygon fill="#63b8ff" stroke="#63b8ff" points="1054.86,-447.95 1065.36,-446.56 1056.28,-441.1 1054.86,-447.95"/>
</a>
</g>
</g>
<!-- Node15&#45;&gt;Node5 -->
<g id="edge16_Node000015_Node000005" class="edge">
<title>Node15&#45;&gt;Node5</title>
<g id="a_edge16_Node000015_Node000005"><a xlink:title=" ">
<path fill="none" stroke="#63b8ff" d="M1167.33,-424.65C1173.9,-427.41 1180.24,-430.67 1186,-434.5 1222.3,-458.67 1250.86,-502.3 1265.1,-527.05"/>
<polygon fill="#63b8ff" stroke="#63b8ff" points="1262.06,-528.79 1269.99,-535.82 1268.17,-525.38 1262.06,-528.79"/>
</a>
</g>
</g>
<!-- Node18 -->
<g id="Node000018" class="node">
<title>Node18</title>
<g id="a_Node000018"><a xlink:href="math__util_8c.html#ae69cbf5c8d4b3b0dba2d7b4d4673689f" target="_top" xlink:title=" ">
<polygon fill="white" stroke="#666666" points="959.5,-493 921.5,-493 921.5,-474 959.5,-474 959.5,-493"/>
<text text-anchor="middle" x="940.5" y="-481" font-family="Helvetica,sans-Serif" font-size="10.00">coss</text>
</a>
</g>
</g>
<!-- Node17&#45;&gt;Node18 -->
<g id="edge19_Node000017_Node000018" class="edge">
<title>Node17&#45;&gt;Node18</title>
<g id="a_edge19_Node000017_Node000018"><a xlink:title=" ">
<path fill="none" stroke="#63b8ff" d="M871.3,-483.5C885.67,-483.5 899.6,-483.5 911.09,-483.5"/>
<polygon fill="#63b8ff" stroke="#63b8ff" points="911.29,-487 921.29,-483.5 911.28,-480 911.29,-487"/>
</a>
</g>
</g>
<!-- Node19 -->
<g id="Node000019" class="node">
<title>Node19</title>
<g id="a_Node000019"><a xlink:href="FrameInterpolation_8cpp.html#af749df1a96bee5c78287b1845455ae2d" target="_top" xlink:title=" ">
<polygon fill="white" stroke="#666666" points="1186,-536.5 1010,-536.5 1010,-506.5 1186,-506.5 1186,-536.5"/>
<text text-anchor="start" x="1018" y="-524.5" font-family="Helvetica,sans-Serif" font-size="10.00">FrameInterpolation</text>
<text text-anchor="middle" x="1098" y="-513.5" font-family="Helvetica,sans-Serif" font-size="10.00">_RecordSetMatrixTransformation</text>
</a>
</g>
</g>
<!-- Node17&#45;&gt;Node19 -->
<g id="edge20_Node000017_Node000019" class="edge">
<title>Node17&#45;&gt;Node19</title>
<g id="a_edge20_Node000017_Node000019"><a xlink:title=" ">
<path fill="none" stroke="#63b8ff" d="M841.48,-493.03C862.11,-496.28 885.57,-499.77 907,-502.5 937.14,-506.33 970.04,-509.85 999.88,-512.8"/>
<polygon fill="#63b8ff" stroke="#63b8ff" points="999.58,-516.29 1009.87,-513.78 1000.26,-509.32 999.58,-516.29"/>
</a>
</g>
</g>
<!-- Node20 -->
<g id="Node000020" class="node">
<title>Node20</title>
<g id="a_Node000020"><a xlink:href="math__util_8c.html#a19ed3bd78fd2d3e2bd0a29f6caf48545" target="_top" xlink:title=" ">
<polygon fill="white" stroke="#666666" points="958.5,-456 922.5,-456 922.5,-437 958.5,-437 958.5,-456"/>
<text text-anchor="middle" x="940.5" y="-444" font-family="Helvetica,sans-Serif" font-size="10.00">sins</text>
</a>
</g>
</g>
<!-- Node17&#45;&gt;Node20 -->
<g id="edge22_Node000017_Node000020" class="edge">
<title>Node17&#45;&gt;Node20</title>
<g id="a_edge22_Node000017_Node000020"><a xlink:title=" ">
<path fill="none" stroke="#63b8ff" d="M832.9,-473.98C845.36,-471.39 858.71,-468.47 871,-465.5 884.78,-462.17 899.98,-458 912.55,-454.42"/>
<polygon fill="#63b8ff" stroke="#63b8ff" points="913.77,-457.71 922.41,-451.58 911.83,-450.99 913.77,-457.71"/>
</a>
</g>
</g>
<!-- Node19&#45;&gt;Node5 -->
<g id="edge21_Node000019_Node000005" class="edge">
<title>Node19&#45;&gt;Node5</title>
<g id="a_edge21_Node000019_Node000005"><a xlink:title=" ">
<path fill="none" stroke="#63b8ff" d="M1186.23,-533.39C1194.83,-534.57 1203.44,-535.74 1211.74,-536.87"/>
<polygon fill="#63b8ff" stroke="#63b8ff" points="1211.29,-540.34 1221.67,-538.23 1212.24,-533.41 1211.29,-540.34"/>
</a>
</g>
</g>
<!-- Node25 -->
<g id="Node000025" class="node">
<title>Node25</title>
<g id="a_Node000025"><a xlink:href="math__util_8c.html#aaa39a297477f56051975259f4bddd829" target="_top" xlink:title=" ">
<polygon fill="white" stroke="#666666" points="402,-19 352,-19 352,0 402,0 402,-19"/>
<text text-anchor="middle" x="377" y="-7" font-family="Helvetica,sans-Serif" font-size="10.00">atan2s</text>
</a>
</g>
</g>
<!-- Node24&#45;&gt;Node25 -->
<g id="edge29_Node000024_Node000025" class="edge">
<title>Node24&#45;&gt;Node25</title>
<g id="a_edge29_Node000024_Node000025"><a xlink:title=" ">
<path fill="none" stroke="#63b8ff" d="M244.12,-9.5C274.46,-9.5 313.82,-9.5 341.62,-9.5"/>
<polygon fill="#63b8ff" stroke="#63b8ff" points="341.67,-13 351.67,-9.5 341.67,-6 341.67,-13"/>
</a>
</g>
</g>
<!-- Node26 -->
<g id="Node000026" class="node">
<title>Node26</title>
<g id="a_Node000026"><a xlink:href="math__util_8c.html#a0273b0ea0783a06996c28669a7438ed9" target="_top" xlink:title=" ">
<polygon fill="white" stroke="#666666" points="616.5,-19 534.5,-19 534.5,0 616.5,0 616.5,-19"/>
<text text-anchor="middle" x="575.5" y="-7" font-family="Helvetica,sans-Serif" font-size="10.00">atan2_lookup</text>
</a>
</g>
</g>
<!-- Node25&#45;&gt;Node26 -->
<g id="edge30_Node000025_Node000026" class="edge">
<title>Node25&#45;&gt;Node26</title>
<g id="a_edge30_Node000025_Node000026"><a xlink:title=" ">
<path fill="none" stroke="#63b8ff" d="M402.09,-9.5C432.29,-9.5 484.84,-9.5 524,-9.5"/>
<polygon fill="#63b8ff" stroke="#63b8ff" points="524.16,-13 534.16,-9.5 524.16,-6 524.16,-13"/>
</a>
</g>
</g>
<!-- Node27&#45;&gt;Node8 -->
<g id="edge32_Node000027_Node000008" class="edge">
<title>Node27&#45;&gt;Node8</title>
<g id="a_edge32_Node000027_Node000008"><a xlink:title=" ">
<path fill="none" stroke="#63b8ff" d="M423.08,-335.86C452.2,-338.67 490.22,-342.35 520.89,-345.32"/>
<polygon fill="#63b8ff" stroke="#63b8ff" points="520.69,-348.81 530.98,-346.29 521.36,-341.85 520.69,-348.81"/>
</a>
</g>
</g>
<!-- Node27&#45;&gt;Node12 -->
<g id="edge35_Node000027_Node000012" class="edge">
<title>Node27&#45;&gt;Node12</title>
<g id="a_edge35_Node000027_Node000012"><a xlink:title=" ">
<path fill="none" stroke="#63b8ff" d="M423.22,-334.91C434.99,-337.7 446.91,-342.47 456,-350.5 489.83,-380.4 461.2,-412.48 492,-445.5 502.13,-456.36 515.96,-464.37 529.41,-470.16"/>
<polygon fill="#63b8ff" stroke="#63b8ff" points="528.49,-473.56 539.08,-473.99 531.07,-467.05 528.49,-473.56"/>
</a>
</g>
</g>
<!-- Node27&#45;&gt;Node28 -->
<g id="edge33_Node000027_Node000028" class="edge">
<title>Node27&#45;&gt;Node28</title>
<g id="a_edge33_Node000027_Node000028"><a xlink:title=" ">
<path fill="none" stroke="#63b8ff" d="M423.08,-327.37C456,-324.35 500.32,-320.29 532.5,-317.35"/>
<polygon fill="#63b8ff" stroke="#63b8ff" points="532.85,-320.83 542.49,-316.43 532.22,-313.86 532.85,-320.83"/>
</a>
</g>
</g>
<!-- Node28&#45;&gt;Node9 -->
<g id="edge34_Node000028_Node000009" class="edge">
<title>Node28&#45;&gt;Node9</title>
<g id="a_edge34_Node000028_Node000009"><a xlink:title=" ">
<path fill="none" stroke="#63b8ff" d="M608.61,-316.47C632.65,-318.69 666.69,-321.84 698.25,-324.76"/>
<polygon fill="#63b8ff" stroke="#63b8ff" points="698.11,-328.26 708.39,-325.69 698.75,-321.29 698.11,-328.26"/>
</a>
</g>
</g>
<!-- Node35 -->
<g id="Node000035" class="node">
<title>Node35</title>
<g id="a_Node000035"><a xlink:href="math__util__2_8c.html#af9195037e8bc4ee55b0f1b9a2d2768f6" target="_top" xlink:title=" ">
<polygon fill="white" stroke="#666666" points="621,-436 530,-436 530,-417 621,-417 621,-436"/>
<text text-anchor="middle" x="575.5" y="-424" font-family="Helvetica,sans-Serif" font-size="10.00">func_800419F8</text>
</a>
</g>
</g>
<!-- Node34&#45;&gt;Node35 -->
<g id="edge45_Node000034_Node000035" class="edge">
<title>Node34&#45;&gt;Node35</title>
<g id="a_edge45_Node000034_Node000035"><a xlink:title=" ">
<path fill="none" stroke="#63b8ff" d="M434.84,-389.54C464.62,-397.42 500.61,-406.95 528.6,-414.35"/>
<polygon fill="#63b8ff" stroke="#63b8ff" points="527.96,-417.8 538.52,-416.98 529.75,-411.04 527.96,-417.8"/>
</a>
</g>
</g>
<!-- Node36 -->
<g id="Node000036" class="node">
<title>Node36</title>
<g id="a_Node000036"><a xlink:href="math__util__2_8c.html#a6f90d4d34932da48fa6a3aaa5fa67ab7" target="_top" xlink:title=" ">
<polygon fill="white" stroke="#666666" points="833.5,-456 732.5,-456 732.5,-437 833.5,-437 833.5,-456"/>
<text text-anchor="middle" x="783" y="-444" font-family="Helvetica,sans-Serif" font-size="10.00">vec3f_rotate_x_y</text>
</a>
</g>
</g>
<!-- Node35&#45;&gt;Node36 -->
<g id="edge46_Node000035_Node000036" class="edge">
<title>Node35&#45;&gt;Node36</title>
<g id="a_edge46_Node000035_Node000036"><a xlink:title=" ">
<path fill="none" stroke="#63b8ff" d="M621.09,-430.84C650.7,-433.72 689.92,-437.54 722.23,-440.68"/>
<polygon fill="#63b8ff" stroke="#63b8ff" points="722.16,-444.19 732.45,-441.68 722.84,-437.23 722.16,-444.19"/>
</a>
</g>
</g>
<!-- Node36&#45;&gt;Node18 -->
<g id="edge47_Node000036_Node000018" class="edge">
<title>Node36&#45;&gt;Node18</title>
<g id="a_edge47_Node000036_Node000018"><a xlink:title=" ">
<path fill="none" stroke="#63b8ff" d="M829.24,-456C842.7,-458.93 857.47,-462.25 871,-465.5 884.36,-468.71 899.1,-472.55 911.48,-475.85"/>
<polygon fill="#63b8ff" stroke="#63b8ff" points="910.67,-479.26 921.24,-478.48 912.49,-472.5 910.67,-479.26"/>
</a>
</g>
</g>
<!-- Node36&#45;&gt;Node20 -->
<g id="edge48_Node000036_Node000020" class="edge">
<title>Node36&#45;&gt;Node20</title>
<g id="a_edge48_Node000036_Node000020"><a xlink:title=" ">
<path fill="none" stroke="#63b8ff" d="M833.63,-446.5C859.63,-446.5 890.49,-446.5 912.16,-446.5"/>
<polygon fill="#63b8ff" stroke="#63b8ff" points="912.29,-450 922.29,-446.5 912.29,-443 912.29,-450"/>
</a>
</g>
</g>
</g>
</svg>

<g id="navigator" transform="translate(0 0)" fill="#404254">
  <rect fill="#f2f5e9" fill-opacity="0.5" stroke="#606060" stroke-width=".5" x="0" y="0" width="60" height="60"/>
  <use id="zoomplus" xlink:href="#zoomPlus" x="17" y="9" onmousedown="handleZoom(evt,'in')"/>
  <use id="zoomminus" xlink:href="#zoomMin" x="42" y="9" onmousedown="handleZoom(evt,'out')"/>
  <use id="reset" xlink:href="#resetDef" x="30" y="36" onmousedown="handleReset()"/>
   <use id="arrowup" xlink:href="#arrowUp" x="0" y="0" onmousedown="handlePan(0,-1)"/>
  <use id="arrowright" xlink:href="#arrowRight" x="0" y="0" onmousedown="handlePan(1,0)"/>
  <use id="arrowdown" xlink:href="#arrowDown" x="0" y="0" onmousedown="handlePan(0,1)"/>
  <use id="arrowleft" xlink:href="#arrowLeft" x="0" y="0" onmousedown="handlePan(-1,0)"/>
</g>
<svg viewBox="0 0 15 15" width="100%" height="30px" preserveAspectRatio="xMaxYMin meet">
 <g id="arrow_out" transform="scale(0.3 0.3)">
  <a xlink:href="classOThwomp_a62ebbbcbbb560d48c97928f77e4b2352_cgraph_org.svg" target="_base">
   <rect id="button" ry="5" rx="5" y="6" x="6" height="38" width="38"
        fill="#f2f5e9" fill-opacity="0.5" stroke="#606060" stroke-width="1.0"/>
   <path id="arrow"
     d="M 11.500037,31.436501 C 11.940474,20.09759 22.043105,11.32322 32.158766,21.979434 L 37.068811,17.246167 C 37.068811,17.246167 37.088388,32 37.088388,32 L 22.160133,31.978069 C 22.160133,31.978069 26.997745,27.140456 26.997745,27.140456 C 18.528582,18.264221 13.291696,25.230495 11.500037,31.436501 z"
     style="fill:#404040;"/>
  </a>
 </g>
</svg>

<style type='text/css'>
<![CDATA[
[data-mouse-over-selected='false'] { opacity: 0.7; }
[data-mouse-over-selected='true']  { opacity: 1.0; }
]]>
</style>
<script type="application/ecmascript"><![CDATA[
document.addEventListener('DOMContentLoaded', (event) => {
  highlightEdges();
  highlightAdjacentNodes();
});
]]></script>
</svg>
