<?xml version="1.0" encoding="UTF-8" standalone="no"?>
<!DOCTYPE svg PUBLIC "-//W3C//DTD SVG 1.1//EN"
 "http://www.w3.org/Graphics/SVG/1.1/DTD/svg11.dtd">
<!-- Generated by graphviz version 2.43.0 (0)
 -->
<!-- Title: Editor::ObjectPicker::FindObject Pages: 1 -->
<!--zoomable 134 -->

<svg id="main" version="1.1" xmlns="http://www.w3.org/2000/svg" xmlns:xlink="http://www.w3.org/1999/xlink" xml:space="preserve" onload="init(evt)">

<style type="text/css"><![CDATA[
.node, .edge {opacity: 0.7;}
.node.selected, .edge.selected {opacity: 1;}
.edge:hover path { stroke: red; }
.edge:hover polygon { stroke: red; fill: red; }
]]></style>

<defs>
  <circle id="rim" cx="0" cy="0" r="7"/>
  <circle id="rim2" cx="0" cy="0" r="3.5"/>
  <g id="zoomPlus">
    <use xlink:href="#rim" fill="#404040"><set attributeName="fill" to="#808080" begin="zoomplus.mouseover" end="zoomplus.mouseout"/></use>
    <path d="M-4,0h8M0,-4v8" fill="none" stroke="white" stroke-width="1.5" pointer-events="none"/>
  </g>
  <g id="zoomMin">
    <use xlink:href="#rim" fill="#404040"><set attributeName="fill" to="#808080" begin="zoomminus.mouseover" end="zoomminus.mouseout"/></use>
    <path d="M-4,0h8" fill="none" stroke="white" stroke-width="1.5" pointer-events="none"/>
  </g>
  <g id="arrowUp" transform="translate(30 24)">
    <use xlink:href="#rim"/>
    <path pointer-events="none" fill="none" stroke="white" stroke-width="1.5" d="M0,-3.0v7 M-2.5,-0.5L0,-3.0L2.5,-0.5"/>
  </g>
  <g id="arrowRight" transform="rotate(90) translate(36 -43)">
    <use xlink:href="#rim"/>
    <path pointer-events="none" fill="none" stroke="white" stroke-width="1.5" d="M0,-3.0v7 M-2.5,-0.5L0,-3.0L2.5,-0.5"/>
  </g>
  <g id="arrowDown" transform="rotate(180) translate(-30 -48)">
    <use xlink:href="#rim"/>
    <path pointer-events="none" fill="none" stroke="white" stroke-width="1.5" d="M0,-3.0v7 M-2.5,-0.5L0,-3.0L2.5,-0.5"/>
  </g>
  <g id="arrowLeft" transform="rotate(270) translate(-36 17)">
    <use xlink:href="#rim"/>
    <path pointer-events="none" fill="none" stroke="white" stroke-width="1.5" d="M0,-3.0v7 M-2.5,-0.5L0,-3.0L2.5,-0.5"/>
  </g>
  <g id="resetDef">
    <use xlink:href="#rim2" fill="#404040"><set attributeName="fill" to="#808080" begin="reset.mouseover" end="reset.mouseout"/></use>
  </g>
</defs>
<script type="application/ecmascript">
var viewWidth = 581;
var viewHeight = 134;
var sectionId = 'dynsection-8';
</script>
<script type="application/ecmascript" xlink:href="svg.min.js"/>
<svg id="graph" class="graph">
<g id="viewport">
<title>Editor::ObjectPicker::FindObject</title>
<!-- Node1 -->
<g id="Node000001" class="node">
<title>Node1</title>
<g id="a_Node000001"><a xlink:title=" ">
<polygon fill="#999999" stroke="#666666" points="112,-78 0,-78 0,-48 112,-48 112,-78"/>
<text text-anchor="start" x="8" y="-66" font-family="Helvetica,sans-Serif" font-size="10.00">Editor::ObjectPicker</text>
<text text-anchor="middle" x="56" y="-55" font-family="Helvetica,sans-Serif" font-size="10.00">::FindObject</text>
</a>
</g>
</g>
<!-- Node2 -->
<g id="Node000002" class="node">
<title>Node2</title>
<g id="a_Node000002"><a xlink:href="classEditor_1_1ObjectPicker.html#aa88d6119c50ddf3ef725fe4e53e76132" target="_top" xlink:title=" ">
<polygon fill="white" stroke="#666666" points="269.5,-78 157.5,-78 157.5,-48 269.5,-48 269.5,-78"/>
<text text-anchor="start" x="165.5" y="-66" font-family="Helvetica,sans-Serif" font-size="10.00">Editor::ObjectPicker</text>
<text text-anchor="middle" x="213.5" y="-55" font-family="Helvetica,sans-Serif" font-size="10.00">::CheckAActorRay</text>
</a>
</g>
</g>
<!-- Node1&#45;&gt;Node2 -->
<g id="edge1_Node000001_Node000002" class="edge">
<title>Node1&#45;&gt;Node2</title>
<g id="a_edge1_Node000001_Node000002"><a xlink:title=" ">
<path fill="none" stroke="#63b8ff" d="M112.26,-63C123.6,-63 135.65,-63 147.3,-63"/>
<polygon fill="#63b8ff" stroke="#63b8ff" points="147.42,-66.5 157.42,-63 147.42,-59.5 147.42,-66.5"/>
</a>
</g>
</g>
<!-- Node6 -->
<g id="Node000006" class="node">
<title>Node6</title>
<g id="a_Node000006"><a xlink:href="classEditor_1_1ObjectPicker.html#a0b5121afe54cd87c573f8e1ce212c8c9" target="_top" xlink:title=" ">
<polygon fill="white" stroke="#666666" points="279,-126 148,-126 148,-96 279,-96 279,-126"/>
<text text-anchor="start" x="156" y="-114" font-family="Helvetica,sans-Serif" font-size="10.00">Editor::ObjectPicker</text>
<text text-anchor="middle" x="213.5" y="-103" font-family="Helvetica,sans-Serif" font-size="10.00">::CheckEditorObjectRay</text>
</a>
</g>
</g>
<!-- Node1&#45;&gt;Node6 -->
<g id="edge5_Node000001_Node000006" class="edge">
<title>Node1&#45;&gt;Node6</title>
<g id="a_edge5_Node000001_Node000006"><a xlink:title=" ">
<path fill="none" stroke="#63b8ff" d="M105.77,-78.06C121.12,-82.79 138.22,-88.07 154.15,-92.99"/>
<polygon fill="#63b8ff" stroke="#63b8ff" points="153.31,-96.39 163.9,-96 155.38,-89.7 153.31,-96.39"/>
</a>
</g>
</g>
<!-- Node7 -->
<g id="Node000007" class="node">
<title>Node7</title>
<g id="a_Node000007"><a xlink:href="classEditor_1_1ObjectPicker.html#a0048d7184c5efa77b34e9110d6a6ac56" target="_top" xlink:title=" ">
<polygon fill="white" stroke="#666666" points="269.5,-30 157.5,-30 157.5,0 269.5,0 269.5,-30"/>
<text text-anchor="start" x="165.5" y="-18" font-family="Helvetica,sans-Serif" font-size="10.00">Editor::ObjectPicker</text>
<text text-anchor="middle" x="213.5" y="-7" font-family="Helvetica,sans-Serif" font-size="10.00">::CheckOObjectRay</text>
</a>
</g>
</g>
<!-- Node1&#45;&gt;Node7 -->
<g id="edge8_Node000001_Node000007" class="edge">
<title>Node1&#45;&gt;Node7</title>
<g id="a_edge8_Node000001_Node000007"><a xlink:title=" ">
<path fill="none" stroke="#63b8ff" d="M105.77,-47.94C121.12,-43.21 138.22,-37.93 154.15,-33.01"/>
<polygon fill="#63b8ff" stroke="#63b8ff" points="155.38,-36.3 163.9,-30 153.31,-29.61 155.38,-36.3"/>
</a>
</g>
</g>
<!-- Node3 -->
<g id="Node000003" class="node">
<title>Node3</title>
<g id="a_Node000003"><a xlink:href="EditorMath_8cpp.html#ab0a9de936aec5e7e47fe73d35962d9c5" target="_top" xlink:title=" ">
<polygon fill="white" stroke="#666666" points="499,-117.5 315,-117.5 315,-98.5 499,-98.5 499,-117.5"/>
<text text-anchor="middle" x="407" y="-105.5" font-family="Helvetica,sans-Serif" font-size="10.00">IntersectRayTriangleAndTransform</text>
</a>
</g>
</g>
<!-- Node2&#45;&gt;Node3 -->
<g id="edge2_Node000002_Node000003" class="edge">
<title>Node2&#45;&gt;Node3</title>
<g id="a_edge2_Node000002_Node000003"><a xlink:title=" ">
<path fill="none" stroke="#63b8ff" d="M269.51,-76.22C284.28,-79.74 300.24,-83.54 315,-87 327.7,-89.98 341.41,-93.17 354.24,-96.13"/>
<polygon fill="#63b8ff" stroke="#63b8ff" points="353.78,-99.61 364.31,-98.45 355.35,-92.79 353.78,-99.61"/>
</a>
</g>
</g>
<!-- Node4 -->
<g id="Node000004" class="node">
<title>Node4</title>
<g id="a_Node000004"><a xlink:href="EditorMath_8cpp.html#a82e86dde49d8ab0f5459934034270713" target="_top" xlink:title=" ">
<polygon fill="white" stroke="#666666" points="473,-77.5 341,-77.5 341,-58.5 473,-58.5 473,-77.5"/>
<text text-anchor="middle" x="407" y="-65.5" font-family="Helvetica,sans-Serif" font-size="10.00">QueryCollisionRayActor</text>
</a>
</g>
</g>
<!-- Node2&#45;&gt;Node4 -->
<g id="edge3_Node000002_Node000004" class="edge">
<title>Node2&#45;&gt;Node4</title>
<g id="a_edge3_Node000002_Node000004"><a xlink:title=" ">
<path fill="none" stroke="#63b8ff" d="M269.63,-64.44C288.63,-64.94 310.25,-65.5 330.59,-66.03"/>
<polygon fill="#63b8ff" stroke="#63b8ff" points="330.68,-69.53 340.76,-66.3 330.86,-62.54 330.68,-69.53"/>
</a>
</g>
</g>
<!-- Node5 -->
<g id="Node000005" class="node">
<title>Node5</title>
<g id="a_Node000005"><a xlink:href="math__util_8h.html#a8fb5c0b9b43a108724b355136d29d2f9" target="_top" xlink:title=" ">
<polygon fill="white" stroke="#666666" points="573,-77.5 535,-77.5 535,-58.5 573,-58.5 573,-77.5"/>
<text text-anchor="middle" x="554" y="-65.5" font-family="Helvetica,sans-Serif" font-size="10.00">fabs</text>
</a>
</g>
</g>
<!-- Node4&#45;&gt;Node5 -->
<g id="edge4_Node000004_Node000005" class="edge">
<title>Node4&#45;&gt;Node5</title>
<g id="a_edge4_Node000004_Node000005"><a xlink:title=" ">
<path fill="none" stroke="#63b8ff" d="M473.29,-68C491.26,-68 509.83,-68 524.51,-68"/>
<polygon fill="#63b8ff" stroke="#63b8ff" points="524.92,-71.5 534.92,-68 524.92,-64.5 524.92,-71.5"/>
</a>
</g>
</g>
<!-- Node6&#45;&gt;Node3 -->
<g id="edge6_Node000006_Node000003" class="edge">
<title>Node6&#45;&gt;Node3</title>
<g id="a_edge6_Node000006_Node000003"><a xlink:title=" ">
<path fill="none" stroke="#63b8ff" d="M279.07,-109.99C287.34,-109.86 295.96,-109.72 304.64,-109.59"/>
<polygon fill="#63b8ff" stroke="#63b8ff" points="304.9,-113.08 314.85,-109.43 304.79,-106.09 304.9,-113.08"/>
</a>
</g>
</g>
<!-- Node6&#45;&gt;Node4 -->
<g id="edge7_Node000006_Node000004" class="edge">
<title>Node6&#45;&gt;Node4</title>
<g id="a_edge7_Node000006_Node000004"><a xlink:title=" ">
<path fill="none" stroke="#63b8ff" d="M279.07,-96.5C303.37,-91.04 330.69,-84.91 353.74,-79.73"/>
<polygon fill="#63b8ff" stroke="#63b8ff" points="354.68,-83.11 363.67,-77.5 353.15,-76.28 354.68,-83.11"/>
</a>
</g>
</g>
</g>
</svg>

<g id="navigator" transform="translate(0 0)" fill="#404254">
  <rect fill="#f2f5e9" fill-opacity="0.5" stroke="#606060" stroke-width=".5" x="0" y="0" width="60" height="60"/>
  <use id="zoomplus" xlink:href="#zoomPlus" x="17" y="9" onmousedown="handleZoom(evt,'in')"/>
  <use id="zoomminus" xlink:href="#zoomMin" x="42" y="9" onmousedown="handleZoom(evt,'out')"/>
  <use id="reset" xlink:href="#resetDef" x="30" y="36" onmousedown="handleReset()"/>
   <use id="arrowup" xlink:href="#arrowUp" x="0" y="0" onmousedown="handlePan(0,-1)"/>
  <use id="arrowright" xlink:href="#arrowRight" x="0" y="0" onmousedown="handlePan(1,0)"/>
  <use id="arrowdown" xlink:href="#arrowDown" x="0" y="0" onmousedown="handlePan(0,1)"/>
  <use id="arrowleft" xlink:href="#arrowLeft" x="0" y="0" onmousedown="handlePan(-1,0)"/>
</g>
<svg viewBox="0 0 15 15" width="100%" height="30px" preserveAspectRatio="xMaxYMin meet">
 <g id="arrow_out" transform="scale(0.3 0.3)">
  <a xlink:href="classEditor_1_1ObjectPicker_a9fd02920fdcd35279268a1e2ecf410c9_cgraph_org.svg" target="_base">
   <rect id="button" ry="5" rx="5" y="6" x="6" height="38" width="38"
        fill="#f2f5e9" fill-opacity="0.5" stroke="#606060" stroke-width="1.0"/>
   <path id="arrow"
     d="M 11.500037,31.436501 C 11.940474,20.09759 22.043105,11.32322 32.158766,21.979434 L 37.068811,17.246167 C 37.068811,17.246167 37.088388,32 37.088388,32 L 22.160133,31.978069 C 22.160133,31.978069 26.997745,27.140456 26.997745,27.140456 C 18.528582,18.264221 13.291696,25.230495 11.500037,31.436501 z"
     style="fill:#404040;"/>
  </a>
 </g>
</svg>

<style type='text/css'>
<![CDATA[
[data-mouse-over-selected='false'] { opacity: 0.7; }
[data-mouse-over-selected='true']  { opacity: 1.0; }
]]>
</style>
<script type="application/ecmascript"><![CDATA[
document.addEventListener('DOMContentLoaded', (event) => {
  highlightEdges();
  highlightAdjacentNodes();
});
]]></script>
</svg>
