<?xml version="1.0" encoding="UTF-8" standalone="no"?>
<!DOCTYPE svg PUBLIC "-//W3C//DTD SVG 1.1//EN"
 "http://www.w3.org/Graphics/SVG/1.1/DTD/svg11.dtd">
<!-- Generated by graphviz version 2.43.0 (0)
 -->
<!-- Title: Editor::Gizmo Pages: 1 -->
<svg width="742pt" height="562pt"
 viewBox="0.00 0.00 742.00 561.73" xmlns="http://www.w3.org/2000/svg" xmlns:xlink="http://www.w3.org/1999/xlink">
<g id="graph0" class="graph" transform="scale(1 1) rotate(0) translate(4 557.73)">
<title>Editor::Gizmo</title>
<!-- Node1 -->
<g id="Node000001" class="node">
<title>Node1</title>
<g id="a_Node000001"><a xlink:title=" ">
<polygon fill="#999999" stroke="#666666" points="734,-282.23 651,-282.23 651,-263.23 734,-263.23 734,-282.23"/>
<text text-anchor="middle" x="692.5" y="-270.23" font-family="Helvetica,sans-Serif" font-size="10.00">Editor::Gizmo</text>
</a>
</g>
</g>
<!-- Node2 -->
<g id="Node000002" class="node">
<title>Node2</title>
<g id="a_Node000002"><a xlink:href="structEditor_1_1Gizmo_1_1TrackDimensions.html" target="_top" xlink:title=" ">
<polygon fill="white" stroke="#666666" points="511,-497.23 339,-497.23 339,-478.23 511,-478.23 511,-497.23"/>
<text text-anchor="middle" x="425" y="-485.23" font-family="Helvetica,sans-Serif" font-size="10.00">Editor::Gizmo::TrackDimensions</text>
</a>
</g>
</g>
<!-- Node2&#45;&gt;Node1 -->
<g id="edge1_Node000001_Node000002" class="edge">
<title>Node2&#45;&gt;Node1</title>
<g id="a_edge1_Node000001_Node000002"><a xlink:title=" ">
<path fill="none" stroke="#9a32cd" stroke-dasharray="5,2" d="M491.34,-498.17C536.08,-501.52 594.12,-497.9 633,-465.73 691,-417.75 692.84,-314.23 691.94,-282.31"/>
<polygon fill="#9a32cd" stroke="#9a32cd" points="491.41,-494.66 481.14,-497.27 490.79,-501.63 491.41,-494.66"/>
</a>
</g>
<text text-anchor="middle" x="581" y="-501.73" font-family="Helvetica,sans-Serif" font-size="10.00" fill="grey"> dimensions</text>
</g>
<!-- Node3 -->
<g id="Node000003" class="node">
<title>Node3</title>
<g id="a_Node000003"><a xlink:title=" ">
<polygon fill="white" stroke="#666666" points="191,-497.23 157,-497.23 157,-478.23 191,-478.23 191,-497.23"/>
<text text-anchor="middle" x="174" y="-485.23" font-family="Helvetica,sans-Serif" font-size="10.00">s16</text>
</a>
</g>
</g>
<!-- Node3&#45;&gt;Node2 -->
<g id="edge2_Node000002_Node000003" class="edge">
<title>Node3&#45;&gt;Node2</title>
<g id="a_edge2_Node000002_Node000003"><a xlink:title=" ">
<path fill="none" stroke="#9a32cd" stroke-dasharray="5,2" d="M201.38,-487.73C233.89,-487.73 290.73,-487.73 338.84,-487.73"/>
<polygon fill="#9a32cd" stroke="#9a32cd" points="201.34,-484.23 191.34,-487.73 201.34,-491.23 201.34,-484.23"/>
</a>
</g>
<text text-anchor="middle" x="283.5" y="-545.73" font-family="Helvetica,sans-Serif" font-size="10.00" fill="grey"> MaxX</text>
<text text-anchor="middle" x="283.5" y="-534.73" font-family="Helvetica,sans-Serif" font-size="10.00" fill="grey">MaxY</text>
<text text-anchor="middle" x="283.5" y="-523.73" font-family="Helvetica,sans-Serif" font-size="10.00" fill="grey">MaxZ</text>
<text text-anchor="middle" x="283.5" y="-512.73" font-family="Helvetica,sans-Serif" font-size="10.00" fill="grey">MinX</text>
<text text-anchor="middle" x="283.5" y="-501.73" font-family="Helvetica,sans-Serif" font-size="10.00" fill="grey">MinY</text>
<text text-anchor="middle" x="283.5" y="-490.73" font-family="Helvetica,sans-Serif" font-size="10.00" fill="grey">MinZ</text>
</g>
<!-- Node4 -->
<g id="Node000004" class="node">
<title>Node4</title>
<g id="a_Node000004"><a xlink:title=" ">
<polygon fill="white" stroke="#666666" points="444,-450.23 406,-450.23 406,-431.23 444,-431.23 444,-450.23"/>
<text text-anchor="middle" x="425" y="-438.23" font-family="Helvetica,sans-Serif" font-size="10.00">bool</text>
</a>
</g>
</g>
<!-- Node4&#45;&gt;Node1 -->
<g id="edge3_Node000001_Node000004" class="edge">
<title>Node4&#45;&gt;Node1</title>
<g id="a_edge3_Node000001_Node000004"><a xlink:title=" ">
<path fill="none" stroke="#9a32cd" stroke-dasharray="5,2" d="M454.32,-439.07C504.34,-435.61 605.61,-426.12 633,-404.73 673.7,-372.95 686.78,-306.85 690.33,-282.23"/>
<polygon fill="#9a32cd" stroke="#9a32cd" points="453.94,-435.59 444.19,-439.73 454.4,-442.57 453.94,-435.59"/>
</a>
</g>
<text text-anchor="middle" x="581" y="-455.73" font-family="Helvetica,sans-Serif" font-size="10.00" fill="grey"> Enabled</text>
<text text-anchor="middle" x="581" y="-444.73" font-family="Helvetica,sans-Serif" font-size="10.00" fill="grey">ManipulationStart</text>
<text text-anchor="middle" x="581" y="-433.73" font-family="Helvetica,sans-Serif" font-size="10.00" fill="grey">_draw</text>
</g>
<!-- Node5 -->
<g id="Node000005" class="node">
<title>Node5</title>
<g id="a_Node000005"><a xlink:href="structFVector.html" target="_top" xlink:title=" ">
<polygon fill="white" stroke="#666666" points="200.5,-240.23 147.5,-240.23 147.5,-221.23 200.5,-221.23 200.5,-240.23"/>
<text text-anchor="middle" x="174" y="-228.23" font-family="Helvetica,sans-Serif" font-size="10.00">FVector</text>
</a>
</g>
</g>
<!-- Node5&#45;&gt;Node1 -->
<g id="edge4_Node000001_Node000005" class="edge">
<title>Node5&#45;&gt;Node1</title>
<g id="a_edge4_Node000001_Node000005"><a xlink:title=" ">
<path fill="none" stroke="#9a32cd" stroke-dasharray="5,2" d="M203.2,-244.44C215.96,-249.96 231.42,-255.72 246,-258.73 392.45,-288.96 571.66,-281.53 650.72,-276.07"/>
<polygon fill="#9a32cd" stroke="#9a32cd" points="204.59,-241.23 194.03,-240.32 201.72,-247.61 204.59,-241.23"/>
</a>
</g>
<text text-anchor="middle" x="425" y="-316.73" font-family="Helvetica,sans-Serif" font-size="10.00" fill="grey"> InitialScale</text>
<text text-anchor="middle" x="425" y="-305.73" font-family="Helvetica,sans-Serif" font-size="10.00" fill="grey">Pos</text>
<text text-anchor="middle" x="425" y="-294.73" font-family="Helvetica,sans-Serif" font-size="10.00" fill="grey">_cursorOffset</text>
<text text-anchor="middle" x="425" y="-283.73" font-family="Helvetica,sans-Serif" font-size="10.00" fill="grey">_ray</text>
</g>
<!-- Node10 -->
<g id="Node000010" class="node">
<title>Node10</title>
<g id="a_Node000010"><a xlink:href="classEditor_1_1GameObject.html" target="_top" xlink:title=" ">
<polygon fill="white" stroke="#666666" points="481,-134.23 369,-134.23 369,-115.23 481,-115.23 481,-134.23"/>
<text text-anchor="middle" x="425" y="-122.23" font-family="Helvetica,sans-Serif" font-size="10.00">Editor::GameObject</text>
</a>
</g>
</g>
<!-- Node5&#45;&gt;Node10 -->
<g id="edge11_Node000010_Node000005" class="edge">
<title>Node5&#45;&gt;Node10</title>
<g id="a_edge11_Node000010_Node000005"><a xlink:title=" ">
<path fill="none" stroke="#9a32cd" stroke-dasharray="5,2" d="M190.63,-213.46C204.04,-199.67 224.54,-180.87 246,-169.73 258.09,-163.46 333.45,-145.49 382.16,-134.25"/>
<polygon fill="#9a32cd" stroke="#9a32cd" points="187.92,-211.23 183.61,-220.91 193.02,-216.03 187.92,-211.23"/>
</a>
</g>
<text text-anchor="middle" x="283.5" y="-205.73" font-family="Helvetica,sans-Serif" font-size="10.00" fill="grey"> Pos</text>
<text text-anchor="middle" x="283.5" y="-194.73" font-family="Helvetica,sans-Serif" font-size="10.00" fill="grey">Scale</text>
<text text-anchor="middle" x="283.5" y="-183.73" font-family="Helvetica,sans-Serif" font-size="10.00" fill="grey">SpawnPos</text>
<text text-anchor="middle" x="283.5" y="-172.73" font-family="Helvetica,sans-Serif" font-size="10.00" fill="grey">SpawnScale</text>
</g>
<!-- Node6 -->
<g id="Node000006" class="node">
<title>Node6</title>
<g id="a_Node000006"><a xlink:title=" ">
<polygon fill="white" stroke="#666666" points="47,-240.23 9,-240.23 9,-221.23 47,-221.23 47,-240.23"/>
<text text-anchor="middle" x="28" y="-228.23" font-family="Helvetica,sans-Serif" font-size="10.00">float</text>
</a>
</g>
</g>
<!-- Node6&#45;&gt;Node1 -->
<g id="edge17_Node000001_Node000006" class="edge">
<title>Node6&#45;&gt;Node1</title>
<g id="a_edge17_Node000001_Node000006"><a xlink:title=" ">
<path fill="none" stroke="#9a32cd" stroke-dasharray="5,2" d="M45.56,-247.5C53.55,-254.71 63.63,-262.63 74,-267.73 182.44,-321.08 218.91,-315.09 339,-328.73 414.96,-337.36 435.34,-339.66 511,-328.73 569.61,-320.26 635.31,-295.9 668.96,-282.26"/>
<polygon fill="#9a32cd" stroke="#9a32cd" points="47.74,-244.74 38.08,-240.4 42.93,-249.82 47.74,-244.74"/>
</a>
</g>
<text text-anchor="middle" x="283.5" y="-361.73" font-family="Helvetica,sans-Serif" font-size="10.00" fill="grey"> AllAxisRadius</text>
<text text-anchor="middle" x="283.5" y="-350.73" font-family="Helvetica,sans-Serif" font-size="10.00" fill="grey">HandleSize</text>
<text text-anchor="middle" x="283.5" y="-339.73" font-family="Helvetica,sans-Serif" font-size="10.00" fill="grey">PickDistance</text>
<text text-anchor="middle" x="283.5" y="-328.73" font-family="Helvetica,sans-Serif" font-size="10.00" fill="grey">_gizmoOffset</text>
</g>
<!-- Node6&#45;&gt;Node5 -->
<g id="edge5_Node000005_Node000006" class="edge">
<title>Node6&#45;&gt;Node5</title>
<g id="a_edge5_Node000005_Node000006"><a xlink:title=" ">
<path fill="none" stroke="#9a32cd" stroke-dasharray="5,2" d="M57.29,-230.73C83.48,-230.73 122.09,-230.73 147.39,-230.73"/>
<polygon fill="#9a32cd" stroke="#9a32cd" points="57.24,-227.23 47.24,-230.73 57.24,-234.23 57.24,-227.23"/>
</a>
</g>
<text text-anchor="middle" x="88" y="-255.73" font-family="Helvetica,sans-Serif" font-size="10.00" fill="grey"> x</text>
<text text-anchor="middle" x="88" y="-244.73" font-family="Helvetica,sans-Serif" font-size="10.00" fill="grey">y</text>
<text text-anchor="middle" x="88" y="-233.73" font-family="Helvetica,sans-Serif" font-size="10.00" fill="grey">z</text>
</g>
<!-- Node6&#45;&gt;Node10 -->
<g id="edge13_Node000010_Node000006" class="edge">
<title>Node6&#45;&gt;Node10</title>
<g id="a_edge13_Node000010_Node000006"><a xlink:title=" ">
<path fill="none" stroke="#9a32cd" stroke-dasharray="5,2" d="M37.01,-211.39C49.82,-183.38 77.82,-132.58 120,-111.73 212.59,-65.98 341.05,-97.69 396.6,-115.23"/>
<polygon fill="#9a32cd" stroke="#9a32cd" points="33.65,-210.34 32.85,-220.91 40.07,-213.15 33.65,-210.34"/>
</a>
</g>
<text text-anchor="middle" x="174" y="-125.73" font-family="Helvetica,sans-Serif" font-size="10.00" fill="grey"> BoundingBoxSize</text>
<text text-anchor="middle" x="174" y="-114.73" font-family="Helvetica,sans-Serif" font-size="10.00" fill="grey">Speed</text>
</g>
<!-- Node7 -->
<g id="Node000007" class="node">
<title>Node7</title>
<g id="a_Node000007"><a xlink:href="structIRotator.html" target="_top" xlink:title=" ">
<polygon fill="white" stroke="#666666" points="202,-389.23 146,-389.23 146,-370.23 202,-370.23 202,-389.23"/>
<text text-anchor="middle" x="174" y="-377.23" font-family="Helvetica,sans-Serif" font-size="10.00">IRotator</text>
</a>
</g>
</g>
<!-- Node7&#45;&gt;Node1 -->
<g id="edge6_Node000001_Node000007" class="edge">
<title>Node7&#45;&gt;Node1</title>
<g id="a_edge6_Node000001_Node000007"><a xlink:title=" ">
<path fill="none" stroke="#9a32cd" stroke-dasharray="5,2" d="M212.39,-382.27C308.51,-388.12 561.66,-399.16 633,-358.73 663.48,-341.46 681.36,-300.98 688.23,-282.38"/>
<polygon fill="#9a32cd" stroke="#9a32cd" points="212.46,-378.76 202.26,-381.63 212.02,-385.75 212.46,-378.76"/>
</a>
</g>
<text text-anchor="middle" x="425" y="-401.73" font-family="Helvetica,sans-Serif" font-size="10.00" fill="grey"> InitialRotation</text>
<text text-anchor="middle" x="425" y="-390.73" font-family="Helvetica,sans-Serif" font-size="10.00" fill="grey">Rot</text>
</g>
<!-- Node7&#45;&gt;Node10 -->
<g id="edge12_Node000010_Node000007" class="edge">
<title>Node7&#45;&gt;Node10</title>
<g id="a_edge12_Node000010_Node000007"><a xlink:title=" ">
<path fill="none" stroke="#9a32cd" stroke-dasharray="5,2" d="M187.42,-361.81C200.97,-342.73 223.71,-311.99 246,-287.73 276.06,-255.03 378.4,-164.71 412.7,-134.62"/>
<polygon fill="#9a32cd" stroke="#9a32cd" points="184.44,-359.97 181.55,-370.17 190.16,-364 184.44,-359.97"/>
</a>
</g>
<text text-anchor="middle" x="283.5" y="-301.73" font-family="Helvetica,sans-Serif" font-size="10.00" fill="grey"> Rot</text>
<text text-anchor="middle" x="283.5" y="-290.73" font-family="Helvetica,sans-Serif" font-size="10.00" fill="grey">SpawnRot</text>
</g>
<!-- Node8 -->
<g id="Node000008" class="node">
<title>Node8</title>
<g id="a_Node000008"><a xlink:title=" ">
<polygon fill="white" stroke="#666666" points="56,-389.23 0,-389.23 0,-370.23 56,-370.23 56,-389.23"/>
<text text-anchor="middle" x="28" y="-377.23" font-family="Helvetica,sans-Serif" font-size="10.00">uint16_t</text>
</a>
</g>
</g>
<!-- Node8&#45;&gt;Node7 -->
<g id="edge7_Node000007_Node000008" class="edge">
<title>Node8&#45;&gt;Node7</title>
<g id="a_edge7_Node000007_Node000008"><a xlink:title=" ">
<path fill="none" stroke="#9a32cd" stroke-dasharray="5,2" d="M66.22,-379.73C91.02,-379.73 123.06,-379.73 145.55,-379.73"/>
<polygon fill="#9a32cd" stroke="#9a32cd" points="66.09,-376.23 56.09,-379.73 66.09,-383.23 66.09,-376.23"/>
</a>
</g>
<text text-anchor="middle" x="88" y="-404.73" font-family="Helvetica,sans-Serif" font-size="10.00" fill="grey"> pitch</text>
<text text-anchor="middle" x="88" y="-393.73" font-family="Helvetica,sans-Serif" font-size="10.00" fill="grey">roll</text>
<text text-anchor="middle" x="88" y="-382.73" font-family="Helvetica,sans-Serif" font-size="10.00" fill="grey">yaw</text>
</g>
<!-- Node9 -->
<g id="Node000009" class="node">
<title>Node9</title>
<g id="a_Node000009"><a xlink:title=" ">
<polygon fill="white" stroke="#666666" points="466.5,-236.23 383.5,-236.23 383.5,-217.23 466.5,-217.23 466.5,-236.23"/>
<text text-anchor="middle" x="425" y="-224.23" font-family="Helvetica,sans-Serif" font-size="10.00">GizmoHandle</text>
</a>
</g>
</g>
<!-- Node9&#45;&gt;Node1 -->
<g id="edge8_Node000001_Node000009" class="edge">
<title>Node9&#45;&gt;Node1</title>
<g id="a_edge8_Node000001_Node000009"><a xlink:title=" ">
<path fill="none" stroke="#9a32cd" stroke-dasharray="5,2" d="M476.78,-227.62C519.15,-229.37 580.82,-234.27 633,-247.73 646.9,-251.32 661.77,-257.71 673.04,-263.13"/>
<polygon fill="#9a32cd" stroke="#9a32cd" points="476.83,-224.12 466.7,-227.25 476.57,-231.11 476.83,-224.12"/>
</a>
</g>
<text text-anchor="middle" x="581" y="-250.73" font-family="Helvetica,sans-Serif" font-size="10.00" fill="grey"> SelectedHandle</text>
</g>
<!-- Node10&#45;&gt;Node1 -->
<g id="edge9_Node000001_Node000010" class="edge">
<title>Node10&#45;&gt;Node1</title>
<g id="a_edge9_Node000001_Node000010"><a xlink:title=" ">
<path fill="none" stroke="#9a32cd" stroke-dasharray="5,2" d="M467.6,-112.83C512.52,-102.62 584.18,-94.27 633,-127.73 679.8,-159.81 689.17,-236.16 691.04,-263.11"/>
<polygon fill="#9a32cd" stroke="#9a32cd" points="466.52,-109.49 457.61,-115.23 468.15,-116.3 466.52,-109.49"/>
</a>
</g>
<text text-anchor="middle" x="581" y="-218.73" font-family="Helvetica,sans-Serif" font-size="10.00" fill="grey"> BlueCollision</text>
<text text-anchor="middle" x="581" y="-207.73" font-family="Helvetica,sans-Serif" font-size="10.00" fill="grey">BlueRotateCollision</text>
<text text-anchor="middle" x="581" y="-196.73" font-family="Helvetica,sans-Serif" font-size="10.00" fill="grey">BlueScaleCollision</text>
<text text-anchor="middle" x="581" y="-185.73" font-family="Helvetica,sans-Serif" font-size="10.00" fill="grey">GreenCollision</text>
<text text-anchor="middle" x="581" y="-174.73" font-family="Helvetica,sans-Serif" font-size="10.00" fill="grey">GreenRotateCollision</text>
<text text-anchor="middle" x="581" y="-163.73" font-family="Helvetica,sans-Serif" font-size="10.00" fill="grey">GreenScaleCollision</text>
<text text-anchor="middle" x="581" y="-152.73" font-family="Helvetica,sans-Serif" font-size="10.00" fill="grey">RedCollision</text>
<text text-anchor="middle" x="581" y="-141.73" font-family="Helvetica,sans-Serif" font-size="10.00" fill="grey">RedRotateCollision</text>
<text text-anchor="middle" x="581" y="-130.73" font-family="Helvetica,sans-Serif" font-size="10.00" fill="grey">RedScaleCollision</text>
</g>
<!-- Node11 -->
<g id="Node000011" class="node">
<title>Node11</title>
<g id="a_Node000011"><a xlink:title=" ">
<polygon fill="white" stroke="#666666" points="211.5,-19.23 136.5,-19.23 136.5,-0.23 211.5,-0.23 211.5,-19.23"/>
<text text-anchor="middle" x="174" y="-7.23" font-family="Helvetica,sans-Serif" font-size="10.00">const char *</text>
</a>
</g>
</g>
<!-- Node11&#45;&gt;Node10 -->
<g id="edge10_Node000010_Node000011" class="edge">
<title>Node11&#45;&gt;Node10</title>
<g id="a_edge10_Node000010_Node000011"><a xlink:title=" ">
<path fill="none" stroke="#9a32cd" stroke-dasharray="5,2" d="M222.02,-1.17C253.49,1.78 293.95,-0.19 321,-22.73 344.03,-41.92 319.34,-65.1 339,-87.73 350.4,-100.86 367.31,-109.49 383.05,-115.09"/>
<polygon fill="#9a32cd" stroke="#9a32cd" points="221.27,2.27 211.73,-2.33 222.06,-4.68 221.27,2.27"/>
</a>
</g>
<text text-anchor="middle" x="283.5" y="-47.73" font-family="Helvetica,sans-Serif" font-size="10.00" fill="grey"> Model</text>
<text text-anchor="middle" x="283.5" y="-36.73" font-family="Helvetica,sans-Serif" font-size="10.00" fill="grey">Name</text>
<text text-anchor="middle" x="283.5" y="-25.73" font-family="Helvetica,sans-Serif" font-size="10.00" fill="grey">ResourceName</text>
</g>
<!-- Node12 -->
<g id="Node000012" class="node">
<title>Node12</title>
<g id="a_Node000012"><a xlink:title=" ">
<polygon fill="white" stroke="#666666" points="228,-65.23 120,-65.23 120,-46.23 228,-46.23 228,-65.23"/>
<text text-anchor="middle" x="174" y="-53.23" font-family="Helvetica,sans-Serif" font-size="10.00">vector&lt; Triangle &gt;</text>
</a>
</g>
</g>
<!-- Node12&#45;&gt;Node10 -->
<g id="edge14_Node000010_Node000012" class="edge">
<title>Node12&#45;&gt;Node10</title>
<g id="a_edge14_Node000010_Node000012"><a xlink:title=" ">
<path fill="none" stroke="#9a32cd" stroke-dasharray="5,2" d="M238.46,-59.23C264.6,-62.1 294.84,-67.31 321,-76.73 329.82,-79.91 330.68,-83.41 339,-87.73 358.99,-98.13 382.54,-108.22 399.77,-115.23"/>
<polygon fill="#9a32cd" stroke="#9a32cd" points="238.58,-55.72 228.28,-58.2 237.88,-62.69 238.58,-55.72"/>
</a>
</g>
<text text-anchor="middle" x="283.5" y="-79.73" font-family="Helvetica,sans-Serif" font-size="10.00" fill="grey"> Triangles</text>
</g>
<!-- Node13 -->
<g id="Node000013" class="node">
<title>Node13</title>
<g id="a_Node000013"><a xlink:title=" ">
<polygon fill="white" stroke="#666666" points="214.5,-161.23 133.5,-161.23 133.5,-142.23 214.5,-142.23 214.5,-161.23"/>
<text text-anchor="middle" x="174" y="-149.23" font-family="Helvetica,sans-Serif" font-size="10.00">CollisionType</text>
</a>
</g>
</g>
<!-- Node13&#45;&gt;Node10 -->
<g id="edge15_Node000010_Node000013" class="edge">
<title>Node13&#45;&gt;Node10</title>
<g id="a_edge15_Node000010_Node000013"><a xlink:title=" ">
<path fill="none" stroke="#9a32cd" stroke-dasharray="5,2" d="M221.94,-140.05C229.93,-138.38 238.17,-136.85 246,-135.73 286.92,-129.9 333.57,-127.16 368.84,-125.87"/>
<polygon fill="#9a32cd" stroke="#9a32cd" points="221.03,-136.66 212.01,-142.22 222.53,-143.5 221.03,-136.66"/>
</a>
</g>
<text text-anchor="middle" x="283.5" y="-138.73" font-family="Helvetica,sans-Serif" font-size="10.00" fill="grey"> Collision</text>
</g>
<!-- Node14 -->
<g id="Node000014" class="node">
<title>Node14</title>
<g id="a_Node000014"><a xlink:title=" ">
<polygon fill="white" stroke="#666666" points="445.5,-78.23 404.5,-78.23 404.5,-59.23 445.5,-59.23 445.5,-78.23"/>
<text text-anchor="middle" x="425" y="-66.23" font-family="Helvetica,sans-Serif" font-size="10.00">MtxF</text>
</a>
</g>
</g>
<!-- Node14&#45;&gt;Node1 -->
<g id="edge16_Node000001_Node000014" class="edge">
<title>Node14&#45;&gt;Node1</title>
<g id="a_edge16_Node000001_Node000014"><a xlink:title=" ">
<path fill="none" stroke="#9a32cd" stroke-dasharray="5,2" d="M455.5,-64.19C505.93,-57.11 605.89,-46.25 633,-66.73 665.63,-91.39 685.38,-225.8 690.29,-263.12"/>
<polygon fill="#9a32cd" stroke="#9a32cd" points="454.94,-60.74 445.54,-65.63 455.94,-67.67 454.94,-60.74"/>
</a>
</g>
<text text-anchor="middle" x="581" y="-91.73" font-family="Helvetica,sans-Serif" font-size="10.00" fill="grey"> Mtx_BlueZ</text>
<text text-anchor="middle" x="581" y="-80.73" font-family="Helvetica,sans-Serif" font-size="10.00" fill="grey">Mtx_GreenY</text>
<text text-anchor="middle" x="581" y="-69.73" font-family="Helvetica,sans-Serif" font-size="10.00" fill="grey">Mtx_RedX</text>
</g>
<!-- Node15 -->
<g id="Node000015" class="node">
<title>Node15</title>
<g id="a_Node000015"><a xlink:title=" ">
<polygon fill="white" stroke="#666666" points="478.5,-41.23 371.5,-41.23 371.5,-0.23 478.5,-0.23 478.5,-41.23"/>
<text text-anchor="start" x="379.5" y="-29.23" font-family="Helvetica,sans-Serif" font-size="10.00">variant&lt; AActor *,</text>
<text text-anchor="start" x="379.5" y="-18.23" font-family="Helvetica,sans-Serif" font-size="10.00"> OObject *, Editor::</text>
<text text-anchor="middle" x="425" y="-7.23" font-family="Helvetica,sans-Serif" font-size="10.00">GameObject * &gt;</text>
</a>
</g>
</g>
<!-- Node15&#45;&gt;Node1 -->
<g id="edge18_Node000001_Node000015" class="edge">
<title>Node15&#45;&gt;Node1</title>
<g id="a_edge18_Node000001_Node000015"><a xlink:title=" ">
<path fill="none" stroke="#9a32cd" stroke-dasharray="5,2" d="M488.76,-8.92C534.05,-4.18 593.88,-6.23 633,-39.73 668.16,-69.84 686.33,-222.95 690.54,-263.09"/>
<polygon fill="#9a32cd" stroke="#9a32cd" points="488.27,-5.45 478.74,-10.1 489.09,-12.41 488.27,-5.45"/>
</a>
</g>
<text text-anchor="middle" x="581" y="-42.73" font-family="Helvetica,sans-Serif" font-size="10.00" fill="grey"> _selected</text>
</g>
</g>
</svg>
