<?xml version="1.0" encoding="UTF-8" standalone="no"?>
<!DOCTYPE svg PUBLIC "-//W3C//DTD SVG 1.1//EN"
 "http://www.w3.org/Graphics/SVG/1.1/DTD/svg11.dtd">
<!-- Generated by graphviz version 2.43.0 (0)
 -->
<!-- Title: ATruck::Spawn Pages: 1 -->
<svg width="1701pt" height="415pt"
 viewBox="0.00 0.00 1701.00 415.00" xmlns="http://www.w3.org/2000/svg" xmlns:xlink="http://www.w3.org/1999/xlink">
<g id="graph0" class="graph" transform="scale(1 1) rotate(0) translate(4 411)">
<title>ATruck::Spawn</title>
<!-- Node1 -->
<g id="Node000001" class="node">
<title>Node1</title>
<g id="a_Node000001"><a xlink:title=" ">
<polygon fill="#999999" stroke="#666666" points="86,-132 0,-132 0,-113 86,-113 86,-132"/>
<text text-anchor="middle" x="43" y="-120" font-family="Helvetica,sans-Serif" font-size="10.00">ATruck::Spawn</text>
</a>
</g>
</g>
<!-- Node2 -->
<g id="Node000002" class="node">
<title>Node2</title>
<g id="a_Node000002"><a xlink:href="classATruck.html#a8b5a611d66bd00a6ddf86eec0920a583" target="_top" xlink:title=" ">
<polygon fill="white" stroke="#666666" points="208,-132 122,-132 122,-113 208,-113 208,-132"/>
<text text-anchor="middle" x="165" y="-120" font-family="Helvetica,sans-Serif" font-size="10.00">ATruck::ATruck</text>
</a>
</g>
</g>
<!-- Node1&#45;&gt;Node2 -->
<g id="edge1_Node000001_Node000002" class="edge">
<title>Node1&#45;&gt;Node2</title>
<g id="a_edge1_Node000001_Node000002"><a xlink:title=" ">
<path fill="none" stroke="#63b8ff" d="M86.31,-122.5C94.46,-122.5 103.1,-122.5 111.53,-122.5"/>
<polygon fill="#63b8ff" stroke="#63b8ff" points="111.67,-126 121.67,-122.5 111.67,-119 111.67,-126"/>
</a>
</g>
</g>
<!-- Node3 -->
<g id="Node000003" class="node">
<title>Node3</title>
<g id="a_Node000003"><a xlink:href="classAActor.html#a679c43bacf3600fa2d7a6ab30e34a8a6" target="_top" xlink:title=" ">
<polygon fill="white" stroke="#666666" points="372,-276 285,-276 285,-257 372,-257 372,-276"/>
<text text-anchor="middle" x="328.5" y="-264" font-family="Helvetica,sans-Serif" font-size="10.00">AActor::AActor</text>
</a>
</g>
</g>
<!-- Node2&#45;&gt;Node3 -->
<g id="edge2_Node000002_Node000003" class="edge">
<title>Node2&#45;&gt;Node3</title>
<g id="a_edge2_Node000002_Node000003"><a xlink:title=" ">
<path fill="none" stroke="#63b8ff" d="M169.04,-132.24C177.05,-156.2 201.11,-218.24 244,-248.5 253.09,-254.91 264.03,-259.11 274.94,-261.85"/>
<polygon fill="#63b8ff" stroke="#63b8ff" points="274.4,-265.31 284.91,-263.97 275.86,-258.46 274.4,-265.31"/>
</a>
</g>
</g>
<!-- Node4 -->
<g id="Node000004" class="node">
<title>Node4</title>
<g id="a_Node000004"><a xlink:href="actors_8c.html#a91fb2e4e37e7c72fea918fe2c1bb4eaf" target="_top" xlink:title=" ">
<polygon fill="white" stroke="#666666" points="398.5,-239 258.5,-239 258.5,-220 398.5,-220 398.5,-239"/>
<text text-anchor="middle" x="328.5" y="-227" font-family="Helvetica,sans-Serif" font-size="10.00">add_actor_to_empty_slot</text>
</a>
</g>
</g>
<!-- Node2&#45;&gt;Node4 -->
<g id="edge3_Node000002_Node000004" class="edge">
<title>Node2&#45;&gt;Node4</title>
<g id="a_edge3_Node000002_Node000004"><a xlink:title=" ">
<path fill="none" stroke="#63b8ff" d="M180.36,-132.11C196,-142.56 221.75,-159.76 244,-174.5 264.39,-188.01 287.63,-203.31 304.41,-214.34"/>
<polygon fill="#63b8ff" stroke="#63b8ff" points="302.72,-217.42 313,-219.99 306.57,-211.57 302.72,-217.42"/>
</a>
</g>
</g>
<!-- Node30 -->
<g id="Node000030" class="node">
<title>Node30</title>
<g id="a_Node000030"><a xlink:href="code__80005FD0_8c.html#a45fa364fbae557a3d2025ebdc0846cd2" target="_top" xlink:title=" ">
<polygon fill="white" stroke="#666666" points="552,-67 458,-67 458,-48 552,-48 552,-67"/>
<text text-anchor="middle" x="505" y="-55" font-family="Helvetica,sans-Serif" font-size="10.00">func_8000D6D0</text>
</a>
</g>
</g>
<!-- Node2&#45;&gt;Node30 -->
<g id="edge29_Node000002_Node000030" class="edge">
<title>Node2&#45;&gt;Node30</title>
<g id="a_edge29_Node000002_Node000030"><a xlink:title=" ">
<path fill="none" stroke="#63b8ff" d="M175.49,-112.74C189.18,-99.41 215.91,-76.08 244,-66.5 311.27,-43.56 394.08,-45.42 447.9,-50.26"/>
<polygon fill="#63b8ff" stroke="#63b8ff" points="447.65,-53.75 457.94,-51.23 448.32,-46.79 447.65,-53.75"/>
</a>
</g>
</g>
<!-- Node44 -->
<g id="Node000044" class="node">
<title>Node44</title>
<g id="a_Node000044"><a xlink:href="code__80005FD0_8c.html#a124bae511133f507498b19842362feeb" target="_top" xlink:title=" ">
<polygon fill="white" stroke="#666666" points="551,-122 459,-122 459,-103 551,-103 551,-122"/>
<text text-anchor="middle" x="505" y="-110" font-family="Helvetica,sans-Serif" font-size="10.00">func_8000D940</text>
</a>
</g>
</g>
<!-- Node2&#45;&gt;Node44 -->
<g id="edge44_Node000002_Node000044" class="edge">
<title>Node2&#45;&gt;Node44</title>
<g id="a_edge44_Node000002_Node000044"><a xlink:title=" ">
<path fill="none" stroke="#63b8ff" d="M199.88,-132.08C213.47,-135.46 229.36,-138.83 244,-140.5 318.63,-149 338.72,-151.67 413,-140.5 432.4,-137.58 453.38,-131.35 470.29,-125.5"/>
<polygon fill="#63b8ff" stroke="#63b8ff" points="471.5,-128.79 479.74,-122.14 469.15,-122.2 471.5,-128.79"/>
</a>
</g>
</g>
<!-- Node45 -->
<g id="Node000045" class="node">
<title>Node45</title>
<g id="a_Node000045"><a xlink:href="Utils_8cpp.html#aeaf9fffe1458c3ce2a95a80906db76c3" target="_top" xlink:title=" ">
<polygon fill="white" stroke="#666666" points="413,-95 244,-95 244,-76 413,-76 413,-95"/>
<text text-anchor="middle" x="328.5" y="-83" font-family="Helvetica,sans-Serif" font-size="10.00">GetVehiclePathPointDistributed</text>
</a>
</g>
</g>
<!-- Node2&#45;&gt;Node45 -->
<g id="edge49_Node000002_Node000045" class="edge">
<title>Node2&#45;&gt;Node45</title>
<g id="a_edge49_Node000002_Node000045"><a xlink:title=" ">
<path fill="none" stroke="#63b8ff" d="M204.44,-112.92C217.03,-109.84 231.09,-106.46 244,-103.5 253.02,-101.43 262.61,-99.3 271.95,-97.26"/>
<polygon fill="#63b8ff" stroke="#63b8ff" points="272.92,-100.63 281.95,-95.09 271.43,-93.79 272.92,-100.63"/>
</a>
</g>
</g>
<!-- Node46 -->
<g id="Node000046" class="node">
<title>Node46</title>
<g id="a_Node000046"><a xlink:href="math__util_8c.html#a151b63b8adf9af7e4054b3b84bd226dc" target="_top" xlink:title=" ">
<polygon fill="white" stroke="#666666" points="364.5,-19 292.5,-19 292.5,0 364.5,0 364.5,-19"/>
<text text-anchor="middle" x="328.5" y="-7" font-family="Helvetica,sans-Serif" font-size="10.00">random_int</text>
</a>
</g>
</g>
<!-- Node2&#45;&gt;Node46 -->
<g id="edge50_Node000002_Node000046" class="edge">
<title>Node2&#45;&gt;Node46</title>
<g id="a_edge50_Node000002_Node000046"><a xlink:title=" ">
<path fill="none" stroke="#63b8ff" d="M171.76,-112.84C183.19,-94.54 210.52,-54.75 244,-33.5 255.57,-26.16 269.44,-21 282.53,-17.41"/>
<polygon fill="#63b8ff" stroke="#63b8ff" points="283.48,-20.78 292.33,-14.96 281.78,-13.99 283.48,-20.78"/>
</a>
</g>
</g>
<!-- Node48 -->
<g id="Node000048" class="node">
<title>Node48</title>
<g id="a_Node000048"><a xlink:href="code__80005FD0_8c.html#ac8070bcd41974c70ea8b6d4218b1ebef" target="_top" xlink:title=" ">
<polygon fill="white" stroke="#666666" points="395,-132 262,-132 262,-113 395,-113 395,-132"/>
<text text-anchor="middle" x="328.5" y="-120" font-family="Helvetica,sans-Serif" font-size="10.00">spawn_vehicle_on_road</text>
</a>
</g>
</g>
<!-- Node2&#45;&gt;Node48 -->
<g id="edge52_Node000002_Node000048" class="edge">
<title>Node2&#45;&gt;Node48</title>
<g id="a_edge52_Node000002_Node000048"><a xlink:title=" ">
<path fill="none" stroke="#63b8ff" d="M208.01,-122.5C221.38,-122.5 236.6,-122.5 251.59,-122.5"/>
<polygon fill="#63b8ff" stroke="#63b8ff" points="251.91,-126 261.91,-122.5 251.91,-119 251.91,-126"/>
</a>
</g>
</g>
<!-- Node5 -->
<g id="Node000005" class="node">
<title>Node5</title>
<g id="a_Node000005"><a xlink:href="actors_8c.html#a39c023177b5a7686cdd1fc65b8b953e1" target="_top" xlink:title=" ">
<polygon fill="white" stroke="#666666" points="536,-220 474,-220 474,-201 536,-201 536,-220"/>
<text text-anchor="middle" x="505" y="-208" font-family="Helvetica,sans-Serif" font-size="10.00">actor_init</text>
</a>
</g>
</g>
<!-- Node4&#45;&gt;Node5 -->
<g id="edge4_Node000004_Node000005" class="edge">
<title>Node4&#45;&gt;Node5</title>
<g id="a_edge4_Node000004_Node000005"><a xlink:title=" ">
<path fill="none" stroke="#63b8ff" d="M398.72,-221.96C420.82,-219.56 444.53,-216.97 463.85,-214.87"/>
<polygon fill="#63b8ff" stroke="#63b8ff" points="464.24,-218.35 473.8,-213.79 463.48,-211.39 464.24,-218.35"/>
</a>
</g>
</g>
<!-- Node27 -->
<g id="Node000027" class="node">
<title>Node27</title>
<g id="a_Node000027"><a xlink:href="Game_8cpp.html#acea5cfd9ab22f745bd6627869b95a62e" target="_top" xlink:title=" ">
<polygon fill="white" stroke="#666666" points="561,-331 449,-331 449,-312 561,-312 561,-331"/>
<text text-anchor="middle" x="505" y="-319" font-family="Helvetica,sans-Serif" font-size="10.00">CM_ActorBeginPlay</text>
</a>
</g>
</g>
<!-- Node4&#45;&gt;Node27 -->
<g id="edge26_Node000004_Node000027" class="edge">
<title>Node4&#45;&gt;Node27</title>
<g id="a_edge26_Node000004_Node000027"><a xlink:title=" ">
<path fill="none" stroke="#63b8ff" d="M394.97,-239.16C401.36,-241.62 407.51,-244.68 413,-248.5 436.99,-265.18 425.81,-285.73 449,-303.5 450.81,-304.89 452.74,-306.18 454.74,-307.36"/>
<polygon fill="#63b8ff" stroke="#63b8ff" points="453.41,-310.61 463.92,-311.97 456.56,-304.36 453.41,-310.61"/>
</a>
</g>
</g>
<!-- Node28 -->
<g id="Node000028" class="node">
<title>Node28</title>
<g id="a_Node000028"><a xlink:href="Game_8cpp.html#a42f23077aaa52cb3ea5c7803b7dd6816" target="_top" xlink:title=" ">
<polygon fill="white" stroke="#666666" points="558,-294 452,-294 452,-275 558,-275 558,-294"/>
<text text-anchor="middle" x="505" y="-282" font-family="Helvetica,sans-Serif" font-size="10.00">CM_AddBaseActor</text>
</a>
</g>
</g>
<!-- Node4&#45;&gt;Node28 -->
<g id="edge27_Node000004_Node000028" class="edge">
<title>Node4&#45;&gt;Node28</title>
<g id="a_edge27_Node000004_Node000028"><a xlink:title=" ">
<path fill="none" stroke="#63b8ff" d="M380.4,-239.03C391.29,-241.64 402.64,-244.79 413,-248.5 429.84,-254.53 432.45,-259.7 449,-266.5 453.24,-268.24 457.72,-269.94 462.22,-271.55"/>
<polygon fill="#63b8ff" stroke="#63b8ff" points="461.41,-274.97 472.01,-274.91 463.69,-268.35 461.41,-274.97"/>
</a>
</g>
</g>
<!-- Node29 -->
<g id="Node000029" class="node">
<title>Node29</title>
<g id="a_Node000029"><a xlink:href="Game_8cpp.html#a0841ffe9a66e95aca42438b9d8ffc3d3" target="_top" xlink:title=" ">
<polygon fill="white" stroke="#666666" points="555.5,-257 454.5,-257 454.5,-238 555.5,-238 555.5,-257"/>
<text text-anchor="middle" x="505" y="-245" font-family="Helvetica,sans-Serif" font-size="10.00">CM_GetActorSize</text>
</a>
</g>
</g>
<!-- Node4&#45;&gt;Node29 -->
<g id="edge28_Node000004_Node000029" class="edge">
<title>Node4&#45;&gt;Node29</title>
<g id="a_edge28_Node000004_Node000029"><a xlink:title=" ">
<path fill="none" stroke="#63b8ff" d="M398.72,-236.64C413.79,-238.2 429.62,-239.83 444.29,-241.34"/>
<polygon fill="#63b8ff" stroke="#63b8ff" points="443.93,-244.82 454.24,-242.37 444.65,-237.86 443.93,-244.82"/>
</a>
</g>
</g>
<!-- Node6 -->
<g id="Node000006" class="node">
<title>Node6</title>
<g id="a_Node000006"><a xlink:href="collision_8c.html#a37aa55b3768d001533ad75e7f1b8388a" target="_top" xlink:title=" ">
<polygon fill="white" stroke="#666666" points="1103.5,-174 962.5,-174 962.5,-155 1103.5,-155 1103.5,-174"/>
<text text-anchor="middle" x="1033" y="-162" font-family="Helvetica,sans-Serif" font-size="10.00">check_bounding_collision</text>
</a>
</g>
</g>
<!-- Node5&#45;&gt;Node6 -->
<g id="edge5_Node000005_Node000006" class="edge">
<title>Node5&#45;&gt;Node6</title>
<g id="a_edge5_Node000005_Node000006"><a xlink:title=" ">
<path fill="none" stroke="#63b8ff" d="M536.14,-203.07C553.78,-199.01 576.53,-194.26 597,-191.5 720.35,-174.88 864.77,-168.47 952.27,-166.01"/>
<polygon fill="#63b8ff" stroke="#63b8ff" points="952.49,-169.51 962.39,-165.74 952.3,-162.51 952.49,-169.51"/>
</a>
</g>
</g>
<!-- Node10 -->
<g id="Node000010" class="node">
<title>Node10</title>
<g id="a_Node000010"><a xlink:href="actors_8c.html#a1a9bccb586242555a9123ebd4ab70f2a" target="_top" xlink:title=" ">
<polygon fill="white" stroke="#666666" points="732.5,-360.5 600.5,-360.5 600.5,-330.5 732.5,-330.5 732.5,-360.5"/>
<text text-anchor="start" x="608.5" y="-348.5" font-family="Helvetica,sans-Serif" font-size="10.00">cleanup_red_and_green</text>
<text text-anchor="middle" x="666.5" y="-337.5" font-family="Helvetica,sans-Serif" font-size="10.00">_shells</text>
</a>
</g>
</g>
<!-- Node5&#45;&gt;Node10 -->
<g id="edge9_Node000005_Node000010" class="edge">
<title>Node5&#45;&gt;Node10</title>
<g id="a_edge9_Node000005_Node000010"><a xlink:title=" ">
<path fill="none" stroke="#63b8ff" d="M536.24,-215.69C544.99,-218.37 554.05,-222.41 561,-228.5 588.8,-252.87 572.23,-276.05 597,-303.5 604.58,-311.9 614.24,-319.2 623.9,-325.25"/>
<polygon fill="#63b8ff" stroke="#63b8ff" points="622.32,-328.38 632.71,-330.45 625.88,-322.35 622.32,-328.38"/>
</a>
</g>
</g>
<!-- Node23 -->
<g id="Node000023" class="node">
<title>Node23</title>
<g id="a_Node000023"><a xlink:href="collision_8c.html#ad72fef3ffe32191d73b1822f512ebf3f" target="_top" xlink:title=" ">
<polygon fill="white" stroke="#666666" points="714,-294 619,-294 619,-275 714,-275 714,-294"/>
<text text-anchor="middle" x="666.5" y="-282" font-family="Helvetica,sans-Serif" font-size="10.00">func_802AAAAC</text>
</a>
</g>
</g>
<!-- Node5&#45;&gt;Node23 -->
<g id="edge22_Node000005_Node000023" class="edge">
<title>Node5&#45;&gt;Node23</title>
<g id="a_edge22_Node000005_Node000023"><a xlink:title=" ">
<path fill="none" stroke="#63b8ff" d="M536.03,-217.38C544.5,-220.08 553.44,-223.72 561,-228.5 580.66,-240.94 576.98,-254.65 597,-266.5 600.85,-268.78 605,-270.78 609.27,-272.53"/>
<polygon fill="#63b8ff" stroke="#63b8ff" points="608.17,-275.85 618.77,-275.96 610.56,-269.27 608.17,-275.85"/>
</a>
</g>
</g>
<!-- Node25 -->
<g id="Node000025" class="node">
<title>Node25</title>
<g id="a_Node000025"><a xlink:href="math__util_8c.html#af7b470ed76fce07b8042a47c96e5690b" target="_top" xlink:title=" ">
<polygon fill="white" stroke="#666666" points="720,-257 613,-257 613,-238 720,-238 720,-257"/>
<text text-anchor="middle" x="666.5" y="-245" font-family="Helvetica,sans-Serif" font-size="10.00">vec3f_copy_return</text>
</a>
</g>
</g>
<!-- Node5&#45;&gt;Node25 -->
<g id="edge24_Node000005_Node000025" class="edge">
<title>Node5&#45;&gt;Node25</title>
<g id="a_edge24_Node000005_Node000025"><a xlink:title=" ">
<path fill="none" stroke="#63b8ff" d="M536,-217.46C558.07,-222.58 588.6,-229.66 614.47,-235.66"/>
<polygon fill="#63b8ff" stroke="#63b8ff" points="613.97,-239.14 624.5,-237.99 615.55,-232.32 613.97,-239.14"/>
</a>
</g>
</g>
<!-- Node26 -->
<g id="Node000026" class="node">
<title>Node26</title>
<g id="a_Node000026"><a xlink:href="math__util_8c.html#a0e270ee67600c8c9c2f140c647d008a1" target="_top" xlink:title=" ">
<polygon fill="white" stroke="#666666" points="703.5,-220 629.5,-220 629.5,-201 703.5,-201 703.5,-220"/>
<text text-anchor="middle" x="666.5" y="-208" font-family="Helvetica,sans-Serif" font-size="10.00">vec3s_copy</text>
</a>
</g>
</g>
<!-- Node5&#45;&gt;Node26 -->
<g id="edge25_Node000005_Node000026" class="edge">
<title>Node5&#45;&gt;Node26</title>
<g id="a_edge25_Node000005_Node000026"><a xlink:title=" ">
<path fill="none" stroke="#63b8ff" d="M536,-210.5C559.42,-210.5 592.38,-210.5 619.18,-210.5"/>
<polygon fill="#63b8ff" stroke="#63b8ff" points="619.49,-214 629.49,-210.5 619.49,-207 619.49,-214"/>
</a>
</g>
</g>
<!-- Node7 -->
<g id="Node000007" class="node">
<title>Node7</title>
<g id="a_Node000007"><a xlink:href="collision_8c.html#ac312bf382cb40752f6b790a99e7cdcb6" target="_top" xlink:title=" ">
<polygon fill="white" stroke="#666666" points="1258,-137 1150,-137 1150,-118 1258,-118 1258,-137"/>
<text text-anchor="middle" x="1204" y="-125" font-family="Helvetica,sans-Serif" font-size="10.00">check_collision_yx</text>
</a>
</g>
</g>
<!-- Node6&#45;&gt;Node7 -->
<g id="edge6_Node000006_Node000007" class="edge">
<title>Node6&#45;&gt;Node7</title>
<g id="a_edge6_Node000006_Node000007"><a xlink:title=" ">
<path fill="none" stroke="#63b8ff" d="M1077.52,-154.97C1099.42,-150.18 1126.15,-144.32 1149.31,-139.25"/>
<polygon fill="#63b8ff" stroke="#63b8ff" points="1150.31,-142.62 1159.33,-137.06 1148.82,-135.78 1150.31,-142.62"/>
</a>
</g>
</g>
<!-- Node8 -->
<g id="Node000008" class="node">
<title>Node8</title>
<g id="a_Node000008"><a xlink:href="collision_8c.html#a4b48832a90e984536a0635a016ec4f28" target="_top" xlink:title=" ">
<polygon fill="white" stroke="#666666" points="1257.5,-211 1150.5,-211 1150.5,-192 1257.5,-192 1257.5,-211"/>
<text text-anchor="middle" x="1204" y="-199" font-family="Helvetica,sans-Serif" font-size="10.00">check_collision_zx</text>
</a>
</g>
</g>
<!-- Node6&#45;&gt;Node8 -->
<g id="edge7_Node000006_Node000008" class="edge">
<title>Node6&#45;&gt;Node8</title>
<g id="a_edge7_Node000006_Node000008"><a xlink:title=" ">
<path fill="none" stroke="#63b8ff" d="M1077.52,-174.03C1099.42,-178.82 1126.15,-184.68 1149.31,-189.75"/>
<polygon fill="#63b8ff" stroke="#63b8ff" points="1148.82,-193.22 1159.33,-191.94 1150.31,-186.38 1148.82,-193.22"/>
</a>
</g>
</g>
<!-- Node9 -->
<g id="Node000009" class="node">
<title>Node9</title>
<g id="a_Node000009"><a xlink:href="collision_8c.html#a21fef964ab48191a1c0341954ef27a40" target="_top" xlink:title=" ">
<polygon fill="white" stroke="#666666" points="1257.5,-174 1150.5,-174 1150.5,-155 1257.5,-155 1257.5,-174"/>
<text text-anchor="middle" x="1204" y="-162" font-family="Helvetica,sans-Serif" font-size="10.00">check_collision_zy</text>
</a>
</g>
</g>
<!-- Node6&#45;&gt;Node9 -->
<g id="edge8_Node000006_Node000009" class="edge">
<title>Node6&#45;&gt;Node9</title>
<g id="a_edge8_Node000006_Node000009"><a xlink:title=" ">
<path fill="none" stroke="#63b8ff" d="M1103.71,-164.5C1115.81,-164.5 1128.32,-164.5 1140.22,-164.5"/>
<polygon fill="#63b8ff" stroke="#63b8ff" points="1140.49,-168 1150.49,-164.5 1140.49,-161 1140.49,-168"/>
</a>
</g>
</g>
<!-- Node11 -->
<g id="Node000011" class="node">
<title>Node11</title>
<g id="a_Node000011"><a xlink:href="Game_8cpp.html#a693de7d8b89fe291aafea86bc64a0a2e" target="_top" xlink:title=" ">
<polygon fill="white" stroke="#666666" points="885,-407 805,-407 805,-388 885,-388 885,-407"/>
<text text-anchor="middle" x="845" y="-395" font-family="Helvetica,sans-Serif" font-size="10.00">CM_GetActor</text>
</a>
</g>
</g>
<!-- Node10&#45;&gt;Node11 -->
<g id="edge10_Node000010_Node000011" class="edge">
<title>Node10&#45;&gt;Node11</title>
<g id="a_edge10_Node000010_Node000011"><a xlink:title=" ">
<path fill="none" stroke="#63b8ff" d="M713.4,-360.52C731.58,-366.33 752.72,-372.92 772,-378.5 779.95,-380.8 788.42,-383.14 796.65,-385.35"/>
<polygon fill="#63b8ff" stroke="#63b8ff" points="795.97,-388.79 806.54,-387.98 797.77,-382.03 795.97,-388.79"/>
</a>
</g>
</g>
<!-- Node12 -->
<g id="Node000012" class="node">
<title>Node12</title>
<g id="a_Node000012"><a xlink:href="code__80005FD0_8c.html#ad301b978cdd3c4cc190b10be050d51d8" target="_top" xlink:title=" ">
<polygon fill="white" stroke="#666666" points="918,-369.5 772,-369.5 772,-339.5 918,-339.5 918,-369.5"/>
<text text-anchor="start" x="780" y="-357.5" font-family="Helvetica,sans-Serif" font-size="10.00">delete_actor_in_unexpired</text>
<text text-anchor="middle" x="845" y="-346.5" font-family="Helvetica,sans-Serif" font-size="10.00">_actor_list</text>
</a>
</g>
</g>
<!-- Node10&#45;&gt;Node12 -->
<g id="edge11_Node000010_Node000012" class="edge">
<title>Node10&#45;&gt;Node12</title>
<g id="a_edge11_Node000010_Node000012"><a xlink:title=" ">
<path fill="none" stroke="#63b8ff" d="M732.72,-348.83C742.2,-349.31 752.05,-349.81 761.81,-350.31"/>
<polygon fill="#63b8ff" stroke="#63b8ff" points="761.75,-353.81 771.92,-350.82 762.11,-346.82 761.75,-353.81"/>
</a>
</g>
</g>
<!-- Node13 -->
<g id="Node000013" class="node">
<title>Node13</title>
<g id="a_Node000013"><a xlink:href="actors_8c.html#a694ec6ef7548b8618aeb35c038d3a9b9" target="_top" xlink:title=" ">
<polygon fill="white" stroke="#666666" points="886.5,-321 803.5,-321 803.5,-302 886.5,-302 886.5,-321"/>
<text text-anchor="middle" x="845" y="-309" font-family="Helvetica,sans-Serif" font-size="10.00">destroy_actor</text>
</a>
</g>
</g>
<!-- Node10&#45;&gt;Node13 -->
<g id="edge12_Node000010_Node000013" class="edge">
<title>Node10&#45;&gt;Node13</title>
<g id="a_edge12_Node000010_Node000013"><a xlink:title=" ">
<path fill="none" stroke="#63b8ff" d="M732.72,-332.94C752.78,-329.07 774.55,-324.88 793.47,-321.23"/>
<polygon fill="#63b8ff" stroke="#63b8ff" points="794.21,-324.66 803.37,-319.33 792.88,-317.78 794.21,-324.66"/>
</a>
</g>
</g>
<!-- Node14 -->
<g id="Node000014" class="node">
<title>Node14</title>
<g id="a_Node000014"><a xlink:href="actors_8c.html#a12dc3ccac4c7d8569eadac0af4fd6f9f" target="_top" xlink:title=" ">
<polygon fill="white" stroke="#666666" points="1112,-321 954,-321 954,-302 1112,-302 1112,-321"/>
<text text-anchor="middle" x="1033" y="-309" font-family="Helvetica,sans-Serif" font-size="10.00">play_sound_before_despawn</text>
</a>
</g>
</g>
<!-- Node13&#45;&gt;Node14 -->
<g id="edge13_Node000013_Node000014" class="edge">
<title>Node13&#45;&gt;Node14</title>
<g id="a_edge13_Node000013_Node000014"><a xlink:title=" ">
<path fill="none" stroke="#63b8ff" d="M886.82,-311.5C903.65,-311.5 923.86,-311.5 943.77,-311.5"/>
<polygon fill="#63b8ff" stroke="#63b8ff" points="943.82,-315 953.82,-311.5 943.82,-308 943.82,-315"/>
</a>
</g>
</g>
<!-- Node15 -->
<g id="Node000015" class="node">
<title>Node15</title>
<g id="a_Node000015"><a xlink:href="external_8c.html#ae72057869772019e4464c87d4e16c682" target="_top" xlink:title=" ">
<polygon fill="white" stroke="#666666" points="1250,-321 1158,-321 1158,-302 1250,-302 1250,-321"/>
<text text-anchor="middle" x="1204" y="-309" font-family="Helvetica,sans-Serif" font-size="10.00">func_800C99E0</text>
</a>
</g>
</g>
<!-- Node14&#45;&gt;Node15 -->
<g id="edge14_Node000014_Node000015" class="edge">
<title>Node14&#45;&gt;Node15</title>
<g id="a_edge14_Node000014_Node000015"><a xlink:title=" ">
<path fill="none" stroke="#63b8ff" d="M1112.07,-311.5C1124.12,-311.5 1136.35,-311.5 1147.76,-311.5"/>
<polygon fill="#63b8ff" stroke="#63b8ff" points="1147.99,-315 1157.99,-311.5 1147.99,-308 1147.99,-315"/>
</a>
</g>
</g>
<!-- Node16 -->
<g id="Node000016" class="node">
<title>Node16</title>
<g id="a_Node000016"><a xlink:href="external_8c.html#aeb87c527482a244173df36a1f3d4f446" target="_top" xlink:title=" ">
<polygon fill="white" stroke="#666666" points="1388,-340 1296,-340 1296,-321 1388,-321 1388,-340"/>
<text text-anchor="middle" x="1342" y="-328" font-family="Helvetica,sans-Serif" font-size="10.00">func_800C21E8</text>
</a>
</g>
</g>
<!-- Node15&#45;&gt;Node16 -->
<g id="edge15_Node000015_Node000016" class="edge">
<title>Node15&#45;&gt;Node16</title>
<g id="a_edge15_Node000015_Node000016"><a xlink:title=" ">
<path fill="none" stroke="#63b8ff" d="M1250.29,-317.83C1261.64,-319.41 1273.95,-321.13 1285.73,-322.78"/>
<polygon fill="#63b8ff" stroke="#63b8ff" points="1285.52,-326.28 1295.91,-324.2 1286.49,-319.35 1285.52,-326.28"/>
</a>
</g>
</g>
<!-- Node17 -->
<g id="Node000017" class="node">
<title>Node17</title>
<g id="a_Node000017"><a xlink:href="external_8c.html#a028d40421b90c38f68ebfd5acc626f2e" target="_top" xlink:title=" ">
<polygon fill="white" stroke="#666666" points="1388,-303 1296,-303 1296,-284 1388,-284 1388,-303"/>
<text text-anchor="middle" x="1342" y="-291" font-family="Helvetica,sans-Serif" font-size="10.00">func_800C5578</text>
</a>
</g>
</g>
<!-- Node15&#45;&gt;Node17 -->
<g id="edge16_Node000015_Node000017" class="edge">
<title>Node15&#45;&gt;Node17</title>
<g id="a_edge16_Node000015_Node000017"><a xlink:title=" ">
<path fill="none" stroke="#63b8ff" d="M1250.29,-305.51C1261.64,-304 1273.95,-302.37 1285.73,-300.81"/>
<polygon fill="#63b8ff" stroke="#63b8ff" points="1286.46,-304.25 1295.91,-299.47 1285.54,-297.31 1286.46,-304.25"/>
</a>
</g>
</g>
<!-- Node18 -->
<g id="Node000018" class="node">
<title>Node18</title>
<g id="a_Node000018"><a xlink:href="external_8c.html#ac0fb767de7e14a03f1bcfa53f0abd23b" target="_top" xlink:title=" ">
<polygon fill="white" stroke="#666666" points="1564,-340 1424,-340 1424,-321 1564,-321 1564,-340"/>
<text text-anchor="middle" x="1494" y="-328" font-family="Helvetica,sans-Serif" font-size="10.00">delete_sound_from_bank</text>
</a>
</g>
</g>
<!-- Node17&#45;&gt;Node18 -->
<g id="edge17_Node000017_Node000018" class="edge">
<title>Node17&#45;&gt;Node18</title>
<g id="a_edge17_Node000017_Node000018"><a xlink:title=" ">
<path fill="none" stroke="#63b8ff" d="M1381.63,-303.03C1400.8,-307.76 1424.16,-313.52 1444.52,-318.54"/>
<polygon fill="#63b8ff" stroke="#63b8ff" points="1443.69,-321.94 1454.24,-320.94 1445.37,-315.15 1443.69,-321.94"/>
</a>
</g>
</g>
<!-- Node20 -->
<g id="Node000020" class="node">
<title>Node20</title>
<g id="a_Node000020"><a xlink:href="external_8c.html#ab83bd36e63f0f1baddcb2482b5ad31b0" target="_top" xlink:title=" ">
<polygon fill="white" stroke="#666666" points="1540.5,-303 1447.5,-303 1447.5,-284 1540.5,-284 1540.5,-303"/>
<text text-anchor="middle" x="1494" y="-291" font-family="Helvetica,sans-Serif" font-size="10.00">func_800C41CC</text>
</a>
</g>
</g>
<!-- Node17&#45;&gt;Node20 -->
<g id="edge19_Node000017_Node000020" class="edge">
<title>Node17&#45;&gt;Node20</title>
<g id="a_edge19_Node000017_Node000020"><a xlink:title=" ">
<path fill="none" stroke="#63b8ff" d="M1388,-293.5C1403.37,-293.5 1420.74,-293.5 1436.86,-293.5"/>
<polygon fill="#63b8ff" stroke="#63b8ff" points="1437.25,-297 1447.25,-293.5 1437.25,-290 1437.25,-297"/>
</a>
</g>
</g>
<!-- Node21 -->
<g id="Node000021" class="node">
<title>Node21</title>
<g id="a_Node000021"><a xlink:href="port__eu_8c.html#aa89dfaecca46c6d071f08c1898d1f7c9" target="_top" xlink:title=" ">
<polygon fill="white" stroke="#666666" points="1540.5,-266 1447.5,-266 1447.5,-247 1540.5,-247 1540.5,-266"/>
<text text-anchor="middle" x="1494" y="-254" font-family="Helvetica,sans-Serif" font-size="10.00">func_800CBBE8</text>
</a>
</g>
</g>
<!-- Node17&#45;&gt;Node21 -->
<g id="edge20_Node000017_Node000021" class="edge">
<title>Node17&#45;&gt;Node21</title>
<g id="a_edge20_Node000017_Node000021"><a xlink:title=" ">
<path fill="none" stroke="#63b8ff" d="M1381.63,-283.97C1400.8,-279.24 1424.16,-273.48 1444.52,-268.46"/>
<polygon fill="#63b8ff" stroke="#63b8ff" points="1445.37,-271.85 1454.24,-266.06 1443.69,-265.06 1445.37,-271.85"/>
</a>
</g>
</g>
<!-- Node19 -->
<g id="Node000019" class="node">
<title>Node19</title>
<g id="a_Node000019"><a xlink:href="external_8c.html#a358ac55e8ab5262dcae8037334be06d7" target="_top" xlink:title=" ">
<polygon fill="white" stroke="#666666" points="1692.5,-340 1600.5,-340 1600.5,-321 1692.5,-321 1692.5,-340"/>
<text text-anchor="middle" x="1646.5" y="-328" font-family="Helvetica,sans-Serif" font-size="10.00">func_800C40F0</text>
</a>
</g>
</g>
<!-- Node18&#45;&gt;Node19 -->
<g id="edge18_Node000018_Node000019" class="edge">
<title>Node18&#45;&gt;Node19</title>
<g id="a_edge18_Node000018_Node000019"><a xlink:title=" ">
<path fill="none" stroke="#63b8ff" d="M1564.08,-330.5C1572.87,-330.5 1581.78,-330.5 1590.31,-330.5"/>
<polygon fill="#63b8ff" stroke="#63b8ff" points="1590.5,-334 1600.5,-330.5 1590.5,-327 1590.5,-334"/>
</a>
</g>
</g>
<!-- Node22 -->
<g id="Node000022" class="node">
<title>Node22</title>
<g id="a_Node000022"><a xlink:href="port__eu_8c.html#af361a20d2e08f30c53a237ca481ff734" target="_top" xlink:title=" ">
<polygon fill="white" stroke="#666666" points="1693,-266 1600,-266 1600,-247 1693,-247 1693,-266"/>
<text text-anchor="middle" x="1646.5" y="-254" font-family="Helvetica,sans-Serif" font-size="10.00">func_800CBB48</text>
</a>
</g>
</g>
<!-- Node21&#45;&gt;Node22 -->
<g id="edge21_Node000021_Node000022" class="edge">
<title>Node21&#45;&gt;Node22</title>
<g id="a_edge21_Node000021_Node000022"><a xlink:title=" ">
<path fill="none" stroke="#63b8ff" d="M1540.56,-256.5C1555.96,-256.5 1573.34,-256.5 1589.46,-256.5"/>
<polygon fill="#63b8ff" stroke="#63b8ff" points="1589.83,-260 1599.83,-256.5 1589.83,-253 1589.83,-260"/>
</a>
</g>
</g>
<!-- Node24 -->
<g id="Node000024" class="node">
<title>Node24</title>
<g id="a_Node000024"><a xlink:href="math__util_8c.html#a79fd07a0971ec96a3ff0801963a2fa7f" target="_top" xlink:title=" ">
<polygon fill="white" stroke="#666666" points="877,-284 813,-284 813,-265 877,-265 877,-284"/>
<text text-anchor="middle" x="845" y="-272" font-family="Helvetica,sans-Serif" font-size="10.00">vec3f_set</text>
</a>
</g>
</g>
<!-- Node23&#45;&gt;Node24 -->
<g id="edge23_Node000023_Node000024" class="edge">
<title>Node23&#45;&gt;Node24</title>
<g id="a_edge23_Node000023_Node000024"><a xlink:title=" ">
<path fill="none" stroke="#63b8ff" d="M714.34,-281.85C741.83,-280.29 776.27,-278.34 802.74,-276.84"/>
<polygon fill="#63b8ff" stroke="#63b8ff" points="803.04,-280.33 812.83,-276.27 802.65,-273.34 803.04,-280.33"/>
</a>
</g>
</g>
<!-- Node31 -->
<g id="Node000031" class="node">
<title>Node31</title>
<g id="a_Node000031"><a xlink:href="code__80005FD0_8c.html#aff1ba4b22fc22c38fcf28007ccaaa752" target="_top" xlink:title=" ">
<polygon fill="white" stroke="#666666" points="713,-141 620,-141 620,-122 713,-122 713,-141"/>
<text text-anchor="middle" x="666.5" y="-129" font-family="Helvetica,sans-Serif" font-size="10.00">func_8000D2B4</text>
</a>
</g>
</g>
<!-- Node30&#45;&gt;Node31 -->
<g id="edge30_Node000030_Node000031" class="edge">
<title>Node30&#45;&gt;Node31</title>
<g id="a_edge30_Node000030_Node000031"><a xlink:title=" ">
<path fill="none" stroke="#63b8ff" d="M520.91,-67.19C542.52,-81.13 581.66,-105.89 597,-112.5 602.45,-114.85 608.26,-116.98 614.11,-118.9"/>
<polygon fill="#63b8ff" stroke="#63b8ff" points="613.35,-122.33 623.94,-121.93 615.41,-115.64 613.35,-122.33"/>
</a>
</g>
</g>
<!-- Node38 -->
<g id="Node000038" class="node">
<title>Node38</title>
<g id="a_Node000038"><a xlink:href="code__80005FD0_8c.html#a79cd9c001e0a06c9cab23fe2cf070abf" target="_top" xlink:title=" ">
<polygon fill="white" stroke="#666666" points="736,-30 597,-30 597,-11 736,-11 736,-30"/>
<text text-anchor="middle" x="666.5" y="-18" font-family="Helvetica,sans-Serif" font-size="10.00">get_angle_between_path</text>
</a>
</g>
</g>
<!-- Node30&#45;&gt;Node38 -->
<g id="edge38_Node000030_Node000038" class="edge">
<title>Node30&#45;&gt;Node38</title>
<g id="a_edge38_Node000030_Node000038"><a xlink:title=" ">
<path fill="none" stroke="#63b8ff" d="M547.08,-47.97C567.65,-43.2 592.75,-37.38 614.54,-32.32"/>
<polygon fill="#63b8ff" stroke="#63b8ff" points="615.34,-35.73 624.29,-30.06 613.75,-28.91 615.34,-35.73"/>
</a>
</g>
</g>
<!-- Node42 -->
<g id="Node000042" class="node">
<title>Node42</title>
<g id="a_Node000042"><a xlink:href="code__80005FD0_8c.html#a83974499a323e99b007956bf9c0e25ff" target="_top" xlink:title=" ">
<polygon fill="white" stroke="#666666" points="736,-104 597,-104 597,-85 736,-85 736,-104"/>
<text text-anchor="middle" x="666.5" y="-92" font-family="Helvetica,sans-Serif" font-size="10.00">set_track_offset_position</text>
</a>
</g>
</g>
<!-- Node30&#45;&gt;Node42 -->
<g id="edge42_Node000030_Node000042" class="edge">
<title>Node30&#45;&gt;Node42</title>
<g id="a_edge42_Node000030_Node000042"><a xlink:title=" ">
<path fill="none" stroke="#63b8ff" d="M547.08,-67.03C567.65,-71.8 592.75,-77.62 614.54,-82.68"/>
<polygon fill="#63b8ff" stroke="#63b8ff" points="613.75,-86.09 624.29,-84.94 615.34,-79.27 613.75,-86.09"/>
</a>
</g>
</g>
<!-- Node43 -->
<g id="Node000043" class="node">
<title>Node43</title>
<g id="a_Node000043"><a xlink:href="math_8h.html#a37bde043e94a6f074c78f10518fb5d99" target="_top" xlink:title=" ">
<polygon fill="white" stroke="#666666" points="686,-67 647,-67 647,-48 686,-48 686,-67"/>
<text text-anchor="middle" x="666.5" y="-55" font-family="Helvetica,sans-Serif" font-size="10.00">sqrtf</text>
</a>
</g>
</g>
<!-- Node30&#45;&gt;Node43 -->
<g id="edge43_Node000030_Node000043" class="edge">
<title>Node30&#45;&gt;Node43</title>
<g id="a_edge43_Node000030_Node000043"><a xlink:title=" ">
<path fill="none" stroke="#63b8ff" d="M552.13,-57.5C579.42,-57.5 613.13,-57.5 636.67,-57.5"/>
<polygon fill="#63b8ff" stroke="#63b8ff" points="636.71,-61 646.71,-57.5 636.71,-54 636.71,-61"/>
</a>
</g>
</g>
<!-- Node32 -->
<g id="Node000032" class="node">
<title>Node32</title>
<g id="a_Node000032"><a xlink:href="code__80005FD0_8c.html#a52b991f7bfc8a37a05bbb3ede096fb6a" target="_top" xlink:title=" ">
<polygon fill="white" stroke="#666666" points="915,-144 775,-144 775,-125 915,-125 915,-144"/>
<text text-anchor="middle" x="845" y="-132" font-family="Helvetica,sans-Serif" font-size="10.00">adjust_path_at_start_line</text>
</a>
</g>
</g>
<!-- Node31&#45;&gt;Node32 -->
<g id="edge31_Node000031_Node000032" class="edge">
<title>Node31&#45;&gt;Node32</title>
<g id="a_edge31_Node000031_Node000032"><a xlink:title=" ">
<path fill="none" stroke="#63b8ff" d="M713.41,-132.28C729.04,-132.55 746.98,-132.85 764.47,-133.15"/>
<polygon fill="#63b8ff" stroke="#63b8ff" points="764.63,-136.65 774.69,-133.32 764.75,-129.65 764.63,-136.65"/>
</a>
</g>
</g>
<!-- Node33 -->
<g id="Node000033" class="node">
<title>Node33</title>
<g id="a_Node000033"><a xlink:href="code__80005FD0_8c.html#aae3d2d6e27d79a30dfe68c64e771b5b1" target="_top" xlink:title=" ">
<polygon fill="white" stroke="#666666" points="891.5,-107 798.5,-107 798.5,-88 891.5,-88 891.5,-107"/>
<text text-anchor="middle" x="845" y="-95" font-family="Helvetica,sans-Serif" font-size="10.00">func_8000D24C</text>
</a>
</g>
</g>
<!-- Node31&#45;&gt;Node33 -->
<g id="edge32_Node000031_Node000033" class="edge">
<title>Node31&#45;&gt;Node33</title>
<g id="a_edge32_Node000031_Node000033"><a xlink:title=" ">
<path fill="none" stroke="#63b8ff" d="M713.41,-122.66C736.29,-118.25 764.15,-112.88 788.25,-108.24"/>
<polygon fill="#63b8ff" stroke="#63b8ff" points="789.16,-111.63 798.32,-106.3 787.84,-104.75 789.16,-111.63"/>
</a>
</g>
</g>
<!-- Node37 -->
<g id="Node000037" class="node">
<title>Node37</title>
<g id="a_Node000037"><a xlink:href="code__80005FD0_8c.html#a041b53794d8d64878d2cf5e0dea65b80" target="_top" xlink:title=" ">
<polygon fill="white" stroke="#666666" points="900,-70 790,-70 790,-51 900,-51 900,-70"/>
<text text-anchor="middle" x="845" y="-58" font-family="Helvetica,sans-Serif" font-size="10.00">update_path_index</text>
</a>
</g>
</g>
<!-- Node31&#45;&gt;Node37 -->
<g id="edge37_Node000031_Node000037" class="edge">
<title>Node31&#45;&gt;Node37</title>
<g id="a_edge37_Node000031_Node000037"><a xlink:title=" ">
<path fill="none" stroke="#63b8ff" d="M713.33,-122.14C721.16,-119.61 729.01,-116.44 736,-112.5 755.17,-101.69 752.7,-89.07 772,-78.5 775.3,-76.69 778.79,-75.06 782.37,-73.59"/>
<polygon fill="#63b8ff" stroke="#63b8ff" points="783.84,-76.78 792.04,-70.07 781.44,-70.21 783.84,-76.78"/>
</a>
</g>
</g>
<!-- Node33&#45;&gt;Node6 -->
<g id="edge33_Node000033_Node000006" class="edge">
<title>Node33&#45;&gt;Node6</title>
<g id="a_edge33_Node000033_Node000006"><a xlink:title=" ">
<path fill="none" stroke="#63b8ff" d="M891.62,-106.68C900.53,-109.09 909.68,-112.01 918,-115.5 935.29,-122.75 937.04,-129.5 954,-137.5 965.34,-142.85 978.04,-147.7 989.85,-151.76"/>
<polygon fill="#63b8ff" stroke="#63b8ff" points="988.91,-155.14 999.5,-154.98 991.13,-148.5 988.91,-155.14"/>
</a>
</g>
</g>
<!-- Node34 -->
<g id="Node000034" class="node">
<title>Node34</title>
<g id="a_Node000034"><a xlink:href="code__80005FD0_8c.html#a64865cf2565ef9f4215c5fa73b04233f" target="_top" xlink:title=" ">
<polygon fill="white" stroke="#666666" points="1098.5,-91.5 967.5,-91.5 967.5,-61.5 1098.5,-61.5 1098.5,-91.5"/>
<text text-anchor="start" x="975.5" y="-79.5" font-family="Helvetica,sans-Serif" font-size="10.00">find_closest_path_point</text>
<text text-anchor="middle" x="1033" y="-68.5" font-family="Helvetica,sans-Serif" font-size="10.00">_track_section</text>
</a>
</g>
</g>
<!-- Node33&#45;&gt;Node34 -->
<g id="edge34_Node000033_Node000034" class="edge">
<title>Node33&#45;&gt;Node34</title>
<g id="a_edge34_Node000033_Node000034"><a xlink:title=" ">
<path fill="none" stroke="#63b8ff" d="M891.5,-92.36C911.27,-90.13 934.96,-87.46 957.2,-84.94"/>
<polygon fill="#63b8ff" stroke="#63b8ff" points="957.76,-88.4 967.3,-83.8 956.97,-81.45 957.76,-88.4"/>
</a>
</g>
</g>
<!-- Node36 -->
<g id="Node000036" class="node">
<title>Node36</title>
<g id="a_Node000036"><a xlink:href="collision_8c.html#a053809031f467d0a6747788211e0ec69" target="_top" xlink:title=" ">
<polygon fill="white" stroke="#666666" points="1091.5,-129 974.5,-129 974.5,-110 1091.5,-110 1091.5,-129"/>
<text text-anchor="middle" x="1033" y="-117" font-family="Helvetica,sans-Serif" font-size="10.00">get_track_section_id</text>
</a>
</g>
</g>
<!-- Node33&#45;&gt;Node36 -->
<g id="edge36_Node000033_Node000036" class="edge">
<title>Node33&#45;&gt;Node36</title>
<g id="a_edge36_Node000033_Node000036"><a xlink:title=" ">
<path fill="none" stroke="#63b8ff" d="M891.5,-102.88C913.33,-105.46 939.94,-108.61 964.1,-111.47"/>
<polygon fill="#63b8ff" stroke="#63b8ff" points="963.95,-114.97 974.29,-112.67 964.77,-108.02 963.95,-114.97"/>
</a>
</g>
</g>
<!-- Node35 -->
<g id="Node000035" class="node">
<title>Node35</title>
<g id="a_Node000035"><a xlink:href="Game_8cpp.html#aab0dcf46f6e6e4516bf79ea3f519c765" target="_top" xlink:title=" ">
<polygon fill="white" stroke="#666666" points="1260,-86 1148,-86 1148,-67 1260,-67 1260,-86"/>
<text text-anchor="middle" x="1204" y="-74" font-family="Helvetica,sans-Serif" font-size="10.00">IsPodiumCeremony</text>
</a>
</g>
</g>
<!-- Node34&#45;&gt;Node35 -->
<g id="edge35_Node000034_Node000035" class="edge">
<title>Node34&#45;&gt;Node35</title>
<g id="a_edge35_Node000034_Node000035"><a xlink:title=" ">
<path fill="none" stroke="#63b8ff" d="M1098.86,-76.5C1111.64,-76.5 1125.05,-76.5 1137.84,-76.5"/>
<polygon fill="#63b8ff" stroke="#63b8ff" points="1137.94,-80 1147.94,-76.5 1137.94,-73 1137.94,-80"/>
</a>
</g>
</g>
<!-- Node39 -->
<g id="Node000039" class="node">
<title>Node39</title>
<g id="a_Node000039"><a xlink:href="math__util_8c.html#a84cf9d4ec33146a64c230ed4cec56632" target="_top" xlink:title=" ">
<polygon fill="white" stroke="#666666" points="912.5,-32.5 777.5,-32.5 777.5,-2.5 912.5,-2.5 912.5,-32.5"/>
<text text-anchor="start" x="785.5" y="-20.5" font-family="Helvetica,sans-Serif" font-size="10.00">get_angle_between_two</text>
<text text-anchor="middle" x="845" y="-9.5" font-family="Helvetica,sans-Serif" font-size="10.00">_vectors</text>
</a>
</g>
</g>
<!-- Node38&#45;&gt;Node39 -->
<g id="edge39_Node000038_Node000039" class="edge">
<title>Node38&#45;&gt;Node39</title>
<g id="a_edge39_Node000038_Node000039"><a xlink:title=" ">
<path fill="none" stroke="#63b8ff" d="M736.24,-19.33C746.41,-19.16 756.93,-18.98 767.25,-18.8"/>
<polygon fill="#63b8ff" stroke="#63b8ff" points="767.53,-22.3 777.47,-18.63 767.41,-15.3 767.53,-22.3"/>
</a>
</g>
</g>
<!-- Node40 -->
<g id="Node000040" class="node">
<title>Node40</title>
<g id="a_Node000040"><a xlink:href="math__util_8c.html#aaa39a297477f56051975259f4bddd829" target="_top" xlink:title=" ">
<polygon fill="white" stroke="#666666" points="1058,-27 1008,-27 1008,-8 1058,-8 1058,-27"/>
<text text-anchor="middle" x="1033" y="-15" font-family="Helvetica,sans-Serif" font-size="10.00">atan2s</text>
</a>
</g>
</g>
<!-- Node39&#45;&gt;Node40 -->
<g id="edge40_Node000039_Node000040" class="edge">
<title>Node39&#45;&gt;Node40</title>
<g id="a_edge40_Node000039_Node000040"><a xlink:title=" ">
<path fill="none" stroke="#63b8ff" d="M912.62,-17.5C941.37,-17.5 973.78,-17.5 997.57,-17.5"/>
<polygon fill="#63b8ff" stroke="#63b8ff" points="997.85,-21 1007.85,-17.5 997.85,-14 997.85,-21"/>
</a>
</g>
</g>
<!-- Node41 -->
<g id="Node000041" class="node">
<title>Node41</title>
<g id="a_Node000041"><a xlink:href="math__util_8c.html#a0273b0ea0783a06996c28669a7438ed9" target="_top" xlink:title=" ">
<polygon fill="white" stroke="#666666" points="1245,-27 1163,-27 1163,-8 1245,-8 1245,-27"/>
<text text-anchor="middle" x="1204" y="-15" font-family="Helvetica,sans-Serif" font-size="10.00">atan2_lookup</text>
</a>
</g>
</g>
<!-- Node40&#45;&gt;Node41 -->
<g id="edge41_Node000040_Node000041" class="edge">
<title>Node40&#45;&gt;Node41</title>
<g id="a_edge41_Node000040_Node000041"><a xlink:title=" ">
<path fill="none" stroke="#63b8ff" d="M1058.21,-17.5C1082.73,-17.5 1121.38,-17.5 1152.58,-17.5"/>
<polygon fill="#63b8ff" stroke="#63b8ff" points="1152.84,-21 1162.84,-17.5 1152.84,-14 1152.84,-21"/>
</a>
</g>
</g>
<!-- Node44&#45;&gt;Node31 -->
<g id="edge45_Node000044_Node000031" class="edge">
<title>Node44&#45;&gt;Node31</title>
<g id="a_edge45_Node000044_Node000031"><a xlink:title=" ">
<path fill="none" stroke="#63b8ff" d="M551.28,-117.89C569.47,-120.06 590.62,-122.58 609.75,-124.86"/>
<polygon fill="#63b8ff" stroke="#63b8ff" points="609.49,-128.35 619.83,-126.06 610.31,-121.4 609.49,-128.35"/>
</a>
</g>
</g>
<!-- Node44&#45;&gt;Node38 -->
<g id="edge46_Node000044_Node000038" class="edge">
<title>Node44&#45;&gt;Node38</title>
<g id="a_edge46_Node000044_Node000038"><a xlink:title=" ">
<path fill="none" stroke="#63b8ff" d="M522.03,-102.95C533.34,-95.92 548.63,-85.83 561,-75.5 578.61,-60.8 577.18,-50.06 597,-38.5 600.01,-36.74 603.2,-35.15 606.48,-33.72"/>
<polygon fill="#63b8ff" stroke="#63b8ff" points="607.87,-36.94 615.93,-30.06 605.34,-30.41 607.87,-36.94"/>
</a>
</g>
</g>
<!-- Node44&#45;&gt;Node42 -->
<g id="edge47_Node000044_Node000042" class="edge">
<title>Node44&#45;&gt;Node42</title>
<g id="a_edge47_Node000044_Node000042"><a xlink:title=" ">
<path fill="none" stroke="#63b8ff" d="M551.28,-107.39C562.36,-106.14 574.54,-104.77 586.69,-103.39"/>
<polygon fill="#63b8ff" stroke="#63b8ff" points="587.32,-106.84 596.87,-102.25 586.54,-99.89 587.32,-106.84"/>
</a>
</g>
</g>
<!-- Node44&#45;&gt;Node43 -->
<g id="edge48_Node000044_Node000043" class="edge">
<title>Node44&#45;&gt;Node43</title>
<g id="a_edge48_Node000044_Node000043"><a xlink:title=" ">
<path fill="none" stroke="#63b8ff" d="M527.4,-102.88C545.66,-94.9 572.73,-83.59 597,-75.5 610.03,-71.16 624.74,-67.18 637.17,-64.07"/>
<polygon fill="#63b8ff" stroke="#63b8ff" points="638.11,-67.44 646.99,-61.68 636.45,-60.64 638.11,-67.44"/>
</a>
</g>
</g>
<!-- Node47 -->
<g id="Node000047" class="node">
<title>Node47</title>
<g id="a_Node000047"><a xlink:href="math__util_8c.html#a062850863585005ad1d0a75d9ff70693" target="_top" xlink:title=" ">
<polygon fill="white" stroke="#666666" points="543.5,-19 466.5,-19 466.5,0 543.5,0 543.5,-19"/>
<text text-anchor="middle" x="505" y="-7" font-family="Helvetica,sans-Serif" font-size="10.00">random_u16</text>
</a>
</g>
</g>
<!-- Node46&#45;&gt;Node47 -->
<g id="edge51_Node000046_Node000047" class="edge">
<title>Node46&#45;&gt;Node47</title>
<g id="a_edge51_Node000046_Node000047"><a xlink:title=" ">
<path fill="none" stroke="#63b8ff" d="M364.81,-9.5C391.07,-9.5 427.19,-9.5 456.05,-9.5"/>
<polygon fill="#63b8ff" stroke="#63b8ff" points="456.32,-13 466.32,-9.5 456.32,-6 456.32,-13"/>
</a>
</g>
</g>
<!-- Node48&#45;&gt;Node30 -->
<g id="edge53_Node000048_Node000030" class="edge">
<title>Node48&#45;&gt;Node30</title>
<g id="a_edge53_Node000048_Node000030"><a xlink:title=" ">
<path fill="none" stroke="#63b8ff" d="M380.85,-112.89C391.61,-110.31 402.79,-107.18 413,-103.5 436.19,-95.14 461.07,-82.27 478.94,-72.27"/>
<polygon fill="#63b8ff" stroke="#63b8ff" points="481.14,-75.04 488.1,-67.05 477.67,-68.96 481.14,-75.04"/>
</a>
</g>
</g>
<!-- Node48&#45;&gt;Node44 -->
<g id="edge54_Node000048_Node000044" class="edge">
<title>Node48&#45;&gt;Node44</title>
<g id="a_edge54_Node000048_Node000044"><a xlink:title=" ">
<path fill="none" stroke="#63b8ff" d="M395.47,-118.72C412.97,-117.72 431.7,-116.64 448.57,-115.68"/>
<polygon fill="#63b8ff" stroke="#63b8ff" points="449.04,-119.16 458.82,-115.09 448.64,-112.17 449.04,-119.16"/>
</a>
</g>
</g>
</g>
</svg>
