<?xml version="1.0" encoding="UTF-8" standalone="no"?>
<!DOCTYPE svg PUBLIC "-//W3C//DTD SVG 1.1//EN"
 "http://www.w3.org/Graphics/SVG/1.1/DTD/svg11.dtd">
<!-- Generated by graphviz version 2.43.0 (0)
 -->
<!-- Title: World::World Pages: 1 -->
<svg width="348pt" height="64pt"
 viewBox="0.00 0.00 348.00 64.00" xmlns="http://www.w3.org/2000/svg" xmlns:xlink="http://www.w3.org/1999/xlink">
<g id="graph0" class="graph" transform="scale(1 1) rotate(0) translate(4 60)">
<title>World::World</title>
<!-- Node1 -->
<g id="Node000001" class="node">
<title>Node1</title>
<g id="a_Node000001"><a xlink:title=" ">
<polygon fill="#999999" stroke="#666666" points="340,-37 262,-37 262,-18 340,-18 340,-37"/>
<text text-anchor="middle" x="301" y="-25" font-family="Helvetica,sans-Serif" font-size="10.00">World::World</text>
</a>
</g>
</g>
<!-- Node2 -->
<g id="Node000002" class="node">
<title>Node2</title>
<g id="a_Node000002"><a xlink:href="classWorld.html#a29a67039d24a02b2a9b5c79c3f7bb4a8" target="_top" xlink:title=" ">
<polygon fill="white" stroke="#666666" points="226,-56 122,-56 122,-37 226,-37 226,-56"/>
<text text-anchor="middle" x="174" y="-44" font-family="Helvetica,sans-Serif" font-size="10.00">World::ClearWorld</text>
</a>
</g>
</g>
<!-- Node1&#45;&gt;Node2 -->
<g id="edge1_Node000001_Node000002" class="edge">
<title>Node1&#45;&gt;Node2</title>
<g id="a_edge1_Node000001_Node000002"><a xlink:title=" ">
<path fill="none" stroke="#63b8ff" d="M251.84,-34.82C243.47,-36.09 234.75,-37.42 226.3,-38.7"/>
<polygon fill="#63b8ff" stroke="#63b8ff" points="252.46,-38.27 261.82,-33.3 251.4,-31.35 252.46,-38.27"/>
</a>
</g>
</g>
<!-- Node4 -->
<g id="Node000004" class="node">
<title>Node4</title>
<g id="a_Node000004"><a xlink:href="classWorld.html#a425b754be9118b76205c27066b23c8d7" target="_top" xlink:title=" ">
<polygon fill="white" stroke="#666666" points="221.5,-19 126.5,-19 126.5,0 221.5,0 221.5,-19"/>
<text text-anchor="middle" x="174" y="-7" font-family="Helvetica,sans-Serif" font-size="10.00">World::GetWorld</text>
</a>
</g>
</g>
<!-- Node1&#45;&gt;Node4 -->
<g id="edge3_Node000001_Node000004" class="edge">
<title>Node1&#45;&gt;Node4</title>
<g id="a_edge3_Node000001_Node000004"><a xlink:title=" ">
<path fill="none" stroke="#63b8ff" d="M251.77,-20.56C241.92,-19.14 231.57,-17.65 221.77,-16.23"/>
<polygon fill="#63b8ff" stroke="#63b8ff" points="251.42,-24.04 261.82,-22 252.42,-17.11 251.42,-24.04"/>
</a>
</g>
</g>
<!-- Node3 -->
<g id="Node000003" class="node">
<title>Node3</title>
<g id="a_Node000003"><a xlink:href="classWorld.html#a8c73fba541a5817fff65147ba47cd827" target="_top" xlink:title=" ">
<polygon fill="white" stroke="#666666" points="86,-56 0,-56 0,-37 86,-37 86,-56"/>
<text text-anchor="middle" x="43" y="-44" font-family="Helvetica,sans-Serif" font-size="10.00">World::~World</text>
</a>
</g>
</g>
<!-- Node2&#45;&gt;Node3 -->
<g id="edge2_Node000002_Node000003" class="edge">
<title>Node2&#45;&gt;Node3</title>
<g id="a_edge2_Node000002_Node000003"><a xlink:title=" ">
<path fill="none" stroke="#63b8ff" d="M111.58,-46.5C102.94,-46.5 94.23,-46.5 86.07,-46.5"/>
<polygon fill="#63b8ff" stroke="#63b8ff" points="111.65,-50 121.65,-46.5 111.65,-43 111.65,-50"/>
</a>
</g>
</g>
</g>
</svg>
