<?xml version="1.0" encoding="UTF-8" standalone="no"?>
<!DOCTYPE svg PUBLIC "-//W3C//DTD SVG 1.1//EN"
 "http://www.w3.org/Graphics/SVG/1.1/DTD/svg11.dtd">
<!-- Generated by graphviz version 2.43.0 (0)
 -->
<!-- Title: OMole Pages: 1 -->
<svg width="1142pt" height="1063pt"
 viewBox="0.00 0.00 1142.00 1062.50" xmlns="http://www.w3.org/2000/svg" xmlns:xlink="http://www.w3.org/1999/xlink">
<g id="graph0" class="graph" transform="scale(1 1) rotate(0) translate(4 1058.5)">
<title>OMole</title>
<!-- Node1 -->
<g id="Node000001" class="node">
<title>Node1</title>
<g id="a_Node000001"><a xlink:title=" ">
<polygon fill="#999999" stroke="#666666" points="1134,-756 1086,-756 1086,-737 1134,-737 1134,-756"/>
<text text-anchor="middle" x="1110" y="-744" font-family="Helvetica,sans-Serif" font-size="10.00">OMole</text>
</a>
</g>
</g>
<!-- Node2 -->
<g id="Node000002" class="node">
<title>Node2</title>
<g id="a_Node000002"><a xlink:href="classOObject.html" target="_top" xlink:title=" ">
<polygon fill="white" stroke="#666666" points="829.5,-737 773.5,-737 773.5,-718 829.5,-718 829.5,-737"/>
<text text-anchor="middle" x="801.5" y="-725" font-family="Helvetica,sans-Serif" font-size="10.00">OObject</text>
</a>
</g>
</g>
<!-- Node2&#45;&gt;Node1 -->
<g id="edge1_Node000001_Node000002" class="edge">
<title>Node2&#45;&gt;Node1</title>
<g id="a_edge1_Node000001_Node000002"><a xlink:title=" ">
<path fill="none" stroke="#63b8ff" d="M839.76,-729.81C903.79,-733.78 1032.89,-741.78 1085.69,-745.06"/>
<polygon fill="#63b8ff" stroke="#63b8ff" points="839.9,-726.31 829.7,-729.19 839.46,-733.3 839.9,-726.31"/>
</a>
</g>
</g>
<!-- Node23 -->
<g id="Node000023" class="node">
<title>Node23</title>
<g id="a_Node000023"><a xlink:href="classOMoleGroup.html" target="_top" xlink:title=" ">
<polygon fill="white" stroke="#666666" points="1013,-775 936,-775 936,-756 1013,-756 1013,-775"/>
<text text-anchor="middle" x="974.5" y="-763" font-family="Helvetica,sans-Serif" font-size="10.00">OMoleGroup</text>
</a>
</g>
</g>
<!-- Node2&#45;&gt;Node23 -->
<g id="edge30_Node000023_Node000002" class="edge">
<title>Node2&#45;&gt;Node23</title>
<g id="a_edge30_Node000023_Node000002"><a xlink:title=" ">
<path fill="none" stroke="#63b8ff" d="M839.55,-735.73C867.99,-742.05 907.1,-750.75 935.72,-757.1"/>
<polygon fill="#63b8ff" stroke="#63b8ff" points="840.12,-732.27 829.6,-733.52 838.6,-739.11 840.12,-732.27"/>
</a>
</g>
</g>
<!-- Node3 -->
<g id="Node000003" class="node">
<title>Node3</title>
<g id="a_Node000003"><a xlink:title=" ">
<polygon fill="white" stroke="#666666" points="590,-1015 540,-1015 540,-996 590,-996 590,-1015"/>
<text text-anchor="middle" x="565" y="-1003" font-family="Helvetica,sans-Serif" font-size="10.00">uint8_t</text>
</a>
</g>
</g>
<!-- Node3&#45;&gt;Node2 -->
<g id="edge2_Node000002_Node000003" class="edge">
<title>Node3&#45;&gt;Node2</title>
<g id="a_edge2_Node000002_Node000003"><a xlink:title=" ">
<path fill="none" stroke="#9a32cd" stroke-dasharray="5,2" d="M600.36,-1011.05C636.7,-1014.76 692.97,-1013.95 724,-980.5 757.21,-944.7 715.93,-802.79 742,-761.5 749.21,-750.08 761.75,-742.06 773.37,-736.69"/>
<polygon fill="#9a32cd" stroke="#9a32cd" points="600.57,-1007.55 590.23,-1009.85 599.74,-1014.5 600.57,-1007.55"/>
</a>
</g>
<text text-anchor="middle" x="680.5" y="-1014.5" font-family="Helvetica,sans-Serif" font-size="10.00" fill="grey"> uuid</text>
</g>
<!-- Node4 -->
<g id="Node000004" class="node">
<title>Node4</title>
<g id="a_Node000004"><a xlink:href="structObject.html" target="_top" xlink:title=" ">
<polygon fill="white" stroke="#666666" points="589,-607 541,-607 541,-588 589,-588 589,-607"/>
<text text-anchor="middle" x="565" y="-595" font-family="Helvetica,sans-Serif" font-size="10.00">Object</text>
</a>
</g>
</g>
<!-- Node4&#45;&gt;Node2 -->
<g id="edge3_Node000002_Node000004" class="edge">
<title>Node4&#45;&gt;Node2</title>
<g id="a_edge3_Node000002_Node000004"><a xlink:title=" ">
<path fill="none" stroke="#9a32cd" stroke-dasharray="5,2" d="M592.16,-612C640.49,-638.8 742.55,-695.37 783.23,-717.93"/>
<polygon fill="#9a32cd" stroke="#9a32cd" points="593.69,-608.85 583.24,-607.06 590.29,-614.97 593.69,-608.85"/>
</a>
</g>
<text text-anchor="middle" x="680.5" y="-685.5" font-family="Helvetica,sans-Serif" font-size="10.00" fill="grey"> o</text>
</g>
<!-- Node5 -->
<g id="Node000005" class="node">
<title>Node5</title>
<g id="a_Node000005"><a xlink:title=" ">
<polygon fill="white" stroke="#666666" points="371,-510 339,-510 339,-491 371,-491 371,-510"/>
<text text-anchor="middle" x="355" y="-498" font-family="Helvetica,sans-Serif" font-size="10.00">f32</text>
</a>
</g>
</g>
<!-- Node5&#45;&gt;Node4 -->
<g id="edge4_Node000004_Node000005" class="edge">
<title>Node5&#45;&gt;Node4</title>
<g id="a_edge4_Node000004_Node000005"><a xlink:title=" ">
<path fill="none" stroke="#9a32cd" stroke-dasharray="5,2" d="M380.88,-490.74C410.92,-480.75 461.35,-469.97 493,-495.5 522.38,-519.19 486.11,-550.12 511,-578.5 518.54,-587.1 530.26,-591.81 540.76,-594.38"/>
<polygon fill="#9a32cd" stroke="#9a32cd" points="379.42,-487.54 371.17,-494.18 381.76,-494.14 379.42,-487.54"/>
</a>
</g>
<text text-anchor="middle" x="450.5" y="-575.5" font-family="Helvetica,sans-Serif" font-size="10.00" fill="grey"> offset</text>
<text text-anchor="middle" x="450.5" y="-564.5" font-family="Helvetica,sans-Serif" font-size="10.00" fill="grey">origin_pos</text>
<text text-anchor="middle" x="450.5" y="-553.5" font-family="Helvetica,sans-Serif" font-size="10.00" fill="grey">pos</text>
<text text-anchor="middle" x="450.5" y="-542.5" font-family="Helvetica,sans-Serif" font-size="10.00" fill="grey">sizeScaling</text>
<text text-anchor="middle" x="450.5" y="-531.5" font-family="Helvetica,sans-Serif" font-size="10.00" fill="grey">surfaceHeight</text>
<text text-anchor="middle" x="450.5" y="-520.5" font-family="Helvetica,sans-Serif" font-size="10.00" fill="grey">unk_01C</text>
<text text-anchor="middle" x="450.5" y="-509.5" font-family="Helvetica,sans-Serif" font-size="10.00" fill="grey">unk_034</text>
<text text-anchor="middle" x="450.5" y="-498.5" font-family="Helvetica,sans-Serif" font-size="10.00" fill="grey">velocity</text>
</g>
<!-- Node6 -->
<g id="Node000006" class="node">
<title>Node6</title>
<g id="a_Node000006"><a xlink:title=" ">
<polygon fill="white" stroke="#666666" points="372,-980 338,-980 338,-961 372,-961 372,-980"/>
<text text-anchor="middle" x="355" y="-968" font-family="Helvetica,sans-Serif" font-size="10.00">s32</text>
</a>
</g>
</g>
<!-- Node6&#45;&gt;Node1 -->
<g id="edge27_Node000001_Node000006" class="edge">
<title>Node6&#45;&gt;Node1</title>
<g id="a_edge27_Node000001_Node000006"><a xlink:title=" ">
<path fill="none" stroke="#9a32cd" stroke-dasharray="5,2" d="M380.3,-985.09C418.16,-1006.39 494.14,-1043.5 564,-1043.5 564,-1043.5 564,-1043.5 975.5,-1043.5 1104.68,-1043.5 1109.61,-806.88 1109.18,-756.05"/>
<polygon fill="#9a32cd" stroke="#9a32cd" points="381.94,-981.99 371.52,-980.04 378.45,-988.06 381.94,-981.99"/>
</a>
</g>
<text text-anchor="middle" x="801.5" y="-1046.5" font-family="Helvetica,sans-Serif" font-size="10.00" fill="grey"> _moleIndex</text>
</g>
<!-- Node6&#45;&gt;Node2 -->
<g id="edge20_Node000002_Node000006" class="edge">
<title>Node6&#45;&gt;Node2</title>
<g id="a_edge20_Node000002_Node000006"><a xlink:title=" ">
<path fill="none" stroke="#9a32cd" stroke-dasharray="5,2" d="M382.6,-971.57C458.99,-974.03 676.54,-976.6 724,-928.5 750.22,-901.93 721.67,-792.81 742,-761.5 749.29,-750.27 761.69,-742.3 773.2,-736.91"/>
<polygon fill="#9a32cd" stroke="#9a32cd" points="382.51,-968.06 372.39,-971.21 382.27,-975.06 382.51,-968.06"/>
</a>
</g>
<text text-anchor="middle" x="565" y="-974.5" font-family="Helvetica,sans-Serif" font-size="10.00" fill="grey"> _objectIndex</text>
</g>
<!-- Node6&#45;&gt;Node4 -->
<g id="edge5_Node000004_Node000006" class="edge">
<title>Node6&#45;&gt;Node4</title>
<g id="a_edge5_Node000004_Node000006"><a xlink:title=" ">
<path fill="none" stroke="#9a32cd" stroke-dasharray="5,2" d="M364.64,-951.75C373.5,-934.15 388.71,-907.98 408,-890.5 439.53,-861.94 466.07,-879.43 493,-846.5 555.03,-770.64 562.9,-643.41 563.87,-607.32"/>
<polygon fill="#9a32cd" stroke="#9a32cd" points="361.37,-950.46 360.17,-960.99 367.68,-953.51 361.37,-950.46"/>
</a>
</g>
<text text-anchor="middle" x="450.5" y="-948.5" font-family="Helvetica,sans-Serif" font-size="10.00" fill="grey"> status</text>
<text text-anchor="middle" x="450.5" y="-937.5" font-family="Helvetica,sans-Serif" font-size="10.00" fill="grey">timer</text>
<text text-anchor="middle" x="450.5" y="-926.5" font-family="Helvetica,sans-Serif" font-size="10.00" fill="grey">unk_048</text>
<text text-anchor="middle" x="450.5" y="-915.5" font-family="Helvetica,sans-Serif" font-size="10.00" fill="grey">unk_04C</text>
<text text-anchor="middle" x="450.5" y="-904.5" font-family="Helvetica,sans-Serif" font-size="10.00" fill="grey">unk_058</text>
<text text-anchor="middle" x="450.5" y="-893.5" font-family="Helvetica,sans-Serif" font-size="10.00" fill="grey">unk_05C</text>
</g>
<!-- Node7 -->
<g id="Node000007" class="node">
<title>Node7</title>
<g id="a_Node000007"><a xlink:title=" ">
<polygon fill="white" stroke="#666666" points="374,-844 336,-844 336,-825 374,-825 374,-844"/>
<text text-anchor="middle" x="355" y="-832" font-family="Helvetica,sans-Serif" font-size="10.00">char</text>
</a>
</g>
</g>
<!-- Node7&#45;&gt;Node2 -->
<g id="edge18_Node000002_Node000007" class="edge">
<title>Node7&#45;&gt;Node2</title>
<g id="a_edge18_Node000002_Node000007"><a xlink:title=" ">
<path fill="none" stroke="#9a32cd" stroke-dasharray="5,2" d="M384.19,-840C412.05,-844.54 455.79,-849.23 493,-842.5 607.7,-821.75 735.37,-760.77 782.1,-737.07"/>
<polygon fill="#9a32cd" stroke="#9a32cd" points="384.79,-836.55 374.34,-838.3 383.59,-843.45 384.79,-836.55"/>
</a>
</g>
<text text-anchor="middle" x="565" y="-864.5" font-family="Helvetica,sans-Serif" font-size="10.00" fill="grey"> Model</text>
<text text-anchor="middle" x="565" y="-853.5" font-family="Helvetica,sans-Serif" font-size="10.00" fill="grey">Name</text>
<text text-anchor="middle" x="565" y="-842.5" font-family="Helvetica,sans-Serif" font-size="10.00" fill="grey">ResourceName</text>
</g>
<!-- Node7&#45;&gt;Node4 -->
<g id="edge6_Node000004_Node000007" class="edge">
<title>Node7&#45;&gt;Node4</title>
<g id="a_edge6_Node000004_Node000007"><a xlink:title=" ">
<path fill="none" stroke="#9a32cd" stroke-dasharray="5,2" d="M383.1,-820.38C391,-816.56 399.74,-812.62 408,-809.5 444.72,-795.61 464.08,-812.04 493,-785.5 547.76,-735.26 560.55,-638.47 563.3,-607.38"/>
<polygon fill="#9a32cd" stroke="#9a32cd" points="381.35,-817.34 373.95,-824.92 384.47,-823.61 381.35,-817.34"/>
</a>
</g>
<text text-anchor="middle" x="450.5" y="-834.5" font-family="Helvetica,sans-Serif" font-size="10.00" fill="grey"> activeTLUT</text>
<text text-anchor="middle" x="450.5" y="-823.5" font-family="Helvetica,sans-Serif" font-size="10.00" fill="grey">activeTexture</text>
<text text-anchor="middle" x="450.5" y="-812.5" font-family="Helvetica,sans-Serif" font-size="10.00" fill="grey">textureList</text>
</g>
<!-- Node8 -->
<g id="Node000008" class="node">
<title>Node8</title>
<g id="a_Node000008"><a xlink:title=" ">
<polygon fill="white" stroke="#666666" points="369.5,-192 340.5,-192 340.5,-173 369.5,-173 369.5,-192"/>
<text text-anchor="middle" x="355" y="-180" font-family="Helvetica,sans-Serif" font-size="10.00">u8</text>
</a>
</g>
</g>
<!-- Node8&#45;&gt;Node4 -->
<g id="edge7_Node000004_Node000008" class="edge">
<title>Node8&#45;&gt;Node4</title>
<g id="a_edge7_Node000004_Node000008"><a xlink:title=" ">
<path fill="none" stroke="#9a32cd" stroke-dasharray="5,2" d="M379.73,-173.77C410.28,-164.23 463,-153.84 493,-182.5 524.84,-212.93 484.84,-543.07 511,-578.5 517.97,-587.94 530.05,-592.7 540.92,-595.1"/>
<polygon fill="#9a32cd" stroke="#9a32cd" points="378.3,-170.56 369.92,-177.04 380.51,-177.2 378.3,-170.56"/>
</a>
</g>
<text text-anchor="middle" x="450.5" y="-295.5" font-family="Helvetica,sans-Serif" font-size="10.00" fill="grey"> textureHeight</text>
<text text-anchor="middle" x="450.5" y="-284.5" font-family="Helvetica,sans-Serif" font-size="10.00" fill="grey">textureWidth</text>
<text text-anchor="middle" x="450.5" y="-273.5" font-family="Helvetica,sans-Serif" font-size="10.00" fill="grey">tlutList</text>
<text text-anchor="middle" x="450.5" y="-262.5" font-family="Helvetica,sans-Serif" font-size="10.00" fill="grey">unk_0D5</text>
<text text-anchor="middle" x="450.5" y="-251.5" font-family="Helvetica,sans-Serif" font-size="10.00" fill="grey">unk_0D6</text>
<text text-anchor="middle" x="450.5" y="-240.5" font-family="Helvetica,sans-Serif" font-size="10.00" fill="grey">unk_0D7</text>
<text text-anchor="middle" x="450.5" y="-229.5" font-family="Helvetica,sans-Serif" font-size="10.00" fill="grey">unk_0D8</text>
<text text-anchor="middle" x="450.5" y="-218.5" font-family="Helvetica,sans-Serif" font-size="10.00" fill="grey">unk_0DB</text>
<text text-anchor="middle" x="450.5" y="-207.5" font-family="Helvetica,sans-Serif" font-size="10.00" fill="grey">unk_0DC</text>
<text text-anchor="middle" x="450.5" y="-196.5" font-family="Helvetica,sans-Serif" font-size="10.00" fill="grey">unk_0DD</text>
<text text-anchor="middle" x="450.5" y="-185.5" font-family="Helvetica,sans-Serif" font-size="10.00" fill="grey">...</text>
</g>
<!-- Node9 -->
<g id="Node000009" class="node">
<title>Node9</title>
<g id="a_Node000009"><a xlink:title=" ">
<polygon fill="white" stroke="#666666" points="372,-155 338,-155 338,-136 372,-136 372,-155"/>
<text text-anchor="middle" x="355" y="-143" font-family="Helvetica,sans-Serif" font-size="10.00">Gfx</text>
</a>
</g>
</g>
<!-- Node9&#45;&gt;Node4 -->
<g id="edge8_Node000004_Node000009" class="edge">
<title>Node9&#45;&gt;Node4</title>
<g id="a_edge8_Node000004_Node000009"><a xlink:title=" ">
<path fill="none" stroke="#9a32cd" stroke-dasharray="5,2" d="M381.87,-137.03C412.82,-128.7 464.1,-120.96 493,-149.5 526.95,-183.02 482.73,-540.07 511,-578.5 517.95,-587.95 530.03,-592.71 540.9,-595.11"/>
<polygon fill="#9a32cd" stroke="#9a32cd" points="380.84,-133.68 372.21,-139.83 382.79,-140.41 380.84,-133.68"/>
</a>
</g>
<text text-anchor="middle" x="450.5" y="-152.5" font-family="Helvetica,sans-Serif" font-size="10.00" fill="grey"> model</text>
</g>
<!-- Node10 -->
<g id="Node000010" class="node">
<title>Node10</title>
<g id="a_Node000010"><a xlink:title=" ">
<polygon fill="white" stroke="#666666" points="371.5,-784 338.5,-784 338.5,-765 371.5,-765 371.5,-784"/>
<text text-anchor="middle" x="355" y="-772" font-family="Helvetica,sans-Serif" font-size="10.00">Vtx</text>
</a>
</g>
</g>
<!-- Node10&#45;&gt;Node4 -->
<g id="edge9_Node000004_Node000010" class="edge">
<title>Node10&#45;&gt;Node4</title>
<g id="a_edge9_Node000004_Node000010"><a xlink:title=" ">
<path fill="none" stroke="#9a32cd" stroke-dasharray="5,2" d="M382.33,-772.77C417.14,-770 476.06,-763.51 493,-750.5 541.54,-713.22 558.15,-634.84 562.61,-607.31"/>
<polygon fill="#9a32cd" stroke="#9a32cd" points="381.67,-769.31 371.96,-773.54 382.19,-776.29 381.67,-769.31"/>
</a>
</g>
<text text-anchor="middle" x="450.5" y="-773.5" font-family="Helvetica,sans-Serif" font-size="10.00" fill="grey"> vertex</text>
</g>
<!-- Node11 -->
<g id="Node000011" class="node">
<title>Node11</title>
<g id="a_Node000011"><a xlink:title=" ">
<polygon fill="white" stroke="#666666" points="369.5,-645 340.5,-645 340.5,-626 369.5,-626 369.5,-645"/>
<text text-anchor="middle" x="355" y="-633" font-family="Helvetica,sans-Serif" font-size="10.00">s8</text>
</a>
</g>
</g>
<!-- Node11&#45;&gt;Node4 -->
<g id="edge10_Node000004_Node000011" class="edge">
<title>Node11&#45;&gt;Node4</title>
<g id="a_edge10_Node000004_Node000011"><a xlink:title=" ">
<path fill="none" stroke="#9a32cd" stroke-dasharray="5,2" d="M379.6,-631.19C419.77,-623.85 500.94,-609.02 540.82,-601.73"/>
<polygon fill="#9a32cd" stroke="#9a32cd" points="378.86,-627.77 369.65,-633.01 380.11,-634.65 378.86,-627.77"/>
</a>
</g>
<text text-anchor="middle" x="450.5" y="-738.5" font-family="Helvetica,sans-Serif" font-size="10.00" fill="grey"> isTimerActive</text>
<text text-anchor="middle" x="450.5" y="-727.5" font-family="Helvetica,sans-Serif" font-size="10.00" fill="grey">textureListIndex</text>
<text text-anchor="middle" x="450.5" y="-716.5" font-family="Helvetica,sans-Serif" font-size="10.00" fill="grey">unk_078</text>
<text text-anchor="middle" x="450.5" y="-705.5" font-family="Helvetica,sans-Serif" font-size="10.00" fill="grey">unk_0CA</text>
<text text-anchor="middle" x="450.5" y="-694.5" font-family="Helvetica,sans-Serif" font-size="10.00" fill="grey">unk_0CC</text>
<text text-anchor="middle" x="450.5" y="-683.5" font-family="Helvetica,sans-Serif" font-size="10.00" fill="grey">unk_0CD</text>
<text text-anchor="middle" x="450.5" y="-672.5" font-family="Helvetica,sans-Serif" font-size="10.00" fill="grey">unk_0CE</text>
<text text-anchor="middle" x="450.5" y="-661.5" font-family="Helvetica,sans-Serif" font-size="10.00" fill="grey">unk_0CF</text>
<text text-anchor="middle" x="450.5" y="-650.5" font-family="Helvetica,sans-Serif" font-size="10.00" fill="grey">unk_0D0</text>
<text text-anchor="middle" x="450.5" y="-639.5" font-family="Helvetica,sans-Serif" font-size="10.00" fill="grey">unk_0D1</text>
<text text-anchor="middle" x="450.5" y="-628.5" font-family="Helvetica,sans-Serif" font-size="10.00" fill="grey">...</text>
</g>
<!-- Node12 -->
<g id="Node000012" class="node">
<title>Node12</title>
<g id="a_Node000012"><a xlink:href="structSplineControlPoint.html" target="_top" xlink:title=" ">
<polygon fill="white" stroke="#666666" points="217,-461 110,-461 110,-442 217,-442 217,-461"/>
<text text-anchor="middle" x="163.5" y="-449" font-family="Helvetica,sans-Serif" font-size="10.00">SplineControlPoint</text>
</a>
</g>
</g>
<!-- Node12&#45;&gt;Node4 -->
<g id="edge11_Node000004_Node000012" class="edge">
<title>Node12&#45;&gt;Node4</title>
<g id="a_edge11_Node000004_Node000012"><a xlink:title=" ">
<path fill="none" stroke="#9a32cd" stroke-dasharray="5,2" d="M227.23,-452.2C317.09,-453.81 473.79,-459.1 493,-476.5 527.12,-507.41 481.32,-543.31 511,-578.5 518.44,-587.32 530.28,-592.04 540.88,-594.58"/>
<polygon fill="#9a32cd" stroke="#9a32cd" points="227.21,-448.7 217.15,-452.03 227.09,-455.7 227.21,-448.7"/>
</a>
</g>
<text text-anchor="middle" x="355" y="-461.5" font-family="Helvetica,sans-Serif" font-size="10.00" fill="grey"> controlPoints</text>
</g>
<!-- Node14 -->
<g id="Node000014" class="node">
<title>Node14</title>
<g id="a_Node000014"><a xlink:href="structSplineData.html" target="_top" xlink:title=" ">
<polygon fill="white" stroke="#666666" points="390,-425 320,-425 320,-406 390,-406 390,-425"/>
<text text-anchor="middle" x="355" y="-413" font-family="Helvetica,sans-Serif" font-size="10.00">SplineData</text>
</a>
</g>
</g>
<!-- Node12&#45;&gt;Node14 -->
<g id="edge15_Node000014_Node000012" class="edge">
<title>Node12&#45;&gt;Node14</title>
<g id="a_edge15_Node000014_Node000012"><a xlink:title=" ">
<path fill="none" stroke="#9a32cd" stroke-dasharray="5,2" d="M218.21,-439.87C223.87,-438.7 229.55,-437.56 235,-436.5 263.52,-430.95 296.01,-425.26 319.83,-421.2"/>
<polygon fill="#9a32cd" stroke="#9a32cd" points="217.15,-436.51 208.08,-441.98 218.58,-443.37 217.15,-436.51"/>
</a>
</g>
<text text-anchor="middle" x="268.5" y="-439.5" font-family="Helvetica,sans-Serif" font-size="10.00" fill="grey"> controlPoints</text>
</g>
<!-- Node13 -->
<g id="Node000013" class="node">
<title>Node13</title>
<g id="a_Node000013"><a xlink:title=" ">
<polygon fill="white" stroke="#666666" points="34,-461 0,-461 0,-442 34,-442 34,-461"/>
<text text-anchor="middle" x="17" y="-449" font-family="Helvetica,sans-Serif" font-size="10.00">s16</text>
</a>
</g>
</g>
<!-- Node13&#45;&gt;Node4 -->
<g id="edge16_Node000004_Node000013" class="edge">
<title>Node13&#45;&gt;Node4</title>
<g id="a_edge16_Node000004_Node000013"><a xlink:title=" ">
<path fill="none" stroke="#9a32cd" stroke-dasharray="5,2" d="M36.38,-467.47C41.23,-471.14 46.62,-474.76 52,-477.5 199.1,-552.43 245.87,-552.41 408,-583.5 454.6,-592.44 510.15,-595.69 540.8,-596.86"/>
<polygon fill="#9a32cd" stroke="#9a32cd" points="38.33,-464.55 28.35,-461.01 33.94,-470.01 38.33,-464.55"/>
</a>
</g>
<text text-anchor="middle" x="268.5" y="-677.5" font-family="Helvetica,sans-Serif" font-size="10.00" fill="grey"> primAlpha</text>
<text text-anchor="middle" x="268.5" y="-666.5" font-family="Helvetica,sans-Serif" font-size="10.00" fill="grey">state</text>
<text text-anchor="middle" x="268.5" y="-655.5" font-family="Helvetica,sans-Serif" font-size="10.00" fill="grey">type</text>
<text text-anchor="middle" x="268.5" y="-644.5" font-family="Helvetica,sans-Serif" font-size="10.00" fill="grey">unk_084</text>
<text text-anchor="middle" x="268.5" y="-633.5" font-family="Helvetica,sans-Serif" font-size="10.00" fill="grey">unk_09C</text>
<text text-anchor="middle" x="268.5" y="-622.5" font-family="Helvetica,sans-Serif" font-size="10.00" fill="grey">unk_09E</text>
<text text-anchor="middle" x="268.5" y="-611.5" font-family="Helvetica,sans-Serif" font-size="10.00" fill="grey">unk_0A2</text>
<text text-anchor="middle" x="268.5" y="-600.5" font-family="Helvetica,sans-Serif" font-size="10.00" fill="grey">unk_0A8</text>
<text text-anchor="middle" x="268.5" y="-589.5" font-family="Helvetica,sans-Serif" font-size="10.00" fill="grey">unk_0AA</text>
<text text-anchor="middle" x="268.5" y="-578.5" font-family="Helvetica,sans-Serif" font-size="10.00" fill="grey">unk_0AC</text>
<text text-anchor="middle" x="268.5" y="-567.5" font-family="Helvetica,sans-Serif" font-size="10.00" fill="grey">...</text>
</g>
<!-- Node13&#45;&gt;Node12 -->
<g id="edge12_Node000012_Node000013" class="edge">
<title>Node13&#45;&gt;Node12</title>
<g id="a_edge12_Node000012_Node000013"><a xlink:title=" ">
<path fill="none" stroke="#9a32cd" stroke-dasharray="5,2" d="M44.18,-451.5C62.45,-451.5 87.46,-451.5 109.78,-451.5"/>
<polygon fill="#9a32cd" stroke="#9a32cd" points="44.02,-448 34.02,-451.5 44.02,-455 44.02,-448"/>
</a>
</g>
<text text-anchor="middle" x="72" y="-465.5" font-family="Helvetica,sans-Serif" font-size="10.00" fill="grey"> pos</text>
<text text-anchor="middle" x="72" y="-454.5" font-family="Helvetica,sans-Serif" font-size="10.00" fill="grey">velocity</text>
</g>
<!-- Node13&#45;&gt;Node14 -->
<g id="edge14_Node000014_Node000013" class="edge">
<title>Node13&#45;&gt;Node14</title>
<g id="a_edge14_Node000014_Node000013"><a xlink:title=" ">
<path fill="none" stroke="#9a32cd" stroke-dasharray="5,2" d="M43.58,-440.94C61.76,-433.98 86.95,-425.45 110,-421.5 183.92,-408.82 272.27,-410.8 319.75,-413.24"/>
<polygon fill="#9a32cd" stroke="#9a32cd" points="42.28,-437.68 34.25,-444.6 44.84,-444.2 42.28,-437.68"/>
</a>
</g>
<text text-anchor="middle" x="163.5" y="-424.5" font-family="Helvetica,sans-Serif" font-size="10.00" fill="grey"> numControlPoints</text>
</g>
<!-- Node14&#45;&gt;Node4 -->
<g id="edge13_Node000004_Node000014" class="edge">
<title>Node14&#45;&gt;Node4</title>
<g id="a_edge13_Node000004_Node000014"><a xlink:title=" ">
<path fill="none" stroke="#9a32cd" stroke-dasharray="5,2" d="M400.1,-416.65C435.16,-418.54 480.35,-423.52 493,-436.5 537.39,-482.06 471.18,-528.89 511,-578.5 518.28,-587.57 530.25,-592.31 540.97,-594.79"/>
<polygon fill="#9a32cd" stroke="#9a32cd" points="400.2,-413.15 390.05,-416.17 399.87,-420.14 400.2,-413.15"/>
</a>
</g>
<text text-anchor="middle" x="450.5" y="-439.5" font-family="Helvetica,sans-Serif" font-size="10.00" fill="grey"> spline</text>
</g>
<!-- Node15 -->
<g id="Node000015" class="node">
<title>Node15</title>
<g id="a_Node000015"><a xlink:title=" ">
<polygon fill="white" stroke="#666666" points="372.5,-334 337.5,-334 337.5,-315 372.5,-315 372.5,-334"/>
<text text-anchor="middle" x="355" y="-322" font-family="Helvetica,sans-Serif" font-size="10.00">u16</text>
</a>
</g>
</g>
<!-- Node15&#45;&gt;Node4 -->
<g id="edge17_Node000004_Node000015" class="edge">
<title>Node15&#45;&gt;Node4</title>
<g id="a_edge17_Node000004_Node000015"><a xlink:title=" ">
<path fill="none" stroke="#9a32cd" stroke-dasharray="5,2" d="M382.12,-315.37C412.89,-306.45 463.55,-297.87 493,-325.5 534.11,-364.07 476.94,-533.59 511,-578.5 518.03,-587.77 529.97,-592.53 540.75,-594.96"/>
<polygon fill="#9a32cd" stroke="#9a32cd" points="381.02,-312.04 372.5,-318.35 383.09,-318.73 381.02,-312.04"/>
</a>
</g>
<text text-anchor="middle" x="450.5" y="-405.5" font-family="Helvetica,sans-Serif" font-size="10.00" fill="grey"> animationTimer</text>
<text text-anchor="middle" x="450.5" y="-394.5" font-family="Helvetica,sans-Serif" font-size="10.00" fill="grey">boundingBoxSize</text>
<text text-anchor="middle" x="450.5" y="-383.5" font-family="Helvetica,sans-Serif" font-size="10.00" fill="grey">direction_angle</text>
<text text-anchor="middle" x="450.5" y="-372.5" font-family="Helvetica,sans-Serif" font-size="10.00" fill="grey">orientation</text>
<text text-anchor="middle" x="450.5" y="-361.5" font-family="Helvetica,sans-Serif" font-size="10.00" fill="grey">unk_09A</text>
<text text-anchor="middle" x="450.5" y="-350.5" font-family="Helvetica,sans-Serif" font-size="10.00" fill="grey">unk_0B8</text>
<text text-anchor="middle" x="450.5" y="-339.5" font-family="Helvetica,sans-Serif" font-size="10.00" fill="grey">unk_0C4</text>
<text text-anchor="middle" x="450.5" y="-328.5" font-family="Helvetica,sans-Serif" font-size="10.00" fill="grey">unk_0C6</text>
</g>
<!-- Node16 -->
<g id="Node000016" class="node">
<title>Node16</title>
<g id="a_Node000016"><a xlink:title=" ">
<polygon fill="white" stroke="#666666" points="584,-570 546,-570 546,-551 584,-551 584,-570"/>
<text text-anchor="middle" x="565" y="-558" font-family="Helvetica,sans-Serif" font-size="10.00">bool</text>
</a>
</g>
</g>
<!-- Node16&#45;&gt;Node2 -->
<g id="edge19_Node000002_Node000016" class="edge">
<title>Node16&#45;&gt;Node2</title>
<g id="a_edge19_Node000002_Node000016"><a xlink:title=" ">
<path fill="none" stroke="#9a32cd" stroke-dasharray="5,2" d="M594.39,-566.98C628.1,-575.77 684.69,-594.09 724,-625.5 757.9,-652.58 784.73,-697.98 795.45,-717.78"/>
<polygon fill="#9a32cd" stroke="#9a32cd" points="594.85,-563.49 584.3,-564.45 593.15,-570.28 594.85,-563.49"/>
</a>
</g>
<text text-anchor="middle" x="680.5" y="-628.5" font-family="Helvetica,sans-Serif" font-size="10.00" fill="grey"> bPendingDestroy</text>
</g>
<!-- Node17 -->
<g id="Node000017" class="node">
<title>Node17</title>
<g id="a_Node000017"><a xlink:href="structFVector.html" target="_top" xlink:title=" ">
<polygon fill="white" stroke="#666666" points="591.5,-211 538.5,-211 538.5,-192 591.5,-192 591.5,-211"/>
<text text-anchor="middle" x="565" y="-199" font-family="Helvetica,sans-Serif" font-size="10.00">FVector</text>
</a>
</g>
</g>
<!-- Node17&#45;&gt;Node2 -->
<g id="edge21_Node000002_Node000017" class="edge">
<title>Node17&#45;&gt;Node2</title>
<g id="a_edge21_Node000002_Node000017"><a xlink:title=" ">
<path fill="none" stroke="#9a32cd" stroke-dasharray="5,2" d="M574.37,-220.23C597.94,-272.98 666.87,-427.26 724,-555.5 751.53,-617.29 784.56,-691.61 796.19,-717.8"/>
<polygon fill="#9a32cd" stroke="#9a32cd" points="577.55,-218.77 570.28,-211.07 571.16,-221.63 577.55,-218.77"/>
</a>
</g>
<text text-anchor="middle" x="680.5" y="-569.5" font-family="Helvetica,sans-Serif" font-size="10.00" fill="grey"> SpawnPos</text>
<text text-anchor="middle" x="680.5" y="-558.5" font-family="Helvetica,sans-Serif" font-size="10.00" fill="grey">SpawnScale</text>
</g>
<!-- Node18 -->
<g id="Node000018" class="node">
<title>Node18</title>
<g id="a_Node000018"><a xlink:title=" ">
<polygon fill="white" stroke="#666666" points="374,-84 336,-84 336,-65 374,-65 374,-84"/>
<text text-anchor="middle" x="355" y="-72" font-family="Helvetica,sans-Serif" font-size="10.00">float</text>
</a>
</g>
</g>
<!-- Node18&#45;&gt;Node2 -->
<g id="edge25_Node000002_Node000018" class="edge">
<title>Node18&#45;&gt;Node2</title>
<g id="a_edge25_Node000002_Node000018"><a xlink:title=" ">
<path fill="none" stroke="#9a32cd" stroke-dasharray="5,2" d="M384.39,-68.23C412.74,-63.25 457.14,-59 493,-71.5 560.51,-95.03 572.69,-117.03 619,-171.5 770.94,-350.2 796.46,-659.11 799.99,-717.74"/>
<polygon fill="#9a32cd" stroke="#9a32cd" points="383.53,-64.83 374.36,-70.14 384.84,-71.71 383.53,-64.83"/>
</a>
</g>
<text text-anchor="middle" x="565" y="-174.5" font-family="Helvetica,sans-Serif" font-size="10.00" fill="grey"> Speed</text>
</g>
<!-- Node18&#45;&gt;Node17 -->
<g id="edge22_Node000017_Node000018" class="edge">
<title>Node18&#45;&gt;Node17</title>
<g id="a_edge22_Node000017_Node000018"><a xlink:title=" ">
<path fill="none" stroke="#9a32cd" stroke-dasharray="5,2" d="M384.01,-71.38C413.43,-69.52 459.92,-70.73 493,-91.5 531.7,-115.79 553.4,-169.75 560.93,-191.81"/>
<polygon fill="#9a32cd" stroke="#9a32cd" points="383.7,-67.89 374,-72.17 384.25,-74.87 383.7,-67.89"/>
</a>
</g>
<text text-anchor="middle" x="450.5" y="-116.5" font-family="Helvetica,sans-Serif" font-size="10.00" fill="grey"> x</text>
<text text-anchor="middle" x="450.5" y="-105.5" font-family="Helvetica,sans-Serif" font-size="10.00" fill="grey">y</text>
<text text-anchor="middle" x="450.5" y="-94.5" font-family="Helvetica,sans-Serif" font-size="10.00" fill="grey">z</text>
</g>
<!-- Node19 -->
<g id="Node000019" class="node">
<title>Node19</title>
<g id="a_Node000019"><a xlink:href="structIRotator.html" target="_top" xlink:title=" ">
<polygon fill="white" stroke="#666666" points="593,-20 537,-20 537,-1 593,-1 593,-20"/>
<text text-anchor="middle" x="565" y="-8" font-family="Helvetica,sans-Serif" font-size="10.00">IRotator</text>
</a>
</g>
</g>
<!-- Node19&#45;&gt;Node2 -->
<g id="edge23_Node000002_Node000019" class="edge">
<title>Node19&#45;&gt;Node2</title>
<g id="a_edge23_Node000002_Node000019"><a xlink:title=" ">
<path fill="none" stroke="#9a32cd" stroke-dasharray="5,2" d="M603.46,-4C639.61,-0.08 693.26,-0.86 724,-32.5 774.23,-84.19 797.1,-638.15 800.15,-717.95"/>
<polygon fill="#9a32cd" stroke="#9a32cd" points="602.79,-0.56 593.3,-5.27 603.66,-7.5 602.79,-0.56"/>
</a>
</g>
<text text-anchor="middle" x="680.5" y="-35.5" font-family="Helvetica,sans-Serif" font-size="10.00" fill="grey"> SpawnRot</text>
</g>
<!-- Node20 -->
<g id="Node000020" class="node">
<title>Node20</title>
<g id="a_Node000020"><a xlink:title=" ">
<polygon fill="white" stroke="#666666" points="383,-19 327,-19 327,0 383,0 383,-19"/>
<text text-anchor="middle" x="355" y="-7" font-family="Helvetica,sans-Serif" font-size="10.00">uint16_t</text>
</a>
</g>
</g>
<!-- Node20&#45;&gt;Node19 -->
<g id="edge24_Node000019_Node000020" class="edge">
<title>Node20&#45;&gt;Node19</title>
<g id="a_edge24_Node000019_Node000020"><a xlink:title=" ">
<path fill="none" stroke="#9a32cd" stroke-dasharray="5,2" d="M393.39,-9.68C434.67,-9.88 500.13,-10.19 536.8,-10.37"/>
<polygon fill="#9a32cd" stroke="#9a32cd" points="393.21,-6.18 383.19,-9.63 393.18,-13.18 393.21,-6.18"/>
</a>
</g>
<text text-anchor="middle" x="450.5" y="-35.5" font-family="Helvetica,sans-Serif" font-size="10.00" fill="grey"> pitch</text>
<text text-anchor="middle" x="450.5" y="-24.5" font-family="Helvetica,sans-Serif" font-size="10.00" fill="grey">roll</text>
<text text-anchor="middle" x="450.5" y="-13.5" font-family="Helvetica,sans-Serif" font-size="10.00" fill="grey">yaw</text>
</g>
<!-- Node21 -->
<g id="Node000021" class="node">
<title>Node21</title>
<g id="a_Node000021"><a xlink:title=" ">
<polygon fill="white" stroke="#666666" points="619,-927 511,-927 511,-908 619,-908 619,-927"/>
<text text-anchor="middle" x="565" y="-915" font-family="Helvetica,sans-Serif" font-size="10.00">vector&lt; Triangle &gt;</text>
</a>
</g>
</g>
<!-- Node21&#45;&gt;Node2 -->
<g id="edge26_Node000002_Node000021" class="edge">
<title>Node21&#45;&gt;Node2</title>
<g id="a_edge26_Node000002_Node000021"><a xlink:title=" ">
<path fill="none" stroke="#9a32cd" stroke-dasharray="5,2" d="M629.14,-914.26C662.08,-909.18 700.33,-897.34 724,-870.5 756.47,-833.67 714.11,-801.91 742,-761.5 749.61,-750.48 762.04,-742.53 773.49,-737.1"/>
<polygon fill="#9a32cd" stroke="#9a32cd" points="628.55,-910.81 619.11,-915.63 629.49,-917.74 628.55,-910.81"/>
</a>
</g>
<text text-anchor="middle" x="680.5" y="-916.5" font-family="Helvetica,sans-Serif" font-size="10.00" fill="grey"> Triangles</text>
</g>
<!-- Node22 -->
<g id="Node000022" class="node">
<title>Node22</title>
<g id="a_Node000022"><a xlink:title=" ">
<polygon fill="white" stroke="#666666" points="997,-699 952,-699 952,-680 997,-680 997,-699"/>
<text text-anchor="middle" x="974.5" y="-687" font-family="Helvetica,sans-Serif" font-size="10.00">size_t</text>
</a>
</g>
</g>
<!-- Node22&#45;&gt;Node1 -->
<g id="edge28_Node000001_Node000022" class="edge">
<title>Node22&#45;&gt;Node1</title>
<g id="a_edge28_Node000001_Node000022"><a xlink:title=" ">
<path fill="none" stroke="#9a32cd" stroke-dasharray="5,2" d="M1007.46,-683.49C1026.12,-681.57 1049.53,-681.98 1068,-691.5 1086.84,-701.21 1099.3,-724.01 1105.15,-737"/>
<polygon fill="#9a32cd" stroke="#9a32cd" points="1006.85,-680.04 997.38,-684.8 1007.75,-686.99 1006.85,-680.04"/>
</a>
</g>
<text text-anchor="middle" x="1049.5" y="-705.5" font-family="Helvetica,sans-Serif" font-size="10.00" fill="grey"> _count</text>
<text text-anchor="middle" x="1049.5" y="-694.5" font-family="Helvetica,sans-Serif" font-size="10.00" fill="grey">_idx</text>
</g>
<!-- Node23&#45;&gt;Node1 -->
<g id="edge29_Node000001_Node000023" class="edge">
<title>Node23&#45;&gt;Node1</title>
<g id="a_edge29_Node000001_Node000023"><a xlink:title=" ">
<path fill="none" stroke="#9a32cd" stroke-dasharray="5,2" d="M1022.95,-758.75C1044.36,-755.7 1068.66,-752.24 1085.97,-749.78"/>
<polygon fill="#9a32cd" stroke="#9a32cd" points="1022.45,-755.28 1013.04,-760.16 1023.44,-762.21 1022.45,-755.28"/>
</a>
</g>
<text text-anchor="middle" x="1049.5" y="-760.5" font-family="Helvetica,sans-Serif" font-size="10.00" fill="grey"> _group</text>
</g>
<!-- Node24 -->
<g id="Node000024" class="node">
<title>Node24</title>
<g id="a_Node000024"><a xlink:title=" ">
<polygon fill="white" stroke="#666666" points="861,-800.5 742,-800.5 742,-770.5 861,-770.5 861,-800.5"/>
<text text-anchor="start" x="750" y="-788.5" font-family="Helvetica,sans-Serif" font-size="10.00">vector&lt; OMoleGroup</text>
<text text-anchor="middle" x="801.5" y="-777.5" font-family="Helvetica,sans-Serif" font-size="10.00">::MoleEntry &gt;</text>
</a>
</g>
</g>
<!-- Node24&#45;&gt;Node23 -->
<g id="edge31_Node000023_Node000024" class="edge">
<title>Node24&#45;&gt;Node23</title>
<g id="a_edge31_Node000023_Node000024"><a xlink:title=" ">
<path fill="none" stroke="#9a32cd" stroke-dasharray="5,2" d="M871.36,-777.45C893.42,-774.87 917.02,-772.11 935.97,-769.89"/>
<polygon fill="#9a32cd" stroke="#9a32cd" points="870.87,-773.98 861.35,-778.62 871.69,-780.93 870.87,-773.98"/>
</a>
</g>
<text text-anchor="middle" x="898.5" y="-779.5" font-family="Helvetica,sans-Serif" font-size="10.00" fill="grey"> _moles</text>
</g>
</g>
</svg>
