<?xml version="1.0" encoding="UTF-8" standalone="no"?>
<!DOCTYPE svg PUBLIC "-//W3C//DTD SVG 1.1//EN"
 "http://www.w3.org/Graphics/SVG/1.1/DTD/svg11.dtd">
<!-- Generated by graphviz version 2.43.0 (0)
 -->
<!-- Title: Editor::Handles Pages: 1 -->
<svg width="595pt" height="273pt"
 viewBox="0.00 0.00 595.00 273.00" xmlns="http://www.w3.org/2000/svg" xmlns:xlink="http://www.w3.org/1999/xlink">
<g id="graph0" class="graph" transform="scale(1 1) rotate(0) translate(4 269)">
<title>Editor::Handles</title>
<!-- Node1 -->
<g id="Node000001" class="node">
<title>Node1</title>
<g id="a_Node000001"><a xlink:title=" ">
<polygon fill="#999999" stroke="#666666" points="342,-19 251,-19 251,0 342,0 342,-19"/>
<text text-anchor="middle" x="296.5" y="-7" font-family="Helvetica,sans-Serif" font-size="10.00">Editor::Handles</text>
</a>
</g>
</g>
<!-- Node2 -->
<g id="Node000002" class="node">
<title>Node2</title>
<g id="a_Node000002"><a xlink:href="classEditor_1_1GameObject.html" target="_top" xlink:title=" ">
<polygon fill="white" stroke="#666666" points="352.5,-75 240.5,-75 240.5,-56 352.5,-56 352.5,-75"/>
<text text-anchor="middle" x="296.5" y="-63" font-family="Helvetica,sans-Serif" font-size="10.00">Editor::GameObject</text>
</a>
</g>
</g>
<!-- Node2&#45;&gt;Node1 -->
<g id="edge1_Node000001_Node000002" class="edge">
<title>Node2&#45;&gt;Node1</title>
<g id="a_edge1_Node000001_Node000002"><a xlink:title=" ">
<path fill="none" stroke="#63b8ff" d="M296.5,-45.3C296.5,-36.41 296.5,-26.28 296.5,-19.25"/>
<polygon fill="#63b8ff" stroke="#63b8ff" points="293,-45.58 296.5,-55.58 300,-45.58 293,-45.58"/>
</a>
</g>
</g>
<!-- Node3 -->
<g id="Node000003" class="node">
<title>Node3</title>
<g id="a_Node000003"><a xlink:title=" ">
<polygon fill="white" stroke="#666666" points="75,-175.5 0,-175.5 0,-156.5 75,-156.5 75,-175.5"/>
<text text-anchor="middle" x="37.5" y="-163.5" font-family="Helvetica,sans-Serif" font-size="10.00">const char *</text>
</a>
</g>
</g>
<!-- Node3&#45;&gt;Node2 -->
<g id="edge2_Node000002_Node000003" class="edge">
<title>Node3&#45;&gt;Node2</title>
<g id="a_edge2_Node000002_Node000003"><a xlink:title=" ">
<path fill="none" stroke="#9a32cd" stroke-dasharray="5,2" d="M31.57,-146.19C27.74,-130 25.61,-107.09 38.5,-93 51.86,-78.41 168.47,-71.36 240.27,-68.38"/>
<polygon fill="#9a32cd" stroke="#9a32cd" points="28.28,-147.42 34.32,-156.13 35.02,-145.56 28.28,-147.42"/>
</a>
</g>
<text text-anchor="middle" x="76" y="-123.5" font-family="Helvetica,sans-Serif" font-size="10.00" fill="grey"> Model</text>
<text text-anchor="middle" x="76" y="-112.5" font-family="Helvetica,sans-Serif" font-size="10.00" fill="grey">Name</text>
<text text-anchor="middle" x="76" y="-101.5" font-family="Helvetica,sans-Serif" font-size="10.00" fill="grey">ResourceName</text>
</g>
<!-- Node4 -->
<g id="Node000004" class="node">
<title>Node4</title>
<g id="a_Node000004"><a xlink:href="structFVector.html" target="_top" xlink:title=" ">
<polygon fill="white" stroke="#666666" points="287,-175.5 234,-175.5 234,-156.5 287,-156.5 287,-175.5"/>
<text text-anchor="middle" x="260.5" y="-163.5" font-family="Helvetica,sans-Serif" font-size="10.00">FVector</text>
</a>
</g>
</g>
<!-- Node4&#45;&gt;Node2 -->
<g id="edge3_Node000002_Node000004" class="edge">
<title>Node4&#45;&gt;Node2</title>
<g id="a_edge3_Node000002_Node000004"><a xlink:title=" ">
<path fill="none" stroke="#9a32cd" stroke-dasharray="5,2" d="M254.41,-146.6C250.5,-131.32 247.63,-109.51 256.5,-93 260.68,-85.22 268.25,-79.34 275.7,-75.12"/>
<polygon fill="#9a32cd" stroke="#9a32cd" points="251.12,-147.79 257.3,-156.4 257.83,-145.81 251.12,-147.79"/>
</a>
</g>
<text text-anchor="middle" x="286" y="-129" font-family="Helvetica,sans-Serif" font-size="10.00" fill="grey"> Pos</text>
<text text-anchor="middle" x="286" y="-118" font-family="Helvetica,sans-Serif" font-size="10.00" fill="grey">Scale</text>
<text text-anchor="middle" x="286" y="-107" font-family="Helvetica,sans-Serif" font-size="10.00" fill="grey">SpawnPos</text>
<text text-anchor="middle" x="286" y="-96" font-family="Helvetica,sans-Serif" font-size="10.00" fill="grey">SpawnScale</text>
</g>
<!-- Node5 -->
<g id="Node000005" class="node">
<title>Node5</title>
<g id="a_Node000005"><a xlink:title=" ">
<polygon fill="white" stroke="#666666" points="188.5,-265 150.5,-265 150.5,-246 188.5,-246 188.5,-265"/>
<text text-anchor="middle" x="169.5" y="-253" font-family="Helvetica,sans-Serif" font-size="10.00">float</text>
</a>
</g>
</g>
<!-- Node5&#45;&gt;Node2 -->
<g id="edge7_Node000002_Node000005" class="edge">
<title>Node5&#45;&gt;Node2</title>
<g id="a_edge7_Node000002_Node000005"><a xlink:title=" ">
<path fill="none" stroke="#9a32cd" stroke-dasharray="5,2" d="M156.03,-237.65C141.36,-217.1 121.92,-181.78 137.5,-155 163.71,-109.94 222.18,-86.2 260.45,-75.02"/>
<polygon fill="#9a32cd" stroke="#9a32cd" points="153.3,-239.84 162.1,-245.73 158.89,-235.63 153.3,-239.84"/>
</a>
</g>
<text text-anchor="middle" x="181.5" y="-169" font-family="Helvetica,sans-Serif" font-size="10.00" fill="grey"> BoundingBoxSize</text>
<text text-anchor="middle" x="181.5" y="-158" font-family="Helvetica,sans-Serif" font-size="10.00" fill="grey">Speed</text>
</g>
<!-- Node5&#45;&gt;Node4 -->
<g id="edge4_Node000004_Node000005" class="edge">
<title>Node5&#45;&gt;Node4</title>
<g id="a_edge4_Node000004_Node000005"><a xlink:title=" ">
<path fill="none" stroke="#9a32cd" stroke-dasharray="5,2" d="M185.99,-238.65C205.19,-220.18 236.24,-190.33 251.48,-175.67"/>
<polygon fill="#9a32cd" stroke="#9a32cd" points="183.34,-236.34 178.56,-245.79 188.19,-241.38 183.34,-236.34"/>
</a>
</g>
<text text-anchor="middle" x="235.5" y="-220" font-family="Helvetica,sans-Serif" font-size="10.00" fill="grey"> x</text>
<text text-anchor="middle" x="235.5" y="-209" font-family="Helvetica,sans-Serif" font-size="10.00" fill="grey">y</text>
<text text-anchor="middle" x="235.5" y="-198" font-family="Helvetica,sans-Serif" font-size="10.00" fill="grey">z</text>
</g>
<!-- Node6 -->
<g id="Node000006" class="node">
<title>Node6</title>
<g id="a_Node000006"><a xlink:href="structIRotator.html" target="_top" xlink:title=" ">
<polygon fill="white" stroke="#666666" points="361.5,-175.5 305.5,-175.5 305.5,-156.5 361.5,-156.5 361.5,-175.5"/>
<text text-anchor="middle" x="333.5" y="-163.5" font-family="Helvetica,sans-Serif" font-size="10.00">IRotator</text>
</a>
</g>
</g>
<!-- Node6&#45;&gt;Node2 -->
<g id="edge5_Node000002_Node000006" class="edge">
<title>Node6&#45;&gt;Node2</title>
<g id="a_edge5_Node000002_Node000006"><a xlink:title=" ">
<path fill="none" stroke="#9a32cd" stroke-dasharray="5,2" d="M330.8,-146.19C328.19,-131.27 323.44,-110.14 315.5,-93 312.55,-86.63 308,-80.21 304.09,-75.29"/>
<polygon fill="#9a32cd" stroke="#9a32cd" points="327.36,-146.9 332.39,-156.22 334.28,-145.8 327.36,-146.9"/>
</a>
</g>
<text text-anchor="middle" x="353" y="-118" font-family="Helvetica,sans-Serif" font-size="10.00" fill="grey"> Rot</text>
<text text-anchor="middle" x="353" y="-107" font-family="Helvetica,sans-Serif" font-size="10.00" fill="grey">SpawnRot</text>
</g>
<!-- Node7 -->
<g id="Node000007" class="node">
<title>Node7</title>
<g id="a_Node000007"><a xlink:title=" ">
<polygon fill="white" stroke="#666666" points="361.5,-265 305.5,-265 305.5,-246 361.5,-246 361.5,-265"/>
<text text-anchor="middle" x="333.5" y="-253" font-family="Helvetica,sans-Serif" font-size="10.00">uint16_t</text>
</a>
</g>
</g>
<!-- Node7&#45;&gt;Node6 -->
<g id="edge6_Node000006_Node000007" class="edge">
<title>Node7&#45;&gt;Node6</title>
<g id="a_edge6_Node000006_Node000007"><a xlink:title=" ">
<path fill="none" stroke="#9a32cd" stroke-dasharray="5,2" d="M333.5,-235.59C333.5,-217.02 333.5,-189.54 333.5,-175.67"/>
<polygon fill="#9a32cd" stroke="#9a32cd" points="330,-235.79 333.5,-245.79 337,-235.79 330,-235.79"/>
</a>
</g>
<text text-anchor="middle" x="347.5" y="-220" font-family="Helvetica,sans-Serif" font-size="10.00" fill="grey"> pitch</text>
<text text-anchor="middle" x="347.5" y="-209" font-family="Helvetica,sans-Serif" font-size="10.00" fill="grey">roll</text>
<text text-anchor="middle" x="347.5" y="-198" font-family="Helvetica,sans-Serif" font-size="10.00" fill="grey">yaw</text>
</g>
<!-- Node8 -->
<g id="Node000008" class="node">
<title>Node8</title>
<g id="a_Node000008"><a xlink:title=" ">
<polygon fill="white" stroke="#666666" points="487.5,-175.5 379.5,-175.5 379.5,-156.5 487.5,-156.5 487.5,-175.5"/>
<text text-anchor="middle" x="433.5" y="-163.5" font-family="Helvetica,sans-Serif" font-size="10.00">vector&lt; Triangle &gt;</text>
</a>
</g>
</g>
<!-- Node8&#45;&gt;Node2 -->
<g id="edge8_Node000002_Node000008" class="edge">
<title>Node8&#45;&gt;Node2</title>
<g id="a_edge8_Node000002_Node000008"><a xlink:title=" ">
<path fill="none" stroke="#9a32cd" stroke-dasharray="5,2" d="M424.78,-146.96C416,-130.62 400.99,-107.02 381.5,-93 370.08,-84.78 356.04,-79.06 342.69,-75.1"/>
<polygon fill="#9a32cd" stroke="#9a32cd" points="421.76,-148.73 429.42,-156.04 427.99,-145.55 421.76,-148.73"/>
</a>
</g>
<text text-anchor="middle" x="441" y="-112.5" font-family="Helvetica,sans-Serif" font-size="10.00" fill="grey"> Triangles</text>
</g>
<!-- Node9 -->
<g id="Node000009" class="node">
<title>Node9</title>
<g id="a_Node000009"><a xlink:title=" ">
<polygon fill="white" stroke="#666666" points="587,-175.5 506,-175.5 506,-156.5 587,-156.5 587,-175.5"/>
<text text-anchor="middle" x="546.5" y="-163.5" font-family="Helvetica,sans-Serif" font-size="10.00">CollisionType</text>
</a>
</g>
</g>
<!-- Node9&#45;&gt;Node2 -->
<g id="edge9_Node000002_Node000009" class="edge">
<title>Node9&#45;&gt;Node2</title>
<g id="a_edge9_Node000002_Node000009"><a xlink:title=" ">
<path fill="none" stroke="#9a32cd" stroke-dasharray="5,2" d="M533.5,-148.19C519.43,-131.29 495.36,-105.95 468.5,-93 432.44,-75.62 387.63,-69.13 352.79,-66.92"/>
<polygon fill="#9a32cd" stroke="#9a32cd" points="530.91,-150.55 539.91,-156.14 536.36,-146.16 530.91,-150.55"/>
</a>
</g>
<text text-anchor="middle" x="545.5" y="-112.5" font-family="Helvetica,sans-Serif" font-size="10.00" fill="grey"> Collision</text>
</g>
</g>
</svg>
