<?xml version="1.0" encoding="UTF-8" standalone="no"?>
<!DOCTYPE svg PUBLIC "-//W3C//DTD SVG 1.1//EN"
 "http://www.w3.org/Graphics/SVG/1.1/DTD/svg11.dtd">
<!-- Generated by graphviz version 2.43.0 (0)
 -->
<!-- Title: Editor::ObjectPicker::CheckEditorObjectRay Pages: 1 -->
<svg width="433pt" height="64pt"
 viewBox="0.00 0.00 433.00 64.00" xmlns="http://www.w3.org/2000/svg" xmlns:xlink="http://www.w3.org/1999/xlink">
<g id="graph0" class="graph" transform="scale(1 1) rotate(0) translate(4 60)">
<title>Editor::ObjectPicker::CheckEditorObjectRay</title>
<!-- Node1 -->
<g id="Node000001" class="node">
<title>Node1</title>
<g id="a_Node000001"><a xlink:title=" ">
<polygon fill="#999999" stroke="#666666" points="131,-42.5 0,-42.5 0,-12.5 131,-12.5 131,-42.5"/>
<text text-anchor="start" x="8" y="-30.5" font-family="Helvetica,sans-Serif" font-size="10.00">Editor::ObjectPicker</text>
<text text-anchor="middle" x="65.5" y="-19.5" font-family="Helvetica,sans-Serif" font-size="10.00">::CheckEditorObjectRay</text>
</a>
</g>
</g>
<!-- Node2 -->
<g id="Node000002" class="node">
<title>Node2</title>
<g id="a_Node000002"><a xlink:href="EditorMath_8cpp.html#ab0a9de936aec5e7e47fe73d35962d9c5" target="_top" xlink:title=" ">
<polygon fill="white" stroke="#666666" points="351,-56 167,-56 167,-37 351,-37 351,-56"/>
<text text-anchor="middle" x="259" y="-44" font-family="Helvetica,sans-Serif" font-size="10.00">IntersectRayTriangleAndTransform</text>
</a>
</g>
</g>
<!-- Node1&#45;&gt;Node2 -->
<g id="edge1_Node000001_Node000002" class="edge">
<title>Node1&#45;&gt;Node2</title>
<g id="a_edge1_Node000001_Node000002"><a xlink:title=" ">
<path fill="none" stroke="#63b8ff" d="M131.07,-33.91C139.34,-34.73 147.96,-35.58 156.64,-36.44"/>
<polygon fill="#63b8ff" stroke="#63b8ff" points="156.55,-39.95 166.85,-37.46 157.24,-32.99 156.55,-39.95"/>
</a>
</g>
</g>
<!-- Node3 -->
<g id="Node000003" class="node">
<title>Node3</title>
<g id="a_Node000003"><a xlink:href="EditorMath_8cpp.html#a82e86dde49d8ab0f5459934034270713" target="_top" xlink:title=" ">
<polygon fill="white" stroke="#666666" points="325,-19 193,-19 193,0 325,0 325,-19"/>
<text text-anchor="middle" x="259" y="-7" font-family="Helvetica,sans-Serif" font-size="10.00">QueryCollisionRayActor</text>
</a>
</g>
</g>
<!-- Node1&#45;&gt;Node3 -->
<g id="edge2_Node000001_Node000003" class="edge">
<title>Node1&#45;&gt;Node3</title>
<g id="a_edge2_Node000001_Node000003"><a xlink:title=" ">
<path fill="none" stroke="#63b8ff" d="M131.07,-21.43C147.52,-19.88 165.36,-18.21 182.31,-16.61"/>
<polygon fill="#63b8ff" stroke="#63b8ff" points="183.11,-20.06 192.74,-15.63 182.45,-13.09 183.11,-20.06"/>
</a>
</g>
</g>
<!-- Node4 -->
<g id="Node000004" class="node">
<title>Node4</title>
<g id="a_Node000004"><a xlink:href="math__util_8h.html#a8fb5c0b9b43a108724b355136d29d2f9" target="_top" xlink:title=" ">
<polygon fill="white" stroke="#666666" points="425,-19 387,-19 387,0 425,0 425,-19"/>
<text text-anchor="middle" x="406" y="-7" font-family="Helvetica,sans-Serif" font-size="10.00">fabs</text>
</a>
</g>
</g>
<!-- Node3&#45;&gt;Node4 -->
<g id="edge3_Node000003_Node000004" class="edge">
<title>Node3&#45;&gt;Node4</title>
<g id="a_edge3_Node000003_Node000004"><a xlink:title=" ">
<path fill="none" stroke="#63b8ff" d="M325.29,-9.5C343.26,-9.5 361.83,-9.5 376.51,-9.5"/>
<polygon fill="#63b8ff" stroke="#63b8ff" points="376.92,-13 386.92,-9.5 376.92,-6 376.92,-13"/>
</a>
</g>
</g>
</g>
</svg>
