<?xml version="1.0" encoding="UTF-8" standalone="no"?>
<!DOCTYPE svg PUBLIC "-//W3C//DTD SVG 1.1//EN"
 "http://www.w3.org/Graphics/SVG/1.1/DTD/svg11.dtd">
<!-- Generated by graphviz version 2.43.0 (0)
 -->
<!-- Title: RoyalRaceway::BeginPlay Pages: 1 -->
<svg width="1473pt" height="1004pt"
 viewBox="0.00 0.00 1473.00 1004.00" xmlns="http://www.w3.org/2000/svg" xmlns:xlink="http://www.w3.org/1999/xlink">
<g id="graph0" class="graph" transform="scale(1 1) rotate(0) translate(4 1000)">
<title>RoyalRaceway::BeginPlay</title>
<!-- Node1 -->
<g id="Node000001" class="node">
<title>Node1</title>
<g id="a_Node000001"><a xlink:title=" ">
<polygon fill="#999999" stroke="#666666" points="143,-624 0,-624 0,-605 143,-605 143,-624"/>
<text text-anchor="middle" x="71.5" y="-612" font-family="Helvetica,sans-Serif" font-size="10.00">RoyalRaceway::BeginPlay</text>
</a>
</g>
</g>
<!-- Node2 -->
<g id="Node000002" class="node">
<title>Node2</title>
<g id="a_Node000002"><a xlink:href="classOBombKart.html#a9fa11c43dd1885221b160bd688eceff0" target="_top" xlink:title=" ">
<polygon fill="white" stroke="#666666" points="298,-791 187,-791 187,-772 298,-772 298,-791"/>
<text text-anchor="middle" x="242.5" y="-779" font-family="Helvetica,sans-Serif" font-size="10.00">OBombKart::Spawn</text>
</a>
</g>
</g>
<!-- Node1&#45;&gt;Node2 -->
<g id="edge1_Node000001_Node000002" class="edge">
<title>Node1&#45;&gt;Node2</title>
<g id="a_edge1_Node000001_Node000002"><a xlink:title=" ">
<path fill="none" stroke="#63b8ff" d="M82.57,-624.45C110.58,-652.13 189.66,-730.28 224.58,-764.78"/>
<polygon fill="#63b8ff" stroke="#63b8ff" points="222.13,-767.28 231.7,-771.81 227.05,-762.3 222.13,-767.28"/>
</a>
</g>
</g>
<!-- Node10 -->
<g id="Node000010" class="node">
<title>Node10</title>
<g id="a_Node000010"><a xlink:href="classOGrandPrixBalloons.html#a6f6d4d32fc44d2b1f3c3b1c3099e2cb5" target="_top" xlink:title=" ">
<polygon fill="white" stroke="#666666" points="299.5,-904.5 185.5,-904.5 185.5,-874.5 299.5,-874.5 299.5,-904.5"/>
<text text-anchor="start" x="193.5" y="-892.5" font-family="Helvetica,sans-Serif" font-size="10.00">OGrandPrixBalloons</text>
<text text-anchor="middle" x="242.5" y="-881.5" font-family="Helvetica,sans-Serif" font-size="10.00">::Spawn</text>
</a>
</g>
</g>
<!-- Node1&#45;&gt;Node10 -->
<g id="edge9_Node000001_Node000010" class="edge">
<title>Node1&#45;&gt;Node10</title>
<g id="a_edge9_Node000001_Node000010"><a xlink:title=" ">
<path fill="none" stroke="#63b8ff" d="M77.76,-624.3C92.8,-652.17 137.55,-734.07 179,-799.5 193.7,-822.7 211.7,-848.36 224.6,-866.32"/>
<polygon fill="#63b8ff" stroke="#63b8ff" points="221.79,-868.42 230.48,-874.48 227.47,-864.32 221.79,-868.42"/>
</a>
</g>
</g>
<!-- Node14 -->
<g id="Node000014" class="node">
<title>Node14</title>
<g id="a_Node000014"><a xlink:href="actors_8c.html#ac586c2534258d0f108e15fd88751b760" target="_top" xlink:title=" ">
<polygon fill="white" stroke="#666666" points="306,-320 179,-320 179,-301 306,-301 306,-320"/>
<text text-anchor="middle" x="242.5" y="-308" font-family="Helvetica,sans-Serif" font-size="10.00">spawn_all_item_boxes</text>
</a>
</g>
</g>
<!-- Node1&#45;&gt;Node14 -->
<g id="edge15_Node000001_Node000014" class="edge">
<title>Node1&#45;&gt;Node14</title>
<g id="a_edge15_Node000001_Node000014"><a xlink:title=" ">
<path fill="none" stroke="#63b8ff" d="M77.93,-604.73C101.97,-561.49 199,-386.94 231.12,-329.17"/>
<polygon fill="#63b8ff" stroke="#63b8ff" points="234.37,-330.52 236.17,-320.08 228.25,-327.12 234.37,-330.52"/>
</a>
</g>
</g>
<!-- Node41 -->
<g id="Node000041" class="node">
<title>Node41</title>
<g id="a_Node000041"><a xlink:href="actors_8c.html#aa6c218ad25d2200bdbf85cbbd197d1cd" target="_top" xlink:title=" ">
<polygon fill="white" stroke="#666666" points="286,-624 199,-624 199,-605 286,-605 286,-624"/>
<text text-anchor="middle" x="242.5" y="-612" font-family="Helvetica,sans-Serif" font-size="10.00">spawn_foliage</text>
</a>
</g>
</g>
<!-- Node1&#45;&gt;Node41 -->
<g id="edge40_Node000001_Node000041" class="edge">
<title>Node1&#45;&gt;Node41</title>
<g id="a_edge40_Node000001_Node000041"><a xlink:title=" ">
<path fill="none" stroke="#63b8ff" d="M143.19,-614.5C158.33,-614.5 174.08,-614.5 188.42,-614.5"/>
<polygon fill="#63b8ff" stroke="#63b8ff" points="188.58,-618 198.58,-614.5 188.58,-611 188.58,-618"/>
</a>
</g>
</g>
<!-- Node54 -->
<g id="Node000054" class="node">
<title>Node54</title>
<g id="a_Node000054"><a xlink:href="actors_8c.html#af6d278bc785acfd772b70dd01b2a2dc0" target="_top" xlink:title=" ">
<polygon fill="white" stroke="#666666" points="305,-95 180,-95 180,-76 305,-76 305,-95"/>
<text text-anchor="middle" x="242.5" y="-83" font-family="Helvetica,sans-Serif" font-size="10.00">spawn_piranha_plants</text>
</a>
</g>
</g>
<!-- Node1&#45;&gt;Node54 -->
<g id="edge59_Node000001_Node000054" class="edge">
<title>Node1&#45;&gt;Node54</title>
<g id="a_edge59_Node000001_Node000054"><a xlink:title=" ">
<path fill="none" stroke="#63b8ff" d="M75.58,-604.87C95.61,-542.15 207.55,-191.78 235.28,-104.97"/>
<polygon fill="#63b8ff" stroke="#63b8ff" points="238.66,-105.91 238.36,-95.32 231.99,-103.78 238.66,-105.91"/>
</a>
</g>
</g>
<!-- Node3 -->
<g id="Node000003" class="node">
<title>Node3</title>
<g id="a_Node000003"><a xlink:href="classOBombKart.html#a1566e8d56318b18ad900fbbac9966d9d" target="_top" xlink:title=" ">
<polygon fill="white" stroke="#666666" points="479.5,-922 344.5,-922 344.5,-903 479.5,-903 479.5,-922"/>
<text text-anchor="middle" x="412" y="-910" font-family="Helvetica,sans-Serif" font-size="10.00">OBombKart::OBombKart</text>
</a>
</g>
</g>
<!-- Node2&#45;&gt;Node3 -->
<g id="edge2_Node000002_Node000003" class="edge">
<title>Node2&#45;&gt;Node3</title>
<g id="a_edge2_Node000002_Node000003"><a xlink:title=" ">
<path fill="none" stroke="#63b8ff" d="M249.28,-791.29C262.67,-813.12 298.1,-866.03 342,-893.5 345.4,-895.63 349.04,-897.52 352.8,-899.2"/>
<polygon fill="#63b8ff" stroke="#63b8ff" points="351.76,-902.55 362.35,-902.97 354.33,-896.04 351.76,-902.55"/>
</a>
</g>
</g>
<!-- Node4 -->
<g id="Node000004" class="node">
<title>Node4</title>
<g id="a_Node000004"><a xlink:href="collision_8c.html#a37aa55b3768d001533ad75e7f1b8388a" target="_top" xlink:title=" ">
<polygon fill="white" stroke="#666666" points="833,-773 692,-773 692,-754 833,-754 833,-773"/>
<text text-anchor="middle" x="762.5" y="-761" font-family="Helvetica,sans-Serif" font-size="10.00">check_bounding_collision</text>
</a>
</g>
</g>
<!-- Node3&#45;&gt;Node4 -->
<g id="edge3_Node000003_Node000004" class="edge">
<title>Node3&#45;&gt;Node4</title>
<g id="a_edge3_Node000003_Node000004"><a xlink:title=" ">
<path fill="none" stroke="#63b8ff" d="M452.04,-902.97C461.92,-900.22 472.44,-897.01 482,-893.5 577.6,-858.38 685.53,-803.63 734.62,-777.85"/>
<polygon fill="#63b8ff" stroke="#63b8ff" points="736.42,-780.86 743.63,-773.09 733.16,-774.66 736.42,-780.86"/>
</a>
</g>
</g>
<!-- Node8 -->
<g id="Node000008" class="node">
<title>Node8</title>
<g id="a_Node000008"><a xlink:href="update__objects_8c.html#a92856990c4ca5fba1b8e0c61ca832c27" target="_top" xlink:title=" ">
<polygon fill="white" stroke="#666666" points="651,-959 523,-959 523,-940 651,-940 651,-959"/>
<text text-anchor="middle" x="587" y="-947" font-family="Helvetica,sans-Serif" font-size="10.00">find_unused_obj_index</text>
</a>
</g>
</g>
<!-- Node3&#45;&gt;Node8 -->
<g id="edge7_Node000003_Node000008" class="edge">
<title>Node3&#45;&gt;Node8</title>
<g id="a_edge7_Node000003_Node000008"><a xlink:title=" ">
<path fill="none" stroke="#63b8ff" d="M457.55,-922.03C480.07,-926.84 507.58,-932.73 531.36,-937.81"/>
<polygon fill="#63b8ff" stroke="#63b8ff" points="530.79,-941.27 541.3,-939.94 532.25,-934.43 530.79,-941.27"/>
</a>
</g>
</g>
<!-- Node9 -->
<g id="Node000009" class="node">
<title>Node9</title>
<g id="a_Node000009"><a xlink:href="classOObject.html#a629d0dcbb210e289cdf541a91321c86b" target="_top" xlink:title=" ">
<polygon fill="white" stroke="#666666" points="637.5,-922 536.5,-922 536.5,-903 637.5,-903 637.5,-922"/>
<text text-anchor="middle" x="587" y="-910" font-family="Helvetica,sans-Serif" font-size="10.00">OObject::OObject</text>
</a>
</g>
</g>
<!-- Node3&#45;&gt;Node9 -->
<g id="edge8_Node000003_Node000009" class="edge">
<title>Node3&#45;&gt;Node9</title>
<g id="a_edge8_Node000003_Node000009"><a xlink:title=" ">
<path fill="none" stroke="#63b8ff" d="M479.89,-912.5C495.18,-912.5 511.34,-912.5 526.31,-912.5"/>
<polygon fill="#63b8ff" stroke="#63b8ff" points="526.46,-916 536.46,-912.5 526.46,-909 526.46,-916"/>
</a>
</g>
</g>
<!-- Node5 -->
<g id="Node000005" class="node">
<title>Node5</title>
<g id="a_Node000005"><a xlink:href="collision_8c.html#ac312bf382cb40752f6b790a99e7cdcb6" target="_top" xlink:title=" ">
<polygon fill="white" stroke="#666666" points="996,-736 888,-736 888,-717 996,-717 996,-736"/>
<text text-anchor="middle" x="942" y="-724" font-family="Helvetica,sans-Serif" font-size="10.00">check_collision_yx</text>
</a>
</g>
</g>
<!-- Node4&#45;&gt;Node5 -->
<g id="edge4_Node000004_Node000005" class="edge">
<title>Node4&#45;&gt;Node5</title>
<g id="a_edge4_Node000004_Node000005"><a xlink:title=" ">
<path fill="none" stroke="#63b8ff" d="M809.21,-753.97C832.41,-749.14 860.79,-743.22 885.27,-738.12"/>
<polygon fill="#63b8ff" stroke="#63b8ff" points="886.06,-741.53 895.14,-736.06 884.63,-734.67 886.06,-741.53"/>
</a>
</g>
</g>
<!-- Node6 -->
<g id="Node000006" class="node">
<title>Node6</title>
<g id="a_Node000006"><a xlink:href="collision_8c.html#a4b48832a90e984536a0635a016ec4f28" target="_top" xlink:title=" ">
<polygon fill="white" stroke="#666666" points="995.5,-810 888.5,-810 888.5,-791 995.5,-791 995.5,-810"/>
<text text-anchor="middle" x="942" y="-798" font-family="Helvetica,sans-Serif" font-size="10.00">check_collision_zx</text>
</a>
</g>
</g>
<!-- Node4&#45;&gt;Node6 -->
<g id="edge5_Node000004_Node000006" class="edge">
<title>Node4&#45;&gt;Node6</title>
<g id="a_edge5_Node000004_Node000006"><a xlink:title=" ">
<path fill="none" stroke="#63b8ff" d="M809.21,-773.03C832.41,-777.86 860.79,-783.78 885.27,-788.88"/>
<polygon fill="#63b8ff" stroke="#63b8ff" points="884.63,-792.33 895.14,-790.94 886.06,-785.47 884.63,-792.33"/>
</a>
</g>
</g>
<!-- Node7 -->
<g id="Node000007" class="node">
<title>Node7</title>
<g id="a_Node000007"><a xlink:href="collision_8c.html#a21fef964ab48191a1c0341954ef27a40" target="_top" xlink:title=" ">
<polygon fill="white" stroke="#666666" points="995.5,-773 888.5,-773 888.5,-754 995.5,-754 995.5,-773"/>
<text text-anchor="middle" x="942" y="-761" font-family="Helvetica,sans-Serif" font-size="10.00">check_collision_zy</text>
</a>
</g>
</g>
<!-- Node4&#45;&gt;Node7 -->
<g id="edge6_Node000004_Node000007" class="edge">
<title>Node4&#45;&gt;Node7</title>
<g id="a_edge6_Node000004_Node000007"><a xlink:title=" ">
<path fill="none" stroke="#63b8ff" d="M833.14,-763.5C847.91,-763.5 863.43,-763.5 877.94,-763.5"/>
<polygon fill="#63b8ff" stroke="#63b8ff" points="878.3,-767 888.3,-763.5 878.3,-760 878.3,-767"/>
</a>
</g>
</g>
<!-- Node11 -->
<g id="Node000011" class="node">
<title>Node11</title>
<g id="a_Node000011"><a xlink:href="classOGrandPrixBalloons.html#ab5fe216ecd9f44c875e06a71bf79cb90" target="_top" xlink:title=" ">
<polygon fill="white" stroke="#666666" points="472,-970.5 352,-970.5 352,-940.5 472,-940.5 472,-970.5"/>
<text text-anchor="start" x="360" y="-958.5" font-family="Helvetica,sans-Serif" font-size="10.00">OGrandPrixBalloons</text>
<text text-anchor="middle" x="412" y="-947.5" font-family="Helvetica,sans-Serif" font-size="10.00">::OGrandPrixBalloons</text>
</a>
</g>
</g>
<!-- Node10&#45;&gt;Node11 -->
<g id="edge10_Node000010_Node000011" class="edge">
<title>Node10&#45;&gt;Node11</title>
<g id="a_edge10_Node000010_Node000011"><a xlink:title=" ">
<path fill="none" stroke="#63b8ff" d="M278.44,-904.51C297.2,-912.45 320.77,-922.24 342,-930.5 347.48,-932.63 353.22,-934.81 358.96,-936.94"/>
<polygon fill="#63b8ff" stroke="#63b8ff" points="357.96,-940.3 368.55,-940.47 360.38,-933.73 357.96,-940.3"/>
</a>
</g>
</g>
<!-- Node11&#45;&gt;Node8 -->
<g id="edge11_Node000011_Node000008" class="edge">
<title>Node11&#45;&gt;Node8</title>
<g id="a_edge11_Node000011_Node000008"><a xlink:title=" ">
<path fill="none" stroke="#63b8ff" d="M472.05,-953.45C485.08,-953 499.03,-952.52 512.55,-952.05"/>
<polygon fill="#63b8ff" stroke="#63b8ff" points="512.91,-955.54 522.78,-951.69 512.66,-948.54 512.91,-955.54"/>
</a>
</g>
</g>
<!-- Node11&#45;&gt;Node9 -->
<g id="edge14_Node000011_Node000009" class="edge">
<title>Node11&#45;&gt;Node9</title>
<g id="a_edge14_Node000011_Node000009"><a xlink:title=" ">
<path fill="none" stroke="#63b8ff" d="M472.05,-940.82C493.41,-935.51 517.25,-929.59 537.58,-924.53"/>
<polygon fill="#63b8ff" stroke="#63b8ff" points="538.7,-927.86 547.56,-922.05 537.01,-921.07 538.7,-927.86"/>
</a>
</g>
</g>
<!-- Node12 -->
<g id="Node000012" class="node">
<title>Node12</title>
<g id="a_Node000012"><a xlink:href="update__objects_8c.html#abdebd086b5ff081f83af3d9205f39cd3" target="_top" xlink:title=" ">
<polygon fill="white" stroke="#666666" points="621,-996 553,-996 553,-977 621,-977 621,-996"/>
<text text-anchor="middle" x="587" y="-984" font-family="Helvetica,sans-Serif" font-size="10.00">init_object</text>
</a>
</g>
</g>
<!-- Node11&#45;&gt;Node12 -->
<g id="edge12_Node000011_Node000012" class="edge">
<title>Node11&#45;&gt;Node12</title>
<g id="a_edge12_Node000011_Node000012"><a xlink:title=" ">
<path fill="none" stroke="#63b8ff" d="M472.05,-966.08C495.27,-970.24 521.43,-974.93 542.82,-978.76"/>
<polygon fill="#63b8ff" stroke="#63b8ff" points="542.45,-982.25 552.91,-980.57 543.68,-975.36 542.45,-982.25"/>
</a>
</g>
</g>
<!-- Node13 -->
<g id="Node000013" class="node">
<title>Node13</title>
<g id="a_Node000013"><a xlink:href="update__objects_8c.html#af20e3f3c403dd4fbea56e358997e515a" target="_top" xlink:title=" ">
<polygon fill="white" stroke="#666666" points="826.5,-996 698.5,-996 698.5,-977 826.5,-977 826.5,-996"/>
<text text-anchor="middle" x="762.5" y="-984" font-family="Helvetica,sans-Serif" font-size="10.00">set_object_timer_state</text>
</a>
</g>
</g>
<!-- Node12&#45;&gt;Node13 -->
<g id="edge13_Node000012_Node000013" class="edge">
<title>Node12&#45;&gt;Node13</title>
<g id="a_edge13_Node000012_Node000013"><a xlink:title=" ">
<path fill="none" stroke="#63b8ff" d="M621.04,-986.5C640.06,-986.5 664.74,-986.5 688.11,-986.5"/>
<polygon fill="#63b8ff" stroke="#63b8ff" points="688.37,-990 698.37,-986.5 688.37,-983 688.37,-990"/>
</a>
</g>
</g>
<!-- Node15 -->
<g id="Node000015" class="node">
<title>Node15</title>
<g id="a_Node000015"><a xlink:href="actors_8c.html#a91fb2e4e37e7c72fea918fe2c1bb4eaf" target="_top" xlink:title=" ">
<polygon fill="white" stroke="#666666" points="482,-283 342,-283 342,-264 482,-264 482,-283"/>
<text text-anchor="middle" x="412" y="-271" font-family="Helvetica,sans-Serif" font-size="10.00">add_actor_to_empty_slot</text>
</a>
</g>
</g>
<!-- Node14&#45;&gt;Node15 -->
<g id="edge16_Node000014_Node000015" class="edge">
<title>Node14&#45;&gt;Node15</title>
<g id="a_edge16_Node000014_Node000015"><a xlink:title=" ">
<path fill="none" stroke="#63b8ff" d="M286.64,-300.97C308.34,-296.18 334.84,-290.32 357.79,-285.25"/>
<polygon fill="#63b8ff" stroke="#63b8ff" points="358.71,-288.64 367.72,-283.06 357.2,-281.8 358.71,-288.64"/>
</a>
</g>
</g>
<!-- Node18 -->
<g id="Node000018" class="node">
<title>Node18</title>
<g id="a_Node000018"><a xlink:href="Game_8cpp.html#a693de7d8b89fe291aafea86bc64a0a2e" target="_top" xlink:title=" ">
<polygon fill="white" stroke="#666666" points="982,-114 902,-114 902,-95 982,-95 982,-114"/>
<text text-anchor="middle" x="942" y="-102" font-family="Helvetica,sans-Serif" font-size="10.00">CM_GetActor</text>
</a>
</g>
</g>
<!-- Node14&#45;&gt;Node18 -->
<g id="edge34_Node000014_Node000018" class="edge">
<title>Node14&#45;&gt;Node18</title>
<g id="a_edge34_Node000014_Node000018"><a xlink:title=" ">
<path fill="none" stroke="#63b8ff" d="M245.87,-300.73C253.67,-270.95 281.55,-181.01 342,-142.5 432.5,-84.84 765.1,-95.36 891.66,-101.68"/>
<polygon fill="#63b8ff" stroke="#63b8ff" points="891.67,-105.18 901.84,-102.2 892.03,-98.19 891.67,-105.18"/>
</a>
</g>
</g>
<!-- Node31 -->
<g id="Node000031" class="node">
<title>Node31</title>
<g id="a_Node000031"><a xlink:href="math__util_8c.html#a79fd07a0971ec96a3ff0801963a2fa7f" target="_top" xlink:title=" ">
<polygon fill="white" stroke="#666666" points="974,-350 910,-350 910,-331 974,-331 974,-350"/>
<text text-anchor="middle" x="942" y="-338" font-family="Helvetica,sans-Serif" font-size="10.00">vec3f_set</text>
</a>
</g>
</g>
<!-- Node14&#45;&gt;Node31 -->
<g id="edge39_Node000014_Node000031" class="edge">
<title>Node14&#45;&gt;Node31</title>
<g id="a_edge39_Node000014_Node000031"><a xlink:title=" ">
<path fill="none" stroke="#63b8ff" d="M306.2,-315.79C392.86,-322.81 554.16,-334.87 692,-339.5 765.06,-341.95 850.24,-341.6 899.65,-341.08"/>
<polygon fill="#63b8ff" stroke="#63b8ff" points="899.97,-344.58 909.93,-340.96 899.89,-337.58 899.97,-344.58"/>
</a>
</g>
</g>
<!-- Node37 -->
<g id="Node000037" class="node">
<title>Node37</title>
<g id="a_Node000037"><a xlink:href="math__util_8c.html#a062850863585005ad1d0a75d9ff70693" target="_top" xlink:title=" ">
<polygon fill="white" stroke="#666666" points="450.5,-171 373.5,-171 373.5,-152 450.5,-152 450.5,-171"/>
<text text-anchor="middle" x="412" y="-159" font-family="Helvetica,sans-Serif" font-size="10.00">random_u16</text>
</a>
</g>
</g>
<!-- Node14&#45;&gt;Node37 -->
<g id="edge35_Node000014_Node000037" class="edge">
<title>Node14&#45;&gt;Node37</title>
<g id="a_edge35_Node000014_Node000037"><a xlink:title=" ">
<path fill="none" stroke="#63b8ff" d="M248.54,-300.83C261.15,-277.58 296.32,-218.05 342,-185.5 348.61,-180.79 356.22,-176.94 363.93,-173.8"/>
<polygon fill="#63b8ff" stroke="#63b8ff" points="365.15,-177.08 373.31,-170.33 362.72,-170.52 365.15,-177.08"/>
</a>
</g>
</g>
<!-- Node38 -->
<g id="Node000038" class="node">
<title>Node38</title>
<g id="a_Node000038"><a xlink:href="collision_8c.html#ad95e9ed2051529d5edee26109fa07427" target="_top" xlink:title=" ">
<polygon fill="white" stroke="#666666" points="480.5,-396 343.5,-396 343.5,-377 480.5,-377 480.5,-396"/>
<text text-anchor="middle" x="412" y="-384" font-family="Helvetica,sans-Serif" font-size="10.00">spawn_actor_on_surface</text>
</a>
</g>
</g>
<!-- Node14&#45;&gt;Node38 -->
<g id="edge36_Node000014_Node000038" class="edge">
<title>Node14&#45;&gt;Node38</title>
<g id="a_edge36_Node000014_Node000038"><a xlink:title=" ">
<path fill="none" stroke="#63b8ff" d="M259.85,-320.12C279.1,-331.2 312.21,-349.54 342,-362.5 351.15,-366.48 361.19,-370.28 370.72,-373.63"/>
<polygon fill="#63b8ff" stroke="#63b8ff" points="369.8,-377.02 380.39,-376.96 372.07,-370.4 369.8,-377.02"/>
</a>
</g>
</g>
<!-- Node16 -->
<g id="Node000016" class="node">
<title>Node16</title>
<g id="a_Node000016"><a xlink:href="actors_8c.html#a39c023177b5a7686cdd1fc65b8b953e1" target="_top" xlink:title=" ">
<polygon fill="white" stroke="#666666" points="618,-283 556,-283 556,-264 618,-264 618,-283"/>
<text text-anchor="middle" x="587" y="-271" font-family="Helvetica,sans-Serif" font-size="10.00">actor_init</text>
</a>
</g>
</g>
<!-- Node15&#45;&gt;Node16 -->
<g id="edge17_Node000015_Node000016" class="edge">
<title>Node15&#45;&gt;Node16</title>
<g id="a_edge17_Node000015_Node000016"><a xlink:title=" ">
<path fill="none" stroke="#63b8ff" d="M482.37,-273.5C503.94,-273.5 527,-273.5 545.87,-273.5"/>
<polygon fill="#63b8ff" stroke="#63b8ff" points="545.89,-277 555.89,-273.5 545.89,-270 545.89,-277"/>
</a>
</g>
</g>
<!-- Node34 -->
<g id="Node000034" class="node">
<title>Node34</title>
<g id="a_Node000034"><a xlink:href="Game_8cpp.html#acea5cfd9ab22f745bd6627869b95a62e" target="_top" xlink:title=" ">
<polygon fill="white" stroke="#666666" points="643,-320 531,-320 531,-301 643,-301 643,-320"/>
<text text-anchor="middle" x="587" y="-308" font-family="Helvetica,sans-Serif" font-size="10.00">CM_ActorBeginPlay</text>
</a>
</g>
</g>
<!-- Node15&#45;&gt;Node34 -->
<g id="edge31_Node000015_Node000034" class="edge">
<title>Node15&#45;&gt;Node34</title>
<g id="a_edge31_Node000015_Node000034"><a xlink:title=" ">
<path fill="none" stroke="#63b8ff" d="M457.55,-283.03C480.07,-287.84 507.58,-293.73 531.36,-298.81"/>
<polygon fill="#63b8ff" stroke="#63b8ff" points="530.79,-302.27 541.3,-300.94 532.25,-295.43 530.79,-302.27"/>
</a>
</g>
</g>
<!-- Node35 -->
<g id="Node000035" class="node">
<title>Node35</title>
<g id="a_Node000035"><a xlink:href="Game_8cpp.html#a42f23077aaa52cb3ea5c7803b7dd6816" target="_top" xlink:title=" ">
<polygon fill="white" stroke="#666666" points="640,-246 534,-246 534,-227 640,-227 640,-246"/>
<text text-anchor="middle" x="587" y="-234" font-family="Helvetica,sans-Serif" font-size="10.00">CM_AddBaseActor</text>
</a>
</g>
</g>
<!-- Node15&#45;&gt;Node35 -->
<g id="edge32_Node000015_Node000035" class="edge">
<title>Node15&#45;&gt;Node35</title>
<g id="a_edge32_Node000015_Node000035"><a xlink:title=" ">
<path fill="none" stroke="#63b8ff" d="M457.55,-263.97C480.07,-259.16 507.58,-253.27 531.36,-248.19"/>
<polygon fill="#63b8ff" stroke="#63b8ff" points="532.25,-251.57 541.3,-246.06 530.79,-244.73 532.25,-251.57"/>
</a>
</g>
</g>
<!-- Node36 -->
<g id="Node000036" class="node">
<title>Node36</title>
<g id="a_Node000036"><a xlink:href="Game_8cpp.html#a0841ffe9a66e95aca42438b9d8ffc3d3" target="_top" xlink:title=" ">
<polygon fill="white" stroke="#666666" points="637.5,-209 536.5,-209 536.5,-190 637.5,-190 637.5,-209"/>
<text text-anchor="middle" x="587" y="-197" font-family="Helvetica,sans-Serif" font-size="10.00">CM_GetActorSize</text>
</a>
</g>
</g>
<!-- Node15&#45;&gt;Node36 -->
<g id="edge33_Node000015_Node000036" class="edge">
<title>Node15&#45;&gt;Node36</title>
<g id="a_edge33_Node000015_Node000036"><a xlink:title=" ">
<path fill="none" stroke="#63b8ff" d="M428.12,-263.99C448.06,-251.79 484.54,-230.65 518,-217.5 523.11,-215.49 528.53,-213.63 533.99,-211.93"/>
<polygon fill="#63b8ff" stroke="#63b8ff" points="535.19,-215.23 543.79,-209.05 533.21,-208.51 535.19,-215.23"/>
</a>
</g>
</g>
<!-- Node16&#45;&gt;Node4 -->
<g id="edge18_Node000016_Node000004" class="edge">
<title>Node16&#45;&gt;Node4</title>
<g id="a_edge18_Node000016_Node000004"><a xlink:title=" ">
<path fill="none" stroke="#63b8ff" d="M618.01,-274.19C631.52,-276.11 646.54,-280.79 656,-291.5 695.34,-336.04 678.48,-498.63 692,-556.5 708.56,-627.39 739.39,-708.41 753.75,-744.47"/>
<polygon fill="#63b8ff" stroke="#63b8ff" points="750.52,-745.81 757.5,-753.78 757.01,-743.2 750.52,-745.81"/>
</a>
</g>
</g>
<!-- Node17 -->
<g id="Node000017" class="node">
<title>Node17</title>
<g id="a_Node000017"><a xlink:href="actors_8c.html#a1a9bccb586242555a9123ebd4ab70f2a" target="_top" xlink:title=" ">
<polygon fill="white" stroke="#666666" points="828.5,-181.5 696.5,-181.5 696.5,-151.5 828.5,-151.5 828.5,-181.5"/>
<text text-anchor="start" x="704.5" y="-169.5" font-family="Helvetica,sans-Serif" font-size="10.00">cleanup_red_and_green</text>
<text text-anchor="middle" x="762.5" y="-158.5" font-family="Helvetica,sans-Serif" font-size="10.00">_shells</text>
</a>
</g>
</g>
<!-- Node16&#45;&gt;Node17 -->
<g id="edge19_Node000016_Node000017" class="edge">
<title>Node16&#45;&gt;Node17</title>
<g id="a_edge19_Node000016_Node000017"><a xlink:title=" ">
<path fill="none" stroke="#63b8ff" d="M618.15,-267.97C630.35,-265 644.28,-260.66 656,-254.5 673.41,-245.35 712.18,-211.46 737.56,-188.51"/>
<polygon fill="#63b8ff" stroke="#63b8ff" points="739.92,-191.09 744.97,-181.78 735.21,-185.91 739.92,-191.09"/>
</a>
</g>
</g>
<!-- Node30 -->
<g id="Node000030" class="node">
<title>Node30</title>
<g id="a_Node000030"><a xlink:href="collision_8c.html#ad72fef3ffe32191d73b1822f512ebf3f" target="_top" xlink:title=" ">
<polygon fill="white" stroke="#666666" points="810,-331 715,-331 715,-312 810,-312 810,-331"/>
<text text-anchor="middle" x="762.5" y="-319" font-family="Helvetica,sans-Serif" font-size="10.00">func_802AAAAC</text>
</a>
</g>
</g>
<!-- Node16&#45;&gt;Node30 -->
<g id="edge27_Node000016_Node000030" class="edge">
<title>Node16&#45;&gt;Node30</title>
<g id="a_edge27_Node000016_Node000030"><a xlink:title=" ">
<path fill="none" stroke="#63b8ff" d="M618.19,-281.23C630.01,-284.33 643.67,-287.99 656,-291.5 672.09,-296.09 675.93,-297.85 692,-302.5 699.69,-304.72 707.87,-307.02 715.83,-309.22"/>
<polygon fill="#63b8ff" stroke="#63b8ff" points="715.16,-312.67 725.73,-311.94 717.01,-305.92 715.16,-312.67"/>
</a>
</g>
</g>
<!-- Node32 -->
<g id="Node000032" class="node">
<title>Node32</title>
<g id="a_Node000032"><a xlink:href="math__util_8c.html#af7b470ed76fce07b8042a47c96e5690b" target="_top" xlink:title=" ">
<polygon fill="white" stroke="#666666" points="816,-294 709,-294 709,-275 816,-275 816,-294"/>
<text text-anchor="middle" x="762.5" y="-282" font-family="Helvetica,sans-Serif" font-size="10.00">vec3f_copy_return</text>
</a>
</g>
</g>
<!-- Node16&#45;&gt;Node32 -->
<g id="edge29_Node000016_Node000032" class="edge">
<title>Node16&#45;&gt;Node32</title>
<g id="a_edge29_Node000016_Node000032"><a xlink:title=" ">
<path fill="none" stroke="#63b8ff" d="M618.22,-275.42C640.35,-276.82 671.16,-278.77 698.55,-280.51"/>
<polygon fill="#63b8ff" stroke="#63b8ff" points="698.65,-284.02 708.85,-281.16 699.09,-277.04 698.65,-284.02"/>
</a>
</g>
</g>
<!-- Node33 -->
<g id="Node000033" class="node">
<title>Node33</title>
<g id="a_Node000033"><a xlink:href="math__util_8c.html#a0e270ee67600c8c9c2f140c647d008a1" target="_top" xlink:title=" ">
<polygon fill="white" stroke="#666666" points="799.5,-257 725.5,-257 725.5,-238 799.5,-238 799.5,-257"/>
<text text-anchor="middle" x="762.5" y="-245" font-family="Helvetica,sans-Serif" font-size="10.00">vec3s_copy</text>
</a>
</g>
</g>
<!-- Node16&#45;&gt;Node33 -->
<g id="edge30_Node000016_Node000033" class="edge">
<title>Node16&#45;&gt;Node33</title>
<g id="a_edge30_Node000016_Node000033"><a xlink:title=" ">
<path fill="none" stroke="#63b8ff" d="M618.22,-268.97C645,-264.96 684.51,-259.04 715.26,-254.43"/>
<polygon fill="#63b8ff" stroke="#63b8ff" points="715.95,-257.87 725.32,-252.92 714.91,-250.94 715.95,-257.87"/>
</a>
</g>
</g>
<!-- Node17&#45;&gt;Node18 -->
<g id="edge20_Node000017_Node000018" class="edge">
<title>Node17&#45;&gt;Node18</title>
<g id="a_edge20_Node000017_Node000018"><a xlink:title=" ">
<path fill="none" stroke="#63b8ff" d="M806.47,-151.49C836.3,-141.07 875.63,-127.33 904.05,-117.41"/>
<polygon fill="#63b8ff" stroke="#63b8ff" points="905.33,-120.67 913.62,-114.07 903.02,-114.06 905.33,-120.67"/>
</a>
</g>
</g>
<!-- Node19 -->
<g id="Node000019" class="node">
<title>Node19</title>
<g id="a_Node000019"><a xlink:href="code__80005FD0_8c.html#ad301b978cdd3c4cc190b10be050d51d8" target="_top" xlink:title=" ">
<polygon fill="white" stroke="#666666" points="1015,-181.5 869,-181.5 869,-151.5 1015,-151.5 1015,-181.5"/>
<text text-anchor="start" x="877" y="-169.5" font-family="Helvetica,sans-Serif" font-size="10.00">delete_actor_in_unexpired</text>
<text text-anchor="middle" x="942" y="-158.5" font-family="Helvetica,sans-Serif" font-size="10.00">_actor_list</text>
</a>
</g>
</g>
<!-- Node17&#45;&gt;Node19 -->
<g id="edge21_Node000017_Node000019" class="edge">
<title>Node17&#45;&gt;Node19</title>
<g id="a_edge21_Node000017_Node000019"><a xlink:title=" ">
<path fill="none" stroke="#63b8ff" d="M828.59,-166.5C838.38,-166.5 848.59,-166.5 858.69,-166.5"/>
<polygon fill="#63b8ff" stroke="#63b8ff" points="858.73,-170 868.73,-166.5 858.73,-163 858.73,-170"/>
</a>
</g>
</g>
<!-- Node20 -->
<g id="Node000020" class="node">
<title>Node20</title>
<g id="a_Node000020"><a xlink:href="actors_8c.html#a694ec6ef7548b8618aeb35c038d3a9b9" target="_top" xlink:title=" ">
<polygon fill="white" stroke="#666666" points="983.5,-219 900.5,-219 900.5,-200 983.5,-200 983.5,-219"/>
<text text-anchor="middle" x="942" y="-207" font-family="Helvetica,sans-Serif" font-size="10.00">destroy_actor</text>
</a>
</g>
</g>
<!-- Node17&#45;&gt;Node20 -->
<g id="edge22_Node000017_Node000020" class="edge">
<title>Node17&#45;&gt;Node20</title>
<g id="a_edge22_Node000017_Node000020"><a xlink:title=" ">
<path fill="none" stroke="#63b8ff" d="M825.58,-181.54C847.32,-186.8 871.41,-192.64 891.93,-197.61"/>
<polygon fill="#63b8ff" stroke="#63b8ff" points="891.15,-201.02 901.69,-199.98 892.8,-194.22 891.15,-201.02"/>
</a>
</g>
</g>
<!-- Node21 -->
<g id="Node000021" class="node">
<title>Node21</title>
<g id="a_Node000021"><a xlink:href="actors_8c.html#a12dc3ccac4c7d8569eadac0af4fd6f9f" target="_top" xlink:title=" ">
<polygon fill="white" stroke="#666666" points="1209,-219 1051,-219 1051,-200 1209,-200 1209,-219"/>
<text text-anchor="middle" x="1130" y="-207" font-family="Helvetica,sans-Serif" font-size="10.00">play_sound_before_despawn</text>
</a>
</g>
</g>
<!-- Node20&#45;&gt;Node21 -->
<g id="edge23_Node000020_Node000021" class="edge">
<title>Node20&#45;&gt;Node21</title>
<g id="a_edge23_Node000020_Node000021"><a xlink:title=" ">
<path fill="none" stroke="#63b8ff" d="M983.82,-209.5C1000.65,-209.5 1020.86,-209.5 1040.77,-209.5"/>
<polygon fill="#63b8ff" stroke="#63b8ff" points="1040.82,-213 1050.82,-209.5 1040.82,-206 1040.82,-213"/>
</a>
</g>
</g>
<!-- Node22 -->
<g id="Node000022" class="node">
<title>Node22</title>
<g id="a_Node000022"><a xlink:href="external_8c.html#ae72057869772019e4464c87d4e16c682" target="_top" xlink:title=" ">
<polygon fill="white" stroke="#666666" points="1337,-219 1245,-219 1245,-200 1337,-200 1337,-219"/>
<text text-anchor="middle" x="1291" y="-207" font-family="Helvetica,sans-Serif" font-size="10.00">func_800C99E0</text>
</a>
</g>
</g>
<!-- Node21&#45;&gt;Node22 -->
<g id="edge24_Node000021_Node000022" class="edge">
<title>Node21&#45;&gt;Node22</title>
<g id="a_edge24_Node000021_Node000022"><a xlink:title=" ">
<path fill="none" stroke="#63b8ff" d="M1209.1,-209.5C1217.72,-209.5 1226.35,-209.5 1234.61,-209.5"/>
<polygon fill="#63b8ff" stroke="#63b8ff" points="1234.83,-213 1244.83,-209.5 1234.83,-206 1234.83,-213"/>
</a>
</g>
</g>
<!-- Node23 -->
<g id="Node000023" class="node">
<title>Node23</title>
<g id="a_Node000023"><a xlink:href="external_8c.html#aeb87c527482a244173df36a1f3d4f446" target="_top" xlink:title=" ">
<polygon fill="white" stroke="#666666" points="1465,-238 1373,-238 1373,-219 1465,-219 1465,-238"/>
<text text-anchor="middle" x="1419" y="-226" font-family="Helvetica,sans-Serif" font-size="10.00">func_800C21E8</text>
</a>
</g>
</g>
<!-- Node22&#45;&gt;Node23 -->
<g id="edge25_Node000022_Node000023" class="edge">
<title>Node22&#45;&gt;Node23</title>
<g id="a_edge25_Node000022_Node000023"><a xlink:title=" ">
<path fill="none" stroke="#63b8ff" d="M1337.13,-216.31C1345.46,-217.56 1354.23,-218.88 1362.81,-220.18"/>
<polygon fill="#63b8ff" stroke="#63b8ff" points="1362.35,-223.65 1372.76,-221.68 1363.39,-216.73 1362.35,-223.65"/>
</a>
</g>
</g>
<!-- Node24 -->
<g id="Node000024" class="node">
<title>Node24</title>
<g id="a_Node000024"><a xlink:href="external_8c.html#a028d40421b90c38f68ebfd5acc626f2e" target="_top" xlink:title=" ">
<polygon fill="#fff0f0" stroke="red" points="1465,-201 1373,-201 1373,-182 1465,-182 1465,-201"/>
<text text-anchor="middle" x="1419" y="-189" font-family="Helvetica,sans-Serif" font-size="10.00">func_800C5578</text>
</a>
</g>
</g>
<!-- Node22&#45;&gt;Node24 -->
<g id="edge26_Node000022_Node000024" class="edge">
<title>Node22&#45;&gt;Node24</title>
<g id="a_edge26_Node000022_Node000024"><a xlink:title=" ">
<path fill="none" stroke="#63b8ff" d="M1337.13,-203.05C1345.46,-201.86 1354.23,-200.61 1362.81,-199.38"/>
<polygon fill="#63b8ff" stroke="#63b8ff" points="1363.35,-202.84 1372.76,-197.96 1362.36,-195.91 1363.35,-202.84"/>
</a>
</g>
</g>
<!-- Node30&#45;&gt;Node31 -->
<g id="edge28_Node000030_Node000031" class="edge">
<title>Node30&#45;&gt;Node31</title>
<g id="a_edge28_Node000030_Node000031"><a xlink:title=" ">
<path fill="none" stroke="#63b8ff" d="M810.14,-326.49C837.88,-329.46 872.78,-333.2 899.56,-336.06"/>
<polygon fill="#63b8ff" stroke="#63b8ff" points="899.44,-339.57 909.76,-337.16 900.19,-332.61 899.44,-339.57"/>
</a>
</g>
</g>
<!-- Node39 -->
<g id="Node000039" class="node">
<title>Node39</title>
<g id="a_Node000039"><a xlink:href="collision_8c.html#a6527a2135a10909cdf9a1fd731be5628" target="_top" xlink:title=" ">
<polygon fill="white" stroke="#666666" points="656,-444 518,-444 518,-425 656,-425 656,-444"/>
<text text-anchor="middle" x="587" y="-432" font-family="Helvetica,sans-Serif" font-size="10.00">calculate_surface_height</text>
</a>
</g>
</g>
<!-- Node38&#45;&gt;Node39 -->
<g id="edge37_Node000038_Node000039" class="edge">
<title>Node38&#45;&gt;Node39</title>
<g id="a_edge37_Node000038_Node000039"><a xlink:title=" ">
<path fill="none" stroke="#63b8ff" d="M447.59,-396.1C474.58,-403.59 512.27,-414.04 541.51,-422.16"/>
<polygon fill="#63b8ff" stroke="#63b8ff" points="540.89,-425.62 551.47,-424.92 542.77,-418.87 540.89,-425.62"/>
</a>
</g>
</g>
<!-- Node40 -->
<g id="Node000040" class="node">
<title>Node40</title>
<g id="a_Node000040"><a xlink:href="collision_8c.html#a0fe340ccfe1d926a592ea9a0c84d7574" target="_top" xlink:title=" ">
<polygon fill="white" stroke="#666666" points="653,-406.5 521,-406.5 521,-376.5 653,-376.5 653,-406.5"/>
<text text-anchor="start" x="529" y="-394.5" font-family="Helvetica,sans-Serif" font-size="10.00">check_horizontally</text>
<text text-anchor="middle" x="587" y="-383.5" font-family="Helvetica,sans-Serif" font-size="10.00">_colliding_with_triangle</text>
</a>
</g>
</g>
<!-- Node38&#45;&gt;Node40 -->
<g id="edge38_Node000038_Node000040" class="edge">
<title>Node38&#45;&gt;Node40</title>
<g id="a_edge38_Node000038_Node000040"><a xlink:title=" ">
<path fill="none" stroke="#63b8ff" d="M480.88,-388.46C490.64,-388.74 500.74,-389.04 510.64,-389.32"/>
<polygon fill="#63b8ff" stroke="#63b8ff" points="510.77,-392.83 520.86,-389.62 510.97,-385.83 510.77,-392.83"/>
</a>
</g>
</g>
<!-- Node41&#45;&gt;Node4 -->
<g id="edge43_Node000041_Node000004" class="edge">
<title>Node41&#45;&gt;Node4</title>
<g id="a_edge43_Node000041_Node000004"><a xlink:title=" ">
<path fill="none" stroke="#63b8ff" d="M247.42,-624.25C258.14,-649.44 290.6,-716.53 342,-743.5 398.94,-773.37 576.55,-771.58 681.52,-767.57"/>
<polygon fill="#63b8ff" stroke="#63b8ff" points="681.91,-771.06 691.76,-767.16 681.63,-764.06 681.91,-771.06"/>
</a>
</g>
</g>
<!-- Node41&#45;&gt;Node15 -->
<g id="edge41_Node000041_Node000015" class="edge">
<title>Node41&#45;&gt;Node15</title>
<g id="a_edge41_Node000041_Node000015"><a xlink:title=" ">
<path fill="none" stroke="#63b8ff" d="M246.42,-604.68C256.76,-570.59 293.64,-454.71 342,-367.5 357.78,-339.05 380.94,-309.28 395.99,-291.05"/>
<polygon fill="#63b8ff" stroke="#63b8ff" points="398.93,-293 402.67,-283.09 393.56,-288.51 398.93,-293"/>
</a>
</g>
</g>
<!-- Node41&#45;&gt;Node18 -->
<g id="edge44_Node000041_Node000018" class="edge">
<title>Node41&#45;&gt;Node18</title>
<g id="a_edge44_Node000041_Node000018"><a xlink:title=" ">
<path fill="none" stroke="#63b8ff" d="M244.98,-604.86C253.04,-553.27 293.19,-310.16 342,-254.5 415.21,-171.02 762.12,-124.43 891.87,-109.68"/>
<polygon fill="#63b8ff" stroke="#63b8ff" points="892.38,-113.15 901.92,-108.56 891.6,-106.19 892.38,-113.15"/>
</a>
</g>
</g>
<!-- Node41&#45;&gt;Node31 -->
<g id="edge58_Node000041_Node000031" class="edge">
<title>Node41&#45;&gt;Node31</title>
<g id="a_edge58_Node000041_Node000031"><a xlink:title=" ">
<path fill="none" stroke="#63b8ff" d="M245.56,-604.74C252.59,-574.15 278.82,-480.02 342,-443.5 395.87,-412.36 420.24,-435.9 482,-443.5 498.37,-445.52 501.63,-450.48 518,-452.5 578.87,-459.99 595.74,-463.92 656,-452.5 755.65,-433.62 865.06,-380.68 914.34,-354.93"/>
<polygon fill="#63b8ff" stroke="#63b8ff" points="916.16,-357.92 923.37,-350.16 912.89,-351.73 916.16,-357.92"/>
</a>
</g>
</g>
<!-- Node41&#45;&gt;Node39 -->
<g id="edge42_Node000041_Node000039" class="edge">
<title>Node41&#45;&gt;Node39</title>
<g id="a_edge42_Node000041_Node000039"><a xlink:title=" ">
<path fill="none" stroke="#63b8ff" d="M250.76,-604.81C265.68,-585.58 301.78,-542.5 342,-519.5 398.07,-487.43 421.19,-502.29 482,-480.5 508.15,-471.13 536.98,-458.16 557.63,-448.38"/>
<polygon fill="#63b8ff" stroke="#63b8ff" points="559.28,-451.48 566.79,-444 556.26,-445.16 559.28,-451.48"/>
</a>
</g>
</g>
<!-- Node42 -->
<g id="Node000042" class="node">
<title>Node42</title>
<g id="a_Node000042"><a xlink:href="actors_8c.html#a6fd7dc3bc34357287535b6f06ab7d85c" target="_top" xlink:title=" ">
<polygon fill="white" stroke="#666666" points="633,-586 541,-586 541,-567 633,-567 633,-586"/>
<text text-anchor="middle" x="587" y="-574" font-family="Helvetica,sans-Serif" font-size="10.00">func_802976D8</text>
</a>
</g>
</g>
<!-- Node41&#45;&gt;Node42 -->
<g id="edge45_Node000041_Node000042" class="edge">
<title>Node41&#45;&gt;Node42</title>
<g id="a_edge45_Node000041_Node000042"><a xlink:title=" ">
<path fill="none" stroke="#63b8ff" d="M286.48,-605.12C303.67,-601.65 323.7,-597.97 342,-595.5 406.47,-586.8 481.1,-581.71 530.68,-579.02"/>
<polygon fill="#63b8ff" stroke="#63b8ff" points="531.07,-582.51 540.87,-578.49 530.7,-575.52 531.07,-582.51"/>
</a>
</g>
</g>
<!-- Node43 -->
<g id="Node000043" class="node">
<title>Node43</title>
<g id="a_Node000043"><a xlink:href="actors_8c.html#a09d879c67b2c1430dd8ba2d5c9c136e1" target="_top" xlink:title=" ">
<polygon fill="white" stroke="#666666" points="458,-548 366,-548 366,-529 458,-529 458,-548"/>
<text text-anchor="middle" x="412" y="-536" font-family="Helvetica,sans-Serif" font-size="10.00">func_802976EC</text>
</a>
</g>
</g>
<!-- Node41&#45;&gt;Node43 -->
<g id="edge46_Node000041_Node000043" class="edge">
<title>Node41&#45;&gt;Node43</title>
<g id="a_edge46_Node000041_Node000043"><a xlink:title=" ">
<path fill="none" stroke="#63b8ff" d="M259.85,-604.88C279.1,-593.8 312.21,-575.46 342,-562.5 351.15,-558.52 361.19,-554.72 370.72,-551.37"/>
<polygon fill="#63b8ff" stroke="#63b8ff" points="372.07,-554.6 380.39,-548.04 369.8,-547.98 372.07,-554.6"/>
</a>
</g>
</g>
<!-- Node46 -->
<g id="Node000046" class="node">
<title>Node46</title>
<g id="a_Node000046"><a xlink:href="Game_8cpp.html#a8ebd6a4d970e4333ab5a9dd66c3d9c48" target="_top" xlink:title=" ">
<polygon fill="white" stroke="#666666" points="460.5,-472 363.5,-472 363.5,-453 460.5,-453 460.5,-472"/>
<text text-anchor="middle" x="412" y="-460" font-family="Helvetica,sans-Serif" font-size="10.00">IsBowsersCastle</text>
</a>
</g>
</g>
<!-- Node41&#45;&gt;Node46 -->
<g id="edge50_Node000041_Node000046" class="edge">
<title>Node41&#45;&gt;Node46</title>
<g id="a_edge50_Node000041_Node000046"><a xlink:title=" ">
<path fill="none" stroke="#63b8ff" d="M248.3,-604.94C260.6,-581.37 295.61,-519.96 342,-486.5 347.94,-482.22 354.71,-478.64 361.64,-475.68"/>
<polygon fill="#63b8ff" stroke="#63b8ff" points="363.06,-478.88 371.11,-472 360.52,-472.36 363.06,-478.88"/>
</a>
</g>
</g>
<!-- Node47 -->
<g id="Node000047" class="node">
<title>Node47</title>
<g id="a_Node000047"><a xlink:href="Game_8cpp.html#af4bf996258124d6741c70e4fa918ef03" target="_top" xlink:title=" ">
<polygon fill="white" stroke="#666666" points="464.5,-885 359.5,-885 359.5,-866 464.5,-866 464.5,-885"/>
<text text-anchor="middle" x="412" y="-873" font-family="Helvetica,sans-Serif" font-size="10.00">IsFrappeSnowland</text>
</a>
</g>
</g>
<!-- Node41&#45;&gt;Node47 -->
<g id="edge51_Node000041_Node000047" class="edge">
<title>Node41&#45;&gt;Node47</title>
<g id="a_edge51_Node000041_Node000047"><a xlink:title=" ">
<path fill="none" stroke="#63b8ff" d="M247.71,-624.15C257.95,-647.69 284.86,-709.98 306,-762.5 322.7,-804 308.87,-826.44 342,-856.5 344.48,-858.75 347.21,-860.74 350.1,-862.5"/>
<polygon fill="#63b8ff" stroke="#63b8ff" points="348.69,-865.71 359.2,-867.1 351.85,-859.46 348.69,-865.71"/>
</a>
</g>
</g>
<!-- Node48 -->
<g id="Node000048" class="node">
<title>Node48</title>
<g id="a_Node000048"><a xlink:href="Game_8cpp.html#ad474b8b257813cceeae25ab5205273c4" target="_top" xlink:title=" ">
<polygon fill="white" stroke="#666666" points="461,-848 363,-848 363,-829 461,-829 461,-848"/>
<text text-anchor="middle" x="412" y="-836" font-family="Helvetica,sans-Serif" font-size="10.00">IsKalimariDesert</text>
</a>
</g>
</g>
<!-- Node41&#45;&gt;Node48 -->
<g id="edge52_Node000041_Node000048" class="edge">
<title>Node41&#45;&gt;Node48</title>
<g id="a_edge52_Node000041_Node000048"><a xlink:title=" ">
<path fill="none" stroke="#63b8ff" d="M247.58,-624.16C264.01,-662.9 325.26,-805.52 342,-819.5 345.47,-822.4 349.36,-824.86 353.46,-826.95"/>
<polygon fill="#63b8ff" stroke="#63b8ff" points="352.16,-830.2 362.72,-830.94 354.93,-823.77 352.16,-830.2"/>
</a>
</g>
</g>
<!-- Node49 -->
<g id="Node000049" class="node">
<title>Node49</title>
<g id="a_Node000049"><a xlink:href="Game_8cpp.html#a2d7429dca77188f881bf1c340271ea90" target="_top" xlink:title=" ">
<polygon fill="white" stroke="#666666" points="458,-811 366,-811 366,-792 458,-792 458,-811"/>
<text text-anchor="middle" x="412" y="-799" font-family="Helvetica,sans-Serif" font-size="10.00">IsLuigiRaceway</text>
</a>
</g>
</g>
<!-- Node41&#45;&gt;Node49 -->
<g id="edge53_Node000041_Node000049" class="edge">
<title>Node41&#45;&gt;Node49</title>
<g id="a_edge53_Node000041_Node000049"><a xlink:title=" ">
<path fill="none" stroke="#63b8ff" d="M246.67,-624.16C256.33,-652.11 288.05,-733.79 342,-777.5 347.23,-781.74 353.26,-785.25 359.53,-788.16"/>
<polygon fill="#63b8ff" stroke="#63b8ff" points="358.24,-791.41 368.82,-791.99 360.91,-784.94 358.24,-791.41"/>
</a>
</g>
</g>
<!-- Node50 -->
<g id="Node000050" class="node">
<title>Node50</title>
<g id="a_Node000050"><a xlink:href="Game_8cpp.html#a591286b8b2219a8889cda4cc5d3b8c79" target="_top" xlink:title=" ">
<polygon fill="white" stroke="#666666" points="460.5,-735 363.5,-735 363.5,-716 460.5,-716 460.5,-735"/>
<text text-anchor="middle" x="412" y="-723" font-family="Helvetica,sans-Serif" font-size="10.00">IsMarioRaceway</text>
</a>
</g>
</g>
<!-- Node41&#45;&gt;Node50 -->
<g id="edge54_Node000041_Node000050" class="edge">
<title>Node41&#45;&gt;Node50</title>
<g id="a_edge54_Node000041_Node000050"><a xlink:title=" ">
<path fill="none" stroke="#63b8ff" d="M251.06,-624.18C266.24,-642.93 302.38,-684.34 342,-706.5 345.95,-708.71 350.17,-710.67 354.51,-712.42"/>
<polygon fill="#63b8ff" stroke="#63b8ff" points="353.53,-715.79 364.13,-715.9 355.92,-709.21 353.53,-715.79"/>
</a>
</g>
</g>
<!-- Node51 -->
<g id="Node000051" class="node">
<title>Node51</title>
<g id="a_Node000051"><a xlink:href="Game_8cpp.html#a8a295fe1e3fdfa50223813feaca6d7d6" target="_top" xlink:title=" ">
<polygon fill="white" stroke="#666666" points="457.5,-698 366.5,-698 366.5,-679 457.5,-679 457.5,-698"/>
<text text-anchor="middle" x="412" y="-686" font-family="Helvetica,sans-Serif" font-size="10.00">IsMooMooFarm</text>
</a>
</g>
</g>
<!-- Node41&#45;&gt;Node51 -->
<g id="edge55_Node000041_Node000051" class="edge">
<title>Node41&#45;&gt;Node51</title>
<g id="a_edge55_Node000041_Node000051"><a xlink:title=" ">
<path fill="none" stroke="#63b8ff" d="M257.96,-624.04C276.69,-636.05 310.65,-656.65 342,-669.5 347.81,-671.88 354.01,-674.06 360.23,-676.03"/>
<polygon fill="#63b8ff" stroke="#63b8ff" points="359.37,-679.43 369.96,-678.94 361.38,-672.72 359.37,-679.43"/>
</a>
</g>
</g>
<!-- Node52 -->
<g id="Node000052" class="node">
<title>Node52</title>
<g id="a_Node000052"><a xlink:href="Game_8cpp.html#afb0bb7b7bc2b816a7a9fbedcc6c41ab7" target="_top" xlink:title=" ">
<polygon fill="white" stroke="#666666" points="460.5,-661 363.5,-661 363.5,-642 460.5,-642 460.5,-661"/>
<text text-anchor="middle" x="412" y="-649" font-family="Helvetica,sans-Serif" font-size="10.00">IsRoyalRaceway</text>
</a>
</g>
</g>
<!-- Node41&#45;&gt;Node52 -->
<g id="edge56_Node000041_Node000052" class="edge">
<title>Node41&#45;&gt;Node52</title>
<g id="a_edge56_Node000041_Node000052"><a xlink:title=" ">
<path fill="none" stroke="#63b8ff" d="M286.2,-623.93C307.98,-628.74 334.69,-634.64 357.8,-639.75"/>
<polygon fill="#63b8ff" stroke="#63b8ff" points="357.28,-643.22 367.79,-641.96 358.79,-636.38 357.28,-643.22"/>
</a>
</g>
</g>
<!-- Node53 -->
<g id="Node000053" class="node">
<title>Node53</title>
<g id="a_Node000053"><a xlink:href="Game_8cpp.html#ab05bb065469940f40a5023c58a8f9e7f" target="_top" xlink:title=" ">
<polygon fill="white" stroke="#666666" points="452,-624 372,-624 372,-605 452,-605 452,-624"/>
<text text-anchor="middle" x="412" y="-612" font-family="Helvetica,sans-Serif" font-size="10.00">IsYoshiValley</text>
</a>
</g>
</g>
<!-- Node41&#45;&gt;Node53 -->
<g id="edge57_Node000041_Node000053" class="edge">
<title>Node41&#45;&gt;Node53</title>
<g id="a_edge57_Node000041_Node000053"><a xlink:title=" ">
<path fill="none" stroke="#63b8ff" d="M286.2,-614.5C309.17,-614.5 337.6,-614.5 361.53,-614.5"/>
<polygon fill="#63b8ff" stroke="#63b8ff" points="361.82,-618 371.82,-614.5 361.82,-611 361.82,-618"/>
</a>
</g>
</g>
<!-- Node43&#45;&gt;Node42 -->
<g id="edge49_Node000043_Node000042" class="edge">
<title>Node43&#45;&gt;Node42</title>
<g id="a_edge49_Node000043_Node000042"><a xlink:title=" ">
<path fill="none" stroke="#63b8ff" d="M456.66,-548.09C479.79,-553.17 508.4,-559.46 532.83,-564.82"/>
<polygon fill="#63b8ff" stroke="#63b8ff" points="532.14,-568.25 542.66,-566.98 533.64,-561.42 532.14,-568.25"/>
</a>
</g>
</g>
<!-- Node44 -->
<g id="Node000044" class="node">
<title>Node44</title>
<g id="a_Node000044"><a xlink:href="math__util_8c.html#aaa39a297477f56051975259f4bddd829" target="_top" xlink:title=" ">
<polygon fill="white" stroke="#666666" points="612,-548 562,-548 562,-529 612,-529 612,-548"/>
<text text-anchor="middle" x="587" y="-536" font-family="Helvetica,sans-Serif" font-size="10.00">atan2s</text>
</a>
</g>
</g>
<!-- Node43&#45;&gt;Node44 -->
<g id="edge47_Node000043_Node000044" class="edge">
<title>Node43&#45;&gt;Node44</title>
<g id="a_edge47_Node000043_Node000044"><a xlink:title=" ">
<path fill="none" stroke="#63b8ff" d="M458,-538.5C487.35,-538.5 525.04,-538.5 551.91,-538.5"/>
<polygon fill="#63b8ff" stroke="#63b8ff" points="551.99,-542 561.99,-538.5 551.99,-535 551.99,-542"/>
</a>
</g>
</g>
<!-- Node45 -->
<g id="Node000045" class="node">
<title>Node45</title>
<g id="a_Node000045"><a xlink:href="math__util_8c.html#a0273b0ea0783a06996c28669a7438ed9" target="_top" xlink:title=" ">
<polygon fill="white" stroke="#666666" points="803.5,-548 721.5,-548 721.5,-529 803.5,-529 803.5,-548"/>
<text text-anchor="middle" x="762.5" y="-536" font-family="Helvetica,sans-Serif" font-size="10.00">atan2_lookup</text>
</a>
</g>
</g>
<!-- Node44&#45;&gt;Node45 -->
<g id="edge48_Node000044_Node000045" class="edge">
<title>Node44&#45;&gt;Node45</title>
<g id="a_edge48_Node000044_Node000045"><a xlink:title=" ">
<path fill="none" stroke="#63b8ff" d="M612.12,-538.5C637.58,-538.5 678.45,-538.5 711,-538.5"/>
<polygon fill="#63b8ff" stroke="#63b8ff" points="711.25,-542 721.25,-538.5 711.25,-535 711.25,-542"/>
</a>
</g>
</g>
<!-- Node54&#45;&gt;Node15 -->
<g id="edge60_Node000054_Node000015" class="edge">
<title>Node54&#45;&gt;Node15</title>
<g id="a_edge60_Node000054_Node000015"><a xlink:title=" ">
<path fill="none" stroke="#63b8ff" d="M252.04,-95.08C278.69,-124.99 360.63,-216.97 395.28,-255.85"/>
<polygon fill="#63b8ff" stroke="#63b8ff" points="393.01,-258.57 402.28,-263.71 398.24,-253.92 393.01,-258.57"/>
</a>
</g>
</g>
<!-- Node54&#45;&gt;Node18 -->
<g id="edge61_Node000054_Node000018" class="edge">
<title>Node54&#45;&gt;Node18</title>
<g id="a_edge61_Node000054_Node000018"><a xlink:title=" ">
<path fill="none" stroke="#63b8ff" d="M300.65,-75.99C314.17,-74.12 328.56,-72.45 342,-71.5 559.68,-56.11 617.17,-39.26 833,-71.5 858.61,-75.33 886.54,-83.99 907.59,-91.48"/>
<polygon fill="#63b8ff" stroke="#63b8ff" points="906.43,-94.78 917.03,-94.92 908.83,-88.21 906.43,-94.78"/>
</a>
</g>
</g>
<!-- Node54&#45;&gt;Node31 -->
<g id="edge62_Node000054_Node000031" class="edge">
<title>Node54&#45;&gt;Node31</title>
<g id="a_edge62_Node000054_Node000031"><a xlink:title=" ">
<path fill="none" stroke="#63b8ff" d="M287.91,-95.05C363.67,-111.48 522.62,-146.63 656,-180.5 672.1,-184.59 675.98,-186.12 692,-190.5 754.6,-207.63 777.11,-195.5 833,-228.5 874.43,-252.97 910.49,-297.61 928.6,-322.5"/>
<polygon fill="#63b8ff" stroke="#63b8ff" points="925.79,-324.59 934.44,-330.71 931.49,-320.53 925.79,-324.59"/>
</a>
</g>
</g>
<!-- Node55 -->
<g id="Node000055" class="node">
<title>Node55</title>
<g id="a_Node000055"><a xlink:href="math__util_8c.html#a9092c945c52b3a3481228b2724991e3c" target="_top" xlink:title=" ">
<polygon fill="white" stroke="#666666" points="444.5,-19 379.5,-19 379.5,0 444.5,0 444.5,-19"/>
<text text-anchor="middle" x="412" y="-7" font-family="Helvetica,sans-Serif" font-size="10.00">vec3s_set</text>
</a>
</g>
</g>
<!-- Node54&#45;&gt;Node55 -->
<g id="edge63_Node000054_Node000055" class="edge">
<title>Node54&#45;&gt;Node55</title>
<g id="a_edge63_Node000054_Node000055"><a xlink:title=" ">
<path fill="none" stroke="#63b8ff" d="M259.85,-75.88C279.1,-64.8 312.21,-46.46 342,-33.5 351.15,-29.52 361.19,-25.72 370.72,-22.37"/>
<polygon fill="#63b8ff" stroke="#63b8ff" points="372.07,-25.6 380.39,-19.04 369.8,-18.98 372.07,-25.6"/>
</a>
</g>
</g>
</g>
</svg>
