<?xml version="1.0" encoding="UTF-8" standalone="no"?>
<!DOCTYPE svg PUBLIC "-//W3C//DTD SVG 1.1//EN"
 "http://www.w3.org/Graphics/SVG/1.1/DTD/svg11.dtd">
<!-- Generated by graphviz version 2.43.0 (0)
 -->
<!-- Title: AFallingRock::Tick Pages: 1 -->
<svg width="434pt" height="249pt"
 viewBox="0.00 0.00 434.00 249.00" xmlns="http://www.w3.org/2000/svg" xmlns:xlink="http://www.w3.org/1999/xlink">
<g id="graph0" class="graph" transform="scale(1 1) rotate(0) translate(4 245)">
<title>AFallingRock::Tick</title>
<!-- Node1 -->
<g id="Node000001" class="node">
<title>Node1</title>
<g id="a_Node000001"><a xlink:title="Updates the falling rock actor. Actor used in Choco Mountain.">
<polygon fill="#999999" stroke="#666666" points="105,-148 0,-148 0,-129 105,-129 105,-148"/>
<text text-anchor="middle" x="52.5" y="-136" font-family="Helvetica,sans-Serif" font-size="10.00">AFallingRock::Tick</text>
</a>
</g>
</g>
<!-- Node2 -->
<g id="Node000002" class="node">
<title>Node2</title>
<g id="a_Node000002"><a xlink:href="collision_8c.html#acf7d86058e2bab6c3926db52ca20d8c1" target="_top" xlink:title=" ">
<polygon fill="white" stroke="#666666" points="279.5,-222 143.5,-222 143.5,-203 279.5,-203 279.5,-222"/>
<text text-anchor="middle" x="211.5" y="-210" font-family="Helvetica,sans-Serif" font-size="10.00">adjust_pos_orthogonally</text>
</a>
</g>
</g>
<!-- Node1&#45;&gt;Node2 -->
<g id="edge1_Node000001_Node000002" class="edge">
<title>Node1&#45;&gt;Node2</title>
<g id="a_edge1_Node000001_Node000002"><a xlink:title=" ">
<path fill="none" stroke="#63b8ff" d="M65.83,-148.19C82.15,-160.59 112.24,-181.95 141,-194.5 145.48,-196.45 150.21,-198.23 155.02,-199.84"/>
<polygon fill="#63b8ff" stroke="#63b8ff" points="154.35,-203.29 164.94,-202.91 156.42,-196.61 154.35,-203.29"/>
</a>
</g>
</g>
<!-- Node3 -->
<g id="Node000003" class="node">
<title>Node3</title>
<g id="a_Node000003"><a xlink:href="collision_8c.html#a37aa55b3768d001533ad75e7f1b8388a" target="_top" xlink:title=" ">
<polygon fill="white" stroke="#666666" points="282,-185 141,-185 141,-166 282,-166 282,-185"/>
<text text-anchor="middle" x="211.5" y="-173" font-family="Helvetica,sans-Serif" font-size="10.00">check_bounding_collision</text>
</a>
</g>
</g>
<!-- Node1&#45;&gt;Node3 -->
<g id="edge2_Node000001_Node000003" class="edge">
<title>Node1&#45;&gt;Node3</title>
<g id="a_edge2_Node000001_Node000003"><a xlink:title=" ">
<path fill="none" stroke="#63b8ff" d="M93.93,-148.03C114.09,-152.78 138.67,-158.57 160.05,-163.61"/>
<polygon fill="#63b8ff" stroke="#63b8ff" points="159.4,-167.05 169.93,-165.94 161,-160.24 159.4,-167.05"/>
</a>
</g>
</g>
<!-- Node7 -->
<g id="Node000007" class="node">
<title>Node7</title>
<g id="a_Node000007"><a xlink:href="Game_8cpp.html#a7ff5610a2d67bb8a510d93cf238e6ffb" target="_top" xlink:title=" ">
<polygon fill="white" stroke="#666666" points="266.5,-148 156.5,-148 156.5,-129 266.5,-129 266.5,-148"/>
<text text-anchor="middle" x="211.5" y="-136" font-family="Helvetica,sans-Serif" font-size="10.00">CM_GetWaterLevel</text>
</a>
</g>
</g>
<!-- Node1&#45;&gt;Node7 -->
<g id="edge6_Node000001_Node000007" class="edge">
<title>Node1&#45;&gt;Node7</title>
<g id="a_edge6_Node000001_Node000007"><a xlink:title=" ">
<path fill="none" stroke="#63b8ff" d="M105.34,-138.5C118.37,-138.5 132.5,-138.5 146.06,-138.5"/>
<polygon fill="#63b8ff" stroke="#63b8ff" points="146.29,-142 156.29,-138.5 146.29,-135 146.29,-142"/>
</a>
</g>
</g>
<!-- Node8 -->
<g id="Node000008" class="node">
<title>Node8</title>
<g id="a_Node000008"><a xlink:href="external_8c.html#acb60983213d09ee795e80ca3c8b5975e" target="_top" xlink:title=" ">
<polygon fill="white" stroke="#666666" points="257.5,-111 165.5,-111 165.5,-92 257.5,-92 257.5,-111"/>
<text text-anchor="middle" x="211.5" y="-99" font-family="Helvetica,sans-Serif" font-size="10.00">func_800C98B8</text>
</a>
</g>
</g>
<!-- Node1&#45;&gt;Node8 -->
<g id="edge7_Node000001_Node000008" class="edge">
<title>Node1&#45;&gt;Node8</title>
<g id="a_edge7_Node000001_Node000008"><a xlink:title=" ">
<path fill="none" stroke="#63b8ff" d="M93.93,-128.97C114.09,-124.22 138.67,-118.43 160.05,-113.39"/>
<polygon fill="#63b8ff" stroke="#63b8ff" points="161,-116.76 169.93,-111.06 159.4,-109.95 161,-116.76"/>
</a>
</g>
</g>
<!-- Node11 -->
<g id="Node000011" class="node">
<title>Node11</title>
<g id="a_Node000011"><a xlink:href="classAFallingRock.html#a61b80c1c12dbf2506ecf5089ee5cb757" target="_top" xlink:title=" ">
<polygon fill="white" stroke="#666666" points="268,-56 155,-56 155,-37 268,-37 268,-56"/>
<text text-anchor="middle" x="211.5" y="-44" font-family="Helvetica,sans-Serif" font-size="10.00">AFallingRock::Reset</text>
</a>
</g>
</g>
<!-- Node1&#45;&gt;Node11 -->
<g id="edge10_Node000001_Node000011" class="edge">
<title>Node1&#45;&gt;Node11</title>
<g id="a_edge10_Node000001_Node000011"><a xlink:title=" ">
<path fill="none" stroke="#63b8ff" d="M68.16,-128.83C85.39,-117.58 114.92,-98.61 141,-83.5 154.48,-75.69 169.73,-67.5 182.5,-60.82"/>
<polygon fill="#63b8ff" stroke="#63b8ff" points="184.45,-63.75 191.72,-56.03 181.23,-57.54 184.45,-63.75"/>
</a>
</g>
</g>
<!-- Node4 -->
<g id="Node000004" class="node">
<title>Node4</title>
<g id="a_Node000004"><a xlink:href="collision_8c.html#ac312bf382cb40752f6b790a99e7cdcb6" target="_top" xlink:title=" ">
<polygon fill="white" stroke="#666666" points="426,-241 318,-241 318,-222 426,-222 426,-241"/>
<text text-anchor="middle" x="372" y="-229" font-family="Helvetica,sans-Serif" font-size="10.00">check_collision_yx</text>
</a>
</g>
</g>
<!-- Node3&#45;&gt;Node4 -->
<g id="edge3_Node000003_Node000004" class="edge">
<title>Node3&#45;&gt;Node4</title>
<g id="a_edge3_Node000003_Node000004"><a xlink:title=" ">
<path fill="none" stroke="#63b8ff" d="M253.41,-185.08C262.93,-187.75 272.93,-190.92 282,-194.5 298.83,-201.15 301.38,-206.35 318,-213.5 322.08,-215.25 326.39,-216.96 330.71,-218.57"/>
<polygon fill="#63b8ff" stroke="#63b8ff" points="329.54,-221.87 340.14,-221.94 331.9,-215.28 329.54,-221.87"/>
</a>
</g>
</g>
<!-- Node5 -->
<g id="Node000005" class="node">
<title>Node5</title>
<g id="a_Node000005"><a xlink:href="collision_8c.html#a4b48832a90e984536a0635a016ec4f28" target="_top" xlink:title=" ">
<polygon fill="white" stroke="#666666" points="425.5,-204 318.5,-204 318.5,-185 425.5,-185 425.5,-204"/>
<text text-anchor="middle" x="372" y="-192" font-family="Helvetica,sans-Serif" font-size="10.00">check_collision_zx</text>
</a>
</g>
</g>
<!-- Node3&#45;&gt;Node5 -->
<g id="edge4_Node000003_Node000005" class="edge">
<title>Node3&#45;&gt;Node5</title>
<g id="a_edge4_Node000003_Node000005"><a xlink:title=" ">
<path fill="none" stroke="#63b8ff" d="M282.02,-183.83C290.75,-184.88 299.64,-185.95 308.25,-186.98"/>
<polygon fill="#63b8ff" stroke="#63b8ff" points="307.87,-190.46 318.22,-188.17 308.7,-183.51 307.87,-190.46"/>
</a>
</g>
</g>
<!-- Node6 -->
<g id="Node000006" class="node">
<title>Node6</title>
<g id="a_Node000006"><a xlink:href="collision_8c.html#a21fef964ab48191a1c0341954ef27a40" target="_top" xlink:title=" ">
<polygon fill="white" stroke="#666666" points="425.5,-167 318.5,-167 318.5,-148 425.5,-148 425.5,-167"/>
<text text-anchor="middle" x="372" y="-155" font-family="Helvetica,sans-Serif" font-size="10.00">check_collision_zy</text>
</a>
</g>
</g>
<!-- Node3&#45;&gt;Node6 -->
<g id="edge5_Node000003_Node000006" class="edge">
<title>Node3&#45;&gt;Node6</title>
<g id="a_edge5_Node000003_Node000006"><a xlink:title=" ">
<path fill="none" stroke="#63b8ff" d="M282.02,-167.6C290.75,-166.61 299.64,-165.6 308.25,-164.63"/>
<polygon fill="#63b8ff" stroke="#63b8ff" points="308.68,-168.1 318.22,-163.49 307.89,-161.15 308.68,-168.1"/>
</a>
</g>
</g>
<!-- Node9 -->
<g id="Node000009" class="node">
<title>Node9</title>
<g id="a_Node000009"><a xlink:href="external_8c.html#a747de0be4005b4b29150d5c068564b7d" target="_top" xlink:title=" ">
<polygon fill="white" stroke="#666666" points="418,-130 326,-130 326,-111 418,-111 418,-130"/>
<text text-anchor="middle" x="372" y="-118" font-family="Helvetica,sans-Serif" font-size="10.00">func_800C1C88</text>
</a>
</g>
</g>
<!-- Node8&#45;&gt;Node9 -->
<g id="edge8_Node000008_Node000009" class="edge">
<title>Node8&#45;&gt;Node9</title>
<g id="a_edge8_Node000008_Node000009"><a xlink:title=" ">
<path fill="none" stroke="#63b8ff" d="M257.92,-106.94C275.99,-109.11 296.94,-111.62 315.87,-113.89"/>
<polygon fill="#63b8ff" stroke="#63b8ff" points="315.5,-117.37 325.85,-115.09 316.34,-110.42 315.5,-117.37"/>
</a>
</g>
</g>
<!-- Node10 -->
<g id="Node000010" class="node">
<title>Node10</title>
<g id="a_Node000010"><a xlink:href="external_8c.html#a475cff796211891556f52877cd8e9b9e" target="_top" xlink:title=" ">
<polygon fill="white" stroke="#666666" points="408,-93 336,-93 336,-74 408,-74 408,-93"/>
<text text-anchor="middle" x="372" y="-81" font-family="Helvetica,sans-Serif" font-size="10.00">play_sound</text>
</a>
</g>
</g>
<!-- Node8&#45;&gt;Node10 -->
<g id="edge9_Node000008_Node000010" class="edge">
<title>Node8&#45;&gt;Node10</title>
<g id="a_edge9_Node000008_Node000010"><a xlink:title=" ">
<path fill="none" stroke="#63b8ff" d="M257.92,-96.34C279.22,-93.92 304.54,-91.05 325.82,-88.63"/>
<polygon fill="#63b8ff" stroke="#63b8ff" points="326.36,-92.09 335.9,-87.49 325.57,-85.14 326.36,-92.09"/>
</a>
</g>
</g>
<!-- Node12 -->
<g id="Node000012" class="node">
<title>Node12</title>
<g id="a_Node000012"><a xlink:href="math__util_8c.html#a79fd07a0971ec96a3ff0801963a2fa7f" target="_top" xlink:title=" ">
<polygon fill="white" stroke="#666666" points="404,-56 340,-56 340,-37 404,-37 404,-56"/>
<text text-anchor="middle" x="372" y="-44" font-family="Helvetica,sans-Serif" font-size="10.00">vec3f_set</text>
</a>
</g>
</g>
<!-- Node11&#45;&gt;Node12 -->
<g id="edge11_Node000011_Node000012" class="edge">
<title>Node11&#45;&gt;Node12</title>
<g id="a_edge11_Node000011_Node000012"><a xlink:title=" ">
<path fill="none" stroke="#63b8ff" d="M268.38,-46.5C288.44,-46.5 310.7,-46.5 329.34,-46.5"/>
<polygon fill="#63b8ff" stroke="#63b8ff" points="329.57,-50 339.57,-46.5 329.57,-43 329.57,-50"/>
</a>
</g>
</g>
<!-- Node13 -->
<g id="Node000013" class="node">
<title>Node13</title>
<g id="a_Node000013"><a xlink:href="math__util_8c.html#a9092c945c52b3a3481228b2724991e3c" target="_top" xlink:title=" ">
<polygon fill="white" stroke="#666666" points="404.5,-19 339.5,-19 339.5,0 404.5,0 404.5,-19"/>
<text text-anchor="middle" x="372" y="-7" font-family="Helvetica,sans-Serif" font-size="10.00">vec3s_set</text>
</a>
</g>
</g>
<!-- Node11&#45;&gt;Node13 -->
<g id="edge12_Node000011_Node000013" class="edge">
<title>Node11&#45;&gt;Node13</title>
<g id="a_edge12_Node000011_Node000013"><a xlink:title=" ">
<path fill="none" stroke="#63b8ff" d="M253.32,-36.97C276.65,-31.53 305.84,-24.71 329.32,-19.23"/>
<polygon fill="#63b8ff" stroke="#63b8ff" points="330.38,-22.58 339.32,-16.89 328.79,-15.76 330.38,-22.58"/>
</a>
</g>
</g>
</g>
</svg>
