<?xml version="1.0" encoding="UTF-8" standalone="no"?>
<!DOCTYPE svg PUBLIC "-//W3C//DTD SVG 1.1//EN"
 "http://www.w3.org/Graphics/SVG/1.1/DTD/svg11.dtd">
<!-- Generated by graphviz version 2.43.0 (0)
 -->
<!-- Title: ABus::ABus Pages: 1 -->
<svg width="1565pt" height="415pt"
 viewBox="0.00 0.00 1565.00 415.00" xmlns="http://www.w3.org/2000/svg" xmlns:xlink="http://www.w3.org/1999/xlink">
<g id="graph0" class="graph" transform="scale(1 1) rotate(0) translate(4 411)">
<title>ABus::ABus</title>
<!-- Node1 -->
<g id="Node000001" class="node">
<title>Node1</title>
<g id="a_Node000001"><a xlink:title=" ">
<polygon fill="#999999" stroke="#666666" points="72,-132 0,-132 0,-113 72,-113 72,-132"/>
<text text-anchor="middle" x="36" y="-120" font-family="Helvetica,sans-Serif" font-size="10.00">ABus::ABus</text>
</a>
</g>
</g>
<!-- Node2 -->
<g id="Node000002" class="node">
<title>Node2</title>
<g id="a_Node000002"><a xlink:href="classAActor.html#a679c43bacf3600fa2d7a6ab30e34a8a6" target="_top" xlink:title=" ">
<polygon fill="white" stroke="#666666" points="236,-276 149,-276 149,-257 236,-257 236,-276"/>
<text text-anchor="middle" x="192.5" y="-264" font-family="Helvetica,sans-Serif" font-size="10.00">AActor::AActor</text>
</a>
</g>
</g>
<!-- Node1&#45;&gt;Node2 -->
<g id="edge1_Node000001_Node000002" class="edge">
<title>Node1&#45;&gt;Node2</title>
<g id="a_edge1_Node000001_Node000002"><a xlink:title=" ">
<path fill="none" stroke="#63b8ff" d="M39.49,-132.22C46.16,-156.15 66.76,-218.12 108,-248.5 116.96,-255.1 127.84,-259.38 138.74,-262.13"/>
<polygon fill="#63b8ff" stroke="#63b8ff" points="138.2,-265.59 148.71,-264.24 139.66,-258.74 138.2,-265.59"/>
</a>
</g>
</g>
<!-- Node3 -->
<g id="Node000003" class="node">
<title>Node3</title>
<g id="a_Node000003"><a xlink:href="actors_8c.html#a91fb2e4e37e7c72fea918fe2c1bb4eaf" target="_top" xlink:title=" ">
<polygon fill="white" stroke="#666666" points="262.5,-239 122.5,-239 122.5,-220 262.5,-220 262.5,-239"/>
<text text-anchor="middle" x="192.5" y="-227" font-family="Helvetica,sans-Serif" font-size="10.00">add_actor_to_empty_slot</text>
</a>
</g>
</g>
<!-- Node1&#45;&gt;Node3 -->
<g id="edge2_Node000001_Node000003" class="edge">
<title>Node1&#45;&gt;Node3</title>
<g id="a_edge2_Node000001_Node000003"><a xlink:title=" ">
<path fill="none" stroke="#63b8ff" d="M49.69,-132.09C63.79,-142.67 87.3,-160.11 108,-174.5 127.97,-188.37 151.08,-203.53 167.92,-214.41"/>
<polygon fill="#63b8ff" stroke="#63b8ff" points="166.27,-217.51 176.57,-219.98 170.06,-211.63 166.27,-217.51"/>
</a>
</g>
</g>
<!-- Node29 -->
<g id="Node000029" class="node">
<title>Node29</title>
<g id="a_Node000029"><a xlink:href="code__80005FD0_8c.html#a45fa364fbae557a3d2025ebdc0846cd2" target="_top" xlink:title=" ">
<polygon fill="white" stroke="#666666" points="416,-67 322,-67 322,-48 416,-48 416,-67"/>
<text text-anchor="middle" x="369" y="-55" font-family="Helvetica,sans-Serif" font-size="10.00">func_8000D6D0</text>
</a>
</g>
</g>
<!-- Node1&#45;&gt;Node29 -->
<g id="edge28_Node000001_Node000029" class="edge">
<title>Node1&#45;&gt;Node29</title>
<g id="a_edge28_Node000001_Node000029"><a xlink:title=" ">
<path fill="none" stroke="#63b8ff" d="M45.45,-112.75C57.69,-99.43 81.76,-76.11 108,-66.5 174.73,-42.05 257.66,-44.26 311.67,-49.59"/>
<polygon fill="#63b8ff" stroke="#63b8ff" points="311.42,-53.08 321.73,-50.65 312.16,-46.12 311.42,-53.08"/>
</a>
</g>
</g>
<!-- Node43 -->
<g id="Node000043" class="node">
<title>Node43</title>
<g id="a_Node000043"><a xlink:href="code__80005FD0_8c.html#a124bae511133f507498b19842362feeb" target="_top" xlink:title=" ">
<polygon fill="white" stroke="#666666" points="415,-122 323,-122 323,-103 415,-103 415,-122"/>
<text text-anchor="middle" x="369" y="-110" font-family="Helvetica,sans-Serif" font-size="10.00">func_8000D940</text>
</a>
</g>
</g>
<!-- Node1&#45;&gt;Node43 -->
<g id="edge43_Node000001_Node000043" class="edge">
<title>Node1&#45;&gt;Node43</title>
<g id="a_edge43_Node000001_Node000043"><a xlink:title=" ">
<path fill="none" stroke="#63b8ff" d="M67.79,-132.08C80.15,-135.46 94.62,-138.83 108,-140.5 182.53,-149.8 202.72,-151.67 277,-140.5 296.4,-137.58 317.38,-131.35 334.29,-125.5"/>
<polygon fill="#63b8ff" stroke="#63b8ff" points="335.5,-128.79 343.74,-122.14 333.15,-122.2 335.5,-128.79"/>
</a>
</g>
</g>
<!-- Node44 -->
<g id="Node000044" class="node">
<title>Node44</title>
<g id="a_Node000044"><a xlink:href="Utils_8cpp.html#aeaf9fffe1458c3ce2a95a80906db76c3" target="_top" xlink:title=" ">
<polygon fill="white" stroke="#666666" points="277,-95 108,-95 108,-76 277,-76 277,-95"/>
<text text-anchor="middle" x="192.5" y="-83" font-family="Helvetica,sans-Serif" font-size="10.00">GetVehiclePathPointDistributed</text>
</a>
</g>
</g>
<!-- Node1&#45;&gt;Node44 -->
<g id="edge48_Node000001_Node000044" class="edge">
<title>Node1&#45;&gt;Node44</title>
<g id="a_edge48_Node000001_Node000044"><a xlink:title=" ">
<path fill="none" stroke="#63b8ff" d="M71.22,-112.98C82.86,-109.84 95.97,-106.4 108,-103.5 116.79,-101.38 126.12,-99.25 135.25,-97.23"/>
<polygon fill="#63b8ff" stroke="#63b8ff" points="136.01,-100.65 145.03,-95.09 134.52,-93.81 136.01,-100.65"/>
</a>
</g>
</g>
<!-- Node45 -->
<g id="Node000045" class="node">
<title>Node45</title>
<g id="a_Node000045"><a xlink:href="math__util_8c.html#a151b63b8adf9af7e4054b3b84bd226dc" target="_top" xlink:title=" ">
<polygon fill="white" stroke="#666666" points="228.5,-19 156.5,-19 156.5,0 228.5,0 228.5,-19"/>
<text text-anchor="middle" x="192.5" y="-7" font-family="Helvetica,sans-Serif" font-size="10.00">random_int</text>
</a>
</g>
</g>
<!-- Node1&#45;&gt;Node45 -->
<g id="edge49_Node000001_Node000045" class="edge">
<title>Node1&#45;&gt;Node45</title>
<g id="a_edge49_Node000001_Node000045"><a xlink:title=" ">
<path fill="none" stroke="#63b8ff" d="M42.02,-112.83C52.03,-94.51 76.27,-54.68 108,-33.5 119.4,-25.89 133.22,-20.66 146.31,-17.08"/>
<polygon fill="#63b8ff" stroke="#63b8ff" points="147.26,-20.45 156.13,-14.65 145.58,-13.65 147.26,-20.45"/>
</a>
</g>
</g>
<!-- Node47 -->
<g id="Node000047" class="node">
<title>Node47</title>
<g id="a_Node000047"><a xlink:href="code__80005FD0_8c.html#ac8070bcd41974c70ea8b6d4218b1ebef" target="_top" xlink:title=" ">
<polygon fill="white" stroke="#666666" points="259,-132 126,-132 126,-113 259,-113 259,-132"/>
<text text-anchor="middle" x="192.5" y="-120" font-family="Helvetica,sans-Serif" font-size="10.00">spawn_vehicle_on_road</text>
</a>
</g>
</g>
<!-- Node1&#45;&gt;Node47 -->
<g id="edge51_Node000001_Node000047" class="edge">
<title>Node1&#45;&gt;Node47</title>
<g id="a_edge51_Node000001_Node000047"><a xlink:title=" ">
<path fill="none" stroke="#63b8ff" d="M72.06,-122.5C85.13,-122.5 100.53,-122.5 115.84,-122.5"/>
<polygon fill="#63b8ff" stroke="#63b8ff" points="115.87,-126 125.87,-122.5 115.87,-119 115.87,-126"/>
</a>
</g>
</g>
<!-- Node4 -->
<g id="Node000004" class="node">
<title>Node4</title>
<g id="a_Node000004"><a xlink:href="actors_8c.html#a39c023177b5a7686cdd1fc65b8b953e1" target="_top" xlink:title=" ">
<polygon fill="white" stroke="#666666" points="400,-220 338,-220 338,-201 400,-201 400,-220"/>
<text text-anchor="middle" x="369" y="-208" font-family="Helvetica,sans-Serif" font-size="10.00">actor_init</text>
</a>
</g>
</g>
<!-- Node3&#45;&gt;Node4 -->
<g id="edge3_Node000003_Node000004" class="edge">
<title>Node3&#45;&gt;Node4</title>
<g id="a_edge3_Node000003_Node000004"><a xlink:title=" ">
<path fill="none" stroke="#63b8ff" d="M262.72,-221.96C284.82,-219.56 308.53,-216.97 327.85,-214.87"/>
<polygon fill="#63b8ff" stroke="#63b8ff" points="328.24,-218.35 337.8,-213.79 327.48,-211.39 328.24,-218.35"/>
</a>
</g>
</g>
<!-- Node26 -->
<g id="Node000026" class="node">
<title>Node26</title>
<g id="a_Node000026"><a xlink:href="Game_8cpp.html#acea5cfd9ab22f745bd6627869b95a62e" target="_top" xlink:title=" ">
<polygon fill="white" stroke="#666666" points="425,-331 313,-331 313,-312 425,-312 425,-331"/>
<text text-anchor="middle" x="369" y="-319" font-family="Helvetica,sans-Serif" font-size="10.00">CM_ActorBeginPlay</text>
</a>
</g>
</g>
<!-- Node3&#45;&gt;Node26 -->
<g id="edge25_Node000003_Node000026" class="edge">
<title>Node3&#45;&gt;Node26</title>
<g id="a_edge25_Node000003_Node000026"><a xlink:title=" ">
<path fill="none" stroke="#63b8ff" d="M258.97,-239.16C265.36,-241.62 271.51,-244.68 277,-248.5 300.99,-265.18 289.81,-285.73 313,-303.5 314.81,-304.89 316.74,-306.18 318.74,-307.36"/>
<polygon fill="#63b8ff" stroke="#63b8ff" points="317.41,-310.61 327.92,-311.97 320.56,-304.36 317.41,-310.61"/>
</a>
</g>
</g>
<!-- Node27 -->
<g id="Node000027" class="node">
<title>Node27</title>
<g id="a_Node000027"><a xlink:href="Game_8cpp.html#a42f23077aaa52cb3ea5c7803b7dd6816" target="_top" xlink:title=" ">
<polygon fill="white" stroke="#666666" points="422,-294 316,-294 316,-275 422,-275 422,-294"/>
<text text-anchor="middle" x="369" y="-282" font-family="Helvetica,sans-Serif" font-size="10.00">CM_AddBaseActor</text>
</a>
</g>
</g>
<!-- Node3&#45;&gt;Node27 -->
<g id="edge26_Node000003_Node000027" class="edge">
<title>Node3&#45;&gt;Node27</title>
<g id="a_edge26_Node000003_Node000027"><a xlink:title=" ">
<path fill="none" stroke="#63b8ff" d="M244.4,-239.03C255.29,-241.64 266.64,-244.79 277,-248.5 293.84,-254.53 296.45,-259.7 313,-266.5 317.24,-268.24 321.72,-269.94 326.22,-271.55"/>
<polygon fill="#63b8ff" stroke="#63b8ff" points="325.41,-274.97 336.01,-274.91 327.69,-268.35 325.41,-274.97"/>
</a>
</g>
</g>
<!-- Node28 -->
<g id="Node000028" class="node">
<title>Node28</title>
<g id="a_Node000028"><a xlink:href="Game_8cpp.html#a0841ffe9a66e95aca42438b9d8ffc3d3" target="_top" xlink:title=" ">
<polygon fill="white" stroke="#666666" points="419.5,-257 318.5,-257 318.5,-238 419.5,-238 419.5,-257"/>
<text text-anchor="middle" x="369" y="-245" font-family="Helvetica,sans-Serif" font-size="10.00">CM_GetActorSize</text>
</a>
</g>
</g>
<!-- Node3&#45;&gt;Node28 -->
<g id="edge27_Node000003_Node000028" class="edge">
<title>Node3&#45;&gt;Node28</title>
<g id="a_edge27_Node000003_Node000028"><a xlink:title=" ">
<path fill="none" stroke="#63b8ff" d="M262.72,-236.64C277.79,-238.2 293.62,-239.83 308.29,-241.34"/>
<polygon fill="#63b8ff" stroke="#63b8ff" points="307.93,-244.82 318.24,-242.37 308.65,-237.86 307.93,-244.82"/>
</a>
</g>
</g>
<!-- Node5 -->
<g id="Node000005" class="node">
<title>Node5</title>
<g id="a_Node000005"><a xlink:href="collision_8c.html#a37aa55b3768d001533ad75e7f1b8388a" target="_top" xlink:title=" ">
<polygon fill="white" stroke="#666666" points="967.5,-174 826.5,-174 826.5,-155 967.5,-155 967.5,-174"/>
<text text-anchor="middle" x="897" y="-162" font-family="Helvetica,sans-Serif" font-size="10.00">check_bounding_collision</text>
</a>
</g>
</g>
<!-- Node4&#45;&gt;Node5 -->
<g id="edge4_Node000004_Node000005" class="edge">
<title>Node4&#45;&gt;Node5</title>
<g id="a_edge4_Node000004_Node000005"><a xlink:title=" ">
<path fill="none" stroke="#63b8ff" d="M400.14,-203.07C417.78,-199.01 440.53,-194.26 461,-191.5 584.35,-174.88 728.77,-168.47 816.27,-166.01"/>
<polygon fill="#63b8ff" stroke="#63b8ff" points="816.49,-169.51 826.39,-165.74 816.3,-162.51 816.49,-169.51"/>
</a>
</g>
</g>
<!-- Node9 -->
<g id="Node000009" class="node">
<title>Node9</title>
<g id="a_Node000009"><a xlink:href="actors_8c.html#a1a9bccb586242555a9123ebd4ab70f2a" target="_top" xlink:title=" ">
<polygon fill="white" stroke="#666666" points="596.5,-360.5 464.5,-360.5 464.5,-330.5 596.5,-330.5 596.5,-360.5"/>
<text text-anchor="start" x="472.5" y="-348.5" font-family="Helvetica,sans-Serif" font-size="10.00">cleanup_red_and_green</text>
<text text-anchor="middle" x="530.5" y="-337.5" font-family="Helvetica,sans-Serif" font-size="10.00">_shells</text>
</a>
</g>
</g>
<!-- Node4&#45;&gt;Node9 -->
<g id="edge8_Node000004_Node000009" class="edge">
<title>Node4&#45;&gt;Node9</title>
<g id="a_edge8_Node000004_Node000009"><a xlink:title=" ">
<path fill="none" stroke="#63b8ff" d="M400.24,-215.69C408.99,-218.37 418.05,-222.41 425,-228.5 452.8,-252.87 436.23,-276.05 461,-303.5 468.58,-311.9 478.24,-319.2 487.9,-325.25"/>
<polygon fill="#63b8ff" stroke="#63b8ff" points="486.32,-328.38 496.71,-330.45 489.88,-322.35 486.32,-328.38"/>
</a>
</g>
</g>
<!-- Node22 -->
<g id="Node000022" class="node">
<title>Node22</title>
<g id="a_Node000022"><a xlink:href="collision_8c.html#ad72fef3ffe32191d73b1822f512ebf3f" target="_top" xlink:title=" ">
<polygon fill="white" stroke="#666666" points="578,-294 483,-294 483,-275 578,-275 578,-294"/>
<text text-anchor="middle" x="530.5" y="-282" font-family="Helvetica,sans-Serif" font-size="10.00">func_802AAAAC</text>
</a>
</g>
</g>
<!-- Node4&#45;&gt;Node22 -->
<g id="edge21_Node000004_Node000022" class="edge">
<title>Node4&#45;&gt;Node22</title>
<g id="a_edge21_Node000004_Node000022"><a xlink:title=" ">
<path fill="none" stroke="#63b8ff" d="M400.03,-217.38C408.5,-220.08 417.44,-223.72 425,-228.5 444.66,-240.94 440.98,-254.65 461,-266.5 464.85,-268.78 469,-270.78 473.27,-272.53"/>
<polygon fill="#63b8ff" stroke="#63b8ff" points="472.17,-275.85 482.77,-275.96 474.56,-269.27 472.17,-275.85"/>
</a>
</g>
</g>
<!-- Node24 -->
<g id="Node000024" class="node">
<title>Node24</title>
<g id="a_Node000024"><a xlink:href="math__util_8c.html#af7b470ed76fce07b8042a47c96e5690b" target="_top" xlink:title=" ">
<polygon fill="white" stroke="#666666" points="584,-257 477,-257 477,-238 584,-238 584,-257"/>
<text text-anchor="middle" x="530.5" y="-245" font-family="Helvetica,sans-Serif" font-size="10.00">vec3f_copy_return</text>
</a>
</g>
</g>
<!-- Node4&#45;&gt;Node24 -->
<g id="edge23_Node000004_Node000024" class="edge">
<title>Node4&#45;&gt;Node24</title>
<g id="a_edge23_Node000004_Node000024"><a xlink:title=" ">
<path fill="none" stroke="#63b8ff" d="M400,-217.46C422.07,-222.58 452.6,-229.66 478.47,-235.66"/>
<polygon fill="#63b8ff" stroke="#63b8ff" points="477.97,-239.14 488.5,-237.99 479.55,-232.32 477.97,-239.14"/>
</a>
</g>
</g>
<!-- Node25 -->
<g id="Node000025" class="node">
<title>Node25</title>
<g id="a_Node000025"><a xlink:href="math__util_8c.html#a0e270ee67600c8c9c2f140c647d008a1" target="_top" xlink:title=" ">
<polygon fill="white" stroke="#666666" points="567.5,-220 493.5,-220 493.5,-201 567.5,-201 567.5,-220"/>
<text text-anchor="middle" x="530.5" y="-208" font-family="Helvetica,sans-Serif" font-size="10.00">vec3s_copy</text>
</a>
</g>
</g>
<!-- Node4&#45;&gt;Node25 -->
<g id="edge24_Node000004_Node000025" class="edge">
<title>Node4&#45;&gt;Node25</title>
<g id="a_edge24_Node000004_Node000025"><a xlink:title=" ">
<path fill="none" stroke="#63b8ff" d="M400,-210.5C423.42,-210.5 456.38,-210.5 483.18,-210.5"/>
<polygon fill="#63b8ff" stroke="#63b8ff" points="483.49,-214 493.49,-210.5 483.49,-207 483.49,-214"/>
</a>
</g>
</g>
<!-- Node6 -->
<g id="Node000006" class="node">
<title>Node6</title>
<g id="a_Node000006"><a xlink:href="collision_8c.html#ac312bf382cb40752f6b790a99e7cdcb6" target="_top" xlink:title=" ">
<polygon fill="white" stroke="#666666" points="1122,-137 1014,-137 1014,-118 1122,-118 1122,-137"/>
<text text-anchor="middle" x="1068" y="-125" font-family="Helvetica,sans-Serif" font-size="10.00">check_collision_yx</text>
</a>
</g>
</g>
<!-- Node5&#45;&gt;Node6 -->
<g id="edge5_Node000005_Node000006" class="edge">
<title>Node5&#45;&gt;Node6</title>
<g id="a_edge5_Node000005_Node000006"><a xlink:title=" ">
<path fill="none" stroke="#63b8ff" d="M941.52,-154.97C963.42,-150.18 990.15,-144.32 1013.31,-139.25"/>
<polygon fill="#63b8ff" stroke="#63b8ff" points="1014.31,-142.62 1023.33,-137.06 1012.82,-135.78 1014.31,-142.62"/>
</a>
</g>
</g>
<!-- Node7 -->
<g id="Node000007" class="node">
<title>Node7</title>
<g id="a_Node000007"><a xlink:href="collision_8c.html#a4b48832a90e984536a0635a016ec4f28" target="_top" xlink:title=" ">
<polygon fill="white" stroke="#666666" points="1121.5,-211 1014.5,-211 1014.5,-192 1121.5,-192 1121.5,-211"/>
<text text-anchor="middle" x="1068" y="-199" font-family="Helvetica,sans-Serif" font-size="10.00">check_collision_zx</text>
</a>
</g>
</g>
<!-- Node5&#45;&gt;Node7 -->
<g id="edge6_Node000005_Node000007" class="edge">
<title>Node5&#45;&gt;Node7</title>
<g id="a_edge6_Node000005_Node000007"><a xlink:title=" ">
<path fill="none" stroke="#63b8ff" d="M941.52,-174.03C963.42,-178.82 990.15,-184.68 1013.31,-189.75"/>
<polygon fill="#63b8ff" stroke="#63b8ff" points="1012.82,-193.22 1023.33,-191.94 1014.31,-186.38 1012.82,-193.22"/>
</a>
</g>
</g>
<!-- Node8 -->
<g id="Node000008" class="node">
<title>Node8</title>
<g id="a_Node000008"><a xlink:href="collision_8c.html#a21fef964ab48191a1c0341954ef27a40" target="_top" xlink:title=" ">
<polygon fill="white" stroke="#666666" points="1121.5,-174 1014.5,-174 1014.5,-155 1121.5,-155 1121.5,-174"/>
<text text-anchor="middle" x="1068" y="-162" font-family="Helvetica,sans-Serif" font-size="10.00">check_collision_zy</text>
</a>
</g>
</g>
<!-- Node5&#45;&gt;Node8 -->
<g id="edge7_Node000005_Node000008" class="edge">
<title>Node5&#45;&gt;Node8</title>
<g id="a_edge7_Node000005_Node000008"><a xlink:title=" ">
<path fill="none" stroke="#63b8ff" d="M967.71,-164.5C979.81,-164.5 992.32,-164.5 1004.22,-164.5"/>
<polygon fill="#63b8ff" stroke="#63b8ff" points="1004.49,-168 1014.49,-164.5 1004.49,-161 1004.49,-168"/>
</a>
</g>
</g>
<!-- Node10 -->
<g id="Node000010" class="node">
<title>Node10</title>
<g id="a_Node000010"><a xlink:href="Game_8cpp.html#a693de7d8b89fe291aafea86bc64a0a2e" target="_top" xlink:title=" ">
<polygon fill="white" stroke="#666666" points="749,-407 669,-407 669,-388 749,-388 749,-407"/>
<text text-anchor="middle" x="709" y="-395" font-family="Helvetica,sans-Serif" font-size="10.00">CM_GetActor</text>
</a>
</g>
</g>
<!-- Node9&#45;&gt;Node10 -->
<g id="edge9_Node000009_Node000010" class="edge">
<title>Node9&#45;&gt;Node10</title>
<g id="a_edge9_Node000009_Node000010"><a xlink:title=" ">
<path fill="none" stroke="#63b8ff" d="M577.4,-360.52C595.58,-366.33 616.72,-372.92 636,-378.5 643.95,-380.8 652.42,-383.14 660.65,-385.35"/>
<polygon fill="#63b8ff" stroke="#63b8ff" points="659.97,-388.79 670.54,-387.98 661.77,-382.03 659.97,-388.79"/>
</a>
</g>
</g>
<!-- Node11 -->
<g id="Node000011" class="node">
<title>Node11</title>
<g id="a_Node000011"><a xlink:href="code__80005FD0_8c.html#ad301b978cdd3c4cc190b10be050d51d8" target="_top" xlink:title=" ">
<polygon fill="white" stroke="#666666" points="782,-369.5 636,-369.5 636,-339.5 782,-339.5 782,-369.5"/>
<text text-anchor="start" x="644" y="-357.5" font-family="Helvetica,sans-Serif" font-size="10.00">delete_actor_in_unexpired</text>
<text text-anchor="middle" x="709" y="-346.5" font-family="Helvetica,sans-Serif" font-size="10.00">_actor_list</text>
</a>
</g>
</g>
<!-- Node9&#45;&gt;Node11 -->
<g id="edge10_Node000009_Node000011" class="edge">
<title>Node9&#45;&gt;Node11</title>
<g id="a_edge10_Node000009_Node000011"><a xlink:title=" ">
<path fill="none" stroke="#63b8ff" d="M596.72,-348.83C606.2,-349.31 616.05,-349.81 625.81,-350.31"/>
<polygon fill="#63b8ff" stroke="#63b8ff" points="625.75,-353.81 635.92,-350.82 626.11,-346.82 625.75,-353.81"/>
</a>
</g>
</g>
<!-- Node12 -->
<g id="Node000012" class="node">
<title>Node12</title>
<g id="a_Node000012"><a xlink:href="actors_8c.html#a694ec6ef7548b8618aeb35c038d3a9b9" target="_top" xlink:title=" ">
<polygon fill="white" stroke="#666666" points="750.5,-321 667.5,-321 667.5,-302 750.5,-302 750.5,-321"/>
<text text-anchor="middle" x="709" y="-309" font-family="Helvetica,sans-Serif" font-size="10.00">destroy_actor</text>
</a>
</g>
</g>
<!-- Node9&#45;&gt;Node12 -->
<g id="edge11_Node000009_Node000012" class="edge">
<title>Node9&#45;&gt;Node12</title>
<g id="a_edge11_Node000009_Node000012"><a xlink:title=" ">
<path fill="none" stroke="#63b8ff" d="M596.72,-332.94C616.78,-329.07 638.55,-324.88 657.47,-321.23"/>
<polygon fill="#63b8ff" stroke="#63b8ff" points="658.21,-324.66 667.37,-319.33 656.88,-317.78 658.21,-324.66"/>
</a>
</g>
</g>
<!-- Node13 -->
<g id="Node000013" class="node">
<title>Node13</title>
<g id="a_Node000013"><a xlink:href="actors_8c.html#a12dc3ccac4c7d8569eadac0af4fd6f9f" target="_top" xlink:title=" ">
<polygon fill="white" stroke="#666666" points="976,-321 818,-321 818,-302 976,-302 976,-321"/>
<text text-anchor="middle" x="897" y="-309" font-family="Helvetica,sans-Serif" font-size="10.00">play_sound_before_despawn</text>
</a>
</g>
</g>
<!-- Node12&#45;&gt;Node13 -->
<g id="edge12_Node000012_Node000013" class="edge">
<title>Node12&#45;&gt;Node13</title>
<g id="a_edge12_Node000012_Node000013"><a xlink:title=" ">
<path fill="none" stroke="#63b8ff" d="M750.82,-311.5C767.65,-311.5 787.86,-311.5 807.77,-311.5"/>
<polygon fill="#63b8ff" stroke="#63b8ff" points="807.82,-315 817.82,-311.5 807.82,-308 807.82,-315"/>
</a>
</g>
</g>
<!-- Node14 -->
<g id="Node000014" class="node">
<title>Node14</title>
<g id="a_Node000014"><a xlink:href="external_8c.html#ae72057869772019e4464c87d4e16c682" target="_top" xlink:title=" ">
<polygon fill="white" stroke="#666666" points="1114,-321 1022,-321 1022,-302 1114,-302 1114,-321"/>
<text text-anchor="middle" x="1068" y="-309" font-family="Helvetica,sans-Serif" font-size="10.00">func_800C99E0</text>
</a>
</g>
</g>
<!-- Node13&#45;&gt;Node14 -->
<g id="edge13_Node000013_Node000014" class="edge">
<title>Node13&#45;&gt;Node14</title>
<g id="a_edge13_Node000013_Node000014"><a xlink:title=" ">
<path fill="none" stroke="#63b8ff" d="M976.07,-311.5C988.12,-311.5 1000.35,-311.5 1011.76,-311.5"/>
<polygon fill="#63b8ff" stroke="#63b8ff" points="1011.99,-315 1021.99,-311.5 1011.99,-308 1011.99,-315"/>
</a>
</g>
</g>
<!-- Node15 -->
<g id="Node000015" class="node">
<title>Node15</title>
<g id="a_Node000015"><a xlink:href="external_8c.html#aeb87c527482a244173df36a1f3d4f446" target="_top" xlink:title=" ">
<polygon fill="white" stroke="#666666" points="1252,-340 1160,-340 1160,-321 1252,-321 1252,-340"/>
<text text-anchor="middle" x="1206" y="-328" font-family="Helvetica,sans-Serif" font-size="10.00">func_800C21E8</text>
</a>
</g>
</g>
<!-- Node14&#45;&gt;Node15 -->
<g id="edge14_Node000014_Node000015" class="edge">
<title>Node14&#45;&gt;Node15</title>
<g id="a_edge14_Node000014_Node000015"><a xlink:title=" ">
<path fill="none" stroke="#63b8ff" d="M1114.29,-317.83C1125.64,-319.41 1137.95,-321.13 1149.73,-322.78"/>
<polygon fill="#63b8ff" stroke="#63b8ff" points="1149.52,-326.28 1159.91,-324.2 1150.49,-319.35 1149.52,-326.28"/>
</a>
</g>
</g>
<!-- Node16 -->
<g id="Node000016" class="node">
<title>Node16</title>
<g id="a_Node000016"><a xlink:href="external_8c.html#a028d40421b90c38f68ebfd5acc626f2e" target="_top" xlink:title=" ">
<polygon fill="white" stroke="#666666" points="1252,-303 1160,-303 1160,-284 1252,-284 1252,-303"/>
<text text-anchor="middle" x="1206" y="-291" font-family="Helvetica,sans-Serif" font-size="10.00">func_800C5578</text>
</a>
</g>
</g>
<!-- Node14&#45;&gt;Node16 -->
<g id="edge15_Node000014_Node000016" class="edge">
<title>Node14&#45;&gt;Node16</title>
<g id="a_edge15_Node000014_Node000016"><a xlink:title=" ">
<path fill="none" stroke="#63b8ff" d="M1114.29,-305.51C1125.64,-304 1137.95,-302.37 1149.73,-300.81"/>
<polygon fill="#63b8ff" stroke="#63b8ff" points="1150.46,-304.25 1159.91,-299.47 1149.54,-297.31 1150.46,-304.25"/>
</a>
</g>
</g>
<!-- Node17 -->
<g id="Node000017" class="node">
<title>Node17</title>
<g id="a_Node000017"><a xlink:href="external_8c.html#ac0fb767de7e14a03f1bcfa53f0abd23b" target="_top" xlink:title=" ">
<polygon fill="white" stroke="#666666" points="1428,-340 1288,-340 1288,-321 1428,-321 1428,-340"/>
<text text-anchor="middle" x="1358" y="-328" font-family="Helvetica,sans-Serif" font-size="10.00">delete_sound_from_bank</text>
</a>
</g>
</g>
<!-- Node16&#45;&gt;Node17 -->
<g id="edge16_Node000016_Node000017" class="edge">
<title>Node16&#45;&gt;Node17</title>
<g id="a_edge16_Node000016_Node000017"><a xlink:title=" ">
<path fill="none" stroke="#63b8ff" d="M1245.63,-303.03C1264.8,-307.76 1288.16,-313.52 1308.52,-318.54"/>
<polygon fill="#63b8ff" stroke="#63b8ff" points="1307.69,-321.94 1318.24,-320.94 1309.37,-315.15 1307.69,-321.94"/>
</a>
</g>
</g>
<!-- Node19 -->
<g id="Node000019" class="node">
<title>Node19</title>
<g id="a_Node000019"><a xlink:href="external_8c.html#ab83bd36e63f0f1baddcb2482b5ad31b0" target="_top" xlink:title=" ">
<polygon fill="white" stroke="#666666" points="1404.5,-303 1311.5,-303 1311.5,-284 1404.5,-284 1404.5,-303"/>
<text text-anchor="middle" x="1358" y="-291" font-family="Helvetica,sans-Serif" font-size="10.00">func_800C41CC</text>
</a>
</g>
</g>
<!-- Node16&#45;&gt;Node19 -->
<g id="edge18_Node000016_Node000019" class="edge">
<title>Node16&#45;&gt;Node19</title>
<g id="a_edge18_Node000016_Node000019"><a xlink:title=" ">
<path fill="none" stroke="#63b8ff" d="M1252,-293.5C1267.37,-293.5 1284.74,-293.5 1300.86,-293.5"/>
<polygon fill="#63b8ff" stroke="#63b8ff" points="1301.25,-297 1311.25,-293.5 1301.25,-290 1301.25,-297"/>
</a>
</g>
</g>
<!-- Node20 -->
<g id="Node000020" class="node">
<title>Node20</title>
<g id="a_Node000020"><a xlink:href="port__eu_8c.html#aa89dfaecca46c6d071f08c1898d1f7c9" target="_top" xlink:title=" ">
<polygon fill="white" stroke="#666666" points="1404.5,-266 1311.5,-266 1311.5,-247 1404.5,-247 1404.5,-266"/>
<text text-anchor="middle" x="1358" y="-254" font-family="Helvetica,sans-Serif" font-size="10.00">func_800CBBE8</text>
</a>
</g>
</g>
<!-- Node16&#45;&gt;Node20 -->
<g id="edge19_Node000016_Node000020" class="edge">
<title>Node16&#45;&gt;Node20</title>
<g id="a_edge19_Node000016_Node000020"><a xlink:title=" ">
<path fill="none" stroke="#63b8ff" d="M1245.63,-283.97C1264.8,-279.24 1288.16,-273.48 1308.52,-268.46"/>
<polygon fill="#63b8ff" stroke="#63b8ff" points="1309.37,-271.85 1318.24,-266.06 1307.69,-265.06 1309.37,-271.85"/>
</a>
</g>
</g>
<!-- Node18 -->
<g id="Node000018" class="node">
<title>Node18</title>
<g id="a_Node000018"><a xlink:href="external_8c.html#a358ac55e8ab5262dcae8037334be06d7" target="_top" xlink:title=" ">
<polygon fill="white" stroke="#666666" points="1556.5,-340 1464.5,-340 1464.5,-321 1556.5,-321 1556.5,-340"/>
<text text-anchor="middle" x="1510.5" y="-328" font-family="Helvetica,sans-Serif" font-size="10.00">func_800C40F0</text>
</a>
</g>
</g>
<!-- Node17&#45;&gt;Node18 -->
<g id="edge17_Node000017_Node000018" class="edge">
<title>Node17&#45;&gt;Node18</title>
<g id="a_edge17_Node000017_Node000018"><a xlink:title=" ">
<path fill="none" stroke="#63b8ff" d="M1428.08,-330.5C1436.87,-330.5 1445.78,-330.5 1454.31,-330.5"/>
<polygon fill="#63b8ff" stroke="#63b8ff" points="1454.5,-334 1464.5,-330.5 1454.5,-327 1454.5,-334"/>
</a>
</g>
</g>
<!-- Node21 -->
<g id="Node000021" class="node">
<title>Node21</title>
<g id="a_Node000021"><a xlink:href="port__eu_8c.html#af361a20d2e08f30c53a237ca481ff734" target="_top" xlink:title=" ">
<polygon fill="white" stroke="#666666" points="1557,-266 1464,-266 1464,-247 1557,-247 1557,-266"/>
<text text-anchor="middle" x="1510.5" y="-254" font-family="Helvetica,sans-Serif" font-size="10.00">func_800CBB48</text>
</a>
</g>
</g>
<!-- Node20&#45;&gt;Node21 -->
<g id="edge20_Node000020_Node000021" class="edge">
<title>Node20&#45;&gt;Node21</title>
<g id="a_edge20_Node000020_Node000021"><a xlink:title=" ">
<path fill="none" stroke="#63b8ff" d="M1404.56,-256.5C1419.96,-256.5 1437.34,-256.5 1453.46,-256.5"/>
<polygon fill="#63b8ff" stroke="#63b8ff" points="1453.83,-260 1463.83,-256.5 1453.83,-253 1453.83,-260"/>
</a>
</g>
</g>
<!-- Node23 -->
<g id="Node000023" class="node">
<title>Node23</title>
<g id="a_Node000023"><a xlink:href="math__util_8c.html#a79fd07a0971ec96a3ff0801963a2fa7f" target="_top" xlink:title=" ">
<polygon fill="white" stroke="#666666" points="741,-284 677,-284 677,-265 741,-265 741,-284"/>
<text text-anchor="middle" x="709" y="-272" font-family="Helvetica,sans-Serif" font-size="10.00">vec3f_set</text>
</a>
</g>
</g>
<!-- Node22&#45;&gt;Node23 -->
<g id="edge22_Node000022_Node000023" class="edge">
<title>Node22&#45;&gt;Node23</title>
<g id="a_edge22_Node000022_Node000023"><a xlink:title=" ">
<path fill="none" stroke="#63b8ff" d="M578.34,-281.85C605.83,-280.29 640.27,-278.34 666.74,-276.84"/>
<polygon fill="#63b8ff" stroke="#63b8ff" points="667.04,-280.33 676.83,-276.27 666.65,-273.34 667.04,-280.33"/>
</a>
</g>
</g>
<!-- Node30 -->
<g id="Node000030" class="node">
<title>Node30</title>
<g id="a_Node000030"><a xlink:href="code__80005FD0_8c.html#aff1ba4b22fc22c38fcf28007ccaaa752" target="_top" xlink:title=" ">
<polygon fill="white" stroke="#666666" points="577,-141 484,-141 484,-122 577,-122 577,-141"/>
<text text-anchor="middle" x="530.5" y="-129" font-family="Helvetica,sans-Serif" font-size="10.00">func_8000D2B4</text>
</a>
</g>
</g>
<!-- Node29&#45;&gt;Node30 -->
<g id="edge29_Node000029_Node000030" class="edge">
<title>Node29&#45;&gt;Node30</title>
<g id="a_edge29_Node000029_Node000030"><a xlink:title=" ">
<path fill="none" stroke="#63b8ff" d="M384.91,-67.19C406.52,-81.13 445.66,-105.89 461,-112.5 466.45,-114.85 472.26,-116.98 478.11,-118.9"/>
<polygon fill="#63b8ff" stroke="#63b8ff" points="477.35,-122.33 487.94,-121.93 479.41,-115.64 477.35,-122.33"/>
</a>
</g>
</g>
<!-- Node37 -->
<g id="Node000037" class="node">
<title>Node37</title>
<g id="a_Node000037"><a xlink:href="code__80005FD0_8c.html#a79cd9c001e0a06c9cab23fe2cf070abf" target="_top" xlink:title=" ">
<polygon fill="white" stroke="#666666" points="600,-30 461,-30 461,-11 600,-11 600,-30"/>
<text text-anchor="middle" x="530.5" y="-18" font-family="Helvetica,sans-Serif" font-size="10.00">get_angle_between_path</text>
</a>
</g>
</g>
<!-- Node29&#45;&gt;Node37 -->
<g id="edge37_Node000029_Node000037" class="edge">
<title>Node29&#45;&gt;Node37</title>
<g id="a_edge37_Node000029_Node000037"><a xlink:title=" ">
<path fill="none" stroke="#63b8ff" d="M411.08,-47.97C431.65,-43.2 456.75,-37.38 478.54,-32.32"/>
<polygon fill="#63b8ff" stroke="#63b8ff" points="479.34,-35.73 488.29,-30.06 477.75,-28.91 479.34,-35.73"/>
</a>
</g>
</g>
<!-- Node41 -->
<g id="Node000041" class="node">
<title>Node41</title>
<g id="a_Node000041"><a xlink:href="code__80005FD0_8c.html#a83974499a323e99b007956bf9c0e25ff" target="_top" xlink:title=" ">
<polygon fill="white" stroke="#666666" points="600,-104 461,-104 461,-85 600,-85 600,-104"/>
<text text-anchor="middle" x="530.5" y="-92" font-family="Helvetica,sans-Serif" font-size="10.00">set_track_offset_position</text>
</a>
</g>
</g>
<!-- Node29&#45;&gt;Node41 -->
<g id="edge41_Node000029_Node000041" class="edge">
<title>Node29&#45;&gt;Node41</title>
<g id="a_edge41_Node000029_Node000041"><a xlink:title=" ">
<path fill="none" stroke="#63b8ff" d="M411.08,-67.03C431.65,-71.8 456.75,-77.62 478.54,-82.68"/>
<polygon fill="#63b8ff" stroke="#63b8ff" points="477.75,-86.09 488.29,-84.94 479.34,-79.27 477.75,-86.09"/>
</a>
</g>
</g>
<!-- Node42 -->
<g id="Node000042" class="node">
<title>Node42</title>
<g id="a_Node000042"><a xlink:href="math_8h.html#a37bde043e94a6f074c78f10518fb5d99" target="_top" xlink:title=" ">
<polygon fill="white" stroke="#666666" points="550,-67 511,-67 511,-48 550,-48 550,-67"/>
<text text-anchor="middle" x="530.5" y="-55" font-family="Helvetica,sans-Serif" font-size="10.00">sqrtf</text>
</a>
</g>
</g>
<!-- Node29&#45;&gt;Node42 -->
<g id="edge42_Node000029_Node000042" class="edge">
<title>Node29&#45;&gt;Node42</title>
<g id="a_edge42_Node000029_Node000042"><a xlink:title=" ">
<path fill="none" stroke="#63b8ff" d="M416.13,-57.5C443.42,-57.5 477.13,-57.5 500.67,-57.5"/>
<polygon fill="#63b8ff" stroke="#63b8ff" points="500.71,-61 510.71,-57.5 500.71,-54 500.71,-61"/>
</a>
</g>
</g>
<!-- Node31 -->
<g id="Node000031" class="node">
<title>Node31</title>
<g id="a_Node000031"><a xlink:href="code__80005FD0_8c.html#a52b991f7bfc8a37a05bbb3ede096fb6a" target="_top" xlink:title=" ">
<polygon fill="white" stroke="#666666" points="779,-144 639,-144 639,-125 779,-125 779,-144"/>
<text text-anchor="middle" x="709" y="-132" font-family="Helvetica,sans-Serif" font-size="10.00">adjust_path_at_start_line</text>
</a>
</g>
</g>
<!-- Node30&#45;&gt;Node31 -->
<g id="edge30_Node000030_Node000031" class="edge">
<title>Node30&#45;&gt;Node31</title>
<g id="a_edge30_Node000030_Node000031"><a xlink:title=" ">
<path fill="none" stroke="#63b8ff" d="M577.41,-132.28C593.04,-132.55 610.98,-132.85 628.47,-133.15"/>
<polygon fill="#63b8ff" stroke="#63b8ff" points="628.63,-136.65 638.69,-133.32 628.75,-129.65 628.63,-136.65"/>
</a>
</g>
</g>
<!-- Node32 -->
<g id="Node000032" class="node">
<title>Node32</title>
<g id="a_Node000032"><a xlink:href="code__80005FD0_8c.html#aae3d2d6e27d79a30dfe68c64e771b5b1" target="_top" xlink:title=" ">
<polygon fill="white" stroke="#666666" points="755.5,-107 662.5,-107 662.5,-88 755.5,-88 755.5,-107"/>
<text text-anchor="middle" x="709" y="-95" font-family="Helvetica,sans-Serif" font-size="10.00">func_8000D24C</text>
</a>
</g>
</g>
<!-- Node30&#45;&gt;Node32 -->
<g id="edge31_Node000030_Node000032" class="edge">
<title>Node30&#45;&gt;Node32</title>
<g id="a_edge31_Node000030_Node000032"><a xlink:title=" ">
<path fill="none" stroke="#63b8ff" d="M577.41,-122.66C600.29,-118.25 628.15,-112.88 652.25,-108.24"/>
<polygon fill="#63b8ff" stroke="#63b8ff" points="653.16,-111.63 662.32,-106.3 651.84,-104.75 653.16,-111.63"/>
</a>
</g>
</g>
<!-- Node36 -->
<g id="Node000036" class="node">
<title>Node36</title>
<g id="a_Node000036"><a xlink:href="code__80005FD0_8c.html#a041b53794d8d64878d2cf5e0dea65b80" target="_top" xlink:title=" ">
<polygon fill="white" stroke="#666666" points="764,-70 654,-70 654,-51 764,-51 764,-70"/>
<text text-anchor="middle" x="709" y="-58" font-family="Helvetica,sans-Serif" font-size="10.00">update_path_index</text>
</a>
</g>
</g>
<!-- Node30&#45;&gt;Node36 -->
<g id="edge36_Node000030_Node000036" class="edge">
<title>Node30&#45;&gt;Node36</title>
<g id="a_edge36_Node000030_Node000036"><a xlink:title=" ">
<path fill="none" stroke="#63b8ff" d="M577.33,-122.14C585.16,-119.61 593.01,-116.44 600,-112.5 619.17,-101.69 616.7,-89.07 636,-78.5 639.3,-76.69 642.79,-75.06 646.37,-73.59"/>
<polygon fill="#63b8ff" stroke="#63b8ff" points="647.84,-76.78 656.04,-70.07 645.44,-70.21 647.84,-76.78"/>
</a>
</g>
</g>
<!-- Node32&#45;&gt;Node5 -->
<g id="edge32_Node000032_Node000005" class="edge">
<title>Node32&#45;&gt;Node5</title>
<g id="a_edge32_Node000032_Node000005"><a xlink:title=" ">
<path fill="none" stroke="#63b8ff" d="M755.62,-106.68C764.53,-109.09 773.68,-112.01 782,-115.5 799.29,-122.75 801.04,-129.5 818,-137.5 829.34,-142.85 842.04,-147.7 853.85,-151.76"/>
<polygon fill="#63b8ff" stroke="#63b8ff" points="852.91,-155.14 863.5,-154.98 855.13,-148.5 852.91,-155.14"/>
</a>
</g>
</g>
<!-- Node33 -->
<g id="Node000033" class="node">
<title>Node33</title>
<g id="a_Node000033"><a xlink:href="code__80005FD0_8c.html#a64865cf2565ef9f4215c5fa73b04233f" target="_top" xlink:title=" ">
<polygon fill="white" stroke="#666666" points="962.5,-91.5 831.5,-91.5 831.5,-61.5 962.5,-61.5 962.5,-91.5"/>
<text text-anchor="start" x="839.5" y="-79.5" font-family="Helvetica,sans-Serif" font-size="10.00">find_closest_path_point</text>
<text text-anchor="middle" x="897" y="-68.5" font-family="Helvetica,sans-Serif" font-size="10.00">_track_section</text>
</a>
</g>
</g>
<!-- Node32&#45;&gt;Node33 -->
<g id="edge33_Node000032_Node000033" class="edge">
<title>Node32&#45;&gt;Node33</title>
<g id="a_edge33_Node000032_Node000033"><a xlink:title=" ">
<path fill="none" stroke="#63b8ff" d="M755.5,-92.36C775.27,-90.13 798.96,-87.46 821.2,-84.94"/>
<polygon fill="#63b8ff" stroke="#63b8ff" points="821.76,-88.4 831.3,-83.8 820.97,-81.45 821.76,-88.4"/>
</a>
</g>
</g>
<!-- Node35 -->
<g id="Node000035" class="node">
<title>Node35</title>
<g id="a_Node000035"><a xlink:href="collision_8c.html#a053809031f467d0a6747788211e0ec69" target="_top" xlink:title=" ">
<polygon fill="white" stroke="#666666" points="955.5,-129 838.5,-129 838.5,-110 955.5,-110 955.5,-129"/>
<text text-anchor="middle" x="897" y="-117" font-family="Helvetica,sans-Serif" font-size="10.00">get_track_section_id</text>
</a>
</g>
</g>
<!-- Node32&#45;&gt;Node35 -->
<g id="edge35_Node000032_Node000035" class="edge">
<title>Node32&#45;&gt;Node35</title>
<g id="a_edge35_Node000032_Node000035"><a xlink:title=" ">
<path fill="none" stroke="#63b8ff" d="M755.5,-102.88C777.33,-105.46 803.94,-108.61 828.1,-111.47"/>
<polygon fill="#63b8ff" stroke="#63b8ff" points="827.95,-114.97 838.29,-112.67 828.77,-108.02 827.95,-114.97"/>
</a>
</g>
</g>
<!-- Node34 -->
<g id="Node000034" class="node">
<title>Node34</title>
<g id="a_Node000034"><a xlink:href="Game_8cpp.html#aab0dcf46f6e6e4516bf79ea3f519c765" target="_top" xlink:title=" ">
<polygon fill="white" stroke="#666666" points="1124,-86 1012,-86 1012,-67 1124,-67 1124,-86"/>
<text text-anchor="middle" x="1068" y="-74" font-family="Helvetica,sans-Serif" font-size="10.00">IsPodiumCeremony</text>
</a>
</g>
</g>
<!-- Node33&#45;&gt;Node34 -->
<g id="edge34_Node000033_Node000034" class="edge">
<title>Node33&#45;&gt;Node34</title>
<g id="a_edge34_Node000033_Node000034"><a xlink:title=" ">
<path fill="none" stroke="#63b8ff" d="M962.86,-76.5C975.64,-76.5 989.05,-76.5 1001.84,-76.5"/>
<polygon fill="#63b8ff" stroke="#63b8ff" points="1001.94,-80 1011.94,-76.5 1001.94,-73 1001.94,-80"/>
</a>
</g>
</g>
<!-- Node38 -->
<g id="Node000038" class="node">
<title>Node38</title>
<g id="a_Node000038"><a xlink:href="math__util_8c.html#a84cf9d4ec33146a64c230ed4cec56632" target="_top" xlink:title=" ">
<polygon fill="white" stroke="#666666" points="776.5,-32.5 641.5,-32.5 641.5,-2.5 776.5,-2.5 776.5,-32.5"/>
<text text-anchor="start" x="649.5" y="-20.5" font-family="Helvetica,sans-Serif" font-size="10.00">get_angle_between_two</text>
<text text-anchor="middle" x="709" y="-9.5" font-family="Helvetica,sans-Serif" font-size="10.00">_vectors</text>
</a>
</g>
</g>
<!-- Node37&#45;&gt;Node38 -->
<g id="edge38_Node000037_Node000038" class="edge">
<title>Node37&#45;&gt;Node38</title>
<g id="a_edge38_Node000037_Node000038"><a xlink:title=" ">
<path fill="none" stroke="#63b8ff" d="M600.24,-19.33C610.41,-19.16 620.93,-18.98 631.25,-18.8"/>
<polygon fill="#63b8ff" stroke="#63b8ff" points="631.53,-22.3 641.47,-18.63 631.41,-15.3 631.53,-22.3"/>
</a>
</g>
</g>
<!-- Node39 -->
<g id="Node000039" class="node">
<title>Node39</title>
<g id="a_Node000039"><a xlink:href="math__util_8c.html#aaa39a297477f56051975259f4bddd829" target="_top" xlink:title=" ">
<polygon fill="white" stroke="#666666" points="922,-27 872,-27 872,-8 922,-8 922,-27"/>
<text text-anchor="middle" x="897" y="-15" font-family="Helvetica,sans-Serif" font-size="10.00">atan2s</text>
</a>
</g>
</g>
<!-- Node38&#45;&gt;Node39 -->
<g id="edge39_Node000038_Node000039" class="edge">
<title>Node38&#45;&gt;Node39</title>
<g id="a_edge39_Node000038_Node000039"><a xlink:title=" ">
<path fill="none" stroke="#63b8ff" d="M776.62,-17.5C805.37,-17.5 837.78,-17.5 861.57,-17.5"/>
<polygon fill="#63b8ff" stroke="#63b8ff" points="861.85,-21 871.85,-17.5 861.85,-14 861.85,-21"/>
</a>
</g>
</g>
<!-- Node40 -->
<g id="Node000040" class="node">
<title>Node40</title>
<g id="a_Node000040"><a xlink:href="math__util_8c.html#a0273b0ea0783a06996c28669a7438ed9" target="_top" xlink:title=" ">
<polygon fill="white" stroke="#666666" points="1109,-27 1027,-27 1027,-8 1109,-8 1109,-27"/>
<text text-anchor="middle" x="1068" y="-15" font-family="Helvetica,sans-Serif" font-size="10.00">atan2_lookup</text>
</a>
</g>
</g>
<!-- Node39&#45;&gt;Node40 -->
<g id="edge40_Node000039_Node000040" class="edge">
<title>Node39&#45;&gt;Node40</title>
<g id="a_edge40_Node000039_Node000040"><a xlink:title=" ">
<path fill="none" stroke="#63b8ff" d="M922.21,-17.5C946.73,-17.5 985.38,-17.5 1016.58,-17.5"/>
<polygon fill="#63b8ff" stroke="#63b8ff" points="1016.84,-21 1026.84,-17.5 1016.84,-14 1016.84,-21"/>
</a>
</g>
</g>
<!-- Node43&#45;&gt;Node30 -->
<g id="edge44_Node000043_Node000030" class="edge">
<title>Node43&#45;&gt;Node30</title>
<g id="a_edge44_Node000043_Node000030"><a xlink:title=" ">
<path fill="none" stroke="#63b8ff" d="M415.28,-117.89C433.47,-120.06 454.62,-122.58 473.75,-124.86"/>
<polygon fill="#63b8ff" stroke="#63b8ff" points="473.49,-128.35 483.83,-126.06 474.31,-121.4 473.49,-128.35"/>
</a>
</g>
</g>
<!-- Node43&#45;&gt;Node37 -->
<g id="edge45_Node000043_Node000037" class="edge">
<title>Node43&#45;&gt;Node37</title>
<g id="a_edge45_Node000043_Node000037"><a xlink:title=" ">
<path fill="none" stroke="#63b8ff" d="M386.03,-102.95C397.34,-95.92 412.63,-85.83 425,-75.5 442.61,-60.8 441.18,-50.06 461,-38.5 464.01,-36.74 467.2,-35.15 470.48,-33.72"/>
<polygon fill="#63b8ff" stroke="#63b8ff" points="471.87,-36.94 479.93,-30.06 469.34,-30.41 471.87,-36.94"/>
</a>
</g>
</g>
<!-- Node43&#45;&gt;Node41 -->
<g id="edge46_Node000043_Node000041" class="edge">
<title>Node43&#45;&gt;Node41</title>
<g id="a_edge46_Node000043_Node000041"><a xlink:title=" ">
<path fill="none" stroke="#63b8ff" d="M415.28,-107.39C426.36,-106.14 438.54,-104.77 450.69,-103.39"/>
<polygon fill="#63b8ff" stroke="#63b8ff" points="451.32,-106.84 460.87,-102.25 450.54,-99.89 451.32,-106.84"/>
</a>
</g>
</g>
<!-- Node43&#45;&gt;Node42 -->
<g id="edge47_Node000043_Node000042" class="edge">
<title>Node43&#45;&gt;Node42</title>
<g id="a_edge47_Node000043_Node000042"><a xlink:title=" ">
<path fill="none" stroke="#63b8ff" d="M391.4,-102.88C409.66,-94.9 436.73,-83.59 461,-75.5 474.03,-71.16 488.74,-67.18 501.17,-64.07"/>
<polygon fill="#63b8ff" stroke="#63b8ff" points="502.11,-67.44 510.99,-61.68 500.45,-60.64 502.11,-67.44"/>
</a>
</g>
</g>
<!-- Node46 -->
<g id="Node000046" class="node">
<title>Node46</title>
<g id="a_Node000046"><a xlink:href="math__util_8c.html#a062850863585005ad1d0a75d9ff70693" target="_top" xlink:title=" ">
<polygon fill="white" stroke="#666666" points="407.5,-19 330.5,-19 330.5,0 407.5,0 407.5,-19"/>
<text text-anchor="middle" x="369" y="-7" font-family="Helvetica,sans-Serif" font-size="10.00">random_u16</text>
</a>
</g>
</g>
<!-- Node45&#45;&gt;Node46 -->
<g id="edge50_Node000045_Node000046" class="edge">
<title>Node45&#45;&gt;Node46</title>
<g id="a_edge50_Node000045_Node000046"><a xlink:title=" ">
<path fill="none" stroke="#63b8ff" d="M228.81,-9.5C255.07,-9.5 291.19,-9.5 320.05,-9.5"/>
<polygon fill="#63b8ff" stroke="#63b8ff" points="320.32,-13 330.32,-9.5 320.32,-6 320.32,-13"/>
</a>
</g>
</g>
<!-- Node47&#45;&gt;Node29 -->
<g id="edge52_Node000047_Node000029" class="edge">
<title>Node47&#45;&gt;Node29</title>
<g id="a_edge52_Node000047_Node000029"><a xlink:title=" ">
<path fill="none" stroke="#63b8ff" d="M244.85,-112.89C255.61,-110.31 266.79,-107.18 277,-103.5 300.19,-95.14 325.07,-82.27 342.94,-72.27"/>
<polygon fill="#63b8ff" stroke="#63b8ff" points="345.14,-75.04 352.1,-67.05 341.67,-68.96 345.14,-75.04"/>
</a>
</g>
</g>
<!-- Node47&#45;&gt;Node43 -->
<g id="edge53_Node000047_Node000043" class="edge">
<title>Node47&#45;&gt;Node43</title>
<g id="a_edge53_Node000047_Node000043"><a xlink:title=" ">
<path fill="none" stroke="#63b8ff" d="M259.47,-118.72C276.97,-117.72 295.7,-116.64 312.57,-115.68"/>
<polygon fill="#63b8ff" stroke="#63b8ff" points="313.04,-119.16 322.82,-115.09 312.64,-112.17 313.04,-119.16"/>
</a>
</g>
</g>
</g>
</svg>
