<?xml version="1.0" encoding="UTF-8" standalone="no"?>
<!DOCTYPE svg PUBLIC "-//W3C//DTD SVG 1.1//EN"
 "http://www.w3.org/Graphics/SVG/1.1/DTD/svg11.dtd">
<!-- Generated by graphviz version 2.43.0 (0)
 -->
<!-- Title: AText::ValidateString Pages: 1 -->
<svg width="500pt" height="64pt"
 viewBox="0.00 0.00 500.00 64.00" xmlns="http://www.w3.org/2000/svg" xmlns:xlink="http://www.w3.org/1999/xlink">
<g id="graph0" class="graph" transform="scale(1 1) rotate(0) translate(4 60)">
<title>AText::ValidateString</title>
<!-- Node1 -->
<g id="Node000001" class="node">
<title>Node1</title>
<g id="a_Node000001"><a xlink:title=" ">
<polygon fill="#999999" stroke="#666666" points="492,-37 375,-37 375,-18 492,-18 492,-37"/>
<text text-anchor="middle" x="433.5" y="-25" font-family="Helvetica,sans-Serif" font-size="10.00">AText::ValidateString</text>
</a>
</g>
</g>
<!-- Node2 -->
<g id="Node000002" class="node">
<title>Node2</title>
<g id="a_Node000002"><a xlink:href="classAText.html#ad1eb7d831c8cba5c851ec4b07c20e067" target="_top" xlink:title=" ">
<polygon fill="white" stroke="#666666" points="334,-56 259,-56 259,-37 334,-37 334,-56"/>
<text text-anchor="middle" x="296.5" y="-44" font-family="Helvetica,sans-Serif" font-size="10.00">AText::AText</text>
</a>
</g>
</g>
<!-- Node1&#45;&gt;Node2 -->
<g id="edge1_Node000001_Node000002" class="edge">
<title>Node1&#45;&gt;Node2</title>
<g id="a_edge1_Node000001_Node000002"><a xlink:title=" ">
<path fill="none" stroke="#63b8ff" d="M364.79,-37.03C354.27,-38.51 343.75,-39.99 334.26,-41.33"/>
<polygon fill="#63b8ff" stroke="#63b8ff" points="365.44,-40.47 374.86,-35.61 364.47,-33.54 365.44,-40.47"/>
</a>
</g>
</g>
<!-- Node5 -->
<g id="Node000005" class="node">
<title>Node5</title>
<g id="a_Node000005"><a xlink:href="classAText.html#a4126b6c7023fd999cda64a4c72da05a3" target="_top" xlink:title=" ">
<polygon fill="white" stroke="#666666" points="339,-19 254,-19 254,0 339,0 339,-19"/>
<text text-anchor="middle" x="296.5" y="-7" font-family="Helvetica,sans-Serif" font-size="10.00">AText::SetText</text>
</a>
</g>
</g>
<!-- Node1&#45;&gt;Node5 -->
<g id="edge4_Node000001_Node000005" class="edge">
<title>Node1&#45;&gt;Node5</title>
<g id="a_edge4_Node000001_Node000005"><a xlink:title=" ">
<path fill="none" stroke="#63b8ff" d="M364.92,-18.49C356.08,-17.31 347.25,-16.13 339.03,-15.04"/>
<polygon fill="#63b8ff" stroke="#63b8ff" points="364.48,-21.96 374.86,-19.81 365.41,-15.02 364.48,-21.96"/>
</a>
</g>
</g>
<!-- Node3 -->
<g id="Node000003" class="node">
<title>Node3</title>
<g id="a_Node000003"><a xlink:href="classAText.html#a2f38d1b087146f2510964124efc111f2" target="_top" xlink:title=" ">
<polygon fill="white" stroke="#666666" points="218,-56 137,-56 137,-37 218,-37 218,-56"/>
<text text-anchor="middle" x="177.5" y="-44" font-family="Helvetica,sans-Serif" font-size="10.00">AText::Spawn</text>
</a>
</g>
</g>
<!-- Node2&#45;&gt;Node3 -->
<g id="edge2_Node000002_Node000003" class="edge">
<title>Node2&#45;&gt;Node3</title>
<g id="a_edge2_Node000002_Node000003"><a xlink:title=" ">
<path fill="none" stroke="#63b8ff" d="M248.57,-46.5C238.55,-46.5 228.05,-46.5 218.31,-46.5"/>
<polygon fill="#63b8ff" stroke="#63b8ff" points="248.8,-50 258.8,-46.5 248.8,-43 248.8,-50"/>
</a>
</g>
</g>
<!-- Node4 -->
<g id="Node000004" class="node">
<title>Node4</title>
<g id="a_Node000004"><a xlink:href="classRulesets.html#a93351c305cc2659ba94d7ba1a30dde95" target="_top" xlink:title=" ">
<polygon fill="white" stroke="#666666" points="101,-56 0,-56 0,-37 101,-37 101,-56"/>
<text text-anchor="middle" x="50.5" y="-44" font-family="Helvetica,sans-Serif" font-size="10.00">Rulesets::PostInit</text>
</a>
</g>
</g>
<!-- Node3&#45;&gt;Node4 -->
<g id="edge3_Node000003_Node000004" class="edge">
<title>Node3&#45;&gt;Node4</title>
<g id="a_edge3_Node000003_Node000004"><a xlink:title=" ">
<path fill="none" stroke="#63b8ff" d="M126.9,-46.5C118.5,-46.5 109.76,-46.5 101.35,-46.5"/>
<polygon fill="#63b8ff" stroke="#63b8ff" points="126.95,-50 136.95,-46.5 126.95,-43 126.95,-50"/>
</a>
</g>
</g>
</g>
</svg>
