<?xml version="1.0" encoding="UTF-8" standalone="no"?>
<!DOCTYPE svg PUBLIC "-//W3C//DTD SVG 1.1//EN"
 "http://www.w3.org/Graphics/SVG/1.1/DTD/svg11.dtd">
<!-- Generated by graphviz version 2.43.0 (0)
 -->
<!-- Title: AText::Print3D Pages: 1 -->
<svg width="540pt" height="101pt"
 viewBox="0.00 0.00 540.00 101.00" xmlns="http://www.w3.org/2000/svg" xmlns:xlink="http://www.w3.org/1999/xlink">
<g id="graph0" class="graph" transform="scale(1 1) rotate(0) translate(4 97)">
<title>AText::Print3D</title>
<!-- Node1 -->
<g id="Node000001" class="node">
<title>Node1</title>
<g id="a_Node000001"><a xlink:title=" ">
<polygon fill="#999999" stroke="#666666" points="532,-74 447,-74 447,-55 532,-55 532,-74"/>
<text text-anchor="middle" x="489.5" y="-62" font-family="Helvetica,sans-Serif" font-size="10.00">AText::Print3D</text>
</a>
</g>
</g>
<!-- Node2 -->
<g id="Node000002" class="node">
<title>Node2</title>
<g id="a_Node000002"><a xlink:href="classAText.html#ad1eb7d831c8cba5c851ec4b07c20e067" target="_top" xlink:title=" ">
<polygon fill="white" stroke="#666666" points="405.5,-93 330.5,-93 330.5,-74 405.5,-74 405.5,-93"/>
<text text-anchor="middle" x="368" y="-81" font-family="Helvetica,sans-Serif" font-size="10.00">AText::AText</text>
</a>
</g>
</g>
<!-- Node1&#45;&gt;Node2 -->
<g id="edge1_Node000001_Node000002" class="edge">
<title>Node1&#45;&gt;Node2</title>
<g id="a_edge1_Node000001_Node000002"><a xlink:title=" ">
<path fill="none" stroke="#63b8ff" d="M436.51,-72.77C426.16,-74.41 415.5,-76.11 405.79,-77.65"/>
<polygon fill="#63b8ff" stroke="#63b8ff" points="437.38,-76.17 446.7,-71.15 436.28,-69.26 437.38,-76.17"/>
</a>
</g>
</g>
<!-- Node5 -->
<g id="Node000005" class="node">
<title>Node5</title>
<g id="a_Node000005"><a xlink:href="classAText.html#a95dc1366e8afbf5113357fdb6426f226" target="_top" xlink:title=" ">
<polygon fill="white" stroke="#666666" points="411,-56 325,-56 325,-37 411,-37 411,-56"/>
<text text-anchor="middle" x="368" y="-44" font-family="Helvetica,sans-Serif" font-size="10.00">AText::Refresh</text>
</a>
</g>
</g>
<!-- Node1&#45;&gt;Node5 -->
<g id="edge4_Node000001_Node000005" class="edge">
<title>Node1&#45;&gt;Node5</title>
<g id="a_edge4_Node000001_Node000005"><a xlink:title=" ">
<path fill="none" stroke="#63b8ff" d="M436.59,-56.68C428.17,-55.41 419.54,-54.11 411.38,-52.88"/>
<polygon fill="#63b8ff" stroke="#63b8ff" points="436.29,-60.18 446.7,-58.2 437.34,-53.25 436.29,-60.18"/>
</a>
</g>
</g>
<!-- Node3 -->
<g id="Node000003" class="node">
<title>Node3</title>
<g id="a_Node000003"><a xlink:href="classAText.html#a2f38d1b087146f2510964124efc111f2" target="_top" xlink:title=" ">
<polygon fill="white" stroke="#666666" points="253.5,-93 172.5,-93 172.5,-74 253.5,-74 253.5,-93"/>
<text text-anchor="middle" x="213" y="-81" font-family="Helvetica,sans-Serif" font-size="10.00">AText::Spawn</text>
</a>
</g>
</g>
<!-- Node2&#45;&gt;Node3 -->
<g id="edge2_Node000002_Node000003" class="edge">
<title>Node2&#45;&gt;Node3</title>
<g id="a_edge2_Node000002_Node000003"><a xlink:title=" ">
<path fill="none" stroke="#63b8ff" d="M320.22,-83.5C298.9,-83.5 273.93,-83.5 253.56,-83.5"/>
<polygon fill="#63b8ff" stroke="#63b8ff" points="320.35,-87 330.35,-83.5 320.35,-80 320.35,-87"/>
</a>
</g>
</g>
<!-- Node4 -->
<g id="Node000004" class="node">
<title>Node4</title>
<g id="a_Node000004"><a xlink:href="classRulesets.html#a93351c305cc2659ba94d7ba1a30dde95" target="_top" xlink:title=" ">
<polygon fill="white" stroke="#666666" points="101,-93 0,-93 0,-74 101,-74 101,-93"/>
<text text-anchor="middle" x="50.5" y="-81" font-family="Helvetica,sans-Serif" font-size="10.00">Rulesets::PostInit</text>
</a>
</g>
</g>
<!-- Node3&#45;&gt;Node4 -->
<g id="edge3_Node000003_Node000004" class="edge">
<title>Node3&#45;&gt;Node4</title>
<g id="a_edge3_Node000003_Node000004"><a xlink:title=" ">
<path fill="none" stroke="#63b8ff" d="M162.15,-83.5C142.71,-83.5 120.47,-83.5 101.06,-83.5"/>
<polygon fill="#63b8ff" stroke="#63b8ff" points="162.33,-87 172.33,-83.5 162.33,-80 162.33,-87"/>
</a>
</g>
</g>
<!-- Node6 -->
<g id="Node000006" class="node">
<title>Node6</title>
<g id="a_Node000006"><a xlink:href="classAText.html#ac875c4acae047cd10f25f229b23fbdd1" target="_top" xlink:title=" ">
<polygon fill="white" stroke="#666666" points="289,-56 137,-56 137,-37 289,-37 289,-56"/>
<text text-anchor="middle" x="213" y="-44" font-family="Helvetica,sans-Serif" font-size="10.00">AText::DrawEditorProperties</text>
</a>
</g>
</g>
<!-- Node5&#45;&gt;Node6 -->
<g id="edge5_Node000005_Node000006" class="edge">
<title>Node5&#45;&gt;Node6</title>
<g id="a_edge5_Node000005_Node000006"><a xlink:title=" ">
<path fill="none" stroke="#63b8ff" d="M314.65,-46.5C306.45,-46.5 297.84,-46.5 289.25,-46.5"/>
<polygon fill="#63b8ff" stroke="#63b8ff" points="314.79,-50 324.79,-46.5 314.79,-43 314.79,-50"/>
</a>
</g>
</g>
<!-- Node7 -->
<g id="Node000007" class="node">
<title>Node7</title>
<g id="a_Node000007"><a xlink:href="classAText.html#a4126b6c7023fd999cda64a4c72da05a3" target="_top" xlink:title=" ">
<polygon fill="white" stroke="#666666" points="255.5,-19 170.5,-19 170.5,0 255.5,0 255.5,-19"/>
<text text-anchor="middle" x="213" y="-7" font-family="Helvetica,sans-Serif" font-size="10.00">AText::SetText</text>
</a>
</g>
</g>
<!-- Node5&#45;&gt;Node7 -->
<g id="edge6_Node000005_Node000007" class="edge">
<title>Node5&#45;&gt;Node7</title>
<g id="a_edge6_Node000005_Node000007"><a xlink:title=" ">
<path fill="none" stroke="#63b8ff" d="M317.92,-34.52C308.33,-32.18 298.35,-29.76 289,-27.5 277.55,-24.73 265.1,-21.74 253.71,-19"/>
<polygon fill="#63b8ff" stroke="#63b8ff" points="317.18,-37.94 327.73,-36.91 318.84,-31.14 317.18,-37.94"/>
</a>
</g>
</g>
</g>
</svg>
