<?xml version="1.0" encoding="UTF-8" standalone="no"?>
<!DOCTYPE svg PUBLIC "-//W3C//DTD SVG 1.1//EN"
 "http://www.w3.org/Graphics/SVG/1.1/DTD/svg11.dtd">
<!-- Generated by graphviz version 2.43.0 (0)
 -->
<!-- Title: ATrain::Tick Pages: 1 -->
<svg width="912pt" height="448pt"
 viewBox="0.00 0.00 912.00 448.00" xmlns="http://www.w3.org/2000/svg" xmlns:xlink="http://www.w3.org/1999/xlink">
<g id="graph0" class="graph" transform="scale(1 1) rotate(0) translate(4 444)">
<title>ATrain::Tick</title>
<!-- Node1 -->
<g id="Node000001" class="node">
<title>Node1</title>
<g id="a_Node000001"><a xlink:title=" ">
<polygon fill="#999999" stroke="#666666" points="72,-253 0,-253 0,-234 72,-234 72,-253"/>
<text text-anchor="middle" x="36" y="-241" font-family="Helvetica,sans-Serif" font-size="10.00">ATrain::Tick</text>
</a>
</g>
</g>
<!-- Node2 -->
<g id="Node000002" class="node">
<title>Node2</title>
<g id="a_Node000002"><a xlink:href="classATrain.html#ad24444822dfa3a9c96f0e0028201dfe9" target="_top" xlink:title=" ">
<polygon fill="white" stroke="#666666" points="244,-403 140,-403 140,-384 244,-384 244,-403"/>
<text text-anchor="middle" x="192" y="-391" font-family="Helvetica,sans-Serif" font-size="10.00">ATrain::AddSmoke</text>
</a>
</g>
</g>
<!-- Node1&#45;&gt;Node2 -->
<g id="edge1_Node000001_Node000002" class="edge">
<title>Node1&#45;&gt;Node2</title>
<g id="a_edge1_Node000001_Node000002"><a xlink:title=" ">
<path fill="none" stroke="#63b8ff" d="M39.63,-253.05C46.6,-276.57 67.84,-337.71 108,-369.5 114.59,-374.72 122.28,-378.8 130.26,-382"/>
<polygon fill="#63b8ff" stroke="#63b8ff" points="129.13,-385.31 139.73,-385.36 131.47,-378.71 129.13,-385.31"/>
</a>
</g>
</g>
<!-- Node8 -->
<g id="Node000008" class="node">
<title>Node8</title>
<g id="a_Node000008"><a xlink:href="math__util_8c.html#a151b63b8adf9af7e4054b3b84bd226dc" target="_top" xlink:title=" ">
<polygon fill="white" stroke="#666666" points="590.5,-365 518.5,-365 518.5,-346 590.5,-346 590.5,-365"/>
<text text-anchor="middle" x="554.5" y="-353" font-family="Helvetica,sans-Serif" font-size="10.00">random_int</text>
</a>
</g>
</g>
<!-- Node1&#45;&gt;Node8 -->
<g id="edge15_Node000001_Node000008" class="edge">
<title>Node1&#45;&gt;Node8</title>
<g id="a_edge15_Node000001_Node000008"><a xlink:title=" ">
<path fill="none" stroke="#63b8ff" d="M44,-253.26C55.46,-268.39 79.81,-297.17 108,-310.5 242.46,-374.06 424.76,-367.75 508.3,-360.51"/>
<polygon fill="#63b8ff" stroke="#63b8ff" points="508.83,-363.97 518.47,-359.58 508.19,-357 508.83,-363.97"/>
</a>
</g>
</g>
<!-- Node10 -->
<g id="Node000010" class="node">
<title>Node10</title>
<g id="a_Node000010"><a xlink:href="code__80005FD0_8c.html#a4d94bc63f7aa18a802624ea904548946" target="_top" xlink:title=" ">
<polygon fill="white" stroke="#666666" points="246,-301.5 138,-301.5 138,-271.5 246,-271.5 246,-301.5"/>
<text text-anchor="start" x="146" y="-289.5" font-family="Helvetica,sans-Serif" font-size="10.00">adjust_position_by</text>
<text text-anchor="middle" x="192" y="-278.5" font-family="Helvetica,sans-Serif" font-size="10.00">_angle</text>
</a>
</g>
</g>
<!-- Node1&#45;&gt;Node10 -->
<g id="edge9_Node000001_Node000010" class="edge">
<title>Node1&#45;&gt;Node10</title>
<g id="a_edge9_Node000001_Node000010"><a xlink:title=" ">
<path fill="none" stroke="#63b8ff" d="M71.18,-253.04C87.93,-257.72 108.65,-263.51 128.12,-268.94"/>
<polygon fill="#63b8ff" stroke="#63b8ff" points="127.28,-272.34 137.86,-271.66 129.17,-265.6 127.28,-272.34"/>
</a>
</g>
</g>
<!-- Node13 -->
<g id="Node000013" class="node">
<title>Node13</title>
<g id="a_Node000013"><a xlink:href="external_8c.html#acb60983213d09ee795e80ca3c8b5975e" target="_top" xlink:title=" ">
<polygon fill="white" stroke="#666666" points="238,-253 146,-253 146,-234 238,-234 238,-253"/>
<text text-anchor="middle" x="192" y="-241" font-family="Helvetica,sans-Serif" font-size="10.00">func_800C98B8</text>
</a>
</g>
</g>
<!-- Node1&#45;&gt;Node13 -->
<g id="edge12_Node000001_Node000013" class="edge">
<title>Node1&#45;&gt;Node13</title>
<g id="a_edge12_Node000001_Node000013"><a xlink:title=" ">
<path fill="none" stroke="#63b8ff" d="M72.33,-243.5C91.1,-243.5 114.61,-243.5 135.73,-243.5"/>
<polygon fill="#63b8ff" stroke="#63b8ff" points="135.88,-247 145.88,-243.5 135.88,-240 135.88,-247"/>
</a>
</g>
</g>
<!-- Node16 -->
<g id="Node000016" class="node">
<title>Node16</title>
<g id="a_Node000016"><a xlink:href="code__80005FD0_8c.html#a6f8c9c39fb2e2613ec57cd1bda073e1d" target="_top" xlink:title=" ">
<polygon fill="white" stroke="#666666" points="246.5,-215.5 137.5,-215.5 137.5,-185.5 246.5,-185.5 246.5,-215.5"/>
<text text-anchor="start" x="145.5" y="-203.5" font-family="Helvetica,sans-Serif" font-size="10.00">set_vehicle_render</text>
<text text-anchor="middle" x="192" y="-192.5" font-family="Helvetica,sans-Serif" font-size="10.00">_distance_flags</text>
</a>
</g>
</g>
<!-- Node1&#45;&gt;Node16 -->
<g id="edge16_Node000001_Node000016" class="edge">
<title>Node1&#45;&gt;Node16</title>
<g id="a_edge16_Node000001_Node000016"><a xlink:title=" ">
<path fill="none" stroke="#63b8ff" d="M71.18,-233.96C87.78,-229.32 108.27,-223.6 127.59,-218.21"/>
<polygon fill="#63b8ff" stroke="#63b8ff" points="128.57,-221.57 137.26,-215.51 126.68,-214.82 128.57,-221.57"/>
</a>
</g>
</g>
<!-- Node17 -->
<g id="Node000017" class="node">
<title>Node17</title>
<g id="a_Node000017"><a xlink:href="code__80005FD0_8c.html#a635f355cc0b12fbd4f6eca901ec1dca8" target="_top" xlink:title="sync the train components vehicle with the actor">
<polygon fill="white" stroke="#666666" points="258,-167 126,-167 126,-148 258,-148 258,-167"/>
<text text-anchor="middle" x="192" y="-155" font-family="Helvetica,sans-Serif" font-size="10.00">sync_train_components</text>
</a>
</g>
</g>
<!-- Node1&#45;&gt;Node17 -->
<g id="edge17_Node000001_Node000017" class="edge">
<title>Node1&#45;&gt;Node17</title>
<g id="a_edge17_Node000001_Node000017"><a xlink:title=" ">
<path fill="none" stroke="#63b8ff" d="M44.55,-233.59C56.39,-218.77 80.79,-191.04 108,-176.5 112.45,-174.12 117.19,-172.04 122.06,-170.22"/>
<polygon fill="#63b8ff" stroke="#63b8ff" points="123.18,-173.53 131.55,-167.03 120.95,-166.9 123.18,-173.53"/>
</a>
</g>
</g>
<!-- Node18 -->
<g id="Node000018" class="node">
<title>Node18</title>
<g id="a_Node000018"><a xlink:href="code__80005FD0_8c.html#a777de4239351e9266f8b367ce46cb936" target="_top" xlink:title=" ">
<polygon fill="white" stroke="#666666" points="276,-112 108,-112 108,-93 276,-93 276,-112"/>
<text text-anchor="middle" x="192" y="-100" font-family="Helvetica,sans-Serif" font-size="10.00">update_vehicle_following_path</text>
</a>
</g>
</g>
<!-- Node1&#45;&gt;Node18 -->
<g id="edge18_Node000001_Node000018" class="edge">
<title>Node1&#45;&gt;Node18</title>
<g id="a_edge18_Node000001_Node000018"><a xlink:title=" ">
<path fill="none" stroke="#63b8ff" d="M41.31,-233.87C50.72,-213.81 74.94,-167.1 108,-139.5 120.1,-129.4 135.41,-121.54 149.57,-115.72"/>
<polygon fill="#63b8ff" stroke="#63b8ff" points="151.07,-118.89 159.13,-112.01 148.54,-112.36 151.07,-118.89"/>
</a>
</g>
</g>
<!-- Node3 -->
<g id="Node000003" class="node">
<title>Node3</title>
<g id="a_Node000003"><a xlink:href="update__objects_8c.html#a6e56a43ec98e81db05f2410893efa437" target="_top" xlink:title=" ">
<polygon fill="white" stroke="#666666" points="445.5,-440 317.5,-440 317.5,-421 445.5,-421 445.5,-440"/>
<text text-anchor="middle" x="381.5" y="-428" font-family="Helvetica,sans-Serif" font-size="10.00">add_unused_obj_index</text>
</a>
</g>
</g>
<!-- Node2&#45;&gt;Node3 -->
<g id="edge2_Node000002_Node000003" class="edge">
<title>Node2&#45;&gt;Node3</title>
<g id="a_edge2_Node000002_Node000003"><a xlink:title=" ">
<path fill="none" stroke="#63b8ff" d="M241.29,-403.03C265.9,-407.89 296.04,-413.83 321.97,-418.95"/>
<polygon fill="#63b8ff" stroke="#63b8ff" points="321.56,-422.44 332.05,-420.94 322.92,-415.57 321.56,-422.44"/>
</a>
</g>
</g>
<!-- Node5 -->
<g id="Node000005" class="node">
<title>Node5</title>
<g id="a_Node000005"><a xlink:href="update__objects_8c.html#ad037c2a8787e1f910641893820318379" target="_top" xlink:title=" ">
<polygon fill="white" stroke="#666666" points="430.5,-403 332.5,-403 332.5,-384 430.5,-384 430.5,-403"/>
<text text-anchor="middle" x="381.5" y="-391" font-family="Helvetica,sans-Serif" font-size="10.00">init_train_smoke</text>
</a>
</g>
</g>
<!-- Node2&#45;&gt;Node5 -->
<g id="edge4_Node000002_Node000005" class="edge">
<title>Node2&#45;&gt;Node5</title>
<g id="a_edge4_Node000002_Node000005"><a xlink:title=" ">
<path fill="none" stroke="#63b8ff" d="M244.24,-393.5C268.35,-393.5 297.22,-393.5 322.16,-393.5"/>
<polygon fill="#63b8ff" stroke="#63b8ff" points="322.23,-397 332.23,-393.5 322.23,-390 322.23,-397"/>
</a>
</g>
</g>
<!-- Node4 -->
<g id="Node000004" class="node">
<title>Node4</title>
<g id="a_Node000004"><a xlink:href="update__objects_8c.html#a92856990c4ca5fba1b8e0c61ca832c27" target="_top" xlink:title=" ">
<polygon fill="white" stroke="#666666" points="618.5,-440 490.5,-440 490.5,-421 618.5,-421 618.5,-440"/>
<text text-anchor="middle" x="554.5" y="-428" font-family="Helvetica,sans-Serif" font-size="10.00">find_unused_obj_index</text>
</a>
</g>
</g>
<!-- Node3&#45;&gt;Node4 -->
<g id="edge3_Node000003_Node000004" class="edge">
<title>Node3&#45;&gt;Node4</title>
<g id="a_edge3_Node000003_Node000004"><a xlink:title=" ">
<path fill="none" stroke="#63b8ff" d="M445.69,-430.5C456.95,-430.5 468.76,-430.5 480.27,-430.5"/>
<polygon fill="#63b8ff" stroke="#63b8ff" points="480.29,-434 490.29,-430.5 480.29,-427 480.29,-434"/>
</a>
</g>
</g>
<!-- Node6 -->
<g id="Node000006" class="node">
<title>Node6</title>
<g id="a_Node000006"><a xlink:href="update__objects_8c.html#abdebd086b5ff081f83af3d9205f39cd3" target="_top" xlink:title=" ">
<polygon fill="white" stroke="#666666" points="588.5,-403 520.5,-403 520.5,-384 588.5,-384 588.5,-403"/>
<text text-anchor="middle" x="554.5" y="-391" font-family="Helvetica,sans-Serif" font-size="10.00">init_object</text>
</a>
</g>
</g>
<!-- Node5&#45;&gt;Node6 -->
<g id="edge5_Node000005_Node000006" class="edge">
<title>Node5&#45;&gt;Node6</title>
<g id="a_edge5_Node000005_Node000006"><a xlink:title=" ">
<path fill="none" stroke="#63b8ff" d="M430.59,-393.5C455.65,-393.5 486.07,-393.5 510.37,-393.5"/>
<polygon fill="#63b8ff" stroke="#63b8ff" points="510.37,-397 520.37,-393.5 510.37,-390 510.37,-397"/>
</a>
</g>
</g>
<!-- Node5&#45;&gt;Node8 -->
<g id="edge7_Node000005_Node000008" class="edge">
<title>Node5&#45;&gt;Node8</title>
<g id="a_edge7_Node000005_Node000008"><a xlink:title=" ">
<path fill="none" stroke="#63b8ff" d="M425.65,-383.91C450.98,-378.28 482.95,-371.18 508.58,-365.48"/>
<polygon fill="#63b8ff" stroke="#63b8ff" points="509.42,-368.88 518.42,-363.3 507.9,-362.05 509.42,-368.88"/>
</a>
</g>
</g>
<!-- Node7 -->
<g id="Node000007" class="node">
<title>Node7</title>
<g id="a_Node000007"><a xlink:href="update__objects_8c.html#af20e3f3c403dd4fbea56e358997e515a" target="_top" xlink:title=" ">
<polygon fill="white" stroke="#666666" points="786,-403 658,-403 658,-384 786,-384 786,-403"/>
<text text-anchor="middle" x="722" y="-391" font-family="Helvetica,sans-Serif" font-size="10.00">set_object_timer_state</text>
</a>
</g>
</g>
<!-- Node6&#45;&gt;Node7 -->
<g id="edge6_Node000006_Node000007" class="edge">
<title>Node6&#45;&gt;Node7</title>
<g id="a_edge6_Node000006_Node000007"><a xlink:title=" ">
<path fill="none" stroke="#63b8ff" d="M588.59,-393.5C605.62,-393.5 627.09,-393.5 647.76,-393.5"/>
<polygon fill="#63b8ff" stroke="#63b8ff" points="647.82,-397 657.82,-393.5 647.82,-390 647.82,-397"/>
</a>
</g>
</g>
<!-- Node9 -->
<g id="Node000009" class="node">
<title>Node9</title>
<g id="a_Node000009"><a xlink:href="math__util_8c.html#a062850863585005ad1d0a75d9ff70693" target="_top" xlink:title=" ">
<polygon fill="white" stroke="#666666" points="760.5,-365 683.5,-365 683.5,-346 760.5,-346 760.5,-365"/>
<text text-anchor="middle" x="722" y="-353" font-family="Helvetica,sans-Serif" font-size="10.00">random_u16</text>
</a>
</g>
</g>
<!-- Node8&#45;&gt;Node9 -->
<g id="edge8_Node000008_Node000009" class="edge">
<title>Node8&#45;&gt;Node9</title>
<g id="a_edge8_Node000008_Node000009"><a xlink:title=" ">
<path fill="none" stroke="#63b8ff" d="M590.6,-355.5C614.64,-355.5 646.82,-355.5 673.2,-355.5"/>
<polygon fill="#63b8ff" stroke="#63b8ff" points="673.36,-359 683.36,-355.5 673.36,-352 673.36,-359"/>
</a>
</g>
</g>
<!-- Node11 -->
<g id="Node000011" class="node">
<title>Node11</title>
<g id="a_Node000011"><a xlink:href="math__util_8c.html#ae69cbf5c8d4b3b0dba2d7b4d4673689f" target="_top" xlink:title=" ">
<polygon fill="white" stroke="#666666" points="400.5,-327 362.5,-327 362.5,-308 400.5,-308 400.5,-327"/>
<text text-anchor="middle" x="381.5" y="-315" font-family="Helvetica,sans-Serif" font-size="10.00">coss</text>
</a>
</g>
</g>
<!-- Node10&#45;&gt;Node11 -->
<g id="edge10_Node000010_Node000011" class="edge">
<title>Node10&#45;&gt;Node11</title>
<g id="a_edge10_Node000010_Node000011"><a xlink:title=" ">
<path fill="none" stroke="#63b8ff" d="M246.23,-295.3C280.79,-301.01 324.45,-308.23 352.43,-312.86"/>
<polygon fill="#63b8ff" stroke="#63b8ff" points="351.89,-316.32 362.33,-314.5 353.03,-309.41 351.89,-316.32"/>
</a>
</g>
</g>
<!-- Node12 -->
<g id="Node000012" class="node">
<title>Node12</title>
<g id="a_Node000012"><a xlink:href="math__util_8c.html#a19ed3bd78fd2d3e2bd0a29f6caf48545" target="_top" xlink:title=" ">
<polygon fill="white" stroke="#666666" points="399.5,-290 363.5,-290 363.5,-271 399.5,-271 399.5,-290"/>
<text text-anchor="middle" x="381.5" y="-278" font-family="Helvetica,sans-Serif" font-size="10.00">sins</text>
</a>
</g>
</g>
<!-- Node10&#45;&gt;Node12 -->
<g id="edge11_Node000010_Node000012" class="edge">
<title>Node10&#45;&gt;Node12</title>
<g id="a_edge11_Node000010_Node000012"><a xlink:title=" ">
<path fill="none" stroke="#63b8ff" d="M246.23,-284.8C281.02,-283.68 325.03,-282.28 352.98,-281.38"/>
<polygon fill="#63b8ff" stroke="#63b8ff" points="353.32,-284.87 363.21,-281.05 353.1,-277.88 353.32,-284.87"/>
</a>
</g>
</g>
<!-- Node14 -->
<g id="Node000014" class="node">
<title>Node14</title>
<g id="a_Node000014"><a xlink:href="external_8c.html#a747de0be4005b4b29150d5c068564b7d" target="_top" xlink:title=" ">
<polygon fill="white" stroke="#666666" points="427.5,-253 335.5,-253 335.5,-234 427.5,-234 427.5,-253"/>
<text text-anchor="middle" x="381.5" y="-241" font-family="Helvetica,sans-Serif" font-size="10.00">func_800C1C88</text>
</a>
</g>
</g>
<!-- Node13&#45;&gt;Node14 -->
<g id="edge13_Node000013_Node000014" class="edge">
<title>Node13&#45;&gt;Node14</title>
<g id="a_edge13_Node000013_Node000014"><a xlink:title=" ">
<path fill="none" stroke="#63b8ff" d="M238.39,-243.5C264.43,-243.5 297.33,-243.5 324.92,-243.5"/>
<polygon fill="#63b8ff" stroke="#63b8ff" points="325.2,-247 335.2,-243.5 325.2,-240 325.2,-247"/>
</a>
</g>
</g>
<!-- Node15 -->
<g id="Node000015" class="node">
<title>Node15</title>
<g id="a_Node000015"><a xlink:href="external_8c.html#a475cff796211891556f52877cd8e9b9e" target="_top" xlink:title=" ">
<polygon fill="white" stroke="#666666" points="417.5,-216 345.5,-216 345.5,-197 417.5,-197 417.5,-216"/>
<text text-anchor="middle" x="381.5" y="-204" font-family="Helvetica,sans-Serif" font-size="10.00">play_sound</text>
</a>
</g>
</g>
<!-- Node13&#45;&gt;Node15 -->
<g id="edge14_Node000013_Node000015" class="edge">
<title>Node13&#45;&gt;Node15</title>
<g id="a_edge14_Node000013_Node000015"><a xlink:title=" ">
<path fill="none" stroke="#63b8ff" d="M238.39,-234.54C267.76,-228.75 305.86,-221.23 335.22,-215.44"/>
<polygon fill="#63b8ff" stroke="#63b8ff" points="336.08,-218.83 345.21,-213.46 334.72,-211.97 336.08,-218.83"/>
</a>
</g>
</g>
<!-- Node19 -->
<g id="Node000019" class="node">
<title>Node19</title>
<g id="a_Node000019"><a xlink:href="code__80005FD0_8c.html#ade9dca16c41c3d924b84f32a203ba823" target="_top" xlink:title=" ">
<polygon fill="white" stroke="#666666" points="441.5,-178.5 321.5,-178.5 321.5,-148.5 441.5,-148.5 441.5,-178.5"/>
<text text-anchor="start" x="329.5" y="-166.5" font-family="Helvetica,sans-Serif" font-size="10.00">find_closest_vehicles</text>
<text text-anchor="middle" x="381.5" y="-155.5" font-family="Helvetica,sans-Serif" font-size="10.00">_path_point</text>
</a>
</g>
</g>
<!-- Node18&#45;&gt;Node19 -->
<g id="edge19_Node000018_Node000019" class="edge">
<title>Node18&#45;&gt;Node19</title>
<g id="a_edge19_Node000018_Node000019"><a xlink:title=" ">
<path fill="none" stroke="#63b8ff" d="M222.3,-112.03C249.58,-120.91 290.97,-134.37 324.57,-145.3"/>
<polygon fill="#63b8ff" stroke="#63b8ff" points="323.68,-148.69 334.27,-148.46 325.85,-142.04 323.68,-148.69"/>
</a>
</g>
</g>
<!-- Node20 -->
<g id="Node000020" class="node">
<title>Node20</title>
<g id="a_Node000020"><a xlink:href="code__80005FD0_8c.html#a79cd9c001e0a06c9cab23fe2cf070abf" target="_top" xlink:title=" ">
<polygon fill="white" stroke="#666666" points="451,-130 312,-130 312,-111 451,-111 451,-130"/>
<text text-anchor="middle" x="381.5" y="-118" font-family="Helvetica,sans-Serif" font-size="10.00">get_angle_between_path</text>
</a>
</g>
</g>
<!-- Node18&#45;&gt;Node20 -->
<g id="edge20_Node000018_Node000020" class="edge">
<title>Node18&#45;&gt;Node20</title>
<g id="a_edge20_Node000018_Node000020"><a xlink:title=" ">
<path fill="none" stroke="#63b8ff" d="M276.06,-110.47C284.56,-111.29 293.17,-112.12 301.62,-112.93"/>
<polygon fill="#63b8ff" stroke="#63b8ff" points="301.54,-116.44 311.82,-113.91 302.2,-109.47 301.54,-116.44"/>
</a>
</g>
</g>
<!-- Node24 -->
<g id="Node000024" class="node">
<title>Node24</title>
<g id="a_Node000024"><a xlink:href="Game_8cpp.html#a545c1a384e93cc7b616dfee707f5d962" target="_top" xlink:title=" ">
<polygon fill="white" stroke="#666666" points="415.5,-93 347.5,-93 347.5,-74 415.5,-74 415.5,-93"/>
<text text-anchor="middle" x="381.5" y="-81" font-family="Helvetica,sans-Serif" font-size="10.00">IsDkJungle</text>
</a>
</g>
</g>
<!-- Node18&#45;&gt;Node24 -->
<g id="edge24_Node000018_Node000024" class="edge">
<title>Node18&#45;&gt;Node24</title>
<g id="a_edge24_Node000018_Node000024"><a xlink:title=" ">
<path fill="none" stroke="#63b8ff" d="M276.06,-94.08C297.12,-91.95 318.91,-89.74 337.1,-87.9"/>
<polygon fill="#63b8ff" stroke="#63b8ff" points="337.49,-91.38 347.09,-86.89 336.78,-84.41 337.49,-91.38"/>
</a>
</g>
</g>
<!-- Node25 -->
<g id="Node000025" class="node">
<title>Node25</title>
<g id="a_Node000025"><a xlink:href="Game_8cpp.html#ad474b8b257813cceeae25ab5205273c4" target="_top" xlink:title=" ">
<polygon fill="white" stroke="#666666" points="430.5,-56 332.5,-56 332.5,-37 430.5,-37 430.5,-56"/>
<text text-anchor="middle" x="381.5" y="-44" font-family="Helvetica,sans-Serif" font-size="10.00">IsKalimariDesert</text>
</a>
</g>
</g>
<!-- Node18&#45;&gt;Node25 -->
<g id="edge25_Node000018_Node000025" class="edge">
<title>Node18&#45;&gt;Node25</title>
<g id="a_edge25_Node000018_Node000025"><a xlink:title=" ">
<path fill="none" stroke="#63b8ff" d="M222.75,-92.97C246.78,-85.34 281.49,-74.47 312,-65.5 319.58,-63.27 327.64,-60.97 335.48,-58.77"/>
<polygon fill="#63b8ff" stroke="#63b8ff" points="336.55,-62.11 345.24,-56.06 334.67,-55.37 336.55,-62.11"/>
</a>
</g>
</g>
<!-- Node26 -->
<g id="Node000026" class="node">
<title>Node26</title>
<g id="a_Node000026"><a xlink:href="math_8h.html#a37bde043e94a6f074c78f10518fb5d99" target="_top" xlink:title=" ">
<polygon fill="white" stroke="#666666" points="401,-19 362,-19 362,0 401,0 401,-19"/>
<text text-anchor="middle" x="381.5" y="-7" font-family="Helvetica,sans-Serif" font-size="10.00">sqrtf</text>
</a>
</g>
</g>
<!-- Node18&#45;&gt;Node26 -->
<g id="edge26_Node000018_Node000026" class="edge">
<title>Node18&#45;&gt;Node26</title>
<g id="a_edge26_Node000018_Node000026"><a xlink:title=" ">
<path fill="none" stroke="#63b8ff" d="M205.87,-92.75C226.99,-77.18 270.78,-46.58 312,-28.5 324.71,-22.92 339.48,-18.58 352.04,-15.46"/>
<polygon fill="#63b8ff" stroke="#63b8ff" points="353.05,-18.82 361.98,-13.13 351.45,-12 353.05,-18.82"/>
</a>
</g>
</g>
<!-- Node21 -->
<g id="Node000021" class="node">
<title>Node21</title>
<g id="a_Node000021"><a xlink:href="math__util_8c.html#a84cf9d4ec33146a64c230ed4cec56632" target="_top" xlink:title=" ">
<polygon fill="white" stroke="#666666" points="622,-135.5 487,-135.5 487,-105.5 622,-105.5 622,-135.5"/>
<text text-anchor="start" x="495" y="-123.5" font-family="Helvetica,sans-Serif" font-size="10.00">get_angle_between_two</text>
<text text-anchor="middle" x="554.5" y="-112.5" font-family="Helvetica,sans-Serif" font-size="10.00">_vectors</text>
</a>
</g>
</g>
<!-- Node20&#45;&gt;Node21 -->
<g id="edge21_Node000020_Node000021" class="edge">
<title>Node20&#45;&gt;Node21</title>
<g id="a_edge21_Node000020_Node000021"><a xlink:title=" ">
<path fill="none" stroke="#63b8ff" d="M451.07,-120.5C459.55,-120.5 468.26,-120.5 476.85,-120.5"/>
<polygon fill="#63b8ff" stroke="#63b8ff" points="476.86,-124 486.86,-120.5 476.86,-117 476.86,-124"/>
</a>
</g>
</g>
<!-- Node22 -->
<g id="Node000022" class="node">
<title>Node22</title>
<g id="a_Node000022"><a xlink:href="math__util_8c.html#aaa39a297477f56051975259f4bddd829" target="_top" xlink:title=" ">
<polygon fill="white" stroke="#666666" points="747,-130 697,-130 697,-111 747,-111 747,-130"/>
<text text-anchor="middle" x="722" y="-118" font-family="Helvetica,sans-Serif" font-size="10.00">atan2s</text>
</a>
</g>
</g>
<!-- Node21&#45;&gt;Node22 -->
<g id="edge22_Node000021_Node000022" class="edge">
<title>Node21&#45;&gt;Node22</title>
<g id="a_edge22_Node000021_Node000022"><a xlink:title=" ">
<path fill="none" stroke="#63b8ff" d="M622.34,-120.5C644.49,-120.5 668.22,-120.5 686.86,-120.5"/>
<polygon fill="#63b8ff" stroke="#63b8ff" points="686.92,-124 696.92,-120.5 686.92,-117 686.92,-124"/>
</a>
</g>
</g>
<!-- Node23 -->
<g id="Node000023" class="node">
<title>Node23</title>
<g id="a_Node000023"><a xlink:href="math__util_8c.html#a0273b0ea0783a06996c28669a7438ed9" target="_top" xlink:title=" ">
<polygon fill="white" stroke="#666666" points="904,-130 822,-130 822,-111 904,-111 904,-130"/>
<text text-anchor="middle" x="863" y="-118" font-family="Helvetica,sans-Serif" font-size="10.00">atan2_lookup</text>
</a>
</g>
</g>
<!-- Node22&#45;&gt;Node23 -->
<g id="edge23_Node000022_Node000023" class="edge">
<title>Node22&#45;&gt;Node23</title>
<g id="a_edge23_Node000022_Node000023"><a xlink:title=" ">
<path fill="none" stroke="#63b8ff" d="M747.21,-120.5C764.94,-120.5 789.63,-120.5 811.57,-120.5"/>
<polygon fill="#63b8ff" stroke="#63b8ff" points="811.75,-124 821.75,-120.5 811.75,-117 811.75,-124"/>
</a>
</g>
</g>
</g>
</svg>
