<?xml version="1.0" encoding="UTF-8" standalone="no"?>
<!DOCTYPE svg PUBLIC "-//W3C//DTD SVG 1.1//EN"
 "http://www.w3.org/Graphics/SVG/1.1/DTD/svg11.dtd">
<!-- Generated by graphviz version 2.43.0 (0)
 -->
<!-- Title: Skyscraper::BeginPlay Pages: 1 -->
<!--zoomable 459 -->

<svg id="main" version="1.1" xmlns="http://www.w3.org/2000/svg" xmlns:xlink="http://www.w3.org/1999/xlink" xml:space="preserve" onload="init(evt)">

<style type="text/css"><![CDATA[
.node, .edge {opacity: 0.7;}
.node.selected, .edge.selected {opacity: 1;}
.edge:hover path { stroke: red; }
.edge:hover polygon { stroke: red; fill: red; }
]]></style>

<defs>
  <circle id="rim" cx="0" cy="0" r="7"/>
  <circle id="rim2" cx="0" cy="0" r="3.5"/>
  <g id="zoomPlus">
    <use xlink:href="#rim" fill="#404040"><set attributeName="fill" to="#808080" begin="zoomplus.mouseover" end="zoomplus.mouseout"/></use>
    <path d="M-4,0h8M0,-4v8" fill="none" stroke="white" stroke-width="1.5" pointer-events="none"/>
  </g>
  <g id="zoomMin">
    <use xlink:href="#rim" fill="#404040"><set attributeName="fill" to="#808080" begin="zoomminus.mouseover" end="zoomminus.mouseout"/></use>
    <path d="M-4,0h8" fill="none" stroke="white" stroke-width="1.5" pointer-events="none"/>
  </g>
  <g id="arrowUp" transform="translate(30 24)">
    <use xlink:href="#rim"/>
    <path pointer-events="none" fill="none" stroke="white" stroke-width="1.5" d="M0,-3.0v7 M-2.5,-0.5L0,-3.0L2.5,-0.5"/>
  </g>
  <g id="arrowRight" transform="rotate(90) translate(36 -43)">
    <use xlink:href="#rim"/>
    <path pointer-events="none" fill="none" stroke="white" stroke-width="1.5" d="M0,-3.0v7 M-2.5,-0.5L0,-3.0L2.5,-0.5"/>
  </g>
  <g id="arrowDown" transform="rotate(180) translate(-30 -48)">
    <use xlink:href="#rim"/>
    <path pointer-events="none" fill="none" stroke="white" stroke-width="1.5" d="M0,-3.0v7 M-2.5,-0.5L0,-3.0L2.5,-0.5"/>
  </g>
  <g id="arrowLeft" transform="rotate(270) translate(-36 17)">
    <use xlink:href="#rim"/>
    <path pointer-events="none" fill="none" stroke="white" stroke-width="1.5" d="M0,-3.0v7 M-2.5,-0.5L0,-3.0L2.5,-0.5"/>
  </g>
  <g id="resetDef">
    <use xlink:href="#rim2" fill="#404040"><set attributeName="fill" to="#808080" begin="reset.mouseover" end="reset.mouseout"/></use>
  </g>
</defs>
<script type="application/ecmascript">
var viewWidth = 1760;
var viewHeight = 459;
var sectionId = 'dynsection-3';
</script>
<script type="application/ecmascript" xlink:href="svg.min.js"/>
<svg id="graph" class="graph">
<g id="viewport">
<title>Skyscraper::BeginPlay</title>
<!-- Node1 -->
<g id="Node000001" class="node">
<title>Node1</title>
<g id="a_Node000001"><a xlink:title=" ">
<polygon fill="#999999" stroke="#666666" points="125,-230 0,-230 0,-211 125,-211 125,-230"/>
<text text-anchor="middle" x="62.5" y="-218" font-family="Helvetica,sans-Serif" font-size="10.00">Skyscraper::BeginPlay</text>
</a>
</g>
</g>
<!-- Node2 -->
<g id="Node000002" class="node">
<title>Node2</title>
<g id="a_Node000002"><a xlink:href="classOBombKart.html#a9fa11c43dd1885221b160bd688eceff0" target="_top" xlink:title=" ">
<polygon fill="white" stroke="#666666" points="280,-312 169,-312 169,-293 280,-293 280,-312"/>
<text text-anchor="middle" x="224.5" y="-300" font-family="Helvetica,sans-Serif" font-size="10.00">OBombKart::Spawn</text>
</a>
</g>
</g>
<!-- Node1&#45;&gt;Node2 -->
<g id="edge1_Node000001_Node000002" class="edge">
<title>Node1&#45;&gt;Node2</title>
<g id="a_edge1_Node000001_Node000002"><a xlink:title=" ">
<path fill="none" stroke="#63b8ff" d="M82.17,-230.07C110.23,-244.45 163.45,-271.72 195.97,-288.39"/>
<polygon fill="#63b8ff" stroke="#63b8ff" points="194.46,-291.55 204.95,-292.99 197.65,-285.32 194.46,-291.55"/>
</a>
</g>
</g>
<!-- Node10 -->
<g id="Node000010" class="node">
<title>Node10</title>
<g id="a_Node000010"><a xlink:href="actors_8c.html#ac586c2534258d0f108e15fd88751b760" target="_top" xlink:title=" ">
<polygon fill="white" stroke="#666666" points="288,-212 161,-212 161,-193 288,-193 288,-212"/>
<text text-anchor="middle" x="224.5" y="-200" font-family="Helvetica,sans-Serif" font-size="10.00">spawn_all_item_boxes</text>
</a>
</g>
</g>
<!-- Node1&#45;&gt;Node10 -->
<g id="edge9_Node000001_Node000010" class="edge">
<title>Node1&#45;&gt;Node10</title>
<g id="a_edge9_Node000001_Node000010"><a xlink:title=" ">
<path fill="none" stroke="#63b8ff" d="M125.36,-213.54C133.61,-212.61 142.14,-211.65 150.56,-210.71"/>
<polygon fill="#63b8ff" stroke="#63b8ff" points="151.2,-214.16 160.75,-209.56 150.42,-207.2 151.2,-214.16"/>
</a>
</g>
</g>
<!-- Node3 -->
<g id="Node000003" class="node">
<title>Node3</title>
<g id="a_Node000003"><a xlink:href="classOBombKart.html#a1566e8d56318b18ad900fbbac9966d9d" target="_top" xlink:title=" ">
<polygon fill="white" stroke="#666666" points="461.5,-395 326.5,-395 326.5,-376 461.5,-376 461.5,-395"/>
<text text-anchor="middle" x="394" y="-383" font-family="Helvetica,sans-Serif" font-size="10.00">OBombKart::OBombKart</text>
</a>
</g>
</g>
<!-- Node2&#45;&gt;Node3 -->
<g id="edge2_Node000002_Node000003" class="edge">
<title>Node2&#45;&gt;Node3</title>
<g id="a_edge2_Node000002_Node000003"><a xlink:title=" ">
<path fill="none" stroke="#63b8ff" d="M244.71,-312.02C274.17,-326.62 330.65,-354.6 364.76,-371.51"/>
<polygon fill="#63b8ff" stroke="#63b8ff" points="363.24,-374.66 373.75,-375.96 366.35,-368.39 363.24,-374.66"/>
</a>
</g>
</g>
<!-- Node4 -->
<g id="Node000004" class="node">
<title>Node4</title>
<g id="a_Node000004"><a xlink:href="collision_8c.html#a37aa55b3768d001533ad75e7f1b8388a" target="_top" xlink:title=" ">
<polygon fill="white" stroke="#666666" points="815,-350 674,-350 674,-331 815,-331 815,-350"/>
<text text-anchor="middle" x="744.5" y="-338" font-family="Helvetica,sans-Serif" font-size="10.00">check_bounding_collision</text>
</a>
</g>
</g>
<!-- Node3&#45;&gt;Node4 -->
<g id="edge3_Node000003_Node000004" class="edge">
<title>Node3&#45;&gt;Node4</title>
<g id="a_edge3_Node000003_Node000004"><a xlink:title=" ">
<path fill="none" stroke="#63b8ff" d="M461.78,-376.88C519.45,-369.43 602.87,-358.66 663.97,-350.77"/>
<polygon fill="#63b8ff" stroke="#63b8ff" points="664.49,-354.23 673.96,-349.48 663.59,-347.29 664.49,-354.23"/>
</a>
</g>
</g>
<!-- Node8 -->
<g id="Node000008" class="node">
<title>Node8</title>
<g id="a_Node000008"><a xlink:href="update__objects_8c.html#a92856990c4ca5fba1b8e0c61ca832c27" target="_top" xlink:title=" ">
<polygon fill="white" stroke="#666666" points="633,-451 505,-451 505,-432 633,-432 633,-451"/>
<text text-anchor="middle" x="569" y="-439" font-family="Helvetica,sans-Serif" font-size="10.00">find_unused_obj_index</text>
</a>
</g>
</g>
<!-- Node3&#45;&gt;Node8 -->
<g id="edge7_Node000003_Node000008" class="edge">
<title>Node3&#45;&gt;Node8</title>
<g id="a_edge7_Node000003_Node000008"><a xlink:title=" ">
<path fill="none" stroke="#63b8ff" d="M419.4,-395.03C440.55,-403.11 472.06,-414.77 500,-423.5 506.42,-425.51 513.23,-427.48 519.96,-429.35"/>
<polygon fill="#63b8ff" stroke="#63b8ff" points="519.14,-432.76 529.71,-432 520.97,-426 519.14,-432.76"/>
</a>
</g>
</g>
<!-- Node9 -->
<g id="Node000009" class="node">
<title>Node9</title>
<g id="a_Node000009"><a xlink:href="classOObject.html#a629d0dcbb210e289cdf541a91321c86b" target="_top" xlink:title=" ">
<polygon fill="white" stroke="#666666" points="619.5,-414 518.5,-414 518.5,-395 619.5,-395 619.5,-414"/>
<text text-anchor="middle" x="569" y="-402" font-family="Helvetica,sans-Serif" font-size="10.00">OObject::OObject</text>
</a>
</g>
</g>
<!-- Node3&#45;&gt;Node9 -->
<g id="edge8_Node000003_Node000009" class="edge">
<title>Node3&#45;&gt;Node9</title>
<g id="a_edge8_Node000003_Node000009"><a xlink:title=" ">
<path fill="none" stroke="#63b8ff" d="M461.89,-392.85C477.18,-394.53 493.34,-396.3 508.31,-397.94"/>
<polygon fill="#63b8ff" stroke="#63b8ff" points="508.14,-401.45 518.46,-399.06 508.91,-394.49 508.14,-401.45"/>
</a>
</g>
</g>
<!-- Node5 -->
<g id="Node000005" class="node">
<title>Node5</title>
<g id="a_Node000005"><a xlink:href="collision_8c.html#ac312bf382cb40752f6b790a99e7cdcb6" target="_top" xlink:title=" ">
<polygon fill="white" stroke="#666666" points="978,-350 870,-350 870,-331 978,-331 978,-350"/>
<text text-anchor="middle" x="924" y="-338" font-family="Helvetica,sans-Serif" font-size="10.00">check_collision_yx</text>
</a>
</g>
</g>
<!-- Node4&#45;&gt;Node5 -->
<g id="edge4_Node000004_Node000005" class="edge">
<title>Node4&#45;&gt;Node5</title>
<g id="a_edge4_Node000004_Node000005"><a xlink:title=" ">
<path fill="none" stroke="#63b8ff" d="M815.14,-340.5C829.76,-340.5 845.1,-340.5 859.48,-340.5"/>
<polygon fill="#63b8ff" stroke="#63b8ff" points="859.75,-344 869.75,-340.5 859.75,-337 859.75,-344"/>
</a>
</g>
</g>
<!-- Node6 -->
<g id="Node000006" class="node">
<title>Node6</title>
<g id="a_Node000006"><a xlink:href="collision_8c.html#a4b48832a90e984536a0635a016ec4f28" target="_top" xlink:title=" ">
<polygon fill="white" stroke="#666666" points="977.5,-313 870.5,-313 870.5,-294 977.5,-294 977.5,-313"/>
<text text-anchor="middle" x="924" y="-301" font-family="Helvetica,sans-Serif" font-size="10.00">check_collision_zx</text>
</a>
</g>
</g>
<!-- Node4&#45;&gt;Node6 -->
<g id="edge5_Node000004_Node000006" class="edge">
<title>Node4&#45;&gt;Node6</title>
<g id="a_edge5_Node000004_Node000006"><a xlink:title=" ">
<path fill="none" stroke="#63b8ff" d="M791.21,-330.97C814.41,-326.14 842.79,-320.22 867.27,-315.12"/>
<polygon fill="#63b8ff" stroke="#63b8ff" points="868.06,-318.53 877.14,-313.06 866.63,-311.67 868.06,-318.53"/>
</a>
</g>
</g>
<!-- Node7 -->
<g id="Node000007" class="node">
<title>Node7</title>
<g id="a_Node000007"><a xlink:href="collision_8c.html#a21fef964ab48191a1c0341954ef27a40" target="_top" xlink:title=" ">
<polygon fill="white" stroke="#666666" points="977.5,-387 870.5,-387 870.5,-368 977.5,-368 977.5,-387"/>
<text text-anchor="middle" x="924" y="-375" font-family="Helvetica,sans-Serif" font-size="10.00">check_collision_zy</text>
</a>
</g>
</g>
<!-- Node4&#45;&gt;Node7 -->
<g id="edge6_Node000004_Node000007" class="edge">
<title>Node4&#45;&gt;Node7</title>
<g id="a_edge6_Node000004_Node000007"><a xlink:title=" ">
<path fill="none" stroke="#63b8ff" d="M791.21,-350.03C814.41,-354.86 842.79,-360.78 867.27,-365.88"/>
<polygon fill="#63b8ff" stroke="#63b8ff" points="866.63,-369.33 877.14,-367.94 868.06,-362.47 866.63,-369.33"/>
</a>
</g>
</g>
<!-- Node11 -->
<g id="Node000011" class="node">
<title>Node11</title>
<g id="a_Node000011"><a xlink:href="actors_8c.html#a91fb2e4e37e7c72fea918fe2c1bb4eaf" target="_top" xlink:title=" ">
<polygon fill="white" stroke="#666666" points="464,-172 324,-172 324,-153 464,-153 464,-172"/>
<text text-anchor="middle" x="394" y="-160" font-family="Helvetica,sans-Serif" font-size="10.00">add_actor_to_empty_slot</text>
</a>
</g>
</g>
<!-- Node10&#45;&gt;Node11 -->
<g id="edge10_Node000010_Node000011" class="edge">
<title>Node10&#45;&gt;Node11</title>
<g id="a_edge10_Node000010_Node000011"><a xlink:title=" ">
<path fill="none" stroke="#63b8ff" d="M265.62,-192.92C288.93,-187.35 318.49,-180.29 343.27,-174.38"/>
<polygon fill="#63b8ff" stroke="#63b8ff" points="344.29,-177.73 353.21,-172 342.67,-170.92 344.29,-177.73"/>
</a>
</g>
</g>
<!-- Node14 -->
<g id="Node000014" class="node">
<title>Node14</title>
<g id="a_Node000014"><a xlink:href="Game_8cpp.html#a693de7d8b89fe291aafea86bc64a0a2e" target="_top" xlink:title=" ">
<polygon fill="white" stroke="#666666" points="964,-253 884,-253 884,-234 964,-234 964,-253"/>
<text text-anchor="middle" x="924" y="-241" font-family="Helvetica,sans-Serif" font-size="10.00">CM_GetActor</text>
</a>
</g>
</g>
<!-- Node10&#45;&gt;Node14 -->
<g id="edge33_Node000010_Node000014" class="edge">
<title>Node10&#45;&gt;Node14</title>
<g id="a_edge33_Node000010_Node000014"><a xlink:title=" ">
<path fill="none" stroke="#63b8ff" d="M288.01,-206.17C424.96,-214.22 749.13,-233.28 873.36,-240.58"/>
<polygon fill="#63b8ff" stroke="#63b8ff" points="873.52,-244.1 883.71,-241.19 873.93,-237.11 873.52,-244.1"/>
</a>
</g>
</g>
<!-- Node27 -->
<g id="Node000027" class="node">
<title>Node27</title>
<g id="a_Node000027"><a xlink:href="math__util_8c.html#a79fd07a0971ec96a3ff0801963a2fa7f" target="_top" xlink:title=" ">
<polygon fill="white" stroke="#666666" points="956,-76 892,-76 892,-57 956,-57 956,-76"/>
<text text-anchor="middle" x="924" y="-64" font-family="Helvetica,sans-Serif" font-size="10.00">vec3f_set</text>
</a>
</g>
</g>
<!-- Node10&#45;&gt;Node27 -->
<g id="edge38_Node000010_Node000027" class="edge">
<title>Node10&#45;&gt;Node27</title>
<g id="a_edge38_Node000010_Node000027"><a xlink:title=" ">
<path fill="none" stroke="#63b8ff" d="M239.19,-192.81C277.82,-166.17 391.96,-92.26 500,-69.5 637.27,-40.58 805.19,-53.15 881.6,-61.39"/>
<polygon fill="#63b8ff" stroke="#63b8ff" points="881.44,-64.89 891.76,-62.52 882.21,-57.94 881.44,-64.89"/>
</a>
</g>
</g>
<!-- Node33 -->
<g id="Node000033" class="node">
<title>Node33</title>
<g id="a_Node000033"><a xlink:href="math__util_8c.html#a062850863585005ad1d0a75d9ff70693" target="_top" xlink:title=" ">
<polygon fill="white" stroke="#666666" points="432.5,-19 355.5,-19 355.5,0 432.5,0 432.5,-19"/>
<text text-anchor="middle" x="394" y="-7" font-family="Helvetica,sans-Serif" font-size="10.00">random_u16</text>
</a>
</g>
</g>
<!-- Node10&#45;&gt;Node33 -->
<g id="edge34_Node000010_Node000033" class="edge">
<title>Node10&#45;&gt;Node33</title>
<g id="a_edge34_Node000010_Node000033"><a xlink:title=" ">
<path fill="none" stroke="#63b8ff" d="M228.43,-192.89C237.64,-164.32 268.69,-79.05 324,-33.5 330.4,-28.23 338.04,-24.08 345.86,-20.83"/>
<polygon fill="#63b8ff" stroke="#63b8ff" points="347.25,-24.05 355.42,-17.3 344.83,-17.48 347.25,-24.05"/>
</a>
</g>
</g>
<!-- Node34 -->
<g id="Node000034" class="node">
<title>Node34</title>
<g id="a_Node000034"><a xlink:href="collision_8c.html#ad95e9ed2051529d5edee26109fa07427" target="_top" xlink:title=" ">
<polygon fill="white" stroke="#666666" points="462.5,-290 325.5,-290 325.5,-271 462.5,-271 462.5,-290"/>
<text text-anchor="middle" x="394" y="-278" font-family="Helvetica,sans-Serif" font-size="10.00">spawn_actor_on_surface</text>
</a>
</g>
</g>
<!-- Node10&#45;&gt;Node34 -->
<g id="edge35_Node000010_Node000034" class="edge">
<title>Node10&#45;&gt;Node34</title>
<g id="a_edge35_Node000010_Node000034"><a xlink:title=" ">
<path fill="none" stroke="#63b8ff" d="M241.12,-212.13C260.21,-223.64 293.7,-243.04 324,-256.5 333.03,-260.51 342.96,-264.31 352.4,-267.64"/>
<polygon fill="#63b8ff" stroke="#63b8ff" points="351.41,-271 362,-270.94 353.68,-264.38 351.41,-271"/>
</a>
</g>
</g>
<!-- Node12 -->
<g id="Node000012" class="node">
<title>Node12</title>
<g id="a_Node000012"><a xlink:href="actors_8c.html#a39c023177b5a7686cdd1fc65b8b953e1" target="_top" xlink:title=" ">
<polygon fill="white" stroke="#666666" points="600,-172 538,-172 538,-153 600,-153 600,-172"/>
<text text-anchor="middle" x="569" y="-160" font-family="Helvetica,sans-Serif" font-size="10.00">actor_init</text>
</a>
</g>
</g>
<!-- Node11&#45;&gt;Node12 -->
<g id="edge11_Node000011_Node000012" class="edge">
<title>Node11&#45;&gt;Node12</title>
<g id="a_edge11_Node000011_Node000012"><a xlink:title=" ">
<path fill="none" stroke="#63b8ff" d="M464.37,-162.5C485.94,-162.5 509,-162.5 527.87,-162.5"/>
<polygon fill="#63b8ff" stroke="#63b8ff" points="527.89,-166 537.89,-162.5 527.89,-159 527.89,-166"/>
</a>
</g>
</g>
<!-- Node30 -->
<g id="Node000030" class="node">
<title>Node30</title>
<g id="a_Node000030"><a xlink:href="Game_8cpp.html#acea5cfd9ab22f745bd6627869b95a62e" target="_top" xlink:title=" ">
<polygon fill="white" stroke="#666666" points="625,-135 513,-135 513,-116 625,-116 625,-135"/>
<text text-anchor="middle" x="569" y="-123" font-family="Helvetica,sans-Serif" font-size="10.00">CM_ActorBeginPlay</text>
</a>
</g>
</g>
<!-- Node11&#45;&gt;Node30 -->
<g id="edge30_Node000011_Node000030" class="edge">
<title>Node11&#45;&gt;Node30</title>
<g id="a_edge30_Node000011_Node000030"><a xlink:title=" ">
<path fill="none" stroke="#63b8ff" d="M439.55,-152.97C462.07,-148.16 489.58,-142.27 513.36,-137.19"/>
<polygon fill="#63b8ff" stroke="#63b8ff" points="514.25,-140.57 523.3,-135.06 512.79,-133.73 514.25,-140.57"/>
</a>
</g>
</g>
<!-- Node31 -->
<g id="Node000031" class="node">
<title>Node31</title>
<g id="a_Node000031"><a xlink:href="Game_8cpp.html#a42f23077aaa52cb3ea5c7803b7dd6816" target="_top" xlink:title=" ">
<polygon fill="white" stroke="#666666" points="622,-98 516,-98 516,-79 622,-79 622,-98"/>
<text text-anchor="middle" x="569" y="-86" font-family="Helvetica,sans-Serif" font-size="10.00">CM_AddBaseActor</text>
</a>
</g>
</g>
<!-- Node11&#45;&gt;Node31 -->
<g id="edge31_Node000011_Node000031" class="edge">
<title>Node11&#45;&gt;Node31</title>
<g id="a_edge31_Node000011_Node000031"><a xlink:title=" ">
<path fill="none" stroke="#63b8ff" d="M410.12,-152.99C430.06,-140.79 466.54,-119.65 500,-106.5 505.11,-104.49 510.53,-102.63 515.99,-100.93"/>
<polygon fill="#63b8ff" stroke="#63b8ff" points="517.19,-104.23 525.79,-98.05 515.21,-97.51 517.19,-104.23"/>
</a>
</g>
</g>
<!-- Node32 -->
<g id="Node000032" class="node">
<title>Node32</title>
<g id="a_Node000032"><a xlink:href="Game_8cpp.html#a0841ffe9a66e95aca42438b9d8ffc3d3" target="_top" xlink:title=" ">
<polygon fill="white" stroke="#666666" points="619.5,-209 518.5,-209 518.5,-190 619.5,-190 619.5,-209"/>
<text text-anchor="middle" x="569" y="-197" font-family="Helvetica,sans-Serif" font-size="10.00">CM_GetActorSize</text>
</a>
</g>
</g>
<!-- Node11&#45;&gt;Node32 -->
<g id="edge32_Node000011_Node000032" class="edge">
<title>Node11&#45;&gt;Node32</title>
<g id="a_edge32_Node000011_Node000032"><a xlink:title=" ">
<path fill="none" stroke="#63b8ff" d="M439.55,-172.03C462.07,-176.84 489.58,-182.73 513.36,-187.81"/>
<polygon fill="#63b8ff" stroke="#63b8ff" points="512.79,-191.27 523.3,-189.94 514.25,-184.43 512.79,-191.27"/>
</a>
</g>
</g>
<!-- Node12&#45;&gt;Node4 -->
<g id="edge12_Node000012_Node000004" class="edge">
<title>Node12&#45;&gt;Node4</title>
<g id="a_edge12_Node000012_Node000004"><a xlink:title=" ">
<path fill="none" stroke="#63b8ff" d="M600.14,-165.67C612.75,-168.15 626.99,-172.59 638,-180.5 651.48,-190.19 708.04,-281.99 732.34,-322"/>
<polygon fill="#63b8ff" stroke="#63b8ff" points="729.47,-324.03 737.65,-330.77 735.46,-320.4 729.47,-324.03"/>
</a>
</g>
</g>
<!-- Node13 -->
<g id="Node000013" class="node">
<title>Node13</title>
<g id="a_Node000013"><a xlink:href="actors_8c.html#a1a9bccb586242555a9123ebd4ab70f2a" target="_top" xlink:title=" ">
<polygon fill="white" stroke="#666666" points="810.5,-217.5 678.5,-217.5 678.5,-187.5 810.5,-187.5 810.5,-217.5"/>
<text text-anchor="start" x="686.5" y="-205.5" font-family="Helvetica,sans-Serif" font-size="10.00">cleanup_red_and_green</text>
<text text-anchor="middle" x="744.5" y="-194.5" font-family="Helvetica,sans-Serif" font-size="10.00">_shells</text>
</a>
</g>
</g>
<!-- Node12&#45;&gt;Node13 -->
<g id="edge13_Node000012_Node000013" class="edge">
<title>Node12&#45;&gt;Node13</title>
<g id="a_edge13_Node000012_Node000013"><a xlink:title=" ">
<path fill="none" stroke="#63b8ff" d="M600.22,-169.47C619.16,-173.83 644.48,-179.67 668.56,-185.22"/>
<polygon fill="#63b8ff" stroke="#63b8ff" points="667.89,-188.66 678.42,-187.5 669.46,-181.84 667.89,-188.66"/>
</a>
</g>
</g>
<!-- Node26 -->
<g id="Node000026" class="node">
<title>Node26</title>
<g id="a_Node000026"><a xlink:href="collision_8c.html#ad72fef3ffe32191d73b1822f512ebf3f" target="_top" xlink:title=" ">
<polygon fill="white" stroke="#666666" points="792,-95 697,-95 697,-76 792,-76 792,-95"/>
<text text-anchor="middle" x="744.5" y="-83" font-family="Helvetica,sans-Serif" font-size="10.00">func_802AAAAC</text>
</a>
</g>
</g>
<!-- Node12&#45;&gt;Node26 -->
<g id="edge26_Node000012_Node000026" class="edge">
<title>Node12&#45;&gt;Node26</title>
<g id="a_edge26_Node000012_Node000026"><a xlink:title=" ">
<path fill="none" stroke="#63b8ff" d="M600.28,-157.87C612.63,-155.03 626.65,-150.54 638,-143.5 658.32,-130.89 653.56,-115.91 674,-103.5 678.11,-101 682.56,-98.85 687.16,-96.99"/>
<polygon fill="#63b8ff" stroke="#63b8ff" points="688.48,-100.24 696.73,-93.59 686.14,-93.64 688.48,-100.24"/>
</a>
</g>
</g>
<!-- Node28 -->
<g id="Node000028" class="node">
<title>Node28</title>
<g id="a_Node000028"><a xlink:href="math__util_8c.html#af7b470ed76fce07b8042a47c96e5690b" target="_top" xlink:title=" ">
<polygon fill="white" stroke="#666666" points="798,-169 691,-169 691,-150 798,-150 798,-169"/>
<text text-anchor="middle" x="744.5" y="-157" font-family="Helvetica,sans-Serif" font-size="10.00">vec3f_copy_return</text>
</a>
</g>
</g>
<!-- Node12&#45;&gt;Node28 -->
<g id="edge28_Node000012_Node000028" class="edge">
<title>Node12&#45;&gt;Node28</title>
<g id="a_edge28_Node000012_Node000028"><a xlink:title=" ">
<path fill="none" stroke="#63b8ff" d="M600.22,-161.98C622.35,-161.59 653.16,-161.06 680.55,-160.59"/>
<polygon fill="#63b8ff" stroke="#63b8ff" points="680.91,-164.08 690.85,-160.41 680.79,-157.08 680.91,-164.08"/>
</a>
</g>
</g>
<!-- Node29 -->
<g id="Node000029" class="node">
<title>Node29</title>
<g id="a_Node000029"><a xlink:href="math__util_8c.html#a0e270ee67600c8c9c2f140c647d008a1" target="_top" xlink:title=" ">
<polygon fill="white" stroke="#666666" points="781.5,-132 707.5,-132 707.5,-113 781.5,-113 781.5,-132"/>
<text text-anchor="middle" x="744.5" y="-120" font-family="Helvetica,sans-Serif" font-size="10.00">vec3s_copy</text>
</a>
</g>
</g>
<!-- Node12&#45;&gt;Node29 -->
<g id="edge29_Node000012_Node000029" class="edge">
<title>Node12&#45;&gt;Node29</title>
<g id="a_edge29_Node000012_Node000029"><a xlink:title=" ">
<path fill="none" stroke="#63b8ff" d="M600.22,-155.53C627,-149.36 666.51,-140.25 697.26,-133.16"/>
<polygon fill="#63b8ff" stroke="#63b8ff" points="698.36,-136.5 707.32,-130.84 696.79,-129.68 698.36,-136.5"/>
</a>
</g>
</g>
<!-- Node13&#45;&gt;Node14 -->
<g id="edge14_Node000013_Node000014" class="edge">
<title>Node13&#45;&gt;Node14</title>
<g id="a_edge14_Node000013_Node000014"><a xlink:title=" ">
<path fill="none" stroke="#63b8ff" d="M810.59,-217.53C831.57,-222.38 854.45,-227.67 874.06,-232.2"/>
<polygon fill="#63b8ff" stroke="#63b8ff" points="873.46,-235.65 883.99,-234.49 875.03,-228.83 873.46,-235.65"/>
</a>
</g>
</g>
<!-- Node15 -->
<g id="Node000015" class="node">
<title>Node15</title>
<g id="a_Node000015"><a xlink:href="code__80005FD0_8c.html#ad301b978cdd3c4cc190b10be050d51d8" target="_top" xlink:title=" ">
<polygon fill="white" stroke="#666666" points="997,-175.5 851,-175.5 851,-145.5 997,-145.5 997,-175.5"/>
<text text-anchor="start" x="859" y="-163.5" font-family="Helvetica,sans-Serif" font-size="10.00">delete_actor_in_unexpired</text>
<text text-anchor="middle" x="924" y="-152.5" font-family="Helvetica,sans-Serif" font-size="10.00">_actor_list</text>
</a>
</g>
</g>
<!-- Node13&#45;&gt;Node15 -->
<g id="edge15_Node000013_Node000015" class="edge">
<title>Node13&#45;&gt;Node15</title>
<g id="a_edge15_Node000013_Node000015"><a xlink:title=" ">
<path fill="none" stroke="#63b8ff" d="M809.08,-187.46C822.29,-184.33 836.31,-181.01 849.83,-177.81"/>
<polygon fill="#63b8ff" stroke="#63b8ff" points="850.64,-181.22 859.57,-175.51 849.03,-174.41 850.64,-181.22"/>
</a>
</g>
</g>
<!-- Node16 -->
<g id="Node000016" class="node">
<title>Node16</title>
<g id="a_Node000016"><a xlink:href="actors_8c.html#a694ec6ef7548b8618aeb35c038d3a9b9" target="_top" xlink:title=" ">
<polygon fill="white" stroke="#666666" points="965.5,-213 882.5,-213 882.5,-194 965.5,-194 965.5,-213"/>
<text text-anchor="middle" x="924" y="-201" font-family="Helvetica,sans-Serif" font-size="10.00">destroy_actor</text>
</a>
</g>
</g>
<!-- Node13&#45;&gt;Node16 -->
<g id="edge16_Node000013_Node000016" class="edge">
<title>Node13&#45;&gt;Node16</title>
<g id="a_edge16_Node000013_Node000016"><a xlink:title=" ">
<path fill="none" stroke="#63b8ff" d="M810.59,-202.87C830.97,-202.98 853.14,-203.11 872.37,-203.21"/>
<polygon fill="#63b8ff" stroke="#63b8ff" points="872.41,-206.71 882.43,-203.27 872.45,-199.72 872.41,-206.71"/>
</a>
</g>
</g>
<!-- Node17 -->
<g id="Node000017" class="node">
<title>Node17</title>
<g id="a_Node000017"><a xlink:href="actors_8c.html#a12dc3ccac4c7d8569eadac0af4fd6f9f" target="_top" xlink:title=" ">
<polygon fill="white" stroke="#666666" points="1191,-213 1033,-213 1033,-194 1191,-194 1191,-213"/>
<text text-anchor="middle" x="1112" y="-201" font-family="Helvetica,sans-Serif" font-size="10.00">play_sound_before_despawn</text>
</a>
</g>
</g>
<!-- Node16&#45;&gt;Node17 -->
<g id="edge17_Node000016_Node000017" class="edge">
<title>Node16&#45;&gt;Node17</title>
<g id="a_edge17_Node000016_Node000017"><a xlink:title=" ">
<path fill="none" stroke="#63b8ff" d="M965.82,-203.5C982.65,-203.5 1002.86,-203.5 1022.77,-203.5"/>
<polygon fill="#63b8ff" stroke="#63b8ff" points="1022.82,-207 1032.82,-203.5 1022.82,-200 1022.82,-207"/>
</a>
</g>
</g>
<!-- Node18 -->
<g id="Node000018" class="node">
<title>Node18</title>
<g id="a_Node000018"><a xlink:href="external_8c.html#ae72057869772019e4464c87d4e16c682" target="_top" xlink:title=" ">
<polygon fill="white" stroke="#666666" points="1319,-213 1227,-213 1227,-194 1319,-194 1319,-213"/>
<text text-anchor="middle" x="1273" y="-201" font-family="Helvetica,sans-Serif" font-size="10.00">func_800C99E0</text>
</a>
</g>
</g>
<!-- Node17&#45;&gt;Node18 -->
<g id="edge18_Node000017_Node000018" class="edge">
<title>Node17&#45;&gt;Node18</title>
<g id="a_edge18_Node000017_Node000018"><a xlink:title=" ">
<path fill="none" stroke="#63b8ff" d="M1191.1,-203.5C1199.72,-203.5 1208.35,-203.5 1216.61,-203.5"/>
<polygon fill="#63b8ff" stroke="#63b8ff" points="1216.83,-207 1226.83,-203.5 1216.83,-200 1216.83,-207"/>
</a>
</g>
</g>
<!-- Node19 -->
<g id="Node000019" class="node">
<title>Node19</title>
<g id="a_Node000019"><a xlink:href="external_8c.html#aeb87c527482a244173df36a1f3d4f446" target="_top" xlink:title=" ">
<polygon fill="white" stroke="#666666" points="1447,-232 1355,-232 1355,-213 1447,-213 1447,-232"/>
<text text-anchor="middle" x="1401" y="-220" font-family="Helvetica,sans-Serif" font-size="10.00">func_800C21E8</text>
</a>
</g>
</g>
<!-- Node18&#45;&gt;Node19 -->
<g id="edge19_Node000018_Node000019" class="edge">
<title>Node18&#45;&gt;Node19</title>
<g id="a_edge19_Node000018_Node000019"><a xlink:title=" ">
<path fill="none" stroke="#63b8ff" d="M1319.13,-210.31C1327.46,-211.56 1336.23,-212.88 1344.81,-214.18"/>
<polygon fill="#63b8ff" stroke="#63b8ff" points="1344.35,-217.65 1354.76,-215.68 1345.39,-210.73 1344.35,-217.65"/>
</a>
</g>
</g>
<!-- Node20 -->
<g id="Node000020" class="node">
<title>Node20</title>
<g id="a_Node000020"><a xlink:href="external_8c.html#a028d40421b90c38f68ebfd5acc626f2e" target="_top" xlink:title=" ">
<polygon fill="white" stroke="#666666" points="1447,-195 1355,-195 1355,-176 1447,-176 1447,-195"/>
<text text-anchor="middle" x="1401" y="-183" font-family="Helvetica,sans-Serif" font-size="10.00">func_800C5578</text>
</a>
</g>
</g>
<!-- Node18&#45;&gt;Node20 -->
<g id="edge20_Node000018_Node000020" class="edge">
<title>Node18&#45;&gt;Node20</title>
<g id="a_edge20_Node000018_Node000020"><a xlink:title=" ">
<path fill="none" stroke="#63b8ff" d="M1319.13,-197.05C1327.46,-195.86 1336.23,-194.61 1344.81,-193.38"/>
<polygon fill="#63b8ff" stroke="#63b8ff" points="1345.35,-196.84 1354.76,-191.96 1344.36,-189.91 1345.35,-196.84"/>
</a>
</g>
</g>
<!-- Node21 -->
<g id="Node000021" class="node">
<title>Node21</title>
<g id="a_Node000021"><a xlink:href="external_8c.html#ac0fb767de7e14a03f1bcfa53f0abd23b" target="_top" xlink:title=" ">
<polygon fill="white" stroke="#666666" points="1623,-232 1483,-232 1483,-213 1623,-213 1623,-232"/>
<text text-anchor="middle" x="1553" y="-220" font-family="Helvetica,sans-Serif" font-size="10.00">delete_sound_from_bank</text>
</a>
</g>
</g>
<!-- Node20&#45;&gt;Node21 -->
<g id="edge21_Node000020_Node000021" class="edge">
<title>Node20&#45;&gt;Node21</title>
<g id="a_edge21_Node000020_Node000021"><a xlink:title=" ">
<path fill="none" stroke="#63b8ff" d="M1440.63,-195.03C1459.8,-199.76 1483.16,-205.52 1503.52,-210.54"/>
<polygon fill="#63b8ff" stroke="#63b8ff" points="1502.69,-213.94 1513.24,-212.94 1504.37,-207.15 1502.69,-213.94"/>
</a>
</g>
</g>
<!-- Node23 -->
<g id="Node000023" class="node">
<title>Node23</title>
<g id="a_Node000023"><a xlink:href="external_8c.html#ab83bd36e63f0f1baddcb2482b5ad31b0" target="_top" xlink:title=" ">
<polygon fill="white" stroke="#666666" points="1599.5,-195 1506.5,-195 1506.5,-176 1599.5,-176 1599.5,-195"/>
<text text-anchor="middle" x="1553" y="-183" font-family="Helvetica,sans-Serif" font-size="10.00">func_800C41CC</text>
</a>
</g>
</g>
<!-- Node20&#45;&gt;Node23 -->
<g id="edge23_Node000020_Node000023" class="edge">
<title>Node20&#45;&gt;Node23</title>
<g id="a_edge23_Node000020_Node000023"><a xlink:title=" ">
<path fill="none" stroke="#63b8ff" d="M1447,-185.5C1462.37,-185.5 1479.74,-185.5 1495.86,-185.5"/>
<polygon fill="#63b8ff" stroke="#63b8ff" points="1496.25,-189 1506.25,-185.5 1496.25,-182 1496.25,-189"/>
</a>
</g>
</g>
<!-- Node24 -->
<g id="Node000024" class="node">
<title>Node24</title>
<g id="a_Node000024"><a xlink:href="port__eu_8c.html#aa89dfaecca46c6d071f08c1898d1f7c9" target="_top" xlink:title=" ">
<polygon fill="white" stroke="#666666" points="1599.5,-158 1506.5,-158 1506.5,-139 1599.5,-139 1599.5,-158"/>
<text text-anchor="middle" x="1553" y="-146" font-family="Helvetica,sans-Serif" font-size="10.00">func_800CBBE8</text>
</a>
</g>
</g>
<!-- Node20&#45;&gt;Node24 -->
<g id="edge24_Node000020_Node000024" class="edge">
<title>Node20&#45;&gt;Node24</title>
<g id="a_edge24_Node000020_Node000024"><a xlink:title=" ">
<path fill="none" stroke="#63b8ff" d="M1440.63,-175.97C1459.8,-171.24 1483.16,-165.48 1503.52,-160.46"/>
<polygon fill="#63b8ff" stroke="#63b8ff" points="1504.37,-163.85 1513.24,-158.06 1502.69,-157.06 1504.37,-163.85"/>
</a>
</g>
</g>
<!-- Node22 -->
<g id="Node000022" class="node">
<title>Node22</title>
<g id="a_Node000022"><a xlink:href="external_8c.html#a358ac55e8ab5262dcae8037334be06d7" target="_top" xlink:title=" ">
<polygon fill="white" stroke="#666666" points="1751.5,-232 1659.5,-232 1659.5,-213 1751.5,-213 1751.5,-232"/>
<text text-anchor="middle" x="1705.5" y="-220" font-family="Helvetica,sans-Serif" font-size="10.00">func_800C40F0</text>
</a>
</g>
</g>
<!-- Node21&#45;&gt;Node22 -->
<g id="edge22_Node000021_Node000022" class="edge">
<title>Node21&#45;&gt;Node22</title>
<g id="a_edge22_Node000021_Node000022"><a xlink:title=" ">
<path fill="none" stroke="#63b8ff" d="M1623.08,-222.5C1631.87,-222.5 1640.78,-222.5 1649.31,-222.5"/>
<polygon fill="#63b8ff" stroke="#63b8ff" points="1649.5,-226 1659.5,-222.5 1649.5,-219 1649.5,-226"/>
</a>
</g>
</g>
<!-- Node25 -->
<g id="Node000025" class="node">
<title>Node25</title>
<g id="a_Node000025"><a xlink:href="port__eu_8c.html#af361a20d2e08f30c53a237ca481ff734" target="_top" xlink:title=" ">
<polygon fill="white" stroke="#666666" points="1752,-158 1659,-158 1659,-139 1752,-139 1752,-158"/>
<text text-anchor="middle" x="1705.5" y="-146" font-family="Helvetica,sans-Serif" font-size="10.00">func_800CBB48</text>
</a>
</g>
</g>
<!-- Node24&#45;&gt;Node25 -->
<g id="edge25_Node000024_Node000025" class="edge">
<title>Node24&#45;&gt;Node25</title>
<g id="a_edge25_Node000024_Node000025"><a xlink:title=" ">
<path fill="none" stroke="#63b8ff" d="M1599.56,-148.5C1614.96,-148.5 1632.34,-148.5 1648.46,-148.5"/>
<polygon fill="#63b8ff" stroke="#63b8ff" points="1648.83,-152 1658.83,-148.5 1648.83,-145 1648.83,-152"/>
</a>
</g>
</g>
<!-- Node26&#45;&gt;Node27 -->
<g id="edge27_Node000026_Node000027" class="edge">
<title>Node26&#45;&gt;Node27</title>
<g id="a_edge27_Node000026_Node000027"><a xlink:title=" ">
<path fill="none" stroke="#63b8ff" d="M792.14,-80.51C819.88,-77.54 854.78,-73.8 881.56,-70.94"/>
<polygon fill="#63b8ff" stroke="#63b8ff" points="882.19,-74.39 891.76,-69.84 881.44,-67.43 882.19,-74.39"/>
</a>
</g>
</g>
<!-- Node35 -->
<g id="Node000035" class="node">
<title>Node35</title>
<g id="a_Node000035"><a xlink:href="collision_8c.html#a6527a2135a10909cdf9a1fd731be5628" target="_top" xlink:title=" ">
<polygon fill="white" stroke="#666666" points="638,-290 500,-290 500,-271 638,-271 638,-290"/>
<text text-anchor="middle" x="569" y="-278" font-family="Helvetica,sans-Serif" font-size="10.00">calculate_surface_height</text>
</a>
</g>
</g>
<!-- Node34&#45;&gt;Node35 -->
<g id="edge36_Node000034_Node000035" class="edge">
<title>Node34&#45;&gt;Node35</title>
<g id="a_edge36_Node000034_Node000035"><a xlink:title=" ">
<path fill="none" stroke="#63b8ff" d="M462.88,-280.5C471.68,-280.5 480.75,-280.5 489.71,-280.5"/>
<polygon fill="#63b8ff" stroke="#63b8ff" points="489.75,-284 499.75,-280.5 489.75,-277 489.75,-284"/>
</a>
</g>
</g>
<!-- Node36 -->
<g id="Node000036" class="node">
<title>Node36</title>
<g id="a_Node000036"><a xlink:href="collision_8c.html#a0fe340ccfe1d926a592ea9a0c84d7574" target="_top" xlink:title=" ">
<polygon fill="white" stroke="#666666" points="635,-338.5 503,-338.5 503,-308.5 635,-308.5 635,-338.5"/>
<text text-anchor="start" x="511" y="-326.5" font-family="Helvetica,sans-Serif" font-size="10.00">check_horizontally</text>
<text text-anchor="middle" x="569" y="-315.5" font-family="Helvetica,sans-Serif" font-size="10.00">_colliding_with_triangle</text>
</a>
</g>
</g>
<!-- Node34&#45;&gt;Node36 -->
<g id="edge37_Node000034_Node000036" class="edge">
<title>Node34&#45;&gt;Node36</title>
<g id="a_edge37_Node000034_Node000036"><a xlink:title=" ">
<path fill="none" stroke="#63b8ff" d="M433.39,-290.04C452.3,-294.74 475.7,-300.56 497.66,-306.02"/>
<polygon fill="#63b8ff" stroke="#63b8ff" points="497.08,-309.48 507.63,-308.49 498.77,-302.68 497.08,-309.48"/>
</a>
</g>
</g>
</g>
</svg>

<g id="navigator" transform="translate(0 0)" fill="#404254">
  <rect fill="#f2f5e9" fill-opacity="0.5" stroke="#606060" stroke-width=".5" x="0" y="0" width="60" height="60"/>
  <use id="zoomplus" xlink:href="#zoomPlus" x="17" y="9" onmousedown="handleZoom(evt,'in')"/>
  <use id="zoomminus" xlink:href="#zoomMin" x="42" y="9" onmousedown="handleZoom(evt,'out')"/>
  <use id="reset" xlink:href="#resetDef" x="30" y="36" onmousedown="handleReset()"/>
   <use id="arrowup" xlink:href="#arrowUp" x="0" y="0" onmousedown="handlePan(0,-1)"/>
  <use id="arrowright" xlink:href="#arrowRight" x="0" y="0" onmousedown="handlePan(1,0)"/>
  <use id="arrowdown" xlink:href="#arrowDown" x="0" y="0" onmousedown="handlePan(0,1)"/>
  <use id="arrowleft" xlink:href="#arrowLeft" x="0" y="0" onmousedown="handlePan(-1,0)"/>
</g>
<svg viewBox="0 0 15 15" width="100%" height="30px" preserveAspectRatio="xMaxYMin meet">
 <g id="arrow_out" transform="scale(0.3 0.3)">
  <a xlink:href="classSkyscraper_a14953e622cb718b01891d1b5884809d7_cgraph_org.svg" target="_base">
   <rect id="button" ry="5" rx="5" y="6" x="6" height="38" width="38"
        fill="#f2f5e9" fill-opacity="0.5" stroke="#606060" stroke-width="1.0"/>
   <path id="arrow"
     d="M 11.500037,31.436501 C 11.940474,20.09759 22.043105,11.32322 32.158766,21.979434 L 37.068811,17.246167 C 37.068811,17.246167 37.088388,32 37.088388,32 L 22.160133,31.978069 C 22.160133,31.978069 26.997745,27.140456 26.997745,27.140456 C 18.528582,18.264221 13.291696,25.230495 11.500037,31.436501 z"
     style="fill:#404040;"/>
  </a>
 </g>
</svg>

<style type='text/css'>
<![CDATA[
[data-mouse-over-selected='false'] { opacity: 0.7; }
[data-mouse-over-selected='true']  { opacity: 1.0; }
]]>
</style>
<script type="application/ecmascript"><![CDATA[
document.addEventListener('DOMContentLoaded', (event) => {
  highlightEdges();
  highlightAdjacentNodes();
});
]]></script>
</svg>
