<?xml version="1.0" encoding="UTF-8" standalone="no"?>
<!DOCTYPE svg PUBLIC "-//W3C//DTD SVG 1.1//EN"
 "http://www.w3.org/Graphics/SVG/1.1/DTD/svg11.dtd">
<!-- Generated by graphviz version 2.43.0 (0)
 -->
<!-- Title: OGrandPrixBalloons::OGrandPrixBalloons Pages: 1 -->
<svg width="472pt" height="138pt"
 viewBox="0.00 0.00 472.00 138.00" xmlns="http://www.w3.org/2000/svg" xmlns:xlink="http://www.w3.org/1999/xlink">

<svg id="main" version="1.1" xmlns="http://www.w3.org/2000/svg" xmlns:xlink="http://www.w3.org/1999/xlink" xml:space="preserve">

<style type="text/css"><![CDATA[
.node, .edge {opacity: 0.7;}
.node.selected, .edge.selected {opacity: 1;}
.edge:hover path { stroke: red; }
.edge:hover polygon { stroke: red; fill: red; }
]]></style>
<script type="application/ecmascript" xlink:href="svg.min.js"/>
<svg id="graph" class="graph">
<g id="graph0" class="graph" transform="scale(1 1) rotate(0) translate(4 134)">
<title>OGrandPrixBalloons::OGrandPrixBalloons</title>
<!-- Node1 -->
<g id="Node000001" class="node">
<title>Node1</title>
<g id="a_Node000001"><a xlink:title=" ">
<polygon fill="#999999" stroke="#666666" points="464,-79.5 344,-79.5 344,-49.5 464,-49.5 464,-79.5"/>
<text text-anchor="start" x="352" y="-67.5" font-family="Helvetica,sans-Serif" font-size="10.00">OGrandPrixBalloons</text>
<text text-anchor="middle" x="404" y="-56.5" font-family="Helvetica,sans-Serif" font-size="10.00">::OGrandPrixBalloons</text>
</a>
</g>
</g>
<!-- Node2 -->
<g id="Node000002" class="node">
<title>Node2</title>
<g id="a_Node000002"><a xlink:href="classOGrandPrixBalloons.html#a6f6d4d32fc44d2b1f3c3b1c3099e2cb5" target="_top" xlink:title=" ">
<polygon fill="white" stroke="#666666" points="308,-79.5 194,-79.5 194,-49.5 308,-49.5 308,-79.5"/>
<text text-anchor="start" x="202" y="-67.5" font-family="Helvetica,sans-Serif" font-size="10.00">OGrandPrixBalloons</text>
<text text-anchor="middle" x="251" y="-56.5" font-family="Helvetica,sans-Serif" font-size="10.00">::Spawn</text>
</a>
</g>
</g>
<!-- Node1&#45;&gt;Node2 -->
<g id="edge1_Node000001_Node000002" class="edge">
<title>Node1&#45;&gt;Node2</title>
<g id="a_edge1_Node000001_Node000002"><a xlink:title=" ">
<path fill="none" stroke="#63b8ff" d="M333.75,-64.5C325.16,-64.5 316.47,-64.5 308.11,-64.5"/>
<polygon fill="#63b8ff" stroke="#63b8ff" points="333.75,-68 343.75,-64.5 333.75,-61 333.75,-68"/>
</a>
</g>
</g>
<!-- Node3 -->
<g id="Node000003" class="node">
<title>Node3</title>
<g id="a_Node000003"><a xlink:href="classLuigiRaceway.html#a00b59b5b947f751c540ecfe6483b7703" target="_top" xlink:title=" ">
<polygon fill="white" stroke="#666666" points="148,-130 10,-130 10,-111 148,-111 148,-130"/>
<text text-anchor="middle" x="79" y="-118" font-family="Helvetica,sans-Serif" font-size="10.00">LuigiRaceway::BeginPlay</text>
</a>
</g>
</g>
<!-- Node2&#45;&gt;Node3 -->
<g id="edge2_Node000002_Node000003" class="edge">
<title>Node2&#45;&gt;Node3</title>
<g id="a_edge2_Node000002_Node000003"><a xlink:title=" ">
<path fill="none" stroke="#63b8ff" d="M207.96,-83.57C192.46,-90.15 174.63,-97.19 158,-102.5 148.07,-105.67 137.27,-108.53 126.95,-110.99"/>
<polygon fill="#63b8ff" stroke="#63b8ff" points="209.48,-86.73 217.28,-79.56 206.71,-80.3 209.48,-86.73"/>
</a>
</g>
</g>
<!-- Node4 -->
<g id="Node000004" class="node">
<title>Node4</title>
<g id="a_Node000004"><a xlink:href="classMarioRaceway.html#add93404089a3200bf3345cccbaaaff2d" target="_top" xlink:title=" ">
<polygon fill="white" stroke="#666666" points="150.5,-93 7.5,-93 7.5,-74 150.5,-74 150.5,-93"/>
<text text-anchor="middle" x="79" y="-81" font-family="Helvetica,sans-Serif" font-size="10.00">MarioRaceway::BeginPlay</text>
</a>
</g>
</g>
<!-- Node2&#45;&gt;Node4 -->
<g id="edge3_Node000002_Node000004" class="edge">
<title>Node2&#45;&gt;Node4</title>
<g id="a_edge3_Node000002_Node000004"><a xlink:title=" ">
<path fill="none" stroke="#63b8ff" d="M183.64,-71.92C172.81,-73.13 161.56,-74.38 150.63,-75.61"/>
<polygon fill="#63b8ff" stroke="#63b8ff" points="184.32,-75.36 193.86,-70.77 183.54,-68.41 184.32,-75.36"/>
</a>
</g>
</g>
<!-- Node5 -->
<g id="Node000005" class="node">
<title>Node5</title>
<g id="a_Node000005"><a xlink:href="classPodiumCeremony.html#a65cdc7a796ddbace20d38e2a6af2335c" target="_top" xlink:title=" ">
<polygon fill="white" stroke="#666666" points="158,-56 0,-56 0,-37 158,-37 158,-56"/>
<text text-anchor="middle" x="79" y="-44" font-family="Helvetica,sans-Serif" font-size="10.00">PodiumCeremony::BeginPlay</text>
</a>
</g>
</g>
<!-- Node2&#45;&gt;Node5 -->
<g id="edge4_Node000002_Node000005" class="edge">
<title>Node2&#45;&gt;Node5</title>
<g id="a_edge4_Node000002_Node000005"><a xlink:title=" ">
<path fill="none" stroke="#63b8ff" d="M183.79,-57.49C175.41,-56.6 166.78,-55.69 158.23,-54.78"/>
<polygon fill="#63b8ff" stroke="#63b8ff" points="183.55,-60.98 193.86,-58.56 184.29,-54.02 183.55,-60.98"/>
</a>
</g>
</g>
<!-- Node6 -->
<g id="Node000006" class="node">
<title>Node6</title>
<g id="a_Node000006"><a xlink:href="classRoyalRaceway.html#a417f6ebceb092a23aebc5448e8f1241e" target="_top" xlink:title=" ">
<polygon fill="white" stroke="#666666" points="150.5,-19 7.5,-19 7.5,0 150.5,0 150.5,-19"/>
<text text-anchor="middle" x="79" y="-7" font-family="Helvetica,sans-Serif" font-size="10.00">RoyalRaceway::BeginPlay</text>
</a>
</g>
</g>
<!-- Node2&#45;&gt;Node6 -->
<g id="edge5_Node000002_Node000006" class="edge">
<title>Node2&#45;&gt;Node6</title>
<g id="a_edge5_Node000002_Node000006"><a xlink:title=" ">
<path fill="none" stroke="#63b8ff" d="M205.11,-45.55C190.27,-39.65 173.56,-33.42 158,-28.5 146.97,-25.02 134.89,-21.79 123.61,-19.03"/>
<polygon fill="#63b8ff" stroke="#63b8ff" points="203.99,-48.87 214.57,-49.35 206.6,-42.37 203.99,-48.87"/>
</a>
</g>
</g>
</g>
</svg>
</svg>

<style type='text/css'>
<![CDATA[
[data-mouse-over-selected='false'] { opacity: 0.7; }
[data-mouse-over-selected='true']  { opacity: 1.0; }
]]>
</style>
<script type="application/ecmascript"><![CDATA[
document.addEventListener('DOMContentLoaded', (event) => {
  highlightEdges();
  highlightAdjacentNodes();
});
]]></script>
</svg>
