<?xml version="1.0" encoding="UTF-8" standalone="no"?>
<!DOCTYPE svg PUBLIC "-//W3C//DTD SVG 1.1//EN"
 "http://www.w3.org/Graphics/SVG/1.1/DTD/svg11.dtd">
<!-- Generated by graphviz version 2.43.0 (0)
 -->
<!-- Title: SherbetLand::BeginPlay Pages: 1 -->
<!--zoomable 496 -->

<svg id="main" version="1.1" xmlns="http://www.w3.org/2000/svg" xmlns:xlink="http://www.w3.org/1999/xlink" xml:space="preserve" onload="init(evt)">

<style type="text/css"><![CDATA[
.node, .edge {opacity: 0.7;}
.node.selected, .edge.selected {opacity: 1;}
.edge:hover path { stroke: red; }
.edge:hover polygon { stroke: red; fill: red; }
]]></style>

<defs>
  <circle id="rim" cx="0" cy="0" r="7"/>
  <circle id="rim2" cx="0" cy="0" r="3.5"/>
  <g id="zoomPlus">
    <use xlink:href="#rim" fill="#404040"><set attributeName="fill" to="#808080" begin="zoomplus.mouseover" end="zoomplus.mouseout"/></use>
    <path d="M-4,0h8M0,-4v8" fill="none" stroke="white" stroke-width="1.5" pointer-events="none"/>
  </g>
  <g id="zoomMin">
    <use xlink:href="#rim" fill="#404040"><set attributeName="fill" to="#808080" begin="zoomminus.mouseover" end="zoomminus.mouseout"/></use>
    <path d="M-4,0h8" fill="none" stroke="white" stroke-width="1.5" pointer-events="none"/>
  </g>
  <g id="arrowUp" transform="translate(30 24)">
    <use xlink:href="#rim"/>
    <path pointer-events="none" fill="none" stroke="white" stroke-width="1.5" d="M0,-3.0v7 M-2.5,-0.5L0,-3.0L2.5,-0.5"/>
  </g>
  <g id="arrowRight" transform="rotate(90) translate(36 -43)">
    <use xlink:href="#rim"/>
    <path pointer-events="none" fill="none" stroke="white" stroke-width="1.5" d="M0,-3.0v7 M-2.5,-0.5L0,-3.0L2.5,-0.5"/>
  </g>
  <g id="arrowDown" transform="rotate(180) translate(-30 -48)">
    <use xlink:href="#rim"/>
    <path pointer-events="none" fill="none" stroke="white" stroke-width="1.5" d="M0,-3.0v7 M-2.5,-0.5L0,-3.0L2.5,-0.5"/>
  </g>
  <g id="arrowLeft" transform="rotate(270) translate(-36 17)">
    <use xlink:href="#rim"/>
    <path pointer-events="none" fill="none" stroke="white" stroke-width="1.5" d="M0,-3.0v7 M-2.5,-0.5L0,-3.0L2.5,-0.5"/>
  </g>
  <g id="resetDef">
    <use xlink:href="#rim2" fill="#404040"><set attributeName="fill" to="#808080" begin="reset.mouseover" end="reset.mouseout"/></use>
  </g>
</defs>
<script type="application/ecmascript">
var viewWidth = 1767;
var viewHeight = 496;
var sectionId = 'dynsection-3';
</script>
<script type="application/ecmascript" xlink:href="svg.min.js"/>
<svg id="graph" class="graph">
<g id="viewport">
<title>SherbetLand::BeginPlay</title>
<!-- Node1 -->
<g id="Node000001" class="node">
<title>Node1</title>
<g id="a_Node000001"><a xlink:title=" ">
<polygon fill="#999999" stroke="#666666" points="132,-414 0,-414 0,-395 132,-395 132,-414"/>
<text text-anchor="middle" x="66" y="-402" font-family="Helvetica,sans-Serif" font-size="10.00">SherbetLand::BeginPlay</text>
</a>
</g>
</g>
<!-- Node2 -->
<g id="Node000002" class="node">
<title>Node2</title>
<g id="a_Node000002"><a xlink:href="classOBombKart.html#a9fa11c43dd1885221b160bd688eceff0" target="_top" xlink:title=" ">
<polygon fill="white" stroke="#666666" points="287,-414 176,-414 176,-395 287,-395 287,-414"/>
<text text-anchor="middle" x="231.5" y="-402" font-family="Helvetica,sans-Serif" font-size="10.00">OBombKart::Spawn</text>
</a>
</g>
</g>
<!-- Node1&#45;&gt;Node2 -->
<g id="edge1_Node000001_Node000002" class="edge">
<title>Node1&#45;&gt;Node2</title>
<g id="a_edge1_Node000001_Node000002"><a xlink:title=" ">
<path fill="none" stroke="#63b8ff" d="M132.09,-404.5C143.2,-404.5 154.75,-404.5 165.85,-404.5"/>
<polygon fill="#63b8ff" stroke="#63b8ff" points="165.89,-408 175.89,-404.5 165.89,-401 165.89,-408"/>
</a>
</g>
</g>
<!-- Node10 -->
<g id="Node000010" class="node">
<title>Node10</title>
<g id="a_Node000010"><a xlink:href="classOPenguin.html#ac61b7509588bafcb2a0f9f36e6d427db" target="_top" xlink:title=" ">
<polygon fill="white" stroke="#666666" points="282,-451 181,-451 181,-432 282,-432 282,-451"/>
<text text-anchor="middle" x="231.5" y="-439" font-family="Helvetica,sans-Serif" font-size="10.00">OPenguin::Spawn</text>
</a>
</g>
</g>
<!-- Node1&#45;&gt;Node10 -->
<g id="edge9_Node000001_Node000010" class="edge">
<title>Node1&#45;&gt;Node10</title>
<g id="a_edge9_Node000001_Node000010"><a xlink:title=" ">
<path fill="none" stroke="#63b8ff" d="M109.11,-414.03C130.19,-418.8 155.92,-424.62 178.26,-429.68"/>
<polygon fill="#63b8ff" stroke="#63b8ff" points="177.73,-433.15 188.25,-431.94 179.27,-426.32 177.73,-433.15"/>
</a>
</g>
</g>
<!-- Node14 -->
<g id="Node000014" class="node">
<title>Node14</title>
<g id="a_Node000014"><a xlink:href="actors_8c.html#ac586c2534258d0f108e15fd88751b760" target="_top" xlink:title=" ">
<polygon fill="white" stroke="#666666" points="295,-215 168,-215 168,-196 295,-196 295,-215"/>
<text text-anchor="middle" x="231.5" y="-203" font-family="Helvetica,sans-Serif" font-size="10.00">spawn_all_item_boxes</text>
</a>
</g>
</g>
<!-- Node1&#45;&gt;Node14 -->
<g id="edge15_Node000001_Node000014" class="edge">
<title>Node1&#45;&gt;Node14</title>
<g id="a_edge15_Node000001_Node000014"><a xlink:title=" ">
<path fill="none" stroke="#63b8ff" d="M74.89,-394.9C100.68,-363.51 182.78,-263.58 216.17,-222.94"/>
<polygon fill="#63b8ff" stroke="#63b8ff" points="219.05,-224.95 222.69,-215 213.64,-220.51 219.05,-224.95"/>
</a>
</g>
</g>
<!-- Node3 -->
<g id="Node000003" class="node">
<title>Node3</title>
<g id="a_Node000003"><a xlink:href="classOBombKart.html#a1566e8d56318b18ad900fbbac9966d9d" target="_top" xlink:title=" ">
<polygon fill="white" stroke="#666666" points="468.5,-414 333.5,-414 333.5,-395 468.5,-395 468.5,-414"/>
<text text-anchor="middle" x="401" y="-402" font-family="Helvetica,sans-Serif" font-size="10.00">OBombKart::OBombKart</text>
</a>
</g>
</g>
<!-- Node2&#45;&gt;Node3 -->
<g id="edge2_Node000002_Node000003" class="edge">
<title>Node2&#45;&gt;Node3</title>
<g id="a_edge2_Node000002_Node000003"><a xlink:title=" ">
<path fill="none" stroke="#63b8ff" d="M287.35,-404.5C298.82,-404.5 311.13,-404.5 323.24,-404.5"/>
<polygon fill="#63b8ff" stroke="#63b8ff" points="323.34,-408 333.34,-404.5 323.34,-401 323.34,-408"/>
</a>
</g>
</g>
<!-- Node4 -->
<g id="Node000004" class="node">
<title>Node4</title>
<g id="a_Node000004"><a xlink:href="collision_8c.html#a37aa55b3768d001533ad75e7f1b8388a" target="_top" xlink:title=" ">
<polygon fill="white" stroke="#666666" points="822,-340 681,-340 681,-321 822,-321 822,-340"/>
<text text-anchor="middle" x="751.5" y="-328" font-family="Helvetica,sans-Serif" font-size="10.00">check_bounding_collision</text>
</a>
</g>
</g>
<!-- Node3&#45;&gt;Node4 -->
<g id="edge3_Node000003_Node000004" class="edge">
<title>Node3&#45;&gt;Node4</title>
<g id="a_edge3_Node000003_Node000004"><a xlink:title=" ">
<path fill="none" stroke="#63b8ff" d="M446.85,-394.98C510.41,-381.48 626.6,-356.81 695.35,-342.21"/>
<polygon fill="#63b8ff" stroke="#63b8ff" points="696.49,-345.55 705.55,-340.04 695.04,-338.7 696.49,-345.55"/>
</a>
</g>
</g>
<!-- Node8 -->
<g id="Node000008" class="node">
<title>Node8</title>
<g id="a_Node000008"><a xlink:href="update__objects_8c.html#a92856990c4ca5fba1b8e0c61ca832c27" target="_top" xlink:title=" ">
<polygon fill="white" stroke="#666666" points="640,-414 512,-414 512,-395 640,-395 640,-414"/>
<text text-anchor="middle" x="576" y="-402" font-family="Helvetica,sans-Serif" font-size="10.00">find_unused_obj_index</text>
</a>
</g>
</g>
<!-- Node3&#45;&gt;Node8 -->
<g id="edge7_Node000003_Node000008" class="edge">
<title>Node3&#45;&gt;Node8</title>
<g id="a_edge7_Node000003_Node000008"><a xlink:title=" ">
<path fill="none" stroke="#63b8ff" d="M468.89,-404.5C479.62,-404.5 490.78,-404.5 501.66,-404.5"/>
<polygon fill="#63b8ff" stroke="#63b8ff" points="501.98,-408 511.98,-404.5 501.98,-401 501.98,-408"/>
</a>
</g>
</g>
<!-- Node9 -->
<g id="Node000009" class="node">
<title>Node9</title>
<g id="a_Node000009"><a xlink:href="classOObject.html#a629d0dcbb210e289cdf541a91321c86b" target="_top" xlink:title=" ">
<polygon fill="white" stroke="#666666" points="626.5,-451 525.5,-451 525.5,-432 626.5,-432 626.5,-451"/>
<text text-anchor="middle" x="576" y="-439" font-family="Helvetica,sans-Serif" font-size="10.00">OObject::OObject</text>
</a>
</g>
</g>
<!-- Node3&#45;&gt;Node9 -->
<g id="edge8_Node000003_Node000009" class="edge">
<title>Node3&#45;&gt;Node9</title>
<g id="a_edge8_Node000003_Node000009"><a xlink:title=" ">
<path fill="none" stroke="#63b8ff" d="M446.55,-414.03C469.07,-418.84 496.58,-424.73 520.36,-429.81"/>
<polygon fill="#63b8ff" stroke="#63b8ff" points="519.79,-433.27 530.3,-431.94 521.25,-426.43 519.79,-433.27"/>
</a>
</g>
</g>
<!-- Node5 -->
<g id="Node000005" class="node">
<title>Node5</title>
<g id="a_Node000005"><a xlink:href="collision_8c.html#ac312bf382cb40752f6b790a99e7cdcb6" target="_top" xlink:title=" ">
<polygon fill="white" stroke="#666666" points="985,-377 877,-377 877,-358 985,-358 985,-377"/>
<text text-anchor="middle" x="931" y="-365" font-family="Helvetica,sans-Serif" font-size="10.00">check_collision_yx</text>
</a>
</g>
</g>
<!-- Node4&#45;&gt;Node5 -->
<g id="edge4_Node000004_Node000005" class="edge">
<title>Node4&#45;&gt;Node5</title>
<g id="a_edge4_Node000004_Node000005"><a xlink:title=" ">
<path fill="none" stroke="#63b8ff" d="M798.21,-340.03C821.41,-344.86 849.79,-350.78 874.27,-355.88"/>
<polygon fill="#63b8ff" stroke="#63b8ff" points="873.63,-359.33 884.14,-357.94 875.06,-352.47 873.63,-359.33"/>
</a>
</g>
</g>
<!-- Node6 -->
<g id="Node000006" class="node">
<title>Node6</title>
<g id="a_Node000006"><a xlink:href="collision_8c.html#a4b48832a90e984536a0635a016ec4f28" target="_top" xlink:title=" ">
<polygon fill="white" stroke="#666666" points="984.5,-340 877.5,-340 877.5,-321 984.5,-321 984.5,-340"/>
<text text-anchor="middle" x="931" y="-328" font-family="Helvetica,sans-Serif" font-size="10.00">check_collision_zx</text>
</a>
</g>
</g>
<!-- Node4&#45;&gt;Node6 -->
<g id="edge5_Node000004_Node000006" class="edge">
<title>Node4&#45;&gt;Node6</title>
<g id="a_edge5_Node000004_Node000006"><a xlink:title=" ">
<path fill="none" stroke="#63b8ff" d="M822.14,-330.5C836.91,-330.5 852.43,-330.5 866.94,-330.5"/>
<polygon fill="#63b8ff" stroke="#63b8ff" points="867.3,-334 877.3,-330.5 867.3,-327 867.3,-334"/>
</a>
</g>
</g>
<!-- Node7 -->
<g id="Node000007" class="node">
<title>Node7</title>
<g id="a_Node000007"><a xlink:href="collision_8c.html#a21fef964ab48191a1c0341954ef27a40" target="_top" xlink:title=" ">
<polygon fill="white" stroke="#666666" points="984.5,-303 877.5,-303 877.5,-284 984.5,-284 984.5,-303"/>
<text text-anchor="middle" x="931" y="-291" font-family="Helvetica,sans-Serif" font-size="10.00">check_collision_zy</text>
</a>
</g>
</g>
<!-- Node4&#45;&gt;Node7 -->
<g id="edge6_Node000004_Node000007" class="edge">
<title>Node4&#45;&gt;Node7</title>
<g id="a_edge6_Node000004_Node000007"><a xlink:title=" ">
<path fill="none" stroke="#63b8ff" d="M798.21,-320.97C821.41,-316.14 849.79,-310.22 874.27,-305.12"/>
<polygon fill="#63b8ff" stroke="#63b8ff" points="875.06,-308.53 884.14,-303.06 873.63,-301.67 875.06,-308.53"/>
</a>
</g>
</g>
<!-- Node11 -->
<g id="Node000011" class="node">
<title>Node11</title>
<g id="a_Node000011"><a xlink:href="classOPenguin.html#aa389f88b663b6e1b994d9d9829554168" target="_top" xlink:title=" ">
<polygon fill="white" stroke="#666666" points="459,-451 343,-451 343,-432 459,-432 459,-451"/>
<text text-anchor="middle" x="401" y="-439" font-family="Helvetica,sans-Serif" font-size="10.00">OPenguin::OPenguin</text>
</a>
</g>
</g>
<!-- Node10&#45;&gt;Node11 -->
<g id="edge10_Node000010_Node000011" class="edge">
<title>Node10&#45;&gt;Node11</title>
<g id="a_edge10_Node000010_Node000011"><a xlink:title=" ">
<path fill="none" stroke="#63b8ff" d="M282.3,-441.5C298.03,-441.5 315.69,-441.5 332.45,-441.5"/>
<polygon fill="#63b8ff" stroke="#63b8ff" points="332.74,-445 342.74,-441.5 332.74,-438 332.74,-445"/>
</a>
</g>
</g>
<!-- Node11&#45;&gt;Node8 -->
<g id="edge11_Node000011_Node000008" class="edge">
<title>Node11&#45;&gt;Node8</title>
<g id="a_edge11_Node000011_Node000008"><a xlink:title=" ">
<path fill="none" stroke="#63b8ff" d="M446.55,-431.97C469.07,-427.16 496.58,-421.27 520.36,-416.19"/>
<polygon fill="#63b8ff" stroke="#63b8ff" points="521.25,-419.57 530.3,-414.06 519.79,-412.73 521.25,-419.57"/>
</a>
</g>
</g>
<!-- Node11&#45;&gt;Node9 -->
<g id="edge14_Node000011_Node000009" class="edge">
<title>Node11&#45;&gt;Node9</title>
<g id="a_edge14_Node000011_Node000009"><a xlink:title=" ">
<path fill="none" stroke="#63b8ff" d="M459.13,-441.5C477.15,-441.5 497.09,-441.5 515.29,-441.5"/>
<polygon fill="#63b8ff" stroke="#63b8ff" points="515.48,-445 525.48,-441.5 515.48,-438 515.48,-445"/>
</a>
</g>
</g>
<!-- Node12 -->
<g id="Node000012" class="node">
<title>Node12</title>
<g id="a_Node000012"><a xlink:href="update__objects_8c.html#abdebd086b5ff081f83af3d9205f39cd3" target="_top" xlink:title=" ">
<polygon fill="white" stroke="#666666" points="610,-488 542,-488 542,-469 610,-469 610,-488"/>
<text text-anchor="middle" x="576" y="-476" font-family="Helvetica,sans-Serif" font-size="10.00">init_object</text>
</a>
</g>
</g>
<!-- Node11&#45;&gt;Node12 -->
<g id="edge12_Node000011_Node000012" class="edge">
<title>Node11&#45;&gt;Node12</title>
<g id="a_edge12_Node000011_Node000012"><a xlink:title=" ">
<path fill="none" stroke="#63b8ff" d="M446.55,-451.03C472.8,-456.64 505.85,-463.71 531.85,-469.27"/>
<polygon fill="#63b8ff" stroke="#63b8ff" points="531.29,-472.73 541.8,-471.4 532.76,-465.89 531.29,-472.73"/>
</a>
</g>
</g>
<!-- Node13 -->
<g id="Node000013" class="node">
<title>Node13</title>
<g id="a_Node000013"><a xlink:href="update__objects_8c.html#af20e3f3c403dd4fbea56e358997e515a" target="_top" xlink:title=" ">
<polygon fill="white" stroke="#666666" points="815.5,-488 687.5,-488 687.5,-469 815.5,-469 815.5,-488"/>
<text text-anchor="middle" x="751.5" y="-476" font-family="Helvetica,sans-Serif" font-size="10.00">set_object_timer_state</text>
</a>
</g>
</g>
<!-- Node12&#45;&gt;Node13 -->
<g id="edge13_Node000012_Node000013" class="edge">
<title>Node12&#45;&gt;Node13</title>
<g id="a_edge13_Node000012_Node000013"><a xlink:title=" ">
<path fill="none" stroke="#63b8ff" d="M610.04,-478.5C629.06,-478.5 653.74,-478.5 677.11,-478.5"/>
<polygon fill="#63b8ff" stroke="#63b8ff" points="677.37,-482 687.37,-478.5 677.37,-475 677.37,-482"/>
</a>
</g>
</g>
<!-- Node15 -->
<g id="Node000015" class="node">
<title>Node15</title>
<g id="a_Node000015"><a xlink:href="actors_8c.html#a91fb2e4e37e7c72fea918fe2c1bb4eaf" target="_top" xlink:title=" ">
<polygon fill="white" stroke="#666666" points="471,-174 331,-174 331,-155 471,-155 471,-174"/>
<text text-anchor="middle" x="401" y="-162" font-family="Helvetica,sans-Serif" font-size="10.00">add_actor_to_empty_slot</text>
</a>
</g>
</g>
<!-- Node14&#45;&gt;Node15 -->
<g id="edge16_Node000014_Node000015" class="edge">
<title>Node14&#45;&gt;Node15</title>
<g id="a_edge16_Node000014_Node000015"><a xlink:title=" ">
<path fill="none" stroke="#63b8ff" d="M271.35,-195.99C295.15,-190.16 325.83,-182.66 351.25,-176.43"/>
<polygon fill="#63b8ff" stroke="#63b8ff" points="352.19,-179.81 361.07,-174.03 350.53,-173.01 352.19,-179.81"/>
</a>
</g>
</g>
<!-- Node18 -->
<g id="Node000018" class="node">
<title>Node18</title>
<g id="a_Node000018"><a xlink:href="Game_8cpp.html#a693de7d8b89fe291aafea86bc64a0a2e" target="_top" xlink:title=" ">
<polygon fill="white" stroke="#666666" points="971,-59 891,-59 891,-40 971,-40 971,-59"/>
<text text-anchor="middle" x="931" y="-47" font-family="Helvetica,sans-Serif" font-size="10.00">CM_GetActor</text>
</a>
</g>
</g>
<!-- Node14&#45;&gt;Node18 -->
<g id="edge39_Node000014_Node000018" class="edge">
<title>Node14&#45;&gt;Node18</title>
<g id="a_edge39_Node000014_Node000018"><a xlink:title=" ">
<path fill="none" stroke="#63b8ff" d="M246.21,-195.92C284.92,-169.54 399.22,-96.17 507,-71.5 639.4,-41.2 800.95,-43.17 880.66,-46.62"/>
<polygon fill="#63b8ff" stroke="#63b8ff" points="880.74,-50.13 890.89,-47.09 881.06,-43.13 880.74,-50.13"/>
</a>
</g>
</g>
<!-- Node31 -->
<g id="Node000031" class="node">
<title>Node31</title>
<g id="a_Node000031"><a xlink:href="math__util_8c.html#a79fd07a0971ec96a3ff0801963a2fa7f" target="_top" xlink:title=" ">
<polygon fill="white" stroke="#666666" points="963,-221 899,-221 899,-202 963,-202 963,-221"/>
<text text-anchor="middle" x="931" y="-209" font-family="Helvetica,sans-Serif" font-size="10.00">vec3f_set</text>
</a>
</g>
</g>
<!-- Node14&#45;&gt;Node31 -->
<g id="edge44_Node000014_Node000031" class="edge">
<title>Node14&#45;&gt;Node31</title>
<g id="a_edge44_Node000014_Node000031"><a xlink:title=" ">
<path fill="none" stroke="#63b8ff" d="M295.38,-211.69C403.23,-221.39 630.39,-237.87 822,-225.5 844.17,-224.07 868.75,-221 888.85,-218.1"/>
<polygon fill="#63b8ff" stroke="#63b8ff" points="889.53,-221.54 898.91,-216.61 888.51,-214.61 889.53,-221.54"/>
</a>
</g>
</g>
<!-- Node37 -->
<g id="Node000037" class="node">
<title>Node37</title>
<g id="a_Node000037"><a xlink:href="math__util_8c.html#a062850863585005ad1d0a75d9ff70693" target="_top" xlink:title=" ">
<polygon fill="white" stroke="#666666" points="439.5,-19 362.5,-19 362.5,0 439.5,0 439.5,-19"/>
<text text-anchor="middle" x="401" y="-7" font-family="Helvetica,sans-Serif" font-size="10.00">random_u16</text>
</a>
</g>
</g>
<!-- Node14&#45;&gt;Node37 -->
<g id="edge40_Node000014_Node000037" class="edge">
<title>Node14&#45;&gt;Node37</title>
<g id="a_edge40_Node000014_Node000037"><a xlink:title=" ">
<path fill="none" stroke="#63b8ff" d="M235.38,-195.72C244.44,-166.65 275.13,-79.87 331,-33.5 337.38,-28.2 345.01,-24.04 352.83,-20.79"/>
<polygon fill="#63b8ff" stroke="#63b8ff" points="354.22,-24.01 362.38,-17.25 351.79,-17.44 354.22,-24.01"/>
</a>
</g>
</g>
<!-- Node38 -->
<g id="Node000038" class="node">
<title>Node38</title>
<g id="a_Node000038"><a xlink:href="collision_8c.html#ad95e9ed2051529d5edee26109fa07427" target="_top" xlink:title=" ">
<polygon fill="white" stroke="#666666" points="469.5,-290 332.5,-290 332.5,-271 469.5,-271 469.5,-290"/>
<text text-anchor="middle" x="401" y="-278" font-family="Helvetica,sans-Serif" font-size="10.00">spawn_actor_on_surface</text>
</a>
</g>
</g>
<!-- Node14&#45;&gt;Node38 -->
<g id="edge41_Node000014_Node000038" class="edge">
<title>Node14&#45;&gt;Node38</title>
<g id="a_edge41_Node000014_Node000038"><a xlink:title=" ">
<path fill="none" stroke="#63b8ff" d="M249.23,-215.1C268.54,-225.96 301.46,-243.79 331,-256.5 340.17,-260.44 350.21,-264.23 359.74,-267.58"/>
<polygon fill="#63b8ff" stroke="#63b8ff" points="358.82,-270.97 369.41,-270.91 361.09,-264.35 358.82,-270.97"/>
</a>
</g>
</g>
<!-- Node16 -->
<g id="Node000016" class="node">
<title>Node16</title>
<g id="a_Node000016"><a xlink:href="actors_8c.html#a39c023177b5a7686cdd1fc65b8b953e1" target="_top" xlink:title=" ">
<polygon fill="white" stroke="#666666" points="607,-211 545,-211 545,-192 607,-192 607,-211"/>
<text text-anchor="middle" x="576" y="-199" font-family="Helvetica,sans-Serif" font-size="10.00">actor_init</text>
</a>
</g>
</g>
<!-- Node15&#45;&gt;Node16 -->
<g id="edge17_Node000015_Node000016" class="edge">
<title>Node15&#45;&gt;Node16</title>
<g id="a_edge17_Node000015_Node000016"><a xlink:title=" ">
<path fill="none" stroke="#63b8ff" d="M446.55,-174.03C473.77,-179.85 508.31,-187.24 534.71,-192.88"/>
<polygon fill="#63b8ff" stroke="#63b8ff" points="534.25,-196.36 544.76,-195.03 535.71,-189.52 534.25,-196.36"/>
</a>
</g>
</g>
<!-- Node34 -->
<g id="Node000034" class="node">
<title>Node34</title>
<g id="a_Node000034"><a xlink:href="Game_8cpp.html#acea5cfd9ab22f745bd6627869b95a62e" target="_top" xlink:title=" ">
<polygon fill="white" stroke="#666666" points="632,-100 520,-100 520,-81 632,-81 632,-100"/>
<text text-anchor="middle" x="576" y="-88" font-family="Helvetica,sans-Serif" font-size="10.00">CM_ActorBeginPlay</text>
</a>
</g>
</g>
<!-- Node15&#45;&gt;Node34 -->
<g id="edge36_Node000015_Node000034" class="edge">
<title>Node15&#45;&gt;Node34</title>
<g id="a_edge36_Node000015_Node000034"><a xlink:title=" ">
<path fill="none" stroke="#63b8ff" d="M417.12,-154.99C437.06,-142.79 473.54,-121.65 507,-108.5 512.11,-106.49 517.53,-104.63 522.99,-102.93"/>
<polygon fill="#63b8ff" stroke="#63b8ff" points="524.19,-106.23 532.79,-100.05 522.21,-99.51 524.19,-106.23"/>
</a>
</g>
</g>
<!-- Node35 -->
<g id="Node000035" class="node">
<title>Node35</title>
<g id="a_Node000035"><a xlink:href="Game_8cpp.html#a42f23077aaa52cb3ea5c7803b7dd6816" target="_top" xlink:title=" ">
<polygon fill="white" stroke="#666666" points="629,-174 523,-174 523,-155 629,-155 629,-174"/>
<text text-anchor="middle" x="576" y="-162" font-family="Helvetica,sans-Serif" font-size="10.00">CM_AddBaseActor</text>
</a>
</g>
</g>
<!-- Node15&#45;&gt;Node35 -->
<g id="edge37_Node000015_Node000035" class="edge">
<title>Node15&#45;&gt;Node35</title>
<g id="a_edge37_Node000015_Node000035"><a xlink:title=" ">
<path fill="none" stroke="#63b8ff" d="M471.37,-164.5C485.08,-164.5 499.38,-164.5 512.84,-164.5"/>
<polygon fill="#63b8ff" stroke="#63b8ff" points="512.93,-168 522.93,-164.5 512.93,-161 512.93,-168"/>
</a>
</g>
</g>
<!-- Node36 -->
<g id="Node000036" class="node">
<title>Node36</title>
<g id="a_Node000036"><a xlink:href="Game_8cpp.html#a0841ffe9a66e95aca42438b9d8ffc3d3" target="_top" xlink:title=" ">
<polygon fill="white" stroke="#666666" points="626.5,-137 525.5,-137 525.5,-118 626.5,-118 626.5,-137"/>
<text text-anchor="middle" x="576" y="-125" font-family="Helvetica,sans-Serif" font-size="10.00">CM_GetActorSize</text>
</a>
</g>
</g>
<!-- Node15&#45;&gt;Node36 -->
<g id="edge38_Node000015_Node000036" class="edge">
<title>Node15&#45;&gt;Node36</title>
<g id="a_edge38_Node000015_Node000036"><a xlink:title=" ">
<path fill="none" stroke="#63b8ff" d="M446.55,-154.97C469.07,-150.16 496.58,-144.27 520.36,-139.19"/>
<polygon fill="#63b8ff" stroke="#63b8ff" points="521.25,-142.57 530.3,-137.06 519.79,-135.73 521.25,-142.57"/>
</a>
</g>
</g>
<!-- Node16&#45;&gt;Node4 -->
<g id="edge18_Node000016_Node000004" class="edge">
<title>Node16&#45;&gt;Node4</title>
<g id="a_edge18_Node000016_Node000004"><a xlink:title=" ">
<path fill="none" stroke="#63b8ff" d="M590.04,-211.2C619.68,-233.23 692.37,-287.28 728.86,-314.41"/>
<polygon fill="#63b8ff" stroke="#63b8ff" points="727.19,-317.53 737.31,-320.69 731.37,-311.92 727.19,-317.53"/>
</a>
</g>
</g>
<!-- Node17 -->
<g id="Node000017" class="node">
<title>Node17</title>
<g id="a_Node000017"><a xlink:href="actors_8c.html#a1a9bccb586242555a9123ebd4ab70f2a" target="_top" xlink:title=" ">
<polygon fill="white" stroke="#666666" points="817.5,-105.5 685.5,-105.5 685.5,-75.5 817.5,-75.5 817.5,-105.5"/>
<text text-anchor="start" x="693.5" y="-93.5" font-family="Helvetica,sans-Serif" font-size="10.00">cleanup_red_and_green</text>
<text text-anchor="middle" x="751.5" y="-82.5" font-family="Helvetica,sans-Serif" font-size="10.00">_shells</text>
</a>
</g>
</g>
<!-- Node16&#45;&gt;Node17 -->
<g id="edge19_Node000016_Node000017" class="edge">
<title>Node16&#45;&gt;Node17</title>
<g id="a_edge19_Node000016_Node000017"><a xlink:title=" ">
<path fill="none" stroke="#63b8ff" d="M607.19,-198.4C619.96,-195.83 634.31,-191.11 645,-182.5 671.63,-161.05 655.03,-136.74 681,-114.5 682.37,-113.33 683.79,-112.22 685.27,-111.15"/>
<polygon fill="#63b8ff" stroke="#63b8ff" points="687.52,-113.88 694.19,-105.65 683.84,-107.92 687.52,-113.88"/>
</a>
</g>
</g>
<!-- Node30 -->
<g id="Node000030" class="node">
<title>Node30</title>
<g id="a_Node000030"><a xlink:href="collision_8c.html#ad72fef3ffe32191d73b1822f512ebf3f" target="_top" xlink:title=" ">
<polygon fill="white" stroke="#666666" points="799,-143 704,-143 704,-124 799,-124 799,-143"/>
<text text-anchor="middle" x="751.5" y="-131" font-family="Helvetica,sans-Serif" font-size="10.00">func_802AAAAC</text>
</a>
</g>
</g>
<!-- Node16&#45;&gt;Node30 -->
<g id="edge32_Node000016_Node000030" class="edge">
<title>Node16&#45;&gt;Node30</title>
<g id="a_edge32_Node000016_Node000030"><a xlink:title=" ">
<path fill="none" stroke="#63b8ff" d="M607.2,-196.06C619.4,-193.11 633.33,-188.75 645,-182.5 663.61,-172.53 662.29,-161.29 681,-151.5 685.2,-149.3 689.68,-147.36 694.27,-145.65"/>
<polygon fill="#63b8ff" stroke="#63b8ff" points="695.43,-148.95 703.79,-142.45 693.19,-142.32 695.43,-148.95"/>
</a>
</g>
</g>
<!-- Node32 -->
<g id="Node000032" class="node">
<title>Node32</title>
<g id="a_Node000032"><a xlink:href="math__util_8c.html#af7b470ed76fce07b8042a47c96e5690b" target="_top" xlink:title=" ">
<polygon fill="white" stroke="#666666" points="805,-217 698,-217 698,-198 805,-198 805,-217"/>
<text text-anchor="middle" x="751.5" y="-205" font-family="Helvetica,sans-Serif" font-size="10.00">vec3f_copy_return</text>
</a>
</g>
</g>
<!-- Node16&#45;&gt;Node32 -->
<g id="edge34_Node000016_Node000032" class="edge">
<title>Node16&#45;&gt;Node32</title>
<g id="a_edge34_Node000016_Node000032"><a xlink:title=" ">
<path fill="none" stroke="#63b8ff" d="M607.22,-202.55C629.35,-203.31 660.16,-204.38 687.55,-205.32"/>
<polygon fill="#63b8ff" stroke="#63b8ff" points="687.73,-208.83 697.85,-205.68 687.98,-201.84 687.73,-208.83"/>
</a>
</g>
</g>
<!-- Node33 -->
<g id="Node000033" class="node">
<title>Node33</title>
<g id="a_Node000033"><a xlink:href="math__util_8c.html#a0e270ee67600c8c9c2f140c647d008a1" target="_top" xlink:title=" ">
<polygon fill="white" stroke="#666666" points="788.5,-180 714.5,-180 714.5,-161 788.5,-161 788.5,-180"/>
<text text-anchor="middle" x="751.5" y="-168" font-family="Helvetica,sans-Serif" font-size="10.00">vec3s_copy</text>
</a>
</g>
</g>
<!-- Node16&#45;&gt;Node33 -->
<g id="edge35_Node000016_Node000033" class="edge">
<title>Node16&#45;&gt;Node33</title>
<g id="a_edge35_Node000016_Node000033"><a xlink:title=" ">
<path fill="none" stroke="#63b8ff" d="M607.22,-196.1C634,-191.32 673.51,-184.26 704.26,-178.76"/>
<polygon fill="#63b8ff" stroke="#63b8ff" points="705.09,-182.17 714.32,-176.96 703.86,-175.28 705.09,-182.17"/>
</a>
</g>
</g>
<!-- Node17&#45;&gt;Node18 -->
<g id="edge20_Node000017_Node000018" class="edge">
<title>Node17&#45;&gt;Node18</title>
<g id="a_edge20_Node000017_Node000018"><a xlink:title=" ">
<path fill="none" stroke="#63b8ff" d="M817.59,-75.47C838.57,-70.62 861.45,-65.33 881.06,-60.8"/>
<polygon fill="#63b8ff" stroke="#63b8ff" points="882.03,-64.17 890.99,-58.51 880.46,-57.35 882.03,-64.17"/>
</a>
</g>
</g>
<!-- Node19 -->
<g id="Node000019" class="node">
<title>Node19</title>
<g id="a_Node000019"><a xlink:href="code__80005FD0_8c.html#ad301b978cdd3c4cc190b10be050d51d8" target="_top" xlink:title=" ">
<polygon fill="white" stroke="#666666" points="1004,-147.5 858,-147.5 858,-117.5 1004,-117.5 1004,-147.5"/>
<text text-anchor="start" x="866" y="-135.5" font-family="Helvetica,sans-Serif" font-size="10.00">delete_actor_in_unexpired</text>
<text text-anchor="middle" x="931" y="-124.5" font-family="Helvetica,sans-Serif" font-size="10.00">_actor_list</text>
</a>
</g>
</g>
<!-- Node17&#45;&gt;Node19 -->
<g id="edge21_Node000017_Node000019" class="edge">
<title>Node17&#45;&gt;Node19</title>
<g id="a_edge21_Node000017_Node000019"><a xlink:title=" ">
<path fill="none" stroke="#63b8ff" d="M816.08,-105.54C829.29,-108.67 843.31,-111.99 856.83,-115.19"/>
<polygon fill="#63b8ff" stroke="#63b8ff" points="856.03,-118.59 866.57,-117.49 857.64,-111.78 856.03,-118.59"/>
</a>
</g>
</g>
<!-- Node20 -->
<g id="Node000020" class="node">
<title>Node20</title>
<g id="a_Node000020"><a xlink:href="actors_8c.html#a694ec6ef7548b8618aeb35c038d3a9b9" target="_top" xlink:title=" ">
<polygon fill="white" stroke="#666666" points="972.5,-99 889.5,-99 889.5,-80 972.5,-80 972.5,-99"/>
<text text-anchor="middle" x="931" y="-87" font-family="Helvetica,sans-Serif" font-size="10.00">destroy_actor</text>
</a>
</g>
</g>
<!-- Node17&#45;&gt;Node20 -->
<g id="edge22_Node000017_Node000020" class="edge">
<title>Node17&#45;&gt;Node20</title>
<g id="a_edge22_Node000017_Node000020"><a xlink:title=" ">
<path fill="none" stroke="#63b8ff" d="M817.59,-90.13C837.97,-90.02 860.14,-89.89 879.37,-89.79"/>
<polygon fill="#63b8ff" stroke="#63b8ff" points="879.45,-93.28 889.43,-89.73 879.41,-86.29 879.45,-93.28"/>
</a>
</g>
</g>
<!-- Node21 -->
<g id="Node000021" class="node">
<title>Node21</title>
<g id="a_Node000021"><a xlink:href="actors_8c.html#a12dc3ccac4c7d8569eadac0af4fd6f9f" target="_top" xlink:title=" ">
<polygon fill="white" stroke="#666666" points="1198,-99 1040,-99 1040,-80 1198,-80 1198,-99"/>
<text text-anchor="middle" x="1119" y="-87" font-family="Helvetica,sans-Serif" font-size="10.00">play_sound_before_despawn</text>
</a>
</g>
</g>
<!-- Node20&#45;&gt;Node21 -->
<g id="edge23_Node000020_Node000021" class="edge">
<title>Node20&#45;&gt;Node21</title>
<g id="a_edge23_Node000020_Node000021"><a xlink:title=" ">
<path fill="none" stroke="#63b8ff" d="M972.82,-89.5C989.65,-89.5 1009.86,-89.5 1029.77,-89.5"/>
<polygon fill="#63b8ff" stroke="#63b8ff" points="1029.82,-93 1039.82,-89.5 1029.82,-86 1029.82,-93"/>
</a>
</g>
</g>
<!-- Node22 -->
<g id="Node000022" class="node">
<title>Node22</title>
<g id="a_Node000022"><a xlink:href="external_8c.html#ae72057869772019e4464c87d4e16c682" target="_top" xlink:title=" ">
<polygon fill="white" stroke="#666666" points="1326,-99 1234,-99 1234,-80 1326,-80 1326,-99"/>
<text text-anchor="middle" x="1280" y="-87" font-family="Helvetica,sans-Serif" font-size="10.00">func_800C99E0</text>
</a>
</g>
</g>
<!-- Node21&#45;&gt;Node22 -->
<g id="edge24_Node000021_Node000022" class="edge">
<title>Node21&#45;&gt;Node22</title>
<g id="a_edge24_Node000021_Node000022"><a xlink:title=" ">
<path fill="none" stroke="#63b8ff" d="M1198.1,-89.5C1206.72,-89.5 1215.35,-89.5 1223.61,-89.5"/>
<polygon fill="#63b8ff" stroke="#63b8ff" points="1223.83,-93 1233.83,-89.5 1223.83,-86 1223.83,-93"/>
</a>
</g>
</g>
<!-- Node23 -->
<g id="Node000023" class="node">
<title>Node23</title>
<g id="a_Node000023"><a xlink:href="external_8c.html#aeb87c527482a244173df36a1f3d4f446" target="_top" xlink:title=" ">
<polygon fill="white" stroke="#666666" points="1454,-118 1362,-118 1362,-99 1454,-99 1454,-118"/>
<text text-anchor="middle" x="1408" y="-106" font-family="Helvetica,sans-Serif" font-size="10.00">func_800C21E8</text>
</a>
</g>
</g>
<!-- Node22&#45;&gt;Node23 -->
<g id="edge25_Node000022_Node000023" class="edge">
<title>Node22&#45;&gt;Node23</title>
<g id="a_edge25_Node000022_Node000023"><a xlink:title=" ">
<path fill="none" stroke="#63b8ff" d="M1326.13,-96.31C1334.46,-97.56 1343.23,-98.88 1351.81,-100.18"/>
<polygon fill="#63b8ff" stroke="#63b8ff" points="1351.35,-103.65 1361.76,-101.68 1352.39,-96.73 1351.35,-103.65"/>
</a>
</g>
</g>
<!-- Node24 -->
<g id="Node000024" class="node">
<title>Node24</title>
<g id="a_Node000024"><a xlink:href="external_8c.html#a028d40421b90c38f68ebfd5acc626f2e" target="_top" xlink:title=" ">
<polygon fill="white" stroke="#666666" points="1454,-81 1362,-81 1362,-62 1454,-62 1454,-81"/>
<text text-anchor="middle" x="1408" y="-69" font-family="Helvetica,sans-Serif" font-size="10.00">func_800C5578</text>
</a>
</g>
</g>
<!-- Node22&#45;&gt;Node24 -->
<g id="edge26_Node000022_Node000024" class="edge">
<title>Node22&#45;&gt;Node24</title>
<g id="a_edge26_Node000022_Node000024"><a xlink:title=" ">
<path fill="none" stroke="#63b8ff" d="M1326.13,-83.05C1334.46,-81.86 1343.23,-80.61 1351.81,-79.38"/>
<polygon fill="#63b8ff" stroke="#63b8ff" points="1352.35,-82.84 1361.76,-77.96 1351.36,-75.91 1352.35,-82.84"/>
</a>
</g>
</g>
<!-- Node25 -->
<g id="Node000025" class="node">
<title>Node25</title>
<g id="a_Node000025"><a xlink:href="external_8c.html#ac0fb767de7e14a03f1bcfa53f0abd23b" target="_top" xlink:title=" ">
<polygon fill="white" stroke="#666666" points="1630,-118 1490,-118 1490,-99 1630,-99 1630,-118"/>
<text text-anchor="middle" x="1560" y="-106" font-family="Helvetica,sans-Serif" font-size="10.00">delete_sound_from_bank</text>
</a>
</g>
</g>
<!-- Node24&#45;&gt;Node25 -->
<g id="edge27_Node000024_Node000025" class="edge">
<title>Node24&#45;&gt;Node25</title>
<g id="a_edge27_Node000024_Node000025"><a xlink:title=" ">
<path fill="none" stroke="#63b8ff" d="M1447.63,-81.03C1466.8,-85.76 1490.16,-91.52 1510.52,-96.54"/>
<polygon fill="#63b8ff" stroke="#63b8ff" points="1509.69,-99.94 1520.24,-98.94 1511.37,-93.15 1509.69,-99.94"/>
</a>
</g>
</g>
<!-- Node27 -->
<g id="Node000027" class="node">
<title>Node27</title>
<g id="a_Node000027"><a xlink:href="external_8c.html#ab83bd36e63f0f1baddcb2482b5ad31b0" target="_top" xlink:title=" ">
<polygon fill="white" stroke="#666666" points="1606.5,-81 1513.5,-81 1513.5,-62 1606.5,-62 1606.5,-81"/>
<text text-anchor="middle" x="1560" y="-69" font-family="Helvetica,sans-Serif" font-size="10.00">func_800C41CC</text>
</a>
</g>
</g>
<!-- Node24&#45;&gt;Node27 -->
<g id="edge29_Node000024_Node000027" class="edge">
<title>Node24&#45;&gt;Node27</title>
<g id="a_edge29_Node000024_Node000027"><a xlink:title=" ">
<path fill="none" stroke="#63b8ff" d="M1454,-71.5C1469.37,-71.5 1486.74,-71.5 1502.86,-71.5"/>
<polygon fill="#63b8ff" stroke="#63b8ff" points="1503.25,-75 1513.25,-71.5 1503.25,-68 1503.25,-75"/>
</a>
</g>
</g>
<!-- Node28 -->
<g id="Node000028" class="node">
<title>Node28</title>
<g id="a_Node000028"><a xlink:href="port__eu_8c.html#aa89dfaecca46c6d071f08c1898d1f7c9" target="_top" xlink:title=" ">
<polygon fill="white" stroke="#666666" points="1606.5,-44 1513.5,-44 1513.5,-25 1606.5,-25 1606.5,-44"/>
<text text-anchor="middle" x="1560" y="-32" font-family="Helvetica,sans-Serif" font-size="10.00">func_800CBBE8</text>
</a>
</g>
</g>
<!-- Node24&#45;&gt;Node28 -->
<g id="edge30_Node000024_Node000028" class="edge">
<title>Node24&#45;&gt;Node28</title>
<g id="a_edge30_Node000024_Node000028"><a xlink:title=" ">
<path fill="none" stroke="#63b8ff" d="M1447.63,-61.97C1466.8,-57.24 1490.16,-51.48 1510.52,-46.46"/>
<polygon fill="#63b8ff" stroke="#63b8ff" points="1511.37,-49.85 1520.24,-44.06 1509.69,-43.06 1511.37,-49.85"/>
</a>
</g>
</g>
<!-- Node26 -->
<g id="Node000026" class="node">
<title>Node26</title>
<g id="a_Node000026"><a xlink:href="external_8c.html#a358ac55e8ab5262dcae8037334be06d7" target="_top" xlink:title=" ">
<polygon fill="white" stroke="#666666" points="1758.5,-118 1666.5,-118 1666.5,-99 1758.5,-99 1758.5,-118"/>
<text text-anchor="middle" x="1712.5" y="-106" font-family="Helvetica,sans-Serif" font-size="10.00">func_800C40F0</text>
</a>
</g>
</g>
<!-- Node25&#45;&gt;Node26 -->
<g id="edge28_Node000025_Node000026" class="edge">
<title>Node25&#45;&gt;Node26</title>
<g id="a_edge28_Node000025_Node000026"><a xlink:title=" ">
<path fill="none" stroke="#63b8ff" d="M1630.08,-108.5C1638.87,-108.5 1647.78,-108.5 1656.31,-108.5"/>
<polygon fill="#63b8ff" stroke="#63b8ff" points="1656.5,-112 1666.5,-108.5 1656.5,-105 1656.5,-112"/>
</a>
</g>
</g>
<!-- Node29 -->
<g id="Node000029" class="node">
<title>Node29</title>
<g id="a_Node000029"><a xlink:href="port__eu_8c.html#af361a20d2e08f30c53a237ca481ff734" target="_top" xlink:title=" ">
<polygon fill="white" stroke="#666666" points="1759,-44 1666,-44 1666,-25 1759,-25 1759,-44"/>
<text text-anchor="middle" x="1712.5" y="-32" font-family="Helvetica,sans-Serif" font-size="10.00">func_800CBB48</text>
</a>
</g>
</g>
<!-- Node28&#45;&gt;Node29 -->
<g id="edge31_Node000028_Node000029" class="edge">
<title>Node28&#45;&gt;Node29</title>
<g id="a_edge31_Node000028_Node000029"><a xlink:title=" ">
<path fill="none" stroke="#63b8ff" d="M1606.56,-34.5C1621.96,-34.5 1639.34,-34.5 1655.46,-34.5"/>
<polygon fill="#63b8ff" stroke="#63b8ff" points="1655.83,-38 1665.83,-34.5 1655.83,-31 1655.83,-38"/>
</a>
</g>
</g>
<!-- Node30&#45;&gt;Node31 -->
<g id="edge33_Node000030_Node000031" class="edge">
<title>Node30&#45;&gt;Node31</title>
<g id="a_edge33_Node000030_Node000031"><a xlink:title=" ">
<path fill="none" stroke="#63b8ff" d="M796.42,-143.07C805.03,-145.45 813.9,-148.26 822,-151.5 852.71,-163.77 885.6,-183.03 906.91,-196.4"/>
<polygon fill="#63b8ff" stroke="#63b8ff" points="905.25,-199.49 915.56,-201.91 909.01,-193.59 905.25,-199.49"/>
</a>
</g>
</g>
<!-- Node39 -->
<g id="Node000039" class="node">
<title>Node39</title>
<g id="a_Node000039"><a xlink:href="collision_8c.html#a6527a2135a10909cdf9a1fd731be5628" target="_top" xlink:title=" ">
<polygon fill="white" stroke="#666666" points="645,-290 507,-290 507,-271 645,-271 645,-290"/>
<text text-anchor="middle" x="576" y="-278" font-family="Helvetica,sans-Serif" font-size="10.00">calculate_surface_height</text>
</a>
</g>
</g>
<!-- Node38&#45;&gt;Node39 -->
<g id="edge42_Node000038_Node000039" class="edge">
<title>Node38&#45;&gt;Node39</title>
<g id="a_edge42_Node000038_Node000039"><a xlink:title=" ">
<path fill="none" stroke="#63b8ff" d="M469.88,-280.5C478.68,-280.5 487.75,-280.5 496.71,-280.5"/>
<polygon fill="#63b8ff" stroke="#63b8ff" points="496.75,-284 506.75,-280.5 496.75,-277 496.75,-284"/>
</a>
</g>
</g>
<!-- Node40 -->
<g id="Node000040" class="node">
<title>Node40</title>
<g id="a_Node000040"><a xlink:href="collision_8c.html#a0fe340ccfe1d926a592ea9a0c84d7574" target="_top" xlink:title=" ">
<polygon fill="white" stroke="#666666" points="642,-338.5 510,-338.5 510,-308.5 642,-308.5 642,-338.5"/>
<text text-anchor="start" x="518" y="-326.5" font-family="Helvetica,sans-Serif" font-size="10.00">check_horizontally</text>
<text text-anchor="middle" x="576" y="-315.5" font-family="Helvetica,sans-Serif" font-size="10.00">_colliding_with_triangle</text>
</a>
</g>
</g>
<!-- Node38&#45;&gt;Node40 -->
<g id="edge43_Node000038_Node000040" class="edge">
<title>Node38&#45;&gt;Node40</title>
<g id="a_edge43_Node000038_Node000040"><a xlink:title=" ">
<path fill="none" stroke="#63b8ff" d="M440.39,-290.04C459.3,-294.74 482.7,-300.56 504.66,-306.02"/>
<polygon fill="#63b8ff" stroke="#63b8ff" points="504.08,-309.48 514.63,-308.49 505.77,-302.68 504.08,-309.48"/>
</a>
</g>
</g>
</g>
</svg>

<g id="navigator" transform="translate(0 0)" fill="#404254">
  <rect fill="#f2f5e9" fill-opacity="0.5" stroke="#606060" stroke-width=".5" x="0" y="0" width="60" height="60"/>
  <use id="zoomplus" xlink:href="#zoomPlus" x="17" y="9" onmousedown="handleZoom(evt,'in')"/>
  <use id="zoomminus" xlink:href="#zoomMin" x="42" y="9" onmousedown="handleZoom(evt,'out')"/>
  <use id="reset" xlink:href="#resetDef" x="30" y="36" onmousedown="handleReset()"/>
   <use id="arrowup" xlink:href="#arrowUp" x="0" y="0" onmousedown="handlePan(0,-1)"/>
  <use id="arrowright" xlink:href="#arrowRight" x="0" y="0" onmousedown="handlePan(1,0)"/>
  <use id="arrowdown" xlink:href="#arrowDown" x="0" y="0" onmousedown="handlePan(0,1)"/>
  <use id="arrowleft" xlink:href="#arrowLeft" x="0" y="0" onmousedown="handlePan(-1,0)"/>
</g>
<svg viewBox="0 0 15 15" width="100%" height="30px" preserveAspectRatio="xMaxYMin meet">
 <g id="arrow_out" transform="scale(0.3 0.3)">
  <a xlink:href="classSherbetLand_aaf3ff18960e8e9896f51bd93e2d8ff9a_cgraph_org.svg" target="_base">
   <rect id="button" ry="5" rx="5" y="6" x="6" height="38" width="38"
        fill="#f2f5e9" fill-opacity="0.5" stroke="#606060" stroke-width="1.0"/>
   <path id="arrow"
     d="M 11.500037,31.436501 C 11.940474,20.09759 22.043105,11.32322 32.158766,21.979434 L 37.068811,17.246167 C 37.068811,17.246167 37.088388,32 37.088388,32 L 22.160133,31.978069 C 22.160133,31.978069 26.997745,27.140456 26.997745,27.140456 C 18.528582,18.264221 13.291696,25.230495 11.500037,31.436501 z"
     style="fill:#404040;"/>
  </a>
 </g>
</svg>

<style type='text/css'>
<![CDATA[
[data-mouse-over-selected='false'] { opacity: 0.7; }
[data-mouse-over-selected='true']  { opacity: 1.0; }
]]>
</style>
<script type="application/ecmascript"><![CDATA[
document.addEventListener('DOMContentLoaded', (event) => {
  highlightEdges();
  highlightAdjacentNodes();
});
]]></script>
</svg>
