<?xml version="1.0" encoding="UTF-8" standalone="no"?>
<!DOCTYPE svg PUBLIC "-//W3C//DTD SVG 1.1//EN"
 "http://www.w3.org/Graphics/SVG/1.1/DTD/svg11.dtd">
<!-- Generated by graphviz version 2.43.0 (0)
 -->
<!-- Title: AFallingRock::Draw Pages: 1 -->
<svg width="948pt" height="463pt"
 viewBox="0.00 0.00 948.00 463.00" xmlns="http://www.w3.org/2000/svg" xmlns:xlink="http://www.w3.org/1999/xlink">
<g id="graph0" class="graph" transform="scale(1 1) rotate(0) translate(4 459)">
<title>AFallingRock::Draw</title>
<!-- Node1 -->
<g id="Node000001" class="node">
<title>Node1</title>
<g id="a_Node000001"><a xlink:title="Renders the falling rock actor. Actor used in Choco Mountain.">
<polygon fill="#999999" stroke="#666666" points="110,-341 0,-341 0,-322 110,-322 110,-341"/>
<text text-anchor="middle" x="55" y="-329" font-family="Helvetica,sans-Serif" font-size="10.00">AFallingRock::Draw</text>
</a>
</g>
</g>
<!-- Node2 -->
<g id="Node000002" class="node">
<title>Node2</title>
<g id="a_Node000002"><a xlink:href="collision_8c.html#a6527a2135a10909cdf9a1fd731be5628" target="_top" xlink:title=" ">
<polygon fill="white" stroke="#666666" points="286.5,-455 148.5,-455 148.5,-436 286.5,-436 286.5,-455"/>
<text text-anchor="middle" x="217.5" y="-443" font-family="Helvetica,sans-Serif" font-size="10.00">calculate_surface_height</text>
</a>
</g>
</g>
<!-- Node1&#45;&gt;Node2 -->
<g id="edge1_Node000001_Node000002" class="edge">
<title>Node1&#45;&gt;Node2</title>
<g id="a_edge1_Node000001_Node000002"><a xlink:title=" ">
<path fill="none" stroke="#63b8ff" d="M63.09,-341.07C77.03,-359.25 109.79,-398.96 146,-421.5 152.95,-425.82 160.76,-429.48 168.6,-432.52"/>
<polygon fill="#63b8ff" stroke="#63b8ff" points="167.52,-435.85 178.11,-435.95 169.89,-429.27 167.52,-435.85"/>
</a>
</g>
</g>
<!-- Node3 -->
<g id="Node000003" class="node">
<title>Node3</title>
<g id="a_Node000003"><a xlink:href="FrameInterpolation_8cpp.html#a3a036bc9d533e28a4e9697cd20dccf3e" target="_top" xlink:title=" ">
<polygon fill="white" stroke="#666666" points="781,-410.5 671,-410.5 671,-380.5 781,-380.5 781,-410.5"/>
<text text-anchor="start" x="679" y="-398.5" font-family="Helvetica,sans-Serif" font-size="10.00">FrameInterpolation</text>
<text text-anchor="middle" x="726" y="-387.5" font-family="Helvetica,sans-Serif" font-size="10.00">_RecordCloseChild</text>
</a>
</g>
</g>
<!-- Node1&#45;&gt;Node3 -->
<g id="edge2_Node000001_Node000003" class="edge">
<title>Node1&#45;&gt;Node3</title>
<g id="a_edge2_Node000001_Node000003"><a xlink:title=" ">
<path fill="none" stroke="#63b8ff" d="M73.65,-341.13C91.36,-350.27 119.72,-363.46 146,-369.5 328.88,-411.52 552.56,-406.12 660.56,-400.08"/>
<polygon fill="#63b8ff" stroke="#63b8ff" points="660.86,-403.57 670.65,-399.5 660.46,-396.58 660.86,-403.57"/>
</a>
</g>
</g>
<!-- Node5 -->
<g id="Node000005" class="node">
<title>Node5</title>
<g id="a_Node000005"><a xlink:href="FrameInterpolation_8cpp.html#a0eda726b74eac815af4e874014e2727c" target="_top" xlink:title=" ">
<polygon fill="white" stroke="#666666" points="620,-379.5 510,-379.5 510,-349.5 620,-349.5 620,-379.5"/>
<text text-anchor="start" x="518" y="-367.5" font-family="Helvetica,sans-Serif" font-size="10.00">FrameInterpolation</text>
<text text-anchor="middle" x="565" y="-356.5" font-family="Helvetica,sans-Serif" font-size="10.00">_RecordOpenChild</text>
</a>
</g>
</g>
<!-- Node1&#45;&gt;Node5 -->
<g id="edge4_Node000001_Node000005" class="edge">
<title>Node1&#45;&gt;Node5</title>
<g id="a_edge4_Node000001_Node000005"><a xlink:title=" ">
<path fill="none" stroke="#63b8ff" d="M93.85,-341.03C109.84,-344.65 128.72,-348.4 146,-350.5 270.6,-365.62 417.51,-366.7 499.79,-365.81"/>
<polygon fill="#63b8ff" stroke="#63b8ff" points="500.03,-369.31 509.99,-365.69 499.95,-362.31 500.03,-369.31"/>
</a>
</g>
</g>
<!-- Node6 -->
<g id="Node000006" class="node">
<title>Node6</title>
<g id="a_Node000006"><a xlink:href="GBIMiddleware_8cpp.html#a4ecc44e3c6f1ca5a6b4a20c41d3bd2d2" target="_top" xlink:title=" ">
<polygon fill="white" stroke="#666666" points="262,-341 173,-341 173,-322 262,-322 262,-341"/>
<text text-anchor="middle" x="217.5" y="-329" font-family="Helvetica,sans-Serif" font-size="10.00">gSPDisplayList</text>
</a>
</g>
</g>
<!-- Node1&#45;&gt;Node6 -->
<g id="edge6_Node000001_Node000006" class="edge">
<title>Node1&#45;&gt;Node6</title>
<g id="a_edge6_Node000001_Node000006"><a xlink:title=" ">
<path fill="none" stroke="#63b8ff" d="M110.34,-331.5C127.21,-331.5 145.79,-331.5 162.63,-331.5"/>
<polygon fill="#63b8ff" stroke="#63b8ff" points="162.85,-335 172.85,-331.5 162.85,-328 162.85,-335"/>
</a>
</g>
</g>
<!-- Node9 -->
<g id="Node000009" class="node">
<title>Node9</title>
<g id="a_Node000009"><a xlink:href="math__util_8c.html#a5e1d12b8745a8d5f8d73ab366328d3cd" target="_top" xlink:title=" ">
<polygon fill="white" stroke="#666666" points="289,-255 146,-255 146,-236 289,-236 289,-255"/>
<text text-anchor="middle" x="217.5" y="-243" font-family="Helvetica,sans-Serif" font-size="10.00">is_within_render_distance</text>
</a>
</g>
</g>
<!-- Node1&#45;&gt;Node9 -->
<g id="edge9_Node000001_Node000009" class="edge">
<title>Node1&#45;&gt;Node9</title>
<g id="a_edge9_Node000001_Node000009"><a xlink:title=" ">
<path fill="none" stroke="#63b8ff" d="M73.79,-321.97C101.87,-306.92 156.65,-277.57 189.57,-259.93"/>
<polygon fill="#63b8ff" stroke="#63b8ff" points="191.47,-262.88 198.63,-255.07 188.16,-256.71 191.47,-262.88"/>
</a>
</g>
</g>
<!-- Node17 -->
<g id="Node000017" class="node">
<title>Node17</title>
<g id="a_Node000017"><a xlink:href="math__util_8c.html#a7085bb4bb08bdc39c0fa0b98f25176ef" target="_top" xlink:title=" ">
<polygon fill="white" stroke="#666666" points="281.5,-113 153.5,-113 153.5,-94 281.5,-94 281.5,-113"/>
<text text-anchor="middle" x="217.5" y="-101" font-family="Helvetica,sans-Serif" font-size="10.00">mtxf_pos_rotation_xyz</text>
</a>
</g>
</g>
<!-- Node1&#45;&gt;Node17 -->
<g id="edge18_Node000001_Node000017" class="edge">
<title>Node1&#45;&gt;Node17</title>
<g id="a_edge18_Node000001_Node000017"><a xlink:title=" ">
<path fill="none" stroke="#63b8ff" d="M62.69,-321.99C87.11,-287.3 171.69,-167.16 203.9,-121.39"/>
<polygon fill="#63b8ff" stroke="#63b8ff" points="206.88,-123.24 209.78,-113.05 201.16,-119.21 206.88,-123.24"/>
</a>
</g>
</g>
<!-- Node21 -->
<g id="Node000021" class="node">
<title>Node21</title>
<g id="a_Node000021"><a xlink:href="math__util_8c.html#a1e5d28a1962fbb390c7551f66c2f099a" target="_top" xlink:title=" ">
<polygon fill="white" stroke="#666666" points="274,-38 161,-38 161,-19 274,-19 274,-38"/>
<text text-anchor="middle" x="217.5" y="-26" font-family="Helvetica,sans-Serif" font-size="10.00">render_set_position</text>
</a>
</g>
</g>
<!-- Node1&#45;&gt;Node21 -->
<g id="edge23_Node000001_Node000021" class="edge">
<title>Node1&#45;&gt;Node21</title>
<g id="a_edge23_Node000001_Node000021"><a xlink:title=" ">
<path fill="none" stroke="#63b8ff" d="M57.6,-321.64C63.69,-286.46 88.1,-164.85 146,-84.5 157.96,-67.91 176.11,-53.65 191,-43.67"/>
<polygon fill="#63b8ff" stroke="#63b8ff" points="193.25,-46.38 199.76,-38.03 189.46,-40.5 193.25,-46.38"/>
</a>
</g>
</g>
<!-- Node4 -->
<g id="Node000004" class="node">
<title>Node4</title>
<g id="a_Node000004"><a xlink:href="FrameInterpolation_8cpp.html#a02c7ac5342a4d376edee38f312b480bf" target="_top" xlink:title=" ">
<polygon fill="white" stroke="#666666" points="940,-288 832,-288 832,-269 940,-269 940,-288"/>
<text text-anchor="middle" x="886" y="-276" font-family="Helvetica,sans-Serif" font-size="10.00">check_if_recording</text>
</a>
</g>
</g>
<!-- Node3&#45;&gt;Node4 -->
<g id="edge3_Node000003_Node000004" class="edge">
<title>Node3&#45;&gt;Node4</title>
<g id="a_edge3_Node000003_Node000004"><a xlink:title=" ">
<path fill="none" stroke="#63b8ff" d="M756.68,-380.46C769.18,-373.69 783.65,-365.26 796,-356.5 822.5,-337.7 850.22,-312.37 867.54,-295.74"/>
<polygon fill="#63b8ff" stroke="#63b8ff" points="870.42,-297.82 875.16,-288.35 865.54,-292.8 870.42,-297.82"/>
</a>
</g>
</g>
<!-- Node5&#45;&gt;Node4 -->
<g id="edge5_Node000005_Node000004" class="edge">
<title>Node5&#45;&gt;Node4</title>
<g id="a_edge5_Node000005_Node000004"><a xlink:title=" ">
<path fill="none" stroke="#63b8ff" d="M620.11,-349.91C681.82,-333.27 781.63,-306.37 839.5,-290.77"/>
<polygon fill="#63b8ff" stroke="#63b8ff" points="840.71,-294.07 849.45,-288.08 838.88,-287.31 840.71,-294.07"/>
</a>
</g>
</g>
<!-- Node7 -->
<g id="Node000007" class="node">
<title>Node7</title>
<g id="a_Node000007"><a xlink:href="Engine_8cpp.html#a223c8bc63f228dc11177515e38eff2db" target="_top" xlink:title=" ">
<polygon fill="white" stroke="#666666" points="474,-341 325,-341 325,-322 474,-322 474,-341"/>
<text text-anchor="middle" x="399.5" y="-329" font-family="Helvetica,sans-Serif" font-size="10.00">GameEngine_OTRSigCheck</text>
</a>
</g>
</g>
<!-- Node6&#45;&gt;Node7 -->
<g id="edge7_Node000006_Node000007" class="edge">
<title>Node6&#45;&gt;Node7</title>
<g id="a_edge7_Node000006_Node000007"><a xlink:title=" ">
<path fill="none" stroke="#63b8ff" d="M262.07,-331.5C277.96,-331.5 296.51,-331.5 314.72,-331.5"/>
<polygon fill="#63b8ff" stroke="#63b8ff" points="314.78,-335 324.78,-331.5 314.78,-328 314.78,-335"/>
</a>
</g>
</g>
<!-- Node8 -->
<g id="Node000008" class="node">
<title>Node8</title>
<g id="a_Node000008"><a xlink:href="string_8c.html#a008e171a518fe0e0352f31b245e03875" target="_top" xlink:title=" ">
<polygon fill="white" stroke="#666666" points="587,-331 543,-331 543,-312 587,-312 587,-331"/>
<text text-anchor="middle" x="565" y="-319" font-family="Helvetica,sans-Serif" font-size="10.00">strlen</text>
</a>
</g>
</g>
<!-- Node7&#45;&gt;Node8 -->
<g id="edge8_Node000007_Node000008" class="edge">
<title>Node7&#45;&gt;Node8</title>
<g id="a_edge8_Node000007_Node000008"><a xlink:title=" ">
<path fill="none" stroke="#63b8ff" d="M474.12,-327C494.7,-325.74 515.97,-324.44 532.66,-323.42"/>
<polygon fill="#63b8ff" stroke="#63b8ff" points="533.13,-326.89 542.9,-322.79 532.71,-319.91 533.13,-326.89"/>
</a>
</g>
</g>
<!-- Node10 -->
<g id="Node000010" class="node">
<title>Node10</title>
<g id="a_Node000010"><a xlink:href="math__util_8c.html#a07a66adf3458c156c7961b983983627a" target="_top" xlink:title=" ">
<polygon fill="white" stroke="#666666" points="446,-255 353,-255 353,-236 446,-236 446,-255"/>
<text text-anchor="middle" x="399.5" y="-243" font-family="Helvetica,sans-Serif" font-size="10.00">func_802B7CA8</text>
</a>
</g>
</g>
<!-- Node9&#45;&gt;Node10 -->
<g id="edge10_Node000009_Node000010" class="edge">
<title>Node9&#45;&gt;Node10</title>
<g id="a_edge10_Node000009_Node000010"><a xlink:title=" ">
<path fill="none" stroke="#63b8ff" d="M289.12,-245.5C306.91,-245.5 325.75,-245.5 342.69,-245.5"/>
<polygon fill="#63b8ff" stroke="#63b8ff" points="342.96,-249 352.96,-245.5 342.96,-242 342.96,-249"/>
</a>
</g>
</g>
<!-- Node14 -->
<g id="Node000014" class="node">
<title>Node14</title>
<g id="a_Node000014"><a xlink:href="math__util_8c.html#a84cf9d4ec33146a64c230ed4cec56632" target="_top" xlink:title=" ">
<polygon fill="white" stroke="#666666" points="467,-303.5 332,-303.5 332,-273.5 467,-273.5 467,-303.5"/>
<text text-anchor="start" x="340" y="-291.5" font-family="Helvetica,sans-Serif" font-size="10.00">get_angle_between_two</text>
<text text-anchor="middle" x="399.5" y="-280.5" font-family="Helvetica,sans-Serif" font-size="10.00">_vectors</text>
</a>
</g>
</g>
<!-- Node9&#45;&gt;Node14 -->
<g id="edge14_Node000009_Node000014" class="edge">
<title>Node9&#45;&gt;Node14</title>
<g id="a_edge14_Node000009_Node000014"><a xlink:title=" ">
<path fill="none" stroke="#63b8ff" d="M258.45,-255.04C278.3,-259.78 302.9,-265.66 325.93,-271.16"/>
<polygon fill="#63b8ff" stroke="#63b8ff" points="325.14,-274.57 335.68,-273.49 326.77,-267.77 325.14,-274.57"/>
</a>
</g>
</g>
<!-- Node15 -->
<g id="Node000015" class="node">
<title>Node15</title>
<g id="a_Node000015"><a xlink:href="math__util_8c.html#a3eb0db0895b2c11953df746ce49b782e" target="_top" xlink:title=" ">
<polygon fill="white" stroke="#666666" points="454.5,-217.5 344.5,-217.5 344.5,-187.5 454.5,-187.5 454.5,-217.5"/>
<text text-anchor="start" x="352.5" y="-205.5" font-family="Helvetica,sans-Serif" font-size="10.00">is_visible_between</text>
<text text-anchor="middle" x="399.5" y="-194.5" font-family="Helvetica,sans-Serif" font-size="10.00">_angle</text>
</a>
</g>
</g>
<!-- Node9&#45;&gt;Node15 -->
<g id="edge16_Node000009_Node000015" class="edge">
<title>Node9&#45;&gt;Node15</title>
<g id="a_edge16_Node000009_Node000015"><a xlink:title=" ">
<path fill="none" stroke="#63b8ff" d="M258.45,-235.96C280.76,-230.63 309.09,-223.86 334.42,-217.81"/>
<polygon fill="#63b8ff" stroke="#63b8ff" points="335.41,-221.17 344.33,-215.44 333.79,-214.36 335.41,-221.17"/>
</a>
</g>
</g>
<!-- Node16 -->
<g id="Node000016" class="node">
<title>Node16</title>
<g id="a_Node000016"><a xlink:href="Game_8cpp.html#ad474b8b257813cceeae25ab5205273c4" target="_top" xlink:title=" ">
<polygon fill="white" stroke="#666666" points="448.5,-169 350.5,-169 350.5,-150 448.5,-150 448.5,-169"/>
<text text-anchor="middle" x="399.5" y="-157" font-family="Helvetica,sans-Serif" font-size="10.00">IsKalimariDesert</text>
</a>
</g>
</g>
<!-- Node9&#45;&gt;Node16 -->
<g id="edge17_Node000009_Node000016" class="edge">
<title>Node9&#45;&gt;Node16</title>
<g id="a_edge17_Node000009_Node000016"><a xlink:title=" ">
<path fill="none" stroke="#63b8ff" d="M230.9,-235.89C250.07,-221.47 288.5,-194.25 325,-178.5 330.72,-176.03 336.83,-173.83 342.99,-171.88"/>
<polygon fill="#63b8ff" stroke="#63b8ff" points="344.08,-175.21 352.68,-169.01 342.09,-168.49 344.08,-175.21"/>
</a>
</g>
</g>
<!-- Node11 -->
<g id="Node000011" class="node">
<title>Node11</title>
<g id="a_Node000011"><a xlink:href="math__util_8c.html#aaa39a297477f56051975259f4bddd829" target="_top" xlink:title=" ">
<polygon fill="white" stroke="#666666" points="590,-293 540,-293 540,-274 590,-274 590,-293"/>
<text text-anchor="middle" x="565" y="-281" font-family="Helvetica,sans-Serif" font-size="10.00">atan2s</text>
</a>
</g>
</g>
<!-- Node10&#45;&gt;Node11 -->
<g id="edge11_Node000010_Node000011" class="edge">
<title>Node10&#45;&gt;Node11</title>
<g id="a_edge11_Node000010_Node000011"><a xlink:title=" ">
<path fill="none" stroke="#63b8ff" d="M441.76,-255.09C468.86,-261.39 503.91,-269.54 529.53,-275.49"/>
<polygon fill="#63b8ff" stroke="#63b8ff" points="529,-278.96 539.53,-277.81 530.59,-272.14 529,-278.96"/>
</a>
</g>
</g>
<!-- Node13 -->
<g id="Node000013" class="node">
<title>Node13</title>
<g id="a_Node000013"><a xlink:href="math_8h.html#a37bde043e94a6f074c78f10518fb5d99" target="_top" xlink:title=" ">
<polygon fill="white" stroke="#666666" points="584.5,-255 545.5,-255 545.5,-236 584.5,-236 584.5,-255"/>
<text text-anchor="middle" x="565" y="-243" font-family="Helvetica,sans-Serif" font-size="10.00">sqrtf</text>
</a>
</g>
</g>
<!-- Node10&#45;&gt;Node13 -->
<g id="edge13_Node000010_Node000013" class="edge">
<title>Node10&#45;&gt;Node13</title>
<g id="a_edge13_Node000010_Node000013"><a xlink:title=" ">
<path fill="none" stroke="#63b8ff" d="M446.04,-245.5C474.52,-245.5 510.35,-245.5 535,-245.5"/>
<polygon fill="#63b8ff" stroke="#63b8ff" points="535.15,-249 545.15,-245.5 535.15,-242 535.15,-249"/>
</a>
</g>
</g>
<!-- Node12 -->
<g id="Node000012" class="node">
<title>Node12</title>
<g id="a_Node000012"><a xlink:href="math__util_8c.html#a0273b0ea0783a06996c28669a7438ed9" target="_top" xlink:title=" ">
<polygon fill="white" stroke="#666666" points="767,-293 685,-293 685,-274 767,-274 767,-293"/>
<text text-anchor="middle" x="726" y="-281" font-family="Helvetica,sans-Serif" font-size="10.00">atan2_lookup</text>
</a>
</g>
</g>
<!-- Node11&#45;&gt;Node12 -->
<g id="edge12_Node000011_Node000012" class="edge">
<title>Node11&#45;&gt;Node12</title>
<g id="a_edge12_Node000011_Node000012"><a xlink:title=" ">
<path fill="none" stroke="#63b8ff" d="M590.15,-283.5C612.51,-283.5 646.47,-283.5 674.71,-283.5"/>
<polygon fill="#63b8ff" stroke="#63b8ff" points="674.83,-287 684.83,-283.5 674.83,-280 674.83,-287"/>
</a>
</g>
</g>
<!-- Node14&#45;&gt;Node11 -->
<g id="edge15_Node000014_Node000011" class="edge">
<title>Node14&#45;&gt;Node11</title>
<g id="a_edge15_Node000014_Node000011"><a xlink:title=" ">
<path fill="none" stroke="#63b8ff" d="M467,-286.47C488.58,-285.81 511.63,-285.1 529.85,-284.54"/>
<polygon fill="#63b8ff" stroke="#63b8ff" points="530.07,-288.04 539.96,-284.24 529.86,-281.04 530.07,-288.04"/>
</a>
</g>
</g>
<!-- Node18 -->
<g id="Node000018" class="node">
<title>Node18</title>
<g id="a_Node000018"><a xlink:href="math__util_8c.html#ae69cbf5c8d4b3b0dba2d7b4d4673689f" target="_top" xlink:title=" ">
<polygon fill="white" stroke="#666666" points="418.5,-132 380.5,-132 380.5,-113 418.5,-113 418.5,-132"/>
<text text-anchor="middle" x="399.5" y="-120" font-family="Helvetica,sans-Serif" font-size="10.00">coss</text>
</a>
</g>
</g>
<!-- Node17&#45;&gt;Node18 -->
<g id="edge19_Node000017_Node000018" class="edge">
<title>Node17&#45;&gt;Node18</title>
<g id="a_edge19_Node000017_Node000018"><a xlink:title=" ">
<path fill="none" stroke="#63b8ff" d="M281.71,-110.17C311.93,-113.36 346.58,-117.02 370.24,-119.52"/>
<polygon fill="#63b8ff" stroke="#63b8ff" points="369.97,-123.01 380.28,-120.58 370.71,-116.05 369.97,-123.01"/>
</a>
</g>
</g>
<!-- Node19 -->
<g id="Node000019" class="node">
<title>Node19</title>
<g id="a_Node000019"><a xlink:href="FrameInterpolation_8cpp.html#a3a4250dd10535ebfad101196ec528f79" target="_top" xlink:title=" ">
<polygon fill="white" stroke="#666666" points="796,-229.5 656,-229.5 656,-199.5 796,-199.5 796,-229.5"/>
<text text-anchor="start" x="664" y="-217.5" font-family="Helvetica,sans-Serif" font-size="10.00">FrameInterpolation</text>
<text text-anchor="middle" x="726" y="-206.5" font-family="Helvetica,sans-Serif" font-size="10.00">_RecordMatrixPosRotXYZ</text>
</a>
</g>
</g>
<!-- Node17&#45;&gt;Node19 -->
<g id="edge20_Node000017_Node000019" class="edge">
<title>Node17&#45;&gt;Node19</title>
<g id="a_edge20_Node000017_Node000019"><a xlink:title=" ">
<path fill="none" stroke="#63b8ff" d="M281.73,-96.3C333.9,-92.07 409.55,-89.89 474,-103.5 556.6,-120.95 645.1,-167.42 691.77,-194.38"/>
<polygon fill="#63b8ff" stroke="#63b8ff" points="690.13,-197.47 700.53,-199.5 693.66,-191.43 690.13,-197.47"/>
</a>
</g>
</g>
<!-- Node20 -->
<g id="Node000020" class="node">
<title>Node20</title>
<g id="a_Node000020"><a xlink:href="math__util_8c.html#a19ed3bd78fd2d3e2bd0a29f6caf48545" target="_top" xlink:title=" ">
<polygon fill="white" stroke="#666666" points="417.5,-56 381.5,-56 381.5,-37 417.5,-37 417.5,-56"/>
<text text-anchor="middle" x="399.5" y="-44" font-family="Helvetica,sans-Serif" font-size="10.00">sins</text>
</a>
</g>
</g>
<!-- Node17&#45;&gt;Node20 -->
<g id="edge22_Node000017_Node000020" class="edge">
<title>Node17&#45;&gt;Node20</title>
<g id="a_edge22_Node000017_Node000020"><a xlink:title=" ">
<path fill="none" stroke="#63b8ff" d="M248.63,-93.96C282.94,-83.09 338.52,-65.49 371.48,-55.06"/>
<polygon fill="#63b8ff" stroke="#63b8ff" points="372.86,-58.29 381.34,-51.94 370.75,-51.62 372.86,-58.29"/>
</a>
</g>
</g>
<!-- Node19&#45;&gt;Node4 -->
<g id="edge21_Node000019_Node000004" class="edge">
<title>Node19&#45;&gt;Node4</title>
<g id="a_edge21_Node000019_Node000004"><a xlink:title=" ">
<path fill="none" stroke="#63b8ff" d="M764.04,-229.51C790.73,-240.32 826.42,-254.77 852.11,-265.18"/>
<polygon fill="#63b8ff" stroke="#63b8ff" points="850.84,-268.44 861.42,-268.95 853.47,-261.95 850.84,-268.44"/>
</a>
</g>
</g>
<!-- Node22 -->
<g id="Node000022" class="node">
<title>Node22</title>
<g id="a_Node000022"><a xlink:href="Matrix_8cpp.html#a6416f9a60a7397e8b517b1483adb96e8" target="_top" xlink:title=" ">
<polygon fill="white" stroke="#666666" points="448.5,-19 350.5,-19 350.5,0 448.5,0 448.5,-19"/>
<text text-anchor="middle" x="399.5" y="-7" font-family="Helvetica,sans-Serif" font-size="10.00">AddObjectMatrix</text>
</a>
</g>
</g>
<!-- Node21&#45;&gt;Node22 -->
<g id="edge24_Node000021_Node000022" class="edge">
<title>Node21&#45;&gt;Node22</title>
<g id="a_edge24_Node000021_Node000022"><a xlink:title=" ">
<path fill="none" stroke="#63b8ff" d="M274.47,-22.59C295.4,-20.38 319.21,-17.87 340.33,-15.64"/>
<polygon fill="#63b8ff" stroke="#63b8ff" points="340.89,-19.1 350.46,-14.57 340.15,-12.14 340.89,-19.1"/>
</a>
</g>
</g>
<!-- Node23 -->
<g id="Node000023" class="node">
<title>Node23</title>
<g id="a_Node000023"><a xlink:href="Matrix_8cpp.html#a67401ed1d8de1f4d3a3e5a7b72842b6a" target="_top" xlink:title=" ">
<polygon fill="white" stroke="#666666" points="598.5,-38 531.5,-38 531.5,-19 598.5,-19 598.5,-38"/>
<text text-anchor="middle" x="565" y="-26" font-family="Helvetica,sans-Serif" font-size="10.00">AddMatrix</text>
</a>
</g>
</g>
<!-- Node22&#45;&gt;Node23 -->
<g id="edge25_Node000022_Node000023" class="edge">
<title>Node22&#45;&gt;Node23</title>
<g id="a_edge25_Node000022_Node000023"><a xlink:title=" ">
<path fill="none" stroke="#63b8ff" d="M448.67,-15.1C471.68,-17.77 498.99,-20.95 521.26,-23.53"/>
<polygon fill="#63b8ff" stroke="#63b8ff" points="521.09,-27.04 531.42,-24.71 521.89,-20.08 521.09,-27.04"/>
</a>
</g>
</g>
<!-- Node24 -->
<g id="Node000024" class="node">
<title>Node24</title>
<g id="a_Node000024"><a xlink:href="FrameInterpolation_8cpp.html#a8cf1f2d6fabc6925aa71a9515341b4aa" target="_top" xlink:title=" ">
<polygon fill="white" stroke="#666666" points="796,-129.5 656,-129.5 656,-99.5 796,-99.5 796,-129.5"/>
<text text-anchor="start" x="664" y="-117.5" font-family="Helvetica,sans-Serif" font-size="10.00">FrameInterpolation</text>
<text text-anchor="middle" x="726" y="-106.5" font-family="Helvetica,sans-Serif" font-size="10.00">_RecordMatrixMtxFToMtx</text>
</a>
</g>
</g>
<!-- Node23&#45;&gt;Node24 -->
<g id="edge26_Node000023_Node000024" class="edge">
<title>Node23&#45;&gt;Node24</title>
<g id="a_edge26_Node000023_Node000024"><a xlink:title=" ">
<path fill="none" stroke="#63b8ff" d="M583.62,-38.03C608.75,-51.62 655.46,-76.89 688.3,-94.65"/>
<polygon fill="#63b8ff" stroke="#63b8ff" points="686.7,-97.76 697.16,-99.44 690.03,-91.61 686.7,-97.76"/>
</a>
</g>
</g>
<!-- Node25 -->
<g id="Node000025" class="node">
<title>Node25</title>
<g id="a_Node000025"><a xlink:href="guMtxF2L_8c.html#a40ab2d64c609839ff1e0ef0de2d0dcc4" target="_top" xlink:title=" ">
<polygon fill="white" stroke="#666666" points="758.5,-38 693.5,-38 693.5,-19 758.5,-19 758.5,-38"/>
<text text-anchor="middle" x="726" y="-26" font-family="Helvetica,sans-Serif" font-size="10.00">guMtxF2L</text>
</a>
</g>
</g>
<!-- Node23&#45;&gt;Node25 -->
<g id="edge28_Node000023_Node000025" class="edge">
<title>Node23&#45;&gt;Node25</title>
<g id="a_edge28_Node000023_Node000025"><a xlink:title=" ">
<path fill="none" stroke="#63b8ff" d="M598.56,-28.5C623.02,-28.5 656.73,-28.5 683.18,-28.5"/>
<polygon fill="#63b8ff" stroke="#63b8ff" points="683.3,-32 693.3,-28.5 683.3,-25 683.3,-32"/>
</a>
</g>
</g>
<!-- Node24&#45;&gt;Node4 -->
<g id="edge27_Node000024_Node000004" class="edge">
<title>Node24&#45;&gt;Node4</title>
<g id="a_edge27_Node000024_Node000004"><a xlink:title=" ">
<path fill="none" stroke="#63b8ff" d="M741.58,-129.63C771.02,-160.19 837.38,-229.08 868.42,-261.29"/>
<polygon fill="#63b8ff" stroke="#63b8ff" points="866.04,-263.87 875.5,-268.64 871.08,-259.01 866.04,-263.87"/>
</a>
</g>
</g>
</g>
</svg>
