<?xml version="1.0" encoding="UTF-8" standalone="no"?>
<!DOCTYPE svg PUBLIC "-//W3C//DTD SVG 1.1//EN"
 "http://www.w3.org/Graphics/SVG/1.1/DTD/svg11.dtd">
<!-- Generated by graphviz version 2.43.0 (0)
 -->
<!-- Title: ABus::Spawn Pages: 1 -->
<svg width="1681pt" height="415pt"
 viewBox="0.00 0.00 1681.00 415.00" xmlns="http://www.w3.org/2000/svg" xmlns:xlink="http://www.w3.org/1999/xlink">
<g id="graph0" class="graph" transform="scale(1 1) rotate(0) translate(4 411)">
<title>ABus::Spawn</title>
<!-- Node1 -->
<g id="Node000001" class="node">
<title>Node1</title>
<g id="a_Node000001"><a xlink:title=" ">
<polygon fill="#999999" stroke="#666666" points="80,-132 0,-132 0,-113 80,-113 80,-132"/>
<text text-anchor="middle" x="40" y="-120" font-family="Helvetica,sans-Serif" font-size="10.00">ABus::Spawn</text>
</a>
</g>
</g>
<!-- Node2 -->
<g id="Node000002" class="node">
<title>Node2</title>
<g id="a_Node000002"><a xlink:href="classABus.html#aabc43c4a5a7c5acc7daa5e89f9d42cdb" target="_top" xlink:title=" ">
<polygon fill="white" stroke="#666666" points="188,-132 116,-132 116,-113 188,-113 188,-132"/>
<text text-anchor="middle" x="152" y="-120" font-family="Helvetica,sans-Serif" font-size="10.00">ABus::ABus</text>
</a>
</g>
</g>
<!-- Node1&#45;&gt;Node2 -->
<g id="edge1_Node000001_Node000002" class="edge">
<title>Node1&#45;&gt;Node2</title>
<g id="a_edge1_Node000001_Node000002"><a xlink:title=" ">
<path fill="none" stroke="#63b8ff" d="M80.09,-122.5C88.35,-122.5 97.12,-122.5 105.59,-122.5"/>
<polygon fill="#63b8ff" stroke="#63b8ff" points="105.7,-126 115.7,-122.5 105.7,-119 105.7,-126"/>
</a>
</g>
</g>
<!-- Node3 -->
<g id="Node000003" class="node">
<title>Node3</title>
<g id="a_Node000003"><a xlink:href="classAActor.html#a679c43bacf3600fa2d7a6ab30e34a8a6" target="_top" xlink:title=" ">
<polygon fill="white" stroke="#666666" points="352,-276 265,-276 265,-257 352,-257 352,-276"/>
<text text-anchor="middle" x="308.5" y="-264" font-family="Helvetica,sans-Serif" font-size="10.00">AActor::AActor</text>
</a>
</g>
</g>
<!-- Node2&#45;&gt;Node3 -->
<g id="edge2_Node000002_Node000003" class="edge">
<title>Node2&#45;&gt;Node3</title>
<g id="a_edge2_Node000002_Node000003"><a xlink:title=" ">
<path fill="none" stroke="#63b8ff" d="M155.49,-132.22C162.16,-156.15 182.76,-218.12 224,-248.5 232.96,-255.1 243.84,-259.38 254.74,-262.13"/>
<polygon fill="#63b8ff" stroke="#63b8ff" points="254.2,-265.59 264.71,-264.24 255.66,-258.74 254.2,-265.59"/>
</a>
</g>
</g>
<!-- Node4 -->
<g id="Node000004" class="node">
<title>Node4</title>
<g id="a_Node000004"><a xlink:href="actors_8c.html#a91fb2e4e37e7c72fea918fe2c1bb4eaf" target="_top" xlink:title=" ">
<polygon fill="white" stroke="#666666" points="378.5,-239 238.5,-239 238.5,-220 378.5,-220 378.5,-239"/>
<text text-anchor="middle" x="308.5" y="-227" font-family="Helvetica,sans-Serif" font-size="10.00">add_actor_to_empty_slot</text>
</a>
</g>
</g>
<!-- Node2&#45;&gt;Node4 -->
<g id="edge3_Node000002_Node000004" class="edge">
<title>Node2&#45;&gt;Node4</title>
<g id="a_edge3_Node000002_Node000004"><a xlink:title=" ">
<path fill="none" stroke="#63b8ff" d="M165.69,-132.09C179.79,-142.67 203.3,-160.11 224,-174.5 243.97,-188.37 267.08,-203.53 283.92,-214.41"/>
<polygon fill="#63b8ff" stroke="#63b8ff" points="282.27,-217.51 292.57,-219.98 286.06,-211.63 282.27,-217.51"/>
</a>
</g>
</g>
<!-- Node30 -->
<g id="Node000030" class="node">
<title>Node30</title>
<g id="a_Node000030"><a xlink:href="code__80005FD0_8c.html#a45fa364fbae557a3d2025ebdc0846cd2" target="_top" xlink:title=" ">
<polygon fill="white" stroke="#666666" points="532,-67 438,-67 438,-48 532,-48 532,-67"/>
<text text-anchor="middle" x="485" y="-55" font-family="Helvetica,sans-Serif" font-size="10.00">func_8000D6D0</text>
</a>
</g>
</g>
<!-- Node2&#45;&gt;Node30 -->
<g id="edge29_Node000002_Node000030" class="edge">
<title>Node2&#45;&gt;Node30</title>
<g id="a_edge29_Node000002_Node000030"><a xlink:title=" ">
<path fill="none" stroke="#63b8ff" d="M161.45,-112.75C173.69,-99.43 197.76,-76.11 224,-66.5 290.73,-42.05 373.66,-44.26 427.67,-49.59"/>
<polygon fill="#63b8ff" stroke="#63b8ff" points="427.42,-53.08 437.73,-50.65 428.16,-46.12 427.42,-53.08"/>
</a>
</g>
</g>
<!-- Node44 -->
<g id="Node000044" class="node">
<title>Node44</title>
<g id="a_Node000044"><a xlink:href="code__80005FD0_8c.html#a124bae511133f507498b19842362feeb" target="_top" xlink:title=" ">
<polygon fill="white" stroke="#666666" points="531,-122 439,-122 439,-103 531,-103 531,-122"/>
<text text-anchor="middle" x="485" y="-110" font-family="Helvetica,sans-Serif" font-size="10.00">func_8000D940</text>
</a>
</g>
</g>
<!-- Node2&#45;&gt;Node44 -->
<g id="edge44_Node000002_Node000044" class="edge">
<title>Node2&#45;&gt;Node44</title>
<g id="a_edge44_Node000002_Node000044"><a xlink:title=" ">
<path fill="none" stroke="#63b8ff" d="M183.79,-132.08C196.15,-135.46 210.62,-138.83 224,-140.5 298.53,-149.8 318.72,-151.67 393,-140.5 412.4,-137.58 433.38,-131.35 450.29,-125.5"/>
<polygon fill="#63b8ff" stroke="#63b8ff" points="451.5,-128.79 459.74,-122.14 449.15,-122.2 451.5,-128.79"/>
</a>
</g>
</g>
<!-- Node45 -->
<g id="Node000045" class="node">
<title>Node45</title>
<g id="a_Node000045"><a xlink:href="Utils_8cpp.html#aeaf9fffe1458c3ce2a95a80906db76c3" target="_top" xlink:title=" ">
<polygon fill="white" stroke="#666666" points="393,-95 224,-95 224,-76 393,-76 393,-95"/>
<text text-anchor="middle" x="308.5" y="-83" font-family="Helvetica,sans-Serif" font-size="10.00">GetVehiclePathPointDistributed</text>
</a>
</g>
</g>
<!-- Node2&#45;&gt;Node45 -->
<g id="edge49_Node000002_Node000045" class="edge">
<title>Node2&#45;&gt;Node45</title>
<g id="a_edge49_Node000002_Node000045"><a xlink:title=" ">
<path fill="none" stroke="#63b8ff" d="M187.22,-112.98C198.86,-109.84 211.97,-106.4 224,-103.5 232.79,-101.38 242.12,-99.25 251.25,-97.23"/>
<polygon fill="#63b8ff" stroke="#63b8ff" points="252.01,-100.65 261.03,-95.09 250.52,-93.81 252.01,-100.65"/>
</a>
</g>
</g>
<!-- Node46 -->
<g id="Node000046" class="node">
<title>Node46</title>
<g id="a_Node000046"><a xlink:href="math__util_8c.html#a151b63b8adf9af7e4054b3b84bd226dc" target="_top" xlink:title=" ">
<polygon fill="white" stroke="#666666" points="344.5,-19 272.5,-19 272.5,0 344.5,0 344.5,-19"/>
<text text-anchor="middle" x="308.5" y="-7" font-family="Helvetica,sans-Serif" font-size="10.00">random_int</text>
</a>
</g>
</g>
<!-- Node2&#45;&gt;Node46 -->
<g id="edge50_Node000002_Node000046" class="edge">
<title>Node2&#45;&gt;Node46</title>
<g id="a_edge50_Node000002_Node000046"><a xlink:title=" ">
<path fill="none" stroke="#63b8ff" d="M158.02,-112.83C168.03,-94.51 192.27,-54.68 224,-33.5 235.4,-25.89 249.22,-20.66 262.31,-17.08"/>
<polygon fill="#63b8ff" stroke="#63b8ff" points="263.26,-20.45 272.13,-14.65 261.58,-13.65 263.26,-20.45"/>
</a>
</g>
</g>
<!-- Node48 -->
<g id="Node000048" class="node">
<title>Node48</title>
<g id="a_Node000048"><a xlink:href="code__80005FD0_8c.html#ac8070bcd41974c70ea8b6d4218b1ebef" target="_top" xlink:title=" ">
<polygon fill="white" stroke="#666666" points="375,-132 242,-132 242,-113 375,-113 375,-132"/>
<text text-anchor="middle" x="308.5" y="-120" font-family="Helvetica,sans-Serif" font-size="10.00">spawn_vehicle_on_road</text>
</a>
</g>
</g>
<!-- Node2&#45;&gt;Node48 -->
<g id="edge52_Node000002_Node000048" class="edge">
<title>Node2&#45;&gt;Node48</title>
<g id="a_edge52_Node000002_Node000048"><a xlink:title=" ">
<path fill="none" stroke="#63b8ff" d="M188.06,-122.5C201.13,-122.5 216.53,-122.5 231.84,-122.5"/>
<polygon fill="#63b8ff" stroke="#63b8ff" points="231.87,-126 241.87,-122.5 231.87,-119 231.87,-126"/>
</a>
</g>
</g>
<!-- Node5 -->
<g id="Node000005" class="node">
<title>Node5</title>
<g id="a_Node000005"><a xlink:href="actors_8c.html#a39c023177b5a7686cdd1fc65b8b953e1" target="_top" xlink:title=" ">
<polygon fill="white" stroke="#666666" points="516,-220 454,-220 454,-201 516,-201 516,-220"/>
<text text-anchor="middle" x="485" y="-208" font-family="Helvetica,sans-Serif" font-size="10.00">actor_init</text>
</a>
</g>
</g>
<!-- Node4&#45;&gt;Node5 -->
<g id="edge4_Node000004_Node000005" class="edge">
<title>Node4&#45;&gt;Node5</title>
<g id="a_edge4_Node000004_Node000005"><a xlink:title=" ">
<path fill="none" stroke="#63b8ff" d="M378.72,-221.96C400.82,-219.56 424.53,-216.97 443.85,-214.87"/>
<polygon fill="#63b8ff" stroke="#63b8ff" points="444.24,-218.35 453.8,-213.79 443.48,-211.39 444.24,-218.35"/>
</a>
</g>
</g>
<!-- Node27 -->
<g id="Node000027" class="node">
<title>Node27</title>
<g id="a_Node000027"><a xlink:href="Game_8cpp.html#acea5cfd9ab22f745bd6627869b95a62e" target="_top" xlink:title=" ">
<polygon fill="white" stroke="#666666" points="541,-331 429,-331 429,-312 541,-312 541,-331"/>
<text text-anchor="middle" x="485" y="-319" font-family="Helvetica,sans-Serif" font-size="10.00">CM_ActorBeginPlay</text>
</a>
</g>
</g>
<!-- Node4&#45;&gt;Node27 -->
<g id="edge26_Node000004_Node000027" class="edge">
<title>Node4&#45;&gt;Node27</title>
<g id="a_edge26_Node000004_Node000027"><a xlink:title=" ">
<path fill="none" stroke="#63b8ff" d="M374.97,-239.16C381.36,-241.62 387.51,-244.68 393,-248.5 416.99,-265.18 405.81,-285.73 429,-303.5 430.81,-304.89 432.74,-306.18 434.74,-307.36"/>
<polygon fill="#63b8ff" stroke="#63b8ff" points="433.41,-310.61 443.92,-311.97 436.56,-304.36 433.41,-310.61"/>
</a>
</g>
</g>
<!-- Node28 -->
<g id="Node000028" class="node">
<title>Node28</title>
<g id="a_Node000028"><a xlink:href="Game_8cpp.html#a42f23077aaa52cb3ea5c7803b7dd6816" target="_top" xlink:title=" ">
<polygon fill="white" stroke="#666666" points="538,-294 432,-294 432,-275 538,-275 538,-294"/>
<text text-anchor="middle" x="485" y="-282" font-family="Helvetica,sans-Serif" font-size="10.00">CM_AddBaseActor</text>
</a>
</g>
</g>
<!-- Node4&#45;&gt;Node28 -->
<g id="edge27_Node000004_Node000028" class="edge">
<title>Node4&#45;&gt;Node28</title>
<g id="a_edge27_Node000004_Node000028"><a xlink:title=" ">
<path fill="none" stroke="#63b8ff" d="M360.4,-239.03C371.29,-241.64 382.64,-244.79 393,-248.5 409.84,-254.53 412.45,-259.7 429,-266.5 433.24,-268.24 437.72,-269.94 442.22,-271.55"/>
<polygon fill="#63b8ff" stroke="#63b8ff" points="441.41,-274.97 452.01,-274.91 443.69,-268.35 441.41,-274.97"/>
</a>
</g>
</g>
<!-- Node29 -->
<g id="Node000029" class="node">
<title>Node29</title>
<g id="a_Node000029"><a xlink:href="Game_8cpp.html#a0841ffe9a66e95aca42438b9d8ffc3d3" target="_top" xlink:title=" ">
<polygon fill="white" stroke="#666666" points="535.5,-257 434.5,-257 434.5,-238 535.5,-238 535.5,-257"/>
<text text-anchor="middle" x="485" y="-245" font-family="Helvetica,sans-Serif" font-size="10.00">CM_GetActorSize</text>
</a>
</g>
</g>
<!-- Node4&#45;&gt;Node29 -->
<g id="edge28_Node000004_Node000029" class="edge">
<title>Node4&#45;&gt;Node29</title>
<g id="a_edge28_Node000004_Node000029"><a xlink:title=" ">
<path fill="none" stroke="#63b8ff" d="M378.72,-236.64C393.79,-238.2 409.62,-239.83 424.29,-241.34"/>
<polygon fill="#63b8ff" stroke="#63b8ff" points="423.93,-244.82 434.24,-242.37 424.65,-237.86 423.93,-244.82"/>
</a>
</g>
</g>
<!-- Node6 -->
<g id="Node000006" class="node">
<title>Node6</title>
<g id="a_Node000006"><a xlink:href="collision_8c.html#a37aa55b3768d001533ad75e7f1b8388a" target="_top" xlink:title=" ">
<polygon fill="white" stroke="#666666" points="1083.5,-174 942.5,-174 942.5,-155 1083.5,-155 1083.5,-174"/>
<text text-anchor="middle" x="1013" y="-162" font-family="Helvetica,sans-Serif" font-size="10.00">check_bounding_collision</text>
</a>
</g>
</g>
<!-- Node5&#45;&gt;Node6 -->
<g id="edge5_Node000005_Node000006" class="edge">
<title>Node5&#45;&gt;Node6</title>
<g id="a_edge5_Node000005_Node000006"><a xlink:title=" ">
<path fill="none" stroke="#63b8ff" d="M516.14,-203.07C533.78,-199.01 556.53,-194.26 577,-191.5 700.35,-174.88 844.77,-168.47 932.27,-166.01"/>
<polygon fill="#63b8ff" stroke="#63b8ff" points="932.49,-169.51 942.39,-165.74 932.3,-162.51 932.49,-169.51"/>
</a>
</g>
</g>
<!-- Node10 -->
<g id="Node000010" class="node">
<title>Node10</title>
<g id="a_Node000010"><a xlink:href="actors_8c.html#a1a9bccb586242555a9123ebd4ab70f2a" target="_top" xlink:title=" ">
<polygon fill="white" stroke="#666666" points="712.5,-360.5 580.5,-360.5 580.5,-330.5 712.5,-330.5 712.5,-360.5"/>
<text text-anchor="start" x="588.5" y="-348.5" font-family="Helvetica,sans-Serif" font-size="10.00">cleanup_red_and_green</text>
<text text-anchor="middle" x="646.5" y="-337.5" font-family="Helvetica,sans-Serif" font-size="10.00">_shells</text>
</a>
</g>
</g>
<!-- Node5&#45;&gt;Node10 -->
<g id="edge9_Node000005_Node000010" class="edge">
<title>Node5&#45;&gt;Node10</title>
<g id="a_edge9_Node000005_Node000010"><a xlink:title=" ">
<path fill="none" stroke="#63b8ff" d="M516.24,-215.69C524.99,-218.37 534.05,-222.41 541,-228.5 568.8,-252.87 552.23,-276.05 577,-303.5 584.58,-311.9 594.24,-319.2 603.9,-325.25"/>
<polygon fill="#63b8ff" stroke="#63b8ff" points="602.32,-328.38 612.71,-330.45 605.88,-322.35 602.32,-328.38"/>
</a>
</g>
</g>
<!-- Node23 -->
<g id="Node000023" class="node">
<title>Node23</title>
<g id="a_Node000023"><a xlink:href="collision_8c.html#ad72fef3ffe32191d73b1822f512ebf3f" target="_top" xlink:title=" ">
<polygon fill="white" stroke="#666666" points="694,-294 599,-294 599,-275 694,-275 694,-294"/>
<text text-anchor="middle" x="646.5" y="-282" font-family="Helvetica,sans-Serif" font-size="10.00">func_802AAAAC</text>
</a>
</g>
</g>
<!-- Node5&#45;&gt;Node23 -->
<g id="edge22_Node000005_Node000023" class="edge">
<title>Node5&#45;&gt;Node23</title>
<g id="a_edge22_Node000005_Node000023"><a xlink:title=" ">
<path fill="none" stroke="#63b8ff" d="M516.03,-217.38C524.5,-220.08 533.44,-223.72 541,-228.5 560.66,-240.94 556.98,-254.65 577,-266.5 580.85,-268.78 585,-270.78 589.27,-272.53"/>
<polygon fill="#63b8ff" stroke="#63b8ff" points="588.17,-275.85 598.77,-275.96 590.56,-269.27 588.17,-275.85"/>
</a>
</g>
</g>
<!-- Node25 -->
<g id="Node000025" class="node">
<title>Node25</title>
<g id="a_Node000025"><a xlink:href="math__util_8c.html#af7b470ed76fce07b8042a47c96e5690b" target="_top" xlink:title=" ">
<polygon fill="white" stroke="#666666" points="700,-257 593,-257 593,-238 700,-238 700,-257"/>
<text text-anchor="middle" x="646.5" y="-245" font-family="Helvetica,sans-Serif" font-size="10.00">vec3f_copy_return</text>
</a>
</g>
</g>
<!-- Node5&#45;&gt;Node25 -->
<g id="edge24_Node000005_Node000025" class="edge">
<title>Node5&#45;&gt;Node25</title>
<g id="a_edge24_Node000005_Node000025"><a xlink:title=" ">
<path fill="none" stroke="#63b8ff" d="M516,-217.46C538.07,-222.58 568.6,-229.66 594.47,-235.66"/>
<polygon fill="#63b8ff" stroke="#63b8ff" points="593.97,-239.14 604.5,-237.99 595.55,-232.32 593.97,-239.14"/>
</a>
</g>
</g>
<!-- Node26 -->
<g id="Node000026" class="node">
<title>Node26</title>
<g id="a_Node000026"><a xlink:href="math__util_8c.html#a0e270ee67600c8c9c2f140c647d008a1" target="_top" xlink:title=" ">
<polygon fill="white" stroke="#666666" points="683.5,-220 609.5,-220 609.5,-201 683.5,-201 683.5,-220"/>
<text text-anchor="middle" x="646.5" y="-208" font-family="Helvetica,sans-Serif" font-size="10.00">vec3s_copy</text>
</a>
</g>
</g>
<!-- Node5&#45;&gt;Node26 -->
<g id="edge25_Node000005_Node000026" class="edge">
<title>Node5&#45;&gt;Node26</title>
<g id="a_edge25_Node000005_Node000026"><a xlink:title=" ">
<path fill="none" stroke="#63b8ff" d="M516,-210.5C539.42,-210.5 572.38,-210.5 599.18,-210.5"/>
<polygon fill="#63b8ff" stroke="#63b8ff" points="599.49,-214 609.49,-210.5 599.49,-207 599.49,-214"/>
</a>
</g>
</g>
<!-- Node7 -->
<g id="Node000007" class="node">
<title>Node7</title>
<g id="a_Node000007"><a xlink:href="collision_8c.html#ac312bf382cb40752f6b790a99e7cdcb6" target="_top" xlink:title=" ">
<polygon fill="white" stroke="#666666" points="1238,-137 1130,-137 1130,-118 1238,-118 1238,-137"/>
<text text-anchor="middle" x="1184" y="-125" font-family="Helvetica,sans-Serif" font-size="10.00">check_collision_yx</text>
</a>
</g>
</g>
<!-- Node6&#45;&gt;Node7 -->
<g id="edge6_Node000006_Node000007" class="edge">
<title>Node6&#45;&gt;Node7</title>
<g id="a_edge6_Node000006_Node000007"><a xlink:title=" ">
<path fill="none" stroke="#63b8ff" d="M1057.52,-154.97C1079.42,-150.18 1106.15,-144.32 1129.31,-139.25"/>
<polygon fill="#63b8ff" stroke="#63b8ff" points="1130.31,-142.62 1139.33,-137.06 1128.82,-135.78 1130.31,-142.62"/>
</a>
</g>
</g>
<!-- Node8 -->
<g id="Node000008" class="node">
<title>Node8</title>
<g id="a_Node000008"><a xlink:href="collision_8c.html#a4b48832a90e984536a0635a016ec4f28" target="_top" xlink:title=" ">
<polygon fill="white" stroke="#666666" points="1237.5,-211 1130.5,-211 1130.5,-192 1237.5,-192 1237.5,-211"/>
<text text-anchor="middle" x="1184" y="-199" font-family="Helvetica,sans-Serif" font-size="10.00">check_collision_zx</text>
</a>
</g>
</g>
<!-- Node6&#45;&gt;Node8 -->
<g id="edge7_Node000006_Node000008" class="edge">
<title>Node6&#45;&gt;Node8</title>
<g id="a_edge7_Node000006_Node000008"><a xlink:title=" ">
<path fill="none" stroke="#63b8ff" d="M1057.52,-174.03C1079.42,-178.82 1106.15,-184.68 1129.31,-189.75"/>
<polygon fill="#63b8ff" stroke="#63b8ff" points="1128.82,-193.22 1139.33,-191.94 1130.31,-186.38 1128.82,-193.22"/>
</a>
</g>
</g>
<!-- Node9 -->
<g id="Node000009" class="node">
<title>Node9</title>
<g id="a_Node000009"><a xlink:href="collision_8c.html#a21fef964ab48191a1c0341954ef27a40" target="_top" xlink:title=" ">
<polygon fill="white" stroke="#666666" points="1237.5,-174 1130.5,-174 1130.5,-155 1237.5,-155 1237.5,-174"/>
<text text-anchor="middle" x="1184" y="-162" font-family="Helvetica,sans-Serif" font-size="10.00">check_collision_zy</text>
</a>
</g>
</g>
<!-- Node6&#45;&gt;Node9 -->
<g id="edge8_Node000006_Node000009" class="edge">
<title>Node6&#45;&gt;Node9</title>
<g id="a_edge8_Node000006_Node000009"><a xlink:title=" ">
<path fill="none" stroke="#63b8ff" d="M1083.71,-164.5C1095.81,-164.5 1108.32,-164.5 1120.22,-164.5"/>
<polygon fill="#63b8ff" stroke="#63b8ff" points="1120.49,-168 1130.49,-164.5 1120.49,-161 1120.49,-168"/>
</a>
</g>
</g>
<!-- Node11 -->
<g id="Node000011" class="node">
<title>Node11</title>
<g id="a_Node000011"><a xlink:href="Game_8cpp.html#a693de7d8b89fe291aafea86bc64a0a2e" target="_top" xlink:title=" ">
<polygon fill="white" stroke="#666666" points="865,-407 785,-407 785,-388 865,-388 865,-407"/>
<text text-anchor="middle" x="825" y="-395" font-family="Helvetica,sans-Serif" font-size="10.00">CM_GetActor</text>
</a>
</g>
</g>
<!-- Node10&#45;&gt;Node11 -->
<g id="edge10_Node000010_Node000011" class="edge">
<title>Node10&#45;&gt;Node11</title>
<g id="a_edge10_Node000010_Node000011"><a xlink:title=" ">
<path fill="none" stroke="#63b8ff" d="M693.4,-360.52C711.58,-366.33 732.72,-372.92 752,-378.5 759.95,-380.8 768.42,-383.14 776.65,-385.35"/>
<polygon fill="#63b8ff" stroke="#63b8ff" points="775.97,-388.79 786.54,-387.98 777.77,-382.03 775.97,-388.79"/>
</a>
</g>
</g>
<!-- Node12 -->
<g id="Node000012" class="node">
<title>Node12</title>
<g id="a_Node000012"><a xlink:href="code__80005FD0_8c.html#ad301b978cdd3c4cc190b10be050d51d8" target="_top" xlink:title=" ">
<polygon fill="white" stroke="#666666" points="898,-369.5 752,-369.5 752,-339.5 898,-339.5 898,-369.5"/>
<text text-anchor="start" x="760" y="-357.5" font-family="Helvetica,sans-Serif" font-size="10.00">delete_actor_in_unexpired</text>
<text text-anchor="middle" x="825" y="-346.5" font-family="Helvetica,sans-Serif" font-size="10.00">_actor_list</text>
</a>
</g>
</g>
<!-- Node10&#45;&gt;Node12 -->
<g id="edge11_Node000010_Node000012" class="edge">
<title>Node10&#45;&gt;Node12</title>
<g id="a_edge11_Node000010_Node000012"><a xlink:title=" ">
<path fill="none" stroke="#63b8ff" d="M712.72,-348.83C722.2,-349.31 732.05,-349.81 741.81,-350.31"/>
<polygon fill="#63b8ff" stroke="#63b8ff" points="741.75,-353.81 751.92,-350.82 742.11,-346.82 741.75,-353.81"/>
</a>
</g>
</g>
<!-- Node13 -->
<g id="Node000013" class="node">
<title>Node13</title>
<g id="a_Node000013"><a xlink:href="actors_8c.html#a694ec6ef7548b8618aeb35c038d3a9b9" target="_top" xlink:title=" ">
<polygon fill="white" stroke="#666666" points="866.5,-321 783.5,-321 783.5,-302 866.5,-302 866.5,-321"/>
<text text-anchor="middle" x="825" y="-309" font-family="Helvetica,sans-Serif" font-size="10.00">destroy_actor</text>
</a>
</g>
</g>
<!-- Node10&#45;&gt;Node13 -->
<g id="edge12_Node000010_Node000013" class="edge">
<title>Node10&#45;&gt;Node13</title>
<g id="a_edge12_Node000010_Node000013"><a xlink:title=" ">
<path fill="none" stroke="#63b8ff" d="M712.72,-332.94C732.78,-329.07 754.55,-324.88 773.47,-321.23"/>
<polygon fill="#63b8ff" stroke="#63b8ff" points="774.21,-324.66 783.37,-319.33 772.88,-317.78 774.21,-324.66"/>
</a>
</g>
</g>
<!-- Node14 -->
<g id="Node000014" class="node">
<title>Node14</title>
<g id="a_Node000014"><a xlink:href="actors_8c.html#a12dc3ccac4c7d8569eadac0af4fd6f9f" target="_top" xlink:title=" ">
<polygon fill="white" stroke="#666666" points="1092,-321 934,-321 934,-302 1092,-302 1092,-321"/>
<text text-anchor="middle" x="1013" y="-309" font-family="Helvetica,sans-Serif" font-size="10.00">play_sound_before_despawn</text>
</a>
</g>
</g>
<!-- Node13&#45;&gt;Node14 -->
<g id="edge13_Node000013_Node000014" class="edge">
<title>Node13&#45;&gt;Node14</title>
<g id="a_edge13_Node000013_Node000014"><a xlink:title=" ">
<path fill="none" stroke="#63b8ff" d="M866.82,-311.5C883.65,-311.5 903.86,-311.5 923.77,-311.5"/>
<polygon fill="#63b8ff" stroke="#63b8ff" points="923.82,-315 933.82,-311.5 923.82,-308 923.82,-315"/>
</a>
</g>
</g>
<!-- Node15 -->
<g id="Node000015" class="node">
<title>Node15</title>
<g id="a_Node000015"><a xlink:href="external_8c.html#ae72057869772019e4464c87d4e16c682" target="_top" xlink:title=" ">
<polygon fill="white" stroke="#666666" points="1230,-321 1138,-321 1138,-302 1230,-302 1230,-321"/>
<text text-anchor="middle" x="1184" y="-309" font-family="Helvetica,sans-Serif" font-size="10.00">func_800C99E0</text>
</a>
</g>
</g>
<!-- Node14&#45;&gt;Node15 -->
<g id="edge14_Node000014_Node000015" class="edge">
<title>Node14&#45;&gt;Node15</title>
<g id="a_edge14_Node000014_Node000015"><a xlink:title=" ">
<path fill="none" stroke="#63b8ff" d="M1092.07,-311.5C1104.12,-311.5 1116.35,-311.5 1127.76,-311.5"/>
<polygon fill="#63b8ff" stroke="#63b8ff" points="1127.99,-315 1137.99,-311.5 1127.99,-308 1127.99,-315"/>
</a>
</g>
</g>
<!-- Node16 -->
<g id="Node000016" class="node">
<title>Node16</title>
<g id="a_Node000016"><a xlink:href="external_8c.html#aeb87c527482a244173df36a1f3d4f446" target="_top" xlink:title=" ">
<polygon fill="white" stroke="#666666" points="1368,-340 1276,-340 1276,-321 1368,-321 1368,-340"/>
<text text-anchor="middle" x="1322" y="-328" font-family="Helvetica,sans-Serif" font-size="10.00">func_800C21E8</text>
</a>
</g>
</g>
<!-- Node15&#45;&gt;Node16 -->
<g id="edge15_Node000015_Node000016" class="edge">
<title>Node15&#45;&gt;Node16</title>
<g id="a_edge15_Node000015_Node000016"><a xlink:title=" ">
<path fill="none" stroke="#63b8ff" d="M1230.29,-317.83C1241.64,-319.41 1253.95,-321.13 1265.73,-322.78"/>
<polygon fill="#63b8ff" stroke="#63b8ff" points="1265.52,-326.28 1275.91,-324.2 1266.49,-319.35 1265.52,-326.28"/>
</a>
</g>
</g>
<!-- Node17 -->
<g id="Node000017" class="node">
<title>Node17</title>
<g id="a_Node000017"><a xlink:href="external_8c.html#a028d40421b90c38f68ebfd5acc626f2e" target="_top" xlink:title=" ">
<polygon fill="white" stroke="#666666" points="1368,-303 1276,-303 1276,-284 1368,-284 1368,-303"/>
<text text-anchor="middle" x="1322" y="-291" font-family="Helvetica,sans-Serif" font-size="10.00">func_800C5578</text>
</a>
</g>
</g>
<!-- Node15&#45;&gt;Node17 -->
<g id="edge16_Node000015_Node000017" class="edge">
<title>Node15&#45;&gt;Node17</title>
<g id="a_edge16_Node000015_Node000017"><a xlink:title=" ">
<path fill="none" stroke="#63b8ff" d="M1230.29,-305.51C1241.64,-304 1253.95,-302.37 1265.73,-300.81"/>
<polygon fill="#63b8ff" stroke="#63b8ff" points="1266.46,-304.25 1275.91,-299.47 1265.54,-297.31 1266.46,-304.25"/>
</a>
</g>
</g>
<!-- Node18 -->
<g id="Node000018" class="node">
<title>Node18</title>
<g id="a_Node000018"><a xlink:href="external_8c.html#ac0fb767de7e14a03f1bcfa53f0abd23b" target="_top" xlink:title=" ">
<polygon fill="white" stroke="#666666" points="1544,-340 1404,-340 1404,-321 1544,-321 1544,-340"/>
<text text-anchor="middle" x="1474" y="-328" font-family="Helvetica,sans-Serif" font-size="10.00">delete_sound_from_bank</text>
</a>
</g>
</g>
<!-- Node17&#45;&gt;Node18 -->
<g id="edge17_Node000017_Node000018" class="edge">
<title>Node17&#45;&gt;Node18</title>
<g id="a_edge17_Node000017_Node000018"><a xlink:title=" ">
<path fill="none" stroke="#63b8ff" d="M1361.63,-303.03C1380.8,-307.76 1404.16,-313.52 1424.52,-318.54"/>
<polygon fill="#63b8ff" stroke="#63b8ff" points="1423.69,-321.94 1434.24,-320.94 1425.37,-315.15 1423.69,-321.94"/>
</a>
</g>
</g>
<!-- Node20 -->
<g id="Node000020" class="node">
<title>Node20</title>
<g id="a_Node000020"><a xlink:href="external_8c.html#ab83bd36e63f0f1baddcb2482b5ad31b0" target="_top" xlink:title=" ">
<polygon fill="white" stroke="#666666" points="1520.5,-303 1427.5,-303 1427.5,-284 1520.5,-284 1520.5,-303"/>
<text text-anchor="middle" x="1474" y="-291" font-family="Helvetica,sans-Serif" font-size="10.00">func_800C41CC</text>
</a>
</g>
</g>
<!-- Node17&#45;&gt;Node20 -->
<g id="edge19_Node000017_Node000020" class="edge">
<title>Node17&#45;&gt;Node20</title>
<g id="a_edge19_Node000017_Node000020"><a xlink:title=" ">
<path fill="none" stroke="#63b8ff" d="M1368,-293.5C1383.37,-293.5 1400.74,-293.5 1416.86,-293.5"/>
<polygon fill="#63b8ff" stroke="#63b8ff" points="1417.25,-297 1427.25,-293.5 1417.25,-290 1417.25,-297"/>
</a>
</g>
</g>
<!-- Node21 -->
<g id="Node000021" class="node">
<title>Node21</title>
<g id="a_Node000021"><a xlink:href="port__eu_8c.html#aa89dfaecca46c6d071f08c1898d1f7c9" target="_top" xlink:title=" ">
<polygon fill="white" stroke="#666666" points="1520.5,-266 1427.5,-266 1427.5,-247 1520.5,-247 1520.5,-266"/>
<text text-anchor="middle" x="1474" y="-254" font-family="Helvetica,sans-Serif" font-size="10.00">func_800CBBE8</text>
</a>
</g>
</g>
<!-- Node17&#45;&gt;Node21 -->
<g id="edge20_Node000017_Node000021" class="edge">
<title>Node17&#45;&gt;Node21</title>
<g id="a_edge20_Node000017_Node000021"><a xlink:title=" ">
<path fill="none" stroke="#63b8ff" d="M1361.63,-283.97C1380.8,-279.24 1404.16,-273.48 1424.52,-268.46"/>
<polygon fill="#63b8ff" stroke="#63b8ff" points="1425.37,-271.85 1434.24,-266.06 1423.69,-265.06 1425.37,-271.85"/>
</a>
</g>
</g>
<!-- Node19 -->
<g id="Node000019" class="node">
<title>Node19</title>
<g id="a_Node000019"><a xlink:href="external_8c.html#a358ac55e8ab5262dcae8037334be06d7" target="_top" xlink:title=" ">
<polygon fill="white" stroke="#666666" points="1672.5,-340 1580.5,-340 1580.5,-321 1672.5,-321 1672.5,-340"/>
<text text-anchor="middle" x="1626.5" y="-328" font-family="Helvetica,sans-Serif" font-size="10.00">func_800C40F0</text>
</a>
</g>
</g>
<!-- Node18&#45;&gt;Node19 -->
<g id="edge18_Node000018_Node000019" class="edge">
<title>Node18&#45;&gt;Node19</title>
<g id="a_edge18_Node000018_Node000019"><a xlink:title=" ">
<path fill="none" stroke="#63b8ff" d="M1544.08,-330.5C1552.87,-330.5 1561.78,-330.5 1570.31,-330.5"/>
<polygon fill="#63b8ff" stroke="#63b8ff" points="1570.5,-334 1580.5,-330.5 1570.5,-327 1570.5,-334"/>
</a>
</g>
</g>
<!-- Node22 -->
<g id="Node000022" class="node">
<title>Node22</title>
<g id="a_Node000022"><a xlink:href="port__eu_8c.html#af361a20d2e08f30c53a237ca481ff734" target="_top" xlink:title=" ">
<polygon fill="white" stroke="#666666" points="1673,-266 1580,-266 1580,-247 1673,-247 1673,-266"/>
<text text-anchor="middle" x="1626.5" y="-254" font-family="Helvetica,sans-Serif" font-size="10.00">func_800CBB48</text>
</a>
</g>
</g>
<!-- Node21&#45;&gt;Node22 -->
<g id="edge21_Node000021_Node000022" class="edge">
<title>Node21&#45;&gt;Node22</title>
<g id="a_edge21_Node000021_Node000022"><a xlink:title=" ">
<path fill="none" stroke="#63b8ff" d="M1520.56,-256.5C1535.96,-256.5 1553.34,-256.5 1569.46,-256.5"/>
<polygon fill="#63b8ff" stroke="#63b8ff" points="1569.83,-260 1579.83,-256.5 1569.83,-253 1569.83,-260"/>
</a>
</g>
</g>
<!-- Node24 -->
<g id="Node000024" class="node">
<title>Node24</title>
<g id="a_Node000024"><a xlink:href="math__util_8c.html#a79fd07a0971ec96a3ff0801963a2fa7f" target="_top" xlink:title=" ">
<polygon fill="white" stroke="#666666" points="857,-284 793,-284 793,-265 857,-265 857,-284"/>
<text text-anchor="middle" x="825" y="-272" font-family="Helvetica,sans-Serif" font-size="10.00">vec3f_set</text>
</a>
</g>
</g>
<!-- Node23&#45;&gt;Node24 -->
<g id="edge23_Node000023_Node000024" class="edge">
<title>Node23&#45;&gt;Node24</title>
<g id="a_edge23_Node000023_Node000024"><a xlink:title=" ">
<path fill="none" stroke="#63b8ff" d="M694.34,-281.85C721.83,-280.29 756.27,-278.34 782.74,-276.84"/>
<polygon fill="#63b8ff" stroke="#63b8ff" points="783.04,-280.33 792.83,-276.27 782.65,-273.34 783.04,-280.33"/>
</a>
</g>
</g>
<!-- Node31 -->
<g id="Node000031" class="node">
<title>Node31</title>
<g id="a_Node000031"><a xlink:href="code__80005FD0_8c.html#aff1ba4b22fc22c38fcf28007ccaaa752" target="_top" xlink:title=" ">
<polygon fill="white" stroke="#666666" points="693,-141 600,-141 600,-122 693,-122 693,-141"/>
<text text-anchor="middle" x="646.5" y="-129" font-family="Helvetica,sans-Serif" font-size="10.00">func_8000D2B4</text>
</a>
</g>
</g>
<!-- Node30&#45;&gt;Node31 -->
<g id="edge30_Node000030_Node000031" class="edge">
<title>Node30&#45;&gt;Node31</title>
<g id="a_edge30_Node000030_Node000031"><a xlink:title=" ">
<path fill="none" stroke="#63b8ff" d="M500.91,-67.19C522.52,-81.13 561.66,-105.89 577,-112.5 582.45,-114.85 588.26,-116.98 594.11,-118.9"/>
<polygon fill="#63b8ff" stroke="#63b8ff" points="593.35,-122.33 603.94,-121.93 595.41,-115.64 593.35,-122.33"/>
</a>
</g>
</g>
<!-- Node38 -->
<g id="Node000038" class="node">
<title>Node38</title>
<g id="a_Node000038"><a xlink:href="code__80005FD0_8c.html#a79cd9c001e0a06c9cab23fe2cf070abf" target="_top" xlink:title=" ">
<polygon fill="white" stroke="#666666" points="716,-30 577,-30 577,-11 716,-11 716,-30"/>
<text text-anchor="middle" x="646.5" y="-18" font-family="Helvetica,sans-Serif" font-size="10.00">get_angle_between_path</text>
</a>
</g>
</g>
<!-- Node30&#45;&gt;Node38 -->
<g id="edge38_Node000030_Node000038" class="edge">
<title>Node30&#45;&gt;Node38</title>
<g id="a_edge38_Node000030_Node000038"><a xlink:title=" ">
<path fill="none" stroke="#63b8ff" d="M527.08,-47.97C547.65,-43.2 572.75,-37.38 594.54,-32.32"/>
<polygon fill="#63b8ff" stroke="#63b8ff" points="595.34,-35.73 604.29,-30.06 593.75,-28.91 595.34,-35.73"/>
</a>
</g>
</g>
<!-- Node42 -->
<g id="Node000042" class="node">
<title>Node42</title>
<g id="a_Node000042"><a xlink:href="code__80005FD0_8c.html#a83974499a323e99b007956bf9c0e25ff" target="_top" xlink:title=" ">
<polygon fill="white" stroke="#666666" points="716,-104 577,-104 577,-85 716,-85 716,-104"/>
<text text-anchor="middle" x="646.5" y="-92" font-family="Helvetica,sans-Serif" font-size="10.00">set_track_offset_position</text>
</a>
</g>
</g>
<!-- Node30&#45;&gt;Node42 -->
<g id="edge42_Node000030_Node000042" class="edge">
<title>Node30&#45;&gt;Node42</title>
<g id="a_edge42_Node000030_Node000042"><a xlink:title=" ">
<path fill="none" stroke="#63b8ff" d="M527.08,-67.03C547.65,-71.8 572.75,-77.62 594.54,-82.68"/>
<polygon fill="#63b8ff" stroke="#63b8ff" points="593.75,-86.09 604.29,-84.94 595.34,-79.27 593.75,-86.09"/>
</a>
</g>
</g>
<!-- Node43 -->
<g id="Node000043" class="node">
<title>Node43</title>
<g id="a_Node000043"><a xlink:href="math_8h.html#a37bde043e94a6f074c78f10518fb5d99" target="_top" xlink:title=" ">
<polygon fill="white" stroke="#666666" points="666,-67 627,-67 627,-48 666,-48 666,-67"/>
<text text-anchor="middle" x="646.5" y="-55" font-family="Helvetica,sans-Serif" font-size="10.00">sqrtf</text>
</a>
</g>
</g>
<!-- Node30&#45;&gt;Node43 -->
<g id="edge43_Node000030_Node000043" class="edge">
<title>Node30&#45;&gt;Node43</title>
<g id="a_edge43_Node000030_Node000043"><a xlink:title=" ">
<path fill="none" stroke="#63b8ff" d="M532.13,-57.5C559.42,-57.5 593.13,-57.5 616.67,-57.5"/>
<polygon fill="#63b8ff" stroke="#63b8ff" points="616.71,-61 626.71,-57.5 616.71,-54 616.71,-61"/>
</a>
</g>
</g>
<!-- Node32 -->
<g id="Node000032" class="node">
<title>Node32</title>
<g id="a_Node000032"><a xlink:href="code__80005FD0_8c.html#a52b991f7bfc8a37a05bbb3ede096fb6a" target="_top" xlink:title=" ">
<polygon fill="white" stroke="#666666" points="895,-144 755,-144 755,-125 895,-125 895,-144"/>
<text text-anchor="middle" x="825" y="-132" font-family="Helvetica,sans-Serif" font-size="10.00">adjust_path_at_start_line</text>
</a>
</g>
</g>
<!-- Node31&#45;&gt;Node32 -->
<g id="edge31_Node000031_Node000032" class="edge">
<title>Node31&#45;&gt;Node32</title>
<g id="a_edge31_Node000031_Node000032"><a xlink:title=" ">
<path fill="none" stroke="#63b8ff" d="M693.41,-132.28C709.04,-132.55 726.98,-132.85 744.47,-133.15"/>
<polygon fill="#63b8ff" stroke="#63b8ff" points="744.63,-136.65 754.69,-133.32 744.75,-129.65 744.63,-136.65"/>
</a>
</g>
</g>
<!-- Node33 -->
<g id="Node000033" class="node">
<title>Node33</title>
<g id="a_Node000033"><a xlink:href="code__80005FD0_8c.html#aae3d2d6e27d79a30dfe68c64e771b5b1" target="_top" xlink:title=" ">
<polygon fill="white" stroke="#666666" points="871.5,-107 778.5,-107 778.5,-88 871.5,-88 871.5,-107"/>
<text text-anchor="middle" x="825" y="-95" font-family="Helvetica,sans-Serif" font-size="10.00">func_8000D24C</text>
</a>
</g>
</g>
<!-- Node31&#45;&gt;Node33 -->
<g id="edge32_Node000031_Node000033" class="edge">
<title>Node31&#45;&gt;Node33</title>
<g id="a_edge32_Node000031_Node000033"><a xlink:title=" ">
<path fill="none" stroke="#63b8ff" d="M693.41,-122.66C716.29,-118.25 744.15,-112.88 768.25,-108.24"/>
<polygon fill="#63b8ff" stroke="#63b8ff" points="769.16,-111.63 778.32,-106.3 767.84,-104.75 769.16,-111.63"/>
</a>
</g>
</g>
<!-- Node37 -->
<g id="Node000037" class="node">
<title>Node37</title>
<g id="a_Node000037"><a xlink:href="code__80005FD0_8c.html#a041b53794d8d64878d2cf5e0dea65b80" target="_top" xlink:title=" ">
<polygon fill="white" stroke="#666666" points="880,-70 770,-70 770,-51 880,-51 880,-70"/>
<text text-anchor="middle" x="825" y="-58" font-family="Helvetica,sans-Serif" font-size="10.00">update_path_index</text>
</a>
</g>
</g>
<!-- Node31&#45;&gt;Node37 -->
<g id="edge37_Node000031_Node000037" class="edge">
<title>Node31&#45;&gt;Node37</title>
<g id="a_edge37_Node000031_Node000037"><a xlink:title=" ">
<path fill="none" stroke="#63b8ff" d="M693.33,-122.14C701.16,-119.61 709.01,-116.44 716,-112.5 735.17,-101.69 732.7,-89.07 752,-78.5 755.3,-76.69 758.79,-75.06 762.37,-73.59"/>
<polygon fill="#63b8ff" stroke="#63b8ff" points="763.84,-76.78 772.04,-70.07 761.44,-70.21 763.84,-76.78"/>
</a>
</g>
</g>
<!-- Node33&#45;&gt;Node6 -->
<g id="edge33_Node000033_Node000006" class="edge">
<title>Node33&#45;&gt;Node6</title>
<g id="a_edge33_Node000033_Node000006"><a xlink:title=" ">
<path fill="none" stroke="#63b8ff" d="M871.62,-106.68C880.53,-109.09 889.68,-112.01 898,-115.5 915.29,-122.75 917.04,-129.5 934,-137.5 945.34,-142.85 958.04,-147.7 969.85,-151.76"/>
<polygon fill="#63b8ff" stroke="#63b8ff" points="968.91,-155.14 979.5,-154.98 971.13,-148.5 968.91,-155.14"/>
</a>
</g>
</g>
<!-- Node34 -->
<g id="Node000034" class="node">
<title>Node34</title>
<g id="a_Node000034"><a xlink:href="code__80005FD0_8c.html#a64865cf2565ef9f4215c5fa73b04233f" target="_top" xlink:title=" ">
<polygon fill="white" stroke="#666666" points="1078.5,-91.5 947.5,-91.5 947.5,-61.5 1078.5,-61.5 1078.5,-91.5"/>
<text text-anchor="start" x="955.5" y="-79.5" font-family="Helvetica,sans-Serif" font-size="10.00">find_closest_path_point</text>
<text text-anchor="middle" x="1013" y="-68.5" font-family="Helvetica,sans-Serif" font-size="10.00">_track_section</text>
</a>
</g>
</g>
<!-- Node33&#45;&gt;Node34 -->
<g id="edge34_Node000033_Node000034" class="edge">
<title>Node33&#45;&gt;Node34</title>
<g id="a_edge34_Node000033_Node000034"><a xlink:title=" ">
<path fill="none" stroke="#63b8ff" d="M871.5,-92.36C891.27,-90.13 914.96,-87.46 937.2,-84.94"/>
<polygon fill="#63b8ff" stroke="#63b8ff" points="937.76,-88.4 947.3,-83.8 936.97,-81.45 937.76,-88.4"/>
</a>
</g>
</g>
<!-- Node36 -->
<g id="Node000036" class="node">
<title>Node36</title>
<g id="a_Node000036"><a xlink:href="collision_8c.html#a053809031f467d0a6747788211e0ec69" target="_top" xlink:title=" ">
<polygon fill="white" stroke="#666666" points="1071.5,-129 954.5,-129 954.5,-110 1071.5,-110 1071.5,-129"/>
<text text-anchor="middle" x="1013" y="-117" font-family="Helvetica,sans-Serif" font-size="10.00">get_track_section_id</text>
</a>
</g>
</g>
<!-- Node33&#45;&gt;Node36 -->
<g id="edge36_Node000033_Node000036" class="edge">
<title>Node33&#45;&gt;Node36</title>
<g id="a_edge36_Node000033_Node000036"><a xlink:title=" ">
<path fill="none" stroke="#63b8ff" d="M871.5,-102.88C893.33,-105.46 919.94,-108.61 944.1,-111.47"/>
<polygon fill="#63b8ff" stroke="#63b8ff" points="943.95,-114.97 954.29,-112.67 944.77,-108.02 943.95,-114.97"/>
</a>
</g>
</g>
<!-- Node35 -->
<g id="Node000035" class="node">
<title>Node35</title>
<g id="a_Node000035"><a xlink:href="Game_8cpp.html#aab0dcf46f6e6e4516bf79ea3f519c765" target="_top" xlink:title=" ">
<polygon fill="white" stroke="#666666" points="1240,-86 1128,-86 1128,-67 1240,-67 1240,-86"/>
<text text-anchor="middle" x="1184" y="-74" font-family="Helvetica,sans-Serif" font-size="10.00">IsPodiumCeremony</text>
</a>
</g>
</g>
<!-- Node34&#45;&gt;Node35 -->
<g id="edge35_Node000034_Node000035" class="edge">
<title>Node34&#45;&gt;Node35</title>
<g id="a_edge35_Node000034_Node000035"><a xlink:title=" ">
<path fill="none" stroke="#63b8ff" d="M1078.86,-76.5C1091.64,-76.5 1105.05,-76.5 1117.84,-76.5"/>
<polygon fill="#63b8ff" stroke="#63b8ff" points="1117.94,-80 1127.94,-76.5 1117.94,-73 1117.94,-80"/>
</a>
</g>
</g>
<!-- Node39 -->
<g id="Node000039" class="node">
<title>Node39</title>
<g id="a_Node000039"><a xlink:href="math__util_8c.html#a84cf9d4ec33146a64c230ed4cec56632" target="_top" xlink:title=" ">
<polygon fill="white" stroke="#666666" points="892.5,-32.5 757.5,-32.5 757.5,-2.5 892.5,-2.5 892.5,-32.5"/>
<text text-anchor="start" x="765.5" y="-20.5" font-family="Helvetica,sans-Serif" font-size="10.00">get_angle_between_two</text>
<text text-anchor="middle" x="825" y="-9.5" font-family="Helvetica,sans-Serif" font-size="10.00">_vectors</text>
</a>
</g>
</g>
<!-- Node38&#45;&gt;Node39 -->
<g id="edge39_Node000038_Node000039" class="edge">
<title>Node38&#45;&gt;Node39</title>
<g id="a_edge39_Node000038_Node000039"><a xlink:title=" ">
<path fill="none" stroke="#63b8ff" d="M716.24,-19.33C726.41,-19.16 736.93,-18.98 747.25,-18.8"/>
<polygon fill="#63b8ff" stroke="#63b8ff" points="747.53,-22.3 757.47,-18.63 747.41,-15.3 747.53,-22.3"/>
</a>
</g>
</g>
<!-- Node40 -->
<g id="Node000040" class="node">
<title>Node40</title>
<g id="a_Node000040"><a xlink:href="math__util_8c.html#aaa39a297477f56051975259f4bddd829" target="_top" xlink:title=" ">
<polygon fill="white" stroke="#666666" points="1038,-27 988,-27 988,-8 1038,-8 1038,-27"/>
<text text-anchor="middle" x="1013" y="-15" font-family="Helvetica,sans-Serif" font-size="10.00">atan2s</text>
</a>
</g>
</g>
<!-- Node39&#45;&gt;Node40 -->
<g id="edge40_Node000039_Node000040" class="edge">
<title>Node39&#45;&gt;Node40</title>
<g id="a_edge40_Node000039_Node000040"><a xlink:title=" ">
<path fill="none" stroke="#63b8ff" d="M892.62,-17.5C921.37,-17.5 953.78,-17.5 977.57,-17.5"/>
<polygon fill="#63b8ff" stroke="#63b8ff" points="977.85,-21 987.85,-17.5 977.85,-14 977.85,-21"/>
</a>
</g>
</g>
<!-- Node41 -->
<g id="Node000041" class="node">
<title>Node41</title>
<g id="a_Node000041"><a xlink:href="math__util_8c.html#a0273b0ea0783a06996c28669a7438ed9" target="_top" xlink:title=" ">
<polygon fill="white" stroke="#666666" points="1225,-27 1143,-27 1143,-8 1225,-8 1225,-27"/>
<text text-anchor="middle" x="1184" y="-15" font-family="Helvetica,sans-Serif" font-size="10.00">atan2_lookup</text>
</a>
</g>
</g>
<!-- Node40&#45;&gt;Node41 -->
<g id="edge41_Node000040_Node000041" class="edge">
<title>Node40&#45;&gt;Node41</title>
<g id="a_edge41_Node000040_Node000041"><a xlink:title=" ">
<path fill="none" stroke="#63b8ff" d="M1038.21,-17.5C1062.73,-17.5 1101.38,-17.5 1132.58,-17.5"/>
<polygon fill="#63b8ff" stroke="#63b8ff" points="1132.84,-21 1142.84,-17.5 1132.84,-14 1132.84,-21"/>
</a>
</g>
</g>
<!-- Node44&#45;&gt;Node31 -->
<g id="edge45_Node000044_Node000031" class="edge">
<title>Node44&#45;&gt;Node31</title>
<g id="a_edge45_Node000044_Node000031"><a xlink:title=" ">
<path fill="none" stroke="#63b8ff" d="M531.28,-117.89C549.47,-120.06 570.62,-122.58 589.75,-124.86"/>
<polygon fill="#63b8ff" stroke="#63b8ff" points="589.49,-128.35 599.83,-126.06 590.31,-121.4 589.49,-128.35"/>
</a>
</g>
</g>
<!-- Node44&#45;&gt;Node38 -->
<g id="edge46_Node000044_Node000038" class="edge">
<title>Node44&#45;&gt;Node38</title>
<g id="a_edge46_Node000044_Node000038"><a xlink:title=" ">
<path fill="none" stroke="#63b8ff" d="M502.03,-102.95C513.34,-95.92 528.63,-85.83 541,-75.5 558.61,-60.8 557.18,-50.06 577,-38.5 580.01,-36.74 583.2,-35.15 586.48,-33.72"/>
<polygon fill="#63b8ff" stroke="#63b8ff" points="587.87,-36.94 595.93,-30.06 585.34,-30.41 587.87,-36.94"/>
</a>
</g>
</g>
<!-- Node44&#45;&gt;Node42 -->
<g id="edge47_Node000044_Node000042" class="edge">
<title>Node44&#45;&gt;Node42</title>
<g id="a_edge47_Node000044_Node000042"><a xlink:title=" ">
<path fill="none" stroke="#63b8ff" d="M531.28,-107.39C542.36,-106.14 554.54,-104.77 566.69,-103.39"/>
<polygon fill="#63b8ff" stroke="#63b8ff" points="567.32,-106.84 576.87,-102.25 566.54,-99.89 567.32,-106.84"/>
</a>
</g>
</g>
<!-- Node44&#45;&gt;Node43 -->
<g id="edge48_Node000044_Node000043" class="edge">
<title>Node44&#45;&gt;Node43</title>
<g id="a_edge48_Node000044_Node000043"><a xlink:title=" ">
<path fill="none" stroke="#63b8ff" d="M507.4,-102.88C525.66,-94.9 552.73,-83.59 577,-75.5 590.03,-71.16 604.74,-67.18 617.17,-64.07"/>
<polygon fill="#63b8ff" stroke="#63b8ff" points="618.11,-67.44 626.99,-61.68 616.45,-60.64 618.11,-67.44"/>
</a>
</g>
</g>
<!-- Node47 -->
<g id="Node000047" class="node">
<title>Node47</title>
<g id="a_Node000047"><a xlink:href="math__util_8c.html#a062850863585005ad1d0a75d9ff70693" target="_top" xlink:title=" ">
<polygon fill="white" stroke="#666666" points="523.5,-19 446.5,-19 446.5,0 523.5,0 523.5,-19"/>
<text text-anchor="middle" x="485" y="-7" font-family="Helvetica,sans-Serif" font-size="10.00">random_u16</text>
</a>
</g>
</g>
<!-- Node46&#45;&gt;Node47 -->
<g id="edge51_Node000046_Node000047" class="edge">
<title>Node46&#45;&gt;Node47</title>
<g id="a_edge51_Node000046_Node000047"><a xlink:title=" ">
<path fill="none" stroke="#63b8ff" d="M344.81,-9.5C371.07,-9.5 407.19,-9.5 436.05,-9.5"/>
<polygon fill="#63b8ff" stroke="#63b8ff" points="436.32,-13 446.32,-9.5 436.32,-6 436.32,-13"/>
</a>
</g>
</g>
<!-- Node48&#45;&gt;Node30 -->
<g id="edge53_Node000048_Node000030" class="edge">
<title>Node48&#45;&gt;Node30</title>
<g id="a_edge53_Node000048_Node000030"><a xlink:title=" ">
<path fill="none" stroke="#63b8ff" d="M360.85,-112.89C371.61,-110.31 382.79,-107.18 393,-103.5 416.19,-95.14 441.07,-82.27 458.94,-72.27"/>
<polygon fill="#63b8ff" stroke="#63b8ff" points="461.14,-75.04 468.1,-67.05 457.67,-68.96 461.14,-75.04"/>
</a>
</g>
</g>
<!-- Node48&#45;&gt;Node44 -->
<g id="edge54_Node000048_Node000044" class="edge">
<title>Node48&#45;&gt;Node44</title>
<g id="a_edge54_Node000048_Node000044"><a xlink:title=" ">
<path fill="none" stroke="#63b8ff" d="M375.47,-118.72C392.97,-117.72 411.7,-116.64 428.57,-115.68"/>
<polygon fill="#63b8ff" stroke="#63b8ff" points="429.04,-119.16 438.82,-115.09 428.64,-112.17 429.04,-119.16"/>
</a>
</g>
</g>
</g>
</svg>
