<?xml version="1.0" encoding="UTF-8" standalone="no"?>
<!DOCTYPE svg PUBLIC "-//W3C//DTD SVG 1.1//EN"
 "http://www.w3.org/Graphics/SVG/1.1/DTD/svg11.dtd">
<!-- Generated by graphviz version 2.43.0 (0)
 -->
<!-- Title: OHotAirBalloon::func_80085768 Pages: 1 -->
<!--zoomable 451 -->

<svg id="main" version="1.1" xmlns="http://www.w3.org/2000/svg" xmlns:xlink="http://www.w3.org/1999/xlink" xml:space="preserve" onload="init(evt)">

<style type="text/css"><![CDATA[
.node, .edge {opacity: 0.7;}
.node.selected, .edge.selected {opacity: 1;}
.edge:hover path { stroke: red; }
.edge:hover polygon { stroke: red; fill: red; }
]]></style>

<defs>
  <circle id="rim" cx="0" cy="0" r="7"/>
  <circle id="rim2" cx="0" cy="0" r="3.5"/>
  <g id="zoomPlus">
    <use xlink:href="#rim" fill="#404040"><set attributeName="fill" to="#808080" begin="zoomplus.mouseover" end="zoomplus.mouseout"/></use>
    <path d="M-4,0h8M0,-4v8" fill="none" stroke="white" stroke-width="1.5" pointer-events="none"/>
  </g>
  <g id="zoomMin">
    <use xlink:href="#rim" fill="#404040"><set attributeName="fill" to="#808080" begin="zoomminus.mouseover" end="zoomminus.mouseout"/></use>
    <path d="M-4,0h8" fill="none" stroke="white" stroke-width="1.5" pointer-events="none"/>
  </g>
  <g id="arrowUp" transform="translate(30 24)">
    <use xlink:href="#rim"/>
    <path pointer-events="none" fill="none" stroke="white" stroke-width="1.5" d="M0,-3.0v7 M-2.5,-0.5L0,-3.0L2.5,-0.5"/>
  </g>
  <g id="arrowRight" transform="rotate(90) translate(36 -43)">
    <use xlink:href="#rim"/>
    <path pointer-events="none" fill="none" stroke="white" stroke-width="1.5" d="M0,-3.0v7 M-2.5,-0.5L0,-3.0L2.5,-0.5"/>
  </g>
  <g id="arrowDown" transform="rotate(180) translate(-30 -48)">
    <use xlink:href="#rim"/>
    <path pointer-events="none" fill="none" stroke="white" stroke-width="1.5" d="M0,-3.0v7 M-2.5,-0.5L0,-3.0L2.5,-0.5"/>
  </g>
  <g id="arrowLeft" transform="rotate(270) translate(-36 17)">
    <use xlink:href="#rim"/>
    <path pointer-events="none" fill="none" stroke="white" stroke-width="1.5" d="M0,-3.0v7 M-2.5,-0.5L0,-3.0L2.5,-0.5"/>
  </g>
  <g id="resetDef">
    <use xlink:href="#rim2" fill="#404040"><set attributeName="fill" to="#808080" begin="reset.mouseover" end="reset.mouseout"/></use>
  </g>
</defs>
<script type="application/ecmascript">
var viewWidth = 1894;
var viewHeight = 451;
var sectionId = 'dynsection-9';
</script>
<script type="application/ecmascript" xlink:href="svg.min.js"/>
<svg id="graph" class="graph">
<g id="viewport">
<title>OHotAirBalloon::func_80085768</title>
<!-- Node1 -->
<g id="Node000001" class="node">
<title>Node1</title>
<g id="a_Node000001"><a xlink:title=" ">
<polygon fill="#999999" stroke="#666666" points="119,-260.5 0,-260.5 0,-230.5 119,-230.5 119,-260.5"/>
<text text-anchor="start" x="8" y="-248.5" font-family="Helvetica,sans-Serif" font-size="10.00">OHotAirBalloon::func</text>
<text text-anchor="middle" x="59.5" y="-237.5" font-family="Helvetica,sans-Serif" font-size="10.00">_80085768</text>
</a>
</g>
</g>
<!-- Node2 -->
<g id="Node000002" class="node">
<title>Node2</title>
<g id="a_Node000002"><a xlink:href="classOHotAirBalloon.html#a401de1da0d55d973c05514589e2b5298" target="_top" xlink:title=" ">
<polygon fill="white" stroke="#666666" points="268,-260.5 155,-260.5 155,-230.5 268,-230.5 268,-260.5"/>
<text text-anchor="start" x="163" y="-248.5" font-family="Helvetica,sans-Serif" font-size="10.00">OHotAirBalloon::init</text>
<text text-anchor="middle" x="211.5" y="-237.5" font-family="Helvetica,sans-Serif" font-size="10.00">_hot_air_balloon</text>
</a>
</g>
</g>
<!-- Node1&#45;&gt;Node2 -->
<g id="edge1_Node000001_Node000002" class="edge">
<title>Node1&#45;&gt;Node2</title>
<g id="a_edge1_Node000001_Node000002"><a xlink:title=" ">
<path fill="none" stroke="#63b8ff" d="M119.35,-245.5C127.64,-245.5 136.2,-245.5 144.61,-245.5"/>
<polygon fill="#63b8ff" stroke="#63b8ff" points="144.76,-249 154.76,-245.5 144.76,-242 144.76,-249"/>
</a>
</g>
</g>
<!-- Node3 -->
<g id="Node000003" class="node">
<title>Node3</title>
<g id="a_Node000003"><a xlink:href="code__80086E70_8c.html#a79b65858840f21f273d4c8fe80b56fe5" target="_top" xlink:title=" ">
<polygon fill="white" stroke="#666666" points="408.5,-423 317.5,-423 317.5,-404 408.5,-404 408.5,-423"/>
<text text-anchor="middle" x="363" y="-411" font-family="Helvetica,sans-Serif" font-size="10.00">func_80086EF0</text>
</a>
</g>
</g>
<!-- Node2&#45;&gt;Node3 -->
<g id="edge2_Node000002_Node000003" class="edge">
<title>Node2&#45;&gt;Node3</title>
<g id="a_edge2_Node000002_Node000003"><a xlink:title=" ">
<path fill="none" stroke="#63b8ff" d="M220.47,-260.68C234.66,-286.67 266.36,-340.4 304,-376.5 312.91,-385.04 324.08,-392.72 334.23,-398.84"/>
<polygon fill="#63b8ff" stroke="#63b8ff" points="332.77,-402.03 343.18,-404 336.26,-395.97 332.77,-402.03"/>
</a>
</g>
</g>
<!-- Node6 -->
<g id="Node000006" class="node">
<title>Node6</title>
<g id="a_Node000006"><a xlink:href="code__80086E70_8c.html#ae0499dac45e7e9f8e247a851401d8716" target="_top" xlink:title=" ">
<polygon fill="white" stroke="#666666" points="573.5,-330 482.5,-330 482.5,-311 573.5,-311 573.5,-330"/>
<text text-anchor="middle" x="528" y="-318" font-family="Helvetica,sans-Serif" font-size="10.00">func_800886F4</text>
</a>
</g>
</g>
<!-- Node2&#45;&gt;Node6 -->
<g id="edge5_Node000002_Node000006" class="edge">
<title>Node2&#45;&gt;Node6</title>
<g id="a_edge5_Node000002_Node000006"><a xlink:title=" ">
<path fill="none" stroke="#63b8ff" d="M268.07,-260.38C279.91,-263.46 292.36,-266.64 304,-269.5 361.73,-283.67 428.19,-298.7 473.43,-308.75"/>
<polygon fill="#63b8ff" stroke="#63b8ff" points="472.8,-312.19 483.32,-310.94 474.31,-305.36 472.8,-312.19"/>
</a>
</g>
</g>
<!-- Node15 -->
<g id="Node000015" class="node">
<title>Node15</title>
<g id="a_Node000015"><a xlink:href="code__80086E70_8c.html#aca89708b0868138c58f8d56712d2d815" target="_top" xlink:title=" ">
<polygon fill="white" stroke="#666666" points="409,-212 317,-212 317,-193 409,-193 409,-212"/>
<text text-anchor="middle" x="363" y="-200" font-family="Helvetica,sans-Serif" font-size="10.00">func_8008B844</text>
</a>
</g>
</g>
<!-- Node2&#45;&gt;Node15 -->
<g id="edge15_Node000002_Node000015" class="edge">
<title>Node2&#45;&gt;Node15</title>
<g id="a_edge15_Node000002_Node000015"><a xlink:title=" ">
<path fill="none" stroke="#63b8ff" d="M264.79,-230.46C282.53,-225.36 302.12,-219.72 319.05,-214.85"/>
<polygon fill="#63b8ff" stroke="#63b8ff" points="320.03,-218.21 328.67,-212.09 318.09,-211.49 320.03,-218.21"/>
</a>
</g>
</g>
<!-- Node16 -->
<g id="Node000016" class="node">
<title>Node16</title>
<g id="a_Node000016"><a xlink:href="actors_8c.html#a5998eaf5bee060a664f203f5d0a8ae95" target="_top" xlink:title=" ">
<polygon fill="white" stroke="#666666" points="417.5,-260.5 308.5,-260.5 308.5,-230.5 417.5,-230.5 417.5,-260.5"/>
<text text-anchor="start" x="316.5" y="-248.5" font-family="Helvetica,sans-Serif" font-size="10.00">init_actor_hot_air</text>
<text text-anchor="middle" x="363" y="-237.5" font-family="Helvetica,sans-Serif" font-size="10.00">_balloon_item_box</text>
</a>
</g>
</g>
<!-- Node2&#45;&gt;Node16 -->
<g id="edge16_Node000002_Node000016" class="edge">
<title>Node2&#45;&gt;Node16</title>
<g id="a_edge16_Node000002_Node000016"><a xlink:title=" ">
<path fill="none" stroke="#63b8ff" d="M268.17,-245.5C277.9,-245.5 288.1,-245.5 298.04,-245.5"/>
<polygon fill="#63b8ff" stroke="#63b8ff" points="298.27,-249 308.27,-245.5 298.27,-242 298.27,-249"/>
</a>
</g>
</g>
<!-- Node40 -->
<g id="Node000040" class="node">
<title>Node40</title>
<g id="a_Node000040"><a xlink:href="update__objects_8c.html#a8bfc5f5c7034d61b534e14f325b6e399" target="_top" xlink:title=" ">
<polygon fill="white" stroke="#666666" points="415,-367 311,-367 311,-348 415,-348 415,-367"/>
<text text-anchor="middle" x="363" y="-355" font-family="Helvetica,sans-Serif" font-size="10.00">object_next_state</text>
</a>
</g>
</g>
<!-- Node2&#45;&gt;Node40 -->
<g id="edge43_Node000002_Node000040" class="edge">
<title>Node2&#45;&gt;Node40</title>
<g id="a_edge43_Node000002_Node000040"><a xlink:title=" ">
<path fill="none" stroke="#63b8ff" d="M230.73,-260.77C248.96,-275.86 277.94,-299.39 304,-318.5 315.16,-326.68 327.89,-335.32 338.58,-342.38"/>
<polygon fill="#63b8ff" stroke="#63b8ff" points="336.71,-345.34 346.99,-347.89 340.54,-339.48 336.71,-345.34"/>
</a>
</g>
</g>
<!-- Node42 -->
<g id="Node000042" class="node">
<title>Node42</title>
<g id="a_Node000042"><a xlink:href="code__80086E70_8c.html#ac9171108201f29dda52974a4a5c68a04" target="_top" xlink:title=" ">
<polygon fill="white" stroke="#666666" points="422,-175 304,-175 304,-156 422,-156 422,-175"/>
<text text-anchor="middle" x="363" y="-163" font-family="Helvetica,sans-Serif" font-size="10.00">set_obj_origin_offset</text>
</a>
</g>
</g>
<!-- Node2&#45;&gt;Node42 -->
<g id="edge46_Node000002_Node000042" class="edge">
<title>Node2&#45;&gt;Node42</title>
<g id="a_edge46_Node000002_Node000042"><a xlink:title=" ">
<path fill="none" stroke="#63b8ff" d="M231.13,-230.45C248.95,-216.66 277.02,-196.47 304,-183.5 307.79,-181.68 311.82,-179.98 315.9,-178.42"/>
<polygon fill="#63b8ff" stroke="#63b8ff" points="317.22,-181.67 325.48,-175.03 314.88,-175.07 317.22,-181.67"/>
</a>
</g>
</g>
<!-- Node43 -->
<g id="Node000043" class="node">
<title>Node43</title>
<g id="a_Node000043"><a xlink:href="code__80086E70_8c.html#a670bd4aa157a5ec3dd6a4f4335a13ea4" target="_top" xlink:title=" ">
<polygon fill="white" stroke="#666666" points="416.5,-138 309.5,-138 309.5,-119 416.5,-119 416.5,-138"/>
<text text-anchor="middle" x="363" y="-126" font-family="Helvetica,sans-Serif" font-size="10.00">set_obj_origin_pos</text>
</a>
</g>
</g>
<!-- Node2&#45;&gt;Node43 -->
<g id="edge47_Node000002_Node000043" class="edge">
<title>Node2&#45;&gt;Node43</title>
<g id="a_edge47_Node000002_Node000043"><a xlink:title=" ">
<path fill="none" stroke="#63b8ff" d="M222.48,-230.45C237.61,-208.79 268.37,-168.98 304,-146.5 306.59,-144.87 309.34,-143.37 312.18,-142"/>
<polygon fill="#63b8ff" stroke="#63b8ff" points="313.63,-145.19 321.47,-138.06 310.9,-138.74 313.63,-145.19"/>
</a>
</g>
</g>
<!-- Node4 -->
<g id="Node000004" class="node">
<title>Node4</title>
<g id="a_Node000004"><a xlink:href="code__80086E70_8c.html#ad844d2fe27c3f0bb5979715fae72559a" target="_top" xlink:title=" ">
<polygon fill="white" stroke="#666666" points="573.5,-443 482.5,-443 482.5,-424 573.5,-424 573.5,-443"/>
<text text-anchor="middle" x="528" y="-431" font-family="Helvetica,sans-Serif" font-size="10.00">func_80086E70</text>
</a>
</g>
</g>
<!-- Node3&#45;&gt;Node4 -->
<g id="edge3_Node000003_Node000004" class="edge">
<title>Node3&#45;&gt;Node4</title>
<g id="a_edge3_Node000003_Node000004"><a xlink:title=" ">
<path fill="none" stroke="#63b8ff" d="M408.54,-418.97C428.22,-421.38 451.56,-424.24 472.29,-426.79"/>
<polygon fill="#63b8ff" stroke="#63b8ff" points="471.88,-430.26 482.23,-428.01 472.73,-423.31 471.88,-430.26"/>
</a>
</g>
</g>
<!-- Node5 -->
<g id="Node000005" class="node">
<title>Node5</title>
<g id="a_Node000005"><a xlink:href="update__objects_8c.html#a3953241e15c6372ac8944ba842148a9a" target="_top" xlink:title=" ">
<polygon fill="white" stroke="#666666" points="752.5,-442 653.5,-442 653.5,-423 752.5,-423 752.5,-442"/>
<text text-anchor="middle" x="703" y="-430" font-family="Helvetica,sans-Serif" font-size="10.00">clear_object_flag</text>
</a>
</g>
</g>
<!-- Node4&#45;&gt;Node5 -->
<g id="edge4_Node000004_Node000005" class="edge">
<title>Node4&#45;&gt;Node5</title>
<g id="a_edge4_Node000004_Node000005"><a xlink:title=" ">
<path fill="none" stroke="#63b8ff" d="M573.55,-433.24C594.74,-433.12 620.35,-432.97 643.11,-432.84"/>
<polygon fill="#63b8ff" stroke="#63b8ff" points="643.36,-436.34 653.34,-432.78 643.32,-429.34 643.36,-436.34"/>
</a>
</g>
</g>
<!-- Node6&#45;&gt;Node5 -->
<g id="edge13_Node000006_Node000005" class="edge">
<title>Node6&#45;&gt;Node5</title>
<g id="a_edge13_Node000006_Node000005"><a xlink:title=" ">
<path fill="none" stroke="#63b8ff" d="M573.7,-326.11C582.44,-328.79 591.04,-332.73 598,-338.5 626.78,-362.34 605.26,-390.61 634,-414.5 637.08,-417.06 640.49,-419.26 644.09,-421.15"/>
<polygon fill="#63b8ff" stroke="#63b8ff" points="642.8,-424.41 653.36,-425.24 645.62,-418 642.8,-424.41"/>
</a>
</g>
</g>
<!-- Node7 -->
<g id="Node000007" class="node">
<title>Node7</title>
<g id="a_Node000007"><a xlink:href="math__util_8c.html#aaa39a297477f56051975259f4bddd829" target="_top" xlink:title=" ">
<polygon fill="white" stroke="#666666" points="728,-368 678,-368 678,-349 728,-349 728,-368"/>
<text text-anchor="middle" x="703" y="-356" font-family="Helvetica,sans-Serif" font-size="10.00">atan2s</text>
</a>
</g>
</g>
<!-- Node6&#45;&gt;Node7 -->
<g id="edge6_Node000006_Node000007" class="edge">
<title>Node6&#45;&gt;Node7</title>
<g id="a_edge6_Node000006_Node000007"><a xlink:title=" ">
<path fill="none" stroke="#63b8ff" d="M572.66,-330.09C602.12,-336.56 640.47,-344.98 667.74,-350.97"/>
<polygon fill="#63b8ff" stroke="#63b8ff" points="667.09,-354.41 677.6,-353.14 668.59,-347.58 667.09,-354.41"/>
</a>
</g>
</g>
<!-- Node9 -->
<g id="Node000009" class="node">
<title>Node9</title>
<g id="a_Node000009"><a xlink:href="collision_8c.html#a6527a2135a10909cdf9a1fd731be5628" target="_top" xlink:title=" ">
<polygon fill="white" stroke="#666666" points="772,-405 634,-405 634,-386 772,-386 772,-405"/>
<text text-anchor="middle" x="703" y="-393" font-family="Helvetica,sans-Serif" font-size="10.00">calculate_surface_height</text>
</a>
</g>
</g>
<!-- Node6&#45;&gt;Node9 -->
<g id="edge8_Node000006_Node000009" class="edge">
<title>Node6&#45;&gt;Node9</title>
<g id="a_edge8_Node000006_Node000009"><a xlink:title=" ">
<path fill="none" stroke="#63b8ff" d="M573.57,-328.14C582.04,-330.68 590.57,-334.04 598,-338.5 618.23,-350.63 613.79,-365.33 634,-377.5 636.82,-379.2 639.81,-380.74 642.89,-382.14"/>
<polygon fill="#63b8ff" stroke="#63b8ff" points="641.77,-385.46 652.35,-385.92 644.36,-378.96 641.77,-385.46"/>
</a>
</g>
</g>
<!-- Node10 -->
<g id="Node000010" class="node">
<title>Node10</title>
<g id="a_Node000010"><a xlink:href="collision_8c.html#a37aa55b3768d001533ad75e7f1b8388a" target="_top" xlink:title=" ">
<polygon fill="white" stroke="#666666" points="949,-293 808,-293 808,-274 949,-274 949,-293"/>
<text text-anchor="middle" x="878.5" y="-281" font-family="Helvetica,sans-Serif" font-size="10.00">check_bounding_collision</text>
</a>
</g>
</g>
<!-- Node6&#45;&gt;Node10 -->
<g id="edge9_Node000006_Node000010" class="edge">
<title>Node6&#45;&gt;Node10</title>
<g id="a_edge9_Node000006_Node000010"><a xlink:title=" ">
<path fill="none" stroke="#63b8ff" d="M573.57,-311.93C592.19,-308.59 614.09,-304.98 634,-302.5 688.39,-295.73 749.94,-290.95 797.55,-287.88"/>
<polygon fill="#63b8ff" stroke="#63b8ff" points="798.03,-291.36 807.79,-287.23 797.59,-284.37 798.03,-291.36"/>
</a>
</g>
</g>
<!-- Node14 -->
<g id="Node000014" class="node">
<title>Node14</title>
<g id="a_Node000014"><a xlink:href="update__objects_8c.html#afe64f2394ee0deab6370b77609500bda" target="_top" xlink:title=" ">
<polygon fill="white" stroke="#666666" points="748,-331 658,-331 658,-312 748,-312 748,-331"/>
<text text-anchor="middle" x="703" y="-319" font-family="Helvetica,sans-Serif" font-size="10.00">set_object_flag</text>
</a>
</g>
</g>
<!-- Node6&#45;&gt;Node14 -->
<g id="edge14_Node000006_Node000014" class="edge">
<title>Node6&#45;&gt;Node14</title>
<g id="a_edge14_Node000006_Node000014"><a xlink:title=" ">
<path fill="none" stroke="#63b8ff" d="M573.55,-320.76C596.14,-320.89 623.76,-321.05 647.6,-321.19"/>
<polygon fill="#63b8ff" stroke="#63b8ff" points="647.88,-324.69 657.9,-321.25 647.92,-317.69 647.88,-324.69"/>
</a>
</g>
</g>
<!-- Node8 -->
<g id="Node000008" class="node">
<title>Node8</title>
<g id="a_Node000008"><a xlink:href="math__util_8c.html#a0273b0ea0783a06996c28669a7438ed9" target="_top" xlink:title=" ">
<polygon fill="white" stroke="#666666" points="919.5,-368 837.5,-368 837.5,-349 919.5,-349 919.5,-368"/>
<text text-anchor="middle" x="878.5" y="-356" font-family="Helvetica,sans-Serif" font-size="10.00">atan2_lookup</text>
</a>
</g>
</g>
<!-- Node7&#45;&gt;Node8 -->
<g id="edge7_Node000007_Node000008" class="edge">
<title>Node7&#45;&gt;Node8</title>
<g id="a_edge7_Node000007_Node000008"><a xlink:title=" ">
<path fill="none" stroke="#63b8ff" d="M728.12,-358.5C753.58,-358.5 794.45,-358.5 827,-358.5"/>
<polygon fill="#63b8ff" stroke="#63b8ff" points="827.25,-362 837.25,-358.5 827.25,-355 827.25,-362"/>
</a>
</g>
</g>
<!-- Node11 -->
<g id="Node000011" class="node">
<title>Node11</title>
<g id="a_Node000011"><a xlink:href="collision_8c.html#ac312bf382cb40752f6b790a99e7cdcb6" target="_top" xlink:title=" ">
<polygon fill="white" stroke="#666666" points="1112,-323 1004,-323 1004,-304 1112,-304 1112,-323"/>
<text text-anchor="middle" x="1058" y="-311" font-family="Helvetica,sans-Serif" font-size="10.00">check_collision_yx</text>
</a>
</g>
</g>
<!-- Node10&#45;&gt;Node11 -->
<g id="edge10_Node000010_Node000011" class="edge">
<title>Node10&#45;&gt;Node11</title>
<g id="a_edge10_Node000010_Node000011"><a xlink:title=" ">
<path fill="none" stroke="#63b8ff" d="M936.15,-293.07C954.55,-296.19 975.09,-299.66 993.93,-302.84"/>
<polygon fill="#63b8ff" stroke="#63b8ff" points="993.46,-306.31 1003.9,-304.53 994.63,-299.41 993.46,-306.31"/>
</a>
</g>
</g>
<!-- Node12 -->
<g id="Node000012" class="node">
<title>Node12</title>
<g id="a_Node000012"><a xlink:href="collision_8c.html#a4b48832a90e984536a0635a016ec4f28" target="_top" xlink:title=" ">
<polygon fill="white" stroke="#666666" points="1111.5,-286 1004.5,-286 1004.5,-267 1111.5,-267 1111.5,-286"/>
<text text-anchor="middle" x="1058" y="-274" font-family="Helvetica,sans-Serif" font-size="10.00">check_collision_zx</text>
</a>
</g>
</g>
<!-- Node10&#45;&gt;Node12 -->
<g id="edge11_Node000010_Node000012" class="edge">
<title>Node10&#45;&gt;Node12</title>
<g id="a_edge11_Node000010_Node000012"><a xlink:title=" ">
<path fill="none" stroke="#63b8ff" d="M949.14,-280.75C963.91,-280.17 979.43,-279.56 993.94,-278.99"/>
<polygon fill="#63b8ff" stroke="#63b8ff" points="994.45,-282.47 1004.3,-278.58 994.17,-275.48 994.45,-282.47"/>
</a>
</g>
</g>
<!-- Node13 -->
<g id="Node000013" class="node">
<title>Node13</title>
<g id="a_Node000013"><a xlink:href="collision_8c.html#a21fef964ab48191a1c0341954ef27a40" target="_top" xlink:title=" ">
<polygon fill="white" stroke="#666666" points="1111.5,-360 1004.5,-360 1004.5,-341 1111.5,-341 1111.5,-360"/>
<text text-anchor="middle" x="1058" y="-348" font-family="Helvetica,sans-Serif" font-size="10.00">check_collision_zy</text>
</a>
</g>
</g>
<!-- Node10&#45;&gt;Node13 -->
<g id="edge12_Node000010_Node000013" class="edge">
<title>Node10&#45;&gt;Node13</title>
<g id="a_edge12_Node000010_Node000013"><a xlink:title=" ">
<path fill="none" stroke="#63b8ff" d="M898.16,-293.16C918.94,-303.63 953.73,-320.35 985,-331.5 991.78,-333.92 999.02,-336.18 1006.19,-338.25"/>
<polygon fill="#63b8ff" stroke="#63b8ff" points="1005.32,-341.64 1015.89,-340.93 1007.19,-334.89 1005.32,-341.64"/>
</a>
</g>
</g>
<!-- Node17 -->
<g id="Node000017" class="node">
<title>Node17</title>
<g id="a_Node000017"><a xlink:href="actors_8c.html#a91fb2e4e37e7c72fea918fe2c1bb4eaf" target="_top" xlink:title=" ">
<polygon fill="white" stroke="#666666" points="598,-174 458,-174 458,-155 598,-155 598,-174"/>
<text text-anchor="middle" x="528" y="-162" font-family="Helvetica,sans-Serif" font-size="10.00">add_actor_to_empty_slot</text>
</a>
</g>
</g>
<!-- Node16&#45;&gt;Node17 -->
<g id="edge17_Node000016_Node000017" class="edge">
<title>Node16&#45;&gt;Node17</title>
<g id="a_edge17_Node000016_Node000017"><a xlink:title=" ">
<path fill="none" stroke="#63b8ff" d="M400.1,-230.49C407.4,-227.3 414.98,-223.88 422,-220.5 449.45,-207.29 480.1,-190.73 501.17,-179.05"/>
<polygon fill="#63b8ff" stroke="#63b8ff" points="503.1,-181.98 510.13,-174.06 499.69,-175.87 503.1,-181.98"/>
</a>
</g>
</g>
<!-- Node20 -->
<g id="Node000020" class="node">
<title>Node20</title>
<g id="a_Node000020"><a xlink:href="Game_8cpp.html#a693de7d8b89fe291aafea86bc64a0a2e" target="_top" xlink:title=" ">
<polygon fill="white" stroke="#666666" points="1098,-249 1018,-249 1018,-230 1098,-230 1098,-249"/>
<text text-anchor="middle" x="1058" y="-237" font-family="Helvetica,sans-Serif" font-size="10.00">CM_GetActor</text>
</a>
</g>
</g>
<!-- Node16&#45;&gt;Node20 -->
<g id="edge40_Node000016_Node000020" class="edge">
<title>Node16&#45;&gt;Node20</title>
<g id="a_edge40_Node000016_Node000020"><a xlink:title=" ">
<path fill="none" stroke="#63b8ff" d="M417.51,-245.04C548.14,-243.91 881.77,-241.02 1007.8,-239.93"/>
<polygon fill="#63b8ff" stroke="#63b8ff" points="1007.95,-243.42 1017.92,-239.84 1007.89,-236.43 1007.95,-243.42"/>
</a>
</g>
</g>
<!-- Node33 -->
<g id="Node000033" class="node">
<title>Node33</title>
<g id="a_Node000033"><a xlink:href="math__util_8c.html#a79fd07a0971ec96a3ff0801963a2fa7f" target="_top" xlink:title=" ">
<polygon fill="white" stroke="#666666" points="1090,-92 1026,-92 1026,-73 1090,-73 1090,-92"/>
<text text-anchor="middle" x="1058" y="-80" font-family="Helvetica,sans-Serif" font-size="10.00">vec3f_set</text>
</a>
</g>
</g>
<!-- Node16&#45;&gt;Node33 -->
<g id="edge41_Node000016_Node000033" class="edge">
<title>Node16&#45;&gt;Node33</title>
<g id="a_edge41_Node000016_Node000033"><a xlink:title=" ">
<path fill="none" stroke="#63b8ff" d="M408.54,-230.37C413.42,-227.57 418.05,-224.3 422,-220.5 448.67,-194.89 431.22,-170.99 458,-145.5 519.47,-87 551.07,-89.47 634,-71.5 771.14,-41.79 939.13,-62.54 1015.58,-74.99"/>
<polygon fill="#63b8ff" stroke="#63b8ff" points="1015.31,-78.49 1025.75,-76.68 1016.46,-71.59 1015.31,-78.49"/>
</a>
</g>
</g>
<!-- Node39 -->
<g id="Node000039" class="node">
<title>Node39</title>
<g id="a_Node000039"><a xlink:href="math__util_8c.html#a9092c945c52b3a3481228b2724991e3c" target="_top" xlink:title=" ">
<polygon fill="white" stroke="#666666" points="560.5,-19 495.5,-19 495.5,0 560.5,0 560.5,-19"/>
<text text-anchor="middle" x="528" y="-7" font-family="Helvetica,sans-Serif" font-size="10.00">vec3s_set</text>
</a>
</g>
</g>
<!-- Node16&#45;&gt;Node39 -->
<g id="edge42_Node000016_Node000039" class="edge">
<title>Node16&#45;&gt;Node39</title>
<g id="a_edge42_Node000016_Node000039"><a xlink:title=" ">
<path fill="none" stroke="#63b8ff" d="M410.95,-230.38C415.11,-227.61 418.91,-224.35 422,-220.5 475.02,-154.53 402.63,-97.51 458,-33.5 465.11,-25.29 475.18,-19.88 485.44,-16.33"/>
<polygon fill="#63b8ff" stroke="#63b8ff" points="486.63,-19.62 495.24,-13.45 484.66,-12.91 486.63,-19.62"/>
</a>
</g>
</g>
<!-- Node18 -->
<g id="Node000018" class="node">
<title>Node18</title>
<g id="a_Node000018"><a xlink:href="actors_8c.html#a39c023177b5a7686cdd1fc65b8b953e1" target="_top" xlink:title=" ">
<polygon fill="white" stroke="#666666" points="734,-174 672,-174 672,-155 734,-155 734,-174"/>
<text text-anchor="middle" x="703" y="-162" font-family="Helvetica,sans-Serif" font-size="10.00">actor_init</text>
</a>
</g>
</g>
<!-- Node17&#45;&gt;Node18 -->
<g id="edge18_Node000017_Node000018" class="edge">
<title>Node17&#45;&gt;Node18</title>
<g id="a_edge18_Node000017_Node000018"><a xlink:title=" ">
<path fill="none" stroke="#63b8ff" d="M598.37,-164.5C619.94,-164.5 643,-164.5 661.87,-164.5"/>
<polygon fill="#63b8ff" stroke="#63b8ff" points="661.89,-168 671.89,-164.5 661.89,-161 661.89,-168"/>
</a>
</g>
</g>
<!-- Node36 -->
<g id="Node000036" class="node">
<title>Node36</title>
<g id="a_Node000036"><a xlink:href="Game_8cpp.html#acea5cfd9ab22f745bd6627869b95a62e" target="_top" xlink:title=" ">
<polygon fill="white" stroke="#666666" points="759,-137 647,-137 647,-118 759,-118 759,-137"/>
<text text-anchor="middle" x="703" y="-125" font-family="Helvetica,sans-Serif" font-size="10.00">CM_ActorBeginPlay</text>
</a>
</g>
</g>
<!-- Node17&#45;&gt;Node36 -->
<g id="edge37_Node000017_Node000036" class="edge">
<title>Node17&#45;&gt;Node36</title>
<g id="a_edge37_Node000017_Node000036"><a xlink:title=" ">
<path fill="none" stroke="#63b8ff" d="M573.55,-154.97C596.07,-150.16 623.58,-144.27 647.36,-139.19"/>
<polygon fill="#63b8ff" stroke="#63b8ff" points="648.25,-142.57 657.3,-137.06 646.79,-135.73 648.25,-142.57"/>
</a>
</g>
</g>
<!-- Node37 -->
<g id="Node000037" class="node">
<title>Node37</title>
<g id="a_Node000037"><a xlink:href="Game_8cpp.html#a42f23077aaa52cb3ea5c7803b7dd6816" target="_top" xlink:title=" ">
<polygon fill="white" stroke="#666666" points="756,-100 650,-100 650,-81 756,-81 756,-100"/>
<text text-anchor="middle" x="703" y="-88" font-family="Helvetica,sans-Serif" font-size="10.00">CM_AddBaseActor</text>
</a>
</g>
</g>
<!-- Node17&#45;&gt;Node37 -->
<g id="edge38_Node000017_Node000037" class="edge">
<title>Node17&#45;&gt;Node37</title>
<g id="a_edge38_Node000017_Node000037"><a xlink:title=" ">
<path fill="none" stroke="#63b8ff" d="M544.12,-154.99C564.06,-142.79 600.54,-121.65 634,-108.5 639.11,-106.49 644.53,-104.63 649.99,-102.93"/>
<polygon fill="#63b8ff" stroke="#63b8ff" points="651.19,-106.23 659.79,-100.05 649.21,-99.51 651.19,-106.23"/>
</a>
</g>
</g>
<!-- Node38 -->
<g id="Node000038" class="node">
<title>Node38</title>
<g id="a_Node000038"><a xlink:href="Game_8cpp.html#a0841ffe9a66e95aca42438b9d8ffc3d3" target="_top" xlink:title=" ">
<polygon fill="white" stroke="#666666" points="753.5,-211 652.5,-211 652.5,-192 753.5,-192 753.5,-211"/>
<text text-anchor="middle" x="703" y="-199" font-family="Helvetica,sans-Serif" font-size="10.00">CM_GetActorSize</text>
</a>
</g>
</g>
<!-- Node17&#45;&gt;Node38 -->
<g id="edge39_Node000017_Node000038" class="edge">
<title>Node17&#45;&gt;Node38</title>
<g id="a_edge39_Node000017_Node000038"><a xlink:title=" ">
<path fill="none" stroke="#63b8ff" d="M573.55,-174.03C596.07,-178.84 623.58,-184.73 647.36,-189.81"/>
<polygon fill="#63b8ff" stroke="#63b8ff" points="646.79,-193.27 657.3,-191.94 648.25,-186.43 646.79,-193.27"/>
</a>
</g>
</g>
<!-- Node18&#45;&gt;Node10 -->
<g id="edge19_Node000018_Node000010" class="edge">
<title>Node18&#45;&gt;Node10</title>
<g id="a_edge19_Node000018_Node000010"><a xlink:title=" ">
<path fill="none" stroke="#63b8ff" d="M734.1,-168.29C746.56,-170.88 760.7,-175.23 772,-182.5 793.25,-196.18 790.14,-208.62 808,-226.5 823.07,-241.59 841.85,-256.81 856.09,-267.72"/>
<polygon fill="#63b8ff" stroke="#63b8ff" points="854.21,-270.68 864.3,-273.92 858.43,-265.1 854.21,-270.68"/>
</a>
</g>
</g>
<!-- Node19 -->
<g id="Node000019" class="node">
<title>Node19</title>
<g id="a_Node000019"><a xlink:href="actors_8c.html#a1a9bccb586242555a9123ebd4ab70f2a" target="_top" xlink:title=" ">
<polygon fill="white" stroke="#666666" points="944.5,-217.5 812.5,-217.5 812.5,-187.5 944.5,-187.5 944.5,-217.5"/>
<text text-anchor="start" x="820.5" y="-205.5" font-family="Helvetica,sans-Serif" font-size="10.00">cleanup_red_and_green</text>
<text text-anchor="middle" x="878.5" y="-194.5" font-family="Helvetica,sans-Serif" font-size="10.00">_shells</text>
</a>
</g>
</g>
<!-- Node18&#45;&gt;Node19 -->
<g id="edge20_Node000018_Node000019" class="edge">
<title>Node18&#45;&gt;Node19</title>
<g id="a_edge20_Node000018_Node000019"><a xlink:title=" ">
<path fill="none" stroke="#63b8ff" d="M734.22,-171.12C753.16,-175.27 778.48,-180.81 802.56,-186.09"/>
<polygon fill="#63b8ff" stroke="#63b8ff" points="801.9,-189.52 812.42,-188.25 803.4,-182.69 801.9,-189.52"/>
</a>
</g>
</g>
<!-- Node32 -->
<g id="Node000032" class="node">
<title>Node32</title>
<g id="a_Node000032"><a xlink:href="collision_8c.html#ad72fef3ffe32191d73b1822f512ebf3f" target="_top" xlink:title=" ">
<polygon fill="white" stroke="#666666" points="926,-169 831,-169 831,-150 926,-150 926,-169"/>
<text text-anchor="middle" x="878.5" y="-157" font-family="Helvetica,sans-Serif" font-size="10.00">func_802AAAAC</text>
</a>
</g>
</g>
<!-- Node18&#45;&gt;Node32 -->
<g id="edge33_Node000018_Node000032" class="edge">
<title>Node18&#45;&gt;Node32</title>
<g id="a_edge33_Node000018_Node000032"><a xlink:title=" ">
<path fill="none" stroke="#63b8ff" d="M734.22,-163.63C758,-162.94 791.82,-161.97 820.62,-161.14"/>
<polygon fill="#63b8ff" stroke="#63b8ff" points="821.09,-164.63 830.98,-160.84 820.89,-157.63 821.09,-164.63"/>
</a>
</g>
</g>
<!-- Node34 -->
<g id="Node000034" class="node">
<title>Node34</title>
<g id="a_Node000034"><a xlink:href="math__util_8c.html#af7b470ed76fce07b8042a47c96e5690b" target="_top" xlink:title=" ">
<polygon fill="white" stroke="#666666" points="932,-132 825,-132 825,-113 932,-113 932,-132"/>
<text text-anchor="middle" x="878.5" y="-120" font-family="Helvetica,sans-Serif" font-size="10.00">vec3f_copy_return</text>
</a>
</g>
</g>
<!-- Node18&#45;&gt;Node34 -->
<g id="edge35_Node000018_Node000034" class="edge">
<title>Node18&#45;&gt;Node34</title>
<g id="a_edge35_Node000018_Node000034"><a xlink:title=" ">
<path fill="none" stroke="#63b8ff" d="M734.22,-157.18C760.13,-150.91 797.95,-141.76 828.23,-134.43"/>
<polygon fill="#63b8ff" stroke="#63b8ff" points="829.28,-137.77 838.18,-132.02 827.63,-130.97 829.28,-137.77"/>
</a>
</g>
</g>
<!-- Node35 -->
<g id="Node000035" class="node">
<title>Node35</title>
<g id="a_Node000035"><a xlink:href="math__util_8c.html#a0e270ee67600c8c9c2f140c647d008a1" target="_top" xlink:title=" ">
<polygon fill="white" stroke="#666666" points="915.5,-95 841.5,-95 841.5,-76 915.5,-76 915.5,-95"/>
<text text-anchor="middle" x="878.5" y="-83" font-family="Helvetica,sans-Serif" font-size="10.00">vec3s_copy</text>
</a>
</g>
</g>
<!-- Node18&#45;&gt;Node35 -->
<g id="edge36_Node000018_Node000035" class="edge">
<title>Node18&#45;&gt;Node35</title>
<g id="a_edge36_Node000018_Node000035"><a xlink:title=" ">
<path fill="none" stroke="#63b8ff" d="M734.03,-160.08C746.47,-157.27 760.63,-152.75 772,-145.5 792.73,-132.29 787.14,-116.51 808,-103.5 815.07,-99.09 823.18,-95.76 831.31,-93.24"/>
<polygon fill="#63b8ff" stroke="#63b8ff" points="832.44,-96.56 841.17,-90.55 830.6,-89.8 832.44,-96.56"/>
</a>
</g>
</g>
<!-- Node19&#45;&gt;Node20 -->
<g id="edge21_Node000019_Node000020" class="edge">
<title>Node19&#45;&gt;Node20</title>
<g id="a_edge21_Node000019_Node000020"><a xlink:title=" ">
<path fill="none" stroke="#63b8ff" d="M944.59,-216.07C965.57,-220.44 988.45,-225.21 1008.06,-229.3"/>
<polygon fill="#63b8ff" stroke="#63b8ff" points="1007.49,-232.75 1017.99,-231.37 1008.91,-225.9 1007.49,-232.75"/>
</a>
</g>
</g>
<!-- Node21 -->
<g id="Node000021" class="node">
<title>Node21</title>
<g id="a_Node000021"><a xlink:href="code__80005FD0_8c.html#ad301b978cdd3c4cc190b10be050d51d8" target="_top" xlink:title=" ">
<polygon fill="white" stroke="#666666" points="1131,-174.5 985,-174.5 985,-144.5 1131,-144.5 1131,-174.5"/>
<text text-anchor="start" x="993" y="-162.5" font-family="Helvetica,sans-Serif" font-size="10.00">delete_actor_in_unexpired</text>
<text text-anchor="middle" x="1058" y="-151.5" font-family="Helvetica,sans-Serif" font-size="10.00">_actor_list</text>
</a>
</g>
</g>
<!-- Node19&#45;&gt;Node21 -->
<g id="edge22_Node000019_Node000021" class="edge">
<title>Node19&#45;&gt;Node21</title>
<g id="a_edge22_Node000019_Node000021"><a xlink:title=" ">
<path fill="none" stroke="#63b8ff" d="M941.58,-187.46C955.63,-184.06 970.67,-180.41 985.09,-176.92"/>
<polygon fill="#63b8ff" stroke="#63b8ff" points="986.06,-180.29 994.95,-174.53 984.41,-173.48 986.06,-180.29"/>
</a>
</g>
</g>
<!-- Node22 -->
<g id="Node000022" class="node">
<title>Node22</title>
<g id="a_Node000022"><a xlink:href="actors_8c.html#a694ec6ef7548b8618aeb35c038d3a9b9" target="_top" xlink:title=" ">
<polygon fill="white" stroke="#666666" points="1099.5,-212 1016.5,-212 1016.5,-193 1099.5,-193 1099.5,-212"/>
<text text-anchor="middle" x="1058" y="-200" font-family="Helvetica,sans-Serif" font-size="10.00">destroy_actor</text>
</a>
</g>
</g>
<!-- Node19&#45;&gt;Node22 -->
<g id="edge23_Node000019_Node000022" class="edge">
<title>Node19&#45;&gt;Node22</title>
<g id="a_edge23_Node000019_Node000022"><a xlink:title=" ">
<path fill="none" stroke="#63b8ff" d="M944.59,-202.5C964.97,-202.5 987.14,-202.5 1006.37,-202.5"/>
<polygon fill="#63b8ff" stroke="#63b8ff" points="1006.43,-206 1016.43,-202.5 1006.43,-199 1006.43,-206"/>
</a>
</g>
</g>
<!-- Node23 -->
<g id="Node000023" class="node">
<title>Node23</title>
<g id="a_Node000023"><a xlink:href="actors_8c.html#a12dc3ccac4c7d8569eadac0af4fd6f9f" target="_top" xlink:title=" ">
<polygon fill="white" stroke="#666666" points="1325,-212 1167,-212 1167,-193 1325,-193 1325,-212"/>
<text text-anchor="middle" x="1246" y="-200" font-family="Helvetica,sans-Serif" font-size="10.00">play_sound_before_despawn</text>
</a>
</g>
</g>
<!-- Node22&#45;&gt;Node23 -->
<g id="edge24_Node000022_Node000023" class="edge">
<title>Node22&#45;&gt;Node23</title>
<g id="a_edge24_Node000022_Node000023"><a xlink:title=" ">
<path fill="none" stroke="#63b8ff" d="M1099.82,-202.5C1116.65,-202.5 1136.86,-202.5 1156.77,-202.5"/>
<polygon fill="#63b8ff" stroke="#63b8ff" points="1156.82,-206 1166.82,-202.5 1156.82,-199 1156.82,-206"/>
</a>
</g>
</g>
<!-- Node24 -->
<g id="Node000024" class="node">
<title>Node24</title>
<g id="a_Node000024"><a xlink:href="external_8c.html#ae72057869772019e4464c87d4e16c682" target="_top" xlink:title=" ">
<polygon fill="white" stroke="#666666" points="1453,-212 1361,-212 1361,-193 1453,-193 1453,-212"/>
<text text-anchor="middle" x="1407" y="-200" font-family="Helvetica,sans-Serif" font-size="10.00">func_800C99E0</text>
</a>
</g>
</g>
<!-- Node23&#45;&gt;Node24 -->
<g id="edge25_Node000023_Node000024" class="edge">
<title>Node23&#45;&gt;Node24</title>
<g id="a_edge25_Node000023_Node000024"><a xlink:title=" ">
<path fill="none" stroke="#63b8ff" d="M1325.1,-202.5C1333.72,-202.5 1342.35,-202.5 1350.61,-202.5"/>
<polygon fill="#63b8ff" stroke="#63b8ff" points="1350.83,-206 1360.83,-202.5 1350.83,-199 1350.83,-206"/>
</a>
</g>
</g>
<!-- Node25 -->
<g id="Node000025" class="node">
<title>Node25</title>
<g id="a_Node000025"><a xlink:href="external_8c.html#aeb87c527482a244173df36a1f3d4f446" target="_top" xlink:title=" ">
<polygon fill="white" stroke="#666666" points="1581,-231 1489,-231 1489,-212 1581,-212 1581,-231"/>
<text text-anchor="middle" x="1535" y="-219" font-family="Helvetica,sans-Serif" font-size="10.00">func_800C21E8</text>
</a>
</g>
</g>
<!-- Node24&#45;&gt;Node25 -->
<g id="edge26_Node000024_Node000025" class="edge">
<title>Node24&#45;&gt;Node25</title>
<g id="a_edge26_Node000024_Node000025"><a xlink:title=" ">
<path fill="none" stroke="#63b8ff" d="M1453.13,-209.31C1461.46,-210.56 1470.23,-211.88 1478.81,-213.18"/>
<polygon fill="#63b8ff" stroke="#63b8ff" points="1478.35,-216.65 1488.76,-214.68 1479.39,-209.73 1478.35,-216.65"/>
</a>
</g>
</g>
<!-- Node26 -->
<g id="Node000026" class="node">
<title>Node26</title>
<g id="a_Node000026"><a xlink:href="external_8c.html#a028d40421b90c38f68ebfd5acc626f2e" target="_top" xlink:title=" ">
<polygon fill="white" stroke="#666666" points="1581,-194 1489,-194 1489,-175 1581,-175 1581,-194"/>
<text text-anchor="middle" x="1535" y="-182" font-family="Helvetica,sans-Serif" font-size="10.00">func_800C5578</text>
</a>
</g>
</g>
<!-- Node24&#45;&gt;Node26 -->
<g id="edge27_Node000024_Node000026" class="edge">
<title>Node24&#45;&gt;Node26</title>
<g id="a_edge27_Node000024_Node000026"><a xlink:title=" ">
<path fill="none" stroke="#63b8ff" d="M1453.13,-196.05C1461.46,-194.86 1470.23,-193.61 1478.81,-192.38"/>
<polygon fill="#63b8ff" stroke="#63b8ff" points="1479.35,-195.84 1488.76,-190.96 1478.36,-188.91 1479.35,-195.84"/>
</a>
</g>
</g>
<!-- Node27 -->
<g id="Node000027" class="node">
<title>Node27</title>
<g id="a_Node000027"><a xlink:href="external_8c.html#ac0fb767de7e14a03f1bcfa53f0abd23b" target="_top" xlink:title=" ">
<polygon fill="white" stroke="#666666" points="1757,-231 1617,-231 1617,-212 1757,-212 1757,-231"/>
<text text-anchor="middle" x="1687" y="-219" font-family="Helvetica,sans-Serif" font-size="10.00">delete_sound_from_bank</text>
</a>
</g>
</g>
<!-- Node26&#45;&gt;Node27 -->
<g id="edge28_Node000026_Node000027" class="edge">
<title>Node26&#45;&gt;Node27</title>
<g id="a_edge28_Node000026_Node000027"><a xlink:title=" ">
<path fill="none" stroke="#63b8ff" d="M1574.63,-194.03C1593.8,-198.76 1617.16,-204.52 1637.52,-209.54"/>
<polygon fill="#63b8ff" stroke="#63b8ff" points="1636.69,-212.94 1647.24,-211.94 1638.37,-206.15 1636.69,-212.94"/>
</a>
</g>
</g>
<!-- Node29 -->
<g id="Node000029" class="node">
<title>Node29</title>
<g id="a_Node000029"><a xlink:href="external_8c.html#ab83bd36e63f0f1baddcb2482b5ad31b0" target="_top" xlink:title=" ">
<polygon fill="white" stroke="#666666" points="1733.5,-194 1640.5,-194 1640.5,-175 1733.5,-175 1733.5,-194"/>
<text text-anchor="middle" x="1687" y="-182" font-family="Helvetica,sans-Serif" font-size="10.00">func_800C41CC</text>
</a>
</g>
</g>
<!-- Node26&#45;&gt;Node29 -->
<g id="edge30_Node000026_Node000029" class="edge">
<title>Node26&#45;&gt;Node29</title>
<g id="a_edge30_Node000026_Node000029"><a xlink:title=" ">
<path fill="none" stroke="#63b8ff" d="M1581,-184.5C1596.37,-184.5 1613.74,-184.5 1629.86,-184.5"/>
<polygon fill="#63b8ff" stroke="#63b8ff" points="1630.25,-188 1640.25,-184.5 1630.25,-181 1630.25,-188"/>
</a>
</g>
</g>
<!-- Node30 -->
<g id="Node000030" class="node">
<title>Node30</title>
<g id="a_Node000030"><a xlink:href="port__eu_8c.html#aa89dfaecca46c6d071f08c1898d1f7c9" target="_top" xlink:title=" ">
<polygon fill="white" stroke="#666666" points="1733.5,-157 1640.5,-157 1640.5,-138 1733.5,-138 1733.5,-157"/>
<text text-anchor="middle" x="1687" y="-145" font-family="Helvetica,sans-Serif" font-size="10.00">func_800CBBE8</text>
</a>
</g>
</g>
<!-- Node26&#45;&gt;Node30 -->
<g id="edge31_Node000026_Node000030" class="edge">
<title>Node26&#45;&gt;Node30</title>
<g id="a_edge31_Node000026_Node000030"><a xlink:title=" ">
<path fill="none" stroke="#63b8ff" d="M1574.63,-174.97C1593.8,-170.24 1617.16,-164.48 1637.52,-159.46"/>
<polygon fill="#63b8ff" stroke="#63b8ff" points="1638.37,-162.85 1647.24,-157.06 1636.69,-156.06 1638.37,-162.85"/>
</a>
</g>
</g>
<!-- Node28 -->
<g id="Node000028" class="node">
<title>Node28</title>
<g id="a_Node000028"><a xlink:href="external_8c.html#a358ac55e8ab5262dcae8037334be06d7" target="_top" xlink:title=" ">
<polygon fill="white" stroke="#666666" points="1885.5,-231 1793.5,-231 1793.5,-212 1885.5,-212 1885.5,-231"/>
<text text-anchor="middle" x="1839.5" y="-219" font-family="Helvetica,sans-Serif" font-size="10.00">func_800C40F0</text>
</a>
</g>
</g>
<!-- Node27&#45;&gt;Node28 -->
<g id="edge29_Node000027_Node000028" class="edge">
<title>Node27&#45;&gt;Node28</title>
<g id="a_edge29_Node000027_Node000028"><a xlink:title=" ">
<path fill="none" stroke="#63b8ff" d="M1757.08,-221.5C1765.87,-221.5 1774.78,-221.5 1783.31,-221.5"/>
<polygon fill="#63b8ff" stroke="#63b8ff" points="1783.5,-225 1793.5,-221.5 1783.5,-218 1783.5,-225"/>
</a>
</g>
</g>
<!-- Node31 -->
<g id="Node000031" class="node">
<title>Node31</title>
<g id="a_Node000031"><a xlink:href="port__eu_8c.html#af361a20d2e08f30c53a237ca481ff734" target="_top" xlink:title=" ">
<polygon fill="white" stroke="#666666" points="1886,-157 1793,-157 1793,-138 1886,-138 1886,-157"/>
<text text-anchor="middle" x="1839.5" y="-145" font-family="Helvetica,sans-Serif" font-size="10.00">func_800CBB48</text>
</a>
</g>
</g>
<!-- Node30&#45;&gt;Node31 -->
<g id="edge32_Node000030_Node000031" class="edge">
<title>Node30&#45;&gt;Node31</title>
<g id="a_edge32_Node000030_Node000031"><a xlink:title=" ">
<path fill="none" stroke="#63b8ff" d="M1733.56,-147.5C1748.96,-147.5 1766.34,-147.5 1782.46,-147.5"/>
<polygon fill="#63b8ff" stroke="#63b8ff" points="1782.83,-151 1792.83,-147.5 1782.83,-144 1782.83,-151"/>
</a>
</g>
</g>
<!-- Node32&#45;&gt;Node33 -->
<g id="edge34_Node000032_Node000033" class="edge">
<title>Node32&#45;&gt;Node33</title>
<g id="a_edge34_Node000032_Node000033"><a xlink:title=" ">
<path fill="none" stroke="#63b8ff" d="M920.43,-149.96C929.95,-147.29 939.94,-144.12 949,-140.5 979.13,-128.47 1011.67,-110.2 1033.07,-97.39"/>
<polygon fill="#63b8ff" stroke="#63b8ff" points="1035.06,-100.28 1041.79,-92.1 1031.43,-94.29 1035.06,-100.28"/>
</a>
</g>
</g>
<!-- Node40&#45;&gt;Node5 -->
<g id="edge44_Node000040_Node000005" class="edge">
<title>Node40&#45;&gt;Node5</title>
<g id="a_edge44_Node000040_Node000005"><a xlink:title=" ">
<path fill="none" stroke="#63b8ff" d="M407.15,-367.07C468.94,-380.79 582.5,-405.98 649.22,-420.79"/>
<polygon fill="#63b8ff" stroke="#63b8ff" points="648.58,-424.23 659.11,-422.98 650.1,-417.4 648.58,-424.23"/>
</a>
</g>
</g>
<!-- Node41 -->
<g id="Node000041" class="node">
<title>Node41</title>
<g id="a_Node000041"><a xlink:href="update__objects_8c.html#af20e3f3c403dd4fbea56e358997e515a" target="_top" xlink:title=" ">
<polygon fill="white" stroke="#666666" points="592,-367 464,-367 464,-348 592,-348 592,-367"/>
<text text-anchor="middle" x="528" y="-355" font-family="Helvetica,sans-Serif" font-size="10.00">set_object_timer_state</text>
</a>
</g>
</g>
<!-- Node40&#45;&gt;Node41 -->
<g id="edge45_Node000040_Node000041" class="edge">
<title>Node40&#45;&gt;Node41</title>
<g id="a_edge45_Node000040_Node000041"><a xlink:title=" ">
<path fill="none" stroke="#63b8ff" d="M415.13,-357.5C427.28,-357.5 440.49,-357.5 453.43,-357.5"/>
<polygon fill="#63b8ff" stroke="#63b8ff" points="453.72,-361 463.72,-357.5 453.72,-354 453.72,-361"/>
</a>
</g>
</g>
</g>
</svg>

<g id="navigator" transform="translate(0 0)" fill="#404254">
  <rect fill="#f2f5e9" fill-opacity="0.5" stroke="#606060" stroke-width=".5" x="0" y="0" width="60" height="60"/>
  <use id="zoomplus" xlink:href="#zoomPlus" x="17" y="9" onmousedown="handleZoom(evt,'in')"/>
  <use id="zoomminus" xlink:href="#zoomMin" x="42" y="9" onmousedown="handleZoom(evt,'out')"/>
  <use id="reset" xlink:href="#resetDef" x="30" y="36" onmousedown="handleReset()"/>
   <use id="arrowup" xlink:href="#arrowUp" x="0" y="0" onmousedown="handlePan(0,-1)"/>
  <use id="arrowright" xlink:href="#arrowRight" x="0" y="0" onmousedown="handlePan(1,0)"/>
  <use id="arrowdown" xlink:href="#arrowDown" x="0" y="0" onmousedown="handlePan(0,1)"/>
  <use id="arrowleft" xlink:href="#arrowLeft" x="0" y="0" onmousedown="handlePan(-1,0)"/>
</g>
<svg viewBox="0 0 15 15" width="100%" height="30px" preserveAspectRatio="xMaxYMin meet">
 <g id="arrow_out" transform="scale(0.3 0.3)">
  <a xlink:href="classOHotAirBalloon_a40bc8d453d3d79b9a7accdc5b4e1420d_cgraph_org.svg" target="_base">
   <rect id="button" ry="5" rx="5" y="6" x="6" height="38" width="38"
        fill="#f2f5e9" fill-opacity="0.5" stroke="#606060" stroke-width="1.0"/>
   <path id="arrow"
     d="M 11.500037,31.436501 C 11.940474,20.09759 22.043105,11.32322 32.158766,21.979434 L 37.068811,17.246167 C 37.068811,17.246167 37.088388,32 37.088388,32 L 22.160133,31.978069 C 22.160133,31.978069 26.997745,27.140456 26.997745,27.140456 C 18.528582,18.264221 13.291696,25.230495 11.500037,31.436501 z"
     style="fill:#404040;"/>
  </a>
 </g>
</svg>

<style type='text/css'>
<![CDATA[
[data-mouse-over-selected='false'] { opacity: 0.7; }
[data-mouse-over-selected='true']  { opacity: 1.0; }
]]>
</style>
<script type="application/ecmascript"><![CDATA[
document.addEventListener('DOMContentLoaded', (event) => {
  highlightEdges();
  highlightAdjacentNodes();
});
]]></script>
</svg>
