<?xml version="1.0" encoding="UTF-8" standalone="no"?>
<!DOCTYPE svg PUBLIC "-//W3C//DTD SVG 1.1//EN"
 "http://www.w3.org/Graphics/SVG/1.1/DTD/svg11.dtd">
<!-- Generated by graphviz version 2.43.0 (0)
 -->
<!-- Title: WarioStadium::BeginPlay Pages: 1 -->
<!--zoomable 489 -->

<svg id="main" version="1.1" xmlns="http://www.w3.org/2000/svg" xmlns:xlink="http://www.w3.org/1999/xlink" xml:space="preserve" onload="init(evt)">

<style type="text/css"><![CDATA[
.node, .edge {opacity: 0.7;}
.node.selected, .edge.selected {opacity: 1;}
.edge:hover path { stroke: red; }
.edge:hover polygon { stroke: red; fill: red; }
]]></style>

<defs>
  <circle id="rim" cx="0" cy="0" r="7"/>
  <circle id="rim2" cx="0" cy="0" r="3.5"/>
  <g id="zoomPlus">
    <use xlink:href="#rim" fill="#404040"><set attributeName="fill" to="#808080" begin="zoomplus.mouseover" end="zoomplus.mouseout"/></use>
    <path d="M-4,0h8M0,-4v8" fill="none" stroke="white" stroke-width="1.5" pointer-events="none"/>
  </g>
  <g id="zoomMin">
    <use xlink:href="#rim" fill="#404040"><set attributeName="fill" to="#808080" begin="zoomminus.mouseover" end="zoomminus.mouseout"/></use>
    <path d="M-4,0h8" fill="none" stroke="white" stroke-width="1.5" pointer-events="none"/>
  </g>
  <g id="arrowUp" transform="translate(30 24)">
    <use xlink:href="#rim"/>
    <path pointer-events="none" fill="none" stroke="white" stroke-width="1.5" d="M0,-3.0v7 M-2.5,-0.5L0,-3.0L2.5,-0.5"/>
  </g>
  <g id="arrowRight" transform="rotate(90) translate(36 -43)">
    <use xlink:href="#rim"/>
    <path pointer-events="none" fill="none" stroke="white" stroke-width="1.5" d="M0,-3.0v7 M-2.5,-0.5L0,-3.0L2.5,-0.5"/>
  </g>
  <g id="arrowDown" transform="rotate(180) translate(-30 -48)">
    <use xlink:href="#rim"/>
    <path pointer-events="none" fill="none" stroke="white" stroke-width="1.5" d="M0,-3.0v7 M-2.5,-0.5L0,-3.0L2.5,-0.5"/>
  </g>
  <g id="arrowLeft" transform="rotate(270) translate(-36 17)">
    <use xlink:href="#rim"/>
    <path pointer-events="none" fill="none" stroke="white" stroke-width="1.5" d="M0,-3.0v7 M-2.5,-0.5L0,-3.0L2.5,-0.5"/>
  </g>
  <g id="resetDef">
    <use xlink:href="#rim2" fill="#404040"><set attributeName="fill" to="#808080" begin="reset.mouseover" end="reset.mouseout"/></use>
  </g>
</defs>
<script type="application/ecmascript">
var viewWidth = 1775;
var viewHeight = 489;
var sectionId = 'dynsection-3';
</script>
<script type="application/ecmascript" xlink:href="svg.min.js"/>
<svg id="graph" class="graph">
<g id="viewport">
<title>WarioStadium::BeginPlay</title>
<!-- Node1 -->
<g id="Node000001" class="node">
<title>Node1</title>
<g id="a_Node000001"><a xlink:title=" ">
<polygon fill="#999999" stroke="#666666" points="140,-309.68 0,-309.68 0,-290.68 140,-290.68 140,-309.68"/>
<text text-anchor="middle" x="70" y="-297.68" font-family="Helvetica,sans-Serif" font-size="10.00">WarioStadium::BeginPlay</text>
</a>
</g>
</g>
<!-- Node2 -->
<g id="Node000002" class="node">
<title>Node2</title>
<g id="a_Node000002"><a xlink:href="classAWarioSign.html#a738055428c4026f4d3ed3ac869954c32" target="_top" xlink:title=" ">
<polygon fill="white" stroke="#666666" points="294.5,-309.68 184.5,-309.68 184.5,-290.68 294.5,-290.68 294.5,-309.68"/>
<text text-anchor="middle" x="239.5" y="-297.68" font-family="Helvetica,sans-Serif" font-size="10.00">AWarioSign::Spawn</text>
</a>
</g>
</g>
<!-- Node1&#45;&gt;Node2 -->
<g id="edge1_Node000001_Node000002" class="edge">
<title>Node1&#45;&gt;Node2</title>
<g id="a_edge1_Node000001_Node000002"><a xlink:title=" ">
<path fill="none" stroke="#63b8ff" d="M140.1,-300.18C151.41,-300.18 163.09,-300.18 174.29,-300.18"/>
<polygon fill="#63b8ff" stroke="#63b8ff" points="174.4,-303.68 184.4,-300.18 174.4,-296.68 174.4,-303.68"/>
</a>
</g>
</g>
<!-- Node7 -->
<g id="Node000007" class="node">
<title>Node7</title>
<g id="a_Node000007"><a xlink:href="classOBombKart.html#a9fa11c43dd1885221b160bd688eceff0" target="_top" xlink:title=" ">
<polygon fill="white" stroke="#666666" points="295,-384.68 184,-384.68 184,-365.68 295,-365.68 295,-384.68"/>
<text text-anchor="middle" x="239.5" y="-372.68" font-family="Helvetica,sans-Serif" font-size="10.00">OBombKart::Spawn</text>
</a>
</g>
</g>
<!-- Node1&#45;&gt;Node7 -->
<g id="edge6_Node000001_Node000007" class="edge">
<title>Node1&#45;&gt;Node7</title>
<g id="a_edge6_Node000001_Node000007"><a xlink:title=" ">
<path fill="none" stroke="#63b8ff" d="M92.55,-309.83C121.83,-322.93 174.32,-346.44 207.73,-361.4"/>
<polygon fill="#63b8ff" stroke="#63b8ff" points="206.47,-364.67 217.03,-365.56 209.33,-358.28 206.47,-364.67"/>
</a>
</g>
</g>
<!-- Node15 -->
<g id="Node000015" class="node">
<title>Node15</title>
<g id="a_Node000015"><a xlink:href="actors_8c.html#ac586c2534258d0f108e15fd88751b760" target="_top" xlink:title=" ">
<polygon fill="white" stroke="#666666" points="303,-231.68 176,-231.68 176,-212.68 303,-212.68 303,-231.68"/>
<text text-anchor="middle" x="239.5" y="-219.68" font-family="Helvetica,sans-Serif" font-size="10.00">spawn_all_item_boxes</text>
</a>
</g>
</g>
<!-- Node1&#45;&gt;Node15 -->
<g id="edge14_Node000001_Node000015" class="edge">
<title>Node1&#45;&gt;Node15</title>
<g id="a_edge14_Node000001_Node000015"><a xlink:title=" ">
<path fill="none" stroke="#63b8ff" d="M91.54,-290.61C120.88,-276.95 174.96,-251.76 208.7,-236.05"/>
<polygon fill="#63b8ff" stroke="#63b8ff" points="210.47,-239.09 218.06,-231.7 207.51,-232.74 210.47,-239.09"/>
</a>
</g>
</g>
<!-- Node3 -->
<g id="Node000003" class="node">
<title>Node3</title>
<g id="a_Node000003"><a xlink:href="classAWarioSign.html#a8b1dbadc1b7f123b87b9f7d9a078a934" target="_top" xlink:title=" ">
<polygon fill="white" stroke="#666666" points="475,-309.68 343,-309.68 343,-290.68 475,-290.68 475,-309.68"/>
<text text-anchor="middle" x="409" y="-297.68" font-family="Helvetica,sans-Serif" font-size="10.00">AWarioSign::AWarioSign</text>
</a>
</g>
</g>
<!-- Node2&#45;&gt;Node3 -->
<g id="edge2_Node000002_Node000003" class="edge">
<title>Node2&#45;&gt;Node3</title>
<g id="a_edge2_Node000002_Node000003"><a xlink:title=" ">
<path fill="none" stroke="#63b8ff" d="M294.88,-300.18C306.94,-300.18 319.93,-300.18 332.66,-300.18"/>
<polygon fill="#63b8ff" stroke="#63b8ff" points="332.79,-303.68 342.79,-300.18 332.79,-296.68 332.79,-303.68"/>
</a>
</g>
</g>
<!-- Node4 -->
<g id="Node000004" class="node">
<title>Node4</title>
<g id="a_Node000004"><a xlink:href="classAActor.html#a679c43bacf3600fa2d7a6ab30e34a8a6" target="_top" xlink:title=" ">
<polygon fill="white" stroke="#666666" points="627.5,-328.68 540.5,-328.68 540.5,-309.68 627.5,-309.68 627.5,-328.68"/>
<text text-anchor="middle" x="584" y="-316.68" font-family="Helvetica,sans-Serif" font-size="10.00">AActor::AActor</text>
</a>
</g>
</g>
<!-- Node3&#45;&gt;Node4 -->
<g id="edge3_Node000003_Node000004" class="edge">
<title>Node3&#45;&gt;Node4</title>
<g id="a_edge3_Node000003_Node000004"><a xlink:title=" ">
<path fill="none" stroke="#63b8ff" d="M475.4,-307.36C493.39,-309.33 512.67,-311.45 529.88,-313.34"/>
<polygon fill="#63b8ff" stroke="#63b8ff" points="529.97,-316.87 540.29,-314.48 530.73,-309.91 529.97,-316.87"/>
</a>
</g>
</g>
<!-- Node5 -->
<g id="Node000005" class="node">
<title>Node5</title>
<g id="a_Node000005"><a xlink:href="collision_8c.html#ad72fef3ffe32191d73b1822f512ebf3f" target="_top" xlink:title=" ">
<polygon fill="white" stroke="#666666" points="807,-290.68 712,-290.68 712,-271.68 807,-271.68 807,-290.68"/>
<text text-anchor="middle" x="759.5" y="-278.68" font-family="Helvetica,sans-Serif" font-size="10.00">func_802AAAAC</text>
</a>
</g>
</g>
<!-- Node3&#45;&gt;Node5 -->
<g id="edge4_Node000003_Node000005" class="edge">
<title>Node3&#45;&gt;Node5</title>
<g id="a_edge4_Node000003_Node000005"><a xlink:title=" ">
<path fill="none" stroke="#63b8ff" d="M475.14,-296.62C540.36,-293.07 639.72,-287.65 701.79,-284.27"/>
<polygon fill="#63b8ff" stroke="#63b8ff" points="702,-287.76 711.8,-283.72 701.62,-280.77 702,-287.76"/>
</a>
</g>
</g>
<!-- Node6 -->
<g id="Node000006" class="node">
<title>Node6</title>
<g id="a_Node000006"><a xlink:href="math__util_8c.html#a79fd07a0971ec96a3ff0801963a2fa7f" target="_top" xlink:title=" ">
<polygon fill="white" stroke="#666666" points="971,-319.68 907,-319.68 907,-300.68 971,-300.68 971,-319.68"/>
<text text-anchor="middle" x="939" y="-307.68" font-family="Helvetica,sans-Serif" font-size="10.00">vec3f_set</text>
</a>
</g>
</g>
<!-- Node5&#45;&gt;Node6 -->
<g id="edge5_Node000005_Node000006" class="edge">
<title>Node5&#45;&gt;Node6</title>
<g id="a_edge5_Node000005_Node000006"><a xlink:title=" ">
<path fill="none" stroke="#63b8ff" d="M807.14,-288.79C834.88,-293.33 869.78,-299.03 896.56,-303.4"/>
<polygon fill="#63b8ff" stroke="#63b8ff" points="896.32,-306.91 906.76,-305.07 897.45,-300 896.32,-306.91"/>
</a>
</g>
</g>
<!-- Node8 -->
<g id="Node000008" class="node">
<title>Node8</title>
<g id="a_Node000008"><a xlink:href="classOBombKart.html#a1566e8d56318b18ad900fbbac9966d9d" target="_top" xlink:title=" ">
<polygon fill="white" stroke="#666666" points="476.5,-423.68 341.5,-423.68 341.5,-404.68 476.5,-404.68 476.5,-423.68"/>
<text text-anchor="middle" x="409" y="-411.68" font-family="Helvetica,sans-Serif" font-size="10.00">OBombKart::OBombKart</text>
</a>
</g>
</g>
<!-- Node7&#45;&gt;Node8 -->
<g id="edge7_Node000007_Node000008" class="edge">
<title>Node7&#45;&gt;Node8</title>
<g id="a_edge7_Node000007_Node000008"><a xlink:title=" ">
<path fill="none" stroke="#63b8ff" d="M281.48,-384.72C304.37,-390.05 333.1,-396.74 357.4,-402.39"/>
<polygon fill="#63b8ff" stroke="#63b8ff" points="356.62,-405.81 367.16,-404.67 358.21,-398.99 356.62,-405.81"/>
</a>
</g>
</g>
<!-- Node9 -->
<g id="Node000009" class="node">
<title>Node9</title>
<g id="a_Node000009"><a xlink:href="collision_8c.html#a37aa55b3768d001533ad75e7f1b8388a" target="_top" xlink:title=" ">
<polygon fill="white" stroke="#666666" points="830,-423.68 689,-423.68 689,-404.68 830,-404.68 830,-423.68"/>
<text text-anchor="middle" x="759.5" y="-411.68" font-family="Helvetica,sans-Serif" font-size="10.00">check_bounding_collision</text>
</a>
</g>
</g>
<!-- Node8&#45;&gt;Node9 -->
<g id="edge8_Node000008_Node000009" class="edge">
<title>Node8&#45;&gt;Node9</title>
<g id="a_edge8_Node000008_Node000009"><a xlink:title=" ">
<path fill="none" stroke="#63b8ff" d="M476.78,-414.18C534.33,-414.18 617.53,-414.18 678.59,-414.18"/>
<polygon fill="#63b8ff" stroke="#63b8ff" points="678.96,-417.68 688.96,-414.18 678.96,-410.68 678.96,-417.68"/>
</a>
</g>
</g>
<!-- Node13 -->
<g id="Node000013" class="node">
<title>Node13</title>
<g id="a_Node000013"><a xlink:href="update__objects_8c.html#a92856990c4ca5fba1b8e0c61ca832c27" target="_top" xlink:title=" ">
<polygon fill="white" stroke="#666666" points="648,-480.68 520,-480.68 520,-461.68 648,-461.68 648,-480.68"/>
<text text-anchor="middle" x="584" y="-468.68" font-family="Helvetica,sans-Serif" font-size="10.00">find_unused_obj_index</text>
</a>
</g>
</g>
<!-- Node8&#45;&gt;Node13 -->
<g id="edge12_Node000008_Node000013" class="edge">
<title>Node8&#45;&gt;Node13</title>
<g id="a_edge12_Node000008_Node000013"><a xlink:title=" ">
<path fill="none" stroke="#63b8ff" d="M438.96,-423.72C467.77,-433.21 512.18,-447.84 544.07,-458.35"/>
<polygon fill="#63b8ff" stroke="#63b8ff" points="543.36,-461.8 553.95,-461.6 545.55,-455.15 543.36,-461.8"/>
</a>
</g>
</g>
<!-- Node14 -->
<g id="Node000014" class="node">
<title>Node14</title>
<g id="a_Node000014"><a xlink:href="classOObject.html#a629d0dcbb210e289cdf541a91321c86b" target="_top" xlink:title=" ">
<polygon fill="white" stroke="#666666" points="634.5,-404.68 533.5,-404.68 533.5,-385.68 634.5,-385.68 634.5,-404.68"/>
<text text-anchor="middle" x="584" y="-392.68" font-family="Helvetica,sans-Serif" font-size="10.00">OObject::OObject</text>
</a>
</g>
</g>
<!-- Node8&#45;&gt;Node14 -->
<g id="edge13_Node000008_Node000014" class="edge">
<title>Node8&#45;&gt;Node14</title>
<g id="a_edge13_Node000008_Node000014"><a xlink:title=" ">
<path fill="none" stroke="#63b8ff" d="M476.89,-406.83C492.18,-405.15 508.34,-403.37 523.31,-401.73"/>
<polygon fill="#63b8ff" stroke="#63b8ff" points="523.91,-405.19 533.46,-400.62 523.14,-398.23 523.91,-405.19"/>
</a>
</g>
</g>
<!-- Node10 -->
<g id="Node000010" class="node">
<title>Node10</title>
<g id="a_Node000010"><a xlink:href="collision_8c.html#ac312bf382cb40752f6b790a99e7cdcb6" target="_top" xlink:title=" ">
<polygon fill="white" stroke="#666666" points="993,-460.68 885,-460.68 885,-441.68 993,-441.68 993,-460.68"/>
<text text-anchor="middle" x="939" y="-448.68" font-family="Helvetica,sans-Serif" font-size="10.00">check_collision_yx</text>
</a>
</g>
</g>
<!-- Node9&#45;&gt;Node10 -->
<g id="edge9_Node000009_Node000010" class="edge">
<title>Node9&#45;&gt;Node10</title>
<g id="a_edge9_Node000009_Node000010"><a xlink:title=" ">
<path fill="none" stroke="#63b8ff" d="M806.21,-423.7C829.41,-428.54 857.79,-434.46 882.27,-439.56"/>
<polygon fill="#63b8ff" stroke="#63b8ff" points="881.63,-443 892.14,-441.61 883.06,-436.15 881.63,-443"/>
</a>
</g>
</g>
<!-- Node11 -->
<g id="Node000011" class="node">
<title>Node11</title>
<g id="a_Node000011"><a xlink:href="collision_8c.html#a4b48832a90e984536a0635a016ec4f28" target="_top" xlink:title=" ">
<polygon fill="white" stroke="#666666" points="992.5,-423.68 885.5,-423.68 885.5,-404.68 992.5,-404.68 992.5,-423.68"/>
<text text-anchor="middle" x="939" y="-411.68" font-family="Helvetica,sans-Serif" font-size="10.00">check_collision_zx</text>
</a>
</g>
</g>
<!-- Node9&#45;&gt;Node11 -->
<g id="edge10_Node000009_Node000011" class="edge">
<title>Node9&#45;&gt;Node11</title>
<g id="a_edge10_Node000009_Node000011"><a xlink:title=" ">
<path fill="none" stroke="#63b8ff" d="M830.14,-414.18C844.91,-414.18 860.43,-414.18 874.94,-414.18"/>
<polygon fill="#63b8ff" stroke="#63b8ff" points="875.3,-417.68 885.3,-414.18 875.3,-410.68 875.3,-417.68"/>
</a>
</g>
</g>
<!-- Node12 -->
<g id="Node000012" class="node">
<title>Node12</title>
<g id="a_Node000012"><a xlink:href="collision_8c.html#a21fef964ab48191a1c0341954ef27a40" target="_top" xlink:title=" ">
<polygon fill="white" stroke="#666666" points="992.5,-386.68 885.5,-386.68 885.5,-367.68 992.5,-367.68 992.5,-386.68"/>
<text text-anchor="middle" x="939" y="-374.68" font-family="Helvetica,sans-Serif" font-size="10.00">check_collision_zy</text>
</a>
</g>
</g>
<!-- Node9&#45;&gt;Node12 -->
<g id="edge11_Node000009_Node000012" class="edge">
<title>Node9&#45;&gt;Node12</title>
<g id="a_edge11_Node000009_Node000012"><a xlink:title=" ">
<path fill="none" stroke="#63b8ff" d="M806.21,-404.65C829.41,-399.81 857.79,-393.89 882.27,-388.79"/>
<polygon fill="#63b8ff" stroke="#63b8ff" points="883.06,-392.2 892.14,-386.74 881.63,-385.35 883.06,-392.2"/>
</a>
</g>
</g>
<!-- Node15&#45;&gt;Node6 -->
<g id="edge42_Node000015_Node000006" class="edge">
<title>Node15&#45;&gt;Node6</title>
<g id="a_edge42_Node000015_Node000006"><a xlink:title=" ">
<path fill="none" stroke="#63b8ff" d="M250.78,-231.84C263.25,-243.61 284.86,-264.15 303,-282.18 319.28,-298.34 318.37,-309.13 339,-319.18 529.96,-412.2 797.48,-351.07 897.85,-322.54"/>
<polygon fill="#63b8ff" stroke="#63b8ff" points="898.96,-325.86 907.6,-319.72 897.02,-319.14 898.96,-325.86"/>
</a>
</g>
</g>
<!-- Node16 -->
<g id="Node000016" class="node">
<title>Node16</title>
<g id="a_Node000016"><a xlink:href="actors_8c.html#a91fb2e4e37e7c72fea918fe2c1bb4eaf" target="_top" xlink:title=" ">
<polygon fill="white" stroke="#666666" points="479,-129.68 339,-129.68 339,-110.68 479,-110.68 479,-129.68"/>
<text text-anchor="middle" x="409" y="-117.68" font-family="Helvetica,sans-Serif" font-size="10.00">add_actor_to_empty_slot</text>
</a>
</g>
</g>
<!-- Node15&#45;&gt;Node16 -->
<g id="edge15_Node000015_Node000016" class="edge">
<title>Node15&#45;&gt;Node16</title>
<g id="a_edge15_Node000015_Node000016"><a xlink:title=" ">
<path fill="none" stroke="#63b8ff" d="M256.26,-212.58C285.56,-194.73 348.63,-156.33 383.53,-135.08"/>
<polygon fill="#63b8ff" stroke="#63b8ff" points="385.44,-138.01 392.16,-129.82 381.8,-132.03 385.44,-138.01"/>
</a>
</g>
</g>
<!-- Node19 -->
<g id="Node000019" class="node">
<title>Node19</title>
<g id="a_Node000019"><a xlink:href="Game_8cpp.html#a693de7d8b89fe291aafea86bc64a0a2e" target="_top" xlink:title=" ">
<polygon fill="white" stroke="#666666" points="979,-36.68 899,-36.68 899,-17.68 979,-17.68 979,-36.68"/>
<text text-anchor="middle" x="939" y="-24.68" font-family="Helvetica,sans-Serif" font-size="10.00">CM_GetActor</text>
</a>
</g>
</g>
<!-- Node15&#45;&gt;Node19 -->
<g id="edge37_Node000015_Node000019" class="edge">
<title>Node15&#45;&gt;Node19</title>
<g id="a_edge37_Node000015_Node000019"><a xlink:title=" ">
<path fill="none" stroke="#63b8ff" d="M245.95,-212.67C259.2,-190.35 295.2,-133.97 339,-101.18 406.92,-50.31 432.79,-48.21 515,-27.18 650.85,7.59 690.25,2.39 830,-9.18 849.42,-10.78 870.61,-13.99 889.03,-17.26"/>
<polygon fill="#63b8ff" stroke="#63b8ff" points="888.48,-20.71 898.95,-19.07 889.74,-13.83 888.48,-20.71"/>
</a>
</g>
</g>
<!-- Node36 -->
<g id="Node000036" class="node">
<title>Node36</title>
<g id="a_Node000036"><a xlink:href="math__util_8c.html#a062850863585005ad1d0a75d9ff70693" target="_top" xlink:title=" ">
<polygon fill="white" stroke="#666666" points="447.5,-249.68 370.5,-249.68 370.5,-230.68 447.5,-230.68 447.5,-249.68"/>
<text text-anchor="middle" x="409" y="-237.68" font-family="Helvetica,sans-Serif" font-size="10.00">random_u16</text>
</a>
</g>
</g>
<!-- Node15&#45;&gt;Node36 -->
<g id="edge38_Node000015_Node000036" class="edge">
<title>Node15&#45;&gt;Node36</title>
<g id="a_edge38_Node000015_Node000036"><a xlink:title=" ">
<path fill="none" stroke="#63b8ff" d="M303.35,-228.93C322.13,-230.95 342.4,-233.13 360.06,-235.02"/>
<polygon fill="#63b8ff" stroke="#63b8ff" points="359.81,-238.52 370.13,-236.11 360.56,-231.56 359.81,-238.52"/>
</a>
</g>
</g>
<!-- Node37 -->
<g id="Node000037" class="node">
<title>Node37</title>
<g id="a_Node000037"><a xlink:href="collision_8c.html#ad95e9ed2051529d5edee26109fa07427" target="_top" xlink:title=" ">
<polygon fill="white" stroke="#666666" points="477.5,-212.68 340.5,-212.68 340.5,-193.68 477.5,-193.68 477.5,-212.68"/>
<text text-anchor="middle" x="409" y="-200.68" font-family="Helvetica,sans-Serif" font-size="10.00">spawn_actor_on_surface</text>
</a>
</g>
</g>
<!-- Node15&#45;&gt;Node37 -->
<g id="edge39_Node000015_Node000037" class="edge">
<title>Node15&#45;&gt;Node37</title>
<g id="a_edge39_Node000015_Node000037"><a xlink:title=" ">
<path fill="none" stroke="#63b8ff" d="M303.35,-215.05C312.12,-214.05 321.21,-213.02 330.21,-212"/>
<polygon fill="#63b8ff" stroke="#63b8ff" points="330.77,-215.46 340.31,-210.85 329.98,-208.5 330.77,-215.46"/>
</a>
</g>
</g>
<!-- Node17 -->
<g id="Node000017" class="node">
<title>Node17</title>
<g id="a_Node000017"><a xlink:href="actors_8c.html#a39c023177b5a7686cdd1fc65b8b953e1" target="_top" xlink:title=" ">
<polygon fill="white" stroke="#666666" points="615,-55.68 553,-55.68 553,-36.68 615,-36.68 615,-55.68"/>
<text text-anchor="middle" x="584" y="-43.68" font-family="Helvetica,sans-Serif" font-size="10.00">actor_init</text>
</a>
</g>
</g>
<!-- Node16&#45;&gt;Node17 -->
<g id="edge16_Node000016_Node000017" class="edge">
<title>Node16&#45;&gt;Node17</title>
<g id="a_edge16_Node000016_Node000017"><a xlink:title=" ">
<path fill="none" stroke="#63b8ff" d="M425.12,-110.67C445.06,-98.47 481.54,-77.32 515,-64.18 523.85,-60.7 533.6,-57.67 542.89,-55.14"/>
<polygon fill="#63b8ff" stroke="#63b8ff" points="543.93,-58.49 552.73,-52.6 542.17,-51.72 543.93,-58.49"/>
</a>
</g>
</g>
<!-- Node33 -->
<g id="Node000033" class="node">
<title>Node33</title>
<g id="a_Node000033"><a xlink:href="Game_8cpp.html#acea5cfd9ab22f745bd6627869b95a62e" target="_top" xlink:title=" ">
<polygon fill="white" stroke="#666666" points="640,-166.68 528,-166.68 528,-147.68 640,-147.68 640,-166.68"/>
<text text-anchor="middle" x="584" y="-154.68" font-family="Helvetica,sans-Serif" font-size="10.00">CM_ActorBeginPlay</text>
</a>
</g>
</g>
<!-- Node16&#45;&gt;Node33 -->
<g id="edge34_Node000016_Node000033" class="edge">
<title>Node16&#45;&gt;Node33</title>
<g id="a_edge34_Node000016_Node000033"><a xlink:title=" ">
<path fill="none" stroke="#63b8ff" d="M454.55,-129.7C477.07,-134.52 504.58,-140.4 528.36,-145.49"/>
<polygon fill="#63b8ff" stroke="#63b8ff" points="527.79,-148.95 538.3,-147.61 529.25,-142.1 527.79,-148.95"/>
</a>
</g>
</g>
<!-- Node34 -->
<g id="Node000034" class="node">
<title>Node34</title>
<g id="a_Node000034"><a xlink:href="Game_8cpp.html#a42f23077aaa52cb3ea5c7803b7dd6816" target="_top" xlink:title=" ">
<polygon fill="white" stroke="#666666" points="637,-129.68 531,-129.68 531,-110.68 637,-110.68 637,-129.68"/>
<text text-anchor="middle" x="584" y="-117.68" font-family="Helvetica,sans-Serif" font-size="10.00">CM_AddBaseActor</text>
</a>
</g>
</g>
<!-- Node16&#45;&gt;Node34 -->
<g id="edge35_Node000016_Node000034" class="edge">
<title>Node16&#45;&gt;Node34</title>
<g id="a_edge35_Node000016_Node000034"><a xlink:title=" ">
<path fill="none" stroke="#63b8ff" d="M479.37,-120.18C493.08,-120.18 507.38,-120.18 520.84,-120.18"/>
<polygon fill="#63b8ff" stroke="#63b8ff" points="520.93,-123.68 530.93,-120.18 520.93,-116.68 520.93,-123.68"/>
</a>
</g>
</g>
<!-- Node35 -->
<g id="Node000035" class="node">
<title>Node35</title>
<g id="a_Node000035"><a xlink:href="Game_8cpp.html#a0841ffe9a66e95aca42438b9d8ffc3d3" target="_top" xlink:title=" ">
<polygon fill="white" stroke="#666666" points="634.5,-92.68 533.5,-92.68 533.5,-73.68 634.5,-73.68 634.5,-92.68"/>
<text text-anchor="middle" x="584" y="-80.68" font-family="Helvetica,sans-Serif" font-size="10.00">CM_GetActorSize</text>
</a>
</g>
</g>
<!-- Node16&#45;&gt;Node35 -->
<g id="edge36_Node000016_Node000035" class="edge">
<title>Node16&#45;&gt;Node35</title>
<g id="a_edge36_Node000016_Node000035"><a xlink:title=" ">
<path fill="none" stroke="#63b8ff" d="M454.55,-110.65C477.07,-105.83 504.58,-99.95 528.36,-94.86"/>
<polygon fill="#63b8ff" stroke="#63b8ff" points="529.25,-98.25 538.3,-92.74 527.79,-91.4 529.25,-98.25"/>
</a>
</g>
</g>
<!-- Node17&#45;&gt;Node5 -->
<g id="edge31_Node000017_Node000005" class="edge">
<title>Node17&#45;&gt;Node5</title>
<g id="a_edge31_Node000017_Node000005"><a xlink:title=" ">
<path fill="none" stroke="#63b8ff" d="M615.32,-48.6C628.1,-50.95 642.44,-55.48 653,-64.18 661.44,-71.12 726.19,-210.86 749.87,-262.35"/>
<polygon fill="#63b8ff" stroke="#63b8ff" points="746.79,-264.03 754.14,-271.66 753.15,-261.11 746.79,-264.03"/>
</a>
</g>
</g>
<!-- Node17&#45;&gt;Node9 -->
<g id="edge17_Node000017_Node000009" class="edge">
<title>Node17&#45;&gt;Node9</title>
<g id="a_edge17_Node000017_Node000009"><a xlink:title=" ">
<path fill="none" stroke="#63b8ff" d="M615.28,-46.98C628.69,-48.95 643.54,-53.63 653,-64.18 723.89,-143.12 652.67,-200.48 689,-300.18 702.4,-336.95 728.37,-374.82 744.49,-396.33"/>
<polygon fill="#63b8ff" stroke="#63b8ff" points="741.87,-398.68 750.73,-404.5 747.44,-394.43 741.87,-398.68"/>
</a>
</g>
</g>
<!-- Node18 -->
<g id="Node000018" class="node">
<title>Node18</title>
<g id="a_Node000018"><a xlink:href="actors_8c.html#a1a9bccb586242555a9123ebd4ab70f2a" target="_top" xlink:title=" ">
<polygon fill="white" stroke="#666666" points="825.5,-123.18 693.5,-123.18 693.5,-93.18 825.5,-93.18 825.5,-123.18"/>
<text text-anchor="start" x="701.5" y="-111.18" font-family="Helvetica,sans-Serif" font-size="10.00">cleanup_red_and_green</text>
<text text-anchor="middle" x="759.5" y="-100.18" font-family="Helvetica,sans-Serif" font-size="10.00">_shells</text>
</a>
</g>
</g>
<!-- Node17&#45;&gt;Node18 -->
<g id="edge18_Node000017_Node000018" class="edge">
<title>Node17&#45;&gt;Node18</title>
<g id="a_edge18_Node000017_Node000018"><a xlink:title=" ">
<path fill="none" stroke="#63b8ff" d="M615.26,-52.62C627.21,-55.57 640.94,-59.47 653,-64.18 669.85,-70.75 672.45,-75.87 689,-83.18 693.91,-85.34 699.08,-87.47 704.28,-89.51"/>
<polygon fill="#63b8ff" stroke="#63b8ff" points="703.05,-92.79 713.64,-93.09 705.55,-86.25 703.05,-92.79"/>
</a>
</g>
</g>
<!-- Node31 -->
<g id="Node000031" class="node">
<title>Node31</title>
<g id="a_Node000031"><a xlink:href="math__util_8c.html#af7b470ed76fce07b8042a47c96e5690b" target="_top" xlink:title=" ">
<polygon fill="white" stroke="#666666" points="813,-74.68 706,-74.68 706,-55.68 813,-55.68 813,-74.68"/>
<text text-anchor="middle" x="759.5" y="-62.68" font-family="Helvetica,sans-Serif" font-size="10.00">vec3f_copy_return</text>
</a>
</g>
</g>
<!-- Node17&#45;&gt;Node31 -->
<g id="edge32_Node000017_Node000031" class="edge">
<title>Node17&#45;&gt;Node31</title>
<g id="a_edge32_Node000017_Node000031"><a xlink:title=" ">
<path fill="none" stroke="#63b8ff" d="M615.22,-49.48C637.44,-51.92 668.43,-55.31 695.91,-58.32"/>
<polygon fill="#63b8ff" stroke="#63b8ff" points="695.53,-61.8 705.85,-59.41 696.29,-54.84 695.53,-61.8"/>
</a>
</g>
</g>
<!-- Node32 -->
<g id="Node000032" class="node">
<title>Node32</title>
<g id="a_Node000032"><a xlink:href="math__util_8c.html#a0e270ee67600c8c9c2f140c647d008a1" target="_top" xlink:title=" ">
<polygon fill="white" stroke="#666666" points="796.5,-37.68 722.5,-37.68 722.5,-18.68 796.5,-18.68 796.5,-37.68"/>
<text text-anchor="middle" x="759.5" y="-25.68" font-family="Helvetica,sans-Serif" font-size="10.00">vec3s_copy</text>
</a>
</g>
</g>
<!-- Node17&#45;&gt;Node32 -->
<g id="edge33_Node000017_Node000032" class="edge">
<title>Node17&#45;&gt;Node32</title>
<g id="a_edge33_Node000017_Node000032"><a xlink:title=" ">
<path fill="none" stroke="#63b8ff" d="M615.22,-43.04C642,-40.26 681.51,-36.16 712.26,-32.97"/>
<polygon fill="#63b8ff" stroke="#63b8ff" points="712.73,-36.44 722.32,-31.93 712.01,-29.48 712.73,-36.44"/>
</a>
</g>
</g>
<!-- Node18&#45;&gt;Node19 -->
<g id="edge19_Node000018_Node000019" class="edge">
<title>Node18&#45;&gt;Node19</title>
<g id="a_edge19_Node000018_Node000019"><a xlink:title=" ">
<path fill="none" stroke="#63b8ff" d="M806.22,-93.08C814.25,-90.05 822.45,-86.7 830,-83.18 846.78,-75.34 849.66,-70.9 866,-62.18 879.71,-54.85 895.19,-47.25 908.27,-41.01"/>
<polygon fill="#63b8ff" stroke="#63b8ff" points="909.77,-44.17 917.31,-36.72 906.77,-37.84 909.77,-44.17"/>
</a>
</g>
</g>
<!-- Node20 -->
<g id="Node000020" class="node">
<title>Node20</title>
<g id="a_Node000020"><a xlink:href="code__80005FD0_8c.html#ad301b978cdd3c4cc190b10be050d51d8" target="_top" xlink:title=" ">
<polygon fill="white" stroke="#666666" points="1012,-101.18 866,-101.18 866,-71.18 1012,-71.18 1012,-101.18"/>
<text text-anchor="start" x="874" y="-89.18" font-family="Helvetica,sans-Serif" font-size="10.00">delete_actor_in_unexpired</text>
<text text-anchor="middle" x="939" y="-78.18" font-family="Helvetica,sans-Serif" font-size="10.00">_actor_list</text>
</a>
</g>
</g>
<!-- Node18&#45;&gt;Node20 -->
<g id="edge20_Node000018_Node000020" class="edge">
<title>Node18&#45;&gt;Node20</title>
<g id="a_edge20_Node000018_Node000020"><a xlink:title=" ">
<path fill="none" stroke="#63b8ff" d="M825.59,-100.11C835.38,-98.89 845.59,-97.63 855.69,-96.38"/>
<polygon fill="#63b8ff" stroke="#63b8ff" points="856.24,-99.84 865.73,-95.13 855.38,-92.89 856.24,-99.84"/>
</a>
</g>
</g>
<!-- Node21 -->
<g id="Node000021" class="node">
<title>Node21</title>
<g id="a_Node000021"><a xlink:href="actors_8c.html#a694ec6ef7548b8618aeb35c038d3a9b9" target="_top" xlink:title=" ">
<polygon fill="white" stroke="#666666" points="980.5,-138.68 897.5,-138.68 897.5,-119.68 980.5,-119.68 980.5,-138.68"/>
<text text-anchor="middle" x="939" y="-126.68" font-family="Helvetica,sans-Serif" font-size="10.00">destroy_actor</text>
</a>
</g>
</g>
<!-- Node18&#45;&gt;Node21 -->
<g id="edge21_Node000018_Node000021" class="edge">
<title>Node18&#45;&gt;Node21</title>
<g id="a_edge21_Node000018_Node000021"><a xlink:title=" ">
<path fill="none" stroke="#63b8ff" d="M825.59,-115.88C845.97,-118.29 868.14,-120.91 887.37,-123.19"/>
<polygon fill="#63b8ff" stroke="#63b8ff" points="887.08,-126.68 897.43,-124.37 887.91,-119.72 887.08,-126.68"/>
</a>
</g>
</g>
<!-- Node22 -->
<g id="Node000022" class="node">
<title>Node22</title>
<g id="a_Node000022"><a xlink:href="actors_8c.html#a12dc3ccac4c7d8569eadac0af4fd6f9f" target="_top" xlink:title=" ">
<polygon fill="white" stroke="#666666" points="1206,-138.68 1048,-138.68 1048,-119.68 1206,-119.68 1206,-138.68"/>
<text text-anchor="middle" x="1127" y="-126.68" font-family="Helvetica,sans-Serif" font-size="10.00">play_sound_before_despawn</text>
</a>
</g>
</g>
<!-- Node21&#45;&gt;Node22 -->
<g id="edge22_Node000021_Node000022" class="edge">
<title>Node21&#45;&gt;Node22</title>
<g id="a_edge22_Node000021_Node000022"><a xlink:title=" ">
<path fill="none" stroke="#63b8ff" d="M980.82,-129.18C997.65,-129.18 1017.86,-129.18 1037.77,-129.18"/>
<polygon fill="#63b8ff" stroke="#63b8ff" points="1037.82,-132.68 1047.82,-129.18 1037.82,-125.68 1037.82,-132.68"/>
</a>
</g>
</g>
<!-- Node23 -->
<g id="Node000023" class="node">
<title>Node23</title>
<g id="a_Node000023"><a xlink:href="external_8c.html#ae72057869772019e4464c87d4e16c682" target="_top" xlink:title=" ">
<polygon fill="white" stroke="#666666" points="1334,-138.68 1242,-138.68 1242,-119.68 1334,-119.68 1334,-138.68"/>
<text text-anchor="middle" x="1288" y="-126.68" font-family="Helvetica,sans-Serif" font-size="10.00">func_800C99E0</text>
</a>
</g>
</g>
<!-- Node22&#45;&gt;Node23 -->
<g id="edge23_Node000022_Node000023" class="edge">
<title>Node22&#45;&gt;Node23</title>
<g id="a_edge23_Node000022_Node000023"><a xlink:title=" ">
<path fill="none" stroke="#63b8ff" d="M1206.1,-129.18C1214.72,-129.18 1223.35,-129.18 1231.61,-129.18"/>
<polygon fill="#63b8ff" stroke="#63b8ff" points="1231.83,-132.68 1241.83,-129.18 1231.83,-125.68 1231.83,-132.68"/>
</a>
</g>
</g>
<!-- Node24 -->
<g id="Node000024" class="node">
<title>Node24</title>
<g id="a_Node000024"><a xlink:href="external_8c.html#aeb87c527482a244173df36a1f3d4f446" target="_top" xlink:title=" ">
<polygon fill="white" stroke="#666666" points="1462,-157.68 1370,-157.68 1370,-138.68 1462,-138.68 1462,-157.68"/>
<text text-anchor="middle" x="1416" y="-145.68" font-family="Helvetica,sans-Serif" font-size="10.00">func_800C21E8</text>
</a>
</g>
</g>
<!-- Node23&#45;&gt;Node24 -->
<g id="edge24_Node000023_Node000024" class="edge">
<title>Node23&#45;&gt;Node24</title>
<g id="a_edge24_Node000023_Node000024"><a xlink:title=" ">
<path fill="none" stroke="#63b8ff" d="M1334.13,-135.98C1342.46,-137.24 1351.23,-138.56 1359.81,-139.85"/>
<polygon fill="#63b8ff" stroke="#63b8ff" points="1359.35,-143.32 1369.76,-141.35 1360.39,-136.4 1359.35,-143.32"/>
</a>
</g>
</g>
<!-- Node25 -->
<g id="Node000025" class="node">
<title>Node25</title>
<g id="a_Node000025"><a xlink:href="external_8c.html#a028d40421b90c38f68ebfd5acc626f2e" target="_top" xlink:title=" ">
<polygon fill="white" stroke="#666666" points="1462,-120.68 1370,-120.68 1370,-101.68 1462,-101.68 1462,-120.68"/>
<text text-anchor="middle" x="1416" y="-108.68" font-family="Helvetica,sans-Serif" font-size="10.00">func_800C5578</text>
</a>
</g>
</g>
<!-- Node23&#45;&gt;Node25 -->
<g id="edge25_Node000023_Node000025" class="edge">
<title>Node23&#45;&gt;Node25</title>
<g id="a_edge25_Node000023_Node000025"><a xlink:title=" ">
<path fill="none" stroke="#63b8ff" d="M1334.13,-122.73C1342.46,-121.54 1351.23,-120.28 1359.81,-119.06"/>
<polygon fill="#63b8ff" stroke="#63b8ff" points="1360.35,-122.52 1369.76,-117.64 1359.36,-115.59 1360.35,-122.52"/>
</a>
</g>
</g>
<!-- Node26 -->
<g id="Node000026" class="node">
<title>Node26</title>
<g id="a_Node000026"><a xlink:href="external_8c.html#ac0fb767de7e14a03f1bcfa53f0abd23b" target="_top" xlink:title=" ">
<polygon fill="white" stroke="#666666" points="1638,-157.68 1498,-157.68 1498,-138.68 1638,-138.68 1638,-157.68"/>
<text text-anchor="middle" x="1568" y="-145.68" font-family="Helvetica,sans-Serif" font-size="10.00">delete_sound_from_bank</text>
</a>
</g>
</g>
<!-- Node25&#45;&gt;Node26 -->
<g id="edge26_Node000025_Node000026" class="edge">
<title>Node25&#45;&gt;Node26</title>
<g id="a_edge26_Node000025_Node000026"><a xlink:title=" ">
<path fill="none" stroke="#63b8ff" d="M1455.63,-120.7C1474.8,-125.43 1498.16,-131.19 1518.52,-136.22"/>
<polygon fill="#63b8ff" stroke="#63b8ff" points="1517.69,-139.62 1528.24,-138.61 1519.37,-132.82 1517.69,-139.62"/>
</a>
</g>
</g>
<!-- Node28 -->
<g id="Node000028" class="node">
<title>Node28</title>
<g id="a_Node000028"><a xlink:href="external_8c.html#ab83bd36e63f0f1baddcb2482b5ad31b0" target="_top" xlink:title=" ">
<polygon fill="white" stroke="#666666" points="1614.5,-120.68 1521.5,-120.68 1521.5,-101.68 1614.5,-101.68 1614.5,-120.68"/>
<text text-anchor="middle" x="1568" y="-108.68" font-family="Helvetica,sans-Serif" font-size="10.00">func_800C41CC</text>
</a>
</g>
</g>
<!-- Node25&#45;&gt;Node28 -->
<g id="edge28_Node000025_Node000028" class="edge">
<title>Node25&#45;&gt;Node28</title>
<g id="a_edge28_Node000025_Node000028"><a xlink:title=" ">
<path fill="none" stroke="#63b8ff" d="M1462,-111.18C1477.37,-111.18 1494.74,-111.18 1510.86,-111.18"/>
<polygon fill="#63b8ff" stroke="#63b8ff" points="1511.25,-114.68 1521.25,-111.18 1511.25,-107.68 1511.25,-114.68"/>
</a>
</g>
</g>
<!-- Node29 -->
<g id="Node000029" class="node">
<title>Node29</title>
<g id="a_Node000029"><a xlink:href="port__eu_8c.html#aa89dfaecca46c6d071f08c1898d1f7c9" target="_top" xlink:title=" ">
<polygon fill="white" stroke="#666666" points="1614.5,-83.68 1521.5,-83.68 1521.5,-64.68 1614.5,-64.68 1614.5,-83.68"/>
<text text-anchor="middle" x="1568" y="-71.68" font-family="Helvetica,sans-Serif" font-size="10.00">func_800CBBE8</text>
</a>
</g>
</g>
<!-- Node25&#45;&gt;Node29 -->
<g id="edge29_Node000025_Node000029" class="edge">
<title>Node25&#45;&gt;Node29</title>
<g id="a_edge29_Node000025_Node000029"><a xlink:title=" ">
<path fill="none" stroke="#63b8ff" d="M1455.63,-101.65C1474.8,-96.92 1498.16,-91.16 1518.52,-86.13"/>
<polygon fill="#63b8ff" stroke="#63b8ff" points="1519.37,-89.53 1528.24,-83.74 1517.69,-82.73 1519.37,-89.53"/>
</a>
</g>
</g>
<!-- Node27 -->
<g id="Node000027" class="node">
<title>Node27</title>
<g id="a_Node000027"><a xlink:href="external_8c.html#a358ac55e8ab5262dcae8037334be06d7" target="_top" xlink:title=" ">
<polygon fill="white" stroke="#666666" points="1766.5,-157.68 1674.5,-157.68 1674.5,-138.68 1766.5,-138.68 1766.5,-157.68"/>
<text text-anchor="middle" x="1720.5" y="-145.68" font-family="Helvetica,sans-Serif" font-size="10.00">func_800C40F0</text>
</a>
</g>
</g>
<!-- Node26&#45;&gt;Node27 -->
<g id="edge27_Node000026_Node000027" class="edge">
<title>Node26&#45;&gt;Node27</title>
<g id="a_edge27_Node000026_Node000027"><a xlink:title=" ">
<path fill="none" stroke="#63b8ff" d="M1638.08,-148.18C1646.87,-148.18 1655.78,-148.18 1664.31,-148.18"/>
<polygon fill="#63b8ff" stroke="#63b8ff" points="1664.5,-151.68 1674.5,-148.18 1664.5,-144.68 1664.5,-151.68"/>
</a>
</g>
</g>
<!-- Node30 -->
<g id="Node000030" class="node">
<title>Node30</title>
<g id="a_Node000030"><a xlink:href="port__eu_8c.html#af361a20d2e08f30c53a237ca481ff734" target="_top" xlink:title=" ">
<polygon fill="white" stroke="#666666" points="1767,-83.68 1674,-83.68 1674,-64.68 1767,-64.68 1767,-83.68"/>
<text text-anchor="middle" x="1720.5" y="-71.68" font-family="Helvetica,sans-Serif" font-size="10.00">func_800CBB48</text>
</a>
</g>
</g>
<!-- Node29&#45;&gt;Node30 -->
<g id="edge30_Node000029_Node000030" class="edge">
<title>Node29&#45;&gt;Node30</title>
<g id="a_edge30_Node000029_Node000030"><a xlink:title=" ">
<path fill="none" stroke="#63b8ff" d="M1614.56,-74.18C1629.96,-74.18 1647.34,-74.18 1663.46,-74.18"/>
<polygon fill="#63b8ff" stroke="#63b8ff" points="1663.83,-77.68 1673.83,-74.18 1663.83,-70.68 1663.83,-77.68"/>
</a>
</g>
</g>
<!-- Node38 -->
<g id="Node000038" class="node">
<title>Node38</title>
<g id="a_Node000038"><a xlink:href="collision_8c.html#a6527a2135a10909cdf9a1fd731be5628" target="_top" xlink:title=" ">
<polygon fill="white" stroke="#666666" points="653,-252.68 515,-252.68 515,-233.68 653,-233.68 653,-252.68"/>
<text text-anchor="middle" x="584" y="-240.68" font-family="Helvetica,sans-Serif" font-size="10.00">calculate_surface_height</text>
</a>
</g>
</g>
<!-- Node37&#45;&gt;Node38 -->
<g id="edge40_Node000037_Node000038" class="edge">
<title>Node37&#45;&gt;Node38</title>
<g id="a_edge40_Node000037_Node000038"><a xlink:title=" ">
<path fill="none" stroke="#63b8ff" d="M451.44,-212.76C475.62,-218.35 506.32,-225.44 531.98,-231.38"/>
<polygon fill="#63b8ff" stroke="#63b8ff" points="531.37,-234.83 541.9,-233.67 532.95,-228.01 531.37,-234.83"/>
</a>
</g>
</g>
<!-- Node39 -->
<g id="Node000039" class="node">
<title>Node39</title>
<g id="a_Node000039"><a xlink:href="collision_8c.html#a0fe340ccfe1d926a592ea9a0c84d7574" target="_top" xlink:title=" ">
<polygon fill="white" stroke="#666666" points="650,-215.18 518,-215.18 518,-185.18 650,-185.18 650,-215.18"/>
<text text-anchor="start" x="526" y="-203.18" font-family="Helvetica,sans-Serif" font-size="10.00">check_horizontally</text>
<text text-anchor="middle" x="584" y="-192.18" font-family="Helvetica,sans-Serif" font-size="10.00">_colliding_with_triangle</text>
</a>
</g>
</g>
<!-- Node37&#45;&gt;Node39 -->
<g id="edge41_Node000037_Node000039" class="edge">
<title>Node37&#45;&gt;Node39</title>
<g id="a_edge41_Node000037_Node000039"><a xlink:title=" ">
<path fill="none" stroke="#63b8ff" d="M477.88,-202C487.64,-201.83 497.74,-201.65 507.64,-201.48"/>
<polygon fill="#63b8ff" stroke="#63b8ff" points="507.93,-204.98 517.86,-201.3 507.81,-197.98 507.93,-204.98"/>
</a>
</g>
</g>
</g>
</svg>

<g id="navigator" transform="translate(0 0)" fill="#404254">
  <rect fill="#f2f5e9" fill-opacity="0.5" stroke="#606060" stroke-width=".5" x="0" y="0" width="60" height="60"/>
  <use id="zoomplus" xlink:href="#zoomPlus" x="17" y="9" onmousedown="handleZoom(evt,'in')"/>
  <use id="zoomminus" xlink:href="#zoomMin" x="42" y="9" onmousedown="handleZoom(evt,'out')"/>
  <use id="reset" xlink:href="#resetDef" x="30" y="36" onmousedown="handleReset()"/>
   <use id="arrowup" xlink:href="#arrowUp" x="0" y="0" onmousedown="handlePan(0,-1)"/>
  <use id="arrowright" xlink:href="#arrowRight" x="0" y="0" onmousedown="handlePan(1,0)"/>
  <use id="arrowdown" xlink:href="#arrowDown" x="0" y="0" onmousedown="handlePan(0,1)"/>
  <use id="arrowleft" xlink:href="#arrowLeft" x="0" y="0" onmousedown="handlePan(-1,0)"/>
</g>
<svg viewBox="0 0 15 15" width="100%" height="30px" preserveAspectRatio="xMaxYMin meet">
 <g id="arrow_out" transform="scale(0.3 0.3)">
  <a xlink:href="classWarioStadium_a4378b74fb0c8f22034f5235ff051e53d_cgraph_org.svg" target="_base">
   <rect id="button" ry="5" rx="5" y="6" x="6" height="38" width="38"
        fill="#f2f5e9" fill-opacity="0.5" stroke="#606060" stroke-width="1.0"/>
   <path id="arrow"
     d="M 11.500037,31.436501 C 11.940474,20.09759 22.043105,11.32322 32.158766,21.979434 L 37.068811,17.246167 C 37.068811,17.246167 37.088388,32 37.088388,32 L 22.160133,31.978069 C 22.160133,31.978069 26.997745,27.140456 26.997745,27.140456 C 18.528582,18.264221 13.291696,25.230495 11.500037,31.436501 z"
     style="fill:#404040;"/>
  </a>
 </g>
</svg>

<style type='text/css'>
<![CDATA[
[data-mouse-over-selected='false'] { opacity: 0.7; }
[data-mouse-over-selected='true']  { opacity: 1.0; }
]]>
</style>
<script type="application/ecmascript"><![CDATA[
document.addEventListener('DOMContentLoaded', (event) => {
  highlightEdges();
  highlightAdjacentNodes();
});
]]></script>
</svg>
