<?xml version="1.0" encoding="UTF-8" standalone="no"?>
<!DOCTYPE svg PUBLIC "-//W3C//DTD SVG 1.1//EN"
 "http://www.w3.org/Graphics/SVG/1.1/DTD/svg11.dtd">
<!-- Generated by graphviz version 2.43.0 (0)
 -->
<!-- Title: RaceManager Pages: 1 -->
<svg width="854pt" height="677pt"
 viewBox="0.00 0.00 854.00 677.49" xmlns="http://www.w3.org/2000/svg" xmlns:xlink="http://www.w3.org/1999/xlink">
<g id="graph0" class="graph" transform="scale(1 1) rotate(0) translate(4 673.49)">
<title>RaceManager</title>
<!-- Node1 -->
<g id="Node000001" class="node">
<title>Node1</title>
<g id="a_Node000001"><a xlink:title=" ">
<polygon fill="#999999" stroke="#666666" points="846,-294.99 763,-294.99 763,-275.99 846,-275.99 846,-294.99"/>
<text text-anchor="middle" x="804.5" y="-282.99" font-family="Helvetica,sans-Serif" font-size="10.00">RaceManager</text>
</a>
</g>
</g>
<!-- Node2 -->
<g id="Node000002" class="node">
<title>Node2</title>
<g id="a_Node000002"><a xlink:href="classWorld.html" target="_top" xlink:title=" ">
<polygon fill="white" stroke="#666666" points="657,-294.99 613,-294.99 613,-275.99 657,-275.99 657,-294.99"/>
<text text-anchor="middle" x="635" y="-282.99" font-family="Helvetica,sans-Serif" font-size="10.00">World</text>
</a>
</g>
</g>
<!-- Node2&#45;&gt;Node1 -->
<g id="edge1_Node000001_Node000002" class="edge">
<title>Node2&#45;&gt;Node1</title>
<g id="a_edge1_Node000001_Node000002"><a xlink:title=" ">
<path fill="none" stroke="#9a32cd" stroke-dasharray="5,2" d="M667.28,-285.49C694.3,-285.49 733.52,-285.49 762.94,-285.49"/>
<polygon fill="#9a32cd" stroke="#9a32cd" points="667.21,-281.99 657.21,-285.49 667.21,-288.99 667.21,-281.99"/>
</a>
</g>
<text text-anchor="middle" x="710" y="-288.49" font-family="Helvetica,sans-Serif" font-size="10.00" fill="grey"> WorldContext</text>
</g>
<!-- Node3 -->
<g id="Node000003" class="node">
<title>Node3</title>
<g id="a_Node000003"><a xlink:title=" ">
<polygon fill="white" stroke="#666666" points="406.5,-654.99 365.5,-654.99 365.5,-635.99 406.5,-635.99 406.5,-654.99"/>
<text text-anchor="middle" x="386" y="-642.99" font-family="Helvetica,sans-Serif" font-size="10.00">MtxF</text>
</a>
</g>
</g>
<!-- Node3&#45;&gt;Node2 -->
<g id="edge2_Node000002_Node000003" class="edge">
<title>Node3&#45;&gt;Node2</title>
<g id="a_edge2_Node000002_Node000003"><a xlink:title=" ">
<path fill="none" stroke="#9a32cd" stroke-dasharray="5,2" d="M416.71,-652.4C461.98,-661 547.91,-669.34 595,-622.49 618.9,-598.7 631.25,-347.81 633.59,-295.15"/>
<polygon fill="#9a32cd" stroke="#9a32cd" points="417.15,-648.92 406.65,-650.36 415.76,-655.78 417.15,-648.92"/>
</a>
</g>
<text text-anchor="middle" x="539" y="-661.49" font-family="Helvetica,sans-Serif" font-size="10.00" fill="grey"> Mtx</text>
</g>
<!-- Node4 -->
<g id="Node000004" class="node">
<title>Node4</title>
<g id="a_Node000004"><a xlink:title=" ">
<polygon fill="white" stroke="#666666" points="448.5,-617.99 323.5,-617.99 323.5,-598.99 448.5,-598.99 448.5,-617.99"/>
<text text-anchor="middle" x="386" y="-605.99" font-family="Helvetica,sans-Serif" font-size="10.00">shared_ptr&lt; Course &gt;</text>
</a>
</g>
</g>
<!-- Node4&#45;&gt;Node2 -->
<g id="edge3_Node000002_Node000004" class="edge">
<title>Node4&#45;&gt;Node2</title>
<g id="a_edge3_Node000002_Node000004"><a xlink:title=" ">
<path fill="none" stroke="#9a32cd" stroke-dasharray="5,2" d="M458.99,-608.94C511.32,-607.65 576.16,-602.13 595,-583.49 636.91,-542.01 635.22,-341.52 634.25,-295.09"/>
<polygon fill="#9a32cd" stroke="#9a32cd" points="458.63,-605.45 448.71,-609.15 458.77,-612.45 458.63,-605.45"/>
</a>
</g>
<text text-anchor="middle" x="539" y="-610.49" font-family="Helvetica,sans-Serif" font-size="10.00" fill="grey"> CurrentCourse</text>
</g>
<!-- Node5 -->
<g id="Node000005" class="node">
<title>Node5</title>
<g id="a_Node000005"><a xlink:href="classCup.html" target="_top" xlink:title=" ">
<polygon fill="white" stroke="#666666" points="403.5,-471.99 368.5,-471.99 368.5,-452.99 403.5,-452.99 403.5,-471.99"/>
<text text-anchor="middle" x="386" y="-459.99" font-family="Helvetica,sans-Serif" font-size="10.00">Cup</text>
</a>
</g>
</g>
<!-- Node5&#45;&gt;Node2 -->
<g id="edge4_Node000002_Node000005" class="edge">
<title>Node5&#45;&gt;Node2</title>
<g id="a_edge4_Node000002_Node000005"><a xlink:title=" ">
<path fill="none" stroke="#9a32cd" stroke-dasharray="5,2" d="M413.68,-462.19C457.4,-460.24 544.49,-450.06 595,-401.49 625.78,-371.88 632.27,-317.26 633.64,-295.15"/>
<polygon fill="#9a32cd" stroke="#9a32cd" points="413.43,-458.69 403.55,-462.52 413.66,-465.69 413.43,-458.69"/>
</a>
</g>
<text text-anchor="middle" x="539" y="-455.49" font-family="Helvetica,sans-Serif" font-size="10.00" fill="grey"> CurrentCup</text>
</g>
<!-- Node6 -->
<g id="Node000006" class="node">
<title>Node6</title>
<g id="a_Node000006"><a xlink:title=" ">
<polygon fill="white" stroke="#666666" points="162.5,-521.99 118.5,-521.99 118.5,-502.99 162.5,-502.99 162.5,-521.99"/>
<text text-anchor="middle" x="140.5" y="-509.99" font-family="Helvetica,sans-Serif" font-size="10.00">string</text>
</a>
</g>
</g>
<!-- Node6&#45;&gt;Node5 -->
<g id="edge5_Node000005_Node000006" class="edge">
<title>Node6&#45;&gt;Node5</title>
<g id="a_edge5_Node000005_Node000006"><a xlink:title=" ">
<path fill="none" stroke="#9a32cd" stroke-dasharray="5,2" d="M172.82,-507.26C202.74,-502.15 249.07,-493.92 289,-485.49 317,-479.57 349.32,-471.59 368.41,-466.75"/>
<polygon fill="#9a32cd" stroke="#9a32cd" points="171.85,-503.87 162.58,-509 173.02,-510.77 171.85,-503.87"/>
</a>
</g>
<text text-anchor="middle" x="252" y="-502.49" font-family="Helvetica,sans-Serif" font-size="10.00" fill="grey"> Id</text>
</g>
<!-- Node7 -->
<g id="Node000007" class="node">
<title>Node7</title>
<g id="a_Node000007"><a xlink:title=" ">
<polygon fill="white" stroke="#666666" points="178,-484.99 103,-484.99 103,-465.99 178,-465.99 178,-484.99"/>
<text text-anchor="middle" x="140.5" y="-472.99" font-family="Helvetica,sans-Serif" font-size="10.00">const char *</text>
</a>
</g>
</g>
<!-- Node7&#45;&gt;Node5 -->
<g id="edge6_Node000005_Node000007" class="edge">
<title>Node7&#45;&gt;Node5</title>
<g id="a_edge6_Node000005_Node000007"><a xlink:title=" ">
<path fill="none" stroke="#9a32cd" stroke-dasharray="5,2" d="M188.43,-472.98C243.51,-470.04 331.96,-465.32 368.44,-463.37"/>
<polygon fill="#9a32cd" stroke="#9a32cd" points="188.02,-469.5 178.22,-473.52 188.39,-476.49 188.02,-469.5"/>
</a>
</g>
<text text-anchor="middle" x="252" y="-473.49" font-family="Helvetica,sans-Serif" font-size="10.00" fill="grey"> Name</text>
</g>
<!-- Node8 -->
<g id="Node000008" class="node">
<title>Node8</title>
<g id="a_Node000008"><a xlink:title=" ">
<polygon fill="white" stroke="#666666" points="155,-447.99 126,-447.99 126,-428.99 155,-428.99 155,-447.99"/>
<text text-anchor="middle" x="140.5" y="-435.99" font-family="Helvetica,sans-Serif" font-size="10.00">u8</text>
</a>
</g>
</g>
<!-- Node8&#45;&gt;Node5 -->
<g id="edge7_Node000005_Node000008" class="edge">
<title>Node8&#45;&gt;Node5</title>
<g id="a_edge7_Node000005_Node000008"><a xlink:title=" ">
<path fill="none" stroke="#9a32cd" stroke-dasharray="5,2" d="M165.39,-440.69C194.57,-443.39 245.42,-448.15 289,-452.49 316.85,-455.26 349.21,-458.67 368.36,-460.7"/>
<polygon fill="#9a32cd" stroke="#9a32cd" points="165.61,-437.19 155.33,-439.76 164.97,-444.16 165.61,-437.19"/>
</a>
</g>
<text text-anchor="middle" x="252" y="-455.49" font-family="Helvetica,sans-Serif" font-size="10.00" fill="grey"> Thumbnail</text>
</g>
<!-- Node9 -->
<g id="Node000009" class="node">
<title>Node9</title>
<g id="a_Node000009"><a xlink:title=" ">
<polygon fill="white" stroke="#666666" points="163,-397.99 118,-397.99 118,-378.99 163,-378.99 163,-397.99"/>
<text text-anchor="middle" x="140.5" y="-385.99" font-family="Helvetica,sans-Serif" font-size="10.00">size_t</text>
</a>
</g>
</g>
<!-- Node9&#45;&gt;Node2 -->
<g id="edge11_Node000002_Node000009" class="edge">
<title>Node9&#45;&gt;Node2</title>
<g id="a_edge11_Node000002_Node000009"><a xlink:title=" ">
<path fill="none" stroke="#9a32cd" stroke-dasharray="5,2" d="M173.39,-389.49C264.61,-391.82 524.59,-394.33 595,-350.49 615.33,-337.82 626.47,-310.31 631.2,-295.47"/>
<polygon fill="#9a32cd" stroke="#9a32cd" points="173.22,-385.99 163.13,-389.22 173.03,-392.99 173.22,-385.99"/>
</a>
</g>
<text text-anchor="middle" x="386" y="-403.49" font-family="Helvetica,sans-Serif" font-size="10.00" fill="grey"> CourseIndex</text>
<text text-anchor="middle" x="386" y="-392.49" font-family="Helvetica,sans-Serif" font-size="10.00" fill="grey">CupIndex</text>
</g>
<!-- Node9&#45;&gt;Node5 -->
<g id="edge8_Node000005_Node000009" class="edge">
<title>Node9&#45;&gt;Node5</title>
<g id="a_edge8_Node000005_Node000009"><a xlink:title=" ">
<path fill="none" stroke="#9a32cd" stroke-dasharray="5,2" d="M173,-396.65C202.97,-404.57 249.27,-417.15 289,-429.49 317.11,-438.21 349.4,-449.6 368.45,-456.46"/>
<polygon fill="#9a32cd" stroke="#9a32cd" points="173.68,-393.21 163.11,-394.06 171.9,-399.98 173.68,-393.21"/>
</a>
</g>
<text text-anchor="middle" x="252" y="-432.49" font-family="Helvetica,sans-Serif" font-size="10.00" fill="grey"> CursorPosition</text>
</g>
<!-- Node10 -->
<g id="Node000010" class="node">
<title>Node10</title>
<g id="a_Node000010"><a xlink:title=" ">
<polygon fill="white" stroke="#666666" points="197,-577.49 84,-577.49 84,-547.49 197,-547.49 197,-577.49"/>
<text text-anchor="start" x="92" y="-565.49" font-family="Helvetica,sans-Serif" font-size="10.00">vector&lt; std::shared</text>
<text text-anchor="middle" x="140.5" y="-554.49" font-family="Helvetica,sans-Serif" font-size="10.00">_ptr&lt; Course &gt; &gt;</text>
</a>
</g>
</g>
<!-- Node10&#45;&gt;Node2 -->
<g id="edge24_Node000002_Node000010" class="edge">
<title>Node10&#45;&gt;Node2</title>
<g id="a_edge24_Node000002_Node000010"><a xlink:title=" ">
<path fill="none" stroke="#9a32cd" stroke-dasharray="5,2" d="M207.35,-570.02C306.92,-577.39 494.81,-574.83 595,-467.49 618.92,-441.85 630.31,-328.9 633.23,-295.09"/>
<polygon fill="#9a32cd" stroke="#9a32cd" points="207.36,-566.51 197.11,-569.21 206.8,-573.49 207.36,-566.51"/>
</a>
</g>
<text text-anchor="middle" x="386" y="-574.49" font-family="Helvetica,sans-Serif" font-size="10.00" fill="grey"> Courses</text>
</g>
<!-- Node10&#45;&gt;Node5 -->
<g id="edge9_Node000005_Node000010" class="edge">
<title>Node10&#45;&gt;Node5</title>
<g id="a_edge9_Node000005_Node000010"><a xlink:title=" ">
<path fill="none" stroke="#9a32cd" stroke-dasharray="5,2" d="M205.47,-544.45C231.75,-536.33 262.23,-525.98 289,-514.49 318.44,-501.85 350.84,-483.23 369.47,-472.04"/>
<polygon fill="#9a32cd" stroke="#9a32cd" points="204.16,-541.19 195.62,-547.45 206.2,-547.89 204.16,-541.19"/>
</a>
</g>
<text text-anchor="middle" x="252" y="-543.49" font-family="Helvetica,sans-Serif" font-size="10.00" fill="grey"> Courses</text>
</g>
<!-- Node11 -->
<g id="Node000011" class="node">
<title>Node11</title>
<g id="a_Node000011"><a xlink:title=" ">
<polygon fill="white" stroke="#666666" points="434.5,-350.99 337.5,-350.99 337.5,-331.99 434.5,-331.99 434.5,-350.99"/>
<text text-anchor="middle" x="386" y="-338.99" font-family="Helvetica,sans-Serif" font-size="10.00">vector&lt; Cup * &gt;</text>
</a>
</g>
</g>
<!-- Node11&#45;&gt;Node2 -->
<g id="edge10_Node000002_Node000011" class="edge">
<title>Node11&#45;&gt;Node2</title>
<g id="a_edge10_Node000002_Node000011"><a xlink:title=" ">
<path fill="none" stroke="#9a32cd" stroke-dasharray="5,2" d="M444.98,-339.97C487.69,-337.24 546.52,-330.04 595,-311.49 605.03,-307.64 615.09,-300.85 622.47,-295.17"/>
<polygon fill="#9a32cd" stroke="#9a32cd" points="444.54,-336.49 434.76,-340.56 444.94,-343.48 444.54,-336.49"/>
</a>
</g>
<text text-anchor="middle" x="539" y="-338.49" font-family="Helvetica,sans-Serif" font-size="10.00" fill="grey"> Cups</text>
</g>
<!-- Node12 -->
<g id="Node000012" class="node">
<title>Node12</title>
<g id="a_Node000012"><a xlink:title=" ">
<polygon fill="white" stroke="#666666" points="465,-313.99 307,-313.99 307,-294.99 465,-294.99 465,-313.99"/>
<text text-anchor="middle" x="386" y="-301.99" font-family="Helvetica,sans-Serif" font-size="10.00">vector&lt; StaticMeshActor * &gt;</text>
</a>
</g>
</g>
<!-- Node12&#45;&gt;Node2 -->
<g id="edge12_Node000002_Node000012" class="edge">
<title>Node12&#45;&gt;Node2</title>
<g id="a_edge12_Node000002_Node000012"><a xlink:title=" ">
<path fill="none" stroke="#9a32cd" stroke-dasharray="5,2" d="M475.27,-297.7C524.84,-293.88 582.67,-289.43 612.99,-287.1"/>
<polygon fill="#9a32cd" stroke="#9a32cd" points="474.85,-294.22 465.15,-298.47 475.39,-301.2 474.85,-294.22"/>
</a>
</g>
<text text-anchor="middle" x="539" y="-299.49" font-family="Helvetica,sans-Serif" font-size="10.00" fill="grey"> StaticMeshActors</text>
</g>
<!-- Node13 -->
<g id="Node000013" class="node">
<title>Node13</title>
<g id="a_Node000013"><a xlink:title=" ">
<polygon fill="white" stroke="#666666" points="441,-276.99 331,-276.99 331,-257.99 441,-257.99 441,-276.99"/>
<text text-anchor="middle" x="386" y="-264.99" font-family="Helvetica,sans-Serif" font-size="10.00">vector&lt; AActor * &gt;</text>
</a>
</g>
</g>
<!-- Node13&#45;&gt;Node2 -->
<g id="edge13_Node000002_Node000013" class="edge">
<title>Node13&#45;&gt;Node2</title>
<g id="a_edge13_Node000002_Node000013"><a xlink:title=" ">
<path fill="none" stroke="#9a32cd" stroke-dasharray="5,2" d="M451.57,-263.37C492.91,-262.05 547.52,-262.75 595,-271.49 600.94,-272.58 607.19,-274.46 612.89,-276.5"/>
<polygon fill="#9a32cd" stroke="#9a32cd" points="451.22,-259.88 441.35,-263.74 451.47,-266.87 451.22,-259.88"/>
</a>
</g>
<text text-anchor="middle" x="539" y="-274.49" font-family="Helvetica,sans-Serif" font-size="10.00" fill="grey"> Actors</text>
</g>
<!-- Node14 -->
<g id="Node000014" class="node">
<title>Node14</title>
<g id="a_Node000014"><a xlink:title=" ">
<polygon fill="white" stroke="#666666" points="444.5,-239.99 327.5,-239.99 327.5,-220.99 444.5,-220.99 444.5,-239.99"/>
<text text-anchor="middle" x="386" y="-227.99" font-family="Helvetica,sans-Serif" font-size="10.00">vector&lt; OObject * &gt;</text>
</a>
</g>
</g>
<!-- Node14&#45;&gt;Node2 -->
<g id="edge14_Node000002_Node000014" class="edge">
<title>Node14&#45;&gt;Node2</title>
<g id="a_edge14_Node000002_Node000014"><a xlink:title=" ">
<path fill="none" stroke="#9a32cd" stroke-dasharray="5,2" d="M454.94,-224.66C497.06,-223.75 551.28,-227.59 595,-247.49 608.6,-253.67 620.26,-266.7 627.21,-275.76"/>
<polygon fill="#9a32cd" stroke="#9a32cd" points="454.67,-221.16 444.78,-224.97 454.89,-228.16 454.67,-221.16"/>
</a>
</g>
<text text-anchor="middle" x="539" y="-250.49" font-family="Helvetica,sans-Serif" font-size="10.00" fill="grey"> Objects</text>
</g>
<!-- Node15 -->
<g id="Node000015" class="node">
<title>Node15</title>
<g id="a_Node000015"><a xlink:title=" ">
<polygon fill="white" stroke="#666666" points="461,-202.99 311,-202.99 311,-183.99 461,-183.99 461,-202.99"/>
<text text-anchor="middle" x="386" y="-190.99" font-family="Helvetica,sans-Serif" font-size="10.00">vector&lt; ParticleEmitter * &gt;</text>
</a>
</g>
</g>
<!-- Node15&#45;&gt;Node2 -->
<g id="edge15_Node000002_Node000015" class="edge">
<title>Node15&#45;&gt;Node2</title>
<g id="a_edge15_Node000002_Node000015"><a xlink:title=" ">
<path fill="none" stroke="#9a32cd" stroke-dasharray="5,2" d="M451.2,-183C495.22,-179.29 553.03,-181.58 595,-209.49 618.34,-225 628.48,-259.03 632.18,-275.78"/>
<polygon fill="#9a32cd" stroke="#9a32cd" points="450.8,-179.53 441.18,-183.97 451.47,-186.49 450.8,-179.53"/>
</a>
</g>
<text text-anchor="middle" x="539" y="-212.49" font-family="Helvetica,sans-Serif" font-size="10.00" fill="grey"> Emitters</text>
</g>
<!-- Node16 -->
<g id="Node000016" class="node">
<title>Node16</title>
<g id="a_Node000016"><a xlink:title=" ">
<polygon fill="white" stroke="#666666" points="448.5,-165.49 323.5,-165.49 323.5,-135.49 448.5,-135.49 448.5,-165.49"/>
<text text-anchor="start" x="331.5" y="-153.49" font-family="Helvetica,sans-Serif" font-size="10.00">unordered_map&lt; s32,</text>
<text text-anchor="middle" x="386" y="-142.49" font-family="Helvetica,sans-Serif" font-size="10.00"> OLakitu * &gt;</text>
</a>
</g>
</g>
<!-- Node16&#45;&gt;Node2 -->
<g id="edge16_Node000002_Node000016" class="edge">
<title>Node16&#45;&gt;Node2</title>
<g id="a_edge16_Node000002_Node000016"><a xlink:title=" ">
<path fill="none" stroke="#9a32cd" stroke-dasharray="5,2" d="M458.54,-137.43C502.34,-133.58 557.07,-136.72 595,-166.49 629.72,-193.73 633.9,-252.59 634.14,-275.8"/>
<polygon fill="#9a32cd" stroke="#9a32cd" points="458.11,-133.96 448.52,-138.45 458.82,-140.92 458.11,-133.96"/>
</a>
</g>
<text text-anchor="middle" x="539" y="-169.49" font-family="Helvetica,sans-Serif" font-size="10.00" fill="grey"> Lakitus</text>
</g>
<!-- Node17 -->
<g id="Node000017" class="node">
<title>Node17</title>
<g id="a_Node000017"><a xlink:href="classPlayerBombKart.html" target="_top" xlink:title=" ">
<polygon fill="white" stroke="#666666" points="434,-116.99 338,-116.99 338,-97.99 434,-97.99 434,-116.99"/>
<text text-anchor="middle" x="386" y="-104.99" font-family="Helvetica,sans-Serif" font-size="10.00">PlayerBombKart</text>
</a>
</g>
</g>
<!-- Node17&#45;&gt;Node2 -->
<g id="edge17_Node000002_Node000017" class="edge">
<title>Node17&#45;&gt;Node2</title>
<g id="a_edge17_Node000002_Node000017"><a xlink:title=" ">
<path fill="none" stroke="#9a32cd" stroke-dasharray="5,2" d="M433.42,-95.99C479.82,-87.46 550.51,-82.97 595,-120.49 619.19,-140.88 630.26,-243.4 633.18,-275.71"/>
<polygon fill="#9a32cd" stroke="#9a32cd" points="432.46,-92.61 423.33,-97.97 433.81,-99.48 432.46,-92.61"/>
</a>
</g>
<text text-anchor="middle" x="539" y="-123.49" font-family="Helvetica,sans-Serif" font-size="10.00" fill="grey"> playerBombKart</text>
</g>
<!-- Node18 -->
<g id="Node000018" class="node">
<title>Node18</title>
<g id="a_Node000018"><a xlink:title=" ">
<polygon fill="white" stroke="#666666" points="157.5,-98.99 123.5,-98.99 123.5,-79.99 157.5,-79.99 157.5,-98.99"/>
<text text-anchor="middle" x="140.5" y="-86.99" font-family="Helvetica,sans-Serif" font-size="10.00">s16</text>
</a>
</g>
</g>
<!-- Node18&#45;&gt;Node17 -->
<g id="edge18_Node000017_Node000018" class="edge">
<title>Node18&#45;&gt;Node17</title>
<g id="a_edge18_Node000017_Node000018"><a xlink:title=" ">
<path fill="none" stroke="#9a32cd" stroke-dasharray="5,2" d="M168.24,-89.27C197.83,-89.24 246.91,-89.86 289,-93.49 304.94,-94.86 322.27,-97.14 337.76,-99.47"/>
<polygon fill="#9a32cd" stroke="#9a32cd" points="167.89,-85.77 157.91,-89.3 167.92,-92.77 167.89,-85.77"/>
</a>
</g>
<text text-anchor="middle" x="252" y="-96.49" font-family="Helvetica,sans-Serif" font-size="10.00" fill="grey"> state</text>
</g>
<!-- Node19 -->
<g id="Node000019" class="node">
<title>Node19</title>
<g id="a_Node000019"><a xlink:href="structFVector.html" target="_top" xlink:title=" ">
<polygon fill="white" stroke="#666666" points="167,-61.99 114,-61.99 114,-42.99 167,-42.99 167,-61.99"/>
<text text-anchor="middle" x="140.5" y="-49.99" font-family="Helvetica,sans-Serif" font-size="10.00">FVector</text>
</a>
</g>
</g>
<!-- Node19&#45;&gt;Node17 -->
<g id="edge19_Node000017_Node000019" class="edge">
<title>Node19&#45;&gt;Node17</title>
<g id="a_edge19_Node000017_Node000019"><a xlink:title=" ">
<path fill="none" stroke="#9a32cd" stroke-dasharray="5,2" d="M177.34,-52.78C208.1,-54.2 253.02,-59.08 289,-74.49 298.32,-78.47 297.87,-84.08 307,-88.49 316.54,-93.09 327.29,-96.64 337.69,-99.35"/>
<polygon fill="#9a32cd" stroke="#9a32cd" points="177.21,-49.27 167.09,-52.41 176.96,-56.27 177.21,-49.27"/>
</a>
</g>
<text text-anchor="middle" x="252" y="-77.49" font-family="Helvetica,sans-Serif" font-size="10.00" fill="grey"> pos</text>
</g>
<!-- Node20 -->
<g id="Node000020" class="node">
<title>Node20</title>
<g id="a_Node000020"><a xlink:title=" ">
<polygon fill="white" stroke="#666666" points="38,-61.99 0,-61.99 0,-42.99 38,-42.99 38,-61.99"/>
<text text-anchor="middle" x="19" y="-49.99" font-family="Helvetica,sans-Serif" font-size="10.00">float</text>
</a>
</g>
</g>
<!-- Node20&#45;&gt;Node19 -->
<g id="edge20_Node000019_Node000020" class="edge">
<title>Node20&#45;&gt;Node19</title>
<g id="a_edge20_Node000019_Node000020"><a xlink:title=" ">
<path fill="none" stroke="#9a32cd" stroke-dasharray="5,2" d="M48.41,-52.49C68.2,-52.49 94.41,-52.49 113.63,-52.49"/>
<polygon fill="#9a32cd" stroke="#9a32cd" points="48.15,-48.99 38.15,-52.49 48.15,-55.99 48.15,-48.99"/>
</a>
</g>
<text text-anchor="middle" x="61" y="-77.49" font-family="Helvetica,sans-Serif" font-size="10.00" fill="grey"> x</text>
<text text-anchor="middle" x="61" y="-66.49" font-family="Helvetica,sans-Serif" font-size="10.00" fill="grey">y</text>
<text text-anchor="middle" x="61" y="-55.49" font-family="Helvetica,sans-Serif" font-size="10.00" fill="grey">z</text>
</g>
<!-- Node21 -->
<g id="Node000021" class="node">
<title>Node21</title>
<g id="a_Node000021"><a xlink:title=" ">
<polygon fill="white" stroke="#666666" points="156.5,-172.99 124.5,-172.99 124.5,-153.99 156.5,-153.99 156.5,-172.99"/>
<text text-anchor="middle" x="140.5" y="-160.99" font-family="Helvetica,sans-Serif" font-size="10.00">f32</text>
</a>
</g>
</g>
<!-- Node21&#45;&gt;Node17 -->
<g id="edge21_Node000017_Node000021" class="edge">
<title>Node21&#45;&gt;Node17</title>
<g id="a_edge21_Node000017_Node000021"><a xlink:title=" ">
<path fill="none" stroke="#9a32cd" stroke-dasharray="5,2" d="M166.81,-160.27C196.54,-156.09 247.11,-147.73 289,-134.49 297.35,-131.85 298.71,-129.31 307,-126.49 317.42,-122.93 328.84,-119.76 339.65,-117.08"/>
<polygon fill="#9a32cd" stroke="#9a32cd" points="166.3,-156.81 156.86,-161.62 167.24,-163.74 166.3,-156.81"/>
</a>
</g>
<text text-anchor="middle" x="252" y="-154.49" font-family="Helvetica,sans-Serif" font-size="10.00" fill="grey"> surfaceHeight</text>
</g>
<!-- Node22 -->
<g id="Node000022" class="node">
<title>Node22</title>
<g id="a_Node000022"><a xlink:title=" ">
<polygon fill="white" stroke="#666666" points="157.5,-135.99 123.5,-135.99 123.5,-116.99 157.5,-116.99 157.5,-135.99"/>
<text text-anchor="middle" x="140.5" y="-123.99" font-family="Helvetica,sans-Serif" font-size="10.00">s32</text>
</a>
</g>
</g>
<!-- Node22&#45;&gt;Node17 -->
<g id="edge22_Node000017_Node000022" class="edge">
<title>Node22&#45;&gt;Node17</title>
<g id="a_edge22_Node000017_Node000022"><a xlink:title=" ">
<path fill="none" stroke="#9a32cd" stroke-dasharray="5,2" d="M168.04,-124.41C208.7,-121.24 287.02,-115.13 337.59,-111.18"/>
<polygon fill="#9a32cd" stroke="#9a32cd" points="167.55,-120.94 157.85,-125.21 168.1,-127.92 167.55,-120.94"/>
</a>
</g>
<text text-anchor="middle" x="252" y="-122.49" font-family="Helvetica,sans-Serif" font-size="10.00" fill="grey"> _primAlpha</text>
</g>
<!-- Node23 -->
<g id="Node000023" class="node">
<title>Node23</title>
<g id="a_Node000023"><a xlink:title=" ">
<polygon fill="white" stroke="#666666" points="453,-79.49 319,-79.49 319,-49.49 453,-49.49 453,-79.49"/>
<text text-anchor="start" x="327" y="-67.49" font-family="Helvetica,sans-Serif" font-size="10.00">vector&lt; std::shared</text>
<text text-anchor="middle" x="386" y="-56.49" font-family="Helvetica,sans-Serif" font-size="10.00">_ptr&lt; TrainCrossing &gt; &gt;</text>
</a>
</g>
</g>
<!-- Node23&#45;&gt;Node2 -->
<g id="edge23_Node000002_Node000023" class="edge">
<title>Node23&#45;&gt;Node2</title>
<g id="a_edge23_Node000002_Node000023"><a xlink:title=" ">
<path fill="none" stroke="#9a32cd" stroke-dasharray="5,2" d="M455.74,-47.85C500.65,-41.33 557.66,-41.87 595,-74.49 625.86,-101.44 632.48,-237.9 633.73,-275.74"/>
<polygon fill="#9a32cd" stroke="#9a32cd" points="455.1,-44.41 445.78,-49.45 456.2,-51.32 455.1,-44.41"/>
</a>
</g>
<text text-anchor="middle" x="539" y="-77.49" font-family="Helvetica,sans-Serif" font-size="10.00" fill="grey"> Crossings</text>
</g>
<!-- Node24 -->
<g id="Node000024" class="node">
<title>Node24</title>
<g id="a_Node000024"><a xlink:title=" ">
<polygon fill="white" stroke="#666666" points="465,-30.99 307,-30.99 307,-11.99 465,-11.99 465,-30.99"/>
<text text-anchor="middle" x="386" y="-18.99" font-family="Helvetica,sans-Serif" font-size="10.00">unique_ptr&lt; RaceManager &gt;</text>
</a>
</g>
</g>
<!-- Node24&#45;&gt;Node2 -->
<g id="edge25_Node000002_Node000024" class="edge">
<title>Node24&#45;&gt;Node2</title>
<g id="a_edge25_Node000002_Node000024"><a xlink:title=" ">
<path fill="none" stroke="#9a32cd" stroke-dasharray="5,2" d="M428.07,-9.51C474.62,1.3 549.88,9.99 595,-30.49 632.26,-63.9 634.19,-233.33 634.08,-275.81"/>
<polygon fill="#9a32cd" stroke="#9a32cd" points="427.18,-6.12 418.31,-11.91 428.85,-12.92 427.18,-6.12"/>
</a>
</g>
<text text-anchor="middle" x="539" y="-33.49" font-family="Helvetica,sans-Serif" font-size="10.00" fill="grey"> RaceManagerInstance</text>
</g>
</g>
</svg>
