<?xml version="1.0" encoding="UTF-8" standalone="no"?>
<!DOCTYPE svg PUBLIC "-//W3C//DTD SVG 1.1//EN"
 "http://www.w3.org/Graphics/SVG/1.1/DTD/svg11.dtd">
<!-- Generated by graphviz version 2.43.0 (0)
 -->
<!-- Title: OBat::Spawn Pages: 1 -->
<svg width="358pt" height="101pt"
 viewBox="0.00 0.00 358.00 101.00" xmlns="http://www.w3.org/2000/svg" xmlns:xlink="http://www.w3.org/1999/xlink">
<g id="graph0" class="graph" transform="scale(1 1) rotate(0) translate(4 97)">
<title>OBat::Spawn</title>
<!-- Node1 -->
<g id="Node000001" class="node">
<title>Node1</title>
<g id="a_Node000001"><a xlink:title=" ">
<polygon fill="#999999" stroke="#666666" points="79,-56 0,-56 0,-37 79,-37 79,-56"/>
<text text-anchor="middle" x="39.5" y="-44" font-family="Helvetica,sans-Serif" font-size="10.00">OBat::Spawn</text>
</a>
</g>
</g>
<!-- Node2 -->
<g id="Node000002" class="node">
<title>Node2</title>
<g id="a_Node000002"><a xlink:href="classOBat.html#aee0246fa1a7cd2b1fc23c18cdbf75256" target="_top" xlink:title=" ">
<polygon fill="white" stroke="#666666" points="186,-56 115,-56 115,-37 186,-37 186,-56"/>
<text text-anchor="middle" x="150.5" y="-44" font-family="Helvetica,sans-Serif" font-size="10.00">OBat::OBat</text>
</a>
</g>
</g>
<!-- Node1&#45;&gt;Node2 -->
<g id="edge1_Node000001_Node000002" class="edge">
<title>Node1&#45;&gt;Node2</title>
<g id="a_edge1_Node000001_Node000002"><a xlink:title=" ">
<path fill="none" stroke="#63b8ff" d="M79.24,-46.5C87.5,-46.5 96.3,-46.5 104.77,-46.5"/>
<polygon fill="#63b8ff" stroke="#63b8ff" points="104.88,-50 114.88,-46.5 104.88,-43 104.88,-50"/>
</a>
</g>
</g>
<!-- Node3 -->
<g id="Node000003" class="node">
<title>Node3</title>
<g id="a_Node000003"><a xlink:href="update__objects_8c.html#a92856990c4ca5fba1b8e0c61ca832c27" target="_top" xlink:title=" ">
<polygon fill="white" stroke="#666666" points="350,-93 222,-93 222,-74 350,-74 350,-93"/>
<text text-anchor="middle" x="286" y="-81" font-family="Helvetica,sans-Serif" font-size="10.00">find_unused_obj_index</text>
</a>
</g>
</g>
<!-- Node2&#45;&gt;Node3 -->
<g id="edge2_Node000002_Node000003" class="edge">
<title>Node2&#45;&gt;Node3</title>
<g id="a_edge2_Node000002_Node000003"><a xlink:title=" ">
<path fill="none" stroke="#63b8ff" d="M185.88,-56.03C202.41,-60.61 222.44,-66.16 240.15,-71.07"/>
<polygon fill="#63b8ff" stroke="#63b8ff" points="239.7,-74.58 250.27,-73.88 241.57,-67.83 239.7,-74.58"/>
</a>
</g>
</g>
<!-- Node4 -->
<g id="Node000004" class="node">
<title>Node4</title>
<g id="a_Node000004"><a xlink:href="update__objects_8c.html#add0bf98084e3359319c40487d800d428" target="_top" xlink:title=" ">
<polygon fill="white" stroke="#666666" points="340,-56 232,-56 232,-37 340,-37 340,-56"/>
<text text-anchor="middle" x="286" y="-44" font-family="Helvetica,sans-Serif" font-size="10.00">init_texture_object</text>
</a>
</g>
</g>
<!-- Node2&#45;&gt;Node4 -->
<g id="edge3_Node000002_Node000004" class="edge">
<title>Node2&#45;&gt;Node4</title>
<g id="a_edge3_Node000002_Node000004"><a xlink:title=" ">
<path fill="none" stroke="#63b8ff" d="M186.23,-46.5C197.09,-46.5 209.44,-46.5 221.64,-46.5"/>
<polygon fill="#63b8ff" stroke="#63b8ff" points="221.81,-50 231.81,-46.5 221.81,-43 221.81,-50"/>
</a>
</g>
</g>
<!-- Node5 -->
<g id="Node000005" class="node">
<title>Node5</title>
<g id="a_Node000005"><a xlink:href="classOObject.html#a629d0dcbb210e289cdf541a91321c86b" target="_top" xlink:title=" ">
<polygon fill="white" stroke="#666666" points="336.5,-19 235.5,-19 235.5,0 336.5,0 336.5,-19"/>
<text text-anchor="middle" x="286" y="-7" font-family="Helvetica,sans-Serif" font-size="10.00">OObject::OObject</text>
</a>
</g>
</g>
<!-- Node2&#45;&gt;Node5 -->
<g id="edge4_Node000002_Node000005" class="edge">
<title>Node2&#45;&gt;Node5</title>
<g id="a_edge4_Node000002_Node000005"><a xlink:title=" ">
<path fill="none" stroke="#63b8ff" d="M185.88,-36.97C202.41,-32.39 222.44,-26.84 240.15,-21.93"/>
<polygon fill="#63b8ff" stroke="#63b8ff" points="241.57,-25.17 250.27,-19.12 239.7,-18.42 241.57,-25.17"/>
</a>
</g>
</g>
</g>
</svg>
