<?xml version="1.0" encoding="UTF-8" standalone="no"?>
<!DOCTYPE svg PUBLIC "-//W3C//DTD SVG 1.1//EN"
 "http://www.w3.org/Graphics/SVG/1.1/DTD/svg11.dtd">
<!-- Generated by graphviz version 2.43.0 (0)
 -->
<!-- Title: ATrain::ATrain Pages: 1 -->
<svg width="1583pt" height="338pt"
 viewBox="0.00 0.00 1583.00 338.00" xmlns="http://www.w3.org/2000/svg" xmlns:xlink="http://www.w3.org/1999/xlink">
<g id="graph0" class="graph" transform="scale(1 1) rotate(0) translate(4 334)">
<title>ATrain::ATrain</title>
<!-- Node1 -->
<g id="Node000001" class="node">
<title>Node1</title>
<g id="a_Node000001"><a xlink:title=" ">
<polygon fill="#999999" stroke="#666666" points="81,-197 0,-197 0,-178 81,-178 81,-197"/>
<text text-anchor="middle" x="40.5" y="-185" font-family="Helvetica,sans-Serif" font-size="10.00">ATrain::ATrain</text>
</a>
</g>
</g>
<!-- Node2 -->
<g id="Node000002" class="node">
<title>Node2</title>
<g id="a_Node000002"><a xlink:href="classAActor.html#a679c43bacf3600fa2d7a6ab30e34a8a6" target="_top" xlink:title=" ">
<polygon fill="white" stroke="#666666" points="245,-293 158,-293 158,-274 245,-274 245,-293"/>
<text text-anchor="middle" x="201.5" y="-281" font-family="Helvetica,sans-Serif" font-size="10.00">AActor::AActor</text>
</a>
</g>
</g>
<!-- Node1&#45;&gt;Node2 -->
<g id="edge1_Node000001_Node000002" class="edge">
<title>Node1&#45;&gt;Node2</title>
<g id="a_edge1_Node000001_Node000002"><a xlink:title=" ">
<path fill="none" stroke="#63b8ff" d="M47.91,-197.18C59.55,-213.93 85.86,-248.2 117,-265.5 126.33,-270.68 137.02,-274.38 147.56,-277"/>
<polygon fill="#63b8ff" stroke="#63b8ff" points="147.06,-280.48 157.58,-279.21 148.56,-273.64 147.06,-280.48"/>
</a>
</g>
</g>
<!-- Node3 -->
<g id="Node000003" class="node">
<title>Node3</title>
<g id="a_Node000003"><a xlink:href="actors_8c.html#a91fb2e4e37e7c72fea918fe2c1bb4eaf" target="_top" xlink:title=" ">
<polygon fill="white" stroke="#666666" points="271.5,-256 131.5,-256 131.5,-237 271.5,-237 271.5,-256"/>
<text text-anchor="middle" x="201.5" y="-244" font-family="Helvetica,sans-Serif" font-size="10.00">add_actor_to_empty_slot</text>
</a>
</g>
</g>
<!-- Node1&#45;&gt;Node3 -->
<g id="edge2_Node000001_Node000003" class="edge">
<title>Node1&#45;&gt;Node3</title>
<g id="a_edge2_Node000001_Node000003"><a xlink:title=" ">
<path fill="none" stroke="#63b8ff" d="M56.23,-197.15C71.02,-206.44 94.76,-220.26 117,-228.5 122.93,-230.7 129.2,-232.66 135.54,-234.41"/>
<polygon fill="#63b8ff" stroke="#63b8ff" points="134.95,-237.88 145.51,-236.99 136.7,-231.1 134.95,-237.88"/>
</a>
</g>
</g>
<!-- Node29 -->
<g id="Node000029" class="node">
<title>Node29</title>
<g id="a_Node000029"><a xlink:href="Utils_8cpp.html#aeaf9fffe1458c3ce2a95a80906db76c3" target="_top" xlink:title=" ">
<polygon fill="white" stroke="#666666" points="286,-219 117,-219 117,-200 286,-200 286,-219"/>
<text text-anchor="middle" x="201.5" y="-207" font-family="Helvetica,sans-Serif" font-size="10.00">GetVehiclePathPointDistributed</text>
</a>
</g>
</g>
<!-- Node1&#45;&gt;Node29 -->
<g id="edge28_Node000001_Node000029" class="edge">
<title>Node1&#45;&gt;Node29</title>
<g id="a_edge28_Node000001_Node000029"><a xlink:title=" ">
<path fill="none" stroke="#63b8ff" d="M81.21,-192.99C93.5,-194.69 107.49,-196.63 121.47,-198.57"/>
<polygon fill="#63b8ff" stroke="#63b8ff" points="121.23,-202.07 131.62,-199.97 122.19,-195.13 121.23,-202.07"/>
</a>
</g>
</g>
<!-- Node30 -->
<g id="Node000030" class="node">
<title>Node30</title>
<g id="a_Node000030"><a xlink:href="code__80005FD0_8c.html#a905c0b4107a7a9717f49b4efcaacad4e" target="_top" xlink:title=" ">
<polygon fill="white" stroke="#666666" points="262.5,-181.5 140.5,-181.5 140.5,-151.5 262.5,-151.5 262.5,-181.5"/>
<text text-anchor="start" x="148.5" y="-169.5" font-family="Helvetica,sans-Serif" font-size="10.00">set_vehicle_pos_path</text>
<text text-anchor="middle" x="201.5" y="-158.5" font-family="Helvetica,sans-Serif" font-size="10.00">_point</text>
</a>
</g>
</g>
<!-- Node1&#45;&gt;Node30 -->
<g id="edge29_Node000001_Node000030" class="edge">
<title>Node1&#45;&gt;Node30</title>
<g id="a_edge29_Node000001_Node000030"><a xlink:title=" ">
<path fill="none" stroke="#63b8ff" d="M81.21,-182.25C95.99,-180.3 113.24,-178.03 129.95,-175.82"/>
<polygon fill="#63b8ff" stroke="#63b8ff" points="130.81,-179.24 140.26,-174.46 129.89,-172.3 130.81,-179.24"/>
</a>
</g>
</g>
<!-- Node33 -->
<g id="Node000033" class="node">
<title>Node33</title>
<g id="a_Node000033"><a xlink:href="code__80005FD0_8c.html#a777de4239351e9266f8b367ce46cb936" target="_top" xlink:title=" ">
<polygon fill="white" stroke="#666666" points="285.5,-133 117.5,-133 117.5,-114 285.5,-114 285.5,-133"/>
<text text-anchor="middle" x="201.5" y="-121" font-family="Helvetica,sans-Serif" font-size="10.00">update_vehicle_following_path</text>
</a>
</g>
</g>
<!-- Node1&#45;&gt;Node33 -->
<g id="edge32_Node000001_Node000033" class="edge">
<title>Node1&#45;&gt;Node33</title>
<g id="a_edge32_Node000001_Node000033"><a xlink:title=" ">
<path fill="none" stroke="#63b8ff" d="M54.74,-177.84C69.32,-167.65 93.77,-151.8 117,-142.5 123.4,-139.94 130.22,-137.68 137.1,-135.71"/>
<polygon fill="#63b8ff" stroke="#63b8ff" points="138.42,-138.97 147.17,-133 136.61,-132.21 138.42,-138.97"/>
</a>
</g>
</g>
<!-- Node40 -->
<g id="Node000040" class="node">
<title>Node40</title>
<g id="a_Node000040"><a xlink:href="math__util_8c.html#a9092c945c52b3a3481228b2724991e3c" target="_top" xlink:title=" ">
<polygon fill="white" stroke="#666666" points="234,-96 169,-96 169,-77 234,-77 234,-96"/>
<text text-anchor="middle" x="201.5" y="-84" font-family="Helvetica,sans-Serif" font-size="10.00">vec3s_set</text>
</a>
</g>
</g>
<!-- Node1&#45;&gt;Node40 -->
<g id="edge41_Node000001_Node000040" class="edge">
<title>Node1&#45;&gt;Node40</title>
<g id="a_edge41_Node000001_Node000040"><a xlink:title=" ">
<path fill="none" stroke="#63b8ff" d="M47.45,-177.91C58.73,-160.56 85.02,-124.03 117,-105.5 129.63,-98.18 144.85,-93.68 158.82,-90.92"/>
<polygon fill="#63b8ff" stroke="#63b8ff" points="159.46,-94.36 168.72,-89.19 158.26,-87.46 159.46,-94.36"/>
</a>
</g>
</g>
<!-- Node4 -->
<g id="Node000004" class="node">
<title>Node4</title>
<g id="a_Node000004"><a xlink:href="actors_8c.html#a39c023177b5a7686cdd1fc65b8b953e1" target="_top" xlink:title=" ">
<polygon fill="white" stroke="#666666" points="422.5,-219 360.5,-219 360.5,-200 422.5,-200 422.5,-219"/>
<text text-anchor="middle" x="391.5" y="-207" font-family="Helvetica,sans-Serif" font-size="10.00">actor_init</text>
</a>
</g>
</g>
<!-- Node3&#45;&gt;Node4 -->
<g id="edge3_Node000003_Node000004" class="edge">
<title>Node3&#45;&gt;Node4</title>
<g id="a_edge3_Node000003_Node000004"><a xlink:title=" ">
<path fill="none" stroke="#63b8ff" d="M250.91,-236.97C281.86,-230.88 321.51,-223.08 350.64,-217.35"/>
<polygon fill="#63b8ff" stroke="#63b8ff" points="351.33,-220.78 360.47,-215.41 349.98,-213.91 351.33,-220.78"/>
</a>
</g>
</g>
<!-- Node26 -->
<g id="Node000026" class="node">
<title>Node26</title>
<g id="a_Node000026"><a xlink:href="Game_8cpp.html#acea5cfd9ab22f745bd6627869b95a62e" target="_top" xlink:title=" ">
<polygon fill="white" stroke="#666666" points="447.5,-330 335.5,-330 335.5,-311 447.5,-311 447.5,-330"/>
<text text-anchor="middle" x="391.5" y="-318" font-family="Helvetica,sans-Serif" font-size="10.00">CM_ActorBeginPlay</text>
</a>
</g>
</g>
<!-- Node3&#45;&gt;Node26 -->
<g id="edge25_Node000003_Node000026" class="edge">
<title>Node3&#45;&gt;Node26</title>
<g id="a_edge25_Node000003_Node000026"><a xlink:title=" ">
<path fill="none" stroke="#63b8ff" d="M263.78,-256.12C271.52,-258.57 279.13,-261.64 286,-265.5 306.01,-276.73 302.18,-290.94 322,-302.5 325.01,-304.26 328.2,-305.85 331.48,-307.28"/>
<polygon fill="#63b8ff" stroke="#63b8ff" points="330.34,-310.59 340.93,-310.94 332.87,-304.06 330.34,-310.59"/>
</a>
</g>
</g>
<!-- Node27 -->
<g id="Node000027" class="node">
<title>Node27</title>
<g id="a_Node000027"><a xlink:href="Game_8cpp.html#a42f23077aaa52cb3ea5c7803b7dd6816" target="_top" xlink:title=" ">
<polygon fill="white" stroke="#666666" points="444.5,-293 338.5,-293 338.5,-274 444.5,-274 444.5,-293"/>
<text text-anchor="middle" x="391.5" y="-281" font-family="Helvetica,sans-Serif" font-size="10.00">CM_AddBaseActor</text>
</a>
</g>
</g>
<!-- Node3&#45;&gt;Node27 -->
<g id="edge26_Node000003_Node000027" class="edge">
<title>Node3&#45;&gt;Node27</title>
<g id="a_edge26_Node000003_Node000027"><a xlink:title=" ">
<path fill="none" stroke="#63b8ff" d="M250.91,-256.03C275.6,-260.89 305.82,-266.83 331.81,-271.95"/>
<polygon fill="#63b8ff" stroke="#63b8ff" points="331.44,-275.44 341.92,-273.94 332.79,-268.57 331.44,-275.44"/>
</a>
</g>
</g>
<!-- Node28 -->
<g id="Node000028" class="node">
<title>Node28</title>
<g id="a_Node000028"><a xlink:href="Game_8cpp.html#a0841ffe9a66e95aca42438b9d8ffc3d3" target="_top" xlink:title=" ">
<polygon fill="white" stroke="#666666" points="442,-256 341,-256 341,-237 442,-237 442,-256"/>
<text text-anchor="middle" x="391.5" y="-244" font-family="Helvetica,sans-Serif" font-size="10.00">CM_GetActorSize</text>
</a>
</g>
</g>
<!-- Node3&#45;&gt;Node28 -->
<g id="edge27_Node000003_Node000028" class="edge">
<title>Node3&#45;&gt;Node28</title>
<g id="a_edge27_Node000003_Node000028"><a xlink:title=" ">
<path fill="none" stroke="#63b8ff" d="M271.7,-246.5C291.05,-246.5 311.9,-246.5 330.66,-246.5"/>
<polygon fill="#63b8ff" stroke="#63b8ff" points="330.84,-250 340.84,-246.5 330.84,-243 330.84,-250"/>
</a>
</g>
</g>
<!-- Node5 -->
<g id="Node000005" class="node">
<title>Node5</title>
<g id="a_Node000005"><a xlink:href="collision_8c.html#a37aa55b3768d001533ad75e7f1b8388a" target="_top" xlink:title=" ">
<polygon fill="white" stroke="#666666" points="638,-192 497,-192 497,-173 638,-173 638,-192"/>
<text text-anchor="middle" x="567.5" y="-180" font-family="Helvetica,sans-Serif" font-size="10.00">check_bounding_collision</text>
</a>
</g>
</g>
<!-- Node4&#45;&gt;Node5 -->
<g id="edge4_Node000004_Node000005" class="edge">
<title>Node4&#45;&gt;Node5</title>
<g id="a_edge4_Node000004_Node000005"><a xlink:title=" ">
<path fill="none" stroke="#63b8ff" d="M422.81,-204.8C442.84,-201.69 469.96,-197.48 495.25,-193.56"/>
<polygon fill="#63b8ff" stroke="#63b8ff" points="495.86,-197 505.21,-192.01 494.79,-190.09 495.86,-197"/>
</a>
</g>
</g>
<!-- Node9 -->
<g id="Node000009" class="node">
<title>Node9</title>
<g id="a_Node000009"><a xlink:href="actors_8c.html#a1a9bccb586242555a9123ebd4ab70f2a" target="_top" xlink:title=" ">
<polygon fill="white" stroke="#666666" points="633.5,-116.5 501.5,-116.5 501.5,-86.5 633.5,-86.5 633.5,-116.5"/>
<text text-anchor="start" x="509.5" y="-104.5" font-family="Helvetica,sans-Serif" font-size="10.00">cleanup_red_and_green</text>
<text text-anchor="middle" x="567.5" y="-93.5" font-family="Helvetica,sans-Serif" font-size="10.00">_shells</text>
</a>
</g>
</g>
<!-- Node4&#45;&gt;Node9 -->
<g id="edge8_Node000004_Node000009" class="edge">
<title>Node4&#45;&gt;Node9</title>
<g id="a_edge8_Node000004_Node000009"><a xlink:title=" ">
<path fill="none" stroke="#63b8ff" d="M422.51,-203.03C434.87,-199.68 449.06,-194.92 461,-188.5 478.17,-179.26 516.73,-146.08 542.16,-123.47"/>
<polygon fill="#63b8ff" stroke="#63b8ff" points="544.79,-125.81 549.92,-116.54 540.13,-120.59 544.79,-125.81"/>
</a>
</g>
</g>
<!-- Node22 -->
<g id="Node000022" class="node">
<title>Node22</title>
<g id="a_Node000022"><a xlink:href="collision_8c.html#ad72fef3ffe32191d73b1822f512ebf3f" target="_top" xlink:title=" ">
<polygon fill="white" stroke="#666666" points="615,-303 520,-303 520,-284 615,-284 615,-303"/>
<text text-anchor="middle" x="567.5" y="-291" font-family="Helvetica,sans-Serif" font-size="10.00">func_802AAAAC</text>
</a>
</g>
</g>
<!-- Node4&#45;&gt;Node22 -->
<g id="edge21_Node000004_Node000022" class="edge">
<title>Node4&#45;&gt;Node22</title>
<g id="a_edge21_Node000004_Node000022"><a xlink:title=" ">
<path fill="none" stroke="#63b8ff" d="M422.61,-213.5C435.26,-216.24 449.65,-220.83 461,-228.5 482.81,-243.22 475.07,-260.96 497,-275.5 501.07,-278.2 505.52,-280.49 510.15,-282.44"/>
<polygon fill="#63b8ff" stroke="#63b8ff" points="509.21,-285.83 519.81,-285.98 511.62,-279.26 509.21,-285.83"/>
</a>
</g>
</g>
<!-- Node24 -->
<g id="Node000024" class="node">
<title>Node24</title>
<g id="a_Node000024"><a xlink:href="math__util_8c.html#af7b470ed76fce07b8042a47c96e5690b" target="_top" xlink:title=" ">
<polygon fill="white" stroke="#666666" points="621,-266 514,-266 514,-247 621,-247 621,-266"/>
<text text-anchor="middle" x="567.5" y="-254" font-family="Helvetica,sans-Serif" font-size="10.00">vec3f_copy_return</text>
</a>
</g>
</g>
<!-- Node4&#45;&gt;Node24 -->
<g id="edge23_Node000004_Node000024" class="edge">
<title>Node4&#45;&gt;Node24</title>
<g id="a_edge23_Node000004_Node000024"><a xlink:title=" ">
<path fill="none" stroke="#63b8ff" d="M422.51,-217.82C434.48,-221.14 448.39,-225 461,-228.5 477,-232.94 480.96,-234.2 497,-238.5 504.28,-240.45 512,-242.49 519.55,-244.46"/>
<polygon fill="#63b8ff" stroke="#63b8ff" points="518.76,-247.87 529.32,-247 520.52,-241.1 518.76,-247.87"/>
</a>
</g>
</g>
<!-- Node25 -->
<g id="Node000025" class="node">
<title>Node25</title>
<g id="a_Node000025"><a xlink:href="math__util_8c.html#a0e270ee67600c8c9c2f140c647d008a1" target="_top" xlink:title=" ">
<polygon fill="white" stroke="#666666" points="604.5,-229 530.5,-229 530.5,-210 604.5,-210 604.5,-229"/>
<text text-anchor="middle" x="567.5" y="-217" font-family="Helvetica,sans-Serif" font-size="10.00">vec3s_copy</text>
</a>
</g>
</g>
<!-- Node4&#45;&gt;Node25 -->
<g id="edge24_Node000004_Node000025" class="edge">
<title>Node4&#45;&gt;Node25</title>
<g id="a_edge24_Node000004_Node000025"><a xlink:title=" ">
<path fill="none" stroke="#63b8ff" d="M422.81,-211.24C449.66,-212.79 489.29,-215.06 520.13,-216.83"/>
<polygon fill="#63b8ff" stroke="#63b8ff" points="520.03,-220.34 530.22,-217.41 520.43,-213.35 520.03,-220.34"/>
</a>
</g>
</g>
<!-- Node6 -->
<g id="Node000006" class="node">
<title>Node6</title>
<g id="a_Node000006"><a xlink:href="collision_8c.html#ac312bf382cb40752f6b790a99e7cdcb6" target="_top" xlink:title=" ">
<polygon fill="white" stroke="#666666" points="801,-192 693,-192 693,-173 801,-173 801,-192"/>
<text text-anchor="middle" x="747" y="-180" font-family="Helvetica,sans-Serif" font-size="10.00">check_collision_yx</text>
</a>
</g>
</g>
<!-- Node5&#45;&gt;Node6 -->
<g id="edge5_Node000005_Node000006" class="edge">
<title>Node5&#45;&gt;Node6</title>
<g id="a_edge5_Node000005_Node000006"><a xlink:title=" ">
<path fill="none" stroke="#63b8ff" d="M638.14,-182.5C652.76,-182.5 668.1,-182.5 682.48,-182.5"/>
<polygon fill="#63b8ff" stroke="#63b8ff" points="682.75,-186 692.75,-182.5 682.75,-179 682.75,-186"/>
</a>
</g>
</g>
<!-- Node7 -->
<g id="Node000007" class="node">
<title>Node7</title>
<g id="a_Node000007"><a xlink:href="collision_8c.html#a4b48832a90e984536a0635a016ec4f28" target="_top" xlink:title=" ">
<polygon fill="white" stroke="#666666" points="800.5,-266 693.5,-266 693.5,-247 800.5,-247 800.5,-266"/>
<text text-anchor="middle" x="747" y="-254" font-family="Helvetica,sans-Serif" font-size="10.00">check_collision_zx</text>
</a>
</g>
</g>
<!-- Node5&#45;&gt;Node7 -->
<g id="edge6_Node000005_Node000007" class="edge">
<title>Node5&#45;&gt;Node7</title>
<g id="a_edge6_Node000005_Node000007"><a xlink:title=" ">
<path fill="none" stroke="#63b8ff" d="M616.6,-192.03C624.04,-194.51 631.43,-197.62 638,-201.5 657.76,-213.16 654.11,-227.06 674,-238.5 677.05,-240.26 680.27,-241.84 683.59,-243.27"/>
<polygon fill="#63b8ff" stroke="#63b8ff" points="682.56,-246.63 693.15,-246.92 685.05,-240.08 682.56,-246.63"/>
</a>
</g>
</g>
<!-- Node8 -->
<g id="Node000008" class="node">
<title>Node8</title>
<g id="a_Node000008"><a xlink:href="collision_8c.html#a21fef964ab48191a1c0341954ef27a40" target="_top" xlink:title=" ">
<polygon fill="white" stroke="#666666" points="800.5,-229 693.5,-229 693.5,-210 800.5,-210 800.5,-229"/>
<text text-anchor="middle" x="747" y="-217" font-family="Helvetica,sans-Serif" font-size="10.00">check_collision_zy</text>
</a>
</g>
</g>
<!-- Node5&#45;&gt;Node8 -->
<g id="edge7_Node000005_Node000008" class="edge">
<title>Node5&#45;&gt;Node8</title>
<g id="a_edge7_Node000005_Node000008"><a xlink:title=" ">
<path fill="none" stroke="#63b8ff" d="M614.21,-192.03C637.41,-196.86 665.79,-202.78 690.27,-207.88"/>
<polygon fill="#63b8ff" stroke="#63b8ff" points="689.63,-211.33 700.14,-209.94 691.06,-204.47 689.63,-211.33"/>
</a>
</g>
</g>
<!-- Node10 -->
<g id="Node000010" class="node">
<title>Node10</title>
<g id="a_Node000010"><a xlink:href="Game_8cpp.html#a693de7d8b89fe291aafea86bc64a0a2e" target="_top" xlink:title=" ">
<polygon fill="white" stroke="#666666" points="787,-69 707,-69 707,-50 787,-50 787,-69"/>
<text text-anchor="middle" x="747" y="-57" font-family="Helvetica,sans-Serif" font-size="10.00">CM_GetActor</text>
</a>
</g>
</g>
<!-- Node9&#45;&gt;Node10 -->
<g id="edge9_Node000009_Node000010" class="edge">
<title>Node9&#45;&gt;Node10</title>
<g id="a_edge9_Node000009_Node000010"><a xlink:title=" ">
<path fill="none" stroke="#63b8ff" d="M632.08,-86.46C653.44,-81.4 676.92,-75.85 696.99,-71.1"/>
<polygon fill="#63b8ff" stroke="#63b8ff" points="697.91,-74.48 706.84,-68.77 696.3,-67.66 697.91,-74.48"/>
</a>
</g>
</g>
<!-- Node11 -->
<g id="Node000011" class="node">
<title>Node11</title>
<g id="a_Node000011"><a xlink:href="code__80005FD0_8c.html#ad301b978cdd3c4cc190b10be050d51d8" target="_top" xlink:title=" ">
<polygon fill="white" stroke="#666666" points="820,-154.5 674,-154.5 674,-124.5 820,-124.5 820,-154.5"/>
<text text-anchor="start" x="682" y="-142.5" font-family="Helvetica,sans-Serif" font-size="10.00">delete_actor_in_unexpired</text>
<text text-anchor="middle" x="747" y="-131.5" font-family="Helvetica,sans-Serif" font-size="10.00">_actor_list</text>
</a>
</g>
</g>
<!-- Node9&#45;&gt;Node11 -->
<g id="edge10_Node000009_Node000011" class="edge">
<title>Node9&#45;&gt;Node11</title>
<g id="a_edge10_Node000009_Node000011"><a xlink:title=" ">
<path fill="none" stroke="#63b8ff" d="M633.59,-115.43C644.12,-117.69 655.13,-120.05 665.96,-122.36"/>
<polygon fill="#63b8ff" stroke="#63b8ff" points="665.33,-125.81 675.84,-124.48 666.8,-118.96 665.33,-125.81"/>
</a>
</g>
</g>
<!-- Node12 -->
<g id="Node000012" class="node">
<title>Node12</title>
<g id="a_Node000012"><a xlink:href="actors_8c.html#a694ec6ef7548b8618aeb35c038d3a9b9" target="_top" xlink:title=" ">
<polygon fill="white" stroke="#666666" points="788.5,-106 705.5,-106 705.5,-87 788.5,-87 788.5,-106"/>
<text text-anchor="middle" x="747" y="-94" font-family="Helvetica,sans-Serif" font-size="10.00">destroy_actor</text>
</a>
</g>
</g>
<!-- Node9&#45;&gt;Node12 -->
<g id="edge11_Node000009_Node000012" class="edge">
<title>Node9&#45;&gt;Node12</title>
<g id="a_edge11_Node000009_Node000012"><a xlink:title=" ">
<path fill="none" stroke="#63b8ff" d="M633.59,-99.67C653.97,-99.09 676.14,-98.47 695.37,-97.93"/>
<polygon fill="#63b8ff" stroke="#63b8ff" points="695.53,-101.42 705.43,-97.64 695.33,-94.43 695.53,-101.42"/>
</a>
</g>
</g>
<!-- Node13 -->
<g id="Node000013" class="node">
<title>Node13</title>
<g id="a_Node000013"><a xlink:href="actors_8c.html#a12dc3ccac4c7d8569eadac0af4fd6f9f" target="_top" xlink:title=" ">
<polygon fill="white" stroke="#666666" points="1014,-106 856,-106 856,-87 1014,-87 1014,-106"/>
<text text-anchor="middle" x="935" y="-94" font-family="Helvetica,sans-Serif" font-size="10.00">play_sound_before_despawn</text>
</a>
</g>
</g>
<!-- Node12&#45;&gt;Node13 -->
<g id="edge12_Node000012_Node000013" class="edge">
<title>Node12&#45;&gt;Node13</title>
<g id="a_edge12_Node000012_Node000013"><a xlink:title=" ">
<path fill="none" stroke="#63b8ff" d="M788.82,-96.5C805.65,-96.5 825.86,-96.5 845.77,-96.5"/>
<polygon fill="#63b8ff" stroke="#63b8ff" points="845.82,-100 855.82,-96.5 845.82,-93 845.82,-100"/>
</a>
</g>
</g>
<!-- Node14 -->
<g id="Node000014" class="node">
<title>Node14</title>
<g id="a_Node000014"><a xlink:href="external_8c.html#ae72057869772019e4464c87d4e16c682" target="_top" xlink:title=" ">
<polygon fill="white" stroke="#666666" points="1142,-106 1050,-106 1050,-87 1142,-87 1142,-106"/>
<text text-anchor="middle" x="1096" y="-94" font-family="Helvetica,sans-Serif" font-size="10.00">func_800C99E0</text>
</a>
</g>
</g>
<!-- Node13&#45;&gt;Node14 -->
<g id="edge13_Node000013_Node000014" class="edge">
<title>Node13&#45;&gt;Node14</title>
<g id="a_edge13_Node000013_Node000014"><a xlink:title=" ">
<path fill="none" stroke="#63b8ff" d="M1014.1,-96.5C1022.72,-96.5 1031.35,-96.5 1039.61,-96.5"/>
<polygon fill="#63b8ff" stroke="#63b8ff" points="1039.83,-100 1049.83,-96.5 1039.83,-93 1039.83,-100"/>
</a>
</g>
</g>
<!-- Node15 -->
<g id="Node000015" class="node">
<title>Node15</title>
<g id="a_Node000015"><a xlink:href="external_8c.html#aeb87c527482a244173df36a1f3d4f446" target="_top" xlink:title=" ">
<polygon fill="white" stroke="#666666" points="1270,-125 1178,-125 1178,-106 1270,-106 1270,-125"/>
<text text-anchor="middle" x="1224" y="-113" font-family="Helvetica,sans-Serif" font-size="10.00">func_800C21E8</text>
</a>
</g>
</g>
<!-- Node14&#45;&gt;Node15 -->
<g id="edge14_Node000014_Node000015" class="edge">
<title>Node14&#45;&gt;Node15</title>
<g id="a_edge14_Node000014_Node000015"><a xlink:title=" ">
<path fill="none" stroke="#63b8ff" d="M1142.13,-103.31C1150.46,-104.56 1159.23,-105.88 1167.81,-107.18"/>
<polygon fill="#63b8ff" stroke="#63b8ff" points="1167.35,-110.65 1177.76,-108.68 1168.39,-103.73 1167.35,-110.65"/>
</a>
</g>
</g>
<!-- Node16 -->
<g id="Node000016" class="node">
<title>Node16</title>
<g id="a_Node000016"><a xlink:href="external_8c.html#a028d40421b90c38f68ebfd5acc626f2e" target="_top" xlink:title=" ">
<polygon fill="white" stroke="#666666" points="1270,-88 1178,-88 1178,-69 1270,-69 1270,-88"/>
<text text-anchor="middle" x="1224" y="-76" font-family="Helvetica,sans-Serif" font-size="10.00">func_800C5578</text>
</a>
</g>
</g>
<!-- Node14&#45;&gt;Node16 -->
<g id="edge15_Node000014_Node000016" class="edge">
<title>Node14&#45;&gt;Node16</title>
<g id="a_edge15_Node000014_Node000016"><a xlink:title=" ">
<path fill="none" stroke="#63b8ff" d="M1142.13,-90.05C1150.46,-88.86 1159.23,-87.61 1167.81,-86.38"/>
<polygon fill="#63b8ff" stroke="#63b8ff" points="1168.35,-89.84 1177.76,-84.96 1167.36,-82.91 1168.35,-89.84"/>
</a>
</g>
</g>
<!-- Node17 -->
<g id="Node000017" class="node">
<title>Node17</title>
<g id="a_Node000017"><a xlink:href="external_8c.html#ac0fb767de7e14a03f1bcfa53f0abd23b" target="_top" xlink:title=" ">
<polygon fill="white" stroke="#666666" points="1446,-125 1306,-125 1306,-106 1446,-106 1446,-125"/>
<text text-anchor="middle" x="1376" y="-113" font-family="Helvetica,sans-Serif" font-size="10.00">delete_sound_from_bank</text>
</a>
</g>
</g>
<!-- Node16&#45;&gt;Node17 -->
<g id="edge16_Node000016_Node000017" class="edge">
<title>Node16&#45;&gt;Node17</title>
<g id="a_edge16_Node000016_Node000017"><a xlink:title=" ">
<path fill="none" stroke="#63b8ff" d="M1263.63,-88.03C1282.8,-92.76 1306.16,-98.52 1326.52,-103.54"/>
<polygon fill="#63b8ff" stroke="#63b8ff" points="1325.69,-106.94 1336.24,-105.94 1327.37,-100.15 1325.69,-106.94"/>
</a>
</g>
</g>
<!-- Node19 -->
<g id="Node000019" class="node">
<title>Node19</title>
<g id="a_Node000019"><a xlink:href="external_8c.html#ab83bd36e63f0f1baddcb2482b5ad31b0" target="_top" xlink:title=" ">
<polygon fill="white" stroke="#666666" points="1422.5,-88 1329.5,-88 1329.5,-69 1422.5,-69 1422.5,-88"/>
<text text-anchor="middle" x="1376" y="-76" font-family="Helvetica,sans-Serif" font-size="10.00">func_800C41CC</text>
</a>
</g>
</g>
<!-- Node16&#45;&gt;Node19 -->
<g id="edge18_Node000016_Node000019" class="edge">
<title>Node16&#45;&gt;Node19</title>
<g id="a_edge18_Node000016_Node000019"><a xlink:title=" ">
<path fill="none" stroke="#63b8ff" d="M1270,-78.5C1285.37,-78.5 1302.74,-78.5 1318.86,-78.5"/>
<polygon fill="#63b8ff" stroke="#63b8ff" points="1319.25,-82 1329.25,-78.5 1319.25,-75 1319.25,-82"/>
</a>
</g>
</g>
<!-- Node20 -->
<g id="Node000020" class="node">
<title>Node20</title>
<g id="a_Node000020"><a xlink:href="port__eu_8c.html#aa89dfaecca46c6d071f08c1898d1f7c9" target="_top" xlink:title=" ">
<polygon fill="white" stroke="#666666" points="1422.5,-51 1329.5,-51 1329.5,-32 1422.5,-32 1422.5,-51"/>
<text text-anchor="middle" x="1376" y="-39" font-family="Helvetica,sans-Serif" font-size="10.00">func_800CBBE8</text>
</a>
</g>
</g>
<!-- Node16&#45;&gt;Node20 -->
<g id="edge19_Node000016_Node000020" class="edge">
<title>Node16&#45;&gt;Node20</title>
<g id="a_edge19_Node000016_Node000020"><a xlink:title=" ">
<path fill="none" stroke="#63b8ff" d="M1263.63,-68.97C1282.8,-64.24 1306.16,-58.48 1326.52,-53.46"/>
<polygon fill="#63b8ff" stroke="#63b8ff" points="1327.37,-56.85 1336.24,-51.06 1325.69,-50.06 1327.37,-56.85"/>
</a>
</g>
</g>
<!-- Node18 -->
<g id="Node000018" class="node">
<title>Node18</title>
<g id="a_Node000018"><a xlink:href="external_8c.html#a358ac55e8ab5262dcae8037334be06d7" target="_top" xlink:title=" ">
<polygon fill="white" stroke="#666666" points="1574.5,-125 1482.5,-125 1482.5,-106 1574.5,-106 1574.5,-125"/>
<text text-anchor="middle" x="1528.5" y="-113" font-family="Helvetica,sans-Serif" font-size="10.00">func_800C40F0</text>
</a>
</g>
</g>
<!-- Node17&#45;&gt;Node18 -->
<g id="edge17_Node000017_Node000018" class="edge">
<title>Node17&#45;&gt;Node18</title>
<g id="a_edge17_Node000017_Node000018"><a xlink:title=" ">
<path fill="none" stroke="#63b8ff" d="M1446.08,-115.5C1454.87,-115.5 1463.78,-115.5 1472.31,-115.5"/>
<polygon fill="#63b8ff" stroke="#63b8ff" points="1472.5,-119 1482.5,-115.5 1472.5,-112 1472.5,-119"/>
</a>
</g>
</g>
<!-- Node21 -->
<g id="Node000021" class="node">
<title>Node21</title>
<g id="a_Node000021"><a xlink:href="port__eu_8c.html#af361a20d2e08f30c53a237ca481ff734" target="_top" xlink:title=" ">
<polygon fill="white" stroke="#666666" points="1575,-51 1482,-51 1482,-32 1575,-32 1575,-51"/>
<text text-anchor="middle" x="1528.5" y="-39" font-family="Helvetica,sans-Serif" font-size="10.00">func_800CBB48</text>
</a>
</g>
</g>
<!-- Node20&#45;&gt;Node21 -->
<g id="edge20_Node000020_Node000021" class="edge">
<title>Node20&#45;&gt;Node21</title>
<g id="a_edge20_Node000020_Node000021"><a xlink:title=" ">
<path fill="none" stroke="#63b8ff" d="M1422.56,-41.5C1437.96,-41.5 1455.34,-41.5 1471.46,-41.5"/>
<polygon fill="#63b8ff" stroke="#63b8ff" points="1471.83,-45 1481.83,-41.5 1471.83,-38 1471.83,-45"/>
</a>
</g>
</g>
<!-- Node23 -->
<g id="Node000023" class="node">
<title>Node23</title>
<g id="a_Node000023"><a xlink:href="math__util_8c.html#a79fd07a0971ec96a3ff0801963a2fa7f" target="_top" xlink:title=" ">
<polygon fill="white" stroke="#666666" points="779,-303 715,-303 715,-284 779,-284 779,-303"/>
<text text-anchor="middle" x="747" y="-291" font-family="Helvetica,sans-Serif" font-size="10.00">vec3f_set</text>
</a>
</g>
</g>
<!-- Node22&#45;&gt;Node23 -->
<g id="edge22_Node000022_Node000023" class="edge">
<title>Node22&#45;&gt;Node23</title>
<g id="a_edge22_Node000022_Node000023"><a xlink:title=" ">
<path fill="none" stroke="#63b8ff" d="M615.14,-293.5C642.88,-293.5 677.78,-293.5 704.56,-293.5"/>
<polygon fill="#63b8ff" stroke="#63b8ff" points="704.76,-297 714.76,-293.5 704.76,-290 704.76,-297"/>
</a>
</g>
</g>
<!-- Node31 -->
<g id="Node000031" class="node">
<title>Node31</title>
<g id="a_Node000031"><a xlink:href="Game_8cpp.html#a545c1a384e93cc7b616dfee707f5d962" target="_top" xlink:title=" ">
<polygon fill="white" stroke="#666666" points="425.5,-142 357.5,-142 357.5,-123 425.5,-123 425.5,-142"/>
<text text-anchor="middle" x="391.5" y="-130" font-family="Helvetica,sans-Serif" font-size="10.00">IsDkJungle</text>
</a>
</g>
</g>
<!-- Node30&#45;&gt;Node31 -->
<g id="edge30_Node000030_Node000031" class="edge">
<title>Node30&#45;&gt;Node31</title>
<g id="a_edge30_Node000030_Node000031"><a xlink:title=" ">
<path fill="none" stroke="#63b8ff" d="M262.5,-155.65C290.08,-150.66 322.17,-144.86 347.32,-140.31"/>
<polygon fill="#63b8ff" stroke="#63b8ff" points="348.07,-143.73 357.29,-138.51 346.83,-136.84 348.07,-143.73"/>
</a>
</g>
</g>
<!-- Node32 -->
<g id="Node000032" class="node">
<title>Node32</title>
<g id="a_Node000032"><a xlink:href="Game_8cpp.html#ad474b8b257813cceeae25ab5205273c4" target="_top" xlink:title=" ">
<polygon fill="white" stroke="#666666" points="440.5,-179 342.5,-179 342.5,-160 440.5,-160 440.5,-179"/>
<text text-anchor="middle" x="391.5" y="-167" font-family="Helvetica,sans-Serif" font-size="10.00">IsKalimariDesert</text>
</a>
</g>
</g>
<!-- Node30&#45;&gt;Node32 -->
<g id="edge31_Node000030_Node000032" class="edge">
<title>Node30&#45;&gt;Node32</title>
<g id="a_edge31_Node000030_Node000032"><a xlink:title=" ">
<path fill="none" stroke="#63b8ff" d="M262.5,-167.46C284.77,-167.81 309.97,-168.21 332.09,-168.57"/>
<polygon fill="#63b8ff" stroke="#63b8ff" points="332.29,-172.07 342.34,-168.73 332.4,-165.07 332.29,-172.07"/>
</a>
</g>
</g>
<!-- Node33&#45;&gt;Node31 -->
<g id="edge38_Node000033_Node000031" class="edge">
<title>Node33&#45;&gt;Node31</title>
<g id="a_edge38_Node000033_Node000031"><a xlink:title=" ">
<path fill="none" stroke="#63b8ff" d="M285.51,-127.47C306.82,-128.49 328.9,-129.55 347.28,-130.43"/>
<polygon fill="#63b8ff" stroke="#63b8ff" points="347.2,-133.93 357.36,-130.91 347.53,-126.94 347.2,-133.93"/>
</a>
</g>
</g>
<!-- Node33&#45;&gt;Node32 -->
<g id="edge39_Node000033_Node000032" class="edge">
<title>Node33&#45;&gt;Node32</title>
<g id="a_edge39_Node000033_Node000032"><a xlink:title=" ">
<path fill="none" stroke="#63b8ff" d="M245.46,-133.02C258.5,-135.98 272.85,-139.31 286,-142.5 305.36,-147.2 326.66,-152.66 344.95,-157.42"/>
<polygon fill="#63b8ff" stroke="#63b8ff" points="344.21,-160.85 354.77,-159.99 345.99,-154.08 344.21,-160.85"/>
</a>
</g>
</g>
<!-- Node34 -->
<g id="Node000034" class="node">
<title>Node34</title>
<g id="a_Node000034"><a xlink:href="code__80005FD0_8c.html#ade9dca16c41c3d924b84f32a203ba823" target="_top" xlink:title=" ">
<polygon fill="white" stroke="#666666" points="451.5,-104.5 331.5,-104.5 331.5,-74.5 451.5,-74.5 451.5,-104.5"/>
<text text-anchor="start" x="339.5" y="-92.5" font-family="Helvetica,sans-Serif" font-size="10.00">find_closest_vehicles</text>
<text text-anchor="middle" x="391.5" y="-81.5" font-family="Helvetica,sans-Serif" font-size="10.00">_path_point</text>
</a>
</g>
</g>
<!-- Node33&#45;&gt;Node34 -->
<g id="edge33_Node000033_Node000034" class="edge">
<title>Node33&#45;&gt;Node34</title>
<g id="a_edge33_Node000033_Node000034"><a xlink:title=" ">
<path fill="none" stroke="#63b8ff" d="M255.12,-113.98C275.65,-110.27 299.48,-105.96 321.37,-102"/>
<polygon fill="#63b8ff" stroke="#63b8ff" points="322.06,-105.44 331.27,-100.21 320.81,-98.55 322.06,-105.44"/>
</a>
</g>
</g>
<!-- Node35 -->
<g id="Node000035" class="node">
<title>Node35</title>
<g id="a_Node000035"><a xlink:href="code__80005FD0_8c.html#a79cd9c001e0a06c9cab23fe2cf070abf" target="_top" xlink:title=" ">
<polygon fill="white" stroke="#666666" points="461,-56 322,-56 322,-37 461,-37 461,-56"/>
<text text-anchor="middle" x="391.5" y="-44" font-family="Helvetica,sans-Serif" font-size="10.00">get_angle_between_path</text>
</a>
</g>
</g>
<!-- Node33&#45;&gt;Node35 -->
<g id="edge34_Node000033_Node000035" class="edge">
<title>Node33&#45;&gt;Node35</title>
<g id="a_edge34_Node000033_Node000035"><a xlink:title=" ">
<path fill="none" stroke="#63b8ff" d="M266.97,-113.94C273.62,-111.69 280.1,-108.92 286,-105.5 306.69,-93.51 301.66,-78.09 322,-65.5 325.54,-63.31 329.34,-61.36 333.27,-59.64"/>
<polygon fill="#63b8ff" stroke="#63b8ff" points="334.55,-62.9 342.6,-56 332.01,-56.37 334.55,-62.9"/>
</a>
</g>
</g>
<!-- Node39 -->
<g id="Node000039" class="node">
<title>Node39</title>
<g id="a_Node000039"><a xlink:href="math_8h.html#a37bde043e94a6f074c78f10518fb5d99" target="_top" xlink:title=" ">
<polygon fill="white" stroke="#666666" points="411,-19 372,-19 372,0 411,0 411,-19"/>
<text text-anchor="middle" x="391.5" y="-7" font-family="Helvetica,sans-Serif" font-size="10.00">sqrtf</text>
</a>
</g>
</g>
<!-- Node33&#45;&gt;Node39 -->
<g id="edge40_Node000033_Node000039" class="edge">
<title>Node33&#45;&gt;Node39</title>
<g id="a_edge40_Node000033_Node000039"><a xlink:title=" ">
<path fill="none" stroke="#63b8ff" d="M272.26,-113.84C277.17,-111.57 281.83,-108.83 286,-105.5 315.54,-81.96 293.16,-52.9 322,-28.5 333.08,-19.13 348.43,-14.36 361.79,-11.94"/>
<polygon fill="#63b8ff" stroke="#63b8ff" points="362.57,-15.36 371.96,-10.46 361.56,-8.44 362.57,-15.36"/>
</a>
</g>
</g>
<!-- Node36 -->
<g id="Node000036" class="node">
<title>Node36</title>
<g id="a_Node000036"><a xlink:href="math__util_8c.html#a84cf9d4ec33146a64c230ed4cec56632" target="_top" xlink:title=" ">
<polygon fill="white" stroke="#666666" points="635,-55.5 500,-55.5 500,-25.5 635,-25.5 635,-55.5"/>
<text text-anchor="start" x="508" y="-43.5" font-family="Helvetica,sans-Serif" font-size="10.00">get_angle_between_two</text>
<text text-anchor="middle" x="567.5" y="-32.5" font-family="Helvetica,sans-Serif" font-size="10.00">_vectors</text>
</a>
</g>
</g>
<!-- Node35&#45;&gt;Node36 -->
<g id="edge35_Node000035_Node000036" class="edge">
<title>Node35&#45;&gt;Node36</title>
<g id="a_edge35_Node000035_Node000036"><a xlink:title=" ">
<path fill="none" stroke="#63b8ff" d="M461.27,-44.13C470.62,-43.81 480.26,-43.47 489.74,-43.15"/>
<polygon fill="#63b8ff" stroke="#63b8ff" points="490.06,-46.64 499.93,-42.8 489.82,-39.64 490.06,-46.64"/>
</a>
</g>
</g>
<!-- Node37 -->
<g id="Node000037" class="node">
<title>Node37</title>
<g id="a_Node000037"><a xlink:href="math__util_8c.html#aaa39a297477f56051975259f4bddd829" target="_top" xlink:title=" ">
<polygon fill="white" stroke="#666666" points="772,-32 722,-32 722,-13 772,-13 772,-32"/>
<text text-anchor="middle" x="747" y="-20" font-family="Helvetica,sans-Serif" font-size="10.00">atan2s</text>
</a>
</g>
</g>
<!-- Node36&#45;&gt;Node37 -->
<g id="edge36_Node000036_Node000037" class="edge">
<title>Node36&#45;&gt;Node37</title>
<g id="a_edge36_Node000036_Node000037"><a xlink:title=" ">
<path fill="none" stroke="#63b8ff" d="M635.1,-33.75C661.14,-31.11 689.89,-28.19 711.6,-25.99"/>
<polygon fill="#63b8ff" stroke="#63b8ff" points="712.05,-29.46 721.64,-24.97 711.34,-22.5 712.05,-29.46"/>
</a>
</g>
</g>
<!-- Node38 -->
<g id="Node000038" class="node">
<title>Node38</title>
<g id="a_Node000038"><a xlink:href="math__util_8c.html#a0273b0ea0783a06996c28669a7438ed9" target="_top" xlink:title=" ">
<polygon fill="white" stroke="#666666" points="976,-32 894,-32 894,-13 976,-13 976,-32"/>
<text text-anchor="middle" x="935" y="-20" font-family="Helvetica,sans-Serif" font-size="10.00">atan2_lookup</text>
</a>
</g>
</g>
<!-- Node37&#45;&gt;Node38 -->
<g id="edge37_Node000037_Node000038" class="edge">
<title>Node37&#45;&gt;Node38</title>
<g id="a_edge37_Node000037_Node000038"><a xlink:title=" ">
<path fill="none" stroke="#63b8ff" d="M772.32,-22.5C800.37,-22.5 847.26,-22.5 883.34,-22.5"/>
<polygon fill="#63b8ff" stroke="#63b8ff" points="883.68,-26 893.68,-22.5 883.68,-19 883.68,-26"/>
</a>
</g>
</g>
</g>
</svg>
