<?xml version="1.0" encoding="UTF-8" standalone="no"?>
<!DOCTYPE svg PUBLIC "-//W3C//DTD SVG 1.1//EN"
 "http://www.w3.org/Graphics/SVG/1.1/DTD/svg11.dtd">
<!-- Generated by graphviz version 2.43.0 (0)
 -->
<!-- Title: AActor::BeginPlay Pages: 1 -->
<svg width="312pt" height="45pt"
 viewBox="0.00 0.00 312.00 45.00" xmlns="http://www.w3.org/2000/svg" xmlns:xlink="http://www.w3.org/1999/xlink">
<g id="graph0" class="graph" transform="scale(1 1) rotate(0) translate(4 41)">
<title>AActor::BeginPlay</title>
<!-- Node1 -->
<g id="Node000001" class="node">
<title>Node1</title>
<g id="a_Node000001"><a xlink:title=" ">
<polygon fill="#999999" stroke="#666666" points="104,-19 0,-19 0,0 104,0 104,-19"/>
<text text-anchor="middle" x="52" y="-7" font-family="Helvetica,sans-Serif" font-size="10.00">AActor::BeginPlay</text>
</a>
</g>
</g>
<!-- Node2 -->
<g id="Node000002" class="node">
<title>Node2</title>
<g id="a_Node000002"><a xlink:href="namespaceEditor.html#a4a3d2d2707031137e00979b658f71cf2" target="_top" xlink:title=" ">
<polygon fill="white" stroke="#666666" points="304,-19 140,-19 140,0 304,0 304,-19"/>
<text text-anchor="middle" x="222" y="-7" font-family="Helvetica,sans-Serif" font-size="10.00">Editor::GenerateCollisionMesh</text>
</a>
</g>
</g>
<!-- Node1&#45;&gt;Node2 -->
<g id="edge1_Node000001_Node000002" class="edge">
<title>Node1&#45;&gt;Node2</title>
<g id="a_edge1_Node000001_Node000002"><a xlink:title=" ">
<path fill="none" stroke="#63b8ff" d="M104.32,-9.5C112.43,-9.5 121.03,-9.5 129.73,-9.5"/>
<polygon fill="#63b8ff" stroke="#63b8ff" points="129.97,-13 139.97,-9.5 129.97,-6 129.97,-13"/>
</a>
</g>
</g>
<!-- Node2&#45;&gt;Node2 -->
<g id="edge2_Node000002_Node000002" class="edge">
<title>Node2&#45;&gt;Node2</title>
<g id="a_edge2_Node000002_Node000002"><a xlink:title=" ">
<path fill="none" stroke="#63b8ff" d="M195.8,-19.08C183.05,-27.73 191.79,-37 222,-37 242.3,-37 252.9,-32.82 253.81,-27.45"/>
<polygon fill="#63b8ff" stroke="#63b8ff" points="256.68,-25.44 248.2,-19.08 250.86,-29.34 256.68,-25.44"/>
</a>
</g>
</g>
</g>
</svg>
