<?xml version="1.0" encoding="UTF-8" standalone="no"?>
<!DOCTYPE svg PUBLIC "-//W3C//DTD SVG 1.1//EN"
 "http://www.w3.org/Graphics/SVG/1.1/DTD/svg11.dtd">
<!-- Generated by graphviz version 2.43.0 (0)
 -->
<!-- Title: AMarioSign::Spawn Pages: 1 -->
<svg width="519pt" height="64pt"
 viewBox="0.00 0.00 519.00 64.00" xmlns="http://www.w3.org/2000/svg" xmlns:xlink="http://www.w3.org/1999/xlink">
<g id="graph0" class="graph" transform="scale(1 1) rotate(0) translate(4 60)">
<title>AMarioSign::Spawn</title>
<!-- Node1 -->
<g id="Node000001" class="node">
<title>Node1</title>
<g id="a_Node000001"><a xlink:title=" ">
<polygon fill="#999999" stroke="#666666" points="110,-37 0,-37 0,-18 110,-18 110,-37"/>
<text text-anchor="middle" x="55" y="-25" font-family="Helvetica,sans-Serif" font-size="10.00">AMarioSign::Spawn</text>
</a>
</g>
</g>
<!-- Node2 -->
<g id="Node000002" class="node">
<title>Node2</title>
<g id="a_Node000002"><a xlink:href="classAMarioSign.html#a3a685e9efe29f34cd2e3e0f5d85752f9" target="_top" xlink:title=" ">
<polygon fill="white" stroke="#666666" points="280,-37 146,-37 146,-18 280,-18 280,-37"/>
<text text-anchor="middle" x="213" y="-25" font-family="Helvetica,sans-Serif" font-size="10.00">AMarioSign::AMarioSign</text>
</a>
</g>
</g>
<!-- Node1&#45;&gt;Node2 -->
<g id="edge1_Node000001_Node000002" class="edge">
<title>Node1&#45;&gt;Node2</title>
<g id="a_edge1_Node000001_Node000002"><a xlink:title=" ">
<path fill="none" stroke="#63b8ff" d="M110.12,-27.5C118.41,-27.5 127.09,-27.5 135.75,-27.5"/>
<polygon fill="#63b8ff" stroke="#63b8ff" points="135.87,-31 145.87,-27.5 135.87,-24 135.87,-31"/>
</a>
</g>
</g>
<!-- Node3 -->
<g id="Node000003" class="node">
<title>Node3</title>
<g id="a_Node000003"><a xlink:href="classAActor.html#a679c43bacf3600fa2d7a6ab30e34a8a6" target="_top" xlink:title=" ">
<polygon fill="white" stroke="#666666" points="407,-56 320,-56 320,-37 407,-37 407,-56"/>
<text text-anchor="middle" x="363.5" y="-44" font-family="Helvetica,sans-Serif" font-size="10.00">AActor::AActor</text>
</a>
</g>
</g>
<!-- Node2&#45;&gt;Node3 -->
<g id="edge2_Node000002_Node000003" class="edge">
<title>Node2&#45;&gt;Node3</title>
<g id="a_edge2_Node000002_Node000003"><a xlink:title=" ">
<path fill="none" stroke="#63b8ff" d="M280.43,-36C290.3,-37.26 300.35,-38.55 309.89,-39.77"/>
<polygon fill="#63b8ff" stroke="#63b8ff" points="309.63,-43.26 319.99,-41.06 310.52,-36.32 309.63,-43.26"/>
</a>
</g>
</g>
<!-- Node4 -->
<g id="Node000004" class="node">
<title>Node4</title>
<g id="a_Node000004"><a xlink:href="collision_8c.html#ad72fef3ffe32191d73b1822f512ebf3f" target="_top" xlink:title=" ">
<polygon fill="white" stroke="#666666" points="411,-19 316,-19 316,0 411,0 411,-19"/>
<text text-anchor="middle" x="363.5" y="-7" font-family="Helvetica,sans-Serif" font-size="10.00">func_802AAAAC</text>
</a>
</g>
</g>
<!-- Node2&#45;&gt;Node4 -->
<g id="edge3_Node000002_Node000004" class="edge">
<title>Node2&#45;&gt;Node4</title>
<g id="a_edge3_Node000002_Node000004"><a xlink:title=" ">
<path fill="none" stroke="#63b8ff" d="M280.43,-19.45C288.79,-18.43 297.29,-17.4 305.49,-16.41"/>
<polygon fill="#63b8ff" stroke="#63b8ff" points="306.18,-19.85 315.68,-15.17 305.33,-12.9 306.18,-19.85"/>
</a>
</g>
</g>
<!-- Node5 -->
<g id="Node000005" class="node">
<title>Node5</title>
<g id="a_Node000005"><a xlink:href="math__util_8c.html#a79fd07a0971ec96a3ff0801963a2fa7f" target="_top" xlink:title=" ">
<polygon fill="white" stroke="#666666" points="511,-19 447,-19 447,0 511,0 511,-19"/>
<text text-anchor="middle" x="479" y="-7" font-family="Helvetica,sans-Serif" font-size="10.00">vec3f_set</text>
</a>
</g>
</g>
<!-- Node4&#45;&gt;Node5 -->
<g id="edge4_Node000004_Node000005" class="edge">
<title>Node4&#45;&gt;Node5</title>
<g id="a_edge4_Node000004_Node000005"><a xlink:title=" ">
<path fill="none" stroke="#63b8ff" d="M411.32,-9.5C419.74,-9.5 428.45,-9.5 436.7,-9.5"/>
<polygon fill="#63b8ff" stroke="#63b8ff" points="436.83,-13 446.83,-9.5 436.83,-6 436.83,-13"/>
</a>
</g>
</g>
</g>
</svg>
