<?xml version="1.0" encoding="UTF-8" standalone="no"?>
<!DOCTYPE svg PUBLIC "-//W3C//DTD SVG 1.1//EN"
 "http://www.w3.org/Graphics/SVG/1.1/DTD/svg11.dtd">
<!-- Generated by graphviz version 2.43.0 (0)
 -->
<!-- Title: func_8000D2B4 Pages: 1 -->
<!--zoomable 754 -->

<svg id="main" version="1.1" xmlns="http://www.w3.org/2000/svg" xmlns:xlink="http://www.w3.org/1999/xlink" xml:space="preserve" onload="init(evt)">

<style type="text/css"><![CDATA[
.node, .edge {opacity: 0.7;}
.node.selected, .edge.selected {opacity: 1;}
.edge:hover path { stroke: red; }
.edge:hover polygon { stroke: red; fill: red; }
]]></style>

<defs>
  <circle id="rim" cx="0" cy="0" r="7"/>
  <circle id="rim2" cx="0" cy="0" r="3.5"/>
  <g id="zoomPlus">
    <use xlink:href="#rim" fill="#404040"><set attributeName="fill" to="#808080" begin="zoomplus.mouseover" end="zoomplus.mouseout"/></use>
    <path d="M-4,0h8M0,-4v8" fill="none" stroke="white" stroke-width="1.5" pointer-events="none"/>
  </g>
  <g id="zoomMin">
    <use xlink:href="#rim" fill="#404040"><set attributeName="fill" to="#808080" begin="zoomminus.mouseover" end="zoomminus.mouseout"/></use>
    <path d="M-4,0h8" fill="none" stroke="white" stroke-width="1.5" pointer-events="none"/>
  </g>
  <g id="arrowUp" transform="translate(30 24)">
    <use xlink:href="#rim"/>
    <path pointer-events="none" fill="none" stroke="white" stroke-width="1.5" d="M0,-3.0v7 M-2.5,-0.5L0,-3.0L2.5,-0.5"/>
  </g>
  <g id="arrowRight" transform="rotate(90) translate(36 -43)">
    <use xlink:href="#rim"/>
    <path pointer-events="none" fill="none" stroke="white" stroke-width="1.5" d="M0,-3.0v7 M-2.5,-0.5L0,-3.0L2.5,-0.5"/>
  </g>
  <g id="arrowDown" transform="rotate(180) translate(-30 -48)">
    <use xlink:href="#rim"/>
    <path pointer-events="none" fill="none" stroke="white" stroke-width="1.5" d="M0,-3.0v7 M-2.5,-0.5L0,-3.0L2.5,-0.5"/>
  </g>
  <g id="arrowLeft" transform="rotate(270) translate(-36 17)">
    <use xlink:href="#rim"/>
    <path pointer-events="none" fill="none" stroke="white" stroke-width="1.5" d="M0,-3.0v7 M-2.5,-0.5L0,-3.0L2.5,-0.5"/>
  </g>
  <g id="resetDef">
    <use xlink:href="#rim2" fill="#404040"><set attributeName="fill" to="#808080" begin="reset.mouseover" end="reset.mouseout"/></use>
  </g>
</defs>
<script type="application/ecmascript">
var viewWidth = 929;
var viewHeight = 754;
var sectionId = 'dynsection-60';
</script>
<script type="application/ecmascript" xlink:href="svg.min.js"/>
<svg id="graph" class="graph">
<g id="viewport">
<title>func_8000D2B4</title>
<!-- Node1 -->
<g id="Node000001" class="node">
<title>Node1</title>
<g id="a_Node000001"><a xlink:title=" ">
<polygon fill="#999999" stroke="#666666" points="921,-300 828,-300 828,-281 921,-281 921,-300"/>
<text text-anchor="middle" x="874.5" y="-288" font-family="Helvetica,sans-Serif" font-size="10.00">func_8000D2B4</text>
</a>
</g>
</g>
<!-- Node2 -->
<g id="Node000002" class="node">
<title>Node2</title>
<g id="a_Node000002"><a xlink:href="code__80005FD0_8c.html#a45fa364fbae557a3d2025ebdc0846cd2" target="_top" xlink:title=" ">
<polygon fill="white" stroke="#666666" points="789.5,-468 695.5,-468 695.5,-449 789.5,-449 789.5,-468"/>
<text text-anchor="middle" x="742.5" y="-456" font-family="Helvetica,sans-Serif" font-size="10.00">func_8000D6D0</text>
</a>
</g>
</g>
<!-- Node1&#45;&gt;Node2 -->
<g id="edge1_Node000001_Node000002" class="edge">
<title>Node1&#45;&gt;Node2</title>
<g id="a_edge1_Node000001_Node000002"><a xlink:title=" ">
<path fill="none" stroke="#63b8ff" d="M860,-307.95C832.84,-343.05 772.4,-421.15 751.1,-448.67"/>
<polygon fill="#63b8ff" stroke="#63b8ff" points="862.79,-310.06 866.14,-300.01 857.25,-305.78 862.79,-310.06"/>
</a>
</g>
</g>
<!-- Node27 -->
<g id="Node000027" class="node">
<title>Node27</title>
<g id="a_Node000027"><a xlink:href="code__80005FD0_8c.html#a124bae511133f507498b19842362feeb" target="_top" xlink:title=" ">
<polygon fill="white" stroke="#666666" points="788.5,-319 696.5,-319 696.5,-300 788.5,-300 788.5,-319"/>
<text text-anchor="middle" x="742.5" y="-307" font-family="Helvetica,sans-Serif" font-size="10.00">func_8000D940</text>
</a>
</g>
</g>
<!-- Node1&#45;&gt;Node27 -->
<g id="edge33_Node000001_Node000027" class="edge">
<title>Node1&#45;&gt;Node27</title>
<g id="a_edge33_Node000001_Node000027"><a xlink:title=" ">
<path fill="none" stroke="#63b8ff" d="M817.77,-298.65C808.14,-300.05 798.23,-301.5 788.92,-302.86"/>
<polygon fill="#63b8ff" stroke="#63b8ff" points="818.28,-302.11 827.67,-297.2 817.27,-295.18 818.28,-302.11"/>
</a>
</g>
</g>
<!-- Node31 -->
<g id="Node000031" class="node">
<title>Node31</title>
<g id="a_Node000031"><a xlink:href="code__80005FD0_8c.html#ad7cfd2edb9055380080a6c1c577d042f" target="_top" xlink:title=" ">
<polygon fill="white" stroke="#666666" points="789,-282 696,-282 696,-263 789,-263 789,-282"/>
<text text-anchor="middle" x="742.5" y="-270" font-family="Helvetica,sans-Serif" font-size="10.00">func_8000DF8C</text>
</a>
</g>
</g>
<!-- Node1&#45;&gt;Node31 -->
<g id="edge48_Node000001_Node000031" class="edge">
<title>Node1&#45;&gt;Node31</title>
<g id="a_edge48_Node000001_Node000031"><a xlink:title=" ">
<path fill="none" stroke="#63b8ff" d="M817.59,-282.76C808.16,-281.45 798.48,-280.11 789.36,-278.85"/>
<polygon fill="#63b8ff" stroke="#63b8ff" points="817.28,-286.25 827.67,-284.15 818.24,-279.32 817.28,-286.25"/>
</a>
</g>
</g>
<!-- Node32 -->
<g id="Node000032" class="node">
<title>Node32</title>
<g id="a_Node000032"><a xlink:href="classOBombKart.html#ae45058df866237b65f841ece4c611bf6" target="_top" xlink:title=" ">
<polygon fill="white" stroke="#666666" points="792,-245 693,-245 693,-226 792,-226 792,-245"/>
<text text-anchor="middle" x="742.5" y="-233" font-family="Helvetica,sans-Serif" font-size="10.00">OBombKart::Tick</text>
</a>
</g>
</g>
<!-- Node1&#45;&gt;Node32 -->
<g id="edge49_Node000001_Node000032" class="edge">
<title>Node1&#45;&gt;Node32</title>
<g id="a_edge49_Node000001_Node000032"><a xlink:title=" ">
<path fill="none" stroke="#63b8ff" d="M843.04,-276.68C827.78,-269.85 808.98,-261.57 792,-254.5 784.49,-251.37 776.26,-248.09 768.75,-245.16"/>
<polygon fill="#63b8ff" stroke="#63b8ff" points="841.94,-280.02 852.5,-280.93 844.81,-273.64 841.94,-280.02"/>
</a>
</g>
</g>
<!-- Node3 -->
<g id="Node000003" class="node">
<title>Node3</title>
<g id="a_Node000003"><a xlink:href="classABus.html#aabc43c4a5a7c5acc7daa5e89f9d42cdb" target="_top" xlink:title=" ">
<polygon fill="white" stroke="#666666" points="441,-227 369,-227 369,-208 441,-208 441,-227"/>
<text text-anchor="middle" x="405" y="-215" font-family="Helvetica,sans-Serif" font-size="10.00">ABus::ABus</text>
</a>
</g>
</g>
<!-- Node2&#45;&gt;Node3 -->
<g id="edge2_Node000002_Node000003" class="edge">
<title>Node2&#45;&gt;Node3</title>
<g id="a_edge2_Node000002_Node000003"><a xlink:title=" ">
<path fill="none" stroke="#63b8ff" d="M717.93,-473.31C672.87,-499.55 573.85,-546.89 516,-496.5 428.04,-419.88 557.67,-323.54 480,-236.5 470.29,-225.61 455.26,-220.57 441.27,-218.37"/>
<polygon fill="#63b8ff" stroke="#63b8ff" points="719.9,-476.21 726.69,-468.08 716.31,-470.2 719.9,-476.21"/>
</a>
</g>
</g>
<!-- Node6 -->
<g id="Node000006" class="node">
<title>Node6</title>
<g id="a_Node000006"><a xlink:href="classACar.html#a7c537f8a1af7c93b57a6fbf2f52a894d" target="_top" xlink:title=" ">
<polygon fill="white" stroke="#666666" points="439.5,-338 370.5,-338 370.5,-319 439.5,-319 439.5,-338"/>
<text text-anchor="middle" x="405" y="-326" font-family="Helvetica,sans-Serif" font-size="10.00">ACar::ACar</text>
</a>
</g>
</g>
<!-- Node2&#45;&gt;Node6 -->
<g id="edge5_Node000002_Node000006" class="edge">
<title>Node2&#45;&gt;Node6</title>
<g id="a_edge5_Node000002_Node000006"><a xlink:title=" ">
<path fill="none" stroke="#63b8ff" d="M737.02,-477.88C728.18,-511.02 705.07,-577.69 657,-605.5 602.76,-636.88 567.85,-640.7 516,-605.5 420.75,-540.84 407.98,-379.33 406.26,-338.17"/>
<polygon fill="#63b8ff" stroke="#63b8ff" points="740.45,-478.58 739.48,-468.03 733.66,-476.89 740.45,-478.58"/>
</a>
</g>
</g>
<!-- Node8 -->
<g id="Node000008" class="node">
<title>Node8</title>
<g id="a_Node000008"><a xlink:href="classATankerTruck.html#a09577845d0c017bc5845b1cac44b5078" target="_top" xlink:title=" ">
<polygon fill="white" stroke="#666666" points="479.5,-301 330.5,-301 330.5,-282 479.5,-282 479.5,-301"/>
<text text-anchor="middle" x="405" y="-289" font-family="Helvetica,sans-Serif" font-size="10.00">ATankerTruck::ATankerTruck</text>
</a>
</g>
</g>
<!-- Node2&#45;&gt;Node8 -->
<g id="edge8_Node000002_Node000008" class="edge">
<title>Node2&#45;&gt;Node8</title>
<g id="a_edge8_Node000002_Node000008"><a xlink:title=" ">
<path fill="none" stroke="#63b8ff" d="M733.47,-477.32C721.27,-503.21 695.34,-548.71 657,-567.5 600.73,-595.08 563.29,-608.62 516,-567.5 428.97,-491.81 556.86,-396.5 480,-310.5 476.64,-306.74 472.65,-303.68 468.29,-301.19"/>
<polygon fill="#63b8ff" stroke="#63b8ff" points="736.68,-478.72 737.6,-468.16 730.3,-475.84 736.68,-478.72"/>
</a>
</g>
</g>
<!-- Node10 -->
<g id="Node000010" class="node">
<title>Node10</title>
<g id="a_Node000010"><a xlink:href="classATruck.html#a8b5a611d66bd00a6ddf86eec0920a583" target="_top" xlink:title=" ">
<polygon fill="white" stroke="#666666" points="448,-264 362,-264 362,-245 448,-245 448,-264"/>
<text text-anchor="middle" x="405" y="-252" font-family="Helvetica,sans-Serif" font-size="10.00">ATruck::ATruck</text>
</a>
</g>
</g>
<!-- Node2&#45;&gt;Node10 -->
<g id="edge11_Node000002_Node000010" class="edge">
<title>Node2&#45;&gt;Node10</title>
<g id="a_edge11_Node000002_Node000010"><a xlink:title=" ">
<path fill="none" stroke="#63b8ff" d="M727.36,-476.03C712.12,-493.4 686.09,-518.9 657,-529.5 598.12,-550.95 563.3,-570.61 516,-529.5 429.28,-454.12 556.59,-359.15 480,-273.5 471.87,-264.4 460.02,-259.39 448.18,-256.7"/>
<polygon fill="#63b8ff" stroke="#63b8ff" points="730.15,-478.15 733.95,-468.26 724.81,-473.63 730.15,-478.15"/>
</a>
</g>
</g>
<!-- Node12 -->
<g id="Node000012" class="node">
<title>Node12</title>
<g id="a_Node000012"><a xlink:href="code__80005FD0_8c.html#af8068c46ce72dbd5b61790d355728cff" target="_top" xlink:title=" ">
<polygon fill="white" stroke="#666666" points="654.5,-687.5 518.5,-687.5 518.5,-657.5 654.5,-657.5 654.5,-687.5"/>
<text text-anchor="start" x="526.5" y="-675.5" font-family="Helvetica,sans-Serif" font-size="10.00">initialize_toads_turnpike</text>
<text text-anchor="middle" x="586.5" y="-664.5" font-family="Helvetica,sans-Serif" font-size="10.00">_vehicle</text>
</a>
</g>
</g>
<!-- Node2&#45;&gt;Node12 -->
<g id="edge14_Node000002_Node000012" class="edge">
<title>Node2&#45;&gt;Node12</title>
<g id="a_edge14_Node000002_Node000012"><a xlink:title=" ">
<path fill="none" stroke="#63b8ff" d="M737.45,-478.5C728.92,-515.76 705.76,-596.33 657,-643.5 651.17,-649.14 644.09,-653.74 636.71,-657.49"/>
<polygon fill="#63b8ff" stroke="#63b8ff" points="740.94,-478.92 739.64,-468.4 734.1,-477.44 740.94,-478.92"/>
</a>
</g>
</g>
<!-- Node17 -->
<g id="Node000017" class="node">
<title>Node17</title>
<g id="a_Node000017"><a xlink:href="code__80005FD0_8c.html#ac8070bcd41974c70ea8b6d4218b1ebef" target="_top" xlink:title=" ">
<polygon fill="white" stroke="#666666" points="653,-262 520,-262 520,-243 653,-243 653,-262"/>
<text text-anchor="middle" x="586.5" y="-250" font-family="Helvetica,sans-Serif" font-size="10.00">spawn_vehicle_on_road</text>
</a>
</g>
</g>
<!-- Node2&#45;&gt;Node17 -->
<g id="edge19_Node000002_Node000017" class="edge">
<title>Node2&#45;&gt;Node17</title>
<g id="a_edge19_Node000002_Node000017"><a xlink:title=" ">
<path fill="none" stroke="#63b8ff" d="M728.16,-440.66C696.79,-398.7 619.17,-294.86 594.88,-262.38"/>
<polygon fill="#63b8ff" stroke="#63b8ff" points="725.49,-442.93 734.28,-448.84 731.09,-438.74 725.49,-442.93"/>
</a>
</g>
</g>
<!-- Node18 -->
<g id="Node000018" class="node">
<title>Node18</title>
<g id="a_Node000018"><a xlink:href="classABus.html#a07af38f3fced338dc420cffcdfddb826" target="_top" xlink:title=" ">
<polygon fill="white" stroke="#666666" points="620.5,-487 552.5,-487 552.5,-468 620.5,-468 620.5,-487"/>
<text text-anchor="middle" x="586.5" y="-475" font-family="Helvetica,sans-Serif" font-size="10.00">ABus::Tick</text>
</a>
</g>
</g>
<!-- Node2&#45;&gt;Node18 -->
<g id="edge24_Node000002_Node000018" class="edge">
<title>Node2&#45;&gt;Node18</title>
<g id="a_edge24_Node000002_Node000018"><a xlink:title=" ">
<path fill="none" stroke="#63b8ff" d="M685.25,-465.44C663.66,-468.1 639.73,-471.06 620.95,-473.37"/>
<polygon fill="#63b8ff" stroke="#63b8ff" points="685.8,-468.9 695.29,-464.2 684.94,-461.95 685.8,-468.9"/>
</a>
</g>
</g>
<!-- Node19 -->
<g id="Node000019" class="node">
<title>Node19</title>
<g id="a_Node000019"><a xlink:href="classACar.html#aa5a07144df2ce488c986f2c9eece9916" target="_top" xlink:title=" ">
<polygon fill="white" stroke="#666666" points="619.5,-450 553.5,-450 553.5,-431 619.5,-431 619.5,-450"/>
<text text-anchor="middle" x="586.5" y="-438" font-family="Helvetica,sans-Serif" font-size="10.00">ACar::Tick</text>
</a>
</g>
</g>
<!-- Node2&#45;&gt;Node19 -->
<g id="edge25_Node000002_Node000019" class="edge">
<title>Node2&#45;&gt;Node19</title>
<g id="a_edge25_Node000002_Node000019"><a xlink:title=" ">
<path fill="none" stroke="#63b8ff" d="M685.32,-451.93C663.16,-449.34 638.52,-446.46 619.51,-444.24"/>
<polygon fill="#63b8ff" stroke="#63b8ff" points="684.96,-455.41 695.29,-453.1 685.77,-448.46 684.96,-455.41"/>
</a>
</g>
</g>
<!-- Node20 -->
<g id="Node000020" class="node">
<title>Node20</title>
<g id="a_Node000020"><a xlink:href="classATankerTruck.html#a7a57be806639c04fa4d391a47bf09ab3" target="_top" xlink:title=" ">
<polygon fill="white" stroke="#666666" points="639.5,-413 533.5,-413 533.5,-394 639.5,-394 639.5,-413"/>
<text text-anchor="middle" x="586.5" y="-401" font-family="Helvetica,sans-Serif" font-size="10.00">ATankerTruck::Tick</text>
</a>
</g>
</g>
<!-- Node2&#45;&gt;Node20 -->
<g id="edge26_Node000002_Node000020" class="edge">
<title>Node2&#45;&gt;Node20</title>
<g id="a_edge26_Node000002_Node000020"><a xlink:title=" ">
<path fill="none" stroke="#63b8ff" d="M711.93,-444.73C695.88,-437.56 675.58,-428.97 657,-422.5 647.08,-419.05 636.18,-415.81 626.02,-413.03"/>
<polygon fill="#63b8ff" stroke="#63b8ff" points="710.76,-448.05 721.31,-448.98 713.65,-441.67 710.76,-448.05"/>
</a>
</g>
</g>
<!-- Node21 -->
<g id="Node000021" class="node">
<title>Node21</title>
<g id="a_Node000021"><a xlink:href="classATruck.html#a251df5418c913a4e27ab67cfb068fdfc" target="_top" xlink:title=" ">
<polygon fill="white" stroke="#666666" points="623.5,-376 549.5,-376 549.5,-357 623.5,-357 623.5,-376"/>
<text text-anchor="middle" x="586.5" y="-364" font-family="Helvetica,sans-Serif" font-size="10.00">ATruck::Tick</text>
</a>
</g>
</g>
<!-- Node2&#45;&gt;Node21 -->
<g id="edge27_Node000002_Node000021" class="edge">
<title>Node2&#45;&gt;Node21</title>
<g id="a_edge27_Node000002_Node000021"><a xlink:title=" ">
<path fill="none" stroke="#63b8ff" d="M726.27,-441.51C710.49,-424.91 684.35,-400.08 657,-385.5 646.73,-380.03 634.75,-376.02 623.66,-373.14"/>
<polygon fill="#63b8ff" stroke="#63b8ff" points="723.77,-443.97 733.14,-448.91 728.9,-439.2 723.77,-443.97"/>
</a>
</g>
</g>
<!-- Node22 -->
<g id="Node000022" class="node">
<title>Node22</title>
<g id="a_Node000022"><a xlink:href="code__80005FD0_8c.html#a99144559f0973d72038cdccbe00881b6" target="_top" xlink:title=" ">
<polygon fill="white" stroke="#666666" points="649.5,-148.5 523.5,-148.5 523.5,-118.5 649.5,-118.5 649.5,-148.5"/>
<text text-anchor="start" x="531.5" y="-136.5" font-family="Helvetica,sans-Serif" font-size="10.00">update_vehicle_follow</text>
<text text-anchor="middle" x="586.5" y="-125.5" font-family="Helvetica,sans-Serif" font-size="10.00">_path_point</text>
</a>
</g>
</g>
<!-- Node2&#45;&gt;Node22 -->
<g id="edge28_Node000002_Node000022" class="edge">
<title>Node2&#45;&gt;Node22</title>
<g id="a_edge28_Node000002_Node000022"><a xlink:title=" ">
<path fill="none" stroke="#63b8ff" d="M734.28,-439.18C714.29,-385.7 659.52,-239.31 657,-234.5 640.04,-202.06 614.5,-167.62 599.56,-148.51"/>
<polygon fill="#63b8ff" stroke="#63b8ff" points="731.11,-440.69 737.89,-448.83 737.67,-438.24 731.11,-440.69"/>
</a>
</g>
</g>
<!-- Node4 -->
<g id="Node000004" class="node">
<title>Node4</title>
<g id="a_Node000004"><a xlink:href="classABus.html#a456ce9ea8c555e72a30abe4b40bd2d7b" target="_top" xlink:title=" ">
<polygon fill="white" stroke="#666666" points="275,-227 195,-227 195,-208 275,-208 275,-227"/>
<text text-anchor="middle" x="235" y="-215" font-family="Helvetica,sans-Serif" font-size="10.00">ABus::Spawn</text>
</a>
</g>
</g>
<!-- Node3&#45;&gt;Node4 -->
<g id="edge3_Node000003_Node000004" class="edge">
<title>Node3&#45;&gt;Node4</title>
<g id="a_edge3_Node000003_Node000004"><a xlink:title=" ">
<path fill="none" stroke="#63b8ff" d="M358.77,-217.5C332.71,-217.5 300.27,-217.5 275.29,-217.5"/>
<polygon fill="#63b8ff" stroke="#63b8ff" points="358.78,-221 368.78,-217.5 358.78,-214 358.78,-221"/>
</a>
</g>
</g>
<!-- Node5 -->
<g id="Node000005" class="node">
<title>Node5</title>
<g id="a_Node000005"><a xlink:href="classToadsTurnpike.html#a25009a2dd4f7e438741965b0a9fc9a7e" target="_top" xlink:title=" ">
<polygon fill="white" stroke="#666666" points="140,-282 0,-282 0,-263 140,-263 140,-282"/>
<text text-anchor="middle" x="70" y="-270" font-family="Helvetica,sans-Serif" font-size="10.00">ToadsTurnpike::BeginPlay</text>
</a>
</g>
</g>
<!-- Node4&#45;&gt;Node5 -->
<g id="edge4_Node000004_Node000005" class="edge">
<title>Node4&#45;&gt;Node5</title>
<g id="a_edge4_Node000004_Node000005"><a xlink:title=" ">
<path fill="none" stroke="#63b8ff" d="M194.78,-230.27C188.5,-232.34 182.07,-234.47 176,-236.5 149.69,-245.32 119.76,-255.61 98.6,-262.92"/>
<polygon fill="#63b8ff" stroke="#63b8ff" points="196.06,-233.53 204.47,-227.09 193.88,-226.88 196.06,-233.53"/>
</a>
</g>
</g>
<!-- Node7 -->
<g id="Node000007" class="node">
<title>Node7</title>
<g id="a_Node000007"><a xlink:href="classACar.html#a657415a24ab2c0d907f25fd227156848" target="_top" xlink:title=" ">
<polygon fill="white" stroke="#666666" points="274,-338 196,-338 196,-319 274,-319 274,-338"/>
<text text-anchor="middle" x="235" y="-326" font-family="Helvetica,sans-Serif" font-size="10.00">ACar::Spawn</text>
</a>
</g>
</g>
<!-- Node6&#45;&gt;Node7 -->
<g id="edge6_Node000006_Node000007" class="edge">
<title>Node6&#45;&gt;Node7</title>
<g id="a_edge6_Node000006_Node000007"><a xlink:title=" ">
<path fill="none" stroke="#63b8ff" d="M360.2,-328.5C333.54,-328.5 299.81,-328.5 274.23,-328.5"/>
<polygon fill="#63b8ff" stroke="#63b8ff" points="360.41,-332 370.41,-328.5 360.41,-325 360.41,-332"/>
</a>
</g>
</g>
<!-- Node7&#45;&gt;Node5 -->
<g id="edge7_Node000007_Node000005" class="edge">
<title>Node7&#45;&gt;Node5</title>
<g id="a_edge7_Node000007_Node000005"><a xlink:title=" ">
<path fill="none" stroke="#63b8ff" d="M192.46,-315.86C186.91,-314.1 181.31,-312.28 176,-310.5 148.62,-301.3 117.54,-289.94 96.35,-282.05"/>
<polygon fill="#63b8ff" stroke="#63b8ff" points="191.72,-319.3 202.31,-318.96 193.81,-312.62 191.72,-319.3"/>
</a>
</g>
</g>
<!-- Node9 -->
<g id="Node000009" class="node">
<title>Node9</title>
<g id="a_Node000009"><a xlink:href="classATankerTruck.html#a2aacacbab3ba357a304a26523e4e3679" target="_top" xlink:title=" ">
<polygon fill="white" stroke="#666666" points="294,-301 176,-301 176,-282 294,-282 294,-301"/>
<text text-anchor="middle" x="235" y="-289" font-family="Helvetica,sans-Serif" font-size="10.00">ATankerTruck::Spawn</text>
</a>
</g>
</g>
<!-- Node8&#45;&gt;Node9 -->
<g id="edge9_Node000008_Node000009" class="edge">
<title>Node8&#45;&gt;Node9</title>
<g id="a_edge9_Node000008_Node000009"><a xlink:title=" ">
<path fill="none" stroke="#63b8ff" d="M320.08,-291.5C311.34,-291.5 302.59,-291.5 294.23,-291.5"/>
<polygon fill="#63b8ff" stroke="#63b8ff" points="320.31,-295 330.31,-291.5 320.31,-288 320.31,-295"/>
</a>
</g>
</g>
<!-- Node9&#45;&gt;Node5 -->
<g id="edge10_Node000009_Node000005" class="edge">
<title>Node9&#45;&gt;Node5</title>
<g id="a_edge10_Node000009_Node000005"><a xlink:title=" ">
<path fill="none" stroke="#63b8ff" d="M165.49,-283.51C157.09,-282.54 148.51,-281.53 140.1,-280.55"/>
<polygon fill="#63b8ff" stroke="#63b8ff" points="165.28,-287.01 175.61,-284.69 166.09,-280.06 165.28,-287.01"/>
</a>
</g>
</g>
<!-- Node11 -->
<g id="Node000011" class="node">
<title>Node11</title>
<g id="a_Node000011"><a xlink:href="classATruck.html#afe7c33a6d77655f1404a658a747fa3f6" target="_top" xlink:title=" ">
<polygon fill="white" stroke="#666666" points="278,-264 192,-264 192,-245 278,-245 278,-264"/>
<text text-anchor="middle" x="235" y="-252" font-family="Helvetica,sans-Serif" font-size="10.00">ATruck::Spawn</text>
</a>
</g>
</g>
<!-- Node10&#45;&gt;Node11 -->
<g id="edge12_Node000010_Node000011" class="edge">
<title>Node10&#45;&gt;Node11</title>
<g id="a_edge12_Node000010_Node000011"><a xlink:title=" ">
<path fill="none" stroke="#63b8ff" d="M351.41,-254.5C327.79,-254.5 300.31,-254.5 278.09,-254.5"/>
<polygon fill="#63b8ff" stroke="#63b8ff" points="351.61,-258 361.61,-254.5 351.61,-251 351.61,-258"/>
</a>
</g>
</g>
<!-- Node11&#45;&gt;Node5 -->
<g id="edge13_Node000011_Node000005" class="edge">
<title>Node11&#45;&gt;Node5</title>
<g id="a_edge13_Node000011_Node000005"><a xlink:title=" ">
<path fill="none" stroke="#63b8ff" d="M181.32,-260.32C168.16,-261.77 153.84,-263.35 140.02,-264.88"/>
<polygon fill="#63b8ff" stroke="#63b8ff" points="182.04,-263.76 191.6,-259.18 181.28,-256.8 182.04,-263.76"/>
</a>
</g>
</g>
<!-- Node13 -->
<g id="Node000013" class="node">
<title>Node13</title>
<g id="a_Node000013"><a xlink:href="code__80005FD0_8c.html#a3dbfe2d211c050114533e7681ca66ee1" target="_top" xlink:title=" ">
<polygon fill="white" stroke="#666666" points="473.5,-623 336.5,-623 336.5,-604 473.5,-604 473.5,-623"/>
<text text-anchor="middle" x="405" y="-611" font-family="Helvetica,sans-Serif" font-size="10.00">init_vehicles_box_trucks</text>
</a>
</g>
</g>
<!-- Node12&#45;&gt;Node13 -->
<g id="edge15_Node000012_Node000013" class="edge">
<title>Node12&#45;&gt;Node13</title>
<g id="a_edge15_Node000012_Node000013"><a xlink:title=" ">
<path fill="none" stroke="#63b8ff" d="M539.21,-653.67C520.92,-646.57 499.63,-638.72 480,-632.5 469.25,-629.09 457.48,-625.86 446.56,-623.05"/>
<polygon fill="#63b8ff" stroke="#63b8ff" points="538.16,-657.02 548.75,-657.41 540.71,-650.51 538.16,-657.02"/>
</a>
</g>
</g>
<!-- Node14 -->
<g id="Node000014" class="node">
<title>Node14</title>
<g id="a_Node000014"><a xlink:href="code__80005FD0_8c.html#a18b1873671315cc770b401dbf911e944" target="_top" xlink:title=" ">
<polygon fill="white" stroke="#666666" points="457,-746 353,-746 353,-727 457,-727 457,-746"/>
<text text-anchor="middle" x="405" y="-734" font-family="Helvetica,sans-Serif" font-size="10.00">init_vehicles_cars</text>
</a>
</g>
</g>
<!-- Node12&#45;&gt;Node14 -->
<g id="edge16_Node000012_Node000014" class="edge">
<title>Node12&#45;&gt;Node14</title>
<g id="a_edge16_Node000012_Node000014"><a xlink:title=" ">
<path fill="none" stroke="#63b8ff" d="M544.29,-691.8C525.03,-700.37 501.61,-710.16 480,-717.5 469.7,-721 458.41,-724.2 447.81,-726.94"/>
<polygon fill="#63b8ff" stroke="#63b8ff" points="545.99,-694.87 553.67,-687.58 543.12,-688.49 545.99,-694.87"/>
</a>
</g>
</g>
<!-- Node15 -->
<g id="Node000015" class="node">
<title>Node15</title>
<g id="a_Node000015"><a xlink:href="code__80005FD0_8c.html#a349a6a78e11cf0fbeb1871785fc1bffe" target="_top" xlink:title=" ">
<polygon fill="white" stroke="#666666" points="462.5,-708.5 347.5,-708.5 347.5,-678.5 462.5,-678.5 462.5,-708.5"/>
<text text-anchor="start" x="355.5" y="-696.5" font-family="Helvetica,sans-Serif" font-size="10.00">init_vehicles_school</text>
<text text-anchor="middle" x="405" y="-685.5" font-family="Helvetica,sans-Serif" font-size="10.00">_buses</text>
</a>
</g>
</g>
<!-- Node12&#45;&gt;Node15 -->
<g id="edge17_Node000012_Node000015" class="edge">
<title>Node12&#45;&gt;Node15</title>
<g id="a_edge17_Node000012_Node000015"><a xlink:title=" ">
<path fill="none" stroke="#63b8ff" d="M508.42,-681.52C493.08,-683.31 477.24,-685.17 462.73,-686.86"/>
<polygon fill="#63b8ff" stroke="#63b8ff" points="508.88,-684.99 518.41,-680.35 508.07,-678.04 508.88,-684.99"/>
</a>
</g>
</g>
<!-- Node16 -->
<g id="Node000016" class="node">
<title>Node16</title>
<g id="a_Node000016"><a xlink:href="code__80005FD0_8c.html#af60d8a9bd8b6d0685b0ecc0cd804ca6c" target="_top" xlink:title=" ">
<polygon fill="white" stroke="#666666" points="461.5,-660 348.5,-660 348.5,-641 461.5,-641 461.5,-660"/>
<text text-anchor="middle" x="405" y="-648" font-family="Helvetica,sans-Serif" font-size="10.00">init_vehicles_trucks</text>
</a>
</g>
</g>
<!-- Node12&#45;&gt;Node16 -->
<g id="edge18_Node000012_Node000016" class="edge">
<title>Node12&#45;&gt;Node16</title>
<g id="a_edge18_Node000012_Node000016"><a xlink:title=" ">
<path fill="none" stroke="#63b8ff" d="M508.2,-663.03C492.52,-661.1 476.33,-659.12 461.58,-657.31"/>
<polygon fill="#63b8ff" stroke="#63b8ff" points="508.05,-666.53 518.41,-664.28 508.91,-659.59 508.05,-666.53"/>
</a>
</g>
</g>
<!-- Node17&#45;&gt;Node3 -->
<g id="edge20_Node000017_Node000003" class="edge">
<title>Node17&#45;&gt;Node3</title>
<g id="a_edge20_Node000017_Node000003"><a xlink:title=" ">
<path fill="none" stroke="#63b8ff" d="M526.28,-240.95C498.06,-235.45 465.26,-229.06 441.05,-224.33"/>
<polygon fill="#63b8ff" stroke="#63b8ff" points="525.97,-244.46 536.45,-242.94 527.31,-237.59 525.97,-244.46"/>
</a>
</g>
</g>
<!-- Node17&#45;&gt;Node6 -->
<g id="edge21_Node000017_Node000006" class="edge">
<title>Node17&#45;&gt;Node6</title>
<g id="a_edge21_Node000017_Node000006"><a xlink:title=" ">
<path fill="none" stroke="#63b8ff" d="M562.61,-267.41C541.8,-280.39 509.87,-298.89 480,-310.5 467.18,-315.48 452.57,-319.39 439.73,-322.27"/>
<polygon fill="#63b8ff" stroke="#63b8ff" points="564.5,-270.35 571.08,-262.05 560.76,-264.44 564.5,-270.35"/>
</a>
</g>
</g>
<!-- Node17&#45;&gt;Node8 -->
<g id="edge22_Node000017_Node000008" class="edge">
<title>Node17&#45;&gt;Node8</title>
<g id="a_edge22_Node000017_Node000008"><a xlink:title=" ">
<path fill="none" stroke="#63b8ff" d="M531.81,-264.16C505.62,-269.86 474.5,-276.62 449.77,-281.99"/>
<polygon fill="#63b8ff" stroke="#63b8ff" points="532.56,-267.58 541.59,-262.04 531.07,-260.74 532.56,-267.58"/>
</a>
</g>
</g>
<!-- Node17&#45;&gt;Node10 -->
<g id="edge23_Node000017_Node000010" class="edge">
<title>Node17&#45;&gt;Node10</title>
<g id="a_edge23_Node000017_Node000010"><a xlink:title=" ">
<path fill="none" stroke="#63b8ff" d="M509.71,-253.34C488.67,-253.58 466.58,-253.83 448.22,-254.03"/>
<polygon fill="#63b8ff" stroke="#63b8ff" points="509.97,-256.84 519.93,-253.23 509.9,-249.84 509.97,-256.84"/>
</a>
</g>
</g>
<!-- Node23 -->
<g id="Node000023" class="node">
<title>Node23</title>
<g id="a_Node000023"><a xlink:href="code__80005FD0_8c.html#a46fda4504f406f2374a5de6ea0e623a8" target="_top" xlink:title=" ">
<polygon fill="white" stroke="#666666" points="462,-67.5 348,-67.5 348,-37.5 462,-37.5 462,-67.5"/>
<text text-anchor="start" x="356" y="-55.5" font-family="Helvetica,sans-Serif" font-size="10.00">update_vehicle_box</text>
<text text-anchor="middle" x="405" y="-44.5" font-family="Helvetica,sans-Serif" font-size="10.00">_trucks</text>
</a>
</g>
</g>
<!-- Node22&#45;&gt;Node23 -->
<g id="edge29_Node000022_Node000023" class="edge">
<title>Node22&#45;&gt;Node23</title>
<g id="a_edge29_Node000022_Node000023"><a xlink:title=" ">
<path fill="none" stroke="#63b8ff" d="M524.73,-114.22C521.73,-112.74 518.8,-111.17 516,-109.5 497.35,-98.39 498.75,-87.43 480,-76.5 474.17,-73.1 467.79,-70.11 461.3,-67.5"/>
<polygon fill="#63b8ff" stroke="#63b8ff" points="523.38,-117.45 533.94,-118.39 526.27,-111.07 523.38,-117.45"/>
</a>
</g>
</g>
<!-- Node24 -->
<g id="Node000024" class="node">
<title>Node24</title>
<g id="a_Node000024"><a xlink:href="code__80005FD0_8c.html#a94fbb4c25911b6d5620c4b560898833f" target="_top" xlink:title=" ">
<polygon fill="white" stroke="#666666" points="463,-190 347,-190 347,-171 463,-171 463,-190"/>
<text text-anchor="middle" x="405" y="-178" font-family="Helvetica,sans-Serif" font-size="10.00">update_vehicle_cars</text>
</a>
</g>
</g>
<!-- Node22&#45;&gt;Node24 -->
<g id="edge30_Node000022_Node000024" class="edge">
<title>Node22&#45;&gt;Node24</title>
<g id="a_edge30_Node000022_Node000024"><a xlink:title=" ">
<path fill="none" stroke="#63b8ff" d="M522,-151.28C508.18,-155.06 493.61,-158.97 480,-162.5 469.12,-165.32 457.31,-168.25 446.38,-170.91"/>
<polygon fill="#63b8ff" stroke="#63b8ff" points="523.2,-154.58 531.91,-148.56 521.34,-147.83 523.2,-154.58"/>
</a>
</g>
</g>
<!-- Node25 -->
<g id="Node000025" class="node">
<title>Node25</title>
<g id="a_Node000025"><a xlink:href="code__80005FD0_8c.html#a787304a085fd2a0f8002cf74f3d537a8" target="_top" xlink:title=" ">
<polygon fill="white" stroke="#666666" points="480,-153 330,-153 330,-134 480,-134 480,-153"/>
<text text-anchor="middle" x="405" y="-141" font-family="Helvetica,sans-Serif" font-size="10.00">update_vehicle_school_bus</text>
</a>
</g>
</g>
<!-- Node22&#45;&gt;Node25 -->
<g id="edge31_Node000022_Node000025" class="edge">
<title>Node22&#45;&gt;Node25</title>
<g id="a_edge31_Node000022_Node000025"><a xlink:title=" ">
<path fill="none" stroke="#63b8ff" d="M513.16,-137.53C502.27,-138.14 491.02,-138.76 480.09,-139.37"/>
<polygon fill="#63b8ff" stroke="#63b8ff" points="513.69,-141.01 523.47,-136.96 513.3,-134.02 513.69,-141.01"/>
</a>
</g>
</g>
<!-- Node26 -->
<g id="Node000026" class="node">
<title>Node26</title>
<g id="a_Node000026"><a xlink:href="code__80005FD0_8c.html#a31895d8d4cc5138b65ec7587e833034b" target="_top" xlink:title=" ">
<polygon fill="white" stroke="#666666" points="468.5,-115.5 341.5,-115.5 341.5,-85.5 468.5,-85.5 468.5,-115.5"/>
<text text-anchor="start" x="349.5" y="-103.5" font-family="Helvetica,sans-Serif" font-size="10.00">update_vehicle_tanker</text>
<text text-anchor="middle" x="405" y="-92.5" font-family="Helvetica,sans-Serif" font-size="10.00">_trucks</text>
</a>
</g>
</g>
<!-- Node22&#45;&gt;Node26 -->
<g id="edge32_Node000022_Node000026" class="edge">
<title>Node22&#45;&gt;Node26</title>
<g id="a_edge32_Node000022_Node000026"><a xlink:title=" ">
<path fill="none" stroke="#63b8ff" d="M513.35,-120.24C498.55,-117.51 483.07,-114.67 468.64,-112.02"/>
<polygon fill="#63b8ff" stroke="#63b8ff" points="513.01,-123.73 523.47,-122.1 514.27,-116.85 513.01,-123.73"/>
</a>
</g>
</g>
<!-- Node27&#45;&gt;Node3 -->
<g id="edge34_Node000027_Node000003" class="edge">
<title>Node27&#45;&gt;Node3</title>
<g id="a_edge34_Node000027_Node000003"><a xlink:title=" ">
<path fill="none" stroke="#63b8ff" d="M697.1,-294.73C695.67,-293.72 694.29,-292.65 693,-291.5 666.83,-268.29 686.72,-239.96 657,-221.5 589.44,-179.53 490.64,-195.37 439.48,-207.92"/>
<polygon fill="#63b8ff" stroke="#63b8ff" points="695.43,-297.81 705.84,-299.82 698.95,-291.76 695.43,-297.81"/>
</a>
</g>
</g>
<!-- Node27&#45;&gt;Node6 -->
<g id="edge35_Node000027_Node000006" class="edge">
<title>Node27&#45;&gt;Node6</title>
<g id="a_edge35_Node000027_Node000006"><a xlink:title=" ">
<path fill="none" stroke="#63b8ff" d="M686.31,-312.79C676.54,-313.37 666.47,-313.96 657,-314.5 579.22,-318.97 487.88,-324.01 439.7,-326.66"/>
<polygon fill="#63b8ff" stroke="#63b8ff" points="686.56,-316.28 696.33,-312.2 686.14,-309.3 686.56,-316.28"/>
</a>
</g>
</g>
<!-- Node27&#45;&gt;Node8 -->
<g id="edge36_Node000027_Node000008" class="edge">
<title>Node27&#45;&gt;Node8</title>
<g id="a_edge36_Node000027_Node000008"><a xlink:title=" ">
<path fill="none" stroke="#63b8ff" d="M686.1,-306.53C629.69,-303.5 541.92,-298.79 479.68,-295.45"/>
<polygon fill="#63b8ff" stroke="#63b8ff" points="686.08,-310.03 696.25,-307.07 686.45,-303.04 686.08,-310.03"/>
</a>
</g>
</g>
<!-- Node27&#45;&gt;Node10 -->
<g id="edge37_Node000027_Node000010" class="edge">
<title>Node27&#45;&gt;Node10</title>
<g id="a_edge37_Node000027_Node000010"><a xlink:title=" ">
<path fill="none" stroke="#63b8ff" d="M697.98,-295.07C696.24,-293.96 694.57,-292.77 693,-291.5 669.73,-272.63 683.24,-248.96 657,-234.5 622.16,-215.3 510,-233.51 448.06,-245.64"/>
<polygon fill="#63b8ff" stroke="#63b8ff" points="696.64,-298.32 707.1,-299.97 699.95,-292.16 696.64,-298.32"/>
</a>
</g>
</g>
<!-- Node27&#45;&gt;Node12 -->
<g id="edge40_Node000027_Node000012" class="edge">
<title>Node27&#45;&gt;Node12</title>
<g id="a_edge40_Node000027_Node000012"><a xlink:title=" ">
<path fill="none" stroke="#63b8ff" d="M733.43,-328.52C706.27,-392.53 618.53,-599.35 593.95,-657.29"/>
<polygon fill="#63b8ff" stroke="#63b8ff" points="736.7,-329.78 737.38,-319.21 730.25,-327.05 736.7,-329.78"/>
</a>
</g>
</g>
<!-- Node27&#45;&gt;Node17 -->
<g id="edge41_Node000027_Node000017" class="edge">
<title>Node27&#45;&gt;Node17</title>
<g id="a_edge41_Node000027_Node000017"><a xlink:title=" ">
<path fill="none" stroke="#63b8ff" d="M705.87,-296.46C701.53,-294.82 697.15,-293.14 693,-291.5 676.87,-285.15 673.2,-282.67 657,-276.5 643.76,-271.46 628.93,-266.28 616.39,-262.03"/>
<polygon fill="#63b8ff" stroke="#63b8ff" points="704.66,-299.74 715.25,-299.97 707.11,-293.19 704.66,-299.74"/>
</a>
</g>
</g>
<!-- Node27&#45;&gt;Node18 -->
<g id="edge42_Node000027_Node000018" class="edge">
<title>Node27&#45;&gt;Node18</title>
<g id="a_edge42_Node000027_Node000018"><a xlink:title=" ">
<path fill="none" stroke="#63b8ff" d="M736.03,-328.96C725.94,-361.18 701.28,-425.45 657,-459.5 646.63,-467.48 633.07,-471.94 620.69,-474.43"/>
<polygon fill="#63b8ff" stroke="#63b8ff" points="739.39,-329.93 738.9,-319.35 732.68,-327.93 739.39,-329.93"/>
</a>
</g>
</g>
<!-- Node27&#45;&gt;Node19 -->
<g id="edge43_Node000027_Node000019" class="edge">
<title>Node27&#45;&gt;Node19</title>
<g id="a_edge43_Node000027_Node000019"><a xlink:title=" ">
<path fill="none" stroke="#63b8ff" d="M732.54,-328.38C719.51,-353.74 692.93,-398.38 657,-422.5 646.03,-429.86 632.23,-434.21 619.82,-436.79"/>
<polygon fill="#63b8ff" stroke="#63b8ff" points="735.83,-329.62 737.14,-319.11 729.56,-326.51 735.83,-329.62"/>
</a>
</g>
</g>
<!-- Node27&#45;&gt;Node20 -->
<g id="edge44_Node000027_Node000020" class="edge">
<title>Node27&#45;&gt;Node20</title>
<g id="a_edge44_Node000027_Node000020"><a xlink:title=" ">
<path fill="none" stroke="#63b8ff" d="M726.95,-326.74C711.37,-344.1 685.08,-370.41 657,-385.5 650.63,-388.92 643.58,-391.72 636.49,-393.99"/>
<polygon fill="#63b8ff" stroke="#63b8ff" points="729.75,-328.85 733.7,-319.02 724.48,-324.25 729.75,-328.85"/>
</a>
</g>
</g>
<!-- Node27&#45;&gt;Node21 -->
<g id="edge45_Node000027_Node000021" class="edge">
<title>Node27&#45;&gt;Node21</title>
<g id="a_edge45_Node000027_Node000021"><a xlink:title=" ">
<path fill="none" stroke="#63b8ff" d="M707.91,-322.97C692.46,-329.08 673.85,-336.3 657,-342.5 643.58,-347.43 628.6,-352.65 615.99,-356.95"/>
<polygon fill="#63b8ff" stroke="#63b8ff" points="709.55,-326.09 717.56,-319.14 706.97,-319.58 709.55,-326.09"/>
</a>
</g>
</g>
<!-- Node27&#45;&gt;Node22 -->
<g id="edge47_Node000027_Node000022" class="edge">
<title>Node27&#45;&gt;Node22</title>
<g id="a_edge47_Node000027_Node000022"><a xlink:title=" ">
<path fill="none" stroke="#63b8ff" d="M695.83,-294.25C694.84,-293.38 693.89,-292.47 693,-291.5 652.7,-247.7 696.42,-207.1 657,-162.5 651.98,-156.82 645.66,-152.22 638.9,-148.51"/>
<polygon fill="#63b8ff" stroke="#63b8ff" points="693.98,-297.22 704.21,-299.97 697.93,-291.44 693.98,-297.22"/>
</a>
</g>
</g>
<!-- Node28 -->
<g id="Node000028" class="node">
<title>Node28</title>
<g id="a_Node000028"><a xlink:href="classOSeagull.html#afb8d3fd824adf5e5edbf698c94f59111" target="_top" xlink:title=" ">
<polygon fill="white" stroke="#666666" points="657,-41 516,-41 516,-22 657,-22 657,-41"/>
<text text-anchor="middle" x="586.5" y="-29" font-family="Helvetica,sans-Serif" font-size="10.00">OSeagull::func_8008275C</text>
</a>
</g>
</g>
<!-- Node27&#45;&gt;Node28 -->
<g id="edge38_Node000027_Node000028" class="edge">
<title>Node27&#45;&gt;Node28</title>
<g id="a_edge38_Node000027_Node000028"><a xlink:title=" ">
<path fill="none" stroke="#63b8ff" d="M694.89,-293.6C694.23,-292.93 693.6,-292.23 693,-291.5 630.02,-215.01 713.38,-152.97 657,-71.5 647.18,-57.3 630.56,-47.48 616.04,-41.12"/>
<polygon fill="#63b8ff" stroke="#63b8ff" points="692.84,-296.43 702.9,-299.75 697.11,-290.88 692.84,-296.43"/>
</a>
</g>
</g>
<!-- Node30 -->
<g id="Node000030" class="node">
<title>Node30</title>
<g id="a_Node000030"><a xlink:href="classOChainChomp.html#afdcecc46c8c4ff9245a00ace65733d3e" target="_top" xlink:title=" ">
<polygon fill="white" stroke="#666666" points="643,-100 530,-100 530,-81 643,-81 643,-100"/>
<text text-anchor="middle" x="586.5" y="-88" font-family="Helvetica,sans-Serif" font-size="10.00">OChainChomp::Tick</text>
</a>
</g>
</g>
<!-- Node27&#45;&gt;Node30 -->
<g id="edge46_Node000027_Node000030" class="edge">
<title>Node27&#45;&gt;Node30</title>
<g id="a_edge46_Node000027_Node000030"><a xlink:title=" ">
<path fill="none" stroke="#63b8ff" d="M695.31,-293.94C694.5,-293.17 693.73,-292.35 693,-291.5 639.54,-228.72 713.18,-169.85 657,-109.5 653.08,-105.29 648.32,-101.98 643.16,-99.38"/>
<polygon fill="#63b8ff" stroke="#63b8ff" points="693.35,-296.85 703.48,-299.93 697.49,-291.2 693.35,-296.85"/>
</a>
</g>
</g>
<!-- Node29 -->
<g id="Node000029" class="node">
<title>Node29</title>
<g id="a_Node000029"><a xlink:href="classOSeagull.html#a86b5da4447db382837540ab7dc34c95a" target="_top" xlink:title=" ">
<polygon fill="white" stroke="#666666" points="448,-19 362,-19 362,0 448,0 448,-19"/>
<text text-anchor="middle" x="405" y="-7" font-family="Helvetica,sans-Serif" font-size="10.00">OSeagull::Tick</text>
</a>
</g>
</g>
<!-- Node28&#45;&gt;Node29 -->
<g id="edge39_Node000028_Node000029" class="edge">
<title>Node28&#45;&gt;Node29</title>
<g id="a_edge39_Node000028_Node000029"><a xlink:title=" ">
<path fill="none" stroke="#63b8ff" d="M505.83,-21.74C485.94,-19.3 465.37,-16.78 448.11,-14.66"/>
<polygon fill="#63b8ff" stroke="#63b8ff" points="505.49,-25.22 515.84,-22.96 506.34,-18.27 505.49,-25.22"/>
</a>
</g>
</g>
</g>
</svg>

<g id="navigator" transform="translate(0 0)" fill="#404254">
  <rect fill="#f2f5e9" fill-opacity="0.5" stroke="#606060" stroke-width=".5" x="0" y="0" width="60" height="60"/>
  <use id="zoomplus" xlink:href="#zoomPlus" x="17" y="9" onmousedown="handleZoom(evt,'in')"/>
  <use id="zoomminus" xlink:href="#zoomMin" x="42" y="9" onmousedown="handleZoom(evt,'out')"/>
  <use id="reset" xlink:href="#resetDef" x="30" y="36" onmousedown="handleReset()"/>
   <use id="arrowup" xlink:href="#arrowUp" x="0" y="0" onmousedown="handlePan(0,-1)"/>
  <use id="arrowright" xlink:href="#arrowRight" x="0" y="0" onmousedown="handlePan(1,0)"/>
  <use id="arrowdown" xlink:href="#arrowDown" x="0" y="0" onmousedown="handlePan(0,1)"/>
  <use id="arrowleft" xlink:href="#arrowLeft" x="0" y="0" onmousedown="handlePan(-1,0)"/>
</g>
<svg viewBox="0 0 15 15" width="100%" height="30px" preserveAspectRatio="xMaxYMin meet">
 <g id="arrow_out" transform="scale(0.3 0.3)">
  <a xlink:href="code__80005FD0_8h_a11eaf7a6aae1c87f72f266c398e6d398_icgraph_org.svg" target="_base">
   <rect id="button" ry="5" rx="5" y="6" x="6" height="38" width="38"
        fill="#f2f5e9" fill-opacity="0.5" stroke="#606060" stroke-width="1.0"/>
   <path id="arrow"
     d="M 11.500037,31.436501 C 11.940474,20.09759 22.043105,11.32322 32.158766,21.979434 L 37.068811,17.246167 C 37.068811,17.246167 37.088388,32 37.088388,32 L 22.160133,31.978069 C 22.160133,31.978069 26.997745,27.140456 26.997745,27.140456 C 18.528582,18.264221 13.291696,25.230495 11.500037,31.436501 z"
     style="fill:#404040;"/>
  </a>
 </g>
</svg>

<style type='text/css'>
<![CDATA[
[data-mouse-over-selected='false'] { opacity: 0.7; }
[data-mouse-over-selected='true']  { opacity: 1.0; }
]]>
</style>
<script type="application/ecmascript"><![CDATA[
document.addEventListener('DOMContentLoaded', (event) => {
  highlightEdges();
  highlightAdjacentNodes();
});
]]></script>
</svg>
