<?xml version="1.0" encoding="UTF-8" standalone="no"?>
<!DOCTYPE svg PUBLIC "-//W3C//DTD SVG 1.1//EN"
 "http://www.w3.org/Graphics/SVG/1.1/DTD/svg11.dtd">
<!-- Generated by graphviz version 2.43.0 (0)
 -->
<!-- Title: set_vehicle_pos_path_point Pages: 1 -->
<svg width="264pt" height="64pt"
 viewBox="0.00 0.00 264.00 64.00" xmlns="http://www.w3.org/2000/svg" xmlns:xlink="http://www.w3.org/1999/xlink">
<g id="graph0" class="graph" transform="scale(1 1) rotate(0) translate(4 60)">
<title>set_vehicle_pos_path_point</title>
<!-- Node1 -->
<g id="Node000001" class="node">
<title>Node1</title>
<g id="a_Node000001"><a xlink:title=" ">
<polygon fill="#999999" stroke="#666666" points="122,-42.5 0,-42.5 0,-12.5 122,-12.5 122,-42.5"/>
<text text-anchor="start" x="8" y="-30.5" font-family="Helvetica,sans-Serif" font-size="10.00">set_vehicle_pos_path</text>
<text text-anchor="middle" x="61" y="-19.5" font-family="Helvetica,sans-Serif" font-size="10.00">_point</text>
</a>
</g>
</g>
<!-- Node2 -->
<g id="Node000002" class="node">
<title>Node2</title>
<g id="a_Node000002"><a xlink:href="Game_8cpp.html#a545c1a384e93cc7b616dfee707f5d962" target="_top" xlink:title=" ">
<polygon fill="white" stroke="#666666" points="241,-56 173,-56 173,-37 241,-37 241,-56"/>
<text text-anchor="middle" x="207" y="-44" font-family="Helvetica,sans-Serif" font-size="10.00">IsDkJungle</text>
</a>
</g>
</g>
<!-- Node1&#45;&gt;Node2 -->
<g id="edge1_Node000001_Node000002" class="edge">
<title>Node1&#45;&gt;Node2</title>
<g id="a_edge1_Node000001_Node000002"><a xlink:title=" ">
<path fill="none" stroke="#63b8ff" d="M122.23,-35.45C135.72,-37.23 149.78,-39.08 162.43,-40.75"/>
<polygon fill="#63b8ff" stroke="#63b8ff" points="162.32,-44.27 172.69,-42.11 163.24,-37.33 162.32,-44.27"/>
</a>
</g>
</g>
<!-- Node3 -->
<g id="Node000003" class="node">
<title>Node3</title>
<g id="a_Node000003"><a xlink:href="Game_8cpp.html#ad474b8b257813cceeae25ab5205273c4" target="_top" xlink:title=" ">
<polygon fill="white" stroke="#666666" points="256,-19 158,-19 158,0 256,0 256,-19"/>
<text text-anchor="middle" x="207" y="-7" font-family="Helvetica,sans-Serif" font-size="10.00">IsKalimariDesert</text>
</a>
</g>
</g>
<!-- Node1&#45;&gt;Node3 -->
<g id="edge2_Node000001_Node000003" class="edge">
<title>Node1&#45;&gt;Node3</title>
<g id="a_edge2_Node000001_Node000003"><a xlink:title=" ">
<path fill="none" stroke="#63b8ff" d="M122.23,-19.97C130.67,-18.92 139.33,-17.83 147.73,-16.78"/>
<polygon fill="#63b8ff" stroke="#63b8ff" points="148.33,-20.24 157.82,-15.52 147.46,-13.29 148.33,-20.24"/>
</a>
</g>
</g>
</g>
</svg>
