<?xml version="1.0" encoding="UTF-8" standalone="no"?>
<!DOCTYPE svg PUBLIC "-//W3C//DTD SVG 1.1//EN"
 "http://www.w3.org/Graphics/SVG/1.1/DTD/svg11.dtd">
<!-- Generated by graphviz version 2.43.0 (0)
 -->
<!-- Title: func_8000D6D0 Pages: 1 -->
<!--zoomable 492 -->

<svg id="main" version="1.1" xmlns="http://www.w3.org/2000/svg" xmlns:xlink="http://www.w3.org/1999/xlink" xml:space="preserve" onload="init(evt)">

<style type="text/css"><![CDATA[
.node, .edge {opacity: 0.7;}
.node.selected, .edge.selected {opacity: 1;}
.edge:hover path { stroke: red; }
.edge:hover polygon { stroke: red; fill: red; }
]]></style>

<defs>
  <circle id="rim" cx="0" cy="0" r="7"/>
  <circle id="rim2" cx="0" cy="0" r="3.5"/>
  <g id="zoomPlus">
    <use xlink:href="#rim" fill="#404040"><set attributeName="fill" to="#808080" begin="zoomplus.mouseover" end="zoomplus.mouseout"/></use>
    <path d="M-4,0h8M0,-4v8" fill="none" stroke="white" stroke-width="1.5" pointer-events="none"/>
  </g>
  <g id="zoomMin">
    <use xlink:href="#rim" fill="#404040"><set attributeName="fill" to="#808080" begin="zoomminus.mouseover" end="zoomminus.mouseout"/></use>
    <path d="M-4,0h8" fill="none" stroke="white" stroke-width="1.5" pointer-events="none"/>
  </g>
  <g id="arrowUp" transform="translate(30 24)">
    <use xlink:href="#rim"/>
    <path pointer-events="none" fill="none" stroke="white" stroke-width="1.5" d="M0,-3.0v7 M-2.5,-0.5L0,-3.0L2.5,-0.5"/>
  </g>
  <g id="arrowRight" transform="rotate(90) translate(36 -43)">
    <use xlink:href="#rim"/>
    <path pointer-events="none" fill="none" stroke="white" stroke-width="1.5" d="M0,-3.0v7 M-2.5,-0.5L0,-3.0L2.5,-0.5"/>
  </g>
  <g id="arrowDown" transform="rotate(180) translate(-30 -48)">
    <use xlink:href="#rim"/>
    <path pointer-events="none" fill="none" stroke="white" stroke-width="1.5" d="M0,-3.0v7 M-2.5,-0.5L0,-3.0L2.5,-0.5"/>
  </g>
  <g id="arrowLeft" transform="rotate(270) translate(-36 17)">
    <use xlink:href="#rim"/>
    <path pointer-events="none" fill="none" stroke="white" stroke-width="1.5" d="M0,-3.0v7 M-2.5,-0.5L0,-3.0L2.5,-0.5"/>
  </g>
  <g id="resetDef">
    <use xlink:href="#rim2" fill="#404040"><set attributeName="fill" to="#808080" begin="reset.mouseover" end="reset.mouseout"/></use>
  </g>
</defs>
<script type="application/ecmascript">
var viewWidth = 790;
var viewHeight = 492;
var sectionId = 'dynsection-64';
</script>
<script type="application/ecmascript" xlink:href="svg.min.js"/>
<svg id="graph" class="graph">
<g id="viewport">
<title>func_8000D6D0</title>
<!-- Node1 -->
<g id="Node000001" class="node">
<title>Node1</title>
<g id="a_Node000001"><a xlink:title=" ">
<polygon fill="#999999" stroke="#666666" points="782,-290.5 688,-290.5 688,-271.5 782,-271.5 782,-290.5"/>
<text text-anchor="middle" x="735" y="-278.5" font-family="Helvetica,sans-Serif" font-size="10.00">func_8000D6D0</text>
</a>
</g>
</g>
<!-- Node2 -->
<g id="Node000002" class="node">
<title>Node2</title>
<g id="a_Node000002"><a xlink:href="classABus.html#aabc43c4a5a7c5acc7daa5e89f9d42cdb" target="_top" xlink:title=" ">
<polygon fill="white" stroke="#666666" points="441,-481.5 369,-481.5 369,-462.5 441,-462.5 441,-481.5"/>
<text text-anchor="middle" x="405" y="-469.5" font-family="Helvetica,sans-Serif" font-size="10.00">ABus::ABus</text>
</a>
</g>
</g>
<!-- Node1&#45;&gt;Node2 -->
<g id="edge1_Node000001_Node000002" class="edge">
<title>Node1&#45;&gt;Node2</title>
<g id="a_edge1_Node000001_Node000002"><a xlink:title=" ">
<path fill="none" stroke="#63b8ff" d="M730.67,-300.87C723.46,-336.96 702.79,-412.82 652,-448 588.51,-491.98 492.68,-485.98 441.38,-478.54"/>
<polygon fill="#63b8ff" stroke="#63b8ff" points="734.18,-301.12 732.55,-290.65 727.3,-299.85 734.18,-301.12"/>
</a>
</g>
</g>
<!-- Node5 -->
<g id="Node000005" class="node">
<title>Node5</title>
<g id="a_Node000005"><a xlink:href="classACar.html#a7c537f8a1af7c93b57a6fbf2f52a894d" target="_top" xlink:title=" ">
<polygon fill="white" stroke="#666666" points="439.5,-444.5 370.5,-444.5 370.5,-425.5 439.5,-425.5 439.5,-444.5"/>
<text text-anchor="middle" x="405" y="-432.5" font-family="Helvetica,sans-Serif" font-size="10.00">ACar::ACar</text>
</a>
</g>
</g>
<!-- Node1&#45;&gt;Node5 -->
<g id="edge4_Node000001_Node000005" class="edge">
<title>Node1&#45;&gt;Node5</title>
<g id="a_edge4_Node000001_Node000005"><a xlink:title=" ">
<path fill="none" stroke="#63b8ff" d="M728.88,-300.2C719.47,-331.3 696.21,-391.91 652,-419 585.77,-459.59 489.8,-450.67 439.55,-442.04"/>
<polygon fill="#63b8ff" stroke="#63b8ff" points="732.26,-301.12 731.65,-290.54 725.53,-299.19 732.26,-301.12"/>
</a>
</g>
</g>
<!-- Node7 -->
<g id="Node000007" class="node">
<title>Node7</title>
<g id="a_Node000007"><a xlink:href="classATankerTruck.html#a09577845d0c017bc5845b1cac44b5078" target="_top" xlink:title=" ">
<polygon fill="white" stroke="#666666" points="479.5,-407.5 330.5,-407.5 330.5,-388.5 479.5,-388.5 479.5,-407.5"/>
<text text-anchor="middle" x="405" y="-395.5" font-family="Helvetica,sans-Serif" font-size="10.00">ATankerTruck::ATankerTruck</text>
</a>
</g>
</g>
<!-- Node1&#45;&gt;Node7 -->
<g id="edge7_Node000001_Node000007" class="edge">
<title>Node1&#45;&gt;Node7</title>
<g id="a_edge7_Node000001_Node000007"><a xlink:title=" ">
<path fill="none" stroke="#63b8ff" d="M713.83,-296.6C697.83,-308.33 674.49,-324.02 652,-334 590.48,-361.29 514.96,-378.78 463.95,-388.46"/>
<polygon fill="#63b8ff" stroke="#63b8ff" points="716,-299.35 721.92,-290.56 711.81,-293.74 716,-299.35"/>
</a>
</g>
</g>
<!-- Node9 -->
<g id="Node000009" class="node">
<title>Node9</title>
<g id="a_Node000009"><a xlink:href="classATruck.html#a8b5a611d66bd00a6ddf86eec0920a583" target="_top" xlink:title=" ">
<polygon fill="white" stroke="#666666" points="448,-370.5 362,-370.5 362,-351.5 448,-351.5 448,-370.5"/>
<text text-anchor="middle" x="405" y="-358.5" font-family="Helvetica,sans-Serif" font-size="10.00">ATruck::ATruck</text>
</a>
</g>
</g>
<!-- Node1&#45;&gt;Node9 -->
<g id="edge10_Node000001_Node000009" class="edge">
<title>Node1&#45;&gt;Node9</title>
<g id="a_edge10_Node000001_Node000009"><a xlink:title=" ">
<path fill="none" stroke="#63b8ff" d="M693.27,-293.45C680.15,-297.32 665.5,-301.49 652,-305 580.99,-323.46 497.59,-341.73 448.41,-352.17"/>
<polygon fill="#63b8ff" stroke="#63b8ff" points="694.39,-296.77 702.97,-290.57 692.39,-290.06 694.39,-296.77"/>
</a>
</g>
</g>
<!-- Node11 -->
<g id="Node000011" class="node">
<title>Node11</title>
<g id="a_Node000011"><a xlink:href="code__80005FD0_8c.html#af8068c46ce72dbd5b61790d355728cff" target="_top" xlink:title=" ">
<polygon fill="white" stroke="#666666" points="652,-296 516,-296 516,-266 652,-266 652,-296"/>
<text text-anchor="start" x="524" y="-284" font-family="Helvetica,sans-Serif" font-size="10.00">initialize_toads_turnpike</text>
<text text-anchor="middle" x="584" y="-273" font-family="Helvetica,sans-Serif" font-size="10.00">_vehicle</text>
</a>
</g>
</g>
<!-- Node1&#45;&gt;Node11 -->
<g id="edge13_Node000001_Node000011" class="edge">
<title>Node1&#45;&gt;Node11</title>
<g id="a_edge13_Node000001_Node000011"><a xlink:title=" ">
<path fill="none" stroke="#63b8ff" d="M677.67,-281C669.31,-281 660.63,-281 652.08,-281"/>
<polygon fill="#63b8ff" stroke="#63b8ff" points="677.67,-284.5 687.67,-281 677.67,-277.5 677.67,-284.5"/>
</a>
</g>
</g>
<!-- Node16 -->
<g id="Node000016" class="node">
<title>Node16</title>
<g id="a_Node000016"><a xlink:href="code__80005FD0_8c.html#ac8070bcd41974c70ea8b6d4218b1ebef" target="_top" xlink:title=" ">
<polygon fill="white" stroke="#666666" points="650.5,-409.5 517.5,-409.5 517.5,-390.5 650.5,-390.5 650.5,-409.5"/>
<text text-anchor="middle" x="584" y="-397.5" font-family="Helvetica,sans-Serif" font-size="10.00">spawn_vehicle_on_road</text>
</a>
</g>
</g>
<!-- Node1&#45;&gt;Node16 -->
<g id="edge18_Node000001_Node000016" class="edge">
<title>Node1&#45;&gt;Node16</title>
<g id="a_edge18_Node000001_Node000016"><a xlink:title=" ">
<path fill="none" stroke="#63b8ff" d="M722.76,-298.92C708.64,-320.08 682.52,-355.06 652,-376 643.14,-382.08 632.56,-386.8 622.46,-390.38"/>
<polygon fill="#63b8ff" stroke="#63b8ff" points="725.71,-300.81 728.22,-290.52 719.84,-297 725.71,-300.81"/>
</a>
</g>
</g>
<!-- Node17 -->
<g id="Node000017" class="node">
<title>Node17</title>
<g id="a_Node000017"><a xlink:href="classABus.html#a07af38f3fced338dc420cffcdfddb826" target="_top" xlink:title=" ">
<polygon fill="white" stroke="#666666" points="618,-247.5 550,-247.5 550,-228.5 618,-228.5 618,-247.5"/>
<text text-anchor="middle" x="584" y="-235.5" font-family="Helvetica,sans-Serif" font-size="10.00">ABus::Tick</text>
</a>
</g>
</g>
<!-- Node1&#45;&gt;Node17 -->
<g id="edge23_Node000001_Node000017" class="edge">
<title>Node1&#45;&gt;Node17</title>
<g id="a_edge23_Node000001_Node000017"><a xlink:title=" ">
<path fill="none" stroke="#63b8ff" d="M691.77,-268.57C679,-264.83 664.93,-260.73 652,-257 640.96,-253.82 628.89,-250.38 618.07,-247.32"/>
<polygon fill="#63b8ff" stroke="#63b8ff" points="691.11,-272.02 701.69,-271.48 693.08,-265.3 691.11,-272.02"/>
</a>
</g>
</g>
<!-- Node18 -->
<g id="Node000018" class="node">
<title>Node18</title>
<g id="a_Node000018"><a xlink:href="classACar.html#aa5a07144df2ce488c986f2c9eece9916" target="_top" xlink:title=" ">
<polygon fill="white" stroke="#666666" points="617,-210.5 551,-210.5 551,-191.5 617,-191.5 617,-210.5"/>
<text text-anchor="middle" x="584" y="-198.5" font-family="Helvetica,sans-Serif" font-size="10.00">ACar::Tick</text>
</a>
</g>
</g>
<!-- Node1&#45;&gt;Node18 -->
<g id="edge24_Node000001_Node000018" class="edge">
<title>Node1&#45;&gt;Node18</title>
<g id="a_edge24_Node000001_Node000018"><a xlink:title=" ">
<path fill="none" stroke="#63b8ff" d="M715.8,-264.39C699.98,-250.73 675.9,-231.78 652,-220 641.16,-214.65 628.56,-210.59 617.24,-207.61"/>
<polygon fill="#63b8ff" stroke="#63b8ff" points="713.88,-267.36 723.69,-271.35 718.51,-262.11 713.88,-267.36"/>
</a>
</g>
</g>
<!-- Node19 -->
<g id="Node000019" class="node">
<title>Node19</title>
<g id="a_Node000019"><a xlink:href="classATankerTruck.html#a7a57be806639c04fa4d391a47bf09ab3" target="_top" xlink:title=" ">
<polygon fill="white" stroke="#666666" points="637,-173.5 531,-173.5 531,-154.5 637,-154.5 637,-173.5"/>
<text text-anchor="middle" x="584" y="-161.5" font-family="Helvetica,sans-Serif" font-size="10.00">ATankerTruck::Tick</text>
</a>
</g>
</g>
<!-- Node1&#45;&gt;Node19 -->
<g id="edge25_Node000001_Node000019" class="edge">
<title>Node1&#45;&gt;Node19</title>
<g id="a_edge25_Node000001_Node000019"><a xlink:title=" ">
<path fill="none" stroke="#63b8ff" d="M723.35,-262.48C709.64,-240.32 683.78,-203.6 652,-183 646.01,-179.12 639.23,-176.02 632.33,-173.54"/>
<polygon fill="#63b8ff" stroke="#63b8ff" points="720.47,-264.49 728.61,-271.27 726.47,-260.89 720.47,-264.49"/>
</a>
</g>
</g>
<!-- Node20 -->
<g id="Node000020" class="node">
<title>Node20</title>
<g id="a_Node000020"><a xlink:href="classATruck.html#a251df5418c913a4e27ab67cfb068fdfc" target="_top" xlink:title=" ">
<polygon fill="white" stroke="#666666" points="621,-136.5 547,-136.5 547,-117.5 621,-117.5 621,-136.5"/>
<text text-anchor="middle" x="584" y="-124.5" font-family="Helvetica,sans-Serif" font-size="10.00">ATruck::Tick</text>
</a>
</g>
</g>
<!-- Node1&#45;&gt;Node20 -->
<g id="edge26_Node000001_Node000020" class="edge">
<title>Node1&#45;&gt;Node20</title>
<g id="a_edge26_Node000001_Node000020"><a xlink:title=" ">
<path fill="none" stroke="#63b8ff" d="M727.71,-261.76C717.02,-232.09 692.41,-175.42 652,-145 643.05,-138.26 631.76,-134.05 621.01,-131.41"/>
<polygon fill="#63b8ff" stroke="#63b8ff" points="724.46,-263.06 731.03,-271.37 731.08,-260.78 724.46,-263.06"/>
</a>
</g>
</g>
<!-- Node21 -->
<g id="Node000021" class="node">
<title>Node21</title>
<g id="a_Node000021"><a xlink:href="code__80005FD0_8c.html#a99144559f0973d72038cdccbe00881b6" target="_top" xlink:title=" ">
<polygon fill="white" stroke="#666666" points="647,-99 521,-99 521,-69 647,-69 647,-99"/>
<text text-anchor="start" x="529" y="-87" font-family="Helvetica,sans-Serif" font-size="10.00">update_vehicle_follow</text>
<text text-anchor="middle" x="584" y="-76" font-family="Helvetica,sans-Serif" font-size="10.00">_path_point</text>
</a>
</g>
</g>
<!-- Node1&#45;&gt;Node21 -->
<g id="edge27_Node000001_Node000021" class="edge">
<title>Node1&#45;&gt;Node21</title>
<g id="a_edge27_Node000001_Node000021"><a xlink:title=" ">
<path fill="none" stroke="#63b8ff" d="M729.84,-261.11C721.39,-225.47 698.9,-150.49 652,-108 648.25,-104.6 643.98,-101.67 639.45,-99.15"/>
<polygon fill="#63b8ff" stroke="#63b8ff" points="726.51,-262.21 732.11,-271.21 733.34,-260.68 726.51,-262.21"/>
</a>
</g>
</g>
<!-- Node3 -->
<g id="Node000003" class="node">
<title>Node3</title>
<g id="a_Node000003"><a xlink:href="classABus.html#a456ce9ea8c555e72a30abe4b40bd2d7b" target="_top" xlink:title=" ">
<polygon fill="white" stroke="#666666" points="275,-481.5 195,-481.5 195,-462.5 275,-462.5 275,-481.5"/>
<text text-anchor="middle" x="235" y="-469.5" font-family="Helvetica,sans-Serif" font-size="10.00">ABus::Spawn</text>
</a>
</g>
</g>
<!-- Node2&#45;&gt;Node3 -->
<g id="edge2_Node000002_Node000003" class="edge">
<title>Node2&#45;&gt;Node3</title>
<g id="a_edge2_Node000002_Node000003"><a xlink:title=" ">
<path fill="none" stroke="#63b8ff" d="M358.77,-472C332.71,-472 300.27,-472 275.29,-472"/>
<polygon fill="#63b8ff" stroke="#63b8ff" points="358.78,-475.5 368.78,-472 358.78,-468.5 358.78,-475.5"/>
</a>
</g>
</g>
<!-- Node4 -->
<g id="Node000004" class="node">
<title>Node4</title>
<g id="a_Node000004"><a xlink:href="classToadsTurnpike.html#a25009a2dd4f7e438741965b0a9fc9a7e" target="_top" xlink:title=" ">
<polygon fill="white" stroke="#666666" points="140,-425.5 0,-425.5 0,-406.5 140,-406.5 140,-425.5"/>
<text text-anchor="middle" x="70" y="-413.5" font-family="Helvetica,sans-Serif" font-size="10.00">ToadsTurnpike::BeginPlay</text>
</a>
</g>
</g>
<!-- Node3&#45;&gt;Node4 -->
<g id="edge3_Node000003_Node000004" class="edge">
<title>Node3&#45;&gt;Node4</title>
<g id="a_edge3_Node000003_Node000004"><a xlink:title=" ">
<path fill="none" stroke="#63b8ff" d="M192.46,-459.36C186.91,-457.6 181.31,-455.78 176,-454 148.62,-444.8 117.54,-433.44 96.35,-425.55"/>
<polygon fill="#63b8ff" stroke="#63b8ff" points="191.72,-462.8 202.31,-462.46 193.81,-456.12 191.72,-462.8"/>
</a>
</g>
</g>
<!-- Node6 -->
<g id="Node000006" class="node">
<title>Node6</title>
<g id="a_Node000006"><a xlink:href="classACar.html#a657415a24ab2c0d907f25fd227156848" target="_top" xlink:title=" ">
<polygon fill="white" stroke="#666666" points="274,-444.5 196,-444.5 196,-425.5 274,-425.5 274,-444.5"/>
<text text-anchor="middle" x="235" y="-432.5" font-family="Helvetica,sans-Serif" font-size="10.00">ACar::Spawn</text>
</a>
</g>
</g>
<!-- Node5&#45;&gt;Node6 -->
<g id="edge5_Node000005_Node000006" class="edge">
<title>Node5&#45;&gt;Node6</title>
<g id="a_edge5_Node000005_Node000006"><a xlink:title=" ">
<path fill="none" stroke="#63b8ff" d="M360.2,-435C333.54,-435 299.81,-435 274.23,-435"/>
<polygon fill="#63b8ff" stroke="#63b8ff" points="360.41,-438.5 370.41,-435 360.41,-431.5 360.41,-438.5"/>
</a>
</g>
</g>
<!-- Node6&#45;&gt;Node4 -->
<g id="edge6_Node000006_Node000004" class="edge">
<title>Node6&#45;&gt;Node4</title>
<g id="a_edge6_Node000006_Node000004"><a xlink:title=" ">
<path fill="none" stroke="#63b8ff" d="M185.73,-429.37C171.48,-427.71 155.59,-425.86 140.29,-424.08"/>
<polygon fill="#63b8ff" stroke="#63b8ff" points="185.45,-432.86 195.78,-430.55 186.26,-425.91 185.45,-432.86"/>
</a>
</g>
</g>
<!-- Node8 -->
<g id="Node000008" class="node">
<title>Node8</title>
<g id="a_Node000008"><a xlink:href="classATankerTruck.html#a2aacacbab3ba357a304a26523e4e3679" target="_top" xlink:title=" ">
<polygon fill="white" stroke="#666666" points="294,-407.5 176,-407.5 176,-388.5 294,-388.5 294,-407.5"/>
<text text-anchor="middle" x="235" y="-395.5" font-family="Helvetica,sans-Serif" font-size="10.00">ATankerTruck::Spawn</text>
</a>
</g>
</g>
<!-- Node7&#45;&gt;Node8 -->
<g id="edge8_Node000007_Node000008" class="edge">
<title>Node7&#45;&gt;Node8</title>
<g id="a_edge8_Node000007_Node000008"><a xlink:title=" ">
<path fill="none" stroke="#63b8ff" d="M320.08,-398C311.34,-398 302.59,-398 294.23,-398"/>
<polygon fill="#63b8ff" stroke="#63b8ff" points="320.31,-401.5 330.31,-398 320.31,-394.5 320.31,-401.5"/>
</a>
</g>
</g>
<!-- Node8&#45;&gt;Node4 -->
<g id="edge9_Node000008_Node000004" class="edge">
<title>Node8&#45;&gt;Node4</title>
<g id="a_edge9_Node000008_Node000004"><a xlink:title=" ">
<path fill="none" stroke="#63b8ff" d="M165.49,-405.57C157.09,-406.49 148.51,-407.44 140.1,-408.37"/>
<polygon fill="#63b8ff" stroke="#63b8ff" points="166.06,-409.02 175.61,-404.45 165.29,-402.07 166.06,-409.02"/>
</a>
</g>
</g>
<!-- Node10 -->
<g id="Node000010" class="node">
<title>Node10</title>
<g id="a_Node000010"><a xlink:href="classATruck.html#afe7c33a6d77655f1404a658a747fa3f6" target="_top" xlink:title=" ">
<polygon fill="white" stroke="#666666" points="278,-370.5 192,-370.5 192,-351.5 278,-351.5 278,-370.5"/>
<text text-anchor="middle" x="235" y="-358.5" font-family="Helvetica,sans-Serif" font-size="10.00">ATruck::Spawn</text>
</a>
</g>
</g>
<!-- Node9&#45;&gt;Node10 -->
<g id="edge11_Node000009_Node000010" class="edge">
<title>Node9&#45;&gt;Node10</title>
<g id="a_edge11_Node000009_Node000010"><a xlink:title=" ">
<path fill="none" stroke="#63b8ff" d="M351.41,-361C327.79,-361 300.31,-361 278.09,-361"/>
<polygon fill="#63b8ff" stroke="#63b8ff" points="351.61,-364.5 361.61,-361 351.61,-357.5 351.61,-364.5"/>
</a>
</g>
</g>
<!-- Node10&#45;&gt;Node4 -->
<g id="edge12_Node000010_Node000004" class="edge">
<title>Node10&#45;&gt;Node4</title>
<g id="a_edge12_Node000010_Node000004"><a xlink:title=" ">
<path fill="none" stroke="#63b8ff" d="M194.78,-373.77C188.5,-375.84 182.07,-377.97 176,-380 149.69,-388.82 119.76,-399.11 98.6,-406.42"/>
<polygon fill="#63b8ff" stroke="#63b8ff" points="196.06,-377.03 204.47,-370.59 193.88,-370.38 196.06,-377.03"/>
</a>
</g>
</g>
<!-- Node12 -->
<g id="Node000012" class="node">
<title>Node12</title>
<g id="a_Node000012"><a xlink:href="code__80005FD0_8c.html#a3dbfe2d211c050114533e7681ca66ee1" target="_top" xlink:title=" ">
<polygon fill="white" stroke="#666666" points="473.5,-329.5 336.5,-329.5 336.5,-310.5 473.5,-310.5 473.5,-329.5"/>
<text text-anchor="middle" x="405" y="-317.5" font-family="Helvetica,sans-Serif" font-size="10.00">init_vehicles_box_trucks</text>
</a>
</g>
</g>
<!-- Node11&#45;&gt;Node12 -->
<g id="edge14_Node000011_Node000012" class="edge">
<title>Node11&#45;&gt;Node12</title>
<g id="a_edge14_Node000011_Node000012"><a xlink:title=" ">
<path fill="none" stroke="#63b8ff" d="M506.06,-297.95C486.62,-302.24 466.42,-306.69 449.31,-310.46"/>
<polygon fill="#63b8ff" stroke="#63b8ff" points="506.82,-301.37 515.83,-295.8 505.31,-294.53 506.82,-301.37"/>
</a>
</g>
</g>
<!-- Node13 -->
<g id="Node000013" class="node">
<title>Node13</title>
<g id="a_Node000013"><a xlink:href="code__80005FD0_8c.html#a18b1873671315cc770b401dbf911e944" target="_top" xlink:title=" ">
<polygon fill="white" stroke="#666666" points="457,-292.5 353,-292.5 353,-273.5 457,-273.5 457,-292.5"/>
<text text-anchor="middle" x="405" y="-280.5" font-family="Helvetica,sans-Serif" font-size="10.00">init_vehicles_cars</text>
</a>
</g>
</g>
<!-- Node11&#45;&gt;Node13 -->
<g id="edge15_Node000011_Node000013" class="edge">
<title>Node11&#45;&gt;Node13</title>
<g id="a_edge15_Node000011_Node000013"><a xlink:title=" ">
<path fill="none" stroke="#63b8ff" d="M505.69,-281.87C489.25,-282.06 472.3,-282.25 457.13,-282.42"/>
<polygon fill="#63b8ff" stroke="#63b8ff" points="505.87,-285.37 515.83,-281.76 505.79,-278.37 505.87,-285.37"/>
</a>
</g>
</g>
<!-- Node14 -->
<g id="Node000014" class="node">
<title>Node14</title>
<g id="a_Node000014"><a xlink:href="code__80005FD0_8c.html#a349a6a78e11cf0fbeb1871785fc1bffe" target="_top" xlink:title=" ">
<polygon fill="white" stroke="#666666" points="462.5,-255 347.5,-255 347.5,-225 462.5,-225 462.5,-255"/>
<text text-anchor="start" x="355.5" y="-243" font-family="Helvetica,sans-Serif" font-size="10.00">init_vehicles_school</text>
<text text-anchor="middle" x="405" y="-232" font-family="Helvetica,sans-Serif" font-size="10.00">_buses</text>
</a>
</g>
</g>
<!-- Node11&#45;&gt;Node14 -->
<g id="edge16_Node000011_Node000014" class="edge">
<title>Node11&#45;&gt;Node14</title>
<g id="a_edge16_Node000011_Node000014"><a xlink:title=" ">
<path fill="none" stroke="#63b8ff" d="M508.19,-263.67C492.97,-260.15 477.19,-256.49 462.72,-253.14"/>
<polygon fill="#63b8ff" stroke="#63b8ff" points="507.56,-267.12 518.1,-265.97 509.14,-260.3 507.56,-267.12"/>
</a>
</g>
</g>
<!-- Node15 -->
<g id="Node000015" class="node">
<title>Node15</title>
<g id="a_Node000015"><a xlink:href="code__80005FD0_8c.html#af60d8a9bd8b6d0685b0ecc0cd804ca6c" target="_top" xlink:title=" ">
<polygon fill="white" stroke="#666666" points="461.5,-206.5 348.5,-206.5 348.5,-187.5 461.5,-187.5 461.5,-206.5"/>
<text text-anchor="middle" x="405" y="-194.5" font-family="Helvetica,sans-Serif" font-size="10.00">init_vehicles_trucks</text>
</a>
</g>
</g>
<!-- Node11&#45;&gt;Node15 -->
<g id="edge17_Node000011_Node000015" class="edge">
<title>Node11&#45;&gt;Node15</title>
<g id="a_edge17_Node000011_Node000015"><a xlink:title=" ">
<path fill="none" stroke="#63b8ff" d="M523.1,-261.37C520.65,-260 518.27,-258.54 516,-257 495.95,-243.37 500.66,-228.69 480,-216 473.67,-212.11 466.57,-209.02 459.34,-206.55"/>
<polygon fill="#63b8ff" stroke="#63b8ff" points="521.74,-264.6 532.24,-265.98 524.89,-258.35 521.74,-264.6"/>
</a>
</g>
</g>
<!-- Node16&#45;&gt;Node2 -->
<g id="edge19_Node000016_Node000002" class="edge">
<title>Node16&#45;&gt;Node2</title>
<g id="a_edge19_Node000016_Node000002"><a xlink:title=" ">
<path fill="none" stroke="#63b8ff" d="M558.88,-414.81C538.49,-426.8 508.18,-443.37 480,-454 467.63,-458.67 453.63,-462.43 441.17,-465.29"/>
<polygon fill="#63b8ff" stroke="#63b8ff" points="560.71,-417.8 567.5,-409.67 557.12,-411.78 560.71,-417.8"/>
</a>
</g>
</g>
<!-- Node16&#45;&gt;Node5 -->
<g id="edge20_Node000016_Node000005" class="edge">
<title>Node16&#45;&gt;Node5</title>
<g id="a_edge20_Node000016_Node000005"><a xlink:title=" ">
<path fill="none" stroke="#63b8ff" d="M524.5,-411.57C496.37,-417.13 463.66,-423.6 439.74,-428.33"/>
<polygon fill="#63b8ff" stroke="#63b8ff" points="525.5,-414.94 534.63,-409.56 524.14,-408.07 525.5,-414.94"/>
</a>
</g>
</g>
<!-- Node16&#45;&gt;Node7 -->
<g id="edge21_Node000016_Node000007" class="edge">
<title>Node16&#45;&gt;Node7</title>
<g id="a_edge21_Node000016_Node000007"><a xlink:title=" ">
<path fill="none" stroke="#63b8ff" d="M507.13,-399.14C498.01,-399.04 488.69,-398.93 479.6,-398.83"/>
<polygon fill="#63b8ff" stroke="#63b8ff" points="507.3,-402.64 517.34,-399.26 507.38,-395.65 507.3,-402.64"/>
</a>
</g>
</g>
<!-- Node16&#45;&gt;Node9 -->
<g id="edge22_Node000016_Node000009" class="edge">
<title>Node16&#45;&gt;Node9</title>
<g id="a_edge22_Node000016_Node000009"><a xlink:title=" ">
<path fill="none" stroke="#63b8ff" d="M529.6,-388.23C503.54,-382.49 472.63,-375.68 448.24,-370.31"/>
<polygon fill="#63b8ff" stroke="#63b8ff" points="529.18,-391.73 539.7,-390.46 530.69,-384.89 529.18,-391.73"/>
</a>
</g>
</g>
<!-- Node22 -->
<g id="Node000022" class="node">
<title>Node22</title>
<g id="a_Node000022"><a xlink:href="code__80005FD0_8c.html#a46fda4504f406f2374a5de6ea0e623a8" target="_top" xlink:title=" ">
<polygon fill="white" stroke="#666666" points="462,-153 348,-153 348,-123 462,-123 462,-153"/>
<text text-anchor="start" x="356" y="-141" font-family="Helvetica,sans-Serif" font-size="10.00">update_vehicle_box</text>
<text text-anchor="middle" x="405" y="-130" font-family="Helvetica,sans-Serif" font-size="10.00">_trucks</text>
</a>
</g>
</g>
<!-- Node21&#45;&gt;Node22 -->
<g id="edge28_Node000021_Node000022" class="edge">
<title>Node21&#45;&gt;Node22</title>
<g id="a_edge28_Node000021_Node000022"><a xlink:title=" ">
<path fill="none" stroke="#63b8ff" d="M524.01,-102C501.74,-108.79 476.65,-116.45 455.35,-122.95"/>
<polygon fill="#63b8ff" stroke="#63b8ff" points="525.15,-105.31 533.7,-99.04 523.11,-98.61 525.15,-105.31"/>
</a>
</g>
</g>
<!-- Node23 -->
<g id="Node000023" class="node">
<title>Node23</title>
<g id="a_Node000023"><a xlink:href="code__80005FD0_8c.html#a94fbb4c25911b6d5620c4b560898833f" target="_top" xlink:title=" ">
<polygon fill="white" stroke="#666666" points="463,-104.5 347,-104.5 347,-85.5 463,-85.5 463,-104.5"/>
<text text-anchor="middle" x="405" y="-92.5" font-family="Helvetica,sans-Serif" font-size="10.00">update_vehicle_cars</text>
</a>
</g>
</g>
<!-- Node21&#45;&gt;Node23 -->
<g id="edge29_Node000021_Node000023" class="edge">
<title>Node21&#45;&gt;Node23</title>
<g id="a_edge29_Node000021_Node000023"><a xlink:title=" ">
<path fill="none" stroke="#63b8ff" d="M510.37,-88.51C494.61,-89.49 478.17,-90.52 463.11,-91.45"/>
<polygon fill="#63b8ff" stroke="#63b8ff" points="510.83,-91.99 520.6,-87.88 510.4,-85.01 510.83,-91.99"/>
</a>
</g>
</g>
<!-- Node24 -->
<g id="Node000024" class="node">
<title>Node24</title>
<g id="a_Node000024"><a xlink:href="code__80005FD0_8c.html#a787304a085fd2a0f8002cf74f3d537a8" target="_top" xlink:title=" ">
<polygon fill="white" stroke="#666666" points="480,-67.5 330,-67.5 330,-48.5 480,-48.5 480,-67.5"/>
<text text-anchor="middle" x="405" y="-55.5" font-family="Helvetica,sans-Serif" font-size="10.00">update_vehicle_school_bus</text>
</a>
</g>
</g>
<!-- Node21&#45;&gt;Node24 -->
<g id="edge30_Node000021_Node000024" class="edge">
<title>Node21&#45;&gt;Node24</title>
<g id="a_edge30_Node000021_Node000024"><a xlink:title=" ">
<path fill="none" stroke="#63b8ff" d="M510.63,-73.37C497.45,-71.43 483.78,-69.43 470.83,-67.52"/>
<polygon fill="#63b8ff" stroke="#63b8ff" points="510.19,-76.84 520.6,-74.83 511.21,-69.92 510.19,-76.84"/>
</a>
</g>
</g>
<!-- Node25 -->
<g id="Node000025" class="node">
<title>Node25</title>
<g id="a_Node000025"><a xlink:href="code__80005FD0_8c.html#a31895d8d4cc5138b65ec7587e833034b" target="_top" xlink:title=" ">
<polygon fill="white" stroke="#666666" points="468.5,-30 341.5,-30 341.5,0 468.5,0 468.5,-30"/>
<text text-anchor="start" x="349.5" y="-18" font-family="Helvetica,sans-Serif" font-size="10.00">update_vehicle_tanker</text>
<text text-anchor="middle" x="405" y="-7" font-family="Helvetica,sans-Serif" font-size="10.00">_trucks</text>
</a>
</g>
</g>
<!-- Node21&#45;&gt;Node25 -->
<g id="edge31_Node000021_Node000025" class="edge">
<title>Node21&#45;&gt;Node25</title>
<g id="a_edge31_Node000021_Node000025"><a xlink:title=" ">
<path fill="none" stroke="#63b8ff" d="M541.75,-64.87C523.07,-56.5 500.6,-46.82 480,-39 471.92,-35.93 463.25,-32.9 454.8,-30.07"/>
<polygon fill="#63b8ff" stroke="#63b8ff" points="540.31,-68.06 550.86,-68.99 543.19,-61.68 540.31,-68.06"/>
</a>
</g>
</g>
</g>
</svg>

<g id="navigator" transform="translate(0 0)" fill="#404254">
  <rect fill="#f2f5e9" fill-opacity="0.5" stroke="#606060" stroke-width=".5" x="0" y="0" width="60" height="60"/>
  <use id="zoomplus" xlink:href="#zoomPlus" x="17" y="9" onmousedown="handleZoom(evt,'in')"/>
  <use id="zoomminus" xlink:href="#zoomMin" x="42" y="9" onmousedown="handleZoom(evt,'out')"/>
  <use id="reset" xlink:href="#resetDef" x="30" y="36" onmousedown="handleReset()"/>
   <use id="arrowup" xlink:href="#arrowUp" x="0" y="0" onmousedown="handlePan(0,-1)"/>
  <use id="arrowright" xlink:href="#arrowRight" x="0" y="0" onmousedown="handlePan(1,0)"/>
  <use id="arrowdown" xlink:href="#arrowDown" x="0" y="0" onmousedown="handlePan(0,1)"/>
  <use id="arrowleft" xlink:href="#arrowLeft" x="0" y="0" onmousedown="handlePan(-1,0)"/>
</g>
<svg viewBox="0 0 15 15" width="100%" height="30px" preserveAspectRatio="xMaxYMin meet">
 <g id="arrow_out" transform="scale(0.3 0.3)">
  <a xlink:href="code__80005FD0_8h_a09cab32f89b37ef0154d0ecf1a93f790_icgraph_org.svg" target="_base">
   <rect id="button" ry="5" rx="5" y="6" x="6" height="38" width="38"
        fill="#f2f5e9" fill-opacity="0.5" stroke="#606060" stroke-width="1.0"/>
   <path id="arrow"
     d="M 11.500037,31.436501 C 11.940474,20.09759 22.043105,11.32322 32.158766,21.979434 L 37.068811,17.246167 C 37.068811,17.246167 37.088388,32 37.088388,32 L 22.160133,31.978069 C 22.160133,31.978069 26.997745,27.140456 26.997745,27.140456 C 18.528582,18.264221 13.291696,25.230495 11.500037,31.436501 z"
     style="fill:#404040;"/>
  </a>
 </g>
</svg>

<style type='text/css'>
<![CDATA[
[data-mouse-over-selected='false'] { opacity: 0.7; }
[data-mouse-over-selected='true']  { opacity: 1.0; }
]]>
</style>
<script type="application/ecmascript"><![CDATA[
document.addEventListener('DOMContentLoaded', (event) => {
  highlightEdges();
  highlightAdjacentNodes();
});
]]></script>
</svg>
