<?xml version="1.0" encoding="UTF-8" standalone="no"?>
<!DOCTYPE svg PUBLIC "-//W3C//DTD SVG 1.1//EN"
 "http://www.w3.org/Graphics/SVG/1.1/DTD/svg11.dtd">
<!-- Generated by graphviz version 2.43.0 (0)
 -->
<!-- Title: credits_spawn_actors Pages: 1 -->
<svg width="777pt" height="197pt"
 viewBox="0.00 0.00 777.00 197.00" xmlns="http://www.w3.org/2000/svg" xmlns:xlink="http://www.w3.org/1999/xlink">
<g id="graph0" class="graph" transform="scale(1 1) rotate(0) translate(4 193)">
<title>credits_spawn_actors</title>
<!-- Node1 -->
<g id="Node000001" class="node">
<title>Node1</title>
<g id="a_Node000001"><a xlink:title=" ">
<polygon fill="#999999" stroke="#666666" points="122,-93 0,-93 0,-74 122,-74 122,-93"/>
<text text-anchor="middle" x="61" y="-81" font-family="Helvetica,sans-Serif" font-size="10.00">credits_spawn_actors</text>
</a>
</g>
</g>
<!-- Node2 -->
<g id="Node000002" class="node">
<title>Node2</title>
<g id="a_Node000002"><a xlink:href="Game_8cpp.html#a88c0d93fc49776f7a5c145312f4f81a0" target="_top" xlink:title=" ">
<polygon fill="white" stroke="#666666" points="280,-167 194,-167 194,-148 280,-148 280,-167"/>
<text text-anchor="middle" x="237" y="-155" font-family="Helvetica,sans-Serif" font-size="10.00">CM_BeginPlay</text>
</a>
</g>
</g>
<!-- Node1&#45;&gt;Node2 -->
<g id="edge1_Node000001_Node000002" class="edge">
<title>Node1&#45;&gt;Node2</title>
<g id="a_edge1_Node000001_Node000002"><a xlink:title=" ">
<path fill="none" stroke="#63b8ff" d="M75.32,-93.03C93.28,-105.46 126.61,-127.06 158,-139.5 166.17,-142.74 175.06,-145.47 183.81,-147.76"/>
<polygon fill="#63b8ff" stroke="#63b8ff" points="183.05,-151.18 193.6,-150.15 184.71,-144.38 183.05,-151.18"/>
</a>
</g>
</g>
<!-- Node7 -->
<g id="Node000007" class="node">
<title>Node7</title>
<g id="a_Node000007"><a xlink:href="Game_8cpp.html#a13d5b10b9acb59b4b90db739aba83d1f" target="_top" xlink:title=" ">
<polygon fill="white" stroke="#666666" points="283.5,-130 190.5,-130 190.5,-111 283.5,-111 283.5,-130"/>
<text text-anchor="middle" x="237" y="-118" font-family="Helvetica,sans-Serif" font-size="10.00">CM_CleanWorld</text>
</a>
</g>
</g>
<!-- Node1&#45;&gt;Node7 -->
<g id="edge6_Node000001_Node000007" class="edge">
<title>Node1&#45;&gt;Node7</title>
<g id="a_edge6_Node000001_Node000007"><a xlink:title=" ">
<path fill="none" stroke="#63b8ff" d="M106.81,-93.03C129.45,-97.84 157.13,-103.73 181.05,-108.81"/>
<polygon fill="#63b8ff" stroke="#63b8ff" points="180.53,-112.28 191.04,-110.94 181.99,-105.44 180.53,-112.28"/>
</a>
</g>
</g>
<!-- Node8 -->
<g id="Node000008" class="node">
<title>Node8</title>
<g id="a_Node000008"><a xlink:href="Game_8cpp.html#aaffb8b8bf0073d2bc3c2221a0d6e72ec" target="_top" xlink:title=" ">
<polygon fill="white" stroke="#666666" points="304.5,-93 169.5,-93 169.5,-74 304.5,-74 304.5,-93"/>
<text text-anchor="middle" x="237" y="-81" font-family="Helvetica,sans-Serif" font-size="10.00">CM_CreditsSpawnActors</text>
</a>
</g>
</g>
<!-- Node1&#45;&gt;Node8 -->
<g id="edge7_Node000001_Node000008" class="edge">
<title>Node1&#45;&gt;Node8</title>
<g id="a_edge7_Node000001_Node000008"><a xlink:title=" ">
<path fill="none" stroke="#63b8ff" d="M122.37,-83.5C134.25,-83.5 146.87,-83.5 159.22,-83.5"/>
<polygon fill="#63b8ff" stroke="#63b8ff" points="159.5,-87 169.5,-83.5 159.5,-80 159.5,-87"/>
</a>
</g>
</g>
<!-- Node9 -->
<g id="Node000009" class="node">
<title>Node9</title>
<g id="a_Node000009"><a xlink:href="actors_8c.html#a90bb1e98b1fc94450092f4fddff2a61b" target="_top" xlink:title=" ">
<polygon fill="white" stroke="#666666" points="290,-56 184,-56 184,-37 290,-37 290,-56"/>
<text text-anchor="middle" x="237" y="-44" font-family="Helvetica,sans-Serif" font-size="10.00">destroy_all_actors</text>
</a>
</g>
</g>
<!-- Node1&#45;&gt;Node9 -->
<g id="edge8_Node000001_Node000009" class="edge">
<title>Node1&#45;&gt;Node9</title>
<g id="a_edge8_Node000001_Node000009"><a xlink:title=" ">
<path fill="none" stroke="#63b8ff" d="M106.81,-73.97C129.45,-69.16 157.13,-63.27 181.05,-58.19"/>
<polygon fill="#63b8ff" stroke="#63b8ff" points="181.99,-61.56 191.04,-56.06 180.53,-54.72 181.99,-61.56"/>
</a>
</g>
</g>
<!-- Node11 -->
<g id="Node000011" class="node">
<title>Node11</title>
<g id="a_Node000011"><a xlink:href="memory_8c.html#ab56e85d799262a4d75c3be6be4ce4590" target="_top" xlink:title=" ">
<polygon fill="white" stroke="#666666" points="316,-19 158,-19 158,0 316,0 316,-19"/>
<text text-anchor="middle" x="237" y="-7" font-family="Helvetica,sans-Serif" font-size="10.00">set_segment_base_addr_x64</text>
</a>
</g>
</g>
<!-- Node1&#45;&gt;Node11 -->
<g id="edge10_Node000001_Node000011" class="edge">
<title>Node1&#45;&gt;Node11</title>
<g id="a_edge10_Node000001_Node000011"><a xlink:title=" ">
<path fill="none" stroke="#63b8ff" d="M75.32,-73.97C93.28,-61.54 126.61,-39.94 158,-27.5 163.38,-25.37 169.07,-23.45 174.84,-21.74"/>
<polygon fill="#63b8ff" stroke="#63b8ff" points="175.85,-25.09 184.56,-19.05 173.98,-18.34 175.85,-25.09"/>
</a>
</g>
</g>
<!-- Node3 -->
<g id="Node000003" class="node">
<title>Node3</title>
<g id="a_Node000003"><a xlink:href="namespaceEditor.html#ac95c825fc97e637d93f36fe4e9121515" target="_top" xlink:title=" ">
<polygon fill="white" stroke="#666666" points="453,-167 352,-167 352,-148 453,-148 453,-167"/>
<text text-anchor="middle" x="402.5" y="-155" font-family="Helvetica,sans-Serif" font-size="10.00">Editor::LoadLevel</text>
</a>
</g>
</g>
<!-- Node2&#45;&gt;Node3 -->
<g id="edge2_Node000002_Node000003" class="edge">
<title>Node2&#45;&gt;Node3</title>
<g id="a_edge2_Node000002_Node000003"><a xlink:title=" ">
<path fill="none" stroke="#63b8ff" d="M280.11,-157.5C298.88,-157.5 321.34,-157.5 341.81,-157.5"/>
<polygon fill="#63b8ff" stroke="#63b8ff" points="341.99,-161 351.99,-157.5 341.99,-154 341.99,-161"/>
</a>
</g>
</g>
<!-- Node4 -->
<g id="Node000004" class="node">
<title>Node4</title>
<g id="a_Node000004"><a xlink:href="structSpawnParams.html#a8a5a24c4ced13fc9150d32d895470c9f" target="_top" xlink:title=" ">
<polygon fill="white" stroke="#666666" points="635,-189 495,-189 495,-170 635,-170 635,-189"/>
<text text-anchor="middle" x="565" y="-177" font-family="Helvetica,sans-Serif" font-size="10.00">SpawnParams::from_json</text>
</a>
</g>
</g>
<!-- Node3&#45;&gt;Node4 -->
<g id="edge3_Node000003_Node000004" class="edge">
<title>Node3&#45;&gt;Node4</title>
<g id="a_edge3_Node000003_Node000004"><a xlink:title=" ">
<path fill="none" stroke="#63b8ff" d="M453.4,-164.34C463.38,-165.71 474.08,-167.17 484.76,-168.64"/>
<polygon fill="#63b8ff" stroke="#63b8ff" points="484.59,-172.15 494.97,-170.04 485.54,-165.21 484.59,-172.15"/>
</a>
</g>
</g>
<!-- Node6 -->
<g id="Node000006" class="node">
<title>Node6</title>
<g id="a_Node000006"><a xlink:href="namespaceEditor.html#a5682c68f8c058161eac4f98905aa0c86" target="_top" xlink:title=" ">
<polygon fill="white" stroke="#666666" points="641,-151.5 489,-151.5 489,-121.5 641,-121.5 641,-151.5"/>
<text text-anchor="start" x="497" y="-139.5" font-family="Helvetica,sans-Serif" font-size="10.00">Editor::Load_AddStaticMesh</text>
<text text-anchor="middle" x="565" y="-128.5" font-family="Helvetica,sans-Serif" font-size="10.00">Actor</text>
</a>
</g>
</g>
<!-- Node3&#45;&gt;Node6 -->
<g id="edge5_Node000003_Node000006" class="edge">
<title>Node3&#45;&gt;Node6</title>
<g id="a_edge5_Node000003_Node000006"><a xlink:title=" ">
<path fill="none" stroke="#63b8ff" d="M453.4,-150.97C461.47,-149.91 470.02,-148.8 478.65,-147.67"/>
<polygon fill="#63b8ff" stroke="#63b8ff" points="479.33,-151.11 488.79,-146.34 478.42,-144.17 479.33,-151.11"/>
</a>
</g>
</g>
<!-- Node5 -->
<g id="Node000005" class="node">
<title>Node5</title>
<g id="a_Node000005"><a xlink:href="SpawnParams_8h.html#af4dfccdb6d4f1f9514fa9f7483e0d0aa" target="_top" xlink:title=" ">
<polygon fill="white" stroke="#666666" points="769,-189 677,-189 677,-170 769,-170 769,-189"/>
<text text-anchor="middle" x="723" y="-177" font-family="Helvetica,sans-Serif" font-size="10.00">get_optional_to</text>
</a>
</g>
</g>
<!-- Node4&#45;&gt;Node5 -->
<g id="edge4_Node000004_Node000005" class="edge">
<title>Node4&#45;&gt;Node5</title>
<g id="a_edge4_Node000004_Node000005"><a xlink:title=" ">
<path fill="none" stroke="#63b8ff" d="M635.33,-179.5C645.72,-179.5 656.32,-179.5 666.37,-179.5"/>
<polygon fill="#63b8ff" stroke="#63b8ff" points="666.62,-183 676.62,-179.5 666.62,-176 666.62,-183"/>
</a>
</g>
</g>
<!-- Node10 -->
<g id="Node000010" class="node">
<title>Node10</title>
<g id="a_Node000010"><a xlink:href="Game_8cpp.html#a693de7d8b89fe291aafea86bc64a0a2e" target="_top" xlink:title=" ">
<polygon fill="white" stroke="#666666" points="442.5,-56 362.5,-56 362.5,-37 442.5,-37 442.5,-56"/>
<text text-anchor="middle" x="402.5" y="-44" font-family="Helvetica,sans-Serif" font-size="10.00">CM_GetActor</text>
</a>
</g>
</g>
<!-- Node9&#45;&gt;Node10 -->
<g id="edge9_Node000009_Node000010" class="edge">
<title>Node9&#45;&gt;Node10</title>
<g id="a_edge9_Node000009_Node000010"><a xlink:title=" ">
<path fill="none" stroke="#63b8ff" d="M290.18,-46.5C310.07,-46.5 332.65,-46.5 352.25,-46.5"/>
<polygon fill="#63b8ff" stroke="#63b8ff" points="352.5,-50 362.5,-46.5 352.5,-43 352.5,-50"/>
</a>
</g>
</g>
</g>
</svg>
