<?xml version="1.0" encoding="UTF-8" standalone="no"?>
<!DOCTYPE svg PUBLIC "-//W3C//DTD SVG 1.1//EN"
 "http://www.w3.org/Graphics/SVG/1.1/DTD/svg11.dtd">
<!-- Generated by graphviz version 2.43.0 (0)
 -->
<!-- Title: update_vehicle_following_path Pages: 1 -->
<svg width="726pt" height="187pt"
 viewBox="0.00 0.00 726.00 186.50" xmlns="http://www.w3.org/2000/svg" xmlns:xlink="http://www.w3.org/1999/xlink">
<g id="graph0" class="graph" transform="scale(1 1) rotate(0) translate(4 182.5)">
<title>update_vehicle_following_path</title>
<!-- Node1 -->
<g id="Node000001" class="node">
<title>Node1</title>
<g id="a_Node000001"><a xlink:title=" ">
<polygon fill="#999999" stroke="#666666" points="168,-93 0,-93 0,-74 168,-74 168,-93"/>
<text text-anchor="middle" x="84" y="-81" font-family="Helvetica,sans-Serif" font-size="10.00">update_vehicle_following_path</text>
</a>
</g>
</g>
<!-- Node2 -->
<g id="Node000002" class="node">
<title>Node2</title>
<g id="a_Node000002"><a xlink:href="code__80005FD0_8c.html#ade9dca16c41c3d924b84f32a203ba823" target="_top" xlink:title=" ">
<polygon fill="white" stroke="#666666" points="333.5,-178.5 213.5,-178.5 213.5,-148.5 333.5,-148.5 333.5,-178.5"/>
<text text-anchor="start" x="221.5" y="-166.5" font-family="Helvetica,sans-Serif" font-size="10.00">find_closest_vehicles</text>
<text text-anchor="middle" x="273.5" y="-155.5" font-family="Helvetica,sans-Serif" font-size="10.00">_path_point</text>
</a>
</g>
</g>
<!-- Node1&#45;&gt;Node2 -->
<g id="edge1_Node000001_Node000002" class="edge">
<title>Node1&#45;&gt;Node2</title>
<g id="a_edge1_Node000001_Node000002"><a xlink:title=" ">
<path fill="none" stroke="#63b8ff" d="M103.69,-93.03C126.91,-104.69 167.86,-124.71 204,-139.5 208.43,-141.31 213.06,-143.12 217.72,-144.87"/>
<polygon fill="#63b8ff" stroke="#63b8ff" points="216.71,-148.23 227.3,-148.4 219.13,-141.66 216.71,-148.23"/>
</a>
</g>
</g>
<!-- Node3 -->
<g id="Node000003" class="node">
<title>Node3</title>
<g id="a_Node000003"><a xlink:href="code__80005FD0_8c.html#a79cd9c001e0a06c9cab23fe2cf070abf" target="_top" xlink:title=" ">
<polygon fill="white" stroke="#666666" points="343,-130 204,-130 204,-111 343,-111 343,-130"/>
<text text-anchor="middle" x="273.5" y="-118" font-family="Helvetica,sans-Serif" font-size="10.00">get_angle_between_path</text>
</a>
</g>
</g>
<!-- Node1&#45;&gt;Node3 -->
<g id="edge2_Node000001_Node000003" class="edge">
<title>Node1&#45;&gt;Node3</title>
<g id="a_edge2_Node000001_Node000003"><a xlink:title=" ">
<path fill="none" stroke="#63b8ff" d="M133.29,-93.03C157.9,-97.89 188.04,-103.83 213.97,-108.95"/>
<polygon fill="#63b8ff" stroke="#63b8ff" points="213.56,-112.44 224.05,-110.94 214.92,-105.57 213.56,-112.44"/>
</a>
</g>
</g>
<!-- Node7 -->
<g id="Node000007" class="node">
<title>Node7</title>
<g id="a_Node000007"><a xlink:href="Game_8cpp.html#a545c1a384e93cc7b616dfee707f5d962" target="_top" xlink:title=" ">
<polygon fill="white" stroke="#666666" points="307.5,-93 239.5,-93 239.5,-74 307.5,-74 307.5,-93"/>
<text text-anchor="middle" x="273.5" y="-81" font-family="Helvetica,sans-Serif" font-size="10.00">IsDkJungle</text>
</a>
</g>
</g>
<!-- Node1&#45;&gt;Node7 -->
<g id="edge6_Node000001_Node000007" class="edge">
<title>Node1&#45;&gt;Node7</title>
<g id="a_edge6_Node000001_Node000007"><a xlink:title=" ">
<path fill="none" stroke="#63b8ff" d="M168.06,-83.5C189.02,-83.5 210.71,-83.5 228.85,-83.5"/>
<polygon fill="#63b8ff" stroke="#63b8ff" points="229.09,-87 239.09,-83.5 229.09,-80 229.09,-87"/>
</a>
</g>
</g>
<!-- Node8 -->
<g id="Node000008" class="node">
<title>Node8</title>
<g id="a_Node000008"><a xlink:href="Game_8cpp.html#ad474b8b257813cceeae25ab5205273c4" target="_top" xlink:title=" ">
<polygon fill="white" stroke="#666666" points="322.5,-56 224.5,-56 224.5,-37 322.5,-37 322.5,-56"/>
<text text-anchor="middle" x="273.5" y="-44" font-family="Helvetica,sans-Serif" font-size="10.00">IsKalimariDesert</text>
</a>
</g>
</g>
<!-- Node1&#45;&gt;Node8 -->
<g id="edge7_Node000001_Node000008" class="edge">
<title>Node1&#45;&gt;Node8</title>
<g id="a_edge7_Node000001_Node000008"><a xlink:title=" ">
<path fill="none" stroke="#63b8ff" d="M133.29,-73.97C158,-69.09 188.28,-63.12 214.27,-57.99"/>
<polygon fill="#63b8ff" stroke="#63b8ff" points="215.24,-61.37 224.38,-56 213.89,-54.5 215.24,-61.37"/>
</a>
</g>
</g>
<!-- Node9 -->
<g id="Node000009" class="node">
<title>Node9</title>
<g id="a_Node000009"><a xlink:href="math_8h.html#a37bde043e94a6f074c78f10518fb5d99" target="_top" xlink:title=" ">
<polygon fill="white" stroke="#666666" points="293,-19 254,-19 254,0 293,0 293,-19"/>
<text text-anchor="middle" x="273.5" y="-7" font-family="Helvetica,sans-Serif" font-size="10.00">sqrtf</text>
</a>
</g>
</g>
<!-- Node1&#45;&gt;Node9 -->
<g id="edge8_Node000001_Node000009" class="edge">
<title>Node1&#45;&gt;Node9</title>
<g id="a_edge8_Node000001_Node000009"><a xlink:title=" ">
<path fill="none" stroke="#63b8ff" d="M103.16,-73.98C126.16,-62.18 167.25,-41.99 204,-28.5 216.94,-23.75 231.64,-19.53 244.08,-16.28"/>
<polygon fill="#63b8ff" stroke="#63b8ff" points="245.09,-19.63 253.93,-13.78 243.37,-12.85 245.09,-19.63"/>
</a>
</g>
</g>
<!-- Node4 -->
<g id="Node000004" class="node">
<title>Node4</title>
<g id="a_Node000004"><a xlink:href="math__util_8c.html#a84cf9d4ec33146a64c230ed4cec56632" target="_top" xlink:title=" ">
<polygon fill="white" stroke="#666666" points="514,-135.5 379,-135.5 379,-105.5 514,-105.5 514,-135.5"/>
<text text-anchor="start" x="387" y="-123.5" font-family="Helvetica,sans-Serif" font-size="10.00">get_angle_between_two</text>
<text text-anchor="middle" x="446.5" y="-112.5" font-family="Helvetica,sans-Serif" font-size="10.00">_vectors</text>
</a>
</g>
</g>
<!-- Node3&#45;&gt;Node4 -->
<g id="edge3_Node000003_Node000004" class="edge">
<title>Node3&#45;&gt;Node4</title>
<g id="a_edge3_Node000003_Node000004"><a xlink:title=" ">
<path fill="none" stroke="#63b8ff" d="M343.07,-120.5C351.55,-120.5 360.26,-120.5 368.85,-120.5"/>
<polygon fill="#63b8ff" stroke="#63b8ff" points="368.86,-124 378.86,-120.5 368.86,-117 368.86,-124"/>
</a>
</g>
</g>
<!-- Node5 -->
<g id="Node000005" class="node">
<title>Node5</title>
<g id="a_Node000005"><a xlink:href="math__util_8c.html#aaa39a297477f56051975259f4bddd829" target="_top" xlink:title=" ">
<polygon fill="white" stroke="#666666" points="600,-130 550,-130 550,-111 600,-111 600,-130"/>
<text text-anchor="middle" x="575" y="-118" font-family="Helvetica,sans-Serif" font-size="10.00">atan2s</text>
</a>
</g>
</g>
<!-- Node4&#45;&gt;Node5 -->
<g id="edge4_Node000004_Node000005" class="edge">
<title>Node4&#45;&gt;Node5</title>
<g id="a_edge4_Node000004_Node000005"><a xlink:title=" ">
<path fill="none" stroke="#63b8ff" d="M514.08,-120.5C523.02,-120.5 531.87,-120.5 539.92,-120.5"/>
<polygon fill="#63b8ff" stroke="#63b8ff" points="539.97,-124 549.97,-120.5 539.97,-117 539.97,-124"/>
</a>
</g>
</g>
<!-- Node6 -->
<g id="Node000006" class="node">
<title>Node6</title>
<g id="a_Node000006"><a xlink:href="math__util_8c.html#a0273b0ea0783a06996c28669a7438ed9" target="_top" xlink:title=" ">
<polygon fill="white" stroke="#666666" points="718,-130 636,-130 636,-111 718,-111 718,-130"/>
<text text-anchor="middle" x="677" y="-118" font-family="Helvetica,sans-Serif" font-size="10.00">atan2_lookup</text>
</a>
</g>
</g>
<!-- Node5&#45;&gt;Node6 -->
<g id="edge5_Node000005_Node000006" class="edge">
<title>Node5&#45;&gt;Node6</title>
<g id="a_edge5_Node000005_Node000006"><a xlink:title=" ">
<path fill="none" stroke="#63b8ff" d="M600.21,-120.5C607.85,-120.5 616.6,-120.5 625.38,-120.5"/>
<polygon fill="#63b8ff" stroke="#63b8ff" points="625.63,-124 635.63,-120.5 625.63,-117 625.63,-124"/>
</a>
</g>
</g>
</g>
</svg>
