<?xml version="1.0" encoding="UTF-8" standalone="no"?>
<!DOCTYPE svg PUBLIC "-//W3C//DTD SVG 1.1//EN"
 "http://www.w3.org/Graphics/SVG/1.1/DTD/svg11.dtd">
<!-- Generated by graphviz version 2.43.0 (0)
 -->
<!-- Title: func_80057FC4 Pages: 1 -->
<!--zoomable 577 -->

<svg id="main" version="1.1" xmlns="http://www.w3.org/2000/svg" xmlns:xlink="http://www.w3.org/1999/xlink" xml:space="preserve" onload="init(evt)">

<style type="text/css"><![CDATA[
.node, .edge {opacity: 0.7;}
.node.selected, .edge.selected {opacity: 1;}
.edge:hover path { stroke: red; }
.edge:hover polygon { stroke: red; fill: red; }
]]></style>

<defs>
  <circle id="rim" cx="0" cy="0" r="7"/>
  <circle id="rim2" cx="0" cy="0" r="3.5"/>
  <g id="zoomPlus">
    <use xlink:href="#rim" fill="#404040"><set attributeName="fill" to="#808080" begin="zoomplus.mouseover" end="zoomplus.mouseout"/></use>
    <path d="M-4,0h8M0,-4v8" fill="none" stroke="white" stroke-width="1.5" pointer-events="none"/>
  </g>
  <g id="zoomMin">
    <use xlink:href="#rim" fill="#404040"><set attributeName="fill" to="#808080" begin="zoomminus.mouseover" end="zoomminus.mouseout"/></use>
    <path d="M-4,0h8" fill="none" stroke="white" stroke-width="1.5" pointer-events="none"/>
  </g>
  <g id="arrowUp" transform="translate(30 24)">
    <use xlink:href="#rim"/>
    <path pointer-events="none" fill="none" stroke="white" stroke-width="1.5" d="M0,-3.0v7 M-2.5,-0.5L0,-3.0L2.5,-0.5"/>
  </g>
  <g id="arrowRight" transform="rotate(90) translate(36 -43)">
    <use xlink:href="#rim"/>
    <path pointer-events="none" fill="none" stroke="white" stroke-width="1.5" d="M0,-3.0v7 M-2.5,-0.5L0,-3.0L2.5,-0.5"/>
  </g>
  <g id="arrowDown" transform="rotate(180) translate(-30 -48)">
    <use xlink:href="#rim"/>
    <path pointer-events="none" fill="none" stroke="white" stroke-width="1.5" d="M0,-3.0v7 M-2.5,-0.5L0,-3.0L2.5,-0.5"/>
  </g>
  <g id="arrowLeft" transform="rotate(270) translate(-36 17)">
    <use xlink:href="#rim"/>
    <path pointer-events="none" fill="none" stroke="white" stroke-width="1.5" d="M0,-3.0v7 M-2.5,-0.5L0,-3.0L2.5,-0.5"/>
  </g>
  <g id="resetDef">
    <use xlink:href="#rim2" fill="#404040"><set attributeName="fill" to="#808080" begin="reset.mouseover" end="reset.mouseout"/></use>
  </g>
</defs>
<script type="application/ecmascript">
var viewWidth = 1361;
var viewHeight = 577;
var sectionId = 'dynsection-11';
</script>
<script type="application/ecmascript" xlink:href="svg.min.js"/>
<svg id="graph" class="graph">
<g id="viewport">
<title>func_80057FC4</title>
<!-- Node1 -->
<g id="Node000001" class="node">
<title>Node1</title>
<g id="a_Node000001"><a xlink:title=" ">
<polygon fill="#999999" stroke="#666666" points="92,-247 0,-247 0,-228 92,-228 92,-247"/>
<text text-anchor="middle" x="46" y="-235" font-family="Helvetica,sans-Serif" font-size="10.00">func_80057FC4</text>
</a>
</g>
</g>
<!-- Node2 -->
<g id="Node000002" class="node">
<title>Node2</title>
<g id="a_Node000002"><a xlink:href="render__objects_8c.html#a825e8e731c52353ac39601ed2aef3eb1" target="_top" xlink:title=" ">
<polygon fill="white" stroke="#666666" points="239,-359 147,-359 147,-340 239,-340 239,-359"/>
<text text-anchor="middle" x="193" y="-347" font-family="Helvetica,sans-Serif" font-size="10.00">func_80051EBC</text>
</a>
</g>
</g>
<!-- Node1&#45;&gt;Node2 -->
<g id="edge1_Node000001_Node000002" class="edge">
<title>Node1&#45;&gt;Node2</title>
<g id="a_edge1_Node000001_Node000002"><a xlink:title=" ">
<path fill="none" stroke="#63b8ff" d="M52.57,-247.13C64.11,-266.21 92.56,-308.94 128,-331.5 130.96,-333.39 134.12,-335.08 137.4,-336.59"/>
<polygon fill="#63b8ff" stroke="#63b8ff" points="136.25,-339.91 146.84,-340.42 138.89,-333.42 136.25,-339.91"/>
</a>
</g>
</g>
<!-- Node21 -->
<g id="Node000021" class="node">
<title>Node21</title>
<g id="a_Node000021"><a xlink:href="GBIMiddleware_8cpp.html#a4ecc44e3c6f1ca5a6b4a20c41d3bd2d2" target="_top" xlink:title=" ">
<polygon fill="white" stroke="#666666" points="695,-287 606,-287 606,-268 695,-268 695,-287"/>
<text text-anchor="middle" x="650.5" y="-275" font-family="Helvetica,sans-Serif" font-size="10.00">gSPDisplayList</text>
</a>
</g>
</g>
<!-- Node1&#45;&gt;Node21 -->
<g id="edge59_Node000001_Node000021" class="edge">
<title>Node1&#45;&gt;Node21</title>
<g id="a_edge59_Node000001_Node000021"><a xlink:title=" ">
<path fill="none" stroke="#63b8ff" d="M59.25,-228C116.83,-184.53 365.19,-10.86 540,-106.5 599.96,-139.3 631.9,-220.49 643.88,-257.97"/>
<polygon fill="#63b8ff" stroke="#63b8ff" points="640.58,-259.15 646.85,-267.7 647.27,-257.11 640.58,-259.15"/>
</a>
</g>
</g>
<!-- Node27 -->
<g id="Node000027" class="node">
<title>Node27</title>
<g id="a_Node000027"><a xlink:href="render__objects_8c.html#a467430e13a9dbbed38a9454bfb98fd24" target="_top" xlink:title=" ">
<polygon fill="white" stroke="#666666" points="238.5,-209 147.5,-209 147.5,-190 238.5,-190 238.5,-209"/>
<text text-anchor="middle" x="193" y="-197" font-family="Helvetica,sans-Serif" font-size="10.00">func_80051EF8</text>
</a>
</g>
</g>
<!-- Node1&#45;&gt;Node27 -->
<g id="edge37_Node000001_Node000027" class="edge">
<title>Node1&#45;&gt;Node27</title>
<g id="a_edge37_Node000001_Node000027"><a xlink:title=" ">
<path fill="none" stroke="#63b8ff" d="M83.59,-227.91C102.47,-222.96 125.69,-216.88 145.79,-211.61"/>
<polygon fill="#63b8ff" stroke="#63b8ff" points="146.89,-214.94 155.67,-209.02 145.11,-208.17 146.89,-214.94"/>
</a>
</g>
</g>
<!-- Node31 -->
<g id="Node000031" class="node">
<title>Node31</title>
<g id="a_Node000031"><a xlink:href="render__objects_8c.html#aa24d319ba792bdbc5b99a914ec15cda5" target="_top" xlink:title=" ">
<polygon fill="white" stroke="#666666" points="239,-247 147,-247 147,-228 239,-228 239,-247"/>
<text text-anchor="middle" x="193" y="-235" font-family="Helvetica,sans-Serif" font-size="10.00">func_80051F9C</text>
</a>
</g>
</g>
<!-- Node1&#45;&gt;Node31 -->
<g id="edge42_Node000001_Node000031" class="edge">
<title>Node1&#45;&gt;Node31</title>
<g id="a_edge42_Node000001_Node000031"><a xlink:title=" ">
<path fill="none" stroke="#63b8ff" d="M92.08,-237.5C106.27,-237.5 122.1,-237.5 136.9,-237.5"/>
<polygon fill="#63b8ff" stroke="#63b8ff" points="136.94,-241 146.94,-237.5 136.94,-234 136.94,-241"/>
</a>
</g>
</g>
<!-- Node32 -->
<g id="Node000032" class="node">
<title>Node32</title>
<g id="a_Node000032"><a xlink:href="render__objects_8c.html#af8b0c2768b4b7052b73b67da5e51c25c" target="_top" xlink:title=" ">
<polygon fill="white" stroke="#666666" points="238.5,-322 147.5,-322 147.5,-303 238.5,-303 238.5,-322"/>
<text text-anchor="middle" x="193" y="-310" font-family="Helvetica,sans-Serif" font-size="10.00">func_80052044</text>
</a>
</g>
</g>
<!-- Node1&#45;&gt;Node32 -->
<g id="edge47_Node000001_Node000032" class="edge">
<title>Node1&#45;&gt;Node32</title>
<g id="a_edge47_Node000001_Node000032"><a xlink:title=" ">
<path fill="none" stroke="#63b8ff" d="M58.03,-247.13C72.95,-259.69 100.82,-281.58 128,-294.5 132.04,-296.42 136.32,-298.17 140.68,-299.76"/>
<polygon fill="#63b8ff" stroke="#63b8ff" points="139.68,-303.12 150.28,-302.98 141.91,-296.48 139.68,-303.12"/>
</a>
</g>
</g>
<!-- Node34 -->
<g id="Node000034" class="node">
<title>Node34</title>
<g id="a_Node000034"><a xlink:href="render__objects_8c.html#ab0b2597c5ad125d8c62911db932c9647" target="_top" xlink:title=" ">
<polygon fill="white" stroke="#666666" points="238.5,-285 147.5,-285 147.5,-266 238.5,-266 238.5,-285"/>
<text text-anchor="middle" x="193" y="-273" font-family="Helvetica,sans-Serif" font-size="10.00">func_80052080</text>
</a>
</g>
</g>
<!-- Node1&#45;&gt;Node34 -->
<g id="edge57_Node000001_Node000034" class="edge">
<title>Node1&#45;&gt;Node34</title>
<g id="a_edge57_Node000001_Node000034"><a xlink:title=" ">
<path fill="none" stroke="#63b8ff" d="M83.59,-247.09C102.47,-252.04 125.69,-258.12 145.79,-263.39"/>
<polygon fill="#63b8ff" stroke="#63b8ff" points="145.11,-266.83 155.67,-265.98 146.89,-260.06 145.11,-266.83"/>
</a>
</g>
</g>
<!-- Node35 -->
<g id="Node000035" class="node">
<title>Node35</title>
<g id="a_Node000035"><a xlink:href="math__util__2_8c.html#aa0f56371081de86dcbb5ed53fd24292f" target="_top" xlink:title=" ">
<polygon fill="white" stroke="#666666" points="258,-19 128,-19 128,0 258,0 258,-19"/>
<text text-anchor="middle" x="193" y="-7" font-family="Helvetica,sans-Serif" font-size="10.00">set_matrix_hud_screen</text>
</a>
</g>
</g>
<!-- Node1&#45;&gt;Node35 -->
<g id="edge60_Node000001_Node000035" class="edge">
<title>Node1&#45;&gt;Node35</title>
<g id="a_edge60_Node000001_Node000035"><a xlink:title=" ">
<path fill="none" stroke="#63b8ff" d="M48.07,-227.89C52.13,-195.77 69.51,-90.87 128,-33.5 132.02,-29.55 136.76,-26.24 141.8,-23.47"/>
<polygon fill="#63b8ff" stroke="#63b8ff" points="143.59,-26.5 151.12,-19.04 140.59,-20.17 143.59,-26.5"/>
</a>
</g>
</g>
<!-- Node3 -->
<g id="Node000003" class="node">
<title>Node3</title>
<g id="a_Node000003"><a xlink:href="render__objects_8c.html#a6603f469da43f588fae1d63555b5250c" target="_top" xlink:title=" ">
<polygon fill="white" stroke="#666666" points="387,-360 294,-360 294,-341 387,-341 387,-360"/>
<text text-anchor="middle" x="340.5" y="-348" font-family="Helvetica,sans-Serif" font-size="10.00">func_80051ABC</text>
</a>
</g>
</g>
<!-- Node2&#45;&gt;Node3 -->
<g id="edge2_Node000002_Node000003" class="edge">
<title>Node2&#45;&gt;Node3</title>
<g id="a_edge2_Node000002_Node000003"><a xlink:title=" ">
<path fill="none" stroke="#63b8ff" d="M239.24,-349.81C253.34,-349.91 269.05,-350.02 283.78,-350.12"/>
<polygon fill="#63b8ff" stroke="#63b8ff" points="283.76,-353.62 293.79,-350.19 283.81,-346.62 283.76,-353.62"/>
</a>
</g>
</g>
<!-- Node4 -->
<g id="Node000004" class="node">
<title>Node4</title>
<g id="a_Node000004"><a xlink:href="FrameInterpolation_8cpp.html#a3a036bc9d533e28a4e9697cd20dccf3e" target="_top" xlink:title=" ">
<polygon fill="white" stroke="#666666" points="705.5,-520.5 595.5,-520.5 595.5,-490.5 705.5,-490.5 705.5,-520.5"/>
<text text-anchor="start" x="603.5" y="-508.5" font-family="Helvetica,sans-Serif" font-size="10.00">FrameInterpolation</text>
<text text-anchor="middle" x="650.5" y="-497.5" font-family="Helvetica,sans-Serif" font-size="10.00">_RecordCloseChild</text>
</a>
</g>
</g>
<!-- Node3&#45;&gt;Node4 -->
<g id="edge3_Node000003_Node000004" class="edge">
<title>Node3&#45;&gt;Node4</title>
<g id="a_edge3_Node000003_Node000004"><a xlink:title=" ">
<path fill="none" stroke="#63b8ff" d="M347.1,-360.16C358.7,-379.3 387.31,-422.13 423,-444.5 472.45,-475.49 537.52,-490.9 585.22,-498.46"/>
<polygon fill="#63b8ff" stroke="#63b8ff" points="584.71,-501.92 595.12,-499.96 585.76,-495 584.71,-501.92"/>
</a>
</g>
</g>
<!-- Node6 -->
<g id="Node000006" class="node">
<title>Node6</title>
<g id="a_Node000006"><a xlink:href="FrameInterpolation_8cpp.html#a0eda726b74eac815af4e874014e2727c" target="_top" xlink:title=" ">
<polygon fill="white" stroke="#666666" points="705.5,-568.5 595.5,-568.5 595.5,-538.5 705.5,-538.5 705.5,-568.5"/>
<text text-anchor="start" x="603.5" y="-556.5" font-family="Helvetica,sans-Serif" font-size="10.00">FrameInterpolation</text>
<text text-anchor="middle" x="650.5" y="-545.5" font-family="Helvetica,sans-Serif" font-size="10.00">_RecordOpenChild</text>
</a>
</g>
</g>
<!-- Node3&#45;&gt;Node6 -->
<g id="edge5_Node000003_Node000006" class="edge">
<title>Node3&#45;&gt;Node6</title>
<g id="a_edge5_Node000003_Node000006"><a xlink:title=" ">
<path fill="none" stroke="#63b8ff" d="M344.94,-360.2C353.92,-384.1 380.36,-446.3 423,-479.5 470.23,-516.28 536.44,-535.12 585.08,-544.56"/>
<polygon fill="#63b8ff" stroke="#63b8ff" points="584.71,-548.05 595.18,-546.43 585.98,-541.16 584.71,-548.05"/>
</a>
</g>
</g>
<!-- Node7 -->
<g id="Node000007" class="node">
<title>Node7</title>
<g id="a_Node000007"><a xlink:href="render__objects_8c.html#a9ea20c14c263ed864d8e02d082b6b18b" target="_top" xlink:title=" ">
<polygon fill="white" stroke="#666666" points="527.5,-285 435.5,-285 435.5,-266 527.5,-266 527.5,-285"/>
<text text-anchor="middle" x="481.5" y="-273" font-family="Helvetica,sans-Serif" font-size="10.00">func_8004B414</text>
</a>
</g>
</g>
<!-- Node3&#45;&gt;Node7 -->
<g id="edge7_Node000003_Node000007" class="edge">
<title>Node3&#45;&gt;Node7</title>
<g id="a_edge7_Node000003_Node000007"><a xlink:title=" ">
<path fill="none" stroke="#63b8ff" d="M371.33,-340.87C376.76,-338.52 382.21,-335.74 387,-332.5 406.27,-319.47 403.36,-306.97 423,-294.5 426.16,-292.49 429.55,-290.68 433.05,-289.04"/>
<polygon fill="#63b8ff" stroke="#63b8ff" points="434.6,-292.19 442.48,-285.1 431.9,-285.73 434.6,-292.19"/>
</a>
</g>
</g>
<!-- Node8 -->
<g id="Node000008" class="node">
<title>Node8</title>
<g id="a_Node000008"><a xlink:href="render__objects_8c.html#a93a6f0b4f562c06bfb21f3825543ad19" target="_top" xlink:title=" ">
<polygon fill="white" stroke="#666666" points="527.5,-322 435.5,-322 435.5,-303 527.5,-303 527.5,-322"/>
<text text-anchor="middle" x="481.5" y="-310" font-family="Helvetica,sans-Serif" font-size="10.00">func_8004B6C4</text>
</a>
</g>
</g>
<!-- Node3&#45;&gt;Node8 -->
<g id="edge8_Node000003_Node000008" class="edge">
<title>Node3&#45;&gt;Node8</title>
<g id="a_edge8_Node000003_Node000008"><a xlink:title=" ">
<path fill="none" stroke="#63b8ff" d="M376.58,-340.91C394.52,-336.01 416.56,-329.98 435.72,-324.74"/>
<polygon fill="#63b8ff" stroke="#63b8ff" points="436.71,-328.1 445.44,-322.09 434.87,-321.35 436.71,-328.1"/>
</a>
</g>
</g>
<!-- Node9 -->
<g id="Node000009" class="node">
<title>Node9</title>
<g id="a_Node000009"><a xlink:href="render__objects_8c.html#ac62f4d79ca049faf6db97f0daa8541bc" target="_top" xlink:title=" ">
<polygon fill="white" stroke="#666666" points="527.5,-398 435.5,-398 435.5,-379 527.5,-379 527.5,-398"/>
<text text-anchor="middle" x="481.5" y="-386" font-family="Helvetica,sans-Serif" font-size="10.00">func_800519D4</text>
</a>
</g>
</g>
<!-- Node3&#45;&gt;Node9 -->
<g id="edge9_Node000003_Node000009" class="edge">
<title>Node3&#45;&gt;Node9</title>
<g id="a_edge9_Node000003_Node000009"><a xlink:title=" ">
<path fill="none" stroke="#63b8ff" d="M376.58,-360.09C394.52,-364.99 416.56,-371.02 435.72,-376.26"/>
<polygon fill="#63b8ff" stroke="#63b8ff" points="434.87,-379.65 445.44,-378.91 436.71,-372.9 434.87,-379.65"/>
</a>
</g>
</g>
<!-- Node3&#45;&gt;Node21 -->
<g id="edge28_Node000003_Node000021" class="edge">
<title>Node3&#45;&gt;Node21</title>
<g id="a_edge28_Node000003_Node000021"><a xlink:title=" ">
<path fill="none" stroke="#63b8ff" d="M387.07,-354.48C428.8,-356.25 491.3,-354.03 540,-331.5 560.25,-322.13 556.55,-307.44 576,-296.5 582.1,-293.07 588.83,-290.25 595.66,-287.93"/>
<polygon fill="#63b8ff" stroke="#63b8ff" points="597.15,-291.13 605.69,-284.87 595.11,-284.44 597.15,-291.13"/>
</a>
</g>
</g>
<!-- Node25 -->
<g id="Node000025" class="node">
<title>Node25</title>
<g id="a_Node000025"><a xlink:href="render__objects_8c.html#a679db29d618ea79bd3a93f1117713906" target="_top" xlink:title=" ">
<polygon fill="white" stroke="#666666" points="524,-435 439,-435 439,-416 524,-416 524,-435"/>
<text text-anchor="middle" x="481.5" y="-423" font-family="Helvetica,sans-Serif" font-size="10.00">render_clouds</text>
</a>
</g>
</g>
<!-- Node3&#45;&gt;Node25 -->
<g id="edge29_Node000003_Node000025" class="edge">
<title>Node3&#45;&gt;Node25</title>
<g id="a_edge29_Node000003_Node000025"><a xlink:title=" ">
<path fill="none" stroke="#63b8ff" d="M352.67,-360C367.75,-372.43 395.88,-394.17 423,-407.5 426.59,-409.27 430.4,-410.91 434.27,-412.42"/>
<polygon fill="#63b8ff" stroke="#63b8ff" points="433.36,-415.81 443.95,-415.92 435.74,-409.23 433.36,-415.81"/>
</a>
</g>
</g>
<!-- Node5 -->
<g id="Node000005" class="node">
<title>Node5</title>
<g id="a_Node000005"><a xlink:href="FrameInterpolation_8cpp.html#a02c7ac5342a4d376edee38f312b480bf" target="_top" xlink:title=" ">
<polygon fill="white" stroke="#666666" points="1353,-476 1245,-476 1245,-457 1353,-457 1353,-476"/>
<text text-anchor="middle" x="1299" y="-464" font-family="Helvetica,sans-Serif" font-size="10.00">check_if_recording</text>
</a>
</g>
</g>
<!-- Node4&#45;&gt;Node5 -->
<g id="edge4_Node000004_Node000005" class="edge">
<title>Node4&#45;&gt;Node5</title>
<g id="a_edge4_Node000004_Node000005"><a xlink:title=" ">
<path fill="none" stroke="#63b8ff" d="M705.63,-507.63C805.62,-510.74 1025.77,-513.65 1209,-488.5 1224.63,-486.35 1241.5,-482.57 1256.31,-478.74"/>
<polygon fill="#63b8ff" stroke="#63b8ff" points="1257.43,-482.07 1266.19,-476.1 1255.62,-475.3 1257.43,-482.07"/>
</a>
</g>
</g>
<!-- Node6&#45;&gt;Node5 -->
<g id="edge6_Node000006_Node000005" class="edge">
<title>Node6&#45;&gt;Node5</title>
<g id="a_edge6_Node000006_Node000005"><a xlink:title=" ">
<path fill="none" stroke="#63b8ff" d="M705.66,-555.78C806.6,-558.61 1029.54,-558.09 1209,-509.5 1232.06,-503.26 1256.36,-491.09 1273.73,-481.28"/>
<polygon fill="#63b8ff" stroke="#63b8ff" points="1275.72,-484.18 1282.62,-476.13 1272.21,-478.12 1275.72,-484.18"/>
</a>
</g>
</g>
<!-- Node10 -->
<g id="Node000010" class="node">
<title>Node10</title>
<g id="a_Node000010"><a xlink:href="math__util__2_8c.html#ae4327c5df49b333e448da750f14387ce" target="_top" xlink:title=" ">
<polygon fill="white" stroke="#666666" points="725,-435 576,-435 576,-416 725,-416 725,-435"/>
<text text-anchor="middle" x="650.5" y="-423" font-family="Helvetica,sans-Serif" font-size="10.00">func_80042330_unchanged</text>
</a>
</g>
</g>
<!-- Node9&#45;&gt;Node10 -->
<g id="edge10_Node000009_Node000010" class="edge">
<title>Node9&#45;&gt;Node10</title>
<g id="a_edge10_Node000009_Node000010"><a xlink:title=" ">
<path fill="none" stroke="#63b8ff" d="M525.51,-398.03C547.14,-402.82 573.56,-408.68 596.45,-413.75"/>
<polygon fill="#63b8ff" stroke="#63b8ff" points="595.83,-417.19 606.35,-415.94 597.34,-410.36 595.83,-417.19"/>
</a>
</g>
</g>
<!-- Node19 -->
<g id="Node000019" class="node">
<title>Node19</title>
<g id="a_Node000019"><a xlink:href="render__objects_8c.html#a7e222e4426a0c151a8580e2982336170" target="_top" xlink:title=" ">
<polygon fill="white" stroke="#666666" points="697,-398 604,-398 604,-379 697,-379 697,-398"/>
<text text-anchor="middle" x="650.5" y="-386" font-family="Helvetica,sans-Serif" font-size="10.00">func_80044DA0</text>
</a>
</g>
</g>
<!-- Node9&#45;&gt;Node19 -->
<g id="edge21_Node000009_Node000019" class="edge">
<title>Node9&#45;&gt;Node19</title>
<g id="a_edge21_Node000009_Node000019"><a xlink:title=" ">
<path fill="none" stroke="#63b8ff" d="M527.69,-388.5C548.03,-388.5 572.24,-388.5 593.7,-388.5"/>
<polygon fill="#63b8ff" stroke="#63b8ff" points="593.98,-392 603.98,-388.5 593.98,-385 593.98,-392"/>
</a>
</g>
</g>
<!-- Node20 -->
<g id="Node000020" class="node">
<title>Node20</title>
<g id="a_Node000020"><a xlink:href="render__objects_8c.html#a816f6d2e246056f98e788f34a8bd091a" target="_top" xlink:title=" ">
<polygon fill="white" stroke="#666666" points="696.5,-324 604.5,-324 604.5,-305 696.5,-305 696.5,-324"/>
<text text-anchor="middle" x="650.5" y="-312" font-family="Helvetica,sans-Serif" font-size="10.00">func_8004B138</text>
</a>
</g>
</g>
<!-- Node9&#45;&gt;Node20 -->
<g id="edge22_Node000009_Node000020" class="edge">
<title>Node9&#45;&gt;Node20</title>
<g id="a_edge22_Node000009_Node000020"><a xlink:title=" ">
<path fill="none" stroke="#63b8ff" d="M510.28,-378.96C520.01,-375.09 530.8,-370.18 540,-364.5 557.97,-353.41 557.29,-343.29 576,-333.5 581.75,-330.49 588,-327.94 594.36,-325.78"/>
<polygon fill="#63b8ff" stroke="#63b8ff" points="595.84,-328.98 604.36,-322.69 593.78,-322.29 595.84,-328.98"/>
</a>
</g>
</g>
<!-- Node9&#45;&gt;Node21 -->
<g id="edge23_Node000009_Node000021" class="edge">
<title>Node9&#45;&gt;Node21</title>
<g id="a_edge23_Node000009_Node000021"><a xlink:title=" ">
<path fill="none" stroke="#63b8ff" d="M516.1,-378.98C524.59,-375.43 533.21,-370.7 540,-364.5 565.26,-341.45 549.16,-317.69 576,-296.5 581.9,-291.84 588.83,-288.31 596.02,-285.64"/>
<polygon fill="#63b8ff" stroke="#63b8ff" points="597.45,-288.86 605.93,-282.51 595.34,-282.19 597.45,-288.86"/>
</a>
</g>
</g>
<!-- Node24 -->
<g id="Node000024" class="node">
<title>Node24</title>
<g id="a_Node000024"><a xlink:href="GBIMiddleware_8cpp.html#aeef79449a27a710d73576e4a4f7f7f99" target="_top" xlink:title=" ">
<polygon fill="white" stroke="#666666" points="683.5,-361 617.5,-361 617.5,-342 683.5,-342 683.5,-361"/>
<text text-anchor="middle" x="650.5" y="-349" font-family="Helvetica,sans-Serif" font-size="10.00">gSPVertex</text>
</a>
</g>
</g>
<!-- Node9&#45;&gt;Node24 -->
<g id="edge26_Node000009_Node000024" class="edge">
<title>Node9&#45;&gt;Node24</title>
<g id="a_edge26_Node000009_Node000024"><a xlink:title=" ">
<path fill="none" stroke="#63b8ff" d="M525.51,-378.97C550.73,-373.38 582.47,-366.35 607.52,-360.8"/>
<polygon fill="#63b8ff" stroke="#63b8ff" points="608.45,-364.18 617.45,-358.6 606.93,-357.35 608.45,-364.18"/>
</a>
</g>
</g>
<!-- Node11 -->
<g id="Node000011" class="node">
<title>Node11</title>
<g id="a_Node000011"><a xlink:href="Matrix_8cpp.html#a329d78c031733cf22ff7518f5d38fd74" target="_top" xlink:title=" ">
<polygon fill="white" stroke="#666666" points="878.5,-471 792.5,-471 792.5,-452 878.5,-452 878.5,-471"/>
<text text-anchor="middle" x="835.5" y="-459" font-family="Helvetica,sans-Serif" font-size="10.00">AddHudMatrix</text>
</a>
</g>
</g>
<!-- Node10&#45;&gt;Node11 -->
<g id="edge11_Node000010_Node000011" class="edge">
<title>Node10&#45;&gt;Node11</title>
<g id="a_edge11_Node000010_Node000011"><a xlink:title=" ">
<path fill="none" stroke="#63b8ff" d="M700.06,-435.05C725.39,-440.04 756.41,-446.14 782.26,-451.22"/>
<polygon fill="#63b8ff" stroke="#63b8ff" points="781.77,-454.69 792.25,-453.19 783.12,-447.83 781.77,-454.69"/>
</a>
</g>
</g>
<!-- Node15 -->
<g id="Node000015" class="node">
<title>Node15</title>
<g id="a_Node000015"><a xlink:href="math__util__2_8c.html#a54b1e79ca4e8d2f7f7256891f9c4e772" target="_top" xlink:title="arg1 and arg2 are s32&#39;s into floats?!?">
<polygon fill="white" stroke="#666666" points="898.5,-418.5 772.5,-418.5 772.5,-388.5 898.5,-388.5 898.5,-418.5"/>
<text text-anchor="start" x="780.5" y="-406.5" font-family="Helvetica,sans-Serif" font-size="10.00">mtxf_translation_x</text>
<text text-anchor="middle" x="835.5" y="-395.5" font-family="Helvetica,sans-Serif" font-size="10.00">_y_rotate_z_scale_x_y</text>
</a>
</g>
</g>
<!-- Node10&#45;&gt;Node15 -->
<g id="edge16_Node000010_Node000015" class="edge">
<title>Node10&#45;&gt;Node15</title>
<g id="a_edge16_Node000010_Node000015"><a xlink:title=" ">
<path fill="none" stroke="#63b8ff" d="M725.14,-416.65C737.4,-415.17 750.11,-413.65 762.33,-412.18"/>
<polygon fill="#63b8ff" stroke="#63b8ff" points="762.95,-415.63 772.46,-410.96 762.12,-408.68 762.95,-415.63"/>
</a>
</g>
</g>
<!-- Node12 -->
<g id="Node000012" class="node">
<title>Node12</title>
<g id="a_Node000012"><a xlink:href="Matrix_8cpp.html#a67401ed1d8de1f4d3a3e5a7b72842b6a" target="_top" xlink:title=" ">
<polygon fill="white" stroke="#666666" points="1013,-479 946,-479 946,-460 1013,-460 1013,-479"/>
<text text-anchor="middle" x="979.5" y="-467" font-family="Helvetica,sans-Serif" font-size="10.00">AddMatrix</text>
</a>
</g>
</g>
<!-- Node11&#45;&gt;Node12 -->
<g id="edge12_Node000011_Node000012" class="edge">
<title>Node11&#45;&gt;Node12</title>
<g id="a_edge12_Node000011_Node000012"><a xlink:title=" ">
<path fill="none" stroke="#63b8ff" d="M878.72,-463.88C896.63,-464.89 917.47,-466.06 935.46,-467.08"/>
<polygon fill="#63b8ff" stroke="#63b8ff" points="935.5,-470.58 945.68,-467.65 935.9,-463.59 935.5,-470.58"/>
</a>
</g>
</g>
<!-- Node13 -->
<g id="Node000013" class="node">
<title>Node13</title>
<g id="a_Node000013"><a xlink:href="FrameInterpolation_8cpp.html#a8cf1f2d6fabc6925aa71a9515341b4aa" target="_top" xlink:title=" ">
<polygon fill="white" stroke="#666666" points="1199,-441.5 1059,-441.5 1059,-411.5 1199,-411.5 1199,-441.5"/>
<text text-anchor="start" x="1067" y="-429.5" font-family="Helvetica,sans-Serif" font-size="10.00">FrameInterpolation</text>
<text text-anchor="middle" x="1129" y="-418.5" font-family="Helvetica,sans-Serif" font-size="10.00">_RecordMatrixMtxFToMtx</text>
</a>
</g>
</g>
<!-- Node12&#45;&gt;Node13 -->
<g id="edge13_Node000012_Node000013" class="edge">
<title>Node12&#45;&gt;Node13</title>
<g id="a_edge13_Node000012_Node000013"><a xlink:title=" ">
<path fill="none" stroke="#63b8ff" d="M1013.24,-459.96C1028.99,-455.36 1048.41,-449.7 1066.76,-444.35"/>
<polygon fill="#63b8ff" stroke="#63b8ff" points="1067.9,-447.67 1076.52,-441.51 1065.94,-440.94 1067.9,-447.67"/>
</a>
</g>
</g>
<!-- Node14 -->
<g id="Node000014" class="node">
<title>Node14</title>
<g id="a_Node000014"><a xlink:href="guMtxF2L_8c.html#a40ab2d64c609839ff1e0ef0de2d0dcc4" target="_top" xlink:title=" ">
<polygon fill="white" stroke="#666666" points="1161.5,-479 1096.5,-479 1096.5,-460 1161.5,-460 1161.5,-479"/>
<text text-anchor="middle" x="1129" y="-467" font-family="Helvetica,sans-Serif" font-size="10.00">guMtxF2L</text>
</a>
</g>
</g>
<!-- Node12&#45;&gt;Node14 -->
<g id="edge15_Node000012_Node000014" class="edge">
<title>Node12&#45;&gt;Node14</title>
<g id="a_edge15_Node000012_Node000014"><a xlink:title=" ">
<path fill="none" stroke="#63b8ff" d="M1013.24,-469.5C1034.73,-469.5 1063.03,-469.5 1086.15,-469.5"/>
<polygon fill="#63b8ff" stroke="#63b8ff" points="1086.37,-473 1096.37,-469.5 1086.37,-466 1086.37,-473"/>
</a>
</g>
</g>
<!-- Node13&#45;&gt;Node5 -->
<g id="edge14_Node000013_Node000005" class="edge">
<title>Node13&#45;&gt;Node5</title>
<g id="a_edge14_Node000013_Node000005"><a xlink:title=" ">
<path fill="none" stroke="#63b8ff" d="M1193.03,-441.51C1211.25,-445.84 1230.86,-450.52 1248.16,-454.63"/>
<polygon fill="#63b8ff" stroke="#63b8ff" points="1247.5,-458.07 1258.04,-456.99 1249.12,-451.26 1247.5,-458.07"/>
</a>
</g>
</g>
<!-- Node16 -->
<g id="Node000016" class="node">
<title>Node16</title>
<g id="a_Node000016"><a xlink:href="math__util_8c.html#ae69cbf5c8d4b3b0dba2d7b4d4673689f" target="_top" xlink:title=" ">
<polygon fill="white" stroke="#666666" points="998.5,-442 960.5,-442 960.5,-423 998.5,-423 998.5,-442"/>
<text text-anchor="middle" x="979.5" y="-430" font-family="Helvetica,sans-Serif" font-size="10.00">coss</text>
</a>
</g>
</g>
<!-- Node15&#45;&gt;Node16 -->
<g id="edge17_Node000015_Node000016" class="edge">
<title>Node15&#45;&gt;Node16</title>
<g id="a_edge17_Node000015_Node000016"><a xlink:title=" ">
<path fill="none" stroke="#63b8ff" d="M898.78,-416.22C916.77,-419.89 935.52,-423.72 950.31,-426.74"/>
<polygon fill="#63b8ff" stroke="#63b8ff" points="949.82,-430.21 960.31,-428.79 951.22,-423.36 949.82,-430.21"/>
</a>
</g>
</g>
<!-- Node17 -->
<g id="Node000017" class="node">
<title>Node17</title>
<g id="a_Node000017"><a xlink:href="FrameInterpolation_8cpp.html#aeb9128118a5441a4bf264c302e761fe1" target="_top" xlink:title=" ">
<polygon fill="white" stroke="#666666" points="1209,-383.5 1049,-383.5 1049,-353.5 1209,-353.5 1209,-383.5"/>
<text text-anchor="start" x="1057" y="-371.5" font-family="Helvetica,sans-Serif" font-size="10.00">FrameInterpolation</text>
<text text-anchor="middle" x="1129" y="-360.5" font-family="Helvetica,sans-Serif" font-size="10.00">_RecordMatrixPosRotScaleXY</text>
</a>
</g>
</g>
<!-- Node15&#45;&gt;Node17 -->
<g id="edge18_Node000015_Node000017" class="edge">
<title>Node15&#45;&gt;Node17</title>
<g id="a_edge18_Node000015_Node000017"><a xlink:title=" ">
<path fill="none" stroke="#63b8ff" d="M890.99,-388.48C908.43,-384.23 927.91,-380.07 946,-377.5 975.98,-373.24 1008.98,-370.9 1038.56,-369.65"/>
<polygon fill="#63b8ff" stroke="#63b8ff" points="1039.01,-373.14 1048.87,-369.25 1038.74,-366.14 1039.01,-373.14"/>
</a>
</g>
</g>
<!-- Node18 -->
<g id="Node000018" class="node">
<title>Node18</title>
<g id="a_Node000018"><a xlink:href="math__util_8c.html#a19ed3bd78fd2d3e2bd0a29f6caf48545" target="_top" xlink:title=" ">
<polygon fill="white" stroke="#666666" points="997.5,-405 961.5,-405 961.5,-386 997.5,-386 997.5,-405"/>
<text text-anchor="middle" x="979.5" y="-393" font-family="Helvetica,sans-Serif" font-size="10.00">sins</text>
</a>
</g>
</g>
<!-- Node15&#45;&gt;Node18 -->
<g id="edge20_Node000015_Node000018" class="edge">
<title>Node15&#45;&gt;Node18</title>
<g id="a_edge20_Node000015_Node000018"><a xlink:title=" ">
<path fill="none" stroke="#63b8ff" d="M898.78,-399.99C917.13,-398.96 936.27,-397.88 951.19,-397.04"/>
<polygon fill="#63b8ff" stroke="#63b8ff" points="951.46,-400.53 961.24,-396.47 951.06,-393.54 951.46,-400.53"/>
</a>
</g>
</g>
<!-- Node17&#45;&gt;Node5 -->
<g id="edge19_Node000017_Node000005" class="edge">
<title>Node17&#45;&gt;Node5</title>
<g id="a_edge19_Node000017_Node000005"><a xlink:title=" ">
<path fill="none" stroke="#63b8ff" d="M1169.79,-383.64C1182.59,-389.03 1196.65,-395.51 1209,-402.5 1234.11,-416.71 1260.68,-436.53 1278.19,-450.33"/>
<polygon fill="#63b8ff" stroke="#63b8ff" points="1276.46,-453.43 1286.46,-456.94 1280.83,-447.97 1276.46,-453.43"/>
</a>
</g>
</g>
<!-- Node22 -->
<g id="Node000022" class="node">
<title>Node22</title>
<g id="a_Node000022"><a xlink:href="Engine_8cpp.html#a223c8bc63f228dc11177515e38eff2db" target="_top" xlink:title=" ">
<polygon fill="white" stroke="#666666" points="910,-309 761,-309 761,-290 910,-290 910,-309"/>
<text text-anchor="middle" x="835.5" y="-297" font-family="Helvetica,sans-Serif" font-size="10.00">GameEngine_OTRSigCheck</text>
</a>
</g>
</g>
<!-- Node21&#45;&gt;Node22 -->
<g id="edge24_Node000021_Node000022" class="edge">
<title>Node21&#45;&gt;Node22</title>
<g id="a_edge24_Node000021_Node000022"><a xlink:title=" ">
<path fill="none" stroke="#63b8ff" d="M695.33,-282.77C711.99,-284.77 731.57,-287.13 750.7,-289.43"/>
<polygon fill="#63b8ff" stroke="#63b8ff" points="750.3,-292.9 760.65,-290.62 751.14,-285.95 750.3,-292.9"/>
</a>
</g>
</g>
<!-- Node23 -->
<g id="Node000023" class="node">
<title>Node23</title>
<g id="a_Node000023"><a xlink:href="string_8c.html#a008e171a518fe0e0352f31b245e03875" target="_top" xlink:title=" ">
<polygon fill="white" stroke="#666666" points="1001.5,-309 957.5,-309 957.5,-290 1001.5,-290 1001.5,-309"/>
<text text-anchor="middle" x="979.5" y="-297" font-family="Helvetica,sans-Serif" font-size="10.00">strlen</text>
</a>
</g>
</g>
<!-- Node22&#45;&gt;Node23 -->
<g id="edge25_Node000022_Node000023" class="edge">
<title>Node22&#45;&gt;Node23</title>
<g id="a_edge25_Node000022_Node000023"><a xlink:title=" ">
<path fill="none" stroke="#63b8ff" d="M910.41,-299.5C923.35,-299.5 936.16,-299.5 947.12,-299.5"/>
<polygon fill="#63b8ff" stroke="#63b8ff" points="947.39,-303 957.39,-299.5 947.39,-296 947.39,-303"/>
</a>
</g>
</g>
<!-- Node24&#45;&gt;Node22 -->
<g id="edge27_Node000024_Node000022" class="edge">
<title>Node24&#45;&gt;Node22</title>
<g id="a_edge27_Node000024_Node000022"><a xlink:title=" ">
<path fill="none" stroke="#63b8ff" d="M683.81,-344.04C696.67,-340.95 711.58,-337.22 725,-333.5 748.57,-326.96 774.75,-318.86 795.59,-312.21"/>
<polygon fill="#63b8ff" stroke="#63b8ff" points="796.91,-315.47 805.36,-309.08 794.77,-308.8 796.91,-315.47"/>
</a>
</g>
</g>
<!-- Node25&#45;&gt;Node4 -->
<g id="edge31_Node000025_Node000004" class="edge">
<title>Node25&#45;&gt;Node4</title>
<g id="a_edge31_Node000025_Node000004"><a xlink:title=" ">
<path fill="none" stroke="#63b8ff" d="M496.22,-435.06C513.99,-447.12 546.21,-467.92 576,-481.5 580.1,-483.37 584.38,-485.16 588.73,-486.86"/>
<polygon fill="#63b8ff" stroke="#63b8ff" points="587.73,-490.22 598.32,-490.43 590.18,-483.66 587.73,-490.22"/>
</a>
</g>
</g>
<!-- Node25&#45;&gt;Node6 -->
<g id="edge32_Node000025_Node000006" class="edge">
<title>Node25&#45;&gt;Node6</title>
<g id="a_edge32_Node000025_Node000006"><a xlink:title=" ">
<path fill="none" stroke="#63b8ff" d="M488.52,-435.06C501.81,-455.4 535.71,-503.27 576,-529.5 579.17,-531.56 582.53,-533.46 586,-535.21"/>
<polygon fill="#63b8ff" stroke="#63b8ff" points="584.84,-538.53 595.39,-539.48 587.74,-532.15 584.84,-538.53"/>
</a>
</g>
</g>
<!-- Node25&#45;&gt;Node10 -->
<g id="edge33_Node000025_Node000010" class="edge">
<title>Node25&#45;&gt;Node10</title>
<g id="a_edge33_Node000025_Node000010"><a xlink:title=" ">
<path fill="none" stroke="#63b8ff" d="M524.21,-425.5C536.8,-425.5 551.11,-425.5 565.43,-425.5"/>
<polygon fill="#63b8ff" stroke="#63b8ff" points="565.84,-429 575.84,-425.5 565.84,-422 565.84,-429"/>
</a>
</g>
</g>
<!-- Node25&#45;&gt;Node19 -->
<g id="edge34_Node000025_Node000019" class="edge">
<title>Node25&#45;&gt;Node19</title>
<g id="a_edge34_Node000025_Node000019"><a xlink:title=" ">
<path fill="none" stroke="#63b8ff" d="M524.21,-416.26C546.19,-411.39 573.37,-405.37 596.8,-400.18"/>
<polygon fill="#63b8ff" stroke="#63b8ff" points="597.57,-403.59 606.58,-398.01 596.06,-396.76 597.57,-403.59"/>
</a>
</g>
</g>
<!-- Node25&#45;&gt;Node21 -->
<g id="edge35_Node000025_Node000021" class="edge">
<title>Node25&#45;&gt;Node21</title>
<g id="a_edge35_Node000025_Node000021"><a xlink:title=" ">
<path fill="none" stroke="#63b8ff" d="M524.16,-417.77C530.01,-415.25 535.54,-411.92 540,-407.5 576.86,-371.02 538.23,-332.04 576,-296.5 581.74,-291.1 588.8,-287.19 596.26,-284.36"/>
<polygon fill="#63b8ff" stroke="#63b8ff" points="597.37,-287.68 605.85,-281.33 595.26,-281.01 597.37,-287.68"/>
</a>
</g>
</g>
<!-- Node25&#45;&gt;Node24 -->
<g id="edge36_Node000025_Node000024" class="edge">
<title>Node25&#45;&gt;Node24</title>
<g id="a_edge36_Node000025_Node000024"><a xlink:title=" ">
<path fill="none" stroke="#63b8ff" d="M522.3,-415.9C528.45,-413.61 534.56,-410.84 540,-407.5 559.55,-395.48 556.16,-382.02 576,-370.5 585.5,-364.98 596.61,-361.05 607.27,-358.24"/>
<polygon fill="#63b8ff" stroke="#63b8ff" points="608.35,-361.58 617.28,-355.89 606.75,-354.77 608.35,-361.58"/>
</a>
</g>
</g>
<!-- Node26 -->
<g id="Node000026" class="node">
<title>Node26</title>
<g id="a_Node000026"><a xlink:href="math__util_8h.html#a8fb5c0b9b43a108724b355136d29d2f9" target="_top" xlink:title=" ">
<polygon fill="white" stroke="#666666" points="669.5,-472 631.5,-472 631.5,-453 669.5,-453 669.5,-472"/>
<text text-anchor="middle" x="650.5" y="-460" font-family="Helvetica,sans-Serif" font-size="10.00">fabs</text>
</a>
</g>
</g>
<!-- Node25&#45;&gt;Node26 -->
<g id="edge30_Node000025_Node000026" class="edge">
<title>Node25&#45;&gt;Node26</title>
<g id="a_edge30_Node000025_Node000026"><a xlink:title=" ">
<path fill="none" stroke="#63b8ff" d="M524.21,-434.74C554.57,-441.47 594.87,-450.4 621.46,-456.29"/>
<polygon fill="#63b8ff" stroke="#63b8ff" points="620.75,-459.72 631.27,-458.46 622.27,-452.88 620.75,-459.72"/>
</a>
</g>
</g>
<!-- Node27&#45;&gt;Node3 -->
<g id="edge38_Node000027_Node000003" class="edge">
<title>Node27&#45;&gt;Node3</title>
<g id="a_edge38_Node000027_Node000003"><a xlink:title=" ">
<path fill="none" stroke="#63b8ff" d="M238.76,-207.38C245.87,-210.25 252.63,-214.16 258,-219.5 295.37,-256.67 258.02,-293.98 294,-332.5 294.88,-333.44 295.82,-334.34 296.8,-335.19"/>
<polygon fill="#63b8ff" stroke="#63b8ff" points="294.83,-338.08 305.07,-340.83 298.78,-332.3 294.83,-338.08"/>
</a>
</g>
</g>
<!-- Node28 -->
<g id="Node000028" class="node">
<title>Node28</title>
<g id="a_Node000028"><a xlink:href="Game_8cpp.html#aa2636859b1f988d43f21be6ccffc86ca" target="_top" xlink:title=" ">
<polygon fill="white" stroke="#666666" points="540,-172 423,-172 423,-153 540,-153 540,-172"/>
<text text-anchor="middle" x="481.5" y="-160" font-family="Helvetica,sans-Serif" font-size="10.00">IsKoopaTroopaBeach</text>
</a>
</g>
</g>
<!-- Node27&#45;&gt;Node28 -->
<g id="edge39_Node000027_Node000028" class="edge">
<title>Node27&#45;&gt;Node28</title>
<g id="a_edge39_Node000027_Node000028"><a xlink:title=" ">
<path fill="none" stroke="#63b8ff" d="M238.77,-193.72C285.41,-187.69 359.06,-178.18 412.82,-171.24"/>
<polygon fill="#63b8ff" stroke="#63b8ff" points="413.48,-174.68 422.95,-169.93 412.59,-167.74 413.48,-174.68"/>
</a>
</g>
</g>
<!-- Node29 -->
<g id="Node000029" class="node">
<title>Node29</title>
<g id="a_Node000029"><a xlink:href="Game_8cpp.html#a8a295fe1e3fdfa50223813feaca6d7d6" target="_top" xlink:title=" ">
<polygon fill="white" stroke="#666666" points="527,-135 436,-135 436,-116 527,-116 527,-135"/>
<text text-anchor="middle" x="481.5" y="-123" font-family="Helvetica,sans-Serif" font-size="10.00">IsMooMooFarm</text>
</a>
</g>
</g>
<!-- Node27&#45;&gt;Node29 -->
<g id="edge40_Node000027_Node000029" class="edge">
<title>Node27&#45;&gt;Node29</title>
<g id="a_edge40_Node000027_Node000029"><a xlink:title=" ">
<path fill="none" stroke="#63b8ff" d="M227.26,-189.91C246.68,-184.37 271.68,-177.37 294,-171.5 339.99,-159.39 392.61,-146.5 430.2,-137.46"/>
<polygon fill="#63b8ff" stroke="#63b8ff" points="431.48,-140.75 440.39,-135.01 429.85,-133.94 431.48,-140.75"/>
</a>
</g>
</g>
<!-- Node30 -->
<g id="Node000030" class="node">
<title>Node30</title>
<g id="a_Node000030"><a xlink:href="Game_8cpp.html#ab05bb065469940f40a5023c58a8f9e7f" target="_top" xlink:title=" ">
<polygon fill="white" stroke="#666666" points="521.5,-209 441.5,-209 441.5,-190 521.5,-190 521.5,-209"/>
<text text-anchor="middle" x="481.5" y="-197" font-family="Helvetica,sans-Serif" font-size="10.00">IsYoshiValley</text>
</a>
</g>
</g>
<!-- Node27&#45;&gt;Node30 -->
<g id="edge41_Node000027_Node000030" class="edge">
<title>Node27&#45;&gt;Node30</title>
<g id="a_edge41_Node000027_Node000030"><a xlink:title=" ">
<path fill="none" stroke="#63b8ff" d="M238.77,-199.5C290.96,-199.5 376.95,-199.5 431.07,-199.5"/>
<polygon fill="#63b8ff" stroke="#63b8ff" points="431.11,-203 441.11,-199.5 431.11,-196 431.11,-203"/>
</a>
</g>
</g>
<!-- Node31&#45;&gt;Node3 -->
<g id="edge43_Node000031_Node000003" class="edge">
<title>Node31&#45;&gt;Node3</title>
<g id="a_edge43_Node000031_Node000003"><a xlink:title=" ">
<path fill="none" stroke="#63b8ff" d="M239.15,-246.41C245.97,-249.17 252.54,-252.78 258,-257.5 285.97,-281.69 266.95,-307.3 294,-332.5 295.13,-333.55 296.32,-334.54 297.57,-335.48"/>
<polygon fill="#63b8ff" stroke="#63b8ff" points="296.06,-338.66 306.42,-340.88 299.71,-332.68 296.06,-338.66"/>
</a>
</g>
</g>
<!-- Node31&#45;&gt;Node28 -->
<g id="edge44_Node000031_Node000028" class="edge">
<title>Node31&#45;&gt;Node28</title>
<g id="a_edge44_Node000031_Node000028"><a xlink:title=" ">
<path fill="none" stroke="#63b8ff" d="M230.58,-227.93C282.52,-214.33 377.63,-189.43 434.36,-174.58"/>
<polygon fill="#63b8ff" stroke="#63b8ff" points="435.35,-177.94 444.14,-172.02 433.58,-171.16 435.35,-177.94"/>
</a>
</g>
</g>
<!-- Node31&#45;&gt;Node29 -->
<g id="edge45_Node000031_Node000029" class="edge">
<title>Node31&#45;&gt;Node29</title>
<g id="a_edge45_Node000031_Node000029"><a xlink:title=" ">
<path fill="none" stroke="#63b8ff" d="M236.48,-227.95C243.91,-225.43 251.37,-222.32 258,-218.5 277.07,-207.51 275.04,-195.67 294,-184.5 345.84,-153.97 365.63,-161.6 423,-143.5 428.62,-141.73 434.56,-139.86 440.4,-138.03"/>
<polygon fill="#63b8ff" stroke="#63b8ff" points="441.56,-141.33 450.05,-135 439.47,-134.65 441.56,-141.33"/>
</a>
</g>
</g>
<!-- Node31&#45;&gt;Node30 -->
<g id="edge46_Node000031_Node000030" class="edge">
<title>Node31&#45;&gt;Node30</title>
<g id="a_edge46_Node000031_Node000030"><a xlink:title=" ">
<path fill="none" stroke="#63b8ff" d="M230.56,-247.06C269.85,-255.75 333.83,-265.29 387,-251.5 413.95,-244.51 441.39,-227.88 459.51,-215.3"/>
<polygon fill="#63b8ff" stroke="#63b8ff" points="461.99,-217.82 468.08,-209.16 457.92,-212.13 461.99,-217.82"/>
</a>
</g>
</g>
<!-- Node33 -->
<g id="Node000033" class="node">
<title>Node33</title>
<g id="a_Node000033"><a xlink:href="render__objects_8c.html#a5076afafc3e6fad82897fff313f766c7" target="_top" xlink:title=" ">
<polygon fill="white" stroke="#666666" points="386.5,-323 294.5,-323 294.5,-304 386.5,-304 386.5,-323"/>
<text text-anchor="middle" x="340.5" y="-311" font-family="Helvetica,sans-Serif" font-size="10.00">func_80051C60</text>
</a>
</g>
</g>
<!-- Node32&#45;&gt;Node33 -->
<g id="edge48_Node000032_Node000033" class="edge">
<title>Node32&#45;&gt;Node33</title>
<g id="a_edge48_Node000032_Node000033"><a xlink:title=" ">
<path fill="none" stroke="#63b8ff" d="M238.84,-312.81C253.16,-312.91 269.17,-313.02 284.14,-313.12"/>
<polygon fill="#63b8ff" stroke="#63b8ff" points="284.28,-316.62 294.3,-313.19 284.33,-309.62 284.28,-316.62"/>
</a>
</g>
</g>
<!-- Node33&#45;&gt;Node7 -->
<g id="edge49_Node000033_Node000007" class="edge">
<title>Node33&#45;&gt;Node7</title>
<g id="a_edge49_Node000033_Node000007"><a xlink:title=" ">
<path fill="none" stroke="#63b8ff" d="M376.58,-303.91C394.52,-299.01 416.56,-292.98 435.72,-287.74"/>
<polygon fill="#63b8ff" stroke="#63b8ff" points="436.71,-291.1 445.44,-285.09 434.87,-284.35 436.71,-291.1"/>
</a>
</g>
</g>
<!-- Node33&#45;&gt;Node8 -->
<g id="edge50_Node000033_Node000008" class="edge">
<title>Node33&#45;&gt;Node8</title>
<g id="a_edge50_Node000033_Node000008"><a xlink:title=" ">
<path fill="none" stroke="#63b8ff" d="M386.63,-313.18C398.89,-313.09 412.31,-312.99 425.07,-312.9"/>
<polygon fill="#63b8ff" stroke="#63b8ff" points="425.15,-316.4 435.12,-312.83 425.1,-309.4 425.15,-316.4"/>
</a>
</g>
</g>
<!-- Node33&#45;&gt;Node9 -->
<g id="edge51_Node000033_Node000009" class="edge">
<title>Node33&#45;&gt;Node9</title>
<g id="a_edge51_Node000033_Node000009"><a xlink:title=" ">
<path fill="none" stroke="#63b8ff" d="M366.35,-323.12C373.14,-325.95 380.43,-329.18 387,-332.5 411.71,-344.98 438.71,-361.48 457.31,-373.33"/>
<polygon fill="#63b8ff" stroke="#63b8ff" points="455.67,-376.44 465.97,-378.9 459.46,-370.55 455.67,-376.44"/>
</a>
</g>
</g>
<!-- Node33&#45;&gt;Node21 -->
<g id="edge52_Node000033_Node000021" class="edge">
<title>Node33&#45;&gt;Node21</title>
<g id="a_edge52_Node000033_Node000021"><a xlink:title=" ">
<path fill="none" stroke="#63b8ff" d="M362.04,-303.99C370.08,-299.93 379.22,-294.89 387,-289.5 404.6,-277.31 402.99,-265.11 423,-257.5 486.81,-233.24 567.76,-250.88 613.58,-264.88"/>
<polygon fill="#63b8ff" stroke="#63b8ff" points="612.76,-268.3 623.35,-267.98 614.87,-261.62 612.76,-268.3"/>
</a>
</g>
</g>
<!-- Node33&#45;&gt;Node25 -->
<g id="edge56_Node000033_Node000025" class="edge">
<title>Node33&#45;&gt;Node25</title>
<g id="a_edge56_Node000033_Node000025"><a xlink:title=" ">
<path fill="none" stroke="#63b8ff" d="M373.19,-323.17C378.2,-325.65 383.03,-328.73 387,-332.5 413.82,-357.96 395.04,-383.31 423,-407.5 425.01,-409.24 427.18,-410.81 429.47,-412.22"/>
<polygon fill="#63b8ff" stroke="#63b8ff" points="428.25,-415.53 438.75,-416.98 431.45,-409.3 428.25,-415.53"/>
</a>
</g>
</g>
<!-- Node33&#45;&gt;Node28 -->
<g id="edge53_Node000033_Node000028" class="edge">
<title>Node33&#45;&gt;Node28</title>
<g id="a_edge53_Node000033_Node000028"><a xlink:title=" ">
<path fill="none" stroke="#63b8ff" d="M349.41,-303.75C358.91,-291.81 375.06,-270.8 387,-251.5 405.41,-221.75 396.41,-204.24 423,-181.5 424.99,-179.8 427.14,-178.24 429.4,-176.83"/>
<polygon fill="#63b8ff" stroke="#63b8ff" points="431.31,-179.78 438.54,-172.03 428.06,-173.58 431.31,-179.78"/>
</a>
</g>
</g>
<!-- Node33&#45;&gt;Node29 -->
<g id="edge54_Node000033_Node000029" class="edge">
<title>Node33&#45;&gt;Node29</title>
<g id="a_edge54_Node000033_Node000029"><a xlink:title=" ">
<path fill="none" stroke="#63b8ff" d="M343.33,-303.78C349.28,-274.88 370.79,-188.7 423,-143.5 424.36,-142.32 425.8,-141.22 427.29,-140.2"/>
<polygon fill="#63b8ff" stroke="#63b8ff" points="429.41,-143.02 436.4,-135.06 425.97,-136.92 429.41,-143.02"/>
</a>
</g>
</g>
<!-- Node33&#45;&gt;Node30 -->
<g id="edge55_Node000033_Node000030" class="edge">
<title>Node33&#45;&gt;Node30</title>
<g id="a_edge55_Node000033_Node000030"><a xlink:title=" ">
<path fill="none" stroke="#63b8ff" d="M365.92,-303.91C373.3,-300.2 381.02,-295.39 387,-289.5 410.79,-266.04 398.18,-245.87 423,-223.5 427.38,-219.56 432.49,-216.21 437.83,-213.37"/>
<polygon fill="#63b8ff" stroke="#63b8ff" points="439.39,-216.51 446.95,-209.08 436.41,-210.17 439.39,-216.51"/>
</a>
</g>
</g>
<!-- Node34&#45;&gt;Node33 -->
<g id="edge58_Node000034_Node000033" class="edge">
<title>Node34&#45;&gt;Node33</title>
<g id="a_edge58_Node000034_Node000033"><a xlink:title=" ">
<path fill="none" stroke="#63b8ff" d="M230.72,-285.09C249.66,-290.04 272.96,-296.12 293.13,-301.39"/>
<polygon fill="#63b8ff" stroke="#63b8ff" points="292.49,-304.84 303.05,-303.98 294.26,-298.07 292.49,-304.84"/>
</a>
</g>
</g>
<!-- Node36 -->
<g id="Node000036" class="node">
<title>Node36</title>
<g id="a_Node000036"><a xlink:href="Matrix_8cpp.html#a4492684baa9aa4d5630e960595294835" target="_top" xlink:title=" ">
<polygon fill="white" stroke="#666666" points="386.5,-19 294.5,-19 294.5,0 386.5,0 386.5,-19"/>
<text text-anchor="middle" x="340.5" y="-7" font-family="Helvetica,sans-Serif" font-size="10.00">GetOrthoMatrix</text>
</a>
</g>
</g>
<!-- Node35&#45;&gt;Node36 -->
<g id="edge61_Node000035_Node000036" class="edge">
<title>Node35&#45;&gt;Node36</title>
<g id="a_edge61_Node000035_Node000036"><a xlink:title=" ">
<path fill="none" stroke="#63b8ff" d="M258.24,-9.5C266.9,-9.5 275.72,-9.5 284.21,-9.5"/>
<polygon fill="#63b8ff" stroke="#63b8ff" points="284.36,-13 294.36,-9.5 284.36,-6 284.36,-13"/>
</a>
</g>
</g>
</g>
</svg>

<g id="navigator" transform="translate(0 0)" fill="#404254">
  <rect fill="#f2f5e9" fill-opacity="0.5" stroke="#606060" stroke-width=".5" x="0" y="0" width="60" height="60"/>
  <use id="zoomplus" xlink:href="#zoomPlus" x="17" y="9" onmousedown="handleZoom(evt,'in')"/>
  <use id="zoomminus" xlink:href="#zoomMin" x="42" y="9" onmousedown="handleZoom(evt,'out')"/>
  <use id="reset" xlink:href="#resetDef" x="30" y="36" onmousedown="handleReset()"/>
   <use id="arrowup" xlink:href="#arrowUp" x="0" y="0" onmousedown="handlePan(0,-1)"/>
  <use id="arrowright" xlink:href="#arrowRight" x="0" y="0" onmousedown="handlePan(1,0)"/>
  <use id="arrowdown" xlink:href="#arrowDown" x="0" y="0" onmousedown="handlePan(0,1)"/>
  <use id="arrowleft" xlink:href="#arrowLeft" x="0" y="0" onmousedown="handlePan(-1,0)"/>
</g>
<svg viewBox="0 0 15 15" width="100%" height="30px" preserveAspectRatio="xMaxYMin meet">
 <g id="arrow_out" transform="scale(0.3 0.3)">
  <a xlink:href="code__80057C60_8c_a5051668e440a7101d3885766d39d2404_cgraph_org.svg" target="_base">
   <rect id="button" ry="5" rx="5" y="6" x="6" height="38" width="38"
        fill="#f2f5e9" fill-opacity="0.5" stroke="#606060" stroke-width="1.0"/>
   <path id="arrow"
     d="M 11.500037,31.436501 C 11.940474,20.09759 22.043105,11.32322 32.158766,21.979434 L 37.068811,17.246167 C 37.068811,17.246167 37.088388,32 37.088388,32 L 22.160133,31.978069 C 22.160133,31.978069 26.997745,27.140456 26.997745,27.140456 C 18.528582,18.264221 13.291696,25.230495 11.500037,31.436501 z"
     style="fill:#404040;"/>
  </a>
 </g>
</svg>

<style type='text/css'>
<![CDATA[
[data-mouse-over-selected='false'] { opacity: 0.7; }
[data-mouse-over-selected='true']  { opacity: 1.0; }
]]>
</style>
<script type="application/ecmascript"><![CDATA[
document.addEventListener('DOMContentLoaded', (event) => {
  highlightEdges();
  highlightAdjacentNodes();
});
]]></script>
</svg>
