<?xml version="1.0" encoding="UTF-8" standalone="no"?>
<!DOCTYPE svg PUBLIC "-//W3C//DTD SVG 1.1//EN"
 "http://www.w3.org/Graphics/SVG/1.1/DTD/svg11.dtd">
<!-- Generated by graphviz version 2.43.0 (0)
 -->
<!-- Title: setup_podium_ceremony Pages: 1 -->
<svg width="851pt" height="1114pt"
 viewBox="0.00 0.00 851.00 1114.00" xmlns="http://www.w3.org/2000/svg" xmlns:xlink="http://www.w3.org/1999/xlink">
<g id="graph0" class="graph" transform="scale(1 1) rotate(0) translate(4 1110)">
<title>setup_podium_ceremony</title>
<!-- Node1 -->
<g id="Node000001" class="node">
<title>Node1</title>
<g id="a_Node000001"><a xlink:title=" ">
<polygon fill="#999999" stroke="#666666" points="140,-402 0,-402 0,-383 140,-383 140,-402"/>
<text text-anchor="middle" x="70" y="-390" font-family="Helvetica,sans-Serif" font-size="10.00">setup_podium_ceremony</text>
</a>
</g>
</g>
<!-- Node2 -->
<g id="Node000002" class="node">
<title>Node2</title>
<g id="a_Node000002"><a xlink:href="podium__ceremony__actors_8c.html#a627072a12cb9f239d1e7b629161b4b45" target="_top" xlink:title=" ">
<polygon fill="white" stroke="#666666" points="534,-1104 382,-1104 382,-1085 534,-1085 534,-1104"/>
<text text-anchor="middle" x="458" y="-1092" font-family="Helvetica,sans-Serif" font-size="10.00">balloons_and_fireworks_init</text>
</a>
</g>
</g>
<!-- Node1&#45;&gt;Node2 -->
<g id="edge1_Node000001_Node000002" class="edge">
<title>Node1&#45;&gt;Node2</title>
<g id="a_edge1_Node000001_Node000002"><a xlink:title=" ">
<path fill="none" stroke="#63b8ff" d="M71.19,-402.19C72.83,-474.56 86.61,-930.23 176,-1026.5 225.34,-1079.63 308.47,-1094.45 371.55,-1097.28"/>
<polygon fill="#63b8ff" stroke="#63b8ff" points="371.77,-1100.79 381.89,-1097.65 372.02,-1093.8 371.77,-1100.79"/>
</a>
</g>
</g>
<!-- Node8 -->
<g id="Node000008" class="node">
<title>Node8</title>
<g id="a_Node000008"><a xlink:href="podium__ceremony__actors_8c.html#a39cd8d6e099949c9d43d1061dbf14b58" target="_top" xlink:title=" ">
<polygon fill="white" stroke="#666666" points="332.5,-1017 189.5,-1017 189.5,-998 332.5,-998 332.5,-1017"/>
<text text-anchor="middle" x="261" y="-1005" font-family="Helvetica,sans-Serif" font-size="10.00">clear_D_802874D8_actors</text>
</a>
</g>
</g>
<!-- Node1&#45;&gt;Node8 -->
<g id="edge5_Node000001_Node000008" class="edge">
<title>Node1&#45;&gt;Node8</title>
<g id="a_edge5_Node000001_Node000008"><a xlink:title=" ">
<path fill="none" stroke="#63b8ff" d="M71.27,-402.1C73.44,-471.82 90.2,-900.46 176,-989.5 177.44,-990.99 178.96,-992.37 180.57,-993.65"/>
<polygon fill="#63b8ff" stroke="#63b8ff" points="178.87,-996.72 189.16,-999.24 182.69,-990.86 178.87,-996.72"/>
</a>
</g>
</g>
<!-- Node9 -->
<g id="Node000009" class="node">
<title>Node9</title>
<g id="a_Node000009"><a xlink:href="Game_8cpp.html#a88c0d93fc49776f7a5c145312f4f81a0" target="_top" xlink:title=" ">
<polygon fill="white" stroke="#666666" points="304,-980 218,-980 218,-961 304,-961 304,-980"/>
<text text-anchor="middle" x="261" y="-968" font-family="Helvetica,sans-Serif" font-size="10.00">CM_BeginPlay</text>
</a>
</g>
</g>
<!-- Node1&#45;&gt;Node9 -->
<g id="edge6_Node000001_Node000009" class="edge">
<title>Node1&#45;&gt;Node9</title>
<g id="a_edge6_Node000001_Node000009"><a xlink:title=" ">
<path fill="none" stroke="#63b8ff" d="M71.42,-402.33C74.49,-470.15 95.82,-868.32 176,-951.5 184.43,-960.25 195.97,-965.36 207.8,-968.25"/>
<polygon fill="#63b8ff" stroke="#63b8ff" points="207.25,-971.71 217.74,-970.2 208.6,-964.84 207.25,-971.71"/>
</a>
</g>
</g>
<!-- Node14 -->
<g id="Node000014" class="node">
<title>Node14</title>
<g id="a_Node000014"><a xlink:href="code__80281780_8c.html#a76c4e29164ea94ce7dd883af83565b45" target="_top" xlink:title=" ">
<polygon fill="white" stroke="#666666" points="328,-942.5 194,-942.5 194,-912.5 328,-912.5 328,-942.5"/>
<text text-anchor="start" x="202" y="-930.5" font-family="Helvetica,sans-Serif" font-size="10.00">debug_switch_character</text>
<text text-anchor="middle" x="261" y="-919.5" font-family="Helvetica,sans-Serif" font-size="10.00">_ceremony_cutscene</text>
</a>
</g>
</g>
<!-- Node1&#45;&gt;Node14 -->
<g id="edge8_Node000001_Node000014" class="edge">
<title>Node1&#45;&gt;Node14</title>
<g id="a_edge8_Node000001_Node000014"><a xlink:title=" ">
<path fill="none" stroke="#63b8ff" d="M71.65,-402.26C76.13,-466.29 104.27,-826.12 176,-903.5 178.76,-906.48 181.87,-909.1 185.21,-911.4"/>
<polygon fill="#63b8ff" stroke="#63b8ff" points="183.56,-914.49 193.96,-916.49 187.08,-908.44 183.56,-914.49"/>
</a>
</g>
</g>
<!-- Node15 -->
<g id="Node000015" class="node">
<title>Node15</title>
<g id="a_Node000015"><a xlink:href="memory_8c.html#a55df5934da66daade2d48fa82f079cd7" target="_top" xlink:title=" ">
<polygon fill="white" stroke="#666666" points="522.5,-841 393.5,-841 393.5,-822 522.5,-822 522.5,-841"/>
<text text-anchor="middle" x="458" y="-829" font-family="Helvetica,sans-Serif" font-size="10.00">decompress_segments</text>
</a>
</g>
</g>
<!-- Node1&#45;&gt;Node15 -->
<g id="edge9_Node000001_Node000015" class="edge">
<title>Node1&#45;&gt;Node15</title>
<g id="a_edge9_Node000001_Node000015"><a xlink:title=" ">
<path fill="none" stroke="#63b8ff" d="M72.31,-402.21C77.98,-440.99 103.46,-587.17 176,-678.5 244.08,-764.21 281.51,-770.08 382,-813.5 386.72,-815.54 391.71,-817.37 396.78,-819.01"/>
<polygon fill="#63b8ff" stroke="#63b8ff" points="396.01,-822.43 406.6,-821.94 398.01,-815.73 396.01,-822.43"/>
</a>
</g>
</g>
<!-- Node30 -->
<g id="Node000030" class="node">
<title>Node30</title>
<g id="a_Node000030"><a xlink:href="code__80005FD0_8c.html#a325ddded54aab32025174f6aedd5e391" target="_top" xlink:title=" ">
<polygon fill="white" stroke="#666666" points="307,-894 215,-894 215,-875 307,-875 307,-894"/>
<text text-anchor="middle" x="261" y="-882" font-family="Helvetica,sans-Serif" font-size="10.00">func_8001C05C</text>
</a>
</g>
</g>
<!-- Node1&#45;&gt;Node30 -->
<g id="edge12_Node000001_Node000030" class="edge">
<title>Node1&#45;&gt;Node30</title>
<g id="a_edge12_Node000001_Node000030"><a xlink:title=" ">
<path fill="none" stroke="#63b8ff" d="M70.7,-402.3C69.61,-453 70.6,-688.76 176,-833.5 188.12,-850.14 207.47,-862.42 224.55,-870.76"/>
<polygon fill="#63b8ff" stroke="#63b8ff" points="223.2,-873.99 233.74,-874.99 226.12,-867.63 223.2,-873.99"/>
</a>
</g>
</g>
<!-- Node76 -->
<g id="Node000076" class="node">
<title>Node76</title>
<g id="a_Node000076"><a xlink:href="Game_8cpp.html#a98a02979796d2f6890672392ce7a2831" target="_top" xlink:title=" ">
<polygon fill="white" stroke="#666666" points="525,-878 391,-878 391,-859 525,-859 525,-878"/>
<text text-anchor="middle" x="458" y="-866" font-family="Helvetica,sans-Serif" font-size="10.00">SelectPodiumCeremony</text>
</a>
</g>
</g>
<!-- Node1&#45;&gt;Node76 -->
<g id="edge57_Node000001_Node000076" class="edge">
<title>Node1&#45;&gt;Node76</title>
<g id="a_edge57_Node000001_Node000076"><a xlink:title=" ">
<path fill="none" stroke="#63b8ff" d="M71.09,-402.12C71.99,-447.2 81.46,-640.1 176,-751.5 228.33,-813.17 318.54,-842.92 382.62,-856.88"/>
<polygon fill="#63b8ff" stroke="#63b8ff" points="382.17,-860.36 392.67,-858.98 383.6,-853.51 382.17,-860.36"/>
</a>
</g>
</g>
<!-- Node77 -->
<g id="Node000077" class="node">
<title>Node77</title>
<g id="a_Node000077"><a xlink:href="spawn__players_8c.html#ac1a9412b931cfa517a2382c2fc605399" target="_top" xlink:title=" ">
<polygon fill="white" stroke="#666666" points="307,-669 215,-669 215,-650 307,-650 307,-669"/>
<text text-anchor="middle" x="261" y="-657" font-family="Helvetica,sans-Serif" font-size="10.00">func_8003D080</text>
</a>
</g>
</g>
<!-- Node1&#45;&gt;Node77 -->
<g id="edge21_Node000001_Node000077" class="edge">
<title>Node1&#45;&gt;Node77</title>
<g id="a_edge21_Node000001_Node000077"><a xlink:title=" ">
<path fill="none" stroke="#63b8ff" d="M77.73,-402C105.39,-441.09 210.68,-589.82 247.33,-641.6"/>
<polygon fill="#63b8ff" stroke="#63b8ff" points="244.52,-643.69 253.16,-649.83 250.24,-639.65 244.52,-643.69"/>
</a>
</g>
</g>
<!-- Node341 -->
<g id="Node000341" class="node">
<title>Node341</title>
<g id="a_Node000341"><a xlink:href="menu__items_8c.html#a8f942ce2eea4297b90318c3a439f552a" target="_top" xlink:title=" ">
<polygon fill="white" stroke="#666666" points="306.5,-449 215.5,-449 215.5,-430 306.5,-430 306.5,-449"/>
<text text-anchor="middle" x="261" y="-437" font-family="Helvetica,sans-Serif" font-size="10.00">func_80093E60</text>
</a>
</g>
</g>
<!-- Node1&#45;&gt;Node341 -->
<g id="edge33_Node000001_Node000341" class="edge">
<title>Node1&#45;&gt;Node341</title>
<g id="a_edge33_Node000001_Node000341"><a xlink:title=" ">
<path fill="none" stroke="#63b8ff" d="M109.25,-402.01C138.74,-409.34 179.72,-419.54 211.51,-427.44"/>
<polygon fill="#63b8ff" stroke="#63b8ff" points="210.94,-430.91 221.49,-429.92 212.63,-424.11 210.94,-430.91"/>
</a>
</g>
</g>
<!-- Node346 -->
<g id="Node000346" class="node">
<title>Node346</title>
<g id="a_Node000346"><a xlink:href="code__80281780_8c.html#af05d725c838e028965e71803e80f9d4e" target="_top" xlink:title=" ">
<polygon fill="white" stroke="#666666" points="307,-402 215,-402 215,-383 307,-383 307,-402"/>
<text text-anchor="middle" x="261" y="-390" font-family="Helvetica,sans-Serif" font-size="10.00">func_802818BC</text>
</a>
</g>
</g>
<!-- Node1&#45;&gt;Node346 -->
<g id="edge39_Node000001_Node000346" class="edge">
<title>Node1&#45;&gt;Node346</title>
<g id="a_edge39_Node000001_Node000346"><a xlink:title=" ">
<path fill="none" stroke="#63b8ff" d="M140.04,-392.5C161.42,-392.5 184.67,-392.5 204.97,-392.5"/>
<polygon fill="#63b8ff" stroke="#63b8ff" points="204.98,-396 214.98,-392.5 204.98,-389 204.98,-396"/>
</a>
</g>
</g>
<!-- Node348 -->
<g id="Node000348" class="node">
<title>Node348</title>
<g id="a_Node000348"><a xlink:href="render__courses_8c.html#ab02cdf6684f984a12e7388fe973bc89a" target="_top" xlink:title=" ">
<polygon fill="white" stroke="#666666" points="307,-365 215,-365 215,-346 307,-346 307,-365"/>
<text text-anchor="middle" x="261" y="-353" font-family="Helvetica,sans-Serif" font-size="10.00">func_80295C6C</text>
</a>
</g>
</g>
<!-- Node1&#45;&gt;Node348 -->
<g id="edge41_Node000001_Node000348" class="edge">
<title>Node1&#45;&gt;Node348</title>
<g id="a_edge41_Node000001_Node000348"><a xlink:title=" ">
<path fill="none" stroke="#63b8ff" d="M119.67,-382.97C145.66,-377.88 177.76,-371.6 204.69,-366.33"/>
<polygon fill="#63b8ff" stroke="#63b8ff" points="205.6,-369.72 214.74,-364.36 204.25,-362.85 205.6,-369.72"/>
</a>
</g>
</g>
<!-- Node352 -->
<g id="Node000352" class="node">
<title>Node352</title>
<g id="a_Node000352"><a xlink:href="skybox__and__splitscreen_8c.html#a1520a44a27c37f0b2554764974afb428" target="_top" xlink:title=" ">
<polygon fill="white" stroke="#666666" points="307.5,-328 214.5,-328 214.5,-309 307.5,-309 307.5,-328"/>
<text text-anchor="middle" x="261" y="-316" font-family="Helvetica,sans-Serif" font-size="10.00">func_802A4D18</text>
</a>
</g>
</g>
<!-- Node1&#45;&gt;Node352 -->
<g id="edge43_Node000001_Node000352" class="edge">
<title>Node1&#45;&gt;Node352</title>
<g id="a_edge43_Node000001_Node000352"><a xlink:title=" ">
<path fill="none" stroke="#63b8ff" d="M86.07,-382.99C105.96,-370.83 142.39,-349.86 176,-337.5 185.06,-334.17 194.89,-331.31 204.54,-328.89"/>
<polygon fill="#63b8ff" stroke="#63b8ff" points="205.55,-332.25 214.47,-326.54 203.93,-325.44 205.55,-332.25"/>
</a>
</g>
</g>
<!-- Node353 -->
<g id="Node000353" class="node">
<title>Node353</title>
<g id="a_Node000353"><a xlink:href="collision_8c.html#a0c0f33fa7f0e76fa9cd556c9f1401b36" target="_top" xlink:title=" ">
<polygon fill="white" stroke="#666666" points="346,-290.5 176,-290.5 176,-260.5 346,-260.5 346,-290.5"/>
<text text-anchor="start" x="184" y="-278.5" font-family="Helvetica,sans-Serif" font-size="10.00">generate_collision</text>
<text text-anchor="middle" x="261" y="-267.5" font-family="Helvetica,sans-Serif" font-size="10.00">_mesh_with_default_section_id</text>
</a>
</g>
</g>
<!-- Node1&#45;&gt;Node353 -->
<g id="edge44_Node000001_Node000353" class="edge">
<title>Node1&#45;&gt;Node353</title>
<g id="a_edge44_Node000001_Node000353"><a xlink:title=" ">
<path fill="none" stroke="#63b8ff" d="M79.25,-382.92C95.76,-364.34 134.84,-323.22 176,-300.5 180,-298.29 184.23,-296.25 188.56,-294.38"/>
<polygon fill="#63b8ff" stroke="#63b8ff" points="190.19,-297.5 198.19,-290.54 187.6,-291 190.19,-297.5"/>
</a>
</g>
</g>
<!-- Node361 -->
<g id="Node000361" class="node">
<title>Node361</title>
<g id="a_Node000361"><a xlink:href="camera__junk_8c.html#a4c3e89a6dd34210249553b52665bf2a4" target="_top" xlink:title=" ">
<polygon fill="white" stroke="#666666" points="319,-242.5 203,-242.5 203,-212.5 319,-212.5 319,-242.5"/>
<text text-anchor="start" x="211" y="-230.5" font-family="Helvetica,sans-Serif" font-size="10.00">init_camera_podium</text>
<text text-anchor="middle" x="261" y="-219.5" font-family="Helvetica,sans-Serif" font-size="10.00">_ceremony</text>
</a>
</g>
</g>
<!-- Node1&#45;&gt;Node361 -->
<g id="edge47_Node000001_Node000361" class="edge">
<title>Node1&#45;&gt;Node361</title>
<g id="a_edge47_Node000001_Node000361"><a xlink:title=" ">
<path fill="none" stroke="#63b8ff" d="M75.35,-382.93C87.45,-357.44 124.02,-287.41 176,-251.5 181.24,-247.88 187.02,-244.8 193.03,-242.18"/>
<polygon fill="#63b8ff" stroke="#63b8ff" points="194.56,-245.34 202.6,-238.44 192.01,-238.82 194.56,-245.34"/>
</a>
</g>
</g>
<!-- Node367 -->
<g id="Node000367" class="node">
<title>Node367</title>
<g id="a_Node000367"><a xlink:href="code__8006E9C0_8c.html#a47667a5a47fd4ca740865e963ce795c9" target="_top" xlink:title=" ">
<polygon fill="#fff0f0" stroke="red" points="289,-194 233,-194 233,-175 289,-175 289,-194"/>
<text text-anchor="middle" x="261" y="-182" font-family="Helvetica,sans-Serif" font-size="10.00">init_hud</text>
</a>
</g>
</g>
<!-- Node1&#45;&gt;Node367 -->
<g id="edge49_Node000001_Node000367" class="edge">
<title>Node1&#45;&gt;Node367</title>
<g id="a_edge49_Node000001_Node000367"><a xlink:title=" ">
<path fill="none" stroke="#63b8ff" d="M73.36,-382.8C81.53,-351.38 111.72,-251.67 176,-203.5 189.35,-193.5 207.02,-188.6 222.7,-186.27"/>
<polygon fill="#63b8ff" stroke="#63b8ff" points="223.15,-189.74 232.66,-185.07 222.31,-182.79 223.15,-189.74"/>
</a>
</g>
</g>
<!-- Node389 -->
<g id="Node000389" class="node">
<title>Node389</title>
<g id="a_Node000389"><a xlink:href="memory_8c.html#a332cad400462e507d8d6d2d68035b0b2" target="_top" xlink:title="Loads &amp; DMAs course data. Vtx, textures, displaylists, etc.">
<polygon fill="#fff0f0" stroke="red" points="298.5,-157 223.5,-157 223.5,-138 298.5,-138 298.5,-157"/>
<text text-anchor="middle" x="261" y="-145" font-family="Helvetica,sans-Serif" font-size="10.00">load_course</text>
</a>
</g>
</g>
<!-- Node1&#45;&gt;Node389 -->
<g id="edge55_Node000001_Node000389" class="edge">
<title>Node1&#45;&gt;Node389</title>
<g id="a_edge55_Node000001_Node000389"><a xlink:title=" ">
<path fill="none" stroke="#63b8ff" d="M72.4,-382.96C78.07,-347.97 102.61,-225.74 176,-166.5 186.57,-157.97 200.21,-153.1 213.42,-150.37"/>
<polygon fill="#63b8ff" stroke="#63b8ff" points="214.11,-153.8 223.38,-148.67 212.93,-146.9 214.11,-153.8"/>
</a>
</g>
</g>
<!-- Node393 -->
<g id="Node000393" class="node">
<title>Node393</title>
<g id="a_Node000393"><a xlink:href="memory_8c.html#a8f7f3165d1a5092720aa26d9502bb678" target="_top" xlink:title=" ">
<polygon fill="white" stroke="#666666" points="333,-120 189,-120 189,-101 333,-101 333,-120"/>
<text text-anchor="middle" x="261" y="-108" font-family="Helvetica,sans-Serif" font-size="10.00">segmented_gfx_to_virtual</text>
</a>
</g>
</g>
<!-- Node1&#45;&gt;Node393 -->
<g id="edge56_Node000001_Node000393" class="edge">
<title>Node1&#45;&gt;Node393</title>
<g id="a_edge56_Node000001_Node000393"><a xlink:title=" ">
<path fill="none" stroke="#63b8ff" d="M71.74,-382.79C75.24,-344.14 93.56,-199.89 176,-129.5 177.8,-127.96 179.7,-126.54 181.68,-125.23"/>
<polygon fill="#63b8ff" stroke="#63b8ff" points="183.78,-128.07 190.81,-120.15 180.37,-121.95 183.78,-128.07"/>
</a>
</g>
</g>
<!-- Node394 -->
<g id="Node000394" class="node">
<title>Node394</title>
<g id="a_Node000394"><a xlink:href="skybox__and__splitscreen_8c.html#a58e23917e0a11f717598a99e1e7ebc97" target="_top" xlink:title=" ">
<polygon fill="white" stroke="#666666" points="295.5,-83 226.5,-83 226.5,-64 295.5,-64 295.5,-83"/>
<text text-anchor="middle" x="261" y="-71" font-family="Helvetica,sans-Serif" font-size="10.00">set_screen</text>
</a>
</g>
</g>
<!-- Node1&#45;&gt;Node394 -->
<g id="edge58_Node000001_Node000394" class="edge">
<title>Node1&#45;&gt;Node394</title>
<g id="a_edge58_Node000001_Node000394"><a xlink:title=" ">
<path fill="none" stroke="#63b8ff" d="M71.17,-382.86C72.47,-340.96 83.47,-173.17 176,-91.5 186.98,-81.81 201.89,-76.91 216.1,-74.54"/>
<polygon fill="#63b8ff" stroke="#63b8ff" points="216.79,-77.98 226.26,-73.24 215.9,-71.04 216.79,-77.98"/>
</a>
</g>
</g>
<!-- Node395 -->
<g id="Node000395" class="node">
<title>Node395</title>
<g id="a_Node000395"><a xlink:href="memory_8c.html#ac3218ec03e916f72bffc829d420ba5f7" target="_top" xlink:title="Stores the physical memory addr for segmented memory in gSegmentTable using the segment number as an ...">
<polygon fill="white" stroke="#666666" points="328.5,-46 193.5,-46 193.5,-27 328.5,-27 328.5,-46"/>
<text text-anchor="middle" x="261" y="-34" font-family="Helvetica,sans-Serif" font-size="10.00">set_segment_base_addr</text>
</a>
</g>
</g>
<!-- Node1&#45;&gt;Node395 -->
<g id="edge59_Node000001_Node000395" class="edge">
<title>Node1&#45;&gt;Node395</title>
<g id="a_edge59_Node000001_Node000395"><a xlink:title=" ">
<path fill="none" stroke="#63b8ff" d="M70.76,-382.93C70.17,-338.18 73.93,-147.76 176,-54.5 178.61,-52.11 181.46,-50.02 184.48,-48.17"/>
<polygon fill="#63b8ff" stroke="#63b8ff" points="186.07,-51.29 193.39,-43.62 182.89,-45.05 186.07,-51.29"/>
</a>
</g>
</g>
<!-- Node3 -->
<g id="Node000003" class="node">
<title>Node3</title>
<g id="a_Node000003"><a xlink:href="bstring_8h.html#ab828ad07c8ebf898973f27778c543651" target="_top" xlink:title=" ">
<polygon fill="white" stroke="#666666" points="655.5,-1030 611.5,-1030 611.5,-1011 655.5,-1011 655.5,-1030"/>
<text text-anchor="middle" x="633.5" y="-1018" font-family="Helvetica,sans-Serif" font-size="10.00">bzero</text>
</a>
</g>
</g>
<!-- Node2&#45;&gt;Node3 -->
<g id="edge2_Node000002_Node000003" class="edge">
<title>Node2&#45;&gt;Node3</title>
<g id="a_edge2_Node000002_Node000003"><a xlink:title=" ">
<path fill="none" stroke="#63b8ff" d="M513.03,-1084.94C520.29,-1082.68 527.47,-1079.91 534,-1076.5 552.98,-1066.59 551.71,-1055.63 570,-1044.5 579.78,-1038.55 591.29,-1033.62 601.75,-1029.82"/>
<polygon fill="#63b8ff" stroke="#63b8ff" points="603.04,-1033.07 611.36,-1026.51 600.77,-1026.45 603.04,-1033.07"/>
</a>
</g>
</g>
<!-- Node4 -->
<g id="Node000004" class="node">
<title>Node4</title>
<g id="a_Node000004"><a xlink:href="memory_8c.html#a7e6e89972c484db957ddbd70ba07ed92" target="_top" xlink:title="Returns the address of the next available memory location and updates the memory pointer to reference...">
<polygon fill="white" stroke="#666666" points="843,-772.5 733,-772.5 733,-742.5 843,-742.5 843,-772.5"/>
<text text-anchor="start" x="741" y="-760.5" font-family="Helvetica,sans-Serif" font-size="10.00">get_next_available</text>
<text text-anchor="middle" x="788" y="-749.5" font-family="Helvetica,sans-Serif" font-size="10.00">_memory_addr</text>
</a>
</g>
</g>
<!-- Node2&#45;&gt;Node4 -->
<g id="edge3_Node000002_Node000004" class="edge">
<title>Node2&#45;&gt;Node4</title>
<g id="a_edge3_Node000002_Node000004"><a xlink:title=" ">
<path fill="none" stroke="#63b8ff" d="M512.72,-1084.98C578.66,-1072.86 683.45,-1051.98 697,-1039.5 772.14,-970.27 784.85,-838.5 786.78,-783.07"/>
<polygon fill="#63b8ff" stroke="#63b8ff" points="790.29,-782.84 787.04,-772.75 783.29,-782.66 790.29,-782.84"/>
</a>
</g>
</g>
<!-- Node5 -->
<g id="Node000005" class="node">
<title>Node5</title>
<g id="a_Node000005"><a xlink:href="podium__ceremony__actors_8c.html#a8f084b11598b111cbea7b52e49b26c8b" target="_top" xlink:title=" ">
<polygon fill="#fff0f0" stroke="red" points="667,-1106 600,-1106 600,-1087 667,-1087 667,-1106"/>
<text text-anchor="middle" x="633.5" y="-1094" font-family="Helvetica,sans-Serif" font-size="10.00">new_actor</text>
</a>
</g>
</g>
<!-- Node2&#45;&gt;Node5 -->
<g id="edge4_Node000002_Node000005" class="edge">
<title>Node2&#45;&gt;Node5</title>
<g id="a_edge4_Node000002_Node000005"><a xlink:title=" ">
<path fill="none" stroke="#63b8ff" d="M534.09,-1095.37C553.2,-1095.59 573.08,-1095.82 589.93,-1096.01"/>
<polygon fill="#63b8ff" stroke="#63b8ff" points="589.96,-1099.51 600,-1096.13 590.04,-1092.51 589.96,-1099.51"/>
</a>
</g>
</g>
<!-- Node10 -->
<g id="Node000010" class="node">
<title>Node10</title>
<g id="a_Node000010"><a xlink:href="namespaceEditor.html#ac95c825fc97e637d93f36fe4e9121515" target="_top" xlink:title=" ">
<polygon fill="#fff0f0" stroke="red" points="508.5,-1067 407.5,-1067 407.5,-1048 508.5,-1048 508.5,-1067"/>
<text text-anchor="middle" x="458" y="-1055" font-family="Helvetica,sans-Serif" font-size="10.00">Editor::LoadLevel</text>
</a>
</g>
</g>
<!-- Node9&#45;&gt;Node10 -->
<g id="edge7_Node000009_Node000010" class="edge">
<title>Node9&#45;&gt;Node10</title>
<g id="a_edge7_Node000009_Node000010"><a xlink:title=" ">
<path fill="none" stroke="#63b8ff" d="M304.1,-973.96C318.3,-976.64 333.66,-981.33 346,-989.5 368.84,-1004.61 359.26,-1024.24 382,-1039.5 386.84,-1042.75 392.21,-1045.42 397.78,-1047.6"/>
<polygon fill="#63b8ff" stroke="#63b8ff" points="396.7,-1050.93 407.3,-1050.85 398.96,-1044.31 396.7,-1050.93"/>
</a>
</g>
</g>
<!-- Node16 -->
<g id="Node000016" class="node">
<title>Node16</title>
<g id="a_Node000016"><a xlink:href="main_8c.html#ae65702968508faa083fb901ff89020d8" target="_top" xlink:title=" ">
<polygon fill="#fff0f0" stroke="red" points="667,-917 600,-917 600,-898 667,-898 667,-917"/>
<text text-anchor="middle" x="633.5" y="-905" font-family="Helvetica,sans-Serif" font-size="10.00">dma_copy</text>
</a>
</g>
</g>
<!-- Node15&#45;&gt;Node16 -->
<g id="edge10_Node000015_Node000016" class="edge">
<title>Node15&#45;&gt;Node16</title>
<g id="a_edge10_Node000015_Node000016"><a xlink:title=" ">
<path fill="none" stroke="#63b8ff" d="M505.26,-841.08C514.92,-843.67 524.92,-846.81 534,-850.5 561.65,-861.75 590.97,-879.57 610.36,-892.29"/>
<polygon fill="#63b8ff" stroke="#63b8ff" points="608.51,-895.27 618.78,-897.9 612.4,-889.45 608.51,-895.27"/>
</a>
</g>
</g>
<!-- Node29 -->
<g id="Node000029" class="node">
<title>Node29</title>
<g id="a_Node000029"><a xlink:href="stubs_8c.html#ae4722e596a88d66404ccaaf6ea181b41" target="_top" xlink:title=" ">
<polygon fill="white" stroke="#666666" points="672,-656 595,-656 595,-637 672,-637 672,-656"/>
<text text-anchor="middle" x="633.5" y="-644" font-family="Helvetica,sans-Serif" font-size="10.00">mio0decode</text>
</a>
</g>
</g>
<!-- Node15&#45;&gt;Node29 -->
<g id="edge11_Node000015_Node000029" class="edge">
<title>Node15&#45;&gt;Node29</title>
<g id="a_edge11_Node000015_Node000029"><a xlink:title=" ">
<path fill="none" stroke="#63b8ff" d="M520.16,-821.85C525.12,-819.6 529.82,-816.85 534,-813.5 562.51,-790.59 551.76,-771.2 570,-739.5 585.52,-712.53 606.05,-682.95 619.27,-664.55"/>
<polygon fill="#63b8ff" stroke="#63b8ff" points="622.25,-666.41 625.28,-656.26 616.58,-662.3 622.25,-666.41"/>
</a>
</g>
</g>
<!-- Node31 -->
<g id="Node000031" class="node">
<title>Node31</title>
<g id="a_Node000031"><a xlink:href="code__80005FD0_8c.html#a33f4e263ad7573063f17905299a90caf" target="_top" xlink:title=" ">
<polygon fill="#fff0f0" stroke="red" points="679.5,-842 587.5,-842 587.5,-823 679.5,-823 679.5,-842"/>
<text text-anchor="middle" x="633.5" y="-830" font-family="Helvetica,sans-Serif" font-size="10.00">func_80014DE4</text>
</a>
</g>
</g>
<!-- Node30&#45;&gt;Node31 -->
<g id="edge13_Node000030_Node000031" class="edge">
<title>Node30&#45;&gt;Node31</title>
<g id="a_edge13_Node000030_Node000031"><a xlink:title=" ">
<path fill="none" stroke="#63b8ff" d="M307.1,-887.88C320.57,-890.61 334.73,-895.35 346,-903.5 371.19,-921.73 354.94,-948.18 382,-963.5 440.79,-996.78 476.73,-999.33 534,-963.5 565.01,-944.1 548.1,-918.79 570,-889.5 581.76,-873.77 598.29,-858.93 611.39,-848.33"/>
<polygon fill="#63b8ff" stroke="#63b8ff" points="613.73,-850.94 619.42,-842.01 609.4,-845.44 613.73,-850.94"/>
</a>
</g>
</g>
<!-- Node33 -->
<g id="Node000033" class="node">
<title>Node33</title>
<g id="a_Node000033"><a xlink:href="code__80005FD0_8c.html#a7808902aee426ba4433e92cde1feb8a1" target="_top" xlink:title=" ">
<polygon fill="#fff0f0" stroke="red" points="504,-954 412,-954 412,-935 504,-935 504,-954"/>
<text text-anchor="middle" x="458" y="-942" font-family="Helvetica,sans-Serif" font-size="10.00">func_8001BE78</text>
</a>
</g>
</g>
<!-- Node30&#45;&gt;Node33 -->
<g id="edge14_Node000030_Node000033" class="edge">
<title>Node30&#45;&gt;Node33</title>
<g id="a_edge14_Node000030_Node000033"><a xlink:title=" ">
<path fill="none" stroke="#63b8ff" d="M307.41,-892.87C320.06,-895.71 333.7,-899.26 346,-903.5 362.73,-909.26 365.54,-914.01 382,-920.5 392.22,-924.53 403.41,-928.39 413.95,-931.79"/>
<polygon fill="#63b8ff" stroke="#63b8ff" points="413.22,-935.23 423.81,-934.91 415.33,-928.56 413.22,-935.23"/>
</a>
</g>
</g>
<!-- Node48 -->
<g id="Node000048" class="node">
<title>Node48</title>
<g id="a_Node000048"><a xlink:href="code__80005FD0_8c.html#a77709d8cbf7a0b88d0f3cb3f5efca3be" target="_top" xlink:title=" ">
<polygon fill="#fff0f0" stroke="red" points="697,-767 570,-767 570,-748 697,-748 697,-767"/>
<text text-anchor="middle" x="633.5" y="-755" font-family="Helvetica,sans-Serif" font-size="10.00">init_course_path_point</text>
</a>
</g>
</g>
<!-- Node30&#45;&gt;Node48 -->
<g id="edge15_Node000030_Node000048" class="edge">
<title>Node30&#45;&gt;Node48</title>
<g id="a_edge15_Node000030_Node000048"><a xlink:title=" ">
<path fill="none" stroke="#63b8ff" d="M307.06,-890.69C374.42,-899.01 497.36,-910.29 534,-887.5 564.72,-868.4 548.26,-843.41 570,-814.5 581.8,-798.81 598.33,-783.96 611.42,-773.35"/>
<polygon fill="#63b8ff" stroke="#63b8ff" points="613.76,-775.97 619.44,-767.03 609.42,-770.47 613.76,-775.97"/>
</a>
</g>
</g>
<!-- Node75 -->
<g id="Node000075" class="node">
<title>Node75</title>
<g id="a_Node000075"><a xlink:href="main_8c.html#a0251c90fb83072f3510a39e2f1b3e980" target="_top" xlink:title=" ">
<polygon fill="white" stroke="#666666" points="516,-1030 400,-1030 400,-1011 516,-1011 516,-1030"/>
<text text-anchor="middle" x="458" y="-1018" font-family="Helvetica,sans-Serif" font-size="10.00">init_segment_racing</text>
</a>
</g>
</g>
<!-- Node30&#45;&gt;Node75 -->
<g id="edge17_Node000030_Node000075" class="edge">
<title>Node30&#45;&gt;Node75</title>
<g id="a_edge17_Node000030_Node000075"><a xlink:title=" ">
<path fill="none" stroke="#63b8ff" d="M307.12,-886.58C320.91,-889.21 335.25,-894.22 346,-903.5 379.56,-932.46 349.74,-966.11 382,-996.5 386.33,-1000.58 391.37,-1003.97 396.73,-1006.78"/>
<polygon fill="#63b8ff" stroke="#63b8ff" points="395.46,-1010.05 406.01,-1010.99 398.35,-1003.68 395.46,-1010.05"/>
</a>
</g>
</g>
<!-- Node30&#45;&gt;Node76 -->
<g id="edge20_Node000030_Node000076" class="edge">
<title>Node30&#45;&gt;Node76</title>
<g id="a_edge20_Node000030_Node000076"><a xlink:title=" ">
<path fill="none" stroke="#63b8ff" d="M307.23,-880.79C329.08,-879 355.91,-876.79 380.79,-874.75"/>
<polygon fill="#63b8ff" stroke="#63b8ff" points="381.27,-878.23 390.95,-873.92 380.7,-871.25 381.27,-878.23"/>
</a>
</g>
</g>
<!-- Node48&#45;&gt;Node4 -->
<g id="edge16_Node000048_Node000004" class="edge">
<title>Node48&#45;&gt;Node4</title>
<g id="a_edge16_Node000048_Node000004"><a xlink:title=" ">
<path fill="none" stroke="#63b8ff" d="M697.41,-757.5C705.81,-757.5 714.43,-757.5 722.85,-757.5"/>
<polygon fill="#63b8ff" stroke="#63b8ff" points="722.99,-761 732.99,-757.5 722.99,-754 722.99,-761"/>
</a>
</g>
</g>
<!-- Node75&#45;&gt;Node3 -->
<g id="edge18_Node000075_Node000003" class="edge">
<title>Node75&#45;&gt;Node3</title>
<g id="a_edge18_Node000075_Node000003"><a xlink:title=" ">
<path fill="none" stroke="#63b8ff" d="M516.29,-1020.5C544.54,-1020.5 577.51,-1020.5 601.11,-1020.5"/>
<polygon fill="#63b8ff" stroke="#63b8ff" points="601.24,-1024 611.23,-1020.5 601.23,-1017 601.24,-1024"/>
</a>
</g>
</g>
<!-- Node75&#45;&gt;Node16 -->
<g id="edge19_Node000075_Node000016" class="edge">
<title>Node75&#45;&gt;Node16</title>
<g id="a_edge19_Node000075_Node000016"><a xlink:title=" ">
<path fill="none" stroke="#63b8ff" d="M499.65,-1010.93C511.18,-1007.32 523.45,-1002.57 534,-996.5 567.56,-977.19 599.49,-944.89 617.48,-924.97"/>
<polygon fill="#63b8ff" stroke="#63b8ff" points="620.29,-927.08 624.3,-917.27 615.05,-922.44 620.29,-927.08"/>
</a>
</g>
</g>
<!-- Node78 -->
<g id="Node000078" class="node">
<title>Node78</title>
<g id="a_Node000078"><a xlink:href="camera_8c.html#a2699fb853dad47cc722031ca412a31ea" target="_top" xlink:title=" ">
<polygon fill="#fff0f0" stroke="red" points="495,-804 421,-804 421,-785 495,-785 495,-804"/>
<text text-anchor="middle" x="458" y="-792" font-family="Helvetica,sans-Serif" font-size="10.00">camera_init</text>
</a>
</g>
</g>
<!-- Node77&#45;&gt;Node78 -->
<g id="edge22_Node000077_Node000078" class="edge">
<title>Node77&#45;&gt;Node78</title>
<g id="a_edge22_Node000077_Node000078"><a xlink:title=" ">
<path fill="none" stroke="#63b8ff" d="M282.63,-669.16C300.96,-678.53 327.62,-694.14 346,-713.5 368.2,-736.89 356.2,-757.15 382,-776.5 390.44,-782.83 400.79,-786.97 411.08,-789.67"/>
<polygon fill="#63b8ff" stroke="#63b8ff" points="410.34,-793.09 420.86,-791.84 411.85,-786.26 410.34,-793.09"/>
</a>
</g>
</g>
<!-- Node81 -->
<g id="Node000081" class="node">
<title>Node81</title>
<g id="a_Node000081"><a xlink:href="camera_8c.html#a77eb0aa11072a84cb3dfc4446aa1bff5" target="_top" xlink:title=" ">
<polygon fill="#fff0f0" stroke="red" points="497,-656 419,-656 419,-637 497,-637 497,-656"/>
<text text-anchor="middle" x="458" y="-644" font-family="Helvetica,sans-Serif" font-size="10.00">freecam_init</text>
</a>
</g>
</g>
<!-- Node77&#45;&gt;Node81 -->
<g id="edge24_Node000077_Node000081" class="edge">
<title>Node77&#45;&gt;Node81</title>
<g id="a_edge24_Node000077_Node000081"><a xlink:title=" ">
<path fill="none" stroke="#63b8ff" d="M307.23,-656.48C337.65,-654.46 377.72,-651.79 408.76,-649.72"/>
<polygon fill="#63b8ff" stroke="#63b8ff" points="409.17,-653.2 418.91,-649.04 408.7,-646.21 409.17,-653.2"/>
</a>
</g>
</g>
<!-- Node82 -->
<g id="Node000082" class="node">
<title>Node82</title>
<g id="a_Node000082"><a xlink:href="spawn__players_8c.html#afb1c307e34d73d9c004936d2752c44ce" target="_top" xlink:title=" ">
<polygon fill="#fff0f0" stroke="red" points="504,-730 412,-730 412,-711 504,-711 504,-730"/>
<text text-anchor="middle" x="458" y="-718" font-family="Helvetica,sans-Serif" font-size="10.00">func_8003C0F0</text>
</a>
</g>
</g>
<!-- Node77&#45;&gt;Node82 -->
<g id="edge25_Node000077_Node000082" class="edge">
<title>Node77&#45;&gt;Node82</title>
<g id="a_edge25_Node000077_Node000082"><a xlink:title=" ">
<path fill="none" stroke="#63b8ff" d="M286.11,-669.01C310.16,-678.29 348.28,-692.44 382,-702.5 388.97,-704.58 396.36,-706.59 403.67,-708.46"/>
<polygon fill="#63b8ff" stroke="#63b8ff" points="403.01,-711.9 413.56,-710.92 404.7,-705.11 403.01,-711.9"/>
</a>
</g>
</g>
<!-- Node107 -->
<g id="Node000107" class="node">
<title>Node107</title>
<g id="a_Node000107"><a xlink:href="Game_8cpp.html#a7dfa77f8baa97e05f88abc7be3dd45a1" target="_top" xlink:title=" ">
<polygon fill="white" stroke="#666666" points="680,-600 587,-600 587,-581 680,-581 680,-600"/>
<text text-anchor="middle" x="633.5" y="-588" font-family="Helvetica,sans-Serif" font-size="10.00">IsToadsTurnpike</text>
</a>
</g>
</g>
<!-- Node77&#45;&gt;Node107 -->
<g id="edge32_Node000077_Node000107" class="edge">
<title>Node77&#45;&gt;Node107</title>
<g id="a_edge32_Node000077_Node000107"><a xlink:title=" ">
<path fill="none" stroke="#63b8ff" d="M274.02,-649.85C294.64,-633.98 338.72,-603 382,-591.5 447.08,-574.2 525.07,-577.46 576.55,-582.74"/>
<polygon fill="#63b8ff" stroke="#63b8ff" points="576.48,-586.25 586.8,-583.86 577.23,-579.3 576.48,-586.25"/>
</a>
</g>
</g>
<!-- Node120 -->
<g id="Node000120" class="node">
<title>Node120</title>
<g id="a_Node000120"><a xlink:href="spawn__players_8c.html#a400676f9bd53662b5636a7f191f947aa" target="_top" xlink:title=" ">
<polygon fill="#fff0f0" stroke="red" points="504.5,-767 411.5,-767 411.5,-748 504.5,-748 504.5,-767"/>
<text text-anchor="middle" x="458" y="-755" font-family="Helvetica,sans-Serif" font-size="10.00">func_8003CD78</text>
</a>
</g>
</g>
<!-- Node77&#45;&gt;Node120 -->
<g id="edge28_Node000077_Node000120" class="edge">
<title>Node77&#45;&gt;Node120</title>
<g id="a_edge28_Node000077_Node000120"><a xlink:title=" ">
<path fill="none" stroke="#63b8ff" d="M277.34,-669.01C294.3,-679.61 322.37,-697.39 346,-713.5 362.31,-724.62 364.06,-731.26 382,-739.5 388.13,-742.32 394.76,-744.72 401.44,-746.77"/>
<polygon fill="#63b8ff" stroke="#63b8ff" points="400.65,-750.18 411.23,-749.52 402.55,-743.44 400.65,-750.18"/>
</a>
</g>
</g>
<!-- Node122 -->
<g id="Node000122" class="node">
<title>Node122</title>
<g id="a_Node000122"><a xlink:href="spawn__players_8c.html#a1d1dc4164aa554583609ad0d9bbbf276" target="_top" xlink:title=" ">
<polygon fill="#fff0f0" stroke="red" points="504.5,-619 411.5,-619 411.5,-600 504.5,-600 504.5,-619"/>
<text text-anchor="middle" x="458" y="-607" font-family="Helvetica,sans-Serif" font-size="10.00">func_8003CD98</text>
</a>
</g>
</g>
<!-- Node77&#45;&gt;Node122 -->
<g id="edge29_Node000077_Node000122" class="edge">
<title>Node77&#45;&gt;Node122</title>
<g id="a_edge29_Node000077_Node000122"><a xlink:title=" ">
<path fill="none" stroke="#63b8ff" d="M298.75,-649.96C322.5,-643.8 354.07,-635.65 382,-628.5 390.89,-626.23 400.37,-623.81 409.5,-621.5"/>
<polygon fill="#63b8ff" stroke="#63b8ff" points="410.39,-624.88 419.22,-619.03 408.67,-618.1 410.39,-624.88"/>
</a>
</g>
</g>
<!-- Node340 -->
<g id="Node000340" class="node">
<title>Node340</title>
<g id="a_Node000340"><a xlink:href="code__80057C60_8c.html#a07b43c07e7afcf3fcccf63622bb991e1" target="_top" xlink:title=" ">
<polygon fill="white" stroke="#666666" points="504,-693 412,-693 412,-674 504,-674 504,-693"/>
<text text-anchor="middle" x="458" y="-681" font-family="Helvetica,sans-Serif" font-size="10.00">func_8005D290</text>
</a>
</g>
</g>
<!-- Node77&#45;&gt;Node340 -->
<g id="edge31_Node000077_Node000340" class="edge">
<title>Node77&#45;&gt;Node340</title>
<g id="a_edge31_Node000077_Node000340"><a xlink:title=" ">
<path fill="none" stroke="#63b8ff" d="M307.23,-665.07C335.31,-668.52 371.6,-672.99 401.42,-676.66"/>
<polygon fill="#63b8ff" stroke="#63b8ff" points="401.33,-680.17 411.68,-677.92 402.18,-673.23 401.33,-680.17"/>
</a>
</g>
</g>
<!-- Node78&#45;&gt;Node31 -->
<g id="edge23_Node000078_Node000031" class="edge">
<title>Node78&#45;&gt;Node31</title>
<g id="a_edge23_Node000078_Node000031"><a xlink:title=" ">
<path fill="none" stroke="#63b8ff" d="M495.37,-802.47C519.6,-807.77 551.86,-814.84 579,-820.78"/>
<polygon fill="#63b8ff" stroke="#63b8ff" points="578.6,-824.28 589.12,-823 580.1,-817.44 578.6,-824.28"/>
</a>
</g>
</g>
<!-- Node82&#45;&gt;Node48 -->
<g id="edge26_Node000082_Node000048" class="edge">
<title>Node82&#45;&gt;Node48</title>
<g id="a_edge26_Node000082_Node000048"><a xlink:title=" ">
<path fill="none" stroke="#63b8ff" d="M503.68,-730.03C526.26,-734.84 553.85,-740.73 577.7,-745.81"/>
<polygon fill="#63b8ff" stroke="#63b8ff" points="577.16,-749.28 587.67,-747.94 578.62,-742.43 577.16,-749.28"/>
</a>
</g>
</g>
<!-- Node82&#45;&gt;Node107 -->
<g id="edge27_Node000082_Node000107" class="edge">
<title>Node82&#45;&gt;Node107</title>
<g id="a_edge27_Node000082_Node000107"><a xlink:title=" ">
<path fill="none" stroke="#63b8ff" d="M504.37,-716.29C514.93,-713.59 525.54,-709.29 534,-702.5 562.51,-679.59 545.37,-655.54 570,-628.5 578.75,-618.89 590.49,-610.89 601.44,-604.75"/>
<polygon fill="#63b8ff" stroke="#63b8ff" points="603.15,-607.8 610.36,-600.03 599.88,-601.61 603.15,-607.8"/>
</a>
</g>
</g>
<!-- Node122&#45;&gt;Node29 -->
<g id="edge30_Node000122_Node000029" class="edge">
<title>Node122&#45;&gt;Node29</title>
<g id="a_edge30_Node000122_Node000029"><a xlink:title=" ">
<path fill="none" stroke="#63b8ff" d="M503.68,-619.03C528.48,-624.32 559.33,-630.9 584.62,-636.29"/>
<polygon fill="#63b8ff" stroke="#63b8ff" points="584.21,-639.78 594.72,-638.44 585.67,-632.94 584.21,-639.78"/>
</a>
</g>
</g>
<!-- Node341&#45;&gt;Node4 -->
<g id="edge38_Node000341_Node000004" class="edge">
<title>Node341&#45;&gt;Node4</title>
<g id="a_edge38_Node000341_Node000004"><a xlink:title=" ">
<path fill="none" stroke="#63b8ff" d="M306.78,-439.38C395.08,-441.69 592.14,-459.99 697,-572.5 741.52,-620.27 768.35,-694.15 780.05,-732.5"/>
<polygon fill="#63b8ff" stroke="#63b8ff" points="776.77,-733.72 782.96,-742.32 783.48,-731.74 776.77,-733.72"/>
</a>
</g>
</g>
<!-- Node342 -->
<g id="Node000342" class="node">
<title>Node342</title>
<g id="a_Node000342"><a xlink:href="menu__items_8c.html#abfa6c366f02a470bbfcddb66359eec13" target="_top" xlink:title=" ">
<polygon fill="white" stroke="#666666" points="517.5,-430 398.5,-430 398.5,-411 517.5,-411 517.5,-430"/>
<text text-anchor="middle" x="458" y="-418" font-family="Helvetica,sans-Serif" font-size="10.00">clear_menu_textures</text>
</a>
</g>
</g>
<!-- Node341&#45;&gt;Node342 -->
<g id="edge34_Node000341_Node000342" class="edge">
<title>Node341&#45;&gt;Node342</title>
<g id="a_edge34_Node000341_Node000342"><a xlink:title=" ">
<path fill="none" stroke="#63b8ff" d="M306.74,-435.14C330.87,-432.79 361.16,-429.84 388.22,-427.2"/>
<polygon fill="#63b8ff" stroke="#63b8ff" points="388.8,-430.66 398.41,-426.21 388.12,-423.69 388.8,-430.66"/>
</a>
</g>
</g>
<!-- Node343 -->
<g id="Node000343" class="node">
<title>Node343</title>
<g id="a_Node000343"><a xlink:href="menu__items_8c.html#af9ede5415daa7e54bf2e7b018b382884" target="_top" xlink:title=" ">
<polygon fill="white" stroke="#666666" points="497.5,-393 418.5,-393 418.5,-374 497.5,-374 497.5,-393"/>
<text text-anchor="middle" x="458" y="-381" font-family="Helvetica,sans-Serif" font-size="10.00">clear_menus</text>
</a>
</g>
</g>
<!-- Node341&#45;&gt;Node343 -->
<g id="edge35_Node000341_Node000343" class="edge">
<title>Node341&#45;&gt;Node343</title>
<g id="a_edge35_Node000341_Node000343"><a xlink:title=" ">
<path fill="none" stroke="#63b8ff" d="M291.46,-429.96C315.68,-422.22 350.93,-411.22 382,-402.5 390.55,-400.1 399.69,-397.67 408.54,-395.39"/>
<polygon fill="#63b8ff" stroke="#63b8ff" points="409.53,-398.75 418.36,-392.89 407.81,-391.97 409.53,-398.75"/>
</a>
</g>
</g>
<!-- Node344 -->
<g id="Node000344" class="node">
<title>Node344</title>
<g id="a_Node000344"><a xlink:href="menu__items_8c.html#a43d067e97313b62650b013e0384a7c8d" target="_top" xlink:title=" ">
<polygon fill="white" stroke="#666666" points="503.5,-543 412.5,-543 412.5,-524 503.5,-524 503.5,-543"/>
<text text-anchor="middle" x="458" y="-531" font-family="Helvetica,sans-Serif" font-size="10.00">func_80092258</text>
</a>
</g>
</g>
<!-- Node341&#45;&gt;Node344 -->
<g id="edge36_Node000341_Node000344" class="edge">
<title>Node341&#45;&gt;Node344</title>
<g id="a_edge36_Node000341_Node000344"><a xlink:title=" ">
<path fill="none" stroke="#63b8ff" d="M274.2,-449.17C295.07,-465.27 339.53,-497.54 382,-515.5 388.38,-518.2 395.25,-520.54 402.14,-522.56"/>
<polygon fill="#63b8ff" stroke="#63b8ff" points="401.63,-526.05 412.2,-525.3 403.47,-519.3 401.63,-526.05"/>
</a>
</g>
</g>
<!-- Node345 -->
<g id="Node000345" class="node">
<title>Node345</title>
<g id="a_Node000345"><a xlink:href="menu__items_8c.html#ae938fb8c5b56456f2f0caf7dd552a51e" target="_top" xlink:title=" ">
<polygon fill="white" stroke="#666666" points="504,-506 412,-506 412,-487 504,-487 504,-506"/>
<text text-anchor="middle" x="458" y="-494" font-family="Helvetica,sans-Serif" font-size="10.00">func_8009A344</text>
</a>
</g>
</g>
<!-- Node341&#45;&gt;Node345 -->
<g id="edge37_Node000341_Node000345" class="edge">
<title>Node341&#45;&gt;Node345</title>
<g id="a_edge37_Node000341_Node000345"><a xlink:title=" ">
<path fill="none" stroke="#63b8ff" d="M294.64,-449.04C327.54,-458.66 378.48,-473.55 414.51,-484.08"/>
<polygon fill="#63b8ff" stroke="#63b8ff" points="413.67,-487.48 424.25,-486.93 415.64,-480.76 413.67,-487.48"/>
</a>
</g>
</g>
<!-- Node347 -->
<g id="Node000347" class="node">
<title>Node347</title>
<g id="a_Node000347"><a xlink:href="code__80281780_8c.html#a934c8238d1e7f3ddbbef4c6738194097" target="_top" xlink:title=" ">
<polygon fill="white" stroke="#666666" points="503.5,-356 412.5,-356 412.5,-337 503.5,-337 503.5,-356"/>
<text text-anchor="middle" x="458" y="-344" font-family="Helvetica,sans-Serif" font-size="10.00">func_80281880</text>
</a>
</g>
</g>
<!-- Node346&#45;&gt;Node347 -->
<g id="edge40_Node000346_Node000347" class="edge">
<title>Node346&#45;&gt;Node347</title>
<g id="a_edge40_Node000346_Node000347"><a xlink:title=" ">
<path fill="none" stroke="#63b8ff" d="M307.4,-383.08C319.93,-380.4 333.51,-377.41 346,-374.5 349.31,-373.73 380.81,-365.78 409.41,-358.55"/>
<polygon fill="#63b8ff" stroke="#63b8ff" points="410.51,-361.88 419.35,-356.03 408.8,-355.09 410.51,-361.88"/>
</a>
</g>
</g>
<!-- Node349 -->
<g id="Node000349" class="node">
<title>Node349</title>
<g id="a_Node000349"><a xlink:href="collision_8c.html#aa1116ededb9ebc0ee976259f02fe2a4e" target="_top" xlink:title=" ">
<polygon fill="#fff0f0" stroke="red" points="523,-319 393,-319 393,-300 523,-300 523,-319"/>
<text text-anchor="middle" x="458" y="-307" font-family="Helvetica,sans-Serif" font-size="10.00">generate_collision_grid</text>
</a>
</g>
</g>
<!-- Node348&#45;&gt;Node349 -->
<g id="edge42_Node000348_Node000349" class="edge">
<title>Node348&#45;&gt;Node349</title>
<g id="a_edge42_Node000348_Node000349"><a xlink:title=" ">
<path fill="none" stroke="#63b8ff" d="M307.4,-346.08C319.93,-343.4 333.51,-340.41 346,-337.5 349.31,-336.73 380.81,-328.78 409.41,-321.55"/>
<polygon fill="#63b8ff" stroke="#63b8ff" points="410.51,-324.88 419.35,-319.03 408.8,-318.09 410.51,-324.88"/>
</a>
</g>
</g>
<!-- Node354 -->
<g id="Node000354" class="node">
<title>Node354</title>
<g id="a_Node000354"><a xlink:href="collision_8c.html#a3081198f925be148fc9f05897a3bddd3" target="_top" xlink:title=" ">
<polygon fill="#fff0f0" stroke="red" points="527,-264 389,-264 389,-245 527,-245 527,-264"/>
<text text-anchor="middle" x="458" y="-252" font-family="Helvetica,sans-Serif" font-size="10.00">generate_collision_mesh</text>
</a>
</g>
</g>
<!-- Node353&#45;&gt;Node354 -->
<g id="edge45_Node000353_Node000354" class="edge">
<title>Node353&#45;&gt;Node354</title>
<g id="a_edge45_Node000353_Node000354"><a xlink:title=" ">
<path fill="none" stroke="#63b8ff" d="M346.11,-266.44C356.89,-265.28 367.89,-264.1 378.58,-262.95"/>
<polygon fill="#63b8ff" stroke="#63b8ff" points="379.14,-266.41 388.71,-261.85 378.39,-259.45 379.14,-266.41"/>
</a>
</g>
</g>
<!-- Node354&#45;&gt;Node354 -->
<g id="edge46_Node000354_Node000354" class="edge">
<title>Node354&#45;&gt;Node354</title>
<g id="a_edge46_Node000354_Node000354"><a xlink:title=" ">
<path fill="none" stroke="#63b8ff" d="M431.18,-264.08C418.13,-272.73 427.07,-282 458,-282 478.78,-282 489.63,-277.82 490.56,-272.45"/>
<polygon fill="#63b8ff" stroke="#63b8ff" points="493.36,-270.35 484.82,-264.08 487.59,-274.31 493.36,-270.35"/>
</a>
</g>
</g>
<!-- Node362 -->
<g id="Node000362" class="node">
<title>Node362</title>
<g id="a_Node000362"><a xlink:href="ceremony__and__credits_8c.html#a0cfc0497fcbdbeed3cd13dfcf3607547" target="_top" xlink:title=" ">
<polygon fill="#fff0f0" stroke="red" points="522,-227 394,-227 394,-208 522,-208 522,-227"/>
<text text-anchor="middle" x="458" y="-215" font-family="Helvetica,sans-Serif" font-size="10.00">init_cinematic_camera</text>
</a>
</g>
</g>
<!-- Node361&#45;&gt;Node362 -->
<g id="edge48_Node000361_Node000362" class="edge">
<title>Node361&#45;&gt;Node362</title>
<g id="a_edge48_Node000361_Node000362"><a xlink:title=" ">
<path fill="none" stroke="#63b8ff" d="M319.19,-224.57C339.37,-223.53 362.34,-222.35 383.67,-221.26"/>
<polygon fill="#63b8ff" stroke="#63b8ff" points="383.86,-224.76 393.66,-220.75 383.5,-217.76 383.86,-224.76"/>
</a>
</g>
</g>
<!-- Node368 -->
<g id="Node000368" class="node">
<title>Node368</title>
<g id="a_Node000368"><a xlink:href="code__8006E9C0_8h.html#a0a15839e2884f0317e950c05b03e4f0b" target="_top" xlink:title=" ">
<polygon fill="white" stroke="#666666" points="503,-93 413,-93 413,-74 503,-74 503,-93"/>
<text text-anchor="middle" x="458" y="-81" font-family="Helvetica,sans-Serif" font-size="10.00">func_8006FA94</text>
</a>
</g>
</g>
<!-- Node367&#45;&gt;Node368 -->
<g id="edge50_Node000367_Node000368" class="edge">
<title>Node367&#45;&gt;Node368</title>
<g id="a_edge50_Node000367_Node000368"><a xlink:title=" ">
<path fill="none" stroke="#63b8ff" d="M289.3,-184.27C306.98,-182.86 329.67,-178.53 346,-166.5 372.28,-147.15 356.08,-122.34 382,-102.5 388.22,-97.74 395.51,-94.16 403.05,-91.47"/>
<polygon fill="#63b8ff" stroke="#63b8ff" points="404.13,-94.8 412.67,-88.52 402.08,-88.1 404.13,-94.8"/>
</a>
</g>
</g>
<!-- Node369 -->
<g id="Node000369" class="node">
<title>Node369</title>
<g id="a_Node000369"><a xlink:href="code__8006E9C0_8c.html#a7ce8b772e14372f2078703a39e676d2a" target="_top" xlink:title=" ">
<polygon fill="#fff0f0" stroke="red" points="503.5,-56 412.5,-56 412.5,-37 503.5,-37 503.5,-56"/>
<text text-anchor="middle" x="458" y="-44" font-family="Helvetica,sans-Serif" font-size="10.00">func_80070148</text>
</a>
</g>
</g>
<!-- Node367&#45;&gt;Node369 -->
<g id="edge51_Node000367_Node000369" class="edge">
<title>Node367&#45;&gt;Node369</title>
<g id="a_edge51_Node000367_Node000369"><a xlink:title=" ">
<path fill="none" stroke="#63b8ff" d="M289.24,-185.22C307.34,-184.26 330.54,-180.09 346,-166.5 382.1,-134.75 346.29,-96.69 382,-64.5 387.87,-59.21 395.03,-55.4 402.56,-52.67"/>
<polygon fill="#63b8ff" stroke="#63b8ff" points="403.67,-55.99 412.24,-49.76 401.66,-49.29 403.67,-55.99"/>
</a>
</g>
</g>
<!-- Node371 -->
<g id="Node000371" class="node">
<title>Node371</title>
<g id="a_Node000371"><a xlink:href="code__8006E9C0_8c.html#a9b35328c0ffddc0723de4730c5e41431" target="_top" xlink:title=" ">
<polygon fill="#fff0f0" stroke="red" points="515.5,-19 400.5,-19 400.5,0 515.5,0 515.5,-19"/>
<text text-anchor="middle" x="458" y="-7" font-family="Helvetica,sans-Serif" font-size="10.00">init_hud_one_player</text>
</a>
</g>
</g>
<!-- Node367&#45;&gt;Node371 -->
<g id="edge52_Node000367_Node000371" class="edge">
<title>Node367&#45;&gt;Node371</title>
<g id="a_edge52_Node000367_Node000371"><a xlink:title=" ">
<path fill="none" stroke="#63b8ff" d="M289.22,-185.65C307.56,-184.92 331.03,-180.85 346,-166.5 392.07,-122.34 336.47,-72.22 382,-27.5 384.74,-24.81 387.81,-22.49 391.1,-20.51"/>
<polygon fill="#63b8ff" stroke="#63b8ff" points="392.84,-23.55 400.24,-15.97 389.73,-17.28 392.84,-23.55"/>
</a>
</g>
</g>
<!-- Node383 -->
<g id="Node000383" class="node">
<title>Node383</title>
<g id="a_Node000383"><a xlink:href="code__8006E9C0_8c.html#a36e7c29e21274b76d24f7c8864af5c3b" target="_top" xlink:title=" ">
<polygon fill="#fff0f0" stroke="red" points="513.5,-189.5 402.5,-189.5 402.5,-159.5 513.5,-159.5 513.5,-189.5"/>
<text text-anchor="start" x="410.5" y="-177.5" font-family="Helvetica,sans-Serif" font-size="10.00">init_hud_three_four</text>
<text text-anchor="middle" x="458" y="-166.5" font-family="Helvetica,sans-Serif" font-size="10.00">_player</text>
</a>
</g>
</g>
<!-- Node367&#45;&gt;Node383 -->
<g id="edge53_Node000367_Node000383" class="edge">
<title>Node367&#45;&gt;Node383</title>
<g id="a_edge53_Node000367_Node000383"><a xlink:title=" ">
<path fill="none" stroke="#63b8ff" d="M289.11,-183.11C315.69,-181.75 357.2,-179.62 392.29,-177.82"/>
<polygon fill="#63b8ff" stroke="#63b8ff" points="392.67,-181.3 402.48,-177.3 392.31,-174.31 392.67,-181.3"/>
</a>
</g>
</g>
<!-- Node384 -->
<g id="Node000384" class="node">
<title>Node384</title>
<g id="a_Node000384"><a xlink:href="code__8006E9C0_8c.html#ae0bbfee0194d6a21ab9c2133af28ae16" target="_top" xlink:title=" ">
<polygon fill="#fff0f0" stroke="red" points="515.5,-141.5 400.5,-141.5 400.5,-111.5 515.5,-111.5 515.5,-141.5"/>
<text text-anchor="start" x="408.5" y="-129.5" font-family="Helvetica,sans-Serif" font-size="10.00">init_hud_two_player</text>
<text text-anchor="middle" x="458" y="-118.5" font-family="Helvetica,sans-Serif" font-size="10.00">_horizontal</text>
</a>
</g>
</g>
<!-- Node367&#45;&gt;Node384 -->
<g id="edge54_Node000367_Node000384" class="edge">
<title>Node367&#45;&gt;Node384</title>
<g id="a_edge54_Node000367_Node000384"><a xlink:title=" ">
<path fill="none" stroke="#63b8ff" d="M289.24,-180.14C305.86,-177.12 327.42,-172.55 346,-166.5 362.65,-161.08 365.64,-156.73 382,-150.5 387.03,-148.58 392.29,-146.69 397.58,-144.85"/>
<polygon fill="#63b8ff" stroke="#63b8ff" points="398.77,-148.15 407.11,-141.63 396.52,-141.52 398.77,-148.15"/>
</a>
</g>
</g>
</g>
</svg>
