<?xml version="1.0" encoding="UTF-8" standalone="no"?>
<!DOCTYPE svg PUBLIC "-//W3C//DTD SVG 1.1//EN"
 "http://www.w3.org/Graphics/SVG/1.1/DTD/svg11.dtd">
<!-- Generated by graphviz version 2.43.0 (0)
 -->
<!-- Title: render_player_snow_effect Pages: 1 -->
<!--zoomable 341 -->

<svg id="main" version="1.1" xmlns="http://www.w3.org/2000/svg" xmlns:xlink="http://www.w3.org/1999/xlink" xml:space="preserve" onload="init(evt)">

<style type="text/css"><![CDATA[
.node, .edge {opacity: 0.7;}
.node.selected, .edge.selected {opacity: 1;}
.edge:hover path { stroke: red; }
.edge:hover polygon { stroke: red; fill: red; }
]]></style>

<defs>
  <circle id="rim" cx="0" cy="0" r="7"/>
  <circle id="rim2" cx="0" cy="0" r="3.5"/>
  <g id="zoomPlus">
    <use xlink:href="#rim" fill="#404040"><set attributeName="fill" to="#808080" begin="zoomplus.mouseover" end="zoomplus.mouseout"/></use>
    <path d="M-4,0h8M0,-4v8" fill="none" stroke="white" stroke-width="1.5" pointer-events="none"/>
  </g>
  <g id="zoomMin">
    <use xlink:href="#rim" fill="#404040"><set attributeName="fill" to="#808080" begin="zoomminus.mouseover" end="zoomminus.mouseout"/></use>
    <path d="M-4,0h8" fill="none" stroke="white" stroke-width="1.5" pointer-events="none"/>
  </g>
  <g id="arrowUp" transform="translate(30 24)">
    <use xlink:href="#rim"/>
    <path pointer-events="none" fill="none" stroke="white" stroke-width="1.5" d="M0,-3.0v7 M-2.5,-0.5L0,-3.0L2.5,-0.5"/>
  </g>
  <g id="arrowRight" transform="rotate(90) translate(36 -43)">
    <use xlink:href="#rim"/>
    <path pointer-events="none" fill="none" stroke="white" stroke-width="1.5" d="M0,-3.0v7 M-2.5,-0.5L0,-3.0L2.5,-0.5"/>
  </g>
  <g id="arrowDown" transform="rotate(180) translate(-30 -48)">
    <use xlink:href="#rim"/>
    <path pointer-events="none" fill="none" stroke="white" stroke-width="1.5" d="M0,-3.0v7 M-2.5,-0.5L0,-3.0L2.5,-0.5"/>
  </g>
  <g id="arrowLeft" transform="rotate(270) translate(-36 17)">
    <use xlink:href="#rim"/>
    <path pointer-events="none" fill="none" stroke="white" stroke-width="1.5" d="M0,-3.0v7 M-2.5,-0.5L0,-3.0L2.5,-0.5"/>
  </g>
  <g id="resetDef">
    <use xlink:href="#rim2" fill="#404040"><set attributeName="fill" to="#808080" begin="reset.mouseover" end="reset.mouseout"/></use>
  </g>
</defs>
<script type="application/ecmascript">
var viewWidth = 1759;
var viewHeight = 341;
var sectionId = 'dynsection-311';
</script>
<script type="application/ecmascript" xlink:href="svg.min.js"/>
<svg id="graph" class="graph">
<g id="viewport">
<title>render_player_snow_effect</title>
<!-- Node1 -->
<g id="Node000001" class="node">
<title>Node1</title>
<g id="a_Node000001"><a xlink:title=" ">
<polygon fill="#999999" stroke="#666666" points="115,-126 0,-126 0,-96 115,-96 115,-126"/>
<text text-anchor="start" x="8" y="-114" font-family="Helvetica,sans-Serif" font-size="10.00">render_player_snow</text>
<text text-anchor="middle" x="57.5" y="-103" font-family="Helvetica,sans-Serif" font-size="10.00">_effect</text>
</a>
</g>
</g>
<!-- Node2 -->
<g id="Node000002" class="node">
<title>Node2</title>
<g id="a_Node000002"><a xlink:href="GBIMiddleware_8cpp.html#a4ecc44e3c6f1ca5a6b4a20c41d3bd2d2" target="_top" xlink:title=" ">
<polygon fill="white" stroke="#666666" points="1041,-178.5 952,-178.5 952,-159.5 1041,-159.5 1041,-178.5"/>
<text text-anchor="middle" x="996.5" y="-166.5" font-family="Helvetica,sans-Serif" font-size="10.00">gSPDisplayList</text>
</a>
</g>
</g>
<!-- Node1&#45;&gt;Node2 -->
<g id="edge1_Node000001_Node000002" class="edge">
<title>Node1&#45;&gt;Node2</title>
<g id="a_edge1_Node000001_Node000002"><a xlink:title=" ">
<path fill="none" stroke="#63b8ff" d="M71.73,-126.11C88.22,-143.7 118.28,-171.77 151,-183 199.34,-199.6 214.89,-183.04 266,-183 537.56,-182.78 605.86,-197.05 877,-182 898.3,-180.82 921.66,-178.48 941.97,-176.11"/>
<polygon fill="#63b8ff" stroke="#63b8ff" points="942.46,-179.57 951.98,-174.91 941.63,-172.62 942.46,-179.57"/>
</a>
</g>
</g>
<!-- Node5 -->
<g id="Node000005" class="node">
<title>Node5</title>
<g id="a_Node000005"><a xlink:href="code__80057C60_8c.html#a483d596a720f50febbaad606b3ad4b22" target="_top" xlink:title=" ">
<polygon fill="white" stroke="#666666" points="266,-126 151,-126 151,-96 266,-96 266,-126"/>
<text text-anchor="start" x="159" y="-114" font-family="Helvetica,sans-Serif" font-size="10.00">render_player_snow</text>
<text text-anchor="middle" x="208.5" y="-103" font-family="Helvetica,sans-Serif" font-size="10.00">_effect_four</text>
</a>
</g>
</g>
<!-- Node1&#45;&gt;Node5 -->
<g id="edge4_Node000001_Node000005" class="edge">
<title>Node1&#45;&gt;Node5</title>
<g id="a_edge4_Node000001_Node000005"><a xlink:title=" ">
<path fill="none" stroke="#63b8ff" d="M115.26,-111C123.56,-111 132.17,-111 140.65,-111"/>
<polygon fill="#63b8ff" stroke="#63b8ff" points="140.9,-114.5 150.9,-111 140.9,-107.5 140.9,-114.5"/>
</a>
</g>
</g>
<!-- Node34 -->
<g id="Node000034" class="node">
<title>Node34</title>
<g id="a_Node000034"><a xlink:href="code__80057C60_8c.html#af6f7f1bcbd9056515d8ae97f7e5d8a5e" target="_top" xlink:title=" ">
<polygon fill="white" stroke="#666666" points="266,-78 151,-78 151,-48 266,-48 266,-78"/>
<text text-anchor="start" x="159" y="-66" font-family="Helvetica,sans-Serif" font-size="10.00">render_player_snow</text>
<text text-anchor="middle" x="208.5" y="-55" font-family="Helvetica,sans-Serif" font-size="10.00">_effect_one</text>
</a>
</g>
</g>
<!-- Node1&#45;&gt;Node34 -->
<g id="edge44_Node000001_Node000034" class="edge">
<title>Node1&#45;&gt;Node34</title>
<g id="a_edge44_Node000001_Node000034"><a xlink:title=" ">
<path fill="none" stroke="#63b8ff" d="M105.24,-95.94C119.8,-91.25 136.01,-86.03 151.16,-81.15"/>
<polygon fill="#63b8ff" stroke="#63b8ff" points="152.49,-84.4 160.93,-78 150.34,-77.74 152.49,-84.4"/>
</a>
</g>
</g>
<!-- Node35 -->
<g id="Node000035" class="node">
<title>Node35</title>
<g id="a_Node000035"><a xlink:href="code__80057C60_8c.html#aabfcbd8fe20219d51252e8d347f3663c" target="_top" xlink:title=" ">
<polygon fill="white" stroke="#666666" points="266,-30 151,-30 151,0 266,0 266,-30"/>
<text text-anchor="start" x="159" y="-18" font-family="Helvetica,sans-Serif" font-size="10.00">render_player_snow</text>
<text text-anchor="middle" x="208.5" y="-7" font-family="Helvetica,sans-Serif" font-size="10.00">_effect_three</text>
</a>
</g>
</g>
<!-- Node1&#45;&gt;Node35 -->
<g id="edge48_Node000001_Node000035" class="edge">
<title>Node1&#45;&gt;Node35</title>
<g id="a_edge48_Node000001_Node000035"><a xlink:title=" ">
<path fill="none" stroke="#63b8ff" d="M75.26,-95.77C93.09,-80.1 122.58,-55.71 151,-39 153.63,-37.46 156.37,-35.96 159.17,-34.51"/>
<polygon fill="#63b8ff" stroke="#63b8ff" points="160.79,-37.62 168.25,-30.1 157.73,-31.33 160.79,-37.62"/>
</a>
</g>
</g>
<!-- Node36 -->
<g id="Node000036" class="node">
<title>Node36</title>
<g id="a_Node000036"><a xlink:href="code__80057C60_8c.html#aa9c7101cde8bf7d58c995ac9d450d5cd" target="_top" xlink:title=" ">
<polygon fill="white" stroke="#666666" points="266,-174 151,-174 151,-144 266,-144 266,-174"/>
<text text-anchor="start" x="159" y="-162" font-family="Helvetica,sans-Serif" font-size="10.00">render_player_snow</text>
<text text-anchor="middle" x="208.5" y="-151" font-family="Helvetica,sans-Serif" font-size="10.00">_effect_two</text>
</a>
</g>
</g>
<!-- Node1&#45;&gt;Node36 -->
<g id="edge52_Node000001_Node000036" class="edge">
<title>Node1&#45;&gt;Node36</title>
<g id="a_edge52_Node000001_Node000036"><a xlink:title=" ">
<path fill="none" stroke="#63b8ff" d="M105.24,-126.06C119.8,-130.75 136.01,-135.97 151.16,-140.85"/>
<polygon fill="#63b8ff" stroke="#63b8ff" points="150.34,-144.26 160.93,-144 152.49,-137.6 150.34,-144.26"/>
</a>
</g>
</g>
<!-- Node3 -->
<g id="Node000003" class="node">
<title>Node3</title>
<g id="a_Node000003"><a xlink:href="Engine_8cpp.html#a223c8bc63f228dc11177515e38eff2db" target="_top" xlink:title=" ">
<polygon fill="white" stroke="#666666" points="1278.5,-104.5 1129.5,-104.5 1129.5,-85.5 1278.5,-85.5 1278.5,-104.5"/>
<text text-anchor="middle" x="1204" y="-92.5" font-family="Helvetica,sans-Serif" font-size="10.00">GameEngine_OTRSigCheck</text>
</a>
</g>
</g>
<!-- Node2&#45;&gt;Node3 -->
<g id="edge2_Node000002_Node000003" class="edge">
<title>Node2&#45;&gt;Node3</title>
<g id="a_edge2_Node000002_Node000003"><a xlink:title=" ">
<path fill="none" stroke="#63b8ff" d="M1041.23,-164.46C1054.29,-161.82 1068.25,-157.63 1080,-151 1100.26,-139.57 1095.68,-124.32 1116,-113 1119.22,-111.21 1122.6,-109.59 1126.08,-108.13"/>
<polygon fill="#63b8ff" stroke="#63b8ff" points="1127.32,-111.41 1135.48,-104.64 1124.88,-104.84 1127.32,-111.41"/>
</a>
</g>
</g>
<!-- Node4 -->
<g id="Node000004" class="node">
<title>Node4</title>
<g id="a_Node000004"><a xlink:href="string_8c.html#a008e171a518fe0e0352f31b245e03875" target="_top" xlink:title=" ">
<polygon fill="white" stroke="#666666" points="1383.5,-65.5 1339.5,-65.5 1339.5,-46.5 1383.5,-46.5 1383.5,-65.5"/>
<text text-anchor="middle" x="1361.5" y="-53.5" font-family="Helvetica,sans-Serif" font-size="10.00">strlen</text>
</a>
</g>
</g>
<!-- Node3&#45;&gt;Node4 -->
<g id="edge3_Node000003_Node000004" class="edge">
<title>Node3&#45;&gt;Node4</title>
<g id="a_edge3_Node000003_Node000004"><a xlink:title=" ">
<path fill="none" stroke="#63b8ff" d="M1243.04,-85.46C1269.47,-78.83 1304.28,-70.1 1329.13,-63.87"/>
<polygon fill="#63b8ff" stroke="#63b8ff" points="1330.26,-67.19 1339.11,-61.36 1328.56,-60.4 1330.26,-67.19"/>
</a>
</g>
</g>
<!-- Node6 -->
<g id="Node000006" class="node">
<title>Node6</title>
<g id="a_Node000006"><a xlink:href="Matrix_8cpp.html#acacd5a06b0529a80220125925294944f" target="_top" xlink:title=" ">
<polygon fill="white" stroke="#666666" points="415,-66.5 316,-66.5 316,-47.5 415,-47.5 415,-66.5"/>
<text text-anchor="middle" x="365.5" y="-54.5" font-family="Helvetica,sans-Serif" font-size="10.00">GetLookAtMatrix</text>
</a>
</g>
</g>
<!-- Node5&#45;&gt;Node6 -->
<g id="edge5_Node000005_Node000006" class="edge">
<title>Node5&#45;&gt;Node6</title>
<g id="a_edge5_Node000005_Node000006"><a xlink:title=" ">
<path fill="none" stroke="#63b8ff" d="M246.13,-95.86C263.01,-89.11 283.39,-81.29 302,-75 307.62,-73.1 313.56,-71.22 319.47,-69.44"/>
<polygon fill="#63b8ff" stroke="#63b8ff" points="320.69,-72.73 329.29,-66.54 318.71,-66.01 320.69,-72.73"/>
</a>
</g>
</g>
<!-- Node7 -->
<g id="Node000007" class="node">
<title>Node7</title>
<g id="a_Node000007"><a xlink:href="Matrix_8cpp.html#a01fc250c2f6e1cd103c61068f9168032" target="_top" xlink:title=" ">
<polygon fill="white" stroke="#666666" points="411.5,-140.5 319.5,-140.5 319.5,-121.5 411.5,-121.5 411.5,-140.5"/>
<text text-anchor="middle" x="365.5" y="-128.5" font-family="Helvetica,sans-Serif" font-size="10.00">GetPerspMatrix</text>
</a>
</g>
</g>
<!-- Node5&#45;&gt;Node7 -->
<g id="edge6_Node000005_Node000007" class="edge">
<title>Node5&#45;&gt;Node7</title>
<g id="a_edge6_Node000005_Node000007"><a xlink:title=" ">
<path fill="none" stroke="#63b8ff" d="M266.34,-118.33C280.38,-120.15 295.4,-122.08 309.36,-123.89"/>
<polygon fill="#63b8ff" stroke="#63b8ff" points="308.95,-127.36 319.31,-125.17 309.84,-120.42 308.95,-127.36"/>
</a>
</g>
</g>
<!-- Node8 -->
<g id="Node000008" class="node">
<title>Node8</title>
<g id="a_Node000008"><a xlink:href="code__80057C60_8c.html#a98bbaab0c4d6f6678d4537423acc1d6f" target="_top" xlink:title=" ">
<polygon fill="white" stroke="#666666" points="429,-103.5 302,-103.5 302,-84.5 429,-84.5 429,-103.5"/>
<text text-anchor="middle" x="365.5" y="-91.5" font-family="Helvetica,sans-Serif" font-size="10.00">render_snowing_effect</text>
</a>
</g>
</g>
<!-- Node5&#45;&gt;Node8 -->
<g id="edge7_Node000005_Node000008" class="edge">
<title>Node5&#45;&gt;Node8</title>
<g id="a_edge7_Node000005_Node000008"><a xlink:title=" ">
<path fill="none" stroke="#63b8ff" d="M266.34,-104.77C274.66,-103.85 283.32,-102.9 291.91,-101.96"/>
<polygon fill="#63b8ff" stroke="#63b8ff" points="292.36,-105.43 301.92,-100.86 291.6,-98.47 292.36,-105.43"/>
</a>
</g>
</g>
<!-- Node9 -->
<g id="Node000009" class="node">
<title>Node9</title>
<g id="a_Node000009"><a xlink:href="Game_8cpp.html#a3416a195a0c7be6ec3783bbf4842dc3e" target="_top" xlink:title=" ">
<polygon fill="white" stroke="#666666" points="558.5,-98.5 476.5,-98.5 476.5,-79.5 558.5,-79.5 558.5,-98.5"/>
<text text-anchor="middle" x="517.5" y="-86.5" font-family="Helvetica,sans-Serif" font-size="10.00">CM_GetProps</text>
</a>
</g>
</g>
<!-- Node8&#45;&gt;Node9 -->
<g id="edge8_Node000008_Node000009" class="edge">
<title>Node8&#45;&gt;Node9</title>
<g id="a_edge8_Node000008_Node000009"><a xlink:title=" ">
<path fill="none" stroke="#63b8ff" d="M429.24,-91.91C441.54,-91.5 454.28,-91.07 466.11,-90.68"/>
<polygon fill="#63b8ff" stroke="#63b8ff" points="466.36,-94.17 476.23,-90.34 466.12,-87.18 466.36,-94.17"/>
</a>
</g>
</g>
<!-- Node10 -->
<g id="Node000010" class="node">
<title>Node10</title>
<g id="a_Node000010"><a xlink:href="Game_8cpp.html#af4bf996258124d6741c70e4fa918ef03" target="_top" xlink:title=" ">
<polygon fill="white" stroke="#666666" points="570,-61.5 465,-61.5 465,-42.5 570,-42.5 570,-61.5"/>
<text text-anchor="middle" x="517.5" y="-49.5" font-family="Helvetica,sans-Serif" font-size="10.00">IsFrappeSnowland</text>
</a>
</g>
</g>
<!-- Node8&#45;&gt;Node10 -->
<g id="edge9_Node000008_Node000010" class="edge">
<title>Node8&#45;&gt;Node10</title>
<g id="a_edge9_Node000008_Node000010"><a xlink:title=" ">
<path fill="none" stroke="#63b8ff" d="M400.54,-84.47C421.85,-78.5 449.52,-70.75 472.49,-64.32"/>
<polygon fill="#63b8ff" stroke="#63b8ff" points="473.65,-67.63 482.34,-61.57 471.76,-60.89 473.65,-67.63"/>
</a>
</g>
</g>
<!-- Node11 -->
<g id="Node000011" class="node">
<title>Node11</title>
<g id="a_Node000011"><a xlink:href="render__objects_8c.html#ac8ff710887f5fdcd115e40bbea498642" target="_top" xlink:title=" ">
<polygon fill="white" stroke="#666666" points="567,-135.5 468,-135.5 468,-116.5 567,-116.5 567,-135.5"/>
<text text-anchor="middle" x="517.5" y="-123.5" font-family="Helvetica,sans-Serif" font-size="10.00">render_ice_block</text>
</a>
</g>
</g>
<!-- Node8&#45;&gt;Node11 -->
<g id="edge10_Node000008_Node000011" class="edge">
<title>Node8&#45;&gt;Node11</title>
<g id="a_edge10_Node000008_Node000011"><a xlink:title=" ">
<path fill="none" stroke="#63b8ff" d="M411.1,-103.51C426.98,-106.9 445.04,-110.76 461.67,-114.3"/>
<polygon fill="#63b8ff" stroke="#63b8ff" points="461.3,-117.8 471.81,-116.47 462.76,-110.96 461.3,-117.8"/>
</a>
</g>
</g>
<!-- Node28 -->
<g id="Node000028" class="node">
<title>Node28</title>
<g id="a_Node000028"><a xlink:href="render__objects_8c.html#a46802d986de3c906d6b25e57700e305c" target="_top" xlink:title=" ">
<polygon fill="white" stroke="#666666" points="877,-259 734,-259 734,-229 877,-229 877,-259"/>
<text text-anchor="start" x="742" y="-247" font-family="Helvetica,sans-Serif" font-size="10.00">render_object_snowflakes</text>
<text text-anchor="middle" x="805.5" y="-236" font-family="Helvetica,sans-Serif" font-size="10.00">_particles</text>
</a>
</g>
</g>
<!-- Node8&#45;&gt;Node28 -->
<g id="edge32_Node000008_Node000028" class="edge">
<title>Node8&#45;&gt;Node28</title>
<g id="a_edge32_Node000008_Node000028"><a xlink:title=" ">
<path fill="none" stroke="#63b8ff" d="M409.59,-103.56C416.3,-105.84 422.99,-108.63 429,-112 447.93,-122.62 446.09,-134.35 465,-145 547.01,-191.18 652.53,-217.55 724.01,-231.28"/>
<polygon fill="#63b8ff" stroke="#63b8ff" points="723.38,-234.72 733.86,-233.13 724.68,-227.84 723.38,-234.72"/>
</a>
</g>
</g>
<!-- Node12 -->
<g id="Node000012" class="node">
<title>Node12</title>
<g id="a_Node000012"><a xlink:href="render__objects_8c.html#acda60e8397a4e568bb0b1f20c31cdb58" target="_top" xlink:title=" ">
<polygon fill="white" stroke="#666666" points="698,-172.5 606,-172.5 606,-153.5 698,-153.5 698,-172.5"/>
<text text-anchor="middle" x="652" y="-160.5" font-family="Helvetica,sans-Serif" font-size="10.00">func_8005285C</text>
</a>
</g>
</g>
<!-- Node11&#45;&gt;Node12 -->
<g id="edge11_Node000011_Node000012" class="edge">
<title>Node11&#45;&gt;Node12</title>
<g id="a_edge11_Node000011_Node000012"><a xlink:title=" ">
<path fill="none" stroke="#63b8ff" d="M552.62,-135.53C569.03,-140.11 588.91,-145.66 606.49,-150.57"/>
<polygon fill="#63b8ff" stroke="#63b8ff" points="605.96,-154.06 616.53,-153.38 607.84,-147.31 605.96,-154.06"/>
</a>
</g>
</g>
<!-- Node24 -->
<g id="Node000024" class="node">
<title>Node24</title>
<g id="a_Node000024"><a xlink:href="render__objects_8c.html#ab1221a11e45710d6fac6b0b2b3bfd054" target="_top" xlink:title=" ">
<polygon fill="white" stroke="#666666" points="851.5,-104.5 759.5,-104.5 759.5,-85.5 851.5,-85.5 851.5,-104.5"/>
<text text-anchor="middle" x="805.5" y="-92.5" font-family="Helvetica,sans-Serif" font-size="10.00">func_800528EC</text>
</a>
</g>
</g>
<!-- Node11&#45;&gt;Node24 -->
<g id="edge25_Node000011_Node000024" class="edge">
<title>Node11&#45;&gt;Node24</title>
<g id="a_edge25_Node000011_Node000024"><a xlink:title=" ">
<path fill="none" stroke="#63b8ff" d="M556.17,-116.49C571.53,-112.97 589.52,-109.27 606,-107 654.14,-100.36 709.34,-97.39 749.3,-96.07"/>
<polygon fill="#63b8ff" stroke="#63b8ff" points="749.48,-99.56 759.37,-95.76 749.27,-92.57 749.48,-99.56"/>
</a>
</g>
</g>
<!-- Node27 -->
<g id="Node000027" class="node">
<title>Node27</title>
<g id="a_Node000027"><a xlink:href="update__objects_8c.html#a6eafc39608c664ff3d5b832ffb629b12" target="_top" xlink:title=" ">
<polygon fill="white" stroke="#666666" points="697.5,-135.5 606.5,-135.5 606.5,-116.5 697.5,-116.5 697.5,-135.5"/>
<text text-anchor="middle" x="652" y="-123.5" font-family="Helvetica,sans-Serif" font-size="10.00">func_80072320</text>
</a>
</g>
</g>
<!-- Node11&#45;&gt;Node27 -->
<g id="edge31_Node000011_Node000027" class="edge">
<title>Node11&#45;&gt;Node27</title>
<g id="a_edge31_Node000011_Node000027"><a xlink:title=" ">
<path fill="none" stroke="#63b8ff" d="M567.09,-126C576.52,-126 586.48,-126 596.1,-126"/>
<polygon fill="#63b8ff" stroke="#63b8ff" points="596.38,-129.5 606.38,-126 596.38,-122.5 596.38,-129.5"/>
</a>
</g>
</g>
<!-- Node13 -->
<g id="Node000013" class="node">
<title>Node13</title>
<g id="a_Node000013"><a xlink:href="render__objects_8c.html#a64a1b579023d24b6d3506bc42b13b837" target="_top" xlink:title=" ">
<polygon fill="white" stroke="#666666" points="851,-172.5 760,-172.5 760,-153.5 851,-153.5 851,-172.5"/>
<text text-anchor="middle" x="805.5" y="-160.5" font-family="Helvetica,sans-Serif" font-size="10.00">func_80043500</text>
</a>
</g>
</g>
<!-- Node12&#45;&gt;Node13 -->
<g id="edge12_Node000012_Node000013" class="edge">
<title>Node12&#45;&gt;Node13</title>
<g id="a_edge12_Node000012_Node000013"><a xlink:title=" ">
<path fill="none" stroke="#63b8ff" d="M698.04,-163C714.22,-163 732.65,-163 749.58,-163"/>
<polygon fill="#63b8ff" stroke="#63b8ff" points="749.89,-166.5 759.89,-163 749.89,-159.5 749.89,-166.5"/>
</a>
</g>
</g>
<!-- Node13&#45;&gt;Node2 -->
<g id="edge13_Node000013_Node000002" class="edge">
<title>Node13&#45;&gt;Node2</title>
<g id="a_edge13_Node000013_Node000002"><a xlink:title=" ">
<path fill="none" stroke="#63b8ff" d="M851.29,-164.42C878.32,-165.28 912.93,-166.38 941.47,-167.28"/>
<polygon fill="#63b8ff" stroke="#63b8ff" points="941.58,-170.79 951.68,-167.61 941.8,-163.79 941.58,-170.79"/>
</a>
</g>
</g>
<!-- Node14 -->
<g id="Node000014" class="node">
<title>Node14</title>
<g id="a_Node000014"><a xlink:href="math__util__2_8c.html#a2eff0e02deb703653ee3230fbc02eb14" target="_top" xlink:title="set the matrix to a transformation matrix">
<polygon fill="white" stroke="#666666" points="1080,-141.5 913,-141.5 913,-122.5 1080,-122.5 1080,-141.5"/>
<text text-anchor="middle" x="996.5" y="-129.5" font-family="Helvetica,sans-Serif" font-size="10.00">rsp_set_matrix_transformation</text>
</a>
</g>
</g>
<!-- Node13&#45;&gt;Node14 -->
<g id="edge14_Node000013_Node000014" class="edge">
<title>Node13&#45;&gt;Node14</title>
<g id="a_edge14_Node000013_Node000014"><a xlink:title=" ">
<path fill="none" stroke="#63b8ff" d="M851.29,-155.65C874.03,-151.92 902.15,-147.31 927.49,-143.15"/>
<polygon fill="#63b8ff" stroke="#63b8ff" points="928.12,-146.6 937.42,-141.53 926.99,-139.69 928.12,-146.6"/>
</a>
</g>
</g>
<!-- Node15 -->
<g id="Node000015" class="node">
<title>Node15</title>
<g id="a_Node000015"><a xlink:href="Matrix_8cpp.html#a329d78c031733cf22ff7518f5d38fd74" target="_top" xlink:title=" ">
<polygon fill="white" stroke="#666666" points="1247,-215.5 1161,-215.5 1161,-196.5 1247,-196.5 1247,-215.5"/>
<text text-anchor="middle" x="1204" y="-203.5" font-family="Helvetica,sans-Serif" font-size="10.00">AddHudMatrix</text>
</a>
</g>
</g>
<!-- Node14&#45;&gt;Node15 -->
<g id="edge15_Node000014_Node000015" class="edge">
<title>Node14&#45;&gt;Node15</title>
<g id="a_edge15_Node000014_Node000015"><a xlink:title=" ">
<path fill="none" stroke="#63b8ff" d="M1057.62,-141.55C1065.41,-144.01 1073.08,-147.11 1080,-151 1099.99,-162.26 1095.88,-176.97 1116,-188 1126.67,-193.85 1139.03,-197.81 1151.02,-200.48"/>
<polygon fill="#63b8ff" stroke="#63b8ff" points="1150.48,-203.94 1160.96,-202.43 1151.83,-197.07 1150.48,-203.94"/>
</a>
</g>
</g>
<!-- Node20 -->
<g id="Node000020" class="node">
<title>Node20</title>
<g id="a_Node000020"><a xlink:href="math__util__2_8c.html#ae71383a9d7f97bcb240b23f68068ab30" target="_top" xlink:title=" ">
<polygon fill="white" stroke="#666666" points="1292,-141.5 1116,-141.5 1116,-122.5 1292,-122.5 1292,-141.5"/>
<text text-anchor="middle" x="1204" y="-129.5" font-family="Helvetica,sans-Serif" font-size="10.00">mtxf_set_matrix_transformation</text>
</a>
</g>
</g>
<!-- Node14&#45;&gt;Node20 -->
<g id="edge20_Node000014_Node000020" class="edge">
<title>Node14&#45;&gt;Node20</title>
<g id="a_edge20_Node000014_Node000020"><a xlink:title=" ">
<path fill="none" stroke="#63b8ff" d="M1080.2,-132C1088.61,-132 1097.22,-132 1105.77,-132"/>
<polygon fill="#63b8ff" stroke="#63b8ff" points="1105.77,-135.5 1115.77,-132 1105.77,-128.5 1105.77,-135.5"/>
</a>
</g>
</g>
<!-- Node16 -->
<g id="Node000016" class="node">
<title>Node16</title>
<g id="a_Node000016"><a xlink:href="Matrix_8cpp.html#a67401ed1d8de1f4d3a3e5a7b72842b6a" target="_top" xlink:title=" ">
<polygon fill="white" stroke="#666666" points="1395,-215.5 1328,-215.5 1328,-196.5 1395,-196.5 1395,-215.5"/>
<text text-anchor="middle" x="1361.5" y="-203.5" font-family="Helvetica,sans-Serif" font-size="10.00">AddMatrix</text>
</a>
</g>
</g>
<!-- Node15&#45;&gt;Node16 -->
<g id="edge16_Node000015_Node000016" class="edge">
<title>Node15&#45;&gt;Node16</title>
<g id="a_edge16_Node000015_Node000016"><a xlink:title=" ">
<path fill="none" stroke="#63b8ff" d="M1247.08,-206C1268.98,-206 1295.69,-206 1317.69,-206"/>
<polygon fill="#63b8ff" stroke="#63b8ff" points="1317.76,-209.5 1327.76,-206 1317.76,-202.5 1317.76,-209.5"/>
</a>
</g>
</g>
<!-- Node17 -->
<g id="Node000017" class="node">
<title>Node17</title>
<g id="a_Node000017"><a xlink:href="FrameInterpolation_8cpp.html#a8cf1f2d6fabc6925aa71a9515341b4aa" target="_top" xlink:title=" ">
<polygon fill="white" stroke="#666666" points="1589,-178 1449,-178 1449,-148 1589,-148 1589,-178"/>
<text text-anchor="start" x="1457" y="-166" font-family="Helvetica,sans-Serif" font-size="10.00">FrameInterpolation</text>
<text text-anchor="middle" x="1519" y="-155" font-family="Helvetica,sans-Serif" font-size="10.00">_RecordMatrixMtxFToMtx</text>
</a>
</g>
</g>
<!-- Node16&#45;&gt;Node17 -->
<g id="edge17_Node000016_Node000017" class="edge">
<title>Node16&#45;&gt;Node17</title>
<g id="a_edge17_Node000016_Node000017"><a xlink:title=" ">
<path fill="none" stroke="#63b8ff" d="M1395.1,-196.99C1412.16,-192.27 1433.67,-186.32 1453.91,-180.72"/>
<polygon fill="#63b8ff" stroke="#63b8ff" points="1455.01,-184.05 1463.72,-178.01 1453.14,-177.3 1455.01,-184.05"/>
</a>
</g>
</g>
<!-- Node19 -->
<g id="Node000019" class="node">
<title>Node19</title>
<g id="a_Node000019"><a xlink:href="guMtxF2L_8c.html#a40ab2d64c609839ff1e0ef0de2d0dcc4" target="_top" xlink:title=" ">
<polygon fill="white" stroke="#666666" points="1551.5,-215.5 1486.5,-215.5 1486.5,-196.5 1551.5,-196.5 1551.5,-215.5"/>
<text text-anchor="middle" x="1519" y="-203.5" font-family="Helvetica,sans-Serif" font-size="10.00">guMtxF2L</text>
</a>
</g>
</g>
<!-- Node16&#45;&gt;Node19 -->
<g id="edge19_Node000016_Node000019" class="edge">
<title>Node16&#45;&gt;Node19</title>
<g id="a_edge19_Node000016_Node000019"><a xlink:title=" ">
<path fill="none" stroke="#63b8ff" d="M1395.1,-206C1418.66,-206 1450.68,-206 1476.14,-206"/>
<polygon fill="#63b8ff" stroke="#63b8ff" points="1476.24,-209.5 1486.24,-206 1476.24,-202.5 1476.24,-209.5"/>
</a>
</g>
</g>
<!-- Node18 -->
<g id="Node000018" class="node">
<title>Node18</title>
<g id="a_Node000018"><a xlink:href="FrameInterpolation_8cpp.html#a02c7ac5342a4d376edee38f312b480bf" target="_top" xlink:title=" ">
<polygon fill="white" stroke="#666666" points="1751,-215.5 1643,-215.5 1643,-196.5 1751,-196.5 1751,-215.5"/>
<text text-anchor="middle" x="1697" y="-203.5" font-family="Helvetica,sans-Serif" font-size="10.00">check_if_recording</text>
</a>
</g>
</g>
<!-- Node17&#45;&gt;Node18 -->
<g id="edge18_Node000017_Node000018" class="edge">
<title>Node17&#45;&gt;Node18</title>
<g id="a_edge18_Node000017_Node000018"><a xlink:title=" ">
<path fill="none" stroke="#63b8ff" d="M1581.56,-178.04C1603.01,-183.28 1626.78,-189.09 1647.07,-194.04"/>
<polygon fill="#63b8ff" stroke="#63b8ff" points="1646.48,-197.5 1657.03,-196.48 1648.14,-190.7 1646.48,-197.5"/>
</a>
</g>
</g>
<!-- Node21 -->
<g id="Node000021" class="node">
<title>Node21</title>
<g id="a_Node000021"><a xlink:href="math__util_8c.html#ae69cbf5c8d4b3b0dba2d7b4d4673689f" target="_top" xlink:title=" ">
<polygon fill="white" stroke="#666666" points="1380.5,-141.5 1342.5,-141.5 1342.5,-122.5 1380.5,-122.5 1380.5,-141.5"/>
<text text-anchor="middle" x="1361.5" y="-129.5" font-family="Helvetica,sans-Serif" font-size="10.00">coss</text>
</a>
</g>
</g>
<!-- Node20&#45;&gt;Node21 -->
<g id="edge21_Node000020_Node000021" class="edge">
<title>Node20&#45;&gt;Node21</title>
<g id="a_edge21_Node000020_Node000021"><a xlink:title=" ">
<path fill="none" stroke="#63b8ff" d="M1292.3,-132C1306.67,-132 1320.6,-132 1332.09,-132"/>
<polygon fill="#63b8ff" stroke="#63b8ff" points="1332.29,-135.5 1342.29,-132 1332.28,-128.5 1332.29,-135.5"/>
</a>
</g>
</g>
<!-- Node22 -->
<g id="Node000022" class="node">
<title>Node22</title>
<g id="a_Node000022"><a xlink:href="FrameInterpolation_8cpp.html#af749df1a96bee5c78287b1845455ae2d" target="_top" xlink:title=" ">
<polygon fill="white" stroke="#666666" points="1607,-120 1431,-120 1431,-90 1607,-90 1607,-120"/>
<text text-anchor="start" x="1439" y="-108" font-family="Helvetica,sans-Serif" font-size="10.00">FrameInterpolation</text>
<text text-anchor="middle" x="1519" y="-97" font-family="Helvetica,sans-Serif" font-size="10.00">_RecordSetMatrixTransformation</text>
</a>
</g>
</g>
<!-- Node20&#45;&gt;Node22 -->
<g id="edge22_Node000020_Node000022" class="edge">
<title>Node20&#45;&gt;Node22</title>
<g id="a_edge22_Node000020_Node000022"><a xlink:title=" ">
<path fill="none" stroke="#63b8ff" d="M1258.11,-122.47C1279.73,-118.94 1304.99,-115.25 1328,-113 1357.98,-110.06 1390.73,-108.2 1420.46,-107.03"/>
<polygon fill="#63b8ff" stroke="#63b8ff" points="1420.98,-110.51 1430.84,-106.64 1420.71,-103.51 1420.98,-110.51"/>
</a>
</g>
</g>
<!-- Node23 -->
<g id="Node000023" class="node">
<title>Node23</title>
<g id="a_Node000023"><a xlink:href="math__util_8c.html#a19ed3bd78fd2d3e2bd0a29f6caf48545" target="_top" xlink:title=" ">
<polygon fill="white" stroke="#666666" points="1379.5,-178.5 1343.5,-178.5 1343.5,-159.5 1379.5,-159.5 1379.5,-178.5"/>
<text text-anchor="middle" x="1361.5" y="-166.5" font-family="Helvetica,sans-Serif" font-size="10.00">sins</text>
</a>
</g>
</g>
<!-- Node20&#45;&gt;Node23 -->
<g id="edge24_Node000020_Node000023" class="edge">
<title>Node20&#45;&gt;Node23</title>
<g id="a_edge24_Node000020_Node000023"><a xlink:title=" ">
<path fill="none" stroke="#63b8ff" d="M1250.24,-141.5C1263.7,-144.43 1278.47,-147.75 1292,-151 1305.73,-154.3 1320.93,-158.26 1333.51,-161.63"/>
<polygon fill="#63b8ff" stroke="#63b8ff" points="1332.81,-165.07 1343.38,-164.29 1334.63,-158.31 1332.81,-165.07"/>
</a>
</g>
</g>
<!-- Node22&#45;&gt;Node18 -->
<g id="edge23_Node000022_Node000018" class="edge">
<title>Node22&#45;&gt;Node18</title>
<g id="a_edge23_Node000022_Node000018"><a xlink:title=" ">
<path fill="none" stroke="#63b8ff" d="M1565.33,-120.03C1579.07,-125.3 1593.97,-131.73 1607,-139 1633.13,-153.58 1660.17,-175 1677.49,-189.67"/>
<polygon fill="#63b8ff" stroke="#63b8ff" points="1675.3,-192.41 1685.16,-196.28 1679.87,-187.1 1675.3,-192.41"/>
</a>
</g>
</g>
<!-- Node24&#45;&gt;Node2 -->
<g id="edge26_Node000024_Node000002" class="edge">
<title>Node24&#45;&gt;Node2</title>
<g id="a_edge26_Node000024_Node000002"><a xlink:title=" ">
<path fill="none" stroke="#63b8ff" d="M821.42,-104.51C841.5,-116.91 878.65,-138.48 913,-151 922.1,-154.32 931.99,-157.12 941.67,-159.45"/>
<polygon fill="#63b8ff" stroke="#63b8ff" points="941.1,-162.91 951.63,-161.72 942.66,-156.09 941.1,-162.91"/>
</a>
</g>
</g>
<!-- Node24&#45;&gt;Node14 -->
<g id="edge30_Node000024_Node000014" class="edge">
<title>Node24&#45;&gt;Node14</title>
<g id="a_edge30_Node000024_Node000014"><a xlink:title=" ">
<path fill="none" stroke="#63b8ff" d="M851.77,-103.86C877.35,-108.87 909.61,-115.19 937.08,-120.56"/>
<polygon fill="#63b8ff" stroke="#63b8ff" points="936.47,-124.01 946.96,-122.5 937.82,-117.14 936.47,-124.01"/>
</a>
</g>
</g>
<!-- Node25 -->
<g id="Node000025" class="node">
<title>Node25</title>
<g id="a_Node000025"><a xlink:href="GBIMiddleware_8cpp.html#aeef79449a27a710d73576e4a4f7f7f99" target="_top" xlink:title=" ">
<polygon fill="white" stroke="#666666" points="1029.5,-104.5 963.5,-104.5 963.5,-85.5 1029.5,-85.5 1029.5,-104.5"/>
<text text-anchor="middle" x="996.5" y="-92.5" font-family="Helvetica,sans-Serif" font-size="10.00">gSPVertex</text>
</a>
</g>
</g>
<!-- Node24&#45;&gt;Node25 -->
<g id="edge27_Node000024_Node000025" class="edge">
<title>Node24&#45;&gt;Node25</title>
<g id="a_edge27_Node000024_Node000025"><a xlink:title=" ">
<path fill="none" stroke="#63b8ff" d="M851.77,-95C882.54,-95 922.98,-95 953.12,-95"/>
<polygon fill="#63b8ff" stroke="#63b8ff" points="953.32,-98.5 963.32,-95 953.32,-91.5 953.32,-98.5"/>
</a>
</g>
</g>
<!-- Node26 -->
<g id="Node000026" class="node">
<title>Node26</title>
<g id="a_Node000026"><a xlink:href="render__objects_8c.html#ac6b2b1be6d99122b6bd5612bdee6ffef" target="_top" xlink:title=" ">
<polygon fill="white" stroke="#666666" points="1051.5,-67 941.5,-67 941.5,-37 1051.5,-37 1051.5,-67"/>
<text text-anchor="start" x="949.5" y="-55" font-family="Helvetica,sans-Serif" font-size="10.00">load_texture_block</text>
<text text-anchor="middle" x="996.5" y="-44" font-family="Helvetica,sans-Serif" font-size="10.00">_ia16_nomirror</text>
</a>
</g>
</g>
<!-- Node24&#45;&gt;Node26 -->
<g id="edge29_Node000024_Node000026" class="edge">
<title>Node24&#45;&gt;Node26</title>
<g id="a_edge29_Node000024_Node000026"><a xlink:title=" ">
<path fill="none" stroke="#63b8ff" d="M848.45,-85.46C872.85,-79.9 904.12,-72.79 931.54,-66.55"/>
<polygon fill="#63b8ff" stroke="#63b8ff" points="932.48,-69.93 941.45,-64.3 930.92,-63.1 932.48,-69.93"/>
</a>
</g>
</g>
<!-- Node25&#45;&gt;Node3 -->
<g id="edge28_Node000025_Node000003" class="edge">
<title>Node25&#45;&gt;Node3</title>
<g id="a_edge28_Node000025_Node000003"><a xlink:title=" ">
<path fill="none" stroke="#63b8ff" d="M1029.61,-95C1053.65,-95 1087.69,-95 1119.25,-95"/>
<polygon fill="#63b8ff" stroke="#63b8ff" points="1119.39,-98.5 1129.39,-95 1119.39,-91.5 1119.39,-98.5"/>
</a>
</g>
</g>
<!-- Node28&#45;&gt;Node2 -->
<g id="edge38_Node000028_Node000002" class="edge">
<title>Node28&#45;&gt;Node2</title>
<g id="a_edge38_Node000028_Node000002"><a xlink:title=" ">
<path fill="none" stroke="#63b8ff" d="M847.97,-228.99C857.72,-224.91 867.91,-220.17 877,-215 894.39,-205.12 894.86,-196.43 913,-188 922.1,-183.77 932.21,-180.45 942.14,-177.85"/>
<polygon fill="#63b8ff" stroke="#63b8ff" points="943.08,-181.22 951.98,-175.48 941.44,-174.42 943.08,-181.22"/>
</a>
</g>
</g>
<!-- Node29 -->
<g id="Node000029" class="node">
<title>Node29</title>
<g id="a_Node000029"><a xlink:href="FrameInterpolation_8cpp.html#a3a036bc9d533e28a4e9697cd20dccf3e" target="_top" xlink:title=" ">
<polygon fill="white" stroke="#666666" points="1574,-323 1464,-323 1464,-293 1574,-293 1574,-323"/>
<text text-anchor="start" x="1472" y="-311" font-family="Helvetica,sans-Serif" font-size="10.00">FrameInterpolation</text>
<text text-anchor="middle" x="1519" y="-300" font-family="Helvetica,sans-Serif" font-size="10.00">_RecordCloseChild</text>
</a>
</g>
</g>
<!-- Node28&#45;&gt;Node29 -->
<g id="edge33_Node000028_Node000029" class="edge">
<title>Node28&#45;&gt;Node29</title>
<g id="a_edge33_Node000028_Node000029"><a xlink:title=" ">
<path fill="none" stroke="#63b8ff" d="M827.26,-259.04C847.86,-272.97 880.91,-292.75 913,-301 1104.64,-350.24 1341.82,-330.81 1453.76,-317.1"/>
<polygon fill="#63b8ff" stroke="#63b8ff" points="1454.39,-320.55 1463.87,-315.84 1453.52,-313.61 1454.39,-320.55"/>
</a>
</g>
</g>
<!-- Node30 -->
<g id="Node000030" class="node">
<title>Node30</title>
<g id="a_Node000030"><a xlink:href="FrameInterpolation_8cpp.html#a0eda726b74eac815af4e874014e2727c" target="_top" xlink:title=" ">
<polygon fill="white" stroke="#666666" points="1574,-264 1464,-264 1464,-234 1574,-234 1574,-264"/>
<text text-anchor="start" x="1472" y="-252" font-family="Helvetica,sans-Serif" font-size="10.00">FrameInterpolation</text>
<text text-anchor="middle" x="1519" y="-241" font-family="Helvetica,sans-Serif" font-size="10.00">_RecordOpenChild</text>
</a>
</g>
</g>
<!-- Node28&#45;&gt;Node30 -->
<g id="edge35_Node000028_Node000030" class="edge">
<title>Node28&#45;&gt;Node30</title>
<g id="a_edge35_Node000028_Node000030"><a xlink:title=" ">
<path fill="none" stroke="#63b8ff" d="M877.32,-244.5C1015.89,-245.47 1320.91,-247.61 1453.9,-248.55"/>
<polygon fill="#63b8ff" stroke="#63b8ff" points="1453.91,-252.05 1463.93,-248.62 1453.96,-245.05 1453.91,-252.05"/>
</a>
</g>
</g>
<!-- Node31 -->
<g id="Node000031" class="node">
<title>Node31</title>
<g id="a_Node000031"><a xlink:href="render__objects_8c.html#a81be2b87d808633d8fe563c777fe1b0c" target="_top" xlink:title=" ">
<polygon fill="white" stroke="#666666" points="1042,-291.5 951,-291.5 951,-272.5 1042,-272.5 1042,-291.5"/>
<text text-anchor="middle" x="996.5" y="-279.5" font-family="Helvetica,sans-Serif" font-size="10.00">func_80044F34</text>
</a>
</g>
</g>
<!-- Node28&#45;&gt;Node31 -->
<g id="edge37_Node000028_Node000031" class="edge">
<title>Node28&#45;&gt;Node31</title>
<g id="a_edge37_Node000028_Node000031"><a xlink:title=" ">
<path fill="none" stroke="#63b8ff" d="M877.15,-258.2C898.31,-262.46 921.19,-267.06 941.14,-271.07"/>
<polygon fill="#63b8ff" stroke="#63b8ff" points="940.48,-274.51 950.97,-273.05 941.86,-267.64 940.48,-274.51"/>
</a>
</g>
</g>
<!-- Node32 -->
<g id="Node000032" class="node">
<title>Node32</title>
<g id="a_Node000032"><a xlink:href="math__util__2_8c.html#aca064a66dc29c36e1db7b79a6b679e25" target="_top" xlink:title=" ">
<polygon fill="white" stroke="#666666" points="1071,-215.5 922,-215.5 922,-196.5 1071,-196.5 1071,-215.5"/>
<text text-anchor="middle" x="996.5" y="-203.5" font-family="Helvetica,sans-Serif" font-size="10.00">rsp_set_matrix_gObjectList</text>
</a>
</g>
</g>
<!-- Node28&#45;&gt;Node32 -->
<g id="edge39_Node000028_Node000032" class="edge">
<title>Node28&#45;&gt;Node32</title>
<g id="a_edge39_Node000028_Node000032"><a xlink:title=" ">
<path fill="none" stroke="#63b8ff" d="M877.15,-229.8C897.32,-225.74 919.06,-221.37 938.32,-217.5"/>
<polygon fill="#63b8ff" stroke="#63b8ff" points="939.04,-220.92 948.15,-215.52 937.66,-214.06 939.04,-220.92"/>
</a>
</g>
</g>
<!-- Node29&#45;&gt;Node18 -->
<g id="edge34_Node000029_Node000018" class="edge">
<title>Node29&#45;&gt;Node18</title>
<g id="a_edge34_Node000029_Node000018"><a xlink:title=" ">
<path fill="none" stroke="#63b8ff" d="M1563.97,-292.9C1578.08,-287.38 1593.53,-280.6 1607,-273 1633.05,-258.29 1660.12,-236.9 1677.46,-222.26"/>
<polygon fill="#63b8ff" stroke="#63b8ff" points="1679.82,-224.85 1685.14,-215.68 1675.27,-219.53 1679.82,-224.85"/>
</a>
</g>
</g>
<!-- Node30&#45;&gt;Node18 -->
<g id="edge36_Node000030_Node000018" class="edge">
<title>Node30&#45;&gt;Node18</title>
<g id="a_edge36_Node000030_Node000018"><a xlink:title=" ">
<path fill="none" stroke="#63b8ff" d="M1574.24,-235.75C1597.56,-230.05 1624.6,-223.44 1647.27,-217.91"/>
<polygon fill="#63b8ff" stroke="#63b8ff" points="1648.13,-221.3 1657.02,-215.52 1646.47,-214.5 1648.13,-221.3"/>
</a>
</g>
</g>
<!-- Node32&#45;&gt;Node15 -->
<g id="edge40_Node000032_Node000015" class="edge">
<title>Node32&#45;&gt;Node15</title>
<g id="a_edge40_Node000032_Node000015"><a xlink:title=" ">
<path fill="none" stroke="#63b8ff" d="M1071.11,-206C1097.51,-206 1126.71,-206 1150.91,-206"/>
<polygon fill="#63b8ff" stroke="#63b8ff" points="1150.96,-209.5 1160.95,-206 1150.95,-202.5 1150.96,-209.5"/>
</a>
</g>
</g>
<!-- Node33 -->
<g id="Node000033" class="node">
<title>Node33</title>
<g id="a_Node000033"><a xlink:href="math__util__2_8c.html#ab70b077c4d314699e7fb4bea342827e0" target="_top" xlink:title=" ">
<polygon fill="white" stroke="#666666" points="1283,-178.5 1125,-178.5 1125,-159.5 1283,-159.5 1283,-178.5"/>
<text text-anchor="middle" x="1204" y="-166.5" font-family="Helvetica,sans-Serif" font-size="10.00">mtxf_set_matrix_gObjectList</text>
</a>
</g>
</g>
<!-- Node32&#45;&gt;Node33 -->
<g id="edge41_Node000032_Node000033" class="edge">
<title>Node32&#45;&gt;Node33</title>
<g id="a_edge41_Node000032_Node000033"><a xlink:title=" ">
<path fill="none" stroke="#63b8ff" d="M1050.42,-196.47C1077.76,-191.55 1111.31,-185.51 1139.98,-180.35"/>
<polygon fill="#63b8ff" stroke="#63b8ff" points="1140.68,-183.78 1149.9,-178.56 1139.44,-176.89 1140.68,-183.78"/>
</a>
</g>
</g>
<!-- Node33&#45;&gt;Node21 -->
<g id="edge42_Node000033_Node000021" class="edge">
<title>Node33&#45;&gt;Node21</title>
<g id="a_edge42_Node000033_Node000021"><a xlink:title=" ">
<path fill="none" stroke="#63b8ff" d="M1253.9,-159.48C1266.36,-156.89 1279.71,-153.97 1292,-151 1305.4,-147.76 1320.15,-143.73 1332.52,-140.21"/>
<polygon fill="#63b8ff" stroke="#63b8ff" points="1333.63,-143.54 1342.27,-137.41 1331.69,-136.81 1333.63,-143.54"/>
</a>
</g>
</g>
<!-- Node33&#45;&gt;Node23 -->
<g id="edge43_Node000033_Node000023" class="edge">
<title>Node33&#45;&gt;Node23</title>
<g id="a_edge43_Node000033_Node000023"><a xlink:title=" ">
<path fill="none" stroke="#63b8ff" d="M1283.21,-169C1301.11,-169 1318.98,-169 1333.02,-169"/>
<polygon fill="#63b8ff" stroke="#63b8ff" points="1333.39,-172.5 1343.39,-169 1333.39,-165.5 1333.39,-172.5"/>
</a>
</g>
</g>
<!-- Node34&#45;&gt;Node6 -->
<g id="edge45_Node000034_Node000006" class="edge">
<title>Node34&#45;&gt;Node6</title>
<g id="a_edge45_Node000034_Node000006"><a xlink:title=" ">
<path fill="none" stroke="#63b8ff" d="M266.34,-60.8C279.15,-60.3 292.78,-59.78 305.68,-59.28"/>
<polygon fill="#63b8ff" stroke="#63b8ff" points="305.98,-62.77 315.84,-58.88 305.71,-55.77 305.98,-62.77"/>
</a>
</g>
</g>
<!-- Node34&#45;&gt;Node7 -->
<g id="edge46_Node000034_Node000007" class="edge">
<title>Node34&#45;&gt;Node7</title>
<g id="a_edge46_Node000034_Node000007"><a xlink:title=" ">
<path fill="none" stroke="#63b8ff" d="M248,-78.09C254.12,-80.85 260.31,-83.86 266,-87 283.05,-96.41 284.47,-103.51 302,-112 306.66,-114.26 311.66,-116.32 316.71,-118.17"/>
<polygon fill="#63b8ff" stroke="#63b8ff" points="315.84,-121.58 326.43,-121.5 318.1,-114.95 315.84,-121.58"/>
</a>
</g>
</g>
<!-- Node34&#45;&gt;Node8 -->
<g id="edge47_Node000034_Node000008" class="edge">
<title>Node34&#45;&gt;Node8</title>
<g id="a_edge47_Node000034_Node000008"><a xlink:title=" ">
<path fill="none" stroke="#63b8ff" d="M266.34,-74.37C279.56,-77.01 293.64,-79.83 306.89,-82.48"/>
<polygon fill="#63b8ff" stroke="#63b8ff" points="306.34,-85.94 316.84,-84.47 307.72,-79.07 306.34,-85.94"/>
</a>
</g>
</g>
<!-- Node35&#45;&gt;Node6 -->
<g id="edge49_Node000035_Node000006" class="edge">
<title>Node35&#45;&gt;Node6</title>
<g id="a_edge49_Node000035_Node000006"><a xlink:title=" ">
<path fill="none" stroke="#63b8ff" d="M265.02,-30.04C282.88,-34.88 302.45,-40.19 319.46,-44.8"/>
<polygon fill="#63b8ff" stroke="#63b8ff" points="318.58,-48.18 329.15,-47.42 320.41,-41.43 318.58,-48.18"/>
</a>
</g>
</g>
<!-- Node35&#45;&gt;Node7 -->
<g id="edge50_Node000035_Node000007" class="edge">
<title>Node35&#45;&gt;Node7</title>
<g id="a_edge50_Node000035_Node000007"><a xlink:title=" ">
<path fill="none" stroke="#63b8ff" d="M253.99,-30.16C258.33,-32.7 262.44,-35.63 266,-39 292.29,-63.85 274.42,-88.59 302,-112 304.55,-114.17 307.34,-116.08 310.29,-117.78"/>
<polygon fill="#63b8ff" stroke="#63b8ff" points="308.97,-121.03 319.49,-122.26 312.03,-114.74 308.97,-121.03"/>
</a>
</g>
</g>
<!-- Node35&#45;&gt;Node8 -->
<g id="edge51_Node000035_Node000008" class="edge">
<title>Node35&#45;&gt;Node8</title>
<g id="a_edge51_Node000035_Node000008"><a xlink:title=" ">
<path fill="none" stroke="#63b8ff" d="M250.31,-30.09C255.76,-32.74 261.14,-35.72 266,-39 284.76,-51.66 282.6,-63.36 302,-75 305.61,-77.17 309.49,-79.1 313.48,-80.83"/>
<polygon fill="#63b8ff" stroke="#63b8ff" points="312.34,-84.14 322.93,-84.5 314.87,-77.62 312.34,-84.14"/>
</a>
</g>
</g>
<!-- Node36&#45;&gt;Node6 -->
<g id="edge53_Node000036_Node000006" class="edge">
<title>Node36&#45;&gt;Node6</title>
<g id="a_edge53_Node000036_Node000006"><a xlink:title=" ">
<path fill="none" stroke="#63b8ff" d="M253.14,-143.86C257.74,-141.3 262.14,-138.36 266,-135 289.46,-114.59 277.34,-93.95 302,-75 303.82,-73.6 305.74,-72.31 307.74,-71.12"/>
<polygon fill="#63b8ff" stroke="#63b8ff" points="309.55,-74.13 316.92,-66.52 306.41,-67.88 309.55,-74.13"/>
</a>
</g>
</g>
<!-- Node36&#45;&gt;Node7 -->
<g id="edge54_Node000036_Node000007" class="edge">
<title>Node36&#45;&gt;Node7</title>
<g id="a_edge54_Node000036_Node000007"><a xlink:title=" ">
<path fill="none" stroke="#63b8ff" d="M266.34,-148.73C280.38,-146.2 295.4,-143.48 309.36,-140.96"/>
<polygon fill="#63b8ff" stroke="#63b8ff" points="310.09,-144.38 319.31,-139.16 308.85,-137.5 310.09,-144.38"/>
</a>
</g>
</g>
<!-- Node36&#45;&gt;Node8 -->
<g id="edge55_Node000036_Node000008" class="edge">
<title>Node36&#45;&gt;Node8</title>
<g id="a_edge55_Node000036_Node000008"><a xlink:title=" ">
<path fill="none" stroke="#63b8ff" d="M247.29,-143.98C253.62,-141.17 260.06,-138.13 266,-135 282.8,-126.15 284.7,-119.82 302,-112 306.16,-110.12 310.57,-108.38 315.05,-106.79"/>
<polygon fill="#63b8ff" stroke="#63b8ff" points="316.47,-110.01 324.87,-103.54 314.28,-103.36 316.47,-110.01"/>
</a>
</g>
</g>
</g>
</svg>

<g id="navigator" transform="translate(0 0)" fill="#404254">
  <rect fill="#f2f5e9" fill-opacity="0.5" stroke="#606060" stroke-width=".5" x="0" y="0" width="60" height="60"/>
  <use id="zoomplus" xlink:href="#zoomPlus" x="17" y="9" onmousedown="handleZoom(evt,'in')"/>
  <use id="zoomminus" xlink:href="#zoomMin" x="42" y="9" onmousedown="handleZoom(evt,'out')"/>
  <use id="reset" xlink:href="#resetDef" x="30" y="36" onmousedown="handleReset()"/>
   <use id="arrowup" xlink:href="#arrowUp" x="0" y="0" onmousedown="handlePan(0,-1)"/>
  <use id="arrowright" xlink:href="#arrowRight" x="0" y="0" onmousedown="handlePan(1,0)"/>
  <use id="arrowdown" xlink:href="#arrowDown" x="0" y="0" onmousedown="handlePan(0,1)"/>
  <use id="arrowleft" xlink:href="#arrowLeft" x="0" y="0" onmousedown="handlePan(-1,0)"/>
</g>
<svg viewBox="0 0 15 15" width="100%" height="30px" preserveAspectRatio="xMaxYMin meet">
 <g id="arrow_out" transform="scale(0.3 0.3)">
  <a xlink:href="code__80057C60_8c_a83ec3480e8cda4760c311bc59213f3da_cgraph_org.svg" target="_base">
   <rect id="button" ry="5" rx="5" y="6" x="6" height="38" width="38"
        fill="#f2f5e9" fill-opacity="0.5" stroke="#606060" stroke-width="1.0"/>
   <path id="arrow"
     d="M 11.500037,31.436501 C 11.940474,20.09759 22.043105,11.32322 32.158766,21.979434 L 37.068811,17.246167 C 37.068811,17.246167 37.088388,32 37.088388,32 L 22.160133,31.978069 C 22.160133,31.978069 26.997745,27.140456 26.997745,27.140456 C 18.528582,18.264221 13.291696,25.230495 11.500037,31.436501 z"
     style="fill:#404040;"/>
  </a>
 </g>
</svg>

<style type='text/css'>
<![CDATA[
[data-mouse-over-selected='false'] { opacity: 0.7; }
[data-mouse-over-selected='true']  { opacity: 1.0; }
]]>
</style>
<script type="application/ecmascript"><![CDATA[
document.addEventListener('DOMContentLoaded', (event) => {
  highlightEdges();
  highlightAdjacentNodes();
});
]]></script>
</svg>
