<?xml version="1.0" encoding="UTF-8" standalone="no"?>
<!DOCTYPE svg PUBLIC "-//W3C//DTD SVG 1.1//EN"
 "http://www.w3.org/Graphics/SVG/1.1/DTD/svg11.dtd">
<!-- Generated by graphviz version 2.43.0 (0)
 -->
<!-- Title: set_obj_origin_pos Pages: 1 -->
<!--zoomable 609 -->

<svg id="main" version="1.1" xmlns="http://www.w3.org/2000/svg" xmlns:xlink="http://www.w3.org/1999/xlink" xml:space="preserve" onload="init(evt)">

<style type="text/css"><![CDATA[
.node, .edge {opacity: 0.7;}
.node.selected, .edge.selected {opacity: 1;}
.edge:hover path { stroke: red; }
.edge:hover polygon { stroke: red; fill: red; }
]]></style>

<defs>
  <circle id="rim" cx="0" cy="0" r="7"/>
  <circle id="rim2" cx="0" cy="0" r="3.5"/>
  <g id="zoomPlus">
    <use xlink:href="#rim" fill="#404040"><set attributeName="fill" to="#808080" begin="zoomplus.mouseover" end="zoomplus.mouseout"/></use>
    <path d="M-4,0h8M0,-4v8" fill="none" stroke="white" stroke-width="1.5" pointer-events="none"/>
  </g>
  <g id="zoomMin">
    <use xlink:href="#rim" fill="#404040"><set attributeName="fill" to="#808080" begin="zoomminus.mouseover" end="zoomminus.mouseout"/></use>
    <path d="M-4,0h8" fill="none" stroke="white" stroke-width="1.5" pointer-events="none"/>
  </g>
  <g id="arrowUp" transform="translate(30 24)">
    <use xlink:href="#rim"/>
    <path pointer-events="none" fill="none" stroke="white" stroke-width="1.5" d="M0,-3.0v7 M-2.5,-0.5L0,-3.0L2.5,-0.5"/>
  </g>
  <g id="arrowRight" transform="rotate(90) translate(36 -43)">
    <use xlink:href="#rim"/>
    <path pointer-events="none" fill="none" stroke="white" stroke-width="1.5" d="M0,-3.0v7 M-2.5,-0.5L0,-3.0L2.5,-0.5"/>
  </g>
  <g id="arrowDown" transform="rotate(180) translate(-30 -48)">
    <use xlink:href="#rim"/>
    <path pointer-events="none" fill="none" stroke="white" stroke-width="1.5" d="M0,-3.0v7 M-2.5,-0.5L0,-3.0L2.5,-0.5"/>
  </g>
  <g id="arrowLeft" transform="rotate(270) translate(-36 17)">
    <use xlink:href="#rim"/>
    <path pointer-events="none" fill="none" stroke="white" stroke-width="1.5" d="M0,-3.0v7 M-2.5,-0.5L0,-3.0L2.5,-0.5"/>
  </g>
  <g id="resetDef">
    <use xlink:href="#rim2" fill="#404040"><set attributeName="fill" to="#808080" begin="reset.mouseover" end="reset.mouseout"/></use>
  </g>
</defs>
<script type="application/ecmascript">
var viewWidth = 1822;
var viewHeight = 609;
var sectionId = 'dynsection-186';
</script>
<script type="application/ecmascript" xlink:href="svg.min.js"/>
<svg id="graph" class="graph">
<g id="viewport">
<title>set_obj_origin_pos</title>
<!-- Node1 -->
<g id="Node000001" class="node">
<title>Node1</title>
<g id="a_Node000001"><a xlink:title=" ">
<polygon fill="#999999" stroke="#666666" points="1814,-320 1707,-320 1707,-301 1814,-301 1814,-320"/>
<text text-anchor="middle" x="1760.5" y="-308" font-family="Helvetica,sans-Serif" font-size="10.00">set_obj_origin_pos</text>
</a>
</g>
</g>
<!-- Node2 -->
<g id="Node000002" class="node">
<title>Node2</title>
<g id="a_Node000002"><a xlink:href="classStarEmitter.html#aefc0e47ab167903bdd3826262a40104c" target="_top" xlink:title=" ">
<polygon fill="white" stroke="#666666" points="1638,-601 1537,-601 1537,-582 1638,-582 1638,-601"/>
<text text-anchor="middle" x="1587.5" y="-589" font-family="Helvetica,sans-Serif" font-size="10.00">StarEmitter::Emit</text>
</a>
</g>
</g>
<!-- Node1&#45;&gt;Node2 -->
<g id="edge1_Node000001_Node000002" class="edge">
<title>Node1&#45;&gt;Node2</title>
<g id="a_edge1_Node000001_Node000002"><a xlink:title=" ">
<path fill="none" stroke="#63b8ff" d="M1759.09,-330.43C1756.95,-379.68 1744.25,-507.88 1671,-573.5 1661.94,-581.62 1650.08,-586.37 1638.19,-589.07"/>
<polygon fill="#63b8ff" stroke="#63b8ff" points="1762.6,-330.29 1759.43,-320.18 1755.6,-330.06 1762.6,-330.29"/>
</a>
</g>
</g>
<!-- Node3 -->
<g id="Node000003" class="node">
<title>Node3</title>
<g id="a_Node000003"><a xlink:href="classOCheepCheep.html#a901571b114b82c2398d64c0068429b1e" target="_top" xlink:title=" ">
<polygon fill="white" stroke="#666666" points="1468,-258 1300,-258 1300,-239 1468,-239 1468,-258"/>
<text text-anchor="middle" x="1384" y="-246" font-family="Helvetica,sans-Serif" font-size="10.00">OCheepCheep::func_8007BD04</text>
</a>
</g>
</g>
<!-- Node1&#45;&gt;Node3 -->
<g id="edge2_Node000001_Node000003" class="edge">
<title>Node1&#45;&gt;Node3</title>
<g id="a_edge2_Node000001_Node000003"><a xlink:title=" ">
<path fill="none" stroke="#63b8ff" d="M1736.44,-295.43C1719.18,-285.01 1694.58,-271.9 1671,-265.5 1604.39,-247.43 1525.97,-243.96 1468.11,-244.56"/>
<polygon fill="#63b8ff" stroke="#63b8ff" points="1734.88,-298.59 1745.22,-300.89 1738.58,-292.64 1734.88,-298.59"/>
</a>
</g>
</g>
<!-- Node5 -->
<g id="Node000005" class="node">
<title>Node5</title>
<g id="a_Node000005"><a xlink:href="classOMole.html#ad90d6cdb0762edd84aad2145c713722a" target="_top" xlink:title=" ">
<polygon fill="white" stroke="#666666" points="1652.5,-527 1522.5,-527 1522.5,-508 1652.5,-508 1652.5,-527"/>
<text text-anchor="middle" x="1587.5" y="-515" font-family="Helvetica,sans-Serif" font-size="10.00">OMole::func_80081D34</text>
</a>
</g>
</g>
<!-- Node1&#45;&gt;Node5 -->
<g id="edge4_Node000001_Node000005" class="edge">
<title>Node1&#45;&gt;Node5</title>
<g id="a_edge4_Node000001_Node000005"><a xlink:title=" ">
<path fill="none" stroke="#63b8ff" d="M1756.2,-330.21C1748.61,-369.03 1726.15,-455.47 1671,-499.5 1665.62,-503.8 1659.43,-507.13 1652.91,-509.69"/>
<polygon fill="#63b8ff" stroke="#63b8ff" points="1759.67,-330.65 1758.03,-320.19 1752.79,-329.39 1759.67,-330.65"/>
</a>
</g>
</g>
<!-- Node7 -->
<g id="Node000007" class="node">
<title>Node7</title>
<g id="a_Node000007"><a xlink:href="classOSeagull.html#aecaeaea3ef1cd4205d9049803ea997e5" target="_top" xlink:title=" ">
<polygon fill="white" stroke="#666666" points="1658,-564 1517,-564 1517,-545 1658,-545 1658,-564"/>
<text text-anchor="middle" x="1587.5" y="-552" font-family="Helvetica,sans-Serif" font-size="10.00">OSeagull::func_8008241C</text>
</a>
</g>
</g>
<!-- Node1&#45;&gt;Node7 -->
<g id="edge6_Node000001_Node000007" class="edge">
<title>Node1&#45;&gt;Node7</title>
<g id="a_edge6_Node000001_Node000007"><a xlink:title=" ">
<path fill="none" stroke="#63b8ff" d="M1757.89,-330C1753.17,-374.05 1735.29,-481.66 1671,-536.5 1667.1,-539.83 1662.72,-542.59 1658.07,-544.86"/>
<polygon fill="#63b8ff" stroke="#63b8ff" points="1761.38,-330.31 1758.85,-320.02 1754.41,-329.64 1761.38,-330.31"/>
</a>
</g>
</g>
<!-- Node10 -->
<g id="Node000010" class="node">
<title>Node10</title>
<g id="a_Node000010"><a xlink:href="classOFlagpole.html#a914edf1b1129d4f3dfaab091b7e990b4" target="_top" xlink:title=" ">
<polygon fill="white" stroke="#666666" points="1661,-490 1514,-490 1514,-471 1661,-471 1661,-490"/>
<text text-anchor="middle" x="1587.5" y="-478" font-family="Helvetica,sans-Serif" font-size="10.00">OFlagpole::func_80082F1C</text>
</a>
</g>
</g>
<!-- Node1&#45;&gt;Node10 -->
<g id="edge9_Node000001_Node000010" class="edge">
<title>Node1&#45;&gt;Node10</title>
<g id="a_edge9_Node000001_Node000010"><a xlink:title=" ">
<path fill="none" stroke="#63b8ff" d="M1753.87,-329.94C1743.32,-362.74 1717.36,-428.76 1671,-462.5 1666.38,-465.86 1661.25,-468.62 1655.88,-470.88"/>
<polygon fill="#63b8ff" stroke="#63b8ff" points="1757.28,-330.78 1756.86,-320.19 1750.58,-328.72 1757.28,-330.78"/>
</a>
</g>
</g>
<!-- Node13 -->
<g id="Node000013" class="node">
<title>Node13</title>
<g id="a_Node000013"><a xlink:href="classOChainChomp.html#ac535182ef308394affe02648ef375052" target="_top" xlink:title=" ">
<polygon fill="white" stroke="#666666" points="1671,-453 1504,-453 1504,-434 1671,-434 1671,-453"/>
<text text-anchor="middle" x="1587.5" y="-441" font-family="Helvetica,sans-Serif" font-size="10.00">OChainChomp::func_80085878</text>
</a>
</g>
</g>
<!-- Node1&#45;&gt;Node13 -->
<g id="edge12_Node000001_Node000013" class="edge">
<title>Node1&#45;&gt;Node13</title>
<g id="a_edge12_Node000001_Node000013"><a xlink:title=" ">
<path fill="none" stroke="#63b8ff" d="M1750.48,-329.19C1736.97,-355.1 1708.95,-401.45 1671,-425.5 1665.68,-428.87 1659.81,-431.62 1653.74,-433.86"/>
<polygon fill="#63b8ff" stroke="#63b8ff" points="1753.71,-330.56 1755.09,-320.06 1747.46,-327.41 1753.71,-330.56"/>
</a>
</g>
</g>
<!-- Node16 -->
<g id="Node000016" class="node">
<title>Node16</title>
<g id="a_Node000016"><a xlink:href="update__objects_8c.html#aad7449c3468a6e25931243fd9d0fc3ae" target="_top" xlink:title=" ">
<polygon fill="white" stroke="#666666" points="1634,-416 1541,-416 1541,-397 1634,-397 1634,-416"/>
<text text-anchor="middle" x="1587.5" y="-404" font-family="Helvetica,sans-Serif" font-size="10.00">func_80085DB8</text>
</a>
</g>
</g>
<!-- Node1&#45;&gt;Node16 -->
<g id="edge15_Node000001_Node000016" class="edge">
<title>Node1&#45;&gt;Node16</title>
<g id="a_edge15_Node000001_Node000016"><a xlink:title=" ">
<path fill="none" stroke="#63b8ff" d="M1744.57,-328.12C1728.32,-346.12 1700.68,-373.48 1671,-388.5 1659.62,-394.26 1646.45,-398.18 1634.01,-400.85"/>
<polygon fill="#63b8ff" stroke="#63b8ff" points="1747.61,-329.96 1751.58,-320.14 1742.35,-325.34 1747.61,-329.96"/>
</a>
</g>
</g>
<!-- Node21 -->
<g id="Node000021" class="node">
<title>Node21</title>
<g id="a_Node000021"><a xlink:href="update__objects_8c.html#abef9e21ca75285520cc71d37b6ef71b5" target="_top" xlink:title=" ">
<polygon fill="white" stroke="#666666" points="1633,-379 1542,-379 1542,-360 1633,-360 1633,-379"/>
<text text-anchor="middle" x="1587.5" y="-367" font-family="Helvetica,sans-Serif" font-size="10.00">func_80085EF8</text>
</a>
</g>
</g>
<!-- Node1&#45;&gt;Node21 -->
<g id="edge20_Node000001_Node000021" class="edge">
<title>Node1&#45;&gt;Node21</title>
<g id="a_edge20_Node000001_Node000021"><a xlink:title=" ">
<path fill="none" stroke="#63b8ff" d="M1733.07,-324.6C1715.8,-333.35 1692.53,-344.26 1671,-351.5 1658.91,-355.56 1645.51,-358.95 1633.09,-361.64"/>
<polygon fill="#63b8ff" stroke="#63b8ff" points="1734.72,-327.69 1742,-320 1731.51,-321.47 1734.72,-327.69"/>
</a>
</g>
</g>
<!-- Node23 -->
<g id="Node000023" class="node">
<title>Node23</title>
<g id="a_Node000023"><a xlink:href="classOPodium.html#a1d56d4eb19c586e032d8cb1deab7ba9f" target="_top" xlink:title=" ">
<polygon fill="white" stroke="#666666" points="1658.5,-218 1516.5,-218 1516.5,-199 1658.5,-199 1658.5,-218"/>
<text text-anchor="middle" x="1587.5" y="-206" font-family="Helvetica,sans-Serif" font-size="10.00">OPodium::func_8008629C</text>
</a>
</g>
</g>
<!-- Node1&#45;&gt;Node23 -->
<g id="edge23_Node000001_Node000023" class="edge">
<title>Node1&#45;&gt;Node23</title>
<g id="a_edge23_Node000001_Node000023"><a xlink:title=" ">
<path fill="none" stroke="#63b8ff" d="M1744.09,-293C1727.64,-275.33 1699.99,-248.44 1671,-232.5 1659.76,-226.32 1646.76,-221.58 1634.45,-218.02"/>
<polygon fill="#63b8ff" stroke="#63b8ff" points="1741.91,-295.8 1751.23,-300.84 1747.09,-291.09 1741.91,-295.8"/>
</a>
</g>
</g>
<!-- Node26 -->
<g id="Node000026" class="node">
<title>Node26</title>
<g id="a_Node000026"><a xlink:href="classOTrophy.html#ad4d2abf5f8cc69c87c0c680119c7670d" target="_top" xlink:title=" ">
<polygon fill="white" stroke="#666666" points="1655.5,-142 1519.5,-142 1519.5,-123 1655.5,-123 1655.5,-142"/>
<text text-anchor="middle" x="1587.5" y="-130" font-family="Helvetica,sans-Serif" font-size="10.00">OTrophy::func_80086700</text>
</a>
</g>
</g>
<!-- Node1&#45;&gt;Node26 -->
<g id="edge26_Node000001_Node000026" class="edge">
<title>Node1&#45;&gt;Node26</title>
<g id="a_edge26_Node000001_Node000026"><a xlink:title=" ">
<path fill="none" stroke="#63b8ff" d="M1753.69,-291.14C1742.88,-258.43 1716.52,-192.28 1671,-156.5 1662.91,-150.14 1653.18,-145.46 1643.3,-142.03"/>
<polygon fill="#63b8ff" stroke="#63b8ff" points="1750.42,-292.38 1756.77,-300.86 1757.09,-290.27 1750.42,-292.38"/>
</a>
</g>
</g>
<!-- Node28 -->
<g id="Node000028" class="node">
<title>Node28</title>
<g id="a_Node000028"><a xlink:href="classOTrophy.html#a907d7e4c1695e4764fc2e299a10cc782" target="_top" xlink:title=" ">
<polygon fill="white" stroke="#666666" points="1223,-161 1141,-161 1141,-142 1223,-142 1223,-161"/>
<text text-anchor="middle" x="1182" y="-149" font-family="Helvetica,sans-Serif" font-size="10.00">OTrophy::Tick</text>
</a>
</g>
</g>
<!-- Node1&#45;&gt;Node28 -->
<g id="edge54_Node000001_Node000028" class="edge">
<title>Node1&#45;&gt;Node28</title>
<g id="a_edge54_Node000001_Node000028"><a xlink:title=" ">
<path fill="none" stroke="#63b8ff" d="M1751.68,-291.45C1739.2,-263.77 1711.92,-213.26 1671,-190.5 1632.28,-168.97 1332.93,-156.64 1223.17,-152.81"/>
<polygon fill="#63b8ff" stroke="#63b8ff" points="1748.56,-293.04 1755.74,-300.83 1754.99,-290.27 1748.56,-293.04"/>
</a>
</g>
</g>
<!-- Node29 -->
<g id="Node000029" class="node">
<title>Node29</title>
<g id="a_Node000029"><a xlink:href="classOHotAirBalloon.html#a401de1da0d55d973c05514589e2b5298" target="_top" xlink:title=" ">
<polygon fill="white" stroke="#666666" points="1644,-104.5 1531,-104.5 1531,-74.5 1644,-74.5 1644,-104.5"/>
<text text-anchor="start" x="1539" y="-92.5" font-family="Helvetica,sans-Serif" font-size="10.00">OHotAirBalloon::init</text>
<text text-anchor="middle" x="1587.5" y="-81.5" font-family="Helvetica,sans-Serif" font-size="10.00">_hot_air_balloon</text>
</a>
</g>
</g>
<!-- Node1&#45;&gt;Node29 -->
<g id="edge29_Node000001_Node000029" class="edge">
<title>Node1&#45;&gt;Node29</title>
<g id="a_edge29_Node000001_Node000029"><a xlink:title=" ">
<path fill="none" stroke="#63b8ff" d="M1756.16,-290.72C1748.47,-251.29 1725.77,-162.58 1671,-114.5 1663.35,-107.79 1653.95,-102.87 1644.26,-99.28"/>
<polygon fill="#63b8ff" stroke="#63b8ff" points="1752.74,-291.45 1757.98,-300.66 1759.62,-290.19 1752.74,-291.45"/>
</a>
</g>
</g>
<!-- Node32 -->
<g id="Node000032" class="node">
<title>Node32</title>
<g id="a_Node000032"><a xlink:href="update__objects_8c.html#a86976d4b79853c37ad7d3b5f0513a9b8" target="_top" xlink:title=" ">
<polygon fill="white" stroke="#666666" points="1657.5,-342 1517.5,-342 1517.5,-323 1657.5,-323 1657.5,-342"/>
<text text-anchor="middle" x="1587.5" y="-330" font-family="Helvetica,sans-Serif" font-size="10.00">init_obj_neon_mushroom</text>
</a>
</g>
</g>
<!-- Node1&#45;&gt;Node32 -->
<g id="edge32_Node000001_Node000032" class="edge">
<title>Node1&#45;&gt;Node32</title>
<g id="a_edge32_Node000001_Node000032"><a xlink:title=" ">
<path fill="none" stroke="#63b8ff" d="M1696.78,-318.57C1684.07,-320.2 1670.64,-321.93 1657.72,-323.59"/>
<polygon fill="#63b8ff" stroke="#63b8ff" points="1697.33,-322.03 1706.8,-317.28 1696.43,-315.08 1697.33,-322.03"/>
</a>
</g>
</g>
<!-- Node34 -->
<g id="Node000034" class="node">
<title>Node34</title>
<g id="a_Node000034"><a xlink:href="update__objects_8c.html#a4a4a2a335155eaf7733d37c0f80fa728" target="_top" xlink:title=" ">
<polygon fill="white" stroke="#666666" points="1661,-56 1514,-56 1514,-37 1661,-37 1661,-56"/>
<text text-anchor="middle" x="1587.5" y="-44" font-family="Helvetica,sans-Serif" font-size="10.00">init_object_smoke_particle</text>
</a>
</g>
</g>
<!-- Node1&#45;&gt;Node34 -->
<g id="edge35_Node000001_Node000034" class="edge">
<title>Node1&#45;&gt;Node34</title>
<g id="a_edge35_Node000001_Node000034"><a xlink:title=" ">
<path fill="none" stroke="#63b8ff" d="M1758.49,-290.73C1755,-244.02 1739.48,-126.2 1671,-65.5 1666.71,-61.7 1661.81,-58.61 1656.59,-56.12"/>
<polygon fill="#63b8ff" stroke="#63b8ff" points="1755.02,-291.24 1759.15,-300.99 1762,-290.79 1755.02,-291.24"/>
</a>
</g>
</g>
<!-- Node80 -->
<g id="Node000080" class="node">
<title>Node80</title>
<g id="a_Node000080"><a xlink:href="classOCheepCheep.html#a9fdd76ecbfed224b0e219595786cca60" target="_top" xlink:title=" ">
<polygon fill="white" stroke="#666666" points="1651.5,-304.5 1523.5,-304.5 1523.5,-274.5 1651.5,-274.5 1651.5,-304.5"/>
<text text-anchor="start" x="1531.5" y="-292.5" font-family="Helvetica,sans-Serif" font-size="10.00">OCheepCheep::init_var</text>
<text text-anchor="middle" x="1587.5" y="-281.5" font-family="Helvetica,sans-Serif" font-size="10.00">_cheep_cheep</text>
</a>
</g>
</g>
<!-- Node1&#45;&gt;Node80 -->
<g id="edge48_Node000001_Node000080" class="edge">
<title>Node1&#45;&gt;Node80</title>
<g id="a_edge48_Node000001_Node000080"><a xlink:title=" ">
<path fill="none" stroke="#63b8ff" d="M1696.77,-302.8C1682.02,-300.99 1666.31,-299.06 1651.55,-297.24"/>
<polygon fill="#63b8ff" stroke="#63b8ff" points="1696.45,-306.28 1706.8,-304.03 1697.3,-299.34 1696.45,-306.28"/>
</a>
</g>
</g>
<!-- Node82 -->
<g id="Node000082" class="node">
<title>Node82</title>
<g id="a_Node000082"><a xlink:href="classOSeagull.html#a39fdc9ecc362a16afa1572ca21f001f0" target="_top" xlink:title=" ">
<polygon fill="white" stroke="#666666" points="1642.5,-19 1532.5,-19 1532.5,0 1642.5,0 1642.5,-19"/>
<text text-anchor="middle" x="1587.5" y="-7" font-family="Helvetica,sans-Serif" font-size="10.00">OSeagull::OSeagull</text>
</a>
</g>
</g>
<!-- Node1&#45;&gt;Node82 -->
<g id="edge51_Node000001_Node000082" class="edge">
<title>Node1&#45;&gt;Node82</title>
<g id="a_edge51_Node000001_Node000082"><a xlink:title=" ">
<path fill="none" stroke="#63b8ff" d="M1759.65,-290.82C1758.9,-239.25 1749.37,-99.24 1671,-27.5 1663.11,-20.27 1653.01,-15.71 1642.6,-12.87"/>
<polygon fill="#63b8ff" stroke="#63b8ff" points="1756.15,-290.95 1759.69,-300.93 1763.15,-290.92 1756.15,-290.95"/>
</a>
</g>
</g>
<!-- Node4 -->
<g id="Node000004" class="node">
<title>Node4</title>
<g id="a_Node000004"><a xlink:href="classOCheepCheep.html#a688ceaefa53beddd7affd711a416f27e" target="_top" xlink:title=" ">
<polygon fill="white" stroke="#666666" points="1238,-278 1126,-278 1126,-259 1238,-259 1238,-278"/>
<text text-anchor="middle" x="1182" y="-266" font-family="Helvetica,sans-Serif" font-size="10.00">OCheepCheep::Tick</text>
</a>
</g>
</g>
<!-- Node3&#45;&gt;Node4 -->
<g id="edge3_Node000003_Node000004" class="edge">
<title>Node3&#45;&gt;Node4</title>
<g id="a_edge3_Node000003_Node000004"><a xlink:title=" ">
<path fill="none" stroke="#63b8ff" d="M1289.61,-257.84C1272.01,-259.6 1254.14,-261.39 1238.19,-262.98"/>
<polygon fill="#63b8ff" stroke="#63b8ff" points="1290.32,-261.29 1299.92,-256.81 1289.62,-254.32 1290.32,-261.29"/>
</a>
</g>
</g>
<!-- Node6 -->
<g id="Node000006" class="node">
<title>Node6</title>
<g id="a_Node000006"><a xlink:href="classOMole.html#a7a10ff3da864cbf52234a43630edec3b" target="_top" xlink:title=" ">
<polygon fill="white" stroke="#666666" points="1449,-527 1319,-527 1319,-508 1449,-508 1449,-527"/>
<text text-anchor="middle" x="1384" y="-515" font-family="Helvetica,sans-Serif" font-size="10.00">OMole::func_800821AC</text>
</a>
</g>
</g>
<!-- Node5&#45;&gt;Node6 -->
<g id="edge5_Node000005_Node000006" class="edge">
<title>Node5&#45;&gt;Node6</title>
<g id="a_edge5_Node000005_Node000006"><a xlink:title=" ">
<path fill="none" stroke="#63b8ff" d="M1512.43,-517.5C1491.69,-517.5 1469.33,-517.5 1449.21,-517.5"/>
<polygon fill="#63b8ff" stroke="#63b8ff" points="1512.47,-521 1522.47,-517.5 1512.47,-514 1512.47,-521"/>
</a>
</g>
</g>
<!-- Node8 -->
<g id="Node000008" class="node">
<title>Node8</title>
<g id="a_Node000008"><a xlink:href="classOSeagull.html#afbe00548c91b2db5834e88901cf7a385" target="_top" xlink:title=" ">
<polygon fill="white" stroke="#666666" points="1454,-564 1314,-564 1314,-545 1454,-545 1454,-564"/>
<text text-anchor="middle" x="1384" y="-552" font-family="Helvetica,sans-Serif" font-size="10.00">OSeagull::func_80082714</text>
</a>
</g>
</g>
<!-- Node7&#45;&gt;Node8 -->
<g id="edge7_Node000007_Node000008" class="edge">
<title>Node7&#45;&gt;Node8</title>
<g id="a_edge7_Node000007_Node000008"><a xlink:title=" ">
<path fill="none" stroke="#63b8ff" d="M1506.77,-554.5C1489.42,-554.5 1471.2,-554.5 1454.29,-554.5"/>
<polygon fill="#63b8ff" stroke="#63b8ff" points="1506.87,-558 1516.87,-554.5 1506.87,-551 1506.87,-558"/>
</a>
</g>
</g>
<!-- Node9 -->
<g id="Node000009" class="node">
<title>Node9</title>
<g id="a_Node000009"><a xlink:href="classOSeagull.html#a86b5da4447db382837540ab7dc34c95a" target="_top" xlink:title=" ">
<polygon fill="white" stroke="#666666" points="1225,-564 1139,-564 1139,-545 1225,-545 1225,-564"/>
<text text-anchor="middle" x="1182" y="-552" font-family="Helvetica,sans-Serif" font-size="10.00">OSeagull::Tick</text>
</a>
</g>
</g>
<!-- Node8&#45;&gt;Node9 -->
<g id="edge8_Node000008_Node000009" class="edge">
<title>Node8&#45;&gt;Node9</title>
<g id="a_edge8_Node000008_Node000009"><a xlink:title=" ">
<path fill="none" stroke="#63b8ff" d="M1303.74,-554.5C1276.95,-554.5 1248.07,-554.5 1225.28,-554.5"/>
<polygon fill="#63b8ff" stroke="#63b8ff" points="1303.89,-558 1313.89,-554.5 1303.89,-551 1303.89,-558"/>
</a>
</g>
</g>
<!-- Node11 -->
<g id="Node000011" class="node">
<title>Node11</title>
<g id="a_Node000011"><a xlink:href="classOFlagpole.html#a2faed84e145f0f5e218b571349fb4fd5" target="_top" xlink:title=" ">
<polygon fill="white" stroke="#666666" points="1457,-490 1311,-490 1311,-471 1457,-471 1457,-490"/>
<text text-anchor="middle" x="1384" y="-478" font-family="Helvetica,sans-Serif" font-size="10.00">OFlagpole::func_80083018</text>
</a>
</g>
</g>
<!-- Node10&#45;&gt;Node11 -->
<g id="edge10_Node000010_Node000011" class="edge">
<title>Node10&#45;&gt;Node11</title>
<g id="a_edge10_Node000010_Node000011"><a xlink:title=" ">
<path fill="none" stroke="#63b8ff" d="M1503.73,-480.5C1488.33,-480.5 1472.36,-480.5 1457.3,-480.5"/>
<polygon fill="#63b8ff" stroke="#63b8ff" points="1503.75,-484 1513.75,-480.5 1503.75,-477 1503.75,-484"/>
</a>
</g>
</g>
<!-- Node12 -->
<g id="Node000012" class="node">
<title>Node12</title>
<g id="a_Node000012"><a xlink:href="classOFlagpole.html#aa2850033a4564ff68e9cd65ed130186c" target="_top" xlink:title=" ">
<polygon fill="white" stroke="#666666" points="1228,-490 1136,-490 1136,-471 1228,-471 1228,-490"/>
<text text-anchor="middle" x="1182" y="-478" font-family="Helvetica,sans-Serif" font-size="10.00">OFlagpole::Tick</text>
</a>
</g>
</g>
<!-- Node11&#45;&gt;Node12 -->
<g id="edge11_Node000011_Node000012" class="edge">
<title>Node11&#45;&gt;Node12</title>
<g id="a_edge11_Node000011_Node000012"><a xlink:title=" ">
<path fill="none" stroke="#63b8ff" d="M1300.64,-480.5C1275.81,-480.5 1249.49,-480.5 1228.06,-480.5"/>
<polygon fill="#63b8ff" stroke="#63b8ff" points="1300.8,-484 1310.8,-480.5 1300.8,-477 1300.8,-484"/>
</a>
</g>
</g>
<!-- Node14 -->
<g id="Node000014" class="node">
<title>Node14</title>
<g id="a_Node000014"><a xlink:href="classOChainChomp.html#a1f0eaa818fb52af253efe5a5e13a1f61" target="_top" xlink:title=" ">
<polygon fill="white" stroke="#666666" points="1467.5,-453 1300.5,-453 1300.5,-434 1467.5,-434 1467.5,-453"/>
<text text-anchor="middle" x="1384" y="-441" font-family="Helvetica,sans-Serif" font-size="10.00">OChainChomp::func_800859C8</text>
</a>
</g>
</g>
<!-- Node13&#45;&gt;Node14 -->
<g id="edge13_Node000013_Node000014" class="edge">
<title>Node13&#45;&gt;Node14</title>
<g id="a_edge13_Node000013_Node000014"><a xlink:title=" ">
<path fill="none" stroke="#63b8ff" d="M1493.81,-443.5C1485.11,-443.5 1476.33,-443.5 1467.74,-443.5"/>
<polygon fill="#63b8ff" stroke="#63b8ff" points="1493.96,-447 1503.96,-443.5 1493.96,-440 1493.96,-447"/>
</a>
</g>
</g>
<!-- Node15 -->
<g id="Node000015" class="node">
<title>Node15</title>
<g id="a_Node000015"><a xlink:href="classOChainChomp.html#afdcecc46c8c4ff9245a00ace65733d3e" target="_top" xlink:title=" ">
<polygon fill="white" stroke="#666666" points="1238.5,-453 1125.5,-453 1125.5,-434 1238.5,-434 1238.5,-453"/>
<text text-anchor="middle" x="1182" y="-441" font-family="Helvetica,sans-Serif" font-size="10.00">OChainChomp::Tick</text>
</a>
</g>
</g>
<!-- Node14&#45;&gt;Node15 -->
<g id="edge14_Node000014_Node000015" class="edge">
<title>Node14&#45;&gt;Node15</title>
<g id="a_edge14_Node000014_Node000015"><a xlink:title=" ">
<path fill="none" stroke="#63b8ff" d="M1290.16,-443.5C1272.5,-443.5 1254.55,-443.5 1238.52,-443.5"/>
<polygon fill="#63b8ff" stroke="#63b8ff" points="1290.5,-447 1300.5,-443.5 1290.5,-440 1290.5,-447"/>
</a>
</g>
</g>
<!-- Node17 -->
<g id="Node000017" class="node">
<title>Node17</title>
<g id="a_Node000017"><a xlink:href="update__objects_8c.html#aaf345d74477b4556bd7cb590179d7e72" target="_top" xlink:title=" ">
<polygon fill="white" stroke="#666666" points="1429.5,-416 1338.5,-416 1338.5,-397 1429.5,-397 1429.5,-416"/>
<text text-anchor="middle" x="1384" y="-404" font-family="Helvetica,sans-Serif" font-size="10.00">func_80085E38</text>
</a>
</g>
</g>
<!-- Node16&#45;&gt;Node17 -->
<g id="edge16_Node000016_Node000017" class="edge">
<title>Node16&#45;&gt;Node17</title>
<g id="a_edge16_Node000016_Node000017"><a xlink:title=" ">
<path fill="none" stroke="#63b8ff" d="M1530.7,-406.5C1498.79,-406.5 1459.31,-406.5 1429.5,-406.5"/>
<polygon fill="#63b8ff" stroke="#63b8ff" points="1530.78,-410 1540.78,-406.5 1530.78,-403 1530.78,-410"/>
</a>
</g>
</g>
<!-- Node18 -->
<g id="Node000018" class="node">
<title>Node18</title>
<g id="a_Node000018"><a xlink:href="update__objects_8c.html#a84c4faf0caa931fc708016d3c6ee6176" target="_top" xlink:title=" ">
<polygon fill="white" stroke="#666666" points="1239.5,-379 1124.5,-379 1124.5,-360 1239.5,-360 1239.5,-379"/>
<text text-anchor="middle" x="1182" y="-367" font-family="Helvetica,sans-Serif" font-size="10.00">update_object_neon</text>
</a>
</g>
</g>
<!-- Node17&#45;&gt;Node18 -->
<g id="edge17_Node000017_Node000018" class="edge">
<title>Node17&#45;&gt;Node18</title>
<g id="a_edge17_Node000017_Node000018"><a xlink:title=" ">
<path fill="none" stroke="#63b8ff" d="M1328.07,-396.34C1298.84,-390.93 1263.12,-384.32 1234.44,-379.02"/>
<polygon fill="#63b8ff" stroke="#63b8ff" points="1327.65,-399.82 1338.12,-398.2 1328.92,-392.94 1327.65,-399.82"/>
</a>
</g>
</g>
<!-- Node19 -->
<g id="Node000019" class="node">
<title>Node19</title>
<g id="a_Node000019"><a xlink:href="update__objects_8c.html#a5a771dbf7fbb25d378ab59b7610200db" target="_top" xlink:title=" ">
<polygon fill="white" stroke="#666666" points="1056,-379 976,-379 976,-360 1056,-360 1056,-379"/>
<text text-anchor="middle" x="1016" y="-367" font-family="Helvetica,sans-Serif" font-size="10.00">update_neon</text>
</a>
</g>
</g>
<!-- Node18&#45;&gt;Node19 -->
<g id="edge18_Node000018_Node000019" class="edge">
<title>Node18&#45;&gt;Node19</title>
<g id="a_edge18_Node000018_Node000019"><a xlink:title=" ">
<path fill="none" stroke="#63b8ff" d="M1113.93,-369.5C1094.23,-369.5 1073.33,-369.5 1056.01,-369.5"/>
<polygon fill="#63b8ff" stroke="#63b8ff" points="1114.1,-373 1124.1,-369.5 1114.1,-366 1114.1,-373"/>
</a>
</g>
</g>
<!-- Node20 -->
<g id="Node000020" class="node">
<title>Node20</title>
<g id="a_Node000020"><a xlink:href="classRainbowRoad.html#a809aba848984ae497661c6c46289f658" target="_top" xlink:title=" ">
<polygon fill="white" stroke="#666666" points="932,-384.5 774,-384.5 774,-354.5 932,-354.5 932,-384.5"/>
<text text-anchor="start" x="782" y="-372.5" font-family="Helvetica,sans-Serif" font-size="10.00">RainbowRoad::UpdateCourse</text>
<text text-anchor="middle" x="853" y="-361.5" font-family="Helvetica,sans-Serif" font-size="10.00">Objects</text>
</a>
</g>
</g>
<!-- Node19&#45;&gt;Node20 -->
<g id="edge19_Node000019_Node000020" class="edge">
<title>Node19&#45;&gt;Node20</title>
<g id="a_edge19_Node000019_Node000020"><a xlink:title=" ">
<path fill="none" stroke="#63b8ff" d="M965.35,-369.5C954.78,-369.5 943.37,-369.5 932.03,-369.5"/>
<polygon fill="#63b8ff" stroke="#63b8ff" points="965.62,-373 975.61,-369.5 965.61,-366 965.62,-373"/>
</a>
</g>
</g>
<!-- Node22 -->
<g id="Node000022" class="node">
<title>Node22</title>
<g id="a_Node000022"><a xlink:href="update__objects_8c.html#a611ea98550b46aa887eb34b7472ef871" target="_top" xlink:title=" ">
<polygon fill="white" stroke="#666666" points="1429.5,-379 1338.5,-379 1338.5,-360 1429.5,-360 1429.5,-379"/>
<text text-anchor="middle" x="1384" y="-367" font-family="Helvetica,sans-Serif" font-size="10.00">func_80085F74</text>
</a>
</g>
</g>
<!-- Node21&#45;&gt;Node22 -->
<g id="edge21_Node000021_Node000022" class="edge">
<title>Node21&#45;&gt;Node22</title>
<g id="a_edge21_Node000021_Node000022"><a xlink:title=" ">
<path fill="none" stroke="#63b8ff" d="M1531.68,-369.5C1499.63,-369.5 1459.7,-369.5 1429.59,-369.5"/>
<polygon fill="#63b8ff" stroke="#63b8ff" points="1531.78,-373 1541.78,-369.5 1531.78,-366 1531.78,-373"/>
</a>
</g>
</g>
<!-- Node22&#45;&gt;Node18 -->
<g id="edge22_Node000022_Node000018" class="edge">
<title>Node22&#45;&gt;Node18</title>
<g id="a_edge22_Node000022_Node000018"><a xlink:title=" ">
<path fill="none" stroke="#63b8ff" d="M1327.89,-369.5C1300.41,-369.5 1267.23,-369.5 1239.55,-369.5"/>
<polygon fill="#63b8ff" stroke="#63b8ff" points="1328.12,-373 1338.12,-369.5 1328.12,-366 1328.12,-373"/>
</a>
</g>
</g>
<!-- Node24 -->
<g id="Node000024" class="node">
<title>Node24</title>
<g id="a_Node000024"><a xlink:href="classOPodium.html#aba295bf7c79d4035d8c9bf9849639571" target="_top" xlink:title=" ">
<polygon fill="white" stroke="#666666" points="1454.5,-218 1313.5,-218 1313.5,-199 1454.5,-199 1454.5,-218"/>
<text text-anchor="middle" x="1384" y="-206" font-family="Helvetica,sans-Serif" font-size="10.00">OPodium::func_80086528</text>
</a>
</g>
</g>
<!-- Node23&#45;&gt;Node24 -->
<g id="edge24_Node000023_Node000024" class="edge">
<title>Node23&#45;&gt;Node24</title>
<g id="a_edge24_Node000023_Node000024"><a xlink:title=" ">
<path fill="none" stroke="#63b8ff" d="M1505.86,-208.5C1488.89,-208.5 1471.13,-208.5 1454.6,-208.5"/>
<polygon fill="#63b8ff" stroke="#63b8ff" points="1506.31,-212 1516.31,-208.5 1506.31,-205 1506.31,-212"/>
</a>
</g>
</g>
<!-- Node25 -->
<g id="Node000025" class="node">
<title>Node25</title>
<g id="a_Node000025"><a xlink:href="classOPodium.html#ae915f9876c29c308285ad3ed3202ec93" target="_top" xlink:title=" ">
<polygon fill="white" stroke="#666666" points="1225.5,-218 1138.5,-218 1138.5,-199 1225.5,-199 1225.5,-218"/>
<text text-anchor="middle" x="1182" y="-206" font-family="Helvetica,sans-Serif" font-size="10.00">OPodium::Tick</text>
</a>
</g>
</g>
<!-- Node24&#45;&gt;Node25 -->
<g id="edge25_Node000024_Node000025" class="edge">
<title>Node24&#45;&gt;Node25</title>
<g id="a_edge25_Node000024_Node000025"><a xlink:title=" ">
<path fill="none" stroke="#63b8ff" d="M1303.28,-208.5C1276.75,-208.5 1248.24,-208.5 1225.63,-208.5"/>
<polygon fill="#63b8ff" stroke="#63b8ff" points="1303.33,-212 1313.33,-208.5 1303.33,-205 1303.33,-212"/>
</a>
</g>
</g>
<!-- Node27 -->
<g id="Node000027" class="node">
<title>Node27</title>
<g id="a_Node000027"><a xlink:href="classOTrophy.html#afc43ecd25495ec077da26a2f0d5fcdbf" target="_top" xlink:title=" ">
<polygon fill="white" stroke="#666666" points="1452.5,-142 1315.5,-142 1315.5,-123 1452.5,-123 1452.5,-142"/>
<text text-anchor="middle" x="1384" y="-130" font-family="Helvetica,sans-Serif" font-size="10.00">OTrophy::func_80086C14</text>
</a>
</g>
</g>
<!-- Node26&#45;&gt;Node27 -->
<g id="edge27_Node000026_Node000027" class="edge">
<title>Node26&#45;&gt;Node27</title>
<g id="a_edge27_Node000026_Node000027"><a xlink:title=" ">
<path fill="none" stroke="#63b8ff" d="M1509.22,-132.5C1490.64,-132.5 1470.94,-132.5 1452.83,-132.5"/>
<polygon fill="#63b8ff" stroke="#63b8ff" points="1509.4,-136 1519.4,-132.5 1509.4,-129 1509.4,-136"/>
</a>
</g>
</g>
<!-- Node27&#45;&gt;Node28 -->
<g id="edge28_Node000027_Node000028" class="edge">
<title>Node27&#45;&gt;Node28</title>
<g id="a_edge28_Node000027_Node000028"><a xlink:title=" ">
<path fill="none" stroke="#63b8ff" d="M1305.1,-139.9C1277.12,-142.56 1246.69,-145.45 1223.22,-147.68"/>
<polygon fill="#63b8ff" stroke="#63b8ff" points="1305.66,-143.36 1315.29,-138.93 1305,-136.39 1305.66,-143.36"/>
</a>
</g>
</g>
<!-- Node30 -->
<g id="Node000030" class="node">
<title>Node30</title>
<g id="a_Node000030"><a xlink:href="classOHotAirBalloon.html#a40bc8d453d3d79b9a7accdc5b4e1420d" target="_top" xlink:title=" ">
<polygon fill="white" stroke="#666666" points="1443.5,-104.5 1324.5,-104.5 1324.5,-74.5 1443.5,-74.5 1443.5,-104.5"/>
<text text-anchor="start" x="1332.5" y="-92.5" font-family="Helvetica,sans-Serif" font-size="10.00">OHotAirBalloon::func</text>
<text text-anchor="middle" x="1384" y="-81.5" font-family="Helvetica,sans-Serif" font-size="10.00">_80085768</text>
</a>
</g>
</g>
<!-- Node29&#45;&gt;Node30 -->
<g id="edge30_Node000029_Node000030" class="edge">
<title>Node29&#45;&gt;Node30</title>
<g id="a_edge30_Node000029_Node000030"><a xlink:title=" ">
<path fill="none" stroke="#63b8ff" d="M1520.82,-89.5C1495.93,-89.5 1467.77,-89.5 1443.58,-89.5"/>
<polygon fill="#63b8ff" stroke="#63b8ff" points="1520.91,-93 1530.91,-89.5 1520.91,-86 1520.91,-93"/>
</a>
</g>
</g>
<!-- Node31 -->
<g id="Node000031" class="node">
<title>Node31</title>
<g id="a_Node000031"><a xlink:href="classOHotAirBalloon.html#a59cdcf707eed92e7a9f72626d093fc23" target="_top" xlink:title=" ">
<polygon fill="white" stroke="#666666" points="1241,-99 1123,-99 1123,-80 1241,-80 1241,-99"/>
<text text-anchor="middle" x="1182" y="-87" font-family="Helvetica,sans-Serif" font-size="10.00">OHotAirBalloon::Tick</text>
</a>
</g>
</g>
<!-- Node30&#45;&gt;Node31 -->
<g id="edge31_Node000030_Node000031" class="edge">
<title>Node30&#45;&gt;Node31</title>
<g id="a_edge31_Node000030_Node000031"><a xlink:title=" ">
<path fill="none" stroke="#63b8ff" d="M1314.34,-89.5C1290.57,-89.5 1264.17,-89.5 1241.31,-89.5"/>
<polygon fill="#63b8ff" stroke="#63b8ff" points="1314.34,-93 1324.34,-89.5 1314.34,-86 1314.34,-93"/>
</a>
</g>
</g>
<!-- Node33 -->
<g id="Node000033" class="node">
<title>Node33</title>
<g id="a_Node000033"><a xlink:href="update__objects_8c.html#a38bcb1c1e3fb81ad72c3e87254e35a0c" target="_top" xlink:title=" ">
<polygon fill="white" stroke="#666666" points="1430,-342 1338,-342 1338,-323 1430,-323 1430,-342"/>
<text text-anchor="middle" x="1384" y="-330" font-family="Helvetica,sans-Serif" font-size="10.00">func_80085CA0</text>
</a>
</g>
</g>
<!-- Node32&#45;&gt;Node33 -->
<g id="edge33_Node000032_Node000033" class="edge">
<title>Node32&#45;&gt;Node33</title>
<g id="a_edge33_Node000032_Node000033"><a xlink:title=" ">
<path fill="none" stroke="#63b8ff" d="M1507.16,-332.5C1481.05,-332.5 1452.93,-332.5 1430.26,-332.5"/>
<polygon fill="#63b8ff" stroke="#63b8ff" points="1507.44,-336 1517.44,-332.5 1507.44,-329 1507.44,-336"/>
</a>
</g>
</g>
<!-- Node33&#45;&gt;Node18 -->
<g id="edge34_Node000033_Node000018" class="edge">
<title>Node33&#45;&gt;Node18</title>
<g id="a_edge34_Node000033_Node000018"><a xlink:title=" ">
<path fill="none" stroke="#63b8ff" d="M1327.61,-342.75C1298.51,-348.13 1263.06,-354.69 1234.55,-359.96"/>
<polygon fill="#63b8ff" stroke="#63b8ff" points="1328.42,-346.16 1337.62,-340.9 1327.15,-339.27 1328.42,-346.16"/>
</a>
</g>
</g>
<!-- Node35 -->
<g id="Node000035" class="node">
<title>Node35</title>
<g id="a_Node000035"><a xlink:href="update__objects_8c.html#ae5f13fecc7f9954584ff68142fb8d605" target="_top" xlink:title=" ">
<polygon fill="white" stroke="#666666" points="1440,-56 1328,-56 1328,-37 1440,-37 1440,-56"/>
<text text-anchor="middle" x="1384" y="-44" font-family="Helvetica,sans-Serif" font-size="10.00">init_smoke_particle</text>
</a>
</g>
</g>
<!-- Node34&#45;&gt;Node35 -->
<g id="edge36_Node000034_Node000035" class="edge">
<title>Node34&#45;&gt;Node35</title>
<g id="a_edge36_Node000034_Node000035"><a xlink:title=" ">
<path fill="none" stroke="#63b8ff" d="M1503.7,-46.5C1482.32,-46.5 1459.83,-46.5 1440.24,-46.5"/>
<polygon fill="#63b8ff" stroke="#63b8ff" points="1503.75,-50 1513.75,-46.5 1503.75,-43 1503.75,-50"/>
</a>
</g>
</g>
<!-- Node36 -->
<g id="Node000036" class="node">
<title>Node36</title>
<g id="a_Node000036"><a xlink:href="code__80005FD0_8c.html#a1d19438c5488f2963014e5c3e6513d4f" target="_top" xlink:title=" ">
<polygon fill="white" stroke="#666666" points="1249,-56 1115,-56 1115,-37 1249,-37 1249,-56"/>
<text text-anchor="middle" x="1182" y="-44" font-family="Helvetica,sans-Serif" font-size="10.00">generate_player_smoke</text>
</a>
</g>
</g>
<!-- Node35&#45;&gt;Node36 -->
<g id="edge37_Node000035_Node000036" class="edge">
<title>Node35&#45;&gt;Node36</title>
<g id="a_edge37_Node000035_Node000036"><a xlink:title=" ">
<path fill="none" stroke="#63b8ff" d="M1317.58,-46.5C1295.59,-46.5 1271.05,-46.5 1249.01,-46.5"/>
<polygon fill="#63b8ff" stroke="#63b8ff" points="1317.82,-50 1327.82,-46.5 1317.82,-43 1317.82,-50"/>
</a>
</g>
</g>
<!-- Node37 -->
<g id="Node000037" class="node">
<title>Node37</title>
<g id="a_Node000037"><a xlink:href="code__80005FD0_8c.html#aef8687777d0e50889371f98024d0bb12" target="_top" xlink:title=" ">
<polygon fill="white" stroke="#666666" points="1064,-56 968,-56 968,-37 1064,-37 1064,-56"/>
<text text-anchor="middle" x="1016" y="-44" font-family="Helvetica,sans-Serif" font-size="10.00">update_vehicles</text>
</a>
</g>
</g>
<!-- Node36&#45;&gt;Node37 -->
<g id="edge38_Node000036_Node000037" class="edge">
<title>Node36&#45;&gt;Node37</title>
<g id="a_edge38_Node000036_Node000037"><a xlink:title=" ">
<path fill="none" stroke="#63b8ff" d="M1104.39,-46.5C1090.72,-46.5 1076.86,-46.5 1064.33,-46.5"/>
<polygon fill="#63b8ff" stroke="#63b8ff" points="1104.77,-50 1114.77,-46.5 1104.77,-43 1104.77,-50"/>
</a>
</g>
</g>
<!-- Node38 -->
<g id="Node000038" class="node">
<title>Node38</title>
<g id="a_Node000038"><a xlink:href="race__logic_8c.html#af3b28af56eee680540843d3bd6bd24ba" target="_top" xlink:title=" ">
<polygon fill="white" stroke="#666666" points="898.5,-37 807.5,-37 807.5,-18 898.5,-18 898.5,-37"/>
<text text-anchor="middle" x="853" y="-25" font-family="Helvetica,sans-Serif" font-size="10.00">func_8028F474</text>
</a>
</g>
</g>
<!-- Node37&#45;&gt;Node38 -->
<g id="edge39_Node000037_Node000038" class="edge">
<title>Node37&#45;&gt;Node38</title>
<g id="a_edge39_Node000037_Node000038"><a xlink:title=" ">
<path fill="none" stroke="#63b8ff" d="M958.01,-39.77C938.49,-37.47 916.96,-34.93 898.57,-32.76"/>
<polygon fill="#63b8ff" stroke="#63b8ff" points="957.66,-43.26 968,-40.95 958.48,-36.31 957.66,-43.26"/>
</a>
</g>
</g>
<!-- Node67 -->
<g id="Node000067" class="node">
<title>Node67</title>
<g id="a_Node000067"><a xlink:href="podium__ceremony__actors_8c.html#a7ea229c65f264670fc828b95e8321154" target="_top" xlink:title=" ">
<polygon fill="white" stroke="#666666" points="738,-75 604,-75 604,-56 738,-56 738,-75"/>
<text text-anchor="middle" x="671" y="-63" font-family="Helvetica,sans-Serif" font-size="10.00">podium_ceremony_loop</text>
</a>
</g>
</g>
<!-- Node37&#45;&gt;Node67 -->
<g id="edge46_Node000037_Node000067" class="edge">
<title>Node37&#45;&gt;Node67</title>
<g id="a_edge46_Node000037_Node000067"><a xlink:title=" ">
<path fill="none" stroke="#63b8ff" d="M957.53,-49.68C897.01,-53.04 801.86,-58.31 738.23,-61.83"/>
<polygon fill="#63b8ff" stroke="#63b8ff" points="957.88,-53.17 967.67,-49.12 957.49,-46.18 957.88,-53.17"/>
</a>
</g>
</g>
<!-- Node39 -->
<g id="Node000039" class="node">
<title>Node39</title>
<g id="a_Node000039"><a xlink:href="main_8c.html#a06ee966cd36f1640715226c8c9a77d75" target="_top" xlink:title=" ">
<polygon fill="white" stroke="#666666" points="726,-37 616,-37 616,-18 726,-18 726,-37"/>
<text text-anchor="middle" x="671" y="-25" font-family="Helvetica,sans-Serif" font-size="10.00">process_game_tick</text>
</a>
</g>
</g>
<!-- Node38&#45;&gt;Node39 -->
<g id="edge40_Node000038_Node000039" class="edge">
<title>Node38&#45;&gt;Node39</title>
<g id="a_edge40_Node000038_Node000039"><a xlink:title=" ">
<path fill="none" stroke="#63b8ff" d="M797,-27.5C774.56,-27.5 748.69,-27.5 726.32,-27.5"/>
<polygon fill="#63b8ff" stroke="#63b8ff" points="797.04,-31 807.04,-27.5 797.04,-24 797.04,-31"/>
</a>
</g>
</g>
<!-- Node40 -->
<g id="Node000040" class="node">
<title>Node40</title>
<g id="a_Node000040"><a xlink:href="main_8c.html#afff87ffcbfee4f1f37d443110aa7b52a" target="_top" xlink:title=" ">
<polygon fill="white" stroke="#666666" points="568,-37 476,-37 476,-18 568,-18 568,-37"/>
<text text-anchor="middle" x="522" y="-25" font-family="Helvetica,sans-Serif" font-size="10.00">race_logic_loop</text>
</a>
</g>
</g>
<!-- Node39&#45;&gt;Node40 -->
<g id="edge41_Node000039_Node000040" class="edge">
<title>Node39&#45;&gt;Node40</title>
<g id="a_edge41_Node000039_Node000040"><a xlink:title=" ">
<path fill="none" stroke="#63b8ff" d="M605.34,-27.5C592.89,-27.5 580.1,-27.5 568.43,-27.5"/>
<polygon fill="#63b8ff" stroke="#63b8ff" points="605.68,-31 615.68,-27.5 605.68,-24 605.68,-31"/>
</a>
</g>
</g>
<!-- Node41 -->
<g id="Node000041" class="node">
<title>Node41</title>
<g id="a_Node000041"><a xlink:href="main_8c.html#ae04143ce8113cdafa007c642eb620bc8" target="_top" xlink:title=" ">
<polygon fill="white" stroke="#666666" points="440,-56 324,-56 324,-37 440,-37 440,-56"/>
<text text-anchor="middle" x="382" y="-44" font-family="Helvetica,sans-Serif" font-size="10.00">game_state_handler</text>
</a>
</g>
</g>
<!-- Node40&#45;&gt;Node41 -->
<g id="edge42_Node000040_Node000041" class="edge">
<title>Node40&#45;&gt;Node41</title>
<g id="a_edge42_Node000040_Node000041"><a xlink:title=" ">
<path fill="none" stroke="#63b8ff" d="M465.79,-35.1C457.43,-36.25 448.78,-37.44 440.38,-38.6"/>
<polygon fill="#63b8ff" stroke="#63b8ff" points="466.38,-38.55 475.81,-33.72 465.43,-31.62 466.38,-38.55"/>
</a>
</g>
</g>
<!-- Node42 -->
<g id="Node000042" class="node">
<title>Node42</title>
<g id="a_Node000042"><a xlink:href="main_8c.html#a2bd6afc4241736db360297b364c27b84" target="_top" xlink:title=" ">
<polygon fill="white" stroke="#666666" points="288,-56 187,-56 187,-37 288,-37 288,-56"/>
<text text-anchor="middle" x="237.5" y="-44" font-family="Helvetica,sans-Serif" font-size="10.00">thread5_iteration</text>
</a>
</g>
</g>
<!-- Node41&#45;&gt;Node42 -->
<g id="edge43_Node000041_Node000042" class="edge">
<title>Node41&#45;&gt;Node42</title>
<g id="a_edge43_Node000041_Node000042"><a xlink:title=" ">
<path fill="none" stroke="#63b8ff" d="M313.83,-46.5C305.23,-46.5 296.56,-46.5 288.3,-46.5"/>
<polygon fill="#63b8ff" stroke="#63b8ff" points="313.86,-50 323.86,-46.5 313.86,-43 313.86,-50"/>
</a>
</g>
</g>
<!-- Node43 -->
<g id="Node000043" class="node">
<title>Node43</title>
<g id="a_Node000043"><a xlink:href="Game_8cpp.html#a7e10f41e410b6fdab17e0388f164f61d" target="_top" xlink:title=" ">
<polygon fill="white" stroke="#666666" points="151,-56 77,-56 77,-37 151,-37 151,-56"/>
<text text-anchor="middle" x="114" y="-44" font-family="Helvetica,sans-Serif" font-size="10.00">push_frame</text>
</a>
</g>
</g>
<!-- Node42&#45;&gt;Node43 -->
<g id="edge44_Node000042_Node000043" class="edge">
<title>Node42&#45;&gt;Node43</title>
<g id="a_edge44_Node000042_Node000043"><a xlink:title=" ">
<path fill="none" stroke="#63b8ff" d="M176.57,-46.5C167.87,-46.5 159.15,-46.5 151.12,-46.5"/>
<polygon fill="#63b8ff" stroke="#63b8ff" points="176.73,-50 186.73,-46.5 176.73,-43 176.73,-50"/>
</a>
</g>
</g>
<!-- Node44 -->
<g id="Node000044" class="node">
<title>Node44</title>
<g id="a_Node000044"><a xlink:href="Game_8cpp.html#a0ddf1224851353fc92bfbff6f499fa97" target="_top" xlink:title=" ">
<polygon fill="#fff0f0" stroke="red" points="41,-56 0,-56 0,-37 41,-37 41,-56"/>
<text text-anchor="middle" x="20.5" y="-44" font-family="Helvetica,sans-Serif" font-size="10.00">main</text>
</a>
</g>
</g>
<!-- Node43&#45;&gt;Node44 -->
<g id="edge45_Node000043_Node000044" class="edge">
<title>Node43&#45;&gt;Node44</title>
<g id="a_edge45_Node000043_Node000044"><a xlink:title=" ">
<path fill="none" stroke="#63b8ff" d="M66.7,-46.5C57.67,-46.5 48.66,-46.5 41.09,-46.5"/>
<polygon fill="#63b8ff" stroke="#63b8ff" points="66.84,-50 76.84,-46.5 66.84,-43 66.84,-50"/>
</a>
</g>
</g>
<!-- Node67&#45;&gt;Node41 -->
<g id="edge47_Node000067_Node000041" class="edge">
<title>Node67&#45;&gt;Node41</title>
<g id="a_edge47_Node000067_Node000041"><a xlink:title=" ">
<path fill="none" stroke="#63b8ff" d="M593.71,-60.45C545.49,-57.26 484.18,-53.2 440.15,-50.28"/>
<polygon fill="#63b8ff" stroke="#63b8ff" points="593.59,-63.95 603.8,-61.12 594.05,-56.96 593.59,-63.95"/>
</a>
</g>
</g>
<!-- Node81 -->
<g id="Node000081" class="node">
<title>Node81</title>
<g id="a_Node000081"><a xlink:href="classOCheepCheep.html#a26e0e74a422c9227aa20c87a05f554f6" target="_top" xlink:title=" ">
<polygon fill="white" stroke="#666666" points="1467.5,-298 1300.5,-298 1300.5,-279 1467.5,-279 1467.5,-298"/>
<text text-anchor="middle" x="1384" y="-286" font-family="Helvetica,sans-Serif" font-size="10.00">OCheepCheep::func_8007BEC8</text>
</a>
</g>
</g>
<!-- Node80&#45;&gt;Node81 -->
<g id="edge49_Node000080_Node000081" class="edge">
<title>Node80&#45;&gt;Node81</title>
<g id="a_edge49_Node000080_Node000081"><a xlink:title=" ">
<path fill="none" stroke="#63b8ff" d="M1513.19,-289.14C1498.37,-289.06 1482.7,-288.98 1467.58,-288.91"/>
<polygon fill="#63b8ff" stroke="#63b8ff" points="1513.28,-292.64 1523.3,-289.19 1513.31,-285.64 1513.28,-292.64"/>
</a>
</g>
</g>
<!-- Node81&#45;&gt;Node4 -->
<g id="edge50_Node000081_Node000004" class="edge">
<title>Node81&#45;&gt;Node4</title>
<g id="a_edge50_Node000081_Node000004"><a xlink:title=" ">
<path fill="none" stroke="#63b8ff" d="M1290.1,-279.21C1272.36,-277.44 1254.31,-275.63 1238.22,-274.02"/>
<polygon fill="#63b8ff" stroke="#63b8ff" points="1290.2,-282.74 1300.5,-280.25 1290.9,-275.77 1290.2,-282.74"/>
</a>
</g>
</g>
<!-- Node83 -->
<g id="Node000083" class="node">
<title>Node83</title>
<g id="a_Node000083"><a xlink:href="classOSeagull.html#a4b3711a3b09b0c8c923bd67629f8eff1" target="_top" xlink:title=" ">
<polygon fill="white" stroke="#666666" points="1433,-19 1335,-19 1335,0 1433,0 1433,-19"/>
<text text-anchor="middle" x="1384" y="-7" font-family="Helvetica,sans-Serif" font-size="10.00">OSeagull::Spawn</text>
</a>
</g>
</g>
<!-- Node82&#45;&gt;Node83 -->
<g id="edge52_Node000082_Node000083" class="edge">
<title>Node82&#45;&gt;Node83</title>
<g id="a_edge52_Node000082_Node000083"><a xlink:title=" ">
<path fill="none" stroke="#63b8ff" d="M1522.23,-9.5C1493.35,-9.5 1459.85,-9.5 1433.17,-9.5"/>
<polygon fill="#63b8ff" stroke="#63b8ff" points="1522.24,-13 1532.24,-9.5 1522.24,-6 1522.24,-13"/>
</a>
</g>
</g>
<!-- Node84 -->
<g id="Node000084" class="node">
<title>Node84</title>
<g id="a_Node000084"><a xlink:href="classKoopaTroopaBeach.html#a9080e865d29d960d60c9d86d9370ea1a" target="_top" xlink:title=" ">
<polygon fill="white" stroke="#666666" points="1264,-19 1100,-19 1100,0 1264,0 1264,-19"/>
<text text-anchor="middle" x="1182" y="-7" font-family="Helvetica,sans-Serif" font-size="10.00">KoopaTroopaBeach::BeginPlay</text>
</a>
</g>
</g>
<!-- Node83&#45;&gt;Node84 -->
<g id="edge53_Node000083_Node000084" class="edge">
<title>Node83&#45;&gt;Node84</title>
<g id="a_edge53_Node000083_Node000084"><a xlink:title=" ">
<path fill="none" stroke="#63b8ff" d="M1324.63,-9.5C1305.78,-9.5 1284.52,-9.5 1264.31,-9.5"/>
<polygon fill="#63b8ff" stroke="#63b8ff" points="1324.84,-13 1334.84,-9.5 1324.84,-6 1324.84,-13"/>
</a>
</g>
</g>
</g>
</svg>

<g id="navigator" transform="translate(0 0)" fill="#404254">
  <rect fill="#f2f5e9" fill-opacity="0.5" stroke="#606060" stroke-width=".5" x="0" y="0" width="60" height="60"/>
  <use id="zoomplus" xlink:href="#zoomPlus" x="17" y="9" onmousedown="handleZoom(evt,'in')"/>
  <use id="zoomminus" xlink:href="#zoomMin" x="42" y="9" onmousedown="handleZoom(evt,'out')"/>
  <use id="reset" xlink:href="#resetDef" x="30" y="36" onmousedown="handleReset()"/>
   <use id="arrowup" xlink:href="#arrowUp" x="0" y="0" onmousedown="handlePan(0,-1)"/>
  <use id="arrowright" xlink:href="#arrowRight" x="0" y="0" onmousedown="handlePan(1,0)"/>
  <use id="arrowdown" xlink:href="#arrowDown" x="0" y="0" onmousedown="handlePan(0,1)"/>
  <use id="arrowleft" xlink:href="#arrowLeft" x="0" y="0" onmousedown="handlePan(-1,0)"/>
</g>
<svg viewBox="0 0 15 15" width="100%" height="30px" preserveAspectRatio="xMaxYMin meet">
 <g id="arrow_out" transform="scale(0.3 0.3)">
  <a xlink:href="code__80086E70_8h_a638285feb04bc64f862fa093373e9649_icgraph_org.svg" target="_base">
   <rect id="button" ry="5" rx="5" y="6" x="6" height="38" width="38"
        fill="#f2f5e9" fill-opacity="0.5" stroke="#606060" stroke-width="1.0"/>
   <path id="arrow"
     d="M 11.500037,31.436501 C 11.940474,20.09759 22.043105,11.32322 32.158766,21.979434 L 37.068811,17.246167 C 37.068811,17.246167 37.088388,32 37.088388,32 L 22.160133,31.978069 C 22.160133,31.978069 26.997745,27.140456 26.997745,27.140456 C 18.528582,18.264221 13.291696,25.230495 11.500037,31.436501 z"
     style="fill:#404040;"/>
  </a>
 </g>
</svg>

<style type='text/css'>
<![CDATA[
[data-mouse-over-selected='false'] { opacity: 0.7; }
[data-mouse-over-selected='true']  { opacity: 1.0; }
]]>
</style>
<script type="application/ecmascript"><![CDATA[
document.addEventListener('DOMContentLoaded', (event) => {
  highlightEdges();
  highlightAdjacentNodes();
});
]]></script>
</svg>
