<?xml version="1.0" encoding="UTF-8" standalone="no"?>
<!DOCTYPE svg PUBLIC "-//W3C//DTD SVG 1.1//EN"
 "http://www.w3.org/Graphics/SVG/1.1/DTD/svg11.dtd">
<!-- Generated by graphviz version 2.43.0 (0)
 -->
<!-- Title: set_vehicle_pos_path_point Pages: 1 -->
<svg width="1009pt" height="86pt"
 viewBox="0.00 0.00 1009.00 86.00" xmlns="http://www.w3.org/2000/svg" xmlns:xlink="http://www.w3.org/1999/xlink">
<g id="graph0" class="graph" transform="scale(1 1) rotate(0) translate(4 82)">
<title>set_vehicle_pos_path_point</title>
<!-- Node1 -->
<g id="Node000001" class="node">
<title>Node1</title>
<g id="a_Node000001"><a xlink:title=" ">
<polygon fill="#999999" stroke="#666666" points="1001,-42.5 879,-42.5 879,-12.5 1001,-12.5 1001,-42.5"/>
<text text-anchor="start" x="887" y="-30.5" font-family="Helvetica,sans-Serif" font-size="10.00">set_vehicle_pos_path</text>
<text text-anchor="middle" x="940" y="-19.5" font-family="Helvetica,sans-Serif" font-size="10.00">_point</text>
</a>
</g>
</g>
<!-- Node2 -->
<g id="Node000002" class="node">
<title>Node2</title>
<g id="a_Node000002"><a xlink:href="classATrain.html#a924e9fb51739e1fba6b0eff6635611bc" target="_top" xlink:title=" ">
<polygon fill="white" stroke="#666666" points="828,-56 747,-56 747,-37 828,-37 828,-56"/>
<text text-anchor="middle" x="787.5" y="-44" font-family="Helvetica,sans-Serif" font-size="10.00">ATrain::ATrain</text>
</a>
</g>
</g>
<!-- Node1&#45;&gt;Node2 -->
<g id="edge1_Node000001_Node000002" class="edge">
<title>Node1&#45;&gt;Node2</title>
<g id="a_edge1_Node000001_Node000002"><a xlink:title=" ">
<path fill="none" stroke="#63b8ff" d="M868.59,-36.39C854.68,-38.14 840.56,-39.93 828.12,-41.5"/>
<polygon fill="#63b8ff" stroke="#63b8ff" points="869.17,-39.84 878.65,-35.12 868.29,-32.9 869.17,-39.84"/>
</a>
</g>
</g>
<!-- Node8 -->
<g id="Node000008" class="node">
<title>Node8</title>
<g id="a_Node000008"><a xlink:href="code__80005FD0_8c.html#add32d29ccee5e9c29d843bf59cab2414" target="_top" xlink:title=" ">
<polygon fill="white" stroke="#666666" points="843,-19 732,-19 732,0 843,0 843,-19"/>
<text text-anchor="middle" x="787.5" y="-7" font-family="Helvetica,sans-Serif" font-size="10.00">init_vehicles_trains</text>
</a>
</g>
</g>
<!-- Node1&#45;&gt;Node8 -->
<g id="edge7_Node000001_Node000008" class="edge">
<title>Node1&#45;&gt;Node8</title>
<g id="a_edge7_Node000001_Node000008"><a xlink:title=" ">
<path fill="none" stroke="#63b8ff" d="M868.62,-19.08C860.02,-18.05 851.34,-17.02 843.02,-16.02"/>
<polygon fill="#63b8ff" stroke="#63b8ff" points="868.31,-22.57 878.65,-20.28 869.14,-15.62 868.31,-22.57"/>
</a>
</g>
</g>
<!-- Node3 -->
<g id="Node000003" class="node">
<title>Node3</title>
<g id="a_Node000003"><a xlink:href="classATrain.html#aa39976112e962ff1536c33236e16cc20" target="_top" xlink:title=" ">
<polygon fill="white" stroke="#666666" points="696,-56 612,-56 612,-37 696,-37 696,-56"/>
<text text-anchor="middle" x="654" y="-44" font-family="Helvetica,sans-Serif" font-size="10.00">ATrain::Spawn</text>
</a>
</g>
</g>
<!-- Node2&#45;&gt;Node3 -->
<g id="edge2_Node000002_Node000003" class="edge">
<title>Node2&#45;&gt;Node3</title>
<g id="a_edge2_Node000002_Node000003"><a xlink:title=" ">
<path fill="none" stroke="#63b8ff" d="M736.66,-46.5C723.25,-46.5 708.91,-46.5 696.04,-46.5"/>
<polygon fill="#63b8ff" stroke="#63b8ff" points="736.69,-50 746.69,-46.5 736.69,-43 736.69,-50"/>
</a>
</g>
</g>
<!-- Node4 -->
<g id="Node000004" class="node">
<title>Node4</title>
<g id="a_Node000004"><a xlink:href="classKalimariDesert.html#aa3f0f4155f0d9a6ecfb4ca824603b81f" target="_top" xlink:title=" ">
<polygon fill="white" stroke="#666666" points="564.5,-78 419.5,-78 419.5,-59 564.5,-59 564.5,-78"/>
<text text-anchor="middle" x="492" y="-66" font-family="Helvetica,sans-Serif" font-size="10.00">KalimariDesert::BeginPlay</text>
</a>
</g>
</g>
<!-- Node3&#45;&gt;Node4 -->
<g id="edge3_Node000003_Node000004" class="edge">
<title>Node3&#45;&gt;Node4</title>
<g id="a_edge3_Node000003_Node000004"><a xlink:title=" ">
<path fill="none" stroke="#63b8ff" d="M601.57,-53.57C589.07,-55.29 575.49,-57.16 562.3,-58.97"/>
<polygon fill="#63b8ff" stroke="#63b8ff" points="602.37,-57 611.8,-52.17 601.41,-50.06 602.37,-57"/>
</a>
</g>
</g>
<!-- Node5 -->
<g id="Node000005" class="node">
<title>Node5</title>
<g id="a_Node000005"><a xlink:href="classEditor_1_1ContentBrowserWindow.html#a892a21e5db2c05ba813cfdc4f1dae812" target="_top" xlink:title=" ">
<polygon fill="white" stroke="#666666" points="576,-40.5 408,-40.5 408,-10.5 576,-10.5 576,-40.5"/>
<text text-anchor="start" x="416" y="-28.5" font-family="Helvetica,sans-Serif" font-size="10.00">Editor::ContentBrowserWindow</text>
<text text-anchor="middle" x="492" y="-17.5" font-family="Helvetica,sans-Serif" font-size="10.00">::TrainWindow</text>
</a>
</g>
</g>
<!-- Node3&#45;&gt;Node5 -->
<g id="edge4_Node000003_Node000005" class="edge">
<title>Node3&#45;&gt;Node5</title>
<g id="a_edge4_Node000003_Node000005"><a xlink:title=" ">
<path fill="none" stroke="#63b8ff" d="M601.67,-39.76C593.46,-38.69 584.78,-37.55 576.05,-36.4"/>
<polygon fill="#63b8ff" stroke="#63b8ff" points="601.43,-43.26 611.8,-41.09 602.34,-36.32 601.43,-43.26"/>
</a>
</g>
</g>
<!-- Node6 -->
<g id="Node000006" class="node">
<title>Node6</title>
<g id="a_Node000006"><a xlink:href="classEditor_1_1ContentBrowserWindow.html#a4c6f618d8a04fc19805b4642b40c57ce" target="_top" xlink:title=" ">
<polygon fill="white" stroke="#666666" points="372,-40.5 204,-40.5 204,-10.5 372,-10.5 372,-40.5"/>
<text text-anchor="start" x="212" y="-28.5" font-family="Helvetica,sans-Serif" font-size="10.00">Editor::ContentBrowserWindow</text>
<text text-anchor="middle" x="288" y="-17.5" font-family="Helvetica,sans-Serif" font-size="10.00">::AddActorContent</text>
</a>
</g>
</g>
<!-- Node5&#45;&gt;Node6 -->
<g id="edge5_Node000005_Node000006" class="edge">
<title>Node5&#45;&gt;Node6</title>
<g id="a_edge5_Node000005_Node000006"><a xlink:title=" ">
<path fill="none" stroke="#63b8ff" d="M397.89,-25.5C389.27,-25.5 380.56,-25.5 372.04,-25.5"/>
<polygon fill="#63b8ff" stroke="#63b8ff" points="397.96,-29 407.96,-25.5 397.96,-22 397.96,-29"/>
</a>
</g>
</g>
<!-- Node7 -->
<g id="Node000007" class="node">
<title>Node7</title>
<g id="a_Node000007"><a xlink:href="classEditor_1_1ContentBrowserWindow.html#aba36715d806ae75b046302e476726b44" target="_top" xlink:title=" ">
<polygon fill="white" stroke="#666666" points="168,-40.5 0,-40.5 0,-10.5 168,-10.5 168,-40.5"/>
<text text-anchor="start" x="8" y="-28.5" font-family="Helvetica,sans-Serif" font-size="10.00">Editor::ContentBrowserWindow</text>
<text text-anchor="middle" x="84" y="-17.5" font-family="Helvetica,sans-Serif" font-size="10.00">::DrawElement</text>
</a>
</g>
</g>
<!-- Node6&#45;&gt;Node7 -->
<g id="edge6_Node000006_Node000007" class="edge">
<title>Node6&#45;&gt;Node7</title>
<g id="a_edge6_Node000006_Node000007"><a xlink:title=" ">
<path fill="none" stroke="#63b8ff" d="M193.89,-25.5C185.27,-25.5 176.56,-25.5 168.04,-25.5"/>
<polygon fill="#63b8ff" stroke="#63b8ff" points="193.96,-29 203.96,-25.5 193.96,-22 193.96,-29"/>
</a>
</g>
</g>
</g>
</svg>
