<?xml version="1.0" encoding="UTF-8" standalone="no"?>
<!DOCTYPE svg PUBLIC "-//W3C//DTD SVG 1.1//EN"
 "http://www.w3.org/Graphics/SVG/1.1/DTD/svg11.dtd">
<!-- Generated by graphviz version 2.43.0 (0)
 -->
<!-- Title: src/code_8003DC40.c Pages: 1 -->
<svg width="1543pt" height="412pt"
 viewBox="0.00 0.00 1543.00 412.00" xmlns="http://www.w3.org/2000/svg" xmlns:xlink="http://www.w3.org/1999/xlink">
<g id="graph0" class="graph" transform="scale(1 1) rotate(0) translate(4 408)">
<title>src/code_8003DC40.c</title>
<!-- Node1 -->
<g id="Node000001" class="node">
<title>Node1</title>
<g id="a_Node000001"><a xlink:title=" ">
<polygon fill="#999999" stroke="#666666" points="368.5,-404 247.5,-404 247.5,-385 368.5,-385 368.5,-404"/>
<text text-anchor="middle" x="308" y="-392" font-family="Helvetica,sans-Serif" font-size="10.00">src/code_8003DC40.c</text>
</a>
</g>
</g>
<!-- Node2 -->
<g id="Node000002" class="node">
<title>Node2</title>
<g id="a_Node000002"><a xlink:title=" ">
<polygon fill="#e0e0e0" stroke="#999999" points="924,-19 844,-19 844,0 924,0 924,-19"/>
<text text-anchor="middle" x="884" y="-7" font-family="Helvetica,sans-Serif" font-size="10.00">libultraship.h</text>
</a>
</g>
</g>
<!-- Node1&#45;&gt;Node2 -->
<g id="edge1_Node000001_Node000002" class="edge">
<title>Node1&#45;&gt;Node2</title>
<g id="a_edge1_Node000001_Node000002"><a xlink:title=" ">
<path fill="none" stroke="#63b8ff" d="M247.02,-389.51C199.66,-384.58 133.29,-373.56 80,-349 38.77,-330 0,-330.89 0,-285.5 0,-285.5 0,-285.5 0,-118.5 0,-84.16 14.02,-71.73 44,-55 112.82,-16.6 662.79,-11.32 833.59,-10.61"/>
<polygon fill="#63b8ff" stroke="#63b8ff" points="833.82,-14.11 843.81,-10.57 833.79,-7.11 833.82,-14.11"/>
</a>
</g>
</g>
<!-- Node3 -->
<g id="Node000003" class="node">
<title>Node3</title>
<g id="a_Node000003"><a xlink:href="macros_8h.html" target="_top" xlink:title=" ">
<polygon fill="white" stroke="#666666" points="115,-74 53,-74 53,-55 115,-55 115,-74"/>
<text text-anchor="middle" x="84" y="-62" font-family="Helvetica,sans-Serif" font-size="10.00">macros.h</text>
</a>
</g>
</g>
<!-- Node1&#45;&gt;Node3 -->
<g id="edge2_Node000001_Node000003" class="edge">
<title>Node1&#45;&gt;Node3</title>
<g id="a_edge2_Node000001_Node000003"><a xlink:title=" ">
<path fill="none" stroke="#63b8ff" d="M262.2,-384.98C185.17,-369.34 38,-333.21 38,-285.5 38,-285.5 38,-285.5 38,-173.5 38,-139.04 58.07,-102.98 71.7,-82.47"/>
<polygon fill="#63b8ff" stroke="#63b8ff" points="74.6,-84.42 77.41,-74.2 68.85,-80.44 74.6,-84.42"/>
</a>
</g>
</g>
<!-- Node5 -->
<g id="Node000005" class="node">
<title>Node5</title>
<g id="a_Node000005"><a xlink:href="mk64_8h.html" target="_top" xlink:title=" ">
<polygon fill="white" stroke="#666666" points="1470.5,-129 1417.5,-129 1417.5,-110 1470.5,-110 1470.5,-129"/>
<text text-anchor="middle" x="1444" y="-117" font-family="Helvetica,sans-Serif" font-size="10.00">mk64.h</text>
</a>
</g>
</g>
<!-- Node1&#45;&gt;Node5 -->
<g id="edge5_Node000001_Node000005" class="edge">
<title>Node1&#45;&gt;Node5</title>
<g id="a_edge5_Node000001_Node000005"><a xlink:title=" ">
<path fill="none" stroke="#63b8ff" d="M368.77,-391.03C606.57,-380.95 1461,-340.88 1461,-285.5 1461,-285.5 1461,-285.5 1461,-228.5 1461,-196.8 1453.77,-160.51 1448.74,-139.09"/>
<polygon fill="#63b8ff" stroke="#63b8ff" points="1452.07,-137.99 1446.29,-129.11 1445.27,-139.65 1452.07,-137.99"/>
</a>
</g>
</g>
<!-- Node9 -->
<g id="Node000009" class="node">
<title>Node9</title>
<g id="a_Node000009"><a xlink:href="math__util_8h.html" target="_top" xlink:title=" ">
<polygon fill="white" stroke="#666666" points="240,-129 168,-129 168,-110 240,-110 240,-129"/>
<text text-anchor="middle" x="204" y="-117" font-family="Helvetica,sans-Serif" font-size="10.00">math_util.h</text>
</a>
</g>
</g>
<!-- Node1&#45;&gt;Node9 -->
<g id="edge10_Node000001_Node000009" class="edge">
<title>Node1&#45;&gt;Node9</title>
<g id="a_edge10_Node000001_Node000009"><a xlink:title=" ">
<path fill="none" stroke="#63b8ff" d="M268.94,-384.93C222.16,-372.09 150,-342.98 150,-285.5 150,-285.5 150,-285.5 150,-228.5 150,-192.89 173.77,-156.99 189.77,-136.86"/>
<polygon fill="#63b8ff" stroke="#63b8ff" points="192.59,-138.95 196.26,-129.01 187.19,-134.49 192.59,-138.95"/>
</a>
</g>
</g>
<!-- Node10 -->
<g id="Node000010" class="node">
<title>Node10</title>
<g id="a_Node000010"><a xlink:href="common__structs_8h.html" target="_top" xlink:title=" ">
<polygon fill="white" stroke="#666666" points="605.5,-74 498.5,-74 498.5,-55 605.5,-55 605.5,-74"/>
<text text-anchor="middle" x="552" y="-62" font-family="Helvetica,sans-Serif" font-size="10.00">common_structs.h</text>
</a>
</g>
</g>
<!-- Node1&#45;&gt;Node10 -->
<g id="edge14_Node000001_Node000010" class="edge">
<title>Node1&#45;&gt;Node10</title>
<g id="a_edge14_Node000001_Node000010"><a xlink:title=" ">
<path fill="none" stroke="#63b8ff" d="M313.58,-384.72C318.74,-376.03 326.05,-362.17 329,-349 336.25,-316.67 308.92,-306.22 320,-275 351.6,-185.97 379.22,-167.73 454,-110 472.35,-95.84 495.92,-84.95 515.35,-77.49"/>
<polygon fill="#63b8ff" stroke="#63b8ff" points="516.63,-80.75 524.8,-74 514.21,-74.18 516.63,-80.75"/>
</a>
</g>
</g>
<!-- Node11 -->
<g id="Node000011" class="node">
<title>Node11</title>
<g id="a_Node000011"><a xlink:href="player__controller_8h.html" target="_top" xlink:title=" ">
<polygon fill="white" stroke="#666666" points="479.5,-294 372.5,-294 372.5,-275 479.5,-275 479.5,-294"/>
<text text-anchor="middle" x="426" y="-282" font-family="Helvetica,sans-Serif" font-size="10.00">player_controller.h</text>
</a>
</g>
</g>
<!-- Node1&#45;&gt;Node11 -->
<g id="edge15_Node000001_Node000011" class="edge">
<title>Node1&#45;&gt;Node11</title>
<g id="a_edge15_Node000001_Node000011"><a xlink:title=" ">
<path fill="none" stroke="#63b8ff" d="M319,-384.92C330.1,-376.16 347.59,-362.04 362,-349 379.11,-333.52 397.74,-314.81 410.46,-301.73"/>
<polygon fill="#63b8ff" stroke="#63b8ff" points="413.12,-304.01 417.55,-294.39 408.09,-299.15 413.12,-304.01"/>
</a>
</g>
</g>
<!-- Node13 -->
<g id="Node000013" class="node">
<title>Node13</title>
<g id="a_Node000013"><a xlink:href="effects_8h.html" target="_top" xlink:title=" ">
<polygon fill="white" stroke="#666666" points="238.5,-294 179.5,-294 179.5,-275 238.5,-275 238.5,-294"/>
<text text-anchor="middle" x="209" y="-282" font-family="Helvetica,sans-Serif" font-size="10.00">effects.h</text>
</a>
</g>
</g>
<!-- Node1&#45;&gt;Node13 -->
<g id="edge20_Node000001_Node000013" class="edge">
<title>Node1&#45;&gt;Node13</title>
<g id="a_edge20_Node000001_Node000013"><a xlink:title=" ">
<path fill="none" stroke="#63b8ff" d="M261.84,-385C241.4,-378.69 219.25,-367.78 207,-349 198.35,-335.73 200.03,-317.37 203.18,-303.8"/>
<polygon fill="#63b8ff" stroke="#63b8ff" points="206.56,-304.71 205.85,-294.14 199.81,-302.84 206.56,-304.71"/>
</a>
</g>
</g>
<!-- Node14 -->
<g id="Node000014" class="node">
<title>Node14</title>
<g id="a_Node000014"><a xlink:href="code__8003DC40_8h.html" target="_top" xlink:title=" ">
<polygon fill="white" stroke="#666666" points="320,-349 216,-349 216,-330 320,-330 320,-349"/>
<text text-anchor="middle" x="268" y="-337" font-family="Helvetica,sans-Serif" font-size="10.00">code_8003DC40.h</text>
</a>
</g>
</g>
<!-- Node1&#45;&gt;Node14 -->
<g id="edge22_Node000001_Node000014" class="edge">
<title>Node1&#45;&gt;Node14</title>
<g id="a_edge22_Node000001_Node000014"><a xlink:title=" ">
<path fill="none" stroke="#63b8ff" d="M301.39,-384.75C295.74,-377.26 287.46,-366.28 280.55,-357.13"/>
<polygon fill="#63b8ff" stroke="#63b8ff" points="283.3,-354.96 274.48,-349.09 277.71,-359.18 283.3,-354.96"/>
</a>
</g>
</g>
<!-- Node15 -->
<g id="Node000015" class="node">
<title>Node15</title>
<g id="a_Node000015"><a xlink:href="defines_8h.html" target="_top" xlink:title=" ">
<polygon fill="white" stroke="#666666" points="1318.5,-239 1257.5,-239 1257.5,-220 1318.5,-220 1318.5,-239"/>
<text text-anchor="middle" x="1288" y="-227" font-family="Helvetica,sans-Serif" font-size="10.00">defines.h</text>
</a>
</g>
</g>
<!-- Node1&#45;&gt;Node15 -->
<g id="edge24_Node000001_Node000015" class="edge">
<title>Node1&#45;&gt;Node15</title>
<g id="a_edge24_Node000001_Node000015"><a xlink:title=" ">
<path fill="none" stroke="#63b8ff" d="M368.88,-391.26C464.46,-387.05 655.32,-375.84 815,-349 979.39,-321.37 1170.73,-266.14 1250.31,-242.11"/>
<polygon fill="#63b8ff" stroke="#63b8ff" points="1251.78,-245.32 1260.34,-239.07 1249.75,-238.62 1251.78,-245.32"/>
</a>
</g>
</g>
<!-- Node16 -->
<g id="Node000016" class="node">
<title>Node16</title>
<g id="a_Node000016"><a xlink:href="Game_8h.html" target="_top" xlink:title=" ">
<polygon fill="white" stroke="#666666" points="805.5,-349 728.5,-349 728.5,-330 805.5,-330 805.5,-349"/>
<text text-anchor="middle" x="767" y="-337" font-family="Helvetica,sans-Serif" font-size="10.00">port/Game.h</text>
</a>
</g>
</g>
<!-- Node1&#45;&gt;Node16 -->
<g id="edge25_Node000001_Node000016" class="edge">
<title>Node1&#45;&gt;Node16</title>
<g id="a_edge25_Node000001_Node000016"><a xlink:title=" ">
<path fill="none" stroke="#63b8ff" d="M368.95,-386.46C461.07,-375.83 633.93,-355.87 718.25,-346.13"/>
<polygon fill="#63b8ff" stroke="#63b8ff" points="718.79,-349.59 728.32,-344.97 717.99,-342.64 718.79,-349.59"/>
</a>
</g>
</g>
<!-- Node3&#45;&gt;Node2 -->
<g id="edge4_Node000003_Node000002" class="edge">
<title>Node3&#45;&gt;Node2</title>
<g id="a_edge4_Node000003_Node000002"><a xlink:title=" ">
<path fill="none" stroke="#63b8ff" d="M115.36,-56.37C118.27,-55.85 121.19,-55.38 124,-55 389.69,-19.2 711.47,-12.19 833.66,-10.83"/>
<polygon fill="#63b8ff" stroke="#63b8ff" points="833.87,-14.33 843.83,-10.72 833.8,-7.33 833.87,-14.33"/>
</a>
</g>
</g>
<!-- Node4 -->
<g id="Node000004" class="node">
<title>Node4</title>
<g id="a_Node000004"><a xlink:href="math_8h.html" target="_top" xlink:title=" ">
<polygon fill="white" stroke="#666666" points="109.5,-19 58.5,-19 58.5,0 109.5,0 109.5,-19"/>
<text text-anchor="middle" x="84" y="-7" font-family="Helvetica,sans-Serif" font-size="10.00">math.h</text>
</a>
</g>
</g>
<!-- Node3&#45;&gt;Node4 -->
<g id="edge3_Node000003_Node000004" class="edge">
<title>Node3&#45;&gt;Node4</title>
<g id="a_edge3_Node000003_Node000004"><a xlink:title=" ">
<path fill="none" stroke="#63b8ff" d="M84,-54.75C84,-47.8 84,-37.85 84,-29.13"/>
<polygon fill="#63b8ff" stroke="#63b8ff" points="87.5,-29.09 84,-19.09 80.5,-29.09 87.5,-29.09"/>
</a>
</g>
</g>
<!-- Node5&#45;&gt;Node2 -->
<g id="edge6_Node000005_Node000002" class="edge">
<title>Node5&#45;&gt;Node2</title>
<g id="a_edge6_Node000005_Node000002"><a xlink:title=" ">
<path fill="none" stroke="#63b8ff" d="M1436.93,-109.61C1424.92,-95.23 1399,-67.27 1370,-55 1292.5,-22.21 1042.67,-13.51 934.6,-11.26"/>
<polygon fill="#63b8ff" stroke="#63b8ff" points="934.35,-7.76 924.29,-11.06 934.21,-14.76 934.35,-7.76"/>
</a>
</g>
</g>
<!-- Node6 -->
<g id="Node000006" class="node">
<title>Node6</title>
<g id="a_Node000006"><a xlink:href="string_8h.html" target="_top" xlink:title=" ">
<polygon fill="white" stroke="#666666" points="1470.5,-74 1417.5,-74 1417.5,-55 1470.5,-55 1470.5,-74"/>
<text text-anchor="middle" x="1444" y="-62" font-family="Helvetica,sans-Serif" font-size="10.00">string.h</text>
</a>
</g>
</g>
<!-- Node5&#45;&gt;Node6 -->
<g id="edge7_Node000005_Node000006" class="edge">
<title>Node5&#45;&gt;Node6</title>
<g id="a_edge7_Node000005_Node000006"><a xlink:title=" ">
<path fill="none" stroke="#63b8ff" d="M1444,-109.75C1444,-102.8 1444,-92.85 1444,-84.13"/>
<polygon fill="#63b8ff" stroke="#63b8ff" points="1447.5,-84.09 1444,-74.09 1440.5,-84.09 1447.5,-84.09"/>
</a>
</g>
</g>
<!-- Node8 -->
<g id="Node000008" class="node">
<title>Node8</title>
<g id="a_Node000008"><a xlink:title=" ">
<polygon fill="#e0e0e0" stroke="#999999" points="1361,-74 1283,-74 1283,-55 1361,-55 1361,-74"/>
<text text-anchor="middle" x="1322" y="-62" font-family="Helvetica,sans-Serif" font-size="10.00">libultra/gbi.h</text>
</a>
</g>
</g>
<!-- Node5&#45;&gt;Node8 -->
<g id="edge9_Node000005_Node000008" class="edge">
<title>Node5&#45;&gt;Node8</title>
<g id="a_edge9_Node000005_Node000008"><a xlink:title=" ">
<path fill="none" stroke="#63b8ff" d="M1424.4,-109.98C1404.68,-101.42 1374.05,-88.11 1351.42,-78.28"/>
<polygon fill="#63b8ff" stroke="#63b8ff" points="1352.52,-74.94 1341.96,-74.17 1349.74,-81.37 1352.52,-74.94"/>
</a>
</g>
</g>
<!-- Node7 -->
<g id="Node000007" class="node">
<title>Node7</title>
<g id="a_Node000007"><a xlink:title=" ">
<polygon fill="#e0e0e0" stroke="#999999" points="1535,-19 1445,-19 1445,0 1535,0 1535,-19"/>
<text text-anchor="middle" x="1490" y="-7" font-family="Helvetica,sans-Serif" font-size="10.00">libultra/types.h</text>
</a>
</g>
</g>
<!-- Node6&#45;&gt;Node7 -->
<g id="edge8_Node000006_Node000007" class="edge">
<title>Node6&#45;&gt;Node7</title>
<g id="a_edge8_Node000006_Node000007"><a xlink:title=" ">
<path fill="none" stroke="#63b8ff" d="M1451.6,-54.75C1458.16,-47.18 1467.82,-36.05 1475.81,-26.84"/>
<polygon fill="#63b8ff" stroke="#63b8ff" points="1478.63,-28.94 1482.55,-19.09 1473.35,-24.35 1478.63,-28.94"/>
</a>
</g>
</g>
<!-- Node9&#45;&gt;Node2 -->
<g id="edge11_Node000009_Node000002" class="edge">
<title>Node9&#45;&gt;Node2</title>
<g id="a_edge11_Node000009_Node000002"><a xlink:title=" ">
<path fill="none" stroke="#63b8ff" d="M216.91,-109.84C238.99,-95.55 285.9,-67.37 330,-55 424.02,-28.63 715.65,-16.14 833.66,-12.07"/>
<polygon fill="#63b8ff" stroke="#63b8ff" points="833.99,-15.56 843.86,-11.72 833.75,-8.56 833.99,-15.56"/>
</a>
</g>
</g>
<!-- Node9&#45;&gt;Node10 -->
<g id="edge12_Node000009_Node000010" class="edge">
<title>Node9&#45;&gt;Node10</title>
<g id="a_edge12_Node000009_Node000010"><a xlink:title=" ">
<path fill="none" stroke="#63b8ff" d="M240.04,-112.28C244.73,-111.5 249.48,-110.72 254,-110 334.69,-97.12 427.87,-83.39 488.25,-74.64"/>
<polygon fill="#63b8ff" stroke="#63b8ff" points="488.99,-78.07 498.39,-73.17 487.99,-71.14 488.99,-78.07"/>
</a>
</g>
</g>
<!-- Node10&#45;&gt;Node2 -->
<g id="edge13_Node000010_Node000002" class="edge">
<title>Node10&#45;&gt;Node2</title>
<g id="a_edge13_Node000010_Node000002"><a xlink:title=" ">
<path fill="none" stroke="#63b8ff" d="M605.34,-54.98C668.24,-44.94 772,-28.38 833.59,-18.55"/>
<polygon fill="#63b8ff" stroke="#63b8ff" points="834.52,-21.94 843.84,-16.91 833.42,-15.03 834.52,-21.94"/>
</a>
</g>
</g>
<!-- Node11&#45;&gt;Node10 -->
<g id="edge16_Node000011_Node000010" class="edge">
<title>Node11&#45;&gt;Node10</title>
<g id="a_edge16_Node000011_Node000010"><a xlink:title=" ">
<path fill="none" stroke="#63b8ff" d="M425.81,-274.84C425.66,-247.48 428.68,-161.71 470,-110 481.55,-95.54 499.13,-85.12 515.06,-78.02"/>
<polygon fill="#63b8ff" stroke="#63b8ff" points="516.8,-81.09 524.69,-74.02 514.11,-74.62 516.8,-81.09"/>
</a>
</g>
</g>
<!-- Node12 -->
<g id="Node000012" class="node">
<title>Node12</title>
<g id="a_Node000012"><a xlink:href="camera_8h.html" target="_top" xlink:title=" ">
<polygon fill="white" stroke="#666666" points="510,-239 448,-239 448,-220 510,-220 510,-239"/>
<text text-anchor="middle" x="479" y="-227" font-family="Helvetica,sans-Serif" font-size="10.00">camera.h</text>
</a>
</g>
</g>
<!-- Node11&#45;&gt;Node12 -->
<g id="edge17_Node000011_Node000012" class="edge">
<title>Node11&#45;&gt;Node12</title>
<g id="a_edge17_Node000011_Node000012"><a xlink:title=" ">
<path fill="none" stroke="#63b8ff" d="M434.75,-274.75C442.47,-267.03 453.9,-255.6 463.22,-246.28"/>
<polygon fill="#63b8ff" stroke="#63b8ff" points="465.81,-248.64 470.41,-239.09 460.86,-243.69 465.81,-248.64"/>
</a>
</g>
</g>
<!-- Node12&#45;&gt;Node2 -->
<g id="edge18_Node000012_Node000002" class="edge">
<title>Node12&#45;&gt;Node2</title>
<g id="a_edge18_Node000012_Node000002"><a xlink:title=" ">
<path fill="none" stroke="#63b8ff" d="M475.4,-219.82C471.94,-210.99 466.97,-196.81 465,-184 456.13,-126.28 444.13,-91.14 490,-55 542.19,-13.89 739.65,-9.47 833.66,-9.79"/>
<polygon fill="#63b8ff" stroke="#63b8ff" points="833.77,-13.29 843.78,-9.84 833.8,-6.29 833.77,-13.29"/>
</a>
</g>
</g>
<!-- Node12&#45;&gt;Node10 -->
<g id="edge19_Node000012_Node000010" class="edge">
<title>Node12&#45;&gt;Node10</title>
<g id="a_edge19_Node000012_Node000010"><a xlink:title=" ">
<path fill="none" stroke="#63b8ff" d="M476.61,-219.74C471.5,-199.04 461.53,-146.18 482,-110 489.95,-95.95 504.37,-85.67 518.06,-78.55"/>
<polygon fill="#63b8ff" stroke="#63b8ff" points="519.82,-81.59 527.33,-74.12 516.8,-75.27 519.82,-81.59"/>
</a>
</g>
</g>
<!-- Node13&#45;&gt;Node10 -->
<g id="edge21_Node000013_Node000010" class="edge">
<title>Node13&#45;&gt;Node10</title>
<g id="a_edge21_Node000013_Node000010"><a xlink:title=" ">
<path fill="none" stroke="#63b8ff" d="M209.99,-274.96C213.91,-245.64 231.2,-148.79 292,-110 323.7,-89.78 421.72,-77.19 487.92,-70.76"/>
<polygon fill="#63b8ff" stroke="#63b8ff" points="488.64,-74.21 498.26,-69.78 487.98,-67.24 488.64,-74.21"/>
</a>
</g>
</g>
<!-- Node14&#45;&gt;Node10 -->
<g id="edge23_Node000014_Node000010" class="edge">
<title>Node14&#45;&gt;Node10</title>
<g id="a_edge23_Node000014_Node000010"><a xlink:title=" ">
<path fill="none" stroke="#63b8ff" d="M266.94,-329.78C264.13,-302.98 258.81,-220.26 292,-165 332.13,-98.18 424.89,-76.06 488.03,-68.84"/>
<polygon fill="#63b8ff" stroke="#63b8ff" points="488.71,-72.29 498.29,-67.77 487.98,-65.33 488.71,-72.29"/>
</a>
</g>
</g>
<!-- Node16&#45;&gt;Node2 -->
<g id="edge26_Node000016_Node000002" class="edge">
<title>Node16&#45;&gt;Node2</title>
<g id="a_edge26_Node000016_Node000002"><a xlink:title=" ">
<path fill="none" stroke="#63b8ff" d="M805.58,-338.24C956.55,-336.22 1499,-318.96 1499,-175.5 1499,-175.5 1499,-175.5 1499,-118.5 1499,-89.04 1502.96,-73.46 1480,-55 1437.94,-21.17 1070.5,-12.94 934.41,-11.04"/>
<polygon fill="#63b8ff" stroke="#63b8ff" points="934.3,-7.54 924.26,-10.9 934.21,-14.54 934.3,-7.54"/>
</a>
</g>
</g>
<!-- Node16&#45;&gt;Node12 -->
<g id="edge71_Node000016_Node000012" class="edge">
<title>Node16&#45;&gt;Node12</title>
<g id="a_edge71_Node000016_Node000012"><a xlink:title=" ">
<path fill="none" stroke="#63b8ff" d="M743.92,-329.84C692.82,-310.68 570.01,-264.63 511.31,-242.62"/>
<polygon fill="#63b8ff" stroke="#63b8ff" points="512.38,-239.28 501.79,-239.05 509.93,-245.84 512.38,-239.28"/>
</a>
</g>
</g>
<!-- Node17 -->
<g id="Node000017" class="node">
<title>Node17</title>
<g id="a_Node000017"><a xlink:href="Course_8h.html" target="_top" xlink:title=" ">
<polygon fill="white" stroke="#666666" points="938,-294 802,-294 802,-275 938,-275 938,-294"/>
<text text-anchor="middle" x="870" y="-282" font-family="Helvetica,sans-Serif" font-size="10.00">engine/courses/Course.h</text>
</a>
</g>
</g>
<!-- Node16&#45;&gt;Node17 -->
<g id="edge27_Node000016_Node000017" class="edge">
<title>Node16&#45;&gt;Node17</title>
<g id="a_edge27_Node000016_Node000017"><a xlink:title=" ">
<path fill="none" stroke="#63b8ff" d="M783.55,-329.98C799.89,-321.57 825.13,-308.59 844.13,-298.81"/>
<polygon fill="#63b8ff" stroke="#63b8ff" points="845.86,-301.86 853.15,-294.17 842.66,-295.63 845.86,-301.86"/>
</a>
</g>
</g>
<!-- Node32 -->
<g id="Node000032" class="node">
<title>Node32</title>
<g id="a_Node000032"><a xlink:href="HM__Intro_8h.html" target="_top" xlink:title=" ">
<polygon fill="white" stroke="#666666" points="1323,-129 1217,-129 1217,-110 1323,-110 1323,-129"/>
<text text-anchor="middle" x="1270" y="-117" font-family="Helvetica,sans-Serif" font-size="10.00">engine/HM_Intro.h</text>
</a>
</g>
</g>
<!-- Node16&#45;&gt;Node32 -->
<g id="edge66_Node000016_Node000032" class="edge">
<title>Node16&#45;&gt;Node32</title>
<g id="a_edge66_Node000016_Node000032"><a xlink:title=" ">
<path fill="none" stroke="#63b8ff" d="M805.87,-337.79C921.72,-334.78 1260.8,-319.16 1328,-239 1354.95,-206.85 1313.64,-160.04 1287.95,-136.01"/>
<polygon fill="#63b8ff" stroke="#63b8ff" points="1290.03,-133.17 1280.27,-129.05 1285.34,-138.36 1290.03,-133.17"/>
</a>
</g>
</g>
<!-- Node33 -->
<g id="Node000033" class="node">
<title>Node33</title>
<g id="a_Node000033"><a xlink:href="actor__types_8h.html" target="_top" xlink:title=" ">
<polygon fill="white" stroke="#666666" points="149.5,-129 66.5,-129 66.5,-110 149.5,-110 149.5,-129"/>
<text text-anchor="middle" x="108" y="-117" font-family="Helvetica,sans-Serif" font-size="10.00">actor_types.h</text>
</a>
</g>
</g>
<!-- Node16&#45;&gt;Node33 -->
<g id="edge72_Node000016_Node000033" class="edge">
<title>Node16&#45;&gt;Node33</title>
<g id="a_edge72_Node000016_Node000033"><a xlink:title=" ">
<path fill="none" stroke="#63b8ff" d="M728.38,-336.61C640.96,-331.94 430.39,-318.44 364,-294 263.29,-256.92 163.78,-171.97 124.99,-136.51"/>
<polygon fill="#63b8ff" stroke="#63b8ff" points="126.98,-133.58 117.26,-129.36 122.22,-138.72 126.98,-133.58"/>
</a>
</g>
</g>
<!-- Node17&#45;&gt;Node10 -->
<g id="edge65_Node000017_Node000010" class="edge">
<title>Node17&#45;&gt;Node10</title>
<g id="a_edge65_Node000017_Node000010"><a xlink:title=" ">
<path fill="none" stroke="#63b8ff" d="M801.73,-278.82C729.04,-272.81 619.67,-260.49 584,-239 534.77,-209.34 529,-184.99 516,-129 514.09,-120.77 513.18,-117.96 516,-110 519.75,-99.41 527.21,-89.49 534.37,-81.71"/>
<polygon fill="#63b8ff" stroke="#63b8ff" points="537.28,-83.76 541.84,-74.19 532.31,-78.82 537.28,-83.76"/>
</a>
</g>
</g>
<!-- Node17&#45;&gt;Node12 -->
<g id="edge31_Node000017_Node000012" class="edge">
<title>Node17&#45;&gt;Node12</title>
<g id="a_edge31_Node000017_Node000012"><a xlink:title=" ">
<path fill="none" stroke="#63b8ff" d="M801.88,-275.94C731.98,-267.9 620.15,-254.25 524,-239 522.9,-238.83 521.79,-238.64 520.66,-238.46"/>
<polygon fill="#63b8ff" stroke="#63b8ff" points="520.88,-234.94 510.43,-236.68 519.68,-241.84 520.88,-234.94"/>
</a>
</g>
</g>
<!-- Node17&#45;&gt;Node15 -->
<g id="edge49_Node000017_Node000015" class="edge">
<title>Node17&#45;&gt;Node15</title>
<g id="a_edge49_Node000017_Node000015"><a xlink:title=" ">
<path fill="none" stroke="#63b8ff" d="M938.25,-276.76C1013.19,-269.04 1136.97,-255.32 1243,-239 1244.28,-238.8 1245.58,-238.6 1246.9,-238.38"/>
<polygon fill="#63b8ff" stroke="#63b8ff" points="1247.8,-241.78 1257.06,-236.63 1246.61,-234.88 1247.8,-241.78"/>
</a>
</g>
</g>
<!-- Node18 -->
<g id="Node000018" class="node">
<title>Node18</title>
<g id="a_Node000018"><a xlink:title=" ">
<polygon fill="#e0e0e0" stroke="#999999" points="1123,-239 985,-239 985,-220 1123,-220 1123,-239"/>
<text text-anchor="middle" x="1054" y="-227" font-family="Helvetica,sans-Serif" font-size="10.00">libultraship/libultraship.h</text>
</a>
</g>
</g>
<!-- Node17&#45;&gt;Node18 -->
<g id="edge28_Node000017_Node000018" class="edge">
<title>Node17&#45;&gt;Node18</title>
<g id="a_edge28_Node000017_Node000018"><a xlink:title=" ">
<path fill="none" stroke="#63b8ff" d="M899.56,-274.98C930.72,-266.01 979.97,-251.82 1014.46,-241.89"/>
<polygon fill="#63b8ff" stroke="#63b8ff" points="1015.57,-245.21 1024.21,-239.08 1013.63,-238.49 1015.57,-245.21"/>
</a>
</g>
</g>
<!-- Node19 -->
<g id="Node000019" class="node">
<title>Node19</title>
<g id="a_Node000019"><a xlink:href="CoreMath_8h.html" target="_top" xlink:title=" ">
<polygon fill="white" stroke="#666666" points="1160.5,-74 1087.5,-74 1087.5,-55 1160.5,-55 1160.5,-74"/>
<text text-anchor="middle" x="1124" y="-62" font-family="Helvetica,sans-Serif" font-size="10.00">CoreMath.h</text>
</a>
</g>
</g>
<!-- Node17&#45;&gt;Node19 -->
<g id="edge29_Node000017_Node000019" class="edge">
<title>Node17&#45;&gt;Node19</title>
<g id="a_edge29_Node000017_Node000019"><a xlink:title=" ">
<path fill="none" stroke="#63b8ff" d="M884.37,-274.82C904.72,-262.54 943.13,-239.43 976,-220 1045.1,-179.15 1092.02,-198.6 1132,-129 1139.86,-115.31 1136.54,-97.27 1132.02,-83.91"/>
<polygon fill="#63b8ff" stroke="#63b8ff" points="1135.2,-82.44 1128.33,-74.38 1128.67,-84.97 1135.2,-82.44"/>
</a>
</g>
</g>
<!-- Node20 -->
<g id="Node000020" class="node">
<title>Node20</title>
<g id="a_Node000020"><a xlink:href="course__offsets_8h.html" target="_top" xlink:title=" ">
<polygon fill="white" stroke="#666666" points="1257,-184 1161,-184 1161,-165 1257,-165 1257,-184"/>
<text text-anchor="middle" x="1209" y="-172" font-family="Helvetica,sans-Serif" font-size="10.00">course_offsets.h</text>
</a>
</g>
</g>
<!-- Node17&#45;&gt;Node20 -->
<g id="edge32_Node000017_Node000020" class="edge">
<title>Node17&#45;&gt;Node20</title>
<g id="a_edge32_Node000017_Node000020"><a xlink:title=" ">
<path fill="none" stroke="#63b8ff" d="M938.22,-279.33C1032.31,-272.88 1192.38,-259.08 1210,-239 1220.66,-226.85 1218.78,-207.79 1215.23,-193.72"/>
<polygon fill="#63b8ff" stroke="#63b8ff" points="1218.58,-192.71 1212.37,-184.13 1211.88,-194.71 1218.58,-192.71"/>
</a>
</g>
</g>
<!-- Node24 -->
<g id="Node000024" class="node">
<title>Node24</title>
<g id="a_Node000024"><a xlink:href="src_2data_2some__data_8h.html" target="_top" xlink:title=" ">
<polygon fill="white" stroke="#666666" points="697,-239 593,-239 593,-220 697,-220 697,-239"/>
<text text-anchor="middle" x="645" y="-227" font-family="Helvetica,sans-Serif" font-size="10.00">data/some_data.h</text>
</a>
</g>
</g>
<!-- Node17&#45;&gt;Node24 -->
<g id="edge41_Node000017_Node000024" class="edge">
<title>Node17&#45;&gt;Node24</title>
<g id="a_edge41_Node000017_Node000024"><a xlink:title=" ">
<path fill="none" stroke="#63b8ff" d="M833.85,-274.98C795.09,-265.86 733.45,-251.33 691.2,-241.38"/>
<polygon fill="#63b8ff" stroke="#63b8ff" points="691.97,-237.97 681.43,-239.08 690.36,-244.78 691.97,-237.97"/>
</a>
</g>
</g>
<!-- Node27 -->
<g id="Node000027" class="node">
<title>Node27</title>
<g id="a_Node000027"><a xlink:href="bomb__kart_8h.html" target="_top" xlink:title=" ">
<polygon fill="white" stroke="#666666" points="965.5,-184 888.5,-184 888.5,-165 965.5,-165 965.5,-184"/>
<text text-anchor="middle" x="927" y="-172" font-family="Helvetica,sans-Serif" font-size="10.00">bomb_kart.h</text>
</a>
</g>
</g>
<!-- Node17&#45;&gt;Node27 -->
<g id="edge50_Node000017_Node000027" class="edge">
<title>Node17&#45;&gt;Node27</title>
<g id="a_edge50_Node000017_Node000027"><a xlink:title=" ">
<path fill="none" stroke="#63b8ff" d="M876.49,-274.95C882.94,-266.21 892.88,-252.1 900,-239 907.95,-224.36 915.23,-206.89 920.22,-193.98"/>
<polygon fill="#63b8ff" stroke="#63b8ff" points="923.59,-194.97 923.84,-184.37 917.04,-192.5 923.59,-194.97"/>
</a>
</g>
</g>
<!-- Node28 -->
<g id="Node000028" class="node">
<title>Node28</title>
<g id="a_Node000028"><a xlink:href="path__spawn__metadata_8h.html" target="_top" xlink:title=" ">
<polygon fill="white" stroke="#666666" points="890.5,-239 753.5,-239 753.5,-220 890.5,-220 890.5,-239"/>
<text text-anchor="middle" x="822" y="-227" font-family="Helvetica,sans-Serif" font-size="10.00">path_spawn_metadata.h</text>
</a>
</g>
</g>
<!-- Node17&#45;&gt;Node28 -->
<g id="edge53_Node000017_Node000028" class="edge">
<title>Node17&#45;&gt;Node28</title>
<g id="a_edge53_Node000017_Node000028"><a xlink:title=" ">
<path fill="none" stroke="#63b8ff" d="M862.07,-274.75C855.15,-267.11 844.93,-255.82 836.55,-246.56"/>
<polygon fill="#63b8ff" stroke="#63b8ff" points="839.09,-244.15 829.78,-239.09 833.9,-248.85 839.09,-244.15"/>
</a>
</g>
</g>
<!-- Node29 -->
<g id="Node000029" class="node">
<title>Node29</title>
<g id="a_Node000029"><a xlink:href="waypoints_8h.html" target="_top" xlink:title=" ">
<polygon fill="white" stroke="#666666" points="794,-184 718,-184 718,-165 794,-165 794,-184"/>
<text text-anchor="middle" x="756" y="-172" font-family="Helvetica,sans-Serif" font-size="10.00">waypoints.h</text>
</a>
</g>
</g>
<!-- Node17&#45;&gt;Node29 -->
<g id="edge63_Node000017_Node000029" class="edge">
<title>Node17&#45;&gt;Node29</title>
<g id="a_edge63_Node000017_Node000029"><a xlink:title=" ">
<path fill="none" stroke="#63b8ff" d="M801.78,-274.94C780.04,-268.62 758.21,-257.73 745,-239 735.65,-225.74 740.42,-207.12 746.32,-193.48"/>
<polygon fill="#63b8ff" stroke="#63b8ff" points="749.61,-194.7 750.83,-184.18 743.32,-191.65 749.61,-194.7"/>
</a>
</g>
</g>
<!-- Node31 -->
<g id="Node000031" class="node">
<title>Node31</title>
<g id="a_Node000031"><a xlink:href="sounds_8h.html" target="_top" xlink:title=" ">
<polygon fill="white" stroke="#666666" points="1201,-239 1141,-239 1141,-220 1201,-220 1201,-239"/>
<text text-anchor="middle" x="1171" y="-227" font-family="Helvetica,sans-Serif" font-size="10.00">sounds.h</text>
</a>
</g>
</g>
<!-- Node17&#45;&gt;Node31 -->
<g id="edge64_Node000017_Node000031" class="edge">
<title>Node17&#45;&gt;Node31</title>
<g id="a_edge64_Node000017_Node000031"><a xlink:title=" ">
<path fill="none" stroke="#63b8ff" d="M924.58,-274.99C975.49,-266.87 1053.8,-253.96 1130.91,-239.14"/>
<polygon fill="#63b8ff" stroke="#63b8ff" points="1131.64,-242.56 1140.79,-237.23 1130.31,-235.69 1131.64,-242.56"/>
</a>
</g>
</g>
<!-- Node19&#45;&gt;Node2 -->
<g id="edge30_Node000019_Node000002" class="edge">
<title>Node19&#45;&gt;Node2</title>
<g id="a_edge30_Node000019_Node000002"><a xlink:title=" ">
<path fill="none" stroke="#63b8ff" d="M1087.29,-55.39C1045.9,-46.25 978.44,-31.36 932.69,-21.25"/>
<polygon fill="#63b8ff" stroke="#63b8ff" points="933.22,-17.78 922.7,-19.05 931.71,-24.62 933.22,-17.78"/>
</a>
</g>
</g>
<!-- Node20&#45;&gt;Node2 -->
<g id="edge33_Node000020_Node000002" class="edge">
<title>Node20&#45;&gt;Node2</title>
<g id="a_edge33_Node000020_Node000002"><a xlink:title=" ">
<path fill="none" stroke="#63b8ff" d="M1209,-164.68C1208.5,-142.43 1203.86,-83.73 1170,-55 1135.35,-25.6 1006.92,-15.53 934.5,-12.15"/>
<polygon fill="#63b8ff" stroke="#63b8ff" points="934.39,-8.64 924.24,-11.7 934.08,-15.64 934.39,-8.64"/>
</a>
</g>
</g>
<!-- Node20&#45;&gt;Node7 -->
<g id="edge34_Node000020_Node000007" class="edge">
<title>Node20&#45;&gt;Node7</title>
<g id="a_edge34_Node000020_Node000007"><a xlink:title=" ">
<path fill="none" stroke="#63b8ff" d="M1257.03,-172.46C1326.69,-169.86 1450.63,-160.77 1480,-129 1505.03,-101.93 1500,-54.96 1494.68,-29.03"/>
<polygon fill="#63b8ff" stroke="#63b8ff" points="1498.03,-28 1492.39,-19.03 1491.21,-29.56 1498.03,-28"/>
</a>
</g>
</g>
<!-- Node20&#45;&gt;Node8 -->
<g id="edge35_Node000020_Node000008" class="edge">
<title>Node20&#45;&gt;Node8</title>
<g id="a_edge35_Node000020_Node000008"><a xlink:title=" ">
<path fill="none" stroke="#63b8ff" d="M1257.34,-166.18C1298.14,-158.9 1351.94,-146.31 1365,-129 1377.22,-112.8 1359.65,-93.38 1343.42,-80.32"/>
<polygon fill="#63b8ff" stroke="#63b8ff" points="1345.31,-77.36 1335.23,-74.12 1341.09,-82.94 1345.31,-77.36"/>
</a>
</g>
</g>
<!-- Node21 -->
<g id="Node000021" class="node">
<title>Node21</title>
<g id="a_Node000021"><a xlink:href="other__textures_8h.html" target="_top" xlink:title=" ">
<polygon fill="white" stroke="#666666" points="974.5,-129 843.5,-129 843.5,-110 974.5,-110 974.5,-129"/>
<text text-anchor="middle" x="909" y="-117" font-family="Helvetica,sans-Serif" font-size="10.00">assets/other_textures.h</text>
</a>
</g>
</g>
<!-- Node20&#45;&gt;Node21 -->
<g id="edge36_Node000020_Node000021" class="edge">
<title>Node20&#45;&gt;Node21</title>
<g id="a_edge36_Node000020_Node000021"><a xlink:title=" ">
<path fill="none" stroke="#63b8ff" d="M1160.8,-164.98C1108.25,-155.7 1024.15,-140.84 967.77,-130.88"/>
<polygon fill="#63b8ff" stroke="#63b8ff" points="968.03,-127.38 957.58,-129.08 966.82,-134.27 968.03,-127.38"/>
</a>
</g>
</g>
<!-- Node23 -->
<g id="Node000023" class="node">
<title>Node23</title>
<g id="a_Node000023"><a xlink:href="animation_8h.html" target="_top" xlink:title=" ">
<polygon fill="white" stroke="#666666" points="825.5,-129 750.5,-129 750.5,-110 825.5,-110 825.5,-129"/>
<text text-anchor="middle" x="788" y="-117" font-family="Helvetica,sans-Serif" font-size="10.00">animation.h</text>
</a>
</g>
</g>
<!-- Node20&#45;&gt;Node23 -->
<g id="edge39_Node000020_Node000023" class="edge">
<title>Node20&#45;&gt;Node23</title>
<g id="a_edge39_Node000020_Node000023"><a xlink:title=" ">
<path fill="none" stroke="#63b8ff" d="M1160.76,-168.7C1091.28,-161.59 958.78,-147.24 835.66,-129.01"/>
<polygon fill="#63b8ff" stroke="#63b8ff" points="836.08,-125.54 825.68,-127.52 835.05,-132.46 836.08,-125.54"/>
</a>
</g>
</g>
<!-- Node21&#45;&gt;Node2 -->
<g id="edge37_Node000021_Node000002" class="edge">
<title>Node21&#45;&gt;Node2</title>
<g id="a_edge37_Node000021_Node000002"><a xlink:title=" ">
<path fill="none" stroke="#63b8ff" d="M906.95,-109.66C902.89,-92.09 893.71,-52.45 888.27,-28.95"/>
<polygon fill="#63b8ff" stroke="#63b8ff" points="891.67,-28.11 886,-19.16 884.85,-29.69 891.67,-28.11"/>
</a>
</g>
</g>
<!-- Node22 -->
<g id="Node000022" class="node">
<title>Node22</title>
<g id="a_Node000022"><a xlink:href="align__asset__macro_8h.html" target="_top" xlink:title=" ">
<polygon fill="white" stroke="#666666" points="1029.5,-74 912.5,-74 912.5,-55 1029.5,-55 1029.5,-74"/>
<text text-anchor="middle" x="971" y="-62" font-family="Helvetica,sans-Serif" font-size="10.00">align_asset_macro.h</text>
</a>
</g>
</g>
<!-- Node21&#45;&gt;Node22 -->
<g id="edge38_Node000021_Node000022" class="edge">
<title>Node21&#45;&gt;Node22</title>
<g id="a_edge38_Node000021_Node000022"><a xlink:title=" ">
<path fill="none" stroke="#63b8ff" d="M918.96,-109.98C928.13,-102.15 941.94,-90.34 953.03,-80.86"/>
<polygon fill="#63b8ff" stroke="#63b8ff" points="955.53,-83.33 960.86,-74.17 950.98,-78.01 955.53,-83.33"/>
</a>
</g>
</g>
<!-- Node23&#45;&gt;Node10 -->
<g id="edge40_Node000023_Node000010" class="edge">
<title>Node23&#45;&gt;Node10</title>
<g id="a_edge40_Node000023_Node000010"><a xlink:title=" ">
<path fill="none" stroke="#63b8ff" d="M750.34,-110.04C709.54,-100.88 644.32,-86.23 599.89,-76.26"/>
<polygon fill="#63b8ff" stroke="#63b8ff" points="600.44,-72.79 589.91,-74.01 598.9,-79.62 600.44,-72.79"/>
</a>
</g>
</g>
<!-- Node24&#45;&gt;Node8 -->
<g id="edge42_Node000024_Node000008" class="edge">
<title>Node24&#45;&gt;Node8</title>
<g id="a_edge42_Node000024_Node000008"><a xlink:title=" ">
<path fill="none" stroke="#63b8ff" d="M650.46,-219.98C660.21,-205.61 682.13,-176.99 709,-165 772.32,-136.75 1284.41,-179.42 1332,-129 1343.34,-116.98 1338.22,-97.63 1331.88,-83.44"/>
<polygon fill="#63b8ff" stroke="#63b8ff" points="1334.87,-81.58 1327.27,-74.2 1328.61,-84.71 1334.87,-81.58"/>
</a>
</g>
</g>
<!-- Node24&#45;&gt;Node21 -->
<g id="edge45_Node000024_Node000021" class="edge">
<title>Node24&#45;&gt;Node21</title>
<g id="a_edge45_Node000024_Node000021"><a xlink:title=" ">
<path fill="none" stroke="#63b8ff" d="M646.62,-219.96C649.72,-206.1 657.87,-178.86 676,-165 689,-155.06 775.73,-140.3 839.59,-130.54"/>
<polygon fill="#63b8ff" stroke="#63b8ff" points="840.26,-133.98 849.63,-129.02 839.22,-127.06 840.26,-133.98"/>
</a>
</g>
</g>
<!-- Node25 -->
<g id="Node000025" class="node">
<title>Node25</title>
<g id="a_Node000025"><a xlink:href="spline_8h.html" target="_top" xlink:title=" ">
<polygon fill="white" stroke="#666666" points="579.5,-129 524.5,-129 524.5,-110 579.5,-110 579.5,-129"/>
<text text-anchor="middle" x="552" y="-117" font-family="Helvetica,sans-Serif" font-size="10.00">spline.h</text>
</a>
</g>
</g>
<!-- Node24&#45;&gt;Node25 -->
<g id="edge43_Node000024_Node000025" class="edge">
<title>Node24&#45;&gt;Node25</title>
<g id="a_edge43_Node000024_Node000025"><a xlink:title=" ">
<path fill="none" stroke="#63b8ff" d="M607.27,-219.97C587.91,-213.51 565.93,-202.46 554,-184 545.49,-170.83 545.81,-152.7 547.79,-139.18"/>
<polygon fill="#63b8ff" stroke="#63b8ff" points="551.27,-139.6 549.67,-129.12 544.39,-138.31 551.27,-139.6"/>
</a>
</g>
</g>
<!-- Node26 -->
<g id="Node000026" class="node">
<title>Node26</title>
<g id="a_Node000026"><a xlink:href="objects_8h.html" target="_top" xlink:title=" ">
<polygon fill="white" stroke="#666666" points="623.5,-184 562.5,-184 562.5,-165 623.5,-165 623.5,-184"/>
<text text-anchor="middle" x="593" y="-172" font-family="Helvetica,sans-Serif" font-size="10.00">objects.h</text>
</a>
</g>
</g>
<!-- Node24&#45;&gt;Node26 -->
<g id="edge46_Node000024_Node000026" class="edge">
<title>Node24&#45;&gt;Node26</title>
<g id="a_edge46_Node000024_Node000026"><a xlink:title=" ">
<path fill="none" stroke="#63b8ff" d="M636.41,-219.75C628.84,-212.03 617.62,-200.6 608.49,-191.28"/>
<polygon fill="#63b8ff" stroke="#63b8ff" points="610.93,-188.78 601.43,-184.09 605.93,-193.68 610.93,-188.78"/>
</a>
</g>
</g>
<!-- Node25&#45;&gt;Node10 -->
<g id="edge44_Node000025_Node000010" class="edge">
<title>Node25&#45;&gt;Node10</title>
<g id="a_edge44_Node000025_Node000010"><a xlink:title=" ">
<path fill="none" stroke="#63b8ff" d="M552,-109.75C552,-102.8 552,-92.85 552,-84.13"/>
<polygon fill="#63b8ff" stroke="#63b8ff" points="555.5,-84.09 552,-74.09 548.5,-84.09 555.5,-84.09"/>
</a>
</g>
</g>
<!-- Node26&#45;&gt;Node10 -->
<g id="edge48_Node000026_Node000010" class="edge">
<title>Node26&#45;&gt;Node10</title>
<g id="a_edge48_Node000026_Node000010"><a xlink:title=" ">
<path fill="none" stroke="#63b8ff" d="M594.09,-164.92C595.34,-152.36 596.34,-128.48 589,-110 584.71,-99.22 576.76,-89.1 569.33,-81.25"/>
<polygon fill="#63b8ff" stroke="#63b8ff" points="571.79,-78.76 562.22,-74.22 566.86,-83.74 571.79,-78.76"/>
</a>
</g>
</g>
<!-- Node26&#45;&gt;Node25 -->
<g id="edge47_Node000026_Node000025" class="edge">
<title>Node26&#45;&gt;Node25</title>
<g id="a_edge47_Node000026_Node000025"><a xlink:title=" ">
<path fill="none" stroke="#63b8ff" d="M586.23,-164.75C580.44,-157.26 571.94,-146.28 564.86,-137.13"/>
<polygon fill="#63b8ff" stroke="#63b8ff" points="567.53,-134.86 558.64,-129.09 561.99,-139.14 567.53,-134.86"/>
</a>
</g>
</g>
<!-- Node27&#45;&gt;Node5 -->
<g id="edge52_Node000027_Node000005" class="edge">
<title>Node27&#45;&gt;Node5</title>
<g id="a_edge52_Node000027_Node000005"><a xlink:title=" ">
<path fill="none" stroke="#63b8ff" d="M965.68,-169.65C1042.03,-162.03 1217.52,-144.43 1365,-129 1378.75,-127.56 1393.84,-125.95 1407.11,-124.51"/>
<polygon fill="#63b8ff" stroke="#63b8ff" points="1407.74,-127.97 1417.31,-123.41 1406.99,-121.01 1407.74,-127.97"/>
</a>
</g>
</g>
<!-- Node27&#45;&gt;Node10 -->
<g id="edge51_Node000027_Node000010" class="edge">
<title>Node27&#45;&gt;Node10</title>
<g id="a_edge51_Node000027_Node000010"><a xlink:title=" ">
<path fill="none" stroke="#63b8ff" d="M888.19,-166.19C850.38,-158.59 791.51,-145.51 742,-129 721.79,-122.26 718,-117.34 698,-110 663.29,-97.26 623.04,-85.19 593.6,-76.84"/>
<polygon fill="#63b8ff" stroke="#63b8ff" points="594.24,-73.38 583.66,-74.05 592.34,-80.12 594.24,-73.38"/>
</a>
</g>
</g>
<!-- Node28&#45;&gt;Node10 -->
<g id="edge56_Node000028_Node000010" class="edge">
<title>Node28&#45;&gt;Node10</title>
<g id="a_edge56_Node000028_Node000010"><a xlink:title=" ">
<path fill="none" stroke="#63b8ff" d="M821.82,-219.88C821.07,-206.39 817.67,-180.26 803,-165 768.81,-129.43 742.63,-150.02 698,-129 683.38,-122.12 681.48,-117.17 667,-110 641.26,-97.26 610.92,-85.65 587.87,-77.49"/>
<polygon fill="#63b8ff" stroke="#63b8ff" points="588.74,-74.09 578.15,-74.1 586.44,-80.7 588.74,-74.09"/>
</a>
</g>
</g>
<!-- Node28&#45;&gt;Node27 -->
<g id="edge62_Node000028_Node000027" class="edge">
<title>Node28&#45;&gt;Node27</title>
<g id="a_edge62_Node000028_Node000027"><a xlink:title=" ">
<path fill="none" stroke="#63b8ff" d="M838.87,-219.98C855.61,-211.54 881.5,-198.47 900.89,-188.68"/>
<polygon fill="#63b8ff" stroke="#63b8ff" points="902.47,-191.8 909.82,-184.17 899.32,-185.55 902.47,-191.8"/>
</a>
</g>
</g>
<!-- Node28&#45;&gt;Node29 -->
<g id="edge54_Node000028_Node000029" class="edge">
<title>Node28&#45;&gt;Node29</title>
<g id="a_edge54_Node000028_Node000029"><a xlink:title=" ">
<path fill="none" stroke="#63b8ff" d="M811.4,-219.98C801.54,-212.07 786.65,-200.11 774.78,-190.58"/>
<polygon fill="#63b8ff" stroke="#63b8ff" points="776.79,-187.7 766.8,-184.17 772.4,-193.16 776.79,-187.7"/>
</a>
</g>
</g>
<!-- Node30 -->
<g id="Node000030" class="node">
<title>Node30</title>
<g id="a_Node000030"><a xlink:href="common__data_8h.html" target="_top" xlink:title=" ">
<polygon fill="white" stroke="#666666" points="1123,-129 993,-129 993,-110 1123,-110 1123,-129"/>
<text text-anchor="middle" x="1058" y="-117" font-family="Helvetica,sans-Serif" font-size="10.00">assets/common_data.h</text>
</a>
</g>
</g>
<!-- Node28&#45;&gt;Node30 -->
<g id="edge57_Node000028_Node000030" class="edge">
<title>Node28&#45;&gt;Node30</title>
<g id="a_edge57_Node000028_Node000030"><a xlink:title=" ">
<path fill="none" stroke="#63b8ff" d="M827.58,-219.6C836.77,-205.72 856.41,-179.07 880,-165 910.99,-146.52 949.41,-135.68 982.61,-129.34"/>
<polygon fill="#63b8ff" stroke="#63b8ff" points="983.52,-132.73 992.74,-127.51 982.27,-125.84 983.52,-132.73"/>
</a>
</g>
</g>
<!-- Node29&#45;&gt;Node10 -->
<g id="edge55_Node000029_Node000010" class="edge">
<title>Node29&#45;&gt;Node10</title>
<g id="a_edge55_Node000029_Node000010"><a xlink:title=" ">
<path fill="none" stroke="#63b8ff" d="M739.15,-164.88C721.78,-155.98 693.94,-141.63 670,-129 637.63,-111.92 600.48,-91.85 576.65,-78.92"/>
<polygon fill="#63b8ff" stroke="#63b8ff" points="578.07,-75.7 567.61,-74 574.73,-81.85 578.07,-75.7"/>
</a>
</g>
</g>
<!-- Node30&#45;&gt;Node2 -->
<g id="edge59_Node000030_Node000002" class="edge">
<title>Node30&#45;&gt;Node2</title>
<g id="a_edge59_Node000030_Node000002"><a xlink:title=" ">
<path fill="none" stroke="#63b8ff" d="M1057.91,-109.79C1057.28,-96.18 1054.06,-69.89 1039,-55 1011.4,-27.7 968.23,-16.92 934.45,-12.77"/>
<polygon fill="#63b8ff" stroke="#63b8ff" points="934.61,-9.27 924.29,-11.69 933.86,-16.23 934.61,-9.27"/>
</a>
</g>
</g>
<!-- Node30&#45;&gt;Node8 -->
<g id="edge58_Node000030_Node000008" class="edge">
<title>Node30&#45;&gt;Node8</title>
<g id="a_edge58_Node000030_Node000008"><a xlink:title=" ">
<path fill="none" stroke="#63b8ff" d="M1100.42,-109.98C1147.46,-100.54 1223.25,-85.32 1272.85,-75.37"/>
<polygon fill="#63b8ff" stroke="#63b8ff" points="1273.59,-78.79 1282.71,-73.39 1272.21,-71.93 1273.59,-78.79"/>
</a>
</g>
</g>
<!-- Node30&#45;&gt;Node10 -->
<g id="edge60_Node000030_Node000010" class="edge">
<title>Node30&#45;&gt;Node10</title>
<g id="a_edge60_Node000030_Node000010"><a xlink:title=" ">
<path fill="none" stroke="#63b8ff" d="M992.63,-110.95C989.72,-110.63 986.83,-110.31 984,-110 853.23,-95.75 700.05,-80.26 615.75,-71.83"/>
<polygon fill="#63b8ff" stroke="#63b8ff" points="615.86,-68.32 605.56,-70.81 615.17,-75.29 615.86,-68.32"/>
</a>
</g>
</g>
<!-- Node30&#45;&gt;Node22 -->
<g id="edge61_Node000030_Node000022" class="edge">
<title>Node30&#45;&gt;Node22</title>
<g id="a_edge61_Node000030_Node000022"><a xlink:title=" ">
<path fill="none" stroke="#63b8ff" d="M1044.02,-109.98C1030.53,-101.77 1009.87,-89.18 993.96,-79.49"/>
<polygon fill="#63b8ff" stroke="#63b8ff" points="995.59,-76.38 985.23,-74.17 991.95,-82.36 995.59,-76.38"/>
</a>
</g>
</g>
<!-- Node32&#45;&gt;Node2 -->
<g id="edge67_Node000032_Node000002" class="edge">
<title>Node32&#45;&gt;Node2</title>
<g id="a_edge67_Node000032_Node000002"><a xlink:title=" ">
<path fill="none" stroke="#63b8ff" d="M1263.74,-109.75C1253.06,-95.59 1229.86,-67.93 1203,-55 1156.59,-32.66 1011.77,-19.43 934.22,-13.76"/>
<polygon fill="#63b8ff" stroke="#63b8ff" points="934.42,-10.27 924.19,-13.05 933.92,-17.25 934.42,-10.27"/>
</a>
</g>
</g>
<!-- Node32&#45;&gt;Node8 -->
<g id="edge68_Node000032_Node000008" class="edge">
<title>Node32&#45;&gt;Node8</title>
<g id="a_edge68_Node000032_Node000008"><a xlink:title=" ">
<path fill="none" stroke="#63b8ff" d="M1278.59,-109.75C1286.16,-102.03 1297.38,-90.6 1306.51,-81.28"/>
<polygon fill="#63b8ff" stroke="#63b8ff" points="1309.07,-83.68 1313.57,-74.09 1304.07,-78.78 1309.07,-83.68"/>
</a>
</g>
</g>
<!-- Node32&#45;&gt;Node10 -->
<g id="edge70_Node000032_Node000010" class="edge">
<title>Node32&#45;&gt;Node10</title>
<g id="a_edge70_Node000032_Node000010"><a xlink:title=" ">
<path fill="none" stroke="#63b8ff" d="M1216.91,-114.58C1087.46,-105.03 755.95,-80.55 615.94,-70.22"/>
<polygon fill="#63b8ff" stroke="#63b8ff" points="616.02,-66.72 605.79,-69.47 615.51,-73.7 616.02,-66.72"/>
</a>
</g>
</g>
<!-- Node32&#45;&gt;Node19 -->
<g id="edge69_Node000032_Node000019" class="edge">
<title>Node32&#45;&gt;Node19</title>
<g id="a_edge69_Node000032_Node000019"><a xlink:title=" ">
<path fill="none" stroke="#63b8ff" d="M1246.54,-109.98C1222.42,-101.23 1184.63,-87.51 1157.4,-77.62"/>
<polygon fill="#63b8ff" stroke="#63b8ff" points="1158.48,-74.29 1147.88,-74.17 1156.09,-80.87 1158.48,-74.29"/>
</a>
</g>
</g>
<!-- Node33&#45;&gt;Node2 -->
<g id="edge73_Node000033_Node000002" class="edge">
<title>Node33&#45;&gt;Node2</title>
<g id="a_edge73_Node000033_Node000002"><a xlink:title=" ">
<path fill="none" stroke="#63b8ff" d="M125.96,-109.89C156.57,-95.68 221.14,-67.6 279,-55 384.35,-32.05 708.17,-17.35 833.62,-12.38"/>
<polygon fill="#63b8ff" stroke="#63b8ff" points="833.87,-15.87 843.72,-11.98 833.59,-8.88 833.87,-15.87"/>
</a>
</g>
</g>
<!-- Node33&#45;&gt;Node3 -->
<g id="edge74_Node000033_Node000003" class="edge">
<title>Node33&#45;&gt;Node3</title>
<g id="a_edge74_Node000033_Node000003"><a xlink:title=" ">
<path fill="none" stroke="#63b8ff" d="M104.04,-109.75C100.79,-102.57 96.08,-92.18 92.05,-83.27"/>
<polygon fill="#63b8ff" stroke="#63b8ff" points="95.2,-81.75 87.89,-74.09 88.83,-84.64 95.2,-81.75"/>
</a>
</g>
</g>
<!-- Node33&#45;&gt;Node10 -->
<g id="edge75_Node000033_Node000010" class="edge">
<title>Node33&#45;&gt;Node10</title>
<g id="a_edge75_Node000033_Node000010"><a xlink:title=" ">
<path fill="none" stroke="#63b8ff" d="M149.72,-111.36C152.86,-110.88 155.98,-110.42 159,-110 274.84,-93.8 410.54,-79.45 488.37,-71.67"/>
<polygon fill="#63b8ff" stroke="#63b8ff" points="488.89,-75.14 498.49,-70.66 488.19,-68.17 488.89,-75.14"/>
</a>
</g>
</g>
<!-- Node34 -->
<g id="Node000034" class="node">
<title>Node34</title>
<g id="a_Node000034"><a xlink:title=" ">
<polygon fill="#e0e0e0" stroke="#999999" points="189,-74 133,-74 133,-55 189,-55 189,-74"/>
<text text-anchor="middle" x="161" y="-62" font-family="Helvetica,sans-Serif" font-size="10.00">assert.h</text>
</a>
</g>
</g>
<!-- Node33&#45;&gt;Node34 -->
<g id="edge76_Node000033_Node000034" class="edge">
<title>Node33&#45;&gt;Node34</title>
<g id="a_edge76_Node000033_Node000034"><a xlink:title=" ">
<path fill="none" stroke="#63b8ff" d="M116.75,-109.75C124.47,-102.03 135.9,-90.6 145.22,-81.28"/>
<polygon fill="#63b8ff" stroke="#63b8ff" points="147.81,-83.64 152.41,-74.09 142.86,-78.69 147.81,-83.64"/>
</a>
</g>
</g>
</g>
</svg>
