<?xml version="1.0" encoding="UTF-8" standalone="no"?>
<!DOCTYPE svg PUBLIC "-//W3C//DTD SVG 1.1//EN"
 "http://www.w3.org/Graphics/SVG/1.1/DTD/svg11.dtd">
<!-- Generated by graphviz version 2.43.0 (0)
 -->
<!-- Title: setup_race Pages: 1 -->
<!--zoomable 1312 -->

<svg id="main" version="1.1" xmlns="http://www.w3.org/2000/svg" xmlns:xlink="http://www.w3.org/1999/xlink" xml:space="preserve" onload="init(evt)">

<style type="text/css"><![CDATA[
.node, .edge {opacity: 0.7;}
.node.selected, .edge.selected {opacity: 1;}
.edge:hover path { stroke: red; }
.edge:hover polygon { stroke: red; fill: red; }
]]></style>

<defs>
  <circle id="rim" cx="0" cy="0" r="7"/>
  <circle id="rim2" cx="0" cy="0" r="3.5"/>
  <g id="zoomPlus">
    <use xlink:href="#rim" fill="#404040"><set attributeName="fill" to="#808080" begin="zoomplus.mouseover" end="zoomplus.mouseout"/></use>
    <path d="M-4,0h8M0,-4v8" fill="none" stroke="white" stroke-width="1.5" pointer-events="none"/>
  </g>
  <g id="zoomMin">
    <use xlink:href="#rim" fill="#404040"><set attributeName="fill" to="#808080" begin="zoomminus.mouseover" end="zoomminus.mouseout"/></use>
    <path d="M-4,0h8" fill="none" stroke="white" stroke-width="1.5" pointer-events="none"/>
  </g>
  <g id="arrowUp" transform="translate(30 24)">
    <use xlink:href="#rim"/>
    <path pointer-events="none" fill="none" stroke="white" stroke-width="1.5" d="M0,-3.0v7 M-2.5,-0.5L0,-3.0L2.5,-0.5"/>
  </g>
  <g id="arrowRight" transform="rotate(90) translate(36 -43)">
    <use xlink:href="#rim"/>
    <path pointer-events="none" fill="none" stroke="white" stroke-width="1.5" d="M0,-3.0v7 M-2.5,-0.5L0,-3.0L2.5,-0.5"/>
  </g>
  <g id="arrowDown" transform="rotate(180) translate(-30 -48)">
    <use xlink:href="#rim"/>
    <path pointer-events="none" fill="none" stroke="white" stroke-width="1.5" d="M0,-3.0v7 M-2.5,-0.5L0,-3.0L2.5,-0.5"/>
  </g>
  <g id="arrowLeft" transform="rotate(270) translate(-36 17)">
    <use xlink:href="#rim"/>
    <path pointer-events="none" fill="none" stroke="white" stroke-width="1.5" d="M0,-3.0v7 M-2.5,-0.5L0,-3.0L2.5,-0.5"/>
  </g>
  <g id="resetDef">
    <use xlink:href="#rim2" fill="#404040"><set attributeName="fill" to="#808080" begin="reset.mouseover" end="reset.mouseout"/></use>
  </g>
</defs>
<script type="application/ecmascript">
var viewWidth = 544;
var viewHeight = 1312;
var sectionId = 'dynsection-9';
</script>
<script type="application/ecmascript" xlink:href="svg.min.js"/>
<svg id="graph" class="graph">
<g id="viewport">
<title>setup_race</title>
<!-- Node1 -->
<g id="Node000001" class="node">
<title>Node1</title>
<g id="a_Node000001"><a xlink:title=" ">
<polygon fill="#999999" stroke="#666666" points="70,-329 0,-329 0,-310 70,-310 70,-329"/>
<text text-anchor="middle" x="35" y="-317" font-family="Helvetica,sans-Serif" font-size="10.00">setup_race</text>
</a>
</g>
</g>
<!-- Node2 -->
<g id="Node000002" class="node">
<title>Node2</title>
<g id="a_Node000002"><a xlink:href="render__courses_8c.html#aac6d8578ed19549d2ac55e9998f99303" target="_top" xlink:title=" ">
<polygon fill="white" stroke="#666666" points="199.5,-1193 129.5,-1193 129.5,-1174 199.5,-1174 199.5,-1193"/>
<text text-anchor="middle" x="164.5" y="-1181" font-family="Helvetica,sans-Serif" font-size="10.00">course_init</text>
</a>
</g>
</g>
<!-- Node1&#45;&gt;Node2 -->
<g id="edge1_Node000001_Node000002" class="edge">
<title>Node1&#45;&gt;Node2</title>
<g id="a_edge1_Node000001_Node000002"><a xlink:title=" ">
<path fill="none" stroke="#63b8ff" d="M36.15,-329.01C37.65,-417.58 50.92,-1096.68 106,-1165.5 109.73,-1170.16 114.65,-1173.63 120.04,-1176.22"/>
<polygon fill="#63b8ff" stroke="#63b8ff" points="118.85,-1179.51 129.44,-1179.79 121.34,-1172.97 118.85,-1179.51"/>
</a>
</g>
</g>
<!-- Node3 -->
<g id="Node000003" class="node">
<title>Node3</title>
<g id="a_Node000003"><a xlink:href="replays_8c.html#ad3fe55bff348a8b6cfc02f327bda8544" target="_top" xlink:title=" ">
<polygon fill="white" stroke="#666666" points="210,-921 119,-921 119,-902 210,-902 210,-921"/>
<text text-anchor="middle" x="164.5" y="-909" font-family="Helvetica,sans-Serif" font-size="10.00">func_80005310</text>
</a>
</g>
</g>
<!-- Node1&#45;&gt;Node3 -->
<g id="edge2_Node000001_Node000003" class="edge">
<title>Node1&#45;&gt;Node3</title>
<g id="a_edge2_Node000001_Node000003"><a xlink:title=" ">
<path fill="none" stroke="#63b8ff" d="M37.73,-329.19C45.21,-370.9 75.77,-539.26 106,-676.5 123.67,-756.74 147.91,-851.56 158.36,-891.83"/>
<polygon fill="#63b8ff" stroke="#63b8ff" points="155.02,-892.89 160.93,-901.69 161.79,-891.13 155.02,-892.89"/>
</a>
</g>
</g>
<!-- Node66 -->
<g id="Node000066" class="node">
<title>Node66</title>
<g id="a_Node000066"><a xlink:href="spawn__players_8c.html#ac1a9412b931cfa517a2382c2fc605399" target="_top" xlink:title=" ">
<polygon fill="white" stroke="#666666" points="210.5,-667 118.5,-667 118.5,-648 210.5,-648 210.5,-667"/>
<text text-anchor="middle" x="164.5" y="-655" font-family="Helvetica,sans-Serif" font-size="10.00">func_8003D080</text>
</a>
</g>
</g>
<!-- Node1&#45;&gt;Node66 -->
<g id="edge10_Node000001_Node000066" class="edge">
<title>Node1&#45;&gt;Node66</title>
<g id="a_edge10_Node000001_Node000066"><a xlink:title=" ">
<path fill="none" stroke="#63b8ff" d="M39.68,-329.25C57.2,-375.7 132.35,-574.92 156.2,-638.16"/>
<polygon fill="#63b8ff" stroke="#63b8ff" points="153,-639.59 159.81,-647.71 159.55,-637.12 153,-639.59"/>
</a>
</g>
</g>
<!-- Node374 -->
<g id="Node000374" class="node">
<title>Node374</title>
<g id="a_Node000374"><a xlink:href="menu__items_8c.html#a11daab0c2cb2700179b2325d2c619769" target="_top" xlink:title=" ">
<polygon fill="white" stroke="#666666" points="209.5,-1156 119.5,-1156 119.5,-1137 209.5,-1137 209.5,-1156"/>
<text text-anchor="middle" x="164.5" y="-1144" font-family="Helvetica,sans-Serif" font-size="10.00">func_80091FA4</text>
</a>
</g>
</g>
<!-- Node1&#45;&gt;Node374 -->
<g id="edge19_Node000001_Node000374" class="edge">
<title>Node1&#45;&gt;Node374</title>
<g id="a_edge19_Node000001_Node000374"><a xlink:title=" ">
<path fill="none" stroke="#63b8ff" d="M36.58,-329.28C40.13,-386.99 60.22,-688.69 106,-930.5 119.93,-1004.07 145.53,-1089.45 157.29,-1127.04"/>
<polygon fill="#63b8ff" stroke="#63b8ff" points="154,-1128.23 160.34,-1136.71 160.67,-1126.12 154,-1128.23"/>
</a>
</g>
</g>
<!-- Node380 -->
<g id="Node000380" class="node">
<title>Node380</title>
<g id="a_Node000380"><a xlink:href="external_8c.html#aa02fab8bd5588ff8301d0f0f91e1cb1c" target="_top" xlink:title=" ">
<polygon fill="white" stroke="#666666" points="379,-537 287,-537 287,-518 379,-518 379,-537"/>
<text text-anchor="middle" x="333" y="-525" font-family="Helvetica,sans-Serif" font-size="10.00">func_800CA008</text>
</a>
</g>
</g>
<!-- Node1&#45;&gt;Node380 -->
<g id="edge27_Node000001_Node000380" class="edge">
<title>Node1&#45;&gt;Node380</title>
<g id="a_edge27_Node000001_Node000380"><a xlink:title=" ">
<path fill="none" stroke="#63b8ff" d="M44.22,-329.15C71.39,-360.44 162.14,-459.85 259,-509.5 264.64,-512.39 270.77,-514.83 277,-516.89"/>
<polygon fill="#63b8ff" stroke="#63b8ff" points="276.22,-520.32 286.81,-519.82 278.23,-513.61 276.22,-520.32"/>
</a>
</g>
</g>
<!-- Node381 -->
<g id="Node000381" class="node">
<title>Node381</title>
<g id="a_Node000381"><a xlink:href="external_8c.html#a12c3e6c147828cc102e748904808ea4a" target="_top" xlink:title=" ">
<polygon fill="white" stroke="#666666" points="211,-366 118,-366 118,-347 211,-347 211,-366"/>
<text text-anchor="middle" x="164.5" y="-354" font-family="Helvetica,sans-Serif" font-size="10.00">func_800CB2C4</text>
</a>
</g>
</g>
<!-- Node1&#45;&gt;Node381 -->
<g id="edge30_Node000001_Node000381" class="edge">
<title>Node1&#45;&gt;Node381</title>
<g id="a_edge30_Node000001_Node000381"><a xlink:title=" ">
<path fill="none" stroke="#63b8ff" d="M68.83,-329.03C84.62,-333.61 103.75,-339.16 120.67,-344.07"/>
<polygon fill="#63b8ff" stroke="#63b8ff" points="119.75,-347.45 130.33,-346.88 121.71,-340.73 119.75,-347.45"/>
</a>
</g>
</g>
<!-- Node435 -->
<g id="Node000435" class="node">
<title>Node435</title>
<g id="a_Node000435"><a xlink:href="skybox__and__splitscreen_8c.html#a1520a44a27c37f0b2554764974afb428" target="_top" xlink:title=" ">
<polygon fill="white" stroke="#666666" points="211,-329 118,-329 118,-310 211,-310 211,-329"/>
<text text-anchor="middle" x="164.5" y="-317" font-family="Helvetica,sans-Serif" font-size="10.00">func_802A4D18</text>
</a>
</g>
</g>
<!-- Node1&#45;&gt;Node435 -->
<g id="edge41_Node000001_Node000435" class="edge">
<title>Node1&#45;&gt;Node435</title>
<g id="a_edge41_Node000001_Node000435"><a xlink:title=" ">
<path fill="none" stroke="#63b8ff" d="M70.17,-319.5C81.69,-319.5 94.87,-319.5 107.63,-319.5"/>
<polygon fill="#63b8ff" stroke="#63b8ff" points="107.73,-323 117.73,-319.5 107.73,-316 107.73,-323"/>
</a>
</g>
</g>
<!-- Node303 -->
<g id="Node000303" class="node">
<title>Node303</title>
<g id="a_Node000303"><a xlink:href="Game_8cpp.html#a682b05febe7b8e4a4adf68785d93e3d3" target="_top" xlink:title=" ">
<polygon fill="white" stroke="#666666" points="212,-292 117,-292 117,-273 212,-273 212,-292"/>
<text text-anchor="middle" x="164.5" y="-280" font-family="Helvetica,sans-Serif" font-size="10.00">GetCourseIndex</text>
</a>
</g>
</g>
<!-- Node1&#45;&gt;Node303 -->
<g id="edge42_Node000001_Node000303" class="edge">
<title>Node1&#45;&gt;Node303</title>
<g id="a_edge42_Node000001_Node000303"><a xlink:title=" ">
<path fill="none" stroke="#63b8ff" d="M68.83,-309.97C84.62,-305.39 103.75,-299.84 120.67,-294.93"/>
<polygon fill="#63b8ff" stroke="#63b8ff" points="121.71,-298.27 130.33,-292.12 119.75,-291.55 121.71,-298.27"/>
</a>
</g>
</g>
<!-- Node436 -->
<g id="Node000436" class="node">
<title>Node436</title>
<g id="a_Node000436"><a xlink:href="actors_8c.html#a142a32371ea62d0303702286b839bdfd" target="_top" xlink:title="Loads actor textures, course specific actor textures. Calls to spawn_course_vehicles and place_course...">
<polygon fill="#fff0f0" stroke="red" points="223,-194.5 106,-194.5 106,-164.5 223,-164.5 223,-194.5"/>
<text text-anchor="start" x="114" y="-182.5" font-family="Helvetica,sans-Serif" font-size="10.00">init_actors_and_load</text>
<text text-anchor="middle" x="164.5" y="-171.5" font-family="Helvetica,sans-Serif" font-size="10.00">_textures</text>
</a>
</g>
</g>
<!-- Node1&#45;&gt;Node436 -->
<g id="edge43_Node000001_Node000436" class="edge">
<title>Node1&#45;&gt;Node436</title>
<g id="a_edge43_Node000001_Node000436"><a xlink:title=" ">
<path fill="none" stroke="#63b8ff" d="M41.21,-309.85C51.7,-290.99 76.89,-248.53 106,-219.5 112.97,-212.55 121.27,-206 129.37,-200.29"/>
<polygon fill="#63b8ff" stroke="#63b8ff" points="131.37,-203.17 137.68,-194.66 127.44,-197.38 131.37,-203.17"/>
</a>
</g>
</g>
<!-- Node455 -->
<g id="Node000455" class="node">
<title>Node455</title>
<g id="a_Node000455"><a xlink:href="code__8006E9C0_8c.html#a47667a5a47fd4ca740865e963ce795c9" target="_top" xlink:title=" ">
<polygon fill="#fff0f0" stroke="red" points="192.5,-146 136.5,-146 136.5,-127 192.5,-127 192.5,-146"/>
<text text-anchor="middle" x="164.5" y="-134" font-family="Helvetica,sans-Serif" font-size="10.00">init_hud</text>
</a>
</g>
</g>
<!-- Node1&#45;&gt;Node455 -->
<g id="edge50_Node000001_Node000455" class="edge">
<title>Node1&#45;&gt;Node455</title>
<g id="a_edge50_Node000001_Node000455"><a xlink:title=" ">
<path fill="none" stroke="#63b8ff" d="M37.33,-309.78C41.69,-281.67 58.13,-199.49 106,-155.5 111.81,-150.16 119.16,-146.31 126.65,-143.55"/>
<polygon fill="#63b8ff" stroke="#63b8ff" points="127.94,-146.82 136.45,-140.5 125.86,-140.13 127.94,-146.82"/>
</a>
</g>
</g>
<!-- Node476 -->
<g id="Node000476" class="node">
<title>Node476</title>
<g id="a_Node000476"><a xlink:href="memory_8c.html#a332cad400462e507d8d6d2d68035b0b2" target="_top" xlink:title="Loads &amp; DMAs course data. Vtx, textures, displaylists, etc.">
<polygon fill="#fff0f0" stroke="red" points="202,-247 127,-247 127,-228 202,-228 202,-247"/>
<text text-anchor="middle" x="164.5" y="-235" font-family="Helvetica,sans-Serif" font-size="10.00">load_course</text>
</a>
</g>
</g>
<!-- Node1&#45;&gt;Node476 -->
<g id="edge51_Node000001_Node000476" class="edge">
<title>Node1&#45;&gt;Node476</title>
<g id="a_edge51_Node000001_Node000476"><a xlink:title=" ">
<path fill="none" stroke="#63b8ff" d="M46.82,-309.72C60.1,-298.02 83.64,-278.29 106,-264.5 113.69,-259.76 122.35,-255.29 130.57,-251.4"/>
<polygon fill="#63b8ff" stroke="#63b8ff" points="132.29,-254.46 139.93,-247.12 129.38,-248.09 132.29,-254.46"/>
</a>
</g>
</g>
<!-- Node479 -->
<g id="Node000479" class="node">
<title>Node479</title>
<g id="a_Node000479"><a xlink:href="skybox__and__splitscreen_8c.html#a58e23917e0a11f717598a99e1e7ebc97" target="_top" xlink:title=" ">
<polygon fill="white" stroke="#666666" points="199,-109 130,-109 130,-90 199,-90 199,-109"/>
<text text-anchor="middle" x="164.5" y="-97" font-family="Helvetica,sans-Serif" font-size="10.00">set_screen</text>
</a>
</g>
</g>
<!-- Node1&#45;&gt;Node479 -->
<g id="edge53_Node000001_Node000479" class="edge">
<title>Node1&#45;&gt;Node479</title>
<g id="a_edge53_Node000001_Node000479"><a xlink:title=" ">
<path fill="none" stroke="#63b8ff" d="M36.45,-309.97C38.49,-278.12 49.38,-174.23 106,-118.5 110.07,-114.49 115.01,-111.33 120.26,-108.83"/>
<polygon fill="#63b8ff" stroke="#63b8ff" points="121.91,-111.94 129.93,-105.02 119.35,-105.43 121.91,-111.94"/>
</a>
</g>
</g>
<!-- Node480 -->
<g id="Node000480" class="node">
<title>Node480</title>
<g id="a_Node000480"><a xlink:href="Game_8cpp.html#a3bd5b6d5945f1342484ffda8e361d0d1" target="_top" xlink:title=" ">
<polygon fill="white" stroke="#666666" points="219.5,-72 109.5,-72 109.5,-53 219.5,-53 219.5,-72"/>
<text text-anchor="middle" x="164.5" y="-60" font-family="Helvetica,sans-Serif" font-size="10.00">SetCourseFromCup</text>
</a>
</g>
</g>
<!-- Node1&#45;&gt;Node480 -->
<g id="edge54_Node000001_Node000480" class="edge">
<title>Node1&#45;&gt;Node480</title>
<g id="a_edge54_Node000001_Node000480"><a xlink:title=" ">
<path fill="none" stroke="#63b8ff" d="M35.85,-309.79C35.86,-274.12 40.72,-148.98 106,-81.5 107.4,-80.05 108.91,-78.72 110.51,-77.49"/>
<polygon fill="#63b8ff" stroke="#63b8ff" points="112.47,-80.38 119.11,-72.12 108.77,-74.44 112.47,-80.38"/>
</a>
</g>
</g>
<!-- Node4 -->
<g id="Node000004" class="node">
<title>Node4</title>
<g id="a_Node000004"><a xlink:href="menu__items_8c.html#aeaaf45d9941e43e3b6558dcbfa6d43b5" target="_top" xlink:title=" ">
<polygon fill="#fff0f0" stroke="red" points="378.5,-1032 287.5,-1032 287.5,-1013 378.5,-1013 378.5,-1032"/>
<text text-anchor="middle" x="333" y="-1020" font-family="Helvetica,sans-Serif" font-size="10.00">func_80091EE4</text>
</a>
</g>
</g>
<!-- Node3&#45;&gt;Node4 -->
<g id="edge3_Node000003_Node000004" class="edge">
<title>Node3&#45;&gt;Node4</title>
<g id="a_edge3_Node000003_Node000004"><a xlink:title=" ">
<path fill="none" stroke="#63b8ff" d="M172.27,-921.1C186.2,-940.11 220.08,-982.62 259,-1004.5 264.81,-1007.77 271.21,-1010.45 277.72,-1012.64"/>
<polygon fill="#63b8ff" stroke="#63b8ff" points="276.72,-1016 287.31,-1015.53 278.74,-1009.29 276.72,-1016"/>
</a>
</g>
</g>
<!-- Node60 -->
<g id="Node000060" class="node">
<title>Node60</title>
<g id="a_Node000060"><a xlink:href="Game_8cpp.html#afc50c2379544210dc453d8e28cff2abd" target="_top" xlink:title=" ">
<polygon fill="white" stroke="#666666" points="367,-995 299,-995 299,-976 367,-976 367,-995"/>
<text text-anchor="middle" x="333" y="-983" font-family="Helvetica,sans-Serif" font-size="10.00">GetCourse</text>
</a>
</g>
</g>
<!-- Node3&#45;&gt;Node60 -->
<g id="edge5_Node000003_Node000060" class="edge">
<title>Node3&#45;&gt;Node60</title>
<g id="a_edge5_Node000003_Node000060"><a xlink:title=" ">
<path fill="none" stroke="#63b8ff" d="M178.76,-921.2C196.3,-933.6 228.56,-954.96 259,-967.5 268.5,-971.41 279.07,-974.62 289.14,-977.19"/>
<polygon fill="#63b8ff" stroke="#63b8ff" points="288.46,-980.63 299,-979.55 290.08,-973.82 288.46,-980.63"/>
</a>
</g>
</g>
<!-- Node61 -->
<g id="Node000061" class="node">
<title>Node61</title>
<g id="a_Node000061"><a xlink:href="replays_8c.html#ada30ba013c97df306b243dbd89d8979f" target="_top" xlink:title=" ">
<polygon fill="#fff0f0" stroke="red" points="386.5,-958 279.5,-958 279.5,-939 386.5,-939 386.5,-958"/>
<text text-anchor="middle" x="333" y="-946" font-family="Helvetica,sans-Serif" font-size="10.00">load_course_ghost</text>
</a>
</g>
</g>
<!-- Node3&#45;&gt;Node61 -->
<g id="edge6_Node000003_Node000061" class="edge">
<title>Node3&#45;&gt;Node61</title>
<g id="a_edge6_Node000003_Node000061"><a xlink:title=" ">
<path fill="none" stroke="#63b8ff" d="M208.38,-921.03C229.95,-925.82 256.29,-931.68 279.11,-936.75"/>
<polygon fill="#63b8ff" stroke="#63b8ff" points="278.46,-940.19 288.98,-938.94 279.98,-933.35 278.46,-940.19"/>
</a>
</g>
</g>
<!-- Node62 -->
<g id="Node000062" class="node">
<title>Node62</title>
<g id="a_Node000062"><a xlink:href="replays_8c.html#a83973fcda05d24a97b11dc1eca20aea5" target="_top" xlink:title=" ">
<polygon fill="white" stroke="#666666" points="386,-921 280,-921 280,-902 386,-902 386,-921"/>
<text text-anchor="middle" x="333" y="-909" font-family="Helvetica,sans-Serif" font-size="10.00">load_player_ghost</text>
</a>
</g>
</g>
<!-- Node3&#45;&gt;Node62 -->
<g id="edge7_Node000003_Node000062" class="edge">
<title>Node3&#45;&gt;Node62</title>
<g id="a_edge7_Node000003_Node000062"><a xlink:title=" ">
<path fill="none" stroke="#63b8ff" d="M210.12,-911.5C228.41,-911.5 249.9,-911.5 269.7,-911.5"/>
<polygon fill="#63b8ff" stroke="#63b8ff" points="269.87,-915 279.87,-911.5 269.87,-908 269.87,-915"/>
</a>
</g>
</g>
<!-- Node63 -->
<g id="Node000063" class="node">
<title>Node63</title>
<g id="a_Node000063"><a xlink:href="replays_8c.html#ae7d61f2c74810b3ee3efdf03b4dcc3d2" target="_top" xlink:title=" ">
<polygon fill="white" stroke="#666666" points="391,-883.5 275,-883.5 275,-853.5 391,-853.5 391,-883.5"/>
<text text-anchor="start" x="283" y="-871.5" font-family="Helvetica,sans-Serif" font-size="10.00">load_post_time_trial</text>
<text text-anchor="middle" x="333" y="-860.5" font-family="Helvetica,sans-Serif" font-size="10.00">_replay</text>
</a>
</g>
</g>
<!-- Node3&#45;&gt;Node63 -->
<g id="edge8_Node000003_Node000063" class="edge">
<title>Node3&#45;&gt;Node63</title>
<g id="a_edge8_Node000003_Node000063"><a xlink:title=" ">
<path fill="none" stroke="#63b8ff" d="M202.45,-901.96C220.9,-897.19 243.79,-891.28 265.17,-885.76"/>
<polygon fill="#63b8ff" stroke="#63b8ff" points="266.06,-889.14 274.87,-883.25 264.31,-882.37 266.06,-889.14"/>
</a>
</g>
</g>
<!-- Node64 -->
<g id="Node000064" class="node">
<title>Node64</title>
<g id="a_Node000064"><a xlink:href="replays_8c.html#a80fa9da37c18f25041a3ec02cec5cd25" target="_top" xlink:title=" ">
<polygon fill="#fff0f0" stroke="red" points="378.5,-835 287.5,-835 287.5,-816 378.5,-816 378.5,-835"/>
<text text-anchor="middle" x="333" y="-823" font-family="Helvetica,sans-Serif" font-size="10.00">set_staff_ghost</text>
</a>
</g>
</g>
<!-- Node3&#45;&gt;Node64 -->
<g id="edge9_Node000003_Node000064" class="edge">
<title>Node3&#45;&gt;Node64</title>
<g id="a_edge9_Node000003_Node000064"><a xlink:title=" ">
<path fill="none" stroke="#63b8ff" d="M176.17,-901.81C192.72,-887.28 226.09,-859.92 259,-844.5 264.84,-841.77 271.13,-839.38 277.48,-837.31"/>
<polygon fill="#63b8ff" stroke="#63b8ff" points="278.89,-840.54 287.46,-834.31 276.88,-833.84 278.89,-840.54"/>
</a>
</g>
</g>
<!-- Node5 -->
<g id="Node000005" class="node">
<title>Node5</title>
<g id="a_Node000005"><a xlink:href="save_8c.html#aefd3604da4aa5ae9ed1eb8fd042ff5e9" target="_top" xlink:title=" ">
<polygon fill="#fff0f0" stroke="red" points="535.5,-1051 443.5,-1051 443.5,-1032 535.5,-1032 535.5,-1051"/>
<text text-anchor="middle" x="489.5" y="-1039" font-family="Helvetica,sans-Serif" font-size="10.00">func_800B5F30</text>
</a>
</g>
</g>
<!-- Node4&#45;&gt;Node5 -->
<g id="edge4_Node000004_Node000005" class="edge">
<title>Node4&#45;&gt;Node5</title>
<g id="a_edge4_Node000004_Node000005"><a xlink:title=" ">
<path fill="none" stroke="#63b8ff" d="M378.69,-1028C395.75,-1030.09 415.41,-1032.51 433.34,-1034.72"/>
<polygon fill="#63b8ff" stroke="#63b8ff" points="433.02,-1038.2 443.38,-1035.95 433.88,-1031.26 433.02,-1038.2"/>
</a>
</g>
</g>
<!-- Node67 -->
<g id="Node000067" class="node">
<title>Node67</title>
<g id="a_Node000067"><a xlink:href="camera_8c.html#a2699fb853dad47cc722031ca412a31ea" target="_top" xlink:title=" ">
<polygon fill="#fff0f0" stroke="red" points="370,-798 296,-798 296,-779 370,-779 370,-798"/>
<text text-anchor="middle" x="333" y="-786" font-family="Helvetica,sans-Serif" font-size="10.00">camera_init</text>
</a>
</g>
</g>
<!-- Node66&#45;&gt;Node67 -->
<g id="edge11_Node000066_Node000067" class="edge">
<title>Node66&#45;&gt;Node67</title>
<g id="a_edge11_Node000066_Node000067"><a xlink:title=" ">
<path fill="none" stroke="#63b8ff" d="M170.59,-667.14C182.74,-689.15 215.65,-743.29 259,-770.5 267.04,-775.55 276.4,-779.18 285.68,-781.79"/>
<polygon fill="#63b8ff" stroke="#63b8ff" points="285.11,-785.26 295.66,-784.25 286.78,-778.46 285.11,-785.26"/>
</a>
</g>
</g>
<!-- Node73 -->
<g id="Node000073" class="node">
<title>Node73</title>
<g id="a_Node000073"><a xlink:href="camera_8c.html#a77eb0aa11072a84cb3dfc4446aa1bff5" target="_top" xlink:title=" ">
<polygon fill="#fff0f0" stroke="red" points="372,-761 294,-761 294,-742 372,-742 372,-761"/>
<text text-anchor="middle" x="333" y="-749" font-family="Helvetica,sans-Serif" font-size="10.00">freecam_init</text>
</a>
</g>
</g>
<!-- Node66&#45;&gt;Node73 -->
<g id="edge12_Node000066_Node000073" class="edge">
<title>Node66&#45;&gt;Node73</title>
<g id="a_edge12_Node000066_Node000073"><a xlink:title=" ">
<path fill="none" stroke="#63b8ff" d="M174.34,-667.03C189.87,-683.2 223.8,-715.97 259,-733.5 266.73,-737.35 275.33,-740.41 283.85,-742.83"/>
<polygon fill="#63b8ff" stroke="#63b8ff" points="283.18,-746.28 293.74,-745.4 284.94,-739.5 283.18,-746.28"/>
</a>
</g>
</g>
<!-- Node74 -->
<g id="Node000074" class="node">
<title>Node74</title>
<g id="a_Node000074"><a xlink:href="spawn__players_8c.html#afb1c307e34d73d9c004936d2752c44ce" target="_top" xlink:title=" ">
<polygon fill="#fff0f0" stroke="red" points="379,-724 287,-724 287,-705 379,-705 379,-724"/>
<text text-anchor="middle" x="333" y="-712" font-family="Helvetica,sans-Serif" font-size="10.00">func_8003C0F0</text>
</a>
</g>
</g>
<!-- Node66&#45;&gt;Node74 -->
<g id="edge13_Node000066_Node000074" class="edge">
<title>Node66&#45;&gt;Node74</title>
<g id="a_edge13_Node000066_Node000074"><a xlink:title=" ">
<path fill="none" stroke="#63b8ff" d="M192.05,-667.04C210.73,-673.72 236.35,-682.78 259,-690.5 269.92,-694.22 281.8,-698.17 292.74,-701.77"/>
<polygon fill="#63b8ff" stroke="#63b8ff" points="291.88,-705.17 302.47,-704.95 294.06,-698.51 291.88,-705.17"/>
</a>
</g>
</g>
<!-- Node137 -->
<g id="Node000137" class="node">
<title>Node137</title>
<g id="a_Node000137"><a xlink:href="Game_8cpp.html#a7dfa77f8baa97e05f88abc7be3dd45a1" target="_top" xlink:title=" ">
<polygon fill="white" stroke="#666666" points="536,-705 443,-705 443,-686 536,-686 536,-705"/>
<text text-anchor="middle" x="489.5" y="-693" font-family="Helvetica,sans-Serif" font-size="10.00">IsToadsTurnpike</text>
</a>
</g>
</g>
<!-- Node66&#45;&gt;Node137 -->
<g id="edge18_Node000066_Node000137" class="edge">
<title>Node66&#45;&gt;Node137</title>
<g id="a_edge18_Node000066_Node000137"><a xlink:title=" ">
<path fill="none" stroke="#63b8ff" d="M210.75,-662.82C268.89,-669.66 369.79,-681.53 432.64,-688.93"/>
<polygon fill="#63b8ff" stroke="#63b8ff" points="432.43,-692.43 442.77,-690.12 433.25,-685.48 432.43,-692.43"/>
</a>
</g>
</g>
<!-- Node150 -->
<g id="Node000150" class="node">
<title>Node150</title>
<g id="a_Node000150"><a xlink:href="spawn__players_8c.html#a400676f9bd53662b5636a7f191f947aa" target="_top" xlink:title=" ">
<polygon fill="#fff0f0" stroke="red" points="379.5,-648 286.5,-648 286.5,-629 379.5,-629 379.5,-648"/>
<text text-anchor="middle" x="333" y="-636" font-family="Helvetica,sans-Serif" font-size="10.00">func_8003CD78</text>
</a>
</g>
</g>
<!-- Node66&#45;&gt;Node150 -->
<g id="edge15_Node000066_Node000150" class="edge">
<title>Node66&#45;&gt;Node150</title>
<g id="a_edge15_Node000066_Node000150"><a xlink:title=" ">
<path fill="none" stroke="#63b8ff" d="M210.56,-652.36C230.75,-650.05 254.77,-647.31 276.1,-644.88"/>
<polygon fill="#63b8ff" stroke="#63b8ff" points="276.79,-648.32 286.33,-643.71 276,-641.37 276.79,-648.32"/>
</a>
</g>
</g>
<!-- Node152 -->
<g id="Node000152" class="node">
<title>Node152</title>
<g id="a_Node000152"><a xlink:href="spawn__players_8c.html#a1d1dc4164aa554583609ad0d9bbbf276" target="_top" xlink:title=" ">
<polygon fill="#fff0f0" stroke="red" points="379.5,-611 286.5,-611 286.5,-592 379.5,-592 379.5,-611"/>
<text text-anchor="middle" x="333" y="-599" font-family="Helvetica,sans-Serif" font-size="10.00">func_8003CD98</text>
</a>
</g>
</g>
<!-- Node66&#45;&gt;Node152 -->
<g id="edge16_Node000066_Node000152" class="edge">
<title>Node66&#45;&gt;Node152</title>
<g id="a_edge16_Node000066_Node000152"><a xlink:title=" ">
<path fill="none" stroke="#63b8ff" d="M187.51,-647.9C206.29,-639.94 234.11,-628.63 259,-620.5 266.35,-618.1 274.2,-615.79 281.92,-613.67"/>
<polygon fill="#63b8ff" stroke="#63b8ff" points="282.83,-617.05 291.58,-611.08 281.02,-610.29 282.83,-617.05"/>
</a>
</g>
</g>
<!-- Node373 -->
<g id="Node000373" class="node">
<title>Node373</title>
<g id="a_Node000373"><a xlink:href="code__80057C60_8c.html#a07b43c07e7afcf3fcccf63622bb991e1" target="_top" xlink:title=" ">
<polygon fill="white" stroke="#666666" points="379,-574 287,-574 287,-555 379,-555 379,-574"/>
<text text-anchor="middle" x="333" y="-562" font-family="Helvetica,sans-Serif" font-size="10.00">func_8005D290</text>
</a>
</g>
</g>
<!-- Node66&#45;&gt;Node373 -->
<g id="edge17_Node000066_Node000373" class="edge">
<title>Node66&#45;&gt;Node373</title>
<g id="a_edge17_Node000066_Node000373"><a xlink:title=" ">
<path fill="none" stroke="#63b8ff" d="M174.92,-647.78C190.79,-631.95 224.53,-600.67 259,-583.5 264.69,-580.66 270.85,-578.22 277.1,-576.12"/>
<polygon fill="#63b8ff" stroke="#63b8ff" points="278.39,-579.39 286.93,-573.1 276.34,-572.7 278.39,-579.39"/>
</a>
</g>
</g>
<!-- Node74&#45;&gt;Node137 -->
<g id="edge14_Node000074_Node000137" class="edge">
<title>Node74&#45;&gt;Node137</title>
<g id="a_edge14_Node000074_Node000137"><a xlink:title=" ">
<path fill="none" stroke="#63b8ff" d="M379.1,-708.95C395.86,-706.89 415.06,-704.53 432.66,-702.37"/>
<polygon fill="#63b8ff" stroke="#63b8ff" points="433.31,-705.81 442.81,-701.12 432.45,-698.87 433.31,-705.81"/>
</a>
</g>
</g>
<!-- Node374&#45;&gt;Node5 -->
<g id="edge25_Node000374_Node000005" class="edge">
<title>Node374&#45;&gt;Node5</title>
<g id="a_edge25_Node000374_Node000005"><a xlink:title=" ">
<path fill="none" stroke="#63b8ff" d="M175.47,-1136.92C191.6,-1122.03 225.06,-1093.57 259,-1079.5 315.48,-1056.09 385.42,-1047.08 433.15,-1043.62"/>
<polygon fill="#63b8ff" stroke="#63b8ff" points="433.54,-1047.1 443.28,-1042.95 433.07,-1040.12 433.54,-1047.1"/>
</a>
</g>
</g>
<!-- Node375 -->
<g id="Node000375" class="node">
<title>Node375</title>
<g id="a_Node000375"><a xlink:href="menu__items_8h.html#ae560025be8c56d009f06b309463a5183" target="_top" xlink:title=" ">
<polygon fill="white" stroke="#666666" points="380.5,-1304 285.5,-1304 285.5,-1285 380.5,-1285 380.5,-1304"/>
<text text-anchor="middle" x="333" y="-1292" font-family="Helvetica,sans-Serif" font-size="10.00">add_menu_item</text>
</a>
</g>
</g>
<!-- Node374&#45;&gt;Node375 -->
<g id="edge20_Node000374_Node000375" class="edge">
<title>Node374&#45;&gt;Node375</title>
<g id="a_edge20_Node000374_Node000375"><a xlink:title=" ">
<path fill="none" stroke="#63b8ff" d="M209.5,-1156.08C214.48,-1158.54 219.14,-1161.62 223,-1165.5 259.57,-1202.27 221.03,-1241.17 259,-1276.5 263.77,-1280.94 269.45,-1284.33 275.5,-1286.91"/>
<polygon fill="#63b8ff" stroke="#63b8ff" points="274.66,-1290.32 285.25,-1290.34 276.98,-1283.72 274.66,-1290.32"/>
</a>
</g>
</g>
<!-- Node376 -->
<g id="Node000376" class="node">
<title>Node376</title>
<g id="a_Node000376"><a xlink:href="menu__items_8c.html#abfa6c366f02a470bbfcddb66359eec13" target="_top" xlink:title=" ">
<polygon fill="white" stroke="#666666" points="392.5,-1267 273.5,-1267 273.5,-1248 392.5,-1248 392.5,-1267"/>
<text text-anchor="middle" x="333" y="-1255" font-family="Helvetica,sans-Serif" font-size="10.00">clear_menu_textures</text>
</a>
</g>
</g>
<!-- Node374&#45;&gt;Node376 -->
<g id="edge21_Node000374_Node000376" class="edge">
<title>Node374&#45;&gt;Node376</title>
<g id="a_edge21_Node000374_Node000376"><a xlink:title=" ">
<path fill="none" stroke="#63b8ff" d="M207.83,-1156.07C213.32,-1158.53 218.57,-1161.62 223,-1165.5 250.53,-1189.58 230.56,-1216.51 259,-1239.5 260.6,-1240.79 262.28,-1241.99 264.02,-1243.11"/>
<polygon fill="#63b8ff" stroke="#63b8ff" points="262.72,-1246.39 273.19,-1248.02 266.02,-1240.21 262.72,-1246.39"/>
</a>
</g>
</g>
<!-- Node377 -->
<g id="Node000377" class="node">
<title>Node377</title>
<g id="a_Node000377"><a xlink:href="menu__items_8c.html#af9ede5415daa7e54bf2e7b018b382884" target="_top" xlink:title=" ">
<polygon fill="white" stroke="#666666" points="372.5,-1230 293.5,-1230 293.5,-1211 372.5,-1211 372.5,-1230"/>
<text text-anchor="middle" x="333" y="-1218" font-family="Helvetica,sans-Serif" font-size="10.00">clear_menus</text>
</a>
</g>
</g>
<!-- Node374&#45;&gt;Node377 -->
<g id="edge22_Node000374_Node000377" class="edge">
<title>Node374&#45;&gt;Node377</title>
<g id="a_edge22_Node000374_Node000377"><a xlink:title=" ">
<path fill="none" stroke="#63b8ff" d="M203.18,-1156.05C210.04,-1158.59 216.94,-1161.71 223,-1165.5 242.45,-1177.67 239.09,-1191.09 259,-1202.5 266.49,-1206.79 274.98,-1210.07 283.45,-1212.57"/>
<polygon fill="#63b8ff" stroke="#63b8ff" points="282.77,-1216.01 293.34,-1215.16 284.55,-1209.23 282.77,-1216.01"/>
</a>
</g>
</g>
<!-- Node378 -->
<g id="Node000378" class="node">
<title>Node378</title>
<g id="a_Node000378"><a xlink:href="menu__items_8c.html#a43d067e97313b62650b013e0384a7c8d" target="_top" xlink:title=" ">
<polygon fill="white" stroke="#666666" points="378.5,-1193 287.5,-1193 287.5,-1174 378.5,-1174 378.5,-1193"/>
<text text-anchor="middle" x="333" y="-1181" font-family="Helvetica,sans-Serif" font-size="10.00">func_80092258</text>
</a>
</g>
</g>
<!-- Node374&#45;&gt;Node378 -->
<g id="edge23_Node000374_Node000378" class="edge">
<title>Node374&#45;&gt;Node378</title>
<g id="a_edge23_Node000374_Node000378"><a xlink:title=" ">
<path fill="none" stroke="#63b8ff" d="M208.38,-1156.03C229.95,-1160.82 256.29,-1166.68 279.11,-1171.75"/>
<polygon fill="#63b8ff" stroke="#63b8ff" points="278.46,-1175.19 288.98,-1173.94 279.98,-1168.35 278.46,-1175.19"/>
</a>
</g>
</g>
<!-- Node379 -->
<g id="Node000379" class="node">
<title>Node379</title>
<g id="a_Node000379"><a xlink:href="menu__items_8c.html#ae938fb8c5b56456f2f0caf7dd552a51e" target="_top" xlink:title=" ">
<polygon fill="white" stroke="#666666" points="379,-1156 287,-1156 287,-1137 379,-1137 379,-1156"/>
<text text-anchor="middle" x="333" y="-1144" font-family="Helvetica,sans-Serif" font-size="10.00">func_8009A344</text>
</a>
</g>
</g>
<!-- Node374&#45;&gt;Node379 -->
<g id="edge24_Node000374_Node000379" class="edge">
<title>Node374&#45;&gt;Node379</title>
<g id="a_edge24_Node000374_Node000379"><a xlink:title=" ">
<path fill="none" stroke="#63b8ff" d="M209.68,-1146.5C230.22,-1146.5 254.87,-1146.5 276.64,-1146.5"/>
<polygon fill="#63b8ff" stroke="#63b8ff" points="276.74,-1150 286.74,-1146.5 276.74,-1143 276.74,-1150"/>
</a>
</g>
</g>
<!-- Node113 -->
<g id="Node000113" class="node">
<title>Node113</title>
<g id="a_Node000113"><a xlink:href="memory_8c.html#a7e6e89972c484db957ddbd70ba07ed92" target="_top" xlink:title="Returns the address of the next available memory location and updates the memory pointer to reference...">
<polygon fill="white" stroke="#666666" points="388,-1118.5 278,-1118.5 278,-1088.5 388,-1088.5 388,-1118.5"/>
<text text-anchor="start" x="286" y="-1106.5" font-family="Helvetica,sans-Serif" font-size="10.00">get_next_available</text>
<text text-anchor="middle" x="333" y="-1095.5" font-family="Helvetica,sans-Serif" font-size="10.00">_memory_addr</text>
</a>
</g>
</g>
<!-- Node374&#45;&gt;Node113 -->
<g id="edge26_Node000374_Node000113" class="edge">
<title>Node374&#45;&gt;Node113</title>
<g id="a_edge26_Node000374_Node000113"><a xlink:title=" ">
<path fill="none" stroke="#63b8ff" d="M202.45,-1136.96C221.73,-1131.98 245.86,-1125.75 268.06,-1120.01"/>
<polygon fill="#63b8ff" stroke="#63b8ff" points="268.96,-1123.4 277.77,-1117.51 267.21,-1116.62 268.96,-1123.4"/>
</a>
</g>
</g>
<!-- Node211 -->
<g id="Node000211" class="node">
<title>Node211</title>
<g id="a_Node000211"><a xlink:href="external_8c.html#ac48b7cbfcaa7737f892877ead85e4ba7" target="_top" xlink:title=" ">
<polygon fill="white" stroke="#666666" points="535.5,-537 443.5,-537 443.5,-518 535.5,-518 535.5,-537"/>
<text text-anchor="middle" x="489.5" y="-525" font-family="Helvetica,sans-Serif" font-size="10.00">func_800C3448</text>
</a>
</g>
</g>
<!-- Node380&#45;&gt;Node211 -->
<g id="edge28_Node000380_Node000211" class="edge">
<title>Node380&#45;&gt;Node211</title>
<g id="a_edge28_Node000380_Node000211"><a xlink:title=" ">
<path fill="none" stroke="#63b8ff" d="M379.1,-527.5C396,-527.5 415.4,-527.5 433.13,-527.5"/>
<polygon fill="#63b8ff" stroke="#63b8ff" points="433.34,-531 443.34,-527.5 433.34,-524 433.34,-531"/>
</a>
</g>
</g>
<!-- Node165 -->
<g id="Node000165" class="node">
<title>Node165</title>
<g id="a_Node000165"><a xlink:href="external_8c.html#ad79a8b3dfe27cebca94c2d9e2cc54d2b" target="_top" xlink:title=" ">
<polygon fill="white" stroke="#666666" points="535.5,-500 443.5,-500 443.5,-481 535.5,-481 535.5,-500"/>
<text text-anchor="middle" x="489.5" y="-488" font-family="Helvetica,sans-Serif" font-size="10.00">func_800C36C4</text>
</a>
</g>
</g>
<!-- Node380&#45;&gt;Node165 -->
<g id="edge29_Node000380_Node000165" class="edge">
<title>Node380&#45;&gt;Node165</title>
<g id="a_edge29_Node000380_Node000165"><a xlink:title=" ">
<path fill="none" stroke="#63b8ff" d="M373.79,-517.97C393.62,-513.22 417.81,-507.43 438.85,-502.39"/>
<polygon fill="#63b8ff" stroke="#63b8ff" points="439.67,-505.79 448.58,-500.06 438.04,-498.99 439.67,-505.79"/>
</a>
</g>
</g>
<!-- Node382 -->
<g id="Node000382" class="node">
<title>Node382</title>
<g id="a_Node000382"><a xlink:href="external_8c.html#a9101650b9d48873724dacc81ddf1f359" target="_top" xlink:title=" ">
<polygon fill="#fff0f0" stroke="red" points="379,-426 287,-426 287,-407 379,-407 379,-426"/>
<text text-anchor="middle" x="333" y="-414" font-family="Helvetica,sans-Serif" font-size="10.00">func_800C1F8C</text>
</a>
</g>
</g>
<!-- Node381&#45;&gt;Node382 -->
<g id="edge31_Node000381_Node000382" class="edge">
<title>Node381&#45;&gt;Node382</title>
<g id="a_edge31_Node000381_Node000382"><a xlink:title=" ">
<path fill="none" stroke="#63b8ff" d="M184.08,-366.05C202.66,-375.31 232.25,-389.28 259,-398.5 264.99,-400.57 271.34,-402.5 277.69,-404.27"/>
<polygon fill="#63b8ff" stroke="#63b8ff" points="277.06,-407.72 287.62,-406.92 278.86,-400.96 277.06,-407.72"/>
</a>
</g>
</g>
<!-- Node387 -->
<g id="Node000387" class="node">
<title>Node387</title>
<g id="a_Node000387"><a xlink:href="external_8c.html#ade88f98a6c4693d844c22b6a0cc79007" target="_top" xlink:title=" ">
<polygon fill="#fff0f0" stroke="red" points="379,-389 287,-389 287,-370 379,-370 379,-389"/>
<text text-anchor="middle" x="333" y="-377" font-family="Helvetica,sans-Serif" font-size="10.00">func_800C2274</text>
</a>
</g>
</g>
<!-- Node381&#45;&gt;Node387 -->
<g id="edge32_Node000381_Node000387" class="edge">
<title>Node381&#45;&gt;Node387</title>
<g id="a_edge32_Node000381_Node000387"><a xlink:title=" ">
<path fill="none" stroke="#63b8ff" d="M211.44,-362.85C231.62,-365.63 255.49,-368.93 276.65,-371.85"/>
<polygon fill="#63b8ff" stroke="#63b8ff" points="276.4,-375.35 286.79,-373.25 277.36,-368.42 276.4,-375.35"/>
</a>
</g>
</g>
<!-- Node389 -->
<g id="Node000389" class="node">
<title>Node389</title>
<g id="a_Node000389"><a xlink:href="external_8c.html#a4a32f1b7f771a18da063fd2b47392a9d" target="_top" xlink:title=" ">
<polygon fill="#fff0f0" stroke="red" points="379,-352 287,-352 287,-333 379,-333 379,-352"/>
<text text-anchor="middle" x="333" y="-340" font-family="Helvetica,sans-Serif" font-size="10.00">func_800C3478</text>
</a>
</g>
</g>
<!-- Node381&#45;&gt;Node389 -->
<g id="edge33_Node000381_Node000389" class="edge">
<title>Node381&#45;&gt;Node389</title>
<g id="a_edge33_Node000381_Node000389"><a xlink:title=" ">
<path fill="none" stroke="#63b8ff" d="M211.44,-352.64C231.62,-350.94 255.49,-348.93 276.65,-347.15"/>
<polygon fill="#63b8ff" stroke="#63b8ff" points="277.12,-350.63 286.79,-346.3 276.53,-343.65 277.12,-350.63"/>
</a>
</g>
</g>
<!-- Node399 -->
<g id="Node000399" class="node">
<title>Node399</title>
<g id="a_Node000399"><a xlink:href="external_8c.html#a9f5d9ab040210ecd57c26391aa62ccab" target="_top" xlink:title=" ">
<polygon fill="#fff0f0" stroke="red" points="379,-500 287,-500 287,-481 379,-481 379,-500"/>
<text text-anchor="middle" x="333" y="-488" font-family="Helvetica,sans-Serif" font-size="10.00">func_800C3724</text>
</a>
</g>
</g>
<!-- Node381&#45;&gt;Node399 -->
<g id="edge34_Node000381_Node000399" class="edge">
<title>Node381&#45;&gt;Node399</title>
<g id="a_edge34_Node000381_Node000399"><a xlink:title=" ">
<path fill="none" stroke="#63b8ff" d="M171.98,-366.04C189.22,-391.15 236.42,-458.12 259,-472.5 264.49,-476 270.61,-478.81 276.91,-481.08"/>
<polygon fill="#63b8ff" stroke="#63b8ff" points="276.3,-484.56 286.89,-484.22 278.4,-477.88 276.3,-484.56"/>
</a>
</g>
</g>
<!-- Node401 -->
<g id="Node000401" class="node">
<title>Node401</title>
<g id="a_Node000401"><a xlink:href="external_8c.html#a9509bffa6aa3d47d1550d3d5683b9361" target="_top" xlink:title=" ">
<polygon fill="white" stroke="#666666" points="379,-315 287,-315 287,-296 379,-296 379,-315"/>
<text text-anchor="middle" x="333" y="-303" font-family="Helvetica,sans-Serif" font-size="10.00">func_800C5848</text>
</a>
</g>
</g>
<!-- Node381&#45;&gt;Node401 -->
<g id="edge37_Node000381_Node000401" class="edge">
<title>Node381&#45;&gt;Node401</title>
<g id="a_edge37_Node000381_Node000401"><a xlink:title=" ">
<path fill="none" stroke="#63b8ff" d="M197.26,-346.98C205.67,-344.34 214.71,-341.41 223,-338.5 239.2,-332.82 242.67,-329.78 259,-324.5 266.45,-322.09 274.4,-319.77 282.21,-317.63"/>
<polygon fill="#63b8ff" stroke="#63b8ff" points="283.22,-320.98 291.98,-315.02 281.41,-314.22 283.22,-320.98"/>
</a>
</g>
</g>
<!-- Node402 -->
<g id="Node000402" class="node">
<title>Node402</title>
<g id="a_Node000402"><a xlink:href="external_8c.html#a2b1be7122c397e0e6cbd0438a625b983" target="_top" xlink:title=" ">
<polygon fill="#fff0f0" stroke="red" points="379,-278 287,-278 287,-259 379,-259 379,-278"/>
<text text-anchor="middle" x="333" y="-266" font-family="Helvetica,sans-Serif" font-size="10.00">func_800C59C4</text>
</a>
</g>
</g>
<!-- Node381&#45;&gt;Node402 -->
<g id="edge38_Node000381_Node000402" class="edge">
<title>Node381&#45;&gt;Node402</title>
<g id="a_edge38_Node000381_Node000402"><a xlink:title=" ">
<path fill="none" stroke="#63b8ff" d="M207.58,-346.9C213.04,-344.65 218.35,-341.89 223,-338.5 245.42,-322.16 236.19,-303.29 259,-287.5 264.5,-283.69 270.71,-280.65 277.13,-278.22"/>
<polygon fill="#63b8ff" stroke="#63b8ff" points="278.23,-281.54 286.62,-275.07 276.03,-274.89 278.23,-281.54"/>
</a>
</g>
</g>
<!-- Node404 -->
<g id="Node000404" class="node">
<title>Node404</title>
<g id="a_Node000404"><a xlink:href="external_8c.html#aebe0a7e33d0961a0ad7e4ba40a49a032" target="_top" xlink:title=" ">
<polygon fill="#fff0f0" stroke="red" points="380,-241 286,-241 286,-222 380,-222 380,-241"/>
<text text-anchor="middle" x="333" y="-229" font-family="Helvetica,sans-Serif" font-size="10.00">func_800C8CCC</text>
</a>
</g>
</g>
<!-- Node381&#45;&gt;Node404 -->
<g id="edge39_Node000381_Node000404" class="edge">
<title>Node381&#45;&gt;Node404</title>
<g id="a_edge39_Node000381_Node000404"><a xlink:title=" ">
<path fill="none" stroke="#63b8ff" d="M210.37,-346.89C214.97,-344.65 219.3,-341.9 223,-338.5 254.12,-309.92 227.19,-278.32 259,-250.5 264.1,-246.04 270.12,-242.61 276.48,-239.97"/>
<polygon fill="#63b8ff" stroke="#63b8ff" points="277.69,-243.25 285.97,-236.64 275.38,-236.64 277.69,-243.25"/>
</a>
</g>
</g>
<!-- Node434 -->
<g id="Node000434" class="node">
<title>Node434</title>
<g id="a_Node000434"><a xlink:href="port__eu_8c.html#a01e0fb6ba3bfcf5f10f894ca7effbaea" target="_top" xlink:title=" ">
<polygon fill="#fff0f0" stroke="red" points="379.5,-463 286.5,-463 286.5,-444 379.5,-444 379.5,-463"/>
<text text-anchor="middle" x="333" y="-451" font-family="Helvetica,sans-Serif" font-size="10.00">func_800CBC24</text>
</a>
</g>
</g>
<!-- Node381&#45;&gt;Node434 -->
<g id="edge40_Node000381_Node000434" class="edge">
<title>Node381&#45;&gt;Node434</title>
<g id="a_edge40_Node000381_Node000434"><a xlink:title=" ">
<path fill="none" stroke="#63b8ff" d="M174.01,-366.15C189.31,-382.89 223.22,-417.25 259,-435.5 264.57,-438.34 270.61,-440.75 276.75,-442.79"/>
<polygon fill="#63b8ff" stroke="#63b8ff" points="275.85,-446.17 286.44,-445.69 277.86,-439.47 275.85,-446.17"/>
</a>
</g>
</g>
<!-- Node399&#45;&gt;Node211 -->
<g id="edge35_Node000399_Node000211" class="edge">
<title>Node399&#45;&gt;Node211</title>
<g id="a_edge35_Node000399_Node000211"><a xlink:title=" ">
<path fill="none" stroke="#63b8ff" d="M373.79,-500.03C393.62,-504.78 417.81,-510.57 438.85,-515.61"/>
<polygon fill="#63b8ff" stroke="#63b8ff" points="438.04,-519.01 448.58,-517.94 439.67,-512.21 438.04,-519.01"/>
</a>
</g>
</g>
<!-- Node399&#45;&gt;Node165 -->
<g id="edge36_Node000399_Node000165" class="edge">
<title>Node399&#45;&gt;Node165</title>
<g id="a_edge36_Node000399_Node000165"><a xlink:title=" ">
<path fill="none" stroke="#63b8ff" d="M379.1,-490.5C396,-490.5 415.4,-490.5 433.13,-490.5"/>
<polygon fill="#63b8ff" stroke="#63b8ff" points="433.34,-494 443.34,-490.5 433.34,-487 433.34,-494"/>
</a>
</g>
</g>
<!-- Node437 -->
<g id="Node000437" class="node">
<title>Node437</title>
<g id="a_Node000437"><a xlink:href="memory_8c.html#a08672f1381d39b459aa779748bf40143" target="_top" xlink:title="Allocates memory and adjusts gFreeMemorySize.">
<polygon fill="white" stroke="#666666" points="384,-167 282,-167 282,-148 384,-148 384,-167"/>
<text text-anchor="middle" x="333" y="-155" font-family="Helvetica,sans-Serif" font-size="10.00">allocate_memory</text>
</a>
</g>
</g>
<!-- Node436&#45;&gt;Node437 -->
<g id="edge44_Node000436_Node000437" class="edge">
<title>Node436&#45;&gt;Node437</title>
<g id="a_edge44_Node000436_Node000437"><a xlink:title=" ">
<path fill="none" stroke="#63b8ff" d="M223.27,-171.87C238.91,-169.8 255.88,-167.56 271.65,-165.47"/>
<polygon fill="#63b8ff" stroke="#63b8ff" points="272.37,-168.91 281.82,-164.13 271.45,-161.97 272.37,-168.91"/>
</a>
</g>
</g>
<!-- Node438 -->
<g id="Node000438" class="node">
<title>Node438</title>
<g id="a_Node000438"><a xlink:href="Game_8cpp.html#a88c0d93fc49776f7a5c145312f4f81a0" target="_top" xlink:title=" ">
<polygon fill="#fff0f0" stroke="red" points="376,-130 290,-130 290,-111 376,-111 376,-130"/>
<text text-anchor="middle" x="333" y="-118" font-family="Helvetica,sans-Serif" font-size="10.00">CM_BeginPlay</text>
</a>
</g>
</g>
<!-- Node436&#45;&gt;Node438 -->
<g id="edge45_Node000436_Node000438" class="edge">
<title>Node436&#45;&gt;Node438</title>
<g id="a_edge45_Node000436_Node000438"><a xlink:title=" ">
<path fill="none" stroke="#63b8ff" d="M202.05,-164.39C209.02,-161.47 216.24,-158.41 223,-155.5 239.08,-148.57 242.47,-145.28 259,-139.5 265.88,-137.09 273.23,-134.83 280.5,-132.77"/>
<polygon fill="#63b8ff" stroke="#63b8ff" points="281.61,-136.1 290.34,-130.09 279.77,-129.34 281.61,-136.1"/>
</a>
</g>
</g>
<!-- Node446 -->
<g id="Node000446" class="node">
<title>Node446</title>
<g id="a_Node000446"><a xlink:href="Game_8cpp.html#a13d5b10b9acb59b4b90db739aba83d1f" target="_top" xlink:title=" ">
<polygon fill="white" stroke="#666666" points="379.5,-204 286.5,-204 286.5,-185 379.5,-185 379.5,-204"/>
<text text-anchor="middle" x="333" y="-192" font-family="Helvetica,sans-Serif" font-size="10.00">CM_CleanWorld</text>
</a>
</g>
</g>
<!-- Node436&#45;&gt;Node446 -->
<g id="edge46_Node000436_Node000446" class="edge">
<title>Node436&#45;&gt;Node446</title>
<g id="a_edge46_Node000436_Node000446"><a xlink:title=" ">
<path fill="none" stroke="#63b8ff" d="M223.27,-184.7C240.38,-186.25 259.08,-187.93 276.07,-189.46"/>
<polygon fill="#63b8ff" stroke="#63b8ff" points="276.13,-192.98 286.4,-190.39 276.76,-186.01 276.13,-192.98"/>
</a>
</g>
</g>
<!-- Node447 -->
<g id="Node000447" class="node">
<title>Node447</title>
<g id="a_Node000447"><a xlink:href="Game_8cpp.html#aed1eabdc18e483fc04bd8f3c1b02968d" target="_top" xlink:title=" ">
<polygon fill="white" stroke="#666666" points="384,-93 282,-93 282,-74 384,-74 384,-93"/>
<text text-anchor="middle" x="333" y="-81" font-family="Helvetica,sans-Serif" font-size="10.00">CM_LoadTextures</text>
</a>
</g>
</g>
<!-- Node436&#45;&gt;Node447 -->
<g id="edge47_Node000436_Node000447" class="edge">
<title>Node436&#45;&gt;Node447</title>
<g id="a_edge47_Node000436_Node000447"><a xlink:title=" ">
<path fill="none" stroke="#63b8ff" d="M209.43,-164.38C214.25,-161.8 218.89,-158.85 223,-155.5 245.06,-137.49 235.73,-118.91 259,-102.5 263.17,-99.56 267.77,-97.07 272.56,-94.97"/>
<polygon fill="#63b8ff" stroke="#63b8ff" points="273.87,-98.21 281.96,-91.38 271.37,-91.67 273.87,-98.21"/>
</a>
</g>
</g>
<!-- Node448 -->
<g id="Node000448" class="node">
<title>Node448</title>
<g id="a_Node000448"><a xlink:href="Game_8cpp.html#a9f4b6957a832af2100bd62fb6aa9acd2" target="_top" xlink:title=" ">
<polygon fill="white" stroke="#666666" points="407,-56 259,-56 259,-37 407,-37 407,-56"/>
<text text-anchor="middle" x="333" y="-44" font-family="Helvetica,sans-Serif" font-size="10.00">CM_SpawnFromLevelProps</text>
</a>
</g>
</g>
<!-- Node436&#45;&gt;Node448 -->
<g id="edge48_Node000436_Node000448" class="edge">
<title>Node436&#45;&gt;Node448</title>
<g id="a_edge48_Node000436_Node000448"><a xlink:title=" ">
<path fill="none" stroke="#63b8ff" d="M211.62,-164.36C215.77,-161.82 219.66,-158.89 223,-155.5 253.24,-124.81 226.68,-93.99 259,-65.5 260.93,-63.8 263,-62.24 265.17,-60.82"/>
<polygon fill="#63b8ff" stroke="#63b8ff" points="266.89,-63.87 273.98,-56 263.53,-57.73 266.89,-63.87"/>
</a>
</g>
</g>
<!-- Node449 -->
<g id="Node000449" class="node">
<title>Node449</title>
<g id="a_Node000449"><a xlink:href="actors_8c.html#a90bb1e98b1fc94450092f4fddff2a61b" target="_top" xlink:title=" ">
<polygon fill="#fff0f0" stroke="red" points="386,-19 280,-19 280,0 386,0 386,-19"/>
<text text-anchor="middle" x="333" y="-7" font-family="Helvetica,sans-Serif" font-size="10.00">destroy_all_actors</text>
</a>
</g>
</g>
<!-- Node436&#45;&gt;Node449 -->
<g id="edge49_Node000436_Node000449" class="edge">
<title>Node436&#45;&gt;Node449</title>
<g id="a_edge49_Node000436_Node000449"><a xlink:title=" ">
<path fill="none" stroke="#63b8ff" d="M212.55,-164.36C216.42,-161.83 219.99,-158.9 223,-155.5 262.18,-111.26 216.54,-68.6 259,-27.5 262.36,-24.25 266.21,-21.55 270.35,-19.32"/>
<polygon fill="#63b8ff" stroke="#63b8ff" points="272.06,-22.39 279.79,-15.15 269.23,-15.99 272.06,-22.39"/>
</a>
</g>
</g>
<!-- Node476&#45;&gt;Node446 -->
<g id="edge52_Node000476_Node000446" class="edge">
<title>Node476&#45;&gt;Node446</title>
<g id="a_edge52_Node000476_Node000446"><a xlink:title=" ">
<path fill="none" stroke="#63b8ff" d="M202.04,-228.06C226.49,-221.75 258.88,-213.38 285.21,-206.58"/>
<polygon fill="#63b8ff" stroke="#63b8ff" points="286.16,-209.95 294.97,-204.06 284.41,-203.17 286.16,-209.95"/>
</a>
</g>
</g>
</g>
</svg>

<g id="navigator" transform="translate(0 0)" fill="#404254">
  <rect fill="#f2f5e9" fill-opacity="0.5" stroke="#606060" stroke-width=".5" x="0" y="0" width="60" height="60"/>
  <use id="zoomplus" xlink:href="#zoomPlus" x="17" y="9" onmousedown="handleZoom(evt,'in')"/>
  <use id="zoomminus" xlink:href="#zoomMin" x="42" y="9" onmousedown="handleZoom(evt,'out')"/>
  <use id="reset" xlink:href="#resetDef" x="30" y="36" onmousedown="handleReset()"/>
   <use id="arrowup" xlink:href="#arrowUp" x="0" y="0" onmousedown="handlePan(0,-1)"/>
  <use id="arrowright" xlink:href="#arrowRight" x="0" y="0" onmousedown="handlePan(1,0)"/>
  <use id="arrowdown" xlink:href="#arrowDown" x="0" y="0" onmousedown="handlePan(0,1)"/>
  <use id="arrowleft" xlink:href="#arrowLeft" x="0" y="0" onmousedown="handlePan(-1,0)"/>
</g>
<svg viewBox="0 0 15 15" width="100%" height="30px" preserveAspectRatio="xMaxYMin meet">
 <g id="arrow_out" transform="scale(0.3 0.3)">
  <a xlink:href="code__800029B0_8c_aca6165112fc92e65ad6477e785a7098c_cgraph_org.svg" target="_base">
   <rect id="button" ry="5" rx="5" y="6" x="6" height="38" width="38"
        fill="#f2f5e9" fill-opacity="0.5" stroke="#606060" stroke-width="1.0"/>
   <path id="arrow"
     d="M 11.500037,31.436501 C 11.940474,20.09759 22.043105,11.32322 32.158766,21.979434 L 37.068811,17.246167 C 37.068811,17.246167 37.088388,32 37.088388,32 L 22.160133,31.978069 C 22.160133,31.978069 26.997745,27.140456 26.997745,27.140456 C 18.528582,18.264221 13.291696,25.230495 11.500037,31.436501 z"
     style="fill:#404040;"/>
  </a>
 </g>
</svg>

<style type='text/css'>
<![CDATA[
[data-mouse-over-selected='false'] { opacity: 0.7; }
[data-mouse-over-selected='true']  { opacity: 1.0; }
]]>
</style>
<script type="application/ecmascript"><![CDATA[
document.addEventListener('DOMContentLoaded', (event) => {
  highlightEdges();
  highlightAdjacentNodes();
});
]]></script>
</svg>
