<?xml version="1.0" encoding="UTF-8" standalone="no"?>
<!DOCTYPE svg PUBLIC "-//W3C//DTD SVG 1.1//EN"
 "http://www.w3.org/Graphics/SVG/1.1/DTD/svg11.dtd">
<!-- Generated by graphviz version 2.43.0 (0)
 -->
<!-- Title: setup_editor Pages: 1 -->
<svg width="583pt" height="1496pt"
 viewBox="0.00 0.00 583.00 1496.49" xmlns="http://www.w3.org/2000/svg" xmlns:xlink="http://www.w3.org/1999/xlink">
<g id="graph0" class="graph" transform="scale(1 1) rotate(0) translate(4 1492.49)">
<title>setup_editor</title>
<!-- Node1 -->
<g id="Node000001" class="node">
<title>Node1</title>
<g id="a_Node000001"><a xlink:title=" ">
<polygon fill="#999999" stroke="#666666" points="77,-776 0,-776 0,-757 77,-757 77,-776"/>
<text text-anchor="middle" x="38.5" y="-764" font-family="Helvetica,sans-Serif" font-size="10.00">setup_editor</text>
</a>
</g>
</g>
<!-- Node2 -->
<g id="Node000002" class="node">
<title>Node2</title>
<g id="a_Node000002"><a xlink:href="render__courses_8c.html#aac6d8578ed19549d2ac55e9998f99303" target="_top" xlink:title=" ">
<polygon fill="white" stroke="#666666" points="206.5,-1376 136.5,-1376 136.5,-1357 206.5,-1357 206.5,-1376"/>
<text text-anchor="middle" x="171.5" y="-1364" font-family="Helvetica,sans-Serif" font-size="10.00">course_init</text>
</a>
</g>
</g>
<!-- Node1&#45;&gt;Node2 -->
<g id="edge1_Node000001_Node000002" class="edge">
<title>Node1&#45;&gt;Node2</title>
<g id="a_edge1_Node000001_Node000002"><a xlink:title=" ">
<path fill="none" stroke="#63b8ff" d="M39.35,-776.19C38.46,-844.77 36.39,-1256.9 113,-1348.5 116.69,-1352.91 121.45,-1356.26 126.65,-1358.8"/>
<polygon fill="#63b8ff" stroke="#63b8ff" points="125.75,-1362.2 136.34,-1362.54 128.27,-1355.67 125.75,-1362.2"/>
</a>
</g>
</g>
<!-- Node3 -->
<g id="Node000003" class="node">
<title>Node3</title>
<g id="a_Node000003"><a xlink:href="replays_8c.html#ad3fe55bff348a8b6cfc02f327bda8544" target="_top" xlink:title=" ">
<polygon fill="white" stroke="#666666" points="217,-1105 126,-1105 126,-1086 217,-1086 217,-1105"/>
<text text-anchor="middle" x="171.5" y="-1093" font-family="Helvetica,sans-Serif" font-size="10.00">func_80005310</text>
</a>
</g>
</g>
<!-- Node1&#45;&gt;Node3 -->
<g id="edge2_Node000001_Node000003" class="edge">
<title>Node1&#45;&gt;Node3</title>
<g id="a_edge2_Node000001_Node000003"><a xlink:title=" ">
<path fill="none" stroke="#63b8ff" d="M43.42,-776.35C61.65,-822.13 138.28,-1014.59 162.87,-1076.34"/>
<polygon fill="#63b8ff" stroke="#63b8ff" points="159.64,-1077.7 166.59,-1085.69 166.15,-1075.11 159.64,-1077.7"/>
</a>
</g>
</g>
<!-- Node66 -->
<g id="Node000066" class="node">
<title>Node66</title>
<g id="a_Node000066"><a xlink:href="spawn__players_8c.html#ac1a9412b931cfa517a2382c2fc605399" target="_top" xlink:title=" ">
<polygon fill="white" stroke="#666666" points="217.5,-850 125.5,-850 125.5,-831 217.5,-831 217.5,-850"/>
<text text-anchor="middle" x="171.5" y="-838" font-family="Helvetica,sans-Serif" font-size="10.00">func_8003D080</text>
</a>
</g>
</g>
<!-- Node1&#45;&gt;Node66 -->
<g id="edge11_Node000001_Node000066" class="edge">
<title>Node1&#45;&gt;Node66</title>
<g id="a_edge11_Node000001_Node000066"><a xlink:title=" ">
<path fill="none" stroke="#63b8ff" d="M56.36,-776.02C78.64,-788.61 118.12,-810.91 144.3,-825.7"/>
<polygon fill="#63b8ff" stroke="#63b8ff" points="142.86,-828.91 153.29,-830.78 146.31,-822.81 142.86,-828.91"/>
</a>
</g>
</g>
<!-- Node374 -->
<g id="Node000374" class="node">
<title>Node374</title>
<g id="a_Node000374"><a xlink:href="menu__items_8c.html#a11daab0c2cb2700179b2325d2c619769" target="_top" xlink:title=" ">
<polygon fill="white" stroke="#666666" points="216.5,-1339 126.5,-1339 126.5,-1320 216.5,-1320 216.5,-1339"/>
<text text-anchor="middle" x="171.5" y="-1327" font-family="Helvetica,sans-Serif" font-size="10.00">func_80091FA4</text>
</a>
</g>
</g>
<!-- Node1&#45;&gt;Node374 -->
<g id="edge20_Node000001_Node000374" class="edge">
<title>Node1&#45;&gt;Node374</title>
<g id="a_edge20_Node000001_Node000374"><a xlink:title=" ">
<path fill="none" stroke="#63b8ff" d="M41.36,-776.23C49.26,-817.38 81.12,-981.18 113,-1114.5 130.34,-1187.01 154.21,-1272.36 164.91,-1310"/>
<polygon fill="#63b8ff" stroke="#63b8ff" points="161.57,-1311.03 167.68,-1319.69 168.3,-1309.11 161.57,-1311.03"/>
</a>
</g>
</g>
<!-- Node380 -->
<g id="Node000380" class="node">
<title>Node380</title>
<g id="a_Node000380"><a xlink:href="skybox__and__splitscreen_8c.html#a1520a44a27c37f0b2554764974afb428" target="_top" xlink:title=" ">
<polygon fill="white" stroke="#666666" points="218,-776 125,-776 125,-757 218,-757 218,-776"/>
<text text-anchor="middle" x="171.5" y="-764" font-family="Helvetica,sans-Serif" font-size="10.00">func_802A4D18</text>
</a>
</g>
</g>
<!-- Node1&#45;&gt;Node380 -->
<g id="edge28_Node000001_Node000380" class="edge">
<title>Node1&#45;&gt;Node380</title>
<g id="a_edge28_Node000001_Node000380"><a xlink:title=" ">
<path fill="none" stroke="#63b8ff" d="M77.04,-766.5C88.73,-766.5 101.89,-766.5 114.56,-766.5"/>
<polygon fill="#63b8ff" stroke="#63b8ff" points="114.58,-770 124.58,-766.5 114.58,-763 114.58,-770"/>
</a>
</g>
</g>
<!-- Node381 -->
<g id="Node000381" class="node">
<title>Node381</title>
<g id="a_Node000381"><a xlink:href="actors_8c.html#a142a32371ea62d0303702286b839bdfd" target="_top" xlink:title="Loads actor textures, course specific actor textures. Calls to spawn_course_vehicles and place_course...">
<polygon fill="white" stroke="#666666" points="230,-502.5 113,-502.5 113,-472.5 230,-472.5 230,-502.5"/>
<text text-anchor="start" x="121" y="-490.5" font-family="Helvetica,sans-Serif" font-size="10.00">init_actors_and_load</text>
<text text-anchor="middle" x="171.5" y="-479.5" font-family="Helvetica,sans-Serif" font-size="10.00">_textures</text>
</a>
</g>
</g>
<!-- Node1&#45;&gt;Node381 -->
<g id="edge29_Node000001_Node000381" class="edge">
<title>Node1&#45;&gt;Node381</title>
<g id="a_edge29_Node000001_Node000381"><a xlink:title=" ">
<path fill="none" stroke="#63b8ff" d="M44.01,-756.9C62.3,-717.95 131.27,-571.04 158.93,-512.15"/>
<polygon fill="#63b8ff" stroke="#63b8ff" points="162.21,-513.39 163.29,-502.85 155.88,-510.41 162.21,-513.39"/>
</a>
</g>
</g>
<!-- Node400 -->
<g id="Node000400" class="node">
<title>Node400</title>
<g id="a_Node000400"><a xlink:href="code__8006E9C0_8c.html#a47667a5a47fd4ca740865e963ce795c9" target="_top" xlink:title=" ">
<polygon fill="white" stroke="#666666" points="199.5,-201 143.5,-201 143.5,-182 199.5,-182 199.5,-201"/>
<text text-anchor="middle" x="171.5" y="-189" font-family="Helvetica,sans-Serif" font-size="10.00">init_hud</text>
</a>
</g>
</g>
<!-- Node1&#45;&gt;Node400 -->
<g id="edge41_Node000001_Node000400" class="edge">
<title>Node1&#45;&gt;Node400</title>
<g id="a_edge41_Node000001_Node000400"><a xlink:title=" ">
<path fill="none" stroke="#63b8ff" d="M41.66,-757C56.64,-691.26 144.9,-303.87 165.98,-211.34"/>
<polygon fill="#63b8ff" stroke="#63b8ff" points="169.45,-211.87 168.26,-201.35 162.62,-210.32 169.45,-211.87"/>
</a>
</g>
</g>
<!-- Node421 -->
<g id="Node000421" class="node">
<title>Node421</title>
<g id="a_Node000421"><a xlink:href="memory_8c.html#a332cad400462e507d8d6d2d68035b0b2" target="_top" xlink:title="Loads &amp; DMAs course data. Vtx, textures, displaylists, etc.">
<polygon fill="white" stroke="#666666" points="209,-702 134,-702 134,-683 209,-683 209,-702"/>
<text text-anchor="middle" x="171.5" y="-690" font-family="Helvetica,sans-Serif" font-size="10.00">load_course</text>
</a>
</g>
</g>
<!-- Node1&#45;&gt;Node421 -->
<g id="edge49_Node000001_Node000421" class="edge">
<title>Node1&#45;&gt;Node421</title>
<g id="a_edge49_Node000001_Node000421"><a xlink:title=" ">
<path fill="none" stroke="#63b8ff" d="M56.36,-756.98C78.64,-744.39 118.12,-722.09 144.3,-707.3"/>
<polygon fill="#63b8ff" stroke="#63b8ff" points="146.31,-710.19 153.29,-702.22 142.86,-704.09 146.31,-710.19"/>
</a>
</g>
</g>
<!-- Node424 -->
<g id="Node000424" class="node">
<title>Node424</title>
<g id="a_Node000424"><a xlink:href="skybox__and__splitscreen_8c.html#af0018a2ee17ccf0a0c9155d767f0ca48" target="_top" xlink:title=" ">
<polygon fill="white" stroke="#666666" points="223,-164 120,-164 120,-145 223,-145 223,-164"/>
<text text-anchor="middle" x="171.5" y="-152" font-family="Helvetica,sans-Serif" font-size="10.00">set_editor_screen</text>
</a>
</g>
</g>
<!-- Node1&#45;&gt;Node424 -->
<g id="edge53_Node000001_Node000424" class="edge">
<title>Node1&#45;&gt;Node424</title>
<g id="a_edge53_Node000001_Node000424"><a xlink:title=" ">
<path fill="none" stroke="#63b8ff" d="M39.33,-756.64C38.36,-686.87 35.81,-267.5 113,-173.5 114,-172.28 115.08,-171.14 116.23,-170.07"/>
<polygon fill="#63b8ff" stroke="#63b8ff" points="118.57,-172.7 124.65,-164.02 114.49,-167.02 118.57,-172.7"/>
</a>
</g>
</g>
<!-- Node4 -->
<g id="Node000004" class="node">
<title>Node4</title>
<g id="a_Node000004"><a xlink:href="menu__items_8c.html#aeaaf45d9941e43e3b6558dcbfa6d43b5" target="_top" xlink:title=" ">
<polygon fill="#fff0f0" stroke="red" points="397,-1216 306,-1216 306,-1197 397,-1197 397,-1216"/>
<text text-anchor="middle" x="351.5" y="-1204" font-family="Helvetica,sans-Serif" font-size="10.00">func_80091EE4</text>
</a>
</g>
</g>
<!-- Node3&#45;&gt;Node4 -->
<g id="edge3_Node000003_Node000004" class="edge">
<title>Node3&#45;&gt;Node4</title>
<g id="a_edge3_Node000003_Node000004"><a xlink:title=" ">
<path fill="none" stroke="#63b8ff" d="M179.21,-1105.2C193.04,-1124.41 226.74,-1167.24 266,-1188.5 275.2,-1193.48 285.65,-1197.08 296,-1199.69"/>
<polygon fill="#63b8ff" stroke="#63b8ff" points="295.31,-1203.12 305.84,-1201.89 296.84,-1196.29 295.31,-1203.12"/>
</a>
</g>
</g>
<!-- Node60 -->
<g id="Node000060" class="node">
<title>Node60</title>
<g id="a_Node000060"><a xlink:href="Game_8cpp.html#afc50c2379544210dc453d8e28cff2abd" target="_top" xlink:title=" ">
<polygon fill="white" stroke="#666666" points="385.5,-1179 317.5,-1179 317.5,-1160 385.5,-1160 385.5,-1179"/>
<text text-anchor="middle" x="351.5" y="-1167" font-family="Helvetica,sans-Serif" font-size="10.00">GetCourse</text>
</a>
</g>
</g>
<!-- Node3&#45;&gt;Node60 -->
<g id="edge6_Node000003_Node000060" class="edge">
<title>Node3&#45;&gt;Node60</title>
<g id="a_edge6_Node000003_Node000060"><a xlink:title=" ">
<path fill="none" stroke="#63b8ff" d="M185.4,-1105.13C202.81,-1117.66 235.19,-1139.38 266,-1151.5 279.01,-1156.62 293.76,-1160.4 307.24,-1163.13"/>
<polygon fill="#63b8ff" stroke="#63b8ff" points="306.79,-1166.61 317.26,-1165.02 308.08,-1159.73 306.79,-1166.61"/>
</a>
</g>
</g>
<!-- Node61 -->
<g id="Node000061" class="node">
<title>Node61</title>
<g id="a_Node000061"><a xlink:href="replays_8c.html#ada30ba013c97df306b243dbd89d8979f" target="_top" xlink:title=" ">
<polygon fill="#fff0f0" stroke="red" points="405,-1142 298,-1142 298,-1123 405,-1123 405,-1142"/>
<text text-anchor="middle" x="351.5" y="-1130" font-family="Helvetica,sans-Serif" font-size="10.00">load_course_ghost</text>
</a>
</g>
</g>
<!-- Node3&#45;&gt;Node61 -->
<g id="edge7_Node000003_Node000061" class="edge">
<title>Node3&#45;&gt;Node61</title>
<g id="a_edge7_Node000003_Node000061"><a xlink:title=" ">
<path fill="none" stroke="#63b8ff" d="M217.42,-1104.84C240.86,-1109.71 269.77,-1115.72 294.64,-1120.89"/>
<polygon fill="#63b8ff" stroke="#63b8ff" points="294.16,-1124.36 304.67,-1122.97 295.59,-1117.51 294.16,-1124.36"/>
</a>
</g>
</g>
<!-- Node62 -->
<g id="Node000062" class="node">
<title>Node62</title>
<g id="a_Node000062"><a xlink:href="replays_8c.html#a83973fcda05d24a97b11dc1eca20aea5" target="_top" xlink:title=" ">
<polygon fill="white" stroke="#666666" points="404.5,-1105 298.5,-1105 298.5,-1086 404.5,-1086 404.5,-1105"/>
<text text-anchor="middle" x="351.5" y="-1093" font-family="Helvetica,sans-Serif" font-size="10.00">load_player_ghost</text>
</a>
</g>
</g>
<!-- Node3&#45;&gt;Node62 -->
<g id="edge8_Node000003_Node000062" class="edge">
<title>Node3&#45;&gt;Node62</title>
<g id="a_edge8_Node000003_Node000062"><a xlink:title=" ">
<path fill="none" stroke="#63b8ff" d="M217.42,-1095.5C238.86,-1095.5 264.87,-1095.5 288.18,-1095.5"/>
<polygon fill="#63b8ff" stroke="#63b8ff" points="288.33,-1099 298.33,-1095.5 288.33,-1092 288.33,-1099"/>
</a>
</g>
</g>
<!-- Node63 -->
<g id="Node000063" class="node">
<title>Node63</title>
<g id="a_Node000063"><a xlink:href="replays_8c.html#ae7d61f2c74810b3ee3efdf03b4dcc3d2" target="_top" xlink:title=" ">
<polygon fill="white" stroke="#666666" points="409.5,-1067.5 293.5,-1067.5 293.5,-1037.5 409.5,-1037.5 409.5,-1067.5"/>
<text text-anchor="start" x="301.5" y="-1055.5" font-family="Helvetica,sans-Serif" font-size="10.00">load_post_time_trial</text>
<text text-anchor="middle" x="351.5" y="-1044.5" font-family="Helvetica,sans-Serif" font-size="10.00">_replay</text>
</a>
</g>
</g>
<!-- Node3&#45;&gt;Node63 -->
<g id="edge9_Node000003_Node000063" class="edge">
<title>Node3&#45;&gt;Node63</title>
<g id="a_edge9_Node000003_Node000063"><a xlink:title=" ">
<path fill="none" stroke="#63b8ff" d="M212,-1085.96C232.98,-1080.89 259.33,-1074.52 283.4,-1068.71"/>
<polygon fill="#63b8ff" stroke="#63b8ff" points="284.31,-1072.09 293.2,-1066.34 282.66,-1065.29 284.31,-1072.09"/>
</a>
</g>
</g>
<!-- Node64 -->
<g id="Node000064" class="node">
<title>Node64</title>
<g id="a_Node000064"><a xlink:href="replays_8c.html#a80fa9da37c18f25041a3ec02cec5cd25" target="_top" xlink:title=" ">
<polygon fill="#fff0f0" stroke="red" points="397,-1019 306,-1019 306,-1000 397,-1000 397,-1019"/>
<text text-anchor="middle" x="351.5" y="-1007" font-family="Helvetica,sans-Serif" font-size="10.00">set_staff_ghost</text>
</a>
</g>
</g>
<!-- Node3&#45;&gt;Node64 -->
<g id="edge10_Node000003_Node000064" class="edge">
<title>Node3&#45;&gt;Node64</title>
<g id="a_edge10_Node000003_Node000064"><a xlink:title=" ">
<path fill="none" stroke="#63b8ff" d="M182.84,-1085.91C199.2,-1071.26 232.65,-1043.45 266,-1028.5 275.26,-1024.35 285.51,-1021.06 295.59,-1018.48"/>
<polygon fill="#63b8ff" stroke="#63b8ff" points="296.64,-1021.83 305.56,-1016.12 295.03,-1015.02 296.64,-1021.83"/>
</a>
</g>
</g>
<!-- Node5 -->
<g id="Node000005" class="node">
<title>Node5</title>
<g id="a_Node000005"><a xlink:href="save_8c.html#aefd3604da4aa5ae9ed1eb8fd042ff5e9" target="_top" xlink:title=" ">
<polygon fill="#fff0f0" stroke="red" points="570,-1370 478,-1370 478,-1351 570,-1351 570,-1370"/>
<text text-anchor="middle" x="524" y="-1358" font-family="Helvetica,sans-Serif" font-size="10.00">func_800B5F30</text>
</a>
</g>
</g>
<!-- Node4&#45;&gt;Node5 -->
<g id="edge4_Node000004_Node000005" class="edge">
<title>Node4&#45;&gt;Node5</title>
<g id="a_edge4_Node000004_Node000005"><a xlink:title=" ">
<path fill="none" stroke="#63b8ff" d="M397.29,-1209.94C410.97,-1212.66 425.43,-1217.38 437,-1225.5 478.72,-1254.81 504.81,-1311.45 516.25,-1341.19"/>
<polygon fill="#63b8ff" stroke="#63b8ff" points="513.06,-1342.65 519.8,-1350.83 519.63,-1340.23 513.06,-1342.65"/>
</a>
</g>
</g>
<!-- Node50 -->
<g id="Node000050" class="node">
<title>Node50</title>
<g id="a_Node000050"><a xlink:href="save_8c.html#a368a7faa2d9a4bc5a9ecb359dbfa8187" target="_top" xlink:title=" ">
<polygon fill="#fff0f0" stroke="red" points="570,-1216 478,-1216 478,-1197 570,-1197 570,-1216"/>
<text text-anchor="middle" x="524" y="-1204" font-family="Helvetica,sans-Serif" font-size="10.00">func_800B64EC</text>
</a>
</g>
</g>
<!-- Node4&#45;&gt;Node50 -->
<g id="edge5_Node000004_Node000050" class="edge">
<title>Node4&#45;&gt;Node50</title>
<g id="a_edge5_Node000004_Node000050"><a xlink:title=" ">
<path fill="none" stroke="#63b8ff" d="M397.3,-1206.5C418.86,-1206.5 444.91,-1206.5 467.7,-1206.5"/>
<polygon fill="#63b8ff" stroke="#63b8ff" points="467.91,-1210 477.91,-1206.5 467.91,-1203 467.91,-1210"/>
</a>
</g>
</g>
<!-- Node67 -->
<g id="Node000067" class="node">
<title>Node67</title>
<g id="a_Node000067"><a xlink:href="camera_8c.html#a2699fb853dad47cc722031ca412a31ea" target="_top" xlink:title=" ">
<polygon fill="#fff0f0" stroke="red" points="388.5,-982 314.5,-982 314.5,-963 388.5,-963 388.5,-982"/>
<text text-anchor="middle" x="351.5" y="-970" font-family="Helvetica,sans-Serif" font-size="10.00">camera_init</text>
</a>
</g>
</g>
<!-- Node66&#45;&gt;Node67 -->
<g id="edge12_Node000066_Node000067" class="edge">
<title>Node66&#45;&gt;Node67</title>
<g id="a_edge12_Node000066_Node000067"><a xlink:title=" ">
<path fill="none" stroke="#63b8ff" d="M177.51,-850.32C189.48,-872.73 222.05,-927.74 266,-954.5 277.54,-961.52 291.41,-965.83 304.55,-968.47"/>
<polygon fill="#63b8ff" stroke="#63b8ff" points="303.96,-971.92 314.41,-970.18 305.15,-965.02 303.96,-971.92"/>
</a>
</g>
</g>
<!-- Node73 -->
<g id="Node000073" class="node">
<title>Node73</title>
<g id="a_Node000073"><a xlink:href="camera_8c.html#a77eb0aa11072a84cb3dfc4446aa1bff5" target="_top" xlink:title=" ">
<polygon fill="#fff0f0" stroke="red" points="390.5,-945 312.5,-945 312.5,-926 390.5,-926 390.5,-945"/>
<text text-anchor="middle" x="351.5" y="-933" font-family="Helvetica,sans-Serif" font-size="10.00">freecam_init</text>
</a>
</g>
</g>
<!-- Node66&#45;&gt;Node73 -->
<g id="edge13_Node000066_Node000073" class="edge">
<title>Node66&#45;&gt;Node73</title>
<g id="a_edge13_Node000066_Node000073"><a xlink:title=" ">
<path fill="none" stroke="#63b8ff" d="M182.57,-850.21C198.82,-865.4 232.45,-894.75 266,-911.5 277.41,-917.2 290.39,-921.73 302.69,-925.26"/>
<polygon fill="#63b8ff" stroke="#63b8ff" points="301.79,-928.65 312.36,-927.87 303.62,-921.89 301.79,-928.65"/>
</a>
</g>
</g>
<!-- Node74 -->
<g id="Node000074" class="node">
<title>Node74</title>
<g id="a_Node000074"><a xlink:href="spawn__players_8c.html#afb1c307e34d73d9c004936d2752c44ce" target="_top" xlink:title=" ">
<polygon fill="#fff0f0" stroke="red" points="397.5,-869 305.5,-869 305.5,-850 397.5,-850 397.5,-869"/>
<text text-anchor="middle" x="351.5" y="-857" font-family="Helvetica,sans-Serif" font-size="10.00">func_8003C0F0</text>
</a>
</g>
</g>
<!-- Node66&#45;&gt;Node74 -->
<g id="edge14_Node000066_Node000074" class="edge">
<title>Node66&#45;&gt;Node74</title>
<g id="a_edge14_Node000066_Node000074"><a xlink:title=" ">
<path fill="none" stroke="#63b8ff" d="M217.88,-845.34C241.42,-847.86 270.36,-850.95 295.2,-853.6"/>
<polygon fill="#63b8ff" stroke="#63b8ff" points="294.89,-857.08 305.21,-854.67 295.63,-850.12 294.89,-857.08"/>
</a>
</g>
</g>
<!-- Node137 -->
<g id="Node000137" class="node">
<title>Node137</title>
<g id="a_Node000137"><a xlink:href="Game_8cpp.html#a7dfa77f8baa97e05f88abc7be3dd45a1" target="_top" xlink:title=" ">
<polygon fill="white" stroke="#666666" points="570.5,-888 477.5,-888 477.5,-869 570.5,-869 570.5,-888"/>
<text text-anchor="middle" x="524" y="-876" font-family="Helvetica,sans-Serif" font-size="10.00">IsToadsTurnpike</text>
</a>
</g>
</g>
<!-- Node66&#45;&gt;Node137 -->
<g id="edge19_Node000066_Node000137" class="edge">
<title>Node66&#45;&gt;Node137</title>
<g id="a_edge19_Node000066_Node000137"><a xlink:title=" ">
<path fill="none" stroke="#63b8ff" d="M190.13,-850.08C208.47,-859.45 238.31,-873.09 266,-878.5 334.35,-891.86 414.9,-888.93 467.36,-884.6"/>
<polygon fill="#63b8ff" stroke="#63b8ff" points="467.8,-888.08 477.46,-883.73 467.2,-881.1 467.8,-888.08"/>
</a>
</g>
</g>
<!-- Node150 -->
<g id="Node000150" class="node">
<title>Node150</title>
<g id="a_Node000150"><a xlink:href="spawn__players_8c.html#a400676f9bd53662b5636a7f191f947aa" target="_top" xlink:title=" ">
<polygon fill="#fff0f0" stroke="red" points="398,-832 305,-832 305,-813 398,-813 398,-832"/>
<text text-anchor="middle" x="351.5" y="-820" font-family="Helvetica,sans-Serif" font-size="10.00">func_8003CD78</text>
</a>
</g>
</g>
<!-- Node66&#45;&gt;Node150 -->
<g id="edge16_Node000066_Node000150" class="edge">
<title>Node66&#45;&gt;Node150</title>
<g id="a_edge16_Node000066_Node000150"><a xlink:title=" ">
<path fill="none" stroke="#63b8ff" d="M217.88,-835.91C241.32,-833.54 270.14,-830.63 294.91,-828.12"/>
<polygon fill="#63b8ff" stroke="#63b8ff" points="295.3,-831.6 304.9,-827.11 294.59,-824.64 295.3,-831.6"/>
</a>
</g>
</g>
<!-- Node152 -->
<g id="Node000152" class="node">
<title>Node152</title>
<g id="a_Node000152"><a xlink:href="spawn__players_8c.html#a1d1dc4164aa554583609ad0d9bbbf276" target="_top" xlink:title=" ">
<polygon fill="#fff0f0" stroke="red" points="398,-795 305,-795 305,-776 398,-776 398,-795"/>
<text text-anchor="middle" x="351.5" y="-783" font-family="Helvetica,sans-Serif" font-size="10.00">func_8003CD98</text>
</a>
</g>
</g>
<!-- Node66&#45;&gt;Node152 -->
<g id="edge17_Node000066_Node000152" class="edge">
<title>Node66&#45;&gt;Node152</title>
<g id="a_edge17_Node000066_Node000152"><a xlink:title=" ">
<path fill="none" stroke="#63b8ff" d="M194.47,-830.99C213.22,-823.13 241.03,-812.07 266,-804.5 275.18,-801.72 285.04,-799.14 294.67,-796.84"/>
<polygon fill="#63b8ff" stroke="#63b8ff" points="295.62,-800.21 304.57,-794.54 294.04,-793.39 295.62,-800.21"/>
</a>
</g>
</g>
<!-- Node373 -->
<g id="Node000373" class="node">
<title>Node373</title>
<g id="a_Node000373"><a xlink:href="code__80057C60_8c.html#a07b43c07e7afcf3fcccf63622bb991e1" target="_top" xlink:title=" ">
<polygon fill="white" stroke="#666666" points="397.5,-758 305.5,-758 305.5,-739 397.5,-739 397.5,-758"/>
<text text-anchor="middle" x="351.5" y="-746" font-family="Helvetica,sans-Serif" font-size="10.00">func_8005D290</text>
</a>
</g>
</g>
<!-- Node66&#45;&gt;Node373 -->
<g id="edge18_Node000066_Node000373" class="edge">
<title>Node66&#45;&gt;Node373</title>
<g id="a_edge18_Node000066_Node000373"><a xlink:title=" ">
<path fill="none" stroke="#63b8ff" d="M181.88,-830.79C197.71,-815 231.38,-783.89 266,-767.5 275.17,-763.16 285.38,-759.79 295.45,-757.17"/>
<polygon fill="#63b8ff" stroke="#63b8ff" points="296.5,-760.52 305.42,-754.8 294.88,-753.71 296.5,-760.52"/>
</a>
</g>
</g>
<!-- Node74&#45;&gt;Node137 -->
<g id="edge15_Node000074_Node000137" class="edge">
<title>Node74&#45;&gt;Node137</title>
<g id="a_edge15_Node000074_Node000137"><a xlink:title=" ">
<path fill="none" stroke="#63b8ff" d="M397.74,-864.54C419.05,-866.92 444.66,-869.77 467.16,-872.28"/>
<polygon fill="#63b8ff" stroke="#63b8ff" points="466.92,-875.77 477.25,-873.4 467.7,-868.82 466.92,-875.77"/>
</a>
</g>
</g>
<!-- Node374&#45;&gt;Node5 -->
<g id="edge26_Node000374_Node000005" class="edge">
<title>Node374&#45;&gt;Node5</title>
<g id="a_edge26_Node000374_Node000005"><a xlink:title=" ">
<path fill="none" stroke="#63b8ff" d="M216.5,-1339.08C221.48,-1341.54 226.14,-1344.62 230,-1348.5 266.57,-1385.27 224.05,-1429 266,-1459.5 327.47,-1504.19 367.85,-1491.03 437,-1459.5 473.07,-1443.05 499.86,-1403.18 513.31,-1379.36"/>
<polygon fill="#63b8ff" stroke="#63b8ff" points="516.56,-1380.7 518.24,-1370.24 510.4,-1377.37 516.56,-1380.7"/>
</a>
</g>
</g>
<!-- Node375 -->
<g id="Node000375" class="node">
<title>Node375</title>
<g id="a_Node000375"><a xlink:href="menu__items_8h.html#ae560025be8c56d009f06b309463a5183" target="_top" xlink:title=" ">
<polygon fill="white" stroke="#666666" points="399,-1450 304,-1450 304,-1431 399,-1431 399,-1450"/>
<text text-anchor="middle" x="351.5" y="-1438" font-family="Helvetica,sans-Serif" font-size="10.00">add_menu_item</text>
</a>
</g>
</g>
<!-- Node374&#45;&gt;Node375 -->
<g id="edge21_Node000374_Node000375" class="edge">
<title>Node374&#45;&gt;Node375</title>
<g id="a_edge21_Node000374_Node000375"><a xlink:title=" ">
<path fill="none" stroke="#63b8ff" d="M214.83,-1339.07C220.32,-1341.53 225.57,-1344.62 230,-1348.5 257.53,-1372.58 237.2,-1399.96 266,-1422.5 274.06,-1428.81 283.83,-1433.03 293.82,-1435.84"/>
<polygon fill="#63b8ff" stroke="#63b8ff" points="293.3,-1439.31 303.84,-1438.19 294.9,-1432.49 293.3,-1439.31"/>
</a>
</g>
</g>
<!-- Node376 -->
<g id="Node000376" class="node">
<title>Node376</title>
<g id="a_Node000376"><a xlink:href="menu__items_8c.html#abfa6c366f02a470bbfcddb66359eec13" target="_top" xlink:title=" ">
<polygon fill="white" stroke="#666666" points="411,-1413 292,-1413 292,-1394 411,-1394 411,-1413"/>
<text text-anchor="middle" x="351.5" y="-1401" font-family="Helvetica,sans-Serif" font-size="10.00">clear_menu_textures</text>
</a>
</g>
</g>
<!-- Node374&#45;&gt;Node376 -->
<g id="edge22_Node000374_Node000376" class="edge">
<title>Node374&#45;&gt;Node376</title>
<g id="a_edge22_Node000374_Node000376"><a xlink:title=" ">
<path fill="none" stroke="#63b8ff" d="M210.18,-1339.05C217.04,-1341.59 223.94,-1344.71 230,-1348.5 249.45,-1360.67 245.91,-1374.41 266,-1385.5 270.92,-1388.22 276.22,-1390.53 281.67,-1392.49"/>
<polygon fill="#63b8ff" stroke="#63b8ff" points="281.01,-1395.95 291.6,-1395.65 283.14,-1389.28 281.01,-1395.95"/>
</a>
</g>
</g>
<!-- Node377 -->
<g id="Node000377" class="node">
<title>Node377</title>
<g id="a_Node000377"><a xlink:href="menu__items_8c.html#af9ede5415daa7e54bf2e7b018b382884" target="_top" xlink:title=" ">
<polygon fill="white" stroke="#666666" points="391,-1376 312,-1376 312,-1357 391,-1357 391,-1376"/>
<text text-anchor="middle" x="351.5" y="-1364" font-family="Helvetica,sans-Serif" font-size="10.00">clear_menus</text>
</a>
</g>
</g>
<!-- Node374&#45;&gt;Node377 -->
<g id="edge23_Node000374_Node000377" class="edge">
<title>Node374&#45;&gt;Node377</title>
<g id="a_edge23_Node000374_Node000377"><a xlink:title=" ">
<path fill="none" stroke="#63b8ff" d="M216.5,-1338.65C242.43,-1344.04 275.27,-1350.86 301.95,-1356.41"/>
<polygon fill="#63b8ff" stroke="#63b8ff" points="301.34,-1359.86 311.84,-1358.46 302.76,-1353 301.34,-1359.86"/>
</a>
</g>
</g>
<!-- Node378 -->
<g id="Node000378" class="node">
<title>Node378</title>
<g id="a_Node000378"><a xlink:href="menu__items_8c.html#a43d067e97313b62650b013e0384a7c8d" target="_top" xlink:title=" ">
<polygon fill="white" stroke="#666666" points="397,-1339 306,-1339 306,-1320 397,-1320 397,-1339"/>
<text text-anchor="middle" x="351.5" y="-1327" font-family="Helvetica,sans-Serif" font-size="10.00">func_80092258</text>
</a>
</g>
</g>
<!-- Node374&#45;&gt;Node378 -->
<g id="edge24_Node000374_Node000378" class="edge">
<title>Node374&#45;&gt;Node378</title>
<g id="a_edge24_Node000374_Node000378"><a xlink:title=" ">
<path fill="none" stroke="#63b8ff" d="M216.5,-1329.5C240.39,-1329.5 270.15,-1329.5 295.55,-1329.5"/>
<polygon fill="#63b8ff" stroke="#63b8ff" points="295.77,-1333 305.77,-1329.5 295.77,-1326 295.77,-1333"/>
</a>
</g>
</g>
<!-- Node379 -->
<g id="Node000379" class="node">
<title>Node379</title>
<g id="a_Node000379"><a xlink:href="menu__items_8c.html#ae938fb8c5b56456f2f0caf7dd552a51e" target="_top" xlink:title=" ">
<polygon fill="white" stroke="#666666" points="397.5,-1302 305.5,-1302 305.5,-1283 397.5,-1283 397.5,-1302"/>
<text text-anchor="middle" x="351.5" y="-1290" font-family="Helvetica,sans-Serif" font-size="10.00">func_8009A344</text>
</a>
</g>
</g>
<!-- Node374&#45;&gt;Node379 -->
<g id="edge25_Node000374_Node000379" class="edge">
<title>Node374&#45;&gt;Node379</title>
<g id="a_edge25_Node000374_Node000379"><a xlink:title=" ">
<path fill="none" stroke="#63b8ff" d="M216.5,-1320.35C240.4,-1315.39 270.18,-1309.2 295.59,-1303.91"/>
<polygon fill="#63b8ff" stroke="#63b8ff" points="296.38,-1307.32 305.46,-1301.86 294.96,-1300.47 296.38,-1307.32"/>
</a>
</g>
</g>
<!-- Node113 -->
<g id="Node000113" class="node">
<title>Node113</title>
<g id="a_Node000113"><a xlink:href="memory_8c.html#a7e6e89972c484db957ddbd70ba07ed92" target="_top" xlink:title="Returns the address of the next available memory location and updates the memory pointer to reference...">
<polygon fill="white" stroke="#666666" points="406.5,-1264.5 296.5,-1264.5 296.5,-1234.5 406.5,-1234.5 406.5,-1264.5"/>
<text text-anchor="start" x="304.5" y="-1252.5" font-family="Helvetica,sans-Serif" font-size="10.00">get_next_available</text>
<text text-anchor="middle" x="351.5" y="-1241.5" font-family="Helvetica,sans-Serif" font-size="10.00">_memory_addr</text>
</a>
</g>
</g>
<!-- Node374&#45;&gt;Node113 -->
<g id="edge27_Node000374_Node000113" class="edge">
<title>Node374&#45;&gt;Node113</title>
<g id="a_edge27_Node000374_Node000113"><a xlink:title=" ">
<path fill="none" stroke="#63b8ff" d="M186.19,-1320C203.92,-1308.03 236.12,-1287.48 266,-1274.5 272.56,-1271.65 279.54,-1269.01 286.57,-1266.59"/>
<polygon fill="#63b8ff" stroke="#63b8ff" points="287.75,-1269.89 296.16,-1263.44 285.56,-1263.24 287.75,-1269.89"/>
</a>
</g>
</g>
<!-- Node382 -->
<g id="Node000382" class="node">
<title>Node382</title>
<g id="a_Node000382"><a xlink:href="memory_8c.html#a08672f1381d39b459aa779748bf40143" target="_top" xlink:title="Allocates memory and adjusts gFreeMemorySize.">
<polygon fill="white" stroke="#666666" points="575,-590 473,-590 473,-571 575,-571 575,-590"/>
<text text-anchor="middle" x="524" y="-578" font-family="Helvetica,sans-Serif" font-size="10.00">allocate_memory</text>
</a>
</g>
</g>
<!-- Node381&#45;&gt;Node382 -->
<g id="edge30_Node000381_Node000382" class="edge">
<title>Node381&#45;&gt;Node382</title>
<g id="a_edge30_Node000381_Node000382"><a xlink:title=" ">
<path fill="none" stroke="#63b8ff" d="M182.01,-502.7C196.81,-524.75 227.69,-564.69 266,-580.5 332.45,-607.92 417.06,-600.83 470.64,-591.8"/>
<polygon fill="#63b8ff" stroke="#63b8ff" points="471.36,-595.23 480.6,-590.04 470.15,-588.33 471.36,-595.23"/>
</a>
</g>
</g>
<!-- Node383 -->
<g id="Node000383" class="node">
<title>Node383</title>
<g id="a_Node000383"><a xlink:href="Game_8cpp.html#a88c0d93fc49776f7a5c145312f4f81a0" target="_top" xlink:title=" ">
<polygon fill="#fff0f0" stroke="red" points="394.5,-534 308.5,-534 308.5,-515 394.5,-515 394.5,-534"/>
<text text-anchor="middle" x="351.5" y="-522" font-family="Helvetica,sans-Serif" font-size="10.00">CM_BeginPlay</text>
</a>
</g>
</g>
<!-- Node381&#45;&gt;Node383 -->
<g id="edge31_Node000381_Node000383" class="edge">
<title>Node381&#45;&gt;Node383</title>
<g id="a_edge31_Node000381_Node000383"><a xlink:title=" ">
<path fill="none" stroke="#63b8ff" d="M230.29,-499.51C252.29,-504.09 277.2,-509.26 298.61,-513.71"/>
<polygon fill="#63b8ff" stroke="#63b8ff" points="298,-517.16 308.5,-515.77 299.42,-510.31 298,-517.16"/>
</a>
</g>
</g>
<!-- Node391 -->
<g id="Node000391" class="node">
<title>Node391</title>
<g id="a_Node000391"><a xlink:href="Game_8cpp.html#a13d5b10b9acb59b4b90db739aba83d1f" target="_top" xlink:title=" ">
<polygon fill="white" stroke="#666666" points="398,-647 305,-647 305,-628 398,-628 398,-647"/>
<text text-anchor="middle" x="351.5" y="-635" font-family="Helvetica,sans-Serif" font-size="10.00">CM_CleanWorld</text>
</a>
</g>
</g>
<!-- Node381&#45;&gt;Node391 -->
<g id="edge32_Node000381_Node000391" class="edge">
<title>Node381&#45;&gt;Node391</title>
<g id="a_edge32_Node000381_Node000391"><a xlink:title=" ">
<path fill="none" stroke="#63b8ff" d="M179.66,-502.86C192.87,-529.5 223.64,-584.24 266,-613.5 274.65,-619.48 284.78,-623.98 294.95,-627.36"/>
<polygon fill="#63b8ff" stroke="#63b8ff" points="294.09,-630.75 304.67,-630.27 296.1,-624.05 294.09,-630.75"/>
</a>
</g>
</g>
<!-- Node392 -->
<g id="Node000392" class="node">
<title>Node392</title>
<g id="a_Node000392"><a xlink:href="Game_8cpp.html#aed1eabdc18e483fc04bd8f3c1b02968d" target="_top" xlink:title=" ">
<polygon fill="white" stroke="#666666" points="402.5,-497 300.5,-497 300.5,-478 402.5,-478 402.5,-497"/>
<text text-anchor="middle" x="351.5" y="-485" font-family="Helvetica,sans-Serif" font-size="10.00">CM_LoadTextures</text>
</a>
</g>
</g>
<!-- Node381&#45;&gt;Node392 -->
<g id="edge33_Node000381_Node000392" class="edge">
<title>Node381&#45;&gt;Node392</title>
<g id="a_edge33_Node000381_Node000392"><a xlink:title=" ">
<path fill="none" stroke="#63b8ff" d="M230.29,-487.5C249.48,-487.5 270.89,-487.5 290.25,-487.5"/>
<polygon fill="#63b8ff" stroke="#63b8ff" points="290.48,-491 300.48,-487.5 290.48,-484 290.48,-491"/>
</a>
</g>
</g>
<!-- Node393 -->
<g id="Node000393" class="node">
<title>Node393</title>
<g id="a_Node000393"><a xlink:href="Game_8cpp.html#a9f4b6957a832af2100bd62fb6aa9acd2" target="_top" xlink:title=" ">
<polygon fill="white" stroke="#666666" points="425.5,-460 277.5,-460 277.5,-441 425.5,-441 425.5,-460"/>
<text text-anchor="middle" x="351.5" y="-448" font-family="Helvetica,sans-Serif" font-size="10.00">CM_SpawnFromLevelProps</text>
</a>
</g>
</g>
<!-- Node381&#45;&gt;Node393 -->
<g id="edge34_Node000381_Node000393" class="edge">
<title>Node381&#45;&gt;Node393</title>
<g id="a_edge34_Node000381_Node000393"><a xlink:title=" ">
<path fill="none" stroke="#63b8ff" d="M230.29,-475.49C250.97,-471.19 274.22,-466.36 294.72,-462.1"/>
<polygon fill="#63b8ff" stroke="#63b8ff" points="295.46,-465.52 304.54,-460.05 294.04,-458.66 295.46,-465.52"/>
</a>
</g>
</g>
<!-- Node394 -->
<g id="Node000394" class="node">
<title>Node394</title>
<g id="a_Node000394"><a xlink:href="actors_8c.html#a90bb1e98b1fc94450092f4fddff2a61b" target="_top" xlink:title=" ">
<polygon fill="#fff0f0" stroke="red" points="404.5,-423 298.5,-423 298.5,-404 404.5,-404 404.5,-423"/>
<text text-anchor="middle" x="351.5" y="-411" font-family="Helvetica,sans-Serif" font-size="10.00">destroy_all_actors</text>
</a>
</g>
</g>
<!-- Node381&#45;&gt;Node394 -->
<g id="edge35_Node000381_Node000394" class="edge">
<title>Node381&#45;&gt;Node394</title>
<g id="a_edge35_Node000381_Node000394"><a xlink:title=" ">
<path fill="none" stroke="#63b8ff" d="M193.8,-472.36C212.14,-459.98 239.73,-442.88 266,-432.5 273.18,-429.66 280.87,-427.2 288.59,-425.07"/>
<polygon fill="#63b8ff" stroke="#63b8ff" points="289.53,-428.45 298.34,-422.56 287.79,-421.67 289.53,-428.45"/>
</a>
</g>
</g>
<!-- Node396 -->
<g id="Node000396" class="node">
<title>Node396</title>
<g id="a_Node000396"><a xlink:href="memory_8c.html#a56dd580b5f9113b83709d1f11181e6a7" target="_top" xlink:title=" ">
<polygon fill="#fff0f0" stroke="red" points="393.5,-571 309.5,-571 309.5,-552 393.5,-552 393.5,-571"/>
<text text-anchor="middle" x="351.5" y="-559" font-family="Helvetica,sans-Serif" font-size="10.00">dma_textures</text>
</a>
</g>
</g>
<!-- Node381&#45;&gt;Node396 -->
<g id="edge36_Node000381_Node000396" class="edge">
<title>Node381&#45;&gt;Node396</title>
<g id="a_edge36_Node000381_Node000396"><a xlink:title=" ">
<path fill="none" stroke="#63b8ff" d="M193,-502.5C211.29,-515.2 239.24,-532.97 266,-543.5 276.47,-547.62 288.07,-550.87 299.22,-553.41"/>
<polygon fill="#63b8ff" stroke="#63b8ff" points="298.79,-556.89 309.3,-555.54 300.24,-550.05 298.79,-556.89"/>
</a>
</g>
</g>
<!-- Node397 -->
<g id="Node000397" class="node">
<title>Node397</title>
<g id="a_Node000397"><a xlink:href="actors_8c.html#a7dd08845f085e355fe4eb45bff89542a" target="_top" xlink:title=" ">
<polygon fill="white" stroke="#666666" points="412.5,-386 290.5,-386 290.5,-367 412.5,-367 412.5,-386"/>
<text text-anchor="middle" x="351.5" y="-374" font-family="Helvetica,sans-Serif" font-size="10.00">init_red_shell_texture</text>
</a>
</g>
</g>
<!-- Node381&#45;&gt;Node397 -->
<g id="edge38_Node000381_Node000397" class="edge">
<title>Node381&#45;&gt;Node397</title>
<g id="a_edge38_Node000381_Node000397"><a xlink:title=" ">
<path fill="none" stroke="#63b8ff" d="M183.34,-472.49C199.11,-451.8 230.41,-414.91 266,-395.5 270.59,-393 275.48,-390.83 280.52,-388.94"/>
<polygon fill="#63b8ff" stroke="#63b8ff" points="281.97,-392.15 290.34,-385.66 279.75,-385.51 281.97,-392.15"/>
</a>
</g>
</g>
<!-- Node398 -->
<g id="Node000398" class="node">
<title>Node398</title>
<g id="a_Node000398"><a xlink:href="memory_8c.html#ab56e85d799262a4d75c3be6be4ce4590" target="_top" xlink:title=" ">
<polygon fill="white" stroke="#666666" points="430.5,-349 272.5,-349 272.5,-330 430.5,-330 430.5,-349"/>
<text text-anchor="middle" x="351.5" y="-337" font-family="Helvetica,sans-Serif" font-size="10.00">set_segment_base_addr_x64</text>
</a>
</g>
</g>
<!-- Node381&#45;&gt;Node398 -->
<g id="edge39_Node000381_Node000398" class="edge">
<title>Node381&#45;&gt;Node398</title>
<g id="a_edge39_Node000381_Node000398"><a xlink:title=" ">
<path fill="none" stroke="#63b8ff" d="M178.99,-472.39C191.55,-445.06 221.88,-387.56 266,-358.5 269.14,-356.43 272.46,-354.59 275.92,-352.95"/>
<polygon fill="#63b8ff" stroke="#63b8ff" points="277.41,-356.12 285.3,-349.04 274.72,-349.65 277.41,-356.12"/>
</a>
</g>
</g>
<!-- Node399 -->
<g id="Node000399" class="node">
<title>Node399</title>
<g id="a_Node000399"><a xlink:href="actors_8c.html#a047d32425b6ea73e667cb31548bdc8dd" target="_top" xlink:title=" ">
<polygon fill="white" stroke="#666666" points="412,-312 291,-312 291,-293 412,-293 412,-312"/>
<text text-anchor="middle" x="351.5" y="-300" font-family="Helvetica,sans-Serif" font-size="10.00">spawn_course_actors</text>
</a>
</g>
</g>
<!-- Node381&#45;&gt;Node399 -->
<g id="edge40_Node000381_Node000399" class="edge">
<title>Node381&#45;&gt;Node399</title>
<g id="a_edge40_Node000381_Node000399"><a xlink:title=" ">
<path fill="none" stroke="#63b8ff" d="M176.49,-472.32C185.98,-439.3 213.18,-360.78 266,-321.5 270.71,-317.99 275.96,-315.11 281.46,-312.75"/>
<polygon fill="#63b8ff" stroke="#63b8ff" points="282.76,-316.01 290.92,-309.25 280.32,-309.44 282.76,-316.01"/>
</a>
</g>
</g>
<!-- Node396&#45;&gt;Node382 -->
<g id="edge37_Node000396_Node000382" class="edge">
<title>Node396&#45;&gt;Node382</title>
<g id="a_edge37_Node000396_Node000382"><a xlink:title=" ">
<path fill="none" stroke="#63b8ff" d="M393.77,-566.1C414.55,-568.41 440.12,-571.26 463.02,-573.82"/>
<polygon fill="#63b8ff" stroke="#63b8ff" points="462.66,-577.3 472.99,-574.93 463.44,-570.34 462.66,-577.3"/>
</a>
</g>
</g>
<!-- Node401 -->
<g id="Node000401" class="node">
<title>Node401</title>
<g id="a_Node000401"><a xlink:href="code__8006E9C0_8h.html#a0a15839e2884f0317e950c05b03e4f0b" target="_top" xlink:title=" ">
<polygon fill="white" stroke="#666666" points="396.5,-275 306.5,-275 306.5,-256 396.5,-256 396.5,-275"/>
<text text-anchor="middle" x="351.5" y="-263" font-family="Helvetica,sans-Serif" font-size="10.00">func_8006FA94</text>
</a>
</g>
</g>
<!-- Node400&#45;&gt;Node401 -->
<g id="edge42_Node000400_Node000401" class="edge">
<title>Node400&#45;&gt;Node401</title>
<g id="a_edge42_Node000400_Node000401"><a xlink:title=" ">
<path fill="none" stroke="#63b8ff" d="M185.4,-201.13C202.81,-213.66 235.19,-235.38 266,-247.5 275.53,-251.25 285.98,-254.28 296.19,-256.7"/>
<polygon fill="#63b8ff" stroke="#63b8ff" points="295.75,-260.19 306.27,-258.93 297.26,-253.36 295.75,-260.19"/>
</a>
</g>
</g>
<!-- Node402 -->
<g id="Node000402" class="node">
<title>Node402</title>
<g id="a_Node000402"><a xlink:href="code__8006E9C0_8c.html#a7ce8b772e14372f2078703a39e676d2a" target="_top" xlink:title=" ">
<polygon fill="#fff0f0" stroke="red" points="397,-238 306,-238 306,-219 397,-219 397,-238"/>
<text text-anchor="middle" x="351.5" y="-226" font-family="Helvetica,sans-Serif" font-size="10.00">func_80070148</text>
</a>
</g>
</g>
<!-- Node400&#45;&gt;Node402 -->
<g id="edge43_Node000400_Node000402" class="edge">
<title>Node400&#45;&gt;Node402</title>
<g id="a_edge43_Node000400_Node000402"><a xlink:title=" ">
<path fill="none" stroke="#63b8ff" d="M199.53,-197.12C224.98,-202.41 263.85,-210.49 295.78,-217.13"/>
<polygon fill="#63b8ff" stroke="#63b8ff" points="295.37,-220.62 305.87,-219.22 296.8,-213.76 295.37,-220.62"/>
</a>
</g>
</g>
<!-- Node404 -->
<g id="Node000404" class="node">
<title>Node404</title>
<g id="a_Node000404"><a xlink:href="code__8006E9C0_8c.html#a9b35328c0ffddc0723de4730c5e41431" target="_top" xlink:title=" ">
<polygon fill="#fff0f0" stroke="red" points="409,-201 294,-201 294,-182 409,-182 409,-201"/>
<text text-anchor="middle" x="351.5" y="-189" font-family="Helvetica,sans-Serif" font-size="10.00">init_hud_one_player</text>
</a>
</g>
</g>
<!-- Node400&#45;&gt;Node404 -->
<g id="edge44_Node000400_Node000404" class="edge">
<title>Node400&#45;&gt;Node404</title>
<g id="a_edge44_Node000400_Node000404"><a xlink:title=" ">
<path fill="none" stroke="#63b8ff" d="M199.53,-191.5C221.81,-191.5 254.36,-191.5 283.53,-191.5"/>
<polygon fill="#63b8ff" stroke="#63b8ff" points="283.69,-195 293.69,-191.5 283.69,-188 283.69,-195"/>
</a>
</g>
</g>
<!-- Node415 -->
<g id="Node000415" class="node">
<title>Node415</title>
<g id="a_Node000415"><a xlink:href="code__8006E9C0_8c.html#a36e7c29e21274b76d24f7c8864af5c3b" target="_top" xlink:title=" ">
<polygon fill="#fff0f0" stroke="red" points="407,-163.5 296,-163.5 296,-133.5 407,-133.5 407,-163.5"/>
<text text-anchor="start" x="304" y="-151.5" font-family="Helvetica,sans-Serif" font-size="10.00">init_hud_three_four</text>
<text text-anchor="middle" x="351.5" y="-140.5" font-family="Helvetica,sans-Serif" font-size="10.00">_player</text>
</a>
</g>
</g>
<!-- Node400&#45;&gt;Node415 -->
<g id="edge45_Node000400_Node000415" class="edge">
<title>Node400&#45;&gt;Node415</title>
<g id="a_edge45_Node000400_Node000415"><a xlink:title=" ">
<path fill="none" stroke="#63b8ff" d="M199.53,-184.97C222.43,-179.44 256.18,-171.29 285.97,-164.09"/>
<polygon fill="#63b8ff" stroke="#63b8ff" points="287,-167.44 295.9,-161.69 285.35,-160.64 287,-167.44"/>
</a>
</g>
</g>
<!-- Node416 -->
<g id="Node000416" class="node">
<title>Node416</title>
<g id="a_Node000416"><a xlink:href="code__8006E9C0_8c.html#ae0bbfee0194d6a21ab9c2133af28ae16" target="_top" xlink:title=" ">
<polygon fill="#fff0f0" stroke="red" points="409,-115.5 294,-115.5 294,-85.5 409,-85.5 409,-115.5"/>
<text text-anchor="start" x="302" y="-103.5" font-family="Helvetica,sans-Serif" font-size="10.00">init_hud_two_player</text>
<text text-anchor="middle" x="351.5" y="-92.5" font-family="Helvetica,sans-Serif" font-size="10.00">_horizontal</text>
</a>
</g>
</g>
<!-- Node400&#45;&gt;Node416 -->
<g id="edge46_Node000400_Node000416" class="edge">
<title>Node400&#45;&gt;Node416</title>
<g id="a_edge46_Node000400_Node000416"><a xlink:title=" ">
<path fill="none" stroke="#63b8ff" d="M199.59,-186.76C209.78,-184.06 221.06,-179.88 230,-173.5 251.99,-157.79 243.8,-139.91 266,-124.5 271.55,-120.64 277.72,-117.4 284.12,-114.68"/>
<polygon fill="#63b8ff" stroke="#63b8ff" points="285.52,-117.89 293.62,-111.05 283.03,-111.35 285.52,-117.89"/>
</a>
</g>
</g>
<!-- Node417 -->
<g id="Node000417" class="node">
<title>Node417</title>
<g id="a_Node000417"><a xlink:href="code__8006E9C0_8c.html#aa98fba14045af26e5c13a6a72442b8be" target="_top" xlink:title=" ">
<polygon fill="#fff0f0" stroke="red" points="409,-67.5 294,-67.5 294,-37.5 409,-37.5 409,-67.5"/>
<text text-anchor="start" x="302" y="-55.5" font-family="Helvetica,sans-Serif" font-size="10.00">init_hud_two_player</text>
<text text-anchor="middle" x="351.5" y="-44.5" font-family="Helvetica,sans-Serif" font-size="10.00">_vertical</text>
</a>
</g>
</g>
<!-- Node400&#45;&gt;Node417 -->
<g id="edge47_Node000400_Node000417" class="edge">
<title>Node400&#45;&gt;Node417</title>
<g id="a_edge47_Node000400_Node000417"><a xlink:title=" ">
<path fill="none" stroke="#63b8ff" d="M199.72,-188.21C210.29,-185.7 221.81,-181.28 230,-173.5 263.35,-141.84 232.23,-107.71 266,-76.5 271.39,-71.52 277.74,-67.56 284.5,-64.42"/>
<polygon fill="#63b8ff" stroke="#63b8ff" points="285.95,-67.61 293.91,-60.62 283.33,-61.12 285.95,-67.61"/>
</a>
</g>
</g>
<!-- Node418 -->
<g id="Node000418" class="node">
<title>Node418</title>
<g id="a_Node000418"><a xlink:href="code__8006E9C0_8c.html#a90b6f11f43c81c8c033805cfddb8fc89" target="_top" xlink:title=" ">
<polygon fill="#fff0f0" stroke="red" points="412.5,-19 290.5,-19 290.5,0 412.5,0 412.5,-19"/>
<text text-anchor="middle" x="351.5" y="-7" font-family="Helvetica,sans-Serif" font-size="10.00">reset_object_variable</text>
</a>
</g>
</g>
<!-- Node400&#45;&gt;Node418 -->
<g id="edge48_Node000400_Node000418" class="edge">
<title>Node400&#45;&gt;Node418</title>
<g id="a_edge48_Node000400_Node000418"><a xlink:title=" ">
<path fill="none" stroke="#63b8ff" d="M199.58,-188.79C210.39,-186.38 222.11,-181.88 230,-173.5 275.52,-125.16 218.53,-74.93 266,-28.5 270.34,-24.26 275.41,-20.88 280.87,-18.2"/>
<polygon fill="#63b8ff" stroke="#63b8ff" points="282.44,-21.34 290.38,-14.32 279.8,-14.86 282.44,-21.34"/>
</a>
</g>
</g>
<!-- Node421&#45;&gt;Node391 -->
<g id="edge50_Node000421_Node000391" class="edge">
<title>Node421&#45;&gt;Node391</title>
<g id="a_edge50_Node000421_Node000391"><a xlink:title=" ">
<path fill="none" stroke="#63b8ff" d="M194.47,-682.99C213.22,-675.13 241.03,-664.07 266,-656.5 275.18,-653.72 285.04,-651.14 294.67,-648.84"/>
<polygon fill="#63b8ff" stroke="#63b8ff" points="295.62,-652.21 304.57,-646.54 294.04,-645.39 295.62,-652.21"/>
</a>
</g>
</g>
<!-- Node422 -->
<g id="Node000422" class="node">
<title>Node422</title>
<g id="a_Node000422"><a xlink:href="Game_8cpp.html#a081d9916dea76b8a5c6d648db6811f06" target="_top" xlink:title=" ">
<polygon fill="white" stroke="#666666" points="437,-721 266,-721 266,-702 437,-702 437,-721"/>
<text text-anchor="middle" x="351.5" y="-709" font-family="Helvetica,sans-Serif" font-size="10.00">CM_Editor_SetLevelDimensions</text>
</a>
</g>
</g>
<!-- Node421&#45;&gt;Node422 -->
<g id="edge51_Node000421_Node000422" class="edge">
<title>Node421&#45;&gt;Node422</title>
<g id="a_edge51_Node000421_Node000422"><a xlink:title=" ">
<path fill="none" stroke="#63b8ff" d="M209.38,-696.44C223.04,-697.9 239.23,-699.62 255.69,-701.38"/>
<polygon fill="#63b8ff" stroke="#63b8ff" points="255.64,-704.89 265.95,-702.48 256.38,-697.93 255.64,-704.89"/>
</a>
</g>
</g>
<!-- Node423 -->
<g id="Node000423" class="node">
<title>Node423</title>
<g id="a_Node000423"><a xlink:href="Game_8cpp.html#aaec9e1a017e19c9d9645d315bceb4b40" target="_top" xlink:title=" ">
<polygon fill="white" stroke="#666666" points="388.5,-684 314.5,-684 314.5,-665 388.5,-665 388.5,-684"/>
<text text-anchor="middle" x="351.5" y="-672" font-family="Helvetica,sans-Serif" font-size="10.00">LoadCourse</text>
</a>
</g>
</g>
<!-- Node421&#45;&gt;Node423 -->
<g id="edge52_Node000421_Node000423" class="edge">
<title>Node421&#45;&gt;Node423</title>
<g id="a_edge52_Node000421_Node000423"><a xlink:title=" ">
<path fill="none" stroke="#63b8ff" d="M209.38,-688.77C236.89,-685.99 274.66,-682.17 304.2,-679.18"/>
<polygon fill="#63b8ff" stroke="#63b8ff" points="304.68,-682.65 314.27,-678.16 303.97,-675.69 304.68,-682.65"/>
</a>
</g>
</g>
</g>
</svg>
