<?xml version="1.0" encoding="UTF-8" standalone="no"?>
<!DOCTYPE svg PUBLIC "-//W3C//DTD SVG 1.1//EN"
 "http://www.w3.org/Graphics/SVG/1.1/DTD/svg11.dtd">
<!-- Generated by graphviz version 2.43.0 (0)
 -->
<!-- Title: setup_editor Pages: 1 -->
<!--zoomable 1458 -->

<svg id="main" version="1.1" xmlns="http://www.w3.org/2000/svg" xmlns:xlink="http://www.w3.org/1999/xlink" xml:space="preserve" onload="init(evt)">

<style type="text/css"><![CDATA[
.node, .edge {opacity: 0.7;}
.node.selected, .edge.selected {opacity: 1;}
.edge:hover path { stroke: red; }
.edge:hover polygon { stroke: red; fill: red; }
]]></style>

<defs>
  <circle id="rim" cx="0" cy="0" r="7"/>
  <circle id="rim2" cx="0" cy="0" r="3.5"/>
  <g id="zoomPlus">
    <use xlink:href="#rim" fill="#404040"><set attributeName="fill" to="#808080" begin="zoomplus.mouseover" end="zoomplus.mouseout"/></use>
    <path d="M-4,0h8M0,-4v8" fill="none" stroke="white" stroke-width="1.5" pointer-events="none"/>
  </g>
  <g id="zoomMin">
    <use xlink:href="#rim" fill="#404040"><set attributeName="fill" to="#808080" begin="zoomminus.mouseover" end="zoomminus.mouseout"/></use>
    <path d="M-4,0h8" fill="none" stroke="white" stroke-width="1.5" pointer-events="none"/>
  </g>
  <g id="arrowUp" transform="translate(30 24)">
    <use xlink:href="#rim"/>
    <path pointer-events="none" fill="none" stroke="white" stroke-width="1.5" d="M0,-3.0v7 M-2.5,-0.5L0,-3.0L2.5,-0.5"/>
  </g>
  <g id="arrowRight" transform="rotate(90) translate(36 -43)">
    <use xlink:href="#rim"/>
    <path pointer-events="none" fill="none" stroke="white" stroke-width="1.5" d="M0,-3.0v7 M-2.5,-0.5L0,-3.0L2.5,-0.5"/>
  </g>
  <g id="arrowDown" transform="rotate(180) translate(-30 -48)">
    <use xlink:href="#rim"/>
    <path pointer-events="none" fill="none" stroke="white" stroke-width="1.5" d="M0,-3.0v7 M-2.5,-0.5L0,-3.0L2.5,-0.5"/>
  </g>
  <g id="arrowLeft" transform="rotate(270) translate(-36 17)">
    <use xlink:href="#rim"/>
    <path pointer-events="none" fill="none" stroke="white" stroke-width="1.5" d="M0,-3.0v7 M-2.5,-0.5L0,-3.0L2.5,-0.5"/>
  </g>
  <g id="resetDef">
    <use xlink:href="#rim2" fill="#404040"><set attributeName="fill" to="#808080" begin="reset.mouseover" end="reset.mouseout"/></use>
  </g>
</defs>
<script type="application/ecmascript">
var viewWidth = 583;
var viewHeight = 1458;
var sectionId = 'dynsection-8';
</script>
<script type="application/ecmascript" xlink:href="svg.min.js"/>
<svg id="graph" class="graph">
<g id="viewport">
<title>setup_editor</title>
<!-- Node1 -->
<g id="Node000001" class="node">
<title>Node1</title>
<g id="a_Node000001"><a xlink:title=" ">
<polygon fill="#999999" stroke="#666666" points="77,-739 0,-739 0,-720 77,-720 77,-739"/>
<text text-anchor="middle" x="38.5" y="-727" font-family="Helvetica,sans-Serif" font-size="10.00">setup_editor</text>
</a>
</g>
</g>
<!-- Node2 -->
<g id="Node000002" class="node">
<title>Node2</title>
<g id="a_Node000002"><a xlink:href="render__courses_8c.html#aac6d8578ed19549d2ac55e9998f99303" target="_top" xlink:title=" ">
<polygon fill="white" stroke="#666666" points="206.5,-1339 136.5,-1339 136.5,-1320 206.5,-1320 206.5,-1339"/>
<text text-anchor="middle" x="171.5" y="-1327" font-family="Helvetica,sans-Serif" font-size="10.00">course_init</text>
</a>
</g>
</g>
<!-- Node1&#45;&gt;Node2 -->
<g id="edge1_Node000001_Node000002" class="edge">
<title>Node1&#45;&gt;Node2</title>
<g id="a_edge1_Node000001_Node000002"><a xlink:title=" ">
<path fill="none" stroke="#63b8ff" d="M39.35,-739.19C38.46,-807.77 36.39,-1219.9 113,-1311.5 116.69,-1315.91 121.45,-1319.26 126.65,-1321.8"/>
<polygon fill="#63b8ff" stroke="#63b8ff" points="125.75,-1325.2 136.34,-1325.54 128.27,-1318.67 125.75,-1325.2"/>
</a>
</g>
</g>
<!-- Node3 -->
<g id="Node000003" class="node">
<title>Node3</title>
<g id="a_Node000003"><a xlink:href="replays_8c.html#ad3fe55bff348a8b6cfc02f327bda8544" target="_top" xlink:title=" ">
<polygon fill="white" stroke="#666666" points="217,-1068 126,-1068 126,-1049 217,-1049 217,-1068"/>
<text text-anchor="middle" x="171.5" y="-1056" font-family="Helvetica,sans-Serif" font-size="10.00">func_80005310</text>
</a>
</g>
</g>
<!-- Node1&#45;&gt;Node3 -->
<g id="edge2_Node000001_Node000003" class="edge">
<title>Node1&#45;&gt;Node3</title>
<g id="a_edge2_Node000001_Node000003"><a xlink:title=" ">
<path fill="none" stroke="#63b8ff" d="M43.42,-739.35C61.65,-785.13 138.28,-977.59 162.87,-1039.34"/>
<polygon fill="#63b8ff" stroke="#63b8ff" points="159.64,-1040.7 166.59,-1048.69 166.15,-1038.11 159.64,-1040.7"/>
</a>
</g>
</g>
<!-- Node66 -->
<g id="Node000066" class="node">
<title>Node66</title>
<g id="a_Node000066"><a xlink:href="spawn__players_8c.html#ac1a9412b931cfa517a2382c2fc605399" target="_top" xlink:title=" ">
<polygon fill="white" stroke="#666666" points="217.5,-813 125.5,-813 125.5,-794 217.5,-794 217.5,-813"/>
<text text-anchor="middle" x="171.5" y="-801" font-family="Helvetica,sans-Serif" font-size="10.00">func_8003D080</text>
</a>
</g>
</g>
<!-- Node1&#45;&gt;Node66 -->
<g id="edge12_Node000001_Node000066" class="edge">
<title>Node1&#45;&gt;Node66</title>
<g id="a_edge12_Node000001_Node000066"><a xlink:title=" ">
<path fill="none" stroke="#63b8ff" d="M56.36,-739.02C78.64,-751.61 118.12,-773.91 144.3,-788.7"/>
<polygon fill="#63b8ff" stroke="#63b8ff" points="142.86,-791.91 153.29,-793.78 146.31,-785.81 142.86,-791.91"/>
</a>
</g>
</g>
<!-- Node374 -->
<g id="Node000374" class="node">
<title>Node374</title>
<g id="a_Node000374"><a xlink:href="menu__items_8c.html#a11daab0c2cb2700179b2325d2c619769" target="_top" xlink:title=" ">
<polygon fill="white" stroke="#666666" points="216.5,-1302 126.5,-1302 126.5,-1283 216.5,-1283 216.5,-1302"/>
<text text-anchor="middle" x="171.5" y="-1290" font-family="Helvetica,sans-Serif" font-size="10.00">func_80091FA4</text>
</a>
</g>
</g>
<!-- Node1&#45;&gt;Node374 -->
<g id="edge21_Node000001_Node000374" class="edge">
<title>Node1&#45;&gt;Node374</title>
<g id="a_edge21_Node000001_Node000374"><a xlink:title=" ">
<path fill="none" stroke="#63b8ff" d="M41.36,-739.23C49.26,-780.38 81.12,-944.18 113,-1077.5 130.34,-1150.01 154.21,-1235.36 164.91,-1273"/>
<polygon fill="#63b8ff" stroke="#63b8ff" points="161.57,-1274.03 167.68,-1282.69 168.3,-1272.11 161.57,-1274.03"/>
</a>
</g>
</g>
<!-- Node380 -->
<g id="Node000380" class="node">
<title>Node380</title>
<g id="a_Node000380"><a xlink:href="skybox__and__splitscreen_8c.html#a1520a44a27c37f0b2554764974afb428" target="_top" xlink:title=" ">
<polygon fill="white" stroke="#666666" points="218,-739 125,-739 125,-720 218,-720 218,-739"/>
<text text-anchor="middle" x="171.5" y="-727" font-family="Helvetica,sans-Serif" font-size="10.00">func_802A4D18</text>
</a>
</g>
</g>
<!-- Node1&#45;&gt;Node380 -->
<g id="edge29_Node000001_Node000380" class="edge">
<title>Node1&#45;&gt;Node380</title>
<g id="a_edge29_Node000001_Node000380"><a xlink:title=" ">
<path fill="none" stroke="#63b8ff" d="M77.04,-729.5C88.73,-729.5 101.89,-729.5 114.56,-729.5"/>
<polygon fill="#63b8ff" stroke="#63b8ff" points="114.58,-733 124.58,-729.5 114.58,-726 114.58,-733"/>
</a>
</g>
</g>
<!-- Node381 -->
<g id="Node000381" class="node">
<title>Node381</title>
<g id="a_Node000381"><a xlink:href="actors_8c.html#a142a32371ea62d0303702286b839bdfd" target="_top" xlink:title="Loads actor textures, course specific actor textures. Calls to spawn_course_vehicles and place_course...">
<polygon fill="white" stroke="#666666" points="230,-483.5 113,-483.5 113,-453.5 230,-453.5 230,-483.5"/>
<text text-anchor="start" x="121" y="-471.5" font-family="Helvetica,sans-Serif" font-size="10.00">init_actors_and_load</text>
<text text-anchor="middle" x="171.5" y="-460.5" font-family="Helvetica,sans-Serif" font-size="10.00">_textures</text>
</a>
</g>
</g>
<!-- Node1&#45;&gt;Node381 -->
<g id="edge30_Node000001_Node000381" class="edge">
<title>Node1&#45;&gt;Node381</title>
<g id="a_edge30_Node000001_Node000381"><a xlink:title=" ">
<path fill="none" stroke="#63b8ff" d="M44.32,-719.9C62.91,-682.86 130.35,-548.49 158.27,-492.87"/>
<polygon fill="#63b8ff" stroke="#63b8ff" points="161.49,-494.25 162.85,-483.74 155.24,-491.11 161.49,-494.25"/>
</a>
</g>
</g>
<!-- Node396 -->
<g id="Node000396" class="node">
<title>Node396</title>
<g id="a_Node000396"><a xlink:href="code__8006E9C0_8c.html#a47667a5a47fd4ca740865e963ce795c9" target="_top" xlink:title=" ">
<polygon fill="white" stroke="#666666" points="199.5,-201 143.5,-201 143.5,-182 199.5,-182 199.5,-201"/>
<text text-anchor="middle" x="171.5" y="-189" font-family="Helvetica,sans-Serif" font-size="10.00">init_hud</text>
</a>
</g>
</g>
<!-- Node1&#45;&gt;Node396 -->
<g id="edge41_Node000001_Node000396" class="edge">
<title>Node1&#45;&gt;Node396</title>
<g id="a_edge41_Node000001_Node000396"><a xlink:title=" ">
<path fill="none" stroke="#63b8ff" d="M41.89,-719.7C57.43,-655.85 144.37,-298.79 165.75,-211"/>
<polygon fill="#63b8ff" stroke="#63b8ff" points="169.21,-211.6 168.17,-201.06 162.41,-209.94 169.21,-211.6"/>
</a>
</g>
</g>
<!-- Node417 -->
<g id="Node000417" class="node">
<title>Node417</title>
<g id="a_Node000417"><a xlink:href="memory_8c.html#a332cad400462e507d8d6d2d68035b0b2" target="_top" xlink:title="Loads &amp; DMAs course data. Vtx, textures, displaylists, etc.">
<polygon fill="white" stroke="#666666" points="209,-665 134,-665 134,-646 209,-646 209,-665"/>
<text text-anchor="middle" x="171.5" y="-653" font-family="Helvetica,sans-Serif" font-size="10.00">load_course</text>
</a>
</g>
</g>
<!-- Node1&#45;&gt;Node417 -->
<g id="edge49_Node000001_Node000417" class="edge">
<title>Node1&#45;&gt;Node417</title>
<g id="a_edge49_Node000001_Node000417"><a xlink:title=" ">
<path fill="none" stroke="#63b8ff" d="M56.36,-719.98C78.64,-707.39 118.12,-685.09 144.3,-670.3"/>
<polygon fill="#63b8ff" stroke="#63b8ff" points="146.31,-673.19 153.29,-665.22 142.86,-667.09 146.31,-673.19"/>
</a>
</g>
</g>
<!-- Node420 -->
<g id="Node000420" class="node">
<title>Node420</title>
<g id="a_Node000420"><a xlink:href="skybox__and__splitscreen_8c.html#af0018a2ee17ccf0a0c9155d767f0ca48" target="_top" xlink:title=" ">
<polygon fill="white" stroke="#666666" points="223,-164 120,-164 120,-145 223,-145 223,-164"/>
<text text-anchor="middle" x="171.5" y="-152" font-family="Helvetica,sans-Serif" font-size="10.00">set_editor_screen</text>
</a>
</g>
</g>
<!-- Node1&#45;&gt;Node420 -->
<g id="edge53_Node000001_Node000420" class="edge">
<title>Node1&#45;&gt;Node420</title>
<g id="a_edge53_Node000001_Node000420"><a xlink:title=" ">
<path fill="none" stroke="#63b8ff" d="M39.43,-719.83C39.1,-653.13 40.35,-261.25 113,-173.5 114.01,-172.29 115.09,-171.15 116.24,-170.08"/>
<polygon fill="#63b8ff" stroke="#63b8ff" points="118.58,-172.71 124.68,-164.05 114.51,-167.02 118.58,-172.71"/>
</a>
</g>
</g>
<!-- Node4 -->
<g id="Node000004" class="node">
<title>Node4</title>
<g id="a_Node000004"><a xlink:href="menu__items_8c.html#aeaaf45d9941e43e3b6558dcbfa6d43b5" target="_top" xlink:title=" ">
<polygon fill="#fff0f0" stroke="red" points="397,-1179 306,-1179 306,-1160 397,-1160 397,-1179"/>
<text text-anchor="middle" x="351.5" y="-1167" font-family="Helvetica,sans-Serif" font-size="10.00">func_80091EE4</text>
</a>
</g>
</g>
<!-- Node3&#45;&gt;Node4 -->
<g id="edge3_Node000003_Node000004" class="edge">
<title>Node3&#45;&gt;Node4</title>
<g id="a_edge3_Node000003_Node000004"><a xlink:title=" ">
<path fill="none" stroke="#63b8ff" d="M179.21,-1068.2C193.04,-1087.41 226.74,-1130.24 266,-1151.5 275.2,-1156.48 285.65,-1160.08 296,-1162.69"/>
<polygon fill="#63b8ff" stroke="#63b8ff" points="295.31,-1166.12 305.84,-1164.89 296.84,-1159.29 295.31,-1166.12"/>
</a>
</g>
</g>
<!-- Node60 -->
<g id="Node000060" class="node">
<title>Node60</title>
<g id="a_Node000060"><a xlink:href="Game_8cpp.html#afc50c2379544210dc453d8e28cff2abd" target="_top" xlink:title=" ">
<polygon fill="white" stroke="#666666" points="385.5,-1142 317.5,-1142 317.5,-1123 385.5,-1123 385.5,-1142"/>
<text text-anchor="middle" x="351.5" y="-1130" font-family="Helvetica,sans-Serif" font-size="10.00">GetCourse</text>
</a>
</g>
</g>
<!-- Node3&#45;&gt;Node60 -->
<g id="edge7_Node000003_Node000060" class="edge">
<title>Node3&#45;&gt;Node60</title>
<g id="a_edge7_Node000003_Node000060"><a xlink:title=" ">
<path fill="none" stroke="#63b8ff" d="M185.4,-1068.13C202.81,-1080.66 235.19,-1102.38 266,-1114.5 279.01,-1119.62 293.76,-1123.4 307.24,-1126.13"/>
<polygon fill="#63b8ff" stroke="#63b8ff" points="306.79,-1129.61 317.26,-1128.02 308.08,-1122.73 306.79,-1129.61"/>
</a>
</g>
</g>
<!-- Node61 -->
<g id="Node000061" class="node">
<title>Node61</title>
<g id="a_Node000061"><a xlink:href="replays_8c.html#ada30ba013c97df306b243dbd89d8979f" target="_top" xlink:title=" ">
<polygon fill="#fff0f0" stroke="red" points="405,-1105 298,-1105 298,-1086 405,-1086 405,-1105"/>
<text text-anchor="middle" x="351.5" y="-1093" font-family="Helvetica,sans-Serif" font-size="10.00">load_course_ghost</text>
</a>
</g>
</g>
<!-- Node3&#45;&gt;Node61 -->
<g id="edge8_Node000003_Node000061" class="edge">
<title>Node3&#45;&gt;Node61</title>
<g id="a_edge8_Node000003_Node000061"><a xlink:title=" ">
<path fill="none" stroke="#63b8ff" d="M217.42,-1067.84C240.86,-1072.71 269.77,-1078.72 294.64,-1083.89"/>
<polygon fill="#63b8ff" stroke="#63b8ff" points="294.16,-1087.36 304.67,-1085.97 295.59,-1080.51 294.16,-1087.36"/>
</a>
</g>
</g>
<!-- Node62 -->
<g id="Node000062" class="node">
<title>Node62</title>
<g id="a_Node000062"><a xlink:href="replays_8c.html#a83973fcda05d24a97b11dc1eca20aea5" target="_top" xlink:title=" ">
<polygon fill="white" stroke="#666666" points="404.5,-1068 298.5,-1068 298.5,-1049 404.5,-1049 404.5,-1068"/>
<text text-anchor="middle" x="351.5" y="-1056" font-family="Helvetica,sans-Serif" font-size="10.00">load_player_ghost</text>
</a>
</g>
</g>
<!-- Node3&#45;&gt;Node62 -->
<g id="edge9_Node000003_Node000062" class="edge">
<title>Node3&#45;&gt;Node62</title>
<g id="a_edge9_Node000003_Node000062"><a xlink:title=" ">
<path fill="none" stroke="#63b8ff" d="M217.42,-1058.5C238.86,-1058.5 264.87,-1058.5 288.18,-1058.5"/>
<polygon fill="#63b8ff" stroke="#63b8ff" points="288.33,-1062 298.33,-1058.5 288.33,-1055 288.33,-1062"/>
</a>
</g>
</g>
<!-- Node63 -->
<g id="Node000063" class="node">
<title>Node63</title>
<g id="a_Node000063"><a xlink:href="replays_8c.html#ae7d61f2c74810b3ee3efdf03b4dcc3d2" target="_top" xlink:title=" ">
<polygon fill="white" stroke="#666666" points="409.5,-1030.5 293.5,-1030.5 293.5,-1000.5 409.5,-1000.5 409.5,-1030.5"/>
<text text-anchor="start" x="301.5" y="-1018.5" font-family="Helvetica,sans-Serif" font-size="10.00">load_post_time_trial</text>
<text text-anchor="middle" x="351.5" y="-1007.5" font-family="Helvetica,sans-Serif" font-size="10.00">_replay</text>
</a>
</g>
</g>
<!-- Node3&#45;&gt;Node63 -->
<g id="edge10_Node000003_Node000063" class="edge">
<title>Node3&#45;&gt;Node63</title>
<g id="a_edge10_Node000003_Node000063"><a xlink:title=" ">
<path fill="none" stroke="#63b8ff" d="M212,-1048.96C232.98,-1043.89 259.33,-1037.52 283.4,-1031.71"/>
<polygon fill="#63b8ff" stroke="#63b8ff" points="284.31,-1035.09 293.2,-1029.34 282.66,-1028.29 284.31,-1035.09"/>
</a>
</g>
</g>
<!-- Node64 -->
<g id="Node000064" class="node">
<title>Node64</title>
<g id="a_Node000064"><a xlink:href="replays_8c.html#a80fa9da37c18f25041a3ec02cec5cd25" target="_top" xlink:title=" ">
<polygon fill="#fff0f0" stroke="red" points="397,-982 306,-982 306,-963 397,-963 397,-982"/>
<text text-anchor="middle" x="351.5" y="-970" font-family="Helvetica,sans-Serif" font-size="10.00">set_staff_ghost</text>
</a>
</g>
</g>
<!-- Node3&#45;&gt;Node64 -->
<g id="edge11_Node000003_Node000064" class="edge">
<title>Node3&#45;&gt;Node64</title>
<g id="a_edge11_Node000003_Node000064"><a xlink:title=" ">
<path fill="none" stroke="#63b8ff" d="M182.84,-1048.91C199.2,-1034.26 232.65,-1006.45 266,-991.5 275.26,-987.35 285.51,-984.06 295.59,-981.48"/>
<polygon fill="#63b8ff" stroke="#63b8ff" points="296.64,-984.83 305.56,-979.12 295.03,-978.02 296.64,-984.83"/>
</a>
</g>
</g>
<!-- Node5 -->
<g id="Node000005" class="node">
<title>Node5</title>
<g id="a_Node000005"><a xlink:href="save_8c.html#aefd3604da4aa5ae9ed1eb8fd042ff5e9" target="_top" xlink:title=" ">
<polygon fill="#fff0f0" stroke="red" points="570,-1351 478,-1351 478,-1332 570,-1332 570,-1351"/>
<text text-anchor="middle" x="524" y="-1339" font-family="Helvetica,sans-Serif" font-size="10.00">func_800B5F30</text>
</a>
</g>
</g>
<!-- Node4&#45;&gt;Node5 -->
<g id="edge4_Node000004_Node000005" class="edge">
<title>Node4&#45;&gt;Node5</title>
<g id="a_edge4_Node000004_Node000005"><a xlink:title=" ">
<path fill="none" stroke="#63b8ff" d="M397.13,-1172.47C410.95,-1175.15 425.54,-1179.97 437,-1188.5 482.9,-1222.67 507.73,-1289.03 517.71,-1321.97"/>
<polygon fill="#63b8ff" stroke="#63b8ff" points="514.4,-1323.13 520.53,-1331.77 521.13,-1321.19 514.4,-1323.13"/>
</a>
</g>
</g>
<!-- Node50 -->
<g id="Node000050" class="node">
<title>Node50</title>
<g id="a_Node000050"><a xlink:href="save_8c.html#a368a7faa2d9a4bc5a9ecb359dbfa8187" target="_top" xlink:title=" ">
<polygon fill="#fff0f0" stroke="red" points="570,-1197 478,-1197 478,-1178 570,-1178 570,-1197"/>
<text text-anchor="middle" x="524" y="-1185" font-family="Helvetica,sans-Serif" font-size="10.00">func_800B64EC</text>
</a>
</g>
</g>
<!-- Node4&#45;&gt;Node50 -->
<g id="edge5_Node000004_Node000050" class="edge">
<title>Node4&#45;&gt;Node50</title>
<g id="a_edge5_Node000004_Node000050"><a xlink:title=" ">
<path fill="none" stroke="#63b8ff" d="M397.3,-1174.23C418.86,-1176.51 444.91,-1179.26 467.7,-1181.66"/>
<polygon fill="#63b8ff" stroke="#63b8ff" points="467.6,-1185.17 477.91,-1182.74 468.33,-1178.21 467.6,-1185.17"/>
</a>
</g>
</g>
<!-- Node56 -->
<g id="Node000056" class="node">
<title>Node56</title>
<g id="a_Node000056"><a xlink:href="save_8c.html#a4c4164e58841d1c3cd46e705edc12719" target="_top" xlink:title=" ">
<polygon fill="#fff0f0" stroke="red" points="570,-1160 478,-1160 478,-1141 570,-1141 570,-1160"/>
<text text-anchor="middle" x="524" y="-1148" font-family="Helvetica,sans-Serif" font-size="10.00">func_800B6708</text>
</a>
</g>
</g>
<!-- Node4&#45;&gt;Node56 -->
<g id="edge6_Node000004_Node000056" class="edge">
<title>Node4&#45;&gt;Node56</title>
<g id="a_edge6_Node000004_Node000056"><a xlink:title=" ">
<path fill="none" stroke="#63b8ff" d="M397.3,-1164.51C418.86,-1162.11 444.91,-1159.2 467.7,-1156.66"/>
<polygon fill="#63b8ff" stroke="#63b8ff" points="468.36,-1160.11 477.91,-1155.52 467.58,-1153.15 468.36,-1160.11"/>
</a>
</g>
</g>
<!-- Node67 -->
<g id="Node000067" class="node">
<title>Node67</title>
<g id="a_Node000067"><a xlink:href="camera_8c.html#a2699fb853dad47cc722031ca412a31ea" target="_top" xlink:title=" ">
<polygon fill="#fff0f0" stroke="red" points="388.5,-945 314.5,-945 314.5,-926 388.5,-926 388.5,-945"/>
<text text-anchor="middle" x="351.5" y="-933" font-family="Helvetica,sans-Serif" font-size="10.00">camera_init</text>
</a>
</g>
</g>
<!-- Node66&#45;&gt;Node67 -->
<g id="edge13_Node000066_Node000067" class="edge">
<title>Node66&#45;&gt;Node67</title>
<g id="a_edge13_Node000066_Node000067"><a xlink:title=" ">
<path fill="none" stroke="#63b8ff" d="M177.51,-813.32C189.48,-835.73 222.05,-890.74 266,-917.5 277.54,-924.52 291.41,-928.83 304.55,-931.47"/>
<polygon fill="#63b8ff" stroke="#63b8ff" points="303.96,-934.92 314.41,-933.18 305.15,-928.02 303.96,-934.92"/>
</a>
</g>
</g>
<!-- Node73 -->
<g id="Node000073" class="node">
<title>Node73</title>
<g id="a_Node000073"><a xlink:href="camera_8c.html#a77eb0aa11072a84cb3dfc4446aa1bff5" target="_top" xlink:title=" ">
<polygon fill="#fff0f0" stroke="red" points="390.5,-908 312.5,-908 312.5,-889 390.5,-889 390.5,-908"/>
<text text-anchor="middle" x="351.5" y="-896" font-family="Helvetica,sans-Serif" font-size="10.00">freecam_init</text>
</a>
</g>
</g>
<!-- Node66&#45;&gt;Node73 -->
<g id="edge14_Node000066_Node000073" class="edge">
<title>Node66&#45;&gt;Node73</title>
<g id="a_edge14_Node000066_Node000073"><a xlink:title=" ">
<path fill="none" stroke="#63b8ff" d="M182.57,-813.21C198.82,-828.4 232.45,-857.75 266,-874.5 277.41,-880.2 290.39,-884.73 302.69,-888.26"/>
<polygon fill="#63b8ff" stroke="#63b8ff" points="301.79,-891.65 312.36,-890.87 303.62,-884.89 301.79,-891.65"/>
</a>
</g>
</g>
<!-- Node74 -->
<g id="Node000074" class="node">
<title>Node74</title>
<g id="a_Node000074"><a xlink:href="spawn__players_8c.html#afb1c307e34d73d9c004936d2752c44ce" target="_top" xlink:title=" ">
<polygon fill="#fff0f0" stroke="red" points="397.5,-832 305.5,-832 305.5,-813 397.5,-813 397.5,-832"/>
<text text-anchor="middle" x="351.5" y="-820" font-family="Helvetica,sans-Serif" font-size="10.00">func_8003C0F0</text>
</a>
</g>
</g>
<!-- Node66&#45;&gt;Node74 -->
<g id="edge15_Node000066_Node000074" class="edge">
<title>Node66&#45;&gt;Node74</title>
<g id="a_edge15_Node000066_Node000074"><a xlink:title=" ">
<path fill="none" stroke="#63b8ff" d="M217.88,-808.34C241.42,-810.86 270.36,-813.95 295.2,-816.6"/>
<polygon fill="#63b8ff" stroke="#63b8ff" points="294.89,-820.08 305.21,-817.67 295.63,-813.12 294.89,-820.08"/>
</a>
</g>
</g>
<!-- Node137 -->
<g id="Node000137" class="node">
<title>Node137</title>
<g id="a_Node000137"><a xlink:href="Game_8cpp.html#a7dfa77f8baa97e05f88abc7be3dd45a1" target="_top" xlink:title=" ">
<polygon fill="white" stroke="#666666" points="570.5,-851 477.5,-851 477.5,-832 570.5,-832 570.5,-851"/>
<text text-anchor="middle" x="524" y="-839" font-family="Helvetica,sans-Serif" font-size="10.00">IsToadsTurnpike</text>
</a>
</g>
</g>
<!-- Node66&#45;&gt;Node137 -->
<g id="edge20_Node000066_Node000137" class="edge">
<title>Node66&#45;&gt;Node137</title>
<g id="a_edge20_Node000066_Node000137"><a xlink:title=" ">
<path fill="none" stroke="#63b8ff" d="M190.13,-813.08C208.47,-822.45 238.31,-836.09 266,-841.5 334.35,-854.86 414.9,-851.93 467.36,-847.6"/>
<polygon fill="#63b8ff" stroke="#63b8ff" points="467.8,-851.08 477.46,-846.73 467.2,-844.1 467.8,-851.08"/>
</a>
</g>
</g>
<!-- Node150 -->
<g id="Node000150" class="node">
<title>Node150</title>
<g id="a_Node000150"><a xlink:href="spawn__players_8c.html#a400676f9bd53662b5636a7f191f947aa" target="_top" xlink:title=" ">
<polygon fill="#fff0f0" stroke="red" points="398,-795 305,-795 305,-776 398,-776 398,-795"/>
<text text-anchor="middle" x="351.5" y="-783" font-family="Helvetica,sans-Serif" font-size="10.00">func_8003CD78</text>
</a>
</g>
</g>
<!-- Node66&#45;&gt;Node150 -->
<g id="edge17_Node000066_Node000150" class="edge">
<title>Node66&#45;&gt;Node150</title>
<g id="a_edge17_Node000066_Node000150"><a xlink:title=" ">
<path fill="none" stroke="#63b8ff" d="M217.88,-798.91C241.32,-796.54 270.14,-793.63 294.91,-791.12"/>
<polygon fill="#63b8ff" stroke="#63b8ff" points="295.3,-794.6 304.9,-790.11 294.59,-787.64 295.3,-794.6"/>
</a>
</g>
</g>
<!-- Node152 -->
<g id="Node000152" class="node">
<title>Node152</title>
<g id="a_Node000152"><a xlink:href="spawn__players_8c.html#a1d1dc4164aa554583609ad0d9bbbf276" target="_top" xlink:title=" ">
<polygon fill="#fff0f0" stroke="red" points="398,-758 305,-758 305,-739 398,-739 398,-758"/>
<text text-anchor="middle" x="351.5" y="-746" font-family="Helvetica,sans-Serif" font-size="10.00">func_8003CD98</text>
</a>
</g>
</g>
<!-- Node66&#45;&gt;Node152 -->
<g id="edge18_Node000066_Node000152" class="edge">
<title>Node66&#45;&gt;Node152</title>
<g id="a_edge18_Node000066_Node000152"><a xlink:title=" ">
<path fill="none" stroke="#63b8ff" d="M194.47,-793.99C213.22,-786.13 241.03,-775.07 266,-767.5 275.18,-764.72 285.04,-762.14 294.67,-759.84"/>
<polygon fill="#63b8ff" stroke="#63b8ff" points="295.62,-763.21 304.57,-757.54 294.04,-756.39 295.62,-763.21"/>
</a>
</g>
</g>
<!-- Node373 -->
<g id="Node000373" class="node">
<title>Node373</title>
<g id="a_Node000373"><a xlink:href="code__80057C60_8c.html#a07b43c07e7afcf3fcccf63622bb991e1" target="_top" xlink:title=" ">
<polygon fill="white" stroke="#666666" points="397.5,-721 305.5,-721 305.5,-702 397.5,-702 397.5,-721"/>
<text text-anchor="middle" x="351.5" y="-709" font-family="Helvetica,sans-Serif" font-size="10.00">func_8005D290</text>
</a>
</g>
</g>
<!-- Node66&#45;&gt;Node373 -->
<g id="edge19_Node000066_Node000373" class="edge">
<title>Node66&#45;&gt;Node373</title>
<g id="a_edge19_Node000066_Node000373"><a xlink:title=" ">
<path fill="none" stroke="#63b8ff" d="M181.88,-793.79C197.71,-778 231.38,-746.89 266,-730.5 275.17,-726.16 285.38,-722.79 295.45,-720.17"/>
<polygon fill="#63b8ff" stroke="#63b8ff" points="296.5,-723.52 305.42,-717.8 294.88,-716.71 296.5,-723.52"/>
</a>
</g>
</g>
<!-- Node74&#45;&gt;Node137 -->
<g id="edge16_Node000074_Node000137" class="edge">
<title>Node74&#45;&gt;Node137</title>
<g id="a_edge16_Node000074_Node000137"><a xlink:title=" ">
<path fill="none" stroke="#63b8ff" d="M397.74,-827.54C419.05,-829.92 444.66,-832.77 467.16,-835.28"/>
<polygon fill="#63b8ff" stroke="#63b8ff" points="466.92,-838.77 477.25,-836.4 467.7,-831.82 466.92,-838.77"/>
</a>
</g>
</g>
<!-- Node374&#45;&gt;Node5 -->
<g id="edge27_Node000374_Node000005" class="edge">
<title>Node374&#45;&gt;Node5</title>
<g id="a_edge27_Node000374_Node000005"><a xlink:title=" ">
<path fill="none" stroke="#63b8ff" d="M216.5,-1302.08C221.48,-1304.54 226.14,-1307.62 230,-1311.5 266.57,-1348.27 224.05,-1392 266,-1422.5 327.47,-1467.19 366.36,-1450.53 437,-1422.5 468.91,-1409.84 495.85,-1379.11 510.69,-1359.35"/>
<polygon fill="#63b8ff" stroke="#63b8ff" points="513.6,-1361.3 516.62,-1351.15 507.92,-1357.2 513.6,-1361.3"/>
</a>
</g>
</g>
<!-- Node375 -->
<g id="Node000375" class="node">
<title>Node375</title>
<g id="a_Node000375"><a xlink:href="menu__items_8h.html#ae560025be8c56d009f06b309463a5183" target="_top" xlink:title=" ">
<polygon fill="white" stroke="#666666" points="399,-1413 304,-1413 304,-1394 399,-1394 399,-1413"/>
<text text-anchor="middle" x="351.5" y="-1401" font-family="Helvetica,sans-Serif" font-size="10.00">add_menu_item</text>
</a>
</g>
</g>
<!-- Node374&#45;&gt;Node375 -->
<g id="edge22_Node000374_Node000375" class="edge">
<title>Node374&#45;&gt;Node375</title>
<g id="a_edge22_Node000374_Node000375"><a xlink:title=" ">
<path fill="none" stroke="#63b8ff" d="M214.83,-1302.07C220.32,-1304.53 225.57,-1307.62 230,-1311.5 257.53,-1335.58 237.2,-1362.96 266,-1385.5 274.06,-1391.81 283.83,-1396.03 293.82,-1398.84"/>
<polygon fill="#63b8ff" stroke="#63b8ff" points="293.3,-1402.31 303.84,-1401.19 294.9,-1395.49 293.3,-1402.31"/>
</a>
</g>
</g>
<!-- Node376 -->
<g id="Node000376" class="node">
<title>Node376</title>
<g id="a_Node000376"><a xlink:href="menu__items_8c.html#abfa6c366f02a470bbfcddb66359eec13" target="_top" xlink:title=" ">
<polygon fill="white" stroke="#666666" points="411,-1376 292,-1376 292,-1357 411,-1357 411,-1376"/>
<text text-anchor="middle" x="351.5" y="-1364" font-family="Helvetica,sans-Serif" font-size="10.00">clear_menu_textures</text>
</a>
</g>
</g>
<!-- Node374&#45;&gt;Node376 -->
<g id="edge23_Node000374_Node000376" class="edge">
<title>Node374&#45;&gt;Node376</title>
<g id="a_edge23_Node000374_Node000376"><a xlink:title=" ">
<path fill="none" stroke="#63b8ff" d="M210.18,-1302.05C217.04,-1304.59 223.94,-1307.71 230,-1311.5 249.45,-1323.67 245.91,-1337.41 266,-1348.5 270.92,-1351.22 276.22,-1353.53 281.67,-1355.49"/>
<polygon fill="#63b8ff" stroke="#63b8ff" points="281.01,-1358.95 291.6,-1358.65 283.14,-1352.28 281.01,-1358.95"/>
</a>
</g>
</g>
<!-- Node377 -->
<g id="Node000377" class="node">
<title>Node377</title>
<g id="a_Node000377"><a xlink:href="menu__items_8c.html#af9ede5415daa7e54bf2e7b018b382884" target="_top" xlink:title=" ">
<polygon fill="white" stroke="#666666" points="391,-1339 312,-1339 312,-1320 391,-1320 391,-1339"/>
<text text-anchor="middle" x="351.5" y="-1327" font-family="Helvetica,sans-Serif" font-size="10.00">clear_menus</text>
</a>
</g>
</g>
<!-- Node374&#45;&gt;Node377 -->
<g id="edge24_Node000374_Node000377" class="edge">
<title>Node374&#45;&gt;Node377</title>
<g id="a_edge24_Node000374_Node000377"><a xlink:title=" ">
<path fill="none" stroke="#63b8ff" d="M216.5,-1301.65C242.43,-1307.04 275.27,-1313.86 301.95,-1319.41"/>
<polygon fill="#63b8ff" stroke="#63b8ff" points="301.34,-1322.86 311.84,-1321.46 302.76,-1316 301.34,-1322.86"/>
</a>
</g>
</g>
<!-- Node378 -->
<g id="Node000378" class="node">
<title>Node378</title>
<g id="a_Node000378"><a xlink:href="menu__items_8c.html#a43d067e97313b62650b013e0384a7c8d" target="_top" xlink:title=" ">
<polygon fill="white" stroke="#666666" points="397,-1302 306,-1302 306,-1283 397,-1283 397,-1302"/>
<text text-anchor="middle" x="351.5" y="-1290" font-family="Helvetica,sans-Serif" font-size="10.00">func_80092258</text>
</a>
</g>
</g>
<!-- Node374&#45;&gt;Node378 -->
<g id="edge25_Node000374_Node000378" class="edge">
<title>Node374&#45;&gt;Node378</title>
<g id="a_edge25_Node000374_Node000378"><a xlink:title=" ">
<path fill="none" stroke="#63b8ff" d="M216.5,-1292.5C240.39,-1292.5 270.15,-1292.5 295.55,-1292.5"/>
<polygon fill="#63b8ff" stroke="#63b8ff" points="295.77,-1296 305.77,-1292.5 295.77,-1289 295.77,-1296"/>
</a>
</g>
</g>
<!-- Node379 -->
<g id="Node000379" class="node">
<title>Node379</title>
<g id="a_Node000379"><a xlink:href="menu__items_8c.html#ae938fb8c5b56456f2f0caf7dd552a51e" target="_top" xlink:title=" ">
<polygon fill="white" stroke="#666666" points="397.5,-1265 305.5,-1265 305.5,-1246 397.5,-1246 397.5,-1265"/>
<text text-anchor="middle" x="351.5" y="-1253" font-family="Helvetica,sans-Serif" font-size="10.00">func_8009A344</text>
</a>
</g>
</g>
<!-- Node374&#45;&gt;Node379 -->
<g id="edge26_Node000374_Node000379" class="edge">
<title>Node374&#45;&gt;Node379</title>
<g id="a_edge26_Node000374_Node000379"><a xlink:title=" ">
<path fill="none" stroke="#63b8ff" d="M216.5,-1283.35C240.4,-1278.39 270.18,-1272.2 295.59,-1266.91"/>
<polygon fill="#63b8ff" stroke="#63b8ff" points="296.38,-1270.32 305.46,-1264.86 294.96,-1263.47 296.38,-1270.32"/>
</a>
</g>
</g>
<!-- Node113 -->
<g id="Node000113" class="node">
<title>Node113</title>
<g id="a_Node000113"><a xlink:href="memory_8c.html#a7e6e89972c484db957ddbd70ba07ed92" target="_top" xlink:title="Returns the address of the next available memory location and updates the memory pointer to reference...">
<polygon fill="white" stroke="#666666" points="406.5,-1227.5 296.5,-1227.5 296.5,-1197.5 406.5,-1197.5 406.5,-1227.5"/>
<text text-anchor="start" x="304.5" y="-1215.5" font-family="Helvetica,sans-Serif" font-size="10.00">get_next_available</text>
<text text-anchor="middle" x="351.5" y="-1204.5" font-family="Helvetica,sans-Serif" font-size="10.00">_memory_addr</text>
</a>
</g>
</g>
<!-- Node374&#45;&gt;Node113 -->
<g id="edge28_Node000374_Node000113" class="edge">
<title>Node374&#45;&gt;Node113</title>
<g id="a_edge28_Node000374_Node000113"><a xlink:title=" ">
<path fill="none" stroke="#63b8ff" d="M186.19,-1283C203.92,-1271.03 236.12,-1250.48 266,-1237.5 272.56,-1234.65 279.54,-1232.01 286.57,-1229.59"/>
<polygon fill="#63b8ff" stroke="#63b8ff" points="287.75,-1232.89 296.16,-1226.44 285.56,-1226.24 287.75,-1232.89"/>
</a>
</g>
</g>
<!-- Node382 -->
<g id="Node000382" class="node">
<title>Node382</title>
<g id="a_Node000382"><a xlink:href="memory_8c.html#a08672f1381d39b459aa779748bf40143" target="_top" xlink:title="Allocates memory and adjusts gFreeMemorySize.">
<polygon fill="white" stroke="#666666" points="575,-553 473,-553 473,-534 575,-534 575,-553"/>
<text text-anchor="middle" x="524" y="-541" font-family="Helvetica,sans-Serif" font-size="10.00">allocate_memory</text>
</a>
</g>
</g>
<!-- Node381&#45;&gt;Node382 -->
<g id="edge31_Node000381_Node000382" class="edge">
<title>Node381&#45;&gt;Node382</title>
<g id="a_edge31_Node000381_Node000382"><a xlink:title=" ">
<path fill="none" stroke="#63b8ff" d="M185.19,-483.59C201.63,-501.85 232.23,-531.63 266,-543.5 330.46,-566.16 409.76,-561.71 463.08,-554.48"/>
<polygon fill="#63b8ff" stroke="#63b8ff" points="463.65,-557.93 473.06,-553.05 462.66,-551 463.65,-557.93"/>
</a>
</g>
</g>
<!-- Node383 -->
<g id="Node000383" class="node">
<title>Node383</title>
<g id="a_Node000383"><a xlink:href="Game_8cpp.html#a88c0d93fc49776f7a5c145312f4f81a0" target="_top" xlink:title=" ">
<polygon fill="#fff0f0" stroke="red" points="394.5,-497 308.5,-497 308.5,-478 394.5,-478 394.5,-497"/>
<text text-anchor="middle" x="351.5" y="-485" font-family="Helvetica,sans-Serif" font-size="10.00">CM_BeginPlay</text>
</a>
</g>
</g>
<!-- Node381&#45;&gt;Node383 -->
<g id="edge32_Node000381_Node000383" class="edge">
<title>Node381&#45;&gt;Node383</title>
<g id="a_edge32_Node000381_Node000383"><a xlink:title=" ">
<path fill="none" stroke="#63b8ff" d="M230.29,-474.67C252.19,-477.01 276.97,-479.65 298.32,-481.93"/>
<polygon fill="#63b8ff" stroke="#63b8ff" points="298.18,-485.44 308.5,-483.02 298.93,-478.48 298.18,-485.44"/>
</a>
</g>
</g>
<!-- Node388 -->
<g id="Node000388" class="node">
<title>Node388</title>
<g id="a_Node000388"><a xlink:href="Game_8cpp.html#a13d5b10b9acb59b4b90db739aba83d1f" target="_top" xlink:title=" ">
<polygon fill="white" stroke="#666666" points="398,-610 305,-610 305,-591 398,-591 398,-610"/>
<text text-anchor="middle" x="351.5" y="-598" font-family="Helvetica,sans-Serif" font-size="10.00">CM_CleanWorld</text>
</a>
</g>
</g>
<!-- Node381&#45;&gt;Node388 -->
<g id="edge33_Node000381_Node000388" class="edge">
<title>Node381&#45;&gt;Node388</title>
<g id="a_edge33_Node000381_Node000388"><a xlink:title=" ">
<path fill="none" stroke="#63b8ff" d="M181.39,-483.51C196.05,-506.92 227.51,-551.99 266,-576.5 274.77,-582.09 284.87,-586.4 294.96,-589.72"/>
<polygon fill="#63b8ff" stroke="#63b8ff" points="294.01,-593.09 304.59,-592.61 296.02,-586.39 294.01,-593.09"/>
</a>
</g>
</g>
<!-- Node389 -->
<g id="Node000389" class="node">
<title>Node389</title>
<g id="a_Node000389"><a xlink:href="Game_8cpp.html#aed1eabdc18e483fc04bd8f3c1b02968d" target="_top" xlink:title=" ">
<polygon fill="white" stroke="#666666" points="402.5,-460 300.5,-460 300.5,-441 402.5,-441 402.5,-460"/>
<text text-anchor="middle" x="351.5" y="-448" font-family="Helvetica,sans-Serif" font-size="10.00">CM_LoadTextures</text>
</a>
</g>
</g>
<!-- Node381&#45;&gt;Node389 -->
<g id="edge34_Node000381_Node000389" class="edge">
<title>Node381&#45;&gt;Node389</title>
<g id="a_edge34_Node000381_Node000389"><a xlink:title=" ">
<path fill="none" stroke="#63b8ff" d="M230.29,-462.66C249.57,-460.71 271.08,-458.53 290.52,-456.57"/>
<polygon fill="#63b8ff" stroke="#63b8ff" points="290.88,-460.05 300.48,-455.56 290.17,-453.08 290.88,-460.05"/>
</a>
</g>
</g>
<!-- Node390 -->
<g id="Node000390" class="node">
<title>Node390</title>
<g id="a_Node000390"><a xlink:href="actors_8c.html#a90bb1e98b1fc94450092f4fddff2a61b" target="_top" xlink:title=" ">
<polygon fill="#fff0f0" stroke="red" points="404.5,-423 298.5,-423 298.5,-404 404.5,-404 404.5,-423"/>
<text text-anchor="middle" x="351.5" y="-411" font-family="Helvetica,sans-Serif" font-size="10.00">destroy_all_actors</text>
</a>
</g>
</g>
<!-- Node381&#45;&gt;Node390 -->
<g id="edge35_Node000381_Node000390" class="edge">
<title>Node381&#45;&gt;Node390</title>
<g id="a_edge35_Node000381_Node000390"><a xlink:title=" ">
<path fill="none" stroke="#63b8ff" d="M208.04,-453.41C225.32,-446.43 246.52,-438.4 266,-432.5 274.47,-429.93 283.51,-427.54 292.41,-425.38"/>
<polygon fill="#63b8ff" stroke="#63b8ff" points="293.43,-428.74 302.37,-423.04 291.83,-421.92 293.43,-428.74"/>
</a>
</g>
</g>
<!-- Node392 -->
<g id="Node000392" class="node">
<title>Node392</title>
<g id="a_Node000392"><a xlink:href="memory_8c.html#a56dd580b5f9113b83709d1f11181e6a7" target="_top" xlink:title=" ">
<polygon fill="#fff0f0" stroke="red" points="393.5,-534 309.5,-534 309.5,-515 393.5,-515 393.5,-534"/>
<text text-anchor="middle" x="351.5" y="-522" font-family="Helvetica,sans-Serif" font-size="10.00">dma_textures</text>
</a>
</g>
</g>
<!-- Node381&#45;&gt;Node392 -->
<g id="edge36_Node000381_Node000392" class="edge">
<title>Node381&#45;&gt;Node392</title>
<g id="a_edge36_Node000381_Node000392"><a xlink:title=" ">
<path fill="none" stroke="#63b8ff" d="M205.74,-483.68C223.37,-491.3 245.56,-500.22 266,-506.5 276.65,-509.77 288.23,-512.66 299.31,-515.11"/>
<polygon fill="#63b8ff" stroke="#63b8ff" points="298.79,-518.58 309.3,-517.24 300.25,-511.73 298.79,-518.58"/>
</a>
</g>
</g>
<!-- Node393 -->
<g id="Node000393" class="node">
<title>Node393</title>
<g id="a_Node000393"><a xlink:href="actors_8c.html#a7dd08845f085e355fe4eb45bff89542a" target="_top" xlink:title=" ">
<polygon fill="white" stroke="#666666" points="412.5,-386 290.5,-386 290.5,-367 412.5,-367 412.5,-386"/>
<text text-anchor="middle" x="351.5" y="-374" font-family="Helvetica,sans-Serif" font-size="10.00">init_red_shell_texture</text>
</a>
</g>
</g>
<!-- Node381&#45;&gt;Node393 -->
<g id="edge38_Node000381_Node000393" class="edge">
<title>Node381&#45;&gt;Node393</title>
<g id="a_edge38_Node000381_Node000393"><a xlink:title=" ">
<path fill="none" stroke="#63b8ff" d="M187.59,-453.2C204.96,-436.48 235.1,-410.12 266,-395.5 271.22,-393.03 276.78,-390.87 282.46,-388.99"/>
<polygon fill="#63b8ff" stroke="#63b8ff" points="283.53,-392.32 292.09,-386.07 281.5,-385.62 283.53,-392.32"/>
</a>
</g>
</g>
<!-- Node394 -->
<g id="Node000394" class="node">
<title>Node394</title>
<g id="a_Node000394"><a xlink:href="memory_8c.html#ab56e85d799262a4d75c3be6be4ce4590" target="_top" xlink:title=" ">
<polygon fill="white" stroke="#666666" points="430.5,-349 272.5,-349 272.5,-330 430.5,-330 430.5,-349"/>
<text text-anchor="middle" x="351.5" y="-337" font-family="Helvetica,sans-Serif" font-size="10.00">set_segment_base_addr_x64</text>
</a>
</g>
</g>
<!-- Node381&#45;&gt;Node394 -->
<g id="edge39_Node000381_Node000394" class="edge">
<title>Node381&#45;&gt;Node394</title>
<g id="a_edge39_Node000381_Node000394"><a xlink:title=" ">
<path fill="none" stroke="#63b8ff" d="M180.93,-453.35C195.16,-429.25 226.32,-382.49 266,-358.5 269.62,-356.31 273.46,-354.38 277.44,-352.66"/>
<polygon fill="#63b8ff" stroke="#63b8ff" points="278.81,-355.88 286.91,-349.05 276.32,-349.34 278.81,-355.88"/>
</a>
</g>
</g>
<!-- Node395 -->
<g id="Node000395" class="node">
<title>Node395</title>
<g id="a_Node000395"><a xlink:href="actors_8c.html#a047d32425b6ea73e667cb31548bdc8dd" target="_top" xlink:title=" ">
<polygon fill="white" stroke="#666666" points="412,-312 291,-312 291,-293 412,-293 412,-312"/>
<text text-anchor="middle" x="351.5" y="-300" font-family="Helvetica,sans-Serif" font-size="10.00">spawn_course_actors</text>
</a>
</g>
</g>
<!-- Node381&#45;&gt;Node395 -->
<g id="edge40_Node000381_Node000395" class="edge">
<title>Node381&#45;&gt;Node395</title>
<g id="a_edge40_Node000381_Node000395"><a xlink:title=" ">
<path fill="none" stroke="#63b8ff" d="M177.68,-453.22C188.76,-422.96 217.75,-355.42 266,-321.5 270.61,-318.26 275.69,-315.56 280.99,-313.31"/>
<polygon fill="#63b8ff" stroke="#63b8ff" points="282.55,-316.47 290.73,-309.73 280.13,-309.89 282.55,-316.47"/>
</a>
</g>
</g>
<!-- Node392&#45;&gt;Node382 -->
<g id="edge37_Node000392_Node000382" class="edge">
<title>Node392&#45;&gt;Node382</title>
<g id="a_edge37_Node000392_Node000382"><a xlink:title=" ">
<path fill="none" stroke="#63b8ff" d="M393.77,-529.1C414.55,-531.41 440.12,-534.26 463.02,-536.82"/>
<polygon fill="#63b8ff" stroke="#63b8ff" points="462.66,-540.3 472.99,-537.93 463.44,-533.34 462.66,-540.3"/>
</a>
</g>
</g>
<!-- Node397 -->
<g id="Node000397" class="node">
<title>Node397</title>
<g id="a_Node000397"><a xlink:href="code__8006E9C0_8h.html#a0a15839e2884f0317e950c05b03e4f0b" target="_top" xlink:title=" ">
<polygon fill="white" stroke="#666666" points="396.5,-275 306.5,-275 306.5,-256 396.5,-256 396.5,-275"/>
<text text-anchor="middle" x="351.5" y="-263" font-family="Helvetica,sans-Serif" font-size="10.00">func_8006FA94</text>
</a>
</g>
</g>
<!-- Node396&#45;&gt;Node397 -->
<g id="edge42_Node000396_Node000397" class="edge">
<title>Node396&#45;&gt;Node397</title>
<g id="a_edge42_Node000396_Node000397"><a xlink:title=" ">
<path fill="none" stroke="#63b8ff" d="M185.4,-201.13C202.81,-213.66 235.19,-235.38 266,-247.5 275.53,-251.25 285.98,-254.28 296.19,-256.7"/>
<polygon fill="#63b8ff" stroke="#63b8ff" points="295.75,-260.19 306.27,-258.93 297.26,-253.36 295.75,-260.19"/>
</a>
</g>
</g>
<!-- Node398 -->
<g id="Node000398" class="node">
<title>Node398</title>
<g id="a_Node000398"><a xlink:href="code__8006E9C0_8c.html#a7ce8b772e14372f2078703a39e676d2a" target="_top" xlink:title=" ">
<polygon fill="#fff0f0" stroke="red" points="397,-238 306,-238 306,-219 397,-219 397,-238"/>
<text text-anchor="middle" x="351.5" y="-226" font-family="Helvetica,sans-Serif" font-size="10.00">func_80070148</text>
</a>
</g>
</g>
<!-- Node396&#45;&gt;Node398 -->
<g id="edge43_Node000396_Node000398" class="edge">
<title>Node396&#45;&gt;Node398</title>
<g id="a_edge43_Node000396_Node000398"><a xlink:title=" ">
<path fill="none" stroke="#63b8ff" d="M199.53,-197.12C224.98,-202.41 263.85,-210.49 295.78,-217.13"/>
<polygon fill="#63b8ff" stroke="#63b8ff" points="295.37,-220.62 305.87,-219.22 296.8,-213.76 295.37,-220.62"/>
</a>
</g>
</g>
<!-- Node400 -->
<g id="Node000400" class="node">
<title>Node400</title>
<g id="a_Node000400"><a xlink:href="code__8006E9C0_8c.html#a9b35328c0ffddc0723de4730c5e41431" target="_top" xlink:title=" ">
<polygon fill="#fff0f0" stroke="red" points="409,-201 294,-201 294,-182 409,-182 409,-201"/>
<text text-anchor="middle" x="351.5" y="-189" font-family="Helvetica,sans-Serif" font-size="10.00">init_hud_one_player</text>
</a>
</g>
</g>
<!-- Node396&#45;&gt;Node400 -->
<g id="edge44_Node000396_Node000400" class="edge">
<title>Node396&#45;&gt;Node400</title>
<g id="a_edge44_Node000396_Node000400"><a xlink:title=" ">
<path fill="none" stroke="#63b8ff" d="M199.53,-191.5C221.81,-191.5 254.36,-191.5 283.53,-191.5"/>
<polygon fill="#63b8ff" stroke="#63b8ff" points="283.69,-195 293.69,-191.5 283.69,-188 283.69,-195"/>
</a>
</g>
</g>
<!-- Node411 -->
<g id="Node000411" class="node">
<title>Node411</title>
<g id="a_Node000411"><a xlink:href="code__8006E9C0_8c.html#a36e7c29e21274b76d24f7c8864af5c3b" target="_top" xlink:title=" ">
<polygon fill="#fff0f0" stroke="red" points="407,-163.5 296,-163.5 296,-133.5 407,-133.5 407,-163.5"/>
<text text-anchor="start" x="304" y="-151.5" font-family="Helvetica,sans-Serif" font-size="10.00">init_hud_three_four</text>
<text text-anchor="middle" x="351.5" y="-140.5" font-family="Helvetica,sans-Serif" font-size="10.00">_player</text>
</a>
</g>
</g>
<!-- Node396&#45;&gt;Node411 -->
<g id="edge45_Node000396_Node000411" class="edge">
<title>Node396&#45;&gt;Node411</title>
<g id="a_edge45_Node000396_Node000411"><a xlink:title=" ">
<path fill="none" stroke="#63b8ff" d="M199.53,-184.97C222.43,-179.44 256.18,-171.29 285.97,-164.09"/>
<polygon fill="#63b8ff" stroke="#63b8ff" points="287,-167.44 295.9,-161.69 285.35,-160.64 287,-167.44"/>
</a>
</g>
</g>
<!-- Node412 -->
<g id="Node000412" class="node">
<title>Node412</title>
<g id="a_Node000412"><a xlink:href="code__8006E9C0_8c.html#ae0bbfee0194d6a21ab9c2133af28ae16" target="_top" xlink:title=" ">
<polygon fill="#fff0f0" stroke="red" points="409,-115.5 294,-115.5 294,-85.5 409,-85.5 409,-115.5"/>
<text text-anchor="start" x="302" y="-103.5" font-family="Helvetica,sans-Serif" font-size="10.00">init_hud_two_player</text>
<text text-anchor="middle" x="351.5" y="-92.5" font-family="Helvetica,sans-Serif" font-size="10.00">_horizontal</text>
</a>
</g>
</g>
<!-- Node396&#45;&gt;Node412 -->
<g id="edge46_Node000396_Node000412" class="edge">
<title>Node396&#45;&gt;Node412</title>
<g id="a_edge46_Node000396_Node000412"><a xlink:title=" ">
<path fill="none" stroke="#63b8ff" d="M199.59,-186.76C209.78,-184.06 221.06,-179.88 230,-173.5 251.99,-157.79 243.8,-139.91 266,-124.5 271.55,-120.64 277.72,-117.4 284.12,-114.68"/>
<polygon fill="#63b8ff" stroke="#63b8ff" points="285.52,-117.89 293.62,-111.05 283.03,-111.35 285.52,-117.89"/>
</a>
</g>
</g>
<!-- Node413 -->
<g id="Node000413" class="node">
<title>Node413</title>
<g id="a_Node000413"><a xlink:href="code__8006E9C0_8c.html#aa98fba14045af26e5c13a6a72442b8be" target="_top" xlink:title=" ">
<polygon fill="#fff0f0" stroke="red" points="409,-67.5 294,-67.5 294,-37.5 409,-37.5 409,-67.5"/>
<text text-anchor="start" x="302" y="-55.5" font-family="Helvetica,sans-Serif" font-size="10.00">init_hud_two_player</text>
<text text-anchor="middle" x="351.5" y="-44.5" font-family="Helvetica,sans-Serif" font-size="10.00">_vertical</text>
</a>
</g>
</g>
<!-- Node396&#45;&gt;Node413 -->
<g id="edge47_Node000396_Node000413" class="edge">
<title>Node396&#45;&gt;Node413</title>
<g id="a_edge47_Node000396_Node000413"><a xlink:title=" ">
<path fill="none" stroke="#63b8ff" d="M199.72,-188.21C210.29,-185.7 221.81,-181.28 230,-173.5 263.35,-141.84 232.23,-107.71 266,-76.5 271.39,-71.52 277.74,-67.56 284.5,-64.42"/>
<polygon fill="#63b8ff" stroke="#63b8ff" points="285.95,-67.61 293.91,-60.62 283.33,-61.12 285.95,-67.61"/>
</a>
</g>
</g>
<!-- Node414 -->
<g id="Node000414" class="node">
<title>Node414</title>
<g id="a_Node000414"><a xlink:href="code__8006E9C0_8c.html#a90b6f11f43c81c8c033805cfddb8fc89" target="_top" xlink:title=" ">
<polygon fill="#fff0f0" stroke="red" points="412.5,-19 290.5,-19 290.5,0 412.5,0 412.5,-19"/>
<text text-anchor="middle" x="351.5" y="-7" font-family="Helvetica,sans-Serif" font-size="10.00">reset_object_variable</text>
</a>
</g>
</g>
<!-- Node396&#45;&gt;Node414 -->
<g id="edge48_Node000396_Node000414" class="edge">
<title>Node396&#45;&gt;Node414</title>
<g id="a_edge48_Node000396_Node000414"><a xlink:title=" ">
<path fill="none" stroke="#63b8ff" d="M199.58,-188.79C210.39,-186.38 222.11,-181.88 230,-173.5 275.52,-125.16 218.53,-74.93 266,-28.5 270.34,-24.26 275.41,-20.88 280.87,-18.2"/>
<polygon fill="#63b8ff" stroke="#63b8ff" points="282.44,-21.34 290.38,-14.32 279.8,-14.86 282.44,-21.34"/>
</a>
</g>
</g>
<!-- Node417&#45;&gt;Node388 -->
<g id="edge50_Node000417_Node000388" class="edge">
<title>Node417&#45;&gt;Node388</title>
<g id="a_edge50_Node000417_Node000388"><a xlink:title=" ">
<path fill="none" stroke="#63b8ff" d="M194.47,-645.99C213.22,-638.13 241.03,-627.07 266,-619.5 275.18,-616.72 285.04,-614.14 294.67,-611.84"/>
<polygon fill="#63b8ff" stroke="#63b8ff" points="295.62,-615.21 304.57,-609.54 294.04,-608.39 295.62,-615.21"/>
</a>
</g>
</g>
<!-- Node418 -->
<g id="Node000418" class="node">
<title>Node418</title>
<g id="a_Node000418"><a xlink:href="Game_8cpp.html#a081d9916dea76b8a5c6d648db6811f06" target="_top" xlink:title=" ">
<polygon fill="white" stroke="#666666" points="437,-684 266,-684 266,-665 437,-665 437,-684"/>
<text text-anchor="middle" x="351.5" y="-672" font-family="Helvetica,sans-Serif" font-size="10.00">CM_Editor_SetLevelDimensions</text>
</a>
</g>
</g>
<!-- Node417&#45;&gt;Node418 -->
<g id="edge51_Node000417_Node000418" class="edge">
<title>Node417&#45;&gt;Node418</title>
<g id="a_edge51_Node000417_Node000418"><a xlink:title=" ">
<path fill="none" stroke="#63b8ff" d="M209.38,-659.44C223.04,-660.9 239.23,-662.62 255.69,-664.38"/>
<polygon fill="#63b8ff" stroke="#63b8ff" points="255.64,-667.89 265.95,-665.48 256.38,-660.93 255.64,-667.89"/>
</a>
</g>
</g>
<!-- Node419 -->
<g id="Node000419" class="node">
<title>Node419</title>
<g id="a_Node000419"><a xlink:href="Game_8cpp.html#aaec9e1a017e19c9d9645d315bceb4b40" target="_top" xlink:title=" ">
<polygon fill="white" stroke="#666666" points="388.5,-647 314.5,-647 314.5,-628 388.5,-628 388.5,-647"/>
<text text-anchor="middle" x="351.5" y="-635" font-family="Helvetica,sans-Serif" font-size="10.00">LoadCourse</text>
</a>
</g>
</g>
<!-- Node417&#45;&gt;Node419 -->
<g id="edge52_Node000417_Node000419" class="edge">
<title>Node417&#45;&gt;Node419</title>
<g id="a_edge52_Node000417_Node000419"><a xlink:title=" ">
<path fill="none" stroke="#63b8ff" d="M209.38,-651.77C236.89,-648.99 274.66,-645.17 304.2,-642.18"/>
<polygon fill="#63b8ff" stroke="#63b8ff" points="304.68,-645.65 314.27,-641.16 303.97,-638.69 304.68,-645.65"/>
</a>
</g>
</g>
</g>
</svg>

<g id="navigator" transform="translate(0 0)" fill="#404254">
  <rect fill="#f2f5e9" fill-opacity="0.5" stroke="#606060" stroke-width=".5" x="0" y="0" width="60" height="60"/>
  <use id="zoomplus" xlink:href="#zoomPlus" x="17" y="9" onmousedown="handleZoom(evt,'in')"/>
  <use id="zoomminus" xlink:href="#zoomMin" x="42" y="9" onmousedown="handleZoom(evt,'out')"/>
  <use id="reset" xlink:href="#resetDef" x="30" y="36" onmousedown="handleReset()"/>
   <use id="arrowup" xlink:href="#arrowUp" x="0" y="0" onmousedown="handlePan(0,-1)"/>
  <use id="arrowright" xlink:href="#arrowRight" x="0" y="0" onmousedown="handlePan(1,0)"/>
  <use id="arrowdown" xlink:href="#arrowDown" x="0" y="0" onmousedown="handlePan(0,1)"/>
  <use id="arrowleft" xlink:href="#arrowLeft" x="0" y="0" onmousedown="handlePan(-1,0)"/>
</g>
<svg viewBox="0 0 15 15" width="100%" height="30px" preserveAspectRatio="xMaxYMin meet">
 <g id="arrow_out" transform="scale(0.3 0.3)">
  <a xlink:href="code__800029B0_8c_abb524837daa3cac25aa3bca580d4db94_cgraph_org.svg" target="_base">
   <rect id="button" ry="5" rx="5" y="6" x="6" height="38" width="38"
        fill="#f2f5e9" fill-opacity="0.5" stroke="#606060" stroke-width="1.0"/>
   <path id="arrow"
     d="M 11.500037,31.436501 C 11.940474,20.09759 22.043105,11.32322 32.158766,21.979434 L 37.068811,17.246167 C 37.068811,17.246167 37.088388,32 37.088388,32 L 22.160133,31.978069 C 22.160133,31.978069 26.997745,27.140456 26.997745,27.140456 C 18.528582,18.264221 13.291696,25.230495 11.500037,31.436501 z"
     style="fill:#404040;"/>
  </a>
 </g>
</svg>

<style type='text/css'>
<![CDATA[
[data-mouse-over-selected='false'] { opacity: 0.7; }
[data-mouse-over-selected='true']  { opacity: 1.0; }
]]>
</style>
<script type="application/ecmascript"><![CDATA[
document.addEventListener('DOMContentLoaded', (event) => {
  highlightEdges();
  highlightAdjacentNodes();
});
]]></script>
</svg>
