<?xml version="1.0" encoding="UTF-8" standalone="no"?>
<!DOCTYPE svg PUBLIC "-//W3C//DTD SVG 1.1//EN"
 "http://www.w3.org/Graphics/SVG/1.1/DTD/svg11.dtd">
<!-- Generated by graphviz version 2.43.0 (0)
 -->
<!-- Title: src/engine/editor/Collision.h Pages: 1 -->
<svg width="1471pt" height="357pt"
 viewBox="0.00 0.00 1471.45 357.00" xmlns="http://www.w3.org/2000/svg" xmlns:xlink="http://www.w3.org/1999/xlink">
<g id="graph0" class="graph" transform="scale(1 1) rotate(0) translate(4 353)">
<title>src/engine/editor/Collision.h</title>
<!-- Node1 -->
<g id="Node000001" class="node">
<title>Node1</title>
<g id="a_Node000001"><a xlink:title=" ">
<polygon fill="#999999" stroke="#666666" points="713.87,-349 561.87,-349 561.87,-330 713.87,-330 713.87,-349"/>
<text text-anchor="middle" x="637.87" y="-337" font-family="Helvetica,sans-Serif" font-size="10.00">src/engine/editor/Collision.h</text>
</a>
</g>
</g>
<!-- Node2 -->
<g id="Node000002" class="node">
<title>Node2</title>
<g id="a_Node000002"><a xlink:title=" ">
<polygon fill="#e0e0e0" stroke="#999999" points="166.87,-129 28.87,-129 28.87,-110 166.87,-110 166.87,-129"/>
<text text-anchor="middle" x="97.87" y="-117" font-family="Helvetica,sans-Serif" font-size="10.00">libultraship/libultraship.h</text>
</a>
</g>
</g>
<!-- Node1&#45;&gt;Node2 -->
<g id="edge1_Node000001_Node000002" class="edge">
<title>Node1&#45;&gt;Node2</title>
<g id="a_edge1_Node000001_Node000002"><a xlink:title=" ">
<path fill="none" stroke="#63b8ff" d="M561.44,-338.7C446.97,-334.67 231.79,-309.54 112.87,-184 101.56,-172.06 98.26,-153.24 97.52,-139.18"/>
<polygon fill="#63b8ff" stroke="#63b8ff" points="101.02,-139.1 97.37,-129.15 94.02,-139.2 101.02,-139.1"/>
</a>
</g>
</g>
<!-- Node3 -->
<g id="Node000003" class="node">
<title>Node3</title>
<g id="a_Node000003"><a xlink:title=" ">
<polygon fill="#e0e0e0" stroke="#999999" points="417.87,-74 339.87,-74 339.87,-55 417.87,-55 417.87,-74"/>
<text text-anchor="middle" x="378.87" y="-62" font-family="Helvetica,sans-Serif" font-size="10.00">libultra/gbi.h</text>
</a>
</g>
</g>
<!-- Node1&#45;&gt;Node3 -->
<g id="edge2_Node000001_Node000003" class="edge">
<title>Node1&#45;&gt;Node3</title>
<g id="a_edge2_Node000001_Node000003"><a xlink:title=" ">
<path fill="none" stroke="#63b8ff" d="M561.67,-333.45C392.59,-321.21 0.87,-286.79 0.87,-230.5 0.87,-230.5 0.87,-230.5 0.87,-173.5 0.87,-144.04 -2.62,-129.02 19.87,-110 65.56,-71.38 242.06,-65.6 329.38,-65.17"/>
<polygon fill="#63b8ff" stroke="#63b8ff" points="329.58,-68.66 339.57,-65.14 329.56,-61.66 329.58,-68.66"/>
</a>
</g>
</g>
<!-- Node4 -->
<g id="Node000004" class="node">
<title>Node4</title>
<g id="a_Node000004"><a xlink:href="GameObject_8h.html" target="_top" xlink:title=" ">
<polygon fill="white" stroke="#666666" points="629.87,-239 543.87,-239 543.87,-220 629.87,-220 629.87,-239"/>
<text text-anchor="middle" x="586.87" y="-227" font-family="Helvetica,sans-Serif" font-size="10.00">GameObject.h</text>
</a>
</g>
</g>
<!-- Node1&#45;&gt;Node4 -->
<g id="edge3_Node000001_Node000004" class="edge">
<title>Node1&#45;&gt;Node4</title>
<g id="a_edge3_Node000001_Node000004"><a xlink:title=" ">
<path fill="none" stroke="#63b8ff" d="M633.7,-329.66C625.33,-311.93 606.34,-271.73 595.29,-248.32"/>
<polygon fill="#63b8ff" stroke="#63b8ff" points="598.4,-246.71 590.96,-239.16 592.07,-249.7 598.4,-246.71"/>
</a>
</g>
</g>
<!-- Node8 -->
<g id="Node000008" class="node">
<title>Node8</title>
<g id="a_Node000008"><a xlink:href="EditorMath_8h.html" target="_top" xlink:title=" ">
<polygon fill="white" stroke="#666666" points="694.37,-184 615.37,-184 615.37,-165 694.37,-165 694.37,-184"/>
<text text-anchor="middle" x="654.87" y="-172" font-family="Helvetica,sans-Serif" font-size="10.00">EditorMath.h</text>
</a>
</g>
</g>
<!-- Node1&#45;&gt;Node8 -->
<g id="edge58_Node000001_Node000008" class="edge">
<title>Node1&#45;&gt;Node8</title>
<g id="a_edge58_Node000001_Node000008"><a xlink:title=" ">
<path fill="none" stroke="#63b8ff" d="M638.79,-329.74C641.44,-304.31 649.18,-230.08 652.87,-194.69"/>
<polygon fill="#63b8ff" stroke="#63b8ff" points="656.4,-194.62 653.96,-184.31 649.44,-193.89 656.4,-194.62"/>
</a>
</g>
</g>
<!-- Node18 -->
<g id="Node000018" class="node">
<title>Node18</title>
<g id="a_Node000018"><a xlink:href="Actor_8h.html" target="_top" xlink:title=" ">
<polygon fill="white" stroke="#666666" points="1197.87,-239 1111.87,-239 1111.87,-220 1197.87,-220 1197.87,-239"/>
<text text-anchor="middle" x="1154.87" y="-227" font-family="Helvetica,sans-Serif" font-size="10.00">engine/Actor.h</text>
</a>
</g>
</g>
<!-- Node1&#45;&gt;Node18 -->
<g id="edge31_Node000001_Node000018" class="edge">
<title>Node1&#45;&gt;Node18</title>
<g id="a_edge31_Node000001_Node000018"><a xlink:title=" ">
<path fill="none" stroke="#63b8ff" d="M713.95,-338.78C795.97,-337.08 929.49,-328.52 1038.87,-294 1074.86,-282.64 1112.45,-259.7 1134.76,-244.72"/>
<polygon fill="#63b8ff" stroke="#63b8ff" points="1136.78,-247.57 1143.06,-239.04 1132.83,-241.8 1136.78,-247.57"/>
</a>
</g>
</g>
<!-- Node25 -->
<g id="Node000025" class="node">
<title>Node25</title>
<g id="a_Node000025"><a xlink:href="Object_8h.html" target="_top" xlink:title=" ">
<polygon fill="white" stroke="#666666" points="1029.37,-294 898.37,-294 898.37,-275 1029.37,-275 1029.37,-294"/>
<text text-anchor="middle" x="963.87" y="-282" font-family="Helvetica,sans-Serif" font-size="10.00">engine/objects/Object.h</text>
</a>
</g>
</g>
<!-- Node1&#45;&gt;Node25 -->
<g id="edge49_Node000001_Node000025" class="edge">
<title>Node1&#45;&gt;Node25</title>
<g id="a_edge49_Node000001_Node000025"><a xlink:title=" ">
<path fill="none" stroke="#63b8ff" d="M690.25,-329.98C747.79,-320.63 840.16,-305.61 901.43,-295.65"/>
<polygon fill="#63b8ff" stroke="#63b8ff" points="902.05,-299.1 911.36,-294.04 900.93,-292.19 902.05,-299.1"/>
</a>
</g>
</g>
<!-- Node4&#45;&gt;Node2 -->
<g id="edge4_Node000004_Node000002" class="edge">
<title>Node4&#45;&gt;Node2</title>
<g id="a_edge4_Node000004_Node000002"><a xlink:title=" ">
<path fill="none" stroke="#63b8ff" d="M543.84,-229.2C444.15,-230.06 200.79,-227.51 133.87,-184 117.97,-173.66 108.36,-153.71 103.12,-138.91"/>
<polygon fill="#63b8ff" stroke="#63b8ff" points="106.41,-137.73 100.05,-129.26 99.74,-139.86 106.41,-137.73"/>
</a>
</g>
</g>
<!-- Node4&#45;&gt;Node3 -->
<g id="edge5_Node000004_Node000003" class="edge">
<title>Node4&#45;&gt;Node3</title>
<g id="a_edge5_Node000004_Node000003"><a xlink:title=" ">
<path fill="none" stroke="#63b8ff" d="M549.95,-219.93C457.8,-198.37 224.35,-142.64 213.87,-129 181.17,-86.43 270.15,-72.39 329.82,-67.76"/>
<polygon fill="#63b8ff" stroke="#63b8ff" points="330.13,-71.25 339.86,-67.05 329.63,-64.27 330.13,-71.25"/>
</a>
</g>
</g>
<!-- Node5 -->
<g id="Node000005" class="node">
<title>Node5</title>
<g id="a_Node000005"><a xlink:title=" ">
<polygon fill="#e0e0e0" stroke="#999999" points="673.87,-19 583.87,-19 583.87,0 673.87,0 673.87,-19"/>
<text text-anchor="middle" x="628.87" y="-7" font-family="Helvetica,sans-Serif" font-size="10.00">libultra/types.h</text>
</a>
</g>
</g>
<!-- Node4&#45;&gt;Node5 -->
<g id="edge6_Node000004_Node000005" class="edge">
<title>Node4&#45;&gt;Node5</title>
<g id="a_edge6_Node000004_Node000005"><a xlink:title=" ">
<path fill="none" stroke="#63b8ff" d="M543.85,-226.87C442.73,-222.64 192.47,-209.84 112.87,-184 62.63,-167.69 -14.07,-150.47 19.87,-110 90.24,-26.1 436.56,-12.75 573.25,-10.77"/>
<polygon fill="#63b8ff" stroke="#63b8ff" points="573.54,-14.27 583.49,-10.64 573.45,-7.27 573.54,-14.27"/>
</a>
</g>
</g>
<!-- Node6 -->
<g id="Node000006" class="node">
<title>Node6</title>
<g id="a_Node000006"><a xlink:href="CoreMath_8h.html" target="_top" xlink:title=" ">
<polygon fill="white" stroke="#666666" points="804.87,-129 722.87,-129 722.87,-110 804.87,-110 804.87,-129"/>
<text text-anchor="middle" x="763.87" y="-117" font-family="Helvetica,sans-Serif" font-size="10.00">../CoreMath.h</text>
</a>
</g>
</g>
<!-- Node4&#45;&gt;Node6 -->
<g id="edge7_Node000004_Node000006" class="edge">
<title>Node4&#45;&gt;Node6</title>
<g id="a_edge7_Node000004_Node000006"><a xlink:title=" ">
<path fill="none" stroke="#63b8ff" d="M621.06,-219.93C645.48,-212.78 678.39,-201.01 703.87,-184 722.92,-171.29 740.36,-151.49 751.47,-137.38"/>
<polygon fill="#63b8ff" stroke="#63b8ff" points="754.54,-139.14 757.81,-129.07 748.97,-134.9 754.54,-139.14"/>
</a>
</g>
</g>
<!-- Node4&#45;&gt;Node8 -->
<g id="edge9_Node000004_Node000008" class="edge">
<title>Node4&#45;&gt;Node8</title>
<g id="a_edge9_Node000004_Node000008"><a xlink:title=" ">
<path fill="none" stroke="#63b8ff" d="M592.69,-219.98C601.25,-211.92 616.67,-199.65 630.13,-190.03"/>
<polygon fill="#63b8ff" stroke="#63b8ff" points="632.37,-192.74 638.6,-184.17 628.39,-186.98 632.37,-192.74"/>
</a>
</g>
</g>
<!-- Node9 -->
<g id="Node000009" class="node">
<title>Node9</title>
<g id="a_Node000009"><a xlink:title=" ">
<polygon fill="#e0e0e0" stroke="#999999" points="704.37,-129 657.37,-129 657.37,-110 704.37,-110 704.37,-129"/>
<text text-anchor="middle" x="680.87" y="-117" font-family="Helvetica,sans-Serif" font-size="10.00">vector</text>
</a>
</g>
</g>
<!-- Node4&#45;&gt;Node9 -->
<g id="edge20_Node000004_Node000009" class="edge">
<title>Node4&#45;&gt;Node9</title>
<g id="a_edge20_Node000004_Node000009"><a xlink:title=" ">
<path fill="none" stroke="#63b8ff" d="M587.66,-219.79C589.24,-206.65 593.86,-181.52 606.87,-165 617.76,-151.19 634.2,-140.69 648.83,-133.37"/>
<polygon fill="#63b8ff" stroke="#63b8ff" points="650.54,-136.43 658.1,-129.01 647.56,-130.1 650.54,-136.43"/>
</a>
</g>
</g>
<!-- Node12 -->
<g id="Node000012" class="node">
<title>Node12</title>
<g id="a_Node000012"><a xlink:href="common__structs_8h.html" target="_top" xlink:title=" ">
<polygon fill="white" stroke="#666666" points="1194.37,-129 1087.37,-129 1087.37,-110 1194.37,-110 1194.37,-129"/>
<text text-anchor="middle" x="1140.87" y="-117" font-family="Helvetica,sans-Serif" font-size="10.00">common_structs.h</text>
</a>
</g>
</g>
<!-- Node4&#45;&gt;Node12 -->
<g id="edge30_Node000004_Node000012" class="edge">
<title>Node4&#45;&gt;Node12</title>
<g id="a_edge30_Node000004_Node000012"><a xlink:title=" ">
<path fill="none" stroke="#63b8ff" d="M629.91,-226.95C701.71,-223.6 850.07,-213.45 971.87,-184 998.89,-177.47 1069.6,-149.5 1110.49,-132.94"/>
<polygon fill="#63b8ff" stroke="#63b8ff" points="1112.01,-136.1 1119.95,-129.1 1109.37,-129.62 1112.01,-136.1"/>
</a>
</g>
</g>
<!-- Node13 -->
<g id="Node000013" class="node">
<title>Node13</title>
<g id="a_Node000013"><a xlink:href="SpawnParams_8h.html" target="_top" xlink:title=" ">
<polygon fill="white" stroke="#666666" points="962.87,-184 832.87,-184 832.87,-165 962.87,-165 962.87,-184"/>
<text text-anchor="middle" x="897.87" y="-172" font-family="Helvetica,sans-Serif" font-size="10.00">engine/SpawnParams.h</text>
</a>
</g>
</g>
<!-- Node4&#45;&gt;Node13 -->
<g id="edge21_Node000004_Node000013" class="edge">
<title>Node4&#45;&gt;Node13</title>
<g id="a_edge21_Node000004_Node000013"><a xlink:title=" ">
<path fill="none" stroke="#63b8ff" d="M630.12,-221.13C684.19,-211.92 777.03,-196.09 837.94,-185.71"/>
<polygon fill="#63b8ff" stroke="#63b8ff" points="838.53,-189.16 847.8,-184.03 837.35,-182.26 838.53,-189.16"/>
</a>
</g>
</g>
<!-- Node17 -->
<g id="Node000017" class="node">
<title>Node17</title>
<g id="a_Node000017"><a xlink:href="DefaultProperties_8h.html" target="_top" xlink:title=" ">
<polygon fill="white" stroke="#666666" points="306.37,-184 143.37,-184 143.37,-165 306.37,-165 306.37,-184"/>
<text text-anchor="middle" x="224.87" y="-172" font-family="Helvetica,sans-Serif" font-size="10.00">src/port/ui/DefaultProperties.h</text>
</a>
</g>
</g>
<!-- Node4&#45;&gt;Node17 -->
<g id="edge28_Node000004_Node000017" class="edge">
<title>Node4&#45;&gt;Node17</title>
<g id="a_edge28_Node000004_Node000017"><a xlink:title=" ">
<path fill="none" stroke="#63b8ff" d="M543.57,-222.16C481.55,-213.08 366.83,-196.28 293.27,-185.51"/>
<polygon fill="#63b8ff" stroke="#63b8ff" points="293.58,-182.02 283.18,-184.04 292.56,-188.95 293.58,-182.02"/>
</a>
</g>
</g>
<!-- Node7 -->
<g id="Node000007" class="node">
<title>Node7</title>
<g id="a_Node000007"><a xlink:title=" ">
<polygon fill="#e0e0e0" stroke="#999999" points="1333.87,-74 1253.87,-74 1253.87,-55 1333.87,-55 1333.87,-74"/>
<text text-anchor="middle" x="1293.87" y="-62" font-family="Helvetica,sans-Serif" font-size="10.00">libultraship.h</text>
</a>
</g>
</g>
<!-- Node6&#45;&gt;Node7 -->
<g id="edge8_Node000006_Node000007" class="edge">
<title>Node6&#45;&gt;Node7</title>
<g id="a_edge8_Node000006_Node000007"><a xlink:title=" ">
<path fill="none" stroke="#63b8ff" d="M805.04,-111.25C808.02,-110.8 810.99,-110.38 813.87,-110 969.96,-89.53 1155.82,-75.11 1243.43,-68.91"/>
<polygon fill="#63b8ff" stroke="#63b8ff" points="1243.89,-72.39 1253.62,-68.19 1243.4,-65.4 1243.89,-72.39"/>
</a>
</g>
</g>
<!-- Node8&#45;&gt;Node2 -->
<g id="edge10_Node000008_Node000002" class="edge">
<title>Node8&#45;&gt;Node2</title>
<g id="a_edge10_Node000008_Node000002"><a xlink:title=" ">
<path fill="none" stroke="#63b8ff" d="M615.26,-169.73C524.22,-161.07 298.6,-139.6 177.58,-128.08"/>
<polygon fill="#63b8ff" stroke="#63b8ff" points="177.56,-124.57 167.27,-127.1 176.9,-131.54 177.56,-124.57"/>
</a>
</g>
</g>
<!-- Node8&#45;&gt;Node3 -->
<g id="edge11_Node000008_Node000003" class="edge">
<title>Node8&#45;&gt;Node3</title>
<g id="a_edge11_Node000008_Node000003"><a xlink:title=" ">
<path fill="none" stroke="#63b8ff" d="M646.04,-164.63C631.74,-150.8 602.08,-124.21 571.87,-110 525.79,-88.31 468.43,-76.83 428.27,-70.99"/>
<polygon fill="#63b8ff" stroke="#63b8ff" points="428.57,-67.5 418.19,-69.6 427.61,-74.44 428.57,-67.5"/>
</a>
</g>
</g>
<!-- Node8&#45;&gt;Node4 -->
<g id="edge15_Node000008_Node000004" class="edge">
<title>Node8&#45;&gt;Node4</title>
<g id="a_edge15_Node000008_Node000004"><a xlink:title=" ">
<path fill="none" stroke="#63b8ff" d="M648.9,-184.17C640.24,-192.29 624.79,-204.57 611.36,-214.15"/>
<polygon fill="#63b8ff" stroke="#63b8ff" points="609.15,-211.42 602.91,-219.98 613.13,-217.18 609.15,-211.42"/>
</a>
</g>
</g>
<!-- Node8&#45;&gt;Node5 -->
<g id="edge12_Node000008_Node000005" class="edge">
<title>Node8&#45;&gt;Node5</title>
<g id="a_edge12_Node000008_Node000005"><a xlink:title=" ">
<path fill="none" stroke="#63b8ff" d="M653.48,-164.74C649.4,-139.2 637.48,-64.43 631.86,-29.23"/>
<polygon fill="#63b8ff" stroke="#63b8ff" points="635.31,-28.63 630.28,-19.31 628.4,-29.73 635.31,-28.63"/>
</a>
</g>
</g>
<!-- Node8&#45;&gt;Node6 -->
<g id="edge13_Node000008_Node000006" class="edge">
<title>Node8&#45;&gt;Node6</title>
<g id="a_edge13_Node000008_Node000006"><a xlink:title=" ">
<path fill="none" stroke="#63b8ff" d="M672.39,-164.98C689.84,-156.5 716.88,-143.35 737.05,-133.54"/>
<polygon fill="#63b8ff" stroke="#63b8ff" points="738.58,-136.69 746.04,-129.17 735.52,-130.4 738.58,-136.69"/>
</a>
</g>
</g>
<!-- Node8&#45;&gt;Node9 -->
<g id="edge14_Node000008_Node000009" class="edge">
<title>Node8&#45;&gt;Node9</title>
<g id="a_edge14_Node000008_Node000009"><a xlink:title=" ">
<path fill="none" stroke="#63b8ff" d="M659.17,-164.75C662.69,-157.57 667.79,-147.18 672.16,-138.27"/>
<polygon fill="#63b8ff" stroke="#63b8ff" points="675.4,-139.61 676.66,-129.09 669.11,-136.53 675.4,-139.61"/>
</a>
</g>
</g>
<!-- Node10 -->
<g id="Node000010" class="node">
<title>Node10</title>
<g id="a_Node000010"><a xlink:title=" ">
<polygon fill="#e0e0e0" stroke="#999999" points="392.87,-129 222.87,-129 222.87,-110 392.87,-110 392.87,-129"/>
<text text-anchor="middle" x="307.87" y="-117" font-family="Helvetica,sans-Serif" font-size="10.00">graphic/Fast3D/Fast3dWindow.h</text>
</a>
</g>
</g>
<!-- Node8&#45;&gt;Node10 -->
<g id="edge16_Node000008_Node000010" class="edge">
<title>Node8&#45;&gt;Node10</title>
<g id="a_edge16_Node000008_Node000010"><a xlink:title=" ">
<path fill="none" stroke="#63b8ff" d="M615.07,-167.42C556.19,-158.43 445.2,-141.47 373.98,-130.6"/>
<polygon fill="#63b8ff" stroke="#63b8ff" points="374.19,-127.09 363.78,-129.04 373.13,-134.01 374.19,-127.09"/>
</a>
</g>
</g>
<!-- Node11 -->
<g id="Node000011" class="node">
<title>Node11</title>
<g id="a_Node000011"><a xlink:title=" ">
<polygon fill="#e0e0e0" stroke="#999999" points="562.87,-129 410.87,-129 410.87,-110 562.87,-110 562.87,-129"/>
<text text-anchor="middle" x="486.87" y="-117" font-family="Helvetica,sans-Serif" font-size="10.00">graphic/Fast3D/interpreter.h</text>
</a>
</g>
</g>
<!-- Node8&#45;&gt;Node11 -->
<g id="edge17_Node000008_Node000011" class="edge">
<title>Node8&#45;&gt;Node11</title>
<g id="a_edge17_Node000008_Node000011"><a xlink:title=" ">
<path fill="none" stroke="#63b8ff" d="M627.88,-164.98C599.68,-156.09 555.24,-142.07 523.79,-132.15"/>
<polygon fill="#63b8ff" stroke="#63b8ff" points="524.67,-128.75 514.08,-129.08 522.56,-135.43 524.67,-128.75"/>
</a>
</g>
</g>
<!-- Node8&#45;&gt;Node12 -->
<g id="edge18_Node000008_Node000012" class="edge">
<title>Node8&#45;&gt;Node12</title>
<g id="a_edge18_Node000008_Node000012"><a xlink:title=" ">
<path fill="none" stroke="#63b8ff" d="M694.57,-169.72C767.87,-162.64 929.63,-146.64 1077.13,-129.06"/>
<polygon fill="#63b8ff" stroke="#63b8ff" points="1077.76,-132.5 1087.27,-127.84 1076.93,-125.55 1077.76,-132.5"/>
</a>
</g>
</g>
<!-- Node12&#45;&gt;Node7 -->
<g id="edge19_Node000012_Node000007" class="edge">
<title>Node12&#45;&gt;Node7</title>
<g id="a_edge19_Node000012_Node000007"><a xlink:title=" ">
<path fill="none" stroke="#63b8ff" d="M1165.46,-109.98C1190.92,-101.16 1230.92,-87.31 1259.51,-77.41"/>
<polygon fill="#63b8ff" stroke="#63b8ff" points="1260.8,-80.66 1269.1,-74.08 1258.51,-74.05 1260.8,-80.66"/>
</a>
</g>
</g>
<!-- Node13&#45;&gt;Node6 -->
<g id="edge26_Node000013_Node000006" class="edge">
<title>Node13&#45;&gt;Node6</title>
<g id="a_edge26_Node000013_Node000006"><a xlink:title=" ">
<path fill="none" stroke="#63b8ff" d="M876.35,-164.98C854.4,-156.3 820.13,-142.75 795.19,-132.88"/>
<polygon fill="#63b8ff" stroke="#63b8ff" points="796.38,-129.59 785.8,-129.17 793.81,-136.1 796.38,-129.59"/>
</a>
</g>
</g>
<!-- Node13&#45;&gt;Node9 -->
<g id="edge22_Node000013_Node000009" class="edge">
<title>Node13&#45;&gt;Node9</title>
<g id="a_edge22_Node000013_Node000009"><a xlink:title=" ">
<path fill="none" stroke="#63b8ff" d="M861.87,-164.96C826.78,-156.6 771.66,-143.37 714.58,-129.15"/>
<polygon fill="#63b8ff" stroke="#63b8ff" points="715.21,-125.7 704.66,-126.67 713.51,-132.49 715.21,-125.7"/>
</a>
</g>
</g>
<!-- Node13&#45;&gt;Node12 -->
<g id="edge27_Node000013_Node000012" class="edge">
<title>Node13&#45;&gt;Node12</title>
<g id="a_edge27_Node000013_Node000012"><a xlink:title=" ">
<path fill="none" stroke="#63b8ff" d="M936.92,-164.98C978.95,-155.82 1045.91,-141.21 1091.56,-131.26"/>
<polygon fill="#63b8ff" stroke="#63b8ff" points="1092.5,-134.63 1101.53,-129.08 1091.01,-127.79 1092.5,-134.63"/>
</a>
</g>
</g>
<!-- Node14 -->
<g id="Node000014" class="node">
<title>Node14</title>
<g id="a_Node000014"><a xlink:title=" ">
<polygon fill="#e0e0e0" stroke="#999999" points="1068.87,-129 1012.87,-129 1012.87,-110 1068.87,-110 1068.87,-129"/>
<text text-anchor="middle" x="1040.87" y="-117" font-family="Helvetica,sans-Serif" font-size="10.00">optional</text>
</a>
</g>
</g>
<!-- Node13&#45;&gt;Node14 -->
<g id="edge23_Node000013_Node000014" class="edge">
<title>Node13&#45;&gt;Node14</title>
<g id="a_edge23_Node000013_Node000014"><a xlink:title=" ">
<path fill="none" stroke="#63b8ff" d="M920.85,-164.98C944.37,-156.27 981.16,-142.63 1007.81,-132.75"/>
<polygon fill="#63b8ff" stroke="#63b8ff" points="1009.32,-135.93 1017.48,-129.17 1006.89,-129.36 1009.32,-135.93"/>
</a>
</g>
</g>
<!-- Node15 -->
<g id="Node000015" class="node">
<title>Node15</title>
<g id="a_Node000015"><a xlink:title=" ">
<polygon fill="#e0e0e0" stroke="#999999" points="866.87,-129 822.87,-129 822.87,-110 866.87,-110 866.87,-129"/>
<text text-anchor="middle" x="844.87" y="-117" font-family="Helvetica,sans-Serif" font-size="10.00">string</text>
</a>
</g>
</g>
<!-- Node13&#45;&gt;Node15 -->
<g id="edge24_Node000013_Node000015" class="edge">
<title>Node13&#45;&gt;Node15</title>
<g id="a_edge24_Node000013_Node000015"><a xlink:title=" ">
<path fill="none" stroke="#63b8ff" d="M889.12,-164.75C881.41,-157.03 869.97,-145.6 860.66,-136.28"/>
<polygon fill="#63b8ff" stroke="#63b8ff" points="863.01,-133.69 853.46,-129.09 858.06,-138.64 863.01,-133.69"/>
</a>
</g>
</g>
<!-- Node16 -->
<g id="Node000016" class="node">
<title>Node16</title>
<g id="a_Node000016"><a xlink:title=" ">
<polygon fill="#e0e0e0" stroke="#999999" points="994.87,-129 884.87,-129 884.87,-110 994.87,-110 994.87,-129"/>
<text text-anchor="middle" x="939.87" y="-117" font-family="Helvetica,sans-Serif" font-size="10.00">nlohmann/json.hpp</text>
</a>
</g>
</g>
<!-- Node13&#45;&gt;Node16 -->
<g id="edge25_Node000013_Node000016" class="edge">
<title>Node13&#45;&gt;Node16</title>
<g id="a_edge25_Node000013_Node000016"><a xlink:title=" ">
<path fill="none" stroke="#63b8ff" d="M904.81,-164.75C910.74,-157.26 919.45,-146.28 926.7,-137.13"/>
<polygon fill="#63b8ff" stroke="#63b8ff" points="929.6,-139.1 933.07,-129.09 924.11,-134.75 929.6,-139.1"/>
</a>
</g>
</g>
<!-- Node17&#45;&gt;Node2 -->
<g id="edge29_Node000017_Node000002" class="edge">
<title>Node17&#45;&gt;Node2</title>
<g id="a_edge29_Node000017_Node000002"><a xlink:title=" ">
<path fill="none" stroke="#63b8ff" d="M204.47,-164.98C183.86,-156.38 151.77,-142.99 128.18,-133.15"/>
<polygon fill="#63b8ff" stroke="#63b8ff" points="129.23,-129.79 118.65,-129.17 126.53,-136.25 129.23,-129.79"/>
</a>
</g>
</g>
<!-- Node18&#45;&gt;Node7 -->
<g id="edge32_Node000018_Node000007" class="edge">
<title>Node18&#45;&gt;Node7</title>
<g id="a_edge32_Node000018_Node000007"><a xlink:title=" ">
<path fill="none" stroke="#63b8ff" d="M1198.06,-221.82C1238.5,-214.58 1294.63,-201.64 1307.87,-184 1330.06,-154.44 1314.52,-108.52 1303.07,-83.41"/>
<polygon fill="#63b8ff" stroke="#63b8ff" points="1306.17,-81.79 1298.67,-74.31 1299.87,-84.84 1306.17,-81.79"/>
</a>
</g>
</g>
<!-- Node18&#45;&gt;Node8 -->
<g id="edge34_Node000018_Node000008" class="edge">
<title>Node18&#45;&gt;Node8</title>
<g id="a_edge34_Node000018_Node000008"><a xlink:title=" ">
<path fill="none" stroke="#63b8ff" d="M1111.81,-223.94C1019.38,-214.14 802.45,-191.14 704.46,-180.76"/>
<polygon fill="#63b8ff" stroke="#63b8ff" points="704.83,-177.28 694.52,-179.7 704.09,-184.24 704.83,-177.28"/>
</a>
</g>
</g>
<!-- Node18&#45;&gt;Node12 -->
<g id="edge48_Node000018_Node000012" class="edge">
<title>Node18&#45;&gt;Node12</title>
<g id="a_edge48_Node000018_Node000012"><a xlink:title=" ">
<path fill="none" stroke="#63b8ff" d="M1153.73,-219.66C1151.46,-202.17 1146.36,-162.8 1143.31,-139.27"/>
<polygon fill="#63b8ff" stroke="#63b8ff" points="1146.75,-138.63 1142,-129.16 1139.81,-139.53 1146.75,-138.63"/>
</a>
</g>
</g>
<!-- Node18&#45;&gt;Node13 -->
<g id="edge33_Node000018_Node000013" class="edge">
<title>Node18&#45;&gt;Node13</title>
<g id="a_edge33_Node000018_Node000013"><a xlink:title=" ">
<path fill="none" stroke="#63b8ff" d="M1113.58,-219.98C1068.94,-210.78 997.71,-196.09 949.43,-186.13"/>
<polygon fill="#63b8ff" stroke="#63b8ff" points="949.99,-182.67 939.49,-184.08 948.58,-189.53 949.99,-182.67"/>
</a>
</g>
</g>
<!-- Node19 -->
<g id="Node000019" class="node">
<title>Node19</title>
<g id="a_Node000019"><a xlink:href="macros_8h.html" target="_top" xlink:title=" ">
<polygon fill="white" stroke="#666666" points="1459.87,-184 1397.87,-184 1397.87,-165 1459.87,-165 1459.87,-184"/>
<text text-anchor="middle" x="1428.87" y="-172" font-family="Helvetica,sans-Serif" font-size="10.00">macros.h</text>
</a>
</g>
</g>
<!-- Node18&#45;&gt;Node19 -->
<g id="edge35_Node000018_Node000019" class="edge">
<title>Node18&#45;&gt;Node19</title>
<g id="a_edge35_Node000018_Node000019"><a xlink:title=" ">
<path fill="none" stroke="#63b8ff" d="M1197.99,-220.16C1249.87,-210.12 1336.38,-193.39 1387.48,-183.51"/>
<polygon fill="#63b8ff" stroke="#63b8ff" points="1388.37,-186.9 1397.52,-181.57 1387.04,-180.03 1388.37,-186.9"/>
</a>
</g>
</g>
<!-- Node21 -->
<g id="Node000021" class="node">
<title>Node21</title>
<g id="a_Node000021"><a xlink:href="main_8h.html" target="_top" xlink:title=" ">
<polygon fill="white" stroke="#666666" points="1218.87,-184 1168.87,-184 1168.87,-165 1218.87,-165 1218.87,-184"/>
<text text-anchor="middle" x="1193.87" y="-172" font-family="Helvetica,sans-Serif" font-size="10.00">main.h</text>
</a>
</g>
</g>
<!-- Node18&#45;&gt;Node21 -->
<g id="edge38_Node000018_Node000021" class="edge">
<title>Node18&#45;&gt;Node21</title>
<g id="a_edge38_Node000018_Node000021"><a xlink:title=" ">
<path fill="none" stroke="#63b8ff" d="M1161.31,-219.75C1166.77,-212.34 1174.74,-201.5 1181.43,-192.41"/>
<polygon fill="#63b8ff" stroke="#63b8ff" points="1184.45,-194.22 1187.55,-184.09 1178.81,-190.07 1184.45,-194.22"/>
</a>
</g>
</g>
<!-- Node24 -->
<g id="Node000024" class="node">
<title>Node24</title>
<g id="a_Node000024"><a xlink:href="camera_8h.html" target="_top" xlink:title=" ">
<polygon fill="white" stroke="#666666" points="1298.87,-184 1236.87,-184 1236.87,-165 1298.87,-165 1298.87,-184"/>
<text text-anchor="middle" x="1267.87" y="-172" font-family="Helvetica,sans-Serif" font-size="10.00">camera.h</text>
</a>
</g>
</g>
<!-- Node18&#45;&gt;Node24 -->
<g id="edge45_Node000018_Node000024" class="edge">
<title>Node18&#45;&gt;Node24</title>
<g id="a_edge45_Node000018_Node000024"><a xlink:title=" ">
<path fill="none" stroke="#63b8ff" d="M1173.03,-219.98C1191.13,-211.5 1219.16,-198.35 1240.06,-188.54"/>
<polygon fill="#63b8ff" stroke="#63b8ff" points="1241.82,-191.59 1249.39,-184.17 1238.85,-185.25 1241.82,-191.59"/>
</a>
</g>
</g>
<!-- Node19&#45;&gt;Node7 -->
<g id="edge37_Node000019_Node000007" class="edge">
<title>Node19&#45;&gt;Node7</title>
<g id="a_edge37_Node000019_Node000007"><a xlink:title=" ">
<path fill="none" stroke="#63b8ff" d="M1438.77,-164.64C1451.97,-151.74 1472.22,-127.42 1458.87,-110 1444.89,-91.74 1387.3,-79.27 1344.07,-72.28"/>
<polygon fill="#63b8ff" stroke="#63b8ff" points="1344.4,-68.79 1333.98,-70.71 1343.32,-75.71 1344.4,-68.79"/>
</a>
</g>
</g>
<!-- Node20 -->
<g id="Node000020" class="node">
<title>Node20</title>
<g id="a_Node000020"><a xlink:href="math_8h.html" target="_top" xlink:title=" ">
<polygon fill="white" stroke="#666666" points="1449.37,-129 1398.37,-129 1398.37,-110 1449.37,-110 1449.37,-129"/>
<text text-anchor="middle" x="1423.87" y="-117" font-family="Helvetica,sans-Serif" font-size="10.00">math.h</text>
</a>
</g>
</g>
<!-- Node19&#45;&gt;Node20 -->
<g id="edge36_Node000019_Node000020" class="edge">
<title>Node19&#45;&gt;Node20</title>
<g id="a_edge36_Node000019_Node000020"><a xlink:title=" ">
<path fill="none" stroke="#63b8ff" d="M1428.05,-164.75C1427.39,-157.8 1426.45,-147.85 1425.63,-139.13"/>
<polygon fill="#63b8ff" stroke="#63b8ff" points="1429.11,-138.72 1424.69,-129.09 1422.14,-139.37 1429.11,-138.72"/>
</a>
</g>
</g>
<!-- Node21&#45;&gt;Node12 -->
<g id="edge44_Node000021_Node000012" class="edge">
<title>Node21&#45;&gt;Node12</title>
<g id="a_edge44_Node000021_Node000012"><a xlink:title=" ">
<path fill="none" stroke="#63b8ff" d="M1185.12,-164.75C1177.41,-157.03 1165.97,-145.6 1156.66,-136.28"/>
<polygon fill="#63b8ff" stroke="#63b8ff" points="1159.01,-133.69 1149.46,-129.09 1154.06,-138.64 1159.01,-133.69"/>
</a>
</g>
</g>
<!-- Node22 -->
<g id="Node000022" class="node">
<title>Node22</title>
<g id="a_Node000022"><a xlink:href="mk64_8h.html" target="_top" xlink:title=" ">
<polygon fill="white" stroke="#666666" points="1265.37,-129 1212.37,-129 1212.37,-110 1265.37,-110 1265.37,-129"/>
<text text-anchor="middle" x="1238.87" y="-117" font-family="Helvetica,sans-Serif" font-size="10.00">mk64.h</text>
</a>
</g>
</g>
<!-- Node21&#45;&gt;Node22 -->
<g id="edge39_Node000021_Node000022" class="edge">
<title>Node21&#45;&gt;Node22</title>
<g id="a_edge39_Node000021_Node000022"><a xlink:title=" ">
<path fill="none" stroke="#63b8ff" d="M1201.31,-164.75C1207.73,-157.18 1217.18,-146.05 1225,-136.84"/>
<polygon fill="#63b8ff" stroke="#63b8ff" points="1227.78,-138.98 1231.58,-129.09 1222.44,-134.45 1227.78,-138.98"/>
</a>
</g>
</g>
<!-- Node22&#45;&gt;Node3 -->
<g id="edge43_Node000022_Node000003" class="edge">
<title>Node22&#45;&gt;Node3</title>
<g id="a_edge43_Node000022_Node000003"><a xlink:title=" ">
<path fill="none" stroke="#63b8ff" d="M1212.22,-111.49C1209.42,-110.91 1206.6,-110.4 1203.87,-110 912.29,-67.1 557.3,-64.4 428.53,-65"/>
<polygon fill="#63b8ff" stroke="#63b8ff" points="428.19,-61.5 418.21,-65.06 428.23,-68.5 428.19,-61.5"/>
</a>
</g>
</g>
<!-- Node22&#45;&gt;Node7 -->
<g id="edge40_Node000022_Node000007" class="edge">
<title>Node22&#45;&gt;Node7</title>
<g id="a_edge40_Node000022_Node000007"><a xlink:title=" ">
<path fill="none" stroke="#63b8ff" d="M1247.96,-109.75C1255.97,-102.03 1267.83,-90.6 1277.5,-81.28"/>
<polygon fill="#63b8ff" stroke="#63b8ff" points="1280.19,-83.55 1284.96,-74.09 1275.33,-78.51 1280.19,-83.55"/>
</a>
</g>
</g>
<!-- Node23 -->
<g id="Node000023" class="node">
<title>Node23</title>
<g id="a_Node000023"><a xlink:href="string_8h.html" target="_top" xlink:title=" ">
<polygon fill="white" stroke="#666666" points="973.37,-74 920.37,-74 920.37,-55 973.37,-55 973.37,-74"/>
<text text-anchor="middle" x="946.87" y="-62" font-family="Helvetica,sans-Serif" font-size="10.00">string.h</text>
</a>
</g>
</g>
<!-- Node22&#45;&gt;Node23 -->
<g id="edge41_Node000022_Node000023" class="edge">
<title>Node22&#45;&gt;Node23</title>
<g id="a_edge41_Node000022_Node000023"><a xlink:title=" ">
<path fill="none" stroke="#63b8ff" d="M1212.16,-111.82C1209.37,-111.18 1206.57,-110.56 1203.87,-110 1125.85,-93.79 1033.65,-78.84 983.64,-71.07"/>
<polygon fill="#63b8ff" stroke="#63b8ff" points="984.04,-67.59 973.62,-69.53 982.97,-74.51 984.04,-67.59"/>
</a>
</g>
</g>
<!-- Node23&#45;&gt;Node5 -->
<g id="edge42_Node000023_Node000005" class="edge">
<title>Node23&#45;&gt;Node5</title>
<g id="a_edge42_Node000023_Node000005"><a xlink:title=" ">
<path fill="none" stroke="#63b8ff" d="M920.31,-59.07C868.56,-50.45 753.26,-31.23 684.21,-19.72"/>
<polygon fill="#63b8ff" stroke="#63b8ff" points="684.39,-16.2 673.95,-18.01 683.24,-23.11 684.39,-16.2"/>
</a>
</g>
</g>
<!-- Node24&#45;&gt;Node7 -->
<g id="edge46_Node000024_Node000007" class="edge">
<title>Node24&#45;&gt;Node7</title>
<g id="a_edge46_Node000024_Node000007"><a xlink:title=" ">
<path fill="none" stroke="#63b8ff" d="M1270,-164.66C1274.23,-147.09 1283.78,-107.45 1289.43,-83.95"/>
<polygon fill="#63b8ff" stroke="#63b8ff" points="1292.85,-84.7 1291.79,-74.16 1286.05,-83.06 1292.85,-84.7"/>
</a>
</g>
</g>
<!-- Node24&#45;&gt;Node12 -->
<g id="edge47_Node000024_Node000012" class="edge">
<title>Node24&#45;&gt;Node12</title>
<g id="a_edge47_Node000024_Node000012"><a xlink:title=" ">
<path fill="none" stroke="#63b8ff" d="M1247.47,-164.98C1226.86,-156.38 1194.77,-142.99 1171.18,-133.15"/>
<polygon fill="#63b8ff" stroke="#63b8ff" points="1172.23,-129.79 1161.65,-129.17 1169.53,-136.25 1172.23,-129.79"/>
</a>
</g>
</g>
<!-- Node25&#45;&gt;Node7 -->
<g id="edge50_Node000025_Node000007" class="edge">
<title>Node25&#45;&gt;Node7</title>
<g id="a_edge50_Node000025_Node000007"><a xlink:title=" ">
<path fill="none" stroke="#63b8ff" d="M1029.44,-279.44C1085,-274.42 1166.04,-263.32 1232.87,-239 1278,-222.58 1300.96,-225.05 1325.87,-184 1342.96,-155.86 1339.64,-141.11 1328.87,-110 1325.2,-99.38 1317.83,-89.38 1310.8,-81.55"/>
<polygon fill="#63b8ff" stroke="#63b8ff" points="1313.22,-79.02 1303.76,-74.25 1308.18,-83.88 1313.22,-79.02"/>
</a>
</g>
</g>
<!-- Node25&#45;&gt;Node8 -->
<g id="edge52_Node000025_Node000008" class="edge">
<title>Node25&#45;&gt;Node8</title>
<g id="a_edge52_Node000025_Node000008"><a xlink:title=" ">
<path fill="none" stroke="#63b8ff" d="M939.37,-274.94C884.49,-255.76 751.63,-209.32 688.84,-187.37"/>
<polygon fill="#63b8ff" stroke="#63b8ff" points="689.98,-184.06 679.38,-184.07 687.67,-190.67 689.98,-184.06"/>
</a>
</g>
</g>
<!-- Node25&#45;&gt;Node13 -->
<g id="edge51_Node000025_Node000013" class="edge">
<title>Node25&#45;&gt;Node13</title>
<g id="a_edge51_Node000025_Node000013"><a xlink:title=" ">
<path fill="none" stroke="#63b8ff" d="M958.47,-274.66C947.54,-256.77 922.63,-216 908.38,-192.69"/>
<polygon fill="#63b8ff" stroke="#63b8ff" points="911.37,-190.87 903.17,-184.16 905.39,-194.52 911.37,-190.87"/>
</a>
</g>
</g>
<!-- Node25&#45;&gt;Node24 -->
<g id="edge53_Node000025_Node000024" class="edge">
<title>Node25&#45;&gt;Node24</title>
<g id="a_edge53_Node000025_Node000024"><a xlink:title=" ">
<path fill="none" stroke="#63b8ff" d="M1029.63,-282.32C1080.68,-278.92 1151.82,-268.6 1206.87,-239 1227.61,-227.85 1245.48,-207.13 1256.42,-192.39"/>
<polygon fill="#63b8ff" stroke="#63b8ff" points="1259.36,-194.3 1262.3,-184.13 1253.65,-190.24 1259.36,-194.3"/>
</a>
</g>
</g>
<!-- Node26 -->
<g id="Node000026" class="node">
<title>Node26</title>
<g id="a_Node000026"><a xlink:href="objects_8h.html" target="_top" xlink:title=" ">
<polygon fill="white" stroke="#666666" points="1059.37,-239 998.37,-239 998.37,-220 1059.37,-220 1059.37,-239"/>
<text text-anchor="middle" x="1028.87" y="-227" font-family="Helvetica,sans-Serif" font-size="10.00">objects.h</text>
</a>
</g>
</g>
<!-- Node25&#45;&gt;Node26 -->
<g id="edge54_Node000025_Node000026" class="edge">
<title>Node25&#45;&gt;Node26</title>
<g id="a_edge54_Node000025_Node000026"><a xlink:title=" ">
<path fill="none" stroke="#63b8ff" d="M974.32,-274.98C984.02,-267.07 998.69,-255.11 1010.37,-245.58"/>
<polygon fill="#63b8ff" stroke="#63b8ff" points="1012.7,-248.2 1018.24,-239.17 1008.28,-242.78 1012.7,-248.2"/>
</a>
</g>
</g>
<!-- Node26&#45;&gt;Node12 -->
<g id="edge57_Node000026_Node000012" class="edge">
<title>Node26&#45;&gt;Node12</title>
<g id="a_edge57_Node000026_Node000012"><a xlink:title=" ">
<path fill="none" stroke="#63b8ff" d="M1029.47,-219.64C1030.81,-206.3 1035.12,-180.92 1048.87,-165 1061.89,-149.94 1081.18,-139.53 1098.73,-132.59"/>
<polygon fill="#63b8ff" stroke="#63b8ff" points="1100.08,-135.82 1108.25,-129.08 1097.66,-129.25 1100.08,-135.82"/>
</a>
</g>
</g>
<!-- Node27 -->
<g id="Node000027" class="node">
<title>Node27</title>
<g id="a_Node000027"><a xlink:href="spline_8h.html" target="_top" xlink:title=" ">
<polygon fill="white" stroke="#666666" points="1112.37,-184 1057.37,-184 1057.37,-165 1112.37,-165 1112.37,-184"/>
<text text-anchor="middle" x="1084.87" y="-172" font-family="Helvetica,sans-Serif" font-size="10.00">spline.h</text>
</a>
</g>
</g>
<!-- Node26&#45;&gt;Node27 -->
<g id="edge55_Node000026_Node000027" class="edge">
<title>Node26&#45;&gt;Node27</title>
<g id="a_edge55_Node000026_Node000027"><a xlink:title=" ">
<path fill="none" stroke="#63b8ff" d="M1037.87,-219.98C1046.07,-212.23 1058.38,-200.58 1068.35,-191.14"/>
<polygon fill="#63b8ff" stroke="#63b8ff" points="1070.86,-193.59 1075.71,-184.17 1066.04,-188.5 1070.86,-193.59"/>
</a>
</g>
</g>
<!-- Node27&#45;&gt;Node12 -->
<g id="edge56_Node000027_Node000012" class="edge">
<title>Node27&#45;&gt;Node12</title>
<g id="a_edge56_Node000027_Node000012"><a xlink:title=" ">
<path fill="none" stroke="#63b8ff" d="M1093.87,-164.98C1102.07,-157.23 1114.38,-145.58 1124.35,-136.14"/>
<polygon fill="#63b8ff" stroke="#63b8ff" points="1126.86,-138.59 1131.71,-129.17 1122.04,-133.5 1126.86,-138.59"/>
</a>
</g>
</g>
</g>
</svg>
