<?xml version="1.0" encoding="UTF-8" standalone="no"?>
<!DOCTYPE svg PUBLIC "-//W3C//DTD SVG 1.1//EN"
 "http://www.w3.org/Graphics/SVG/1.1/DTD/svg11.dtd">
<!-- Generated by graphviz version 2.43.0 (0)
 -->
<!-- Title: src/enhancements/collision_viewer.c Pages: 1 -->
<svg width="1301pt" height="280pt"
 viewBox="0.00 0.00 1301.00 280.00" xmlns="http://www.w3.org/2000/svg" xmlns:xlink="http://www.w3.org/1999/xlink">
<g id="graph0" class="graph" transform="scale(1 1) rotate(0) translate(4 276)">
<title>src/enhancements/collision_viewer.c</title>
<!-- Node1 -->
<g id="Node000001" class="node">
<title>Node1</title>
<g id="a_Node000001"><a xlink:title=" ">
<polygon fill="#999999" stroke="#666666" points="785.5,-272 636.5,-272 636.5,-242 785.5,-242 785.5,-272"/>
<text text-anchor="start" x="644.5" y="-260" font-family="Helvetica,sans-Serif" font-size="10.00">src/enhancements/collision</text>
<text text-anchor="middle" x="711" y="-249" font-family="Helvetica,sans-Serif" font-size="10.00">_viewer.c</text>
</a>
</g>
</g>
<!-- Node2 -->
<g id="Node000002" class="node">
<title>Node2</title>
<g id="a_Node000002"><a xlink:title=" ">
<polygon fill="#e0e0e0" stroke="#999999" points="584,-19 504,-19 504,0 584,0 584,-19"/>
<text text-anchor="middle" x="544" y="-7" font-family="Helvetica,sans-Serif" font-size="10.00">libultraship.h</text>
</a>
</g>
</g>
<!-- Node1&#45;&gt;Node2 -->
<g id="edge1_Node000001_Node000002" class="edge">
<title>Node1&#45;&gt;Node2</title>
<g id="a_edge1_Node000001_Node000002"><a xlink:title=" ">
<path fill="none" stroke="#63b8ff" d="M785.62,-256.49C895.26,-255.74 1092.88,-248.32 1148,-206 1183.06,-179.08 1186.36,-152.44 1174,-110 1165.9,-82.18 1163.86,-69.88 1139,-55 1092.82,-27.36 729.45,-15.27 594.36,-11.7"/>
<polygon fill="#63b8ff" stroke="#63b8ff" points="594.36,-8.2 584.27,-11.44 594.18,-15.19 594.36,-8.2"/>
</a>
</g>
</g>
<!-- Node3 -->
<g id="Node000003" class="node">
<title>Node3</title>
<g id="a_Node000003"><a xlink:title=" ">
<polygon fill="#e0e0e0" stroke="#999999" points="1110,-74 1032,-74 1032,-55 1110,-55 1110,-74"/>
<text text-anchor="middle" x="1071" y="-62" font-family="Helvetica,sans-Serif" font-size="10.00">libultra/gbi.h</text>
</a>
</g>
</g>
<!-- Node1&#45;&gt;Node3 -->
<g id="edge2_Node000001_Node000003" class="edge">
<title>Node1&#45;&gt;Node3</title>
<g id="a_edge2_Node000001_Node000003"><a xlink:title=" ">
<path fill="none" stroke="#63b8ff" d="M785.72,-254.18C867.87,-247.8 997.06,-224 1064,-140 1076.37,-124.48 1076.47,-100.96 1074.54,-84.51"/>
<polygon fill="#63b8ff" stroke="#63b8ff" points="1077.97,-83.79 1073,-74.43 1071.05,-84.85 1077.97,-83.79"/>
</a>
</g>
</g>
<!-- Node4 -->
<g id="Node000004" class="node">
<title>Node4</title>
<g id="a_Node000004"><a xlink:href="common__structs_8h.html" target="_top" xlink:title=" ">
<polygon fill="white" stroke="#666666" points="556.5,-74 449.5,-74 449.5,-55 556.5,-55 556.5,-74"/>
<text text-anchor="middle" x="503" y="-62" font-family="Helvetica,sans-Serif" font-size="10.00">common_structs.h</text>
</a>
</g>
</g>
<!-- Node1&#45;&gt;Node4 -->
<g id="edge3_Node000001_Node000004" class="edge">
<title>Node1&#45;&gt;Node4</title>
<g id="a_edge3_Node000001_Node000004"><a xlink:title=" ">
<path fill="none" stroke="#63b8ff" d="M674.14,-241.91C632.58,-224.21 565.78,-189.97 527,-140 514.4,-123.76 508.31,-100.7 505.44,-84.55"/>
<polygon fill="#63b8ff" stroke="#63b8ff" points="508.83,-83.57 503.87,-74.2 501.91,-84.62 508.83,-83.57"/>
</a>
</g>
</g>
<!-- Node5 -->
<g id="Node000005" class="node">
<title>Node5</title>
<g id="a_Node000005"><a xlink:href="code__800029B0_8h.html" target="_top" xlink:title=" ">
<polygon fill="white" stroke="#666666" points="263.5,-200.5 160.5,-200.5 160.5,-181.5 263.5,-181.5 263.5,-200.5"/>
<text text-anchor="middle" x="212" y="-188.5" font-family="Helvetica,sans-Serif" font-size="10.00">code_800029B0.h</text>
</a>
</g>
</g>
<!-- Node1&#45;&gt;Node5 -->
<g id="edge5_Node000001_Node000005" class="edge">
<title>Node1&#45;&gt;Node5</title>
<g id="a_edge5_Node000001_Node000005"><a xlink:title=" ">
<path fill="none" stroke="#63b8ff" d="M636.29,-246.42C537.5,-233.75 365.22,-211.65 273.52,-199.89"/>
<polygon fill="#63b8ff" stroke="#63b8ff" points="273.92,-196.41 263.56,-198.61 273.03,-203.36 273.92,-196.41"/>
</a>
</g>
</g>
<!-- Node11 -->
<g id="Node000011" class="node">
<title>Node11</title>
<g id="a_Node000011"><a xlink:href="mk64_8h.html" target="_top" xlink:title=" ">
<polygon fill="white" stroke="#666666" points="1164.5,-134.5 1111.5,-134.5 1111.5,-115.5 1164.5,-115.5 1164.5,-134.5"/>
<text text-anchor="middle" x="1138" y="-122.5" font-family="Helvetica,sans-Serif" font-size="10.00">mk64.h</text>
</a>
</g>
</g>
<!-- Node1&#45;&gt;Node11 -->
<g id="edge18_Node000001_Node000011" class="edge">
<title>Node1&#45;&gt;Node11</title>
<g id="a_edge18_Node000001_Node000011"><a xlink:title=" ">
<path fill="none" stroke="#63b8ff" d="M785.76,-251.97C899.2,-245.14 1104.22,-229.66 1128,-206 1143.78,-190.3 1143.81,-163.24 1141.58,-144.99"/>
<polygon fill="#63b8ff" stroke="#63b8ff" points="1145.01,-144.29 1140.01,-134.95 1138.09,-145.37 1145.01,-144.29"/>
</a>
</g>
</g>
<!-- Node14 -->
<g id="Node000014" class="node">
<title>Node14</title>
<g id="a_Node000014"><a xlink:href="main_8h.html" target="_top" xlink:title=" ">
<polygon fill="white" stroke="#666666" points="1119,-200.5 1069,-200.5 1069,-181.5 1119,-181.5 1119,-200.5"/>
<text text-anchor="middle" x="1094" y="-188.5" font-family="Helvetica,sans-Serif" font-size="10.00">main.h</text>
</a>
</g>
</g>
<!-- Node1&#45;&gt;Node14 -->
<g id="edge23_Node000001_Node000014" class="edge">
<title>Node1&#45;&gt;Node14</title>
<g id="a_edge23_Node000001_Node000014"><a xlink:title=" ">
<path fill="none" stroke="#63b8ff" d="M785.65,-249.5C855.9,-242.37 963.65,-228.79 1055,-206 1057.5,-205.38 1060.07,-204.65 1062.64,-203.87"/>
<polygon fill="#63b8ff" stroke="#63b8ff" points="1063.99,-207.11 1072.37,-200.63 1061.78,-200.46 1063.99,-207.11"/>
</a>
</g>
</g>
<!-- Node15 -->
<g id="Node000015" class="node">
<title>Node15</title>
<g id="a_Node000015"><a xlink:href="FrameInterpolation_8h.html" target="_top" xlink:title=" ">
<polygon fill="white" stroke="#666666" points="442,-140 320,-140 320,-110 442,-110 442,-140"/>
<text text-anchor="start" x="328" y="-128" font-family="Helvetica,sans-Serif" font-size="10.00">port/interpolation</text>
<text text-anchor="middle" x="381" y="-117" font-family="Helvetica,sans-Serif" font-size="10.00">/FrameInterpolation.h</text>
</a>
</g>
</g>
<!-- Node1&#45;&gt;Node15 -->
<g id="edge26_Node000001_Node000015" class="edge">
<title>Node1&#45;&gt;Node15</title>
<g id="a_edge26_Node000001_Node000015"><a xlink:title=" ">
<path fill="none" stroke="#63b8ff" d="M636.14,-253.32C555.24,-248.85 433.41,-237.03 400,-206 384.86,-191.94 380.77,-168.19 380.07,-150.22"/>
<polygon fill="#63b8ff" stroke="#63b8ff" points="383.57,-150.14 380,-140.16 376.57,-150.19 383.57,-150.14"/>
</a>
</g>
</g>
<!-- Node16 -->
<g id="Node000016" class="node">
<title>Node16</title>
<g id="a_Node000016"><a xlink:href="matrix_8h.html" target="_top" xlink:title=" ">
<polygon fill="white" stroke="#666666" points="510.5,-206 409.5,-206 409.5,-176 510.5,-176 510.5,-206"/>
<text text-anchor="start" x="417.5" y="-194" font-family="Helvetica,sans-Serif" font-size="10.00">port/interpolation</text>
<text text-anchor="middle" x="460" y="-183" font-family="Helvetica,sans-Serif" font-size="10.00">/matrix.h</text>
</a>
</g>
</g>
<!-- Node1&#45;&gt;Node16 -->
<g id="edge29_Node000001_Node000016" class="edge">
<title>Node1&#45;&gt;Node16</title>
<g id="a_edge29_Node000001_Node000016"><a xlink:title=" ">
<path fill="none" stroke="#63b8ff" d="M655.92,-241.95C615.92,-231.76 561.82,-217.96 520.6,-207.45"/>
<polygon fill="#63b8ff" stroke="#63b8ff" points="521.24,-204 510.69,-204.92 519.51,-210.79 521.24,-204"/>
</a>
</g>
</g>
<!-- Node17 -->
<g id="Node000017" class="node">
<title>Node17</title>
<g id="a_Node000017"><a xlink:href="Matrix_8h.html" target="_top" xlink:title=" ">
<polygon fill="white" stroke="#666666" points="757.5,-134.5 664.5,-134.5 664.5,-115.5 757.5,-115.5 757.5,-134.5"/>
<text text-anchor="middle" x="711" y="-122.5" font-family="Helvetica,sans-Serif" font-size="10.00">engine/Matrix.h</text>
</a>
</g>
</g>
<!-- Node1&#45;&gt;Node17 -->
<g id="edge31_Node000001_Node000017" class="edge">
<title>Node1&#45;&gt;Node17</title>
<g id="a_edge31_Node000001_Node000017"><a xlink:title=" ">
<path fill="none" stroke="#63b8ff" d="M711,-241.84C711,-218.34 711,-171.26 711,-144.93"/>
<polygon fill="#63b8ff" stroke="#63b8ff" points="714.5,-144.75 711,-134.75 707.5,-144.75 714.5,-144.75"/>
</a>
</g>
</g>
<!-- Node19 -->
<g id="Node000019" class="node">
<title>Node19</title>
<g id="a_Node000019"><a xlink:href="collision__viewer_8h.html" target="_top" xlink:title=" ">
<polygon fill="white" stroke="#666666" points="104,-200.5 0,-200.5 0,-181.5 104,-181.5 104,-200.5"/>
<text text-anchor="middle" x="52" y="-188.5" font-family="Helvetica,sans-Serif" font-size="10.00">collision_viewer.h</text>
</a>
</g>
</g>
<!-- Node1&#45;&gt;Node19 -->
<g id="edge36_Node000001_Node000019" class="edge">
<title>Node1&#45;&gt;Node19</title>
<g id="a_edge36_Node000001_Node000019"><a xlink:title=" ">
<path fill="none" stroke="#63b8ff" d="M636.15,-250.55C528.63,-242.44 324.33,-225.98 151,-206 139.08,-204.63 126.37,-202.97 114.18,-201.29"/>
<polygon fill="#63b8ff" stroke="#63b8ff" points="114.47,-197.8 104.09,-199.88 113.5,-204.73 114.47,-197.8"/>
</a>
</g>
</g>
<!-- Node20 -->
<g id="Node000020" class="node">
<title>Node20</title>
<g id="a_Node000020"><a xlink:href="math__util_8h.html" target="_top" xlink:title=" ">
<polygon fill="white" stroke="#666666" points="646,-134.5 574,-134.5 574,-115.5 646,-115.5 646,-134.5"/>
<text text-anchor="middle" x="610" y="-122.5" font-family="Helvetica,sans-Serif" font-size="10.00">math_util.h</text>
</a>
</g>
</g>
<!-- Node1&#45;&gt;Node20 -->
<g id="edge38_Node000001_Node000020" class="edge">
<title>Node1&#45;&gt;Node20</title>
<g id="a_edge38_Node000001_Node000020"><a xlink:title=" ">
<path fill="none" stroke="#63b8ff" d="M700,-241.84C681.25,-217.71 643.18,-168.71 623.09,-142.85"/>
<polygon fill="#63b8ff" stroke="#63b8ff" points="625.7,-140.5 616.8,-134.75 620.17,-144.79 625.7,-140.5"/>
</a>
</g>
</g>
<!-- Node21 -->
<g id="Node000021" class="node">
<title>Node21</title>
<g id="a_Node000021"><a xlink:href="other__textures_8h.html" target="_top" xlink:title=" ">
<polygon fill="white" stroke="#666666" points="906.5,-134.5 775.5,-134.5 775.5,-115.5 906.5,-115.5 906.5,-134.5"/>
<text text-anchor="middle" x="841" y="-122.5" font-family="Helvetica,sans-Serif" font-size="10.00">assets/other_textures.h</text>
</a>
</g>
</g>
<!-- Node1&#45;&gt;Node21 -->
<g id="edge41_Node000001_Node000021" class="edge">
<title>Node1&#45;&gt;Node21</title>
<g id="a_edge41_Node000001_Node000021"><a xlink:title=" ">
<path fill="none" stroke="#63b8ff" d="M725.16,-241.84C749.61,-217.39 799.58,-167.42 825.15,-141.85"/>
<polygon fill="#63b8ff" stroke="#63b8ff" points="827.66,-144.29 832.25,-134.75 822.71,-139.34 827.66,-144.29"/>
</a>
</g>
</g>
<!-- Node23 -->
<g id="Node000023" class="node">
<title>Node23</title>
<g id="a_Node000023"><a xlink:href="common__data_8h.html" target="_top" xlink:title=" ">
<polygon fill="white" stroke="#666666" points="1055,-134.5 925,-134.5 925,-115.5 1055,-115.5 1055,-134.5"/>
<text text-anchor="middle" x="990" y="-122.5" font-family="Helvetica,sans-Serif" font-size="10.00">assets/common_data.h</text>
</a>
</g>
</g>
<!-- Node1&#45;&gt;Node23 -->
<g id="edge44_Node000001_Node000023" class="edge">
<title>Node1&#45;&gt;Node23</title>
<g id="a_edge44_Node000001_Node000023"><a xlink:title=" ">
<path fill="none" stroke="#63b8ff" d="M741.12,-241.96C795.64,-216.56 909.89,-163.33 962.46,-138.83"/>
<polygon fill="#63b8ff" stroke="#63b8ff" points="963.94,-142 971.53,-134.61 960.98,-135.66 963.94,-142"/>
</a>
</g>
</g>
<!-- Node4&#45;&gt;Node2 -->
<g id="edge4_Node000004_Node000002" class="edge">
<title>Node4&#45;&gt;Node2</title>
<g id="a_edge4_Node000004_Node000002"><a xlink:title=" ">
<path fill="none" stroke="#63b8ff" d="M509.77,-54.75C515.56,-47.26 524.06,-36.28 531.14,-27.13"/>
<polygon fill="#63b8ff" stroke="#63b8ff" points="534.01,-29.14 537.36,-19.09 528.47,-24.86 534.01,-29.14"/>
</a>
</g>
</g>
<!-- Node5&#45;&gt;Node2 -->
<g id="edge9_Node000005_Node000002" class="edge">
<title>Node5&#45;&gt;Node2</title>
<g id="a_edge9_Node000005_Node000002"><a xlink:title=" ">
<path fill="none" stroke="#63b8ff" d="M211.6,-181.38C211.32,-165.34 213.01,-130.68 231,-110 297.75,-33.28 423.41,-15.17 493.5,-11.23"/>
<polygon fill="#63b8ff" stroke="#63b8ff" points="494.02,-14.71 503.84,-10.74 493.68,-7.72 494.02,-14.71"/>
</a>
</g>
</g>
<!-- Node6 -->
<g id="Node000006" class="node">
<title>Node6</title>
<g id="a_Node000006"><a xlink:href="macros_8h.html" target="_top" xlink:title=" ">
<polygon fill="white" stroke="#666666" points="103,-74 41,-74 41,-55 103,-55 103,-74"/>
<text text-anchor="middle" x="72" y="-62" font-family="Helvetica,sans-Serif" font-size="10.00">macros.h</text>
</a>
</g>
</g>
<!-- Node5&#45;&gt;Node6 -->
<g id="edge6_Node000005_Node000006" class="edge">
<title>Node5&#45;&gt;Node6</title>
<g id="a_edge6_Node000005_Node000006"><a xlink:title=" ">
<path fill="none" stroke="#63b8ff" d="M165.79,-181.49C140.31,-174.48 110.06,-161.98 91,-140 77.64,-124.6 73.46,-101.05 72.26,-84.56"/>
<polygon fill="#63b8ff" stroke="#63b8ff" points="75.75,-84.31 71.83,-74.46 68.76,-84.6 75.75,-84.31"/>
</a>
</g>
</g>
<!-- Node8 -->
<g id="Node000008" class="node">
<title>Node8</title>
<g id="a_Node000008"><a xlink:href="actor__types_8h.html" target="_top" xlink:title=" ">
<polygon fill="white" stroke="#666666" points="183.5,-134.5 100.5,-134.5 100.5,-115.5 183.5,-115.5 183.5,-134.5"/>
<text text-anchor="middle" x="142" y="-122.5" font-family="Helvetica,sans-Serif" font-size="10.00">actor_types.h</text>
</a>
</g>
</g>
<!-- Node5&#45;&gt;Node8 -->
<g id="edge10_Node000005_Node000008" class="edge">
<title>Node5&#45;&gt;Node8</title>
<g id="a_edge10_Node000005_Node000008"><a xlink:title=" ">
<path fill="none" stroke="#63b8ff" d="M202.56,-181.37C191.45,-171.21 172.8,-154.16 159.12,-141.65"/>
<polygon fill="#63b8ff" stroke="#63b8ff" points="161.48,-139.07 151.74,-134.91 156.76,-144.24 161.48,-139.07"/>
</a>
</g>
</g>
<!-- Node10 -->
<g id="Node000010" class="node">
<title>Node10</title>
<g id="a_Node000010"><a xlink:href="camera_8h.html" target="_top" xlink:title=" ">
<polygon fill="white" stroke="#666666" points="302,-134.5 240,-134.5 240,-115.5 302,-115.5 302,-134.5"/>
<text text-anchor="middle" x="271" y="-122.5" font-family="Helvetica,sans-Serif" font-size="10.00">camera.h</text>
</a>
</g>
</g>
<!-- Node5&#45;&gt;Node10 -->
<g id="edge15_Node000005_Node000010" class="edge">
<title>Node5&#45;&gt;Node10</title>
<g id="a_edge15_Node000005_Node000010"><a xlink:title=" ">
<path fill="none" stroke="#63b8ff" d="M219.96,-181.37C229.14,-171.4 244.46,-154.79 255.92,-142.36"/>
<polygon fill="#63b8ff" stroke="#63b8ff" points="258.59,-144.63 262.79,-134.91 253.44,-139.89 258.59,-144.63"/>
</a>
</g>
</g>
<!-- Node6&#45;&gt;Node2 -->
<g id="edge8_Node000006_Node000002" class="edge">
<title>Node6&#45;&gt;Node2</title>
<g id="a_edge8_Node000006_Node000002"><a xlink:title=" ">
<path fill="none" stroke="#63b8ff" d="M103.38,-56.5C106.29,-55.95 109.19,-55.44 112,-55 249.22,-33.42 412.67,-19.85 493.53,-13.94"/>
<polygon fill="#63b8ff" stroke="#63b8ff" points="494.19,-17.4 503.91,-13.19 493.69,-10.42 494.19,-17.4"/>
</a>
</g>
</g>
<!-- Node7 -->
<g id="Node000007" class="node">
<title>Node7</title>
<g id="a_Node000007"><a xlink:href="math_8h.html" target="_top" xlink:title=" ">
<polygon fill="white" stroke="#666666" points="97.5,-19 46.5,-19 46.5,0 97.5,0 97.5,-19"/>
<text text-anchor="middle" x="72" y="-7" font-family="Helvetica,sans-Serif" font-size="10.00">math.h</text>
</a>
</g>
</g>
<!-- Node6&#45;&gt;Node7 -->
<g id="edge7_Node000006_Node000007" class="edge">
<title>Node6&#45;&gt;Node7</title>
<g id="a_edge7_Node000006_Node000007"><a xlink:title=" ">
<path fill="none" stroke="#63b8ff" d="M72,-54.75C72,-47.8 72,-37.85 72,-29.13"/>
<polygon fill="#63b8ff" stroke="#63b8ff" points="75.5,-29.09 72,-19.09 68.5,-29.09 75.5,-29.09"/>
</a>
</g>
</g>
<!-- Node8&#45;&gt;Node2 -->
<g id="edge11_Node000008_Node000002" class="edge">
<title>Node8&#45;&gt;Node2</title>
<g id="a_edge11_Node000008_Node000002"><a xlink:title=" ">
<path fill="none" stroke="#63b8ff" d="M149.65,-115.49C163.72,-100.46 195.34,-69.45 229,-55 316.74,-17.34 429.63,-10.25 493.69,-9.62"/>
<polygon fill="#63b8ff" stroke="#63b8ff" points="493.93,-13.12 503.92,-9.57 493.9,-6.12 493.93,-13.12"/>
</a>
</g>
</g>
<!-- Node8&#45;&gt;Node4 -->
<g id="edge13_Node000008_Node000004" class="edge">
<title>Node8&#45;&gt;Node4</title>
<g id="a_edge13_Node000008_Node000004"><a xlink:title=" ">
<path fill="none" stroke="#63b8ff" d="M183.76,-117.23C246.78,-107.02 366.61,-87.6 440.18,-75.68"/>
<polygon fill="#63b8ff" stroke="#63b8ff" points="440.94,-79.1 450.25,-74.05 439.82,-72.19 440.94,-79.1"/>
</a>
</g>
</g>
<!-- Node8&#45;&gt;Node6 -->
<g id="edge12_Node000008_Node000006" class="edge">
<title>Node8&#45;&gt;Node6</title>
<g id="a_edge12_Node000008_Node000006"><a xlink:title=" ">
<path fill="none" stroke="#63b8ff" d="M131.67,-115.37C120.81,-106.3 103.51,-91.84 90.33,-80.82"/>
<polygon fill="#63b8ff" stroke="#63b8ff" points="92.29,-77.89 82.37,-74.17 87.8,-83.27 92.29,-77.89"/>
</a>
</g>
</g>
<!-- Node9 -->
<g id="Node000009" class="node">
<title>Node9</title>
<g id="a_Node000009"><a xlink:title=" ">
<polygon fill="#e0e0e0" stroke="#999999" points="177,-74 121,-74 121,-55 177,-55 177,-74"/>
<text text-anchor="middle" x="149" y="-62" font-family="Helvetica,sans-Serif" font-size="10.00">assert.h</text>
</a>
</g>
</g>
<!-- Node8&#45;&gt;Node9 -->
<g id="edge14_Node000008_Node000009" class="edge">
<title>Node8&#45;&gt;Node9</title>
<g id="a_edge14_Node000008_Node000009"><a xlink:title=" ">
<path fill="none" stroke="#63b8ff" d="M143.03,-115.37C144,-107.25 145.49,-94.81 146.74,-84.39"/>
<polygon fill="#63b8ff" stroke="#63b8ff" points="150.25,-84.51 147.96,-74.17 143.3,-83.68 150.25,-84.51"/>
</a>
</g>
</g>
<!-- Node10&#45;&gt;Node2 -->
<g id="edge16_Node000010_Node000002" class="edge">
<title>Node10&#45;&gt;Node2</title>
<g id="a_edge16_Node000010_Node000002"><a xlink:title=" ">
<path fill="none" stroke="#63b8ff" d="M287.7,-115.32C314.4,-101.6 368.54,-74.47 416,-55 446.17,-42.62 481.19,-30.6 506.97,-22.18"/>
<polygon fill="#63b8ff" stroke="#63b8ff" points="508.27,-25.44 516.71,-19.03 506.12,-18.78 508.27,-25.44"/>
</a>
</g>
</g>
<!-- Node10&#45;&gt;Node4 -->
<g id="edge17_Node000010_Node000004" class="edge">
<title>Node10&#45;&gt;Node4</title>
<g id="a_edge17_Node000010_Node000004"><a xlink:title=" ">
<path fill="none" stroke="#63b8ff" d="M294.13,-115.42C299.62,-113.52 305.49,-111.6 311,-110 357.46,-96.53 411.16,-84.37 449.93,-76.17"/>
<polygon fill="#63b8ff" stroke="#63b8ff" points="450.88,-79.55 459.95,-74.08 449.45,-72.7 450.88,-79.55"/>
</a>
</g>
</g>
<!-- Node11&#45;&gt;Node2 -->
<g id="edge19_Node000011_Node000002" class="edge">
<title>Node11&#45;&gt;Node2</title>
<g id="a_edge19_Node000011_Node000002"><a xlink:title=" ">
<path fill="none" stroke="#63b8ff" d="M1138.5,-115.13C1138.82,-100.11 1137.02,-69.86 1119,-55 1079,-22.01 727.27,-13.27 594.47,-11.14"/>
<polygon fill="#63b8ff" stroke="#63b8ff" points="594.23,-7.63 584.17,-10.98 594.12,-14.63 594.23,-7.63"/>
</a>
</g>
</g>
<!-- Node11&#45;&gt;Node3 -->
<g id="edge22_Node000011_Node000003" class="edge">
<title>Node11&#45;&gt;Node3</title>
<g id="a_edge22_Node000011_Node000003"><a xlink:title=" ">
<path fill="none" stroke="#63b8ff" d="M1128.11,-115.37C1117.72,-106.3 1101.16,-91.84 1088.55,-80.82"/>
<polygon fill="#63b8ff" stroke="#63b8ff" points="1090.76,-78.11 1080.93,-74.17 1086.16,-83.38 1090.76,-78.11"/>
</a>
</g>
</g>
<!-- Node12 -->
<g id="Node000012" class="node">
<title>Node12</title>
<g id="a_Node000012"><a xlink:href="string_8h.html" target="_top" xlink:title=" ">
<polygon fill="white" stroke="#666666" points="1274.5,-74 1221.5,-74 1221.5,-55 1274.5,-55 1274.5,-74"/>
<text text-anchor="middle" x="1248" y="-62" font-family="Helvetica,sans-Serif" font-size="10.00">string.h</text>
</a>
</g>
</g>
<!-- Node11&#45;&gt;Node12 -->
<g id="edge20_Node000011_Node000012" class="edge">
<title>Node11&#45;&gt;Node12</title>
<g id="a_edge20_Node000011_Node000012"><a xlink:title=" ">
<path fill="none" stroke="#63b8ff" d="M1154.23,-115.37C1172.27,-105.78 1201.62,-90.17 1222.68,-78.97"/>
<polygon fill="#63b8ff" stroke="#63b8ff" points="1224.52,-81.95 1231.7,-74.17 1221.23,-75.77 1224.52,-81.95"/>
</a>
</g>
</g>
<!-- Node13 -->
<g id="Node000013" class="node">
<title>Node13</title>
<g id="a_Node000013"><a xlink:title=" ">
<polygon fill="#e0e0e0" stroke="#999999" points="1293,-19 1203,-19 1203,0 1293,0 1293,-19"/>
<text text-anchor="middle" x="1248" y="-7" font-family="Helvetica,sans-Serif" font-size="10.00">libultra/types.h</text>
</a>
</g>
</g>
<!-- Node12&#45;&gt;Node13 -->
<g id="edge21_Node000012_Node000013" class="edge">
<title>Node12&#45;&gt;Node13</title>
<g id="a_edge21_Node000012_Node000013"><a xlink:title=" ">
<path fill="none" stroke="#63b8ff" d="M1248,-54.75C1248,-47.8 1248,-37.85 1248,-29.13"/>
<polygon fill="#63b8ff" stroke="#63b8ff" points="1251.5,-29.09 1248,-19.09 1244.5,-29.09 1251.5,-29.09"/>
</a>
</g>
</g>
<!-- Node14&#45;&gt;Node4 -->
<g id="edge25_Node000014_Node000004" class="edge">
<title>Node14&#45;&gt;Node4</title>
<g id="a_edge25_Node000014_Node000004"><a xlink:title=" ">
<path fill="none" stroke="#63b8ff" d="M1068.69,-190.12C975.75,-190.19 654.04,-186.97 565,-140 540.89,-127.28 522.47,-100.82 512.19,-83.11"/>
<polygon fill="#63b8ff" stroke="#63b8ff" points="515.23,-81.38 507.33,-74.31 509.1,-84.76 515.23,-81.38"/>
</a>
</g>
</g>
<!-- Node14&#45;&gt;Node11 -->
<g id="edge24_Node000014_Node000011" class="edge">
<title>Node14&#45;&gt;Node11</title>
<g id="a_edge24_Node000014_Node000011"><a xlink:title=" ">
<path fill="none" stroke="#63b8ff" d="M1099.93,-181.37C1106.59,-171.69 1117.56,-155.74 1126.01,-143.44"/>
<polygon fill="#63b8ff" stroke="#63b8ff" points="1129.1,-145.13 1131.88,-134.91 1123.33,-141.16 1129.1,-145.13"/>
</a>
</g>
</g>
<!-- Node15&#45;&gt;Node2 -->
<g id="edge27_Node000015_Node000002" class="edge">
<title>Node15&#45;&gt;Node2</title>
<g id="a_edge27_Node000015_Node000002"><a xlink:title=" ">
<path fill="none" stroke="#63b8ff" d="M390.34,-109.9C401.04,-94.66 419.86,-70.46 441,-55 460.46,-40.77 485.17,-29.9 505.51,-22.46"/>
<polygon fill="#63b8ff" stroke="#63b8ff" points="506.83,-25.71 515.11,-19.09 504.51,-19.11 506.83,-25.71"/>
</a>
</g>
</g>
<!-- Node15&#45;&gt;Node4 -->
<g id="edge28_Node000015_Node000004" class="edge">
<title>Node15&#45;&gt;Node4</title>
<g id="a_edge28_Node000015_Node000004"><a xlink:title=" ">
<path fill="none" stroke="#63b8ff" d="M410.22,-109.99C430.12,-100.45 456.28,-87.9 475.75,-78.57"/>
<polygon fill="#63b8ff" stroke="#63b8ff" points="477.48,-81.62 484.98,-74.14 474.45,-75.31 477.48,-81.62"/>
</a>
</g>
</g>
<!-- Node16&#45;&gt;Node4 -->
<g id="edge30_Node000016_Node000004" class="edge">
<title>Node16&#45;&gt;Node4</title>
<g id="a_edge30_Node000016_Node000004"><a xlink:title=" ">
<path fill="none" stroke="#63b8ff" d="M464.93,-175.72C472.77,-153.02 488.07,-108.72 496.7,-83.75"/>
<polygon fill="#63b8ff" stroke="#63b8ff" points="500.08,-84.66 500.04,-74.07 493.47,-82.38 500.08,-84.66"/>
</a>
</g>
</g>
<!-- Node17&#45;&gt;Node2 -->
<g id="edge32_Node000017_Node000002" class="edge">
<title>Node17&#45;&gt;Node2</title>
<g id="a_edge32_Node000017_Node000002"><a xlink:title=" ">
<path fill="none" stroke="#63b8ff" d="M711.74,-115.09C712.42,-100.55 711.54,-71.68 696,-55 670.01,-27.1 627.58,-16.37 594.15,-12.39"/>
<polygon fill="#63b8ff" stroke="#63b8ff" points="594.39,-8.9 584.09,-11.37 593.68,-15.87 594.39,-8.9"/>
</a>
</g>
</g>
<!-- Node17&#45;&gt;Node4 -->
<g id="edge33_Node000017_Node000004" class="edge">
<title>Node17&#45;&gt;Node4</title>
<g id="a_edge33_Node000017_Node000004"><a xlink:title=" ">
<path fill="none" stroke="#63b8ff" d="M680.76,-115.49C644.4,-105.27 583.27,-88.08 543.03,-76.76"/>
<polygon fill="#63b8ff" stroke="#63b8ff" points="543.86,-73.35 533.28,-74.02 541.96,-80.09 543.86,-73.35"/>
</a>
</g>
</g>
<!-- Node18 -->
<g id="Node000018" class="node">
<title>Node18</title>
<g id="a_Node000018"><a xlink:href="CoreMath_8h.html" target="_top" xlink:title=" ">
<polygon fill="white" stroke="#666666" points="686.5,-74 613.5,-74 613.5,-55 686.5,-55 686.5,-74"/>
<text text-anchor="middle" x="650" y="-62" font-family="Helvetica,sans-Serif" font-size="10.00">CoreMath.h</text>
</a>
</g>
</g>
<!-- Node17&#45;&gt;Node18 -->
<g id="edge34_Node000017_Node000018" class="edge">
<title>Node17&#45;&gt;Node18</title>
<g id="a_edge34_Node000017_Node000018"><a xlink:title=" ">
<path fill="none" stroke="#63b8ff" d="M702,-115.37C692.63,-106.38 677.75,-92.11 666.3,-81.14"/>
<polygon fill="#63b8ff" stroke="#63b8ff" points="668.68,-78.56 659.04,-74.17 663.83,-83.62 668.68,-78.56"/>
</a>
</g>
</g>
<!-- Node18&#45;&gt;Node2 -->
<g id="edge35_Node000018_Node000002" class="edge">
<title>Node18&#45;&gt;Node2</title>
<g id="a_edge35_Node000018_Node000002"><a xlink:title=" ">
<path fill="none" stroke="#63b8ff" d="M632.97,-54.98C616.07,-46.54 589.94,-33.47 570.36,-23.68"/>
<polygon fill="#63b8ff" stroke="#63b8ff" points="571.85,-20.51 561.34,-19.17 568.72,-26.77 571.85,-20.51"/>
</a>
</g>
</g>
<!-- Node19&#45;&gt;Node2 -->
<g id="edge37_Node000019_Node000002" class="edge">
<title>Node19&#45;&gt;Node2</title>
<g id="a_edge37_Node000019_Node000002"><a xlink:title=" ">
<path fill="none" stroke="#63b8ff" d="M46.64,-181.37C32.71,-157.74 -1.3,-91.33 32,-55 62.8,-21.41 370.51,-13.09 493.55,-11.1"/>
<polygon fill="#63b8ff" stroke="#63b8ff" points="493.88,-14.6 503.83,-10.94 493.77,-7.6 493.88,-14.6"/>
</a>
</g>
</g>
<!-- Node20&#45;&gt;Node2 -->
<g id="edge39_Node000020_Node000002" class="edge">
<title>Node20&#45;&gt;Node2</title>
<g id="a_edge39_Node000020_Node000002"><a xlink:title=" ">
<path fill="none" stroke="#63b8ff" d="M605.04,-115.47C594.24,-96.9 568.43,-52.51 554.07,-27.82"/>
<polygon fill="#63b8ff" stroke="#63b8ff" points="557.07,-26.02 549.02,-19.13 551.02,-29.53 557.07,-26.02"/>
</a>
</g>
</g>
<!-- Node20&#45;&gt;Node4 -->
<g id="edge40_Node000020_Node000004" class="edge">
<title>Node20&#45;&gt;Node4</title>
<g id="a_edge40_Node000020_Node000004"><a xlink:title=" ">
<path fill="none" stroke="#63b8ff" d="M594.21,-115.37C576.67,-105.78 548.12,-90.17 527.63,-78.97"/>
<polygon fill="#63b8ff" stroke="#63b8ff" points="529.31,-75.89 518.85,-74.17 525.95,-82.04 529.31,-75.89"/>
</a>
</g>
</g>
<!-- Node21&#45;&gt;Node2 -->
<g id="edge42_Node000021_Node000002" class="edge">
<title>Node21&#45;&gt;Node2</title>
<g id="a_edge42_Node000021_Node000002"><a xlink:title=" ">
<path fill="none" stroke="#63b8ff" d="M827.92,-115.41C805.6,-101.09 758.35,-72.2 715,-55 675.55,-39.35 628.8,-27.61 594.16,-20.14"/>
<polygon fill="#63b8ff" stroke="#63b8ff" points="594.78,-16.69 584.28,-18.05 593.34,-23.54 594.78,-16.69"/>
</a>
</g>
</g>
<!-- Node22 -->
<g id="Node000022" class="node">
<title>Node22</title>
<g id="a_Node000022"><a xlink:href="align__asset__macro_8h.html" target="_top" xlink:title=" ">
<polygon fill="white" stroke="#666666" points="914.5,-74 797.5,-74 797.5,-55 914.5,-55 914.5,-74"/>
<text text-anchor="middle" x="856" y="-62" font-family="Helvetica,sans-Serif" font-size="10.00">align_asset_macro.h</text>
</a>
</g>
</g>
<!-- Node21&#45;&gt;Node22 -->
<g id="edge43_Node000021_Node000022" class="edge">
<title>Node21&#45;&gt;Node22</title>
<g id="a_edge43_Node000021_Node000022"><a xlink:title=" ">
<path fill="none" stroke="#63b8ff" d="M843.21,-115.37C845.32,-107.16 848.55,-94.54 851.24,-84.05"/>
<polygon fill="#63b8ff" stroke="#63b8ff" points="854.68,-84.72 853.78,-74.17 847.9,-82.98 854.68,-84.72"/>
</a>
</g>
</g>
<!-- Node23&#45;&gt;Node2 -->
<g id="edge46_Node000023_Node000002" class="edge">
<title>Node23&#45;&gt;Node2</title>
<g id="a_edge46_Node000023_Node000002"><a xlink:title=" ">
<path fill="none" stroke="#63b8ff" d="M984.72,-115.41C974.89,-100.25 952.19,-69.04 924,-55 867.31,-26.76 684.21,-15.9 594.5,-12.2"/>
<polygon fill="#63b8ff" stroke="#63b8ff" points="594.42,-8.69 584.29,-11.79 594.14,-15.69 594.42,-8.69"/>
</a>
</g>
</g>
<!-- Node23&#45;&gt;Node3 -->
<g id="edge45_Node000023_Node000003" class="edge">
<title>Node23&#45;&gt;Node3</title>
<g id="a_edge45_Node000023_Node000003"><a xlink:title=" ">
<path fill="none" stroke="#63b8ff" d="M1001.95,-115.37C1014.75,-106.12 1035.3,-91.28 1050.65,-80.19"/>
<polygon fill="#63b8ff" stroke="#63b8ff" points="1052.94,-82.86 1059,-74.17 1048.84,-77.18 1052.94,-82.86"/>
</a>
</g>
</g>
<!-- Node23&#45;&gt;Node4 -->
<g id="edge47_Node000023_Node000004" class="edge">
<title>Node23&#45;&gt;Node4</title>
<g id="a_edge47_Node000023_Node000004"><a xlink:title=" ">
<path fill="none" stroke="#63b8ff" d="M948.22,-115.49C937.73,-113.52 926.48,-111.55 916,-110 792.86,-91.75 648.01,-77.88 566.71,-70.78"/>
<polygon fill="#63b8ff" stroke="#63b8ff" points="566.9,-67.28 556.64,-69.9 566.3,-74.26 566.9,-67.28"/>
</a>
</g>
</g>
<!-- Node23&#45;&gt;Node22 -->
<g id="edge48_Node000023_Node000022" class="edge">
<title>Node23&#45;&gt;Node22</title>
<g id="a_edge48_Node000023_Node000022"><a xlink:title=" ">
<path fill="none" stroke="#63b8ff" d="M970.52,-115.49C947.99,-105.66 910.69,-89.38 884.81,-78.08"/>
<polygon fill="#63b8ff" stroke="#63b8ff" points="886.07,-74.81 875.51,-74.02 883.27,-81.23 886.07,-74.81"/>
</a>
</g>
</g>
</g>
</svg>
