<?xml version="1.0" encoding="UTF-8" standalone="no"?>
<!DOCTYPE svg PUBLIC "-//W3C//DTD SVG 1.1//EN"
 "http://www.w3.org/Graphics/SVG/1.1/DTD/svg11.dtd">
<!-- Generated by graphviz version 2.43.0 (0)
 -->
<!-- Title: src/engine/Cup.h Pages: 1 -->
<svg width="1181pt" height="357pt"
 viewBox="0.00 0.00 1180.50 357.00" xmlns="http://www.w3.org/2000/svg" xmlns:xlink="http://www.w3.org/1999/xlink">
<g id="graph0" class="graph" transform="scale(1 1) rotate(0) translate(4 353)">
<title>src/engine/Cup.h</title>
<!-- Node1 -->
<g id="Node000001" class="node">
<title>Node1</title>
<g id="a_Node000001"><a xlink:title=" ">
<polygon fill="#999999" stroke="#666666" points="540,-349 442,-349 442,-330 540,-330 540,-349"/>
<text text-anchor="middle" x="491" y="-337" font-family="Helvetica,sans-Serif" font-size="10.00">src/engine/Cup.h</text>
</a>
</g>
</g>
<!-- Node2 -->
<g id="Node000002" class="node">
<title>Node2</title>
<g id="a_Node000002"><a xlink:title=" ">
<polygon fill="#e0e0e0" stroke="#999999" points="443.5,-294 396.5,-294 396.5,-275 443.5,-275 443.5,-294"/>
<text text-anchor="middle" x="420" y="-282" font-family="Helvetica,sans-Serif" font-size="10.00">vector</text>
</a>
</g>
</g>
<!-- Node1&#45;&gt;Node2 -->
<g id="edge1_Node000001_Node000002" class="edge">
<title>Node1&#45;&gt;Node2</title>
<g id="a_edge1_Node000001_Node000002"><a xlink:title=" ">
<path fill="none" stroke="#63b8ff" d="M479.59,-329.98C468.89,-322 452.66,-309.88 439.84,-300.31"/>
<polygon fill="#63b8ff" stroke="#63b8ff" points="441.72,-297.35 431.61,-294.17 437.53,-302.96 441.72,-297.35"/>
</a>
</g>
</g>
<!-- Node3 -->
<g id="Node000003" class="node">
<title>Node3</title>
<g id="a_Node000003"><a xlink:title=" ">
<polygon fill="#e0e0e0" stroke="#999999" points="520,-294 462,-294 462,-275 520,-275 520,-294"/>
<text text-anchor="middle" x="491" y="-282" font-family="Helvetica,sans-Serif" font-size="10.00">memory</text>
</a>
</g>
</g>
<!-- Node1&#45;&gt;Node3 -->
<g id="edge2_Node000001_Node000003" class="edge">
<title>Node1&#45;&gt;Node3</title>
<g id="a_edge2_Node000001_Node000003"><a xlink:title=" ">
<path fill="none" stroke="#63b8ff" d="M491,-329.75C491,-322.8 491,-312.85 491,-304.13"/>
<polygon fill="#63b8ff" stroke="#63b8ff" points="494.5,-304.09 491,-294.09 487.5,-304.09 494.5,-304.09"/>
</a>
</g>
</g>
<!-- Node4 -->
<g id="Node000004" class="node">
<title>Node4</title>
<g id="a_Node000004"><a xlink:href="Course_8h.html" target="_top" xlink:title=" ">
<polygon fill="white" stroke="#666666" points="638,-294 538,-294 538,-275 638,-275 638,-294"/>
<text text-anchor="middle" x="588" y="-282" font-family="Helvetica,sans-Serif" font-size="10.00">courses/Course.h</text>
</a>
</g>
</g>
<!-- Node1&#45;&gt;Node4 -->
<g id="edge3_Node000001_Node000004" class="edge">
<title>Node1&#45;&gt;Node4</title>
<g id="a_edge3_Node000001_Node000004"><a xlink:title=" ">
<path fill="none" stroke="#63b8ff" d="M506.58,-329.98C521.77,-321.69 545.1,-308.94 562.9,-299.22"/>
<polygon fill="#63b8ff" stroke="#63b8ff" points="565.03,-302.04 572.13,-294.17 561.68,-295.89 565.03,-302.04"/>
</a>
</g>
</g>
<!-- Node5 -->
<g id="Node000005" class="node">
<title>Node5</title>
<g id="a_Node000005"><a xlink:title=" ">
<polygon fill="#e0e0e0" stroke="#999999" points="138,-239 0,-239 0,-220 138,-220 138,-239"/>
<text text-anchor="middle" x="69" y="-227" font-family="Helvetica,sans-Serif" font-size="10.00">libultraship/libultraship.h</text>
</a>
</g>
</g>
<!-- Node4&#45;&gt;Node5 -->
<g id="edge4_Node000004_Node000005" class="edge">
<title>Node4&#45;&gt;Node5</title>
<g id="a_edge4_Node000004_Node000005"><a xlink:title=" ">
<path fill="none" stroke="#63b8ff" d="M537.81,-276.1C534.83,-275.72 531.88,-275.34 529,-275 361.88,-254.99 319.5,-255.57 152,-239 150.88,-238.89 149.76,-238.78 148.62,-238.67"/>
<polygon fill="#63b8ff" stroke="#63b8ff" points="148.59,-235.14 138.29,-237.63 147.89,-242.11 148.59,-235.14"/>
</a>
</g>
</g>
<!-- Node6 -->
<g id="Node000006" class="node">
<title>Node6</title>
<g id="a_Node000006"><a xlink:href="CoreMath_8h.html" target="_top" xlink:title=" ">
<polygon fill="white" stroke="#666666" points="1172.5,-184 1099.5,-184 1099.5,-165 1172.5,-165 1172.5,-184"/>
<text text-anchor="middle" x="1136" y="-172" font-family="Helvetica,sans-Serif" font-size="10.00">CoreMath.h</text>
</a>
</g>
</g>
<!-- Node4&#45;&gt;Node6 -->
<g id="edge5_Node000004_Node000006" class="edge">
<title>Node4&#45;&gt;Node6</title>
<g id="a_edge5_Node000004_Node000006"><a xlink:title=" ">
<path fill="none" stroke="#63b8ff" d="M630.58,-274.95C666.62,-267.2 719.37,-254.6 764,-239 783.34,-232.24 786.31,-225.65 806,-220 921.1,-186.97 954.33,-200.01 1073,-184 1078.2,-183.3 1083.64,-182.56 1089.05,-181.83"/>
<polygon fill="#63b8ff" stroke="#63b8ff" points="1089.91,-185.25 1099.36,-180.44 1088.98,-178.31 1089.91,-185.25"/>
</a>
</g>
</g>
<!-- Node8 -->
<g id="Node000008" class="node">
<title>Node8</title>
<g id="a_Node000008"><a xlink:href="camera_8h.html" target="_top" xlink:title=" ">
<polygon fill="white" stroke="#666666" points="603,-129 541,-129 541,-110 603,-110 603,-129"/>
<text text-anchor="middle" x="572" y="-117" font-family="Helvetica,sans-Serif" font-size="10.00">camera.h</text>
</a>
</g>
</g>
<!-- Node4&#45;&gt;Node8 -->
<g id="edge7_Node000004_Node000008" class="edge">
<title>Node4&#45;&gt;Node8</title>
<g id="a_edge7_Node000004_Node000008"><a xlink:title=" ">
<path fill="none" stroke="#63b8ff" d="M587.14,-274.74C584.64,-249.31 577.36,-175.08 573.88,-139.69"/>
<polygon fill="#63b8ff" stroke="#63b8ff" points="577.32,-138.92 572.86,-129.31 570.36,-139.6 577.32,-138.92"/>
</a>
</g>
</g>
<!-- Node9 -->
<g id="Node000009" class="node">
<title>Node9</title>
<g id="a_Node000009"><a xlink:href="common__structs_8h.html" target="_top" xlink:title=" ">
<polygon fill="white" stroke="#666666" points="445.5,-74 338.5,-74 338.5,-55 445.5,-55 445.5,-74"/>
<text text-anchor="middle" x="392" y="-62" font-family="Helvetica,sans-Serif" font-size="10.00">common_structs.h</text>
</a>
</g>
</g>
<!-- Node4&#45;&gt;Node9 -->
<g id="edge48_Node000004_Node000009" class="edge">
<title>Node4&#45;&gt;Node9</title>
<g id="a_edge48_Node000004_Node000009"><a xlink:title=" ">
<path fill="none" stroke="#63b8ff" d="M537.86,-276.09C455.67,-263.91 300.75,-240.83 295,-239 242.9,-222.47 213.74,-230.5 185,-184 147.47,-123.27 254.35,-90.6 328.17,-75.73"/>
<polygon fill="#63b8ff" stroke="#63b8ff" points="329.21,-79.1 338.35,-73.75 327.87,-72.23 329.21,-79.1"/>
</a>
</g>
</g>
<!-- Node10 -->
<g id="Node000010" class="node">
<title>Node10</title>
<g id="a_Node000010"><a xlink:href="course__offsets_8h.html" target="_top" xlink:title=" ">
<polygon fill="white" stroke="#666666" points="1064,-184 968,-184 968,-165 1064,-165 1064,-184"/>
<text text-anchor="middle" x="1016" y="-172" font-family="Helvetica,sans-Serif" font-size="10.00">course_offsets.h</text>
</a>
</g>
</g>
<!-- Node4&#45;&gt;Node10 -->
<g id="edge11_Node000004_Node000010" class="edge">
<title>Node4&#45;&gt;Node10</title>
<g id="a_edge11_Node000004_Node000010"><a xlink:title=" ">
<path fill="none" stroke="#63b8ff" d="M618.31,-274.99C647.09,-266.66 691.42,-253.19 729,-239 748.55,-231.62 752.03,-226.14 772,-220 834.19,-200.88 907.96,-188.83 957.99,-182.16"/>
<polygon fill="#63b8ff" stroke="#63b8ff" points="958.51,-185.62 967.97,-180.86 957.61,-178.68 958.51,-185.62"/>
</a>
</g>
</g>
<!-- Node16 -->
<g id="Node000016" class="node">
<title>Node16</title>
<g id="a_Node000016"><a xlink:href="src_2data_2some__data_8h.html" target="_top" xlink:title=" ">
<polygon fill="white" stroke="#666666" points="720,-239 616,-239 616,-220 720,-220 720,-239"/>
<text text-anchor="middle" x="668" y="-227" font-family="Helvetica,sans-Serif" font-size="10.00">data/some_data.h</text>
</a>
</g>
</g>
<!-- Node4&#45;&gt;Node16 -->
<g id="edge20_Node000004_Node000016" class="edge">
<title>Node4&#45;&gt;Node16</title>
<g id="a_edge20_Node000004_Node000016"><a xlink:title=" ">
<path fill="none" stroke="#63b8ff" d="M600.85,-274.98C613.14,-266.84 631.91,-254.41 646.48,-244.76"/>
<polygon fill="#63b8ff" stroke="#63b8ff" points="648.51,-247.61 654.91,-239.17 644.64,-241.78 648.51,-247.61"/>
</a>
</g>
</g>
<!-- Node19 -->
<g id="Node000019" class="node">
<title>Node19</title>
<g id="a_Node000019"><a xlink:href="defines_8h.html" target="_top" xlink:title=" ">
<polygon fill="white" stroke="#666666" points="875.5,-239 814.5,-239 814.5,-220 875.5,-220 875.5,-239"/>
<text text-anchor="middle" x="845" y="-227" font-family="Helvetica,sans-Serif" font-size="10.00">defines.h</text>
</a>
</g>
</g>
<!-- Node4&#45;&gt;Node19 -->
<g id="edge28_Node000004_Node000019" class="edge">
<title>Node4&#45;&gt;Node19</title>
<g id="a_edge28_Node000004_Node000019"><a xlink:title=" ">
<path fill="none" stroke="#63b8ff" d="M629.29,-274.98C677.41,-265.06 756.42,-248.77 804.29,-238.9"/>
<polygon fill="#63b8ff" stroke="#63b8ff" points="805.21,-242.28 814.29,-236.83 803.79,-235.42 805.21,-242.28"/>
</a>
</g>
</g>
<!-- Node20 -->
<g id="Node000020" class="node">
<title>Node20</title>
<g id="a_Node000020"><a xlink:href="bomb__kart_8h.html" target="_top" xlink:title=" ">
<polygon fill="white" stroke="#666666" points="521.5,-184 444.5,-184 444.5,-165 521.5,-165 521.5,-184"/>
<text text-anchor="middle" x="483" y="-172" font-family="Helvetica,sans-Serif" font-size="10.00">bomb_kart.h</text>
</a>
</g>
</g>
<!-- Node4&#45;&gt;Node20 -->
<g id="edge29_Node000004_Node000020" class="edge">
<title>Node4&#45;&gt;Node20</title>
<g id="a_edge29_Node000004_Node000020"><a xlink:title=" ">
<path fill="none" stroke="#63b8ff" d="M579.41,-274.66C561.71,-256.46 520.96,-214.55 498.52,-191.47"/>
<polygon fill="#63b8ff" stroke="#63b8ff" points="500.9,-188.89 491.42,-184.16 495.88,-193.77 500.9,-188.89"/>
</a>
</g>
</g>
<!-- Node23 -->
<g id="Node000023" class="node">
<title>Node23</title>
<g id="a_Node000023"><a xlink:href="path__spawn__metadata_8h.html" target="_top" xlink:title=" ">
<polygon fill="white" stroke="#666666" points="484.5,-239 347.5,-239 347.5,-220 484.5,-220 484.5,-239"/>
<text text-anchor="middle" x="416" y="-227" font-family="Helvetica,sans-Serif" font-size="10.00">path_spawn_metadata.h</text>
</a>
</g>
</g>
<!-- Node4&#45;&gt;Node23 -->
<g id="edge36_Node000004_Node000023" class="edge">
<title>Node4&#45;&gt;Node23</title>
<g id="a_edge36_Node000004_Node000023"><a xlink:title=" ">
<path fill="none" stroke="#63b8ff" d="M560.37,-274.98C531.49,-266.09 485.99,-252.07 453.8,-242.15"/>
<polygon fill="#63b8ff" stroke="#63b8ff" points="454.44,-238.68 443.85,-239.08 452.38,-245.37 454.44,-238.68"/>
</a>
</g>
</g>
<!-- Node24 -->
<g id="Node000024" class="node">
<title>Node24</title>
<g id="a_Node000024"><a xlink:href="waypoints_8h.html" target="_top" xlink:title=" ">
<polygon fill="white" stroke="#666666" points="270,-184 194,-184 194,-165 270,-165 270,-184"/>
<text text-anchor="middle" x="232" y="-172" font-family="Helvetica,sans-Serif" font-size="10.00">waypoints.h</text>
</a>
</g>
</g>
<!-- Node4&#45;&gt;Node24 -->
<g id="edge46_Node000004_Node000024" class="edge">
<title>Node4&#45;&gt;Node24</title>
<g id="a_edge46_Node000004_Node000024"><a xlink:title=" ">
<path fill="none" stroke="#63b8ff" d="M537.92,-275.58C470.38,-264.76 356.4,-245.88 338,-239 305.45,-226.82 271.64,-204.62 251.2,-189.97"/>
<polygon fill="#63b8ff" stroke="#63b8ff" points="253.2,-187.09 243.06,-184.01 249.07,-192.74 253.2,-187.09"/>
</a>
</g>
</g>
<!-- Node26 -->
<g id="Node000026" class="node">
<title>Node26</title>
<g id="a_Node000026"><a xlink:href="sounds_8h.html" target="_top" xlink:title=" ">
<polygon fill="white" stroke="#666666" points="954,-239 894,-239 894,-220 954,-220 954,-239"/>
<text text-anchor="middle" x="924" y="-227" font-family="Helvetica,sans-Serif" font-size="10.00">sounds.h</text>
</a>
</g>
</g>
<!-- Node4&#45;&gt;Node26 -->
<g id="edge47_Node000004_Node000026" class="edge">
<title>Node4&#45;&gt;Node26</title>
<g id="a_edge47_Node000004_Node000026"><a xlink:title=" ">
<path fill="none" stroke="#63b8ff" d="M638.09,-277.02C695.18,-269.41 791.52,-255.87 883.74,-239.13"/>
<polygon fill="#63b8ff" stroke="#63b8ff" points="884.6,-242.53 893.81,-237.29 883.34,-235.64 884.6,-242.53"/>
</a>
</g>
</g>
<!-- Node7 -->
<g id="Node000007" class="node">
<title>Node7</title>
<g id="a_Node000007"><a xlink:title=" ">
<polygon fill="#e0e0e0" stroke="#999999" points="738,-19 658,-19 658,0 738,0 738,-19"/>
<text text-anchor="middle" x="698" y="-7" font-family="Helvetica,sans-Serif" font-size="10.00">libultraship.h</text>
</a>
</g>
</g>
<!-- Node6&#45;&gt;Node7 -->
<g id="edge6_Node000006_Node000007" class="edge">
<title>Node6&#45;&gt;Node7</title>
<g id="a_edge6_Node000006_Node000007"><a xlink:title=" ">
<path fill="none" stroke="#63b8ff" d="M1132.88,-164.76C1124.31,-142.17 1098.07,-81.71 1054,-55 1003.71,-24.52 833.93,-14.79 748.29,-11.79"/>
<polygon fill="#63b8ff" stroke="#63b8ff" points="748.38,-8.29 738.27,-11.45 748.15,-15.29 748.38,-8.29"/>
</a>
</g>
</g>
<!-- Node8&#45;&gt;Node7 -->
<g id="edge8_Node000008_Node000007" class="edge">
<title>Node8&#45;&gt;Node7</title>
<g id="a_edge8_Node000008_Node000007"><a xlink:title=" ">
<path fill="none" stroke="#63b8ff" d="M582.31,-109.66C603.74,-91.3 653.3,-48.81 680.07,-25.87"/>
<polygon fill="#63b8ff" stroke="#63b8ff" points="682.58,-28.32 687.9,-19.16 678.03,-23.01 682.58,-28.32"/>
</a>
</g>
</g>
<!-- Node8&#45;&gt;Node9 -->
<g id="edge9_Node000008_Node000009" class="edge">
<title>Node8&#45;&gt;Node9</title>
<g id="a_edge9_Node000008_Node000009"><a xlink:title=" ">
<path fill="none" stroke="#63b8ff" d="M543.08,-109.98C512.73,-101.05 464.83,-86.94 431.12,-77.02"/>
<polygon fill="#63b8ff" stroke="#63b8ff" points="431.73,-73.55 421.15,-74.08 429.75,-80.26 431.73,-73.55"/>
</a>
</g>
</g>
<!-- Node9&#45;&gt;Node7 -->
<g id="edge10_Node000009_Node000007" class="edge">
<title>Node9&#45;&gt;Node7</title>
<g id="a_edge10_Node000009_Node000007"><a xlink:title=" ">
<path fill="none" stroke="#63b8ff" d="M441.16,-54.98C497.9,-45.16 590.71,-29.08 647.86,-19.18"/>
<polygon fill="#63b8ff" stroke="#63b8ff" points="648.49,-22.63 657.75,-17.47 647.3,-15.73 648.49,-22.63"/>
</a>
</g>
</g>
<!-- Node10&#45;&gt;Node7 -->
<g id="edge12_Node000010_Node000007" class="edge">
<title>Node10&#45;&gt;Node7</title>
<g id="a_edge12_Node000010_Node000007"><a xlink:title=" ">
<path fill="none" stroke="#63b8ff" d="M1021.61,-164.78C1034.7,-143.25 1064.06,-87 1036,-55 1017.35,-33.73 838.05,-19.41 748.45,-13.52"/>
<polygon fill="#63b8ff" stroke="#63b8ff" points="748.45,-10.02 738.24,-12.86 748,-17 748.45,-10.02"/>
</a>
</g>
</g>
<!-- Node11 -->
<g id="Node000011" class="node">
<title>Node11</title>
<g id="a_Node000011"><a xlink:title=" ">
<polygon fill="#e0e0e0" stroke="#999999" points="1022,-19 932,-19 932,0 1022,0 1022,-19"/>
<text text-anchor="middle" x="977" y="-7" font-family="Helvetica,sans-Serif" font-size="10.00">libultra/types.h</text>
</a>
</g>
</g>
<!-- Node10&#45;&gt;Node11 -->
<g id="edge13_Node000010_Node000011" class="edge">
<title>Node10&#45;&gt;Node11</title>
<g id="a_edge13_Node000010_Node000011"><a xlink:title=" ">
<path fill="none" stroke="#63b8ff" d="M1043.65,-164.98C1060.58,-158.17 1080.89,-146.76 1091,-129 1107.27,-100.42 1109.55,-82.16 1091,-55 1077.59,-35.36 1054.11,-24.39 1031.93,-18.26"/>
<polygon fill="#63b8ff" stroke="#63b8ff" points="1032.75,-14.86 1022.21,-15.84 1031.07,-21.65 1032.75,-14.86"/>
</a>
</g>
</g>
<!-- Node12 -->
<g id="Node000012" class="node">
<title>Node12</title>
<g id="a_Node000012"><a xlink:title=" ">
<polygon fill="#e0e0e0" stroke="#999999" points="1011,-74 933,-74 933,-55 1011,-55 1011,-74"/>
<text text-anchor="middle" x="972" y="-62" font-family="Helvetica,sans-Serif" font-size="10.00">libultra/gbi.h</text>
</a>
</g>
</g>
<!-- Node10&#45;&gt;Node12 -->
<g id="edge14_Node000010_Node000012" class="edge">
<title>Node10&#45;&gt;Node12</title>
<g id="a_edge14_Node000010_Node000012"><a xlink:title=" ">
<path fill="none" stroke="#63b8ff" d="M1018.95,-164.85C1022.75,-152.21 1027.95,-128.22 1020,-110 1014.73,-97.92 1004.37,-87.65 994.63,-80.03"/>
<polygon fill="#63b8ff" stroke="#63b8ff" points="996.52,-77.07 986.37,-74.04 992.41,-82.74 996.52,-77.07"/>
</a>
</g>
</g>
<!-- Node13 -->
<g id="Node000013" class="node">
<title>Node13</title>
<g id="a_Node000013"><a xlink:href="other__textures_8h.html" target="_top" xlink:title=" ">
<polygon fill="white" stroke="#666666" points="1010.5,-129 879.5,-129 879.5,-110 1010.5,-110 1010.5,-129"/>
<text text-anchor="middle" x="945" y="-117" font-family="Helvetica,sans-Serif" font-size="10.00">assets/other_textures.h</text>
</a>
</g>
</g>
<!-- Node10&#45;&gt;Node13 -->
<g id="edge15_Node000010_Node000013" class="edge">
<title>Node10&#45;&gt;Node13</title>
<g id="a_edge15_Node000010_Node000013"><a xlink:title=" ">
<path fill="none" stroke="#63b8ff" d="M1004.59,-164.98C993.89,-157 977.66,-144.88 964.84,-135.31"/>
<polygon fill="#63b8ff" stroke="#63b8ff" points="966.72,-132.35 956.61,-129.17 962.53,-137.96 966.72,-132.35"/>
</a>
</g>
</g>
<!-- Node15 -->
<g id="Node000015" class="node">
<title>Node15</title>
<g id="a_Node000015"><a xlink:href="animation_8h.html" target="_top" xlink:title=" ">
<polygon fill="white" stroke="#666666" points="523.5,-129 448.5,-129 448.5,-110 523.5,-110 523.5,-129"/>
<text text-anchor="middle" x="486" y="-117" font-family="Helvetica,sans-Serif" font-size="10.00">animation.h</text>
</a>
</g>
</g>
<!-- Node10&#45;&gt;Node15 -->
<g id="edge18_Node000010_Node000015" class="edge">
<title>Node10&#45;&gt;Node15</title>
<g id="a_edge18_Node000010_Node000015"><a xlink:title=" ">
<path fill="none" stroke="#63b8ff" d="M967.75,-170.52C882.29,-164.94 698.56,-151.49 533.92,-129.15"/>
<polygon fill="#63b8ff" stroke="#63b8ff" points="533.99,-125.63 523.61,-127.74 533.04,-132.56 533.99,-125.63"/>
</a>
</g>
</g>
<!-- Node13&#45;&gt;Node7 -->
<g id="edge16_Node000013_Node000007" class="edge">
<title>Node13&#45;&gt;Node7</title>
<g id="a_edge16_Node000013_Node000007"><a xlink:title=" ">
<path fill="none" stroke="#63b8ff" d="M969.65,-109.82C998.32,-98.43 1039.39,-77.25 1020,-55 985.38,-15.27 829.9,-9.82 748.32,-9.79"/>
<polygon fill="#63b8ff" stroke="#63b8ff" points="748.27,-6.29 738.28,-9.81 748.29,-13.29 748.27,-6.29"/>
</a>
</g>
</g>
<!-- Node14 -->
<g id="Node000014" class="node">
<title>Node14</title>
<g id="a_Node000014"><a xlink:href="align__asset__macro_8h.html" target="_top" xlink:title=" ">
<polygon fill="white" stroke="#666666" points="914.5,-74 797.5,-74 797.5,-55 914.5,-55 914.5,-74"/>
<text text-anchor="middle" x="856" y="-62" font-family="Helvetica,sans-Serif" font-size="10.00">align_asset_macro.h</text>
</a>
</g>
</g>
<!-- Node13&#45;&gt;Node14 -->
<g id="edge17_Node000013_Node000014" class="edge">
<title>Node13&#45;&gt;Node14</title>
<g id="a_edge17_Node000013_Node000014"><a xlink:title=" ">
<path fill="none" stroke="#63b8ff" d="M930.7,-109.98C916.9,-101.77 895.76,-89.18 879.49,-79.49"/>
<polygon fill="#63b8ff" stroke="#63b8ff" points="880.94,-76.28 870.56,-74.17 877.36,-82.29 880.94,-76.28"/>
</a>
</g>
</g>
<!-- Node15&#45;&gt;Node9 -->
<g id="edge19_Node000015_Node000009" class="edge">
<title>Node15&#45;&gt;Node9</title>
<g id="a_edge19_Node000015_Node000009"><a xlink:title=" ">
<path fill="none" stroke="#63b8ff" d="M470.9,-109.98C456.18,-101.69 433.58,-88.94 416.33,-79.22"/>
<polygon fill="#63b8ff" stroke="#63b8ff" points="417.81,-76.03 407.38,-74.17 414.37,-82.13 417.81,-76.03"/>
</a>
</g>
</g>
<!-- Node16&#45;&gt;Node12 -->
<g id="edge21_Node000016_Node000012" class="edge">
<title>Node16&#45;&gt;Node12</title>
<g id="a_edge21_Node000016_Node000012"><a xlink:title=" ">
<path fill="none" stroke="#63b8ff" d="M681.48,-219.91C713.63,-199.58 797.57,-147.46 871,-110 894.18,-98.18 921.18,-86.38 941.43,-77.9"/>
<polygon fill="#63b8ff" stroke="#63b8ff" points="942.89,-81.09 950.79,-74.02 940.21,-74.62 942.89,-81.09"/>
</a>
</g>
</g>
<!-- Node16&#45;&gt;Node13 -->
<g id="edge24_Node000016_Node000013" class="edge">
<title>Node16&#45;&gt;Node13</title>
<g id="a_edge24_Node000016_Node000013"><a xlink:title=" ">
<path fill="none" stroke="#63b8ff" d="M717.36,-219.95C766.85,-210.92 839.3,-196.3 865,-184 889.83,-172.11 913.97,-151.29 929.12,-136.74"/>
<polygon fill="#63b8ff" stroke="#63b8ff" points="931.9,-138.91 936.56,-129.4 926.98,-133.93 931.9,-138.91"/>
</a>
</g>
</g>
<!-- Node17 -->
<g id="Node000017" class="node">
<title>Node17</title>
<g id="a_Node000017"><a xlink:href="spline_8h.html" target="_top" xlink:title=" ">
<polygon fill="white" stroke="#666666" points="391.5,-129 336.5,-129 336.5,-110 391.5,-110 391.5,-129"/>
<text text-anchor="middle" x="364" y="-117" font-family="Helvetica,sans-Serif" font-size="10.00">spline.h</text>
</a>
</g>
</g>
<!-- Node16&#45;&gt;Node17 -->
<g id="edge22_Node000016_Node000017" class="edge">
<title>Node16&#45;&gt;Node17</title>
<g id="a_edge22_Node000016_Node000017"><a xlink:title=" ">
<path fill="none" stroke="#63b8ff" d="M651.81,-219.95C626.41,-206.8 575.39,-181.39 530,-165 486.89,-149.43 435.75,-136.52 401.74,-128.69"/>
<polygon fill="#63b8ff" stroke="#63b8ff" points="402.28,-125.23 391.76,-126.42 400.73,-132.05 402.28,-125.23"/>
</a>
</g>
</g>
<!-- Node18 -->
<g id="Node000018" class="node">
<title>Node18</title>
<g id="a_Node000018"><a xlink:href="objects_8h.html" target="_top" xlink:title=" ">
<polygon fill="white" stroke="#666666" points="387.5,-184 326.5,-184 326.5,-165 387.5,-165 387.5,-184"/>
<text text-anchor="middle" x="357" y="-172" font-family="Helvetica,sans-Serif" font-size="10.00">objects.h</text>
</a>
</g>
</g>
<!-- Node16&#45;&gt;Node18 -->
<g id="edge25_Node000016_Node000018" class="edge">
<title>Node16&#45;&gt;Node18</title>
<g id="a_edge25_Node000016_Node000018"><a xlink:title=" ">
<path fill="none" stroke="#63b8ff" d="M618.03,-219.98C556.77,-209.54 454.13,-192.05 397.53,-182.41"/>
<polygon fill="#63b8ff" stroke="#63b8ff" points="397.96,-178.93 387.52,-180.7 396.79,-185.83 397.96,-178.93"/>
</a>
</g>
</g>
<!-- Node17&#45;&gt;Node9 -->
<g id="edge23_Node000017_Node000009" class="edge">
<title>Node17&#45;&gt;Node9</title>
<g id="a_edge23_Node000017_Node000009"><a xlink:title=" ">
<path fill="none" stroke="#63b8ff" d="M368.62,-109.75C372.46,-102.49 378.02,-91.95 382.76,-82.98"/>
<polygon fill="#63b8ff" stroke="#63b8ff" points="385.89,-84.57 387.46,-74.09 379.7,-81.3 385.89,-84.57"/>
</a>
</g>
</g>
<!-- Node18&#45;&gt;Node9 -->
<g id="edge27_Node000018_Node000009" class="edge">
<title>Node18&#45;&gt;Node9</title>
<g id="a_edge27_Node000018_Node000009"><a xlink:title=" ">
<path fill="none" stroke="#63b8ff" d="M347.52,-164.75C335.34,-152.4 316.88,-129.2 327,-110 334.24,-96.27 347.83,-85.97 360.72,-78.76"/>
<polygon fill="#63b8ff" stroke="#63b8ff" points="362.59,-81.73 369.88,-74.05 359.39,-75.51 362.59,-81.73"/>
</a>
</g>
</g>
<!-- Node18&#45;&gt;Node17 -->
<g id="edge26_Node000018_Node000017" class="edge">
<title>Node18&#45;&gt;Node17</title>
<g id="a_edge26_Node000018_Node000017"><a xlink:title=" ">
<path fill="none" stroke="#63b8ff" d="M358.16,-164.75C359.07,-157.8 360.39,-147.85 361.54,-139.13"/>
<polygon fill="#63b8ff" stroke="#63b8ff" points="365.03,-139.46 362.87,-129.09 358.09,-138.54 365.03,-139.46"/>
</a>
</g>
</g>
<!-- Node20&#45;&gt;Node9 -->
<g id="edge30_Node000020_Node000009" class="edge">
<title>Node20&#45;&gt;Node9</title>
<g id="a_edge30_Node000020_Node000009"><a xlink:title=" ">
<path fill="none" stroke="#63b8ff" d="M473.85,-164.99C464.67,-156.28 450.31,-142.2 439,-129 426.07,-113.91 412.73,-95.57 403.58,-82.49"/>
<polygon fill="#63b8ff" stroke="#63b8ff" points="406.28,-80.25 397.72,-74.01 400.53,-84.23 406.28,-80.25"/>
</a>
</g>
</g>
<!-- Node21 -->
<g id="Node000021" class="node">
<title>Node21</title>
<g id="a_Node000021"><a xlink:href="mk64_8h.html" target="_top" xlink:title=" ">
<polygon fill="white" stroke="#666666" points="822.5,-129 769.5,-129 769.5,-110 822.5,-110 822.5,-129"/>
<text text-anchor="middle" x="796" y="-117" font-family="Helvetica,sans-Serif" font-size="10.00">mk64.h</text>
</a>
</g>
</g>
<!-- Node20&#45;&gt;Node21 -->
<g id="edge31_Node000020_Node000021" class="edge">
<title>Node20&#45;&gt;Node21</title>
<g id="a_edge31_Node000020_Node000021"><a xlink:title=" ">
<path fill="none" stroke="#63b8ff" d="M521.7,-168.19C573.5,-160.88 668.46,-146.79 759.39,-128.99"/>
<polygon fill="#63b8ff" stroke="#63b8ff" points="760.18,-132.4 769.31,-127.03 758.82,-125.53 760.18,-132.4"/>
</a>
</g>
</g>
<!-- Node21&#45;&gt;Node7 -->
<g id="edge32_Node000021_Node000007" class="edge">
<title>Node21&#45;&gt;Node7</title>
<g id="a_edge32_Node000021_Node000007"><a xlink:title=" ">
<path fill="none" stroke="#63b8ff" d="M771.28,-109.99C754.06,-102.87 731.8,-91.11 718,-74 707.68,-61.21 702.66,-43.04 700.23,-29.41"/>
<polygon fill="#63b8ff" stroke="#63b8ff" points="703.65,-28.63 698.74,-19.25 696.72,-29.65 703.65,-28.63"/>
</a>
</g>
</g>
<!-- Node21&#45;&gt;Node12 -->
<g id="edge35_Node000021_Node000012" class="edge">
<title>Node21&#45;&gt;Node12</title>
<g id="a_edge35_Node000021_Node000012"><a xlink:title=" ">
<path fill="none" stroke="#63b8ff" d="M822.73,-110.45C852.27,-101.55 900.11,-87.15 933.64,-77.05"/>
<polygon fill="#63b8ff" stroke="#63b8ff" points="934.99,-80.3 943.56,-74.07 932.97,-73.6 934.99,-80.3"/>
</a>
</g>
</g>
<!-- Node22 -->
<g id="Node000022" class="node">
<title>Node22</title>
<g id="a_Node000022"><a xlink:href="string_8h.html" target="_top" xlink:title=" ">
<polygon fill="white" stroke="#666666" points="779.5,-74 726.5,-74 726.5,-55 779.5,-55 779.5,-74"/>
<text text-anchor="middle" x="753" y="-62" font-family="Helvetica,sans-Serif" font-size="10.00">string.h</text>
</a>
</g>
</g>
<!-- Node21&#45;&gt;Node22 -->
<g id="edge33_Node000021_Node000022" class="edge">
<title>Node21&#45;&gt;Node22</title>
<g id="a_edge33_Node000021_Node000022"><a xlink:title=" ">
<path fill="none" stroke="#63b8ff" d="M788.9,-109.75C782.83,-102.26 773.91,-91.28 766.49,-82.13"/>
<polygon fill="#63b8ff" stroke="#63b8ff" points="768.99,-79.65 759.97,-74.09 763.55,-84.06 768.99,-79.65"/>
</a>
</g>
</g>
<!-- Node22&#45;&gt;Node11 -->
<g id="edge34_Node000022_Node000011" class="edge">
<title>Node22&#45;&gt;Node11</title>
<g id="a_edge34_Node000022_Node000011"><a xlink:title=" ">
<path fill="none" stroke="#63b8ff" d="M779.58,-57.21C816.85,-48.39 885.22,-32.22 930.89,-21.41"/>
<polygon fill="#63b8ff" stroke="#63b8ff" points="931.92,-24.76 940.84,-19.05 930.31,-17.95 931.92,-24.76"/>
</a>
</g>
</g>
<!-- Node23&#45;&gt;Node9 -->
<g id="edge39_Node000023_Node000009" class="edge">
<title>Node23&#45;&gt;Node9</title>
<g id="a_edge39_Node000023_Node000009"><a xlink:title=" ">
<path fill="none" stroke="#63b8ff" d="M371.24,-219.92C351.05,-213.58 329.08,-202.67 317,-184 309.18,-171.91 304.25,-137.83 321,-110 329.47,-95.92 344.29,-85.61 358.2,-78.47"/>
<polygon fill="#63b8ff" stroke="#63b8ff" points="360.05,-81.47 367.6,-74.03 357.06,-75.14 360.05,-81.47"/>
</a>
</g>
</g>
<!-- Node23&#45;&gt;Node20 -->
<g id="edge45_Node000023_Node000020" class="edge">
<title>Node23&#45;&gt;Node20</title>
<g id="a_edge45_Node000023_Node000020"><a xlink:title=" ">
<path fill="none" stroke="#63b8ff" d="M426.76,-219.98C436.77,-212.07 451.89,-200.11 463.93,-190.58"/>
<polygon fill="#63b8ff" stroke="#63b8ff" points="466.37,-193.12 472.04,-184.17 462.03,-187.63 466.37,-193.12"/>
</a>
</g>
</g>
<!-- Node23&#45;&gt;Node24 -->
<g id="edge37_Node000023_Node000024" class="edge">
<title>Node23&#45;&gt;Node24</title>
<g id="a_edge37_Node000023_Node000024"><a xlink:title=" ">
<path fill="none" stroke="#63b8ff" d="M386.44,-219.98C355.28,-211.01 306.03,-196.82 271.54,-186.89"/>
<polygon fill="#63b8ff" stroke="#63b8ff" points="272.37,-183.49 261.79,-184.08 270.43,-190.21 272.37,-183.49"/>
</a>
</g>
</g>
<!-- Node25 -->
<g id="Node000025" class="node">
<title>Node25</title>
<g id="a_Node000025"><a xlink:href="common__data_8h.html" target="_top" xlink:title=" ">
<polygon fill="white" stroke="#666666" points="751,-129 621,-129 621,-110 751,-110 751,-129"/>
<text text-anchor="middle" x="686" y="-117" font-family="Helvetica,sans-Serif" font-size="10.00">assets/common_data.h</text>
</a>
</g>
</g>
<!-- Node23&#45;&gt;Node25 -->
<g id="edge40_Node000023_Node000025" class="edge">
<title>Node23&#45;&gt;Node25</title>
<g id="a_edge40_Node000023_Node000025"><a xlink:title=" ">
<path fill="none" stroke="#63b8ff" d="M415.91,-219.6C416.29,-205.73 419.19,-179.08 435,-165 448.13,-153.3 541.7,-138.98 610.77,-129.8"/>
<polygon fill="#63b8ff" stroke="#63b8ff" points="611.31,-133.26 620.77,-128.48 610.4,-126.32 611.31,-133.26"/>
</a>
</g>
</g>
<!-- Node24&#45;&gt;Node9 -->
<g id="edge38_Node000024_Node000009" class="edge">
<title>Node24&#45;&gt;Node9</title>
<g id="a_edge38_Node000024_Node000009"><a xlink:title=" ">
<path fill="none" stroke="#63b8ff" d="M232.91,-164.81C234.78,-151.23 240.32,-124.98 256,-110 275.58,-91.28 303.15,-80.44 328.35,-74.15"/>
<polygon fill="#63b8ff" stroke="#63b8ff" points="329.28,-77.53 338.24,-71.89 327.71,-70.71 329.28,-77.53"/>
</a>
</g>
</g>
<!-- Node25&#45;&gt;Node7 -->
<g id="edge42_Node000025_Node000007" class="edge">
<title>Node25&#45;&gt;Node7</title>
<g id="a_edge42_Node000025_Node000007"><a xlink:title=" ">
<path fill="none" stroke="#63b8ff" d="M684.73,-109.81C683.15,-97.52 681.02,-74.41 684,-55 685.35,-46.19 688.13,-36.74 690.85,-28.82"/>
<polygon fill="#63b8ff" stroke="#63b8ff" points="694.23,-29.77 694.4,-19.18 687.66,-27.35 694.23,-29.77"/>
</a>
</g>
</g>
<!-- Node25&#45;&gt;Node9 -->
<g id="edge43_Node000025_Node000009" class="edge">
<title>Node25&#45;&gt;Node9</title>
<g id="a_edge43_Node000025_Node000009"><a xlink:title=" ">
<path fill="none" stroke="#63b8ff" d="M638.76,-109.98C587.27,-100.7 504.84,-85.84 449.59,-75.88"/>
<polygon fill="#63b8ff" stroke="#63b8ff" points="450.07,-72.41 439.61,-74.08 448.83,-79.3 450.07,-72.41"/>
</a>
</g>
</g>
<!-- Node25&#45;&gt;Node12 -->
<g id="edge41_Node000025_Node000012" class="edge">
<title>Node25&#45;&gt;Node12</title>
<g id="a_edge41_Node000025_Node000012"><a xlink:title=" ">
<path fill="none" stroke="#63b8ff" d="M731.95,-109.98C784.17,-100.31 869.07,-84.57 922.66,-74.64"/>
<polygon fill="#63b8ff" stroke="#63b8ff" points="923.41,-78.06 932.61,-72.8 922.14,-71.18 923.41,-78.06"/>
</a>
</g>
</g>
<!-- Node25&#45;&gt;Node14 -->
<g id="edge44_Node000025_Node000014" class="edge">
<title>Node25&#45;&gt;Node14</title>
<g id="a_edge44_Node000025_Node000014"><a xlink:title=" ">
<path fill="none" stroke="#63b8ff" d="M713.31,-109.98C741.85,-101.09 786.83,-87.07 818.64,-77.15"/>
<polygon fill="#63b8ff" stroke="#63b8ff" points="819.97,-80.4 828.47,-74.08 817.88,-73.72 819.97,-80.4"/>
</a>
</g>
</g>
</g>
</svg>
