<?xml version="1.0" encoding="UTF-8" standalone="no"?>
<!DOCTYPE svg PUBLIC "-//W3C//DTD SVG 1.1//EN"
 "http://www.w3.org/Graphics/SVG/1.1/DTD/svg11.dtd">
<!-- Generated by graphviz version 2.43.0 (0)
 -->
<!-- Title: src/engine/courses/DKJungle.h Pages: 1 -->
<svg width="1450pt" height="379pt"
 viewBox="0.00 0.00 1450.00 379.00" xmlns="http://www.w3.org/2000/svg" xmlns:xlink="http://www.w3.org/1999/xlink">
<g id="graph0" class="graph" transform="scale(1 1) rotate(0) translate(4 375)">
<title>src/engine/courses/DKJungle.h</title>
<!-- Node1 -->
<g id="Node000001" class="node">
<title>Node1</title>
<g id="a_Node000001"><a xlink:title=" ">
<polygon fill="#999999" stroke="#666666" points="1043.5,-371 936.5,-371 936.5,-341 1043.5,-341 1043.5,-371"/>
<text text-anchor="start" x="944.5" y="-359" font-family="Helvetica,sans-Serif" font-size="10.00">src/engine/courses</text>
<text text-anchor="middle" x="990" y="-348" font-family="Helvetica,sans-Serif" font-size="10.00">/DKJungle.h</text>
</a>
</g>
</g>
<!-- Node2 -->
<g id="Node000002" class="node">
<title>Node2</title>
<g id="a_Node000002"><a xlink:title=" ">
<polygon fill="#e0e0e0" stroke="#999999" points="439,-19 359,-19 359,0 439,0 439,-19"/>
<text text-anchor="middle" x="399" y="-7" font-family="Helvetica,sans-Serif" font-size="10.00">libultraship.h</text>
</a>
</g>
</g>
<!-- Node1&#45;&gt;Node2 -->
<g id="edge1_Node000001_Node000002" class="edge">
<title>Node1&#45;&gt;Node2</title>
<g id="a_edge1_Node000001_Node000002"><a xlink:title=" ">
<path fill="none" stroke="#63b8ff" d="M1043.63,-352.79C1163.36,-346.41 1442,-322.81 1442,-241.5 1442,-241.5 1442,-241.5 1442,-124 1442,-22.91 657.63,-11.79 449.3,-10.62"/>
<polygon fill="#63b8ff" stroke="#63b8ff" points="449.27,-7.12 439.25,-10.57 449.23,-14.12 449.27,-7.12"/>
</a>
</g>
</g>
<!-- Node3 -->
<g id="Node000003" class="node">
<title>Node3</title>
<g id="a_Node000003"><a xlink:href="Course_8h.html" target="_top" xlink:title=" ">
<polygon fill="white" stroke="#666666" points="952.5,-305 893.5,-305 893.5,-286 952.5,-286 952.5,-305"/>
<text text-anchor="middle" x="923" y="-293" font-family="Helvetica,sans-Serif" font-size="10.00">Course.h</text>
</a>
</g>
</g>
<!-- Node1&#45;&gt;Node3 -->
<g id="edge2_Node000001_Node000003" class="edge">
<title>Node1&#45;&gt;Node3</title>
<g id="a_edge2_Node000001_Node000003"><a xlink:title=" ">
<path fill="none" stroke="#63b8ff" d="M973.78,-340.84C963.76,-332.09 950.89,-320.85 940.62,-311.88"/>
<polygon fill="#63b8ff" stroke="#63b8ff" points="942.87,-309.21 933.04,-305.27 938.27,-314.48 942.87,-309.21"/>
</a>
</g>
</g>
<!-- Node6 -->
<g id="Node000006" class="node">
<title>Node6</title>
<g id="a_Node000006"><a xlink:href="camera_8h.html" target="_top" xlink:title=" ">
<polygon fill="white" stroke="#666666" points="632,-195 570,-195 570,-176 632,-176 632,-195"/>
<text text-anchor="middle" x="601" y="-183" font-family="Helvetica,sans-Serif" font-size="10.00">camera.h</text>
</a>
</g>
</g>
<!-- Node1&#45;&gt;Node6 -->
<g id="edge61_Node000001_Node000006" class="edge">
<title>Node1&#45;&gt;Node6</title>
<g id="a_edge61_Node000001_Node000006"><a xlink:title=" ">
<path fill="none" stroke="#63b8ff" d="M936.17,-348.27C839.87,-335.03 644.27,-302.23 603,-250 593.18,-237.57 593.75,-219.1 596.14,-205.28"/>
<polygon fill="#63b8ff" stroke="#63b8ff" points="599.58,-205.92 598.29,-195.4 592.74,-204.43 599.58,-205.92"/>
</a>
</g>
</g>
<!-- Node8 -->
<g id="Node000008" class="node">
<title>Node8</title>
<g id="a_Node000008"><a xlink:href="course__offsets_8h.html" target="_top" xlink:title=" ">
<polygon fill="white" stroke="#666666" points="551,-195 455,-195 455,-176 551,-176 551,-195"/>
<text text-anchor="middle" x="503" y="-183" font-family="Helvetica,sans-Serif" font-size="10.00">course_offsets.h</text>
</a>
</g>
</g>
<!-- Node1&#45;&gt;Node8 -->
<g id="edge60_Node000001_Node000008" class="edge">
<title>Node1&#45;&gt;Node8</title>
<g id="a_edge60_Node000001_Node000008"><a xlink:title=" ">
<path fill="none" stroke="#63b8ff" d="M936.3,-352.79C869.81,-348.72 753.85,-337.24 660,-305 612.76,-288.77 601.25,-280.89 562,-250 544.35,-236.11 527.22,-216.82 516,-203.16"/>
<polygon fill="#63b8ff" stroke="#63b8ff" points="518.53,-200.72 509.54,-195.1 513.07,-205.09 518.53,-200.72"/>
</a>
</g>
</g>
<!-- Node14 -->
<g id="Node000014" class="node">
<title>Node14</title>
<g id="a_Node000014"><a xlink:href="src_2data_2some__data_8h.html" target="_top" xlink:title=" ">
<polygon fill="white" stroke="#666666" points="1355,-250 1251,-250 1251,-231 1355,-231 1355,-250"/>
<text text-anchor="middle" x="1303" y="-238" font-family="Helvetica,sans-Serif" font-size="10.00">data/some_data.h</text>
</a>
</g>
</g>
<!-- Node1&#45;&gt;Node14 -->
<g id="edge62_Node000001_Node000014" class="edge">
<title>Node1&#45;&gt;Node14</title>
<g id="a_edge62_Node000001_Node000014"><a xlink:title=" ">
<path fill="none" stroke="#63b8ff" d="M1028.69,-340.97C1090.7,-318.49 1211.25,-274.77 1269.67,-253.59"/>
<polygon fill="#63b8ff" stroke="#63b8ff" points="1270.95,-256.84 1279.16,-250.14 1268.57,-250.26 1270.95,-256.84"/>
</a>
</g>
</g>
<!-- Node16 -->
<g id="Node000016" class="node">
<title>Node16</title>
<g id="a_Node000016"><a xlink:href="objects_8h.html" target="_top" xlink:title=" ">
<polygon fill="white" stroke="#666666" points="1413.5,-195 1352.5,-195 1352.5,-176 1413.5,-176 1413.5,-195"/>
<text text-anchor="middle" x="1383" y="-183" font-family="Helvetica,sans-Serif" font-size="10.00">objects.h</text>
</a>
</g>
</g>
<!-- Node1&#45;&gt;Node16 -->
<g id="edge63_Node000001_Node000016" class="edge">
<title>Node1&#45;&gt;Node16</title>
<g id="a_edge63_Node000001_Node000016"><a xlink:title=" ">
<path fill="none" stroke="#63b8ff" d="M1043.76,-355.34C1124.4,-352.85 1276.52,-336.1 1364,-250 1375.91,-238.28 1380.42,-219.43 1382.09,-205.31"/>
<polygon fill="#63b8ff" stroke="#63b8ff" points="1385.59,-205.47 1382.92,-195.22 1378.62,-204.9 1385.59,-205.47"/>
</a>
</g>
</g>
<!-- Node21 -->
<g id="Node000021" class="node">
<title>Node21</title>
<g id="a_Node000021"><a xlink:href="path__spawn__metadata_8h.html" target="_top" xlink:title=" ">
<polygon fill="white" stroke="#666666" points="1194.5,-250 1057.5,-250 1057.5,-231 1194.5,-231 1194.5,-250"/>
<text text-anchor="middle" x="1126" y="-238" font-family="Helvetica,sans-Serif" font-size="10.00">path_spawn_metadata.h</text>
</a>
</g>
</g>
<!-- Node1&#45;&gt;Node21 -->
<g id="edge64_Node000001_Node000021" class="edge">
<title>Node1&#45;&gt;Node21</title>
<g id="a_edge64_Node000001_Node000021"><a xlink:title=" ">
<path fill="none" stroke="#63b8ff" d="M1006.95,-340.85C1032.65,-319.41 1081.28,-278.82 1107.74,-256.74"/>
<polygon fill="#63b8ff" stroke="#63b8ff" points="1110.06,-259.37 1115.49,-250.27 1105.57,-253.99 1110.06,-259.37"/>
</a>
</g>
</g>
<!-- Node25 -->
<g id="Node000025" class="node">
<title>Node25</title>
<g id="a_Node000025"><a xlink:href="dks__jungle__parkway__vertices_8h.html" target="_top" xlink:title=" ">
<polygon fill="white" stroke="#666666" points="305.5,-140 154.5,-140 154.5,-110 305.5,-110 305.5,-140"/>
<text text-anchor="start" x="162.5" y="-128" font-family="Helvetica,sans-Serif" font-size="10.00">assets/dks_jungle_parkway</text>
<text text-anchor="middle" x="230" y="-117" font-family="Helvetica,sans-Serif" font-size="10.00">_vertices.h</text>
</a>
</g>
</g>
<!-- Node1&#45;&gt;Node25 -->
<g id="edge48_Node000001_Node000025" class="edge">
<title>Node1&#45;&gt;Node25</title>
<g id="a_edge48_Node000001_Node000025"><a xlink:title=" ">
<path fill="none" stroke="#63b8ff" d="M936.49,-355.19C853.95,-354.07 691.49,-346.21 561,-305 440.62,-266.98 313.37,-184.37 258.22,-146.14"/>
<polygon fill="#63b8ff" stroke="#63b8ff" points="259.89,-143.04 249.69,-140.19 255.89,-148.78 259.89,-143.04"/>
</a>
</g>
</g>
<!-- Node26 -->
<g id="Node000026" class="node">
<title>Node26</title>
<g id="a_Node000026"><a xlink:href="dks__jungle__parkway__displaylists_8h.html" target="_top" xlink:title=" ">
<polygon fill="white" stroke="#666666" points="474.5,-140 323.5,-140 323.5,-110 474.5,-110 474.5,-140"/>
<text text-anchor="start" x="331.5" y="-128" font-family="Helvetica,sans-Serif" font-size="10.00">assets/dks_jungle_parkway</text>
<text text-anchor="middle" x="399" y="-117" font-family="Helvetica,sans-Serif" font-size="10.00">_displaylists.h</text>
</a>
</g>
</g>
<!-- Node1&#45;&gt;Node26 -->
<g id="edge52_Node000001_Node000026" class="edge">
<title>Node1&#45;&gt;Node26</title>
<g id="a_edge52_Node000001_Node000026"><a xlink:title=" ">
<path fill="none" stroke="#63b8ff" d="M936.37,-355.62C860.87,-354.8 720.05,-347.06 609,-305 527.27,-274.04 507.93,-256.67 446,-195 432.27,-181.33 420.06,-163.11 411.53,-148.83"/>
<polygon fill="#63b8ff" stroke="#63b8ff" points="414.51,-147 406.47,-140.1 408.45,-150.51 414.51,-147"/>
</a>
</g>
</g>
<!-- Node27 -->
<g id="Node000027" class="node">
<title>Node27</title>
<g id="a_Node000027"><a xlink:href="dks__jungle__parkway__data_8h.html" target="_top" xlink:title=" ">
<polygon fill="white" stroke="#666666" points="720.5,-140 569.5,-140 569.5,-110 720.5,-110 720.5,-140"/>
<text text-anchor="start" x="577.5" y="-128" font-family="Helvetica,sans-Serif" font-size="10.00">assets/dks_jungle_parkway</text>
<text text-anchor="middle" x="645" y="-117" font-family="Helvetica,sans-Serif" font-size="10.00">_data.h</text>
</a>
</g>
</g>
<!-- Node1&#45;&gt;Node27 -->
<g id="edge56_Node000001_Node000027" class="edge">
<title>Node1&#45;&gt;Node27</title>
<g id="a_edge56_Node000001_Node000027"><a xlink:title=" ">
<path fill="none" stroke="#63b8ff" d="M993.75,-340.56C1001.58,-306.71 1015.54,-221.66 972,-176 936.38,-138.65 798.73,-147.36 730.81,-139.86"/>
<polygon fill="#63b8ff" stroke="#63b8ff" points="730.91,-136.34 720.53,-138.5 729.99,-143.28 730.91,-136.34"/>
</a>
</g>
</g>
<!-- Node4 -->
<g id="Node000004" class="node">
<title>Node4</title>
<g id="a_Node000004"><a xlink:title=" ">
<polygon fill="#e0e0e0" stroke="#999999" points="845,-250 707,-250 707,-231 845,-231 845,-250"/>
<text text-anchor="middle" x="776" y="-238" font-family="Helvetica,sans-Serif" font-size="10.00">libultraship/libultraship.h</text>
</a>
</g>
</g>
<!-- Node3&#45;&gt;Node4 -->
<g id="edge3_Node000003_Node000004" class="edge">
<title>Node3&#45;&gt;Node4</title>
<g id="a_edge3_Node000003_Node000004"><a xlink:title=" ">
<path fill="none" stroke="#63b8ff" d="M899.38,-285.98C875.1,-277.23 837.05,-263.51 809.63,-253.62"/>
<polygon fill="#63b8ff" stroke="#63b8ff" points="810.64,-250.27 800.05,-250.17 808.27,-256.85 810.64,-250.27"/>
</a>
</g>
</g>
<!-- Node5 -->
<g id="Node000005" class="node">
<title>Node5</title>
<g id="a_Node000005"><a xlink:href="CoreMath_8h.html" target="_top" xlink:title=" ">
<polygon fill="white" stroke="#666666" points="115.5,-195 42.5,-195 42.5,-176 115.5,-176 115.5,-195"/>
<text text-anchor="middle" x="79" y="-183" font-family="Helvetica,sans-Serif" font-size="10.00">CoreMath.h</text>
</a>
</g>
</g>
<!-- Node3&#45;&gt;Node5 -->
<g id="edge4_Node000003_Node000005" class="edge">
<title>Node3&#45;&gt;Node5</title>
<g id="a_edge4_Node000003_Node000005"><a xlink:title=" ">
<path fill="none" stroke="#63b8ff" d="M893.04,-290.89C831.16,-283.42 684.78,-265.64 562,-250 401.77,-229.59 211.79,-204.29 125.63,-192.76"/>
<polygon fill="#63b8ff" stroke="#63b8ff" points="126.02,-189.28 115.64,-191.42 125.09,-196.22 126.02,-189.28"/>
</a>
</g>
</g>
<!-- Node3&#45;&gt;Node6 -->
<g id="edge6_Node000003_Node000006" class="edge">
<title>Node3&#45;&gt;Node6</title>
<g id="a_edge6_Node000003_Node000006"><a xlink:title=" ">
<path fill="none" stroke="#63b8ff" d="M893.41,-294.08C825.38,-292.51 660.57,-285.08 620,-250 607.22,-238.95 602.85,-219.7 601.45,-205.28"/>
<polygon fill="#63b8ff" stroke="#63b8ff" points="604.93,-204.79 600.85,-195.01 597.94,-205.19 604.93,-204.79"/>
</a>
</g>
</g>
<!-- Node7 -->
<g id="Node000007" class="node">
<title>Node7</title>
<g id="a_Node000007"><a xlink:href="common__structs_8h.html" target="_top" xlink:title=" ">
<polygon fill="white" stroke="#666666" points="1250.5,-74 1143.5,-74 1143.5,-55 1250.5,-55 1250.5,-74"/>
<text text-anchor="middle" x="1197" y="-62" font-family="Helvetica,sans-Serif" font-size="10.00">common_structs.h</text>
</a>
</g>
</g>
<!-- Node3&#45;&gt;Node7 -->
<g id="edge47_Node000003_Node000007" class="edge">
<title>Node3&#45;&gt;Node7</title>
<g id="a_edge47_Node000003_Node000007"><a xlink:title=" ">
<path fill="none" stroke="#63b8ff" d="M937.42,-285.93C991.32,-253.9 1177.91,-142.89 1180,-140 1191.77,-123.75 1195.57,-100.69 1196.7,-84.54"/>
<polygon fill="#63b8ff" stroke="#63b8ff" points="1200.22,-84.34 1197.14,-74.2 1193.22,-84.05 1200.22,-84.34"/>
</a>
</g>
</g>
<!-- Node3&#45;&gt;Node8 -->
<g id="edge10_Node000003_Node000008" class="edge">
<title>Node3&#45;&gt;Node8</title>
<g id="a_edge10_Node000003_Node000008"><a xlink:title=" ">
<path fill="none" stroke="#63b8ff" d="M893.31,-294.53C835.57,-293.69 704.88,-287.42 603,-250 571.86,-238.56 540.26,-216.33 521.15,-201.45"/>
<polygon fill="#63b8ff" stroke="#63b8ff" points="523.29,-198.68 513.29,-195.19 518.93,-204.16 523.29,-198.68"/>
</a>
</g>
</g>
<!-- Node3&#45;&gt;Node14 -->
<g id="edge19_Node000003_Node000014" class="edge">
<title>Node3&#45;&gt;Node14</title>
<g id="a_edge19_Node000003_Node000014"><a xlink:title=" ">
<path fill="none" stroke="#63b8ff" d="M952.5,-290.39C1014.19,-281.78 1157.95,-261.73 1240.92,-250.16"/>
<polygon fill="#63b8ff" stroke="#63b8ff" points="1241.56,-253.6 1250.98,-248.76 1240.59,-246.67 1241.56,-253.6"/>
</a>
</g>
</g>
<!-- Node17 -->
<g id="Node000017" class="node">
<title>Node17</title>
<g id="a_Node000017"><a xlink:href="defines_8h.html" target="_top" xlink:title=" ">
<polygon fill="white" stroke="#666666" points="924.5,-250 863.5,-250 863.5,-231 924.5,-231 924.5,-250"/>
<text text-anchor="middle" x="894" y="-238" font-family="Helvetica,sans-Serif" font-size="10.00">defines.h</text>
</a>
</g>
</g>
<!-- Node3&#45;&gt;Node17 -->
<g id="edge27_Node000003_Node000017" class="edge">
<title>Node3&#45;&gt;Node17</title>
<g id="a_edge27_Node000003_Node000017"><a xlink:title=" ">
<path fill="none" stroke="#63b8ff" d="M918.21,-285.75C914.24,-278.49 908.47,-267.95 903.57,-258.98"/>
<polygon fill="#63b8ff" stroke="#63b8ff" points="906.57,-257.18 898.7,-250.09 900.43,-260.54 906.57,-257.18"/>
</a>
</g>
</g>
<!-- Node18 -->
<g id="Node000018" class="node">
<title>Node18</title>
<g id="a_Node000018"><a xlink:href="bomb__kart_8h.html" target="_top" xlink:title=" ">
<polygon fill="white" stroke="#666666" points="962.5,-195 885.5,-195 885.5,-176 962.5,-176 962.5,-195"/>
<text text-anchor="middle" x="924" y="-183" font-family="Helvetica,sans-Serif" font-size="10.00">bomb_kart.h</text>
</a>
</g>
</g>
<!-- Node3&#45;&gt;Node18 -->
<g id="edge28_Node000003_Node000018" class="edge">
<title>Node3&#45;&gt;Node18</title>
<g id="a_edge28_Node000003_Node000018"><a xlink:title=" ">
<path fill="none" stroke="#63b8ff" d="M925.83,-285.75C928.55,-276.86 932.46,-262.64 934,-250 935.86,-234.75 932.82,-217.54 929.62,-204.88"/>
<polygon fill="#63b8ff" stroke="#63b8ff" points="932.95,-203.79 926.89,-195.1 926.21,-205.67 932.95,-203.79"/>
</a>
</g>
</g>
<!-- Node3&#45;&gt;Node21 -->
<g id="edge35_Node000003_Node000021" class="edge">
<title>Node3&#45;&gt;Node21</title>
<g id="a_edge35_Node000003_Node000021"><a xlink:title=" ">
<path fill="none" stroke="#63b8ff" d="M952.52,-286.79C987.01,-277.79 1044.36,-262.81 1083.61,-252.57"/>
<polygon fill="#63b8ff" stroke="#63b8ff" points="1084.63,-255.92 1093.42,-250.01 1082.86,-249.15 1084.63,-255.92"/>
</a>
</g>
</g>
<!-- Node22 -->
<g id="Node000022" class="node">
<title>Node22</title>
<g id="a_Node000022"><a xlink:href="waypoints_8h.html" target="_top" xlink:title=" ">
<polygon fill="white" stroke="#666666" points="1220,-195 1144,-195 1144,-176 1220,-176 1220,-195"/>
<text text-anchor="middle" x="1182" y="-183" font-family="Helvetica,sans-Serif" font-size="10.00">waypoints.h</text>
</a>
</g>
</g>
<!-- Node3&#45;&gt;Node22 -->
<g id="edge45_Node000003_Node000022" class="edge">
<title>Node3&#45;&gt;Node22</title>
<g id="a_edge45_Node000003_Node000022"><a xlink:title=" ">
<path fill="none" stroke="#63b8ff" d="M952.85,-294.44C1018.46,-293.59 1171.92,-287.56 1204,-250 1215.31,-236.75 1205.95,-217.36 1196.18,-203.5"/>
<polygon fill="#63b8ff" stroke="#63b8ff" points="1198.76,-201.12 1189.91,-195.3 1193.2,-205.37 1198.76,-201.12"/>
</a>
</g>
</g>
<!-- Node24 -->
<g id="Node000024" class="node">
<title>Node24</title>
<g id="a_Node000024"><a xlink:href="sounds_8h.html" target="_top" xlink:title=" ">
<polygon fill="white" stroke="#666666" points="689,-250 629,-250 629,-231 689,-231 689,-250"/>
<text text-anchor="middle" x="659" y="-238" font-family="Helvetica,sans-Serif" font-size="10.00">sounds.h</text>
</a>
</g>
</g>
<!-- Node3&#45;&gt;Node24 -->
<g id="edge46_Node000003_Node000024" class="edge">
<title>Node3&#45;&gt;Node24</title>
<g id="a_edge46_Node000003_Node000024"><a xlink:title=" ">
<path fill="none" stroke="#63b8ff" d="M893.48,-288.85C852.29,-280.93 774.99,-265.91 699.39,-250.26"/>
<polygon fill="#63b8ff" stroke="#63b8ff" points="699.72,-246.75 689.22,-248.15 698.3,-253.61 699.72,-246.75"/>
</a>
</g>
</g>
<!-- Node5&#45;&gt;Node2 -->
<g id="edge5_Node000005_Node000002" class="edge">
<title>Node5&#45;&gt;Node2</title>
<g id="a_edge5_Node000005_Node000002"><a xlink:title=" ">
<path fill="none" stroke="#63b8ff" d="M59.73,-175.9C45.88,-168.55 28.24,-156.54 20,-140 12.79,-125.52 19.59,-60.56 25,-55 47.19,-32.19 251.87,-18.34 348.69,-13.01"/>
<polygon fill="#63b8ff" stroke="#63b8ff" points="349.03,-16.5 358.83,-12.46 348.66,-9.51 349.03,-16.5"/>
</a>
</g>
</g>
<!-- Node6&#45;&gt;Node2 -->
<g id="edge7_Node000006_Node000002" class="edge">
<title>Node6&#45;&gt;Node2</title>
<g id="a_edge7_Node000006_Node000002"><a xlink:title=" ">
<path fill="none" stroke="#63b8ff" d="M569.73,-177.58C566.46,-176.99 563.17,-176.44 560,-176 506.38,-168.49 110.85,-179.68 74,-140 48.29,-112.32 49.16,-83.47 74,-55 109.05,-14.82 266.69,-9.61 348.84,-9.71"/>
<polygon fill="#63b8ff" stroke="#63b8ff" points="348.94,-13.21 358.96,-9.75 348.97,-6.21 348.94,-13.21"/>
</a>
</g>
</g>
<!-- Node6&#45;&gt;Node7 -->
<g id="edge8_Node000006_Node000007" class="edge">
<title>Node6&#45;&gt;Node7</title>
<g id="a_edge8_Node000006_Node000007"><a xlink:title=" ">
<path fill="none" stroke="#63b8ff" d="M632.23,-183.06C737.69,-178.02 1076.59,-160.39 1121,-140 1124.76,-138.27 1160.42,-102.53 1181.53,-81.19"/>
<polygon fill="#63b8ff" stroke="#63b8ff" points="1184.03,-83.64 1188.57,-74.07 1179.05,-78.73 1184.03,-83.64"/>
</a>
</g>
</g>
<!-- Node7&#45;&gt;Node2 -->
<g id="edge9_Node000007_Node000002" class="edge">
<title>Node7&#45;&gt;Node2</title>
<g id="a_edge9_Node000007_Node000002"><a xlink:title=" ">
<path fill="none" stroke="#63b8ff" d="M1143.4,-59.94C996.97,-50.22 591.65,-23.29 449.25,-13.84"/>
<polygon fill="#63b8ff" stroke="#63b8ff" points="449.27,-10.33 439.06,-13.16 448.81,-17.32 449.27,-10.33"/>
</a>
</g>
</g>
<!-- Node8&#45;&gt;Node2 -->
<g id="edge11_Node000008_Node000002" class="edge">
<title>Node8&#45;&gt;Node2</title>
<g id="a_edge11_Node000008_Node000002"><a xlink:title=" ">
<path fill="none" stroke="#63b8ff" d="M454.91,-183.45C342.21,-180.49 68.46,-170.23 41,-140 15.6,-112.04 15.99,-83.31 41,-55 61.03,-32.32 254.84,-18.52 348.63,-13.12"/>
<polygon fill="#63b8ff" stroke="#63b8ff" points="348.96,-16.61 358.75,-12.55 348.57,-9.62 348.96,-16.61"/>
</a>
</g>
</g>
<!-- Node9 -->
<g id="Node000009" class="node">
<title>Node9</title>
<g id="a_Node000009"><a xlink:title=" ">
<polygon fill="#e0e0e0" stroke="#999999" points="90,-19 0,-19 0,0 90,0 90,-19"/>
<text text-anchor="middle" x="45" y="-7" font-family="Helvetica,sans-Serif" font-size="10.00">libultra/types.h</text>
</a>
</g>
</g>
<!-- Node8&#45;&gt;Node9 -->
<g id="edge12_Node000008_Node000009" class="edge">
<title>Node8&#45;&gt;Node9</title>
<g id="a_edge12_Node000008_Node000009"><a xlink:title=" ">
<path fill="none" stroke="#63b8ff" d="M454.89,-183.67C338.47,-181.15 48.94,-171.73 20,-140 -8.57,-108.67 17.27,-54.91 33.76,-27.56"/>
<polygon fill="#63b8ff" stroke="#63b8ff" points="36.74,-29.4 39.09,-19.07 30.81,-25.67 36.74,-29.4"/>
</a>
</g>
</g>
<!-- Node10 -->
<g id="Node000010" class="node">
<title>Node10</title>
<g id="a_Node000010"><a xlink:title=" ">
<polygon fill="#e0e0e0" stroke="#999999" points="523,-74 445,-74 445,-55 523,-55 523,-74"/>
<text text-anchor="middle" x="484" y="-62" font-family="Helvetica,sans-Serif" font-size="10.00">libultra/gbi.h</text>
</a>
</g>
</g>
<!-- Node8&#45;&gt;Node10 -->
<g id="edge13_Node000008_Node000010" class="edge">
<title>Node8&#45;&gt;Node10</title>
<g id="a_edge13_Node000008_Node000010"><a xlink:title=" ">
<path fill="none" stroke="#63b8ff" d="M501.63,-175.94C498.59,-156.91 491.22,-110.69 487.03,-84.47"/>
<polygon fill="#63b8ff" stroke="#63b8ff" points="490.44,-83.62 485.41,-74.3 483.53,-84.73 490.44,-83.62"/>
</a>
</g>
</g>
<!-- Node11 -->
<g id="Node000011" class="node">
<title>Node11</title>
<g id="a_Node000011"><a xlink:href="other__textures_8h.html" target="_top" xlink:title=" ">
<polygon fill="white" stroke="#666666" points="1018.5,-134.5 887.5,-134.5 887.5,-115.5 1018.5,-115.5 1018.5,-134.5"/>
<text text-anchor="middle" x="953" y="-122.5" font-family="Helvetica,sans-Serif" font-size="10.00">assets/other_textures.h</text>
</a>
</g>
</g>
<!-- Node8&#45;&gt;Node11 -->
<g id="edge14_Node000008_Node000011" class="edge">
<title>Node8&#45;&gt;Node11</title>
<g id="a_edge14_Node000008_Node000011"><a xlink:title=" ">
<path fill="none" stroke="#63b8ff" d="M551.09,-177.33C554.44,-176.87 557.77,-176.42 561,-176 701.61,-157.72 737.77,-161.02 878,-140 885.2,-138.92 892.78,-137.66 900.22,-136.34"/>
<polygon fill="#63b8ff" stroke="#63b8ff" points="901.04,-139.75 910.25,-134.53 899.79,-132.86 901.04,-139.75"/>
</a>
</g>
</g>
<!-- Node13 -->
<g id="Node000013" class="node">
<title>Node13</title>
<g id="a_Node000013"><a xlink:href="animation_8h.html" target="_top" xlink:title=" ">
<polygon fill="white" stroke="#666666" points="1111.5,-134.5 1036.5,-134.5 1036.5,-115.5 1111.5,-115.5 1111.5,-134.5"/>
<text text-anchor="middle" x="1074" y="-122.5" font-family="Helvetica,sans-Serif" font-size="10.00">animation.h</text>
</a>
</g>
</g>
<!-- Node8&#45;&gt;Node13 -->
<g id="edge17_Node000008_Node000013" class="edge">
<title>Node8&#45;&gt;Node13</title>
<g id="a_edge17_Node000008_Node000013"><a xlink:title=" ">
<path fill="none" stroke="#63b8ff" d="M551.07,-177.2C554.43,-176.77 557.76,-176.36 561,-176 767.89,-152.89 823.43,-178.54 1028,-140 1031.86,-139.27 1035.85,-138.34 1039.8,-137.3"/>
<polygon fill="#63b8ff" stroke="#63b8ff" points="1040.76,-140.67 1049.42,-134.56 1038.84,-133.94 1040.76,-140.67"/>
</a>
</g>
</g>
<!-- Node11&#45;&gt;Node2 -->
<g id="edge15_Node000011_Node000002" class="edge">
<title>Node11&#45;&gt;Node2</title>
<g id="a_edge15_Node000011_Node000002"><a xlink:title=" ">
<path fill="none" stroke="#63b8ff" d="M928.27,-115.43C885.77,-101 795.94,-71.78 718,-55 624.01,-34.76 512.39,-21.64 449.21,-15.2"/>
<polygon fill="#63b8ff" stroke="#63b8ff" points="449.42,-11.7 439.12,-14.18 448.72,-18.67 449.42,-11.7"/>
</a>
</g>
</g>
<!-- Node12 -->
<g id="Node000012" class="node">
<title>Node12</title>
<g id="a_Node000012"><a xlink:href="align__asset__macro_8h.html" target="_top" xlink:title=" ">
<polygon fill="white" stroke="#666666" points="658.5,-74 541.5,-74 541.5,-55 658.5,-55 658.5,-74"/>
<text text-anchor="middle" x="600" y="-62" font-family="Helvetica,sans-Serif" font-size="10.00">align_asset_macro.h</text>
</a>
</g>
</g>
<!-- Node11&#45;&gt;Node12 -->
<g id="edge16_Node000011_Node000012" class="edge">
<title>Node11&#45;&gt;Node12</title>
<g id="a_edge16_Node000011_Node000012"><a xlink:title=" ">
<path fill="none" stroke="#63b8ff" d="M908.22,-115.45C898.28,-113.6 887.79,-111.7 878,-110 805.69,-97.47 722.56,-84.33 666.19,-75.6"/>
<polygon fill="#63b8ff" stroke="#63b8ff" points="666.4,-72.09 655.98,-74.03 665.33,-79.01 666.4,-72.09"/>
</a>
</g>
</g>
<!-- Node13&#45;&gt;Node7 -->
<g id="edge18_Node000013_Node000007" class="edge">
<title>Node13&#45;&gt;Node7</title>
<g id="a_edge18_Node000013_Node000007"><a xlink:title=" ">
<path fill="none" stroke="#63b8ff" d="M1091.89,-115.49C1112.38,-105.75 1146.19,-89.66 1169.92,-78.38"/>
<polygon fill="#63b8ff" stroke="#63b8ff" points="1171.57,-81.47 1179.09,-74.02 1168.56,-75.15 1171.57,-81.47"/>
</a>
</g>
</g>
<!-- Node14&#45;&gt;Node10 -->
<g id="edge20_Node000014_Node000010" class="edge">
<title>Node14&#45;&gt;Node10</title>
<g id="a_edge20_Node000014_Node000010"><a xlink:title=" ">
<path fill="none" stroke="#63b8ff" d="M1296.36,-230.95C1284.6,-216.54 1258.54,-187.85 1229,-176 1090.82,-120.57 696.27,-199.97 560,-140 532.35,-127.83 509.02,-100.82 495.77,-82.88"/>
<polygon fill="#63b8ff" stroke="#63b8ff" points="498.43,-80.59 489.79,-74.46 492.72,-84.64 498.43,-80.59"/>
</a>
</g>
</g>
<!-- Node14&#45;&gt;Node11 -->
<g id="edge23_Node000014_Node000011" class="edge">
<title>Node14&#45;&gt;Node11</title>
<g id="a_edge23_Node000014_Node000011"><a xlink:title=" ">
<path fill="none" stroke="#63b8ff" d="M1300.07,-230.83C1294.84,-216.78 1282.48,-189.28 1262,-176 1173.7,-118.77 1131.73,-157.66 1028,-140 1021.33,-138.87 1014.34,-137.63 1007.42,-136.37"/>
<polygon fill="#63b8ff" stroke="#63b8ff" points="1007.84,-132.89 997.38,-134.53 1006.58,-139.77 1007.84,-132.89"/>
</a>
</g>
</g>
<!-- Node15 -->
<g id="Node000015" class="node">
<title>Node15</title>
<g id="a_Node000015"><a xlink:href="spline_8h.html" target="_top" xlink:title=" ">
<polygon fill="white" stroke="#666666" points="1375.5,-134.5 1320.5,-134.5 1320.5,-115.5 1375.5,-115.5 1375.5,-134.5"/>
<text text-anchor="middle" x="1348" y="-122.5" font-family="Helvetica,sans-Serif" font-size="10.00">spline.h</text>
</a>
</g>
</g>
<!-- Node14&#45;&gt;Node15 -->
<g id="edge21_Node000014_Node000015" class="edge">
<title>Node14&#45;&gt;Node15</title>
<g id="a_edge21_Node000014_Node000015"><a xlink:title=" ">
<path fill="none" stroke="#63b8ff" d="M1306.38,-230.97C1313.68,-212.56 1331.03,-168.79 1340.87,-143.98"/>
<polygon fill="#63b8ff" stroke="#63b8ff" points="1344.15,-145.22 1344.58,-134.63 1337.64,-142.64 1344.15,-145.22"/>
</a>
</g>
</g>
<!-- Node14&#45;&gt;Node16 -->
<g id="edge24_Node000014_Node000016" class="edge">
<title>Node14&#45;&gt;Node16</title>
<g id="a_edge24_Node000014_Node000016"><a xlink:title=" ">
<path fill="none" stroke="#63b8ff" d="M1315.85,-230.98C1328.14,-222.84 1346.91,-210.41 1361.48,-200.76"/>
<polygon fill="#63b8ff" stroke="#63b8ff" points="1363.51,-203.61 1369.91,-195.17 1359.64,-197.78 1363.51,-203.61"/>
</a>
</g>
</g>
<!-- Node15&#45;&gt;Node7 -->
<g id="edge22_Node000015_Node000007" class="edge">
<title>Node15&#45;&gt;Node7</title>
<g id="a_edge22_Node000015_Node000007"><a xlink:title=" ">
<path fill="none" stroke="#63b8ff" d="M1326.04,-115.49C1300.32,-105.53 1257.52,-88.95 1228.32,-77.63"/>
<polygon fill="#63b8ff" stroke="#63b8ff" points="1229.57,-74.37 1218.98,-74.02 1227.04,-80.89 1229.57,-74.37"/>
</a>
</g>
</g>
<!-- Node16&#45;&gt;Node7 -->
<g id="edge26_Node000016_Node000007" class="edge">
<title>Node16&#45;&gt;Node7</title>
<g id="a_edge26_Node000016_Node000007"><a xlink:title=" ">
<path fill="none" stroke="#63b8ff" d="M1386.54,-175.56C1391.94,-160.31 1400.09,-129.08 1385,-110 1369.61,-90.54 1309.19,-78.71 1260.95,-72.19"/>
<polygon fill="#63b8ff" stroke="#63b8ff" points="1261.23,-68.69 1250.86,-70.88 1260.33,-75.64 1261.23,-68.69"/>
</a>
</g>
</g>
<!-- Node16&#45;&gt;Node15 -->
<g id="edge25_Node000016_Node000015" class="edge">
<title>Node16&#45;&gt;Node15</title>
<g id="a_edge25_Node000016_Node000015"><a xlink:title=" ">
<path fill="none" stroke="#63b8ff" d="M1377.84,-175.87C1372.77,-167.4 1364.9,-154.24 1358.51,-143.57"/>
<polygon fill="#63b8ff" stroke="#63b8ff" points="1361.32,-141.45 1353.19,-134.67 1355.32,-145.05 1361.32,-141.45"/>
</a>
</g>
</g>
<!-- Node18&#45;&gt;Node7 -->
<g id="edge29_Node000018_Node000007" class="edge">
<title>Node18&#45;&gt;Node7</title>
<g id="a_edge29_Node000018_Node000007"><a xlink:title=" ">
<path fill="none" stroke="#63b8ff" d="M962.67,-177.88C1026.14,-166.89 1146.23,-145.54 1154,-140 1173.34,-126.22 1185.24,-100.82 1191.49,-83.55"/>
<polygon fill="#63b8ff" stroke="#63b8ff" points="1194.82,-84.61 1194.66,-74.02 1188.18,-82.4 1194.82,-84.61"/>
</a>
</g>
</g>
<!-- Node19 -->
<g id="Node000019" class="node">
<title>Node19</title>
<g id="a_Node000019"><a xlink:href="mk64_8h.html" target="_top" xlink:title=" ">
<polygon fill="white" stroke="#666666" points="136.5,-134.5 83.5,-134.5 83.5,-115.5 136.5,-115.5 136.5,-134.5"/>
<text text-anchor="middle" x="110" y="-122.5" font-family="Helvetica,sans-Serif" font-size="10.00">mk64.h</text>
</a>
</g>
</g>
<!-- Node18&#45;&gt;Node19 -->
<g id="edge30_Node000018_Node000019" class="edge">
<title>Node18&#45;&gt;Node19</title>
<g id="a_edge30_Node000018_Node000019"><a xlink:title=" ">
<path fill="none" stroke="#63b8ff" d="M885.43,-183.03C738.39,-177.32 217.56,-156.13 145,-140 142.63,-139.47 140.21,-138.8 137.8,-138.05"/>
<polygon fill="#63b8ff" stroke="#63b8ff" points="138.77,-134.67 128.17,-134.56 136.38,-141.25 138.77,-134.67"/>
</a>
</g>
</g>
<!-- Node19&#45;&gt;Node2 -->
<g id="edge31_Node000019_Node000002" class="edge">
<title>Node19&#45;&gt;Node2</title>
<g id="a_edge31_Node000019_Node000002"><a xlink:title=" ">
<path fill="none" stroke="#63b8ff" d="M131.46,-115.39C135.93,-113.6 140.62,-111.73 145,-110 224.96,-78.35 319.28,-41.54 367.36,-22.81"/>
<polygon fill="#63b8ff" stroke="#63b8ff" points="368.85,-25.99 376.9,-19.1 366.31,-19.46 368.85,-25.99"/>
</a>
</g>
</g>
<!-- Node19&#45;&gt;Node10 -->
<g id="edge34_Node000019_Node000010" class="edge">
<title>Node19&#45;&gt;Node10</title>
<g id="a_edge34_Node000019_Node000010"><a xlink:title=" ">
<path fill="none" stroke="#63b8ff" d="M128.96,-115.41C134.08,-113.37 139.68,-111.39 145,-110 245.85,-83.65 367.86,-72.51 434.54,-68.11"/>
<polygon fill="#63b8ff" stroke="#63b8ff" points="435,-71.59 444.75,-67.47 434.55,-64.61 435,-71.59"/>
</a>
</g>
</g>
<!-- Node20 -->
<g id="Node000020" class="node">
<title>Node20</title>
<g id="a_Node000020"><a xlink:href="string_8h.html" target="_top" xlink:title=" ">
<polygon fill="white" stroke="#666666" points="136.5,-74 83.5,-74 83.5,-55 136.5,-55 136.5,-74"/>
<text text-anchor="middle" x="110" y="-62" font-family="Helvetica,sans-Serif" font-size="10.00">string.h</text>
</a>
</g>
</g>
<!-- Node19&#45;&gt;Node20 -->
<g id="edge32_Node000019_Node000020" class="edge">
<title>Node19&#45;&gt;Node20</title>
<g id="a_edge32_Node000019_Node000020"><a xlink:title=" ">
<path fill="none" stroke="#63b8ff" d="M110,-115.37C110,-107.25 110,-94.81 110,-84.39"/>
<polygon fill="#63b8ff" stroke="#63b8ff" points="113.5,-84.17 110,-74.17 106.5,-84.17 113.5,-84.17"/>
</a>
</g>
</g>
<!-- Node20&#45;&gt;Node9 -->
<g id="edge33_Node000020_Node000009" class="edge">
<title>Node20&#45;&gt;Node9</title>
<g id="a_edge33_Node000020_Node000009"><a xlink:title=" ">
<path fill="none" stroke="#63b8ff" d="M99.56,-54.98C89.85,-47.07 75.18,-35.11 63.5,-25.58"/>
<polygon fill="#63b8ff" stroke="#63b8ff" points="65.6,-22.78 55.63,-19.17 61.17,-28.2 65.6,-22.78"/>
</a>
</g>
</g>
<!-- Node21&#45;&gt;Node7 -->
<g id="edge38_Node000021_Node000007" class="edge">
<title>Node21&#45;&gt;Node7</title>
<g id="a_edge38_Node000021_Node000007"><a xlink:title=" ">
<path fill="none" stroke="#63b8ff" d="M1124.65,-230.62C1123.13,-217.24 1122.34,-191.82 1135,-176 1163.2,-140.74 1204.35,-177.16 1230,-140 1242.73,-121.56 1227.08,-97.42 1213.29,-81.69"/>
<polygon fill="#63b8ff" stroke="#63b8ff" points="1215.78,-79.24 1206.41,-74.31 1210.66,-84.01 1215.78,-79.24"/>
</a>
</g>
</g>
<!-- Node21&#45;&gt;Node18 -->
<g id="edge44_Node000021_Node000018" class="edge">
<title>Node21&#45;&gt;Node18</title>
<g id="a_edge44_Node000021_Node000018"><a xlink:title=" ">
<path fill="none" stroke="#63b8ff" d="M1093.55,-230.98C1059.04,-221.93 1004.34,-207.58 966.44,-197.64"/>
<polygon fill="#63b8ff" stroke="#63b8ff" points="967.27,-194.23 956.71,-195.08 965.49,-201.01 967.27,-194.23"/>
</a>
</g>
</g>
<!-- Node21&#45;&gt;Node22 -->
<g id="edge36_Node000021_Node000022" class="edge">
<title>Node21&#45;&gt;Node22</title>
<g id="a_edge36_Node000021_Node000022"><a xlink:title=" ">
<path fill="none" stroke="#63b8ff" d="M1135,-230.98C1143.19,-223.23 1155.51,-211.58 1165.47,-202.14"/>
<polygon fill="#63b8ff" stroke="#63b8ff" points="1167.98,-204.59 1172.84,-195.17 1163.17,-199.5 1167.98,-204.59"/>
</a>
</g>
</g>
<!-- Node23 -->
<g id="Node000023" class="node">
<title>Node23</title>
<g id="a_Node000023"><a xlink:href="common__data_8h.html" target="_top" xlink:title=" ">
<polygon fill="white" stroke="#666666" points="869,-134.5 739,-134.5 739,-115.5 869,-115.5 869,-134.5"/>
<text text-anchor="middle" x="804" y="-122.5" font-family="Helvetica,sans-Serif" font-size="10.00">assets/common_data.h</text>
</a>
</g>
</g>
<!-- Node21&#45;&gt;Node23 -->
<g id="edge39_Node000021_Node000023" class="edge">
<title>Node21&#45;&gt;Node23</title>
<g id="a_edge39_Node000021_Node000023"><a xlink:title=" ">
<path fill="none" stroke="#63b8ff" d="M1117.2,-230.56C1102.95,-216.63 1073.35,-189.91 1043,-176 1034.53,-172.12 925.07,-150.01 857.26,-136.52"/>
<polygon fill="#63b8ff" stroke="#63b8ff" points="857.66,-133.03 847.17,-134.52 856.29,-139.9 857.66,-133.03"/>
</a>
</g>
</g>
<!-- Node22&#45;&gt;Node7 -->
<g id="edge37_Node000022_Node000007" class="edge">
<title>Node22&#45;&gt;Node7</title>
<g id="a_edge37_Node000022_Node000007"><a xlink:title=" ">
<path fill="none" stroke="#63b8ff" d="M1217.05,-175.88C1235.65,-169.33 1256.9,-158.24 1268,-140 1274.93,-128.61 1274.46,-121.67 1268,-110 1260.16,-95.83 1245.71,-85.57 1231.89,-78.5"/>
<polygon fill="#63b8ff" stroke="#63b8ff" points="1233.05,-75.18 1222.51,-74.1 1230.08,-81.52 1233.05,-75.18"/>
</a>
</g>
</g>
<!-- Node23&#45;&gt;Node2 -->
<g id="edge41_Node000023_Node000002" class="edge">
<title>Node23&#45;&gt;Node2</title>
<g id="a_edge41_Node000023_Node000002"><a xlink:title=" ">
<path fill="none" stroke="#63b8ff" d="M792.45,-115.39C771.83,-100.5 726.84,-70.08 684,-55 604.9,-27.17 507.34,-16.7 449.32,-12.8"/>
<polygon fill="#63b8ff" stroke="#63b8ff" points="449.51,-9.3 439.31,-12.16 449.07,-16.29 449.51,-9.3"/>
</a>
</g>
</g>
<!-- Node23&#45;&gt;Node7 -->
<g id="edge42_Node000023_Node000007" class="edge">
<title>Node23&#45;&gt;Node7</title>
<g id="a_edge42_Node000023_Node000007"><a xlink:title=" ">
<path fill="none" stroke="#63b8ff" d="M847.96,-115.45C858.14,-113.56 868.93,-111.64 879,-110 967,-95.64 1069.17,-81.85 1133.45,-73.53"/>
<polygon fill="#63b8ff" stroke="#63b8ff" points="1133.97,-76.99 1143.44,-72.24 1133.07,-70.05 1133.97,-76.99"/>
</a>
</g>
</g>
<!-- Node23&#45;&gt;Node10 -->
<g id="edge40_Node000023_Node000010" class="edge">
<title>Node23&#45;&gt;Node10</title>
<g id="a_edge40_Node000023_Node000010"><a xlink:title=" ">
<path fill="none" stroke="#63b8ff" d="M759.01,-115.43C749.44,-113.62 739.39,-111.74 730,-110 661.87,-97.39 583.04,-83.2 533.36,-74.31"/>
<polygon fill="#63b8ff" stroke="#63b8ff" points="533.68,-70.81 523.21,-72.49 532.44,-77.7 533.68,-70.81"/>
</a>
</g>
</g>
<!-- Node23&#45;&gt;Node12 -->
<g id="edge43_Node000023_Node000012" class="edge">
<title>Node23&#45;&gt;Node12</title>
<g id="a_edge43_Node000023_Node000012"><a xlink:title=" ">
<path fill="none" stroke="#63b8ff" d="M774.34,-115.49C738.76,-105.29 678.98,-88.15 639.52,-76.83"/>
<polygon fill="#63b8ff" stroke="#63b8ff" points="640.28,-73.41 629.7,-74.02 638.35,-80.14 640.28,-73.41"/>
</a>
</g>
</g>
<!-- Node25&#45;&gt;Node2 -->
<g id="edge49_Node000025_Node000002" class="edge">
<title>Node25&#45;&gt;Node2</title>
<g id="a_edge49_Node000025_Node000002"><a xlink:title=" ">
<path fill="none" stroke="#63b8ff" d="M251.06,-109.85C283.41,-88.13 345,-46.77 377.57,-24.89"/>
<polygon fill="#63b8ff" stroke="#63b8ff" points="379.59,-27.75 385.94,-19.27 375.69,-21.94 379.59,-27.75"/>
</a>
</g>
</g>
<!-- Node25&#45;&gt;Node10 -->
<g id="edge50_Node000025_Node000010" class="edge">
<title>Node25&#45;&gt;Node10</title>
<g id="a_edge50_Node000025_Node000010"><a xlink:title=" ">
<path fill="none" stroke="#63b8ff" d="M290.84,-109.99C335.72,-99.65 395.89,-85.79 437.08,-76.31"/>
<polygon fill="#63b8ff" stroke="#63b8ff" points="437.9,-79.71 446.86,-74.05 436.33,-72.89 437.9,-79.71"/>
</a>
</g>
</g>
<!-- Node25&#45;&gt;Node12 -->
<g id="edge51_Node000025_Node000012" class="edge">
<title>Node25&#45;&gt;Node12</title>
<g id="a_edge51_Node000025_Node000012"><a xlink:title=" ">
<path fill="none" stroke="#63b8ff" d="M305.55,-111.37C308.4,-110.9 311.23,-110.45 314,-110 389.35,-97.86 475.96,-84.46 533.95,-75.57"/>
<polygon fill="#63b8ff" stroke="#63b8ff" points="534.72,-78.99 544.07,-74.02 533.66,-72.07 534.72,-78.99"/>
</a>
</g>
</g>
<!-- Node26&#45;&gt;Node2 -->
<g id="edge53_Node000026_Node000002" class="edge">
<title>Node26&#45;&gt;Node2</title>
<g id="a_edge53_Node000026_Node000002"><a xlink:title=" ">
<path fill="none" stroke="#63b8ff" d="M399,-109.63C399,-89.21 399,-51.81 399,-29.24"/>
<polygon fill="#63b8ff" stroke="#63b8ff" points="402.5,-29.23 399,-19.23 395.5,-29.23 402.5,-29.23"/>
</a>
</g>
</g>
<!-- Node26&#45;&gt;Node10 -->
<g id="edge54_Node000026_Node000010" class="edge">
<title>Node26&#45;&gt;Node10</title>
<g id="a_edge54_Node000026_Node000010"><a xlink:title=" ">
<path fill="none" stroke="#63b8ff" d="M419.58,-109.84C432.67,-100.83 449.59,-89.18 462.8,-80.09"/>
<polygon fill="#63b8ff" stroke="#63b8ff" points="465.01,-82.82 471.26,-74.27 461.04,-77.05 465.01,-82.82"/>
</a>
</g>
</g>
<!-- Node26&#45;&gt;Node12 -->
<g id="edge55_Node000026_Node000012" class="edge">
<title>Node26&#45;&gt;Node12</title>
<g id="a_edge55_Node000026_Node000012"><a xlink:title=" ">
<path fill="none" stroke="#63b8ff" d="M447.14,-109.99C481.98,-99.85 528.47,-86.32 560.99,-76.85"/>
<polygon fill="#63b8ff" stroke="#63b8ff" points="561.99,-80.21 570.61,-74.05 560.03,-73.49 561.99,-80.21"/>
</a>
</g>
</g>
<!-- Node27&#45;&gt;Node2 -->
<g id="edge57_Node000027_Node000002" class="edge">
<title>Node27&#45;&gt;Node2</title>
<g id="a_edge57_Node000027_Node000002"><a xlink:title=" ">
<path fill="none" stroke="#63b8ff" d="M656.97,-109.79C668.19,-94.67 681.39,-70.79 668,-55 640.55,-22.64 519.6,-13.78 449.58,-11.37"/>
<polygon fill="#63b8ff" stroke="#63b8ff" points="449.33,-7.87 439.22,-11.05 449.11,-14.86 449.33,-7.87"/>
</a>
</g>
</g>
<!-- Node27&#45;&gt;Node10 -->
<g id="edge58_Node000027_Node000010" class="edge">
<title>Node27&#45;&gt;Node10</title>
<g id="a_edge58_Node000027_Node000010"><a xlink:title=" ">
<path fill="none" stroke="#63b8ff" d="M606.44,-109.99C579.21,-100.1 543.12,-86.98 517.18,-77.56"/>
<polygon fill="#63b8ff" stroke="#63b8ff" points="518.37,-74.26 507.78,-74.14 515.98,-80.84 518.37,-74.26"/>
</a>
</g>
</g>
<!-- Node27&#45;&gt;Node12 -->
<g id="edge59_Node000027_Node000012" class="edge">
<title>Node27&#45;&gt;Node12</title>
<g id="a_edge59_Node000027_Node000012"><a xlink:title=" ">
<path fill="none" stroke="#63b8ff" d="M634.11,-109.84C627.71,-101.52 619.58,-90.96 612.87,-82.23"/>
<polygon fill="#63b8ff" stroke="#63b8ff" points="615.61,-80.06 606.74,-74.27 610.07,-84.33 615.61,-80.06"/>
</a>
</g>
</g>
</g>
</svg>
