<?xml version="1.0" encoding="UTF-8" standalone="no"?>
<!DOCTYPE svg PUBLIC "-//W3C//DTD SVG 1.1//EN"
 "http://www.w3.org/Graphics/SVG/1.1/DTD/svg11.dtd">
<!-- Generated by graphviz version 2.43.0 (0)
 -->
<!-- Title: src/engine/courses/DoubleDeck.h Pages: 1 -->
<!--zoomable 379 -->

<svg id="main" version="1.1" xmlns="http://www.w3.org/2000/svg" xmlns:xlink="http://www.w3.org/1999/xlink" xml:space="preserve" onload="init(evt)">

<style type="text/css"><![CDATA[
.node, .edge {opacity: 0.7;}
.node.selected, .edge.selected {opacity: 1;}
.edge:hover path { stroke: red; }
.edge:hover polygon { stroke: red; fill: red; }
]]></style>

<defs>
  <circle id="rim" cx="0" cy="0" r="7"/>
  <circle id="rim2" cx="0" cy="0" r="3.5"/>
  <g id="zoomPlus">
    <use xlink:href="#rim" fill="#404040"><set attributeName="fill" to="#808080" begin="zoomplus.mouseover" end="zoomplus.mouseout"/></use>
    <path d="M-4,0h8M0,-4v8" fill="none" stroke="white" stroke-width="1.5" pointer-events="none"/>
  </g>
  <g id="zoomMin">
    <use xlink:href="#rim" fill="#404040"><set attributeName="fill" to="#808080" begin="zoomminus.mouseover" end="zoomminus.mouseout"/></use>
    <path d="M-4,0h8" fill="none" stroke="white" stroke-width="1.5" pointer-events="none"/>
  </g>
  <g id="arrowUp" transform="translate(30 24)">
    <use xlink:href="#rim"/>
    <path pointer-events="none" fill="none" stroke="white" stroke-width="1.5" d="M0,-3.0v7 M-2.5,-0.5L0,-3.0L2.5,-0.5"/>
  </g>
  <g id="arrowRight" transform="rotate(90) translate(36 -43)">
    <use xlink:href="#rim"/>
    <path pointer-events="none" fill="none" stroke="white" stroke-width="1.5" d="M0,-3.0v7 M-2.5,-0.5L0,-3.0L2.5,-0.5"/>
  </g>
  <g id="arrowDown" transform="rotate(180) translate(-30 -48)">
    <use xlink:href="#rim"/>
    <path pointer-events="none" fill="none" stroke="white" stroke-width="1.5" d="M0,-3.0v7 M-2.5,-0.5L0,-3.0L2.5,-0.5"/>
  </g>
  <g id="arrowLeft" transform="rotate(270) translate(-36 17)">
    <use xlink:href="#rim"/>
    <path pointer-events="none" fill="none" stroke="white" stroke-width="1.5" d="M0,-3.0v7 M-2.5,-0.5L0,-3.0L2.5,-0.5"/>
  </g>
  <g id="resetDef">
    <use xlink:href="#rim2" fill="#404040"><set attributeName="fill" to="#808080" begin="reset.mouseover" end="reset.mouseout"/></use>
  </g>
</defs>
<script type="application/ecmascript">
var viewWidth = 1357;
var viewHeight = 379;
var sectionId = 'dynsection-0';
</script>
<script type="application/ecmascript" xlink:href="svg.min.js"/>
<svg id="graph" class="graph">
<g id="viewport">
<title>src/engine/courses/DoubleDeck.h</title>
<!-- Node1 -->
<g id="Node000001" class="node">
<title>Node1</title>
<g id="a_Node000001"><a xlink:title=" ">
<polygon fill="#999999" stroke="#666666" points="954.5,-371 847.5,-371 847.5,-341 954.5,-341 954.5,-371"/>
<text text-anchor="start" x="855.5" y="-359" font-family="Helvetica,sans-Serif" font-size="10.00">src/engine/courses</text>
<text text-anchor="middle" x="901" y="-348" font-family="Helvetica,sans-Serif" font-size="10.00">/DoubleDeck.h</text>
</a>
</g>
</g>
<!-- Node2 -->
<g id="Node000002" class="node">
<title>Node2</title>
<g id="a_Node000002"><a xlink:title=" ">
<polygon fill="#e0e0e0" stroke="#999999" points="382,-19 302,-19 302,0 382,0 382,-19"/>
<text text-anchor="middle" x="342" y="-7" font-family="Helvetica,sans-Serif" font-size="10.00">libultraship.h</text>
</a>
</g>
</g>
<!-- Node1&#45;&gt;Node2 -->
<g id="edge1_Node000001_Node000002" class="edge">
<title>Node1&#45;&gt;Node2</title>
<g id="a_edge1_Node000001_Node000002"><a xlink:title=" ">
<path fill="none" stroke="#63b8ff" d="M954.59,-352.68C1073.51,-346.06 1349,-322.04 1349,-241.5 1349,-241.5 1349,-241.5 1349,-124 1349,-26.62 595.81,-12.78 392.21,-10.82"/>
<polygon fill="#63b8ff" stroke="#63b8ff" points="392.13,-7.32 382.1,-10.73 392.06,-14.32 392.13,-7.32"/>
</a>
</g>
</g>
<!-- Node3 -->
<g id="Node000003" class="node">
<title>Node3</title>
<g id="a_Node000003"><a xlink:href="Course_8h.html" target="_top" xlink:title=" ">
<polygon fill="white" stroke="#666666" points="863.5,-305 804.5,-305 804.5,-286 863.5,-286 863.5,-305"/>
<text text-anchor="middle" x="834" y="-293" font-family="Helvetica,sans-Serif" font-size="10.00">Course.h</text>
</a>
</g>
</g>
<!-- Node1&#45;&gt;Node3 -->
<g id="edge2_Node000001_Node000003" class="edge">
<title>Node1&#45;&gt;Node3</title>
<g id="a_edge2_Node000001_Node000003"><a xlink:title=" ">
<path fill="none" stroke="#63b8ff" d="M884.78,-340.84C874.76,-332.09 861.89,-320.85 851.62,-311.88"/>
<polygon fill="#63b8ff" stroke="#63b8ff" points="853.87,-309.21 844.04,-305.27 849.27,-314.48 853.87,-309.21"/>
</a>
</g>
</g>
<!-- Node6 -->
<g id="Node000006" class="node">
<title>Node6</title>
<g id="a_Node000006"><a xlink:href="camera_8h.html" target="_top" xlink:title=" ">
<polygon fill="white" stroke="#666666" points="546,-195 484,-195 484,-176 546,-176 546,-195"/>
<text text-anchor="middle" x="515" y="-183" font-family="Helvetica,sans-Serif" font-size="10.00">camera.h</text>
</a>
</g>
</g>
<!-- Node1&#45;&gt;Node6 -->
<g id="edge61_Node000001_Node000006" class="edge">
<title>Node1&#45;&gt;Node6</title>
<g id="a_edge61_Node000001_Node000006"><a xlink:title=" ">
<path fill="none" stroke="#63b8ff" d="M847.15,-348.37C750.83,-335.29 555.33,-302.76 515,-250 505.39,-237.42 506.56,-218.97 509.44,-205.2"/>
<polygon fill="#63b8ff" stroke="#63b8ff" points="512.87,-205.91 511.95,-195.35 506.09,-204.18 512.87,-205.91"/>
</a>
</g>
</g>
<!-- Node8 -->
<g id="Node000008" class="node">
<title>Node8</title>
<g id="a_Node000008"><a xlink:href="course__offsets_8h.html" target="_top" xlink:title=" ">
<polygon fill="white" stroke="#666666" points="466,-195 370,-195 370,-176 466,-176 466,-195"/>
<text text-anchor="middle" x="418" y="-183" font-family="Helvetica,sans-Serif" font-size="10.00">course_offsets.h</text>
</a>
</g>
</g>
<!-- Node1&#45;&gt;Node8 -->
<g id="edge60_Node000001_Node000008" class="edge">
<title>Node1&#45;&gt;Node8</title>
<g id="a_edge60_Node000001_Node000008"><a xlink:title=" ">
<path fill="none" stroke="#63b8ff" d="M847.25,-352.93C780.71,-349 664.71,-337.65 571,-305 524.57,-288.82 513.24,-280.91 475,-250 457.8,-236.1 441.27,-216.81 430.49,-203.15"/>
<polygon fill="#63b8ff" stroke="#63b8ff" points="433.16,-200.88 424.28,-195.1 427.61,-205.16 433.16,-200.88"/>
</a>
</g>
</g>
<!-- Node14 -->
<g id="Node000014" class="node">
<title>Node14</title>
<g id="a_Node000014"><a xlink:href="src_2data_2some__data_8h.html" target="_top" xlink:title=" ">
<polygon fill="white" stroke="#666666" points="1266,-250 1162,-250 1162,-231 1266,-231 1266,-250"/>
<text text-anchor="middle" x="1214" y="-238" font-family="Helvetica,sans-Serif" font-size="10.00">data/some_data.h</text>
</a>
</g>
</g>
<!-- Node1&#45;&gt;Node14 -->
<g id="edge62_Node000001_Node000014" class="edge">
<title>Node1&#45;&gt;Node14</title>
<g id="a_edge62_Node000001_Node000014"><a xlink:title=" ">
<path fill="none" stroke="#63b8ff" d="M939.69,-340.97C1001.7,-318.49 1122.25,-274.77 1180.67,-253.59"/>
<polygon fill="#63b8ff" stroke="#63b8ff" points="1181.95,-256.84 1190.16,-250.14 1179.57,-250.26 1181.95,-256.84"/>
</a>
</g>
</g>
<!-- Node16 -->
<g id="Node000016" class="node">
<title>Node16</title>
<g id="a_Node000016"><a xlink:href="objects_8h.html" target="_top" xlink:title=" ">
<polygon fill="white" stroke="#666666" points="1320.5,-195 1259.5,-195 1259.5,-176 1320.5,-176 1320.5,-195"/>
<text text-anchor="middle" x="1290" y="-183" font-family="Helvetica,sans-Serif" font-size="10.00">objects.h</text>
</a>
</g>
</g>
<!-- Node1&#45;&gt;Node16 -->
<g id="edge63_Node000001_Node000016" class="edge">
<title>Node1&#45;&gt;Node16</title>
<g id="a_edge63_Node000001_Node000016"><a xlink:title=" ">
<path fill="none" stroke="#63b8ff" d="M954.65,-346.77C1047.1,-331.51 1230.8,-296.14 1275,-250 1286.38,-238.12 1289.67,-219.29 1290.4,-205.22"/>
<polygon fill="#63b8ff" stroke="#63b8ff" points="1293.9,-205.22 1290.53,-195.17 1286.9,-205.12 1293.9,-205.22"/>
</a>
</g>
</g>
<!-- Node21 -->
<g id="Node000021" class="node">
<title>Node21</title>
<g id="a_Node000021"><a xlink:href="path__spawn__metadata_8h.html" target="_top" xlink:title=" ">
<polygon fill="white" stroke="#666666" points="1105.5,-250 968.5,-250 968.5,-231 1105.5,-231 1105.5,-250"/>
<text text-anchor="middle" x="1037" y="-238" font-family="Helvetica,sans-Serif" font-size="10.00">path_spawn_metadata.h</text>
</a>
</g>
</g>
<!-- Node1&#45;&gt;Node21 -->
<g id="edge64_Node000001_Node000021" class="edge">
<title>Node1&#45;&gt;Node21</title>
<g id="a_edge64_Node000001_Node000021"><a xlink:title=" ">
<path fill="none" stroke="#63b8ff" d="M917.95,-340.85C943.65,-319.41 992.28,-278.82 1018.74,-256.74"/>
<polygon fill="#63b8ff" stroke="#63b8ff" points="1021.06,-259.37 1026.49,-250.27 1016.57,-253.99 1021.06,-259.37"/>
</a>
</g>
</g>
<!-- Node25 -->
<g id="Node000025" class="node">
<title>Node25</title>
<g id="a_Node000025"><a xlink:href="double__deck__vertices_8h.html" target="_top" xlink:title=" ">
<polygon fill="white" stroke="#666666" points="267.5,-140 154.5,-140 154.5,-110 267.5,-110 267.5,-140"/>
<text text-anchor="start" x="162.5" y="-128" font-family="Helvetica,sans-Serif" font-size="10.00">assets/double_deck</text>
<text text-anchor="middle" x="211" y="-117" font-family="Helvetica,sans-Serif" font-size="10.00">_vertices.h</text>
</a>
</g>
</g>
<!-- Node1&#45;&gt;Node25 -->
<g id="edge48_Node000001_Node000025" class="edge">
<title>Node1&#45;&gt;Node25</title>
<g id="a_edge48_Node000001_Node000025"><a xlink:title=" ">
<path fill="none" stroke="#63b8ff" d="M847.31,-351.85C747.87,-345.5 539.01,-329.65 471,-305 372.02,-269.12 275.17,-186.28 233,-147.17"/>
<polygon fill="#63b8ff" stroke="#63b8ff" points="235.23,-144.47 225.54,-140.18 230.44,-149.57 235.23,-144.47"/>
</a>
</g>
</g>
<!-- Node26 -->
<g id="Node000026" class="node">
<title>Node26</title>
<g id="a_Node000026"><a xlink:href="double__deck__displaylists_8h.html" target="_top" xlink:title=" ">
<polygon fill="white" stroke="#666666" points="398.5,-140 285.5,-140 285.5,-110 398.5,-110 398.5,-140"/>
<text text-anchor="start" x="293.5" y="-128" font-family="Helvetica,sans-Serif" font-size="10.00">assets/double_deck</text>
<text text-anchor="middle" x="342" y="-117" font-family="Helvetica,sans-Serif" font-size="10.00">_displaylists.h</text>
</a>
</g>
</g>
<!-- Node1&#45;&gt;Node26 -->
<g id="edge52_Node000001_Node000026" class="edge">
<title>Node1&#45;&gt;Node26</title>
<g id="a_edge52_Node000001_Node000026"><a xlink:title=" ">
<path fill="none" stroke="#63b8ff" d="M847.46,-355.73C772.1,-355.04 631.57,-347.45 521,-305 440.44,-274.07 411.04,-265.3 361,-195 351.64,-181.85 346.89,-164.28 344.48,-150.16"/>
<polygon fill="#63b8ff" stroke="#63b8ff" points="347.93,-149.58 343.05,-140.17 341,-150.56 347.93,-149.58"/>
</a>
</g>
</g>
<!-- Node27 -->
<g id="Node000027" class="node">
<title>Node27</title>
<g id="a_Node000027"><a xlink:href="double__deck__data_8h.html" target="_top" xlink:title=" ">
<polygon fill="white" stroke="#666666" points="606.5,-140 493.5,-140 493.5,-110 606.5,-110 606.5,-140"/>
<text text-anchor="start" x="501.5" y="-128" font-family="Helvetica,sans-Serif" font-size="10.00">assets/double_deck</text>
<text text-anchor="middle" x="550" y="-117" font-family="Helvetica,sans-Serif" font-size="10.00">_data.h</text>
</a>
</g>
</g>
<!-- Node1&#45;&gt;Node27 -->
<g id="edge56_Node000001_Node000027" class="edge">
<title>Node1&#45;&gt;Node27</title>
<g id="a_edge56_Node000001_Node000027"><a xlink:title=" ">
<path fill="none" stroke="#63b8ff" d="M904.73,-340.77C912.64,-307.01 926.96,-221.47 883,-176 843.34,-134.97 690.32,-148.73 617.04,-139.83"/>
<polygon fill="#63b8ff" stroke="#63b8ff" points="617.23,-136.32 606.83,-138.34 616.22,-143.24 617.23,-136.32"/>
</a>
</g>
</g>
<!-- Node4 -->
<g id="Node000004" class="node">
<title>Node4</title>
<g id="a_Node000004"><a xlink:title=" ">
<polygon fill="#e0e0e0" stroke="#999999" points="756,-250 618,-250 618,-231 756,-231 756,-250"/>
<text text-anchor="middle" x="687" y="-238" font-family="Helvetica,sans-Serif" font-size="10.00">libultraship/libultraship.h</text>
</a>
</g>
</g>
<!-- Node3&#45;&gt;Node4 -->
<g id="edge3_Node000003_Node000004" class="edge">
<title>Node3&#45;&gt;Node4</title>
<g id="a_edge3_Node000003_Node000004"><a xlink:title=" ">
<path fill="none" stroke="#63b8ff" d="M810.38,-285.98C786.1,-277.23 748.05,-263.51 720.63,-253.62"/>
<polygon fill="#63b8ff" stroke="#63b8ff" points="721.64,-250.27 711.05,-250.17 719.27,-256.85 721.64,-250.27"/>
</a>
</g>
</g>
<!-- Node5 -->
<g id="Node000005" class="node">
<title>Node5</title>
<g id="a_Node000005"><a xlink:href="CoreMath_8h.html" target="_top" xlink:title=" ">
<polygon fill="white" stroke="#666666" points="103.5,-195 30.5,-195 30.5,-176 103.5,-176 103.5,-195"/>
<text text-anchor="middle" x="67" y="-183" font-family="Helvetica,sans-Serif" font-size="10.00">CoreMath.h</text>
</a>
</g>
</g>
<!-- Node3&#45;&gt;Node5 -->
<g id="edge4_Node000003_Node000005" class="edge">
<title>Node3&#45;&gt;Node5</title>
<g id="a_edge4_Node000003_Node000005"><a xlink:title=" ">
<path fill="none" stroke="#63b8ff" d="M804.17,-291.12C742.58,-284.07 596.91,-267.04 475,-250 343.79,-231.66 189.4,-206.71 113.67,-194.25"/>
<polygon fill="#63b8ff" stroke="#63b8ff" points="113.95,-190.75 103.52,-192.57 112.81,-197.65 113.95,-190.75"/>
</a>
</g>
</g>
<!-- Node3&#45;&gt;Node6 -->
<g id="edge6_Node000003_Node000006" class="edge">
<title>Node3&#45;&gt;Node6</title>
<g id="a_edge6_Node000003_Node000006"><a xlink:title=" ">
<path fill="none" stroke="#63b8ff" d="M804.31,-294.2C736.05,-292.88 570.79,-285.96 531,-250 518.75,-238.93 515.25,-219.99 514.51,-205.67"/>
<polygon fill="#63b8ff" stroke="#63b8ff" points="518.01,-205.38 514.4,-195.41 511.01,-205.45 518.01,-205.38"/>
</a>
</g>
</g>
<!-- Node7 -->
<g id="Node000007" class="node">
<title>Node7</title>
<g id="a_Node000007"><a xlink:href="common__structs_8h.html" target="_top" xlink:title=" ">
<polygon fill="white" stroke="#666666" points="1136.5,-74 1029.5,-74 1029.5,-55 1136.5,-55 1136.5,-74"/>
<text text-anchor="middle" x="1083" y="-62" font-family="Helvetica,sans-Serif" font-size="10.00">common_structs.h</text>
</a>
</g>
</g>
<!-- Node3&#45;&gt;Node7 -->
<g id="edge47_Node000003_Node000007" class="edge">
<title>Node3&#45;&gt;Node7</title>
<g id="a_edge47_Node000003_Node000007"><a xlink:title=" ">
<path fill="none" stroke="#63b8ff" d="M849.96,-285.94C897.54,-260.1 1036.94,-182.13 1066,-140 1077.4,-123.48 1081.26,-100.47 1082.51,-84.41"/>
<polygon fill="#63b8ff" stroke="#63b8ff" points="1086.02,-84.3 1083.04,-74.13 1079.03,-83.94 1086.02,-84.3"/>
</a>
</g>
</g>
<!-- Node3&#45;&gt;Node8 -->
<g id="edge10_Node000003_Node000008" class="edge">
<title>Node3&#45;&gt;Node8</title>
<g id="a_edge10_Node000003_Node000008"><a xlink:title=" ">
<path fill="none" stroke="#63b8ff" d="M804.36,-294.64C746.71,-293.99 616.3,-288.03 515,-250 484.74,-238.64 454.28,-216.55 435.77,-201.66"/>
<polygon fill="#63b8ff" stroke="#63b8ff" points="437.87,-198.85 427.93,-195.2 433.42,-204.26 437.87,-198.85"/>
</a>
</g>
</g>
<!-- Node3&#45;&gt;Node14 -->
<g id="edge19_Node000003_Node000014" class="edge">
<title>Node3&#45;&gt;Node14</title>
<g id="a_edge19_Node000003_Node000014"><a xlink:title=" ">
<path fill="none" stroke="#63b8ff" d="M863.5,-290.39C925.19,-281.78 1068.95,-261.73 1151.92,-250.16"/>
<polygon fill="#63b8ff" stroke="#63b8ff" points="1152.56,-253.6 1161.98,-248.76 1151.59,-246.67 1152.56,-253.6"/>
</a>
</g>
</g>
<!-- Node17 -->
<g id="Node000017" class="node">
<title>Node17</title>
<g id="a_Node000017"><a xlink:href="defines_8h.html" target="_top" xlink:title=" ">
<polygon fill="white" stroke="#666666" points="835.5,-250 774.5,-250 774.5,-231 835.5,-231 835.5,-250"/>
<text text-anchor="middle" x="805" y="-238" font-family="Helvetica,sans-Serif" font-size="10.00">defines.h</text>
</a>
</g>
</g>
<!-- Node3&#45;&gt;Node17 -->
<g id="edge27_Node000003_Node000017" class="edge">
<title>Node3&#45;&gt;Node17</title>
<g id="a_edge27_Node000003_Node000017"><a xlink:title=" ">
<path fill="none" stroke="#63b8ff" d="M829.21,-285.75C825.24,-278.49 819.47,-267.95 814.57,-258.98"/>
<polygon fill="#63b8ff" stroke="#63b8ff" points="817.57,-257.18 809.7,-250.09 811.43,-260.54 817.57,-257.18"/>
</a>
</g>
</g>
<!-- Node18 -->
<g id="Node000018" class="node">
<title>Node18</title>
<g id="a_Node000018"><a xlink:href="bomb__kart_8h.html" target="_top" xlink:title=" ">
<polygon fill="white" stroke="#666666" points="873.5,-195 796.5,-195 796.5,-176 873.5,-176 873.5,-195"/>
<text text-anchor="middle" x="835" y="-183" font-family="Helvetica,sans-Serif" font-size="10.00">bomb_kart.h</text>
</a>
</g>
</g>
<!-- Node3&#45;&gt;Node18 -->
<g id="edge28_Node000003_Node000018" class="edge">
<title>Node3&#45;&gt;Node18</title>
<g id="a_edge28_Node000003_Node000018"><a xlink:title=" ">
<path fill="none" stroke="#63b8ff" d="M836.83,-285.75C839.55,-276.86 843.46,-262.64 845,-250 846.86,-234.75 843.82,-217.54 840.62,-204.88"/>
<polygon fill="#63b8ff" stroke="#63b8ff" points="843.95,-203.79 837.89,-195.1 837.21,-205.67 843.95,-203.79"/>
</a>
</g>
</g>
<!-- Node3&#45;&gt;Node21 -->
<g id="edge35_Node000003_Node000021" class="edge">
<title>Node3&#45;&gt;Node21</title>
<g id="a_edge35_Node000003_Node000021"><a xlink:title=" ">
<path fill="none" stroke="#63b8ff" d="M863.52,-286.79C898.01,-277.79 955.36,-262.81 994.61,-252.57"/>
<polygon fill="#63b8ff" stroke="#63b8ff" points="995.63,-255.92 1004.42,-250.01 993.86,-249.15 995.63,-255.92"/>
</a>
</g>
</g>
<!-- Node22 -->
<g id="Node000022" class="node">
<title>Node22</title>
<g id="a_Node000022"><a xlink:href="waypoints_8h.html" target="_top" xlink:title=" ">
<polygon fill="white" stroke="#666666" points="1127,-195 1051,-195 1051,-176 1127,-176 1127,-195"/>
<text text-anchor="middle" x="1089" y="-183" font-family="Helvetica,sans-Serif" font-size="10.00">waypoints.h</text>
</a>
</g>
</g>
<!-- Node3&#45;&gt;Node22 -->
<g id="edge45_Node000003_Node000022" class="edge">
<title>Node3&#45;&gt;Node22</title>
<g id="a_edge45_Node000003_Node000022"><a xlink:title=" ">
<path fill="none" stroke="#63b8ff" d="M863.85,-294.44C929.46,-293.59 1082.92,-287.56 1115,-250 1126.66,-236.35 1115.58,-216.76 1104.49,-202.96"/>
<polygon fill="#63b8ff" stroke="#63b8ff" points="1106.98,-200.49 1097.79,-195.22 1101.69,-205.07 1106.98,-200.49"/>
</a>
</g>
</g>
<!-- Node24 -->
<g id="Node000024" class="node">
<title>Node24</title>
<g id="a_Node000024"><a xlink:href="sounds_8h.html" target="_top" xlink:title=" ">
<polygon fill="white" stroke="#666666" points="600,-250 540,-250 540,-231 600,-231 600,-250"/>
<text text-anchor="middle" x="570" y="-238" font-family="Helvetica,sans-Serif" font-size="10.00">sounds.h</text>
</a>
</g>
</g>
<!-- Node3&#45;&gt;Node24 -->
<g id="edge46_Node000003_Node000024" class="edge">
<title>Node3&#45;&gt;Node24</title>
<g id="a_edge46_Node000003_Node000024"><a xlink:title=" ">
<path fill="none" stroke="#63b8ff" d="M804.48,-288.85C763.29,-280.93 685.99,-265.91 610.39,-250.26"/>
<polygon fill="#63b8ff" stroke="#63b8ff" points="610.72,-246.75 600.22,-248.15 609.3,-253.61 610.72,-246.75"/>
</a>
</g>
</g>
<!-- Node5&#45;&gt;Node2 -->
<g id="edge5_Node000005_Node000002" class="edge">
<title>Node5&#45;&gt;Node2</title>
<g id="a_edge5_Node000005_Node000002"><a xlink:title=" ">
<path fill="none" stroke="#63b8ff" d="M53.22,-175.82C42.18,-167.99 27.51,-155.35 21,-140 14.86,-125.52 20.02,-60.33 25,-55 60.24,-17.32 211.1,-10.89 291.34,-10.2"/>
<polygon fill="#63b8ff" stroke="#63b8ff" points="291.73,-13.7 301.71,-10.14 291.68,-6.7 291.73,-13.7"/>
</a>
</g>
</g>
<!-- Node6&#45;&gt;Node2 -->
<g id="edge7_Node000006_Node000002" class="edge">
<title>Node6&#45;&gt;Node2</title>
<g id="a_edge7_Node000006_Node000002"><a xlink:title=" ">
<path fill="none" stroke="#63b8ff" d="M483.62,-177.46C480.72,-176.92 477.81,-176.42 475,-176 430.76,-169.34 104.18,-173.02 74,-140 48.51,-112.12 49.57,-83.82 74,-55 101.34,-22.75 221.84,-13.84 291.6,-11.4"/>
<polygon fill="#63b8ff" stroke="#63b8ff" points="292.04,-14.89 301.92,-11.08 291.82,-7.9 292.04,-14.89"/>
</a>
</g>
</g>
<!-- Node6&#45;&gt;Node7 -->
<g id="edge8_Node000006_Node000007" class="edge">
<title>Node6&#45;&gt;Node7</title>
<g id="a_edge8_Node000006_Node000007"><a xlink:title=" ">
<path fill="none" stroke="#63b8ff" d="M546.29,-184.39C641.22,-183.63 924.47,-178.13 1007,-140 1014.4,-136.58 1047.75,-102.44 1067.73,-81.58"/>
<polygon fill="#63b8ff" stroke="#63b8ff" points="1070.51,-83.73 1074.88,-74.08 1065.45,-78.9 1070.51,-83.73"/>
</a>
</g>
</g>
<!-- Node7&#45;&gt;Node2 -->
<g id="edge9_Node000007_Node000002" class="edge">
<title>Node7&#45;&gt;Node2</title>
<g id="a_edge9_Node000007_Node000002"><a xlink:title=" ">
<path fill="none" stroke="#63b8ff" d="M1029.41,-59.67C891.55,-49.81 526.05,-23.66 392.11,-14.08"/>
<polygon fill="#63b8ff" stroke="#63b8ff" points="392.34,-10.59 382.12,-13.37 391.84,-17.57 392.34,-10.59"/>
</a>
</g>
</g>
<!-- Node8&#45;&gt;Node2 -->
<g id="edge11_Node000008_Node000002" class="edge">
<title>Node8&#45;&gt;Node2</title>
<g id="a_edge11_Node000008_Node000002"><a xlink:title=" ">
<path fill="none" stroke="#63b8ff" d="M369.86,-182.33C273.12,-177.47 62.51,-164.2 41,-140 15.9,-111.76 16.32,-83.6 41,-55 72.73,-18.24 214.13,-11.33 291.31,-10.35"/>
<polygon fill="#63b8ff" stroke="#63b8ff" points="291.79,-13.85 301.76,-10.25 291.73,-6.85 291.79,-13.85"/>
</a>
</g>
</g>
<!-- Node9 -->
<g id="Node000009" class="node">
<title>Node9</title>
<g id="a_Node000009"><a xlink:title=" ">
<polygon fill="#e0e0e0" stroke="#999999" points="90,-19 0,-19 0,0 90,0 90,-19"/>
<text text-anchor="middle" x="45" y="-7" font-family="Helvetica,sans-Serif" font-size="10.00">libultra/types.h</text>
</a>
</g>
</g>
<!-- Node8&#45;&gt;Node9 -->
<g id="edge12_Node000008_Node000009" class="edge">
<title>Node8&#45;&gt;Node9</title>
<g id="a_edge12_Node000008_Node000009"><a xlink:title=" ">
<path fill="none" stroke="#63b8ff" d="M369.62,-182.62C268.86,-178.22 43.88,-165.59 21,-140 -7.1,-108.58 17.72,-55.25 33.81,-27.87"/>
<polygon fill="#63b8ff" stroke="#63b8ff" points="36.98,-29.39 39.23,-19.04 31.02,-25.73 36.98,-29.39"/>
</a>
</g>
</g>
<!-- Node10 -->
<g id="Node000010" class="node">
<title>Node10</title>
<g id="a_Node000010"><a xlink:title=" ">
<polygon fill="#e0e0e0" stroke="#999999" points="457,-74 379,-74 379,-55 457,-55 457,-74"/>
<text text-anchor="middle" x="418" y="-62" font-family="Helvetica,sans-Serif" font-size="10.00">libultra/gbi.h</text>
</a>
</g>
</g>
<!-- Node8&#45;&gt;Node10 -->
<g id="edge13_Node000008_Node000010" class="edge">
<title>Node8&#45;&gt;Node10</title>
<g id="a_edge13_Node000008_Node000010"><a xlink:title=" ">
<path fill="none" stroke="#63b8ff" d="M418,-175.94C418,-156.91 418,-110.69 418,-84.47"/>
<polygon fill="#63b8ff" stroke="#63b8ff" points="421.5,-84.3 418,-74.3 414.5,-84.3 421.5,-84.3"/>
</a>
</g>
</g>
<!-- Node11 -->
<g id="Node000011" class="node">
<title>Node11</title>
<g id="a_Node000011"><a xlink:href="other__textures_8h.html" target="_top" xlink:title=" ">
<polygon fill="white" stroke="#666666" points="904.5,-134.5 773.5,-134.5 773.5,-115.5 904.5,-115.5 904.5,-134.5"/>
<text text-anchor="middle" x="839" y="-122.5" font-family="Helvetica,sans-Serif" font-size="10.00">assets/other_textures.h</text>
</a>
</g>
</g>
<!-- Node8&#45;&gt;Node11 -->
<g id="edge14_Node000008_Node000011" class="edge">
<title>Node8&#45;&gt;Node11</title>
<g id="a_edge14_Node000008_Node000011"><a xlink:title=" ">
<path fill="none" stroke="#63b8ff" d="M466.19,-177.23C469.17,-176.81 472.13,-176.39 475,-176 603.24,-158.45 636.1,-159.88 764,-140 771.11,-138.89 778.58,-137.63 785.93,-136.32"/>
<polygon fill="#63b8ff" stroke="#63b8ff" points="786.63,-139.75 795.85,-134.52 785.38,-132.86 786.63,-139.75"/>
</a>
</g>
</g>
<!-- Node13 -->
<g id="Node000013" class="node">
<title>Node13</title>
<g id="a_Node000013"><a xlink:href="animation_8h.html" target="_top" xlink:title=" ">
<polygon fill="white" stroke="#666666" points="997.5,-134.5 922.5,-134.5 922.5,-115.5 997.5,-115.5 997.5,-134.5"/>
<text text-anchor="middle" x="960" y="-122.5" font-family="Helvetica,sans-Serif" font-size="10.00">animation.h</text>
</a>
</g>
</g>
<!-- Node8&#45;&gt;Node13 -->
<g id="edge17_Node000008_Node000013" class="edge">
<title>Node8&#45;&gt;Node13</title>
<g id="a_edge17_Node000008_Node000013"><a xlink:title=" ">
<path fill="none" stroke="#63b8ff" d="M466.17,-177.09C469.16,-176.7 472.12,-176.33 475,-176 669.47,-153.55 721.71,-176.71 914,-140 917.86,-139.26 921.85,-138.33 925.8,-137.28"/>
<polygon fill="#63b8ff" stroke="#63b8ff" points="926.76,-140.65 935.41,-134.54 924.84,-133.92 926.76,-140.65"/>
</a>
</g>
</g>
<!-- Node11&#45;&gt;Node2 -->
<g id="edge15_Node000011_Node000002" class="edge">
<title>Node11&#45;&gt;Node2</title>
<g id="a_edge15_Node000011_Node000002"><a xlink:title=" ">
<path fill="none" stroke="#63b8ff" d="M819.01,-115.41C784.27,-100.83 710.22,-71.22 645,-55 557.45,-33.22 452.84,-20.77 392.25,-14.84"/>
<polygon fill="#63b8ff" stroke="#63b8ff" points="392.48,-11.34 382.19,-13.88 391.81,-18.31 392.48,-11.34"/>
</a>
</g>
</g>
<!-- Node12 -->
<g id="Node000012" class="node">
<title>Node12</title>
<g id="a_Node000012"><a xlink:href="align__asset__macro_8h.html" target="_top" xlink:title=" ">
<polygon fill="white" stroke="#666666" points="592.5,-74 475.5,-74 475.5,-55 592.5,-55 592.5,-74"/>
<text text-anchor="middle" x="534" y="-62" font-family="Helvetica,sans-Serif" font-size="10.00">align_asset_macro.h</text>
</a>
</g>
</g>
<!-- Node11&#45;&gt;Node12 -->
<g id="edge16_Node000011_Node000012" class="edge">
<title>Node11&#45;&gt;Node12</title>
<g id="a_edge16_Node000011_Node000012"><a xlink:title=" ">
<path fill="none" stroke="#63b8ff" d="M794.65,-115.49C739.99,-105.01 647.13,-87.2 588.26,-75.91"/>
<polygon fill="#63b8ff" stroke="#63b8ff" points="588.88,-72.46 578.4,-74.02 587.56,-79.34 588.88,-72.46"/>
</a>
</g>
</g>
<!-- Node13&#45;&gt;Node7 -->
<g id="edge18_Node000013_Node000007" class="edge">
<title>Node13&#45;&gt;Node7</title>
<g id="a_edge18_Node000013_Node000007"><a xlink:title=" ">
<path fill="none" stroke="#63b8ff" d="M977.89,-115.49C998.38,-105.75 1032.19,-89.66 1055.92,-78.38"/>
<polygon fill="#63b8ff" stroke="#63b8ff" points="1057.57,-81.47 1065.09,-74.02 1054.56,-75.15 1057.57,-81.47"/>
</a>
</g>
</g>
<!-- Node14&#45;&gt;Node10 -->
<g id="edge20_Node000014_Node000010" class="edge">
<title>Node14&#45;&gt;Node10</title>
<g id="a_edge20_Node000014_Node000010"><a xlink:title=" ">
<path fill="none" stroke="#63b8ff" d="M1206.89,-230.95C1194.33,-216.54 1166.62,-187.85 1136,-176 1000.67,-123.63 614.63,-203.18 484,-140 458.8,-127.81 439.06,-101.22 427.97,-83.33"/>
<polygon fill="#63b8ff" stroke="#63b8ff" points="430.81,-81.26 422.71,-74.43 424.79,-84.82 430.81,-81.26"/>
</a>
</g>
</g>
<!-- Node14&#45;&gt;Node11 -->
<g id="edge23_Node000014_Node000011" class="edge">
<title>Node14&#45;&gt;Node11</title>
<g id="a_edge23_Node000014_Node000011"><a xlink:title=" ">
<path fill="none" stroke="#63b8ff" d="M1210.56,-230.79C1204.49,-216.67 1190.46,-189.08 1169,-176 1071.26,-116.44 1026.95,-158.51 914,-140 907.24,-138.89 900.15,-137.66 893.13,-136.4"/>
<polygon fill="#63b8ff" stroke="#63b8ff" points="893.43,-132.9 882.96,-134.54 892.17,-139.78 893.43,-132.9"/>
</a>
</g>
</g>
<!-- Node15 -->
<g id="Node000015" class="node">
<title>Node15</title>
<g id="a_Node000015"><a xlink:href="spline_8h.html" target="_top" xlink:title=" ">
<polygon fill="white" stroke="#666666" points="1261.5,-134.5 1206.5,-134.5 1206.5,-115.5 1261.5,-115.5 1261.5,-134.5"/>
<text text-anchor="middle" x="1234" y="-122.5" font-family="Helvetica,sans-Serif" font-size="10.00">spline.h</text>
</a>
</g>
</g>
<!-- Node14&#45;&gt;Node15 -->
<g id="edge21_Node000014_Node000015" class="edge">
<title>Node14&#45;&gt;Node15</title>
<g id="a_edge21_Node000014_Node000015"><a xlink:title=" ">
<path fill="none" stroke="#63b8ff" d="M1215.5,-230.97C1218.72,-212.73 1226.32,-169.57 1230.71,-144.64"/>
<polygon fill="#63b8ff" stroke="#63b8ff" points="1234.19,-145.09 1232.48,-134.63 1227.3,-143.87 1234.19,-145.09"/>
</a>
</g>
</g>
<!-- Node14&#45;&gt;Node16 -->
<g id="edge24_Node000014_Node000016" class="edge">
<title>Node14&#45;&gt;Node16</title>
<g id="a_edge24_Node000014_Node000016"><a xlink:title=" ">
<path fill="none" stroke="#63b8ff" d="M1226.21,-230.98C1237.78,-222.92 1255.38,-210.65 1269.16,-201.03"/>
<polygon fill="#63b8ff" stroke="#63b8ff" points="1271.37,-203.76 1277.57,-195.17 1267.36,-198.02 1271.37,-203.76"/>
</a>
</g>
</g>
<!-- Node15&#45;&gt;Node7 -->
<g id="edge22_Node000015_Node000007" class="edge">
<title>Node15&#45;&gt;Node7</title>
<g id="a_edge22_Node000015_Node000007"><a xlink:title=" ">
<path fill="none" stroke="#63b8ff" d="M1212.04,-115.49C1186.32,-105.53 1143.52,-88.95 1114.32,-77.63"/>
<polygon fill="#63b8ff" stroke="#63b8ff" points="1115.57,-74.37 1104.98,-74.02 1113.04,-80.89 1115.57,-74.37"/>
</a>
</g>
</g>
<!-- Node16&#45;&gt;Node7 -->
<g id="edge26_Node000016_Node000007" class="edge">
<title>Node16&#45;&gt;Node7</title>
<g id="a_edge26_Node000016_Node000007"><a xlink:title=" ">
<path fill="none" stroke="#63b8ff" d="M1290.47,-175.74C1290.79,-160.2 1289.09,-127.78 1271,-110 1253.41,-92.71 1194.01,-80.6 1146.62,-73.43"/>
<polygon fill="#63b8ff" stroke="#63b8ff" points="1147.12,-69.96 1136.71,-71.97 1146.1,-76.89 1147.12,-69.96"/>
</a>
</g>
</g>
<!-- Node16&#45;&gt;Node15 -->
<g id="edge25_Node000016_Node000015" class="edge">
<title>Node16&#45;&gt;Node15</title>
<g id="a_edge25_Node000016_Node000015"><a xlink:title=" ">
<path fill="none" stroke="#63b8ff" d="M1281.74,-175.87C1273.22,-166.97 1259.74,-152.89 1249.27,-141.95"/>
<polygon fill="#63b8ff" stroke="#63b8ff" points="1251.74,-139.47 1242.3,-134.67 1246.68,-144.31 1251.74,-139.47"/>
</a>
</g>
</g>
<!-- Node18&#45;&gt;Node7 -->
<g id="edge29_Node000018_Node000007" class="edge">
<title>Node18&#45;&gt;Node7</title>
<g id="a_edge29_Node000018_Node000007"><a xlink:title=" ">
<path fill="none" stroke="#63b8ff" d="M873.59,-177.86C929.19,-168.04 1026.65,-149.74 1040,-140 1059.08,-126.07 1071,-100.92 1077.32,-83.72"/>
<polygon fill="#63b8ff" stroke="#63b8ff" points="1080.65,-84.81 1080.55,-74.22 1074.02,-82.56 1080.65,-84.81"/>
</a>
</g>
</g>
<!-- Node19 -->
<g id="Node000019" class="node">
<title>Node19</title>
<g id="a_Node000019"><a xlink:href="mk64_8h.html" target="_top" xlink:title=" ">
<polygon fill="white" stroke="#666666" points="136.5,-134.5 83.5,-134.5 83.5,-115.5 136.5,-115.5 136.5,-134.5"/>
<text text-anchor="middle" x="110" y="-122.5" font-family="Helvetica,sans-Serif" font-size="10.00">mk64.h</text>
</a>
</g>
</g>
<!-- Node18&#45;&gt;Node19 -->
<g id="edge30_Node000018_Node000019" class="edge">
<title>Node18&#45;&gt;Node19</title>
<g id="a_edge30_Node000018_Node000019"><a xlink:title=" ">
<path fill="none" stroke="#63b8ff" d="M796.38,-183.61C670.13,-180.45 270.57,-168.4 145,-140 142.63,-139.46 140.21,-138.79 137.81,-138.03"/>
<polygon fill="#63b8ff" stroke="#63b8ff" points="138.77,-134.65 128.18,-134.53 136.39,-141.23 138.77,-134.65"/>
</a>
</g>
</g>
<!-- Node19&#45;&gt;Node2 -->
<g id="edge31_Node000019_Node000002" class="edge">
<title>Node19&#45;&gt;Node2</title>
<g id="a_edge31_Node000019_Node000002"><a xlink:title=" ">
<path fill="none" stroke="#63b8ff" d="M127.44,-115.47C167.66,-95.79 267.16,-47.11 315.2,-23.61"/>
<polygon fill="#63b8ff" stroke="#63b8ff" points="316.92,-26.67 324.36,-19.13 313.84,-20.38 316.92,-26.67"/>
</a>
</g>
</g>
<!-- Node19&#45;&gt;Node10 -->
<g id="edge34_Node000019_Node000010" class="edge">
<title>Node19&#45;&gt;Node10</title>
<g id="a_edge34_Node000019_Node000010"><a xlink:title=" ">
<path fill="none" stroke="#63b8ff" d="M129.36,-115.38C134.38,-113.39 139.83,-111.44 145,-110 221.72,-88.68 313.59,-76.31 368.79,-70.24"/>
<polygon fill="#63b8ff" stroke="#63b8ff" points="369.43,-73.69 378.99,-69.14 368.68,-66.73 369.43,-73.69"/>
</a>
</g>
</g>
<!-- Node20 -->
<g id="Node000020" class="node">
<title>Node20</title>
<g id="a_Node000020"><a xlink:href="string_8h.html" target="_top" xlink:title=" ">
<polygon fill="white" stroke="#666666" points="136.5,-74 83.5,-74 83.5,-55 136.5,-55 136.5,-74"/>
<text text-anchor="middle" x="110" y="-62" font-family="Helvetica,sans-Serif" font-size="10.00">string.h</text>
</a>
</g>
</g>
<!-- Node19&#45;&gt;Node20 -->
<g id="edge32_Node000019_Node000020" class="edge">
<title>Node19&#45;&gt;Node20</title>
<g id="a_edge32_Node000019_Node000020"><a xlink:title=" ">
<path fill="none" stroke="#63b8ff" d="M110,-115.37C110,-107.25 110,-94.81 110,-84.39"/>
<polygon fill="#63b8ff" stroke="#63b8ff" points="113.5,-84.17 110,-74.17 106.5,-84.17 113.5,-84.17"/>
</a>
</g>
</g>
<!-- Node20&#45;&gt;Node9 -->
<g id="edge33_Node000020_Node000009" class="edge">
<title>Node20&#45;&gt;Node9</title>
<g id="a_edge33_Node000020_Node000009"><a xlink:title=" ">
<path fill="none" stroke="#63b8ff" d="M99.56,-54.98C89.85,-47.07 75.18,-35.11 63.5,-25.58"/>
<polygon fill="#63b8ff" stroke="#63b8ff" points="65.6,-22.78 55.63,-19.17 61.17,-28.2 65.6,-22.78"/>
</a>
</g>
</g>
<!-- Node21&#45;&gt;Node7 -->
<g id="edge38_Node000021_Node000007" class="edge">
<title>Node21&#45;&gt;Node7</title>
<g id="a_edge38_Node000021_Node000007"><a xlink:title=" ">
<path fill="none" stroke="#63b8ff" d="M1035.17,-230.82C1032.92,-217.71 1030.66,-192.63 1042,-176 1062.6,-145.78 1096.6,-171.01 1116,-140 1127.77,-121.18 1112.71,-97.44 1099.29,-81.88"/>
<polygon fill="#63b8ff" stroke="#63b8ff" points="1101.53,-79.15 1092.18,-74.16 1096.38,-83.89 1101.53,-79.15"/>
</a>
</g>
</g>
<!-- Node21&#45;&gt;Node18 -->
<g id="edge44_Node000021_Node000018" class="edge">
<title>Node21&#45;&gt;Node18</title>
<g id="a_edge44_Node000021_Node000018"><a xlink:title=" ">
<path fill="none" stroke="#63b8ff" d="M1004.55,-230.98C970.04,-221.93 915.34,-207.58 877.44,-197.64"/>
<polygon fill="#63b8ff" stroke="#63b8ff" points="878.27,-194.23 867.71,-195.08 876.49,-201.01 878.27,-194.23"/>
</a>
</g>
</g>
<!-- Node21&#45;&gt;Node22 -->
<g id="edge36_Node000021_Node000022" class="edge">
<title>Node21&#45;&gt;Node22</title>
<g id="a_edge36_Node000021_Node000022"><a xlink:title=" ">
<path fill="none" stroke="#63b8ff" d="M1045.59,-230.75C1053.16,-223.03 1064.38,-211.6 1073.51,-202.28"/>
<polygon fill="#63b8ff" stroke="#63b8ff" points="1076.07,-204.68 1080.57,-195.09 1071.07,-199.78 1076.07,-204.68"/>
</a>
</g>
</g>
<!-- Node23 -->
<g id="Node000023" class="node">
<title>Node23</title>
<g id="a_Node000023"><a xlink:href="common__data_8h.html" target="_top" xlink:title=" ">
<polygon fill="white" stroke="#666666" points="755,-134.5 625,-134.5 625,-115.5 755,-115.5 755,-134.5"/>
<text text-anchor="middle" x="690" y="-122.5" font-family="Helvetica,sans-Serif" font-size="10.00">assets/common_data.h</text>
</a>
</g>
</g>
<!-- Node21&#45;&gt;Node23 -->
<g id="edge39_Node000021_Node000023" class="edge">
<title>Node21&#45;&gt;Node23</title>
<g id="a_edge39_Node000021_Node000023"><a xlink:title=" ">
<path fill="none" stroke="#63b8ff" d="M1028.69,-230.94C1014.67,-217.05 984.81,-189.76 954,-176 952.8,-175.46 822.54,-150.92 745.46,-136.42"/>
<polygon fill="#63b8ff" stroke="#63b8ff" points="745.9,-132.94 735.42,-134.53 744.6,-139.82 745.9,-132.94"/>
</a>
</g>
</g>
<!-- Node22&#45;&gt;Node7 -->
<g id="edge37_Node000022_Node000007" class="edge">
<title>Node22&#45;&gt;Node7</title>
<g id="a_edge37_Node000022_Node000007"><a xlink:title=" ">
<path fill="none" stroke="#63b8ff" d="M1111.12,-175.95C1126.2,-168.82 1145.01,-157.06 1154,-140 1160.22,-128.21 1160.46,-121.67 1154,-110 1146.16,-95.83 1131.71,-85.57 1117.89,-78.5"/>
<polygon fill="#63b8ff" stroke="#63b8ff" points="1119.05,-75.18 1108.51,-74.1 1116.08,-81.52 1119.05,-75.18"/>
</a>
</g>
</g>
<!-- Node23&#45;&gt;Node2 -->
<g id="edge41_Node000023_Node000002" class="edge">
<title>Node23&#45;&gt;Node2</title>
<g id="a_edge41_Node000023_Node000002"><a xlink:title=" ">
<path fill="none" stroke="#63b8ff" d="M683.63,-115.05C672.31,-99.92 647.14,-69.51 618,-55 545.4,-18.85 449.98,-10.93 392.47,-9.79"/>
<polygon fill="#63b8ff" stroke="#63b8ff" points="392.23,-6.29 382.19,-9.65 392.14,-13.29 392.23,-6.29"/>
</a>
</g>
</g>
<!-- Node23&#45;&gt;Node7 -->
<g id="edge42_Node000023_Node000007" class="edge">
<title>Node23&#45;&gt;Node7</title>
<g id="a_edge42_Node000023_Node000007"><a xlink:title=" ">
<path fill="none" stroke="#63b8ff" d="M733.96,-115.45C744.14,-113.56 754.93,-111.64 765,-110 853,-95.64 955.17,-81.85 1019.45,-73.53"/>
<polygon fill="#63b8ff" stroke="#63b8ff" points="1019.97,-76.99 1029.44,-72.24 1019.07,-70.05 1019.97,-76.99"/>
</a>
</g>
</g>
<!-- Node23&#45;&gt;Node10 -->
<g id="edge40_Node000023_Node000010" class="edge">
<title>Node23&#45;&gt;Node10</title>
<g id="a_edge40_Node000023_Node000010"><a xlink:title=" ">
<path fill="none" stroke="#63b8ff" d="M650.45,-115.49C601.96,-105.07 519.79,-87.39 467.25,-76.09"/>
<polygon fill="#63b8ff" stroke="#63b8ff" points="467.67,-72.6 457.16,-73.92 466.2,-79.45 467.67,-72.6"/>
</a>
</g>
</g>
<!-- Node23&#45;&gt;Node12 -->
<g id="edge43_Node000023_Node000012" class="edge">
<title>Node23&#45;&gt;Node12</title>
<g id="a_edge43_Node000023_Node000012"><a xlink:title=" ">
<path fill="none" stroke="#63b8ff" d="M667.32,-115.49C640.74,-105.53 596.52,-88.95 566.36,-77.63"/>
<polygon fill="#63b8ff" stroke="#63b8ff" points="567.3,-74.25 556.71,-74.02 564.85,-80.81 567.3,-74.25"/>
</a>
</g>
</g>
<!-- Node25&#45;&gt;Node2 -->
<g id="edge49_Node000025_Node000002" class="edge">
<title>Node25&#45;&gt;Node2</title>
<g id="a_edge49_Node000025_Node000002"><a xlink:title=" ">
<path fill="none" stroke="#63b8ff" d="M227.33,-109.85C251.98,-88.5 298.52,-48.17 324.08,-26.03"/>
<polygon fill="#63b8ff" stroke="#63b8ff" points="326.61,-28.46 331.88,-19.27 322.03,-23.17 326.61,-28.46"/>
</a>
</g>
</g>
<!-- Node25&#45;&gt;Node10 -->
<g id="edge50_Node000025_Node000010" class="edge">
<title>Node25&#45;&gt;Node10</title>
<g id="a_edge50_Node000025_Node000010"><a xlink:title=" ">
<path fill="none" stroke="#63b8ff" d="M260.58,-109.99C296.46,-99.85 344.33,-86.32 377.83,-76.85"/>
<polygon fill="#63b8ff" stroke="#63b8ff" points="379.06,-80.14 387.73,-74.05 377.16,-73.41 379.06,-80.14"/>
</a>
</g>
</g>
<!-- Node25&#45;&gt;Node12 -->
<g id="edge51_Node000025_Node000012" class="edge">
<title>Node25&#45;&gt;Node12</title>
<g id="a_edge51_Node000025_Node000012"><a xlink:title=" ">
<path fill="none" stroke="#63b8ff" d="M267.69,-111.65C270.5,-111.08 273.28,-110.53 276,-110 342.1,-97.19 418.08,-84.3 470.38,-75.72"/>
<polygon fill="#63b8ff" stroke="#63b8ff" points="471.21,-79.13 480.52,-74.06 470.08,-72.22 471.21,-79.13"/>
</a>
</g>
</g>
<!-- Node26&#45;&gt;Node2 -->
<g id="edge53_Node000026_Node000002" class="edge">
<title>Node26&#45;&gt;Node2</title>
<g id="a_edge53_Node000026_Node000002"><a xlink:title=" ">
<path fill="none" stroke="#63b8ff" d="M342,-109.63C342,-89.21 342,-51.81 342,-29.24"/>
<polygon fill="#63b8ff" stroke="#63b8ff" points="345.5,-29.23 342,-19.23 338.5,-29.23 345.5,-29.23"/>
</a>
</g>
</g>
<!-- Node26&#45;&gt;Node10 -->
<g id="edge54_Node000026_Node000010" class="edge">
<title>Node26&#45;&gt;Node10</title>
<g id="a_edge54_Node000026_Node000010"><a xlink:title=" ">
<path fill="none" stroke="#63b8ff" d="M360.4,-109.84C371.88,-101 386.65,-89.63 398.36,-80.62"/>
<polygon fill="#63b8ff" stroke="#63b8ff" points="400.82,-83.14 406.61,-74.27 396.55,-77.59 400.82,-83.14"/>
</a>
</g>
</g>
<!-- Node26&#45;&gt;Node12 -->
<g id="edge55_Node000026_Node000012" class="edge">
<title>Node26&#45;&gt;Node12</title>
<g id="a_edge55_Node000026_Node000012"><a xlink:title=" ">
<path fill="none" stroke="#63b8ff" d="M387.99,-109.99C421.12,-99.89 465.29,-86.44 496.34,-76.98"/>
<polygon fill="#63b8ff" stroke="#63b8ff" points="497.38,-80.32 505.93,-74.05 495.34,-73.62 497.38,-80.32"/>
</a>
</g>
</g>
<!-- Node27&#45;&gt;Node2 -->
<g id="edge57_Node000027_Node000002" class="edge">
<title>Node27&#45;&gt;Node2</title>
<g id="a_edge57_Node000027_Node000002"><a xlink:title=" ">
<path fill="none" stroke="#63b8ff" d="M572.98,-109.91C593.29,-95.71 617.47,-73.35 602,-55 575.71,-23.82 460.15,-14.49 392.26,-11.69"/>
<polygon fill="#63b8ff" stroke="#63b8ff" points="392.33,-8.19 382.2,-11.31 392.06,-15.19 392.33,-8.19"/>
</a>
</g>
</g>
<!-- Node27&#45;&gt;Node10 -->
<g id="edge58_Node000027_Node000010" class="edge">
<title>Node27&#45;&gt;Node10</title>
<g id="a_edge58_Node000027_Node000010"><a xlink:title=" ">
<path fill="none" stroke="#63b8ff" d="M518.38,-109.99C496.65,-100.36 468.03,-87.67 446.91,-78.31"/>
<polygon fill="#63b8ff" stroke="#63b8ff" points="448.05,-74.99 437.49,-74.14 445.22,-81.39 448.05,-74.99"/>
</a>
</g>
</g>
<!-- Node27&#45;&gt;Node12 -->
<g id="edge59_Node000027_Node000012" class="edge">
<title>Node27&#45;&gt;Node12</title>
<g id="a_edge59_Node000027_Node000012"><a xlink:title=" ">
<path fill="none" stroke="#63b8ff" d="M546.13,-109.84C544.02,-102.13 541.38,-92.49 539.11,-84.17"/>
<polygon fill="#63b8ff" stroke="#63b8ff" points="542.41,-82.99 536.4,-74.27 535.66,-84.84 542.41,-82.99"/>
</a>
</g>
</g>
</g>
</svg>

<g id="navigator" transform="translate(0 0)" fill="#404254">
  <rect fill="#f2f5e9" fill-opacity="0.5" stroke="#606060" stroke-width=".5" x="0" y="0" width="60" height="60"/>
  <use id="zoomplus" xlink:href="#zoomPlus" x="17" y="9" onmousedown="handleZoom(evt,'in')"/>
  <use id="zoomminus" xlink:href="#zoomMin" x="42" y="9" onmousedown="handleZoom(evt,'out')"/>
  <use id="reset" xlink:href="#resetDef" x="30" y="36" onmousedown="handleReset()"/>
   <use id="arrowup" xlink:href="#arrowUp" x="0" y="0" onmousedown="handlePan(0,-1)"/>
  <use id="arrowright" xlink:href="#arrowRight" x="0" y="0" onmousedown="handlePan(1,0)"/>
  <use id="arrowdown" xlink:href="#arrowDown" x="0" y="0" onmousedown="handlePan(0,1)"/>
  <use id="arrowleft" xlink:href="#arrowLeft" x="0" y="0" onmousedown="handlePan(-1,0)"/>
</g>
<svg viewBox="0 0 15 15" width="100%" height="30px" preserveAspectRatio="xMaxYMin meet">
 <g id="arrow_out" transform="scale(0.3 0.3)">
  <a xlink:href="DoubleDeck_8h__incl_org.svg" target="_base">
   <rect id="button" ry="5" rx="5" y="6" x="6" height="38" width="38"
        fill="#f2f5e9" fill-opacity="0.5" stroke="#606060" stroke-width="1.0"/>
   <path id="arrow"
     d="M 11.500037,31.436501 C 11.940474,20.09759 22.043105,11.32322 32.158766,21.979434 L 37.068811,17.246167 C 37.068811,17.246167 37.088388,32 37.088388,32 L 22.160133,31.978069 C 22.160133,31.978069 26.997745,27.140456 26.997745,27.140456 C 18.528582,18.264221 13.291696,25.230495 11.500037,31.436501 z"
     style="fill:#404040;"/>
  </a>
 </g>
</svg>

<style type='text/css'>
<![CDATA[
[data-mouse-over-selected='false'] { opacity: 0.7; }
[data-mouse-over-selected='true']  { opacity: 1.0; }
]]>
</style>
<script type="application/ecmascript"><![CDATA[
document.addEventListener('DOMContentLoaded', (event) => {
  highlightEdges();
  highlightAdjacentNodes();
});
]]></script>
</svg>
