<?xml version="1.0" encoding="UTF-8" standalone="no"?>
<!DOCTYPE svg PUBLIC "-//W3C//DTD SVG 1.1//EN"
 "http://www.w3.org/Graphics/SVG/1.1/DTD/svg11.dtd">
<!-- Generated by graphviz version 2.43.0 (0)
 -->
<!-- Title: spawn_falling_rocks Pages: 1 -->
<svg width="1562pt" height="405pt"
 viewBox="0.00 0.00 1562.00 405.00" xmlns="http://www.w3.org/2000/svg" xmlns:xlink="http://www.w3.org/1999/xlink">
<g id="graph0" class="graph" transform="scale(1 1) rotate(0) translate(4 401)">
<title>spawn_falling_rocks</title>
<!-- Node1 -->
<g id="Node000001" class="node">
<title>Node1</title>
<g id="a_Node000001"><a xlink:title=" ">
<polygon fill="#999999" stroke="#666666" points="116,-76 0,-76 0,-57 116,-57 116,-76"/>
<text text-anchor="middle" x="58" y="-64" font-family="Helvetica,sans-Serif" font-size="10.00">spawn_falling_rocks</text>
</a>
</g>
</g>
<!-- Node2 -->
<g id="Node000002" class="node">
<title>Node2</title>
<g id="a_Node000002"><a xlink:href="actors_8c.html#a91fb2e4e37e7c72fea918fe2c1bb4eaf" target="_top" xlink:title=" ">
<polygon fill="white" stroke="#666666" points="292,-170 152,-170 152,-151 292,-151 292,-170"/>
<text text-anchor="middle" x="222" y="-158" font-family="Helvetica,sans-Serif" font-size="10.00">add_actor_to_empty_slot</text>
</a>
</g>
</g>
<!-- Node1&#45;&gt;Node2 -->
<g id="edge1_Node000001_Node000002" class="edge">
<title>Node1&#45;&gt;Node2</title>
<g id="a_edge1_Node000001_Node000002"><a xlink:title=" ">
<path fill="none" stroke="#63b8ff" d="M75.42,-76.03C103.81,-92.5 162.2,-126.38 195.77,-145.86"/>
<polygon fill="#63b8ff" stroke="#63b8ff" points="194.13,-148.95 204.53,-150.94 197.64,-142.9 194.13,-148.95"/>
</a>
</g>
</g>
<!-- Node21 -->
<g id="Node000021" class="node">
<title>Node21</title>
<g id="a_Node000021"><a xlink:href="collision_8c.html#ad72fef3ffe32191d73b1822f512ebf3f" target="_top" xlink:title=" ">
<polygon fill="white" stroke="#666666" points="594,-95 499,-95 499,-76 594,-76 594,-95"/>
<text text-anchor="middle" x="546.5" y="-83" font-family="Helvetica,sans-Serif" font-size="10.00">func_802AAAAC</text>
</a>
</g>
</g>
<!-- Node1&#45;&gt;Node21 -->
<g id="edge27_Node000001_Node000021" class="edge">
<title>Node1&#45;&gt;Node21</title>
<g id="a_edge27_Node000001_Node000021"><a xlink:title=" ">
<path fill="none" stroke="#63b8ff" d="M116.24,-68.74C210.05,-72.4 395.43,-79.64 488.85,-83.29"/>
<polygon fill="#63b8ff" stroke="#63b8ff" points="488.83,-86.79 498.96,-83.68 489.11,-79.79 488.83,-86.79"/>
</a>
</g>
</g>
<!-- Node22 -->
<g id="Node000022" class="node">
<title>Node22</title>
<g id="a_Node000022"><a xlink:href="math__util_8c.html#a79fd07a0971ec96a3ff0801963a2fa7f" target="_top" xlink:title=" ">
<polygon fill="white" stroke="#666666" points="758,-76 694,-76 694,-57 758,-57 758,-76"/>
<text text-anchor="middle" x="726" y="-64" font-family="Helvetica,sans-Serif" font-size="10.00">vec3f_set</text>
</a>
</g>
</g>
<!-- Node1&#45;&gt;Node22 -->
<g id="edge28_Node000001_Node000022" class="edge">
<title>Node1&#45;&gt;Node22</title>
<g id="a_edge28_Node000001_Node000022"><a xlink:title=" ">
<path fill="none" stroke="#63b8ff" d="M116.07,-66.5C247.59,-66.5 569.47,-66.5 683.84,-66.5"/>
<polygon fill="#63b8ff" stroke="#63b8ff" points="683.93,-70 693.93,-66.5 683.93,-63 683.93,-70"/>
</a>
</g>
</g>
<!-- Node28 -->
<g id="Node000028" class="node">
<title>Node28</title>
<g id="a_Node000028"><a xlink:href="math__util_8c.html#a9092c945c52b3a3481228b2724991e3c" target="_top" xlink:title=" ">
<polygon fill="white" stroke="#666666" points="254.5,-19 189.5,-19 189.5,0 254.5,0 254.5,-19"/>
<text text-anchor="middle" x="222" y="-7" font-family="Helvetica,sans-Serif" font-size="10.00">vec3s_set</text>
</a>
</g>
</g>
<!-- Node1&#45;&gt;Node28 -->
<g id="edge29_Node000001_Node000028" class="edge">
<title>Node1&#45;&gt;Node28</title>
<g id="a_edge29_Node000001_Node000028"><a xlink:title=" ">
<path fill="none" stroke="#63b8ff" d="M85.84,-56.92C104.41,-50.31 129.69,-41.34 152,-33.5 162.34,-29.87 173.56,-25.95 183.88,-22.36"/>
<polygon fill="#63b8ff" stroke="#63b8ff" points="185.16,-25.63 193.45,-19.04 182.86,-19.01 185.16,-25.63"/>
</a>
</g>
</g>
<!-- Node3 -->
<g id="Node000003" class="node">
<title>Node3</title>
<g id="a_Node000003"><a xlink:href="actors_8c.html#a39c023177b5a7686cdd1fc65b8b953e1" target="_top" xlink:title=" ">
<polygon fill="white" stroke="#666666" points="415,-244 353,-244 353,-225 415,-225 415,-244"/>
<text text-anchor="middle" x="384" y="-232" font-family="Helvetica,sans-Serif" font-size="10.00">actor_init</text>
</a>
</g>
</g>
<!-- Node2&#45;&gt;Node3 -->
<g id="edge2_Node000002_Node000003" class="edge">
<title>Node2&#45;&gt;Node3</title>
<g id="a_edge2_Node000002_Node000003"><a xlink:title=" ">
<path fill="none" stroke="#63b8ff" d="M238.94,-170.13C259.15,-182.07 295.31,-202.56 328,-216.5 332.84,-218.57 338.01,-220.54 343.16,-222.37"/>
<polygon fill="#63b8ff" stroke="#63b8ff" points="342.37,-225.8 352.97,-225.71 344.63,-219.18 342.37,-225.8"/>
</a>
</g>
</g>
<!-- Node25 -->
<g id="Node000025" class="node">
<title>Node25</title>
<g id="a_Node000025"><a xlink:href="Game_8cpp.html#acea5cfd9ab22f745bd6627869b95a62e" target="_top" xlink:title=" ">
<polygon fill="white" stroke="#666666" points="440,-207 328,-207 328,-188 440,-188 440,-207"/>
<text text-anchor="middle" x="384" y="-195" font-family="Helvetica,sans-Serif" font-size="10.00">CM_ActorBeginPlay</text>
</a>
</g>
</g>
<!-- Node2&#45;&gt;Node25 -->
<g id="edge24_Node000002_Node000025" class="edge">
<title>Node2&#45;&gt;Node25</title>
<g id="a_edge24_Node000002_Node000025"><a xlink:title=" ">
<path fill="none" stroke="#63b8ff" d="M264.2,-170.03C284.84,-174.8 310.02,-180.62 331.88,-185.68"/>
<polygon fill="#63b8ff" stroke="#63b8ff" points="331.13,-189.1 341.66,-187.94 332.7,-182.28 331.13,-189.1"/>
</a>
</g>
</g>
<!-- Node26 -->
<g id="Node000026" class="node">
<title>Node26</title>
<g id="a_Node000026"><a xlink:href="Game_8cpp.html#a42f23077aaa52cb3ea5c7803b7dd6816" target="_top" xlink:title=" ">
<polygon fill="white" stroke="#666666" points="437,-170 331,-170 331,-151 437,-151 437,-170"/>
<text text-anchor="middle" x="384" y="-158" font-family="Helvetica,sans-Serif" font-size="10.00">CM_AddBaseActor</text>
</a>
</g>
</g>
<!-- Node2&#45;&gt;Node26 -->
<g id="edge25_Node000002_Node000026" class="edge">
<title>Node2&#45;&gt;Node26</title>
<g id="a_edge25_Node000002_Node000026"><a xlink:title=" ">
<path fill="none" stroke="#63b8ff" d="M292.25,-160.5C301.57,-160.5 311.1,-160.5 320.31,-160.5"/>
<polygon fill="#63b8ff" stroke="#63b8ff" points="320.53,-164 330.53,-160.5 320.53,-157 320.53,-164"/>
</a>
</g>
</g>
<!-- Node27 -->
<g id="Node000027" class="node">
<title>Node27</title>
<g id="a_Node000027"><a xlink:href="Game_8cpp.html#a0841ffe9a66e95aca42438b9d8ffc3d3" target="_top" xlink:title=" ">
<polygon fill="white" stroke="#666666" points="434.5,-133 333.5,-133 333.5,-114 434.5,-114 434.5,-133"/>
<text text-anchor="middle" x="384" y="-121" font-family="Helvetica,sans-Serif" font-size="10.00">CM_GetActorSize</text>
</a>
</g>
</g>
<!-- Node2&#45;&gt;Node27 -->
<g id="edge26_Node000002_Node000027" class="edge">
<title>Node2&#45;&gt;Node27</title>
<g id="a_edge26_Node000002_Node000027"><a xlink:title=" ">
<path fill="none" stroke="#63b8ff" d="M264.2,-150.97C284.84,-146.2 310.02,-140.38 331.88,-135.32"/>
<polygon fill="#63b8ff" stroke="#63b8ff" points="332.7,-138.72 341.66,-133.06 331.13,-131.9 332.7,-138.72"/>
</a>
</g>
</g>
<!-- Node4 -->
<g id="Node000004" class="node">
<title>Node4</title>
<g id="a_Node000004"><a xlink:href="collision_8c.html#a37aa55b3768d001533ad75e7f1b8388a" target="_top" xlink:title=" ">
<polygon fill="white" stroke="#666666" points="617,-345 476,-345 476,-326 617,-326 617,-345"/>
<text text-anchor="middle" x="546.5" y="-333" font-family="Helvetica,sans-Serif" font-size="10.00">check_bounding_collision</text>
</a>
</g>
</g>
<!-- Node3&#45;&gt;Node4 -->
<g id="edge3_Node000003_Node000004" class="edge">
<title>Node3&#45;&gt;Node4</title>
<g id="a_edge3_Node000003_Node000004"><a xlink:title=" ">
<path fill="none" stroke="#63b8ff" d="M400.1,-244C428.06,-261.6 488.1,-299.38 521.62,-320.47"/>
<polygon fill="#63b8ff" stroke="#63b8ff" points="520,-323.59 530.32,-325.95 523.72,-317.66 520,-323.59"/>
</a>
</g>
</g>
<!-- Node8 -->
<g id="Node000008" class="node">
<title>Node8</title>
<g id="a_Node000008"><a xlink:href="actors_8c.html#a1a9bccb586242555a9123ebd4ab70f2a" target="_top" xlink:title=" ">
<polygon fill="white" stroke="#666666" points="612.5,-270.5 480.5,-270.5 480.5,-240.5 612.5,-240.5 612.5,-270.5"/>
<text text-anchor="start" x="488.5" y="-258.5" font-family="Helvetica,sans-Serif" font-size="10.00">cleanup_red_and_green</text>
<text text-anchor="middle" x="546.5" y="-247.5" font-family="Helvetica,sans-Serif" font-size="10.00">_shells</text>
</a>
</g>
</g>
<!-- Node3&#45;&gt;Node8 -->
<g id="edge7_Node000003_Node000008" class="edge">
<title>Node3&#45;&gt;Node8</title>
<g id="a_edge7_Node000003_Node000008"><a xlink:title=" ">
<path fill="none" stroke="#63b8ff" d="M415.19,-238.45C430.81,-240.49 450.64,-243.09 470.09,-245.63"/>
<polygon fill="#63b8ff" stroke="#63b8ff" points="469.84,-249.13 480.21,-246.96 470.75,-242.19 469.84,-249.13"/>
</a>
</g>
</g>
<!-- Node3&#45;&gt;Node21 -->
<g id="edge20_Node000003_Node000021" class="edge">
<title>Node3&#45;&gt;Node21</title>
<g id="a_edge20_Node000003_Node000021"><a xlink:title=" ">
<path fill="none" stroke="#63b8ff" d="M415.16,-228.78C423.81,-226.09 432.83,-222.17 440,-216.5 464.09,-197.43 457.22,-181.81 476,-157.5 491.77,-137.08 512.63,-116.13 527.37,-102.13"/>
<polygon fill="#63b8ff" stroke="#63b8ff" points="529.95,-104.5 534.86,-95.11 525.17,-99.39 529.95,-104.5"/>
</a>
</g>
</g>
<!-- Node23 -->
<g id="Node000023" class="node">
<title>Node23</title>
<g id="a_Node000023"><a xlink:href="math__util_8c.html#af7b470ed76fce07b8042a47c96e5690b" target="_top" xlink:title=" ">
<polygon fill="white" stroke="#666666" points="600,-222 493,-222 493,-203 600,-203 600,-222"/>
<text text-anchor="middle" x="546.5" y="-210" font-family="Helvetica,sans-Serif" font-size="10.00">vec3f_copy_return</text>
</a>
</g>
</g>
<!-- Node3&#45;&gt;Node23 -->
<g id="edge22_Node000003_Node000023" class="edge">
<title>Node3&#45;&gt;Node23</title>
<g id="a_edge22_Node000003_Node000023"><a xlink:title=" ">
<path fill="none" stroke="#63b8ff" d="M415.19,-230.36C434.17,-227.76 459.38,-224.3 482.56,-221.13"/>
<polygon fill="#63b8ff" stroke="#63b8ff" points="483.26,-224.56 492.7,-219.74 482.31,-217.63 483.26,-224.56"/>
</a>
</g>
</g>
<!-- Node24 -->
<g id="Node000024" class="node">
<title>Node24</title>
<g id="a_Node000024"><a xlink:href="math__util_8c.html#a0e270ee67600c8c9c2f140c647d008a1" target="_top" xlink:title=" ">
<polygon fill="white" stroke="#666666" points="583.5,-185 509.5,-185 509.5,-166 583.5,-166 583.5,-185"/>
<text text-anchor="middle" x="546.5" y="-173" font-family="Helvetica,sans-Serif" font-size="10.00">vec3s_copy</text>
</a>
</g>
</g>
<!-- Node3&#45;&gt;Node24 -->
<g id="edge23_Node000003_Node000024" class="edge">
<title>Node3&#45;&gt;Node24</title>
<g id="a_edge23_Node000003_Node000024"><a xlink:title=" ">
<path fill="none" stroke="#63b8ff" d="M415.17,-226.02C423.37,-223.34 432.15,-220.12 440,-216.5 457.03,-208.64 458.79,-201.93 476,-194.5 483.51,-191.26 491.72,-188.43 499.78,-186.02"/>
<polygon fill="#63b8ff" stroke="#63b8ff" points="500.81,-189.37 509.48,-183.28 498.91,-182.63 500.81,-189.37"/>
</a>
</g>
</g>
<!-- Node5 -->
<g id="Node000005" class="node">
<title>Node5</title>
<g id="a_Node000005"><a xlink:href="collision_8c.html#ac312bf382cb40752f6b790a99e7cdcb6" target="_top" xlink:title=" ">
<polygon fill="white" stroke="#666666" points="780,-397 672,-397 672,-378 780,-378 780,-397"/>
<text text-anchor="middle" x="726" y="-385" font-family="Helvetica,sans-Serif" font-size="10.00">check_collision_yx</text>
</a>
</g>
</g>
<!-- Node4&#45;&gt;Node5 -->
<g id="edge4_Node000004_Node000005" class="edge">
<title>Node4&#45;&gt;Node5</title>
<g id="a_edge4_Node000004_Node000005"><a xlink:title=" ">
<path fill="none" stroke="#63b8ff" d="M575.55,-345.11C596.72,-352.22 626.54,-361.94 653,-369.5 660.07,-371.52 667.56,-373.53 674.94,-375.44"/>
<polygon fill="#63b8ff" stroke="#63b8ff" points="674.33,-378.9 684.89,-377.98 676.06,-372.12 674.33,-378.9"/>
</a>
</g>
</g>
<!-- Node6 -->
<g id="Node000006" class="node">
<title>Node6</title>
<g id="a_Node000006"><a xlink:href="collision_8c.html#a4b48832a90e984536a0635a016ec4f28" target="_top" xlink:title=" ">
<polygon fill="white" stroke="#666666" points="779.5,-360 672.5,-360 672.5,-341 779.5,-341 779.5,-360"/>
<text text-anchor="middle" x="726" y="-348" font-family="Helvetica,sans-Serif" font-size="10.00">check_collision_zx</text>
</a>
</g>
</g>
<!-- Node4&#45;&gt;Node6 -->
<g id="edge5_Node000004_Node000006" class="edge">
<title>Node4&#45;&gt;Node6</title>
<g id="a_edge5_Node000004_Node000006"><a xlink:title=" ">
<path fill="none" stroke="#63b8ff" d="M617.14,-341.39C631.91,-342.63 647.43,-343.94 661.94,-345.17"/>
<polygon fill="#63b8ff" stroke="#63b8ff" points="662.04,-348.69 672.3,-346.05 662.63,-341.72 662.04,-348.69"/>
</a>
</g>
</g>
<!-- Node7 -->
<g id="Node000007" class="node">
<title>Node7</title>
<g id="a_Node000007"><a xlink:href="collision_8c.html#a21fef964ab48191a1c0341954ef27a40" target="_top" xlink:title=" ">
<polygon fill="white" stroke="#666666" points="779.5,-323 672.5,-323 672.5,-304 779.5,-304 779.5,-323"/>
<text text-anchor="middle" x="726" y="-311" font-family="Helvetica,sans-Serif" font-size="10.00">check_collision_zy</text>
</a>
</g>
</g>
<!-- Node4&#45;&gt;Node7 -->
<g id="edge6_Node000004_Node000007" class="edge">
<title>Node4&#45;&gt;Node7</title>
<g id="a_edge6_Node000004_Node000007"><a xlink:title=" ">
<path fill="none" stroke="#63b8ff" d="M617.14,-326.87C632.06,-325.02 647.73,-323.08 662.36,-321.26"/>
<polygon fill="#63b8ff" stroke="#63b8ff" points="662.81,-324.74 672.3,-320.03 661.95,-317.79 662.81,-324.74"/>
</a>
</g>
</g>
<!-- Node9 -->
<g id="Node000009" class="node">
<title>Node9</title>
<g id="a_Node000009"><a xlink:href="Game_8cpp.html#a693de7d8b89fe291aafea86bc64a0a2e" target="_top" xlink:title=" ">
<polygon fill="white" stroke="#666666" points="766,-286 686,-286 686,-267 766,-267 766,-286"/>
<text text-anchor="middle" x="726" y="-274" font-family="Helvetica,sans-Serif" font-size="10.00">CM_GetActor</text>
</a>
</g>
</g>
<!-- Node8&#45;&gt;Node9 -->
<g id="edge8_Node000008_Node000009" class="edge">
<title>Node8&#45;&gt;Node9</title>
<g id="a_edge8_Node000008_Node000009"><a xlink:title=" ">
<path fill="none" stroke="#63b8ff" d="M612.59,-263.2C633.47,-265.67 656.24,-268.36 675.79,-270.68"/>
<polygon fill="#63b8ff" stroke="#63b8ff" points="675.65,-274.19 685.99,-271.88 676.47,-267.23 675.65,-274.19"/>
</a>
</g>
</g>
<!-- Node10 -->
<g id="Node000010" class="node">
<title>Node10</title>
<g id="a_Node000010"><a xlink:href="code__80005FD0_8c.html#ad301b978cdd3c4cc190b10be050d51d8" target="_top" xlink:title=" ">
<polygon fill="white" stroke="#666666" points="799,-248.5 653,-248.5 653,-218.5 799,-218.5 799,-248.5"/>
<text text-anchor="start" x="661" y="-236.5" font-family="Helvetica,sans-Serif" font-size="10.00">delete_actor_in_unexpired</text>
<text text-anchor="middle" x="726" y="-225.5" font-family="Helvetica,sans-Serif" font-size="10.00">_actor_list</text>
</a>
</g>
</g>
<!-- Node8&#45;&gt;Node10 -->
<g id="edge9_Node000008_Node000010" class="edge">
<title>Node8&#45;&gt;Node10</title>
<g id="a_edge9_Node000008_Node000010"><a xlink:title=" ">
<path fill="none" stroke="#63b8ff" d="M612.59,-247.43C622.38,-246.22 632.59,-244.95 642.69,-243.7"/>
<polygon fill="#63b8ff" stroke="#63b8ff" points="643.24,-247.16 652.73,-242.46 642.38,-240.21 643.24,-247.16"/>
</a>
</g>
</g>
<!-- Node11 -->
<g id="Node000011" class="node">
<title>Node11</title>
<g id="a_Node000011"><a xlink:href="actors_8c.html#a694ec6ef7548b8618aeb35c038d3a9b9" target="_top" xlink:title=" ">
<polygon fill="white" stroke="#666666" points="767.5,-200 684.5,-200 684.5,-181 767.5,-181 767.5,-200"/>
<text text-anchor="middle" x="726" y="-188" font-family="Helvetica,sans-Serif" font-size="10.00">destroy_actor</text>
</a>
</g>
</g>
<!-- Node8&#45;&gt;Node11 -->
<g id="edge10_Node000008_Node000011" class="edge">
<title>Node8&#45;&gt;Node11</title>
<g id="a_edge10_Node000008_Node000011"><a xlink:title=" ">
<path fill="none" stroke="#63b8ff" d="M595.52,-240.44C602.82,-237.72 610.19,-234.71 617,-231.5 633.96,-223.5 635.75,-216.86 653,-209.5 659.79,-206.61 667.12,-204.06 674.43,-201.84"/>
<polygon fill="#63b8ff" stroke="#63b8ff" points="675.66,-205.13 684.32,-199.03 673.74,-198.4 675.66,-205.13"/>
</a>
</g>
</g>
<!-- Node12 -->
<g id="Node000012" class="node">
<title>Node12</title>
<g id="a_Node000012"><a xlink:href="actors_8c.html#a12dc3ccac4c7d8569eadac0af4fd6f9f" target="_top" xlink:title=" ">
<polygon fill="white" stroke="#666666" points="993,-200 835,-200 835,-181 993,-181 993,-200"/>
<text text-anchor="middle" x="914" y="-188" font-family="Helvetica,sans-Serif" font-size="10.00">play_sound_before_despawn</text>
</a>
</g>
</g>
<!-- Node11&#45;&gt;Node12 -->
<g id="edge11_Node000011_Node000012" class="edge">
<title>Node11&#45;&gt;Node12</title>
<g id="a_edge11_Node000011_Node000012"><a xlink:title=" ">
<path fill="none" stroke="#63b8ff" d="M767.82,-190.5C784.65,-190.5 804.86,-190.5 824.77,-190.5"/>
<polygon fill="#63b8ff" stroke="#63b8ff" points="824.82,-194 834.82,-190.5 824.82,-187 824.82,-194"/>
</a>
</g>
</g>
<!-- Node13 -->
<g id="Node000013" class="node">
<title>Node13</title>
<g id="a_Node000013"><a xlink:href="external_8c.html#ae72057869772019e4464c87d4e16c682" target="_top" xlink:title=" ">
<polygon fill="white" stroke="#666666" points="1121,-200 1029,-200 1029,-181 1121,-181 1121,-200"/>
<text text-anchor="middle" x="1075" y="-188" font-family="Helvetica,sans-Serif" font-size="10.00">func_800C99E0</text>
</a>
</g>
</g>
<!-- Node12&#45;&gt;Node13 -->
<g id="edge12_Node000012_Node000013" class="edge">
<title>Node12&#45;&gt;Node13</title>
<g id="a_edge12_Node000012_Node000013"><a xlink:title=" ">
<path fill="none" stroke="#63b8ff" d="M993.1,-190.5C1001.72,-190.5 1010.35,-190.5 1018.61,-190.5"/>
<polygon fill="#63b8ff" stroke="#63b8ff" points="1018.83,-194 1028.83,-190.5 1018.83,-187 1018.83,-194"/>
</a>
</g>
</g>
<!-- Node14 -->
<g id="Node000014" class="node">
<title>Node14</title>
<g id="a_Node000014"><a xlink:href="external_8c.html#aeb87c527482a244173df36a1f3d4f446" target="_top" xlink:title=" ">
<polygon fill="white" stroke="#666666" points="1249,-219 1157,-219 1157,-200 1249,-200 1249,-219"/>
<text text-anchor="middle" x="1203" y="-207" font-family="Helvetica,sans-Serif" font-size="10.00">func_800C21E8</text>
</a>
</g>
</g>
<!-- Node13&#45;&gt;Node14 -->
<g id="edge13_Node000013_Node000014" class="edge">
<title>Node13&#45;&gt;Node14</title>
<g id="a_edge13_Node000013_Node000014"><a xlink:title=" ">
<path fill="none" stroke="#63b8ff" d="M1121.13,-197.31C1129.46,-198.56 1138.23,-199.88 1146.81,-201.18"/>
<polygon fill="#63b8ff" stroke="#63b8ff" points="1146.35,-204.65 1156.76,-202.68 1147.39,-197.73 1146.35,-204.65"/>
</a>
</g>
</g>
<!-- Node15 -->
<g id="Node000015" class="node">
<title>Node15</title>
<g id="a_Node000015"><a xlink:href="external_8c.html#a028d40421b90c38f68ebfd5acc626f2e" target="_top" xlink:title=" ">
<polygon fill="white" stroke="#666666" points="1249,-182 1157,-182 1157,-163 1249,-163 1249,-182"/>
<text text-anchor="middle" x="1203" y="-170" font-family="Helvetica,sans-Serif" font-size="10.00">func_800C5578</text>
</a>
</g>
</g>
<!-- Node13&#45;&gt;Node15 -->
<g id="edge14_Node000013_Node000015" class="edge">
<title>Node13&#45;&gt;Node15</title>
<g id="a_edge14_Node000013_Node000015"><a xlink:title=" ">
<path fill="none" stroke="#63b8ff" d="M1121.13,-184.05C1129.46,-182.86 1138.23,-181.61 1146.81,-180.38"/>
<polygon fill="#63b8ff" stroke="#63b8ff" points="1147.35,-183.84 1156.76,-178.96 1146.36,-176.91 1147.35,-183.84"/>
</a>
</g>
</g>
<!-- Node16 -->
<g id="Node000016" class="node">
<title>Node16</title>
<g id="a_Node000016"><a xlink:href="external_8c.html#ac0fb767de7e14a03f1bcfa53f0abd23b" target="_top" xlink:title=" ">
<polygon fill="white" stroke="#666666" points="1425,-219 1285,-219 1285,-200 1425,-200 1425,-219"/>
<text text-anchor="middle" x="1355" y="-207" font-family="Helvetica,sans-Serif" font-size="10.00">delete_sound_from_bank</text>
</a>
</g>
</g>
<!-- Node15&#45;&gt;Node16 -->
<g id="edge15_Node000015_Node000016" class="edge">
<title>Node15&#45;&gt;Node16</title>
<g id="a_edge15_Node000015_Node000016"><a xlink:title=" ">
<path fill="none" stroke="#63b8ff" d="M1242.63,-182.03C1261.8,-186.76 1285.16,-192.52 1305.52,-197.54"/>
<polygon fill="#63b8ff" stroke="#63b8ff" points="1304.69,-200.94 1315.24,-199.94 1306.37,-194.15 1304.69,-200.94"/>
</a>
</g>
</g>
<!-- Node18 -->
<g id="Node000018" class="node">
<title>Node18</title>
<g id="a_Node000018"><a xlink:href="external_8c.html#ab83bd36e63f0f1baddcb2482b5ad31b0" target="_top" xlink:title=" ">
<polygon fill="white" stroke="#666666" points="1401.5,-182 1308.5,-182 1308.5,-163 1401.5,-163 1401.5,-182"/>
<text text-anchor="middle" x="1355" y="-170" font-family="Helvetica,sans-Serif" font-size="10.00">func_800C41CC</text>
</a>
</g>
</g>
<!-- Node15&#45;&gt;Node18 -->
<g id="edge17_Node000015_Node000018" class="edge">
<title>Node15&#45;&gt;Node18</title>
<g id="a_edge17_Node000015_Node000018"><a xlink:title=" ">
<path fill="none" stroke="#63b8ff" d="M1249,-172.5C1264.37,-172.5 1281.74,-172.5 1297.86,-172.5"/>
<polygon fill="#63b8ff" stroke="#63b8ff" points="1298.25,-176 1308.25,-172.5 1298.25,-169 1298.25,-176"/>
</a>
</g>
</g>
<!-- Node19 -->
<g id="Node000019" class="node">
<title>Node19</title>
<g id="a_Node000019"><a xlink:href="port__eu_8c.html#aa89dfaecca46c6d071f08c1898d1f7c9" target="_top" xlink:title=" ">
<polygon fill="white" stroke="#666666" points="1401.5,-145 1308.5,-145 1308.5,-126 1401.5,-126 1401.5,-145"/>
<text text-anchor="middle" x="1355" y="-133" font-family="Helvetica,sans-Serif" font-size="10.00">func_800CBBE8</text>
</a>
</g>
</g>
<!-- Node15&#45;&gt;Node19 -->
<g id="edge18_Node000015_Node000019" class="edge">
<title>Node15&#45;&gt;Node19</title>
<g id="a_edge18_Node000015_Node000019"><a xlink:title=" ">
<path fill="none" stroke="#63b8ff" d="M1242.63,-162.97C1261.8,-158.24 1285.16,-152.48 1305.52,-147.46"/>
<polygon fill="#63b8ff" stroke="#63b8ff" points="1306.37,-150.85 1315.24,-145.06 1304.69,-144.06 1306.37,-150.85"/>
</a>
</g>
</g>
<!-- Node17 -->
<g id="Node000017" class="node">
<title>Node17</title>
<g id="a_Node000017"><a xlink:href="external_8c.html#a358ac55e8ab5262dcae8037334be06d7" target="_top" xlink:title=" ">
<polygon fill="white" stroke="#666666" points="1553.5,-219 1461.5,-219 1461.5,-200 1553.5,-200 1553.5,-219"/>
<text text-anchor="middle" x="1507.5" y="-207" font-family="Helvetica,sans-Serif" font-size="10.00">func_800C40F0</text>
</a>
</g>
</g>
<!-- Node16&#45;&gt;Node17 -->
<g id="edge16_Node000016_Node000017" class="edge">
<title>Node16&#45;&gt;Node17</title>
<g id="a_edge16_Node000016_Node000017"><a xlink:title=" ">
<path fill="none" stroke="#63b8ff" d="M1425.08,-209.5C1433.87,-209.5 1442.78,-209.5 1451.31,-209.5"/>
<polygon fill="#63b8ff" stroke="#63b8ff" points="1451.5,-213 1461.5,-209.5 1451.5,-206 1451.5,-213"/>
</a>
</g>
</g>
<!-- Node20 -->
<g id="Node000020" class="node">
<title>Node20</title>
<g id="a_Node000020"><a xlink:href="port__eu_8c.html#af361a20d2e08f30c53a237ca481ff734" target="_top" xlink:title=" ">
<polygon fill="white" stroke="#666666" points="1554,-145 1461,-145 1461,-126 1554,-126 1554,-145"/>
<text text-anchor="middle" x="1507.5" y="-133" font-family="Helvetica,sans-Serif" font-size="10.00">func_800CBB48</text>
</a>
</g>
</g>
<!-- Node19&#45;&gt;Node20 -->
<g id="edge19_Node000019_Node000020" class="edge">
<title>Node19&#45;&gt;Node20</title>
<g id="a_edge19_Node000019_Node000020"><a xlink:title=" ">
<path fill="none" stroke="#63b8ff" d="M1401.56,-135.5C1416.96,-135.5 1434.34,-135.5 1450.46,-135.5"/>
<polygon fill="#63b8ff" stroke="#63b8ff" points="1450.83,-139 1460.83,-135.5 1450.83,-132 1450.83,-139"/>
</a>
</g>
</g>
<!-- Node21&#45;&gt;Node22 -->
<g id="edge21_Node000021_Node000022" class="edge">
<title>Node21&#45;&gt;Node22</title>
<g id="a_edge21_Node000021_Node000022"><a xlink:title=" ">
<path fill="none" stroke="#63b8ff" d="M594.14,-80.51C621.88,-77.54 656.78,-73.8 683.56,-70.94"/>
<polygon fill="#63b8ff" stroke="#63b8ff" points="684.19,-74.39 693.76,-69.84 683.44,-67.43 684.19,-74.39"/>
</a>
</g>
</g>
</g>
</svg>
