<?xml version="1.0" encoding="UTF-8" standalone="no"?>
<!DOCTYPE svg PUBLIC "-//W3C//DTD SVG 1.1//EN"
 "http://www.w3.org/Graphics/SVG/1.1/DTD/svg11.dtd">
<!-- Generated by graphviz version 2.43.0 (0)
 -->
<!-- Title: src/engine/actors/Finishline.h Pages: 1 -->
<svg width="3048pt" height="203pt"
 viewBox="0.00 0.00 3048.00 203.00" xmlns="http://www.w3.org/2000/svg" xmlns:xlink="http://www.w3.org/1999/xlink">
<g id="graph0" class="graph" transform="scale(1 1) rotate(0) translate(4 199)">
<title>src/engine/actors/Finishline.h</title>
<!-- Node1 -->
<g id="Node000001" class="node">
<title>Node1</title>
<g id="a_Node000001"><a xlink:title=" ">
<polygon fill="#999999" stroke="#666666" points="1805,-195 1647,-195 1647,-176 1805,-176 1805,-195"/>
<text text-anchor="middle" x="1726" y="-183" font-family="Helvetica,sans-Serif" font-size="10.00">src/engine/actors/Finishline.h</text>
</a>
</g>
</g>
<!-- Node2 -->
<g id="Node000002" class="node">
<title>Node2</title>
<g id="a_Node000002"><a xlink:href="AllActors_8h.html" target="_top" xlink:title=" ">
<polygon fill="white" stroke="#666666" points="379,-134.5 257,-134.5 257,-115.5 379,-115.5 379,-134.5"/>
<text text-anchor="middle" x="318" y="-122.5" font-family="Helvetica,sans-Serif" font-size="10.00">src/engine/AllActors.h</text>
</a>
</g>
</g>
<!-- Node1&#45;&gt;Node2 -->
<g id="edge1_Node000001_Node000002" class="edge">
<title>Node1&#45;&gt;Node2</title>
<g id="a_edge1_Node000001_Node000002"><a xlink:title=" ">
<path fill="none" stroke="#63b8ff" d="M1636.57,-183.44C1377.71,-180.07 630.78,-168.12 388,-140 377.17,-138.75 365.51,-136.7 354.88,-134.55"/>
<polygon fill="#63b8ff" stroke="#63b8ff" points="1636.64,-186.94 1646.68,-183.57 1636.73,-179.94 1636.64,-186.94"/>
</a>
</g>
</g>
<!-- Node8 -->
<g id="Node000008" class="node">
<title>Node8</title>
<g id="a_Node000008"><a xlink:href="Finishline_8cpp.html" target="_top" xlink:title=" ">
<polygon fill="white" stroke="#666666" points="567,-134.5 397,-134.5 397,-115.5 567,-115.5 567,-134.5"/>
<text text-anchor="middle" x="482" y="-122.5" font-family="Helvetica,sans-Serif" font-size="10.00">src/engine/actors/Finishline.cpp</text>
</a>
</g>
</g>
<!-- Node1&#45;&gt;Node8 -->
<g id="edge8_Node000001_Node000008" class="edge">
<title>Node1&#45;&gt;Node8</title>
<g id="a_edge8_Node000001_Node000008"><a xlink:title=" ">
<path fill="none" stroke="#63b8ff" d="M1636.55,-184.36C1442.8,-183.32 970.05,-176.86 576,-140 561.71,-138.66 546.27,-136.62 532.12,-134.5"/>
<polygon fill="#63b8ff" stroke="#63b8ff" points="1636.66,-187.86 1646.68,-184.41 1636.7,-180.86 1636.66,-187.86"/>
</a>
</g>
</g>
<!-- Node9 -->
<g id="Node000009" class="node">
<title>Node9</title>
<g id="a_Node000009"><a xlink:href="BansheeBoardwalk_8cpp.html" target="_top" xlink:title=" ">
<polygon fill="white" stroke="#666666" points="719,-140 585,-140 585,-110 719,-110 719,-140"/>
<text text-anchor="start" x="593" y="-128" font-family="Helvetica,sans-Serif" font-size="10.00">src/engine/courses</text>
<text text-anchor="middle" x="652" y="-117" font-family="Helvetica,sans-Serif" font-size="10.00">/BansheeBoardwalk.cpp</text>
</a>
</g>
</g>
<!-- Node1&#45;&gt;Node9 -->
<g id="edge9_Node000001_Node000009" class="edge">
<title>Node1&#45;&gt;Node9</title>
<g id="a_edge9_Node000001_Node000009"><a xlink:title=" ">
<path fill="none" stroke="#63b8ff" d="M1636.6,-184.63C1461.58,-183.97 1061.69,-177.99 728,-140 725.07,-139.67 722.08,-139.29 719.06,-138.87"/>
<polygon fill="#63b8ff" stroke="#63b8ff" points="1636.78,-188.13 1646.79,-184.66 1636.8,-181.13 1636.78,-188.13"/>
</a>
</g>
</g>
<!-- Node10 -->
<g id="Node000010" class="node">
<title>Node10</title>
<g id="a_Node000010"><a xlink:href="BowsersCastle_8cpp.html" target="_top" xlink:title=" ">
<polygon fill="white" stroke="#666666" points="849,-140 737,-140 737,-110 849,-110 849,-140"/>
<text text-anchor="start" x="745" y="-128" font-family="Helvetica,sans-Serif" font-size="10.00">src/engine/courses</text>
<text text-anchor="middle" x="793" y="-117" font-family="Helvetica,sans-Serif" font-size="10.00">/BowsersCastle.cpp</text>
</a>
</g>
</g>
<!-- Node1&#45;&gt;Node10 -->
<g id="edge10_Node000001_Node000010" class="edge">
<title>Node1&#45;&gt;Node10</title>
<g id="a_edge10_Node000001_Node000010"><a xlink:title=" ">
<path fill="none" stroke="#63b8ff" d="M1636.79,-184.65C1479.01,-183.85 1140.68,-177.44 858,-140 855.14,-139.62 852.22,-139.18 849.27,-138.7"/>
<polygon fill="#63b8ff" stroke="#63b8ff" points="1636.9,-188.15 1646.92,-184.69 1636.94,-181.15 1636.9,-188.15"/>
</a>
</g>
</g>
<!-- Node11 -->
<g id="Node000011" class="node">
<title>Node11</title>
<g id="a_Node000011"><a xlink:href="ChocoMountain_8cpp.html" target="_top" xlink:title=" ">
<polygon fill="white" stroke="#666666" points="983,-140 867,-140 867,-110 983,-110 983,-140"/>
<text text-anchor="start" x="875" y="-128" font-family="Helvetica,sans-Serif" font-size="10.00">src/engine/courses</text>
<text text-anchor="middle" x="925" y="-117" font-family="Helvetica,sans-Serif" font-size="10.00">/ChocoMountain.cpp</text>
</a>
</g>
</g>
<!-- Node1&#45;&gt;Node11 -->
<g id="edge11_Node000001_Node000011" class="edge">
<title>Node1&#45;&gt;Node11</title>
<g id="a_edge11_Node000001_Node000011"><a xlink:title=" ">
<path fill="none" stroke="#63b8ff" d="M1636.6,-183.17C1498.13,-180.18 1223.72,-170.6 993,-140 989.77,-139.57 986.47,-139.08 983.15,-138.54"/>
<polygon fill="#63b8ff" stroke="#63b8ff" points="1636.66,-186.67 1646.73,-183.38 1636.81,-179.67 1636.66,-186.67"/>
</a>
</g>
</g>
<!-- Node12 -->
<g id="Node000012" class="node">
<title>Node12</title>
<g id="a_Node000012"><a xlink:href="DKJungle_8cpp.html" target="_top" xlink:title=" ">
<polygon fill="white" stroke="#666666" points="1108.5,-140 1001.5,-140 1001.5,-110 1108.5,-110 1108.5,-140"/>
<text text-anchor="start" x="1009.5" y="-128" font-family="Helvetica,sans-Serif" font-size="10.00">src/engine/courses</text>
<text text-anchor="middle" x="1055" y="-117" font-family="Helvetica,sans-Serif" font-size="10.00">/DKJungle.cpp</text>
</a>
</g>
</g>
<!-- Node1&#45;&gt;Node12 -->
<g id="edge12_Node000001_Node000012" class="edge">
<title>Node1&#45;&gt;Node12</title>
<g id="a_edge12_Node000001_Node000012"><a xlink:title=" ">
<path fill="none" stroke="#63b8ff" d="M1636.75,-182.03C1517.84,-177.82 1301.15,-166.91 1118,-140 1114.9,-139.54 1111.72,-139.02 1108.52,-138.45"/>
<polygon fill="#63b8ff" stroke="#63b8ff" points="1636.78,-185.54 1646.9,-182.38 1637.02,-178.54 1636.78,-185.54"/>
</a>
</g>
</g>
<!-- Node13 -->
<g id="Node000013" class="node">
<title>Node13</title>
<g id="a_Node000013"><a xlink:href="FrappeSnowland_8cpp.html" target="_top" xlink:title=" ">
<polygon fill="white" stroke="#666666" points="1247,-140 1127,-140 1127,-110 1247,-110 1247,-140"/>
<text text-anchor="start" x="1135" y="-128" font-family="Helvetica,sans-Serif" font-size="10.00">src/engine/courses</text>
<text text-anchor="middle" x="1187" y="-117" font-family="Helvetica,sans-Serif" font-size="10.00">/FrappeSnowland.cpp</text>
</a>
</g>
</g>
<!-- Node1&#45;&gt;Node13 -->
<g id="edge13_Node000001_Node000013" class="edge">
<title>Node1&#45;&gt;Node13</title>
<g id="a_edge13_Node000001_Node000013"><a xlink:title=" ">
<path fill="none" stroke="#63b8ff" d="M1636.77,-178.77C1542.17,-172.07 1388.56,-159.34 1257,-140 1253.81,-139.53 1250.55,-139.01 1247.26,-138.46"/>
<polygon fill="#63b8ff" stroke="#63b8ff" points="1636.65,-182.28 1646.87,-179.48 1637.14,-175.29 1636.65,-182.28"/>
</a>
</g>
</g>
<!-- Node14 -->
<g id="Node000014" class="node">
<title>Node14</title>
<g id="a_Node000014"><a xlink:href="Harbour_8cpp.html" target="_top" xlink:title=" ">
<polygon fill="white" stroke="#666666" points="1372.5,-140 1265.5,-140 1265.5,-110 1372.5,-110 1372.5,-140"/>
<text text-anchor="start" x="1273.5" y="-128" font-family="Helvetica,sans-Serif" font-size="10.00">src/engine/courses</text>
<text text-anchor="middle" x="1319" y="-117" font-family="Helvetica,sans-Serif" font-size="10.00">/Harbour.cpp</text>
</a>
</g>
</g>
<!-- Node1&#45;&gt;Node14 -->
<g id="edge14_Node000001_Node000014" class="edge">
<title>Node1&#45;&gt;Node14</title>
<g id="a_edge14_Node000001_Node000014"><a xlink:title=" ">
<path fill="none" stroke="#63b8ff" d="M1636.74,-175.18C1567.1,-167.38 1468.07,-155.1 1382,-140 1378.91,-139.46 1375.74,-138.87 1372.55,-138.24"/>
<polygon fill="#63b8ff" stroke="#63b8ff" points="1636.47,-178.68 1646.79,-176.3 1637.24,-171.72 1636.47,-178.68"/>
</a>
</g>
</g>
<!-- Node15 -->
<g id="Node000015" class="node">
<title>Node15</title>
<g id="a_Node000015"><a xlink:href="KalimariDesert_8cpp.html" target="_top" xlink:title=" ">
<polygon fill="white" stroke="#666666" points="1503.5,-140 1390.5,-140 1390.5,-110 1503.5,-110 1503.5,-140"/>
<text text-anchor="start" x="1398.5" y="-128" font-family="Helvetica,sans-Serif" font-size="10.00">src/engine/courses</text>
<text text-anchor="middle" x="1447" y="-117" font-family="Helvetica,sans-Serif" font-size="10.00">/KalimariDesert.cpp</text>
</a>
</g>
</g>
<!-- Node1&#45;&gt;Node15 -->
<g id="edge15_Node000001_Node000015" class="edge">
<title>Node1&#45;&gt;Node15</title>
<g id="a_edge15_Node000001_Node000015"><a xlink:title=" ">
<path fill="none" stroke="#63b8ff" d="M1674.79,-173.85C1631.64,-164.86 1568.27,-151.64 1513,-140 1509.91,-139.35 1506.73,-138.68 1503.52,-138"/>
<polygon fill="#63b8ff" stroke="#63b8ff" points="1674.26,-177.31 1684.76,-175.92 1675.68,-170.46 1674.26,-177.31"/>
</a>
</g>
</g>
<!-- Node16 -->
<g id="Node000016" class="node">
<title>Node16</title>
<g id="a_Node000016"><a xlink:href="KoopaTroopaBeach_8cpp.html" target="_top" xlink:title=" ">
<polygon fill="white" stroke="#666666" points="1654,-140 1522,-140 1522,-110 1654,-110 1654,-140"/>
<text text-anchor="start" x="1530" y="-128" font-family="Helvetica,sans-Serif" font-size="10.00">src/engine/courses</text>
<text text-anchor="middle" x="1588" y="-117" font-family="Helvetica,sans-Serif" font-size="10.00">/KoopaTroopaBeach.cpp</text>
</a>
</g>
</g>
<!-- Node1&#45;&gt;Node16 -->
<g id="edge16_Node000001_Node000016" class="edge">
<title>Node1&#45;&gt;Node16</title>
<g id="a_edge16_Node000001_Node000016"><a xlink:title=" ">
<path fill="none" stroke="#63b8ff" d="M1696.7,-172.08C1674.58,-162.7 1644.2,-149.82 1621.18,-140.06"/>
<polygon fill="#63b8ff" stroke="#63b8ff" points="1695.36,-175.31 1705.93,-175.99 1698.09,-168.87 1695.36,-175.31"/>
</a>
</g>
</g>
<!-- Node17 -->
<g id="Node000017" class="node">
<title>Node17</title>
<g id="a_Node000017"><a xlink:href="LuigiRaceway_8cpp.html" target="_top" xlink:title=" ">
<polygon fill="white" stroke="#666666" points="1779.5,-140 1672.5,-140 1672.5,-110 1779.5,-110 1779.5,-140"/>
<text text-anchor="start" x="1680.5" y="-128" font-family="Helvetica,sans-Serif" font-size="10.00">src/engine/courses</text>
<text text-anchor="middle" x="1726" y="-117" font-family="Helvetica,sans-Serif" font-size="10.00">/LuigiRaceway.cpp</text>
</a>
</g>
</g>
<!-- Node1&#45;&gt;Node17 -->
<g id="edge17_Node000001_Node000017" class="edge">
<title>Node1&#45;&gt;Node17</title>
<g id="a_edge17_Node000001_Node000017"><a xlink:title=" ">
<path fill="none" stroke="#63b8ff" d="M1726,-165.65C1726,-157.36 1726,-147.78 1726,-140.11"/>
<polygon fill="#63b8ff" stroke="#63b8ff" points="1722.5,-165.87 1726,-175.87 1729.5,-165.87 1722.5,-165.87"/>
</a>
</g>
</g>
<!-- Node18 -->
<g id="Node000018" class="node">
<title>Node18</title>
<g id="a_Node000018"><a xlink:href="MarioRaceway_8cpp.html" target="_top" xlink:title=" ">
<polygon fill="white" stroke="#666666" points="1908,-140 1798,-140 1798,-110 1908,-110 1908,-140"/>
<text text-anchor="start" x="1806" y="-128" font-family="Helvetica,sans-Serif" font-size="10.00">src/engine/courses</text>
<text text-anchor="middle" x="1853" y="-117" font-family="Helvetica,sans-Serif" font-size="10.00">/MarioRaceway.cpp</text>
</a>
</g>
</g>
<!-- Node1&#45;&gt;Node18 -->
<g id="edge18_Node000001_Node000018" class="edge">
<title>Node1&#45;&gt;Node18</title>
<g id="a_edge18_Node000001_Node000018"><a xlink:title=" ">
<path fill="none" stroke="#63b8ff" d="M1753.75,-171.72C1773.96,-162.41 1801.34,-149.8 1822.22,-140.18"/>
<polygon fill="#63b8ff" stroke="#63b8ff" points="1752.09,-168.63 1744.47,-175.99 1755.01,-174.99 1752.09,-168.63"/>
</a>
</g>
</g>
<!-- Node19 -->
<g id="Node000019" class="node">
<title>Node19</title>
<g id="a_Node000019"><a xlink:href="MooMooFarm_8cpp.html" target="_top" xlink:title=" ">
<polygon fill="white" stroke="#666666" points="2033.5,-140 1926.5,-140 1926.5,-110 2033.5,-110 2033.5,-140"/>
<text text-anchor="start" x="1934.5" y="-128" font-family="Helvetica,sans-Serif" font-size="10.00">src/engine/courses</text>
<text text-anchor="middle" x="1980" y="-117" font-family="Helvetica,sans-Serif" font-size="10.00">/MooMooFarm.cpp</text>
</a>
</g>
</g>
<!-- Node1&#45;&gt;Node19 -->
<g id="edge19_Node000001_Node000019" class="edge">
<title>Node1&#45;&gt;Node19</title>
<g id="a_edge19_Node000001_Node000019"><a xlink:title=" ">
<path fill="none" stroke="#63b8ff" d="M1772.94,-173.69C1816.31,-163.7 1880.72,-148.87 1926.16,-138.4"/>
<polygon fill="#63b8ff" stroke="#63b8ff" points="1771.89,-170.34 1762.93,-175.99 1773.46,-177.16 1771.89,-170.34"/>
</a>
</g>
</g>
<!-- Node20 -->
<g id="Node000020" class="node">
<title>Node20</title>
<g id="a_Node000020"><a xlink:href="RainbowRoad_8cpp.html" target="_top" xlink:title=" ">
<polygon fill="white" stroke="#666666" points="2158.5,-140 2051.5,-140 2051.5,-110 2158.5,-110 2158.5,-140"/>
<text text-anchor="start" x="2059.5" y="-128" font-family="Helvetica,sans-Serif" font-size="10.00">src/engine/courses</text>
<text text-anchor="middle" x="2105" y="-117" font-family="Helvetica,sans-Serif" font-size="10.00">/RainbowRoad.cpp</text>
</a>
</g>
</g>
<!-- Node1&#45;&gt;Node20 -->
<g id="edge20_Node000001_Node000020" class="edge">
<title>Node1&#45;&gt;Node20</title>
<g id="a_edge20_Node000001_Node000020"><a xlink:title=" ">
<path fill="none" stroke="#63b8ff" d="M1809.04,-174.75C1873.16,-166.76 1963.99,-154.44 2043,-140 2045.71,-139.5 2048.49,-138.97 2051.29,-138.41"/>
<polygon fill="#63b8ff" stroke="#63b8ff" points="1808.48,-171.29 1798.98,-175.99 1809.34,-178.24 1808.48,-171.29"/>
</a>
</g>
</g>
<!-- Node21 -->
<g id="Node000021" class="node">
<title>Node21</title>
<g id="a_Node000021"><a xlink:href="RoyalRaceway_8cpp.html" target="_top" xlink:title=" ">
<polygon fill="white" stroke="#666666" points="2287,-140 2177,-140 2177,-110 2287,-110 2287,-140"/>
<text text-anchor="start" x="2185" y="-128" font-family="Helvetica,sans-Serif" font-size="10.00">src/engine/courses</text>
<text text-anchor="middle" x="2232" y="-117" font-family="Helvetica,sans-Serif" font-size="10.00">/RoyalRaceway.cpp</text>
</a>
</g>
</g>
<!-- Node1&#45;&gt;Node21 -->
<g id="edge21_Node000001_Node000021" class="edge">
<title>Node1&#45;&gt;Node21</title>
<g id="a_edge21_Node000001_Node000021"><a xlink:title=" ">
<path fill="none" stroke="#63b8ff" d="M1815.52,-178.52C1905.09,-171.83 2046.62,-159.32 2168,-140 2170.92,-139.54 2173.91,-139.02 2176.92,-138.47"/>
<polygon fill="#63b8ff" stroke="#63b8ff" points="1815.11,-175.04 1805.4,-179.27 1815.63,-182.02 1815.11,-175.04"/>
</a>
</g>
</g>
<!-- Node22 -->
<g id="Node000022" class="node">
<title>Node22</title>
<g id="a_Node000022"><a xlink:href="SherbetLand_8cpp.html" target="_top" xlink:title=" ">
<polygon fill="white" stroke="#666666" points="2412.5,-140 2305.5,-140 2305.5,-110 2412.5,-110 2412.5,-140"/>
<text text-anchor="start" x="2313.5" y="-128" font-family="Helvetica,sans-Serif" font-size="10.00">src/engine/courses</text>
<text text-anchor="middle" x="2359" y="-117" font-family="Helvetica,sans-Serif" font-size="10.00">/SherbetLand.cpp</text>
</a>
</g>
</g>
<!-- Node1&#45;&gt;Node22 -->
<g id="edge22_Node000001_Node000022" class="edge">
<title>Node1&#45;&gt;Node22</title>
<g id="a_edge22_Node000001_Node000022"><a xlink:title=" ">
<path fill="none" stroke="#63b8ff" d="M1815.52,-181.41C1928.15,-176.63 2127.26,-165.21 2296,-140 2299.1,-139.54 2302.28,-139.01 2305.48,-138.43"/>
<polygon fill="#63b8ff" stroke="#63b8ff" points="1815.08,-177.92 1805.23,-181.84 1815.37,-184.92 1815.08,-177.92"/>
</a>
</g>
</g>
<!-- Node23 -->
<g id="Node000023" class="node">
<title>Node23</title>
<g id="a_Node000023"><a xlink:href="TestCourse_8cpp.html" target="_top" xlink:title=" ">
<polygon fill="white" stroke="#666666" points="2537.5,-140 2430.5,-140 2430.5,-110 2537.5,-110 2537.5,-140"/>
<text text-anchor="start" x="2438.5" y="-128" font-family="Helvetica,sans-Serif" font-size="10.00">src/engine/courses</text>
<text text-anchor="middle" x="2484" y="-117" font-family="Helvetica,sans-Serif" font-size="10.00">/TestCourse.cpp</text>
</a>
</g>
</g>
<!-- Node1&#45;&gt;Node23 -->
<g id="edge23_Node000001_Node000023" class="edge">
<title>Node1&#45;&gt;Node23</title>
<g id="a_edge23_Node000001_Node000023"><a xlink:title=" ">
<path fill="none" stroke="#63b8ff" d="M1815.36,-183.3C1948.27,-180.49 2205.62,-171.15 2422,-140 2424.73,-139.61 2427.52,-139.16 2430.33,-138.67"/>
<polygon fill="#63b8ff" stroke="#63b8ff" points="1815.15,-179.8 1805.22,-183.5 1815.29,-186.8 1815.15,-179.8"/>
</a>
</g>
</g>
<!-- Node24 -->
<g id="Node000024" class="node">
<title>Node24</title>
<g id="a_Node000024"><a xlink:href="ToadsTurnpike_8cpp.html" target="_top" xlink:title=" ">
<polygon fill="white" stroke="#666666" points="2664,-140 2556,-140 2556,-110 2664,-110 2664,-140"/>
<text text-anchor="start" x="2564" y="-128" font-family="Helvetica,sans-Serif" font-size="10.00">src/engine/courses</text>
<text text-anchor="middle" x="2610" y="-117" font-family="Helvetica,sans-Serif" font-size="10.00">/ToadsTurnpike.cpp</text>
</a>
</g>
</g>
<!-- Node1&#45;&gt;Node24 -->
<g id="edge24_Node000001_Node000024" class="edge">
<title>Node1&#45;&gt;Node24</title>
<g id="a_edge24_Node000001_Node000024"><a xlink:title=" ">
<path fill="none" stroke="#63b8ff" d="M1815.25,-184.45C1966.53,-183.31 2282.61,-176.29 2547,-140 2549.89,-139.6 2552.84,-139.14 2555.81,-138.64"/>
<polygon fill="#63b8ff" stroke="#63b8ff" points="1815.07,-180.96 1805.09,-184.52 1815.11,-187.96 1815.07,-180.96"/>
</a>
</g>
</g>
<!-- Node25 -->
<g id="Node000025" class="node">
<title>Node25</title>
<g id="a_Node000025"><a xlink:href="WarioStadium_8cpp.html" target="_top" xlink:title=" ">
<polygon fill="white" stroke="#666666" points="2790,-140 2682,-140 2682,-110 2790,-110 2790,-140"/>
<text text-anchor="start" x="2690" y="-128" font-family="Helvetica,sans-Serif" font-size="10.00">src/engine/courses</text>
<text text-anchor="middle" x="2736" y="-117" font-family="Helvetica,sans-Serif" font-size="10.00">/WarioStadium.cpp</text>
</a>
</g>
</g>
<!-- Node1&#45;&gt;Node25 -->
<g id="edge25_Node000001_Node000025" class="edge">
<title>Node1&#45;&gt;Node25</title>
<g id="a_edge25_Node000001_Node000025"><a xlink:title=" ">
<path fill="none" stroke="#63b8ff" d="M1815.36,-185.39C1983.88,-185.95 2359.84,-181.84 2673,-140 2675.89,-139.61 2678.84,-139.16 2681.81,-138.66"/>
<polygon fill="#63b8ff" stroke="#63b8ff" points="1815.31,-181.89 1805.29,-185.35 1815.28,-188.89 1815.31,-181.89"/>
</a>
</g>
</g>
<!-- Node26 -->
<g id="Node000026" class="node">
<title>Node26</title>
<g id="a_Node000026"><a xlink:href="YoshiValley_8cpp.html" target="_top" xlink:title=" ">
<polygon fill="white" stroke="#666666" points="2915.5,-140 2808.5,-140 2808.5,-110 2915.5,-110 2915.5,-140"/>
<text text-anchor="start" x="2816.5" y="-128" font-family="Helvetica,sans-Serif" font-size="10.00">src/engine/courses</text>
<text text-anchor="middle" x="2862" y="-117" font-family="Helvetica,sans-Serif" font-size="10.00">/YoshiValley.cpp</text>
</a>
</g>
</g>
<!-- Node1&#45;&gt;Node26 -->
<g id="edge26_Node000001_Node000026" class="edge">
<title>Node1&#45;&gt;Node26</title>
<g id="a_edge26_Node000001_Node000026"><a xlink:title=" ">
<path fill="none" stroke="#63b8ff" d="M1815.44,-182.83C2037.53,-178.36 2609.85,-164.74 2799,-140 2802.11,-139.59 2805.29,-139.11 2808.5,-138.57"/>
<polygon fill="#63b8ff" stroke="#63b8ff" points="1815.06,-179.34 1805.13,-183.04 1815.2,-186.34 1815.06,-179.34"/>
</a>
</g>
</g>
<!-- Node27 -->
<g id="Node000027" class="node">
<title>Node27</title>
<g id="a_Node000027"><a xlink:href="Game_8cpp.html" target="_top" xlink:title=" ">
<polygon fill="white" stroke="#666666" points="3040,-134.5 2934,-134.5 2934,-115.5 3040,-115.5 3040,-134.5"/>
<text text-anchor="middle" x="2987" y="-122.5" font-family="Helvetica,sans-Serif" font-size="10.00">src/port/Game.cpp</text>
</a>
</g>
</g>
<!-- Node1&#45;&gt;Node27 -->
<g id="edge27_Node000001_Node000027" class="edge">
<title>Node1&#45;&gt;Node27</title>
<g id="a_edge27_Node000001_Node000027"><a xlink:title=" ">
<path fill="none" stroke="#63b8ff" d="M1815.23,-183.33C2055.17,-179.83 2710.55,-167.95 2925,-140 2934.63,-138.75 2944.96,-136.7 2954.38,-134.55"/>
<polygon fill="#63b8ff" stroke="#63b8ff" points="1815.1,-179.83 1805.15,-183.47 1815.2,-186.83 1815.1,-179.83"/>
</a>
</g>
</g>
<!-- Node3 -->
<g id="Node000003" class="node">
<title>Node3</title>
<g id="a_Node000003"><a xlink:href="RaceManager_8cpp.html" target="_top" xlink:title=" ">
<polygon fill="white" stroke="#666666" points="156,-74 0,-74 0,-55 156,-55 156,-74"/>
<text text-anchor="middle" x="78" y="-62" font-family="Helvetica,sans-Serif" font-size="10.00">src/engine/RaceManager.cpp</text>
</a>
</g>
</g>
<!-- Node2&#45;&gt;Node3 -->
<g id="edge2_Node000002_Node000003" class="edge">
<title>Node2&#45;&gt;Node3</title>
<g id="a_edge2_Node000002_Node000003"><a xlink:title=" ">
<path fill="none" stroke="#63b8ff" d="M273.32,-113.11C226.94,-101.8 155.35,-84.35 112.94,-74.02"/>
<polygon fill="#63b8ff" stroke="#63b8ff" points="272.56,-116.53 283.1,-115.49 274.22,-109.72 272.56,-116.53"/>
</a>
</g>
</g>
<!-- Node4 -->
<g id="Node000004" class="node">
<title>Node4</title>
<g id="a_Node000004"><a xlink:href="RegisteredActors_8cpp.html" target="_top" xlink:title=" ">
<polygon fill="white" stroke="#666666" points="347.5,-74 174.5,-74 174.5,-55 347.5,-55 347.5,-74"/>
<text text-anchor="middle" x="261" y="-62" font-family="Helvetica,sans-Serif" font-size="10.00">src/engine/RegisteredActors.cpp</text>
</a>
</g>
</g>
<!-- Node2&#45;&gt;Node4 -->
<g id="edge3_Node000002_Node000004" class="edge">
<title>Node2&#45;&gt;Node4</title>
<g id="a_edge3_Node000002_Node000004"><a xlink:title=" ">
<path fill="none" stroke="#63b8ff" d="M302.5,-108.09C291.85,-97.17 278.13,-83.08 269.45,-74.17"/>
<polygon fill="#63b8ff" stroke="#63b8ff" points="300.1,-110.65 309.59,-115.37 305.12,-105.76 300.1,-110.65"/>
</a>
</g>
</g>
<!-- Node5 -->
<g id="Node000005" class="node">
<title>Node5</title>
<g id="a_Node000005"><a xlink:href="ContentBrowser_8cpp.html" target="_top" xlink:title=" ">
<polygon fill="white" stroke="#666666" points="459,-19 293,-19 293,0 459,0 459,-19"/>
<text text-anchor="middle" x="376" y="-7" font-family="Helvetica,sans-Serif" font-size="10.00">src/port/ui/ContentBrowser.cpp</text>
</a>
</g>
</g>
<!-- Node2&#45;&gt;Node5 -->
<g id="edge4_Node000002_Node000005" class="edge">
<title>Node2&#45;&gt;Node5</title>
<g id="a_edge4_Node000002_Node000005"><a xlink:title=" ">
<path fill="none" stroke="#63b8ff" d="M333.12,-107.85C341.16,-98.55 350.66,-86.28 357,-74 366.5,-55.6 372.04,-31.68 374.48,-19.1"/>
<polygon fill="#63b8ff" stroke="#63b8ff" points="330.35,-105.7 326.28,-115.48 335.56,-110.37 330.35,-105.7"/>
</a>
</g>
</g>
<!-- Node6 -->
<g id="Node000006" class="node">
<title>Node6</title>
<g id="a_Node000006"><a xlink:href="ContentBrowser_8h.html" target="_top" xlink:title=" ">
<polygon fill="white" stroke="#666666" points="559.5,-74 404.5,-74 404.5,-55 559.5,-55 559.5,-74"/>
<text text-anchor="middle" x="482" y="-62" font-family="Helvetica,sans-Serif" font-size="10.00">src/port/ui/ContentBrowser.h</text>
</a>
</g>
</g>
<!-- Node2&#45;&gt;Node6 -->
<g id="edge5_Node000002_Node000006" class="edge">
<title>Node2&#45;&gt;Node6</title>
<g id="a_edge5_Node000002_Node000006"><a xlink:title=" ">
<path fill="none" stroke="#63b8ff" d="M351.57,-112.02C383.28,-100.71 430.05,-84.03 458.12,-74.02"/>
<polygon fill="#63b8ff" stroke="#63b8ff" points="350.09,-108.84 341.85,-115.49 352.44,-115.43 350.09,-108.84"/>
</a>
</g>
</g>
<!-- Node6&#45;&gt;Node5 -->
<g id="edge6_Node000006_Node000005" class="edge">
<title>Node6&#45;&gt;Node5</title>
<g id="a_edge6_Node000006_Node000005"><a xlink:title=" ">
<path fill="none" stroke="#63b8ff" d="M456,-50.5C436.5,-40.75 410.35,-27.68 393.34,-19.17"/>
<polygon fill="#63b8ff" stroke="#63b8ff" points="454.46,-53.64 464.97,-54.98 457.59,-47.38 454.46,-53.64"/>
</a>
</g>
</g>
<!-- Node7 -->
<g id="Node000007" class="node">
<title>Node7</title>
<g id="a_Node000007"><a xlink:href="ImguiUI_8cpp.html" target="_top" xlink:title=" ">
<polygon fill="white" stroke="#666666" points="604.5,-19 477.5,-19 477.5,0 604.5,0 604.5,-19"/>
<text text-anchor="middle" x="541" y="-7" font-family="Helvetica,sans-Serif" font-size="10.00">src/port/ui/ImguiUI.cpp</text>
</a>
</g>
</g>
<!-- Node6&#45;&gt;Node7 -->
<g id="edge7_Node000006_Node000007" class="edge">
<title>Node6&#45;&gt;Node7</title>
<g id="a_edge7_Node000006_Node000007"><a xlink:title=" ">
<path fill="none" stroke="#63b8ff" d="M499.2,-48.04C509.67,-38.64 522.65,-26.98 531.35,-19.17"/>
<polygon fill="#63b8ff" stroke="#63b8ff" points="496.58,-45.7 491.48,-54.98 501.26,-50.91 496.58,-45.7"/>
</a>
</g>
</g>
</g>
</svg>
