<?xml version="1.0" encoding="UTF-8" standalone="no"?>
<!DOCTYPE svg PUBLIC "-//W3C//DTD SVG 1.1//EN"
 "http://www.w3.org/Graphics/SVG/1.1/DTD/svg11.dtd">
<!-- Generated by graphviz version 2.43.0 (0)
 -->
<!-- Title: freecam_render_setup Pages: 1 -->
<svg width="600pt" height="321pt"
 viewBox="0.00 0.00 600.00 321.00" xmlns="http://www.w3.org/2000/svg" xmlns:xlink="http://www.w3.org/1999/xlink">
<g id="graph0" class="graph" transform="scale(1 1) rotate(0) translate(4 317)">
<title>freecam_render_setup</title>
<!-- Node1 -->
<g id="Node000001" class="node">
<title>Node1</title>
<g id="a_Node000001"><a xlink:title=" ">
<polygon fill="#999999" stroke="#666666" points="126,-170 0,-170 0,-151 126,-151 126,-170"/>
<text text-anchor="middle" x="63" y="-158" font-family="Helvetica,sans-Serif" font-size="10.00">freecam_render_setup</text>
</a>
</g>
</g>
<!-- Node2 -->
<g id="Node000002" class="node">
<title>Node2</title>
<g id="a_Node000002"><a xlink:href="Game_8cpp.html#a3416a195a0c7be6ec3783bbf4842dc3e" target="_top" xlink:title=" ">
<polygon fill="white" stroke="#666666" points="258,-313 176,-313 176,-294 258,-294 258,-313"/>
<text text-anchor="middle" x="217" y="-301" font-family="Helvetica,sans-Serif" font-size="10.00">CM_GetProps</text>
</a>
</g>
</g>
<!-- Node1&#45;&gt;Node2 -->
<g id="edge1_Node000001_Node000002" class="edge">
<title>Node1&#45;&gt;Node2</title>
<g id="a_edge1_Node000001_Node000002"><a xlink:title=" ">
<path fill="none" stroke="#63b8ff" d="M69.03,-170.08C81.61,-193.12 116.67,-252.13 162,-284.5 164.67,-286.41 167.55,-288.14 170.54,-289.7"/>
<polygon fill="#63b8ff" stroke="#63b8ff" points="169.19,-292.94 179.74,-293.94 172.12,-286.58 169.19,-292.94"/>
</a>
</g>
</g>
<!-- Node3 -->
<g id="Node000003" class="node">
<title>Node3</title>
<g id="a_Node000003"><a xlink:href="FrameInterpolation_8cpp.html#ab79dec187c1c1b859e47a13251fb1671" target="_top" xlink:title=" ">
<polygon fill="white" stroke="#666666" points="272,-275.5 162,-275.5 162,-245.5 272,-245.5 272,-275.5"/>
<text text-anchor="start" x="170" y="-263.5" font-family="Helvetica,sans-Serif" font-size="10.00">FrameInterpolation</text>
<text text-anchor="middle" x="217" y="-252.5" font-family="Helvetica,sans-Serif" font-size="10.00">_GetCameraEpoch</text>
</a>
</g>
</g>
<!-- Node1&#45;&gt;Node3 -->
<g id="edge2_Node000001_Node000003" class="edge">
<title>Node1&#45;&gt;Node3</title>
<g id="a_edge2_Node000001_Node000003"><a xlink:title=" ">
<path fill="none" stroke="#63b8ff" d="M76.01,-170.01C94.13,-184.17 129.78,-211.3 162,-231.5 166.79,-234.5 171.92,-237.51 177.04,-240.39"/>
<polygon fill="#63b8ff" stroke="#63b8ff" points="175.71,-243.65 186.17,-245.4 179.08,-237.52 175.71,-243.65"/>
</a>
</g>
</g>
<!-- Node4 -->
<g id="Node000004" class="node">
<title>Node4</title>
<g id="a_Node000004"><a xlink:href="FrameInterpolation_8cpp.html#a3a036bc9d533e28a4e9697cd20dccf3e" target="_top" xlink:title=" ">
<polygon fill="white" stroke="#666666" points="433,-274.5 323,-274.5 323,-244.5 433,-244.5 433,-274.5"/>
<text text-anchor="start" x="331" y="-262.5" font-family="Helvetica,sans-Serif" font-size="10.00">FrameInterpolation</text>
<text text-anchor="middle" x="378" y="-251.5" font-family="Helvetica,sans-Serif" font-size="10.00">_RecordCloseChild</text>
</a>
</g>
</g>
<!-- Node1&#45;&gt;Node4 -->
<g id="edge3_Node000001_Node000004" class="edge">
<title>Node1&#45;&gt;Node4</title>
<g id="a_edge3_Node000001_Node000004"><a xlink:title=" ">
<path fill="none" stroke="#63b8ff" d="M86.75,-170.02C106.47,-178.1 135.87,-189.75 162,-198.5 212.17,-215.3 269.91,-231.52 312.9,-243"/>
<polygon fill="#63b8ff" stroke="#63b8ff" points="312.11,-246.41 322.67,-245.59 313.91,-239.64 312.11,-246.41"/>
</a>
</g>
</g>
<!-- Node6 -->
<g id="Node000006" class="node">
<title>Node6</title>
<g id="a_Node000006"><a xlink:href="FrameInterpolation_8cpp.html#a0eda726b74eac815af4e874014e2727c" target="_top" xlink:title=" ">
<polygon fill="white" stroke="#666666" points="433,-226.5 323,-226.5 323,-196.5 433,-196.5 433,-226.5"/>
<text text-anchor="start" x="331" y="-214.5" font-family="Helvetica,sans-Serif" font-size="10.00">FrameInterpolation</text>
<text text-anchor="middle" x="378" y="-203.5" font-family="Helvetica,sans-Serif" font-size="10.00">_RecordOpenChild</text>
</a>
</g>
</g>
<!-- Node1&#45;&gt;Node6 -->
<g id="edge5_Node000001_Node000006" class="edge">
<title>Node1&#45;&gt;Node6</title>
<g id="a_edge5_Node000001_Node000006"><a xlink:title=" ">
<path fill="none" stroke="#63b8ff" d="M122.51,-170.03C176.64,-178.85 256.96,-191.94 312.83,-201.04"/>
<polygon fill="#63b8ff" stroke="#63b8ff" points="312.53,-204.54 322.97,-202.7 313.66,-197.63 312.53,-204.54"/>
</a>
</g>
</g>
<!-- Node7 -->
<g id="Node000007" class="node">
<title>Node7</title>
<g id="a_Node000007"><a xlink:href="Matrix_8cpp.html#acacd5a06b0529a80220125925294944f" target="_top" xlink:title=" ">
<polygon fill="white" stroke="#666666" points="266.5,-77 167.5,-77 167.5,-58 266.5,-58 266.5,-77"/>
<text text-anchor="middle" x="217" y="-65" font-family="Helvetica,sans-Serif" font-size="10.00">GetLookAtMatrix</text>
</a>
</g>
</g>
<!-- Node1&#45;&gt;Node7 -->
<g id="edge7_Node000001_Node000007" class="edge">
<title>Node1&#45;&gt;Node7</title>
<g id="a_edge7_Node000001_Node000007"><a xlink:title=" ">
<path fill="none" stroke="#63b8ff" d="M74.41,-150.88C91.54,-135.49 127.25,-105.15 162,-86.5 165.79,-84.46 169.85,-82.57 173.97,-80.84"/>
<polygon fill="#63b8ff" stroke="#63b8ff" points="175.57,-83.97 183.61,-77.07 173.02,-77.45 175.57,-83.97"/>
</a>
</g>
</g>
<!-- Node8 -->
<g id="Node000008" class="node">
<title>Node8</title>
<g id="a_Node000008"><a xlink:href="Matrix_8cpp.html#a01fc250c2f6e1cd103c61068f9168032" target="_top" xlink:title=" ">
<polygon fill="white" stroke="#666666" points="263,-40 171,-40 171,-21 263,-21 263,-40"/>
<text text-anchor="middle" x="217" y="-28" font-family="Helvetica,sans-Serif" font-size="10.00">GetPerspMatrix</text>
</a>
</g>
</g>
<!-- Node1&#45;&gt;Node8 -->
<g id="edge8_Node000001_Node000008" class="edge">
<title>Node1&#45;&gt;Node8</title>
<g id="a_edge8_Node000001_Node000008"><a xlink:title=" ">
<path fill="none" stroke="#63b8ff" d="M69.84,-150.87C83.36,-129.38 118.97,-77.11 162,-48.5 164.27,-46.99 166.69,-45.59 169.18,-44.31"/>
<polygon fill="#63b8ff" stroke="#63b8ff" points="170.8,-47.42 178.47,-40.11 167.92,-41.03 170.8,-47.42"/>
</a>
</g>
</g>
<!-- Node9 -->
<g id="Node000009" class="node">
<title>Node9</title>
<g id="a_Node000009"><a xlink:href="guLookAtF_8c.html#a8641b89f7767fe85370ca7d198ef5566" target="_top" xlink:title=" ">
<polygon fill="white" stroke="#666666" points="248,-151 186,-151 186,-132 248,-132 248,-151"/>
<text text-anchor="middle" x="217" y="-139" font-family="Helvetica,sans-Serif" font-size="10.00">guLookAt</text>
</a>
</g>
</g>
<!-- Node1&#45;&gt;Node9 -->
<g id="edge9_Node000001_Node000009" class="edge">
<title>Node1&#45;&gt;Node9</title>
<g id="a_edge9_Node000001_Node000009"><a xlink:title=" ">
<path fill="none" stroke="#63b8ff" d="M126.26,-152.72C142.92,-150.64 160.48,-148.44 175.61,-146.55"/>
<polygon fill="#63b8ff" stroke="#63b8ff" points="176.17,-150.01 185.66,-145.29 175.3,-143.06 176.17,-150.01"/>
</a>
</g>
</g>
<!-- Node15 -->
<g id="Node000015" class="node">
<title>Node15</title>
<g id="a_Node000015"><a xlink:href="guPerspectiveF_8c.html#ac2050885d6967becf0e5e3bb3e54bd08" target="_top" xlink:title=" ">
<polygon fill="white" stroke="#666666" points="260,-114 174,-114 174,-95 260,-95 260,-114"/>
<text text-anchor="middle" x="217" y="-102" font-family="Helvetica,sans-Serif" font-size="10.00">guPerspective</text>
</a>
</g>
</g>
<!-- Node1&#45;&gt;Node15 -->
<g id="edge16_Node000001_Node000015" class="edge">
<title>Node1&#45;&gt;Node15</title>
<g id="a_edge16_Node000001_Node000015"><a xlink:title=" ">
<path fill="none" stroke="#63b8ff" d="M88.92,-150.91C108.69,-143.35 137.05,-132.6 162,-123.5 167.5,-121.49 173.33,-119.4 179.05,-117.38"/>
<polygon fill="#63b8ff" stroke="#63b8ff" points="180.22,-120.67 188.49,-114.05 177.89,-114.07 180.22,-120.67"/>
</a>
</g>
</g>
<!-- Node5 -->
<g id="Node000005" class="node">
<title>Node5</title>
<g id="a_Node000005"><a xlink:href="FrameInterpolation_8cpp.html#a02c7ac5342a4d376edee38f312b480bf" target="_top" xlink:title=" ">
<polygon fill="white" stroke="#666666" points="592,-221 484,-221 484,-202 592,-202 592,-221"/>
<text text-anchor="middle" x="538" y="-209" font-family="Helvetica,sans-Serif" font-size="10.00">check_if_recording</text>
</a>
</g>
</g>
<!-- Node4&#45;&gt;Node5 -->
<g id="edge4_Node000004_Node000005" class="edge">
<title>Node4&#45;&gt;Node5</title>
<g id="a_edge4_Node000004_Node000005"><a xlink:title=" ">
<path fill="none" stroke="#63b8ff" d="M428.56,-244.44C450.18,-237.88 475.23,-230.26 495.81,-224.01"/>
<polygon fill="#63b8ff" stroke="#63b8ff" points="496.97,-227.32 505.52,-221.06 494.93,-220.62 496.97,-227.32"/>
</a>
</g>
</g>
<!-- Node6&#45;&gt;Node5 -->
<g id="edge6_Node000006_Node000005" class="edge">
<title>Node6&#45;&gt;Node5</title>
<g id="a_edge6_Node000006_Node000005"><a xlink:title=" ">
<path fill="none" stroke="#63b8ff" d="M433.37,-211.5C446.39,-211.5 460.4,-211.5 473.78,-211.5"/>
<polygon fill="#63b8ff" stroke="#63b8ff" points="473.86,-215 483.86,-211.5 473.86,-208 473.86,-215"/>
</a>
</g>
</g>
<!-- Node10 -->
<g id="Node000010" class="node">
<title>Node10</title>
<g id="a_Node000010"><a xlink:href="FrameInterpolation_8cpp.html#a8cf1f2d6fabc6925aa71a9515341b4aa" target="_top" xlink:title=" ">
<polygon fill="white" stroke="#666666" points="448,-178.5 308,-178.5 308,-148.5 448,-148.5 448,-178.5"/>
<text text-anchor="start" x="316" y="-166.5" font-family="Helvetica,sans-Serif" font-size="10.00">FrameInterpolation</text>
<text text-anchor="middle" x="378" y="-155.5" font-family="Helvetica,sans-Serif" font-size="10.00">_RecordMatrixMtxFToMtx</text>
</a>
</g>
</g>
<!-- Node9&#45;&gt;Node10 -->
<g id="edge10_Node000009_Node000010" class="edge">
<title>Node9&#45;&gt;Node10</title>
<g id="a_edge10_Node000009_Node000010"><a xlink:title=" ">
<path fill="none" stroke="#63b8ff" d="M248.28,-145.69C262.44,-147.65 280.04,-150.08 297.62,-152.52"/>
<polygon fill="#63b8ff" stroke="#63b8ff" points="297.56,-156.04 307.95,-153.95 298.52,-149.11 297.56,-156.04"/>
</a>
</g>
</g>
<!-- Node11 -->
<g id="Node000011" class="node">
<title>Node11</title>
<g id="a_Node000011"><a xlink:href="guLookAtF_8c.html#a221be5535617db52477d4cb992afa4a9" target="_top" xlink:title=" ">
<polygon fill="white" stroke="#666666" points="412,-130 344,-130 344,-111 412,-111 412,-130"/>
<text text-anchor="middle" x="378" y="-118" font-family="Helvetica,sans-Serif" font-size="10.00">guLookAtF</text>
</a>
</g>
</g>
<!-- Node9&#45;&gt;Node11 -->
<g id="edge12_Node000009_Node000011" class="edge">
<title>Node9&#45;&gt;Node11</title>
<g id="a_edge12_Node000009_Node000011"><a xlink:title=" ">
<path fill="none" stroke="#63b8ff" d="M248.28,-137.5C272.49,-134.3 306.74,-129.78 333.82,-126.2"/>
<polygon fill="#63b8ff" stroke="#63b8ff" points="334.36,-129.66 343.81,-124.88 333.44,-122.72 334.36,-129.66"/>
</a>
</g>
</g>
<!-- Node14 -->
<g id="Node000014" class="node">
<title>Node14</title>
<g id="a_Node000014"><a xlink:href="guMtxF2L_8c.html#a40ab2d64c609839ff1e0ef0de2d0dcc4" target="_top" xlink:title=" ">
<polygon fill="white" stroke="#666666" points="410.5,-93 345.5,-93 345.5,-74 410.5,-74 410.5,-93"/>
<text text-anchor="middle" x="378" y="-81" font-family="Helvetica,sans-Serif" font-size="10.00">guMtxF2L</text>
</a>
</g>
</g>
<!-- Node9&#45;&gt;Node14 -->
<g id="edge15_Node000009_Node000014" class="edge">
<title>Node9&#45;&gt;Node14</title>
<g id="a_edge15_Node000009_Node000014"><a xlink:title=" ">
<path fill="none" stroke="#63b8ff" d="M248.13,-132.68C256.02,-130.04 264.44,-126.92 272,-123.5 288.88,-115.86 290.93,-109.69 308,-102.5 316.66,-98.85 326.23,-95.7 335.41,-93.07"/>
<polygon fill="#63b8ff" stroke="#63b8ff" points="336.43,-96.43 345.16,-90.43 334.59,-89.67 336.43,-96.43"/>
</a>
</g>
</g>
<!-- Node10&#45;&gt;Node5 -->
<g id="edge11_Node000010_Node000005" class="edge">
<title>Node10&#45;&gt;Node5</title>
<g id="a_edge11_Node000010_Node000005"><a xlink:title=" ">
<path fill="none" stroke="#63b8ff" d="M428.56,-178.56C450.18,-185.12 475.23,-192.74 495.81,-198.99"/>
<polygon fill="#63b8ff" stroke="#63b8ff" points="494.93,-202.38 505.52,-201.94 496.97,-195.68 494.93,-202.38"/>
</a>
</g>
</g>
<!-- Node12 -->
<g id="Node000012" class="node">
<title>Node12</title>
<g id="a_Node000012"><a xlink:href="guMtxF2L_8c.html#a257a86497fc08677370948eda3163595" target="_top" xlink:title=" ">
<polygon fill="white" stroke="#666666" points="577,-93 499,-93 499,-74 577,-74 577,-93"/>
<text text-anchor="middle" x="538" y="-81" font-family="Helvetica,sans-Serif" font-size="10.00">guMtxIdentF</text>
</a>
</g>
</g>
<!-- Node11&#45;&gt;Node12 -->
<g id="edge13_Node000011_Node000012" class="edge">
<title>Node11&#45;&gt;Node12</title>
<g id="a_edge13_Node000011_Node000012"><a xlink:title=" ">
<path fill="none" stroke="#63b8ff" d="M412.12,-112.74C434.39,-107.53 464.1,-100.57 488.96,-94.75"/>
<polygon fill="#63b8ff" stroke="#63b8ff" points="489.98,-98.1 498.92,-92.42 488.39,-91.29 489.98,-98.1"/>
</a>
</g>
</g>
<!-- Node13 -->
<g id="Node000013" class="node">
<title>Node13</title>
<g id="a_Node000013"><a xlink:href="math_8h.html#a37bde043e94a6f074c78f10518fb5d99" target="_top" xlink:title=" ">
<polygon fill="white" stroke="#666666" points="557.5,-130 518.5,-130 518.5,-111 557.5,-111 557.5,-130"/>
<text text-anchor="middle" x="538" y="-118" font-family="Helvetica,sans-Serif" font-size="10.00">sqrtf</text>
</a>
</g>
</g>
<!-- Node11&#45;&gt;Node13 -->
<g id="edge14_Node000011_Node000013" class="edge">
<title>Node11&#45;&gt;Node13</title>
<g id="a_edge14_Node000011_Node000013"><a xlink:title=" ">
<path fill="none" stroke="#63b8ff" d="M412.12,-120.5C440.56,-120.5 481.14,-120.5 508.24,-120.5"/>
<polygon fill="#63b8ff" stroke="#63b8ff" points="508.26,-124 518.26,-120.5 508.26,-117 508.26,-124"/>
</a>
</g>
</g>
<!-- Node15&#45;&gt;Node10 -->
<g id="edge17_Node000015_Node000010" class="edge">
<title>Node15&#45;&gt;Node10</title>
<g id="a_edge17_Node000015_Node000010"><a xlink:title=" ">
<path fill="none" stroke="#63b8ff" d="M246.46,-114.04C254.75,-116.94 263.78,-120.23 272,-123.5 288.27,-129.97 291.72,-133.06 308,-139.5 312.67,-141.35 317.55,-143.2 322.46,-145"/>
<polygon fill="#63b8ff" stroke="#63b8ff" points="321.29,-148.31 331.89,-148.42 323.68,-141.72 321.29,-148.31"/>
</a>
</g>
</g>
<!-- Node15&#45;&gt;Node14 -->
<g id="edge18_Node000015_Node000014" class="edge">
<title>Node15&#45;&gt;Node14</title>
<g id="a_edge18_Node000015_Node000014"><a xlink:title=" ">
<path fill="none" stroke="#63b8ff" d="M260.19,-98.93C283.41,-95.86 312.11,-92.07 335.26,-89.01"/>
<polygon fill="#63b8ff" stroke="#63b8ff" points="336.01,-92.44 345.46,-87.67 335.09,-85.5 336.01,-92.44"/>
</a>
</g>
</g>
<!-- Node16 -->
<g id="Node000016" class="node">
<title>Node16</title>
<g id="a_Node000016"><a xlink:href="guPerspectiveF_8c.html#a440bd049e431a7ef892658d88620646c" target="_top" xlink:title=" ">
<polygon fill="white" stroke="#666666" points="424,-56 332,-56 332,-37 424,-37 424,-56"/>
<text text-anchor="middle" x="378" y="-44" font-family="Helvetica,sans-Serif" font-size="10.00">guPerspectiveF</text>
</a>
</g>
</g>
<!-- Node15&#45;&gt;Node16 -->
<g id="edge19_Node000015_Node000016" class="edge">
<title>Node15&#45;&gt;Node16</title>
<g id="a_edge19_Node000015_Node000016"><a xlink:title=" ">
<path fill="none" stroke="#63b8ff" d="M250.73,-94.92C257.86,-92.46 265.28,-89.62 272,-86.5 289,-78.6 290.74,-71.83 308,-64.5 312.72,-62.49 317.72,-60.66 322.79,-59.01"/>
<polygon fill="#63b8ff" stroke="#63b8ff" points="324.01,-62.3 332.55,-56.04 321.97,-55.6 324.01,-62.3"/>
</a>
</g>
</g>
<!-- Node16&#45;&gt;Node12 -->
<g id="edge21_Node000016_Node000012" class="edge">
<title>Node16&#45;&gt;Node12</title>
<g id="a_edge21_Node000016_Node000012"><a xlink:title=" ">
<path fill="none" stroke="#63b8ff" d="M419.69,-56.03C440.86,-60.99 466.87,-67.08 489.02,-72.26"/>
<polygon fill="#63b8ff" stroke="#63b8ff" points="488.36,-75.7 498.89,-74.58 489.95,-68.89 488.36,-75.7"/>
</a>
</g>
</g>
<!-- Node17 -->
<g id="Node000017" class="node">
<title>Node17</title>
<g id="a_Node000017"><a xlink:href="cosf_8c.html#a7b126b2344591e649c21c9ab0b8adb40" target="_top" xlink:title=" ">
<polygon fill="white" stroke="#666666" points="556.5,-19 519.5,-19 519.5,0 556.5,0 556.5,-19"/>
<text text-anchor="middle" x="538" y="-7" font-family="Helvetica,sans-Serif" font-size="10.00">cosf</text>
</a>
</g>
</g>
<!-- Node16&#45;&gt;Node17 -->
<g id="edge20_Node000016_Node000017" class="edge">
<title>Node16&#45;&gt;Node17</title>
<g id="a_edge20_Node000016_Node000017"><a xlink:title=" ">
<path fill="none" stroke="#63b8ff" d="M419.69,-36.97C447.85,-30.38 484.58,-21.77 509.38,-15.97"/>
<polygon fill="#63b8ff" stroke="#63b8ff" points="510.28,-19.35 519.22,-13.66 508.69,-12.54 510.28,-19.35"/>
</a>
</g>
</g>
<!-- Node18 -->
<g id="Node000018" class="node">
<title>Node18</title>
<g id="a_Node000018"><a xlink:href="sinf_8c.html#a8a7dc2a88e109f4e15b661247665709a" target="_top" xlink:title=" ">
<polygon fill="white" stroke="#666666" points="555.5,-56 520.5,-56 520.5,-37 555.5,-37 555.5,-56"/>
<text text-anchor="middle" x="538" y="-44" font-family="Helvetica,sans-Serif" font-size="10.00">sinf</text>
</a>
</g>
</g>
<!-- Node16&#45;&gt;Node18 -->
<g id="edge22_Node000016_Node000018" class="edge">
<title>Node16&#45;&gt;Node18</title>
<g id="a_edge22_Node000016_Node000018"><a xlink:title=" ">
<path fill="none" stroke="#63b8ff" d="M424.28,-46.5C451.99,-46.5 486.51,-46.5 510,-46.5"/>
<polygon fill="#63b8ff" stroke="#63b8ff" points="510.26,-50 520.26,-46.5 510.26,-43 510.26,-50"/>
</a>
</g>
</g>
</g>
</svg>
