<?xml version="1.0" encoding="UTF-8" standalone="no"?>
<!DOCTYPE svg PUBLIC "-//W3C//DTD SVG 1.1//EN"
 "http://www.w3.org/Graphics/SVG/1.1/DTD/svg11.dtd">
<!-- Generated by graphviz version 2.43.0 (0)
 -->
<!-- Title: CM_BeginPlay Pages: 1 -->
<svg width="554pt" height="113pt"
 viewBox="0.00 0.00 554.00 113.00" xmlns="http://www.w3.org/2000/svg" xmlns:xlink="http://www.w3.org/1999/xlink">
<g id="graph0" class="graph" transform="scale(1 1) rotate(0) translate(4 109)">
<title>CM_BeginPlay</title>
<!-- Node1 -->
<g id="Node000001" class="node">
<title>Node1</title>
<g id="a_Node000001"><a xlink:title=" ">
<polygon fill="#999999" stroke="#666666" points="86,-40 0,-40 0,-21 86,-21 86,-40"/>
<text text-anchor="middle" x="43" y="-28" font-family="Helvetica,sans-Serif" font-size="10.00">CM_BeginPlay</text>
</a>
</g>
</g>
<!-- Node2 -->
<g id="Node000002" class="node">
<title>Node2</title>
<g id="a_Node000002"><a xlink:href="namespaceEditor.html#ac95c825fc97e637d93f36fe4e9121515" target="_top" xlink:title=" ">
<polygon fill="white" stroke="#666666" points="226.5,-62 125.5,-62 125.5,-43 226.5,-43 226.5,-62"/>
<text text-anchor="middle" x="176" y="-50" font-family="Helvetica,sans-Serif" font-size="10.00">Editor::LoadLevel</text>
</a>
</g>
</g>
<!-- Node1&#45;&gt;Node2 -->
<g id="edge1_Node000001_Node000002" class="edge">
<title>Node1&#45;&gt;Node2</title>
<g id="a_edge1_Node000001_Node000002"><a xlink:title=" ">
<path fill="none" stroke="#63b8ff" d="M86.17,-37.58C95.39,-39.13 105.31,-40.8 115.07,-42.43"/>
<polygon fill="#63b8ff" stroke="#63b8ff" points="114.7,-45.92 125.14,-44.13 115.86,-39.02 114.7,-45.92"/>
</a>
</g>
</g>
<!-- Node6 -->
<g id="Node000006" class="node">
<title>Node6</title>
<g id="a_Node000006"><a xlink:href="classAFinishline.html#a558adad18df5a2fb4fe346da97a75617" target="_top" xlink:title=" ">
<polygon fill="white" stroke="#666666" points="230,-22 122,-22 122,-3 230,-3 230,-22"/>
<text text-anchor="middle" x="176" y="-10" font-family="Helvetica,sans-Serif" font-size="10.00">AFinishline::Spawn</text>
</a>
</g>
</g>
<!-- Node1&#45;&gt;Node6 -->
<g id="edge5_Node000001_Node000006" class="edge">
<title>Node1&#45;&gt;Node6</title>
<g id="a_edge5_Node000001_Node000006"><a xlink:title=" ">
<path fill="none" stroke="#63b8ff" d="M86.17,-24.71C94.34,-23.58 103.07,-22.38 111.75,-21.19"/>
<polygon fill="#63b8ff" stroke="#63b8ff" points="112.44,-24.63 121.87,-19.8 111.49,-17.69 112.44,-24.63"/>
</a>
</g>
</g>
<!-- Node3 -->
<g id="Node000003" class="node">
<title>Node3</title>
<g id="a_Node000003"><a xlink:href="structSpawnParams.html#a8a5a24c4ced13fc9150d32d895470c9f" target="_top" xlink:title=" ">
<polygon fill="white" stroke="#666666" points="412,-105 272,-105 272,-86 412,-86 412,-105"/>
<text text-anchor="middle" x="342" y="-93" font-family="Helvetica,sans-Serif" font-size="10.00">SpawnParams::from_json</text>
</a>
</g>
</g>
<!-- Node2&#45;&gt;Node3 -->
<g id="edge2_Node000002_Node000003" class="edge">
<title>Node2&#45;&gt;Node3</title>
<g id="a_edge2_Node000002_Node000003"><a xlink:title=" ">
<path fill="none" stroke="#63b8ff" d="M212.05,-62.08C228.43,-66.53 248.19,-71.84 266,-76.5 274.69,-78.77 283.95,-81.15 292.9,-83.43"/>
<polygon fill="#63b8ff" stroke="#63b8ff" points="292.26,-86.88 302.82,-85.95 293.98,-80.09 292.26,-86.88"/>
</a>
</g>
</g>
<!-- Node5 -->
<g id="Node000005" class="node">
<title>Node5</title>
<g id="a_Node000005"><a xlink:href="namespaceEditor.html#a5682c68f8c058161eac4f98905aa0c86" target="_top" xlink:title=" ">
<polygon fill="white" stroke="#666666" points="418,-67.5 266,-67.5 266,-37.5 418,-37.5 418,-67.5"/>
<text text-anchor="start" x="274" y="-55.5" font-family="Helvetica,sans-Serif" font-size="10.00">Editor::Load_AddStaticMesh</text>
<text text-anchor="middle" x="342" y="-44.5" font-family="Helvetica,sans-Serif" font-size="10.00">Actor</text>
</a>
</g>
</g>
<!-- Node2&#45;&gt;Node5 -->
<g id="edge4_Node000002_Node000005" class="edge">
<title>Node2&#45;&gt;Node5</title>
<g id="a_edge4_Node000002_Node000005"><a xlink:title=" ">
<path fill="none" stroke="#63b8ff" d="M226.65,-52.5C235.82,-52.5 245.63,-52.5 255.5,-52.5"/>
<polygon fill="#63b8ff" stroke="#63b8ff" points="255.79,-56 265.79,-52.5 255.79,-49 255.79,-56"/>
</a>
</g>
</g>
<!-- Node4 -->
<g id="Node000004" class="node">
<title>Node4</title>
<g id="a_Node000004"><a xlink:href="SpawnParams_8h.html#af4dfccdb6d4f1f9514fa9f7483e0d0aa" target="_top" xlink:title=" ">
<polygon fill="white" stroke="#666666" points="546,-105 454,-105 454,-86 546,-86 546,-105"/>
<text text-anchor="middle" x="500" y="-93" font-family="Helvetica,sans-Serif" font-size="10.00">get_optional_to</text>
</a>
</g>
</g>
<!-- Node3&#45;&gt;Node4 -->
<g id="edge3_Node000003_Node000004" class="edge">
<title>Node3&#45;&gt;Node4</title>
<g id="a_edge3_Node000003_Node000004"><a xlink:title=" ">
<path fill="none" stroke="#63b8ff" d="M412.33,-95.5C422.72,-95.5 433.32,-95.5 443.37,-95.5"/>
<polygon fill="#63b8ff" stroke="#63b8ff" points="443.62,-99 453.62,-95.5 443.62,-92 443.62,-99"/>
</a>
</g>
</g>
<!-- Node7 -->
<g id="Node000007" class="node">
<title>Node7</title>
<g id="a_Node000007"><a xlink:href="classAFinishline.html#a217d1abec019d9ff56b0e387fcd83f03" target="_top" xlink:title=" ">
<polygon fill="white" stroke="#666666" points="406.5,-19 277.5,-19 277.5,0 406.5,0 406.5,-19"/>
<text text-anchor="middle" x="342" y="-7" font-family="Helvetica,sans-Serif" font-size="10.00">AFinishline::AFinishline</text>
</a>
</g>
</g>
<!-- Node6&#45;&gt;Node7 -->
<g id="edge6_Node000006_Node000007" class="edge">
<title>Node6&#45;&gt;Node7</title>
<g id="a_edge6_Node000006_Node000007"><a xlink:title=" ">
<path fill="none" stroke="#63b8ff" d="M230.25,-11.53C242.01,-11.31 254.68,-11.08 267.1,-10.85"/>
<polygon fill="#63b8ff" stroke="#63b8ff" points="267.51,-14.35 277.44,-10.66 267.38,-7.35 267.51,-14.35"/>
</a>
</g>
</g>
<!-- Node8 -->
<g id="Node000008" class="node">
<title>Node8</title>
<g id="a_Node000008"><a xlink:href="classAActor.html#a679c43bacf3600fa2d7a6ab30e34a8a6" target="_top" xlink:title=" ">
<polygon fill="white" stroke="#666666" points="543.5,-19 456.5,-19 456.5,0 543.5,0 543.5,-19"/>
<text text-anchor="middle" x="500" y="-7" font-family="Helvetica,sans-Serif" font-size="10.00">AActor::AActor</text>
</a>
</g>
</g>
<!-- Node7&#45;&gt;Node8 -->
<g id="edge7_Node000007_Node000008" class="edge">
<title>Node7&#45;&gt;Node8</title>
<g id="a_edge7_Node000007_Node000008"><a xlink:title=" ">
<path fill="none" stroke="#63b8ff" d="M406.9,-9.5C419.92,-9.5 433.48,-9.5 446.06,-9.5"/>
<polygon fill="#63b8ff" stroke="#63b8ff" points="446.37,-13 456.37,-9.5 446.37,-6 446.37,-13"/>
</a>
</g>
</g>
</g>
</svg>
