<?xml version="1.0" encoding="UTF-8" standalone="no"?>
<!DOCTYPE svg PUBLIC "-//W3C//DTD SVG 1.1//EN"
 "http://www.w3.org/Graphics/SVG/1.1/DTD/svg11.dtd">
<!-- Generated by graphviz version 2.43.0 (0)
 -->
<!-- Title: src/port/Game.h Pages: 1 -->
<svg width="1266pt" height="357pt"
 viewBox="0.00 0.00 1266.21 357.00" xmlns="http://www.w3.org/2000/svg" xmlns:xlink="http://www.w3.org/1999/xlink">
<g id="graph0" class="graph" transform="scale(1 1) rotate(0) translate(4 353)">
<title>src/port/Game.h</title>
<!-- Node1 -->
<g id="Node000001" class="node">
<title>Node1</title>
<g id="a_Node000001"><a xlink:title=" ">
<polygon fill="#999999" stroke="#666666" points="1057.5,-349 962.5,-349 962.5,-330 1057.5,-330 1057.5,-349"/>
<text text-anchor="middle" x="1010" y="-337" font-family="Helvetica,sans-Serif" font-size="10.00">src/port/Game.h</text>
</a>
</g>
</g>
<!-- Node2 -->
<g id="Node000002" class="node">
<title>Node2</title>
<g id="a_Node000002"><a xlink:title=" ">
<polygon fill="#e0e0e0" stroke="#999999" points="828,-19 748,-19 748,0 828,0 828,-19"/>
<text text-anchor="middle" x="788" y="-7" font-family="Helvetica,sans-Serif" font-size="10.00">libultraship.h</text>
</a>
</g>
</g>
<!-- Node1&#45;&gt;Node2 -->
<g id="edge1_Node000001_Node000002" class="edge">
<title>Node1&#45;&gt;Node2</title>
<g id="a_edge1_Node000001_Node000002"><a xlink:title=" ">
<path fill="none" stroke="#63b8ff" d="M962.3,-338.47C762.1,-337.75 0,-328.54 0,-230.5 0,-230.5 0,-230.5 0,-118.5 0,-60.11 58.97,-71.43 115,-55 231.77,-20.76 602.52,-12.78 737.9,-11"/>
<polygon fill="#63b8ff" stroke="#63b8ff" points="738.03,-14.5 747.99,-10.87 737.94,-7.5 738.03,-14.5"/>
</a>
</g>
</g>
<!-- Node3 -->
<g id="Node000003" class="node">
<title>Node3</title>
<g id="a_Node000003"><a xlink:href="Course_8h.html" target="_top" xlink:title=" ">
<polygon fill="white" stroke="#666666" points="721,-294 585,-294 585,-275 721,-275 721,-294"/>
<text text-anchor="middle" x="653" y="-282" font-family="Helvetica,sans-Serif" font-size="10.00">engine/courses/Course.h</text>
</a>
</g>
</g>
<!-- Node1&#45;&gt;Node3 -->
<g id="edge2_Node000001_Node000003" class="edge">
<title>Node1&#45;&gt;Node3</title>
<g id="a_edge2_Node000001_Node000003"><a xlink:title=" ">
<path fill="none" stroke="#63b8ff" d="M962.22,-331.41C900.11,-322.19 791.24,-306.02 720.66,-295.54"/>
<polygon fill="#63b8ff" stroke="#63b8ff" points="720.93,-292.05 710.53,-294.04 719.91,-298.97 720.93,-292.05"/>
</a>
</g>
</g>
<!-- Node6 -->
<g id="Node000006" class="node">
<title>Node6</title>
<g id="a_Node000006"><a xlink:href="camera_8h.html" target="_top" xlink:title=" ">
<polygon fill="white" stroke="#666666" points="1022,-184 960,-184 960,-165 1022,-165 1022,-184"/>
<text text-anchor="middle" x="991" y="-172" font-family="Helvetica,sans-Serif" font-size="10.00">camera.h</text>
</a>
</g>
</g>
<!-- Node1&#45;&gt;Node6 -->
<g id="edge53_Node000001_Node000006" class="edge">
<title>Node1&#45;&gt;Node6</title>
<g id="a_edge53_Node000001_Node000006"><a xlink:title=" ">
<path fill="none" stroke="#63b8ff" d="M1008.98,-329.74C1006.01,-304.31 997.36,-230.08 993.24,-194.69"/>
<polygon fill="#63b8ff" stroke="#63b8ff" points="996.66,-193.83 992.03,-184.31 989.71,-194.64 996.66,-193.83"/>
</a>
</g>
</g>
<!-- Node25 -->
<g id="Node000025" class="node">
<title>Node25</title>
<g id="a_Node000025"><a xlink:href="HM__Intro_8h.html" target="_top" xlink:title=" ">
<polygon fill="white" stroke="#666666" points="1090,-129 984,-129 984,-110 1090,-110 1090,-129"/>
<text text-anchor="middle" x="1037" y="-117" font-family="Helvetica,sans-Serif" font-size="10.00">engine/HM_Intro.h</text>
</a>
</g>
</g>
<!-- Node1&#45;&gt;Node25 -->
<g id="edge48_Node000001_Node000025" class="edge">
<title>Node1&#45;&gt;Node25</title>
<g id="a_edge48_Node000001_Node000025"><a xlink:title=" ">
<path fill="none" stroke="#63b8ff" d="M1011.69,-329.99C1013.42,-321.06 1016.13,-306.58 1018,-294 1026.34,-237.94 1032.64,-171.19 1035.42,-139.29"/>
<polygon fill="#63b8ff" stroke="#63b8ff" points="1038.92,-139.46 1036.29,-129.2 1031.95,-138.86 1038.92,-139.46"/>
</a>
</g>
</g>
<!-- Node26 -->
<g id="Node000026" class="node">
<title>Node26</title>
<g id="a_Node000026"><a xlink:href="actor__types_8h.html" target="_top" xlink:title=" ">
<polygon fill="white" stroke="#666666" points="1229.5,-129 1146.5,-129 1146.5,-110 1229.5,-110 1229.5,-129"/>
<text text-anchor="middle" x="1188" y="-117" font-family="Helvetica,sans-Serif" font-size="10.00">actor_types.h</text>
</a>
</g>
</g>
<!-- Node1&#45;&gt;Node26 -->
<g id="edge54_Node000001_Node000026" class="edge">
<title>Node1&#45;&gt;Node26</title>
<g id="a_edge54_Node000001_Node000026"><a xlink:title=" ">
<path fill="none" stroke="#63b8ff" d="M1016.98,-329.95C1043.56,-297.4 1138.76,-180.81 1174.4,-137.16"/>
<polygon fill="#63b8ff" stroke="#63b8ff" points="1177.26,-139.18 1180.88,-129.22 1171.84,-134.76 1177.26,-139.18"/>
</a>
</g>
</g>
<!-- Node4 -->
<g id="Node000004" class="node">
<title>Node4</title>
<g id="a_Node000004"><a xlink:title=" ">
<polygon fill="#e0e0e0" stroke="#999999" points="868,-239 730,-239 730,-220 868,-220 868,-239"/>
<text text-anchor="middle" x="799" y="-227" font-family="Helvetica,sans-Serif" font-size="10.00">libultraship/libultraship.h</text>
</a>
</g>
</g>
<!-- Node3&#45;&gt;Node4 -->
<g id="edge3_Node000003_Node000004" class="edge">
<title>Node3&#45;&gt;Node4</title>
<g id="a_edge3_Node000003_Node000004"><a xlink:title=" ">
<path fill="none" stroke="#63b8ff" d="M676.46,-274.98C700.58,-266.23 738.37,-252.51 765.6,-242.62"/>
<polygon fill="#63b8ff" stroke="#63b8ff" points="766.91,-245.87 775.12,-239.17 764.52,-239.29 766.91,-245.87"/>
</a>
</g>
</g>
<!-- Node5 -->
<g id="Node000005" class="node">
<title>Node5</title>
<g id="a_Node000005"><a xlink:href="CoreMath_8h.html" target="_top" xlink:title=" ">
<polygon fill="white" stroke="#666666" points="932.5,-74 859.5,-74 859.5,-55 932.5,-55 932.5,-74"/>
<text text-anchor="middle" x="896" y="-62" font-family="Helvetica,sans-Serif" font-size="10.00">CoreMath.h</text>
</a>
</g>
</g>
<!-- Node3&#45;&gt;Node5 -->
<g id="edge4_Node000003_Node000005" class="edge">
<title>Node3&#45;&gt;Node5</title>
<g id="a_edge4_Node000003_Node000005"><a xlink:title=" ">
<path fill="none" stroke="#63b8ff" d="M721.24,-278.68C779.25,-273.08 856.34,-261.54 877,-239 916.54,-195.86 907.24,-119.09 900.28,-83.96"/>
<polygon fill="#63b8ff" stroke="#63b8ff" points="903.69,-83.16 898.17,-74.12 896.85,-84.63 903.69,-83.16"/>
</a>
</g>
</g>
<!-- Node3&#45;&gt;Node6 -->
<g id="edge6_Node000003_Node000006" class="edge">
<title>Node3&#45;&gt;Node6</title>
<g id="a_edge6_Node000003_Node000006"><a xlink:title=" ">
<path fill="none" stroke="#63b8ff" d="M721.24,-279.52C796.34,-274.05 911.31,-262.14 948,-239 964.86,-228.37 976.7,-208.46 983.63,-193.76"/>
<polygon fill="#63b8ff" stroke="#63b8ff" points="987.02,-194.75 987.81,-184.18 980.6,-191.95 987.02,-194.75"/>
</a>
</g>
</g>
<!-- Node7 -->
<g id="Node000007" class="node">
<title>Node7</title>
<g id="a_Node000007"><a xlink:href="common__structs_8h.html" target="_top" xlink:title=" ">
<polygon fill="white" stroke="#666666" points="841.5,-74 734.5,-74 734.5,-55 841.5,-55 841.5,-74"/>
<text text-anchor="middle" x="788" y="-62" font-family="Helvetica,sans-Serif" font-size="10.00">common_structs.h</text>
</a>
</g>
</g>
<!-- Node3&#45;&gt;Node7 -->
<g id="edge47_Node000003_Node000007" class="edge">
<title>Node3&#45;&gt;Node7</title>
<g id="a_edge47_Node000003_Node000007"><a xlink:title=" ">
<path fill="none" stroke="#63b8ff" d="M721.01,-281.31C788.84,-277.52 886.27,-267.19 910,-239 957.02,-183.14 858.01,-109.73 810.98,-79.46"/>
<polygon fill="#63b8ff" stroke="#63b8ff" points="812.65,-76.38 802.32,-74 808.91,-82.3 812.65,-76.38"/>
</a>
</g>
</g>
<!-- Node8 -->
<g id="Node000008" class="node">
<title>Node8</title>
<g id="a_Node000008"><a xlink:href="course__offsets_8h.html" target="_top" xlink:title=" ">
<polygon fill="white" stroke="#666666" points="221,-184 125,-184 125,-165 221,-165 221,-184"/>
<text text-anchor="middle" x="173" y="-172" font-family="Helvetica,sans-Serif" font-size="10.00">course_offsets.h</text>
</a>
</g>
</g>
<!-- Node3&#45;&gt;Node8 -->
<g id="edge10_Node000003_Node000008" class="edge">
<title>Node3&#45;&gt;Node8</title>
<g id="a_edge10_Node000003_Node000008"><a xlink:title=" ">
<path fill="none" stroke="#63b8ff" d="M584.66,-284.16C475.84,-283.98 269.28,-278.28 209,-239 193.11,-228.65 183.49,-208.69 178.25,-193.9"/>
<polygon fill="#63b8ff" stroke="#63b8ff" points="181.55,-192.73 175.17,-184.26 174.88,-194.85 181.55,-192.73"/>
</a>
</g>
</g>
<!-- Node14 -->
<g id="Node000014" class="node">
<title>Node14</title>
<g id="a_Node000014"><a xlink:href="src_2data_2some__data_8h.html" target="_top" xlink:title=" ">
<polygon fill="white" stroke="#666666" points="322,-239 218,-239 218,-220 322,-220 322,-239"/>
<text text-anchor="middle" x="270" y="-227" font-family="Helvetica,sans-Serif" font-size="10.00">data/some_data.h</text>
</a>
</g>
</g>
<!-- Node3&#45;&gt;Node14 -->
<g id="edge19_Node000003_Node000014" class="edge">
<title>Node3&#45;&gt;Node14</title>
<g id="a_edge19_Node000003_Node000014"><a xlink:title=" ">
<path fill="none" stroke="#63b8ff" d="M591.27,-274.99C528.6,-266.35 428.48,-252.52 332.15,-239.16"/>
<polygon fill="#63b8ff" stroke="#63b8ff" points="332.63,-235.69 322.24,-237.78 331.67,-242.62 332.63,-235.69"/>
</a>
</g>
</g>
<!-- Node17 -->
<g id="Node000017" class="node">
<title>Node17</title>
<g id="a_Node000017"><a xlink:href="defines_8h.html" target="_top" xlink:title=" ">
<polygon fill="white" stroke="#666666" points="401.5,-239 340.5,-239 340.5,-220 401.5,-220 401.5,-239"/>
<text text-anchor="middle" x="371" y="-227" font-family="Helvetica,sans-Serif" font-size="10.00">defines.h</text>
</a>
</g>
</g>
<!-- Node3&#45;&gt;Node17 -->
<g id="edge27_Node000003_Node000017" class="edge">
<title>Node3&#45;&gt;Node17</title>
<g id="a_edge27_Node000003_Node000017"><a xlink:title=" ">
<path fill="none" stroke="#63b8ff" d="M607.56,-274.98C559.85,-266.04 482.65,-251.55 416,-239 414.73,-238.76 413.43,-238.52 412.12,-238.27"/>
<polygon fill="#63b8ff" stroke="#63b8ff" points="412.46,-234.77 401.98,-236.36 411.16,-241.65 412.46,-234.77"/>
</a>
</g>
</g>
<!-- Node18 -->
<g id="Node000018" class="node">
<title>Node18</title>
<g id="a_Node000018"><a xlink:href="bomb__kart_8h.html" target="_top" xlink:title=" ">
<polygon fill="white" stroke="#666666" points="585.5,-184 508.5,-184 508.5,-165 585.5,-165 585.5,-184"/>
<text text-anchor="middle" x="547" y="-172" font-family="Helvetica,sans-Serif" font-size="10.00">bomb_kart.h</text>
</a>
</g>
</g>
<!-- Node3&#45;&gt;Node18 -->
<g id="edge28_Node000003_Node000018" class="edge">
<title>Node3&#45;&gt;Node18</title>
<g id="a_edge28_Node000003_Node000018"><a xlink:title=" ">
<path fill="none" stroke="#63b8ff" d="M584.75,-277.7C532.27,-271.66 465.94,-260.03 449,-239 429.96,-215.36 466.71,-197.65 500.51,-187.02"/>
<polygon fill="#63b8ff" stroke="#63b8ff" points="501.79,-190.29 510.37,-184.08 499.79,-183.58 501.79,-190.29"/>
</a>
</g>
</g>
<!-- Node21 -->
<g id="Node000021" class="node">
<title>Node21</title>
<g id="a_Node000021"><a xlink:href="path__spawn__metadata_8h.html" target="_top" xlink:title=" ">
<polygon fill="white" stroke="#666666" points="595.5,-239 458.5,-239 458.5,-220 595.5,-220 595.5,-239"/>
<text text-anchor="middle" x="527" y="-227" font-family="Helvetica,sans-Serif" font-size="10.00">path_spawn_metadata.h</text>
</a>
</g>
</g>
<!-- Node3&#45;&gt;Node21 -->
<g id="edge35_Node000003_Node000021" class="edge">
<title>Node3&#45;&gt;Node21</title>
<g id="a_edge35_Node000003_Node000021"><a xlink:title=" ">
<path fill="none" stroke="#63b8ff" d="M632.76,-274.98C612.3,-266.38 580.47,-252.99 557.07,-243.15"/>
<polygon fill="#63b8ff" stroke="#63b8ff" points="558.19,-239.82 547.61,-239.17 555.47,-246.27 558.19,-239.82"/>
</a>
</g>
</g>
<!-- Node22 -->
<g id="Node000022" class="node">
<title>Node22</title>
<g id="a_Node000022"><a xlink:href="waypoints_8h.html" target="_top" xlink:title=" ">
<polygon fill="white" stroke="#666666" points="866,-184 790,-184 790,-165 866,-165 866,-184"/>
<text text-anchor="middle" x="828" y="-172" font-family="Helvetica,sans-Serif" font-size="10.00">waypoints.h</text>
</a>
</g>
</g>
<!-- Node3&#45;&gt;Node22 -->
<g id="edge45_Node000003_Node000022" class="edge">
<title>Node3&#45;&gt;Node22</title>
<g id="a_edge45_Node000003_Node000022"><a xlink:title=" ">
<path fill="none" stroke="#63b8ff" d="M647.83,-274.65C640.79,-261.32 630.43,-235.95 643,-220 651.55,-209.14 727.98,-193.47 779.88,-183.91"/>
<polygon fill="#63b8ff" stroke="#63b8ff" points="780.7,-187.32 789.91,-182.08 779.44,-180.43 780.7,-187.32"/>
</a>
</g>
</g>
<!-- Node24 -->
<g id="Node000024" class="node">
<title>Node24</title>
<g id="a_Node000024"><a xlink:href="sounds_8h.html" target="_top" xlink:title=" ">
<polygon fill="white" stroke="#666666" points="712,-239 652,-239 652,-220 712,-220 712,-239"/>
<text text-anchor="middle" x="682" y="-227" font-family="Helvetica,sans-Serif" font-size="10.00">sounds.h</text>
</a>
</g>
</g>
<!-- Node3&#45;&gt;Node24 -->
<g id="edge46_Node000003_Node000024" class="edge">
<title>Node3&#45;&gt;Node24</title>
<g id="a_edge46_Node000003_Node000024"><a xlink:title=" ">
<path fill="none" stroke="#63b8ff" d="M657.79,-274.75C661.76,-267.49 667.53,-256.95 672.43,-247.98"/>
<polygon fill="#63b8ff" stroke="#63b8ff" points="675.57,-249.54 677.3,-239.09 669.43,-246.18 675.57,-249.54"/>
</a>
</g>
</g>
<!-- Node5&#45;&gt;Node2 -->
<g id="edge5_Node000005_Node000002" class="edge">
<title>Node5&#45;&gt;Node2</title>
<g id="a_edge5_Node000005_Node000002"><a xlink:title=" ">
<path fill="none" stroke="#63b8ff" d="M878.65,-54.98C861.43,-46.54 834.8,-33.47 814.85,-23.68"/>
<polygon fill="#63b8ff" stroke="#63b8ff" points="816.19,-20.43 805.67,-19.17 813.1,-26.72 816.19,-20.43"/>
</a>
</g>
</g>
<!-- Node6&#45;&gt;Node2 -->
<g id="edge7_Node000006_Node000002" class="edge">
<title>Node6&#45;&gt;Node2</title>
<g id="a_edge7_Node000006_Node000002"><a xlink:title=" ">
<path fill="none" stroke="#63b8ff" d="M1022.2,-168.15C1061.09,-160.01 1120.01,-142 1099,-110 1070.02,-65.86 918.54,-33.28 838.18,-18.8"/>
<polygon fill="#63b8ff" stroke="#63b8ff" points="838.74,-15.34 828.28,-17.04 837.51,-22.23 838.74,-15.34"/>
</a>
</g>
</g>
<!-- Node6&#45;&gt;Node7 -->
<g id="edge8_Node000006_Node000007" class="edge">
<title>Node6&#45;&gt;Node7</title>
<g id="a_edge8_Node000006_Node000007"><a xlink:title=" ">
<path fill="none" stroke="#63b8ff" d="M985.19,-164.75C975.67,-151.09 955.45,-124.73 932,-110 906.25,-93.82 874.2,-83.16 846.88,-76.34"/>
<polygon fill="#63b8ff" stroke="#63b8ff" points="847.58,-72.91 837.04,-74 845.96,-79.72 847.58,-72.91"/>
</a>
</g>
</g>
<!-- Node7&#45;&gt;Node2 -->
<g id="edge9_Node000007_Node000002" class="edge">
<title>Node7&#45;&gt;Node2</title>
<g id="a_edge9_Node000007_Node000002"><a xlink:title=" ">
<path fill="none" stroke="#63b8ff" d="M788,-54.75C788,-47.8 788,-37.85 788,-29.13"/>
<polygon fill="#63b8ff" stroke="#63b8ff" points="791.5,-29.09 788,-19.09 784.5,-29.09 791.5,-29.09"/>
</a>
</g>
</g>
<!-- Node8&#45;&gt;Node2 -->
<g id="edge11_Node000008_Node000002" class="edge">
<title>Node8&#45;&gt;Node2</title>
<g id="a_edge11_Node000008_Node000002"><a xlink:title=" ">
<path fill="none" stroke="#63b8ff" d="M143.5,-164.97C126.06,-158.24 105.41,-146.93 95,-129 65.57,-78.33 138.26,-67.89 175,-55 278.32,-18.76 609.95,-12.02 737.43,-10.78"/>
<polygon fill="#63b8ff" stroke="#63b8ff" points="737.71,-14.28 747.68,-10.69 737.65,-7.28 737.71,-14.28"/>
</a>
</g>
</g>
<!-- Node9 -->
<g id="Node000009" class="node">
<title>Node9</title>
<g id="a_Node000009"><a xlink:title=" ">
<polygon fill="#e0e0e0" stroke="#999999" points="247,-19 157,-19 157,0 247,0 247,-19"/>
<text text-anchor="middle" x="202" y="-7" font-family="Helvetica,sans-Serif" font-size="10.00">libultra/types.h</text>
</a>
</g>
</g>
<!-- Node8&#45;&gt;Node9 -->
<g id="edge12_Node000008_Node000009" class="edge">
<title>Node8&#45;&gt;Node9</title>
<g id="a_edge12_Node000008_Node000009"><a xlink:title=" ">
<path fill="none" stroke="#63b8ff" d="M124.98,-166.86C101.86,-160.98 76.13,-149.89 62,-129 43.57,-101.76 42.58,-81.55 62,-55 81.34,-28.55 116.53,-17.44 146.79,-12.94"/>
<polygon fill="#63b8ff" stroke="#63b8ff" points="147.36,-16.39 156.83,-11.65 146.47,-9.45 147.36,-16.39"/>
</a>
</g>
</g>
<!-- Node10 -->
<g id="Node000010" class="node">
<title>Node10</title>
<g id="a_Node000010"><a xlink:title=" ">
<polygon fill="#e0e0e0" stroke="#999999" points="490,-74 412,-74 412,-55 490,-55 490,-74"/>
<text text-anchor="middle" x="451" y="-62" font-family="Helvetica,sans-Serif" font-size="10.00">libultra/gbi.h</text>
</a>
</g>
</g>
<!-- Node8&#45;&gt;Node10 -->
<g id="edge13_Node000008_Node000010" class="edge">
<title>Node8&#45;&gt;Node10</title>
<g id="a_edge13_Node000008_Node000010"><a xlink:title=" ">
<path fill="none" stroke="#63b8ff" d="M186.91,-164.85C211.88,-149.43 263.53,-118.03 283,-110 321.55,-94.1 367.44,-82.4 401.51,-74.99"/>
<polygon fill="#63b8ff" stroke="#63b8ff" points="402.63,-78.34 411.68,-72.84 401.17,-71.49 402.63,-78.34"/>
</a>
</g>
</g>
<!-- Node11 -->
<g id="Node000011" class="node">
<title>Node11</title>
<g id="a_Node000011"><a xlink:href="other__textures_8h.html" target="_top" xlink:title=" ">
<polygon fill="white" stroke="#666666" points="235.5,-129 104.5,-129 104.5,-110 235.5,-110 235.5,-129"/>
<text text-anchor="middle" x="170" y="-117" font-family="Helvetica,sans-Serif" font-size="10.00">assets/other_textures.h</text>
</a>
</g>
</g>
<!-- Node8&#45;&gt;Node11 -->
<g id="edge14_Node000008_Node000011" class="edge">
<title>Node8&#45;&gt;Node11</title>
<g id="a_edge14_Node000008_Node000011"><a xlink:title=" ">
<path fill="none" stroke="#63b8ff" d="M172.5,-164.75C172.11,-157.8 171.55,-147.85 171.05,-139.13"/>
<polygon fill="#63b8ff" stroke="#63b8ff" points="174.55,-138.88 170.49,-129.09 167.56,-139.27 174.55,-138.88"/>
</a>
</g>
</g>
<!-- Node13 -->
<g id="Node000013" class="node">
<title>Node13</title>
<g id="a_Node000013"><a xlink:href="animation_8h.html" target="_top" xlink:title=" ">
<polygon fill="white" stroke="#666666" points="367.5,-129 292.5,-129 292.5,-110 367.5,-110 367.5,-129"/>
<text text-anchor="middle" x="330" y="-117" font-family="Helvetica,sans-Serif" font-size="10.00">animation.h</text>
</a>
</g>
</g>
<!-- Node8&#45;&gt;Node13 -->
<g id="edge17_Node000008_Node000013" class="edge">
<title>Node8&#45;&gt;Node13</title>
<g id="a_edge17_Node000008_Node000013"><a xlink:title=" ">
<path fill="none" stroke="#63b8ff" d="M198.22,-164.98C224.36,-156.16 265.4,-142.31 294.73,-132.41"/>
<polygon fill="#63b8ff" stroke="#63b8ff" points="296.22,-135.6 304.58,-129.08 293.98,-128.96 296.22,-135.6"/>
</a>
</g>
</g>
<!-- Node11&#45;&gt;Node2 -->
<g id="edge15_Node000011_Node000002" class="edge">
<title>Node11&#45;&gt;Node2</title>
<g id="a_edge15_Node000011_Node000002"><a xlink:title=" ">
<path fill="none" stroke="#63b8ff" d="M170.32,-109.81C171.36,-95.73 175.62,-68.18 193,-55 235.93,-22.43 602.16,-13.41 737.77,-11.17"/>
<polygon fill="#63b8ff" stroke="#63b8ff" points="737.95,-14.67 747.89,-11.01 737.84,-7.67 737.95,-14.67"/>
</a>
</g>
</g>
<!-- Node12 -->
<g id="Node000012" class="node">
<title>Node12</title>
<g id="a_Node000012"><a xlink:href="align__asset__macro_8h.html" target="_top" xlink:title=" ">
<polygon fill="white" stroke="#666666" points="319.5,-74 202.5,-74 202.5,-55 319.5,-55 319.5,-74"/>
<text text-anchor="middle" x="261" y="-62" font-family="Helvetica,sans-Serif" font-size="10.00">align_asset_macro.h</text>
</a>
</g>
</g>
<!-- Node11&#45;&gt;Node12 -->
<g id="edge16_Node000011_Node000012" class="edge">
<title>Node11&#45;&gt;Node12</title>
<g id="a_edge16_Node000011_Node000012"><a xlink:title=" ">
<path fill="none" stroke="#63b8ff" d="M184.62,-109.98C198.86,-101.69 220.75,-88.94 237.45,-79.22"/>
<polygon fill="#63b8ff" stroke="#63b8ff" points="239.23,-82.23 246.11,-74.17 235.71,-76.18 239.23,-82.23"/>
</a>
</g>
</g>
<!-- Node13&#45;&gt;Node7 -->
<g id="edge18_Node000013_Node000007" class="edge">
<title>Node13&#45;&gt;Node7</title>
<g id="a_edge18_Node000013_Node000007"><a xlink:title=" ">
<path fill="none" stroke="#63b8ff" d="M367.87,-114.12C446.42,-105.03 627.82,-84.04 724.55,-72.84"/>
<polygon fill="#63b8ff" stroke="#63b8ff" points="724.96,-76.32 734.49,-71.69 724.16,-69.36 724.96,-76.32"/>
</a>
</g>
</g>
<!-- Node14&#45;&gt;Node10 -->
<g id="edge20_Node000014_Node000010" class="edge">
<title>Node14&#45;&gt;Node10</title>
<g id="a_edge20_Node000014_Node000010"><a xlink:title=" ">
<path fill="none" stroke="#63b8ff" d="M279.73,-219.74C308.95,-193.42 396.2,-114.85 433.63,-81.14"/>
<polygon fill="#63b8ff" stroke="#63b8ff" points="436.13,-83.6 441.22,-74.31 431.45,-78.4 436.13,-83.6"/>
</a>
</g>
</g>
<!-- Node14&#45;&gt;Node11 -->
<g id="edge23_Node000014_Node000011" class="edge">
<title>Node14&#45;&gt;Node11</title>
<g id="a_edge23_Node000014_Node000011"><a xlink:title=" ">
<path fill="none" stroke="#63b8ff" d="M265.73,-219.58C259.24,-206.61 245.94,-182.2 230,-165 219.18,-153.33 204.95,-142.62 193.06,-134.63"/>
<polygon fill="#63b8ff" stroke="#63b8ff" points="194.81,-131.6 184.52,-129.09 191,-137.47 194.81,-131.6"/>
</a>
</g>
</g>
<!-- Node15 -->
<g id="Node000015" class="node">
<title>Node15</title>
<g id="a_Node000015"><a xlink:href="spline_8h.html" target="_top" xlink:title=" ">
<polygon fill="white" stroke="#666666" points="699.5,-129 644.5,-129 644.5,-110 699.5,-110 699.5,-129"/>
<text text-anchor="middle" x="672" y="-117" font-family="Helvetica,sans-Serif" font-size="10.00">spline.h</text>
</a>
</g>
</g>
<!-- Node14&#45;&gt;Node15 -->
<g id="edge21_Node000014_Node000015" class="edge">
<title>Node14&#45;&gt;Node15</title>
<g id="a_edge21_Node000014_Node000015"><a xlink:title=" ">
<path fill="none" stroke="#63b8ff" d="M290.97,-219.94C312.58,-211.08 347.23,-196.77 377,-184 396.2,-175.77 399.98,-170.99 420,-165 509.82,-138.1 538.15,-147.21 634.32,-129"/>
<polygon fill="#63b8ff" stroke="#63b8ff" points="635.01,-132.43 644.16,-127.08 633.67,-125.56 635.01,-132.43"/>
</a>
</g>
</g>
<!-- Node16 -->
<g id="Node000016" class="node">
<title>Node16</title>
<g id="a_Node000016"><a xlink:href="objects_8h.html" target="_top" xlink:title=" ">
<polygon fill="white" stroke="#666666" points="490.5,-184 429.5,-184 429.5,-165 490.5,-165 490.5,-184"/>
<text text-anchor="middle" x="460" y="-172" font-family="Helvetica,sans-Serif" font-size="10.00">objects.h</text>
</a>
</g>
</g>
<!-- Node14&#45;&gt;Node16 -->
<g id="edge24_Node000014_Node000016" class="edge">
<title>Node14&#45;&gt;Node16</title>
<g id="a_edge24_Node000014_Node000016"><a xlink:title=" ">
<path fill="none" stroke="#63b8ff" d="M300.53,-219.98C332.7,-211.01 383.56,-196.82 419.17,-186.89"/>
<polygon fill="#63b8ff" stroke="#63b8ff" points="420.54,-190.14 429.23,-184.08 418.66,-183.4 420.54,-190.14"/>
</a>
</g>
</g>
<!-- Node15&#45;&gt;Node7 -->
<g id="edge22_Node000015_Node000007" class="edge">
<title>Node15&#45;&gt;Node7</title>
<g id="a_edge22_Node000015_Node000007"><a xlink:title=" ">
<path fill="none" stroke="#63b8ff" d="M690.64,-109.98C709.3,-101.46 738.25,-88.23 759.74,-78.41"/>
<polygon fill="#63b8ff" stroke="#63b8ff" points="761.38,-81.51 769.02,-74.17 758.47,-75.14 761.38,-81.51"/>
</a>
</g>
</g>
<!-- Node16&#45;&gt;Node7 -->
<g id="edge26_Node000016_Node000007" class="edge">
<title>Node16&#45;&gt;Node7</title>
<g id="a_edge26_Node000016_Node000007"><a xlink:title=" ">
<path fill="none" stroke="#63b8ff" d="M490.63,-166.69C493.46,-166.1 496.28,-165.53 499,-165 591.51,-146.96 621.96,-167.5 708,-129 733.4,-117.63 757.72,-96.34 772.74,-81.56"/>
<polygon fill="#63b8ff" stroke="#63b8ff" points="775.55,-83.7 780.08,-74.13 770.56,-78.79 775.55,-83.7"/>
</a>
</g>
</g>
<!-- Node16&#45;&gt;Node15 -->
<g id="edge25_Node000016_Node000015" class="edge">
<title>Node16&#45;&gt;Node15</title>
<g id="a_edge25_Node000016_Node000015"><a xlink:title=" ">
<path fill="none" stroke="#63b8ff" d="M490.83,-165.79C528.83,-156.29 593.4,-140.15 634.32,-129.92"/>
<polygon fill="#63b8ff" stroke="#63b8ff" points="635.33,-133.28 644.18,-127.46 633.63,-126.49 635.33,-133.28"/>
</a>
</g>
</g>
<!-- Node18&#45;&gt;Node7 -->
<g id="edge29_Node000018_Node000007" class="edge">
<title>Node18&#45;&gt;Node7</title>
<g id="a_edge29_Node000018_Node000007"><a xlink:title=" ">
<path fill="none" stroke="#63b8ff" d="M585.66,-172.58C627.42,-169.89 694.35,-160.5 742,-129 759.16,-117.65 772.09,-97.58 779.81,-83.03"/>
<polygon fill="#63b8ff" stroke="#63b8ff" points="782.97,-84.53 784.3,-74.01 776.71,-81.4 782.97,-84.53"/>
</a>
</g>
</g>
<!-- Node19 -->
<g id="Node000019" class="node">
<title>Node19</title>
<g id="a_Node000019"><a xlink:href="mk64_8h.html" target="_top" xlink:title=" ">
<polygon fill="white" stroke="#666666" points="477.5,-129 424.5,-129 424.5,-110 477.5,-110 477.5,-129"/>
<text text-anchor="middle" x="451" y="-117" font-family="Helvetica,sans-Serif" font-size="10.00">mk64.h</text>
</a>
</g>
</g>
<!-- Node18&#45;&gt;Node19 -->
<g id="edge30_Node000018_Node000019" class="edge">
<title>Node18&#45;&gt;Node19</title>
<g id="a_edge30_Node000018_Node000019"><a xlink:title=" ">
<path fill="none" stroke="#63b8ff" d="M531.58,-164.98C516.55,-156.69 493.46,-143.94 475.84,-134.22"/>
<polygon fill="#63b8ff" stroke="#63b8ff" points="477.15,-130.94 466.7,-129.17 473.77,-137.07 477.15,-130.94"/>
</a>
</g>
</g>
<!-- Node19&#45;&gt;Node2 -->
<g id="edge31_Node000019_Node000002" class="edge">
<title>Node19&#45;&gt;Node2</title>
<g id="a_edge31_Node000019_Node000002"><a xlink:title=" ">
<path fill="none" stroke="#63b8ff" d="M477.73,-109.94C537.7,-90.72 683.07,-44.13 751.38,-22.24"/>
<polygon fill="#63b8ff" stroke="#63b8ff" points="752.82,-25.45 761.27,-19.07 750.68,-18.78 752.82,-25.45"/>
</a>
</g>
</g>
<!-- Node19&#45;&gt;Node10 -->
<g id="edge34_Node000019_Node000010" class="edge">
<title>Node19&#45;&gt;Node10</title>
<g id="a_edge34_Node000019_Node000010"><a xlink:title=" ">
<path fill="none" stroke="#63b8ff" d="M451,-109.75C451,-102.8 451,-92.85 451,-84.13"/>
<polygon fill="#63b8ff" stroke="#63b8ff" points="454.5,-84.09 451,-74.09 447.5,-84.09 454.5,-84.09"/>
</a>
</g>
</g>
<!-- Node20 -->
<g id="Node000020" class="node">
<title>Node20</title>
<g id="a_Node000020"><a xlink:href="string_8h.html" target="_top" xlink:title=" ">
<polygon fill="white" stroke="#666666" points="392.5,-74 339.5,-74 339.5,-55 392.5,-55 392.5,-74"/>
<text text-anchor="middle" x="366" y="-62" font-family="Helvetica,sans-Serif" font-size="10.00">string.h</text>
</a>
</g>
</g>
<!-- Node19&#45;&gt;Node20 -->
<g id="edge32_Node000019_Node000020" class="edge">
<title>Node19&#45;&gt;Node20</title>
<g id="a_edge32_Node000019_Node000020"><a xlink:title=" ">
<path fill="none" stroke="#63b8ff" d="M437.34,-109.98C424.16,-101.77 403.97,-89.18 388.43,-79.49"/>
<polygon fill="#63b8ff" stroke="#63b8ff" points="390.24,-76.49 379.91,-74.17 386.54,-82.43 390.24,-76.49"/>
</a>
</g>
</g>
<!-- Node20&#45;&gt;Node9 -->
<g id="edge33_Node000020_Node000009" class="edge">
<title>Node20&#45;&gt;Node9</title>
<g id="a_edge33_Node000020_Node000009"><a xlink:title=" ">
<path fill="none" stroke="#63b8ff" d="M339.65,-54.98C312.24,-46.13 269.11,-32.19 238.44,-22.28"/>
<polygon fill="#63b8ff" stroke="#63b8ff" points="239.15,-18.83 228.56,-19.08 237,-25.49 239.15,-18.83"/>
</a>
</g>
</g>
<!-- Node21&#45;&gt;Node7 -->
<g id="edge38_Node000021_Node000007" class="edge">
<title>Node21&#45;&gt;Node7</title>
<g id="a_edge38_Node000021_Node000007"><a xlink:title=" ">
<path fill="none" stroke="#63b8ff" d="M579.2,-219.97C633.34,-208.48 716.96,-182.87 767,-129 778.47,-116.65 783.69,-97.88 786.05,-83.95"/>
<polygon fill="#63b8ff" stroke="#63b8ff" points="789.52,-84.41 787.4,-74.03 782.59,-83.47 789.52,-84.41"/>
</a>
</g>
</g>
<!-- Node21&#45;&gt;Node18 -->
<g id="edge44_Node000021_Node000018" class="edge">
<title>Node21&#45;&gt;Node18</title>
<g id="a_edge44_Node000021_Node000018"><a xlink:title=" ">
<path fill="none" stroke="#63b8ff" d="M530.3,-219.75C532.98,-212.65 536.85,-202.4 540.19,-193.56"/>
<polygon fill="#63b8ff" stroke="#63b8ff" points="543.5,-194.68 543.76,-184.09 536.95,-192.21 543.5,-194.68"/>
</a>
</g>
</g>
<!-- Node21&#45;&gt;Node22 -->
<g id="edge36_Node000021_Node000022" class="edge">
<title>Node21&#45;&gt;Node22</title>
<g id="a_edge36_Node000021_Node000022"><a xlink:title=" ">
<path fill="none" stroke="#63b8ff" d="M575.36,-219.98C631.52,-210.1 723.62,-193.88 779.74,-184"/>
<polygon fill="#63b8ff" stroke="#63b8ff" points="780.54,-187.41 789.79,-182.23 779.33,-180.52 780.54,-187.41"/>
</a>
</g>
</g>
<!-- Node23 -->
<g id="Node000023" class="node">
<title>Node23</title>
<g id="a_Node000023"><a xlink:href="common__data_8h.html" target="_top" xlink:title=" ">
<polygon fill="white" stroke="#666666" points="626,-129 496,-129 496,-110 626,-110 626,-129"/>
<text text-anchor="middle" x="561" y="-117" font-family="Helvetica,sans-Serif" font-size="10.00">assets/common_data.h</text>
</a>
</g>
</g>
<!-- Node21&#45;&gt;Node23 -->
<g id="edge39_Node000021_Node000023" class="edge">
<title>Node21&#45;&gt;Node23</title>
<g id="a_edge39_Node000021_Node000023"><a xlink:title=" ">
<path fill="none" stroke="#63b8ff" d="M550.11,-219.98C565.59,-212.92 584.76,-201.23 594,-184 602.66,-167.86 590.4,-149.25 578.45,-136.37"/>
<polygon fill="#63b8ff" stroke="#63b8ff" points="580.78,-133.76 571.23,-129.16 575.84,-138.71 580.78,-133.76"/>
</a>
</g>
</g>
<!-- Node22&#45;&gt;Node7 -->
<g id="edge37_Node000022_Node000007" class="edge">
<title>Node22&#45;&gt;Node7</title>
<g id="a_edge37_Node000022_Node000007"><a xlink:title=" ">
<path fill="none" stroke="#63b8ff" d="M827.82,-164.98C827.31,-152.49 825.35,-128.69 818,-110 814.09,-100.05 807.65,-90.07 801.74,-82.1"/>
<polygon fill="#63b8ff" stroke="#63b8ff" points="804.37,-79.77 795.45,-74.05 798.85,-84.08 804.37,-79.77"/>
</a>
</g>
</g>
<!-- Node23&#45;&gt;Node2 -->
<g id="edge41_Node000023_Node000002" class="edge">
<title>Node23&#45;&gt;Node2</title>
<g id="a_edge41_Node000023_Node000002"><a xlink:title=" ">
<path fill="none" stroke="#63b8ff" d="M579.19,-109.84C618.97,-90.92 713.87,-45.77 760.79,-23.45"/>
<polygon fill="#63b8ff" stroke="#63b8ff" points="762.51,-26.5 770.04,-19.05 759.5,-20.18 762.51,-26.5"/>
</a>
</g>
</g>
<!-- Node23&#45;&gt;Node7 -->
<g id="edge42_Node000023_Node000007" class="edge">
<title>Node23&#45;&gt;Node7</title>
<g id="a_edge42_Node000023_Node000007"><a xlink:title=" ">
<path fill="none" stroke="#63b8ff" d="M597.47,-109.98C636.57,-100.86 698.77,-86.33 741.39,-76.38"/>
<polygon fill="#63b8ff" stroke="#63b8ff" points="742.3,-79.76 751.24,-74.08 740.71,-72.95 742.3,-79.76"/>
</a>
</g>
</g>
<!-- Node23&#45;&gt;Node10 -->
<g id="edge40_Node000023_Node000010" class="edge">
<title>Node23&#45;&gt;Node10</title>
<g id="a_edge40_Node000023_Node000010"><a xlink:title=" ">
<path fill="none" stroke="#63b8ff" d="M543.33,-109.98C525.71,-101.5 498.42,-88.35 478.07,-78.54"/>
<polygon fill="#63b8ff" stroke="#63b8ff" points="479.52,-75.36 468.99,-74.17 476.48,-81.66 479.52,-75.36"/>
</a>
</g>
</g>
<!-- Node23&#45;&gt;Node12 -->
<g id="edge43_Node000023_Node000012" class="edge">
<title>Node23&#45;&gt;Node12</title>
<g id="a_edge43_Node000023_Node000012"><a xlink:title=" ">
<path fill="none" stroke="#63b8ff" d="M512.8,-109.98C460.25,-100.7 376.15,-85.84 319.77,-75.88"/>
<polygon fill="#63b8ff" stroke="#63b8ff" points="320.03,-72.38 309.58,-74.08 318.82,-79.27 320.03,-72.38"/>
</a>
</g>
</g>
<!-- Node25&#45;&gt;Node2 -->
<g id="edge49_Node000025_Node000002" class="edge">
<title>Node25&#45;&gt;Node2</title>
<g id="a_edge49_Node000025_Node000002"><a xlink:title=" ">
<path fill="none" stroke="#63b8ff" d="M1026.41,-109.92C1009.36,-96.5 974.36,-70.45 941,-55 908.07,-39.75 868.72,-28.45 838.17,-21.05"/>
<polygon fill="#63b8ff" stroke="#63b8ff" points="838.71,-17.58 828.17,-18.69 837.1,-24.39 838.71,-17.58"/>
</a>
</g>
</g>
<!-- Node25&#45;&gt;Node5 -->
<g id="edge51_Node000025_Node000005" class="edge">
<title>Node25&#45;&gt;Node5</title>
<g id="a_edge51_Node000025_Node000005"><a xlink:title=" ">
<path fill="none" stroke="#63b8ff" d="M1014.35,-109.98C991.15,-101.27 954.88,-87.63 928.6,-77.75"/>
<polygon fill="#63b8ff" stroke="#63b8ff" points="929.66,-74.41 919.07,-74.17 927.2,-80.97 929.66,-74.41"/>
</a>
</g>
</g>
<!-- Node25&#45;&gt;Node7 -->
<g id="edge52_Node000025_Node000007" class="edge">
<title>Node25&#45;&gt;Node7</title>
<g id="a_edge52_Node000025_Node000007"><a xlink:title=" ">
<path fill="none" stroke="#63b8ff" d="M996.99,-109.98C953.83,-100.8 885.02,-86.15 838.24,-76.19"/>
<polygon fill="#63b8ff" stroke="#63b8ff" points="838.83,-72.74 828.32,-74.08 837.37,-79.59 838.83,-72.74"/>
</a>
</g>
</g>
<!-- Node25&#45;&gt;Node10 -->
<g id="edge50_Node000025_Node000010" class="edge">
<title>Node25&#45;&gt;Node10</title>
<g id="a_edge50_Node000025_Node000010"><a xlink:title=" ">
<path fill="none" stroke="#63b8ff" d="M983.96,-113.7C871.24,-103.51 609.24,-79.81 500.1,-69.94"/>
<polygon fill="#63b8ff" stroke="#63b8ff" points="500.3,-66.44 490.02,-69.03 499.67,-73.42 500.3,-66.44"/>
</a>
</g>
</g>
<!-- Node26&#45;&gt;Node2 -->
<g id="edge55_Node000026_Node000002" class="edge">
<title>Node26&#45;&gt;Node2</title>
<g id="a_edge55_Node000026_Node000002"><a xlink:title=" ">
<path fill="none" stroke="#63b8ff" d="M1208.12,-109.99C1233.52,-98.11 1271.78,-75.66 1253,-55 1225.53,-24.77 953.32,-14.56 838.58,-11.58"/>
<polygon fill="#63b8ff" stroke="#63b8ff" points="838.39,-8.08 828.31,-11.32 838.22,-15.08 838.39,-8.08"/>
</a>
</g>
</g>
<!-- Node26&#45;&gt;Node7 -->
<g id="edge59_Node000026_Node000007" class="edge">
<title>Node26&#45;&gt;Node7</title>
<g id="a_edge59_Node000026_Node000007"><a xlink:title=" ">
<path fill="none" stroke="#63b8ff" d="M1146.36,-113.09C1084.43,-105.03 964.08,-89.3 851.9,-74.25"/>
<polygon fill="#63b8ff" stroke="#63b8ff" points="852.14,-70.75 841.77,-72.89 851.21,-77.69 852.14,-70.75"/>
</a>
</g>
</g>
<!-- Node27 -->
<g id="Node000027" class="node">
<title>Node27</title>
<g id="a_Node000027"><a xlink:href="macros_8h.html" target="_top" xlink:title=" ">
<polygon fill="white" stroke="#666666" points="1170,-74 1108,-74 1108,-55 1170,-55 1170,-74"/>
<text text-anchor="middle" x="1139" y="-62" font-family="Helvetica,sans-Serif" font-size="10.00">macros.h</text>
</a>
</g>
</g>
<!-- Node26&#45;&gt;Node27 -->
<g id="edge56_Node000026_Node000027" class="edge">
<title>Node26&#45;&gt;Node27</title>
<g id="a_edge56_Node000026_Node000027"><a xlink:title=" ">
<path fill="none" stroke="#63b8ff" d="M1179.91,-109.75C1172.84,-102.11 1162.41,-90.82 1153.85,-81.56"/>
<polygon fill="#63b8ff" stroke="#63b8ff" points="1156.3,-79.06 1146.94,-74.09 1151.16,-83.81 1156.3,-79.06"/>
</a>
</g>
</g>
<!-- Node29 -->
<g id="Node000029" class="node">
<title>Node29</title>
<g id="a_Node000029"><a xlink:title=" ">
<polygon fill="#e0e0e0" stroke="#999999" points="1244,-74 1188,-74 1188,-55 1244,-55 1244,-74"/>
<text text-anchor="middle" x="1216" y="-62" font-family="Helvetica,sans-Serif" font-size="10.00">assert.h</text>
</a>
</g>
</g>
<!-- Node26&#45;&gt;Node29 -->
<g id="edge60_Node000026_Node000029" class="edge">
<title>Node26&#45;&gt;Node29</title>
<g id="a_edge60_Node000026_Node000029"><a xlink:title=" ">
<path fill="none" stroke="#63b8ff" d="M1192.62,-109.75C1196.46,-102.49 1202.02,-91.95 1206.76,-82.98"/>
<polygon fill="#63b8ff" stroke="#63b8ff" points="1209.89,-84.57 1211.46,-74.09 1203.7,-81.3 1209.89,-84.57"/>
</a>
</g>
</g>
<!-- Node27&#45;&gt;Node2 -->
<g id="edge58_Node000027_Node000002" class="edge">
<title>Node27&#45;&gt;Node2</title>
<g id="a_edge58_Node000027_Node000002"><a xlink:title=" ">
<path fill="none" stroke="#63b8ff" d="M1107.56,-57.39C1103.02,-56.55 1098.39,-55.73 1094,-55 1004.15,-39.99 898.97,-25.33 838.26,-17.15"/>
<polygon fill="#63b8ff" stroke="#63b8ff" points="838.56,-13.65 828.18,-15.79 837.63,-20.59 838.56,-13.65"/>
</a>
</g>
</g>
<!-- Node28 -->
<g id="Node000028" class="node">
<title>Node28</title>
<g id="a_Node000028"><a xlink:href="math_8h.html" target="_top" xlink:title=" ">
<polygon fill="white" stroke="#666666" points="1164.5,-19 1113.5,-19 1113.5,0 1164.5,0 1164.5,-19"/>
<text text-anchor="middle" x="1139" y="-7" font-family="Helvetica,sans-Serif" font-size="10.00">math.h</text>
</a>
</g>
</g>
<!-- Node27&#45;&gt;Node28 -->
<g id="edge57_Node000027_Node000028" class="edge">
<title>Node27&#45;&gt;Node28</title>
<g id="a_edge57_Node000027_Node000028"><a xlink:title=" ">
<path fill="none" stroke="#63b8ff" d="M1139,-54.75C1139,-47.8 1139,-37.85 1139,-29.13"/>
<polygon fill="#63b8ff" stroke="#63b8ff" points="1142.5,-29.09 1139,-19.09 1135.5,-29.09 1142.5,-29.09"/>
</a>
</g>
</g>
</g>
</svg>
