<?xml version="1.0" encoding="UTF-8" standalone="no"?>
<!DOCTYPE svg PUBLIC "-//W3C//DTD SVG 1.1//EN"
 "http://www.w3.org/Graphics/SVG/1.1/DTD/svg11.dtd">
<!-- Generated by graphviz version 2.43.0 (0)
 -->
<!-- Title: CM_BeginPlay Pages: 1 -->
<svg width="547pt" height="76pt"
 viewBox="0.00 0.00 547.00 75.50" xmlns="http://www.w3.org/2000/svg" xmlns:xlink="http://www.w3.org/1999/xlink">
<g id="graph0" class="graph" transform="scale(1 1) rotate(0) translate(4 71.5)">
<title>CM_BeginPlay</title>
<!-- Node1 -->
<g id="Node000001" class="node">
<title>Node1</title>
<g id="a_Node000001"><a xlink:title=" ">
<polygon fill="#999999" stroke="#666666" points="86,-45.5 0,-45.5 0,-26.5 86,-26.5 86,-45.5"/>
<text text-anchor="middle" x="43" y="-33.5" font-family="Helvetica,sans-Serif" font-size="10.00">CM_BeginPlay</text>
</a>
</g>
</g>
<!-- Node2 -->
<g id="Node000002" class="node">
<title>Node2</title>
<g id="a_Node000002"><a xlink:href="namespaceEditor.html#ac95c825fc97e637d93f36fe4e9121515" target="_top" xlink:title=" ">
<polygon fill="white" stroke="#666666" points="223,-45.5 122,-45.5 122,-26.5 223,-26.5 223,-45.5"/>
<text text-anchor="middle" x="172.5" y="-33.5" font-family="Helvetica,sans-Serif" font-size="10.00">Editor::LoadLevel</text>
</a>
</g>
</g>
<!-- Node1&#45;&gt;Node2 -->
<g id="edge1_Node000001_Node000002" class="edge">
<title>Node1&#45;&gt;Node2</title>
<g id="a_edge1_Node000001_Node000002"><a xlink:title=" ">
<path fill="none" stroke="#63b8ff" d="M86.1,-36C94.34,-36 103.12,-36 111.81,-36"/>
<polygon fill="#63b8ff" stroke="#63b8ff" points="111.92,-39.5 121.92,-36 111.92,-32.5 111.92,-39.5"/>
</a>
</g>
</g>
<!-- Node3 -->
<g id="Node000003" class="node">
<title>Node3</title>
<g id="a_Node000003"><a xlink:href="structSpawnParams.html#a8a5a24c4ced13fc9150d32d895470c9f" target="_top" xlink:title=" ">
<polygon fill="white" stroke="#666666" points="405,-67.5 265,-67.5 265,-48.5 405,-48.5 405,-67.5"/>
<text text-anchor="middle" x="335" y="-55.5" font-family="Helvetica,sans-Serif" font-size="10.00">SpawnParams::from_json</text>
</a>
</g>
</g>
<!-- Node2&#45;&gt;Node3 -->
<g id="edge2_Node000002_Node000003" class="edge">
<title>Node2&#45;&gt;Node3</title>
<g id="a_edge2_Node000002_Node000003"><a xlink:title=" ">
<path fill="none" stroke="#63b8ff" d="M223.4,-42.84C233.38,-44.21 244.08,-45.67 254.76,-47.14"/>
<polygon fill="#63b8ff" stroke="#63b8ff" points="254.59,-50.65 264.97,-48.54 255.54,-43.71 254.59,-50.65"/>
</a>
</g>
</g>
<!-- Node5 -->
<g id="Node000005" class="node">
<title>Node5</title>
<g id="a_Node000005"><a xlink:href="namespaceEditor.html#a5682c68f8c058161eac4f98905aa0c86" target="_top" xlink:title=" ">
<polygon fill="white" stroke="#666666" points="411,-30 259,-30 259,0 411,0 411,-30"/>
<text text-anchor="start" x="267" y="-18" font-family="Helvetica,sans-Serif" font-size="10.00">Editor::Load_AddStaticMesh</text>
<text text-anchor="middle" x="335" y="-7" font-family="Helvetica,sans-Serif" font-size="10.00">Actor</text>
</a>
</g>
</g>
<!-- Node2&#45;&gt;Node5 -->
<g id="edge4_Node000002_Node000005" class="edge">
<title>Node2&#45;&gt;Node5</title>
<g id="a_edge4_Node000002_Node000005"><a xlink:title=" ">
<path fill="none" stroke="#63b8ff" d="M223.4,-29.47C231.47,-28.41 240.02,-27.3 248.65,-26.17"/>
<polygon fill="#63b8ff" stroke="#63b8ff" points="249.33,-29.61 258.79,-24.84 248.42,-22.67 249.33,-29.61"/>
</a>
</g>
</g>
<!-- Node4 -->
<g id="Node000004" class="node">
<title>Node4</title>
<g id="a_Node000004"><a xlink:href="SpawnParams_8h.html#af4dfccdb6d4f1f9514fa9f7483e0d0aa" target="_top" xlink:title=" ">
<polygon fill="white" stroke="#666666" points="539,-67.5 447,-67.5 447,-48.5 539,-48.5 539,-67.5"/>
<text text-anchor="middle" x="493" y="-55.5" font-family="Helvetica,sans-Serif" font-size="10.00">get_optional_to</text>
</a>
</g>
</g>
<!-- Node3&#45;&gt;Node4 -->
<g id="edge3_Node000003_Node000004" class="edge">
<title>Node3&#45;&gt;Node4</title>
<g id="a_edge3_Node000003_Node000004"><a xlink:title=" ">
<path fill="none" stroke="#63b8ff" d="M405.33,-58C415.72,-58 426.32,-58 436.37,-58"/>
<polygon fill="#63b8ff" stroke="#63b8ff" points="436.62,-61.5 446.62,-58 436.62,-54.5 436.62,-61.5"/>
</a>
</g>
</g>
</g>
</svg>
