<?xml version="1.0" encoding="UTF-8" standalone="no"?>
<!DOCTYPE svg PUBLIC "-//W3C//DTD SVG 1.1//EN"
 "http://www.w3.org/Graphics/SVG/1.1/DTD/svg11.dtd">
<!-- Generated by graphviz version 2.43.0 (0)
 -->
<!-- Title: src/actors/green_shell/update.inc.c Pages: 1 -->
<svg width="1446pt" height="423pt"
 viewBox="0.00 0.00 1445.50 423.00" xmlns="http://www.w3.org/2000/svg" xmlns:xlink="http://www.w3.org/1999/xlink">
<g id="graph0" class="graph" transform="scale(1 1) rotate(0) translate(4 419)">
<title>src/actors/green_shell/update.inc.c</title>
<!-- Node1 -->
<g id="Node000001" class="node">
<title>Node1</title>
<g id="a_Node000001"><a xlink:title=" ">
<polygon fill="#999999" stroke="#666666" points="547,-415 424,-415 424,-385 547,-385 547,-415"/>
<text text-anchor="start" x="432" y="-403" font-family="Helvetica,sans-Serif" font-size="10.00">src/actors/green_shell</text>
<text text-anchor="middle" x="485.5" y="-392" font-family="Helvetica,sans-Serif" font-size="10.00">/update.inc.c</text>
</a>
</g>
</g>
<!-- Node2 -->
<g id="Node000002" class="node">
<title>Node2</title>
<g id="a_Node000002"><a xlink:href="actors_8h.html" target="_top" xlink:title=" ">
<polygon fill="white" stroke="#666666" points="140.5,-239 84.5,-239 84.5,-220 140.5,-220 140.5,-239"/>
<text text-anchor="middle" x="112.5" y="-227" font-family="Helvetica,sans-Serif" font-size="10.00">actors.h</text>
</a>
</g>
</g>
<!-- Node1&#45;&gt;Node2 -->
<g id="edge1_Node000001_Node000002" class="edge">
<title>Node1&#45;&gt;Node2</title>
<g id="a_edge1_Node000001_Node000002"><a xlink:title=" ">
<path fill="none" stroke="#63b8ff" d="M423.96,-391.05C326.98,-377.11 145.79,-344.8 108.5,-294 99.11,-281.21 101.52,-262.79 105.44,-249.08"/>
<polygon fill="#63b8ff" stroke="#63b8ff" points="108.86,-249.88 108.71,-239.29 102.22,-247.66 108.86,-249.88"/>
</a>
</g>
</g>
<!-- Node9 -->
<g id="Node000009" class="node">
<title>Node9</title>
<g id="a_Node000009"><a xlink:href="code__800029B0_8h.html" target="_top" xlink:title=" ">
<polygon fill="white" stroke="#666666" points="103,-184 0,-184 0,-165 103,-165 103,-184"/>
<text text-anchor="middle" x="51.5" y="-172" font-family="Helvetica,sans-Serif" font-size="10.00">code_800029B0.h</text>
</a>
</g>
</g>
<!-- Node1&#45;&gt;Node9 -->
<g id="edge25_Node000001_Node000009" class="edge">
<title>Node1&#45;&gt;Node9</title>
<g id="a_edge25_Node000001_Node000009"><a xlink:title=" ">
<path fill="none" stroke="#63b8ff" d="M423.95,-399.21C356.98,-397.27 248.16,-387.64 163.5,-349 129.07,-333.29 120.87,-324.53 98.5,-294 82.84,-272.63 85.3,-263.62 75.5,-239 69.44,-223.77 62.88,-206.35 58.16,-193.61"/>
<polygon fill="#63b8ff" stroke="#63b8ff" points="61.41,-192.33 54.67,-184.16 54.85,-194.76 61.41,-192.33"/>
</a>
</g>
</g>
<!-- Node11 -->
<g id="Node000011" class="node">
<title>Node11</title>
<g id="a_Node000011"><a xlink:href="main_8h.html" target="_top" xlink:title=" ">
<polygon fill="white" stroke="#666666" points="1163.5,-184 1113.5,-184 1113.5,-165 1163.5,-165 1163.5,-184"/>
<text text-anchor="middle" x="1138.5" y="-172" font-family="Helvetica,sans-Serif" font-size="10.00">main.h</text>
</a>
</g>
</g>
<!-- Node1&#45;&gt;Node11 -->
<g id="edge18_Node000001_Node000011" class="edge">
<title>Node1&#45;&gt;Node11</title>
<g id="a_edge18_Node000001_Node000011"><a xlink:title=" ">
<path fill="none" stroke="#63b8ff" d="M547.09,-396.12C627.22,-391.31 771.12,-379 890.5,-349 956.14,-332.51 971.54,-323.41 1032.5,-294 1076.1,-272.97 1098.61,-278.56 1126.5,-239 1135.69,-225.96 1138.38,-207.82 1138.94,-194.26"/>
<polygon fill="#63b8ff" stroke="#63b8ff" points="1142.44,-194.19 1139.02,-184.17 1135.44,-194.14 1142.44,-194.19"/>
</a>
</g>
</g>
<!-- Node16 -->
<g id="Node000016" class="node">
<title>Node16</title>
<g id="a_Node000016"><a xlink:href="defines_8h.html" target="_top" xlink:title=" ">
<polygon fill="white" stroke="#666666" points="1117,-239 1056,-239 1056,-220 1117,-220 1117,-239"/>
<text text-anchor="middle" x="1086.5" y="-227" font-family="Helvetica,sans-Serif" font-size="10.00">defines.h</text>
</a>
</g>
</g>
<!-- Node1&#45;&gt;Node16 -->
<g id="edge26_Node000001_Node000016" class="edge">
<title>Node1&#45;&gt;Node16</title>
<g id="a_edge26_Node000001_Node000016"><a xlink:title=" ">
<path fill="none" stroke="#63b8ff" d="M547.27,-395.46C647.26,-387.79 848.95,-364.23 1003.5,-294 1029.66,-282.11 1055.22,-260.63 1070.91,-245.97"/>
<polygon fill="#63b8ff" stroke="#63b8ff" points="1073.37,-248.46 1078.17,-239.02 1068.53,-243.41 1073.37,-248.46"/>
</a>
</g>
</g>
<!-- Node17 -->
<g id="Node000017" class="node">
<title>Node17</title>
<g id="a_Node000017"><a xlink:href="collision_8h.html" target="_top" xlink:title=" ">
<polygon fill="white" stroke="#666666" points="183.5,-294 117.5,-294 117.5,-275 183.5,-275 183.5,-294"/>
<text text-anchor="middle" x="150.5" y="-282" font-family="Helvetica,sans-Serif" font-size="10.00">collision.h</text>
</a>
</g>
</g>
<!-- Node1&#45;&gt;Node17 -->
<g id="edge27_Node000001_Node000017" class="edge">
<title>Node1&#45;&gt;Node17</title>
<g id="a_edge27_Node000001_Node000017"><a xlink:title=" ">
<path fill="none" stroke="#63b8ff" d="M444.09,-384.97C377.59,-362.44 248.17,-318.59 185.79,-297.46"/>
<polygon fill="#63b8ff" stroke="#63b8ff" points="186.61,-294.04 176.02,-294.14 184.36,-300.67 186.61,-294.04"/>
</a>
</g>
</g>
<!-- Node18 -->
<g id="Node000018" class="node">
<title>Node18</title>
<g id="a_Node000018"><a xlink:href="Game_8h.html" target="_top" xlink:title=" ">
<polygon fill="white" stroke="#666666" points="604,-349 527,-349 527,-330 604,-330 604,-349"/>
<text text-anchor="middle" x="565.5" y="-337" font-family="Helvetica,sans-Serif" font-size="10.00">port/Game.h</text>
</a>
</g>
</g>
<!-- Node1&#45;&gt;Node18 -->
<g id="edge29_Node000001_Node000018" class="edge">
<title>Node1&#45;&gt;Node18</title>
<g id="a_edge29_Node000001_Node000018"><a xlink:title=" ">
<path fill="none" stroke="#63b8ff" d="M504.87,-384.84C517.07,-375.91 532.81,-364.41 545.19,-355.35"/>
<polygon fill="#63b8ff" stroke="#63b8ff" points="547.51,-357.99 553.51,-349.27 543.37,-352.34 547.51,-357.99"/>
</a>
</g>
</g>
<!-- Node3 -->
<g id="Node000003" class="node">
<title>Node3</title>
<g id="a_Node000003"><a xlink:href="actor__types_8h.html" target="_top" xlink:title=" ">
<polygon fill="white" stroke="#666666" points="206,-129 123,-129 123,-110 206,-110 206,-129"/>
<text text-anchor="middle" x="164.5" y="-117" font-family="Helvetica,sans-Serif" font-size="10.00">actor_types.h</text>
</a>
</g>
</g>
<!-- Node2&#45;&gt;Node3 -->
<g id="edge2_Node000002_Node000003" class="edge">
<title>Node2&#45;&gt;Node3</title>
<g id="a_edge2_Node000002_Node000003"><a xlink:title=" ">
<path fill="none" stroke="#63b8ff" d="M116.76,-219.66C125.29,-201.93 144.65,-161.73 155.92,-138.32"/>
<polygon fill="#63b8ff" stroke="#63b8ff" points="159.15,-139.69 160.33,-129.16 152.84,-136.65 159.15,-139.69"/>
</a>
</g>
</g>
<!-- Node2&#45;&gt;Node9 -->
<g id="edge10_Node000002_Node000009" class="edge">
<title>Node2&#45;&gt;Node9</title>
<g id="a_edge10_Node000002_Node000009"><a xlink:title=" ">
<path fill="none" stroke="#63b8ff" d="M102.7,-219.98C93.68,-212.15 80.09,-200.34 69.18,-190.86"/>
<polygon fill="#63b8ff" stroke="#63b8ff" points="71.32,-188.09 61.48,-184.17 66.73,-193.37 71.32,-188.09"/>
</a>
</g>
</g>
<!-- Node10 -->
<g id="Node000010" class="node">
<title>Node10</title>
<g id="a_Node000010"><a xlink:href="camera_8h.html" target="_top" xlink:title=" ">
<polygon fill="white" stroke="#666666" points="286.5,-129 224.5,-129 224.5,-110 286.5,-110 286.5,-129"/>
<text text-anchor="middle" x="255.5" y="-117" font-family="Helvetica,sans-Serif" font-size="10.00">camera.h</text>
</a>
</g>
</g>
<!-- Node2&#45;&gt;Node10 -->
<g id="edge17_Node000002_Node000010" class="edge">
<title>Node2&#45;&gt;Node10</title>
<g id="a_edge17_Node000002_Node000010"><a xlink:title=" ">
<path fill="none" stroke="#63b8ff" d="M124.2,-219.66C148.73,-201.14 205.75,-158.08 235.94,-135.28"/>
<polygon fill="#63b8ff" stroke="#63b8ff" points="238.17,-137.98 244.04,-129.16 233.95,-132.39 238.17,-137.98"/>
</a>
</g>
</g>
<!-- Node4 -->
<g id="Node000004" class="node">
<title>Node4</title>
<g id="a_Node000004"><a xlink:title=" ">
<polygon fill="#e0e0e0" stroke="#999999" points="843.5,-19 763.5,-19 763.5,0 843.5,0 843.5,-19"/>
<text text-anchor="middle" x="803.5" y="-7" font-family="Helvetica,sans-Serif" font-size="10.00">libultraship.h</text>
</a>
</g>
</g>
<!-- Node3&#45;&gt;Node4 -->
<g id="edge3_Node000003_Node000004" class="edge">
<title>Node3&#45;&gt;Node4</title>
<g id="a_edge3_Node000003_Node000004"><a xlink:title=" ">
<path fill="none" stroke="#63b8ff" d="M186.07,-109.93C222.03,-96.01 296.77,-68.7 362.5,-55 502.11,-25.91 670.7,-15.61 753.14,-12.15"/>
<polygon fill="#63b8ff" stroke="#63b8ff" points="753.39,-15.64 763.24,-11.74 753.11,-8.65 753.39,-15.64"/>
</a>
</g>
</g>
<!-- Node5 -->
<g id="Node000005" class="node">
<title>Node5</title>
<g id="a_Node000005"><a xlink:href="macros_8h.html" target="_top" xlink:title=" ">
<polygon fill="white" stroke="#666666" points="74.5,-74 12.5,-74 12.5,-55 74.5,-55 74.5,-74"/>
<text text-anchor="middle" x="43.5" y="-62" font-family="Helvetica,sans-Serif" font-size="10.00">macros.h</text>
</a>
</g>
</g>
<!-- Node3&#45;&gt;Node5 -->
<g id="edge4_Node000003_Node000005" class="edge">
<title>Node3&#45;&gt;Node5</title>
<g id="a_edge4_Node000003_Node000005"><a xlink:title=" ">
<path fill="none" stroke="#63b8ff" d="M145.06,-109.98C125.51,-101.42 95.12,-88.11 72.68,-78.28"/>
<polygon fill="#63b8ff" stroke="#63b8ff" points="73.86,-74.98 63.29,-74.17 71.05,-81.39 73.86,-74.98"/>
</a>
</g>
</g>
<!-- Node7 -->
<g id="Node000007" class="node">
<title>Node7</title>
<g id="a_Node000007"><a xlink:href="common__structs_8h.html" target="_top" xlink:title=" ">
<polygon fill="white" stroke="#666666" points="546,-74 439,-74 439,-55 546,-55 546,-74"/>
<text text-anchor="middle" x="492.5" y="-62" font-family="Helvetica,sans-Serif" font-size="10.00">common_structs.h</text>
</a>
</g>
</g>
<!-- Node3&#45;&gt;Node7 -->
<g id="edge7_Node000003_Node000007" class="edge">
<title>Node3&#45;&gt;Node7</title>
<g id="a_edge7_Node000003_Node000007"><a xlink:title=" ">
<path fill="none" stroke="#63b8ff" d="M206.25,-111.52C209.38,-111 212.49,-110.49 215.5,-110 288.58,-98.04 372.56,-84.59 428.71,-75.64"/>
<polygon fill="#63b8ff" stroke="#63b8ff" points="429.54,-79.05 438.86,-74.02 428.44,-72.14 429.54,-79.05"/>
</a>
</g>
</g>
<!-- Node8 -->
<g id="Node000008" class="node">
<title>Node8</title>
<g id="a_Node000008"><a xlink:title=" ">
<polygon fill="#e0e0e0" stroke="#999999" points="192.5,-74 136.5,-74 136.5,-55 192.5,-55 192.5,-74"/>
<text text-anchor="middle" x="164.5" y="-62" font-family="Helvetica,sans-Serif" font-size="10.00">assert.h</text>
</a>
</g>
</g>
<!-- Node3&#45;&gt;Node8 -->
<g id="edge9_Node000003_Node000008" class="edge">
<title>Node3&#45;&gt;Node8</title>
<g id="a_edge9_Node000003_Node000008"><a xlink:title=" ">
<path fill="none" stroke="#63b8ff" d="M164.5,-109.75C164.5,-102.8 164.5,-92.85 164.5,-84.13"/>
<polygon fill="#63b8ff" stroke="#63b8ff" points="168,-84.09 164.5,-74.09 161,-84.09 168,-84.09"/>
</a>
</g>
</g>
<!-- Node5&#45;&gt;Node4 -->
<g id="edge6_Node000005_Node000004" class="edge">
<title>Node5&#45;&gt;Node4</title>
<g id="a_edge6_Node000005_Node000004"><a xlink:title=" ">
<path fill="none" stroke="#63b8ff" d="M74.89,-57.05C79.44,-56.27 84.08,-55.55 88.5,-55 336.78,-23.95 636.39,-14.22 753.33,-11.48"/>
<polygon fill="#63b8ff" stroke="#63b8ff" points="753.5,-14.97 763.42,-11.25 753.34,-7.98 753.5,-14.97"/>
</a>
</g>
</g>
<!-- Node6 -->
<g id="Node000006" class="node">
<title>Node6</title>
<g id="a_Node000006"><a xlink:href="math_8h.html" target="_top" xlink:title=" ">
<polygon fill="white" stroke="#666666" points="69,-19 18,-19 18,0 69,0 69,-19"/>
<text text-anchor="middle" x="43.5" y="-7" font-family="Helvetica,sans-Serif" font-size="10.00">math.h</text>
</a>
</g>
</g>
<!-- Node5&#45;&gt;Node6 -->
<g id="edge5_Node000005_Node000006" class="edge">
<title>Node5&#45;&gt;Node6</title>
<g id="a_edge5_Node000005_Node000006"><a xlink:title=" ">
<path fill="none" stroke="#63b8ff" d="M43.5,-54.75C43.5,-47.8 43.5,-37.85 43.5,-29.13"/>
<polygon fill="#63b8ff" stroke="#63b8ff" points="47,-29.09 43.5,-19.09 40,-29.09 47,-29.09"/>
</a>
</g>
</g>
<!-- Node7&#45;&gt;Node4 -->
<g id="edge8_Node000007_Node000004" class="edge">
<title>Node7&#45;&gt;Node4</title>
<g id="a_edge8_Node000007_Node000004"><a xlink:title=" ">
<path fill="none" stroke="#63b8ff" d="M542.47,-54.98C600.29,-45.13 694.99,-28.99 753.03,-19.1"/>
<polygon fill="#63b8ff" stroke="#63b8ff" points="753.8,-22.52 763.07,-17.39 752.62,-15.62 753.8,-22.52"/>
</a>
</g>
</g>
<!-- Node9&#45;&gt;Node3 -->
<g id="edge13_Node000009_Node000003" class="edge">
<title>Node9&#45;&gt;Node3</title>
<g id="a_edge13_Node000009_Node000003"><a xlink:title=" ">
<path fill="none" stroke="#63b8ff" d="M69.66,-164.98C87.75,-156.5 115.78,-143.35 136.69,-133.54"/>
<polygon fill="#63b8ff" stroke="#63b8ff" points="138.45,-136.59 146.01,-129.17 135.47,-130.25 138.45,-136.59"/>
</a>
</g>
</g>
<!-- Node9&#45;&gt;Node4 -->
<g id="edge12_Node000009_Node000004" class="edge">
<title>Node9&#45;&gt;Node4</title>
<g id="a_edge12_Node000009_Node000004"><a xlink:title=" ">
<path fill="none" stroke="#63b8ff" d="M54,-164.96C61.13,-142.32 83.93,-80.71 127.5,-55 180.92,-23.48 605.26,-13.69 753,-11.22"/>
<polygon fill="#63b8ff" stroke="#63b8ff" points="753.21,-14.72 763.15,-11.06 753.1,-7.72 753.21,-14.72"/>
</a>
</g>
</g>
<!-- Node9&#45;&gt;Node5 -->
<g id="edge11_Node000009_Node000005" class="edge">
<title>Node9&#45;&gt;Node5</title>
<g id="a_edge11_Node000009_Node000005"><a xlink:title=" ">
<path fill="none" stroke="#63b8ff" d="M50.85,-164.66C49.55,-147.17 46.63,-107.8 44.89,-84.27"/>
<polygon fill="#63b8ff" stroke="#63b8ff" points="48.37,-83.87 44.14,-74.16 41.39,-84.39 48.37,-83.87"/>
</a>
</g>
</g>
<!-- Node9&#45;&gt;Node10 -->
<g id="edge14_Node000009_Node000010" class="edge">
<title>Node9&#45;&gt;Node10</title>
<g id="a_edge14_Node000009_Node000010"><a xlink:title=" ">
<path fill="none" stroke="#63b8ff" d="M84.28,-164.98C119.74,-155.77 176.34,-141.07 214.67,-131.11"/>
<polygon fill="#63b8ff" stroke="#63b8ff" points="215.68,-134.46 224.48,-128.56 213.92,-127.69 215.68,-134.46"/>
</a>
</g>
</g>
<!-- Node10&#45;&gt;Node4 -->
<g id="edge15_Node000010_Node000004" class="edge">
<title>Node10&#45;&gt;Node4</title>
<g id="a_edge15_Node000010_Node000004"><a xlink:title=" ">
<path fill="none" stroke="#63b8ff" d="M274.48,-109.97C306.13,-96.13 372.01,-68.9 430.5,-55 543.89,-28.04 680.74,-17.04 753.04,-12.85"/>
<polygon fill="#63b8ff" stroke="#63b8ff" points="753.44,-16.33 763.23,-12.28 753.05,-9.34 753.44,-16.33"/>
</a>
</g>
</g>
<!-- Node10&#45;&gt;Node7 -->
<g id="edge16_Node000010_Node000007" class="edge">
<title>Node10&#45;&gt;Node7</title>
<g id="a_edge16_Node000010_Node000007"><a xlink:title=" ">
<path fill="none" stroke="#63b8ff" d="M286.97,-111.46C327.21,-102.46 397.28,-86.79 444.27,-76.29"/>
<polygon fill="#63b8ff" stroke="#63b8ff" points="445.23,-79.66 454.22,-74.06 443.7,-72.83 445.23,-79.66"/>
</a>
</g>
</g>
<!-- Node11&#45;&gt;Node7 -->
<g id="edge24_Node000011_Node000007" class="edge">
<title>Node11&#45;&gt;Node7</title>
<g id="a_edge24_Node000011_Node000007"><a xlink:title=" ">
<path fill="none" stroke="#63b8ff" d="M1113.43,-173.05C1044,-171.38 843.64,-163.66 681.5,-129 623.79,-116.66 559.13,-92.6 522.37,-77.9"/>
<polygon fill="#63b8ff" stroke="#63b8ff" points="523.35,-74.52 512.77,-74.02 520.73,-81.01 523.35,-74.52"/>
</a>
</g>
</g>
<!-- Node12 -->
<g id="Node000012" class="node">
<title>Node12</title>
<g id="a_Node000012"><a xlink:href="mk64_8h.html" target="_top" xlink:title=" ">
<polygon fill="white" stroke="#666666" points="1184,-129 1131,-129 1131,-110 1184,-110 1184,-129"/>
<text text-anchor="middle" x="1157.5" y="-117" font-family="Helvetica,sans-Serif" font-size="10.00">mk64.h</text>
</a>
</g>
</g>
<!-- Node11&#45;&gt;Node12 -->
<g id="edge19_Node000011_Node000012" class="edge">
<title>Node11&#45;&gt;Node12</title>
<g id="a_edge19_Node000011_Node000012"><a xlink:title=" ">
<path fill="none" stroke="#63b8ff" d="M1141.64,-164.75C1144.18,-157.65 1147.86,-147.4 1151.03,-138.56"/>
<polygon fill="#63b8ff" stroke="#63b8ff" points="1154.34,-139.68 1154.42,-129.09 1147.75,-137.32 1154.34,-139.68"/>
</a>
</g>
</g>
<!-- Node12&#45;&gt;Node4 -->
<g id="edge20_Node000012_Node000004" class="edge">
<title>Node12&#45;&gt;Node4</title>
<g id="a_edge20_Node000012_Node000004"><a xlink:title=" ">
<path fill="none" stroke="#63b8ff" d="M1147.4,-109.94C1130.43,-96.05 1094.61,-68.76 1059.5,-55 991.38,-28.3 906.82,-17.57 854,-13.29"/>
<polygon fill="#63b8ff" stroke="#63b8ff" points="854.1,-9.79 843.87,-12.52 853.57,-16.77 854.1,-9.79"/>
</a>
</g>
</g>
<!-- Node13 -->
<g id="Node000013" class="node">
<title>Node13</title>
<g id="a_Node000013"><a xlink:href="string_8h.html" target="_top" xlink:title=" ">
<polygon fill="white" stroke="#666666" points="1160,-74 1107,-74 1107,-55 1160,-55 1160,-74"/>
<text text-anchor="middle" x="1133.5" y="-62" font-family="Helvetica,sans-Serif" font-size="10.00">string.h</text>
</a>
</g>
</g>
<!-- Node12&#45;&gt;Node13 -->
<g id="edge21_Node000012_Node000013" class="edge">
<title>Node12&#45;&gt;Node13</title>
<g id="a_edge21_Node000012_Node000013"><a xlink:title=" ">
<path fill="none" stroke="#63b8ff" d="M1153.54,-109.75C1150.29,-102.57 1145.58,-92.18 1141.55,-83.27"/>
<polygon fill="#63b8ff" stroke="#63b8ff" points="1144.7,-81.75 1137.39,-74.09 1138.33,-84.64 1144.7,-81.75"/>
</a>
</g>
</g>
<!-- Node15 -->
<g id="Node000015" class="node">
<title>Node15</title>
<g id="a_Node000015"><a xlink:title=" ">
<polygon fill="#e0e0e0" stroke="#999999" points="1050.5,-74 972.5,-74 972.5,-55 1050.5,-55 1050.5,-74"/>
<text text-anchor="middle" x="1011.5" y="-62" font-family="Helvetica,sans-Serif" font-size="10.00">libultra/gbi.h</text>
</a>
</g>
</g>
<!-- Node12&#45;&gt;Node15 -->
<g id="edge23_Node000012_Node000015" class="edge">
<title>Node12&#45;&gt;Node15</title>
<g id="a_edge23_Node000012_Node000015"><a xlink:title=" ">
<path fill="none" stroke="#63b8ff" d="M1134.04,-109.98C1109.92,-101.23 1072.13,-87.51 1044.9,-77.62"/>
<polygon fill="#63b8ff" stroke="#63b8ff" points="1045.98,-74.29 1035.38,-74.17 1043.59,-80.87 1045.98,-74.29"/>
</a>
</g>
</g>
<!-- Node14 -->
<g id="Node000014" class="node">
<title>Node14</title>
<g id="a_Node000014"><a xlink:title=" ">
<polygon fill="#e0e0e0" stroke="#999999" points="1311.5,-19 1221.5,-19 1221.5,0 1311.5,0 1311.5,-19"/>
<text text-anchor="middle" x="1266.5" y="-7" font-family="Helvetica,sans-Serif" font-size="10.00">libultra/types.h</text>
</a>
</g>
</g>
<!-- Node13&#45;&gt;Node14 -->
<g id="edge22_Node000013_Node000014" class="edge">
<title>Node13&#45;&gt;Node14</title>
<g id="a_edge22_Node000013_Node000014"><a xlink:title=" ">
<path fill="none" stroke="#63b8ff" d="M1154.87,-54.98C1176.65,-46.3 1210.66,-32.75 1235.42,-22.88"/>
<polygon fill="#63b8ff" stroke="#63b8ff" points="1236.75,-26.12 1244.74,-19.17 1234.16,-19.62 1236.75,-26.12"/>
</a>
</g>
</g>
<!-- Node17&#45;&gt;Node7 -->
<g id="edge28_Node000017_Node000007" class="edge">
<title>Node17&#45;&gt;Node7</title>
<g id="a_edge28_Node000017_Node000007"><a xlink:title=" ">
<path fill="none" stroke="#63b8ff" d="M160.88,-274.65C193.13,-247.48 295.05,-163.81 389.5,-110 411.75,-97.32 438.32,-85.93 458.9,-77.84"/>
<polygon fill="#63b8ff" stroke="#63b8ff" points="460.4,-81.01 468.47,-74.15 457.88,-74.48 460.4,-81.01"/>
</a>
</g>
</g>
<!-- Node18&#45;&gt;Node3 -->
<g id="edge76_Node000018_Node000003" class="edge">
<title>Node18&#45;&gt;Node3</title>
<g id="a_edge76_Node000018_Node000003"><a xlink:title=" ">
<path fill="none" stroke="#63b8ff" d="M526.6,-336.45C480.14,-332.76 401.01,-322.48 339.5,-294 262.52,-258.35 199.81,-173.84 175.44,-137.55"/>
<polygon fill="#63b8ff" stroke="#63b8ff" points="178.26,-135.47 169.84,-129.04 172.41,-139.32 178.26,-135.47"/>
</a>
</g>
</g>
<!-- Node18&#45;&gt;Node4 -->
<g id="edge30_Node000018_Node000004" class="edge">
<title>Node18&#45;&gt;Node4</title>
<g id="a_edge30_Node000018_Node000004"><a xlink:title=" ">
<path fill="none" stroke="#63b8ff" d="M604.09,-335.45C772.85,-321.59 1437.5,-261.55 1437.5,-175.5 1437.5,-175.5 1437.5,-175.5 1437.5,-118.5 1437.5,-66.97 1389.23,-71.75 1340.5,-55 1251.3,-24.33 969.4,-14.37 853.75,-11.52"/>
<polygon fill="#63b8ff" stroke="#63b8ff" points="853.82,-8.02 843.74,-11.28 853.66,-15.02 853.82,-8.02"/>
</a>
</g>
</g>
<!-- Node18&#45;&gt;Node10 -->
<g id="edge75_Node000018_Node000010" class="edge">
<title>Node18&#45;&gt;Node10</title>
<g id="a_edge75_Node000018_Node000010"><a xlink:title=" ">
<path fill="none" stroke="#63b8ff" d="M526.59,-333.66C468.58,-324.61 358.82,-300.16 289.5,-239 260.84,-213.71 255.62,-166.04 255.08,-139.52"/>
<polygon fill="#63b8ff" stroke="#63b8ff" points="258.58,-139.28 255.09,-129.28 251.58,-139.28 258.58,-139.28"/>
</a>
</g>
</g>
<!-- Node19 -->
<g id="Node000019" class="node">
<title>Node19</title>
<g id="a_Node000019"><a xlink:href="Course_8h.html" target="_top" xlink:title=" ">
<polygon fill="white" stroke="#666666" points="713.5,-294 577.5,-294 577.5,-275 713.5,-275 713.5,-294"/>
<text text-anchor="middle" x="645.5" y="-282" font-family="Helvetica,sans-Serif" font-size="10.00">engine/courses/Course.h</text>
</a>
</g>
</g>
<!-- Node18&#45;&gt;Node19 -->
<g id="edge31_Node000018_Node000019" class="edge">
<title>Node18&#45;&gt;Node19</title>
<g id="a_edge31_Node000018_Node000019"><a xlink:title=" ">
<path fill="none" stroke="#63b8ff" d="M578.35,-329.98C590.64,-321.84 609.41,-309.41 623.98,-299.76"/>
<polygon fill="#63b8ff" stroke="#63b8ff" points="626.01,-302.61 632.41,-294.17 622.14,-296.78 626.01,-302.61"/>
</a>
</g>
</g>
<!-- Node34 -->
<g id="Node000034" class="node">
<title>Node34</title>
<g id="a_Node000034"><a xlink:href="HM__Intro_8h.html" target="_top" xlink:title=" ">
<polygon fill="white" stroke="#666666" points="888.5,-129 782.5,-129 782.5,-110 888.5,-110 888.5,-129"/>
<text text-anchor="middle" x="835.5" y="-117" font-family="Helvetica,sans-Serif" font-size="10.00">engine/HM_Intro.h</text>
</a>
</g>
</g>
<!-- Node18&#45;&gt;Node34 -->
<g id="edge70_Node000018_Node000034" class="edge">
<title>Node18&#45;&gt;Node34</title>
<g id="a_edge70_Node000018_Node000034"><a xlink:title=" ">
<path fill="none" stroke="#63b8ff" d="M604.26,-334.49C693.76,-324.36 910.44,-294.49 953.5,-239 986.25,-196.79 910.96,-154.04 866.02,-133.33"/>
<polygon fill="#63b8ff" stroke="#63b8ff" points="867.23,-130.04 856.68,-129.14 864.37,-136.43 867.23,-130.04"/>
</a>
</g>
</g>
<!-- Node19&#45;&gt;Node7 -->
<g id="edge69_Node000019_Node000007" class="edge">
<title>Node19&#45;&gt;Node7</title>
<g id="a_edge69_Node000019_Node000007"><a xlink:title=" ">
<path fill="none" stroke="#63b8ff" d="M577.4,-283.34C498.03,-281.54 373.97,-273.14 344.5,-239 309.94,-198.95 270.93,-244.42 411.5,-110 425.52,-96.59 444.37,-85.92 460.35,-78.4"/>
<polygon fill="#63b8ff" stroke="#63b8ff" points="462.18,-81.41 469.86,-74.12 459.31,-75.03 462.18,-81.41"/>
</a>
</g>
</g>
<!-- Node19&#45;&gt;Node10 -->
<g id="edge35_Node000019_Node000010" class="edge">
<title>Node19&#45;&gt;Node10</title>
<g id="a_edge35_Node000019_Node000010"><a xlink:title=" ">
<path fill="none" stroke="#63b8ff" d="M577.3,-281.97C492.13,-278.79 352.6,-269.02 311.5,-239 278.38,-214.81 264.14,-165.94 258.61,-139.13"/>
<polygon fill="#63b8ff" stroke="#63b8ff" points="262.02,-138.32 256.74,-129.13 255.14,-139.6 262.02,-138.32"/>
</a>
</g>
</g>
<!-- Node19&#45;&gt;Node16 -->
<g id="edge53_Node000019_Node000016" class="edge">
<title>Node19&#45;&gt;Node16</title>
<g id="a_edge53_Node000019_Node000016"><a xlink:title=" ">
<path fill="none" stroke="#63b8ff" d="M713.67,-277.4C792.74,-269.97 926.91,-256.24 1041.5,-239 1042.78,-238.81 1044.08,-238.6 1045.4,-238.39"/>
<polygon fill="#63b8ff" stroke="#63b8ff" points="1046.3,-241.79 1055.57,-236.66 1045.12,-234.89 1046.3,-241.79"/>
</a>
</g>
</g>
<!-- Node20 -->
<g id="Node000020" class="node">
<title>Node20</title>
<g id="a_Node000020"><a xlink:title=" ">
<polygon fill="#e0e0e0" stroke="#999999" points="491.5,-239 353.5,-239 353.5,-220 491.5,-220 491.5,-239"/>
<text text-anchor="middle" x="422.5" y="-227" font-family="Helvetica,sans-Serif" font-size="10.00">libultraship/libultraship.h</text>
</a>
</g>
</g>
<!-- Node19&#45;&gt;Node20 -->
<g id="edge32_Node000019_Node000020" class="edge">
<title>Node19&#45;&gt;Node20</title>
<g id="a_edge32_Node000019_Node000020"><a xlink:title=" ">
<path fill="none" stroke="#63b8ff" d="M609.67,-274.98C571.34,-265.87 510.42,-251.4 468.55,-241.45"/>
<polygon fill="#63b8ff" stroke="#63b8ff" points="469.15,-237.99 458.61,-239.08 467.53,-244.8 469.15,-237.99"/>
</a>
</g>
</g>
<!-- Node21 -->
<g id="Node000021" class="node">
<title>Node21</title>
<g id="a_Node000021"><a xlink:href="CoreMath_8h.html" target="_top" xlink:title=" ">
<polygon fill="white" stroke="#666666" points="807,-74 734,-74 734,-55 807,-55 807,-74"/>
<text text-anchor="middle" x="770.5" y="-62" font-family="Helvetica,sans-Serif" font-size="10.00">CoreMath.h</text>
</a>
</g>
</g>
<!-- Node19&#45;&gt;Node21 -->
<g id="edge33_Node000019_Node000021" class="edge">
<title>Node19&#45;&gt;Node21</title>
<g id="a_edge33_Node000019_Node000021"><a xlink:title=" ">
<path fill="none" stroke="#63b8ff" d="M713.82,-282.75C789.61,-280.3 904.9,-271.21 932.5,-239 976.51,-187.63 958.53,-212.41 839.5,-165 772.59,-138.35 726.42,-185.3 681.5,-129 663.48,-106.41 698.37,-88.23 729.61,-77.2"/>
<polygon fill="#63b8ff" stroke="#63b8ff" points="730.76,-80.51 739.13,-74.02 728.54,-73.87 730.76,-80.51"/>
</a>
</g>
</g>
<!-- Node22 -->
<g id="Node000022" class="node">
<title>Node22</title>
<g id="a_Node000022"><a xlink:href="course__offsets_8h.html" target="_top" xlink:title=" ">
<polygon fill="white" stroke="#666666" points="1315.5,-184 1219.5,-184 1219.5,-165 1315.5,-165 1315.5,-184"/>
<text text-anchor="middle" x="1267.5" y="-172" font-family="Helvetica,sans-Serif" font-size="10.00">course_offsets.h</text>
</a>
</g>
</g>
<!-- Node19&#45;&gt;Node22 -->
<g id="edge36_Node000019_Node000022" class="edge">
<title>Node19&#45;&gt;Node22</title>
<g id="a_edge36_Node000019_Node000022"><a xlink:title=" ">
<path fill="none" stroke="#63b8ff" d="M713.52,-275.83C778.49,-268.09 879.05,-254.99 965.5,-239 1002.29,-232.19 1010.94,-227.93 1047.5,-220 1104.03,-207.74 1168.97,-194.73 1213.56,-185.97"/>
<polygon fill="#63b8ff" stroke="#63b8ff" points="1214.46,-189.36 1223.6,-184 1213.11,-182.49 1214.46,-189.36"/>
</a>
</g>
</g>
<!-- Node26 -->
<g id="Node000026" class="node">
<title>Node26</title>
<g id="a_Node000026"><a xlink:href="src_2data_2some__data_8h.html" target="_top" xlink:title=" ">
<polygon fill="white" stroke="#666666" points="923.5,-239 819.5,-239 819.5,-220 923.5,-220 923.5,-239"/>
<text text-anchor="middle" x="871.5" y="-227" font-family="Helvetica,sans-Serif" font-size="10.00">data/some_data.h</text>
</a>
</g>
</g>
<!-- Node19&#45;&gt;Node26 -->
<g id="edge45_Node000019_Node000026" class="edge">
<title>Node19&#45;&gt;Node26</title>
<g id="a_edge45_Node000019_Node000026"><a xlink:title=" ">
<path fill="none" stroke="#63b8ff" d="M681.81,-274.98C720.74,-265.86 782.66,-251.33 825.1,-241.38"/>
<polygon fill="#63b8ff" stroke="#63b8ff" points="825.97,-244.77 834.9,-239.08 824.37,-237.96 825.97,-244.77"/>
</a>
</g>
</g>
<!-- Node29 -->
<g id="Node000029" class="node">
<title>Node29</title>
<g id="a_Node000029"><a xlink:href="bomb__kart_8h.html" target="_top" xlink:title=" ">
<polygon fill="white" stroke="#666666" points="726,-184 649,-184 649,-165 726,-165 726,-184"/>
<text text-anchor="middle" x="687.5" y="-172" font-family="Helvetica,sans-Serif" font-size="10.00">bomb_kart.h</text>
</a>
</g>
</g>
<!-- Node19&#45;&gt;Node29 -->
<g id="edge54_Node000019_Node000029" class="edge">
<title>Node19&#45;&gt;Node29</title>
<g id="a_edge54_Node000019_Node000029"><a xlink:title=" ">
<path fill="none" stroke="#63b8ff" d="M713.78,-275.48C736.2,-269.23 758.85,-258.25 772.5,-239 788.49,-216.46 756.54,-198.53 727.35,-187.54"/>
<polygon fill="#63b8ff" stroke="#63b8ff" points="728.22,-184.14 717.63,-184.09 725.88,-190.74 728.22,-184.14"/>
</a>
</g>
</g>
<!-- Node30 -->
<g id="Node000030" class="node">
<title>Node30</title>
<g id="a_Node000030"><a xlink:href="path__spawn__metadata_8h.html" target="_top" xlink:title=" ">
<polygon fill="white" stroke="#666666" points="763,-239 626,-239 626,-220 763,-220 763,-239"/>
<text text-anchor="middle" x="694.5" y="-227" font-family="Helvetica,sans-Serif" font-size="10.00">path_spawn_metadata.h</text>
</a>
</g>
</g>
<!-- Node19&#45;&gt;Node30 -->
<g id="edge57_Node000019_Node000030" class="edge">
<title>Node19&#45;&gt;Node30</title>
<g id="a_edge57_Node000019_Node000030"><a xlink:title=" ">
<path fill="none" stroke="#63b8ff" d="M653.59,-274.75C660.66,-267.11 671.09,-255.82 679.65,-246.56"/>
<polygon fill="#63b8ff" stroke="#63b8ff" points="682.34,-248.81 686.56,-239.09 677.2,-244.06 682.34,-248.81"/>
</a>
</g>
</g>
<!-- Node31 -->
<g id="Node000031" class="node">
<title>Node31</title>
<g id="a_Node000031"><a xlink:href="waypoints_8h.html" target="_top" xlink:title=" ">
<polygon fill="white" stroke="#666666" points="463.5,-184 387.5,-184 387.5,-165 463.5,-165 463.5,-184"/>
<text text-anchor="middle" x="425.5" y="-172" font-family="Helvetica,sans-Serif" font-size="10.00">waypoints.h</text>
</a>
</g>
</g>
<!-- Node19&#45;&gt;Node31 -->
<g id="edge67_Node000019_Node000031" class="edge">
<title>Node19&#45;&gt;Node31</title>
<g id="a_edge67_Node000019_Node000031"><a xlink:title=" ">
<path fill="none" stroke="#63b8ff" d="M638.65,-274.74C627.5,-261.06 604.08,-234.67 578.5,-220 545.91,-201.31 504.84,-189.92 473.46,-183.36"/>
<polygon fill="#63b8ff" stroke="#63b8ff" points="474.13,-179.92 463.64,-181.39 472.76,-186.78 474.13,-179.92"/>
</a>
</g>
</g>
<!-- Node33 -->
<g id="Node000033" class="node">
<title>Node33</title>
<g id="a_Node000033"><a xlink:href="sounds_8h.html" target="_top" xlink:title=" ">
<polygon fill="white" stroke="#666666" points="569.5,-239 509.5,-239 509.5,-220 569.5,-220 569.5,-239"/>
<text text-anchor="middle" x="539.5" y="-227" font-family="Helvetica,sans-Serif" font-size="10.00">sounds.h</text>
</a>
</g>
</g>
<!-- Node19&#45;&gt;Node33 -->
<g id="edge68_Node000019_Node000033" class="edge">
<title>Node19&#45;&gt;Node33</title>
<g id="a_edge68_Node000019_Node000033"><a xlink:title=" ">
<path fill="none" stroke="#63b8ff" d="M628.47,-274.98C611.57,-266.54 585.44,-253.47 565.86,-243.68"/>
<polygon fill="#63b8ff" stroke="#63b8ff" points="567.35,-240.51 556.84,-239.17 564.22,-246.77 567.35,-240.51"/>
</a>
</g>
</g>
<!-- Node21&#45;&gt;Node4 -->
<g id="edge34_Node000021_Node000004" class="edge">
<title>Node21&#45;&gt;Node4</title>
<g id="a_edge34_Node000021_Node000004"><a xlink:title=" ">
<path fill="none" stroke="#63b8ff" d="M775.95,-54.75C780.51,-47.42 787.17,-36.73 792.79,-27.7"/>
<polygon fill="#63b8ff" stroke="#63b8ff" points="795.84,-29.43 798.15,-19.09 789.9,-25.73 795.84,-29.43"/>
</a>
</g>
</g>
<!-- Node22&#45;&gt;Node4 -->
<g id="edge37_Node000022_Node000004" class="edge">
<title>Node22&#45;&gt;Node4</title>
<g id="a_edge37_Node000022_Node000004"><a xlink:title=" ">
<path fill="none" stroke="#63b8ff" d="M1295.15,-164.98C1312.08,-158.17 1332.39,-146.76 1342.5,-129 1355.85,-105.55 1329.66,-61.79 1320.5,-55 1283.59,-27.63 977.05,-15.62 854.16,-11.87"/>
<polygon fill="#63b8ff" stroke="#63b8ff" points="854,-8.37 843.9,-11.57 853.79,-15.36 854,-8.37"/>
</a>
</g>
</g>
<!-- Node22&#45;&gt;Node14 -->
<g id="edge38_Node000022_Node000014" class="edge">
<title>Node22&#45;&gt;Node14</title>
<g id="a_edge38_Node000022_Node000014"><a xlink:title=" ">
<path fill="none" stroke="#63b8ff" d="M1315.65,-166.14C1337.79,-160.08 1362.07,-149.05 1375.5,-129 1393.8,-101.67 1393.84,-82.3 1375.5,-55 1363.2,-36.69 1341.9,-25.91 1321.38,-19.57"/>
<polygon fill="#63b8ff" stroke="#63b8ff" points="1322.29,-16.19 1311.72,-16.87 1320.41,-22.93 1322.29,-16.19"/>
</a>
</g>
</g>
<!-- Node22&#45;&gt;Node15 -->
<g id="edge39_Node000022_Node000015" class="edge">
<title>Node22&#45;&gt;Node15</title>
<g id="a_edge39_Node000022_Node000015"><a xlink:title=" ">
<path fill="none" stroke="#63b8ff" d="M1231.85,-164.93C1202.01,-157.19 1158.62,-144.65 1122.5,-129 1089.88,-114.87 1054.64,-93.57 1032.82,-79.6"/>
<polygon fill="#63b8ff" stroke="#63b8ff" points="1034.63,-76.61 1024.34,-74.11 1030.82,-82.48 1034.63,-76.61"/>
</a>
</g>
</g>
<!-- Node23 -->
<g id="Node000023" class="node">
<title>Node23</title>
<g id="a_Node000023"><a xlink:href="other__textures_8h.html" target="_top" xlink:title=" ">
<polygon fill="white" stroke="#666666" points="1333,-129 1202,-129 1202,-110 1333,-110 1333,-129"/>
<text text-anchor="middle" x="1267.5" y="-117" font-family="Helvetica,sans-Serif" font-size="10.00">assets/other_textures.h</text>
</a>
</g>
</g>
<!-- Node22&#45;&gt;Node23 -->
<g id="edge40_Node000022_Node000023" class="edge">
<title>Node22&#45;&gt;Node23</title>
<g id="a_edge40_Node000022_Node000023"><a xlink:title=" ">
<path fill="none" stroke="#63b8ff" d="M1267.5,-164.75C1267.5,-157.8 1267.5,-147.85 1267.5,-139.13"/>
<polygon fill="#63b8ff" stroke="#63b8ff" points="1271,-139.09 1267.5,-129.09 1264,-139.09 1271,-139.09"/>
</a>
</g>
</g>
<!-- Node25 -->
<g id="Node000025" class="node">
<title>Node25</title>
<g id="a_Node000025"><a xlink:href="animation_8h.html" target="_top" xlink:title=" ">
<polygon fill="white" stroke="#666666" points="765,-129 690,-129 690,-110 765,-110 765,-129"/>
<text text-anchor="middle" x="727.5" y="-117" font-family="Helvetica,sans-Serif" font-size="10.00">animation.h</text>
</a>
</g>
</g>
<!-- Node22&#45;&gt;Node25 -->
<g id="edge43_Node000022_Node000025" class="edge">
<title>Node22&#45;&gt;Node25</title>
<g id="a_edge43_Node000022_Node000025"><a xlink:title=" ">
<path fill="none" stroke="#63b8ff" d="M1219.4,-169.2C1106.87,-159.12 832.1,-134.51 775.1,-128.82"/>
<polygon fill="#63b8ff" stroke="#63b8ff" points="775.43,-125.33 765.11,-127.74 774.68,-132.29 775.43,-125.33"/>
</a>
</g>
</g>
<!-- Node23&#45;&gt;Node4 -->
<g id="edge41_Node000023_Node000004" class="edge">
<title>Node23&#45;&gt;Node4</title>
<g id="a_edge41_Node000023_Node000004"><a xlink:title=" ">
<path fill="none" stroke="#63b8ff" d="M1278.92,-109.94C1294.86,-97 1320.18,-72.13 1304.5,-55 1274.46,-22.18 974.71,-13.41 853.73,-11.2"/>
<polygon fill="#63b8ff" stroke="#63b8ff" points="853.68,-7.7 843.62,-11.02 853.56,-14.7 853.68,-7.7"/>
</a>
</g>
</g>
<!-- Node24 -->
<g id="Node000024" class="node">
<title>Node24</title>
<g id="a_Node000024"><a xlink:href="align__asset__macro_8h.html" target="_top" xlink:title=" ">
<polygon fill="white" stroke="#666666" points="1295,-74 1178,-74 1178,-55 1295,-55 1295,-74"/>
<text text-anchor="middle" x="1236.5" y="-62" font-family="Helvetica,sans-Serif" font-size="10.00">align_asset_macro.h</text>
</a>
</g>
</g>
<!-- Node23&#45;&gt;Node24 -->
<g id="edge42_Node000023_Node000024" class="edge">
<title>Node23&#45;&gt;Node24</title>
<g id="a_edge42_Node000023_Node000024"><a xlink:title=" ">
<path fill="none" stroke="#63b8ff" d="M1262.38,-109.75C1258.14,-102.49 1251.97,-91.95 1246.72,-82.98"/>
<polygon fill="#63b8ff" stroke="#63b8ff" points="1249.59,-80.95 1241.52,-74.09 1243.55,-84.49 1249.59,-80.95"/>
</a>
</g>
</g>
<!-- Node25&#45;&gt;Node7 -->
<g id="edge44_Node000025_Node000007" class="edge">
<title>Node25&#45;&gt;Node7</title>
<g id="a_edge44_Node000025_Node000007"><a xlink:title=" ">
<path fill="none" stroke="#63b8ff" d="M689.74,-109.98C649.18,-100.84 584.61,-86.27 540.47,-76.32"/>
<polygon fill="#63b8ff" stroke="#63b8ff" points="541.08,-72.87 530.55,-74.08 539.54,-79.7 541.08,-72.87"/>
</a>
</g>
</g>
<!-- Node26&#45;&gt;Node15 -->
<g id="edge46_Node000026_Node000015" class="edge">
<title>Node26&#45;&gt;Node15</title>
<g id="a_edge46_Node000026_Node000015"><a xlink:title=" ">
<path fill="none" stroke="#63b8ff" d="M906.43,-219.9C948.04,-207.58 1015.64,-180.47 1045.5,-129 1054.75,-113.06 1042.07,-94.42 1029.66,-81.48"/>
<polygon fill="#63b8ff" stroke="#63b8ff" points="1031.78,-78.66 1022.16,-74.23 1026.92,-83.7 1031.78,-78.66"/>
</a>
</g>
</g>
<!-- Node26&#45;&gt;Node23 -->
<g id="edge49_Node000026_Node000023" class="edge">
<title>Node26&#45;&gt;Node23</title>
<g id="a_edge49_Node000026_Node000023"><a xlink:title=" ">
<path fill="none" stroke="#63b8ff" d="M923.61,-223.58C997.35,-216.16 1128.14,-201.1 1172.5,-184 1202.09,-172.59 1231.76,-150.67 1249.88,-135.82"/>
<polygon fill="#63b8ff" stroke="#63b8ff" points="1252.39,-138.28 1257.8,-129.17 1247.89,-132.92 1252.39,-138.28"/>
</a>
</g>
</g>
<!-- Node27 -->
<g id="Node000027" class="node">
<title>Node27</title>
<g id="a_Node000027"><a xlink:href="spline_8h.html" target="_top" xlink:title=" ">
<polygon fill="white" stroke="#666666" points="595,-129 540,-129 540,-110 595,-110 595,-129"/>
<text text-anchor="middle" x="567.5" y="-117" font-family="Helvetica,sans-Serif" font-size="10.00">spline.h</text>
</a>
</g>
</g>
<!-- Node26&#45;&gt;Node27 -->
<g id="edge47_Node000026_Node000027" class="edge">
<title>Node26&#45;&gt;Node27</title>
<g id="a_edge47_Node000026_Node000027"><a xlink:title=" ">
<path fill="none" stroke="#63b8ff" d="M866.45,-219.85C857.77,-205.83 838.59,-178.37 814.5,-165 733.61,-120.12 700.4,-146.18 609.5,-129 608.04,-128.72 606.55,-128.44 605.04,-128.15"/>
<polygon fill="#63b8ff" stroke="#63b8ff" points="605.53,-124.68 595.04,-126.18 604.18,-131.55 605.53,-124.68"/>
</a>
</g>
</g>
<!-- Node28 -->
<g id="Node000028" class="node">
<title>Node28</title>
<g id="a_Node000028"><a xlink:href="objects_8h.html" target="_top" xlink:title=" ">
<polygon fill="white" stroke="#666666" points="805,-184 744,-184 744,-165 805,-165 805,-184"/>
<text text-anchor="middle" x="774.5" y="-172" font-family="Helvetica,sans-Serif" font-size="10.00">objects.h</text>
</a>
</g>
</g>
<!-- Node26&#45;&gt;Node28 -->
<g id="edge50_Node000026_Node000028" class="edge">
<title>Node26&#45;&gt;Node28</title>
<g id="a_edge50_Node000026_Node000028"><a xlink:title=" ">
<path fill="none" stroke="#63b8ff" d="M855.92,-219.98C840.73,-211.69 817.4,-198.94 799.6,-189.22"/>
<polygon fill="#63b8ff" stroke="#63b8ff" points="800.82,-185.89 790.37,-184.17 797.47,-192.04 800.82,-185.89"/>
</a>
</g>
</g>
<!-- Node27&#45;&gt;Node7 -->
<g id="edge48_Node000027_Node000007" class="edge">
<title>Node27&#45;&gt;Node7</title>
<g id="a_edge48_Node000027_Node000007"><a xlink:title=" ">
<path fill="none" stroke="#63b8ff" d="M555.45,-109.98C544.04,-101.92 526.67,-89.65 513.07,-80.03"/>
<polygon fill="#63b8ff" stroke="#63b8ff" points="514.96,-77.08 504.77,-74.17 510.92,-82.8 514.96,-77.08"/>
</a>
</g>
</g>
<!-- Node28&#45;&gt;Node7 -->
<g id="edge52_Node000028_Node000007" class="edge">
<title>Node28&#45;&gt;Node7</title>
<g id="a_edge52_Node000028_Node000007"><a xlink:title=" ">
<path fill="none" stroke="#63b8ff" d="M743.87,-166.7C741.04,-166.11 738.22,-165.54 735.5,-165 645.17,-147.19 607.62,-180.78 531.5,-129 515.49,-118.11 504.87,-98.25 498.81,-83.63"/>
<polygon fill="#63b8ff" stroke="#63b8ff" points="502.02,-82.21 495.19,-74.11 495.47,-84.7 502.02,-82.21"/>
</a>
</g>
</g>
<!-- Node28&#45;&gt;Node27 -->
<g id="edge51_Node000028_Node000027" class="edge">
<title>Node28&#45;&gt;Node27</title>
<g id="a_edge51_Node000028_Node000027"><a xlink:title=" ">
<path fill="none" stroke="#63b8ff" d="M743.96,-165.68C707.02,-156.22 644.87,-140.31 605.05,-130.11"/>
<polygon fill="#63b8ff" stroke="#63b8ff" points="605.74,-126.68 595.19,-127.59 604,-133.46 605.74,-126.68"/>
</a>
</g>
</g>
<!-- Node29&#45;&gt;Node7 -->
<g id="edge55_Node000029_Node000007" class="edge">
<title>Node29&#45;&gt;Node7</title>
<g id="a_edge55_Node000029_Node000007"><a xlink:title=" ">
<path fill="none" stroke="#63b8ff" d="M648.7,-169.76C598.98,-164.1 516.87,-151.55 497.5,-129 487.04,-116.82 486.84,-98.03 488.62,-84.05"/>
<polygon fill="#63b8ff" stroke="#63b8ff" points="492.09,-84.53 490.32,-74.08 485.19,-83.35 492.09,-84.53"/>
</a>
</g>
</g>
<!-- Node29&#45;&gt;Node12 -->
<g id="edge56_Node000029_Node000012" class="edge">
<title>Node29&#45;&gt;Node12</title>
<g id="a_edge56_Node000029_Node000012"><a xlink:title=" ">
<path fill="none" stroke="#63b8ff" d="M726.24,-166.4C729.37,-165.9 732.48,-165.43 735.5,-165 877.34,-144.99 1047.16,-129.7 1120.63,-123.51"/>
<polygon fill="#63b8ff" stroke="#63b8ff" points="1121.09,-126.99 1130.76,-122.66 1120.5,-120.01 1121.09,-126.99"/>
</a>
</g>
</g>
<!-- Node30&#45;&gt;Node7 -->
<g id="edge60_Node000030_Node000007" class="edge">
<title>Node30&#45;&gt;Node7</title>
<g id="a_edge60_Node000030_Node000007"><a xlink:title=" ">
<path fill="none" stroke="#63b8ff" d="M642.14,-219.92C591.96,-208.62 518.91,-183.38 484.5,-129 475.97,-115.52 479.53,-97.18 484.29,-83.67"/>
<polygon fill="#63b8ff" stroke="#63b8ff" points="487.67,-84.65 488.17,-74.07 481.18,-82.03 487.67,-84.65"/>
</a>
</g>
</g>
<!-- Node30&#45;&gt;Node29 -->
<g id="edge66_Node000030_Node000029" class="edge">
<title>Node30&#45;&gt;Node29</title>
<g id="a_edge66_Node000030_Node000029"><a xlink:title=" ">
<path fill="none" stroke="#63b8ff" d="M693.34,-219.75C692.43,-212.8 691.11,-202.85 689.96,-194.13"/>
<polygon fill="#63b8ff" stroke="#63b8ff" points="693.41,-193.54 688.63,-184.09 686.47,-194.46 693.41,-193.54"/>
</a>
</g>
</g>
<!-- Node30&#45;&gt;Node31 -->
<g id="edge58_Node000030_Node000031" class="edge">
<title>Node30&#45;&gt;Node31</title>
<g id="a_edge58_Node000030_Node000031"><a xlink:title=" ">
<path fill="none" stroke="#63b8ff" d="M651.28,-219.98C602.79,-210.43 524.33,-194.97 473.84,-185.02"/>
<polygon fill="#63b8ff" stroke="#63b8ff" points="474.31,-181.55 463.82,-183.05 472.95,-188.42 474.31,-181.55"/>
</a>
</g>
</g>
<!-- Node32 -->
<g id="Node000032" class="node">
<title>Node32</title>
<g id="a_Node000032"><a xlink:href="common__data_8h.html" target="_top" xlink:title=" ">
<polygon fill="white" stroke="#666666" points="1036.5,-129 906.5,-129 906.5,-110 1036.5,-110 1036.5,-129"/>
<text text-anchor="middle" x="971.5" y="-117" font-family="Helvetica,sans-Serif" font-size="10.00">assets/common_data.h</text>
</a>
</g>
</g>
<!-- Node30&#45;&gt;Node32 -->
<g id="edge61_Node000030_Node000032" class="edge">
<title>Node30&#45;&gt;Node32</title>
<g id="a_edge61_Node000030_Node000032"><a xlink:title=" ">
<path fill="none" stroke="#63b8ff" d="M718.48,-219.84C742.76,-211.02 781.35,-196.85 814.5,-184 858.9,-166.79 909.97,-145.94 941.49,-132.94"/>
<polygon fill="#63b8ff" stroke="#63b8ff" points="943.1,-136.07 951,-129.01 940.42,-129.6 943.1,-136.07"/>
</a>
</g>
</g>
<!-- Node31&#45;&gt;Node7 -->
<g id="edge59_Node000031_Node000007" class="edge">
<title>Node31&#45;&gt;Node7</title>
<g id="a_edge59_Node000031_Node000007"><a xlink:title=" ">
<path fill="none" stroke="#63b8ff" d="M422.11,-164.63C417.76,-151.72 411.87,-127.4 421.5,-110 429.34,-95.83 443.79,-85.57 457.61,-78.5"/>
<polygon fill="#63b8ff" stroke="#63b8ff" points="459.42,-81.52 466.99,-74.1 456.45,-75.18 459.42,-81.52"/>
</a>
</g>
</g>
<!-- Node32&#45;&gt;Node4 -->
<g id="edge63_Node000032_Node000004" class="edge">
<title>Node32&#45;&gt;Node4</title>
<g id="a_edge63_Node000032_Node000004"><a xlink:title=" ">
<path fill="none" stroke="#63b8ff" d="M958.04,-109.84C929.16,-91.28 861.04,-47.49 825.67,-24.75"/>
<polygon fill="#63b8ff" stroke="#63b8ff" points="827.33,-21.66 817.03,-19.2 823.55,-27.55 827.33,-21.66"/>
</a>
</g>
</g>
<!-- Node32&#45;&gt;Node7 -->
<g id="edge64_Node000032_Node000007" class="edge">
<title>Node32&#45;&gt;Node7</title>
<g id="a_edge64_Node000032_Node000007"><a xlink:title=" ">
<path fill="none" stroke="#63b8ff" d="M906.13,-110.97C903.21,-110.64 900.33,-110.32 897.5,-110 777.08,-96.47 636.47,-81.12 556.61,-72.45"/>
<polygon fill="#63b8ff" stroke="#63b8ff" points="556.55,-68.92 546.23,-71.32 555.79,-75.88 556.55,-68.92"/>
</a>
</g>
</g>
<!-- Node32&#45;&gt;Node15 -->
<g id="edge62_Node000032_Node000015" class="edge">
<title>Node32&#45;&gt;Node15</title>
<g id="a_edge62_Node000032_Node000015"><a xlink:title=" ">
<path fill="none" stroke="#63b8ff" d="M978.11,-109.75C983.76,-102.26 992.04,-91.28 998.95,-82.13"/>
<polygon fill="#63b8ff" stroke="#63b8ff" points="1001.79,-84.18 1005.02,-74.09 996.2,-79.96 1001.79,-84.18"/>
</a>
</g>
</g>
<!-- Node32&#45;&gt;Node24 -->
<g id="edge65_Node000032_Node000024" class="edge">
<title>Node32&#45;&gt;Node24</title>
<g id="a_edge65_Node000032_Node000024"><a xlink:title=" ">
<path fill="none" stroke="#63b8ff" d="M1014.08,-109.98C1060.2,-100.76 1133.86,-86.03 1183.66,-76.07"/>
<polygon fill="#63b8ff" stroke="#63b8ff" points="1184.47,-79.48 1193.59,-74.08 1183.1,-72.61 1184.47,-79.48"/>
</a>
</g>
</g>
<!-- Node34&#45;&gt;Node4 -->
<g id="edge71_Node000034_Node000004" class="edge">
<title>Node34&#45;&gt;Node4</title>
<g id="a_edge71_Node000034_Node000004"><a xlink:title=" ">
<path fill="none" stroke="#63b8ff" d="M832.88,-109.66C827.68,-92.09 815.93,-52.45 808.97,-28.95"/>
<polygon fill="#63b8ff" stroke="#63b8ff" points="812.26,-27.75 806.07,-19.16 805.55,-29.74 812.26,-27.75"/>
</a>
</g>
</g>
<!-- Node34&#45;&gt;Node7 -->
<g id="edge74_Node000034_Node000007" class="edge">
<title>Node34&#45;&gt;Node7</title>
<g id="a_edge74_Node000034_Node000007"><a xlink:title=" ">
<path fill="none" stroke="#63b8ff" d="M782.28,-110.28C721.29,-100.85 621.37,-85.41 556.26,-75.35"/>
<polygon fill="#63b8ff" stroke="#63b8ff" points="556.54,-71.85 546.13,-73.79 555.47,-78.77 556.54,-71.85"/>
</a>
</g>
</g>
<!-- Node34&#45;&gt;Node15 -->
<g id="edge72_Node000034_Node000015" class="edge">
<title>Node34&#45;&gt;Node15</title>
<g id="a_edge72_Node000034_Node000015"><a xlink:title=" ">
<path fill="none" stroke="#63b8ff" d="M863.78,-109.98C893.45,-101.05 940.29,-86.94 973.25,-77.02"/>
<polygon fill="#63b8ff" stroke="#63b8ff" points="974.43,-80.32 983,-74.08 972.42,-73.61 974.43,-80.32"/>
</a>
</g>
</g>
<!-- Node34&#45;&gt;Node21 -->
<g id="edge73_Node000034_Node000021" class="edge">
<title>Node34&#45;&gt;Node21</title>
<g id="a_edge73_Node000034_Node000021"><a xlink:title=" ">
<path fill="none" stroke="#63b8ff" d="M825.06,-109.98C815.35,-102.07 800.68,-90.11 789,-80.58"/>
<polygon fill="#63b8ff" stroke="#63b8ff" points="791.1,-77.78 781.13,-74.17 786.67,-83.2 791.1,-77.78"/>
</a>
</g>
</g>
</g>
</svg>
