<?xml version="1.0" encoding="UTF-8" standalone="no"?>
<!DOCTYPE svg PUBLIC "-//W3C//DTD SVG 1.1//EN"
 "http://www.w3.org/Graphics/SVG/1.1/DTD/svg11.dtd">
<!-- Generated by graphviz version 2.43.0 (0)
 -->
<!-- Title: src/engine/editor/Handles.cpp Pages: 1 -->
<svg width="1263pt" height="302pt"
 viewBox="0.00 0.00 1263.00 302.00" xmlns="http://www.w3.org/2000/svg" xmlns:xlink="http://www.w3.org/1999/xlink">
<g id="graph0" class="graph" transform="scale(1 1) rotate(0) translate(4 298)">
<title>src/engine/editor/Handles.cpp</title>
<!-- Node1 -->
<g id="Node000001" class="node">
<title>Node1</title>
<g id="a_Node000001"><a xlink:title=" ">
<polygon fill="#999999" stroke="#666666" points="704.5,-294 543.5,-294 543.5,-275 704.5,-275 704.5,-294"/>
<text text-anchor="middle" x="624" y="-282" font-family="Helvetica,sans-Serif" font-size="10.00">src/engine/editor/Handles.cpp</text>
</a>
</g>
</g>
<!-- Node2 -->
<g id="Node000002" class="node">
<title>Node2</title>
<g id="a_Node000002"><a xlink:title=" ">
<polygon fill="#e0e0e0" stroke="#999999" points="1255,-74 1117,-74 1117,-55 1255,-55 1255,-74"/>
<text text-anchor="middle" x="1186" y="-62" font-family="Helvetica,sans-Serif" font-size="10.00">libultraship/libultraship.h</text>
</a>
</g>
</g>
<!-- Node1&#45;&gt;Node2 -->
<g id="edge1_Node000001_Node000002" class="edge">
<title>Node1&#45;&gt;Node2</title>
<g id="a_edge1_Node000001_Node000002"><a xlink:title=" ">
<path fill="none" stroke="#63b8ff" d="M653.71,-274.95C726.01,-253.76 916.33,-195.69 1068,-129 1102.07,-114.02 1139.63,-92.97 1163.02,-79.28"/>
<polygon fill="#63b8ff" stroke="#63b8ff" points="1165,-82.18 1171.84,-74.08 1161.45,-76.15 1165,-82.18"/>
</a>
</g>
</g>
<!-- Node3 -->
<g id="Node000003" class="node">
<title>Node3</title>
<g id="a_Node000003"><a xlink:title=" ">
<polygon fill="#e0e0e0" stroke="#999999" points="78,-74 0,-74 0,-55 78,-55 78,-74"/>
<text text-anchor="middle" x="39" y="-62" font-family="Helvetica,sans-Serif" font-size="10.00">libultra/gbi.h</text>
</a>
</g>
</g>
<!-- Node1&#45;&gt;Node3 -->
<g id="edge2_Node000001_Node000003" class="edge">
<title>Node1&#45;&gt;Node3</title>
<g id="a_edge2_Node000001_Node000003"><a xlink:title=" ">
<path fill="none" stroke="#63b8ff" d="M596.99,-274.97C527.37,-252.78 336.38,-190.71 181,-129 140.36,-112.86 94.33,-91.74 65.98,-78.39"/>
<polygon fill="#63b8ff" stroke="#63b8ff" points="67.26,-75.12 56.73,-74.01 64.27,-81.45 67.26,-75.12"/>
</a>
</g>
</g>
<!-- Node4 -->
<g id="Node000004" class="node">
<title>Node4</title>
<g id="a_Node000004"><a xlink:href="Handles_8h.html" target="_top" xlink:title=" ">
<polygon fill="white" stroke="#666666" points="656.5,-239 591.5,-239 591.5,-220 656.5,-220 656.5,-239"/>
<text text-anchor="middle" x="624" y="-227" font-family="Helvetica,sans-Serif" font-size="10.00">Handles.h</text>
</a>
</g>
</g>
<!-- Node1&#45;&gt;Node4 -->
<g id="edge3_Node000001_Node000004" class="edge">
<title>Node1&#45;&gt;Node4</title>
<g id="a_edge3_Node000001_Node000004"><a xlink:title=" ">
<path fill="none" stroke="#63b8ff" d="M624,-274.75C624,-267.8 624,-257.85 624,-249.13"/>
<polygon fill="#63b8ff" stroke="#63b8ff" points="627.5,-249.09 624,-239.09 620.5,-249.09 627.5,-249.09"/>
</a>
</g>
</g>
<!-- Node4&#45;&gt;Node2 -->
<g id="edge4_Node000004_Node000002" class="edge">
<title>Node4&#45;&gt;Node2</title>
<g id="a_edge4_Node000004_Node000002"><a xlink:title=" ">
<path fill="none" stroke="#63b8ff" d="M656.73,-222.12C726.19,-208.23 893.11,-172.92 1029,-129 1075.2,-114.07 1127.12,-91.98 1158.16,-78.18"/>
<polygon fill="#63b8ff" stroke="#63b8ff" points="1159.78,-81.29 1167.47,-74.01 1156.91,-74.9 1159.78,-81.29"/>
</a>
</g>
</g>
<!-- Node4&#45;&gt;Node3 -->
<g id="edge5_Node000004_Node000003" class="edge">
<title>Node4&#45;&gt;Node3</title>
<g id="a_edge5_Node000004_Node000003"><a xlink:title=" ">
<path fill="none" stroke="#63b8ff" d="M591.43,-220.44C525.7,-204.07 372.57,-165.39 245,-129 185.15,-111.93 116.14,-90.24 75.11,-77.14"/>
<polygon fill="#63b8ff" stroke="#63b8ff" points="76.15,-73.8 65.56,-74.08 74.02,-80.46 76.15,-73.8"/>
</a>
</g>
</g>
<!-- Node5 -->
<g id="Node000005" class="node">
<title>Node5</title>
<g id="a_Node000005"><a xlink:href="GameObject_8h.html" target="_top" xlink:title=" ">
<polygon fill="white" stroke="#666666" points="667,-184 581,-184 581,-165 667,-165 667,-184"/>
<text text-anchor="middle" x="624" y="-172" font-family="Helvetica,sans-Serif" font-size="10.00">GameObject.h</text>
</a>
</g>
</g>
<!-- Node4&#45;&gt;Node5 -->
<g id="edge6_Node000004_Node000005" class="edge">
<title>Node4&#45;&gt;Node5</title>
<g id="a_edge6_Node000004_Node000005"><a xlink:title=" ">
<path fill="none" stroke="#63b8ff" d="M624,-219.75C624,-212.8 624,-202.85 624,-194.13"/>
<polygon fill="#63b8ff" stroke="#63b8ff" points="627.5,-194.09 624,-184.09 620.5,-194.09 627.5,-194.09"/>
</a>
</g>
</g>
<!-- Node5&#45;&gt;Node2 -->
<g id="edge7_Node000005_Node000002" class="edge">
<title>Node5&#45;&gt;Node2</title>
<g id="a_edge7_Node000005_Node000002"><a xlink:title=" ">
<path fill="none" stroke="#63b8ff" d="M667.09,-170.92C735.4,-166.22 872.44,-154.33 986,-129 1012.48,-123.1 1018.17,-118.28 1044,-110 1079.54,-98.61 1120.19,-85.9 1148.86,-76.99"/>
<polygon fill="#63b8ff" stroke="#63b8ff" points="1149.97,-80.32 1158.48,-74.01 1147.89,-73.63 1149.97,-80.32"/>
</a>
</g>
</g>
<!-- Node5&#45;&gt;Node3 -->
<g id="edge8_Node000005_Node000003" class="edge">
<title>Node5&#45;&gt;Node3</title>
<g id="a_edge8_Node000005_Node000003"><a xlink:title=" ">
<path fill="none" stroke="#63b8ff" d="M580.58,-167.42C524.76,-159.44 424.92,-144.6 340,-129 249.88,-112.44 145.35,-89.56 86.21,-76.26"/>
<polygon fill="#63b8ff" stroke="#63b8ff" points="86.94,-72.84 76.42,-74.05 85.4,-79.67 86.94,-72.84"/>
</a>
</g>
</g>
<!-- Node6 -->
<g id="Node000006" class="node">
<title>Node6</title>
<g id="a_Node000006"><a xlink:title=" ">
<polygon fill="#e0e0e0" stroke="#999999" points="1099,-74 1009,-74 1009,-55 1099,-55 1099,-74"/>
<text text-anchor="middle" x="1054" y="-62" font-family="Helvetica,sans-Serif" font-size="10.00">libultra/types.h</text>
</a>
</g>
</g>
<!-- Node5&#45;&gt;Node6 -->
<g id="edge9_Node000005_Node000006" class="edge">
<title>Node5&#45;&gt;Node6</title>
<g id="a_edge9_Node000005_Node000006"><a xlink:title=" ">
<path fill="none" stroke="#63b8ff" d="M644.84,-164.95C678.16,-151.57 745.74,-125.58 805,-110 840.7,-100.61 936.92,-84.36 998.76,-74.31"/>
<polygon fill="#63b8ff" stroke="#63b8ff" points="999.44,-77.74 1008.75,-72.69 998.32,-70.83 999.44,-77.74"/>
</a>
</g>
</g>
<!-- Node7 -->
<g id="Node000007" class="node">
<title>Node7</title>
<g id="a_Node000007"><a xlink:href="CoreMath_8h.html" target="_top" xlink:title=" ">
<polygon fill="white" stroke="#666666" points="633,-74 551,-74 551,-55 633,-55 633,-74"/>
<text text-anchor="middle" x="592" y="-62" font-family="Helvetica,sans-Serif" font-size="10.00">../CoreMath.h</text>
</a>
</g>
</g>
<!-- Node5&#45;&gt;Node7 -->
<g id="edge10_Node000005_Node000007" class="edge">
<title>Node5&#45;&gt;Node7</title>
<g id="a_edge10_Node000005_Node000007"><a xlink:title=" ">
<path fill="none" stroke="#63b8ff" d="M621.24,-164.99C618.37,-156.05 613.76,-141.57 610,-129 605.48,-113.89 600.62,-96.66 597.09,-83.97"/>
<polygon fill="#63b8ff" stroke="#63b8ff" points="600.41,-82.85 594.37,-74.15 593.66,-84.72 600.41,-82.85"/>
</a>
</g>
</g>
<!-- Node9 -->
<g id="Node000009" class="node">
<title>Node9</title>
<g id="a_Node000009"><a xlink:href="EditorMath_8h.html" target="_top" xlink:title=" ">
<polygon fill="white" stroke="#666666" points="697.5,-129 618.5,-129 618.5,-110 697.5,-110 697.5,-129"/>
<text text-anchor="middle" x="658" y="-117" font-family="Helvetica,sans-Serif" font-size="10.00">EditorMath.h</text>
</a>
</g>
</g>
<!-- Node5&#45;&gt;Node9 -->
<g id="edge12_Node000005_Node000009" class="edge">
<title>Node5&#45;&gt;Node9</title>
<g id="a_edge12_Node000005_Node000009"><a xlink:title=" ">
<path fill="none" stroke="#63b8ff" d="M624.45,-164.75C627.64,-157.26 634.3,-146.28 641.02,-137.13"/>
<polygon fill="#63b8ff" stroke="#63b8ff" points="643.91,-139.11 647.36,-129.09 638.42,-134.77 643.91,-139.11"/>
</a>
</g>
</g>
<!-- Node10 -->
<g id="Node000010" class="node">
<title>Node10</title>
<g id="a_Node000010"><a xlink:title=" ">
<polygon fill="#e0e0e0" stroke="#999999" points="532.5,-74 485.5,-74 485.5,-55 532.5,-55 532.5,-74"/>
<text text-anchor="middle" x="509" y="-62" font-family="Helvetica,sans-Serif" font-size="10.00">vector</text>
</a>
</g>
</g>
<!-- Node5&#45;&gt;Node10 -->
<g id="edge23_Node000005_Node000010" class="edge">
<title>Node5&#45;&gt;Node10</title>
<g id="a_edge23_Node000005_Node000010"><a xlink:title=" ">
<path fill="none" stroke="#63b8ff" d="M614.59,-164.66C595.12,-146.38 550.19,-104.18 525.68,-81.17"/>
<polygon fill="#63b8ff" stroke="#63b8ff" points="527.91,-78.45 518.22,-74.16 523.11,-83.56 527.91,-78.45"/>
</a>
</g>
</g>
<!-- Node13 -->
<g id="Node000013" class="node">
<title>Node13</title>
<g id="a_Node000013"><a xlink:href="common__structs_8h.html" target="_top" xlink:title=" ">
<polygon fill="white" stroke="#666666" points="467.5,-74 360.5,-74 360.5,-55 467.5,-55 467.5,-74"/>
<text text-anchor="middle" x="414" y="-62" font-family="Helvetica,sans-Serif" font-size="10.00">common_structs.h</text>
</a>
</g>
</g>
<!-- Node5&#45;&gt;Node13 -->
<g id="edge33_Node000005_Node000013" class="edge">
<title>Node5&#45;&gt;Node13</title>
<g id="a_edge33_Node000005_Node000013"><a xlink:title=" ">
<path fill="none" stroke="#63b8ff" d="M607.17,-164.84C570.52,-146 483.31,-101.14 439.72,-78.73"/>
<polygon fill="#63b8ff" stroke="#63b8ff" points="441.11,-75.51 430.62,-74.05 437.91,-81.73 441.11,-75.51"/>
</a>
</g>
</g>
<!-- Node14 -->
<g id="Node000014" class="node">
<title>Node14</title>
<g id="a_Node000014"><a xlink:href="SpawnParams_8h.html" target="_top" xlink:title=" ">
<polygon fill="white" stroke="#666666" points="479,-129 349,-129 349,-110 479,-110 479,-129"/>
<text text-anchor="middle" x="414" y="-117" font-family="Helvetica,sans-Serif" font-size="10.00">engine/SpawnParams.h</text>
</a>
</g>
</g>
<!-- Node5&#45;&gt;Node14 -->
<g id="edge24_Node000005_Node000014" class="edge">
<title>Node5&#45;&gt;Node14</title>
<g id="a_edge24_Node000005_Node000014"><a xlink:title=" ">
<path fill="none" stroke="#63b8ff" d="M590.26,-164.98C554.32,-155.91 497.28,-141.52 457.87,-131.57"/>
<polygon fill="#63b8ff" stroke="#63b8ff" points="458.56,-128.14 448,-129.08 456.84,-134.92 458.56,-128.14"/>
</a>
</g>
</g>
<!-- Node18 -->
<g id="Node000018" class="node">
<title>Node18</title>
<g id="a_Node000018"><a xlink:href="DefaultProperties_8h.html" target="_top" xlink:title=" ">
<polygon fill="white" stroke="#666666" points="976.5,-129 813.5,-129 813.5,-110 976.5,-110 976.5,-129"/>
<text text-anchor="middle" x="895" y="-117" font-family="Helvetica,sans-Serif" font-size="10.00">src/port/ui/DefaultProperties.h</text>
</a>
</g>
</g>
<!-- Node5&#45;&gt;Node18 -->
<g id="edge31_Node000005_Node000018" class="edge">
<title>Node5&#45;&gt;Node18</title>
<g id="a_edge31_Node000005_Node000018"><a xlink:title=" ">
<path fill="none" stroke="#63b8ff" d="M667.24,-165.04C714.59,-155.78 790.57,-140.92 841.61,-130.94"/>
<polygon fill="#63b8ff" stroke="#63b8ff" points="842.32,-134.37 851.47,-129.01 840.98,-127.5 842.32,-134.37"/>
</a>
</g>
</g>
<!-- Node8 -->
<g id="Node000008" class="node">
<title>Node8</title>
<g id="a_Node000008"><a xlink:title=" ">
<polygon fill="#e0e0e0" stroke="#999999" points="543,-19 463,-19 463,0 543,0 543,-19"/>
<text text-anchor="middle" x="503" y="-7" font-family="Helvetica,sans-Serif" font-size="10.00">libultraship.h</text>
</a>
</g>
</g>
<!-- Node7&#45;&gt;Node8 -->
<g id="edge11_Node000007_Node000008" class="edge">
<title>Node7&#45;&gt;Node8</title>
<g id="a_edge11_Node000007_Node000008"><a xlink:title=" ">
<path fill="none" stroke="#63b8ff" d="M577.7,-54.98C563.9,-46.77 542.76,-34.18 526.49,-24.49"/>
<polygon fill="#63b8ff" stroke="#63b8ff" points="527.94,-21.28 517.56,-19.17 524.36,-27.29 527.94,-21.28"/>
</a>
</g>
</g>
<!-- Node9&#45;&gt;Node2 -->
<g id="edge13_Node000009_Node000002" class="edge">
<title>Node9&#45;&gt;Node2</title>
<g id="a_edge13_Node000009_Node000002"><a xlink:title=" ">
<path fill="none" stroke="#63b8ff" d="M697.74,-114.7C774.51,-107.34 948.81,-90.49 1106.33,-74.16"/>
<polygon fill="#63b8ff" stroke="#63b8ff" points="1107.1,-77.6 1116.68,-73.09 1106.37,-70.64 1107.1,-77.6"/>
</a>
</g>
</g>
<!-- Node9&#45;&gt;Node3 -->
<g id="edge14_Node000009_Node000003" class="edge">
<title>Node9&#45;&gt;Node3</title>
<g id="a_edge14_Node000009_Node000003"><a xlink:title=" ">
<path fill="none" stroke="#63b8ff" d="M618.41,-116.75C526.88,-112.41 293.44,-99.7 88.3,-74.04"/>
<polygon fill="#63b8ff" stroke="#63b8ff" points="88.61,-70.55 78.25,-72.77 87.73,-77.5 88.61,-70.55"/>
</a>
</g>
</g>
<!-- Node9&#45;&gt;Node5 -->
<g id="edge18_Node000009_Node000005" class="edge">
<title>Node9&#45;&gt;Node5</title>
<g id="a_edge18_Node000009_Node000005"><a xlink:title=" ">
<path fill="none" stroke="#63b8ff" d="M657.62,-129.09C654.48,-136.52 647.84,-147.5 641.13,-156.67"/>
<polygon fill="#63b8ff" stroke="#63b8ff" points="638.21,-154.72 634.78,-164.75 643.71,-159.05 638.21,-154.72"/>
</a>
</g>
</g>
<!-- Node9&#45;&gt;Node6 -->
<g id="edge15_Node000009_Node000006" class="edge">
<title>Node9&#45;&gt;Node6</title>
<g id="a_edge15_Node000009_Node000006"><a xlink:title=" ">
<path fill="none" stroke="#63b8ff" d="M697.54,-113.7C759.48,-106.11 883.38,-90.63 998.86,-74.13"/>
<polygon fill="#63b8ff" stroke="#63b8ff" points="999.53,-77.57 1008.93,-72.69 998.54,-70.64 999.53,-77.57"/>
</a>
</g>
</g>
<!-- Node9&#45;&gt;Node7 -->
<g id="edge16_Node000009_Node000007" class="edge">
<title>Node9&#45;&gt;Node7</title>
<g id="a_edge16_Node000009_Node000007"><a xlink:title=" ">
<path fill="none" stroke="#63b8ff" d="M647.4,-109.98C637.54,-102.07 622.65,-90.11 610.78,-80.58"/>
<polygon fill="#63b8ff" stroke="#63b8ff" points="612.79,-77.7 602.8,-74.17 608.4,-83.16 612.79,-77.7"/>
</a>
</g>
</g>
<!-- Node9&#45;&gt;Node10 -->
<g id="edge17_Node000009_Node000010" class="edge">
<title>Node9&#45;&gt;Node10</title>
<g id="a_edge17_Node000009_Node000010"><a xlink:title=" ">
<path fill="none" stroke="#63b8ff" d="M634.06,-109.98C609.3,-101.18 570.42,-87.35 542.59,-77.45"/>
<polygon fill="#63b8ff" stroke="#63b8ff" points="543.47,-74.05 532.88,-73.99 541.13,-80.64 543.47,-74.05"/>
</a>
</g>
</g>
<!-- Node11 -->
<g id="Node000011" class="node">
<title>Node11</title>
<g id="a_Node000011"><a xlink:title=" ">
<polygon fill="#e0e0e0" stroke="#999999" points="821,-74 651,-74 651,-55 821,-55 821,-74"/>
<text text-anchor="middle" x="736" y="-62" font-family="Helvetica,sans-Serif" font-size="10.00">graphic/Fast3D/Fast3dWindow.h</text>
</a>
</g>
</g>
<!-- Node9&#45;&gt;Node11 -->
<g id="edge19_Node000009_Node000011" class="edge">
<title>Node9&#45;&gt;Node11</title>
<g id="a_edge19_Node000009_Node000011"><a xlink:title=" ">
<path fill="none" stroke="#63b8ff" d="M670.53,-109.98C682.4,-101.92 700.46,-89.65 714.61,-80.03"/>
<polygon fill="#63b8ff" stroke="#63b8ff" points="716.94,-82.69 723.24,-74.17 713,-76.9 716.94,-82.69"/>
</a>
</g>
</g>
<!-- Node12 -->
<g id="Node000012" class="node">
<title>Node12</title>
<g id="a_Node000012"><a xlink:title=" ">
<polygon fill="#e0e0e0" stroke="#999999" points="991,-74 839,-74 839,-55 991,-55 991,-74"/>
<text text-anchor="middle" x="915" y="-62" font-family="Helvetica,sans-Serif" font-size="10.00">graphic/Fast3D/interpreter.h</text>
</a>
</g>
</g>
<!-- Node9&#45;&gt;Node12 -->
<g id="edge20_Node000009_Node000012" class="edge">
<title>Node9&#45;&gt;Node12</title>
<g id="a_edge20_Node000009_Node000012"><a xlink:title=" ">
<path fill="none" stroke="#63b8ff" d="M697.59,-110.33C742.16,-101.15 814.7,-86.19 863.6,-76.1"/>
<polygon fill="#63b8ff" stroke="#63b8ff" points="864.57,-79.47 873.66,-74.03 863.16,-72.62 864.57,-79.47"/>
</a>
</g>
</g>
<!-- Node9&#45;&gt;Node13 -->
<g id="edge21_Node000009_Node000013" class="edge">
<title>Node9&#45;&gt;Node13</title>
<g id="a_edge21_Node000009_Node000013"><a xlink:title=" ">
<path fill="none" stroke="#63b8ff" d="M618.8,-109.98C576.59,-100.82 509.35,-86.21 463.52,-76.26"/>
<polygon fill="#63b8ff" stroke="#63b8ff" points="464.03,-72.78 453.51,-74.08 462.54,-79.63 464.03,-72.78"/>
</a>
</g>
</g>
<!-- Node13&#45;&gt;Node8 -->
<g id="edge22_Node000013_Node000008" class="edge">
<title>Node13&#45;&gt;Node8</title>
<g id="a_edge22_Node000013_Node000008"><a xlink:title=" ">
<path fill="none" stroke="#63b8ff" d="M428.3,-54.98C442.1,-46.77 463.24,-34.18 479.51,-24.49"/>
<polygon fill="#63b8ff" stroke="#63b8ff" points="481.64,-27.29 488.44,-19.17 478.06,-21.28 481.64,-27.29"/>
</a>
</g>
</g>
<!-- Node14&#45;&gt;Node7 -->
<g id="edge29_Node000014_Node000007" class="edge">
<title>Node14&#45;&gt;Node7</title>
<g id="a_edge29_Node000014_Node000007"><a xlink:title=" ">
<path fill="none" stroke="#63b8ff" d="M442.6,-109.98C472.61,-101.05 519.98,-86.94 553.32,-77.02"/>
<polygon fill="#63b8ff" stroke="#63b8ff" points="554.59,-80.29 563.18,-74.08 552.59,-73.58 554.59,-80.29"/>
</a>
</g>
</g>
<!-- Node14&#45;&gt;Node10 -->
<g id="edge25_Node000014_Node000010" class="edge">
<title>Node14&#45;&gt;Node10</title>
<g id="a_edge25_Node000014_Node000010"><a xlink:title=" ">
<path fill="none" stroke="#63b8ff" d="M429.26,-109.98C444.13,-101.69 466.98,-88.94 484.42,-79.22"/>
<polygon fill="#63b8ff" stroke="#63b8ff" points="486.43,-82.1 493.46,-74.17 483.02,-75.99 486.43,-82.1"/>
</a>
</g>
</g>
<!-- Node14&#45;&gt;Node13 -->
<g id="edge30_Node000014_Node000013" class="edge">
<title>Node14&#45;&gt;Node13</title>
<g id="a_edge30_Node000014_Node000013"><a xlink:title=" ">
<path fill="none" stroke="#63b8ff" d="M414,-109.75C414,-102.8 414,-92.85 414,-84.13"/>
<polygon fill="#63b8ff" stroke="#63b8ff" points="417.5,-84.09 414,-74.09 410.5,-84.09 417.5,-84.09"/>
</a>
</g>
</g>
<!-- Node15 -->
<g id="Node000015" class="node">
<title>Node15</title>
<g id="a_Node000015"><a xlink:title=" ">
<polygon fill="#e0e0e0" stroke="#999999" points="342,-74 286,-74 286,-55 342,-55 342,-74"/>
<text text-anchor="middle" x="314" y="-62" font-family="Helvetica,sans-Serif" font-size="10.00">optional</text>
</a>
</g>
</g>
<!-- Node14&#45;&gt;Node15 -->
<g id="edge26_Node000014_Node000015" class="edge">
<title>Node14&#45;&gt;Node15</title>
<g id="a_edge26_Node000014_Node000015"><a xlink:title=" ">
<path fill="none" stroke="#63b8ff" d="M397.93,-109.98C382.14,-101.61 357.78,-88.7 339.37,-78.95"/>
<polygon fill="#63b8ff" stroke="#63b8ff" points="340.83,-75.76 330.36,-74.17 337.56,-81.95 340.83,-75.76"/>
</a>
</g>
</g>
<!-- Node16 -->
<g id="Node000016" class="node">
<title>Node16</title>
<g id="a_Node000016"><a xlink:title=" ">
<polygon fill="#e0e0e0" stroke="#999999" points="140,-74 96,-74 96,-55 140,-55 140,-74"/>
<text text-anchor="middle" x="118" y="-62" font-family="Helvetica,sans-Serif" font-size="10.00">string</text>
</a>
</g>
</g>
<!-- Node14&#45;&gt;Node16 -->
<g id="edge27_Node000014_Node000016" class="edge">
<title>Node14&#45;&gt;Node16</title>
<g id="a_edge27_Node000014_Node000016"><a xlink:title=" ">
<path fill="none" stroke="#63b8ff" d="M352.61,-109.99C301,-102.43 225.11,-90.36 150.35,-74.11"/>
<polygon fill="#63b8ff" stroke="#63b8ff" points="150.8,-70.63 140.28,-71.9 149.3,-77.47 150.8,-70.63"/>
</a>
</g>
</g>
<!-- Node17 -->
<g id="Node000017" class="node">
<title>Node17</title>
<g id="a_Node000017"><a xlink:title=" ">
<polygon fill="#e0e0e0" stroke="#999999" points="268,-74 158,-74 158,-55 268,-55 268,-74"/>
<text text-anchor="middle" x="213" y="-62" font-family="Helvetica,sans-Serif" font-size="10.00">nlohmann/json.hpp</text>
</a>
</g>
</g>
<!-- Node14&#45;&gt;Node17 -->
<g id="edge28_Node000014_Node000017" class="edge">
<title>Node14&#45;&gt;Node17</title>
<g id="a_edge28_Node000014_Node000017"><a xlink:title=" ">
<path fill="none" stroke="#63b8ff" d="M381.71,-109.98C347.38,-100.93 292.94,-86.58 255.23,-76.64"/>
<polygon fill="#63b8ff" stroke="#63b8ff" points="256.11,-73.25 245.55,-74.08 254.32,-80.02 256.11,-73.25"/>
</a>
</g>
</g>
<!-- Node18&#45;&gt;Node2 -->
<g id="edge32_Node000018_Node000002" class="edge">
<title>Node18&#45;&gt;Node2</title>
<g id="a_edge32_Node000018_Node000002"><a xlink:title=" ">
<path fill="none" stroke="#63b8ff" d="M941.75,-109.98C992.72,-100.7 1074.31,-85.84 1128.99,-75.88"/>
<polygon fill="#63b8ff" stroke="#63b8ff" points="1129.67,-79.32 1138.88,-74.08 1128.41,-72.43 1129.67,-79.32"/>
</a>
</g>
</g>
</g>
</svg>
