<?xml version="1.0" encoding="UTF-8" standalone="no"?>
<!DOCTYPE svg PUBLIC "-//W3C//DTD SVG 1.1//EN"
 "http://www.w3.org/Graphics/SVG/1.1/DTD/svg11.dtd">
<!-- Generated by graphviz version 2.43.0 (0)
 -->
<!-- Title: src/engine/HM_Intro.h Pages: 1 -->
<!--zoomable 148 -->

<svg id="main" version="1.1" xmlns="http://www.w3.org/2000/svg" xmlns:xlink="http://www.w3.org/1999/xlink" xml:space="preserve" onload="init(evt)">

<style type="text/css"><![CDATA[
.node, .edge {opacity: 0.7;}
.node.selected, .edge.selected {opacity: 1;}
.edge:hover path { stroke: red; }
.edge:hover polygon { stroke: red; fill: red; }
]]></style>

<defs>
  <circle id="rim" cx="0" cy="0" r="7"/>
  <circle id="rim2" cx="0" cy="0" r="3.5"/>
  <g id="zoomPlus">
    <use xlink:href="#rim" fill="#404040"><set attributeName="fill" to="#808080" begin="zoomplus.mouseover" end="zoomplus.mouseout"/></use>
    <path d="M-4,0h8M0,-4v8" fill="none" stroke="white" stroke-width="1.5" pointer-events="none"/>
  </g>
  <g id="zoomMin">
    <use xlink:href="#rim" fill="#404040"><set attributeName="fill" to="#808080" begin="zoomminus.mouseover" end="zoomminus.mouseout"/></use>
    <path d="M-4,0h8" fill="none" stroke="white" stroke-width="1.5" pointer-events="none"/>
  </g>
  <g id="arrowUp" transform="translate(30 24)">
    <use xlink:href="#rim"/>
    <path pointer-events="none" fill="none" stroke="white" stroke-width="1.5" d="M0,-3.0v7 M-2.5,-0.5L0,-3.0L2.5,-0.5"/>
  </g>
  <g id="arrowRight" transform="rotate(90) translate(36 -43)">
    <use xlink:href="#rim"/>
    <path pointer-events="none" fill="none" stroke="white" stroke-width="1.5" d="M0,-3.0v7 M-2.5,-0.5L0,-3.0L2.5,-0.5"/>
  </g>
  <g id="arrowDown" transform="rotate(180) translate(-30 -48)">
    <use xlink:href="#rim"/>
    <path pointer-events="none" fill="none" stroke="white" stroke-width="1.5" d="M0,-3.0v7 M-2.5,-0.5L0,-3.0L2.5,-0.5"/>
  </g>
  <g id="arrowLeft" transform="rotate(270) translate(-36 17)">
    <use xlink:href="#rim"/>
    <path pointer-events="none" fill="none" stroke="white" stroke-width="1.5" d="M0,-3.0v7 M-2.5,-0.5L0,-3.0L2.5,-0.5"/>
  </g>
  <g id="resetDef">
    <use xlink:href="#rim2" fill="#404040"><set attributeName="fill" to="#808080" begin="reset.mouseover" end="reset.mouseout"/></use>
  </g>
</defs>
<script type="application/ecmascript">
var viewWidth = 6855;
var viewHeight = 148;
var sectionId = 'dynsection-1';
</script>
<script type="application/ecmascript" xlink:href="svg.min.js"/>
<svg id="graph" class="graph">
<g id="viewport">
<title>src/engine/HM_Intro.h</title>
<!-- Node1 -->
<g id="Node000001" class="node">
<title>Node1</title>
<g id="a_Node000001"><a xlink:title=" ">
<polygon fill="#999999" stroke="#666666" points="357.5,-140 234.5,-140 234.5,-121 357.5,-121 357.5,-140"/>
<text text-anchor="middle" x="296" y="-128" font-family="Helvetica,sans-Serif" font-size="10.00">src/engine/HM_Intro.h</text>
</a>
</g>
</g>
<!-- Node2 -->
<g id="Node000002" class="node">
<title>Node2</title>
<g id="a_Node000002"><a xlink:href="HM__Intro_8cpp.html" target="_top" xlink:title=" ">
<polygon fill="white" stroke="#666666" points="134,-24.5 0,-24.5 0,-5.5 134,-5.5 134,-24.5"/>
<text text-anchor="middle" x="67" y="-12.5" font-family="Helvetica,sans-Serif" font-size="10.00">src/engine/HM_Intro.cpp</text>
</a>
</g>
</g>
<!-- Node1&#45;&gt;Node2 -->
<g id="edge1_Node000001_Node000002" class="edge">
<title>Node1&#45;&gt;Node2</title>
<g id="a_edge1_Node000001_Node000002"><a xlink:title=" ">
<path fill="none" stroke="#63b8ff" d="M269.78,-116.51C222.54,-93.09 124.31,-44.41 84.41,-24.63"/>
<polygon fill="#63b8ff" stroke="#63b8ff" points="268.27,-119.66 278.79,-120.97 271.38,-113.39 268.27,-119.66"/>
</a>
</g>
</g>
<!-- Node3 -->
<g id="Node000003" class="node">
<title>Node3</title>
<g id="a_Node000003"><a xlink:href="menu__items_8c.html" target="_top" xlink:title=" ">
<polygon fill="white" stroke="#666666" points="255.5,-24.5 152.5,-24.5 152.5,-5.5 255.5,-5.5 255.5,-24.5"/>
<text text-anchor="middle" x="204" y="-12.5" font-family="Helvetica,sans-Serif" font-size="10.00">src/menu_items.c</text>
</a>
</g>
</g>
<!-- Node1&#45;&gt;Node3 -->
<g id="edge2_Node000001_Node000003" class="edge">
<title>Node1&#45;&gt;Node3</title>
<g id="a_edge2_Node000001_Node000003"><a xlink:title=" ">
<path fill="none" stroke="#63b8ff" d="M282.6,-112.96C262.75,-88.48 226.25,-43.46 211,-24.63"/>
<polygon fill="#63b8ff" stroke="#63b8ff" points="280.07,-115.4 289.09,-120.97 285.51,-111 280.07,-115.4"/>
</a>
</g>
</g>
<!-- Node4 -->
<g id="Node000004" class="node">
<title>Node4</title>
<g id="a_Node000004"><a xlink:href="Game_8cpp.html" target="_top" xlink:title=" ">
<polygon fill="white" stroke="#666666" points="380,-24.5 274,-24.5 274,-5.5 380,-5.5 380,-24.5"/>
<text text-anchor="middle" x="327" y="-12.5" font-family="Helvetica,sans-Serif" font-size="10.00">src/port/Game.cpp</text>
</a>
</g>
</g>
<!-- Node1&#45;&gt;Node4 -->
<g id="edge3_Node000001_Node000004" class="edge">
<title>Node1&#45;&gt;Node4</title>
<g id="a_edge3_Node000001_Node000004"><a xlink:title=" ">
<path fill="none" stroke="#63b8ff" d="M301.06,-110.99C307.85,-86.13 319.64,-42.96 324.64,-24.63"/>
<polygon fill="#63b8ff" stroke="#63b8ff" points="297.59,-110.4 298.33,-120.97 304.34,-112.24 297.59,-110.4"/>
</a>
</g>
</g>
<!-- Node5 -->
<g id="Node000005" class="node">
<title>Node5</title>
<g id="a_Node000005"><a xlink:href="Game_8h.html" target="_top" xlink:title=" ">
<polygon fill="#fff0f0" stroke="red" points="3632.5,-85 3537.5,-85 3537.5,-66 3632.5,-66 3632.5,-85"/>
<text text-anchor="middle" x="3585" y="-73" font-family="Helvetica,sans-Serif" font-size="10.00">src/port/Game.h</text>
</a>
</g>
</g>
<!-- Node1&#45;&gt;Node5 -->
<g id="edge4_Node000001_Node000005" class="edge">
<title>Node1&#45;&gt;Node5</title>
<g id="a_edge4_Node000001_Node000005"><a xlink:title=" ">
<path fill="none" stroke="#63b8ff" d="M367.8,-128.34C811.41,-121.19 3172.12,-83.15 3537.48,-77.27"/>
<polygon fill="#63b8ff" stroke="#63b8ff" points="367.62,-124.85 357.68,-128.51 367.74,-131.84 367.62,-124.85"/>
</a>
</g>
</g>
<!-- Node5&#45;&gt;Node2 -->
<g id="edge22_Node000005_Node000002" class="edge">
<title>Node5&#45;&gt;Node2</title>
<g id="a_edge22_Node000005_Node000002"><a xlink:title=" ">
<path fill="none" stroke="#63b8ff" d="M3527.22,-74.34C3104.27,-73.12 492.67,-64.22 143,-30 130.98,-28.82 118.02,-26.74 106.27,-24.54"/>
<polygon fill="#63b8ff" stroke="#63b8ff" points="3527.37,-77.84 3537.38,-74.37 3527.39,-70.84 3527.37,-77.84"/>
</a>
</g>
</g>
<!-- Node5&#45;&gt;Node3 -->
<g id="edge51_Node000005_Node000003" class="edge">
<title>Node5&#45;&gt;Node3</title>
<g id="a_edge51_Node000005_Node000003"><a xlink:title=" ">
<path fill="none" stroke="#63b8ff" d="M3526.99,-74.46C3111.97,-74.11 600.85,-70.33 265,-30 255.29,-28.83 244.87,-26.76 235.44,-24.56"/>
<polygon fill="#63b8ff" stroke="#63b8ff" points="3527.25,-77.96 3537.25,-74.47 3527.26,-70.96 3527.25,-77.96"/>
</a>
</g>
</g>
<!-- Node5&#45;&gt;Node4 -->
<g id="edge52_Node000005_Node000004" class="edge">
<title>Node5&#45;&gt;Node4</title>
<g id="a_edge52_Node000005_Node000004"><a xlink:title=" ">
<path fill="none" stroke="#63b8ff" d="M3527.27,-74.41C3122.15,-73.67 712.82,-67.71 390,-30 379.98,-28.83 369.22,-26.75 359.48,-24.55"/>
<polygon fill="#63b8ff" stroke="#63b8ff" points="3527.28,-77.91 3537.29,-74.43 3527.3,-70.91 3527.28,-77.91"/>
</a>
</g>
</g>
<!-- Node6 -->
<g id="Node000006" class="node">
<title>Node6</title>
<g id="a_Node000006"><a xlink:href="track_8c.html" target="_top" xlink:title=" ">
<polygon fill="white" stroke="#666666" points="5772.5,-24.5 5641.5,-24.5 5641.5,-5.5 5772.5,-5.5 5772.5,-24.5"/>
<text text-anchor="middle" x="5707" y="-12.5" font-family="Helvetica,sans-Serif" font-size="10.00">courses/harbour/track.c</text>
</a>
</g>
</g>
<!-- Node5&#45;&gt;Node6 -->
<g id="edge5_Node000005_Node000006" class="edge">
<title>Node5&#45;&gt;Node6</title>
<g id="a_edge5_Node000005_Node000006"><a xlink:title=" ">
<path fill="none" stroke="#63b8ff" d="M3643.09,-74.52C3933.62,-74.4 5231,-71.51 5632,-30 5643.73,-28.79 5656.36,-26.72 5667.86,-24.55"/>
<polygon fill="#63b8ff" stroke="#63b8ff" points="3642.78,-71.02 3632.78,-74.52 3642.78,-78.02 3642.78,-71.02"/>
</a>
</g>
</g>
<!-- Node7 -->
<g id="Node000007" class="node">
<title>Node7</title>
<g id="a_Node000007"><a xlink:href="blue__and__red__shells_2update_8inc_8c.html" target="_top" xlink:title=" ">
<polygon fill="#fff0f0" stroke="red" points="5925,-30 5791,-30 5791,0 5925,0 5925,-30"/>
<text text-anchor="start" x="5799" y="-18" font-family="Helvetica,sans-Serif" font-size="10.00">src/actors/blue_and</text>
<text text-anchor="middle" x="5858" y="-7" font-family="Helvetica,sans-Serif" font-size="10.00">_red_shells/update.inc.c</text>
</a>
</g>
</g>
<!-- Node5&#45;&gt;Node7 -->
<g id="edge6_Node000005_Node000007" class="edge">
<title>Node5&#45;&gt;Node7</title>
<g id="a_edge6_Node000005_Node000007"><a xlink:title=" ">
<path fill="none" stroke="#63b8ff" d="M3642.88,-74.6C3945.62,-74.91 5349.46,-73.93 5782,-30 5784.94,-29.7 5787.93,-29.35 5790.95,-28.96"/>
<polygon fill="#63b8ff" stroke="#63b8ff" points="3642.58,-71.1 3632.58,-74.59 3642.57,-78.1 3642.58,-71.1"/>
</a>
</g>
</g>
<!-- Node9 -->
<g id="Node000009" class="node">
<title>Node9</title>
<g id="a_Node000009"><a xlink:href="green__shell_2update_8inc_8c.html" target="_top" xlink:title=" ">
<polygon fill="#fff0f0" stroke="red" points="6066.5,-30 5943.5,-30 5943.5,0 6066.5,0 6066.5,-30"/>
<text text-anchor="start" x="5951.5" y="-18" font-family="Helvetica,sans-Serif" font-size="10.00">src/actors/green_shell</text>
<text text-anchor="middle" x="6005" y="-7" font-family="Helvetica,sans-Serif" font-size="10.00">/update.inc.c</text>
</a>
</g>
</g>
<!-- Node5&#45;&gt;Node9 -->
<g id="edge7_Node000005_Node000009" class="edge">
<title>Node5&#45;&gt;Node9</title>
<g id="a_edge7_Node000005_Node000009"><a xlink:title=" ">
<path fill="none" stroke="#63b8ff" d="M3642.79,-74.78C3957.73,-76.11 5469.84,-79.77 5934,-30 5937,-29.68 5940.06,-29.29 5943.14,-28.86"/>
<polygon fill="#63b8ff" stroke="#63b8ff" points="3642.54,-71.28 3632.53,-74.74 3642.51,-78.28 3642.54,-71.28"/>
</a>
</g>
</g>
<!-- Node10 -->
<g id="Node000010" class="node">
<title>Node10</title>
<g id="a_Node000010"><a xlink:href="external_8c.html" target="_top" xlink:title=" ">
<polygon fill="white" stroke="#666666" points="6197.5,-24.5 6084.5,-24.5 6084.5,-5.5 6197.5,-5.5 6197.5,-24.5"/>
<text text-anchor="middle" x="6141" y="-12.5" font-family="Helvetica,sans-Serif" font-size="10.00">src/audio/external.c</text>
</a>
</g>
</g>
<!-- Node5&#45;&gt;Node10 -->
<g id="edge8_Node000005_Node000010" class="edge">
<title>Node5&#45;&gt;Node10</title>
<g id="a_edge8_Node000005_Node000010"><a xlink:title=" ">
<path fill="none" stroke="#63b8ff" d="M3642.93,-74.14C3993.78,-71.87 5827.49,-58.71 6076,-30 6086.32,-28.81 6097.42,-26.72 6107.47,-24.52"/>
<polygon fill="#63b8ff" stroke="#63b8ff" points="3642.73,-70.64 3632.75,-74.21 3642.77,-77.64 3642.73,-70.64"/>
</a>
</g>
</g>
<!-- Node11 -->
<g id="Node000011" class="node">
<title>Node11</title>
<g id="a_Node000011"><a xlink:href="camera_8c.html" target="_top" xlink:title=" ">
<polygon fill="white" stroke="#666666" points="6294.5,-24.5 6215.5,-24.5 6215.5,-5.5 6294.5,-5.5 6294.5,-24.5"/>
<text text-anchor="middle" x="6255" y="-12.5" font-family="Helvetica,sans-Serif" font-size="10.00">src/camera.c</text>
</a>
</g>
</g>
<!-- Node5&#45;&gt;Node11 -->
<g id="edge9_Node000005_Node000011" class="edge">
<title>Node5&#45;&gt;Node11</title>
<g id="a_edge9_Node000005_Node000011"><a xlink:title=" ">
<path fill="none" stroke="#63b8ff" d="M3642.82,-74.44C4004.22,-73.97 5945.89,-69.56 6207,-30 6214.72,-28.83 6222.95,-26.75 6230.37,-24.55"/>
<polygon fill="#63b8ff" stroke="#63b8ff" points="3642.58,-70.94 3632.59,-74.46 3642.59,-77.94 3642.58,-70.94"/>
</a>
</g>
</g>
<!-- Node12 -->
<g id="Node000012" class="node">
<title>Node12</title>
<g id="a_Node000012"><a xlink:href="code__800029B0_8c.html" target="_top" xlink:title=" ">
<polygon fill="white" stroke="#666666" points="6431.5,-24.5 6312.5,-24.5 6312.5,-5.5 6431.5,-5.5 6431.5,-24.5"/>
<text text-anchor="middle" x="6372" y="-12.5" font-family="Helvetica,sans-Serif" font-size="10.00">src/code_800029B0.c</text>
</a>
</g>
</g>
<!-- Node5&#45;&gt;Node12 -->
<g id="edge10_Node000005_Node000012" class="edge">
<title>Node5&#45;&gt;Node12</title>
<g id="a_edge10_Node000005_Node000012"><a xlink:title=" ">
<path fill="none" stroke="#63b8ff" d="M3642.86,-74.2C4012.02,-72.22 6031.29,-60.04 6304,-30 6314.78,-28.81 6326.39,-26.73 6336.91,-24.53"/>
<polygon fill="#63b8ff" stroke="#63b8ff" points="3642.65,-70.7 3632.67,-74.26 3642.69,-77.7 3642.65,-70.7"/>
</a>
</g>
</g>
<!-- Node13 -->
<g id="Node000013" class="node">
<title>Node13</title>
<g id="a_Node000013"><a xlink:href="code__80005FD0_8c.html" target="_top" xlink:title=" ">
<polygon fill="white" stroke="#666666" points="6570,-24.5 6450,-24.5 6450,-5.5 6570,-5.5 6570,-24.5"/>
<text text-anchor="middle" x="6510" y="-12.5" font-family="Helvetica,sans-Serif" font-size="10.00">src/code_80005FD0.c</text>
</a>
</g>
</g>
<!-- Node5&#45;&gt;Node13 -->
<g id="edge11_Node000005_Node000013" class="edge">
<title>Node5&#45;&gt;Node13</title>
<g id="a_edge11_Node000005_Node000013"><a xlink:title=" ">
<path fill="none" stroke="#63b8ff" d="M3642.73,-74.24C4022.3,-72.46 6153.74,-61.11 6441,-30 6451.94,-28.82 6463.71,-26.73 6474.38,-24.53"/>
<polygon fill="#63b8ff" stroke="#63b8ff" points="3642.52,-70.74 3632.53,-74.29 3642.55,-77.74 3642.52,-70.74"/>
</a>
</g>
</g>
<!-- Node14 -->
<g id="Node000014" class="node">
<title>Node14</title>
<g id="a_Node000014"><a xlink:href="code__8003DC40_8c.html" target="_top" xlink:title=" ">
<polygon fill="white" stroke="#666666" points="6709.5,-24.5 6588.5,-24.5 6588.5,-5.5 6709.5,-5.5 6709.5,-24.5"/>
<text text-anchor="middle" x="6649" y="-12.5" font-family="Helvetica,sans-Serif" font-size="10.00">src/code_8003DC40.c</text>
</a>
</g>
</g>
<!-- Node5&#45;&gt;Node14 -->
<g id="edge12_Node000005_Node000014" class="edge">
<title>Node5&#45;&gt;Node14</title>
<g id="a_edge12_Node000005_Node000014"><a xlink:title=" ">
<path fill="none" stroke="#63b8ff" d="M3642.72,-74.28C4032.81,-72.68 6277.09,-62.16 6579,-30 6590.09,-28.82 6602.04,-26.74 6612.86,-24.54"/>
<polygon fill="#63b8ff" stroke="#63b8ff" points="3642.5,-70.78 3632.52,-74.32 3642.53,-77.78 3642.5,-70.78"/>
</a>
</g>
</g>
<!-- Node15 -->
<g id="Node000015" class="node">
<title>Node15</title>
<g id="a_Node000015"><a xlink:href="code__80057C60_8c.html" target="_top" xlink:title=" ">
<polygon fill="white" stroke="#666666" points="6846.5,-24.5 6727.5,-24.5 6727.5,-5.5 6846.5,-5.5 6846.5,-24.5"/>
<text text-anchor="middle" x="6787" y="-12.5" font-family="Helvetica,sans-Serif" font-size="10.00">src/code_80057C60.c</text>
</a>
</g>
</g>
<!-- Node5&#45;&gt;Node15 -->
<g id="edge13_Node000005_Node000015" class="edge">
<title>Node5&#45;&gt;Node15</title>
<g id="a_edge13_Node000005_Node000015"><a xlink:title=" ">
<path fill="none" stroke="#63b8ff" d="M3642.87,-74.34C4043.87,-73.12 6402.4,-64.53 6719,-30 6729.78,-28.82 6741.39,-26.74 6751.91,-24.54"/>
<polygon fill="#63b8ff" stroke="#63b8ff" points="3642.66,-70.84 3632.67,-74.37 3642.68,-77.84 3642.66,-70.84"/>
</a>
</g>
</g>
<!-- Node16 -->
<g id="Node000016" class="node">
<title>Node16</title>
<g id="a_Node000016"><a xlink:href="code__8006E9C0_8c.html" target="_top" xlink:title=" ">
<polygon fill="white" stroke="#666666" points="517.5,-24.5 398.5,-24.5 398.5,-5.5 517.5,-5.5 517.5,-24.5"/>
<text text-anchor="middle" x="458" y="-12.5" font-family="Helvetica,sans-Serif" font-size="10.00">src/code_8006E9C0.c</text>
</a>
</g>
</g>
<!-- Node5&#45;&gt;Node16 -->
<g id="edge14_Node000005_Node000016" class="edge">
<title>Node5&#45;&gt;Node16</title>
<g id="a_edge14_Node000005_Node000016"><a xlink:title=" ">
<path fill="none" stroke="#63b8ff" d="M3527.28,-74.31C3132.39,-72.89 835.64,-63.27 527,-30 516.06,-28.82 504.29,-26.74 493.62,-24.54"/>
<polygon fill="#63b8ff" stroke="#63b8ff" points="3527.32,-77.81 3537.34,-74.34 3527.35,-70.81 3527.32,-77.81"/>
</a>
</g>
</g>
<!-- Node17 -->
<g id="Node000017" class="node">
<title>Node17</title>
<g id="a_Node000017"><a xlink:href="code__80086E70_8c.html" target="_top" xlink:title=" ">
<polygon fill="white" stroke="#666666" points="654.5,-24.5 535.5,-24.5 535.5,-5.5 654.5,-5.5 654.5,-24.5"/>
<text text-anchor="middle" x="595" y="-12.5" font-family="Helvetica,sans-Serif" font-size="10.00">src/code_80086E70.c</text>
</a>
</g>
</g>
<!-- Node5&#45;&gt;Node17 -->
<g id="edge15_Node000005_Node000017" class="edge">
<title>Node5&#45;&gt;Node17</title>
<g id="a_edge15_Node000005_Node000017"><a xlink:title=" ">
<path fill="none" stroke="#63b8ff" d="M3527.16,-74.26C3142.3,-72.6 958.11,-61.8 664,-30 653.06,-28.82 641.29,-26.74 630.62,-24.53"/>
<polygon fill="#63b8ff" stroke="#63b8ff" points="3527.22,-77.76 3537.24,-74.31 3527.25,-70.76 3527.22,-77.76"/>
</a>
</g>
</g>
<!-- Node18 -->
<g id="Node000018" class="node">
<title>Node18</title>
<g id="a_Node000018"><a xlink:href="effects_8c.html" target="_top" xlink:title=" ">
<polygon fill="white" stroke="#666666" points="747.5,-24.5 672.5,-24.5 672.5,-5.5 747.5,-5.5 747.5,-24.5"/>
<text text-anchor="middle" x="710" y="-12.5" font-family="Helvetica,sans-Serif" font-size="10.00">src/effects.c</text>
</a>
</g>
</g>
<!-- Node5&#45;&gt;Node18 -->
<g id="edge16_Node000005_Node000018" class="edge">
<title>Node5&#45;&gt;Node18</title>
<g id="a_edge16_Node000005_Node000018"><a xlink:title=" ">
<path fill="none" stroke="#63b8ff" d="M3527.19,-74.54C3149.45,-74.68 1039.63,-73.47 757,-30 749.43,-28.84 741.37,-26.76 734.1,-24.56"/>
<polygon fill="#63b8ff" stroke="#63b8ff" points="3527.35,-78.04 3537.35,-74.54 3527.34,-71.04 3527.35,-78.04"/>
</a>
</g>
</g>
<!-- Node19 -->
<g id="Node000019" class="node">
<title>Node19</title>
<g id="a_Node000019"><a xlink:href="ceremony__and__credits_8c.html" target="_top" xlink:title=" ">
<polygon fill="white" stroke="#666666" points="884.5,-30 765.5,-30 765.5,0 884.5,0 884.5,-30"/>
<text text-anchor="start" x="773.5" y="-18" font-family="Helvetica,sans-Serif" font-size="10.00">src/ending/ceremony</text>
<text text-anchor="middle" x="825" y="-7" font-family="Helvetica,sans-Serif" font-size="10.00">_and_credits.c</text>
</a>
</g>
</g>
<!-- Node5&#45;&gt;Node19 -->
<g id="edge17_Node000005_Node000019" class="edge">
<title>Node5&#45;&gt;Node19</title>
<g id="a_edge17_Node000005_Node000019"><a xlink:title=" ">
<path fill="none" stroke="#63b8ff" d="M3527.15,-74.18C3160.26,-72.08 1163.8,-59.35 894,-30 890.96,-29.67 887.86,-29.27 884.73,-28.82"/>
<polygon fill="#63b8ff" stroke="#63b8ff" points="3527.26,-77.68 3537.28,-74.24 3527.3,-70.68 3527.26,-77.68"/>
</a>
</g>
</g>
<!-- Node20 -->
<g id="Node000020" class="node">
<title>Node20</title>
<g id="a_Node000020"><a xlink:href="code__80280000_8c.html" target="_top" xlink:title=" ">
<polygon fill="white" stroke="#666666" points="1057.5,-24.5 902.5,-24.5 902.5,-5.5 1057.5,-5.5 1057.5,-24.5"/>
<text text-anchor="middle" x="980" y="-12.5" font-family="Helvetica,sans-Serif" font-size="10.00">src/ending/code_80280000.c</text>
</a>
</g>
</g>
<!-- Node5&#45;&gt;Node20 -->
<g id="edge18_Node000005_Node000020" class="edge">
<title>Node5&#45;&gt;Node20</title>
<g id="a_edge18_Node000005_Node000020"><a xlink:title=" ">
<path fill="none" stroke="#63b8ff" d="M3526.81,-74.59C3197.76,-74.96 1567.3,-74.45 1067,-30 1053.44,-28.8 1038.79,-26.74 1025.45,-24.56"/>
<polygon fill="#63b8ff" stroke="#63b8ff" points="3527.07,-78.09 3537.06,-74.58 3527.06,-71.09 3527.07,-78.09"/>
</a>
</g>
</g>
<!-- Node21 -->
<g id="Node000021" class="node">
<title>Node21</title>
<g id="a_Node000021"><a xlink:href="code__80281780_8c.html" target="_top" xlink:title=" ">
<polygon fill="white" stroke="#666666" points="1230.5,-24.5 1075.5,-24.5 1075.5,-5.5 1230.5,-5.5 1230.5,-24.5"/>
<text text-anchor="middle" x="1153" y="-12.5" font-family="Helvetica,sans-Serif" font-size="10.00">src/ending/code_80281780.c</text>
</a>
</g>
</g>
<!-- Node5&#45;&gt;Node21 -->
<g id="edge19_Node000005_Node000021" class="edge">
<title>Node5&#45;&gt;Node21</title>
<g id="a_edge19_Node000005_Node000021"><a xlink:title=" ">
<path fill="none" stroke="#63b8ff" d="M3526.82,-74.51C3211.45,-74.37 1703.92,-71.52 1240,-30 1226.44,-28.79 1211.79,-26.72 1198.45,-24.55"/>
<polygon fill="#63b8ff" stroke="#63b8ff" points="3527.1,-78.01 3537.1,-74.51 3527.11,-71.01 3527.1,-78.01"/>
</a>
</g>
</g>
<!-- Node22 -->
<g id="Node000022" class="node">
<title>Node22</title>
<g id="a_Node000022"><a xlink:href="code__80281C40_8c.html" target="_top" xlink:title=" ">
<polygon fill="white" stroke="#666666" points="1403.5,-24.5 1248.5,-24.5 1248.5,-5.5 1403.5,-5.5 1403.5,-24.5"/>
<text text-anchor="middle" x="1326" y="-12.5" font-family="Helvetica,sans-Serif" font-size="10.00">src/ending/code_80281C40.c</text>
</a>
</g>
</g>
<!-- Node5&#45;&gt;Node22 -->
<g id="edge20_Node000005_Node000022" class="edge">
<title>Node5&#45;&gt;Node22</title>
<g id="a_edge20_Node000005_Node000022"><a xlink:title=" ">
<path fill="none" stroke="#63b8ff" d="M3526.82,-74.4C3225.58,-73.74 1840.61,-68.6 1413,-30 1399.44,-28.78 1384.79,-26.71 1371.45,-24.54"/>
<polygon fill="#63b8ff" stroke="#63b8ff" points="3527.07,-77.9 3537.08,-74.43 3527.08,-70.9 3527.07,-77.9"/>
</a>
</g>
</g>
<!-- Node23 -->
<g id="Node000023" class="node">
<title>Node23</title>
<g id="a_Node000023"><a xlink:href="podium__ceremony__actors_8c.html" target="_top" xlink:title=" ">
<polygon fill="white" stroke="#666666" points="1582.5,-30 1421.5,-30 1421.5,0 1582.5,0 1582.5,-30"/>
<text text-anchor="start" x="1429.5" y="-18" font-family="Helvetica,sans-Serif" font-size="10.00">src/ending/podium_ceremony</text>
<text text-anchor="middle" x="1502" y="-7" font-family="Helvetica,sans-Serif" font-size="10.00">_actors.c</text>
</a>
</g>
</g>
<!-- Node5&#45;&gt;Node23 -->
<g id="edge21_Node000005_Node000023" class="edge">
<title>Node5&#45;&gt;Node23</title>
<g id="a_edge21_Node000005_Node000023"><a xlink:title=" ">
<path fill="none" stroke="#63b8ff" d="M3527.07,-74.24C3241.58,-72.8 1982.34,-64.57 1592,-30 1589.01,-29.73 1585.96,-29.43 1582.89,-29.1"/>
<polygon fill="#63b8ff" stroke="#63b8ff" points="3527.19,-77.74 3537.21,-74.29 3527.23,-70.74 3527.19,-77.74"/>
</a>
</g>
</g>
<!-- Node24 -->
<g id="Node000024" class="node">
<title>Node24</title>
<g id="a_Node000024"><a xlink:href="World_8cpp.html" target="_top" xlink:title=" ">
<polygon fill="white" stroke="#666666" points="1719,-24.5 1601,-24.5 1601,-5.5 1719,-5.5 1719,-24.5"/>
<text text-anchor="middle" x="1660" y="-12.5" font-family="Helvetica,sans-Serif" font-size="10.00">src/engine/World.cpp</text>
</a>
</g>
</g>
<!-- Node5&#45;&gt;Node24 -->
<g id="edge23_Node000005_Node000024" class="edge">
<title>Node5&#45;&gt;Node24</title>
<g id="a_edge23_Node000005_Node000024"><a xlink:title=" ">
<path fill="none" stroke="#63b8ff" d="M3527.08,-74.49C3253.62,-74.21 2089.89,-70.62 1729,-30 1718.19,-28.78 1706.56,-26.72 1695.98,-24.55"/>
<polygon fill="#63b8ff" stroke="#63b8ff" points="3527.18,-77.99 3537.19,-74.49 3527.19,-70.99 3527.18,-77.99"/>
</a>
</g>
</g>
<!-- Node25 -->
<g id="Node000025" class="node">
<title>Node25</title>
<g id="a_Node000025"><a xlink:href="Cloud_8cpp.html" target="_top" xlink:title=" ">
<polygon fill="white" stroke="#666666" points="1888.5,-24.5 1737.5,-24.5 1737.5,-5.5 1888.5,-5.5 1888.5,-24.5"/>
<text text-anchor="middle" x="1813" y="-12.5" font-family="Helvetica,sans-Serif" font-size="10.00">src/engine/actors/Cloud.cpp</text>
</a>
</g>
</g>
<!-- Node5&#45;&gt;Node25 -->
<g id="edge24_Node000005_Node000025" class="edge">
<title>Node5&#45;&gt;Node25</title>
<g id="a_edge24_Node000005_Node000025"><a xlink:title=" ">
<path fill="none" stroke="#63b8ff" d="M3527.04,-74.04C3269.16,-71.81 2224.34,-61.03 1898,-30 1884.9,-28.75 1870.76,-26.71 1857.85,-24.56"/>
<polygon fill="#63b8ff" stroke="#63b8ff" points="3527.28,-77.54 3537.31,-74.12 3527.34,-70.54 3527.28,-77.54"/>
</a>
</g>
</g>
<!-- Node26 -->
<g id="Node000026" class="node">
<title>Node26</title>
<g id="a_Node000026"><a xlink:href="FallingRock_8cpp.html" target="_top" xlink:title=" ">
<polygon fill="white" stroke="#666666" points="2041,-30 1907,-30 1907,0 2041,0 2041,-30"/>
<text text-anchor="start" x="1915" y="-18" font-family="Helvetica,sans-Serif" font-size="10.00">src/engine/actors/Falling</text>
<text text-anchor="middle" x="1974" y="-7" font-family="Helvetica,sans-Serif" font-size="10.00">Rock.cpp</text>
</a>
</g>
</g>
<!-- Node5&#45;&gt;Node26 -->
<g id="edge25_Node000005_Node000026" class="edge">
<title>Node5&#45;&gt;Node26</title>
<g id="a_edge25_Node000005_Node000026"><a xlink:title=" ">
<path fill="none" stroke="#63b8ff" d="M3527.14,-74.01C3284.06,-71.77 2344.53,-61.21 2050,-30 2047.06,-29.69 2044.07,-29.33 2041.06,-28.93"/>
<polygon fill="#63b8ff" stroke="#63b8ff" points="3527.15,-77.51 3537.18,-74.1 3527.21,-70.51 3527.15,-77.51"/>
</a>
</g>
</g>
<!-- Node27 -->
<g id="Node000027" class="node">
<title>Node27</title>
<g id="a_Node000027"><a xlink:href="Finishline_8cpp.html" target="_top" xlink:title=" ">
<polygon fill="white" stroke="#666666" points="2229,-24.5 2059,-24.5 2059,-5.5 2229,-5.5 2229,-24.5"/>
<text text-anchor="middle" x="2144" y="-12.5" font-family="Helvetica,sans-Serif" font-size="10.00">src/engine/actors/Finishline.cpp</text>
</a>
</g>
</g>
<!-- Node5&#45;&gt;Node27 -->
<g id="edge26_Node000005_Node000027" class="edge">
<title>Node5&#45;&gt;Node27</title>
<g id="a_edge26_Node000005_Node000027"><a xlink:title=" ">
<path fill="none" stroke="#63b8ff" d="M3527.32,-74.96C3340.56,-75.93 2735.71,-75.13 2238,-30 2223.7,-28.7 2208.27,-26.67 2194.12,-24.55"/>
<polygon fill="#63b8ff" stroke="#63b8ff" points="3527.48,-78.46 3537.46,-74.9 3527.44,-71.46 3527.48,-78.46"/>
</a>
</g>
</g>
<!-- Node28 -->
<g id="Node000028" class="node">
<title>Node28</title>
<g id="a_Node000028"><a xlink:href="Ship_8cpp.html" target="_top" xlink:title=" ">
<polygon fill="white" stroke="#666666" points="2391,-24.5 2247,-24.5 2247,-5.5 2391,-5.5 2391,-24.5"/>
<text text-anchor="middle" x="2319" y="-12.5" font-family="Helvetica,sans-Serif" font-size="10.00">src/engine/actors/Ship.cpp</text>
</a>
</g>
</g>
<!-- Node5&#45;&gt;Node28 -->
<g id="edge27_Node000005_Node000028" class="edge">
<title>Node5&#45;&gt;Node28</title>
<g id="a_edge27_Node000005_Node000028"><a xlink:title=" ">
<path fill="none" stroke="#63b8ff" d="M3527.39,-75.01C3355.6,-75.97 2832.09,-74.71 2401,-30 2388.5,-28.7 2375.03,-26.67 2362.69,-24.55"/>
<polygon fill="#63b8ff" stroke="#63b8ff" points="3527.49,-78.51 3537.47,-74.95 3527.45,-71.51 3527.49,-78.51"/>
</a>
</g>
</g>
<!-- Node29 -->
<g id="Node000029" class="node">
<title>Node29</title>
<g id="a_Node000029"><a xlink:href="Starship_8cpp.html" target="_top" xlink:title=" ">
<polygon fill="white" stroke="#666666" points="2572.5,-24.5 2409.5,-24.5 2409.5,-5.5 2572.5,-5.5 2572.5,-24.5"/>
<text text-anchor="middle" x="2491" y="-12.5" font-family="Helvetica,sans-Serif" font-size="10.00">src/engine/actors/Starship.cpp</text>
</a>
</g>
</g>
<!-- Node5&#45;&gt;Node29 -->
<g id="edge28_Node000005_Node000029" class="edge">
<title>Node5&#45;&gt;Node29</title>
<g id="a_edge28_Node000005_Node000029"><a xlink:title=" ">
<path fill="none" stroke="#63b8ff" d="M3527.19,-74.12C3373.16,-72.64 2940.2,-65.39 2582,-30 2568.32,-28.65 2553.56,-26.62 2539.99,-24.53"/>
<polygon fill="#63b8ff" stroke="#63b8ff" points="3527.33,-77.62 3537.36,-74.22 3527.39,-70.62 3527.33,-77.62"/>
</a>
</g>
</g>
<!-- Node30 -->
<g id="Node000030" class="node">
<title>Node30</title>
<g id="a_Node000030"><a xlink:href="Text_8h.html" target="_top" xlink:title=" ">
<polygon fill="#fff0f0" stroke="red" points="2723,-24.5 2591,-24.5 2591,-5.5 2723,-5.5 2723,-24.5"/>
<text text-anchor="middle" x="2657" y="-12.5" font-family="Helvetica,sans-Serif" font-size="10.00">src/engine/actors/Text.h</text>
</a>
</g>
</g>
<!-- Node5&#45;&gt;Node30 -->
<g id="edge29_Node000005_Node000030" class="edge">
<title>Node5&#45;&gt;Node30</title>
<g id="a_edge29_Node000005_Node000030"><a xlink:title=" ">
<path fill="none" stroke="#63b8ff" d="M3526.9,-74.06C3388.79,-72.46 3030.13,-64.98 2733,-30 2721.54,-28.65 2709.2,-26.63 2697.87,-24.54"/>
<polygon fill="#63b8ff" stroke="#63b8ff" points="3527.21,-77.57 3537.24,-74.18 3527.28,-70.57 3527.21,-77.57"/>
</a>
</g>
</g>
<!-- Node38 -->
<g id="Node000038" class="node">
<title>Node38</title>
<g id="a_Node000038"><a xlink:href="Course_8cpp.html" target="_top" xlink:title=" ">
<polygon fill="white" stroke="#666666" points="2848.5,-30 2741.5,-30 2741.5,0 2848.5,0 2848.5,-30"/>
<text text-anchor="start" x="2749.5" y="-18" font-family="Helvetica,sans-Serif" font-size="10.00">src/engine/courses</text>
<text text-anchor="middle" x="2795" y="-7" font-family="Helvetica,sans-Serif" font-size="10.00">/Course.cpp</text>
</a>
</g>
</g>
<!-- Node5&#45;&gt;Node38 -->
<g id="edge30_Node000005_Node000038" class="edge">
<title>Node5&#45;&gt;Node38</title>
<g id="a_edge30_Node000005_Node000038"><a xlink:title=" ">
<path fill="none" stroke="#63b8ff" d="M3526.73,-74.04C3402.97,-72.38 3104.99,-64.78 2858,-30 2854.89,-29.56 2851.71,-29.05 2848.51,-28.49"/>
<polygon fill="#63b8ff" stroke="#63b8ff" points="3527.06,-77.54 3537.11,-74.17 3527.15,-70.55 3527.06,-77.54"/>
</a>
</g>
</g>
<!-- Node39 -->
<g id="Node000039" class="node">
<title>Node39</title>
<g id="a_Node000039"><a xlink:href="Editor_8cpp.html" target="_top" xlink:title=" ">
<polygon fill="white" stroke="#666666" points="3015.5,-24.5 2866.5,-24.5 2866.5,-5.5 3015.5,-5.5 3015.5,-24.5"/>
<text text-anchor="middle" x="2941" y="-12.5" font-family="Helvetica,sans-Serif" font-size="10.00">src/engine/editor/Editor.cpp</text>
</a>
</g>
</g>
<!-- Node5&#45;&gt;Node39 -->
<g id="edge31_Node000005_Node000039" class="edge">
<title>Node5&#45;&gt;Node39</title>
<g id="a_edge31_Node000005_Node000039"><a xlink:title=" ">
<path fill="none" stroke="#63b8ff" d="M3527.22,-71.55C3425.46,-65.99 3207.73,-52.45 3025,-30 3012.97,-28.52 3000.02,-26.55 2987.99,-24.56"/>
<polygon fill="#63b8ff" stroke="#63b8ff" points="3527.12,-75.05 3537.29,-72.09 3527.49,-68.06 3527.12,-75.05"/>
</a>
</g>
</g>
<!-- Node40 -->
<g id="Node000040" class="node">
<title>Node40</title>
<g id="a_Node000040"><a xlink:href="EditorMath_8cpp.html" target="_top" xlink:title=" ">
<polygon fill="white" stroke="#666666" points="3164,-30 3034,-30 3034,0 3164,0 3164,-30"/>
<text text-anchor="start" x="3042" y="-18" font-family="Helvetica,sans-Serif" font-size="10.00">src/engine/editor/Editor</text>
<text text-anchor="middle" x="3099" y="-7" font-family="Helvetica,sans-Serif" font-size="10.00">Math.cpp</text>
</a>
</g>
</g>
<!-- Node5&#45;&gt;Node40 -->
<g id="edge32_Node000005_Node000040" class="edge">
<title>Node5&#45;&gt;Node40</title>
<g id="a_edge32_Node000005_Node000040"><a xlink:title=" ">
<path fill="none" stroke="#63b8ff" d="M3527.06,-69.64C3447.33,-62.63 3299.38,-48.46 3174,-30 3170.85,-29.54 3167.64,-29.04 3164.4,-28.51"/>
<polygon fill="#63b8ff" stroke="#63b8ff" points="3527.12,-73.16 3537.38,-70.54 3527.73,-66.18 3527.12,-73.16"/>
</a>
</g>
</g>
<!-- Node41 -->
<g id="Node000041" class="node">
<title>Node41</title>
<g id="a_Node000041"><a xlink:href="Gizmo_8cpp.html" target="_top" xlink:title=" ">
<polygon fill="white" stroke="#666666" points="3335.5,-24.5 3182.5,-24.5 3182.5,-5.5 3335.5,-5.5 3335.5,-24.5"/>
<text text-anchor="middle" x="3259" y="-12.5" font-family="Helvetica,sans-Serif" font-size="10.00">src/engine/editor/Gizmo.cpp</text>
</a>
</g>
</g>
<!-- Node5&#45;&gt;Node41 -->
<g id="edge33_Node000005_Node000041" class="edge">
<title>Node5&#45;&gt;Node41</title>
<g id="a_edge33_Node000005_Node000041"><a xlink:title=" ">
<path fill="none" stroke="#63b8ff" d="M3527.45,-64.17C3464.58,-52.89 3365.04,-35.03 3306.46,-24.52"/>
<polygon fill="#63b8ff" stroke="#63b8ff" points="3527.14,-67.67 3537.6,-65.99 3528.37,-60.78 3527.14,-67.67"/>
</a>
</g>
</g>
<!-- Node42 -->
<g id="Node000042" class="node">
<title>Node42</title>
<g id="a_Node000042"><a xlink:href="Light_8cpp.html" target="_top" xlink:title=" ">
<polygon fill="white" stroke="#666666" points="3500,-24.5 3354,-24.5 3354,-5.5 3500,-5.5 3500,-24.5"/>
<text text-anchor="middle" x="3427" y="-12.5" font-family="Helvetica,sans-Serif" font-size="10.00">src/engine/editor/Light.cpp</text>
</a>
</g>
</g>
<!-- Node5&#45;&gt;Node42 -->
<g id="edge34_Node000005_Node000042" class="edge">
<title>Node5&#45;&gt;Node42</title>
<g id="a_edge34_Node000005_Node000042"><a xlink:title=" ">
<path fill="none" stroke="#63b8ff" d="M3552.26,-62.38C3521.72,-51.07 3476.93,-34.49 3450,-24.52"/>
<polygon fill="#63b8ff" stroke="#63b8ff" points="3551.43,-65.8 3562.03,-65.99 3553.86,-59.24 3551.43,-65.8"/>
</a>
</g>
</g>
<!-- Node43 -->
<g id="Node000043" class="node">
<title>Node43</title>
<g id="a_Node000043"><a xlink:href="ObjectPicker_8cpp.html" target="_top" xlink:title=" ">
<polygon fill="white" stroke="#666666" points="3651.5,-30 3518.5,-30 3518.5,0 3651.5,0 3651.5,-30"/>
<text text-anchor="start" x="3526.5" y="-18" font-family="Helvetica,sans-Serif" font-size="10.00">src/engine/editor/Object</text>
<text text-anchor="middle" x="3585" y="-7" font-family="Helvetica,sans-Serif" font-size="10.00">Picker.cpp</text>
</a>
</g>
</g>
<!-- Node5&#45;&gt;Node43 -->
<g id="edge35_Node000005_Node000043" class="edge">
<title>Node5&#45;&gt;Node43</title>
<g id="a_edge35_Node000005_Node000043"><a xlink:title=" ">
<path fill="none" stroke="#63b8ff" d="M3585,-55.65C3585,-47.36 3585,-37.78 3585,-30.11"/>
<polygon fill="#63b8ff" stroke="#63b8ff" points="3581.5,-55.87 3585,-65.87 3588.5,-55.87 3581.5,-55.87"/>
</a>
</g>
</g>
<!-- Node44 -->
<g id="Node000044" class="node">
<title>Node44</title>
<g id="a_Node000044"><a xlink:href="SceneManager_8cpp.html" target="_top" xlink:title=" ">
<polygon fill="white" stroke="#666666" points="3862.5,-24.5 3669.5,-24.5 3669.5,-5.5 3862.5,-5.5 3862.5,-24.5"/>
<text text-anchor="middle" x="3766" y="-12.5" font-family="Helvetica,sans-Serif" font-size="10.00">src/engine/editor/SceneManager.cpp</text>
</a>
</g>
</g>
<!-- Node5&#45;&gt;Node44 -->
<g id="edge36_Node000005_Node000044" class="edge">
<title>Node5&#45;&gt;Node44</title>
<g id="a_edge36_Node000005_Node000044"><a xlink:title=" ">
<path fill="none" stroke="#63b8ff" d="M3621.15,-62.82C3656.15,-51.5 3708.4,-34.62 3739.65,-24.52"/>
<polygon fill="#63b8ff" stroke="#63b8ff" points="3619.76,-59.59 3611.32,-65.99 3621.91,-66.25 3619.76,-59.59"/>
</a>
</g>
</g>
<!-- Node45 -->
<g id="Node000045" class="node">
<title>Node45</title>
<g id="a_Node000045"><a xlink:href="BombKart_8cpp.html" target="_top" xlink:title=" ">
<polygon fill="white" stroke="#666666" points="3985.5,-30 3880.5,-30 3880.5,0 3985.5,0 3985.5,-30"/>
<text text-anchor="start" x="3888.5" y="-18" font-family="Helvetica,sans-Serif" font-size="10.00">src/engine/objects</text>
<text text-anchor="middle" x="3933" y="-7" font-family="Helvetica,sans-Serif" font-size="10.00">/BombKart.cpp</text>
</a>
</g>
</g>
<!-- Node5&#45;&gt;Node45 -->
<g id="edge37_Node000005_Node000045" class="edge">
<title>Node5&#45;&gt;Node45</title>
<g id="a_edge37_Node000005_Node000045"><a xlink:title=" ">
<path fill="none" stroke="#63b8ff" d="M3642.75,-66.79C3700.86,-58.74 3792.94,-45.18 3872,-30 3874.77,-29.47 3877.61,-28.9 3880.48,-28.31"/>
<polygon fill="#63b8ff" stroke="#63b8ff" points="3642.09,-63.35 3632.66,-68.18 3643.05,-70.28 3642.09,-63.35"/>
</a>
</g>
</g>
<!-- Node46 -->
<g id="Node000046" class="node">
<title>Node46</title>
<g id="a_Node000046"><a xlink:href="CheepCheep_8cpp.html" target="_top" xlink:title=" ">
<polygon fill="white" stroke="#666666" points="4108.5,-30 4003.5,-30 4003.5,0 4108.5,0 4108.5,-30"/>
<text text-anchor="start" x="4011.5" y="-18" font-family="Helvetica,sans-Serif" font-size="10.00">src/engine/objects</text>
<text text-anchor="middle" x="4056" y="-7" font-family="Helvetica,sans-Serif" font-size="10.00">/CheepCheep.cpp</text>
</a>
</g>
</g>
<!-- Node5&#45;&gt;Node46 -->
<g id="edge38_Node000005_Node000046" class="edge">
<title>Node5&#45;&gt;Node46</title>
<g id="a_edge38_Node000005_Node000046"><a xlink:title=" ">
<path fill="none" stroke="#63b8ff" d="M3642.91,-70.37C3722.59,-64.2 3870.33,-51 3995,-30 3997.68,-29.55 4000.42,-29.05 4003.17,-28.52"/>
<polygon fill="#63b8ff" stroke="#63b8ff" points="3642.3,-66.91 3632.6,-71.16 3642.84,-73.89 3642.3,-66.91"/>
</a>
</g>
</g>
<!-- Node47 -->
<g id="Node000047" class="node">
<title>Node47</title>
<g id="a_Node000047"><a xlink:href="Crab_8cpp.html" target="_top" xlink:title=" ">
<polygon fill="white" stroke="#666666" points="4231.5,-30 4126.5,-30 4126.5,0 4231.5,0 4231.5,-30"/>
<text text-anchor="start" x="4134.5" y="-18" font-family="Helvetica,sans-Serif" font-size="10.00">src/engine/objects</text>
<text text-anchor="middle" x="4179" y="-7" font-family="Helvetica,sans-Serif" font-size="10.00">/Crab.cpp</text>
</a>
</g>
</g>
<!-- Node5&#45;&gt;Node47 -->
<g id="edge39_Node000005_Node000047" class="edge">
<title>Node5&#45;&gt;Node47</title>
<g id="a_edge39_Node000005_Node000047"><a xlink:title=" ">
<path fill="none" stroke="#63b8ff" d="M3642.7,-72.37C3740.83,-68.16 3946.31,-56.73 4118,-30 4120.68,-29.58 4123.43,-29.11 4126.19,-28.6"/>
<polygon fill="#63b8ff" stroke="#63b8ff" points="3642.53,-68.88 3632.69,-72.8 3642.82,-75.87 3642.53,-68.88"/>
</a>
</g>
</g>
<!-- Node48 -->
<g id="Node000048" class="node">
<title>Node48</title>
<g id="a_Node000048"><a xlink:href="GrandPrixBalloons_8cpp.html" target="_top" xlink:title=" ">
<polygon fill="white" stroke="#666666" points="4380,-30 4250,-30 4250,0 4380,0 4380,-30"/>
<text text-anchor="start" x="4258" y="-18" font-family="Helvetica,sans-Serif" font-size="10.00">src/engine/objects</text>
<text text-anchor="middle" x="4315" y="-7" font-family="Helvetica,sans-Serif" font-size="10.00">/GrandPrixBalloons.cpp</text>
</a>
</g>
</g>
<!-- Node5&#45;&gt;Node48 -->
<g id="edge40_Node000005_Node000048" class="edge">
<title>Node5&#45;&gt;Node48</title>
<g id="a_edge40_Node000005_Node000048"><a xlink:title=" ">
<path fill="none" stroke="#63b8ff" d="M3642.81,-72.89C3757.37,-69.2 4021.13,-58.15 4241,-30 4243.85,-29.63 4246.76,-29.23 4249.7,-28.79"/>
<polygon fill="#63b8ff" stroke="#63b8ff" points="3642.41,-69.4 3632.52,-73.22 3642.63,-76.4 3642.41,-69.4"/>
</a>
</g>
</g>
<!-- Node49 -->
<g id="Node000049" class="node">
<title>Node49</title>
<g id="a_Node000049"><a xlink:href="Hedgehog_8cpp.html" target="_top" xlink:title=" ">
<polygon fill="white" stroke="#666666" points="4503.5,-30 4398.5,-30 4398.5,0 4503.5,0 4503.5,-30"/>
<text text-anchor="start" x="4406.5" y="-18" font-family="Helvetica,sans-Serif" font-size="10.00">src/engine/objects</text>
<text text-anchor="middle" x="4451" y="-7" font-family="Helvetica,sans-Serif" font-size="10.00">/Hedgehog.cpp</text>
</a>
</g>
</g>
<!-- Node5&#45;&gt;Node49 -->
<g id="edge41_Node000005_Node000049" class="edge">
<title>Node5&#45;&gt;Node49</title>
<g id="a_edge41_Node000005_Node000049"><a xlink:title=" ">
<path fill="none" stroke="#63b8ff" d="M3643.19,-74.59C3776.04,-74.09 4111.64,-68.71 4389,-30 4392.06,-29.57 4395.19,-29.07 4398.34,-28.52"/>
<polygon fill="#63b8ff" stroke="#63b8ff" points="3642.83,-71.1 3632.84,-74.63 3642.85,-78.1 3642.83,-71.1"/>
</a>
</g>
</g>
<!-- Node50 -->
<g id="Node000050" class="node">
<title>Node50</title>
<g id="a_Node000050"><a xlink:href="HotAirBalloon_8cpp.html" target="_top" xlink:title=" ">
<polygon fill="white" stroke="#666666" points="4628.5,-30 4521.5,-30 4521.5,0 4628.5,0 4628.5,-30"/>
<text text-anchor="start" x="4529.5" y="-18" font-family="Helvetica,sans-Serif" font-size="10.00">src/engine/objects</text>
<text text-anchor="middle" x="4575" y="-7" font-family="Helvetica,sans-Serif" font-size="10.00">/HotAirBalloon.cpp</text>
</a>
</g>
</g>
<!-- Node5&#45;&gt;Node50 -->
<g id="edge42_Node000005_Node000050" class="edge">
<title>Node5&#45;&gt;Node50</title>
<g id="a_edge42_Node000005_Node000050"><a xlink:title=" ">
<path fill="none" stroke="#63b8ff" d="M3642.68,-75.21C3788.96,-76.26 4186.01,-74.41 4513,-30 4515.73,-29.63 4518.52,-29.2 4521.34,-28.72"/>
<polygon fill="#63b8ff" stroke="#63b8ff" points="3642.62,-71.71 3632.59,-75.13 3642.56,-78.71 3642.62,-71.71"/>
</a>
</g>
</g>
<!-- Node51 -->
<g id="Node000051" class="node">
<title>Node51</title>
<g id="a_Node000051"><a xlink:href="Lakitu_8cpp.html" target="_top" xlink:title=" ">
<polygon fill="white" stroke="#666666" points="4751.5,-30 4646.5,-30 4646.5,0 4751.5,0 4751.5,-30"/>
<text text-anchor="start" x="4654.5" y="-18" font-family="Helvetica,sans-Serif" font-size="10.00">src/engine/objects</text>
<text text-anchor="middle" x="4699" y="-7" font-family="Helvetica,sans-Serif" font-size="10.00">/Lakitu.cpp</text>
</a>
</g>
</g>
<!-- Node5&#45;&gt;Node51 -->
<g id="edge43_Node000005_Node000051" class="edge">
<title>Node5&#45;&gt;Node51</title>
<g id="a_edge43_Node000005_Node000051"><a xlink:title=" ">
<path fill="none" stroke="#63b8ff" d="M3642.91,-73.45C3833.99,-69.77 4443.25,-56.24 4638,-30 4640.69,-29.64 4643.44,-29.21 4646.21,-28.74"/>
<polygon fill="#63b8ff" stroke="#63b8ff" points="3642.73,-69.95 3632.8,-73.64 3642.86,-76.95 3642.73,-69.95"/>
</a>
</g>
</g>
<!-- Node52 -->
<g id="Node000052" class="node">
<title>Node52</title>
<g id="a_Node000052"><a xlink:href="Penguin_8cpp.html" target="_top" xlink:title=" ">
<polygon fill="white" stroke="#666666" points="4874.5,-30 4769.5,-30 4769.5,0 4874.5,0 4874.5,-30"/>
<text text-anchor="start" x="4777.5" y="-18" font-family="Helvetica,sans-Serif" font-size="10.00">src/engine/objects</text>
<text text-anchor="middle" x="4822" y="-7" font-family="Helvetica,sans-Serif" font-size="10.00">/Penguin.cpp</text>
</a>
</g>
</g>
<!-- Node5&#45;&gt;Node52 -->
<g id="edge44_Node000005_Node000052" class="edge">
<title>Node5&#45;&gt;Node52</title>
<g id="a_edge44_Node000005_Node000052"><a xlink:title=" ">
<path fill="none" stroke="#63b8ff" d="M3642.98,-73.75C3848.42,-70.86 4541.14,-59.13 4761,-30 4763.69,-29.64 4766.44,-29.22 4769.21,-28.75"/>
<polygon fill="#63b8ff" stroke="#63b8ff" points="3642.66,-70.25 3632.71,-73.89 3642.76,-77.25 3642.66,-70.25"/>
</a>
</g>
</g>
<!-- Node53 -->
<g id="Node000053" class="node">
<title>Node53</title>
<g id="a_Node000053"><a xlink:href="Seagull_8cpp.html" target="_top" xlink:title=" ">
<polygon fill="white" stroke="#666666" points="4997.5,-30 4892.5,-30 4892.5,0 4997.5,0 4997.5,-30"/>
<text text-anchor="start" x="4900.5" y="-18" font-family="Helvetica,sans-Serif" font-size="10.00">src/engine/objects</text>
<text text-anchor="middle" x="4945" y="-7" font-family="Helvetica,sans-Serif" font-size="10.00">/Seagull.cpp</text>
</a>
</g>
</g>
<!-- Node5&#45;&gt;Node53 -->
<g id="edge45_Node000005_Node000053" class="edge">
<title>Node5&#45;&gt;Node53</title>
<g id="a_edge45_Node000005_Node000053"><a xlink:title=" ">
<path fill="none" stroke="#63b8ff" d="M3643.09,-73.99C3862.27,-71.82 4638.95,-62.02 4884,-30 4886.69,-29.65 4889.44,-29.23 4892.21,-28.77"/>
<polygon fill="#63b8ff" stroke="#63b8ff" points="3642.74,-70.49 3632.78,-74.09 3642.81,-77.49 3642.74,-70.49"/>
</a>
</g>
</g>
<!-- Node54 -->
<g id="Node000054" class="node">
<title>Node54</title>
<g id="a_Node000054"><a xlink:href="Thwomp_8cpp.html" target="_top" xlink:title=" ">
<polygon fill="white" stroke="#666666" points="5120.5,-30 5015.5,-30 5015.5,0 5120.5,0 5120.5,-30"/>
<text text-anchor="start" x="5023.5" y="-18" font-family="Helvetica,sans-Serif" font-size="10.00">src/engine/objects</text>
<text text-anchor="middle" x="5068" y="-7" font-family="Helvetica,sans-Serif" font-size="10.00">/Thwomp.cpp</text>
</a>
</g>
</g>
<!-- Node5&#45;&gt;Node54 -->
<g id="edge46_Node000005_Node000054" class="edge">
<title>Node5&#45;&gt;Node54</title>
<g id="a_edge46_Node000005_Node000054"><a xlink:title=" ">
<path fill="none" stroke="#63b8ff" d="M3642.75,-74.19C3874.36,-72.71 4736.49,-64.94 5007,-30 5009.69,-29.65 5012.44,-29.24 5015.21,-28.78"/>
<polygon fill="#63b8ff" stroke="#63b8ff" points="3642.5,-70.69 3632.52,-74.25 3642.54,-77.69 3642.5,-70.69"/>
</a>
</g>
</g>
<!-- Node55 -->
<g id="Node000055" class="node">
<title>Node55</title>
<g id="a_Node000055"><a xlink:href="TrashBin_8cpp.html" target="_top" xlink:title=" ">
<polygon fill="white" stroke="#666666" points="5243.5,-30 5138.5,-30 5138.5,0 5243.5,0 5243.5,-30"/>
<text text-anchor="start" x="5146.5" y="-18" font-family="Helvetica,sans-Serif" font-size="10.00">src/engine/objects</text>
<text text-anchor="middle" x="5191" y="-7" font-family="Helvetica,sans-Serif" font-size="10.00">/TrashBin.cpp</text>
</a>
</g>
</g>
<!-- Node5&#45;&gt;Node55 -->
<g id="edge47_Node000005_Node000055" class="edge">
<title>Node5&#45;&gt;Node55</title>
<g id="a_edge47_Node000005_Node000055"><a xlink:title=" ">
<path fill="none" stroke="#63b8ff" d="M3642.87,-74.36C3887.05,-73.52 4834.14,-67.84 5130,-30 5132.69,-29.66 5135.44,-29.24 5138.21,-28.78"/>
<polygon fill="#63b8ff" stroke="#63b8ff" points="3642.77,-70.86 3632.79,-74.39 3642.8,-77.86 3642.77,-70.86"/>
</a>
</g>
</g>
<!-- Node56 -->
<g id="Node000056" class="node">
<title>Node56</title>
<g id="a_Node000056"><a xlink:href="Trophy_8cpp.html" target="_top" xlink:title=" ">
<polygon fill="white" stroke="#666666" points="5366.5,-30 5261.5,-30 5261.5,0 5366.5,0 5366.5,-30"/>
<text text-anchor="start" x="5269.5" y="-18" font-family="Helvetica,sans-Serif" font-size="10.00">src/engine/objects</text>
<text text-anchor="middle" x="5314" y="-7" font-family="Helvetica,sans-Serif" font-size="10.00">/Trophy.cpp</text>
</a>
</g>
</g>
<!-- Node5&#45;&gt;Node56 -->
<g id="edge48_Node000005_Node000056" class="edge">
<title>Node5&#45;&gt;Node56</title>
<g id="a_edge48_Node000005_Node000056"><a xlink:title=" ">
<path fill="none" stroke="#63b8ff" d="M3642.78,-74.5C3898.71,-74.26 4931.63,-70.75 5253,-30 5255.69,-29.66 5258.45,-29.25 5261.21,-28.79"/>
<polygon fill="#63b8ff" stroke="#63b8ff" points="3642.59,-71 3632.59,-74.51 3642.59,-78 3642.59,-71"/>
</a>
</g>
</g>
<!-- Node57 -->
<g id="Node000057" class="node">
<title>Node57</title>
<g id="a_Node000057"><a xlink:href="Boat_8cpp.html" target="_top" xlink:title=" ">
<polygon fill="white" stroke="#666666" points="5495,-30 5385,-30 5385,0 5495,0 5495,-30"/>
<text text-anchor="start" x="5393" y="-18" font-family="Helvetica,sans-Serif" font-size="10.00">src/engine/vehicles</text>
<text text-anchor="middle" x="5440" y="-7" font-family="Helvetica,sans-Serif" font-size="10.00">/Boat.cpp</text>
</a>
</g>
</g>
<!-- Node5&#45;&gt;Node57 -->
<g id="edge49_Node000005_Node000057" class="edge">
<title>Node5&#45;&gt;Node57</title>
<g id="a_edge49_Node000005_Node000057"><a xlink:title=" ">
<path fill="none" stroke="#63b8ff" d="M3643.05,-74.54C3910.88,-74.52 5029,-71.88 5376,-30 5378.94,-29.65 5381.94,-29.22 5384.96,-28.74"/>
<polygon fill="#63b8ff" stroke="#63b8ff" points="3642.77,-71.04 3632.77,-74.54 3642.77,-78.04 3642.77,-71.04"/>
</a>
</g>
</g>
<!-- Node58 -->
<g id="Node000058" class="node">
<title>Node58</title>
<g id="a_Node000058"><a xlink:href="Bus_8cpp.html" target="_top" xlink:title=" ">
<polygon fill="white" stroke="#666666" points="5623,-30 5513,-30 5513,0 5623,0 5623,-30"/>
<text text-anchor="start" x="5521" y="-18" font-family="Helvetica,sans-Serif" font-size="10.00">src/engine/vehicles</text>
<text text-anchor="middle" x="5568" y="-7" font-family="Helvetica,sans-Serif" font-size="10.00">/Bus.cpp</text>
</a>
</g>
</g>
<!-- Node5&#45;&gt;Node58 -->
<g id="edge50_Node000005_Node000058" class="edge">
<title>Node5&#45;&gt;Node58</title>
<g id="a_edge50_Node000005_Node000058"><a xlink:title=" ">
<path fill="none" stroke="#63b8ff" d="M3643.05,-74.66C3922.43,-75.18 5130.36,-74.78 5504,-30 5506.94,-29.65 5509.94,-29.22 5512.96,-28.74"/>
<polygon fill="#63b8ff" stroke="#63b8ff" points="3642.74,-71.16 3632.74,-74.64 3642.73,-78.16 3642.74,-71.16"/>
</a>
</g>
</g>
</g>
</svg>

<g id="navigator" transform="translate(0 0)" fill="#404254">
  <rect fill="#f2f5e9" fill-opacity="0.5" stroke="#606060" stroke-width=".5" x="0" y="0" width="60" height="60"/>
  <use id="zoomplus" xlink:href="#zoomPlus" x="17" y="9" onmousedown="handleZoom(evt,'in')"/>
  <use id="zoomminus" xlink:href="#zoomMin" x="42" y="9" onmousedown="handleZoom(evt,'out')"/>
  <use id="reset" xlink:href="#resetDef" x="30" y="36" onmousedown="handleReset()"/>
   <use id="arrowup" xlink:href="#arrowUp" x="0" y="0" onmousedown="handlePan(0,-1)"/>
  <use id="arrowright" xlink:href="#arrowRight" x="0" y="0" onmousedown="handlePan(1,0)"/>
  <use id="arrowdown" xlink:href="#arrowDown" x="0" y="0" onmousedown="handlePan(0,1)"/>
  <use id="arrowleft" xlink:href="#arrowLeft" x="0" y="0" onmousedown="handlePan(-1,0)"/>
</g>
<svg viewBox="0 0 15 15" width="100%" height="30px" preserveAspectRatio="xMaxYMin meet">
 <g id="arrow_out" transform="scale(0.3 0.3)">
  <a xlink:href="HM__Intro_8h__dep__incl_org.svg" target="_base">
   <rect id="button" ry="5" rx="5" y="6" x="6" height="38" width="38"
        fill="#f2f5e9" fill-opacity="0.5" stroke="#606060" stroke-width="1.0"/>
   <path id="arrow"
     d="M 11.500037,31.436501 C 11.940474,20.09759 22.043105,11.32322 32.158766,21.979434 L 37.068811,17.246167 C 37.068811,17.246167 37.088388,32 37.088388,32 L 22.160133,31.978069 C 22.160133,31.978069 26.997745,27.140456 26.997745,27.140456 C 18.528582,18.264221 13.291696,25.230495 11.500037,31.436501 z"
     style="fill:#404040;"/>
  </a>
 </g>
</svg>

<style type='text/css'>
<![CDATA[
[data-mouse-over-selected='false'] { opacity: 0.7; }
[data-mouse-over-selected='true']  { opacity: 1.0; }
]]>
</style>
<script type="application/ecmascript"><![CDATA[
document.addEventListener('DOMContentLoaded', (event) => {
  highlightEdges();
  highlightAdjacentNodes();
});
]]></script>
</svg>
