<?xml version="1.0" encoding="UTF-8" standalone="no"?>
<!DOCTYPE svg PUBLIC "-//W3C//DTD SVG 1.1//EN"
 "http://www.w3.org/Graphics/SVG/1.1/DTD/svg11.dtd">
<!-- Generated by graphviz version 2.43.0 (0)
 -->
<!-- Title: src/engine/HM_Intro.h Pages: 1 -->
<!--zoomable 148 -->

<svg id="main" version="1.1" xmlns="http://www.w3.org/2000/svg" xmlns:xlink="http://www.w3.org/1999/xlink" xml:space="preserve" onload="init(evt)">

<style type="text/css"><![CDATA[
.node, .edge {opacity: 0.7;}
.node.selected, .edge.selected {opacity: 1;}
.edge:hover path { stroke: red; }
.edge:hover polygon { stroke: red; fill: red; }
]]></style>

<defs>
  <circle id="rim" cx="0" cy="0" r="7"/>
  <circle id="rim2" cx="0" cy="0" r="3.5"/>
  <g id="zoomPlus">
    <use xlink:href="#rim" fill="#404040"><set attributeName="fill" to="#808080" begin="zoomplus.mouseover" end="zoomplus.mouseout"/></use>
    <path d="M-4,0h8M0,-4v8" fill="none" stroke="white" stroke-width="1.5" pointer-events="none"/>
  </g>
  <g id="zoomMin">
    <use xlink:href="#rim" fill="#404040"><set attributeName="fill" to="#808080" begin="zoomminus.mouseover" end="zoomminus.mouseout"/></use>
    <path d="M-4,0h8" fill="none" stroke="white" stroke-width="1.5" pointer-events="none"/>
  </g>
  <g id="arrowUp" transform="translate(30 24)">
    <use xlink:href="#rim"/>
    <path pointer-events="none" fill="none" stroke="white" stroke-width="1.5" d="M0,-3.0v7 M-2.5,-0.5L0,-3.0L2.5,-0.5"/>
  </g>
  <g id="arrowRight" transform="rotate(90) translate(36 -43)">
    <use xlink:href="#rim"/>
    <path pointer-events="none" fill="none" stroke="white" stroke-width="1.5" d="M0,-3.0v7 M-2.5,-0.5L0,-3.0L2.5,-0.5"/>
  </g>
  <g id="arrowDown" transform="rotate(180) translate(-30 -48)">
    <use xlink:href="#rim"/>
    <path pointer-events="none" fill="none" stroke="white" stroke-width="1.5" d="M0,-3.0v7 M-2.5,-0.5L0,-3.0L2.5,-0.5"/>
  </g>
  <g id="arrowLeft" transform="rotate(270) translate(-36 17)">
    <use xlink:href="#rim"/>
    <path pointer-events="none" fill="none" stroke="white" stroke-width="1.5" d="M0,-3.0v7 M-2.5,-0.5L0,-3.0L2.5,-0.5"/>
  </g>
  <g id="resetDef">
    <use xlink:href="#rim2" fill="#404040"><set attributeName="fill" to="#808080" begin="reset.mouseover" end="reset.mouseout"/></use>
  </g>
</defs>
<script type="application/ecmascript">
var viewWidth = 6901;
var viewHeight = 148;
var sectionId = 'dynsection-1';
</script>
<script type="application/ecmascript" xlink:href="svg.min.js"/>
<svg id="graph" class="graph">
<g id="viewport">
<title>src/engine/HM_Intro.h</title>
<!-- Node1 -->
<g id="Node000001" class="node">
<title>Node1</title>
<g id="a_Node000001"><a xlink:title=" ">
<polygon fill="#999999" stroke="#666666" points="357.5,-140 234.5,-140 234.5,-121 357.5,-121 357.5,-140"/>
<text text-anchor="middle" x="296" y="-128" font-family="Helvetica,sans-Serif" font-size="10.00">src/engine/HM_Intro.h</text>
</a>
</g>
</g>
<!-- Node2 -->
<g id="Node000002" class="node">
<title>Node2</title>
<g id="a_Node000002"><a xlink:href="HM__Intro_8cpp.html" target="_top" xlink:title=" ">
<polygon fill="white" stroke="#666666" points="134,-24.5 0,-24.5 0,-5.5 134,-5.5 134,-24.5"/>
<text text-anchor="middle" x="67" y="-12.5" font-family="Helvetica,sans-Serif" font-size="10.00">src/engine/HM_Intro.cpp</text>
</a>
</g>
</g>
<!-- Node1&#45;&gt;Node2 -->
<g id="edge1_Node000001_Node000002" class="edge">
<title>Node1&#45;&gt;Node2</title>
<g id="a_edge1_Node000001_Node000002"><a xlink:title=" ">
<path fill="none" stroke="#63b8ff" d="M269.78,-116.51C222.54,-93.09 124.31,-44.41 84.41,-24.63"/>
<polygon fill="#63b8ff" stroke="#63b8ff" points="268.27,-119.66 278.79,-120.97 271.38,-113.39 268.27,-119.66"/>
</a>
</g>
</g>
<!-- Node3 -->
<g id="Node000003" class="node">
<title>Node3</title>
<g id="a_Node000003"><a xlink:href="menu__items_8c.html" target="_top" xlink:title=" ">
<polygon fill="white" stroke="#666666" points="255.5,-24.5 152.5,-24.5 152.5,-5.5 255.5,-5.5 255.5,-24.5"/>
<text text-anchor="middle" x="204" y="-12.5" font-family="Helvetica,sans-Serif" font-size="10.00">src/menu_items.c</text>
</a>
</g>
</g>
<!-- Node1&#45;&gt;Node3 -->
<g id="edge2_Node000001_Node000003" class="edge">
<title>Node1&#45;&gt;Node3</title>
<g id="a_edge2_Node000001_Node000003"><a xlink:title=" ">
<path fill="none" stroke="#63b8ff" d="M282.6,-112.96C262.75,-88.48 226.25,-43.46 211,-24.63"/>
<polygon fill="#63b8ff" stroke="#63b8ff" points="280.07,-115.4 289.09,-120.97 285.51,-111 280.07,-115.4"/>
</a>
</g>
</g>
<!-- Node4 -->
<g id="Node000004" class="node">
<title>Node4</title>
<g id="a_Node000004"><a xlink:href="Game_8cpp.html" target="_top" xlink:title=" ">
<polygon fill="white" stroke="#666666" points="380,-24.5 274,-24.5 274,-5.5 380,-5.5 380,-24.5"/>
<text text-anchor="middle" x="327" y="-12.5" font-family="Helvetica,sans-Serif" font-size="10.00">src/port/Game.cpp</text>
</a>
</g>
</g>
<!-- Node1&#45;&gt;Node4 -->
<g id="edge3_Node000001_Node000004" class="edge">
<title>Node1&#45;&gt;Node4</title>
<g id="a_edge3_Node000001_Node000004"><a xlink:title=" ">
<path fill="none" stroke="#63b8ff" d="M301.06,-110.99C307.85,-86.13 319.64,-42.96 324.64,-24.63"/>
<polygon fill="#63b8ff" stroke="#63b8ff" points="297.59,-110.4 298.33,-120.97 304.34,-112.24 297.59,-110.4"/>
</a>
</g>
</g>
<!-- Node5 -->
<g id="Node000005" class="node">
<title>Node5</title>
<g id="a_Node000005"><a xlink:href="Game_8h.html" target="_top" xlink:title=" ">
<polygon fill="#fff0f0" stroke="red" points="3648.5,-85 3553.5,-85 3553.5,-66 3648.5,-66 3648.5,-85"/>
<text text-anchor="middle" x="3601" y="-73" font-family="Helvetica,sans-Serif" font-size="10.00">src/port/Game.h</text>
</a>
</g>
</g>
<!-- Node1&#45;&gt;Node5 -->
<g id="edge4_Node000001_Node000005" class="edge">
<title>Node1&#45;&gt;Node5</title>
<g id="a_edge4_Node000001_Node000005"><a xlink:title=" ">
<path fill="none" stroke="#63b8ff" d="M367.77,-128.35C812.54,-121.22 3185.9,-83.16 3553.23,-77.27"/>
<polygon fill="#63b8ff" stroke="#63b8ff" points="367.56,-124.85 357.62,-128.51 367.68,-131.85 367.56,-124.85"/>
</a>
</g>
</g>
<!-- Node5&#45;&gt;Node2 -->
<g id="edge22_Node000005_Node000002" class="edge">
<title>Node5&#45;&gt;Node2</title>
<g id="a_edge22_Node000005_Node000002"><a xlink:title=" ">
<path fill="none" stroke="#63b8ff" d="M3543.28,-74.35C3119.42,-73.15 494.38,-64.38 143,-30 130.98,-28.82 118.02,-26.74 106.27,-24.54"/>
<polygon fill="#63b8ff" stroke="#63b8ff" points="3543.45,-77.85 3553.46,-74.38 3543.47,-70.85 3543.45,-77.85"/>
</a>
</g>
</g>
<!-- Node5&#45;&gt;Node3 -->
<g id="edge51_Node000005_Node000003" class="edge">
<title>Node5&#45;&gt;Node3</title>
<g id="a_edge51_Node000005_Node000003"><a xlink:title=" ">
<path fill="none" stroke="#63b8ff" d="M3543.04,-74.47C3127.03,-74.15 602.56,-70.52 265,-30 255.29,-28.83 244.87,-26.76 235.44,-24.56"/>
<polygon fill="#63b8ff" stroke="#63b8ff" points="3543.32,-77.97 3553.33,-74.48 3543.33,-70.97 3543.32,-77.97"/>
</a>
</g>
</g>
<!-- Node5&#45;&gt;Node4 -->
<g id="edge52_Node000005_Node000004" class="edge">
<title>Node5&#45;&gt;Node4</title>
<g id="a_edge52_Node000005_Node000004"><a xlink:title=" ">
<path fill="none" stroke="#63b8ff" d="M3543.3,-74.41C3137.12,-73.7 714.52,-67.9 390,-30 379.98,-28.83 369.22,-26.75 359.48,-24.55"/>
<polygon fill="#63b8ff" stroke="#63b8ff" points="3543.34,-77.91 3553.35,-74.43 3543.35,-70.91 3543.34,-77.91"/>
</a>
</g>
</g>
<!-- Node6 -->
<g id="Node000006" class="node">
<title>Node6</title>
<g id="a_Node000006"><a xlink:href="track_8c.html" target="_top" xlink:title=" ">
<polygon fill="white" stroke="#666666" points="5818.5,-24.5 5687.5,-24.5 5687.5,-5.5 5818.5,-5.5 5818.5,-24.5"/>
<text text-anchor="middle" x="5753" y="-12.5" font-family="Helvetica,sans-Serif" font-size="10.00">courses/harbour/track.c</text>
</a>
</g>
</g>
<!-- Node5&#45;&gt;Node6 -->
<g id="edge5_Node000005_Node000006" class="edge">
<title>Node5&#45;&gt;Node6</title>
<g id="a_edge5_Node000005_Node000006"><a xlink:title=" ">
<path fill="none" stroke="#63b8ff" d="M3658.98,-74.54C3951.86,-74.52 5270.68,-72.1 5678,-30 5689.73,-28.79 5702.36,-26.73 5713.86,-24.55"/>
<polygon fill="#63b8ff" stroke="#63b8ff" points="3658.59,-71.04 3648.59,-74.54 3658.59,-78.04 3658.59,-71.04"/>
</a>
</g>
</g>
<!-- Node7 -->
<g id="Node000007" class="node">
<title>Node7</title>
<g id="a_Node000007"><a xlink:href="blue__and__red__shells_2update_8inc_8c.html" target="_top" xlink:title=" ">
<polygon fill="#fff0f0" stroke="red" points="5971,-30 5837,-30 5837,0 5971,0 5971,-30"/>
<text text-anchor="start" x="5845" y="-18" font-family="Helvetica,sans-Serif" font-size="10.00">src/actors/blue_and</text>
<text text-anchor="middle" x="5904" y="-7" font-family="Helvetica,sans-Serif" font-size="10.00">_red_shells/update.inc.c</text>
</a>
</g>
</g>
<!-- Node5&#45;&gt;Node7 -->
<g id="edge6_Node000005_Node000007" class="edge">
<title>Node5&#45;&gt;Node7</title>
<g id="a_edge6_Node000005_Node000007"><a xlink:title=" ">
<path fill="none" stroke="#63b8ff" d="M3659.17,-74.62C3965,-75.03 5389.31,-74.49 5828,-30 5830.94,-29.7 5833.93,-29.35 5836.95,-28.96"/>
<polygon fill="#63b8ff" stroke="#63b8ff" points="3658.77,-71.12 3648.77,-74.6 3658.76,-78.12 3658.77,-71.12"/>
</a>
</g>
</g>
<!-- Node9 -->
<g id="Node000009" class="node">
<title>Node9</title>
<g id="a_Node000009"><a xlink:href="green__shell_2update_8inc_8c.html" target="_top" xlink:title=" ">
<polygon fill="#fff0f0" stroke="red" points="6112.5,-30 5989.5,-30 5989.5,0 6112.5,0 6112.5,-30"/>
<text text-anchor="start" x="5997.5" y="-18" font-family="Helvetica,sans-Serif" font-size="10.00">src/actors/green_shell</text>
<text text-anchor="middle" x="6051" y="-7" font-family="Helvetica,sans-Serif" font-size="10.00">/update.inc.c</text>
</a>
</g>
</g>
<!-- Node5&#45;&gt;Node9 -->
<g id="edge7_Node000005_Node000009" class="edge">
<title>Node5&#45;&gt;Node9</title>
<g id="a_edge7_Node000005_Node000009"><a xlink:title=" ">
<path fill="none" stroke="#63b8ff" d="M3658.75,-74.03C3999.71,-71.17 5743,-55.38 5980,-30 5983,-29.68 5986.06,-29.29 5989.14,-28.86"/>
<polygon fill="#63b8ff" stroke="#63b8ff" points="3658.57,-70.53 3648.6,-74.11 3658.63,-77.53 3658.57,-70.53"/>
</a>
</g>
</g>
<!-- Node10 -->
<g id="Node000010" class="node">
<title>Node10</title>
<g id="a_Node000010"><a xlink:href="external_8c.html" target="_top" xlink:title=" ">
<polygon fill="white" stroke="#666666" points="6243.5,-24.5 6130.5,-24.5 6130.5,-5.5 6243.5,-5.5 6243.5,-24.5"/>
<text text-anchor="middle" x="6187" y="-12.5" font-family="Helvetica,sans-Serif" font-size="10.00">src/audio/external.c</text>
</a>
</g>
</g>
<!-- Node5&#45;&gt;Node10 -->
<g id="edge8_Node000005_Node000010" class="edge">
<title>Node5&#45;&gt;Node10</title>
<g id="a_edge8_Node000005_Node000010"><a xlink:title=" ">
<path fill="none" stroke="#63b8ff" d="M3658.78,-74.15C4011.73,-71.95 5870.29,-59.05 6122,-30 6132.32,-28.81 6143.42,-26.73 6153.47,-24.52"/>
<polygon fill="#63b8ff" stroke="#63b8ff" points="3658.52,-70.66 3648.54,-74.22 3658.56,-77.66 3658.52,-70.66"/>
</a>
</g>
</g>
<!-- Node11 -->
<g id="Node000011" class="node">
<title>Node11</title>
<g id="a_Node000011"><a xlink:href="camera_8c.html" target="_top" xlink:title=" ">
<polygon fill="white" stroke="#666666" points="6340.5,-24.5 6261.5,-24.5 6261.5,-5.5 6340.5,-5.5 6340.5,-24.5"/>
<text text-anchor="middle" x="6301" y="-12.5" font-family="Helvetica,sans-Serif" font-size="10.00">src/camera.c</text>
</a>
</g>
</g>
<!-- Node5&#45;&gt;Node11 -->
<g id="edge9_Node000005_Node000011" class="edge">
<title>Node5&#45;&gt;Node11</title>
<g id="a_edge9_Node000005_Node000011"><a xlink:title=" ">
<path fill="none" stroke="#63b8ff" d="M3658.63,-74.46C4021.95,-74.05 5988.7,-70.02 6253,-30 6260.72,-28.83 6268.95,-26.75 6276.37,-24.55"/>
<polygon fill="#63b8ff" stroke="#63b8ff" points="3658.59,-70.96 3648.59,-74.47 3658.6,-77.96 3658.59,-70.96"/>
</a>
</g>
</g>
<!-- Node12 -->
<g id="Node000012" class="node">
<title>Node12</title>
<g id="a_Node000012"><a xlink:href="code__800029B0_8c.html" target="_top" xlink:title=" ">
<polygon fill="white" stroke="#666666" points="6477.5,-24.5 6358.5,-24.5 6358.5,-5.5 6477.5,-5.5 6477.5,-24.5"/>
<text text-anchor="middle" x="6418" y="-12.5" font-family="Helvetica,sans-Serif" font-size="10.00">src/code_800029B0.c</text>
</a>
</g>
</g>
<!-- Node5&#45;&gt;Node12 -->
<g id="edge10_Node000005_Node000012" class="edge">
<title>Node5&#45;&gt;Node12</title>
<g id="a_edge10_Node000005_Node000012"><a xlink:title=" ">
<path fill="none" stroke="#63b8ff" d="M3658.9,-74.21C4030.56,-72.29 6074.13,-60.36 6350,-30 6360.78,-28.81 6372.39,-26.73 6382.91,-24.53"/>
<polygon fill="#63b8ff" stroke="#63b8ff" points="3658.63,-70.71 3648.65,-74.27 3658.67,-77.71 3658.63,-70.71"/>
</a>
</g>
</g>
<!-- Node13 -->
<g id="Node000013" class="node">
<title>Node13</title>
<g id="a_Node000013"><a xlink:href="code__80005FD0_8c.html" target="_top" xlink:title=" ">
<polygon fill="white" stroke="#666666" points="6616,-24.5 6496,-24.5 6496,-5.5 6616,-5.5 6616,-24.5"/>
<text text-anchor="middle" x="6556" y="-12.5" font-family="Helvetica,sans-Serif" font-size="10.00">src/code_80005FD0.c</text>
</a>
</g>
</g>
<!-- Node5&#45;&gt;Node13 -->
<g id="edge11_Node000005_Node000013" class="edge">
<title>Node5&#45;&gt;Node13</title>
<g id="a_edge11_Node000005_Node000013"><a xlink:title=" ">
<path fill="none" stroke="#63b8ff" d="M3659.03,-74.25C4041.75,-72.52 6196.64,-61.42 6487,-30 6497.94,-28.82 6509.71,-26.73 6520.38,-24.53"/>
<polygon fill="#63b8ff" stroke="#63b8ff" points="3658.74,-70.75 3648.75,-74.3 3658.77,-77.75 3658.74,-70.75"/>
</a>
</g>
</g>
<!-- Node14 -->
<g id="Node000014" class="node">
<title>Node14</title>
<g id="a_Node000014"><a xlink:href="code__8003DC40_8c.html" target="_top" xlink:title=" ">
<polygon fill="white" stroke="#666666" points="6755.5,-24.5 6634.5,-24.5 6634.5,-5.5 6755.5,-5.5 6755.5,-24.5"/>
<text text-anchor="middle" x="6695" y="-12.5" font-family="Helvetica,sans-Serif" font-size="10.00">src/code_8003DC40.c</text>
</a>
</g>
</g>
<!-- Node5&#45;&gt;Node14 -->
<g id="edge12_Node000005_Node000014" class="edge">
<title>Node5&#45;&gt;Node14</title>
<g id="a_edge12_Node000005_Node000014"><a xlink:title=" ">
<path fill="none" stroke="#63b8ff" d="M3658.99,-74.28C4052.09,-72.74 6319.98,-62.47 6625,-30 6636.09,-28.82 6648.04,-26.74 6658.86,-24.54"/>
<polygon fill="#63b8ff" stroke="#63b8ff" points="3658.69,-70.79 3648.71,-74.32 3658.72,-77.79 3658.69,-70.79"/>
</a>
</g>
</g>
<!-- Node15 -->
<g id="Node000015" class="node">
<title>Node15</title>
<g id="a_Node000015"><a xlink:href="code__80057C60_8c.html" target="_top" xlink:title=" ">
<polygon fill="white" stroke="#666666" points="6892.5,-24.5 6773.5,-24.5 6773.5,-5.5 6892.5,-5.5 6892.5,-24.5"/>
<text text-anchor="middle" x="6833" y="-12.5" font-family="Helvetica,sans-Serif" font-size="10.00">src/code_80057C60.c</text>
</a>
</g>
</g>
<!-- Node5&#45;&gt;Node15 -->
<g id="edge13_Node000005_Node000015" class="edge">
<title>Node5&#45;&gt;Node15</title>
<g id="a_edge13_Node000005_Node000015"><a xlink:title=" ">
<path fill="none" stroke="#63b8ff" d="M3658.78,-74.35C4061.74,-73.18 6445.19,-64.85 6765,-30 6775.78,-28.82 6787.39,-26.75 6797.91,-24.54"/>
<polygon fill="#63b8ff" stroke="#63b8ff" points="3658.53,-70.85 3648.54,-74.37 3658.55,-77.85 3658.53,-70.85"/>
</a>
</g>
</g>
<!-- Node16 -->
<g id="Node000016" class="node">
<title>Node16</title>
<g id="a_Node000016"><a xlink:href="code__8006E9C0_8c.html" target="_top" xlink:title=" ">
<polygon fill="white" stroke="#666666" points="517.5,-24.5 398.5,-24.5 398.5,-5.5 517.5,-5.5 517.5,-24.5"/>
<text text-anchor="middle" x="458" y="-12.5" font-family="Helvetica,sans-Serif" font-size="10.00">src/code_8006E9C0.c</text>
</a>
</g>
</g>
<!-- Node5&#45;&gt;Node16 -->
<g id="edge14_Node000005_Node000016" class="edge">
<title>Node5&#45;&gt;Node16</title>
<g id="a_edge14_Node000005_Node000016"><a xlink:title=" ">
<path fill="none" stroke="#63b8ff" d="M3543.3,-74.31C3147.25,-72.92 837.34,-63.44 527,-30 516.06,-28.82 504.29,-26.74 493.62,-24.54"/>
<polygon fill="#63b8ff" stroke="#63b8ff" points="3543.37,-77.81 3553.38,-74.35 3543.39,-70.81 3543.37,-77.81"/>
</a>
</g>
</g>
<!-- Node17 -->
<g id="Node000017" class="node">
<title>Node17</title>
<g id="a_Node000017"><a xlink:href="code__80086E70_8c.html" target="_top" xlink:title=" ">
<polygon fill="white" stroke="#666666" points="654.5,-24.5 535.5,-24.5 535.5,-5.5 654.5,-5.5 654.5,-24.5"/>
<text text-anchor="middle" x="595" y="-12.5" font-family="Helvetica,sans-Serif" font-size="10.00">src/code_80086E70.c</text>
</a>
</g>
</g>
<!-- Node5&#45;&gt;Node17 -->
<g id="edge15_Node000005_Node000017" class="edge">
<title>Node5&#45;&gt;Node17</title>
<g id="a_edge15_Node000005_Node000017"><a xlink:title=" ">
<path fill="none" stroke="#63b8ff" d="M3543.15,-74.27C3157.04,-72.63 959.8,-61.97 664,-30 653.06,-28.82 641.29,-26.74 630.62,-24.53"/>
<polygon fill="#63b8ff" stroke="#63b8ff" points="3543.24,-77.77 3553.26,-74.31 3543.27,-70.77 3543.24,-77.77"/>
</a>
</g>
</g>
<!-- Node18 -->
<g id="Node000018" class="node">
<title>Node18</title>
<g id="a_Node000018"><a xlink:href="effects_8c.html" target="_top" xlink:title=" ">
<polygon fill="white" stroke="#666666" points="747.5,-24.5 672.5,-24.5 672.5,-5.5 747.5,-5.5 747.5,-24.5"/>
<text text-anchor="middle" x="710" y="-12.5" font-family="Helvetica,sans-Serif" font-size="10.00">src/effects.c</text>
</a>
</g>
</g>
<!-- Node5&#45;&gt;Node18 -->
<g id="edge16_Node000005_Node000018" class="edge">
<title>Node5&#45;&gt;Node18</title>
<g id="a_edge16_Node000005_Node000018"><a xlink:title=" ">
<path fill="none" stroke="#63b8ff" d="M3543.17,-74.55C3164.11,-74.72 1041.31,-73.72 757,-30 749.43,-28.84 741.37,-26.76 734.1,-24.56"/>
<polygon fill="#63b8ff" stroke="#63b8ff" points="3543.36,-78.05 3553.35,-74.54 3543.35,-71.05 3543.36,-78.05"/>
</a>
</g>
</g>
<!-- Node19 -->
<g id="Node000019" class="node">
<title>Node19</title>
<g id="a_Node000019"><a xlink:href="ceremony__and__credits_8c.html" target="_top" xlink:title=" ">
<polygon fill="white" stroke="#666666" points="884.5,-30 765.5,-30 765.5,0 884.5,0 884.5,-30"/>
<text text-anchor="start" x="773.5" y="-18" font-family="Helvetica,sans-Serif" font-size="10.00">src/ending/ceremony</text>
<text text-anchor="middle" x="825" y="-7" font-family="Helvetica,sans-Serif" font-size="10.00">_and_credits.c</text>
</a>
</g>
</g>
<!-- Node5&#45;&gt;Node19 -->
<g id="edge17_Node000005_Node000019" class="edge">
<title>Node5&#45;&gt;Node19</title>
<g id="a_edge17_Node000005_Node000019"><a xlink:title=" ">
<path fill="none" stroke="#63b8ff" d="M3543.1,-74.19C3174.8,-72.12 1165.48,-59.52 894,-30 890.96,-29.67 887.86,-29.27 884.73,-28.82"/>
<polygon fill="#63b8ff" stroke="#63b8ff" points="3543.25,-77.69 3553.27,-74.24 3543.29,-70.69 3543.25,-77.69"/>
</a>
</g>
</g>
<!-- Node20 -->
<g id="Node000020" class="node">
<title>Node20</title>
<g id="a_Node000020"><a xlink:href="code__80280000_8c.html" target="_top" xlink:title=" ">
<polygon fill="white" stroke="#666666" points="1057.5,-24.5 902.5,-24.5 902.5,-5.5 1057.5,-5.5 1057.5,-24.5"/>
<text text-anchor="middle" x="980" y="-12.5" font-family="Helvetica,sans-Serif" font-size="10.00">src/ending/code_80280000.c</text>
</a>
</g>
</g>
<!-- Node5&#45;&gt;Node20 -->
<g id="edge18_Node000005_Node000020" class="edge">
<title>Node5&#45;&gt;Node20</title>
<g id="a_edge18_Node000005_Node000020"><a xlink:title=" ">
<path fill="none" stroke="#63b8ff" d="M3542.97,-74.6C3213.07,-75.01 1570.75,-74.73 1067,-30 1053.44,-28.8 1038.79,-26.74 1025.45,-24.56"/>
<polygon fill="#63b8ff" stroke="#63b8ff" points="3543.26,-78.1 3553.25,-74.59 3543.25,-71.1 3543.26,-78.1"/>
</a>
</g>
</g>
<!-- Node21 -->
<g id="Node000021" class="node">
<title>Node21</title>
<g id="a_Node000021"><a xlink:href="code__80281780_8c.html" target="_top" xlink:title=" ">
<polygon fill="white" stroke="#666666" points="1230.5,-24.5 1075.5,-24.5 1075.5,-5.5 1230.5,-5.5 1230.5,-24.5"/>
<text text-anchor="middle" x="1153" y="-12.5" font-family="Helvetica,sans-Serif" font-size="10.00">src/ending/code_80281780.c</text>
</a>
</g>
</g>
<!-- Node5&#45;&gt;Node21 -->
<g id="edge19_Node000005_Node000021" class="edge">
<title>Node5&#45;&gt;Node21</title>
<g id="a_edge19_Node000005_Node000021"><a xlink:title=" ">
<path fill="none" stroke="#63b8ff" d="M3542.94,-74.51C3226.54,-74.43 1707.34,-71.8 1240,-30 1226.44,-28.79 1211.79,-26.73 1198.45,-24.55"/>
<polygon fill="#63b8ff" stroke="#63b8ff" points="3543.25,-78.01 3553.25,-74.52 3543.25,-71.01 3543.25,-78.01"/>
</a>
</g>
</g>
<!-- Node22 -->
<g id="Node000022" class="node">
<title>Node22</title>
<g id="a_Node000022"><a xlink:href="code__80281C40_8c.html" target="_top" xlink:title=" ">
<polygon fill="white" stroke="#666666" points="1403.5,-24.5 1248.5,-24.5 1248.5,-5.5 1403.5,-5.5 1403.5,-24.5"/>
<text text-anchor="middle" x="1326" y="-12.5" font-family="Helvetica,sans-Serif" font-size="10.00">src/ending/code_80281C40.c</text>
</a>
</g>
</g>
<!-- Node5&#45;&gt;Node22 -->
<g id="edge20_Node000005_Node000022" class="edge">
<title>Node5&#45;&gt;Node22</title>
<g id="a_edge20_Node000005_Node000022"><a xlink:title=" ">
<path fill="none" stroke="#63b8ff" d="M3542.88,-74.41C3240.45,-73.8 1844,-68.87 1413,-30 1399.44,-28.78 1384.79,-26.71 1371.45,-24.54"/>
<polygon fill="#63b8ff" stroke="#63b8ff" points="3543.17,-77.91 3553.18,-74.43 3543.18,-70.91 3543.17,-77.91"/>
</a>
</g>
</g>
<!-- Node23 -->
<g id="Node000023" class="node">
<title>Node23</title>
<g id="a_Node000023"><a xlink:href="podium__ceremony__actors_8c.html" target="_top" xlink:title=" ">
<polygon fill="white" stroke="#666666" points="1582.5,-30 1421.5,-30 1421.5,0 1582.5,0 1582.5,-30"/>
<text text-anchor="start" x="1429.5" y="-18" font-family="Helvetica,sans-Serif" font-size="10.00">src/ending/podium_ceremony</text>
<text text-anchor="middle" x="1502" y="-7" font-family="Helvetica,sans-Serif" font-size="10.00">_actors.c</text>
</a>
</g>
</g>
<!-- Node5&#45;&gt;Node23 -->
<g id="edge21_Node000005_Node000023" class="edge">
<title>Node5&#45;&gt;Node23</title>
<g id="a_edge21_Node000005_Node000023"><a xlink:title=" ">
<path fill="none" stroke="#63b8ff" d="M3543.08,-74.25C3256.21,-72.86 1985.69,-64.83 1592,-30 1589.01,-29.74 1585.96,-29.43 1582.89,-29.1"/>
<polygon fill="#63b8ff" stroke="#63b8ff" points="3543.24,-77.75 3553.26,-74.3 3543.28,-70.75 3543.24,-77.75"/>
</a>
</g>
</g>
<!-- Node24 -->
<g id="Node000024" class="node">
<title>Node24</title>
<g id="a_Node000024"><a xlink:href="RaceManager_8cpp.html" target="_top" xlink:title=" ">
<polygon fill="white" stroke="#666666" points="1757,-24.5 1601,-24.5 1601,-5.5 1757,-5.5 1757,-24.5"/>
<text text-anchor="middle" x="1679" y="-12.5" font-family="Helvetica,sans-Serif" font-size="10.00">src/engine/RaceManager.cpp</text>
</a>
</g>
</g>
<!-- Node5&#45;&gt;Node24 -->
<g id="edge23_Node000005_Node000024" class="edge">
<title>Node5&#45;&gt;Node24</title>
<g id="a_edge23_Node000005_Node000024"><a xlink:title=" ">
<path fill="none" stroke="#63b8ff" d="M3543.33,-74.15C3272.29,-72.36 2123.35,-62.93 1766,-30 1752.44,-28.75 1737.8,-26.68 1724.46,-24.51"/>
<polygon fill="#63b8ff" stroke="#63b8ff" points="3543.32,-77.65 3553.34,-74.22 3543.37,-70.65 3543.32,-77.65"/>
</a>
</g>
</g>
<!-- Node25 -->
<g id="Node000025" class="node">
<title>Node25</title>
<g id="a_Node000025"><a xlink:href="World_8cpp.html" target="_top" xlink:title=" ">
<polygon fill="white" stroke="#666666" points="1893,-24.5 1775,-24.5 1775,-5.5 1893,-5.5 1893,-24.5"/>
<text text-anchor="middle" x="1834" y="-12.5" font-family="Helvetica,sans-Serif" font-size="10.00">src/engine/World.cpp</text>
</a>
</g>
</g>
<!-- Node5&#45;&gt;Node25 -->
<g id="edge24_Node000005_Node000025" class="edge">
<title>Node5&#45;&gt;Node25</title>
<g id="a_edge24_Node000005_Node000025"><a xlink:title=" ">
<path fill="none" stroke="#63b8ff" d="M3543.06,-74.34C3284.1,-73.39 2231.01,-67.29 1903,-30 1892.19,-28.77 1880.56,-26.7 1869.98,-24.53"/>
<polygon fill="#63b8ff" stroke="#63b8ff" points="3543.36,-77.84 3553.37,-74.37 3543.38,-70.84 3543.36,-77.84"/>
</a>
</g>
</g>
<!-- Node26 -->
<g id="Node000026" class="node">
<title>Node26</title>
<g id="a_Node000026"><a xlink:href="Cloud_8cpp.html" target="_top" xlink:title=" ">
<polygon fill="white" stroke="#666666" points="2062.5,-24.5 1911.5,-24.5 1911.5,-5.5 2062.5,-5.5 2062.5,-24.5"/>
<text text-anchor="middle" x="1987" y="-12.5" font-family="Helvetica,sans-Serif" font-size="10.00">src/engine/actors/Cloud.cpp</text>
</a>
</g>
</g>
<!-- Node5&#45;&gt;Node26 -->
<g id="edge25_Node000005_Node000026" class="edge">
<title>Node5&#45;&gt;Node26</title>
<g id="a_edge25_Node000005_Node000026"><a xlink:title=" ">
<path fill="none" stroke="#63b8ff" d="M3543.02,-73.85C3300.39,-70.99 2365.51,-58.31 2072,-30 2058.9,-28.74 2044.76,-26.69 2031.85,-24.54"/>
<polygon fill="#63b8ff" stroke="#63b8ff" points="3543.34,-77.36 3553.38,-73.98 3543.42,-70.36 3543.34,-77.36"/>
</a>
</g>
</g>
<!-- Node27 -->
<g id="Node000027" class="node">
<title>Node27</title>
<g id="a_Node000027"><a xlink:href="FallingRock_8cpp.html" target="_top" xlink:title=" ">
<polygon fill="white" stroke="#666666" points="2215,-30 2081,-30 2081,0 2215,0 2215,-30"/>
<text text-anchor="start" x="2089" y="-18" font-family="Helvetica,sans-Serif" font-size="10.00">src/engine/actors/Falling</text>
<text text-anchor="middle" x="2148" y="-7" font-family="Helvetica,sans-Serif" font-size="10.00">Rock.cpp</text>
</a>
</g>
</g>
<!-- Node5&#45;&gt;Node27 -->
<g id="edge26_Node000005_Node000027" class="edge">
<title>Node5&#45;&gt;Node27</title>
<g id="a_edge26_Node000005_Node000027"><a xlink:title=" ">
<path fill="none" stroke="#63b8ff" d="M3543.23,-73.79C3316.33,-70.81 2485.88,-58.19 2224,-30 2221.07,-29.68 2218.07,-29.32 2215.06,-28.92"/>
<polygon fill="#63b8ff" stroke="#63b8ff" points="3543.22,-77.29 3553.26,-73.92 3543.31,-70.29 3543.22,-77.29"/>
</a>
</g>
</g>
<!-- Node28 -->
<g id="Node000028" class="node">
<title>Node28</title>
<g id="a_Node000028"><a xlink:href="Finishline_8cpp.html" target="_top" xlink:title=" ">
<polygon fill="white" stroke="#666666" points="2403,-24.5 2233,-24.5 2233,-5.5 2403,-5.5 2403,-24.5"/>
<text text-anchor="middle" x="2318" y="-12.5" font-family="Helvetica,sans-Serif" font-size="10.00">src/engine/actors/Finishline.cpp</text>
</a>
</g>
</g>
<!-- Node5&#45;&gt;Node28 -->
<g id="edge27_Node000005_Node000028" class="edge">
<title>Node5&#45;&gt;Node28</title>
<g id="a_edge27_Node000005_Node000028"><a xlink:title=" ">
<path fill="none" stroke="#63b8ff" d="M3543.18,-74.59C3370.79,-74.39 2845.36,-70.26 2412,-30 2397.71,-28.67 2382.27,-26.63 2368.12,-24.51"/>
<polygon fill="#63b8ff" stroke="#63b8ff" points="3543.3,-78.09 3553.3,-74.6 3543.31,-71.09 3543.3,-78.09"/>
</a>
</g>
</g>
<!-- Node29 -->
<g id="Node000029" class="node">
<title>Node29</title>
<g id="a_Node000029"><a xlink:href="Ship_8cpp.html" target="_top" xlink:title=" ">
<polygon fill="white" stroke="#666666" points="2565,-24.5 2421,-24.5 2421,-5.5 2565,-5.5 2565,-24.5"/>
<text text-anchor="middle" x="2493" y="-12.5" font-family="Helvetica,sans-Serif" font-size="10.00">src/engine/actors/Ship.cpp</text>
</a>
</g>
</g>
<!-- Node5&#45;&gt;Node29 -->
<g id="edge28_Node000005_Node000029" class="edge">
<title>Node5&#45;&gt;Node29</title>
<g id="a_edge28_Node000005_Node000029"><a xlink:title=" ">
<path fill="none" stroke="#63b8ff" d="M3542.94,-74.53C3386.28,-74.07 2941.97,-69.13 2575,-30 2562.51,-28.67 2549.03,-26.62 2536.69,-24.51"/>
<polygon fill="#63b8ff" stroke="#63b8ff" points="3543.27,-78.03 3553.28,-74.56 3543.29,-71.03 3543.27,-78.03"/>
</a>
</g>
</g>
<!-- Node30 -->
<g id="Node000030" class="node">
<title>Node30</title>
<g id="a_Node000030"><a xlink:href="Starship_8cpp.html" target="_top" xlink:title=" ">
<polygon fill="white" stroke="#666666" points="2746.5,-24.5 2583.5,-24.5 2583.5,-5.5 2746.5,-5.5 2746.5,-24.5"/>
<text text-anchor="middle" x="2665" y="-12.5" font-family="Helvetica,sans-Serif" font-size="10.00">src/engine/actors/Starship.cpp</text>
</a>
</g>
</g>
<!-- Node5&#45;&gt;Node30 -->
<g id="edge29_Node000005_Node000030" class="edge">
<title>Node5&#45;&gt;Node30</title>
<g id="a_edge29_Node000005_Node000030"><a xlink:title=" ">
<path fill="none" stroke="#63b8ff" d="M3542.95,-73.44C3405.74,-70.51 3050.81,-60.36 2756,-30 2742.48,-28.61 2727.91,-26.6 2714.47,-24.53"/>
<polygon fill="#63b8ff" stroke="#63b8ff" points="3543.15,-76.95 3553.22,-73.66 3543.3,-69.95 3543.15,-76.95"/>
</a>
</g>
</g>
<!-- Node31 -->
<g id="Node000031" class="node">
<title>Node31</title>
<g id="a_Node000031"><a xlink:href="Text_8h.html" target="_top" xlink:title=" ">
<polygon fill="#fff0f0" stroke="red" points="2897,-24.5 2765,-24.5 2765,-5.5 2897,-5.5 2897,-24.5"/>
<text text-anchor="middle" x="2831" y="-12.5" font-family="Helvetica,sans-Serif" font-size="10.00">src/engine/actors/Text.h</text>
</a>
</g>
</g>
<!-- Node5&#45;&gt;Node31 -->
<g id="edge30_Node000005_Node000031" class="edge">
<title>Node5&#45;&gt;Node31</title>
<g id="a_edge30_Node000005_Node000031"><a xlink:title=" ">
<path fill="none" stroke="#63b8ff" d="M3543.27,-73.1C3424,-69.71 3141.89,-59.06 2907,-30 2895.68,-28.6 2883.5,-26.59 2872.28,-24.52"/>
<polygon fill="#63b8ff" stroke="#63b8ff" points="3543.19,-76.6 3553.28,-73.38 3543.38,-69.6 3543.19,-76.6"/>
</a>
</g>
</g>
<!-- Node39 -->
<g id="Node000039" class="node">
<title>Node39</title>
<g id="a_Node000039"><a xlink:href="Course_8cpp.html" target="_top" xlink:title=" ">
<polygon fill="white" stroke="#666666" points="3022.5,-30 2915.5,-30 2915.5,0 3022.5,0 3022.5,-30"/>
<text text-anchor="start" x="2923.5" y="-18" font-family="Helvetica,sans-Serif" font-size="10.00">src/engine/courses</text>
<text text-anchor="middle" x="2969" y="-7" font-family="Helvetica,sans-Serif" font-size="10.00">/Course.cpp</text>
</a>
</g>
</g>
<!-- Node5&#45;&gt;Node39 -->
<g id="edge31_Node000005_Node000039" class="edge">
<title>Node5&#45;&gt;Node39</title>
<g id="a_edge31_Node000005_Node000039"><a xlink:title=" ">
<path fill="none" stroke="#63b8ff" d="M3542.95,-72.65C3439.68,-68.77 3217.46,-57.72 3032,-30 3028.9,-29.54 3025.72,-29.01 3022.52,-28.43"/>
<polygon fill="#63b8ff" stroke="#63b8ff" points="3543.04,-76.16 3553.16,-73.03 3543.3,-69.17 3543.04,-76.16"/>
</a>
</g>
</g>
<!-- Node40 -->
<g id="Node000040" class="node">
<title>Node40</title>
<g id="a_Node000040"><a xlink:href="Editor_8cpp.html" target="_top" xlink:title=" ">
<polygon fill="white" stroke="#666666" points="3189.5,-24.5 3040.5,-24.5 3040.5,-5.5 3189.5,-5.5 3189.5,-24.5"/>
<text text-anchor="middle" x="3115" y="-12.5" font-family="Helvetica,sans-Serif" font-size="10.00">src/engine/editor/Editor.cpp</text>
</a>
</g>
</g>
<!-- Node5&#45;&gt;Node40 -->
<g id="edge32_Node000005_Node000040" class="edge">
<title>Node5&#45;&gt;Node40</title>
<g id="a_edge32_Node000005_Node000040"><a xlink:title=" ">
<path fill="none" stroke="#63b8ff" d="M3543.11,-69.1C3464.89,-61.57 3321.15,-46.93 3199,-30 3187.43,-28.4 3175,-26.45 3163.35,-24.52"/>
<polygon fill="#63b8ff" stroke="#63b8ff" points="3542.96,-72.6 3553.25,-70.07 3543.62,-65.63 3542.96,-72.6"/>
</a>
</g>
</g>
<!-- Node41 -->
<g id="Node000041" class="node">
<title>Node41</title>
<g id="a_Node000041"><a xlink:href="EditorMath_8cpp.html" target="_top" xlink:title=" ">
<polygon fill="white" stroke="#666666" points="3338,-30 3208,-30 3208,0 3338,0 3338,-30"/>
<text text-anchor="start" x="3216" y="-18" font-family="Helvetica,sans-Serif" font-size="10.00">src/engine/editor/Editor</text>
<text text-anchor="middle" x="3273" y="-7" font-family="Helvetica,sans-Serif" font-size="10.00">Math.cpp</text>
</a>
</g>
</g>
<!-- Node5&#45;&gt;Node41 -->
<g id="edge33_Node000005_Node000041" class="edge">
<title>Node5&#45;&gt;Node41</title>
<g id="a_edge33_Node000005_Node000041"><a xlink:title=" ">
<path fill="none" stroke="#63b8ff" d="M3543.51,-64.56C3492.21,-55.66 3415.06,-42.16 3348,-30 3344.74,-29.41 3341.4,-28.8 3338.03,-28.18"/>
<polygon fill="#63b8ff" stroke="#63b8ff" points="3542.96,-68.02 3553.41,-66.28 3544.16,-61.12 3542.96,-68.02"/>
</a>
</g>
</g>
<!-- Node42 -->
<g id="Node000042" class="node">
<title>Node42</title>
<g id="a_Node000042"><a xlink:href="Gizmo_8cpp.html" target="_top" xlink:title=" ">
<polygon fill="white" stroke="#666666" points="3509.5,-24.5 3356.5,-24.5 3356.5,-5.5 3509.5,-5.5 3509.5,-24.5"/>
<text text-anchor="middle" x="3433" y="-12.5" font-family="Helvetica,sans-Serif" font-size="10.00">src/engine/editor/Gizmo.cpp</text>
</a>
</g>
</g>
<!-- Node5&#45;&gt;Node42 -->
<g id="edge34_Node000005_Node000042" class="edge">
<title>Node5&#45;&gt;Node42</title>
<g id="a_edge34_Node000005_Node000042"><a xlink:title=" ">
<path fill="none" stroke="#63b8ff" d="M3567.03,-62.67C3534.54,-51.36 3486.34,-34.57 3457.46,-24.52"/>
<polygon fill="#63b8ff" stroke="#63b8ff" points="3565.98,-66.01 3576.57,-65.99 3568.28,-59.4 3565.98,-66.01"/>
</a>
</g>
</g>
<!-- Node43 -->
<g id="Node000043" class="node">
<title>Node43</title>
<g id="a_Node000043"><a xlink:href="Light_8cpp.html" target="_top" xlink:title=" ">
<polygon fill="white" stroke="#666666" points="3674,-24.5 3528,-24.5 3528,-5.5 3674,-5.5 3674,-24.5"/>
<text text-anchor="middle" x="3601" y="-12.5" font-family="Helvetica,sans-Serif" font-size="10.00">src/engine/editor/Light.cpp</text>
</a>
</g>
</g>
<!-- Node5&#45;&gt;Node43 -->
<g id="edge35_Node000005_Node000043" class="edge">
<title>Node5&#45;&gt;Node43</title>
<g id="a_edge35_Node000005_Node000043"><a xlink:title=" ">
<path fill="none" stroke="#63b8ff" d="M3601,-55.66C3601,-45.24 3601,-32.8 3601,-24.67"/>
<polygon fill="#63b8ff" stroke="#63b8ff" points="3597.5,-55.87 3601,-65.87 3604.5,-55.87 3597.5,-55.87"/>
</a>
</g>
</g>
<!-- Node44 -->
<g id="Node000044" class="node">
<title>Node44</title>
<g id="a_Node000044"><a xlink:href="ObjectPicker_8cpp.html" target="_top" xlink:title=" ">
<polygon fill="white" stroke="#666666" points="3825.5,-30 3692.5,-30 3692.5,0 3825.5,0 3825.5,-30"/>
<text text-anchor="start" x="3700.5" y="-18" font-family="Helvetica,sans-Serif" font-size="10.00">src/engine/editor/Object</text>
<text text-anchor="middle" x="3759" y="-7" font-family="Helvetica,sans-Serif" font-size="10.00">Picker.cpp</text>
</a>
</g>
</g>
<!-- Node5&#45;&gt;Node44 -->
<g id="edge36_Node000005_Node000044" class="edge">
<title>Node5&#45;&gt;Node44</title>
<g id="a_edge36_Node000005_Node000044"><a xlink:title=" ">
<path fill="none" stroke="#63b8ff" d="M3633.52,-62.46C3658.94,-53.05 3694.3,-39.95 3721.01,-30.06"/>
<polygon fill="#63b8ff" stroke="#63b8ff" points="3632.14,-59.24 3623.97,-65.99 3634.57,-65.8 3632.14,-59.24"/>
</a>
</g>
</g>
<!-- Node45 -->
<g id="Node000045" class="node">
<title>Node45</title>
<g id="a_Node000045"><a xlink:href="SceneManager_8cpp.html" target="_top" xlink:title=" ">
<polygon fill="white" stroke="#666666" points="4036.5,-24.5 3843.5,-24.5 3843.5,-5.5 4036.5,-5.5 4036.5,-24.5"/>
<text text-anchor="middle" x="3940" y="-12.5" font-family="Helvetica,sans-Serif" font-size="10.00">src/engine/editor/SceneManager.cpp</text>
</a>
</g>
</g>
<!-- Node5&#45;&gt;Node45 -->
<g id="edge37_Node000005_Node000045" class="edge">
<title>Node5&#45;&gt;Node45</title>
<g id="a_edge37_Node000005_Node000045"><a xlink:title=" ">
<path fill="none" stroke="#63b8ff" d="M3658.98,-64.5C3724.27,-53.23 3829.26,-35.11 3890.74,-24.5"/>
<polygon fill="#63b8ff" stroke="#63b8ff" points="3658.11,-61.09 3648.85,-66.24 3659.3,-67.99 3658.11,-61.09"/>
</a>
</g>
</g>
<!-- Node46 -->
<g id="Node000046" class="node">
<title>Node46</title>
<g id="a_Node000046"><a xlink:href="BombKart_8cpp.html" target="_top" xlink:title=" ">
<polygon fill="white" stroke="#666666" points="4159.5,-30 4054.5,-30 4054.5,0 4159.5,0 4159.5,-30"/>
<text text-anchor="start" x="4062.5" y="-18" font-family="Helvetica,sans-Serif" font-size="10.00">src/engine/objects</text>
<text text-anchor="middle" x="4107" y="-7" font-family="Helvetica,sans-Serif" font-size="10.00">/BombKart.cpp</text>
</a>
</g>
</g>
<!-- Node5&#45;&gt;Node46 -->
<g id="edge38_Node000005_Node000046" class="edge">
<title>Node5&#45;&gt;Node46</title>
<g id="a_edge38_Node000005_Node000046"><a xlink:title=" ">
<path fill="none" stroke="#63b8ff" d="M3658.66,-71.06C3743.79,-65.46 3907.95,-52.65 4046,-30 4048.68,-29.56 4051.42,-29.07 4054.18,-28.55"/>
<polygon fill="#63b8ff" stroke="#63b8ff" points="3658.43,-67.57 3648.68,-71.71 3658.88,-74.56 3658.43,-67.57"/>
</a>
</g>
</g>
<!-- Node47 -->
<g id="Node000047" class="node">
<title>Node47</title>
<g id="a_Node000047"><a xlink:href="CheepCheep_8cpp.html" target="_top" xlink:title=" ">
<polygon fill="white" stroke="#666666" points="4282.5,-30 4177.5,-30 4177.5,0 4282.5,0 4282.5,-30"/>
<text text-anchor="start" x="4185.5" y="-18" font-family="Helvetica,sans-Serif" font-size="10.00">src/engine/objects</text>
<text text-anchor="middle" x="4230" y="-7" font-family="Helvetica,sans-Serif" font-size="10.00">/CheepCheep.cpp</text>
</a>
</g>
</g>
<!-- Node5&#45;&gt;Node47 -->
<g id="edge39_Node000005_Node000047" class="edge">
<title>Node5&#45;&gt;Node47</title>
<g id="a_edge39_Node000005_Node000047"><a xlink:title=" ">
<path fill="none" stroke="#63b8ff" d="M3658.97,-72.78C3762.09,-69.09 3983.96,-58.32 4169,-30 4171.69,-29.59 4174.43,-29.12 4177.19,-28.62"/>
<polygon fill="#63b8ff" stroke="#63b8ff" points="3658.64,-69.29 3648.77,-73.13 3658.89,-76.28 3658.64,-69.29"/>
</a>
</g>
</g>
<!-- Node48 -->
<g id="Node000048" class="node">
<title>Node48</title>
<g id="a_Node000048"><a xlink:href="Crab_8cpp.html" target="_top" xlink:title=" ">
<polygon fill="white" stroke="#666666" points="4405.5,-30 4300.5,-30 4300.5,0 4405.5,0 4405.5,-30"/>
<text text-anchor="start" x="4308.5" y="-18" font-family="Helvetica,sans-Serif" font-size="10.00">src/engine/objects</text>
<text text-anchor="middle" x="4353" y="-7" font-family="Helvetica,sans-Serif" font-size="10.00">/Crab.cpp</text>
</a>
</g>
</g>
<!-- Node5&#45;&gt;Node48 -->
<g id="edge40_Node000005_Node000048" class="edge">
<title>Node5&#45;&gt;Node48</title>
<g id="a_edge40_Node000005_Node000048"><a xlink:title=" ">
<path fill="none" stroke="#63b8ff" d="M3658.95,-73.92C3778.12,-72.03 4059.04,-64.01 4292,-30 4294.69,-29.61 4297.43,-29.16 4300.2,-28.67"/>
<polygon fill="#63b8ff" stroke="#63b8ff" points="3658.56,-70.42 3648.61,-74.07 3658.66,-77.42 3658.56,-70.42"/>
</a>
</g>
</g>
<!-- Node49 -->
<g id="Node000049" class="node">
<title>Node49</title>
<g id="a_Node000049"><a xlink:href="GrandPrixBalloons_8cpp.html" target="_top" xlink:title=" ">
<polygon fill="white" stroke="#666666" points="4554,-30 4424,-30 4424,0 4554,0 4554,-30"/>
<text text-anchor="start" x="4432" y="-18" font-family="Helvetica,sans-Serif" font-size="10.00">src/engine/objects</text>
<text text-anchor="middle" x="4489" y="-7" font-family="Helvetica,sans-Serif" font-size="10.00">/GrandPrixBalloons.cpp</text>
</a>
</g>
</g>
<!-- Node5&#45;&gt;Node49 -->
<g id="edge41_Node000005_Node000049" class="edge">
<title>Node5&#45;&gt;Node49</title>
<g id="a_edge41_Node000005_Node000049"><a xlink:title=" ">
<path fill="none" stroke="#63b8ff" d="M3658.93,-73.96C3792.63,-72.14 4132.92,-64.24 4415,-30 4417.86,-29.65 4420.77,-29.26 4423.7,-28.84"/>
<polygon fill="#63b8ff" stroke="#63b8ff" points="3658.86,-70.46 3648.9,-74.09 3658.95,-77.46 3658.86,-70.46"/>
</a>
</g>
</g>
<!-- Node50 -->
<g id="Node000050" class="node">
<title>Node50</title>
<g id="a_Node000050"><a xlink:href="Hedgehog_8cpp.html" target="_top" xlink:title=" ">
<polygon fill="white" stroke="#666666" points="4677.5,-30 4572.5,-30 4572.5,0 4677.5,0 4677.5,-30"/>
<text text-anchor="start" x="4580.5" y="-18" font-family="Helvetica,sans-Serif" font-size="10.00">src/engine/objects</text>
<text text-anchor="middle" x="4625" y="-7" font-family="Helvetica,sans-Serif" font-size="10.00">/Hedgehog.cpp</text>
</a>
</g>
</g>
<!-- Node5&#45;&gt;Node50 -->
<g id="edge42_Node000005_Node000050" class="edge">
<title>Node5&#45;&gt;Node50</title>
<g id="a_edge42_Node000005_Node000050"><a xlink:title=" ">
<path fill="none" stroke="#63b8ff" d="M3658.71,-73.16C3838.43,-68.79 4386.65,-53.8 4563,-30 4566.06,-29.59 4569.2,-29.1 4572.35,-28.55"/>
<polygon fill="#63b8ff" stroke="#63b8ff" points="3658.57,-69.66 3648.66,-73.41 3658.74,-76.66 3658.57,-69.66"/>
</a>
</g>
</g>
<!-- Node51 -->
<g id="Node000051" class="node">
<title>Node51</title>
<g id="a_Node000051"><a xlink:href="HotAirBalloon_8cpp.html" target="_top" xlink:title=" ">
<polygon fill="white" stroke="#666666" points="4802.5,-30 4695.5,-30 4695.5,0 4802.5,0 4802.5,-30"/>
<text text-anchor="start" x="4703.5" y="-18" font-family="Helvetica,sans-Serif" font-size="10.00">src/engine/objects</text>
<text text-anchor="middle" x="4749" y="-7" font-family="Helvetica,sans-Serif" font-size="10.00">/HotAirBalloon.cpp</text>
</a>
</g>
</g>
<!-- Node5&#45;&gt;Node51 -->
<g id="edge43_Node000005_Node000051" class="edge">
<title>Node5&#45;&gt;Node51</title>
<g id="a_edge43_Node000005_Node000051"><a xlink:title=" ">
<path fill="none" stroke="#63b8ff" d="M3658.76,-73.51C3853.55,-69.97 4485.41,-56.67 4687,-30 4689.73,-29.64 4692.53,-29.21 4695.34,-28.74"/>
<polygon fill="#63b8ff" stroke="#63b8ff" points="3658.66,-70.02 3648.72,-73.69 3658.79,-77.01 3658.66,-70.02"/>
</a>
</g>
</g>
<!-- Node52 -->
<g id="Node000052" class="node">
<title>Node52</title>
<g id="a_Node000052"><a xlink:href="Lakitu_8cpp.html" target="_top" xlink:title=" ">
<polygon fill="white" stroke="#666666" points="4925.5,-30 4820.5,-30 4820.5,0 4925.5,0 4925.5,-30"/>
<text text-anchor="start" x="4828.5" y="-18" font-family="Helvetica,sans-Serif" font-size="10.00">src/engine/objects</text>
<text text-anchor="middle" x="4873" y="-7" font-family="Helvetica,sans-Serif" font-size="10.00">/Lakitu.cpp</text>
</a>
</g>
</g>
<!-- Node5&#45;&gt;Node52 -->
<g id="edge44_Node000005_Node000052" class="edge">
<title>Node5&#45;&gt;Node52</title>
<g id="a_edge44_Node000005_Node000052"><a xlink:title=" ">
<path fill="none" stroke="#63b8ff" d="M3658.96,-73.82C3868.32,-71.14 4584.96,-59.95 4812,-30 4814.69,-29.64 4817.44,-29.23 4820.21,-28.76"/>
<polygon fill="#63b8ff" stroke="#63b8ff" points="3658.75,-70.32 3648.8,-73.95 3658.84,-77.32 3658.75,-70.32"/>
</a>
</g>
</g>
<!-- Node53 -->
<g id="Node000053" class="node">
<title>Node53</title>
<g id="a_Node000053"><a xlink:href="Penguin_8cpp.html" target="_top" xlink:title=" ">
<polygon fill="white" stroke="#666666" points="5048.5,-30 4943.5,-30 4943.5,0 5048.5,0 5048.5,-30"/>
<text text-anchor="start" x="4951.5" y="-18" font-family="Helvetica,sans-Serif" font-size="10.00">src/engine/objects</text>
<text text-anchor="middle" x="4996" y="-7" font-family="Helvetica,sans-Serif" font-size="10.00">/Penguin.cpp</text>
</a>
</g>
</g>
<!-- Node5&#45;&gt;Node53 -->
<g id="edge45_Node000005_Node000053" class="edge">
<title>Node5&#45;&gt;Node53</title>
<g id="a_edge45_Node000005_Node000053"><a xlink:title=" ">
<path fill="none" stroke="#63b8ff" d="M3658.82,-74.05C3881.35,-72.09 4682.65,-62.86 4935,-30 4937.69,-29.65 4940.44,-29.23 4943.21,-28.77"/>
<polygon fill="#63b8ff" stroke="#63b8ff" points="3658.63,-70.55 3648.66,-74.14 3658.69,-77.55 3658.63,-70.55"/>
</a>
</g>
</g>
<!-- Node54 -->
<g id="Node000054" class="node">
<title>Node54</title>
<g id="a_Node000054"><a xlink:href="Seagull_8cpp.html" target="_top" xlink:title=" ">
<polygon fill="white" stroke="#666666" points="5171.5,-30 5066.5,-30 5066.5,0 5171.5,0 5171.5,-30"/>
<text text-anchor="start" x="5074.5" y="-18" font-family="Helvetica,sans-Serif" font-size="10.00">src/engine/objects</text>
<text text-anchor="middle" x="5119" y="-7" font-family="Helvetica,sans-Serif" font-size="10.00">/Seagull.cpp</text>
</a>
</g>
</g>
<!-- Node5&#45;&gt;Node54 -->
<g id="edge46_Node000005_Node000054" class="edge">
<title>Node5&#45;&gt;Node54</title>
<g id="a_edge46_Node000005_Node000054"><a xlink:title=" ">
<path fill="none" stroke="#63b8ff" d="M3658.63,-74.24C3893.65,-72.95 4780.23,-65.77 5058,-30 5060.69,-29.65 5063.44,-29.24 5066.21,-28.78"/>
<polygon fill="#63b8ff" stroke="#63b8ff" points="3658.57,-70.74 3648.59,-74.29 3658.61,-77.74 3658.57,-70.74"/>
</a>
</g>
</g>
<!-- Node55 -->
<g id="Node000055" class="node">
<title>Node55</title>
<g id="a_Node000055"><a xlink:href="Thwomp_8cpp.html" target="_top" xlink:title=" ">
<polygon fill="white" stroke="#666666" points="5294.5,-30 5189.5,-30 5189.5,0 5294.5,0 5294.5,-30"/>
<text text-anchor="start" x="5197.5" y="-18" font-family="Helvetica,sans-Serif" font-size="10.00">src/engine/objects</text>
<text text-anchor="middle" x="5242" y="-7" font-family="Helvetica,sans-Serif" font-size="10.00">/Thwomp.cpp</text>
</a>
</g>
</g>
<!-- Node5&#45;&gt;Node55 -->
<g id="edge47_Node000005_Node000055" class="edge">
<title>Node5&#45;&gt;Node55</title>
<g id="a_edge47_Node000005_Node000055"><a xlink:title=" ">
<path fill="none" stroke="#63b8ff" d="M3658.94,-74.4C3906.66,-73.73 4877.93,-68.66 5181,-30 5183.69,-29.66 5186.44,-29.25 5189.21,-28.79"/>
<polygon fill="#63b8ff" stroke="#63b8ff" points="3658.71,-70.9 3648.72,-74.43 3658.73,-77.9 3658.71,-70.9"/>
</a>
</g>
</g>
<!-- Node56 -->
<g id="Node000056" class="node">
<title>Node56</title>
<g id="a_Node000056"><a xlink:href="TrashBin_8cpp.html" target="_top" xlink:title=" ">
<polygon fill="white" stroke="#666666" points="5417.5,-30 5312.5,-30 5312.5,0 5417.5,0 5417.5,-30"/>
<text text-anchor="start" x="5320.5" y="-18" font-family="Helvetica,sans-Serif" font-size="10.00">src/engine/objects</text>
<text text-anchor="middle" x="5365" y="-7" font-family="Helvetica,sans-Serif" font-size="10.00">/TrashBin.cpp</text>
</a>
</g>
</g>
<!-- Node5&#45;&gt;Node56 -->
<g id="edge48_Node000005_Node000056" class="edge">
<title>Node5&#45;&gt;Node56</title>
<g id="a_edge48_Node000005_Node000056"><a xlink:title=" ">
<path fill="none" stroke="#63b8ff" d="M3659.13,-74.54C3918.96,-74.46 4975.52,-71.56 5304,-30 5306.69,-29.66 5309.45,-29.25 5312.21,-28.79"/>
<polygon fill="#63b8ff" stroke="#63b8ff" points="3658.79,-71.04 3648.79,-74.54 3658.79,-78.04 3658.79,-71.04"/>
</a>
</g>
</g>
<!-- Node57 -->
<g id="Node000057" class="node">
<title>Node57</title>
<g id="a_Node000057"><a xlink:href="Trophy_8cpp.html" target="_top" xlink:title=" ">
<polygon fill="white" stroke="#666666" points="5540.5,-30 5435.5,-30 5435.5,0 5540.5,0 5540.5,-30"/>
<text text-anchor="start" x="5443.5" y="-18" font-family="Helvetica,sans-Serif" font-size="10.00">src/engine/objects</text>
<text text-anchor="middle" x="5488" y="-7" font-family="Helvetica,sans-Serif" font-size="10.00">/Trophy.cpp</text>
</a>
</g>
</g>
<!-- Node5&#45;&gt;Node57 -->
<g id="edge49_Node000005_Node000057" class="edge">
<title>Node5&#45;&gt;Node57</title>
<g id="a_edge49_Node000005_Node000057"><a xlink:title=" ">
<path fill="none" stroke="#63b8ff" d="M3658.89,-74.66C3929.66,-75.15 5072.87,-74.49 5427,-30 5429.7,-29.66 5432.45,-29.26 5435.22,-28.8"/>
<polygon fill="#63b8ff" stroke="#63b8ff" points="3658.89,-71.16 3648.88,-74.64 3658.87,-78.16 3658.89,-71.16"/>
</a>
</g>
</g>
<!-- Node58 -->
<g id="Node000058" class="node">
<title>Node58</title>
<g id="a_Node000058"><a xlink:href="Boat_8cpp.html" target="_top" xlink:title=" ">
<polygon fill="white" stroke="#666666" points="5669,-30 5559,-30 5559,0 5669,0 5669,-30"/>
<text text-anchor="start" x="5567" y="-18" font-family="Helvetica,sans-Serif" font-size="10.00">src/engine/vehicles</text>
<text text-anchor="middle" x="5614" y="-7" font-family="Helvetica,sans-Serif" font-size="10.00">/Boat.cpp</text>
</a>
</g>
</g>
<!-- Node5&#45;&gt;Node58 -->
<g id="edge50_Node000005_Node000058" class="edge">
<title>Node5&#45;&gt;Node58</title>
<g id="a_edge50_Node000005_Node000058"><a xlink:title=" ">
<path fill="none" stroke="#63b8ff" d="M3659.03,-74.68C3941.02,-75.33 5170.1,-75.46 5550,-30 5552.94,-29.65 5555.94,-29.22 5558.96,-28.75"/>
<polygon fill="#63b8ff" stroke="#63b8ff" points="3658.63,-71.18 3648.63,-74.66 3658.62,-78.18 3658.63,-71.18"/>
</a>
</g>
</g>
</g>
</svg>

<g id="navigator" transform="translate(0 0)" fill="#404254">
  <rect fill="#f2f5e9" fill-opacity="0.5" stroke="#606060" stroke-width=".5" x="0" y="0" width="60" height="60"/>
  <use id="zoomplus" xlink:href="#zoomPlus" x="17" y="9" onmousedown="handleZoom(evt,'in')"/>
  <use id="zoomminus" xlink:href="#zoomMin" x="42" y="9" onmousedown="handleZoom(evt,'out')"/>
  <use id="reset" xlink:href="#resetDef" x="30" y="36" onmousedown="handleReset()"/>
   <use id="arrowup" xlink:href="#arrowUp" x="0" y="0" onmousedown="handlePan(0,-1)"/>
  <use id="arrowright" xlink:href="#arrowRight" x="0" y="0" onmousedown="handlePan(1,0)"/>
  <use id="arrowdown" xlink:href="#arrowDown" x="0" y="0" onmousedown="handlePan(0,1)"/>
  <use id="arrowleft" xlink:href="#arrowLeft" x="0" y="0" onmousedown="handlePan(-1,0)"/>
</g>
<svg viewBox="0 0 15 15" width="100%" height="30px" preserveAspectRatio="xMaxYMin meet">
 <g id="arrow_out" transform="scale(0.3 0.3)">
  <a xlink:href="HM__Intro_8h__dep__incl_org.svg" target="_base">
   <rect id="button" ry="5" rx="5" y="6" x="6" height="38" width="38"
        fill="#f2f5e9" fill-opacity="0.5" stroke="#606060" stroke-width="1.0"/>
   <path id="arrow"
     d="M 11.500037,31.436501 C 11.940474,20.09759 22.043105,11.32322 32.158766,21.979434 L 37.068811,17.246167 C 37.068811,17.246167 37.088388,32 37.088388,32 L 22.160133,31.978069 C 22.160133,31.978069 26.997745,27.140456 26.997745,27.140456 C 18.528582,18.264221 13.291696,25.230495 11.500037,31.436501 z"
     style="fill:#404040;"/>
  </a>
 </g>
</svg>

<style type='text/css'>
<![CDATA[
[data-mouse-over-selected='false'] { opacity: 0.7; }
[data-mouse-over-selected='true']  { opacity: 1.0; }
]]>
</style>
<script type="application/ecmascript"><![CDATA[
document.addEventListener('DOMContentLoaded', (event) => {
  highlightEdges();
  highlightAdjacentNodes();
});
]]></script>
</svg>
