<?xml version="1.0" encoding="UTF-8" standalone="no"?>
<!DOCTYPE svg PUBLIC "-//W3C//DTD SVG 1.1//EN"
 "http://www.w3.org/Graphics/SVG/1.1/DTD/svg11.dtd">
<!-- Generated by graphviz version 2.43.0 (0)
 -->
<!-- Title: src/engine/courses/LuigiRaceway.h Pages: 1 -->
<svg width="1374pt" height="379pt"
 viewBox="0.00 0.00 1374.00 379.00" xmlns="http://www.w3.org/2000/svg" xmlns:xlink="http://www.w3.org/1999/xlink">
<g id="graph0" class="graph" transform="scale(1 1) rotate(0) translate(4 375)">
<title>src/engine/courses/LuigiRaceway.h</title>
<!-- Node1 -->
<g id="Node000001" class="node">
<title>Node1</title>
<g id="a_Node000001"><a xlink:title=" ">
<polygon fill="#999999" stroke="#666666" points="967.5,-371 860.5,-371 860.5,-341 967.5,-341 967.5,-371"/>
<text text-anchor="start" x="868.5" y="-359" font-family="Helvetica,sans-Serif" font-size="10.00">src/engine/courses</text>
<text text-anchor="middle" x="914" y="-348" font-family="Helvetica,sans-Serif" font-size="10.00">/LuigiRaceway.h</text>
</a>
</g>
</g>
<!-- Node2 -->
<g id="Node000002" class="node">
<title>Node2</title>
<g id="a_Node000002"><a xlink:title=" ">
<polygon fill="#e0e0e0" stroke="#999999" points="391,-19 311,-19 311,0 391,0 391,-19"/>
<text text-anchor="middle" x="351" y="-7" font-family="Helvetica,sans-Serif" font-size="10.00">libultraship.h</text>
</a>
</g>
</g>
<!-- Node1&#45;&gt;Node2 -->
<g id="edge1_Node000001_Node000002" class="edge">
<title>Node1&#45;&gt;Node2</title>
<g id="a_edge1_Node000001_Node000002"><a xlink:title=" ">
<path fill="none" stroke="#63b8ff" d="M967.63,-352.79C1087.36,-346.41 1366,-322.81 1366,-241.5 1366,-241.5 1366,-241.5 1366,-124 1366,-25.8 605.98,-12.56 401.27,-10.78"/>
<polygon fill="#63b8ff" stroke="#63b8ff" points="401.13,-7.28 391.1,-10.7 401.07,-14.28 401.13,-7.28"/>
</a>
</g>
</g>
<!-- Node3 -->
<g id="Node000003" class="node">
<title>Node3</title>
<g id="a_Node000003"><a xlink:href="Course_8h.html" target="_top" xlink:title=" ">
<polygon fill="white" stroke="#666666" points="876.5,-305 817.5,-305 817.5,-286 876.5,-286 876.5,-305"/>
<text text-anchor="middle" x="847" y="-293" font-family="Helvetica,sans-Serif" font-size="10.00">Course.h</text>
</a>
</g>
</g>
<!-- Node1&#45;&gt;Node3 -->
<g id="edge2_Node000001_Node000003" class="edge">
<title>Node1&#45;&gt;Node3</title>
<g id="a_edge2_Node000001_Node000003"><a xlink:title=" ">
<path fill="none" stroke="#63b8ff" d="M897.78,-340.84C887.76,-332.09 874.89,-320.85 864.62,-311.88"/>
<polygon fill="#63b8ff" stroke="#63b8ff" points="866.87,-309.21 857.04,-305.27 862.27,-314.48 866.87,-309.21"/>
</a>
</g>
</g>
<!-- Node6 -->
<g id="Node000006" class="node">
<title>Node6</title>
<g id="a_Node000006"><a xlink:href="camera_8h.html" target="_top" xlink:title=" ">
<polygon fill="white" stroke="#666666" points="556,-195 494,-195 494,-176 556,-176 556,-195"/>
<text text-anchor="middle" x="525" y="-183" font-family="Helvetica,sans-Serif" font-size="10.00">camera.h</text>
</a>
</g>
</g>
<!-- Node1&#45;&gt;Node6 -->
<g id="edge61_Node000001_Node000006" class="edge">
<title>Node1&#45;&gt;Node6</title>
<g id="a_edge61_Node000001_Node000006"><a xlink:title=" ">
<path fill="none" stroke="#63b8ff" d="M860.17,-348.27C763.87,-335.03 568.27,-302.23 527,-250 517.18,-237.57 517.75,-219.1 520.14,-205.28"/>
<polygon fill="#63b8ff" stroke="#63b8ff" points="523.58,-205.92 522.29,-195.4 516.74,-204.43 523.58,-205.92"/>
</a>
</g>
</g>
<!-- Node8 -->
<g id="Node000008" class="node">
<title>Node8</title>
<g id="a_Node000008"><a xlink:href="course__offsets_8h.html" target="_top" xlink:title=" ">
<polygon fill="white" stroke="#666666" points="476,-195 380,-195 380,-176 476,-176 476,-195"/>
<text text-anchor="middle" x="428" y="-183" font-family="Helvetica,sans-Serif" font-size="10.00">course_offsets.h</text>
</a>
</g>
</g>
<!-- Node1&#45;&gt;Node8 -->
<g id="edge60_Node000001_Node000008" class="edge">
<title>Node1&#45;&gt;Node8</title>
<g id="a_edge60_Node000001_Node000008"><a xlink:title=" ">
<path fill="none" stroke="#63b8ff" d="M860.3,-352.79C793.81,-348.72 677.85,-337.24 584,-305 536.76,-288.77 525.12,-281.06 486,-250 468.54,-236.14 451.72,-216.85 440.73,-203.18"/>
<polygon fill="#63b8ff" stroke="#63b8ff" points="443.33,-200.82 434.4,-195.11 437.82,-205.14 443.33,-200.82"/>
</a>
</g>
</g>
<!-- Node14 -->
<g id="Node000014" class="node">
<title>Node14</title>
<g id="a_Node000014"><a xlink:href="src_2data_2some__data_8h.html" target="_top" xlink:title=" ">
<polygon fill="white" stroke="#666666" points="1279,-250 1175,-250 1175,-231 1279,-231 1279,-250"/>
<text text-anchor="middle" x="1227" y="-238" font-family="Helvetica,sans-Serif" font-size="10.00">data/some_data.h</text>
</a>
</g>
</g>
<!-- Node1&#45;&gt;Node14 -->
<g id="edge62_Node000001_Node000014" class="edge">
<title>Node1&#45;&gt;Node14</title>
<g id="a_edge62_Node000001_Node000014"><a xlink:title=" ">
<path fill="none" stroke="#63b8ff" d="M952.69,-340.97C1014.7,-318.49 1135.25,-274.77 1193.67,-253.59"/>
<polygon fill="#63b8ff" stroke="#63b8ff" points="1194.95,-256.84 1203.16,-250.14 1192.57,-250.26 1194.95,-256.84"/>
</a>
</g>
</g>
<!-- Node16 -->
<g id="Node000016" class="node">
<title>Node16</title>
<g id="a_Node000016"><a xlink:href="objects_8h.html" target="_top" xlink:title=" ">
<polygon fill="white" stroke="#666666" points="1337.5,-195 1276.5,-195 1276.5,-176 1337.5,-176 1337.5,-195"/>
<text text-anchor="middle" x="1307" y="-183" font-family="Helvetica,sans-Serif" font-size="10.00">objects.h</text>
</a>
</g>
</g>
<!-- Node1&#45;&gt;Node16 -->
<g id="edge63_Node000001_Node000016" class="edge">
<title>Node1&#45;&gt;Node16</title>
<g id="a_edge63_Node000001_Node000016"><a xlink:title=" ">
<path fill="none" stroke="#63b8ff" d="M967.76,-355.34C1048.4,-352.85 1200.52,-336.1 1288,-250 1299.91,-238.28 1304.42,-219.43 1306.09,-205.31"/>
<polygon fill="#63b8ff" stroke="#63b8ff" points="1309.59,-205.47 1306.92,-195.22 1302.62,-204.9 1309.59,-205.47"/>
</a>
</g>
</g>
<!-- Node21 -->
<g id="Node000021" class="node">
<title>Node21</title>
<g id="a_Node000021"><a xlink:href="path__spawn__metadata_8h.html" target="_top" xlink:title=" ">
<polygon fill="white" stroke="#666666" points="1118.5,-250 981.5,-250 981.5,-231 1118.5,-231 1118.5,-250"/>
<text text-anchor="middle" x="1050" y="-238" font-family="Helvetica,sans-Serif" font-size="10.00">path_spawn_metadata.h</text>
</a>
</g>
</g>
<!-- Node1&#45;&gt;Node21 -->
<g id="edge64_Node000001_Node000021" class="edge">
<title>Node1&#45;&gt;Node21</title>
<g id="a_edge64_Node000001_Node000021"><a xlink:title=" ">
<path fill="none" stroke="#63b8ff" d="M930.95,-340.85C956.65,-319.41 1005.28,-278.82 1031.74,-256.74"/>
<polygon fill="#63b8ff" stroke="#63b8ff" points="1034.06,-259.37 1039.49,-250.27 1029.57,-253.99 1034.06,-259.37"/>
</a>
</g>
</g>
<!-- Node25 -->
<g id="Node000025" class="node">
<title>Node25</title>
<g id="a_Node000025"><a xlink:href="luigi__raceway__vertices_8h.html" target="_top" xlink:title=" ">
<polygon fill="white" stroke="#666666" points="273.5,-140 154.5,-140 154.5,-110 273.5,-110 273.5,-140"/>
<text text-anchor="start" x="162.5" y="-128" font-family="Helvetica,sans-Serif" font-size="10.00">assets/luigi_raceway</text>
<text text-anchor="middle" x="214" y="-117" font-family="Helvetica,sans-Serif" font-size="10.00">_vertices.h</text>
</a>
</g>
</g>
<!-- Node1&#45;&gt;Node25 -->
<g id="edge48_Node000001_Node000025" class="edge">
<title>Node1&#45;&gt;Node25</title>
<g id="a_edge48_Node000001_Node000025"><a xlink:title=" ">
<path fill="none" stroke="#63b8ff" d="M860.45,-351.89C760.71,-345.59 550.42,-329.78 482,-305 380.72,-268.32 280.21,-185.58 236.58,-146.8"/>
<polygon fill="#63b8ff" stroke="#63b8ff" points="238.89,-144.16 229.11,-140.09 234.21,-149.37 238.89,-144.16"/>
</a>
</g>
</g>
<!-- Node26 -->
<g id="Node000026" class="node">
<title>Node26</title>
<g id="a_Node000026"><a xlink:href="luigi__raceway__displaylists_8h.html" target="_top" xlink:title=" ">
<polygon fill="white" stroke="#666666" points="410.5,-140 291.5,-140 291.5,-110 410.5,-110 410.5,-140"/>
<text text-anchor="start" x="299.5" y="-128" font-family="Helvetica,sans-Serif" font-size="10.00">assets/luigi_raceway</text>
<text text-anchor="middle" x="351" y="-117" font-family="Helvetica,sans-Serif" font-size="10.00">_displaylists.h</text>
</a>
</g>
</g>
<!-- Node1&#45;&gt;Node26 -->
<g id="edge52_Node000001_Node000026" class="edge">
<title>Node1&#45;&gt;Node26</title>
<g id="a_edge52_Node000001_Node000026"><a xlink:title=" ">
<path fill="none" stroke="#63b8ff" d="M860.35,-355.66C784.83,-354.9 643.99,-347.22 533,-305 451.66,-274.06 422.15,-265.41 371,-195 361.48,-181.89 356.47,-164.32 353.85,-150.19"/>
<polygon fill="#63b8ff" stroke="#63b8ff" points="357.28,-149.52 352.27,-140.19 350.37,-150.61 357.28,-149.52"/>
</a>
</g>
</g>
<!-- Node27 -->
<g id="Node000027" class="node">
<title>Node27</title>
<g id="a_Node000027"><a xlink:href="luigi__raceway__data_8h.html" target="_top" xlink:title=" ">
<polygon fill="white" stroke="#666666" points="624.5,-140 505.5,-140 505.5,-110 624.5,-110 624.5,-140"/>
<text text-anchor="start" x="513.5" y="-128" font-family="Helvetica,sans-Serif" font-size="10.00">assets/luigi_raceway</text>
<text text-anchor="middle" x="565" y="-117" font-family="Helvetica,sans-Serif" font-size="10.00">_data.h</text>
</a>
</g>
</g>
<!-- Node1&#45;&gt;Node27 -->
<g id="edge56_Node000001_Node000027" class="edge">
<title>Node1&#45;&gt;Node27</title>
<g id="a_edge56_Node000001_Node000027"><a xlink:title=" ">
<path fill="none" stroke="#63b8ff" d="M917.78,-340.53C925.68,-306.61 939.79,-221.41 896,-176 857.12,-135.68 706.98,-148.46 634.85,-139.81"/>
<polygon fill="#63b8ff" stroke="#63b8ff" points="635.19,-136.33 624.8,-138.37 634.2,-143.26 635.19,-136.33"/>
</a>
</g>
</g>
<!-- Node4 -->
<g id="Node000004" class="node">
<title>Node4</title>
<g id="a_Node000004"><a xlink:title=" ">
<polygon fill="#e0e0e0" stroke="#999999" points="769,-250 631,-250 631,-231 769,-231 769,-250"/>
<text text-anchor="middle" x="700" y="-238" font-family="Helvetica,sans-Serif" font-size="10.00">libultraship/libultraship.h</text>
</a>
</g>
</g>
<!-- Node3&#45;&gt;Node4 -->
<g id="edge3_Node000003_Node000004" class="edge">
<title>Node3&#45;&gt;Node4</title>
<g id="a_edge3_Node000003_Node000004"><a xlink:title=" ">
<path fill="none" stroke="#63b8ff" d="M823.38,-285.98C799.1,-277.23 761.05,-263.51 733.63,-253.62"/>
<polygon fill="#63b8ff" stroke="#63b8ff" points="734.64,-250.27 724.05,-250.17 732.27,-256.85 734.64,-250.27"/>
</a>
</g>
</g>
<!-- Node5 -->
<g id="Node000005" class="node">
<title>Node5</title>
<g id="a_Node000005"><a xlink:href="CoreMath_8h.html" target="_top" xlink:title=" ">
<polygon fill="white" stroke="#666666" points="82.5,-195 9.5,-195 9.5,-176 82.5,-176 82.5,-195"/>
<text text-anchor="middle" x="46" y="-183" font-family="Helvetica,sans-Serif" font-size="10.00">CoreMath.h</text>
</a>
</g>
</g>
<!-- Node3&#45;&gt;Node5 -->
<g id="edge4_Node000003_Node000005" class="edge">
<title>Node3&#45;&gt;Node5</title>
<g id="a_edge4_Node000003_Node000005"><a xlink:title=" ">
<path fill="none" stroke="#63b8ff" d="M817.49,-291.07C755.86,-283.87 608.99,-266.45 486,-250 342.69,-230.83 173.5,-205.71 93.05,-193.62"/>
<polygon fill="#63b8ff" stroke="#63b8ff" points="93.17,-190.09 82.76,-192.07 92.13,-197.02 93.17,-190.09"/>
</a>
</g>
</g>
<!-- Node3&#45;&gt;Node6 -->
<g id="edge6_Node000003_Node000006" class="edge">
<title>Node3&#45;&gt;Node6</title>
<g id="a_edge6_Node000003_Node000006"><a xlink:title=" ">
<path fill="none" stroke="#63b8ff" d="M817.41,-294.08C749.38,-292.51 584.57,-285.08 544,-250 531.22,-238.95 526.85,-219.7 525.45,-205.28"/>
<polygon fill="#63b8ff" stroke="#63b8ff" points="528.93,-204.79 524.85,-195.01 521.94,-205.19 528.93,-204.79"/>
</a>
</g>
</g>
<!-- Node7 -->
<g id="Node000007" class="node">
<title>Node7</title>
<g id="a_Node000007"><a xlink:href="common__structs_8h.html" target="_top" xlink:title=" ">
<polygon fill="white" stroke="#666666" points="1154.5,-74 1047.5,-74 1047.5,-55 1154.5,-55 1154.5,-74"/>
<text text-anchor="middle" x="1101" y="-62" font-family="Helvetica,sans-Serif" font-size="10.00">common_structs.h</text>
</a>
</g>
</g>
<!-- Node3&#45;&gt;Node7 -->
<g id="edge47_Node000003_Node000007" class="edge">
<title>Node3&#45;&gt;Node7</title>
<g id="a_edge47_Node000003_Node000007"><a xlink:title=" ">
<path fill="none" stroke="#63b8ff" d="M863.3,-285.98C911.91,-260.27 1054.3,-182.61 1084,-140 1095.48,-123.54 1099.33,-100.51 1100.55,-84.43"/>
<polygon fill="#63b8ff" stroke="#63b8ff" points="1104.06,-84.3 1101.06,-74.15 1097.07,-83.96 1104.06,-84.3"/>
</a>
</g>
</g>
<!-- Node3&#45;&gt;Node8 -->
<g id="edge10_Node000003_Node000008" class="edge">
<title>Node3&#45;&gt;Node8</title>
<g id="a_edge10_Node000003_Node000008"><a xlink:title=" ">
<path fill="none" stroke="#63b8ff" d="M817.3,-294.57C759.53,-293.81 628.8,-287.65 527,-250 496.25,-238.63 465.13,-216.54 446.19,-201.65"/>
<polygon fill="#63b8ff" stroke="#63b8ff" points="448.15,-198.73 438.17,-195.19 443.76,-204.19 448.15,-198.73"/>
</a>
</g>
</g>
<!-- Node3&#45;&gt;Node14 -->
<g id="edge19_Node000003_Node000014" class="edge">
<title>Node3&#45;&gt;Node14</title>
<g id="a_edge19_Node000003_Node000014"><a xlink:title=" ">
<path fill="none" stroke="#63b8ff" d="M876.5,-290.39C938.19,-281.78 1081.95,-261.73 1164.92,-250.16"/>
<polygon fill="#63b8ff" stroke="#63b8ff" points="1165.56,-253.6 1174.98,-248.76 1164.59,-246.67 1165.56,-253.6"/>
</a>
</g>
</g>
<!-- Node17 -->
<g id="Node000017" class="node">
<title>Node17</title>
<g id="a_Node000017"><a xlink:href="defines_8h.html" target="_top" xlink:title=" ">
<polygon fill="white" stroke="#666666" points="848.5,-250 787.5,-250 787.5,-231 848.5,-231 848.5,-250"/>
<text text-anchor="middle" x="818" y="-238" font-family="Helvetica,sans-Serif" font-size="10.00">defines.h</text>
</a>
</g>
</g>
<!-- Node3&#45;&gt;Node17 -->
<g id="edge27_Node000003_Node000017" class="edge">
<title>Node3&#45;&gt;Node17</title>
<g id="a_edge27_Node000003_Node000017"><a xlink:title=" ">
<path fill="none" stroke="#63b8ff" d="M842.21,-285.75C838.24,-278.49 832.47,-267.95 827.57,-258.98"/>
<polygon fill="#63b8ff" stroke="#63b8ff" points="830.57,-257.18 822.7,-250.09 824.43,-260.54 830.57,-257.18"/>
</a>
</g>
</g>
<!-- Node18 -->
<g id="Node000018" class="node">
<title>Node18</title>
<g id="a_Node000018"><a xlink:href="bomb__kart_8h.html" target="_top" xlink:title=" ">
<polygon fill="white" stroke="#666666" points="886.5,-195 809.5,-195 809.5,-176 886.5,-176 886.5,-195"/>
<text text-anchor="middle" x="848" y="-183" font-family="Helvetica,sans-Serif" font-size="10.00">bomb_kart.h</text>
</a>
</g>
</g>
<!-- Node3&#45;&gt;Node18 -->
<g id="edge28_Node000003_Node000018" class="edge">
<title>Node3&#45;&gt;Node18</title>
<g id="a_edge28_Node000003_Node000018"><a xlink:title=" ">
<path fill="none" stroke="#63b8ff" d="M849.83,-285.75C852.55,-276.86 856.46,-262.64 858,-250 859.86,-234.75 856.82,-217.54 853.62,-204.88"/>
<polygon fill="#63b8ff" stroke="#63b8ff" points="856.95,-203.79 850.89,-195.1 850.21,-205.67 856.95,-203.79"/>
</a>
</g>
</g>
<!-- Node3&#45;&gt;Node21 -->
<g id="edge35_Node000003_Node000021" class="edge">
<title>Node3&#45;&gt;Node21</title>
<g id="a_edge35_Node000003_Node000021"><a xlink:title=" ">
<path fill="none" stroke="#63b8ff" d="M876.52,-286.79C911.01,-277.79 968.36,-262.81 1007.61,-252.57"/>
<polygon fill="#63b8ff" stroke="#63b8ff" points="1008.63,-255.92 1017.42,-250.01 1006.86,-249.15 1008.63,-255.92"/>
</a>
</g>
</g>
<!-- Node22 -->
<g id="Node000022" class="node">
<title>Node22</title>
<g id="a_Node000022"><a xlink:href="waypoints_8h.html" target="_top" xlink:title=" ">
<polygon fill="white" stroke="#666666" points="1144,-195 1068,-195 1068,-176 1144,-176 1144,-195"/>
<text text-anchor="middle" x="1106" y="-183" font-family="Helvetica,sans-Serif" font-size="10.00">waypoints.h</text>
</a>
</g>
</g>
<!-- Node3&#45;&gt;Node22 -->
<g id="edge45_Node000003_Node000022" class="edge">
<title>Node3&#45;&gt;Node22</title>
<g id="a_edge45_Node000003_Node000022"><a xlink:title=" ">
<path fill="none" stroke="#63b8ff" d="M876.85,-294.44C942.46,-293.59 1095.92,-287.56 1128,-250 1139.31,-236.75 1129.95,-217.36 1120.18,-203.5"/>
<polygon fill="#63b8ff" stroke="#63b8ff" points="1122.76,-201.12 1113.91,-195.3 1117.2,-205.37 1122.76,-201.12"/>
</a>
</g>
</g>
<!-- Node24 -->
<g id="Node000024" class="node">
<title>Node24</title>
<g id="a_Node000024"><a xlink:href="sounds_8h.html" target="_top" xlink:title=" ">
<polygon fill="white" stroke="#666666" points="613,-250 553,-250 553,-231 613,-231 613,-250"/>
<text text-anchor="middle" x="583" y="-238" font-family="Helvetica,sans-Serif" font-size="10.00">sounds.h</text>
</a>
</g>
</g>
<!-- Node3&#45;&gt;Node24 -->
<g id="edge46_Node000003_Node000024" class="edge">
<title>Node3&#45;&gt;Node24</title>
<g id="a_edge46_Node000003_Node000024"><a xlink:title=" ">
<path fill="none" stroke="#63b8ff" d="M817.48,-288.85C776.29,-280.93 698.99,-265.91 623.39,-250.26"/>
<polygon fill="#63b8ff" stroke="#63b8ff" points="623.72,-246.75 613.22,-248.15 622.3,-253.61 623.72,-246.75"/>
</a>
</g>
</g>
<!-- Node5&#45;&gt;Node2 -->
<g id="edge5_Node000005_Node000002" class="edge">
<title>Node5&#45;&gt;Node2</title>
<g id="a_edge5_Node000005_Node000002"><a xlink:title=" ">
<path fill="none" stroke="#63b8ff" d="M39.37,-175.88C33.24,-167.32 24.54,-153.54 21,-140 16.7,-123.55 23.39,-56.72 25,-55 61.56,-16.06 218.66,-10.27 300.69,-9.97"/>
<polygon fill="#63b8ff" stroke="#63b8ff" points="300.79,-13.47 310.79,-9.96 300.78,-6.47 300.79,-13.47"/>
</a>
</g>
</g>
<!-- Node6&#45;&gt;Node2 -->
<g id="edge7_Node000006_Node000002" class="edge">
<title>Node6&#45;&gt;Node2</title>
<g id="a_edge7_Node000006_Node000002"><a xlink:title=" ">
<path fill="none" stroke="#63b8ff" d="M493.62,-177.45C490.72,-176.92 487.81,-176.42 485,-176 439.66,-169.22 104.97,-173.8 74,-140 48.48,-112.15 49.5,-83.75 74,-55 102.57,-21.48 229.02,-13.11 300.8,-11.09"/>
<polygon fill="#63b8ff" stroke="#63b8ff" points="301.06,-14.58 310.97,-10.83 300.89,-7.58 301.06,-14.58"/>
</a>
</g>
</g>
<!-- Node6&#45;&gt;Node7 -->
<g id="edge8_Node000006_Node000007" class="edge">
<title>Node6&#45;&gt;Node7</title>
<g id="a_edge8_Node000006_Node000007"><a xlink:title=" ">
<path fill="none" stroke="#63b8ff" d="M556.09,-182.95C658.71,-177.67 982.46,-159.62 1025,-140 1032.41,-136.58 1065.75,-102.44 1085.73,-81.58"/>
<polygon fill="#63b8ff" stroke="#63b8ff" points="1088.51,-83.73 1092.89,-74.08 1083.45,-78.9 1088.51,-83.73"/>
</a>
</g>
</g>
<!-- Node7&#45;&gt;Node2 -->
<g id="edge9_Node000007_Node000002" class="edge">
<title>Node7&#45;&gt;Node2</title>
<g id="a_edge9_Node000007_Node000002"><a xlink:title=" ">
<path fill="none" stroke="#63b8ff" d="M1047.36,-59.71C908.17,-49.87 536.81,-23.63 401.35,-14.06"/>
<polygon fill="#63b8ff" stroke="#63b8ff" points="401.47,-10.56 391.25,-13.34 400.98,-17.54 401.47,-10.56"/>
</a>
</g>
</g>
<!-- Node8&#45;&gt;Node2 -->
<g id="edge11_Node000008_Node000002" class="edge">
<title>Node8&#45;&gt;Node2</title>
<g id="a_edge11_Node000008_Node000002"><a xlink:title=" ">
<path fill="none" stroke="#63b8ff" d="M379.72,-182.48C280.94,-177.84 63.19,-164.89 41,-140 15.86,-111.8 16.26,-83.55 41,-55 73.97,-16.96 221.46,-10.67 300.53,-10.1"/>
<polygon fill="#63b8ff" stroke="#63b8ff" points="300.77,-13.6 310.75,-10.05 300.74,-6.6 300.77,-13.6"/>
</a>
</g>
</g>
<!-- Node9 -->
<g id="Node000009" class="node">
<title>Node9</title>
<g id="a_Node000009"><a xlink:title=" ">
<polygon fill="#e0e0e0" stroke="#999999" points="90,-19 0,-19 0,0 90,0 90,-19"/>
<text text-anchor="middle" x="45" y="-7" font-family="Helvetica,sans-Serif" font-size="10.00">libultra/types.h</text>
</a>
</g>
</g>
<!-- Node8&#45;&gt;Node9 -->
<g id="edge12_Node000008_Node000009" class="edge">
<title>Node8&#45;&gt;Node9</title>
<g id="a_edge12_Node000008_Node000009"><a xlink:title=" ">
<path fill="none" stroke="#63b8ff" d="M379.96,-182.78C277.45,-178.61 44.61,-166.33 21,-140 -7.14,-108.61 17.7,-55.27 33.8,-27.87"/>
<polygon fill="#63b8ff" stroke="#63b8ff" points="36.97,-29.4 39.23,-19.04 31.01,-25.73 36.97,-29.4"/>
</a>
</g>
</g>
<!-- Node10 -->
<g id="Node000010" class="node">
<title>Node10</title>
<g id="a_Node000010"><a xlink:title=" ">
<polygon fill="#e0e0e0" stroke="#999999" points="467,-74 389,-74 389,-55 467,-55 467,-74"/>
<text text-anchor="middle" x="428" y="-62" font-family="Helvetica,sans-Serif" font-size="10.00">libultra/gbi.h</text>
</a>
</g>
</g>
<!-- Node8&#45;&gt;Node10 -->
<g id="edge13_Node000008_Node000010" class="edge">
<title>Node8&#45;&gt;Node10</title>
<g id="a_edge13_Node000008_Node000010"><a xlink:title=" ">
<path fill="none" stroke="#63b8ff" d="M428,-175.94C428,-156.91 428,-110.69 428,-84.47"/>
<polygon fill="#63b8ff" stroke="#63b8ff" points="431.5,-84.3 428,-74.3 424.5,-84.3 431.5,-84.3"/>
</a>
</g>
</g>
<!-- Node11 -->
<g id="Node000011" class="node">
<title>Node11</title>
<g id="a_Node000011"><a xlink:href="other__textures_8h.html" target="_top" xlink:title=" ">
<polygon fill="white" stroke="#666666" points="922.5,-134.5 791.5,-134.5 791.5,-115.5 922.5,-115.5 922.5,-134.5"/>
<text text-anchor="middle" x="857" y="-122.5" font-family="Helvetica,sans-Serif" font-size="10.00">assets/other_textures.h</text>
</a>
</g>
</g>
<!-- Node8&#45;&gt;Node11 -->
<g id="edge14_Node000008_Node000011" class="edge">
<title>Node8&#45;&gt;Node11</title>
<g id="a_edge14_Node000008_Node000011"><a xlink:title=" ">
<path fill="none" stroke="#63b8ff" d="M476.19,-177.22C479.17,-176.8 482.12,-176.39 485,-176 616.77,-158.19 650.58,-160.21 782,-140 789.11,-138.91 796.58,-137.65 803.94,-136.34"/>
<polygon fill="#63b8ff" stroke="#63b8ff" points="804.64,-139.77 813.85,-134.54 803.39,-132.88 804.64,-139.77"/>
</a>
</g>
</g>
<!-- Node13 -->
<g id="Node000013" class="node">
<title>Node13</title>
<g id="a_Node000013"><a xlink:href="animation_8h.html" target="_top" xlink:title=" ">
<polygon fill="white" stroke="#666666" points="1015.5,-134.5 940.5,-134.5 940.5,-115.5 1015.5,-115.5 1015.5,-134.5"/>
<text text-anchor="middle" x="978" y="-122.5" font-family="Helvetica,sans-Serif" font-size="10.00">animation.h</text>
</a>
</g>
</g>
<!-- Node8&#45;&gt;Node13 -->
<g id="edge17_Node000008_Node000013" class="edge">
<title>Node8&#45;&gt;Node13</title>
<g id="a_edge17_Node000008_Node000013"><a xlink:title=" ">
<path fill="none" stroke="#63b8ff" d="M476.17,-177.08C479.16,-176.7 482.12,-176.33 485,-176 683.01,-153.29 736.2,-177.23 932,-140 935.86,-139.27 939.85,-138.33 943.8,-137.29"/>
<polygon fill="#63b8ff" stroke="#63b8ff" points="944.76,-140.66 953.42,-134.55 942.84,-133.92 944.76,-140.66"/>
</a>
</g>
</g>
<!-- Node11&#45;&gt;Node2 -->
<g id="edge15_Node000011_Node000002" class="edge">
<title>Node11&#45;&gt;Node2</title>
<g id="a_edge15_Node000011_Node000002"><a xlink:title=" ">
<path fill="none" stroke="#63b8ff" d="M836.26,-115.44C800.21,-100.89 723.41,-71.34 656,-55 567.75,-33.61 462.49,-21.03 401.54,-14.97"/>
<polygon fill="#63b8ff" stroke="#63b8ff" points="401.71,-11.47 391.42,-13.99 401.04,-18.44 401.71,-11.47"/>
</a>
</g>
</g>
<!-- Node12 -->
<g id="Node000012" class="node">
<title>Node12</title>
<g id="a_Node000012"><a xlink:href="align__asset__macro_8h.html" target="_top" xlink:title=" ">
<polygon fill="white" stroke="#666666" points="602.5,-74 485.5,-74 485.5,-55 602.5,-55 602.5,-74"/>
<text text-anchor="middle" x="544" y="-62" font-family="Helvetica,sans-Serif" font-size="10.00">align_asset_macro.h</text>
</a>
</g>
</g>
<!-- Node11&#45;&gt;Node12 -->
<g id="edge16_Node000011_Node000012" class="edge">
<title>Node11&#45;&gt;Node12</title>
<g id="a_edge16_Node000011_Node000012"><a xlink:title=" ">
<path fill="none" stroke="#63b8ff" d="M811.49,-115.49C755.39,-105.01 660.09,-87.2 599.69,-75.91"/>
<polygon fill="#63b8ff" stroke="#63b8ff" points="600.04,-72.41 589.57,-74.02 598.75,-79.29 600.04,-72.41"/>
</a>
</g>
</g>
<!-- Node13&#45;&gt;Node7 -->
<g id="edge18_Node000013_Node000007" class="edge">
<title>Node13&#45;&gt;Node7</title>
<g id="a_edge18_Node000013_Node000007"><a xlink:title=" ">
<path fill="none" stroke="#63b8ff" d="M995.89,-115.49C1016.38,-105.75 1050.19,-89.66 1073.92,-78.38"/>
<polygon fill="#63b8ff" stroke="#63b8ff" points="1075.57,-81.47 1083.09,-74.02 1072.56,-75.15 1075.57,-81.47"/>
</a>
</g>
</g>
<!-- Node14&#45;&gt;Node10 -->
<g id="edge20_Node000014_Node000010" class="edge">
<title>Node14&#45;&gt;Node10</title>
<g id="a_edge20_Node000014_Node000010"><a xlink:title=" ">
<path fill="none" stroke="#63b8ff" d="M1220.36,-230.95C1208.6,-216.55 1182.53,-187.86 1153,-176 1017.32,-121.5 628.11,-202.66 496,-140 470.37,-127.84 449.95,-101.24 438.4,-83.34"/>
<polygon fill="#63b8ff" stroke="#63b8ff" points="441.15,-81.12 432.93,-74.44 435.19,-84.79 441.15,-81.12"/>
</a>
</g>
</g>
<!-- Node14&#45;&gt;Node11 -->
<g id="edge23_Node000014_Node000011" class="edge">
<title>Node14&#45;&gt;Node11</title>
<g id="a_edge23_Node000014_Node000011"><a xlink:title=" ">
<path fill="none" stroke="#63b8ff" d="M1224.09,-230.8C1218.89,-216.71 1206.56,-189.15 1186,-176 1089.96,-114.56 1044.51,-158.47 932,-140 925.24,-138.89 918.15,-137.66 911.13,-136.4"/>
<polygon fill="#63b8ff" stroke="#63b8ff" points="911.43,-132.89 900.96,-134.54 910.17,-139.78 911.43,-132.89"/>
</a>
</g>
</g>
<!-- Node15 -->
<g id="Node000015" class="node">
<title>Node15</title>
<g id="a_Node000015"><a xlink:href="spline_8h.html" target="_top" xlink:title=" ">
<polygon fill="white" stroke="#666666" points="1279.5,-134.5 1224.5,-134.5 1224.5,-115.5 1279.5,-115.5 1279.5,-134.5"/>
<text text-anchor="middle" x="1252" y="-122.5" font-family="Helvetica,sans-Serif" font-size="10.00">spline.h</text>
</a>
</g>
</g>
<!-- Node14&#45;&gt;Node15 -->
<g id="edge21_Node000014_Node000015" class="edge">
<title>Node14&#45;&gt;Node15</title>
<g id="a_edge21_Node000014_Node000015"><a xlink:title=" ">
<path fill="none" stroke="#63b8ff" d="M1228.88,-230.97C1232.9,-212.73 1242.4,-169.57 1247.89,-144.64"/>
<polygon fill="#63b8ff" stroke="#63b8ff" points="1251.37,-145.15 1250.1,-134.63 1244.53,-143.64 1251.37,-145.15"/>
</a>
</g>
</g>
<!-- Node14&#45;&gt;Node16 -->
<g id="edge24_Node000014_Node000016" class="edge">
<title>Node14&#45;&gt;Node16</title>
<g id="a_edge24_Node000014_Node000016"><a xlink:title=" ">
<path fill="none" stroke="#63b8ff" d="M1239.85,-230.98C1252.14,-222.84 1270.91,-210.41 1285.48,-200.76"/>
<polygon fill="#63b8ff" stroke="#63b8ff" points="1287.51,-203.61 1293.91,-195.17 1283.64,-197.78 1287.51,-203.61"/>
</a>
</g>
</g>
<!-- Node15&#45;&gt;Node7 -->
<g id="edge22_Node000015_Node000007" class="edge">
<title>Node15&#45;&gt;Node7</title>
<g id="a_edge22_Node000015_Node000007"><a xlink:title=" ">
<path fill="none" stroke="#63b8ff" d="M1230.04,-115.49C1204.32,-105.53 1161.52,-88.95 1132.32,-77.63"/>
<polygon fill="#63b8ff" stroke="#63b8ff" points="1133.57,-74.37 1122.98,-74.02 1131.04,-80.89 1133.57,-74.37"/>
</a>
</g>
</g>
<!-- Node16&#45;&gt;Node7 -->
<g id="edge26_Node000016_Node000007" class="edge">
<title>Node16&#45;&gt;Node7</title>
<g id="a_edge26_Node000016_Node000007"><a xlink:title=" ">
<path fill="none" stroke="#63b8ff" d="M1307.6,-175.75C1308.15,-160.23 1306.92,-127.84 1289,-110 1271.52,-92.6 1212.1,-80.51 1164.68,-73.37"/>
<polygon fill="#63b8ff" stroke="#63b8ff" points="1165.17,-69.9 1154.76,-71.92 1164.15,-76.83 1165.17,-69.9"/>
</a>
</g>
</g>
<!-- Node16&#45;&gt;Node15 -->
<g id="edge25_Node000016_Node000015" class="edge">
<title>Node16&#45;&gt;Node15</title>
<g id="a_edge25_Node000016_Node000015"><a xlink:title=" ">
<path fill="none" stroke="#63b8ff" d="M1298.88,-175.87C1290.6,-167.05 1277.53,-153.16 1267.3,-142.27"/>
<polygon fill="#63b8ff" stroke="#63b8ff" points="1269.55,-139.56 1260.15,-134.67 1264.45,-144.35 1269.55,-139.56"/>
</a>
</g>
</g>
<!-- Node18&#45;&gt;Node7 -->
<g id="edge29_Node000018_Node000007" class="edge">
<title>Node18&#45;&gt;Node7</title>
<g id="a_edge29_Node000018_Node000007"><a xlink:title=" ">
<path fill="none" stroke="#63b8ff" d="M886.59,-178.07C943.37,-168.35 1044.24,-149.99 1058,-140 1077.11,-126.12 1089.02,-100.95 1095.33,-83.74"/>
<polygon fill="#63b8ff" stroke="#63b8ff" points="1098.66,-84.82 1098.56,-74.23 1092.03,-82.58 1098.66,-84.82"/>
</a>
</g>
</g>
<!-- Node19 -->
<g id="Node000019" class="node">
<title>Node19</title>
<g id="a_Node000019"><a xlink:href="mk64_8h.html" target="_top" xlink:title=" ">
<polygon fill="white" stroke="#666666" points="136.5,-134.5 83.5,-134.5 83.5,-115.5 136.5,-115.5 136.5,-134.5"/>
<text text-anchor="middle" x="110" y="-122.5" font-family="Helvetica,sans-Serif" font-size="10.00">mk64.h</text>
</a>
</g>
</g>
<!-- Node18&#45;&gt;Node19 -->
<g id="edge30_Node000018_Node000019" class="edge">
<title>Node18&#45;&gt;Node19</title>
<g id="a_edge30_Node000018_Node000019"><a xlink:title=" ">
<path fill="none" stroke="#63b8ff" d="M809.1,-183.66C680.98,-180.63 273.09,-168.89 145,-140 142.63,-139.47 140.21,-138.79 137.81,-138.03"/>
<polygon fill="#63b8ff" stroke="#63b8ff" points="138.77,-134.66 128.18,-134.54 136.39,-141.24 138.77,-134.66"/>
</a>
</g>
</g>
<!-- Node19&#45;&gt;Node2 -->
<g id="edge31_Node000019_Node000002" class="edge">
<title>Node19&#45;&gt;Node2</title>
<g id="a_edge31_Node000019_Node000002"><a xlink:title=" ">
<path fill="none" stroke="#63b8ff" d="M128.11,-115.47C169.99,-95.75 273.69,-46.91 323.47,-23.46"/>
<polygon fill="#63b8ff" stroke="#63b8ff" points="325.12,-26.56 332.68,-19.13 322.14,-20.22 325.12,-26.56"/>
</a>
</g>
</g>
<!-- Node19&#45;&gt;Node10 -->
<g id="edge34_Node000019_Node000010" class="edge">
<title>Node19&#45;&gt;Node10</title>
<g id="a_edge34_Node000019_Node000010"><a xlink:title=" ">
<path fill="none" stroke="#63b8ff" d="M129.36,-115.36C134.37,-113.37 139.83,-111.42 145,-110 225.36,-87.91 321.77,-75.67 378.79,-69.85"/>
<polygon fill="#63b8ff" stroke="#63b8ff" points="379.36,-73.31 388.97,-68.84 378.67,-66.35 379.36,-73.31"/>
</a>
</g>
</g>
<!-- Node20 -->
<g id="Node000020" class="node">
<title>Node20</title>
<g id="a_Node000020"><a xlink:href="string_8h.html" target="_top" xlink:title=" ">
<polygon fill="white" stroke="#666666" points="136.5,-74 83.5,-74 83.5,-55 136.5,-55 136.5,-74"/>
<text text-anchor="middle" x="110" y="-62" font-family="Helvetica,sans-Serif" font-size="10.00">string.h</text>
</a>
</g>
</g>
<!-- Node19&#45;&gt;Node20 -->
<g id="edge32_Node000019_Node000020" class="edge">
<title>Node19&#45;&gt;Node20</title>
<g id="a_edge32_Node000019_Node000020"><a xlink:title=" ">
<path fill="none" stroke="#63b8ff" d="M110,-115.37C110,-107.25 110,-94.81 110,-84.39"/>
<polygon fill="#63b8ff" stroke="#63b8ff" points="113.5,-84.17 110,-74.17 106.5,-84.17 113.5,-84.17"/>
</a>
</g>
</g>
<!-- Node20&#45;&gt;Node9 -->
<g id="edge33_Node000020_Node000009" class="edge">
<title>Node20&#45;&gt;Node9</title>
<g id="a_edge33_Node000020_Node000009"><a xlink:title=" ">
<path fill="none" stroke="#63b8ff" d="M99.56,-54.98C89.85,-47.07 75.18,-35.11 63.5,-25.58"/>
<polygon fill="#63b8ff" stroke="#63b8ff" points="65.6,-22.78 55.63,-19.17 61.17,-28.2 65.6,-22.78"/>
</a>
</g>
</g>
<!-- Node21&#45;&gt;Node7 -->
<g id="edge38_Node000021_Node000007" class="edge">
<title>Node21&#45;&gt;Node7</title>
<g id="a_edge38_Node000021_Node000007"><a xlink:title=" ">
<path fill="none" stroke="#63b8ff" d="M1048.82,-230.75C1047.53,-217.55 1047.03,-192.35 1059,-176 1080.84,-146.17 1114.31,-171.29 1134,-140 1145.82,-121.21 1130.75,-97.46 1117.31,-81.89"/>
<polygon fill="#63b8ff" stroke="#63b8ff" points="1119.55,-79.15 1110.2,-74.17 1114.4,-83.9 1119.55,-79.15"/>
</a>
</g>
</g>
<!-- Node21&#45;&gt;Node18 -->
<g id="edge44_Node000021_Node000018" class="edge">
<title>Node21&#45;&gt;Node18</title>
<g id="a_edge44_Node000021_Node000018"><a xlink:title=" ">
<path fill="none" stroke="#63b8ff" d="M1017.55,-230.98C983.04,-221.93 928.34,-207.58 890.44,-197.64"/>
<polygon fill="#63b8ff" stroke="#63b8ff" points="891.27,-194.23 880.71,-195.08 889.49,-201.01 891.27,-194.23"/>
</a>
</g>
</g>
<!-- Node21&#45;&gt;Node22 -->
<g id="edge36_Node000021_Node000022" class="edge">
<title>Node21&#45;&gt;Node22</title>
<g id="a_edge36_Node000021_Node000022"><a xlink:title=" ">
<path fill="none" stroke="#63b8ff" d="M1059,-230.98C1067.19,-223.23 1079.51,-211.58 1089.47,-202.14"/>
<polygon fill="#63b8ff" stroke="#63b8ff" points="1091.98,-204.59 1096.84,-195.17 1087.17,-199.5 1091.98,-204.59"/>
</a>
</g>
</g>
<!-- Node23 -->
<g id="Node000023" class="node">
<title>Node23</title>
<g id="a_Node000023"><a xlink:href="common__data_8h.html" target="_top" xlink:title=" ">
<polygon fill="white" stroke="#666666" points="773,-134.5 643,-134.5 643,-115.5 773,-115.5 773,-134.5"/>
<text text-anchor="middle" x="708" y="-122.5" font-family="Helvetica,sans-Serif" font-size="10.00">assets/common_data.h</text>
</a>
</g>
</g>
<!-- Node21&#45;&gt;Node23 -->
<g id="edge39_Node000021_Node000023" class="edge">
<title>Node21&#45;&gt;Node23</title>
<g id="a_edge39_Node000021_Node000023"><a xlink:title=" ">
<path fill="none" stroke="#63b8ff" d="M1041.68,-230.95C1027.65,-217.08 997.79,-189.82 967,-176 962.34,-173.91 838.45,-150.46 763.73,-136.43"/>
<polygon fill="#63b8ff" stroke="#63b8ff" points="764.01,-132.92 753.53,-134.52 762.72,-139.8 764.01,-132.92"/>
</a>
</g>
</g>
<!-- Node22&#45;&gt;Node7 -->
<g id="edge37_Node000022_Node000007" class="edge">
<title>Node22&#45;&gt;Node7</title>
<g id="a_edge37_Node000022_Node000007"><a xlink:title=" ">
<path fill="none" stroke="#63b8ff" d="M1128.78,-175.89C1144.03,-168.79 1162.92,-157.08 1172,-140 1178.26,-128.23 1178.46,-121.67 1172,-110 1164.16,-95.83 1149.71,-85.57 1135.89,-78.5"/>
<polygon fill="#63b8ff" stroke="#63b8ff" points="1137.05,-75.18 1126.51,-74.1 1134.08,-81.52 1137.05,-75.18"/>
</a>
</g>
</g>
<!-- Node23&#45;&gt;Node2 -->
<g id="edge41_Node000023_Node000002" class="edge">
<title>Node23&#45;&gt;Node2</title>
<g id="a_edge41_Node000023_Node000002"><a xlink:title=" ">
<path fill="none" stroke="#63b8ff" d="M700.68,-115.06C687.75,-99.94 659.26,-69.55 628,-55 554.21,-20.67 458.73,-12.19 401.32,-10.45"/>
<polygon fill="#63b8ff" stroke="#63b8ff" points="401.14,-6.94 391.05,-10.2 400.96,-13.94 401.14,-6.94"/>
</a>
</g>
</g>
<!-- Node23&#45;&gt;Node7 -->
<g id="edge42_Node000023_Node000007" class="edge">
<title>Node23&#45;&gt;Node7</title>
<g id="a_edge42_Node000023_Node000007"><a xlink:title=" ">
<path fill="none" stroke="#63b8ff" d="M751.96,-115.45C762.14,-113.56 772.93,-111.64 783,-110 871,-95.64 973.17,-81.85 1037.45,-73.53"/>
<polygon fill="#63b8ff" stroke="#63b8ff" points="1037.97,-76.99 1047.44,-72.24 1037.07,-70.05 1037.97,-76.99"/>
</a>
</g>
</g>
<!-- Node23&#45;&gt;Node10 -->
<g id="edge40_Node000023_Node000010" class="edge">
<title>Node23&#45;&gt;Node10</title>
<g id="a_edge40_Node000023_Node000010"><a xlink:title=" ">
<path fill="none" stroke="#63b8ff" d="M667.29,-115.49C616.99,-104.98 531.46,-87.12 477.44,-75.83"/>
<polygon fill="#63b8ff" stroke="#63b8ff" points="477.91,-72.35 467.41,-73.73 476.48,-79.2 477.91,-72.35"/>
</a>
</g>
</g>
<!-- Node23&#45;&gt;Node12 -->
<g id="edge43_Node000023_Node000012" class="edge">
<title>Node23&#45;&gt;Node12</title>
<g id="a_edge43_Node000023_Node000012"><a xlink:title=" ">
<path fill="none" stroke="#63b8ff" d="M684.15,-115.49C656.1,-105.49 609.33,-88.8 577.6,-77.49"/>
<polygon fill="#63b8ff" stroke="#63b8ff" points="578.47,-74.08 567.88,-74.02 576.12,-80.67 578.47,-74.08"/>
</a>
</g>
</g>
<!-- Node25&#45;&gt;Node2 -->
<g id="edge49_Node000025_Node000002" class="edge">
<title>Node25&#45;&gt;Node2</title>
<g id="a_edge49_Node000025_Node000002"><a xlink:title=" ">
<path fill="none" stroke="#63b8ff" d="M231.07,-109.85C256.96,-88.41 305.95,-47.82 332.6,-25.74"/>
<polygon fill="#63b8ff" stroke="#63b8ff" points="334.95,-28.35 340.41,-19.27 330.48,-22.96 334.95,-28.35"/>
</a>
</g>
</g>
<!-- Node25&#45;&gt;Node10 -->
<g id="edge50_Node000025_Node000010" class="edge">
<title>Node25&#45;&gt;Node10</title>
<g id="a_edge50_Node000025_Node000010"><a xlink:title=" ">
<path fill="none" stroke="#63b8ff" d="M265.26,-109.99C302.51,-99.8 352.27,-86.2 386.92,-76.73"/>
<polygon fill="#63b8ff" stroke="#63b8ff" points="387.99,-80.07 396.71,-74.05 386.14,-73.31 387.99,-80.07"/>
</a>
</g>
</g>
<!-- Node25&#45;&gt;Node12 -->
<g id="edge51_Node000025_Node000012" class="edge">
<title>Node25&#45;&gt;Node12</title>
<g id="a_edge51_Node000025_Node000012"><a xlink:title=" ">
<path fill="none" stroke="#63b8ff" d="M273.68,-111.59C276.49,-111.04 279.28,-110.51 282,-110 349.63,-97.3 427.38,-84.29 480.51,-75.65"/>
<polygon fill="#63b8ff" stroke="#63b8ff" points="481.15,-79.09 490.46,-74.03 480.03,-72.18 481.15,-79.09"/>
</a>
</g>
</g>
<!-- Node26&#45;&gt;Node2 -->
<g id="edge53_Node000026_Node000002" class="edge">
<title>Node26&#45;&gt;Node2</title>
<g id="a_edge53_Node000026_Node000002"><a xlink:title=" ">
<path fill="none" stroke="#63b8ff" d="M351,-109.63C351,-89.21 351,-51.81 351,-29.24"/>
<polygon fill="#63b8ff" stroke="#63b8ff" points="354.5,-29.23 351,-19.23 347.5,-29.23 354.5,-29.23"/>
</a>
</g>
</g>
<!-- Node26&#45;&gt;Node10 -->
<g id="edge54_Node000026_Node000010" class="edge">
<title>Node26&#45;&gt;Node10</title>
<g id="a_edge54_Node000026_Node000010"><a xlink:title=" ">
<path fill="none" stroke="#63b8ff" d="M369.64,-109.84C381.39,-100.91 396.53,-89.41 408.45,-80.35"/>
<polygon fill="#63b8ff" stroke="#63b8ff" points="410.62,-83.1 416.46,-74.27 406.38,-77.53 410.62,-83.1"/>
</a>
</g>
</g>
<!-- Node26&#45;&gt;Node12 -->
<g id="edge55_Node000026_Node000012" class="edge">
<title>Node26&#45;&gt;Node12</title>
<g id="a_edge55_Node000026_Node000012"><a xlink:title=" ">
<path fill="none" stroke="#63b8ff" d="M397.23,-109.99C430.54,-99.89 474.93,-86.44 506.14,-76.98"/>
<polygon fill="#63b8ff" stroke="#63b8ff" points="507.23,-80.3 515.78,-74.05 505.2,-73.6 507.23,-80.3"/>
</a>
</g>
</g>
<!-- Node27&#45;&gt;Node2 -->
<g id="edge57_Node000027_Node000002" class="edge">
<title>Node27&#45;&gt;Node2</title>
<g id="a_edge57_Node000027_Node000002"><a xlink:title=" ">
<path fill="none" stroke="#63b8ff" d="M585.83,-109.91C604.58,-95.53 627.05,-72.83 612,-55 585.56,-23.68 469.29,-14.4 401.18,-11.65"/>
<polygon fill="#63b8ff" stroke="#63b8ff" points="401.21,-8.15 391.09,-11.28 400.95,-15.15 401.21,-8.15"/>
</a>
</g>
</g>
<!-- Node27&#45;&gt;Node10 -->
<g id="edge58_Node000027_Node000010" class="edge">
<title>Node27&#45;&gt;Node10</title>
<g id="a_edge58_Node000027_Node000010"><a xlink:title=" ">
<path fill="none" stroke="#63b8ff" d="M532.19,-109.99C509.53,-100.31 479.65,-87.56 457.7,-78.18"/>
<polygon fill="#63b8ff" stroke="#63b8ff" points="458.8,-74.85 448.23,-74.14 456.05,-81.29 458.8,-74.85"/>
</a>
</g>
</g>
<!-- Node27&#45;&gt;Node12 -->
<g id="edge59_Node000027_Node000012" class="edge">
<title>Node27&#45;&gt;Node12</title>
<g id="a_edge59_Node000027_Node000012"><a xlink:title=" ">
<path fill="none" stroke="#63b8ff" d="M559.92,-109.84C557.12,-102.04 553.61,-92.27 550.6,-83.89"/>
<polygon fill="#63b8ff" stroke="#63b8ff" points="553.82,-82.5 547.15,-74.27 547.23,-84.86 553.82,-82.5"/>
</a>
</g>
</g>
</g>
</svg>
