<?xml version="1.0" encoding="UTF-8" standalone="no"?>
<!DOCTYPE svg PUBLIC "-//W3C//DTD SVG 1.1//EN"
 "http://www.w3.org/Graphics/SVG/1.1/DTD/svg11.dtd">
<!-- Generated by graphviz version 2.43.0 (0)
 -->
<!-- Title: AddMatrix Pages: 1 -->
<!--zoomable 1553 -->

<svg id="main" version="1.1" xmlns="http://www.w3.org/2000/svg" xmlns:xlink="http://www.w3.org/1999/xlink" xml:space="preserve" onload="init(evt)">

<style type="text/css"><![CDATA[
.node, .edge {opacity: 0.7;}
.node.selected, .edge.selected {opacity: 1;}
.edge:hover path { stroke: red; }
.edge:hover polygon { stroke: red; fill: red; }
]]></style>

<defs>
  <circle id="rim" cx="0" cy="0" r="7"/>
  <circle id="rim2" cx="0" cy="0" r="3.5"/>
  <g id="zoomPlus">
    <use xlink:href="#rim" fill="#404040"><set attributeName="fill" to="#808080" begin="zoomplus.mouseover" end="zoomplus.mouseout"/></use>
    <path d="M-4,0h8M0,-4v8" fill="none" stroke="white" stroke-width="1.5" pointer-events="none"/>
  </g>
  <g id="zoomMin">
    <use xlink:href="#rim" fill="#404040"><set attributeName="fill" to="#808080" begin="zoomminus.mouseover" end="zoomminus.mouseout"/></use>
    <path d="M-4,0h8" fill="none" stroke="white" stroke-width="1.5" pointer-events="none"/>
  </g>
  <g id="arrowUp" transform="translate(30 24)">
    <use xlink:href="#rim"/>
    <path pointer-events="none" fill="none" stroke="white" stroke-width="1.5" d="M0,-3.0v7 M-2.5,-0.5L0,-3.0L2.5,-0.5"/>
  </g>
  <g id="arrowRight" transform="rotate(90) translate(36 -43)">
    <use xlink:href="#rim"/>
    <path pointer-events="none" fill="none" stroke="white" stroke-width="1.5" d="M0,-3.0v7 M-2.5,-0.5L0,-3.0L2.5,-0.5"/>
  </g>
  <g id="arrowDown" transform="rotate(180) translate(-30 -48)">
    <use xlink:href="#rim"/>
    <path pointer-events="none" fill="none" stroke="white" stroke-width="1.5" d="M0,-3.0v7 M-2.5,-0.5L0,-3.0L2.5,-0.5"/>
  </g>
  <g id="arrowLeft" transform="rotate(270) translate(-36 17)">
    <use xlink:href="#rim"/>
    <path pointer-events="none" fill="none" stroke="white" stroke-width="1.5" d="M0,-3.0v7 M-2.5,-0.5L0,-3.0L2.5,-0.5"/>
  </g>
  <g id="resetDef">
    <use xlink:href="#rim2" fill="#404040"><set attributeName="fill" to="#808080" begin="reset.mouseover" end="reset.mouseout"/></use>
  </g>
</defs>
<script type="application/ecmascript">
var viewWidth = 608;
var viewHeight = 1553;
var sectionId = 'dynsection-10';
</script>
<script type="application/ecmascript" xlink:href="svg.min.js"/>
<svg id="graph" class="graph">
<g id="viewport">
<title>AddMatrix</title>
<!-- Node1 -->
<g id="Node000001" class="node">
<title>Node1</title>
<g id="a_Node000001"><a xlink:title=" ">
<polygon fill="#999999" stroke="#666666" points="600,-346 533,-346 533,-327 600,-327 600,-346"/>
<text text-anchor="middle" x="566.5" y="-334" font-family="Helvetica,sans-Serif" font-size="10.00">AddMatrix</text>
</a>
</g>
</g>
<!-- Node2 -->
<g id="Node000002" class="node">
<title>Node2</title>
<g id="a_Node000002"><a xlink:href="Matrix_8cpp.html#abcc586bf25e812a2fcaea1cd869a626b" target="_top" xlink:title=" ">
<polygon fill="white" stroke="#666666" points="495.5,-770 400.5,-770 400.5,-751 495.5,-751 495.5,-770"/>
<text text-anchor="middle" x="448" y="-758" font-family="Helvetica,sans-Serif" font-size="10.00">AddEffectMatrix</text>
</a>
</g>
</g>
<!-- Node1&#45;&gt;Node2 -->
<g id="edge1_Node000001_Node000002" class="edge">
<title>Node1&#45;&gt;Node2</title>
<g id="a_edge1_Node000001_Node000002"><a xlink:title=" ">
<path fill="none" stroke="#63b8ff" d="M560.12,-356.09C539.59,-430.78 466.67,-696.18 451.7,-750.68"/>
<polygon fill="#63b8ff" stroke="#63b8ff" points="563.57,-356.72 562.85,-346.15 556.82,-354.87 563.57,-356.72"/>
</a>
</g>
</g>
<!-- Node104 -->
<g id="Node000104" class="node">
<title>Node104</title>
<g id="a_Node000104"><a xlink:href="Matrix_8cpp.html#a329d78c031733cf22ff7518f5d38fd74" target="_top" xlink:title=" ">
<polygon fill="white" stroke="#666666" points="491,-346 405,-346 405,-327 491,-327 491,-346"/>
<text text-anchor="middle" x="448" y="-334" font-family="Helvetica,sans-Serif" font-size="10.00">AddHudMatrix</text>
</a>
</g>
</g>
<!-- Node1&#45;&gt;Node104 -->
<g id="edge32_Node000001_Node000104" class="edge">
<title>Node1&#45;&gt;Node104</title>
<g id="a_edge32_Node000001_Node000104"><a xlink:title=" ">
<path fill="none" stroke="#63b8ff" d="M522.71,-336.5C512.39,-336.5 501.38,-336.5 491.1,-336.5"/>
<polygon fill="#63b8ff" stroke="#63b8ff" points="522.74,-340 532.74,-336.5 522.74,-333 522.74,-340"/>
</a>
</g>
</g>
<!-- Node375 -->
<g id="Node000375" class="node">
<title>Node375</title>
<g id="a_Node000375"><a xlink:href="Matrix_8cpp.html#a6416f9a60a7397e8b517b1483adb96e8" target="_top" xlink:title=" ">
<polygon fill="white" stroke="#666666" points="497,-174 399,-174 399,-155 497,-155 497,-174"/>
<text text-anchor="middle" x="448" y="-162" font-family="Helvetica,sans-Serif" font-size="10.00">AddObjectMatrix</text>
</a>
</g>
</g>
<!-- Node1&#45;&gt;Node375 -->
<g id="edge49_Node000001_Node000375" class="edge">
<title>Node1&#45;&gt;Node375</title>
<g id="a_edge49_Node000001_Node000375"><a xlink:title=" ">
<path fill="none" stroke="#63b8ff" d="M553.06,-318.13C528.43,-281.77 474.26,-201.79 455.52,-174.13"/>
<polygon fill="#63b8ff" stroke="#63b8ff" points="550.4,-320.44 558.9,-326.76 556.19,-316.52 550.4,-320.44"/>
</a>
</g>
</g>
<!-- Node3 -->
<g id="Node000003" class="node">
<title>Node3</title>
<g id="a_Node000003"><a xlink:href="render__player_8c.html#aaaba1eb7a4bac0f495dd2075e8a24340" target="_top" xlink:title=" ">
<polygon fill="white" stroke="#666666" points="325.5,-696 233.5,-696 233.5,-677 325.5,-677 325.5,-696"/>
<text text-anchor="middle" x="279.5" y="-684" font-family="Helvetica,sans-Serif" font-size="10.00">func_80025DE8</text>
</a>
</g>
</g>
<!-- Node2&#45;&gt;Node3 -->
<g id="edge2_Node000002_Node000003" class="edge">
<title>Node2&#45;&gt;Node3</title>
<g id="a_edge2_Node000002_Node000003"><a xlink:title=" ">
<path fill="none" stroke="#63b8ff" d="M427.04,-744.5C410.71,-732.15 386.54,-715.54 363,-705.5 351.24,-700.48 337.94,-696.68 325.51,-693.85"/>
<polygon fill="#63b8ff" stroke="#63b8ff" points="425.2,-747.5 435.25,-750.85 429.48,-741.96 425.2,-747.5"/>
</a>
</g>
</g>
<!-- Node54 -->
<g id="Node000054" class="node">
<title>Node54</title>
<g id="a_Node000054"><a xlink:href="code__80057C60_8c.html#afe48d8fb3ea987ea8782c445f30eb8c3" target="_top" xlink:title=" ">
<polygon fill="#fff0f0" stroke="red" points="325.5,-1115 233.5,-1115 233.5,-1096 325.5,-1096 325.5,-1115"/>
<text text-anchor="middle" x="279.5" y="-1103" font-family="Helvetica,sans-Serif" font-size="10.00">func_800652D4</text>
</a>
</g>
</g>
<!-- Node2&#45;&gt;Node54 -->
<g id="edge4_Node000002_Node000054" class="edge">
<title>Node2&#45;&gt;Node54</title>
<g id="a_edge4_Node000002_Node000054"><a xlink:title=" ">
<path fill="none" stroke="#63b8ff" d="M437.91,-779.34C407.19,-842.99 307.95,-1048.63 285.18,-1095.8"/>
<polygon fill="#63b8ff" stroke="#63b8ff" points="441.18,-780.61 442.37,-770.09 434.87,-777.57 441.18,-780.61"/>
</a>
</g>
</g>
<!-- Node96 -->
<g id="Node000096" class="node">
<title>Node96</title>
<g id="a_Node000096"><a xlink:href="podium__ceremony__actors_8c.html#aca4471232210cb9f7177a97d0300af4e" target="_top" xlink:title=" ">
<polygon fill="#fff0f0" stroke="red" points="325.5,-844 233.5,-844 233.5,-825 325.5,-825 325.5,-844"/>
<text text-anchor="middle" x="279.5" y="-832" font-family="Helvetica,sans-Serif" font-size="10.00">func_80280A28</text>
</a>
</g>
</g>
<!-- Node2&#45;&gt;Node96 -->
<g id="edge27_Node000002_Node000096" class="edge">
<title>Node2&#45;&gt;Node96</title>
<g id="a_edge27_Node000002_Node000096"><a xlink:title=" ">
<path fill="none" stroke="#63b8ff" d="M427.4,-776.67C411.11,-789.31 386.82,-806.39 363,-816.5 351.26,-821.48 337.97,-825.16 325.54,-827.84"/>
<polygon fill="#63b8ff" stroke="#63b8ff" points="429.92,-779.13 435.57,-770.17 425.57,-773.65 429.92,-779.13"/>
</a>
</g>
</g>
<!-- Node99 -->
<g id="Node000099" class="node">
<title>Node99</title>
<g id="a_Node000099"><a xlink:href="code__80057C60_8c.html#a756339e9120a7a20e2e8cdfaec8227e7" target="_top" xlink:title=" ">
<polygon fill="#fff0f0" stroke="red" points="324,-807 235,-807 235,-788 324,-788 324,-807"/>
<text text-anchor="middle" x="279.5" y="-795" font-family="Helvetica,sans-Serif" font-size="10.00">render_balloon</text>
</a>
</g>
</g>
<!-- Node2&#45;&gt;Node99 -->
<g id="edge28_Node000002_Node000099" class="edge">
<title>Node2&#45;&gt;Node99</title>
<g id="a_edge28_Node000002_Node000099"><a xlink:title=" ">
<path fill="none" stroke="#63b8ff" d="M395.14,-772.3C384.51,-774.69 373.4,-777.19 363,-779.5 350.41,-782.3 336.72,-785.3 324.19,-788.03"/>
<polygon fill="#63b8ff" stroke="#63b8ff" points="396.16,-775.65 405.14,-770.03 394.62,-768.83 396.16,-775.65"/>
</a>
</g>
</g>
<!-- Node101 -->
<g id="Node000101" class="node">
<title>Node101</title>
<g id="a_Node000101"><a xlink:href="code__80057C60_8c.html#a38d7c818632179e1cb6ba01da30ca455" target="_top" xlink:title=" ">
<polygon fill="#fff0f0" stroke="red" points="341,-770 218,-770 218,-751 341,-751 341,-770"/>
<text text-anchor="middle" x="279.5" y="-758" font-family="Helvetica,sans-Serif" font-size="10.00">render_battle_balloon</text>
</a>
</g>
</g>
<!-- Node2&#45;&gt;Node101 -->
<g id="edge29_Node000002_Node000101" class="edge">
<title>Node2&#45;&gt;Node101</title>
<g id="a_edge29_Node000002_Node000101"><a xlink:title=" ">
<path fill="none" stroke="#63b8ff" d="M390.07,-760.5C374.34,-760.5 357.22,-760.5 341.28,-760.5"/>
<polygon fill="#63b8ff" stroke="#63b8ff" points="390.18,-764 400.18,-760.5 390.18,-757 390.18,-764"/>
</a>
</g>
</g>
<!-- Node103 -->
<g id="Node000103" class="node">
<title>Node103</title>
<g id="a_Node000103"><a xlink:href="render__player_8c.html#a30ed78cf8502138212a8e5460b4c5933" target="_top" xlink:title=" ">
<polygon fill="white" stroke="#666666" points="357,-733 202,-733 202,-714 357,-714 357,-733"/>
<text text-anchor="middle" x="279.5" y="-721" font-family="Helvetica,sans-Serif" font-size="10.00">render_player_ice_reflection</text>
</a>
</g>
</g>
<!-- Node2&#45;&gt;Node103 -->
<g id="edge30_Node000002_Node000103" class="edge">
<title>Node2&#45;&gt;Node103</title>
<g id="a_edge30_Node000002_Node000103"><a xlink:title=" ">
<path fill="none" stroke="#63b8ff" d="M394.26,-748.78C371.46,-743.71 345.11,-737.86 323.52,-733.06"/>
<polygon fill="#63b8ff" stroke="#63b8ff" points="393.6,-752.22 404.12,-750.97 395.12,-745.39 393.6,-752.22"/>
</a>
</g>
</g>
<!-- Node4 -->
<g id="Node000004" class="node">
<title>Node4</title>
<g id="a_Node000004"><a xlink:href="render__player_8c.html#a9afd62c74edf8ebd0a77158f6626ce10" target="_top" xlink:title=" ">
<polygon fill="#fff0f0" stroke="red" points="122,-696 38,-696 38,-677 122,-677 122,-696"/>
<text text-anchor="middle" x="80" y="-684" font-family="Helvetica,sans-Serif" font-size="10.00">render_player</text>
</a>
</g>
</g>
<!-- Node3&#45;&gt;Node4 -->
<g id="edge3_Node000003_Node000004" class="edge">
<title>Node3&#45;&gt;Node4</title>
<g id="a_edge3_Node000003_Node000004"><a xlink:title=" ">
<path fill="none" stroke="#63b8ff" d="M223.07,-686.5C191,-686.5 151.33,-686.5 122.07,-686.5"/>
<polygon fill="#63b8ff" stroke="#63b8ff" points="223.19,-690 233.19,-686.5 223.19,-683 223.19,-690"/>
</a>
</g>
</g>
<!-- Node55 -->
<g id="Node000055" class="node">
<title>Node55</title>
<g id="a_Node000055"><a xlink:href="code__80057C60_8c.html#a7d449221d1101f6984723f0b5e29dcd1" target="_top" xlink:title=" ">
<polygon fill="#fff0f0" stroke="red" points="126,-1448 34,-1448 34,-1429 126,-1429 126,-1448"/>
<text text-anchor="middle" x="80" y="-1436" font-family="Helvetica,sans-Serif" font-size="10.00">func_8006538C</text>
</a>
</g>
</g>
<!-- Node54&#45;&gt;Node55 -->
<g id="edge5_Node000054_Node000055" class="edge">
<title>Node54&#45;&gt;Node55</title>
<g id="a_edge5_Node000054_Node000055"><a xlink:title=" ">
<path fill="none" stroke="#63b8ff" d="M277.3,-1125.24C272.79,-1180.87 252.06,-1340.16 160,-1420.5 150.67,-1428.64 138.42,-1433.31 126.36,-1435.93"/>
<polygon fill="#63b8ff" stroke="#63b8ff" points="280.81,-1125.23 278.03,-1115 273.82,-1124.72 280.81,-1125.23"/>
</a>
</g>
</g>
<!-- Node61 -->
<g id="Node000061" class="node">
<title>Node61</title>
<g id="a_Node000061"><a xlink:href="code__80057C60_8c.html#a26b8516e0eef5293af855e7c6764f1fb" target="_top" xlink:title=" ">
<polygon fill="#fff0f0" stroke="red" points="126,-1411 34,-1411 34,-1392 126,-1392 126,-1411"/>
<text text-anchor="middle" x="80" y="-1399" font-family="Helvetica,sans-Serif" font-size="10.00">func_800658A0</text>
</a>
</g>
</g>
<!-- Node54&#45;&gt;Node61 -->
<g id="edge6_Node000054_Node000061" class="edge">
<title>Node54&#45;&gt;Node61</title>
<g id="a_edge6_Node000054_Node000061"><a xlink:title=" ">
<path fill="none" stroke="#63b8ff" d="M276.19,-1125.3C269.11,-1176.52 242.92,-1314.23 160,-1383.5 150.5,-1391.44 138.2,-1396.04 126.14,-1398.67"/>
<polygon fill="#63b8ff" stroke="#63b8ff" points="279.68,-1125.59 277.48,-1115.23 272.74,-1124.7 279.68,-1125.59"/>
</a>
</g>
</g>
<!-- Node63 -->
<g id="Node000063" class="node">
<title>Node63</title>
<g id="a_Node000063"><a xlink:href="code__80057C60_8c.html#a87c585b22e6059b0a94399fb9a1e2818" target="_top" xlink:title=" ">
<polygon fill="#fff0f0" stroke="red" points="125.5,-1374 34.5,-1374 34.5,-1355 125.5,-1355 125.5,-1374"/>
<text text-anchor="middle" x="80" y="-1362" font-family="Helvetica,sans-Serif" font-size="10.00">func_800664E0</text>
</a>
</g>
</g>
<!-- Node54&#45;&gt;Node63 -->
<g id="edge7_Node000054_Node000063" class="edge">
<title>Node54&#45;&gt;Node63</title>
<g id="a_edge7_Node000054_Node000063"><a xlink:title=" ">
<path fill="none" stroke="#63b8ff" d="M274.82,-1125.13C265.05,-1171.44 234,-1288 160,-1346.5 150.29,-1354.18 137.92,-1358.7 125.87,-1361.34"/>
<polygon fill="#63b8ff" stroke="#63b8ff" points="278.28,-1125.67 276.81,-1115.18 271.41,-1124.3 278.28,-1125.67"/>
</a>
</g>
</g>
<!-- Node64 -->
<g id="Node000064" class="node">
<title>Node64</title>
<g id="a_Node000064"><a xlink:href="code__80057C60_8c.html#a7f88600eb9c1e98bc9c82699ac01b1d3" target="_top" xlink:title=" ">
<polygon fill="white" stroke="#666666" points="125.5,-1337 34.5,-1337 34.5,-1318 125.5,-1318 125.5,-1337"/>
<text text-anchor="middle" x="80" y="-1325" font-family="Helvetica,sans-Serif" font-size="10.00">func_80066714</text>
</a>
</g>
</g>
<!-- Node54&#45;&gt;Node64 -->
<g id="edge8_Node000054_Node000064" class="edge">
<title>Node54&#45;&gt;Node64</title>
<g id="a_edge8_Node000054_Node000064"><a xlink:title=" ">
<path fill="none" stroke="#63b8ff" d="M273.04,-1124.86C260.44,-1165.83 225.28,-1261.48 160,-1309.5 150.03,-1316.84 137.58,-1321.26 125.53,-1323.9"/>
<polygon fill="#63b8ff" stroke="#63b8ff" points="276.46,-1125.63 275.94,-1115.05 269.75,-1123.64 276.46,-1125.63"/>
</a>
</g>
</g>
<!-- Node65 -->
<g id="Node000065" class="node">
<title>Node65</title>
<g id="a_Node000065"><a xlink:href="code__80057C60_8c.html#a3f7eaa00f6c7a777007bb0cd45c49c31" target="_top" xlink:title=" ">
<polygon fill="#fff0f0" stroke="red" points="125.5,-1300 34.5,-1300 34.5,-1281 125.5,-1281 125.5,-1300"/>
<text text-anchor="middle" x="80" y="-1288" font-family="Helvetica,sans-Serif" font-size="10.00">func_80066998</text>
</a>
</g>
</g>
<!-- Node54&#45;&gt;Node65 -->
<g id="edge9_Node000054_Node000065" class="edge">
<title>Node54&#45;&gt;Node65</title>
<g id="a_edge9_Node000054_Node000065"><a xlink:title=" ">
<path fill="none" stroke="#63b8ff" d="M270.44,-1124.92C254.73,-1160.22 216.53,-1234.74 160,-1272.5 149.82,-1279.3 137.44,-1283.55 125.52,-1286.21"/>
<polygon fill="#63b8ff" stroke="#63b8ff" points="273.83,-1125.87 274.58,-1115.3 267.41,-1123.1 273.83,-1125.87"/>
</a>
</g>
</g>
<!-- Node75 -->
<g id="Node000075" class="node">
<title>Node75</title>
<g id="a_Node000075"><a xlink:href="code__80057C60_8c.html#a089a0196c5a33042c0decbdfb994c6a1" target="_top" xlink:title=" ">
<polygon fill="#fff0f0" stroke="red" points="126.5,-1263 33.5,-1263 33.5,-1244 126.5,-1244 126.5,-1263"/>
<text text-anchor="middle" x="80" y="-1251" font-family="Helvetica,sans-Serif" font-size="10.00">func_80066BAC</text>
</a>
</g>
</g>
<!-- Node54&#45;&gt;Node75 -->
<g id="edge10_Node000054_Node000075" class="edge">
<title>Node54&#45;&gt;Node75</title>
<g id="a_edge10_Node000054_Node000075"><a xlink:title=" ">
<path fill="none" stroke="#63b8ff" d="M267.23,-1123.77C248.6,-1152.32 208.59,-1207.17 160,-1235.5 149.91,-1241.38 138.06,-1245.34 126.65,-1248.01"/>
<polygon fill="#63b8ff" stroke="#63b8ff" points="270.28,-1125.48 272.7,-1115.17 264.38,-1121.72 270.28,-1125.48"/>
</a>
</g>
</g>
<!-- Node76 -->
<g id="Node000076" class="node">
<title>Node76</title>
<g id="a_Node000076"><a xlink:href="code__80057C60_8c.html#a2f5245121d6e632508386ce076689ab0" target="_top" xlink:title=" ">
<polygon fill="#fff0f0" stroke="red" points="125.5,-1226 34.5,-1226 34.5,-1207 125.5,-1207 125.5,-1226"/>
<text text-anchor="middle" x="80" y="-1214" font-family="Helvetica,sans-Serif" font-size="10.00">func_80067280</text>
</a>
</g>
</g>
<!-- Node54&#45;&gt;Node76 -->
<g id="edge11_Node000054_Node000076" class="edge">
<title>Node54&#45;&gt;Node76</title>
<g id="a_edge11_Node000054_Node000076"><a xlink:title=" ">
<path fill="none" stroke="#63b8ff" d="M262.05,-1122.38C240.56,-1143.44 200.82,-1179.05 160,-1198.5 149.33,-1203.58 137.16,-1207.27 125.62,-1209.93"/>
<polygon fill="#63b8ff" stroke="#63b8ff" points="264.76,-1124.63 269.36,-1115.09 259.81,-1119.68 264.76,-1124.63"/>
</a>
</g>
</g>
<!-- Node77 -->
<g id="Node000077" class="node">
<title>Node77</title>
<g id="a_Node000077"><a xlink:href="code__80057C60_8c.html#a83b70a807a1868d489124f4250751dce" target="_top" xlink:title=" ">
<polygon fill="#fff0f0" stroke="red" points="125.5,-1189 34.5,-1189 34.5,-1170 125.5,-1170 125.5,-1189"/>
<text text-anchor="middle" x="80" y="-1177" font-family="Helvetica,sans-Serif" font-size="10.00">func_80068724</text>
</a>
</g>
</g>
<!-- Node54&#45;&gt;Node77 -->
<g id="edge12_Node000054_Node000077" class="edge">
<title>Node54&#45;&gt;Node77</title>
<g id="a_edge12_Node000054_Node000077"><a xlink:title=" ">
<path fill="none" stroke="#63b8ff" d="M252.34,-1119.9C228.77,-1132.36 192.89,-1150.13 160,-1161.5 149.1,-1165.27 137.07,-1168.47 125.77,-1171.08"/>
<polygon fill="#63b8ff" stroke="#63b8ff" points="254.17,-1122.88 261.33,-1115.08 250.87,-1116.71 254.17,-1122.88"/>
</a>
</g>
</g>
<!-- Node78 -->
<g id="Node000078" class="node">
<title>Node78</title>
<g id="a_Node000078"><a xlink:href="code__80057C60_8c.html#ab2deee631099b8f4a4f3725c00012367" target="_top" xlink:title=" ">
<polygon fill="#fff0f0" stroke="red" points="126,-1152 34,-1152 34,-1133 126,-1133 126,-1152"/>
<text text-anchor="middle" x="80" y="-1140" font-family="Helvetica,sans-Serif" font-size="10.00">func_800691B8</text>
</a>
</g>
</g>
<!-- Node54&#45;&gt;Node78 -->
<g id="edge13_Node000054_Node000078" class="edge">
<title>Node54&#45;&gt;Node78</title>
<g id="a_edge13_Node000054_Node000078"><a xlink:title=" ">
<path fill="none" stroke="#63b8ff" d="M223.09,-1115.88C192.47,-1121.62 154.91,-1128.65 126.1,-1134.05"/>
<polygon fill="#63b8ff" stroke="#63b8ff" points="224.01,-1119.27 233.19,-1113.99 222.72,-1112.39 224.01,-1119.27"/>
</a>
</g>
</g>
<!-- Node79 -->
<g id="Node000079" class="node">
<title>Node79</title>
<g id="a_Node000079"><a xlink:href="code__80057C60_8c.html#a816ad699435bcfbaac32ffd5e1c873bf" target="_top" xlink:title=" ">
<polygon fill="#fff0f0" stroke="red" points="125.5,-1115 34.5,-1115 34.5,-1096 125.5,-1096 125.5,-1115"/>
<text text-anchor="middle" x="80" y="-1103" font-family="Helvetica,sans-Serif" font-size="10.00">func_80069444</text>
</a>
</g>
</g>
<!-- Node54&#45;&gt;Node79 -->
<g id="edge14_Node000054_Node000079" class="edge">
<title>Node54&#45;&gt;Node79</title>
<g id="a_edge14_Node000054_Node000079"><a xlink:title=" ">
<path fill="none" stroke="#63b8ff" d="M223.06,-1105.5C192.32,-1105.5 154.6,-1105.5 125.76,-1105.5"/>
<polygon fill="#63b8ff" stroke="#63b8ff" points="223.19,-1109 233.19,-1105.5 223.19,-1102 223.19,-1109"/>
</a>
</g>
</g>
<!-- Node80 -->
<g id="Node000080" class="node">
<title>Node80</title>
<g id="a_Node000080"><a xlink:href="code__80057C60_8c.html#a64a649414b0f4d317984a4440ce212cf" target="_top" xlink:title=" ">
<polygon fill="#fff0f0" stroke="red" points="125.5,-1078 34.5,-1078 34.5,-1059 125.5,-1059 125.5,-1078"/>
<text text-anchor="middle" x="80" y="-1066" font-family="Helvetica,sans-Serif" font-size="10.00">func_80069938</text>
</a>
</g>
</g>
<!-- Node54&#45;&gt;Node80 -->
<g id="edge15_Node000054_Node000080" class="edge">
<title>Node54&#45;&gt;Node80</title>
<g id="a_edge15_Node000054_Node000080"><a xlink:title=" ">
<path fill="none" stroke="#63b8ff" d="M223.06,-1095.11C192.32,-1089.35 154.6,-1082.29 125.76,-1076.89"/>
<polygon fill="#63b8ff" stroke="#63b8ff" points="222.72,-1098.61 233.19,-1097.01 224.01,-1091.73 222.72,-1098.61"/>
</a>
</g>
</g>
<!-- Node81 -->
<g id="Node000081" class="node">
<title>Node81</title>
<g id="a_Node000081"><a xlink:href="code__80057C60_8c.html#a1b816895add639d5bccf6c80120d317a" target="_top" xlink:title=" ">
<polygon fill="#fff0f0" stroke="red" points="126,-1041 34,-1041 34,-1022 126,-1022 126,-1041"/>
<text text-anchor="middle" x="80" y="-1029" font-family="Helvetica,sans-Serif" font-size="10.00">func_80069BA8</text>
</a>
</g>
</g>
<!-- Node54&#45;&gt;Node81 -->
<g id="edge16_Node000054_Node000081" class="edge">
<title>Node54&#45;&gt;Node81</title>
<g id="a_edge16_Node000054_Node000081"><a xlink:title=" ">
<path fill="none" stroke="#63b8ff" d="M251.86,-1091.27C228.25,-1079.12 192.57,-1061.85 160,-1050.5 149.21,-1046.74 137.34,-1043.46 126.15,-1040.73"/>
<polygon fill="#63b8ff" stroke="#63b8ff" points="250.41,-1094.46 260.89,-1095.98 253.64,-1088.25 250.41,-1094.46"/>
</a>
</g>
</g>
<!-- Node82 -->
<g id="Node000082" class="node">
<title>Node82</title>
<g id="a_Node000082"><a xlink:href="code__80057C60_8c.html#a96a550feb29af6f064c4f1f6fbf79c8e" target="_top" xlink:title=" ">
<polygon fill="#fff0f0" stroke="red" points="126.5,-1004 33.5,-1004 33.5,-985 126.5,-985 126.5,-1004"/>
<text text-anchor="middle" x="80" y="-992" font-family="Helvetica,sans-Serif" font-size="10.00">func_80069DB8</text>
</a>
</g>
</g>
<!-- Node54&#45;&gt;Node82 -->
<g id="edge17_Node000054_Node000082" class="edge">
<title>Node54&#45;&gt;Node82</title>
<g id="a_edge17_Node000054_Node000082"><a xlink:title=" ">
<path fill="none" stroke="#63b8ff" d="M261.65,-1088.56C240,-1067.78 200.38,-1032.91 160,-1013.5 149.7,-1008.55 138.01,-1004.83 126.84,-1002.06"/>
<polygon fill="#63b8ff" stroke="#63b8ff" points="259.43,-1091.29 269.03,-1095.78 264.32,-1086.28 259.43,-1091.29"/>
</a>
</g>
</g>
<!-- Node83 -->
<g id="Node000083" class="node">
<title>Node83</title>
<g id="a_Node000083"><a xlink:href="code__80057C60_8c.html#aa29e50ae3d2289c99bf8319eaf7c31bc" target="_top" xlink:title=" ">
<polygon fill="#fff0f0" stroke="red" points="126,-967 34,-967 34,-948 126,-948 126,-967"/>
<text text-anchor="middle" x="80" y="-955" font-family="Helvetica,sans-Serif" font-size="10.00">func_8006A01C</text>
</a>
</g>
</g>
<!-- Node54&#45;&gt;Node83 -->
<g id="edge18_Node000054_Node000083" class="edge">
<title>Node54&#45;&gt;Node83</title>
<g id="a_edge18_Node000054_Node000083"><a xlink:title=" ">
<path fill="none" stroke="#63b8ff" d="M267.15,-1087.44C248.42,-1059.21 208.27,-1004.91 160,-976.5 149.79,-970.49 137.77,-966.38 126.24,-963.57"/>
<polygon fill="#63b8ff" stroke="#63b8ff" points="264.29,-1089.46 272.66,-1095.95 270.16,-1085.65 264.29,-1089.46"/>
</a>
</g>
</g>
<!-- Node84 -->
<g id="Node000084" class="node">
<title>Node84</title>
<g id="a_Node000084"><a xlink:href="code__80057C60_8c.html#aeacc1b0f213ad8d484e5dfac5c42920f" target="_top" xlink:title=" ">
<polygon fill="#fff0f0" stroke="red" points="126,-930 34,-930 34,-911 126,-911 126,-930"/>
<text text-anchor="middle" x="80" y="-918" font-family="Helvetica,sans-Serif" font-size="10.00">func_8006A280</text>
</a>
</g>
</g>
<!-- Node54&#45;&gt;Node84 -->
<g id="edge19_Node000054_Node000084" class="edge">
<title>Node54&#45;&gt;Node84</title>
<g id="a_edge19_Node000054_Node000084"><a xlink:title=" ">
<path fill="none" stroke="#63b8ff" d="M270.36,-1086.26C254.52,-1051.28 216.13,-977.36 160,-939.5 150.06,-932.79 138.01,-928.45 126.35,-925.63"/>
<polygon fill="#63b8ff" stroke="#63b8ff" points="267.32,-1088.04 274.54,-1095.79 273.73,-1085.23 267.32,-1088.04"/>
</a>
</g>
</g>
<!-- Node85 -->
<g id="Node000085" class="node">
<title>Node85</title>
<g id="a_Node000085"><a xlink:href="code__80057C60_8c.html#a524fb5cb7f2989ad98c275695da9cc44" target="_top" xlink:title=" ">
<polygon fill="white" stroke="#666666" points="126,-893 34,-893 34,-874 126,-874 126,-893"/>
<text text-anchor="middle" x="80" y="-881" font-family="Helvetica,sans-Serif" font-size="10.00">func_8006C0C8</text>
</a>
</g>
</g>
<!-- Node54&#45;&gt;Node85 -->
<g id="edge20_Node000054_Node000085" class="edge">
<title>Node54&#45;&gt;Node85</title>
<g id="a_edge20_Node000054_Node000085"><a xlink:title=" ">
<path fill="none" stroke="#63b8ff" d="M272.87,-1085.99C260.04,-1045.17 224.64,-950.55 160,-902.5 150.26,-895.26 138.15,-890.74 126.36,-887.93"/>
<polygon fill="#63b8ff" stroke="#63b8ff" points="269.52,-1087.02 275.77,-1095.57 276.22,-1084.99 269.52,-1087.02"/>
</a>
</g>
</g>
<!-- Node86 -->
<g id="Node000086" class="node">
<title>Node86</title>
<g id="a_Node000086"><a xlink:href="code__80057C60_8c.html#a7ce8e2d5688399f6672f9d55a6ef00a2" target="_top" xlink:title=" ">
<polygon fill="white" stroke="#666666" points="126,-856 34,-856 34,-837 126,-837 126,-856"/>
<text text-anchor="middle" x="80" y="-844" font-family="Helvetica,sans-Serif" font-size="10.00">func_8006C294</text>
</a>
</g>
</g>
<!-- Node54&#45;&gt;Node86 -->
<g id="edge21_Node000054_Node000086" class="edge">
<title>Node54&#45;&gt;Node86</title>
<g id="a_edge21_Node000054_Node000086"><a xlink:title=" ">
<path fill="none" stroke="#63b8ff" d="M274.74,-1086.01C264.82,-1040.01 233.45,-924.18 160,-865.5 150.41,-857.84 138.22,-853.19 126.29,-850.39"/>
<polygon fill="#63b8ff" stroke="#63b8ff" points="271.33,-1086.8 276.77,-1095.89 278.19,-1085.39 271.33,-1086.8"/>
</a>
</g>
</g>
<!-- Node87 -->
<g id="Node000087" class="node">
<title>Node87</title>
<g id="a_Node000087"><a xlink:href="code__80057C60_8c.html#af1c7b5d386d28447e248a123bec58497" target="_top" xlink:title=" ">
<polygon fill="white" stroke="#666666" points="126.5,-819 33.5,-819 33.5,-800 126.5,-800 126.5,-819"/>
<text text-anchor="middle" x="80" y="-807" font-family="Helvetica,sans-Serif" font-size="10.00">func_8006C4D4</text>
</a>
</g>
</g>
<!-- Node54&#45;&gt;Node87 -->
<g id="edge22_Node000054_Node000087" class="edge">
<title>Node54&#45;&gt;Node87</title>
<g id="a_edge22_Node000054_Node000087"><a xlink:title=" ">
<path fill="none" stroke="#63b8ff" d="M276.12,-1085.83C268.87,-1034.92 242.29,-898 160,-828.5 150.62,-820.58 138.5,-815.85 126.57,-813.06"/>
<polygon fill="#63b8ff" stroke="#63b8ff" points="272.66,-1086.38 277.45,-1095.84 279.6,-1085.46 272.66,-1086.38"/>
</a>
</g>
</g>
<!-- Node88 -->
<g id="Node000088" class="node">
<title>Node88</title>
<g id="a_Node000088"><a xlink:href="code__80057C60_8c.html#ab946bf1fb83419a3626f9d265b04a7bf" target="_top" xlink:title=" ">
<polygon fill="#fff0f0" stroke="red" points="135,-782 25,-782 25,-763 135,-763 135,-782"/>
<text text-anchor="middle" x="80" y="-770" font-family="Helvetica,sans-Serif" font-size="10.00">render_music_note</text>
</a>
</g>
</g>
<!-- Node54&#45;&gt;Node88 -->
<g id="edge23_Node000054_Node000088" class="edge">
<title>Node54&#45;&gt;Node88</title>
<g id="a_edge23_Node000054_Node000088"><a xlink:title=" ">
<path fill="none" stroke="#63b8ff" d="M272.32,-1086C251.44,-1020.64 183.54,-812.27 160,-791.5 152.91,-785.25 144.12,-780.97 135.01,-778.05"/>
<polygon fill="#63b8ff" stroke="#63b8ff" points="269.08,-1087.37 275.45,-1095.84 275.75,-1085.25 269.08,-1087.37"/>
</a>
</g>
</g>
<!-- Node89 -->
<g id="Node000089" class="node">
<title>Node89</title>
<g id="a_Node000089"><a xlink:href="code__80057C60_8c.html#a859868ea70898b00453ccd132796ee5e" target="_top" xlink:title=" ">
<polygon fill="#fff0f0" stroke="red" points="138,-744.5 22,-744.5 22,-714.5 138,-714.5 138,-744.5"/>
<text text-anchor="start" x="30" y="-732.5" font-family="Helvetica,sans-Serif" font-size="10.00">render_player_boost</text>
<text text-anchor="middle" x="80" y="-721.5" font-family="Helvetica,sans-Serif" font-size="10.00">_spark_particles</text>
</a>
</g>
</g>
<!-- Node54&#45;&gt;Node89 -->
<g id="edge24_Node000054_Node000089" class="edge">
<title>Node54&#45;&gt;Node89</title>
<g id="a_edge24_Node000054_Node000089"><a xlink:title=" ">
<path fill="none" stroke="#63b8ff" d="M272.26,-1086.25C248.72,-1013.72 166.29,-760.67 160,-754.5 153.84,-748.46 146.23,-743.87 138.18,-740.39"/>
<polygon fill="#63b8ff" stroke="#63b8ff" points="268.99,-1087.51 275.4,-1095.94 275.65,-1085.35 268.99,-1087.51"/>
</a>
</g>
</g>
<!-- Node90 -->
<g id="Node000090" class="node">
<title>Node90</title>
<g id="a_Node000090"><a xlink:href="code__80057C60_8c.html#a5d712ed14b160507d1109d88568aac20" target="_top" xlink:title=" ">
<polygon fill="#fff0f0" stroke="red" points="160,-1544.5 0,-1544.5 0,-1514.5 160,-1514.5 160,-1544.5"/>
<text text-anchor="start" x="8" y="-1532.5" font-family="Helvetica,sans-Serif" font-size="10.00">render_player_onomatopoeia</text>
<text text-anchor="middle" x="80" y="-1521.5" font-family="Helvetica,sans-Serif" font-size="10.00">_boing</text>
</a>
</g>
</g>
<!-- Node54&#45;&gt;Node90 -->
<g id="edge25_Node000054_Node000090" class="edge">
<title>Node54&#45;&gt;Node90</title>
<g id="a_edge25_Node000054_Node000090"><a xlink:title=" ">
<path fill="none" stroke="#63b8ff" d="M278.8,-1125.26C278.66,-1189.62 269.29,-1395.45 160,-1505.5 156.57,-1508.96 152.65,-1511.92 148.44,-1514.46"/>
<polygon fill="#63b8ff" stroke="#63b8ff" points="282.3,-1125.23 278.74,-1115.25 275.3,-1125.26 282.3,-1125.23"/>
</a>
</g>
</g>
<!-- Node91 -->
<g id="Node000091" class="node">
<title>Node91</title>
<g id="a_Node000091"><a xlink:href="code__80057C60_8c.html#a8b07c523061c3f64a752ce8b05675eb6" target="_top" xlink:title=" ">
<polygon fill="#fff0f0" stroke="red" points="160,-1496.5 0,-1496.5 0,-1466.5 160,-1466.5 160,-1496.5"/>
<text text-anchor="start" x="8" y="-1484.5" font-family="Helvetica,sans-Serif" font-size="10.00">render_player_onomatopoeia</text>
<text text-anchor="middle" x="80" y="-1473.5" font-family="Helvetica,sans-Serif" font-size="10.00">_crash</text>
</a>
</g>
</g>
<!-- Node54&#45;&gt;Node91 -->
<g id="edge26_Node000054_Node000091" class="edge">
<title>Node54&#45;&gt;Node91</title>
<g id="a_edge26_Node000054_Node000091"><a xlink:title=" ">
<path fill="none" stroke="#63b8ff" d="M277.85,-1125.57C274.81,-1185.16 257.6,-1362.77 160,-1457.5 156.5,-1460.89 152.54,-1463.81 148.3,-1466.32"/>
<polygon fill="#63b8ff" stroke="#63b8ff" points="281.36,-1125.43 278.29,-1115.29 274.37,-1125.13 281.36,-1125.43"/>
</a>
</g>
</g>
<!-- Node103&#45;&gt;Node4 -->
<g id="edge31_Node000103_Node000004" class="edge">
<title>Node103&#45;&gt;Node4</title>
<g id="a_edge31_Node000103_Node000004"><a xlink:title=" ">
<path fill="none" stroke="#63b8ff" d="M217.78,-712.12C186.72,-706.31 149.74,-699.38 122.06,-694.19"/>
<polygon fill="#63b8ff" stroke="#63b8ff" points="217.17,-715.57 227.64,-713.97 218.45,-708.69 217.17,-715.57"/>
</a>
</g>
</g>
<!-- Node105 -->
<g id="Node000105" class="node">
<title>Node105</title>
<g id="a_Node000105"><a xlink:href="classOTrophy.html#a2eb7707fd5f496e55c91ee160590cdd7" target="_top" xlink:title=" ">
<polygon fill="white" stroke="#666666" points="123.5,-192 36.5,-192 36.5,-173 123.5,-173 123.5,-192"/>
<text text-anchor="middle" x="80" y="-180" font-family="Helvetica,sans-Serif" font-size="10.00">OTrophy::Draw</text>
</a>
</g>
</g>
<!-- Node104&#45;&gt;Node105 -->
<g id="edge33_Node000104_Node000105" class="edge">
<title>Node104&#45;&gt;Node105</title>
<g id="a_edge33_Node000104_Node000105"><a xlink:title=" ">
<path fill="none" stroke="#63b8ff" d="M401,-348.26C348.41,-359.13 261.19,-369.18 196,-336.5 133.06,-304.95 95.75,-220.79 84.58,-192.18"/>
<polygon fill="#63b8ff" stroke="#63b8ff" points="402,-351.62 411.04,-346.08 400.52,-344.78 402,-351.62"/>
</a>
</g>
</g>
<!-- Node106 -->
<g id="Node000106" class="node">
<title>Node106</title>
<g id="a_Node000106"><a xlink:href="math__util__2_8c.html#a22aa509214eeed1ba3197762e76d7bed" target="_top" xlink:title=" ">
<polygon fill="#fff0f0" stroke="red" points="325,-327 234,-327 234,-308 325,-308 325,-327"/>
<text text-anchor="middle" x="279.5" y="-315" font-family="Helvetica,sans-Serif" font-size="10.00">func_80042330</text>
</a>
</g>
</g>
<!-- Node104&#45;&gt;Node106 -->
<g id="edge34_Node000104_Node000106" class="edge">
<title>Node104&#45;&gt;Node106</title>
<g id="a_edge34_Node000104_Node000106"><a xlink:title=" ">
<path fill="none" stroke="#63b8ff" d="M394.97,-330.56C372.57,-328.01 346.64,-325.05 325.13,-322.59"/>
<polygon fill="#63b8ff" stroke="#63b8ff" points="394.65,-334.05 404.99,-331.71 395.45,-327.09 394.65,-334.05"/>
</a>
</g>
</g>
<!-- Node195 -->
<g id="Node000195" class="node">
<title>Node195</title>
<g id="a_Node000195"><a xlink:href="math__util__2_8c.html#a73fc9c004b7013f9562425001c315571" target="_top" xlink:title=" ">
<polygon fill="#fff0f0" stroke="red" points="345.5,-290 213.5,-290 213.5,-271 345.5,-271 345.5,-290"/>
<text text-anchor="middle" x="279.5" y="-278" font-family="Helvetica,sans-Serif" font-size="10.00">func_80042330_portrait</text>
</a>
</g>
</g>
<!-- Node104&#45;&gt;Node195 -->
<g id="edge35_Node000104_Node000195" class="edge">
<title>Node104&#45;&gt;Node195</title>
<g id="a_edge35_Node000104_Node000195"><a xlink:title=" ">
<path fill="none" stroke="#63b8ff" d="M418.71,-322.44C402.66,-314.87 382.04,-305.82 363,-299.5 352.12,-295.89 340.21,-292.71 328.91,-290.04"/>
<polygon fill="#63b8ff" stroke="#63b8ff" points="417.53,-325.75 428.06,-326.92 420.55,-319.44 417.53,-325.75"/>
</a>
</g>
</g>
<!-- Node196 -->
<g id="Node000196" class="node">
<title>Node196</title>
<g id="a_Node000196"><a xlink:href="math__util__2_8c.html#ae4327c5df49b333e448da750f14387ce" target="_top" xlink:title=" ">
<polygon fill="#fff0f0" stroke="red" points="354,-253 205,-253 205,-234 354,-234 354,-253"/>
<text text-anchor="middle" x="279.5" y="-241" font-family="Helvetica,sans-Serif" font-size="10.00">func_80042330_unchanged</text>
</a>
</g>
</g>
<!-- Node104&#45;&gt;Node196 -->
<g id="edge36_Node000104_Node000196" class="edge">
<title>Node104&#45;&gt;Node196</title>
<g id="a_edge36_Node000104_Node000196"><a xlink:title=" ">
<path fill="none" stroke="#63b8ff" d="M432.3,-319.3C416.79,-302.28 390.79,-276.76 363,-262.5 355.42,-258.61 347.03,-255.5 338.6,-253.03"/>
<polygon fill="#63b8ff" stroke="#63b8ff" points="429.77,-321.73 439.03,-326.89 435.01,-317.08 429.77,-321.73"/>
</a>
</g>
</g>
<!-- Node216 -->
<g id="Node000216" class="node">
<title>Node216</title>
<g id="a_Node000216"><a xlink:href="math__util__2_8c.html#a5e75cf095048d145dbee0e0428d88711" target="_top" xlink:title=" ">
<polygon fill="#fff0f0" stroke="red" points="339,-216 220,-216 220,-197 339,-197 339,-216"/>
<text text-anchor="middle" x="279.5" y="-204" font-family="Helvetica,sans-Serif" font-size="10.00">func_80042330_wide</text>
</a>
</g>
</g>
<!-- Node104&#45;&gt;Node216 -->
<g id="edge37_Node000104_Node000216" class="edge">
<title>Node104&#45;&gt;Node216</title>
<g id="a_edge37_Node000104_Node000216"><a xlink:title=" ">
<path fill="none" stroke="#63b8ff" d="M438.12,-317.81C425.21,-292.74 398.84,-248.71 363,-225.5 355.84,-220.87 347.7,-217.36 339.37,-214.7"/>
<polygon fill="#63b8ff" stroke="#63b8ff" points="435.1,-319.59 442.68,-326.99 441.37,-316.47 435.1,-319.59"/>
</a>
</g>
</g>
<!-- Node221 -->
<g id="Node000221" class="node">
<title>Node221</title>
<g id="a_Node000221"><a xlink:href="classOHedgehog.html#a13625be451620e958a7901450c80e330" target="_top" xlink:title=" ">
<polygon fill="#fff0f0" stroke="red" points="357,-179 202,-179 202,-160 357,-160 357,-179"/>
<text text-anchor="middle" x="279.5" y="-167" font-family="Helvetica,sans-Serif" font-size="10.00">OHedgehog::func_8004A870</text>
</a>
</g>
</g>
<!-- Node104&#45;&gt;Node221 -->
<g id="edge38_Node000104_Node000221" class="edge">
<title>Node104&#45;&gt;Node221</title>
<g id="a_edge38_Node000104_Node000221"><a xlink:title=" ">
<path fill="none" stroke="#63b8ff" d="M441.49,-316.75C431.46,-284.63 407.08,-221.35 363,-188.5 357.81,-184.64 351.97,-181.54 345.86,-179.06"/>
<polygon fill="#63b8ff" stroke="#63b8ff" points="438.24,-318.12 444.44,-326.71 444.95,-316.13 438.24,-318.12"/>
</a>
</g>
</g>
<!-- Node224 -->
<g id="Node000224" class="node">
<title>Node224</title>
<g id="a_Node000224"><a xlink:href="render__objects_8c.html#a852cb0a2e8c940add312fbaa9a0cb705" target="_top" xlink:title=" ">
<polygon fill="#fff0f0" stroke="red" points="325.5,-142 233.5,-142 233.5,-123 325.5,-123 325.5,-142"/>
<text text-anchor="middle" x="279.5" y="-130" font-family="Helvetica,sans-Serif" font-size="10.00">func_800568A0</text>
</a>
</g>
</g>
<!-- Node104&#45;&gt;Node224 -->
<g id="edge39_Node000104_Node000224" class="edge">
<title>Node104&#45;&gt;Node224</title>
<g id="a_edge39_Node000104_Node000224"><a xlink:title=" ">
<path fill="none" stroke="#63b8ff" d="M443.91,-316.74C436.87,-278.61 415.94,-194.79 363,-151.5 352.53,-142.94 338.93,-138.08 325.81,-135.36"/>
<polygon fill="#63b8ff" stroke="#63b8ff" points="440.47,-317.36 445.61,-326.62 447.37,-316.17 440.47,-317.36"/>
</a>
</g>
</g>
<!-- Node227 -->
<g id="Node000227" class="node">
<title>Node227</title>
<g id="a_Node000227"><a xlink:href="classPlayerBombKart.html#aa063b7ce63ddb80c6da7550630df531a" target="_top" xlink:title=" ">
<polygon fill="#fff0f0" stroke="red" points="341,-104.5 218,-104.5 218,-74.5 341,-74.5 341,-104.5"/>
<text text-anchor="start" x="226" y="-92.5" font-family="Helvetica,sans-Serif" font-size="10.00">PlayerBombKart::func</text>
<text text-anchor="middle" x="279.5" y="-81.5" font-family="Helvetica,sans-Serif" font-size="10.00">_800568A0</text>
</a>
</g>
</g>
<!-- Node104&#45;&gt;Node227 -->
<g id="edge40_Node000104_Node000227" class="edge">
<title>Node104&#45;&gt;Node227</title>
<g id="a_edge40_Node000104_Node000227"><a xlink:title=" ">
<path fill="none" stroke="#63b8ff" d="M440.83,-317.35C424.2,-266.18 378.63,-129.11 363,-114.5 356.77,-108.67 349.22,-104.2 341.25,-100.77"/>
<polygon fill="#63b8ff" stroke="#63b8ff" points="437.51,-318.46 443.92,-326.89 444.17,-316.3 437.51,-318.46"/>
</a>
</g>
</g>
<!-- Node229 -->
<g id="Node000229" class="node">
<title>Node229</title>
<g id="a_Node000229"><a xlink:href="render__objects_8c.html#ad38e748954bfdc19d29272dbf4703c0e" target="_top" xlink:title=" ">
<polygon fill="#fff0f0" stroke="red" points="325.5,-56 233.5,-56 233.5,-37 325.5,-37 325.5,-56"/>
<text text-anchor="middle" x="279.5" y="-44" font-family="Helvetica,sans-Serif" font-size="10.00">func_80056FCC</text>
</a>
</g>
</g>
<!-- Node104&#45;&gt;Node229 -->
<g id="edge41_Node000104_Node000229" class="edge">
<title>Node104&#45;&gt;Node229</title>
<g id="a_edge41_Node000104_Node000229"><a xlink:title=" ">
<path fill="none" stroke="#63b8ff" d="M440.87,-317.14C431.7,-288.12 413.88,-231.61 399,-183.5 382.79,-131.12 403.1,-102.9 363,-65.5 352.9,-56.08 339.09,-51.01 325.66,-48.38"/>
<polygon fill="#63b8ff" stroke="#63b8ff" points="437.59,-318.36 443.94,-326.84 444.26,-316.25 437.59,-318.36"/>
</a>
</g>
</g>
<!-- Node232 -->
<g id="Node000232" class="node">
<title>Node232</title>
<g id="a_Node000232"><a xlink:href="classOBombKart.html#aea3d7d6c71cbc87e4301cc95aef686b7" target="_top" xlink:title=" ">
<polygon fill="#fff0f0" stroke="red" points="340,-659 219,-659 219,-640 340,-640 340,-659"/>
<text text-anchor="middle" x="279.5" y="-647" font-family="Helvetica,sans-Serif" font-size="10.00">OBombKart::LoadMtx</text>
</a>
</g>
</g>
<!-- Node104&#45;&gt;Node232 -->
<g id="edge42_Node000104_Node000232" class="edge">
<title>Node104&#45;&gt;Node232</title>
<g id="a_edge42_Node000104_Node000232"><a xlink:title=" ">
<path fill="none" stroke="#63b8ff" d="M447.77,-356.27C448.69,-409.32 443.46,-555.93 363,-631.5 356.59,-637.52 348.65,-641.71 340.25,-644.59"/>
<polygon fill="#63b8ff" stroke="#63b8ff" points="451.27,-356.07 447.5,-346.17 444.27,-356.26 451.27,-356.07"/>
</a>
</g>
</g>
<!-- Node233 -->
<g id="Node000233" class="node">
<title>Node233</title>
<g id="a_Node000233"><a xlink:href="animation_8c.html#a735935d8f41d2fbdc617a41a92dfc371" target="_top" xlink:title=" ">
<polygon fill="#fff0f0" stroke="red" points="348.5,-622 210.5,-622 210.5,-603 348.5,-603 348.5,-622"/>
<text text-anchor="middle" x="279.5" y="-610" font-family="Helvetica,sans-Serif" font-size="10.00">render_limb_or_add_mtx</text>
</a>
</g>
</g>
<!-- Node104&#45;&gt;Node233 -->
<g id="edge43_Node000104_Node000233" class="edge">
<title>Node104&#45;&gt;Node233</title>
<g id="a_edge43_Node000104_Node000233"><a xlink:title=" ">
<path fill="none" stroke="#63b8ff" d="M446.75,-356.24C445.02,-404.45 433.56,-528.99 363,-593.5 358.77,-597.37 353.91,-600.5 348.72,-603.03"/>
<polygon fill="#63b8ff" stroke="#63b8ff" points="450.25,-356.27 447.01,-346.18 443.25,-356.09 450.25,-356.27"/>
</a>
</g>
</g>
<!-- Node244 -->
<g id="Node000244" class="node">
<title>Node244</title>
<g id="a_Node000244"><a xlink:href="math__util__2_8c.html#a72838b5aa6ee317abde4c7a2c30bc44b" target="_top" xlink:title=" ">
<polygon fill="white" stroke="#666666" points="334.5,-584.5 224.5,-584.5 224.5,-554.5 334.5,-554.5 334.5,-584.5"/>
<text text-anchor="start" x="232.5" y="-572.5" font-family="Helvetica,sans-Serif" font-size="10.00">rsp_set_matrix_diff</text>
<text text-anchor="middle" x="279.5" y="-561.5" font-family="Helvetica,sans-Serif" font-size="10.00">_translation_scale</text>
</a>
</g>
</g>
<!-- Node104&#45;&gt;Node244 -->
<g id="edge44_Node000104_Node000244" class="edge">
<title>Node104&#45;&gt;Node244</title>
<g id="a_edge44_Node000104_Node000244"><a xlink:title=" ">
<path fill="none" stroke="#63b8ff" d="M444.81,-356.17C439.15,-397.47 420.23,-493.67 363,-545.5 355.04,-552.71 345.03,-557.76 334.76,-561.3"/>
<polygon fill="#63b8ff" stroke="#63b8ff" points="448.31,-356.42 446.07,-346.06 441.36,-355.55 448.31,-356.42"/>
</a>
</g>
</g>
<!-- Node245 -->
<g id="Node000245" class="node">
<title>Node245</title>
<g id="a_Node000245"><a xlink:href="math__util__2_8c.html#aca064a66dc29c36e1db7b79a6b679e25" target="_top" xlink:title=" ">
<polygon fill="#fff0f0" stroke="red" points="354,-536 205,-536 205,-517 354,-517 354,-536"/>
<text text-anchor="middle" x="279.5" y="-524" font-family="Helvetica,sans-Serif" font-size="10.00">rsp_set_matrix_gObjectList</text>
</a>
</g>
</g>
<!-- Node104&#45;&gt;Node245 -->
<g id="edge45_Node000104_Node000245" class="edge">
<title>Node104&#45;&gt;Node245</title>
<g id="a_edge45_Node000104_Node000245"><a xlink:title=" ">
<path fill="none" stroke="#63b8ff" d="M443.2,-356.38C435.18,-392.61 413,-469.24 363,-508.5 358.73,-511.85 353.98,-514.61 348.96,-516.87"/>
<polygon fill="#63b8ff" stroke="#63b8ff" points="446.72,-356.64 445.32,-346.14 439.86,-355.22 446.72,-356.64"/>
</a>
</g>
</g>
<!-- Node264 -->
<g id="Node000264" class="node">
<title>Node264</title>
<g id="a_Node000264"><a xlink:href="math__util__2_8c.html#a2eff0e02deb703653ee3230fbc02eb14" target="_top" xlink:title="set the matrix to a transformation matrix">
<polygon fill="#fff0f0" stroke="red" points="363,-499 196,-499 196,-480 363,-480 363,-499"/>
<text text-anchor="middle" x="279.5" y="-487" font-family="Helvetica,sans-Serif" font-size="10.00">rsp_set_matrix_transformation</text>
</a>
</g>
</g>
<!-- Node104&#45;&gt;Node264 -->
<g id="edge46_Node000104_Node000264" class="edge">
<title>Node104&#45;&gt;Node264</title>
<g id="a_edge46_Node000104_Node000264"><a xlink:title=" ">
<path fill="none" stroke="#63b8ff" d="M440.48,-355.64C429.4,-385.12 404.04,-441.29 363,-470.5 357.61,-474.34 351.57,-477.41 345.27,-479.87"/>
<polygon fill="#63b8ff" stroke="#63b8ff" points="443.82,-356.68 443.91,-346.08 437.23,-354.31 443.82,-356.68"/>
</a>
</g>
</g>
<!-- Node365 -->
<g id="Node000365" class="node">
<title>Node365</title>
<g id="a_Node000365"><a xlink:href="math__util__2_8c.html#ac40bfdeffa5a3c0f8d7c1ce43c075a45" target="_top" xlink:title=" ">
<polygon fill="#fff0f0" stroke="red" points="363,-461.5 196,-461.5 196,-431.5 363,-431.5 363,-461.5"/>
<text text-anchor="start" x="204" y="-449.5" font-family="Helvetica,sans-Serif" font-size="10.00">rsp_set_matrix_transformation</text>
<text text-anchor="middle" x="279.5" y="-438.5" font-family="Helvetica,sans-Serif" font-size="10.00">_inverted_x_y_orientation</text>
</a>
</g>
</g>
<!-- Node104&#45;&gt;Node365 -->
<g id="edge47_Node000104_Node000365" class="edge">
<title>Node104&#45;&gt;Node365</title>
<g id="a_edge47_Node000104_Node000365"><a xlink:title=" ">
<path fill="none" stroke="#63b8ff" d="M434.31,-354.13C419.37,-373.63 392.8,-404.63 363,-422.5 357.24,-425.95 350.96,-428.93 344.52,-431.5"/>
<polygon fill="#63b8ff" stroke="#63b8ff" points="437.14,-356.18 440.32,-346.07 431.53,-352 437.14,-356.18"/>
</a>
</g>
</g>
<!-- Node370 -->
<g id="Node000370" class="node">
<title>Node370</title>
<g id="a_Node000370"><a xlink:href="math__util__2_8c.html#af76a1b5132e0b292f26895736bb69cc7" target="_top" xlink:title=" ">
<polygon fill="#fff0f0" stroke="red" points="340.5,-413.5 218.5,-413.5 218.5,-383.5 340.5,-383.5 340.5,-413.5"/>
<text text-anchor="start" x="226.5" y="-401.5" font-family="Helvetica,sans-Serif" font-size="10.00">rsp_set_matrix_transl</text>
<text text-anchor="middle" x="279.5" y="-390.5" font-family="Helvetica,sans-Serif" font-size="10.00">_rot_scale</text>
</a>
</g>
</g>
<!-- Node104&#45;&gt;Node370 -->
<g id="edge48_Node000104_Node000370" class="edge">
<title>Node104&#45;&gt;Node370</title>
<g id="a_edge48_Node000104_Node000370"><a xlink:title=" ">
<path fill="none" stroke="#63b8ff" d="M413.6,-349.94C398.24,-356.04 379.74,-363.27 363,-369.5 350.48,-374.16 336.82,-379.04 324.28,-383.44"/>
<polygon fill="#63b8ff" stroke="#63b8ff" points="415.2,-353.07 423.19,-346.12 412.61,-346.57 415.2,-353.07"/>
</a>
</g>
</g>
<!-- Node376 -->
<g id="Node000376" class="node">
<title>Node376</title>
<g id="a_Node000376"><a xlink:href="math__util_8c.html#a1e5d28a1962fbb390c7551f66c2f099a" target="_top" xlink:title=" ">
<polygon fill="#fff0f0" stroke="red" points="336,-19 223,-19 223,0 336,0 336,-19"/>
<text text-anchor="middle" x="279.5" y="-7" font-family="Helvetica,sans-Serif" font-size="10.00">render_set_position</text>
</a>
</g>
</g>
<!-- Node375&#45;&gt;Node376 -->
<g id="edge50_Node000375_Node000376" class="edge">
<title>Node375&#45;&gt;Node376</title>
<g id="a_edge50_Node000375_Node000376"><a xlink:title=" ">
<path fill="none" stroke="#63b8ff" d="M440.64,-144.88C429.79,-114.67 404.73,-57.15 363,-27.5 355.11,-21.9 345.81,-17.98 336.34,-15.27"/>
<polygon fill="#63b8ff" stroke="#63b8ff" points="437.44,-146.35 444,-154.67 444.07,-144.08 437.44,-146.35"/>
</a>
</g>
</g>
<!-- Node376&#45;&gt;Node105 -->
<g id="edge51_Node000376_Node000105" class="edge">
<title>Node376&#45;&gt;Node105</title>
<g id="a_edge51_Node000376_Node000105"><a xlink:title=" ">
<path fill="none" stroke="#63b8ff" d="M213.05,-19.1C207.04,-21.34 201.25,-24.11 196,-27.5 136.9,-65.69 97.38,-145.52 85.08,-172.98"/>
<polygon fill="#63b8ff" stroke="#63b8ff" points="214.2,-22.4 222.62,-15.97 212.03,-15.75 214.2,-22.4"/>
</a>
</g>
</g>
</g>
</svg>

<g id="navigator" transform="translate(0 0)" fill="#404254">
  <rect fill="#f2f5e9" fill-opacity="0.5" stroke="#606060" stroke-width=".5" x="0" y="0" width="60" height="60"/>
  <use id="zoomplus" xlink:href="#zoomPlus" x="17" y="9" onmousedown="handleZoom(evt,'in')"/>
  <use id="zoomminus" xlink:href="#zoomMin" x="42" y="9" onmousedown="handleZoom(evt,'out')"/>
  <use id="reset" xlink:href="#resetDef" x="30" y="36" onmousedown="handleReset()"/>
   <use id="arrowup" xlink:href="#arrowUp" x="0" y="0" onmousedown="handlePan(0,-1)"/>
  <use id="arrowright" xlink:href="#arrowRight" x="0" y="0" onmousedown="handlePan(1,0)"/>
  <use id="arrowdown" xlink:href="#arrowDown" x="0" y="0" onmousedown="handlePan(0,1)"/>
  <use id="arrowleft" xlink:href="#arrowLeft" x="0" y="0" onmousedown="handlePan(-1,0)"/>
</g>
<svg viewBox="0 0 15 15" width="100%" height="30px" preserveAspectRatio="xMaxYMin meet">
 <g id="arrow_out" transform="scale(0.3 0.3)">
  <a xlink:href="Matrix_8cpp_a67401ed1d8de1f4d3a3e5a7b72842b6a_icgraph_org.svg" target="_base">
   <rect id="button" ry="5" rx="5" y="6" x="6" height="38" width="38"
        fill="#f2f5e9" fill-opacity="0.5" stroke="#606060" stroke-width="1.0"/>
   <path id="arrow"
     d="M 11.500037,31.436501 C 11.940474,20.09759 22.043105,11.32322 32.158766,21.979434 L 37.068811,17.246167 C 37.068811,17.246167 37.088388,32 37.088388,32 L 22.160133,31.978069 C 22.160133,31.978069 26.997745,27.140456 26.997745,27.140456 C 18.528582,18.264221 13.291696,25.230495 11.500037,31.436501 z"
     style="fill:#404040;"/>
  </a>
 </g>
</svg>

<style type='text/css'>
<![CDATA[
[data-mouse-over-selected='false'] { opacity: 0.7; }
[data-mouse-over-selected='true']  { opacity: 1.0; }
]]>
</style>
<script type="application/ecmascript"><![CDATA[
document.addEventListener('DOMContentLoaded', (event) => {
  highlightEdges();
  highlightAdjacentNodes();
});
]]></script>
</svg>
