<?xml version="1.0" encoding="UTF-8" standalone="no"?>
<!DOCTYPE svg PUBLIC "-//W3C//DTD SVG 1.1//EN"
 "http://www.w3.org/Graphics/SVG/1.1/DTD/svg11.dtd">
<!-- Generated by graphviz version 2.43.0 (0)
 -->
<!-- Title: src/engine/Matrix.h Pages: 1 -->
<!--zoomable 159 -->

<svg id="main" version="1.1" xmlns="http://www.w3.org/2000/svg" xmlns:xlink="http://www.w3.org/1999/xlink" xml:space="preserve" onload="init(evt)">

<style type="text/css"><![CDATA[
.node, .edge {opacity: 0.7;}
.node.selected, .edge.selected {opacity: 1;}
.edge:hover path { stroke: red; }
.edge:hover polygon { stroke: red; fill: red; }
]]></style>

<defs>
  <circle id="rim" cx="0" cy="0" r="7"/>
  <circle id="rim2" cx="0" cy="0" r="3.5"/>
  <g id="zoomPlus">
    <use xlink:href="#rim" fill="#404040"><set attributeName="fill" to="#808080" begin="zoomplus.mouseover" end="zoomplus.mouseout"/></use>
    <path d="M-4,0h8M0,-4v8" fill="none" stroke="white" stroke-width="1.5" pointer-events="none"/>
  </g>
  <g id="zoomMin">
    <use xlink:href="#rim" fill="#404040"><set attributeName="fill" to="#808080" begin="zoomminus.mouseover" end="zoomminus.mouseout"/></use>
    <path d="M-4,0h8" fill="none" stroke="white" stroke-width="1.5" pointer-events="none"/>
  </g>
  <g id="arrowUp" transform="translate(30 24)">
    <use xlink:href="#rim"/>
    <path pointer-events="none" fill="none" stroke="white" stroke-width="1.5" d="M0,-3.0v7 M-2.5,-0.5L0,-3.0L2.5,-0.5"/>
  </g>
  <g id="arrowRight" transform="rotate(90) translate(36 -43)">
    <use xlink:href="#rim"/>
    <path pointer-events="none" fill="none" stroke="white" stroke-width="1.5" d="M0,-3.0v7 M-2.5,-0.5L0,-3.0L2.5,-0.5"/>
  </g>
  <g id="arrowDown" transform="rotate(180) translate(-30 -48)">
    <use xlink:href="#rim"/>
    <path pointer-events="none" fill="none" stroke="white" stroke-width="1.5" d="M0,-3.0v7 M-2.5,-0.5L0,-3.0L2.5,-0.5"/>
  </g>
  <g id="arrowLeft" transform="rotate(270) translate(-36 17)">
    <use xlink:href="#rim"/>
    <path pointer-events="none" fill="none" stroke="white" stroke-width="1.5" d="M0,-3.0v7 M-2.5,-0.5L0,-3.0L2.5,-0.5"/>
  </g>
  <g id="resetDef">
    <use xlink:href="#rim2" fill="#404040"><set attributeName="fill" to="#808080" begin="reset.mouseover" end="reset.mouseout"/></use>
  </g>
</defs>
<script type="application/ecmascript">
var viewWidth = 4715;
var viewHeight = 159;
var sectionId = 'dynsection-1';
</script>
<script type="application/ecmascript" xlink:href="svg.min.js"/>
<svg id="graph" class="graph">
<g id="viewport">
<title>src/engine/Matrix.h</title>
<!-- Node1 -->
<g id="Node000001" class="node">
<title>Node1</title>
<g id="a_Node000001"><a xlink:title=" ">
<polygon fill="#999999" stroke="#666666" points="2667,-151 2557,-151 2557,-132 2667,-132 2667,-151"/>
<text text-anchor="middle" x="2612" y="-139" font-family="Helvetica,sans-Serif" font-size="10.00">src/engine/Matrix.h</text>
</a>
</g>
</g>
<!-- Node2 -->
<g id="Node000002" class="node">
<title>Node2</title>
<g id="a_Node000002"><a xlink:href="animation_8c.html" target="_top" xlink:title=" ">
<polygon fill="white" stroke="#666666" points="92,-90.5 0,-90.5 0,-71.5 92,-71.5 92,-90.5"/>
<text text-anchor="middle" x="46" y="-78.5" font-family="Helvetica,sans-Serif" font-size="10.00">src/animation.c</text>
</a>
</g>
</g>
<!-- Node1&#45;&gt;Node2 -->
<g id="edge1_Node000001_Node000002" class="edge">
<title>Node1&#45;&gt;Node2</title>
<g id="a_edge1_Node000001_Node000002"><a xlink:title=" ">
<path fill="none" stroke="#63b8ff" d="M2546.81,-140.25C2176.89,-138.69 349.38,-129.35 101,-96 92.21,-94.82 82.8,-92.74 74.3,-90.54"/>
<polygon fill="#63b8ff" stroke="#63b8ff" points="2546.8,-143.75 2556.82,-140.29 2546.83,-136.75 2546.8,-143.75"/>
</a>
</g>
</g>
<!-- Node3 -->
<g id="Node000003" class="node">
<title>Node3</title>
<g id="a_Node000003"><a xlink:href="code__80057C60_8c.html" target="_top" xlink:title=" ">
<polygon fill="white" stroke="#666666" points="229.5,-90.5 110.5,-90.5 110.5,-71.5 229.5,-71.5 229.5,-90.5"/>
<text text-anchor="middle" x="170" y="-78.5" font-family="Helvetica,sans-Serif" font-size="10.00">src/code_80057C60.c</text>
</a>
</g>
</g>
<!-- Node1&#45;&gt;Node3 -->
<g id="edge2_Node000001_Node000003" class="edge">
<title>Node1&#45;&gt;Node3</title>
<g id="a_edge2_Node000001_Node000003"><a xlink:title=" ">
<path fill="none" stroke="#63b8ff" d="M2546.72,-140C2188.85,-137.13 472.67,-122.13 238,-96 227.22,-94.8 215.61,-92.71 205.1,-90.51"/>
<polygon fill="#63b8ff" stroke="#63b8ff" points="2546.88,-143.5 2556.91,-140.08 2546.93,-136.5 2546.88,-143.5"/>
</a>
</g>
</g>
<!-- Node4 -->
<g id="Node000004" class="node">
<title>Node4</title>
<g id="a_Node000004"><a xlink:href="code__80280000_8c.html" target="_top" xlink:title=" ">
<polygon fill="white" stroke="#666666" points="402.5,-90.5 247.5,-90.5 247.5,-71.5 402.5,-71.5 402.5,-90.5"/>
<text text-anchor="middle" x="325" y="-78.5" font-family="Helvetica,sans-Serif" font-size="10.00">src/ending/code_80280000.c</text>
</a>
</g>
</g>
<!-- Node1&#45;&gt;Node4 -->
<g id="edge3_Node000001_Node000004" class="edge">
<title>Node1&#45;&gt;Node4</title>
<g id="a_edge3_Node000001_Node000004"><a xlink:title=" ">
<path fill="none" stroke="#63b8ff" d="M2546.37,-140.42C2227.88,-139.86 841.21,-135.17 411,-96 397.59,-94.78 383.11,-92.72 369.93,-90.54"/>
<polygon fill="#63b8ff" stroke="#63b8ff" points="2546.8,-143.92 2556.8,-140.44 2546.81,-136.92 2546.8,-143.92"/>
</a>
</g>
</g>
<!-- Node5 -->
<g id="Node000005" class="node">
<title>Node5</title>
<g id="a_Node000005"><a xlink:href="code__80281C40_8c.html" target="_top" xlink:title=" ">
<polygon fill="white" stroke="#666666" points="575.5,-90.5 420.5,-90.5 420.5,-71.5 575.5,-71.5 575.5,-90.5"/>
<text text-anchor="middle" x="498" y="-78.5" font-family="Helvetica,sans-Serif" font-size="10.00">src/ending/code_80281C40.c</text>
</a>
</g>
</g>
<!-- Node1&#45;&gt;Node5 -->
<g id="edge4_Node000001_Node000005" class="edge">
<title>Node1&#45;&gt;Node5</title>
<g id="a_edge4_Node000001_Node000005"><a xlink:title=" ">
<path fill="none" stroke="#63b8ff" d="M2546.18,-140.29C2242.87,-139.14 978.02,-132.22 584,-96 570.59,-94.77 556.11,-92.7 542.93,-90.53"/>
<polygon fill="#63b8ff" stroke="#63b8ff" points="2546.54,-143.79 2556.56,-140.33 2546.57,-136.79 2546.54,-143.79"/>
</a>
</g>
</g>
<!-- Node6 -->
<g id="Node000006" class="node">
<title>Node6</title>
<g id="a_Node000006"><a xlink:href="podium__ceremony__actors_8c.html" target="_top" xlink:title=" ">
<polygon fill="white" stroke="#666666" points="754.5,-96 593.5,-96 593.5,-66 754.5,-66 754.5,-96"/>
<text text-anchor="start" x="601.5" y="-84" font-family="Helvetica,sans-Serif" font-size="10.00">src/ending/podium_ceremony</text>
<text text-anchor="middle" x="674" y="-73" font-family="Helvetica,sans-Serif" font-size="10.00">_actors.c</text>
</a>
</g>
</g>
<!-- Node1&#45;&gt;Node6 -->
<g id="edge5_Node000001_Node000006" class="edge">
<title>Node1&#45;&gt;Node6</title>
<g id="a_edge5_Node000001_Node000006"><a xlink:title=" ">
<path fill="none" stroke="#63b8ff" d="M2546.45,-140.08C2260.42,-138.09 1119.96,-128.23 763,-96 760.35,-95.76 757.66,-95.49 754.95,-95.2"/>
<polygon fill="#63b8ff" stroke="#63b8ff" points="2546.64,-143.58 2556.66,-140.15 2546.69,-136.59 2546.64,-143.58"/>
</a>
</g>
</g>
<!-- Node7 -->
<g id="Node000007" class="node">
<title>Node7</title>
<g id="a_Node000007"><a xlink:href="Actor_8cpp.html" target="_top" xlink:title=" ">
<polygon fill="white" stroke="#666666" points="887.5,-90.5 772.5,-90.5 772.5,-71.5 887.5,-71.5 887.5,-90.5"/>
<text text-anchor="middle" x="830" y="-78.5" font-family="Helvetica,sans-Serif" font-size="10.00">src/engine/Actor.cpp</text>
</a>
</g>
</g>
<!-- Node1&#45;&gt;Node7 -->
<g id="edge6_Node000001_Node000007" class="edge">
<title>Node1&#45;&gt;Node7</title>
<g id="a_edge6_Node000001_Node000007"><a xlink:title=" ">
<path fill="none" stroke="#63b8ff" d="M2546.73,-140.38C2274.12,-139.63 1225.42,-134.26 897,-96 886.5,-94.78 875.2,-92.71 864.93,-90.54"/>
<polygon fill="#63b8ff" stroke="#63b8ff" points="2546.85,-143.88 2556.86,-140.4 2546.87,-136.88 2546.85,-143.88"/>
</a>
</g>
</g>
<!-- Node8 -->
<g id="Node000008" class="node">
<title>Node8</title>
<g id="a_Node000008"><a xlink:href="HM__Intro_8cpp.html" target="_top" xlink:title=" ">
<polygon fill="white" stroke="#666666" points="1040,-90.5 906,-90.5 906,-71.5 1040,-71.5 1040,-90.5"/>
<text text-anchor="middle" x="973" y="-78.5" font-family="Helvetica,sans-Serif" font-size="10.00">src/engine/HM_Intro.cpp</text>
</a>
</g>
</g>
<!-- Node1&#45;&gt;Node8 -->
<g id="edge7_Node000001_Node000008" class="edge">
<title>Node1&#45;&gt;Node8</title>
<g id="a_edge7_Node000001_Node000008"><a xlink:title=" ">
<path fill="none" stroke="#63b8ff" d="M2546.28,-139.98C2288.53,-137.71 1346.22,-127.42 1049,-96 1037.26,-94.76 1024.61,-92.72 1013.06,-90.57"/>
<polygon fill="#63b8ff" stroke="#63b8ff" points="2546.57,-143.48 2556.6,-140.07 2546.63,-136.48 2546.57,-143.48"/>
</a>
</g>
</g>
<!-- Node9 -->
<g id="Node000009" class="node">
<title>Node9</title>
<g id="a_Node000009"><a xlink:href="PlayerBombKart_8cpp.html" target="_top" xlink:title=" ">
<polygon fill="white" stroke="#666666" points="1228,-90.5 1058,-90.5 1058,-71.5 1228,-71.5 1228,-90.5"/>
<text text-anchor="middle" x="1143" y="-78.5" font-family="Helvetica,sans-Serif" font-size="10.00">src/engine/PlayerBombKart.cpp</text>
</a>
</g>
</g>
<!-- Node1&#45;&gt;Node9 -->
<g id="edge8_Node000001_Node000009" class="edge">
<title>Node1&#45;&gt;Node9</title>
<g id="a_edge8_Node000001_Node000009"><a xlink:title=" ">
<path fill="none" stroke="#63b8ff" d="M2546.62,-141.06C2348.81,-142.17 1739.43,-141.39 1237,-96 1222.7,-94.71 1207.27,-92.68 1193.12,-90.56"/>
<polygon fill="#63b8ff" stroke="#63b8ff" points="2546.87,-144.56 2556.84,-141 2546.82,-137.56 2546.87,-144.56"/>
</a>
</g>
</g>
<!-- Node10 -->
<g id="Node000010" class="node">
<title>Node10</title>
<g id="a_Node000010"><a xlink:href="StaticMeshActor_8cpp.html" target="_top" xlink:title=" ">
<polygon fill="white" stroke="#666666" points="1415.5,-90.5 1246.5,-90.5 1246.5,-71.5 1415.5,-71.5 1415.5,-90.5"/>
<text text-anchor="middle" x="1331" y="-78.5" font-family="Helvetica,sans-Serif" font-size="10.00">src/engine/StaticMeshActor.cpp</text>
</a>
</g>
</g>
<!-- Node1&#45;&gt;Node10 -->
<g id="edge9_Node000001_Node000010" class="edge">
<title>Node1&#45;&gt;Node10</title>
<g id="a_edge9_Node000001_Node000010"><a xlink:title=" ">
<path fill="none" stroke="#63b8ff" d="M2546.77,-140.58C2367.37,-140.25 1851.52,-135.64 1425,-96 1410.71,-94.67 1395.27,-92.63 1381.12,-90.51"/>
<polygon fill="#63b8ff" stroke="#63b8ff" points="2546.83,-144.08 2556.84,-140.59 2546.84,-137.08 2546.83,-144.08"/>
</a>
</g>
</g>
<!-- Node11 -->
<g id="Node000011" class="node">
<title>Node11</title>
<g id="a_Node000011"><a xlink:href="Ship_8cpp.html" target="_top" xlink:title=" ">
<polygon fill="white" stroke="#666666" points="1578,-90.5 1434,-90.5 1434,-71.5 1578,-71.5 1578,-90.5"/>
<text text-anchor="middle" x="1506" y="-78.5" font-family="Helvetica,sans-Serif" font-size="10.00">src/engine/actors/Ship.cpp</text>
</a>
</g>
</g>
<!-- Node1&#45;&gt;Node11 -->
<g id="edge10_Node000001_Node000011" class="edge">
<title>Node1&#45;&gt;Node11</title>
<g id="a_edge10_Node000001_Node000011"><a xlink:title=" ">
<path fill="none" stroke="#63b8ff" d="M2546.49,-140.55C2383.69,-140.05 1947.88,-134.86 1587,-96 1574.66,-94.67 1561.35,-92.63 1549.15,-90.51"/>
<polygon fill="#63b8ff" stroke="#63b8ff" points="2546.8,-144.05 2556.81,-140.58 2546.82,-137.05 2546.8,-144.05"/>
</a>
</g>
</g>
<!-- Node12 -->
<g id="Node000012" class="node">
<title>Node12</title>
<g id="a_Node000012"><a xlink:href="SpaghettiShip_8cpp.html" target="_top" xlink:title=" ">
<polygon fill="white" stroke="#666666" points="1745.5,-96 1596.5,-96 1596.5,-66 1745.5,-66 1745.5,-96"/>
<text text-anchor="start" x="1604.5" y="-84" font-family="Helvetica,sans-Serif" font-size="10.00">src/engine/actors/Spaghetti</text>
<text text-anchor="middle" x="1671" y="-73" font-family="Helvetica,sans-Serif" font-size="10.00">Ship.cpp</text>
</a>
</g>
</g>
<!-- Node1&#45;&gt;Node12 -->
<g id="edge11_Node000001_Node000012" class="edge">
<title>Node1&#45;&gt;Node12</title>
<g id="a_edge11_Node000001_Node000012"><a xlink:title=" ">
<path fill="none" stroke="#63b8ff" d="M2546.47,-139.67C2402.61,-137.3 2048.54,-128.37 1754,-96 1751.24,-95.7 1748.43,-95.36 1745.6,-95"/>
<polygon fill="#63b8ff" stroke="#63b8ff" points="2546.81,-143.18 2556.87,-139.84 2546.92,-136.18 2546.81,-143.18"/>
</a>
</g>
</g>
<!-- Node13 -->
<g id="Node000013" class="node">
<title>Node13</title>
<g id="a_Node000013"><a xlink:href="Starship_8cpp.html" target="_top" xlink:title=" ">
<polygon fill="white" stroke="#666666" points="1926.5,-90.5 1763.5,-90.5 1763.5,-71.5 1926.5,-71.5 1926.5,-90.5"/>
<text text-anchor="middle" x="1845" y="-78.5" font-family="Helvetica,sans-Serif" font-size="10.00">src/engine/actors/Starship.cpp</text>
</a>
</g>
</g>
<!-- Node1&#45;&gt;Node13 -->
<g id="edge12_Node000001_Node000013" class="edge">
<title>Node1&#45;&gt;Node13</title>
<g id="a_edge12_Node000001_Node000013"><a xlink:title=" ">
<path fill="none" stroke="#63b8ff" d="M2546.35,-138.12C2425.23,-133.3 2158.54,-120.68 1935,-96 1921.95,-94.56 1907.91,-92.58 1894.88,-90.57"/>
<polygon fill="#63b8ff" stroke="#63b8ff" points="2546.44,-141.63 2556.57,-138.52 2546.71,-134.63 2546.44,-141.63"/>
</a>
</g>
</g>
<!-- Node14 -->
<g id="Node000014" class="node">
<title>Node14</title>
<g id="a_Node000014"><a xlink:href="Text_8cpp.html" target="_top" xlink:title=" ">
<polygon fill="white" stroke="#666666" points="2087.5,-90.5 1944.5,-90.5 1944.5,-71.5 2087.5,-71.5 2087.5,-90.5"/>
<text text-anchor="middle" x="2016" y="-78.5" font-family="Helvetica,sans-Serif" font-size="10.00">src/engine/actors/Text.cpp</text>
</a>
</g>
</g>
<!-- Node1&#45;&gt;Node14 -->
<g id="edge13_Node000001_Node000014" class="edge">
<title>Node1&#45;&gt;Node14</title>
<g id="a_edge13_Node000001_Node000014"><a xlink:title=" ">
<path fill="none" stroke="#63b8ff" d="M2546.92,-136.66C2449.03,-130.47 2258.17,-116.85 2097,-96 2085.39,-94.5 2072.91,-92.52 2061.31,-90.53"/>
<polygon fill="#63b8ff" stroke="#63b8ff" points="2546.76,-140.15 2556.96,-137.28 2547.2,-133.17 2546.76,-140.15"/>
</a>
</g>
</g>
<!-- Node15 -->
<g id="Node000015" class="node">
<title>Node15</title>
<g id="a_Node000015"><a xlink:href="Collision_8cpp.html" target="_top" xlink:title=" ">
<polygon fill="white" stroke="#666666" points="2270,-90.5 2106,-90.5 2106,-71.5 2270,-71.5 2270,-90.5"/>
<text text-anchor="middle" x="2188" y="-78.5" font-family="Helvetica,sans-Serif" font-size="10.00">src/engine/editor/Collision.cpp</text>
</a>
</g>
</g>
<!-- Node1&#45;&gt;Node15 -->
<g id="edge14_Node000001_Node000015" class="edge">
<title>Node1&#45;&gt;Node15</title>
<g id="a_edge14_Node000001_Node000015"><a xlink:title=" ">
<path fill="none" stroke="#63b8ff" d="M2546.85,-132.18C2479.68,-123.51 2371.94,-109.36 2279,-96 2267.13,-94.29 2254.41,-92.39 2242.35,-90.54"/>
<polygon fill="#63b8ff" stroke="#63b8ff" points="2546.5,-135.66 2556.86,-133.47 2547.39,-128.72 2546.5,-135.66"/>
</a>
</g>
</g>
<!-- Node16 -->
<g id="Node000016" class="node">
<title>Node16</title>
<g id="a_Node000016"><a xlink:href="Gizmo_8cpp.html" target="_top" xlink:title=" ">
<polygon fill="white" stroke="#666666" points="2441.5,-90.5 2288.5,-90.5 2288.5,-71.5 2441.5,-71.5 2441.5,-90.5"/>
<text text-anchor="middle" x="2365" y="-78.5" font-family="Helvetica,sans-Serif" font-size="10.00">src/engine/editor/Gizmo.cpp</text>
</a>
</g>
</g>
<!-- Node1&#45;&gt;Node16 -->
<g id="edge15_Node000001_Node000016" class="edge">
<title>Node1&#45;&gt;Node16</title>
<g id="a_edge15_Node000001_Node000016"><a xlink:title=" ">
<path fill="none" stroke="#63b8ff" d="M2566.32,-129.68C2518.59,-118.38 2444.7,-100.88 2400.96,-90.52"/>
<polygon fill="#63b8ff" stroke="#63b8ff" points="2565.55,-133.09 2576.08,-131.99 2567.16,-126.28 2565.55,-133.09"/>
</a>
</g>
</g>
<!-- Node17 -->
<g id="Node000017" class="node">
<title>Node17</title>
<g id="a_Node000017"><a xlink:href="Light_8cpp.html" target="_top" xlink:title=" ">
<polygon fill="white" stroke="#666666" points="2606,-90.5 2460,-90.5 2460,-71.5 2606,-71.5 2606,-90.5"/>
<text text-anchor="middle" x="2533" y="-78.5" font-family="Helvetica,sans-Serif" font-size="10.00">src/engine/editor/Light.cpp</text>
</a>
</g>
</g>
<!-- Node1&#45;&gt;Node17 -->
<g id="edge16_Node000001_Node000017" class="edge">
<title>Node1&#45;&gt;Node17</title>
<g id="a_edge16_Node000001_Node000017"><a xlink:title=" ">
<path fill="none" stroke="#63b8ff" d="M2592.21,-125.85C2577.25,-114.77 2557.21,-99.93 2544.7,-90.67"/>
<polygon fill="#63b8ff" stroke="#63b8ff" points="2590.22,-128.73 2600.34,-131.87 2594.39,-123.1 2590.22,-128.73"/>
</a>
</g>
</g>
<!-- Node18 -->
<g id="Node000018" class="node">
<title>Node18</title>
<g id="a_Node000018"><a xlink:href="ObjectPicker_8h.html" target="_top" xlink:title=" ">
<polygon fill="white" stroke="#666666" points="2757.5,-96 2624.5,-96 2624.5,-66 2757.5,-66 2757.5,-96"/>
<text text-anchor="start" x="2632.5" y="-84" font-family="Helvetica,sans-Serif" font-size="10.00">src/engine/editor/Object</text>
<text text-anchor="middle" x="2691" y="-73" font-family="Helvetica,sans-Serif" font-size="10.00">Picker.h</text>
</a>
</g>
</g>
<!-- Node1&#45;&gt;Node18 -->
<g id="edge17_Node000001_Node000018" class="edge">
<title>Node1&#45;&gt;Node18</title>
<g id="a_edge17_Node000001_Node000018"><a xlink:title=" ">
<path fill="none" stroke="#63b8ff" d="M2631.9,-125.77C2644.17,-116.68 2659.82,-105.09 2671.94,-96.11"/>
<polygon fill="#63b8ff" stroke="#63b8ff" points="2629.61,-123.1 2623.66,-131.87 2633.78,-128.73 2629.61,-123.1"/>
</a>
</g>
</g>
<!-- Node20 -->
<g id="Node000020" class="node">
<title>Node20</title>
<g id="a_Node000020"><a xlink:href="BombKart_8cpp.html" target="_top" xlink:title=" ">
<polygon fill="white" stroke="#666666" points="1963.5,-30 1858.5,-30 1858.5,0 1963.5,0 1963.5,-30"/>
<text text-anchor="start" x="1866.5" y="-18" font-family="Helvetica,sans-Serif" font-size="10.00">src/engine/objects</text>
<text text-anchor="middle" x="1911" y="-7" font-family="Helvetica,sans-Serif" font-size="10.00">/BombKart.cpp</text>
</a>
</g>
</g>
<!-- Node1&#45;&gt;Node20 -->
<g id="edge19_Node000001_Node000020" class="edge">
<title>Node1&#45;&gt;Node20</title>
<g id="a_edge19_Node000001_Node000020"><a xlink:title=" ">
<path fill="none" stroke="#63b8ff" d="M2677.07,-131.1C2732.9,-120.49 2799.6,-100.11 2767,-66 2736.49,-34.08 2016.76,-35.89 1973,-30 1969.94,-29.59 1966.8,-29.1 1963.65,-28.55"/>
<polygon fill="#63b8ff" stroke="#63b8ff" points="2676.36,-127.67 2667.15,-132.91 2677.62,-134.56 2676.36,-127.67"/>
</a>
</g>
</g>
<!-- Node21 -->
<g id="Node000021" class="node">
<title>Node21</title>
<g id="a_Node000021"><a xlink:href="BombKart_8h.html" target="_top" xlink:title=" ">
<polygon fill="#fff0f0" stroke="red" points="2919.5,-96 2814.5,-96 2814.5,-66 2919.5,-66 2919.5,-96"/>
<text text-anchor="start" x="2822.5" y="-84" font-family="Helvetica,sans-Serif" font-size="10.00">src/engine/objects</text>
<text text-anchor="middle" x="2867" y="-73" font-family="Helvetica,sans-Serif" font-size="10.00">/BombKart.h</text>
</a>
</g>
</g>
<!-- Node1&#45;&gt;Node21 -->
<g id="edge20_Node000001_Node000021" class="edge">
<title>Node1&#45;&gt;Node21</title>
<g id="a_edge20_Node000001_Node000021"><a xlink:title=" ">
<path fill="none" stroke="#63b8ff" d="M2658.95,-129.73C2702.94,-119.64 2768.61,-104.57 2814.37,-94.07"/>
<polygon fill="#63b8ff" stroke="#63b8ff" points="2658.04,-126.35 2649.08,-131.99 2659.61,-133.17 2658.04,-126.35"/>
</a>
</g>
</g>
<!-- Node53 -->
<g id="Node000053" class="node">
<title>Node53</title>
<g id="a_Node000053"><a xlink:href="Trophy_8cpp.html" target="_top" xlink:title=" ">
<polygon fill="white" stroke="#666666" points="3042.5,-96 2937.5,-96 2937.5,-66 3042.5,-66 3042.5,-96"/>
<text text-anchor="start" x="2945.5" y="-84" font-family="Helvetica,sans-Serif" font-size="10.00">src/engine/objects</text>
<text text-anchor="middle" x="2990" y="-73" font-family="Helvetica,sans-Serif" font-size="10.00">/Trophy.cpp</text>
</a>
</g>
</g>
<!-- Node1&#45;&gt;Node53 -->
<g id="edge38_Node000001_Node000053" class="edge">
<title>Node1&#45;&gt;Node53</title>
<g id="a_edge38_Node000001_Node000053"><a xlink:title=" ">
<path fill="none" stroke="#63b8ff" d="M2677.2,-133.01C2741.48,-125.24 2842.37,-111.99 2929,-96 2931.78,-95.49 2934.62,-94.93 2937.49,-94.35"/>
<polygon fill="#63b8ff" stroke="#63b8ff" points="2676.72,-129.55 2667.21,-134.21 2677.56,-136.5 2676.72,-129.55"/>
</a>
</g>
</g>
<!-- Node54 -->
<g id="Node000054" class="node">
<title>Node54</title>
<g id="a_Node000054"><a xlink:href="collision__viewer_8c.html" target="_top" xlink:title=" ">
<polygon fill="white" stroke="#666666" points="3209.5,-96 3060.5,-96 3060.5,-66 3209.5,-66 3209.5,-96"/>
<text text-anchor="start" x="3068.5" y="-84" font-family="Helvetica,sans-Serif" font-size="10.00">src/enhancements/collision</text>
<text text-anchor="middle" x="3135" y="-73" font-family="Helvetica,sans-Serif" font-size="10.00">_viewer.c</text>
</a>
</g>
</g>
<!-- Node1&#45;&gt;Node54 -->
<g id="edge39_Node000001_Node000054" class="edge">
<title>Node1&#45;&gt;Node54</title>
<g id="a_edge39_Node000001_Node000054"><a xlink:title=" ">
<path fill="none" stroke="#63b8ff" d="M2677.15,-135.27C2763.18,-128.05 2919.29,-113.88 3052,-96 3054.75,-95.63 3057.55,-95.24 3060.38,-94.83"/>
<polygon fill="#63b8ff" stroke="#63b8ff" points="2676.69,-131.8 2667.01,-136.12 2677.27,-138.77 2676.69,-131.8"/>
</a>
</g>
</g>
<!-- Node55 -->
<g id="Node000055" class="node">
<title>Node55</title>
<g id="a_Node000055"><a xlink:href="freecam_8cpp.html" target="_top" xlink:title=" ">
<polygon fill="white" stroke="#666666" points="3376.5,-96 3227.5,-96 3227.5,-66 3376.5,-66 3376.5,-96"/>
<text text-anchor="start" x="3235.5" y="-84" font-family="Helvetica,sans-Serif" font-size="10.00">src/enhancements/freecam</text>
<text text-anchor="middle" x="3302" y="-73" font-family="Helvetica,sans-Serif" font-size="10.00">/freecam.cpp</text>
</a>
</g>
</g>
<!-- Node1&#45;&gt;Node55 -->
<g id="edge40_Node000001_Node000055" class="edge">
<title>Node1&#45;&gt;Node55</title>
<g id="a_edge40_Node000001_Node000055"><a xlink:title=" ">
<path fill="none" stroke="#63b8ff" d="M2677.48,-137.72C2788.97,-132.53 3022.67,-119.7 3219,-96 3221.76,-95.67 3224.56,-95.31 3227.39,-94.92"/>
<polygon fill="#63b8ff" stroke="#63b8ff" points="2677.23,-134.23 2667.41,-138.18 2677.56,-141.22 2677.23,-134.23"/>
</a>
</g>
</g>
<!-- Node56 -->
<g id="Node000056" class="node">
<title>Node56</title>
<g id="a_Node000056"><a xlink:href="main_8c.html" target="_top" xlink:title=" ">
<polygon fill="white" stroke="#666666" points="3461.5,-90.5 3394.5,-90.5 3394.5,-71.5 3461.5,-71.5 3461.5,-90.5"/>
<text text-anchor="middle" x="3428" y="-78.5" font-family="Helvetica,sans-Serif" font-size="10.00">src/main.c</text>
</a>
</g>
</g>
<!-- Node1&#45;&gt;Node56 -->
<g id="edge41_Node000001_Node000056" class="edge">
<title>Node1&#45;&gt;Node56</title>
<g id="a_edge41_Node000001_Node000056"><a xlink:title=" ">
<path fill="none" stroke="#63b8ff" d="M2677.51,-138.96C2838.66,-134.8 3251,-121.91 3386,-96 3392.64,-94.73 3399.68,-92.67 3406.06,-90.53"/>
<polygon fill="#63b8ff" stroke="#63b8ff" points="2677.18,-135.46 2667.27,-139.22 2677.35,-142.46 2677.18,-135.46"/>
</a>
</g>
</g>
<!-- Node57 -->
<g id="Node000057" class="node">
<title>Node57</title>
<g id="a_Node000057"><a xlink:href="math__util__2_8c.html" target="_top" xlink:title=" ">
<polygon fill="white" stroke="#666666" points="3580,-90.5 3480,-90.5 3480,-71.5 3580,-71.5 3580,-90.5"/>
<text text-anchor="middle" x="3530" y="-78.5" font-family="Helvetica,sans-Serif" font-size="10.00">src/math_util_2.c</text>
</a>
</g>
</g>
<!-- Node1&#45;&gt;Node57 -->
<g id="edge42_Node000001_Node000057" class="edge">
<title>Node1&#45;&gt;Node57</title>
<g id="a_edge42_Node000001_Node000057"><a xlink:title=" ">
<path fill="none" stroke="#63b8ff" d="M2677.53,-141.14C2821.75,-141.66 3177.17,-138.12 3471,-96 3480.07,-94.7 3489.78,-92.67 3498.66,-90.55"/>
<polygon fill="#63b8ff" stroke="#63b8ff" points="2677.12,-137.64 2667.1,-141.09 2677.09,-144.64 2677.12,-137.64"/>
</a>
</g>
</g>
<!-- Node58 -->
<g id="Node000058" class="node">
<title>Node58</title>
<g id="a_Node000058"><a xlink:href="menu__items_8c.html" target="_top" xlink:title=" ">
<polygon fill="white" stroke="#666666" points="3701.5,-90.5 3598.5,-90.5 3598.5,-71.5 3701.5,-71.5 3701.5,-90.5"/>
<text text-anchor="middle" x="3650" y="-78.5" font-family="Helvetica,sans-Serif" font-size="10.00">src/menu_items.c</text>
</a>
</g>
</g>
<!-- Node1&#45;&gt;Node58 -->
<g id="edge43_Node000001_Node000058" class="edge">
<title>Node1&#45;&gt;Node58</title>
<g id="a_edge43_Node000001_Node000058"><a xlink:title=" ">
<path fill="none" stroke="#63b8ff" d="M2677.16,-139.06C2866.11,-134.66 3412.03,-120.14 3589,-96 3598.47,-94.71 3608.64,-92.65 3617.91,-90.5"/>
<polygon fill="#63b8ff" stroke="#63b8ff" points="2677.02,-135.57 2667.1,-139.3 2677.18,-142.56 2677.02,-135.57"/>
</a>
</g>
</g>
<!-- Node59 -->
<g id="Node000059" class="node">
<title>Node59</title>
<g id="a_Node000059"><a xlink:href="player__controller_8c.html" target="_top" xlink:title=" ">
<polygon fill="white" stroke="#666666" points="3844,-90.5 3720,-90.5 3720,-71.5 3844,-71.5 3844,-90.5"/>
<text text-anchor="middle" x="3782" y="-78.5" font-family="Helvetica,sans-Serif" font-size="10.00">src/player_controller.c</text>
</a>
</g>
</g>
<!-- Node1&#45;&gt;Node59 -->
<g id="edge44_Node000001_Node000059" class="edge">
<title>Node1&#45;&gt;Node59</title>
<g id="a_edge44_Node000001_Node000059"><a xlink:title=" ">
<path fill="none" stroke="#63b8ff" d="M2677.38,-139.18C2882.07,-134.83 3508.99,-119.86 3711,-96 3721.85,-94.72 3733.53,-92.69 3744.22,-90.57"/>
<polygon fill="#63b8ff" stroke="#63b8ff" points="2677.01,-135.68 2667.09,-139.39 2677.16,-142.68 2677.01,-135.68"/>
</a>
</g>
</g>
<!-- Node60 -->
<g id="Node000060" class="node">
<title>Node60</title>
<g id="a_Node000060"><a xlink:href="FrameInterpolation_8cpp.html" target="_top" xlink:title=" ">
<polygon fill="white" stroke="#666666" points="3995.5,-96 3862.5,-96 3862.5,-66 3995.5,-66 3995.5,-96"/>
<text text-anchor="start" x="3870.5" y="-84" font-family="Helvetica,sans-Serif" font-size="10.00">src/port/interpolation</text>
<text text-anchor="middle" x="3929" y="-73" font-family="Helvetica,sans-Serif" font-size="10.00">/FrameInterpolation.cpp</text>
</a>
</g>
</g>
<!-- Node1&#45;&gt;Node60 -->
<g id="edge45_Node000001_Node000060" class="edge">
<title>Node1&#45;&gt;Node60</title>
<g id="a_edge45_Node000001_Node000060"><a xlink:title=" ">
<path fill="none" stroke="#63b8ff" d="M2677.39,-139.42C2899.19,-135.56 3621.87,-121.3 3853,-96 3856.07,-95.66 3859.2,-95.28 3862.35,-94.85"/>
<polygon fill="#63b8ff" stroke="#63b8ff" points="2677.15,-135.92 2667.21,-139.6 2677.27,-142.92 2677.15,-135.92"/>
</a>
</g>
</g>
<!-- Node61 -->
<g id="Node000061" class="node">
<title>Node61</title>
<g id="a_Node000061"><a xlink:href="math__util_8c.html" target="_top" xlink:title=" ">
<polygon fill="white" stroke="#666666" points="4136,-90.5 4014,-90.5 4014,-71.5 4136,-71.5 4136,-90.5"/>
<text text-anchor="middle" x="4075" y="-78.5" font-family="Helvetica,sans-Serif" font-size="10.00">src/racing/math_util.c</text>
</a>
</g>
</g>
<!-- Node1&#45;&gt;Node61 -->
<g id="edge46_Node000001_Node000061" class="edge">
<title>Node1&#45;&gt;Node61</title>
<g id="a_edge46_Node000001_Node000061"><a xlink:title=" ">
<path fill="none" stroke="#63b8ff" d="M2677.62,-139.84C2917,-137.23 3742.98,-126.18 4005,-96 4015.83,-94.75 4027.49,-92.71 4038.13,-90.56"/>
<polygon fill="#63b8ff" stroke="#63b8ff" points="2677.3,-136.35 2667.33,-139.96 2677.37,-143.35 2677.3,-136.35"/>
</a>
</g>
</g>
<!-- Node62 -->
<g id="Node000062" class="node">
<title>Node62</title>
<g id="a_Node000062"><a xlink:href="render__courses_8c.html" target="_top" xlink:title=" ">
<polygon fill="white" stroke="#666666" points="4303.5,-90.5 4154.5,-90.5 4154.5,-71.5 4303.5,-71.5 4303.5,-90.5"/>
<text text-anchor="middle" x="4229" y="-78.5" font-family="Helvetica,sans-Serif" font-size="10.00">src/racing/render_courses.c</text>
</a>
</g>
</g>
<!-- Node1&#45;&gt;Node62 -->
<g id="edge47_Node000001_Node000062" class="edge">
<title>Node1&#45;&gt;Node62</title>
<g id="a_edge47_Node000001_Node000062"><a xlink:title=" ">
<path fill="none" stroke="#63b8ff" d="M2677.3,-139.79C2931.26,-136.84 3853.56,-124.38 4145,-96 4157.95,-94.74 4171.92,-92.69 4184.68,-90.55"/>
<polygon fill="#63b8ff" stroke="#63b8ff" points="2677.08,-136.29 2667.12,-139.91 2677.16,-143.29 2677.08,-136.29"/>
</a>
</g>
</g>
<!-- Node63 -->
<g id="Node000063" class="node">
<title>Node63</title>
<g id="a_Node000063"><a xlink:href="skybox__and__splitscreen_8c.html" target="_top" xlink:title=" ">
<polygon fill="white" stroke="#666666" points="4446.5,-96 4321.5,-96 4321.5,-66 4446.5,-66 4446.5,-96"/>
<text text-anchor="start" x="4329.5" y="-84" font-family="Helvetica,sans-Serif" font-size="10.00">src/racing/skybox_and</text>
<text text-anchor="middle" x="4384" y="-73" font-family="Helvetica,sans-Serif" font-size="10.00">_splitscreen.c</text>
</a>
</g>
</g>
<!-- Node1&#45;&gt;Node63 -->
<g id="edge48_Node000001_Node000063" class="edge">
<title>Node1&#45;&gt;Node63</title>
<g id="a_edge48_Node000001_Node000063"><a xlink:title=" ">
<path fill="none" stroke="#63b8ff" d="M2677.17,-140.26C2948.22,-139.06 3987.24,-132.12 4313,-96 4315.75,-95.7 4318.55,-95.34 4321.37,-94.94"/>
<polygon fill="#63b8ff" stroke="#63b8ff" points="2677.09,-136.76 2667.1,-140.31 2677.12,-143.76 2677.09,-136.76"/>
</a>
</g>
</g>
<!-- Node64 -->
<g id="Node000064" class="node">
<title>Node64</title>
<g id="a_Node000064"><a xlink:href="render__objects_8c.html" target="_top" xlink:title=" ">
<polygon fill="white" stroke="#666666" points="4579,-90.5 4465,-90.5 4465,-71.5 4579,-71.5 4579,-90.5"/>
<text text-anchor="middle" x="4522" y="-78.5" font-family="Helvetica,sans-Serif" font-size="10.00">src/render_objects.c</text>
</a>
</g>
</g>
<!-- Node1&#45;&gt;Node64 -->
<g id="edge49_Node000001_Node000064" class="edge">
<title>Node1&#45;&gt;Node64</title>
<g id="a_edge49_Node000001_Node000064"><a xlink:title=" ">
<path fill="none" stroke="#63b8ff" d="M2677.42,-140.54C2962.88,-140.48 4100.98,-137.57 4456,-96 4466.35,-94.79 4477.49,-92.73 4487.6,-90.55"/>
<polygon fill="#63b8ff" stroke="#63b8ff" points="2677.23,-137.04 2667.23,-140.54 2677.23,-144.04 2677.23,-137.04"/>
</a>
</g>
</g>
<!-- Node65 -->
<g id="Node000065" class="node">
<title>Node65</title>
<g id="a_Node000065"><a xlink:href="render__player_8c.html" target="_top" xlink:title=" ">
<polygon fill="white" stroke="#666666" points="4706.5,-90.5 4597.5,-90.5 4597.5,-71.5 4706.5,-71.5 4706.5,-90.5"/>
<text text-anchor="middle" x="4652" y="-78.5" font-family="Helvetica,sans-Serif" font-size="10.00">src/render_player.c</text>
</a>
</g>
</g>
<!-- Node1&#45;&gt;Node65 -->
<g id="edge50_Node000001_Node000065" class="edge">
<title>Node1&#45;&gt;Node65</title>
<g id="a_edge50_Node000001_Node000065"><a xlink:title=" ">
<path fill="none" stroke="#63b8ff" d="M2677.66,-140.72C2976,-141.47 4205.82,-141.67 4588,-96 4598.05,-94.8 4608.85,-92.74 4618.66,-90.57"/>
<polygon fill="#63b8ff" stroke="#63b8ff" points="2677.45,-137.22 2667.44,-140.7 2677.43,-144.22 2677.45,-137.22"/>
</a>
</g>
</g>
<!-- Node19 -->
<g id="Node000019" class="node">
<title>Node19</title>
<g id="a_Node000019"><a xlink:href="ObjectPicker_8cpp.html" target="_top" xlink:title=" ">
<polygon fill="white" stroke="#666666" points="1840.5,-30 1707.5,-30 1707.5,0 1840.5,0 1840.5,-30"/>
<text text-anchor="start" x="1715.5" y="-18" font-family="Helvetica,sans-Serif" font-size="10.00">src/engine/editor/Object</text>
<text text-anchor="middle" x="1774" y="-7" font-family="Helvetica,sans-Serif" font-size="10.00">Picker.cpp</text>
</a>
</g>
</g>
<!-- Node18&#45;&gt;Node19 -->
<g id="edge18_Node000018_Node000019" class="edge">
<title>Node18&#45;&gt;Node19</title>
<g id="a_edge18_Node000018_Node000019"><a xlink:title=" ">
<path fill="none" stroke="#63b8ff" d="M2614.23,-66.04C2274.65,-27.86 2184.23,-68.98 1849,-30 1846.24,-29.68 1843.42,-29.32 1840.58,-28.92"/>
<polygon fill="#63b8ff" stroke="#63b8ff" points="2614.02,-69.54 2624.35,-67.2 2614.81,-62.59 2614.02,-69.54"/>
</a>
</g>
</g>
<!-- Node21&#45;&gt;Node20 -->
<g id="edge37_Node000021_Node000020" class="edge">
<title>Node21&#45;&gt;Node20</title>
<g id="a_edge37_Node000021_Node000020"><a xlink:title=" ">
<path fill="none" stroke="#63b8ff" d="M2804.46,-66.6C2802.96,-66.38 2801.47,-66.18 2800,-66 2434.96,-20.22 2337.66,-78.71 1973,-30 1969.94,-29.59 1966.8,-29.1 1963.65,-28.56"/>
<polygon fill="#63b8ff" stroke="#63b8ff" points="2804.04,-70.08 2814.47,-68.18 2805.14,-63.16 2804.04,-70.08"/>
</a>
</g>
</g>
<!-- Node22 -->
<g id="Node000022" class="node">
<title>Node22</title>
<g id="a_Node000022"><a xlink:href="AllActors_8h.html" target="_top" xlink:title=" ">
<polygon fill="#fff0f0" stroke="red" points="2104,-24.5 1982,-24.5 1982,-5.5 2104,-5.5 2104,-24.5"/>
<text text-anchor="middle" x="2043" y="-12.5" font-family="Helvetica,sans-Serif" font-size="10.00">src/engine/AllActors.h</text>
</a>
</g>
</g>
<!-- Node21&#45;&gt;Node22 -->
<g id="edge21_Node000021_Node000022" class="edge">
<title>Node21&#45;&gt;Node22</title>
<g id="a_edge21_Node000021_Node000022"><a xlink:title=" ">
<path fill="none" stroke="#63b8ff" d="M2804.46,-66.62C2802.96,-66.4 2801.47,-66.19 2800,-66 2496.8,-26.61 2416.37,-68.08 2113,-30 2102.42,-28.67 2091.05,-26.66 2080.62,-24.57"/>
<polygon fill="#63b8ff" stroke="#63b8ff" points="2804.03,-70.09 2814.46,-68.23 2805.15,-63.18 2804.03,-70.09"/>
</a>
</g>
</g>
<!-- Node27 -->
<g id="Node000027" class="node">
<title>Node27</title>
<g id="a_Node000027"><a xlink:href="Rulesets_8cpp.html" target="_top" xlink:title=" ">
<polygon fill="white" stroke="#666666" points="2254,-24.5 2122,-24.5 2122,-5.5 2254,-5.5 2254,-24.5"/>
<text text-anchor="middle" x="2188" y="-12.5" font-family="Helvetica,sans-Serif" font-size="10.00">src/engine/Rulesets.cpp</text>
</a>
</g>
</g>
<!-- Node21&#45;&gt;Node27 -->
<g id="edge22_Node000021_Node000027" class="edge">
<title>Node21&#45;&gt;Node27</title>
<g id="a_edge22_Node000021_Node000027"><a xlink:title=" ">
<path fill="none" stroke="#63b8ff" d="M2804.46,-66.65C2802.96,-66.42 2801.47,-66.2 2800,-66 2563.02,-33.46 2500.31,-60 2263,-30 2251.83,-28.59 2239.81,-26.57 2228.73,-24.5"/>
<polygon fill="#63b8ff" stroke="#63b8ff" points="2804.02,-70.12 2814.45,-68.3 2805.16,-63.21 2804.02,-70.12"/>
</a>
</g>
</g>
<!-- Node28 -->
<g id="Node000028" class="node">
<title>Node28</title>
<g id="a_Node000028"><a xlink:href="World_8cpp.html" target="_top" xlink:title=" ">
<polygon fill="white" stroke="#666666" points="2390,-24.5 2272,-24.5 2272,-5.5 2390,-5.5 2390,-24.5"/>
<text text-anchor="middle" x="2331" y="-12.5" font-family="Helvetica,sans-Serif" font-size="10.00">src/engine/World.cpp</text>
</a>
</g>
</g>
<!-- Node21&#45;&gt;Node28 -->
<g id="edge23_Node000021_Node000028" class="edge">
<title>Node21&#45;&gt;Node28</title>
<g id="a_edge23_Node000021_Node000028"><a xlink:title=" ">
<path fill="none" stroke="#63b8ff" d="M2804.45,-66.69C2802.95,-66.45 2801.47,-66.22 2800,-66 2623.01,-39.66 2576.03,-56.08 2399,-30 2389.1,-28.54 2378.48,-26.56 2368.63,-24.54"/>
<polygon fill="#63b8ff" stroke="#63b8ff" points="2803.99,-70.16 2814.44,-68.41 2805.18,-63.26 2803.99,-70.16"/>
</a>
</g>
</g>
<!-- Node29 -->
<g id="Node000029" class="node">
<title>Node29</title>
<g id="a_Node000029"><a xlink:href="BansheeBoardwalk_8cpp.html" target="_top" xlink:title=" ">
<polygon fill="white" stroke="#666666" points="2542,-30 2408,-30 2408,0 2542,0 2542,-30"/>
<text text-anchor="start" x="2416" y="-18" font-family="Helvetica,sans-Serif" font-size="10.00">src/engine/courses</text>
<text text-anchor="middle" x="2475" y="-7" font-family="Helvetica,sans-Serif" font-size="10.00">/BansheeBoardwalk.cpp</text>
</a>
</g>
</g>
<!-- Node21&#45;&gt;Node29 -->
<g id="edge24_Node000021_Node000029" class="edge">
<title>Node21&#45;&gt;Node29</title>
<g id="a_edge24_Node000021_Node000029"><a xlink:title=" ">
<path fill="none" stroke="#63b8ff" d="M2804.43,-66.8C2802.94,-66.52 2801.46,-66.26 2800,-66 2689.89,-46.56 2661.34,-48.13 2551,-30 2548.09,-29.52 2545.11,-29.02 2542.11,-28.51"/>
<polygon fill="#63b8ff" stroke="#63b8ff" points="2803.92,-70.26 2814.39,-68.68 2805.22,-63.38 2803.92,-70.26"/>
</a>
</g>
</g>
<!-- Node30 -->
<g id="Node000030" class="node">
<title>Node30</title>
<g id="a_Node000030"><a xlink:href="BigDonut_8cpp.html" target="_top" xlink:title=" ">
<polygon fill="white" stroke="#666666" points="2667.5,-30 2560.5,-30 2560.5,0 2667.5,0 2667.5,-30"/>
<text text-anchor="start" x="2568.5" y="-18" font-family="Helvetica,sans-Serif" font-size="10.00">src/engine/courses</text>
<text text-anchor="middle" x="2614" y="-7" font-family="Helvetica,sans-Serif" font-size="10.00">/BigDonut.cpp</text>
</a>
</g>
</g>
<!-- Node21&#45;&gt;Node30 -->
<g id="edge25_Node000021_Node000030" class="edge">
<title>Node21&#45;&gt;Node30</title>
<g id="a_edge25_Node000021_Node000030"><a xlink:title=" ">
<path fill="none" stroke="#63b8ff" d="M2804.42,-64.17C2762.37,-53.53 2707.55,-39.67 2667.53,-29.54"/>
<polygon fill="#63b8ff" stroke="#63b8ff" points="2803.72,-67.6 2814.27,-66.66 2805.43,-60.82 2803.72,-67.6"/>
</a>
</g>
</g>
<!-- Node31 -->
<g id="Node000031" class="node">
<title>Node31</title>
<g id="a_Node000031"><a xlink:href="BlockFort_8cpp.html" target="_top" xlink:title=" ">
<polygon fill="white" stroke="#666666" points="2792.5,-30 2685.5,-30 2685.5,0 2792.5,0 2792.5,-30"/>
<text text-anchor="start" x="2693.5" y="-18" font-family="Helvetica,sans-Serif" font-size="10.00">src/engine/courses</text>
<text text-anchor="middle" x="2739" y="-7" font-family="Helvetica,sans-Serif" font-size="10.00">/BlockFort.cpp</text>
</a>
</g>
</g>
<!-- Node21&#45;&gt;Node31 -->
<g id="edge26_Node000021_Node000031" class="edge">
<title>Node21&#45;&gt;Node31</title>
<g id="a_edge26_Node000021_Node000031"><a xlink:title=" ">
<path fill="none" stroke="#63b8ff" d="M2829.76,-61.38C2809.73,-51.36 2785.43,-39.22 2767.02,-30.01"/>
<polygon fill="#63b8ff" stroke="#63b8ff" points="2828.4,-64.61 2838.91,-65.95 2831.53,-58.35 2828.4,-64.61"/>
</a>
</g>
</g>
<!-- Node32 -->
<g id="Node000032" class="node">
<title>Node32</title>
<g id="a_Node000032"><a xlink:href="BowsersCastle_8cpp.html" target="_top" xlink:title=" ">
<polygon fill="white" stroke="#666666" points="2923,-30 2811,-30 2811,0 2923,0 2923,-30"/>
<text text-anchor="start" x="2819" y="-18" font-family="Helvetica,sans-Serif" font-size="10.00">src/engine/courses</text>
<text text-anchor="middle" x="2867" y="-7" font-family="Helvetica,sans-Serif" font-size="10.00">/BowsersCastle.cpp</text>
</a>
</g>
</g>
<!-- Node21&#45;&gt;Node32 -->
<g id="edge27_Node000021_Node000032" class="edge">
<title>Node21&#45;&gt;Node32</title>
<g id="a_edge27_Node000021_Node000032"><a xlink:title=" ">
<path fill="none" stroke="#63b8ff" d="M2867,-55.54C2867,-46.96 2867,-37.61 2867,-30.16"/>
<polygon fill="#63b8ff" stroke="#63b8ff" points="2863.5,-55.8 2867,-65.8 2870.5,-55.8 2863.5,-55.8"/>
</a>
</g>
</g>
<!-- Node33 -->
<g id="Node000033" class="node">
<title>Node33</title>
<g id="a_Node000033"><a xlink:href="ChocoMountain_8cpp.html" target="_top" xlink:title=" ">
<polygon fill="white" stroke="#666666" points="3057,-30 2941,-30 2941,0 3057,0 3057,-30"/>
<text text-anchor="start" x="2949" y="-18" font-family="Helvetica,sans-Serif" font-size="10.00">src/engine/courses</text>
<text text-anchor="middle" x="2999" y="-7" font-family="Helvetica,sans-Serif" font-size="10.00">/ChocoMountain.cpp</text>
</a>
</g>
</g>
<!-- Node21&#45;&gt;Node33 -->
<g id="edge28_Node000021_Node000033" class="edge">
<title>Node21&#45;&gt;Node33</title>
<g id="a_edge28_Node000021_Node000033"><a xlink:title=" ">
<path fill="none" stroke="#63b8ff" d="M2905.13,-61.51C2925.84,-51.47 2951.03,-39.26 2970.1,-30.01"/>
<polygon fill="#63b8ff" stroke="#63b8ff" points="2903.44,-58.44 2895.97,-65.95 2906.49,-64.74 2903.44,-58.44"/>
</a>
</g>
</g>
<!-- Node34 -->
<g id="Node000034" class="node">
<title>Node34</title>
<g id="a_Node000034"><a xlink:href="DKJungle_8cpp.html" target="_top" xlink:title=" ">
<polygon fill="white" stroke="#666666" points="3182.5,-30 3075.5,-30 3075.5,0 3182.5,0 3182.5,-30"/>
<text text-anchor="start" x="3083.5" y="-18" font-family="Helvetica,sans-Serif" font-size="10.00">src/engine/courses</text>
<text text-anchor="middle" x="3129" y="-7" font-family="Helvetica,sans-Serif" font-size="10.00">/DKJungle.cpp</text>
</a>
</g>
</g>
<!-- Node21&#45;&gt;Node34 -->
<g id="edge29_Node000021_Node000034" class="edge">
<title>Node21&#45;&gt;Node34</title>
<g id="a_edge29_Node000021_Node000034"><a xlink:title=" ">
<path fill="none" stroke="#63b8ff" d="M2929.53,-64.72C2974.02,-53.86 3033.17,-39.41 3075.48,-29.07"/>
<polygon fill="#63b8ff" stroke="#63b8ff" points="2928.59,-61.35 2919.7,-67.13 2930.25,-68.15 2928.59,-61.35"/>
</a>
</g>
</g>
<!-- Node35 -->
<g id="Node000035" class="node">
<title>Node35</title>
<g id="a_Node000035"><a xlink:href="DoubleDeck_8cpp.html" target="_top" xlink:title=" ">
<polygon fill="white" stroke="#666666" points="3307.5,-30 3200.5,-30 3200.5,0 3307.5,0 3307.5,-30"/>
<text text-anchor="start" x="3208.5" y="-18" font-family="Helvetica,sans-Serif" font-size="10.00">src/engine/courses</text>
<text text-anchor="middle" x="3254" y="-7" font-family="Helvetica,sans-Serif" font-size="10.00">/DoubleDeck.cpp</text>
</a>
</g>
</g>
<!-- Node21&#45;&gt;Node35 -->
<g id="edge30_Node000021_Node000035" class="edge">
<title>Node21&#45;&gt;Node35</title>
<g id="a_edge30_Node000021_Node000035"><a xlink:title=" ">
<path fill="none" stroke="#63b8ff" d="M2929.78,-65.97C3046.84,-45.3 3079.08,-50.44 3192,-30 3194.71,-29.51 3197.49,-28.98 3200.29,-28.43"/>
<polygon fill="#63b8ff" stroke="#63b8ff" points="2928.93,-62.57 2919.7,-67.78 2930.16,-69.46 2928.93,-62.57"/>
</a>
</g>
</g>
<!-- Node36 -->
<g id="Node000036" class="node">
<title>Node36</title>
<g id="a_Node000036"><a xlink:href="FrappeSnowland_8cpp.html" target="_top" xlink:title=" ">
<polygon fill="white" stroke="#666666" points="3446,-30 3326,-30 3326,0 3446,0 3446,-30"/>
<text text-anchor="start" x="3334" y="-18" font-family="Helvetica,sans-Serif" font-size="10.00">src/engine/courses</text>
<text text-anchor="middle" x="3386" y="-7" font-family="Helvetica,sans-Serif" font-size="10.00">/FrappeSnowland.cpp</text>
</a>
</g>
</g>
<!-- Node21&#45;&gt;Node36 -->
<g id="edge31_Node000021_Node000036" class="edge">
<title>Node21&#45;&gt;Node36</title>
<g id="a_edge31_Node000021_Node000036"><a xlink:title=" ">
<path fill="none" stroke="#63b8ff" d="M2929.58,-66.06C3101.78,-39.46 3148.85,-54.79 3317,-30 3319.9,-29.57 3322.87,-29.1 3325.86,-28.6"/>
<polygon fill="#63b8ff" stroke="#63b8ff" points="2929.01,-62.61 2919.68,-67.62 2930.1,-69.52 2929.01,-62.61"/>
</a>
</g>
</g>
<!-- Node37 -->
<g id="Node000037" class="node">
<title>Node37</title>
<g id="a_Node000037"><a xlink:href="Harbour_8cpp.html" target="_top" xlink:title=" ">
<polygon fill="white" stroke="#666666" points="3571.5,-30 3464.5,-30 3464.5,0 3571.5,0 3571.5,-30"/>
<text text-anchor="start" x="3472.5" y="-18" font-family="Helvetica,sans-Serif" font-size="10.00">src/engine/courses</text>
<text text-anchor="middle" x="3518" y="-7" font-family="Helvetica,sans-Serif" font-size="10.00">/Harbour.cpp</text>
</a>
</g>
</g>
<!-- Node21&#45;&gt;Node37 -->
<g id="edge32_Node000021_Node000037" class="edge">
<title>Node21&#45;&gt;Node37</title>
<g id="a_edge32_Node000021_Node000037"><a xlink:title=" ">
<path fill="none" stroke="#63b8ff" d="M2929.8,-66.06C3162.65,-32.97 3226.37,-63.04 3455,-30 3458.1,-29.55 3461.28,-29.03 3464.48,-28.47"/>
<polygon fill="#63b8ff" stroke="#63b8ff" points="2929.06,-62.64 2919.66,-67.53 2930.06,-69.56 2929.06,-62.64"/>
</a>
</g>
</g>
<!-- Node38 -->
<g id="Node000038" class="node">
<title>Node38</title>
<g id="a_Node000038"><a xlink:href="KalimariDesert_8cpp.html" target="_top" xlink:title=" ">
<polygon fill="white" stroke="#666666" points="3702.5,-30 3589.5,-30 3589.5,0 3702.5,0 3702.5,-30"/>
<text text-anchor="start" x="3597.5" y="-18" font-family="Helvetica,sans-Serif" font-size="10.00">src/engine/courses</text>
<text text-anchor="middle" x="3646" y="-7" font-family="Helvetica,sans-Serif" font-size="10.00">/KalimariDesert.cpp</text>
</a>
</g>
</g>
<!-- Node21&#45;&gt;Node38 -->
<g id="edge33_Node000021_Node000038" class="edge">
<title>Node21&#45;&gt;Node38</title>
<g id="a_edge33_Node000021_Node000038"><a xlink:title=" ">
<path fill="none" stroke="#63b8ff" d="M2929.57,-66.11C3218.19,-26.85 3296.6,-68.24 3581,-30 3583.75,-29.63 3586.55,-29.21 3589.37,-28.74"/>
<polygon fill="#63b8ff" stroke="#63b8ff" points="2929.08,-62.65 2919.66,-67.48 2930.04,-69.58 2929.08,-62.65"/>
</a>
</g>
</g>
<!-- Node39 -->
<g id="Node000039" class="node">
<title>Node39</title>
<g id="a_Node000039"><a xlink:href="KoopaTroopaBeach_8cpp.html" target="_top" xlink:title=" ">
<polygon fill="white" stroke="#666666" points="3853,-30 3721,-30 3721,0 3853,0 3853,-30"/>
<text text-anchor="start" x="3729" y="-18" font-family="Helvetica,sans-Serif" font-size="10.00">src/engine/courses</text>
<text text-anchor="middle" x="3787" y="-7" font-family="Helvetica,sans-Serif" font-size="10.00">/KoopaTroopaBeach.cpp</text>
</a>
</g>
</g>
<!-- Node21&#45;&gt;Node39 -->
<g id="edge34_Node000021_Node000039" class="edge">
<title>Node21&#45;&gt;Node39</title>
<g id="a_edge34_Node000021_Node000039"><a xlink:title=" ">
<path fill="none" stroke="#63b8ff" d="M2929.71,-66.1C3276.01,-20.41 3369.24,-69.68 3712,-30 3714.89,-29.66 3717.85,-29.28 3720.82,-28.87"/>
<polygon fill="#63b8ff" stroke="#63b8ff" points="2929.1,-62.65 2919.65,-67.45 2930.03,-69.59 2929.1,-62.65"/>
</a>
</g>
</g>
<!-- Node40 -->
<g id="Node000040" class="node">
<title>Node40</title>
<g id="a_Node000040"><a xlink:href="LuigiRaceway_8cpp.html" target="_top" xlink:title=" ">
<polygon fill="white" stroke="#666666" points="3978.5,-30 3871.5,-30 3871.5,0 3978.5,0 3978.5,-30"/>
<text text-anchor="start" x="3879.5" y="-18" font-family="Helvetica,sans-Serif" font-size="10.00">src/engine/courses</text>
<text text-anchor="middle" x="3925" y="-7" font-family="Helvetica,sans-Serif" font-size="10.00">/LuigiRaceway.cpp</text>
</a>
</g>
</g>
<!-- Node21&#45;&gt;Node40 -->
<g id="edge35_Node000021_Node000040" class="edge">
<title>Node21&#45;&gt;Node40</title>
<g id="a_edge35_Node000021_Node000040"><a xlink:title=" ">
<path fill="none" stroke="#63b8ff" d="M2929.76,-66.11C3342.25,-13.21 3453.77,-82.8 3862,-30 3865.11,-29.6 3868.3,-29.12 3871.5,-28.58"/>
<polygon fill="#63b8ff" stroke="#63b8ff" points="2929.11,-62.66 2919.65,-67.42 2930.01,-69.6 2929.11,-62.66"/>
</a>
</g>
</g>
<!-- Node41 -->
<g id="Node000041" class="node">
<title>Node41</title>
<g id="a_Node000041"><a xlink:href="MarioRaceway_8cpp.html" target="_top" xlink:title=" ">
<polygon fill="white" stroke="#666666" points="4107,-30 3997,-30 3997,0 4107,0 4107,-30"/>
<text text-anchor="start" x="4005" y="-18" font-family="Helvetica,sans-Serif" font-size="10.00">src/engine/courses</text>
<text text-anchor="middle" x="4052" y="-7" font-family="Helvetica,sans-Serif" font-size="10.00">/MarioRaceway.cpp</text>
</a>
</g>
</g>
<!-- Node21&#45;&gt;Node41 -->
<g id="edge36_Node000021_Node000041" class="edge">
<title>Node21&#45;&gt;Node41</title>
<g id="a_edge36_Node000021_Node000041"><a xlink:title=" ">
<path fill="none" stroke="#63b8ff" d="M2929.71,-66.12C3397.87,-7.03 3524.02,-88.15 3988,-30 3990.93,-29.63 3993.93,-29.19 3996.95,-28.71"/>
<polygon fill="#63b8ff" stroke="#63b8ff" points="2929.12,-62.67 2919.64,-67.4 2930.01,-69.61 2929.12,-62.67"/>
</a>
</g>
</g>
</g>
</svg>

<g id="navigator" transform="translate(0 0)" fill="#404254">
  <rect fill="#f2f5e9" fill-opacity="0.5" stroke="#606060" stroke-width=".5" x="0" y="0" width="60" height="60"/>
  <use id="zoomplus" xlink:href="#zoomPlus" x="17" y="9" onmousedown="handleZoom(evt,'in')"/>
  <use id="zoomminus" xlink:href="#zoomMin" x="42" y="9" onmousedown="handleZoom(evt,'out')"/>
  <use id="reset" xlink:href="#resetDef" x="30" y="36" onmousedown="handleReset()"/>
   <use id="arrowup" xlink:href="#arrowUp" x="0" y="0" onmousedown="handlePan(0,-1)"/>
  <use id="arrowright" xlink:href="#arrowRight" x="0" y="0" onmousedown="handlePan(1,0)"/>
  <use id="arrowdown" xlink:href="#arrowDown" x="0" y="0" onmousedown="handlePan(0,1)"/>
  <use id="arrowleft" xlink:href="#arrowLeft" x="0" y="0" onmousedown="handlePan(-1,0)"/>
</g>
<svg viewBox="0 0 15 15" width="100%" height="30px" preserveAspectRatio="xMaxYMin meet">
 <g id="arrow_out" transform="scale(0.3 0.3)">
  <a xlink:href="Matrix_8h__dep__incl_org.svg" target="_base">
   <rect id="button" ry="5" rx="5" y="6" x="6" height="38" width="38"
        fill="#f2f5e9" fill-opacity="0.5" stroke="#606060" stroke-width="1.0"/>
   <path id="arrow"
     d="M 11.500037,31.436501 C 11.940474,20.09759 22.043105,11.32322 32.158766,21.979434 L 37.068811,17.246167 C 37.068811,17.246167 37.088388,32 37.088388,32 L 22.160133,31.978069 C 22.160133,31.978069 26.997745,27.140456 26.997745,27.140456 C 18.528582,18.264221 13.291696,25.230495 11.500037,31.436501 z"
     style="fill:#404040;"/>
  </a>
 </g>
</svg>

<style type='text/css'>
<![CDATA[
[data-mouse-over-selected='false'] { opacity: 0.7; }
[data-mouse-over-selected='true']  { opacity: 1.0; }
]]>
</style>
<script type="application/ecmascript"><![CDATA[
document.addEventListener('DOMContentLoaded', (event) => {
  highlightEdges();
  highlightAdjacentNodes();
});
]]></script>
</svg>
