<?xml version="1.0" encoding="UTF-8" standalone="no"?>
<!DOCTYPE svg PUBLIC "-//W3C//DTD SVG 1.1//EN"
 "http://www.w3.org/Graphics/SVG/1.1/DTD/svg11.dtd">
<!-- Generated by graphviz version 2.43.0 (0)
 -->
<!-- Title: AddObjectMatrix Pages: 1 -->
<svg width="643pt" height="1768pt"
 viewBox="0.00 0.00 643.00 1767.50" xmlns="http://www.w3.org/2000/svg" xmlns:xlink="http://www.w3.org/1999/xlink">
<g id="graph0" class="graph" transform="scale(1 1) rotate(0) translate(4 1763.5)">
<title>AddObjectMatrix</title>
<!-- Node1 -->
<g id="Node000001" class="node">
<title>Node1</title>
<g id="a_Node000001"><a xlink:title=" ">
<polygon fill="#999999" stroke="#666666" points="635,-1722.5 537,-1722.5 537,-1703.5 635,-1703.5 635,-1722.5"/>
<text text-anchor="middle" x="586" y="-1710.5" font-family="Helvetica,sans-Serif" font-size="10.00">AddObjectMatrix</text>
</a>
</g>
</g>
<!-- Node2 -->
<g id="Node000002" class="node">
<title>Node2</title>
<g id="a_Node000002"><a xlink:href="classAText.html#aa57b324c99af31fbffa359dc9f73e173" target="_top" xlink:title=" ">
<polygon fill="white" stroke="#666666" points="498.5,-1759.5 390.5,-1759.5 390.5,-1740.5 498.5,-1740.5 498.5,-1759.5"/>
<text text-anchor="middle" x="444.5" y="-1747.5" font-family="Helvetica,sans-Serif" font-size="10.00">AText::DrawText3D</text>
</a>
</g>
</g>
<!-- Node1&#45;&gt;Node2 -->
<g id="edge1_Node000001_Node000002" class="edge">
<title>Node1&#45;&gt;Node2</title>
<g id="a_edge1_Node000001_Node000002"><a xlink:title=" ">
<path fill="none" stroke="#63b8ff" d="M539.3,-1725.12C520.64,-1730.07 499.36,-1735.72 481.79,-1740.38"/>
<polygon fill="#63b8ff" stroke="#63b8ff" points="540.31,-1728.48 549.08,-1722.53 538.51,-1721.71 540.31,-1728.48"/>
</a>
</g>
</g>
<!-- Node4 -->
<g id="Node000004" class="node">
<title>Node4</title>
<g id="a_Node000004"><a xlink:href="collision__viewer_8c.html#afaee40683a3ae56cae11b2c5687e3328" target="_top" xlink:title=" ">
<polygon fill="white" stroke="#666666" points="491.5,-1722.5 397.5,-1722.5 397.5,-1703.5 491.5,-1703.5 491.5,-1722.5"/>
<text text-anchor="middle" x="444.5" y="-1710.5" font-family="Helvetica,sans-Serif" font-size="10.00">render_collision</text>
</a>
</g>
</g>
<!-- Node1&#45;&gt;Node4 -->
<g id="edge3_Node000001_Node000004" class="edge">
<title>Node1&#45;&gt;Node4</title>
<g id="a_edge3_Node000001_Node000004"><a xlink:title=" ">
<path fill="none" stroke="#63b8ff" d="M526.84,-1713C515.12,-1713 502.96,-1713 491.71,-1713"/>
<polygon fill="#63b8ff" stroke="#63b8ff" points="526.99,-1716.5 536.99,-1713 526.99,-1709.5 526.99,-1716.5"/>
</a>
</g>
</g>
<!-- Node46 -->
<g id="Node000046" class="node">
<title>Node46</title>
<g id="a_Node000046"><a xlink:href="math__util_8c.html#a1e5d28a1962fbb390c7551f66c2f099a" target="_top" xlink:title=" ">
<polygon fill="#fff0f0" stroke="red" points="501,-856.5 388,-856.5 388,-837.5 501,-837.5 501,-856.5"/>
<text text-anchor="middle" x="444.5" y="-844.5" font-family="Helvetica,sans-Serif" font-size="10.00">render_set_position</text>
</a>
</g>
</g>
<!-- Node1&#45;&gt;Node46 -->
<g id="edge6_Node000001_Node000046" class="edge">
<title>Node1&#45;&gt;Node46</title>
<g id="a_edge6_Node000001_Node000046"><a xlink:title=" ">
<path fill="none" stroke="#63b8ff" d="M581.82,-1693.28C562.48,-1573.19 460.87,-942.39 447.05,-856.65"/>
<polygon fill="#63b8ff" stroke="#63b8ff" points="578.39,-1693.96 583.43,-1703.27 585.3,-1692.85 578.39,-1693.96"/>
</a>
</g>
</g>
<!-- Node3 -->
<g id="Node000003" class="node">
<title>Node3</title>
<g id="a_Node000003"><a xlink:href="classAText.html#a36c1faa0b784e56886071b22dc65755b" target="_top" xlink:title=" ">
<polygon fill="white" stroke="#666666" points="304.5,-1759.5 230.5,-1759.5 230.5,-1740.5 304.5,-1740.5 304.5,-1759.5"/>
<text text-anchor="middle" x="267.5" y="-1747.5" font-family="Helvetica,sans-Serif" font-size="10.00">AText::Draw</text>
</a>
</g>
</g>
<!-- Node2&#45;&gt;Node3 -->
<g id="edge2_Node000002_Node000003" class="edge">
<title>Node2&#45;&gt;Node3</title>
<g id="a_edge2_Node000002_Node000003"><a xlink:title=" ">
<path fill="none" stroke="#63b8ff" d="M379.79,-1750C354.53,-1750 326.41,-1750 304.75,-1750"/>
<polygon fill="#63b8ff" stroke="#63b8ff" points="380.04,-1753.5 390.04,-1750 380.04,-1746.5 380.04,-1753.5"/>
</a>
</g>
</g>
<!-- Node5 -->
<g id="Node000005" class="node">
<title>Node5</title>
<g id="a_Node000005"><a xlink:href="render__courses_8c.html#a2c5c720bdad055f349e2add80baa1a8a" target="_top" xlink:title=" ">
<polygon fill="#fff0f0" stroke="red" points="310.5,-1722.5 224.5,-1722.5 224.5,-1703.5 310.5,-1703.5 310.5,-1722.5"/>
<text text-anchor="middle" x="267.5" y="-1710.5" font-family="Helvetica,sans-Serif" font-size="10.00">render_course</text>
</a>
</g>
</g>
<!-- Node4&#45;&gt;Node5 -->
<g id="edge4_Node000004_Node000005" class="edge">
<title>Node4&#45;&gt;Node5</title>
<g id="a_edge4_Node000004_Node000005"><a xlink:title=" ">
<path fill="none" stroke="#63b8ff" d="M387.05,-1713C362.23,-1713 333.57,-1713 310.66,-1713"/>
<polygon fill="#63b8ff" stroke="#63b8ff" points="387.06,-1716.5 397.06,-1713 387.06,-1709.5 387.06,-1716.5"/>
</a>
</g>
</g>
<!-- Node6 -->
<g id="Node000006" class="node">
<title>Node6</title>
<g id="a_Node000006"><a xlink:href="code__80280000_8c.html#aa9c130485d39c4a7276605b30db5150e" target="_top" xlink:title=" ">
<polygon fill="#fff0f0" stroke="red" points="119,-1569.5 28,-1569.5 28,-1550.5 119,-1550.5 119,-1569.5"/>
<text text-anchor="middle" x="73.5" y="-1557.5" font-family="Helvetica,sans-Serif" font-size="10.00">func_80280038</text>
</a>
</g>
</g>
<!-- Node5&#45;&gt;Node6 -->
<g id="edge5_Node000005_Node000006" class="edge">
<title>Node5&#45;&gt;Node6</title>
<g id="a_edge5_Node000005_Node000006"><a xlink:title=" ">
<path fill="none" stroke="#63b8ff" d="M214.51,-1706.78C203.56,-1703.97 192.47,-1699.9 183,-1694 130.66,-1661.4 92.3,-1594.5 79.31,-1569.61"/>
<polygon fill="#63b8ff" stroke="#63b8ff" points="213.95,-1710.24 224.47,-1709.02 215.49,-1703.41 213.95,-1710.24"/>
</a>
</g>
</g>
<!-- Node46&#45;&gt;Node6 -->
<g id="edge24_Node000046_Node000006" class="edge">
<title>Node46&#45;&gt;Node6</title>
<g id="a_edge24_Node000046_Node000006"><a xlink:title=" ">
<path fill="none" stroke="#63b8ff" d="M443.01,-866.72C440.43,-954.81 425.49,-1311.43 352,-1389 299.05,-1444.89 248.48,-1386.51 183,-1427 130.79,-1459.29 92.35,-1525.73 79.33,-1550.46"/>
<polygon fill="#63b8ff" stroke="#63b8ff" points="446.52,-866.62 443.29,-856.52 439.52,-866.43 446.52,-866.62"/>
</a>
</g>
</g>
<!-- Node47 -->
<g id="Node000047" class="node">
<title>Node47</title>
<g id="a_Node000047"><a xlink:href="classAActor.html#a803007dd95a33ecdb49e55a6947ce23a" target="_top" xlink:title=" ">
<polygon fill="white" stroke="#666666" points="307.5,-1379.5 227.5,-1379.5 227.5,-1360.5 307.5,-1360.5 307.5,-1379.5"/>
<text text-anchor="middle" x="267.5" y="-1367.5" font-family="Helvetica,sans-Serif" font-size="10.00">AActor::Draw</text>
</a>
</g>
</g>
<!-- Node46&#45;&gt;Node47 -->
<g id="edge7_Node000046_Node000047" class="edge">
<title>Node46&#45;&gt;Node47</title>
<g id="a_edge7_Node000046_Node000047"><a xlink:title=" ">
<path fill="none" stroke="#63b8ff" d="M442.76,-866.72C439.2,-951.1 421,-1280.68 352,-1352 340.55,-1363.83 323.34,-1368.79 307.5,-1370.6"/>
<polygon fill="#63b8ff" stroke="#63b8ff" points="446.26,-866.82 443.16,-856.69 439.27,-866.54 446.26,-866.82"/>
</a>
</g>
</g>
<!-- Node48 -->
<g id="Node000048" class="node">
<title>Node48</title>
<g id="a_Node000048"><a xlink:href="classABowserStatue.html#a0ae791ad3e5a3f89aeff3c0fd829dc88" target="_top" xlink:title=" ">
<polygon fill="white" stroke="#666666" points="328.5,-1342.5 206.5,-1342.5 206.5,-1323.5 328.5,-1323.5 328.5,-1342.5"/>
<text text-anchor="middle" x="267.5" y="-1330.5" font-family="Helvetica,sans-Serif" font-size="10.00">ABowserStatue::Draw</text>
</a>
</g>
</g>
<!-- Node46&#45;&gt;Node48 -->
<g id="edge8_Node000046_Node000048" class="edge">
<title>Node46&#45;&gt;Node48</title>
<g id="a_edge8_Node000046_Node000048"><a xlink:title=" ">
<path fill="none" stroke="#63b8ff" d="M442.44,-867.05C437.73,-948.02 416.1,-1249.66 352,-1315 345.56,-1321.56 337.34,-1326 328.59,-1328.96"/>
<polygon fill="#63b8ff" stroke="#63b8ff" points="445.95,-866.94 443.01,-856.76 438.96,-866.55 445.95,-866.94"/>
</a>
</g>
</g>
<!-- Node49 -->
<g id="Node000049" class="node">
<title>Node49</title>
<g id="a_Node000049"><a xlink:href="classACloud.html#a7b73d250f0af430bbfb34088037a2653" target="_top" xlink:title=" ">
<polygon fill="white" stroke="#666666" points="309,-1305.5 226,-1305.5 226,-1286.5 309,-1286.5 309,-1305.5"/>
<text text-anchor="middle" x="267.5" y="-1293.5" font-family="Helvetica,sans-Serif" font-size="10.00">ACloud::Draw</text>
</a>
</g>
</g>
<!-- Node46&#45;&gt;Node49 -->
<g id="edge9_Node000046_Node000049" class="edge">
<title>Node46&#45;&gt;Node49</title>
<g id="a_edge9_Node000046_Node000049"><a xlink:title=" ">
<path fill="none" stroke="#63b8ff" d="M442.08,-866.93C436.22,-943.63 411.33,-1218.48 352,-1278 340.8,-1289.24 324.37,-1294.23 309.05,-1296.23"/>
<polygon fill="#63b8ff" stroke="#63b8ff" points="445.59,-866.97 442.84,-856.74 438.61,-866.45 445.59,-866.97"/>
</a>
</g>
</g>
<!-- Node50 -->
<g id="Node000050" class="node">
<title>Node50</title>
<g id="a_Node000050"><a xlink:href="classAFallingRock.html#ac903597222308156418de8bc45cf0740" target="_top" xlink:title="Renders the falling rock actor. Actor used in Choco Mountain.">
<polygon fill="white" stroke="#666666" points="322.5,-1268.5 212.5,-1268.5 212.5,-1249.5 322.5,-1249.5 322.5,-1268.5"/>
<text text-anchor="middle" x="267.5" y="-1256.5" font-family="Helvetica,sans-Serif" font-size="10.00">AFallingRock::Draw</text>
</a>
</g>
</g>
<!-- Node46&#45;&gt;Node50 -->
<g id="edge10_Node000046_Node000050" class="edge">
<title>Node46&#45;&gt;Node50</title>
<g id="a_edge10_Node000046_Node000050"><a xlink:title=" ">
<path fill="none" stroke="#63b8ff" d="M441.69,-866.6C434.63,-938.62 406.63,-1187.23 352,-1241 344.07,-1248.8 333.62,-1253.58 322.81,-1256.43"/>
<polygon fill="#63b8ff" stroke="#63b8ff" points="445.17,-866.9 442.64,-856.61 438.21,-866.24 445.17,-866.9"/>
</a>
</g>
</g>
<!-- Node51 -->
<g id="Node000051" class="node">
<title>Node51</title>
<g id="a_Node000051"><a xlink:href="classAFinishline.html#a5c78e1d21d510483940eaab35807bf52" target="_top" xlink:title=" ">
<polygon fill="white" stroke="#666666" points="318,-1231.5 217,-1231.5 217,-1212.5 318,-1212.5 318,-1231.5"/>
<text text-anchor="middle" x="267.5" y="-1219.5" font-family="Helvetica,sans-Serif" font-size="10.00">AFinishline::Draw</text>
</a>
</g>
</g>
<!-- Node46&#45;&gt;Node51 -->
<g id="edge11_Node000046_Node000051" class="edge">
<title>Node46&#45;&gt;Node51</title>
<g id="a_edge11_Node000046_Node000051"><a xlink:title=" ">
<path fill="none" stroke="#63b8ff" d="M441.14,-866.91C432.7,-934.87 401.8,-1156.09 352,-1204 342.92,-1212.74 330.66,-1217.66 318.34,-1220.33"/>
<polygon fill="#63b8ff" stroke="#63b8ff" points="444.65,-867.07 442.38,-856.72 437.7,-866.22 444.65,-867.07"/>
</a>
</g>
</g>
<!-- Node52 -->
<g id="Node000052" class="node">
<title>Node52</title>
<g id="a_Node000052"><a xlink:href="classAMarioSign.html#a0a0b8b6ac9215747b1939305edfb0406" target="_top" xlink:title=" ">
<polygon fill="white" stroke="#666666" points="319.5,-1194.5 215.5,-1194.5 215.5,-1175.5 319.5,-1175.5 319.5,-1194.5"/>
<text text-anchor="middle" x="267.5" y="-1182.5" font-family="Helvetica,sans-Serif" font-size="10.00">AMarioSign::Draw</text>
</a>
</g>
</g>
<!-- Node46&#45;&gt;Node52 -->
<g id="edge12_Node000046_Node000052" class="edge">
<title>Node46&#45;&gt;Node52</title>
<g id="a_edge12_Node000046_Node000052"><a xlink:title=" ">
<path fill="none" stroke="#63b8ff" d="M444.29,-866.6C445.39,-922.55 440.41,-1084.26 352,-1167 343.23,-1175.21 331.65,-1180.02 319.92,-1182.77"/>
<polygon fill="#63b8ff" stroke="#63b8ff" points="447.79,-866.5 444,-856.6 440.79,-866.7 447.79,-866.5"/>
</a>
</g>
</g>
<!-- Node53 -->
<g id="Node000053" class="node">
<title>Node53</title>
<g id="a_Node000053"><a xlink:href="classASpaghettiShip.html#a858f477eef6a77fed29a3816132f6c8e" target="_top" xlink:title=" ">
<polygon fill="white" stroke="#666666" points="328.5,-1157.5 206.5,-1157.5 206.5,-1138.5 328.5,-1138.5 328.5,-1157.5"/>
<text text-anchor="middle" x="267.5" y="-1145.5" font-family="Helvetica,sans-Serif" font-size="10.00">ASpaghettiShip::Draw</text>
</a>
</g>
</g>
<!-- Node46&#45;&gt;Node53 -->
<g id="edge13_Node000046_Node000053" class="edge">
<title>Node46&#45;&gt;Node53</title>
<g id="a_edge13_Node000046_Node000053"><a xlink:title=" ">
<path fill="none" stroke="#63b8ff" d="M442.96,-867.01C440.5,-917.66 426.85,-1052.03 352,-1124 345.48,-1130.27 337.42,-1134.92 328.92,-1138.37"/>
<polygon fill="#63b8ff" stroke="#63b8ff" points="446.47,-866.89 443.36,-856.77 439.48,-866.62 446.47,-866.89"/>
</a>
</g>
</g>
<!-- Node54 -->
<g id="Node000054" class="node">
<title>Node54</title>
<g id="a_Node000054"><a xlink:href="classATree.html#aec0fb1120157d3a5c0ea04951ee0c860" target="_top" xlink:title=" ">
<polygon fill="white" stroke="#666666" points="110.5,-1105.5 36.5,-1105.5 36.5,-1086.5 110.5,-1086.5 110.5,-1105.5"/>
<text text-anchor="middle" x="73.5" y="-1093.5" font-family="Helvetica,sans-Serif" font-size="10.00">ATree::Draw</text>
</a>
</g>
</g>
<!-- Node46&#45;&gt;Node54 -->
<g id="edge14_Node000046_Node000054" class="edge">
<title>Node46&#45;&gt;Node54</title>
<g id="a_edge14_Node000046_Node000054"><a xlink:title=" ">
<path fill="none" stroke="#63b8ff" d="M443.03,-866.75C440.68,-914.82 427.26,-1037.83 352,-1091 277.03,-1143.96 159.97,-1120.87 104.98,-1105.59"/>
<polygon fill="#63b8ff" stroke="#63b8ff" points="446.53,-866.84 443.4,-856.71 439.53,-866.57 446.53,-866.84"/>
</a>
</g>
</g>
<!-- Node55 -->
<g id="Node000055" class="node">
<title>Node55</title>
<g id="a_Node000055"><a xlink:href="classAWarioSign.html#a6afbd9954a4ba3615eb120bffc0493a6" target="_top" xlink:title=" ">
<polygon fill="white" stroke="#666666" points="319,-967.5 216,-967.5 216,-948.5 319,-948.5 319,-967.5"/>
<text text-anchor="middle" x="267.5" y="-955.5" font-family="Helvetica,sans-Serif" font-size="10.00">AWarioSign::Draw</text>
</a>
</g>
</g>
<!-- Node46&#45;&gt;Node55 -->
<g id="edge15_Node000046_Node000055" class="edge">
<title>Node46&#45;&gt;Node55</title>
<g id="a_edge15_Node000046_Node000055"><a xlink:title=" ">
<path fill="none" stroke="#63b8ff" d="M430.98,-864.66C415.07,-885.71 385.62,-920.37 352,-939 341.99,-944.55 330.44,-948.48 319.19,-951.26"/>
<polygon fill="#63b8ff" stroke="#63b8ff" points="433.83,-866.68 436.94,-856.56 428.19,-862.54 433.83,-866.68"/>
</a>
</g>
</g>
<!-- Node56 -->
<g id="Node000056" class="node">
<title>Node56</title>
<g id="a_Node000056"><a xlink:href="classOTrashBin.html#ab7caec5a5bbd835ac9250a6294166b2c" target="_top" xlink:title=" ">
<polygon fill="white" stroke="#666666" points="316,-930.5 219,-930.5 219,-911.5 316,-911.5 316,-930.5"/>
<text text-anchor="middle" x="267.5" y="-918.5" font-family="Helvetica,sans-Serif" font-size="10.00">OTrashBin::Draw</text>
</a>
</g>
</g>
<!-- Node46&#45;&gt;Node56 -->
<g id="edge16_Node000046_Node000056" class="edge">
<title>Node46&#45;&gt;Node56</title>
<g id="a_edge16_Node000046_Node000056"><a xlink:title=" ">
<path fill="none" stroke="#63b8ff" d="M422.04,-862.6C404.12,-874.94 377.48,-891.75 352,-902 340.69,-906.55 328.06,-910.13 316.11,-912.91"/>
<polygon fill="#63b8ff" stroke="#63b8ff" points="424.39,-865.22 430.56,-856.61 420.37,-859.49 424.39,-865.22"/>
</a>
</g>
</g>
<!-- Node57 -->
<g id="Node000057" class="node">
<title>Node57</title>
<g id="a_Node000057"><a xlink:href="classOTrophy.html#a2eb7707fd5f496e55c91ee160590cdd7" target="_top" xlink:title=" ">
<polygon fill="white" stroke="#666666" points="311,-893.5 224,-893.5 224,-874.5 311,-874.5 311,-893.5"/>
<text text-anchor="middle" x="267.5" y="-881.5" font-family="Helvetica,sans-Serif" font-size="10.00">OTrophy::Draw</text>
</a>
</g>
</g>
<!-- Node46&#45;&gt;Node57 -->
<g id="edge17_Node000046_Node000057" class="edge">
<title>Node46&#45;&gt;Node57</title>
<g id="a_edge17_Node000046_Node000057"><a xlink:title=" ">
<path fill="none" stroke="#63b8ff" d="M388.36,-858.66C363.37,-863.94 334.27,-870.09 311.01,-875.01"/>
<polygon fill="#63b8ff" stroke="#63b8ff" points="389.37,-862.02 398.43,-856.53 387.93,-855.17 389.37,-862.02"/>
</a>
</g>
</g>
<!-- Node58 -->
<g id="Node000058" class="node">
<title>Node58</title>
<g id="a_Node000058"><a xlink:href="classStaticMeshActor.html#a1b8a72c0ae7a52b58870994efe83e55a" target="_top" xlink:title=" ">
<polygon fill="white" stroke="#666666" points="331.5,-856.5 203.5,-856.5 203.5,-837.5 331.5,-837.5 331.5,-856.5"/>
<text text-anchor="middle" x="267.5" y="-844.5" font-family="Helvetica,sans-Serif" font-size="10.00">StaticMeshActor::Draw</text>
</a>
</g>
</g>
<!-- Node46&#45;&gt;Node58 -->
<g id="edge18_Node000046_Node000058" class="edge">
<title>Node46&#45;&gt;Node58</title>
<g id="a_edge18_Node000046_Node000058"><a xlink:title=" ">
<path fill="none" stroke="#63b8ff" d="M377.44,-847C362.46,-847 346.59,-847 331.73,-847"/>
<polygon fill="#63b8ff" stroke="#63b8ff" points="377.65,-850.5 387.65,-847 377.65,-843.5 377.65,-850.5"/>
</a>
</g>
</g>
<!-- Node59 -->
<g id="Node000059" class="node">
<title>Node59</title>
<g id="a_Node000059"><a xlink:href="classDKJungle.html#af57361df3f0ff9c914e9e750b74c0974" target="_top" xlink:title=" ">
<polygon fill="white" stroke="#666666" points="328,-819.5 207,-819.5 207,-800.5 328,-800.5 328,-819.5"/>
<text text-anchor="middle" x="267.5" y="-807.5" font-family="Helvetica,sans-Serif" font-size="10.00">DKJungle::DrawWater</text>
</a>
</g>
</g>
<!-- Node46&#45;&gt;Node59 -->
<g id="edge19_Node000046_Node000059" class="edge">
<title>Node46&#45;&gt;Node59</title>
<g id="a_edge19_Node000046_Node000059"><a xlink:title=" ">
<path fill="none" stroke="#63b8ff" d="M388.39,-835.35C364.35,-830.27 336.51,-824.38 313.72,-819.56"/>
<polygon fill="#63b8ff" stroke="#63b8ff" points="387.93,-838.83 398.43,-837.47 389.37,-831.98 387.93,-838.83"/>
</a>
</g>
</g>
<!-- Node60 -->
<g id="Node000060" class="node">
<title>Node60</title>
<g id="a_Node000060"><a xlink:href="classKoopaTroopaBeach.html#a7790540cdd46c8cef5c0d9db8d12b5ec" target="_top" xlink:title=" ">
<polygon fill="white" stroke="#666666" points="352,-782.5 183,-782.5 183,-763.5 352,-763.5 352,-782.5"/>
<text text-anchor="middle" x="267.5" y="-770.5" font-family="Helvetica,sans-Serif" font-size="10.00">KoopaTroopaBeach::DrawWater</text>
</a>
</g>
</g>
<!-- Node46&#45;&gt;Node60 -->
<g id="edge20_Node000046_Node000060" class="edge">
<title>Node46&#45;&gt;Node60</title>
<g id="a_edge20_Node000046_Node000060"><a xlink:title=" ">
<path fill="none" stroke="#63b8ff" d="M422.42,-831.24C404.54,-818.6 377.77,-801.31 352,-791 343.6,-787.64 334.47,-784.86 325.42,-782.57"/>
<polygon fill="#63b8ff" stroke="#63b8ff" points="420.75,-834.35 430.9,-837.37 424.85,-828.67 420.75,-834.35"/>
</a>
</g>
</g>
<!-- Node61 -->
<g id="Node000061" class="node">
<title>Node61</title>
<g id="a_Node000061"><a xlink:href="classRainbowRoad.html#a97b8108b8f7cd71b8112f52a01ddf9a3" target="_top" xlink:title=" ">
<polygon fill="white" stroke="#666666" points="339,-745.5 196,-745.5 196,-726.5 339,-726.5 339,-745.5"/>
<text text-anchor="middle" x="267.5" y="-733.5" font-family="Helvetica,sans-Serif" font-size="10.00">RainbowRoad::DrawWater</text>
</a>
</g>
</g>
<!-- Node46&#45;&gt;Node61 -->
<g id="edge21_Node000046_Node000061" class="edge">
<title>Node46&#45;&gt;Node61</title>
<g id="a_edge21_Node000046_Node000061"><a xlink:title=" ">
<path fill="none" stroke="#63b8ff" d="M431.06,-829.08C415.23,-807.74 385.86,-772.63 352,-754 345.76,-750.57 338.93,-747.79 331.94,-745.54"/>
<polygon fill="#63b8ff" stroke="#63b8ff" points="428.29,-831.24 436.98,-837.3 433.97,-827.14 428.29,-831.24"/>
</a>
</g>
</g>
<!-- Node62 -->
<g id="Node000062" class="node">
<title>Node62</title>
<g id="a_Node000062"><a xlink:href="classSherbetLand.html#a8920d448b38a9ca5174ee1150c569746" target="_top" xlink:title=" ">
<polygon fill="white" stroke="#666666" points="336,-708.5 199,-708.5 199,-689.5 336,-689.5 336,-708.5"/>
<text text-anchor="middle" x="267.5" y="-696.5" font-family="Helvetica,sans-Serif" font-size="10.00">SherbetLand::DrawWater</text>
</a>
</g>
</g>
<!-- Node46&#45;&gt;Node62 -->
<g id="edge22_Node000046_Node000062" class="edge">
<title>Node46&#45;&gt;Node62</title>
<g id="a_edge22_Node000046_Node000062"><a xlink:title=" ">
<path fill="none" stroke="#63b8ff" d="M435.61,-827.92C422.64,-799.08 394.01,-744.82 352,-717 346.93,-713.64 341.34,-710.9 335.53,-708.66"/>
<polygon fill="#63b8ff" stroke="#63b8ff" points="432.48,-829.51 439.67,-837.3 438.9,-826.73 432.48,-829.51"/>
</a>
</g>
</g>
<!-- Node63 -->
<g id="Node000063" class="node">
<title>Node63</title>
<g id="a_Node000063"><a xlink:href="classWarioStadium.html#a29933178319892da3bce8cd1b193f826" target="_top" xlink:title=" ">
<polygon fill="white" stroke="#666666" points="340,-671.5 195,-671.5 195,-652.5 340,-652.5 340,-671.5"/>
<text text-anchor="middle" x="267.5" y="-659.5" font-family="Helvetica,sans-Serif" font-size="10.00">WarioStadium::DrawWater</text>
</a>
</g>
</g>
<!-- Node46&#45;&gt;Node63 -->
<g id="edge23_Node000046_Node000063" class="edge">
<title>Node46&#45;&gt;Node63</title>
<g id="a_edge23_Node000046_Node000063"><a xlink:title=" ">
<path fill="none" stroke="#63b8ff" d="M438.49,-827.13C428.47,-791.66 402.45,-717.64 352,-680 347.48,-676.63 342.47,-673.86 337.2,-671.6"/>
<polygon fill="#63b8ff" stroke="#63b8ff" points="435.22,-828.45 441.2,-837.2 441.98,-826.63 435.22,-828.45"/>
</a>
</g>
</g>
<!-- Node31 -->
<g id="Node000031" class="node">
<title>Node31</title>
<g id="a_Node000031"><a xlink:href="code__80281C40_8c.html#af6f6a1f0caec6d086a4ab98602a6670e" target="_top" xlink:title=" ">
<polygon fill="#fff0f0" stroke="red" points="313.5,-634.5 221.5,-634.5 221.5,-615.5 313.5,-615.5 313.5,-634.5"/>
<text text-anchor="middle" x="267.5" y="-622.5" font-family="Helvetica,sans-Serif" font-size="10.00">func_80281D00</text>
</a>
</g>
</g>
<!-- Node46&#45;&gt;Node31 -->
<g id="edge25_Node000046_Node000031" class="edge">
<title>Node46&#45;&gt;Node31</title>
<g id="a_edge25_Node000046_Node000031"><a xlink:title=" ">
<path fill="none" stroke="#63b8ff" d="M440.68,-827.43C433.67,-786.41 411.56,-691.23 352,-643 341.28,-634.32 327.33,-629.57 313.91,-627.04"/>
<polygon fill="#63b8ff" stroke="#63b8ff" points="437.25,-828.15 442.27,-837.48 444.16,-827.06 437.25,-828.15"/>
</a>
</g>
</g>
<!-- Node64 -->
<g id="Node000064" class="node">
<title>Node64</title>
<g id="a_Node000064"><a xlink:href="render__courses_8c.html#a69645bccae777bc83e94b62e4dcbbaf9" target="_top" xlink:title=" ">
<polygon fill="#fff0f0" stroke="red" points="313.5,-597.5 221.5,-597.5 221.5,-578.5 313.5,-578.5 313.5,-597.5"/>
<text text-anchor="middle" x="267.5" y="-585.5" font-family="Helvetica,sans-Serif" font-size="10.00">func_8029122C</text>
</a>
</g>
</g>
<!-- Node46&#45;&gt;Node64 -->
<g id="edge26_Node000046_Node000064" class="edge">
<title>Node46&#45;&gt;Node64</title>
<g id="a_edge26_Node000046_Node000064"><a xlink:title=" ">
<path fill="none" stroke="#63b8ff" d="M442.15,-827.15C437.87,-780.79 420.51,-664.91 352,-606 341.43,-596.91 327.36,-592.07 313.79,-589.58"/>
<polygon fill="#63b8ff" stroke="#63b8ff" points="438.68,-827.67 442.98,-837.36 445.66,-827.11 438.68,-827.67"/>
</a>
</g>
</g>
<!-- Node65 -->
<g id="Node000065" class="node">
<title>Node65</title>
<g id="a_Node000065"><a xlink:href="actors_8c.html#af3679e7269b472294b3d91b070c1ff25" target="_top" xlink:title=" ">
<polygon fill="white" stroke="#666666" points="313,-560.5 222,-560.5 222,-541.5 313,-541.5 313,-560.5"/>
<text text-anchor="middle" x="267.5" y="-548.5" font-family="Helvetica,sans-Serif" font-size="10.00">func_80297340</text>
</a>
</g>
</g>
<!-- Node46&#45;&gt;Node65 -->
<g id="edge27_Node000046_Node000065" class="edge">
<title>Node46&#45;&gt;Node65</title>
<g id="a_edge27_Node000046_Node000065"><a xlink:title=" ">
<path fill="none" stroke="#63b8ff" d="M443.3,-827.28C441.64,-776.26 429.79,-638.98 352,-569 341.42,-559.48 327.03,-554.57 313.18,-552.15"/>
<polygon fill="#63b8ff" stroke="#63b8ff" points="439.8,-827.4 443.52,-837.32 446.8,-827.24 439.8,-827.4"/>
</a>
</g>
</g>
<!-- Node66 -->
<g id="Node000066" class="node">
<title>Node66</title>
<g id="a_Node000066"><a xlink:href="actors_8c.html#ac46c5c4408bdcd2bfdeddd690b1ed203" target="_top" xlink:title=" ">
<polygon fill="#fff0f0" stroke="red" points="313.5,-1081.5 221.5,-1081.5 221.5,-1062.5 313.5,-1062.5 313.5,-1081.5"/>
<text text-anchor="middle" x="267.5" y="-1069.5" font-family="Helvetica,sans-Serif" font-size="10.00">func_8029794C</text>
</a>
</g>
</g>
<!-- Node46&#45;&gt;Node66 -->
<g id="edge28_Node000046_Node000066" class="edge">
<title>Node46&#45;&gt;Node66</title>
<g id="a_edge28_Node000046_Node000066"><a xlink:title=" ">
<path fill="none" stroke="#63b8ff" d="M440.22,-866.54C432.43,-906.68 409.06,-998.78 352,-1048 341.26,-1057.26 327.15,-1062.96 313.6,-1066.46"/>
<polygon fill="#63b8ff" stroke="#63b8ff" points="443.67,-867.14 442.01,-856.67 436.78,-865.88 443.67,-867.14"/>
</a>
</g>
</g>
<!-- Node73 -->
<g id="Node000073" class="node">
<title>Node73</title>
<g id="a_Node000073"><a xlink:href="trees_2render_8inc_8c.html#ad286049dc3781032de7e3a85633bb116" target="_top" xlink:title="Renders the bush actor in Bowser&#39;s Castle.">
<polygon fill="#fff0f0" stroke="red" points="147,-1065 0,-1065 0,-1035 147,-1035 147,-1065"/>
<text text-anchor="start" x="8" y="-1053" font-family="Helvetica,sans-Serif" font-size="10.00">render_actor_bush_bowser</text>
<text text-anchor="middle" x="73.5" y="-1042" font-family="Helvetica,sans-Serif" font-size="10.00">_castle</text>
</a>
</g>
</g>
<!-- Node46&#45;&gt;Node73 -->
<g id="edge37_Node000046_Node000073" class="edge">
<title>Node46&#45;&gt;Node73</title>
<g id="a_edge37_Node000046_Node000073"><a xlink:title=" ">
<path fill="none" stroke="#63b8ff" d="M438.49,-866.47C428.47,-901.18 402.45,-973.33 352,-1008 319.62,-1030.25 217.93,-1041.13 147.1,-1046.14"/>
<polygon fill="#63b8ff" stroke="#63b8ff" points="441.93,-867.18 441.19,-856.61 435.17,-865.33 441.93,-867.18"/>
</a>
</g>
</g>
<!-- Node74 -->
<g id="Node000074" class="node">
<title>Node74</title>
<g id="a_Node000074"><a xlink:href="palm__tree_2render_8inc_8c.html#a9acb7afd543abd1f4794c8c2d16f13a4" target="_top" xlink:title="Renders the palm tree actor. Actor used in Koopa Troopa Beach.">
<polygon fill="#fff0f0" stroke="red" points="140,-1009.5 7,-1009.5 7,-990.5 140,-990.5 140,-1009.5"/>
<text text-anchor="middle" x="73.5" y="-997.5" font-family="Helvetica,sans-Serif" font-size="10.00">render_actor_palm_tree</text>
</a>
</g>
</g>
<!-- Node46&#45;&gt;Node74 -->
<g id="edge46_Node000046_Node000074" class="edge">
<title>Node46&#45;&gt;Node74</title>
<g id="a_edge46_Node000046_Node000074"><a xlink:title=" ">
<path fill="none" stroke="#63b8ff" d="M436.15,-866.17C423.77,-895.56 395.72,-950.97 352,-976 287.17,-1013.13 199.51,-1014.18 140.2,-1009.18"/>
<polygon fill="#63b8ff" stroke="#63b8ff" points="439.51,-867.21 440.01,-856.62 433.02,-864.59 439.51,-867.21"/>
</a>
</g>
</g>
<!-- Node86 -->
<g id="Node000086" class="node">
<title>Node86</title>
<g id="a_Node000086"><a xlink:href="actors_8c.html#ad39711a0d6d2b4d1794d36d35b192759" target="_top" xlink:title=" ">
<polygon fill="#fff0f0" stroke="red" points="313.5,-523.5 221.5,-523.5 221.5,-504.5 313.5,-504.5 313.5,-523.5"/>
<text text-anchor="middle" x="267.5" y="-511.5" font-family="Helvetica,sans-Serif" font-size="10.00">func_8029AC18</text>
</a>
</g>
</g>
<!-- Node46&#45;&gt;Node86 -->
<g id="edge32_Node000046_Node000086" class="edge">
<title>Node46&#45;&gt;Node86</title>
<g id="a_edge32_Node000046_Node000086"><a xlink:title=" ">
<path fill="none" stroke="#63b8ff" d="M444.19,-826.98C444.94,-771.23 438.93,-613.02 352,-532 341.69,-522.39 327.54,-517.44 313.81,-515.01"/>
<polygon fill="#63b8ff" stroke="#63b8ff" points="440.68,-827.18 443.95,-837.25 447.68,-827.34 440.68,-827.18"/>
</a>
</g>
</g>
<!-- Node87 -->
<g id="Node000087" class="node">
<title>Node87</title>
<g id="a_Node000087"><a xlink:href="Game_8cpp.html#a1741b8e08fafebe122d78e8702da037f" target="_top" xlink:title=" ">
<polygon fill="white" stroke="#666666" points="310.5,-486.5 224.5,-486.5 224.5,-467.5 310.5,-467.5 310.5,-486.5"/>
<text text-anchor="middle" x="267.5" y="-474.5" font-family="Helvetica,sans-Serif" font-size="10.00">HM_DrawIntro</text>
</a>
</g>
</g>
<!-- Node46&#45;&gt;Node87 -->
<g id="edge33_Node000046_Node000087" class="edge">
<title>Node46&#45;&gt;Node87</title>
<g id="a_edge33_Node000046_Node000087"><a xlink:title=" ">
<path fill="none" stroke="#63b8ff" d="M441.1,-827.36C432.52,-760.35 401.22,-542.2 352,-495 340.97,-484.43 325.3,-479.45 310.51,-477.28"/>
<polygon fill="#63b8ff" stroke="#63b8ff" points="437.65,-827.93 442.36,-837.42 444.59,-827.06 437.65,-827.93"/>
</a>
</g>
</g>
<!-- Node88 -->
<g id="Node000088" class="node">
<title>Node88</title>
<g id="a_Node000088"><a xlink:href="classBansheeBoardwalk.html#a5964a70c120565a07669c19ae791f843" target="_top" xlink:title=" ">
<polygon fill="white" stroke="#666666" points="343,-449.5 192,-449.5 192,-430.5 343,-430.5 343,-449.5"/>
<text text-anchor="middle" x="267.5" y="-437.5" font-family="Helvetica,sans-Serif" font-size="10.00">BansheeBoardwalk::Render</text>
</a>
</g>
</g>
<!-- Node46&#45;&gt;Node88 -->
<g id="edge34_Node000046_Node000088" class="edge">
<title>Node46&#45;&gt;Node88</title>
<g id="a_edge34_Node000046_Node000088"><a xlink:title=" ">
<path fill="none" stroke="#63b8ff" d="M441.6,-827.18C434.33,-755.47 405.93,-510.93 352,-458 348.61,-454.68 344.77,-451.9 340.63,-449.59"/>
<polygon fill="#63b8ff" stroke="#63b8ff" points="438.12,-827.54 442.59,-837.15 445.09,-826.85 438.12,-827.54"/>
</a>
</g>
</g>
<!-- Node89 -->
<g id="Node000089" class="node">
<title>Node89</title>
<g id="a_Node000089"><a xlink:href="banana_2render_8inc_8c.html#ac3081ff11d8481c9ce596f5ad4e35d64" target="_top" xlink:title="Render the banana actor.">
<polygon fill="#fff0f0" stroke="red" points="327,-412.5 208,-412.5 208,-393.5 327,-393.5 327,-412.5"/>
<text text-anchor="middle" x="267.5" y="-400.5" font-family="Helvetica,sans-Serif" font-size="10.00">render_actor_banana</text>
</a>
</g>
</g>
<!-- Node46&#45;&gt;Node89 -->
<g id="edge35_Node000046_Node000089" class="edge">
<title>Node46&#45;&gt;Node89</title>
<g id="a_edge35_Node000046_Node000089"><a xlink:title=" ">
<path fill="none" stroke="#63b8ff" d="M442.05,-827.3C436.05,-751.48 410.74,-479.79 352,-421 345.19,-414.18 336.45,-409.67 327.21,-406.72"/>
<polygon fill="#63b8ff" stroke="#63b8ff" points="438.57,-827.67 442.82,-837.37 445.54,-827.14 438.57,-827.67"/>
</a>
</g>
</g>
<!-- Node91 -->
<g id="Node000091" class="node">
<title>Node91</title>
<g id="a_Node000091"><a xlink:href="box__truck_2render_8inc_8c.html#a959b9756711fe631bb33a7870be5937c" target="_top" xlink:title="Renders the box truck actor. Actor used in Toad&#39;s Turnpike. His update are made in vehicle.">
<polygon fill="#fff0f0" stroke="red" points="333,-375.5 202,-375.5 202,-356.5 333,-356.5 333,-375.5"/>
<text text-anchor="middle" x="267.5" y="-363.5" font-family="Helvetica,sans-Serif" font-size="10.00">render_actor_box_truck</text>
</a>
</g>
</g>
<!-- Node46&#45;&gt;Node91 -->
<g id="edge36_Node000046_Node000091" class="edge">
<title>Node46&#45;&gt;Node91</title>
<g id="a_edge36_Node000046_Node000091"><a xlink:title=" ">
<path fill="none" stroke="#63b8ff" d="M442.4,-827.16C437.57,-747.05 415.5,-448.61 352,-384 346.7,-378.61 340.2,-374.65 333.18,-371.77"/>
<polygon fill="#63b8ff" stroke="#63b8ff" points="438.92,-827.56 442.99,-837.34 445.91,-827.16 438.92,-827.56"/>
</a>
</g>
</g>
<!-- Node92 -->
<g id="Node000092" class="node">
<title>Node92</title>
<g id="a_Node000092"><a xlink:href="car_2render_8inc_8c.html#a9837af3de7840d2a111f72ece195cb32" target="_top" xlink:title="Renders the car actor. Actor used in Toad&#39;s Turnpike. His update are made in vehicle.">
<polygon fill="#fff0f0" stroke="red" points="316.5,-338.5 218.5,-338.5 218.5,-319.5 316.5,-319.5 316.5,-338.5"/>
<text text-anchor="middle" x="267.5" y="-326.5" font-family="Helvetica,sans-Serif" font-size="10.00">render_actor_car</text>
</a>
</g>
</g>
<!-- Node46&#45;&gt;Node92 -->
<g id="edge38_Node000046_Node000092" class="edge">
<title>Node46&#45;&gt;Node92</title>
<g id="a_edge38_Node000046_Node000092"><a xlink:title=" ">
<path fill="none" stroke="#63b8ff" d="M442.72,-827.21C439.01,-743.25 420.33,-417.51 352,-347 342.71,-337.42 329.63,-332.35 316.58,-329.8"/>
<polygon fill="#63b8ff" stroke="#63b8ff" points="439.23,-827.56 443.15,-837.41 446.23,-827.27 439.23,-827.56"/>
</a>
</g>
</g>
<!-- Node93 -->
<g id="Node000093" class="node">
<title>Node93</title>
<g id="a_Node000093"><a xlink:href="cow_2render_8inc_8c.html#a3032e5759fffafb766e96e1991ab0350" target="_top" xlink:title="Renders the cow actor. Actor used in Moo Moo Farm.">
<polygon fill="#fff0f0" stroke="red" points="319,-301.5 216,-301.5 216,-282.5 319,-282.5 319,-301.5"/>
<text text-anchor="middle" x="267.5" y="-289.5" font-family="Helvetica,sans-Serif" font-size="10.00">render_actor_cow</text>
</a>
</g>
</g>
<!-- Node46&#45;&gt;Node93 -->
<g id="edge39_Node000046_Node000093" class="edge">
<title>Node46&#45;&gt;Node93</title>
<g id="a_edge39_Node000046_Node000093"><a xlink:title=" ">
<path fill="none" stroke="#63b8ff" d="M442.98,-826.88C440.29,-738.59 425.08,-386.33 352,-310 343.39,-301 331.43,-295.97 319.26,-293.27"/>
<polygon fill="#63b8ff" stroke="#63b8ff" points="439.49,-827.24 443.27,-837.13 446.49,-827.04 439.49,-827.24"/>
</a>
</g>
</g>
<!-- Node94 -->
<g id="Node000094" class="node">
<title>Node94</title>
<g id="a_Node000094"><a xlink:href="fake__item__box_2render_8inc_8c.html#af266b20983c5e1664e5d15c1e7a952d0" target="_top" xlink:title="Renders the fake item box actor.">
<polygon fill="#fff0f0" stroke="red" points="345,-264.5 190,-264.5 190,-245.5 345,-245.5 345,-264.5"/>
<text text-anchor="middle" x="267.5" y="-252.5" font-family="Helvetica,sans-Serif" font-size="10.00">render_actor_fake_item_box</text>
</a>
</g>
</g>
<!-- Node46&#45;&gt;Node94 -->
<g id="edge40_Node000046_Node000094" class="edge">
<title>Node46&#45;&gt;Node94</title>
<g id="a_edge40_Node000046_Node000094"><a xlink:title=" ">
<path fill="none" stroke="#63b8ff" d="M443.23,-827.27C441.58,-735.96 430.03,-355.38 352,-273 348.84,-269.66 345.22,-266.87 341.3,-264.54"/>
<polygon fill="#63b8ff" stroke="#63b8ff" points="439.73,-827.41 443.39,-837.35 446.73,-827.3 439.73,-827.41"/>
</a>
</g>
</g>
<!-- Node96 -->
<g id="Node000096" class="node">
<title>Node96</title>
<g id="a_Node000096"><a xlink:href="falling__rock_2render_8inc_8c.html#a250e5910700e7f46f258578c256c1d94" target="_top" xlink:title="Renders the falling rock actor. Actor used in Choco Mountain.">
<polygon fill="white" stroke="#666666" points="337.5,-227.5 197.5,-227.5 197.5,-208.5 337.5,-208.5 337.5,-227.5"/>
<text text-anchor="middle" x="267.5" y="-215.5" font-family="Helvetica,sans-Serif" font-size="10.00">render_actor_falling_rock</text>
</a>
</g>
</g>
<!-- Node46&#45;&gt;Node96 -->
<g id="edge41_Node000046_Node000096" class="edge">
<title>Node46&#45;&gt;Node96</title>
<g id="a_edge41_Node000046_Node000096"><a xlink:title=" ">
<path fill="none" stroke="#63b8ff" d="M443.44,-826.92C442.72,-731.43 434.78,-324.23 352,-236 347.94,-231.67 343.11,-228.26 337.85,-225.58"/>
<polygon fill="#63b8ff" stroke="#63b8ff" points="439.94,-827.22 443.49,-837.2 446.94,-827.18 439.94,-827.22"/>
</a>
</g>
</g>
<!-- Node97 -->
<g id="Node000097" class="node">
<title>Node97</title>
<g id="a_Node000097"><a xlink:href="item__box_2render_8inc_8c.html#a7bf536a1640e0324213e474302d4b37f" target="_top" xlink:title="Renders the item box actor.">
<polygon fill="#fff0f0" stroke="red" points="332,-190.5 203,-190.5 203,-171.5 332,-171.5 332,-190.5"/>
<text text-anchor="middle" x="267.5" y="-178.5" font-family="Helvetica,sans-Serif" font-size="10.00">render_actor_item_box</text>
</a>
</g>
</g>
<!-- Node46&#45;&gt;Node97 -->
<g id="edge42_Node000046_Node000097" class="edge">
<title>Node46&#45;&gt;Node97</title>
<g id="a_edge42_Node000046_Node000097"><a xlink:title=" ">
<path fill="none" stroke="#63b8ff" d="M443.63,-826.96C443.83,-728.09 439.66,-293.21 352,-199 346.55,-193.14 339.68,-188.95 332.23,-185.98"/>
<polygon fill="#63b8ff" stroke="#63b8ff" points="440.13,-827.07 443.59,-837.08 447.13,-827.1 440.13,-827.07"/>
</a>
</g>
</g>
<!-- Node98 -->
<g id="Node000098" class="node">
<title>Node98</title>
<g id="a_Node000098"><a xlink:href="kiwano__fruit_2render_8inc_8c.html#a7b9f60e6ea988a135b0c5ce1b6fe61a0" target="_top" xlink:title="Renders the kiwano fruit actor. Actor used in DK&#39;s Jungle Parkway.">
<polygon fill="#fff0f0" stroke="red" points="327,-153 208,-153 208,-123 327,-123 327,-153"/>
<text text-anchor="start" x="216" y="-141" font-family="Helvetica,sans-Serif" font-size="10.00">render_actor_kiwano</text>
<text text-anchor="middle" x="267.5" y="-130" font-family="Helvetica,sans-Serif" font-size="10.00">_fruit</text>
</a>
</g>
</g>
<!-- Node46&#45;&gt;Node98 -->
<g id="edge43_Node000046_Node000098" class="edge">
<title>Node46&#45;&gt;Node98</title>
<g id="a_edge43_Node000046_Node000098"><a xlink:title=" ">
<path fill="none" stroke="#63b8ff" d="M443.67,-826.92C444.1,-724.93 441.05,-265.22 352,-162 345.4,-154.35 336.53,-149.06 327.04,-145.42"/>
<polygon fill="#63b8ff" stroke="#63b8ff" points="440.17,-827.05 443.61,-837.07 447.17,-827.09 440.17,-827.05"/>
</a>
</g>
</g>
<!-- Node99 -->
<g id="Node000099" class="node">
<title>Node99</title>
<g id="a_Node000099"><a xlink:href="mario__sign_2render_8inc_8c.html#abcfb14ec53dc8eecd888faf9eedad475" target="_top" xlink:title="Renders the Mario sign actor. Actor used in Mario Raceway.">
<polygon fill="#fff0f0" stroke="red" points="336,-104.5 199,-104.5 199,-85.5 336,-85.5 336,-104.5"/>
<text text-anchor="middle" x="267.5" y="-92.5" font-family="Helvetica,sans-Serif" font-size="10.00">render_actor_mario_sign</text>
</a>
</g>
</g>
<!-- Node46&#45;&gt;Node99 -->
<g id="edge44_Node000046_Node000099" class="edge">
<title>Node46&#45;&gt;Node99</title>
<g id="a_edge44_Node000046_Node000099"><a xlink:title=" ">
<path fill="none" stroke="#63b8ff" d="M442.38,-827.35C435.87,-716.13 401.45,-168.64 352,-114 347.51,-109.04 342.02,-105.24 336.02,-102.34"/>
<polygon fill="#63b8ff" stroke="#63b8ff" points="438.89,-827.7 442.97,-837.48 445.88,-827.29 438.89,-827.7"/>
</a>
</g>
</g>
<!-- Node100 -->
<g id="Node000100" class="node">
<title>Node100</title>
<g id="a_Node000100"><a xlink:href="paddle__boat_2render_8inc_8c.html#aae368eda51ea5ff8f7f1c30980c968d0" target="_top" xlink:title="Renders the paddle boat actor. Actor used in DK&#39;s Jungle Parkway.">
<polygon fill="#fff0f0" stroke="red" points="339,-67.5 196,-67.5 196,-48.5 339,-48.5 339,-67.5"/>
<text text-anchor="middle" x="267.5" y="-55.5" font-family="Helvetica,sans-Serif" font-size="10.00">render_actor_paddle_boat</text>
</a>
</g>
</g>
<!-- Node46&#45;&gt;Node100 -->
<g id="edge45_Node000046_Node000100" class="edge">
<title>Node46&#45;&gt;Node100</title>
<g id="a_edge45_Node000046_Node000100"><a xlink:title=" ">
<path fill="none" stroke="#63b8ff" d="M442.5,-827.04C436.55,-711.69 404.24,-133.41 352,-76 348.31,-71.94 343.94,-68.68 339.16,-66.07"/>
<polygon fill="#63b8ff" stroke="#63b8ff" points="439.02,-827.44 443.02,-837.25 446.01,-827.09 439.02,-827.44"/>
</a>
</g>
</g>
<!-- Node101 -->
<g id="Node000101" class="node">
<title>Node101</title>
<g id="a_Node000101"><a xlink:href="piranha__plant_2render_8inc_8c.html#a7f6ae1f0bb9e1576559b2faed48c8f7a" target="_top" xlink:title="Renders the piranha plant actor. Actor used in Mario Raceway and Royal Raceway.">
<polygon fill="#fff0f0" stroke="red" points="327.5,-30 207.5,-30 207.5,0 327.5,0 327.5,-30"/>
<text text-anchor="start" x="215.5" y="-18" font-family="Helvetica,sans-Serif" font-size="10.00">render_actor_piranha</text>
<text text-anchor="middle" x="267.5" y="-7" font-family="Helvetica,sans-Serif" font-size="10.00">_plant</text>
</a>
</g>
</g>
<!-- Node46&#45;&gt;Node101 -->
<g id="edge47_Node000046_Node000101" class="edge">
<title>Node46&#45;&gt;Node101</title>
<g id="a_edge47_Node000046_Node000101"><a xlink:title=" ">
<path fill="none" stroke="#63b8ff" d="M442.56,-827.25C436.8,-709.35 404.65,-101.27 352,-39 345.57,-31.4 336.91,-26.12 327.59,-22.47"/>
<polygon fill="#63b8ff" stroke="#63b8ff" points="439.07,-827.55 443.05,-837.36 446.06,-827.21 439.07,-827.55"/>
</a>
</g>
</g>
<!-- Node102 -->
<g id="Node000102" class="node">
<title>Node102</title>
<g id="a_Node000102"><a xlink:href="railroad__crossing_2render_8inc_8c.html#af46eb6e934ce3e283872f68ac3140493" target="_top" xlink:title="Renders the railroad crossing actor. Actor used in Kalimari Desert.">
<polygon fill="#fff0f0" stroke="red" points="328,-1685 207,-1685 207,-1655 328,-1655 328,-1685"/>
<text text-anchor="start" x="215" y="-1673" font-family="Helvetica,sans-Serif" font-size="10.00">render_actor_railroad</text>
<text text-anchor="middle" x="267.5" y="-1662" font-family="Helvetica,sans-Serif" font-size="10.00">_crossing</text>
</a>
</g>
</g>
<!-- Node46&#45;&gt;Node102 -->
<g id="edge48_Node000046_Node000102" class="edge">
<title>Node46&#45;&gt;Node102</title>
<g id="a_edge48_Node000046_Node000102"><a xlink:title=" ">
<path fill="none" stroke="#63b8ff" d="M442.55,-866.53C436.69,-983.12 404.11,-1584.44 352,-1646 345.67,-1653.48 337.16,-1658.71 328.01,-1662.35"/>
<polygon fill="#63b8ff" stroke="#63b8ff" points="446.04,-866.69 443.04,-856.53 439.05,-866.34 446.04,-866.69"/>
</a>
</g>
</g>
<!-- Node103 -->
<g id="Node000103" class="node">
<title>Node103</title>
<g id="a_Node000103"><a xlink:href="school__bus_2render_8inc_8c.html#a720ce0b0a4f510df57259a76e88045cf" target="_top" xlink:title="Renders the school bus actor. Actor used in Toad&#39;s Turnpike. His update are made in vehicle.">
<polygon fill="#fff0f0" stroke="red" points="336,-1636.5 199,-1636.5 199,-1617.5 336,-1617.5 336,-1636.5"/>
<text text-anchor="middle" x="267.5" y="-1624.5" font-family="Helvetica,sans-Serif" font-size="10.00">render_actor_school_bus</text>
</a>
</g>
</g>
<!-- Node46&#45;&gt;Node103 -->
<g id="edge49_Node000046_Node000103" class="edge">
<title>Node46&#45;&gt;Node103</title>
<g id="a_edge49_Node000046_Node000103"><a xlink:title=" ">
<path fill="none" stroke="#63b8ff" d="M442.48,-866.72C436.44,-980.74 403.68,-1552.29 352,-1609 347.51,-1613.93 342.01,-1617.69 336.01,-1620.53"/>
<polygon fill="#63b8ff" stroke="#63b8ff" points="445.98,-866.81 443.01,-856.64 438.99,-866.44 445.98,-866.81"/>
</a>
</g>
</g>
<!-- Node68 -->
<g id="Node000068" class="node">
<title>Node68</title>
<g id="a_Node000068"><a xlink:href="actors_8c.html#a244363eb20e950ed94944be1c768a37c" target="_top" xlink:title=" ">
<polygon fill="#fff0f0" stroke="red" points="321,-1599.5 214,-1599.5 214,-1580.5 321,-1580.5 321,-1599.5"/>
<text text-anchor="middle" x="267.5" y="-1587.5" font-family="Helvetica,sans-Serif" font-size="10.00">render_actor_shell</text>
</a>
</g>
</g>
<!-- Node46&#45;&gt;Node68 -->
<g id="edge50_Node000046_Node000068" class="edge">
<title>Node46&#45;&gt;Node68</title>
<g id="a_edge50_Node000046_Node000068"><a xlink:title=" ">
<path fill="none" stroke="#63b8ff" d="M442.34,-866.76C435.68,-977.4 400.85,-1517.11 352,-1571 344.01,-1579.81 332.86,-1584.97 321.31,-1587.9"/>
<polygon fill="#63b8ff" stroke="#63b8ff" points="445.84,-866.85 442.94,-856.66 438.85,-866.44 445.84,-866.85"/>
</a>
</g>
</g>
<!-- Node104 -->
<g id="Node000104" class="node">
<title>Node104</title>
<g id="a_Node000104"><a xlink:href="tanker__truck_2render_8inc_8c.html#a946fd8f61348549cfb60bf8a480baad3" target="_top" xlink:title="Renders the tanker truck actor. Actor used in Toad&#39;s Turnpike. His update are made in vehicle.">
<polygon fill="#fff0f0" stroke="red" points="324.5,-1562 210.5,-1562 210.5,-1532 324.5,-1532 324.5,-1562"/>
<text text-anchor="start" x="218.5" y="-1550" font-family="Helvetica,sans-Serif" font-size="10.00">render_actor_tanker</text>
<text text-anchor="middle" x="267.5" y="-1539" font-family="Helvetica,sans-Serif" font-size="10.00">_truck</text>
</a>
</g>
</g>
<!-- Node46&#45;&gt;Node104 -->
<g id="edge51_Node000046_Node000104" class="edge">
<title>Node46&#45;&gt;Node104</title>
<g id="a_edge51_Node000046_Node000104"><a xlink:title=" ">
<path fill="none" stroke="#63b8ff" d="M443.63,-866.82C443.87,-967.47 439.99,-1421.19 352,-1523 344.9,-1531.22 335.19,-1536.71 324.89,-1540.36"/>
<polygon fill="#63b8ff" stroke="#63b8ff" points="447.13,-866.78 443.59,-856.8 440.13,-866.81 447.13,-866.78"/>
</a>
</g>
</g>
<!-- Node105 -->
<g id="Node000105" class="node">
<title>Node105</title>
<g id="a_Node000105"><a xlink:href="train_2render_8inc_8c.html#a3732523ca7fda5d43b6df198fc1fccf8" target="_top" xlink:title="Renders the train engine actor. Actor used in Kalimari Desert. His update position are made in vehicl...">
<polygon fill="#fff0f0" stroke="red" points="320.5,-1514 214.5,-1514 214.5,-1484 320.5,-1484 320.5,-1514"/>
<text text-anchor="start" x="222.5" y="-1502" font-family="Helvetica,sans-Serif" font-size="10.00">render_actor_train</text>
<text text-anchor="middle" x="267.5" y="-1491" font-family="Helvetica,sans-Serif" font-size="10.00">_engine</text>
</a>
</g>
</g>
<!-- Node46&#45;&gt;Node105 -->
<g id="edge52_Node000046_Node000105" class="edge">
<title>Node46&#45;&gt;Node105</title>
<g id="a_edge52_Node000046_Node000105"><a xlink:title=" ">
<path fill="none" stroke="#63b8ff" d="M443.4,-866.6C442.53,-962.47 434,-1381.09 352,-1475 343.86,-1484.32 332.37,-1490.13 320.51,-1493.72"/>
<polygon fill="#63b8ff" stroke="#63b8ff" points="446.9,-866.58 443.48,-856.56 439.9,-866.53 446.9,-866.58"/>
</a>
</g>
</g>
<!-- Node106 -->
<g id="Node000106" class="node">
<title>Node106</title>
<g id="a_Node000106"><a xlink:href="train_2render_8inc_8c.html#a850ce2fa157704a3d8412f96ec5d3b98" target="_top" xlink:title=" ">
<polygon fill="#fff0f0" stroke="red" points="320.5,-1466 214.5,-1466 214.5,-1436 320.5,-1436 320.5,-1466"/>
<text text-anchor="start" x="222.5" y="-1454" font-family="Helvetica,sans-Serif" font-size="10.00">render_actor_train</text>
<text text-anchor="middle" x="267.5" y="-1443" font-family="Helvetica,sans-Serif" font-size="10.00">_passenger_car</text>
</a>
</g>
</g>
<!-- Node46&#45;&gt;Node106 -->
<g id="edge53_Node000046_Node000106" class="edge">
<title>Node46&#45;&gt;Node106</title>
<g id="a_edge53_Node000046_Node000106"><a xlink:title=" ">
<path fill="none" stroke="#63b8ff" d="M443.01,-866.56C440.35,-957.11 424.97,-1334.86 352,-1422 343.92,-1431.65 332.45,-1438.09 320.59,-1442.39"/>
<polygon fill="#63b8ff" stroke="#63b8ff" points="446.51,-866.66 443.28,-856.56 439.51,-866.46 446.51,-866.66"/>
</a>
</g>
</g>
<!-- Node66&#45;&gt;Node54 -->
<g id="edge29_Node000066_Node000054" class="edge">
<title>Node66&#45;&gt;Node54</title>
<g id="a_edge29_Node000066_Node000054"><a xlink:title=" ">
<path fill="none" stroke="#63b8ff" d="M211.26,-1078.9C178.89,-1082.95 138.92,-1087.95 110.57,-1091.49"/>
<polygon fill="#63b8ff" stroke="#63b8ff" points="212,-1082.34 221.48,-1077.63 211.13,-1075.39 212,-1082.34"/>
</a>
</g>
</g>
<!-- Node66&#45;&gt;Node73 -->
<g id="edge30_Node000066_Node000073" class="edge">
<title>Node66&#45;&gt;Node73</title>
<g id="a_edge30_Node000066_Node000073"><a xlink:title=" ">
<path fill="none" stroke="#63b8ff" d="M211.3,-1065.67C191.27,-1063.38 168.33,-1060.75 147.03,-1058.31"/>
<polygon fill="#63b8ff" stroke="#63b8ff" points="211.15,-1069.18 221.48,-1066.84 211.95,-1062.23 211.15,-1069.18"/>
</a>
</g>
</g>
<!-- Node66&#45;&gt;Node74 -->
<g id="edge31_Node000066_Node000074" class="edge">
<title>Node66&#45;&gt;Node74</title>
<g id="a_edge31_Node000066_Node000074"><a xlink:title=" ">
<path fill="none" stroke="#63b8ff" d="M232.97,-1058.85C209.06,-1049.54 176.12,-1036.82 147,-1026 132.08,-1020.46 115.37,-1014.45 101.75,-1009.61"/>
<polygon fill="#63b8ff" stroke="#63b8ff" points="231.71,-1062.12 242.3,-1062.5 234.26,-1055.6 231.71,-1062.12"/>
</a>
</g>
</g>
</g>
</svg>
