<?xml version="1.0" encoding="UTF-8" standalone="no"?>
<!DOCTYPE svg PUBLIC "-//W3C//DTD SVG 1.1//EN"
 "http://www.w3.org/Graphics/SVG/1.1/DTD/svg11.dtd">
<!-- Generated by graphviz version 2.43.0 (0)
 -->
<!-- Title: func_80094660 Pages: 1 -->
<svg width="796pt" height="298pt"
 viewBox="0.00 0.00 796.00 298.00" xmlns="http://www.w3.org/2000/svg" xmlns:xlink="http://www.w3.org/1999/xlink">
<g id="graph0" class="graph" transform="scale(1 1) rotate(0) translate(4 294)">
<title>func_80094660</title>
<!-- Node1 -->
<g id="Node000001" class="node">
<title>Node1</title>
<g id="a_Node000001"><a xlink:title=" ">
<polygon fill="#999999" stroke="#666666" points="91,-195 0,-195 0,-176 91,-176 91,-195"/>
<text text-anchor="middle" x="45.5" y="-183" font-family="Helvetica,sans-Serif" font-size="10.00">func_80094660</text>
</a>
</g>
</g>
<!-- Node2 -->
<g id="Node000002" class="node">
<title>Node2</title>
<g id="a_Node000002"><a xlink:href="menu__items_8c.html#adbd28a1b1d900463cb8b1fb645179c71" target="_top" xlink:title=" ">
<polygon fill="white" stroke="#666666" points="234,-214 142,-214 142,-195 234,-195 234,-214"/>
<text text-anchor="middle" x="188" y="-202" font-family="Helvetica,sans-Serif" font-size="10.00">func_800942D0</text>
</a>
</g>
</g>
<!-- Node1&#45;&gt;Node2 -->
<g id="edge1_Node000001_Node000002" class="edge">
<title>Node1&#45;&gt;Node2</title>
<g id="a_edge1_Node000001_Node000002"><a xlink:title=" ">
<path fill="none" stroke="#63b8ff" d="M91.34,-191.56C104.14,-193.29 118.24,-195.2 131.59,-197.01"/>
<polygon fill="#63b8ff" stroke="#63b8ff" points="131.24,-200.49 141.62,-198.36 132.18,-193.55 131.24,-200.49"/>
</a>
</g>
</g>
<!-- Node3 -->
<g id="Node000003" class="node">
<title>Node3</title>
<g id="a_Node000003"><a xlink:href="Matrix_8cpp.html#acacd5a06b0529a80220125925294944f" target="_top" xlink:title=" ">
<polygon fill="white" stroke="#666666" points="384,-290 285,-290 285,-271 384,-271 384,-290"/>
<text text-anchor="middle" x="334.5" y="-278" font-family="Helvetica,sans-Serif" font-size="10.00">GetLookAtMatrix</text>
</a>
</g>
</g>
<!-- Node1&#45;&gt;Node3 -->
<g id="edge22_Node000001_Node000003" class="edge">
<title>Node1&#45;&gt;Node3</title>
<g id="a_edge22_Node000001_Node000003"><a xlink:title=" ">
<path fill="none" stroke="#63b8ff" d="M55.9,-195.14C69.98,-208.94 98,-234.04 127,-246.5 174.18,-266.77 232.22,-275.02 274.73,-278.35"/>
<polygon fill="#63b8ff" stroke="#63b8ff" points="274.7,-281.86 284.92,-279.07 275.19,-274.87 274.7,-281.86"/>
</a>
</g>
</g>
<!-- Node4 -->
<g id="Node000004" class="node">
<title>Node4</title>
<g id="a_Node000004"><a xlink:href="Matrix_8cpp.html#a01fc250c2f6e1cd103c61068f9168032" target="_top" xlink:title=" ">
<polygon fill="white" stroke="#666666" points="380.5,-253 288.5,-253 288.5,-234 380.5,-234 380.5,-253"/>
<text text-anchor="middle" x="334.5" y="-241" font-family="Helvetica,sans-Serif" font-size="10.00">GetPerspMatrix</text>
</a>
</g>
</g>
<!-- Node1&#45;&gt;Node4 -->
<g id="edge23_Node000001_Node000004" class="edge">
<title>Node1&#45;&gt;Node4</title>
<g id="a_edge23_Node000001_Node000004"><a xlink:title=" ">
<path fill="none" stroke="#63b8ff" d="M62.51,-195.09C78.31,-204.06 103.46,-217.02 127,-223.5 177.04,-237.29 236.19,-241.89 278.32,-243.28"/>
<polygon fill="#63b8ff" stroke="#63b8ff" points="278.29,-246.78 288.39,-243.56 278.49,-239.78 278.29,-246.78"/>
</a>
</g>
</g>
<!-- Node20 -->
<g id="Node000020" class="node">
<title>Node20</title>
<g id="a_Node000020"><a xlink:href="guLookAtF_8c.html#a8641b89f7767fe85370ca7d198ef5566" target="_top" xlink:title=" ">
<polygon fill="white" stroke="#666666" points="365.5,-68 303.5,-68 303.5,-49 365.5,-49 365.5,-68"/>
<text text-anchor="middle" x="334.5" y="-56" font-family="Helvetica,sans-Serif" font-size="10.00">guLookAt</text>
</a>
</g>
</g>
<!-- Node1&#45;&gt;Node20 -->
<g id="edge24_Node000001_Node000020" class="edge">
<title>Node1&#45;&gt;Node20</title>
<g id="a_edge24_Node000001_Node000020"><a xlink:title=" ">
<path fill="none" stroke="#63b8ff" d="M62.37,-175.95C78.28,-166.68 103.69,-152.71 127,-143.5 179.35,-122.81 199.79,-136.82 249,-109.5 267.98,-98.96 266.48,-87.82 285,-76.5 287.84,-74.77 290.86,-73.16 293.97,-71.68"/>
<polygon fill="#63b8ff" stroke="#63b8ff" points="295.62,-74.78 303.41,-67.6 292.84,-68.35 295.62,-74.78"/>
</a>
</g>
</g>
<!-- Node22 -->
<g id="Node000022" class="node">
<title>Node22</title>
<g id="a_Node000022"><a xlink:href="guPerspectiveF_8c.html#ac2050885d6967becf0e5e3bb3e54bd08" target="_top" xlink:title=" ">
<polygon fill="white" stroke="#666666" points="377.5,-142 291.5,-142 291.5,-123 377.5,-123 377.5,-142"/>
<text text-anchor="middle" x="334.5" y="-130" font-family="Helvetica,sans-Serif" font-size="10.00">guPerspective</text>
</a>
</g>
</g>
<!-- Node1&#45;&gt;Node22 -->
<g id="edge30_Node000001_Node000022" class="edge">
<title>Node1&#45;&gt;Node22</title>
<g id="a_edge30_Node000001_Node000022"><a xlink:title=" ">
<path fill="none" stroke="#63b8ff" d="M91.03,-177.28C142.36,-167.8 226.62,-152.24 281.07,-142.18"/>
<polygon fill="#63b8ff" stroke="#63b8ff" points="282.01,-145.57 291.21,-140.31 280.74,-138.68 282.01,-145.57"/>
</a>
</g>
</g>
<!-- Node24 -->
<g id="Node000024" class="node">
<title>Node24</title>
<g id="a_Node000024"><a xlink:href="memory_8c.html#a7c0c87d5c791d9405698582f9128f4ec" target="_top" xlink:title=" ">
<polygon fill="white" stroke="#666666" points="249,-100.5 127,-100.5 127,-70.5 249,-70.5 249,-100.5"/>
<text text-anchor="start" x="135" y="-88.5" font-family="Helvetica,sans-Serif" font-size="10.00">move_segment_table</text>
<text text-anchor="middle" x="188" y="-77.5" font-family="Helvetica,sans-Serif" font-size="10.00">_to_dmem</text>
</a>
</g>
</g>
<!-- Node1&#45;&gt;Node24 -->
<g id="edge37_Node000001_Node000024" class="edge">
<title>Node1&#45;&gt;Node24</title>
<g id="a_edge37_Node000001_Node000024"><a xlink:title=" ">
<path fill="none" stroke="#63b8ff" d="M55.71,-175.84C69.98,-161.24 98.75,-133.27 127,-114.5 131.94,-111.22 137.3,-108.09 142.73,-105.18"/>
<polygon fill="#63b8ff" stroke="#63b8ff" points="144.54,-108.18 151.85,-100.51 141.35,-101.95 144.54,-108.18"/>
</a>
</g>
</g>
<!-- Node2&#45;&gt;Node3 -->
<g id="edge2_Node000002_Node000003" class="edge">
<title>Node2&#45;&gt;Node3</title>
<g id="a_edge2_Node000002_Node000003"><a xlink:title=" ">
<path fill="none" stroke="#63b8ff" d="M202.85,-214.01C221.1,-226.28 254.48,-247.78 285,-262.5 288.35,-264.12 291.89,-265.68 295.46,-267.17"/>
<polygon fill="#63b8ff" stroke="#63b8ff" points="294.33,-270.48 304.92,-270.91 296.9,-263.98 294.33,-270.48"/>
</a>
</g>
</g>
<!-- Node2&#45;&gt;Node4 -->
<g id="edge3_Node000002_Node000004" class="edge">
<title>Node2&#45;&gt;Node4</title>
<g id="a_edge3_Node000002_Node000004"><a xlink:title=" ">
<path fill="none" stroke="#63b8ff" d="M224.35,-214.04C243.66,-219.25 267.79,-225.76 288.44,-231.34"/>
<polygon fill="#63b8ff" stroke="#63b8ff" points="287.7,-234.76 298.27,-233.99 289.52,-228.01 287.7,-234.76"/>
</a>
</g>
</g>
<!-- Node5 -->
<g id="Node000005" class="node">
<title>Node5</title>
<g id="a_Node000005"><a xlink:href="GBIMiddleware_8cpp.html#a4ecc44e3c6f1ca5a6b4a20c41d3bd2d2" target="_top" xlink:title=" ">
<polygon fill="white" stroke="#666666" points="379,-216 290,-216 290,-197 379,-197 379,-216"/>
<text text-anchor="middle" x="334.5" y="-204" font-family="Helvetica,sans-Serif" font-size="10.00">gSPDisplayList</text>
</a>
</g>
</g>
<!-- Node2&#45;&gt;Node5 -->
<g id="edge4_Node000002_Node000005" class="edge">
<title>Node2&#45;&gt;Node5</title>
<g id="a_edge4_Node000002_Node000005"><a xlink:title=" ">
<path fill="none" stroke="#63b8ff" d="M234.32,-205.13C248.72,-205.33 264.77,-205.55 279.7,-205.76"/>
<polygon fill="#63b8ff" stroke="#63b8ff" points="279.77,-209.26 289.82,-205.9 279.87,-202.26 279.77,-209.26"/>
</a>
</g>
</g>
<!-- Node8 -->
<g id="Node000008" class="node">
<title>Node8</title>
<g id="a_Node000008"><a xlink:href="guRotateF_8c.html#a98ec2e0b2831b168feffd49493a08134" target="_top" xlink:title=" ">
<polygon fill="white" stroke="#666666" points="365,-179 304,-179 304,-160 365,-160 365,-179"/>
<text text-anchor="middle" x="334.5" y="-167" font-family="Helvetica,sans-Serif" font-size="10.00">guRotate</text>
</a>
</g>
</g>
<!-- Node2&#45;&gt;Node8 -->
<g id="edge7_Node000002_Node000008" class="edge">
<title>Node2&#45;&gt;Node8</title>
<g id="a_edge7_Node000002_Node000008"><a xlink:title=" ">
<path fill="none" stroke="#63b8ff" d="M228.49,-194.94C248.79,-190.02 273.47,-184.04 293.8,-179.12"/>
<polygon fill="#63b8ff" stroke="#63b8ff" points="294.8,-182.48 303.69,-176.72 293.15,-175.67 294.8,-182.48"/>
</a>
</g>
</g>
<!-- Node18 -->
<g id="Node000018" class="node">
<title>Node18</title>
<g id="a_Node000018"><a xlink:href="guScaleF_8c.html#a42e27e884f27d0dd332f140ef599b723" target="_top" xlink:title=" ">
<polygon fill="white" stroke="#666666" points="362,-105 307,-105 307,-86 362,-86 362,-105"/>
<text text-anchor="middle" x="334.5" y="-93" font-family="Helvetica,sans-Serif" font-size="10.00">guScale</text>
</a>
</g>
</g>
<!-- Node2&#45;&gt;Node18 -->
<g id="edge17_Node000002_Node000018" class="edge">
<title>Node2&#45;&gt;Node18</title>
<g id="a_edge17_Node000002_Node000018"><a xlink:title=" ">
<path fill="none" stroke="#63b8ff" d="M198.3,-194.91C218.43,-174.29 265.78,-126.64 285,-114.5 288.89,-112.04 293.15,-109.81 297.48,-107.82"/>
<polygon fill="#63b8ff" stroke="#63b8ff" points="299.09,-110.93 306.95,-103.82 296.37,-104.48 299.09,-110.93"/>
</a>
</g>
</g>
<!-- Node6 -->
<g id="Node000006" class="node">
<title>Node6</title>
<g id="a_Node000006"><a xlink:href="Engine_8cpp.html#a223c8bc63f228dc11177515e38eff2db" target="_top" xlink:title=" ">
<polygon fill="white" stroke="#666666" points="569,-268 420,-268 420,-249 569,-249 569,-268"/>
<text text-anchor="middle" x="494.5" y="-256" font-family="Helvetica,sans-Serif" font-size="10.00">GameEngine_OTRSigCheck</text>
</a>
</g>
</g>
<!-- Node5&#45;&gt;Node6 -->
<g id="edge5_Node000005_Node000006" class="edge">
<title>Node5&#45;&gt;Node6</title>
<g id="a_edge5_Node000005_Node000006"><a xlink:title=" ">
<path fill="none" stroke="#63b8ff" d="M364.48,-216.04C389.79,-224.37 426.74,-236.53 454.62,-245.7"/>
<polygon fill="#63b8ff" stroke="#63b8ff" points="453.84,-249.13 464.44,-248.93 456.03,-242.48 453.84,-249.13"/>
</a>
</g>
</g>
<!-- Node7 -->
<g id="Node000007" class="node">
<title>Node7</title>
<g id="a_Node000007"><a xlink:href="string_8c.html#a008e171a518fe0e0352f31b245e03875" target="_top" xlink:title=" ">
<polygon fill="white" stroke="#666666" points="681,-268 637,-268 637,-249 681,-249 681,-268"/>
<text text-anchor="middle" x="659" y="-256" font-family="Helvetica,sans-Serif" font-size="10.00">strlen</text>
</a>
</g>
</g>
<!-- Node6&#45;&gt;Node7 -->
<g id="edge6_Node000006_Node000007" class="edge">
<title>Node6&#45;&gt;Node7</title>
<g id="a_edge6_Node000006_Node000007"><a xlink:title=" ">
<path fill="none" stroke="#63b8ff" d="M569.14,-258.5C589.4,-258.5 610.28,-258.5 626.72,-258.5"/>
<polygon fill="#63b8ff" stroke="#63b8ff" points="626.82,-262 636.82,-258.5 626.82,-255 626.82,-262"/>
</a>
</g>
</g>
<!-- Node9 -->
<g id="Node000009" class="node">
<title>Node9</title>
<g id="a_Node000009"><a xlink:href="FrameInterpolation_8cpp.html#a8cf1f2d6fabc6925aa71a9515341b4aa" target="_top" xlink:title=" ">
<polygon fill="white" stroke="#666666" points="564.5,-104.5 424.5,-104.5 424.5,-74.5 564.5,-74.5 564.5,-104.5"/>
<text text-anchor="start" x="432.5" y="-92.5" font-family="Helvetica,sans-Serif" font-size="10.00">FrameInterpolation</text>
<text text-anchor="middle" x="494.5" y="-81.5" font-family="Helvetica,sans-Serif" font-size="10.00">_RecordMatrixMtxFToMtx</text>
</a>
</g>
</g>
<!-- Node8&#45;&gt;Node9 -->
<g id="edge8_Node000008_Node000009" class="edge">
<title>Node8&#45;&gt;Node9</title>
<g id="a_edge8_Node000008_Node000009"><a xlink:title=" ">
<path fill="none" stroke="#63b8ff" d="M365.23,-160.84C371.68,-158.32 378.28,-155.22 384,-151.5 403.23,-138.98 400.6,-126.75 420,-114.5 423.3,-112.41 426.8,-110.48 430.4,-108.69"/>
<polygon fill="#63b8ff" stroke="#63b8ff" points="431.89,-111.86 439.54,-104.53 428.99,-105.49 431.89,-111.86"/>
</a>
</g>
</g>
<!-- Node11 -->
<g id="Node000011" class="node">
<title>Node11</title>
<g id="a_Node000011"><a xlink:href="guMtxF2L_8c.html#a40ab2d64c609839ff1e0ef0de2d0dcc4" target="_top" xlink:title=" ">
<polygon fill="white" stroke="#666666" points="527,-142 462,-142 462,-123 527,-123 527,-142"/>
<text text-anchor="middle" x="494.5" y="-130" font-family="Helvetica,sans-Serif" font-size="10.00">guMtxF2L</text>
</a>
</g>
</g>
<!-- Node8&#45;&gt;Node11 -->
<g id="edge10_Node000008_Node000011" class="edge">
<title>Node8&#45;&gt;Node11</title>
<g id="a_edge10_Node000008_Node000011"><a xlink:title=" ">
<path fill="none" stroke="#63b8ff" d="M365.22,-162.54C389.63,-156.82 424.5,-148.66 451.72,-142.28"/>
<polygon fill="#63b8ff" stroke="#63b8ff" points="452.81,-145.62 461.75,-139.94 451.21,-138.81 452.81,-145.62"/>
</a>
</g>
</g>
<!-- Node12 -->
<g id="Node000012" class="node">
<title>Node12</title>
<g id="a_Node000012"><a xlink:href="guRotateF_8c.html#a6bf4235e1732340bfcbde49454bd63ff" target="_top" xlink:title=" ">
<polygon fill="white" stroke="#666666" points="528,-216 461,-216 461,-197 528,-197 528,-216"/>
<text text-anchor="middle" x="494.5" y="-204" font-family="Helvetica,sans-Serif" font-size="10.00">guRotateF</text>
</a>
</g>
</g>
<!-- Node8&#45;&gt;Node12 -->
<g id="edge11_Node000008_Node000012" class="edge">
<title>Node8&#45;&gt;Node12</title>
<g id="a_edge11_Node000008_Node000012"><a xlink:title=" ">
<path fill="none" stroke="#63b8ff" d="M365.22,-176.46C389.39,-182.12 423.82,-190.18 450.93,-196.53"/>
<polygon fill="#63b8ff" stroke="#63b8ff" points="450.38,-200 460.92,-198.87 451.98,-193.18 450.38,-200"/>
</a>
</g>
</g>
<!-- Node10 -->
<g id="Node000010" class="node">
<title>Node10</title>
<g id="a_Node000010"><a xlink:href="FrameInterpolation_8cpp.html#a02c7ac5342a4d376edee38f312b480bf" target="_top" xlink:title=" ">
<polygon fill="white" stroke="#666666" points="713,-83 605,-83 605,-64 713,-64 713,-83"/>
<text text-anchor="middle" x="659" y="-71" font-family="Helvetica,sans-Serif" font-size="10.00">check_if_recording</text>
</a>
</g>
</g>
<!-- Node9&#45;&gt;Node10 -->
<g id="edge9_Node000009_Node000010" class="edge">
<title>Node9&#45;&gt;Node10</title>
<g id="a_edge9_Node000009_Node000010"><a xlink:title=" ">
<path fill="none" stroke="#63b8ff" d="M564.89,-82.67C574.75,-81.7 584.84,-80.7 594.58,-79.74"/>
<polygon fill="#63b8ff" stroke="#63b8ff" points="594.97,-83.22 604.58,-78.76 594.28,-76.26 594.97,-83.22"/>
</a>
</g>
</g>
<!-- Node13 -->
<g id="Node000013" class="node">
<title>Node13</title>
<g id="a_Node000013"><a xlink:href="cosf_8c.html#a7b126b2344591e649c21c9ab0b8adb40" target="_top" xlink:title=" ">
<polygon fill="white" stroke="#666666" points="677.5,-157 640.5,-157 640.5,-138 677.5,-138 677.5,-157"/>
<text text-anchor="middle" x="659" y="-145" font-family="Helvetica,sans-Serif" font-size="10.00">cosf</text>
</a>
</g>
</g>
<!-- Node12&#45;&gt;Node13 -->
<g id="edge12_Node000012_Node000013" class="edge">
<title>Node12&#45;&gt;Node13</title>
<g id="a_edge12_Node000012_Node000013"><a xlink:title=" ">
<path fill="none" stroke="#63b8ff" d="M528.02,-200.79C541.05,-197.93 556.02,-193.9 569,-188.5 586.31,-181.3 588.09,-174.59 605,-166.5 613.15,-162.6 622.32,-159.04 630.72,-156.08"/>
<polygon fill="#63b8ff" stroke="#63b8ff" points="632.1,-159.31 640.45,-152.79 629.86,-152.68 632.1,-159.31"/>
</a>
</g>
</g>
<!-- Node14 -->
<g id="Node000014" class="node">
<title>Node14</title>
<g id="a_Node000014"><a xlink:href="guMtxF2L_8c.html#a257a86497fc08677370948eda3163595" target="_top" xlink:title=" ">
<polygon fill="white" stroke="#666666" points="698,-120 620,-120 620,-101 698,-101 698,-120"/>
<text text-anchor="middle" x="659" y="-108" font-family="Helvetica,sans-Serif" font-size="10.00">guMtxIdentF</text>
</a>
</g>
</g>
<!-- Node12&#45;&gt;Node14 -->
<g id="edge13_Node000012_Node000014" class="edge">
<title>Node12&#45;&gt;Node14</title>
<g id="a_edge13_Node000012_Node000014"><a xlink:title=" ">
<path fill="none" stroke="#63b8ff" d="M528.2,-204C541.85,-201.64 557.23,-197.11 569,-188.5 593.79,-170.36 581.18,-148.9 605,-129.5 607.06,-127.83 609.27,-126.29 611.59,-124.89"/>
<polygon fill="#63b8ff" stroke="#63b8ff" points="613.62,-127.78 620.92,-120.1 610.42,-121.56 613.62,-127.78"/>
</a>
</g>
</g>
<!-- Node15 -->
<g id="Node000015" class="node">
<title>Node15</title>
<g id="a_Node000015"><a xlink:href="guNormalize_8c.html#a7ad49cccf7be1e598544b9f0b35b5e28" target="_top" xlink:title=" ">
<polygon fill="white" stroke="#666666" points="698.5,-231 619.5,-231 619.5,-212 698.5,-212 698.5,-231"/>
<text text-anchor="middle" x="659" y="-219" font-family="Helvetica,sans-Serif" font-size="10.00">guNormalize</text>
</a>
</g>
</g>
<!-- Node12&#45;&gt;Node15 -->
<g id="edge14_Node000012_Node000015" class="edge">
<title>Node12&#45;&gt;Node15</title>
<g id="a_edge14_Node000012_Node000015"><a xlink:title=" ">
<path fill="none" stroke="#63b8ff" d="M528.38,-209.54C551.64,-211.68 583.2,-214.6 609.35,-217.01"/>
<polygon fill="#63b8ff" stroke="#63b8ff" points="609.17,-220.51 619.45,-217.94 609.82,-213.54 609.17,-220.51"/>
</a>
</g>
</g>
<!-- Node17 -->
<g id="Node000017" class="node">
<title>Node17</title>
<g id="a_Node000017"><a xlink:href="sinf_8c.html#a8a7dc2a88e109f4e15b661247665709a" target="_top" xlink:title=" ">
<polygon fill="white" stroke="#666666" points="676.5,-194 641.5,-194 641.5,-175 676.5,-175 676.5,-194"/>
<text text-anchor="middle" x="659" y="-182" font-family="Helvetica,sans-Serif" font-size="10.00">sinf</text>
</a>
</g>
</g>
<!-- Node12&#45;&gt;Node17 -->
<g id="edge16_Node000012_Node000017" class="edge">
<title>Node12&#45;&gt;Node17</title>
<g id="a_edge16_Node000012_Node000017"><a xlink:title=" ">
<path fill="none" stroke="#63b8ff" d="M528.38,-202.05C558.65,-197.95 602.98,-191.95 631.16,-188.13"/>
<polygon fill="#63b8ff" stroke="#63b8ff" points="631.67,-191.6 641.11,-186.79 630.73,-184.66 631.67,-191.6"/>
</a>
</g>
</g>
<!-- Node16 -->
<g id="Node000016" class="node">
<title>Node16</title>
<g id="a_Node000016"><a xlink:href="math_8h.html#a37bde043e94a6f074c78f10518fb5d99" target="_top" xlink:title=" ">
<polygon fill="white" stroke="#666666" points="788,-133 749,-133 749,-114 788,-114 788,-133"/>
<text text-anchor="middle" x="768.5" y="-121" font-family="Helvetica,sans-Serif" font-size="10.00">sqrtf</text>
</a>
</g>
</g>
<!-- Node15&#45;&gt;Node16 -->
<g id="edge15_Node000015_Node000016" class="edge">
<title>Node15&#45;&gt;Node16</title>
<g id="a_edge15_Node000015_Node000016"><a xlink:title=" ">
<path fill="none" stroke="#63b8ff" d="M698.02,-211.98C703.34,-209.7 708.51,-206.91 713,-203.5 734.23,-187.35 750.09,-160.47 759.07,-142.38"/>
<polygon fill="#63b8ff" stroke="#63b8ff" points="762.34,-143.66 763.45,-133.12 756.01,-140.66 762.34,-143.66"/>
</a>
</g>
</g>
<!-- Node18&#45;&gt;Node9 -->
<g id="edge18_Node000018_Node000009" class="edge">
<title>Node18&#45;&gt;Node9</title>
<g id="a_edge18_Node000018_Node000009"><a xlink:title=" ">
<path fill="none" stroke="#63b8ff" d="M362.3,-94.48C376.78,-93.93 395.49,-93.22 414.23,-92.51"/>
<polygon fill="#63b8ff" stroke="#63b8ff" points="414.44,-96 424.3,-92.13 414.18,-89.01 414.44,-96"/>
</a>
</g>
</g>
<!-- Node18&#45;&gt;Node11 -->
<g id="edge19_Node000018_Node000011" class="edge">
<title>Node18&#45;&gt;Node11</title>
<g id="a_edge19_Node000018_Node000011"><a xlink:title=" ">
<path fill="none" stroke="#63b8ff" d="M362.3,-101.78C386.85,-107.52 423.56,-116.12 451.91,-122.76"/>
<polygon fill="#63b8ff" stroke="#63b8ff" points="451.4,-126.24 461.94,-125.11 453,-119.42 451.4,-126.24"/>
</a>
</g>
</g>
<!-- Node19 -->
<g id="Node000019" class="node">
<title>Node19</title>
<g id="a_Node000019"><a xlink:href="guScaleF_8c.html#a19b9397a765b8eb04c94f9cdd554cdba" target="_top" xlink:title=" ">
<polygon fill="white" stroke="#666666" points="525,-56 464,-56 464,-37 525,-37 525,-56"/>
<text text-anchor="middle" x="494.5" y="-44" font-family="Helvetica,sans-Serif" font-size="10.00">guScaleF</text>
</a>
</g>
</g>
<!-- Node18&#45;&gt;Node19 -->
<g id="edge20_Node000018_Node000019" class="edge">
<title>Node18&#45;&gt;Node19</title>
<g id="a_edge20_Node000018_Node000019"><a xlink:title=" ">
<path fill="none" stroke="#63b8ff" d="M360.45,-85.99C377.17,-79.78 399.76,-71.7 420,-65.5 430.9,-62.16 442.83,-58.91 453.85,-56.07"/>
<polygon fill="#63b8ff" stroke="#63b8ff" points="454.82,-59.43 463.65,-53.58 453.1,-52.65 454.82,-59.43"/>
</a>
</g>
</g>
<!-- Node19&#45;&gt;Node14 -->
<g id="edge21_Node000019_Node000014" class="edge">
<title>Node19&#45;&gt;Node14</title>
<g id="a_edge21_Node000019_Node000014"><a xlink:title=" ">
<path fill="none" stroke="#63b8ff" d="M525.34,-51.58C539.06,-54.57 555.28,-59.05 569,-65.5 586.86,-73.89 587.54,-82.3 605,-91.5 608.95,-93.58 613.18,-95.52 617.46,-97.31"/>
<polygon fill="#63b8ff" stroke="#63b8ff" points="616.24,-100.59 626.82,-100.97 618.78,-94.07 616.24,-100.59"/>
</a>
</g>
</g>
<!-- Node20&#45;&gt;Node9 -->
<g id="edge25_Node000020_Node000009" class="edge">
<title>Node20&#45;&gt;Node9</title>
<g id="a_edge25_Node000020_Node000009"><a xlink:title=" ">
<path fill="none" stroke="#63b8ff" d="M365.59,-64.4C379.51,-67.14 396.77,-70.52 414.06,-73.91"/>
<polygon fill="#63b8ff" stroke="#63b8ff" points="413.74,-77.42 424.22,-75.91 415.08,-70.55 413.74,-77.42"/>
</a>
</g>
</g>
<!-- Node20&#45;&gt;Node11 -->
<g id="edge29_Node000020_Node000011" class="edge">
<title>Node20&#45;&gt;Node11</title>
<g id="a_edge29_Node000020_Node000011"><a xlink:title=" ">
<path fill="none" stroke="#63b8ff" d="M365.74,-67.36C372.03,-69.84 378.43,-72.87 384,-76.5 403.23,-89.02 400.16,-101.98 420,-113.5 429.69,-119.12 441.04,-123.11 451.89,-125.92"/>
<polygon fill="#63b8ff" stroke="#63b8ff" points="451.12,-129.33 461.65,-128.19 452.7,-122.52 451.12,-129.33"/>
</a>
</g>
</g>
<!-- Node21 -->
<g id="Node000021" class="node">
<title>Node21</title>
<g id="a_Node000021"><a xlink:href="guLookAtF_8c.html#a221be5535617db52477d4cb992afa4a9" target="_top" xlink:title=" ">
<polygon fill="white" stroke="#666666" points="528.5,-19 460.5,-19 460.5,0 528.5,0 528.5,-19"/>
<text text-anchor="middle" x="494.5" y="-7" font-family="Helvetica,sans-Serif" font-size="10.00">guLookAtF</text>
</a>
</g>
</g>
<!-- Node20&#45;&gt;Node21 -->
<g id="edge26_Node000020_Node000021" class="edge">
<title>Node20&#45;&gt;Node21</title>
<g id="a_edge26_Node000020_Node000021"><a xlink:title=" ">
<path fill="none" stroke="#63b8ff" d="M359.3,-48.96C376.1,-42.43 399.22,-33.83 420,-27.5 429.8,-24.51 440.45,-21.67 450.53,-19.17"/>
<polygon fill="#63b8ff" stroke="#63b8ff" points="451.46,-22.55 460.36,-16.79 449.81,-15.74 451.46,-22.55"/>
</a>
</g>
</g>
<!-- Node21&#45;&gt;Node14 -->
<g id="edge27_Node000021_Node000014" class="edge">
<title>Node21&#45;&gt;Node14</title>
<g id="a_edge27_Node000021_Node000014"><a xlink:title=" ">
<path fill="none" stroke="#63b8ff" d="M528.72,-11.86C542.3,-14.21 557.49,-18.76 569,-27.5 594.99,-47.23 580.07,-70.44 605,-91.5 606.99,-93.18 609.15,-94.72 611.41,-96.13"/>
<polygon fill="#63b8ff" stroke="#63b8ff" points="610.04,-99.37 620.52,-100.92 613.3,-93.17 610.04,-99.37"/>
</a>
</g>
</g>
<!-- Node21&#45;&gt;Node16 -->
<g id="edge28_Node000021_Node000016" class="edge">
<title>Node21&#45;&gt;Node16</title>
<g id="a_edge28_Node000021_Node000016"><a xlink:title=" ">
<path fill="none" stroke="#63b8ff" d="M528.64,-9.48C573.65,-10.9 655.09,-18.74 713,-54.5 732.79,-66.72 748.33,-88.84 757.67,-104.74"/>
<polygon fill="#63b8ff" stroke="#63b8ff" points="754.74,-106.67 762.66,-113.7 760.85,-103.26 754.74,-106.67"/>
</a>
</g>
</g>
<!-- Node22&#45;&gt;Node9 -->
<g id="edge31_Node000022_Node000009" class="edge">
<title>Node22&#45;&gt;Node9</title>
<g id="a_edge31_Node000022_Node000009"><a xlink:title=" ">
<path fill="none" stroke="#63b8ff" d="M370.57,-122.96C387.6,-118.32 408.63,-112.6 428.44,-107.21"/>
<polygon fill="#63b8ff" stroke="#63b8ff" points="429.63,-110.51 438.36,-104.51 427.79,-103.76 429.63,-110.51"/>
</a>
</g>
</g>
<!-- Node22&#45;&gt;Node11 -->
<g id="edge32_Node000022_Node000011" class="edge">
<title>Node22&#45;&gt;Node11</title>
<g id="a_edge32_Node000022_Node000011"><a xlink:title=" ">
<path fill="none" stroke="#63b8ff" d="M377.84,-132.5C400.67,-132.5 428.75,-132.5 451.52,-132.5"/>
<polygon fill="#63b8ff" stroke="#63b8ff" points="451.57,-136 461.57,-132.5 451.57,-129 451.57,-136"/>
</a>
</g>
</g>
<!-- Node23 -->
<g id="Node000023" class="node">
<title>Node23</title>
<g id="a_Node000023"><a xlink:href="guPerspectiveF_8c.html#a440bd049e431a7ef892658d88620646c" target="_top" xlink:title=" ">
<polygon fill="white" stroke="#666666" points="540.5,-179 448.5,-179 448.5,-160 540.5,-160 540.5,-179"/>
<text text-anchor="middle" x="494.5" y="-167" font-family="Helvetica,sans-Serif" font-size="10.00">guPerspectiveF</text>
</a>
</g>
</g>
<!-- Node22&#45;&gt;Node23 -->
<g id="edge33_Node000022_Node000023" class="edge">
<title>Node22&#45;&gt;Node23</title>
<g id="a_edge33_Node000022_Node000023"><a xlink:title=" ">
<path fill="none" stroke="#63b8ff" d="M376.19,-142.03C396.47,-146.78 421.21,-152.57 442.72,-157.61"/>
<polygon fill="#63b8ff" stroke="#63b8ff" points="442.14,-161.07 452.67,-159.94 443.74,-154.25 442.14,-161.07"/>
</a>
</g>
</g>
<!-- Node23&#45;&gt;Node13 -->
<g id="edge34_Node000023_Node000013" class="edge">
<title>Node23&#45;&gt;Node13</title>
<g id="a_edge34_Node000023_Node000013"><a xlink:title=" ">
<path fill="none" stroke="#63b8ff" d="M540.77,-163.37C569.56,-159.47 605.91,-154.55 630.44,-151.23"/>
<polygon fill="#63b8ff" stroke="#63b8ff" points="631.05,-154.68 640.49,-149.87 630.11,-147.74 631.05,-154.68"/>
</a>
</g>
</g>
<!-- Node23&#45;&gt;Node14 -->
<g id="edge35_Node000023_Node000014" class="edge">
<title>Node23&#45;&gt;Node14</title>
<g id="a_edge35_Node000023_Node000014"><a xlink:title=" ">
<path fill="none" stroke="#63b8ff" d="M540.52,-160.81C550.1,-158.32 560.02,-155.24 569,-151.5 586.31,-144.3 588.09,-137.59 605,-129.5 609.35,-127.42 613.98,-125.44 618.64,-123.59"/>
<polygon fill="#63b8ff" stroke="#63b8ff" points="620.01,-126.81 628.13,-120 617.54,-120.27 620.01,-126.81"/>
</a>
</g>
</g>
<!-- Node23&#45;&gt;Node17 -->
<g id="edge36_Node000023_Node000017" class="edge">
<title>Node23&#45;&gt;Node17</title>
<g id="a_edge36_Node000023_Node000017"><a xlink:title=" ">
<path fill="none" stroke="#63b8ff" d="M540.77,-173.68C569.89,-176.37 606.74,-179.77 631.27,-182.03"/>
<polygon fill="#63b8ff" stroke="#63b8ff" points="631.01,-185.52 641.29,-182.96 631.66,-178.55 631.01,-185.52"/>
</a>
</g>
</g>
</g>
</svg>
