<?xml version="1.0" encoding="UTF-8" standalone="no"?>
<!DOCTYPE svg PUBLIC "-//W3C//DTD SVG 1.1//EN"
 "http://www.w3.org/Graphics/SVG/1.1/DTD/svg11.dtd">
<!-- Generated by graphviz version 2.43.0 (0)
 -->
<!-- Title: src/engine/ModelLoader.cpp Pages: 1 -->
<svg width="1552pt" height="412pt"
 viewBox="0.00 0.00 1552.00 412.00" xmlns="http://www.w3.org/2000/svg" xmlns:xlink="http://www.w3.org/1999/xlink">
<g id="graph0" class="graph" transform="scale(1 1) rotate(0) translate(4 408)">
<title>src/engine/ModelLoader.cpp</title>
<!-- Node1 -->
<g id="Node000001" class="node">
<title>Node1</title>
<g id="a_Node000001"><a xlink:title=" ">
<polygon fill="#999999" stroke="#666666" points="976.5,-404 824.5,-404 824.5,-385 976.5,-385 976.5,-404"/>
<text text-anchor="middle" x="900.5" y="-392" font-family="Helvetica,sans-Serif" font-size="10.00">src/engine/ModelLoader.cpp</text>
</a>
</g>
</g>
<!-- Node2 -->
<g id="Node000002" class="node">
<title>Node2</title>
<g id="a_Node000002"><a xlink:href="ModelLoader_8h.html" target="_top" xlink:title=" ">
<polygon fill="white" stroke="#666666" points="908.5,-349 820.5,-349 820.5,-330 908.5,-330 908.5,-349"/>
<text text-anchor="middle" x="864.5" y="-337" font-family="Helvetica,sans-Serif" font-size="10.00">ModelLoader.h</text>
</a>
</g>
</g>
<!-- Node1&#45;&gt;Node2 -->
<g id="edge1_Node000001_Node000002" class="edge">
<title>Node1&#45;&gt;Node2</title>
<g id="a_edge1_Node000001_Node000002"><a xlink:title=" ">
<path fill="none" stroke="#63b8ff" d="M894.56,-384.75C889.52,-377.34 882.16,-366.5 875.99,-357.41"/>
<polygon fill="#63b8ff" stroke="#63b8ff" points="878.85,-355.39 870.33,-349.09 873.06,-359.33 878.85,-355.39"/>
</a>
</g>
</g>
<!-- Node4 -->
<g id="Node000004" class="node">
<title>Node4</title>
<g id="a_Node000004"><a xlink:href="Course_8h.html" target="_top" xlink:title=" ">
<polygon fill="white" stroke="#666666" points="559.5,-294 423.5,-294 423.5,-275 559.5,-275 559.5,-294"/>
<text text-anchor="middle" x="491.5" y="-282" font-family="Helvetica,sans-Serif" font-size="10.00">engine/courses/Course.h</text>
</a>
</g>
</g>
<!-- Node1&#45;&gt;Node4 -->
<g id="edge52_Node000001_Node000004" class="edge">
<title>Node1&#45;&gt;Node4</title>
<g id="a_edge52_Node000001_Node000004"><a xlink:title=" ">
<path fill="none" stroke="#63b8ff" d="M868.06,-384.94C794.61,-365.54 615.58,-318.26 533.67,-296.63"/>
<polygon fill="#63b8ff" stroke="#63b8ff" points="534.5,-293.23 523.94,-294.07 532.71,-300 534.5,-293.23"/>
</a>
</g>
</g>
<!-- Node26 -->
<g id="Node000026" class="node">
<title>Node26</title>
<g id="a_Node000026"><a xlink:href="Engine_8h.html" target="_top" xlink:title=" ">
<polygon fill="white" stroke="#666666" points="1298,-349 1217,-349 1217,-330 1298,-330 1298,-349"/>
<text text-anchor="middle" x="1257.5" y="-337" font-family="Helvetica,sans-Serif" font-size="10.00">port/Engine.h</text>
</a>
</g>
</g>
<!-- Node1&#45;&gt;Node26 -->
<g id="edge50_Node000001_Node000026" class="edge">
<title>Node1&#45;&gt;Node26</title>
<g id="a_edge50_Node000001_Node000026"><a xlink:title=" ">
<path fill="none" stroke="#63b8ff" d="M957.86,-384.98C1026.71,-374.76 1141.09,-357.78 1206.82,-348.02"/>
<polygon fill="#63b8ff" stroke="#63b8ff" points="1207.56,-351.45 1216.94,-346.52 1206.53,-344.53 1207.56,-351.45"/>
</a>
</g>
</g>
<!-- Node28 -->
<g id="Node000028" class="node">
<title>Node28</title>
<g id="a_Node000028"><a xlink:href="memory_8h.html" target="_top" xlink:title=" ">
<polygon fill="white" stroke="#666666" points="989,-239 924,-239 924,-220 989,-220 989,-239"/>
<text text-anchor="middle" x="956.5" y="-227" font-family="Helvetica,sans-Serif" font-size="10.00">memory.h</text>
</a>
</g>
</g>
<!-- Node1&#45;&gt;Node28 -->
<g id="edge53_Node000001_Node000028" class="edge">
<title>Node1&#45;&gt;Node28</title>
<g id="a_edge53_Node000001_Node000028"><a xlink:title=" ">
<path fill="none" stroke="#63b8ff" d="M904.01,-384.68C907.54,-375.73 913.07,-361.47 917.5,-349 930.02,-313.76 943.39,-272.16 950.77,-248.8"/>
<polygon fill="#63b8ff" stroke="#63b8ff" points="954.14,-249.76 953.8,-239.17 947.46,-247.66 954.14,-249.76"/>
</a>
</g>
</g>
<!-- Node3 -->
<g id="Node000003" class="node">
<title>Node3</title>
<g id="a_Node000003"><a xlink:title=" ">
<polygon fill="#e0e0e0" stroke="#999999" points="1082.5,-19 1002.5,-19 1002.5,0 1082.5,0 1082.5,-19"/>
<text text-anchor="middle" x="1042.5" y="-7" font-family="Helvetica,sans-Serif" font-size="10.00">libultraship.h</text>
</a>
</g>
</g>
<!-- Node2&#45;&gt;Node3 -->
<g id="edge2_Node000002_Node000003" class="edge">
<title>Node2&#45;&gt;Node3</title>
<g id="a_edge2_Node000002_Node000003"><a xlink:title=" ">
<path fill="none" stroke="#63b8ff" d="M908.56,-339.08C1038.06,-339.6 1408.5,-332.2 1408.5,-230.5 1408.5,-230.5 1408.5,-230.5 1408.5,-118.5 1408.5,-74.14 1371.98,-73.14 1331.5,-55 1289.77,-36.31 1163.67,-21.89 1092.6,-14.98"/>
<polygon fill="#63b8ff" stroke="#63b8ff" points="1092.82,-11.49 1082.53,-14.02 1092.15,-18.46 1092.82,-11.49"/>
</a>
</g>
</g>
<!-- Node2&#45;&gt;Node4 -->
<g id="edge3_Node000002_Node000004" class="edge">
<title>Node2&#45;&gt;Node4</title>
<g id="a_edge3_Node000002_Node000004"><a xlink:title=" ">
<path fill="none" stroke="#63b8ff" d="M820.25,-332.21C756.25,-323.12 637.25,-306.21 561.34,-295.42"/>
<polygon fill="#63b8ff" stroke="#63b8ff" points="561.77,-291.95 551.38,-294.01 560.79,-298.88 561.77,-291.95"/>
</a>
</g>
</g>
<!-- Node8 -->
<g id="Node000008" class="node">
<title>Node8</title>
<g id="a_Node000008"><a xlink:href="common__structs_8h.html" target="_top" xlink:title=" ">
<polygon fill="white" stroke="#666666" points="705,-74 598,-74 598,-55 705,-55 705,-74"/>
<text text-anchor="middle" x="651.5" y="-62" font-family="Helvetica,sans-Serif" font-size="10.00">common_structs.h</text>
</a>
</g>
</g>
<!-- Node2&#45;&gt;Node8 -->
<g id="edge49_Node000002_Node000008" class="edge">
<title>Node2&#45;&gt;Node8</title>
<g id="a_edge49_Node000002_Node000008"><a xlink:title=" ">
<path fill="none" stroke="#63b8ff" d="M863.33,-329.78C860.23,-309.19 850.38,-256.53 826.5,-220 785.21,-156.83 711.39,-103.81 674.22,-79.6"/>
<polygon fill="#63b8ff" stroke="#63b8ff" points="675.9,-76.52 665.6,-74.08 672.13,-82.42 675.9,-76.52"/>
</a>
</g>
</g>
<!-- Node5 -->
<g id="Node000005" class="node">
<title>Node5</title>
<g id="a_Node000005"><a xlink:title=" ">
<polygon fill="#e0e0e0" stroke="#999999" points="425.5,-239 287.5,-239 287.5,-220 425.5,-220 425.5,-239"/>
<text text-anchor="middle" x="356.5" y="-227" font-family="Helvetica,sans-Serif" font-size="10.00">libultraship/libultraship.h</text>
</a>
</g>
</g>
<!-- Node4&#45;&gt;Node5 -->
<g id="edge4_Node000004_Node000005" class="edge">
<title>Node4&#45;&gt;Node5</title>
<g id="a_edge4_Node000004_Node000005"><a xlink:title=" ">
<path fill="none" stroke="#63b8ff" d="M469.81,-274.98C447.7,-266.3 413.18,-252.75 388.05,-242.88"/>
<polygon fill="#63b8ff" stroke="#63b8ff" points="389.17,-239.57 378.58,-239.17 386.61,-246.08 389.17,-239.57"/>
</a>
</g>
</g>
<!-- Node6 -->
<g id="Node000006" class="node">
<title>Node6</title>
<g id="a_Node000006"><a xlink:href="CoreMath_8h.html" target="_top" xlink:title=" ">
<polygon fill="white" stroke="#666666" points="73,-184 0,-184 0,-165 73,-165 73,-184"/>
<text text-anchor="middle" x="36.5" y="-172" font-family="Helvetica,sans-Serif" font-size="10.00">CoreMath.h</text>
</a>
</g>
</g>
<!-- Node4&#45;&gt;Node6 -->
<g id="edge5_Node000004_Node000006" class="edge">
<title>Node4&#45;&gt;Node6</title>
<g id="a_edge5_Node000004_Node000006"><a xlink:title=" ">
<path fill="none" stroke="#63b8ff" d="M423.44,-282.23C323.74,-279.33 143.72,-269.85 87.5,-239 68.59,-228.62 54.1,-208.06 45.49,-193.14"/>
<polygon fill="#63b8ff" stroke="#63b8ff" points="48.54,-191.42 40.68,-184.31 42.39,-194.77 48.54,-191.42"/>
</a>
</g>
</g>
<!-- Node7 -->
<g id="Node000007" class="node">
<title>Node7</title>
<g id="a_Node000007"><a xlink:href="camera_8h.html" target="_top" xlink:title=" ">
<polygon fill="white" stroke="#666666" points="425.5,-129 363.5,-129 363.5,-110 425.5,-110 425.5,-129"/>
<text text-anchor="middle" x="394.5" y="-117" font-family="Helvetica,sans-Serif" font-size="10.00">camera.h</text>
</a>
</g>
</g>
<!-- Node4&#45;&gt;Node7 -->
<g id="edge7_Node000004_Node000007" class="edge">
<title>Node4&#45;&gt;Node7</title>
<g id="a_edge7_Node000004_Node000007"><a xlink:title=" ">
<path fill="none" stroke="#63b8ff" d="M423.42,-280.15C321.81,-274.44 140.22,-261.23 120.5,-239 51.2,-160.89 260.71,-132.33 353.09,-123.71"/>
<polygon fill="#63b8ff" stroke="#63b8ff" points="353.58,-127.18 363.22,-122.8 352.95,-120.2 353.58,-127.18"/>
</a>
</g>
</g>
<!-- Node4&#45;&gt;Node8 -->
<g id="edge48_Node000004_Node000008" class="edge">
<title>Node4&#45;&gt;Node8</title>
<g id="a_edge48_Node000004_Node000008"><a xlink:title=" ">
<path fill="none" stroke="#63b8ff" d="M492.49,-274.65C496.07,-246.73 510.72,-159.47 558.5,-110 572.77,-95.23 592.93,-84.76 610.84,-77.7"/>
<polygon fill="#63b8ff" stroke="#63b8ff" points="612.34,-80.88 620.5,-74.12 609.91,-74.31 612.34,-80.88"/>
</a>
</g>
</g>
<!-- Node9 -->
<g id="Node000009" class="node">
<title>Node9</title>
<g id="a_Node000009"><a xlink:href="course__offsets_8h.html" target="_top" xlink:title=" ">
<polygon fill="white" stroke="#666666" points="1361.5,-184 1265.5,-184 1265.5,-165 1361.5,-165 1361.5,-184"/>
<text text-anchor="middle" x="1313.5" y="-172" font-family="Helvetica,sans-Serif" font-size="10.00">course_offsets.h</text>
</a>
</g>
</g>
<!-- Node4&#45;&gt;Node9 -->
<g id="edge11_Node000004_Node000009" class="edge">
<title>Node4&#45;&gt;Node9</title>
<g id="a_edge11_Node000004_Node000009"><a xlink:title=" ">
<path fill="none" stroke="#63b8ff" d="M559.76,-276.07C627.63,-268.29 734.6,-255 826.5,-239 865.92,-232.14 875,-226.36 914.5,-220 1063.22,-196.07 1101.98,-202.23 1251.5,-184 1252.77,-183.84 1254.06,-183.69 1255.36,-183.52"/>
<polygon fill="#63b8ff" stroke="#63b8ff" points="1255.98,-186.97 1265.45,-182.23 1255.09,-180.03 1255.98,-186.97"/>
</a>
</g>
</g>
<!-- Node15 -->
<g id="Node000015" class="node">
<title>Node15</title>
<g id="a_Node000015"><a xlink:href="src_2data_2some__data_8h.html" target="_top" xlink:title=" ">
<polygon fill="white" stroke="#666666" points="817.5,-239 713.5,-239 713.5,-220 817.5,-220 817.5,-239"/>
<text text-anchor="middle" x="765.5" y="-227" font-family="Helvetica,sans-Serif" font-size="10.00">data/some_data.h</text>
</a>
</g>
</g>
<!-- Node4&#45;&gt;Node15 -->
<g id="edge20_Node000004_Node000015" class="edge">
<title>Node4&#45;&gt;Node15</title>
<g id="a_edge20_Node000004_Node000015"><a xlink:title=" ">
<path fill="none" stroke="#63b8ff" d="M535.52,-274.98C583.32,-265.74 659.7,-250.97 711.18,-241.01"/>
<polygon fill="#63b8ff" stroke="#63b8ff" points="711.98,-244.42 721.13,-239.08 710.65,-237.54 711.98,-244.42"/>
</a>
</g>
</g>
<!-- Node18 -->
<g id="Node000018" class="node">
<title>Node18</title>
<g id="a_Node000018"><a xlink:href="defines_8h.html" target="_top" xlink:title=" ">
<polygon fill="white" stroke="#666666" points="191,-239 130,-239 130,-220 191,-220 191,-239"/>
<text text-anchor="middle" x="160.5" y="-227" font-family="Helvetica,sans-Serif" font-size="10.00">defines.h</text>
</a>
</g>
</g>
<!-- Node4&#45;&gt;Node18 -->
<g id="edge28_Node000004_Node000018" class="edge">
<title>Node4&#45;&gt;Node18</title>
<g id="a_edge28_Node000004_Node000018"><a xlink:title=" ">
<path fill="none" stroke="#63b8ff" d="M428.88,-274.99C372.08,-267.03 285.81,-254.33 201.09,-239.01"/>
<polygon fill="#63b8ff" stroke="#63b8ff" points="201.5,-235.53 191.04,-237.18 200.25,-242.41 201.5,-235.53"/>
</a>
</g>
</g>
<!-- Node19 -->
<g id="Node000019" class="node">
<title>Node19</title>
<g id="a_Node000019"><a xlink:href="bomb__kart_8h.html" target="_top" xlink:title=" ">
<polygon fill="white" stroke="#666666" points="635,-184 558,-184 558,-165 635,-165 635,-184"/>
<text text-anchor="middle" x="596.5" y="-172" font-family="Helvetica,sans-Serif" font-size="10.00">bomb_kart.h</text>
</a>
</g>
</g>
<!-- Node4&#45;&gt;Node19 -->
<g id="edge29_Node000004_Node000019" class="edge">
<title>Node4&#45;&gt;Node19</title>
<g id="a_edge29_Node000004_Node000019"><a xlink:title=" ">
<path fill="none" stroke="#63b8ff" d="M558.06,-274.99C601.33,-267.93 652.11,-256.24 665.5,-239 680.82,-219.27 653,-200.39 628.24,-188.42"/>
<polygon fill="#63b8ff" stroke="#63b8ff" points="629.55,-185.17 619,-184.18 626.64,-191.53 629.55,-185.17"/>
</a>
</g>
</g>
<!-- Node22 -->
<g id="Node000022" class="node">
<title>Node22</title>
<g id="a_Node000022"><a xlink:href="path__spawn__metadata_8h.html" target="_top" xlink:title=" ">
<polygon fill="white" stroke="#666666" points="657,-239 520,-239 520,-220 657,-220 657,-239"/>
<text text-anchor="middle" x="588.5" y="-227" font-family="Helvetica,sans-Serif" font-size="10.00">path_spawn_metadata.h</text>
</a>
</g>
</g>
<!-- Node4&#45;&gt;Node22 -->
<g id="edge36_Node000004_Node000022" class="edge">
<title>Node4&#45;&gt;Node22</title>
<g id="a_edge36_Node000004_Node000022"><a xlink:title=" ">
<path fill="none" stroke="#63b8ff" d="M507.08,-274.98C522.27,-266.69 545.6,-253.94 563.4,-244.22"/>
<polygon fill="#63b8ff" stroke="#63b8ff" points="565.53,-247.04 572.63,-239.17 562.18,-240.89 565.53,-247.04"/>
</a>
</g>
</g>
<!-- Node23 -->
<g id="Node000023" class="node">
<title>Node23</title>
<g id="a_Node000023"><a xlink:href="waypoints_8h.html" target="_top" xlink:title=" ">
<polygon fill="white" stroke="#666666" points="463.5,-184 387.5,-184 387.5,-165 463.5,-165 463.5,-184"/>
<text text-anchor="middle" x="425.5" y="-172" font-family="Helvetica,sans-Serif" font-size="10.00">waypoints.h</text>
</a>
</g>
</g>
<!-- Node4&#45;&gt;Node23 -->
<g id="edge46_Node000004_Node000023" class="edge">
<title>Node4&#45;&gt;Node23</title>
<g id="a_edge46_Node000004_Node000023"><a xlink:title=" ">
<path fill="none" stroke="#63b8ff" d="M486.1,-274.66C475.17,-256.77 450.25,-216 436.01,-192.69"/>
<polygon fill="#63b8ff" stroke="#63b8ff" points="438.99,-190.87 430.79,-184.16 433.02,-194.52 438.99,-190.87"/>
</a>
</g>
</g>
<!-- Node25 -->
<g id="Node000025" class="node">
<title>Node25</title>
<g id="a_Node000025"><a xlink:href="sounds_8h.html" target="_top" xlink:title=" ">
<polygon fill="white" stroke="#666666" points="269.5,-239 209.5,-239 209.5,-220 269.5,-220 269.5,-239"/>
<text text-anchor="middle" x="239.5" y="-227" font-family="Helvetica,sans-Serif" font-size="10.00">sounds.h</text>
</a>
</g>
</g>
<!-- Node4&#45;&gt;Node25 -->
<g id="edge47_Node000004_Node000025" class="edge">
<title>Node4&#45;&gt;Node25</title>
<g id="a_edge47_Node000004_Node000025"><a xlink:title=" ">
<path fill="none" stroke="#63b8ff" d="M450.25,-274.99C409.42,-266.55 344.86,-253.13 279.76,-239.25"/>
<polygon fill="#63b8ff" stroke="#63b8ff" points="280.24,-235.78 269.73,-237.12 278.78,-242.62 280.24,-235.78"/>
</a>
</g>
</g>
<!-- Node6&#45;&gt;Node3 -->
<g id="edge6_Node000006_Node000003" class="edge">
<title>Node6&#45;&gt;Node3</title>
<g id="a_edge6_Node000006_Node000003"><a xlink:title=" ">
<path fill="none" stroke="#63b8ff" d="M64.19,-164.99C137.1,-142.93 340.72,-83.68 514.5,-55 688.59,-26.27 898.22,-15.61 992.39,-12.07"/>
<polygon fill="#63b8ff" stroke="#63b8ff" points="992.63,-15.57 1002.49,-11.7 992.37,-8.57 992.63,-15.57"/>
</a>
</g>
</g>
<!-- Node7&#45;&gt;Node3 -->
<g id="edge8_Node000007_Node000003" class="edge">
<title>Node7&#45;&gt;Node3</title>
<g id="a_edge8_Node000007_Node000003"><a xlink:title=" ">
<path fill="none" stroke="#63b8ff" d="M415.61,-109.89C450.81,-95.93 523.99,-68.55 588.5,-55 733.03,-24.65 907.89,-14.9 992.21,-11.85"/>
<polygon fill="#63b8ff" stroke="#63b8ff" points="992.4,-15.34 1002.28,-11.5 992.16,-8.35 992.4,-15.34"/>
</a>
</g>
</g>
<!-- Node7&#45;&gt;Node8 -->
<g id="edge9_Node000007_Node000008" class="edge">
<title>Node7&#45;&gt;Node8</title>
<g id="a_edge9_Node000007_Node000008"><a xlink:title=" ">
<path fill="none" stroke="#63b8ff" d="M425.5,-112.11C468.81,-103.18 547.95,-86.85 600.14,-76.09"/>
<polygon fill="#63b8ff" stroke="#63b8ff" points="601.11,-79.46 610.2,-74.02 599.7,-72.61 601.11,-79.46"/>
</a>
</g>
</g>
<!-- Node8&#45;&gt;Node3 -->
<g id="edge10_Node000008_Node000003" class="edge">
<title>Node8&#45;&gt;Node3</title>
<g id="a_edge10_Node000008_Node000003"><a xlink:title=" ">
<path fill="none" stroke="#63b8ff" d="M705.05,-56.24C780.85,-45.97 918.44,-27.32 992.35,-17.3"/>
<polygon fill="#63b8ff" stroke="#63b8ff" points="992.91,-20.75 1002.34,-15.94 991.97,-13.82 992.91,-20.75"/>
</a>
</g>
</g>
<!-- Node9&#45;&gt;Node3 -->
<g id="edge12_Node000009_Node000003" class="edge">
<title>Node9&#45;&gt;Node3</title>
<g id="a_edge12_Node000009_Node000003"><a xlink:title=" ">
<path fill="none" stroke="#63b8ff" d="M1316.86,-164.78C1324.54,-143.24 1340.67,-86.99 1313.5,-55 1299.39,-38.38 1167.11,-22.8 1092.72,-15.25"/>
<polygon fill="#63b8ff" stroke="#63b8ff" points="1092.93,-11.75 1082.63,-14.24 1092.23,-18.72 1092.93,-11.75"/>
</a>
</g>
</g>
<!-- Node10 -->
<g id="Node000010" class="node">
<title>Node10</title>
<g id="a_Node000010"><a xlink:title=" ">
<polygon fill="#e0e0e0" stroke="#999999" points="1272.5,-19 1182.5,-19 1182.5,0 1272.5,0 1272.5,-19"/>
<text text-anchor="middle" x="1227.5" y="-7" font-family="Helvetica,sans-Serif" font-size="10.00">libultra/types.h</text>
</a>
</g>
</g>
<!-- Node9&#45;&gt;Node10 -->
<g id="edge13_Node000009_Node000010" class="edge">
<title>Node9&#45;&gt;Node10</title>
<g id="a_edge13_Node000009_Node000010"><a xlink:title=" ">
<path fill="none" stroke="#63b8ff" d="M1322.52,-164.96C1330.57,-156.66 1341.79,-143.25 1346.5,-129 1356.82,-97.77 1365.25,-82.02 1346.5,-55 1331.98,-34.07 1306.34,-22.97 1282.57,-17.08"/>
<polygon fill="#63b8ff" stroke="#63b8ff" points="1283.05,-13.61 1272.53,-14.87 1281.54,-20.44 1283.05,-13.61"/>
</a>
</g>
</g>
<!-- Node11 -->
<g id="Node000011" class="node">
<title>Node11</title>
<g id="a_Node000011"><a xlink:title=" ">
<polygon fill="#e0e0e0" stroke="#999999" points="1304.5,-74 1226.5,-74 1226.5,-55 1304.5,-55 1304.5,-74"/>
<text text-anchor="middle" x="1265.5" y="-62" font-family="Helvetica,sans-Serif" font-size="10.00">libultra/gbi.h</text>
</a>
</g>
</g>
<!-- Node9&#45;&gt;Node11 -->
<g id="edge14_Node000009_Node000011" class="edge">
<title>Node9&#45;&gt;Node11</title>
<g id="a_edge14_Node000009_Node000011"><a xlink:title=" ">
<path fill="none" stroke="#63b8ff" d="M1309.57,-164.66C1301.69,-146.93 1283.82,-106.73 1273.42,-83.32"/>
<polygon fill="#63b8ff" stroke="#63b8ff" points="1276.61,-81.87 1269.35,-74.16 1270.21,-84.72 1276.61,-81.87"/>
</a>
</g>
</g>
<!-- Node12 -->
<g id="Node000012" class="node">
<title>Node12</title>
<g id="a_Node000012"><a xlink:href="other__textures_8h.html" target="_top" xlink:title=" ">
<polygon fill="white" stroke="#666666" points="1157,-129 1026,-129 1026,-110 1157,-110 1157,-129"/>
<text text-anchor="middle" x="1091.5" y="-117" font-family="Helvetica,sans-Serif" font-size="10.00">assets/other_textures.h</text>
</a>
</g>
</g>
<!-- Node9&#45;&gt;Node12 -->
<g id="edge15_Node000009_Node000012" class="edge">
<title>Node9&#45;&gt;Node12</title>
<g id="a_edge15_Node000009_Node000012"><a xlink:title=" ">
<path fill="none" stroke="#63b8ff" d="M1277.83,-164.98C1239.67,-155.87 1179.03,-141.4 1137.35,-131.45"/>
<polygon fill="#63b8ff" stroke="#63b8ff" points="1137.99,-128 1127.45,-129.08 1136.36,-134.81 1137.99,-128"/>
</a>
</g>
</g>
<!-- Node14 -->
<g id="Node000014" class="node">
<title>Node14</title>
<g id="a_Node000014"><a xlink:href="animation_8h.html" target="_top" xlink:title=" ">
<polygon fill="white" stroke="#666666" points="859,-129 784,-129 784,-110 859,-110 859,-129"/>
<text text-anchor="middle" x="821.5" y="-117" font-family="Helvetica,sans-Serif" font-size="10.00">animation.h</text>
</a>
</g>
</g>
<!-- Node9&#45;&gt;Node14 -->
<g id="edge18_Node000009_Node000014" class="edge">
<title>Node9&#45;&gt;Node14</title>
<g id="a_edge18_Node000009_Node000014"><a xlink:title=" ">
<path fill="none" stroke="#63b8ff" d="M1265.28,-169.94C1185.29,-163.75 1019.93,-149.8 869.51,-129.03"/>
<polygon fill="#63b8ff" stroke="#63b8ff" points="869.56,-125.5 859.17,-127.58 868.59,-132.43 869.56,-125.5"/>
</a>
</g>
</g>
<!-- Node12&#45;&gt;Node3 -->
<g id="edge16_Node000012_Node000003" class="edge">
<title>Node12&#45;&gt;Node3</title>
<g id="a_edge16_Node000012_Node000003"><a xlink:title=" ">
<path fill="none" stroke="#63b8ff" d="M1089.08,-109.64C1085.52,-97.15 1078.34,-73.79 1069.5,-55 1065.08,-45.6 1059.18,-35.66 1054.03,-27.57"/>
<polygon fill="#63b8ff" stroke="#63b8ff" points="1056.86,-25.5 1048.45,-19.06 1051,-29.34 1056.86,-25.5"/>
</a>
</g>
</g>
<!-- Node13 -->
<g id="Node000013" class="node">
<title>Node13</title>
<g id="a_Node000013"><a xlink:href="align__asset__macro_8h.html" target="_top" xlink:title=" ">
<polygon fill="white" stroke="#666666" points="1060,-74 943,-74 943,-55 1060,-55 1060,-74"/>
<text text-anchor="middle" x="1001.5" y="-62" font-family="Helvetica,sans-Serif" font-size="10.00">align_asset_macro.h</text>
</a>
</g>
</g>
<!-- Node12&#45;&gt;Node13 -->
<g id="edge17_Node000012_Node000013" class="edge">
<title>Node12&#45;&gt;Node13</title>
<g id="a_edge17_Node000012_Node000013"><a xlink:title=" ">
<path fill="none" stroke="#63b8ff" d="M1077.04,-109.98C1063.08,-101.77 1041.71,-89.18 1025.25,-79.49"/>
<polygon fill="#63b8ff" stroke="#63b8ff" points="1026.62,-76.23 1016.22,-74.17 1023.06,-82.26 1026.62,-76.23"/>
</a>
</g>
</g>
<!-- Node14&#45;&gt;Node8 -->
<g id="edge19_Node000014_Node000008" class="edge">
<title>Node14&#45;&gt;Node8</title>
<g id="a_edge19_Node000014_Node000008"><a xlink:title=" ">
<path fill="none" stroke="#63b8ff" d="M794.19,-109.98C765.65,-101.09 720.67,-87.07 688.86,-77.15"/>
<polygon fill="#63b8ff" stroke="#63b8ff" points="689.62,-73.72 679.03,-74.08 687.53,-80.4 689.62,-73.72"/>
</a>
</g>
</g>
<!-- Node15&#45;&gt;Node11 -->
<g id="edge21_Node000015_Node000011" class="edge">
<title>Node15&#45;&gt;Node11</title>
<g id="a_edge21_Node000015_Node000011"><a xlink:title=" ">
<path fill="none" stroke="#63b8ff" d="M817.84,-220.23C933.84,-201.5 1204.9,-155.45 1237.5,-129 1251.22,-117.87 1258.41,-98.66 1262.05,-84.27"/>
<polygon fill="#63b8ff" stroke="#63b8ff" points="1265.48,-84.94 1264.19,-74.43 1258.64,-83.46 1265.48,-84.94"/>
</a>
</g>
</g>
<!-- Node15&#45;&gt;Node12 -->
<g id="edge24_Node000015_Node000012" class="edge">
<title>Node15&#45;&gt;Node12</title>
<g id="a_edge24_Node000015_Node000012"><a xlink:title=" ">
<path fill="none" stroke="#63b8ff" d="M791.35,-219.94C849.37,-200.72 989.99,-154.13 1056.08,-132.24"/>
<polygon fill="#63b8ff" stroke="#63b8ff" points="1057.25,-135.53 1065.64,-129.07 1055.05,-128.89 1057.25,-135.53"/>
</a>
</g>
</g>
<!-- Node16 -->
<g id="Node000016" class="node">
<title>Node16</title>
<g id="a_Node000016"><a xlink:href="spline_8h.html" target="_top" xlink:title=" ">
<polygon fill="white" stroke="#666666" points="651,-129 596,-129 596,-110 651,-110 651,-129"/>
<text text-anchor="middle" x="623.5" y="-117" font-family="Helvetica,sans-Serif" font-size="10.00">spline.h</text>
</a>
</g>
</g>
<!-- Node15&#45;&gt;Node16 -->
<g id="edge22_Node000015_Node000016" class="edge">
<title>Node15&#45;&gt;Node16</title>
<g id="a_edge22_Node000015_Node000016"><a xlink:title=" ">
<path fill="none" stroke="#63b8ff" d="M745.28,-219.95C727.75,-212.02 702.18,-199.18 682.5,-184 664.71,-170.28 647.6,-150.96 636.43,-137.25"/>
<polygon fill="#63b8ff" stroke="#63b8ff" points="638.97,-134.81 630,-129.16 633.49,-139.16 638.97,-134.81"/>
</a>
</g>
</g>
<!-- Node17 -->
<g id="Node000017" class="node">
<title>Node17</title>
<g id="a_Node000017"><a xlink:href="objects_8h.html" target="_top" xlink:title=" ">
<polygon fill="white" stroke="#666666" points="753,-184 692,-184 692,-165 753,-165 753,-184"/>
<text text-anchor="middle" x="722.5" y="-172" font-family="Helvetica,sans-Serif" font-size="10.00">objects.h</text>
</a>
</g>
</g>
<!-- Node15&#45;&gt;Node17 -->
<g id="edge25_Node000015_Node000017" class="edge">
<title>Node15&#45;&gt;Node17</title>
<g id="a_edge25_Node000015_Node000017"><a xlink:title=" ">
<path fill="none" stroke="#63b8ff" d="M758.4,-219.75C752.33,-212.26 743.41,-201.28 735.99,-192.13"/>
<polygon fill="#63b8ff" stroke="#63b8ff" points="738.49,-189.65 729.47,-184.09 733.05,-194.06 738.49,-189.65"/>
</a>
</g>
</g>
<!-- Node16&#45;&gt;Node8 -->
<g id="edge23_Node000016_Node000008" class="edge">
<title>Node16&#45;&gt;Node8</title>
<g id="a_edge23_Node000016_Node000008"><a xlink:title=" ">
<path fill="none" stroke="#63b8ff" d="M628.12,-109.75C631.96,-102.49 637.52,-91.95 642.26,-82.98"/>
<polygon fill="#63b8ff" stroke="#63b8ff" points="645.39,-84.57 646.96,-74.09 639.2,-81.3 645.39,-84.57"/>
</a>
</g>
</g>
<!-- Node17&#45;&gt;Node8 -->
<g id="edge27_Node000017_Node000008" class="edge">
<title>Node17&#45;&gt;Node8</title>
<g id="a_edge27_Node000017_Node000008"><a xlink:title=" ">
<path fill="none" stroke="#63b8ff" d="M716.69,-164.66C704.93,-146.77 678.13,-106 662.8,-82.69"/>
<polygon fill="#63b8ff" stroke="#63b8ff" points="665.61,-80.59 657.19,-74.16 659.76,-84.44 665.61,-80.59"/>
</a>
</g>
</g>
<!-- Node17&#45;&gt;Node16 -->
<g id="edge26_Node000017_Node000016" class="edge">
<title>Node17&#45;&gt;Node16</title>
<g id="a_edge26_Node000017_Node000016"><a xlink:title=" ">
<path fill="none" stroke="#63b8ff" d="M706.59,-164.98C690.95,-156.61 666.84,-143.7 648.62,-133.95"/>
<polygon fill="#63b8ff" stroke="#63b8ff" points="650.16,-130.8 639.7,-129.17 646.86,-136.98 650.16,-130.8"/>
</a>
</g>
</g>
<!-- Node19&#45;&gt;Node8 -->
<g id="edge30_Node000019_Node000008" class="edge">
<title>Node19&#45;&gt;Node8</title>
<g id="a_edge30_Node000019_Node000008"><a xlink:title=" ">
<path fill="none" stroke="#63b8ff" d="M591.9,-164.73C585.88,-151.94 577.13,-127.77 586.5,-110 593.74,-96.27 607.33,-85.97 620.22,-78.76"/>
<polygon fill="#63b8ff" stroke="#63b8ff" points="622.09,-81.73 629.38,-74.05 618.89,-75.51 622.09,-81.73"/>
</a>
</g>
</g>
<!-- Node20 -->
<g id="Node000020" class="node">
<title>Node20</title>
<g id="a_Node000020"><a xlink:href="mk64_8h.html" target="_top" xlink:title=" ">
<polygon fill="white" stroke="#666666" points="1228,-129 1175,-129 1175,-110 1228,-110 1228,-129"/>
<text text-anchor="middle" x="1201.5" y="-117" font-family="Helvetica,sans-Serif" font-size="10.00">mk64.h</text>
</a>
</g>
</g>
<!-- Node19&#45;&gt;Node20 -->
<g id="edge31_Node000019_Node000020" class="edge">
<title>Node19&#45;&gt;Node20</title>
<g id="a_edge31_Node000019_Node000020"><a xlink:title=" ">
<path fill="none" stroke="#63b8ff" d="M635.01,-169.49C649.85,-168 666.95,-166.35 682.5,-165 894.15,-146.67 951.69,-162.08 1164.9,-129.01"/>
<polygon fill="#63b8ff" stroke="#63b8ff" points="1165.5,-132.46 1174.84,-127.45 1164.42,-125.54 1165.5,-132.46"/>
</a>
</g>
</g>
<!-- Node20&#45;&gt;Node3 -->
<g id="edge32_Node000020_Node000003" class="edge">
<title>Node20&#45;&gt;Node3</title>
<g id="a_edge32_Node000020_Node000003"><a xlink:title=" ">
<path fill="none" stroke="#63b8ff" d="M1188.76,-109.84C1161.54,-91.36 1097.5,-47.86 1063.91,-25.05"/>
<polygon fill="#63b8ff" stroke="#63b8ff" points="1065.54,-21.92 1055.3,-19.2 1061.61,-27.71 1065.54,-21.92"/>
</a>
</g>
</g>
<!-- Node20&#45;&gt;Node11 -->
<g id="edge35_Node000020_Node000011" class="edge">
<title>Node20&#45;&gt;Node11</title>
<g id="a_edge35_Node000020_Node000011"><a xlink:title=" ">
<path fill="none" stroke="#63b8ff" d="M1211.78,-109.98C1221.34,-102.07 1235.78,-90.11 1247.28,-80.58"/>
<polygon fill="#63b8ff" stroke="#63b8ff" points="1249.56,-83.24 1255.03,-74.17 1245.1,-77.85 1249.56,-83.24"/>
</a>
</g>
</g>
<!-- Node21 -->
<g id="Node000021" class="node">
<title>Node21</title>
<g id="a_Node000021"><a xlink:href="string_8h.html" target="_top" xlink:title=" ">
<polygon fill="white" stroke="#666666" points="1208,-74 1155,-74 1155,-55 1208,-55 1208,-74"/>
<text text-anchor="middle" x="1181.5" y="-62" font-family="Helvetica,sans-Serif" font-size="10.00">string.h</text>
</a>
</g>
</g>
<!-- Node20&#45;&gt;Node21 -->
<g id="edge33_Node000020_Node000021" class="edge">
<title>Node20&#45;&gt;Node21</title>
<g id="a_edge33_Node000020_Node000021"><a xlink:title=" ">
<path fill="none" stroke="#63b8ff" d="M1198.2,-109.75C1195.52,-102.65 1191.65,-92.4 1188.31,-83.56"/>
<polygon fill="#63b8ff" stroke="#63b8ff" points="1191.55,-82.21 1184.74,-74.09 1185,-84.68 1191.55,-82.21"/>
</a>
</g>
</g>
<!-- Node21&#45;&gt;Node10 -->
<g id="edge34_Node000021_Node000010" class="edge">
<title>Node21&#45;&gt;Node10</title>
<g id="a_edge34_Node000021_Node000010"><a xlink:title=" ">
<path fill="none" stroke="#63b8ff" d="M1189.1,-54.75C1195.66,-47.18 1205.32,-36.05 1213.31,-26.84"/>
<polygon fill="#63b8ff" stroke="#63b8ff" points="1216.13,-28.94 1220.05,-19.09 1210.85,-24.35 1216.13,-28.94"/>
</a>
</g>
</g>
<!-- Node22&#45;&gt;Node8 -->
<g id="edge39_Node000022_Node000008" class="edge">
<title>Node22&#45;&gt;Node8</title>
<g id="a_edge39_Node000022_Node000008"><a xlink:title=" ">
<path fill="none" stroke="#63b8ff" d="M576.86,-219.73C567.19,-211.67 554.15,-198.74 548.5,-184 545.48,-176.12 546.41,-173.18 548.5,-165 555.38,-138.02 559.29,-130.16 578.5,-110 590.93,-96.96 607.99,-86.27 622.49,-78.65"/>
<polygon fill="#63b8ff" stroke="#63b8ff" points="624.21,-81.7 631.58,-74.09 621.07,-75.45 624.21,-81.7"/>
</a>
</g>
</g>
<!-- Node22&#45;&gt;Node19 -->
<g id="edge45_Node000022_Node000019" class="edge">
<title>Node22&#45;&gt;Node19</title>
<g id="a_edge45_Node000022_Node000019"><a xlink:title=" ">
<path fill="none" stroke="#63b8ff" d="M589.82,-219.75C590.87,-212.8 592.37,-202.85 593.69,-194.13"/>
<polygon fill="#63b8ff" stroke="#63b8ff" points="597.17,-194.5 595.2,-184.09 590.25,-193.45 597.17,-194.5"/>
</a>
</g>
</g>
<!-- Node22&#45;&gt;Node23 -->
<g id="edge37_Node000022_Node000023" class="edge">
<title>Node22&#45;&gt;Node23</title>
<g id="a_edge37_Node000022_Node000023"><a xlink:title=" ">
<path fill="none" stroke="#63b8ff" d="M562.31,-219.98C535.06,-211.13 492.2,-197.19 461.72,-187.28"/>
<polygon fill="#63b8ff" stroke="#63b8ff" points="462.49,-183.85 451.89,-184.08 460.32,-190.5 462.49,-183.85"/>
</a>
</g>
</g>
<!-- Node24 -->
<g id="Node000024" class="node">
<title>Node24</title>
<g id="a_Node000024"><a xlink:href="common__data_8h.html" target="_top" xlink:title=" ">
<polygon fill="white" stroke="#666666" points="1007.5,-129 877.5,-129 877.5,-110 1007.5,-110 1007.5,-129"/>
<text text-anchor="middle" x="942.5" y="-117" font-family="Helvetica,sans-Serif" font-size="10.00">assets/common_data.h</text>
</a>
</g>
</g>
<!-- Node22&#45;&gt;Node24 -->
<g id="edge40_Node000022_Node000024" class="edge">
<title>Node22&#45;&gt;Node24</title>
<g id="a_edge40_Node000022_Node000024"><a xlink:title=" ">
<path fill="none" stroke="#63b8ff" d="M625.54,-219.94C660.74,-211.58 715.06,-198.09 761.5,-184 814.37,-167.96 874.73,-146.04 910.67,-132.6"/>
<polygon fill="#63b8ff" stroke="#63b8ff" points="912,-135.84 920.13,-129.04 909.54,-129.28 912,-135.84"/>
</a>
</g>
</g>
<!-- Node23&#45;&gt;Node8 -->
<g id="edge38_Node000023_Node000008" class="edge">
<title>Node23&#45;&gt;Node8</title>
<g id="a_edge38_Node000023_Node000008"><a xlink:title=" ">
<path fill="none" stroke="#63b8ff" d="M430.28,-164.6C438.2,-150.73 455.39,-124.09 477.5,-110 510.52,-88.95 553.03,-77.84 587.76,-71.99"/>
<polygon fill="#63b8ff" stroke="#63b8ff" points="588.47,-75.42 597.8,-70.41 587.38,-68.51 588.47,-75.42"/>
</a>
</g>
</g>
<!-- Node24&#45;&gt;Node3 -->
<g id="edge42_Node000024_Node000003" class="edge">
<title>Node24&#45;&gt;Node3</title>
<g id="a_edge42_Node000024_Node000003"><a xlink:title=" ">
<path fill="none" stroke="#63b8ff" d="M937.85,-109.87C931.52,-96.82 922.2,-71.82 933.5,-55 946.75,-35.28 970.43,-24.3 992.34,-18.18"/>
<polygon fill="#63b8ff" stroke="#63b8ff" points="993.39,-21.52 1002.24,-15.7 991.69,-14.73 993.39,-21.52"/>
</a>
</g>
</g>
<!-- Node24&#45;&gt;Node8 -->
<g id="edge43_Node000024_Node000008" class="edge">
<title>Node24&#45;&gt;Node8</title>
<g id="a_edge43_Node000024_Node000008"><a xlink:title=" ">
<path fill="none" stroke="#63b8ff" d="M895.75,-109.98C844.78,-100.7 763.19,-85.84 708.51,-75.88"/>
<polygon fill="#63b8ff" stroke="#63b8ff" points="709.09,-72.43 698.62,-74.08 707.83,-79.32 709.09,-72.43"/>
</a>
</g>
</g>
<!-- Node24&#45;&gt;Node11 -->
<g id="edge41_Node000024_Node000011" class="edge">
<title>Node24&#45;&gt;Node11</title>
<g id="a_edge41_Node000024_Node000011"><a xlink:title=" ">
<path fill="none" stroke="#63b8ff" d="M996.55,-110C1049.86,-101.55 1133.96,-88.09 1216.43,-74.16"/>
<polygon fill="#63b8ff" stroke="#63b8ff" points="1217.2,-77.58 1226.48,-72.46 1216.03,-70.68 1217.2,-77.58"/>
</a>
</g>
</g>
<!-- Node24&#45;&gt;Node13 -->
<g id="edge44_Node000024_Node000013" class="edge">
<title>Node24&#45;&gt;Node13</title>
<g id="a_edge44_Node000024_Node000013"><a xlink:title=" ">
<path fill="none" stroke="#63b8ff" d="M951.98,-109.98C960.7,-102.15 973.84,-90.34 984.4,-80.86"/>
<polygon fill="#63b8ff" stroke="#63b8ff" points="986.75,-83.46 991.85,-74.17 982.07,-78.25 986.75,-83.46"/>
</a>
</g>
</g>
<!-- Node27 -->
<g id="Node000027" class="node">
<title>Node27</title>
<g id="a_Node000027"><a xlink:href="HMAS_8h.html" target="_top" xlink:title=" ">
<polygon fill="white" stroke="#666666" points="1544,-294 1437,-294 1437,-275 1544,-275 1544,-294"/>
<text text-anchor="middle" x="1490.5" y="-282" font-family="Helvetica,sans-Serif" font-size="10.00">port/audio/HMAS.h</text>
</a>
</g>
</g>
<!-- Node26&#45;&gt;Node27 -->
<g id="edge51_Node000026_Node000027" class="edge">
<title>Node26&#45;&gt;Node27</title>
<g id="a_edge51_Node000026_Node000027"><a xlink:title=" ">
<path fill="none" stroke="#63b8ff" d="M1294.94,-329.98C1335.15,-320.84 1399.18,-306.27 1442.94,-296.32"/>
<polygon fill="#63b8ff" stroke="#63b8ff" points="1443.8,-299.71 1452.77,-294.08 1442.24,-292.89 1443.8,-299.71"/>
</a>
</g>
</g>
<!-- Node28&#45;&gt;Node8 -->
<g id="edge54_Node000028_Node000008" class="edge">
<title>Node28&#45;&gt;Node8</title>
<g id="a_edge54_Node000028_Node000008"><a xlink:title=" ">
<path fill="none" stroke="#63b8ff" d="M940.53,-219.97C890.62,-193.29 737.27,-111.34 676.59,-78.91"/>
<polygon fill="#63b8ff" stroke="#63b8ff" points="678.15,-75.77 667.68,-74.15 674.85,-81.95 678.15,-75.77"/>
</a>
</g>
</g>
<!-- Node28&#45;&gt;Node9 -->
<g id="edge55_Node000028_Node000009" class="edge">
<title>Node28&#45;&gt;Node9</title>
<g id="a_edge55_Node000028_Node000009"><a xlink:title=" ">
<path fill="none" stroke="#63b8ff" d="M989.13,-223.66C1049.46,-214.7 1179.21,-195.44 1255.06,-184.18"/>
<polygon fill="#63b8ff" stroke="#63b8ff" points="1256.01,-187.57 1265.39,-182.64 1254.98,-180.65 1256.01,-187.57"/>
</a>
</g>
</g>
</g>
</svg>
