<?xml version="1.0" encoding="UTF-8" standalone="no"?>
<!DOCTYPE svg PUBLIC "-//W3C//DTD SVG 1.1//EN"
 "http://www.w3.org/Graphics/SVG/1.1/DTD/svg11.dtd">
<!-- Generated by graphviz version 2.43.0 (0)
 -->
<!-- Title: src/engine/ModelLoader.h Pages: 1 -->
<svg width="1043pt" height="357pt"
 viewBox="0.00 0.00 1043.00 357.00" xmlns="http://www.w3.org/2000/svg" xmlns:xlink="http://www.w3.org/1999/xlink">
<g id="graph0" class="graph" transform="scale(1 1) rotate(0) translate(4 353)">
<title>src/engine/ModelLoader.h</title>
<!-- Node1 -->
<g id="Node000001" class="node">
<title>Node1</title>
<g id="a_Node000001"><a xlink:title=" ">
<polygon fill="#999999" stroke="#666666" points="628.5,-349 487.5,-349 487.5,-330 628.5,-330 628.5,-349"/>
<text text-anchor="middle" x="558" y="-337" font-family="Helvetica,sans-Serif" font-size="10.00">src/engine/ModelLoader.h</text>
</a>
</g>
</g>
<!-- Node2 -->
<g id="Node000002" class="node">
<title>Node2</title>
<g id="a_Node000002"><a xlink:title=" ">
<polygon fill="#e0e0e0" stroke="#999999" points="853,-19 773,-19 773,0 853,0 853,-19"/>
<text text-anchor="middle" x="813" y="-7" font-family="Helvetica,sans-Serif" font-size="10.00">libultraship.h</text>
</a>
</g>
</g>
<!-- Node1&#45;&gt;Node2 -->
<g id="edge1_Node000001_Node000002" class="edge">
<title>Node1&#45;&gt;Node2</title>
<g id="a_edge1_Node000001_Node000002"><a xlink:title=" ">
<path fill="none" stroke="#63b8ff" d="M628.64,-337.05C761.42,-332.39 1035,-312.81 1035,-230.5 1035,-230.5 1035,-230.5 1035,-118.5 1035,-42.62 928.84,-20.04 863.34,-13.33"/>
<polygon fill="#63b8ff" stroke="#63b8ff" points="863.48,-9.83 853.2,-12.38 862.83,-16.8 863.48,-9.83"/>
</a>
</g>
</g>
<!-- Node3 -->
<g id="Node000003" class="node">
<title>Node3</title>
<g id="a_Node000003"><a xlink:href="Course_8h.html" target="_top" xlink:title=" ">
<polygon fill="white" stroke="#666666" points="626,-294 490,-294 490,-275 626,-275 626,-294"/>
<text text-anchor="middle" x="558" y="-282" font-family="Helvetica,sans-Serif" font-size="10.00">engine/courses/Course.h</text>
</a>
</g>
</g>
<!-- Node1&#45;&gt;Node3 -->
<g id="edge2_Node000001_Node000003" class="edge">
<title>Node1&#45;&gt;Node3</title>
<g id="a_edge2_Node000001_Node000003"><a xlink:title=" ">
<path fill="none" stroke="#63b8ff" d="M558,-329.75C558,-322.8 558,-312.85 558,-304.13"/>
<polygon fill="#63b8ff" stroke="#63b8ff" points="561.5,-304.09 558,-294.09 554.5,-304.09 561.5,-304.09"/>
</a>
</g>
</g>
<!-- Node7 -->
<g id="Node000007" class="node">
<title>Node7</title>
<g id="a_Node000007"><a xlink:href="common__structs_8h.html" target="_top" xlink:title=" ">
<polygon fill="white" stroke="#666666" points="279.5,-74 172.5,-74 172.5,-55 279.5,-55 279.5,-74"/>
<text text-anchor="middle" x="226" y="-62" font-family="Helvetica,sans-Serif" font-size="10.00">common_structs.h</text>
</a>
</g>
</g>
<!-- Node1&#45;&gt;Node7 -->
<g id="edge48_Node000001_Node000007" class="edge">
<title>Node1&#45;&gt;Node7</title>
<g id="a_edge48_Node000001_Node000007"><a xlink:title=" ">
<path fill="none" stroke="#63b8ff" d="M487.33,-339.42C337.18,-339.48 0,-328.68 0,-230.5 0,-230.5 0,-230.5 0,-173.5 0,-101.12 95.55,-77.2 162.39,-69.33"/>
<polygon fill="#63b8ff" stroke="#63b8ff" points="162.88,-72.8 172.44,-68.24 162.12,-65.84 162.88,-72.8"/>
</a>
</g>
</g>
<!-- Node4 -->
<g id="Node000004" class="node">
<title>Node4</title>
<g id="a_Node000004"><a xlink:title=" ">
<polygon fill="#e0e0e0" stroke="#999999" points="627,-239 489,-239 489,-220 627,-220 627,-239"/>
<text text-anchor="middle" x="558" y="-227" font-family="Helvetica,sans-Serif" font-size="10.00">libultraship/libultraship.h</text>
</a>
</g>
</g>
<!-- Node3&#45;&gt;Node4 -->
<g id="edge3_Node000003_Node000004" class="edge">
<title>Node3&#45;&gt;Node4</title>
<g id="a_edge3_Node000003_Node000004"><a xlink:title=" ">
<path fill="none" stroke="#63b8ff" d="M558,-274.75C558,-267.8 558,-257.85 558,-249.13"/>
<polygon fill="#63b8ff" stroke="#63b8ff" points="561.5,-249.09 558,-239.09 554.5,-249.09 561.5,-249.09"/>
</a>
</g>
</g>
<!-- Node5 -->
<g id="Node000005" class="node">
<title>Node5</title>
<g id="a_Node000005"><a xlink:href="CoreMath_8h.html" target="_top" xlink:title=" ">
<polygon fill="white" stroke="#666666" points="1006.5,-184 933.5,-184 933.5,-165 1006.5,-165 1006.5,-184"/>
<text text-anchor="middle" x="970" y="-172" font-family="Helvetica,sans-Serif" font-size="10.00">CoreMath.h</text>
</a>
</g>
</g>
<!-- Node3&#45;&gt;Node5 -->
<g id="edge4_Node000003_Node000005" class="edge">
<title>Node3&#45;&gt;Node5</title>
<g id="a_edge4_Node000003_Node000005"><a xlink:title=" ">
<path fill="none" stroke="#63b8ff" d="M626.18,-279.59C686.34,-274.62 775.74,-263.52 850,-239 886.59,-226.92 925.38,-204.37 948.64,-189.65"/>
<polygon fill="#63b8ff" stroke="#63b8ff" points="950.81,-192.42 957.33,-184.06 947.02,-186.53 950.81,-192.42"/>
</a>
</g>
</g>
<!-- Node6 -->
<g id="Node000006" class="node">
<title>Node6</title>
<g id="a_Node000006"><a xlink:href="camera_8h.html" target="_top" xlink:title=" ">
<polygon fill="white" stroke="#666666" points="447,-129 385,-129 385,-110 447,-110 447,-129"/>
<text text-anchor="middle" x="416" y="-117" font-family="Helvetica,sans-Serif" font-size="10.00">camera.h</text>
</a>
</g>
</g>
<!-- Node3&#45;&gt;Node6 -->
<g id="edge6_Node000003_Node000006" class="edge">
<title>Node3&#45;&gt;Node6</title>
<g id="a_edge6_Node000003_Node000006"><a xlink:title=" ">
<path fill="none" stroke="#63b8ff" d="M626.03,-280.08C688.01,-275.37 772.98,-264.36 794,-239 799.39,-232.5 799.16,-226.69 794,-220 783.51,-206.39 552.83,-151.99 457.09,-129.9"/>
<polygon fill="#63b8ff" stroke="#63b8ff" points="457.71,-126.45 447.17,-127.62 456.13,-133.27 457.71,-126.45"/>
</a>
</g>
</g>
<!-- Node3&#45;&gt;Node7 -->
<g id="edge47_Node000003_Node000007" class="edge">
<title>Node3&#45;&gt;Node7</title>
<g id="a_edge47_Node000003_Node000007"><a xlink:title=" ">
<path fill="none" stroke="#63b8ff" d="M489.88,-283.06C384.17,-281.3 186.48,-273.34 126,-239 69.46,-206.89 17.31,-161.5 57,-110 70.07,-93.04 120.13,-81.25 162.4,-74.09"/>
<polygon fill="#63b8ff" stroke="#63b8ff" points="163.09,-77.52 172.39,-72.45 161.96,-70.61 163.09,-77.52"/>
</a>
</g>
</g>
<!-- Node8 -->
<g id="Node000008" class="node">
<title>Node8</title>
<g id="a_Node000008"><a xlink:href="course__offsets_8h.html" target="_top" xlink:title=" ">
<polygon fill="white" stroke="#666666" points="915,-184 819,-184 819,-165 915,-165 915,-184"/>
<text text-anchor="middle" x="867" y="-172" font-family="Helvetica,sans-Serif" font-size="10.00">course_offsets.h</text>
</a>
</g>
</g>
<!-- Node3&#45;&gt;Node8 -->
<g id="edge10_Node000003_Node000008" class="edge">
<title>Node3&#45;&gt;Node8</title>
<g id="a_edge10_Node000003_Node000008"><a xlink:title=" ">
<path fill="none" stroke="#63b8ff" d="M626.3,-278.57C694.9,-272.51 794.91,-260.31 827,-239 843.24,-228.21 854.17,-208.33 860.44,-193.68"/>
<polygon fill="#63b8ff" stroke="#63b8ff" points="863.79,-194.73 864.19,-184.14 857.27,-192.16 863.79,-194.73"/>
</a>
</g>
</g>
<!-- Node14 -->
<g id="Node000014" class="node">
<title>Node14</title>
<g id="a_Node000014"><a xlink:href="src_2data_2some__data_8h.html" target="_top" xlink:title=" ">
<polygon fill="white" stroke="#666666" points="239,-239 135,-239 135,-220 239,-220 239,-239"/>
<text text-anchor="middle" x="187" y="-227" font-family="Helvetica,sans-Serif" font-size="10.00">data/some_data.h</text>
</a>
</g>
</g>
<!-- Node3&#45;&gt;Node14 -->
<g id="edge19_Node000003_Node000014" class="edge">
<title>Node3&#45;&gt;Node14</title>
<g id="a_edge19_Node000003_Node000014"><a xlink:title=" ">
<path fill="none" stroke="#63b8ff" d="M498.39,-274.98C430.06,-265.22 318.58,-249.3 249.19,-239.38"/>
<polygon fill="#63b8ff" stroke="#63b8ff" points="249.66,-235.92 239.26,-237.97 248.67,-242.85 249.66,-235.92"/>
</a>
</g>
</g>
<!-- Node17 -->
<g id="Node000017" class="node">
<title>Node17</title>
<g id="a_Node000017"><a xlink:href="defines_8h.html" target="_top" xlink:title=" ">
<polygon fill="white" stroke="#666666" points="706.5,-239 645.5,-239 645.5,-220 706.5,-220 706.5,-239"/>
<text text-anchor="middle" x="676" y="-227" font-family="Helvetica,sans-Serif" font-size="10.00">defines.h</text>
</a>
</g>
</g>
<!-- Node3&#45;&gt;Node17 -->
<g id="edge27_Node000003_Node000017" class="edge">
<title>Node3&#45;&gt;Node17</title>
<g id="a_edge27_Node000003_Node000017"><a xlink:title=" ">
<path fill="none" stroke="#63b8ff" d="M576.96,-274.98C596.03,-266.42 625.66,-253.11 647.55,-243.28"/>
<polygon fill="#63b8ff" stroke="#63b8ff" points="649.01,-246.46 656.7,-239.17 646.14,-240.07 649.01,-246.46"/>
</a>
</g>
</g>
<!-- Node18 -->
<g id="Node000018" class="node">
<title>Node18</title>
<g id="a_Node000018"><a xlink:href="bomb__kart_8h.html" target="_top" xlink:title=" ">
<polygon fill="white" stroke="#666666" points="507.5,-184 430.5,-184 430.5,-165 507.5,-165 507.5,-184"/>
<text text-anchor="middle" x="469" y="-172" font-family="Helvetica,sans-Serif" font-size="10.00">bomb_kart.h</text>
</a>
</g>
</g>
<!-- Node3&#45;&gt;Node18 -->
<g id="edge28_Node000003_Node000018" class="edge">
<title>Node3&#45;&gt;Node18</title>
<g id="a_edge28_Node000003_Node000018"><a xlink:title=" ">
<path fill="none" stroke="#63b8ff" d="M531.06,-274.93C513.75,-268 492.27,-256.48 480,-239 470.86,-225.98 468.48,-207.83 468.17,-194.27"/>
<polygon fill="#63b8ff" stroke="#63b8ff" points="471.67,-194.21 468.29,-184.17 464.67,-194.13 471.67,-194.21"/>
</a>
</g>
</g>
<!-- Node21 -->
<g id="Node000021" class="node">
<title>Node21</title>
<g id="a_Node000021"><a xlink:href="path__spawn__metadata_8h.html" target="_top" xlink:title=" ">
<polygon fill="white" stroke="#666666" points="432.5,-239 295.5,-239 295.5,-220 432.5,-220 432.5,-239"/>
<text text-anchor="middle" x="364" y="-227" font-family="Helvetica,sans-Serif" font-size="10.00">path_spawn_metadata.h</text>
</a>
</g>
</g>
<!-- Node3&#45;&gt;Node21 -->
<g id="edge35_Node000003_Node000021" class="edge">
<title>Node3&#45;&gt;Node21</title>
<g id="a_edge35_Node000003_Node000021"><a xlink:title=" ">
<path fill="none" stroke="#63b8ff" d="M526.83,-274.98C493.84,-265.97 441.6,-251.7 405.23,-241.76"/>
<polygon fill="#63b8ff" stroke="#63b8ff" points="405.98,-238.34 395.41,-239.08 404.14,-245.09 405.98,-238.34"/>
</a>
</g>
</g>
<!-- Node22 -->
<g id="Node000022" class="node">
<title>Node22</title>
<g id="a_Node000022"><a xlink:href="waypoints_8h.html" target="_top" xlink:title=" ">
<polygon fill="white" stroke="#666666" points="336,-184 260,-184 260,-165 336,-165 336,-184"/>
<text text-anchor="middle" x="298" y="-172" font-family="Helvetica,sans-Serif" font-size="10.00">waypoints.h</text>
</a>
</g>
</g>
<!-- Node3&#45;&gt;Node22 -->
<g id="edge45_Node000003_Node000022" class="edge">
<title>Node3&#45;&gt;Node22</title>
<g id="a_edge45_Node000003_Node000022"><a xlink:title=" ">
<path fill="none" stroke="#63b8ff" d="M489.92,-282.02C418.32,-278.86 312.54,-269.07 287,-239 276.28,-226.37 281.64,-207.11 288.06,-193.11"/>
<polygon fill="#63b8ff" stroke="#63b8ff" points="291.28,-194.52 292.72,-184.02 285.05,-191.33 291.28,-194.52"/>
</a>
</g>
</g>
<!-- Node24 -->
<g id="Node000024" class="node">
<title>Node24</title>
<g id="a_Node000024"><a xlink:href="sounds_8h.html" target="_top" xlink:title=" ">
<polygon fill="white" stroke="#666666" points="785,-239 725,-239 725,-220 785,-220 785,-239"/>
<text text-anchor="middle" x="755" y="-227" font-family="Helvetica,sans-Serif" font-size="10.00">sounds.h</text>
</a>
</g>
</g>
<!-- Node3&#45;&gt;Node24 -->
<g id="edge46_Node000003_Node000024" class="edge">
<title>Node3&#45;&gt;Node24</title>
<g id="a_edge46_Node000003_Node000024"><a xlink:title=" ">
<path fill="none" stroke="#63b8ff" d="M589.65,-274.98C623.65,-265.84 677.77,-251.28 714.77,-241.32"/>
<polygon fill="#63b8ff" stroke="#63b8ff" points="715.97,-244.62 724.72,-238.65 714.16,-237.86 715.97,-244.62"/>
</a>
</g>
</g>
<!-- Node5&#45;&gt;Node2 -->
<g id="edge5_Node000005_Node000002" class="edge">
<title>Node5&#45;&gt;Node2</title>
<g id="a_edge5_Node000005_Node000002"><a xlink:title=" ">
<path fill="none" stroke="#63b8ff" d="M974.02,-164.95C983.31,-143.81 1003.58,-88.39 978,-55 964.01,-36.74 906.43,-24.27 863.2,-17.28"/>
<polygon fill="#63b8ff" stroke="#63b8ff" points="863.53,-13.79 853.11,-15.71 862.45,-20.71 863.53,-13.79"/>
</a>
</g>
</g>
<!-- Node6&#45;&gt;Node2 -->
<g id="edge7_Node000006_Node000002" class="edge">
<title>Node6&#45;&gt;Node2</title>
<g id="a_edge7_Node000006_Node000002"><a xlink:title=" ">
<path fill="none" stroke="#63b8ff" d="M428.8,-109.98C450.23,-96.15 495.14,-68.95 537,-55 613.3,-29.58 706.44,-18.43 762.67,-13.72"/>
<polygon fill="#63b8ff" stroke="#63b8ff" points="763.04,-17.2 772.73,-12.91 762.48,-10.22 763.04,-17.2"/>
</a>
</g>
</g>
<!-- Node6&#45;&gt;Node7 -->
<g id="edge8_Node000006_Node000007" class="edge">
<title>Node6&#45;&gt;Node7</title>
<g id="a_edge8_Node000006_Node000007"><a xlink:title=" ">
<path fill="none" stroke="#63b8ff" d="M385.47,-109.98C353.3,-101.01 302.44,-86.82 266.83,-76.89"/>
<polygon fill="#63b8ff" stroke="#63b8ff" points="267.34,-73.4 256.77,-74.08 265.46,-80.14 267.34,-73.4"/>
</a>
</g>
</g>
<!-- Node7&#45;&gt;Node2 -->
<g id="edge9_Node000007_Node000002" class="edge">
<title>Node7&#45;&gt;Node2</title>
<g id="a_edge9_Node000007_Node000002"><a xlink:title=" ">
<path fill="none" stroke="#63b8ff" d="M279.65,-58.66C392.47,-48.47 652.93,-24.95 762.73,-15.04"/>
<polygon fill="#63b8ff" stroke="#63b8ff" points="763.24,-18.51 772.88,-14.12 762.61,-11.54 763.24,-18.51"/>
</a>
</g>
</g>
<!-- Node8&#45;&gt;Node2 -->
<g id="edge11_Node000008_Node000002" class="edge">
<title>Node8&#45;&gt;Node2</title>
<g id="a_edge11_Node000008_Node000002"><a xlink:title=" ">
<path fill="none" stroke="#63b8ff" d="M877.43,-164.84C890.39,-152.95 909.89,-130.7 902,-110 888.31,-74.05 854.96,-42.89 833.2,-25.43"/>
<polygon fill="#63b8ff" stroke="#63b8ff" points="835.26,-22.59 825.22,-19.21 830.96,-28.12 835.26,-22.59"/>
</a>
</g>
</g>
<!-- Node9 -->
<g id="Node000009" class="node">
<title>Node9</title>
<g id="a_Node000009"><a xlink:title=" ">
<polygon fill="#e0e0e0" stroke="#999999" points="1023,-19 933,-19 933,0 1023,0 1023,-19"/>
<text text-anchor="middle" x="978" y="-7" font-family="Helvetica,sans-Serif" font-size="10.00">libultra/types.h</text>
</a>
</g>
</g>
<!-- Node8&#45;&gt;Node9 -->
<g id="edge12_Node000008_Node000009" class="edge">
<title>Node8&#45;&gt;Node9</title>
<g id="a_edge12_Node000008_Node000009"><a xlink:title=" ">
<path fill="none" stroke="#63b8ff" d="M883.37,-164.87C909.2,-150.21 958.48,-117.72 978,-74 984.26,-59.99 983.71,-42.43 981.91,-29.34"/>
<polygon fill="#63b8ff" stroke="#63b8ff" points="985.3,-28.43 980.14,-19.18 978.4,-29.63 985.3,-28.43"/>
</a>
</g>
</g>
<!-- Node10 -->
<g id="Node000010" class="node">
<title>Node10</title>
<g id="a_Node000010"><a xlink:title=" ">
<polygon fill="#e0e0e0" stroke="#999999" points="820,-74 742,-74 742,-55 820,-55 820,-74"/>
<text text-anchor="middle" x="781" y="-62" font-family="Helvetica,sans-Serif" font-size="10.00">libultra/gbi.h</text>
</a>
</g>
</g>
<!-- Node8&#45;&gt;Node10 -->
<g id="edge13_Node000008_Node000010" class="edge">
<title>Node8&#45;&gt;Node10</title>
<g id="a_edge13_Node000008_Node000010"><a xlink:title=" ">
<path fill="none" stroke="#63b8ff" d="M860.07,-165C852.79,-156.06 841.04,-141.58 831,-129 818.34,-113.14 804.03,-94.93 793.97,-82.09"/>
<polygon fill="#63b8ff" stroke="#63b8ff" points="796.68,-79.87 787.76,-74.16 791.16,-84.19 796.68,-79.87"/>
</a>
</g>
</g>
<!-- Node11 -->
<g id="Node000011" class="node">
<title>Node11</title>
<g id="a_Node000011"><a xlink:href="other__textures_8h.html" target="_top" xlink:title=" ">
<polygon fill="white" stroke="#666666" points="744.5,-129 613.5,-129 613.5,-110 744.5,-110 744.5,-129"/>
<text text-anchor="middle" x="679" y="-117" font-family="Helvetica,sans-Serif" font-size="10.00">assets/other_textures.h</text>
</a>
</g>
</g>
<!-- Node8&#45;&gt;Node11 -->
<g id="edge14_Node000008_Node000011" class="edge">
<title>Node8&#45;&gt;Node11</title>
<g id="a_edge14_Node000008_Node000011"><a xlink:title=" ">
<path fill="none" stroke="#63b8ff" d="M836.79,-164.98C804.96,-156.01 754.64,-141.82 719.4,-131.89"/>
<polygon fill="#63b8ff" stroke="#63b8ff" points="720.02,-128.43 709.44,-129.08 718.12,-135.16 720.02,-128.43"/>
</a>
</g>
</g>
<!-- Node13 -->
<g id="Node000013" class="node">
<title>Node13</title>
<g id="a_Node000013"><a xlink:href="animation_8h.html" target="_top" xlink:title=" ">
<polygon fill="white" stroke="#666666" points="367.5,-129 292.5,-129 292.5,-110 367.5,-110 367.5,-129"/>
<text text-anchor="middle" x="330" y="-117" font-family="Helvetica,sans-Serif" font-size="10.00">animation.h</text>
</a>
</g>
</g>
<!-- Node8&#45;&gt;Node13 -->
<g id="edge17_Node000008_Node000013" class="edge">
<title>Node8&#45;&gt;Node13</title>
<g id="a_edge17_Node000008_Node000013"><a xlink:title=" ">
<path fill="none" stroke="#63b8ff" d="M818.74,-170.61C732.27,-165.11 545.04,-151.73 377.59,-129.11"/>
<polygon fill="#63b8ff" stroke="#63b8ff" points="377.99,-125.63 367.61,-127.74 377.04,-132.56 377.99,-125.63"/>
</a>
</g>
</g>
<!-- Node11&#45;&gt;Node2 -->
<g id="edge15_Node000011_Node000002" class="edge">
<title>Node11&#45;&gt;Node2</title>
<g id="a_edge15_Node000011_Node000002"><a xlink:title=" ">
<path fill="none" stroke="#63b8ff" d="M684.82,-109.84C693.93,-96.75 712.63,-71.7 733,-55 748.37,-42.4 767.81,-31.49 783.68,-23.63"/>
<polygon fill="#63b8ff" stroke="#63b8ff" points="785.53,-26.62 793.03,-19.14 782.5,-20.31 785.53,-26.62"/>
</a>
</g>
</g>
<!-- Node12 -->
<g id="Node000012" class="node">
<title>Node12</title>
<g id="a_Node000012"><a xlink:href="align__asset__macro_8h.html" target="_top" xlink:title=" ">
<polygon fill="white" stroke="#666666" points="681.5,-74 564.5,-74 564.5,-55 681.5,-55 681.5,-74"/>
<text text-anchor="middle" x="623" y="-62" font-family="Helvetica,sans-Serif" font-size="10.00">align_asset_macro.h</text>
</a>
</g>
</g>
<!-- Node11&#45;&gt;Node12 -->
<g id="edge16_Node000011_Node000012" class="edge">
<title>Node11&#45;&gt;Node12</title>
<g id="a_edge16_Node000011_Node000012"><a xlink:title=" ">
<path fill="none" stroke="#63b8ff" d="M670,-109.98C661.81,-102.23 649.49,-90.58 639.53,-81.14"/>
<polygon fill="#63b8ff" stroke="#63b8ff" points="641.83,-78.5 632.16,-74.17 637.02,-83.59 641.83,-78.5"/>
</a>
</g>
</g>
<!-- Node13&#45;&gt;Node7 -->
<g id="edge18_Node000013_Node000007" class="edge">
<title>Node13&#45;&gt;Node7</title>
<g id="a_edge18_Node000013_Node000007"><a xlink:title=" ">
<path fill="none" stroke="#63b8ff" d="M313.29,-109.98C296.79,-101.57 271.3,-88.59 252.12,-78.81"/>
<polygon fill="#63b8ff" stroke="#63b8ff" points="253.51,-75.59 243.01,-74.17 250.33,-81.83 253.51,-75.59"/>
</a>
</g>
</g>
<!-- Node14&#45;&gt;Node10 -->
<g id="edge20_Node000014_Node000010" class="edge">
<title>Node14&#45;&gt;Node10</title>
<g id="a_edge20_Node000014_Node000010"><a xlink:title=" ">
<path fill="none" stroke="#63b8ff" d="M192.79,-219.55C202.72,-205.11 224.49,-177.04 251,-165 353.03,-118.64 662.8,-194.12 754,-129 768.45,-118.68 775.22,-99.03 778.36,-84.3"/>
<polygon fill="#63b8ff" stroke="#63b8ff" points="781.84,-84.7 780.12,-74.24 774.95,-83.49 781.84,-84.7"/>
</a>
</g>
</g>
<!-- Node14&#45;&gt;Node11 -->
<g id="edge23_Node000014_Node000011" class="edge">
<title>Node14&#45;&gt;Node11</title>
<g id="a_edge23_Node000014_Node000011"><a xlink:title=" ">
<path fill="none" stroke="#63b8ff" d="M188.48,-219.76C191.37,-205.62 199.23,-177.97 218,-165 286.45,-117.69 502.81,-136.44 602.97,-128.94"/>
<polygon fill="#63b8ff" stroke="#63b8ff" points="603.5,-132.4 613.16,-128.04 602.89,-125.43 603.5,-132.4"/>
</a>
</g>
</g>
<!-- Node15 -->
<g id="Node000015" class="node">
<title>Node15</title>
<g id="a_Node000015"><a xlink:href="spline_8h.html" target="_top" xlink:title=" ">
<polygon fill="white" stroke="#666666" points="121.5,-129 66.5,-129 66.5,-110 121.5,-110 121.5,-129"/>
<text text-anchor="middle" x="94" y="-117" font-family="Helvetica,sans-Serif" font-size="10.00">spline.h</text>
</a>
</g>
</g>
<!-- Node14&#45;&gt;Node15 -->
<g id="edge21_Node000014_Node000015" class="edge">
<title>Node14&#45;&gt;Node15</title>
<g id="a_edge21_Node000014_Node000015"><a xlink:title=" ">
<path fill="none" stroke="#63b8ff" d="M148.28,-220C128.79,-213.57 106.84,-202.55 95,-184 86.57,-170.78 87.19,-152.66 89.42,-139.16"/>
<polygon fill="#63b8ff" stroke="#63b8ff" points="92.9,-139.61 91.5,-129.11 86.04,-138.19 92.9,-139.61"/>
</a>
</g>
</g>
<!-- Node16 -->
<g id="Node000016" class="node">
<title>Node16</title>
<g id="a_Node000016"><a xlink:href="objects_8h.html" target="_top" xlink:title=" ">
<polygon fill="white" stroke="#666666" points="165.5,-184 104.5,-184 104.5,-165 165.5,-165 165.5,-184"/>
<text text-anchor="middle" x="135" y="-172" font-family="Helvetica,sans-Serif" font-size="10.00">objects.h</text>
</a>
</g>
</g>
<!-- Node14&#45;&gt;Node16 -->
<g id="edge24_Node000014_Node000016" class="edge">
<title>Node14&#45;&gt;Node16</title>
<g id="a_edge24_Node000014_Node000016"><a xlink:title=" ">
<path fill="none" stroke="#63b8ff" d="M178.41,-219.75C170.84,-212.03 159.62,-200.6 150.49,-191.28"/>
<polygon fill="#63b8ff" stroke="#63b8ff" points="152.93,-188.78 143.43,-184.09 147.93,-193.68 152.93,-188.78"/>
</a>
</g>
</g>
<!-- Node15&#45;&gt;Node7 -->
<g id="edge22_Node000015_Node000007" class="edge">
<title>Node15&#45;&gt;Node7</title>
<g id="a_edge22_Node000015_Node000007"><a xlink:title=" ">
<path fill="none" stroke="#63b8ff" d="M115.21,-109.98C136.73,-101.34 170.28,-87.87 194.83,-78.02"/>
<polygon fill="#63b8ff" stroke="#63b8ff" points="196.43,-81.14 204.41,-74.17 193.82,-74.65 196.43,-81.14"/>
</a>
</g>
</g>
<!-- Node16&#45;&gt;Node7 -->
<g id="edge26_Node000016_Node000007" class="edge">
<title>Node16&#45;&gt;Node7</title>
<g id="a_edge26_Node000016_Node000007"><a xlink:title=" ">
<path fill="none" stroke="#63b8ff" d="M142.45,-164.66C157.65,-146.61 192.48,-105.28 212.03,-82.08"/>
<polygon fill="#63b8ff" stroke="#63b8ff" points="214.94,-84.06 218.7,-74.16 209.58,-79.55 214.94,-84.06"/>
</a>
</g>
</g>
<!-- Node16&#45;&gt;Node15 -->
<g id="edge25_Node000016_Node000015" class="edge">
<title>Node16&#45;&gt;Node15</title>
<g id="a_edge25_Node000016_Node000015"><a xlink:title=" ">
<path fill="none" stroke="#63b8ff" d="M128.23,-164.75C122.44,-157.26 113.94,-146.28 106.86,-137.13"/>
<polygon fill="#63b8ff" stroke="#63b8ff" points="109.53,-134.86 100.64,-129.09 103.99,-139.14 109.53,-134.86"/>
</a>
</g>
</g>
<!-- Node18&#45;&gt;Node7 -->
<g id="edge29_Node000018_Node000007" class="edge">
<title>Node18&#45;&gt;Node7</title>
<g id="a_edge29_Node000018_Node000007"><a xlink:title=" ">
<path fill="none" stroke="#63b8ff" d="M430.4,-170.83C391.16,-166.67 329.8,-156.04 284,-129 264.59,-117.54 247.91,-97.52 237.48,-83.02"/>
<polygon fill="#63b8ff" stroke="#63b8ff" points="240.12,-80.68 231.57,-74.43 234.36,-84.65 240.12,-80.68"/>
</a>
</g>
</g>
<!-- Node19 -->
<g id="Node000019" class="node">
<title>Node19</title>
<g id="a_Node000019"><a xlink:href="mk64_8h.html" target="_top" xlink:title=" ">
<polygon fill="white" stroke="#666666" points="892.5,-129 839.5,-129 839.5,-110 892.5,-110 892.5,-129"/>
<text text-anchor="middle" x="866" y="-117" font-family="Helvetica,sans-Serif" font-size="10.00">mk64.h</text>
</a>
</g>
</g>
<!-- Node18&#45;&gt;Node19 -->
<g id="edge30_Node000018_Node000019" class="edge">
<title>Node18&#45;&gt;Node19</title>
<g id="a_edge30_Node000018_Node000019"><a xlink:title=" ">
<path fill="none" stroke="#63b8ff" d="M507.79,-168.32C584.47,-158.08 754.49,-135.39 829.38,-125.39"/>
<polygon fill="#63b8ff" stroke="#63b8ff" points="829.84,-128.86 839.29,-124.07 828.92,-121.92 829.84,-128.86"/>
</a>
</g>
</g>
<!-- Node19&#45;&gt;Node2 -->
<g id="edge31_Node000019_Node000002" class="edge">
<title>Node19&#45;&gt;Node2</title>
<g id="a_edge31_Node000019_Node000002"><a xlink:title=" ">
<path fill="none" stroke="#63b8ff" d="M861.66,-109.66C852.96,-91.93 833.23,-51.73 821.74,-28.32"/>
<polygon fill="#63b8ff" stroke="#63b8ff" points="824.8,-26.59 817.25,-19.16 818.51,-29.68 824.8,-26.59"/>
</a>
</g>
</g>
<!-- Node19&#45;&gt;Node10 -->
<g id="edge34_Node000019_Node000010" class="edge">
<title>Node19&#45;&gt;Node10</title>
<g id="a_edge34_Node000019_Node000010"><a xlink:title=" ">
<path fill="none" stroke="#63b8ff" d="M852.34,-109.98C839.16,-101.77 818.97,-89.18 803.43,-79.49"/>
<polygon fill="#63b8ff" stroke="#63b8ff" points="805.24,-76.49 794.91,-74.17 801.54,-82.43 805.24,-76.49"/>
</a>
</g>
</g>
<!-- Node20 -->
<g id="Node000020" class="node">
<title>Node20</title>
<g id="a_Node000020"><a xlink:href="string_8h.html" target="_top" xlink:title=" ">
<polygon fill="white" stroke="#666666" points="968.5,-74 915.5,-74 915.5,-55 968.5,-55 968.5,-74"/>
<text text-anchor="middle" x="942" y="-62" font-family="Helvetica,sans-Serif" font-size="10.00">string.h</text>
</a>
</g>
</g>
<!-- Node19&#45;&gt;Node20 -->
<g id="edge32_Node000019_Node000020" class="edge">
<title>Node19&#45;&gt;Node20</title>
<g id="a_edge32_Node000019_Node000020"><a xlink:title=" ">
<path fill="none" stroke="#63b8ff" d="M878.21,-109.98C889.78,-101.92 907.38,-89.65 921.16,-80.03"/>
<polygon fill="#63b8ff" stroke="#63b8ff" points="923.37,-82.76 929.57,-74.17 919.36,-77.02 923.37,-82.76"/>
</a>
</g>
</g>
<!-- Node20&#45;&gt;Node9 -->
<g id="edge33_Node000020_Node000009" class="edge">
<title>Node20&#45;&gt;Node9</title>
<g id="a_edge33_Node000020_Node000009"><a xlink:title=" ">
<path fill="none" stroke="#63b8ff" d="M947.94,-54.75C952.98,-47.34 960.34,-36.5 966.51,-27.41"/>
<polygon fill="#63b8ff" stroke="#63b8ff" points="969.44,-29.33 972.17,-19.09 963.65,-25.39 969.44,-29.33"/>
</a>
</g>
</g>
<!-- Node21&#45;&gt;Node7 -->
<g id="edge38_Node000021_Node000007" class="edge">
<title>Node21&#45;&gt;Node7</title>
<g id="a_edge38_Node000021_Node000007"><a xlink:title=" ">
<path fill="none" stroke="#63b8ff" d="M363.72,-219.97C362.83,-206.61 359.25,-180.66 345,-165 316.27,-133.45 287.02,-158.3 256,-129 243.13,-116.84 235.21,-98.05 230.76,-84.06"/>
<polygon fill="#63b8ff" stroke="#63b8ff" points="234.03,-82.74 227.91,-74.09 227.3,-84.66 234.03,-82.74"/>
</a>
</g>
</g>
<!-- Node21&#45;&gt;Node18 -->
<g id="edge44_Node000021_Node000018" class="edge">
<title>Node21&#45;&gt;Node18</title>
<g id="a_edge44_Node000021_Node000018"><a xlink:title=" ">
<path fill="none" stroke="#63b8ff" d="M380.87,-219.98C397.61,-211.54 423.5,-198.47 442.89,-188.68"/>
<polygon fill="#63b8ff" stroke="#63b8ff" points="444.47,-191.8 451.82,-184.17 441.32,-185.55 444.47,-191.8"/>
</a>
</g>
</g>
<!-- Node21&#45;&gt;Node22 -->
<g id="edge36_Node000021_Node000022" class="edge">
<title>Node21&#45;&gt;Node22</title>
<g id="a_edge36_Node000021_Node000022"><a xlink:title=" ">
<path fill="none" stroke="#63b8ff" d="M353.4,-219.98C343.54,-212.07 328.65,-200.11 316.78,-190.58"/>
<polygon fill="#63b8ff" stroke="#63b8ff" points="318.79,-187.7 308.8,-184.17 314.4,-193.16 318.79,-187.7"/>
</a>
</g>
</g>
<!-- Node23 -->
<g id="Node000023" class="node">
<title>Node23</title>
<g id="a_Node000023"><a xlink:href="common__data_8h.html" target="_top" xlink:title=" ">
<polygon fill="white" stroke="#666666" points="595,-129 465,-129 465,-110 595,-110 595,-129"/>
<text text-anchor="middle" x="530" y="-117" font-family="Helvetica,sans-Serif" font-size="10.00">assets/common_data.h</text>
</a>
</g>
</g>
<!-- Node21&#45;&gt;Node23 -->
<g id="edge39_Node000021_Node000023" class="edge">
<title>Node21&#45;&gt;Node23</title>
<g id="a_edge39_Node000021_Node000023"><a xlink:title=" ">
<path fill="none" stroke="#63b8ff" d="M369.84,-220C379.38,-206.67 399.49,-180.75 422,-165 442.51,-150.64 468.35,-139.78 489.62,-132.39"/>
<polygon fill="#63b8ff" stroke="#63b8ff" points="490.96,-135.63 499.34,-129.14 488.74,-128.99 490.96,-135.63"/>
</a>
</g>
</g>
<!-- Node22&#45;&gt;Node7 -->
<g id="edge37_Node000022_Node000007" class="edge">
<title>Node22&#45;&gt;Node7</title>
<g id="a_edge37_Node000022_Node000007"><a xlink:title=" ">
<path fill="none" stroke="#63b8ff" d="M262.95,-164.88C244.35,-158.33 223.1,-147.24 212,-129 203.58,-115.17 208.99,-96.9 215.38,-83.51"/>
<polygon fill="#63b8ff" stroke="#63b8ff" points="218.63,-84.85 220.24,-74.38 212.45,-81.56 218.63,-84.85"/>
</a>
</g>
</g>
<!-- Node23&#45;&gt;Node2 -->
<g id="edge41_Node000023_Node000002" class="edge">
<title>Node23&#45;&gt;Node2</title>
<g id="a_edge41_Node000023_Node000002"><a xlink:title=" ">
<path fill="none" stroke="#63b8ff" d="M530.89,-109.97C532.83,-96.11 538.73,-68.88 556,-55 587.12,-30 697.28,-18.33 762.85,-13.48"/>
<polygon fill="#63b8ff" stroke="#63b8ff" points="763.24,-16.96 772.97,-12.76 762.75,-9.98 763.24,-16.96"/>
</a>
</g>
</g>
<!-- Node23&#45;&gt;Node7 -->
<g id="edge42_Node000023_Node000007" class="edge">
<title>Node23&#45;&gt;Node7</title>
<g id="a_edge42_Node000023_Node000007"><a xlink:title=" ">
<path fill="none" stroke="#63b8ff" d="M481.16,-109.98C427.72,-100.67 342.08,-85.74 284.94,-75.78"/>
<polygon fill="#63b8ff" stroke="#63b8ff" points="285.43,-72.31 274.97,-74.04 284.22,-79.2 285.43,-72.31"/>
</a>
</g>
</g>
<!-- Node23&#45;&gt;Node10 -->
<g id="edge40_Node000023_Node000010" class="edge">
<title>Node23&#45;&gt;Node10</title>
<g id="a_edge40_Node000023_Node000010"><a xlink:title=" ">
<path fill="none" stroke="#63b8ff" d="M570.33,-109.98C614.22,-100.72 684.44,-85.89 731.61,-75.93"/>
<polygon fill="#63b8ff" stroke="#63b8ff" points="732.54,-79.31 741.6,-73.82 731.09,-72.46 732.54,-79.31"/>
</a>
</g>
</g>
<!-- Node23&#45;&gt;Node12 -->
<g id="edge43_Node000023_Node000012" class="edge">
<title>Node23&#45;&gt;Node12</title>
<g id="a_edge43_Node000023_Node000012"><a xlink:title=" ">
<path fill="none" stroke="#63b8ff" d="M544.94,-109.98C559.5,-101.69 581.87,-88.94 598.93,-79.22"/>
<polygon fill="#63b8ff" stroke="#63b8ff" points="600.83,-82.16 607.79,-74.17 597.36,-76.08 600.83,-82.16"/>
</a>
</g>
</g>
</g>
</svg>
