<?xml version="1.0" encoding="UTF-8" standalone="no"?>
<!DOCTYPE svg PUBLIC "-//W3C//DTD SVG 1.1//EN"
 "http://www.w3.org/Graphics/SVG/1.1/DTD/svg11.dtd">
<!-- Generated by graphviz version 2.43.0 (0)
 -->
<!-- Title: src/engine/objects/Mole.h Pages: 1 -->
<svg width="1018pt" height="225pt"
 viewBox="0.00 0.00 1018.00 225.00" xmlns="http://www.w3.org/2000/svg" xmlns:xlink="http://www.w3.org/1999/xlink">
<g id="graph0" class="graph" transform="scale(1 1) rotate(0) translate(4 221)">
<title>src/engine/objects/Mole.h</title>
<!-- Node1 -->
<g id="Node000001" class="node">
<title>Node1</title>
<g id="a_Node000001"><a xlink:title=" ">
<polygon fill="#999999" stroke="#666666" points="846,-217 741,-217 741,-187 846,-187 846,-217"/>
<text text-anchor="start" x="749" y="-205" font-family="Helvetica,sans-Serif" font-size="10.00">src/engine/objects</text>
<text text-anchor="middle" x="793.5" y="-194" font-family="Helvetica,sans-Serif" font-size="10.00">/Mole.h</text>
</a>
</g>
</g>
<!-- Node2 -->
<g id="Node000002" class="node">
<title>Node2</title>
<g id="a_Node000002"><a xlink:href="AllActors_8h.html" target="_top" xlink:title=" ">
<polygon fill="white" stroke="#666666" points="495.5,-145.5 373.5,-145.5 373.5,-126.5 495.5,-126.5 495.5,-145.5"/>
<text text-anchor="middle" x="434.5" y="-133.5" font-family="Helvetica,sans-Serif" font-size="10.00">src/engine/AllActors.h</text>
</a>
</g>
</g>
<!-- Node1&#45;&gt;Node2 -->
<g id="edge1_Node000001_Node000002" class="edge">
<title>Node1&#45;&gt;Node2</title>
<g id="a_edge1_Node000001_Node000002"><a xlink:title=" ">
<path fill="none" stroke="#63b8ff" d="M730.79,-189.82C659.99,-177.2 546.36,-156.94 482.35,-145.53"/>
<polygon fill="#63b8ff" stroke="#63b8ff" points="730.45,-193.32 740.91,-191.63 731.68,-186.42 730.45,-193.32"/>
</a>
</g>
</g>
<!-- Node8 -->
<g id="Node000008" class="node">
<title>Node8</title>
<g id="a_Node000008"><a xlink:href="MooMooFarm_8cpp.html" target="_top" xlink:title=" ">
<polygon fill="white" stroke="#666666" points="809,-85 702,-85 702,-55 809,-55 809,-85"/>
<text text-anchor="start" x="710" y="-73" font-family="Helvetica,sans-Serif" font-size="10.00">src/engine/courses</text>
<text text-anchor="middle" x="755.5" y="-62" font-family="Helvetica,sans-Serif" font-size="10.00">/MooMooFarm.cpp</text>
</a>
</g>
</g>
<!-- Node1&#45;&gt;Node8 -->
<g id="edge8_Node000001_Node000008" class="edge">
<title>Node1&#45;&gt;Node8</title>
<g id="a_edge8_Node000001_Node000008"><a xlink:title=" ">
<path fill="none" stroke="#63b8ff" d="M758.17,-181.11C747.6,-173.22 737.29,-163.11 731.5,-151 720.99,-129.02 734.61,-101.44 745.22,-85.07"/>
<polygon fill="#63b8ff" stroke="#63b8ff" points="756.41,-184.15 766.63,-186.96 760.39,-178.39 756.41,-184.15"/>
</a>
</g>
</g>
<!-- Node9 -->
<g id="Node000009" class="node">
<title>Node9</title>
<g id="a_Node000009"><a xlink:href="MooMooFarm_8h.html" target="_top" xlink:title=" ">
<polygon fill="white" stroke="#666666" points="684,-151 577,-151 577,-121 684,-121 684,-151"/>
<text text-anchor="start" x="585" y="-139" font-family="Helvetica,sans-Serif" font-size="10.00">src/engine/courses</text>
<text text-anchor="middle" x="630.5" y="-128" font-family="Helvetica,sans-Serif" font-size="10.00">/MooMooFarm.h</text>
</a>
</g>
</g>
<!-- Node1&#45;&gt;Node9 -->
<g id="edge9_Node000001_Node000009" class="edge">
<title>Node1&#45;&gt;Node9</title>
<g id="a_edge9_Node000001_Node000009"><a xlink:title=" ">
<path fill="none" stroke="#63b8ff" d="M748.14,-183.19C722.25,-173.02 690.27,-160.47 666.19,-151.01"/>
<polygon fill="#63b8ff" stroke="#63b8ff" points="747.14,-186.56 757.73,-186.95 749.7,-180.04 747.14,-186.56"/>
</a>
</g>
</g>
<!-- Node11 -->
<g id="Node000011" class="node">
<title>Node11</title>
<g id="a_Node000011"><a xlink:href="Mole_8cpp.html" target="_top" xlink:title=" ">
<polygon fill="white" stroke="#666666" points="846,-151 741,-151 741,-121 846,-121 846,-151"/>
<text text-anchor="start" x="749" y="-139" font-family="Helvetica,sans-Serif" font-size="10.00">src/engine/objects</text>
<text text-anchor="middle" x="793.5" y="-128" font-family="Helvetica,sans-Serif" font-size="10.00">/Mole.cpp</text>
</a>
</g>
</g>
<!-- Node1&#45;&gt;Node11 -->
<g id="edge12_Node000001_Node000011" class="edge">
<title>Node1&#45;&gt;Node11</title>
<g id="a_edge12_Node000001_Node000011"><a xlink:title=" ">
<path fill="none" stroke="#63b8ff" d="M793.5,-176.54C793.5,-167.96 793.5,-158.61 793.5,-151.16"/>
<polygon fill="#63b8ff" stroke="#63b8ff" points="790,-176.8 793.5,-186.8 797,-176.8 790,-176.8"/>
</a>
</g>
</g>
<!-- Node12 -->
<g id="Node000012" class="node">
<title>Node12</title>
<g id="a_Node000012"><a xlink:href="MoleGroup_8cpp.html" target="_top" xlink:title=" ">
<polygon fill="white" stroke="#666666" points="1010,-85 905,-85 905,-55 1010,-55 1010,-85"/>
<text text-anchor="start" x="913" y="-73" font-family="Helvetica,sans-Serif" font-size="10.00">src/engine/objects</text>
<text text-anchor="middle" x="957.5" y="-62" font-family="Helvetica,sans-Serif" font-size="10.00">/MoleGroup.cpp</text>
</a>
</g>
</g>
<!-- Node1&#45;&gt;Node12 -->
<g id="edge13_Node000001_Node000012" class="edge">
<title>Node1&#45;&gt;Node12</title>
<g id="a_edge13_Node000001_Node000012"><a xlink:title=" ">
<path fill="none" stroke="#63b8ff" d="M856.08,-192.32C903.68,-184.29 963.49,-170.61 978.5,-151 993.43,-131.5 979.04,-102.36 967.84,-85.15"/>
<polygon fill="#63b8ff" stroke="#63b8ff" points="855.43,-188.88 846.13,-193.95 856.56,-195.79 855.43,-188.88"/>
</a>
</g>
</g>
<!-- Node13 -->
<g id="Node000013" class="node">
<title>Node13</title>
<g id="a_Node000013"><a xlink:href="MoleGroup_8h.html" target="_top" xlink:title=" ">
<polygon fill="white" stroke="#666666" points="969,-151 864,-151 864,-121 969,-121 969,-151"/>
<text text-anchor="start" x="872" y="-139" font-family="Helvetica,sans-Serif" font-size="10.00">src/engine/objects</text>
<text text-anchor="middle" x="916.5" y="-128" font-family="Helvetica,sans-Serif" font-size="10.00">/MoleGroup.h</text>
</a>
</g>
</g>
<!-- Node1&#45;&gt;Node13 -->
<g id="edge14_Node000001_Node000013" class="edge">
<title>Node1&#45;&gt;Node13</title>
<g id="a_edge14_Node000001_Node000013"><a xlink:title=" ">
<path fill="none" stroke="#63b8ff" d="M823.59,-182.11C841.89,-172.14 865.14,-160.13 883.88,-151.01"/>
<polygon fill="#63b8ff" stroke="#63b8ff" points="821.86,-179.06 814.79,-186.95 825.24,-185.19 821.86,-179.06"/>
</a>
</g>
</g>
<!-- Node3 -->
<g id="Node000003" class="node">
<title>Node3</title>
<g id="a_Node000003"><a xlink:href="RaceManager_8cpp.html" target="_top" xlink:title=" ">
<polygon fill="white" stroke="#666666" points="329.5,-79.5 173.5,-79.5 173.5,-60.5 329.5,-60.5 329.5,-79.5"/>
<text text-anchor="middle" x="251.5" y="-67.5" font-family="Helvetica,sans-Serif" font-size="10.00">src/engine/RaceManager.cpp</text>
</a>
</g>
</g>
<!-- Node2&#45;&gt;Node3 -->
<g id="edge2_Node000002_Node000003" class="edge">
<title>Node2&#45;&gt;Node3</title>
<g id="a_edge2_Node000002_Node000003"><a xlink:title=" ">
<path fill="none" stroke="#63b8ff" d="M400.19,-123C364.05,-110.36 308.05,-90.78 276.08,-79.6"/>
<polygon fill="#63b8ff" stroke="#63b8ff" points="399.22,-126.37 409.82,-126.37 401.54,-119.76 399.22,-126.37"/>
</a>
</g>
</g>
<!-- Node4 -->
<g id="Node000004" class="node">
<title>Node4</title>
<g id="a_Node000004"><a xlink:href="RegisteredActors_8cpp.html" target="_top" xlink:title=" ">
<polygon fill="white" stroke="#666666" points="521,-79.5 348,-79.5 348,-60.5 521,-60.5 521,-79.5"/>
<text text-anchor="middle" x="434.5" y="-67.5" font-family="Helvetica,sans-Serif" font-size="10.00">src/engine/RegisteredActors.cpp</text>
</a>
</g>
</g>
<!-- Node2&#45;&gt;Node4 -->
<g id="edge3_Node000002_Node000004" class="edge">
<title>Node2&#45;&gt;Node4</title>
<g id="a_edge3_Node000002_Node000004"><a xlink:title=" ">
<path fill="none" stroke="#63b8ff" d="M434.5,-116.08C434.5,-104.13 434.5,-89.22 434.5,-79.91"/>
<polygon fill="#63b8ff" stroke="#63b8ff" points="431,-116.37 434.5,-126.37 438,-116.37 431,-116.37"/>
</a>
</g>
</g>
<!-- Node5 -->
<g id="Node000005" class="node">
<title>Node5</title>
<g id="a_Node000005"><a xlink:href="ContentBrowser_8cpp.html" target="_top" xlink:title=" ">
<polygon fill="white" stroke="#666666" points="478.5,-19 312.5,-19 312.5,0 478.5,0 478.5,-19"/>
<text text-anchor="middle" x="395.5" y="-7" font-family="Helvetica,sans-Serif" font-size="10.00">src/port/ui/ContentBrowser.cpp</text>
</a>
</g>
</g>
<!-- Node2&#45;&gt;Node5 -->
<g id="edge4_Node000002_Node000005" class="edge">
<title>Node2&#45;&gt;Node5</title>
<g id="a_edge4_Node000002_Node000005"><a xlink:title=" ">
<path fill="none" stroke="#63b8ff" d="M478.89,-123C497.95,-115.4 518.38,-103.43 529.5,-85 536.39,-73.59 537.3,-65.81 529.5,-55 516.09,-36.41 494.6,-25.47 472.72,-19.06"/>
<polygon fill="#63b8ff" stroke="#63b8ff" points="477.57,-119.75 469.39,-126.49 479.99,-126.33 477.57,-119.75"/>
</a>
</g>
</g>
<!-- Node6 -->
<g id="Node000006" class="node">
<title>Node6</title>
<g id="a_Node000006"><a xlink:href="ContentBrowser_8h.html" target="_top" xlink:title=" ">
<polygon fill="white" stroke="#666666" points="155,-79.5 0,-79.5 0,-60.5 155,-60.5 155,-79.5"/>
<text text-anchor="middle" x="77.5" y="-67.5" font-family="Helvetica,sans-Serif" font-size="10.00">src/port/ui/ContentBrowser.h</text>
</a>
</g>
</g>
<!-- Node2&#45;&gt;Node6 -->
<g id="edge5_Node000002_Node000006" class="edge">
<title>Node2&#45;&gt;Node6</title>
<g id="a_edge5_Node000002_Node000006"><a xlink:title=" ">
<path fill="none" stroke="#63b8ff" d="M376.74,-124.65C306.72,-112.09 190.04,-91.17 124.99,-79.51"/>
<polygon fill="#63b8ff" stroke="#63b8ff" points="376.26,-128.12 386.72,-126.44 377.5,-121.23 376.26,-128.12"/>
</a>
</g>
</g>
<!-- Node6&#45;&gt;Node5 -->
<g id="edge6_Node000006_Node000005" class="edge">
<title>Node6&#45;&gt;Node5</title>
<g id="a_edge6_Node000006_Node000005"><a xlink:title=" ">
<path fill="none" stroke="#63b8ff" d="M133.64,-58.67C194.97,-47.39 292.07,-29.53 349.2,-19.02"/>
<polygon fill="#63b8ff" stroke="#63b8ff" points="132.94,-55.24 123.74,-60.49 134.21,-62.13 132.94,-55.24"/>
</a>
</g>
</g>
<!-- Node7 -->
<g id="Node000007" class="node">
<title>Node7</title>
<g id="a_Node000007"><a xlink:href="ImguiUI_8cpp.html" target="_top" xlink:title=" ">
<polygon fill="white" stroke="#666666" points="141,-19 14,-19 14,0 141,0 141,-19"/>
<text text-anchor="middle" x="77.5" y="-7" font-family="Helvetica,sans-Serif" font-size="10.00">src/port/ui/ImguiUI.cpp</text>
</a>
</g>
</g>
<!-- Node6&#45;&gt;Node7 -->
<g id="edge7_Node000006_Node000007" class="edge">
<title>Node6&#45;&gt;Node7</title>
<g id="a_edge7_Node000006_Node000007"><a xlink:title=" ">
<path fill="none" stroke="#63b8ff" d="M77.5,-50.16C77.5,-39.74 77.5,-27.3 77.5,-19.17"/>
<polygon fill="#63b8ff" stroke="#63b8ff" points="74,-50.37 77.5,-60.37 81,-50.37 74,-50.37"/>
</a>
</g>
</g>
<!-- Node9&#45;&gt;Node8 -->
<g id="edge10_Node000009_Node000008" class="edge">
<title>Node9&#45;&gt;Node8</title>
<g id="a_edge10_Node000009_Node000008"><a xlink:title=" ">
<path fill="none" stroke="#63b8ff" d="M666.87,-116.38C686.43,-106.36 710.15,-94.22 728.13,-85.01"/>
<polygon fill="#63b8ff" stroke="#63b8ff" points="665.24,-113.28 657.93,-120.95 668.43,-119.51 665.24,-113.28"/>
</a>
</g>
</g>
<!-- Node10 -->
<g id="Node000010" class="node">
<title>Node10</title>
<g id="a_Node000010"><a xlink:href="Game_8cpp.html" target="_top" xlink:title=" ">
<polygon fill="white" stroke="#666666" points="683.5,-79.5 577.5,-79.5 577.5,-60.5 683.5,-60.5 683.5,-79.5"/>
<text text-anchor="middle" x="630.5" y="-67.5" font-family="Helvetica,sans-Serif" font-size="10.00">src/port/Game.cpp</text>
</a>
</g>
</g>
<!-- Node9&#45;&gt;Node10 -->
<g id="edge11_Node000009_Node000010" class="edge">
<title>Node9&#45;&gt;Node10</title>
<g id="a_edge11_Node000009_Node000010"><a xlink:title=" ">
<path fill="none" stroke="#63b8ff" d="M630.5,-110.6C630.5,-99.8 630.5,-87.78 630.5,-79.84"/>
<polygon fill="#63b8ff" stroke="#63b8ff" points="627,-110.8 630.5,-120.8 634,-110.8 627,-110.8"/>
</a>
</g>
</g>
<!-- Node13&#45;&gt;Node1 -->
<g id="edge16_Node000013_Node000001" class="edge">
<title>Node13&#45;&gt;Node1</title>
<g id="a_edge16_Node000013_Node000001"><a xlink:title=" ">
<path fill="none" stroke="#63b8ff" d="M886.47,-155.86C868.19,-165.82 844.94,-177.83 826.19,-186.95"/>
<polygon fill="#63b8ff" stroke="#63b8ff" points="888.2,-158.9 895.27,-151.01 884.82,-152.77 888.2,-158.9"/>
</a>
</g>
</g>
<!-- Node13&#45;&gt;Node8 -->
<g id="edge15_Node000013_Node000008" class="edge">
<title>Node13&#45;&gt;Node8</title>
<g id="a_edge15_Node000013_Node000008"><a xlink:title=" ">
<path fill="none" stroke="#63b8ff" d="M871.69,-117.19C846.13,-107.02 814.53,-94.47 790.75,-85.01"/>
<polygon fill="#63b8ff" stroke="#63b8ff" points="870.58,-120.51 881.17,-120.95 873.17,-114.01 870.58,-120.51"/>
</a>
</g>
</g>
<!-- Node13&#45;&gt;Node12 -->
<g id="edge17_Node000013_Node000012" class="edge">
<title>Node13&#45;&gt;Node12</title>
<g id="a_edge17_Node000013_Node000012"><a xlink:title=" ">
<path fill="none" stroke="#63b8ff" d="M931.08,-112.24C936.86,-103.21 943.34,-93.11 948.43,-85.16"/>
<polygon fill="#63b8ff" stroke="#63b8ff" points="928.05,-110.49 925.6,-120.8 933.94,-114.26 928.05,-110.49"/>
</a>
</g>
</g>
</g>
</svg>
