<?xml version="1.0" encoding="UTF-8" standalone="no"?>
<!DOCTYPE svg PUBLIC "-//W3C//DTD SVG 1.1//EN"
 "http://www.w3.org/Graphics/SVG/1.1/DTD/svg11.dtd">
<!-- Generated by graphviz version 2.43.0 (0)
 -->
<!-- Title: src/engine/objects/MoleGroup.h Pages: 1 -->
<svg width="843pt" height="291pt"
 viewBox="0.00 0.00 843.00 291.00" xmlns="http://www.w3.org/2000/svg" xmlns:xlink="http://www.w3.org/1999/xlink">
<g id="graph0" class="graph" transform="scale(1 1) rotate(0) translate(4 287)">
<title>src/engine/objects/MoleGroup.h</title>
<!-- Node1 -->
<g id="Node000001" class="node">
<title>Node1</title>
<g id="a_Node000001"><a xlink:title=" ">
<polygon fill="#999999" stroke="#666666" points="311,-283 206,-283 206,-253 311,-253 311,-283"/>
<text text-anchor="start" x="214" y="-271" font-family="Helvetica,sans-Serif" font-size="10.00">src/engine/objects</text>
<text text-anchor="middle" x="258.5" y="-260" font-family="Helvetica,sans-Serif" font-size="10.00">/MoleGroup.h</text>
</a>
</g>
</g>
<!-- Node2 -->
<g id="Node000002" class="node">
<title>Node2</title>
<g id="a_Node000002"><a xlink:href="MooMooFarm_8cpp.html" target="_top" xlink:title=" ">
<polygon fill="white" stroke="#666666" points="107,-85 0,-85 0,-55 107,-55 107,-85"/>
<text text-anchor="start" x="8" y="-73" font-family="Helvetica,sans-Serif" font-size="10.00">src/engine/courses</text>
<text text-anchor="middle" x="53.5" y="-62" font-family="Helvetica,sans-Serif" font-size="10.00">/MooMooFarm.cpp</text>
</a>
</g>
</g>
<!-- Node1&#45;&gt;Node2 -->
<g id="edge1_Node000001_Node000002" class="edge">
<title>Node1&#45;&gt;Node2</title>
<g id="a_edge1_Node000001_Node000002"><a xlink:title=" ">
<path fill="none" stroke="#63b8ff" d="M195.93,-250.34C147.58,-233.81 83.95,-203.22 53.5,-151 41.61,-130.6 45.51,-102.02 49.47,-85.11"/>
<polygon fill="#63b8ff" stroke="#63b8ff" points="195.09,-253.75 205.68,-253.56 197.28,-247.1 195.09,-253.75"/>
</a>
</g>
</g>
<!-- Node3 -->
<g id="Node000003" class="node">
<title>Node3</title>
<g id="a_Node000003"><a xlink:href="Mole_8h.html" target="_top" xlink:title=" ">
<polygon fill="white" stroke="#666666" points="311,-217 206,-217 206,-187 311,-187 311,-217"/>
<text text-anchor="start" x="214" y="-205" font-family="Helvetica,sans-Serif" font-size="10.00">src/engine/objects</text>
<text text-anchor="middle" x="258.5" y="-194" font-family="Helvetica,sans-Serif" font-size="10.00">/Mole.h</text>
</a>
</g>
</g>
<!-- Node1&#45;&gt;Node3 -->
<g id="edge2_Node000001_Node000003" class="edge">
<title>Node1&#45;&gt;Node3</title>
<g id="a_edge2_Node000001_Node000003"><a xlink:title=" ">
<path fill="none" stroke="#63b8ff" d="M251.93,-242.83C251.52,-234.17 251.81,-224.7 252.79,-217.16"/>
<polygon fill="#63b8ff" stroke="#63b8ff" points="248.45,-243.13 252.78,-252.8 255.42,-242.54 248.45,-243.13"/>
</a>
</g>
</g>
<!-- Node13 -->
<g id="Node000013" class="node">
<title>Node13</title>
<g id="a_Node000013"><a xlink:href="MoleGroup_8cpp.html" target="_top" xlink:title=" ">
<polygon fill="white" stroke="#666666" points="576,-151 471,-151 471,-121 576,-121 576,-151"/>
<text text-anchor="start" x="479" y="-139" font-family="Helvetica,sans-Serif" font-size="10.00">src/engine/objects</text>
<text text-anchor="middle" x="523.5" y="-128" font-family="Helvetica,sans-Serif" font-size="10.00">/MoleGroup.cpp</text>
</a>
</g>
</g>
<!-- Node1&#45;&gt;Node13 -->
<g id="edge17_Node000001_Node000013" class="edge">
<title>Node1&#45;&gt;Node13</title>
<g id="a_edge17_Node000001_Node000013"><a xlink:title=" ">
<path fill="none" stroke="#63b8ff" d="M296.26,-248.48C349.75,-222.23 446.44,-174.8 494.61,-151.17"/>
<polygon fill="#63b8ff" stroke="#63b8ff" points="294.55,-245.42 287.11,-252.96 297.63,-251.7 294.55,-245.42"/>
</a>
</g>
</g>
<!-- Node3&#45;&gt;Node1 -->
<g id="edge16_Node000003_Node000001" class="edge">
<title>Node3&#45;&gt;Node1</title>
<g id="a_edge16_Node000003_Node000001"><a xlink:title=" ">
<path fill="none" stroke="#63b8ff" d="M265.07,-227.13C265.48,-235.78 265.2,-245.26 264.22,-252.8"/>
<polygon fill="#63b8ff" stroke="#63b8ff" points="268.55,-226.83 264.21,-217.16 261.58,-227.43 268.55,-226.83"/>
</a>
</g>
</g>
<!-- Node3&#45;&gt;Node2 -->
<g id="edge10_Node000003_Node000002" class="edge">
<title>Node3&#45;&gt;Node2</title>
<g id="a_edge10_Node000003_Node000002"><a xlink:title=" ">
<path fill="none" stroke="#63b8ff" d="M195.89,-199.93C155.36,-195.86 104.39,-183.84 72.5,-151 55.3,-133.28 52.67,-102.98 52.77,-85.19"/>
<polygon fill="#63b8ff" stroke="#63b8ff" points="195.68,-203.42 205.95,-200.8 196.29,-196.45 195.68,-203.42"/>
</a>
</g>
</g>
<!-- Node4 -->
<g id="Node000004" class="node">
<title>Node4</title>
<g id="a_Node000004"><a xlink:href="AllActors_8h.html" target="_top" xlink:title=" ">
<polygon fill="white" stroke="#666666" points="452.5,-145.5 330.5,-145.5 330.5,-126.5 452.5,-126.5 452.5,-145.5"/>
<text text-anchor="middle" x="391.5" y="-133.5" font-family="Helvetica,sans-Serif" font-size="10.00">src/engine/AllActors.h</text>
</a>
</g>
</g>
<!-- Node3&#45;&gt;Node4 -->
<g id="edge3_Node000003_Node000004" class="edge">
<title>Node3&#45;&gt;Node4</title>
<g id="a_edge3_Node000003_Node000004"><a xlink:title=" ">
<path fill="none" stroke="#63b8ff" d="M297.03,-182.46C322.36,-170.27 354.3,-154.9 373.8,-145.52"/>
<polygon fill="#63b8ff" stroke="#63b8ff" points="295.18,-179.46 287.69,-186.95 298.22,-185.77 295.18,-179.46"/>
</a>
</g>
</g>
<!-- Node10 -->
<g id="Node000010" class="node">
<title>Node10</title>
<g id="a_Node000010"><a xlink:href="MooMooFarm_8h.html" target="_top" xlink:title=" ">
<polygon fill="white" stroke="#666666" points="312,-151 205,-151 205,-121 312,-121 312,-151"/>
<text text-anchor="start" x="213" y="-139" font-family="Helvetica,sans-Serif" font-size="10.00">src/engine/courses</text>
<text text-anchor="middle" x="258.5" y="-128" font-family="Helvetica,sans-Serif" font-size="10.00">/MooMooFarm.h</text>
</a>
</g>
</g>
<!-- Node3&#45;&gt;Node10 -->
<g id="edge11_Node000003_Node000010" class="edge">
<title>Node3&#45;&gt;Node10</title>
<g id="a_edge11_Node000003_Node000010"><a xlink:title=" ">
<path fill="none" stroke="#63b8ff" d="M258.5,-176.54C258.5,-167.96 258.5,-158.61 258.5,-151.16"/>
<polygon fill="#63b8ff" stroke="#63b8ff" points="255,-176.8 258.5,-186.8 262,-176.8 255,-176.8"/>
</a>
</g>
</g>
<!-- Node12 -->
<g id="Node000012" class="node">
<title>Node12</title>
<g id="a_Node000012"><a xlink:href="Mole_8cpp.html" target="_top" xlink:title=" ">
<polygon fill="white" stroke="#666666" points="187,-151 82,-151 82,-121 187,-121 187,-151"/>
<text text-anchor="start" x="90" y="-139" font-family="Helvetica,sans-Serif" font-size="10.00">src/engine/objects</text>
<text text-anchor="middle" x="134.5" y="-128" font-family="Helvetica,sans-Serif" font-size="10.00">/Mole.cpp</text>
</a>
</g>
</g>
<!-- Node3&#45;&gt;Node12 -->
<g id="edge14_Node000003_Node000012" class="edge">
<title>Node3&#45;&gt;Node12</title>
<g id="a_edge14_Node000003_Node000012"><a xlink:title=" ">
<path fill="none" stroke="#63b8ff" d="M222.16,-182.24C202.8,-172.25 179.4,-160.18 161.65,-151.01"/>
<polygon fill="#63b8ff" stroke="#63b8ff" points="220.8,-185.48 231.29,-186.95 224.01,-179.26 220.8,-185.48"/>
</a>
</g>
</g>
<!-- Node3&#45;&gt;Node13 -->
<g id="edge15_Node000003_Node000013" class="edge">
<title>Node3&#45;&gt;Node13</title>
<g id="a_edge15_Node000003_Node000013"><a xlink:title=" ">
<path fill="none" stroke="#63b8ff" d="M320.95,-185.92C366.59,-174.9 427.78,-160.12 470.93,-149.7"/>
<polygon fill="#63b8ff" stroke="#63b8ff" points="320.07,-182.53 311.17,-188.28 321.71,-189.33 320.07,-182.53"/>
</a>
</g>
</g>
<!-- Node5 -->
<g id="Node000005" class="node">
<title>Node5</title>
<g id="a_Node000005"><a xlink:href="RaceManager_8cpp.html" target="_top" xlink:title=" ">
<polygon fill="white" stroke="#666666" points="643.5,-79.5 487.5,-79.5 487.5,-60.5 643.5,-60.5 643.5,-79.5"/>
<text text-anchor="middle" x="565.5" y="-67.5" font-family="Helvetica,sans-Serif" font-size="10.00">src/engine/RaceManager.cpp</text>
</a>
</g>
</g>
<!-- Node4&#45;&gt;Node5 -->
<g id="edge4_Node000004_Node000005" class="edge">
<title>Node4&#45;&gt;Node5</title>
<g id="a_edge4_Node000004_Node000005"><a xlink:title=" ">
<path fill="none" stroke="#63b8ff" d="M424.56,-122.84C458.94,-110.2 511.87,-90.73 542.13,-79.6"/>
<polygon fill="#63b8ff" stroke="#63b8ff" points="423.14,-119.63 414.97,-126.37 425.56,-126.2 423.14,-119.63"/>
</a>
</g>
</g>
<!-- Node6 -->
<g id="Node000006" class="node">
<title>Node6</title>
<g id="a_Node000006"><a xlink:href="RegisteredActors_8cpp.html" target="_top" xlink:title=" ">
<polygon fill="white" stroke="#666666" points="835,-79.5 662,-79.5 662,-60.5 835,-60.5 835,-79.5"/>
<text text-anchor="middle" x="748.5" y="-67.5" font-family="Helvetica,sans-Serif" font-size="10.00">src/engine/RegisteredActors.cpp</text>
</a>
</g>
</g>
<!-- Node4&#45;&gt;Node6 -->
<g id="edge5_Node000004_Node000006" class="edge">
<title>Node4&#45;&gt;Node6</title>
<g id="a_edge5_Node000004_Node000006"><a xlink:title=" ">
<path fill="none" stroke="#63b8ff" d="M443.74,-124.57C450.05,-123.34 456.42,-122.13 462.5,-121 544.76,-105.7 640.6,-89.22 697.81,-79.52"/>
<polygon fill="#63b8ff" stroke="#63b8ff" points="443.04,-121.14 433.9,-126.48 444.38,-128.01 443.04,-121.14"/>
</a>
</g>
</g>
<!-- Node7 -->
<g id="Node000007" class="node">
<title>Node7</title>
<g id="a_Node000007"><a xlink:href="ContentBrowser_8cpp.html" target="_top" xlink:title=" ">
<polygon fill="white" stroke="#666666" points="368.5,-19 202.5,-19 202.5,0 368.5,0 368.5,-19"/>
<text text-anchor="middle" x="285.5" y="-7" font-family="Helvetica,sans-Serif" font-size="10.00">src/port/ui/ContentBrowser.cpp</text>
</a>
</g>
</g>
<!-- Node4&#45;&gt;Node7 -->
<g id="edge6_Node000004_Node000007" class="edge">
<title>Node4&#45;&gt;Node7</title>
<g id="a_edge6_Node000004_Node000007"><a xlink:title=" ">
<path fill="none" stroke="#63b8ff" d="M356.03,-122.39C338.11,-114.31 317.48,-102.09 304.5,-85 289.32,-65.01 286.19,-34.2 285.6,-19.25"/>
<polygon fill="#63b8ff" stroke="#63b8ff" points="355.06,-125.78 365.63,-126.46 357.79,-119.34 355.06,-125.78"/>
</a>
</g>
</g>
<!-- Node8 -->
<g id="Node000008" class="node">
<title>Node8</title>
<g id="a_Node000008"><a xlink:href="ContentBrowser_8h.html" target="_top" xlink:title=" ">
<polygon fill="white" stroke="#666666" points="469,-79.5 314,-79.5 314,-60.5 469,-60.5 469,-79.5"/>
<text text-anchor="middle" x="391.5" y="-67.5" font-family="Helvetica,sans-Serif" font-size="10.00">src/port/ui/ContentBrowser.h</text>
</a>
</g>
</g>
<!-- Node4&#45;&gt;Node8 -->
<g id="edge7_Node000004_Node000008" class="edge">
<title>Node4&#45;&gt;Node8</title>
<g id="a_edge7_Node000004_Node000008"><a xlink:title=" ">
<path fill="none" stroke="#63b8ff" d="M391.5,-116.08C391.5,-104.13 391.5,-89.22 391.5,-79.91"/>
<polygon fill="#63b8ff" stroke="#63b8ff" points="388,-116.37 391.5,-126.37 395,-116.37 388,-116.37"/>
</a>
</g>
</g>
<!-- Node8&#45;&gt;Node7 -->
<g id="edge8_Node000008_Node000007" class="edge">
<title>Node8&#45;&gt;Node7</title>
<g id="a_edge8_Node000008_Node000007"><a xlink:title=" ">
<path fill="none" stroke="#63b8ff" d="M366.9,-55.42C346.64,-44.24 318.53,-28.73 301.2,-19.17"/>
<polygon fill="#63b8ff" stroke="#63b8ff" points="365.41,-58.6 375.86,-60.37 368.8,-52.47 365.41,-58.6"/>
</a>
</g>
</g>
<!-- Node9 -->
<g id="Node000009" class="node">
<title>Node9</title>
<g id="a_Node000009"><a xlink:href="ImguiUI_8cpp.html" target="_top" xlink:title=" ">
<polygon fill="white" stroke="#666666" points="514,-19 387,-19 387,0 514,0 514,-19"/>
<text text-anchor="middle" x="450.5" y="-7" font-family="Helvetica,sans-Serif" font-size="10.00">src/port/ui/ImguiUI.cpp</text>
</a>
</g>
</g>
<!-- Node8&#45;&gt;Node9 -->
<g id="edge9_Node000008_Node000009" class="edge">
<title>Node8&#45;&gt;Node9</title>
<g id="a_edge9_Node000008_Node000009"><a xlink:title=" ">
<path fill="none" stroke="#63b8ff" d="M407.55,-53.09C418.56,-42.17 432.77,-28.08 441.76,-19.17"/>
<polygon fill="#63b8ff" stroke="#63b8ff" points="404.84,-50.84 400.21,-60.37 409.77,-55.81 404.84,-50.84"/>
</a>
</g>
</g>
<!-- Node10&#45;&gt;Node2 -->
<g id="edge12_Node000010_Node000002" class="edge">
<title>Node10&#45;&gt;Node2</title>
<g id="a_edge12_Node000010_Node000002"><a xlink:title=" ">
<path fill="none" stroke="#63b8ff" d="M203.59,-117.86C170.67,-107.58 129.34,-94.68 98.38,-85.01"/>
<polygon fill="#63b8ff" stroke="#63b8ff" points="202.92,-121.32 213.51,-120.95 205.01,-114.63 202.92,-121.32"/>
</a>
</g>
</g>
<!-- Node11 -->
<g id="Node000011" class="node">
<title>Node11</title>
<g id="a_Node000011"><a xlink:href="Game_8cpp.html" target="_top" xlink:title=" ">
<polygon fill="white" stroke="#666666" points="257.5,-79.5 151.5,-79.5 151.5,-60.5 257.5,-60.5 257.5,-79.5"/>
<text text-anchor="middle" x="204.5" y="-67.5" font-family="Helvetica,sans-Serif" font-size="10.00">src/port/Game.cpp</text>
</a>
</g>
</g>
<!-- Node10&#45;&gt;Node11 -->
<g id="edge13_Node000010_Node000011" class="edge">
<title>Node10&#45;&gt;Node11</title>
<g id="a_edge13_Node000010_Node000011"><a xlink:title=" ">
<path fill="none" stroke="#63b8ff" d="M239.89,-112.94C230.3,-101.58 219.15,-88.36 211.96,-79.84"/>
<polygon fill="#63b8ff" stroke="#63b8ff" points="237.39,-115.41 246.52,-120.8 242.74,-110.9 237.39,-115.41"/>
</a>
</g>
</g>
</g>
</svg>
