<?xml version="1.0" encoding="UTF-8" standalone="no"?>
<!DOCTYPE svg PUBLIC "-//W3C//DTD SVG 1.1//EN"
 "http://www.w3.org/Graphics/SVG/1.1/DTD/svg11.dtd">
<!-- Generated by graphviz version 2.43.0 (0)
 -->
<!-- Title: src/engine/objects/MoleGroup.h Pages: 1 -->
<svg width="682pt" height="291pt"
 viewBox="0.00 0.00 681.50 291.00" xmlns="http://www.w3.org/2000/svg" xmlns:xlink="http://www.w3.org/1999/xlink">
<g id="graph0" class="graph" transform="scale(1 1) rotate(0) translate(4 287)">
<title>src/engine/objects/MoleGroup.h</title>
<!-- Node1 -->
<g id="Node000001" class="node">
<title>Node1</title>
<g id="a_Node000001"><a xlink:title=" ">
<polygon fill="#999999" stroke="#666666" points="311,-283 206,-283 206,-253 311,-253 311,-283"/>
<text text-anchor="start" x="214" y="-271" font-family="Helvetica,sans-Serif" font-size="10.00">src/engine/objects</text>
<text text-anchor="middle" x="258.5" y="-260" font-family="Helvetica,sans-Serif" font-size="10.00">/MoleGroup.h</text>
</a>
</g>
</g>
<!-- Node2 -->
<g id="Node000002" class="node">
<title>Node2</title>
<g id="a_Node000002"><a xlink:href="MooMooFarm_8cpp.html" target="_top" xlink:title=" ">
<polygon fill="white" stroke="#666666" points="107,-85 0,-85 0,-55 107,-55 107,-85"/>
<text text-anchor="start" x="8" y="-73" font-family="Helvetica,sans-Serif" font-size="10.00">src/engine/courses</text>
<text text-anchor="middle" x="53.5" y="-62" font-family="Helvetica,sans-Serif" font-size="10.00">/MooMooFarm.cpp</text>
</a>
</g>
</g>
<!-- Node1&#45;&gt;Node2 -->
<g id="edge1_Node000001_Node000002" class="edge">
<title>Node1&#45;&gt;Node2</title>
<g id="a_edge1_Node000001_Node000002"><a xlink:title=" ">
<path fill="none" stroke="#63b8ff" d="M195.93,-250.34C147.58,-233.81 83.95,-203.22 53.5,-151 41.61,-130.6 45.51,-102.02 49.47,-85.11"/>
<polygon fill="#63b8ff" stroke="#63b8ff" points="195.09,-253.75 205.68,-253.56 197.28,-247.1 195.09,-253.75"/>
</a>
</g>
</g>
<!-- Node3 -->
<g id="Node000003" class="node">
<title>Node3</title>
<g id="a_Node000003"><a xlink:href="Mole_8h.html" target="_top" xlink:title=" ">
<polygon fill="white" stroke="#666666" points="311,-217 206,-217 206,-187 311,-187 311,-217"/>
<text text-anchor="start" x="214" y="-205" font-family="Helvetica,sans-Serif" font-size="10.00">src/engine/objects</text>
<text text-anchor="middle" x="258.5" y="-194" font-family="Helvetica,sans-Serif" font-size="10.00">/Mole.h</text>
</a>
</g>
</g>
<!-- Node1&#45;&gt;Node3 -->
<g id="edge2_Node000001_Node000003" class="edge">
<title>Node1&#45;&gt;Node3</title>
<g id="a_edge2_Node000001_Node000003"><a xlink:title=" ">
<path fill="none" stroke="#63b8ff" d="M251.93,-242.83C251.52,-234.17 251.81,-224.7 252.79,-217.16"/>
<polygon fill="#63b8ff" stroke="#63b8ff" points="248.45,-243.13 252.78,-252.8 255.42,-242.54 248.45,-243.13"/>
</a>
</g>
</g>
<!-- Node12 -->
<g id="Node000012" class="node">
<title>Node12</title>
<g id="a_Node000012"><a xlink:href="MoleGroup_8cpp.html" target="_top" xlink:title=" ">
<polygon fill="white" stroke="#666666" points="576,-151 471,-151 471,-121 576,-121 576,-151"/>
<text text-anchor="start" x="479" y="-139" font-family="Helvetica,sans-Serif" font-size="10.00">src/engine/objects</text>
<text text-anchor="middle" x="523.5" y="-128" font-family="Helvetica,sans-Serif" font-size="10.00">/MoleGroup.cpp</text>
</a>
</g>
</g>
<!-- Node1&#45;&gt;Node12 -->
<g id="edge16_Node000001_Node000012" class="edge">
<title>Node1&#45;&gt;Node12</title>
<g id="a_edge16_Node000001_Node000012"><a xlink:title=" ">
<path fill="none" stroke="#63b8ff" d="M296.26,-248.48C349.75,-222.23 446.44,-174.8 494.61,-151.17"/>
<polygon fill="#63b8ff" stroke="#63b8ff" points="294.55,-245.42 287.11,-252.96 297.63,-251.7 294.55,-245.42"/>
</a>
</g>
</g>
<!-- Node3&#45;&gt;Node1 -->
<g id="edge15_Node000003_Node000001" class="edge">
<title>Node3&#45;&gt;Node1</title>
<g id="a_edge15_Node000003_Node000001"><a xlink:title=" ">
<path fill="none" stroke="#63b8ff" d="M265.07,-227.13C265.48,-235.78 265.2,-245.26 264.22,-252.8"/>
<polygon fill="#63b8ff" stroke="#63b8ff" points="268.55,-226.83 264.21,-217.16 261.58,-227.43 268.55,-226.83"/>
</a>
</g>
</g>
<!-- Node3&#45;&gt;Node2 -->
<g id="edge9_Node000003_Node000002" class="edge">
<title>Node3&#45;&gt;Node2</title>
<g id="a_edge9_Node000003_Node000002"><a xlink:title=" ">
<path fill="none" stroke="#63b8ff" d="M195.89,-199.93C155.36,-195.86 104.39,-183.84 72.5,-151 55.3,-133.28 52.67,-102.98 52.77,-85.19"/>
<polygon fill="#63b8ff" stroke="#63b8ff" points="195.68,-203.42 205.95,-200.8 196.29,-196.45 195.68,-203.42"/>
</a>
</g>
</g>
<!-- Node4 -->
<g id="Node000004" class="node">
<title>Node4</title>
<g id="a_Node000004"><a xlink:href="AllActors_8h.html" target="_top" xlink:title=" ">
<polygon fill="white" stroke="#666666" points="452.5,-145.5 330.5,-145.5 330.5,-126.5 452.5,-126.5 452.5,-145.5"/>
<text text-anchor="middle" x="391.5" y="-133.5" font-family="Helvetica,sans-Serif" font-size="10.00">src/engine/AllActors.h</text>
</a>
</g>
</g>
<!-- Node3&#45;&gt;Node4 -->
<g id="edge3_Node000003_Node000004" class="edge">
<title>Node3&#45;&gt;Node4</title>
<g id="a_edge3_Node000003_Node000004"><a xlink:title=" ">
<path fill="none" stroke="#63b8ff" d="M297.03,-182.46C322.36,-170.27 354.3,-154.9 373.8,-145.52"/>
<polygon fill="#63b8ff" stroke="#63b8ff" points="295.18,-179.46 287.69,-186.95 298.22,-185.77 295.18,-179.46"/>
</a>
</g>
</g>
<!-- Node9 -->
<g id="Node000009" class="node">
<title>Node9</title>
<g id="a_Node000009"><a xlink:href="MooMooFarm_8h.html" target="_top" xlink:title=" ">
<polygon fill="white" stroke="#666666" points="312,-151 205,-151 205,-121 312,-121 312,-151"/>
<text text-anchor="start" x="213" y="-139" font-family="Helvetica,sans-Serif" font-size="10.00">src/engine/courses</text>
<text text-anchor="middle" x="258.5" y="-128" font-family="Helvetica,sans-Serif" font-size="10.00">/MooMooFarm.h</text>
</a>
</g>
</g>
<!-- Node3&#45;&gt;Node9 -->
<g id="edge10_Node000003_Node000009" class="edge">
<title>Node3&#45;&gt;Node9</title>
<g id="a_edge10_Node000003_Node000009"><a xlink:title=" ">
<path fill="none" stroke="#63b8ff" d="M258.5,-176.54C258.5,-167.96 258.5,-158.61 258.5,-151.16"/>
<polygon fill="#63b8ff" stroke="#63b8ff" points="255,-176.8 258.5,-186.8 262,-176.8 255,-176.8"/>
</a>
</g>
</g>
<!-- Node11 -->
<g id="Node000011" class="node">
<title>Node11</title>
<g id="a_Node000011"><a xlink:href="Mole_8cpp.html" target="_top" xlink:title=" ">
<polygon fill="white" stroke="#666666" points="187,-151 82,-151 82,-121 187,-121 187,-151"/>
<text text-anchor="start" x="90" y="-139" font-family="Helvetica,sans-Serif" font-size="10.00">src/engine/objects</text>
<text text-anchor="middle" x="134.5" y="-128" font-family="Helvetica,sans-Serif" font-size="10.00">/Mole.cpp</text>
</a>
</g>
</g>
<!-- Node3&#45;&gt;Node11 -->
<g id="edge13_Node000003_Node000011" class="edge">
<title>Node3&#45;&gt;Node11</title>
<g id="a_edge13_Node000003_Node000011"><a xlink:title=" ">
<path fill="none" stroke="#63b8ff" d="M222.16,-182.24C202.8,-172.25 179.4,-160.18 161.65,-151.01"/>
<polygon fill="#63b8ff" stroke="#63b8ff" points="220.8,-185.48 231.29,-186.95 224.01,-179.26 220.8,-185.48"/>
</a>
</g>
</g>
<!-- Node3&#45;&gt;Node12 -->
<g id="edge14_Node000003_Node000012" class="edge">
<title>Node3&#45;&gt;Node12</title>
<g id="a_edge14_Node000003_Node000012"><a xlink:title=" ">
<path fill="none" stroke="#63b8ff" d="M320.95,-185.92C366.59,-174.9 427.78,-160.12 470.93,-149.7"/>
<polygon fill="#63b8ff" stroke="#63b8ff" points="320.07,-182.53 311.17,-188.28 321.71,-189.33 320.07,-182.53"/>
</a>
</g>
</g>
<!-- Node5 -->
<g id="Node000005" class="node">
<title>Node5</title>
<g id="a_Node000005"><a xlink:href="RegisteredActors_8cpp.html" target="_top" xlink:title=" ">
<polygon fill="white" stroke="#666666" points="628,-79.5 455,-79.5 455,-60.5 628,-60.5 628,-79.5"/>
<text text-anchor="middle" x="541.5" y="-67.5" font-family="Helvetica,sans-Serif" font-size="10.00">src/engine/RegisteredActors.cpp</text>
</a>
</g>
</g>
<!-- Node4&#45;&gt;Node5 -->
<g id="edge4_Node000004_Node000005" class="edge">
<title>Node4&#45;&gt;Node5</title>
<g id="a_edge4_Node000004_Node000005"><a xlink:title=" ">
<path fill="none" stroke="#63b8ff" d="M421.13,-122.36C450.69,-109.75 495.31,-90.71 521.11,-79.7"/>
<polygon fill="#63b8ff" stroke="#63b8ff" points="419.55,-119.23 411.73,-126.37 422.3,-125.66 419.55,-119.23"/>
</a>
</g>
</g>
<!-- Node6 -->
<g id="Node000006" class="node">
<title>Node6</title>
<g id="a_Node000006"><a xlink:href="ContentBrowser_8cpp.html" target="_top" xlink:title=" ">
<polygon fill="white" stroke="#666666" points="673.5,-19 507.5,-19 507.5,0 673.5,0 673.5,-19"/>
<text text-anchor="middle" x="590.5" y="-7" font-family="Helvetica,sans-Serif" font-size="10.00">src/port/ui/ContentBrowser.cpp</text>
</a>
</g>
</g>
<!-- Node4&#45;&gt;Node6 -->
<g id="edge5_Node000004_Node000006" class="edge">
<title>Node4&#45;&gt;Node6</title>
<g id="a_edge5_Node000004_Node000006"><a xlink:title=" ">
<path fill="none" stroke="#63b8ff" d="M444.29,-124.48C516.34,-110.1 636.73,-85.95 637.5,-85 655.5,-62.97 622.53,-33.63 603.16,-19.22"/>
<polygon fill="#63b8ff" stroke="#63b8ff" points="443.58,-121.06 434.46,-126.44 444.95,-127.92 443.58,-121.06"/>
</a>
</g>
</g>
<!-- Node7 -->
<g id="Node000007" class="node">
<title>Node7</title>
<g id="a_Node000007"><a xlink:href="ContentBrowser_8h.html" target="_top" xlink:title=" ">
<polygon fill="white" stroke="#666666" points="437,-79.5 282,-79.5 282,-60.5 437,-60.5 437,-79.5"/>
<text text-anchor="middle" x="359.5" y="-67.5" font-family="Helvetica,sans-Serif" font-size="10.00">src/port/ui/ContentBrowser.h</text>
</a>
</g>
</g>
<!-- Node4&#45;&gt;Node7 -->
<g id="edge6_Node000004_Node000007" class="edge">
<title>Node4&#45;&gt;Node7</title>
<g id="a_edge6_Node000004_Node000007"><a xlink:title=" ">
<path fill="none" stroke="#63b8ff" d="M382.59,-117.18C376.53,-105.05 368.75,-89.51 363.95,-79.91"/>
<polygon fill="#63b8ff" stroke="#63b8ff" points="379.58,-118.99 387.18,-126.37 385.84,-115.86 379.58,-118.99"/>
</a>
</g>
</g>
<!-- Node7&#45;&gt;Node6 -->
<g id="edge7_Node000007_Node000006" class="edge">
<title>Node7&#45;&gt;Node6</title>
<g id="a_edge7_Node000007_Node000006"><a xlink:title=" ">
<path fill="none" stroke="#63b8ff" d="M402.79,-58.04C447.44,-46.73 516.13,-29.33 556.87,-19.02"/>
<polygon fill="#63b8ff" stroke="#63b8ff" points="401.92,-54.65 393.09,-60.49 403.64,-61.43 401.92,-54.65"/>
</a>
</g>
</g>
<!-- Node8 -->
<g id="Node000008" class="node">
<title>Node8</title>
<g id="a_Node000008"><a xlink:href="ImguiUI_8cpp.html" target="_top" xlink:title=" ">
<polygon fill="white" stroke="#666666" points="423,-19 296,-19 296,0 423,0 423,-19"/>
<text text-anchor="middle" x="359.5" y="-7" font-family="Helvetica,sans-Serif" font-size="10.00">src/port/ui/ImguiUI.cpp</text>
</a>
</g>
</g>
<!-- Node7&#45;&gt;Node8 -->
<g id="edge8_Node000007_Node000008" class="edge">
<title>Node7&#45;&gt;Node8</title>
<g id="a_edge8_Node000007_Node000008"><a xlink:title=" ">
<path fill="none" stroke="#63b8ff" d="M359.5,-50.16C359.5,-39.74 359.5,-27.3 359.5,-19.17"/>
<polygon fill="#63b8ff" stroke="#63b8ff" points="356,-50.37 359.5,-60.37 363,-50.37 356,-50.37"/>
</a>
</g>
</g>
<!-- Node9&#45;&gt;Node2 -->
<g id="edge11_Node000009_Node000002" class="edge">
<title>Node9&#45;&gt;Node2</title>
<g id="a_edge11_Node000009_Node000002"><a xlink:title=" ">
<path fill="none" stroke="#63b8ff" d="M203.59,-117.86C170.67,-107.58 129.34,-94.68 98.38,-85.01"/>
<polygon fill="#63b8ff" stroke="#63b8ff" points="202.92,-121.32 213.51,-120.95 205.01,-114.63 202.92,-121.32"/>
</a>
</g>
</g>
<!-- Node10 -->
<g id="Node000010" class="node">
<title>Node10</title>
<g id="a_Node000010"><a xlink:href="Game_8cpp.html" target="_top" xlink:title=" ">
<polygon fill="white" stroke="#666666" points="263.5,-79.5 157.5,-79.5 157.5,-60.5 263.5,-60.5 263.5,-79.5"/>
<text text-anchor="middle" x="210.5" y="-67.5" font-family="Helvetica,sans-Serif" font-size="10.00">src/port/Game.cpp</text>
</a>
</g>
</g>
<!-- Node9&#45;&gt;Node10 -->
<g id="edge12_Node000009_Node000010" class="edge">
<title>Node9&#45;&gt;Node10</title>
<g id="a_edge12_Node000009_Node000010"><a xlink:title=" ">
<path fill="none" stroke="#63b8ff" d="M241.71,-112.61C233.24,-101.32 223.46,-88.28 217.13,-79.84"/>
<polygon fill="#63b8ff" stroke="#63b8ff" points="239.05,-114.9 247.85,-120.8 244.65,-110.7 239.05,-114.9"/>
</a>
</g>
</g>
</g>
</svg>
