<?xml version="1.0" encoding="UTF-8" standalone="no"?>
<!DOCTYPE svg PUBLIC "-//W3C//DTD SVG 1.1//EN"
 "http://www.w3.org/Graphics/SVG/1.1/DTD/svg11.dtd">
<!-- Generated by graphviz version 2.43.0 (0)
 -->
<!-- Title: src/engine/objects/Mole.h Pages: 1 -->
<svg width="844pt" height="225pt"
 viewBox="0.00 0.00 844.00 225.00" xmlns="http://www.w3.org/2000/svg" xmlns:xlink="http://www.w3.org/1999/xlink">
<g id="graph0" class="graph" transform="scale(1 1) rotate(0) translate(4 221)">
<title>src/engine/objects/Mole.h</title>
<!-- Node1 -->
<g id="Node000001" class="node">
<title>Node1</title>
<g id="a_Node000001"><a xlink:title=" ">
<polygon fill="#999999" stroke="#666666" points="672,-217 567,-217 567,-187 672,-187 672,-217"/>
<text text-anchor="start" x="575" y="-205" font-family="Helvetica,sans-Serif" font-size="10.00">src/engine/objects</text>
<text text-anchor="middle" x="619.5" y="-194" font-family="Helvetica,sans-Serif" font-size="10.00">/Mole.h</text>
</a>
</g>
</g>
<!-- Node2 -->
<g id="Node000002" class="node">
<title>Node2</title>
<g id="a_Node000002"><a xlink:href="AllActors_8h.html" target="_top" xlink:title=" ">
<polygon fill="white" stroke="#666666" points="315.5,-145.5 193.5,-145.5 193.5,-126.5 315.5,-126.5 315.5,-145.5"/>
<text text-anchor="middle" x="254.5" y="-133.5" font-family="Helvetica,sans-Serif" font-size="10.00">src/engine/AllActors.h</text>
</a>
</g>
</g>
<!-- Node1&#45;&gt;Node2 -->
<g id="edge1_Node000001_Node000002" class="edge">
<title>Node1&#45;&gt;Node2</title>
<g id="a_edge1_Node000001_Node000002"><a xlink:title=" ">
<path fill="none" stroke="#63b8ff" d="M556.53,-189.96C484.59,-177.34 368.39,-156.97 303.09,-145.52"/>
<polygon fill="#63b8ff" stroke="#63b8ff" points="556.36,-193.48 566.82,-191.76 557.57,-186.59 556.36,-193.48"/>
</a>
</g>
</g>
<!-- Node7 -->
<g id="Node000007" class="node">
<title>Node7</title>
<g id="a_Node000007"><a xlink:href="MooMooFarm_8cpp.html" target="_top" xlink:title=" ">
<polygon fill="white" stroke="#666666" points="635,-85 528,-85 528,-55 635,-55 635,-85"/>
<text text-anchor="start" x="536" y="-73" font-family="Helvetica,sans-Serif" font-size="10.00">src/engine/courses</text>
<text text-anchor="middle" x="581.5" y="-62" font-family="Helvetica,sans-Serif" font-size="10.00">/MooMooFarm.cpp</text>
</a>
</g>
</g>
<!-- Node1&#45;&gt;Node7 -->
<g id="edge7_Node000001_Node000007" class="edge">
<title>Node1&#45;&gt;Node7</title>
<g id="a_edge7_Node000001_Node000007"><a xlink:title=" ">
<path fill="none" stroke="#63b8ff" d="M584.17,-181.11C573.6,-173.22 563.29,-163.11 557.5,-151 546.99,-129.02 560.61,-101.44 571.22,-85.07"/>
<polygon fill="#63b8ff" stroke="#63b8ff" points="582.41,-184.15 592.63,-186.96 586.39,-178.39 582.41,-184.15"/>
</a>
</g>
</g>
<!-- Node8 -->
<g id="Node000008" class="node">
<title>Node8</title>
<g id="a_Node000008"><a xlink:href="MooMooFarm_8h.html" target="_top" xlink:title=" ">
<polygon fill="white" stroke="#666666" points="510,-151 403,-151 403,-121 510,-121 510,-151"/>
<text text-anchor="start" x="411" y="-139" font-family="Helvetica,sans-Serif" font-size="10.00">src/engine/courses</text>
<text text-anchor="middle" x="456.5" y="-128" font-family="Helvetica,sans-Serif" font-size="10.00">/MooMooFarm.h</text>
</a>
</g>
</g>
<!-- Node1&#45;&gt;Node8 -->
<g id="edge8_Node000001_Node000008" class="edge">
<title>Node1&#45;&gt;Node8</title>
<g id="a_edge8_Node000001_Node000008"><a xlink:title=" ">
<path fill="none" stroke="#63b8ff" d="M574.14,-183.19C548.25,-173.02 516.27,-160.47 492.19,-151.01"/>
<polygon fill="#63b8ff" stroke="#63b8ff" points="573.14,-186.56 583.73,-186.95 575.7,-180.04 573.14,-186.56"/>
</a>
</g>
</g>
<!-- Node10 -->
<g id="Node000010" class="node">
<title>Node10</title>
<g id="a_Node000010"><a xlink:href="Mole_8cpp.html" target="_top" xlink:title=" ">
<polygon fill="white" stroke="#666666" points="672,-151 567,-151 567,-121 672,-121 672,-151"/>
<text text-anchor="start" x="575" y="-139" font-family="Helvetica,sans-Serif" font-size="10.00">src/engine/objects</text>
<text text-anchor="middle" x="619.5" y="-128" font-family="Helvetica,sans-Serif" font-size="10.00">/Mole.cpp</text>
</a>
</g>
</g>
<!-- Node1&#45;&gt;Node10 -->
<g id="edge11_Node000001_Node000010" class="edge">
<title>Node1&#45;&gt;Node10</title>
<g id="a_edge11_Node000001_Node000010"><a xlink:title=" ">
<path fill="none" stroke="#63b8ff" d="M619.5,-176.54C619.5,-167.96 619.5,-158.61 619.5,-151.16"/>
<polygon fill="#63b8ff" stroke="#63b8ff" points="616,-176.8 619.5,-186.8 623,-176.8 616,-176.8"/>
</a>
</g>
</g>
<!-- Node11 -->
<g id="Node000011" class="node">
<title>Node11</title>
<g id="a_Node000011"><a xlink:href="MoleGroup_8cpp.html" target="_top" xlink:title=" ">
<polygon fill="white" stroke="#666666" points="836,-85 731,-85 731,-55 836,-55 836,-85"/>
<text text-anchor="start" x="739" y="-73" font-family="Helvetica,sans-Serif" font-size="10.00">src/engine/objects</text>
<text text-anchor="middle" x="783.5" y="-62" font-family="Helvetica,sans-Serif" font-size="10.00">/MoleGroup.cpp</text>
</a>
</g>
</g>
<!-- Node1&#45;&gt;Node11 -->
<g id="edge12_Node000001_Node000011" class="edge">
<title>Node1&#45;&gt;Node11</title>
<g id="a_edge12_Node000001_Node000011"><a xlink:title=" ">
<path fill="none" stroke="#63b8ff" d="M682.08,-192.32C729.68,-184.29 789.49,-170.61 804.5,-151 819.43,-131.5 805.04,-102.36 793.84,-85.15"/>
<polygon fill="#63b8ff" stroke="#63b8ff" points="681.43,-188.88 672.13,-193.95 682.56,-195.79 681.43,-188.88"/>
</a>
</g>
</g>
<!-- Node12 -->
<g id="Node000012" class="node">
<title>Node12</title>
<g id="a_Node000012"><a xlink:href="MoleGroup_8h.html" target="_top" xlink:title=" ">
<polygon fill="white" stroke="#666666" points="795,-151 690,-151 690,-121 795,-121 795,-151"/>
<text text-anchor="start" x="698" y="-139" font-family="Helvetica,sans-Serif" font-size="10.00">src/engine/objects</text>
<text text-anchor="middle" x="742.5" y="-128" font-family="Helvetica,sans-Serif" font-size="10.00">/MoleGroup.h</text>
</a>
</g>
</g>
<!-- Node1&#45;&gt;Node12 -->
<g id="edge13_Node000001_Node000012" class="edge">
<title>Node1&#45;&gt;Node12</title>
<g id="a_edge13_Node000001_Node000012"><a xlink:title=" ">
<path fill="none" stroke="#63b8ff" d="M649.59,-182.11C667.89,-172.14 691.14,-160.13 709.88,-151.01"/>
<polygon fill="#63b8ff" stroke="#63b8ff" points="647.86,-179.06 640.79,-186.95 651.24,-185.19 647.86,-179.06"/>
</a>
</g>
</g>
<!-- Node3 -->
<g id="Node000003" class="node">
<title>Node3</title>
<g id="a_Node000003"><a xlink:href="RegisteredActors_8cpp.html" target="_top" xlink:title=" ">
<polygon fill="white" stroke="#666666" points="173,-79.5 0,-79.5 0,-60.5 173,-60.5 173,-79.5"/>
<text text-anchor="middle" x="86.5" y="-67.5" font-family="Helvetica,sans-Serif" font-size="10.00">src/engine/RegisteredActors.cpp</text>
</a>
</g>
</g>
<!-- Node2&#45;&gt;Node3 -->
<g id="edge2_Node000002_Node000003" class="edge">
<title>Node2&#45;&gt;Node3</title>
<g id="a_edge2_Node000002_Node000003"><a xlink:title=" ">
<path fill="none" stroke="#63b8ff" d="M222.15,-122.68C188.95,-110.03 138.16,-90.68 109.07,-79.6"/>
<polygon fill="#63b8ff" stroke="#63b8ff" points="221.25,-126.08 231.84,-126.37 223.74,-119.54 221.25,-126.08"/>
</a>
</g>
</g>
<!-- Node4 -->
<g id="Node000004" class="node">
<title>Node4</title>
<g id="a_Node000004"><a xlink:href="ContentBrowser_8cpp.html" target="_top" xlink:title=" ">
<polygon fill="white" stroke="#666666" points="284.5,-19 118.5,-19 118.5,0 284.5,0 284.5,-19"/>
<text text-anchor="middle" x="201.5" y="-7" font-family="Helvetica,sans-Serif" font-size="10.00">src/port/ui/ContentBrowser.cpp</text>
</a>
</g>
</g>
<!-- Node2&#45;&gt;Node4 -->
<g id="edge3_Node000002_Node000004" class="edge">
<title>Node2&#45;&gt;Node4</title>
<g id="a_edge3_Node000002_Node000004"><a xlink:title=" ">
<path fill="none" stroke="#63b8ff" d="M241.02,-118.36C234.03,-109.02 225.86,-96.89 220.5,-85 210.3,-62.37 204.89,-33.29 202.7,-19.09"/>
<polygon fill="#63b8ff" stroke="#63b8ff" points="238.33,-120.6 247.22,-126.35 243.85,-116.3 238.33,-120.6"/>
</a>
</g>
</g>
<!-- Node5 -->
<g id="Node000005" class="node">
<title>Node5</title>
<g id="a_Node000005"><a xlink:href="ContentBrowser_8h.html" target="_top" xlink:title=" ">
<polygon fill="white" stroke="#666666" points="385,-79.5 230,-79.5 230,-60.5 385,-60.5 385,-79.5"/>
<text text-anchor="middle" x="307.5" y="-67.5" font-family="Helvetica,sans-Serif" font-size="10.00">src/port/ui/ContentBrowser.h</text>
</a>
</g>
</g>
<!-- Node2&#45;&gt;Node5 -->
<g id="edge4_Node000002_Node000005" class="edge">
<title>Node2&#45;&gt;Node5</title>
<g id="a_edge4_Node000002_Node000005"><a xlink:title=" ">
<path fill="none" stroke="#63b8ff" d="M268.06,-118.62C278.26,-106.31 291.85,-89.89 300.13,-79.91"/>
<polygon fill="#63b8ff" stroke="#63b8ff" points="265.33,-116.43 261.65,-126.37 270.72,-120.9 265.33,-116.43"/>
</a>
</g>
</g>
<!-- Node5&#45;&gt;Node4 -->
<g id="edge5_Node000005_Node000004" class="edge">
<title>Node5&#45;&gt;Node4</title>
<g id="a_edge5_Node000005_Node000004"><a xlink:title=" ">
<path fill="none" stroke="#63b8ff" d="M282.9,-55.42C262.64,-44.24 234.53,-28.73 217.2,-19.17"/>
<polygon fill="#63b8ff" stroke="#63b8ff" points="281.41,-58.6 291.86,-60.37 284.8,-52.47 281.41,-58.6"/>
</a>
</g>
</g>
<!-- Node6 -->
<g id="Node000006" class="node">
<title>Node6</title>
<g id="a_Node000006"><a xlink:href="ImguiUI_8cpp.html" target="_top" xlink:title=" ">
<polygon fill="white" stroke="#666666" points="430,-19 303,-19 303,0 430,0 430,-19"/>
<text text-anchor="middle" x="366.5" y="-7" font-family="Helvetica,sans-Serif" font-size="10.00">src/port/ui/ImguiUI.cpp</text>
</a>
</g>
</g>
<!-- Node5&#45;&gt;Node6 -->
<g id="edge6_Node000005_Node000006" class="edge">
<title>Node5&#45;&gt;Node6</title>
<g id="a_edge6_Node000005_Node000006"><a xlink:title=" ">
<path fill="none" stroke="#63b8ff" d="M323.55,-53.09C334.56,-42.17 348.77,-28.08 357.76,-19.17"/>
<polygon fill="#63b8ff" stroke="#63b8ff" points="320.84,-50.84 316.21,-60.37 325.77,-55.81 320.84,-50.84"/>
</a>
</g>
</g>
<!-- Node8&#45;&gt;Node7 -->
<g id="edge9_Node000008_Node000007" class="edge">
<title>Node8&#45;&gt;Node7</title>
<g id="a_edge9_Node000008_Node000007"><a xlink:title=" ">
<path fill="none" stroke="#63b8ff" d="M492.87,-116.38C512.43,-106.36 536.15,-94.22 554.13,-85.01"/>
<polygon fill="#63b8ff" stroke="#63b8ff" points="491.24,-113.28 483.93,-120.95 494.43,-119.51 491.24,-113.28"/>
</a>
</g>
</g>
<!-- Node9 -->
<g id="Node000009" class="node">
<title>Node9</title>
<g id="a_Node000009"><a xlink:href="Game_8cpp.html" target="_top" xlink:title=" ">
<polygon fill="white" stroke="#666666" points="509.5,-79.5 403.5,-79.5 403.5,-60.5 509.5,-60.5 509.5,-79.5"/>
<text text-anchor="middle" x="456.5" y="-67.5" font-family="Helvetica,sans-Serif" font-size="10.00">src/port/Game.cpp</text>
</a>
</g>
</g>
<!-- Node8&#45;&gt;Node9 -->
<g id="edge10_Node000008_Node000009" class="edge">
<title>Node8&#45;&gt;Node9</title>
<g id="a_edge10_Node000008_Node000009"><a xlink:title=" ">
<path fill="none" stroke="#63b8ff" d="M456.5,-110.6C456.5,-99.8 456.5,-87.78 456.5,-79.84"/>
<polygon fill="#63b8ff" stroke="#63b8ff" points="453,-110.8 456.5,-120.8 460,-110.8 453,-110.8"/>
</a>
</g>
</g>
<!-- Node12&#45;&gt;Node1 -->
<g id="edge15_Node000012_Node000001" class="edge">
<title>Node12&#45;&gt;Node1</title>
<g id="a_edge15_Node000012_Node000001"><a xlink:title=" ">
<path fill="none" stroke="#63b8ff" d="M712.47,-155.86C694.19,-165.82 670.94,-177.83 652.19,-186.95"/>
<polygon fill="#63b8ff" stroke="#63b8ff" points="714.2,-158.9 721.27,-151.01 710.82,-152.77 714.2,-158.9"/>
</a>
</g>
</g>
<!-- Node12&#45;&gt;Node7 -->
<g id="edge14_Node000012_Node000007" class="edge">
<title>Node12&#45;&gt;Node7</title>
<g id="a_edge14_Node000012_Node000007"><a xlink:title=" ">
<path fill="none" stroke="#63b8ff" d="M697.69,-117.19C672.13,-107.02 640.53,-94.47 616.75,-85.01"/>
<polygon fill="#63b8ff" stroke="#63b8ff" points="696.58,-120.51 707.17,-120.95 699.17,-114.01 696.58,-120.51"/>
</a>
</g>
</g>
<!-- Node12&#45;&gt;Node11 -->
<g id="edge16_Node000012_Node000011" class="edge">
<title>Node12&#45;&gt;Node11</title>
<g id="a_edge16_Node000012_Node000011"><a xlink:title=" ">
<path fill="none" stroke="#63b8ff" d="M757.08,-112.24C762.86,-103.21 769.34,-93.11 774.43,-85.16"/>
<polygon fill="#63b8ff" stroke="#63b8ff" points="754.05,-110.49 751.6,-120.8 759.94,-114.26 754.05,-110.49"/>
</a>
</g>
</g>
</g>
</svg>
