<?xml version="1.0" encoding="UTF-8" standalone="no"?>
<!DOCTYPE svg PUBLIC "-//W3C//DTD SVG 1.1//EN"
 "http://www.w3.org/Graphics/SVG/1.1/DTD/svg11.dtd">
<!-- Generated by graphviz version 2.43.0 (0)
 -->
<!-- Title: Editor::SaveActors Pages: 1 -->
<svg width="417pt" height="76pt"
 viewBox="0.00 0.00 417.00 75.50" xmlns="http://www.w3.org/2000/svg" xmlns:xlink="http://www.w3.org/1999/xlink">

<svg id="main" version="1.1" xmlns="http://www.w3.org/2000/svg" xmlns:xlink="http://www.w3.org/1999/xlink" xml:space="preserve">

<style type="text/css"><![CDATA[
.node, .edge {opacity: 0.7;}
.node.selected, .edge.selected {opacity: 1;}
.edge:hover path { stroke: red; }
.edge:hover polygon { stroke: red; fill: red; }
]]></style>
<script type="application/ecmascript" xlink:href="svg.min.js"/>
<svg id="graph" class="graph">
<g id="graph0" class="graph" transform="scale(1 1) rotate(0) translate(4 71.5)">
<title>Editor::SaveActors</title>
<!-- Node1 -->
<g id="Node000001" class="node">
<title>Node1</title>
<g id="a_Node000001"><a xlink:title=" ">
<polygon fill="#999999" stroke="#666666" points="106,-40 0,-40 0,-21 106,-21 106,-40"/>
<text text-anchor="middle" x="53" y="-28" font-family="Helvetica,sans-Serif" font-size="10.00">Editor::SaveActors</text>
</a>
</g>
</g>
<!-- Node2 -->
<g id="Node000002" class="node">
<title>Node2</title>
<g id="a_Node000002"><a xlink:href="actors_8c.html#af929d0a871448970cbdd4de3d4b58c3f" target="_top" xlink:title=" ">
<polygon fill="white" stroke="#666666" points="260,-67.5 150,-67.5 150,-37.5 260,-37.5 260,-67.5"/>
<text text-anchor="start" x="158" y="-55.5" font-family="Helvetica,sans-Serif" font-size="10.00">get_actor_resource</text>
<text text-anchor="middle" x="205" y="-44.5" font-family="Helvetica,sans-Serif" font-size="10.00">_location_name</text>
</a>
</g>
</g>
<!-- Node1&#45;&gt;Node2 -->
<g id="edge1_Node000001_Node000002" class="edge">
<title>Node1&#45;&gt;Node2</title>
<g id="a_edge1_Node000001_Node000002"><a xlink:title=" ">
<path fill="none" stroke="#63b8ff" d="M106.04,-38.13C116.86,-39.72 128.39,-41.41 139.59,-43.05"/>
<polygon fill="#63b8ff" stroke="#63b8ff" points="139.35,-46.56 149.76,-44.54 140.37,-39.63 139.35,-46.56"/>
</a>
</g>
</g>
<!-- Node3 -->
<g id="Node000003" class="node">
<title>Node3</title>
<g id="a_Node000003"><a xlink:href="structSpawnParams.html#a9748aa1883cadfa0810f0662f2f987cd" target="_top" xlink:title=" ">
<polygon fill="white" stroke="#666666" points="268,-19 142,-19 142,0 268,0 268,-19"/>
<text text-anchor="middle" x="205" y="-7" font-family="Helvetica,sans-Serif" font-size="10.00">SpawnParams::to_json</text>
</a>
</g>
</g>
<!-- Node1&#45;&gt;Node3 -->
<g id="edge2_Node000001_Node000003" class="edge">
<title>Node1&#45;&gt;Node3</title>
<g id="a_edge2_Node000001_Node000003"><a xlink:title=" ">
<path fill="none" stroke="#63b8ff" d="M106.04,-23.21C114.37,-22.05 123.12,-20.82 131.82,-19.6"/>
<polygon fill="#63b8ff" stroke="#63b8ff" points="132.57,-23.03 141.99,-18.18 131.6,-16.1 132.57,-23.03"/>
</a>
</g>
</g>
<!-- Node4 -->
<g id="Node000004" class="node">
<title>Node4</title>
<g id="a_Node000004"><a xlink:href="SpawnParams_8h.html#a862d476b8707d009d489c4200aecc3a8" target="_top" xlink:title=" ">
<polygon fill="white" stroke="#666666" points="409,-19 304,-19 304,0 409,0 409,-19"/>
<text text-anchor="middle" x="356.5" y="-7" font-family="Helvetica,sans-Serif" font-size="10.00">set_optional_from</text>
</a>
</g>
</g>
<!-- Node3&#45;&gt;Node4 -->
<g id="edge3_Node000003_Node000004" class="edge">
<title>Node3&#45;&gt;Node4</title>
<g id="a_edge3_Node000003_Node000004"><a xlink:title=" ">
<path fill="none" stroke="#63b8ff" d="M268.1,-9.5C276.54,-9.5 285.21,-9.5 293.64,-9.5"/>
<polygon fill="#63b8ff" stroke="#63b8ff" points="293.79,-13 303.79,-9.5 293.79,-6 293.79,-13"/>
</a>
</g>
</g>
</g>
</svg>
</svg>

<style type='text/css'>
<![CDATA[
[data-mouse-over-selected='false'] { opacity: 0.7; }
[data-mouse-over-selected='true']  { opacity: 1.0; }
]]>
</style>
<script type="application/ecmascript"><![CDATA[
document.addEventListener('DOMContentLoaded', (event) => {
  highlightEdges();
  highlightAdjacentNodes();
});
]]></script>
</svg>
