<?xml version="1.0" encoding="UTF-8" standalone="no"?>
<!DOCTYPE svg PUBLIC "-//W3C//DTD SVG 1.1//EN"
 "http://www.w3.org/Graphics/SVG/1.1/DTD/svg11.dtd">
<!-- Generated by graphviz version 2.43.0 (0)
 -->
<!-- Title: src/engine/editor/ObjectPicker.h Pages: 1 -->
<svg width="1875pt" height="423pt"
 viewBox="0.00 0.00 1874.61 423.00" xmlns="http://www.w3.org/2000/svg" xmlns:xlink="http://www.w3.org/1999/xlink">
<g id="graph0" class="graph" transform="scale(1 1) rotate(0) translate(4 419)">
<title>src/engine/editor/ObjectPicker.h</title>
<!-- Node1 -->
<g id="Node000001" class="node">
<title>Node1</title>
<g id="a_Node000001"><a xlink:title=" ">
<polygon fill="#999999" stroke="#666666" points="1529.5,-415 1396.5,-415 1396.5,-385 1529.5,-385 1529.5,-415"/>
<text text-anchor="start" x="1404.5" y="-403" font-family="Helvetica,sans-Serif" font-size="10.00">src/engine/editor/Object</text>
<text text-anchor="middle" x="1463" y="-392" font-family="Helvetica,sans-Serif" font-size="10.00">Picker.h</text>
</a>
</g>
</g>
<!-- Node2 -->
<g id="Node000002" class="node">
<title>Node2</title>
<g id="a_Node000002"><a xlink:title=" ">
<polygon fill="#e0e0e0" stroke="#999999" points="1778,-129 1640,-129 1640,-110 1778,-110 1778,-129"/>
<text text-anchor="middle" x="1709" y="-117" font-family="Helvetica,sans-Serif" font-size="10.00">libultraship/libultraship.h</text>
</a>
</g>
</g>
<!-- Node1&#45;&gt;Node2 -->
<g id="edge1_Node000001_Node000002" class="edge">
<title>Node1&#45;&gt;Node2</title>
<g id="a_edge1_Node000001_Node000002"><a xlink:title=" ">
<path fill="none" stroke="#63b8ff" d="M1529.57,-396.06C1602.43,-388.85 1709,-364.75 1709,-285.5 1709,-285.5 1709,-285.5 1709,-228.5 1709,-197.19 1709,-160.77 1709,-139.23"/>
<polygon fill="#63b8ff" stroke="#63b8ff" points="1712.5,-139.18 1709,-129.18 1705.5,-139.18 1712.5,-139.18"/>
</a>
</g>
</g>
<!-- Node3 -->
<g id="Node000003" class="node">
<title>Node3</title>
<g id="a_Node000003"><a xlink:title=" ">
<polygon fill="#e0e0e0" stroke="#999999" points="328,-74 250,-74 250,-55 328,-55 328,-74"/>
<text text-anchor="middle" x="289" y="-62" font-family="Helvetica,sans-Serif" font-size="10.00">libultra/gbi.h</text>
</a>
</g>
</g>
<!-- Node1&#45;&gt;Node3 -->
<g id="edge2_Node000001_Node000003" class="edge">
<title>Node1&#45;&gt;Node3</title>
<g id="a_edge2_Node000001_Node000003"><a xlink:title=" ">
<path fill="none" stroke="#63b8ff" d="M1396.34,-397.37C1110.13,-389.93 0,-356.51 0,-285.5 0,-285.5 0,-285.5 0,-173.5 0,-122.92 157.31,-88.19 239.81,-73.45"/>
<polygon fill="#63b8ff" stroke="#63b8ff" points="240.48,-76.89 249.72,-71.71 239.27,-69.99 240.48,-76.89"/>
</a>
</g>
</g>
<!-- Node4 -->
<g id="Node000004" class="node">
<title>Node4</title>
<g id="a_Node000004"><a xlink:href="Collision_8h.html" target="_top" xlink:title=" ">
<polygon fill="white" stroke="#666666" points="1220,-294 1152,-294 1152,-275 1220,-275 1220,-294"/>
<text text-anchor="middle" x="1186" y="-282" font-family="Helvetica,sans-Serif" font-size="10.00">Collision.h</text>
</a>
</g>
</g>
<!-- Node1&#45;&gt;Node4 -->
<g id="edge3_Node000001_Node000004" class="edge">
<title>Node1&#45;&gt;Node4</title>
<g id="a_edge3_Node000001_Node000004"><a xlink:title=" ">
<path fill="none" stroke="#63b8ff" d="M1428.76,-384.97C1374.23,-362.63 1268.52,-319.31 1216.47,-297.98"/>
<polygon fill="#63b8ff" stroke="#63b8ff" points="1217.68,-294.7 1207.1,-294.14 1215.02,-301.17 1217.68,-294.7"/>
</a>
</g>
</g>
<!-- Node5 -->
<g id="Node000005" class="node">
<title>Node5</title>
<g id="a_Node000005"><a xlink:href="GameObject_8h.html" target="_top" xlink:title=" ">
<polygon fill="white" stroke="#666666" points="1300,-239 1214,-239 1214,-220 1300,-220 1300,-239"/>
<text text-anchor="middle" x="1257" y="-227" font-family="Helvetica,sans-Serif" font-size="10.00">GameObject.h</text>
</a>
</g>
</g>
<!-- Node1&#45;&gt;Node5 -->
<g id="edge70_Node000001_Node000005" class="edge">
<title>Node1&#45;&gt;Node5</title>
<g id="a_edge70_Node000001_Node000005"><a xlink:title=" ">
<path fill="none" stroke="#63b8ff" d="M1445.79,-384.92C1407.49,-353.6 1315.48,-278.34 1275.77,-245.85"/>
<polygon fill="#63b8ff" stroke="#63b8ff" points="1277.66,-242.88 1267.7,-239.25 1273.23,-248.3 1277.66,-242.88"/>
</a>
</g>
</g>
<!-- Node29 -->
<g id="Node000029" class="node">
<title>Node29</title>
<g id="a_Node000029"><a xlink:href="Gizmo_8h.html" target="_top" xlink:title=" ">
<polygon fill="white" stroke="#666666" points="1161.5,-349 1104.5,-349 1104.5,-330 1161.5,-330 1161.5,-349"/>
<text text-anchor="middle" x="1133" y="-337" font-family="Helvetica,sans-Serif" font-size="10.00">Gizmo.h</text>
</a>
</g>
</g>
<!-- Node1&#45;&gt;Node29 -->
<g id="edge62_Node000001_Node000029" class="edge">
<title>Node1&#45;&gt;Node29</title>
<g id="a_edge62_Node000001_Node000029"><a xlink:title=" ">
<path fill="none" stroke="#63b8ff" d="M1396.22,-387.16C1328.81,-375.21 1227.01,-357.17 1171.85,-347.39"/>
<polygon fill="#63b8ff" stroke="#63b8ff" points="1172.24,-343.9 1161.78,-345.6 1171.02,-350.79 1172.24,-343.9"/>
</a>
</g>
</g>
<!-- Node31 -->
<g id="Node000031" class="node">
<title>Node31</title>
<g id="a_Node000031"><a xlink:href="Matrix_8h.html" target="_top" xlink:title=" ">
<polygon fill="white" stroke="#666666" points="1841.5,-184 1748.5,-184 1748.5,-165 1841.5,-165 1841.5,-184"/>
<text text-anchor="middle" x="1795" y="-172" font-family="Helvetica,sans-Serif" font-size="10.00">engine/Matrix.h</text>
</a>
</g>
</g>
<!-- Node1&#45;&gt;Node31 -->
<g id="edge71_Node000001_Node000031" class="edge">
<title>Node1&#45;&gt;Node31</title>
<g id="a_edge71_Node000001_Node000031"><a xlink:title=" ">
<path fill="none" stroke="#63b8ff" d="M1529.51,-393.37C1596.49,-386.46 1693.96,-372.66 1723,-349 1772.05,-309.03 1788.11,-230 1793.01,-194.07"/>
<polygon fill="#63b8ff" stroke="#63b8ff" points="1796.5,-194.37 1794.23,-184.02 1789.55,-193.52 1796.5,-194.37"/>
</a>
</g>
</g>
<!-- Node4&#45;&gt;Node2 -->
<g id="edge4_Node000004_Node000002" class="edge">
<title>Node4&#45;&gt;Node2</title>
<g id="a_edge4_Node000004_Node000002"><a xlink:title=" ">
<path fill="none" stroke="#63b8ff" d="M1220.07,-278.41C1291.45,-267.05 1461.13,-236.45 1595,-184 1628.96,-170.69 1665.29,-149.01 1687.58,-134.75"/>
<polygon fill="#63b8ff" stroke="#63b8ff" points="1689.75,-137.52 1696.23,-129.13 1685.94,-131.64 1689.75,-137.52"/>
</a>
</g>
</g>
<!-- Node4&#45;&gt;Node3 -->
<g id="edge5_Node000004_Node000003" class="edge">
<title>Node4&#45;&gt;Node3</title>
<g id="a_edge5_Node000004_Node000003"><a xlink:title=" ">
<path fill="none" stroke="#63b8ff" d="M1151.96,-276.44C1148.61,-275.89 1145.24,-275.4 1142,-275 837.62,-237.83 757.75,-273.03 453,-239 309.58,-222.99 226,-294.35 133,-184 111.81,-158.85 113.19,-136.25 133,-110 145.98,-92.8 199.19,-80.26 239.89,-72.96"/>
<polygon fill="#63b8ff" stroke="#63b8ff" points="240.68,-76.37 249.93,-71.21 239.48,-69.48 240.68,-76.37"/>
</a>
</g>
</g>
<!-- Node4&#45;&gt;Node5 -->
<g id="edge6_Node000004_Node000005" class="edge">
<title>Node4&#45;&gt;Node5</title>
<g id="a_edge6_Node000004_Node000005"><a xlink:title=" ">
<path fill="none" stroke="#63b8ff" d="M1197.41,-274.98C1208.11,-267 1224.34,-254.88 1237.16,-245.31"/>
<polygon fill="#63b8ff" stroke="#63b8ff" points="1239.47,-247.96 1245.39,-239.17 1235.28,-242.35 1239.47,-247.96"/>
</a>
</g>
</g>
<!-- Node9 -->
<g id="Node000009" class="node">
<title>Node9</title>
<g id="a_Node000009"><a xlink:href="EditorMath_8h.html" target="_top" xlink:title=" ">
<polygon fill="white" stroke="#666666" points="1230.5,-184 1151.5,-184 1151.5,-165 1230.5,-165 1230.5,-184"/>
<text text-anchor="middle" x="1191" y="-172" font-family="Helvetica,sans-Serif" font-size="10.00">EditorMath.h</text>
</a>
</g>
</g>
<!-- Node4&#45;&gt;Node9 -->
<g id="edge61_Node000004_Node000009" class="edge">
<title>Node4&#45;&gt;Node9</title>
<g id="a_edge61_Node000004_Node000009"><a xlink:title=" ">
<path fill="none" stroke="#63b8ff" d="M1186.41,-274.66C1187.22,-257.17 1189.04,-217.8 1190.13,-194.27"/>
<polygon fill="#63b8ff" stroke="#63b8ff" points="1193.63,-194.31 1190.6,-184.16 1186.64,-193.99 1193.63,-194.31"/>
</a>
</g>
</g>
<!-- Node19 -->
<g id="Node000019" class="node">
<title>Node19</title>
<g id="a_Node000019"><a xlink:href="Actor_8h.html" target="_top" xlink:title=" ">
<polygon fill="white" stroke="#666666" points="548,-239 462,-239 462,-220 548,-220 548,-239"/>
<text text-anchor="middle" x="505" y="-227" font-family="Helvetica,sans-Serif" font-size="10.00">engine/Actor.h</text>
</a>
</g>
</g>
<!-- Node4&#45;&gt;Node19 -->
<g id="edge34_Node000004_Node000019" class="edge">
<title>Node4&#45;&gt;Node19</title>
<g id="a_edge34_Node000004_Node000019"><a xlink:title=" ">
<path fill="none" stroke="#63b8ff" d="M1151.96,-276.5C1148.6,-275.94 1145.24,-275.42 1142,-275 926.63,-246.78 667.8,-235.69 558.19,-232.04"/>
<polygon fill="#63b8ff" stroke="#63b8ff" points="558.16,-228.54 548.05,-231.71 557.93,-235.53 558.16,-228.54"/>
</a>
</g>
</g>
<!-- Node26 -->
<g id="Node000026" class="node">
<title>Node26</title>
<g id="a_Node000026"><a xlink:href="Object_8h.html" target="_top" xlink:title=" ">
<polygon fill="white" stroke="#666666" points="1105.5,-239 974.5,-239 974.5,-220 1105.5,-220 1105.5,-239"/>
<text text-anchor="middle" x="1040" y="-227" font-family="Helvetica,sans-Serif" font-size="10.00">engine/objects/Object.h</text>
</a>
</g>
</g>
<!-- Node4&#45;&gt;Node26 -->
<g id="edge52_Node000004_Node000026" class="edge">
<title>Node4&#45;&gt;Node26</title>
<g id="a_edge52_Node000004_Node000026"><a xlink:title=" ">
<path fill="none" stroke="#63b8ff" d="M1162.54,-274.98C1138.42,-266.23 1100.63,-252.51 1073.4,-242.62"/>
<polygon fill="#63b8ff" stroke="#63b8ff" points="1074.48,-239.29 1063.88,-239.17 1072.09,-245.87 1074.48,-239.29"/>
</a>
</g>
</g>
<!-- Node5&#45;&gt;Node2 -->
<g id="edge7_Node000005_Node000002" class="edge">
<title>Node5&#45;&gt;Node2</title>
<g id="a_edge7_Node000005_Node000002"><a xlink:title=" ">
<path fill="none" stroke="#63b8ff" d="M1280.74,-219.93C1304.32,-211.29 1341.41,-197.36 1373,-184 1391.5,-176.18 1394.77,-170.78 1414,-165 1453.2,-153.22 1556.46,-139.02 1629.73,-129.88"/>
<polygon fill="#63b8ff" stroke="#63b8ff" points="1630.36,-133.33 1639.85,-128.63 1629.5,-126.39 1630.36,-133.33"/>
</a>
</g>
</g>
<!-- Node5&#45;&gt;Node3 -->
<g id="edge8_Node000005_Node000003" class="edge">
<title>Node5&#45;&gt;Node3</title>
<g id="a_edge8_Node000005_Node000003"><a xlink:title=" ">
<path fill="none" stroke="#63b8ff" d="M1213.83,-225.79C1185.46,-224.04 1147.53,-221.77 1114,-220 1027.58,-215.43 415.47,-218.25 336,-184 303.67,-170.07 292.76,-161.4 279,-129 272.86,-114.55 276.49,-96.82 281,-83.77"/>
<polygon fill="#63b8ff" stroke="#63b8ff" points="284.41,-84.67 284.8,-74.08 277.89,-82.11 284.41,-84.67"/>
</a>
</g>
</g>
<!-- Node6 -->
<g id="Node000006" class="node">
<title>Node6</title>
<g id="a_Node000006"><a xlink:title=" ">
<polygon fill="#e0e0e0" stroke="#999999" points="1657,-19 1567,-19 1567,0 1657,0 1657,-19"/>
<text text-anchor="middle" x="1612" y="-7" font-family="Helvetica,sans-Serif" font-size="10.00">libultra/types.h</text>
</a>
</g>
</g>
<!-- Node5&#45;&gt;Node6 -->
<g id="edge9_Node000005_Node000006" class="edge">
<title>Node5&#45;&gt;Node6</title>
<g id="a_edge9_Node000005_Node000006"><a xlink:title=" ">
<path fill="none" stroke="#63b8ff" d="M1300.31,-228.57C1430.83,-228.33 1813.72,-224.18 1851,-184 1919.94,-109.7 1739.91,-46.7 1654.3,-21.84"/>
<polygon fill="#63b8ff" stroke="#63b8ff" points="1655.18,-18.45 1644.6,-19.07 1653.25,-25.19 1655.18,-18.45"/>
</a>
</g>
</g>
<!-- Node7 -->
<g id="Node000007" class="node">
<title>Node7</title>
<g id="a_Node000007"><a xlink:href="CoreMath_8h.html" target="_top" xlink:title=" ">
<polygon fill="white" stroke="#666666" points="1584,-129 1502,-129 1502,-110 1584,-110 1584,-129"/>
<text text-anchor="middle" x="1543" y="-117" font-family="Helvetica,sans-Serif" font-size="10.00">../CoreMath.h</text>
</a>
</g>
</g>
<!-- Node5&#45;&gt;Node7 -->
<g id="edge10_Node000005_Node000007" class="edge">
<title>Node5&#45;&gt;Node7</title>
<g id="a_edge10_Node000005_Node000007"><a xlink:title=" ">
<path fill="none" stroke="#63b8ff" d="M1271.3,-219.85C1293.78,-206.55 1339.02,-180.97 1380,-165 1416.91,-150.62 1460.23,-139.03 1492.93,-131.29"/>
<polygon fill="#63b8ff" stroke="#63b8ff" points="1493.77,-134.68 1502.72,-129.01 1492.19,-127.87 1493.77,-134.68"/>
</a>
</g>
</g>
<!-- Node5&#45;&gt;Node9 -->
<g id="edge12_Node000005_Node000009" class="edge">
<title>Node5&#45;&gt;Node9</title>
<g id="a_edge12_Node000005_Node000009"><a xlink:title=" ">
<path fill="none" stroke="#63b8ff" d="M1241.28,-219.98C1229.91,-212.23 1215.03,-200.58 1204.26,-191.14"/>
<polygon fill="#63b8ff" stroke="#63b8ff" points="1206.39,-188.34 1196.65,-184.17 1201.66,-193.51 1206.39,-188.34"/>
</a>
</g>
</g>
<!-- Node10 -->
<g id="Node000010" class="node">
<title>Node10</title>
<g id="a_Node000010"><a xlink:title=" ">
<polygon fill="#e0e0e0" stroke="#999999" points="973.5,-129 926.5,-129 926.5,-110 973.5,-110 973.5,-129"/>
<text text-anchor="middle" x="950" y="-117" font-family="Helvetica,sans-Serif" font-size="10.00">vector</text>
</a>
</g>
</g>
<!-- Node5&#45;&gt;Node10 -->
<g id="edge23_Node000005_Node000010" class="edge">
<title>Node5&#45;&gt;Node10</title>
<g id="a_edge23_Node000005_Node000010"><a xlink:title=" ">
<path fill="none" stroke="#63b8ff" d="M1232.65,-219.94C1177.98,-200.7 1045.38,-154.05 983.21,-132.18"/>
<polygon fill="#63b8ff" stroke="#63b8ff" points="984.1,-128.79 973.5,-128.77 981.78,-135.39 984.1,-128.79"/>
</a>
</g>
</g>
<!-- Node13 -->
<g id="Node000013" class="node">
<title>Node13</title>
<g id="a_Node000013"><a xlink:href="common__structs_8h.html" target="_top" xlink:title=" ">
<polygon fill="white" stroke="#666666" points="867.5,-74 760.5,-74 760.5,-55 867.5,-55 867.5,-74"/>
<text text-anchor="middle" x="814" y="-62" font-family="Helvetica,sans-Serif" font-size="10.00">common_structs.h</text>
</a>
</g>
</g>
<!-- Node5&#45;&gt;Node13 -->
<g id="edge33_Node000005_Node000013" class="edge">
<title>Node5&#45;&gt;Node13</title>
<g id="a_edge33_Node000005_Node000013"><a xlink:title=" ">
<path fill="none" stroke="#63b8ff" d="M1265.17,-219.81C1278.39,-206.23 1305.86,-179.99 1334,-165 1386.14,-137.23 1495.3,-153.19 1455,-110 1435.49,-89.09 1035.72,-73.12 877.58,-67.6"/>
<polygon fill="#63b8ff" stroke="#63b8ff" points="877.64,-64.1 867.52,-67.25 877.39,-71.09 877.64,-64.1"/>
</a>
</g>
</g>
<!-- Node14 -->
<g id="Node000014" class="node">
<title>Node14</title>
<g id="a_Node000014"><a xlink:href="SpawnParams_8h.html" target="_top" xlink:title=" ">
<polygon fill="white" stroke="#666666" points="850,-184 720,-184 720,-165 850,-165 850,-184"/>
<text text-anchor="middle" x="785" y="-172" font-family="Helvetica,sans-Serif" font-size="10.00">engine/SpawnParams.h</text>
</a>
</g>
</g>
<!-- Node5&#45;&gt;Node14 -->
<g id="edge24_Node000005_Node000014" class="edge">
<title>Node5&#45;&gt;Node14</title>
<g id="a_edge24_Node000005_Node000014"><a xlink:title=" ">
<path fill="none" stroke="#63b8ff" d="M1213.71,-223.7C1142.38,-215.79 995.42,-199.45 860.48,-184.16"/>
<polygon fill="#63b8ff" stroke="#63b8ff" points="860.7,-180.67 850.37,-183.02 859.91,-187.62 860.7,-180.67"/>
</a>
</g>
</g>
<!-- Node18 -->
<g id="Node000018" class="node">
<title>Node18</title>
<g id="a_Node000018"><a xlink:href="DefaultProperties_8h.html" target="_top" xlink:title=" ">
<polygon fill="white" stroke="#666666" points="1585.5,-184 1422.5,-184 1422.5,-165 1585.5,-165 1585.5,-184"/>
<text text-anchor="middle" x="1504" y="-172" font-family="Helvetica,sans-Serif" font-size="10.00">src/port/ui/DefaultProperties.h</text>
</a>
</g>
</g>
<!-- Node5&#45;&gt;Node18 -->
<g id="edge31_Node000005_Node000018" class="edge">
<title>Node5&#45;&gt;Node18</title>
<g id="a_edge31_Node000005_Node000018"><a xlink:title=" ">
<path fill="none" stroke="#63b8ff" d="M1296.68,-219.98C1339.5,-210.8 1407.76,-196.15 1454.16,-186.19"/>
<polygon fill="#63b8ff" stroke="#63b8ff" points="1454.96,-189.6 1464,-184.08 1453.49,-182.76 1454.96,-189.6"/>
</a>
</g>
</g>
<!-- Node8 -->
<g id="Node000008" class="node">
<title>Node8</title>
<g id="a_Node000008"><a xlink:title=" ">
<polygon fill="#e0e0e0" stroke="#999999" points="637,-19 557,-19 557,0 637,0 637,-19"/>
<text text-anchor="middle" x="597" y="-7" font-family="Helvetica,sans-Serif" font-size="10.00">libultraship.h</text>
</a>
</g>
</g>
<!-- Node7&#45;&gt;Node8 -->
<g id="edge11_Node000007_Node000008" class="edge">
<title>Node7&#45;&gt;Node8</title>
<g id="a_edge11_Node000007_Node000008"><a xlink:title=" ">
<path fill="none" stroke="#63b8ff" d="M1501.87,-112.02C1497.2,-111.32 1492.5,-110.63 1488,-110 1295.46,-82.93 1247.22,-76.65 1054,-55 906.28,-38.45 731.28,-22.4 647.13,-14.9"/>
<polygon fill="#63b8ff" stroke="#63b8ff" points="647.35,-11.41 637.08,-14.01 646.73,-18.38 647.35,-11.41"/>
</a>
</g>
</g>
<!-- Node9&#45;&gt;Node2 -->
<g id="edge13_Node000009_Node000002" class="edge">
<title>Node9&#45;&gt;Node2</title>
<g id="a_edge13_Node000009_Node000002"><a xlink:title=" ">
<path fill="none" stroke="#63b8ff" d="M1230.59,-169.45C1307.02,-161.64 1480.25,-143.92 1626,-129 1627.12,-128.89 1628.24,-128.77 1629.37,-128.65"/>
<polygon fill="#63b8ff" stroke="#63b8ff" points="1630.12,-132.1 1639.71,-127.6 1629.4,-125.13 1630.12,-132.1"/>
</a>
</g>
</g>
<!-- Node9&#45;&gt;Node3 -->
<g id="edge14_Node000009_Node000003" class="edge">
<title>Node9&#45;&gt;Node3</title>
<g id="a_edge14_Node000009_Node000003"><a xlink:title=" ">
<path fill="none" stroke="#63b8ff" d="M1151.15,-166.45C1115.07,-159.35 1060.85,-146.88 1016,-129 999.92,-122.59 998.6,-114.9 982,-110 920.81,-91.95 487.03,-73.33 338.64,-67.42"/>
<polygon fill="#63b8ff" stroke="#63b8ff" points="338.59,-63.91 328.46,-67.01 338.31,-70.91 338.59,-63.91"/>
</a>
</g>
</g>
<!-- Node9&#45;&gt;Node5 -->
<g id="edge18_Node000009_Node000005" class="edge">
<title>Node9&#45;&gt;Node5</title>
<g id="a_edge18_Node000009_Node000005"><a xlink:title=" ">
<path fill="none" stroke="#63b8ff" d="M1206.83,-184.09C1218.16,-191.83 1232.94,-203.41 1243.67,-212.8"/>
<polygon fill="#63b8ff" stroke="#63b8ff" points="1241.53,-215.58 1251.27,-219.75 1246.25,-210.42 1241.53,-215.58"/>
</a>
</g>
</g>
<!-- Node9&#45;&gt;Node6 -->
<g id="edge15_Node000009_Node000006" class="edge">
<title>Node9&#45;&gt;Node6</title>
<g id="a_edge15_Node000009_Node000006"><a xlink:title=" ">
<path fill="none" stroke="#63b8ff" d="M1230.81,-171.79C1327.19,-167.29 1567.07,-153.7 1593,-129 1619.94,-103.34 1618.54,-55.82 1615.23,-29.42"/>
<polygon fill="#63b8ff" stroke="#63b8ff" points="1618.65,-28.61 1613.72,-19.23 1611.72,-29.63 1618.65,-28.61"/>
</a>
</g>
</g>
<!-- Node9&#45;&gt;Node7 -->
<g id="edge16_Node000009_Node000007" class="edge">
<title>Node9&#45;&gt;Node7</title>
<g id="a_edge16_Node000009_Node000007"><a xlink:title=" ">
<path fill="none" stroke="#63b8ff" d="M1230.69,-167.52C1294.79,-157.87 1421.02,-138.87 1491.8,-128.21"/>
<polygon fill="#63b8ff" stroke="#63b8ff" points="1492.45,-131.65 1501.82,-126.7 1491.41,-124.73 1492.45,-131.65"/>
</a>
</g>
</g>
<!-- Node9&#45;&gt;Node10 -->
<g id="edge17_Node000009_Node000010" class="edge">
<title>Node9&#45;&gt;Node10</title>
<g id="a_edge17_Node000009_Node000010"><a xlink:title=" ">
<path fill="none" stroke="#63b8ff" d="M1151.69,-164.94C1110.79,-156.01 1044.89,-141.6 988,-129 986.56,-128.68 985.08,-128.35 983.59,-128.02"/>
<polygon fill="#63b8ff" stroke="#63b8ff" points="984.24,-124.58 973.71,-125.82 982.71,-131.41 984.24,-124.58"/>
</a>
</g>
</g>
<!-- Node11 -->
<g id="Node000011" class="node">
<title>Node11</title>
<g id="a_Node000011"><a xlink:title=" ">
<polygon fill="#e0e0e0" stroke="#999999" points="1276,-129 1106,-129 1106,-110 1276,-110 1276,-129"/>
<text text-anchor="middle" x="1191" y="-117" font-family="Helvetica,sans-Serif" font-size="10.00">graphic/Fast3D/Fast3dWindow.h</text>
</a>
</g>
</g>
<!-- Node9&#45;&gt;Node11 -->
<g id="edge19_Node000009_Node000011" class="edge">
<title>Node9&#45;&gt;Node11</title>
<g id="a_edge19_Node000009_Node000011"><a xlink:title=" ">
<path fill="none" stroke="#63b8ff" d="M1191,-164.75C1191,-157.8 1191,-147.85 1191,-139.13"/>
<polygon fill="#63b8ff" stroke="#63b8ff" points="1194.5,-139.09 1191,-129.09 1187.5,-139.09 1194.5,-139.09"/>
</a>
</g>
</g>
<!-- Node12 -->
<g id="Node000012" class="node">
<title>Node12</title>
<g id="a_Node000012"><a xlink:title=" ">
<polygon fill="#e0e0e0" stroke="#999999" points="1446,-129 1294,-129 1294,-110 1446,-110 1446,-129"/>
<text text-anchor="middle" x="1370" y="-117" font-family="Helvetica,sans-Serif" font-size="10.00">graphic/Fast3D/interpreter.h</text>
</a>
</g>
</g>
<!-- Node9&#45;&gt;Node12 -->
<g id="edge20_Node000009_Node000012" class="edge">
<title>Node9&#45;&gt;Node12</title>
<g id="a_edge20_Node000009_Node000012"><a xlink:title=" ">
<path fill="none" stroke="#63b8ff" d="M1219.76,-164.98C1249.94,-156.05 1297.57,-141.94 1331.1,-132.02"/>
<polygon fill="#63b8ff" stroke="#63b8ff" points="1332.42,-135.28 1341.02,-129.08 1330.43,-128.57 1332.42,-135.28"/>
</a>
</g>
</g>
<!-- Node9&#45;&gt;Node13 -->
<g id="edge21_Node000009_Node000013" class="edge">
<title>Node9&#45;&gt;Node13</title>
<g id="a_edge21_Node000009_Node000013"><a xlink:title=" ">
<path fill="none" stroke="#63b8ff" d="M1170.28,-164.98C1137.82,-151.85 1072.8,-126.49 1016,-110 967.67,-95.98 911.73,-83.97 870.99,-75.98"/>
<polygon fill="#63b8ff" stroke="#63b8ff" points="871.46,-72.5 860.97,-74.03 870.12,-79.37 871.46,-72.5"/>
</a>
</g>
</g>
<!-- Node13&#45;&gt;Node8 -->
<g id="edge22_Node000013_Node000008" class="edge">
<title>Node13&#45;&gt;Node8</title>
<g id="a_edge22_Node000013_Node000008"><a xlink:title=" ">
<path fill="none" stroke="#63b8ff" d="M779.14,-54.98C741.91,-45.89 682.8,-31.46 642.07,-21.51"/>
<polygon fill="#63b8ff" stroke="#63b8ff" points="642.68,-18.05 632.14,-19.08 641.02,-24.85 642.68,-18.05"/>
</a>
</g>
</g>
<!-- Node14&#45;&gt;Node7 -->
<g id="edge29_Node000014_Node000007" class="edge">
<title>Node14&#45;&gt;Node7</title>
<g id="a_edge29_Node000014_Node000007"><a xlink:title=" ">
<path fill="none" stroke="#63b8ff" d="M850.35,-165.8C853.27,-165.52 856.17,-165.25 859,-165 1123.36,-141.85 1190.44,-149.76 1455,-129 1466.84,-128.07 1479.55,-126.93 1491.54,-125.78"/>
<polygon fill="#63b8ff" stroke="#63b8ff" points="1492.22,-129.23 1501.84,-124.78 1491.55,-122.27 1492.22,-129.23"/>
</a>
</g>
</g>
<!-- Node14&#45;&gt;Node10 -->
<g id="edge25_Node000014_Node000010" class="edge">
<title>Node14&#45;&gt;Node10</title>
<g id="a_edge25_Node000014_Node000010"><a xlink:title=" ">
<path fill="none" stroke="#63b8ff" d="M811.51,-164.98C840.07,-155.81 885.59,-141.19 916.59,-131.23"/>
<polygon fill="#63b8ff" stroke="#63b8ff" points="918.04,-134.44 926.5,-128.05 915.9,-127.78 918.04,-134.44"/>
</a>
</g>
</g>
<!-- Node14&#45;&gt;Node13 -->
<g id="edge30_Node000014_Node000013" class="edge">
<title>Node14&#45;&gt;Node13</title>
<g id="a_edge30_Node000014_Node000013"><a xlink:title=" ">
<path fill="none" stroke="#63b8ff" d="M787.37,-164.66C792.09,-147.09 802.74,-107.45 809.04,-83.95"/>
<polygon fill="#63b8ff" stroke="#63b8ff" points="812.46,-84.72 811.68,-74.16 805.7,-82.91 812.46,-84.72"/>
</a>
</g>
</g>
<!-- Node15 -->
<g id="Node000015" class="node">
<title>Node15</title>
<g id="a_Node000015"><a xlink:title=" ">
<polygon fill="#e0e0e0" stroke="#999999" points="696,-129 640,-129 640,-110 696,-110 696,-129"/>
<text text-anchor="middle" x="668" y="-117" font-family="Helvetica,sans-Serif" font-size="10.00">optional</text>
</a>
</g>
</g>
<!-- Node14&#45;&gt;Node15 -->
<g id="edge26_Node000014_Node000015" class="edge">
<title>Node14&#45;&gt;Node15</title>
<g id="a_edge26_Node000014_Node000015"><a xlink:title=" ">
<path fill="none" stroke="#63b8ff" d="M766.2,-164.98C747.38,-156.46 718.18,-143.23 696.5,-133.41"/>
<polygon fill="#63b8ff" stroke="#63b8ff" points="697.69,-130.11 687.14,-129.17 694.8,-136.48 697.69,-130.11"/>
</a>
</g>
</g>
<!-- Node16 -->
<g id="Node000016" class="node">
<title>Node16</title>
<g id="a_Node000016"><a xlink:title=" ">
<polygon fill="#e0e0e0" stroke="#999999" points="758,-129 714,-129 714,-110 758,-110 758,-129"/>
<text text-anchor="middle" x="736" y="-117" font-family="Helvetica,sans-Serif" font-size="10.00">string</text>
</a>
</g>
</g>
<!-- Node14&#45;&gt;Node16 -->
<g id="edge27_Node000014_Node000016" class="edge">
<title>Node14&#45;&gt;Node16</title>
<g id="a_edge27_Node000014_Node000016"><a xlink:title=" ">
<path fill="none" stroke="#63b8ff" d="M776.91,-164.75C769.84,-157.11 759.41,-145.82 750.85,-136.56"/>
<polygon fill="#63b8ff" stroke="#63b8ff" points="753.3,-134.06 743.94,-129.09 748.16,-138.81 753.3,-134.06"/>
</a>
</g>
</g>
<!-- Node17 -->
<g id="Node000017" class="node">
<title>Node17</title>
<g id="a_Node000017"><a xlink:title=" ">
<polygon fill="#e0e0e0" stroke="#999999" points="622,-129 512,-129 512,-110 622,-110 622,-129"/>
<text text-anchor="middle" x="567" y="-117" font-family="Helvetica,sans-Serif" font-size="10.00">nlohmann/json.hpp</text>
</a>
</g>
</g>
<!-- Node14&#45;&gt;Node17 -->
<g id="edge28_Node000014_Node000017" class="edge">
<title>Node14&#45;&gt;Node17</title>
<g id="a_edge28_Node000014_Node000017"><a xlink:title=" ">
<path fill="none" stroke="#63b8ff" d="M749.97,-164.98C712.5,-155.87 652.95,-141.4 612.02,-131.45"/>
<polygon fill="#63b8ff" stroke="#63b8ff" points="612.84,-128.04 602.3,-129.08 611.19,-134.85 612.84,-128.04"/>
</a>
</g>
</g>
<!-- Node18&#45;&gt;Node2 -->
<g id="edge32_Node000018_Node000002" class="edge">
<title>Node18&#45;&gt;Node2</title>
<g id="a_edge32_Node000018_Node000002"><a xlink:title=" ">
<path fill="none" stroke="#63b8ff" d="M1536.94,-164.98C1571.95,-155.93 1627.47,-141.58 1665.93,-131.64"/>
<polygon fill="#63b8ff" stroke="#63b8ff" points="1667,-134.97 1675.81,-129.08 1665.25,-128.2 1667,-134.97"/>
</a>
</g>
</g>
<!-- Node19&#45;&gt;Node8 -->
<g id="edge35_Node000019_Node000008" class="edge">
<title>Node19&#45;&gt;Node8</title>
<g id="a_edge35_Node000019_Node000008"><a xlink:title=" ">
<path fill="none" stroke="#63b8ff" d="M461.57,-223.47C408.93,-216.65 324.14,-203.08 299,-184 248.92,-146 199.4,-102.13 241,-55 260.92,-32.44 453.64,-18.58 546.92,-13.14"/>
<polygon fill="#63b8ff" stroke="#63b8ff" points="547.19,-16.63 556.97,-12.57 546.79,-9.65 547.19,-16.63"/>
</a>
</g>
</g>
<!-- Node19&#45;&gt;Node9 -->
<g id="edge37_Node000019_Node000009" class="edge">
<title>Node19&#45;&gt;Node9</title>
<g id="a_edge37_Node000019_Node000009"><a xlink:title=" ">
<path fill="none" stroke="#63b8ff" d="M548.17,-225.16C669.37,-215.8 1012.28,-189.31 1141.18,-179.35"/>
<polygon fill="#63b8ff" stroke="#63b8ff" points="1141.48,-182.84 1151.18,-178.58 1140.94,-175.86 1141.48,-182.84"/>
</a>
</g>
</g>
<!-- Node19&#45;&gt;Node13 -->
<g id="edge51_Node000019_Node000013" class="edge">
<title>Node19&#45;&gt;Node13</title>
<g id="a_edge51_Node000019_Node000013"><a xlink:title=" ">
<path fill="none" stroke="#63b8ff" d="M493.36,-219.73C483.69,-211.67 470.65,-198.74 465,-184 452.47,-151.31 463.63,-130.51 492,-110 532.08,-81.03 668.19,-70.87 750.07,-67.34"/>
<polygon fill="#63b8ff" stroke="#63b8ff" points="750.41,-70.83 760.26,-66.93 750.13,-63.84 750.41,-70.83"/>
</a>
</g>
</g>
<!-- Node19&#45;&gt;Node14 -->
<g id="edge36_Node000019_Node000014" class="edge">
<title>Node19&#45;&gt;Node14</title>
<g id="a_edge36_Node000019_Node000014"><a xlink:title=" ">
<path fill="none" stroke="#63b8ff" d="M548.14,-220.33C596.99,-211.09 676.71,-196 730,-185.91"/>
<polygon fill="#63b8ff" stroke="#63b8ff" points="730.78,-189.32 739.96,-184.03 729.48,-182.45 730.78,-189.32"/>
</a>
</g>
</g>
<!-- Node20 -->
<g id="Node000020" class="node">
<title>Node20</title>
<g id="a_Node000020"><a xlink:href="macros_8h.html" target="_top" xlink:title=" ">
<polygon fill="white" stroke="#666666" points="204,-184 142,-184 142,-165 204,-165 204,-184"/>
<text text-anchor="middle" x="173" y="-172" font-family="Helvetica,sans-Serif" font-size="10.00">macros.h</text>
</a>
</g>
</g>
<!-- Node19&#45;&gt;Node20 -->
<g id="edge38_Node000019_Node000020" class="edge">
<title>Node19&#45;&gt;Node20</title>
<g id="a_edge38_Node000019_Node000020"><a xlink:title=" ">
<path fill="none" stroke="#63b8ff" d="M461.65,-222.23C405.4,-213.99 304.22,-198.82 218,-184 216.9,-183.81 215.79,-183.62 214.67,-183.42"/>
<polygon fill="#63b8ff" stroke="#63b8ff" points="214.91,-179.91 204.45,-181.58 213.67,-186.8 214.91,-179.91"/>
</a>
</g>
</g>
<!-- Node22 -->
<g id="Node000022" class="node">
<title>Node22</title>
<g id="a_Node000022"><a xlink:href="main_8h.html" target="_top" xlink:title=" ">
<polygon fill="white" stroke="#666666" points="395,-184 345,-184 345,-165 395,-165 395,-184"/>
<text text-anchor="middle" x="370" y="-172" font-family="Helvetica,sans-Serif" font-size="10.00">main.h</text>
</a>
</g>
</g>
<!-- Node19&#45;&gt;Node22 -->
<g id="edge41_Node000019_Node000022" class="edge">
<title>Node19&#45;&gt;Node22</title>
<g id="a_edge41_Node000019_Node000022"><a xlink:title=" ">
<path fill="none" stroke="#63b8ff" d="M483.31,-219.98C461.2,-211.3 426.68,-197.75 401.55,-187.88"/>
<polygon fill="#63b8ff" stroke="#63b8ff" points="402.67,-184.57 392.08,-184.17 400.11,-191.08 402.67,-184.57"/>
</a>
</g>
</g>
<!-- Node25 -->
<g id="Node000025" class="node">
<title>Node25</title>
<g id="a_Node000025"><a xlink:href="camera_8h.html" target="_top" xlink:title=" ">
<polygon fill="white" stroke="#666666" points="536,-184 474,-184 474,-165 536,-165 536,-184"/>
<text text-anchor="middle" x="505" y="-172" font-family="Helvetica,sans-Serif" font-size="10.00">camera.h</text>
</a>
</g>
</g>
<!-- Node19&#45;&gt;Node25 -->
<g id="edge48_Node000019_Node000025" class="edge">
<title>Node19&#45;&gt;Node25</title>
<g id="a_edge48_Node000019_Node000025"><a xlink:title=" ">
<path fill="none" stroke="#63b8ff" d="M505,-219.75C505,-212.8 505,-202.85 505,-194.13"/>
<polygon fill="#63b8ff" stroke="#63b8ff" points="508.5,-194.09 505,-184.09 501.5,-194.09 508.5,-194.09"/>
</a>
</g>
</g>
<!-- Node20&#45;&gt;Node8 -->
<g id="edge40_Node000020_Node000008" class="edge">
<title>Node20&#45;&gt;Node8</title>
<g id="a_edge40_Node000020_Node000008"><a xlink:title=" ">
<path fill="none" stroke="#63b8ff" d="M160.95,-164.97C145.69,-153.05 122.58,-130.57 133,-110 151.68,-73.13 169.51,-70.08 208,-55 268.56,-31.28 455.97,-18.15 546.72,-13.04"/>
<polygon fill="#63b8ff" stroke="#63b8ff" points="546.98,-16.53 556.77,-12.48 546.6,-9.54 546.98,-16.53"/>
</a>
</g>
</g>
<!-- Node21 -->
<g id="Node000021" class="node">
<title>Node21</title>
<g id="a_Node000021"><a xlink:href="math_8h.html" target="_top" xlink:title=" ">
<polygon fill="white" stroke="#666666" points="193.5,-129 142.5,-129 142.5,-110 193.5,-110 193.5,-129"/>
<text text-anchor="middle" x="168" y="-117" font-family="Helvetica,sans-Serif" font-size="10.00">math.h</text>
</a>
</g>
</g>
<!-- Node20&#45;&gt;Node21 -->
<g id="edge39_Node000020_Node000021" class="edge">
<title>Node20&#45;&gt;Node21</title>
<g id="a_edge39_Node000020_Node000021"><a xlink:title=" ">
<path fill="none" stroke="#63b8ff" d="M172.17,-164.75C171.52,-157.8 170.58,-147.85 169.76,-139.13"/>
<polygon fill="#63b8ff" stroke="#63b8ff" points="173.23,-138.72 168.81,-129.09 166.27,-139.37 173.23,-138.72"/>
</a>
</g>
</g>
<!-- Node22&#45;&gt;Node13 -->
<g id="edge47_Node000022_Node000013" class="edge">
<title>Node22&#45;&gt;Node13</title>
<g id="a_edge47_Node000022_Node000013"><a xlink:title=" ">
<path fill="none" stroke="#63b8ff" d="M375.6,-164.69C385.2,-150.43 406.28,-122.64 432,-110 486.51,-83.22 656.47,-72.03 750.26,-67.79"/>
<polygon fill="#63b8ff" stroke="#63b8ff" points="750.64,-71.28 760.47,-67.35 750.33,-64.29 750.64,-71.28"/>
</a>
</g>
</g>
<!-- Node23 -->
<g id="Node000023" class="node">
<title>Node23</title>
<g id="a_Node000023"><a xlink:href="mk64_8h.html" target="_top" xlink:title=" ">
<polygon fill="white" stroke="#666666" points="341.5,-129 288.5,-129 288.5,-110 341.5,-110 341.5,-129"/>
<text text-anchor="middle" x="315" y="-117" font-family="Helvetica,sans-Serif" font-size="10.00">mk64.h</text>
</a>
</g>
</g>
<!-- Node22&#45;&gt;Node23 -->
<g id="edge42_Node000022_Node000023" class="edge">
<title>Node22&#45;&gt;Node23</title>
<g id="a_edge42_Node000022_Node000023"><a xlink:title=" ">
<path fill="none" stroke="#63b8ff" d="M360.92,-164.75C352.91,-157.03 341.04,-145.6 331.38,-136.28"/>
<polygon fill="#63b8ff" stroke="#63b8ff" points="333.54,-133.51 323.91,-129.09 328.69,-138.55 333.54,-133.51"/>
</a>
</g>
</g>
<!-- Node23&#45;&gt;Node3 -->
<g id="edge46_Node000023_Node000003" class="edge">
<title>Node23&#45;&gt;Node3</title>
<g id="a_edge46_Node000023_Node000003"><a xlink:title=" ">
<path fill="none" stroke="#63b8ff" d="M310.71,-109.75C307.19,-102.57 302.09,-92.18 297.72,-83.27"/>
<polygon fill="#63b8ff" stroke="#63b8ff" points="300.76,-81.53 293.21,-74.09 294.48,-84.61 300.76,-81.53"/>
</a>
</g>
</g>
<!-- Node23&#45;&gt;Node8 -->
<g id="edge43_Node000023_Node000008" class="edge">
<title>Node23&#45;&gt;Node8</title>
<g id="a_edge43_Node000023_Node000008"><a xlink:title=" ">
<path fill="none" stroke="#63b8ff" d="M323.3,-109.57C336.76,-95.67 364.8,-68.98 394,-55 442.86,-31.62 504.22,-20.35 546.62,-15.04"/>
<polygon fill="#63b8ff" stroke="#63b8ff" points="547.19,-18.5 556.71,-13.84 546.36,-11.55 547.19,-18.5"/>
</a>
</g>
</g>
<!-- Node24 -->
<g id="Node000024" class="node">
<title>Node24</title>
<g id="a_Node000024"><a xlink:href="string_8h.html" target="_top" xlink:title=" ">
<polygon fill="white" stroke="#666666" points="629.5,-74 576.5,-74 576.5,-55 629.5,-55 629.5,-74"/>
<text text-anchor="middle" x="603" y="-62" font-family="Helvetica,sans-Serif" font-size="10.00">string.h</text>
</a>
</g>
</g>
<!-- Node23&#45;&gt;Node24 -->
<g id="edge44_Node000023_Node000024" class="edge">
<title>Node23&#45;&gt;Node24</title>
<g id="a_edge44_Node000023_Node000024"><a xlink:title=" ">
<path fill="none" stroke="#63b8ff" d="M341.89,-112.82C346.59,-111.86 351.43,-110.88 356,-110 430.53,-95.56 518.01,-80.17 566.3,-71.8"/>
<polygon fill="#63b8ff" stroke="#63b8ff" points="567.02,-75.23 576.28,-70.08 565.83,-68.33 567.02,-75.23"/>
</a>
</g>
</g>
<!-- Node24&#45;&gt;Node6 -->
<g id="edge45_Node000024_Node000006" class="edge">
<title>Node24&#45;&gt;Node6</title>
<g id="a_edge45_Node000024_Node000006"><a xlink:title=" ">
<path fill="none" stroke="#63b8ff" d="M629.73,-61.92C659.37,-60.18 708.6,-57.31 751,-55 1055.07,-38.41 1419.63,-20.08 1556.49,-13.26"/>
<polygon fill="#63b8ff" stroke="#63b8ff" points="1556.91,-16.74 1566.72,-12.75 1556.56,-9.75 1556.91,-16.74"/>
</a>
</g>
</g>
<!-- Node25&#45;&gt;Node8 -->
<g id="edge49_Node000025_Node000008" class="edge">
<title>Node25&#45;&gt;Node8</title>
<g id="a_edge49_Node000025_Node000008"><a xlink:title=" ">
<path fill="none" stroke="#63b8ff" d="M500.13,-164.95C493.68,-152.44 484,-128.61 492,-110 508.44,-71.78 547.57,-41.36 573.14,-24.65"/>
<polygon fill="#63b8ff" stroke="#63b8ff" points="575.3,-27.43 581.88,-19.12 571.56,-21.51 575.3,-27.43"/>
</a>
</g>
</g>
<!-- Node25&#45;&gt;Node13 -->
<g id="edge50_Node000025_Node000013" class="edge">
<title>Node25&#45;&gt;Node13</title>
<g id="a_edge50_Node000025_Node000013"><a xlink:title=" ">
<path fill="none" stroke="#63b8ff" d="M501.46,-164.9C496.55,-151.43 489.7,-125.33 503,-110 518.94,-91.61 663.85,-77.23 750.13,-70.21"/>
<polygon fill="#63b8ff" stroke="#63b8ff" points="750.66,-73.68 760.34,-69.39 750.1,-66.7 750.66,-73.68"/>
</a>
</g>
</g>
<!-- Node26&#45;&gt;Node8 -->
<g id="edge53_Node000026_Node000008" class="edge">
<title>Node26&#45;&gt;Node8</title>
<g id="a_edge53_Node000026_Node000008"><a xlink:title=" ">
<path fill="none" stroke="#63b8ff" d="M1037.83,-219.96C1032.09,-198.83 1014.65,-143.43 982,-110 944.91,-72.03 926.41,-71.61 876,-55 798.6,-29.49 704.14,-18.35 647.37,-13.67"/>
<polygon fill="#63b8ff" stroke="#63b8ff" points="647.46,-10.17 637.22,-12.87 646.91,-17.14 647.46,-10.17"/>
</a>
</g>
</g>
<!-- Node26&#45;&gt;Node9 -->
<g id="edge55_Node000026_Node000009" class="edge">
<title>Node26&#45;&gt;Node9</title>
<g id="a_edge55_Node000026_Node000009"><a xlink:title=" ">
<path fill="none" stroke="#63b8ff" d="M1064.26,-219.98C1089.32,-211.19 1128.63,-197.39 1156.83,-187.49"/>
<polygon fill="#63b8ff" stroke="#63b8ff" points="1158.02,-190.78 1166.3,-184.17 1155.7,-184.18 1158.02,-190.78"/>
</a>
</g>
</g>
<!-- Node26&#45;&gt;Node14 -->
<g id="edge54_Node000026_Node000014" class="edge">
<title>Node26&#45;&gt;Node14</title>
<g id="a_edge54_Node000026_Node000014"><a xlink:title=" ">
<path fill="none" stroke="#63b8ff" d="M999.03,-219.98C954.74,-210.78 884.06,-196.09 836.15,-186.13"/>
<polygon fill="#63b8ff" stroke="#63b8ff" points="836.79,-182.69 826.29,-184.08 835.37,-189.54 836.79,-182.69"/>
</a>
</g>
</g>
<!-- Node26&#45;&gt;Node25 -->
<g id="edge56_Node000026_Node000025" class="edge">
<title>Node26&#45;&gt;Node25</title>
<g id="a_edge56_Node000026_Node000025"><a xlink:title=" ">
<path fill="none" stroke="#63b8ff" d="M974.4,-222C862.63,-210.93 638.44,-188.72 546.15,-179.58"/>
<polygon fill="#63b8ff" stroke="#63b8ff" points="546.37,-176.08 536.08,-178.58 545.68,-183.05 546.37,-176.08"/>
</a>
</g>
</g>
<!-- Node27 -->
<g id="Node000027" class="node">
<title>Node27</title>
<g id="a_Node000027"><a xlink:href="objects_8h.html" target="_top" xlink:title=" ">
<polygon fill="white" stroke="#666666" points="929.5,-184 868.5,-184 868.5,-165 929.5,-165 929.5,-184"/>
<text text-anchor="middle" x="899" y="-172" font-family="Helvetica,sans-Serif" font-size="10.00">objects.h</text>
</a>
</g>
</g>
<!-- Node26&#45;&gt;Node27 -->
<g id="edge57_Node000026_Node000027" class="edge">
<title>Node26&#45;&gt;Node27</title>
<g id="a_edge57_Node000026_Node000027"><a xlink:title=" ">
<path fill="none" stroke="#63b8ff" d="M1017.35,-219.98C994.15,-211.27 957.88,-197.63 931.6,-187.75"/>
<polygon fill="#63b8ff" stroke="#63b8ff" points="932.66,-184.41 922.07,-184.17 930.2,-190.97 932.66,-184.41"/>
</a>
</g>
</g>
<!-- Node27&#45;&gt;Node13 -->
<g id="edge60_Node000027_Node000013" class="edge">
<title>Node27&#45;&gt;Node13</title>
<g id="a_edge60_Node000027_Node000013"><a xlink:title=" ">
<path fill="none" stroke="#63b8ff" d="M897.92,-164.89C895.92,-151.89 890.64,-126.93 878,-110 868.36,-97.09 853.84,-86.56 841.06,-78.99"/>
<polygon fill="#63b8ff" stroke="#63b8ff" points="842.6,-75.84 832.16,-74.01 839.18,-81.95 842.6,-75.84"/>
</a>
</g>
</g>
<!-- Node28 -->
<g id="Node000028" class="node">
<title>Node28</title>
<g id="a_Node000028"><a xlink:href="spline_8h.html" target="_top" xlink:title=" ">
<polygon fill="white" stroke="#666666" points="869.5,-129 814.5,-129 814.5,-110 869.5,-110 869.5,-129"/>
<text text-anchor="middle" x="842" y="-117" font-family="Helvetica,sans-Serif" font-size="10.00">spline.h</text>
</a>
</g>
</g>
<!-- Node27&#45;&gt;Node28 -->
<g id="edge58_Node000027_Node000028" class="edge">
<title>Node27&#45;&gt;Node28</title>
<g id="a_edge58_Node000027_Node000028"><a xlink:title=" ">
<path fill="none" stroke="#63b8ff" d="M889.84,-164.98C881.5,-157.23 868.97,-145.58 858.82,-136.14"/>
<polygon fill="#63b8ff" stroke="#63b8ff" points="861.03,-133.42 851.32,-129.17 856.26,-138.54 861.03,-133.42"/>
</a>
</g>
</g>
<!-- Node28&#45;&gt;Node13 -->
<g id="edge59_Node000028_Node000013" class="edge">
<title>Node28&#45;&gt;Node13</title>
<g id="a_edge59_Node000028_Node000013"><a xlink:title=" ">
<path fill="none" stroke="#63b8ff" d="M837.38,-109.75C833.54,-102.49 827.98,-91.95 823.24,-82.98"/>
<polygon fill="#63b8ff" stroke="#63b8ff" points="826.3,-81.3 818.54,-74.09 820.11,-84.57 826.3,-81.3"/>
</a>
</g>
</g>
<!-- Node29&#45;&gt;Node2 -->
<g id="edge63_Node000029_Node000002" class="edge">
<title>Node29&#45;&gt;Node2</title>
<g id="a_edge63_Node000029_Node000002"><a xlink:title=" ">
<path fill="none" stroke="#63b8ff" d="M1161.6,-333.61C1240.04,-319.37 1463.6,-273.18 1628,-184 1652.38,-170.77 1676.98,-150.23 1692.57,-136.12"/>
<polygon fill="#63b8ff" stroke="#63b8ff" points="1695.27,-138.38 1700.24,-129.02 1690.52,-133.24 1695.27,-138.38"/>
</a>
</g>
</g>
<!-- Node29&#45;&gt;Node3 -->
<g id="edge64_Node000029_Node000003" class="edge">
<title>Node29&#45;&gt;Node3</title>
<g id="a_edge64_Node000029_Node000003"><a xlink:title=" ">
<path fill="none" stroke="#63b8ff" d="M1104.45,-338.66C935.7,-339.24 76,-336.97 76,-230.5 76,-230.5 76,-230.5 76,-173.5 76,-100.45 176.89,-76.79 239.8,-69.15"/>
<polygon fill="#63b8ff" stroke="#63b8ff" points="240.38,-72.6 249.93,-68.01 239.61,-65.65 240.38,-72.6"/>
</a>
</g>
</g>
<!-- Node29&#45;&gt;Node4 -->
<g id="edge65_Node000029_Node000004" class="edge">
<title>Node29&#45;&gt;Node4</title>
<g id="a_edge65_Node000029_Node000004"><a xlink:title=" ">
<path fill="none" stroke="#63b8ff" d="M1141.75,-329.75C1149.47,-322.03 1160.9,-310.6 1170.22,-301.28"/>
<polygon fill="#63b8ff" stroke="#63b8ff" points="1172.81,-303.64 1177.41,-294.09 1167.86,-298.69 1172.81,-303.64"/>
</a>
</g>
</g>
<!-- Node29&#45;&gt;Node5 -->
<g id="edge66_Node000029_Node000005" class="edge">
<title>Node29&#45;&gt;Node5</title>
<g id="a_edge66_Node000029_Node000005"><a xlink:title=" ">
<path fill="none" stroke="#63b8ff" d="M1161.85,-331.1C1182.8,-324.44 1210.6,-312.75 1229,-294 1241.12,-281.65 1248.45,-263.17 1252.56,-249.33"/>
<polygon fill="#63b8ff" stroke="#63b8ff" points="1256,-249.99 1255.18,-239.43 1249.24,-248.19 1256,-249.99"/>
</a>
</g>
</g>
<!-- Node29&#45;&gt;Node19 -->
<g id="edge67_Node000029_Node000019" class="edge">
<title>Node29&#45;&gt;Node19</title>
<g id="a_edge67_Node000029_Node000019"><a xlink:title=" ">
<path fill="none" stroke="#63b8ff" d="M1104.38,-333.58C1006.73,-316.78 685.61,-261.56 557.98,-239.61"/>
<polygon fill="#63b8ff" stroke="#63b8ff" points="558.5,-236.15 548.05,-237.9 557.31,-243.05 558.5,-236.15"/>
</a>
</g>
</g>
<!-- Node29&#45;&gt;Node26 -->
<g id="edge68_Node000029_Node000026" class="edge">
<title>Node29&#45;&gt;Node26</title>
<g id="a_edge68_Node000029_Node000026"><a xlink:title=" ">
<path fill="none" stroke="#63b8ff" d="M1117.67,-329.86C1104.54,-321.88 1085.79,-309 1073,-294 1061.42,-280.42 1052.45,-262.1 1046.8,-248.62"/>
<polygon fill="#63b8ff" stroke="#63b8ff" points="1049.94,-247.04 1043,-239.04 1043.44,-249.62 1049.94,-247.04"/>
</a>
</g>
</g>
<!-- Node30 -->
<g id="Node000030" class="node">
<title>Node30</title>
<g id="a_Node000030"><a xlink:title=" ">
<polygon fill="#e0e0e0" stroke="#999999" points="1133.5,-294 1082.5,-294 1082.5,-275 1133.5,-275 1133.5,-294"/>
<text text-anchor="middle" x="1108" y="-282" font-family="Helvetica,sans-Serif" font-size="10.00">variant</text>
</a>
</g>
</g>
<!-- Node29&#45;&gt;Node30 -->
<g id="edge69_Node000029_Node000030" class="edge">
<title>Node29&#45;&gt;Node30</title>
<g id="a_edge69_Node000029_Node000030"><a xlink:title=" ">
<path fill="none" stroke="#63b8ff" d="M1128.87,-329.75C1125.49,-322.57 1120.58,-312.18 1116.38,-303.27"/>
<polygon fill="#63b8ff" stroke="#63b8ff" points="1119.48,-301.64 1112.05,-294.09 1113.15,-304.63 1119.48,-301.64"/>
</a>
</g>
</g>
<!-- Node31&#45;&gt;Node7 -->
<g id="edge74_Node000031_Node000007" class="edge">
<title>Node31&#45;&gt;Node7</title>
<g id="a_edge74_Node000031_Node000007"><a xlink:title=" ">
<path fill="none" stroke="#63b8ff" d="M1754.51,-164.98C1710.83,-155.8 1641.19,-141.15 1593.85,-131.19"/>
<polygon fill="#63b8ff" stroke="#63b8ff" points="1594.31,-127.72 1583.81,-129.08 1592.87,-134.57 1594.31,-127.72"/>
</a>
</g>
</g>
<!-- Node31&#45;&gt;Node8 -->
<g id="edge72_Node000031_Node000008" class="edge">
<title>Node31&#45;&gt;Node8</title>
<g id="a_edge72_Node000031_Node000008"><a xlink:title=" ">
<path fill="none" stroke="#63b8ff" d="M1800.43,-164.85C1808.16,-151.33 1819.94,-125.15 1806,-110 1706.66,-2.01 1294.24,-67.02 1148,-55 963.43,-39.83 744.04,-22.25 647.19,-14.51"/>
<polygon fill="#63b8ff" stroke="#63b8ff" points="647.35,-11.01 637.1,-13.7 646.79,-17.99 647.35,-11.01"/>
</a>
</g>
</g>
<!-- Node31&#45;&gt;Node13 -->
<g id="edge73_Node000031_Node000013" class="edge">
<title>Node31&#45;&gt;Node13</title>
<g id="a_edge73_Node000031_Node000013"><a xlink:title=" ">
<path fill="none" stroke="#63b8ff" d="M1796.94,-165C1799.53,-151.19 1802.18,-124.02 1787,-110 1753.59,-79.15 1089.28,-68.73 877.96,-66.18"/>
<polygon fill="#63b8ff" stroke="#63b8ff" points="877.69,-62.68 867.65,-66.06 877.61,-69.68 877.69,-62.68"/>
</a>
</g>
</g>
</g>
</svg>
