<?xml version="1.0" encoding="UTF-8" standalone="no"?>
<!DOCTYPE svg PUBLIC "-//W3C//DTD SVG 1.1//EN"
 "http://www.w3.org/Graphics/SVG/1.1/DTD/svg11.dtd">
<!-- Generated by graphviz version 2.43.0 (0)
 -->
<!-- Title: src/engine/objects/Object.h Pages: 1 -->
<svg width="1086pt" height="313pt"
 viewBox="0.00 0.00 1086.00 313.00" xmlns="http://www.w3.org/2000/svg" xmlns:xlink="http://www.w3.org/1999/xlink">
<g id="graph0" class="graph" transform="scale(1 1) rotate(0) translate(4 309)">
<title>src/engine/objects/Object.h</title>
<!-- Node1 -->
<g id="Node000001" class="node">
<title>Node1</title>
<g id="a_Node000001"><a xlink:title=" ">
<polygon fill="#999999" stroke="#666666" points="385.5,-305 280.5,-305 280.5,-275 385.5,-275 385.5,-305"/>
<text text-anchor="start" x="288.5" y="-293" font-family="Helvetica,sans-Serif" font-size="10.00">src/engine/objects</text>
<text text-anchor="middle" x="333" y="-282" font-family="Helvetica,sans-Serif" font-size="10.00">/Object.h</text>
</a>
</g>
</g>
<!-- Node2 -->
<g id="Node000002" class="node">
<title>Node2</title>
<g id="a_Node000002"><a xlink:title=" ">
<polygon fill="#e0e0e0" stroke="#999999" points="472,-19 392,-19 392,0 472,0 472,-19"/>
<text text-anchor="middle" x="432" y="-7" font-family="Helvetica,sans-Serif" font-size="10.00">libultraship.h</text>
</a>
</g>
</g>
<!-- Node1&#45;&gt;Node2 -->
<g id="edge1_Node000001_Node000002" class="edge">
<title>Node1&#45;&gt;Node2</title>
<g id="a_edge1_Node000001_Node000002"><a xlink:title=" ">
<path fill="none" stroke="#63b8ff" d="M385.68,-286.54C555.57,-277.89 1078,-245.62 1078,-175.5 1078,-175.5 1078,-175.5 1078,-118.5 1078,-58.2 634.45,-23.68 482.42,-13.62"/>
<polygon fill="#63b8ff" stroke="#63b8ff" points="482.62,-10.12 472.41,-12.96 482.16,-17.11 482.62,-10.12"/>
</a>
</g>
</g>
<!-- Node3 -->
<g id="Node000003" class="node">
<title>Node3</title>
<g id="a_Node000003"><a xlink:href="SpawnParams_8h.html" target="_top" xlink:title=" ">
<polygon fill="white" stroke="#666666" points="398,-129 268,-129 268,-110 398,-110 398,-129"/>
<text text-anchor="middle" x="333" y="-117" font-family="Helvetica,sans-Serif" font-size="10.00">engine/SpawnParams.h</text>
</a>
</g>
</g>
<!-- Node1&#45;&gt;Node3 -->
<g id="edge2_Node000001_Node000003" class="edge">
<title>Node1&#45;&gt;Node3</title>
<g id="a_edge2_Node000001_Node000003"><a xlink:title=" ">
<path fill="none" stroke="#63b8ff" d="M333,-274.92C333,-244.65 333,-173.35 333,-139.27"/>
<polygon fill="#63b8ff" stroke="#63b8ff" points="336.5,-139.25 333,-129.25 329.5,-139.25 336.5,-139.25"/>
</a>
</g>
</g>
<!-- Node10 -->
<g id="Node000010" class="node">
<title>Node10</title>
<g id="a_Node000010"><a xlink:href="EditorMath_8h.html" target="_top" xlink:title=" ">
<polygon fill="white" stroke="#666666" points="641,-239 495,-239 495,-220 641,-220 641,-239"/>
<text text-anchor="middle" x="568" y="-227" font-family="Helvetica,sans-Serif" font-size="10.00">engine/editor/EditorMath.h</text>
</a>
</g>
</g>
<!-- Node1&#45;&gt;Node10 -->
<g id="edge11_Node000001_Node000010" class="edge">
<title>Node1&#45;&gt;Node10</title>
<g id="a_edge11_Node000001_Node000010"><a xlink:title=" ">
<path fill="none" stroke="#63b8ff" d="M385.74,-275.87C427.32,-265.52 484.63,-251.25 523.82,-241.5"/>
<polygon fill="#63b8ff" stroke="#63b8ff" points="524.76,-244.87 533.62,-239.06 523.07,-238.08 524.76,-244.87"/>
</a>
</g>
</g>
<!-- Node18 -->
<g id="Node000018" class="node">
<title>Node18</title>
<g id="a_Node000018"><a xlink:href="camera_8h.html" target="_top" xlink:title=" ">
<polygon fill="white" stroke="#666666" points="62,-129 0,-129 0,-110 62,-110 62,-129"/>
<text text-anchor="middle" x="31" y="-117" font-family="Helvetica,sans-Serif" font-size="10.00">camera.h</text>
</a>
</g>
</g>
<!-- Node1&#45;&gt;Node18 -->
<g id="edge31_Node000001_Node000018" class="edge">
<title>Node1&#45;&gt;Node18</title>
<g id="a_edge31_Node000001_Node000018"><a xlink:title=" ">
<path fill="none" stroke="#63b8ff" d="M292.35,-274.92C244.76,-257.46 164.62,-224.91 103,-184 81.88,-169.97 60.43,-150.19 46.51,-136.45"/>
<polygon fill="#63b8ff" stroke="#63b8ff" points="48.77,-133.76 39.24,-129.14 43.81,-138.7 48.77,-133.76"/>
</a>
</g>
</g>
<!-- Node19 -->
<g id="Node000019" class="node">
<title>Node19</title>
<g id="a_Node000019"><a xlink:href="objects_8h.html" target="_top" xlink:title=" ">
<polygon fill="white" stroke="#666666" points="173.5,-184 112.5,-184 112.5,-165 173.5,-165 173.5,-184"/>
<text text-anchor="middle" x="143" y="-172" font-family="Helvetica,sans-Serif" font-size="10.00">objects.h</text>
</a>
</g>
</g>
<!-- Node1&#45;&gt;Node19 -->
<g id="edge34_Node000001_Node000019" class="edge">
<title>Node1&#45;&gt;Node19</title>
<g id="a_edge34_Node000001_Node000019"><a xlink:title=" ">
<path fill="none" stroke="#63b8ff" d="M309.32,-274.85C272.79,-253.03 203.12,-211.41 166.62,-189.61"/>
<polygon fill="#63b8ff" stroke="#63b8ff" points="168.06,-186.39 157.68,-184.27 164.47,-192.4 168.06,-186.39"/>
</a>
</g>
</g>
<!-- Node4 -->
<g id="Node000004" class="node">
<title>Node4</title>
<g id="a_Node000004"><a xlink:title=" ">
<polygon fill="#e0e0e0" stroke="#999999" points="518.5,-74 471.5,-74 471.5,-55 518.5,-55 518.5,-74"/>
<text text-anchor="middle" x="495" y="-62" font-family="Helvetica,sans-Serif" font-size="10.00">vector</text>
</a>
</g>
</g>
<!-- Node3&#45;&gt;Node4 -->
<g id="edge3_Node000003_Node000004" class="edge">
<title>Node3&#45;&gt;Node4</title>
<g id="a_edge3_Node000003_Node000004"><a xlink:title=" ">
<path fill="none" stroke="#63b8ff" d="M359.03,-109.98C386.91,-100.86 431.25,-86.36 461.67,-76.4"/>
<polygon fill="#63b8ff" stroke="#63b8ff" points="462.99,-79.65 471.41,-73.22 460.81,-73 462.99,-79.65"/>
</a>
</g>
</g>
<!-- Node5 -->
<g id="Node000005" class="node">
<title>Node5</title>
<g id="a_Node000005"><a xlink:title=" ">
<polygon fill="#e0e0e0" stroke="#999999" points="453,-74 397,-74 397,-55 453,-55 453,-74"/>
<text text-anchor="middle" x="425" y="-62" font-family="Helvetica,sans-Serif" font-size="10.00">optional</text>
</a>
</g>
</g>
<!-- Node3&#45;&gt;Node5 -->
<g id="edge4_Node000003_Node000005" class="edge">
<title>Node3&#45;&gt;Node5</title>
<g id="a_edge4_Node000003_Node000005"><a xlink:title=" ">
<path fill="none" stroke="#63b8ff" d="M347.78,-109.98C362.18,-101.69 384.31,-88.94 401.19,-79.22"/>
<polygon fill="#63b8ff" stroke="#63b8ff" points="403.03,-82.19 409.95,-74.17 399.54,-76.13 403.03,-82.19"/>
</a>
</g>
</g>
<!-- Node6 -->
<g id="Node000006" class="node">
<title>Node6</title>
<g id="a_Node000006"><a xlink:title=" ">
<polygon fill="#e0e0e0" stroke="#999999" points="251,-74 207,-74 207,-55 251,-55 251,-74"/>
<text text-anchor="middle" x="229" y="-62" font-family="Helvetica,sans-Serif" font-size="10.00">string</text>
</a>
</g>
</g>
<!-- Node3&#45;&gt;Node6 -->
<g id="edge5_Node000003_Node000006" class="edge">
<title>Node3&#45;&gt;Node6</title>
<g id="a_edge5_Node000003_Node000006"><a xlink:title=" ">
<path fill="none" stroke="#63b8ff" d="M316.29,-109.98C299.79,-101.57 274.3,-88.59 255.12,-78.81"/>
<polygon fill="#63b8ff" stroke="#63b8ff" points="256.51,-75.59 246.01,-74.17 253.33,-81.83 256.51,-75.59"/>
</a>
</g>
</g>
<!-- Node7 -->
<g id="Node000007" class="node">
<title>Node7</title>
<g id="a_Node000007"><a xlink:title=" ">
<polygon fill="#e0e0e0" stroke="#999999" points="379,-74 269,-74 269,-55 379,-55 379,-74"/>
<text text-anchor="middle" x="324" y="-62" font-family="Helvetica,sans-Serif" font-size="10.00">nlohmann/json.hpp</text>
</a>
</g>
</g>
<!-- Node3&#45;&gt;Node7 -->
<g id="edge6_Node000003_Node000007" class="edge">
<title>Node3&#45;&gt;Node7</title>
<g id="a_edge6_Node000003_Node000007"><a xlink:title=" ">
<path fill="none" stroke="#63b8ff" d="M331.51,-109.75C330.33,-102.8 328.64,-92.85 327.16,-84.13"/>
<polygon fill="#63b8ff" stroke="#63b8ff" points="330.58,-83.36 325.46,-74.09 323.68,-84.53 330.58,-83.36"/>
</a>
</g>
</g>
<!-- Node8 -->
<g id="Node000008" class="node">
<title>Node8</title>
<g id="a_Node000008"><a xlink:href="CoreMath_8h.html" target="_top" xlink:title=" ">
<polygon fill="white" stroke="#666666" points="766.5,-74 693.5,-74 693.5,-55 766.5,-55 766.5,-74"/>
<text text-anchor="middle" x="730" y="-62" font-family="Helvetica,sans-Serif" font-size="10.00">CoreMath.h</text>
</a>
</g>
</g>
<!-- Node3&#45;&gt;Node8 -->
<g id="edge7_Node000003_Node000008" class="edge">
<title>Node3&#45;&gt;Node8</title>
<g id="a_edge7_Node000003_Node000008"><a xlink:title=" ">
<path fill="none" stroke="#63b8ff" d="M398.17,-111.36C466.62,-103.6 577.64,-90.31 683.48,-74"/>
<polygon fill="#63b8ff" stroke="#63b8ff" points="684.03,-77.45 693.37,-72.46 682.96,-70.54 684.03,-77.45"/>
</a>
</g>
</g>
<!-- Node9 -->
<g id="Node000009" class="node">
<title>Node9</title>
<g id="a_Node000009"><a xlink:href="common__structs_8h.html" target="_top" xlink:title=" ">
<polygon fill="white" stroke="#666666" points="188.5,-74 81.5,-74 81.5,-55 188.5,-55 188.5,-74"/>
<text text-anchor="middle" x="135" y="-62" font-family="Helvetica,sans-Serif" font-size="10.00">common_structs.h</text>
</a>
</g>
</g>
<!-- Node3&#45;&gt;Node9 -->
<g id="edge9_Node000003_Node000009" class="edge">
<title>Node3&#45;&gt;Node9</title>
<g id="a_edge9_Node000003_Node000009"><a xlink:title=" ">
<path fill="none" stroke="#63b8ff" d="M301.19,-109.98C267.51,-100.97 214.2,-86.7 177.08,-76.76"/>
<polygon fill="#63b8ff" stroke="#63b8ff" points="177.63,-73.29 167.06,-74.08 175.82,-80.05 177.63,-73.29"/>
</a>
</g>
</g>
<!-- Node8&#45;&gt;Node2 -->
<g id="edge8_Node000008_Node000002" class="edge">
<title>Node8&#45;&gt;Node2</title>
<g id="a_edge8_Node000008_Node000002"><a xlink:title=" ">
<path fill="none" stroke="#63b8ff" d="M693.35,-56.7C690.19,-56.12 687.04,-55.55 684,-55 614.06,-42.36 533.12,-28.14 482.24,-19.25"/>
<polygon fill="#63b8ff" stroke="#63b8ff" points="482.62,-15.77 472.17,-17.49 481.42,-22.66 482.62,-15.77"/>
</a>
</g>
</g>
<!-- Node9&#45;&gt;Node2 -->
<g id="edge10_Node000009_Node000002" class="edge">
<title>Node9&#45;&gt;Node2</title>
<g id="a_edge10_Node000009_Node000002"><a xlink:title=" ">
<path fill="none" stroke="#63b8ff" d="M182.72,-54.98C237.21,-45.26 325.98,-29.42 381.58,-19.5"/>
<polygon fill="#63b8ff" stroke="#63b8ff" points="382.33,-22.92 391.56,-17.72 381.1,-16.03 382.33,-22.92"/>
</a>
</g>
</g>
<!-- Node10&#45;&gt;Node4 -->
<g id="edge16_Node000010_Node000004" class="edge">
<title>Node10&#45;&gt;Node4</title>
<g id="a_edge16_Node000010_Node000004"><a xlink:title=" ">
<path fill="none" stroke="#63b8ff" d="M501.82,-219.96C480.1,-213.66 458.17,-202.78 445,-184 421.72,-150.83 456.58,-105.13 478.84,-81.34"/>
<polygon fill="#63b8ff" stroke="#63b8ff" points="481.35,-83.78 485.81,-74.16 476.33,-78.9 481.35,-83.78"/>
</a>
</g>
</g>
<!-- Node10&#45;&gt;Node8 -->
<g id="edge15_Node000010_Node000008" class="edge">
<title>Node10&#45;&gt;Node8</title>
<g id="a_edge15_Node000010_Node000008"><a xlink:title=" ">
<path fill="none" stroke="#63b8ff" d="M641.19,-226.22C758.37,-221.82 977.39,-210.16 1001,-184 1021.53,-161.25 996.59,-128.07 972,-110 941.66,-87.7 838.33,-75.01 776.94,-69.27"/>
<polygon fill="#63b8ff" stroke="#63b8ff" points="777,-65.76 766.73,-68.34 776.37,-72.73 777,-65.76"/>
</a>
</g>
</g>
<!-- Node10&#45;&gt;Node9 -->
<g id="edge30_Node000010_Node000009" class="edge">
<title>Node10&#45;&gt;Node9</title>
<g id="a_edge30_Node000010_Node000009"><a xlink:title=" ">
<path fill="none" stroke="#63b8ff" d="M514.03,-219.99C442.82,-207.28 314.93,-179.28 216,-129 191.27,-116.43 166.74,-95.75 151.27,-81.42"/>
<polygon fill="#63b8ff" stroke="#63b8ff" points="153.33,-78.55 143.66,-74.21 148.51,-83.63 153.33,-78.55"/>
</a>
</g>
</g>
<!-- Node11 -->
<g id="Node000011" class="node">
<title>Node11</title>
<g id="a_Node000011"><a xlink:title=" ">
<polygon fill="#e0e0e0" stroke="#999999" points="675,-74 537,-74 537,-55 675,-55 675,-74"/>
<text text-anchor="middle" x="606" y="-62" font-family="Helvetica,sans-Serif" font-size="10.00">libultraship/libultraship.h</text>
</a>
</g>
</g>
<!-- Node10&#45;&gt;Node11 -->
<g id="edge12_Node000010_Node000011" class="edge">
<title>Node10&#45;&gt;Node11</title>
<g id="a_edge12_Node000010_Node000011"><a xlink:title=" ">
<path fill="none" stroke="#63b8ff" d="M641.35,-225.86C754.41,-221.03 960.63,-208.9 983,-184 1007.28,-156.98 974.97,-128.31 945,-110 934.01,-103.29 782.02,-85.21 685.33,-74.27"/>
<polygon fill="#63b8ff" stroke="#63b8ff" points="685.61,-70.78 675.28,-73.14 684.82,-77.74 685.61,-70.78"/>
</a>
</g>
</g>
<!-- Node12 -->
<g id="Node000012" class="node">
<title>Node12</title>
<g id="a_Node000012"><a xlink:title=" ">
<polygon fill="#e0e0e0" stroke="#999999" points="828,-129 750,-129 750,-110 828,-110 828,-129"/>
<text text-anchor="middle" x="789" y="-117" font-family="Helvetica,sans-Serif" font-size="10.00">libultra/gbi.h</text>
</a>
</g>
</g>
<!-- Node10&#45;&gt;Node12 -->
<g id="edge13_Node000010_Node000012" class="edge">
<title>Node10&#45;&gt;Node12</title>
<g id="a_edge13_Node000010_Node000012"><a xlink:title=" ">
<path fill="none" stroke="#63b8ff" d="M568.74,-219.63C570.4,-205.81 575.64,-179.23 592,-165 603.18,-155.28 685.43,-139 740.06,-129.06"/>
<polygon fill="#63b8ff" stroke="#63b8ff" points="740.7,-132.5 749.92,-127.28 739.46,-125.61 740.7,-132.5"/>
</a>
</g>
</g>
<!-- Node13 -->
<g id="Node000013" class="node">
<title>Node13</title>
<g id="a_Node000013"><a xlink:title=" ">
<polygon fill="#e0e0e0" stroke="#999999" points="936,-129 846,-129 846,-110 936,-110 936,-129"/>
<text text-anchor="middle" x="891" y="-117" font-family="Helvetica,sans-Serif" font-size="10.00">libultra/types.h</text>
</a>
</g>
</g>
<!-- Node10&#45;&gt;Node13 -->
<g id="edge14_Node000010_Node000013" class="edge">
<title>Node10&#45;&gt;Node13</title>
<g id="a_edge14_Node000010_Node000013"><a xlink:title=" ">
<path fill="none" stroke="#63b8ff" d="M573.04,-219.83C581.7,-205.78 600.85,-178.27 625,-165 629.62,-162.46 759.48,-141.46 836.01,-129.23"/>
<polygon fill="#63b8ff" stroke="#63b8ff" points="836.66,-132.67 845.98,-127.64 835.56,-125.76 836.66,-132.67"/>
</a>
</g>
</g>
<!-- Node14 -->
<g id="Node000014" class="node">
<title>Node14</title>
<g id="a_Node000014"><a xlink:href="GameObject_8h.html" target="_top" xlink:title=" ">
<polygon fill="white" stroke="#666666" points="540,-184 454,-184 454,-165 540,-165 540,-184"/>
<text text-anchor="middle" x="497" y="-172" font-family="Helvetica,sans-Serif" font-size="10.00">GameObject.h</text>
</a>
</g>
</g>
<!-- Node10&#45;&gt;Node14 -->
<g id="edge17_Node000010_Node000014" class="edge">
<title>Node10&#45;&gt;Node14</title>
<g id="a_edge17_Node000010_Node000014"><a xlink:title=" ">
<path fill="none" stroke="#63b8ff" d="M551.48,-219.98C539.25,-212.15 523.08,-200.34 511.39,-190.86"/>
<polygon fill="#63b8ff" stroke="#63b8ff" points="513.36,-187.95 503.47,-184.17 508.85,-193.3 513.36,-187.95"/>
</a>
</g>
</g>
<!-- Node16 -->
<g id="Node000016" class="node">
<title>Node16</title>
<g id="a_Node000016"><a xlink:title=" ">
<polygon fill="#e0e0e0" stroke="#999999" points="804,-184 634,-184 634,-165 804,-165 804,-184"/>
<text text-anchor="middle" x="719" y="-172" font-family="Helvetica,sans-Serif" font-size="10.00">graphic/Fast3D/Fast3dWindow.h</text>
</a>
</g>
</g>
<!-- Node10&#45;&gt;Node16 -->
<g id="edge28_Node000010_Node000016" class="edge">
<title>Node10&#45;&gt;Node16</title>
<g id="a_edge28_Node000010_Node000016"><a xlink:title=" ">
<path fill="none" stroke="#63b8ff" d="M592.26,-219.98C617.32,-211.19 656.63,-197.39 684.83,-187.49"/>
<polygon fill="#63b8ff" stroke="#63b8ff" points="686.02,-190.78 694.3,-184.17 683.7,-184.18 686.02,-190.78"/>
</a>
</g>
</g>
<!-- Node17 -->
<g id="Node000017" class="node">
<title>Node17</title>
<g id="a_Node000017"><a xlink:title=" ">
<polygon fill="#e0e0e0" stroke="#999999" points="974,-184 822,-184 822,-165 974,-165 974,-184"/>
<text text-anchor="middle" x="898" y="-172" font-family="Helvetica,sans-Serif" font-size="10.00">graphic/Fast3D/interpreter.h</text>
</a>
</g>
</g>
<!-- Node10&#45;&gt;Node17 -->
<g id="edge29_Node000010_Node000017" class="edge">
<title>Node10&#45;&gt;Node17</title>
<g id="a_edge29_Node000010_Node000017"><a xlink:title=" ">
<path fill="none" stroke="#63b8ff" d="M621.02,-219.98C679.27,-210.63 772.77,-195.61 834.78,-185.65"/>
<polygon fill="#63b8ff" stroke="#63b8ff" points="835.52,-189.08 844.84,-184.04 834.41,-182.17 835.52,-189.08"/>
</a>
</g>
</g>
<!-- Node14&#45;&gt;Node3 -->
<g id="edge24_Node000014_Node000003" class="edge">
<title>Node14&#45;&gt;Node3</title>
<g id="a_edge24_Node000014_Node000003"><a xlink:title=" ">
<path fill="none" stroke="#63b8ff" d="M470.65,-164.98C443.24,-156.13 400.11,-142.19 369.44,-132.28"/>
<polygon fill="#63b8ff" stroke="#63b8ff" points="370.15,-128.83 359.56,-129.08 368,-135.49 370.15,-128.83"/>
</a>
</g>
</g>
<!-- Node14&#45;&gt;Node4 -->
<g id="edge23_Node000014_Node000004" class="edge">
<title>Node14&#45;&gt;Node4</title>
<g id="a_edge23_Node000014_Node000004"><a xlink:title=" ">
<path fill="none" stroke="#63b8ff" d="M493.66,-164.8C490.45,-155.94 485.82,-141.75 484,-129 481.82,-113.75 485.16,-96.54 488.72,-83.89"/>
<polygon fill="#63b8ff" stroke="#63b8ff" points="492.14,-84.69 491.77,-74.1 485.46,-82.61 492.14,-84.69"/>
</a>
</g>
</g>
<!-- Node14&#45;&gt;Node8 -->
<g id="edge21_Node000014_Node000008" class="edge">
<title>Node14&#45;&gt;Node8</title>
<g id="a_edge21_Node000014_Node000008"><a xlink:title=" ">
<path fill="none" stroke="#63b8ff" d="M540.33,-166.45C587.12,-158.23 658.05,-143.89 681,-129 698.47,-117.67 712.24,-97.92 720.68,-83.44"/>
<polygon fill="#63b8ff" stroke="#63b8ff" points="723.89,-84.88 725.65,-74.43 717.76,-81.5 723.89,-84.88"/>
</a>
</g>
</g>
<!-- Node14&#45;&gt;Node9 -->
<g id="edge27_Node000014_Node000009" class="edge">
<title>Node14&#45;&gt;Node9</title>
<g id="a_edge27_Node000014_Node000009"><a xlink:title=" ">
<path fill="none" stroke="#63b8ff" d="M453.92,-169.23C405.5,-163.57 325.04,-151.55 259,-129 239.17,-122.23 189.39,-95.54 159.28,-78.99"/>
<polygon fill="#63b8ff" stroke="#63b8ff" points="160.7,-75.78 150.26,-74.02 157.32,-81.91 160.7,-75.78"/>
</a>
</g>
</g>
<!-- Node14&#45;&gt;Node10 -->
<g id="edge22_Node000014_Node000010" class="edge">
<title>Node14&#45;&gt;Node10</title>
<g id="a_edge22_Node000014_Node000010"><a xlink:title=" ">
<path fill="none" stroke="#63b8ff" d="M513.76,-184.17C526.04,-192.06 542.21,-203.87 553.84,-213.32"/>
<polygon fill="#63b8ff" stroke="#63b8ff" points="551.81,-216.19 561.71,-219.98 556.34,-210.85 551.81,-216.19"/>
</a>
</g>
</g>
<!-- Node14&#45;&gt;Node11 -->
<g id="edge18_Node000014_Node000011" class="edge">
<title>Node14&#45;&gt;Node11</title>
<g id="a_edge18_Node000014_Node000011"><a xlink:title=" ">
<path fill="none" stroke="#63b8ff" d="M539.75,-164.99C586.92,-155.16 657.25,-139.07 665,-129 679.13,-110.63 654.91,-91.39 633.37,-78.96"/>
<polygon fill="#63b8ff" stroke="#63b8ff" points="634.87,-75.8 624.42,-74.08 631.52,-81.94 634.87,-75.8"/>
</a>
</g>
</g>
<!-- Node14&#45;&gt;Node12 -->
<g id="edge19_Node000014_Node000012" class="edge">
<title>Node14&#45;&gt;Node12</title>
<g id="a_edge19_Node000014_Node000012"><a xlink:title=" ">
<path fill="none" stroke="#63b8ff" d="M540.09,-165.68C593.4,-156 683.97,-139.56 739.92,-129.41"/>
<polygon fill="#63b8ff" stroke="#63b8ff" points="740.73,-132.82 749.95,-127.59 739.48,-125.93 740.73,-132.82"/>
</a>
</g>
</g>
<!-- Node14&#45;&gt;Node13 -->
<g id="edge20_Node000014_Node000013" class="edge">
<title>Node14&#45;&gt;Node13</title>
<g id="a_edge20_Node000014_Node000013"><a xlink:title=" ">
<path fill="none" stroke="#63b8ff" d="M540.25,-168.2C603,-160.44 723.19,-145.27 835.76,-129.15"/>
<polygon fill="#63b8ff" stroke="#63b8ff" points="836.53,-132.57 845.93,-127.68 835.54,-125.64 836.53,-132.57"/>
</a>
</g>
</g>
<!-- Node15 -->
<g id="Node000015" class="node">
<title>Node15</title>
<g id="a_Node000015"><a xlink:href="DefaultProperties_8h.html" target="_top" xlink:title=" ">
<polygon fill="white" stroke="#666666" points="655.5,-129 492.5,-129 492.5,-110 655.5,-110 655.5,-129"/>
<text text-anchor="middle" x="574" y="-117" font-family="Helvetica,sans-Serif" font-size="10.00">src/port/ui/DefaultProperties.h</text>
</a>
</g>
</g>
<!-- Node14&#45;&gt;Node15 -->
<g id="edge25_Node000014_Node000015" class="edge">
<title>Node14&#45;&gt;Node15</title>
<g id="a_edge25_Node000014_Node000015"><a xlink:title=" ">
<path fill="none" stroke="#63b8ff" d="M509.37,-164.98C521.09,-156.92 538.92,-144.65 552.89,-135.03"/>
<polygon fill="#63b8ff" stroke="#63b8ff" points="555.15,-137.72 561.4,-129.17 551.18,-131.96 555.15,-137.72"/>
</a>
</g>
</g>
<!-- Node15&#45;&gt;Node11 -->
<g id="edge26_Node000015_Node000011" class="edge">
<title>Node15&#45;&gt;Node11</title>
<g id="a_edge26_Node000015_Node000011"><a xlink:title=" ">
<path fill="none" stroke="#63b8ff" d="M579.28,-109.75C583.71,-102.42 590.16,-91.73 595.62,-82.7"/>
<polygon fill="#63b8ff" stroke="#63b8ff" points="598.64,-84.46 600.81,-74.09 592.65,-80.84 598.64,-84.46"/>
</a>
</g>
</g>
<!-- Node18&#45;&gt;Node2 -->
<g id="edge32_Node000018_Node000002" class="edge">
<title>Node18&#45;&gt;Node2</title>
<g id="a_edge32_Node000018_Node000002"><a xlink:title=" ">
<path fill="none" stroke="#63b8ff" d="M33.88,-109.76C39.05,-95.61 51.32,-67.97 72,-55 122.5,-23.33 295.17,-14.16 381.71,-11.54"/>
<polygon fill="#63b8ff" stroke="#63b8ff" points="381.93,-15.03 391.82,-11.25 381.73,-8.04 381.93,-15.03"/>
</a>
</g>
</g>
<!-- Node18&#45;&gt;Node9 -->
<g id="edge33_Node000018_Node000009" class="edge">
<title>Node18&#45;&gt;Node9</title>
<g id="a_edge33_Node000018_Node000009"><a xlink:title=" ">
<path fill="none" stroke="#63b8ff" d="M47.71,-109.98C64.21,-101.57 89.7,-88.59 108.88,-78.81"/>
<polygon fill="#63b8ff" stroke="#63b8ff" points="110.67,-81.83 117.99,-74.17 107.49,-75.59 110.67,-81.83"/>
</a>
</g>
</g>
<!-- Node19&#45;&gt;Node9 -->
<g id="edge37_Node000019_Node000009" class="edge">
<title>Node19&#45;&gt;Node9</title>
<g id="a_edge37_Node000019_Node000009"><a xlink:title=" ">
<path fill="none" stroke="#63b8ff" d="M143.77,-164.85C144.71,-152.6 145.95,-129.53 144,-110 143.15,-101.47 141.39,-92.16 139.66,-84.27"/>
<polygon fill="#63b8ff" stroke="#63b8ff" points="143.01,-83.22 137.32,-74.29 136.2,-84.82 143.01,-83.22"/>
</a>
</g>
</g>
<!-- Node20 -->
<g id="Node000020" class="node">
<title>Node20</title>
<g id="a_Node000020"><a xlink:href="spline_8h.html" target="_top" xlink:title=" ">
<polygon fill="white" stroke="#666666" points="135.5,-129 80.5,-129 80.5,-110 135.5,-110 135.5,-129"/>
<text text-anchor="middle" x="108" y="-117" font-family="Helvetica,sans-Serif" font-size="10.00">spline.h</text>
</a>
</g>
</g>
<!-- Node19&#45;&gt;Node20 -->
<g id="edge35_Node000019_Node000020" class="edge">
<title>Node19&#45;&gt;Node20</title>
<g id="a_edge35_Node000019_Node000020"><a xlink:title=" ">
<path fill="none" stroke="#63b8ff" d="M137.22,-164.75C132.38,-157.42 125.32,-146.73 119.36,-137.7"/>
<polygon fill="#63b8ff" stroke="#63b8ff" points="122.1,-135.5 113.67,-129.09 116.26,-139.36 122.1,-135.5"/>
</a>
</g>
</g>
<!-- Node20&#45;&gt;Node9 -->
<g id="edge36_Node000020_Node000009" class="edge">
<title>Node20&#45;&gt;Node9</title>
<g id="a_edge36_Node000020_Node000009"><a xlink:title=" ">
<path fill="none" stroke="#63b8ff" d="M112.46,-109.75C116.12,-102.57 121.41,-92.18 125.95,-83.27"/>
<polygon fill="#63b8ff" stroke="#63b8ff" points="129.2,-84.59 130.62,-74.09 122.97,-81.41 129.2,-84.59"/>
</a>
</g>
</g>
</g>
</svg>
