<?xml version="1.0" encoding="UTF-8" standalone="no"?>
<!DOCTYPE svg PUBLIC "-//W3C//DTD SVG 1.1//EN"
 "http://www.w3.org/Graphics/SVG/1.1/DTD/svg11.dtd">
<!-- Generated by graphviz version 2.43.0 (0)
 -->
<!-- Title: src/engine/courses/PodiumCeremony.h Pages: 1 -->
<svg width="1473pt" height="379pt"
 viewBox="0.00 0.00 1473.00 379.00" xmlns="http://www.w3.org/2000/svg" xmlns:xlink="http://www.w3.org/1999/xlink">
<g id="graph0" class="graph" transform="scale(1 1) rotate(0) translate(4 375)">
<title>src/engine/courses/PodiumCeremony.h</title>
<!-- Node1 -->
<g id="Node000001" class="node">
<title>Node1</title>
<g id="a_Node000001"><a xlink:title=" ">
<polygon fill="#999999" stroke="#666666" points="946,-371 832,-371 832,-341 946,-341 946,-371"/>
<text text-anchor="start" x="840" y="-359" font-family="Helvetica,sans-Serif" font-size="10.00">src/engine/courses</text>
<text text-anchor="middle" x="889" y="-348" font-family="Helvetica,sans-Serif" font-size="10.00">/PodiumCeremony.h</text>
</a>
</g>
</g>
<!-- Node2 -->
<g id="Node000002" class="node">
<title>Node2</title>
<g id="a_Node000002"><a xlink:title=" ">
<polygon fill="#e0e0e0" stroke="#999999" points="903,-19 823,-19 823,0 903,0 903,-19"/>
<text text-anchor="middle" x="863" y="-7" font-family="Helvetica,sans-Serif" font-size="10.00">libultraship.h</text>
</a>
</g>
</g>
<!-- Node1&#45;&gt;Node2 -->
<g id="edge1_Node000001_Node000002" class="edge">
<title>Node1&#45;&gt;Node2</title>
<g id="a_edge1_Node000001_Node000002"><a xlink:title=" ">
<path fill="none" stroke="#63b8ff" d="M900.97,-340.85C937.87,-295.43 1043.57,-150.68 978,-55 963.39,-33.68 936.97,-22.57 913.14,-16.78"/>
<polygon fill="#63b8ff" stroke="#63b8ff" points="913.64,-13.31 903.13,-14.61 912.16,-20.15 913.64,-13.31"/>
</a>
</g>
</g>
<!-- Node3 -->
<g id="Node000003" class="node">
<title>Node3</title>
<g id="a_Node000003"><a xlink:href="CoreMath_8h.html" target="_top" xlink:title=" ">
<polygon fill="white" stroke="#666666" points="1077.5,-250 1004.5,-250 1004.5,-231 1077.5,-231 1077.5,-250"/>
<text text-anchor="middle" x="1041" y="-238" font-family="Helvetica,sans-Serif" font-size="10.00">CoreMath.h</text>
</a>
</g>
</g>
<!-- Node1&#45;&gt;Node3 -->
<g id="edge2_Node000001_Node000003" class="edge">
<title>Node1&#45;&gt;Node3</title>
<g id="a_edge2_Node000001_Node000003"><a xlink:title=" ">
<path fill="none" stroke="#63b8ff" d="M926.78,-340.95C946.8,-332.4 971.09,-320.2 990,-305 1006.3,-291.9 1020.79,-272.75 1030.11,-258.91"/>
<polygon fill="#63b8ff" stroke="#63b8ff" points="1033.19,-260.6 1035.71,-250.31 1027.32,-256.78 1033.19,-260.6"/>
</a>
</g>
</g>
<!-- Node4 -->
<g id="Node000004" class="node">
<title>Node4</title>
<g id="a_Node000004"><a xlink:href="Course_8h.html" target="_top" xlink:title=" ">
<polygon fill="white" stroke="#666666" points="566.5,-305 507.5,-305 507.5,-286 566.5,-286 566.5,-305"/>
<text text-anchor="middle" x="537" y="-293" font-family="Helvetica,sans-Serif" font-size="10.00">Course.h</text>
</a>
</g>
</g>
<!-- Node1&#45;&gt;Node4 -->
<g id="edge4_Node000001_Node000004" class="edge">
<title>Node1&#45;&gt;Node4</title>
<g id="a_edge4_Node000001_Node000004"><a xlink:title=" ">
<path fill="none" stroke="#63b8ff" d="M831.66,-345.47C760.02,-333.57 639.29,-313.5 576.94,-303.14"/>
<polygon fill="#63b8ff" stroke="#63b8ff" points="577.16,-299.63 566.73,-301.44 576.02,-306.53 577.16,-299.63"/>
</a>
</g>
</g>
<!-- Node6 -->
<g id="Node000006" class="node">
<title>Node6</title>
<g id="a_Node000006"><a xlink:href="camera_8h.html" target="_top" xlink:title=" ">
<polygon fill="white" stroke="#666666" points="62,-195 0,-195 0,-176 62,-176 62,-195"/>
<text text-anchor="middle" x="31" y="-183" font-family="Helvetica,sans-Serif" font-size="10.00">camera.h</text>
</a>
</g>
</g>
<!-- Node1&#45;&gt;Node6 -->
<g id="edge62_Node000001_Node000006" class="edge">
<title>Node1&#45;&gt;Node6</title>
<g id="a_edge62_Node000001_Node000006"><a xlink:title=" ">
<path fill="none" stroke="#63b8ff" d="M831.75,-353.68C668.38,-348.99 203.61,-328.86 77,-250 59.54,-239.12 46.66,-218.96 39.04,-204.26"/>
<polygon fill="#63b8ff" stroke="#63b8ff" points="42.13,-202.61 34.62,-195.14 35.83,-205.67 42.13,-202.61"/>
</a>
</g>
</g>
<!-- Node8 -->
<g id="Node000008" class="node">
<title>Node8</title>
<g id="a_Node000008"><a xlink:href="course__offsets_8h.html" target="_top" xlink:title=" ">
<polygon fill="white" stroke="#666666" points="781,-195 685,-195 685,-176 781,-176 781,-195"/>
<text text-anchor="middle" x="733" y="-183" font-family="Helvetica,sans-Serif" font-size="10.00">course_offsets.h</text>
</a>
</g>
</g>
<!-- Node1&#45;&gt;Node8 -->
<g id="edge61_Node000001_Node000008" class="edge">
<title>Node1&#45;&gt;Node8</title>
<g id="a_edge61_Node000001_Node000008"><a xlink:title=" ">
<path fill="none" stroke="#63b8ff" d="M891.21,-340.81C894.28,-315.56 896.8,-262.53 870,-231 850.53,-208.09 819.13,-196.88 791.3,-191.44"/>
<polygon fill="#63b8ff" stroke="#63b8ff" points="791.69,-187.96 781.23,-189.68 790.48,-194.85 791.69,-187.96"/>
</a>
</g>
</g>
<!-- Node14 -->
<g id="Node000014" class="node">
<title>Node14</title>
<g id="a_Node000014"><a xlink:href="src_2data_2some__data_8h.html" target="_top" xlink:title=" ">
<polygon fill="white" stroke="#666666" points="861,-250 757,-250 757,-231 861,-231 861,-250"/>
<text text-anchor="middle" x="809" y="-238" font-family="Helvetica,sans-Serif" font-size="10.00">data/some_data.h</text>
</a>
</g>
</g>
<!-- Node1&#45;&gt;Node14 -->
<g id="edge63_Node000001_Node000014" class="edge">
<title>Node1&#45;&gt;Node14</title>
<g id="a_edge63_Node000001_Node000014"><a xlink:title=" ">
<path fill="none" stroke="#63b8ff" d="M878.87,-340.63C864.09,-319.65 836.66,-280.75 820.93,-258.42"/>
<polygon fill="#63b8ff" stroke="#63b8ff" points="823.77,-256.39 815.15,-250.23 818.05,-260.42 823.77,-256.39"/>
</a>
</g>
</g>
<!-- Node16 -->
<g id="Node000016" class="node">
<title>Node16</title>
<g id="a_Node000016"><a xlink:href="objects_8h.html" target="_top" xlink:title=" ">
<polygon fill="white" stroke="#666666" points="517.5,-195 456.5,-195 456.5,-176 517.5,-176 517.5,-195"/>
<text text-anchor="middle" x="487" y="-183" font-family="Helvetica,sans-Serif" font-size="10.00">objects.h</text>
</a>
</g>
</g>
<!-- Node1&#45;&gt;Node16 -->
<g id="edge64_Node000001_Node000016" class="edge">
<title>Node1&#45;&gt;Node16</title>
<g id="a_edge64_Node000001_Node000016"><a xlink:title=" ">
<path fill="none" stroke="#63b8ff" d="M866.03,-340.97C824.31,-315.97 732.72,-263.33 650,-231 627.84,-222.34 568.29,-206.78 527.65,-196.55"/>
<polygon fill="#63b8ff" stroke="#63b8ff" points="528.31,-193.11 517.76,-194.07 526.61,-199.89 528.31,-193.11"/>
</a>
</g>
</g>
<!-- Node21 -->
<g id="Node000021" class="node">
<title>Node21</title>
<g id="a_Node000021"><a xlink:href="path__spawn__metadata_8h.html" target="_top" xlink:title=" ">
<polygon fill="white" stroke="#666666" points="272.5,-250 135.5,-250 135.5,-231 272.5,-231 272.5,-250"/>
<text text-anchor="middle" x="204" y="-238" font-family="Helvetica,sans-Serif" font-size="10.00">path_spawn_metadata.h</text>
</a>
</g>
</g>
<!-- Node1&#45;&gt;Node21 -->
<g id="edge65_Node000001_Node000021" class="edge">
<title>Node1&#45;&gt;Node21</title>
<g id="a_edge65_Node000001_Node000021"><a xlink:title=" ">
<path fill="none" stroke="#63b8ff" d="M831.79,-349.23C755.41,-341.18 616.04,-325.26 498,-305 409.15,-289.75 306.44,-266.19 248.96,-252.47"/>
<polygon fill="#63b8ff" stroke="#63b8ff" points="249.65,-249.03 239.11,-250.1 248.02,-255.84 249.65,-249.03"/>
</a>
</g>
</g>
<!-- Node25 -->
<g id="Node000025" class="node">
<title>Node25</title>
<g id="a_Node000025"><a xlink:href="royal__raceway__vertices_8h.html" target="_top" xlink:title=" ">
<polygon fill="white" stroke="#666666" points="1185,-140 1063,-140 1063,-110 1185,-110 1185,-140"/>
<text text-anchor="start" x="1071" y="-128" font-family="Helvetica,sans-Serif" font-size="10.00">assets/royal_raceway</text>
<text text-anchor="middle" x="1124" y="-117" font-family="Helvetica,sans-Serif" font-size="10.00">_vertices.h</text>
</a>
</g>
</g>
<!-- Node1&#45;&gt;Node25 -->
<g id="edge49_Node000001_Node000025" class="edge">
<title>Node1&#45;&gt;Node25</title>
<g id="a_edge49_Node000001_Node000025"><a xlink:title=" ">
<path fill="none" stroke="#63b8ff" d="M944.14,-340.93C990.05,-326.2 1053.19,-298.29 1087,-250 1108.29,-219.59 1117.51,-176.78 1121.37,-150.24"/>
<polygon fill="#63b8ff" stroke="#63b8ff" points="1124.85,-150.65 1122.68,-140.28 1117.91,-149.73 1124.85,-150.65"/>
</a>
</g>
</g>
<!-- Node26 -->
<g id="Node000026" class="node">
<title>Node26</title>
<g id="a_Node000026"><a xlink:href="royal__raceway__displaylists_8h.html" target="_top" xlink:title=" ">
<polygon fill="white" stroke="#666666" points="1325,-140 1203,-140 1203,-110 1325,-110 1325,-140"/>
<text text-anchor="start" x="1211" y="-128" font-family="Helvetica,sans-Serif" font-size="10.00">assets/royal_raceway</text>
<text text-anchor="middle" x="1264" y="-117" font-family="Helvetica,sans-Serif" font-size="10.00">_displaylists.h</text>
</a>
</g>
</g>
<!-- Node1&#45;&gt;Node26 -->
<g id="edge53_Node000001_Node000026" class="edge">
<title>Node1&#45;&gt;Node26</title>
<g id="a_edge53_Node000001_Node000026"><a xlink:title=" ">
<path fill="none" stroke="#63b8ff" d="M946.28,-343.78C979.13,-335.87 1020.38,-323.37 1054,-305 1132.95,-261.86 1209.08,-185.69 1244.04,-148.16"/>
<polygon fill="#63b8ff" stroke="#63b8ff" points="1247.04,-150.07 1251.25,-140.34 1241.89,-145.32 1247.04,-150.07"/>
</a>
</g>
</g>
<!-- Node27 -->
<g id="Node000027" class="node">
<title>Node27</title>
<g id="a_Node000027"><a xlink:href="royal__raceway__data_8h.html" target="_top" xlink:title=" ">
<polygon fill="white" stroke="#666666" points="1465,-140 1343,-140 1343,-110 1465,-110 1465,-140"/>
<text text-anchor="start" x="1351" y="-128" font-family="Helvetica,sans-Serif" font-size="10.00">assets/royal_raceway</text>
<text text-anchor="middle" x="1404" y="-117" font-family="Helvetica,sans-Serif" font-size="10.00">_data.h</text>
</a>
</g>
</g>
<!-- Node1&#45;&gt;Node27 -->
<g id="edge57_Node000001_Node000027" class="edge">
<title>Node1&#45;&gt;Node27</title>
<g id="a_edge57_Node000001_Node000027"><a xlink:title=" ">
<path fill="none" stroke="#63b8ff" d="M946.37,-344.14C985.41,-335.78 1037.81,-322.67 1082,-305 1195.64,-259.56 1319.29,-182.04 1374.5,-145.79"/>
<polygon fill="#63b8ff" stroke="#63b8ff" points="1376.66,-148.56 1383.08,-140.13 1372.8,-142.72 1376.66,-148.56"/>
</a>
</g>
</g>
<!-- Node3&#45;&gt;Node2 -->
<g id="edge3_Node000003_Node000002" class="edge">
<title>Node3&#45;&gt;Node2</title>
<g id="a_edge3_Node000003_Node000002"><a xlink:title=" ">
<path fill="none" stroke="#63b8ff" d="M1042.48,-230.86C1046.9,-201.94 1057,-107.46 1011,-55 986.74,-27.33 945.99,-16.54 913.39,-12.48"/>
<polygon fill="#63b8ff" stroke="#63b8ff" points="913.43,-8.96 903.12,-11.38 912.69,-15.92 913.43,-8.96"/>
</a>
</g>
</g>
<!-- Node4&#45;&gt;Node3 -->
<g id="edge6_Node000004_Node000003" class="edge">
<title>Node4&#45;&gt;Node3</title>
<g id="a_edge6_Node000004_Node000003"><a xlink:title=" ">
<path fill="none" stroke="#63b8ff" d="M566.65,-291.38C650.9,-282.52 892.23,-257.14 994.41,-246.4"/>
<polygon fill="#63b8ff" stroke="#63b8ff" points="994.85,-249.87 1004.43,-245.35 994.12,-242.91 994.85,-249.87"/>
</a>
</g>
</g>
<!-- Node5 -->
<g id="Node000005" class="node">
<title>Node5</title>
<g id="a_Node000005"><a xlink:title=" ">
<polygon fill="#e0e0e0" stroke="#999999" points="547,-250 409,-250 409,-231 547,-231 547,-250"/>
<text text-anchor="middle" x="478" y="-238" font-family="Helvetica,sans-Serif" font-size="10.00">libultraship/libultraship.h</text>
</a>
</g>
</g>
<!-- Node4&#45;&gt;Node5 -->
<g id="edge5_Node000004_Node000005" class="edge">
<title>Node4&#45;&gt;Node5</title>
<g id="a_edge5_Node000004_Node000005"><a xlink:title=" ">
<path fill="none" stroke="#63b8ff" d="M527.52,-285.98C518.8,-278.15 505.66,-266.34 495.1,-256.86"/>
<polygon fill="#63b8ff" stroke="#63b8ff" points="497.43,-254.25 487.65,-250.17 492.75,-259.46 497.43,-254.25"/>
</a>
</g>
</g>
<!-- Node4&#45;&gt;Node6 -->
<g id="edge7_Node000004_Node000006" class="edge">
<title>Node4&#45;&gt;Node6</title>
<g id="a_edge7_Node000004_Node000006"><a xlink:title=" ">
<path fill="none" stroke="#63b8ff" d="M507.24,-293.49C423.1,-290.3 184.95,-278.88 113,-250 86.53,-239.38 61.43,-217.59 46.13,-202.52"/>
<polygon fill="#63b8ff" stroke="#63b8ff" points="48.58,-200.02 39.07,-195.35 43.59,-204.93 48.58,-200.02"/>
</a>
</g>
</g>
<!-- Node7 -->
<g id="Node000007" class="node">
<title>Node7</title>
<g id="a_Node000007"><a xlink:href="common__structs_8h.html" target="_top" xlink:title=" ">
<polygon fill="white" stroke="#666666" points="304.5,-74 197.5,-74 197.5,-55 304.5,-55 304.5,-74"/>
<text text-anchor="middle" x="251" y="-62" font-family="Helvetica,sans-Serif" font-size="10.00">common_structs.h</text>
</a>
</g>
</g>
<!-- Node4&#45;&gt;Node7 -->
<g id="edge48_Node000004_Node000007" class="edge">
<title>Node4&#45;&gt;Node7</title>
<g id="a_edge48_Node000004_Node000007"><a xlink:title=" ">
<path fill="none" stroke="#63b8ff" d="M507.24,-291.17C455.25,-284.9 350.47,-270.15 320,-250 270.43,-217.22 261.69,-196.73 244,-140 238.27,-121.64 241.51,-99.59 245.26,-84.27"/>
<polygon fill="#63b8ff" stroke="#63b8ff" points="248.69,-85.02 247.96,-74.45 241.94,-83.16 248.69,-85.02"/>
</a>
</g>
</g>
<!-- Node4&#45;&gt;Node8 -->
<g id="edge11_Node000004_Node000008" class="edge">
<title>Node4&#45;&gt;Node8</title>
<g id="a_edge11_Node000004_Node000008"><a xlink:title=" ">
<path fill="none" stroke="#63b8ff" d="M566.74,-288.24C594.17,-281.59 635.34,-269.32 667,-250 687.68,-237.38 707.13,-217.29 719.48,-203.09"/>
<polygon fill="#63b8ff" stroke="#63b8ff" points="722.42,-205.02 726.2,-195.13 717.07,-200.51 722.42,-205.02"/>
</a>
</g>
</g>
<!-- Node4&#45;&gt;Node14 -->
<g id="edge20_Node000004_Node000014" class="edge">
<title>Node4&#45;&gt;Node14</title>
<g id="a_edge20_Node000004_Node000014"><a xlink:title=" ">
<path fill="none" stroke="#63b8ff" d="M566.63,-288.73C611.83,-279.92 698.71,-262.99 755.24,-251.98"/>
<polygon fill="#63b8ff" stroke="#63b8ff" points="755.93,-255.41 765.08,-250.06 754.59,-248.54 755.93,-255.41"/>
</a>
</g>
</g>
<!-- Node17 -->
<g id="Node000017" class="node">
<title>Node17</title>
<g id="a_Node000017"><a xlink:href="defines_8h.html" target="_top" xlink:title=" ">
<polygon fill="white" stroke="#666666" points="390.5,-250 329.5,-250 329.5,-231 390.5,-231 390.5,-250"/>
<text text-anchor="middle" x="360" y="-238" font-family="Helvetica,sans-Serif" font-size="10.00">defines.h</text>
</a>
</g>
</g>
<!-- Node4&#45;&gt;Node17 -->
<g id="edge28_Node000004_Node000017" class="edge">
<title>Node4&#45;&gt;Node17</title>
<g id="a_edge28_Node000004_Node000017"><a xlink:title=" ">
<path fill="none" stroke="#63b8ff" d="M508.56,-285.98C478.72,-277.05 431.62,-262.94 398.47,-253.02"/>
<polygon fill="#63b8ff" stroke="#63b8ff" points="399.24,-249.6 388.66,-250.08 397.24,-256.3 399.24,-249.6"/>
</a>
</g>
</g>
<!-- Node18 -->
<g id="Node000018" class="node">
<title>Node18</title>
<g id="a_Node000018"><a xlink:href="bomb__kart_8h.html" target="_top" xlink:title=" ">
<polygon fill="white" stroke="#666666" points="375.5,-195 298.5,-195 298.5,-176 375.5,-176 375.5,-195"/>
<text text-anchor="middle" x="337" y="-183" font-family="Helvetica,sans-Serif" font-size="10.00">bomb_kart.h</text>
</a>
</g>
</g>
<!-- Node4&#45;&gt;Node18 -->
<g id="edge29_Node000004_Node000018" class="edge">
<title>Node4&#45;&gt;Node18</title>
<g id="a_edge29_Node000004_Node000018"><a xlink:title=" ">
<path fill="none" stroke="#63b8ff" d="M566.58,-287.55C602.91,-277.68 657.05,-257.76 634,-231 618.04,-212.47 466.01,-197.21 385.89,-190.37"/>
<polygon fill="#63b8ff" stroke="#63b8ff" points="385.81,-186.85 375.55,-189.5 385.22,-193.82 385.81,-186.85"/>
</a>
</g>
</g>
<!-- Node4&#45;&gt;Node21 -->
<g id="edge36_Node000004_Node000021" class="edge">
<title>Node4&#45;&gt;Node21</title>
<g id="a_edge36_Node000004_Node000021"><a xlink:title=" ">
<path fill="none" stroke="#63b8ff" d="M507.45,-289.8C453.97,-281.28 340.01,-263.15 267.97,-251.68"/>
<polygon fill="#63b8ff" stroke="#63b8ff" points="268.09,-248.16 257.66,-250.04 266.99,-255.07 268.09,-248.16"/>
</a>
</g>
</g>
<!-- Node22 -->
<g id="Node000022" class="node">
<title>Node22</title>
<g id="a_Node000022"><a xlink:href="waypoints_8h.html" target="_top" xlink:title=" ">
<polygon fill="white" stroke="#666666" points="156,-195 80,-195 80,-176 156,-176 156,-195"/>
<text text-anchor="middle" x="118" y="-183" font-family="Helvetica,sans-Serif" font-size="10.00">waypoints.h</text>
</a>
</g>
</g>
<!-- Node4&#45;&gt;Node22 -->
<g id="edge46_Node000004_Node000022" class="edge">
<title>Node4&#45;&gt;Node22</title>
<g id="a_edge46_Node000004_Node000022"><a xlink:title=" ">
<path fill="none" stroke="#63b8ff" d="M507.47,-293.38C417.81,-289.71 153.16,-276.69 126,-250 114.49,-238.69 113.47,-219.79 114.73,-205.54"/>
<polygon fill="#63b8ff" stroke="#63b8ff" points="118.24,-205.72 116.08,-195.34 111.3,-204.8 118.24,-205.72"/>
</a>
</g>
</g>
<!-- Node24 -->
<g id="Node000024" class="node">
<title>Node24</title>
<g id="a_Node000024"><a xlink:href="sounds_8h.html" target="_top" xlink:title=" ">
<polygon fill="white" stroke="#666666" points="625,-250 565,-250 565,-231 625,-231 625,-250"/>
<text text-anchor="middle" x="595" y="-238" font-family="Helvetica,sans-Serif" font-size="10.00">sounds.h</text>
</a>
</g>
</g>
<!-- Node4&#45;&gt;Node24 -->
<g id="edge47_Node000004_Node000024" class="edge">
<title>Node4&#45;&gt;Node24</title>
<g id="a_edge47_Node000004_Node000024"><a xlink:title=" ">
<path fill="none" stroke="#63b8ff" d="M546.32,-285.98C554.81,-278.23 567.56,-266.58 577.88,-257.14"/>
<polygon fill="#63b8ff" stroke="#63b8ff" points="580.49,-259.5 585.51,-250.17 575.77,-254.33 580.49,-259.5"/>
</a>
</g>
</g>
<!-- Node6&#45;&gt;Node2 -->
<g id="edge8_Node000006_Node000002" class="edge">
<title>Node6&#45;&gt;Node2</title>
<g id="a_edge8_Node000006_Node000002"><a xlink:title=" ">
<path fill="none" stroke="#63b8ff" d="M34.41,-175.59C40.61,-160.38 55.06,-129.2 76,-110 116.88,-72.53 134.42,-69.32 188,-55 305.9,-23.49 677.27,-13.81 812.83,-11.29"/>
<polygon fill="#63b8ff" stroke="#63b8ff" points="813,-14.78 822.94,-11.1 812.88,-7.79 813,-14.78"/>
</a>
</g>
</g>
<!-- Node6&#45;&gt;Node7 -->
<g id="edge9_Node000006_Node000007" class="edge">
<title>Node6&#45;&gt;Node7</title>
<g id="a_edge9_Node000006_Node000007"><a xlink:title=" ">
<path fill="none" stroke="#63b8ff" d="M39.27,-175.97C54.41,-160.79 88.13,-128.91 122,-110 148.3,-95.32 180.29,-84.25 205.83,-76.82"/>
<polygon fill="#63b8ff" stroke="#63b8ff" points="206.96,-80.14 215.64,-74.05 205.06,-73.4 206.96,-80.14"/>
</a>
</g>
</g>
<!-- Node7&#45;&gt;Node2 -->
<g id="edge10_Node000007_Node000002" class="edge">
<title>Node7&#45;&gt;Node2</title>
<g id="a_edge10_Node000007_Node000002"><a xlink:title=" ">
<path fill="none" stroke="#63b8ff" d="M304.51,-58.87C421.43,-48.74 698.37,-24.76 812.5,-14.87"/>
<polygon fill="#63b8ff" stroke="#63b8ff" points="813.04,-18.34 822.7,-13.99 812.44,-11.37 813.04,-18.34"/>
</a>
</g>
</g>
<!-- Node8&#45;&gt;Node2 -->
<g id="edge12_Node000008_Node000002" class="edge">
<title>Node8&#45;&gt;Node2</title>
<g id="a_edge12_Node000008_Node000002"><a xlink:title=" ">
<path fill="none" stroke="#63b8ff" d="M734.37,-175.63C736.94,-161.01 743.48,-131.36 757,-110 779.62,-74.26 818.05,-42.67 841.9,-25.12"/>
<polygon fill="#63b8ff" stroke="#63b8ff" points="844.19,-27.78 850.26,-19.1 840.1,-22.1 844.19,-27.78"/>
</a>
</g>
</g>
<!-- Node9 -->
<g id="Node000009" class="node">
<title>Node9</title>
<g id="a_Node000009"><a xlink:title=" ">
<polygon fill="#e0e0e0" stroke="#999999" points="548,-19 458,-19 458,0 548,0 548,-19"/>
<text text-anchor="middle" x="503" y="-7" font-family="Helvetica,sans-Serif" font-size="10.00">libultra/types.h</text>
</a>
</g>
</g>
<!-- Node8&#45;&gt;Node9 -->
<g id="edge13_Node000008_Node000009" class="edge">
<title>Node8&#45;&gt;Node9</title>
<g id="a_edge13_Node000008_Node000009"><a xlink:title=" ">
<path fill="none" stroke="#63b8ff" d="M684.79,-182.56C622.1,-178.92 517.77,-168.61 494,-140 467.69,-108.34 483.51,-55.93 494.73,-28.5"/>
<polygon fill="#63b8ff" stroke="#63b8ff" points="497.95,-29.87 498.71,-19.3 491.52,-27.09 497.95,-29.87"/>
</a>
</g>
</g>
<!-- Node10 -->
<g id="Node000010" class="node">
<title>Node10</title>
<g id="a_Node000010"><a xlink:title=" ">
<polygon fill="#e0e0e0" stroke="#999999" points="969,-74 891,-74 891,-55 969,-55 969,-74"/>
<text text-anchor="middle" x="930" y="-62" font-family="Helvetica,sans-Serif" font-size="10.00">libultra/gbi.h</text>
</a>
</g>
</g>
<!-- Node8&#45;&gt;Node10 -->
<g id="edge14_Node000008_Node000010" class="edge">
<title>Node8&#45;&gt;Node10</title>
<g id="a_edge14_Node000008_Node000010"><a xlink:title=" ">
<path fill="none" stroke="#63b8ff" d="M737.49,-175.75C745.88,-160.23 765.47,-127.83 791,-110 817.74,-91.33 852.72,-80.19 880.9,-73.72"/>
<polygon fill="#63b8ff" stroke="#63b8ff" points="881.92,-77.08 890.95,-71.54 880.43,-70.24 881.92,-77.08"/>
</a>
</g>
</g>
<!-- Node11 -->
<g id="Node000011" class="node">
<title>Node11</title>
<g id="a_Node000011"><a xlink:href="other__textures_8h.html" target="_top" xlink:title=" ">
<polygon fill="white" stroke="#666666" points="930.5,-134.5 799.5,-134.5 799.5,-115.5 930.5,-115.5 930.5,-134.5"/>
<text text-anchor="middle" x="865" y="-122.5" font-family="Helvetica,sans-Serif" font-size="10.00">assets/other_textures.h</text>
</a>
</g>
</g>
<!-- Node8&#45;&gt;Node11 -->
<g id="edge15_Node000008_Node000011" class="edge">
<title>Node8&#45;&gt;Node11</title>
<g id="a_edge15_Node000008_Node000011"><a xlink:title=" ">
<path fill="none" stroke="#63b8ff" d="M752.19,-175.99C774.39,-166.16 811.12,-149.88 836.62,-138.58"/>
<polygon fill="#63b8ff" stroke="#63b8ff" points="838.06,-141.77 845.78,-134.52 835.22,-135.37 838.06,-141.77"/>
</a>
</g>
</g>
<!-- Node13 -->
<g id="Node000013" class="node">
<title>Node13</title>
<g id="a_Node000013"><a xlink:href="animation_8h.html" target="_top" xlink:title=" ">
<polygon fill="white" stroke="#666666" points="446.5,-134.5 371.5,-134.5 371.5,-115.5 446.5,-115.5 446.5,-134.5"/>
<text text-anchor="middle" x="409" y="-122.5" font-family="Helvetica,sans-Serif" font-size="10.00">animation.h</text>
</a>
</g>
</g>
<!-- Node8&#45;&gt;Node13 -->
<g id="edge18_Node000008_Node000013" class="edge">
<title>Node8&#45;&gt;Node13</title>
<g id="a_edge18_Node000008_Node000013"><a xlink:title=" ">
<path fill="none" stroke="#63b8ff" d="M684.57,-178.08C629.96,-170.49 538.64,-156.76 461,-140 456.89,-139.11 452.61,-138.1 448.36,-137.05"/>
<polygon fill="#63b8ff" stroke="#63b8ff" points="449.13,-133.63 438.57,-134.52 447.38,-140.41 449.13,-133.63"/>
</a>
</g>
</g>
<!-- Node11&#45;&gt;Node2 -->
<g id="edge16_Node000011_Node000002" class="edge">
<title>Node11&#45;&gt;Node2</title>
<g id="a_edge16_Node000011_Node000002"><a xlink:title=" ">
<path fill="none" stroke="#63b8ff" d="M864.85,-115.47C864.53,-97.23 863.77,-54.07 863.33,-29.14"/>
<polygon fill="#63b8ff" stroke="#63b8ff" points="866.83,-29.07 863.15,-19.13 859.83,-29.19 866.83,-29.07"/>
</a>
</g>
</g>
<!-- Node12 -->
<g id="Node000012" class="node">
<title>Node12</title>
<g id="a_Node000012"><a xlink:href="align__asset__macro_8h.html" target="_top" xlink:title=" ">
<polygon fill="white" stroke="#666666" points="1180.5,-74 1063.5,-74 1063.5,-55 1180.5,-55 1180.5,-74"/>
<text text-anchor="middle" x="1122" y="-62" font-family="Helvetica,sans-Serif" font-size="10.00">align_asset_macro.h</text>
</a>
</g>
</g>
<!-- Node11&#45;&gt;Node12 -->
<g id="edge17_Node000011_Node000012" class="edge">
<title>Node11&#45;&gt;Node12</title>
<g id="a_edge17_Node000011_Node000012"><a xlink:title=" ">
<path fill="none" stroke="#63b8ff" d="M902.37,-115.49C947.95,-105.12 1025.06,-87.57 1074.73,-76.26"/>
<polygon fill="#63b8ff" stroke="#63b8ff" points="1075.61,-79.65 1084.58,-74.02 1074.06,-72.82 1075.61,-79.65"/>
</a>
</g>
</g>
<!-- Node13&#45;&gt;Node7 -->
<g id="edge19_Node000013_Node000007" class="edge">
<title>Node13&#45;&gt;Node7</title>
<g id="a_edge19_Node000013_Node000007"><a xlink:title=" ">
<path fill="none" stroke="#63b8ff" d="M386.03,-115.49C359.11,-105.53 314.33,-88.95 283.77,-77.63"/>
<polygon fill="#63b8ff" stroke="#63b8ff" points="284.6,-74.21 274,-74.02 282.16,-80.77 284.6,-74.21"/>
</a>
</g>
</g>
<!-- Node14&#45;&gt;Node10 -->
<g id="edge21_Node000014_Node000010" class="edge">
<title>Node14&#45;&gt;Node10</title>
<g id="a_edge21_Node000014_Node000010"><a xlink:title=" ">
<path fill="none" stroke="#63b8ff" d="M829.97,-230.92C860.74,-217.04 916.96,-186.43 940,-140 948.77,-122.33 943.7,-99.56 938.07,-83.87"/>
<polygon fill="#63b8ff" stroke="#63b8ff" points="941.21,-82.28 934.25,-74.29 934.71,-84.87 941.21,-82.28"/>
</a>
</g>
</g>
<!-- Node14&#45;&gt;Node11 -->
<g id="edge24_Node000014_Node000011" class="edge">
<title>Node14&#45;&gt;Node11</title>
<g id="a_edge24_Node000014_Node000011"><a xlink:title=" ">
<path fill="none" stroke="#63b8ff" d="M813.21,-230.97C822.33,-212.48 844.08,-168.4 856.29,-143.64"/>
<polygon fill="#63b8ff" stroke="#63b8ff" points="859.46,-145.15 860.74,-134.63 853.18,-142.05 859.46,-145.15"/>
</a>
</g>
</g>
<!-- Node15 -->
<g id="Node000015" class="node">
<title>Node15</title>
<g id="a_Node000015"><a xlink:href="spline_8h.html" target="_top" xlink:title=" ">
<polygon fill="white" stroke="#666666" points="353.5,-134.5 298.5,-134.5 298.5,-115.5 353.5,-115.5 353.5,-134.5"/>
<text text-anchor="middle" x="326" y="-122.5" font-family="Helvetica,sans-Serif" font-size="10.00">spline.h</text>
</a>
</g>
</g>
<!-- Node14&#45;&gt;Node15 -->
<g id="edge22_Node000014_Node000015" class="edge">
<title>Node14&#45;&gt;Node15</title>
<g id="a_edge22_Node000014_Node000015"><a xlink:title=" ">
<path fill="none" stroke="#63b8ff" d="M771.02,-230.92C716.72,-218.66 613.75,-195.47 526,-176 453.15,-159.83 433.43,-161.59 362,-140 360.07,-139.42 358.11,-138.78 356.13,-138.11"/>
<polygon fill="#63b8ff" stroke="#63b8ff" points="356.96,-134.69 346.37,-134.55 354.57,-141.26 356.96,-134.69"/>
</a>
</g>
</g>
<!-- Node14&#45;&gt;Node16 -->
<g id="edge25_Node000014_Node000016" class="edge">
<title>Node14&#45;&gt;Node16</title>
<g id="a_edge25_Node000014_Node000016"><a xlink:title=" ">
<path fill="none" stroke="#63b8ff" d="M757.27,-230.98C693.37,-220.47 586,-202.79 527.68,-193.2"/>
<polygon fill="#63b8ff" stroke="#63b8ff" points="528.16,-189.73 517.72,-191.56 527.02,-196.63 528.16,-189.73"/>
</a>
</g>
</g>
<!-- Node15&#45;&gt;Node7 -->
<g id="edge23_Node000015_Node000007" class="edge">
<title>Node15&#45;&gt;Node7</title>
<g id="a_edge23_Node000015_Node000007"><a xlink:title=" ">
<path fill="none" stroke="#63b8ff" d="M314.93,-115.37C303.19,-106.21 284.41,-91.56 270.24,-80.51"/>
<polygon fill="#63b8ff" stroke="#63b8ff" points="272.15,-77.56 262.11,-74.17 267.84,-83.08 272.15,-77.56"/>
</a>
</g>
</g>
<!-- Node16&#45;&gt;Node7 -->
<g id="edge27_Node000016_Node000007" class="edge">
<title>Node16&#45;&gt;Node7</title>
<g id="a_edge27_Node000016_Node000007"><a xlink:title=" ">
<path fill="none" stroke="#63b8ff" d="M456.49,-180.84C407.68,-174.48 314.88,-160.09 289,-140 271.03,-126.05 260.82,-101.27 255.61,-84.14"/>
<polygon fill="#63b8ff" stroke="#63b8ff" points="258.89,-82.9 252.87,-74.18 252.14,-84.75 258.89,-82.9"/>
</a>
</g>
</g>
<!-- Node16&#45;&gt;Node15 -->
<g id="edge26_Node000016_Node000015" class="edge">
<title>Node16&#45;&gt;Node15</title>
<g id="a_edge26_Node000016_Node000015"><a xlink:title=" ">
<path fill="none" stroke="#63b8ff" d="M462.02,-175.85C436.73,-167.03 396.54,-152.86 362,-140 360.4,-139.4 358.77,-138.79 357.11,-138.16"/>
<polygon fill="#63b8ff" stroke="#63b8ff" points="358.25,-134.85 347.66,-134.54 355.75,-141.39 358.25,-134.85"/>
</a>
</g>
</g>
<!-- Node18&#45;&gt;Node7 -->
<g id="edge30_Node000018_Node000007" class="edge">
<title>Node18&#45;&gt;Node7</title>
<g id="a_edge30_Node000018_Node000007"><a xlink:title=" ">
<path fill="none" stroke="#63b8ff" d="M306.41,-175.86C288.57,-169.13 267.39,-157.86 256,-140 245.46,-123.47 245.63,-100.46 247.53,-84.4"/>
<polygon fill="#63b8ff" stroke="#63b8ff" points="251.05,-84.54 249.1,-74.13 244.13,-83.49 251.05,-84.54"/>
</a>
</g>
</g>
<!-- Node19 -->
<g id="Node000019" class="node">
<title>Node19</title>
<g id="a_Node000019"><a xlink:href="mk64_8h.html" target="_top" xlink:title=" ">
<polygon fill="white" stroke="#666666" points="556.5,-134.5 503.5,-134.5 503.5,-115.5 556.5,-115.5 556.5,-134.5"/>
<text text-anchor="middle" x="530" y="-122.5" font-family="Helvetica,sans-Serif" font-size="10.00">mk64.h</text>
</a>
</g>
</g>
<!-- Node18&#45;&gt;Node19 -->
<g id="edge31_Node000018_Node000019" class="edge">
<title>Node18&#45;&gt;Node19</title>
<g id="a_edge31_Node000018_Node000019"><a xlink:title=" ">
<path fill="none" stroke="#63b8ff" d="M365.06,-175.99C398.99,-165.71 456.16,-148.38 493.49,-137.07"/>
<polygon fill="#63b8ff" stroke="#63b8ff" points="494.9,-140.3 503.45,-134.05 492.87,-133.6 494.9,-140.3"/>
</a>
</g>
</g>
<!-- Node19&#45;&gt;Node2 -->
<g id="edge32_Node000019_Node000002" class="edge">
<title>Node19&#45;&gt;Node2</title>
<g id="a_edge32_Node000019_Node000002"><a xlink:title=" ">
<path fill="none" stroke="#63b8ff" d="M547.17,-115.4C575.79,-101.3 635.34,-73.06 688,-55 729.29,-40.84 777.44,-28.92 812.77,-20.99"/>
<polygon fill="#63b8ff" stroke="#63b8ff" points="813.84,-24.34 822.84,-18.76 812.32,-17.5 813.84,-24.34"/>
</a>
</g>
</g>
<!-- Node19&#45;&gt;Node10 -->
<g id="edge35_Node000019_Node000010" class="edge">
<title>Node19&#45;&gt;Node10</title>
<g id="a_edge35_Node000019_Node000010"><a xlink:title=" ">
<path fill="none" stroke="#63b8ff" d="M549.52,-115.39C554.78,-113.35 560.54,-111.37 566,-110 676.26,-82.28 809.82,-71.58 880.52,-67.64"/>
<polygon fill="#63b8ff" stroke="#63b8ff" points="881.1,-71.12 890.9,-67.09 880.73,-64.13 881.1,-71.12"/>
</a>
</g>
</g>
<!-- Node20 -->
<g id="Node000020" class="node">
<title>Node20</title>
<g id="a_Node000020"><a xlink:href="string_8h.html" target="_top" xlink:title=" ">
<polygon fill="white" stroke="#666666" points="556.5,-74 503.5,-74 503.5,-55 556.5,-55 556.5,-74"/>
<text text-anchor="middle" x="530" y="-62" font-family="Helvetica,sans-Serif" font-size="10.00">string.h</text>
</a>
</g>
</g>
<!-- Node19&#45;&gt;Node20 -->
<g id="edge33_Node000019_Node000020" class="edge">
<title>Node19&#45;&gt;Node20</title>
<g id="a_edge33_Node000019_Node000020"><a xlink:title=" ">
<path fill="none" stroke="#63b8ff" d="M530,-115.37C530,-107.25 530,-94.81 530,-84.39"/>
<polygon fill="#63b8ff" stroke="#63b8ff" points="533.5,-84.17 530,-74.17 526.5,-84.17 533.5,-84.17"/>
</a>
</g>
</g>
<!-- Node20&#45;&gt;Node9 -->
<g id="edge34_Node000020_Node000009" class="edge">
<title>Node20&#45;&gt;Node9</title>
<g id="a_edge34_Node000020_Node000009"><a xlink:title=" ">
<path fill="none" stroke="#63b8ff" d="M525.54,-54.75C521.88,-47.57 516.59,-37.18 512.05,-28.27"/>
<polygon fill="#63b8ff" stroke="#63b8ff" points="515.03,-26.41 507.38,-19.09 508.8,-29.59 515.03,-26.41"/>
</a>
</g>
</g>
<!-- Node21&#45;&gt;Node7 -->
<g id="edge39_Node000021_Node000007" class="edge">
<title>Node21&#45;&gt;Node7</title>
<g id="a_edge39_Node000021_Node000007"><a xlink:title=" ">
<path fill="none" stroke="#63b8ff" d="M198.64,-230.69C186.06,-208.81 157.41,-150.81 180,-110 187.84,-95.83 202.29,-85.57 216.11,-78.5"/>
<polygon fill="#63b8ff" stroke="#63b8ff" points="217.92,-81.52 225.49,-74.1 214.95,-75.18 217.92,-81.52"/>
</a>
</g>
</g>
<!-- Node21&#45;&gt;Node18 -->
<g id="edge45_Node000021_Node000018" class="edge">
<title>Node21&#45;&gt;Node18</title>
<g id="a_edge45_Node000021_Node000018"><a xlink:title=" ">
<path fill="none" stroke="#63b8ff" d="M225.37,-230.98C247.15,-222.3 281.16,-208.75 305.92,-198.88"/>
<polygon fill="#63b8ff" stroke="#63b8ff" points="307.25,-202.12 315.24,-195.17 304.66,-195.62 307.25,-202.12"/>
</a>
</g>
</g>
<!-- Node21&#45;&gt;Node22 -->
<g id="edge37_Node000021_Node000022" class="edge">
<title>Node21&#45;&gt;Node22</title>
<g id="a_edge37_Node000021_Node000022"><a xlink:title=" ">
<path fill="none" stroke="#63b8ff" d="M190.18,-230.98C176.85,-222.77 156.42,-210.18 140.69,-200.49"/>
<polygon fill="#63b8ff" stroke="#63b8ff" points="142.42,-197.44 132.07,-195.17 138.75,-203.4 142.42,-197.44"/>
</a>
</g>
</g>
<!-- Node23 -->
<g id="Node000023" class="node">
<title>Node23</title>
<g id="a_Node000023"><a xlink:href="common__data_8h.html" target="_top" xlink:title=" ">
<polygon fill="white" stroke="#666666" points="705,-134.5 575,-134.5 575,-115.5 705,-115.5 705,-134.5"/>
<text text-anchor="middle" x="640" y="-122.5" font-family="Helvetica,sans-Serif" font-size="10.00">assets/common_data.h</text>
</a>
</g>
</g>
<!-- Node21&#45;&gt;Node23 -->
<g id="edge40_Node000021_Node000023" class="edge">
<title>Node21&#45;&gt;Node23</title>
<g id="a_edge40_Node000021_Node000023"><a xlink:title=" ">
<path fill="none" stroke="#63b8ff" d="M272.59,-233.31C352.88,-225.48 480.66,-211.08 526,-195 562.22,-182.16 599.43,-156.93 621.1,-140.8"/>
<polygon fill="#63b8ff" stroke="#63b8ff" points="623.28,-143.54 629.13,-134.7 619.05,-137.96 623.28,-143.54"/>
</a>
</g>
</g>
<!-- Node22&#45;&gt;Node7 -->
<g id="edge38_Node000022_Node000007" class="edge">
<title>Node22&#45;&gt;Node7</title>
<g id="a_edge38_Node000022_Node000007"><a xlink:title=" ">
<path fill="none" stroke="#63b8ff" d="M118.46,-175.97C119.73,-160.8 124.45,-128.94 142,-110 156.75,-94.09 178,-83.72 197.83,-77.04"/>
<polygon fill="#63b8ff" stroke="#63b8ff" points="198.92,-80.37 207.42,-74.04 196.83,-73.68 198.92,-80.37"/>
</a>
</g>
</g>
<!-- Node23&#45;&gt;Node2 -->
<g id="edge42_Node000023_Node000002" class="edge">
<title>Node23&#45;&gt;Node2</title>
<g id="a_edge42_Node000023_Node000002"><a xlink:title=" ">
<path fill="none" stroke="#63b8ff" d="M647.85,-115.05C661.12,-100.45 689.42,-71.5 719,-55 748.23,-38.69 784.2,-27.57 812.88,-20.53"/>
<polygon fill="#63b8ff" stroke="#63b8ff" points="813.77,-23.91 822.7,-18.2 812.16,-17.1 813.77,-23.91"/>
</a>
</g>
</g>
<!-- Node23&#45;&gt;Node7 -->
<g id="edge43_Node000023_Node000007" class="edge">
<title>Node23&#45;&gt;Node7</title>
<g id="a_edge43_Node000023_Node000007"><a xlink:title=" ">
<path fill="none" stroke="#63b8ff" d="M596.04,-115.46C585.86,-113.58 575.06,-111.65 565,-110 478.66,-95.83 378.53,-82.11 314.99,-73.73"/>
<polygon fill="#63b8ff" stroke="#63b8ff" points="315.09,-70.22 304.72,-72.39 314.18,-77.16 315.09,-70.22"/>
</a>
</g>
</g>
<!-- Node23&#45;&gt;Node10 -->
<g id="edge41_Node000023_Node000010" class="edge">
<title>Node23&#45;&gt;Node10</title>
<g id="a_edge41_Node000023_Node000010"><a xlink:title=" ">
<path fill="none" stroke="#63b8ff" d="M682.17,-115.49C734.82,-104.87 824.73,-86.74 880.56,-75.47"/>
<polygon fill="#63b8ff" stroke="#63b8ff" points="881.46,-78.86 890.57,-73.45 880.08,-72 881.46,-78.86"/>
</a>
</g>
</g>
<!-- Node23&#45;&gt;Node12 -->
<g id="edge44_Node000023_Node000012" class="edge">
<title>Node23&#45;&gt;Node12</title>
<g id="a_edge44_Node000023_Node000012"><a xlink:title=" ">
<path fill="none" stroke="#63b8ff" d="M705,-116.11C795.9,-105.08 960.25,-85.13 1053.16,-73.86"/>
<polygon fill="#63b8ff" stroke="#63b8ff" points="1053.79,-77.3 1063.3,-72.62 1052.95,-70.35 1053.79,-77.3"/>
</a>
</g>
</g>
<!-- Node25&#45;&gt;Node2 -->
<g id="edge50_Node000025_Node000002" class="edge">
<title>Node25&#45;&gt;Node2</title>
<g id="a_edge50_Node000025_Node000002"><a xlink:title=" ">
<path fill="none" stroke="#63b8ff" d="M1153.66,-109.82C1178.42,-96.11 1207.12,-74.6 1190,-55 1154.72,-14.59 996.12,-9.49 913.46,-9.66"/>
<polygon fill="#63b8ff" stroke="#63b8ff" points="913.27,-6.16 903.29,-9.71 913.31,-13.16 913.27,-6.16"/>
</a>
</g>
</g>
<!-- Node25&#45;&gt;Node10 -->
<g id="edge51_Node000025_Node000010" class="edge">
<title>Node25&#45;&gt;Node10</title>
<g id="a_edge51_Node000025_Node000010"><a xlink:title=" ">
<path fill="none" stroke="#63b8ff" d="M1077.53,-109.99C1044.05,-99.89 999.43,-86.44 968.06,-76.98"/>
<polygon fill="#63b8ff" stroke="#63b8ff" points="968.95,-73.59 958.37,-74.05 966.93,-80.29 968.95,-73.59"/>
</a>
</g>
</g>
<!-- Node25&#45;&gt;Node12 -->
<g id="edge52_Node000025_Node000012" class="edge">
<title>Node25&#45;&gt;Node12</title>
<g id="a_edge52_Node000025_Node000012"><a xlink:title=" ">
<path fill="none" stroke="#63b8ff" d="M1123.52,-109.84C1123.26,-102.21 1122.93,-92.7 1122.65,-84.45"/>
<polygon fill="#63b8ff" stroke="#63b8ff" points="1126.14,-84.14 1122.3,-74.27 1119.14,-84.38 1126.14,-84.14"/>
</a>
</g>
</g>
<!-- Node26&#45;&gt;Node2 -->
<g id="edge54_Node000026_Node000002" class="edge">
<title>Node26&#45;&gt;Node2</title>
<g id="a_edge54_Node000026_Node000002"><a xlink:title=" ">
<path fill="none" stroke="#63b8ff" d="M1256.5,-109.91C1247.05,-93.7 1229.2,-67.69 1206,-55 1156.68,-28.03 996.01,-16.71 913.26,-12.57"/>
<polygon fill="#63b8ff" stroke="#63b8ff" points="913.25,-9.06 903.09,-12.08 912.91,-16.06 913.25,-9.06"/>
</a>
</g>
</g>
<!-- Node26&#45;&gt;Node10 -->
<g id="edge55_Node000026_Node000010" class="edge">
<title>Node26&#45;&gt;Node10</title>
<g id="a_edge55_Node000026_Node000010"><a xlink:title=" ">
<path fill="none" stroke="#63b8ff" d="M1202.94,-111.67C1199.92,-111.1 1196.93,-110.54 1194,-110 1119.43,-96.26 1032.7,-81.96 979.59,-73.4"/>
<polygon fill="#63b8ff" stroke="#63b8ff" points="979.85,-69.9 969.43,-71.76 978.74,-76.81 979.85,-69.9"/>
</a>
</g>
</g>
<!-- Node26&#45;&gt;Node12 -->
<g id="edge56_Node000026_Node000012" class="edge">
<title>Node26&#45;&gt;Node12</title>
<g id="a_edge56_Node000026_Node000012"><a xlink:title=" ">
<path fill="none" stroke="#63b8ff" d="M1229.99,-109.99C1206.4,-100.27 1175.26,-87.44 1152.48,-78.06"/>
<polygon fill="#63b8ff" stroke="#63b8ff" points="1153.55,-74.71 1142.97,-74.14 1150.88,-81.18 1153.55,-74.71"/>
</a>
</g>
</g>
<!-- Node27&#45;&gt;Node2 -->
<g id="edge58_Node000027_Node000002" class="edge">
<title>Node27&#45;&gt;Node2</title>
<g id="a_edge58_Node000027_Node000002"><a xlink:title=" ">
<path fill="none" stroke="#63b8ff" d="M1375.39,-109.91C1341.69,-93.95 1283.64,-68.44 1231,-55 1119.71,-26.59 984.74,-16.17 913.19,-12.46"/>
<polygon fill="#63b8ff" stroke="#63b8ff" points="913.27,-8.96 903.1,-11.96 912.92,-15.95 913.27,-8.96"/>
</a>
</g>
</g>
<!-- Node27&#45;&gt;Node10 -->
<g id="edge59_Node000027_Node000010" class="edge">
<title>Node27&#45;&gt;Node10</title>
<g id="a_edge59_Node000027_Node000010"><a xlink:title=" ">
<path fill="none" stroke="#63b8ff" d="M1342.97,-111.47C1339.94,-110.95 1336.94,-110.45 1334,-110 1206.79,-90.31 1055.74,-76.09 979.41,-69.54"/>
<polygon fill="#63b8ff" stroke="#63b8ff" points="979.41,-66.02 969.15,-68.66 978.82,-73 979.41,-66.02"/>
</a>
</g>
</g>
<!-- Node27&#45;&gt;Node12 -->
<g id="edge60_Node000027_Node000012" class="edge">
<title>Node27&#45;&gt;Node12</title>
<g id="a_edge60_Node000027_Node000012"><a xlink:title=" ">
<path fill="none" stroke="#63b8ff" d="M1342.81,-111.31C1292,-100.77 1220.56,-85.95 1172.85,-76.05"/>
<polygon fill="#63b8ff" stroke="#63b8ff" points="1173.55,-72.62 1163.04,-74.01 1172.12,-79.47 1173.55,-72.62"/>
</a>
</g>
</g>
</g>
</svg>
