<?xml version="1.0" encoding="UTF-8" standalone="no"?>
<!DOCTYPE svg PUBLIC "-//W3C//DTD SVG 1.1//EN"
 "http://www.w3.org/Graphics/SVG/1.1/DTD/svg11.dtd">
<!-- Generated by graphviz version 2.43.0 (0)
 -->
<!-- Title: src/port/ui/Properties.h Pages: 1 -->
<svg width="1380pt" height="412pt"
 viewBox="0.00 0.00 1379.85 412.00" xmlns="http://www.w3.org/2000/svg" xmlns:xlink="http://www.w3.org/1999/xlink">
<g id="graph0" class="graph" transform="scale(1 1) rotate(0) translate(4 408)">
<title>src/port/ui/Properties.h</title>
<!-- Node1 -->
<g id="Node000001" class="node">
<title>Node1</title>
<g id="a_Node000001"><a xlink:title=" ">
<polygon fill="#999999" stroke="#666666" points="219.5,-404 92.5,-404 92.5,-385 219.5,-385 219.5,-404"/>
<text text-anchor="middle" x="156" y="-392" font-family="Helvetica,sans-Serif" font-size="10.00">src/port/ui/Properties.h</text>
</a>
</g>
</g>
<!-- Node2 -->
<g id="Node000002" class="node">
<title>Node2</title>
<g id="a_Node000002"><a xlink:title=" ">
<polygon fill="#e0e0e0" stroke="#999999" points="138,-239 0,-239 0,-220 138,-220 138,-239"/>
<text text-anchor="middle" x="69" y="-227" font-family="Helvetica,sans-Serif" font-size="10.00">libultraship/libultraship.h</text>
</a>
</g>
</g>
<!-- Node1&#45;&gt;Node2 -->
<g id="edge1_Node000001_Node000002" class="edge">
<title>Node1&#45;&gt;Node2</title>
<g id="a_edge1_Node000001_Node000002"><a xlink:title=" ">
<path fill="none" stroke="#63b8ff" d="M151.32,-384.74C137.57,-358.98 97.09,-283.13 78.51,-248.33"/>
<polygon fill="#63b8ff" stroke="#63b8ff" points="81.5,-246.48 73.7,-239.31 75.32,-249.78 81.5,-246.48"/>
</a>
</g>
</g>
<!-- Node3 -->
<g id="Node000003" class="node">
<title>Node3</title>
<g id="a_Node000003"><a xlink:href="Game_8h.html" target="_top" xlink:title=" ">
<polygon fill="white" stroke="#666666" points="424.5,-349 347.5,-349 347.5,-330 424.5,-330 424.5,-349"/>
<text text-anchor="middle" x="386" y="-337" font-family="Helvetica,sans-Serif" font-size="10.00">port/Game.h</text>
</a>
</g>
</g>
<!-- Node1&#45;&gt;Node3 -->
<g id="edge2_Node000001_Node000003" class="edge">
<title>Node1&#45;&gt;Node3</title>
<g id="a_edge2_Node000001_Node000003"><a xlink:title=" ">
<path fill="none" stroke="#63b8ff" d="M192.95,-384.98C232.57,-375.86 295.59,-361.33 338.77,-351.38"/>
<polygon fill="#63b8ff" stroke="#63b8ff" points="339.8,-354.74 348.76,-349.08 338.23,-347.92 339.8,-354.74"/>
</a>
</g>
</g>
<!-- Node4 -->
<g id="Node000004" class="node">
<title>Node4</title>
<g id="a_Node000004"><a xlink:title=" ">
<polygon fill="#e0e0e0" stroke="#999999" points="661,-19 581,-19 581,0 661,0 661,-19"/>
<text text-anchor="middle" x="621" y="-7" font-family="Helvetica,sans-Serif" font-size="10.00">libultraship.h</text>
</a>
</g>
</g>
<!-- Node3&#45;&gt;Node4 -->
<g id="edge3_Node000003_Node000004" class="edge">
<title>Node3&#45;&gt;Node4</title>
<g id="a_edge3_Node000003_Node000004"><a xlink:title=" ">
<path fill="none" stroke="#63b8ff" d="M347.43,-336.6C284.33,-331.19 166,-310.38 166,-230.5 166,-230.5 166,-230.5 166,-173.5 166,-108.69 195.21,-88 251,-55 303.96,-23.67 482.5,-14.33 570.76,-11.6"/>
<polygon fill="#63b8ff" stroke="#63b8ff" points="570.91,-15.1 580.8,-11.3 570.7,-8.1 570.91,-15.1"/>
</a>
</g>
</g>
<!-- Node5 -->
<g id="Node000005" class="node">
<title>Node5</title>
<g id="a_Node000005"><a xlink:href="Course_8h.html" target="_top" xlink:title=" ">
<polygon fill="white" stroke="#666666" points="603,-294 467,-294 467,-275 603,-275 603,-294"/>
<text text-anchor="middle" x="535" y="-282" font-family="Helvetica,sans-Serif" font-size="10.00">engine/courses/Course.h</text>
</a>
</g>
</g>
<!-- Node3&#45;&gt;Node5 -->
<g id="edge4_Node000003_Node000005" class="edge">
<title>Node3&#45;&gt;Node5</title>
<g id="a_edge4_Node000003_Node000005"><a xlink:title=" ">
<path fill="none" stroke="#63b8ff" d="M409.94,-329.98C434.56,-321.23 473.12,-307.51 500.92,-297.62"/>
<polygon fill="#63b8ff" stroke="#63b8ff" points="502.38,-300.82 510.62,-294.17 500.03,-294.22 502.38,-300.82"/>
</a>
</g>
</g>
<!-- Node7 -->
<g id="Node000007" class="node">
<title>Node7</title>
<g id="a_Node000007"><a xlink:href="camera_8h.html" target="_top" xlink:title=" ">
<polygon fill="white" stroke="#666666" points="1331,-184 1269,-184 1269,-165 1331,-165 1331,-184"/>
<text text-anchor="middle" x="1300" y="-172" font-family="Helvetica,sans-Serif" font-size="10.00">camera.h</text>
</a>
</g>
</g>
<!-- Node3&#45;&gt;Node7 -->
<g id="edge55_Node000003_Node000007" class="edge">
<title>Node3&#45;&gt;Node7</title>
<g id="a_edge55_Node000003_Node000007"><a xlink:title=" ">
<path fill="none" stroke="#63b8ff" d="M424.54,-336.72C568.48,-329.65 1073.79,-300.86 1221,-239 1246.46,-228.3 1270.39,-206.86 1285.1,-191.86"/>
<polygon fill="#63b8ff" stroke="#63b8ff" points="1287.93,-193.96 1292.28,-184.3 1282.85,-189.15 1287.93,-193.96"/>
</a>
</g>
</g>
<!-- Node26 -->
<g id="Node000026" class="node">
<title>Node26</title>
<g id="a_Node000026"><a xlink:href="HM__Intro_8h.html" target="_top" xlink:title=" ">
<polygon fill="white" stroke="#666666" points="486,-129 380,-129 380,-110 486,-110 486,-129"/>
<text text-anchor="middle" x="433" y="-117" font-family="Helvetica,sans-Serif" font-size="10.00">engine/HM_Intro.h</text>
</a>
</g>
</g>
<!-- Node3&#45;&gt;Node26 -->
<g id="edge50_Node000003_Node000026" class="edge">
<title>Node3&#45;&gt;Node26</title>
<g id="a_edge50_Node000003_Node000026"><a xlink:title=" ">
<path fill="none" stroke="#63b8ff" d="M379.73,-329.91C366.31,-310.43 336.95,-261.39 349,-220 359.49,-183.98 391.68,-152.84 413.03,-135.4"/>
<polygon fill="#63b8ff" stroke="#63b8ff" points="415.21,-138.14 420.88,-129.19 410.87,-132.65 415.21,-138.14"/>
</a>
</g>
</g>
<!-- Node27 -->
<g id="Node000027" class="node">
<title>Node27</title>
<g id="a_Node000027"><a xlink:href="actor__types_8h.html" target="_top" xlink:title=" ">
<polygon fill="white" stroke="#666666" points="1357.5,-129 1274.5,-129 1274.5,-110 1357.5,-110 1357.5,-129"/>
<text text-anchor="middle" x="1316" y="-117" font-family="Helvetica,sans-Serif" font-size="10.00">actor_types.h</text>
</a>
</g>
</g>
<!-- Node3&#45;&gt;Node27 -->
<g id="edge56_Node000003_Node000027" class="edge">
<title>Node3&#45;&gt;Node27</title>
<g id="a_edge56_Node000003_Node000027"><a xlink:title=" ">
<path fill="none" stroke="#63b8ff" d="M424.74,-338.19C525.27,-336.88 802.52,-330.01 1030,-294 1174.4,-271.14 1268.49,-311.51 1340,-184 1348.43,-168.97 1339.4,-150.39 1330.1,-137.22"/>
<polygon fill="#63b8ff" stroke="#63b8ff" points="1332.71,-134.86 1323.83,-129.07 1327.16,-139.13 1332.71,-134.86"/>
</a>
</g>
</g>
<!-- Node5&#45;&gt;Node2 -->
<g id="edge5_Node000005_Node000002" class="edge">
<title>Node5&#45;&gt;Node2</title>
<g id="a_edge5_Node000005_Node000002"><a xlink:title=" ">
<path fill="none" stroke="#63b8ff" d="M466.74,-275.74C382.03,-266.1 237.84,-249.7 148.3,-239.52"/>
<polygon fill="#63b8ff" stroke="#63b8ff" points="148.53,-236.02 138.2,-238.37 147.74,-242.98 148.53,-236.02"/>
</a>
</g>
</g>
<!-- Node6 -->
<g id="Node000006" class="node">
<title>Node6</title>
<g id="a_Node000006"><a xlink:href="CoreMath_8h.html" target="_top" xlink:title=" ">
<polygon fill="white" stroke="#666666" points="417.5,-74 344.5,-74 344.5,-55 417.5,-55 417.5,-74"/>
<text text-anchor="middle" x="381" y="-62" font-family="Helvetica,sans-Serif" font-size="10.00">CoreMath.h</text>
</a>
</g>
</g>
<!-- Node5&#45;&gt;Node6 -->
<g id="edge6_Node000005_Node000006" class="edge">
<title>Node5&#45;&gt;Node6</title>
<g id="a_edge6_Node000005_Node000006"><a xlink:title=" ">
<path fill="none" stroke="#63b8ff" d="M466.59,-281.53C428.29,-277.16 381.79,-266.04 349,-239 301.56,-199.88 267.56,-162.84 299,-110 307.92,-95.02 323.84,-84.76 339.29,-77.91"/>
<polygon fill="#63b8ff" stroke="#63b8ff" points="340.83,-81.07 348.79,-74.08 338.2,-74.58 340.83,-81.07"/>
</a>
</g>
</g>
<!-- Node5&#45;&gt;Node7 -->
<g id="edge8_Node000005_Node000007" class="edge">
<title>Node5&#45;&gt;Node7</title>
<g id="a_edge8_Node000005_Node000007"><a xlink:title=" ">
<path fill="none" stroke="#63b8ff" d="M603,-282.6C747.01,-280.09 1078.34,-270.92 1186,-239 1221.54,-228.46 1258.22,-205.45 1280.06,-190.22"/>
<polygon fill="#63b8ff" stroke="#63b8ff" points="1282.36,-192.88 1288.47,-184.23 1278.3,-187.18 1282.36,-192.88"/>
</a>
</g>
</g>
<!-- Node8 -->
<g id="Node000008" class="node">
<title>Node8</title>
<g id="a_Node000008"><a xlink:href="common__structs_8h.html" target="_top" xlink:title=" ">
<polygon fill="white" stroke="#666666" points="1093.5,-74 986.5,-74 986.5,-55 1093.5,-55 1093.5,-74"/>
<text text-anchor="middle" x="1040" y="-62" font-family="Helvetica,sans-Serif" font-size="10.00">common_structs.h</text>
</a>
</g>
</g>
<!-- Node5&#45;&gt;Node8 -->
<g id="edge49_Node000005_Node000008" class="edge">
<title>Node5&#45;&gt;Node8</title>
<g id="a_edge49_Node000005_Node000008"><a xlink:title=" ">
<path fill="none" stroke="#63b8ff" d="M603.16,-279.39C736.03,-270.13 1023.43,-243.63 1100,-184 1127.87,-162.3 1147.57,-140.05 1129,-110 1119.51,-94.64 1102.94,-84.41 1086.65,-77.68"/>
<polygon fill="#63b8ff" stroke="#63b8ff" points="1087.74,-74.35 1077.15,-74.1 1085.27,-80.9 1087.74,-74.35"/>
</a>
</g>
</g>
<!-- Node9 -->
<g id="Node000009" class="node">
<title>Node9</title>
<g id="a_Node000009"><a xlink:href="course__offsets_8h.html" target="_top" xlink:title=" ">
<polygon fill="white" stroke="#666666" points="489,-184 393,-184 393,-165 489,-165 489,-184"/>
<text text-anchor="middle" x="441" y="-172" font-family="Helvetica,sans-Serif" font-size="10.00">course_offsets.h</text>
</a>
</g>
</g>
<!-- Node5&#45;&gt;Node9 -->
<g id="edge12_Node000005_Node000009" class="edge">
<title>Node5&#45;&gt;Node9</title>
<g id="a_edge12_Node000005_Node000009"><a xlink:title=" ">
<path fill="none" stroke="#63b8ff" d="M515.69,-274.87C500.66,-267.29 480.2,-255 467,-239 456.11,-225.81 449.26,-207.43 445.34,-193.84"/>
<polygon fill="#63b8ff" stroke="#63b8ff" points="448.72,-192.95 442.8,-184.16 441.95,-194.72 448.72,-192.95"/>
</a>
</g>
</g>
<!-- Node15 -->
<g id="Node000015" class="node">
<title>Node15</title>
<g id="a_Node000015"><a xlink:href="src_2data_2some__data_8h.html" target="_top" xlink:title=" ">
<polygon fill="white" stroke="#666666" points="703,-239 599,-239 599,-220 703,-220 703,-239"/>
<text text-anchor="middle" x="651" y="-227" font-family="Helvetica,sans-Serif" font-size="10.00">data/some_data.h</text>
</a>
</g>
</g>
<!-- Node5&#45;&gt;Node15 -->
<g id="edge21_Node000005_Node000015" class="edge">
<title>Node5&#45;&gt;Node15</title>
<g id="a_edge21_Node000005_Node000015"><a xlink:title=" ">
<path fill="none" stroke="#63b8ff" d="M553.64,-274.98C572.3,-266.46 601.25,-253.23 622.74,-243.41"/>
<polygon fill="#63b8ff" stroke="#63b8ff" points="624.38,-246.51 632.02,-239.17 621.47,-240.14 624.38,-246.51"/>
</a>
</g>
</g>
<!-- Node18 -->
<g id="Node000018" class="node">
<title>Node18</title>
<g id="a_Node000018"><a xlink:href="defines_8h.html" target="_top" xlink:title=" ">
<polygon fill="white" stroke="#666666" points="419.5,-239 358.5,-239 358.5,-220 419.5,-220 419.5,-239"/>
<text text-anchor="middle" x="389" y="-227" font-family="Helvetica,sans-Serif" font-size="10.00">defines.h</text>
</a>
</g>
</g>
<!-- Node5&#45;&gt;Node18 -->
<g id="edge29_Node000005_Node000018" class="edge">
<title>Node5&#45;&gt;Node18</title>
<g id="a_edge29_Node000005_Node000018"><a xlink:title=" ">
<path fill="none" stroke="#63b8ff" d="M511.54,-274.98C487.42,-266.23 449.63,-252.51 422.4,-242.62"/>
<polygon fill="#63b8ff" stroke="#63b8ff" points="423.48,-239.29 412.88,-239.17 421.09,-245.87 423.48,-239.29"/>
</a>
</g>
</g>
<!-- Node19 -->
<g id="Node000019" class="node">
<title>Node19</title>
<g id="a_Node000019"><a xlink:href="bomb__kart_8h.html" target="_top" xlink:title=" ">
<polygon fill="white" stroke="#666666" points="584.5,-184 507.5,-184 507.5,-165 584.5,-165 584.5,-184"/>
<text text-anchor="middle" x="546" y="-172" font-family="Helvetica,sans-Serif" font-size="10.00">bomb_kart.h</text>
</a>
</g>
</g>
<!-- Node5&#45;&gt;Node19 -->
<g id="edge30_Node000005_Node000019" class="edge">
<title>Node5&#45;&gt;Node19</title>
<g id="a_edge30_Node000005_Node000019"><a xlink:title=" ">
<path fill="none" stroke="#63b8ff" d="M537.53,-274.73C539.97,-265.82 543.5,-251.58 545,-239 546.77,-224.08 546.94,-207.05 546.71,-194.38"/>
<polygon fill="#63b8ff" stroke="#63b8ff" points="550.21,-194.06 546.42,-184.17 543.21,-194.26 550.21,-194.06"/>
</a>
</g>
</g>
<!-- Node22 -->
<g id="Node000022" class="node">
<title>Node22</title>
<g id="a_Node000022"><a xlink:href="path__spawn__metadata_8h.html" target="_top" xlink:title=" ">
<polygon fill="white" stroke="#666666" points="863.5,-239 726.5,-239 726.5,-220 863.5,-220 863.5,-239"/>
<text text-anchor="middle" x="795" y="-227" font-family="Helvetica,sans-Serif" font-size="10.00">path_spawn_metadata.h</text>
</a>
</g>
</g>
<!-- Node5&#45;&gt;Node22 -->
<g id="edge37_Node000005_Node000022" class="edge">
<title>Node5&#45;&gt;Node22</title>
<g id="a_edge37_Node000005_Node000022"><a xlink:title=" ">
<path fill="none" stroke="#63b8ff" d="M576.77,-274.98C621.94,-265.78 694,-251.09 742.85,-241.13"/>
<polygon fill="#63b8ff" stroke="#63b8ff" points="743.8,-244.51 752.9,-239.08 742.4,-237.65 743.8,-244.51"/>
</a>
</g>
</g>
<!-- Node23 -->
<g id="Node000023" class="node">
<title>Node23</title>
<g id="a_Node000023"><a xlink:href="waypoints_8h.html" target="_top" xlink:title=" ">
<polygon fill="white" stroke="#666666" points="1251,-184 1175,-184 1175,-165 1251,-165 1251,-184"/>
<text text-anchor="middle" x="1213" y="-172" font-family="Helvetica,sans-Serif" font-size="10.00">waypoints.h</text>
</a>
</g>
</g>
<!-- Node5&#45;&gt;Node23 -->
<g id="edge47_Node000005_Node000023" class="edge">
<title>Node5&#45;&gt;Node23</title>
<g id="a_edge47_Node000005_Node000023"><a xlink:title=" ">
<path fill="none" stroke="#63b8ff" d="M603.1,-281.69C755.09,-277.22 1112.44,-264.14 1161,-239 1180.31,-229 1195.07,-208.37 1203.85,-193.32"/>
<polygon fill="#63b8ff" stroke="#63b8ff" points="1207,-194.86 1208.74,-184.41 1200.86,-191.49 1207,-194.86"/>
</a>
</g>
</g>
<!-- Node25 -->
<g id="Node000025" class="node">
<title>Node25</title>
<g id="a_Node000025"><a xlink:href="sounds_8h.html" target="_top" xlink:title=" ">
<polygon fill="white" stroke="#666666" points="536,-239 476,-239 476,-220 536,-220 536,-239"/>
<text text-anchor="middle" x="506" y="-227" font-family="Helvetica,sans-Serif" font-size="10.00">sounds.h</text>
</a>
</g>
</g>
<!-- Node5&#45;&gt;Node25 -->
<g id="edge48_Node000005_Node000025" class="edge">
<title>Node5&#45;&gt;Node25</title>
<g id="a_edge48_Node000005_Node000025"><a xlink:title=" ">
<path fill="none" stroke="#63b8ff" d="M530.21,-274.75C526.24,-267.49 520.47,-256.95 515.57,-247.98"/>
<polygon fill="#63b8ff" stroke="#63b8ff" points="518.57,-246.18 510.7,-239.09 512.43,-249.54 518.57,-246.18"/>
</a>
</g>
</g>
<!-- Node6&#45;&gt;Node4 -->
<g id="edge7_Node000006_Node000004" class="edge">
<title>Node6&#45;&gt;Node4</title>
<g id="a_edge7_Node000006_Node000004"><a xlink:title=" ">
<path fill="none" stroke="#63b8ff" d="M417.71,-55.39C459.1,-46.25 526.56,-31.36 572.31,-21.25"/>
<polygon fill="#63b8ff" stroke="#63b8ff" points="573.29,-24.62 582.3,-19.05 571.78,-17.78 573.29,-24.62"/>
</a>
</g>
</g>
<!-- Node7&#45;&gt;Node4 -->
<g id="edge9_Node000007_Node000004" class="edge">
<title>Node7&#45;&gt;Node4</title>
<g id="a_edge9_Node000007_Node000004"><a xlink:title=" ">
<path fill="none" stroke="#63b8ff" d="M1323.11,-164.98C1338.59,-157.92 1357.76,-146.23 1367,-129 1377.03,-110.3 1369.28,-66.57 1356,-55 1304.66,-10.25 829.48,-9.17 671.67,-10.06"/>
<polygon fill="#63b8ff" stroke="#63b8ff" points="671.28,-6.56 661.3,-10.12 671.33,-13.56 671.28,-6.56"/>
</a>
</g>
</g>
<!-- Node7&#45;&gt;Node8 -->
<g id="edge10_Node000007_Node000008" class="edge">
<title>Node7&#45;&gt;Node8</title>
<g id="a_edge10_Node000007_Node000008"><a xlink:title=" ">
<path fill="none" stroke="#63b8ff" d="M1289.44,-164.85C1272.44,-151.33 1237.5,-125.15 1204,-110 1169.92,-94.59 1129.37,-83.53 1097.12,-76.29"/>
<polygon fill="#63b8ff" stroke="#63b8ff" points="1097.48,-72.78 1086.96,-74.07 1095.99,-79.62 1097.48,-72.78"/>
</a>
</g>
</g>
<!-- Node8&#45;&gt;Node4 -->
<g id="edge11_Node000008_Node000004" class="edge">
<title>Node8&#45;&gt;Node4</title>
<g id="a_edge11_Node000008_Node000004"><a xlink:title=" ">
<path fill="none" stroke="#63b8ff" d="M986.08,-56.68C904.54,-46.37 750.95,-26.94 671.48,-16.89"/>
<polygon fill="#63b8ff" stroke="#63b8ff" points="671.6,-13.37 661.24,-15.59 670.72,-20.32 671.6,-13.37"/>
</a>
</g>
</g>
<!-- Node9&#45;&gt;Node4 -->
<g id="edge13_Node000009_Node000004" class="edge">
<title>Node9&#45;&gt;Node4</title>
<g id="a_edge13_Node000009_Node000004"><a xlink:title=" ">
<path fill="none" stroke="#63b8ff" d="M392.81,-166.84C363.38,-160.84 326.3,-149.65 299,-129 269.83,-106.94 238.79,-82.41 263,-55 283.03,-32.32 476.84,-18.52 570.63,-13.12"/>
<polygon fill="#63b8ff" stroke="#63b8ff" points="570.96,-16.61 580.75,-12.55 570.57,-9.62 570.96,-16.61"/>
</a>
</g>
</g>
<!-- Node10 -->
<g id="Node000010" class="node">
<title>Node10</title>
<g id="a_Node000010"><a xlink:title=" ">
<polygon fill="#e0e0e0" stroke="#999999" points="276,-19 186,-19 186,0 276,0 276,-19"/>
<text text-anchor="middle" x="231" y="-7" font-family="Helvetica,sans-Serif" font-size="10.00">libultra/types.h</text>
</a>
</g>
</g>
<!-- Node9&#45;&gt;Node10 -->
<g id="edge14_Node000009_Node000010" class="edge">
<title>Node9&#45;&gt;Node10</title>
<g id="a_edge14_Node000009_Node000010"><a xlink:title=" ">
<path fill="none" stroke="#63b8ff" d="M392.84,-172.34C355.64,-168.98 305.07,-158.7 272,-129 243.08,-103.02 234.56,-55.63 232.05,-29.33"/>
<polygon fill="#63b8ff" stroke="#63b8ff" points="235.52,-28.89 231.28,-19.18 228.54,-29.42 235.52,-28.89"/>
</a>
</g>
</g>
<!-- Node11 -->
<g id="Node000011" class="node">
<title>Node11</title>
<g id="a_Node000011"><a xlink:title=" ">
<polygon fill="#e0e0e0" stroke="#999999" points="590,-74 512,-74 512,-55 590,-55 590,-74"/>
<text text-anchor="middle" x="551" y="-62" font-family="Helvetica,sans-Serif" font-size="10.00">libultra/gbi.h</text>
</a>
</g>
</g>
<!-- Node9&#45;&gt;Node11 -->
<g id="edge15_Node000009_Node000011" class="edge">
<title>Node9&#45;&gt;Node11</title>
<g id="a_edge15_Node000009_Node000011"><a xlink:title=" ">
<path fill="none" stroke="#63b8ff" d="M452.62,-164.8C463.87,-156.17 481.2,-142.34 495,-129 510.6,-113.91 526.84,-95.1 537.78,-81.89"/>
<polygon fill="#63b8ff" stroke="#63b8ff" points="540.53,-84.06 544.15,-74.1 535.11,-79.63 540.53,-84.06"/>
</a>
</g>
</g>
<!-- Node12 -->
<g id="Node000012" class="node">
<title>Node12</title>
<g id="a_Node000012"><a xlink:href="other__textures_8h.html" target="_top" xlink:title=" ">
<polygon fill="white" stroke="#666666" points="711.5,-129 580.5,-129 580.5,-110 711.5,-110 711.5,-129"/>
<text text-anchor="middle" x="646" y="-117" font-family="Helvetica,sans-Serif" font-size="10.00">assets/other_textures.h</text>
</a>
</g>
</g>
<!-- Node9&#45;&gt;Node12 -->
<g id="edge16_Node000009_Node000012" class="edge">
<title>Node9&#45;&gt;Node12</title>
<g id="a_edge16_Node000009_Node000012"><a xlink:title=" ">
<path fill="none" stroke="#63b8ff" d="M473.94,-164.98C508.95,-155.93 564.47,-141.58 602.93,-131.64"/>
<polygon fill="#63b8ff" stroke="#63b8ff" points="604,-134.97 612.81,-129.08 602.25,-128.2 604,-134.97"/>
</a>
</g>
</g>
<!-- Node14 -->
<g id="Node000014" class="node">
<title>Node14</title>
<g id="a_Node000014"><a xlink:href="animation_8h.html" target="_top" xlink:title=" ">
<polygon fill="white" stroke="#666666" points="953.5,-129 878.5,-129 878.5,-110 953.5,-110 953.5,-129"/>
<text text-anchor="middle" x="916" y="-117" font-family="Helvetica,sans-Serif" font-size="10.00">animation.h</text>
</a>
</g>
</g>
<!-- Node9&#45;&gt;Node14 -->
<g id="edge19_Node000009_Node000014" class="edge">
<title>Node9&#45;&gt;Node14</title>
<g id="a_edge19_Node000009_Node000014"><a xlink:title=" ">
<path fill="none" stroke="#63b8ff" d="M489.18,-166.14C492.16,-165.74 495.12,-165.35 498,-165 659.21,-145.17 703.2,-151.5 868.32,-128.97"/>
<polygon fill="#63b8ff" stroke="#63b8ff" points="868.91,-132.43 878.33,-127.59 867.95,-125.49 868.91,-132.43"/>
</a>
</g>
</g>
<!-- Node12&#45;&gt;Node4 -->
<g id="edge17_Node000012_Node000004" class="edge">
<title>Node12&#45;&gt;Node4</title>
<g id="a_edge17_Node000012_Node000004"><a xlink:title=" ">
<path fill="none" stroke="#63b8ff" d="M643.95,-109.66C639.89,-92.09 630.71,-52.45 625.27,-28.95"/>
<polygon fill="#63b8ff" stroke="#63b8ff" points="628.67,-28.11 623,-19.16 621.85,-29.69 628.67,-28.11"/>
</a>
</g>
</g>
<!-- Node13 -->
<g id="Node000013" class="node">
<title>Node13</title>
<g id="a_Node000013"><a xlink:href="align__asset__macro_8h.html" target="_top" xlink:title=" ">
<polygon fill="white" stroke="#666666" points="766.5,-74 649.5,-74 649.5,-55 766.5,-55 766.5,-74"/>
<text text-anchor="middle" x="708" y="-62" font-family="Helvetica,sans-Serif" font-size="10.00">align_asset_macro.h</text>
</a>
</g>
</g>
<!-- Node12&#45;&gt;Node13 -->
<g id="edge18_Node000012_Node000013" class="edge">
<title>Node12&#45;&gt;Node13</title>
<g id="a_edge18_Node000012_Node000013"><a xlink:title=" ">
<path fill="none" stroke="#63b8ff" d="M655.96,-109.98C665.13,-102.15 678.94,-90.34 690.03,-80.86"/>
<polygon fill="#63b8ff" stroke="#63b8ff" points="692.53,-83.33 697.86,-74.17 687.98,-78.01 692.53,-83.33"/>
</a>
</g>
</g>
<!-- Node14&#45;&gt;Node8 -->
<g id="edge20_Node000014_Node000008" class="edge">
<title>Node14&#45;&gt;Node8</title>
<g id="a_edge20_Node000014_Node000008"><a xlink:title=" ">
<path fill="none" stroke="#63b8ff" d="M935.92,-109.98C956.05,-101.38 987.38,-87.99 1010.41,-78.15"/>
<polygon fill="#63b8ff" stroke="#63b8ff" points="1011.9,-81.32 1019.71,-74.17 1009.14,-74.88 1011.9,-81.32"/>
</a>
</g>
</g>
<!-- Node15&#45;&gt;Node11 -->
<g id="edge22_Node000015_Node000011" class="edge">
<title>Node15&#45;&gt;Node11</title>
<g id="a_edge22_Node000015_Node000011"><a xlink:title=" ">
<path fill="none" stroke="#63b8ff" d="M642.26,-219.99C626.04,-203.73 591.07,-166.53 571,-129 563.41,-114.81 558.16,-97.27 554.95,-84.23"/>
<polygon fill="#63b8ff" stroke="#63b8ff" points="558.28,-83.09 552.65,-74.12 551.46,-84.64 558.28,-83.09"/>
</a>
</g>
</g>
<!-- Node15&#45;&gt;Node12 -->
<g id="edge25_Node000015_Node000012" class="edge">
<title>Node15&#45;&gt;Node12</title>
<g id="a_edge25_Node000015_Node000012"><a xlink:title=" ">
<path fill="none" stroke="#63b8ff" d="M650.59,-219.66C649.78,-202.17 647.96,-162.8 646.87,-139.27"/>
<polygon fill="#63b8ff" stroke="#63b8ff" points="650.36,-138.99 646.4,-129.16 643.37,-139.31 650.36,-138.99"/>
</a>
</g>
</g>
<!-- Node16 -->
<g id="Node000016" class="node">
<title>Node16</title>
<g id="a_Node000016"><a xlink:href="spline_8h.html" target="_top" xlink:title=" ">
<polygon fill="white" stroke="#666666" points="1103.5,-129 1048.5,-129 1048.5,-110 1103.5,-110 1103.5,-129"/>
<text text-anchor="middle" x="1076" y="-117" font-family="Helvetica,sans-Serif" font-size="10.00">spline.h</text>
</a>
</g>
</g>
<!-- Node15&#45;&gt;Node16 -->
<g id="edge23_Node000015_Node000016" class="edge">
<title>Node15&#45;&gt;Node16</title>
<g id="a_edge23_Node000015_Node000016"><a xlink:title=" ">
<path fill="none" stroke="#63b8ff" d="M703.23,-221.67C707.88,-221.09 712.53,-220.53 717,-220 791.36,-211.22 992.77,-229.8 1052,-184 1065.82,-173.31 1071.68,-153.72 1074.17,-139.11"/>
<polygon fill="#63b8ff" stroke="#63b8ff" points="1077.64,-139.51 1075.49,-129.14 1070.71,-138.59 1077.64,-139.51"/>
</a>
</g>
</g>
<!-- Node17 -->
<g id="Node000017" class="node">
<title>Node17</title>
<g id="a_Node000017"><a xlink:href="objects_8h.html" target="_top" xlink:title=" ">
<polygon fill="white" stroke="#666666" points="1042.5,-184 981.5,-184 981.5,-165 1042.5,-165 1042.5,-184"/>
<text text-anchor="middle" x="1012" y="-172" font-family="Helvetica,sans-Serif" font-size="10.00">objects.h</text>
</a>
</g>
</g>
<!-- Node15&#45;&gt;Node17 -->
<g id="edge26_Node000015_Node000017" class="edge">
<title>Node15&#45;&gt;Node17</title>
<g id="a_edge26_Node000015_Node000017"><a xlink:title=" ">
<path fill="none" stroke="#63b8ff" d="M703.11,-220.85C775.58,-210.21 905.29,-191.17 971.18,-181.49"/>
<polygon fill="#63b8ff" stroke="#63b8ff" points="971.8,-184.94 981.19,-180.02 970.79,-178.01 971.8,-184.94"/>
</a>
</g>
</g>
<!-- Node16&#45;&gt;Node8 -->
<g id="edge24_Node000016_Node000008" class="edge">
<title>Node16&#45;&gt;Node8</title>
<g id="a_edge24_Node000016_Node000008"><a xlink:title=" ">
<path fill="none" stroke="#63b8ff" d="M1070.06,-109.75C1065.02,-102.34 1057.66,-91.5 1051.49,-82.41"/>
<polygon fill="#63b8ff" stroke="#63b8ff" points="1054.35,-80.39 1045.83,-74.09 1048.56,-84.33 1054.35,-80.39"/>
</a>
</g>
</g>
<!-- Node17&#45;&gt;Node8 -->
<g id="edge28_Node000017_Node000008" class="edge">
<title>Node17&#45;&gt;Node8</title>
<g id="a_edge28_Node000017_Node000008"><a xlink:title=" ">
<path fill="none" stroke="#63b8ff" d="M1014.29,-164.66C1018.85,-147.09 1029.12,-107.45 1035.22,-83.95"/>
<polygon fill="#63b8ff" stroke="#63b8ff" points="1038.63,-84.72 1037.76,-74.16 1031.86,-82.96 1038.63,-84.72"/>
</a>
</g>
</g>
<!-- Node17&#45;&gt;Node16 -->
<g id="edge27_Node000017_Node000016" class="edge">
<title>Node17&#45;&gt;Node16</title>
<g id="a_edge27_Node000017_Node000016"><a xlink:title=" ">
<path fill="none" stroke="#63b8ff" d="M1022.28,-164.98C1031.84,-157.07 1046.28,-145.11 1057.78,-135.58"/>
<polygon fill="#63b8ff" stroke="#63b8ff" points="1060.06,-138.24 1065.53,-129.17 1055.6,-132.85 1060.06,-138.24"/>
</a>
</g>
</g>
<!-- Node19&#45;&gt;Node8 -->
<g id="edge31_Node000019_Node000008" class="edge">
<title>Node19&#45;&gt;Node8</title>
<g id="a_edge31_Node000019_Node000008"><a xlink:title=" ">
<path fill="none" stroke="#63b8ff" d="M584.79,-172.2C674.77,-168.73 895.21,-157.5 963,-129 988.07,-118.46 1011.34,-96.98 1025.59,-81.93"/>
<polygon fill="#63b8ff" stroke="#63b8ff" points="1028.37,-84.08 1032.54,-74.35 1023.21,-79.36 1028.37,-84.08"/>
</a>
</g>
</g>
<!-- Node20 -->
<g id="Node000020" class="node">
<title>Node20</title>
<g id="a_Node000020"><a xlink:href="mk64_8h.html" target="_top" xlink:title=" ">
<polygon fill="white" stroke="#666666" points="361.5,-129 308.5,-129 308.5,-110 361.5,-110 361.5,-129"/>
<text text-anchor="middle" x="335" y="-117" font-family="Helvetica,sans-Serif" font-size="10.00">mk64.h</text>
</a>
</g>
</g>
<!-- Node19&#45;&gt;Node20 -->
<g id="edge32_Node000019_Node000020" class="edge">
<title>Node19&#45;&gt;Node20</title>
<g id="a_edge32_Node000019_Node000020"><a xlink:title=" ">
<path fill="none" stroke="#63b8ff" d="M512.1,-164.98C473.63,-155.32 411.1,-139.62 371.56,-129.68"/>
<polygon fill="#63b8ff" stroke="#63b8ff" points="372.34,-126.27 361.79,-127.23 370.63,-133.06 372.34,-126.27"/>
</a>
</g>
</g>
<!-- Node20&#45;&gt;Node4 -->
<g id="edge33_Node000020_Node000004" class="edge">
<title>Node20&#45;&gt;Node4</title>
<g id="a_edge33_Node000020_Node000004"><a xlink:title=" ">
<path fill="none" stroke="#63b8ff" d="M351.81,-109.93C377.63,-96.96 428.83,-72.07 474,-55 508.47,-41.98 548.57,-30.04 578.17,-21.82"/>
<polygon fill="#63b8ff" stroke="#63b8ff" points="579.46,-25.1 588.17,-19.07 577.6,-18.35 579.46,-25.1"/>
</a>
</g>
</g>
<!-- Node20&#45;&gt;Node11 -->
<g id="edge36_Node000020_Node000011" class="edge">
<title>Node20&#45;&gt;Node11</title>
<g id="a_edge36_Node000020_Node000011"><a xlink:title=" ">
<path fill="none" stroke="#63b8ff" d="M361.92,-111.89C398.12,-103.01 462.95,-87.11 506.47,-76.43"/>
<polygon fill="#63b8ff" stroke="#63b8ff" points="507.35,-79.81 516.23,-74.03 505.68,-73.02 507.35,-79.81"/>
</a>
</g>
</g>
<!-- Node21 -->
<g id="Node000021" class="node">
<title>Node21</title>
<g id="a_Node000021"><a xlink:href="string_8h.html" target="_top" xlink:title=" ">
<polygon fill="white" stroke="#666666" points="325.5,-74 272.5,-74 272.5,-55 325.5,-55 325.5,-74"/>
<text text-anchor="middle" x="299" y="-62" font-family="Helvetica,sans-Serif" font-size="10.00">string.h</text>
</a>
</g>
</g>
<!-- Node20&#45;&gt;Node21 -->
<g id="edge34_Node000020_Node000021" class="edge">
<title>Node20&#45;&gt;Node21</title>
<g id="a_edge34_Node000020_Node000021"><a xlink:title=" ">
<path fill="none" stroke="#63b8ff" d="M329.06,-109.75C324.02,-102.34 316.66,-91.5 310.49,-82.41"/>
<polygon fill="#63b8ff" stroke="#63b8ff" points="313.35,-80.39 304.83,-74.09 307.56,-84.33 313.35,-80.39"/>
</a>
</g>
</g>
<!-- Node21&#45;&gt;Node10 -->
<g id="edge35_Node000021_Node000010" class="edge">
<title>Node21&#45;&gt;Node10</title>
<g id="a_edge35_Node000021_Node000010"><a xlink:title=" ">
<path fill="none" stroke="#63b8ff" d="M288.07,-54.98C277.92,-47.07 262.58,-35.11 250.35,-25.58"/>
<polygon fill="#63b8ff" stroke="#63b8ff" points="252.16,-22.56 242.12,-19.17 247.86,-28.08 252.16,-22.56"/>
</a>
</g>
</g>
<!-- Node22&#45;&gt;Node8 -->
<g id="edge40_Node000022_Node000008" class="edge">
<title>Node22&#45;&gt;Node8</title>
<g id="a_edge40_Node000022_Node000008"><a xlink:title=" ">
<path fill="none" stroke="#63b8ff" d="M863.67,-223.51C934.35,-217.33 1038.84,-204.96 1073,-184 1104.87,-164.45 1131.31,-142.6 1113,-110 1104.89,-95.56 1089.99,-85.26 1075.75,-78.22"/>
<polygon fill="#63b8ff" stroke="#63b8ff" points="1077.12,-75 1066.57,-74.06 1074.23,-81.38 1077.12,-75"/>
</a>
</g>
</g>
<!-- Node22&#45;&gt;Node19 -->
<g id="edge46_Node000022_Node000019" class="edge">
<title>Node22&#45;&gt;Node19</title>
<g id="a_edge46_Node000022_Node000019"><a xlink:title=" ">
<path fill="none" stroke="#63b8ff" d="M754.99,-219.98C711.32,-210.69 641.38,-195.8 594.59,-185.84"/>
<polygon fill="#63b8ff" stroke="#63b8ff" points="595.19,-182.39 584.68,-183.73 593.73,-189.24 595.19,-182.39"/>
</a>
</g>
</g>
<!-- Node22&#45;&gt;Node23 -->
<g id="edge38_Node000022_Node000023" class="edge">
<title>Node22&#45;&gt;Node23</title>
<g id="a_edge38_Node000022_Node000023"><a xlink:title=" ">
<path fill="none" stroke="#63b8ff" d="M862.16,-219.98C946.8,-209.25 1090.2,-191.07 1164.75,-181.62"/>
<polygon fill="#63b8ff" stroke="#63b8ff" points="1165.32,-185.07 1174.8,-180.34 1164.44,-178.13 1165.32,-185.07"/>
</a>
</g>
</g>
<!-- Node24 -->
<g id="Node000024" class="node">
<title>Node24</title>
<g id="a_Node000024"><a xlink:href="common__data_8h.html" target="_top" xlink:title=" ">
<polygon fill="white" stroke="#666666" points="860,-129 730,-129 730,-110 860,-110 860,-129"/>
<text text-anchor="middle" x="795" y="-117" font-family="Helvetica,sans-Serif" font-size="10.00">assets/common_data.h</text>
</a>
</g>
</g>
<!-- Node22&#45;&gt;Node24 -->
<g id="edge41_Node000022_Node000024" class="edge">
<title>Node22&#45;&gt;Node24</title>
<g id="a_edge41_Node000022_Node000024"><a xlink:title=" ">
<path fill="none" stroke="#63b8ff" d="M795,-219.66C795,-202.17 795,-162.8 795,-139.27"/>
<polygon fill="#63b8ff" stroke="#63b8ff" points="798.5,-139.16 795,-129.16 791.5,-139.16 798.5,-139.16"/>
</a>
</g>
</g>
<!-- Node23&#45;&gt;Node8 -->
<g id="edge39_Node000023_Node000008" class="edge">
<title>Node23&#45;&gt;Node8</title>
<g id="a_edge39_Node000023_Node000008"><a xlink:title=" ">
<path fill="none" stroke="#63b8ff" d="M1211.38,-164.75C1208.4,-151.09 1200.75,-124.72 1184,-110 1161.77,-90.46 1131.07,-79.5 1103.73,-73.35"/>
<polygon fill="#63b8ff" stroke="#63b8ff" points="1104.33,-69.9 1093.83,-71.3 1102.91,-76.76 1104.33,-69.9"/>
</a>
</g>
</g>
<!-- Node24&#45;&gt;Node4 -->
<g id="edge43_Node000024_Node000004" class="edge">
<title>Node24&#45;&gt;Node4</title>
<g id="a_edge43_Node000024_Node000004"><a xlink:title=" ">
<path fill="none" stroke="#63b8ff" d="M794.91,-109.79C794.28,-96.18 791.06,-69.89 776,-55 748.4,-27.7 705.23,-16.92 671.45,-12.77"/>
<polygon fill="#63b8ff" stroke="#63b8ff" points="671.61,-9.27 661.29,-11.69 670.86,-16.23 671.61,-9.27"/>
</a>
</g>
</g>
<!-- Node24&#45;&gt;Node8 -->
<g id="edge44_Node000024_Node000008" class="edge">
<title>Node24&#45;&gt;Node8</title>
<g id="a_edge44_Node000024_Node000008"><a xlink:title=" ">
<path fill="none" stroke="#63b8ff" d="M834.36,-109.98C876.74,-100.82 944.26,-86.21 990.28,-76.26"/>
<polygon fill="#63b8ff" stroke="#63b8ff" points="991.29,-79.62 1000.33,-74.08 989.81,-72.78 991.29,-79.62"/>
</a>
</g>
</g>
<!-- Node24&#45;&gt;Node11 -->
<g id="edge42_Node000024_Node000011" class="edge">
<title>Node24&#45;&gt;Node11</title>
<g id="a_edge42_Node000024_Node000011"><a xlink:title=" ">
<path fill="none" stroke="#63b8ff" d="M755.8,-109.98C713.47,-100.79 645.95,-86.13 600.11,-76.17"/>
<polygon fill="#63b8ff" stroke="#63b8ff" points="600.62,-72.7 590.11,-73.99 599.13,-79.54 600.62,-72.7"/>
</a>
</g>
</g>
<!-- Node24&#45;&gt;Node13 -->
<g id="edge45_Node000024_Node000013" class="edge">
<title>Node24&#45;&gt;Node13</title>
<g id="a_edge45_Node000024_Node000013"><a xlink:title=" ">
<path fill="none" stroke="#63b8ff" d="M781.02,-109.98C767.53,-101.77 746.87,-89.18 730.96,-79.49"/>
<polygon fill="#63b8ff" stroke="#63b8ff" points="732.59,-76.38 722.23,-74.17 728.95,-82.36 732.59,-76.38"/>
</a>
</g>
</g>
<!-- Node26&#45;&gt;Node4 -->
<g id="edge51_Node000026_Node000004" class="edge">
<title>Node26&#45;&gt;Node4</title>
<g id="a_edge51_Node000026_Node000004"><a xlink:title=" ">
<path fill="none" stroke="#63b8ff" d="M440.38,-109.99C452.35,-96.66 477.24,-70.75 503,-55 526.7,-40.51 555.89,-29.45 579.31,-21.99"/>
<polygon fill="#63b8ff" stroke="#63b8ff" points="580.44,-25.3 588.96,-19 578.37,-18.61 580.44,-25.3"/>
</a>
</g>
</g>
<!-- Node26&#45;&gt;Node6 -->
<g id="edge53_Node000026_Node000006" class="edge">
<title>Node26&#45;&gt;Node6</title>
<g id="a_edge53_Node000026_Node000006"><a xlink:title=" ">
<path fill="none" stroke="#63b8ff" d="M424.41,-109.75C416.84,-102.03 405.62,-90.6 396.49,-81.28"/>
<polygon fill="#63b8ff" stroke="#63b8ff" points="398.93,-78.78 389.43,-74.09 393.93,-83.68 398.93,-78.78"/>
</a>
</g>
</g>
<!-- Node26&#45;&gt;Node8 -->
<g id="edge54_Node000026_Node000008" class="edge">
<title>Node26&#45;&gt;Node8</title>
<g id="a_edge54_Node000026_Node000008"><a xlink:title=" ">
<path fill="none" stroke="#63b8ff" d="M486.07,-113.87C597.5,-104.14 855.46,-81.61 975.9,-71.1"/>
<polygon fill="#63b8ff" stroke="#63b8ff" points="976.42,-74.57 986.07,-70.21 975.81,-67.59 976.42,-74.57"/>
</a>
</g>
</g>
<!-- Node26&#45;&gt;Node11 -->
<g id="edge52_Node000026_Node000011" class="edge">
<title>Node26&#45;&gt;Node11</title>
<g id="a_edge52_Node000026_Node000011"><a xlink:title=" ">
<path fill="none" stroke="#63b8ff" d="M451.96,-109.98C471.03,-101.42 500.66,-88.11 522.55,-78.28"/>
<polygon fill="#63b8ff" stroke="#63b8ff" points="524.01,-81.46 531.7,-74.17 521.14,-75.07 524.01,-81.46"/>
</a>
</g>
</g>
<!-- Node27&#45;&gt;Node4 -->
<g id="edge57_Node000027_Node000004" class="edge">
<title>Node27&#45;&gt;Node4</title>
<g id="a_edge57_Node000027_Node000004"><a xlink:title=" ">
<path fill="none" stroke="#63b8ff" d="M1292.74,-109.91C1253.98,-95.97 1173.47,-68.62 1103,-55 947.4,-24.93 759.48,-15.01 671.3,-11.88"/>
<polygon fill="#63b8ff" stroke="#63b8ff" points="671.16,-8.37 661.05,-11.53 670.93,-15.37 671.16,-8.37"/>
</a>
</g>
</g>
<!-- Node27&#45;&gt;Node8 -->
<g id="edge61_Node000027_Node000008" class="edge">
<title>Node27&#45;&gt;Node8</title>
<g id="a_edge61_Node000027_Node000008"><a xlink:title=" ">
<path fill="none" stroke="#63b8ff" d="M1274.38,-110.51C1226.42,-101.3 1147.44,-86.13 1094.59,-75.98"/>
<polygon fill="#63b8ff" stroke="#63b8ff" points="1095.19,-72.53 1084.71,-74.09 1093.87,-79.41 1095.19,-72.53"/>
</a>
</g>
</g>
<!-- Node28 -->
<g id="Node000028" class="node">
<title>Node28</title>
<g id="a_Node000028"><a xlink:href="macros_8h.html" target="_top" xlink:title=" ">
<polygon fill="white" stroke="#666666" points="1347,-74 1285,-74 1285,-55 1347,-55 1347,-74"/>
<text text-anchor="middle" x="1316" y="-62" font-family="Helvetica,sans-Serif" font-size="10.00">macros.h</text>
</a>
</g>
</g>
<!-- Node27&#45;&gt;Node28 -->
<g id="edge58_Node000027_Node000028" class="edge">
<title>Node27&#45;&gt;Node28</title>
<g id="a_edge58_Node000027_Node000028"><a xlink:title=" ">
<path fill="none" stroke="#63b8ff" d="M1316,-109.75C1316,-102.8 1316,-92.85 1316,-84.13"/>
<polygon fill="#63b8ff" stroke="#63b8ff" points="1319.5,-84.09 1316,-74.09 1312.5,-84.09 1319.5,-84.09"/>
</a>
</g>
</g>
<!-- Node30 -->
<g id="Node000030" class="node">
<title>Node30</title>
<g id="a_Node000030"><a xlink:title=" ">
<polygon fill="#e0e0e0" stroke="#999999" points="1267,-74 1211,-74 1211,-55 1267,-55 1267,-74"/>
<text text-anchor="middle" x="1239" y="-62" font-family="Helvetica,sans-Serif" font-size="10.00">assert.h</text>
</a>
</g>
</g>
<!-- Node27&#45;&gt;Node30 -->
<g id="edge62_Node000027_Node000030" class="edge">
<title>Node27&#45;&gt;Node30</title>
<g id="a_edge62_Node000027_Node000030"><a xlink:title=" ">
<path fill="none" stroke="#63b8ff" d="M1303.63,-109.98C1291.91,-101.92 1274.08,-89.65 1260.11,-80.03"/>
<polygon fill="#63b8ff" stroke="#63b8ff" points="1261.82,-76.96 1251.6,-74.17 1257.85,-82.72 1261.82,-76.96"/>
</a>
</g>
</g>
<!-- Node28&#45;&gt;Node4 -->
<g id="edge60_Node000028_Node000004" class="edge">
<title>Node28&#45;&gt;Node4</title>
<g id="a_edge60_Node000028_Node000004"><a xlink:title=" ">
<path fill="none" stroke="#63b8ff" d="M1284.63,-56.4C1281.72,-55.87 1278.81,-55.39 1276,-55 1051.82,-23.73 781.28,-14.19 671.22,-11.49"/>
<polygon fill="#63b8ff" stroke="#63b8ff" points="671.16,-7.99 661.08,-11.25 670.99,-14.99 671.16,-7.99"/>
</a>
</g>
</g>
<!-- Node29 -->
<g id="Node000029" class="node">
<title>Node29</title>
<g id="a_Node000029"><a xlink:href="math_8h.html" target="_top" xlink:title=" ">
<polygon fill="white" stroke="#666666" points="1341.5,-19 1290.5,-19 1290.5,0 1341.5,0 1341.5,-19"/>
<text text-anchor="middle" x="1316" y="-7" font-family="Helvetica,sans-Serif" font-size="10.00">math.h</text>
</a>
</g>
</g>
<!-- Node28&#45;&gt;Node29 -->
<g id="edge59_Node000028_Node000029" class="edge">
<title>Node28&#45;&gt;Node29</title>
<g id="a_edge59_Node000028_Node000029"><a xlink:title=" ">
<path fill="none" stroke="#63b8ff" d="M1316,-54.75C1316,-47.8 1316,-37.85 1316,-29.13"/>
<polygon fill="#63b8ff" stroke="#63b8ff" points="1319.5,-29.09 1316,-19.09 1312.5,-29.09 1319.5,-29.09"/>
</a>
</g>
</g>
</g>
</svg>
