<?xml version="1.0" encoding="UTF-8" standalone="no"?>
<!DOCTYPE svg PUBLIC "-//W3C//DTD SVG 1.1//EN"
 "http://www.w3.org/Graphics/SVG/1.1/DTD/svg11.dtd">
<!-- Generated by graphviz version 2.43.0 (0)
 -->
<!-- Title: src/engine/courses/RainbowRoad.h Pages: 1 -->
<!--zoomable 379 -->

<svg id="main" version="1.1" xmlns="http://www.w3.org/2000/svg" xmlns:xlink="http://www.w3.org/1999/xlink" xml:space="preserve" onload="init(evt)">

<style type="text/css"><![CDATA[
.node, .edge {opacity: 0.7;}
.node.selected, .edge.selected {opacity: 1;}
.edge:hover path { stroke: red; }
.edge:hover polygon { stroke: red; fill: red; }
]]></style>

<defs>
  <circle id="rim" cx="0" cy="0" r="7"/>
  <circle id="rim2" cx="0" cy="0" r="3.5"/>
  <g id="zoomPlus">
    <use xlink:href="#rim" fill="#404040"><set attributeName="fill" to="#808080" begin="zoomplus.mouseover" end="zoomplus.mouseout"/></use>
    <path d="M-4,0h8M0,-4v8" fill="none" stroke="white" stroke-width="1.5" pointer-events="none"/>
  </g>
  <g id="zoomMin">
    <use xlink:href="#rim" fill="#404040"><set attributeName="fill" to="#808080" begin="zoomminus.mouseover" end="zoomminus.mouseout"/></use>
    <path d="M-4,0h8" fill="none" stroke="white" stroke-width="1.5" pointer-events="none"/>
  </g>
  <g id="arrowUp" transform="translate(30 24)">
    <use xlink:href="#rim"/>
    <path pointer-events="none" fill="none" stroke="white" stroke-width="1.5" d="M0,-3.0v7 M-2.5,-0.5L0,-3.0L2.5,-0.5"/>
  </g>
  <g id="arrowRight" transform="rotate(90) translate(36 -43)">
    <use xlink:href="#rim"/>
    <path pointer-events="none" fill="none" stroke="white" stroke-width="1.5" d="M0,-3.0v7 M-2.5,-0.5L0,-3.0L2.5,-0.5"/>
  </g>
  <g id="arrowDown" transform="rotate(180) translate(-30 -48)">
    <use xlink:href="#rim"/>
    <path pointer-events="none" fill="none" stroke="white" stroke-width="1.5" d="M0,-3.0v7 M-2.5,-0.5L0,-3.0L2.5,-0.5"/>
  </g>
  <g id="arrowLeft" transform="rotate(270) translate(-36 17)">
    <use xlink:href="#rim"/>
    <path pointer-events="none" fill="none" stroke="white" stroke-width="1.5" d="M0,-3.0v7 M-2.5,-0.5L0,-3.0L2.5,-0.5"/>
  </g>
  <g id="resetDef">
    <use xlink:href="#rim2" fill="#404040"><set attributeName="fill" to="#808080" begin="reset.mouseover" end="reset.mouseout"/></use>
  </g>
</defs>
<script type="application/ecmascript">
var viewWidth = 1369;
var viewHeight = 379;
var sectionId = 'dynsection-0';
</script>
<script type="application/ecmascript" xlink:href="svg.min.js"/>
<svg id="graph" class="graph">
<g id="viewport">
<title>src/engine/courses/RainbowRoad.h</title>
<!-- Node1 -->
<g id="Node000001" class="node">
<title>Node1</title>
<g id="a_Node000001"><a xlink:title=" ">
<polygon fill="#999999" stroke="#666666" points="963.5,-371 856.5,-371 856.5,-341 963.5,-341 963.5,-371"/>
<text text-anchor="start" x="864.5" y="-359" font-family="Helvetica,sans-Serif" font-size="10.00">src/engine/courses</text>
<text text-anchor="middle" x="910" y="-348" font-family="Helvetica,sans-Serif" font-size="10.00">/RainbowRoad.h</text>
</a>
</g>
</g>
<!-- Node2 -->
<g id="Node000002" class="node">
<title>Node2</title>
<g id="a_Node000002"><a xlink:title=" ">
<polygon fill="#e0e0e0" stroke="#999999" points="388,-19 308,-19 308,0 388,0 388,-19"/>
<text text-anchor="middle" x="348" y="-7" font-family="Helvetica,sans-Serif" font-size="10.00">libultraship.h</text>
</a>
</g>
</g>
<!-- Node1&#45;&gt;Node2 -->
<g id="edge1_Node000001_Node000002" class="edge">
<title>Node1&#45;&gt;Node2</title>
<g id="a_edge1_Node000001_Node000002"><a xlink:title=" ">
<path fill="none" stroke="#63b8ff" d="M963.51,-352.77C1082.97,-346.34 1361,-322.64 1361,-241.5 1361,-241.5 1361,-241.5 1361,-124 1361,-25.99 602.48,-12.61 398.17,-10.79"/>
<polygon fill="#63b8ff" stroke="#63b8ff" points="398.05,-7.29 388.02,-10.7 397.99,-14.29 398.05,-7.29"/>
</a>
</g>
</g>
<!-- Node3 -->
<g id="Node000003" class="node">
<title>Node3</title>
<g id="a_Node000003"><a xlink:href="Course_8h.html" target="_top" xlink:title=" ">
<polygon fill="white" stroke="#666666" points="872.5,-305 813.5,-305 813.5,-286 872.5,-286 872.5,-305"/>
<text text-anchor="middle" x="843" y="-293" font-family="Helvetica,sans-Serif" font-size="10.00">Course.h</text>
</a>
</g>
</g>
<!-- Node1&#45;&gt;Node3 -->
<g id="edge2_Node000001_Node000003" class="edge">
<title>Node1&#45;&gt;Node3</title>
<g id="a_edge2_Node000001_Node000003"><a xlink:title=" ">
<path fill="none" stroke="#63b8ff" d="M893.78,-340.84C883.76,-332.09 870.89,-320.85 860.62,-311.88"/>
<polygon fill="#63b8ff" stroke="#63b8ff" points="862.87,-309.21 853.04,-305.27 858.27,-314.48 862.87,-309.21"/>
</a>
</g>
</g>
<!-- Node6 -->
<g id="Node000006" class="node">
<title>Node6</title>
<g id="a_Node000006"><a xlink:href="camera_8h.html" target="_top" xlink:title=" ">
<polygon fill="white" stroke="#666666" points="552,-195 490,-195 490,-176 552,-176 552,-195"/>
<text text-anchor="middle" x="521" y="-183" font-family="Helvetica,sans-Serif" font-size="10.00">camera.h</text>
</a>
</g>
</g>
<!-- Node1&#45;&gt;Node6 -->
<g id="edge61_Node000001_Node000006" class="edge">
<title>Node1&#45;&gt;Node6</title>
<g id="a_edge61_Node000001_Node000006"><a xlink:title=" ">
<path fill="none" stroke="#63b8ff" d="M856.17,-348.27C759.87,-335.03 564.27,-302.23 523,-250 513.18,-237.57 513.75,-219.1 516.14,-205.28"/>
<polygon fill="#63b8ff" stroke="#63b8ff" points="519.58,-205.92 518.29,-195.4 512.74,-204.43 519.58,-205.92"/>
</a>
</g>
</g>
<!-- Node8 -->
<g id="Node000008" class="node">
<title>Node8</title>
<g id="a_Node000008"><a xlink:href="course__offsets_8h.html" target="_top" xlink:title=" ">
<polygon fill="white" stroke="#666666" points="472,-195 376,-195 376,-176 472,-176 472,-195"/>
<text text-anchor="middle" x="424" y="-183" font-family="Helvetica,sans-Serif" font-size="10.00">course_offsets.h</text>
</a>
</g>
</g>
<!-- Node1&#45;&gt;Node8 -->
<g id="edge60_Node000001_Node000008" class="edge">
<title>Node1&#45;&gt;Node8</title>
<g id="a_edge60_Node000001_Node000008"><a xlink:title=" ">
<path fill="none" stroke="#63b8ff" d="M856.3,-352.79C789.81,-348.72 673.85,-337.24 580,-305 532.76,-288.77 521.12,-281.06 482,-250 464.54,-236.14 447.72,-216.85 436.73,-203.18"/>
<polygon fill="#63b8ff" stroke="#63b8ff" points="439.33,-200.82 430.4,-195.11 433.82,-205.14 439.33,-200.82"/>
</a>
</g>
</g>
<!-- Node14 -->
<g id="Node000014" class="node">
<title>Node14</title>
<g id="a_Node000014"><a xlink:href="src_2data_2some__data_8h.html" target="_top" xlink:title=" ">
<polygon fill="white" stroke="#666666" points="1275,-250 1171,-250 1171,-231 1275,-231 1275,-250"/>
<text text-anchor="middle" x="1223" y="-238" font-family="Helvetica,sans-Serif" font-size="10.00">data/some_data.h</text>
</a>
</g>
</g>
<!-- Node1&#45;&gt;Node14 -->
<g id="edge62_Node000001_Node000014" class="edge">
<title>Node1&#45;&gt;Node14</title>
<g id="a_edge62_Node000001_Node000014"><a xlink:title=" ">
<path fill="none" stroke="#63b8ff" d="M948.69,-340.97C1010.7,-318.49 1131.25,-274.77 1189.67,-253.59"/>
<polygon fill="#63b8ff" stroke="#63b8ff" points="1190.95,-256.84 1199.16,-250.14 1188.57,-250.26 1190.95,-256.84"/>
</a>
</g>
</g>
<!-- Node16 -->
<g id="Node000016" class="node">
<title>Node16</title>
<g id="a_Node000016"><a xlink:href="objects_8h.html" target="_top" xlink:title=" ">
<polygon fill="white" stroke="#666666" points="1332.5,-195 1271.5,-195 1271.5,-176 1332.5,-176 1332.5,-195"/>
<text text-anchor="middle" x="1302" y="-183" font-family="Helvetica,sans-Serif" font-size="10.00">objects.h</text>
</a>
</g>
</g>
<!-- Node1&#45;&gt;Node16 -->
<g id="edge63_Node000001_Node000016" class="edge">
<title>Node1&#45;&gt;Node16</title>
<g id="a_edge63_Node000001_Node000016"><a xlink:title=" ">
<path fill="none" stroke="#63b8ff" d="M963.58,-355.5C1044.34,-353.26 1197.03,-336.85 1284,-250 1295.77,-238.24 1299.98,-219.4 1301.42,-205.29"/>
<polygon fill="#63b8ff" stroke="#63b8ff" points="1304.92,-205.41 1302.07,-195.21 1297.93,-204.96 1304.92,-205.41"/>
</a>
</g>
</g>
<!-- Node21 -->
<g id="Node000021" class="node">
<title>Node21</title>
<g id="a_Node000021"><a xlink:href="path__spawn__metadata_8h.html" target="_top" xlink:title=" ">
<polygon fill="white" stroke="#666666" points="1114.5,-250 977.5,-250 977.5,-231 1114.5,-231 1114.5,-250"/>
<text text-anchor="middle" x="1046" y="-238" font-family="Helvetica,sans-Serif" font-size="10.00">path_spawn_metadata.h</text>
</a>
</g>
</g>
<!-- Node1&#45;&gt;Node21 -->
<g id="edge64_Node000001_Node000021" class="edge">
<title>Node1&#45;&gt;Node21</title>
<g id="a_edge64_Node000001_Node000021"><a xlink:title=" ">
<path fill="none" stroke="#63b8ff" d="M926.95,-340.85C952.65,-319.41 1001.28,-278.82 1027.74,-256.74"/>
<polygon fill="#63b8ff" stroke="#63b8ff" points="1030.06,-259.37 1035.49,-250.27 1025.57,-253.99 1030.06,-259.37"/>
</a>
</g>
</g>
<!-- Node25 -->
<g id="Node000025" class="node">
<title>Node25</title>
<g id="a_Node000025"><a xlink:href="rainbow__road__vertices_8h.html" target="_top" xlink:title=" ">
<polygon fill="white" stroke="#666666" points="271.5,-140 154.5,-140 154.5,-110 271.5,-110 271.5,-140"/>
<text text-anchor="start" x="162.5" y="-128" font-family="Helvetica,sans-Serif" font-size="10.00">assets/rainbow_road</text>
<text text-anchor="middle" x="213" y="-117" font-family="Helvetica,sans-Serif" font-size="10.00">_vertices.h</text>
</a>
</g>
</g>
<!-- Node1&#45;&gt;Node25 -->
<g id="edge48_Node000001_Node000025" class="edge">
<title>Node1&#45;&gt;Node25</title>
<g id="a_edge48_Node000001_Node000025"><a xlink:title=" ">
<path fill="none" stroke="#63b8ff" d="M856.45,-351.89C756.71,-345.59 546.42,-329.78 478,-305 377.71,-268.68 278.7,-186.06 235.53,-147.09"/>
<polygon fill="#63b8ff" stroke="#63b8ff" points="237.64,-144.28 227.9,-140.12 232.93,-149.45 237.64,-144.28"/>
</a>
</g>
</g>
<!-- Node26 -->
<g id="Node000026" class="node">
<title>Node26</title>
<g id="a_Node000026"><a xlink:href="rainbow__road__displaylists_8h.html" target="_top" xlink:title=" ">
<polygon fill="white" stroke="#666666" points="406.5,-140 289.5,-140 289.5,-110 406.5,-110 406.5,-140"/>
<text text-anchor="start" x="297.5" y="-128" font-family="Helvetica,sans-Serif" font-size="10.00">assets/rainbow_road</text>
<text text-anchor="middle" x="348" y="-117" font-family="Helvetica,sans-Serif" font-size="10.00">_displaylists.h</text>
</a>
</g>
</g>
<!-- Node1&#45;&gt;Node26 -->
<g id="edge52_Node000001_Node000026" class="edge">
<title>Node1&#45;&gt;Node26</title>
<g id="a_edge52_Node000001_Node000026"><a xlink:title=" ">
<path fill="none" stroke="#63b8ff" d="M856.35,-355.66C780.83,-354.9 639.99,-347.22 529,-305 447.66,-274.06 417.67,-265.76 367,-195 357.6,-181.88 352.85,-164.31 350.45,-150.18"/>
<polygon fill="#63b8ff" stroke="#63b8ff" points="353.9,-149.59 349.03,-140.18 346.97,-150.58 353.9,-149.59"/>
</a>
</g>
</g>
<!-- Node27 -->
<g id="Node000027" class="node">
<title>Node27</title>
<g id="a_Node000027"><a xlink:href="rainbow__road__data_8h.html" target="_top" xlink:title=" ">
<polygon fill="white" stroke="#666666" points="618.5,-140 501.5,-140 501.5,-110 618.5,-110 618.5,-140"/>
<text text-anchor="start" x="509.5" y="-128" font-family="Helvetica,sans-Serif" font-size="10.00">assets/rainbow_road</text>
<text text-anchor="middle" x="560" y="-117" font-family="Helvetica,sans-Serif" font-size="10.00">_data.h</text>
</a>
</g>
</g>
<!-- Node1&#45;&gt;Node27 -->
<g id="edge56_Node000001_Node000027" class="edge">
<title>Node1&#45;&gt;Node27</title>
<g id="a_edge56_Node000001_Node000027"><a xlink:title=" ">
<path fill="none" stroke="#63b8ff" d="M913.73,-340.78C921.62,-307.02 935.93,-221.5 892,-176 852.81,-135.4 701.52,-148.55 628.71,-139.78"/>
<polygon fill="#63b8ff" stroke="#63b8ff" points="628.95,-136.28 618.56,-138.32 627.96,-143.21 628.95,-136.28"/>
</a>
</g>
</g>
<!-- Node4 -->
<g id="Node000004" class="node">
<title>Node4</title>
<g id="a_Node000004"><a xlink:title=" ">
<polygon fill="#e0e0e0" stroke="#999999" points="765,-250 627,-250 627,-231 765,-231 765,-250"/>
<text text-anchor="middle" x="696" y="-238" font-family="Helvetica,sans-Serif" font-size="10.00">libultraship/libultraship.h</text>
</a>
</g>
</g>
<!-- Node3&#45;&gt;Node4 -->
<g id="edge3_Node000003_Node000004" class="edge">
<title>Node3&#45;&gt;Node4</title>
<g id="a_edge3_Node000003_Node000004"><a xlink:title=" ">
<path fill="none" stroke="#63b8ff" d="M819.38,-285.98C795.1,-277.23 757.05,-263.51 729.63,-253.62"/>
<polygon fill="#63b8ff" stroke="#63b8ff" points="730.64,-250.27 720.05,-250.17 728.27,-256.85 730.64,-250.27"/>
</a>
</g>
</g>
<!-- Node5 -->
<g id="Node000005" class="node">
<title>Node5</title>
<g id="a_Node000005"><a xlink:href="CoreMath_8h.html" target="_top" xlink:title=" ">
<polygon fill="white" stroke="#666666" points="81.5,-195 8.5,-195 8.5,-176 81.5,-176 81.5,-195"/>
<text text-anchor="middle" x="45" y="-183" font-family="Helvetica,sans-Serif" font-size="10.00">CoreMath.h</text>
</a>
</g>
</g>
<!-- Node3&#45;&gt;Node5 -->
<g id="edge4_Node000003_Node000005" class="edge">
<title>Node3&#45;&gt;Node5</title>
<g id="a_edge4_Node000003_Node000005"><a xlink:title=" ">
<path fill="none" stroke="#63b8ff" d="M813.49,-291.08C751.86,-283.89 604.98,-266.51 482,-250 339.65,-230.89 171.62,-205.74 91.73,-193.63"/>
<polygon fill="#63b8ff" stroke="#63b8ff" points="91.92,-190.12 81.51,-192.08 90.87,-197.04 91.92,-190.12"/>
</a>
</g>
</g>
<!-- Node3&#45;&gt;Node6 -->
<g id="edge6_Node000003_Node000006" class="edge">
<title>Node3&#45;&gt;Node6</title>
<g id="a_edge6_Node000003_Node000006"><a xlink:title=" ">
<path fill="none" stroke="#63b8ff" d="M813.41,-294.08C745.38,-292.51 580.57,-285.08 540,-250 527.22,-238.95 522.85,-219.7 521.45,-205.28"/>
<polygon fill="#63b8ff" stroke="#63b8ff" points="524.93,-204.79 520.85,-195.01 517.94,-205.19 524.93,-204.79"/>
</a>
</g>
</g>
<!-- Node7 -->
<g id="Node000007" class="node">
<title>Node7</title>
<g id="a_Node000007"><a xlink:href="common__structs_8h.html" target="_top" xlink:title=" ">
<polygon fill="white" stroke="#666666" points="1148.5,-74 1041.5,-74 1041.5,-55 1148.5,-55 1148.5,-74"/>
<text text-anchor="middle" x="1095" y="-62" font-family="Helvetica,sans-Serif" font-size="10.00">common_structs.h</text>
</a>
</g>
</g>
<!-- Node3&#45;&gt;Node7 -->
<g id="edge47_Node000003_Node000007" class="edge">
<title>Node3&#45;&gt;Node7</title>
<g id="a_edge47_Node000003_Node000007"><a xlink:title=" ">
<path fill="none" stroke="#63b8ff" d="M859.16,-285.96C907.36,-260.2 1048.56,-182.42 1078,-140 1089.44,-123.51 1093.3,-100.5 1094.54,-84.42"/>
<polygon fill="#63b8ff" stroke="#63b8ff" points="1098.05,-84.3 1095.05,-74.14 1091.06,-83.95 1098.05,-84.3"/>
</a>
</g>
</g>
<!-- Node3&#45;&gt;Node8 -->
<g id="edge10_Node000003_Node000008" class="edge">
<title>Node3&#45;&gt;Node8</title>
<g id="a_edge10_Node000003_Node000008"><a xlink:title=" ">
<path fill="none" stroke="#63b8ff" d="M813.3,-294.57C755.53,-293.81 624.8,-287.65 523,-250 492.25,-238.63 461.13,-216.54 442.19,-201.65"/>
<polygon fill="#63b8ff" stroke="#63b8ff" points="444.15,-198.73 434.17,-195.19 439.76,-204.19 444.15,-198.73"/>
</a>
</g>
</g>
<!-- Node3&#45;&gt;Node14 -->
<g id="edge19_Node000003_Node000014" class="edge">
<title>Node3&#45;&gt;Node14</title>
<g id="a_edge19_Node000003_Node000014"><a xlink:title=" ">
<path fill="none" stroke="#63b8ff" d="M872.5,-290.39C934.19,-281.78 1077.95,-261.73 1160.92,-250.16"/>
<polygon fill="#63b8ff" stroke="#63b8ff" points="1161.56,-253.6 1170.98,-248.76 1160.59,-246.67 1161.56,-253.6"/>
</a>
</g>
</g>
<!-- Node17 -->
<g id="Node000017" class="node">
<title>Node17</title>
<g id="a_Node000017"><a xlink:href="defines_8h.html" target="_top" xlink:title=" ">
<polygon fill="white" stroke="#666666" points="844.5,-250 783.5,-250 783.5,-231 844.5,-231 844.5,-250"/>
<text text-anchor="middle" x="814" y="-238" font-family="Helvetica,sans-Serif" font-size="10.00">defines.h</text>
</a>
</g>
</g>
<!-- Node3&#45;&gt;Node17 -->
<g id="edge27_Node000003_Node000017" class="edge">
<title>Node3&#45;&gt;Node17</title>
<g id="a_edge27_Node000003_Node000017"><a xlink:title=" ">
<path fill="none" stroke="#63b8ff" d="M838.21,-285.75C834.24,-278.49 828.47,-267.95 823.57,-258.98"/>
<polygon fill="#63b8ff" stroke="#63b8ff" points="826.57,-257.18 818.7,-250.09 820.43,-260.54 826.57,-257.18"/>
</a>
</g>
</g>
<!-- Node18 -->
<g id="Node000018" class="node">
<title>Node18</title>
<g id="a_Node000018"><a xlink:href="bomb__kart_8h.html" target="_top" xlink:title=" ">
<polygon fill="white" stroke="#666666" points="882.5,-195 805.5,-195 805.5,-176 882.5,-176 882.5,-195"/>
<text text-anchor="middle" x="844" y="-183" font-family="Helvetica,sans-Serif" font-size="10.00">bomb_kart.h</text>
</a>
</g>
</g>
<!-- Node3&#45;&gt;Node18 -->
<g id="edge28_Node000003_Node000018" class="edge">
<title>Node3&#45;&gt;Node18</title>
<g id="a_edge28_Node000003_Node000018"><a xlink:title=" ">
<path fill="none" stroke="#63b8ff" d="M845.83,-285.75C848.55,-276.86 852.46,-262.64 854,-250 855.86,-234.75 852.82,-217.54 849.62,-204.88"/>
<polygon fill="#63b8ff" stroke="#63b8ff" points="852.95,-203.79 846.89,-195.1 846.21,-205.67 852.95,-203.79"/>
</a>
</g>
</g>
<!-- Node3&#45;&gt;Node21 -->
<g id="edge35_Node000003_Node000021" class="edge">
<title>Node3&#45;&gt;Node21</title>
<g id="a_edge35_Node000003_Node000021"><a xlink:title=" ">
<path fill="none" stroke="#63b8ff" d="M872.52,-286.79C907.01,-277.79 964.36,-262.81 1003.61,-252.57"/>
<polygon fill="#63b8ff" stroke="#63b8ff" points="1004.63,-255.92 1013.42,-250.01 1002.86,-249.15 1004.63,-255.92"/>
</a>
</g>
</g>
<!-- Node22 -->
<g id="Node000022" class="node">
<title>Node22</title>
<g id="a_Node000022"><a xlink:href="waypoints_8h.html" target="_top" xlink:title=" ">
<polygon fill="white" stroke="#666666" points="1139,-195 1063,-195 1063,-176 1139,-176 1139,-195"/>
<text text-anchor="middle" x="1101" y="-183" font-family="Helvetica,sans-Serif" font-size="10.00">waypoints.h</text>
</a>
</g>
</g>
<!-- Node3&#45;&gt;Node22 -->
<g id="edge45_Node000003_Node000022" class="edge">
<title>Node3&#45;&gt;Node22</title>
<g id="a_edge45_Node000003_Node000022"><a xlink:title=" ">
<path fill="none" stroke="#63b8ff" d="M872.85,-294.44C938.46,-293.59 1091.92,-287.56 1124,-250 1135.37,-236.69 1125.65,-217.31 1115.58,-203.46"/>
<polygon fill="#63b8ff" stroke="#63b8ff" points="1118.07,-200.97 1109.13,-195.28 1112.57,-205.3 1118.07,-200.97"/>
</a>
</g>
</g>
<!-- Node24 -->
<g id="Node000024" class="node">
<title>Node24</title>
<g id="a_Node000024"><a xlink:href="sounds_8h.html" target="_top" xlink:title=" ">
<polygon fill="white" stroke="#666666" points="609,-250 549,-250 549,-231 609,-231 609,-250"/>
<text text-anchor="middle" x="579" y="-238" font-family="Helvetica,sans-Serif" font-size="10.00">sounds.h</text>
</a>
</g>
</g>
<!-- Node3&#45;&gt;Node24 -->
<g id="edge46_Node000003_Node000024" class="edge">
<title>Node3&#45;&gt;Node24</title>
<g id="a_edge46_Node000003_Node000024"><a xlink:title=" ">
<path fill="none" stroke="#63b8ff" d="M813.48,-288.85C772.29,-280.93 694.99,-265.91 619.39,-250.26"/>
<polygon fill="#63b8ff" stroke="#63b8ff" points="619.72,-246.75 609.22,-248.15 618.3,-253.61 619.72,-246.75"/>
</a>
</g>
</g>
<!-- Node5&#45;&gt;Node2 -->
<g id="edge5_Node000005_Node000002" class="edge">
<title>Node5&#45;&gt;Node2</title>
<g id="a_edge5_Node000005_Node000002"><a xlink:title=" ">
<path fill="none" stroke="#63b8ff" d="M38.63,-175.84C32.74,-167.25 24.39,-153.45 21,-140 16.82,-123.43 23.61,-56.48 25,-55 61.16,-16.44 216.47,-10.46 297.83,-10.04"/>
<polygon fill="#63b8ff" stroke="#63b8ff" points="297.86,-13.54 307.85,-10.02 297.84,-6.54 297.86,-13.54"/>
</a>
</g>
</g>
<!-- Node6&#45;&gt;Node2 -->
<g id="edge7_Node000006_Node000002" class="edge">
<title>Node6&#45;&gt;Node2</title>
<g id="a_edge7_Node000006_Node000002"><a xlink:title=" ">
<path fill="none" stroke="#63b8ff" d="M489.62,-177.46C486.72,-176.92 483.81,-176.42 481,-176 436.1,-169.27 104.65,-173.49 74,-140 48.49,-112.14 49.52,-83.77 74,-55 102.16,-21.89 226.67,-13.35 297.77,-11.19"/>
<polygon fill="#63b8ff" stroke="#63b8ff" points="297.96,-14.68 307.86,-10.91 297.76,-7.69 297.96,-14.68"/>
</a>
</g>
</g>
<!-- Node6&#45;&gt;Node7 -->
<g id="edge8_Node000006_Node000007" class="edge">
<title>Node6&#45;&gt;Node7</title>
<g id="a_edge8_Node000006_Node000007"><a xlink:title=" ">
<path fill="none" stroke="#63b8ff" d="M552.33,-184.43C648.08,-183.78 935.35,-178.59 1019,-140 1026.41,-136.58 1059.75,-102.44 1079.73,-81.58"/>
<polygon fill="#63b8ff" stroke="#63b8ff" points="1082.51,-83.73 1086.89,-74.08 1077.45,-78.9 1082.51,-83.73"/>
</a>
</g>
</g>
<!-- Node7&#45;&gt;Node2 -->
<g id="edge9_Node000007_Node000002" class="edge">
<title>Node7&#45;&gt;Node2</title>
<g id="a_edge9_Node000007_Node000002"><a xlink:title=" ">
<path fill="none" stroke="#63b8ff" d="M1041.28,-59.69C902.39,-49.83 532.87,-23.62 398.09,-14.05"/>
<polygon fill="#63b8ff" stroke="#63b8ff" points="398.27,-10.56 388.05,-13.34 397.77,-17.54 398.27,-10.56"/>
</a>
</g>
</g>
<!-- Node8&#45;&gt;Node2 -->
<g id="edge11_Node000008_Node000002" class="edge">
<title>Node8&#45;&gt;Node2</title>
<g id="a_edge11_Node000008_Node000002"><a xlink:title=" ">
<path fill="none" stroke="#63b8ff" d="M375.84,-182.42C277.91,-177.7 62.93,-164.62 41,-140 15.88,-111.79 16.28,-83.56 41,-55 73.59,-17.34 219.32,-10.87 297.71,-10.18"/>
<polygon fill="#63b8ff" stroke="#63b8ff" points="297.87,-13.68 307.84,-10.12 297.82,-6.68 297.87,-13.68"/>
</a>
</g>
</g>
<!-- Node9 -->
<g id="Node000009" class="node">
<title>Node9</title>
<g id="a_Node000009"><a xlink:title=" ">
<polygon fill="#e0e0e0" stroke="#999999" points="90,-19 0,-19 0,0 90,0 90,-19"/>
<text text-anchor="middle" x="45" y="-7" font-family="Helvetica,sans-Serif" font-size="10.00">libultra/types.h</text>
</a>
</g>
</g>
<!-- Node8&#45;&gt;Node9 -->
<g id="edge12_Node000008_Node000009" class="edge">
<title>Node8&#45;&gt;Node9</title>
<g id="a_edge12_Node000008_Node000009"><a xlink:title=" ">
<path fill="none" stroke="#63b8ff" d="M375.67,-182.71C273.77,-178.44 44.31,-166.02 21,-140 -7.12,-108.6 17.71,-55.26 33.81,-27.87"/>
<polygon fill="#63b8ff" stroke="#63b8ff" points="36.98,-29.39 39.23,-19.04 31.01,-25.73 36.98,-29.39"/>
</a>
</g>
</g>
<!-- Node10 -->
<g id="Node000010" class="node">
<title>Node10</title>
<g id="a_Node000010"><a xlink:title=" ">
<polygon fill="#e0e0e0" stroke="#999999" points="464,-74 386,-74 386,-55 464,-55 464,-74"/>
<text text-anchor="middle" x="425" y="-62" font-family="Helvetica,sans-Serif" font-size="10.00">libultra/gbi.h</text>
</a>
</g>
</g>
<!-- Node8&#45;&gt;Node10 -->
<g id="edge13_Node000008_Node000010" class="edge">
<title>Node8&#45;&gt;Node10</title>
<g id="a_edge13_Node000008_Node000010"><a xlink:title=" ">
<path fill="none" stroke="#63b8ff" d="M424.07,-175.94C424.23,-156.91 424.62,-110.69 424.84,-84.47"/>
<polygon fill="#63b8ff" stroke="#63b8ff" points="428.34,-84.33 424.93,-74.3 421.34,-84.27 428.34,-84.33"/>
</a>
</g>
</g>
<!-- Node11 -->
<g id="Node000011" class="node">
<title>Node11</title>
<g id="a_Node000011"><a xlink:href="other__textures_8h.html" target="_top" xlink:title=" ">
<polygon fill="white" stroke="#666666" points="916.5,-134.5 785.5,-134.5 785.5,-115.5 916.5,-115.5 916.5,-134.5"/>
<text text-anchor="middle" x="851" y="-122.5" font-family="Helvetica,sans-Serif" font-size="10.00">assets/other_textures.h</text>
</a>
</g>
</g>
<!-- Node8&#45;&gt;Node11 -->
<g id="edge14_Node000008_Node000011" class="edge">
<title>Node8&#45;&gt;Node11</title>
<g id="a_edge14_Node000008_Node000011"><a xlink:title=" ">
<path fill="none" stroke="#63b8ff" d="M472.19,-177.22C475.17,-176.8 478.12,-176.39 481,-176 611.89,-158.26 645.46,-160.13 776,-140 783.11,-138.9 790.58,-137.64 797.93,-136.34"/>
<polygon fill="#63b8ff" stroke="#63b8ff" points="798.64,-139.77 807.85,-134.54 797.39,-132.88 798.64,-139.77"/>
</a>
</g>
</g>
<!-- Node13 -->
<g id="Node000013" class="node">
<title>Node13</title>
<g id="a_Node000013"><a xlink:href="animation_8h.html" target="_top" xlink:title=" ">
<polygon fill="white" stroke="#666666" points="1009.5,-134.5 934.5,-134.5 934.5,-115.5 1009.5,-115.5 1009.5,-134.5"/>
<text text-anchor="middle" x="972" y="-122.5" font-family="Helvetica,sans-Serif" font-size="10.00">animation.h</text>
</a>
</g>
</g>
<!-- Node8&#45;&gt;Node13 -->
<g id="edge17_Node000008_Node000013" class="edge">
<title>Node8&#45;&gt;Node13</title>
<g id="a_edge17_Node000008_Node000013"><a xlink:title=" ">
<path fill="none" stroke="#63b8ff" d="M472.17,-177.08C475.16,-176.7 478.12,-176.33 481,-176 678.13,-153.35 731.08,-177.1 926,-140 929.86,-139.27 933.85,-138.33 937.8,-137.29"/>
<polygon fill="#63b8ff" stroke="#63b8ff" points="938.76,-140.65 947.42,-134.55 936.84,-133.92 938.76,-140.65"/>
</a>
</g>
</g>
<!-- Node11&#45;&gt;Node2 -->
<g id="edge15_Node000011_Node000002" class="edge">
<title>Node11&#45;&gt;Node2</title>
<g id="a_edge15_Node000011_Node000002"><a xlink:title=" ">
<path fill="none" stroke="#63b8ff" d="M830.58,-115.43C795.1,-100.86 719.47,-71.27 653,-55 564.8,-33.41 459.53,-20.89 398.56,-14.9"/>
<polygon fill="#63b8ff" stroke="#63b8ff" points="398.73,-11.4 388.44,-13.93 398.05,-18.37 398.73,-11.4"/>
</a>
</g>
</g>
<!-- Node12 -->
<g id="Node000012" class="node">
<title>Node12</title>
<g id="a_Node000012"><a xlink:href="align__asset__macro_8h.html" target="_top" xlink:title=" ">
<polygon fill="white" stroke="#666666" points="599.5,-74 482.5,-74 482.5,-55 599.5,-55 599.5,-74"/>
<text text-anchor="middle" x="541" y="-62" font-family="Helvetica,sans-Serif" font-size="10.00">align_asset_macro.h</text>
</a>
</g>
</g>
<!-- Node11&#45;&gt;Node12 -->
<g id="edge16_Node000011_Node000012" class="edge">
<title>Node11&#45;&gt;Node12</title>
<g id="a_edge16_Node000011_Node000012"><a xlink:title=" ">
<path fill="none" stroke="#63b8ff" d="M805.92,-115.49C750.36,-105.01 655.98,-87.2 596.15,-75.91"/>
<polygon fill="#63b8ff" stroke="#63b8ff" points="596.61,-72.43 586.13,-74.02 595.31,-79.31 596.61,-72.43"/>
</a>
</g>
</g>
<!-- Node13&#45;&gt;Node7 -->
<g id="edge18_Node000013_Node000007" class="edge">
<title>Node13&#45;&gt;Node7</title>
<g id="a_edge18_Node000013_Node000007"><a xlink:title=" ">
<path fill="none" stroke="#63b8ff" d="M989.89,-115.49C1010.38,-105.75 1044.19,-89.66 1067.92,-78.38"/>
<polygon fill="#63b8ff" stroke="#63b8ff" points="1069.57,-81.47 1077.09,-74.02 1066.56,-75.15 1069.57,-81.47"/>
</a>
</g>
</g>
<!-- Node14&#45;&gt;Node10 -->
<g id="edge20_Node000014_Node000010" class="edge">
<title>Node14&#45;&gt;Node10</title>
<g id="a_edge20_Node000014_Node000010"><a xlink:title=" ">
<path fill="none" stroke="#63b8ff" d="M1216.24,-230.95C1204.28,-216.55 1177.8,-187.86 1148,-176 1012.35,-122.02 623.68,-203.05 492,-140 466.58,-127.83 446.5,-101.23 435.19,-83.33"/>
<polygon fill="#63b8ff" stroke="#63b8ff" points="437.98,-81.19 429.82,-74.44 431.99,-84.81 437.98,-81.19"/>
</a>
</g>
</g>
<!-- Node14&#45;&gt;Node11 -->
<g id="edge23_Node000014_Node000011" class="edge">
<title>Node14&#45;&gt;Node11</title>
<g id="a_edge23_Node000014_Node000011"><a xlink:title=" ">
<path fill="none" stroke="#63b8ff" d="M1219.96,-230.8C1214.54,-216.7 1201.79,-189.13 1181,-176 1084.23,-114.88 1038.95,-158.51 926,-140 919.24,-138.89 912.15,-137.66 905.13,-136.4"/>
<polygon fill="#63b8ff" stroke="#63b8ff" points="905.43,-132.9 894.96,-134.54 904.17,-139.78 905.43,-132.9"/>
</a>
</g>
</g>
<!-- Node15 -->
<g id="Node000015" class="node">
<title>Node15</title>
<g id="a_Node000015"><a xlink:href="spline_8h.html" target="_top" xlink:title=" ">
<polygon fill="white" stroke="#666666" points="1273.5,-134.5 1218.5,-134.5 1218.5,-115.5 1273.5,-115.5 1273.5,-134.5"/>
<text text-anchor="middle" x="1246" y="-122.5" font-family="Helvetica,sans-Serif" font-size="10.00">spline.h</text>
</a>
</g>
</g>
<!-- Node14&#45;&gt;Node15 -->
<g id="edge21_Node000014_Node000015" class="edge">
<title>Node14&#45;&gt;Node15</title>
<g id="a_edge21_Node000014_Node000015"><a xlink:title=" ">
<path fill="none" stroke="#63b8ff" d="M1224.73,-230.97C1228.43,-212.73 1237.17,-169.57 1242.22,-144.64"/>
<polygon fill="#63b8ff" stroke="#63b8ff" points="1245.7,-145.13 1244.25,-134.63 1238.83,-143.74 1245.7,-145.13"/>
</a>
</g>
</g>
<!-- Node14&#45;&gt;Node16 -->
<g id="edge24_Node000014_Node000016" class="edge">
<title>Node14&#45;&gt;Node16</title>
<g id="a_edge24_Node000014_Node000016"><a xlink:title=" ">
<path fill="none" stroke="#63b8ff" d="M1235.69,-230.98C1247.83,-222.84 1266.36,-210.41 1280.75,-200.76"/>
<polygon fill="#63b8ff" stroke="#63b8ff" points="1282.72,-203.65 1289.08,-195.17 1278.82,-197.84 1282.72,-203.65"/>
</a>
</g>
</g>
<!-- Node15&#45;&gt;Node7 -->
<g id="edge22_Node000015_Node000007" class="edge">
<title>Node15&#45;&gt;Node7</title>
<g id="a_edge22_Node000015_Node000007"><a xlink:title=" ">
<path fill="none" stroke="#63b8ff" d="M1224.04,-115.49C1198.32,-105.53 1155.52,-88.95 1126.32,-77.63"/>
<polygon fill="#63b8ff" stroke="#63b8ff" points="1127.57,-74.37 1116.98,-74.02 1125.04,-80.89 1127.57,-74.37"/>
</a>
</g>
</g>
<!-- Node16&#45;&gt;Node7 -->
<g id="edge26_Node000016_Node000007" class="edge">
<title>Node16&#45;&gt;Node7</title>
<g id="a_edge26_Node000016_Node000007"><a xlink:title=" ">
<path fill="none" stroke="#63b8ff" d="M1302.47,-175.74C1302.79,-160.2 1301.09,-127.78 1283,-110 1265.41,-92.71 1206.01,-80.6 1158.62,-73.43"/>
<polygon fill="#63b8ff" stroke="#63b8ff" points="1159.12,-69.96 1148.71,-71.97 1158.1,-76.89 1159.12,-69.96"/>
</a>
</g>
</g>
<!-- Node16&#45;&gt;Node15 -->
<g id="edge25_Node000016_Node000015" class="edge">
<title>Node16&#45;&gt;Node15</title>
<g id="a_edge25_Node000016_Node000015"><a xlink:title=" ">
<path fill="none" stroke="#63b8ff" d="M1293.74,-175.87C1285.22,-166.97 1271.74,-152.89 1261.27,-141.95"/>
<polygon fill="#63b8ff" stroke="#63b8ff" points="1263.74,-139.47 1254.3,-134.67 1258.68,-144.31 1263.74,-139.47"/>
</a>
</g>
</g>
<!-- Node18&#45;&gt;Node7 -->
<g id="edge29_Node000018_Node000007" class="edge">
<title>Node18&#45;&gt;Node7</title>
<g id="a_edge29_Node000018_Node000007"><a xlink:title=" ">
<path fill="none" stroke="#63b8ff" d="M882.69,-177.97C939.02,-168.21 1038.41,-149.89 1052,-140 1071.1,-126.1 1083.01,-100.94 1089.33,-83.73"/>
<polygon fill="#63b8ff" stroke="#63b8ff" points="1092.66,-84.82 1092.55,-74.22 1086.03,-82.57 1092.66,-84.82"/>
</a>
</g>
</g>
<!-- Node19 -->
<g id="Node000019" class="node">
<title>Node19</title>
<g id="a_Node000019"><a xlink:href="mk64_8h.html" target="_top" xlink:title=" ">
<polygon fill="white" stroke="#666666" points="136.5,-134.5 83.5,-134.5 83.5,-115.5 136.5,-115.5 136.5,-134.5"/>
<text text-anchor="middle" x="110" y="-122.5" font-family="Helvetica,sans-Serif" font-size="10.00">mk64.h</text>
</a>
</g>
</g>
<!-- Node18&#45;&gt;Node19 -->
<g id="edge30_Node000018_Node000019" class="edge">
<title>Node18&#45;&gt;Node19</title>
<g id="a_edge30_Node000018_Node000019"><a xlink:title=" ">
<path fill="none" stroke="#63b8ff" d="M805.32,-183.65C677.93,-180.58 272.36,-168.75 145,-140 142.63,-139.46 140.21,-138.79 137.81,-138.03"/>
<polygon fill="#63b8ff" stroke="#63b8ff" points="138.77,-134.66 128.18,-134.54 136.39,-141.24 138.77,-134.66"/>
</a>
</g>
</g>
<!-- Node19&#45;&gt;Node2 -->
<g id="edge31_Node000019_Node000002" class="edge">
<title>Node19&#45;&gt;Node2</title>
<g id="a_edge31_Node000019_Node000002"><a xlink:title=" ">
<path fill="none" stroke="#63b8ff" d="M127.89,-115.47C169.24,-95.75 271.65,-46.91 320.82,-23.46"/>
<polygon fill="#63b8ff" stroke="#63b8ff" points="322.38,-26.59 329.9,-19.13 319.37,-20.28 322.38,-26.59"/>
</a>
</g>
</g>
<!-- Node19&#45;&gt;Node10 -->
<g id="edge34_Node000019_Node000010" class="edge">
<title>Node19&#45;&gt;Node10</title>
<g id="a_edge34_Node000019_Node000010"><a xlink:title=" ">
<path fill="none" stroke="#63b8ff" d="M129.36,-115.37C134.38,-113.38 139.83,-111.43 145,-110 224.29,-88.14 319.37,-75.86 375.84,-69.96"/>
<polygon fill="#63b8ff" stroke="#63b8ff" points="376.33,-73.43 385.92,-68.94 375.62,-66.47 376.33,-73.43"/>
</a>
</g>
</g>
<!-- Node20 -->
<g id="Node000020" class="node">
<title>Node20</title>
<g id="a_Node000020"><a xlink:href="string_8h.html" target="_top" xlink:title=" ">
<polygon fill="white" stroke="#666666" points="136.5,-74 83.5,-74 83.5,-55 136.5,-55 136.5,-74"/>
<text text-anchor="middle" x="110" y="-62" font-family="Helvetica,sans-Serif" font-size="10.00">string.h</text>
</a>
</g>
</g>
<!-- Node19&#45;&gt;Node20 -->
<g id="edge32_Node000019_Node000020" class="edge">
<title>Node19&#45;&gt;Node20</title>
<g id="a_edge32_Node000019_Node000020"><a xlink:title=" ">
<path fill="none" stroke="#63b8ff" d="M110,-115.37C110,-107.25 110,-94.81 110,-84.39"/>
<polygon fill="#63b8ff" stroke="#63b8ff" points="113.5,-84.17 110,-74.17 106.5,-84.17 113.5,-84.17"/>
</a>
</g>
</g>
<!-- Node20&#45;&gt;Node9 -->
<g id="edge33_Node000020_Node000009" class="edge">
<title>Node20&#45;&gt;Node9</title>
<g id="a_edge33_Node000020_Node000009"><a xlink:title=" ">
<path fill="none" stroke="#63b8ff" d="M99.56,-54.98C89.85,-47.07 75.18,-35.11 63.5,-25.58"/>
<polygon fill="#63b8ff" stroke="#63b8ff" points="65.6,-22.78 55.63,-19.17 61.17,-28.2 65.6,-22.78"/>
</a>
</g>
</g>
<!-- Node21&#45;&gt;Node7 -->
<g id="edge38_Node000021_Node000007" class="edge">
<title>Node21&#45;&gt;Node7</title>
<g id="a_edge38_Node000021_Node000007"><a xlink:title=" ">
<path fill="none" stroke="#63b8ff" d="M1044.67,-230.77C1043.15,-217.6 1042.22,-192.44 1054,-176 1075.3,-146.27 1108.6,-171.01 1128,-140 1139.77,-121.18 1124.71,-97.44 1111.29,-81.88"/>
<polygon fill="#63b8ff" stroke="#63b8ff" points="1113.53,-79.15 1104.18,-74.16 1108.38,-83.89 1113.53,-79.15"/>
</a>
</g>
</g>
<!-- Node21&#45;&gt;Node18 -->
<g id="edge44_Node000021_Node000018" class="edge">
<title>Node21&#45;&gt;Node18</title>
<g id="a_edge44_Node000021_Node000018"><a xlink:title=" ">
<path fill="none" stroke="#63b8ff" d="M1013.55,-230.98C979.04,-221.93 924.34,-207.58 886.44,-197.64"/>
<polygon fill="#63b8ff" stroke="#63b8ff" points="887.27,-194.23 876.71,-195.08 885.49,-201.01 887.27,-194.23"/>
</a>
</g>
</g>
<!-- Node21&#45;&gt;Node22 -->
<g id="edge36_Node000021_Node000022" class="edge">
<title>Node21&#45;&gt;Node22</title>
<g id="a_edge36_Node000021_Node000022"><a xlink:title=" ">
<path fill="none" stroke="#63b8ff" d="M1055.08,-230.75C1063.09,-223.03 1074.96,-211.6 1084.62,-202.28"/>
<polygon fill="#63b8ff" stroke="#63b8ff" points="1087.31,-204.55 1092.09,-195.09 1082.46,-199.51 1087.31,-204.55"/>
</a>
</g>
</g>
<!-- Node23 -->
<g id="Node000023" class="node">
<title>Node23</title>
<g id="a_Node000023"><a xlink:href="common__data_8h.html" target="_top" xlink:title=" ">
<polygon fill="white" stroke="#666666" points="767,-134.5 637,-134.5 637,-115.5 767,-115.5 767,-134.5"/>
<text text-anchor="middle" x="702" y="-122.5" font-family="Helvetica,sans-Serif" font-size="10.00">assets/common_data.h</text>
</a>
</g>
</g>
<!-- Node21&#45;&gt;Node23 -->
<g id="edge39_Node000021_Node000023" class="edge">
<title>Node21&#45;&gt;Node23</title>
<g id="a_edge39_Node000021_Node000023"><a xlink:title=" ">
<path fill="none" stroke="#63b8ff" d="M1037.68,-230.95C1023.66,-217.07 993.8,-189.8 963,-176 960.64,-174.94 833.01,-150.74 757.13,-136.4"/>
<polygon fill="#63b8ff" stroke="#63b8ff" points="757.71,-132.95 747.23,-134.53 756.41,-139.83 757.71,-132.95"/>
</a>
</g>
</g>
<!-- Node22&#45;&gt;Node7 -->
<g id="edge37_Node000022_Node000007" class="edge">
<title>Node22&#45;&gt;Node7</title>
<g id="a_edge37_Node000022_Node000007"><a xlink:title=" ">
<path fill="none" stroke="#63b8ff" d="M1123.12,-175.95C1138.2,-168.82 1157.01,-157.06 1166,-140 1172.22,-128.21 1172.46,-121.67 1166,-110 1158.16,-95.83 1143.71,-85.57 1129.89,-78.5"/>
<polygon fill="#63b8ff" stroke="#63b8ff" points="1131.05,-75.18 1120.51,-74.1 1128.08,-81.52 1131.05,-75.18"/>
</a>
</g>
</g>
<!-- Node23&#45;&gt;Node2 -->
<g id="edge41_Node000023_Node000002" class="edge">
<title>Node23&#45;&gt;Node2</title>
<g id="a_edge41_Node000023_Node000002"><a xlink:title=" ">
<path fill="none" stroke="#63b8ff" d="M695.04,-115.06C682.71,-99.93 655.46,-69.53 625,-55 551.54,-19.97 455.96,-11.71 398.44,-10.2"/>
<polygon fill="#63b8ff" stroke="#63b8ff" points="398.22,-6.69 388.15,-9.99 398.08,-13.69 398.22,-6.69"/>
</a>
</g>
</g>
<!-- Node23&#45;&gt;Node7 -->
<g id="edge42_Node000023_Node000007" class="edge">
<title>Node23&#45;&gt;Node7</title>
<g id="a_edge42_Node000023_Node000007"><a xlink:title=" ">
<path fill="none" stroke="#63b8ff" d="M745.96,-115.45C756.14,-113.56 766.93,-111.64 777,-110 865,-95.64 967.17,-81.85 1031.45,-73.53"/>
<polygon fill="#63b8ff" stroke="#63b8ff" points="1031.97,-76.99 1041.44,-72.24 1031.07,-70.05 1031.97,-76.99"/>
</a>
</g>
</g>
<!-- Node23&#45;&gt;Node10 -->
<g id="edge40_Node000023_Node000010" class="edge">
<title>Node23&#45;&gt;Node10</title>
<g id="a_edge40_Node000023_Node000010"><a xlink:title=" ">
<path fill="none" stroke="#63b8ff" d="M661.72,-115.49C612.1,-105.01 527.83,-87.22 474.37,-75.93"/>
<polygon fill="#63b8ff" stroke="#63b8ff" points="474.94,-72.47 464.43,-73.83 473.49,-79.32 474.94,-72.47"/>
</a>
</g>
</g>
<!-- Node23&#45;&gt;Node12 -->
<g id="edge43_Node000023_Node000012" class="edge">
<title>Node23&#45;&gt;Node12</title>
<g id="a_edge43_Node000023_Node000012"><a xlink:title=" ">
<path fill="none" stroke="#63b8ff" d="M678.59,-115.49C651.05,-105.49 605.13,-88.8 573.99,-77.49"/>
<polygon fill="#63b8ff" stroke="#63b8ff" points="575.03,-74.14 564.44,-74.02 572.64,-80.72 575.03,-74.14"/>
</a>
</g>
</g>
<!-- Node25&#45;&gt;Node2 -->
<g id="edge49_Node000025_Node000002" class="edge">
<title>Node25&#45;&gt;Node2</title>
<g id="a_edge49_Node000025_Node000002"><a xlink:title=" ">
<path fill="none" stroke="#63b8ff" d="M229.82,-109.85C255.34,-88.41 303.61,-47.82 329.87,-25.74"/>
<polygon fill="#63b8ff" stroke="#63b8ff" points="332.17,-28.38 337.57,-19.27 327.66,-23.03 332.17,-28.38"/>
</a>
</g>
</g>
<!-- Node25&#45;&gt;Node10 -->
<g id="edge50_Node000025_Node000010" class="edge">
<title>Node25&#45;&gt;Node10</title>
<g id="a_edge50_Node000025_Node000010"><a xlink:title=" ">
<path fill="none" stroke="#63b8ff" d="M263.78,-109.99C300.68,-99.8 349.98,-86.2 384.3,-76.73"/>
<polygon fill="#63b8ff" stroke="#63b8ff" points="385.29,-80.09 394,-74.05 383.43,-73.34 385.29,-80.09"/>
</a>
</g>
</g>
<!-- Node25&#45;&gt;Node12 -->
<g id="edge51_Node000025_Node000012" class="edge">
<title>Node25&#45;&gt;Node12</title>
<g id="a_edge51_Node000025_Node000012"><a xlink:title=" ">
<path fill="none" stroke="#63b8ff" d="M271.8,-111.58C274.57,-111.04 277.31,-110.51 280,-110 347.25,-97.25 424.57,-84.27 477.49,-75.65"/>
<polygon fill="#63b8ff" stroke="#63b8ff" points="478.1,-79.1 487.41,-74.04 476.98,-72.19 478.1,-79.1"/>
</a>
</g>
</g>
<!-- Node26&#45;&gt;Node2 -->
<g id="edge53_Node000026_Node000002" class="edge">
<title>Node26&#45;&gt;Node2</title>
<g id="a_edge53_Node000026_Node000002"><a xlink:title=" ">
<path fill="none" stroke="#63b8ff" d="M348,-109.63C348,-89.21 348,-51.81 348,-29.24"/>
<polygon fill="#63b8ff" stroke="#63b8ff" points="351.5,-29.23 348,-19.23 344.5,-29.23 351.5,-29.23"/>
</a>
</g>
</g>
<!-- Node26&#45;&gt;Node10 -->
<g id="edge54_Node000026_Node000010" class="edge">
<title>Node26&#45;&gt;Node10</title>
<g id="a_edge54_Node000026_Node000010"><a xlink:title=" ">
<path fill="none" stroke="#63b8ff" d="M366.64,-109.84C378.39,-100.91 393.53,-89.41 405.45,-80.35"/>
<polygon fill="#63b8ff" stroke="#63b8ff" points="407.62,-83.1 413.46,-74.27 403.38,-77.53 407.62,-83.1"/>
</a>
</g>
</g>
<!-- Node26&#45;&gt;Node12 -->
<g id="edge55_Node000026_Node000012" class="edge">
<title>Node26&#45;&gt;Node12</title>
<g id="a_edge55_Node000026_Node000012"><a xlink:title=" ">
<path fill="none" stroke="#63b8ff" d="M394.23,-109.99C427.54,-99.89 471.93,-86.44 503.14,-76.98"/>
<polygon fill="#63b8ff" stroke="#63b8ff" points="504.23,-80.3 512.78,-74.05 502.2,-73.6 504.23,-80.3"/>
</a>
</g>
</g>
<!-- Node27&#45;&gt;Node2 -->
<g id="edge57_Node000027_Node000002" class="edge">
<title>Node27&#45;&gt;Node2</title>
<g id="a_edge57_Node000027_Node000002"><a xlink:title=" ">
<path fill="none" stroke="#63b8ff" d="M581.9,-109.75C601.23,-95.43 624.16,-72.97 609,-55 582.56,-23.68 466.29,-14.4 398.18,-11.65"/>
<polygon fill="#63b8ff" stroke="#63b8ff" points="398.21,-8.15 388.09,-11.28 397.95,-15.15 398.21,-8.15"/>
</a>
</g>
</g>
<!-- Node27&#45;&gt;Node10 -->
<g id="edge58_Node000027_Node000010" class="edge">
<title>Node27&#45;&gt;Node10</title>
<g id="a_edge58_Node000027_Node000010"><a xlink:title=" ">
<path fill="none" stroke="#63b8ff" d="M527.66,-109.99C505.34,-100.31 475.9,-87.56 454.27,-78.18"/>
<polygon fill="#63b8ff" stroke="#63b8ff" points="455.5,-74.9 444.94,-74.14 452.72,-81.33 455.5,-74.9"/>
</a>
</g>
</g>
<!-- Node27&#45;&gt;Node12 -->
<g id="edge59_Node000027_Node000012" class="edge">
<title>Node27&#45;&gt;Node12</title>
<g id="a_edge59_Node000027_Node000012"><a xlink:title=" ">
<path fill="none" stroke="#63b8ff" d="M555.4,-109.84C552.87,-102.04 549.69,-92.27 546.97,-83.89"/>
<polygon fill="#63b8ff" stroke="#63b8ff" points="550.26,-82.7 543.85,-74.27 543.61,-84.86 550.26,-82.7"/>
</a>
</g>
</g>
</g>
</svg>

<g id="navigator" transform="translate(0 0)" fill="#404254">
  <rect fill="#f2f5e9" fill-opacity="0.5" stroke="#606060" stroke-width=".5" x="0" y="0" width="60" height="60"/>
  <use id="zoomplus" xlink:href="#zoomPlus" x="17" y="9" onmousedown="handleZoom(evt,'in')"/>
  <use id="zoomminus" xlink:href="#zoomMin" x="42" y="9" onmousedown="handleZoom(evt,'out')"/>
  <use id="reset" xlink:href="#resetDef" x="30" y="36" onmousedown="handleReset()"/>
   <use id="arrowup" xlink:href="#arrowUp" x="0" y="0" onmousedown="handlePan(0,-1)"/>
  <use id="arrowright" xlink:href="#arrowRight" x="0" y="0" onmousedown="handlePan(1,0)"/>
  <use id="arrowdown" xlink:href="#arrowDown" x="0" y="0" onmousedown="handlePan(0,1)"/>
  <use id="arrowleft" xlink:href="#arrowLeft" x="0" y="0" onmousedown="handlePan(-1,0)"/>
</g>
<svg viewBox="0 0 15 15" width="100%" height="30px" preserveAspectRatio="xMaxYMin meet">
 <g id="arrow_out" transform="scale(0.3 0.3)">
  <a xlink:href="RainbowRoad_8h__incl_org.svg" target="_base">
   <rect id="button" ry="5" rx="5" y="6" x="6" height="38" width="38"
        fill="#f2f5e9" fill-opacity="0.5" stroke="#606060" stroke-width="1.0"/>
   <path id="arrow"
     d="M 11.500037,31.436501 C 11.940474,20.09759 22.043105,11.32322 32.158766,21.979434 L 37.068811,17.246167 C 37.068811,17.246167 37.088388,32 37.088388,32 L 22.160133,31.978069 C 22.160133,31.978069 26.997745,27.140456 26.997745,27.140456 C 18.528582,18.264221 13.291696,25.230495 11.500037,31.436501 z"
     style="fill:#404040;"/>
  </a>
 </g>
</svg>

<style type='text/css'>
<![CDATA[
[data-mouse-over-selected='false'] { opacity: 0.7; }
[data-mouse-over-selected='true']  { opacity: 1.0; }
]]>
</style>
<script type="application/ecmascript"><![CDATA[
document.addEventListener('DOMContentLoaded', (event) => {
  highlightEdges();
  highlightAdjacentNodes();
});
]]></script>
</svg>
