<?xml version="1.0" encoding="UTF-8" standalone="no"?>
<!DOCTYPE svg PUBLIC "-//W3C//DTD SVG 1.1//EN"
 "http://www.w3.org/Graphics/SVG/1.1/DTD/svg11.dtd">
<!-- Generated by graphviz version 2.43.0 (0)
 -->
<!-- Title: RegisterGameActors Pages: 1 -->
<svg width="1750pt" height="400pt"
 viewBox="0.00 0.00 1750.00 399.69" xmlns="http://www.w3.org/2000/svg" xmlns:xlink="http://www.w3.org/1999/xlink">
<g id="graph0" class="graph" transform="scale(1 1) rotate(0) translate(4 395.69)">
<title>RegisterGameActors</title>
<!-- Node1 -->
<g id="Node000001" class="node">
<title>Node1</title>
<g id="a_Node000001"><a xlink:title=" ">
<polygon fill="#999999" stroke="#666666" points="117,-119.69 0,-119.69 0,-100.69 117,-100.69 117,-119.69"/>
<text text-anchor="middle" x="58.5" y="-107.69" font-family="Helvetica,sans-Serif" font-size="10.00">RegisterGameActors</text>
</a>
</g>
</g>
<!-- Node2 -->
<g id="Node000002" class="node">
<title>Node2</title>
<g id="a_Node000002"><a xlink:href="actors_8c.html#a91fb2e4e37e7c72fea918fe2c1bb4eaf" target="_top" xlink:title=" ">
<polygon fill="white" stroke="#666666" points="454,-195.69 314,-195.69 314,-176.69 454,-176.69 454,-195.69"/>
<text text-anchor="middle" x="384" y="-183.69" font-family="Helvetica,sans-Serif" font-size="10.00">add_actor_to_empty_slot</text>
</a>
</g>
</g>
<!-- Node1&#45;&gt;Node2 -->
<g id="edge1_Node000001_Node000002" class="edge">
<title>Node1&#45;&gt;Node2</title>
<g id="a_edge1_Node000001_Node000002"><a xlink:title=" ">
<path fill="none" stroke="#63b8ff" d="M80.23,-119.85C98.9,-128.19 127.27,-140 153,-147.19 202.41,-160.99 259.24,-170.68 304.04,-176.95"/>
<polygon fill="#63b8ff" stroke="#63b8ff" points="303.61,-180.43 313.99,-178.32 304.56,-173.49 303.61,-180.43"/>
</a>
</g>
</g>
<!-- Node28 -->
<g id="Node000028" class="node">
<title>Node28</title>
<g id="a_Node000028"><a xlink:href="Registry_8cpp.html#a7be665a490d87937e8b92612a52663db" target="_top" xlink:title=" ">
<polygon fill="white" stroke="#666666" points="257,-64.69 174,-64.69 174,-45.69 257,-45.69 257,-64.69"/>
<text text-anchor="middle" x="215.5" y="-52.69" font-family="Helvetica,sans-Serif" font-size="10.00">RegisterActor</text>
</a>
</g>
</g>
<!-- Node1&#45;&gt;Node28 -->
<g id="edge27_Node000001_Node000028" class="edge">
<title>Node1&#45;&gt;Node28</title>
<g id="a_edge27_Node000001_Node000028"><a xlink:title=" ">
<path fill="none" stroke="#63b8ff" d="M81.95,-100.63C100.76,-92.79 128.4,-81.64 153,-73.19 158.53,-71.29 164.38,-69.41 170.18,-67.63"/>
<polygon fill="#63b8ff" stroke="#63b8ff" points="171.28,-70.96 179.85,-64.73 169.26,-64.25 171.28,-70.96"/>
</a>
</g>
</g>
<!-- Node29 -->
<g id="Node000029" class="node">
<title>Node29</title>
<g id="a_Node000029"><a xlink:href="actors_8c.html#a4ea5c435e8d75c52a2551d3ff64fb212" target="_top" xlink:title=" ">
<polygon fill="white" stroke="#666666" points="278,-101.69 153,-101.69 153,-82.69 278,-82.69 278,-101.69"/>
<text text-anchor="middle" x="215.5" y="-89.69" font-family="Helvetica,sans-Serif" font-size="10.00">spawn_fake_item_box</text>
</a>
</g>
</g>
<!-- Node1&#45;&gt;Node29 -->
<g id="edge28_Node000001_Node000029" class="edge">
<title>Node1&#45;&gt;Node29</title>
<g id="a_edge28_Node000001_Node000029"><a xlink:title=" ">
<path fill="none" stroke="#63b8ff" d="M117.22,-103.49C125.57,-102.52 134.25,-101.51 142.83,-100.51"/>
<polygon fill="#63b8ff" stroke="#63b8ff" points="143.31,-103.98 152.84,-99.35 142.5,-97.03 143.31,-103.98"/>
</a>
</g>
</g>
<!-- Node34 -->
<g id="Node000034" class="node">
<title>Node34</title>
<g id="a_Node000034"><a xlink:href="actors_8c.html#ab94b87f4f45d885770add5f4013a753a" target="_top" xlink:title=" ">
<polygon fill="white" stroke="#666666" points="265,-138.69 166,-138.69 166,-119.69 265,-119.69 265,-138.69"/>
<text text-anchor="middle" x="215.5" y="-126.69" font-family="Helvetica,sans-Serif" font-size="10.00">spawn_item_box</text>
</a>
</g>
</g>
<!-- Node1&#45;&gt;Node34 -->
<g id="edge35_Node000001_Node000034" class="edge">
<title>Node1&#45;&gt;Node34</title>
<g id="a_edge35_Node000001_Node000034"><a xlink:title=" ">
<path fill="none" stroke="#63b8ff" d="M117.22,-117.26C129.85,-118.81 143.23,-120.45 155.9,-122.01"/>
<polygon fill="#63b8ff" stroke="#63b8ff" points="155.52,-125.49 165.88,-123.23 156.38,-118.54 155.52,-125.49"/>
</a>
</g>
</g>
<!-- Node3 -->
<g id="Node000003" class="node">
<title>Node3</title>
<g id="a_Node000003"><a xlink:href="actors_8c.html#a39c023177b5a7686cdd1fc65b8b953e1" target="_top" xlink:title=" ">
<polygon fill="white" stroke="#666666" points="590,-195.69 528,-195.69 528,-176.69 590,-176.69 590,-195.69"/>
<text text-anchor="middle" x="559" y="-183.69" font-family="Helvetica,sans-Serif" font-size="10.00">actor_init</text>
</a>
</g>
</g>
<!-- Node2&#45;&gt;Node3 -->
<g id="edge2_Node000002_Node000003" class="edge">
<title>Node2&#45;&gt;Node3</title>
<g id="a_edge2_Node000002_Node000003"><a xlink:title=" ">
<path fill="none" stroke="#63b8ff" d="M454.37,-186.19C475.94,-186.19 499,-186.19 517.87,-186.19"/>
<polygon fill="#63b8ff" stroke="#63b8ff" points="517.89,-189.69 527.89,-186.19 517.89,-182.69 517.89,-189.69"/>
</a>
</g>
</g>
<!-- Node25 -->
<g id="Node000025" class="node">
<title>Node25</title>
<g id="a_Node000025"><a xlink:href="Game_8cpp.html#acea5cfd9ab22f745bd6627869b95a62e" target="_top" xlink:title=" ">
<polygon fill="white" stroke="#666666" points="615,-306.69 503,-306.69 503,-287.69 615,-287.69 615,-306.69"/>
<text text-anchor="middle" x="559" y="-294.69" font-family="Helvetica,sans-Serif" font-size="10.00">CM_ActorBeginPlay</text>
</a>
</g>
</g>
<!-- Node2&#45;&gt;Node25 -->
<g id="edge24_Node000002_Node000025" class="edge">
<title>Node2&#45;&gt;Node25</title>
<g id="a_edge24_Node000002_Node000025"><a xlink:title=" ">
<path fill="none" stroke="#63b8ff" d="M392.91,-195.69C409.13,-214.54 448.14,-256.77 490,-279.19 493.47,-281.05 497.15,-282.73 500.93,-284.24"/>
<polygon fill="#63b8ff" stroke="#63b8ff" points="499.86,-287.57 510.45,-287.66 502.23,-280.99 499.86,-287.57"/>
</a>
</g>
</g>
<!-- Node26 -->
<g id="Node000026" class="node">
<title>Node26</title>
<g id="a_Node000026"><a xlink:href="Game_8cpp.html#a42f23077aaa52cb3ea5c7803b7dd6816" target="_top" xlink:title=" ">
<polygon fill="white" stroke="#666666" points="612,-269.69 506,-269.69 506,-250.69 612,-250.69 612,-269.69"/>
<text text-anchor="middle" x="559" y="-257.69" font-family="Helvetica,sans-Serif" font-size="10.00">CM_AddBaseActor</text>
</a>
</g>
</g>
<!-- Node2&#45;&gt;Node26 -->
<g id="edge25_Node000002_Node000026" class="edge">
<title>Node2&#45;&gt;Node26</title>
<g id="a_edge25_Node000002_Node000026"><a xlink:title=" ">
<path fill="none" stroke="#63b8ff" d="M400.12,-195.7C420.06,-207.9 456.54,-229.04 490,-242.19 495.11,-244.2 500.53,-246.06 505.99,-247.76"/>
<polygon fill="#63b8ff" stroke="#63b8ff" points="505.21,-251.18 515.79,-250.64 507.19,-244.46 505.21,-251.18"/>
</a>
</g>
</g>
<!-- Node27 -->
<g id="Node000027" class="node">
<title>Node27</title>
<g id="a_Node000027"><a xlink:href="Game_8cpp.html#a0841ffe9a66e95aca42438b9d8ffc3d3" target="_top" xlink:title=" ">
<polygon fill="white" stroke="#666666" points="609.5,-232.69 508.5,-232.69 508.5,-213.69 609.5,-213.69 609.5,-232.69"/>
<text text-anchor="middle" x="559" y="-220.69" font-family="Helvetica,sans-Serif" font-size="10.00">CM_GetActorSize</text>
</a>
</g>
</g>
<!-- Node2&#45;&gt;Node27 -->
<g id="edge26_Node000002_Node000027" class="edge">
<title>Node2&#45;&gt;Node27</title>
<g id="a_edge26_Node000002_Node000027"><a xlink:title=" ">
<path fill="none" stroke="#63b8ff" d="M429.55,-195.72C452.07,-200.53 479.58,-206.42 503.36,-211.5"/>
<polygon fill="#63b8ff" stroke="#63b8ff" points="502.79,-214.96 513.3,-213.63 504.25,-208.11 502.79,-214.96"/>
</a>
</g>
</g>
<!-- Node4 -->
<g id="Node000004" class="node">
<title>Node4</title>
<g id="a_Node000004"><a xlink:href="collision_8c.html#a37aa55b3768d001533ad75e7f1b8388a" target="_top" xlink:title=" ">
<polygon fill="white" stroke="#666666" points="805,-308.69 664,-308.69 664,-289.69 805,-289.69 805,-308.69"/>
<text text-anchor="middle" x="734.5" y="-296.69" font-family="Helvetica,sans-Serif" font-size="10.00">check_bounding_collision</text>
</a>
</g>
</g>
<!-- Node3&#45;&gt;Node4 -->
<g id="edge3_Node000003_Node000004" class="edge">
<title>Node3&#45;&gt;Node4</title>
<g id="a_edge3_Node000003_Node000004"><a xlink:title=" ">
<path fill="none" stroke="#63b8ff" d="M590.23,-189.75C602.85,-192.41 617.09,-197.06 628,-205.19 652.03,-223.08 642.04,-241.8 664,-262.19 674.12,-271.58 687.07,-279.32 699.04,-285.25"/>
<polygon fill="#63b8ff" stroke="#63b8ff" points="697.83,-288.55 708.37,-289.62 700.79,-282.21 697.83,-288.55"/>
</a>
</g>
</g>
<!-- Node8 -->
<g id="Node000008" class="node">
<title>Node8</title>
<g id="a_Node000008"><a xlink:href="actors_8c.html#a1a9bccb586242555a9123ebd4ab70f2a" target="_top" xlink:title=" ">
<polygon fill="white" stroke="#666666" points="800.5,-253.19 668.5,-253.19 668.5,-223.19 800.5,-223.19 800.5,-253.19"/>
<text text-anchor="start" x="676.5" y="-241.19" font-family="Helvetica,sans-Serif" font-size="10.00">cleanup_red_and_green</text>
<text text-anchor="middle" x="734.5" y="-230.19" font-family="Helvetica,sans-Serif" font-size="10.00">_shells</text>
</a>
</g>
</g>
<!-- Node3&#45;&gt;Node8 -->
<g id="edge7_Node000003_Node000008" class="edge">
<title>Node3&#45;&gt;Node8</title>
<g id="a_edge7_Node000003_Node000008"><a xlink:title=" ">
<path fill="none" stroke="#63b8ff" d="M590.18,-194.41C602,-197.68 615.66,-201.54 628,-205.19 643.92,-209.9 661.14,-215.2 676.95,-220.15"/>
<polygon fill="#63b8ff" stroke="#63b8ff" points="676,-223.52 686.59,-223.18 678.1,-216.84 676,-223.52"/>
</a>
</g>
</g>
<!-- Node21 -->
<g id="Node000021" class="node">
<title>Node21</title>
<g id="a_Node000021"><a xlink:href="collision_8c.html#ad72fef3ffe32191d73b1822f512ebf3f" target="_top" xlink:title=" ">
<polygon fill="white" stroke="#666666" points="782,-373.69 687,-373.69 687,-354.69 782,-354.69 782,-373.69"/>
<text text-anchor="middle" x="734.5" y="-361.69" font-family="Helvetica,sans-Serif" font-size="10.00">func_802AAAAC</text>
</a>
</g>
</g>
<!-- Node3&#45;&gt;Node21 -->
<g id="edge20_Node000003_Node000021" class="edge">
<title>Node3&#45;&gt;Node21</title>
<g id="a_edge20_Node000003_Node000021"><a xlink:title=" ">
<path fill="none" stroke="#63b8ff" d="M590.27,-188.29C603.36,-190.66 617.94,-195.49 628,-205.19 665.94,-241.78 632.22,-276.14 664,-318.19 674,-331.41 688.96,-342.01 702.45,-349.69"/>
<polygon fill="#63b8ff" stroke="#63b8ff" points="701.01,-352.89 711.47,-354.53 704.32,-346.72 701.01,-352.89"/>
</a>
</g>
</g>
<!-- Node23 -->
<g id="Node000023" class="node">
<title>Node23</title>
<g id="a_Node000023"><a xlink:href="math__util_8c.html#af7b470ed76fce07b8042a47c96e5690b" target="_top" xlink:title=" ">
<polygon fill="white" stroke="#666666" points="788,-204.69 681,-204.69 681,-185.69 788,-185.69 788,-204.69"/>
<text text-anchor="middle" x="734.5" y="-192.69" font-family="Helvetica,sans-Serif" font-size="10.00">vec3f_copy_return</text>
</a>
</g>
</g>
<!-- Node3&#45;&gt;Node23 -->
<g id="edge22_Node000003_Node000023" class="edge">
<title>Node3&#45;&gt;Node23</title>
<g id="a_edge22_Node000003_Node000023"><a xlink:title=" ">
<path fill="none" stroke="#63b8ff" d="M590.22,-187.76C612.35,-188.9 643.16,-190.5 670.55,-191.92"/>
<polygon fill="#63b8ff" stroke="#63b8ff" points="670.68,-195.44 680.85,-192.46 671.04,-188.44 670.68,-195.44"/>
</a>
</g>
</g>
<!-- Node24 -->
<g id="Node000024" class="node">
<title>Node24</title>
<g id="a_Node000024"><a xlink:href="math__util_8c.html#a0e270ee67600c8c9c2f140c647d008a1" target="_top" xlink:title=" ">
<polygon fill="white" stroke="#666666" points="771.5,-167.69 697.5,-167.69 697.5,-148.69 771.5,-148.69 771.5,-167.69"/>
<text text-anchor="middle" x="734.5" y="-155.69" font-family="Helvetica,sans-Serif" font-size="10.00">vec3s_copy</text>
</a>
</g>
</g>
<!-- Node3&#45;&gt;Node24 -->
<g id="edge23_Node000003_Node000024" class="edge">
<title>Node3&#45;&gt;Node24</title>
<g id="a_edge23_Node000003_Node000024"><a xlink:title=" ">
<path fill="none" stroke="#63b8ff" d="M590.22,-181.31C617,-176.99 656.51,-170.61 687.26,-165.65"/>
<polygon fill="#63b8ff" stroke="#63b8ff" points="688.01,-169.08 697.32,-164.03 686.89,-162.17 688.01,-169.08"/>
</a>
</g>
</g>
<!-- Node5 -->
<g id="Node000005" class="node">
<title>Node5</title>
<g id="a_Node000005"><a xlink:href="collision_8c.html#ac312bf382cb40752f6b790a99e7cdcb6" target="_top" xlink:title=" ">
<polygon fill="white" stroke="#666666" points="968,-354.69 860,-354.69 860,-335.69 968,-335.69 968,-354.69"/>
<text text-anchor="middle" x="914" y="-342.69" font-family="Helvetica,sans-Serif" font-size="10.00">check_collision_yx</text>
</a>
</g>
</g>
<!-- Node4&#45;&gt;Node5 -->
<g id="edge4_Node000004_Node000005" class="edge">
<title>Node4&#45;&gt;Node5</title>
<g id="a_edge4_Node000004_Node000005"><a xlink:title=" ">
<path fill="none" stroke="#63b8ff" d="M771.12,-308.78C791.55,-314.25 817.69,-321.18 841,-327.19 848.63,-329.16 856.73,-331.21 864.63,-333.2"/>
<polygon fill="#63b8ff" stroke="#63b8ff" points="863.94,-336.63 874.49,-335.67 865.64,-329.84 863.94,-336.63"/>
</a>
</g>
</g>
<!-- Node6 -->
<g id="Node000006" class="node">
<title>Node6</title>
<g id="a_Node000006"><a xlink:href="collision_8c.html#a4b48832a90e984536a0635a016ec4f28" target="_top" xlink:title=" ">
<polygon fill="white" stroke="#666666" points="967.5,-317.69 860.5,-317.69 860.5,-298.69 967.5,-298.69 967.5,-317.69"/>
<text text-anchor="middle" x="914" y="-305.69" font-family="Helvetica,sans-Serif" font-size="10.00">check_collision_zx</text>
</a>
</g>
</g>
<!-- Node4&#45;&gt;Node6 -->
<g id="edge5_Node000004_Node000006" class="edge">
<title>Node4&#45;&gt;Node6</title>
<g id="a_edge5_Node000004_Node000006"><a xlink:title=" ">
<path fill="none" stroke="#63b8ff" d="M805.14,-302.72C819.91,-303.47 835.43,-304.26 849.94,-304.99"/>
<polygon fill="#63b8ff" stroke="#63b8ff" points="850.14,-308.51 860.3,-305.52 850.49,-301.52 850.14,-308.51"/>
</a>
</g>
</g>
<!-- Node7 -->
<g id="Node000007" class="node">
<title>Node7</title>
<g id="a_Node000007"><a xlink:href="collision_8c.html#a21fef964ab48191a1c0341954ef27a40" target="_top" xlink:title=" ">
<polygon fill="white" stroke="#666666" points="967.5,-280.69 860.5,-280.69 860.5,-261.69 967.5,-261.69 967.5,-280.69"/>
<text text-anchor="middle" x="914" y="-268.69" font-family="Helvetica,sans-Serif" font-size="10.00">check_collision_zy</text>
</a>
</g>
</g>
<!-- Node4&#45;&gt;Node7 -->
<g id="edge6_Node000004_Node000007" class="edge">
<title>Node4&#45;&gt;Node7</title>
<g id="a_edge6_Node000004_Node000007"><a xlink:title=" ">
<path fill="none" stroke="#63b8ff" d="M796.09,-289.63C813.55,-286.88 832.64,-283.87 850.23,-281.09"/>
<polygon fill="#63b8ff" stroke="#63b8ff" points="851.06,-284.5 860.39,-279.49 849.97,-277.59 851.06,-284.5"/>
</a>
</g>
</g>
<!-- Node9 -->
<g id="Node000009" class="node">
<title>Node9</title>
<g id="a_Node000009"><a xlink:href="Game_8cpp.html#a693de7d8b89fe291aafea86bc64a0a2e" target="_top" xlink:title=" ">
<polygon fill="white" stroke="#666666" points="954,-129.69 874,-129.69 874,-110.69 954,-110.69 954,-129.69"/>
<text text-anchor="middle" x="914" y="-117.69" font-family="Helvetica,sans-Serif" font-size="10.00">CM_GetActor</text>
</a>
</g>
</g>
<!-- Node8&#45;&gt;Node9 -->
<g id="edge8_Node000008_Node000009" class="edge">
<title>Node8&#45;&gt;Node9</title>
<g id="a_edge8_Node000008_Node000009"><a xlink:title=" ">
<path fill="none" stroke="#63b8ff" d="M789.46,-223.17C794.94,-220.6 800.24,-217.62 805,-214.19 826.34,-198.8 821.71,-185.08 841,-167.19 854.47,-154.7 871.62,-143.36 885.81,-134.95"/>
<polygon fill="#63b8ff" stroke="#63b8ff" points="887.72,-137.89 894.63,-129.86 884.22,-131.82 887.72,-137.89"/>
</a>
</g>
</g>
<!-- Node10 -->
<g id="Node000010" class="node">
<title>Node10</title>
<g id="a_Node000010"><a xlink:href="code__80005FD0_8c.html#ad301b978cdd3c4cc190b10be050d51d8" target="_top" xlink:title=" ">
<polygon fill="white" stroke="#666666" points="987,-243.19 841,-243.19 841,-213.19 987,-213.19 987,-243.19"/>
<text text-anchor="start" x="849" y="-231.19" font-family="Helvetica,sans-Serif" font-size="10.00">delete_actor_in_unexpired</text>
<text text-anchor="middle" x="914" y="-220.19" font-family="Helvetica,sans-Serif" font-size="10.00">_actor_list</text>
</a>
</g>
</g>
<!-- Node8&#45;&gt;Node10 -->
<g id="edge9_Node000008_Node000010" class="edge">
<title>Node8&#45;&gt;Node10</title>
<g id="a_edge9_Node000008_Node000010"><a xlink:title=" ">
<path fill="none" stroke="#63b8ff" d="M800.59,-234.52C810.38,-233.97 820.59,-233.4 830.69,-232.83"/>
<polygon fill="#63b8ff" stroke="#63b8ff" points="830.94,-236.32 840.73,-232.26 830.55,-229.33 830.94,-236.32"/>
</a>
</g>
</g>
<!-- Node11 -->
<g id="Node000011" class="node">
<title>Node11</title>
<g id="a_Node000011"><a xlink:href="actors_8c.html#a694ec6ef7548b8618aeb35c038d3a9b9" target="_top" xlink:title=" ">
<polygon fill="white" stroke="#666666" points="955.5,-194.69 872.5,-194.69 872.5,-175.69 955.5,-175.69 955.5,-194.69"/>
<text text-anchor="middle" x="914" y="-182.69" font-family="Helvetica,sans-Serif" font-size="10.00">destroy_actor</text>
</a>
</g>
</g>
<!-- Node8&#45;&gt;Node11 -->
<g id="edge10_Node000008_Node000011" class="edge">
<title>Node8&#45;&gt;Node11</title>
<g id="a_edge10_Node000008_Node000011"><a xlink:title=" ">
<path fill="none" stroke="#63b8ff" d="M780.25,-223.18C798.96,-217.06 820.96,-210.06 841,-204.19 848.85,-201.89 857.22,-199.57 865.37,-197.37"/>
<polygon fill="#63b8ff" stroke="#63b8ff" points="866.39,-200.72 875.15,-194.77 864.59,-193.96 866.39,-200.72"/>
</a>
</g>
</g>
<!-- Node12 -->
<g id="Node000012" class="node">
<title>Node12</title>
<g id="a_Node000012"><a xlink:href="actors_8c.html#a12dc3ccac4c7d8569eadac0af4fd6f9f" target="_top" xlink:title=" ">
<polygon fill="white" stroke="#666666" points="1181,-194.69 1023,-194.69 1023,-175.69 1181,-175.69 1181,-194.69"/>
<text text-anchor="middle" x="1102" y="-182.69" font-family="Helvetica,sans-Serif" font-size="10.00">play_sound_before_despawn</text>
</a>
</g>
</g>
<!-- Node11&#45;&gt;Node12 -->
<g id="edge11_Node000011_Node000012" class="edge">
<title>Node11&#45;&gt;Node12</title>
<g id="a_edge11_Node000011_Node000012"><a xlink:title=" ">
<path fill="none" stroke="#63b8ff" d="M955.82,-185.19C972.65,-185.19 992.86,-185.19 1012.77,-185.19"/>
<polygon fill="#63b8ff" stroke="#63b8ff" points="1012.82,-188.69 1022.82,-185.19 1012.82,-181.69 1012.82,-188.69"/>
</a>
</g>
</g>
<!-- Node13 -->
<g id="Node000013" class="node">
<title>Node13</title>
<g id="a_Node000013"><a xlink:href="external_8c.html#ae72057869772019e4464c87d4e16c682" target="_top" xlink:title=" ">
<polygon fill="white" stroke="#666666" points="1309,-194.69 1217,-194.69 1217,-175.69 1309,-175.69 1309,-194.69"/>
<text text-anchor="middle" x="1263" y="-182.69" font-family="Helvetica,sans-Serif" font-size="10.00">func_800C99E0</text>
</a>
</g>
</g>
<!-- Node12&#45;&gt;Node13 -->
<g id="edge12_Node000012_Node000013" class="edge">
<title>Node12&#45;&gt;Node13</title>
<g id="a_edge12_Node000012_Node000013"><a xlink:title=" ">
<path fill="none" stroke="#63b8ff" d="M1181.1,-185.19C1189.72,-185.19 1198.35,-185.19 1206.61,-185.19"/>
<polygon fill="#63b8ff" stroke="#63b8ff" points="1206.83,-188.69 1216.83,-185.19 1206.83,-181.69 1206.83,-188.69"/>
</a>
</g>
</g>
<!-- Node14 -->
<g id="Node000014" class="node">
<title>Node14</title>
<g id="a_Node000014"><a xlink:href="external_8c.html#aeb87c527482a244173df36a1f3d4f446" target="_top" xlink:title=" ">
<polygon fill="white" stroke="#666666" points="1437,-213.69 1345,-213.69 1345,-194.69 1437,-194.69 1437,-213.69"/>
<text text-anchor="middle" x="1391" y="-201.69" font-family="Helvetica,sans-Serif" font-size="10.00">func_800C21E8</text>
</a>
</g>
</g>
<!-- Node13&#45;&gt;Node14 -->
<g id="edge13_Node000013_Node000014" class="edge">
<title>Node13&#45;&gt;Node14</title>
<g id="a_edge13_Node000013_Node000014"><a xlink:title=" ">
<path fill="none" stroke="#63b8ff" d="M1309.13,-192C1317.46,-193.25 1326.23,-194.57 1334.81,-195.87"/>
<polygon fill="#63b8ff" stroke="#63b8ff" points="1334.35,-199.34 1344.76,-197.37 1335.39,-192.42 1334.35,-199.34"/>
</a>
</g>
</g>
<!-- Node15 -->
<g id="Node000015" class="node">
<title>Node15</title>
<g id="a_Node000015"><a xlink:href="external_8c.html#a028d40421b90c38f68ebfd5acc626f2e" target="_top" xlink:title=" ">
<polygon fill="white" stroke="#666666" points="1437,-176.69 1345,-176.69 1345,-157.69 1437,-157.69 1437,-176.69"/>
<text text-anchor="middle" x="1391" y="-164.69" font-family="Helvetica,sans-Serif" font-size="10.00">func_800C5578</text>
</a>
</g>
</g>
<!-- Node13&#45;&gt;Node15 -->
<g id="edge14_Node000013_Node000015" class="edge">
<title>Node13&#45;&gt;Node15</title>
<g id="a_edge14_Node000013_Node000015"><a xlink:title=" ">
<path fill="none" stroke="#63b8ff" d="M1309.13,-178.74C1317.46,-177.55 1326.23,-176.3 1334.81,-175.07"/>
<polygon fill="#63b8ff" stroke="#63b8ff" points="1335.35,-178.53 1344.76,-173.65 1334.36,-171.6 1335.35,-178.53"/>
</a>
</g>
</g>
<!-- Node16 -->
<g id="Node000016" class="node">
<title>Node16</title>
<g id="a_Node000016"><a xlink:href="external_8c.html#ac0fb767de7e14a03f1bcfa53f0abd23b" target="_top" xlink:title=" ">
<polygon fill="white" stroke="#666666" points="1613,-213.69 1473,-213.69 1473,-194.69 1613,-194.69 1613,-213.69"/>
<text text-anchor="middle" x="1543" y="-201.69" font-family="Helvetica,sans-Serif" font-size="10.00">delete_sound_from_bank</text>
</a>
</g>
</g>
<!-- Node15&#45;&gt;Node16 -->
<g id="edge15_Node000015_Node000016" class="edge">
<title>Node15&#45;&gt;Node16</title>
<g id="a_edge15_Node000015_Node000016"><a xlink:title=" ">
<path fill="none" stroke="#63b8ff" d="M1430.63,-176.72C1449.8,-181.45 1473.16,-187.21 1493.52,-192.23"/>
<polygon fill="#63b8ff" stroke="#63b8ff" points="1492.69,-195.63 1503.24,-194.63 1494.37,-188.84 1492.69,-195.63"/>
</a>
</g>
</g>
<!-- Node18 -->
<g id="Node000018" class="node">
<title>Node18</title>
<g id="a_Node000018"><a xlink:href="external_8c.html#ab83bd36e63f0f1baddcb2482b5ad31b0" target="_top" xlink:title=" ">
<polygon fill="white" stroke="#666666" points="1589.5,-176.69 1496.5,-176.69 1496.5,-157.69 1589.5,-157.69 1589.5,-176.69"/>
<text text-anchor="middle" x="1543" y="-164.69" font-family="Helvetica,sans-Serif" font-size="10.00">func_800C41CC</text>
</a>
</g>
</g>
<!-- Node15&#45;&gt;Node18 -->
<g id="edge17_Node000015_Node000018" class="edge">
<title>Node15&#45;&gt;Node18</title>
<g id="a_edge17_Node000015_Node000018"><a xlink:title=" ">
<path fill="none" stroke="#63b8ff" d="M1437,-167.19C1452.37,-167.19 1469.74,-167.19 1485.86,-167.19"/>
<polygon fill="#63b8ff" stroke="#63b8ff" points="1486.25,-170.69 1496.25,-167.19 1486.25,-163.69 1486.25,-170.69"/>
</a>
</g>
</g>
<!-- Node19 -->
<g id="Node000019" class="node">
<title>Node19</title>
<g id="a_Node000019"><a xlink:href="port__eu_8c.html#aa89dfaecca46c6d071f08c1898d1f7c9" target="_top" xlink:title=" ">
<polygon fill="white" stroke="#666666" points="1589.5,-139.69 1496.5,-139.69 1496.5,-120.69 1589.5,-120.69 1589.5,-139.69"/>
<text text-anchor="middle" x="1543" y="-127.69" font-family="Helvetica,sans-Serif" font-size="10.00">func_800CBBE8</text>
</a>
</g>
</g>
<!-- Node15&#45;&gt;Node19 -->
<g id="edge18_Node000015_Node000019" class="edge">
<title>Node15&#45;&gt;Node19</title>
<g id="a_edge18_Node000015_Node000019"><a xlink:title=" ">
<path fill="none" stroke="#63b8ff" d="M1430.63,-157.66C1449.8,-152.93 1473.16,-147.17 1493.52,-142.15"/>
<polygon fill="#63b8ff" stroke="#63b8ff" points="1494.37,-145.54 1503.24,-139.75 1492.69,-138.75 1494.37,-145.54"/>
</a>
</g>
</g>
<!-- Node17 -->
<g id="Node000017" class="node">
<title>Node17</title>
<g id="a_Node000017"><a xlink:href="external_8c.html#a358ac55e8ab5262dcae8037334be06d7" target="_top" xlink:title=" ">
<polygon fill="white" stroke="#666666" points="1741.5,-213.69 1649.5,-213.69 1649.5,-194.69 1741.5,-194.69 1741.5,-213.69"/>
<text text-anchor="middle" x="1695.5" y="-201.69" font-family="Helvetica,sans-Serif" font-size="10.00">func_800C40F0</text>
</a>
</g>
</g>
<!-- Node16&#45;&gt;Node17 -->
<g id="edge16_Node000016_Node000017" class="edge">
<title>Node16&#45;&gt;Node17</title>
<g id="a_edge16_Node000016_Node000017"><a xlink:title=" ">
<path fill="none" stroke="#63b8ff" d="M1613.08,-204.19C1621.87,-204.19 1630.78,-204.19 1639.31,-204.19"/>
<polygon fill="#63b8ff" stroke="#63b8ff" points="1639.5,-207.69 1649.5,-204.19 1639.5,-200.69 1639.5,-207.69"/>
</a>
</g>
</g>
<!-- Node20 -->
<g id="Node000020" class="node">
<title>Node20</title>
<g id="a_Node000020"><a xlink:href="port__eu_8c.html#af361a20d2e08f30c53a237ca481ff734" target="_top" xlink:title=" ">
<polygon fill="white" stroke="#666666" points="1742,-139.69 1649,-139.69 1649,-120.69 1742,-120.69 1742,-139.69"/>
<text text-anchor="middle" x="1695.5" y="-127.69" font-family="Helvetica,sans-Serif" font-size="10.00">func_800CBB48</text>
</a>
</g>
</g>
<!-- Node19&#45;&gt;Node20 -->
<g id="edge19_Node000019_Node000020" class="edge">
<title>Node19&#45;&gt;Node20</title>
<g id="a_edge19_Node000019_Node000020"><a xlink:title=" ">
<path fill="none" stroke="#63b8ff" d="M1589.56,-130.19C1604.96,-130.19 1622.34,-130.19 1638.46,-130.19"/>
<polygon fill="#63b8ff" stroke="#63b8ff" points="1638.83,-133.69 1648.83,-130.19 1638.83,-126.69 1638.83,-133.69"/>
</a>
</g>
</g>
<!-- Node22 -->
<g id="Node000022" class="node">
<title>Node22</title>
<g id="a_Node000022"><a xlink:href="math__util_8c.html#a79fd07a0971ec96a3ff0801963a2fa7f" target="_top" xlink:title=" ">
<polygon fill="white" stroke="#666666" points="946,-391.69 882,-391.69 882,-372.69 946,-372.69 946,-391.69"/>
<text text-anchor="middle" x="914" y="-379.69" font-family="Helvetica,sans-Serif" font-size="10.00">vec3f_set</text>
</a>
</g>
</g>
<!-- Node21&#45;&gt;Node22 -->
<g id="edge21_Node000021_Node000022" class="edge">
<title>Node21&#45;&gt;Node22</title>
<g id="a_edge21_Node000021_Node000022"><a xlink:title=" ">
<path fill="none" stroke="#63b8ff" d="M782.14,-368.92C809.88,-371.73 844.78,-375.27 871.56,-377.99"/>
<polygon fill="#63b8ff" stroke="#63b8ff" points="871.46,-381.49 881.76,-379.02 872.16,-374.53 871.46,-381.49"/>
</a>
</g>
</g>
<!-- Node29&#45;&gt;Node2 -->
<g id="edge29_Node000029_Node000002" class="edge">
<title>Node29&#45;&gt;Node2</title>
<g id="a_edge29_Node000029_Node000002"><a xlink:title=" ">
<path fill="none" stroke="#63b8ff" d="M256.62,-101.77C263.9,-104.11 271.31,-106.91 278,-110.19 311.06,-126.39 344.76,-152.93 364.77,-169.97"/>
<polygon fill="#63b8ff" stroke="#63b8ff" points="362.61,-172.74 372.46,-176.64 367.2,-167.45 362.61,-172.74"/>
</a>
</g>
</g>
<!-- Node29&#45;&gt;Node9 -->
<g id="edge30_Node000029_Node000009" class="edge">
<title>Node29&#45;&gt;Node9</title>
<g id="a_edge30_Node000029_Node000009"><a xlink:title=" ">
<path fill="none" stroke="#63b8ff" d="M257.77,-82.58C264.79,-80.07 271.81,-76.98 278,-73.19 297.57,-61.21 293.15,-45.77 314,-36.19 440.88,22.12 490.16,-2.82 628,-25.19 724.25,-40.81 831.91,-84.28 882.99,-106.59"/>
<polygon fill="#63b8ff" stroke="#63b8ff" points="881.58,-109.8 892.14,-110.63 884.41,-103.39 881.58,-109.8"/>
</a>
</g>
</g>
<!-- Node30 -->
<g id="Node000030" class="node">
<title>Node30</title>
<g id="a_Node000030"><a xlink:href="math__util_8c.html#a062850863585005ad1d0a75d9ff70693" target="_top" xlink:title=" ">
<polygon fill="white" stroke="#666666" points="422.5,-64.69 345.5,-64.69 345.5,-45.69 422.5,-45.69 422.5,-64.69"/>
<text text-anchor="middle" x="384" y="-52.69" font-family="Helvetica,sans-Serif" font-size="10.00">random_u16</text>
</a>
</g>
</g>
<!-- Node29&#45;&gt;Node30 -->
<g id="edge31_Node000029_Node000030" class="edge">
<title>Node29&#45;&gt;Node30</title>
<g id="a_edge31_Node000029_Node000030"><a xlink:title=" ">
<path fill="none" stroke="#63b8ff" d="M259.38,-82.66C282.65,-77.49 311.47,-71.09 335.43,-65.76"/>
<polygon fill="#63b8ff" stroke="#63b8ff" points="336.37,-69.14 345.37,-63.55 334.85,-62.3 336.37,-69.14"/>
</a>
</g>
</g>
<!-- Node31 -->
<g id="Node000031" class="node">
<title>Node31</title>
<g id="a_Node000031"><a xlink:href="collision_8c.html#ad95e9ed2051529d5edee26109fa07427" target="_top" xlink:title=" ">
<polygon fill="white" stroke="#666666" points="452.5,-101.69 315.5,-101.69 315.5,-82.69 452.5,-82.69 452.5,-101.69"/>
<text text-anchor="middle" x="384" y="-89.69" font-family="Helvetica,sans-Serif" font-size="10.00">spawn_actor_on_surface</text>
</a>
</g>
</g>
<!-- Node29&#45;&gt;Node31 -->
<g id="edge32_Node000029_Node000031" class="edge">
<title>Node29&#45;&gt;Node31</title>
<g id="a_edge32_Node000029_Node000031"><a xlink:title=" ">
<path fill="none" stroke="#63b8ff" d="M278.03,-92.19C286.84,-92.19 296.01,-92.19 305.09,-92.19"/>
<polygon fill="#63b8ff" stroke="#63b8ff" points="305.28,-95.69 315.28,-92.19 305.28,-88.69 305.28,-95.69"/>
</a>
</g>
</g>
<!-- Node32 -->
<g id="Node000032" class="node">
<title>Node32</title>
<g id="a_Node000032"><a xlink:href="collision_8c.html#a6527a2135a10909cdf9a1fd731be5628" target="_top" xlink:title=" ">
<polygon fill="white" stroke="#666666" points="628,-101.69 490,-101.69 490,-82.69 628,-82.69 628,-101.69"/>
<text text-anchor="middle" x="559" y="-89.69" font-family="Helvetica,sans-Serif" font-size="10.00">calculate_surface_height</text>
</a>
</g>
</g>
<!-- Node31&#45;&gt;Node32 -->
<g id="edge33_Node000031_Node000032" class="edge">
<title>Node31&#45;&gt;Node32</title>
<g id="a_edge33_Node000031_Node000032"><a xlink:title=" ">
<path fill="none" stroke="#63b8ff" d="M452.88,-92.19C461.68,-92.19 470.75,-92.19 479.71,-92.19"/>
<polygon fill="#63b8ff" stroke="#63b8ff" points="479.75,-95.69 489.75,-92.19 479.75,-88.69 479.75,-95.69"/>
</a>
</g>
</g>
<!-- Node33 -->
<g id="Node000033" class="node">
<title>Node33</title>
<g id="a_Node000033"><a xlink:href="collision_8c.html#a0fe340ccfe1d926a592ea9a0c84d7574" target="_top" xlink:title=" ">
<polygon fill="white" stroke="#666666" points="625,-64.19 493,-64.19 493,-34.19 625,-34.19 625,-64.19"/>
<text text-anchor="start" x="501" y="-52.19" font-family="Helvetica,sans-Serif" font-size="10.00">check_horizontally</text>
<text text-anchor="middle" x="559" y="-41.19" font-family="Helvetica,sans-Serif" font-size="10.00">_colliding_with_triangle</text>
</a>
</g>
</g>
<!-- Node31&#45;&gt;Node33 -->
<g id="edge34_Node000031_Node000033" class="edge">
<title>Node31&#45;&gt;Node33</title>
<g id="a_edge34_Node000031_Node000033"><a xlink:title=" ">
<path fill="none" stroke="#63b8ff" d="M423.39,-82.65C442.3,-77.95 465.7,-72.13 487.66,-66.67"/>
<polygon fill="#63b8ff" stroke="#63b8ff" points="488.77,-70 497.63,-64.2 487.08,-63.21 488.77,-70"/>
</a>
</g>
</g>
<!-- Node34&#45;&gt;Node2 -->
<g id="edge36_Node000034_Node000002" class="edge">
<title>Node34&#45;&gt;Node2</title>
<g id="a_edge36_Node000034_Node000002"><a xlink:title=" ">
<path fill="none" stroke="#63b8ff" d="M244.37,-138.73C272.1,-148.22 314.84,-162.86 345.53,-173.36"/>
<polygon fill="#63b8ff" stroke="#63b8ff" points="344.45,-176.69 355.04,-176.62 346.71,-170.07 344.45,-176.69"/>
</a>
</g>
</g>
<!-- Node34&#45;&gt;Node9 -->
<g id="edge37_Node000034_Node000009" class="edge">
<title>Node34&#45;&gt;Node9</title>
<g id="a_edge37_Node000034_Node000009"><a xlink:title=" ">
<path fill="none" stroke="#63b8ff" d="M265.2,-128.56C392.66,-126.91 735.08,-122.49 863.47,-120.83"/>
<polygon fill="#63b8ff" stroke="#63b8ff" points="863.83,-124.33 873.78,-120.7 863.74,-117.33 863.83,-124.33"/>
</a>
</g>
</g>
<!-- Node34&#45;&gt;Node30 -->
<g id="edge38_Node000034_Node000030" class="edge">
<title>Node34&#45;&gt;Node30</title>
<g id="a_edge38_Node000034_Node000030"><a xlink:title=" ">
<path fill="none" stroke="#63b8ff" d="M257.77,-119.58C264.79,-117.07 271.81,-113.98 278,-110.19 297.57,-98.21 294.17,-84.73 314,-73.19 320.62,-69.34 328.07,-66.29 335.57,-63.89"/>
<polygon fill="#63b8ff" stroke="#63b8ff" points="336.72,-67.21 345.38,-61.1 334.8,-60.47 336.72,-67.21"/>
</a>
</g>
</g>
<!-- Node34&#45;&gt;Node31 -->
<g id="edge39_Node000034_Node000031" class="edge">
<title>Node34&#45;&gt;Node31</title>
<g id="a_edge39_Node000034_Node000031"><a xlink:title=" ">
<path fill="none" stroke="#63b8ff" d="M259.38,-119.66C280.95,-114.87 307.29,-109.01 330.11,-103.94"/>
<polygon fill="#63b8ff" stroke="#63b8ff" points="330.98,-107.34 339.98,-101.75 329.46,-100.5 330.98,-107.34"/>
</a>
</g>
</g>
</g>
</svg>
