<?xml version="1.0" encoding="UTF-8" standalone="no"?>
<!DOCTYPE svg PUBLIC "-//W3C//DTD SVG 1.1//EN"
 "http://www.w3.org/Graphics/SVG/1.1/DTD/svg11.dtd">
<!-- Generated by graphviz version 2.43.0 (0)
 -->
<!-- Title: src/engine/Registry.h Pages: 1 -->
<svg width="555pt" height="192pt"
 viewBox="0.00 0.00 554.69 192.00" xmlns="http://www.w3.org/2000/svg" xmlns:xlink="http://www.w3.org/1999/xlink">
<g id="graph0" class="graph" transform="scale(1 1) rotate(0) translate(4 188)">
<title>src/engine/Registry.h</title>
<!-- Node1 -->
<g id="Node000001" class="node">
<title>Node1</title>
<g id="a_Node000001"><a xlink:title=" ">
<polygon fill="#999999" stroke="#666666" points="144.19,-184 26.19,-184 26.19,-165 144.19,-165 144.19,-184"/>
<text text-anchor="middle" x="85.19" y="-172" font-family="Helvetica,sans-Serif" font-size="10.00">src/engine/Registry.h</text>
</a>
</g>
</g>
<!-- Node2 -->
<g id="Node000002" class="node">
<title>Node2</title>
<g id="a_Node000002"><a xlink:title=" ">
<polygon fill="#e0e0e0" stroke="#999999" points="425.19,-19 345.19,-19 345.19,0 425.19,0 425.19,-19"/>
<text text-anchor="middle" x="385.19" y="-7" font-family="Helvetica,sans-Serif" font-size="10.00">libultraship.h</text>
</a>
</g>
</g>
<!-- Node1&#45;&gt;Node2 -->
<g id="edge1_Node000001_Node000002" class="edge">
<title>Node1&#45;&gt;Node2</title>
<g id="a_edge1_Node000001_Node000002"><a xlink:title=" ">
<path fill="none" stroke="#63b8ff" d="M72.09,-164.83C42.67,-144.35 -23.61,-91.9 9.19,-55 30.46,-31.06 237.28,-17.78 334.79,-12.8"/>
<polygon fill="#63b8ff" stroke="#63b8ff" points="335.19,-16.29 345,-12.29 334.84,-9.3 335.19,-16.29"/>
</a>
</g>
</g>
<!-- Node3 -->
<g id="Node000003" class="node">
<title>Node3</title>
<g id="a_Node000003"><a xlink:href="SpawnParams_8h.html" target="_top" xlink:title=" ">
<polygon fill="white" stroke="#666666" points="227.19,-129 133.19,-129 133.19,-110 227.19,-110 227.19,-129"/>
<text text-anchor="middle" x="180.19" y="-117" font-family="Helvetica,sans-Serif" font-size="10.00">SpawnParams.h</text>
</a>
</g>
</g>
<!-- Node1&#45;&gt;Node3 -->
<g id="edge2_Node000001_Node000003" class="edge">
<title>Node1&#45;&gt;Node3</title>
<g id="a_edge2_Node000001_Node000003"><a xlink:title=" ">
<path fill="none" stroke="#63b8ff" d="M100.45,-164.98C115.32,-156.69 138.17,-143.94 155.6,-134.22"/>
<polygon fill="#63b8ff" stroke="#63b8ff" points="157.62,-137.1 164.65,-129.17 154.21,-130.99 157.62,-137.1"/>
</a>
</g>
</g>
<!-- Node4 -->
<g id="Node000004" class="node">
<title>Node4</title>
<g id="a_Node000004"><a xlink:title=" ">
<polygon fill="#e0e0e0" stroke="#999999" points="65.69,-74 18.69,-74 18.69,-55 65.69,-55 65.69,-74"/>
<text text-anchor="middle" x="42.19" y="-62" font-family="Helvetica,sans-Serif" font-size="10.00">vector</text>
</a>
</g>
</g>
<!-- Node3&#45;&gt;Node4 -->
<g id="edge3_Node000003_Node000004" class="edge">
<title>Node3&#45;&gt;Node4</title>
<g id="a_edge3_Node000003_Node000004"><a xlink:title=" ">
<path fill="none" stroke="#63b8ff" d="M158.02,-109.98C135.42,-101.3 100.13,-87.75 74.43,-77.88"/>
<polygon fill="#63b8ff" stroke="#63b8ff" points="75.35,-74.49 64.76,-74.17 72.84,-81.02 75.35,-74.49"/>
</a>
</g>
</g>
<!-- Node5 -->
<g id="Node000005" class="node">
<title>Node5</title>
<g id="a_Node000005"><a xlink:title=" ">
<polygon fill="#e0e0e0" stroke="#999999" points="140.19,-74 84.19,-74 84.19,-55 140.19,-55 140.19,-74"/>
<text text-anchor="middle" x="112.19" y="-62" font-family="Helvetica,sans-Serif" font-size="10.00">optional</text>
</a>
</g>
</g>
<!-- Node3&#45;&gt;Node5 -->
<g id="edge4_Node000003_Node000005" class="edge">
<title>Node3&#45;&gt;Node5</title>
<g id="a_edge4_Node000003_Node000005"><a xlink:title=" ">
<path fill="none" stroke="#63b8ff" d="M169.26,-109.98C159.11,-102.07 143.77,-90.11 131.54,-80.58"/>
<polygon fill="#63b8ff" stroke="#63b8ff" points="133.35,-77.56 123.31,-74.17 129.05,-83.08 133.35,-77.56"/>
</a>
</g>
</g>
<!-- Node6 -->
<g id="Node000006" class="node">
<title>Node6</title>
<g id="a_Node000006"><a xlink:title=" ">
<polygon fill="#e0e0e0" stroke="#999999" points="202.19,-74 158.19,-74 158.19,-55 202.19,-55 202.19,-74"/>
<text text-anchor="middle" x="180.19" y="-62" font-family="Helvetica,sans-Serif" font-size="10.00">string</text>
</a>
</g>
</g>
<!-- Node3&#45;&gt;Node6 -->
<g id="edge5_Node000003_Node000006" class="edge">
<title>Node3&#45;&gt;Node6</title>
<g id="a_edge5_Node000003_Node000006"><a xlink:title=" ">
<path fill="none" stroke="#63b8ff" d="M180.19,-109.75C180.19,-102.8 180.19,-92.85 180.19,-84.13"/>
<polygon fill="#63b8ff" stroke="#63b8ff" points="183.69,-84.09 180.19,-74.09 176.69,-84.09 183.69,-84.09"/>
</a>
</g>
</g>
<!-- Node7 -->
<g id="Node000007" class="node">
<title>Node7</title>
<g id="a_Node000007"><a xlink:title=" ">
<polygon fill="#e0e0e0" stroke="#999999" points="330.19,-74 220.19,-74 220.19,-55 330.19,-55 330.19,-74"/>
<text text-anchor="middle" x="275.19" y="-62" font-family="Helvetica,sans-Serif" font-size="10.00">nlohmann/json.hpp</text>
</a>
</g>
</g>
<!-- Node3&#45;&gt;Node7 -->
<g id="edge6_Node000003_Node000007" class="edge">
<title>Node3&#45;&gt;Node7</title>
<g id="a_edge6_Node000003_Node000007"><a xlink:title=" ">
<path fill="none" stroke="#63b8ff" d="M195.45,-109.98C210.32,-101.69 233.17,-88.94 250.6,-79.22"/>
<polygon fill="#63b8ff" stroke="#63b8ff" points="252.62,-82.1 259.65,-74.17 249.21,-75.99 252.62,-82.1"/>
</a>
</g>
</g>
<!-- Node8 -->
<g id="Node000008" class="node">
<title>Node8</title>
<g id="a_Node000008"><a xlink:href="CoreMath_8h.html" target="_top" xlink:title=" ">
<polygon fill="white" stroke="#666666" points="421.69,-74 348.69,-74 348.69,-55 421.69,-55 421.69,-74"/>
<text text-anchor="middle" x="385.19" y="-62" font-family="Helvetica,sans-Serif" font-size="10.00">CoreMath.h</text>
</a>
</g>
</g>
<!-- Node3&#45;&gt;Node8 -->
<g id="edge7_Node000003_Node000008" class="edge">
<title>Node3&#45;&gt;Node8</title>
<g id="a_edge7_Node000003_Node000008"><a xlink:title=" ">
<path fill="none" stroke="#63b8ff" d="M213.12,-109.98C248.14,-100.93 303.66,-86.58 342.12,-76.64"/>
<polygon fill="#63b8ff" stroke="#63b8ff" points="343.19,-79.97 351.99,-74.08 341.44,-73.2 343.19,-79.97"/>
</a>
</g>
</g>
<!-- Node9 -->
<g id="Node000009" class="node">
<title>Node9</title>
<g id="a_Node000009"><a xlink:href="common__structs_8h.html" target="_top" xlink:title=" ">
<polygon fill="white" stroke="#666666" points="546.69,-74 439.69,-74 439.69,-55 546.69,-55 546.69,-74"/>
<text text-anchor="middle" x="493.19" y="-62" font-family="Helvetica,sans-Serif" font-size="10.00">common_structs.h</text>
</a>
</g>
</g>
<!-- Node3&#45;&gt;Node9 -->
<g id="edge9_Node000003_Node000009" class="edge">
<title>Node3&#45;&gt;Node9</title>
<g id="a_edge9_Node000003_Node000009"><a xlink:title=" ">
<path fill="none" stroke="#63b8ff" d="M227.39,-110.51C282.2,-101.23 372.73,-85.9 432.67,-75.75"/>
<polygon fill="#63b8ff" stroke="#63b8ff" points="433.47,-79.16 442.75,-74.04 432.3,-72.26 433.47,-79.16"/>
</a>
</g>
</g>
<!-- Node8&#45;&gt;Node2 -->
<g id="edge8_Node000008_Node000002" class="edge">
<title>Node8&#45;&gt;Node2</title>
<g id="a_edge8_Node000008_Node000002"><a xlink:title=" ">
<path fill="none" stroke="#63b8ff" d="M385.19,-54.75C385.19,-47.8 385.19,-37.85 385.19,-29.13"/>
<polygon fill="#63b8ff" stroke="#63b8ff" points="388.69,-29.09 385.19,-19.09 381.69,-29.09 388.69,-29.09"/>
</a>
</g>
</g>
<!-- Node9&#45;&gt;Node2 -->
<g id="edge10_Node000009_Node000002" class="edge">
<title>Node9&#45;&gt;Node2</title>
<g id="a_edge10_Node000009_Node000002"><a xlink:title=" ">
<path fill="none" stroke="#63b8ff" d="M475.84,-54.98C458.62,-46.54 431.99,-33.47 412.04,-23.68"/>
<polygon fill="#63b8ff" stroke="#63b8ff" points="413.38,-20.43 402.86,-19.17 410.29,-26.72 413.38,-20.43"/>
</a>
</g>
</g>
</g>
</svg>
