<?xml version="1.0" encoding="UTF-8" standalone="no"?>
<!DOCTYPE svg PUBLIC "-//W3C//DTD SVG 1.1//EN"
 "http://www.w3.org/Graphics/SVG/1.1/DTD/svg11.dtd">
<!-- Generated by graphviz version 2.43.0 (0)
 -->
<!-- Title: src/engine/Registry.cpp Pages: 1 -->
<!--zoomable 302 -->

<svg id="main" version="1.1" xmlns="http://www.w3.org/2000/svg" xmlns:xlink="http://www.w3.org/1999/xlink" xml:space="preserve" onload="init(evt)">

<style type="text/css"><![CDATA[
.node, .edge {opacity: 0.7;}
.node.selected, .edge.selected {opacity: 1;}
.edge:hover path { stroke: red; }
.edge:hover polygon { stroke: red; fill: red; }
]]></style>

<defs>
  <circle id="rim" cx="0" cy="0" r="7"/>
  <circle id="rim2" cx="0" cy="0" r="3.5"/>
  <g id="zoomPlus">
    <use xlink:href="#rim" fill="#404040"><set attributeName="fill" to="#808080" begin="zoomplus.mouseover" end="zoomplus.mouseout"/></use>
    <path d="M-4,0h8M0,-4v8" fill="none" stroke="white" stroke-width="1.5" pointer-events="none"/>
  </g>
  <g id="zoomMin">
    <use xlink:href="#rim" fill="#404040"><set attributeName="fill" to="#808080" begin="zoomminus.mouseover" end="zoomminus.mouseout"/></use>
    <path d="M-4,0h8" fill="none" stroke="white" stroke-width="1.5" pointer-events="none"/>
  </g>
  <g id="arrowUp" transform="translate(30 24)">
    <use xlink:href="#rim"/>
    <path pointer-events="none" fill="none" stroke="white" stroke-width="1.5" d="M0,-3.0v7 M-2.5,-0.5L0,-3.0L2.5,-0.5"/>
  </g>
  <g id="arrowRight" transform="rotate(90) translate(36 -43)">
    <use xlink:href="#rim"/>
    <path pointer-events="none" fill="none" stroke="white" stroke-width="1.5" d="M0,-3.0v7 M-2.5,-0.5L0,-3.0L2.5,-0.5"/>
  </g>
  <g id="arrowDown" transform="rotate(180) translate(-30 -48)">
    <use xlink:href="#rim"/>
    <path pointer-events="none" fill="none" stroke="white" stroke-width="1.5" d="M0,-3.0v7 M-2.5,-0.5L0,-3.0L2.5,-0.5"/>
  </g>
  <g id="arrowLeft" transform="rotate(270) translate(-36 17)">
    <use xlink:href="#rim"/>
    <path pointer-events="none" fill="none" stroke="white" stroke-width="1.5" d="M0,-3.0v7 M-2.5,-0.5L0,-3.0L2.5,-0.5"/>
  </g>
  <g id="resetDef">
    <use xlink:href="#rim2" fill="#404040"><set attributeName="fill" to="#808080" begin="reset.mouseover" end="reset.mouseout"/></use>
  </g>
</defs>
<script type="application/ecmascript">
var viewWidth = 925;
var viewHeight = 302;
var sectionId = 'dynsection-0';
</script>
<script type="application/ecmascript" xlink:href="svg.min.js"/>
<svg id="graph" class="graph">
<g id="viewport">
<title>src/engine/Registry.cpp</title>
<!-- Node1 -->
<g id="Node000001" class="node">
<title>Node1</title>
<g id="a_Node000001"><a xlink:title=" ">
<polygon fill="#999999" stroke="#666666" points="387,-294 258,-294 258,-275 387,-275 387,-294"/>
<text text-anchor="middle" x="322.5" y="-282" font-family="Helvetica,sans-Serif" font-size="10.00">src/engine/Registry.cpp</text>
</a>
</g>
</g>
<!-- Node2 -->
<g id="Node000002" class="node">
<title>Node2</title>
<g id="a_Node000002"><a xlink:title=" ">
<polygon fill="#e0e0e0" stroke="#999999" points="65,-239 0,-239 0,-220 65,-220 65,-239"/>
<text text-anchor="middle" x="32.5" y="-227" font-family="Helvetica,sans-Serif" font-size="10.00">functional</text>
</a>
</g>
</g>
<!-- Node1&#45;&gt;Node2 -->
<g id="edge1_Node000001_Node000002" class="edge">
<title>Node1&#45;&gt;Node2</title>
<g id="a_edge1_Node000001_Node000002"><a xlink:title=" ">
<path fill="none" stroke="#63b8ff" d="M272.35,-274.96C224.17,-266.65 149.07,-253.47 75.11,-239.27"/>
<polygon fill="#63b8ff" stroke="#63b8ff" points="75.64,-235.81 65.16,-237.36 74.31,-242.68 75.64,-235.81"/>
</a>
</g>
</g>
<!-- Node3 -->
<g id="Node000003" class="node">
<title>Node3</title>
<g id="a_Node000003"><a xlink:title=" ">
<polygon fill="#e0e0e0" stroke="#999999" points="176,-239 83,-239 83,-220 176,-220 176,-239"/>
<text text-anchor="middle" x="129.5" y="-227" font-family="Helvetica,sans-Serif" font-size="10.00">unordered_map</text>
</a>
</g>
</g>
<!-- Node1&#45;&gt;Node3 -->
<g id="edge2_Node000001_Node000003" class="edge">
<title>Node1&#45;&gt;Node3</title>
<g id="a_edge2_Node000001_Node000003"><a xlink:title=" ">
<path fill="none" stroke="#63b8ff" d="M291.49,-274.98C258.67,-265.97 206.7,-251.7 170.51,-241.76"/>
<polygon fill="#63b8ff" stroke="#63b8ff" points="171.32,-238.36 160.75,-239.08 169.47,-245.11 171.32,-238.36"/>
</a>
</g>
</g>
<!-- Node4 -->
<g id="Node000004" class="node">
<title>Node4</title>
<g id="a_Node000004"><a xlink:title=" ">
<polygon fill="#e0e0e0" stroke="#999999" points="825.5,-129 781.5,-129 781.5,-110 825.5,-110 825.5,-129"/>
<text text-anchor="middle" x="803.5" y="-117" font-family="Helvetica,sans-Serif" font-size="10.00">string</text>
</a>
</g>
</g>
<!-- Node1&#45;&gt;Node4 -->
<g id="edge3_Node000001_Node000004" class="edge">
<title>Node1&#45;&gt;Node4</title>
<g id="a_edge3_Node000001_Node000004"><a xlink:title=" ">
<path fill="none" stroke="#63b8ff" d="M387.14,-275.75C468.47,-264.16 610.86,-237.67 721.5,-184 746.65,-171.8 771.45,-151.04 787.08,-136.6"/>
<polygon fill="#63b8ff" stroke="#63b8ff" points="789.91,-138.73 794.76,-129.31 785.1,-133.65 789.91,-138.73"/>
</a>
</g>
</g>
<!-- Node5 -->
<g id="Node000005" class="node">
<title>Node5</title>
<g id="a_Node000005"><a xlink:href="Registry_8h.html" target="_top" xlink:title=" ">
<polygon fill="white" stroke="#666666" points="480,-239 415,-239 415,-220 480,-220 480,-239"/>
<text text-anchor="middle" x="447.5" y="-227" font-family="Helvetica,sans-Serif" font-size="10.00">Registry.h</text>
</a>
</g>
</g>
<!-- Node1&#45;&gt;Node5 -->
<g id="edge4_Node000001_Node000005" class="edge">
<title>Node1&#45;&gt;Node5</title>
<g id="a_edge4_Node000001_Node000005"><a xlink:title=" ">
<path fill="none" stroke="#63b8ff" d="M342.58,-274.98C362.87,-266.38 394.46,-252.99 417.67,-243.15"/>
<polygon fill="#63b8ff" stroke="#63b8ff" points="419.21,-246.3 427.05,-239.17 416.48,-239.85 419.21,-246.3"/>
</a>
</g>
</g>
<!-- Node11 -->
<g id="Node000011" class="node">
<title>Node11</title>
<g id="a_Node000011"><a xlink:href="CoreMath_8h.html" target="_top" xlink:title=" ">
<polygon fill="white" stroke="#666666" points="917,-129 844,-129 844,-110 917,-110 917,-129"/>
<text text-anchor="middle" x="880.5" y="-117" font-family="Helvetica,sans-Serif" font-size="10.00">CoreMath.h</text>
</a>
</g>
</g>
<!-- Node1&#45;&gt;Node11 -->
<g id="edge15_Node000001_Node000011" class="edge">
<title>Node1&#45;&gt;Node11</title>
<g id="a_edge15_Node000001_Node000011"><a xlink:title=" ">
<path fill="none" stroke="#63b8ff" d="M387.02,-277.84C446.37,-271.64 536.44,-259.7 612.5,-239 676.21,-221.66 690.13,-210.73 750.5,-184 787.16,-167.77 828.64,-147.09 854.68,-133.82"/>
<polygon fill="#63b8ff" stroke="#63b8ff" points="856.55,-136.8 863.86,-129.13 853.36,-130.57 856.55,-136.8"/>
</a>
</g>
</g>
<!-- Node13 -->
<g id="Node000013" class="node">
<title>Node13</title>
<g id="a_Node000013"><a xlink:href="actors_8h.html" target="_top" xlink:title=" ">
<polygon fill="white" stroke="#666666" points="350.5,-239 294.5,-239 294.5,-220 350.5,-220 350.5,-239"/>
<text text-anchor="middle" x="322.5" y="-227" font-family="Helvetica,sans-Serif" font-size="10.00">actors.h</text>
</a>
</g>
</g>
<!-- Node1&#45;&gt;Node13 -->
<g id="edge16_Node000001_Node000013" class="edge">
<title>Node1&#45;&gt;Node13</title>
<g id="a_edge16_Node000001_Node000013"><a xlink:title=" ">
<path fill="none" stroke="#63b8ff" d="M322.5,-274.75C322.5,-267.8 322.5,-257.85 322.5,-249.13"/>
<polygon fill="#63b8ff" stroke="#63b8ff" points="326,-249.09 322.5,-239.09 319,-249.09 326,-249.09"/>
</a>
</g>
</g>
<!-- Node14 -->
<g id="Node000014" class="node">
<title>Node14</title>
<g id="a_Node000014"><a xlink:href="actor__types_8h.html" target="_top" xlink:title=" ">
<polygon fill="white" stroke="#666666" points="278,-129 195,-129 195,-110 278,-110 278,-129"/>
<text text-anchor="middle" x="236.5" y="-117" font-family="Helvetica,sans-Serif" font-size="10.00">actor_types.h</text>
</a>
</g>
</g>
<!-- Node1&#45;&gt;Node14 -->
<g id="edge32_Node000001_Node000014" class="edge">
<title>Node1&#45;&gt;Node14</title>
<g id="a_edge32_Node000001_Node000014"><a xlink:title=" ">
<path fill="none" stroke="#63b8ff" d="M313.47,-274.91C297.19,-258.81 263.13,-222.24 247.5,-184 241.61,-169.58 238.87,-152.07 237.6,-139.09"/>
<polygon fill="#63b8ff" stroke="#63b8ff" points="241.08,-138.74 236.82,-129.04 234.1,-139.28 241.08,-138.74"/>
</a>
</g>
</g>
<!-- Node6 -->
<g id="Node000006" class="node">
<title>Node6</title>
<g id="a_Node000006"><a xlink:title=" ">
<polygon fill="#e0e0e0" stroke="#999999" points="428.5,-19 348.5,-19 348.5,0 428.5,0 428.5,-19"/>
<text text-anchor="middle" x="388.5" y="-7" font-family="Helvetica,sans-Serif" font-size="10.00">libultraship.h</text>
</a>
</g>
</g>
<!-- Node5&#45;&gt;Node6 -->
<g id="edge5_Node000005_Node000006" class="edge">
<title>Node5&#45;&gt;Node6</title>
<g id="a_edge5_Node000005_Node000006"><a xlink:title=" ">
<path fill="none" stroke="#63b8ff" d="M451.85,-219.81C464.56,-193.08 498.76,-110.55 466.5,-55 457.96,-40.29 442.53,-30.04 427.64,-23.11"/>
<polygon fill="#63b8ff" stroke="#63b8ff" points="428.58,-19.71 418,-19.03 425.84,-26.15 428.58,-19.71"/>
</a>
</g>
</g>
<!-- Node7 -->
<g id="Node000007" class="node">
<title>Node7</title>
<g id="a_Node000007"><a xlink:href="SpawnParams_8h.html" target="_top" xlink:title=" ">
<polygon fill="white" stroke="#666666" points="712.5,-184 618.5,-184 618.5,-165 712.5,-165 712.5,-184"/>
<text text-anchor="middle" x="665.5" y="-172" font-family="Helvetica,sans-Serif" font-size="10.00">SpawnParams.h</text>
</a>
</g>
</g>
<!-- Node5&#45;&gt;Node7 -->
<g id="edge6_Node000005_Node000007" class="edge">
<title>Node5&#45;&gt;Node7</title>
<g id="a_edge6_Node000005_Node000007"><a xlink:title=" ">
<path fill="none" stroke="#63b8ff" d="M480.14,-220.57C517.45,-211.49 578.74,-196.59 620.55,-186.43"/>
<polygon fill="#63b8ff" stroke="#63b8ff" points="621.58,-189.78 630.47,-184.02 619.93,-182.98 621.58,-189.78"/>
</a>
</g>
</g>
<!-- Node7&#45;&gt;Node4 -->
<g id="edge9_Node000007_Node000004" class="edge">
<title>Node7&#45;&gt;Node4</title>
<g id="a_edge9_Node000007_Node000004"><a xlink:title=" ">
<path fill="none" stroke="#63b8ff" d="M687.67,-164.98C710.41,-156.25 745.98,-142.59 771.71,-132.71"/>
<polygon fill="#63b8ff" stroke="#63b8ff" points="773.3,-135.85 781.38,-128.99 770.79,-129.31 773.3,-135.85"/>
</a>
</g>
</g>
<!-- Node8 -->
<g id="Node000008" class="node">
<title>Node8</title>
<g id="a_Node000008"><a xlink:title=" ">
<polygon fill="#e0e0e0" stroke="#999999" points="689,-129 642,-129 642,-110 689,-110 689,-129"/>
<text text-anchor="middle" x="665.5" y="-117" font-family="Helvetica,sans-Serif" font-size="10.00">vector</text>
</a>
</g>
</g>
<!-- Node7&#45;&gt;Node8 -->
<g id="edge7_Node000007_Node000008" class="edge">
<title>Node7&#45;&gt;Node8</title>
<g id="a_edge7_Node000007_Node000008"><a xlink:title=" ">
<path fill="none" stroke="#63b8ff" d="M665.5,-164.75C665.5,-157.8 665.5,-147.85 665.5,-139.13"/>
<polygon fill="#63b8ff" stroke="#63b8ff" points="669,-139.09 665.5,-129.09 662,-139.09 669,-139.09"/>
</a>
</g>
</g>
<!-- Node9 -->
<g id="Node000009" class="node">
<title>Node9</title>
<g id="a_Node000009"><a xlink:title=" ">
<polygon fill="#e0e0e0" stroke="#999999" points="763.5,-129 707.5,-129 707.5,-110 763.5,-110 763.5,-129"/>
<text text-anchor="middle" x="735.5" y="-117" font-family="Helvetica,sans-Serif" font-size="10.00">optional</text>
</a>
</g>
</g>
<!-- Node7&#45;&gt;Node9 -->
<g id="edge8_Node000007_Node000009" class="edge">
<title>Node7&#45;&gt;Node9</title>
<g id="a_edge8_Node000007_Node000009"><a xlink:title=" ">
<path fill="none" stroke="#63b8ff" d="M676.75,-164.98C687.3,-157 703.3,-144.88 715.94,-135.31"/>
<polygon fill="#63b8ff" stroke="#63b8ff" points="718.19,-138 724.05,-129.17 713.96,-132.42 718.19,-138"/>
</a>
</g>
</g>
<!-- Node10 -->
<g id="Node000010" class="node">
<title>Node10</title>
<g id="a_Node000010"><a xlink:title=" ">
<polygon fill="#e0e0e0" stroke="#999999" points="623.5,-129 513.5,-129 513.5,-110 623.5,-110 623.5,-129"/>
<text text-anchor="middle" x="568.5" y="-117" font-family="Helvetica,sans-Serif" font-size="10.00">nlohmann/json.hpp</text>
</a>
</g>
</g>
<!-- Node7&#45;&gt;Node10 -->
<g id="edge10_Node000007_Node000010" class="edge">
<title>Node7&#45;&gt;Node10</title>
<g id="a_edge10_Node000007_Node000010"><a xlink:title=" ">
<path fill="none" stroke="#63b8ff" d="M649.92,-164.98C634.73,-156.69 611.4,-143.94 593.6,-134.22"/>
<polygon fill="#63b8ff" stroke="#63b8ff" points="594.82,-130.89 584.37,-129.17 591.47,-137.04 594.82,-130.89"/>
</a>
</g>
</g>
<!-- Node7&#45;&gt;Node11 -->
<g id="edge11_Node000007_Node000011" class="edge">
<title>Node7&#45;&gt;Node11</title>
<g id="a_edge11_Node000007_Node000011"><a xlink:title=" ">
<path fill="none" stroke="#63b8ff" d="M700.04,-164.98C736.92,-155.89 795.49,-141.46 835.84,-131.51"/>
<polygon fill="#63b8ff" stroke="#63b8ff" points="836.81,-134.87 845.69,-129.08 835.14,-128.08 836.81,-134.87"/>
</a>
</g>
</g>
<!-- Node12 -->
<g id="Node000012" class="node">
<title>Node12</title>
<g id="a_Node000012"><a xlink:href="common__structs_8h.html" target="_top" xlink:title=" ">
<polygon fill="white" stroke="#666666" points="442,-74 335,-74 335,-55 442,-55 442,-74"/>
<text text-anchor="middle" x="388.5" y="-62" font-family="Helvetica,sans-Serif" font-size="10.00">common_structs.h</text>
</a>
</g>
</g>
<!-- Node7&#45;&gt;Node12 -->
<g id="edge13_Node000007_Node000012" class="edge">
<title>Node7&#45;&gt;Node12</title>
<g id="a_edge13_Node000007_Node000012"><a xlink:title=" ">
<path fill="none" stroke="#63b8ff" d="M624.61,-164.96C591.55,-157.4 544.14,-145.07 504.5,-129 470.28,-115.12 433.27,-93.62 410.48,-79.55"/>
<polygon fill="#63b8ff" stroke="#63b8ff" points="412.25,-76.53 401.92,-74.19 408.54,-82.46 412.25,-76.53"/>
</a>
</g>
</g>
<!-- Node11&#45;&gt;Node6 -->
<g id="edge12_Node000011_Node000006" class="edge">
<title>Node11&#45;&gt;Node6</title>
<g id="a_edge12_Node000011_Node000006"><a xlink:title=" ">
<path fill="none" stroke="#63b8ff" d="M843.92,-110.47C756.6,-91.3 535.9,-42.86 437.35,-21.22"/>
<polygon fill="#63b8ff" stroke="#63b8ff" points="437.87,-17.75 427.35,-19.03 436.37,-24.59 437.87,-17.75"/>
</a>
</g>
</g>
<!-- Node12&#45;&gt;Node6 -->
<g id="edge14_Node000012_Node000006" class="edge">
<title>Node12&#45;&gt;Node6</title>
<g id="a_edge14_Node000012_Node000006"><a xlink:title=" ">
<path fill="none" stroke="#63b8ff" d="M388.5,-54.75C388.5,-47.8 388.5,-37.85 388.5,-29.13"/>
<polygon fill="#63b8ff" stroke="#63b8ff" points="392,-29.09 388.5,-19.09 385,-29.09 392,-29.09"/>
</a>
</g>
</g>
<!-- Node13&#45;&gt;Node14 -->
<g id="edge17_Node000013_Node000014" class="edge">
<title>Node13&#45;&gt;Node14</title>
<g id="a_edge17_Node000013_Node000014"><a xlink:title=" ">
<path fill="none" stroke="#63b8ff" d="M305.97,-219.93C292.4,-212.16 273.52,-199.56 261.5,-184 251.2,-170.67 244.63,-152.56 240.82,-139.09"/>
<polygon fill="#63b8ff" stroke="#63b8ff" points="244.13,-137.89 238.25,-129.07 237.35,-139.63 244.13,-137.89"/>
</a>
</g>
</g>
<!-- Node18 -->
<g id="Node000018" class="node">
<title>Node18</title>
<g id="a_Node000018"><a xlink:href="code__800029B0_8h.html" target="_top" xlink:title=" ">
<polygon fill="white" stroke="#666666" points="374,-184 271,-184 271,-165 374,-165 374,-184"/>
<text text-anchor="middle" x="322.5" y="-172" font-family="Helvetica,sans-Serif" font-size="10.00">code_800029B0.h</text>
</a>
</g>
</g>
<!-- Node13&#45;&gt;Node18 -->
<g id="edge24_Node000013_Node000018" class="edge">
<title>Node13&#45;&gt;Node18</title>
<g id="a_edge24_Node000013_Node000018"><a xlink:title=" ">
<path fill="none" stroke="#63b8ff" d="M322.5,-219.75C322.5,-212.8 322.5,-202.85 322.5,-194.13"/>
<polygon fill="#63b8ff" stroke="#63b8ff" points="326,-194.09 322.5,-184.09 319,-194.09 326,-194.09"/>
</a>
</g>
</g>
<!-- Node19 -->
<g id="Node000019" class="node">
<title>Node19</title>
<g id="a_Node000019"><a xlink:href="camera_8h.html" target="_top" xlink:title=" ">
<polygon fill="white" stroke="#666666" points="419.5,-129 357.5,-129 357.5,-110 419.5,-110 419.5,-129"/>
<text text-anchor="middle" x="388.5" y="-117" font-family="Helvetica,sans-Serif" font-size="10.00">camera.h</text>
</a>
</g>
</g>
<!-- Node13&#45;&gt;Node19 -->
<g id="edge31_Node000013_Node000019" class="edge">
<title>Node13&#45;&gt;Node19</title>
<g id="a_edge31_Node000013_Node000019"><a xlink:title=" ">
<path fill="none" stroke="#63b8ff" d="M341.35,-219.9C355.24,-212.48 373.26,-200.38 382.5,-184 390.07,-170.57 391.18,-152.97 390.62,-139.7"/>
<polygon fill="#63b8ff" stroke="#63b8ff" points="394.08,-139.07 389.82,-129.38 387.1,-139.62 394.08,-139.07"/>
</a>
</g>
</g>
<!-- Node14&#45;&gt;Node6 -->
<g id="edge18_Node000014_Node000006" class="edge">
<title>Node14&#45;&gt;Node6</title>
<g id="a_edge18_Node000014_Node000006"><a xlink:title=" ">
<path fill="none" stroke="#63b8ff" d="M242.46,-109.66C251.8,-96.34 271.06,-71 292.5,-55 310.93,-41.25 334.29,-30.3 353.35,-22.71"/>
<polygon fill="#63b8ff" stroke="#63b8ff" points="354.8,-25.9 362.88,-19.05 352.29,-19.37 354.8,-25.9"/>
</a>
</g>
</g>
<!-- Node14&#45;&gt;Node12 -->
<g id="edge22_Node000014_Node000012" class="edge">
<title>Node14&#45;&gt;Node12</title>
<g id="a_edge22_Node000014_Node000012"><a xlink:title=" ">
<path fill="none" stroke="#63b8ff" d="M260.92,-109.98C286.22,-101.16 325.95,-87.31 354.36,-77.41"/>
<polygon fill="#63b8ff" stroke="#63b8ff" points="355.6,-80.68 363.89,-74.08 353.29,-74.07 355.6,-80.68"/>
</a>
</g>
</g>
<!-- Node15 -->
<g id="Node000015" class="node">
<title>Node15</title>
<g id="a_Node000015"><a xlink:href="macros_8h.html" target="_top" xlink:title=" ">
<polygon fill="white" stroke="#666666" points="166.5,-74 104.5,-74 104.5,-55 166.5,-55 166.5,-74"/>
<text text-anchor="middle" x="135.5" y="-62" font-family="Helvetica,sans-Serif" font-size="10.00">macros.h</text>
</a>
</g>
</g>
<!-- Node14&#45;&gt;Node15 -->
<g id="edge19_Node000014_Node000015" class="edge">
<title>Node14&#45;&gt;Node15</title>
<g id="a_edge19_Node000014_Node000015"><a xlink:title=" ">
<path fill="none" stroke="#63b8ff" d="M220.27,-109.98C204.32,-101.61 179.72,-88.7 161.12,-78.95"/>
<polygon fill="#63b8ff" stroke="#63b8ff" points="162.5,-75.72 152.02,-74.17 159.25,-81.92 162.5,-75.72"/>
</a>
</g>
</g>
<!-- Node17 -->
<g id="Node000017" class="node">
<title>Node17</title>
<g id="a_Node000017"><a xlink:title=" ">
<polygon fill="#e0e0e0" stroke="#999999" points="240.5,-74 184.5,-74 184.5,-55 240.5,-55 240.5,-74"/>
<text text-anchor="middle" x="212.5" y="-62" font-family="Helvetica,sans-Serif" font-size="10.00">assert.h</text>
</a>
</g>
</g>
<!-- Node14&#45;&gt;Node17 -->
<g id="edge23_Node000014_Node000017" class="edge">
<title>Node14&#45;&gt;Node17</title>
<g id="a_edge23_Node000014_Node000017"><a xlink:title=" ">
<path fill="none" stroke="#63b8ff" d="M232.54,-109.75C229.29,-102.57 224.58,-92.18 220.55,-83.27"/>
<polygon fill="#63b8ff" stroke="#63b8ff" points="223.7,-81.75 216.39,-74.09 217.33,-84.64 223.7,-81.75"/>
</a>
</g>
</g>
<!-- Node15&#45;&gt;Node6 -->
<g id="edge21_Node000015_Node000006" class="edge">
<title>Node15&#45;&gt;Node6</title>
<g id="a_edge21_Node000015_Node000006"><a xlink:title=" ">
<path fill="none" stroke="#63b8ff" d="M166.51,-56.9C169.55,-56.26 172.58,-55.61 175.5,-55 231.28,-43.25 295.31,-29.89 338.48,-20.9"/>
<polygon fill="#63b8ff" stroke="#63b8ff" points="339.37,-24.29 348.45,-18.82 337.95,-17.44 339.37,-24.29"/>
</a>
</g>
</g>
<!-- Node16 -->
<g id="Node000016" class="node">
<title>Node16</title>
<g id="a_Node000016"><a xlink:href="math_8h.html" target="_top" xlink:title=" ">
<polygon fill="white" stroke="#666666" points="161,-19 110,-19 110,0 161,0 161,-19"/>
<text text-anchor="middle" x="135.5" y="-7" font-family="Helvetica,sans-Serif" font-size="10.00">math.h</text>
</a>
</g>
</g>
<!-- Node15&#45;&gt;Node16 -->
<g id="edge20_Node000015_Node000016" class="edge">
<title>Node15&#45;&gt;Node16</title>
<g id="a_edge20_Node000015_Node000016"><a xlink:title=" ">
<path fill="none" stroke="#63b8ff" d="M135.5,-54.75C135.5,-47.8 135.5,-37.85 135.5,-29.13"/>
<polygon fill="#63b8ff" stroke="#63b8ff" points="139,-29.09 135.5,-19.09 132,-29.09 139,-29.09"/>
</a>
</g>
</g>
<!-- Node18&#45;&gt;Node6 -->
<g id="edge26_Node000018_Node000006" class="edge">
<title>Node18&#45;&gt;Node6</title>
<g id="a_edge26_Node000018_Node000006"><a xlink:title=" ">
<path fill="none" stroke="#63b8ff" d="M320.23,-164.8C315.37,-144.25 305.92,-91.67 325.5,-55 332.71,-41.5 346.03,-31.19 358.58,-23.91"/>
<polygon fill="#63b8ff" stroke="#63b8ff" points="360.32,-26.95 367.48,-19.14 357.01,-20.78 360.32,-26.95"/>
</a>
</g>
</g>
<!-- Node18&#45;&gt;Node14 -->
<g id="edge27_Node000018_Node000014" class="edge">
<title>Node18&#45;&gt;Node14</title>
<g id="a_edge27_Node000018_Node000014"><a xlink:title=" ">
<path fill="none" stroke="#63b8ff" d="M308.68,-164.98C295.35,-156.77 274.92,-144.18 259.19,-134.49"/>
<polygon fill="#63b8ff" stroke="#63b8ff" points="260.92,-131.44 250.57,-129.17 257.25,-137.4 260.92,-131.44"/>
</a>
</g>
</g>
<!-- Node18&#45;&gt;Node15 -->
<g id="edge25_Node000018_Node000015" class="edge">
<title>Node18&#45;&gt;Node15</title>
<g id="a_edge25_Node000018_Node000015"><a xlink:title=" ">
<path fill="none" stroke="#63b8ff" d="M273.69,-164.98C246.01,-158.43 211.76,-147.31 185.5,-129 168.29,-117 154.13,-97.36 145.33,-83.1"/>
<polygon fill="#63b8ff" stroke="#63b8ff" points="148.2,-81.08 140.11,-74.24 142.17,-84.63 148.2,-81.08"/>
</a>
</g>
</g>
<!-- Node18&#45;&gt;Node19 -->
<g id="edge28_Node000018_Node000019" class="edge">
<title>Node18&#45;&gt;Node19</title>
<g id="a_edge28_Node000018_Node000019"><a xlink:title=" ">
<path fill="none" stroke="#63b8ff" d="M333.1,-164.98C342.96,-157.07 357.85,-145.11 369.72,-135.58"/>
<polygon fill="#63b8ff" stroke="#63b8ff" points="372.1,-138.16 377.7,-129.17 367.71,-132.7 372.1,-138.16"/>
</a>
</g>
</g>
<!-- Node19&#45;&gt;Node6 -->
<g id="edge29_Node000019_Node000006" class="edge">
<title>Node19&#45;&gt;Node6</title>
<g id="a_edge29_Node000019_Node000006"><a xlink:title=" ">
<path fill="none" stroke="#63b8ff" d="M409.02,-110C423.52,-102.77 441.85,-90.86 450.5,-74 460.98,-53.58 438.27,-35.43 417.45,-23.81"/>
<polygon fill="#63b8ff" stroke="#63b8ff" points="418.93,-20.63 408.45,-19.1 415.68,-26.84 418.93,-20.63"/>
</a>
</g>
</g>
<!-- Node19&#45;&gt;Node12 -->
<g id="edge30_Node000019_Node000012" class="edge">
<title>Node19&#45;&gt;Node12</title>
<g id="a_edge30_Node000019_Node000012"><a xlink:title=" ">
<path fill="none" stroke="#63b8ff" d="M388.5,-109.75C388.5,-102.8 388.5,-92.85 388.5,-84.13"/>
<polygon fill="#63b8ff" stroke="#63b8ff" points="392,-84.09 388.5,-74.09 385,-84.09 392,-84.09"/>
</a>
</g>
</g>
</g>
</svg>

<g id="navigator" transform="translate(0 0)" fill="#404254">
  <rect fill="#f2f5e9" fill-opacity="0.5" stroke="#606060" stroke-width=".5" x="0" y="0" width="60" height="60"/>
  <use id="zoomplus" xlink:href="#zoomPlus" x="17" y="9" onmousedown="handleZoom(evt,'in')"/>
  <use id="zoomminus" xlink:href="#zoomMin" x="42" y="9" onmousedown="handleZoom(evt,'out')"/>
  <use id="reset" xlink:href="#resetDef" x="30" y="36" onmousedown="handleReset()"/>
   <use id="arrowup" xlink:href="#arrowUp" x="0" y="0" onmousedown="handlePan(0,-1)"/>
  <use id="arrowright" xlink:href="#arrowRight" x="0" y="0" onmousedown="handlePan(1,0)"/>
  <use id="arrowdown" xlink:href="#arrowDown" x="0" y="0" onmousedown="handlePan(0,1)"/>
  <use id="arrowleft" xlink:href="#arrowLeft" x="0" y="0" onmousedown="handlePan(-1,0)"/>
</g>
<svg viewBox="0 0 15 15" width="100%" height="30px" preserveAspectRatio="xMaxYMin meet">
 <g id="arrow_out" transform="scale(0.3 0.3)">
  <a xlink:href="Registry_8cpp__incl_org.svg" target="_base">
   <rect id="button" ry="5" rx="5" y="6" x="6" height="38" width="38"
        fill="#f2f5e9" fill-opacity="0.5" stroke="#606060" stroke-width="1.0"/>
   <path id="arrow"
     d="M 11.500037,31.436501 C 11.940474,20.09759 22.043105,11.32322 32.158766,21.979434 L 37.068811,17.246167 C 37.068811,17.246167 37.088388,32 37.088388,32 L 22.160133,31.978069 C 22.160133,31.978069 26.997745,27.140456 26.997745,27.140456 C 18.528582,18.264221 13.291696,25.230495 11.500037,31.436501 z"
     style="fill:#404040;"/>
  </a>
 </g>
</svg>

<style type='text/css'>
<![CDATA[
[data-mouse-over-selected='false'] { opacity: 0.7; }
[data-mouse-over-selected='true']  { opacity: 1.0; }
]]>
</style>
<script type="application/ecmascript"><![CDATA[
document.addEventListener('DOMContentLoaded', (event) => {
  highlightEdges();
  highlightAdjacentNodes();
});
]]></script>
</svg>
