<?xml version="1.0" encoding="UTF-8" standalone="no"?>
<!DOCTYPE svg PUBLIC "-//W3C//DTD SVG 1.1//EN"
 "http://www.w3.org/Graphics/SVG/1.1/DTD/svg11.dtd">
<!-- Generated by graphviz version 2.43.0 (0)
 -->
<!-- Title: func_8029122C Pages: 1 -->
<svg width="861pt" height="289pt"
 viewBox="0.00 0.00 861.00 289.00" xmlns="http://www.w3.org/2000/svg" xmlns:xlink="http://www.w3.org/1999/xlink">
<g id="graph0" class="graph" transform="scale(1 1) rotate(0) translate(4 285)">
<title>func_8029122C</title>
<!-- Node1 -->
<g id="Node000001" class="node">
<title>Node1</title>
<g id="a_Node000001"><a xlink:title=" ">
<polygon fill="#999999" stroke="#666666" points="92,-148 0,-148 0,-129 92,-129 92,-148"/>
<text text-anchor="middle" x="46" y="-136" font-family="Helvetica,sans-Serif" font-size="10.00">func_8029122C</text>
</a>
</g>
</g>
<!-- Node2 -->
<g id="Node000002" class="node">
<title>Node2</title>
<g id="a_Node000002"><a xlink:href="Game_8cpp.html#a1706c4cd5656a762d7b02ba699efc15d" target="_top" xlink:title=" ">
<polygon fill="white" stroke="#666666" points="230.5,-281 138.5,-281 138.5,-262 230.5,-262 230.5,-281"/>
<text text-anchor="middle" x="184.5" y="-269" font-family="Helvetica,sans-Serif" font-size="10.00">CM_DrawWater</text>
</a>
</g>
</g>
<!-- Node1&#45;&gt;Node2 -->
<g id="edge1_Node000001_Node000002" class="edge">
<title>Node1&#45;&gt;Node2</title>
<g id="a_edge1_Node000001_Node000002"><a xlink:title=" ">
<path fill="none" stroke="#63b8ff" d="M51.95,-148.29C62.96,-169.16 91.41,-218.51 128,-247.5 132.97,-251.44 138.68,-254.85 144.51,-257.77"/>
<polygon fill="#63b8ff" stroke="#63b8ff" points="143.12,-260.98 153.67,-261.95 146.03,-254.62 143.12,-260.98"/>
</a>
</g>
</g>
<!-- Node3 -->
<g id="Node000003" class="node">
<title>Node3</title>
<g id="a_Node000003"><a xlink:href="FrameInterpolation_8cpp.html#a3a036bc9d533e28a4e9697cd20dccf3e" target="_top" xlink:title=" ">
<polygon fill="white" stroke="#666666" points="387,-253.5 277,-253.5 277,-223.5 387,-223.5 387,-253.5"/>
<text text-anchor="start" x="285" y="-241.5" font-family="Helvetica,sans-Serif" font-size="10.00">FrameInterpolation</text>
<text text-anchor="middle" x="332" y="-230.5" font-family="Helvetica,sans-Serif" font-size="10.00">_RecordCloseChild</text>
</a>
</g>
</g>
<!-- Node1&#45;&gt;Node3 -->
<g id="edge2_Node000001_Node000003" class="edge">
<title>Node1&#45;&gt;Node3</title>
<g id="a_edge2_Node000001_Node000003"><a xlink:title=" ">
<path fill="none" stroke="#63b8ff" d="M54.56,-148.01C67.65,-163.74 96.23,-194.9 128,-209.5 171.54,-229.51 225.41,-236.5 266.71,-238.62"/>
<polygon fill="#63b8ff" stroke="#63b8ff" points="266.79,-242.13 276.93,-239.06 267.09,-235.13 266.79,-242.13"/>
</a>
</g>
</g>
<!-- Node5 -->
<g id="Node000005" class="node">
<title>Node5</title>
<g id="a_Node000005"><a xlink:href="FrameInterpolation_8cpp.html#a0eda726b74eac815af4e874014e2727c" target="_top" xlink:title=" ">
<polygon fill="white" stroke="#666666" points="533,-210.5 423,-210.5 423,-180.5 533,-180.5 533,-210.5"/>
<text text-anchor="start" x="431" y="-198.5" font-family="Helvetica,sans-Serif" font-size="10.00">FrameInterpolation</text>
<text text-anchor="middle" x="478" y="-187.5" font-family="Helvetica,sans-Serif" font-size="10.00">_RecordOpenChild</text>
</a>
</g>
</g>
<!-- Node1&#45;&gt;Node5 -->
<g id="edge4_Node000001_Node000005" class="edge">
<title>Node1&#45;&gt;Node5</title>
<g id="a_edge4_Node000001_Node000005"><a xlink:title=" ">
<path fill="none" stroke="#63b8ff" d="M62.76,-148.14C78.6,-157.27 104.05,-170.47 128,-176.5 225.03,-200.92 341.86,-201.76 412.72,-199.27"/>
<polygon fill="#63b8ff" stroke="#63b8ff" points="412.98,-202.76 422.83,-198.88 412.71,-195.77 412.98,-202.76"/>
</a>
</g>
</g>
<!-- Node6 -->
<g id="Node000006" class="node">
<title>Node6</title>
<g id="a_Node000006"><a xlink:href="Matrix_8cpp.html#acacd5a06b0529a80220125925294944f" target="_top" xlink:title=" ">
<polygon fill="white" stroke="#666666" points="234,-167 135,-167 135,-148 234,-148 234,-167"/>
<text text-anchor="middle" x="184.5" y="-155" font-family="Helvetica,sans-Serif" font-size="10.00">GetLookAtMatrix</text>
</a>
</g>
</g>
<!-- Node1&#45;&gt;Node6 -->
<g id="edge6_Node000001_Node000006" class="edge">
<title>Node1&#45;&gt;Node6</title>
<g id="a_edge6_Node000001_Node000006"><a xlink:title=" ">
<path fill="none" stroke="#63b8ff" d="M92.07,-144.77C102.54,-146.23 113.83,-147.8 124.78,-149.33"/>
<polygon fill="#63b8ff" stroke="#63b8ff" points="124.33,-152.8 134.71,-150.71 125.29,-145.86 124.33,-152.8"/>
</a>
</g>
</g>
<!-- Node7 -->
<g id="Node000007" class="node">
<title>Node7</title>
<g id="a_Node000007"><a xlink:href="Matrix_8cpp.html#a01fc250c2f6e1cd103c61068f9168032" target="_top" xlink:title=" ">
<polygon fill="white" stroke="#666666" points="230.5,-130 138.5,-130 138.5,-111 230.5,-111 230.5,-130"/>
<text text-anchor="middle" x="184.5" y="-118" font-family="Helvetica,sans-Serif" font-size="10.00">GetPerspMatrix</text>
</a>
</g>
</g>
<!-- Node1&#45;&gt;Node7 -->
<g id="edge7_Node000001_Node000007" class="edge">
<title>Node1&#45;&gt;Node7</title>
<g id="a_edge7_Node000001_Node000007"><a xlink:title=" ">
<path fill="none" stroke="#63b8ff" d="M92.07,-132.56C103.72,-131.02 116.39,-129.35 128.49,-127.75"/>
<polygon fill="#63b8ff" stroke="#63b8ff" points="129.02,-131.21 138.47,-126.44 128.1,-124.28 129.02,-131.21"/>
</a>
</g>
</g>
<!-- Node8 -->
<g id="Node000008" class="node">
<title>Node8</title>
<g id="a_Node000008"><a xlink:href="skybox__and__splitscreen_8c.html#a1ff551b00275f32a4c52eb741006cbc2" target="_top" xlink:title=" ">
<polygon fill="white" stroke="#666666" points="211,-93 158,-93 158,-74 211,-74 211,-93"/>
<text text-anchor="middle" x="184.5" y="-81" font-family="Helvetica,sans-Serif" font-size="10.00">init_rdp</text>
</a>
</g>
</g>
<!-- Node1&#45;&gt;Node8 -->
<g id="edge8_Node000001_Node000008" class="edge">
<title>Node1&#45;&gt;Node8</title>
<g id="a_edge8_Node000001_Node000008"><a xlink:title=" ">
<path fill="none" stroke="#63b8ff" d="M67.1,-128.97C83.36,-121.41 106.94,-110.77 128,-102.5 134.5,-99.95 141.49,-97.4 148.25,-95.04"/>
<polygon fill="#63b8ff" stroke="#63b8ff" points="149.58,-98.29 157.91,-91.73 147.31,-91.66 149.58,-98.29"/>
</a>
</g>
</g>
<!-- Node9 -->
<g id="Node000009" class="node">
<title>Node9</title>
<g id="a_Node000009"><a xlink:href="math__util_8c.html#ac22eee16b1def67d2441ce919df0c5ac" target="_top" xlink:title=" ">
<polygon fill="white" stroke="#666666" points="226,-56 143,-56 143,-37 226,-37 226,-56"/>
<text text-anchor="middle" x="184.5" y="-44" font-family="Helvetica,sans-Serif" font-size="10.00">mtxf_identity</text>
</a>
</g>
</g>
<!-- Node1&#45;&gt;Node9 -->
<g id="edge9_Node000001_Node000009" class="edge">
<title>Node1&#45;&gt;Node9</title>
<g id="a_edge9_Node000001_Node000009"><a xlink:title=" ">
<path fill="none" stroke="#63b8ff" d="M55.49,-128.62C69.27,-113.15 97.98,-83.16 128,-65.5 131.46,-63.47 135.16,-61.61 138.96,-59.92"/>
<polygon fill="#63b8ff" stroke="#63b8ff" points="140.53,-63.06 148.5,-56.08 137.91,-56.57 140.53,-63.06"/>
</a>
</g>
</g>
<!-- Node10 -->
<g id="Node000010" class="node">
<title>Node10</title>
<g id="a_Node000010"><a xlink:href="math__util_8c.html#a1e5d28a1962fbb390c7551f66c2f099a" target="_top" xlink:title=" ">
<polygon fill="white" stroke="#666666" points="241,-19 128,-19 128,0 241,0 241,-19"/>
<text text-anchor="middle" x="184.5" y="-7" font-family="Helvetica,sans-Serif" font-size="10.00">render_set_position</text>
</a>
</g>
</g>
<!-- Node1&#45;&gt;Node10 -->
<g id="edge10_Node000001_Node000010" class="edge">
<title>Node1&#45;&gt;Node10</title>
<g id="a_edge10_Node000001_Node000010"><a xlink:title=" ">
<path fill="none" stroke="#63b8ff" d="M51.39,-128.91C61.66,-107.5 89.36,-55.49 128,-27.5 130.05,-26.02 132.22,-24.65 134.48,-23.4"/>
<polygon fill="#63b8ff" stroke="#63b8ff" points="135.99,-26.55 143.5,-19.08 132.97,-20.24 135.99,-26.55"/>
</a>
</g>
</g>
<!-- Node4 -->
<g id="Node000004" class="node">
<title>Node4</title>
<g id="a_Node000004"><a xlink:href="FrameInterpolation_8cpp.html#a02c7ac5342a4d376edee38f312b480bf" target="_top" xlink:title=" ">
<polygon fill="white" stroke="#666666" points="853,-205 745,-205 745,-186 853,-186 853,-205"/>
<text text-anchor="middle" x="799" y="-193" font-family="Helvetica,sans-Serif" font-size="10.00">check_if_recording</text>
</a>
</g>
</g>
<!-- Node3&#45;&gt;Node4 -->
<g id="edge3_Node000003_Node000004" class="edge">
<title>Node3&#45;&gt;Node4</title>
<g id="a_edge3_Node000003_Node000004"><a xlink:title=" ">
<path fill="none" stroke="#63b8ff" d="M387.3,-235.66C460.52,-231.53 594.88,-222.86 709,-209.5 717.37,-208.52 726.17,-207.33 734.83,-206.07"/>
<polygon fill="#63b8ff" stroke="#63b8ff" points="735.54,-209.5 744.91,-204.55 734.51,-202.58 735.54,-209.5"/>
</a>
</g>
</g>
<!-- Node5&#45;&gt;Node4 -->
<g id="edge5_Node000005_Node000004" class="edge">
<title>Node5&#45;&gt;Node4</title>
<g id="a_edge5_Node000005_Node000004"><a xlink:title=" ">
<path fill="none" stroke="#63b8ff" d="M533.11,-195.5C588.87,-195.5 675.73,-195.5 734.65,-195.5"/>
<polygon fill="#63b8ff" stroke="#63b8ff" points="734.95,-199 744.95,-195.5 734.95,-192 734.95,-199"/>
</a>
</g>
</g>
<!-- Node11 -->
<g id="Node000011" class="node">
<title>Node11</title>
<g id="a_Node000011"><a xlink:href="Matrix_8cpp.html#a6416f9a60a7397e8b517b1483adb96e8" target="_top" xlink:title=" ">
<polygon fill="white" stroke="#666666" points="381,-32 283,-32 283,-13 381,-13 381,-32"/>
<text text-anchor="middle" x="332" y="-20" font-family="Helvetica,sans-Serif" font-size="10.00">AddObjectMatrix</text>
</a>
</g>
</g>
<!-- Node10&#45;&gt;Node11 -->
<g id="edge11_Node000010_Node000011" class="edge">
<title>Node10&#45;&gt;Node11</title>
<g id="a_edge11_Node000010_Node000011"><a xlink:title=" ">
<path fill="none" stroke="#63b8ff" d="M241.34,-14.49C251.56,-15.4 262.24,-16.36 272.54,-17.28"/>
<polygon fill="#63b8ff" stroke="#63b8ff" points="272.39,-20.78 282.66,-18.18 273.02,-13.81 272.39,-20.78"/>
</a>
</g>
</g>
<!-- Node12 -->
<g id="Node000012" class="node">
<title>Node12</title>
<g id="a_Node000012"><a xlink:href="Matrix_8cpp.html#a67401ed1d8de1f4d3a3e5a7b72842b6a" target="_top" xlink:title=" ">
<polygon fill="white" stroke="#666666" points="511.5,-82 444.5,-82 444.5,-63 511.5,-63 511.5,-82"/>
<text text-anchor="middle" x="478" y="-70" font-family="Helvetica,sans-Serif" font-size="10.00">AddMatrix</text>
</a>
</g>
</g>
<!-- Node11&#45;&gt;Node12 -->
<g id="edge12_Node000011_Node000012" class="edge">
<title>Node11&#45;&gt;Node12</title>
<g id="a_edge12_Node000011_Node000012"><a xlink:title=" ">
<path fill="none" stroke="#63b8ff" d="M360.42,-32.02C382.9,-39.83 414.93,-50.95 439.73,-59.56"/>
<polygon fill="#63b8ff" stroke="#63b8ff" points="438.59,-62.87 449.19,-62.84 440.89,-56.26 438.59,-62.87"/>
</a>
</g>
</g>
<!-- Node13 -->
<g id="Node000013" class="node">
<title>Node13</title>
<g id="a_Node000013"><a xlink:href="FrameInterpolation_8cpp.html#a8cf1f2d6fabc6925aa71a9515341b4aa" target="_top" xlink:title=" ">
<polygon fill="white" stroke="#666666" points="709,-155.5 569,-155.5 569,-125.5 709,-125.5 709,-155.5"/>
<text text-anchor="start" x="577" y="-143.5" font-family="Helvetica,sans-Serif" font-size="10.00">FrameInterpolation</text>
<text text-anchor="middle" x="639" y="-132.5" font-family="Helvetica,sans-Serif" font-size="10.00">_RecordMatrixMtxFToMtx</text>
</a>
</g>
</g>
<!-- Node12&#45;&gt;Node13 -->
<g id="edge13_Node000012_Node000013" class="edge">
<title>Node12&#45;&gt;Node13</title>
<g id="a_edge13_Node000012_Node000013"><a xlink:title=" ">
<path fill="none" stroke="#63b8ff" d="M501.44,-82.1C525.23,-92.27 563.43,-108.61 593.39,-121.42"/>
<polygon fill="#63b8ff" stroke="#63b8ff" points="592.23,-124.73 602.8,-125.44 594.98,-118.29 592.23,-124.73"/>
</a>
</g>
</g>
<!-- Node14 -->
<g id="Node000014" class="node">
<title>Node14</title>
<g id="a_Node000014"><a xlink:href="guMtxF2L_8c.html#a40ab2d64c609839ff1e0ef0de2d0dcc4" target="_top" xlink:title=" ">
<polygon fill="white" stroke="#666666" points="671.5,-82 606.5,-82 606.5,-63 671.5,-63 671.5,-82"/>
<text text-anchor="middle" x="639" y="-70" font-family="Helvetica,sans-Serif" font-size="10.00">guMtxF2L</text>
</a>
</g>
</g>
<!-- Node12&#45;&gt;Node14 -->
<g id="edge15_Node000012_Node000014" class="edge">
<title>Node12&#45;&gt;Node14</title>
<g id="a_edge15_Node000012_Node000014"><a xlink:title=" ">
<path fill="none" stroke="#63b8ff" d="M511.56,-72.5C536.02,-72.5 569.73,-72.5 596.18,-72.5"/>
<polygon fill="#63b8ff" stroke="#63b8ff" points="596.3,-76 606.3,-72.5 596.3,-69 596.3,-76"/>
</a>
</g>
</g>
<!-- Node13&#45;&gt;Node4 -->
<g id="edge14_Node000013_Node000004" class="edge">
<title>Node13&#45;&gt;Node4</title>
<g id="a_edge14_Node000013_Node000004"><a xlink:title=" ">
<path fill="none" stroke="#63b8ff" d="M683.17,-155.53C707.48,-163.99 737.52,-174.45 760.78,-182.54"/>
<polygon fill="#63b8ff" stroke="#63b8ff" points="759.7,-185.87 770.3,-185.86 762,-179.26 759.7,-185.87"/>
</a>
</g>
</g>
</g>
</svg>
