<?xml version="1.0" encoding="UTF-8" standalone="no"?>
<!DOCTYPE svg PUBLIC "-//W3C//DTD SVG 1.1//EN"
 "http://www.w3.org/Graphics/SVG/1.1/DTD/svg11.dtd">
<!-- Generated by graphviz version 2.43.0 (0)
 -->
<!-- Title: render_kart Pages: 1 -->
<!--zoomable 747 -->

<svg id="main" version="1.1" xmlns="http://www.w3.org/2000/svg" xmlns:xlink="http://www.w3.org/1999/xlink" xml:space="preserve" onload="init(evt)">

<style type="text/css"><![CDATA[
.node, .edge {opacity: 0.7;}
.node.selected, .edge.selected {opacity: 1;}
.edge:hover path { stroke: red; }
.edge:hover polygon { stroke: red; fill: red; }
]]></style>

<defs>
  <circle id="rim" cx="0" cy="0" r="7"/>
  <circle id="rim2" cx="0" cy="0" r="3.5"/>
  <g id="zoomPlus">
    <use xlink:href="#rim" fill="#404040"><set attributeName="fill" to="#808080" begin="zoomplus.mouseover" end="zoomplus.mouseout"/></use>
    <path d="M-4,0h8M0,-4v8" fill="none" stroke="white" stroke-width="1.5" pointer-events="none"/>
  </g>
  <g id="zoomMin">
    <use xlink:href="#rim" fill="#404040"><set attributeName="fill" to="#808080" begin="zoomminus.mouseover" end="zoomminus.mouseout"/></use>
    <path d="M-4,0h8" fill="none" stroke="white" stroke-width="1.5" pointer-events="none"/>
  </g>
  <g id="arrowUp" transform="translate(30 24)">
    <use xlink:href="#rim"/>
    <path pointer-events="none" fill="none" stroke="white" stroke-width="1.5" d="M0,-3.0v7 M-2.5,-0.5L0,-3.0L2.5,-0.5"/>
  </g>
  <g id="arrowRight" transform="rotate(90) translate(36 -43)">
    <use xlink:href="#rim"/>
    <path pointer-events="none" fill="none" stroke="white" stroke-width="1.5" d="M0,-3.0v7 M-2.5,-0.5L0,-3.0L2.5,-0.5"/>
  </g>
  <g id="arrowDown" transform="rotate(180) translate(-30 -48)">
    <use xlink:href="#rim"/>
    <path pointer-events="none" fill="none" stroke="white" stroke-width="1.5" d="M0,-3.0v7 M-2.5,-0.5L0,-3.0L2.5,-0.5"/>
  </g>
  <g id="arrowLeft" transform="rotate(270) translate(-36 17)">
    <use xlink:href="#rim"/>
    <path pointer-events="none" fill="none" stroke="white" stroke-width="1.5" d="M0,-3.0v7 M-2.5,-0.5L0,-3.0L2.5,-0.5"/>
  </g>
  <g id="resetDef">
    <use xlink:href="#rim2" fill="#404040"><set attributeName="fill" to="#808080" begin="reset.mouseover" end="reset.mouseout"/></use>
  </g>
</defs>
<script type="application/ecmascript">
var viewWidth = 852;
var viewHeight = 747;
var sectionId = 'dynsection-51';
</script>
<script type="application/ecmascript" xlink:href="svg.min.js"/>
<svg id="graph" class="graph">
<g id="viewport">
<title>render_kart</title>
<!-- Node1 -->
<g id="Node000001" class="node">
<title>Node1</title>
<g id="a_Node000001"><a xlink:title=" ">
<polygon fill="#999999" stroke="#666666" points="72,-446.27 0,-446.27 0,-427.27 72,-427.27 72,-446.27"/>
<text text-anchor="middle" x="36" y="-434.27" font-family="Helvetica,sans-Serif" font-size="10.00">render_kart</text>
</a>
</g>
</g>
<!-- Node2 -->
<g id="Node000002" class="node">
<title>Node2</title>
<g id="a_Node000002"><a xlink:href="render__player_8c.html#ab7bf9484e155990f138e03ae5339fc84" target="_top" xlink:title=" ">
<polygon fill="white" stroke="#666666" points="235,-701.77 108,-701.77 108,-671.77 235,-671.77 235,-701.77"/>
<text text-anchor="start" x="116" y="-689.77" font-family="Helvetica,sans-Serif" font-size="10.00">convert_to_fixed_point</text>
<text text-anchor="middle" x="171.5" y="-678.77" font-family="Helvetica,sans-Serif" font-size="10.00">_matrix</text>
</a>
</g>
</g>
<!-- Node1&#45;&gt;Node2 -->
<g id="edge1_Node000001_Node000002" class="edge">
<title>Node1&#45;&gt;Node2</title>
<g id="a_edge1_Node000001_Node000002"><a xlink:title=" ">
<path fill="none" stroke="#63b8ff" d="M37.97,-446.71C41.56,-479.04 56.72,-582.88 108,-647.77 113.53,-654.77 120.68,-660.85 128.16,-665.99"/>
<polygon fill="#63b8ff" stroke="#63b8ff" points="126.7,-669.2 137.02,-671.59 130.44,-663.29 126.7,-669.2"/>
</a>
</g>
</g>
<!-- Node6 -->
<g id="Node000006" class="node">
<title>Node6</title>
<g id="a_Node000006"><a xlink:href="FrameInterpolation_8cpp.html#a3a036bc9d533e28a4e9697cd20dccf3e" target="_top" xlink:title=" ">
<polygon fill="white" stroke="#666666" points="400.5,-653.77 290.5,-653.77 290.5,-623.77 400.5,-623.77 400.5,-653.77"/>
<text text-anchor="start" x="298.5" y="-641.77" font-family="Helvetica,sans-Serif" font-size="10.00">FrameInterpolation</text>
<text text-anchor="middle" x="345.5" y="-630.77" font-family="Helvetica,sans-Serif" font-size="10.00">_RecordCloseChild</text>
</a>
</g>
</g>
<!-- Node1&#45;&gt;Node6 -->
<g id="edge5_Node000001_Node000006" class="edge">
<title>Node1&#45;&gt;Node6</title>
<g id="a_edge5_Node000001_Node000006"><a xlink:title=" ">
<path fill="none" stroke="#63b8ff" d="M38.48,-446.44C43.17,-473.56 60.33,-550.92 108,-588.77 156.84,-627.55 228.66,-638.16 280.33,-640.23"/>
<polygon fill="#63b8ff" stroke="#63b8ff" points="280.28,-643.73 290.38,-640.54 280.5,-636.74 280.28,-643.73"/>
</a>
</g>
</g>
<!-- Node7 -->
<g id="Node000007" class="node">
<title>Node7</title>
<g id="a_Node000007"><a xlink:href="FrameInterpolation_8cpp.html#a0eda726b74eac815af4e874014e2727c" target="_top" xlink:title=" ">
<polygon fill="white" stroke="#666666" points="400.5,-605.77 290.5,-605.77 290.5,-575.77 400.5,-575.77 400.5,-605.77"/>
<text text-anchor="start" x="298.5" y="-593.77" font-family="Helvetica,sans-Serif" font-size="10.00">FrameInterpolation</text>
<text text-anchor="middle" x="345.5" y="-582.77" font-family="Helvetica,sans-Serif" font-size="10.00">_RecordOpenChild</text>
</a>
</g>
</g>
<!-- Node1&#45;&gt;Node7 -->
<g id="edge7_Node000001_Node000007" class="edge">
<title>Node1&#45;&gt;Node7</title>
<g id="a_edge7_Node000001_Node000007"><a xlink:title=" ">
<path fill="none" stroke="#63b8ff" d="M39.62,-446.56C46.44,-470 67.16,-529.45 108,-556.77 158.64,-590.65 229.02,-596.85 279.83,-595.97"/>
<polygon fill="#63b8ff" stroke="#63b8ff" points="280.13,-599.47 290.03,-595.7 279.94,-592.47 280.13,-599.47"/>
</a>
</g>
</g>
<!-- Node8 -->
<g id="Node000008" class="node">
<title>Node8</title>
<g id="a_Node000008"><a xlink:href="render__objects_8c.html#a3412bd1100bae2a7228c53d260c4c5c5" target="_top" xlink:title=" ">
<polygon fill="white" stroke="#666666" points="217.5,-389.27 125.5,-389.27 125.5,-370.27 217.5,-370.27 217.5,-389.27"/>
<text text-anchor="middle" x="171.5" y="-377.27" font-family="Helvetica,sans-Serif" font-size="10.00">func_8004B614</text>
</a>
</g>
</g>
<!-- Node1&#45;&gt;Node8 -->
<g id="edge9_Node000001_Node000008" class="edge">
<title>Node1&#45;&gt;Node8</title>
<g id="a_edge9_Node000001_Node000008"><a xlink:title=" ">
<path fill="none" stroke="#63b8ff" d="M56.73,-427.16C70.89,-420.37 90.48,-411.2 108,-403.77 116.72,-400.08 126.23,-396.3 135.13,-392.87"/>
<polygon fill="#63b8ff" stroke="#63b8ff" points="136.39,-396.14 144.49,-389.31 133.9,-389.59 136.39,-396.14"/>
</a>
</g>
</g>
<!-- Node9 -->
<g id="Node000009" class="node">
<title>Node9</title>
<g id="a_Node000009"><a xlink:href="code__80057C60_8c.html#a156481baa44e5305c016e2902a91bbb1" target="_top" xlink:title=" ">
<polygon fill="white" stroke="#666666" points="217.5,-465.27 125.5,-465.27 125.5,-446.27 217.5,-446.27 217.5,-465.27"/>
<text text-anchor="middle" x="171.5" y="-453.27" font-family="Helvetica,sans-Serif" font-size="10.00">func_80062B18</text>
</a>
</g>
</g>
<!-- Node1&#45;&gt;Node9 -->
<g id="edge10_Node000001_Node000009" class="edge">
<title>Node1&#45;&gt;Node9</title>
<g id="a_edge10_Node000001_Node000009"><a xlink:title=" ">
<path fill="none" stroke="#63b8ff" d="M72.08,-441.77C85.26,-443.64 100.58,-445.82 115.16,-447.9"/>
<polygon fill="#63b8ff" stroke="#63b8ff" points="114.71,-451.37 125.1,-449.31 115.69,-444.44 114.71,-451.37"/>
</a>
</g>
</g>
<!-- Node11 -->
<g id="Node000011" class="node">
<title>Node11</title>
<g id="a_Node000011"><a xlink:href="math__util_8c.html#a19ed3bd78fd2d3e2bd0a29f6caf48545" target="_top" xlink:title=" ">
<polygon fill="white" stroke="#666666" points="363.5,-424.27 327.5,-424.27 327.5,-405.27 363.5,-405.27 363.5,-424.27"/>
<text text-anchor="middle" x="345.5" y="-412.27" font-family="Helvetica,sans-Serif" font-size="10.00">sins</text>
</a>
</g>
</g>
<!-- Node1&#45;&gt;Node11 -->
<g id="edge54_Node000001_Node000011" class="edge">
<title>Node1&#45;&gt;Node11</title>
<g id="a_edge54_Node000001_Node000011"><a xlink:title=" ">
<path fill="none" stroke="#63b8ff" d="M72.27,-434.25C134.24,-429.82 261.36,-420.72 317.19,-416.73"/>
<polygon fill="#63b8ff" stroke="#63b8ff" points="317.64,-420.2 327.36,-416 317.14,-413.22 317.64,-420.2"/>
</a>
</g>
</g>
<!-- Node12 -->
<g id="Node000012" class="node">
<title>Node12</title>
<g id="a_Node000012"><a xlink:href="Matrix_8cpp.html#af805a31a5c4552d53503ad9a2b228896" target="_top" xlink:title=" ">
<polygon fill="white" stroke="#666666" points="214.5,-352.27 128.5,-352.27 128.5,-333.27 214.5,-333.27 214.5,-352.27"/>
<text text-anchor="middle" x="171.5" y="-340.27" font-family="Helvetica,sans-Serif" font-size="10.00">GetKartMatrix</text>
</a>
</g>
</g>
<!-- Node1&#45;&gt;Node12 -->
<g id="edge13_Node000001_Node000012" class="edge">
<title>Node1&#45;&gt;Node12</title>
<g id="a_edge13_Node000001_Node000012"><a xlink:title=" ">
<path fill="none" stroke="#63b8ff" d="M43.48,-427.21C54.74,-411.3 79.49,-379.41 108,-361.77 111.38,-359.69 115,-357.81 118.73,-356.14"/>
<polygon fill="#63b8ff" stroke="#63b8ff" points="120.19,-359.32 128.18,-352.36 117.6,-352.82 120.19,-359.32"/>
</a>
</g>
</g>
<!-- Node13 -->
<g id="Node000013" class="node">
<title>Node13</title>
<g id="a_Node000013"><a xlink:href="GBIMiddleware_8cpp.html#a4ecc44e3c6f1ca5a6b4a20c41d3bd2d2" target="_top" xlink:title=" ">
<polygon fill="white" stroke="#666666" points="216,-315.27 127,-315.27 127,-296.27 216,-296.27 216,-315.27"/>
<text text-anchor="middle" x="171.5" y="-303.27" font-family="Helvetica,sans-Serif" font-size="10.00">gSPDisplayList</text>
</a>
</g>
</g>
<!-- Node1&#45;&gt;Node13 -->
<g id="edge14_Node000001_Node000013" class="edge">
<title>Node1&#45;&gt;Node13</title>
<g id="a_edge14_Node000001_Node000013"><a xlink:title=" ">
<path fill="none" stroke="#63b8ff" d="M40.27,-427.25C48.24,-405.47 70.79,-351.78 108,-323.77 110.97,-321.54 114.21,-319.58 117.61,-317.86"/>
<polygon fill="#63b8ff" stroke="#63b8ff" points="119.07,-321.04 126.86,-313.87 116.29,-314.62 119.07,-321.04"/>
</a>
</g>
</g>
<!-- Node16 -->
<g id="Node000016" class="node">
<title>Node16</title>
<g id="a_Node000016"><a xlink:href="GBIMiddleware_8cpp.html#aeef79449a27a710d73576e4a4f7f7f99" target="_top" xlink:title=" ">
<polygon fill="white" stroke="#666666" points="204.5,-278.27 138.5,-278.27 138.5,-259.27 204.5,-259.27 204.5,-278.27"/>
<text text-anchor="middle" x="171.5" y="-266.27" font-family="Helvetica,sans-Serif" font-size="10.00">gSPVertex</text>
</a>
</g>
</g>
<!-- Node1&#45;&gt;Node16 -->
<g id="edge17_Node000001_Node000016" class="edge">
<title>Node1&#45;&gt;Node16</title>
<g id="a_edge17_Node000001_Node000016"><a xlink:title=" ">
<path fill="none" stroke="#63b8ff" d="M38.74,-427.02C44.01,-400.35 62.34,-325.59 108,-286.77 113.92,-281.74 121.18,-278.11 128.62,-275.5"/>
<polygon fill="#63b8ff" stroke="#63b8ff" points="129.82,-278.79 138.42,-272.61 127.84,-272.08 129.82,-278.79"/>
</a>
</g>
</g>
<!-- Node17 -->
<g id="Node000017" class="node">
<title>Node17</title>
<g id="a_Node000017"><a xlink:href="kart__dma_8c.html#aac244fa71146e9abe9ee94f82ef2e932" target="_top" xlink:title="Place DMA mio0 compressed character textures in a buffer. Later, this data becomes decompressed.">
<polygon fill="white" stroke="#666666" points="222.5,-241.27 120.5,-241.27 120.5,-222.27 222.5,-222.27 222.5,-241.27"/>
<text text-anchor="middle" x="171.5" y="-229.27" font-family="Helvetica,sans-Serif" font-size="10.00">load_kart_texture</text>
</a>
</g>
</g>
<!-- Node1&#45;&gt;Node17 -->
<g id="edge19_Node000001_Node000017" class="edge">
<title>Node1&#45;&gt;Node17</title>
<g id="a_edge19_Node000001_Node000017"><a xlink:title=" ">
<path fill="none" stroke="#63b8ff" d="M37.73,-426.96C40.57,-396.06 53.59,-299.88 108,-249.77 109.28,-248.59 110.64,-247.48 112.06,-246.45"/>
<polygon fill="#63b8ff" stroke="#63b8ff" points="113.93,-249.41 120.73,-241.29 110.35,-243.4 113.93,-249.41"/>
</a>
</g>
</g>
<!-- Node30 -->
<g id="Node000030" class="node">
<title>Node30</title>
<g id="a_Node000030"><a xlink:href="math__util_8c.html#aca95a220db79fe028b35270f35a4a7b3" target="_top" xlink:title=" ">
<polygon fill="white" stroke="#666666" points="207,-547.27 136,-547.27 136,-528.27 207,-528.27 207,-547.27"/>
<text text-anchor="middle" x="171.5" y="-535.27" font-family="Helvetica,sans-Serif" font-size="10.00">mtxf_scale</text>
</a>
</g>
</g>
<!-- Node1&#45;&gt;Node30 -->
<g id="edge46_Node000001_Node000030" class="edge">
<title>Node1&#45;&gt;Node30</title>
<g id="a_edge46_Node000001_Node000030"><a xlink:title=" ">
<path fill="none" stroke="#63b8ff" d="M43.86,-446.28C55.5,-461.83 80.54,-492.85 108,-511.77 115.09,-516.66 123.25,-520.89 131.28,-524.42"/>
<polygon fill="#63b8ff" stroke="#63b8ff" points="130,-527.68 140.57,-528.25 132.66,-521.2 130,-527.68"/>
</a>
</g>
</g>
<!-- Node32 -->
<g id="Node000032" class="node">
<title>Node32</title>
<g id="a_Node000032"><a xlink:href="render__player_8c.html#a565e21fd6aa0dacea58fb8a0e4304772" target="_top" xlink:title=" ">
<polygon fill="white" stroke="#666666" points="233,-502.27 110,-502.27 110,-483.27 233,-483.27 233,-502.27"/>
<text text-anchor="middle" x="171.5" y="-490.27" font-family="Helvetica,sans-Serif" font-size="10.00">mtxf_translate_rotate</text>
</a>
</g>
</g>
<!-- Node1&#45;&gt;Node32 -->
<g id="edge49_Node000001_Node000032" class="edge">
<title>Node1&#45;&gt;Node32</title>
<g id="a_edge49_Node000001_Node000032"><a xlink:title=" ">
<path fill="none" stroke="#63b8ff" d="M52.61,-446.37C66.69,-454.72 88.18,-466.72 108,-474.77 112.72,-476.69 117.71,-478.49 122.74,-480.16"/>
<polygon fill="#63b8ff" stroke="#63b8ff" points="121.8,-483.53 132.39,-483.19 123.89,-476.85 121.8,-483.53"/>
</a>
</g>
</g>
<!-- Node3 -->
<g id="Node000003" class="node">
<title>Node3</title>
<g id="a_Node000003"><a xlink:href="FrameInterpolation_8cpp.html#a8cf1f2d6fabc6925aa71a9515341b4aa" target="_top" xlink:title=" ">
<polygon fill="white" stroke="#666666" points="415.5,-701.77 275.5,-701.77 275.5,-671.77 415.5,-671.77 415.5,-701.77"/>
<text text-anchor="start" x="283.5" y="-689.77" font-family="Helvetica,sans-Serif" font-size="10.00">FrameInterpolation</text>
<text text-anchor="middle" x="345.5" y="-678.77" font-family="Helvetica,sans-Serif" font-size="10.00">_RecordMatrixMtxFToMtx</text>
</a>
</g>
</g>
<!-- Node2&#45;&gt;Node3 -->
<g id="edge2_Node000002_Node000003" class="edge">
<title>Node2&#45;&gt;Node3</title>
<g id="a_edge2_Node000002_Node000003"><a xlink:title=" ">
<path fill="none" stroke="#63b8ff" d="M235.08,-686.77C244.88,-686.77 255.12,-686.77 265.23,-686.77"/>
<polygon fill="#63b8ff" stroke="#63b8ff" points="265.28,-690.27 275.28,-686.77 265.28,-683.27 265.28,-690.27"/>
</a>
</g>
</g>
<!-- Node5 -->
<g id="Node000005" class="node">
<title>Node5</title>
<g id="a_Node000005"><a xlink:href="guMtxF2L_8c.html#a40ab2d64c609839ff1e0ef0de2d0dcc4" target="_top" xlink:title=" ">
<polygon fill="white" stroke="#666666" points="378,-739.27 313,-739.27 313,-720.27 378,-720.27 378,-739.27"/>
<text text-anchor="middle" x="345.5" y="-727.27" font-family="Helvetica,sans-Serif" font-size="10.00">guMtxF2L</text>
</a>
</g>
</g>
<!-- Node2&#45;&gt;Node5 -->
<g id="edge4_Node000002_Node000005" class="edge">
<title>Node2&#45;&gt;Node5</title>
<g id="a_edge4_Node000002_Node000005"><a xlink:title=" ">
<path fill="none" stroke="#63b8ff" d="M232.66,-701.81C255.8,-707.6 281.7,-714.07 302.74,-719.33"/>
<polygon fill="#63b8ff" stroke="#63b8ff" points="302.1,-722.78 312.65,-721.81 303.79,-715.99 302.1,-722.78"/>
</a>
</g>
</g>
<!-- Node4 -->
<g id="Node000004" class="node">
<title>Node4</title>
<g id="a_Node000004"><a xlink:href="FrameInterpolation_8cpp.html#a02c7ac5342a4d376edee38f312b480bf" target="_top" xlink:title=" ">
<polygon fill="white" stroke="#666666" points="564,-600.27 456,-600.27 456,-581.27 564,-581.27 564,-600.27"/>
<text text-anchor="middle" x="510" y="-588.27" font-family="Helvetica,sans-Serif" font-size="10.00">check_if_recording</text>
</a>
</g>
</g>
<!-- Node3&#45;&gt;Node4 -->
<g id="edge3_Node000003_Node000004" class="edge">
<title>Node3&#45;&gt;Node4</title>
<g id="a_edge3_Node000003_Node000004"><a xlink:title=" ">
<path fill="none" stroke="#63b8ff" d="M400.45,-671.69C407.19,-669.08 413.87,-666.11 420,-662.77 447.61,-647.76 475.07,-623.83 492.03,-607.72"/>
<polygon fill="#63b8ff" stroke="#63b8ff" points="494.72,-609.98 499.46,-600.51 489.85,-604.96 494.72,-609.98"/>
</a>
</g>
</g>
<!-- Node6&#45;&gt;Node4 -->
<g id="edge6_Node000006_Node000004" class="edge">
<title>Node6&#45;&gt;Node4</title>
<g id="a_edge6_Node000006_Node000004"><a xlink:title=" ">
<path fill="none" stroke="#63b8ff" d="M397.47,-623.72C419.81,-617.12 445.71,-609.47 466.93,-603.2"/>
<polygon fill="#63b8ff" stroke="#63b8ff" points="468.02,-606.53 476.62,-600.34 466.04,-599.81 468.02,-606.53"/>
</a>
</g>
</g>
<!-- Node7&#45;&gt;Node4 -->
<g id="edge8_Node000007_Node000004" class="edge">
<title>Node7&#45;&gt;Node4</title>
<g id="a_edge8_Node000007_Node000004"><a xlink:title=" ">
<path fill="none" stroke="#63b8ff" d="M400.61,-590.77C415.09,-590.77 430.87,-590.77 445.79,-590.77"/>
<polygon fill="#63b8ff" stroke="#63b8ff" points="445.95,-594.27 455.95,-590.77 445.95,-587.27 445.95,-594.27"/>
</a>
</g>
</g>
<!-- Node10 -->
<g id="Node000010" class="node">
<title>Node10</title>
<g id="a_Node000010"><a xlink:href="math__util_8c.html#ae69cbf5c8d4b3b0dba2d7b4d4673689f" target="_top" xlink:title=" ">
<polygon fill="white" stroke="#666666" points="364.5,-461.27 326.5,-461.27 326.5,-442.27 364.5,-442.27 364.5,-461.27"/>
<text text-anchor="middle" x="345.5" y="-449.27" font-family="Helvetica,sans-Serif" font-size="10.00">coss</text>
</a>
</g>
</g>
<!-- Node9&#45;&gt;Node10 -->
<g id="edge11_Node000009_Node000010" class="edge">
<title>Node9&#45;&gt;Node10</title>
<g id="a_edge11_Node000009_Node000010"><a xlink:title=" ">
<path fill="none" stroke="#63b8ff" d="M217.69,-454.72C248.83,-454 289.27,-453.06 316.01,-452.44"/>
<polygon fill="#63b8ff" stroke="#63b8ff" points="316.31,-455.93 326.23,-452.2 316.15,-448.93 316.31,-455.93"/>
</a>
</g>
</g>
<!-- Node9&#45;&gt;Node11 -->
<g id="edge12_Node000009_Node000011" class="edge">
<title>Node9&#45;&gt;Node11</title>
<g id="a_edge12_Node000009_Node000011"><a xlink:title=" ">
<path fill="none" stroke="#63b8ff" d="M212.39,-446.26C244.6,-438.59 289.06,-427.99 317.29,-421.26"/>
<polygon fill="#63b8ff" stroke="#63b8ff" points="318.34,-424.61 327.26,-418.88 316.72,-417.8 318.34,-424.61"/>
</a>
</g>
</g>
<!-- Node14 -->
<g id="Node000014" class="node">
<title>Node14</title>
<g id="a_Node000014"><a xlink:href="Engine_8cpp.html#a223c8bc63f228dc11177515e38eff2db" target="_top" xlink:title=" ">
<polygon fill="white" stroke="#666666" points="420,-302.27 271,-302.27 271,-283.27 420,-283.27 420,-302.27"/>
<text text-anchor="middle" x="345.5" y="-290.27" font-family="Helvetica,sans-Serif" font-size="10.00">GameEngine_OTRSigCheck</text>
</a>
</g>
</g>
<!-- Node13&#45;&gt;Node14 -->
<g id="edge15_Node000013_Node000014" class="edge">
<title>Node13&#45;&gt;Node14</title>
<g id="a_edge15_Node000013_Node000014"><a xlink:title=" ">
<path fill="none" stroke="#63b8ff" d="M216.35,-302.46C229.98,-301.43 245.5,-300.26 260.91,-299.09"/>
<polygon fill="#63b8ff" stroke="#63b8ff" points="261.29,-302.57 271,-298.33 260.76,-295.59 261.29,-302.57"/>
</a>
</g>
</g>
<!-- Node15 -->
<g id="Node000015" class="node">
<title>Node15</title>
<g id="a_Node000015"><a xlink:href="string_8c.html#a008e171a518fe0e0352f31b245e03875" target="_top" xlink:title=" ">
<polygon fill="white" stroke="#666666" points="532,-302.27 488,-302.27 488,-283.27 532,-283.27 532,-302.27"/>
<text text-anchor="middle" x="510" y="-290.27" font-family="Helvetica,sans-Serif" font-size="10.00">strlen</text>
</a>
</g>
</g>
<!-- Node14&#45;&gt;Node15 -->
<g id="edge16_Node000014_Node000015" class="edge">
<title>Node14&#45;&gt;Node15</title>
<g id="a_edge16_Node000014_Node000015"><a xlink:title=" ">
<path fill="none" stroke="#63b8ff" d="M420.14,-292.77C440.4,-292.77 461.28,-292.77 477.72,-292.77"/>
<polygon fill="#63b8ff" stroke="#63b8ff" points="477.82,-296.27 487.82,-292.77 477.82,-289.27 477.82,-296.27"/>
</a>
</g>
</g>
<!-- Node16&#45;&gt;Node14 -->
<g id="edge18_Node000016_Node000014" class="edge">
<title>Node16&#45;&gt;Node14</title>
<g id="a_edge18_Node000016_Node000014"><a xlink:title=" ">
<path fill="none" stroke="#63b8ff" d="M204.85,-273.29C222.32,-275.73 244.71,-278.85 266.41,-281.88"/>
<polygon fill="#63b8ff" stroke="#63b8ff" points="265.93,-285.34 276.32,-283.26 266.9,-278.41 265.93,-285.34"/>
</a>
</g>
</g>
<!-- Node18 -->
<g id="Node000018" class="node">
<title>Node18</title>
<g id="a_Node000018"><a xlink:href="osPiStartDma_8c.html#ae288a36d96a4db6977d95327e246ec12" target="_top" xlink:title=" ">
<polygon fill="white" stroke="#666666" points="387,-200.27 304,-200.27 304,-181.27 387,-181.27 387,-200.27"/>
<text text-anchor="middle" x="345.5" y="-188.27" font-family="Helvetica,sans-Serif" font-size="10.00">osPiStartDma</text>
</a>
</g>
</g>
<!-- Node17&#45;&gt;Node18 -->
<g id="edge20_Node000017_Node000018" class="edge">
<title>Node17&#45;&gt;Node18</title>
<g id="a_edge20_Node000017_Node000018"><a xlink:title=" ">
<path fill="none" stroke="#63b8ff" d="M212.39,-222.26C236.94,-216.41 268.61,-208.86 294.79,-202.62"/>
<polygon fill="#63b8ff" stroke="#63b8ff" points="295.61,-206.03 304.53,-200.3 293.99,-199.22 295.61,-206.03"/>
</a>
</g>
</g>
<!-- Node29 -->
<g id="Node000029" class="node">
<title>Node29</title>
<g id="a_Node000029"><a xlink:href="osRecvMesg_8c.html#aa254dc33e373f235a99e17f7717493dc" target="_top" xlink:title=" ">
<polygon fill="white" stroke="#666666" points="549,-260.27 471,-260.27 471,-241.27 549,-241.27 549,-260.27"/>
<text text-anchor="middle" x="510" y="-248.27" font-family="Helvetica,sans-Serif" font-size="10.00">osRecvMesg</text>
</a>
</g>
</g>
<!-- Node17&#45;&gt;Node29 -->
<g id="edge40_Node000017_Node000029" class="edge">
<title>Node17&#45;&gt;Node29</title>
<g id="a_edge40_Node000017_Node000029"><a xlink:title=" ">
<path fill="none" stroke="#63b8ff" d="M222.51,-234.6C286.68,-238.22 397.25,-244.46 460.62,-248.04"/>
<polygon fill="#63b8ff" stroke="#63b8ff" points="460.56,-251.54 470.75,-248.61 460.96,-244.56 460.56,-251.54"/>
</a>
</g>
</g>
<!-- Node19 -->
<g id="Node000019" class="node">
<title>Node19</title>
<g id="a_Node000019"><a xlink:href="osJamMesg_8c.html#ac69f7738a5120910a2f6202d27fb44f4" target="_top" xlink:title=" ">
<polygon fill="white" stroke="#666666" points="546.5,-223.27 473.5,-223.27 473.5,-204.27 546.5,-204.27 546.5,-223.27"/>
<text text-anchor="middle" x="510" y="-211.27" font-family="Helvetica,sans-Serif" font-size="10.00">osJamMesg</text>
</a>
</g>
</g>
<!-- Node18&#45;&gt;Node19 -->
<g id="edge21_Node000018_Node000019" class="edge">
<title>Node18&#45;&gt;Node19</title>
<g id="a_edge21_Node000018_Node000019"><a xlink:title=" ">
<path fill="none" stroke="#63b8ff" d="M387.09,-196.52C410.28,-199.8 439.44,-203.93 463.42,-207.32"/>
<polygon fill="#63b8ff" stroke="#63b8ff" points="462.95,-210.79 473.35,-208.73 463.94,-203.86 462.95,-210.79"/>
</a>
</g>
</g>
<!-- Node27 -->
<g id="Node000027" class="node">
<title>Node27</title>
<g id="a_Node000027"><a xlink:href="osPiGetCmdQueue_8c.html#a758cb1b861d52fc7655d52ac7144ac88" target="_top" xlink:title=" ">
<polygon fill="white" stroke="#666666" points="564,-186.27 456,-186.27 456,-167.27 564,-167.27 564,-186.27"/>
<text text-anchor="middle" x="510" y="-174.27" font-family="Helvetica,sans-Serif" font-size="10.00">osPiGetCmdQueue</text>
</a>
</g>
</g>
<!-- Node18&#45;&gt;Node27 -->
<g id="edge33_Node000018_Node000027" class="edge">
<title>Node18&#45;&gt;Node27</title>
<g id="a_edge33_Node000018_Node000027"><a xlink:title=" ">
<path fill="none" stroke="#63b8ff" d="M387.09,-187.28C404.78,-185.75 425.94,-183.93 445.62,-182.23"/>
<polygon fill="#63b8ff" stroke="#63b8ff" points="446.09,-185.71 455.75,-181.36 445.49,-178.73 446.09,-185.71"/>
</a>
</g>
</g>
<!-- Node28 -->
<g id="Node000028" class="node">
<title>Node28</title>
<g id="a_Node000028"><a xlink:href="osSendMesg_8c.html#a413bd1b0a16c54dcc9e59c48b3d7f142" target="_top" xlink:title=" ">
<polygon fill="white" stroke="#666666" points="549,-149.27 471,-149.27 471,-130.27 549,-130.27 549,-149.27"/>
<text text-anchor="middle" x="510" y="-137.27" font-family="Helvetica,sans-Serif" font-size="10.00">osSendMesg</text>
</a>
</g>
</g>
<!-- Node18&#45;&gt;Node28 -->
<g id="edge34_Node000018_Node000028" class="edge">
<title>Node18&#45;&gt;Node28</title>
<g id="a_edge34_Node000018_Node000028"><a xlink:title=" ">
<path fill="none" stroke="#63b8ff" d="M377.07,-181.18C403.05,-173.02 440.56,-161.25 468.95,-152.34"/>
<polygon fill="#63b8ff" stroke="#63b8ff" points="470.08,-155.66 478.57,-149.32 467.98,-148.98 470.08,-155.66"/>
</a>
</g>
</g>
<!-- Node20 -->
<g id="Node000020" class="node">
<title>Node20</title>
<g id="a_Node000020"><a xlink:href="libultra__internal_8h.html#a8ad9db8aa6bfc4437abdd0363b663b16" target="_top" xlink:title=" ">
<polygon fill="white" stroke="#666666" points="826.5,-73.27 738.5,-73.27 738.5,-54.27 826.5,-54.27 826.5,-73.27"/>
<text text-anchor="middle" x="782.5" y="-61.27" font-family="Helvetica,sans-Serif" font-size="10.00">__osDisableInt</text>
</a>
</g>
</g>
<!-- Node19&#45;&gt;Node20 -->
<g id="edge22_Node000019_Node000020" class="edge">
<title>Node19&#45;&gt;Node20</title>
<g id="a_edge22_Node000019_Node000020"><a xlink:title=" ">
<path fill="none" stroke="#63b8ff" d="M546.57,-205.05C552.82,-202.44 558.94,-199.08 564,-194.77 589.16,-173.38 574.89,-151.22 600,-129.77 636.59,-98.52 689.19,-81.57 728.36,-72.7"/>
<polygon fill="#63b8ff" stroke="#63b8ff" points="729.22,-76.1 738.26,-70.57 727.75,-69.25 729.22,-76.1"/>
</a>
</g>
</g>
<!-- Node21 -->
<g id="Node000021" class="node">
<title>Node21</title>
<g id="a_Node000021"><a xlink:href="libultra__internal_8h.html#afe9c3abc4ca93d9fe18a87d9f108d5cb" target="_top" xlink:title=" ">
<polygon fill="white" stroke="#666666" points="844,-129.27 721,-129.27 721,-110.27 844,-110.27 844,-129.27"/>
<text text-anchor="middle" x="782.5" y="-117.27" font-family="Helvetica,sans-Serif" font-size="10.00">__osEnqueueAndYield</text>
</a>
</g>
</g>
<!-- Node19&#45;&gt;Node21 -->
<g id="edge23_Node000019_Node000021" class="edge">
<title>Node19&#45;&gt;Node21</title>
<g id="a_edge23_Node000019_Node000021"><a xlink:title=" ">
<path fill="none" stroke="#63b8ff" d="M544.16,-204.18C550.96,-201.59 557.89,-198.46 564,-194.77 582.58,-183.56 580.79,-171.89 600,-161.77 634.12,-143.81 675.83,-133.47 710.66,-127.54"/>
<polygon fill="#63b8ff" stroke="#63b8ff" points="711.44,-130.96 720.75,-125.92 710.32,-124.05 711.44,-130.96"/>
</a>
</g>
</g>
<!-- Node22 -->
<g id="Node000022" class="node">
<title>Node22</title>
<g id="a_Node000022"><a xlink:href="libultra__internal_8h.html#aaadded63bebce6cfdda5ecda193fc9ea" target="_top" xlink:title=" ">
<polygon fill="white" stroke="#666666" points="827.5,-356.27 737.5,-356.27 737.5,-337.27 827.5,-337.27 827.5,-356.27"/>
<text text-anchor="middle" x="782.5" y="-344.27" font-family="Helvetica,sans-Serif" font-size="10.00">__osPopThread</text>
</a>
</g>
</g>
<!-- Node19&#45;&gt;Node22 -->
<g id="edge24_Node000019_Node000022" class="edge">
<title>Node19&#45;&gt;Node22</title>
<g id="a_edge24_Node000019_Node000022"><a xlink:title=" ">
<path fill="none" stroke="#63b8ff" d="M546.7,-220.81C553.09,-223.4 559.22,-226.94 564,-231.77 600.17,-268.35 558.77,-311.01 600,-341.77 639.51,-371.25 698.48,-366.58 738.39,-358.48"/>
<polygon fill="#63b8ff" stroke="#63b8ff" points="739.33,-361.86 748.35,-356.31 737.84,-355.02 739.33,-361.86"/>
</a>
</g>
</g>
<!-- Node23 -->
<g id="Node000023" class="node">
<title>Node23</title>
<g id="a_Node000023"><a xlink:href="libultra__internal_8h.html#aecafa57b85fd739d6033705808194def" target="_top" xlink:title=" ">
<polygon fill="white" stroke="#666666" points="827,-280.27 738,-280.27 738,-261.27 827,-261.27 827,-280.27"/>
<text text-anchor="middle" x="782.5" y="-268.27" font-family="Helvetica,sans-Serif" font-size="10.00">__osRestoreInt</text>
</a>
</g>
</g>
<!-- Node19&#45;&gt;Node23 -->
<g id="edge25_Node000019_Node000023" class="edge">
<title>Node19&#45;&gt;Node23</title>
<g id="a_edge25_Node000019_Node000023"><a xlink:title=" ">
<path fill="none" stroke="#63b8ff" d="M546.17,-223.33C552.32,-225.67 558.51,-228.46 564,-231.77 582.85,-243.13 579.66,-257.36 600,-265.77 640.47,-282.51 690.47,-282.56 727.74,-279.09"/>
<polygon fill="#63b8ff" stroke="#63b8ff" points="728.31,-282.55 737.9,-278.04 727.59,-275.59 728.31,-282.55"/>
</a>
</g>
</g>
<!-- Node24 -->
<g id="Node000024" class="node">
<title>Node24</title>
<g id="a_Node000024"><a xlink:href="osStartThread_8c.html#a3b144e814933e16a2fbf2642ad098ed3" target="_top" xlink:title=" ">
<polygon fill="white" stroke="#666666" points="685,-223.27 600,-223.27 600,-204.27 685,-204.27 685,-223.27"/>
<text text-anchor="middle" x="642.5" y="-211.27" font-family="Helvetica,sans-Serif" font-size="10.00">osStartThread</text>
</a>
</g>
</g>
<!-- Node19&#45;&gt;Node24 -->
<g id="edge26_Node000019_Node000024" class="edge">
<title>Node19&#45;&gt;Node24</title>
<g id="a_edge26_Node000019_Node000024"><a xlink:title=" ">
<path fill="none" stroke="#63b8ff" d="M546.66,-213.77C559.9,-213.77 575.2,-213.77 589.59,-213.77"/>
<polygon fill="#63b8ff" stroke="#63b8ff" points="589.87,-217.27 599.87,-213.77 589.87,-210.27 589.87,-217.27"/>
</a>
</g>
</g>
<!-- Node24&#45;&gt;Node20 -->
<g id="edge27_Node000024_Node000020" class="edge">
<title>Node24&#45;&gt;Node20</title>
<g id="a_edge27_Node000024_Node000020"><a xlink:title=" ">
<path fill="none" stroke="#63b8ff" d="M649.92,-204.18C667.69,-177.66 716.49,-105.05 721,-100.77 730.19,-92.06 741.76,-84.37 752.32,-78.29"/>
<polygon fill="#63b8ff" stroke="#63b8ff" points="754.17,-81.27 761.25,-73.38 750.8,-75.13 754.17,-81.27"/>
</a>
</g>
</g>
<!-- Node24&#45;&gt;Node21 -->
<g id="edge29_Node000024_Node000021" class="edge">
<title>Node24&#45;&gt;Node21</title>
<g id="a_edge29_Node000024_Node000021"><a xlink:title=" ">
<path fill="none" stroke="#63b8ff" d="M661.77,-204.26C669.19,-200.13 677.71,-195.04 685,-189.77 702.35,-177.24 703.88,-170.62 721,-157.77 732.01,-149.52 744.83,-141.28 755.84,-134.6"/>
<polygon fill="#63b8ff" stroke="#63b8ff" points="757.78,-137.51 764.57,-129.38 754.19,-131.5 757.78,-137.51"/>
</a>
</g>
</g>
<!-- Node24&#45;&gt;Node22 -->
<g id="edge31_Node000024_Node000022" class="edge">
<title>Node24&#45;&gt;Node22</title>
<g id="a_edge31_Node000024_Node000022"><a xlink:title=" ">
<path fill="none" stroke="#63b8ff" d="M653.52,-223.5C668.27,-237.81 696.73,-265.39 721,-288.77 735.44,-302.68 751.87,-318.43 763.96,-330"/>
<polygon fill="#63b8ff" stroke="#63b8ff" points="761.56,-332.55 771.21,-336.94 766.4,-327.49 761.56,-332.55"/>
</a>
</g>
</g>
<!-- Node24&#45;&gt;Node23 -->
<g id="edge32_Node000024_Node000023" class="edge">
<title>Node24&#45;&gt;Node23</title>
<g id="a_edge32_Node000024_Node000023"><a xlink:title=" ">
<path fill="none" stroke="#63b8ff" d="M666.6,-223.31C689.09,-232.6 723.48,-246.81 748.78,-257.26"/>
<polygon fill="#63b8ff" stroke="#63b8ff" points="747.75,-260.62 758.33,-261.2 750.42,-254.15 747.75,-260.62"/>
</a>
</g>
</g>
<!-- Node25 -->
<g id="Node000025" class="node">
<title>Node25</title>
<g id="a_Node000025"><a xlink:href="libultra__internal_8h.html#a650b788ebd5efde9c8cbccc1ee832445" target="_top" xlink:title=" ">
<polygon fill="white" stroke="#666666" points="840,-186.27 725,-186.27 725,-167.27 840,-167.27 840,-186.27"/>
<text text-anchor="middle" x="782.5" y="-174.27" font-family="Helvetica,sans-Serif" font-size="10.00">__osDispatchThread</text>
</a>
</g>
</g>
<!-- Node24&#45;&gt;Node25 -->
<g id="edge28_Node000024_Node000025" class="edge">
<title>Node24&#45;&gt;Node25</title>
<g id="a_edge28_Node000024_Node000025"><a xlink:title=" ">
<path fill="none" stroke="#63b8ff" d="M679.04,-204.25C696.37,-199.6 717.41,-193.96 735.91,-189"/>
<polygon fill="#63b8ff" stroke="#63b8ff" points="736.85,-192.37 745.6,-186.4 735.04,-185.61 736.85,-192.37"/>
</a>
</g>
</g>
<!-- Node26 -->
<g id="Node000026" class="node">
<title>Node26</title>
<g id="a_Node000026"><a xlink:href="libultra__internal_8h.html#ac9d6cfd19de5565e74f1d74a14e9092d" target="_top" xlink:title=" ">
<polygon fill="white" stroke="#666666" points="839.5,-223.27 725.5,-223.27 725.5,-204.27 839.5,-204.27 839.5,-223.27"/>
<text text-anchor="middle" x="782.5" y="-211.27" font-family="Helvetica,sans-Serif" font-size="10.00">__osEnqueueThread</text>
</a>
</g>
</g>
<!-- Node24&#45;&gt;Node26 -->
<g id="edge30_Node000024_Node000026" class="edge">
<title>Node24&#45;&gt;Node26</title>
<g id="a_edge30_Node000024_Node000026"><a xlink:title=" ">
<path fill="none" stroke="#63b8ff" d="M685.28,-213.77C694.74,-213.77 705.01,-213.77 715.21,-213.77"/>
<polygon fill="#63b8ff" stroke="#63b8ff" points="715.34,-217.27 725.34,-213.77 715.34,-210.27 715.34,-217.27"/>
</a>
</g>
</g>
<!-- Node28&#45;&gt;Node20 -->
<g id="edge35_Node000028_Node000020" class="edge">
<title>Node28&#45;&gt;Node20</title>
<g id="a_edge35_Node000028_Node000020"><a xlink:title=" ">
<path fill="none" stroke="#63b8ff" d="M514.03,-130.21C522.64,-104.88 549.92,-36.18 600,-9.77 654.46,18.94 726.36,-23.25 761.05,-47.98"/>
<polygon fill="#63b8ff" stroke="#63b8ff" points="759.29,-51.02 769.42,-54.12 763.43,-45.38 759.29,-51.02"/>
</a>
</g>
</g>
<!-- Node28&#45;&gt;Node21 -->
<g id="edge36_Node000028_Node000021" class="edge">
<title>Node28&#45;&gt;Node21</title>
<g id="a_edge36_Node000028_Node000021"><a xlink:title=" ">
<path fill="none" stroke="#63b8ff" d="M522.12,-130.2C538.09,-117.16 569.02,-94.44 600,-85.77 652.77,-71.02 715.99,-91.12 752.18,-106.12"/>
<polygon fill="#63b8ff" stroke="#63b8ff" points="751.06,-109.45 761.63,-110.18 753.83,-103.02 751.06,-109.45"/>
</a>
</g>
</g>
<!-- Node28&#45;&gt;Node22 -->
<g id="edge37_Node000028_Node000022" class="edge">
<title>Node28&#45;&gt;Node22</title>
<g id="a_edge37_Node000028_Node000022"><a xlink:title=" ">
<path fill="none" stroke="#63b8ff" d="M549.06,-147.95C554.56,-150.41 559.78,-153.61 564,-157.77 597.95,-191.22 568.19,-223.29 600,-258.77 635.2,-298.04 691.79,-321.56 732.42,-334.27"/>
<polygon fill="#63b8ff" stroke="#63b8ff" points="731.54,-337.66 742.13,-337.2 733.57,-330.96 731.54,-337.66"/>
</a>
</g>
</g>
<!-- Node28&#45;&gt;Node23 -->
<g id="edge38_Node000028_Node000023" class="edge">
<title>Node28&#45;&gt;Node23</title>
<g id="a_edge38_Node000028_Node000023"><a xlink:title=" ">
<path fill="none" stroke="#63b8ff" d="M549.21,-148.61C554.57,-150.98 559.7,-153.98 564,-157.77 591.43,-181.96 571.22,-209.21 600,-231.77 619.57,-247.12 681.51,-258.13 727.62,-264.47"/>
<polygon fill="#63b8ff" stroke="#63b8ff" points="727.41,-267.97 737.78,-265.82 728.33,-261.03 727.41,-267.97"/>
</a>
</g>
</g>
<!-- Node28&#45;&gt;Node24 -->
<g id="edge39_Node000028_Node000024" class="edge">
<title>Node28&#45;&gt;Node24</title>
<g id="a_edge39_Node000028_Node000024"><a xlink:title=" ">
<path fill="none" stroke="#63b8ff" d="M544.15,-149.33C550.87,-151.74 557.78,-154.56 564,-157.77 585.33,-168.79 607.29,-185.23 622.37,-197.45"/>
<polygon fill="#63b8ff" stroke="#63b8ff" points="620.45,-200.41 630.39,-204.09 624.92,-195.01 620.45,-200.41"/>
</a>
</g>
</g>
<!-- Node29&#45;&gt;Node20 -->
<g id="edge41_Node000029_Node000020" class="edge">
<title>Node29&#45;&gt;Node20</title>
<g id="a_edge41_Node000029_Node000020"><a xlink:title=" ">
<path fill="none" stroke="#63b8ff" d="M549.04,-241.4C554.48,-238.9 559.68,-235.74 564,-231.77 592.4,-205.65 571.68,-178.97 600,-152.77 629.52,-125.47 648.71,-139.1 685,-121.77 692.38,-118.25 731.32,-94.57 757.42,-78.58"/>
<polygon fill="#63b8ff" stroke="#63b8ff" points="759.35,-81.5 766.04,-73.29 755.69,-75.53 759.35,-81.5"/>
</a>
</g>
</g>
<!-- Node29&#45;&gt;Node21 -->
<g id="edge42_Node000029_Node000021" class="edge">
<title>Node29&#45;&gt;Node21</title>
<g id="a_edge42_Node000029_Node000021"><a xlink:title=" ">
<path fill="none" stroke="#63b8ff" d="M544.89,-241.23C551.49,-238.66 558.16,-235.53 564,-231.77 583.3,-219.36 581.01,-207.64 600,-194.77 624.59,-178.12 699.77,-149.4 745.29,-132.75"/>
<polygon fill="#63b8ff" stroke="#63b8ff" points="746.6,-135.99 754.8,-129.29 744.21,-129.42 746.6,-135.99"/>
</a>
</g>
</g>
<!-- Node29&#45;&gt;Node22 -->
<g id="edge43_Node000029_Node000022" class="edge">
<title>Node29&#45;&gt;Node22</title>
<g id="a_edge43_Node000029_Node000022"><a xlink:title=" ">
<path fill="none" stroke="#63b8ff" d="M540.29,-260.3C548.45,-263.78 556.99,-268.24 564,-273.77 584.93,-290.3 577.02,-308.25 600,-321.77 638.33,-344.34 688.95,-349.71 726.99,-349.94"/>
<polygon fill="#63b8ff" stroke="#63b8ff" points="727.39,-353.44 737.37,-349.88 727.34,-346.44 727.39,-353.44"/>
</a>
</g>
</g>
<!-- Node29&#45;&gt;Node23 -->
<g id="edge44_Node000029_Node000023" class="edge">
<title>Node29&#45;&gt;Node23</title>
<g id="a_edge44_Node000029_Node000023"><a xlink:title=" ">
<path fill="none" stroke="#63b8ff" d="M537.08,-260.35C545.9,-264.04 555.63,-268.62 564,-273.77 581.73,-284.7 580.42,-296.68 600,-303.77 652.3,-322.71 717.17,-300.76 753.49,-284.69"/>
<polygon fill="#63b8ff" stroke="#63b8ff" points="755.31,-287.71 762.94,-280.35 752.39,-281.34 755.31,-287.71"/>
</a>
</g>
</g>
<!-- Node29&#45;&gt;Node24 -->
<g id="edge45_Node000029_Node000024" class="edge">
<title>Node29&#45;&gt;Node24</title>
<g id="a_edge45_Node000029_Node000024"><a xlink:title=" ">
<path fill="none" stroke="#63b8ff" d="M544.61,-241.25C560.77,-236.66 580.35,-231.11 597.66,-226.2"/>
<polygon fill="#63b8ff" stroke="#63b8ff" points="598.89,-229.49 607.55,-223.4 596.98,-222.76 598.89,-229.49"/>
</a>
</g>
</g>
<!-- Node31 -->
<g id="Node000031" class="node">
<title>Node31</title>
<g id="a_Node000031"><a xlink:href="FrameInterpolation_8cpp.html#ad8eff15a52471a7a9c4801f2f23124e6" target="_top" xlink:title=" ">
<polygon fill="white" stroke="#666666" points="402,-557.77 289,-557.77 289,-527.77 402,-527.77 402,-557.77"/>
<text text-anchor="start" x="297" y="-545.77" font-family="Helvetica,sans-Serif" font-size="10.00">FrameInterpolation</text>
<text text-anchor="middle" x="345.5" y="-534.77" font-family="Helvetica,sans-Serif" font-size="10.00">_RecordMatrixScale</text>
</a>
</g>
</g>
<!-- Node30&#45;&gt;Node31 -->
<g id="edge47_Node000030_Node000031" class="edge">
<title>Node30&#45;&gt;Node31</title>
<g id="a_edge47_Node000030_Node000031"><a xlink:title=" ">
<path fill="none" stroke="#63b8ff" d="M207.31,-538.79C227.75,-539.38 254.26,-540.15 278.52,-540.86"/>
<polygon fill="#63b8ff" stroke="#63b8ff" points="278.66,-544.36 288.75,-541.15 278.86,-537.36 278.66,-544.36"/>
</a>
</g>
</g>
<!-- Node31&#45;&gt;Node4 -->
<g id="edge48_Node000031_Node000004" class="edge">
<title>Node31&#45;&gt;Node4</title>
<g id="a_edge48_Node000031_Node000004"><a xlink:title=" ">
<path fill="none" stroke="#63b8ff" d="M397.47,-557.83C419.81,-564.43 445.71,-572.08 466.93,-578.35"/>
<polygon fill="#63b8ff" stroke="#63b8ff" points="466.04,-581.73 476.62,-581.21 468.02,-575.02 466.04,-581.73"/>
</a>
</g>
</g>
<!-- Node32&#45;&gt;Node10 -->
<g id="edge50_Node000032_Node000010" class="edge">
<title>Node32&#45;&gt;Node10</title>
<g id="a_edge50_Node000032_Node000010"><a xlink:title=" ">
<path fill="none" stroke="#63b8ff" d="M212.39,-483.26C244.25,-475.67 288.09,-465.22 316.36,-458.48"/>
<polygon fill="#63b8ff" stroke="#63b8ff" points="317.46,-461.82 326.38,-456.09 315.84,-455.01 317.46,-461.82"/>
</a>
</g>
</g>
<!-- Node32&#45;&gt;Node11 -->
<g id="edge53_Node000032_Node000011" class="edge">
<title>Node32&#45;&gt;Node11</title>
<g id="a_edge53_Node000032_Node000011"><a xlink:title=" ">
<path fill="none" stroke="#63b8ff" d="M217.56,-483.18C223.67,-480.93 229.66,-478.16 235,-474.77 255.48,-461.78 250.35,-446.48 271,-433.77 285,-425.16 302.81,-420.43 317.39,-417.84"/>
<polygon fill="#63b8ff" stroke="#63b8ff" points="317.98,-421.29 327.33,-416.31 316.91,-414.37 317.98,-421.29"/>
</a>
</g>
</g>
<!-- Node33 -->
<g id="Node000033" class="node">
<title>Node33</title>
<g id="a_Node000033"><a xlink:href="FrameInterpolation_8cpp.html#aafa8768b46143c8110779aa8afdfe41c" target="_top" xlink:title=" ">
<polygon fill="white" stroke="#666666" points="411.5,-509.77 279.5,-509.77 279.5,-479.77 411.5,-479.77 411.5,-509.77"/>
<text text-anchor="start" x="287.5" y="-497.77" font-family="Helvetica,sans-Serif" font-size="10.00">FrameInterpolation</text>
<text text-anchor="middle" x="345.5" y="-486.77" font-family="Helvetica,sans-Serif" font-size="10.00">_RecordTranslateRotate</text>
</a>
</g>
</g>
<!-- Node32&#45;&gt;Node33 -->
<g id="edge51_Node000032_Node000033" class="edge">
<title>Node32&#45;&gt;Node33</title>
<g id="a_edge51_Node000032_Node000033"><a xlink:title=" ">
<path fill="none" stroke="#63b8ff" d="M233.14,-493.48C244.85,-493.62 257.25,-493.76 269.36,-493.9"/>
<polygon fill="#63b8ff" stroke="#63b8ff" points="269.4,-497.4 279.44,-494.02 269.49,-490.4 269.4,-497.4"/>
</a>
</g>
</g>
<!-- Node33&#45;&gt;Node4 -->
<g id="edge52_Node000033_Node000004" class="edge">
<title>Node33&#45;&gt;Node4</title>
<g id="a_edge52_Node000033_Node000004"><a xlink:title=" ">
<path fill="none" stroke="#63b8ff" d="M400.45,-509.85C407.19,-512.47 413.87,-515.44 420,-518.77 447.61,-533.78 475.07,-557.72 492.03,-573.83"/>
<polygon fill="#63b8ff" stroke="#63b8ff" points="489.85,-576.59 499.46,-581.04 494.72,-571.56 489.85,-576.59"/>
</a>
</g>
</g>
</g>
</svg>

<g id="navigator" transform="translate(0 0)" fill="#404254">
  <rect fill="#f2f5e9" fill-opacity="0.5" stroke="#606060" stroke-width=".5" x="0" y="0" width="60" height="60"/>
  <use id="zoomplus" xlink:href="#zoomPlus" x="17" y="9" onmousedown="handleZoom(evt,'in')"/>
  <use id="zoomminus" xlink:href="#zoomMin" x="42" y="9" onmousedown="handleZoom(evt,'out')"/>
  <use id="reset" xlink:href="#resetDef" x="30" y="36" onmousedown="handleReset()"/>
   <use id="arrowup" xlink:href="#arrowUp" x="0" y="0" onmousedown="handlePan(0,-1)"/>
  <use id="arrowright" xlink:href="#arrowRight" x="0" y="0" onmousedown="handlePan(1,0)"/>
  <use id="arrowdown" xlink:href="#arrowDown" x="0" y="0" onmousedown="handlePan(0,1)"/>
  <use id="arrowleft" xlink:href="#arrowLeft" x="0" y="0" onmousedown="handlePan(-1,0)"/>
</g>
<svg viewBox="0 0 15 15" width="100%" height="30px" preserveAspectRatio="xMaxYMin meet">
 <g id="arrow_out" transform="scale(0.3 0.3)">
  <a xlink:href="render__player_8h_aaa703464fa1caf9735fb9eaf97778274_cgraph_org.svg" target="_base">
   <rect id="button" ry="5" rx="5" y="6" x="6" height="38" width="38"
        fill="#f2f5e9" fill-opacity="0.5" stroke="#606060" stroke-width="1.0"/>
   <path id="arrow"
     d="M 11.500037,31.436501 C 11.940474,20.09759 22.043105,11.32322 32.158766,21.979434 L 37.068811,17.246167 C 37.068811,17.246167 37.088388,32 37.088388,32 L 22.160133,31.978069 C 22.160133,31.978069 26.997745,27.140456 26.997745,27.140456 C 18.528582,18.264221 13.291696,25.230495 11.500037,31.436501 z"
     style="fill:#404040;"/>
  </a>
 </g>
</svg>

<style type='text/css'>
<![CDATA[
[data-mouse-over-selected='false'] { opacity: 0.7; }
[data-mouse-over-selected='true']  { opacity: 1.0; }
]]>
</style>
<script type="application/ecmascript"><![CDATA[
document.addEventListener('DOMContentLoaded', (event) => {
  highlightEdges();
  highlightAdjacentNodes();
});
]]></script>
</svg>
