<?xml version="1.0" encoding="UTF-8" standalone="no"?>
<!DOCTYPE svg PUBLIC "-//W3C//DTD SVG 1.1//EN"
 "http://www.w3.org/Graphics/SVG/1.1/DTD/svg11.dtd">
<!-- Generated by graphviz version 2.43.0 (0)
 -->
<!-- Title: src/engine/courses/RoyalRaceway.h Pages: 1 -->
<svg width="1381pt" height="379pt"
 viewBox="0.00 0.00 1381.00 379.00" xmlns="http://www.w3.org/2000/svg" xmlns:xlink="http://www.w3.org/1999/xlink">
<g id="graph0" class="graph" transform="scale(1 1) rotate(0) translate(4 375)">
<title>src/engine/courses/RoyalRaceway.h</title>
<!-- Node1 -->
<g id="Node000001" class="node">
<title>Node1</title>
<g id="a_Node000001"><a xlink:title=" ">
<polygon fill="#999999" stroke="#666666" points="974.5,-371 867.5,-371 867.5,-341 974.5,-341 974.5,-371"/>
<text text-anchor="start" x="875.5" y="-359" font-family="Helvetica,sans-Serif" font-size="10.00">src/engine/courses</text>
<text text-anchor="middle" x="921" y="-348" font-family="Helvetica,sans-Serif" font-size="10.00">/RoyalRaceway.h</text>
</a>
</g>
</g>
<!-- Node2 -->
<g id="Node000002" class="node">
<title>Node2</title>
<g id="a_Node000002"><a xlink:title=" ">
<polygon fill="#e0e0e0" stroke="#999999" points="396,-19 316,-19 316,0 396,0 396,-19"/>
<text text-anchor="middle" x="356" y="-7" font-family="Helvetica,sans-Serif" font-size="10.00">libultraship.h</text>
</a>
</g>
</g>
<!-- Node1&#45;&gt;Node2 -->
<g id="edge1_Node000001_Node000002" class="edge">
<title>Node1&#45;&gt;Node2</title>
<g id="a_edge1_Node000001_Node000002"><a xlink:title=" ">
<path fill="none" stroke="#63b8ff" d="M974.63,-352.79C1094.36,-346.41 1373,-322.81 1373,-241.5 1373,-241.5 1373,-241.5 1373,-124 1373,-25.61 611.48,-12.51 406.37,-10.77"/>
<polygon fill="#63b8ff" stroke="#63b8ff" points="406.21,-7.27 396.18,-10.69 406.15,-14.27 406.21,-7.27"/>
</a>
</g>
</g>
<!-- Node3 -->
<g id="Node000003" class="node">
<title>Node3</title>
<g id="a_Node000003"><a xlink:href="Course_8h.html" target="_top" xlink:title=" ">
<polygon fill="white" stroke="#666666" points="883.5,-305 824.5,-305 824.5,-286 883.5,-286 883.5,-305"/>
<text text-anchor="middle" x="854" y="-293" font-family="Helvetica,sans-Serif" font-size="10.00">Course.h</text>
</a>
</g>
</g>
<!-- Node1&#45;&gt;Node3 -->
<g id="edge2_Node000001_Node000003" class="edge">
<title>Node1&#45;&gt;Node3</title>
<g id="a_edge2_Node000001_Node000003"><a xlink:title=" ">
<path fill="none" stroke="#63b8ff" d="M904.78,-340.84C894.76,-332.09 881.89,-320.85 871.62,-311.88"/>
<polygon fill="#63b8ff" stroke="#63b8ff" points="873.87,-309.21 864.04,-305.27 869.27,-314.48 873.87,-309.21"/>
</a>
</g>
</g>
<!-- Node6 -->
<g id="Node000006" class="node">
<title>Node6</title>
<g id="a_Node000006"><a xlink:href="camera_8h.html" target="_top" xlink:title=" ">
<polygon fill="white" stroke="#666666" points="563,-195 501,-195 501,-176 563,-176 563,-195"/>
<text text-anchor="middle" x="532" y="-183" font-family="Helvetica,sans-Serif" font-size="10.00">camera.h</text>
</a>
</g>
</g>
<!-- Node1&#45;&gt;Node6 -->
<g id="edge61_Node000001_Node000006" class="edge">
<title>Node1&#45;&gt;Node6</title>
<g id="a_edge61_Node000001_Node000006"><a xlink:title=" ">
<path fill="none" stroke="#63b8ff" d="M867.17,-348.27C770.87,-335.03 575.27,-302.23 534,-250 524.18,-237.57 524.75,-219.1 527.14,-205.28"/>
<polygon fill="#63b8ff" stroke="#63b8ff" points="530.58,-205.92 529.29,-195.4 523.74,-204.43 530.58,-205.92"/>
</a>
</g>
</g>
<!-- Node8 -->
<g id="Node000008" class="node">
<title>Node8</title>
<g id="a_Node000008"><a xlink:href="course__offsets_8h.html" target="_top" xlink:title=" ">
<polygon fill="white" stroke="#666666" points="483,-195 387,-195 387,-176 483,-176 483,-195"/>
<text text-anchor="middle" x="435" y="-183" font-family="Helvetica,sans-Serif" font-size="10.00">course_offsets.h</text>
</a>
</g>
</g>
<!-- Node1&#45;&gt;Node8 -->
<g id="edge60_Node000001_Node000008" class="edge">
<title>Node1&#45;&gt;Node8</title>
<g id="a_edge60_Node000001_Node000008"><a xlink:title=" ">
<path fill="none" stroke="#63b8ff" d="M867.3,-352.79C800.81,-348.72 684.85,-337.24 591,-305 543.76,-288.77 532.12,-281.06 493,-250 475.54,-236.14 458.72,-216.85 447.73,-203.18"/>
<polygon fill="#63b8ff" stroke="#63b8ff" points="450.33,-200.82 441.4,-195.11 444.82,-205.14 450.33,-200.82"/>
</a>
</g>
</g>
<!-- Node14 -->
<g id="Node000014" class="node">
<title>Node14</title>
<g id="a_Node000014"><a xlink:href="src_2data_2some__data_8h.html" target="_top" xlink:title=" ">
<polygon fill="white" stroke="#666666" points="1286,-250 1182,-250 1182,-231 1286,-231 1286,-250"/>
<text text-anchor="middle" x="1234" y="-238" font-family="Helvetica,sans-Serif" font-size="10.00">data/some_data.h</text>
</a>
</g>
</g>
<!-- Node1&#45;&gt;Node14 -->
<g id="edge62_Node000001_Node000014" class="edge">
<title>Node1&#45;&gt;Node14</title>
<g id="a_edge62_Node000001_Node000014"><a xlink:title=" ">
<path fill="none" stroke="#63b8ff" d="M959.69,-340.97C1021.7,-318.49 1142.25,-274.77 1200.67,-253.59"/>
<polygon fill="#63b8ff" stroke="#63b8ff" points="1201.95,-256.84 1210.16,-250.14 1199.57,-250.26 1201.95,-256.84"/>
</a>
</g>
</g>
<!-- Node16 -->
<g id="Node000016" class="node">
<title>Node16</title>
<g id="a_Node000016"><a xlink:href="objects_8h.html" target="_top" xlink:title=" ">
<polygon fill="white" stroke="#666666" points="1344.5,-195 1283.5,-195 1283.5,-176 1344.5,-176 1344.5,-195"/>
<text text-anchor="middle" x="1314" y="-183" font-family="Helvetica,sans-Serif" font-size="10.00">objects.h</text>
</a>
</g>
</g>
<!-- Node1&#45;&gt;Node16 -->
<g id="edge63_Node000001_Node000016" class="edge">
<title>Node1&#45;&gt;Node16</title>
<g id="a_edge63_Node000001_Node000016"><a xlink:title=" ">
<path fill="none" stroke="#63b8ff" d="M974.76,-355.34C1055.4,-352.85 1207.52,-336.1 1295,-250 1306.91,-238.28 1311.42,-219.43 1313.09,-205.31"/>
<polygon fill="#63b8ff" stroke="#63b8ff" points="1316.59,-205.47 1313.92,-195.22 1309.62,-204.9 1316.59,-205.47"/>
</a>
</g>
</g>
<!-- Node21 -->
<g id="Node000021" class="node">
<title>Node21</title>
<g id="a_Node000021"><a xlink:href="path__spawn__metadata_8h.html" target="_top" xlink:title=" ">
<polygon fill="white" stroke="#666666" points="1125.5,-250 988.5,-250 988.5,-231 1125.5,-231 1125.5,-250"/>
<text text-anchor="middle" x="1057" y="-238" font-family="Helvetica,sans-Serif" font-size="10.00">path_spawn_metadata.h</text>
</a>
</g>
</g>
<!-- Node1&#45;&gt;Node21 -->
<g id="edge64_Node000001_Node000021" class="edge">
<title>Node1&#45;&gt;Node21</title>
<g id="a_edge64_Node000001_Node000021"><a xlink:title=" ">
<path fill="none" stroke="#63b8ff" d="M937.95,-340.85C963.65,-319.41 1012.28,-278.82 1038.74,-256.74"/>
<polygon fill="#63b8ff" stroke="#63b8ff" points="1041.06,-259.37 1046.49,-250.27 1036.57,-253.99 1041.06,-259.37"/>
</a>
</g>
</g>
<!-- Node25 -->
<g id="Node000025" class="node">
<title>Node25</title>
<g id="a_Node000025"><a xlink:href="royal__raceway__vertices_8h.html" target="_top" xlink:title=" ">
<polygon fill="white" stroke="#666666" points="277,-140 155,-140 155,-110 277,-110 277,-140"/>
<text text-anchor="start" x="163" y="-128" font-family="Helvetica,sans-Serif" font-size="10.00">assets/royal_raceway</text>
<text text-anchor="middle" x="216" y="-117" font-family="Helvetica,sans-Serif" font-size="10.00">_vertices.h</text>
</a>
</g>
</g>
<!-- Node1&#45;&gt;Node25 -->
<g id="edge48_Node000001_Node000025" class="edge">
<title>Node1&#45;&gt;Node25</title>
<g id="a_edge48_Node000001_Node000025"><a xlink:title=" ">
<path fill="none" stroke="#63b8ff" d="M867.45,-351.89C767.71,-345.59 557.42,-329.78 489,-305 386.41,-267.85 283.73,-185.34 239.11,-146.71"/>
<polygon fill="#63b8ff" stroke="#63b8ff" points="241.3,-143.97 231.47,-140.03 236.69,-149.24 241.3,-143.97"/>
</a>
</g>
</g>
<!-- Node26 -->
<g id="Node000026" class="node">
<title>Node26</title>
<g id="a_Node000026"><a xlink:href="royal__raceway__displaylists_8h.html" target="_top" xlink:title=" ">
<polygon fill="white" stroke="#666666" points="417,-140 295,-140 295,-110 417,-110 417,-140"/>
<text text-anchor="start" x="303" y="-128" font-family="Helvetica,sans-Serif" font-size="10.00">assets/royal_raceway</text>
<text text-anchor="middle" x="356" y="-117" font-family="Helvetica,sans-Serif" font-size="10.00">_displaylists.h</text>
</a>
</g>
</g>
<!-- Node1&#45;&gt;Node26 -->
<g id="edge52_Node000001_Node000026" class="edge">
<title>Node1&#45;&gt;Node26</title>
<g id="a_edge52_Node000001_Node000026"><a xlink:title=" ">
<path fill="none" stroke="#63b8ff" d="M867.35,-355.66C791.83,-354.9 650.99,-347.22 540,-305 458.66,-274.06 430.08,-264.73 378,-195 368.23,-181.91 362.71,-164.34 359.64,-150.21"/>
<polygon fill="#63b8ff" stroke="#63b8ff" points="363.05,-149.37 357.75,-140.2 356.17,-150.68 363.05,-149.37"/>
</a>
</g>
</g>
<!-- Node27 -->
<g id="Node000027" class="node">
<title>Node27</title>
<g id="a_Node000027"><a xlink:href="royal__raceway__data_8h.html" target="_top" xlink:title=" ">
<polygon fill="white" stroke="#666666" points="633,-140 511,-140 511,-110 633,-110 633,-140"/>
<text text-anchor="start" x="519" y="-128" font-family="Helvetica,sans-Serif" font-size="10.00">assets/royal_raceway</text>
<text text-anchor="middle" x="572" y="-117" font-family="Helvetica,sans-Serif" font-size="10.00">_data.h</text>
</a>
</g>
</g>
<!-- Node1&#45;&gt;Node27 -->
<g id="edge56_Node000001_Node000027" class="edge">
<title>Node1&#45;&gt;Node27</title>
<g id="a_edge56_Node000001_Node000027"><a xlink:title=" ">
<path fill="none" stroke="#63b8ff" d="M924.78,-340.53C932.68,-306.61 946.78,-221.43 903,-176 864.27,-135.82 714.71,-148.38 643.03,-139.85"/>
<polygon fill="#63b8ff" stroke="#63b8ff" points="643.44,-136.38 633.04,-138.43 642.45,-143.31 643.44,-136.38"/>
</a>
</g>
</g>
<!-- Node4 -->
<g id="Node000004" class="node">
<title>Node4</title>
<g id="a_Node000004"><a xlink:title=" ">
<polygon fill="#e0e0e0" stroke="#999999" points="776,-250 638,-250 638,-231 776,-231 776,-250"/>
<text text-anchor="middle" x="707" y="-238" font-family="Helvetica,sans-Serif" font-size="10.00">libultraship/libultraship.h</text>
</a>
</g>
</g>
<!-- Node3&#45;&gt;Node4 -->
<g id="edge3_Node000003_Node000004" class="edge">
<title>Node3&#45;&gt;Node4</title>
<g id="a_edge3_Node000003_Node000004"><a xlink:title=" ">
<path fill="none" stroke="#63b8ff" d="M830.38,-285.98C806.1,-277.23 768.05,-263.51 740.63,-253.62"/>
<polygon fill="#63b8ff" stroke="#63b8ff" points="741.64,-250.27 731.05,-250.17 739.27,-256.85 741.64,-250.27"/>
</a>
</g>
</g>
<!-- Node5 -->
<g id="Node000005" class="node">
<title>Node5</title>
<g id="a_Node000005"><a xlink:href="CoreMath_8h.html" target="_top" xlink:title=" ">
<polygon fill="white" stroke="#666666" points="109.5,-195 36.5,-195 36.5,-176 109.5,-176 109.5,-195"/>
<text text-anchor="middle" x="73" y="-183" font-family="Helvetica,sans-Serif" font-size="10.00">CoreMath.h</text>
</a>
</g>
</g>
<!-- Node3&#45;&gt;Node5 -->
<g id="edge4_Node000003_Node000005" class="edge">
<title>Node3&#45;&gt;Node5</title>
<g id="a_edge4_Node000003_Node000005"><a xlink:title=" ">
<path fill="none" stroke="#63b8ff" d="M824.48,-291.14C762.84,-284.06 615.93,-266.87 493,-250 357.18,-231.36 197.13,-206.31 119.67,-193.98"/>
<polygon fill="#63b8ff" stroke="#63b8ff" points="120.18,-190.52 109.75,-192.4 119.07,-197.43 120.18,-190.52"/>
</a>
</g>
</g>
<!-- Node3&#45;&gt;Node6 -->
<g id="edge6_Node000003_Node000006" class="edge">
<title>Node3&#45;&gt;Node6</title>
<g id="a_edge6_Node000003_Node000006"><a xlink:title=" ">
<path fill="none" stroke="#63b8ff" d="M824.41,-294.08C756.38,-292.51 591.57,-285.08 551,-250 538.22,-238.95 533.85,-219.7 532.45,-205.28"/>
<polygon fill="#63b8ff" stroke="#63b8ff" points="535.93,-204.79 531.85,-195.01 528.94,-205.19 535.93,-204.79"/>
</a>
</g>
</g>
<!-- Node7 -->
<g id="Node000007" class="node">
<title>Node7</title>
<g id="a_Node000007"><a xlink:href="common__structs_8h.html" target="_top" xlink:title=" ">
<polygon fill="white" stroke="#666666" points="1162.5,-74 1055.5,-74 1055.5,-55 1162.5,-55 1162.5,-74"/>
<text text-anchor="middle" x="1109" y="-62" font-family="Helvetica,sans-Serif" font-size="10.00">common_structs.h</text>
</a>
</g>
</g>
<!-- Node3&#45;&gt;Node7 -->
<g id="edge47_Node000003_Node000007" class="edge">
<title>Node3&#45;&gt;Node7</title>
<g id="a_edge47_Node000003_Node000007"><a xlink:title=" ">
<path fill="none" stroke="#63b8ff" d="M868.5,-285.96C917.8,-256.81 1076.77,-161.81 1092,-140 1103.49,-123.55 1107.34,-100.52 1108.56,-84.44"/>
<polygon fill="#63b8ff" stroke="#63b8ff" points="1112.07,-84.31 1109.06,-74.15 1105.08,-83.97 1112.07,-84.31"/>
</a>
</g>
</g>
<!-- Node3&#45;&gt;Node8 -->
<g id="edge10_Node000003_Node000008" class="edge">
<title>Node3&#45;&gt;Node8</title>
<g id="a_edge10_Node000003_Node000008"><a xlink:title=" ">
<path fill="none" stroke="#63b8ff" d="M824.3,-294.57C766.53,-293.81 635.8,-287.65 534,-250 503.25,-238.63 472.13,-216.54 453.19,-201.65"/>
<polygon fill="#63b8ff" stroke="#63b8ff" points="455.15,-198.73 445.17,-195.19 450.76,-204.19 455.15,-198.73"/>
</a>
</g>
</g>
<!-- Node3&#45;&gt;Node14 -->
<g id="edge19_Node000003_Node000014" class="edge">
<title>Node3&#45;&gt;Node14</title>
<g id="a_edge19_Node000003_Node000014"><a xlink:title=" ">
<path fill="none" stroke="#63b8ff" d="M883.5,-290.39C945.19,-281.78 1088.95,-261.73 1171.92,-250.16"/>
<polygon fill="#63b8ff" stroke="#63b8ff" points="1172.56,-253.6 1181.98,-248.76 1171.59,-246.67 1172.56,-253.6"/>
</a>
</g>
</g>
<!-- Node17 -->
<g id="Node000017" class="node">
<title>Node17</title>
<g id="a_Node000017"><a xlink:href="defines_8h.html" target="_top" xlink:title=" ">
<polygon fill="white" stroke="#666666" points="855.5,-250 794.5,-250 794.5,-231 855.5,-231 855.5,-250"/>
<text text-anchor="middle" x="825" y="-238" font-family="Helvetica,sans-Serif" font-size="10.00">defines.h</text>
</a>
</g>
</g>
<!-- Node3&#45;&gt;Node17 -->
<g id="edge27_Node000003_Node000017" class="edge">
<title>Node3&#45;&gt;Node17</title>
<g id="a_edge27_Node000003_Node000017"><a xlink:title=" ">
<path fill="none" stroke="#63b8ff" d="M849.21,-285.75C845.24,-278.49 839.47,-267.95 834.57,-258.98"/>
<polygon fill="#63b8ff" stroke="#63b8ff" points="837.57,-257.18 829.7,-250.09 831.43,-260.54 837.57,-257.18"/>
</a>
</g>
</g>
<!-- Node18 -->
<g id="Node000018" class="node">
<title>Node18</title>
<g id="a_Node000018"><a xlink:href="bomb__kart_8h.html" target="_top" xlink:title=" ">
<polygon fill="white" stroke="#666666" points="893.5,-195 816.5,-195 816.5,-176 893.5,-176 893.5,-195"/>
<text text-anchor="middle" x="855" y="-183" font-family="Helvetica,sans-Serif" font-size="10.00">bomb_kart.h</text>
</a>
</g>
</g>
<!-- Node3&#45;&gt;Node18 -->
<g id="edge28_Node000003_Node000018" class="edge">
<title>Node3&#45;&gt;Node18</title>
<g id="a_edge28_Node000003_Node000018"><a xlink:title=" ">
<path fill="none" stroke="#63b8ff" d="M856.83,-285.75C859.55,-276.86 863.46,-262.64 865,-250 866.86,-234.75 863.82,-217.54 860.62,-204.88"/>
<polygon fill="#63b8ff" stroke="#63b8ff" points="863.95,-203.79 857.89,-195.1 857.21,-205.67 863.95,-203.79"/>
</a>
</g>
</g>
<!-- Node3&#45;&gt;Node21 -->
<g id="edge35_Node000003_Node000021" class="edge">
<title>Node3&#45;&gt;Node21</title>
<g id="a_edge35_Node000003_Node000021"><a xlink:title=" ">
<path fill="none" stroke="#63b8ff" d="M883.52,-286.79C918.01,-277.79 975.36,-262.81 1014.61,-252.57"/>
<polygon fill="#63b8ff" stroke="#63b8ff" points="1015.63,-255.92 1024.42,-250.01 1013.86,-249.15 1015.63,-255.92"/>
</a>
</g>
</g>
<!-- Node22 -->
<g id="Node000022" class="node">
<title>Node22</title>
<g id="a_Node000022"><a xlink:href="waypoints_8h.html" target="_top" xlink:title=" ">
<polygon fill="white" stroke="#666666" points="1151,-195 1075,-195 1075,-176 1151,-176 1151,-195"/>
<text text-anchor="middle" x="1113" y="-183" font-family="Helvetica,sans-Serif" font-size="10.00">waypoints.h</text>
</a>
</g>
</g>
<!-- Node3&#45;&gt;Node22 -->
<g id="edge45_Node000003_Node000022" class="edge">
<title>Node3&#45;&gt;Node22</title>
<g id="a_edge45_Node000003_Node000022"><a xlink:title=" ">
<path fill="none" stroke="#63b8ff" d="M883.85,-294.44C949.46,-293.59 1102.92,-287.56 1135,-250 1146.31,-236.75 1136.95,-217.36 1127.18,-203.5"/>
<polygon fill="#63b8ff" stroke="#63b8ff" points="1129.76,-201.12 1120.91,-195.3 1124.2,-205.37 1129.76,-201.12"/>
</a>
</g>
</g>
<!-- Node24 -->
<g id="Node000024" class="node">
<title>Node24</title>
<g id="a_Node000024"><a xlink:href="sounds_8h.html" target="_top" xlink:title=" ">
<polygon fill="white" stroke="#666666" points="620,-250 560,-250 560,-231 620,-231 620,-250"/>
<text text-anchor="middle" x="590" y="-238" font-family="Helvetica,sans-Serif" font-size="10.00">sounds.h</text>
</a>
</g>
</g>
<!-- Node3&#45;&gt;Node24 -->
<g id="edge46_Node000003_Node000024" class="edge">
<title>Node3&#45;&gt;Node24</title>
<g id="a_edge46_Node000003_Node000024"><a xlink:title=" ">
<path fill="none" stroke="#63b8ff" d="M824.48,-288.85C783.29,-280.93 705.99,-265.91 630.39,-250.26"/>
<polygon fill="#63b8ff" stroke="#63b8ff" points="630.72,-246.75 620.22,-248.15 629.3,-253.61 630.72,-246.75"/>
</a>
</g>
</g>
<!-- Node5&#45;&gt;Node2 -->
<g id="edge5_Node000005_Node000002" class="edge">
<title>Node5&#45;&gt;Node2</title>
<g id="a_edge5_Node000005_Node000002"><a xlink:title=" ">
<path fill="none" stroke="#63b8ff" d="M56.97,-175.95C44.59,-168.35 28.35,-155.97 21,-140 14.5,-125.88 19.35,-61 25,-55 62.24,-15.41 222.46,-9.94 305.56,-9.85"/>
<polygon fill="#63b8ff" stroke="#63b8ff" points="305.78,-13.35 315.78,-9.86 305.79,-6.35 305.78,-13.35"/>
</a>
</g>
</g>
<!-- Node6&#45;&gt;Node2 -->
<g id="edge7_Node000006_Node000002" class="edge">
<title>Node6&#45;&gt;Node2</title>
<g id="a_edge7_Node000006_Node000002"><a xlink:title=" ">
<path fill="none" stroke="#63b8ff" d="M500.62,-177.45C497.72,-176.91 494.81,-176.42 492,-176 445.89,-169.14 105.52,-174.35 74,-140 48.46,-112.16 49.46,-83.72 74,-55 103.19,-20.84 232.52,-12.74 305.47,-10.93"/>
<polygon fill="#63b8ff" stroke="#63b8ff" points="305.89,-14.42 315.81,-10.71 305.74,-7.42 305.89,-14.42"/>
</a>
</g>
</g>
<!-- Node6&#45;&gt;Node7 -->
<g id="edge8_Node000006_Node000007" class="edge">
<title>Node6&#45;&gt;Node7</title>
<g id="a_edge8_Node000006_Node000007"><a xlink:title=" ">
<path fill="none" stroke="#63b8ff" d="M563.16,-182.95C665.97,-177.68 990.38,-159.65 1033,-140 1040.41,-136.59 1073.75,-102.44 1093.73,-81.58"/>
<polygon fill="#63b8ff" stroke="#63b8ff" points="1096.51,-83.73 1100.89,-74.08 1091.45,-78.9 1096.51,-83.73"/>
</a>
</g>
</g>
<!-- Node7&#45;&gt;Node2 -->
<g id="edge9_Node000007_Node000002" class="edge">
<title>Node7&#45;&gt;Node2</title>
<g id="a_edge9_Node000007_Node000002"><a xlink:title=" ">
<path fill="none" stroke="#63b8ff" d="M1055.45,-59.73C915.79,-49.9 541.88,-23.58 406.13,-14.03"/>
<polygon fill="#63b8ff" stroke="#63b8ff" points="406.23,-10.53 396.01,-13.32 405.74,-17.51 406.23,-10.53"/>
</a>
</g>
</g>
<!-- Node8&#45;&gt;Node2 -->
<g id="edge11_Node000008_Node000002" class="edge">
<title>Node8&#45;&gt;Node2</title>
<g id="a_edge11_Node000008_Node000002"><a xlink:title=" ">
<path fill="none" stroke="#63b8ff" d="M386.99,-182.6C286.98,-178.13 63.7,-165.41 41,-140 15.83,-111.83 16.23,-83.52 41,-55 74.67,-16.24 225.55,-10.31 305.65,-9.96"/>
<polygon fill="#63b8ff" stroke="#63b8ff" points="306,-13.46 316,-9.95 305.99,-6.46 306,-13.46"/>
</a>
</g>
</g>
<!-- Node9 -->
<g id="Node000009" class="node">
<title>Node9</title>
<g id="a_Node000009"><a xlink:title=" ">
<polygon fill="#e0e0e0" stroke="#999999" points="90,-19 0,-19 0,0 90,0 90,-19"/>
<text text-anchor="middle" x="45" y="-7" font-family="Helvetica,sans-Serif" font-size="10.00">libultra/types.h</text>
</a>
</g>
</g>
<!-- Node8&#45;&gt;Node9 -->
<g id="edge12_Node000008_Node000009" class="edge">
<title>Node8&#45;&gt;Node9</title>
<g id="a_edge12_Node000008_Node000009"><a xlink:title=" ">
<path fill="none" stroke="#63b8ff" d="M386.92,-182.87C283.06,-178.86 45.09,-166.82 21,-140 -7.17,-108.64 17.68,-55.29 33.8,-27.88"/>
<polygon fill="#63b8ff" stroke="#63b8ff" points="36.97,-29.4 39.22,-19.05 31.01,-25.74 36.97,-29.4"/>
</a>
</g>
</g>
<!-- Node10 -->
<g id="Node000010" class="node">
<title>Node10</title>
<g id="a_Node000010"><a xlink:title=" ">
<polygon fill="#e0e0e0" stroke="#999999" points="473,-74 395,-74 395,-55 473,-55 473,-74"/>
<text text-anchor="middle" x="434" y="-62" font-family="Helvetica,sans-Serif" font-size="10.00">libultra/gbi.h</text>
</a>
</g>
</g>
<!-- Node8&#45;&gt;Node10 -->
<g id="edge13_Node000008_Node000010" class="edge">
<title>Node8&#45;&gt;Node10</title>
<g id="a_edge13_Node000008_Node000010"><a xlink:title=" ">
<path fill="none" stroke="#63b8ff" d="M434.93,-175.94C434.77,-156.91 434.38,-110.69 434.16,-84.47"/>
<polygon fill="#63b8ff" stroke="#63b8ff" points="437.66,-84.27 434.07,-74.3 430.66,-84.33 437.66,-84.27"/>
</a>
</g>
</g>
<!-- Node11 -->
<g id="Node000011" class="node">
<title>Node11</title>
<g id="a_Node000011"><a xlink:href="other__textures_8h.html" target="_top" xlink:title=" ">
<polygon fill="white" stroke="#666666" points="930.5,-134.5 799.5,-134.5 799.5,-115.5 930.5,-115.5 930.5,-134.5"/>
<text text-anchor="middle" x="865" y="-122.5" font-family="Helvetica,sans-Serif" font-size="10.00">assets/other_textures.h</text>
</a>
</g>
</g>
<!-- Node8&#45;&gt;Node11 -->
<g id="edge14_Node000008_Node000011" class="edge">
<title>Node8&#45;&gt;Node11</title>
<g id="a_edge14_Node000008_Node000011"><a xlink:title=" ">
<path fill="none" stroke="#63b8ff" d="M483.19,-177.22C486.17,-176.8 489.12,-176.39 492,-176 624.21,-158.16 658.14,-160.25 790,-140 797.11,-138.91 804.58,-137.65 811.94,-136.34"/>
<polygon fill="#63b8ff" stroke="#63b8ff" points="812.64,-139.77 821.85,-134.55 811.39,-132.89 812.64,-139.77"/>
</a>
</g>
</g>
<!-- Node13 -->
<g id="Node000013" class="node">
<title>Node13</title>
<g id="a_Node000013"><a xlink:href="animation_8h.html" target="_top" xlink:title=" ">
<polygon fill="white" stroke="#666666" points="1023.5,-134.5 948.5,-134.5 948.5,-115.5 1023.5,-115.5 1023.5,-134.5"/>
<text text-anchor="middle" x="986" y="-122.5" font-family="Helvetica,sans-Serif" font-size="10.00">animation.h</text>
</a>
</g>
</g>
<!-- Node8&#45;&gt;Node13 -->
<g id="edge17_Node000008_Node000013" class="edge">
<title>Node8&#45;&gt;Node13</title>
<g id="a_edge17_Node000008_Node000013"><a xlink:title=" ">
<path fill="none" stroke="#63b8ff" d="M483.17,-177.08C486.16,-176.69 489.12,-176.33 492,-176 690.45,-153.26 743.76,-177.3 940,-140 943.86,-139.27 947.85,-138.33 951.8,-137.29"/>
<polygon fill="#63b8ff" stroke="#63b8ff" points="952.76,-140.66 961.42,-134.55 950.84,-133.92 952.76,-140.66"/>
</a>
</g>
</g>
<!-- Node11&#45;&gt;Node2 -->
<g id="edge15_Node000011_Node000002" class="edge">
<title>Node11&#45;&gt;Node2</title>
<g id="a_edge15_Node000011_Node000002"><a xlink:title=" ">
<path fill="none" stroke="#63b8ff" d="M844.04,-115.44C807.63,-100.91 730.04,-71.36 662,-55 573.19,-33.64 467.25,-21.01 406.19,-14.95"/>
<polygon fill="#63b8ff" stroke="#63b8ff" points="406.35,-11.45 396.05,-13.96 405.67,-18.42 406.35,-11.45"/>
</a>
</g>
</g>
<!-- Node12 -->
<g id="Node000012" class="node">
<title>Node12</title>
<g id="a_Node000012"><a xlink:href="align__asset__macro_8h.html" target="_top" xlink:title=" ">
<polygon fill="white" stroke="#666666" points="608.5,-74 491.5,-74 491.5,-55 608.5,-55 608.5,-74"/>
<text text-anchor="middle" x="550" y="-62" font-family="Helvetica,sans-Serif" font-size="10.00">align_asset_macro.h</text>
</a>
</g>
</g>
<!-- Node11&#45;&gt;Node12 -->
<g id="edge16_Node000011_Node000012" class="edge">
<title>Node11&#45;&gt;Node12</title>
<g id="a_edge16_Node000011_Node000012"><a xlink:title=" ">
<path fill="none" stroke="#63b8ff" d="M819.39,-115.48C809.69,-113.67 799.51,-111.77 790,-110 726.99,-98.28 654.66,-84.87 606.02,-75.87"/>
<polygon fill="#63b8ff" stroke="#63b8ff" points="606.48,-72.39 596.01,-74.01 605.21,-79.28 606.48,-72.39"/>
</a>
</g>
</g>
<!-- Node13&#45;&gt;Node7 -->
<g id="edge18_Node000013_Node000007" class="edge">
<title>Node13&#45;&gt;Node7</title>
<g id="a_edge18_Node000013_Node000007"><a xlink:title=" ">
<path fill="none" stroke="#63b8ff" d="M1003.89,-115.49C1024.38,-105.75 1058.19,-89.66 1081.92,-78.38"/>
<polygon fill="#63b8ff" stroke="#63b8ff" points="1083.57,-81.47 1091.09,-74.02 1080.56,-75.15 1083.57,-81.47"/>
</a>
</g>
</g>
<!-- Node14&#45;&gt;Node10 -->
<g id="edge20_Node000014_Node000010" class="edge">
<title>Node14&#45;&gt;Node10</title>
<g id="a_edge20_Node000014_Node000010"><a xlink:title=" ">
<path fill="none" stroke="#63b8ff" d="M1227.36,-230.95C1215.6,-216.55 1189.53,-187.86 1160,-176 1024.11,-121.42 634.32,-202.75 502,-140 476.37,-127.84 455.95,-101.24 444.4,-83.34"/>
<polygon fill="#63b8ff" stroke="#63b8ff" points="447.15,-81.12 438.93,-74.44 441.19,-84.79 447.15,-81.12"/>
</a>
</g>
</g>
<!-- Node14&#45;&gt;Node11 -->
<g id="edge23_Node000014_Node000011" class="edge">
<title>Node14&#45;&gt;Node11</title>
<g id="a_edge23_Node000014_Node000011"><a xlink:title=" ">
<path fill="none" stroke="#63b8ff" d="M1231.09,-230.8C1225.89,-216.72 1213.56,-189.16 1193,-176 1097.34,-114.77 1052.07,-158.42 940,-140 933.24,-138.89 926.15,-137.65 919.13,-136.39"/>
<polygon fill="#63b8ff" stroke="#63b8ff" points="919.43,-132.89 908.96,-134.54 918.17,-139.78 919.43,-132.89"/>
</a>
</g>
</g>
<!-- Node15 -->
<g id="Node000015" class="node">
<title>Node15</title>
<g id="a_Node000015"><a xlink:href="spline_8h.html" target="_top" xlink:title=" ">
<polygon fill="white" stroke="#666666" points="1287.5,-134.5 1232.5,-134.5 1232.5,-115.5 1287.5,-115.5 1287.5,-134.5"/>
<text text-anchor="middle" x="1260" y="-122.5" font-family="Helvetica,sans-Serif" font-size="10.00">spline.h</text>
</a>
</g>
</g>
<!-- Node14&#45;&gt;Node15 -->
<g id="edge21_Node000014_Node000015" class="edge">
<title>Node14&#45;&gt;Node15</title>
<g id="a_edge21_Node000014_Node000015"><a xlink:title=" ">
<path fill="none" stroke="#63b8ff" d="M1235.95,-230.97C1240.13,-212.73 1250.02,-169.57 1255.73,-144.64"/>
<polygon fill="#63b8ff" stroke="#63b8ff" points="1259.2,-145.16 1258.02,-134.63 1252.38,-143.6 1259.2,-145.16"/>
</a>
</g>
</g>
<!-- Node14&#45;&gt;Node16 -->
<g id="edge24_Node000014_Node000016" class="edge">
<title>Node14&#45;&gt;Node16</title>
<g id="a_edge24_Node000014_Node000016"><a xlink:title=" ">
<path fill="none" stroke="#63b8ff" d="M1246.85,-230.98C1259.14,-222.84 1277.91,-210.41 1292.48,-200.76"/>
<polygon fill="#63b8ff" stroke="#63b8ff" points="1294.51,-203.61 1300.91,-195.17 1290.64,-197.78 1294.51,-203.61"/>
</a>
</g>
</g>
<!-- Node15&#45;&gt;Node7 -->
<g id="edge22_Node000015_Node000007" class="edge">
<title>Node15&#45;&gt;Node7</title>
<g id="a_edge22_Node000015_Node000007"><a xlink:title=" ">
<path fill="none" stroke="#63b8ff" d="M1238.04,-115.49C1212.32,-105.53 1169.52,-88.95 1140.32,-77.63"/>
<polygon fill="#63b8ff" stroke="#63b8ff" points="1141.57,-74.37 1130.98,-74.02 1139.04,-80.89 1141.57,-74.37"/>
</a>
</g>
</g>
<!-- Node16&#45;&gt;Node7 -->
<g id="edge26_Node000016_Node000007" class="edge">
<title>Node16&#45;&gt;Node7</title>
<g id="a_edge26_Node000016_Node000007"><a xlink:title=" ">
<path fill="none" stroke="#63b8ff" d="M1314.73,-175.77C1315.52,-160.27 1314.75,-127.9 1297,-110 1279.63,-92.49 1220.19,-80.42 1172.74,-73.31"/>
<polygon fill="#63b8ff" stroke="#63b8ff" points="1173.22,-69.84 1162.82,-71.87 1172.21,-76.77 1173.22,-69.84"/>
</a>
</g>
</g>
<!-- Node16&#45;&gt;Node15 -->
<g id="edge25_Node000016_Node000015" class="edge">
<title>Node16&#45;&gt;Node15</title>
<g id="a_edge25_Node000016_Node000015"><a xlink:title=" ">
<path fill="none" stroke="#63b8ff" d="M1306.03,-175.87C1297.9,-167.05 1285.07,-153.16 1275.02,-142.27"/>
<polygon fill="#63b8ff" stroke="#63b8ff" points="1277.36,-139.64 1268,-134.67 1272.21,-144.39 1277.36,-139.64"/>
</a>
</g>
</g>
<!-- Node18&#45;&gt;Node7 -->
<g id="edge29_Node000018_Node000007" class="edge">
<title>Node18&#45;&gt;Node7</title>
<g id="a_edge29_Node000018_Node000007"><a xlink:title=" ">
<path fill="none" stroke="#63b8ff" d="M893.77,-178.08C950.83,-168.37 1052.17,-150.03 1066,-140 1085.12,-126.13 1097.03,-100.96 1103.34,-83.75"/>
<polygon fill="#63b8ff" stroke="#63b8ff" points="1106.67,-84.82 1106.56,-74.23 1100.04,-82.58 1106.67,-84.82"/>
</a>
</g>
</g>
<!-- Node19 -->
<g id="Node000019" class="node">
<title>Node19</title>
<g id="a_Node000019"><a xlink:href="mk64_8h.html" target="_top" xlink:title=" ">
<polygon fill="white" stroke="#666666" points="136.5,-134.5 83.5,-134.5 83.5,-115.5 136.5,-115.5 136.5,-134.5"/>
<text text-anchor="middle" x="110" y="-122.5" font-family="Helvetica,sans-Serif" font-size="10.00">mk64.h</text>
</a>
</g>
</g>
<!-- Node18&#45;&gt;Node19 -->
<g id="edge30_Node000018_Node000019" class="edge">
<title>Node18&#45;&gt;Node19</title>
<g id="a_edge30_Node000018_Node000019"><a xlink:title=" ">
<path fill="none" stroke="#63b8ff" d="M816.23,-183.64C687.56,-180.52 275.48,-168.52 146,-140 143.48,-139.44 140.9,-138.74 138.34,-137.94"/>
<polygon fill="#63b8ff" stroke="#63b8ff" points="139.31,-134.57 128.72,-134.53 136.98,-141.17 139.31,-134.57"/>
</a>
</g>
</g>
<!-- Node19&#45;&gt;Node2 -->
<g id="edge31_Node000019_Node000002" class="edge">
<title>Node19&#45;&gt;Node2</title>
<g id="a_edge31_Node000019_Node000002"><a xlink:title=" ">
<path fill="none" stroke="#63b8ff" d="M128.49,-115.47C171.23,-95.75 277.09,-46.91 327.9,-23.46"/>
<polygon fill="#63b8ff" stroke="#63b8ff" points="329.68,-26.5 337.3,-19.13 326.75,-20.14 329.68,-26.5"/>
</a>
</g>
</g>
<!-- Node19&#45;&gt;Node10 -->
<g id="edge34_Node000019_Node000010" class="edge">
<title>Node19&#45;&gt;Node10</title>
<g id="a_edge34_Node000019_Node000010"><a xlink:title=" ">
<path fill="none" stroke="#63b8ff" d="M129.92,-115.36C135.09,-113.37 140.69,-111.42 146,-110 228.28,-87.93 326.93,-75.64 384.81,-69.81"/>
<polygon fill="#63b8ff" stroke="#63b8ff" points="385.17,-73.29 394.78,-68.83 384.48,-66.33 385.17,-73.29"/>
</a>
</g>
</g>
<!-- Node20 -->
<g id="Node000020" class="node">
<title>Node20</title>
<g id="a_Node000020"><a xlink:href="string_8h.html" target="_top" xlink:title=" ">
<polygon fill="white" stroke="#666666" points="136.5,-74 83.5,-74 83.5,-55 136.5,-55 136.5,-74"/>
<text text-anchor="middle" x="110" y="-62" font-family="Helvetica,sans-Serif" font-size="10.00">string.h</text>
</a>
</g>
</g>
<!-- Node19&#45;&gt;Node20 -->
<g id="edge32_Node000019_Node000020" class="edge">
<title>Node19&#45;&gt;Node20</title>
<g id="a_edge32_Node000019_Node000020"><a xlink:title=" ">
<path fill="none" stroke="#63b8ff" d="M110,-115.37C110,-107.25 110,-94.81 110,-84.39"/>
<polygon fill="#63b8ff" stroke="#63b8ff" points="113.5,-84.17 110,-74.17 106.5,-84.17 113.5,-84.17"/>
</a>
</g>
</g>
<!-- Node20&#45;&gt;Node9 -->
<g id="edge33_Node000020_Node000009" class="edge">
<title>Node20&#45;&gt;Node9</title>
<g id="a_edge33_Node000020_Node000009"><a xlink:title=" ">
<path fill="none" stroke="#63b8ff" d="M99.56,-54.98C89.85,-47.07 75.18,-35.11 63.5,-25.58"/>
<polygon fill="#63b8ff" stroke="#63b8ff" points="65.6,-22.78 55.63,-19.17 61.17,-28.2 65.6,-22.78"/>
</a>
</g>
</g>
<!-- Node21&#45;&gt;Node7 -->
<g id="edge38_Node000021_Node000007" class="edge">
<title>Node21&#45;&gt;Node7</title>
<g id="a_edge38_Node000021_Node000007"><a xlink:title=" ">
<path fill="none" stroke="#63b8ff" d="M1055.81,-230.74C1054.51,-217.53 1053.99,-192.32 1066,-176 1088.16,-145.9 1122.01,-171.58 1142,-140 1153.87,-121.24 1138.79,-97.48 1125.33,-81.91"/>
<polygon fill="#63b8ff" stroke="#63b8ff" points="1127.56,-79.16 1118.21,-74.18 1122.41,-83.9 1127.56,-79.16"/>
</a>
</g>
</g>
<!-- Node21&#45;&gt;Node18 -->
<g id="edge44_Node000021_Node000018" class="edge">
<title>Node21&#45;&gt;Node18</title>
<g id="a_edge44_Node000021_Node000018"><a xlink:title=" ">
<path fill="none" stroke="#63b8ff" d="M1024.55,-230.98C990.04,-221.93 935.34,-207.58 897.44,-197.64"/>
<polygon fill="#63b8ff" stroke="#63b8ff" points="898.27,-194.23 887.71,-195.08 896.49,-201.01 898.27,-194.23"/>
</a>
</g>
</g>
<!-- Node21&#45;&gt;Node22 -->
<g id="edge36_Node000021_Node000022" class="edge">
<title>Node21&#45;&gt;Node22</title>
<g id="a_edge36_Node000021_Node000022"><a xlink:title=" ">
<path fill="none" stroke="#63b8ff" d="M1066,-230.98C1074.19,-223.23 1086.51,-211.58 1096.47,-202.14"/>
<polygon fill="#63b8ff" stroke="#63b8ff" points="1098.98,-204.59 1103.84,-195.17 1094.17,-199.5 1098.98,-204.59"/>
</a>
</g>
</g>
<!-- Node23 -->
<g id="Node000023" class="node">
<title>Node23</title>
<g id="a_Node000023"><a xlink:href="common__data_8h.html" target="_top" xlink:title=" ">
<polygon fill="white" stroke="#666666" points="781,-134.5 651,-134.5 651,-115.5 781,-115.5 781,-134.5"/>
<text text-anchor="middle" x="716" y="-122.5" font-family="Helvetica,sans-Serif" font-size="10.00">assets/common_data.h</text>
</a>
</g>
</g>
<!-- Node21&#45;&gt;Node23 -->
<g id="edge39_Node000021_Node000023" class="edge">
<title>Node21&#45;&gt;Node23</title>
<g id="a_edge39_Node000021_Node000023"><a xlink:title=" ">
<path fill="none" stroke="#63b8ff" d="M1048.68,-230.96C1034.65,-217.08 1004.78,-189.83 974,-176 969.36,-173.92 845.95,-150.46 771.52,-136.43"/>
<polygon fill="#63b8ff" stroke="#63b8ff" points="771.83,-132.93 761.36,-134.52 770.54,-139.81 771.83,-132.93"/>
</a>
</g>
</g>
<!-- Node22&#45;&gt;Node7 -->
<g id="edge37_Node000022_Node000007" class="edge">
<title>Node22&#45;&gt;Node7</title>
<g id="a_edge37_Node000022_Node000007"><a xlink:title=" ">
<path fill="none" stroke="#63b8ff" d="M1136.11,-175.98C1151.59,-168.92 1170.76,-157.23 1180,-140 1186.3,-128.25 1186.46,-121.67 1180,-110 1172.16,-95.83 1157.71,-85.57 1143.89,-78.5"/>
<polygon fill="#63b8ff" stroke="#63b8ff" points="1145.05,-75.18 1134.51,-74.1 1142.08,-81.52 1145.05,-75.18"/>
</a>
</g>
</g>
<!-- Node23&#45;&gt;Node2 -->
<g id="edge41_Node000023_Node000002" class="edge">
<title>Node23&#45;&gt;Node2</title>
<g id="a_edge41_Node000023_Node000002"><a xlink:title=" ">
<path fill="none" stroke="#63b8ff" d="M708.45,-115.06C695.12,-99.94 665.81,-69.55 634,-55 559.73,-21.02 463.97,-12.44 406.42,-10.58"/>
<polygon fill="#63b8ff" stroke="#63b8ff" points="406.22,-7.07 396.13,-10.3 406.04,-14.07 406.22,-7.07"/>
</a>
</g>
</g>
<!-- Node23&#45;&gt;Node7 -->
<g id="edge42_Node000023_Node000007" class="edge">
<title>Node23&#45;&gt;Node7</title>
<g id="a_edge42_Node000023_Node000007"><a xlink:title=" ">
<path fill="none" stroke="#63b8ff" d="M759.96,-115.45C770.14,-113.56 780.93,-111.64 791,-110 879,-95.64 981.17,-81.85 1045.45,-73.53"/>
<polygon fill="#63b8ff" stroke="#63b8ff" points="1045.97,-76.99 1055.44,-72.24 1045.07,-70.05 1045.97,-76.99"/>
</a>
</g>
</g>
<!-- Node23&#45;&gt;Node10 -->
<g id="edge40_Node000023_Node000010" class="edge">
<title>Node23&#45;&gt;Node10</title>
<g id="a_edge40_Node000023_Node000010"><a xlink:title=" ">
<path fill="none" stroke="#63b8ff" d="M674.99,-115.49C624.19,-104.95 537.71,-87.01 483.33,-75.73"/>
<polygon fill="#63b8ff" stroke="#63b8ff" points="483.74,-72.24 473.24,-73.64 482.32,-79.1 483.74,-72.24"/>
</a>
</g>
</g>
<!-- Node23&#45;&gt;Node12 -->
<g id="edge43_Node000023_Node000012" class="edge">
<title>Node23&#45;&gt;Node12</title>
<g id="a_edge43_Node000023_Node000012"><a xlink:title=" ">
<path fill="none" stroke="#63b8ff" d="M691.86,-115.49C663.46,-105.49 616.12,-88.8 584.01,-77.49"/>
<polygon fill="#63b8ff" stroke="#63b8ff" points="584.76,-74.04 574.17,-74.02 582.44,-80.64 584.76,-74.04"/>
</a>
</g>
</g>
<!-- Node25&#45;&gt;Node2 -->
<g id="edge49_Node000025_Node000002" class="edge">
<title>Node25&#45;&gt;Node2</title>
<g id="a_edge49_Node000025_Node000002"><a xlink:title=" ">
<path fill="none" stroke="#63b8ff" d="M233.45,-109.85C259.9,-88.41 309.96,-47.82 337.2,-25.74"/>
<polygon fill="#63b8ff" stroke="#63b8ff" points="339.62,-28.29 345.18,-19.27 335.21,-22.85 339.62,-28.29"/>
</a>
</g>
</g>
<!-- Node25&#45;&gt;Node10 -->
<g id="edge50_Node000025_Node000010" class="edge">
<title>Node25&#45;&gt;Node10</title>
<g id="a_edge50_Node000025_Node000010"><a xlink:title=" ">
<path fill="none" stroke="#63b8ff" d="M268.22,-109.99C306.16,-99.8 356.85,-86.2 392.15,-76.73"/>
<polygon fill="#63b8ff" stroke="#63b8ff" points="393.37,-80.03 402.12,-74.05 391.56,-73.27 393.37,-80.03"/>
</a>
</g>
</g>
<!-- Node25&#45;&gt;Node12 -->
<g id="edge51_Node000025_Node000012" class="edge">
<title>Node25&#45;&gt;Node12</title>
<g id="a_edge51_Node000025_Node000012"><a xlink:title=" ">
<path fill="none" stroke="#63b8ff" d="M277.06,-111.67C280.08,-111.1 283.07,-110.54 286,-110 354.39,-97.4 433.01,-84.33 486.54,-75.64"/>
<polygon fill="#63b8ff" stroke="#63b8ff" points="487.26,-79.07 496.57,-74.02 486.14,-72.16 487.26,-79.07"/>
</a>
</g>
</g>
<!-- Node26&#45;&gt;Node2 -->
<g id="edge53_Node000026_Node000002" class="edge">
<title>Node26&#45;&gt;Node2</title>
<g id="a_edge53_Node000026_Node000002"><a xlink:title=" ">
<path fill="none" stroke="#63b8ff" d="M356,-109.63C356,-89.21 356,-51.81 356,-29.24"/>
<polygon fill="#63b8ff" stroke="#63b8ff" points="359.5,-29.23 356,-19.23 352.5,-29.23 359.5,-29.23"/>
</a>
</g>
</g>
<!-- Node26&#45;&gt;Node10 -->
<g id="edge54_Node000026_Node000010" class="edge">
<title>Node26&#45;&gt;Node10</title>
<g id="a_edge54_Node000026_Node000010"><a xlink:title=" ">
<path fill="none" stroke="#63b8ff" d="M374.88,-109.84C386.78,-100.91 402.12,-89.41 414.2,-80.35"/>
<polygon fill="#63b8ff" stroke="#63b8ff" points="416.41,-83.07 422.31,-74.27 412.21,-77.47 416.41,-83.07"/>
</a>
</g>
</g>
<!-- Node26&#45;&gt;Node12 -->
<g id="edge55_Node000026_Node000012" class="edge">
<title>Node26&#45;&gt;Node12</title>
<g id="a_edge55_Node000026_Node000012"><a xlink:title=" ">
<path fill="none" stroke="#63b8ff" d="M402.47,-109.99C435.95,-99.89 480.57,-86.44 511.94,-76.98"/>
<polygon fill="#63b8ff" stroke="#63b8ff" points="513.07,-80.29 521.63,-74.05 511.05,-73.59 513.07,-80.29"/>
</a>
</g>
</g>
<!-- Node27&#45;&gt;Node2 -->
<g id="edge57_Node000027_Node000002" class="edge">
<title>Node27&#45;&gt;Node2</title>
<g id="a_edge57_Node000027_Node000002"><a xlink:title=" ">
<path fill="none" stroke="#63b8ff" d="M592.48,-109.86C610.91,-95.43 632.96,-72.71 618,-55 591.46,-23.57 474.74,-14.33 406.37,-11.62"/>
<polygon fill="#63b8ff" stroke="#63b8ff" points="406.36,-8.12 396.24,-11.26 406.11,-15.12 406.36,-8.12"/>
</a>
</g>
</g>
<!-- Node27&#45;&gt;Node10 -->
<g id="edge58_Node000027_Node000010" class="edge">
<title>Node27&#45;&gt;Node10</title>
<g id="a_edge58_Node000027_Node000010"><a xlink:title=" ">
<path fill="none" stroke="#63b8ff" d="M538.95,-109.99C516.02,-100.27 485.76,-87.44 463.62,-78.06"/>
<polygon fill="#63b8ff" stroke="#63b8ff" points="464.95,-74.82 454.38,-74.14 462.22,-81.26 464.95,-74.82"/>
</a>
</g>
</g>
<!-- Node27&#45;&gt;Node12 -->
<g id="edge59_Node000027_Node000012" class="edge">
<title>Node27&#45;&gt;Node12</title>
<g id="a_edge59_Node000027_Node000012"><a xlink:title=" ">
<path fill="none" stroke="#63b8ff" d="M566.67,-109.84C563.74,-102.04 560.07,-92.27 556.92,-83.89"/>
<polygon fill="#63b8ff" stroke="#63b8ff" points="560.09,-82.39 553.3,-74.27 553.54,-84.86 560.09,-82.39"/>
</a>
</g>
</g>
</g>
</svg>
