<?xml version="1.0" encoding="UTF-8" standalone="no"?>
<!DOCTYPE svg PUBLIC "-//W3C//DTD SVG 1.1//EN"
 "http://www.w3.org/Graphics/SVG/1.1/DTD/svg11.dtd">
<!-- Generated by graphviz version 2.43.0 (0)
 -->
<!-- Title: src/engine/editor/SceneManager.h Pages: 1 -->
<svg width="941pt" height="93pt"
 viewBox="0.00 0.00 940.50 93.00" xmlns="http://www.w3.org/2000/svg" xmlns:xlink="http://www.w3.org/1999/xlink">
<g id="graph0" class="graph" transform="scale(1 1) rotate(0) translate(4 89)">
<title>src/engine/editor/SceneManager.h</title>
<!-- Node1 -->
<g id="Node000001" class="node">
<title>Node1</title>
<g id="a_Node000001"><a xlink:title=" ">
<polygon fill="#999999" stroke="#666666" points="571,-85 389,-85 389,-66 571,-66 571,-85"/>
<text text-anchor="middle" x="480" y="-73" font-family="Helvetica,sans-Serif" font-size="10.00">src/engine/editor/SceneManager.h</text>
</a>
</g>
</g>
<!-- Node2 -->
<g id="Node000002" class="node">
<title>Node2</title>
<g id="a_Node000002"><a xlink:href="RaceManager_8cpp.html" target="_top" xlink:title=" ">
<polygon fill="white" stroke="#666666" points="156,-24.5 0,-24.5 0,-5.5 156,-5.5 156,-24.5"/>
<text text-anchor="middle" x="78" y="-12.5" font-family="Helvetica,sans-Serif" font-size="10.00">src/engine/RaceManager.cpp</text>
</a>
</g>
</g>
<!-- Node1&#45;&gt;Node2 -->
<g id="edge1_Node000001_Node000002" class="edge">
<title>Node1&#45;&gt;Node2</title>
<g id="a_edge1_Node000001_Node000002"><a xlink:title=" ">
<path fill="none" stroke="#63b8ff" d="M407.22,-64.62C343.34,-55.86 247.94,-42.53 165,-30 153.65,-28.29 141.49,-26.37 129.96,-24.53"/>
<polygon fill="#63b8ff" stroke="#63b8ff" points="406.81,-68.1 417.19,-65.99 407.76,-61.16 406.81,-68.1"/>
</a>
</g>
</g>
<!-- Node3 -->
<g id="Node000003" class="node">
<title>Node3</title>
<g id="a_Node000003"><a xlink:href="Course_8cpp.html" target="_top" xlink:title=" ">
<polygon fill="white" stroke="#666666" points="281.5,-30 174.5,-30 174.5,0 281.5,0 281.5,-30"/>
<text text-anchor="start" x="182.5" y="-18" font-family="Helvetica,sans-Serif" font-size="10.00">src/engine/courses</text>
<text text-anchor="middle" x="228" y="-7" font-family="Helvetica,sans-Serif" font-size="10.00">/Course.cpp</text>
</a>
</g>
</g>
<!-- Node1&#45;&gt;Node3 -->
<g id="edge2_Node000001_Node000003" class="edge">
<title>Node1&#45;&gt;Node3</title>
<g id="a_edge2_Node000001_Node000003"><a xlink:title=" ">
<path fill="none" stroke="#63b8ff" d="M433.46,-63.7C390.58,-53.74 326.95,-38.97 281.88,-28.51"/>
<polygon fill="#63b8ff" stroke="#63b8ff" points="432.82,-67.14 443.36,-65.99 434.41,-60.32 432.82,-67.14"/>
</a>
</g>
</g>
<!-- Node4 -->
<g id="Node000004" class="node">
<title>Node4</title>
<g id="a_Node000004"><a xlink:href="SceneManager_8cpp.html" target="_top" xlink:title=" ">
<polygon fill="white" stroke="#666666" points="492.5,-24.5 299.5,-24.5 299.5,-5.5 492.5,-5.5 492.5,-24.5"/>
<text text-anchor="middle" x="396" y="-12.5" font-family="Helvetica,sans-Serif" font-size="10.00">src/engine/editor/SceneManager.cpp</text>
</a>
</g>
</g>
<!-- Node1&#45;&gt;Node4 -->
<g id="edge3_Node000001_Node000004" class="edge">
<title>Node1&#45;&gt;Node4</title>
<g id="a_edge3_Node000001_Node000004"><a xlink:title=" ">
<path fill="none" stroke="#63b8ff" d="M458.96,-59.85C443.05,-48.77 421.74,-33.93 408.45,-24.67"/>
<polygon fill="#63b8ff" stroke="#63b8ff" points="457.4,-63.03 467.61,-65.87 461.4,-57.28 457.4,-63.03"/>
</a>
</g>
</g>
<!-- Node5 -->
<g id="Node000005" class="node">
<title>Node5</title>
<g id="a_Node000005"><a xlink:href="Game_8cpp.html" target="_top" xlink:title=" ">
<polygon fill="white" stroke="#666666" points="617,-24.5 511,-24.5 511,-5.5 617,-5.5 617,-24.5"/>
<text text-anchor="middle" x="564" y="-12.5" font-family="Helvetica,sans-Serif" font-size="10.00">src/port/Game.cpp</text>
</a>
</g>
</g>
<!-- Node1&#45;&gt;Node5 -->
<g id="edge4_Node000001_Node000005" class="edge">
<title>Node1&#45;&gt;Node5</title>
<g id="a_edge4_Node000001_Node000005"><a xlink:title=" ">
<path fill="none" stroke="#63b8ff" d="M501.04,-59.85C516.95,-48.77 538.26,-33.93 551.55,-24.67"/>
<polygon fill="#63b8ff" stroke="#63b8ff" points="498.6,-57.28 492.39,-65.87 502.6,-63.03 498.6,-57.28"/>
</a>
</g>
</g>
<!-- Node6 -->
<g id="Node000006" class="node">
<title>Node6</title>
<g id="a_Node000006"><a xlink:href="ContentBrowser_8cpp.html" target="_top" xlink:title=" ">
<polygon fill="white" stroke="#666666" points="801,-24.5 635,-24.5 635,-5.5 801,-5.5 801,-24.5"/>
<text text-anchor="middle" x="718" y="-12.5" font-family="Helvetica,sans-Serif" font-size="10.00">src/port/ui/ContentBrowser.cpp</text>
</a>
</g>
</g>
<!-- Node1&#45;&gt;Node6 -->
<g id="edge5_Node000001_Node000006" class="edge">
<title>Node1&#45;&gt;Node6</title>
<g id="a_edge5_Node000001_Node000006"><a xlink:title=" ">
<path fill="none" stroke="#63b8ff" d="M524.6,-63.54C570.6,-52.23 641.38,-34.83 683.35,-24.52"/>
<polygon fill="#63b8ff" stroke="#63b8ff" points="523.48,-60.21 514.61,-65.99 525.15,-67.01 523.48,-60.21"/>
</a>
</g>
</g>
<!-- Node7 -->
<g id="Node000007" class="node">
<title>Node7</title>
<g id="a_Node000007"><a xlink:href="Tools_8cpp.html" target="_top" xlink:title=" ">
<polygon fill="white" stroke="#666666" points="932.5,-24.5 819.5,-24.5 819.5,-5.5 932.5,-5.5 932.5,-24.5"/>
<text text-anchor="middle" x="876" y="-12.5" font-family="Helvetica,sans-Serif" font-size="10.00">src/port/ui/Tools.cpp</text>
</a>
</g>
</g>
<!-- Node1&#45;&gt;Node7 -->
<g id="edge6_Node000001_Node000007" class="edge">
<title>Node1&#45;&gt;Node7</title>
<g id="a_edge6_Node000001_Node000007"><a xlink:title=" ">
<path fill="none" stroke="#63b8ff" d="M565.34,-64.77C632.12,-56.73 727.24,-44.34 810,-30 819.12,-28.42 828.89,-26.48 838.05,-24.56"/>
<polygon fill="#63b8ff" stroke="#63b8ff" points="564.79,-61.31 555.28,-65.98 565.62,-68.27 564.79,-61.31"/>
</a>
</g>
</g>
</g>
</svg>
