<?xml version="1.0" encoding="UTF-8" standalone="no"?>
<!DOCTYPE svg PUBLIC "-//W3C//DTD SVG 1.1//EN"
 "http://www.w3.org/Graphics/SVG/1.1/DTD/svg11.dtd">
<!-- Generated by graphviz version 2.43.0 (0)
 -->
<!-- Title: src/engine/editor/SceneManager.h Pages: 1 -->
<svg width="1019pt" height="357pt"
 viewBox="0.00 0.00 1018.66 357.00" xmlns="http://www.w3.org/2000/svg" xmlns:xlink="http://www.w3.org/1999/xlink">
<g id="graph0" class="graph" transform="scale(1 1) rotate(0) translate(4 353)">
<title>src/engine/editor/SceneManager.h</title>
<!-- Node1 -->
<g id="Node000001" class="node">
<title>Node1</title>
<g id="a_Node000001"><a xlink:title=" ">
<polygon fill="#999999" stroke="#666666" points="623.5,-349 441.5,-349 441.5,-330 623.5,-330 623.5,-349"/>
<text text-anchor="middle" x="532.5" y="-337" font-family="Helvetica,sans-Serif" font-size="10.00">src/engine/editor/SceneManager.h</text>
</a>
</g>
</g>
<!-- Node2 -->
<g id="Node000002" class="node">
<title>Node2</title>
<g id="a_Node000002"><a xlink:title=" ">
<polygon fill="#e0e0e0" stroke="#999999" points="296.5,-239 158.5,-239 158.5,-220 296.5,-220 296.5,-239"/>
<text text-anchor="middle" x="227.5" y="-227" font-family="Helvetica,sans-Serif" font-size="10.00">libultraship/libultraship.h</text>
</a>
</g>
</g>
<!-- Node1&#45;&gt;Node2 -->
<g id="edge1_Node000001_Node000002" class="edge">
<title>Node1&#45;&gt;Node2</title>
<g id="a_edge1_Node000001_Node000002"><a xlink:title=" ">
<path fill="none" stroke="#63b8ff" d="M508.32,-329.94C454.26,-310.79 323.55,-264.51 261.41,-242.51"/>
<polygon fill="#63b8ff" stroke="#63b8ff" points="262.29,-239.1 251.69,-239.07 259.95,-245.7 262.29,-239.1"/>
</a>
</g>
</g>
<!-- Node3 -->
<g id="Node000003" class="node">
<title>Node3</title>
<g id="a_Node000003"><a xlink:href="CoreMath_8h.html" target="_top" xlink:title=" ">
<polygon fill="white" stroke="#666666" points="388,-239 315,-239 315,-220 388,-220 388,-239"/>
<text text-anchor="middle" x="351.5" y="-227" font-family="Helvetica,sans-Serif" font-size="10.00">CoreMath.h</text>
</a>
</g>
</g>
<!-- Node1&#45;&gt;Node3 -->
<g id="edge2_Node000001_Node000003" class="edge">
<title>Node1&#45;&gt;Node3</title>
<g id="a_edge2_Node000001_Node000003"><a xlink:title=" ">
<path fill="none" stroke="#63b8ff" d="M517.39,-329.91C501.82,-321.02 476.87,-306.7 455.5,-294 427.14,-277.15 394.75,-257.27 373.76,-244.3"/>
<polygon fill="#63b8ff" stroke="#63b8ff" points="375.58,-241.31 365.23,-239.03 371.9,-247.27 375.58,-241.31"/>
</a>
</g>
</g>
<!-- Node5 -->
<g id="Node000005" class="node">
<title>Node5</title>
<g id="a_Node000005"><a xlink:href="Course_8h.html" target="_top" xlink:title=" ">
<polygon fill="white" stroke="#666666" points="600.5,-294 464.5,-294 464.5,-275 600.5,-275 600.5,-294"/>
<text text-anchor="middle" x="532.5" y="-282" font-family="Helvetica,sans-Serif" font-size="10.00">engine/courses/Course.h</text>
</a>
</g>
</g>
<!-- Node1&#45;&gt;Node5 -->
<g id="edge4_Node000001_Node000005" class="edge">
<title>Node1&#45;&gt;Node5</title>
<g id="a_edge4_Node000001_Node000005"><a xlink:title=" ">
<path fill="none" stroke="#63b8ff" d="M532.5,-329.75C532.5,-322.8 532.5,-312.85 532.5,-304.13"/>
<polygon fill="#63b8ff" stroke="#63b8ff" points="536,-304.09 532.5,-294.09 529,-304.09 536,-304.09"/>
</a>
</g>
</g>
<!-- Node25 -->
<g id="Node000025" class="node">
<title>Node25</title>
<g id="a_Node000025"><a xlink:title=" ">
<polygon fill="#e0e0e0" stroke="#999999" points="674.5,-294 618.5,-294 618.5,-275 674.5,-275 674.5,-294"/>
<text text-anchor="middle" x="646.5" y="-282" font-family="Helvetica,sans-Serif" font-size="10.00">optional</text>
</a>
</g>
</g>
<!-- Node1&#45;&gt;Node25 -->
<g id="edge49_Node000001_Node000025" class="edge">
<title>Node1&#45;&gt;Node25</title>
<g id="a_edge49_Node000001_Node000025"><a xlink:title=" ">
<path fill="none" stroke="#63b8ff" d="M550.82,-329.98C569.16,-321.46 597.61,-308.23 618.73,-298.41"/>
<polygon fill="#63b8ff" stroke="#63b8ff" points="620.26,-301.56 627.85,-294.17 617.31,-295.21 620.26,-301.56"/>
</a>
</g>
</g>
<!-- Node26 -->
<g id="Node000026" class="node">
<title>Node26</title>
<g id="a_Node000026"><a xlink:title=" ">
<polygon fill="#e0e0e0" stroke="#999999" points="802.5,-294 692.5,-294 692.5,-275 802.5,-275 802.5,-294"/>
<text text-anchor="middle" x="747.5" y="-282" font-family="Helvetica,sans-Serif" font-size="10.00">nlohmann/json.hpp</text>
</a>
</g>
</g>
<!-- Node1&#45;&gt;Node26 -->
<g id="edge50_Node000001_Node000026" class="edge">
<title>Node1&#45;&gt;Node26</title>
<g id="a_edge50_Node000001_Node000026"><a xlink:title=" ">
<path fill="none" stroke="#63b8ff" d="M567.05,-329.98C603.92,-320.89 662.49,-306.46 702.85,-296.51"/>
<polygon fill="#63b8ff" stroke="#63b8ff" points="703.82,-299.87 712.69,-294.08 702.14,-293.08 703.82,-299.87"/>
</a>
</g>
</g>
<!-- Node4 -->
<g id="Node000004" class="node">
<title>Node4</title>
<g id="a_Node000004"><a xlink:title=" ">
<polygon fill="#e0e0e0" stroke="#999999" points="381.5,-19 301.5,-19 301.5,0 381.5,0 381.5,-19"/>
<text text-anchor="middle" x="341.5" y="-7" font-family="Helvetica,sans-Serif" font-size="10.00">libultraship.h</text>
</a>
</g>
</g>
<!-- Node3&#45;&gt;Node4 -->
<g id="edge3_Node000003_Node000004" class="edge">
<title>Node3&#45;&gt;Node4</title>
<g id="a_edge3_Node000003_Node000004"><a xlink:title=" ">
<path fill="none" stroke="#63b8ff" d="M314.87,-221.57C311.71,-221.02 308.55,-220.49 305.5,-220 246.82,-210.6 79.6,-228.76 40.5,-184 4.72,-143.03 -51.4,-165.07 100.5,-55 130.22,-33.47 229.34,-20.75 290.82,-14.74"/>
<polygon fill="#63b8ff" stroke="#63b8ff" points="291.46,-18.19 301.09,-13.76 290.8,-11.23 291.46,-18.19"/>
</a>
</g>
</g>
<!-- Node5&#45;&gt;Node2 -->
<g id="edge5_Node000005_Node000002" class="edge">
<title>Node5&#45;&gt;Node2</title>
<g id="a_edge5_Node000005_Node000002"><a xlink:title=" ">
<path fill="none" stroke="#63b8ff" d="M483.5,-274.98C429.89,-265.67 343.96,-250.74 286.64,-240.78"/>
<polygon fill="#63b8ff" stroke="#63b8ff" points="287.09,-237.3 276.64,-239.04 285.89,-244.2 287.09,-237.3"/>
</a>
</g>
</g>
<!-- Node5&#45;&gt;Node3 -->
<g id="edge6_Node000005_Node000003" class="edge">
<title>Node5&#45;&gt;Node3</title>
<g id="a_edge6_Node000005_Node000003"><a xlink:title=" ">
<path fill="none" stroke="#63b8ff" d="M503.42,-274.98C472.9,-266.05 424.74,-251.94 390.84,-242.02"/>
<polygon fill="#63b8ff" stroke="#63b8ff" points="391.39,-238.53 380.81,-239.08 389.43,-245.25 391.39,-238.53"/>
</a>
</g>
</g>
<!-- Node6 -->
<g id="Node000006" class="node">
<title>Node6</title>
<g id="a_Node000006"><a xlink:href="camera_8h.html" target="_top" xlink:title=" ">
<polygon fill="white" stroke="#666666" points="1004.5,-129 942.5,-129 942.5,-110 1004.5,-110 1004.5,-129"/>
<text text-anchor="middle" x="973.5" y="-117" font-family="Helvetica,sans-Serif" font-size="10.00">camera.h</text>
</a>
</g>
</g>
<!-- Node5&#45;&gt;Node6 -->
<g id="edge7_Node000005_Node000006" class="edge">
<title>Node5&#45;&gt;Node6</title>
<g id="a_edge7_Node000005_Node000006"><a xlink:title=" ">
<path fill="none" stroke="#63b8ff" d="M600.52,-275.93C603.55,-275.61 606.56,-275.3 609.5,-275 652.69,-270.62 969.26,-271.08 998.5,-239 1024.13,-210.89 1001.06,-163.34 985.31,-137.86"/>
<polygon fill="#63b8ff" stroke="#63b8ff" points="988.12,-135.76 979.76,-129.26 982.24,-139.56 988.12,-135.76"/>
</a>
</g>
</g>
<!-- Node7 -->
<g id="Node000007" class="node">
<title>Node7</title>
<g id="a_Node000007"><a xlink:href="common__structs_8h.html" target="_top" xlink:title=" ">
<polygon fill="white" stroke="#666666" points="794,-74 687,-74 687,-55 794,-55 794,-74"/>
<text text-anchor="middle" x="740.5" y="-62" font-family="Helvetica,sans-Serif" font-size="10.00">common_structs.h</text>
</a>
</g>
</g>
<!-- Node5&#45;&gt;Node7 -->
<g id="edge48_Node000005_Node000007" class="edge">
<title>Node5&#45;&gt;Node7</title>
<g id="a_edge48_Node000005_Node000007"><a xlink:title=" ">
<path fill="none" stroke="#63b8ff" d="M600.6,-275.2C690.5,-264.06 838.72,-244.99 849.5,-239 877.36,-223.53 884.63,-213.95 895.5,-184 915.65,-128.51 836.54,-93.66 783.97,-77.06"/>
<polygon fill="#63b8ff" stroke="#63b8ff" points="784.76,-73.64 774.17,-74.07 782.72,-80.33 784.76,-73.64"/>
</a>
</g>
</g>
<!-- Node8 -->
<g id="Node000008" class="node">
<title>Node8</title>
<g id="a_Node000008"><a xlink:href="course__offsets_8h.html" target="_top" xlink:title=" ">
<polygon fill="white" stroke="#666666" points="145.5,-184 49.5,-184 49.5,-165 145.5,-165 145.5,-184"/>
<text text-anchor="middle" x="97.5" y="-172" font-family="Helvetica,sans-Serif" font-size="10.00">course_offsets.h</text>
</a>
</g>
</g>
<!-- Node5&#45;&gt;Node8 -->
<g id="edge11_Node000005_Node000008" class="edge">
<title>Node5&#45;&gt;Node8</title>
<g id="a_edge11_Node000005_Node000008"><a xlink:title=" ">
<path fill="none" stroke="#63b8ff" d="M527.54,-274.69C518.98,-260.43 499.99,-232.64 475.5,-220 349.89,-155.18 299.76,-201.6 159.5,-184 158.23,-183.84 156.94,-183.68 155.64,-183.51"/>
<polygon fill="#63b8ff" stroke="#63b8ff" points="155.92,-180.02 145.55,-182.2 155.02,-186.96 155.92,-180.02"/>
</a>
</g>
</g>
<!-- Node14 -->
<g id="Node000014" class="node">
<title>Node14</title>
<g id="a_Node000014"><a xlink:href="src_2data_2some__data_8h.html" target="_top" xlink:title=" ">
<polygon fill="white" stroke="#666666" points="664.5,-239 560.5,-239 560.5,-220 664.5,-220 664.5,-239"/>
<text text-anchor="middle" x="612.5" y="-227" font-family="Helvetica,sans-Serif" font-size="10.00">data/some_data.h</text>
</a>
</g>
</g>
<!-- Node5&#45;&gt;Node14 -->
<g id="edge20_Node000005_Node000014" class="edge">
<title>Node5&#45;&gt;Node14</title>
<g id="a_edge20_Node000005_Node000014"><a xlink:title=" ">
<path fill="none" stroke="#63b8ff" d="M545.36,-274.98C557.65,-266.84 576.41,-254.41 590.98,-244.76"/>
<polygon fill="#63b8ff" stroke="#63b8ff" points="593.01,-247.61 599.42,-239.17 589.15,-241.78 593.01,-247.61"/>
</a>
</g>
</g>
<!-- Node17 -->
<g id="Node000017" class="node">
<title>Node17</title>
<g id="a_Node000017"><a xlink:href="defines_8h.html" target="_top" xlink:title=" ">
<polygon fill="white" stroke="#666666" points="990,-239 929,-239 929,-220 990,-220 990,-239"/>
<text text-anchor="middle" x="959.5" y="-227" font-family="Helvetica,sans-Serif" font-size="10.00">defines.h</text>
</a>
</g>
</g>
<!-- Node5&#45;&gt;Node17 -->
<g id="edge28_Node000005_Node000017" class="edge">
<title>Node5&#45;&gt;Node17</title>
<g id="a_edge28_Node000005_Node000017"><a xlink:title=" ">
<path fill="none" stroke="#63b8ff" d="M600.61,-275.83C702.08,-264.37 884.31,-243.6 914.5,-239 915.79,-238.8 917.09,-238.6 918.4,-238.39"/>
<polygon fill="#63b8ff" stroke="#63b8ff" points="919.3,-241.78 928.57,-236.64 918.12,-234.88 919.3,-241.78"/>
</a>
</g>
</g>
<!-- Node18 -->
<g id="Node000018" class="node">
<title>Node18</title>
<g id="a_Node000018"><a xlink:href="bomb__kart_8h.html" target="_top" xlink:title=" ">
<polygon fill="white" stroke="#666666" points="560,-184 483,-184 483,-165 560,-165 560,-184"/>
<text text-anchor="middle" x="521.5" y="-172" font-family="Helvetica,sans-Serif" font-size="10.00">bomb_kart.h</text>
</a>
</g>
</g>
<!-- Node5&#45;&gt;Node18 -->
<g id="edge29_Node000005_Node000018" class="edge">
<title>Node5&#45;&gt;Node18</title>
<g id="a_edge29_Node000005_Node000018"><a xlink:title=" ">
<path fill="none" stroke="#63b8ff" d="M531.6,-274.66C529.82,-257.17 525.81,-217.8 523.42,-194.27"/>
<polygon fill="#63b8ff" stroke="#63b8ff" points="526.88,-193.75 522.39,-184.16 519.92,-194.46 526.88,-193.75"/>
</a>
</g>
</g>
<!-- Node21 -->
<g id="Node000021" class="node">
<title>Node21</title>
<g id="a_Node000021"><a xlink:href="path__spawn__metadata_8h.html" target="_top" xlink:title=" ">
<polygon fill="white" stroke="#666666" points="820,-239 683,-239 683,-220 820,-220 820,-239"/>
<text text-anchor="middle" x="751.5" y="-227" font-family="Helvetica,sans-Serif" font-size="10.00">path_spawn_metadata.h</text>
</a>
</g>
</g>
<!-- Node5&#45;&gt;Node21 -->
<g id="edge36_Node000005_Node000021" class="edge">
<title>Node5&#45;&gt;Node21</title>
<g id="a_edge36_Node000005_Node000021"><a xlink:title=" ">
<path fill="none" stroke="#63b8ff" d="M567.69,-274.98C605.33,-265.87 665.16,-251.4 706.28,-241.45"/>
<polygon fill="#63b8ff" stroke="#63b8ff" points="707.15,-244.84 716.04,-239.08 705.5,-238.03 707.15,-244.84"/>
</a>
</g>
</g>
<!-- Node22 -->
<g id="Node000022" class="node">
<title>Node22</title>
<g id="a_Node000022"><a xlink:href="waypoints_8h.html" target="_top" xlink:title=" ">
<polygon fill="white" stroke="#666666" points="886.5,-184 810.5,-184 810.5,-165 886.5,-165 886.5,-184"/>
<text text-anchor="middle" x="848.5" y="-172" font-family="Helvetica,sans-Serif" font-size="10.00">waypoints.h</text>
</a>
</g>
</g>
<!-- Node5&#45;&gt;Node22 -->
<g id="edge46_Node000005_Node000022" class="edge">
<title>Node5&#45;&gt;Node22</title>
<g id="a_edge46_Node000005_Node000022"><a xlink:title=" ">
<path fill="none" stroke="#63b8ff" d="M600.78,-275.08C685.49,-264.37 819.89,-246.37 828.5,-239 841.4,-227.98 846.08,-208.72 847.73,-194.3"/>
<polygon fill="#63b8ff" stroke="#63b8ff" points="851.24,-194.25 848.5,-184.01 844.26,-193.72 851.24,-194.25"/>
</a>
</g>
</g>
<!-- Node24 -->
<g id="Node000024" class="node">
<title>Node24</title>
<g id="a_Node000024"><a xlink:href="sounds_8h.html" target="_top" xlink:title=" ">
<polygon fill="white" stroke="#666666" points="466.5,-239 406.5,-239 406.5,-220 466.5,-220 466.5,-239"/>
<text text-anchor="middle" x="436.5" y="-227" font-family="Helvetica,sans-Serif" font-size="10.00">sounds.h</text>
</a>
</g>
</g>
<!-- Node5&#45;&gt;Node24 -->
<g id="edge47_Node000005_Node000024" class="edge">
<title>Node5&#45;&gt;Node24</title>
<g id="a_edge47_Node000005_Node000024"><a xlink:title=" ">
<path fill="none" stroke="#63b8ff" d="M517.08,-274.98C502.05,-266.69 478.96,-253.94 461.35,-244.22"/>
<polygon fill="#63b8ff" stroke="#63b8ff" points="462.65,-240.94 452.21,-239.17 459.27,-247.07 462.65,-240.94"/>
</a>
</g>
</g>
<!-- Node6&#45;&gt;Node4 -->
<g id="edge8_Node000006_Node000004" class="edge">
<title>Node6&#45;&gt;Node4</title>
<g id="a_edge8_Node000006_Node000004"><a xlink:title=" ">
<path fill="none" stroke="#63b8ff" d="M955.02,-109.81C924.17,-95.74 859.91,-68.19 802.5,-55 655.81,-21.29 477.16,-13.08 391.72,-11.11"/>
<polygon fill="#63b8ff" stroke="#63b8ff" points="391.6,-7.61 381.52,-10.89 391.45,-14.6 391.6,-7.61"/>
</a>
</g>
</g>
<!-- Node6&#45;&gt;Node7 -->
<g id="edge9_Node000006_Node000007" class="edge">
<title>Node6&#45;&gt;Node7</title>
<g id="a_edge9_Node000006_Node000007"><a xlink:title=" ">
<path fill="none" stroke="#63b8ff" d="M942.08,-111.35C902.47,-102.34 834.01,-86.77 788,-76.3"/>
<polygon fill="#63b8ff" stroke="#63b8ff" points="788.49,-72.83 777.96,-74.02 786.94,-79.65 788.49,-72.83"/>
</a>
</g>
</g>
<!-- Node7&#45;&gt;Node4 -->
<g id="edge10_Node000007_Node000004" class="edge">
<title>Node7&#45;&gt;Node4</title>
<g id="a_edge10_Node000007_Node000004"><a xlink:title=" ">
<path fill="none" stroke="#63b8ff" d="M686.69,-56.35C609.19,-46.06 467.18,-27.19 391.72,-17.17"/>
<polygon fill="#63b8ff" stroke="#63b8ff" points="391.91,-13.66 381.53,-15.82 390.98,-20.6 391.91,-13.66"/>
</a>
</g>
</g>
<!-- Node8&#45;&gt;Node4 -->
<g id="edge12_Node000008_Node000004" class="edge">
<title>Node8&#45;&gt;Node4</title>
<g id="a_edge12_Node000008_Node000004"><a xlink:title=" ">
<path fill="none" stroke="#63b8ff" d="M95.93,-164.93C92.51,-143.24 86.85,-85.75 116.5,-55 140.1,-30.53 232.32,-18.91 291.12,-13.88"/>
<polygon fill="#63b8ff" stroke="#63b8ff" points="291.64,-17.35 301.32,-13.04 291.07,-10.37 291.64,-17.35"/>
</a>
</g>
</g>
<!-- Node9 -->
<g id="Node000009" class="node">
<title>Node9</title>
<g id="a_Node000009"><a xlink:title=" ">
<polygon fill="#e0e0e0" stroke="#999999" points="175.5,-19 85.5,-19 85.5,0 175.5,0 175.5,-19"/>
<text text-anchor="middle" x="130.5" y="-7" font-family="Helvetica,sans-Serif" font-size="10.00">libultra/types.h</text>
</a>
</g>
</g>
<!-- Node8&#45;&gt;Node9 -->
<g id="edge13_Node000008_Node000009" class="edge">
<title>Node8&#45;&gt;Node9</title>
<g id="a_edge13_Node000008_Node000009"><a xlink:title=" ">
<path fill="none" stroke="#63b8ff" d="M93.56,-164.74C85.06,-144.49 67.04,-93.25 83.5,-55 88.66,-43.03 98.79,-32.76 108.33,-25.12"/>
<polygon fill="#63b8ff" stroke="#63b8ff" points="110.49,-27.88 116.43,-19.11 106.32,-22.26 110.49,-27.88"/>
</a>
</g>
</g>
<!-- Node10 -->
<g id="Node000010" class="node">
<title>Node10</title>
<g id="a_Node000010"><a xlink:title=" ">
<polygon fill="#e0e0e0" stroke="#999999" points="203.5,-74 125.5,-74 125.5,-55 203.5,-55 203.5,-74"/>
<text text-anchor="middle" x="164.5" y="-62" font-family="Helvetica,sans-Serif" font-size="10.00">libultra/gbi.h</text>
</a>
</g>
</g>
<!-- Node8&#45;&gt;Node10 -->
<g id="edge14_Node000008_Node000010" class="edge">
<title>Node8&#45;&gt;Node10</title>
<g id="a_edge14_Node000008_Node000010"><a xlink:title=" ">
<path fill="none" stroke="#63b8ff" d="M102.99,-164.66C114.08,-146.77 139.38,-106 153.84,-82.69"/>
<polygon fill="#63b8ff" stroke="#63b8ff" points="156.83,-84.5 159.13,-74.16 150.89,-80.81 156.83,-84.5"/>
</a>
</g>
</g>
<!-- Node11 -->
<g id="Node000011" class="node">
<title>Node11</title>
<g id="a_Node000011"><a xlink:href="other__textures_8h.html" target="_top" xlink:title=" ">
<polygon fill="white" stroke="#666666" points="404,-129 273,-129 273,-110 404,-110 404,-129"/>
<text text-anchor="middle" x="338.5" y="-117" font-family="Helvetica,sans-Serif" font-size="10.00">assets/other_textures.h</text>
</a>
</g>
</g>
<!-- Node8&#45;&gt;Node11 -->
<g id="edge15_Node000008_Node000011" class="edge">
<title>Node8&#45;&gt;Node11</title>
<g id="a_edge15_Node000008_Node000011"><a xlink:title=" ">
<path fill="none" stroke="#63b8ff" d="M136.22,-164.98C177.91,-155.82 244.32,-141.21 289.59,-131.26"/>
<polygon fill="#63b8ff" stroke="#63b8ff" points="290.46,-134.65 299.48,-129.08 288.96,-127.81 290.46,-134.65"/>
</a>
</g>
</g>
<!-- Node13 -->
<g id="Node000013" class="node">
<title>Node13</title>
<g id="a_Node000013"><a xlink:href="animation_8h.html" target="_top" xlink:title=" ">
<polygon fill="white" stroke="#666666" points="646,-129 571,-129 571,-110 646,-110 646,-129"/>
<text text-anchor="middle" x="608.5" y="-117" font-family="Helvetica,sans-Serif" font-size="10.00">animation.h</text>
</a>
</g>
</g>
<!-- Node8&#45;&gt;Node13 -->
<g id="edge18_Node000008_Node000013" class="edge">
<title>Node8&#45;&gt;Node13</title>
<g id="a_edge18_Node000008_Node000013"><a xlink:title=" ">
<path fill="none" stroke="#63b8ff" d="M145.75,-170.2C228.43,-164.26 402.7,-150.48 560.47,-129.02"/>
<polygon fill="#63b8ff" stroke="#63b8ff" points="561.41,-132.43 570.84,-127.6 560.45,-125.49 561.41,-132.43"/>
</a>
</g>
</g>
<!-- Node11&#45;&gt;Node4 -->
<g id="edge16_Node000011_Node000004" class="edge">
<title>Node11&#45;&gt;Node4</title>
<g id="a_edge16_Node000011_Node000004"><a xlink:title=" ">
<path fill="none" stroke="#63b8ff" d="M338.75,-109.66C339.23,-92.17 340.33,-52.8 340.98,-29.27"/>
<polygon fill="#63b8ff" stroke="#63b8ff" points="344.48,-29.25 341.26,-19.16 337.49,-29.06 344.48,-29.25"/>
</a>
</g>
</g>
<!-- Node12 -->
<g id="Node000012" class="node">
<title>Node12</title>
<g id="a_Node000012"><a xlink:href="align__asset__macro_8h.html" target="_top" xlink:title=" ">
<polygon fill="white" stroke="#666666" points="487,-74 370,-74 370,-55 487,-55 487,-74"/>
<text text-anchor="middle" x="428.5" y="-62" font-family="Helvetica,sans-Serif" font-size="10.00">align_asset_macro.h</text>
</a>
</g>
</g>
<!-- Node11&#45;&gt;Node12 -->
<g id="edge17_Node000011_Node000012" class="edge">
<title>Node11&#45;&gt;Node12</title>
<g id="a_edge17_Node000011_Node000012"><a xlink:title=" ">
<path fill="none" stroke="#63b8ff" d="M352.96,-109.98C366.92,-101.77 388.3,-89.18 404.75,-79.49"/>
<polygon fill="#63b8ff" stroke="#63b8ff" points="406.94,-82.26 413.78,-74.17 403.39,-76.23 406.94,-82.26"/>
</a>
</g>
</g>
<!-- Node13&#45;&gt;Node7 -->
<g id="edge19_Node000013_Node000007" class="edge">
<title>Node13&#45;&gt;Node7</title>
<g id="a_edge19_Node000013_Node000007"><a xlink:title=" ">
<path fill="none" stroke="#63b8ff" d="M629.71,-109.98C651.23,-101.34 684.79,-87.87 709.33,-78.02"/>
<polygon fill="#63b8ff" stroke="#63b8ff" points="710.93,-81.14 718.91,-74.17 708.33,-74.65 710.93,-81.14"/>
</a>
</g>
</g>
<!-- Node14&#45;&gt;Node10 -->
<g id="edge21_Node000014_Node000010" class="edge">
<title>Node14&#45;&gt;Node10</title>
<g id="a_edge21_Node000014_Node000010"><a xlink:title=" ">
<path fill="none" stroke="#63b8ff" d="M560.36,-222C460.76,-208.66 248.37,-175.49 192.5,-129 178.92,-117.7 171.71,-98.51 168.03,-84.18"/>
<polygon fill="#63b8ff" stroke="#63b8ff" points="171.44,-83.38 165.86,-74.38 164.61,-84.9 171.44,-83.38"/>
</a>
</g>
</g>
<!-- Node14&#45;&gt;Node11 -->
<g id="edge24_Node000014_Node000011" class="edge">
<title>Node14&#45;&gt;Node11</title>
<g id="a_edge24_Node000014_Node000011"><a xlink:title=" ">
<path fill="none" stroke="#63b8ff" d="M609.12,-219.91C603.16,-205.97 589.4,-178.63 568.5,-165 554.78,-156.05 467.22,-140.74 404.2,-130.62"/>
<polygon fill="#63b8ff" stroke="#63b8ff" points="404.74,-127.16 394.31,-129.04 403.63,-134.07 404.74,-127.16"/>
</a>
</g>
</g>
<!-- Node15 -->
<g id="Node000015" class="node">
<title>Node15</title>
<g id="a_Node000015"><a xlink:href="spline_8h.html" target="_top" xlink:title=" ">
<polygon fill="white" stroke="#666666" points="796,-129 741,-129 741,-110 796,-110 796,-129"/>
<text text-anchor="middle" x="768.5" y="-117" font-family="Helvetica,sans-Serif" font-size="10.00">spline.h</text>
</a>
</g>
</g>
<!-- Node14&#45;&gt;Node15 -->
<g id="edge22_Node000014_Node000015" class="edge">
<title>Node14&#45;&gt;Node15</title>
<g id="a_edge22_Node000014_Node000015"><a xlink:title=" ">
<path fill="none" stroke="#63b8ff" d="M648.83,-219.93C672.23,-213.07 702.31,-201.64 724.5,-184 740.05,-171.64 752.33,-152.34 759.92,-138.26"/>
<polygon fill="#63b8ff" stroke="#63b8ff" points="763.17,-139.6 764.6,-129.1 756.94,-136.41 763.17,-139.6"/>
</a>
</g>
</g>
<!-- Node16 -->
<g id="Node000016" class="node">
<title>Node16</title>
<g id="a_Node000016"><a xlink:href="objects_8h.html" target="_top" xlink:title=" ">
<polygon fill="white" stroke="#666666" points="716,-184 655,-184 655,-165 716,-165 716,-184"/>
<text text-anchor="middle" x="685.5" y="-172" font-family="Helvetica,sans-Serif" font-size="10.00">objects.h</text>
</a>
</g>
</g>
<!-- Node14&#45;&gt;Node16 -->
<g id="edge25_Node000014_Node000016" class="edge">
<title>Node14&#45;&gt;Node16</title>
<g id="a_edge25_Node000014_Node000016"><a xlink:title=" ">
<path fill="none" stroke="#63b8ff" d="M624.23,-219.98C635.23,-212 651.92,-199.88 665.11,-190.31"/>
<polygon fill="#63b8ff" stroke="#63b8ff" points="667.53,-192.88 673.56,-184.17 663.41,-187.21 667.53,-192.88"/>
</a>
</g>
</g>
<!-- Node15&#45;&gt;Node7 -->
<g id="edge23_Node000015_Node000007" class="edge">
<title>Node15&#45;&gt;Node7</title>
<g id="a_edge23_Node000015_Node000007"><a xlink:title=" ">
<path fill="none" stroke="#63b8ff" d="M763.88,-109.75C760.05,-102.49 754.48,-91.95 749.74,-82.98"/>
<polygon fill="#63b8ff" stroke="#63b8ff" points="752.81,-81.3 745.04,-74.09 746.62,-84.57 752.81,-81.3"/>
</a>
</g>
</g>
<!-- Node16&#45;&gt;Node7 -->
<g id="edge27_Node000016_Node000007" class="edge">
<title>Node16&#45;&gt;Node7</title>
<g id="a_edge27_Node000016_Node000007"><a xlink:title=" ">
<path fill="none" stroke="#63b8ff" d="M690,-164.66C699.03,-146.93 719.51,-106.73 731.43,-83.32"/>
<polygon fill="#63b8ff" stroke="#63b8ff" points="734.67,-84.66 736.09,-74.16 728.44,-81.48 734.67,-84.66"/>
</a>
</g>
</g>
<!-- Node16&#45;&gt;Node15 -->
<g id="edge26_Node000016_Node000015" class="edge">
<title>Node16&#45;&gt;Node15</title>
<g id="a_edge26_Node000016_Node000015"><a xlink:title=" ">
<path fill="none" stroke="#63b8ff" d="M698.84,-164.98C711.59,-156.84 731.06,-144.41 746.17,-134.76"/>
<polygon fill="#63b8ff" stroke="#63b8ff" points="748.38,-137.5 754.93,-129.17 744.61,-131.6 748.38,-137.5"/>
</a>
</g>
</g>
<!-- Node18&#45;&gt;Node7 -->
<g id="edge30_Node000018_Node000007" class="edge">
<title>Node18&#45;&gt;Node7</title>
<g id="a_edge30_Node000018_Node000007"><a xlink:title=" ">
<path fill="none" stroke="#63b8ff" d="M556.6,-165C584.14,-157.57 622.96,-145.4 654.5,-129 680.3,-115.59 706.74,-94.8 723.37,-80.7"/>
<polygon fill="#63b8ff" stroke="#63b8ff" points="725.83,-83.19 731.11,-74.01 721.26,-77.9 725.83,-83.19"/>
</a>
</g>
</g>
<!-- Node19 -->
<g id="Node000019" class="node">
<title>Node19</title>
<g id="a_Node000019"><a xlink:href="mk64_8h.html" target="_top" xlink:title=" ">
<polygon fill="white" stroke="#666666" points="255,-129 202,-129 202,-110 255,-110 255,-129"/>
<text text-anchor="middle" x="228.5" y="-117" font-family="Helvetica,sans-Serif" font-size="10.00">mk64.h</text>
</a>
</g>
</g>
<!-- Node18&#45;&gt;Node19 -->
<g id="edge31_Node000018_Node000019" class="edge">
<title>Node18&#45;&gt;Node19</title>
<g id="a_edge31_Node000018_Node000019"><a xlink:title=" ">
<path fill="none" stroke="#63b8ff" d="M482.88,-167.67C434.23,-160.15 347.84,-146.18 265.03,-129.21"/>
<polygon fill="#63b8ff" stroke="#63b8ff" points="265.72,-125.78 255.21,-127.18 264.3,-132.64 265.72,-125.78"/>
</a>
</g>
</g>
<!-- Node19&#45;&gt;Node4 -->
<g id="edge32_Node000019_Node000004" class="edge">
<title>Node19&#45;&gt;Node4</title>
<g id="a_edge32_Node000019_Node000004"><a xlink:title=" ">
<path fill="none" stroke="#63b8ff" d="M240.3,-109.78C251.74,-101.14 269.38,-87.31 283.5,-74 299.55,-58.88 316.38,-40.08 327.75,-26.87"/>
<polygon fill="#63b8ff" stroke="#63b8ff" points="330.56,-28.98 334.38,-19.09 325.23,-24.44 330.56,-28.98"/>
</a>
</g>
</g>
<!-- Node19&#45;&gt;Node10 -->
<g id="edge35_Node000019_Node000010" class="edge">
<title>Node19&#45;&gt;Node10</title>
<g id="a_edge35_Node000019_Node000010"><a xlink:title=" ">
<path fill="none" stroke="#63b8ff" d="M218.22,-109.98C208.67,-102.07 194.22,-90.11 182.72,-80.58"/>
<polygon fill="#63b8ff" stroke="#63b8ff" points="184.91,-77.85 174.97,-74.17 180.44,-83.24 184.91,-77.85"/>
</a>
</g>
</g>
<!-- Node20 -->
<g id="Node000020" class="node">
<title>Node20</title>
<g id="a_Node000020"><a xlink:href="string_8h.html" target="_top" xlink:title=" ">
<polygon fill="white" stroke="#666666" points="275,-74 222,-74 222,-55 275,-55 275,-74"/>
<text text-anchor="middle" x="248.5" y="-62" font-family="Helvetica,sans-Serif" font-size="10.00">string.h</text>
</a>
</g>
</g>
<!-- Node19&#45;&gt;Node20 -->
<g id="edge33_Node000019_Node000020" class="edge">
<title>Node19&#45;&gt;Node20</title>
<g id="a_edge33_Node000019_Node000020"><a xlink:title=" ">
<path fill="none" stroke="#63b8ff" d="M231.81,-109.75C234.49,-102.65 238.35,-92.4 241.69,-83.56"/>
<polygon fill="#63b8ff" stroke="#63b8ff" points="245.01,-84.68 245.26,-74.09 238.46,-82.21 245.01,-84.68"/>
</a>
</g>
</g>
<!-- Node20&#45;&gt;Node9 -->
<g id="edge34_Node000020_Node000009" class="edge">
<title>Node20&#45;&gt;Node9</title>
<g id="a_edge34_Node000020_Node000009"><a xlink:title=" ">
<path fill="none" stroke="#63b8ff" d="M229.54,-54.98C210.48,-46.42 180.84,-33.11 158.96,-23.28"/>
<polygon fill="#63b8ff" stroke="#63b8ff" points="160.36,-20.07 149.81,-19.17 157.49,-26.46 160.36,-20.07"/>
</a>
</g>
</g>
<!-- Node21&#45;&gt;Node7 -->
<g id="edge39_Node000021_Node000007" class="edge">
<title>Node21&#45;&gt;Node7</title>
<g id="a_edge39_Node000021_Node000007"><a xlink:title=" ">
<path fill="none" stroke="#63b8ff" d="M757.54,-219.76C773.59,-196.02 815.36,-130.77 804.5,-110 797.39,-96.39 784.01,-86.1 771.32,-78.87"/>
<polygon fill="#63b8ff" stroke="#63b8ff" points="772.78,-75.68 762.29,-74.13 769.52,-81.88 772.78,-75.68"/>
</a>
</g>
</g>
<!-- Node21&#45;&gt;Node18 -->
<g id="edge45_Node000021_Node000018" class="edge">
<title>Node21&#45;&gt;Node18</title>
<g id="a_edge45_Node000021_Node000018"><a xlink:title=" ">
<path fill="none" stroke="#63b8ff" d="M714.55,-219.98C674.93,-210.86 611.92,-196.33 568.73,-186.38"/>
<polygon fill="#63b8ff" stroke="#63b8ff" points="569.28,-182.92 558.75,-184.08 567.7,-189.74 569.28,-182.92"/>
</a>
</g>
</g>
<!-- Node21&#45;&gt;Node22 -->
<g id="edge37_Node000021_Node000022" class="edge">
<title>Node21&#45;&gt;Node22</title>
<g id="a_edge37_Node000021_Node000022"><a xlink:title=" ">
<path fill="none" stroke="#63b8ff" d="M767.09,-219.98C782.27,-211.69 805.6,-198.94 823.4,-189.22"/>
<polygon fill="#63b8ff" stroke="#63b8ff" points="825.54,-192.04 832.63,-184.17 822.18,-185.89 825.54,-192.04"/>
</a>
</g>
</g>
<!-- Node23 -->
<g id="Node000023" class="node">
<title>Node23</title>
<g id="a_Node000023"><a xlink:href="common__data_8h.html" target="_top" xlink:title=" ">
<polygon fill="white" stroke="#666666" points="552.5,-129 422.5,-129 422.5,-110 552.5,-110 552.5,-129"/>
<text text-anchor="middle" x="487.5" y="-117" font-family="Helvetica,sans-Serif" font-size="10.00">assets/common_data.h</text>
</a>
</g>
</g>
<!-- Node21&#45;&gt;Node23 -->
<g id="edge40_Node000021_Node000023" class="edge">
<title>Node21&#45;&gt;Node23</title>
<g id="a_edge40_Node000021_Node000023"><a xlink:title=" ">
<path fill="none" stroke="#63b8ff" d="M730.74,-219.92C709.33,-211.04 675.01,-196.71 645.5,-184 626.31,-175.73 621.81,-172.99 602.5,-165 574.94,-153.58 543.3,-141.41 520.19,-132.68"/>
<polygon fill="#63b8ff" stroke="#63b8ff" points="521.13,-129.3 510.54,-129.05 518.67,-135.85 521.13,-129.3"/>
</a>
</g>
</g>
<!-- Node22&#45;&gt;Node7 -->
<g id="edge38_Node000022_Node000007" class="edge">
<title>Node22&#45;&gt;Node7</title>
<g id="a_edge38_Node000022_Node000007"><a xlink:title=" ">
<path fill="none" stroke="#63b8ff" d="M849.56,-164.7C850.67,-151.44 850.8,-126.17 838.5,-110 826.67,-94.44 808.14,-84.17 790.36,-77.46"/>
<polygon fill="#63b8ff" stroke="#63b8ff" points="791.2,-74.05 780.61,-74.08 788.92,-80.66 791.2,-74.05"/>
</a>
</g>
</g>
<!-- Node23&#45;&gt;Node4 -->
<g id="edge42_Node000023_Node000004" class="edge">
<title>Node23&#45;&gt;Node4</title>
<g id="a_edge42_Node000023_Node000004"><a xlink:title=" ">
<path fill="none" stroke="#63b8ff" d="M492.17,-109.7C498.49,-96.44 507.66,-71.16 495.5,-55 482.86,-38.19 431.44,-25.71 391.45,-18.31"/>
<polygon fill="#63b8ff" stroke="#63b8ff" points="392.02,-14.86 381.56,-16.54 390.79,-21.75 392.02,-14.86"/>
</a>
</g>
</g>
<!-- Node23&#45;&gt;Node7 -->
<g id="edge43_Node000023_Node000007" class="edge">
<title>Node23&#45;&gt;Node7</title>
<g id="a_edge43_Node000023_Node000007"><a xlink:title=" ">
<path fill="none" stroke="#63b8ff" d="M528.15,-109.98C572.01,-100.8 641.93,-86.15 689.45,-76.19"/>
<polygon fill="#63b8ff" stroke="#63b8ff" points="690.47,-79.56 699.54,-74.08 689.03,-72.71 690.47,-79.56"/>
</a>
</g>
</g>
<!-- Node23&#45;&gt;Node10 -->
<g id="edge41_Node000023_Node000010" class="edge">
<title>Node23&#45;&gt;Node10</title>
<g id="a_edge41_Node000023_Node000010"><a xlink:title=" ">
<path fill="none" stroke="#63b8ff" d="M433.46,-110C380.14,-101.55 296.04,-88.09 213.57,-74.16"/>
<polygon fill="#63b8ff" stroke="#63b8ff" points="213.97,-70.68 203.53,-72.46 212.8,-77.58 213.97,-70.68"/>
</a>
</g>
</g>
<!-- Node23&#45;&gt;Node12 -->
<g id="edge44_Node000023_Node000012" class="edge">
<title>Node23&#45;&gt;Node12</title>
<g id="a_edge44_Node000023_Node000012"><a xlink:title=" ">
<path fill="none" stroke="#63b8ff" d="M478.02,-109.98C469.3,-102.15 456.16,-90.34 445.61,-80.86"/>
<polygon fill="#63b8ff" stroke="#63b8ff" points="447.93,-78.25 438.16,-74.17 443.26,-83.46 447.93,-78.25"/>
</a>
</g>
</g>
</g>
</svg>
