<?xml version="1.0" encoding="UTF-8" standalone="no"?>
<!DOCTYPE svg PUBLIC "-//W3C//DTD SVG 1.1//EN"
 "http://www.w3.org/Graphics/SVG/1.1/DTD/svg11.dtd">
<!-- Generated by graphviz version 2.43.0 (0)
 -->
<!-- Title: src/engine/courses/SherbetLand.h Pages: 1 -->
<svg width="1359pt" height="379pt"
 viewBox="0.00 0.00 1359.00 379.00" xmlns="http://www.w3.org/2000/svg" xmlns:xlink="http://www.w3.org/1999/xlink">
<g id="graph0" class="graph" transform="scale(1 1) rotate(0) translate(4 375)">
<title>src/engine/courses/SherbetLand.h</title>
<!-- Node1 -->
<g id="Node000001" class="node">
<title>Node1</title>
<g id="a_Node000001"><a xlink:title=" ">
<polygon fill="#999999" stroke="#666666" points="956.5,-371 849.5,-371 849.5,-341 956.5,-341 956.5,-371"/>
<text text-anchor="start" x="857.5" y="-359" font-family="Helvetica,sans-Serif" font-size="10.00">src/engine/courses</text>
<text text-anchor="middle" x="903" y="-348" font-family="Helvetica,sans-Serif" font-size="10.00">/SherbetLand.h</text>
</a>
</g>
</g>
<!-- Node2 -->
<g id="Node000002" class="node">
<title>Node2</title>
<g id="a_Node000002"><a xlink:title=" ">
<polygon fill="#e0e0e0" stroke="#999999" points="384,-19 304,-19 304,0 384,0 384,-19"/>
<text text-anchor="middle" x="344" y="-7" font-family="Helvetica,sans-Serif" font-size="10.00">libultraship.h</text>
</a>
</g>
</g>
<!-- Node1&#45;&gt;Node2 -->
<g id="edge1_Node000001_Node000002" class="edge">
<title>Node1&#45;&gt;Node2</title>
<g id="a_edge1_Node000001_Node000002"><a xlink:title=" ">
<path fill="none" stroke="#63b8ff" d="M956.59,-352.68C1075.51,-346.06 1351,-322.04 1351,-241.5 1351,-241.5 1351,-241.5 1351,-124 1351,-26.62 597.81,-12.78 394.21,-10.82"/>
<polygon fill="#63b8ff" stroke="#63b8ff" points="394.13,-7.32 384.1,-10.73 394.06,-14.32 394.13,-7.32"/>
</a>
</g>
</g>
<!-- Node3 -->
<g id="Node000003" class="node">
<title>Node3</title>
<g id="a_Node000003"><a xlink:href="Course_8h.html" target="_top" xlink:title=" ">
<polygon fill="white" stroke="#666666" points="865.5,-305 806.5,-305 806.5,-286 865.5,-286 865.5,-305"/>
<text text-anchor="middle" x="836" y="-293" font-family="Helvetica,sans-Serif" font-size="10.00">Course.h</text>
</a>
</g>
</g>
<!-- Node1&#45;&gt;Node3 -->
<g id="edge2_Node000001_Node000003" class="edge">
<title>Node1&#45;&gt;Node3</title>
<g id="a_edge2_Node000001_Node000003"><a xlink:title=" ">
<path fill="none" stroke="#63b8ff" d="M886.78,-340.84C876.76,-332.09 863.89,-320.85 853.62,-311.88"/>
<polygon fill="#63b8ff" stroke="#63b8ff" points="855.87,-309.21 846.04,-305.27 851.27,-314.48 855.87,-309.21"/>
</a>
</g>
</g>
<!-- Node6 -->
<g id="Node000006" class="node">
<title>Node6</title>
<g id="a_Node000006"><a xlink:href="camera_8h.html" target="_top" xlink:title=" ">
<polygon fill="white" stroke="#666666" points="548,-195 486,-195 486,-176 548,-176 548,-195"/>
<text text-anchor="middle" x="517" y="-183" font-family="Helvetica,sans-Serif" font-size="10.00">camera.h</text>
</a>
</g>
</g>
<!-- Node1&#45;&gt;Node6 -->
<g id="edge61_Node000001_Node000006" class="edge">
<title>Node1&#45;&gt;Node6</title>
<g id="a_edge61_Node000001_Node000006"><a xlink:title=" ">
<path fill="none" stroke="#63b8ff" d="M849.15,-348.37C752.83,-335.29 557.33,-302.76 517,-250 507.39,-237.42 508.56,-218.97 511.44,-205.2"/>
<polygon fill="#63b8ff" stroke="#63b8ff" points="514.87,-205.91 513.95,-195.35 508.09,-204.18 514.87,-205.91"/>
</a>
</g>
</g>
<!-- Node8 -->
<g id="Node000008" class="node">
<title>Node8</title>
<g id="a_Node000008"><a xlink:href="course__offsets_8h.html" target="_top" xlink:title=" ">
<polygon fill="white" stroke="#666666" points="468,-195 372,-195 372,-176 468,-176 468,-195"/>
<text text-anchor="middle" x="420" y="-183" font-family="Helvetica,sans-Serif" font-size="10.00">course_offsets.h</text>
</a>
</g>
</g>
<!-- Node1&#45;&gt;Node8 -->
<g id="edge60_Node000001_Node000008" class="edge">
<title>Node1&#45;&gt;Node8</title>
<g id="a_edge60_Node000001_Node000008"><a xlink:title=" ">
<path fill="none" stroke="#63b8ff" d="M849.25,-352.93C782.71,-349 666.71,-337.65 573,-305 526.57,-288.82 515.24,-280.91 477,-250 459.8,-236.1 443.27,-216.81 432.49,-203.15"/>
<polygon fill="#63b8ff" stroke="#63b8ff" points="435.16,-200.88 426.28,-195.1 429.61,-205.16 435.16,-200.88"/>
</a>
</g>
</g>
<!-- Node14 -->
<g id="Node000014" class="node">
<title>Node14</title>
<g id="a_Node000014"><a xlink:href="src_2data_2some__data_8h.html" target="_top" xlink:title=" ">
<polygon fill="white" stroke="#666666" points="1268,-250 1164,-250 1164,-231 1268,-231 1268,-250"/>
<text text-anchor="middle" x="1216" y="-238" font-family="Helvetica,sans-Serif" font-size="10.00">data/some_data.h</text>
</a>
</g>
</g>
<!-- Node1&#45;&gt;Node14 -->
<g id="edge62_Node000001_Node000014" class="edge">
<title>Node1&#45;&gt;Node14</title>
<g id="a_edge62_Node000001_Node000014"><a xlink:title=" ">
<path fill="none" stroke="#63b8ff" d="M941.69,-340.97C1003.7,-318.49 1124.25,-274.77 1182.67,-253.59"/>
<polygon fill="#63b8ff" stroke="#63b8ff" points="1183.95,-256.84 1192.16,-250.14 1181.57,-250.26 1183.95,-256.84"/>
</a>
</g>
</g>
<!-- Node16 -->
<g id="Node000016" class="node">
<title>Node16</title>
<g id="a_Node000016"><a xlink:href="objects_8h.html" target="_top" xlink:title=" ">
<polygon fill="white" stroke="#666666" points="1322.5,-195 1261.5,-195 1261.5,-176 1322.5,-176 1322.5,-195"/>
<text text-anchor="middle" x="1292" y="-183" font-family="Helvetica,sans-Serif" font-size="10.00">objects.h</text>
</a>
</g>
</g>
<!-- Node1&#45;&gt;Node16 -->
<g id="edge63_Node000001_Node000016" class="edge">
<title>Node1&#45;&gt;Node16</title>
<g id="a_edge63_Node000001_Node000016"><a xlink:title=" ">
<path fill="none" stroke="#63b8ff" d="M956.65,-346.77C1049.1,-331.51 1232.8,-296.14 1277,-250 1288.38,-238.12 1291.67,-219.29 1292.4,-205.22"/>
<polygon fill="#63b8ff" stroke="#63b8ff" points="1295.9,-205.22 1292.53,-195.17 1288.9,-205.12 1295.9,-205.22"/>
</a>
</g>
</g>
<!-- Node21 -->
<g id="Node000021" class="node">
<title>Node21</title>
<g id="a_Node000021"><a xlink:href="path__spawn__metadata_8h.html" target="_top" xlink:title=" ">
<polygon fill="white" stroke="#666666" points="1107.5,-250 970.5,-250 970.5,-231 1107.5,-231 1107.5,-250"/>
<text text-anchor="middle" x="1039" y="-238" font-family="Helvetica,sans-Serif" font-size="10.00">path_spawn_metadata.h</text>
</a>
</g>
</g>
<!-- Node1&#45;&gt;Node21 -->
<g id="edge64_Node000001_Node000021" class="edge">
<title>Node1&#45;&gt;Node21</title>
<g id="a_edge64_Node000001_Node000021"><a xlink:title=" ">
<path fill="none" stroke="#63b8ff" d="M919.95,-340.85C945.65,-319.41 994.28,-278.82 1020.74,-256.74"/>
<polygon fill="#63b8ff" stroke="#63b8ff" points="1023.06,-259.37 1028.49,-250.27 1018.57,-253.99 1023.06,-259.37"/>
</a>
</g>
</g>
<!-- Node25 -->
<g id="Node000025" class="node">
<title>Node25</title>
<g id="a_Node000025"><a xlink:href="sherbet__land__vertices_8h.html" target="_top" xlink:title=" ">
<polygon fill="white" stroke="#666666" points="269,-140 155,-140 155,-110 269,-110 269,-140"/>
<text text-anchor="start" x="163" y="-128" font-family="Helvetica,sans-Serif" font-size="10.00">assets/sherbet_land</text>
<text text-anchor="middle" x="212" y="-117" font-family="Helvetica,sans-Serif" font-size="10.00">_vertices.h</text>
</a>
</g>
</g>
<!-- Node1&#45;&gt;Node25 -->
<g id="edge48_Node000001_Node000025" class="edge">
<title>Node1&#45;&gt;Node25</title>
<g id="a_edge48_Node000001_Node000025"><a xlink:title=" ">
<path fill="none" stroke="#63b8ff" d="M849.31,-351.85C749.87,-345.5 541.01,-329.65 473,-305 373.76,-269.03 276.48,-186.24 234.11,-147.16"/>
<polygon fill="#63b8ff" stroke="#63b8ff" points="236.31,-144.43 226.61,-140.17 231.54,-149.55 236.31,-144.43"/>
</a>
</g>
</g>
<!-- Node26 -->
<g id="Node000026" class="node">
<title>Node26</title>
<g id="a_Node000026"><a xlink:href="sherbet__land__displaylists_8h.html" target="_top" xlink:title=" ">
<polygon fill="white" stroke="#666666" points="401,-140 287,-140 287,-110 401,-110 401,-140"/>
<text text-anchor="start" x="295" y="-128" font-family="Helvetica,sans-Serif" font-size="10.00">assets/sherbet_land</text>
<text text-anchor="middle" x="344" y="-117" font-family="Helvetica,sans-Serif" font-size="10.00">_displaylists.h</text>
</a>
</g>
</g>
<!-- Node1&#45;&gt;Node26 -->
<g id="edge52_Node000001_Node000026" class="edge">
<title>Node1&#45;&gt;Node26</title>
<g id="a_edge52_Node000001_Node000026"><a xlink:title=" ">
<path fill="none" stroke="#63b8ff" d="M849.46,-355.73C774.1,-355.04 633.57,-347.45 523,-305 442.44,-274.07 413.04,-265.3 363,-195 353.64,-181.85 348.89,-164.28 346.48,-150.16"/>
<polygon fill="#63b8ff" stroke="#63b8ff" points="349.93,-149.58 345.05,-140.17 343,-150.56 349.93,-149.58"/>
</a>
</g>
</g>
<!-- Node27 -->
<g id="Node000027" class="node">
<title>Node27</title>
<g id="a_Node000027"><a xlink:href="sherbet__land__data_8h.html" target="_top" xlink:title=" ">
<polygon fill="white" stroke="#666666" points="609,-140 495,-140 495,-110 609,-110 609,-140"/>
<text text-anchor="start" x="503" y="-128" font-family="Helvetica,sans-Serif" font-size="10.00">assets/sherbet_land</text>
<text text-anchor="middle" x="552" y="-117" font-family="Helvetica,sans-Serif" font-size="10.00">_data.h</text>
</a>
</g>
</g>
<!-- Node1&#45;&gt;Node27 -->
<g id="edge56_Node000001_Node000027" class="edge">
<title>Node1&#45;&gt;Node27</title>
<g id="a_edge56_Node000001_Node000027"><a xlink:title=" ">
<path fill="none" stroke="#63b8ff" d="M906.73,-340.77C914.64,-307.01 928.96,-221.47 885,-176 845.34,-134.97 692.32,-148.73 619.35,-139.88"/>
<polygon fill="#63b8ff" stroke="#63b8ff" points="619.59,-136.38 609.19,-138.4 618.58,-143.31 619.59,-136.38"/>
</a>
</g>
</g>
<!-- Node4 -->
<g id="Node000004" class="node">
<title>Node4</title>
<g id="a_Node000004"><a xlink:title=" ">
<polygon fill="#e0e0e0" stroke="#999999" points="758,-250 620,-250 620,-231 758,-231 758,-250"/>
<text text-anchor="middle" x="689" y="-238" font-family="Helvetica,sans-Serif" font-size="10.00">libultraship/libultraship.h</text>
</a>
</g>
</g>
<!-- Node3&#45;&gt;Node4 -->
<g id="edge3_Node000003_Node000004" class="edge">
<title>Node3&#45;&gt;Node4</title>
<g id="a_edge3_Node000003_Node000004"><a xlink:title=" ">
<path fill="none" stroke="#63b8ff" d="M812.38,-285.98C788.1,-277.23 750.05,-263.51 722.63,-253.62"/>
<polygon fill="#63b8ff" stroke="#63b8ff" points="723.64,-250.27 713.05,-250.17 721.27,-256.85 723.64,-250.27"/>
</a>
</g>
</g>
<!-- Node5 -->
<g id="Node000005" class="node">
<title>Node5</title>
<g id="a_Node000005"><a xlink:href="CoreMath_8h.html" target="_top" xlink:title=" ">
<polygon fill="white" stroke="#666666" points="104.5,-195 31.5,-195 31.5,-176 104.5,-176 104.5,-195"/>
<text text-anchor="middle" x="68" y="-183" font-family="Helvetica,sans-Serif" font-size="10.00">CoreMath.h</text>
</a>
</g>
</g>
<!-- Node3&#45;&gt;Node5 -->
<g id="edge4_Node000003_Node000005" class="edge">
<title>Node3&#45;&gt;Node5</title>
<g id="a_edge4_Node000003_Node000005"><a xlink:title=" ">
<path fill="none" stroke="#63b8ff" d="M806.17,-291.12C744.59,-284.06 598.91,-267.02 477,-250 345.48,-231.64 190.7,-206.7 114.78,-194.24"/>
<polygon fill="#63b8ff" stroke="#63b8ff" points="115.04,-190.74 104.61,-192.57 113.91,-197.65 115.04,-190.74"/>
</a>
</g>
</g>
<!-- Node3&#45;&gt;Node6 -->
<g id="edge6_Node000003_Node000006" class="edge">
<title>Node3&#45;&gt;Node6</title>
<g id="a_edge6_Node000003_Node000006"><a xlink:title=" ">
<path fill="none" stroke="#63b8ff" d="M806.31,-294.2C738.05,-292.88 572.79,-285.96 533,-250 520.75,-238.93 517.25,-219.99 516.51,-205.67"/>
<polygon fill="#63b8ff" stroke="#63b8ff" points="520.01,-205.38 516.4,-195.41 513.01,-205.45 520.01,-205.38"/>
</a>
</g>
</g>
<!-- Node7 -->
<g id="Node000007" class="node">
<title>Node7</title>
<g id="a_Node000007"><a xlink:href="common__structs_8h.html" target="_top" xlink:title=" ">
<polygon fill="white" stroke="#666666" points="1138.5,-74 1031.5,-74 1031.5,-55 1138.5,-55 1138.5,-74"/>
<text text-anchor="middle" x="1085" y="-62" font-family="Helvetica,sans-Serif" font-size="10.00">common_structs.h</text>
</a>
</g>
</g>
<!-- Node3&#45;&gt;Node7 -->
<g id="edge47_Node000003_Node000007" class="edge">
<title>Node3&#45;&gt;Node7</title>
<g id="a_edge47_Node000003_Node000007"><a xlink:title=" ">
<path fill="none" stroke="#63b8ff" d="M851.96,-285.94C899.54,-260.1 1038.94,-182.13 1068,-140 1079.4,-123.48 1083.26,-100.47 1084.51,-84.41"/>
<polygon fill="#63b8ff" stroke="#63b8ff" points="1088.02,-84.3 1085.04,-74.13 1081.03,-83.94 1088.02,-84.3"/>
</a>
</g>
</g>
<!-- Node3&#45;&gt;Node8 -->
<g id="edge10_Node000003_Node000008" class="edge">
<title>Node3&#45;&gt;Node8</title>
<g id="a_edge10_Node000003_Node000008"><a xlink:title=" ">
<path fill="none" stroke="#63b8ff" d="M806.36,-294.64C748.71,-293.99 618.3,-288.03 517,-250 486.74,-238.64 456.28,-216.55 437.77,-201.66"/>
<polygon fill="#63b8ff" stroke="#63b8ff" points="439.87,-198.85 429.93,-195.2 435.42,-204.26 439.87,-198.85"/>
</a>
</g>
</g>
<!-- Node3&#45;&gt;Node14 -->
<g id="edge19_Node000003_Node000014" class="edge">
<title>Node3&#45;&gt;Node14</title>
<g id="a_edge19_Node000003_Node000014"><a xlink:title=" ">
<path fill="none" stroke="#63b8ff" d="M865.5,-290.39C927.19,-281.78 1070.95,-261.73 1153.92,-250.16"/>
<polygon fill="#63b8ff" stroke="#63b8ff" points="1154.56,-253.6 1163.98,-248.76 1153.59,-246.67 1154.56,-253.6"/>
</a>
</g>
</g>
<!-- Node17 -->
<g id="Node000017" class="node">
<title>Node17</title>
<g id="a_Node000017"><a xlink:href="defines_8h.html" target="_top" xlink:title=" ">
<polygon fill="white" stroke="#666666" points="837.5,-250 776.5,-250 776.5,-231 837.5,-231 837.5,-250"/>
<text text-anchor="middle" x="807" y="-238" font-family="Helvetica,sans-Serif" font-size="10.00">defines.h</text>
</a>
</g>
</g>
<!-- Node3&#45;&gt;Node17 -->
<g id="edge27_Node000003_Node000017" class="edge">
<title>Node3&#45;&gt;Node17</title>
<g id="a_edge27_Node000003_Node000017"><a xlink:title=" ">
<path fill="none" stroke="#63b8ff" d="M831.21,-285.75C827.24,-278.49 821.47,-267.95 816.57,-258.98"/>
<polygon fill="#63b8ff" stroke="#63b8ff" points="819.57,-257.18 811.7,-250.09 813.43,-260.54 819.57,-257.18"/>
</a>
</g>
</g>
<!-- Node18 -->
<g id="Node000018" class="node">
<title>Node18</title>
<g id="a_Node000018"><a xlink:href="bomb__kart_8h.html" target="_top" xlink:title=" ">
<polygon fill="white" stroke="#666666" points="875.5,-195 798.5,-195 798.5,-176 875.5,-176 875.5,-195"/>
<text text-anchor="middle" x="837" y="-183" font-family="Helvetica,sans-Serif" font-size="10.00">bomb_kart.h</text>
</a>
</g>
</g>
<!-- Node3&#45;&gt;Node18 -->
<g id="edge28_Node000003_Node000018" class="edge">
<title>Node3&#45;&gt;Node18</title>
<g id="a_edge28_Node000003_Node000018"><a xlink:title=" ">
<path fill="none" stroke="#63b8ff" d="M838.83,-285.75C841.55,-276.86 845.46,-262.64 847,-250 848.86,-234.75 845.82,-217.54 842.62,-204.88"/>
<polygon fill="#63b8ff" stroke="#63b8ff" points="845.95,-203.79 839.89,-195.1 839.21,-205.67 845.95,-203.79"/>
</a>
</g>
</g>
<!-- Node3&#45;&gt;Node21 -->
<g id="edge35_Node000003_Node000021" class="edge">
<title>Node3&#45;&gt;Node21</title>
<g id="a_edge35_Node000003_Node000021"><a xlink:title=" ">
<path fill="none" stroke="#63b8ff" d="M865.52,-286.79C900.01,-277.79 957.36,-262.81 996.61,-252.57"/>
<polygon fill="#63b8ff" stroke="#63b8ff" points="997.63,-255.92 1006.42,-250.01 995.86,-249.15 997.63,-255.92"/>
</a>
</g>
</g>
<!-- Node22 -->
<g id="Node000022" class="node">
<title>Node22</title>
<g id="a_Node000022"><a xlink:href="waypoints_8h.html" target="_top" xlink:title=" ">
<polygon fill="white" stroke="#666666" points="1129,-195 1053,-195 1053,-176 1129,-176 1129,-195"/>
<text text-anchor="middle" x="1091" y="-183" font-family="Helvetica,sans-Serif" font-size="10.00">waypoints.h</text>
</a>
</g>
</g>
<!-- Node3&#45;&gt;Node22 -->
<g id="edge45_Node000003_Node000022" class="edge">
<title>Node3&#45;&gt;Node22</title>
<g id="a_edge45_Node000003_Node000022"><a xlink:title=" ">
<path fill="none" stroke="#63b8ff" d="M865.85,-294.44C931.46,-293.59 1084.92,-287.56 1117,-250 1128.66,-236.35 1117.58,-216.76 1106.49,-202.96"/>
<polygon fill="#63b8ff" stroke="#63b8ff" points="1108.98,-200.49 1099.79,-195.22 1103.69,-205.07 1108.98,-200.49"/>
</a>
</g>
</g>
<!-- Node24 -->
<g id="Node000024" class="node">
<title>Node24</title>
<g id="a_Node000024"><a xlink:href="sounds_8h.html" target="_top" xlink:title=" ">
<polygon fill="white" stroke="#666666" points="602,-250 542,-250 542,-231 602,-231 602,-250"/>
<text text-anchor="middle" x="572" y="-238" font-family="Helvetica,sans-Serif" font-size="10.00">sounds.h</text>
</a>
</g>
</g>
<!-- Node3&#45;&gt;Node24 -->
<g id="edge46_Node000003_Node000024" class="edge">
<title>Node3&#45;&gt;Node24</title>
<g id="a_edge46_Node000003_Node000024"><a xlink:title=" ">
<path fill="none" stroke="#63b8ff" d="M806.48,-288.85C765.29,-280.93 687.99,-265.91 612.39,-250.26"/>
<polygon fill="#63b8ff" stroke="#63b8ff" points="612.72,-246.75 602.22,-248.15 611.3,-253.61 612.72,-246.75"/>
</a>
</g>
</g>
<!-- Node5&#45;&gt;Node2 -->
<g id="edge5_Node000005_Node000002" class="edge">
<title>Node5&#45;&gt;Node2</title>
<g id="a_edge5_Node000005_Node000002"><a xlink:title=" ">
<path fill="none" stroke="#63b8ff" d="M53.93,-175.89C42.65,-168.1 27.66,-155.48 21,-140 14.8,-125.58 19.9,-60.45 25,-55 60.52,-17.05 212.67,-10.75 293.34,-10.15"/>
<polygon fill="#63b8ff" stroke="#63b8ff" points="293.77,-13.65 303.75,-10.1 293.73,-6.65 293.77,-13.65"/>
</a>
</g>
</g>
<!-- Node6&#45;&gt;Node2 -->
<g id="edge7_Node000006_Node000002" class="edge">
<title>Node6&#45;&gt;Node2</title>
<g id="a_edge7_Node000006_Node000002"><a xlink:title=" ">
<path fill="none" stroke="#63b8ff" d="M485.62,-177.46C482.72,-176.92 479.81,-176.42 477,-176 432.54,-169.32 104.34,-173.17 74,-140 48.5,-112.12 49.56,-83.8 74,-55 101.59,-22.49 223.28,-13.69 293.51,-11.34"/>
<polygon fill="#63b8ff" stroke="#63b8ff" points="294.01,-14.82 303.9,-11.02 293.8,-7.83 294.01,-14.82"/>
</a>
</g>
</g>
<!-- Node6&#45;&gt;Node7 -->
<g id="edge8_Node000006_Node000007" class="edge">
<title>Node6&#45;&gt;Node7</title>
<g id="a_edge8_Node000006_Node000007"><a xlink:title=" ">
<path fill="none" stroke="#63b8ff" d="M548.29,-184.39C643.22,-183.63 926.47,-178.13 1009,-140 1016.4,-136.58 1049.75,-102.44 1069.73,-81.58"/>
<polygon fill="#63b8ff" stroke="#63b8ff" points="1072.51,-83.73 1076.88,-74.08 1067.45,-78.9 1072.51,-83.73"/>
</a>
</g>
</g>
<!-- Node7&#45;&gt;Node2 -->
<g id="edge9_Node000007_Node000002" class="edge">
<title>Node7&#45;&gt;Node2</title>
<g id="a_edge9_Node000007_Node000002"><a xlink:title=" ">
<path fill="none" stroke="#63b8ff" d="M1031.41,-59.67C893.55,-49.81 528.05,-23.66 394.11,-14.08"/>
<polygon fill="#63b8ff" stroke="#63b8ff" points="394.34,-10.59 384.12,-13.37 393.84,-17.57 394.34,-10.59"/>
</a>
</g>
</g>
<!-- Node8&#45;&gt;Node2 -->
<g id="edge11_Node000008_Node000002" class="edge">
<title>Node8&#45;&gt;Node2</title>
<g id="a_edge11_Node000008_Node000002"><a xlink:title=" ">
<path fill="none" stroke="#63b8ff" d="M371.97,-182.37C274.89,-177.56 62.66,-164.35 41,-140 15.89,-111.77 16.3,-83.59 41,-55 73.06,-17.89 216.24,-11.16 293.76,-10.29"/>
<polygon fill="#63b8ff" stroke="#63b8ff" points="293.81,-13.79 303.79,-10.21 293.76,-6.79 293.81,-13.79"/>
</a>
</g>
</g>
<!-- Node9 -->
<g id="Node000009" class="node">
<title>Node9</title>
<g id="a_Node000009"><a xlink:title=" ">
<polygon fill="#e0e0e0" stroke="#999999" points="90,-19 0,-19 0,0 90,0 90,-19"/>
<text text-anchor="middle" x="45" y="-7" font-family="Helvetica,sans-Serif" font-size="10.00">libultra/types.h</text>
</a>
</g>
</g>
<!-- Node8&#45;&gt;Node9 -->
<g id="edge12_Node000008_Node000009" class="edge">
<title>Node8&#45;&gt;Node9</title>
<g id="a_edge12_Node000008_Node000009"><a xlink:title=" ">
<path fill="none" stroke="#63b8ff" d="M371.76,-182.66C270.68,-178.3 44.03,-165.75 21,-140 -7.11,-108.58 17.72,-55.25 33.81,-27.87"/>
<polygon fill="#63b8ff" stroke="#63b8ff" points="36.98,-29.39 39.23,-19.04 31.01,-25.73 36.98,-29.39"/>
</a>
</g>
</g>
<!-- Node10 -->
<g id="Node000010" class="node">
<title>Node10</title>
<g id="a_Node000010"><a xlink:title=" ">
<polygon fill="#e0e0e0" stroke="#999999" points="459,-74 381,-74 381,-55 459,-55 459,-74"/>
<text text-anchor="middle" x="420" y="-62" font-family="Helvetica,sans-Serif" font-size="10.00">libultra/gbi.h</text>
</a>
</g>
</g>
<!-- Node8&#45;&gt;Node10 -->
<g id="edge13_Node000008_Node000010" class="edge">
<title>Node8&#45;&gt;Node10</title>
<g id="a_edge13_Node000008_Node000010"><a xlink:title=" ">
<path fill="none" stroke="#63b8ff" d="M420,-175.94C420,-156.91 420,-110.69 420,-84.47"/>
<polygon fill="#63b8ff" stroke="#63b8ff" points="423.5,-84.3 420,-74.3 416.5,-84.3 423.5,-84.3"/>
</a>
</g>
</g>
<!-- Node11 -->
<g id="Node000011" class="node">
<title>Node11</title>
<g id="a_Node000011"><a xlink:href="other__textures_8h.html" target="_top" xlink:title=" ">
<polygon fill="white" stroke="#666666" points="906.5,-134.5 775.5,-134.5 775.5,-115.5 906.5,-115.5 906.5,-134.5"/>
<text text-anchor="middle" x="841" y="-122.5" font-family="Helvetica,sans-Serif" font-size="10.00">assets/other_textures.h</text>
</a>
</g>
</g>
<!-- Node8&#45;&gt;Node11 -->
<g id="edge14_Node000008_Node000011" class="edge">
<title>Node8&#45;&gt;Node11</title>
<g id="a_edge14_Node000008_Node000011"><a xlink:title=" ">
<path fill="none" stroke="#63b8ff" d="M468.19,-177.23C471.17,-176.81 474.13,-176.39 477,-176 605.24,-158.45 638.1,-159.88 766,-140 773.11,-138.89 780.58,-137.63 787.93,-136.32"/>
<polygon fill="#63b8ff" stroke="#63b8ff" points="788.63,-139.75 797.85,-134.52 787.38,-132.86 788.63,-139.75"/>
</a>
</g>
</g>
<!-- Node13 -->
<g id="Node000013" class="node">
<title>Node13</title>
<g id="a_Node000013"><a xlink:href="animation_8h.html" target="_top" xlink:title=" ">
<polygon fill="white" stroke="#666666" points="999.5,-134.5 924.5,-134.5 924.5,-115.5 999.5,-115.5 999.5,-134.5"/>
<text text-anchor="middle" x="962" y="-122.5" font-family="Helvetica,sans-Serif" font-size="10.00">animation.h</text>
</a>
</g>
</g>
<!-- Node8&#45;&gt;Node13 -->
<g id="edge17_Node000008_Node000013" class="edge">
<title>Node8&#45;&gt;Node13</title>
<g id="a_edge17_Node000008_Node000013"><a xlink:title=" ">
<path fill="none" stroke="#63b8ff" d="M468.17,-177.09C471.16,-176.7 474.12,-176.33 477,-176 671.47,-153.55 723.71,-176.71 916,-140 919.86,-139.26 923.85,-138.33 927.8,-137.28"/>
<polygon fill="#63b8ff" stroke="#63b8ff" points="928.76,-140.65 937.41,-134.54 926.84,-133.92 928.76,-140.65"/>
</a>
</g>
</g>
<!-- Node11&#45;&gt;Node2 -->
<g id="edge15_Node000011_Node000002" class="edge">
<title>Node11&#45;&gt;Node2</title>
<g id="a_edge15_Node000011_Node000002"><a xlink:title=" ">
<path fill="none" stroke="#63b8ff" d="M821.01,-115.41C786.27,-100.83 712.22,-71.22 647,-55 559.45,-33.22 454.84,-20.77 394.25,-14.84"/>
<polygon fill="#63b8ff" stroke="#63b8ff" points="394.48,-11.34 384.19,-13.88 393.81,-18.31 394.48,-11.34"/>
</a>
</g>
</g>
<!-- Node12 -->
<g id="Node000012" class="node">
<title>Node12</title>
<g id="a_Node000012"><a xlink:href="align__asset__macro_8h.html" target="_top" xlink:title=" ">
<polygon fill="white" stroke="#666666" points="594.5,-74 477.5,-74 477.5,-55 594.5,-55 594.5,-74"/>
<text text-anchor="middle" x="536" y="-62" font-family="Helvetica,sans-Serif" font-size="10.00">align_asset_macro.h</text>
</a>
</g>
</g>
<!-- Node11&#45;&gt;Node12 -->
<g id="edge16_Node000011_Node000012" class="edge">
<title>Node11&#45;&gt;Node12</title>
<g id="a_edge16_Node000011_Node000012"><a xlink:title=" ">
<path fill="none" stroke="#63b8ff" d="M796.65,-115.49C741.99,-105.01 649.13,-87.2 590.26,-75.91"/>
<polygon fill="#63b8ff" stroke="#63b8ff" points="590.88,-72.46 580.4,-74.02 589.56,-79.34 590.88,-72.46"/>
</a>
</g>
</g>
<!-- Node13&#45;&gt;Node7 -->
<g id="edge18_Node000013_Node000007" class="edge">
<title>Node13&#45;&gt;Node7</title>
<g id="a_edge18_Node000013_Node000007"><a xlink:title=" ">
<path fill="none" stroke="#63b8ff" d="M979.89,-115.49C1000.38,-105.75 1034.19,-89.66 1057.92,-78.38"/>
<polygon fill="#63b8ff" stroke="#63b8ff" points="1059.57,-81.47 1067.09,-74.02 1056.56,-75.15 1059.57,-81.47"/>
</a>
</g>
</g>
<!-- Node14&#45;&gt;Node10 -->
<g id="edge20_Node000014_Node000010" class="edge">
<title>Node14&#45;&gt;Node10</title>
<g id="a_edge20_Node000014_Node000010"><a xlink:title=" ">
<path fill="none" stroke="#63b8ff" d="M1208.89,-230.95C1196.33,-216.54 1168.62,-187.85 1138,-176 1002.67,-123.63 616.63,-203.18 486,-140 460.8,-127.81 441.06,-101.22 429.97,-83.33"/>
<polygon fill="#63b8ff" stroke="#63b8ff" points="432.81,-81.26 424.71,-74.43 426.79,-84.82 432.81,-81.26"/>
</a>
</g>
</g>
<!-- Node14&#45;&gt;Node11 -->
<g id="edge23_Node000014_Node000011" class="edge">
<title>Node14&#45;&gt;Node11</title>
<g id="a_edge23_Node000014_Node000011"><a xlink:title=" ">
<path fill="none" stroke="#63b8ff" d="M1212.56,-230.79C1206.49,-216.67 1192.46,-189.08 1171,-176 1073.26,-116.44 1028.95,-158.51 916,-140 909.24,-138.89 902.15,-137.66 895.13,-136.4"/>
<polygon fill="#63b8ff" stroke="#63b8ff" points="895.43,-132.9 884.96,-134.54 894.17,-139.78 895.43,-132.9"/>
</a>
</g>
</g>
<!-- Node15 -->
<g id="Node000015" class="node">
<title>Node15</title>
<g id="a_Node000015"><a xlink:href="spline_8h.html" target="_top" xlink:title=" ">
<polygon fill="white" stroke="#666666" points="1263.5,-134.5 1208.5,-134.5 1208.5,-115.5 1263.5,-115.5 1263.5,-134.5"/>
<text text-anchor="middle" x="1236" y="-122.5" font-family="Helvetica,sans-Serif" font-size="10.00">spline.h</text>
</a>
</g>
</g>
<!-- Node14&#45;&gt;Node15 -->
<g id="edge21_Node000014_Node000015" class="edge">
<title>Node14&#45;&gt;Node15</title>
<g id="a_edge21_Node000014_Node000015"><a xlink:title=" ">
<path fill="none" stroke="#63b8ff" d="M1217.5,-230.97C1220.72,-212.73 1228.32,-169.57 1232.71,-144.64"/>
<polygon fill="#63b8ff" stroke="#63b8ff" points="1236.19,-145.09 1234.48,-134.63 1229.3,-143.87 1236.19,-145.09"/>
</a>
</g>
</g>
<!-- Node14&#45;&gt;Node16 -->
<g id="edge24_Node000014_Node000016" class="edge">
<title>Node14&#45;&gt;Node16</title>
<g id="a_edge24_Node000014_Node000016"><a xlink:title=" ">
<path fill="none" stroke="#63b8ff" d="M1228.21,-230.98C1239.78,-222.92 1257.38,-210.65 1271.16,-201.03"/>
<polygon fill="#63b8ff" stroke="#63b8ff" points="1273.37,-203.76 1279.57,-195.17 1269.36,-198.02 1273.37,-203.76"/>
</a>
</g>
</g>
<!-- Node15&#45;&gt;Node7 -->
<g id="edge22_Node000015_Node000007" class="edge">
<title>Node15&#45;&gt;Node7</title>
<g id="a_edge22_Node000015_Node000007"><a xlink:title=" ">
<path fill="none" stroke="#63b8ff" d="M1214.04,-115.49C1188.32,-105.53 1145.52,-88.95 1116.32,-77.63"/>
<polygon fill="#63b8ff" stroke="#63b8ff" points="1117.57,-74.37 1106.98,-74.02 1115.04,-80.89 1117.57,-74.37"/>
</a>
</g>
</g>
<!-- Node16&#45;&gt;Node7 -->
<g id="edge26_Node000016_Node000007" class="edge">
<title>Node16&#45;&gt;Node7</title>
<g id="a_edge26_Node000016_Node000007"><a xlink:title=" ">
<path fill="none" stroke="#63b8ff" d="M1292.47,-175.74C1292.79,-160.2 1291.09,-127.78 1273,-110 1255.41,-92.71 1196.01,-80.6 1148.62,-73.43"/>
<polygon fill="#63b8ff" stroke="#63b8ff" points="1149.12,-69.96 1138.71,-71.97 1148.1,-76.89 1149.12,-69.96"/>
</a>
</g>
</g>
<!-- Node16&#45;&gt;Node15 -->
<g id="edge25_Node000016_Node000015" class="edge">
<title>Node16&#45;&gt;Node15</title>
<g id="a_edge25_Node000016_Node000015"><a xlink:title=" ">
<path fill="none" stroke="#63b8ff" d="M1283.74,-175.87C1275.22,-166.97 1261.74,-152.89 1251.27,-141.95"/>
<polygon fill="#63b8ff" stroke="#63b8ff" points="1253.74,-139.47 1244.3,-134.67 1248.68,-144.31 1253.74,-139.47"/>
</a>
</g>
</g>
<!-- Node18&#45;&gt;Node7 -->
<g id="edge29_Node000018_Node000007" class="edge">
<title>Node18&#45;&gt;Node7</title>
<g id="a_edge29_Node000018_Node000007"><a xlink:title=" ">
<path fill="none" stroke="#63b8ff" d="M875.59,-177.86C931.19,-168.04 1028.65,-149.74 1042,-140 1061.08,-126.07 1073,-100.92 1079.32,-83.72"/>
<polygon fill="#63b8ff" stroke="#63b8ff" points="1082.65,-84.81 1082.55,-74.22 1076.02,-82.56 1082.65,-84.81"/>
</a>
</g>
</g>
<!-- Node19 -->
<g id="Node000019" class="node">
<title>Node19</title>
<g id="a_Node000019"><a xlink:href="mk64_8h.html" target="_top" xlink:title=" ">
<polygon fill="white" stroke="#666666" points="136.5,-134.5 83.5,-134.5 83.5,-115.5 136.5,-115.5 136.5,-134.5"/>
<text text-anchor="middle" x="110" y="-122.5" font-family="Helvetica,sans-Serif" font-size="10.00">mk64.h</text>
</a>
</g>
</g>
<!-- Node18&#45;&gt;Node19 -->
<g id="edge30_Node000018_Node000019" class="edge">
<title>Node18&#45;&gt;Node19</title>
<g id="a_edge30_Node000018_Node000019"><a xlink:title=" ">
<path fill="none" stroke="#63b8ff" d="M798.34,-183.57C671.94,-180.27 271.89,-167.83 146,-140 143.48,-139.44 140.9,-138.74 138.34,-137.94"/>
<polygon fill="#63b8ff" stroke="#63b8ff" points="139.31,-134.57 128.72,-134.53 136.98,-141.17 139.31,-134.57"/>
</a>
</g>
</g>
<!-- Node19&#45;&gt;Node2 -->
<g id="edge31_Node000019_Node000002" class="edge">
<title>Node19&#45;&gt;Node2</title>
<g id="a_edge31_Node000019_Node000002"><a xlink:title=" ">
<path fill="none" stroke="#63b8ff" d="M127.59,-115.47C168.16,-95.79 268.52,-47.11 316.97,-23.61"/>
<polygon fill="#63b8ff" stroke="#63b8ff" points="318.74,-26.64 326.21,-19.13 315.68,-20.35 318.74,-26.64"/>
</a>
</g>
</g>
<!-- Node19&#45;&gt;Node10 -->
<g id="edge34_Node000019_Node000010" class="edge">
<title>Node19&#45;&gt;Node10</title>
<g id="a_edge34_Node000019_Node000010"><a xlink:title=" ">
<path fill="none" stroke="#63b8ff" d="M129.93,-115.39C135.09,-113.4 140.69,-111.45 146,-110 223.1,-89 315.27,-76.53 370.65,-70.36"/>
<polygon fill="#63b8ff" stroke="#63b8ff" points="371.32,-73.81 380.88,-69.24 370.56,-66.85 371.32,-73.81"/>
</a>
</g>
</g>
<!-- Node20 -->
<g id="Node000020" class="node">
<title>Node20</title>
<g id="a_Node000020"><a xlink:href="string_8h.html" target="_top" xlink:title=" ">
<polygon fill="white" stroke="#666666" points="136.5,-74 83.5,-74 83.5,-55 136.5,-55 136.5,-74"/>
<text text-anchor="middle" x="110" y="-62" font-family="Helvetica,sans-Serif" font-size="10.00">string.h</text>
</a>
</g>
</g>
<!-- Node19&#45;&gt;Node20 -->
<g id="edge32_Node000019_Node000020" class="edge">
<title>Node19&#45;&gt;Node20</title>
<g id="a_edge32_Node000019_Node000020"><a xlink:title=" ">
<path fill="none" stroke="#63b8ff" d="M110,-115.37C110,-107.25 110,-94.81 110,-84.39"/>
<polygon fill="#63b8ff" stroke="#63b8ff" points="113.5,-84.17 110,-74.17 106.5,-84.17 113.5,-84.17"/>
</a>
</g>
</g>
<!-- Node20&#45;&gt;Node9 -->
<g id="edge33_Node000020_Node000009" class="edge">
<title>Node20&#45;&gt;Node9</title>
<g id="a_edge33_Node000020_Node000009"><a xlink:title=" ">
<path fill="none" stroke="#63b8ff" d="M99.56,-54.98C89.85,-47.07 75.18,-35.11 63.5,-25.58"/>
<polygon fill="#63b8ff" stroke="#63b8ff" points="65.6,-22.78 55.63,-19.17 61.17,-28.2 65.6,-22.78"/>
</a>
</g>
</g>
<!-- Node21&#45;&gt;Node7 -->
<g id="edge38_Node000021_Node000007" class="edge">
<title>Node21&#45;&gt;Node7</title>
<g id="a_edge38_Node000021_Node000007"><a xlink:title=" ">
<path fill="none" stroke="#63b8ff" d="M1037.17,-230.82C1034.92,-217.71 1032.66,-192.63 1044,-176 1064.6,-145.78 1098.6,-171.01 1118,-140 1129.77,-121.18 1114.71,-97.44 1101.29,-81.88"/>
<polygon fill="#63b8ff" stroke="#63b8ff" points="1103.53,-79.15 1094.18,-74.16 1098.38,-83.89 1103.53,-79.15"/>
</a>
</g>
</g>
<!-- Node21&#45;&gt;Node18 -->
<g id="edge44_Node000021_Node000018" class="edge">
<title>Node21&#45;&gt;Node18</title>
<g id="a_edge44_Node000021_Node000018"><a xlink:title=" ">
<path fill="none" stroke="#63b8ff" d="M1006.55,-230.98C972.04,-221.93 917.34,-207.58 879.44,-197.64"/>
<polygon fill="#63b8ff" stroke="#63b8ff" points="880.27,-194.23 869.71,-195.08 878.49,-201.01 880.27,-194.23"/>
</a>
</g>
</g>
<!-- Node21&#45;&gt;Node22 -->
<g id="edge36_Node000021_Node000022" class="edge">
<title>Node21&#45;&gt;Node22</title>
<g id="a_edge36_Node000021_Node000022"><a xlink:title=" ">
<path fill="none" stroke="#63b8ff" d="M1047.59,-230.75C1055.16,-223.03 1066.38,-211.6 1075.51,-202.28"/>
<polygon fill="#63b8ff" stroke="#63b8ff" points="1078.07,-204.68 1082.57,-195.09 1073.07,-199.78 1078.07,-204.68"/>
</a>
</g>
</g>
<!-- Node23 -->
<g id="Node000023" class="node">
<title>Node23</title>
<g id="a_Node000023"><a xlink:href="common__data_8h.html" target="_top" xlink:title=" ">
<polygon fill="white" stroke="#666666" points="757,-134.5 627,-134.5 627,-115.5 757,-115.5 757,-134.5"/>
<text text-anchor="middle" x="692" y="-122.5" font-family="Helvetica,sans-Serif" font-size="10.00">assets/common_data.h</text>
</a>
</g>
</g>
<!-- Node21&#45;&gt;Node23 -->
<g id="edge39_Node000021_Node000023" class="edge">
<title>Node21&#45;&gt;Node23</title>
<g id="a_edge39_Node000021_Node000023"><a xlink:title=" ">
<path fill="none" stroke="#63b8ff" d="M1030.69,-230.94C1016.67,-217.05 986.81,-189.76 956,-176 954.8,-175.46 824.54,-150.92 747.46,-136.42"/>
<polygon fill="#63b8ff" stroke="#63b8ff" points="747.9,-132.94 737.42,-134.53 746.6,-139.82 747.9,-132.94"/>
</a>
</g>
</g>
<!-- Node22&#45;&gt;Node7 -->
<g id="edge37_Node000022_Node000007" class="edge">
<title>Node22&#45;&gt;Node7</title>
<g id="a_edge37_Node000022_Node000007"><a xlink:title=" ">
<path fill="none" stroke="#63b8ff" d="M1113.12,-175.95C1128.2,-168.82 1147.01,-157.06 1156,-140 1162.22,-128.21 1162.46,-121.67 1156,-110 1148.16,-95.83 1133.71,-85.57 1119.89,-78.5"/>
<polygon fill="#63b8ff" stroke="#63b8ff" points="1121.05,-75.18 1110.51,-74.1 1118.08,-81.52 1121.05,-75.18"/>
</a>
</g>
</g>
<!-- Node23&#45;&gt;Node2 -->
<g id="edge41_Node000023_Node000002" class="edge">
<title>Node23&#45;&gt;Node2</title>
<g id="a_edge41_Node000023_Node000002"><a xlink:title=" ">
<path fill="none" stroke="#63b8ff" d="M685.63,-115.05C674.31,-99.92 649.14,-69.51 620,-55 547.4,-18.85 451.98,-10.93 394.47,-9.79"/>
<polygon fill="#63b8ff" stroke="#63b8ff" points="394.23,-6.29 384.19,-9.65 394.14,-13.29 394.23,-6.29"/>
</a>
</g>
</g>
<!-- Node23&#45;&gt;Node7 -->
<g id="edge42_Node000023_Node000007" class="edge">
<title>Node23&#45;&gt;Node7</title>
<g id="a_edge42_Node000023_Node000007"><a xlink:title=" ">
<path fill="none" stroke="#63b8ff" d="M735.96,-115.45C746.14,-113.56 756.93,-111.64 767,-110 855,-95.64 957.17,-81.85 1021.45,-73.53"/>
<polygon fill="#63b8ff" stroke="#63b8ff" points="1021.97,-76.99 1031.44,-72.24 1021.07,-70.05 1021.97,-76.99"/>
</a>
</g>
</g>
<!-- Node23&#45;&gt;Node10 -->
<g id="edge40_Node000023_Node000010" class="edge">
<title>Node23&#45;&gt;Node10</title>
<g id="a_edge40_Node000023_Node000010"><a xlink:title=" ">
<path fill="none" stroke="#63b8ff" d="M652.45,-115.49C603.96,-105.07 521.79,-87.39 469.25,-76.09"/>
<polygon fill="#63b8ff" stroke="#63b8ff" points="469.67,-72.6 459.16,-73.92 468.2,-79.45 469.67,-72.6"/>
</a>
</g>
</g>
<!-- Node23&#45;&gt;Node12 -->
<g id="edge43_Node000023_Node000012" class="edge">
<title>Node23&#45;&gt;Node12</title>
<g id="a_edge43_Node000023_Node000012"><a xlink:title=" ">
<path fill="none" stroke="#63b8ff" d="M669.32,-115.49C642.74,-105.53 598.52,-88.95 568.36,-77.63"/>
<polygon fill="#63b8ff" stroke="#63b8ff" points="569.3,-74.25 558.71,-74.02 566.85,-80.81 569.3,-74.25"/>
</a>
</g>
</g>
<!-- Node25&#45;&gt;Node2 -->
<g id="edge49_Node000025_Node000002" class="edge">
<title>Node25&#45;&gt;Node2</title>
<g id="a_edge49_Node000025_Node000002"><a xlink:title=" ">
<path fill="none" stroke="#63b8ff" d="M228.45,-109.85C253.29,-88.5 300.19,-48.17 325.94,-26.03"/>
<polygon fill="#63b8ff" stroke="#63b8ff" points="328.5,-28.44 333.8,-19.27 323.94,-23.14 328.5,-28.44"/>
</a>
</g>
</g>
<!-- Node25&#45;&gt;Node10 -->
<g id="edge50_Node000025_Node000010" class="edge">
<title>Node25&#45;&gt;Node10</title>
<g id="a_edge50_Node000025_Node000010"><a xlink:title=" ">
<path fill="none" stroke="#63b8ff" d="M261.82,-109.99C297.87,-99.85 345.98,-86.32 379.63,-76.85"/>
<polygon fill="#63b8ff" stroke="#63b8ff" points="380.91,-80.13 389.59,-74.05 379.01,-73.39 380.91,-80.13"/>
</a>
</g>
</g>
<!-- Node25&#45;&gt;Node12 -->
<g id="edge51_Node000025_Node000012" class="edge">
<title>Node25&#45;&gt;Node12</title>
<g id="a_edge51_Node000025_Node000012"><a xlink:title=" ">
<path fill="none" stroke="#63b8ff" d="M269.21,-111.72C272.18,-111.13 275.12,-110.55 278,-110 344.33,-97.25 420.58,-84.31 472.89,-75.69"/>
<polygon fill="#63b8ff" stroke="#63b8ff" points="473.72,-79.1 483.02,-74.03 472.59,-72.2 473.72,-79.1"/>
</a>
</g>
</g>
<!-- Node26&#45;&gt;Node2 -->
<g id="edge53_Node000026_Node000002" class="edge">
<title>Node26&#45;&gt;Node2</title>
<g id="a_edge53_Node000026_Node000002"><a xlink:title=" ">
<path fill="none" stroke="#63b8ff" d="M344,-109.63C344,-89.21 344,-51.81 344,-29.24"/>
<polygon fill="#63b8ff" stroke="#63b8ff" points="347.5,-29.23 344,-19.23 340.5,-29.23 347.5,-29.23"/>
</a>
</g>
</g>
<!-- Node26&#45;&gt;Node10 -->
<g id="edge54_Node000026_Node000010" class="edge">
<title>Node26&#45;&gt;Node10</title>
<g id="a_edge54_Node000026_Node000010"><a xlink:title=" ">
<path fill="none" stroke="#63b8ff" d="M362.4,-109.84C373.88,-101 388.65,-89.63 400.36,-80.62"/>
<polygon fill="#63b8ff" stroke="#63b8ff" points="402.82,-83.14 408.61,-74.27 398.55,-77.59 402.82,-83.14"/>
</a>
</g>
</g>
<!-- Node26&#45;&gt;Node12 -->
<g id="edge55_Node000026_Node000012" class="edge">
<title>Node26&#45;&gt;Node12</title>
<g id="a_edge55_Node000026_Node000012"><a xlink:title=" ">
<path fill="none" stroke="#63b8ff" d="M389.99,-109.99C423.12,-99.89 467.29,-86.44 498.34,-76.98"/>
<polygon fill="#63b8ff" stroke="#63b8ff" points="499.38,-80.32 507.93,-74.05 497.34,-73.62 499.38,-80.32"/>
</a>
</g>
</g>
<!-- Node27&#45;&gt;Node2 -->
<g id="edge57_Node000027_Node000002" class="edge">
<title>Node27&#45;&gt;Node2</title>
<g id="a_edge57_Node000027_Node000002"><a xlink:title=" ">
<path fill="none" stroke="#63b8ff" d="M574.98,-109.91C595.29,-95.71 619.47,-73.35 604,-55 577.71,-23.82 462.15,-14.49 394.26,-11.69"/>
<polygon fill="#63b8ff" stroke="#63b8ff" points="394.33,-8.19 384.2,-11.31 394.06,-15.19 394.33,-8.19"/>
</a>
</g>
</g>
<!-- Node27&#45;&gt;Node10 -->
<g id="edge58_Node000027_Node000010" class="edge">
<title>Node27&#45;&gt;Node10</title>
<g id="a_edge58_Node000027_Node000010"><a xlink:title=" ">
<path fill="none" stroke="#63b8ff" d="M520.38,-109.99C498.65,-100.36 470.03,-87.67 448.91,-78.31"/>
<polygon fill="#63b8ff" stroke="#63b8ff" points="450.05,-74.99 439.49,-74.14 447.22,-81.39 450.05,-74.99"/>
</a>
</g>
</g>
<!-- Node27&#45;&gt;Node12 -->
<g id="edge59_Node000027_Node000012" class="edge">
<title>Node27&#45;&gt;Node12</title>
<g id="a_edge59_Node000027_Node000012"><a xlink:title=" ">
<path fill="none" stroke="#63b8ff" d="M548.13,-109.84C546.02,-102.13 543.38,-92.49 541.11,-84.17"/>
<polygon fill="#63b8ff" stroke="#63b8ff" points="544.41,-82.99 538.4,-74.27 537.66,-84.84 544.41,-82.99"/>
</a>
</g>
</g>
</g>
</svg>
