<?xml version="1.0" encoding="UTF-8" standalone="no"?>
<!DOCTYPE svg PUBLIC "-//W3C//DTD SVG 1.1//EN"
 "http://www.w3.org/Graphics/SVG/1.1/DTD/svg11.dtd">
<!-- Generated by graphviz version 2.43.0 (0)
 -->
<!-- Title: src/engine/actors/Ship.h Pages: 1 -->
<svg width="1337pt" height="203pt"
 viewBox="0.00 0.00 1337.00 203.00" xmlns="http://www.w3.org/2000/svg" xmlns:xlink="http://www.w3.org/1999/xlink">
<g id="graph0" class="graph" transform="scale(1 1) rotate(0) translate(4 199)">
<title>src/engine/actors/Ship.h</title>
<!-- Node1 -->
<g id="Node000001" class="node">
<title>Node1</title>
<g id="a_Node000001"><a xlink:title=" ">
<polygon fill="#999999" stroke="#666666" points="761,-195 628,-195 628,-176 761,-176 761,-195"/>
<text text-anchor="middle" x="694.5" y="-183" font-family="Helvetica,sans-Serif" font-size="10.00">src/engine/actors/Ship.h</text>
</a>
</g>
</g>
<!-- Node2 -->
<g id="Node000002" class="node">
<title>Node2</title>
<g id="a_Node000002"><a xlink:href="AllActors_8h.html" target="_top" xlink:title=" ">
<polygon fill="white" stroke="#666666" points="262.5,-134.5 140.5,-134.5 140.5,-115.5 262.5,-115.5 262.5,-134.5"/>
<text text-anchor="middle" x="201.5" y="-122.5" font-family="Helvetica,sans-Serif" font-size="10.00">src/engine/AllActors.h</text>
</a>
</g>
</g>
<!-- Node1&#45;&gt;Node2 -->
<g id="edge1_Node000001_Node000002" class="edge">
<title>Node1&#45;&gt;Node2</title>
<g id="a_edge1_Node000001_Node000002"><a xlink:title=" ">
<path fill="none" stroke="#63b8ff" d="M617.87,-178.59C532.93,-171.53 391.98,-158.35 271.5,-140 261.58,-138.49 250.92,-136.53 241,-134.56"/>
<polygon fill="#63b8ff" stroke="#63b8ff" points="617.7,-182.08 627.95,-179.42 618.27,-175.11 617.7,-182.08"/>
</a>
</g>
</g>
<!-- Node7 -->
<g id="Node000007" class="node">
<title>Node7</title>
<g id="a_Node000007"><a xlink:href="Ship_8cpp.html" target="_top" xlink:title=" ">
<polygon fill="white" stroke="#666666" points="424.5,-134.5 280.5,-134.5 280.5,-115.5 424.5,-115.5 424.5,-134.5"/>
<text text-anchor="middle" x="352.5" y="-122.5" font-family="Helvetica,sans-Serif" font-size="10.00">src/engine/actors/Ship.cpp</text>
</a>
</g>
</g>
<!-- Node1&#45;&gt;Node7 -->
<g id="edge7_Node000001_Node000007" class="edge">
<title>Node1&#45;&gt;Node7</title>
<g id="a_edge7_Node000001_Node000007"><a xlink:title=" ">
<path fill="none" stroke="#63b8ff" d="M634.53,-174.24C568.6,-162.96 463.87,-145.05 402.29,-134.52"/>
<polygon fill="#63b8ff" stroke="#63b8ff" points="634.32,-177.76 644.77,-175.99 635.5,-170.86 634.32,-177.76"/>
</a>
</g>
</g>
<!-- Node8 -->
<g id="Node000008" class="node">
<title>Node8</title>
<g id="a_Node000008"><a xlink:href="Harbour_8cpp.html" target="_top" xlink:title=" ">
<polygon fill="white" stroke="#666666" points="550,-140 443,-140 443,-110 550,-110 550,-140"/>
<text text-anchor="start" x="451" y="-128" font-family="Helvetica,sans-Serif" font-size="10.00">src/engine/courses</text>
<text text-anchor="middle" x="496.5" y="-117" font-family="Helvetica,sans-Serif" font-size="10.00">/Harbour.cpp</text>
</a>
</g>
</g>
<!-- Node1&#45;&gt;Node8 -->
<g id="edge8_Node000001_Node000008" class="edge">
<title>Node1&#45;&gt;Node8</title>
<g id="a_edge8_Node000001_Node000008"><a xlink:title=" ">
<path fill="none" stroke="#63b8ff" d="M655.84,-173.08C623.86,-163.63 578.32,-150.17 544.1,-140.06"/>
<polygon fill="#63b8ff" stroke="#63b8ff" points="655.13,-176.52 665.71,-175.99 657.11,-169.8 655.13,-176.52"/>
</a>
</g>
</g>
<!-- Node9 -->
<g id="Node000009" class="node">
<title>Node9</title>
<g id="a_Node000009"><a xlink:href="TestCourse_8cpp.html" target="_top" xlink:title=" ">
<polygon fill="white" stroke="#666666" points="675,-140 568,-140 568,-110 675,-110 675,-140"/>
<text text-anchor="start" x="576" y="-128" font-family="Helvetica,sans-Serif" font-size="10.00">src/engine/courses</text>
<text text-anchor="middle" x="621.5" y="-117" font-family="Helvetica,sans-Serif" font-size="10.00">/TestCourse.cpp</text>
</a>
</g>
</g>
<!-- Node1&#45;&gt;Node9 -->
<g id="edge9_Node000001_Node000009" class="edge">
<title>Node1&#45;&gt;Node9</title>
<g id="a_edge9_Node000001_Node000009"><a xlink:title=" ">
<path fill="none" stroke="#63b8ff" d="M675.78,-169.5C664.49,-160.45 650.2,-149 639.11,-140.11"/>
<polygon fill="#63b8ff" stroke="#63b8ff" points="673.74,-172.35 683.73,-175.87 678.11,-166.88 673.74,-172.35"/>
</a>
</g>
</g>
<!-- Node10 -->
<g id="Node000010" class="node">
<title>Node10</title>
<g id="a_Node000010"><a xlink:href="Editor_8cpp.html" target="_top" xlink:title=" ">
<polygon fill="white" stroke="#666666" points="842,-134.5 693,-134.5 693,-115.5 842,-115.5 842,-134.5"/>
<text text-anchor="middle" x="767.5" y="-122.5" font-family="Helvetica,sans-Serif" font-size="10.00">src/engine/editor/Editor.cpp</text>
</a>
</g>
</g>
<!-- Node1&#45;&gt;Node10 -->
<g id="edge10_Node000001_Node000010" class="edge">
<title>Node1&#45;&gt;Node10</title>
<g id="a_edge10_Node000001_Node000010"><a xlink:title=" ">
<path fill="none" stroke="#63b8ff" d="M713.17,-169.54C726.96,-158.49 745.24,-143.84 756.68,-134.67"/>
<polygon fill="#63b8ff" stroke="#63b8ff" points="710.89,-166.88 705.27,-175.87 715.26,-172.35 710.89,-166.88"/>
</a>
</g>
</g>
<!-- Node11 -->
<g id="Node000011" class="node">
<title>Node11</title>
<g id="a_Node000011"><a xlink:href="Gizmo_8cpp.html" target="_top" xlink:title=" ">
<polygon fill="white" stroke="#666666" points="1013,-134.5 860,-134.5 860,-115.5 1013,-115.5 1013,-134.5"/>
<text text-anchor="middle" x="936.5" y="-122.5" font-family="Helvetica,sans-Serif" font-size="10.00">src/engine/editor/Gizmo.cpp</text>
</a>
</g>
</g>
<!-- Node1&#45;&gt;Node11 -->
<g id="edge11_Node000001_Node000011" class="edge">
<title>Node1&#45;&gt;Node11</title>
<g id="a_edge11_Node000001_Node000011"><a xlink:title=" ">
<path fill="none" stroke="#63b8ff" d="M739.55,-173.61C786.32,-162.3 858.5,-144.85 901.27,-134.52"/>
<polygon fill="#63b8ff" stroke="#63b8ff" points="738.59,-170.24 729.69,-175.99 740.23,-177.05 738.59,-170.24"/>
</a>
</g>
</g>
<!-- Node12 -->
<g id="Node000012" class="node">
<title>Node12</title>
<g id="a_Node000012"><a xlink:href="Light_8cpp.html" target="_top" xlink:title=" ">
<polygon fill="white" stroke="#666666" points="1177.5,-134.5 1031.5,-134.5 1031.5,-115.5 1177.5,-115.5 1177.5,-134.5"/>
<text text-anchor="middle" x="1104.5" y="-122.5" font-family="Helvetica,sans-Serif" font-size="10.00">src/engine/editor/Light.cpp</text>
</a>
</g>
</g>
<!-- Node1&#45;&gt;Node12 -->
<g id="edge12_Node000001_Node000012" class="edge">
<title>Node1&#45;&gt;Node12</title>
<g id="a_edge12_Node000001_Node000012"><a xlink:title=" ">
<path fill="none" stroke="#63b8ff" d="M771.17,-174.85C837.71,-166.3 936.59,-153.16 1022.5,-140 1033.35,-138.34 1044.98,-136.43 1055.98,-134.57"/>
<polygon fill="#63b8ff" stroke="#63b8ff" points="770.66,-171.39 761.19,-176.13 771.55,-178.33 770.66,-171.39"/>
</a>
</g>
</g>
<!-- Node13 -->
<g id="Node000013" class="node">
<title>Node13</title>
<g id="a_Node000013"><a xlink:href="ObjectPicker_8cpp.html" target="_top" xlink:title=" ">
<polygon fill="white" stroke="#666666" points="1329,-140 1196,-140 1196,-110 1329,-110 1329,-140"/>
<text text-anchor="start" x="1204" y="-128" font-family="Helvetica,sans-Serif" font-size="10.00">src/engine/editor/Object</text>
<text text-anchor="middle" x="1262.5" y="-117" font-family="Helvetica,sans-Serif" font-size="10.00">Picker.cpp</text>
</a>
</g>
</g>
<!-- Node1&#45;&gt;Node13 -->
<g id="edge13_Node000001_Node000013" class="edge">
<title>Node1&#45;&gt;Node13</title>
<g id="a_edge13_Node000001_Node000013"><a xlink:title=" ">
<path fill="none" stroke="#63b8ff" d="M771.18,-179.76C868.18,-173.26 1040.22,-160.05 1186.5,-140 1189.56,-139.58 1192.68,-139.12 1195.83,-138.64"/>
<polygon fill="#63b8ff" stroke="#63b8ff" points="770.91,-176.27 761.17,-180.42 771.38,-183.25 770.91,-176.27"/>
</a>
</g>
</g>
<!-- Node3 -->
<g id="Node000003" class="node">
<title>Node3</title>
<g id="a_Node000003"><a xlink:href="RegisteredActors_8cpp.html" target="_top" xlink:title=" ">
<polygon fill="white" stroke="#666666" points="173,-74 0,-74 0,-55 173,-55 173,-74"/>
<text text-anchor="middle" x="86.5" y="-62" font-family="Helvetica,sans-Serif" font-size="10.00">src/engine/RegisteredActors.cpp</text>
</a>
</g>
</g>
<!-- Node2&#45;&gt;Node3 -->
<g id="edge2_Node000002_Node000003" class="edge">
<title>Node2&#45;&gt;Node3</title>
<g id="a_edge2_Node000002_Node000003"><a xlink:title=" ">
<path fill="none" stroke="#63b8ff" d="M175.41,-110.73C153.39,-99.53 122.51,-83.82 103.54,-74.17"/>
<polygon fill="#63b8ff" stroke="#63b8ff" points="174.03,-113.95 184.53,-115.37 177.21,-107.71 174.03,-113.95"/>
</a>
</g>
</g>
<!-- Node4 -->
<g id="Node000004" class="node">
<title>Node4</title>
<g id="a_Node000004"><a xlink:href="ContentBrowser_8cpp.html" target="_top" xlink:title=" ">
<polygon fill="white" stroke="#666666" points="284.5,-19 118.5,-19 118.5,0 284.5,0 284.5,-19"/>
<text text-anchor="middle" x="201.5" y="-7" font-family="Helvetica,sans-Serif" font-size="10.00">src/port/ui/ContentBrowser.cpp</text>
</a>
</g>
</g>
<!-- Node2&#45;&gt;Node4 -->
<g id="edge3_Node000002_Node000004" class="edge">
<title>Node2&#45;&gt;Node4</title>
<g id="a_edge3_Node000002_Node000004"><a xlink:title=" ">
<path fill="none" stroke="#63b8ff" d="M201.5,-105.15C201.5,-80.24 201.5,-37.38 201.5,-19.13"/>
<polygon fill="#63b8ff" stroke="#63b8ff" points="198,-105.47 201.5,-115.47 205,-105.47 198,-105.47"/>
</a>
</g>
</g>
<!-- Node5 -->
<g id="Node000005" class="node">
<title>Node5</title>
<g id="a_Node000005"><a xlink:href="ContentBrowser_8h.html" target="_top" xlink:title=" ">
<polygon fill="white" stroke="#666666" points="385,-74 230,-74 230,-55 385,-55 385,-74"/>
<text text-anchor="middle" x="307.5" y="-62" font-family="Helvetica,sans-Serif" font-size="10.00">src/port/ui/ContentBrowser.h</text>
</a>
</g>
</g>
<!-- Node2&#45;&gt;Node5 -->
<g id="edge4_Node000002_Node000005" class="edge">
<title>Node2&#45;&gt;Node5</title>
<g id="a_edge4_Node000002_Node000005"><a xlink:title=" ">
<path fill="none" stroke="#63b8ff" d="M226.1,-110.42C246.36,-99.24 274.47,-83.73 291.8,-74.17"/>
<polygon fill="#63b8ff" stroke="#63b8ff" points="224.2,-107.47 217.14,-115.37 227.59,-113.6 224.2,-107.47"/>
</a>
</g>
</g>
<!-- Node5&#45;&gt;Node4 -->
<g id="edge5_Node000005_Node000004" class="edge">
<title>Node5&#45;&gt;Node4</title>
<g id="a_edge5_Node000005_Node000004"><a xlink:title=" ">
<path fill="none" stroke="#63b8ff" d="M281.5,-50.5C262,-40.75 235.85,-27.68 218.84,-19.17"/>
<polygon fill="#63b8ff" stroke="#63b8ff" points="279.96,-53.64 290.47,-54.98 283.09,-47.38 279.96,-53.64"/>
</a>
</g>
</g>
<!-- Node6 -->
<g id="Node000006" class="node">
<title>Node6</title>
<g id="a_Node000006"><a xlink:href="ImguiUI_8cpp.html" target="_top" xlink:title=" ">
<polygon fill="white" stroke="#666666" points="430,-19 303,-19 303,0 430,0 430,-19"/>
<text text-anchor="middle" x="366.5" y="-7" font-family="Helvetica,sans-Serif" font-size="10.00">src/port/ui/ImguiUI.cpp</text>
</a>
</g>
</g>
<!-- Node5&#45;&gt;Node6 -->
<g id="edge6_Node000005_Node000006" class="edge">
<title>Node5&#45;&gt;Node6</title>
<g id="a_edge6_Node000005_Node000006"><a xlink:title=" ">
<path fill="none" stroke="#63b8ff" d="M324.7,-48.04C335.17,-38.64 348.15,-26.98 356.85,-19.17"/>
<polygon fill="#63b8ff" stroke="#63b8ff" points="322.08,-45.7 316.98,-54.98 326.76,-50.91 322.08,-45.7"/>
</a>
</g>
</g>
</g>
</svg>
