<?xml version="1.0" encoding="UTF-8" standalone="no"?>
<!DOCTYPE svg PUBLIC "-//W3C//DTD SVG 1.1//EN"
 "http://www.w3.org/Graphics/SVG/1.1/DTD/svg11.dtd">
<!-- Generated by graphviz version 2.43.0 (0)
 -->
<!-- Title: src/engine/courses/Skyscraper.h Pages: 1 -->
<svg width="1471pt" height="368pt"
 viewBox="0.00 0.00 1471.00 368.00" xmlns="http://www.w3.org/2000/svg" xmlns:xlink="http://www.w3.org/1999/xlink">
<g id="graph0" class="graph" transform="scale(1 1) rotate(0) translate(4 364)">
<title>src/engine/courses/Skyscraper.h</title>
<!-- Node1 -->
<g id="Node000001" class="node">
<title>Node1</title>
<g id="a_Node000001"><a xlink:title=" ">
<polygon fill="#999999" stroke="#666666" points="1064.5,-360 957.5,-360 957.5,-330 1064.5,-330 1064.5,-360"/>
<text text-anchor="start" x="965.5" y="-348" font-family="Helvetica,sans-Serif" font-size="10.00">src/engine/courses</text>
<text text-anchor="middle" x="1011" y="-337" font-family="Helvetica,sans-Serif" font-size="10.00">/Skyscraper.h</text>
</a>
</g>
</g>
<!-- Node2 -->
<g id="Node000002" class="node">
<title>Node2</title>
<g id="a_Node000002"><a xlink:title=" ">
<polygon fill="#e0e0e0" stroke="#999999" points="456,-19 376,-19 376,0 456,0 456,-19"/>
<text text-anchor="middle" x="416" y="-7" font-family="Helvetica,sans-Serif" font-size="10.00">libultraship.h</text>
</a>
</g>
</g>
<!-- Node1&#45;&gt;Node2 -->
<g id="edge1_Node000001_Node000002" class="edge">
<title>Node1&#45;&gt;Node2</title>
<g id="a_edge1_Node000001_Node000002"><a xlink:title=" ">
<path fill="none" stroke="#63b8ff" d="M1064.63,-341.79C1184.36,-335.41 1463,-311.81 1463,-230.5 1463,-230.5 1463,-230.5 1463,-118.5 1463,-17.02 674.75,-10.34 466.15,-10.34"/>
<polygon fill="#63b8ff" stroke="#63b8ff" points="466.08,-6.84 456.08,-10.35 466.09,-13.84 466.08,-6.84"/>
</a>
</g>
</g>
<!-- Node3 -->
<g id="Node000003" class="node">
<title>Node3</title>
<g id="a_Node000003"><a xlink:href="Course_8h.html" target="_top" xlink:title=" ">
<polygon fill="white" stroke="#666666" points="973.5,-294 914.5,-294 914.5,-275 973.5,-275 973.5,-294"/>
<text text-anchor="middle" x="944" y="-282" font-family="Helvetica,sans-Serif" font-size="10.00">Course.h</text>
</a>
</g>
</g>
<!-- Node1&#45;&gt;Node3 -->
<g id="edge2_Node000001_Node000003" class="edge">
<title>Node1&#45;&gt;Node3</title>
<g id="a_edge2_Node000001_Node000003"><a xlink:title=" ">
<path fill="none" stroke="#63b8ff" d="M994.78,-329.84C984.76,-321.09 971.89,-309.85 961.62,-300.88"/>
<polygon fill="#63b8ff" stroke="#63b8ff" points="963.87,-298.21 954.04,-294.27 959.27,-303.48 963.87,-298.21"/>
</a>
</g>
</g>
<!-- Node6 -->
<g id="Node000006" class="node">
<title>Node6</title>
<g id="a_Node000006"><a xlink:href="camera_8h.html" target="_top" xlink:title=" ">
<polygon fill="white" stroke="#666666" points="653,-184 591,-184 591,-165 653,-165 653,-184"/>
<text text-anchor="middle" x="622" y="-172" font-family="Helvetica,sans-Serif" font-size="10.00">camera.h</text>
</a>
</g>
</g>
<!-- Node1&#45;&gt;Node6 -->
<g id="edge61_Node000001_Node000006" class="edge">
<title>Node1&#45;&gt;Node6</title>
<g id="a_edge61_Node000001_Node000006"><a xlink:title=" ">
<path fill="none" stroke="#63b8ff" d="M957.17,-337.27C860.87,-324.03 665.27,-291.23 624,-239 614.18,-226.57 614.75,-208.1 617.14,-194.28"/>
<polygon fill="#63b8ff" stroke="#63b8ff" points="620.58,-194.92 619.29,-184.4 613.74,-193.43 620.58,-194.92"/>
</a>
</g>
</g>
<!-- Node8 -->
<g id="Node000008" class="node">
<title>Node8</title>
<g id="a_Node000008"><a xlink:href="course__offsets_8h.html" target="_top" xlink:title=" ">
<polygon fill="white" stroke="#666666" points="573,-184 477,-184 477,-165 573,-165 573,-184"/>
<text text-anchor="middle" x="525" y="-172" font-family="Helvetica,sans-Serif" font-size="10.00">course_offsets.h</text>
</a>
</g>
</g>
<!-- Node1&#45;&gt;Node8 -->
<g id="edge60_Node000001_Node000008" class="edge">
<title>Node1&#45;&gt;Node8</title>
<g id="a_edge60_Node000001_Node000008"><a xlink:title=" ">
<path fill="none" stroke="#63b8ff" d="M957.3,-341.79C890.81,-337.72 774.85,-326.24 681,-294 633.76,-277.77 622.12,-270.06 583,-239 565.54,-225.14 548.72,-205.85 537.73,-192.18"/>
<polygon fill="#63b8ff" stroke="#63b8ff" points="540.33,-189.82 531.4,-184.11 534.82,-194.14 540.33,-189.82"/>
</a>
</g>
</g>
<!-- Node14 -->
<g id="Node000014" class="node">
<title>Node14</title>
<g id="a_Node000014"><a xlink:href="src_2data_2some__data_8h.html" target="_top" xlink:title=" ">
<polygon fill="white" stroke="#666666" points="1376,-239 1272,-239 1272,-220 1376,-220 1376,-239"/>
<text text-anchor="middle" x="1324" y="-227" font-family="Helvetica,sans-Serif" font-size="10.00">data/some_data.h</text>
</a>
</g>
</g>
<!-- Node1&#45;&gt;Node14 -->
<g id="edge62_Node000001_Node000014" class="edge">
<title>Node1&#45;&gt;Node14</title>
<g id="a_edge62_Node000001_Node000014"><a xlink:title=" ">
<path fill="none" stroke="#63b8ff" d="M1049.69,-329.97C1111.7,-307.49 1232.25,-263.77 1290.67,-242.59"/>
<polygon fill="#63b8ff" stroke="#63b8ff" points="1291.95,-245.84 1300.16,-239.14 1289.57,-239.26 1291.95,-245.84"/>
</a>
</g>
</g>
<!-- Node16 -->
<g id="Node000016" class="node">
<title>Node16</title>
<g id="a_Node000016"><a xlink:href="objects_8h.html" target="_top" xlink:title=" ">
<polygon fill="white" stroke="#666666" points="1434.5,-184 1373.5,-184 1373.5,-165 1434.5,-165 1434.5,-184"/>
<text text-anchor="middle" x="1404" y="-172" font-family="Helvetica,sans-Serif" font-size="10.00">objects.h</text>
</a>
</g>
</g>
<!-- Node1&#45;&gt;Node16 -->
<g id="edge63_Node000001_Node000016" class="edge">
<title>Node1&#45;&gt;Node16</title>
<g id="a_edge63_Node000001_Node000016"><a xlink:title=" ">
<path fill="none" stroke="#63b8ff" d="M1064.76,-344.34C1145.4,-341.85 1297.52,-325.1 1385,-239 1396.91,-227.28 1401.42,-208.43 1403.09,-194.31"/>
<polygon fill="#63b8ff" stroke="#63b8ff" points="1406.59,-194.47 1403.92,-184.22 1399.62,-193.9 1406.59,-194.47"/>
</a>
</g>
</g>
<!-- Node21 -->
<g id="Node000021" class="node">
<title>Node21</title>
<g id="a_Node000021"><a xlink:href="path__spawn__metadata_8h.html" target="_top" xlink:title=" ">
<polygon fill="white" stroke="#666666" points="1215.5,-239 1078.5,-239 1078.5,-220 1215.5,-220 1215.5,-239"/>
<text text-anchor="middle" x="1147" y="-227" font-family="Helvetica,sans-Serif" font-size="10.00">path_spawn_metadata.h</text>
</a>
</g>
</g>
<!-- Node1&#45;&gt;Node21 -->
<g id="edge64_Node000001_Node000021" class="edge">
<title>Node1&#45;&gt;Node21</title>
<g id="a_edge64_Node000001_Node000021"><a xlink:title=" ">
<path fill="none" stroke="#63b8ff" d="M1027.95,-329.85C1053.65,-308.41 1102.28,-267.82 1128.74,-245.74"/>
<polygon fill="#63b8ff" stroke="#63b8ff" points="1131.06,-248.37 1136.49,-239.27 1126.57,-242.99 1131.06,-248.37"/>
</a>
</g>
</g>
<!-- Node25 -->
<g id="Node000025" class="node">
<title>Node25</title>
<g id="a_Node000025"><a xlink:href="skyscraper__vertices_8h.html" target="_top" xlink:title=" ">
<polygon fill="white" stroke="#666666" points="311.5,-129 154.5,-129 154.5,-110 311.5,-110 311.5,-129"/>
<text text-anchor="middle" x="233" y="-117" font-family="Helvetica,sans-Serif" font-size="10.00">assets/skyscraper_vertices.h</text>
</a>
</g>
</g>
<!-- Node1&#45;&gt;Node25 -->
<g id="edge48_Node000001_Node000025" class="edge">
<title>Node1&#45;&gt;Node25</title>
<g id="a_edge48_Node000001_Node000025"><a xlink:title=" ">
<path fill="none" stroke="#63b8ff" d="M957.45,-343.59C875.24,-341.67 713.72,-332.76 583,-294 450.81,-254.81 307.85,-168.45 254.59,-134.55"/>
<polygon fill="#63b8ff" stroke="#63b8ff" points="256.29,-131.49 245.99,-129.03 252.52,-137.38 256.29,-131.49"/>
</a>
</g>
</g>
<!-- Node26 -->
<g id="Node000026" class="node">
<title>Node26</title>
<g id="a_Node000026"><a xlink:href="skyscraper__displaylists_8h.html" target="_top" xlink:title=" ">
<polygon fill="white" stroke="#666666" points="502.5,-129 329.5,-129 329.5,-110 502.5,-110 502.5,-129"/>
<text text-anchor="middle" x="416" y="-117" font-family="Helvetica,sans-Serif" font-size="10.00">assets/skyscraper_displaylists.h</text>
</a>
</g>
</g>
<!-- Node1&#45;&gt;Node26 -->
<g id="edge52_Node000001_Node000026" class="edge">
<title>Node1&#45;&gt;Node26</title>
<g id="a_edge52_Node000001_Node000026"><a xlink:title=" ">
<path fill="none" stroke="#63b8ff" d="M957.35,-344.66C881.83,-343.9 740.99,-336.22 630,-294 548.66,-263.06 532.24,-242.72 468,-184 452.62,-169.94 437.84,-151.22 428,-137.75"/>
<polygon fill="#63b8ff" stroke="#63b8ff" points="430.68,-135.49 422.02,-129.39 424.99,-139.56 430.68,-135.49"/>
</a>
</g>
</g>
<!-- Node27 -->
<g id="Node000027" class="node">
<title>Node27</title>
<g id="a_Node000027"><a xlink:href="skyscraper__data_8h.html" target="_top" xlink:title=" ">
<polygon fill="white" stroke="#666666" points="737,-129 597,-129 597,-110 737,-110 737,-129"/>
<text text-anchor="middle" x="667" y="-117" font-family="Helvetica,sans-Serif" font-size="10.00">assets/skyscraper_data.h</text>
</a>
</g>
</g>
<!-- Node1&#45;&gt;Node27 -->
<g id="edge56_Node000001_Node000027" class="edge">
<title>Node1&#45;&gt;Node27</title>
<g id="a_edge56_Node000001_Node000027"><a xlink:title=" ">
<path fill="none" stroke="#63b8ff" d="M1014.73,-329.78C1022.62,-296.02 1036.92,-210.51 993,-165 988.73,-160.58 842.66,-141.96 747.51,-130.26"/>
<polygon fill="#63b8ff" stroke="#63b8ff" points="747.68,-126.75 737.33,-129.01 746.82,-133.7 747.68,-126.75"/>
</a>
</g>
</g>
<!-- Node4 -->
<g id="Node000004" class="node">
<title>Node4</title>
<g id="a_Node000004"><a xlink:title=" ">
<polygon fill="#e0e0e0" stroke="#999999" points="866,-239 728,-239 728,-220 866,-220 866,-239"/>
<text text-anchor="middle" x="797" y="-227" font-family="Helvetica,sans-Serif" font-size="10.00">libultraship/libultraship.h</text>
</a>
</g>
</g>
<!-- Node3&#45;&gt;Node4 -->
<g id="edge3_Node000003_Node000004" class="edge">
<title>Node3&#45;&gt;Node4</title>
<g id="a_edge3_Node000003_Node000004"><a xlink:title=" ">
<path fill="none" stroke="#63b8ff" d="M920.38,-274.98C896.1,-266.23 858.05,-252.51 830.63,-242.62"/>
<polygon fill="#63b8ff" stroke="#63b8ff" points="831.64,-239.27 821.05,-239.17 829.27,-245.85 831.64,-239.27"/>
</a>
</g>
</g>
<!-- Node5 -->
<g id="Node000005" class="node">
<title>Node5</title>
<g id="a_Node000005"><a xlink:href="CoreMath_8h.html" target="_top" xlink:title=" ">
<polygon fill="white" stroke="#666666" points="121.5,-184 48.5,-184 48.5,-165 121.5,-165 121.5,-184"/>
<text text-anchor="middle" x="85" y="-172" font-family="Helvetica,sans-Serif" font-size="10.00">CoreMath.h</text>
</a>
</g>
</g>
<!-- Node3&#45;&gt;Node5 -->
<g id="edge4_Node000003_Node000005" class="edge">
<title>Node3&#45;&gt;Node5</title>
<g id="a_edge4_Node000003_Node000005"><a xlink:title=" ">
<path fill="none" stroke="#63b8ff" d="M914.04,-279.85C852.18,-272.3 705.81,-254.4 583,-239 416.83,-218.16 219.56,-192.83 131.48,-181.49"/>
<polygon fill="#63b8ff" stroke="#63b8ff" points="131.91,-178.02 121.54,-180.21 131.01,-184.96 131.91,-178.02"/>
</a>
</g>
</g>
<!-- Node3&#45;&gt;Node6 -->
<g id="edge6_Node000003_Node000006" class="edge">
<title>Node3&#45;&gt;Node6</title>
<g id="a_edge6_Node000003_Node000006"><a xlink:title=" ">
<path fill="none" stroke="#63b8ff" d="M914.41,-283.08C846.38,-281.51 681.57,-274.08 641,-239 628.22,-227.95 623.85,-208.7 622.45,-194.28"/>
<polygon fill="#63b8ff" stroke="#63b8ff" points="625.93,-193.79 621.85,-184.01 618.94,-194.19 625.93,-193.79"/>
</a>
</g>
</g>
<!-- Node7 -->
<g id="Node000007" class="node">
<title>Node7</title>
<g id="a_Node000007"><a xlink:href="common__structs_8h.html" target="_top" xlink:title=" ">
<polygon fill="white" stroke="#666666" points="1266.5,-74 1159.5,-74 1159.5,-55 1266.5,-55 1266.5,-74"/>
<text text-anchor="middle" x="1213" y="-62" font-family="Helvetica,sans-Serif" font-size="10.00">common_structs.h</text>
</a>
</g>
</g>
<!-- Node3&#45;&gt;Node7 -->
<g id="edge47_Node000003_Node000007" class="edge">
<title>Node3&#45;&gt;Node7</title>
<g id="a_edge47_Node000003_Node000007"><a xlink:title=" ">
<path fill="none" stroke="#63b8ff" d="M958.63,-274.81C1010.71,-243.81 1184.52,-139.92 1193,-129 1203.08,-116.02 1208.13,-97.87 1210.63,-84.3"/>
<polygon fill="#63b8ff" stroke="#63b8ff" points="1214.13,-84.6 1212.19,-74.19 1207.21,-83.54 1214.13,-84.6"/>
</a>
</g>
</g>
<!-- Node3&#45;&gt;Node8 -->
<g id="edge10_Node000003_Node000008" class="edge">
<title>Node3&#45;&gt;Node8</title>
<g id="a_edge10_Node000003_Node000008"><a xlink:title=" ">
<path fill="none" stroke="#63b8ff" d="M914.3,-283.57C856.53,-282.81 725.8,-276.65 624,-239 593.25,-227.63 562.13,-205.54 543.19,-190.65"/>
<polygon fill="#63b8ff" stroke="#63b8ff" points="545.15,-187.73 535.17,-184.19 540.76,-193.19 545.15,-187.73"/>
</a>
</g>
</g>
<!-- Node3&#45;&gt;Node14 -->
<g id="edge19_Node000003_Node000014" class="edge">
<title>Node3&#45;&gt;Node14</title>
<g id="a_edge19_Node000003_Node000014"><a xlink:title=" ">
<path fill="none" stroke="#63b8ff" d="M973.5,-279.39C1035.19,-270.78 1178.95,-250.73 1261.92,-239.16"/>
<polygon fill="#63b8ff" stroke="#63b8ff" points="1262.56,-242.6 1271.98,-237.76 1261.59,-235.67 1262.56,-242.6"/>
</a>
</g>
</g>
<!-- Node17 -->
<g id="Node000017" class="node">
<title>Node17</title>
<g id="a_Node000017"><a xlink:href="defines_8h.html" target="_top" xlink:title=" ">
<polygon fill="white" stroke="#666666" points="945.5,-239 884.5,-239 884.5,-220 945.5,-220 945.5,-239"/>
<text text-anchor="middle" x="915" y="-227" font-family="Helvetica,sans-Serif" font-size="10.00">defines.h</text>
</a>
</g>
</g>
<!-- Node3&#45;&gt;Node17 -->
<g id="edge27_Node000003_Node000017" class="edge">
<title>Node3&#45;&gt;Node17</title>
<g id="a_edge27_Node000003_Node000017"><a xlink:title=" ">
<path fill="none" stroke="#63b8ff" d="M939.21,-274.75C935.24,-267.49 929.47,-256.95 924.57,-247.98"/>
<polygon fill="#63b8ff" stroke="#63b8ff" points="927.57,-246.18 919.7,-239.09 921.43,-249.54 927.57,-246.18"/>
</a>
</g>
</g>
<!-- Node18 -->
<g id="Node000018" class="node">
<title>Node18</title>
<g id="a_Node000018"><a xlink:href="bomb__kart_8h.html" target="_top" xlink:title=" ">
<polygon fill="white" stroke="#666666" points="983.5,-184 906.5,-184 906.5,-165 983.5,-165 983.5,-184"/>
<text text-anchor="middle" x="945" y="-172" font-family="Helvetica,sans-Serif" font-size="10.00">bomb_kart.h</text>
</a>
</g>
</g>
<!-- Node3&#45;&gt;Node18 -->
<g id="edge28_Node000003_Node000018" class="edge">
<title>Node3&#45;&gt;Node18</title>
<g id="a_edge28_Node000003_Node000018"><a xlink:title=" ">
<path fill="none" stroke="#63b8ff" d="M946.83,-274.75C949.55,-265.86 953.46,-251.64 955,-239 956.86,-223.75 953.82,-206.54 950.62,-193.88"/>
<polygon fill="#63b8ff" stroke="#63b8ff" points="953.95,-192.79 947.89,-184.1 947.21,-194.67 953.95,-192.79"/>
</a>
</g>
</g>
<!-- Node3&#45;&gt;Node21 -->
<g id="edge35_Node000003_Node000021" class="edge">
<title>Node3&#45;&gt;Node21</title>
<g id="a_edge35_Node000003_Node000021"><a xlink:title=" ">
<path fill="none" stroke="#63b8ff" d="M973.52,-275.79C1008.01,-266.79 1065.36,-251.81 1104.61,-241.57"/>
<polygon fill="#63b8ff" stroke="#63b8ff" points="1105.63,-244.92 1114.42,-239.01 1103.86,-238.15 1105.63,-244.92"/>
</a>
</g>
</g>
<!-- Node22 -->
<g id="Node000022" class="node">
<title>Node22</title>
<g id="a_Node000022"><a xlink:href="waypoints_8h.html" target="_top" xlink:title=" ">
<polygon fill="white" stroke="#666666" points="1241,-184 1165,-184 1165,-165 1241,-165 1241,-184"/>
<text text-anchor="middle" x="1203" y="-172" font-family="Helvetica,sans-Serif" font-size="10.00">waypoints.h</text>
</a>
</g>
</g>
<!-- Node3&#45;&gt;Node22 -->
<g id="edge45_Node000003_Node000022" class="edge">
<title>Node3&#45;&gt;Node22</title>
<g id="a_edge45_Node000003_Node000022"><a xlink:title=" ">
<path fill="none" stroke="#63b8ff" d="M973.85,-283.44C1039.46,-282.59 1192.92,-276.56 1225,-239 1236.31,-225.75 1226.95,-206.36 1217.18,-192.5"/>
<polygon fill="#63b8ff" stroke="#63b8ff" points="1219.76,-190.12 1210.91,-184.3 1214.2,-194.37 1219.76,-190.12"/>
</a>
</g>
</g>
<!-- Node24 -->
<g id="Node000024" class="node">
<title>Node24</title>
<g id="a_Node000024"><a xlink:href="sounds_8h.html" target="_top" xlink:title=" ">
<polygon fill="white" stroke="#666666" points="710,-239 650,-239 650,-220 710,-220 710,-239"/>
<text text-anchor="middle" x="680" y="-227" font-family="Helvetica,sans-Serif" font-size="10.00">sounds.h</text>
</a>
</g>
</g>
<!-- Node3&#45;&gt;Node24 -->
<g id="edge46_Node000003_Node000024" class="edge">
<title>Node3&#45;&gt;Node24</title>
<g id="a_edge46_Node000003_Node000024"><a xlink:title=" ">
<path fill="none" stroke="#63b8ff" d="M914.48,-277.85C873.29,-269.93 795.99,-254.91 720.39,-239.26"/>
<polygon fill="#63b8ff" stroke="#63b8ff" points="720.72,-235.75 710.22,-237.15 719.3,-242.61 720.72,-235.75"/>
</a>
</g>
</g>
<!-- Node5&#45;&gt;Node2 -->
<g id="edge5_Node000005_Node000002" class="edge">
<title>Node5&#45;&gt;Node2</title>
<g id="a_edge5_Node000005_Node000002"><a xlink:title=" ">
<path fill="none" stroke="#63b8ff" d="M65.42,-164.98C51.33,-157.68 33.4,-145.68 25,-129 10.21,-99.62 3.1,-79.54 25,-55 47.33,-29.99 265.32,-17.17 365.77,-12.55"/>
<polygon fill="#63b8ff" stroke="#63b8ff" points="366.15,-16.04 375.98,-12.09 365.83,-9.04 366.15,-16.04"/>
</a>
</g>
</g>
<!-- Node6&#45;&gt;Node2 -->
<g id="edge7_Node000006_Node000002" class="edge">
<title>Node6&#45;&gt;Node2</title>
<g id="a_edge7_Node000006_Node000002"><a xlink:title=" ">
<path fill="none" stroke="#63b8ff" d="M590.63,-166.4C587.72,-165.88 584.81,-165.4 582,-165 525.97,-157.1 112.57,-170.4 74,-129 51.58,-104.94 52.3,-79.71 74,-55 92.95,-33.42 275.58,-19.19 365.92,-13.42"/>
<polygon fill="#63b8ff" stroke="#63b8ff" points="366.17,-16.91 375.93,-12.79 365.73,-9.92 366.17,-16.91"/>
</a>
</g>
</g>
<!-- Node6&#45;&gt;Node7 -->
<g id="edge8_Node000006_Node000007" class="edge">
<title>Node6&#45;&gt;Node7</title>
<g id="a_edge8_Node000006_Node000007"><a xlink:title=" ">
<path fill="none" stroke="#63b8ff" d="M653.23,-173.24C750.79,-172.05 1048.64,-165.44 1137,-129 1161.95,-118.71 1184.87,-97.17 1198.87,-82.05"/>
<polygon fill="#63b8ff" stroke="#63b8ff" points="1201.64,-84.2 1205.69,-74.41 1196.42,-79.54 1201.64,-84.2"/>
</a>
</g>
</g>
<!-- Node7&#45;&gt;Node2 -->
<g id="edge9_Node000007_Node000002" class="edge">
<title>Node7&#45;&gt;Node2</title>
<g id="a_edge9_Node000007_Node000002"><a xlink:title=" ">
<path fill="none" stroke="#63b8ff" d="M1159.47,-59.94C1013.23,-50.22 608.41,-23.29 466.19,-13.84"/>
<polygon fill="#63b8ff" stroke="#63b8ff" points="466.22,-10.33 456.01,-13.16 465.76,-17.32 466.22,-10.33"/>
</a>
</g>
</g>
<!-- Node8&#45;&gt;Node2 -->
<g id="edge11_Node000008_Node000002" class="edge">
<title>Node8&#45;&gt;Node2</title>
<g id="a_edge11_Node000008_Node000002"><a xlink:title=" ">
<path fill="none" stroke="#63b8ff" d="M476.79,-172.67C360.13,-170.17 70,-160.79 41,-129 18.83,-104.7 19.16,-79.59 41,-55 62.22,-31.12 268.48,-17.81 365.74,-12.81"/>
<polygon fill="#63b8ff" stroke="#63b8ff" points="366.11,-16.3 375.92,-12.3 365.75,-9.31 366.11,-16.3"/>
</a>
</g>
</g>
<!-- Node9 -->
<g id="Node000009" class="node">
<title>Node9</title>
<g id="a_Node000009"><a xlink:title=" ">
<polygon fill="#e0e0e0" stroke="#999999" points="90,-19 0,-19 0,0 90,0 90,-19"/>
<text text-anchor="middle" x="45" y="-7" font-family="Helvetica,sans-Serif" font-size="10.00">libultra/types.h</text>
</a>
</g>
</g>
<!-- Node8&#45;&gt;Node9 -->
<g id="edge12_Node000008_Node000009" class="edge">
<title>Node8&#45;&gt;Node9</title>
<g id="a_edge12_Node000008_Node000009"><a xlink:title=" ">
<path fill="none" stroke="#63b8ff" d="M476.96,-172.83C357.64,-170.67 55.15,-161.95 25,-129 -0.36,-101.28 19.86,-53.91 34.08,-28.26"/>
<polygon fill="#63b8ff" stroke="#63b8ff" points="37.29,-29.7 39.3,-19.29 31.25,-26.17 37.29,-29.7"/>
</a>
</g>
</g>
<!-- Node10 -->
<g id="Node000010" class="node">
<title>Node10</title>
<g id="a_Node000010"><a xlink:title=" ">
<polygon fill="#e0e0e0" stroke="#999999" points="546,-74 468,-74 468,-55 546,-55 546,-74"/>
<text text-anchor="middle" x="507" y="-62" font-family="Helvetica,sans-Serif" font-size="10.00">libultra/gbi.h</text>
</a>
</g>
</g>
<!-- Node8&#45;&gt;Node10 -->
<g id="edge13_Node000008_Node000010" class="edge">
<title>Node8&#45;&gt;Node10</title>
<g id="a_edge13_Node000008_Node000010"><a xlink:title=" ">
<path fill="none" stroke="#63b8ff" d="M523.53,-164.66C520.61,-147.17 514.05,-107.8 510.13,-84.27"/>
<polygon fill="#63b8ff" stroke="#63b8ff" points="513.54,-83.45 508.44,-74.16 506.63,-84.6 513.54,-83.45"/>
</a>
</g>
</g>
<!-- Node11 -->
<g id="Node000011" class="node">
<title>Node11</title>
<g id="a_Node000011"><a xlink:href="other__textures_8h.html" target="_top" xlink:title=" ">
<polygon fill="white" stroke="#666666" points="1034.5,-129 903.5,-129 903.5,-110 1034.5,-110 1034.5,-129"/>
<text text-anchor="middle" x="969" y="-117" font-family="Helvetica,sans-Serif" font-size="10.00">assets/other_textures.h</text>
</a>
</g>
</g>
<!-- Node8&#45;&gt;Node11 -->
<g id="edge14_Node000008_Node000011" class="edge">
<title>Node8&#45;&gt;Node11</title>
<g id="a_edge14_Node000008_Node000011"><a xlink:title=" ">
<path fill="none" stroke="#63b8ff" d="M573.19,-166.2C576.17,-165.78 579.12,-165.38 582,-165 597.18,-163 784.67,-141.54 893,-129.17"/>
<polygon fill="#63b8ff" stroke="#63b8ff" points="893.69,-132.62 903.23,-128 892.9,-125.66 893.69,-132.62"/>
</a>
</g>
</g>
<!-- Node13 -->
<g id="Node000013" class="node">
<title>Node13</title>
<g id="a_Node000013"><a xlink:href="animation_8h.html" target="_top" xlink:title=" ">
<polygon fill="white" stroke="#666666" points="1127.5,-129 1052.5,-129 1052.5,-110 1127.5,-110 1127.5,-129"/>
<text text-anchor="middle" x="1090" y="-117" font-family="Helvetica,sans-Serif" font-size="10.00">animation.h</text>
</a>
</g>
</g>
<!-- Node8&#45;&gt;Node13 -->
<g id="edge17_Node000008_Node000013" class="edge">
<title>Node8&#45;&gt;Node13</title>
<g id="a_edge17_Node000008_Node000013"><a xlink:title=" ">
<path fill="none" stroke="#63b8ff" d="M573.17,-166.07C576.16,-165.69 579.12,-165.33 582,-165 783.35,-142.17 838.04,-155.31 1042.24,-129.1"/>
<polygon fill="#63b8ff" stroke="#63b8ff" points="1042.93,-132.54 1052.4,-127.78 1042.03,-125.6 1042.93,-132.54"/>
</a>
</g>
</g>
<!-- Node11&#45;&gt;Node2 -->
<g id="edge15_Node000011_Node000002" class="edge">
<title>Node11&#45;&gt;Node2</title>
<g id="a_edge15_Node000011_Node000002"><a xlink:title=" ">
<path fill="none" stroke="#63b8ff" d="M943.07,-109.99C901.21,-96.54 815.93,-70.31 742,-55 645.43,-35 530.85,-21.74 466.47,-15.22"/>
<polygon fill="#63b8ff" stroke="#63b8ff" points="466.5,-11.71 456.2,-14.2 465.8,-18.67 466.5,-11.71"/>
</a>
</g>
</g>
<!-- Node12 -->
<g id="Node000012" class="node">
<title>Node12</title>
<g id="a_Node000012"><a xlink:href="align__asset__macro_8h.html" target="_top" xlink:title=" ">
<polygon fill="white" stroke="#666666" points="681.5,-74 564.5,-74 564.5,-55 681.5,-55 681.5,-74"/>
<text text-anchor="middle" x="623" y="-62" font-family="Helvetica,sans-Serif" font-size="10.00">align_asset_macro.h</text>
</a>
</g>
</g>
<!-- Node11&#45;&gt;Node12 -->
<g id="edge16_Node000011_Node000012" class="edge">
<title>Node11&#45;&gt;Node12</title>
<g id="a_edge16_Node000011_Node000012"><a xlink:title=" ">
<path fill="none" stroke="#63b8ff" d="M913.41,-109.98C852.21,-100.61 753.9,-85.55 688.88,-75.59"/>
<polygon fill="#63b8ff" stroke="#63b8ff" points="689.15,-72.09 678.74,-74.04 688.09,-79.01 689.15,-72.09"/>
</a>
</g>
</g>
<!-- Node13&#45;&gt;Node7 -->
<g id="edge18_Node000013_Node000007" class="edge">
<title>Node13&#45;&gt;Node7</title>
<g id="a_edge18_Node000013_Node000007"><a xlink:title=" ">
<path fill="none" stroke="#63b8ff" d="M1109.76,-109.98C1129.73,-101.38 1160.8,-87.99 1183.65,-78.15"/>
<polygon fill="#63b8ff" stroke="#63b8ff" points="1185.08,-81.34 1192.88,-74.17 1182.31,-74.91 1185.08,-81.34"/>
</a>
</g>
</g>
<!-- Node14&#45;&gt;Node10 -->
<g id="edge20_Node000014_Node000010" class="edge">
<title>Node14&#45;&gt;Node10</title>
<g id="a_edge20_Node000014_Node000010"><a xlink:title=" ">
<path fill="none" stroke="#63b8ff" d="M1317.36,-219.95C1305.6,-205.54 1279.54,-176.86 1250,-165 1113.28,-110.11 725.9,-180.85 588,-129 561.47,-119.03 536.72,-97.03 521.73,-81.74"/>
<polygon fill="#63b8ff" stroke="#63b8ff" points="523.87,-78.92 514.45,-74.06 518.79,-83.73 523.87,-78.92"/>
</a>
</g>
</g>
<!-- Node14&#45;&gt;Node11 -->
<g id="edge23_Node000014_Node000011" class="edge">
<title>Node14&#45;&gt;Node11</title>
<g id="a_edge23_Node000014_Node000011"><a xlink:title=" ">
<path fill="none" stroke="#63b8ff" d="M1321.09,-219.8C1315.89,-205.71 1303.56,-178.15 1283,-165 1273.02,-158.62 1134.52,-140.7 1044.83,-129.65"/>
<polygon fill="#63b8ff" stroke="#63b8ff" points="1045.04,-126.15 1034.69,-128.4 1044.19,-133.09 1045.04,-126.15"/>
</a>
</g>
</g>
<!-- Node15 -->
<g id="Node000015" class="node">
<title>Node15</title>
<g id="a_Node000015"><a xlink:href="spline_8h.html" target="_top" xlink:title=" ">
<polygon fill="white" stroke="#666666" points="1391.5,-129 1336.5,-129 1336.5,-110 1391.5,-110 1391.5,-129"/>
<text text-anchor="middle" x="1364" y="-117" font-family="Helvetica,sans-Serif" font-size="10.00">spline.h</text>
</a>
</g>
</g>
<!-- Node14&#45;&gt;Node15 -->
<g id="edge21_Node000014_Node000015" class="edge">
<title>Node14&#45;&gt;Node15</title>
<g id="a_edge21_Node000014_Node000015"><a xlink:title=" ">
<path fill="none" stroke="#63b8ff" d="M1327.27,-219.66C1333.81,-202.01 1348.6,-162.09 1357.28,-138.64"/>
<polygon fill="#63b8ff" stroke="#63b8ff" points="1360.6,-139.75 1360.79,-129.16 1354.04,-137.32 1360.6,-139.75"/>
</a>
</g>
</g>
<!-- Node14&#45;&gt;Node16 -->
<g id="edge24_Node000014_Node000016" class="edge">
<title>Node14&#45;&gt;Node16</title>
<g id="a_edge24_Node000014_Node000016"><a xlink:title=" ">
<path fill="none" stroke="#63b8ff" d="M1336.85,-219.98C1349.14,-211.84 1367.91,-199.41 1382.48,-189.76"/>
<polygon fill="#63b8ff" stroke="#63b8ff" points="1384.51,-192.61 1390.91,-184.17 1380.64,-186.78 1384.51,-192.61"/>
</a>
</g>
</g>
<!-- Node15&#45;&gt;Node7 -->
<g id="edge22_Node000015_Node000007" class="edge">
<title>Node15&#45;&gt;Node7</title>
<g id="a_edge22_Node000015_Node000007"><a xlink:title=" ">
<path fill="none" stroke="#63b8ff" d="M1339.74,-109.98C1314.68,-101.19 1275.37,-87.39 1247.17,-77.49"/>
<polygon fill="#63b8ff" stroke="#63b8ff" points="1248.3,-74.18 1237.7,-74.17 1245.98,-80.78 1248.3,-74.18"/>
</a>
</g>
</g>
<!-- Node16&#45;&gt;Node7 -->
<g id="edge26_Node000016_Node000007" class="edge">
<title>Node16&#45;&gt;Node7</title>
<g id="a_edge26_Node000016_Node000007"><a xlink:title=" ">
<path fill="none" stroke="#63b8ff" d="M1406.5,-164.96C1409.85,-151.59 1413.97,-125.63 1401,-110 1385.15,-90.9 1324.81,-79.02 1276.71,-72.38"/>
<polygon fill="#63b8ff" stroke="#63b8ff" points="1277.02,-68.9 1266.65,-71.05 1276.1,-75.83 1277.02,-68.9"/>
</a>
</g>
</g>
<!-- Node16&#45;&gt;Node15 -->
<g id="edge25_Node000016_Node000015" class="edge">
<title>Node16&#45;&gt;Node15</title>
<g id="a_edge25_Node000016_Node000015"><a xlink:title=" ">
<path fill="none" stroke="#63b8ff" d="M1397.39,-164.75C1391.74,-157.26 1383.46,-146.28 1376.55,-137.13"/>
<polygon fill="#63b8ff" stroke="#63b8ff" points="1379.3,-134.96 1370.48,-129.09 1373.71,-139.18 1379.3,-134.96"/>
</a>
</g>
</g>
<!-- Node18&#45;&gt;Node7 -->
<g id="edge29_Node000018_Node000007" class="edge">
<title>Node18&#45;&gt;Node7</title>
<g id="a_edge29_Node000018_Node000007"><a xlink:title=" ">
<path fill="none" stroke="#63b8ff" d="M983.53,-166.67C1045.76,-155.52 1162.24,-134.14 1170,-129 1186.61,-117.99 1198.5,-98.15 1205.5,-83.57"/>
<polygon fill="#63b8ff" stroke="#63b8ff" points="1208.86,-84.64 1209.74,-74.08 1202.47,-81.78 1208.86,-84.64"/>
</a>
</g>
</g>
<!-- Node19 -->
<g id="Node000019" class="node">
<title>Node19</title>
<g id="a_Node000019"><a xlink:href="mk64_8h.html" target="_top" xlink:title=" ">
<polygon fill="white" stroke="#666666" points="136.5,-129 83.5,-129 83.5,-110 136.5,-110 136.5,-129"/>
<text text-anchor="middle" x="110" y="-117" font-family="Helvetica,sans-Serif" font-size="10.00">mk64.h</text>
</a>
</g>
</g>
<!-- Node18&#45;&gt;Node19 -->
<g id="edge30_Node000018_Node000019" class="edge">
<title>Node18&#45;&gt;Node19</title>
<g id="a_edge30_Node000018_Node000019"><a xlink:title=" ">
<path fill="none" stroke="#63b8ff" d="M906.31,-172.29C770.33,-167.87 313.9,-151.82 146.77,-128.95"/>
<polygon fill="#63b8ff" stroke="#63b8ff" points="147.05,-125.45 136.65,-127.5 146.06,-132.38 147.05,-125.45"/>
</a>
</g>
</g>
<!-- Node19&#45;&gt;Node2 -->
<g id="edge31_Node000019_Node000002" class="edge">
<title>Node19&#45;&gt;Node2</title>
<g id="a_edge31_Node000019_Node000002"><a xlink:title=" ">
<path fill="none" stroke="#63b8ff" d="M134.27,-109.94C188.5,-90.79 319.64,-44.51 381.98,-22.51"/>
<polygon fill="#63b8ff" stroke="#63b8ff" points="383.47,-25.69 391.73,-19.07 381.14,-19.09 383.47,-25.69"/>
</a>
</g>
</g>
<!-- Node19&#45;&gt;Node10 -->
<g id="edge34_Node000019_Node000010" class="edge">
<title>Node19&#45;&gt;Node10</title>
<g id="a_edge34_Node000019_Node000010"><a xlink:title=" ">
<path fill="none" stroke="#63b8ff" d="M136.68,-111.68C139.48,-111.07 142.29,-110.49 145,-110 255.95,-89.78 387.74,-76.15 457.67,-69.74"/>
<polygon fill="#63b8ff" stroke="#63b8ff" points="458.29,-73.19 467.94,-68.8 457.66,-66.22 458.29,-73.19"/>
</a>
</g>
</g>
<!-- Node20 -->
<g id="Node000020" class="node">
<title>Node20</title>
<g id="a_Node000020"><a xlink:href="string_8h.html" target="_top" xlink:title=" ">
<polygon fill="white" stroke="#666666" points="136.5,-74 83.5,-74 83.5,-55 136.5,-55 136.5,-74"/>
<text text-anchor="middle" x="110" y="-62" font-family="Helvetica,sans-Serif" font-size="10.00">string.h</text>
</a>
</g>
</g>
<!-- Node19&#45;&gt;Node20 -->
<g id="edge32_Node000019_Node000020" class="edge">
<title>Node19&#45;&gt;Node20</title>
<g id="a_edge32_Node000019_Node000020"><a xlink:title=" ">
<path fill="none" stroke="#63b8ff" d="M110,-109.75C110,-102.8 110,-92.85 110,-84.13"/>
<polygon fill="#63b8ff" stroke="#63b8ff" points="113.5,-84.09 110,-74.09 106.5,-84.09 113.5,-84.09"/>
</a>
</g>
</g>
<!-- Node20&#45;&gt;Node9 -->
<g id="edge33_Node000020_Node000009" class="edge">
<title>Node20&#45;&gt;Node9</title>
<g id="a_edge33_Node000020_Node000009"><a xlink:title=" ">
<path fill="none" stroke="#63b8ff" d="M99.56,-54.98C89.85,-47.07 75.18,-35.11 63.5,-25.58"/>
<polygon fill="#63b8ff" stroke="#63b8ff" points="65.6,-22.78 55.63,-19.17 61.17,-28.2 65.6,-22.78"/>
</a>
</g>
</g>
<!-- Node21&#45;&gt;Node7 -->
<g id="edge38_Node000021_Node000007" class="edge">
<title>Node21&#45;&gt;Node7</title>
<g id="a_edge38_Node000021_Node000007"><a xlink:title=" ">
<path fill="none" stroke="#63b8ff" d="M1145.68,-219.65C1144.22,-206.31 1143.49,-180.94 1156,-165 1182.6,-131.11 1221.85,-164.67 1246,-129 1256.48,-113.52 1243.24,-94.3 1230.54,-81.08"/>
<polygon fill="#63b8ff" stroke="#63b8ff" points="1232.93,-78.52 1223.31,-74.07 1228.05,-83.55 1232.93,-78.52"/>
</a>
</g>
</g>
<!-- Node21&#45;&gt;Node18 -->
<g id="edge44_Node000021_Node000018" class="edge">
<title>Node21&#45;&gt;Node18</title>
<g id="a_edge44_Node000021_Node000018"><a xlink:title=" ">
<path fill="none" stroke="#63b8ff" d="M1114.55,-219.98C1080.04,-210.93 1025.34,-196.58 987.44,-186.64"/>
<polygon fill="#63b8ff" stroke="#63b8ff" points="988.27,-183.23 977.71,-184.08 986.49,-190.01 988.27,-183.23"/>
</a>
</g>
</g>
<!-- Node21&#45;&gt;Node22 -->
<g id="edge36_Node000021_Node000022" class="edge">
<title>Node21&#45;&gt;Node22</title>
<g id="a_edge36_Node000021_Node000022"><a xlink:title=" ">
<path fill="none" stroke="#63b8ff" d="M1156,-219.98C1164.19,-212.23 1176.51,-200.58 1186.47,-191.14"/>
<polygon fill="#63b8ff" stroke="#63b8ff" points="1188.98,-193.59 1193.84,-184.17 1184.17,-188.5 1188.98,-193.59"/>
</a>
</g>
</g>
<!-- Node23 -->
<g id="Node000023" class="node">
<title>Node23</title>
<g id="a_Node000023"><a xlink:href="common__data_8h.html" target="_top" xlink:title=" ">
<polygon fill="white" stroke="#666666" points="885,-129 755,-129 755,-110 885,-110 885,-129"/>
<text text-anchor="middle" x="820" y="-117" font-family="Helvetica,sans-Serif" font-size="10.00">assets/common_data.h</text>
</a>
</g>
</g>
<!-- Node21&#45;&gt;Node23 -->
<g id="edge39_Node000021_Node000023" class="edge">
<title>Node21&#45;&gt;Node23</title>
<g id="a_edge39_Node000021_Node000023"><a xlink:title=" ">
<path fill="none" stroke="#63b8ff" d="M1138.7,-219.92C1124.69,-205.99 1094.86,-178.66 1064,-165 1034.41,-151.9 955.45,-138.84 895.3,-130.29"/>
<polygon fill="#63b8ff" stroke="#63b8ff" points="895.45,-126.78 885.06,-128.86 894.48,-133.71 895.45,-126.78"/>
</a>
</g>
</g>
<!-- Node22&#45;&gt;Node7 -->
<g id="edge37_Node000022_Node000007" class="edge">
<title>Node22&#45;&gt;Node7</title>
<g id="a_edge37_Node000022_Node000007"><a xlink:title=" ">
<path fill="none" stroke="#63b8ff" d="M1234.42,-164.97C1252.34,-158.32 1273.3,-147.09 1284,-129 1296.56,-107.77 1270.37,-89.71 1246.32,-78.35"/>
<polygon fill="#63b8ff" stroke="#63b8ff" points="1247.52,-75.05 1236.96,-74.18 1244.67,-81.44 1247.52,-75.05"/>
</a>
</g>
</g>
<!-- Node23&#45;&gt;Node2 -->
<g id="edge41_Node000023_Node000002" class="edge">
<title>Node23&#45;&gt;Node2</title>
<g id="a_edge41_Node000023_Node000002"><a xlink:title=" ">
<path fill="none" stroke="#63b8ff" d="M808.15,-109.91C788.29,-95.98 746.57,-68.64 707,-55 625.63,-26.96 525.4,-16.56 466.33,-12.72"/>
<polygon fill="#63b8ff" stroke="#63b8ff" points="466.34,-9.21 456.15,-12.09 465.91,-16.2 466.34,-9.21"/>
</a>
</g>
</g>
<!-- Node23&#45;&gt;Node7 -->
<g id="edge42_Node000023_Node000007" class="edge">
<title>Node23&#45;&gt;Node7</title>
<g id="a_edge42_Node000023_Node000007"><a xlink:title=" ">
<path fill="none" stroke="#63b8ff" d="M883.14,-109.98C956.29,-100.12 1076.13,-83.96 1149.46,-74.07"/>
<polygon fill="#63b8ff" stroke="#63b8ff" points="1150.04,-77.52 1159.48,-72.72 1149.11,-70.59 1150.04,-77.52"/>
</a>
</g>
</g>
<!-- Node23&#45;&gt;Node10 -->
<g id="edge40_Node000023_Node000010" class="edge">
<title>Node23&#45;&gt;Node10</title>
<g id="a_edge40_Node000023_Node000010"><a xlink:title=" ">
<path fill="none" stroke="#63b8ff" d="M768.18,-109.94C716.94,-101.44 635.99,-87.93 556.25,-74.2"/>
<polygon fill="#63b8ff" stroke="#63b8ff" points="556.48,-70.69 546.03,-72.44 555.29,-77.59 556.48,-70.69"/>
</a>
</g>
</g>
<!-- Node23&#45;&gt;Node12 -->
<g id="edge43_Node000023_Node000012" class="edge">
<title>Node23&#45;&gt;Node12</title>
<g id="a_edge43_Node000023_Node000012"><a xlink:title=" ">
<path fill="none" stroke="#63b8ff" d="M788.35,-109.98C754.84,-100.97 701.8,-86.7 664.86,-76.76"/>
<polygon fill="#63b8ff" stroke="#63b8ff" points="665.47,-73.3 654.9,-74.08 663.65,-80.06 665.47,-73.3"/>
</a>
</g>
</g>
<!-- Node25&#45;&gt;Node2 -->
<g id="edge49_Node000025_Node000002" class="edge">
<title>Node25&#45;&gt;Node2</title>
<g id="a_edge49_Node000025_Node000002"><a xlink:title=" ">
<path fill="none" stroke="#63b8ff" d="M247.67,-109.84C279.33,-91.16 354.33,-46.9 392.62,-24.3"/>
<polygon fill="#63b8ff" stroke="#63b8ff" points="394.68,-27.14 401.52,-19.05 391.13,-21.12 394.68,-27.14"/>
</a>
</g>
</g>
<!-- Node25&#45;&gt;Node10 -->
<g id="edge50_Node000025_Node000010" class="edge">
<title>Node25&#45;&gt;Node10</title>
<g id="a_edge50_Node000025_Node000010"><a xlink:title=" ">
<path fill="none" stroke="#63b8ff" d="M277.02,-109.98C326.52,-100.41 406.67,-84.91 458.09,-74.96"/>
<polygon fill="#63b8ff" stroke="#63b8ff" points="458.81,-78.39 467.97,-73.05 457.48,-71.51 458.81,-78.39"/>
</a>
</g>
</g>
<!-- Node25&#45;&gt;Node12 -->
<g id="edge51_Node000025_Node000012" class="edge">
<title>Node25&#45;&gt;Node12</title>
<g id="a_edge51_Node000025_Node000012"><a xlink:title=" ">
<path fill="none" stroke="#63b8ff" d="M295.66,-109.98C366.4,-100.37 481.14,-84.78 554.29,-74.84"/>
<polygon fill="#63b8ff" stroke="#63b8ff" points="554.89,-78.29 564.32,-73.47 553.94,-71.35 554.89,-78.29"/>
</a>
</g>
</g>
<!-- Node26&#45;&gt;Node2 -->
<g id="edge53_Node000026_Node000002" class="edge">
<title>Node26&#45;&gt;Node2</title>
<g id="a_edge53_Node000026_Node000002"><a xlink:title=" ">
<path fill="none" stroke="#63b8ff" d="M416,-109.66C416,-92.17 416,-52.8 416,-29.27"/>
<polygon fill="#63b8ff" stroke="#63b8ff" points="419.5,-29.16 416,-19.16 412.5,-29.16 419.5,-29.16"/>
</a>
</g>
</g>
<!-- Node26&#45;&gt;Node10 -->
<g id="edge54_Node000026_Node000010" class="edge">
<title>Node26&#45;&gt;Node10</title>
<g id="a_edge54_Node000026_Node000010"><a xlink:title=" ">
<path fill="none" stroke="#63b8ff" d="M430.62,-109.98C444.86,-101.69 466.75,-88.94 483.45,-79.22"/>
<polygon fill="#63b8ff" stroke="#63b8ff" points="485.23,-82.23 492.11,-74.17 481.71,-76.18 485.23,-82.23"/>
</a>
</g>
</g>
<!-- Node26&#45;&gt;Node12 -->
<g id="edge55_Node000026_Node000012" class="edge">
<title>Node26&#45;&gt;Node12</title>
<g id="a_edge55_Node000026_Node000012"><a xlink:title=" ">
<path fill="none" stroke="#63b8ff" d="M449.26,-109.98C484.61,-100.93 540.67,-86.58 579.51,-76.64"/>
<polygon fill="#63b8ff" stroke="#63b8ff" points="580.66,-79.95 589.48,-74.08 578.93,-73.17 580.66,-79.95"/>
</a>
</g>
</g>
<!-- Node27&#45;&gt;Node2 -->
<g id="edge57_Node000027_Node000002" class="edge">
<title>Node27&#45;&gt;Node2</title>
<g id="a_edge57_Node000027_Node000002"><a xlink:title=" ">
<path fill="none" stroke="#63b8ff" d="M675.34,-109.74C686.91,-96.54 704.9,-71.33 691,-55 662.69,-21.74 537.44,-13.26 466.13,-11.15"/>
<polygon fill="#63b8ff" stroke="#63b8ff" points="466.11,-7.65 456.02,-10.88 465.92,-14.65 466.11,-7.65"/>
</a>
</g>
</g>
<!-- Node27&#45;&gt;Node10 -->
<g id="edge58_Node000027_Node000010" class="edge">
<title>Node27&#45;&gt;Node10</title>
<g id="a_edge58_Node000027_Node000010"><a xlink:title=" ">
<path fill="none" stroke="#63b8ff" d="M641.29,-109.98C614.55,-101.13 572.47,-87.19 542.55,-77.28"/>
<polygon fill="#63b8ff" stroke="#63b8ff" points="543.5,-73.9 532.91,-74.08 541.3,-80.55 543.5,-73.9"/>
</a>
</g>
</g>
<!-- Node27&#45;&gt;Node12 -->
<g id="edge59_Node000027_Node000012" class="edge">
<title>Node27&#45;&gt;Node12</title>
<g id="a_edge59_Node000027_Node000012"><a xlink:title=" ">
<path fill="none" stroke="#63b8ff" d="M659.73,-109.75C653.46,-102.18 644.21,-91.05 636.57,-81.84"/>
<polygon fill="#63b8ff" stroke="#63b8ff" points="639.21,-79.55 630.13,-74.09 633.83,-84.02 639.21,-79.55"/>
</a>
</g>
</g>
</g>
</svg>
