<?xml version="1.0" encoding="UTF-8" standalone="no"?>
<!DOCTYPE svg PUBLIC "-//W3C//DTD SVG 1.1//EN"
 "http://www.w3.org/Graphics/SVG/1.1/DTD/svg11.dtd">
<!-- Generated by graphviz version 2.43.0 (0)
 -->
<!-- Title: memcpy Pages: 1 -->
<!--zoomable 923 -->

<svg id="main" version="1.1" xmlns="http://www.w3.org/2000/svg" xmlns:xlink="http://www.w3.org/1999/xlink" xml:space="preserve" onload="init(evt)">

<style type="text/css"><![CDATA[
.node, .edge {opacity: 0.7;}
.node.selected, .edge.selected {opacity: 1;}
.edge:hover path { stroke: red; }
.edge:hover polygon { stroke: red; fill: red; }
]]></style>

<defs>
  <circle id="rim" cx="0" cy="0" r="7"/>
  <circle id="rim2" cx="0" cy="0" r="3.5"/>
  <g id="zoomPlus">
    <use xlink:href="#rim" fill="#404040"><set attributeName="fill" to="#808080" begin="zoomplus.mouseover" end="zoomplus.mouseout"/></use>
    <path d="M-4,0h8M0,-4v8" fill="none" stroke="white" stroke-width="1.5" pointer-events="none"/>
  </g>
  <g id="zoomMin">
    <use xlink:href="#rim" fill="#404040"><set attributeName="fill" to="#808080" begin="zoomminus.mouseover" end="zoomminus.mouseout"/></use>
    <path d="M-4,0h8" fill="none" stroke="white" stroke-width="1.5" pointer-events="none"/>
  </g>
  <g id="arrowUp" transform="translate(30 24)">
    <use xlink:href="#rim"/>
    <path pointer-events="none" fill="none" stroke="white" stroke-width="1.5" d="M0,-3.0v7 M-2.5,-0.5L0,-3.0L2.5,-0.5"/>
  </g>
  <g id="arrowRight" transform="rotate(90) translate(36 -43)">
    <use xlink:href="#rim"/>
    <path pointer-events="none" fill="none" stroke="white" stroke-width="1.5" d="M0,-3.0v7 M-2.5,-0.5L0,-3.0L2.5,-0.5"/>
  </g>
  <g id="arrowDown" transform="rotate(180) translate(-30 -48)">
    <use xlink:href="#rim"/>
    <path pointer-events="none" fill="none" stroke="white" stroke-width="1.5" d="M0,-3.0v7 M-2.5,-0.5L0,-3.0L2.5,-0.5"/>
  </g>
  <g id="arrowLeft" transform="rotate(270) translate(-36 17)">
    <use xlink:href="#rim"/>
    <path pointer-events="none" fill="none" stroke="white" stroke-width="1.5" d="M0,-3.0v7 M-2.5,-0.5L0,-3.0L2.5,-0.5"/>
  </g>
  <g id="resetDef">
    <use xlink:href="#rim2" fill="#404040"><set attributeName="fill" to="#808080" begin="reset.mouseover" end="reset.mouseout"/></use>
  </g>
</defs>
<script type="application/ecmascript">
var viewWidth = 1012;
var viewHeight = 923;
var sectionId = 'dynsection-2';
</script>
<script type="application/ecmascript" xlink:href="svg.min.js"/>
<svg id="graph" class="graph">
<g id="viewport">
<title>memcpy</title>
<!-- Node1 -->
<g id="Node000001" class="node">
<title>Node1</title>
<g id="a_Node000001"><a xlink:title=" ">
<polygon fill="#999999" stroke="#666666" points="1004,-505 945,-505 945,-486 1004,-486 1004,-505"/>
<text text-anchor="middle" x="974.5" y="-493" font-family="Helvetica,sans-Serif" font-size="10.00">memcpy</text>
</a>
</g>
</g>
<!-- Node2 -->
<g id="Node000002" class="node">
<title>Node2</title>
<g id="a_Node000002"><a xlink:href="__Ldtob_8c.html#a2b6c5318b43bab1636bad9113ffb2761" target="_top" xlink:title=" ">
<polygon fill="white" stroke="#666666" points="874,-804 824,-804 824,-785 874,-785 874,-804"/>
<text text-anchor="middle" x="849" y="-792" font-family="Helvetica,sans-Serif" font-size="10.00">_Genld</text>
</a>
</g>
</g>
<!-- Node1&#45;&gt;Node2 -->
<g id="edge1_Node000001_Node000002" class="edge">
<title>Node1&#45;&gt;Node2</title>
<g id="a_edge1_Node000001_Node000002"><a xlink:title=" ">
<path fill="none" stroke="#63b8ff" d="M971.24,-515.13C964.43,-571.34 942.47,-731.36 909,-770.5 900.16,-780.84 886.2,-786.78 874.07,-790.17"/>
<polygon fill="#63b8ff" stroke="#63b8ff" points="974.74,-515.41 972.44,-505.07 967.79,-514.59 974.74,-515.41"/>
</a>
</g>
</g>
<!-- Node3 -->
<g id="Node000003" class="node">
<title>Node3</title>
<g id="a_Node000003"><a xlink:href="__Ldtob_8c.html#a7cc858157b66e15c831ad085113729ae" target="_top" xlink:title=" ">
<polygon fill="white" stroke="#666666" points="700,-804 651,-804 651,-785 700,-785 700,-804"/>
<text text-anchor="middle" x="675.5" y="-792" font-family="Helvetica,sans-Serif" font-size="10.00">_Ldtob</text>
</a>
</g>
</g>
<!-- Node1&#45;&gt;Node3 -->
<g id="edge12_Node000001_Node000003" class="edge">
<title>Node1&#45;&gt;Node3</title>
<g id="a_edge12_Node000001_Node000003"><a xlink:title=" ">
<path fill="none" stroke="#63b8ff" d="M972.62,-515.56C969.35,-579.32 955.6,-775.4 909,-813.5 846.13,-864.89 739.12,-824.13 695.68,-804.04"/>
<polygon fill="#63b8ff" stroke="#63b8ff" points="976.13,-515.42 973.11,-505.26 969.13,-515.08 976.13,-515.42"/>
</a>
</g>
</g>
<!-- Node115 -->
<g id="Node000115" class="node">
<title>Node115</title>
<g id="a_Node000115"><a xlink:href="__Litob_8c.html#aaaba3b0ab7920d422a61fe9e22600dd0" target="_top" xlink:title=" ">
<polygon fill="white" stroke="#666666" points="698.5,-767 652.5,-767 652.5,-748 698.5,-748 698.5,-767"/>
<text text-anchor="middle" x="675.5" y="-755" font-family="Helvetica,sans-Serif" font-size="10.00">_Litob</text>
</a>
</g>
</g>
<!-- Node1&#45;&gt;Node115 -->
<g id="edge13_Node000001_Node000115" class="edge">
<title>Node1&#45;&gt;Node115</title>
<g id="a_edge13_Node000001_Node000115"><a xlink:title=" ">
<path fill="none" stroke="#63b8ff" d="M970.99,-515.19C964,-566.77 942.56,-703.88 909,-732.5 848.3,-784.26 743.8,-771.29 698.5,-762.46"/>
<polygon fill="#63b8ff" stroke="#63b8ff" points="974.49,-515.4 972.33,-505.03 967.55,-514.49 974.49,-515.4"/>
</a>
</g>
</g>
<!-- Node116 -->
<g id="Node000116" class="node">
<title>Node116</title>
<g id="a_Node000116"><a xlink:href="mixer_8c.html#a7938a510708c526174e6649526385dee" target="_top" xlink:title=" ">
<polygon fill="white" stroke="#666666" points="898,-690 800,-690 800,-671 898,-671 898,-690"/>
<text text-anchor="middle" x="849" y="-678" font-family="Helvetica,sans-Serif" font-size="10.00">aADPCMdecImpl</text>
</a>
</g>
</g>
<!-- Node1&#45;&gt;Node116 -->
<g id="edge15_Node000001_Node000116" class="edge">
<title>Node1&#45;&gt;Node116</title>
<g id="a_edge15_Node000001_Node000116"><a xlink:title=" ">
<path fill="none" stroke="#63b8ff" d="M971.44,-515.29C966.76,-550.1 952.14,-622.37 909,-662.5 905.31,-665.93 900.99,-668.7 896.39,-670.95"/>
<polygon fill="#63b8ff" stroke="#63b8ff" points="974.96,-515.37 972.67,-505.03 968.01,-514.54 974.96,-515.37"/>
</a>
</g>
</g>
<!-- Node117 -->
<g id="Node000117" class="node">
<title>Node117</title>
<g id="a_Node000117"><a xlink:href="mixer_8c.html#ae6ecfb0de822ee485b5af25a1f673932" target="_top" xlink:title=" ">
<polygon fill="white" stroke="#666666" points="894.5,-653 803.5,-653 803.5,-634 894.5,-634 894.5,-653"/>
<text text-anchor="middle" x="849" y="-641" font-family="Helvetica,sans-Serif" font-size="10.00">aDuplicateImpl</text>
</a>
</g>
</g>
<!-- Node1&#45;&gt;Node117 -->
<g id="edge16_Node000001_Node000117" class="edge">
<title>Node1&#45;&gt;Node117</title>
<g id="a_edge16_Node000001_Node000117"><a xlink:title=" ">
<path fill="none" stroke="#63b8ff" d="M968.98,-515.27C961.45,-543.76 943.61,-596.16 909,-625.5 904.75,-629.1 899.8,-631.98 894.59,-634.29"/>
<polygon fill="#63b8ff" stroke="#63b8ff" points="972.44,-515.85 971.45,-505.3 965.65,-514.16 972.44,-515.85"/>
</a>
</g>
</g>
<!-- Node118 -->
<g id="Node000118" class="node">
<title>Node118</title>
<g id="a_Node000118"><a xlink:href="mixer_8c.html#a49fd8ddd11623cb73bef4300d8e796e1" target="_top" xlink:title=" ">
<polygon fill="white" stroke="#666666" points="883.5,-616 814.5,-616 814.5,-597 883.5,-597 883.5,-616"/>
<text text-anchor="middle" x="849" y="-604" font-family="Helvetica,sans-Serif" font-size="10.00">aFilterImpl</text>
</a>
</g>
</g>
<!-- Node1&#45;&gt;Node118 -->
<g id="edge17_Node000001_Node000118" class="edge">
<title>Node1&#45;&gt;Node118</title>
<g id="a_edge17_Node000001_Node000118"><a xlink:title=" ">
<path fill="none" stroke="#63b8ff" d="M965.09,-514.5C954.82,-535.59 935.46,-569.19 909,-588.5 901.56,-593.93 892.46,-597.74 883.66,-600.41"/>
<polygon fill="#63b8ff" stroke="#63b8ff" points="968.34,-515.81 969.4,-505.27 962,-512.85 968.34,-515.81"/>
</a>
</g>
</g>
<!-- Node119 -->
<g id="Node000119" class="node">
<title>Node119</title>
<g id="a_Node000119"><a xlink:href="mixer_8c.html#a085bc9a3483aa8e58ee35e81d332228b" target="_top" xlink:title=" ">
<polygon fill="white" stroke="#666666" points="901,-579 797,-579 797,-560 901,-560 901,-579"/>
<text text-anchor="middle" x="849" y="-567" font-family="Helvetica,sans-Serif" font-size="10.00">aLoadADPCMImpl</text>
</a>
</g>
</g>
<!-- Node1&#45;&gt;Node119 -->
<g id="edge18_Node000001_Node000119" class="edge">
<title>Node1&#45;&gt;Node119</title>
<g id="a_edge18_Node000001_Node000119"><a xlink:title=" ">
<path fill="none" stroke="#63b8ff" d="M957.67,-512.67C945.44,-525.02 927.52,-541.25 909,-551.5 903,-554.82 896.32,-557.6 889.66,-559.91"/>
<polygon fill="#63b8ff" stroke="#63b8ff" points="960.43,-514.85 964.84,-505.21 955.38,-510 960.43,-514.85"/>
</a>
</g>
</g>
<!-- Node120 -->
<g id="Node000120" class="node">
<title>Node120</title>
<g id="a_Node000120"><a xlink:href="mixer_8c.html#a3f344b56668f8ec957d0e9cf6f8a8181" target="_top" xlink:title=" ">
<polygon fill="white" stroke="#666666" points="897.5,-542 800.5,-542 800.5,-523 897.5,-523 897.5,-542"/>
<text text-anchor="middle" x="849" y="-530" font-family="Helvetica,sans-Serif" font-size="10.00">aLoadBufferImpl</text>
</a>
</g>
</g>
<!-- Node1&#45;&gt;Node120 -->
<g id="edge19_Node000001_Node000120" class="edge">
<title>Node1&#45;&gt;Node120</title>
<g id="a_edge19_Node000001_Node000120"><a xlink:title=" ">
<path fill="none" stroke="#63b8ff" d="M935.18,-506.98C918.1,-512.1 898.22,-518.05 881.96,-522.92"/>
<polygon fill="#63b8ff" stroke="#63b8ff" points="936.28,-510.3 944.86,-504.08 934.27,-503.6 936.28,-510.3"/>
</a>
</g>
</g>
<!-- Node121 -->
<g id="Node000121" class="node">
<title>Node121</title>
<g id="a_Node000121"><a xlink:href="mixer_8c.html#ab209a67ca3106bf0590ffc4790bc14a2" target="_top" xlink:title=" ">
<polygon fill="white" stroke="#666666" points="895.5,-505 802.5,-505 802.5,-486 895.5,-486 895.5,-505"/>
<text text-anchor="middle" x="849" y="-493" font-family="Helvetica,sans-Serif" font-size="10.00">aResampleImpl</text>
</a>
</g>
</g>
<!-- Node1&#45;&gt;Node121 -->
<g id="edge20_Node000001_Node000121" class="edge">
<title>Node1&#45;&gt;Node121</title>
<g id="a_edge20_Node000001_Node000121"><a xlink:title=" ">
<path fill="none" stroke="#63b8ff" d="M934.5,-495.5C922.24,-495.5 908.59,-495.5 895.9,-495.5"/>
<polygon fill="#63b8ff" stroke="#63b8ff" points="934.86,-499 944.86,-495.5 934.86,-492 934.86,-499"/>
</a>
</g>
</g>
<!-- Node122 -->
<g id="Node000122" class="node">
<title>Node122</title>
<g id="a_Node000122"><a xlink:href="mixer_8c.html#a934e7d92ee6fe6fa60f621496471d4ec" target="_top" xlink:title=" ">
<polygon fill="white" stroke="#666666" points="886.5,-468 811.5,-468 811.5,-449 886.5,-449 886.5,-468"/>
<text text-anchor="middle" x="849" y="-456" font-family="Helvetica,sans-Serif" font-size="10.00">aS8DecImpl</text>
</a>
</g>
</g>
<!-- Node1&#45;&gt;Node122 -->
<g id="edge21_Node000001_Node000122" class="edge">
<title>Node1&#45;&gt;Node122</title>
<g id="a_edge21_Node000001_Node000122"><a xlink:title=" ">
<path fill="none" stroke="#63b8ff" d="M935.18,-484.02C918.1,-478.9 898.22,-472.95 881.96,-468.08"/>
<polygon fill="#63b8ff" stroke="#63b8ff" points="934.27,-487.4 944.86,-486.92 936.28,-480.7 934.27,-487.4"/>
</a>
</g>
</g>
<!-- Node123 -->
<g id="Node000123" class="node">
<title>Node123</title>
<g id="a_Node000123"><a xlink:href="mixer_8c.html#aee48bceba268e2ef25d6b8bfaae71400" target="_top" xlink:title=" ">
<polygon fill="white" stroke="#666666" points="898,-431 800,-431 800,-412 898,-412 898,-431"/>
<text text-anchor="middle" x="849" y="-419" font-family="Helvetica,sans-Serif" font-size="10.00">aSaveBufferImpl</text>
</a>
</g>
</g>
<!-- Node1&#45;&gt;Node123 -->
<g id="edge22_Node000001_Node000123" class="edge">
<title>Node1&#45;&gt;Node123</title>
<g id="a_edge22_Node000001_Node000123"><a xlink:title=" ">
<path fill="none" stroke="#63b8ff" d="M957.14,-478.32C944.87,-466.29 927.13,-450.61 909,-440.5 902.33,-436.78 894.82,-433.66 887.45,-431.1"/>
<polygon fill="#63b8ff" stroke="#63b8ff" points="954.84,-480.97 964.36,-485.6 959.81,-476.04 954.84,-480.97"/>
</a>
</g>
</g>
<!-- Node124 -->
<g id="Node000124" class="node">
<title>Node124</title>
<g id="a_Node000124"><a xlink:href="start__game_8c.html#a2e086956a1c0bd2f6ac8111273c3cb29" target="_top" xlink:title=" ">
<polygon fill="white" stroke="#666666" points="905.5,-394 792.5,-394 792.5,-375 905.5,-375 905.5,-394"/>
<text text-anchor="middle" x="849" y="-382" font-family="Helvetica,sans-Serif" font-size="10.00">assign_player_slots</text>
</a>
</g>
</g>
<!-- Node1&#45;&gt;Node124 -->
<g id="edge23_Node000001_Node000124" class="edge">
<title>Node1&#45;&gt;Node124</title>
<g id="a_edge23_Node000001_Node000124"><a xlink:title=" ">
<path fill="none" stroke="#63b8ff" d="M964.99,-476.78C954.61,-455.98 935.17,-422.8 909,-403.5 903.8,-399.67 897.8,-396.59 891.66,-394.12"/>
<polygon fill="#63b8ff" stroke="#63b8ff" points="961.87,-478.37 969.34,-485.88 968.18,-475.35 961.87,-478.37"/>
</a>
</g>
</g>
<!-- Node130 -->
<g id="Node000130" class="node">
<title>Node130</title>
<g id="a_Node000130"><a xlink:href="mixer_8c.html#a05ec48171b802632d2172ccc1c39069e" target="_top" xlink:title=" ">
<polygon fill="white" stroke="#666666" points="898,-320 800,-320 800,-301 898,-301 898,-320"/>
<text text-anchor="middle" x="849" y="-308" font-family="Helvetica,sans-Serif" font-size="10.00">aUnkCmd19Impl</text>
</a>
</g>
</g>
<!-- Node1&#45;&gt;Node130 -->
<g id="edge29_Node000001_Node000130" class="edge">
<title>Node1&#45;&gt;Node130</title>
<g id="a_edge29_Node000001_Node000130"><a xlink:title=" ">
<path fill="none" stroke="#63b8ff" d="M971.27,-475.4C966.36,-440.71 951.45,-369.51 909,-329.5 904.85,-325.59 899.89,-322.48 894.63,-320.01"/>
<polygon fill="#63b8ff" stroke="#63b8ff" points="967.84,-476.18 972.58,-485.66 974.79,-475.3 967.84,-476.18"/>
</a>
</g>
</g>
<!-- Node131 -->
<g id="Node000131" class="node">
<title>Node131</title>
<g id="a_Node000131"><a xlink:href="classModelLoader.html#a4be93e4e4c67207ac012298c9388c6d7" target="_top" xlink:title=" ">
<polygon fill="white" stroke="#666666" points="909,-283 789,-283 789,-264 909,-264 909,-283"/>
<text text-anchor="middle" x="849" y="-271" font-family="Helvetica,sans-Serif" font-size="10.00">ModelLoader::Extract</text>
</a>
</g>
</g>
<!-- Node1&#45;&gt;Node131 -->
<g id="edge30_Node000001_Node000131" class="edge">
<title>Node1&#45;&gt;Node131</title>
<g id="a_edge30_Node000001_Node000131"><a xlink:title=" ">
<path fill="none" stroke="#63b8ff" d="M972.96,-475.8C970.8,-435.66 960.18,-343.88 909,-292.5 905.13,-288.61 900.46,-285.52 895.46,-283.06"/>
<polygon fill="#63b8ff" stroke="#63b8ff" points="969.47,-476.04 973.38,-485.88 976.46,-475.74 969.47,-476.04"/>
</a>
</g>
</g>
<!-- Node133 -->
<g id="Node000133" class="node">
<title>Node133</title>
<g id="a_Node000133"><a xlink:href="kart__dma_8c.html#a637d0acc4b8a5146a83b664d348b21f2" target="_top" xlink:title=" ">
<polygon fill="white" stroke="#666666" points="899.5,-246 798.5,-246 798.5,-227 899.5,-227 899.5,-246"/>
<text text-anchor="middle" x="849" y="-234" font-family="Helvetica,sans-Serif" font-size="10.00">load_kart_palette</text>
</a>
</g>
</g>
<!-- Node1&#45;&gt;Node133 -->
<g id="edge32_Node000001_Node000133" class="edge">
<title>Node1&#45;&gt;Node133</title>
<g id="a_edge32_Node000001_Node000133"><a xlink:title=" ">
<path fill="none" stroke="#63b8ff" d="M974.13,-475.7C974.46,-430.4 968.79,-318.3 909,-255.5 905.29,-251.6 900.78,-248.5 895.92,-246.04"/>
<polygon fill="#63b8ff" stroke="#63b8ff" points="970.63,-475.65 973.95,-485.71 977.63,-475.77 970.63,-475.65"/>
</a>
</g>
</g>
<!-- Node142 -->
<g id="Node000142" class="node">
<title>Node142</title>
<g id="a_Node000142"><a xlink:href="memory_8c.html#a3617f7116e3cc000b7ebf38ad3bae48f" target="_top" xlink:title=" ">
<polygon fill="white" stroke="#666666" points="907,-93 791,-93 791,-74 907,-74 907,-93"/>
<text text-anchor="middle" x="849" y="-81" font-family="Helvetica,sans-Serif" font-size="10.00">load_lakitu_tlut_x64</text>
</a>
</g>
</g>
<!-- Node1&#45;&gt;Node142 -->
<g id="edge37_Node000001_Node000142" class="edge">
<title>Node1&#45;&gt;Node142</title>
<g id="a_edge37_Node000001_Node000142"><a xlink:title=" ">
<path fill="none" stroke="#63b8ff" d="M973.23,-475.72C971.78,-421.48 962.85,-266.89 909,-153.5 897.27,-128.81 874.67,-105.7 861.1,-93.19"/>
<polygon fill="#63b8ff" stroke="#63b8ff" points="969.73,-476.06 973.44,-485.98 976.73,-475.91 969.73,-476.06"/>
</a>
</g>
</g>
<!-- Node155 -->
<g id="Node000155" class="node">
<title>Node155</title>
<g id="a_Node000155"><a xlink:href="kart__dma_8c.html#a7fcac9592dc14342151b0dcc0f6b0746" target="_top" xlink:title="read data from ROM and write it to the given virtual address">
<polygon fill="white" stroke="#666666" points="905,-192.5 793,-192.5 793,-162.5 905,-162.5 905,-192.5"/>
<text text-anchor="start" x="801" y="-180.5" font-family="Helvetica,sans-Serif" font-size="10.00">load_wheel_palette</text>
<text text-anchor="middle" x="849" y="-169.5" font-family="Helvetica,sans-Serif" font-size="10.00">_non_blocking</text>
</a>
</g>
</g>
<!-- Node1&#45;&gt;Node155 -->
<g id="edge46_Node000001_Node000155" class="edge">
<title>Node1&#45;&gt;Node155</title>
<g id="a_edge46_Node000001_Node000155"><a xlink:title=" ">
<path fill="none" stroke="#63b8ff" d="M973.59,-475.64C972.88,-427.32 965.34,-301.54 909,-218.5 901.79,-207.87 890.83,-199.15 880.3,-192.54"/>
<polygon fill="#63b8ff" stroke="#63b8ff" points="970.09,-475.96 973.65,-485.94 977.09,-475.92 970.09,-475.96"/>
</a>
</g>
</g>
<!-- Node163 -->
<g id="Node000163" class="node">
<title>Node163</title>
<g id="a_Node000163"><a xlink:href="sprintf_8c.html#a6151eb738d6a0c5af66836e8a50fad9e" target="_top" xlink:title=" ">
<polygon fill="white" stroke="#666666" points="387.5,-728 313.5,-728 313.5,-709 387.5,-709 387.5,-728"/>
<text text-anchor="middle" x="350.5" y="-716" font-family="Helvetica,sans-Serif" font-size="10.00">proutSprintf</text>
</a>
</g>
</g>
<!-- Node1&#45;&gt;Node163 -->
<g id="edge50_Node000001_Node000163" class="edge">
<title>Node1&#45;&gt;Node163</title>
<g id="a_edge50_Node000001_Node000163"><a xlink:title=" ">
<path fill="none" stroke="#63b8ff" d="M974.09,-515.41C974.12,-557.45 967.54,-655.06 909,-699.5 867.68,-730.86 505.04,-723.04 387.85,-719.65"/>
<polygon fill="#63b8ff" stroke="#63b8ff" points="977.59,-515.28 973.95,-505.33 970.59,-515.38 977.59,-515.28"/>
</a>
</g>
</g>
<!-- Node164 -->
<g id="Node000164" class="node">
<title>Node164</title>
<g id="a_Node000164"><a xlink:href="packets_8c.html#af9536eb7dd70435bff139db61e546862" target="_top" xlink:title=" ">
<polygon fill="white" stroke="#666666" points="896.5,-357 801.5,-357 801.5,-338 896.5,-338 896.5,-357"/>
<text text-anchor="middle" x="849" y="-345" font-family="Helvetica,sans-Serif" font-size="10.00">send_str_packet</text>
</a>
</g>
</g>
<!-- Node1&#45;&gt;Node164 -->
<g id="edge52_Node000001_Node000164" class="edge">
<title>Node1&#45;&gt;Node164</title>
<g id="a_edge52_Node000001_Node000164"><a xlink:title=" ">
<path fill="none" stroke="#63b8ff" d="M968.88,-475.95C961.21,-447.76 943.22,-395.87 909,-366.5 904.51,-362.64 899.22,-359.57 893.69,-357.12"/>
<polygon fill="#63b8ff" stroke="#63b8ff" points="965.53,-476.99 971.39,-485.81 972.31,-475.26 965.53,-476.99"/>
</a>
</g>
</g>
<!-- Node2&#45;&gt;Node3 -->
<g id="edge2_Node000002_Node000003" class="edge">
<title>Node2&#45;&gt;Node3</title>
<g id="a_edge2_Node000002_Node000003"><a xlink:title=" ">
<path fill="none" stroke="#63b8ff" d="M813.48,-794.5C779.77,-794.5 729.38,-794.5 700.03,-794.5"/>
<polygon fill="#63b8ff" stroke="#63b8ff" points="813.79,-798 823.79,-794.5 813.79,-791 813.79,-798"/>
</a>
</g>
</g>
<!-- Node4 -->
<g id="Node000004" class="node">
<title>Node4</title>
<g id="a_Node000004"><a xlink:href="__Printf_8c.html#ad73a5847f2d7c9de14cc2723da86bf45" target="_top" xlink:title=" ">
<polygon fill="white" stroke="#666666" points="522.5,-803 472.5,-803 472.5,-784 522.5,-784 522.5,-803"/>
<text text-anchor="middle" x="497.5" y="-791" font-family="Helvetica,sans-Serif" font-size="10.00">_Putfld</text>
</a>
</g>
</g>
<!-- Node3&#45;&gt;Node4 -->
<g id="edge3_Node000003_Node000004" class="edge">
<title>Node3&#45;&gt;Node4</title>
<g id="a_edge3_Node000003_Node000004"><a xlink:title=" ">
<path fill="none" stroke="#63b8ff" d="M640.67,-794.31C606.1,-794.11 553.29,-793.81 522.71,-793.64"/>
<polygon fill="#63b8ff" stroke="#63b8ff" points="640.74,-797.81 650.76,-794.37 640.78,-790.81 640.74,-797.81"/>
</a>
</g>
</g>
<!-- Node5 -->
<g id="Node000005" class="node">
<title>Node5</title>
<g id="a_Node000005"><a xlink:href="__Printf_8c.html#a39bb05c90efce6c6790c5d58d271d72d" target="_top" xlink:title=" ">
<polygon fill="white" stroke="#666666" points="374.5,-803 326.5,-803 326.5,-784 374.5,-784 374.5,-803"/>
<text text-anchor="middle" x="350.5" y="-791" font-family="Helvetica,sans-Serif" font-size="10.00">_Printf</text>
</a>
</g>
</g>
<!-- Node4&#45;&gt;Node5 -->
<g id="edge4_Node000004_Node000005" class="edge">
<title>Node4&#45;&gt;Node5</title>
<g id="a_edge4_Node000004_Node000005"><a xlink:title=" ">
<path fill="none" stroke="#63b8ff" d="M462.08,-793.5C435.17,-793.5 398.48,-793.5 374.89,-793.5"/>
<polygon fill="#63b8ff" stroke="#63b8ff" points="462.23,-797 472.23,-793.5 462.23,-790 462.23,-797"/>
</a>
</g>
</g>
<!-- Node6 -->
<g id="Node000006" class="node">
<title>Node6</title>
<g id="a_Node000006"><a xlink:href="is__debug_8c.html#a0a0b1c5c397ef1486b9b08b2e872ff5f" target="_top" xlink:title=" ">
<polygon fill="white" stroke="#666666" points="249.5,-765 172.5,-765 172.5,-746 249.5,-746 249.5,-765"/>
<text text-anchor="middle" x="211" y="-753" font-family="Helvetica,sans-Serif" font-size="10.00">osSyncPrintf</text>
</a>
</g>
</g>
<!-- Node5&#45;&gt;Node6 -->
<g id="edge5_Node000005_Node000006" class="edge">
<title>Node5&#45;&gt;Node6</title>
<g id="a_edge5_Node000005_Node000006"><a xlink:title=" ">
<path fill="none" stroke="#63b8ff" d="M316.65,-784.42C295.46,-778.56 267.94,-770.96 246.45,-765.02"/>
<polygon fill="#63b8ff" stroke="#63b8ff" points="315.91,-787.85 326.49,-787.14 317.78,-781.1 315.91,-787.85"/>
</a>
</g>
</g>
<!-- Node7 -->
<g id="Node000007" class="node">
<title>Node7</title>
<g id="a_Node000007"><a xlink:href="osSyncPrintf_8c.html#a8b417b868747c80d58f83d8a1e78ecf3" target="_top" xlink:title=" ">
<polygon fill="white" stroke="#666666" points="93,-784 25,-784 25,-765 93,-765 93,-784"/>
<text text-anchor="middle" x="59" y="-772" font-family="Helvetica,sans-Serif" font-size="10.00">rmonPrintf</text>
</a>
</g>
</g>
<!-- Node5&#45;&gt;Node7 -->
<g id="edge10_Node000005_Node000007" class="edge">
<title>Node5&#45;&gt;Node7</title>
<g id="a_edge10_Node000005_Node000007"><a xlink:title=" ">
<path fill="none" stroke="#63b8ff" d="M316.26,-791.32C260.58,-787.66 149.08,-780.35 93.34,-776.69"/>
<polygon fill="#63b8ff" stroke="#63b8ff" points="316.09,-794.81 326.3,-791.98 316.55,-787.83 316.09,-794.81"/>
</a>
</g>
</g>
<!-- Node8 -->
<g id="Node000008" class="node">
<title>Node8</title>
<g id="a_Node000008"><a xlink:href="is__debug_8c.html#a07582d28e6728e94c69884a4ad3038f8" target="_top" xlink:title=" ">
<polygon fill="white" stroke="#666666" points="268,-915 154,-915 154,-896 268,-896 268,-915"/>
<text text-anchor="middle" x="211" y="-903" font-family="Helvetica,sans-Serif" font-size="10.00">osSyncPrintfUnused</text>
</a>
</g>
</g>
<!-- Node5&#45;&gt;Node8 -->
<g id="edge7_Node000005_Node000008" class="edge">
<title>Node5&#45;&gt;Node8</title>
<g id="a_edge7_Node000005_Node000008"><a xlink:title=" ">
<path fill="none" stroke="#63b8ff" d="M338.24,-811.68C324.25,-832.82 298.48,-867.37 268,-887.5 262.89,-890.88 257.1,-893.66 251.22,-895.94"/>
<polygon fill="#63b8ff" stroke="#63b8ff" points="341.35,-813.32 343.81,-803.01 335.46,-809.53 341.35,-813.32"/>
</a>
</g>
</g>
<!-- Node9 -->
<g id="Node000009" class="node">
<title>Node9</title>
<g id="a_Node000009"><a xlink:href="is__debug_8c.html#a42e65774c872bb2ffd35e7827f481776" target="_top" xlink:title=" ">
<polygon fill="white" stroke="#666666" points="230.5,-878 191.5,-878 191.5,-859 230.5,-859 230.5,-878"/>
<text text-anchor="middle" x="211" y="-866" font-family="Helvetica,sans-Serif" font-size="10.00">print</text>
</a>
</g>
</g>
<!-- Node5&#45;&gt;Node9 -->
<g id="edge8_Node000005_Node000009" class="edge">
<title>Node5&#45;&gt;Node9</title>
<g id="a_edge8_Node000005_Node000009"><a xlink:title=" ">
<path fill="none" stroke="#63b8ff" d="M330.06,-809.61C314.17,-822.14 290.71,-839.23 268,-850.5 256.11,-856.4 241.85,-860.95 230.7,-864"/>
<polygon fill="#63b8ff" stroke="#63b8ff" points="332.45,-812.18 338.05,-803.19 328.07,-806.72 332.45,-812.18"/>
</a>
</g>
</g>
<!-- Node10 -->
<g id="Node000010" class="node">
<title>Node10</title>
<g id="a_Node000010"><a xlink:href="stubs_8c.html#a8b417b868747c80d58f83d8a1e78ecf3" target="_top" xlink:title=" ">
<polygon fill="#fff0f0" stroke="red" points="245,-841 177,-841 177,-822 245,-822 245,-841"/>
<text text-anchor="middle" x="211" y="-829" font-family="Helvetica,sans-Serif" font-size="10.00">rmonPrintf</text>
</a>
</g>
</g>
<!-- Node5&#45;&gt;Node10 -->
<g id="edge9_Node000005_Node000010" class="edge">
<title>Node5&#45;&gt;Node10</title>
<g id="a_edge9_Node000005_Node000010"><a xlink:title=" ">
<path fill="none" stroke="#63b8ff" d="M316.76,-802.55C295.12,-808.53 266.86,-816.34 245.14,-822.34"/>
<polygon fill="#63b8ff" stroke="#63b8ff" points="317.78,-805.9 326.49,-799.86 315.91,-799.15 317.78,-805.9"/>
</a>
</g>
</g>
<!-- Node114 -->
<g id="Node000114" class="node">
<title>Node114</title>
<g id="a_Node000114"><a xlink:href="sprintf_8c.html#a353b2f73aed82bd1eb8cc2b34ec936d9" target="_top" xlink:title=" ">
<polygon fill="white" stroke="#666666" points="235,-728 187,-728 187,-709 235,-709 235,-728"/>
<text text-anchor="middle" x="211" y="-716" font-family="Helvetica,sans-Serif" font-size="10.00">sprintf</text>
</a>
</g>
</g>
<!-- Node5&#45;&gt;Node114 -->
<g id="edge11_Node000005_Node000114" class="edge">
<title>Node5&#45;&gt;Node114</title>
<g id="a_edge11_Node000005_Node000114"><a xlink:title=" ">
<path fill="none" stroke="#63b8ff" d="M329.69,-777.58C313.76,-765.36 290.4,-748.73 268,-737.5 257.63,-732.3 245.5,-727.99 235.19,-724.8"/>
<polygon fill="#63b8ff" stroke="#63b8ff" points="327.69,-780.46 337.73,-783.85 332,-774.94 327.69,-780.46"/>
</a>
</g>
</g>
<!-- Node6&#45;&gt;Node7 -->
<g id="edge6_Node000006_Node000007" class="edge">
<title>Node6&#45;&gt;Node7</title>
<g id="a_edge6_Node000006_Node000007"><a xlink:title=" ">
<path fill="none" stroke="#63b8ff" d="M162.13,-761.56C139.68,-764.41 113.49,-767.73 93.24,-770.29"/>
<polygon fill="#63b8ff" stroke="#63b8ff" points="162.67,-765.02 172.15,-760.29 161.79,-758.08 162.67,-765.02"/>
</a>
</g>
</g>
<!-- Node115&#45;&gt;Node4 -->
<g id="edge14_Node000115_Node000004" class="edge">
<title>Node115&#45;&gt;Node4</title>
<g id="a_edge14_Node000115_Node000004"><a xlink:title=" ">
<path fill="none" stroke="#63b8ff" d="M642.15,-764.12C607.58,-771.19 553.59,-782.23 522.58,-788.57"/>
<polygon fill="#63b8ff" stroke="#63b8ff" points="643.11,-767.49 652.21,-762.06 641.71,-760.63 643.11,-767.49"/>
</a>
</g>
</g>
<!-- Node125 -->
<g id="Node000125" class="node">
<title>Node125</title>
<g id="a_Node000125"><a xlink:href="networking_8c.html#ae4e16a7c6d8ea252f0434363561595e1" target="_top" xlink:title=" ">
<polygon fill="white" stroke="#666666" points="734.5,-405 616.5,-405 616.5,-386 734.5,-386 734.5,-405"/>
<text text-anchor="middle" x="675.5" y="-393" font-family="Helvetica,sans-Serif" font-size="10.00">handleReceivedData</text>
</a>
</g>
</g>
<!-- Node124&#45;&gt;Node125 -->
<g id="edge24_Node000124_Node000125" class="edge">
<title>Node124&#45;&gt;Node125</title>
<g id="a_edge24_Node000124_Node000125"><a xlink:title=" ">
<path fill="none" stroke="#63b8ff" d="M782.17,-388.72C766.49,-389.73 749.86,-390.79 734.55,-391.78"/>
<polygon fill="#63b8ff" stroke="#63b8ff" points="782.56,-392.2 792.32,-388.07 782.12,-385.22 782.56,-392.2"/>
</a>
</g>
</g>
<!-- Node126 -->
<g id="Node000126" class="node">
<title>Node126</title>
<g id="a_Node000126"><a xlink:href="networking_8c.html#a6fdfec7636de6ab68fc5108c84c29844" target="_top" xlink:title=" ">
<polygon fill="white" stroke="#666666" points="546.5,-405 448.5,-405 448.5,-386 546.5,-386 546.5,-405"/>
<text text-anchor="middle" x="497.5" y="-393" font-family="Helvetica,sans-Serif" font-size="10.00">networking_loop</text>
</a>
</g>
</g>
<!-- Node125&#45;&gt;Node126 -->
<g id="edge25_Node000125_Node000126" class="edge">
<title>Node125&#45;&gt;Node126</title>
<g id="a_edge25_Node000125_Node000126"><a xlink:title=" ">
<path fill="none" stroke="#63b8ff" d="M606.13,-395.5C586.24,-395.5 564.93,-395.5 546.57,-395.5"/>
<polygon fill="#63b8ff" stroke="#63b8ff" points="606.38,-399 616.38,-395.5 606.38,-392 606.38,-399"/>
</a>
</g>
</g>
<!-- Node127 -->
<g id="Node000127" class="node">
<title>Node127</title>
<g id="a_Node000127"><a xlink:href="networking_8c.html#a2b0991e893dd2f433a112ea46449bd4e" target="_top" xlink:title=" ">
<polygon fill="white" stroke="#666666" points="396.5,-387 304.5,-387 304.5,-368 396.5,-368 396.5,-387"/>
<text text-anchor="middle" x="350.5" y="-375" font-family="Helvetica,sans-Serif" font-size="10.00">networking_init</text>
</a>
</g>
</g>
<!-- Node126&#45;&gt;Node127 -->
<g id="edge26_Node000126_Node000127" class="edge">
<title>Node126&#45;&gt;Node127</title>
<g id="a_edge26_Node000126_Node000127"><a xlink:title=" ">
<path fill="none" stroke="#63b8ff" d="M438.28,-388.27C424.41,-386.55 409.81,-384.74 396.63,-383.1"/>
<polygon fill="#63b8ff" stroke="#63b8ff" points="437.86,-391.75 448.22,-389.51 438.72,-384.8 437.86,-391.75"/>
</a>
</g>
</g>
<!-- Node128 -->
<g id="Node000128" class="node">
<title>Node128</title>
<g id="a_Node000128"><a xlink:href="networking_8c.html#a9c6ade683b9f080f25707e0812ef7a6c" target="_top" xlink:title=" ">
<polygon fill="white" stroke="#666666" points="260,-358 162,-358 162,-339 260,-339 260,-358"/>
<text text-anchor="middle" x="211" y="-346" font-family="Helvetica,sans-Serif" font-size="10.00">ConnectToServer</text>
</a>
</g>
</g>
<!-- Node127&#45;&gt;Node128 -->
<g id="edge27_Node000127_Node000128" class="edge">
<title>Node127&#45;&gt;Node128</title>
<g id="a_edge27_Node000127_Node000128"><a xlink:title=" ">
<path fill="none" stroke="#63b8ff" d="M294.66,-365.93C282.21,-363.31 269.12,-360.55 257.12,-358.02"/>
<polygon fill="#63b8ff" stroke="#63b8ff" points="293.97,-369.37 304.48,-368 295.41,-362.52 293.97,-369.37"/>
</a>
</g>
</g>
<!-- Node129 -->
<g id="Node000129" class="node">
<title>Node129</title>
<g id="a_Node000129"><a xlink:href="namespaceGameUI_1_1Multiplayer.html#a82477c0920d435faed20e3dd60161438" target="_top" xlink:title=" ">
<polygon fill="white" stroke="#666666" points="118,-363.5 0,-363.5 0,-333.5 118,-333.5 118,-363.5"/>
<text text-anchor="start" x="8" y="-351.5" font-family="Helvetica,sans-Serif" font-size="10.00">GameUI::Multiplayer</text>
<text text-anchor="middle" x="59" y="-340.5" font-family="Helvetica,sans-Serif" font-size="10.00">::DrawColumn1</text>
</a>
</g>
</g>
<!-- Node128&#45;&gt;Node129 -->
<g id="edge28_Node000128_Node000129" class="edge">
<title>Node128&#45;&gt;Node129</title>
<g id="a_edge28_Node000128_Node000129"><a xlink:title=" ">
<path fill="none" stroke="#63b8ff" d="M151.42,-348.5C140.49,-348.5 129.07,-348.5 118.16,-348.5"/>
<polygon fill="#63b8ff" stroke="#63b8ff" points="151.71,-352 161.71,-348.5 151.71,-345 151.71,-352"/>
</a>
</g>
</g>
<!-- Node132 -->
<g id="Node000132" class="node">
<title>Node132</title>
<g id="a_Node000132"><a xlink:href="classModelLoader.html#ab578b63a565352c0c270bc4ebbc07653" target="_top" xlink:title=" ">
<polygon fill="white" stroke="#666666" points="730,-292 621,-292 621,-273 730,-273 730,-292"/>
<text text-anchor="middle" x="675.5" y="-280" font-family="Helvetica,sans-Serif" font-size="10.00">ModelLoader::Load</text>
</a>
</g>
</g>
<!-- Node131&#45;&gt;Node132 -->
<g id="edge31_Node000131_Node000132" class="edge">
<title>Node131&#45;&gt;Node132</title>
<g id="a_edge31_Node000131_Node000132"><a xlink:title=" ">
<path fill="none" stroke="#63b8ff" d="M778.99,-277.12C762.73,-277.98 745.63,-278.87 730.16,-279.68"/>
<polygon fill="#63b8ff" stroke="#63b8ff" points="779.18,-280.62 788.98,-276.6 778.81,-273.63 779.18,-280.62"/>
</a>
</g>
</g>
<!-- Node134 -->
<g id="Node000134" class="node">
<title>Node134</title>
<g id="a_Node000134"><a xlink:href="spawn__players_8c.html#a1d1dc4164aa554583609ad0d9bbbf276" target="_top" xlink:title=" ">
<polygon fill="white" stroke="#666666" points="397,-217 304,-217 304,-198 397,-198 397,-217"/>
<text text-anchor="middle" x="350.5" y="-205" font-family="Helvetica,sans-Serif" font-size="10.00">func_8003CD98</text>
</a>
</g>
</g>
<!-- Node133&#45;&gt;Node134 -->
<g id="edge33_Node000133_Node000134" class="edge">
<title>Node133&#45;&gt;Node134</title>
<g id="a_edge33_Node000133_Node000134"><a xlink:title=" ">
<path fill="none" stroke="#63b8ff" d="M788.27,-238.48C707.39,-240.34 558.72,-240.91 433,-225.5 418.04,-223.67 401.79,-220.35 387.76,-217.06"/>
<polygon fill="#63b8ff" stroke="#63b8ff" points="788.35,-241.98 798.27,-238.23 788.18,-234.98 788.35,-241.98"/>
</a>
</g>
</g>
<!-- Node138 -->
<g id="Node000138" class="node">
<title>Node138</title>
<g id="a_Node000138"><a xlink:href="spawn__players_8c.html#af4ffc0854efc3e4c009e6d40b651f773" target="_top" xlink:title=" ">
<polygon fill="white" stroke="#666666" points="722.5,-216 628.5,-216 628.5,-197 722.5,-197 722.5,-216"/>
<text text-anchor="middle" x="675.5" y="-204" font-family="Helvetica,sans-Serif" font-size="10.00">func_8003DB5C</text>
</a>
</g>
</g>
<!-- Node133&#45;&gt;Node138 -->
<g id="edge35_Node000133_Node000138" class="edge">
<title>Node133&#45;&gt;Node138</title>
<g id="a_edge35_Node000133_Node000138"><a xlink:title=" ">
<path fill="none" stroke="#63b8ff" d="M788.39,-226.07C766.88,-222.31 742.95,-218.12 722.76,-214.59"/>
<polygon fill="#63b8ff" stroke="#63b8ff" points="787.94,-229.55 798.4,-227.82 789.15,-222.65 787.94,-229.55"/>
</a>
</g>
</g>
<!-- Node135 -->
<g id="Node000135" class="node">
<title>Node135</title>
<g id="a_Node000135"><a xlink:href="spawn__players_8c.html#ac1a9412b931cfa517a2382c2fc605399" target="_top" xlink:title=" ">
<polygon fill="#fff0f0" stroke="red" points="257,-217 165,-217 165,-198 257,-198 257,-217"/>
<text text-anchor="middle" x="211" y="-205" font-family="Helvetica,sans-Serif" font-size="10.00">func_8003D080</text>
</a>
</g>
</g>
<!-- Node134&#45;&gt;Node135 -->
<g id="edge34_Node000134_Node000135" class="edge">
<title>Node134&#45;&gt;Node135</title>
<g id="a_edge34_Node000134_Node000135"><a xlink:title=" ">
<path fill="none" stroke="#63b8ff" d="M293.67,-207.5C281.51,-207.5 268.8,-207.5 257.12,-207.5"/>
<polygon fill="#63b8ff" stroke="#63b8ff" points="293.71,-211 303.71,-207.5 293.71,-204 293.71,-211"/>
</a>
</g>
</g>
<!-- Node139 -->
<g id="Node000139" class="node">
<title>Node139</title>
<g id="a_Node000139"><a xlink:href="race__logic_8c.html#aeb498a031d0fc8f31b5947bf329344f4" target="_top" xlink:title=" ">
<polygon fill="#fff0f0" stroke="red" points="543,-216 452,-216 452,-197 543,-197 543,-216"/>
<text text-anchor="middle" x="497.5" y="-204" font-family="Helvetica,sans-Serif" font-size="10.00">func_8028E678</text>
</a>
</g>
</g>
<!-- Node138&#45;&gt;Node139 -->
<g id="edge36_Node000138_Node000139" class="edge">
<title>Node138&#45;&gt;Node139</title>
<g id="a_edge36_Node000138_Node000139"><a xlink:title=" ">
<path fill="none" stroke="#63b8ff" d="M618.13,-206.5C593.9,-206.5 565.99,-206.5 543.22,-206.5"/>
<polygon fill="#63b8ff" stroke="#63b8ff" points="618.26,-210 628.26,-206.5 618.26,-203 618.26,-210"/>
</a>
</g>
</g>
<!-- Node143 -->
<g id="Node000143" class="node">
<title>Node143</title>
<g id="a_Node000143"><a xlink:href="update__objects_8c.html#aad7449c3468a6e25931243fd9d0fc3ae" target="_top" xlink:title=" ">
<polygon fill="white" stroke="#666666" points="722,-56 629,-56 629,-37 722,-37 722,-56"/>
<text text-anchor="middle" x="675.5" y="-44" font-family="Helvetica,sans-Serif" font-size="10.00">func_80085DB8</text>
</a>
</g>
</g>
<!-- Node142&#45;&gt;Node143 -->
<g id="edge38_Node000142_Node000143" class="edge">
<title>Node142&#45;&gt;Node143</title>
<g id="a_edge38_Node000142_Node000143"><a xlink:title=" ">
<path fill="none" stroke="#63b8ff" d="M793.99,-71.85C770.43,-66.77 743.15,-60.88 720.81,-56.06"/>
<polygon fill="#63b8ff" stroke="#63b8ff" points="793.32,-75.28 803.83,-73.97 794.8,-68.44 793.32,-75.28"/>
</a>
</g>
</g>
<!-- Node148 -->
<g id="Node000148" class="node">
<title>Node148</title>
<g id="a_Node000148"><a xlink:href="update__objects_8c.html#abef9e21ca75285520cc71d37b6ef71b5" target="_top" xlink:title=" ">
<polygon fill="white" stroke="#666666" points="721,-19 630,-19 630,0 721,0 721,-19"/>
<text text-anchor="middle" x="675.5" y="-7" font-family="Helvetica,sans-Serif" font-size="10.00">func_80085EF8</text>
</a>
</g>
</g>
<!-- Node142&#45;&gt;Node148 -->
<g id="edge40_Node000142_Node000148" class="edge">
<title>Node142&#45;&gt;Node148</title>
<g id="a_edge40_Node000142_Node000148"><a xlink:title=" ">
<path fill="none" stroke="#63b8ff" d="M826.48,-68.25C807.83,-55.68 779.72,-38.23 753,-27.5 743,-23.48 731.88,-20.23 721.3,-17.66"/>
<polygon fill="#63b8ff" stroke="#63b8ff" points="824.6,-71.21 834.82,-73.98 828.56,-65.43 824.6,-71.21"/>
</a>
</g>
</g>
<!-- Node150 -->
<g id="Node000150" class="node">
<title>Node150</title>
<g id="a_Node000150"><a xlink:href="classOLakitu.html#a55d273da9dad852276fb5d1dc4c41e88" target="_top" xlink:title=" ">
<polygon fill="white" stroke="#666666" points="753,-141.5 598,-141.5 598,-111.5 753,-111.5 753,-141.5"/>
<text text-anchor="start" x="606" y="-129.5" font-family="Helvetica,sans-Serif" font-size="10.00">OLakitu::init_obj_lakitu</text>
<text text-anchor="middle" x="675.5" y="-118.5" font-family="Helvetica,sans-Serif" font-size="10.00">_starter_and_checkered_flag</text>
</a>
</g>
</g>
<!-- Node142&#45;&gt;Node150 -->
<g id="edge42_Node000142_Node000150" class="edge">
<title>Node142&#45;&gt;Node150</title>
<g id="a_edge42_Node000142_Node000150"><a xlink:title=" ">
<path fill="none" stroke="#63b8ff" d="M800.22,-95.48C780.43,-100.44 757.26,-106.25 736.35,-111.49"/>
<polygon fill="#63b8ff" stroke="#63b8ff" points="801.09,-98.87 809.94,-93.04 799.39,-92.08 801.09,-98.87"/>
</a>
</g>
</g>
<!-- Node153 -->
<g id="Node000153" class="node">
<title>Node153</title>
<g id="a_Node000153"><a xlink:href="update__objects_8c.html#a86976d4b79853c37ad7d3b5f0513a9b8" target="_top" xlink:title=" ">
<polygon fill="white" stroke="#666666" points="745.5,-93 605.5,-93 605.5,-74 745.5,-74 745.5,-93"/>
<text text-anchor="middle" x="675.5" y="-81" font-family="Helvetica,sans-Serif" font-size="10.00">init_obj_neon_mushroom</text>
</a>
</g>
</g>
<!-- Node142&#45;&gt;Node153 -->
<g id="edge44_Node000142_Node000153" class="edge">
<title>Node142&#45;&gt;Node153</title>
<g id="a_edge44_Node000142_Node000153"><a xlink:title=" ">
<path fill="none" stroke="#63b8ff" d="M780.86,-83.5C769.27,-83.5 757.21,-83.5 745.57,-83.5"/>
<polygon fill="#63b8ff" stroke="#63b8ff" points="780.89,-87 790.89,-83.5 780.89,-80 780.89,-87"/>
</a>
</g>
</g>
<!-- Node144 -->
<g id="Node000144" class="node">
<title>Node144</title>
<g id="a_Node000144"><a xlink:href="update__objects_8c.html#aaf345d74477b4556bd7cb590179d7e72" target="_top" xlink:title=" ">
<polygon fill="#fff0f0" stroke="red" points="543,-56 452,-56 452,-37 543,-37 543,-56"/>
<text text-anchor="middle" x="497.5" y="-44" font-family="Helvetica,sans-Serif" font-size="10.00">func_80085E38</text>
</a>
</g>
</g>
<!-- Node143&#45;&gt;Node144 -->
<g id="edge39_Node000143_Node000144" class="edge">
<title>Node143&#45;&gt;Node144</title>
<g id="a_edge39_Node000143_Node000144"><a xlink:title=" ">
<path fill="none" stroke="#63b8ff" d="M618.54,-46.5C594.19,-46.5 566.05,-46.5 543.14,-46.5"/>
<polygon fill="#63b8ff" stroke="#63b8ff" points="618.72,-50 628.72,-46.5 618.72,-43 618.72,-50"/>
</a>
</g>
</g>
<!-- Node149 -->
<g id="Node000149" class="node">
<title>Node149</title>
<g id="a_Node000149"><a xlink:href="update__objects_8c.html#a611ea98550b46aa887eb34b7472ef871" target="_top" xlink:title=" ">
<polygon fill="#fff0f0" stroke="red" points="543,-19 452,-19 452,0 543,0 543,-19"/>
<text text-anchor="middle" x="497.5" y="-7" font-family="Helvetica,sans-Serif" font-size="10.00">func_80085F74</text>
</a>
</g>
</g>
<!-- Node148&#45;&gt;Node149 -->
<g id="edge41_Node000148_Node000149" class="edge">
<title>Node148&#45;&gt;Node149</title>
<g id="a_edge41_Node000148_Node000149"><a xlink:title=" ">
<path fill="none" stroke="#63b8ff" d="M619.41,-9.5C594.91,-9.5 566.44,-9.5 543.29,-9.5"/>
<polygon fill="#63b8ff" stroke="#63b8ff" points="619.63,-13 629.63,-9.5 619.63,-6 619.63,-13"/>
</a>
</g>
</g>
<!-- Node151 -->
<g id="Node000151" class="node">
<title>Node151</title>
<g id="a_Node000151"><a xlink:href="classOLakitu.html#aef9bf9e2cb4783624b766105deb9aa87" target="_top" xlink:title=" ">
<polygon fill="#fff0f0" stroke="red" points="562,-141.5 433,-141.5 433,-111.5 562,-111.5 562,-141.5"/>
<text text-anchor="start" x="441" y="-129.5" font-family="Helvetica,sans-Serif" font-size="10.00">OLakitu::update_object</text>
<text text-anchor="middle" x="497.5" y="-118.5" font-family="Helvetica,sans-Serif" font-size="10.00">_lakitu_starter</text>
</a>
</g>
</g>
<!-- Node150&#45;&gt;Node151 -->
<g id="edge43_Node000150_Node000151" class="edge">
<title>Node150&#45;&gt;Node151</title>
<g id="a_edge43_Node000150_Node000151"><a xlink:title=" ">
<path fill="none" stroke="#63b8ff" d="M587.69,-126.5C579.03,-126.5 570.37,-126.5 562.02,-126.5"/>
<polygon fill="#63b8ff" stroke="#63b8ff" points="587.82,-130 597.82,-126.5 587.82,-123 587.82,-130"/>
</a>
</g>
</g>
<!-- Node154 -->
<g id="Node000154" class="node">
<title>Node154</title>
<g id="a_Node000154"><a xlink:href="update__objects_8c.html#a38bcb1c1e3fb81ad72c3e87254e35a0c" target="_top" xlink:title=" ">
<polygon fill="#fff0f0" stroke="red" points="543.5,-93 451.5,-93 451.5,-74 543.5,-74 543.5,-93"/>
<text text-anchor="middle" x="497.5" y="-81" font-family="Helvetica,sans-Serif" font-size="10.00">func_80085CA0</text>
</a>
</g>
</g>
<!-- Node153&#45;&gt;Node154 -->
<g id="edge45_Node000153_Node000154" class="edge">
<title>Node153&#45;&gt;Node154</title>
<g id="a_edge45_Node000153_Node000154"><a xlink:title=" ">
<path fill="none" stroke="#63b8ff" d="M595.11,-83.5C577.43,-83.5 559.27,-83.5 543.55,-83.5"/>
<polygon fill="#63b8ff" stroke="#63b8ff" points="595.45,-87 605.45,-83.5 595.45,-80 595.45,-87"/>
</a>
</g>
</g>
<!-- Node156 -->
<g id="Node000156" class="node">
<title>Node156</title>
<g id="a_Node000156"><a xlink:href="render__player_8c.html#a53a1f659eaad8e23847f927e359c3551" target="_top" xlink:title=" ">
<polygon fill="white" stroke="#666666" points="738,-179 613,-179 613,-160 738,-160 738,-179"/>
<text text-anchor="middle" x="675.5" y="-167" font-family="Helvetica,sans-Serif" font-size="10.00">update_wheel_palette</text>
</a>
</g>
</g>
<!-- Node155&#45;&gt;Node156 -->
<g id="edge47_Node000155_Node000156" class="edge">
<title>Node155&#45;&gt;Node156</title>
<g id="a_edge47_Node000155_Node000156"><a xlink:title=" ">
<path fill="none" stroke="#63b8ff" d="M782.38,-174.44C767.86,-173.76 752.51,-173.05 738.15,-172.38"/>
<polygon fill="#63b8ff" stroke="#63b8ff" points="782.64,-177.95 792.79,-174.92 782.97,-170.96 782.64,-177.95"/>
</a>
</g>
</g>
<!-- Node157 -->
<g id="Node000157" class="node">
<title>Node157</title>
<g id="a_Node000157"><a xlink:href="render__player_8c.html#a9afd62c74edf8ebd0a77158f6626ce10" target="_top" xlink:title=" ">
<polygon fill="#fff0f0" stroke="red" points="539.5,-179 455.5,-179 455.5,-160 539.5,-160 539.5,-179"/>
<text text-anchor="middle" x="497.5" y="-167" font-family="Helvetica,sans-Serif" font-size="10.00">render_player</text>
</a>
</g>
</g>
<!-- Node156&#45;&gt;Node157 -->
<g id="edge48_Node000156_Node000157" class="edge">
<title>Node156&#45;&gt;Node157</title>
<g id="a_edge48_Node000156_Node000157"><a xlink:title=" ">
<path fill="none" stroke="#63b8ff" d="M602.84,-169.5C581.31,-169.5 558.43,-169.5 539.59,-169.5"/>
<polygon fill="#63b8ff" stroke="#63b8ff" points="602.94,-173 612.94,-169.5 602.94,-166 602.94,-173"/>
</a>
</g>
</g>
<!-- Node157&#45;&gt;Node134 -->
<g id="edge49_Node000157_Node000134" class="edge">
<title>Node157&#45;&gt;Node134</title>
<g id="a_edge49_Node000157_Node000134"><a xlink:title=" ">
<path fill="none" stroke="#63b8ff" d="M450.01,-181.68C429.88,-186.96 406.66,-193.04 387.83,-197.98"/>
<polygon fill="#63b8ff" stroke="#63b8ff" points="451.12,-185.01 459.91,-179.09 449.35,-178.24 451.12,-185.01"/>
</a>
</g>
</g>
<!-- Node163&#45;&gt;Node114 -->
<g id="edge51_Node000163_Node000114" class="edge">
<title>Node163&#45;&gt;Node114</title>
<g id="a_edge51_Node000163_Node000114"><a xlink:title=" ">
<path fill="none" stroke="#63b8ff" d="M303.2,-718.5C280.4,-718.5 253.91,-718.5 235.37,-718.5"/>
<polygon fill="#63b8ff" stroke="#63b8ff" points="303.37,-722 313.37,-718.5 303.37,-715 303.37,-722"/>
</a>
</g>
</g>
<!-- Node164&#45;&gt;Node128 -->
<g id="edge53_Node000164_Node000128" class="edge">
<title>Node164&#45;&gt;Node128</title>
<g id="a_edge53_Node000164_Node000128"><a xlink:title=" ">
<path fill="none" stroke="#63b8ff" d="M790.88,-342.61C778.4,-341.73 765.27,-340.95 753,-340.5 571.13,-333.81 354.66,-341.83 260.15,-346.12"/>
<polygon fill="#63b8ff" stroke="#63b8ff" points="790.94,-346.12 801.17,-343.36 791.45,-339.14 790.94,-346.12"/>
</a>
</g>
</g>
<!-- Node165 -->
<g id="Node000165" class="node">
<title>Node165</title>
<g id="a_Node000165"><a xlink:href="networking_8c.html#a840ac4cfb918d97373907c0a176ce5c5" target="_top" xlink:title=" ">
<polygon fill="white" stroke="#666666" points="733,-368 618,-368 618,-349 733,-349 733,-368"/>
<text text-anchor="middle" x="675.5" y="-356" font-family="Helvetica,sans-Serif" font-size="10.00">networking_cleanup</text>
</a>
</g>
</g>
<!-- Node164&#45;&gt;Node165 -->
<g id="edge54_Node000164_Node000165" class="edge">
<title>Node164&#45;&gt;Node165</title>
<g id="a_edge54_Node000164_Node000165"><a xlink:title=" ">
<path fill="none" stroke="#63b8ff" d="M791.02,-351.15C772.38,-352.35 751.68,-353.68 733.07,-354.87"/>
<polygon fill="#63b8ff" stroke="#63b8ff" points="791.38,-354.64 801.14,-350.51 790.93,-347.65 791.38,-354.64"/>
</a>
</g>
</g>
<!-- Node165&#45;&gt;Node126 -->
<g id="edge56_Node000165_Node000126" class="edge">
<title>Node165&#45;&gt;Node126</title>
<g id="a_edge56_Node000165_Node000126"><a xlink:title=" ">
<path fill="none" stroke="#63b8ff" d="M619.07,-370.15C594.9,-375.23 566.9,-381.12 543.98,-385.94"/>
<polygon fill="#63b8ff" stroke="#63b8ff" points="620.11,-373.51 629.18,-368.03 618.67,-366.66 620.11,-373.51"/>
</a>
</g>
</g>
<!-- Node166 -->
<g id="Node000166" class="node">
<title>Node166</title>
<g id="a_Node000166"><a xlink:href="networking_8c.html#aed9ca538cfe9988acf346351f27a368e" target="_top" xlink:title=" ">
<polygon fill="#fff0f0" stroke="red" points="562,-368 433,-368 433,-349 562,-349 562,-368"/>
<text text-anchor="middle" x="497.5" y="-356" font-family="Helvetica,sans-Serif" font-size="10.00">networking_disconnect</text>
</a>
</g>
</g>
<!-- Node165&#45;&gt;Node166 -->
<g id="edge55_Node000165_Node000166" class="edge">
<title>Node165&#45;&gt;Node166</title>
<g id="a_edge55_Node000165_Node000166"><a xlink:title=" ">
<path fill="none" stroke="#63b8ff" d="M607.65,-358.5C592.7,-358.5 576.89,-358.5 562.07,-358.5"/>
<polygon fill="#63b8ff" stroke="#63b8ff" points="607.84,-362 617.84,-358.5 607.84,-355 607.84,-362"/>
</a>
</g>
</g>
</g>
</svg>

<g id="navigator" transform="translate(0 0)" fill="#404254">
  <rect fill="#f2f5e9" fill-opacity="0.5" stroke="#606060" stroke-width=".5" x="0" y="0" width="60" height="60"/>
  <use id="zoomplus" xlink:href="#zoomPlus" x="17" y="9" onmousedown="handleZoom(evt,'in')"/>
  <use id="zoomminus" xlink:href="#zoomMin" x="42" y="9" onmousedown="handleZoom(evt,'out')"/>
  <use id="reset" xlink:href="#resetDef" x="30" y="36" onmousedown="handleReset()"/>
   <use id="arrowup" xlink:href="#arrowUp" x="0" y="0" onmousedown="handlePan(0,-1)"/>
  <use id="arrowright" xlink:href="#arrowRight" x="0" y="0" onmousedown="handlePan(1,0)"/>
  <use id="arrowdown" xlink:href="#arrowDown" x="0" y="0" onmousedown="handlePan(0,1)"/>
  <use id="arrowleft" xlink:href="#arrowLeft" x="0" y="0" onmousedown="handlePan(-1,0)"/>
</g>
<svg viewBox="0 0 15 15" width="100%" height="30px" preserveAspectRatio="xMaxYMin meet">
 <g id="arrow_out" transform="scale(0.3 0.3)">
  <a xlink:href="string_8h_ad7f1ae1bbb49dece44bda378982a704d_icgraph_org.svg" target="_base">
   <rect id="button" ry="5" rx="5" y="6" x="6" height="38" width="38"
        fill="#f2f5e9" fill-opacity="0.5" stroke="#606060" stroke-width="1.0"/>
   <path id="arrow"
     d="M 11.500037,31.436501 C 11.940474,20.09759 22.043105,11.32322 32.158766,21.979434 L 37.068811,17.246167 C 37.068811,17.246167 37.088388,32 37.088388,32 L 22.160133,31.978069 C 22.160133,31.978069 26.997745,27.140456 26.997745,27.140456 C 18.528582,18.264221 13.291696,25.230495 11.500037,31.436501 z"
     style="fill:#404040;"/>
  </a>
 </g>
</svg>

<style type='text/css'>
<![CDATA[
[data-mouse-over-selected='false'] { opacity: 0.7; }
[data-mouse-over-selected='true']  { opacity: 1.0; }
]]>
</style>
<script type="application/ecmascript"><![CDATA[
document.addEventListener('DOMContentLoaded', (event) => {
  highlightEdges();
  highlightAdjacentNodes();
});
]]></script>
</svg>
