<?xml version="1.0" encoding="UTF-8" standalone="no"?>
<!DOCTYPE svg PUBLIC "-//W3C//DTD SVG 1.1//EN"
 "http://www.w3.org/Graphics/SVG/1.1/DTD/svg11.dtd">
<!-- Generated by graphviz version 2.43.0 (0)
 -->
<!-- Title: OMoleGroup::MoleEntry Pages: 1 -->
<!--zoomable 767 -->

<svg id="main" version="1.1" xmlns="http://www.w3.org/2000/svg" xmlns:xlink="http://www.w3.org/1999/xlink" xml:space="preserve" onload="init(evt)">

<style type="text/css"><![CDATA[
.node, .edge {opacity: 0.7;}
.node.selected, .edge.selected {opacity: 1;}
.edge:hover path { stroke: red; }
.edge:hover polygon { stroke: red; fill: red; }
]]></style>

<defs>
  <circle id="rim" cx="0" cy="0" r="7"/>
  <circle id="rim2" cx="0" cy="0" r="3.5"/>
  <g id="zoomPlus">
    <use xlink:href="#rim" fill="#404040"><set attributeName="fill" to="#808080" begin="zoomplus.mouseover" end="zoomplus.mouseout"/></use>
    <path d="M-4,0h8M0,-4v8" fill="none" stroke="white" stroke-width="1.5" pointer-events="none"/>
  </g>
  <g id="zoomMin">
    <use xlink:href="#rim" fill="#404040"><set attributeName="fill" to="#808080" begin="zoomminus.mouseover" end="zoomminus.mouseout"/></use>
    <path d="M-4,0h8" fill="none" stroke="white" stroke-width="1.5" pointer-events="none"/>
  </g>
  <g id="arrowUp" transform="translate(30 24)">
    <use xlink:href="#rim"/>
    <path pointer-events="none" fill="none" stroke="white" stroke-width="1.5" d="M0,-3.0v7 M-2.5,-0.5L0,-3.0L2.5,-0.5"/>
  </g>
  <g id="arrowRight" transform="rotate(90) translate(36 -43)">
    <use xlink:href="#rim"/>
    <path pointer-events="none" fill="none" stroke="white" stroke-width="1.5" d="M0,-3.0v7 M-2.5,-0.5L0,-3.0L2.5,-0.5"/>
  </g>
  <g id="arrowDown" transform="rotate(180) translate(-30 -48)">
    <use xlink:href="#rim"/>
    <path pointer-events="none" fill="none" stroke="white" stroke-width="1.5" d="M0,-3.0v7 M-2.5,-0.5L0,-3.0L2.5,-0.5"/>
  </g>
  <g id="arrowLeft" transform="rotate(270) translate(-36 17)">
    <use xlink:href="#rim"/>
    <path pointer-events="none" fill="none" stroke="white" stroke-width="1.5" d="M0,-3.0v7 M-2.5,-0.5L0,-3.0L2.5,-0.5"/>
  </g>
  <g id="resetDef">
    <use xlink:href="#rim2" fill="#404040"><set attributeName="fill" to="#808080" begin="reset.mouseover" end="reset.mouseout"/></use>
  </g>
</defs>
<script type="application/ecmascript">
var viewWidth = 1111;
var viewHeight = 767;
var sectionId = 'dynsection-0';
</script>
<script type="application/ecmascript" xlink:href="svg.min.js"/>
<svg id="graph" class="graph">
<g id="viewport">
<title>OMoleGroup::MoleEntry</title>
<!-- Node1 -->
<g id="Node000001" class="node">
<title>Node1</title>
<g id="a_Node000001"><a xlink:title=" ">
<polygon fill="#999999" stroke="#666666" points="977.5,-19 844.5,-19 844.5,0 977.5,0 977.5,-19"/>
<text text-anchor="middle" x="911" y="-7" font-family="Helvetica,sans-Serif" font-size="10.00">OMoleGroup::MoleEntry</text>
</a>
</g>
</g>
<!-- Node2 -->
<g id="Node000002" class="node">
<title>Node2</title>
<g id="a_Node000002"><a xlink:href="classOMole.html" target="_top" xlink:title=" ">
<polygon fill="white" stroke="#666666" points="935,-85 887,-85 887,-66 935,-66 935,-85"/>
<text text-anchor="middle" x="911" y="-73" font-family="Helvetica,sans-Serif" font-size="10.00">OMole</text>
</a>
</g>
</g>
<!-- Node2&#45;&gt;Node1 -->
<g id="edge1_Node000001_Node000002" class="edge">
<title>Node2&#45;&gt;Node1</title>
<g id="a_edge1_Node000001_Node000002"><a xlink:title=" ">
<path fill="none" stroke="#9a32cd" stroke-dasharray="5,2" d="M911,-55.58C911,-43.63 911,-28.72 911,-19.41"/>
<polygon fill="#9a32cd" stroke="#9a32cd" points="907.5,-55.87 911,-65.87 914.5,-55.87 907.5,-55.87"/>
</a>
</g>
<text text-anchor="middle" x="925" y="-40" font-family="Helvetica,sans-Serif" font-size="10.00" fill="grey"> Mole</text>
</g>
<!-- Node3 -->
<g id="Node000003" class="node">
<title>Node3</title>
<g id="a_Node000003"><a xlink:href="classOObject.html" target="_top" xlink:title=" ">
<polygon fill="white" stroke="#666666" points="759,-233.5 703,-233.5 703,-214.5 759,-214.5 759,-233.5"/>
<text text-anchor="middle" x="731" y="-221.5" font-family="Helvetica,sans-Serif" font-size="10.00">OObject</text>
</a>
</g>
</g>
<!-- Node3&#45;&gt;Node2 -->
<g id="edge2_Node000002_Node000003" class="edge">
<title>Node3&#45;&gt;Node2</title>
<g id="a_edge2_Node000002_Node000003"><a xlink:title=" ">
<path fill="none" stroke="#63b8ff" d="M742.6,-205.96C754.94,-188.69 775.72,-161.87 798,-143 827.88,-117.69 868.62,-96.37 892.14,-85.11"/>
<polygon fill="#63b8ff" stroke="#63b8ff" points="739.52,-204.27 736.66,-214.47 745.25,-208.28 739.52,-204.27"/>
</a>
</g>
</g>
<!-- Node24 -->
<g id="Node000024" class="node">
<title>Node24</title>
<g id="a_Node000024"><a xlink:href="classOMoleGroup.html" target="_top" xlink:title=" ">
<polygon fill="white" stroke="#666666" points="884.5,-162 807.5,-162 807.5,-143 884.5,-143 884.5,-162"/>
<text text-anchor="middle" x="846" y="-150" font-family="Helvetica,sans-Serif" font-size="10.00">OMoleGroup</text>
</a>
</g>
</g>
<!-- Node3&#45;&gt;Node24 -->
<g id="edge31_Node000024_Node000003" class="edge">
<title>Node3&#45;&gt;Node24</title>
<g id="a_edge31_Node000024_Node000003"><a xlink:title=" ">
<path fill="none" stroke="#63b8ff" d="M753.94,-209.13C777.16,-195.1 812.32,-173.85 831.78,-162.09"/>
<polygon fill="#63b8ff" stroke="#63b8ff" points="751.85,-206.31 745.1,-214.48 755.47,-212.3 751.85,-206.31"/>
</a>
</g>
</g>
<!-- Node4 -->
<g id="Node000004" class="node">
<title>Node4</title>
<g id="a_Node000004"><a xlink:title=" ">
<polygon fill="white" stroke="#666666" points="148,-323 98,-323 98,-304 148,-304 148,-323"/>
<text text-anchor="middle" x="123" y="-311" font-family="Helvetica,sans-Serif" font-size="10.00">uint8_t</text>
</a>
</g>
</g>
<!-- Node4&#45;&gt;Node3 -->
<g id="edge3_Node000003_Node000004" class="edge">
<title>Node4&#45;&gt;Node3</title>
<g id="a_edge3_Node000003_Node000004"><a xlink:title=" ">
<path fill="none" stroke="#9a32cd" stroke-dasharray="5,2" d="M129.33,-294.22C134.79,-281.43 144.04,-265.22 158,-257 205.23,-229.2 594.46,-225.55 702.99,-225.07"/>
<polygon fill="#9a32cd" stroke="#9a32cd" points="125.92,-293.31 125.6,-303.9 132.46,-295.82 125.92,-293.31"/>
</a>
</g>
<text text-anchor="middle" x="170.5" y="-265.5" font-family="Helvetica,sans-Serif" font-size="10.00" fill="grey"> uuid</text>
</g>
<!-- Node5 -->
<g id="Node000005" class="node">
<title>Node5</title>
<g id="a_Node000005"><a xlink:href="structObject.html" target="_top" xlink:title=" ">
<polygon fill="white" stroke="#666666" points="556,-323 508,-323 508,-304 556,-304 556,-323"/>
<text text-anchor="middle" x="532" y="-311" font-family="Helvetica,sans-Serif" font-size="10.00">Object</text>
</a>
</g>
</g>
<!-- Node5&#45;&gt;Node3 -->
<g id="edge4_Node000003_Node000005" class="edge">
<title>Node5&#45;&gt;Node3</title>
<g id="a_edge4_Node000003_Node000005"><a xlink:title=" ">
<path fill="none" stroke="#9a32cd" stroke-dasharray="5,2" d="M560.63,-299.91C601.69,-281.86 676.2,-249.1 711.48,-233.58"/>
<polygon fill="#9a32cd" stroke="#9a32cd" points="559.19,-296.72 551.44,-303.95 562.01,-303.13 559.19,-296.72"/>
</a>
</g>
<text text-anchor="middle" x="661" y="-265.5" font-family="Helvetica,sans-Serif" font-size="10.00" fill="grey"> o</text>
</g>
<!-- Node6 -->
<g id="Node000006" class="node">
<title>Node6</title>
<g id="a_Node000006"><a xlink:title=" ">
<polygon fill="white" stroke="#666666" points="793,-506 761,-506 761,-487 793,-487 793,-506"/>
<text text-anchor="middle" x="777" y="-494" font-family="Helvetica,sans-Serif" font-size="10.00">f32</text>
</a>
</g>
</g>
<!-- Node6&#45;&gt;Node5 -->
<g id="edge5_Node000005_Node000006" class="edge">
<title>Node6&#45;&gt;Node5</title>
<g id="a_edge5_Node000005_Node000006"><a xlink:title=" ">
<path fill="none" stroke="#9a32cd" stroke-dasharray="5,2" d="M776.74,-476.86C775.84,-441.3 771.82,-365.73 754,-348 740.08,-334.15 610.54,-321.35 556.01,-316.53"/>
<polygon fill="#9a32cd" stroke="#9a32cd" points="773.24,-476.94 776.94,-486.87 780.24,-476.81 773.24,-476.94"/>
</a>
</g>
<text text-anchor="middle" x="811.5" y="-444.5" font-family="Helvetica,sans-Serif" font-size="10.00" fill="grey"> offset</text>
<text text-anchor="middle" x="811.5" y="-433.5" font-family="Helvetica,sans-Serif" font-size="10.00" fill="grey">origin_pos</text>
<text text-anchor="middle" x="811.5" y="-422.5" font-family="Helvetica,sans-Serif" font-size="10.00" fill="grey">pos</text>
<text text-anchor="middle" x="811.5" y="-411.5" font-family="Helvetica,sans-Serif" font-size="10.00" fill="grey">sizeScaling</text>
<text text-anchor="middle" x="811.5" y="-400.5" font-family="Helvetica,sans-Serif" font-size="10.00" fill="grey">surfaceHeight</text>
<text text-anchor="middle" x="811.5" y="-389.5" font-family="Helvetica,sans-Serif" font-size="10.00" fill="grey">unk_01C</text>
<text text-anchor="middle" x="811.5" y="-378.5" font-family="Helvetica,sans-Serif" font-size="10.00" fill="grey">unk_034</text>
<text text-anchor="middle" x="811.5" y="-367.5" font-family="Helvetica,sans-Serif" font-size="10.00" fill="grey">velocity</text>
</g>
<!-- Node7 -->
<g id="Node000007" class="node">
<title>Node7</title>
<g id="a_Node000007"><a xlink:title=" ">
<polygon fill="white" stroke="#666666" points="943,-506 909,-506 909,-487 943,-487 943,-506"/>
<text text-anchor="middle" x="926" y="-494" font-family="Helvetica,sans-Serif" font-size="10.00">s32</text>
</a>
</g>
</g>
<!-- Node7&#45;&gt;Node2 -->
<g id="edge28_Node000002_Node000007" class="edge">
<title>Node7&#45;&gt;Node2</title>
<g id="a_edge28_Node000002_Node000007"><a xlink:title=" ">
<path fill="none" stroke="#9a32cd" stroke-dasharray="5,2" d="M934.32,-477.5C935.36,-474.7 936.31,-471.81 937,-469 953.52,-402.06 951,-383.45 951,-314.5 951,-314.5 951,-314.5 951,-151.5 951,-124.94 931.22,-98.65 919.48,-85.38"/>
<polygon fill="#9a32cd" stroke="#9a32cd" points="931.02,-476.32 930.35,-486.89 937.47,-479.04 931.02,-476.32"/>
</a>
</g>
<text text-anchor="middle" x="981.5" y="-221.5" font-family="Helvetica,sans-Serif" font-size="10.00" fill="grey"> _moleIndex</text>
</g>
<!-- Node7&#45;&gt;Node3 -->
<g id="edge21_Node000003_Node000007" class="edge">
<title>Node7&#45;&gt;Node3</title>
<g id="a_edge21_Node000003_Node000007"><a xlink:title=" ">
<path fill="none" stroke="#9a32cd" stroke-dasharray="5,2" d="M930.87,-476.59C937.71,-445.15 945.85,-382.18 912,-348 884.96,-320.69 766.92,-357.43 740,-330 714.11,-303.62 723.48,-253.5 728.58,-233.52"/>
<polygon fill="#9a32cd" stroke="#9a32cd" points="927.39,-476.1 928.49,-486.64 934.2,-477.72 927.39,-476.1"/>
</a>
</g>
<text text-anchor="middle" x="773" y="-311" font-family="Helvetica,sans-Serif" font-size="10.00" fill="grey"> _objectIndex</text>
</g>
<!-- Node7&#45;&gt;Node5 -->
<g id="edge6_Node000005_Node000007" class="edge">
<title>Node7&#45;&gt;Node5</title>
<g id="a_edge6_Node000005_Node000007"><a xlink:title=" ">
<path fill="none" stroke="#9a32cd" stroke-dasharray="5,2" d="M899.25,-488.91C888.31,-484.9 876.5,-478.62 869,-469 835.36,-425.81 886.25,-385.1 846,-348 840.66,-343.08 628.83,-323.33 556.17,-316.69"/>
<polygon fill="#9a32cd" stroke="#9a32cd" points="898.3,-492.28 908.89,-491.99 900.43,-485.61 898.3,-492.28"/>
</a>
</g>
<text text-anchor="middle" x="890.5" y="-433.5" font-family="Helvetica,sans-Serif" font-size="10.00" fill="grey"> status</text>
<text text-anchor="middle" x="890.5" y="-422.5" font-family="Helvetica,sans-Serif" font-size="10.00" fill="grey">timer</text>
<text text-anchor="middle" x="890.5" y="-411.5" font-family="Helvetica,sans-Serif" font-size="10.00" fill="grey">unk_048</text>
<text text-anchor="middle" x="890.5" y="-400.5" font-family="Helvetica,sans-Serif" font-size="10.00" fill="grey">unk_04C</text>
<text text-anchor="middle" x="890.5" y="-389.5" font-family="Helvetica,sans-Serif" font-size="10.00" fill="grey">unk_058</text>
<text text-anchor="middle" x="890.5" y="-378.5" font-family="Helvetica,sans-Serif" font-size="10.00" fill="grey">unk_05C</text>
</g>
<!-- Node8 -->
<g id="Node000008" class="node">
<title>Node8</title>
<g id="a_Node000008"><a xlink:title=" ">
<polygon fill="white" stroke="#666666" points="174,-506 136,-506 136,-487 174,-487 174,-506"/>
<text text-anchor="middle" x="155" y="-494" font-family="Helvetica,sans-Serif" font-size="10.00">char</text>
</a>
</g>
</g>
<!-- Node8&#45;&gt;Node3 -->
<g id="edge19_Node000003_Node000008" class="edge">
<title>Node8&#45;&gt;Node3</title>
<g id="a_edge19_Node000003_Node000008"><a xlink:title=" ">
<path fill="none" stroke="#9a32cd" stroke-dasharray="5,2" d="M144.14,-477.74C142.85,-474.9 141.73,-471.94 141,-469 128.06,-416.8 106.91,-389.59 141,-348 166.86,-316.45 191.04,-338.19 231,-330 410.87,-293.13 626.77,-247.23 702.83,-231.02"/>
<polygon fill="#9a32cd" stroke="#9a32cd" points="141.1,-479.47 148.91,-486.62 147.27,-476.16 141.1,-479.47"/>
</a>
</g>
<text text-anchor="middle" x="421.5" y="-322" font-family="Helvetica,sans-Serif" font-size="10.00" fill="grey"> Model</text>
<text text-anchor="middle" x="421.5" y="-311" font-family="Helvetica,sans-Serif" font-size="10.00" fill="grey">Name</text>
<text text-anchor="middle" x="421.5" y="-300" font-family="Helvetica,sans-Serif" font-size="10.00" fill="grey">ResourceName</text>
</g>
<!-- Node8&#45;&gt;Node5 -->
<g id="edge7_Node000005_Node000008" class="edge">
<title>Node8&#45;&gt;Node5</title>
<g id="a_edge7_Node000005_Node000008"><a xlink:title=" ">
<path fill="none" stroke="#9a32cd" stroke-dasharray="5,2" d="M148.99,-477.12C140.1,-445.99 127.81,-382.87 161,-348 164.01,-344.84 426.06,-323.16 507.88,-316.47"/>
<polygon fill="#9a32cd" stroke="#9a32cd" points="145.65,-478.16 151.92,-486.7 152.34,-476.11 145.65,-478.16"/>
</a>
</g>
<text text-anchor="middle" x="194.5" y="-417" font-family="Helvetica,sans-Serif" font-size="10.00" fill="grey"> activeTLUT</text>
<text text-anchor="middle" x="194.5" y="-406" font-family="Helvetica,sans-Serif" font-size="10.00" fill="grey">activeTexture</text>
<text text-anchor="middle" x="194.5" y="-395" font-family="Helvetica,sans-Serif" font-size="10.00" fill="grey">textureList</text>
</g>
<!-- Node9 -->
<g id="Node000009" class="node">
<title>Node9</title>
<g id="a_Node000009"><a xlink:title=" ">
<polygon fill="white" stroke="#666666" points="299.5,-506 270.5,-506 270.5,-487 299.5,-487 299.5,-506"/>
<text text-anchor="middle" x="285" y="-494" font-family="Helvetica,sans-Serif" font-size="10.00">u8</text>
</a>
</g>
</g>
<!-- Node9&#45;&gt;Node5 -->
<g id="edge8_Node000005_Node000009" class="edge">
<title>Node9&#45;&gt;Node5</title>
<g id="a_edge8_Node000005_Node000009"><a xlink:title=" ">
<path fill="none" stroke="#9a32cd" stroke-dasharray="5,2" d="M277.38,-477.4C265.81,-446.7 248.29,-384.21 280,-348 294.9,-330.98 447.53,-319.74 507.76,-315.93"/>
<polygon fill="#9a32cd" stroke="#9a32cd" points="274.19,-478.85 281.14,-486.84 280.69,-476.26 274.19,-478.85"/>
</a>
</g>
<text text-anchor="middle" x="315.5" y="-461" font-family="Helvetica,sans-Serif" font-size="10.00" fill="grey"> textureHeight</text>
<text text-anchor="middle" x="315.5" y="-450" font-family="Helvetica,sans-Serif" font-size="10.00" fill="grey">textureWidth</text>
<text text-anchor="middle" x="315.5" y="-439" font-family="Helvetica,sans-Serif" font-size="10.00" fill="grey">tlutList</text>
<text text-anchor="middle" x="315.5" y="-428" font-family="Helvetica,sans-Serif" font-size="10.00" fill="grey">unk_0D5</text>
<text text-anchor="middle" x="315.5" y="-417" font-family="Helvetica,sans-Serif" font-size="10.00" fill="grey">unk_0D6</text>
<text text-anchor="middle" x="315.5" y="-406" font-family="Helvetica,sans-Serif" font-size="10.00" fill="grey">unk_0D7</text>
<text text-anchor="middle" x="315.5" y="-395" font-family="Helvetica,sans-Serif" font-size="10.00" fill="grey">unk_0D8</text>
<text text-anchor="middle" x="315.5" y="-384" font-family="Helvetica,sans-Serif" font-size="10.00" fill="grey">unk_0DB</text>
<text text-anchor="middle" x="315.5" y="-373" font-family="Helvetica,sans-Serif" font-size="10.00" fill="grey">unk_0DC</text>
<text text-anchor="middle" x="315.5" y="-362" font-family="Helvetica,sans-Serif" font-size="10.00" fill="grey">unk_0DD</text>
<text text-anchor="middle" x="315.5" y="-351" font-family="Helvetica,sans-Serif" font-size="10.00" fill="grey">...</text>
</g>
<!-- Node10 -->
<g id="Node000010" class="node">
<title>Node10</title>
<g id="a_Node000010"><a xlink:title=" ">
<polygon fill="white" stroke="#666666" points="386,-506 352,-506 352,-487 386,-487 386,-506"/>
<text text-anchor="middle" x="369" y="-494" font-family="Helvetica,sans-Serif" font-size="10.00">Gfx</text>
</a>
</g>
</g>
<!-- Node10&#45;&gt;Node5 -->
<g id="edge9_Node000005_Node000010" class="edge">
<title>Node10&#45;&gt;Node5</title>
<g id="a_edge9_Node000005_Node000010"><a xlink:title=" ">
<path fill="none" stroke="#9a32cd" stroke-dasharray="5,2" d="M363.34,-477.13C355.15,-446.47 344.1,-384.64 375,-348 391.84,-328.03 468.24,-319.34 507.91,-316.12"/>
<polygon fill="#9a32cd" stroke="#9a32cd" points="360.03,-478.26 366.15,-486.91 366.76,-476.33 360.03,-478.26"/>
</a>
</g>
<text text-anchor="middle" x="392" y="-406" font-family="Helvetica,sans-Serif" font-size="10.00" fill="grey"> model</text>
</g>
<!-- Node11 -->
<g id="Node000011" class="node">
<title>Node11</title>
<g id="a_Node000011"><a xlink:title=" ">
<polygon fill="white" stroke="#666666" points="442.5,-506 409.5,-506 409.5,-487 442.5,-487 442.5,-506"/>
<text text-anchor="middle" x="426" y="-494" font-family="Helvetica,sans-Serif" font-size="10.00">Vtx</text>
</a>
</g>
</g>
<!-- Node11&#45;&gt;Node5 -->
<g id="edge10_Node000005_Node000011" class="edge">
<title>Node11&#45;&gt;Node5</title>
<g id="a_edge10_Node000005_Node000011"><a xlink:title=" ">
<path fill="none" stroke="#9a32cd" stroke-dasharray="5,2" d="M420.7,-477.07C413.19,-446.8 403.35,-386.15 432,-348 449.59,-324.57 484.26,-317.34 507.78,-315.22"/>
<polygon fill="#9a32cd" stroke="#9a32cd" points="417.32,-477.98 423.28,-486.74 424.08,-476.18 417.32,-477.98"/>
</a>
</g>
<text text-anchor="middle" x="449.5" y="-406" font-family="Helvetica,sans-Serif" font-size="10.00" fill="grey"> vertex</text>
</g>
<!-- Node12 -->
<g id="Node000012" class="node">
<title>Node12</title>
<g id="a_Node000012"><a xlink:title=" ">
<polygon fill="white" stroke="#666666" points="497.5,-506 468.5,-506 468.5,-487 497.5,-487 497.5,-506"/>
<text text-anchor="middle" x="483" y="-494" font-family="Helvetica,sans-Serif" font-size="10.00">s8</text>
</a>
</g>
</g>
<!-- Node12&#45;&gt;Node5 -->
<g id="edge11_Node000005_Node000012" class="edge">
<title>Node12&#45;&gt;Node5</title>
<g id="a_edge11_Node000005_Node000012"><a xlink:title=" ">
<path fill="none" stroke="#9a32cd" stroke-dasharray="5,2" d="M478.16,-476.79C471.63,-447.44 463.18,-389.66 485,-348 490.77,-336.99 501.97,-328.79 512,-323.26"/>
<polygon fill="#9a32cd" stroke="#9a32cd" points="474.84,-477.96 480.58,-486.86 481.64,-476.32 474.84,-477.96"/>
</a>
</g>
<text text-anchor="middle" x="525" y="-461" font-family="Helvetica,sans-Serif" font-size="10.00" fill="grey"> isTimerActive</text>
<text text-anchor="middle" x="525" y="-450" font-family="Helvetica,sans-Serif" font-size="10.00" fill="grey">textureListIndex</text>
<text text-anchor="middle" x="525" y="-439" font-family="Helvetica,sans-Serif" font-size="10.00" fill="grey">unk_078</text>
<text text-anchor="middle" x="525" y="-428" font-family="Helvetica,sans-Serif" font-size="10.00" fill="grey">unk_0CA</text>
<text text-anchor="middle" x="525" y="-417" font-family="Helvetica,sans-Serif" font-size="10.00" fill="grey">unk_0CC</text>
<text text-anchor="middle" x="525" y="-406" font-family="Helvetica,sans-Serif" font-size="10.00" fill="grey">unk_0CD</text>
<text text-anchor="middle" x="525" y="-395" font-family="Helvetica,sans-Serif" font-size="10.00" fill="grey">unk_0CE</text>
<text text-anchor="middle" x="525" y="-384" font-family="Helvetica,sans-Serif" font-size="10.00" fill="grey">unk_0CF</text>
<text text-anchor="middle" x="525" y="-373" font-family="Helvetica,sans-Serif" font-size="10.00" fill="grey">unk_0D0</text>
<text text-anchor="middle" x="525" y="-362" font-family="Helvetica,sans-Serif" font-size="10.00" fill="grey">unk_0D1</text>
<text text-anchor="middle" x="525" y="-351" font-family="Helvetica,sans-Serif" font-size="10.00" fill="grey">...</text>
</g>
<!-- Node13 -->
<g id="Node000013" class="node">
<title>Node13</title>
<g id="a_Node000013"><a xlink:href="structSplineControlPoint.html" target="_top" xlink:title=" ">
<polygon fill="white" stroke="#666666" points="599.5,-682 492.5,-682 492.5,-663 599.5,-663 599.5,-682"/>
<text text-anchor="middle" x="546" y="-670" font-family="Helvetica,sans-Serif" font-size="10.00">SplineControlPoint</text>
</a>
</g>
</g>
<!-- Node13&#45;&gt;Node5 -->
<g id="edge12_Node000005_Node000013" class="edge">
<title>Node13&#45;&gt;Node5</title>
<g id="a_edge12_Node000005_Node000013"><a xlink:title=" ">
<path fill="none" stroke="#9a32cd" stroke-dasharray="5,2" d="M545.55,-652.8C544.84,-622.14 543.48,-559.26 543,-506 542.92,-497.56 539.38,-494.63 543,-487 548.41,-475.58 559.59,-480.42 565,-469 588.03,-420.4 585.39,-397.76 565,-348 560.85,-337.88 552,-329.17 544.51,-323.18"/>
<polygon fill="#9a32cd" stroke="#9a32cd" points="542.05,-652.97 545.79,-662.89 549.05,-652.81 542.05,-652.97"/>
</a>
</g>
<text text-anchor="middle" x="576.5" y="-494" font-family="Helvetica,sans-Serif" font-size="10.00" fill="grey"> controlPoints</text>
</g>
<!-- Node15 -->
<g id="Node000015" class="node">
<title>Node15</title>
<g id="a_Node000015"><a xlink:href="structSplineData.html" target="_top" xlink:title=" ">
<polygon fill="white" stroke="#666666" points="689,-506 619,-506 619,-487 689,-487 689,-506"/>
<text text-anchor="middle" x="654" y="-494" font-family="Helvetica,sans-Serif" font-size="10.00">SplineData</text>
</a>
</g>
</g>
<!-- Node13&#45;&gt;Node15 -->
<g id="edge16_Node000015_Node000013" class="edge">
<title>Node13&#45;&gt;Node15</title>
<g id="a_edge16_Node000015_Node000013"><a xlink:title=" ">
<path fill="none" stroke="#9a32cd" stroke-dasharray="5,2" d="M546.81,-652.63C548.69,-617.28 554.56,-542.94 571,-524 577.49,-516.52 599.08,-509.75 618.6,-504.93"/>
<polygon fill="#9a32cd" stroke="#9a32cd" points="543.29,-652.83 546.31,-662.98 550.29,-653.16 543.29,-652.83"/>
</a>
</g>
<text text-anchor="middle" x="604.5" y="-582" font-family="Helvetica,sans-Serif" font-size="10.00" fill="grey"> controlPoints</text>
</g>
<!-- Node14 -->
<g id="Node000014" class="node">
<title>Node14</title>
<g id="a_Node000014"><a xlink:title=" ">
<polygon fill="white" stroke="#666666" points="563,-759 529,-759 529,-740 563,-740 563,-759"/>
<text text-anchor="middle" x="546" y="-747" font-family="Helvetica,sans-Serif" font-size="10.00">s16</text>
</a>
</g>
</g>
<!-- Node14&#45;&gt;Node5 -->
<g id="edge17_Node000005_Node000014" class="edge">
<title>Node14&#45;&gt;Node5</title>
<g id="a_edge17_Node000005_Node000014"><a xlink:title=" ">
<path fill="none" stroke="#9a32cd" stroke-dasharray="5,2" d="M522.11,-734.65C433.13,-681.46 132.35,-486.32 259,-348 274.37,-331.22 440.52,-333.5 463,-330 478.04,-327.66 494.7,-323.95 507.88,-320.74"/>
<polygon fill="#9a32cd" stroke="#9a32cd" points="520.35,-737.68 530.74,-739.76 523.91,-731.65 520.35,-737.68"/>
</a>
</g>
<text text-anchor="middle" x="417" y="-637" font-family="Helvetica,sans-Serif" font-size="10.00" fill="grey"> primAlpha</text>
<text text-anchor="middle" x="417" y="-626" font-family="Helvetica,sans-Serif" font-size="10.00" fill="grey">state</text>
<text text-anchor="middle" x="417" y="-615" font-family="Helvetica,sans-Serif" font-size="10.00" fill="grey">type</text>
<text text-anchor="middle" x="417" y="-604" font-family="Helvetica,sans-Serif" font-size="10.00" fill="grey">unk_084</text>
<text text-anchor="middle" x="417" y="-593" font-family="Helvetica,sans-Serif" font-size="10.00" fill="grey">unk_09C</text>
<text text-anchor="middle" x="417" y="-582" font-family="Helvetica,sans-Serif" font-size="10.00" fill="grey">unk_09E</text>
<text text-anchor="middle" x="417" y="-571" font-family="Helvetica,sans-Serif" font-size="10.00" fill="grey">unk_0A2</text>
<text text-anchor="middle" x="417" y="-560" font-family="Helvetica,sans-Serif" font-size="10.00" fill="grey">unk_0A8</text>
<text text-anchor="middle" x="417" y="-549" font-family="Helvetica,sans-Serif" font-size="10.00" fill="grey">unk_0AA</text>
<text text-anchor="middle" x="417" y="-538" font-family="Helvetica,sans-Serif" font-size="10.00" fill="grey">unk_0AC</text>
<text text-anchor="middle" x="417" y="-527" font-family="Helvetica,sans-Serif" font-size="10.00" fill="grey">...</text>
</g>
<!-- Node14&#45;&gt;Node13 -->
<g id="edge13_Node000013_Node000014" class="edge">
<title>Node14&#45;&gt;Node13</title>
<g id="a_edge13_Node000013_Node000014"><a xlink:title=" ">
<path fill="none" stroke="#9a32cd" stroke-dasharray="5,2" d="M546,-729.52C546,-714.24 546,-693.48 546,-682"/>
<polygon fill="#9a32cd" stroke="#9a32cd" points="542.5,-729.9 546,-739.9 549.5,-729.9 542.5,-729.9"/>
</a>
</g>
<text text-anchor="middle" x="566" y="-714" font-family="Helvetica,sans-Serif" font-size="10.00" fill="grey"> pos</text>
<text text-anchor="middle" x="566" y="-703" font-family="Helvetica,sans-Serif" font-size="10.00" fill="grey">velocity</text>
</g>
<!-- Node14&#45;&gt;Node15 -->
<g id="edge15_Node000015_Node000014" class="edge">
<title>Node14&#45;&gt;Node15</title>
<g id="a_edge15_Node000015_Node000014"><a xlink:title=" ">
<path fill="none" stroke="#9a32cd" stroke-dasharray="5,2" d="M572.14,-735.52C578.41,-731.69 584.79,-727.13 590,-722 618.73,-693.7 624.83,-683.12 638,-645 655.42,-594.61 655.13,-529.27 654.38,-506.1"/>
<polygon fill="#9a32cd" stroke="#9a32cd" points="570.15,-732.62 563.17,-740.59 573.6,-738.71 570.15,-732.62"/>
</a>
</g>
<text text-anchor="middle" x="677.5" y="-670" font-family="Helvetica,sans-Serif" font-size="10.00" fill="grey"> numControlPoints</text>
</g>
<!-- Node15&#45;&gt;Node5 -->
<g id="edge14_Node000005_Node000015" class="edge">
<title>Node15&#45;&gt;Node5</title>
<g id="a_edge14_Node000005_Node000015"><a xlink:title=" ">
<path fill="none" stroke="#9a32cd" stroke-dasharray="5,2" d="M625.24,-481.28C620.55,-477.83 616.19,-473.75 613,-469 582.43,-423.59 621.69,-392.63 590,-348 581.79,-336.43 568.23,-328.28 556.29,-322.92"/>
<polygon fill="#9a32cd" stroke="#9a32cd" points="623.55,-484.35 633.86,-486.78 627.32,-478.45 623.55,-484.35"/>
</a>
</g>
<text text-anchor="middle" x="629.5" y="-406" font-family="Helvetica,sans-Serif" font-size="10.00" fill="grey"> spline</text>
</g>
<!-- Node16 -->
<g id="Node000016" class="node">
<title>Node16</title>
<g id="a_Node000016"><a xlink:title=" ">
<polygon fill="white" stroke="#666666" points="742.5,-506 707.5,-506 707.5,-487 742.5,-487 742.5,-506"/>
<text text-anchor="middle" x="725" y="-494" font-family="Helvetica,sans-Serif" font-size="10.00">u16</text>
</a>
</g>
</g>
<!-- Node16&#45;&gt;Node5 -->
<g id="edge18_Node000005_Node000016" class="edge">
<title>Node16&#45;&gt;Node5</title>
<g id="a_edge18_Node000005_Node000016"><a xlink:title=" ">
<path fill="none" stroke="#9a32cd" stroke-dasharray="5,2" d="M697.7,-485.32C685.49,-480.24 672.95,-474.1 669,-469 635.51,-425.7 682.77,-388.56 646,-348 623.14,-322.78 582.39,-316.16 556.31,-314.63"/>
<polygon fill="#9a32cd" stroke="#9a32cd" points="696.67,-488.68 707.26,-489.13 699.27,-482.18 696.67,-488.68"/>
</a>
</g>
<text text-anchor="middle" x="711.5" y="-444.5" font-family="Helvetica,sans-Serif" font-size="10.00" fill="grey"> animationTimer</text>
<text text-anchor="middle" x="711.5" y="-433.5" font-family="Helvetica,sans-Serif" font-size="10.00" fill="grey">boundingBoxSize</text>
<text text-anchor="middle" x="711.5" y="-422.5" font-family="Helvetica,sans-Serif" font-size="10.00" fill="grey">direction_angle</text>
<text text-anchor="middle" x="711.5" y="-411.5" font-family="Helvetica,sans-Serif" font-size="10.00" fill="grey">orientation</text>
<text text-anchor="middle" x="711.5" y="-400.5" font-family="Helvetica,sans-Serif" font-size="10.00" fill="grey">unk_09A</text>
<text text-anchor="middle" x="711.5" y="-389.5" font-family="Helvetica,sans-Serif" font-size="10.00" fill="grey">unk_0B8</text>
<text text-anchor="middle" x="711.5" y="-378.5" font-family="Helvetica,sans-Serif" font-size="10.00" fill="grey">unk_0C4</text>
<text text-anchor="middle" x="711.5" y="-367.5" font-family="Helvetica,sans-Serif" font-size="10.00" fill="grey">unk_0C6</text>
</g>
<!-- Node17 -->
<g id="Node000017" class="node">
<title>Node17</title>
<g id="a_Node000017"><a xlink:title=" ">
<polygon fill="white" stroke="#666666" points="38,-323 0,-323 0,-304 38,-304 38,-323"/>
<text text-anchor="middle" x="19" y="-311" font-family="Helvetica,sans-Serif" font-size="10.00">bool</text>
</a>
</g>
</g>
<!-- Node17&#45;&gt;Node1 -->
<g id="edge34_Node000001_Node000017" class="edge">
<title>Node17&#45;&gt;Node1</title>
<g id="a_edge34_Node000001_Node000017"><a xlink:title=" ">
<path fill="none" stroke="#9a32cd" stroke-dasharray="5,2" d="M13.23,-293.88C8.3,-276.3 2,-249.12 2,-225 2,-225 2,-225 2,-74.5 2,-32.28 634.24,-15.97 844.16,-11.72"/>
<polygon fill="#9a32cd" stroke="#9a32cd" points="10.01,-295.31 16.19,-303.91 16.72,-293.33 10.01,-295.31"/>
</a>
</g>
<text text-anchor="middle" x="19" y="-150" font-family="Helvetica,sans-Serif" font-size="10.00" fill="grey"> Active</text>
</g>
<!-- Node17&#45;&gt;Node3 -->
<g id="edge20_Node000003_Node000017" class="edge">
<title>Node17&#45;&gt;Node3</title>
<g id="a_edge20_Node000003_Node000017"><a xlink:title=" ">
<path fill="none" stroke="#9a32cd" stroke-dasharray="5,2" d="M23.16,-293.91C27.06,-281.22 34.25,-265.26 47,-257 102.61,-220.95 580.36,-223.42 702.6,-224.66"/>
<polygon fill="#9a32cd" stroke="#9a32cd" points="19.68,-293.39 20.53,-303.95 26.45,-295.16 19.68,-293.39"/>
</a>
</g>
<text text-anchor="middle" x="90.5" y="-265.5" font-family="Helvetica,sans-Serif" font-size="10.00" fill="grey"> bPendingDestroy</text>
</g>
<!-- Node18 -->
<g id="Node000018" class="node">
<title>Node18</title>
<g id="a_Node000018"><a xlink:href="structFVector.html" target="_top" xlink:title=" ">
<polygon fill="white" stroke="#666666" points="1102.5,-323 1049.5,-323 1049.5,-304 1102.5,-304 1102.5,-323"/>
<text text-anchor="middle" x="1076" y="-311" font-family="Helvetica,sans-Serif" font-size="10.00">FVector</text>
</a>
</g>
</g>
<!-- Node18&#45;&gt;Node1 -->
<g id="edge33_Node000001_Node000018" class="edge">
<title>Node18&#45;&gt;Node1</title>
<g id="a_edge33_Node000001_Node000018"><a xlink:title=" ">
<path fill="none" stroke="#9a32cd" stroke-dasharray="5,2" d="M1073.29,-293.72C1070.97,-276.03 1068,-248.78 1068,-225 1068,-225 1068,-225 1068,-74.5 1068,-33 1020.37,-17.8 977.58,-12.52"/>
<polygon fill="#9a32cd" stroke="#9a32cd" points="1069.85,-294.4 1074.68,-303.83 1076.78,-293.45 1069.85,-294.4"/>
</a>
</g>
<text text-anchor="middle" x="1078.5" y="-150" font-family="Helvetica,sans-Serif" font-size="10.00" fill="grey"> Pos</text>
</g>
<!-- Node18&#45;&gt;Node3 -->
<g id="edge22_Node000003_Node000018" class="edge">
<title>Node18&#45;&gt;Node3</title>
<g id="a_edge22_Node000003_Node000018"><a xlink:title=" ">
<path fill="none" stroke="#9a32cd" stroke-dasharray="5,2" d="M1045.92,-300.1C1006.7,-283.96 942.73,-257.69 940,-257 869.36,-239.06 848.39,-253.67 777,-239 770.13,-237.59 762.82,-235.6 756.09,-233.56"/>
<polygon fill="#9a32cd" stroke="#9a32cd" points="1044.73,-303.4 1055.31,-303.97 1047.39,-296.93 1044.73,-303.4"/>
</a>
</g>
<text text-anchor="middle" x="1022.5" y="-271" font-family="Helvetica,sans-Serif" font-size="10.00" fill="grey"> SpawnPos</text>
<text text-anchor="middle" x="1022.5" y="-260" font-family="Helvetica,sans-Serif" font-size="10.00" fill="grey">SpawnScale</text>
</g>
<!-- Node19 -->
<g id="Node000019" class="node">
<title>Node19</title>
<g id="a_Node000019"><a xlink:title=" ">
<polygon fill="white" stroke="#666666" points="1044,-506 1006,-506 1006,-487 1044,-487 1044,-506"/>
<text text-anchor="middle" x="1025" y="-494" font-family="Helvetica,sans-Serif" font-size="10.00">float</text>
</a>
</g>
</g>
<!-- Node19&#45;&gt;Node3 -->
<g id="edge26_Node000003_Node000019" class="edge">
<title>Node19&#45;&gt;Node3</title>
<g id="a_edge26_Node000003_Node000019"><a xlink:title=" ">
<path fill="none" stroke="#9a32cd" stroke-dasharray="5,2" d="M1020.31,-476.84C1009.98,-438.99 982.15,-352.08 932,-297 882.48,-242.61 848.27,-257.18 777,-239 770.69,-237.39 763.96,-235.46 757.64,-233.56"/>
<polygon fill="#9a32cd" stroke="#9a32cd" points="1017.03,-478.14 1022.95,-486.93 1023.8,-476.37 1017.03,-478.14"/>
</a>
</g>
<text text-anchor="middle" x="973" y="-311" font-family="Helvetica,sans-Serif" font-size="10.00" fill="grey"> Speed</text>
</g>
<!-- Node19&#45;&gt;Node18 -->
<g id="edge23_Node000018_Node000019" class="edge">
<title>Node19&#45;&gt;Node18</title>
<g id="a_edge23_Node000018_Node000019"><a xlink:title=" ">
<path fill="none" stroke="#9a32cd" stroke-dasharray="5,2" d="M1030.25,-476.87C1041.12,-438.29 1065.74,-350.91 1073.56,-323.14"/>
<polygon fill="#9a32cd" stroke="#9a32cd" points="1026.8,-476.2 1027.46,-486.77 1033.54,-478.09 1026.8,-476.2"/>
</a>
</g>
<text text-anchor="middle" x="1071" y="-417" font-family="Helvetica,sans-Serif" font-size="10.00" fill="grey"> x</text>
<text text-anchor="middle" x="1071" y="-406" font-family="Helvetica,sans-Serif" font-size="10.00" fill="grey">y</text>
<text text-anchor="middle" x="1071" y="-395" font-family="Helvetica,sans-Serif" font-size="10.00" fill="grey">z</text>
</g>
<!-- Node20 -->
<g id="Node000020" class="node">
<title>Node20</title>
<g id="a_Node000020"><a xlink:href="structIRotator.html" target="_top" xlink:title=" ">
<polygon fill="white" stroke="#666666" points="222,-323 166,-323 166,-304 222,-304 222,-323"/>
<text text-anchor="middle" x="194" y="-311" font-family="Helvetica,sans-Serif" font-size="10.00">IRotator</text>
</a>
</g>
</g>
<!-- Node20&#45;&gt;Node3 -->
<g id="edge24_Node000003_Node000020" class="edge">
<title>Node20&#45;&gt;Node3</title>
<g id="a_edge24_Node000003_Node000020"><a xlink:title=" ">
<path fill="none" stroke="#9a32cd" stroke-dasharray="5,2" d="M188.09,-293.71C185.58,-281.67 185,-266.56 194,-257 211.59,-238.33 594.67,-228.13 702.81,-225.62"/>
<polygon fill="#9a32cd" stroke="#9a32cd" points="184.78,-294.89 190.72,-303.66 191.55,-293.1 184.78,-294.89"/>
</a>
</g>
<text text-anchor="middle" x="220" y="-265.5" font-family="Helvetica,sans-Serif" font-size="10.00" fill="grey"> SpawnRot</text>
</g>
<!-- Node21 -->
<g id="Node000021" class="node">
<title>Node21</title>
<g id="a_Node000021"><a xlink:title=" ">
<polygon fill="white" stroke="#666666" points="112,-506 56,-506 56,-487 112,-487 112,-506"/>
<text text-anchor="middle" x="84" y="-494" font-family="Helvetica,sans-Serif" font-size="10.00">uint16_t</text>
</a>
</g>
</g>
<!-- Node21&#45;&gt;Node20 -->
<g id="edge25_Node000020_Node000021" class="edge">
<title>Node21&#45;&gt;Node20</title>
<g id="a_edge25_Node000020_Node000021"><a xlink:title=" ">
<path fill="none" stroke="#9a32cd" stroke-dasharray="5,2" d="M77.6,-476.91C68.39,-446.43 55.54,-385.47 85,-348 105.39,-322.07 125.7,-340.4 157,-330 162.95,-328.02 169.29,-325.52 175.01,-323.11"/>
<polygon fill="#9a32cd" stroke="#9a32cd" points="74.34,-478.22 80.74,-486.66 81.01,-476.07 74.34,-478.22"/>
</a>
</g>
<text text-anchor="middle" x="99" y="-417" font-family="Helvetica,sans-Serif" font-size="10.00" fill="grey"> pitch</text>
<text text-anchor="middle" x="99" y="-406" font-family="Helvetica,sans-Serif" font-size="10.00" fill="grey">roll</text>
<text text-anchor="middle" x="99" y="-395" font-family="Helvetica,sans-Serif" font-size="10.00" fill="grey">yaw</text>
</g>
<!-- Node22 -->
<g id="Node000022" class="node">
<title>Node22</title>
<g id="a_Node000022"><a xlink:title=" ">
<polygon fill="white" stroke="#666666" points="923,-323 815,-323 815,-304 923,-304 923,-323"/>
<text text-anchor="middle" x="869" y="-311" font-family="Helvetica,sans-Serif" font-size="10.00">vector&lt; Triangle &gt;</text>
</a>
</g>
</g>
<!-- Node22&#45;&gt;Node3 -->
<g id="edge27_Node000003_Node000022" class="edge">
<title>Node22&#45;&gt;Node3</title>
<g id="a_edge27_Node000003_Node000022"><a xlink:title=" ">
<path fill="none" stroke="#9a32cd" stroke-dasharray="5,2" d="M846.96,-298.53C818.19,-280.28 768.67,-248.89 744.74,-233.71"/>
<polygon fill="#9a32cd" stroke="#9a32cd" points="845.2,-301.55 855.52,-303.95 848.95,-295.64 845.2,-301.55"/>
</a>
</g>
<text text-anchor="middle" x="836.5" y="-265.5" font-family="Helvetica,sans-Serif" font-size="10.00" fill="grey"> Triangles</text>
</g>
<!-- Node23 -->
<g id="Node000023" class="node">
<title>Node23</title>
<g id="a_Node000023"><a xlink:title=" ">
<polygon fill="white" stroke="#666666" points="1024.5,-162 979.5,-162 979.5,-143 1024.5,-143 1024.5,-162"/>
<text text-anchor="middle" x="1002" y="-150" font-family="Helvetica,sans-Serif" font-size="10.00">size_t</text>
</a>
</g>
</g>
<!-- Node23&#45;&gt;Node2 -->
<g id="edge29_Node000002_Node000023" class="edge">
<title>Node23&#45;&gt;Node2</title>
<g id="a_edge29_Node000002_Node000023"><a xlink:title=" ">
<path fill="none" stroke="#9a32cd" stroke-dasharray="5,2" d="M991.72,-134.25C985.06,-124.17 975.67,-111.76 965,-103 955.88,-95.51 944.29,-89.47 934.19,-85.06"/>
<polygon fill="#9a32cd" stroke="#9a32cd" points="988.93,-136.39 997.21,-143 994.86,-132.67 988.93,-136.39"/>
</a>
</g>
<text text-anchor="middle" x="1003" y="-117" font-family="Helvetica,sans-Serif" font-size="10.00" fill="grey"> _count</text>
<text text-anchor="middle" x="1003" y="-106" font-family="Helvetica,sans-Serif" font-size="10.00" fill="grey">_idx</text>
</g>
<!-- Node24&#45;&gt;Node2 -->
<g id="edge30_Node000002_Node000024" class="edge">
<title>Node24&#45;&gt;Node2</title>
<g id="a_edge30_Node000002_Node000024"><a xlink:title=" ">
<path fill="none" stroke="#9a32cd" stroke-dasharray="5,2" d="M860.16,-135.16C873.55,-119.72 893.1,-97.15 903.63,-85"/>
<polygon fill="#9a32cd" stroke="#9a32cd" points="857.36,-133.05 853.46,-142.9 862.65,-137.63 857.36,-133.05"/>
</a>
</g>
<text text-anchor="middle" x="905.5" y="-111.5" font-family="Helvetica,sans-Serif" font-size="10.00" fill="grey"> _group</text>
</g>
<!-- Node25 -->
<g id="Node000025" class="node">
<title>Node25</title>
<g id="a_Node000025"><a xlink:title=" ">
<polygon fill="white" stroke="#666666" points="905.5,-239 786.5,-239 786.5,-209 905.5,-209 905.5,-239"/>
<text text-anchor="start" x="794.5" y="-227" font-family="Helvetica,sans-Serif" font-size="10.00">vector&lt; OMoleGroup</text>
<text text-anchor="middle" x="846" y="-216" font-family="Helvetica,sans-Serif" font-size="10.00">::MoleEntry &gt;</text>
</a>
</g>
</g>
<!-- Node25&#45;&gt;Node24 -->
<g id="edge32_Node000024_Node000025" class="edge">
<title>Node25&#45;&gt;Node24</title>
<g id="a_edge32_Node000024_Node000025"><a xlink:title=" ">
<path fill="none" stroke="#9a32cd" stroke-dasharray="5,2" d="M846,-198.56C846,-185.95 846,-171.35 846,-162.27"/>
<polygon fill="#9a32cd" stroke="#9a32cd" points="842.5,-198.94 846,-208.94 849.5,-198.94 842.5,-198.94"/>
</a>
</g>
<text text-anchor="middle" x="865.5" y="-183" font-family="Helvetica,sans-Serif" font-size="10.00" fill="grey"> _moles</text>
</g>
</g>
</svg>

<g id="navigator" transform="translate(0 0)" fill="#404254">
  <rect fill="#f2f5e9" fill-opacity="0.5" stroke="#606060" stroke-width=".5" x="0" y="0" width="60" height="60"/>
  <use id="zoomplus" xlink:href="#zoomPlus" x="17" y="9" onmousedown="handleZoom(evt,'in')"/>
  <use id="zoomminus" xlink:href="#zoomMin" x="42" y="9" onmousedown="handleZoom(evt,'out')"/>
  <use id="reset" xlink:href="#resetDef" x="30" y="36" onmousedown="handleReset()"/>
   <use id="arrowup" xlink:href="#arrowUp" x="0" y="0" onmousedown="handlePan(0,-1)"/>
  <use id="arrowright" xlink:href="#arrowRight" x="0" y="0" onmousedown="handlePan(1,0)"/>
  <use id="arrowdown" xlink:href="#arrowDown" x="0" y="0" onmousedown="handlePan(0,1)"/>
  <use id="arrowleft" xlink:href="#arrowLeft" x="0" y="0" onmousedown="handlePan(-1,0)"/>
</g>
<svg viewBox="0 0 15 15" width="100%" height="30px" preserveAspectRatio="xMaxYMin meet">
 <g id="arrow_out" transform="scale(0.3 0.3)">
  <a xlink:href="structOMoleGroup_1_1MoleEntry__coll__graph_org.svg" target="_base">
   <rect id="button" ry="5" rx="5" y="6" x="6" height="38" width="38"
        fill="#f2f5e9" fill-opacity="0.5" stroke="#606060" stroke-width="1.0"/>
   <path id="arrow"
     d="M 11.500037,31.436501 C 11.940474,20.09759 22.043105,11.32322 32.158766,21.979434 L 37.068811,17.246167 C 37.068811,17.246167 37.088388,32 37.088388,32 L 22.160133,31.978069 C 22.160133,31.978069 26.997745,27.140456 26.997745,27.140456 C 18.528582,18.264221 13.291696,25.230495 11.500037,31.436501 z"
     style="fill:#404040;"/>
  </a>
 </g>
</svg>

<style type='text/css'>
<![CDATA[
[data-mouse-over-selected='false'] { opacity: 0.7; }
[data-mouse-over-selected='true']  { opacity: 1.0; }
]]>
</style>
<script type="application/ecmascript"><![CDATA[
document.addEventListener('DOMContentLoaded', (event) => {
  highlightEdges();
  highlightAdjacentNodes();
});
]]></script>
</svg>
