<?xml version="1.0" encoding="UTF-8" standalone="no"?>
<!DOCTYPE svg PUBLIC "-//W3C//DTD SVG 1.1//EN"
 "http://www.w3.org/Graphics/SVG/1.1/DTD/svg11.dtd">
<!-- Generated by graphviz version 2.43.0 (0)
 -->
<!-- Title: src/textures.h Pages: 1 -->
<svg width="3828pt" height="258pt"
 viewBox="0.00 0.00 3827.50 258.00" xmlns="http://www.w3.org/2000/svg" xmlns:xlink="http://www.w3.org/1999/xlink">
<g id="graph0" class="graph" transform="scale(1 1) rotate(0) translate(4 254)">
<title>src/textures.h</title>
<!-- Node1 -->
<g id="Node000001" class="node">
<title>Node1</title>
<g id="a_Node000001"><a xlink:title=" ">
<polygon fill="#999999" stroke="#666666" points="611,-250 528,-250 528,-231 611,-231 611,-250"/>
<text text-anchor="middle" x="569.5" y="-238" font-family="Helvetica,sans-Serif" font-size="10.00">src/textures.h</text>
</a>
</g>
</g>
<!-- Node2 -->
<g id="Node000002" class="node">
<title>Node2</title>
<g id="a_Node000002"><a xlink:href="textures_8c.html" target="_top" xlink:title="Texture data. start in ram 0x801978D0 look like link to menu_items.">
<polygon fill="white" stroke="#666666" points="326,-195 219,-195 219,-176 326,-176 326,-195"/>
<text text-anchor="middle" x="272.5" y="-183" font-family="Helvetica,sans-Serif" font-size="10.00">src/data/textures.c</text>
</a>
</g>
</g>
<!-- Node1&#45;&gt;Node2 -->
<g id="edge1_Node000001_Node000002" class="edge">
<title>Node1&#45;&gt;Node2</title>
<g id="a_edge1_Node000001_Node000002"><a xlink:title=" ">
<path fill="none" stroke="#63b8ff" d="M517.89,-230.29C462.22,-220.36 374.32,-204.67 320.21,-195.01"/>
<polygon fill="#63b8ff" stroke="#63b8ff" points="517.43,-233.76 527.89,-232.07 518.66,-226.87 517.43,-233.76"/>
</a>
</g>
</g>
<!-- Node3 -->
<g id="Node000003" class="node">
<title>Node3</title>
<g id="a_Node000003"><a xlink:href="all__variables_8h.html" target="_top" xlink:title=" ">
<polygon fill="white" stroke="#666666" points="638.5,-134.5 500.5,-134.5 500.5,-115.5 638.5,-115.5 638.5,-134.5"/>
<text text-anchor="middle" x="569.5" y="-122.5" font-family="Helvetica,sans-Serif" font-size="10.00">src/debug/all_variables.h</text>
</a>
</g>
</g>
<!-- Node1&#45;&gt;Node3 -->
<g id="edge2_Node000001_Node000003" class="edge">
<title>Node1&#45;&gt;Node3</title>
<g id="a_edge2_Node000001_Node000003"><a xlink:title=" ">
<path fill="none" stroke="#63b8ff" d="M569.5,-220.65C569.5,-195.74 569.5,-152.88 569.5,-134.63"/>
<polygon fill="#63b8ff" stroke="#63b8ff" points="566,-220.97 569.5,-230.97 573,-220.97 566,-220.97"/>
</a>
</g>
</g>
<!-- Node6 -->
<g id="Node000006" class="node">
<title>Node6</title>
<g id="a_Node000006"><a xlink:href="Text_8h.html" target="_top" xlink:title=" ">
<polygon fill="white" stroke="#666666" points="476.5,-195 344.5,-195 344.5,-176 476.5,-176 476.5,-195"/>
<text text-anchor="middle" x="410.5" y="-183" font-family="Helvetica,sans-Serif" font-size="10.00">src/engine/actors/Text.h</text>
</a>
</g>
</g>
<!-- Node1&#45;&gt;Node6 -->
<g id="edge5_Node000001_Node000006" class="edge">
<title>Node1&#45;&gt;Node6</title>
<g id="a_edge5_Node000001_Node000006"><a xlink:title=" ">
<path fill="none" stroke="#63b8ff" d="M534.4,-227.8C504.72,-217.91 462.9,-203.97 436.25,-195.08"/>
<polygon fill="#63b8ff" stroke="#63b8ff" points="533.36,-231.14 543.95,-230.98 535.57,-224.5 533.36,-231.14"/>
</a>
</g>
</g>
<!-- Node14 -->
<g id="Node000014" class="node">
<title>Node14</title>
<g id="a_Node000014"><a xlink:href="menu__items_8c.html" target="_top" xlink:title=" ">
<polygon fill="white" stroke="#666666" points="760,-134.5 657,-134.5 657,-115.5 760,-115.5 760,-134.5"/>
<text text-anchor="middle" x="708.5" y="-122.5" font-family="Helvetica,sans-Serif" font-size="10.00">src/menu_items.c</text>
</a>
</g>
</g>
<!-- Node1&#45;&gt;Node14 -->
<g id="edge14_Node000001_Node000014" class="edge">
<title>Node1&#45;&gt;Node14</title>
<g id="a_edge14_Node000001_Node000014"><a xlink:title=" ">
<path fill="none" stroke="#63b8ff" d="M587.81,-224.55C617.3,-200.47 674.37,-153.87 697.93,-134.63"/>
<polygon fill="#63b8ff" stroke="#63b8ff" points="585.48,-221.93 579.95,-230.97 589.91,-227.36 585.48,-221.93"/>
</a>
</g>
</g>
<!-- Node15 -->
<g id="Node000015" class="node">
<title>Node15</title>
<g id="a_Node000015"><a xlink:href="menu__items_8h.html" target="_top" xlink:title=" ">
<polygon fill="white" stroke="#666666" points="2061.5,-195 1957.5,-195 1957.5,-176 2061.5,-176 2061.5,-195"/>
<text text-anchor="middle" x="2009.5" y="-183" font-family="Helvetica,sans-Serif" font-size="10.00">src/menu_items.h</text>
</a>
</g>
</g>
<!-- Node1&#45;&gt;Node15 -->
<g id="edge15_Node000001_Node000015" class="edge">
<title>Node1&#45;&gt;Node15</title>
<g id="a_edge15_Node000001_Node000015"><a xlink:title=" ">
<path fill="none" stroke="#63b8ff" d="M621.21,-237.6C845.37,-229.35 1731.86,-196.72 1957.19,-188.43"/>
<polygon fill="#63b8ff" stroke="#63b8ff" points="620.91,-234.11 611.04,-237.97 621.17,-241.1 620.91,-234.11"/>
</a>
</g>
</g>
<!-- Node4 -->
<g id="Node000004" class="node">
<title>Node4</title>
<g id="a_Node000004"><a xlink:href="debug_8inc_8c.html" target="_top" xlink:title=" ">
<polygon fill="white" stroke="#666666" points="630.5,-74 508.5,-74 508.5,-55 630.5,-55 630.5,-74"/>
<text text-anchor="middle" x="569.5" y="-62" font-family="Helvetica,sans-Serif" font-size="10.00">src/debug/debug.inc.c</text>
</a>
</g>
</g>
<!-- Node3&#45;&gt;Node4 -->
<g id="edge3_Node000003_Node000004" class="edge">
<title>Node3&#45;&gt;Node4</title>
<g id="a_edge3_Node000003_Node000004"><a xlink:title=" ">
<path fill="none" stroke="#63b8ff" d="M569.5,-105.16C569.5,-94.74 569.5,-82.3 569.5,-74.17"/>
<polygon fill="#63b8ff" stroke="#63b8ff" points="566,-105.37 569.5,-115.37 573,-105.37 566,-105.37"/>
</a>
</g>
</g>
<!-- Node5 -->
<g id="Node000005" class="node">
<title>Node5</title>
<g id="a_Node000005"><a xlink:href="debug_8c.html" target="_top" xlink:title=" ">
<polygon fill="white" stroke="#666666" points="622,-19 517,-19 517,0 622,0 622,-19"/>
<text text-anchor="middle" x="569.5" y="-7" font-family="Helvetica,sans-Serif" font-size="10.00">src/debug/debug.c</text>
</a>
</g>
</g>
<!-- Node4&#45;&gt;Node5 -->
<g id="edge4_Node000004_Node000005" class="edge">
<title>Node4&#45;&gt;Node5</title>
<g id="a_edge4_Node000004_Node000005"><a xlink:title=" ">
<path fill="none" stroke="#63b8ff" d="M569.5,-44.66C569.5,-35.93 569.5,-25.99 569.5,-19.09"/>
<polygon fill="#63b8ff" stroke="#63b8ff" points="566,-44.75 569.5,-54.75 573,-44.75 566,-44.75"/>
</a>
</g>
</g>
<!-- Node7 -->
<g id="Node000007" class="node">
<title>Node7</title>
<g id="a_Node000007"><a xlink:href="AllActors_8h.html" target="_top" xlink:title=" ">
<polygon fill="white" stroke="#666666" points="320.5,-134.5 198.5,-134.5 198.5,-115.5 320.5,-115.5 320.5,-134.5"/>
<text text-anchor="middle" x="259.5" y="-122.5" font-family="Helvetica,sans-Serif" font-size="10.00">src/engine/AllActors.h</text>
</a>
</g>
</g>
<!-- Node6&#45;&gt;Node7 -->
<g id="edge6_Node000006_Node000007" class="edge">
<title>Node6&#45;&gt;Node7</title>
<g id="a_edge6_Node000006_Node000007"><a xlink:title=" ">
<path fill="none" stroke="#63b8ff" d="M379.21,-172.38C350.02,-161.07 307.22,-144.49 281.48,-134.52"/>
<polygon fill="#63b8ff" stroke="#63b8ff" points="377.95,-175.64 388.54,-175.99 380.48,-169.12 377.95,-175.64"/>
</a>
</g>
</g>
<!-- Node12 -->
<g id="Node000012" class="node">
<title>Node12</title>
<g id="a_Node000012"><a xlink:href="Rulesets_8cpp.html" target="_top" xlink:title=" ">
<polygon fill="white" stroke="#666666" points="180.5,-134.5 48.5,-134.5 48.5,-115.5 180.5,-115.5 180.5,-134.5"/>
<text text-anchor="middle" x="114.5" y="-122.5" font-family="Helvetica,sans-Serif" font-size="10.00">src/engine/Rulesets.cpp</text>
</a>
</g>
</g>
<!-- Node6&#45;&gt;Node12 -->
<g id="edge12_Node000006_Node000012" class="edge">
<title>Node6&#45;&gt;Node12</title>
<g id="a_edge12_Node000006_Node000012"><a xlink:title=" ">
<path fill="none" stroke="#63b8ff" d="M357.54,-174.03C300.42,-162.74 210.56,-144.98 157.59,-134.52"/>
<polygon fill="#63b8ff" stroke="#63b8ff" points="356.97,-177.49 367.46,-175.99 358.33,-170.62 356.97,-177.49"/>
</a>
</g>
</g>
<!-- Node13 -->
<g id="Node000013" class="node">
<title>Node13</title>
<g id="a_Node000013"><a xlink:href="Text_8cpp.html" target="_top" xlink:title=" ">
<polygon fill="white" stroke="#666666" points="482,-134.5 339,-134.5 339,-115.5 482,-115.5 482,-134.5"/>
<text text-anchor="middle" x="410.5" y="-122.5" font-family="Helvetica,sans-Serif" font-size="10.00">src/engine/actors/Text.cpp</text>
</a>
</g>
</g>
<!-- Node6&#45;&gt;Node13 -->
<g id="edge13_Node000006_Node000013" class="edge">
<title>Node6&#45;&gt;Node13</title>
<g id="a_edge13_Node000006_Node000013"><a xlink:title=" ">
<path fill="none" stroke="#63b8ff" d="M410.5,-165.66C410.5,-155.24 410.5,-142.8 410.5,-134.67"/>
<polygon fill="#63b8ff" stroke="#63b8ff" points="407,-165.87 410.5,-175.87 414,-165.87 407,-165.87"/>
</a>
</g>
</g>
<!-- Node8 -->
<g id="Node000008" class="node">
<title>Node8</title>
<g id="a_Node000008"><a xlink:href="RegisteredActors_8cpp.html" target="_top" xlink:title=" ">
<polygon fill="white" stroke="#666666" points="346,-74 173,-74 173,-55 346,-55 346,-74"/>
<text text-anchor="middle" x="259.5" y="-62" font-family="Helvetica,sans-Serif" font-size="10.00">src/engine/RegisteredActors.cpp</text>
</a>
</g>
</g>
<!-- Node7&#45;&gt;Node8 -->
<g id="edge7_Node000007_Node000008" class="edge">
<title>Node7&#45;&gt;Node8</title>
<g id="a_edge7_Node000007_Node000008"><a xlink:title=" ">
<path fill="none" stroke="#63b8ff" d="M259.5,-105.16C259.5,-94.74 259.5,-82.3 259.5,-74.17"/>
<polygon fill="#63b8ff" stroke="#63b8ff" points="256,-105.37 259.5,-115.37 263,-105.37 256,-105.37"/>
</a>
</g>
</g>
<!-- Node9 -->
<g id="Node000009" class="node">
<title>Node9</title>
<g id="a_Node000009"><a xlink:href="ContentBrowser_8cpp.html" target="_top" xlink:title=" ">
<polygon fill="white" stroke="#666666" points="391.5,-19 225.5,-19 225.5,0 391.5,0 391.5,-19"/>
<text text-anchor="middle" x="308.5" y="-7" font-family="Helvetica,sans-Serif" font-size="10.00">src/port/ui/ContentBrowser.cpp</text>
</a>
</g>
</g>
<!-- Node7&#45;&gt;Node9 -->
<g id="edge8_Node000007_Node000009" class="edge">
<title>Node7&#45;&gt;Node9</title>
<g id="a_edge8_Node000007_Node000009"><a xlink:title=" ">
<path fill="none" stroke="#63b8ff" d="M304.77,-111.95C323.91,-104.37 344.33,-92.42 355.5,-74 368.02,-53.36 341.11,-31.09 323.07,-19.18"/>
<polygon fill="#63b8ff" stroke="#63b8ff" points="303.43,-108.71 295.23,-115.42 305.82,-115.29 303.43,-108.71"/>
</a>
</g>
</g>
<!-- Node10 -->
<g id="Node000010" class="node">
<title>Node10</title>
<g id="a_Node000010"><a xlink:href="ContentBrowser_8h.html" target="_top" xlink:title=" ">
<polygon fill="white" stroke="#666666" points="155,-74 0,-74 0,-55 155,-55 155,-74"/>
<text text-anchor="middle" x="77.5" y="-62" font-family="Helvetica,sans-Serif" font-size="10.00">src/port/ui/ContentBrowser.h</text>
</a>
</g>
</g>
<!-- Node7&#45;&gt;Node10 -->
<g id="edge9_Node000007_Node000010" class="edge">
<title>Node7&#45;&gt;Node10</title>
<g id="a_edge9_Node000007_Node000010"><a xlink:title=" ">
<path fill="none" stroke="#63b8ff" d="M223.15,-112.32C187.95,-101 135.42,-84.12 104,-74.02"/>
<polygon fill="#63b8ff" stroke="#63b8ff" points="222.44,-115.77 233.04,-115.49 224.59,-109.1 222.44,-115.77"/>
</a>
</g>
</g>
<!-- Node10&#45;&gt;Node9 -->
<g id="edge10_Node000010_Node000009" class="edge">
<title>Node10&#45;&gt;Node9</title>
<g id="a_edge10_Node000010_Node000009"><a xlink:title=" ">
<path fill="none" stroke="#63b8ff" d="M124.61,-52.69C167.89,-42.76 231.19,-28.24 271.09,-19.08"/>
<polygon fill="#63b8ff" stroke="#63b8ff" points="123.58,-49.34 114.61,-54.98 125.14,-56.16 123.58,-49.34"/>
</a>
</g>
</g>
<!-- Node11 -->
<g id="Node000011" class="node">
<title>Node11</title>
<g id="a_Node000011"><a xlink:href="ImguiUI_8cpp.html" target="_top" xlink:title=" ">
<polygon fill="white" stroke="#666666" points="141,-19 14,-19 14,0 141,0 141,-19"/>
<text text-anchor="middle" x="77.5" y="-7" font-family="Helvetica,sans-Serif" font-size="10.00">src/port/ui/ImguiUI.cpp</text>
</a>
</g>
</g>
<!-- Node10&#45;&gt;Node11 -->
<g id="edge11_Node000010_Node000011" class="edge">
<title>Node10&#45;&gt;Node11</title>
<g id="a_edge11_Node000010_Node000011"><a xlink:title=" ">
<path fill="none" stroke="#63b8ff" d="M77.5,-44.66C77.5,-35.93 77.5,-25.99 77.5,-19.09"/>
<polygon fill="#63b8ff" stroke="#63b8ff" points="74,-44.75 77.5,-54.75 81,-44.75 74,-44.75"/>
</a>
</g>
</g>
<!-- Node15&#45;&gt;Node3 -->
<g id="edge21_Node000015_Node000003" class="edge">
<title>Node15&#45;&gt;Node3</title>
<g id="a_edge21_Node000015_Node000003"><a xlink:title=" ">
<path fill="none" stroke="#63b8ff" d="M1947.03,-183.64C1715.35,-180.28 905.4,-166.82 648.5,-140 636.31,-138.73 623.16,-136.67 611.16,-134.53"/>
<polygon fill="#63b8ff" stroke="#63b8ff" points="1947.25,-187.15 1957.3,-183.79 1947.35,-180.15 1947.25,-187.15"/>
</a>
</g>
</g>
<!-- Node15&#45;&gt;Node13 -->
<g id="edge28_Node000015_Node000013" class="edge">
<title>Node15&#45;&gt;Node13</title>
<g id="a_edge28_Node000015_Node000013"><a xlink:title=" ">
<path fill="none" stroke="#63b8ff" d="M1946.98,-183.85C1698.58,-181.09 780.83,-169.1 491.5,-140 479,-138.74 465.53,-136.7 453.22,-134.55"/>
<polygon fill="#63b8ff" stroke="#63b8ff" points="1947.23,-187.35 1957.27,-183.96 1947.31,-180.35 1947.23,-187.35"/>
</a>
</g>
</g>
<!-- Node15&#45;&gt;Node14 -->
<g id="edge31_Node000015_Node000014" class="edge">
<title>Node15&#45;&gt;Node14</title>
<g id="a_edge31_Node000015_Node000014"><a xlink:title=" ">
<path fill="none" stroke="#63b8ff" d="M1947.17,-183.83C1729.06,-181.23 1000.91,-170.43 769.5,-140 760.02,-138.75 749.85,-136.71 740.58,-134.56"/>
<polygon fill="#63b8ff" stroke="#63b8ff" points="1947.43,-187.33 1957.47,-183.95 1947.51,-180.33 1947.43,-187.33"/>
</a>
</g>
</g>
<!-- Node16 -->
<g id="Node000016" class="node">
<title>Node16</title>
<g id="a_Node000016"><a xlink:href="external_8c.html" target="_top" xlink:title=" ">
<polygon fill="white" stroke="#666666" points="1932,-134.5 1819,-134.5 1819,-115.5 1932,-115.5 1932,-134.5"/>
<text text-anchor="middle" x="1875.5" y="-122.5" font-family="Helvetica,sans-Serif" font-size="10.00">src/audio/external.c</text>
</a>
</g>
</g>
<!-- Node15&#45;&gt;Node16 -->
<g id="edge16_Node000015_Node000016" class="edge">
<title>Node15&#45;&gt;Node16</title>
<g id="a_edge16_Node000015_Node000016"><a xlink:title=" ">
<path fill="none" stroke="#63b8ff" d="M1980.71,-171.93C1954.84,-160.64 1917.55,-144.36 1895.01,-134.52"/>
<polygon fill="#63b8ff" stroke="#63b8ff" points="1979.45,-175.2 1990.02,-175.99 1982.25,-168.78 1979.45,-175.2"/>
</a>
</g>
</g>
<!-- Node17 -->
<g id="Node000017" class="node">
<title>Node17</title>
<g id="a_Node000017"><a xlink:href="code__800029B0_8c.html" target="_top" xlink:title=" ">
<polygon fill="white" stroke="#666666" points="2069,-134.5 1950,-134.5 1950,-115.5 2069,-115.5 2069,-134.5"/>
<text text-anchor="middle" x="2009.5" y="-122.5" font-family="Helvetica,sans-Serif" font-size="10.00">src/code_800029B0.c</text>
</a>
</g>
</g>
<!-- Node15&#45;&gt;Node17 -->
<g id="edge17_Node000015_Node000017" class="edge">
<title>Node15&#45;&gt;Node17</title>
<g id="a_edge17_Node000015_Node000017"><a xlink:title=" ">
<path fill="none" stroke="#63b8ff" d="M2009.5,-165.66C2009.5,-155.24 2009.5,-142.8 2009.5,-134.67"/>
<polygon fill="#63b8ff" stroke="#63b8ff" points="2006,-165.87 2009.5,-175.87 2013,-165.87 2006,-165.87"/>
</a>
</g>
</g>
<!-- Node18 -->
<g id="Node000018" class="node">
<title>Node18</title>
<g id="a_Node000018"><a xlink:href="code__80005FD0_8c.html" target="_top" xlink:title=" ">
<polygon fill="white" stroke="#666666" points="2207.5,-134.5 2087.5,-134.5 2087.5,-115.5 2207.5,-115.5 2207.5,-134.5"/>
<text text-anchor="middle" x="2147.5" y="-122.5" font-family="Helvetica,sans-Serif" font-size="10.00">src/code_80005FD0.c</text>
</a>
</g>
</g>
<!-- Node15&#45;&gt;Node18 -->
<g id="edge18_Node000015_Node000018" class="edge">
<title>Node15&#45;&gt;Node18</title>
<g id="a_edge18_Node000015_Node000018"><a xlink:title=" ">
<path fill="none" stroke="#63b8ff" d="M2038.79,-172.08C2065.45,-160.78 2104.1,-144.4 2127.41,-134.52"/>
<polygon fill="#63b8ff" stroke="#63b8ff" points="2037.41,-168.87 2029.57,-175.99 2040.14,-175.31 2037.41,-168.87"/>
</a>
</g>
</g>
<!-- Node19 -->
<g id="Node000019" class="node">
<title>Node19</title>
<g id="a_Node000019"><a xlink:href="code__8006E9C0_8c.html" target="_top" xlink:title=" ">
<polygon fill="white" stroke="#666666" points="2345,-134.5 2226,-134.5 2226,-115.5 2345,-115.5 2345,-134.5"/>
<text text-anchor="middle" x="2285.5" y="-122.5" font-family="Helvetica,sans-Serif" font-size="10.00">src/code_8006E9C0.c</text>
</a>
</g>
</g>
<!-- Node15&#45;&gt;Node19 -->
<g id="edge19_Node000015_Node000019" class="edge">
<title>Node15&#45;&gt;Node19</title>
<g id="a_edge19_Node000015_Node000019"><a xlink:title=" ">
<path fill="none" stroke="#63b8ff" d="M2059.55,-173.89C2112.84,-162.6 2196.14,-144.94 2245.32,-134.52"/>
<polygon fill="#63b8ff" stroke="#63b8ff" points="2058.69,-170.5 2049.63,-175.99 2060.14,-177.34 2058.69,-170.5"/>
</a>
</g>
</g>
<!-- Node20 -->
<g id="Node000020" class="node">
<title>Node20</title>
<g id="a_Node000020"><a xlink:href="code__800AF9B0_8c.html" target="_top" xlink:title=" ">
<polygon fill="white" stroke="#666666" points="2483.5,-134.5 2363.5,-134.5 2363.5,-115.5 2483.5,-115.5 2483.5,-134.5"/>
<text text-anchor="middle" x="2423.5" y="-122.5" font-family="Helvetica,sans-Serif" font-size="10.00">src/code_800AF9B0.c</text>
</a>
</g>
</g>
<!-- Node15&#45;&gt;Node20 -->
<g id="edge20_Node000015_Node000020" class="edge">
<title>Node15&#45;&gt;Node20</title>
<g id="a_edge20_Node000015_Node000020"><a xlink:title=" ">
<path fill="none" stroke="#63b8ff" d="M2071.99,-177.81C2141.25,-170.07 2256.18,-156.29 2354.5,-140 2364.03,-138.42 2374.24,-136.48 2383.82,-134.56"/>
<polygon fill="#63b8ff" stroke="#63b8ff" points="2071.24,-174.37 2061.69,-178.95 2072.01,-181.33 2071.24,-174.37"/>
</a>
</g>
</g>
<!-- Node21 -->
<g id="Node000021" class="node">
<title>Node21</title>
<g id="a_Node000021"><a xlink:href="effects_8c.html" target="_top" xlink:title=" ">
<polygon fill="white" stroke="#666666" points="2577,-134.5 2502,-134.5 2502,-115.5 2577,-115.5 2577,-134.5"/>
<text text-anchor="middle" x="2539.5" y="-122.5" font-family="Helvetica,sans-Serif" font-size="10.00">src/effects.c</text>
</a>
</g>
</g>
<!-- Node15&#45;&gt;Node21 -->
<g id="edge22_Node000015_Node000021" class="edge">
<title>Node15&#45;&gt;Node21</title>
<g id="a_edge22_Node000015_Node000021"><a xlink:title=" ">
<path fill="none" stroke="#63b8ff" d="M2071.83,-182.69C2164.39,-179.11 2343.27,-168.81 2492.5,-140 2499.52,-138.64 2507,-136.67 2513.87,-134.63"/>
<polygon fill="#63b8ff" stroke="#63b8ff" points="2071.66,-179.19 2061.8,-183.06 2071.92,-186.19 2071.66,-179.19"/>
</a>
</g>
</g>
<!-- Node22 -->
<g id="Node000022" class="node">
<title>Node22</title>
<g id="a_Node000022"><a xlink:href="ceremony__and__credits_8c.html" target="_top" xlink:title=" ">
<polygon fill="white" stroke="#666666" points="2714,-140 2595,-140 2595,-110 2714,-110 2714,-140"/>
<text text-anchor="start" x="2603" y="-128" font-family="Helvetica,sans-Serif" font-size="10.00">src/ending/ceremony</text>
<text text-anchor="middle" x="2654.5" y="-117" font-family="Helvetica,sans-Serif" font-size="10.00">_and_credits.c</text>
</a>
</g>
</g>
<!-- Node15&#45;&gt;Node22 -->
<g id="edge23_Node000015_Node000022" class="edge">
<title>Node15&#45;&gt;Node22</title>
<g id="a_edge23_Node000015_Node000022"><a xlink:title=" ">
<path fill="none" stroke="#63b8ff" d="M2072.07,-182.26C2178.28,-177.88 2400.44,-166.22 2586.5,-140 2589.25,-139.61 2592.05,-139.18 2594.87,-138.72"/>
<polygon fill="#63b8ff" stroke="#63b8ff" points="2071.7,-178.77 2061.85,-182.67 2071.99,-185.77 2071.7,-178.77"/>
</a>
</g>
</g>
<!-- Node23 -->
<g id="Node000023" class="node">
<title>Node23</title>
<g id="a_Node000023"><a xlink:href="code__80280000_8c.html" target="_top" xlink:title=" ">
<polygon fill="white" stroke="#666666" points="2887,-134.5 2732,-134.5 2732,-115.5 2887,-115.5 2887,-134.5"/>
<text text-anchor="middle" x="2809.5" y="-122.5" font-family="Helvetica,sans-Serif" font-size="10.00">src/ending/code_80280000.c</text>
</a>
</g>
</g>
<!-- Node15&#45;&gt;Node23 -->
<g id="edge24_Node000015_Node000023" class="edge">
<title>Node15&#45;&gt;Node23</title>
<g id="a_edge24_Node000015_Node000023"><a xlink:title=" ">
<path fill="none" stroke="#63b8ff" d="M2071.7,-182.7C2195.92,-178.64 2483.4,-166.96 2723.5,-140 2736.13,-138.58 2749.73,-136.59 2762.3,-134.55"/>
<polygon fill="#63b8ff" stroke="#63b8ff" points="2071.5,-179.2 2061.61,-183.02 2071.72,-186.2 2071.5,-179.2"/>
</a>
</g>
</g>
<!-- Node24 -->
<g id="Node000024" class="node">
<title>Node24</title>
<g id="a_Node000024"><a xlink:href="code__80281780_8c.html" target="_top" xlink:title=" ">
<polygon fill="white" stroke="#666666" points="3060,-134.5 2905,-134.5 2905,-115.5 3060,-115.5 3060,-134.5"/>
<text text-anchor="middle" x="2982.5" y="-122.5" font-family="Helvetica,sans-Serif" font-size="10.00">src/ending/code_80281780.c</text>
</a>
</g>
</g>
<!-- Node15&#45;&gt;Node24 -->
<g id="edge25_Node000015_Node000024" class="edge">
<title>Node15&#45;&gt;Node24</title>
<g id="a_edge25_Node000015_Node000024"><a xlink:title=" ">
<path fill="none" stroke="#63b8ff" d="M2071.69,-183.76C2216.63,-181.5 2588.05,-172.74 2896.5,-140 2909.44,-138.63 2923.39,-136.6 2936.21,-134.51"/>
<polygon fill="#63b8ff" stroke="#63b8ff" points="2071.59,-180.26 2061.65,-183.91 2071.7,-187.26 2071.59,-180.26"/>
</a>
</g>
</g>
<!-- Node25 -->
<g id="Node000025" class="node">
<title>Node25</title>
<g id="a_Node000025"><a xlink:href="code__80281C40_8c.html" target="_top" xlink:title=" ">
<polygon fill="white" stroke="#666666" points="3233,-134.5 3078,-134.5 3078,-115.5 3233,-115.5 3233,-134.5"/>
<text text-anchor="middle" x="3155.5" y="-122.5" font-family="Helvetica,sans-Serif" font-size="10.00">src/ending/code_80281C40.c</text>
</a>
</g>
</g>
<!-- Node15&#45;&gt;Node25 -->
<g id="edge26_Node000015_Node000025" class="edge">
<title>Node15&#45;&gt;Node25</title>
<g id="a_edge26_Node000015_Node000025"><a xlink:title=" ">
<path fill="none" stroke="#63b8ff" d="M2072.16,-184.48C2236.32,-183.85 2692.29,-178.48 3069.5,-140 3082.59,-138.66 3096.72,-136.62 3109.66,-134.5"/>
<polygon fill="#63b8ff" stroke="#63b8ff" points="2071.76,-180.98 2061.77,-184.51 2071.78,-187.98 2071.76,-180.98"/>
</a>
</g>
</g>
<!-- Node26 -->
<g id="Node000026" class="node">
<title>Node26</title>
<g id="a_Node000026"><a xlink:href="HM__Intro_8cpp.html" target="_top" xlink:title=" ">
<polygon fill="white" stroke="#666666" points="3385.5,-134.5 3251.5,-134.5 3251.5,-115.5 3385.5,-115.5 3385.5,-134.5"/>
<text text-anchor="middle" x="3318.5" y="-122.5" font-family="Helvetica,sans-Serif" font-size="10.00">src/engine/HM_Intro.cpp</text>
</a>
</g>
</g>
<!-- Node15&#45;&gt;Node26 -->
<g id="edge27_Node000015_Node000026" class="edge">
<title>Node15&#45;&gt;Node26</title>
<g id="a_edge27_Node000015_Node000026"><a xlink:title=" ">
<path fill="none" stroke="#63b8ff" d="M2071.81,-183.46C2288.99,-179.63 3011.92,-165.26 3242.5,-140 3254.24,-138.71 3266.88,-136.66 3278.43,-134.51"/>
<polygon fill="#63b8ff" stroke="#63b8ff" points="2071.49,-179.96 2061.55,-183.64 2071.61,-186.96 2071.49,-179.96"/>
</a>
</g>
</g>
<!-- Node27 -->
<g id="Node000027" class="node">
<title>Node27</title>
<g id="a_Node000027"><a xlink:href="Trophy_8cpp.html" target="_top" xlink:title=" ">
<polygon fill="white" stroke="#666666" points="3509,-140 3404,-140 3404,-110 3509,-110 3509,-140"/>
<text text-anchor="start" x="3412" y="-128" font-family="Helvetica,sans-Serif" font-size="10.00">src/engine/objects</text>
<text text-anchor="middle" x="3456.5" y="-117" font-family="Helvetica,sans-Serif" font-size="10.00">/Trophy.cpp</text>
</a>
</g>
</g>
<!-- Node15&#45;&gt;Node27 -->
<g id="edge29_Node000015_Node000027" class="edge">
<title>Node15&#45;&gt;Node27</title>
<g id="a_edge29_Node000015_Node000027"><a xlink:title=" ">
<path fill="none" stroke="#63b8ff" d="M2071.57,-184.07C2305.43,-182.22 3133.2,-173.39 3394.5,-140 3397.56,-139.61 3400.7,-139.13 3403.86,-138.6"/>
<polygon fill="#63b8ff" stroke="#63b8ff" points="2071.51,-180.57 2061.54,-184.15 2071.57,-187.57 2071.51,-180.57"/>
</a>
</g>
</g>
<!-- Node28 -->
<g id="Node000028" class="node">
<title>Node28</title>
<g id="a_Node000028"><a xlink:href="main_8c.html" target="_top" xlink:title=" ">
<polygon fill="white" stroke="#666666" points="3594,-134.5 3527,-134.5 3527,-115.5 3594,-115.5 3594,-134.5"/>
<text text-anchor="middle" x="3560.5" y="-122.5" font-family="Helvetica,sans-Serif" font-size="10.00">src/main.c</text>
</a>
</g>
</g>
<!-- Node15&#45;&gt;Node28 -->
<g id="edge30_Node000015_Node000028" class="edge">
<title>Node15&#45;&gt;Node28</title>
<g id="a_edge30_Node000015_Node000028"><a xlink:title=" ">
<path fill="none" stroke="#63b8ff" d="M2071.9,-183.73C2338.48,-180.32 3374.78,-165.5 3518.5,-140 3525.31,-138.79 3532.52,-136.7 3539.01,-134.5"/>
<polygon fill="#63b8ff" stroke="#63b8ff" points="2071.58,-180.24 2061.63,-183.87 2071.67,-187.24 2071.58,-180.24"/>
</a>
</g>
</g>
<!-- Node29 -->
<g id="Node000029" class="node">
<title>Node29</title>
<g id="a_Node000029"><a xlink:href="menus_8c.html" target="_top" xlink:title=" ">
<polygon fill="white" stroke="#666666" points="3687,-134.5 3612,-134.5 3612,-115.5 3687,-115.5 3687,-134.5"/>
<text text-anchor="middle" x="3649.5" y="-122.5" font-family="Helvetica,sans-Serif" font-size="10.00">src/menus.c</text>
</a>
</g>
</g>
<!-- Node15&#45;&gt;Node29 -->
<g id="edge32_Node000015_Node000029" class="edge">
<title>Node15&#45;&gt;Node29</title>
<g id="a_edge32_Node000015_Node000029"><a xlink:title=" ">
<path fill="none" stroke="#63b8ff" d="M2071.75,-183.75C2347.33,-180.27 3450.66,-164.93 3603.5,-140 3610.92,-138.79 3618.8,-136.7 3625.91,-134.5"/>
<polygon fill="#63b8ff" stroke="#63b8ff" points="2071.49,-180.25 2061.53,-183.87 2071.57,-187.25 2071.49,-180.25"/>
</a>
</g>
</g>
<!-- Node30 -->
<g id="Node000030" class="node">
<title>Node30</title>
<g id="a_Node000030"><a xlink:href="start__game_8c.html" target="_top" xlink:title=" ">
<polygon fill="white" stroke="#666666" points="3819.5,-140 3705.5,-140 3705.5,-110 3819.5,-110 3819.5,-140"/>
<text text-anchor="start" x="3713.5" y="-128" font-family="Helvetica,sans-Serif" font-size="10.00">src/networking/start</text>
<text text-anchor="middle" x="3762.5" y="-117" font-family="Helvetica,sans-Serif" font-size="10.00">_game.c</text>
</a>
</g>
</g>
<!-- Node15&#45;&gt;Node30 -->
<g id="edge33_Node000015_Node000030" class="edge">
<title>Node15&#45;&gt;Node30</title>
<g id="a_edge33_Node000015_Node000030"><a xlink:title=" ">
<path fill="none" stroke="#63b8ff" d="M2071.88,-184.38C2337.16,-183.63 3372.77,-178.28 3696.5,-140 3699.41,-139.66 3702.38,-139.25 3705.37,-138.79"/>
<polygon fill="#63b8ff" stroke="#63b8ff" points="2071.65,-180.88 2061.66,-184.41 2071.67,-187.88 2071.65,-180.88"/>
</a>
</g>
</g>
<!-- Node31 -->
<g id="Node000031" class="node">
<title>Node31</title>
<g id="a_Node000031"><a xlink:href="actors__extended_8c.html" target="_top" xlink:title=" ">
<polygon fill="white" stroke="#666666" points="934.5,-134.5 778.5,-134.5 778.5,-115.5 934.5,-115.5 934.5,-134.5"/>
<text text-anchor="middle" x="856.5" y="-122.5" font-family="Helvetica,sans-Serif" font-size="10.00">src/racing/actors_extended.c</text>
</a>
</g>
</g>
<!-- Node15&#45;&gt;Node31 -->
<g id="edge34_Node000015_Node000031" class="edge">
<title>Node15&#45;&gt;Node31</title>
<g id="a_edge34_Node000015_Node000031"><a xlink:title=" ">
<path fill="none" stroke="#63b8ff" d="M1946.85,-184.42C1782.18,-183.65 1323.78,-177.96 944.5,-140 931.26,-138.67 916.99,-136.66 903.87,-134.57"/>
<polygon fill="#63b8ff" stroke="#63b8ff" points="1947.25,-187.92 1957.26,-184.46 1947.28,-180.92 1947.25,-187.92"/>
</a>
</g>
</g>
<!-- Node32 -->
<g id="Node000032" class="node">
<title>Node32</title>
<g id="a_Node000032"><a xlink:href="race__logic_8c.html" target="_top" xlink:title=" ">
<polygon fill="white" stroke="#666666" points="1078,-134.5 953,-134.5 953,-115.5 1078,-115.5 1078,-134.5"/>
<text text-anchor="middle" x="1015.5" y="-122.5" font-family="Helvetica,sans-Serif" font-size="10.00">src/racing/race_logic.c</text>
</a>
</g>
</g>
<!-- Node15&#45;&gt;Node32 -->
<g id="edge35_Node000015_Node000032" class="edge">
<title>Node15&#45;&gt;Node32</title>
<g id="a_edge35_Node000015_Node000032"><a xlink:title=" ">
<path fill="none" stroke="#63b8ff" d="M1946.96,-184.58C1797.71,-184.08 1409.12,-178.83 1087.5,-140 1076.5,-138.67 1064.66,-136.63 1053.83,-134.51"/>
<polygon fill="#63b8ff" stroke="#63b8ff" points="1947.28,-188.08 1957.29,-184.6 1947.3,-181.08 1947.28,-188.08"/>
</a>
</g>
</g>
<!-- Node33 -->
<g id="Node000033" class="node">
<title>Node33</title>
<g id="a_Node000033"><a xlink:href="skybox__and__splitscreen_8c.html" target="_top" xlink:title=" ">
<polygon fill="white" stroke="#666666" points="1221,-140 1096,-140 1096,-110 1221,-110 1221,-140"/>
<text text-anchor="start" x="1104" y="-128" font-family="Helvetica,sans-Serif" font-size="10.00">src/racing/skybox_and</text>
<text text-anchor="middle" x="1158.5" y="-117" font-family="Helvetica,sans-Serif" font-size="10.00">_splitscreen.c</text>
</a>
</g>
</g>
<!-- Node15&#45;&gt;Node33 -->
<g id="edge36_Node000015_Node000033" class="edge">
<title>Node15&#45;&gt;Node33</title>
<g id="a_edge36_Node000015_Node000033"><a xlink:title=" ">
<path fill="none" stroke="#63b8ff" d="M1946.96,-183.79C1814.38,-181.65 1495.51,-173.18 1230.5,-140 1227.47,-139.62 1224.37,-139.19 1221.25,-138.72"/>
<polygon fill="#63b8ff" stroke="#63b8ff" points="1947.26,-187.29 1957.32,-183.95 1947.37,-180.29 1947.26,-187.29"/>
</a>
</g>
</g>
<!-- Node34 -->
<g id="Node000034" class="node">
<title>Node34</title>
<g id="a_Node000034"><a xlink:href="render__objects_8c.html" target="_top" xlink:title=" ">
<polygon fill="white" stroke="#666666" points="1353.5,-134.5 1239.5,-134.5 1239.5,-115.5 1353.5,-115.5 1353.5,-134.5"/>
<text text-anchor="middle" x="1296.5" y="-122.5" font-family="Helvetica,sans-Serif" font-size="10.00">src/render_objects.c</text>
</a>
</g>
</g>
<!-- Node15&#45;&gt;Node34 -->
<g id="edge37_Node000015_Node000034" class="edge">
<title>Node15&#45;&gt;Node34</title>
<g id="a_edge37_Node000015_Node000034"><a xlink:title=" ">
<path fill="none" stroke="#63b8ff" d="M1947.16,-183.12C1831.42,-179.91 1575.74,-169.8 1362.5,-140 1352.64,-138.62 1342.05,-136.62 1332.3,-134.55"/>
<polygon fill="#63b8ff" stroke="#63b8ff" points="1947.16,-186.62 1957.25,-183.39 1947.34,-179.62 1947.16,-186.62"/>
</a>
</g>
</g>
<!-- Node35 -->
<g id="Node000035" class="node">
<title>Node35</title>
<g id="a_Node000035"><a xlink:href="replays_8c.html" target="_top" xlink:title=" ">
<polygon fill="white" stroke="#666666" points="1449.5,-134.5 1371.5,-134.5 1371.5,-115.5 1449.5,-115.5 1449.5,-134.5"/>
<text text-anchor="middle" x="1410.5" y="-122.5" font-family="Helvetica,sans-Serif" font-size="10.00">src/replays.c</text>
</a>
</g>
</g>
<!-- Node15&#45;&gt;Node35 -->
<g id="edge38_Node000015_Node000035" class="edge">
<title>Node15&#45;&gt;Node35</title>
<g id="a_edge38_Node000015_Node000035"><a xlink:title=" ">
<path fill="none" stroke="#63b8ff" d="M1947.33,-183.46C1844.87,-180.85 1634.47,-171.75 1459.5,-140 1452.01,-138.64 1444.03,-136.62 1436.72,-134.52"/>
<polygon fill="#63b8ff" stroke="#63b8ff" points="1947.41,-186.96 1957.5,-183.7 1947.58,-179.96 1947.41,-186.96"/>
</a>
</g>
</g>
<!-- Node36 -->
<g id="Node000036" class="node">
<title>Node36</title>
<g id="a_Node000036"><a xlink:href="save_8c.html" target="_top" xlink:title=" ">
<polygon fill="white" stroke="#666666" points="1533,-134.5 1468,-134.5 1468,-115.5 1533,-115.5 1533,-134.5"/>
<text text-anchor="middle" x="1500.5" y="-122.5" font-family="Helvetica,sans-Serif" font-size="10.00">src/save.c</text>
</a>
</g>
</g>
<!-- Node15&#45;&gt;Node36 -->
<g id="edge39_Node000015_Node000036" class="edge">
<title>Node15&#45;&gt;Node36</title>
<g id="a_edge39_Node000015_Node000036"><a xlink:title=" ">
<path fill="none" stroke="#63b8ff" d="M1947.39,-183.05C1857.27,-179.94 1685.4,-170.22 1542.5,-140 1536.03,-138.63 1529.17,-136.6 1522.91,-134.51"/>
<polygon fill="#63b8ff" stroke="#63b8ff" points="1947.33,-186.55 1957.44,-183.38 1947.56,-179.55 1947.33,-186.55"/>
</a>
</g>
</g>
<!-- Node37 -->
<g id="Node000037" class="node">
<title>Node37</title>
<g id="a_Node000037"><a xlink:href="spawn__players_8c.html" target="_top" xlink:title=" ">
<polygon fill="white" stroke="#666666" points="1666,-134.5 1551,-134.5 1551,-115.5 1666,-115.5 1666,-134.5"/>
<text text-anchor="middle" x="1608.5" y="-122.5" font-family="Helvetica,sans-Serif" font-size="10.00">src/spawn_players.c</text>
</a>
</g>
</g>
<!-- Node15&#45;&gt;Node37 -->
<g id="edge40_Node000015_Node000037" class="edge">
<title>Node15&#45;&gt;Node37</title>
<g id="a_edge40_Node000015_Node000037"><a xlink:title=" ">
<path fill="none" stroke="#63b8ff" d="M1947.25,-177.59C1880.01,-169.81 1769.84,-156.12 1675.5,-140 1666.25,-138.42 1656.32,-136.48 1647.03,-134.56"/>
<polygon fill="#63b8ff" stroke="#63b8ff" points="1946.92,-181.08 1957.25,-178.74 1947.72,-174.12 1946.92,-181.08"/>
</a>
</g>
</g>
<!-- Node38 -->
<g id="Node000038" class="node">
<title>Node38</title>
<g id="a_Node000038"><a xlink:href="update__objects_8c.html" target="_top" xlink:title=" ">
<polygon fill="white" stroke="#666666" points="1800.5,-134.5 1684.5,-134.5 1684.5,-115.5 1800.5,-115.5 1800.5,-134.5"/>
<text text-anchor="middle" x="1742.5" y="-122.5" font-family="Helvetica,sans-Serif" font-size="10.00">src/update_objects.c</text>
</a>
</g>
</g>
<!-- Node15&#45;&gt;Node38 -->
<g id="edge41_Node000015_Node000038" class="edge">
<title>Node15&#45;&gt;Node38</title>
<g id="a_edge41_Node000015_Node000038"><a xlink:title=" ">
<path fill="none" stroke="#63b8ff" d="M1960.76,-173.82C1909.2,-162.52 1828.85,-144.92 1781.37,-134.52"/>
<polygon fill="#63b8ff" stroke="#63b8ff" points="1960.16,-177.27 1970.68,-175.99 1961.66,-170.43 1960.16,-177.27"/>
</a>
</g>
</g>
</g>
</svg>
