<?xml version="1.0" encoding="UTF-8" standalone="no"?>
<!DOCTYPE svg PUBLIC "-//W3C//DTD SVG 1.1//EN"
 "http://www.w3.org/Graphics/SVG/1.1/DTD/svg11.dtd">
<!-- Generated by graphviz version 2.43.0 (0)
 -->
<!-- Title: src/engine/objects/Thwomp.h Pages: 1 -->
<svg width="1010pt" height="214pt"
 viewBox="0.00 0.00 1010.00 214.00" xmlns="http://www.w3.org/2000/svg" xmlns:xlink="http://www.w3.org/1999/xlink">
<g id="graph0" class="graph" transform="scale(1 1) rotate(0) translate(4 210)">
<title>src/engine/objects/Thwomp.h</title>
<!-- Node1 -->
<g id="Node000001" class="node">
<title>Node1</title>
<g id="a_Node000001"><a xlink:title=" ">
<polygon fill="#999999" stroke="#666666" points="603,-206 498,-206 498,-176 603,-176 603,-206"/>
<text text-anchor="start" x="506" y="-194" font-family="Helvetica,sans-Serif" font-size="10.00">src/engine/objects</text>
<text text-anchor="middle" x="550.5" y="-183" font-family="Helvetica,sans-Serif" font-size="10.00">/Thwomp.h</text>
</a>
</g>
</g>
<!-- Node2 -->
<g id="Node000002" class="node">
<title>Node2</title>
<g id="a_Node000002"><a xlink:href="AllActors_8h.html" target="_top" xlink:title=" ">
<polygon fill="white" stroke="#666666" points="262.5,-134.5 140.5,-134.5 140.5,-115.5 262.5,-115.5 262.5,-134.5"/>
<text text-anchor="middle" x="201.5" y="-122.5" font-family="Helvetica,sans-Serif" font-size="10.00">src/engine/AllActors.h</text>
</a>
</g>
</g>
<!-- Node1&#45;&gt;Node2 -->
<g id="edge1_Node000001_Node000002" class="edge">
<title>Node1&#45;&gt;Node2</title>
<g id="a_edge1_Node000001_Node000002"><a xlink:title=" ">
<path fill="none" stroke="#63b8ff" d="M488.12,-179.19C431.54,-169.3 345.84,-154.09 271.5,-140 262.37,-138.27 252.58,-136.35 243.3,-134.5"/>
<polygon fill="#63b8ff" stroke="#63b8ff" points="487.54,-182.64 497.99,-180.91 488.74,-175.75 487.54,-182.64"/>
</a>
</g>
</g>
<!-- Node7 -->
<g id="Node000007" class="node">
<title>Node7</title>
<g id="a_Node000007"><a xlink:href="Rulesets_8cpp.html" target="_top" xlink:title=" ">
<polygon fill="white" stroke="#666666" points="412.5,-134.5 280.5,-134.5 280.5,-115.5 412.5,-115.5 412.5,-134.5"/>
<text text-anchor="middle" x="346.5" y="-122.5" font-family="Helvetica,sans-Serif" font-size="10.00">src/engine/Rulesets.cpp</text>
</a>
</g>
</g>
<!-- Node1&#45;&gt;Node7 -->
<g id="edge7_Node000001_Node000007" class="edge">
<title>Node1&#45;&gt;Node7</title>
<g id="a_edge7_Node000001_Node000007"><a xlink:title=" ">
<path fill="none" stroke="#63b8ff" d="M495.97,-172.89C456.47,-160.5 404.74,-144.27 373.65,-134.52"/>
<polygon fill="#63b8ff" stroke="#63b8ff" points="495.14,-176.3 505.73,-175.95 497.24,-169.62 495.14,-176.3"/>
</a>
</g>
</g>
<!-- Node8 -->
<g id="Node000008" class="node">
<title>Node8</title>
<g id="a_Node000008"><a xlink:href="BowsersCastle_8cpp.html" target="_top" xlink:title=" ">
<polygon fill="white" stroke="#666666" points="542.5,-140 430.5,-140 430.5,-110 542.5,-110 542.5,-140"/>
<text text-anchor="start" x="438.5" y="-128" font-family="Helvetica,sans-Serif" font-size="10.00">src/engine/courses</text>
<text text-anchor="middle" x="486.5" y="-117" font-family="Helvetica,sans-Serif" font-size="10.00">/BowsersCastle.cpp</text>
</a>
</g>
</g>
<!-- Node1&#45;&gt;Node8 -->
<g id="edge8_Node000001_Node000008" class="edge">
<title>Node1&#45;&gt;Node8</title>
<g id="a_edge8_Node000001_Node000008"><a xlink:title=" ">
<path fill="none" stroke="#63b8ff" d="M529.15,-168.65C519.77,-159.27 509.03,-148.53 500.66,-140.16"/>
<polygon fill="#63b8ff" stroke="#63b8ff" points="526.75,-171.2 536.3,-175.8 531.7,-166.25 526.75,-171.2"/>
</a>
</g>
</g>
<!-- Node9 -->
<g id="Node000009" class="node">
<title>Node9</title>
<g id="a_Node000009"><a xlink:href="TestCourse_8cpp.html" target="_top" xlink:title=" ">
<polygon fill="white" stroke="#666666" points="668,-140 561,-140 561,-110 668,-110 668,-140"/>
<text text-anchor="start" x="569" y="-128" font-family="Helvetica,sans-Serif" font-size="10.00">src/engine/courses</text>
<text text-anchor="middle" x="614.5" y="-117" font-family="Helvetica,sans-Serif" font-size="10.00">/TestCourse.cpp</text>
</a>
</g>
</g>
<!-- Node1&#45;&gt;Node9 -->
<g id="edge9_Node000001_Node000009" class="edge">
<title>Node1&#45;&gt;Node9</title>
<g id="a_edge9_Node000001_Node000009"><a xlink:title=" ">
<path fill="none" stroke="#63b8ff" d="M571.85,-168.65C581.23,-159.27 591.97,-148.53 600.34,-140.16"/>
<polygon fill="#63b8ff" stroke="#63b8ff" points="569.3,-166.25 564.7,-175.8 574.25,-171.2 569.3,-166.25"/>
</a>
</g>
</g>
<!-- Node10 -->
<g id="Node000010" class="node">
<title>Node10</title>
<g id="a_Node000010"><a xlink:href="SceneManager_8cpp.html" target="_top" xlink:title=" ">
<polygon fill="white" stroke="#666666" points="879,-134.5 686,-134.5 686,-115.5 879,-115.5 879,-134.5"/>
<text text-anchor="middle" x="782.5" y="-122.5" font-family="Helvetica,sans-Serif" font-size="10.00">src/engine/editor/SceneManager.cpp</text>
</a>
</g>
</g>
<!-- Node1&#45;&gt;Node10 -->
<g id="edge10_Node000001_Node000010" class="edge">
<title>Node1&#45;&gt;Node10</title>
<g id="a_edge10_Node000001_Node000010"><a xlink:title=" ">
<path fill="none" stroke="#63b8ff" d="M611.09,-173.29C656.19,-160.84 715.89,-144.37 751.62,-134.52"/>
<polygon fill="#63b8ff" stroke="#63b8ff" points="610.12,-169.92 601.41,-175.95 611.98,-176.67 610.12,-169.92"/>
</a>
</g>
</g>
<!-- Node11 -->
<g id="Node000011" class="node">
<title>Node11</title>
<g id="a_Node000011"><a xlink:href="Thwomp_8cpp.html" target="_top" xlink:title=" ">
<polygon fill="white" stroke="#666666" points="1002,-140 897,-140 897,-110 1002,-110 1002,-140"/>
<text text-anchor="start" x="905" y="-128" font-family="Helvetica,sans-Serif" font-size="10.00">src/engine/objects</text>
<text text-anchor="middle" x="949.5" y="-117" font-family="Helvetica,sans-Serif" font-size="10.00">/Thwomp.cpp</text>
</a>
</g>
</g>
<!-- Node1&#45;&gt;Node11 -->
<g id="edge11_Node000001_Node000011" class="edge">
<title>Node1&#45;&gt;Node11</title>
<g id="a_edge11_Node000001_Node000011"><a xlink:title=" ">
<path fill="none" stroke="#63b8ff" d="M613.24,-182.22C681.29,-173.44 792.99,-158 888.5,-140 891.28,-139.48 894.12,-138.92 896.98,-138.33"/>
<polygon fill="#63b8ff" stroke="#63b8ff" points="612.59,-178.78 603.12,-183.52 613.48,-185.72 612.59,-178.78"/>
</a>
</g>
</g>
<!-- Node3 -->
<g id="Node000003" class="node">
<title>Node3</title>
<g id="a_Node000003"><a xlink:href="RegisteredActors_8cpp.html" target="_top" xlink:title=" ">
<polygon fill="white" stroke="#666666" points="173,-74 0,-74 0,-55 173,-55 173,-74"/>
<text text-anchor="middle" x="86.5" y="-62" font-family="Helvetica,sans-Serif" font-size="10.00">src/engine/RegisteredActors.cpp</text>
</a>
</g>
</g>
<!-- Node2&#45;&gt;Node3 -->
<g id="edge2_Node000002_Node000003" class="edge">
<title>Node2&#45;&gt;Node3</title>
<g id="a_edge2_Node000002_Node000003"><a xlink:title=" ">
<path fill="none" stroke="#63b8ff" d="M175.41,-110.73C153.39,-99.53 122.51,-83.82 103.54,-74.17"/>
<polygon fill="#63b8ff" stroke="#63b8ff" points="174.03,-113.95 184.53,-115.37 177.21,-107.71 174.03,-113.95"/>
</a>
</g>
</g>
<!-- Node4 -->
<g id="Node000004" class="node">
<title>Node4</title>
<g id="a_Node000004"><a xlink:href="ContentBrowser_8cpp.html" target="_top" xlink:title=" ">
<polygon fill="white" stroke="#666666" points="284.5,-19 118.5,-19 118.5,0 284.5,0 284.5,-19"/>
<text text-anchor="middle" x="201.5" y="-7" font-family="Helvetica,sans-Serif" font-size="10.00">src/port/ui/ContentBrowser.cpp</text>
</a>
</g>
</g>
<!-- Node2&#45;&gt;Node4 -->
<g id="edge3_Node000002_Node000004" class="edge">
<title>Node2&#45;&gt;Node4</title>
<g id="a_edge3_Node000002_Node000004"><a xlink:title=" ">
<path fill="none" stroke="#63b8ff" d="M201.5,-105.15C201.5,-80.24 201.5,-37.38 201.5,-19.13"/>
<polygon fill="#63b8ff" stroke="#63b8ff" points="198,-105.47 201.5,-115.47 205,-105.47 198,-105.47"/>
</a>
</g>
</g>
<!-- Node5 -->
<g id="Node000005" class="node">
<title>Node5</title>
<g id="a_Node000005"><a xlink:href="ContentBrowser_8h.html" target="_top" xlink:title=" ">
<polygon fill="white" stroke="#666666" points="385,-74 230,-74 230,-55 385,-55 385,-74"/>
<text text-anchor="middle" x="307.5" y="-62" font-family="Helvetica,sans-Serif" font-size="10.00">src/port/ui/ContentBrowser.h</text>
</a>
</g>
</g>
<!-- Node2&#45;&gt;Node5 -->
<g id="edge4_Node000002_Node000005" class="edge">
<title>Node2&#45;&gt;Node5</title>
<g id="a_edge4_Node000002_Node000005"><a xlink:title=" ">
<path fill="none" stroke="#63b8ff" d="M226.1,-110.42C246.36,-99.24 274.47,-83.73 291.8,-74.17"/>
<polygon fill="#63b8ff" stroke="#63b8ff" points="224.2,-107.47 217.14,-115.37 227.59,-113.6 224.2,-107.47"/>
</a>
</g>
</g>
<!-- Node5&#45;&gt;Node4 -->
<g id="edge5_Node000005_Node000004" class="edge">
<title>Node5&#45;&gt;Node4</title>
<g id="a_edge5_Node000005_Node000004"><a xlink:title=" ">
<path fill="none" stroke="#63b8ff" d="M281.5,-50.5C262,-40.75 235.85,-27.68 218.84,-19.17"/>
<polygon fill="#63b8ff" stroke="#63b8ff" points="279.96,-53.64 290.47,-54.98 283.09,-47.38 279.96,-53.64"/>
</a>
</g>
</g>
<!-- Node6 -->
<g id="Node000006" class="node">
<title>Node6</title>
<g id="a_Node000006"><a xlink:href="ImguiUI_8cpp.html" target="_top" xlink:title=" ">
<polygon fill="white" stroke="#666666" points="430,-19 303,-19 303,0 430,0 430,-19"/>
<text text-anchor="middle" x="366.5" y="-7" font-family="Helvetica,sans-Serif" font-size="10.00">src/port/ui/ImguiUI.cpp</text>
</a>
</g>
</g>
<!-- Node5&#45;&gt;Node6 -->
<g id="edge6_Node000005_Node000006" class="edge">
<title>Node5&#45;&gt;Node6</title>
<g id="a_edge6_Node000005_Node000006"><a xlink:title=" ">
<path fill="none" stroke="#63b8ff" d="M324.7,-48.04C335.17,-38.64 348.15,-26.98 356.85,-19.17"/>
<polygon fill="#63b8ff" stroke="#63b8ff" points="322.08,-45.7 316.98,-54.98 326.76,-50.91 322.08,-45.7"/>
</a>
</g>
</g>
</g>
</svg>
