<?xml version="1.0" encoding="UTF-8" standalone="no"?>
<!DOCTYPE svg PUBLIC "-//W3C//DTD SVG 1.1//EN"
 "http://www.w3.org/Graphics/SVG/1.1/DTD/svg11.dtd">
<!-- Generated by graphviz version 2.43.0 (0)
 -->
<!-- Title: courses/harbour/track.c Pages: 1 -->
<!--zoomable 412 -->

<svg id="main" version="1.1" xmlns="http://www.w3.org/2000/svg" xmlns:xlink="http://www.w3.org/1999/xlink" xml:space="preserve" onload="init(evt)">

<style type="text/css"><![CDATA[
.node, .edge {opacity: 0.7;}
.node.selected, .edge.selected {opacity: 1;}
.edge:hover path { stroke: red; }
.edge:hover polygon { stroke: red; fill: red; }
]]></style>

<defs>
  <circle id="rim" cx="0" cy="0" r="7"/>
  <circle id="rim2" cx="0" cy="0" r="3.5"/>
  <g id="zoomPlus">
    <use xlink:href="#rim" fill="#404040"><set attributeName="fill" to="#808080" begin="zoomplus.mouseover" end="zoomplus.mouseout"/></use>
    <path d="M-4,0h8M0,-4v8" fill="none" stroke="white" stroke-width="1.5" pointer-events="none"/>
  </g>
  <g id="zoomMin">
    <use xlink:href="#rim" fill="#404040"><set attributeName="fill" to="#808080" begin="zoomminus.mouseover" end="zoomminus.mouseout"/></use>
    <path d="M-4,0h8" fill="none" stroke="white" stroke-width="1.5" pointer-events="none"/>
  </g>
  <g id="arrowUp" transform="translate(30 24)">
    <use xlink:href="#rim"/>
    <path pointer-events="none" fill="none" stroke="white" stroke-width="1.5" d="M0,-3.0v7 M-2.5,-0.5L0,-3.0L2.5,-0.5"/>
  </g>
  <g id="arrowRight" transform="rotate(90) translate(36 -43)">
    <use xlink:href="#rim"/>
    <path pointer-events="none" fill="none" stroke="white" stroke-width="1.5" d="M0,-3.0v7 M-2.5,-0.5L0,-3.0L2.5,-0.5"/>
  </g>
  <g id="arrowDown" transform="rotate(180) translate(-30 -48)">
    <use xlink:href="#rim"/>
    <path pointer-events="none" fill="none" stroke="white" stroke-width="1.5" d="M0,-3.0v7 M-2.5,-0.5L0,-3.0L2.5,-0.5"/>
  </g>
  <g id="arrowLeft" transform="rotate(270) translate(-36 17)">
    <use xlink:href="#rim"/>
    <path pointer-events="none" fill="none" stroke="white" stroke-width="1.5" d="M0,-3.0v7 M-2.5,-0.5L0,-3.0L2.5,-0.5"/>
  </g>
  <g id="resetDef">
    <use xlink:href="#rim2" fill="#404040"><set attributeName="fill" to="#808080" begin="reset.mouseover" end="reset.mouseout"/></use>
  </g>
</defs>
<script type="application/ecmascript">
var viewWidth = 1409;
var viewHeight = 412;
var sectionId = 'dynsection-0';
</script>
<script type="application/ecmascript" xlink:href="svg.min.js"/>
<svg id="graph" class="graph">
<g id="viewport">
<title>courses/harbour/track.c</title>
<!-- Node1 -->
<g id="Node000001" class="node">
<title>Node1</title>
<g id="a_Node000001"><a xlink:title=" ">
<polygon fill="#999999" stroke="#666666" points="131,-404 0,-404 0,-385 131,-385 131,-404"/>
<text text-anchor="middle" x="65.5" y="-392" font-family="Helvetica,sans-Serif" font-size="10.00">courses/harbour/track.c</text>
</a>
</g>
</g>
<!-- Node2 -->
<g id="Node000002" class="node">
<title>Node2</title>
<g id="a_Node000002"><a xlink:title=" ">
<polygon fill="#e0e0e0" stroke="#999999" points="564.5,-19 484.5,-19 484.5,0 564.5,0 564.5,-19"/>
<text text-anchor="middle" x="524.5" y="-7" font-family="Helvetica,sans-Serif" font-size="10.00">libultraship.h</text>
</a>
</g>
</g>
<!-- Node1&#45;&gt;Node2 -->
<g id="edge1_Node000001_Node000002" class="edge">
<title>Node1&#45;&gt;Node2</title>
<g id="a_edge1_Node000001_Node000002"><a xlink:title=" ">
<path fill="none" stroke="#63b8ff" d="M57.09,-384.8C41.23,-367.44 8.5,-326.63 8.5,-285.5 8.5,-285.5 8.5,-285.5 8.5,-118.5 8.5,-23.93 344.74,-11.66 474.37,-10.45"/>
<polygon fill="#63b8ff" stroke="#63b8ff" points="474.47,-13.95 484.44,-10.37 474.41,-6.95 474.47,-13.95"/>
</a>
</g>
</g>
<!-- Node3 -->
<g id="Node000003" class="node">
<title>Node3</title>
<g id="a_Node000003"><a xlink:title=" ">
<polygon fill="#e0e0e0" stroke="#999999" points="354.5,-74 276.5,-74 276.5,-55 354.5,-55 354.5,-74"/>
<text text-anchor="middle" x="315.5" y="-62" font-family="Helvetica,sans-Serif" font-size="10.00">libultra/gbi.h</text>
</a>
</g>
</g>
<!-- Node1&#45;&gt;Node3 -->
<g id="edge2_Node000001_Node000003" class="edge">
<title>Node1&#45;&gt;Node3</title>
<g id="a_edge2_Node000001_Node000003"><a xlink:title=" ">
<path fill="none" stroke="#63b8ff" d="M66.36,-384.87C70.63,-346.66 92.94,-191.02 179.5,-110 203.08,-87.93 237.8,-76.79 266.25,-71.19"/>
<polygon fill="#63b8ff" stroke="#63b8ff" points="267.19,-74.57 276.42,-69.36 265.96,-67.68 267.19,-74.57"/>
</a>
</g>
</g>
<!-- Node4 -->
<g id="Node000004" class="node">
<title>Node4</title>
<g id="a_Node000004"><a xlink:href="Game_8h.html" target="_top" xlink:title=" ">
<polygon fill="white" stroke="#666666" points="457,-349 380,-349 380,-330 457,-330 457,-349"/>
<text text-anchor="middle" x="418.5" y="-337" font-family="Helvetica,sans-Serif" font-size="10.00">port/Game.h</text>
</a>
</g>
</g>
<!-- Node1&#45;&gt;Node4 -->
<g id="edge3_Node000001_Node000004" class="edge">
<title>Node1&#45;&gt;Node4</title>
<g id="a_edge3_Node000001_Node000004"><a xlink:title=" ">
<path fill="none" stroke="#63b8ff" d="M122.22,-384.98C190.85,-374.68 305.24,-357.51 369.97,-347.79"/>
<polygon fill="#63b8ff" stroke="#63b8ff" points="370.55,-351.24 379.92,-346.29 369.51,-344.32 370.55,-351.24"/>
</a>
</g>
</g>
<!-- Node4&#45;&gt;Node2 -->
<g id="edge4_Node000004_Node000002" class="edge">
<title>Node4&#45;&gt;Node2</title>
<g id="a_edge4_Node000004_Node000002"><a xlink:title=" ">
<path fill="none" stroke="#63b8ff" d="M397.1,-329.89C315.85,-296.09 36.15,-168.67 137.5,-55 159.53,-30.29 374.3,-17.34 474.05,-12.62"/>
<polygon fill="#63b8ff" stroke="#63b8ff" points="474.37,-16.11 484.19,-12.15 474.04,-9.12 474.37,-16.11"/>
</a>
</g>
</g>
<!-- Node5 -->
<g id="Node000005" class="node">
<title>Node5</title>
<g id="a_Node000005"><a xlink:href="Course_8h.html" target="_top" xlink:title=" ">
<polygon fill="white" stroke="#666666" points="800.5,-294 664.5,-294 664.5,-275 800.5,-275 800.5,-294"/>
<text text-anchor="middle" x="732.5" y="-282" font-family="Helvetica,sans-Serif" font-size="10.00">engine/courses/Course.h</text>
</a>
</g>
</g>
<!-- Node4&#45;&gt;Node5 -->
<g id="edge5_Node000004_Node000005" class="edge">
<title>Node4&#45;&gt;Node5</title>
<g id="a_edge5_Node000004_Node000005"><a xlink:title=" ">
<path fill="none" stroke="#63b8ff" d="M457,-332C510.71,-322.94 608.65,-306.41 672.12,-295.69"/>
<polygon fill="#63b8ff" stroke="#63b8ff" points="672.72,-299.14 682,-294.02 671.55,-292.24 672.72,-299.14"/>
</a>
</g>
</g>
<!-- Node8 -->
<g id="Node000008" class="node">
<title>Node8</title>
<g id="a_Node000008"><a xlink:href="camera_8h.html" target="_top" xlink:title=" ">
<polygon fill="white" stroke="#666666" points="1261.5,-184 1199.5,-184 1199.5,-165 1261.5,-165 1261.5,-184"/>
<text text-anchor="middle" x="1230.5" y="-172" font-family="Helvetica,sans-Serif" font-size="10.00">camera.h</text>
</a>
</g>
</g>
<!-- Node4&#45;&gt;Node8 -->
<g id="edge56_Node000004_Node000008" class="edge">
<title>Node4&#45;&gt;Node8</title>
<g id="a_edge56_Node000004_Node000008"><a xlink:title=" ">
<path fill="none" stroke="#63b8ff" d="M457.31,-336.1C590.06,-327.44 1024.76,-295.33 1151.5,-239 1176.74,-227.78 1200.72,-206.45 1215.5,-191.63"/>
<polygon fill="#63b8ff" stroke="#63b8ff" points="1218.28,-193.79 1222.72,-184.17 1213.25,-188.92 1218.28,-193.79"/>
</a>
</g>
</g>
<!-- Node26 -->
<g id="Node000026" class="node">
<title>Node26</title>
<g id="a_Node000026"><a xlink:href="HM__Intro_8h.html" target="_top" xlink:title=" ">
<polygon fill="white" stroke="#666666" points="294.5,-129 188.5,-129 188.5,-110 294.5,-110 294.5,-129"/>
<text text-anchor="middle" x="241.5" y="-117" font-family="Helvetica,sans-Serif" font-size="10.00">engine/HM_Intro.h</text>
</a>
</g>
</g>
<!-- Node4&#45;&gt;Node26 -->
<g id="edge51_Node000004_Node000026" class="edge">
<title>Node4&#45;&gt;Node26</title>
<g id="a_edge51_Node000004_Node000026"><a xlink:title=" ">
<path fill="none" stroke="#63b8ff" d="M411.56,-329.95C385.13,-297.4 290.47,-180.81 255.02,-137.16"/>
<polygon fill="#63b8ff" stroke="#63b8ff" points="257.6,-134.78 248.58,-129.22 252.17,-139.19 257.6,-134.78"/>
</a>
</g>
</g>
<!-- Node27 -->
<g id="Node000027" class="node">
<title>Node27</title>
<g id="a_Node000027"><a xlink:href="actor__types_8h.html" target="_top" xlink:title=" ">
<polygon fill="white" stroke="#666666" points="1331,-129 1248,-129 1248,-110 1331,-110 1331,-129"/>
<text text-anchor="middle" x="1289.5" y="-117" font-family="Helvetica,sans-Serif" font-size="10.00">actor_types.h</text>
</a>
</g>
</g>
<!-- Node4&#45;&gt;Node27 -->
<g id="edge57_Node000004_Node000027" class="edge">
<title>Node4&#45;&gt;Node27</title>
<g id="a_edge57_Node000004_Node000027"><a xlink:title=" ">
<path fill="none" stroke="#63b8ff" d="M457.24,-337.6C547.13,-335.01 776.62,-325.61 965.5,-294 1062.78,-277.72 1089.63,-277.36 1180.5,-239 1223.69,-220.77 1241.89,-221.13 1270.5,-184 1280.49,-171.04 1285.24,-152.89 1287.49,-139.31"/>
<polygon fill="#63b8ff" stroke="#63b8ff" points="1290.99,-139.57 1288.86,-129.19 1284.05,-138.63 1290.99,-139.57"/>
</a>
</g>
</g>
<!-- Node6 -->
<g id="Node000006" class="node">
<title>Node6</title>
<g id="a_Node000006"><a xlink:title=" ">
<polygon fill="#e0e0e0" stroke="#999999" points="575.5,-239 437.5,-239 437.5,-220 575.5,-220 575.5,-239"/>
<text text-anchor="middle" x="506.5" y="-227" font-family="Helvetica,sans-Serif" font-size="10.00">libultraship/libultraship.h</text>
</a>
</g>
</g>
<!-- Node5&#45;&gt;Node6 -->
<g id="edge6_Node000005_Node000006" class="edge">
<title>Node5&#45;&gt;Node6</title>
<g id="a_edge6_Node000005_Node000006"><a xlink:title=" ">
<path fill="none" stroke="#63b8ff" d="M696.19,-274.98C657.26,-265.86 595.34,-251.33 552.9,-241.38"/>
<polygon fill="#63b8ff" stroke="#63b8ff" points="553.63,-237.96 543.1,-239.08 552.03,-244.77 553.63,-237.96"/>
</a>
</g>
</g>
<!-- Node7 -->
<g id="Node000007" class="node">
<title>Node7</title>
<g id="a_Node000007"><a xlink:href="CoreMath_8h.html" target="_top" xlink:title=" ">
<polygon fill="white" stroke="#666666" points="220,-74 147,-74 147,-55 220,-55 220,-74"/>
<text text-anchor="middle" x="183.5" y="-62" font-family="Helvetica,sans-Serif" font-size="10.00">CoreMath.h</text>
</a>
</g>
</g>
<!-- Node5&#45;&gt;Node7 -->
<g id="edge7_Node000005_Node000007" class="edge">
<title>Node5&#45;&gt;Node7</title>
<g id="a_edge7_Node000005_Node000007"><a xlink:title=" ">
<path fill="none" stroke="#63b8ff" d="M664.31,-279.63C599.67,-274.63 500.41,-263.44 417.5,-239 305.73,-206.05 242.28,-227.17 179.5,-129 170.95,-115.64 173.25,-97.28 176.92,-83.74"/>
<polygon fill="#63b8ff" stroke="#63b8ff" points="180.29,-84.69 179.98,-74.1 173.62,-82.58 180.29,-84.69"/>
</a>
</g>
</g>
<!-- Node5&#45;&gt;Node8 -->
<g id="edge9_Node000005_Node000008" class="edge">
<title>Node5&#45;&gt;Node8</title>
<g id="a_edge9_Node000005_Node000008"><a xlink:title=" ">
<path fill="none" stroke="#63b8ff" d="M800.79,-283.57C878.92,-281.84 1009.83,-273.38 1116.5,-239 1151.78,-227.63 1188.53,-204.85 1210.46,-189.9"/>
<polygon fill="#63b8ff" stroke="#63b8ff" points="1212.7,-192.6 1218.91,-184.02 1208.7,-186.86 1212.7,-192.6"/>
</a>
</g>
</g>
<!-- Node9 -->
<g id="Node000009" class="node">
<title>Node9</title>
<g id="a_Node000009"><a xlink:href="common__structs_8h.html" target="_top" xlink:title=" ">
<polygon fill="white" stroke="#666666" points="1038,-74 931,-74 931,-55 1038,-55 1038,-74"/>
<text text-anchor="middle" x="984.5" y="-62" font-family="Helvetica,sans-Serif" font-size="10.00">common_structs.h</text>
</a>
</g>
</g>
<!-- Node5&#45;&gt;Node9 -->
<g id="edge50_Node000005_Node000009" class="edge">
<title>Node5&#45;&gt;Node9</title>
<g id="a_edge50_Node000005_Node000009"><a xlink:title=" ">
<path fill="none" stroke="#63b8ff" d="M800.58,-278.93C891.13,-272.14 1041.81,-258.12 1058.5,-239 1100.96,-190.35 1034.1,-113.71 1001.14,-81.06"/>
<polygon fill="#63b8ff" stroke="#63b8ff" points="1003.56,-78.53 993.94,-74.09 998.7,-83.56 1003.56,-78.53"/>
</a>
</g>
</g>
<!-- Node10 -->
<g id="Node000010" class="node">
<title>Node10</title>
<g id="a_Node000010"><a xlink:href="course__offsets_8h.html" target="_top" xlink:title=" ">
<polygon fill="white" stroke="#666666" points="484.5,-184 388.5,-184 388.5,-165 484.5,-165 484.5,-184"/>
<text text-anchor="middle" x="436.5" y="-172" font-family="Helvetica,sans-Serif" font-size="10.00">course_offsets.h</text>
</a>
</g>
</g>
<!-- Node5&#45;&gt;Node10 -->
<g id="edge13_Node000005_Node000010" class="edge">
<title>Node5&#45;&gt;Node10</title>
<g id="a_edge13_Node000005_Node000010"><a xlink:title=" ">
<path fill="none" stroke="#63b8ff" d="M664.43,-283.46C584.31,-281.79 458.37,-273.56 428.5,-239 417.74,-226.55 422.1,-207.26 427.7,-193.21"/>
<polygon fill="#63b8ff" stroke="#63b8ff" points="430.89,-194.63 431.79,-184.07 424.5,-191.77 430.89,-194.63"/>
</a>
</g>
</g>
<!-- Node15 -->
<g id="Node000015" class="node">
<title>Node15</title>
<g id="a_Node000015"><a xlink:href="src_2data_2some__data_8h.html" target="_top" xlink:title=" ">
<polygon fill="white" stroke="#666666" points="893.5,-239 789.5,-239 789.5,-220 893.5,-220 893.5,-239"/>
<text text-anchor="middle" x="841.5" y="-227" font-family="Helvetica,sans-Serif" font-size="10.00">data/some_data.h</text>
</a>
</g>
</g>
<!-- Node5&#45;&gt;Node15 -->
<g id="edge22_Node000005_Node000015" class="edge">
<title>Node5&#45;&gt;Node15</title>
<g id="a_edge22_Node000005_Node000015"><a xlink:title=" ">
<path fill="none" stroke="#63b8ff" d="M750.01,-274.98C767.47,-266.5 794.51,-253.35 814.67,-243.54"/>
<polygon fill="#63b8ff" stroke="#63b8ff" points="816.21,-246.69 823.67,-239.17 813.14,-240.4 816.21,-246.69"/>
</a>
</g>
</g>
<!-- Node18 -->
<g id="Node000018" class="node">
<title>Node18</title>
<g id="a_Node000018"><a xlink:href="defines_8h.html" target="_top" xlink:title=" ">
<polygon fill="white" stroke="#666666" points="655,-239 594,-239 594,-220 655,-220 655,-239"/>
<text text-anchor="middle" x="624.5" y="-227" font-family="Helvetica,sans-Serif" font-size="10.00">defines.h</text>
</a>
</g>
</g>
<!-- Node5&#45;&gt;Node18 -->
<g id="edge30_Node000005_Node000018" class="edge">
<title>Node5&#45;&gt;Node18</title>
<g id="a_edge30_Node000005_Node000018"><a xlink:title=" ">
<path fill="none" stroke="#63b8ff" d="M715.15,-274.98C697.93,-266.54 671.3,-253.47 651.35,-243.68"/>
<polygon fill="#63b8ff" stroke="#63b8ff" points="652.69,-240.43 642.17,-239.17 649.6,-246.72 652.69,-240.43"/>
</a>
</g>
</g>
<!-- Node19 -->
<g id="Node000019" class="node">
<title>Node19</title>
<g id="a_Node000019"><a xlink:href="bomb__kart_8h.html" target="_top" xlink:title=" ">
<polygon fill="white" stroke="#666666" points="800,-184 723,-184 723,-165 800,-165 800,-184"/>
<text text-anchor="middle" x="761.5" y="-172" font-family="Helvetica,sans-Serif" font-size="10.00">bomb_kart.h</text>
</a>
</g>
</g>
<!-- Node5&#45;&gt;Node19 -->
<g id="edge31_Node000005_Node000019" class="edge">
<title>Node5&#45;&gt;Node19</title>
<g id="a_edge31_Node000005_Node000019"><a xlink:title=" ">
<path fill="none" stroke="#63b8ff" d="M734.87,-274.66C739.59,-257.09 750.24,-217.45 756.54,-193.95"/>
<polygon fill="#63b8ff" stroke="#63b8ff" points="759.96,-194.72 759.18,-184.16 753.2,-192.91 759.96,-194.72"/>
</a>
</g>
</g>
<!-- Node22 -->
<g id="Node000022" class="node">
<title>Node22</title>
<g id="a_Node000022"><a xlink:href="path__spawn__metadata_8h.html" target="_top" xlink:title=" ">
<polygon fill="white" stroke="#666666" points="1049,-239 912,-239 912,-220 1049,-220 1049,-239"/>
<text text-anchor="middle" x="980.5" y="-227" font-family="Helvetica,sans-Serif" font-size="10.00">path_spawn_metadata.h</text>
</a>
</g>
</g>
<!-- Node5&#45;&gt;Node22 -->
<g id="edge38_Node000005_Node000022" class="edge">
<title>Node5&#45;&gt;Node22</title>
<g id="a_edge38_Node000005_Node000022"><a xlink:title=" ">
<path fill="none" stroke="#63b8ff" d="M772.35,-274.98C815.33,-265.8 883.87,-251.15 930.46,-241.19"/>
<polygon fill="#63b8ff" stroke="#63b8ff" points="931.29,-244.59 940.34,-239.08 929.83,-237.75 931.29,-244.59"/>
</a>
</g>
</g>
<!-- Node23 -->
<g id="Node000023" class="node">
<title>Node23</title>
<g id="a_Node000023"><a xlink:href="waypoints_8h.html" target="_top" xlink:title=" ">
<polygon fill="white" stroke="#666666" points="1181.5,-184 1105.5,-184 1105.5,-165 1181.5,-165 1181.5,-184"/>
<text text-anchor="middle" x="1143.5" y="-172" font-family="Helvetica,sans-Serif" font-size="10.00">waypoints.h</text>
</a>
</g>
</g>
<!-- Node5&#45;&gt;Node23 -->
<g id="edge48_Node000005_Node000023" class="edge">
<title>Node5&#45;&gt;Node23</title>
<g id="a_edge48_Node000005_Node000023"><a xlink:title=" ">
<path fill="none" stroke="#63b8ff" d="M800.82,-281.03C890.71,-276.78 1042.97,-265.77 1091.5,-239 1110.54,-228.5 1125.35,-207.96 1134.22,-193.08"/>
<polygon fill="#63b8ff" stroke="#63b8ff" points="1137.32,-194.71 1139.17,-184.28 1131.22,-191.28 1137.32,-194.71"/>
</a>
</g>
</g>
<!-- Node25 -->
<g id="Node000025" class="node">
<title>Node25</title>
<g id="a_Node000025"><a xlink:href="sounds_8h.html" target="_top" xlink:title=" ">
<polygon fill="white" stroke="#666666" points="733.5,-239 673.5,-239 673.5,-220 733.5,-220 733.5,-239"/>
<text text-anchor="middle" x="703.5" y="-227" font-family="Helvetica,sans-Serif" font-size="10.00">sounds.h</text>
</a>
</g>
</g>
<!-- Node5&#45;&gt;Node25 -->
<g id="edge49_Node000005_Node000025" class="edge">
<title>Node5&#45;&gt;Node25</title>
<g id="a_edge49_Node000005_Node000025"><a xlink:title=" ">
<path fill="none" stroke="#63b8ff" d="M727.71,-274.75C723.74,-267.49 717.97,-256.95 713.07,-247.98"/>
<polygon fill="#63b8ff" stroke="#63b8ff" points="716.07,-246.18 708.2,-239.09 709.93,-249.54 716.07,-246.18"/>
</a>
</g>
</g>
<!-- Node7&#45;&gt;Node2 -->
<g id="edge8_Node000007_Node000002" class="edge">
<title>Node7&#45;&gt;Node2</title>
<g id="a_edge8_Node000007_Node000002"><a xlink:title=" ">
<path fill="none" stroke="#63b8ff" d="M220.26,-57.31C225.05,-56.53 229.89,-55.74 234.5,-55 318.48,-41.56 416.28,-26.72 474.15,-18.03"/>
<polygon fill="#63b8ff" stroke="#63b8ff" points="474.76,-21.47 484.13,-16.53 473.72,-14.55 474.76,-21.47"/>
</a>
</g>
</g>
<!-- Node8&#45;&gt;Node2 -->
<g id="edge10_Node000008_Node000002" class="edge">
<title>Node8&#45;&gt;Node2</title>
<g id="a_edge10_Node000008_Node000002"><a xlink:title=" ">
<path fill="none" stroke="#63b8ff" d="M1221.95,-164.94C1208.72,-151.98 1182.13,-127.1 1156.5,-110 1111.36,-79.89 1099.71,-69.79 1047.5,-55 959.5,-30.07 687.95,-16.87 574.8,-12.34"/>
<polygon fill="#63b8ff" stroke="#63b8ff" points="574.8,-8.84 564.67,-11.94 574.53,-15.83 574.8,-8.84"/>
</a>
</g>
</g>
<!-- Node8&#45;&gt;Node9 -->
<g id="edge11_Node000008_Node000009" class="edge">
<title>Node8&#45;&gt;Node9</title>
<g id="a_edge11_Node000008_Node000009"><a xlink:title=" ">
<path fill="none" stroke="#63b8ff" d="M1218.29,-164.89C1199.08,-151.65 1160.29,-126.14 1124.5,-110 1093.55,-96.04 1056.92,-84.56 1028.89,-76.76"/>
<polygon fill="#63b8ff" stroke="#63b8ff" points="1029.55,-73.31 1018.98,-74.06 1027.71,-80.07 1029.55,-73.31"/>
</a>
</g>
</g>
<!-- Node9&#45;&gt;Node2 -->
<g id="edge12_Node000009_Node000002" class="edge">
<title>Node9&#45;&gt;Node2</title>
<g id="a_edge12_Node000009_Node000002"><a xlink:title=" ">
<path fill="none" stroke="#63b8ff" d="M930.83,-57.32C841.22,-46.99 662.34,-26.38 574.93,-16.31"/>
<polygon fill="#63b8ff" stroke="#63b8ff" points="575.07,-12.8 564.74,-15.14 574.27,-19.76 575.07,-12.8"/>
</a>
</g>
</g>
<!-- Node10&#45;&gt;Node2 -->
<g id="edge14_Node000010_Node000002" class="edge">
<title>Node10&#45;&gt;Node2</title>
<g id="a_edge14_Node000010_Node000002"><a xlink:title=" ">
<path fill="none" stroke="#63b8ff" d="M441.23,-164.74C455.14,-138.98 496.08,-63.13 514.88,-28.33"/>
<polygon fill="#63b8ff" stroke="#63b8ff" points="518.07,-29.77 519.75,-19.31 511.91,-26.44 518.07,-29.77"/>
</a>
</g>
</g>
<!-- Node10&#45;&gt;Node3 -->
<g id="edge16_Node000010_Node000003" class="edge">
<title>Node10&#45;&gt;Node3</title>
<g id="a_edge16_Node000010_Node000003"><a xlink:title=" ">
<path fill="none" stroke="#63b8ff" d="M425.07,-164.96C413.55,-156.24 395.4,-142.14 380.5,-129 362.86,-113.45 343.73,-94.48 330.82,-81.34"/>
<polygon fill="#63b8ff" stroke="#63b8ff" points="333.14,-78.71 323.65,-74 328.13,-83.6 333.14,-78.71"/>
</a>
</g>
</g>
<!-- Node11 -->
<g id="Node000011" class="node">
<title>Node11</title>
<g id="a_Node000011"><a xlink:title=" ">
<polygon fill="#e0e0e0" stroke="#999999" points="230.5,-19 140.5,-19 140.5,0 230.5,0 230.5,-19"/>
<text text-anchor="middle" x="185.5" y="-7" font-family="Helvetica,sans-Serif" font-size="10.00">libultra/types.h</text>
</a>
</g>
</g>
<!-- Node10&#45;&gt;Node11 -->
<g id="edge15_Node000010_Node000011" class="edge">
<title>Node10&#45;&gt;Node11</title>
<g id="a_edge15_Node000010_Node000011"><a xlink:title=" ">
<path fill="none" stroke="#63b8ff" d="M388.25,-169.36C323.82,-163.13 213.82,-149.81 179.5,-129 147.16,-109.39 122.37,-89.66 137.5,-55 142.77,-42.92 153.13,-32.65 162.87,-25.03"/>
<polygon fill="#63b8ff" stroke="#63b8ff" points="165.09,-27.74 171.13,-19.04 160.98,-22.07 165.09,-27.74"/>
</a>
</g>
</g>
<!-- Node12 -->
<g id="Node000012" class="node">
<title>Node12</title>
<g id="a_Node000012"><a xlink:href="other__textures_8h.html" target="_top" xlink:title=" ">
<polygon fill="white" stroke="#666666" points="630,-129 499,-129 499,-110 630,-110 630,-129"/>
<text text-anchor="middle" x="564.5" y="-117" font-family="Helvetica,sans-Serif" font-size="10.00">assets/other_textures.h</text>
</a>
</g>
</g>
<!-- Node10&#45;&gt;Node12 -->
<g id="edge17_Node000010_Node000012" class="edge">
<title>Node10&#45;&gt;Node12</title>
<g id="a_edge17_Node000010_Node000012"><a xlink:title=" ">
<path fill="none" stroke="#63b8ff" d="M457.07,-164.98C477.93,-156.34 510.47,-142.87 534.27,-133.02"/>
<polygon fill="#63b8ff" stroke="#63b8ff" points="535.66,-136.23 543.56,-129.17 532.98,-129.76 535.66,-136.23"/>
</a>
</g>
</g>
<!-- Node14 -->
<g id="Node000014" class="node">
<title>Node14</title>
<g id="a_Node000014"><a xlink:href="animation_8h.html" target="_top" xlink:title=" ">
<polygon fill="white" stroke="#666666" points="872,-129 797,-129 797,-110 872,-110 872,-129"/>
<text text-anchor="middle" x="834.5" y="-117" font-family="Helvetica,sans-Serif" font-size="10.00">animation.h</text>
</a>
</g>
</g>
<!-- Node10&#45;&gt;Node14 -->
<g id="edge20_Node000010_Node000014" class="edge">
<title>Node10&#45;&gt;Node14</title>
<g id="a_edge20_Node000010_Node000014"><a xlink:title=" ">
<path fill="none" stroke="#63b8ff" d="M484.59,-168.22C550.39,-160.81 672.42,-146.43 786.84,-129.02"/>
<polygon fill="#63b8ff" stroke="#63b8ff" points="787.46,-132.47 796.82,-127.5 786.4,-125.55 787.46,-132.47"/>
</a>
</g>
</g>
<!-- Node12&#45;&gt;Node2 -->
<g id="edge18_Node000012_Node000002" class="edge">
<title>Node12&#45;&gt;Node2</title>
<g id="a_edge18_Node000012_Node000002"><a xlink:title=" ">
<path fill="none" stroke="#63b8ff" d="M561.23,-109.66C554.69,-92.01 539.9,-52.09 531.22,-28.64"/>
<polygon fill="#63b8ff" stroke="#63b8ff" points="534.46,-27.32 527.71,-19.16 527.9,-29.75 534.46,-27.32"/>
</a>
</g>
</g>
<!-- Node13 -->
<g id="Node000013" class="node">
<title>Node13</title>
<g id="a_Node000013"><a xlink:href="align__asset__macro_8h.html" target="_top" xlink:title=" ">
<polygon fill="white" stroke="#666666" points="684,-74 567,-74 567,-55 684,-55 684,-74"/>
<text text-anchor="middle" x="625.5" y="-62" font-family="Helvetica,sans-Serif" font-size="10.00">align_asset_macro.h</text>
</a>
</g>
</g>
<!-- Node12&#45;&gt;Node13 -->
<g id="edge19_Node000012_Node000013" class="edge">
<title>Node12&#45;&gt;Node13</title>
<g id="a_edge19_Node000012_Node000013"><a xlink:title=" ">
<path fill="none" stroke="#63b8ff" d="M574.3,-109.98C583.32,-102.15 596.91,-90.34 607.82,-80.86"/>
<polygon fill="#63b8ff" stroke="#63b8ff" points="610.27,-83.37 615.52,-74.17 605.68,-78.09 610.27,-83.37"/>
</a>
</g>
</g>
<!-- Node14&#45;&gt;Node9 -->
<g id="edge21_Node000014_Node000009" class="edge">
<title>Node14&#45;&gt;Node9</title>
<g id="a_edge21_Node000014_Node000009"><a xlink:title=" ">
<path fill="none" stroke="#63b8ff" d="M858.6,-109.98C883.38,-101.23 922.2,-87.51 950.19,-77.62"/>
<polygon fill="#63b8ff" stroke="#63b8ff" points="951.7,-80.8 959.96,-74.17 949.37,-74.2 951.7,-80.8"/>
</a>
</g>
</g>
<!-- Node15&#45;&gt;Node3 -->
<g id="edge23_Node000015_Node000003" class="edge">
<title>Node15&#45;&gt;Node3</title>
<g id="a_edge23_Node000015_Node000003"><a xlink:title=" ">
<path fill="none" stroke="#63b8ff" d="M789.07,-223.77C668.94,-212.89 383.74,-186.81 379.5,-184 344.22,-160.59 326.83,-111.02 319.67,-84"/>
<polygon fill="#63b8ff" stroke="#63b8ff" points="323.06,-83.12 317.28,-74.25 316.26,-84.79 323.06,-83.12"/>
</a>
</g>
</g>
<!-- Node15&#45;&gt;Node12 -->
<g id="edge26_Node000015_Node000012" class="edge">
<title>Node15&#45;&gt;Node12</title>
<g id="a_edge26_Node000015_Node000012"><a xlink:title=" ">
<path fill="none" stroke="#63b8ff" d="M839.76,-219.94C836.45,-206.04 827.89,-178.75 809.5,-165 795.77,-154.74 705.01,-140.11 637.94,-130.47"/>
<polygon fill="#63b8ff" stroke="#63b8ff" points="638.2,-126.97 627.81,-129.02 637.21,-133.9 638.2,-126.97"/>
</a>
</g>
</g>
<!-- Node16 -->
<g id="Node000016" class="node">
<title>Node16</title>
<g id="a_Node000016"><a xlink:href="spline_8h.html" target="_top" xlink:title=" ">
<polygon fill="white" stroke="#666666" points="984,-129 929,-129 929,-110 984,-110 984,-129"/>
<text text-anchor="middle" x="956.5" y="-117" font-family="Helvetica,sans-Serif" font-size="10.00">spline.h</text>
</a>
</g>
</g>
<!-- Node15&#45;&gt;Node16 -->
<g id="edge24_Node000015_Node000016" class="edge">
<title>Node15&#45;&gt;Node16</title>
<g id="a_edge24_Node000015_Node000016"><a xlink:title=" ">
<path fill="none" stroke="#63b8ff" d="M850.91,-219.66C870.38,-201.38 915.31,-159.18 939.82,-136.17"/>
<polygon fill="#63b8ff" stroke="#63b8ff" points="942.39,-138.56 947.28,-129.16 937.59,-133.45 942.39,-138.56"/>
</a>
</g>
</g>
<!-- Node17 -->
<g id="Node000017" class="node">
<title>Node17</title>
<g id="a_Node000017"><a xlink:href="objects_8h.html" target="_top" xlink:title=" ">
<polygon fill="white" stroke="#666666" points="994,-184 933,-184 933,-165 994,-165 994,-184"/>
<text text-anchor="middle" x="963.5" y="-172" font-family="Helvetica,sans-Serif" font-size="10.00">objects.h</text>
</a>
</g>
</g>
<!-- Node15&#45;&gt;Node17 -->
<g id="edge27_Node000015_Node000017" class="edge">
<title>Node15&#45;&gt;Node17</title>
<g id="a_edge27_Node000015_Node000017"><a xlink:title=" ">
<path fill="none" stroke="#63b8ff" d="M861.1,-219.98C880.82,-211.42 911.45,-198.11 934.08,-188.28"/>
<polygon fill="#63b8ff" stroke="#63b8ff" points="935.76,-191.37 943.54,-184.17 932.98,-184.94 935.76,-191.37"/>
</a>
</g>
</g>
<!-- Node16&#45;&gt;Node9 -->
<g id="edge25_Node000016_Node000009" class="edge">
<title>Node16&#45;&gt;Node9</title>
<g id="a_edge25_Node000016_Node000009"><a xlink:title=" ">
<path fill="none" stroke="#63b8ff" d="M961.12,-109.75C964.96,-102.49 970.52,-91.95 975.26,-82.98"/>
<polygon fill="#63b8ff" stroke="#63b8ff" points="978.39,-84.57 979.96,-74.09 972.2,-81.3 978.39,-84.57"/>
</a>
</g>
</g>
<!-- Node17&#45;&gt;Node9 -->
<g id="edge29_Node000017_Node000009" class="edge">
<title>Node17&#45;&gt;Node9</title>
<g id="a_edge29_Node000017_Node000009"><a xlink:title=" ">
<path fill="none" stroke="#63b8ff" d="M971.71,-164.8C979.04,-156.38 989.25,-142.9 993.5,-129 998.03,-114.19 994.98,-96.73 991.25,-83.88"/>
<polygon fill="#63b8ff" stroke="#63b8ff" points="994.56,-82.72 988.11,-74.31 987.91,-84.91 994.56,-82.72"/>
</a>
</g>
</g>
<!-- Node17&#45;&gt;Node16 -->
<g id="edge28_Node000017_Node000016" class="edge">
<title>Node17&#45;&gt;Node16</title>
<g id="a_edge28_Node000017_Node000016"><a xlink:title=" ">
<path fill="none" stroke="#63b8ff" d="M962.34,-164.75C961.43,-157.8 960.11,-147.85 958.96,-139.13"/>
<polygon fill="#63b8ff" stroke="#63b8ff" points="962.41,-138.54 957.63,-129.09 955.47,-139.46 962.41,-138.54"/>
</a>
</g>
</g>
<!-- Node19&#45;&gt;Node9 -->
<g id="edge32_Node000019_Node000009" class="edge">
<title>Node19&#45;&gt;Node9</title>
<g id="a_edge32_Node000019_Node000009"><a xlink:title=" ">
<path fill="none" stroke="#63b8ff" d="M789.31,-164.92C814.05,-156.89 850.94,-143.9 881.5,-129 911.3,-114.47 943.5,-93.72 963.82,-79.94"/>
<polygon fill="#63b8ff" stroke="#63b8ff" points="966,-82.69 972.27,-74.15 962.04,-76.92 966,-82.69"/>
</a>
</g>
</g>
<!-- Node20 -->
<g id="Node000020" class="node">
<title>Node20</title>
<g id="a_Node000020"><a xlink:href="mk64_8h.html" target="_top" xlink:title=" ">
<polygon fill="white" stroke="#666666" points="442,-129 389,-129 389,-110 442,-110 442,-129"/>
<text text-anchor="middle" x="415.5" y="-117" font-family="Helvetica,sans-Serif" font-size="10.00">mk64.h</text>
</a>
</g>
</g>
<!-- Node19&#45;&gt;Node20 -->
<g id="edge33_Node000019_Node000020" class="edge">
<title>Node19&#45;&gt;Node20</title>
<g id="a_edge33_Node000019_Node000020"><a xlink:title=" ">
<path fill="none" stroke="#63b8ff" d="M722.82,-167.57C655.53,-157.27 517.84,-136.18 452.06,-126.1"/>
<polygon fill="#63b8ff" stroke="#63b8ff" points="452.56,-122.64 442.14,-124.58 451.5,-129.56 452.56,-122.64"/>
</a>
</g>
</g>
<!-- Node20&#45;&gt;Node2 -->
<g id="edge34_Node000020_Node000002" class="edge">
<title>Node20&#45;&gt;Node2</title>
<g id="a_edge34_Node000020_Node000002"><a xlink:title=" ">
<path fill="none" stroke="#63b8ff" d="M424,-109.82C436.06,-97.54 458.83,-74.42 478.5,-55 488.19,-45.44 499.13,-34.84 507.92,-26.38"/>
<polygon fill="#63b8ff" stroke="#63b8ff" points="510.49,-28.76 515.28,-19.31 505.65,-23.71 510.49,-28.76"/>
</a>
</g>
</g>
<!-- Node20&#45;&gt;Node3 -->
<g id="edge37_Node000020_Node000003" class="edge">
<title>Node20&#45;&gt;Node3</title>
<g id="a_edge37_Node000020_Node000003"><a xlink:title=" ">
<path fill="none" stroke="#63b8ff" d="M399.43,-109.98C383.64,-101.61 359.28,-88.7 340.87,-78.95"/>
<polygon fill="#63b8ff" stroke="#63b8ff" points="342.33,-75.76 331.86,-74.17 339.06,-81.95 342.33,-75.76"/>
</a>
</g>
</g>
<!-- Node21 -->
<g id="Node000021" class="node">
<title>Node21</title>
<g id="a_Node000021"><a xlink:href="string_8h.html" target="_top" xlink:title=" ">
<polygon fill="white" stroke="#666666" points="426,-74 373,-74 373,-55 426,-55 426,-74"/>
<text text-anchor="middle" x="399.5" y="-62" font-family="Helvetica,sans-Serif" font-size="10.00">string.h</text>
</a>
</g>
</g>
<!-- Node20&#45;&gt;Node21 -->
<g id="edge35_Node000020_Node000021" class="edge">
<title>Node20&#45;&gt;Node21</title>
<g id="a_edge35_Node000020_Node000021"><a xlink:title=" ">
<path fill="none" stroke="#63b8ff" d="M412.86,-109.75C410.74,-102.72 407.69,-92.62 405.04,-83.84"/>
<polygon fill="#63b8ff" stroke="#63b8ff" points="408.33,-82.65 402.09,-74.09 401.63,-84.67 408.33,-82.65"/>
</a>
</g>
</g>
<!-- Node21&#45;&gt;Node11 -->
<g id="edge36_Node000021_Node000011" class="edge">
<title>Node21&#45;&gt;Node11</title>
<g id="a_edge36_Node000021_Node000011"><a xlink:title=" ">
<path fill="none" stroke="#63b8ff" d="M372.83,-56.89C337.04,-48.03 273.01,-32.17 229.89,-21.49"/>
<polygon fill="#63b8ff" stroke="#63b8ff" points="230.5,-18.04 219.95,-19.03 228.82,-24.83 230.5,-18.04"/>
</a>
</g>
</g>
<!-- Node22&#45;&gt;Node9 -->
<g id="edge41_Node000022_Node000009" class="edge">
<title>Node22&#45;&gt;Node9</title>
<g id="a_edge41_Node000022_Node000009"><a xlink:title=" ">
<path fill="none" stroke="#63b8ff" d="M986.34,-219.73C991.79,-211.05 999.65,-197.19 1003.5,-184 1012.73,-152.36 1016.57,-141.96 1008.5,-110 1006.09,-100.44 1001.17,-90.7 996.41,-82.78"/>
<polygon fill="#63b8ff" stroke="#63b8ff" points="999.22,-80.68 990.87,-74.16 993.33,-84.46 999.22,-80.68"/>
</a>
</g>
</g>
<!-- Node22&#45;&gt;Node19 -->
<g id="edge47_Node000022_Node000019" class="edge">
<title>Node22&#45;&gt;Node19</title>
<g id="a_edge47_Node000022_Node000019"><a xlink:title=" ">
<path fill="none" stroke="#63b8ff" d="M945.31,-219.98C907.67,-210.87 847.84,-196.4 806.73,-186.45"/>
<polygon fill="#63b8ff" stroke="#63b8ff" points="807.5,-183.03 796.96,-184.08 805.86,-189.84 807.5,-183.03"/>
</a>
</g>
</g>
<!-- Node22&#45;&gt;Node23 -->
<g id="edge39_Node000022_Node000023" class="edge">
<title>Node22&#45;&gt;Node23</title>
<g id="a_edge39_Node000022_Node000023"><a xlink:title=" ">
<path fill="none" stroke="#63b8ff" d="M1006.69,-219.98C1033.94,-211.13 1076.8,-197.19 1107.28,-187.28"/>
<polygon fill="#63b8ff" stroke="#63b8ff" points="1108.68,-190.5 1117.11,-184.08 1106.51,-183.85 1108.68,-190.5"/>
</a>
</g>
</g>
<!-- Node24 -->
<g id="Node000024" class="node">
<title>Node24</title>
<g id="a_Node000024"><a xlink:href="common__data_8h.html" target="_top" xlink:title=" ">
<polygon fill="white" stroke="#666666" points="778.5,-129 648.5,-129 648.5,-110 778.5,-110 778.5,-129"/>
<text text-anchor="middle" x="713.5" y="-117" font-family="Helvetica,sans-Serif" font-size="10.00">assets/common_data.h</text>
</a>
</g>
</g>
<!-- Node22&#45;&gt;Node24 -->
<g id="edge42_Node000022_Node000024" class="edge">
<title>Node22&#45;&gt;Node24</title>
<g id="a_edge42_Node000022_Node000024"><a xlink:title=" ">
<path fill="none" stroke="#63b8ff" d="M963.31,-219.92C937.44,-207.16 886.8,-182.78 842.5,-165 811.93,-152.73 776.51,-140.66 750.53,-132.19"/>
<polygon fill="#63b8ff" stroke="#63b8ff" points="751.31,-128.77 740.72,-129.02 749.16,-135.43 751.31,-128.77"/>
</a>
</g>
</g>
<!-- Node23&#45;&gt;Node9 -->
<g id="edge40_Node000023_Node000009" class="edge">
<title>Node23&#45;&gt;Node9</title>
<g id="a_edge40_Node000023_Node000009"><a xlink:title=" ">
<path fill="none" stroke="#63b8ff" d="M1140.05,-164.86C1134.25,-151.33 1121.29,-125.16 1102.5,-110 1082.98,-94.25 1057.31,-83.68 1034.89,-76.82"/>
<polygon fill="#63b8ff" stroke="#63b8ff" points="1035.76,-73.43 1025.18,-74.01 1033.82,-80.15 1035.76,-73.43"/>
</a>
</g>
</g>
<!-- Node24&#45;&gt;Node2 -->
<g id="edge44_Node000024_Node000002" class="edge">
<title>Node24&#45;&gt;Node2</title>
<g id="a_edge44_Node000024_Node000002"><a xlink:title=" ">
<path fill="none" stroke="#63b8ff" d="M713.3,-109.74C712.49,-96.06 708.89,-69.68 693.5,-55 661.79,-24.76 612.07,-14.48 574.75,-11.26"/>
<polygon fill="#63b8ff" stroke="#63b8ff" points="574.81,-7.75 564.58,-10.53 574.31,-14.74 574.81,-7.75"/>
</a>
</g>
</g>
<!-- Node24&#45;&gt;Node3 -->
<g id="edge43_Node000024_Node000003" class="edge">
<title>Node24&#45;&gt;Node3</title>
<g id="a_edge43_Node000024_Node000003"><a xlink:title=" ">
<path fill="none" stroke="#63b8ff" d="M648.49,-110.57C563.09,-100.08 417.73,-82.01 364.5,-74 364.4,-73.98 364.3,-73.97 364.2,-73.95"/>
<polygon fill="#63b8ff" stroke="#63b8ff" points="364.95,-70.53 354.52,-72.43 363.86,-77.44 364.95,-70.53"/>
</a>
</g>
</g>
<!-- Node24&#45;&gt;Node9 -->
<g id="edge45_Node000024_Node000009" class="edge">
<title>Node24&#45;&gt;Node9</title>
<g id="a_edge45_Node000024_Node000009"><a xlink:title=" ">
<path fill="none" stroke="#63b8ff" d="M757.04,-109.98C804.31,-100.74 879.85,-85.97 930.78,-76.01"/>
<polygon fill="#63b8ff" stroke="#63b8ff" points="931.48,-79.44 940.62,-74.08 930.13,-72.57 931.48,-79.44"/>
</a>
</g>
</g>
<!-- Node24&#45;&gt;Node13 -->
<g id="edge46_Node000024_Node000013" class="edge">
<title>Node24&#45;&gt;Node13</title>
<g id="a_edge46_Node000024_Node000013"><a xlink:title=" ">
<path fill="none" stroke="#63b8ff" d="M699.36,-109.98C685.71,-101.77 664.81,-89.18 648.72,-79.49"/>
<polygon fill="#63b8ff" stroke="#63b8ff" points="650.27,-76.33 639.9,-74.17 646.66,-82.33 650.27,-76.33"/>
</a>
</g>
</g>
<!-- Node26&#45;&gt;Node2 -->
<g id="edge52_Node000026_Node000002" class="edge">
<title>Node26&#45;&gt;Node2</title>
<g id="a_edge52_Node000026_Node000002"><a xlink:title=" ">
<path fill="none" stroke="#63b8ff" d="M242.39,-109.97C244.33,-96.11 250.23,-68.88 267.5,-55 298.62,-30 408.78,-18.33 474.35,-13.48"/>
<polygon fill="#63b8ff" stroke="#63b8ff" points="474.74,-16.96 484.47,-12.76 474.25,-9.98 474.74,-16.96"/>
</a>
</g>
</g>
<!-- Node26&#45;&gt;Node3 -->
<g id="edge53_Node000026_Node000003" class="edge">
<title>Node26&#45;&gt;Node3</title>
<g id="a_edge53_Node000026_Node000003"><a xlink:title=" ">
<path fill="none" stroke="#63b8ff" d="M253.39,-109.98C264.65,-101.92 281.79,-89.65 295.21,-80.03"/>
<polygon fill="#63b8ff" stroke="#63b8ff" points="297.3,-82.84 303.39,-74.17 293.23,-77.15 297.3,-82.84"/>
</a>
</g>
</g>
<!-- Node26&#45;&gt;Node7 -->
<g id="edge54_Node000026_Node000007" class="edge">
<title>Node26&#45;&gt;Node7</title>
<g id="a_edge54_Node000026_Node000007"><a xlink:title=" ">
<path fill="none" stroke="#63b8ff" d="M232.18,-109.98C223.69,-102.23 210.94,-90.58 200.62,-81.14"/>
<polygon fill="#63b8ff" stroke="#63b8ff" points="202.73,-78.33 192.99,-74.17 198.01,-83.5 202.73,-78.33"/>
</a>
</g>
</g>
<!-- Node26&#45;&gt;Node9 -->
<g id="edge55_Node000026_Node000009" class="edge">
<title>Node26&#45;&gt;Node9</title>
<g id="a_edge55_Node000026_Node000009"><a xlink:title=" ">
<path fill="none" stroke="#63b8ff" d="M294.64,-114.71C428.11,-105.19 777.04,-80.3 920.99,-70.03"/>
<polygon fill="#63b8ff" stroke="#63b8ff" points="921.27,-73.52 930.99,-69.32 920.77,-66.54 921.27,-73.52"/>
</a>
</g>
</g>
<!-- Node27&#45;&gt;Node2 -->
<g id="edge58_Node000027_Node000002" class="edge">
<title>Node27&#45;&gt;Node2</title>
<g id="a_edge58_Node000027_Node000002"><a xlink:title=" ">
<path fill="none" stroke="#63b8ff" d="M1282.5,-109.98C1270.12,-95.62 1242.79,-67 1212.5,-55 1153.75,-31.73 723.74,-16.57 574.98,-11.97"/>
<polygon fill="#63b8ff" stroke="#63b8ff" points="574.86,-8.47 564.76,-11.66 574.65,-15.47 574.86,-8.47"/>
</a>
</g>
</g>
<!-- Node27&#45;&gt;Node9 -->
<g id="edge62_Node000027_Node000009" class="edge">
<title>Node27&#45;&gt;Node9</title>
<g id="a_edge62_Node000027_Node000009"><a xlink:title=" ">
<path fill="none" stroke="#63b8ff" d="M1247.73,-111.24C1194.91,-102.06 1103.63,-86.2 1043.66,-75.78"/>
<polygon fill="#63b8ff" stroke="#63b8ff" points="1044.03,-72.29 1033.57,-74.03 1042.83,-79.19 1044.03,-72.29"/>
</a>
</g>
</g>
<!-- Node28 -->
<g id="Node000028" class="node">
<title>Node28</title>
<g id="a_Node000028"><a xlink:href="macros_8h.html" target="_top" xlink:title=" ">
<polygon fill="white" stroke="#666666" points="1400.5,-74 1338.5,-74 1338.5,-55 1400.5,-55 1400.5,-74"/>
<text text-anchor="middle" x="1369.5" y="-62" font-family="Helvetica,sans-Serif" font-size="10.00">macros.h</text>
</a>
</g>
</g>
<!-- Node27&#45;&gt;Node28 -->
<g id="edge59_Node000027_Node000028" class="edge">
<title>Node27&#45;&gt;Node28</title>
<g id="a_edge59_Node000027_Node000028"><a xlink:title=" ">
<path fill="none" stroke="#63b8ff" d="M1302.35,-109.98C1314.64,-101.84 1333.41,-89.41 1347.98,-79.76"/>
<polygon fill="#63b8ff" stroke="#63b8ff" points="1350.01,-82.61 1356.41,-74.17 1346.14,-76.78 1350.01,-82.61"/>
</a>
</g>
</g>
<!-- Node30 -->
<g id="Node000030" class="node">
<title>Node30</title>
<g id="a_Node000030"><a xlink:title=" ">
<polygon fill="#e0e0e0" stroke="#999999" points="1320.5,-74 1264.5,-74 1264.5,-55 1320.5,-55 1320.5,-74"/>
<text text-anchor="middle" x="1292.5" y="-62" font-family="Helvetica,sans-Serif" font-size="10.00">assert.h</text>
</a>
</g>
</g>
<!-- Node27&#45;&gt;Node30 -->
<g id="edge63_Node000027_Node000030" class="edge">
<title>Node27&#45;&gt;Node30</title>
<g id="a_edge63_Node000027_Node000030"><a xlink:title=" ">
<path fill="none" stroke="#63b8ff" d="M1290,-109.75C1290.39,-102.8 1290.95,-92.85 1291.45,-84.13"/>
<polygon fill="#63b8ff" stroke="#63b8ff" points="1294.94,-84.27 1292.01,-74.09 1287.95,-83.88 1294.94,-84.27"/>
</a>
</g>
</g>
<!-- Node28&#45;&gt;Node2 -->
<g id="edge61_Node000028_Node000002" class="edge">
<title>Node28&#45;&gt;Node2</title>
<g id="a_edge61_Node000028_Node000002"><a xlink:title=" ">
<path fill="none" stroke="#63b8ff" d="M1338.14,-56.36C1335.23,-55.84 1332.31,-55.37 1329.5,-55 1046.1,-17.28 702.46,-11.42 575.13,-10.6"/>
<polygon fill="#63b8ff" stroke="#63b8ff" points="574.93,-7.1 564.91,-10.54 574.89,-14.1 574.93,-7.1"/>
</a>
</g>
</g>
<!-- Node29 -->
<g id="Node000029" class="node">
<title>Node29</title>
<g id="a_Node000029"><a xlink:href="math_8h.html" target="_top" xlink:title=" ">
<polygon fill="white" stroke="#666666" points="1395,-19 1344,-19 1344,0 1395,0 1395,-19"/>
<text text-anchor="middle" x="1369.5" y="-7" font-family="Helvetica,sans-Serif" font-size="10.00">math.h</text>
</a>
</g>
</g>
<!-- Node28&#45;&gt;Node29 -->
<g id="edge60_Node000028_Node000029" class="edge">
<title>Node28&#45;&gt;Node29</title>
<g id="a_edge60_Node000028_Node000029"><a xlink:title=" ">
<path fill="none" stroke="#63b8ff" d="M1369.5,-54.75C1369.5,-47.8 1369.5,-37.85 1369.5,-29.13"/>
<polygon fill="#63b8ff" stroke="#63b8ff" points="1373,-29.09 1369.5,-19.09 1366,-29.09 1373,-29.09"/>
</a>
</g>
</g>
</g>
</svg>

<g id="navigator" transform="translate(0 0)" fill="#404254">
  <rect fill="#f2f5e9" fill-opacity="0.5" stroke="#606060" stroke-width=".5" x="0" y="0" width="60" height="60"/>
  <use id="zoomplus" xlink:href="#zoomPlus" x="17" y="9" onmousedown="handleZoom(evt,'in')"/>
  <use id="zoomminus" xlink:href="#zoomMin" x="42" y="9" onmousedown="handleZoom(evt,'out')"/>
  <use id="reset" xlink:href="#resetDef" x="30" y="36" onmousedown="handleReset()"/>
   <use id="arrowup" xlink:href="#arrowUp" x="0" y="0" onmousedown="handlePan(0,-1)"/>
  <use id="arrowright" xlink:href="#arrowRight" x="0" y="0" onmousedown="handlePan(1,0)"/>
  <use id="arrowdown" xlink:href="#arrowDown" x="0" y="0" onmousedown="handlePan(0,1)"/>
  <use id="arrowleft" xlink:href="#arrowLeft" x="0" y="0" onmousedown="handlePan(-1,0)"/>
</g>
<svg viewBox="0 0 15 15" width="100%" height="30px" preserveAspectRatio="xMaxYMin meet">
 <g id="arrow_out" transform="scale(0.3 0.3)">
  <a xlink:href="track_8c__incl_org.svg" target="_base">
   <rect id="button" ry="5" rx="5" y="6" x="6" height="38" width="38"
        fill="#f2f5e9" fill-opacity="0.5" stroke="#606060" stroke-width="1.0"/>
   <path id="arrow"
     d="M 11.500037,31.436501 C 11.940474,20.09759 22.043105,11.32322 32.158766,21.979434 L 37.068811,17.246167 C 37.068811,17.246167 37.088388,32 37.088388,32 L 22.160133,31.978069 C 22.160133,31.978069 26.997745,27.140456 26.997745,27.140456 C 18.528582,18.264221 13.291696,25.230495 11.500037,31.436501 z"
     style="fill:#404040;"/>
  </a>
 </g>
</svg>

<style type='text/css'>
<![CDATA[
[data-mouse-over-selected='false'] { opacity: 0.7; }
[data-mouse-over-selected='true']  { opacity: 1.0; }
]]>
</style>
<script type="application/ecmascript"><![CDATA[
document.addEventListener('DOMContentLoaded', (event) => {
  highlightEdges();
  highlightAdjacentNodes();
});
]]></script>
</svg>
