<?xml version="1.0" encoding="UTF-8" standalone="no"?>
<!DOCTYPE svg PUBLIC "-//W3C//DTD SVG 1.1//EN"
 "http://www.w3.org/Graphics/SVG/1.1/DTD/svg11.dtd">
<!-- Generated by graphviz version 2.43.0 (0)
 -->
<!-- Title: src/engine/vehicles/Train.h Pages: 1 -->
<svg width="1495pt" height="225pt"
 viewBox="0.00 0.00 1494.50 225.00" xmlns="http://www.w3.org/2000/svg" xmlns:xlink="http://www.w3.org/1999/xlink">
<g id="graph0" class="graph" transform="scale(1 1) rotate(0) translate(4 221)">
<title>src/engine/vehicles/Train.h</title>
<!-- Node1 -->
<g id="Node000001" class="node">
<title>Node1</title>
<g id="a_Node000001"><a xlink:title=" ">
<polygon fill="#999999" stroke="#666666" points="826.5,-217 716.5,-217 716.5,-187 826.5,-187 826.5,-217"/>
<text text-anchor="start" x="724.5" y="-205" font-family="Helvetica,sans-Serif" font-size="10.00">src/engine/vehicles</text>
<text text-anchor="middle" x="771.5" y="-194" font-family="Helvetica,sans-Serif" font-size="10.00">/Train.h</text>
</a>
</g>
</g>
<!-- Node2 -->
<g id="Node000002" class="node">
<title>Node2</title>
<g id="a_Node000002"><a xlink:href="AllActors_8h.html" target="_top" xlink:title=" ">
<polygon fill="white" stroke="#666666" points="262.5,-145.5 140.5,-145.5 140.5,-126.5 262.5,-126.5 262.5,-145.5"/>
<text text-anchor="middle" x="201.5" y="-133.5" font-family="Helvetica,sans-Serif" font-size="10.00">src/engine/AllActors.h</text>
</a>
</g>
</g>
<!-- Node1&#45;&gt;Node2 -->
<g id="edge1_Node000001_Node000002" class="edge">
<title>Node1&#45;&gt;Node2</title>
<g id="a_edge1_Node000001_Node000002"><a xlink:title=" ">
<path fill="none" stroke="#63b8ff" d="M706.05,-196.51C610.29,-189.47 426.54,-174.2 271.5,-151 261.45,-149.5 250.66,-147.52 240.63,-145.53"/>
<polygon fill="#63b8ff" stroke="#63b8ff" points="705.93,-200.01 716.16,-197.24 706.44,-193.02 705.93,-200.01"/>
</a>
</g>
</g>
<!-- Node7 -->
<g id="Node000007" class="node">
<title>Node7</title>
<g id="a_Node000007"><a xlink:href="Smoke_8cpp.html" target="_top" xlink:title=" ">
<polygon fill="white" stroke="#666666" points="404,-145.5 281,-145.5 281,-126.5 404,-126.5 404,-145.5"/>
<text text-anchor="middle" x="342.5" y="-133.5" font-family="Helvetica,sans-Serif" font-size="10.00">src/engine/Smoke.cpp</text>
</a>
</g>
</g>
<!-- Node1&#45;&gt;Node7 -->
<g id="edge7_Node000001_Node000007" class="edge">
<title>Node1&#45;&gt;Node7</title>
<g id="a_edge7_Node000001_Node000007"><a xlink:title=" ">
<path fill="none" stroke="#63b8ff" d="M706.01,-193.06C633.91,-184.04 514.66,-168.31 412.5,-151 402.97,-149.38 392.75,-147.45 383.14,-145.55"/>
<polygon fill="#63b8ff" stroke="#63b8ff" points="705.94,-196.58 716.3,-194.34 706.81,-189.63 705.94,-196.58"/>
</a>
</g>
</g>
<!-- Node8 -->
<g id="Node000008" class="node">
<title>Node8</title>
<g id="a_Node000008"><a xlink:href="TrainCrossing_8cpp.html" target="_top" xlink:title=" ">
<polygon fill="white" stroke="#666666" points="577,-145.5 422,-145.5 422,-126.5 577,-126.5 577,-145.5"/>
<text text-anchor="middle" x="499.5" y="-133.5" font-family="Helvetica,sans-Serif" font-size="10.00">src/engine/TrainCrossing.cpp</text>
</a>
</g>
</g>
<!-- Node1&#45;&gt;Node8 -->
<g id="edge8_Node000001_Node000008" class="edge">
<title>Node1&#45;&gt;Node8</title>
<g id="a_edge8_Node000001_Node000008"><a xlink:title=" ">
<path fill="none" stroke="#63b8ff" d="M706.39,-185.68C652.97,-173.11 579.28,-155.77 535.79,-145.54"/>
<polygon fill="#63b8ff" stroke="#63b8ff" points="705.92,-189.17 716.46,-188.05 707.52,-182.35 705.92,-189.17"/>
</a>
</g>
</g>
<!-- Node9 -->
<g id="Node000009" class="node">
<title>Node9</title>
<g id="a_Node000009"><a xlink:href="Harbour_8cpp.html" target="_top" xlink:title=" ">
<polygon fill="white" stroke="#666666" points="702,-151 595,-151 595,-121 702,-121 702,-151"/>
<text text-anchor="start" x="603" y="-139" font-family="Helvetica,sans-Serif" font-size="10.00">src/engine/courses</text>
<text text-anchor="middle" x="648.5" y="-128" font-family="Helvetica,sans-Serif" font-size="10.00">/Harbour.cpp</text>
</a>
</g>
</g>
<!-- Node1&#45;&gt;Node9 -->
<g id="edge9_Node000001_Node000009" class="edge">
<title>Node1&#45;&gt;Node9</title>
<g id="a_edge9_Node000001_Node000009"><a xlink:title=" ">
<path fill="none" stroke="#63b8ff" d="M735.45,-182.24C716.25,-172.25 693.04,-160.18 675.43,-151.01"/>
<polygon fill="#63b8ff" stroke="#63b8ff" points="734.02,-185.44 744.51,-186.95 737.25,-179.23 734.02,-185.44"/>
</a>
</g>
</g>
<!-- Node10 -->
<g id="Node000010" class="node">
<title>Node10</title>
<g id="a_Node000010"><a xlink:href="KalimariDesert_8cpp.html" target="_top" xlink:title=" ">
<polygon fill="white" stroke="#666666" points="764,-85 651,-85 651,-55 764,-55 764,-85"/>
<text text-anchor="start" x="659" y="-73" font-family="Helvetica,sans-Serif" font-size="10.00">src/engine/courses</text>
<text text-anchor="middle" x="707.5" y="-62" font-family="Helvetica,sans-Serif" font-size="10.00">/KalimariDesert.cpp</text>
</a>
</g>
</g>
<!-- Node1&#45;&gt;Node10 -->
<g id="edge10_Node000001_Node000010" class="edge">
<title>Node1&#45;&gt;Node10</title>
<g id="a_edge10_Node000001_Node000010"><a xlink:title=" ">
<path fill="none" stroke="#63b8ff" d="M760.05,-177.75C746.81,-150.84 725.42,-107.4 714.46,-85.14"/>
<polygon fill="#63b8ff" stroke="#63b8ff" points="756.97,-179.41 764.53,-186.84 763.25,-176.32 756.97,-179.41"/>
</a>
</g>
</g>
<!-- Node11 -->
<g id="Node000011" class="node">
<title>Node11</title>
<g id="a_Node000011"><a xlink:href="KalimariDesert_8h.html" target="_top" xlink:title=" ">
<polygon fill="white" stroke="#666666" points="866,-151 759,-151 759,-121 866,-121 866,-151"/>
<text text-anchor="start" x="767" y="-139" font-family="Helvetica,sans-Serif" font-size="10.00">src/engine/courses</text>
<text text-anchor="middle" x="812.5" y="-128" font-family="Helvetica,sans-Serif" font-size="10.00">/KalimariDesert.h</text>
</a>
</g>
</g>
<!-- Node1&#45;&gt;Node11 -->
<g id="edge11_Node000001_Node000011" class="edge">
<title>Node1&#45;&gt;Node11</title>
<g id="a_edge11_Node000001_Node000011"><a xlink:title=" ">
<path fill="none" stroke="#63b8ff" d="M786.08,-178.24C791.86,-169.21 798.34,-159.11 803.43,-151.16"/>
<polygon fill="#63b8ff" stroke="#63b8ff" points="783.05,-176.49 780.6,-186.8 788.94,-180.26 783.05,-176.49"/>
</a>
</g>
</g>
<!-- Node14 -->
<g id="Node000014" class="node">
<title>Node14</title>
<g id="a_Node000014"><a xlink:href="TestCourse_8cpp.html" target="_top" xlink:title=" ">
<polygon fill="white" stroke="#666666" points="991,-151 884,-151 884,-121 991,-121 991,-151"/>
<text text-anchor="start" x="892" y="-139" font-family="Helvetica,sans-Serif" font-size="10.00">src/engine/courses</text>
<text text-anchor="middle" x="937.5" y="-128" font-family="Helvetica,sans-Serif" font-size="10.00">/TestCourse.cpp</text>
</a>
</g>
</g>
<!-- Node1&#45;&gt;Node14 -->
<g id="edge15_Node000001_Node000014" class="edge">
<title>Node1&#45;&gt;Node14</title>
<g id="a_edge15_Node000001_Node000014"><a xlink:title=" ">
<path fill="none" stroke="#63b8ff" d="M817.35,-183.32C843.77,-173.14 876.52,-160.51 901.16,-151.01"/>
<polygon fill="#63b8ff" stroke="#63b8ff" points="816,-180.09 807.93,-186.95 818.52,-186.62 816,-180.09"/>
</a>
</g>
</g>
<!-- Node15 -->
<g id="Node000015" class="node">
<title>Node15</title>
<g id="a_Node000015"><a xlink:href="SceneManager_8cpp.html" target="_top" xlink:title=" ">
<polygon fill="white" stroke="#666666" points="1202,-145.5 1009,-145.5 1009,-126.5 1202,-126.5 1202,-145.5"/>
<text text-anchor="middle" x="1105.5" y="-133.5" font-family="Helvetica,sans-Serif" font-size="10.00">src/engine/editor/SceneManager.cpp</text>
</a>
</g>
</g>
<!-- Node1&#45;&gt;Node15 -->
<g id="edge16_Node000001_Node000015" class="edge">
<title>Node1&#45;&gt;Node15</title>
<g id="a_edge16_Node000001_Node000015"><a xlink:title=" ">
<path fill="none" stroke="#63b8ff" d="M836.56,-188.53C902.7,-175.86 1003.39,-156.57 1060.96,-145.53"/>
<polygon fill="#63b8ff" stroke="#63b8ff" points="835.82,-185.11 826.65,-190.43 837.13,-191.99 835.82,-185.11"/>
</a>
</g>
</g>
<!-- Node16 -->
<g id="Node000016" class="node">
<title>Node16</title>
<g id="a_Node000016"><a xlink:href="Train_8cpp.html" target="_top" xlink:title=" ">
<polygon fill="white" stroke="#666666" points="1330.5,-151 1220.5,-151 1220.5,-121 1330.5,-121 1330.5,-151"/>
<text text-anchor="start" x="1228.5" y="-139" font-family="Helvetica,sans-Serif" font-size="10.00">src/engine/vehicles</text>
<text text-anchor="middle" x="1275.5" y="-128" font-family="Helvetica,sans-Serif" font-size="10.00">/Train.cpp</text>
</a>
</g>
</g>
<!-- Node1&#45;&gt;Node16 -->
<g id="edge17_Node000001_Node000016" class="edge">
<title>Node1&#45;&gt;Node16</title>
<g id="a_edge17_Node000001_Node000016"><a xlink:title=" ">
<path fill="none" stroke="#63b8ff" d="M836.78,-195.68C922.95,-188.18 1079.22,-172.93 1211.5,-151 1214.42,-150.52 1217.4,-149.99 1220.41,-149.43"/>
<polygon fill="#63b8ff" stroke="#63b8ff" points="836.29,-192.21 826.63,-196.56 836.89,-199.19 836.29,-192.21"/>
</a>
</g>
</g>
<!-- Node17 -->
<g id="Node000017" class="node">
<title>Node17</title>
<g id="a_Node000017"><a xlink:href="Properties_8cpp.html" target="_top" xlink:title=" ">
<polygon fill="white" stroke="#666666" points="1486.5,-145.5 1348.5,-145.5 1348.5,-126.5 1486.5,-126.5 1486.5,-145.5"/>
<text text-anchor="middle" x="1417.5" y="-133.5" font-family="Helvetica,sans-Serif" font-size="10.00">src/port/ui/Properties.cpp</text>
</a>
</g>
</g>
<!-- Node1&#45;&gt;Node17 -->
<g id="edge18_Node000001_Node000017" class="edge">
<title>Node1&#45;&gt;Node17</title>
<g id="a_edge18_Node000001_Node000017"><a xlink:title=" ">
<path fill="none" stroke="#63b8ff" d="M836.71,-197.17C942.54,-190.53 1158.13,-175.21 1339.5,-151 1350.68,-149.51 1362.7,-147.53 1373.88,-145.54"/>
<polygon fill="#63b8ff" stroke="#63b8ff" points="836.28,-193.69 826.51,-197.8 836.71,-200.68 836.28,-193.69"/>
</a>
</g>
</g>
<!-- Node3 -->
<g id="Node000003" class="node">
<title>Node3</title>
<g id="a_Node000003"><a xlink:href="RegisteredActors_8cpp.html" target="_top" xlink:title=" ">
<polygon fill="white" stroke="#666666" points="173,-79.5 0,-79.5 0,-60.5 173,-60.5 173,-79.5"/>
<text text-anchor="middle" x="86.5" y="-67.5" font-family="Helvetica,sans-Serif" font-size="10.00">src/engine/RegisteredActors.cpp</text>
</a>
</g>
</g>
<!-- Node2&#45;&gt;Node3 -->
<g id="edge2_Node000002_Node000003" class="edge">
<title>Node2&#45;&gt;Node3</title>
<g id="a_edge2_Node000002_Node000003"><a xlink:title=" ">
<path fill="none" stroke="#63b8ff" d="M176.99,-121.36C154.35,-108.76 121.39,-90.42 102.13,-79.7"/>
<polygon fill="#63b8ff" stroke="#63b8ff" points="175.55,-124.56 185.99,-126.37 178.95,-118.45 175.55,-124.56"/>
</a>
</g>
</g>
<!-- Node4 -->
<g id="Node000004" class="node">
<title>Node4</title>
<g id="a_Node000004"><a xlink:href="ContentBrowser_8cpp.html" target="_top" xlink:title=" ">
<polygon fill="white" stroke="#666666" points="284.5,-19 118.5,-19 118.5,0 284.5,0 284.5,-19"/>
<text text-anchor="middle" x="201.5" y="-7" font-family="Helvetica,sans-Serif" font-size="10.00">src/port/ui/ContentBrowser.cpp</text>
</a>
</g>
</g>
<!-- Node2&#45;&gt;Node4 -->
<g id="edge3_Node000002_Node000004" class="edge">
<title>Node2&#45;&gt;Node4</title>
<g id="a_edge3_Node000002_Node000004"><a xlink:title=" ">
<path fill="none" stroke="#63b8ff" d="M201.5,-116.24C201.5,-88.86 201.5,-39.08 201.5,-19.12"/>
<polygon fill="#63b8ff" stroke="#63b8ff" points="198,-116.44 201.5,-126.44 205,-116.44 198,-116.44"/>
</a>
</g>
</g>
<!-- Node5 -->
<g id="Node000005" class="node">
<title>Node5</title>
<g id="a_Node000005"><a xlink:href="ContentBrowser_8h.html" target="_top" xlink:title=" ">
<polygon fill="white" stroke="#666666" points="385,-79.5 230,-79.5 230,-60.5 385,-60.5 385,-79.5"/>
<text text-anchor="middle" x="307.5" y="-67.5" font-family="Helvetica,sans-Serif" font-size="10.00">src/port/ui/ContentBrowser.h</text>
</a>
</g>
</g>
<!-- Node2&#45;&gt;Node5 -->
<g id="edge4_Node000002_Node000005" class="edge">
<title>Node2&#45;&gt;Node5</title>
<g id="a_edge4_Node000002_Node000005"><a xlink:title=" ">
<path fill="none" stroke="#63b8ff" d="M224.37,-121.19C245.23,-108.59 275.42,-90.37 293.09,-79.7"/>
<polygon fill="#63b8ff" stroke="#63b8ff" points="222.55,-118.2 215.8,-126.37 226.17,-124.2 222.55,-118.2"/>
</a>
</g>
</g>
<!-- Node5&#45;&gt;Node4 -->
<g id="edge5_Node000005_Node000004" class="edge">
<title>Node5&#45;&gt;Node4</title>
<g id="a_edge5_Node000005_Node000004"><a xlink:title=" ">
<path fill="none" stroke="#63b8ff" d="M282.9,-55.42C262.64,-44.24 234.53,-28.73 217.2,-19.17"/>
<polygon fill="#63b8ff" stroke="#63b8ff" points="281.41,-58.6 291.86,-60.37 284.8,-52.47 281.41,-58.6"/>
</a>
</g>
</g>
<!-- Node6 -->
<g id="Node000006" class="node">
<title>Node6</title>
<g id="a_Node000006"><a xlink:href="ImguiUI_8cpp.html" target="_top" xlink:title=" ">
<polygon fill="white" stroke="#666666" points="430,-19 303,-19 303,0 430,0 430,-19"/>
<text text-anchor="middle" x="366.5" y="-7" font-family="Helvetica,sans-Serif" font-size="10.00">src/port/ui/ImguiUI.cpp</text>
</a>
</g>
</g>
<!-- Node5&#45;&gt;Node6 -->
<g id="edge6_Node000005_Node000006" class="edge">
<title>Node5&#45;&gt;Node6</title>
<g id="a_edge6_Node000005_Node000006"><a xlink:title=" ">
<path fill="none" stroke="#63b8ff" d="M323.55,-53.09C334.56,-42.17 348.77,-28.08 357.76,-19.17"/>
<polygon fill="#63b8ff" stroke="#63b8ff" points="320.84,-50.84 316.21,-60.37 325.77,-55.81 320.84,-50.84"/>
</a>
</g>
</g>
<!-- Node11&#45;&gt;Node10 -->
<g id="edge12_Node000011_Node000010" class="edge">
<title>Node11&#45;&gt;Node10</title>
<g id="a_edge12_Node000011_Node000010"><a xlink:title=" ">
<path fill="none" stroke="#63b8ff" d="M780.83,-115.69C764.62,-105.82 745.25,-94.01 730.49,-85.01"/>
<polygon fill="#63b8ff" stroke="#63b8ff" points="779.1,-118.74 789.46,-120.95 782.74,-112.76 779.1,-118.74"/>
</a>
</g>
</g>
<!-- Node12 -->
<g id="Node000012" class="node">
<title>Node12</title>
<g id="a_Node000012"><a xlink:href="Game_8cpp.html" target="_top" xlink:title=" ">
<polygon fill="white" stroke="#666666" points="888.5,-79.5 782.5,-79.5 782.5,-60.5 888.5,-60.5 888.5,-79.5"/>
<text text-anchor="middle" x="835.5" y="-67.5" font-family="Helvetica,sans-Serif" font-size="10.00">src/port/Game.cpp</text>
</a>
</g>
</g>
<!-- Node11&#45;&gt;Node12 -->
<g id="edge13_Node000011_Node000012" class="edge">
<title>Node11&#45;&gt;Node12</title>
<g id="a_edge13_Node000011_Node000012"><a xlink:title=" ">
<path fill="none" stroke="#63b8ff" d="M821.03,-111.28C824.97,-100.31 829.41,-87.94 832.32,-79.84"/>
<polygon fill="#63b8ff" stroke="#63b8ff" points="817.69,-110.2 817.6,-120.8 824.28,-112.57 817.69,-110.2"/>
</a>
</g>
</g>
<!-- Node13 -->
<g id="Node000013" class="node">
<title>Node13</title>
<g id="a_Node000013"><a xlink:href="PortMenu_8cpp.html" target="_top" xlink:title=" ">
<polygon fill="white" stroke="#666666" points="1042,-79.5 907,-79.5 907,-60.5 1042,-60.5 1042,-79.5"/>
<text text-anchor="middle" x="974.5" y="-67.5" font-family="Helvetica,sans-Serif" font-size="10.00">src/port/ui/PortMenu.cpp</text>
</a>
</g>
</g>
<!-- Node11&#45;&gt;Node13 -->
<g id="edge14_Node000011_Node000013" class="edge">
<title>Node11&#45;&gt;Node13</title>
<g id="a_edge14_Node000011_Node000013"><a xlink:title=" ">
<path fill="none" stroke="#63b8ff" d="M857.41,-117.26C888.56,-104.95 928.67,-89.11 952.94,-79.52"/>
<polygon fill="#63b8ff" stroke="#63b8ff" points="856.07,-114.03 848.05,-120.95 858.64,-120.54 856.07,-114.03"/>
</a>
</g>
</g>
</g>
</svg>
