<?xml version="1.0" encoding="UTF-8" standalone="no"?>
<!DOCTYPE svg PUBLIC "-//W3C//DTD SVG 1.1//EN"
 "http://www.w3.org/Graphics/SVG/1.1/DTD/svg11.dtd">
<!-- Generated by graphviz version 2.43.0 (0)
 -->
<!-- Title: src/engine/vehicles/Train.h Pages: 1 -->
<svg width="1611pt" height="225pt"
 viewBox="0.00 0.00 1611.00 225.00" xmlns="http://www.w3.org/2000/svg" xmlns:xlink="http://www.w3.org/1999/xlink">
<g id="graph0" class="graph" transform="scale(1 1) rotate(0) translate(4 221)">
<title>src/engine/vehicles/Train.h</title>
<!-- Node1 -->
<g id="Node000001" class="node">
<title>Node1</title>
<g id="a_Node000001"><a xlink:title=" ">
<polygon fill="#999999" stroke="#666666" points="943,-217 833,-217 833,-187 943,-187 943,-217"/>
<text text-anchor="start" x="841" y="-205" font-family="Helvetica,sans-Serif" font-size="10.00">src/engine/vehicles</text>
<text text-anchor="middle" x="888" y="-194" font-family="Helvetica,sans-Serif" font-size="10.00">/Train.h</text>
</a>
</g>
</g>
<!-- Node2 -->
<g id="Node000002" class="node">
<title>Node2</title>
<g id="a_Node000002"><a xlink:href="AllActors_8h.html" target="_top" xlink:title=" ">
<polygon fill="white" stroke="#666666" points="379,-145.5 257,-145.5 257,-126.5 379,-126.5 379,-145.5"/>
<text text-anchor="middle" x="318" y="-133.5" font-family="Helvetica,sans-Serif" font-size="10.00">src/engine/AllActors.h</text>
</a>
</g>
</g>
<!-- Node1&#45;&gt;Node2 -->
<g id="edge1_Node000001_Node000002" class="edge">
<title>Node1&#45;&gt;Node2</title>
<g id="a_edge1_Node000001_Node000002"><a xlink:title=" ">
<path fill="none" stroke="#63b8ff" d="M822.55,-196.51C726.79,-189.47 543.04,-174.2 388,-151 377.95,-149.5 367.16,-147.52 357.13,-145.53"/>
<polygon fill="#63b8ff" stroke="#63b8ff" points="822.43,-200.01 832.66,-197.24 822.94,-193.02 822.43,-200.01"/>
</a>
</g>
</g>
<!-- Node8 -->
<g id="Node000008" class="node">
<title>Node8</title>
<g id="a_Node000008"><a xlink:href="Smoke_8cpp.html" target="_top" xlink:title=" ">
<polygon fill="white" stroke="#666666" points="520.5,-145.5 397.5,-145.5 397.5,-126.5 520.5,-126.5 520.5,-145.5"/>
<text text-anchor="middle" x="459" y="-133.5" font-family="Helvetica,sans-Serif" font-size="10.00">src/engine/Smoke.cpp</text>
</a>
</g>
</g>
<!-- Node1&#45;&gt;Node8 -->
<g id="edge8_Node000001_Node000008" class="edge">
<title>Node1&#45;&gt;Node8</title>
<g id="a_edge8_Node000001_Node000008"><a xlink:title=" ">
<path fill="none" stroke="#63b8ff" d="M822.51,-193.06C750.41,-184.04 631.16,-168.31 529,-151 519.47,-149.38 509.25,-147.45 499.64,-145.55"/>
<polygon fill="#63b8ff" stroke="#63b8ff" points="822.44,-196.58 832.8,-194.34 823.31,-189.63 822.44,-196.58"/>
</a>
</g>
</g>
<!-- Node9 -->
<g id="Node000009" class="node">
<title>Node9</title>
<g id="a_Node000009"><a xlink:href="TrainCrossing_8cpp.html" target="_top" xlink:title=" ">
<polygon fill="white" stroke="#666666" points="693.5,-145.5 538.5,-145.5 538.5,-126.5 693.5,-126.5 693.5,-145.5"/>
<text text-anchor="middle" x="616" y="-133.5" font-family="Helvetica,sans-Serif" font-size="10.00">src/engine/TrainCrossing.cpp</text>
</a>
</g>
</g>
<!-- Node1&#45;&gt;Node9 -->
<g id="edge9_Node000001_Node000009" class="edge">
<title>Node1&#45;&gt;Node9</title>
<g id="a_edge9_Node000001_Node000009"><a xlink:title=" ">
<path fill="none" stroke="#63b8ff" d="M822.89,-185.68C769.47,-173.11 695.78,-155.77 652.29,-145.54"/>
<polygon fill="#63b8ff" stroke="#63b8ff" points="822.42,-189.17 832.96,-188.05 824.02,-182.35 822.42,-189.17"/>
</a>
</g>
</g>
<!-- Node10 -->
<g id="Node000010" class="node">
<title>Node10</title>
<g id="a_Node000010"><a xlink:href="Harbour_8cpp.html" target="_top" xlink:title=" ">
<polygon fill="white" stroke="#666666" points="818.5,-151 711.5,-151 711.5,-121 818.5,-121 818.5,-151"/>
<text text-anchor="start" x="719.5" y="-139" font-family="Helvetica,sans-Serif" font-size="10.00">src/engine/courses</text>
<text text-anchor="middle" x="765" y="-128" font-family="Helvetica,sans-Serif" font-size="10.00">/Harbour.cpp</text>
</a>
</g>
</g>
<!-- Node1&#45;&gt;Node10 -->
<g id="edge10_Node000001_Node000010" class="edge">
<title>Node1&#45;&gt;Node10</title>
<g id="a_edge10_Node000001_Node000010"><a xlink:title=" ">
<path fill="none" stroke="#63b8ff" d="M851.95,-182.24C832.75,-172.25 809.54,-160.18 791.93,-151.01"/>
<polygon fill="#63b8ff" stroke="#63b8ff" points="850.52,-185.44 861.01,-186.95 853.75,-179.23 850.52,-185.44"/>
</a>
</g>
</g>
<!-- Node11 -->
<g id="Node000011" class="node">
<title>Node11</title>
<g id="a_Node000011"><a xlink:href="KalimariDesert_8cpp.html" target="_top" xlink:title=" ">
<polygon fill="white" stroke="#666666" points="880.5,-85 767.5,-85 767.5,-55 880.5,-55 880.5,-85"/>
<text text-anchor="start" x="775.5" y="-73" font-family="Helvetica,sans-Serif" font-size="10.00">src/engine/courses</text>
<text text-anchor="middle" x="824" y="-62" font-family="Helvetica,sans-Serif" font-size="10.00">/KalimariDesert.cpp</text>
</a>
</g>
</g>
<!-- Node1&#45;&gt;Node11 -->
<g id="edge11_Node000001_Node000011" class="edge">
<title>Node1&#45;&gt;Node11</title>
<g id="a_edge11_Node000001_Node000011"><a xlink:title=" ">
<path fill="none" stroke="#63b8ff" d="M876.55,-177.75C863.31,-150.84 841.92,-107.4 830.96,-85.14"/>
<polygon fill="#63b8ff" stroke="#63b8ff" points="873.47,-179.41 881.03,-186.84 879.75,-176.32 873.47,-179.41"/>
</a>
</g>
</g>
<!-- Node12 -->
<g id="Node000012" class="node">
<title>Node12</title>
<g id="a_Node000012"><a xlink:href="KalimariDesert_8h.html" target="_top" xlink:title=" ">
<polygon fill="white" stroke="#666666" points="982.5,-151 875.5,-151 875.5,-121 982.5,-121 982.5,-151"/>
<text text-anchor="start" x="883.5" y="-139" font-family="Helvetica,sans-Serif" font-size="10.00">src/engine/courses</text>
<text text-anchor="middle" x="929" y="-128" font-family="Helvetica,sans-Serif" font-size="10.00">/KalimariDesert.h</text>
</a>
</g>
</g>
<!-- Node1&#45;&gt;Node12 -->
<g id="edge12_Node000001_Node000012" class="edge">
<title>Node1&#45;&gt;Node12</title>
<g id="a_edge12_Node000001_Node000012"><a xlink:title=" ">
<path fill="none" stroke="#63b8ff" d="M902.58,-178.24C908.36,-169.21 914.84,-159.11 919.93,-151.16"/>
<polygon fill="#63b8ff" stroke="#63b8ff" points="899.55,-176.49 897.1,-186.8 905.44,-180.26 899.55,-176.49"/>
</a>
</g>
</g>
<!-- Node15 -->
<g id="Node000015" class="node">
<title>Node15</title>
<g id="a_Node000015"><a xlink:href="TestCourse_8cpp.html" target="_top" xlink:title=" ">
<polygon fill="white" stroke="#666666" points="1107.5,-151 1000.5,-151 1000.5,-121 1107.5,-121 1107.5,-151"/>
<text text-anchor="start" x="1008.5" y="-139" font-family="Helvetica,sans-Serif" font-size="10.00">src/engine/courses</text>
<text text-anchor="middle" x="1054" y="-128" font-family="Helvetica,sans-Serif" font-size="10.00">/TestCourse.cpp</text>
</a>
</g>
</g>
<!-- Node1&#45;&gt;Node15 -->
<g id="edge16_Node000001_Node000015" class="edge">
<title>Node1&#45;&gt;Node15</title>
<g id="a_edge16_Node000001_Node000015"><a xlink:title=" ">
<path fill="none" stroke="#63b8ff" d="M933.85,-183.32C960.27,-173.14 993.02,-160.51 1017.66,-151.01"/>
<polygon fill="#63b8ff" stroke="#63b8ff" points="932.5,-180.09 924.43,-186.95 935.02,-186.62 932.5,-180.09"/>
</a>
</g>
</g>
<!-- Node16 -->
<g id="Node000016" class="node">
<title>Node16</title>
<g id="a_Node000016"><a xlink:href="SceneManager_8cpp.html" target="_top" xlink:title=" ">
<polygon fill="white" stroke="#666666" points="1318.5,-145.5 1125.5,-145.5 1125.5,-126.5 1318.5,-126.5 1318.5,-145.5"/>
<text text-anchor="middle" x="1222" y="-133.5" font-family="Helvetica,sans-Serif" font-size="10.00">src/engine/editor/SceneManager.cpp</text>
</a>
</g>
</g>
<!-- Node1&#45;&gt;Node16 -->
<g id="edge17_Node000001_Node000016" class="edge">
<title>Node1&#45;&gt;Node16</title>
<g id="a_edge17_Node000001_Node000016"><a xlink:title=" ">
<path fill="none" stroke="#63b8ff" d="M953.06,-188.53C1019.2,-175.86 1119.89,-156.57 1177.46,-145.53"/>
<polygon fill="#63b8ff" stroke="#63b8ff" points="952.32,-185.11 943.15,-190.43 953.63,-191.99 952.32,-185.11"/>
</a>
</g>
</g>
<!-- Node17 -->
<g id="Node000017" class="node">
<title>Node17</title>
<g id="a_Node000017"><a xlink:href="Train_8cpp.html" target="_top" xlink:title=" ">
<polygon fill="white" stroke="#666666" points="1447,-151 1337,-151 1337,-121 1447,-121 1447,-151"/>
<text text-anchor="start" x="1345" y="-139" font-family="Helvetica,sans-Serif" font-size="10.00">src/engine/vehicles</text>
<text text-anchor="middle" x="1392" y="-128" font-family="Helvetica,sans-Serif" font-size="10.00">/Train.cpp</text>
</a>
</g>
</g>
<!-- Node1&#45;&gt;Node17 -->
<g id="edge18_Node000001_Node000017" class="edge">
<title>Node1&#45;&gt;Node17</title>
<g id="a_edge18_Node000001_Node000017"><a xlink:title=" ">
<path fill="none" stroke="#63b8ff" d="M953.28,-195.68C1039.45,-188.18 1195.72,-172.93 1328,-151 1330.92,-150.52 1333.9,-149.99 1336.91,-149.43"/>
<polygon fill="#63b8ff" stroke="#63b8ff" points="952.79,-192.21 943.13,-196.56 953.39,-199.19 952.79,-192.21"/>
</a>
</g>
</g>
<!-- Node18 -->
<g id="Node000018" class="node">
<title>Node18</title>
<g id="a_Node000018"><a xlink:href="Properties_8cpp.html" target="_top" xlink:title=" ">
<polygon fill="white" stroke="#666666" points="1603,-145.5 1465,-145.5 1465,-126.5 1603,-126.5 1603,-145.5"/>
<text text-anchor="middle" x="1534" y="-133.5" font-family="Helvetica,sans-Serif" font-size="10.00">src/port/ui/Properties.cpp</text>
</a>
</g>
</g>
<!-- Node1&#45;&gt;Node18 -->
<g id="edge19_Node000001_Node000018" class="edge">
<title>Node1&#45;&gt;Node18</title>
<g id="a_edge19_Node000001_Node000018"><a xlink:title=" ">
<path fill="none" stroke="#63b8ff" d="M953.21,-197.17C1059.04,-190.53 1274.63,-175.21 1456,-151 1467.18,-149.51 1479.2,-147.53 1490.38,-145.54"/>
<polygon fill="#63b8ff" stroke="#63b8ff" points="952.78,-193.69 943.01,-197.8 953.21,-200.68 952.78,-193.69"/>
</a>
</g>
</g>
<!-- Node3 -->
<g id="Node000003" class="node">
<title>Node3</title>
<g id="a_Node000003"><a xlink:href="RaceManager_8cpp.html" target="_top" xlink:title=" ">
<polygon fill="white" stroke="#666666" points="156,-79.5 0,-79.5 0,-60.5 156,-60.5 156,-79.5"/>
<text text-anchor="middle" x="78" y="-67.5" font-family="Helvetica,sans-Serif" font-size="10.00">src/engine/RaceManager.cpp</text>
</a>
</g>
</g>
<!-- Node2&#45;&gt;Node3 -->
<g id="edge2_Node000002_Node000003" class="edge">
<title>Node2&#45;&gt;Node3</title>
<g id="a_edge2_Node000002_Node000003"><a xlink:title=" ">
<path fill="none" stroke="#63b8ff" d="M275.71,-123.72C228.45,-111.12 152.96,-90.99 110.24,-79.6"/>
<polygon fill="#63b8ff" stroke="#63b8ff" points="275.07,-127.17 285.63,-126.37 276.87,-120.41 275.07,-127.17"/>
</a>
</g>
</g>
<!-- Node4 -->
<g id="Node000004" class="node">
<title>Node4</title>
<g id="a_Node000004"><a xlink:href="RegisteredActors_8cpp.html" target="_top" xlink:title=" ">
<polygon fill="white" stroke="#666666" points="347.5,-79.5 174.5,-79.5 174.5,-60.5 347.5,-60.5 347.5,-79.5"/>
<text text-anchor="middle" x="261" y="-67.5" font-family="Helvetica,sans-Serif" font-size="10.00">src/engine/RegisteredActors.cpp</text>
</a>
</g>
</g>
<!-- Node2&#45;&gt;Node4 -->
<g id="edge3_Node000002_Node000004" class="edge">
<title>Node2&#45;&gt;Node4</title>
<g id="a_edge3_Node000002_Node000004"><a xlink:title=" ">
<path fill="none" stroke="#63b8ff" d="M303.41,-118.62C292.44,-106.31 277.83,-89.89 268.93,-79.91"/>
<polygon fill="#63b8ff" stroke="#63b8ff" points="301.05,-121.23 310.31,-126.37 306.28,-116.57 301.05,-121.23"/>
</a>
</g>
</g>
<!-- Node5 -->
<g id="Node000005" class="node">
<title>Node5</title>
<g id="a_Node000005"><a xlink:href="ContentBrowser_8cpp.html" target="_top" xlink:title=" ">
<polygon fill="white" stroke="#666666" points="459,-19 293,-19 293,0 459,0 459,-19"/>
<text text-anchor="middle" x="376" y="-7" font-family="Helvetica,sans-Serif" font-size="10.00">src/port/ui/ContentBrowser.cpp</text>
</a>
</g>
</g>
<!-- Node2&#45;&gt;Node5 -->
<g id="edge4_Node000002_Node000005" class="edge">
<title>Node2&#45;&gt;Node5</title>
<g id="a_edge4_Node000002_Node000005"><a xlink:title=" ">
<path fill="none" stroke="#63b8ff" d="M332.85,-118.86C340.71,-109.55 349.97,-97.29 356,-85 366.97,-62.64 372.56,-33.44 374.79,-19.15"/>
<polygon fill="#63b8ff" stroke="#63b8ff" points="330.11,-116.67 326.14,-126.49 335.37,-121.29 330.11,-116.67"/>
</a>
</g>
</g>
<!-- Node6 -->
<g id="Node000006" class="node">
<title>Node6</title>
<g id="a_Node000006"><a xlink:href="ContentBrowser_8h.html" target="_top" xlink:title=" ">
<polygon fill="white" stroke="#666666" points="559.5,-79.5 404.5,-79.5 404.5,-60.5 559.5,-60.5 559.5,-79.5"/>
<text text-anchor="middle" x="482" y="-67.5" font-family="Helvetica,sans-Serif" font-size="10.00">src/port/ui/ContentBrowser.h</text>
</a>
</g>
</g>
<!-- Node2&#45;&gt;Node6 -->
<g id="edge5_Node000002_Node000006" class="edge">
<title>Node2&#45;&gt;Node6</title>
<g id="a_edge5_Node000002_Node000006"><a xlink:title=" ">
<path fill="none" stroke="#63b8ff" d="M349.58,-122.68C381.99,-110.03 431.57,-90.68 459.97,-79.6"/>
<polygon fill="#63b8ff" stroke="#63b8ff" points="348.16,-119.47 340.12,-126.37 350.71,-125.99 348.16,-119.47"/>
</a>
</g>
</g>
<!-- Node6&#45;&gt;Node5 -->
<g id="edge6_Node000006_Node000005" class="edge">
<title>Node6&#45;&gt;Node5</title>
<g id="a_edge6_Node000006_Node000005"><a xlink:title=" ">
<path fill="none" stroke="#63b8ff" d="M457.4,-55.42C437.14,-44.24 409.03,-28.73 391.7,-19.17"/>
<polygon fill="#63b8ff" stroke="#63b8ff" points="455.91,-58.6 466.36,-60.37 459.3,-52.47 455.91,-58.6"/>
</a>
</g>
</g>
<!-- Node7 -->
<g id="Node000007" class="node">
<title>Node7</title>
<g id="a_Node000007"><a xlink:href="ImguiUI_8cpp.html" target="_top" xlink:title=" ">
<polygon fill="white" stroke="#666666" points="604.5,-19 477.5,-19 477.5,0 604.5,0 604.5,-19"/>
<text text-anchor="middle" x="541" y="-7" font-family="Helvetica,sans-Serif" font-size="10.00">src/port/ui/ImguiUI.cpp</text>
</a>
</g>
</g>
<!-- Node6&#45;&gt;Node7 -->
<g id="edge7_Node000006_Node000007" class="edge">
<title>Node6&#45;&gt;Node7</title>
<g id="a_edge7_Node000006_Node000007"><a xlink:title=" ">
<path fill="none" stroke="#63b8ff" d="M498.05,-53.09C509.06,-42.17 523.27,-28.08 532.26,-19.17"/>
<polygon fill="#63b8ff" stroke="#63b8ff" points="495.34,-50.84 490.71,-60.37 500.27,-55.81 495.34,-50.84"/>
</a>
</g>
</g>
<!-- Node12&#45;&gt;Node11 -->
<g id="edge13_Node000012_Node000011" class="edge">
<title>Node12&#45;&gt;Node11</title>
<g id="a_edge13_Node000012_Node000011"><a xlink:title=" ">
<path fill="none" stroke="#63b8ff" d="M897.33,-115.69C881.12,-105.82 861.75,-94.01 846.99,-85.01"/>
<polygon fill="#63b8ff" stroke="#63b8ff" points="895.6,-118.74 905.96,-120.95 899.24,-112.76 895.6,-118.74"/>
</a>
</g>
</g>
<!-- Node13 -->
<g id="Node000013" class="node">
<title>Node13</title>
<g id="a_Node000013"><a xlink:href="Game_8cpp.html" target="_top" xlink:title=" ">
<polygon fill="white" stroke="#666666" points="1005,-79.5 899,-79.5 899,-60.5 1005,-60.5 1005,-79.5"/>
<text text-anchor="middle" x="952" y="-67.5" font-family="Helvetica,sans-Serif" font-size="10.00">src/port/Game.cpp</text>
</a>
</g>
</g>
<!-- Node12&#45;&gt;Node13 -->
<g id="edge14_Node000012_Node000013" class="edge">
<title>Node12&#45;&gt;Node13</title>
<g id="a_edge14_Node000012_Node000013"><a xlink:title=" ">
<path fill="none" stroke="#63b8ff" d="M937.53,-111.28C941.47,-100.31 945.91,-87.94 948.82,-79.84"/>
<polygon fill="#63b8ff" stroke="#63b8ff" points="934.19,-110.2 934.1,-120.8 940.78,-112.57 934.19,-110.2"/>
</a>
</g>
</g>
<!-- Node14 -->
<g id="Node000014" class="node">
<title>Node14</title>
<g id="a_Node000014"><a xlink:href="PortMenu_8cpp.html" target="_top" xlink:title=" ">
<polygon fill="white" stroke="#666666" points="1158.5,-79.5 1023.5,-79.5 1023.5,-60.5 1158.5,-60.5 1158.5,-79.5"/>
<text text-anchor="middle" x="1091" y="-67.5" font-family="Helvetica,sans-Serif" font-size="10.00">src/port/ui/PortMenu.cpp</text>
</a>
</g>
</g>
<!-- Node12&#45;&gt;Node14 -->
<g id="edge15_Node000012_Node000014" class="edge">
<title>Node12&#45;&gt;Node14</title>
<g id="a_edge15_Node000012_Node000014"><a xlink:title=" ">
<path fill="none" stroke="#63b8ff" d="M973.91,-117.26C1005.06,-104.95 1045.17,-89.11 1069.44,-79.52"/>
<polygon fill="#63b8ff" stroke="#63b8ff" points="972.57,-114.03 964.55,-120.95 975.14,-120.54 972.57,-114.03"/>
</a>
</g>
</g>
</g>
</svg>
