<?xml version="1.0" encoding="UTF-8" standalone="no"?>
<!DOCTYPE svg PUBLIC "-//W3C//DTD SVG 1.1//EN"
 "http://www.w3.org/Graphics/SVG/1.1/DTD/svg11.dtd">
<!-- Generated by graphviz version 2.43.0 (0)
 -->
<!-- Title: src/engine/actors/Tree.cpp Pages: 1 -->
<!--zoomable 412 -->

<svg id="main" version="1.1" xmlns="http://www.w3.org/2000/svg" xmlns:xlink="http://www.w3.org/1999/xlink" xml:space="preserve" onload="init(evt)">

<style type="text/css"><![CDATA[
.node, .edge {opacity: 0.7;}
.node.selected, .edge.selected {opacity: 1;}
.edge:hover path { stroke: red; }
.edge:hover polygon { stroke: red; fill: red; }
]]></style>

<defs>
  <circle id="rim" cx="0" cy="0" r="7"/>
  <circle id="rim2" cx="0" cy="0" r="3.5"/>
  <g id="zoomPlus">
    <use xlink:href="#rim" fill="#404040"><set attributeName="fill" to="#808080" begin="zoomplus.mouseover" end="zoomplus.mouseout"/></use>
    <path d="M-4,0h8M0,-4v8" fill="none" stroke="white" stroke-width="1.5" pointer-events="none"/>
  </g>
  <g id="zoomMin">
    <use xlink:href="#rim" fill="#404040"><set attributeName="fill" to="#808080" begin="zoomminus.mouseover" end="zoomminus.mouseout"/></use>
    <path d="M-4,0h8" fill="none" stroke="white" stroke-width="1.5" pointer-events="none"/>
  </g>
  <g id="arrowUp" transform="translate(30 24)">
    <use xlink:href="#rim"/>
    <path pointer-events="none" fill="none" stroke="white" stroke-width="1.5" d="M0,-3.0v7 M-2.5,-0.5L0,-3.0L2.5,-0.5"/>
  </g>
  <g id="arrowRight" transform="rotate(90) translate(36 -43)">
    <use xlink:href="#rim"/>
    <path pointer-events="none" fill="none" stroke="white" stroke-width="1.5" d="M0,-3.0v7 M-2.5,-0.5L0,-3.0L2.5,-0.5"/>
  </g>
  <g id="arrowDown" transform="rotate(180) translate(-30 -48)">
    <use xlink:href="#rim"/>
    <path pointer-events="none" fill="none" stroke="white" stroke-width="1.5" d="M0,-3.0v7 M-2.5,-0.5L0,-3.0L2.5,-0.5"/>
  </g>
  <g id="arrowLeft" transform="rotate(270) translate(-36 17)">
    <use xlink:href="#rim"/>
    <path pointer-events="none" fill="none" stroke="white" stroke-width="1.5" d="M0,-3.0v7 M-2.5,-0.5L0,-3.0L2.5,-0.5"/>
  </g>
  <g id="resetDef">
    <use xlink:href="#rim2" fill="#404040"><set attributeName="fill" to="#808080" begin="reset.mouseover" end="reset.mouseout"/></use>
  </g>
</defs>
<script type="application/ecmascript">
var viewWidth = 1538;
var viewHeight = 412;
var sectionId = 'dynsection-0';
</script>
<script type="application/ecmascript" xlink:href="svg.min.js"/>
<svg id="graph" class="graph">
<g id="viewport">
<title>src/engine/actors/Tree.cpp</title>
<!-- Node1 -->
<g id="Node000001" class="node">
<title>Node1</title>
<g id="a_Node000001"><a xlink:title=" ">
<polygon fill="#999999" stroke="#666666" points="1214.5,-404 1071.5,-404 1071.5,-385 1214.5,-385 1214.5,-404"/>
<text text-anchor="middle" x="1143" y="-392" font-family="Helvetica,sans-Serif" font-size="10.00">src/engine/actors/Tree.cpp</text>
</a>
</g>
</g>
<!-- Node2 -->
<g id="Node000002" class="node">
<title>Node2</title>
<g id="a_Node000002"><a xlink:href="Tree_8h.html" target="_top" xlink:title=" ">
<polygon fill="white" stroke="#666666" points="1071,-349 1025,-349 1025,-330 1071,-330 1071,-349"/>
<text text-anchor="middle" x="1048" y="-337" font-family="Helvetica,sans-Serif" font-size="10.00">Tree.h</text>
</a>
</g>
</g>
<!-- Node1&#45;&gt;Node2 -->
<g id="edge1_Node000001_Node000002" class="edge">
<title>Node1&#45;&gt;Node2</title>
<g id="a_edge1_Node000001_Node000002"><a xlink:title=" ">
<path fill="none" stroke="#63b8ff" d="M1127.74,-384.98C1112.87,-376.69 1090.02,-363.94 1072.58,-354.22"/>
<polygon fill="#63b8ff" stroke="#63b8ff" points="1073.98,-350.99 1063.54,-349.17 1070.57,-357.1 1073.98,-350.99"/>
</a>
</g>
</g>
<!-- Node11 -->
<g id="Node000011" class="node">
<title>Node11</title>
<g id="a_Node000011"><a xlink:href="common__structs_8h.html" target="_top" xlink:title=" ">
<polygon fill="white" stroke="#666666" points="1152.5,-74 1045.5,-74 1045.5,-55 1152.5,-55 1152.5,-74"/>
<text text-anchor="middle" x="1099" y="-62" font-family="Helvetica,sans-Serif" font-size="10.00">common_structs.h</text>
</a>
</g>
</g>
<!-- Node1&#45;&gt;Node11 -->
<g id="edge50_Node000001_Node000011" class="edge">
<title>Node1&#45;&gt;Node11</title>
<g id="a_edge50_Node000001_Node000011"><a xlink:title=" ">
<path fill="none" stroke="#63b8ff" d="M1146.75,-384.73C1154.17,-366.56 1170,-323.38 1170,-285.5 1170,-285.5 1170,-285.5 1170,-228.5 1170,-170.85 1132.2,-110.55 1111.76,-82.16"/>
<polygon fill="#63b8ff" stroke="#63b8ff" points="1114.57,-80.07 1105.81,-74.11 1108.94,-84.23 1114.57,-80.07"/>
</a>
</g>
</g>
<!-- Node14 -->
<g id="Node000014" class="node">
<title>Node14</title>
<g id="a_Node000014"><a xlink:title=" ">
<polygon fill="#e0e0e0" stroke="#999999" points="254,-129 176,-129 176,-110 254,-110 254,-129"/>
<text text-anchor="middle" x="215" y="-117" font-family="Helvetica,sans-Serif" font-size="10.00">libultra/gbi.h</text>
</a>
</g>
</g>
<!-- Node1&#45;&gt;Node14 -->
<g id="edge49_Node000001_Node000014" class="edge">
<title>Node1&#45;&gt;Node14</title>
<g id="a_edge49_Node000001_Node000014"><a xlink:title=" ">
<path fill="none" stroke="#63b8ff" d="M1086.59,-384.98C1033.4,-376.7 951.54,-363.3 881,-349 680.49,-308.35 631.44,-292.64 434,-239 348.34,-215.73 308.51,-242.79 242,-184 228.97,-172.48 222.03,-153.6 218.47,-139.42"/>
<polygon fill="#63b8ff" stroke="#63b8ff" points="221.82,-138.32 216.29,-129.28 214.97,-139.79 221.82,-138.32"/>
</a>
</g>
</g>
<!-- Node22 -->
<g id="Node000022" class="node">
<title>Node22</title>
<g id="a_Node000022"><a xlink:href="main_8h.html" target="_top" xlink:title=" ">
<polygon fill="white" stroke="#666666" points="493,-239 443,-239 443,-220 493,-220 493,-239"/>
<text text-anchor="middle" x="468" y="-227" font-family="Helvetica,sans-Serif" font-size="10.00">main.h</text>
</a>
</g>
</g>
<!-- Node1&#45;&gt;Node22 -->
<g id="edge54_Node000001_Node000022" class="edge">
<title>Node1&#45;&gt;Node22</title>
<g id="a_edge54_Node000001_Node000022"><a xlink:title=" ">
<path fill="none" stroke="#63b8ff" d="M1107.18,-384.98C1011.19,-362.12 739.95,-297.37 503.08,-239.25"/>
<polygon fill="#63b8ff" stroke="#63b8ff" points="503.79,-235.82 493.25,-236.84 502.12,-242.62 503.79,-235.82"/>
</a>
</g>
</g>
<!-- Node26 -->
<g id="Node000026" class="node">
<title>Node26</title>
<g id="a_Node000026"><a xlink:href="math__util_8h.html" target="_top" xlink:title=" ">
<polygon fill="white" stroke="#666666" points="1232,-129 1160,-129 1160,-110 1232,-110 1232,-129"/>
<text text-anchor="middle" x="1196" y="-117" font-family="Helvetica,sans-Serif" font-size="10.00">math_util.h</text>
</a>
</g>
</g>
<!-- Node1&#45;&gt;Node26 -->
<g id="edge51_Node000001_Node000026" class="edge">
<title>Node1&#45;&gt;Node26</title>
<g id="a_edge51_Node000001_Node000026"><a xlink:title=" ">
<path fill="none" stroke="#63b8ff" d="M1152.87,-384.77C1171.06,-367.67 1208,-327.74 1208,-285.5 1208,-285.5 1208,-285.5 1208,-228.5 1208,-197 1202.89,-160.64 1199.34,-139.16"/>
<polygon fill="#63b8ff" stroke="#63b8ff" points="1202.76,-138.4 1197.62,-129.14 1195.87,-139.59 1202.76,-138.4"/>
</a>
</g>
</g>
<!-- Node27 -->
<g id="Node000027" class="node">
<title>Node27</title>
<g id="a_Node000027"><a xlink:href="actors_8h.html" target="_top" xlink:title=" ">
<polygon fill="white" stroke="#666666" points="1345,-239 1289,-239 1289,-220 1345,-220 1345,-239"/>
<text text-anchor="middle" x="1317" y="-227" font-family="Helvetica,sans-Serif" font-size="10.00">actors.h</text>
</a>
</g>
</g>
<!-- Node1&#45;&gt;Node27 -->
<g id="edge55_Node000001_Node000027" class="edge">
<title>Node1&#45;&gt;Node27</title>
<g id="a_edge55_Node000001_Node000027"><a xlink:title=" ">
<path fill="none" stroke="#63b8ff" d="M1162.82,-384.95C1179.65,-377.1 1203.88,-364.39 1222,-349 1258.02,-318.41 1290.16,-272.58 1306.21,-247.83"/>
<polygon fill="#63b8ff" stroke="#63b8ff" points="1309.3,-249.49 1311.72,-239.18 1303.39,-245.74 1309.3,-249.49"/>
</a>
</g>
</g>
<!-- Node3 -->
<g id="Node000003" class="node">
<title>Node3</title>
<g id="a_Node000003"><a xlink:title=" ">
<polygon fill="#e0e0e0" stroke="#999999" points="1181,-19 1101,-19 1101,0 1181,0 1181,-19"/>
<text text-anchor="middle" x="1141" y="-7" font-family="Helvetica,sans-Serif" font-size="10.00">libultraship.h</text>
</a>
</g>
</g>
<!-- Node2&#45;&gt;Node3 -->
<g id="edge2_Node000002_Node000003" class="edge">
<title>Node2&#45;&gt;Node3</title>
<g id="a_edge2_Node000002_Node000003"><a xlink:title=" ">
<path fill="none" stroke="#63b8ff" d="M1024.64,-337.36C870.01,-329.64 0,-283.83 0,-230.5 0,-230.5 0,-230.5 0,-118.5 0,-78.43 27.27,-71.02 64,-55 158.63,-13.72 890.41,-10.54 1090.55,-10.45"/>
<polygon fill="#63b8ff" stroke="#63b8ff" points="1090.77,-13.95 1100.77,-10.45 1090.77,-6.95 1090.77,-13.95"/>
</a>
</g>
</g>
<!-- Node4 -->
<g id="Node000004" class="node">
<title>Node4</title>
<g id="a_Node000004"><a xlink:href="Actor_8h.html" target="_top" xlink:title=" ">
<polygon fill="white" stroke="#666666" points="1044,-294 958,-294 958,-275 1044,-275 1044,-294"/>
<text text-anchor="middle" x="1001" y="-282" font-family="Helvetica,sans-Serif" font-size="10.00">engine/Actor.h</text>
</a>
</g>
</g>
<!-- Node2&#45;&gt;Node4 -->
<g id="edge3_Node000002_Node000004" class="edge">
<title>Node2&#45;&gt;Node4</title>
<g id="a_edge3_Node000002_Node000004"><a xlink:title=" ">
<path fill="none" stroke="#63b8ff" d="M1040.24,-329.75C1033.53,-322.18 1023.66,-311.05 1015.49,-301.84"/>
<polygon fill="#63b8ff" stroke="#63b8ff" points="1017.87,-299.25 1008.62,-294.09 1012.63,-303.89 1017.87,-299.25"/>
</a>
</g>
</g>
<!-- Node2&#45;&gt;Node11 -->
<g id="edge48_Node000002_Node000011" class="edge">
<title>Node2&#45;&gt;Node11</title>
<g id="a_edge48_Node000002_Node000011"><a xlink:title=" ">
<path fill="none" stroke="#63b8ff" d="M1054.59,-329.8C1067.31,-312.1 1094,-270.24 1094,-230.5 1094,-230.5 1094,-230.5 1094,-173.5 1094,-142.16 1096.13,-105.75 1097.61,-84.22"/>
<polygon fill="#63b8ff" stroke="#63b8ff" points="1101.1,-84.4 1098.33,-74.17 1094.12,-83.9 1101.1,-84.4"/>
</a>
</g>
</g>
<!-- Node4&#45;&gt;Node3 -->
<g id="edge4_Node000004_Node000003" class="edge">
<title>Node4&#45;&gt;Node3</title>
<g id="a_edge4_Node000004_Node000003"><a xlink:title=" ">
<path fill="none" stroke="#63b8ff" d="M957.75,-283.26C770.37,-281.66 38,-269.4 38,-175.5 38,-175.5 38,-175.5 38,-118.5 38,-67.71 84.74,-70.81 133,-55 224.33,-25.07 899.87,-13.75 1090.84,-11.13"/>
<polygon fill="#63b8ff" stroke="#63b8ff" points="1090.93,-14.63 1100.88,-11 1090.84,-7.63 1090.93,-14.63"/>
</a>
</g>
</g>
<!-- Node5 -->
<g id="Node000005" class="node">
<title>Node5</title>
<g id="a_Node000005"><a xlink:href="SpawnParams_8h.html" target="_top" xlink:title=" ">
<polygon fill="white" stroke="#666666" points="888,-129 758,-129 758,-110 888,-110 888,-129"/>
<text text-anchor="middle" x="823" y="-117" font-family="Helvetica,sans-Serif" font-size="10.00">engine/SpawnParams.h</text>
</a>
</g>
</g>
<!-- Node4&#45;&gt;Node5 -->
<g id="edge5_Node000004_Node000005" class="edge">
<title>Node4&#45;&gt;Node5</title>
<g id="a_edge5_Node000004_Node000005"><a xlink:title=" ">
<path fill="none" stroke="#63b8ff" d="M1000.64,-274.99C999.28,-253.44 992.69,-196.26 961,-165 944.06,-148.29 920.82,-137.85 898.24,-131.34"/>
<polygon fill="#63b8ff" stroke="#63b8ff" points="898.84,-127.88 888.28,-128.69 897.05,-134.64 898.84,-127.88"/>
</a>
</g>
</g>
<!-- Node4&#45;&gt;Node11 -->
<g id="edge47_Node000004_Node000011" class="edge">
<title>Node4&#45;&gt;Node11</title>
<g id="a_edge47_Node000004_Node000011"><a xlink:title=" ">
<path fill="none" stroke="#63b8ff" d="M1004.84,-274.95C1019.32,-242.74 1070.8,-128.23 1090.89,-83.55"/>
<polygon fill="#63b8ff" stroke="#63b8ff" points="1094.17,-84.78 1095.08,-74.22 1087.79,-81.91 1094.17,-84.78"/>
</a>
</g>
</g>
<!-- Node12 -->
<g id="Node000012" class="node">
<title>Node12</title>
<g id="a_Node000012"><a xlink:href="EditorMath_8h.html" target="_top" xlink:title=" ">
<polygon fill="white" stroke="#666666" points="657,-239 511,-239 511,-220 657,-220 657,-239"/>
<text text-anchor="middle" x="584" y="-227" font-family="Helvetica,sans-Serif" font-size="10.00">engine/editor/EditorMath.h</text>
</a>
</g>
</g>
<!-- Node4&#45;&gt;Node12 -->
<g id="edge14_Node000004_Node000012" class="edge">
<title>Node4&#45;&gt;Node12</title>
<g id="a_edge14_Node000004_Node000012"><a xlink:title=" ">
<path fill="none" stroke="#63b8ff" d="M957.94,-278.03C887.99,-269.14 748.67,-251.43 661.25,-240.32"/>
<polygon fill="#63b8ff" stroke="#63b8ff" points="661.48,-236.82 651.12,-239.03 660.59,-243.76 661.48,-236.82"/>
</a>
</g>
</g>
<!-- Node20 -->
<g id="Node000020" class="node">
<title>Node20</title>
<g id="a_Node000020"><a xlink:href="macros_8h.html" target="_top" xlink:title=" ">
<polygon fill="white" stroke="#666666" points="1530,-74 1468,-74 1468,-55 1530,-55 1530,-74"/>
<text text-anchor="middle" x="1499" y="-62" font-family="Helvetica,sans-Serif" font-size="10.00">macros.h</text>
</a>
</g>
</g>
<!-- Node4&#45;&gt;Node20 -->
<g id="edge34_Node000004_Node000020" class="edge">
<title>Node4&#45;&gt;Node20</title>
<g id="a_edge34_Node000004_Node000020"><a xlink:title=" ">
<path fill="none" stroke="#63b8ff" d="M1044.06,-281.14C1125.61,-276.16 1299.28,-263.03 1354,-239 1422.99,-208.7 1443.37,-193.08 1483,-129 1491.32,-115.54 1495.33,-97.94 1497.25,-84.68"/>
<polygon fill="#63b8ff" stroke="#63b8ff" points="1500.77,-84.7 1498.45,-74.36 1493.81,-83.89 1500.77,-84.7"/>
</a>
</g>
</g>
<!-- Node4&#45;&gt;Node22 -->
<g id="edge37_Node000004_Node000022" class="edge">
<title>Node4&#45;&gt;Node22</title>
<g id="a_edge37_Node000004_Node000022"><a xlink:title=" ">
<path fill="none" stroke="#63b8ff" d="M957.99,-281.93C872.88,-278.32 676.9,-267.6 503.25,-238.94"/>
<polygon fill="#63b8ff" stroke="#63b8ff" points="503.6,-235.45 493.16,-237.25 502.44,-242.36 503.6,-235.45"/>
</a>
</g>
</g>
<!-- Node25 -->
<g id="Node000025" class="node">
<title>Node25</title>
<g id="a_Node000025"><a xlink:href="camera_8h.html" target="_top" xlink:title=" ">
<polygon fill="white" stroke="#666666" points="1312,-129 1250,-129 1250,-110 1312,-110 1312,-129"/>
<text text-anchor="middle" x="1281" y="-117" font-family="Helvetica,sans-Serif" font-size="10.00">camera.h</text>
</a>
</g>
</g>
<!-- Node4&#45;&gt;Node25 -->
<g id="edge44_Node000004_Node000025" class="edge">
<title>Node4&#45;&gt;Node25</title>
<g id="a_edge44_Node000004_Node000025"><a xlink:title=" ">
<path fill="none" stroke="#63b8ff" d="M1015.66,-274.97C1061.29,-248.4 1201.1,-167.01 1257.27,-134.31"/>
<polygon fill="#63b8ff" stroke="#63b8ff" points="1259.27,-137.2 1266.15,-129.15 1255.74,-131.15 1259.27,-137.2"/>
</a>
</g>
</g>
<!-- Node6 -->
<g id="Node000006" class="node">
<title>Node6</title>
<g id="a_Node000006"><a xlink:title=" ">
<polygon fill="#e0e0e0" stroke="#999999" points="419.5,-74 372.5,-74 372.5,-55 419.5,-55 419.5,-74"/>
<text text-anchor="middle" x="396" y="-62" font-family="Helvetica,sans-Serif" font-size="10.00">vector</text>
</a>
</g>
</g>
<!-- Node5&#45;&gt;Node6 -->
<g id="edge6_Node000005_Node000006" class="edge">
<title>Node5&#45;&gt;Node6</title>
<g id="a_edge6_Node000005_Node000006"><a xlink:title=" ">
<path fill="none" stroke="#63b8ff" d="M757.68,-110.39C665.46,-98.95 500.46,-78.47 429.71,-69.68"/>
<polygon fill="#63b8ff" stroke="#63b8ff" points="429.94,-66.19 419.59,-68.43 429.08,-73.13 429.94,-66.19"/>
</a>
</g>
</g>
<!-- Node7 -->
<g id="Node000007" class="node">
<title>Node7</title>
<g id="a_Node000007"><a xlink:title=" ">
<polygon fill="#e0e0e0" stroke="#999999" points="1027,-74 971,-74 971,-55 1027,-55 1027,-74"/>
<text text-anchor="middle" x="999" y="-62" font-family="Helvetica,sans-Serif" font-size="10.00">optional</text>
</a>
</g>
</g>
<!-- Node5&#45;&gt;Node7 -->
<g id="edge7_Node000005_Node000007" class="edge">
<title>Node5&#45;&gt;Node7</title>
<g id="a_edge7_Node000005_Node000007"><a xlink:title=" ">
<path fill="none" stroke="#63b8ff" d="M851.28,-109.98C881.04,-101.02 928.07,-86.86 961.04,-76.93"/>
<polygon fill="#63b8ff" stroke="#63b8ff" points="962.23,-80.23 970.79,-73.99 960.21,-73.53 962.23,-80.23"/>
</a>
</g>
</g>
<!-- Node8 -->
<g id="Node000008" class="node">
<title>Node8</title>
<g id="a_Node000008"><a xlink:title=" ">
<polygon fill="#e0e0e0" stroke="#999999" points="825,-74 781,-74 781,-55 825,-55 825,-74"/>
<text text-anchor="middle" x="803" y="-62" font-family="Helvetica,sans-Serif" font-size="10.00">string</text>
</a>
</g>
</g>
<!-- Node5&#45;&gt;Node8 -->
<g id="edge8_Node000005_Node000008" class="edge">
<title>Node5&#45;&gt;Node8</title>
<g id="a_edge8_Node000005_Node000008"><a xlink:title=" ">
<path fill="none" stroke="#63b8ff" d="M819.7,-109.75C817.02,-102.65 813.15,-92.4 809.81,-83.56"/>
<polygon fill="#63b8ff" stroke="#63b8ff" points="813.05,-82.21 806.24,-74.09 806.5,-84.68 813.05,-82.21"/>
</a>
</g>
</g>
<!-- Node9 -->
<g id="Node000009" class="node">
<title>Node9</title>
<g id="a_Node000009"><a xlink:title=" ">
<polygon fill="#e0e0e0" stroke="#999999" points="953,-74 843,-74 843,-55 953,-55 953,-74"/>
<text text-anchor="middle" x="898" y="-62" font-family="Helvetica,sans-Serif" font-size="10.00">nlohmann/json.hpp</text>
</a>
</g>
</g>
<!-- Node5&#45;&gt;Node9 -->
<g id="edge9_Node000005_Node000009" class="edge">
<title>Node5&#45;&gt;Node9</title>
<g id="a_edge9_Node000005_Node000009"><a xlink:title=" ">
<path fill="none" stroke="#63b8ff" d="M835.05,-109.98C846.46,-101.92 863.83,-89.65 877.43,-80.03"/>
<polygon fill="#63b8ff" stroke="#63b8ff" points="879.58,-82.8 885.73,-74.17 875.54,-77.08 879.58,-82.8"/>
</a>
</g>
</g>
<!-- Node10 -->
<g id="Node000010" class="node">
<title>Node10</title>
<g id="a_Node000010"><a xlink:href="CoreMath_8h.html" target="_top" xlink:title=" ">
<polygon fill="white" stroke="#666666" points="762.5,-74 689.5,-74 689.5,-55 762.5,-55 762.5,-74"/>
<text text-anchor="middle" x="726" y="-62" font-family="Helvetica,sans-Serif" font-size="10.00">CoreMath.h</text>
</a>
</g>
</g>
<!-- Node5&#45;&gt;Node10 -->
<g id="edge10_Node000005_Node000010" class="edge">
<title>Node5&#45;&gt;Node10</title>
<g id="a_edge10_Node000005_Node000010"><a xlink:title=" ">
<path fill="none" stroke="#63b8ff" d="M807.42,-109.98C792.23,-101.69 768.9,-88.94 751.1,-79.22"/>
<polygon fill="#63b8ff" stroke="#63b8ff" points="752.32,-75.89 741.87,-74.17 748.97,-82.04 752.32,-75.89"/>
</a>
</g>
</g>
<!-- Node5&#45;&gt;Node11 -->
<g id="edge12_Node000005_Node000011" class="edge">
<title>Node5&#45;&gt;Node11</title>
<g id="a_edge12_Node000005_Node000011"><a xlink:title=" ">
<path fill="none" stroke="#63b8ff" d="M867.34,-109.98C915.49,-100.74 992.42,-85.97 1044.29,-76.01"/>
<polygon fill="#63b8ff" stroke="#63b8ff" points="1045.15,-79.41 1054.31,-74.08 1043.83,-72.53 1045.15,-79.41"/>
</a>
</g>
</g>
<!-- Node10&#45;&gt;Node3 -->
<g id="edge11_Node000010_Node000003" class="edge">
<title>Node10&#45;&gt;Node3</title>
<g id="a_edge11_Node000010_Node000003"><a xlink:title=" ">
<path fill="none" stroke="#63b8ff" d="M762.62,-56.52C765.79,-55.98 768.95,-55.47 772,-55 885.54,-37.68 1019.58,-22.93 1090.72,-15.55"/>
<polygon fill="#63b8ff" stroke="#63b8ff" points="1091.17,-19.03 1100.75,-14.52 1090.45,-12.06 1091.17,-19.03"/>
</a>
</g>
</g>
<!-- Node11&#45;&gt;Node3 -->
<g id="edge13_Node000011_Node000003" class="edge">
<title>Node11&#45;&gt;Node3</title>
<g id="a_edge13_Node000011_Node000003"><a xlink:title=" ">
<path fill="none" stroke="#63b8ff" d="M1105.94,-54.75C1111.87,-47.26 1120.57,-36.28 1127.82,-27.13"/>
<polygon fill="#63b8ff" stroke="#63b8ff" points="1130.73,-29.1 1134.19,-19.09 1125.24,-24.75 1130.73,-29.1"/>
</a>
</g>
</g>
<!-- Node12&#45;&gt;Node6 -->
<g id="edge19_Node000012_Node000006" class="edge">
<title>Node12&#45;&gt;Node6</title>
<g id="a_edge19_Node000012_Node000006"><a xlink:title=" ">
<path fill="none" stroke="#63b8ff" d="M524.18,-219.93C481.37,-212.53 428.8,-200.44 414,-184 389.26,-156.51 390.2,-110.09 393.08,-84.26"/>
<polygon fill="#63b8ff" stroke="#63b8ff" points="396.56,-84.65 394.41,-74.28 389.62,-83.73 396.56,-84.65"/>
</a>
</g>
</g>
<!-- Node12&#45;&gt;Node10 -->
<g id="edge18_Node000012_Node000010" class="edge">
<title>Node12&#45;&gt;Node10</title>
<g id="a_edge18_Node000012_Node000010"><a xlink:title=" ">
<path fill="none" stroke="#63b8ff" d="M584.43,-219.64C585.53,-206.3 589.4,-180.92 603,-165 627.02,-136.89 649.38,-152.41 678,-129 693.82,-116.06 707.38,-96.88 716.01,-82.99"/>
<polygon fill="#63b8ff" stroke="#63b8ff" points="719.04,-84.74 721.17,-74.36 713.03,-81.15 719.04,-84.74"/>
</a>
</g>
</g>
<!-- Node12&#45;&gt;Node11 -->
<g id="edge33_Node000012_Node000011" class="edge">
<title>Node12&#45;&gt;Node11</title>
<g id="a_edge33_Node000012_Node000011"><a xlink:title=" ">
<path fill="none" stroke="#63b8ff" d="M657.19,-225.18C751.19,-220 908.48,-208.02 961,-184 1005.35,-163.72 1004.75,-141.47 1042,-110 1054.11,-99.77 1068.14,-88.81 1079.25,-80.32"/>
<polygon fill="#63b8ff" stroke="#63b8ff" points="1081.58,-82.94 1087.44,-74.11 1077.35,-77.36 1081.58,-82.94"/>
</a>
</g>
</g>
<!-- Node13 -->
<g id="Node000013" class="node">
<title>Node13</title>
<g id="a_Node000013"><a xlink:title=" ">
<polygon fill="#e0e0e0" stroke="#999999" points="613,-74 475,-74 475,-55 613,-55 613,-74"/>
<text text-anchor="middle" x="544" y="-62" font-family="Helvetica,sans-Serif" font-size="10.00">libultraship/libultraship.h</text>
</a>
</g>
</g>
<!-- Node12&#45;&gt;Node13 -->
<g id="edge15_Node000012_Node000013" class="edge">
<title>Node12&#45;&gt;Node13</title>
<g id="a_edge15_Node000012_Node000013"><a xlink:title=" ">
<path fill="none" stroke="#63b8ff" d="M525.78,-219.94C485.01,-212.62 435.65,-200.61 423,-184 404.74,-160 436.82,-125.47 453,-110 468.01,-95.64 488.55,-85.06 506.31,-77.82"/>
<polygon fill="#63b8ff" stroke="#63b8ff" points="507.77,-81.01 515.84,-74.15 505.25,-74.48 507.77,-81.01"/>
</a>
</g>
</g>
<!-- Node12&#45;&gt;Node14 -->
<g id="edge16_Node000012_Node000014" class="edge">
<title>Node12&#45;&gt;Node14</title>
<g id="a_edge16_Node000012_Node000014"><a xlink:title=" ">
<path fill="none" stroke="#63b8ff" d="M514.21,-219.96C424.43,-208.79 278.67,-189.93 268,-184 248.85,-173.35 233.7,-152.84 224.59,-138"/>
<polygon fill="#63b8ff" stroke="#63b8ff" points="227.54,-136.12 219.49,-129.23 221.49,-139.64 227.54,-136.12"/>
</a>
</g>
</g>
<!-- Node15 -->
<g id="Node000015" class="node">
<title>Node15</title>
<g id="a_Node000015"><a xlink:title=" ">
<polygon fill="#e0e0e0" stroke="#999999" points="327,-74 237,-74 237,-55 327,-55 327,-74"/>
<text text-anchor="middle" x="282" y="-62" font-family="Helvetica,sans-Serif" font-size="10.00">libultra/types.h</text>
</a>
</g>
</g>
<!-- Node12&#45;&gt;Node15 -->
<g id="edge17_Node000012_Node000015" class="edge">
<title>Node12&#45;&gt;Node15</title>
<g id="a_edge17_Node000012_Node000015"><a xlink:title=" ">
<path fill="none" stroke="#63b8ff" d="M510.72,-220.43C475.26,-214.21 433.09,-203.24 399,-184 352.83,-157.94 312.77,-108.41 293.76,-82.41"/>
<polygon fill="#63b8ff" stroke="#63b8ff" points="296.6,-80.36 287.94,-74.27 290.91,-84.44 296.6,-80.36"/>
</a>
</g>
</g>
<!-- Node16 -->
<g id="Node000016" class="node">
<title>Node16</title>
<g id="a_Node000016"><a xlink:href="GameObject_8h.html" target="_top" xlink:title=" ">
<polygon fill="white" stroke="#666666" points="518,-184 432,-184 432,-165 518,-165 518,-184"/>
<text text-anchor="middle" x="475" y="-172" font-family="Helvetica,sans-Serif" font-size="10.00">GameObject.h</text>
</a>
</g>
</g>
<!-- Node12&#45;&gt;Node16 -->
<g id="edge20_Node000012_Node000016" class="edge">
<title>Node12&#45;&gt;Node16</title>
<g id="a_edge20_Node000012_Node000016"><a xlink:title=" ">
<path fill="none" stroke="#63b8ff" d="M561.37,-219.98C542.31,-211.61 515.48,-198.7 496.69,-188.95"/>
<polygon fill="#63b8ff" stroke="#63b8ff" points="498.16,-185.76 487.68,-184.17 494.88,-191.95 498.16,-185.76"/>
</a>
</g>
</g>
<!-- Node18 -->
<g id="Node000018" class="node">
<title>Node18</title>
<g id="a_Node000018"><a xlink:title=" ">
<polygon fill="#e0e0e0" stroke="#999999" points="782,-184 612,-184 612,-165 782,-165 782,-184"/>
<text text-anchor="middle" x="697" y="-172" font-family="Helvetica,sans-Serif" font-size="10.00">graphic/Fast3D/Fast3dWindow.h</text>
</a>
</g>
</g>
<!-- Node12&#45;&gt;Node18 -->
<g id="edge31_Node000012_Node000018" class="edge">
<title>Node12&#45;&gt;Node18</title>
<g id="a_edge31_Node000012_Node000018"><a xlink:title=" ">
<path fill="none" stroke="#63b8ff" d="M602.16,-219.98C620.25,-211.5 648.28,-198.35 669.19,-188.54"/>
<polygon fill="#63b8ff" stroke="#63b8ff" points="670.95,-191.59 678.51,-184.17 667.97,-185.25 670.95,-191.59"/>
</a>
</g>
</g>
<!-- Node19 -->
<g id="Node000019" class="node">
<title>Node19</title>
<g id="a_Node000019"><a xlink:title=" ">
<polygon fill="#e0e0e0" stroke="#999999" points="952,-184 800,-184 800,-165 952,-165 952,-184"/>
<text text-anchor="middle" x="876" y="-172" font-family="Helvetica,sans-Serif" font-size="10.00">graphic/Fast3D/interpreter.h</text>
</a>
</g>
</g>
<!-- Node12&#45;&gt;Node19 -->
<g id="edge32_Node000012_Node000019" class="edge">
<title>Node12&#45;&gt;Node19</title>
<g id="a_edge32_Node000012_Node000019"><a xlink:title=" ">
<path fill="none" stroke="#63b8ff" d="M630.91,-219.98C682.06,-210.7 763.92,-195.84 818.8,-185.88"/>
<polygon fill="#63b8ff" stroke="#63b8ff" points="819.5,-189.31 828.72,-184.08 818.25,-182.42 819.5,-189.31"/>
</a>
</g>
</g>
<!-- Node16&#45;&gt;Node5 -->
<g id="edge27_Node000016_Node000005" class="edge">
<title>Node16&#45;&gt;Node5</title>
<g id="a_edge27_Node000016_Node000005"><a xlink:title=" ">
<path fill="none" stroke="#63b8ff" d="M518.02,-166.95C577.91,-157.83 686.92,-141.23 757.09,-130.54"/>
<polygon fill="#63b8ff" stroke="#63b8ff" points="757.79,-133.97 767.15,-129.01 756.74,-127.05 757.79,-133.97"/>
</a>
</g>
</g>
<!-- Node16&#45;&gt;Node6 -->
<g id="edge26_Node000016_Node000006" class="edge">
<title>Node16&#45;&gt;Node6</title>
<g id="a_edge26_Node000016_Node000006"><a xlink:title=" ">
<path fill="none" stroke="#63b8ff" d="M468.54,-164.66C455.39,-146.69 425.36,-105.64 408.35,-82.38"/>
<polygon fill="#63b8ff" stroke="#63b8ff" points="411.06,-80.16 402.33,-74.16 405.41,-84.3 411.06,-80.16"/>
</a>
</g>
</g>
<!-- Node16&#45;&gt;Node10 -->
<g id="edge24_Node000016_Node000010" class="edge">
<title>Node16&#45;&gt;Node10</title>
<g id="a_edge24_Node000016_Node000010"><a xlink:title=" ">
<path fill="none" stroke="#63b8ff" d="M517.95,-164.97C562.25,-155.76 628.02,-140.82 651,-129 674.55,-116.88 697.12,-96.11 711.24,-81.63"/>
<polygon fill="#63b8ff" stroke="#63b8ff" points="713.82,-84 718.16,-74.34 708.74,-79.18 713.82,-84"/>
</a>
</g>
</g>
<!-- Node16&#45;&gt;Node11 -->
<g id="edge30_Node000016_Node000011" class="edge">
<title>Node16&#45;&gt;Node11</title>
<g id="a_edge30_Node000016_Node000011"><a xlink:title=" ">
<path fill="none" stroke="#63b8ff" d="M518.23,-166.82C522.87,-166.17 527.53,-165.55 532,-165 693.77,-144.97 739.35,-170.46 897,-129 917.21,-123.69 920.33,-117.06 940,-110 977.37,-96.59 1020.85,-84.67 1052.88,-76.54"/>
<polygon fill="#63b8ff" stroke="#63b8ff" points="1054.01,-79.87 1062.86,-74.04 1052.31,-73.08 1054.01,-79.87"/>
</a>
</g>
</g>
<!-- Node16&#45;&gt;Node12 -->
<g id="edge25_Node000016_Node000012" class="edge">
<title>Node16&#45;&gt;Node12</title>
<g id="a_edge25_Node000016_Node000012"><a xlink:title=" ">
<path fill="none" stroke="#63b8ff" d="M497.98,-184.17C517.14,-192.6 543.97,-205.51 562.65,-215.23"/>
<polygon fill="#63b8ff" stroke="#63b8ff" points="561.13,-218.39 571.6,-219.98 564.41,-212.2 561.13,-218.39"/>
</a>
</g>
</g>
<!-- Node16&#45;&gt;Node13 -->
<g id="edge21_Node000016_Node000013" class="edge">
<title>Node16&#45;&gt;Node13</title>
<g id="a_edge21_Node000016_Node000013"><a xlink:title=" ">
<path fill="none" stroke="#63b8ff" d="M515.32,-164.94C560.26,-154.99 627.63,-138.7 635,-129 652.53,-105.92 618.04,-88.04 586.6,-77.22"/>
<polygon fill="#63b8ff" stroke="#63b8ff" points="587.6,-73.86 577.01,-74.09 585.43,-80.51 587.6,-73.86"/>
</a>
</g>
</g>
<!-- Node16&#45;&gt;Node14 -->
<g id="edge22_Node000016_Node000014" class="edge">
<title>Node16&#45;&gt;Node14</title>
<g id="a_edge22_Node000016_Node000014"><a xlink:title=" ">
<path fill="none" stroke="#63b8ff" d="M433.23,-164.98C387.13,-155.59 313,-140.48 264.14,-130.52"/>
<polygon fill="#63b8ff" stroke="#63b8ff" points="264.62,-127.04 254.12,-128.47 263.22,-133.9 264.62,-127.04"/>
</a>
</g>
</g>
<!-- Node16&#45;&gt;Node15 -->
<g id="edge23_Node000016_Node000015" class="edge">
<title>Node16&#45;&gt;Node15</title>
<g id="a_edge23_Node000016_Node000015"><a xlink:title=" ">
<path fill="none" stroke="#63b8ff" d="M459.53,-164.84C425.99,-146.08 346.37,-101.52 306.14,-79.01"/>
<polygon fill="#63b8ff" stroke="#63b8ff" points="307.71,-75.88 297.27,-74.05 304.29,-81.98 307.71,-75.88"/>
</a>
</g>
</g>
<!-- Node17 -->
<g id="Node000017" class="node">
<title>Node17</title>
<g id="a_Node000017"><a xlink:href="DefaultProperties_8h.html" target="_top" xlink:title=" ">
<polygon fill="white" stroke="#666666" points="625.5,-129 462.5,-129 462.5,-110 625.5,-110 625.5,-129"/>
<text text-anchor="middle" x="544" y="-117" font-family="Helvetica,sans-Serif" font-size="10.00">src/port/ui/DefaultProperties.h</text>
</a>
</g>
</g>
<!-- Node16&#45;&gt;Node17 -->
<g id="edge28_Node000016_Node000017" class="edge">
<title>Node16&#45;&gt;Node17</title>
<g id="a_edge28_Node000016_Node000017"><a xlink:title=" ">
<path fill="none" stroke="#63b8ff" d="M486.09,-164.98C496.49,-157 512.26,-144.88 524.72,-135.31"/>
<polygon fill="#63b8ff" stroke="#63b8ff" points="526.91,-138.04 532.71,-129.17 522.65,-132.49 526.91,-138.04"/>
</a>
</g>
</g>
<!-- Node17&#45;&gt;Node13 -->
<g id="edge29_Node000017_Node000013" class="edge">
<title>Node17&#45;&gt;Node13</title>
<g id="a_edge29_Node000017_Node000013"><a xlink:title=" ">
<path fill="none" stroke="#63b8ff" d="M544,-109.75C544,-102.8 544,-92.85 544,-84.13"/>
<polygon fill="#63b8ff" stroke="#63b8ff" points="547.5,-84.09 544,-74.09 540.5,-84.09 547.5,-84.09"/>
</a>
</g>
</g>
<!-- Node20&#45;&gt;Node3 -->
<g id="edge36_Node000020_Node000003" class="edge">
<title>Node20&#45;&gt;Node3</title>
<g id="a_edge36_Node000020_Node000003"><a xlink:title=" ">
<path fill="none" stroke="#63b8ff" d="M1467.6,-56.61C1464.7,-56.04 1461.8,-55.49 1459,-55 1364.74,-38.41 1253.88,-24.06 1191.08,-16.4"/>
<polygon fill="#63b8ff" stroke="#63b8ff" points="1191.4,-12.92 1181.05,-15.19 1190.56,-19.86 1191.4,-12.92"/>
</a>
</g>
</g>
<!-- Node21 -->
<g id="Node000021" class="node">
<title>Node21</title>
<g id="a_Node000021"><a xlink:href="math_8h.html" target="_top" xlink:title=" ">
<polygon fill="white" stroke="#666666" points="1524.5,-19 1473.5,-19 1473.5,0 1524.5,0 1524.5,-19"/>
<text text-anchor="middle" x="1499" y="-7" font-family="Helvetica,sans-Serif" font-size="10.00">math.h</text>
</a>
</g>
</g>
<!-- Node20&#45;&gt;Node21 -->
<g id="edge35_Node000020_Node000021" class="edge">
<title>Node20&#45;&gt;Node21</title>
<g id="a_edge35_Node000020_Node000021"><a xlink:title=" ">
<path fill="none" stroke="#63b8ff" d="M1499,-54.75C1499,-47.8 1499,-37.85 1499,-29.13"/>
<polygon fill="#63b8ff" stroke="#63b8ff" points="1502.5,-29.09 1499,-19.09 1495.5,-29.09 1502.5,-29.09"/>
</a>
</g>
</g>
<!-- Node22&#45;&gt;Node11 -->
<g id="edge43_Node000022_Node000011" class="edge">
<title>Node22&#45;&gt;Node11</title>
<g id="a_edge43_Node000022_Node000011"><a xlink:title=" ">
<path fill="none" stroke="#63b8ff" d="M482.36,-219.78C506.37,-205.66 556.63,-178.05 603,-165 744.59,-125.15 788.99,-163.42 932,-129 982.83,-116.77 1039.13,-93.11 1071.65,-78.38"/>
<polygon fill="#63b8ff" stroke="#63b8ff" points="1073.32,-81.47 1080.95,-74.12 1070.4,-75.1 1073.32,-81.47"/>
</a>
</g>
</g>
<!-- Node23 -->
<g id="Node000023" class="node">
<title>Node23</title>
<g id="a_Node000023"><a xlink:href="mk64_8h.html" target="_top" xlink:title=" ">
<polygon fill="white" stroke="#666666" points="119.5,-184 66.5,-184 66.5,-165 119.5,-165 119.5,-184"/>
<text text-anchor="middle" x="93" y="-172" font-family="Helvetica,sans-Serif" font-size="10.00">mk64.h</text>
</a>
</g>
</g>
<!-- Node22&#45;&gt;Node23 -->
<g id="edge38_Node000022_Node000023" class="edge">
<title>Node22&#45;&gt;Node23</title>
<g id="a_edge38_Node000022_Node000023"><a xlink:title=" ">
<path fill="none" stroke="#63b8ff" d="M442.81,-224.94C378.04,-215.79 205.45,-191.39 129.61,-180.67"/>
<polygon fill="#63b8ff" stroke="#63b8ff" points="129.96,-177.19 119.57,-179.26 128.98,-184.12 129.96,-177.19"/>
</a>
</g>
</g>
<!-- Node23&#45;&gt;Node3 -->
<g id="edge39_Node000023_Node000003" class="edge">
<title>Node23&#45;&gt;Node3</title>
<g id="a_edge39_Node000023_Node000003"><a xlink:title=" ">
<path fill="none" stroke="#63b8ff" d="M90.54,-164.79C87.39,-151.64 83.58,-126.51 95,-110 131.39,-57.39 165.58,-68.98 228,-55 394.3,-17.74 924.23,-11.68 1090.56,-10.69"/>
<polygon fill="#63b8ff" stroke="#63b8ff" points="1091,-14.19 1100.98,-10.63 1090.96,-7.19 1091,-14.19"/>
</a>
</g>
</g>
<!-- Node23&#45;&gt;Node14 -->
<g id="edge42_Node000023_Node000014" class="edge">
<title>Node23&#45;&gt;Node14</title>
<g id="a_edge42_Node000023_Node000014"><a xlink:title=" ">
<path fill="none" stroke="#63b8ff" d="M112.6,-164.98C132.32,-156.42 162.95,-143.11 185.58,-133.28"/>
<polygon fill="#63b8ff" stroke="#63b8ff" points="187.26,-136.37 195.04,-129.17 184.48,-129.94 187.26,-136.37"/>
</a>
</g>
</g>
<!-- Node24 -->
<g id="Node000024" class="node">
<title>Node24</title>
<g id="a_Node000024"><a xlink:href="string_8h.html" target="_top" xlink:title=" ">
<polygon fill="white" stroke="#666666" points="157.5,-129 104.5,-129 104.5,-110 157.5,-110 157.5,-129"/>
<text text-anchor="middle" x="131" y="-117" font-family="Helvetica,sans-Serif" font-size="10.00">string.h</text>
</a>
</g>
</g>
<!-- Node23&#45;&gt;Node24 -->
<g id="edge40_Node000023_Node000024" class="edge">
<title>Node23&#45;&gt;Node24</title>
<g id="a_edge40_Node000023_Node000024"><a xlink:title=" ">
<path fill="none" stroke="#63b8ff" d="M99.27,-164.75C104.59,-157.34 112.36,-146.5 118.88,-137.41"/>
<polygon fill="#63b8ff" stroke="#63b8ff" points="121.86,-139.26 124.84,-129.09 116.17,-135.18 121.86,-139.26"/>
</a>
</g>
</g>
<!-- Node24&#45;&gt;Node15 -->
<g id="edge41_Node000024_Node000015" class="edge">
<title>Node24&#45;&gt;Node15</title>
<g id="a_edge41_Node000024_Node000015"><a xlink:title=" ">
<path fill="none" stroke="#63b8ff" d="M155.26,-109.98C180.32,-101.19 219.63,-87.39 247.83,-77.49"/>
<polygon fill="#63b8ff" stroke="#63b8ff" points="249.02,-80.78 257.3,-74.17 246.7,-74.18 249.02,-80.78"/>
</a>
</g>
</g>
<!-- Node25&#45;&gt;Node3 -->
<g id="edge45_Node000025_Node000003" class="edge">
<title>Node25&#45;&gt;Node3</title>
<g id="a_edge45_Node000025_Node000003"><a xlink:title=" ">
<path fill="none" stroke="#63b8ff" d="M1269.54,-109.66C1245.53,-91.14 1189.71,-48.08 1160.15,-25.28"/>
<polygon fill="#63b8ff" stroke="#63b8ff" points="1162.28,-22.5 1152.22,-19.16 1158,-28.04 1162.28,-22.5"/>
</a>
</g>
</g>
<!-- Node25&#45;&gt;Node11 -->
<g id="edge46_Node000025_Node000011" class="edge">
<title>Node25&#45;&gt;Node11</title>
<g id="a_edge46_Node000025_Node000011"><a xlink:title=" ">
<path fill="none" stroke="#63b8ff" d="M1251.76,-109.98C1220.94,-101.01 1172.22,-86.82 1138.11,-76.89"/>
<polygon fill="#63b8ff" stroke="#63b8ff" points="1139.05,-73.52 1128.47,-74.08 1137.09,-80.24 1139.05,-73.52"/>
</a>
</g>
</g>
<!-- Node26&#45;&gt;Node3 -->
<g id="edge52_Node000026_Node000003" class="edge">
<title>Node26&#45;&gt;Node3</title>
<g id="a_edge52_Node000026_Node000003"><a xlink:title=" ">
<path fill="none" stroke="#63b8ff" d="M1191.5,-109.66C1182.47,-91.93 1162,-51.73 1150.07,-28.32"/>
<polygon fill="#63b8ff" stroke="#63b8ff" points="1153.07,-26.48 1145.41,-19.16 1146.83,-29.66 1153.07,-26.48"/>
</a>
</g>
</g>
<!-- Node26&#45;&gt;Node11 -->
<g id="edge53_Node000026_Node000011" class="edge">
<title>Node26&#45;&gt;Node11</title>
<g id="a_edge53_Node000026_Node000011"><a xlink:title=" ">
<path fill="none" stroke="#63b8ff" d="M1180.42,-109.98C1165.23,-101.69 1141.9,-88.94 1124.1,-79.22"/>
<polygon fill="#63b8ff" stroke="#63b8ff" points="1125.32,-75.89 1114.87,-74.17 1121.97,-82.04 1125.32,-75.89"/>
</a>
</g>
</g>
<!-- Node27&#45;&gt;Node25 -->
<g id="edge66_Node000027_Node000025" class="edge">
<title>Node27&#45;&gt;Node25</title>
<g id="a_edge66_Node000027_Node000025"><a xlink:title=" ">
<path fill="none" stroke="#63b8ff" d="M1306.56,-219.87C1297.58,-211.7 1285.26,-198.55 1280,-184 1274.78,-169.56 1275.54,-152.05 1277.31,-139.07"/>
<polygon fill="#63b8ff" stroke="#63b8ff" points="1280.79,-139.47 1279,-129.03 1273.89,-138.31 1280.79,-139.47"/>
</a>
</g>
</g>
<!-- Node28 -->
<g id="Node000028" class="node">
<title>Node28</title>
<g id="a_Node000028"><a xlink:href="actor__types_8h.html" target="_top" xlink:title=" ">
<polygon fill="white" stroke="#666666" points="1451.5,-129 1368.5,-129 1368.5,-110 1451.5,-110 1451.5,-129"/>
<text text-anchor="middle" x="1410" y="-117" font-family="Helvetica,sans-Serif" font-size="10.00">actor_types.h</text>
</a>
</g>
</g>
<!-- Node27&#45;&gt;Node28 -->
<g id="edge56_Node000027_Node000028" class="edge">
<title>Node27&#45;&gt;Node28</title>
<g id="a_edge56_Node000027_Node000028"><a xlink:title=" ">
<path fill="none" stroke="#63b8ff" d="M1345.34,-220.88C1364.19,-214.28 1387.82,-202.77 1401,-184 1410.1,-171.04 1411.87,-152.89 1411.64,-139.31"/>
<polygon fill="#63b8ff" stroke="#63b8ff" points="1415.13,-138.99 1411.1,-129.19 1408.14,-139.37 1415.13,-138.99"/>
</a>
</g>
</g>
<!-- Node30 -->
<g id="Node000030" class="node">
<title>Node30</title>
<g id="a_Node000030"><a xlink:href="code__800029B0_8h.html" target="_top" xlink:title=" ">
<polygon fill="white" stroke="#666666" points="1391.5,-184 1288.5,-184 1288.5,-165 1391.5,-165 1391.5,-184"/>
<text text-anchor="middle" x="1340" y="-172" font-family="Helvetica,sans-Serif" font-size="10.00">code_800029B0.h</text>
</a>
</g>
</g>
<!-- Node27&#45;&gt;Node30 -->
<g id="edge61_Node000027_Node000030" class="edge">
<title>Node27&#45;&gt;Node30</title>
<g id="a_edge61_Node000027_Node000030"><a xlink:title=" ">
<path fill="none" stroke="#63b8ff" d="M1320.8,-219.75C1323.91,-212.57 1328.42,-202.18 1332.29,-193.27"/>
<polygon fill="#63b8ff" stroke="#63b8ff" points="1335.5,-194.66 1336.27,-184.09 1329.08,-191.87 1335.5,-194.66"/>
</a>
</g>
</g>
<!-- Node28&#45;&gt;Node3 -->
<g id="edge57_Node000028_Node000003" class="edge">
<title>Node28&#45;&gt;Node3</title>
<g id="a_edge57_Node000028_Node000003"><a xlink:title=" ">
<path fill="none" stroke="#63b8ff" d="M1403.49,-109.99C1392.44,-96.17 1368.59,-68.99 1342,-55 1294.52,-30.01 1233.61,-19.02 1191.34,-14.21"/>
<polygon fill="#63b8ff" stroke="#63b8ff" points="1191.6,-10.72 1181.29,-13.15 1190.86,-17.68 1191.6,-10.72"/>
</a>
</g>
</g>
<!-- Node28&#45;&gt;Node11 -->
<g id="edge59_Node000028_Node000011" class="edge">
<title>Node28&#45;&gt;Node11</title>
<g id="a_edge59_Node000028_Node000011"><a xlink:title=" ">
<path fill="none" stroke="#63b8ff" d="M1368.38,-111.41C1314.6,-102.24 1220.6,-86.22 1159.08,-75.74"/>
<polygon fill="#63b8ff" stroke="#63b8ff" points="1159.56,-72.27 1149.12,-74.04 1158.39,-79.17 1159.56,-72.27"/>
</a>
</g>
</g>
<!-- Node28&#45;&gt;Node20 -->
<g id="edge58_Node000028_Node000020" class="edge">
<title>Node28&#45;&gt;Node20</title>
<g id="a_edge58_Node000028_Node000020"><a xlink:title=" ">
<path fill="none" stroke="#63b8ff" d="M1424.3,-109.98C1438.1,-101.77 1459.24,-89.18 1475.51,-79.49"/>
<polygon fill="#63b8ff" stroke="#63b8ff" points="1477.64,-82.29 1484.44,-74.17 1474.06,-76.28 1477.64,-82.29"/>
</a>
</g>
</g>
<!-- Node29 -->
<g id="Node000029" class="node">
<title>Node29</title>
<g id="a_Node000029"><a xlink:title=" ">
<polygon fill="#e0e0e0" stroke="#999999" points="1450,-74 1394,-74 1394,-55 1450,-55 1450,-74"/>
<text text-anchor="middle" x="1422" y="-62" font-family="Helvetica,sans-Serif" font-size="10.00">assert.h</text>
</a>
</g>
</g>
<!-- Node28&#45;&gt;Node29 -->
<g id="edge60_Node000028_Node000029" class="edge">
<title>Node28&#45;&gt;Node29</title>
<g id="a_edge60_Node000028_Node000029"><a xlink:title=" ">
<path fill="none" stroke="#63b8ff" d="M1411.98,-109.75C1413.57,-102.72 1415.86,-92.62 1417.85,-83.84"/>
<polygon fill="#63b8ff" stroke="#63b8ff" points="1421.26,-84.62 1420.06,-74.09 1414.43,-83.07 1421.26,-84.62"/>
</a>
</g>
</g>
<!-- Node30&#45;&gt;Node3 -->
<g id="edge63_Node000030_Node000003" class="edge">
<title>Node30&#45;&gt;Node3</title>
<g id="a_edge63_Node000030_Node000003"><a xlink:title=" ">
<path fill="none" stroke="#63b8ff" d="M1339.42,-164.76C1338.13,-151.58 1334.02,-126.41 1321,-110 1284.82,-64.39 1221.7,-36.51 1180.64,-22.29"/>
<polygon fill="#63b8ff" stroke="#63b8ff" points="1181.56,-18.9 1170.96,-19.04 1179.33,-25.54 1181.56,-18.9"/>
</a>
</g>
</g>
<!-- Node30&#45;&gt;Node20 -->
<g id="edge62_Node000030_Node000020" class="edge">
<title>Node30&#45;&gt;Node20</title>
<g id="a_edge62_Node000030_Node000020"><a xlink:title=" ">
<path fill="none" stroke="#63b8ff" d="M1383.96,-164.96C1408.69,-158.41 1438.94,-147.28 1461,-129 1475.5,-116.98 1485.86,-97.9 1492.06,-83.79"/>
<polygon fill="#63b8ff" stroke="#63b8ff" points="1495.45,-84.75 1495.99,-74.16 1488.97,-82.1 1495.45,-84.75"/>
</a>
</g>
</g>
<!-- Node30&#45;&gt;Node25 -->
<g id="edge65_Node000030_Node000025" class="edge">
<title>Node30&#45;&gt;Node25</title>
<g id="a_edge65_Node000030_Node000025"><a xlink:title=" ">
<path fill="none" stroke="#63b8ff" d="M1330.52,-164.98C1321.8,-157.15 1308.66,-145.34 1298.1,-135.86"/>
<polygon fill="#63b8ff" stroke="#63b8ff" points="1300.43,-133.25 1290.65,-129.17 1295.75,-138.46 1300.43,-133.25"/>
</a>
</g>
</g>
<!-- Node30&#45;&gt;Node28 -->
<g id="edge64_Node000030_Node000028" class="edge">
<title>Node30&#45;&gt;Node28</title>
<g id="a_edge64_Node000030_Node000028"><a xlink:title=" ">
<path fill="none" stroke="#63b8ff" d="M1351.25,-164.98C1361.8,-157 1377.8,-144.88 1390.44,-135.31"/>
<polygon fill="#63b8ff" stroke="#63b8ff" points="1392.69,-138 1398.55,-129.17 1388.46,-132.42 1392.69,-138"/>
</a>
</g>
</g>
</g>
</svg>

<g id="navigator" transform="translate(0 0)" fill="#404254">
  <rect fill="#f2f5e9" fill-opacity="0.5" stroke="#606060" stroke-width=".5" x="0" y="0" width="60" height="60"/>
  <use id="zoomplus" xlink:href="#zoomPlus" x="17" y="9" onmousedown="handleZoom(evt,'in')"/>
  <use id="zoomminus" xlink:href="#zoomMin" x="42" y="9" onmousedown="handleZoom(evt,'out')"/>
  <use id="reset" xlink:href="#resetDef" x="30" y="36" onmousedown="handleReset()"/>
   <use id="arrowup" xlink:href="#arrowUp" x="0" y="0" onmousedown="handlePan(0,-1)"/>
  <use id="arrowright" xlink:href="#arrowRight" x="0" y="0" onmousedown="handlePan(1,0)"/>
  <use id="arrowdown" xlink:href="#arrowDown" x="0" y="0" onmousedown="handlePan(0,1)"/>
  <use id="arrowleft" xlink:href="#arrowLeft" x="0" y="0" onmousedown="handlePan(-1,0)"/>
</g>
<svg viewBox="0 0 15 15" width="100%" height="30px" preserveAspectRatio="xMaxYMin meet">
 <g id="arrow_out" transform="scale(0.3 0.3)">
  <a xlink:href="Tree_8cpp__incl_org.svg" target="_base">
   <rect id="button" ry="5" rx="5" y="6" x="6" height="38" width="38"
        fill="#f2f5e9" fill-opacity="0.5" stroke="#606060" stroke-width="1.0"/>
   <path id="arrow"
     d="M 11.500037,31.436501 C 11.940474,20.09759 22.043105,11.32322 32.158766,21.979434 L 37.068811,17.246167 C 37.068811,17.246167 37.088388,32 37.088388,32 L 22.160133,31.978069 C 22.160133,31.978069 26.997745,27.140456 26.997745,27.140456 C 18.528582,18.264221 13.291696,25.230495 11.500037,31.436501 z"
     style="fill:#404040;"/>
  </a>
 </g>
</svg>

<style type='text/css'>
<![CDATA[
[data-mouse-over-selected='false'] { opacity: 0.7; }
[data-mouse-over-selected='true']  { opacity: 1.0; }
]]>
</style>
<script type="application/ecmascript"><![CDATA[
document.addEventListener('DOMContentLoaded', (event) => {
  highlightEdges();
  highlightAdjacentNodes();
});
]]></script>
</svg>
